<?xml version="1.0" encoding="UTF-8" standalone="no"?>
<!-- Created with Inkscape (http://www.inkscape.org/) -->

<svg
   version="1.1"
   id="svg2"
   width="2643"
   height="1107"
   viewBox="0 0 2643 1107"
   sodipodi:docname="IMG_4678.svg"
   inkscape:version="1.2.1 (9c6d41e410, 2022-07-14)"
   xmlns:inkscape="http://www.inkscape.org/namespaces/inkscape"
   xmlns:sodipodi="http://sodipodi.sourceforge.net/DTD/sodipodi-0.dtd"
   xmlns="http://www.w3.org/2000/svg"
   xmlns:svg="http://www.w3.org/2000/svg">
  <defs
     id="defs6" />
  <sodipodi:namedview
     id="namedview4"
     pagecolor="#ffffff"
     bordercolor="#000000"
     borderopacity="0.25"
     inkscape:showpageshadow="2"
     inkscape:pageopacity="0.0"
     inkscape:pagecheckerboard="0"
     inkscape:deskcolor="#d1d1d1"
     showgrid="false"
     inkscape:zoom="0.91562618"
     inkscape:cx="423.75372"
     inkscape:cy="275.22149"
     inkscape:window-width="1366"
     inkscape:window-height="705"
     inkscape:window-x="-8"
     inkscape:window-y="-8"
     inkscape:window-maximized="1"
     inkscape:current-layer="g8" />
  <g
     inkscape:groupmode="layer"
     inkscape:label="Image"
     id="g8">
    <path
       style="fill:none;stroke:#615794;stroke-width:0.336613"
       d="m 103.04144,7.0132585 c -0.11056,2.3047017 -0.25455,7.1287005 0.39283,8.3030905 0.54665,0.402824 2.12133,0.435274 2.63668,0.448839 m 87.85591,6.395641 c 1.10005,1.548048 1.70259,3.572942 4.03935,3.70274 1.07346,0.05961 3.44557,-0.06961 3.70274,-1.683064 0.13835,-0.868528 -0.0663,-1.598371 -0.56113,-2.356289 -1.56298,-2.552357 -4.40145,-3.97963 -7.18096,-4.319885 -1.03777,0.259461 -0.40124,2.055122 -0.33661,2.636822 0.0606,0.545077 0.39518,1.127484 0.16831,1.683063 -0.41168,1.007987 -0.78835,0.873611 -1.51476,1.458678 -2.8922,2.97112 -6.52712,5.180025 -9.42516,1.907449 -1.32053,-1.533506 -1.34645,-3.341621 -1.34645,-5.04919 0.27264,-3.841592 0.0506,-11.6974391 4.03936,-12.4546692 m 16.49402,1.0098381 1.34645,1.6830631 m -59.91706,20.869986 c -3.37308,-6.937126 -10.40975,-10.041305 -15.14757,-14.474345 1.67936,-1.724837 3.25202,-6.634097 6.05903,-7.7420914 M 8.1166642,23.843893 c 1.2885533,0.610346 1.9939248,1.264889 3.3661268,1.626983 1.409936,0.372058 4.248961,-0.04591 4.993077,-0.953758 1.593948,-3.606011 -1.85907,-7.169925 -3.758819,-9.761768 -0.865263,-1.198038 -1.943434,-2.155937 -1.178145,-3.366127 2.345984,-2.3018329 7.807054,-0.239587 8.596776,1.111386 m 102.42929,-2.121224 c 2.05539,0.986208 2.35888,5.45719 4.42298,7.407987 l 1.29944,-1.012346 m 88.52913,9.761768 c -1.30109,-3.672431 -2.98882,-9.936972 -0.89774,-12.061977 5.45167,-1.335803 9.5466,8.164611 11.33274,11.725364 m 9.08854,-12.118056 c -1.38482,0.328012 -3.1127,1.056305 -4.19167,1.277184 1.43083,0.383786 6.91931,4.198005 9.18465,6.464907 1.88301,2.006481 2.94266,4.932049 0.39282,6.620061 -1.17343,0.776868 -2.18966,0.448806 -3.70274,0.448806 M 103.37805,15.428576 c -0.32183,1.91929 0.94175,6.040145 2.35629,11.444831 M 41.104706,20.141153 c 0.271983,-3.447116 3.941592,-3.492342 6.153054,-3.724992 2.187469,-0.276115 2.944895,0.590035 4.562337,1.424783 0.607923,0.644176 0.567193,2.207708 -0.280398,2.805128 -3.777764,2.240718 -7.10656,1.327247 -10.434993,-0.336613 -0.527472,-0.195336 -1.070765,0.07597 -1.346451,0.280533 -4.00007,5.817272 6.801487,7.638465 10.09838,6.283415 m 36.017557,-0.673226 c 1.636274,1.291751 7.500404,2.072154 7.405479,-1.34645 -0.208758,-3.164698 -3.840265,-4.150234 -4.375965,-6.732254 0.219135,-2.253454 3.150695,-1.908762 4.375965,-1.683063 m 5.722416,1.34645 c 0.680631,-1.144685 1.745673,-1.47709 3.702743,-1.683063 m -45.442716,5.722415 c -1.036961,-1.536478 -0.813207,-4.776515 0.673226,-5.329723 2.829752,-0.339764 10.467231,1.106336 11.052004,3.64666 0.276359,1.632942 -2.242177,2.029976 -3.309913,2.356289 -2.292669,0.700592 -4.728398,-1.216451 -7.068866,-1.346451 -0.759061,-0.04214 -1.202717,0.571164 -1.346451,0.673225 M 20.907946,17.784864 c -0.365825,2.521552 -0.526583,5.359166 0.673228,7.068867 1.516912,-0.75849 2.348008,-1.493686 3.758954,-2.580675 0.335603,-0.258721 1.076487,-0.317561 1.570635,-0.841532 0.575271,-0.609639 0.392827,-1.349446 0.392827,-2.300209 m 85.83623,-1.178144 c 2.0493,0.328812 2.69882,2.363898 3.36613,3.871045 -0.11351,1.840098 -1.49083,4.326131 -3.02952,4.375965 -3.6509,-0.05069 -3.27962,-7.960856 -0.33661,-8.24701 m 13.80112,-0.168307 c 1.29079,3.331308 2.78222,7.310352 3.02951,10.098381 m 25.24595,5.04919 c 2.33711,-0.861055 7.53171,-3.473944 6.28355,-7.068866 -0.70756,-2.037719 -5.17575,-3.837183 -4.76879,-6.059029 0.92438,-2.118156 3.51284,-2.074657 4.88089,-1.683063 m 44.09626,0 c 0.78967,2.819921 2.01184,5.041356 4.03935,7.068866 M 73.419523,34.278886 v -6.732254 c 2.896458,-0.621076 7.740432,-6.405489 6.002814,-8.359237 -0.54262,-0.542687 -1.278455,-0.421203 -1.963462,-0.392693 -1.273069,0.05305 -2.690208,0.503607 -3.774512,1.439223 l -0.311853,7.265694 m 77.13132,-6.685241 c -1.11217,2.113389 -2.65352,2.692902 -5.38581,2.692902 0,-0.840253 -0.12858,-1.982683 0.72944,-2.524595 1.52618,-0.292109 3.4515,-0.278357 4.65637,-0.168307 M 26.966974,21.487604 c 1.429258,1.939562 2.882169,2.81142 5.55411,0.673225 2.67194,-2.138195 3.824033,-3.437359 3.534433,-6.059028 m 21.206597,5.722415 c 2.485259,3.433862 9.834862,10.318672 13.127895,10.434994 M 117.17917,21.824216 c 1.32053,0.938376 2.06344,2.366657 3.70274,4.375965 m 23.8995,-2.356288 c -0.25549,1.617289 -0.18749,3.172372 1.34645,4.039352 0.77421,0.437596 1.31885,0.351019 2.35629,0.336612 2.30243,-0.03198 2.33475,-1.134957 4.71258,-1.009838 M 5.0871502,32.595822 c 2.5779144,-1.560334 6.8429658,0.484958 8.1348178,3.029514 0.509867,1.004453 -3.3549569,2.124201 -3.066985,2.888313 3.790814,0.927625 6.927162,4.209453 7.779562,7.546681 -0.01605,2.086453 -2.148055,3.248749 -4.095465,3.029514 -2.230295,-0.309683 -3.289245,-2.825527 -5.3858032,-4.039352 M 38.748417,38.991464 c 2.009241,0.423122 2.698287,1.690805 3.646525,3.029514 1.06336,1.500956 2.100127,4.318067 2.075891,6.059028 -0.01717,1.232339 -0.69073,1.438346 -0.673226,2.692902 0.02053,1.47066 1.5602,2.335755 3.029514,2.356288 3.789773,1.230356 7.85022,5.769253 11.781444,2.019676 0.599507,-0.599507 1.02162,-1.464601 0.897746,-2.356288 -0.62287,-2.27599 -1.937203,-4.306259 -3.590647,-5.666202 -0.839176,-0.688036 -2.309837,-1.192282 -3.366127,-1.514757 -0.670869,-0.204997 -1.131692,-0.112092 -1.626849,-0.617347 -0.861055,-0.877886 -0.160901,-2.235782 0.617011,-2.636687 0.713619,-0.367918 2.326667,-0.128586 3.366127,0.336612 M 169.01752,59.524837 c -0.41376,-4.052084 0.7037,-8.441432 0.39283,-11.781444 -0.17167,-1.545052 -0.47462,-4.361153 0.95362,-5.722415 2.96691,-2.827883 9.56553,3.194118 9.36895,6.732254 -0.47248,1.771582 -2.45693,2.857455 -2.18799,4.039352 0.54969,2.197744 2.42058,3.938705 3.92726,6.059028 m -72.37172,4.375965 c 0.66554,-5.957101 -0.19177,-13.293158 0.11209,-18.177085 0.19557,-0.669859 0.40831,-1.179491 0.72944,-1.683063 0.55103,-0.864085 1.80054,-1.73019 2.86121,-1.626849 3.23181,0.314059 7.03621,6.404729 5.55411,9.36894 -1.11655,2.233425 -1.87494,2.295362 -2.86121,3.366127 1.11318,1.113178 2.29031,2.237128 4.03935,2.917422 0.55945,0.217452 0.75401,0.08516 1.34645,0.504919 0.81561,0.577628 1.56654,2.585859 3.36613,2.636687 2.45317,0.644364 5.44593,-0.826149 6.08713,-3.994511 M 75.893596,42.870878 c 1.045473,1.687063 10.478446,0.833163 12.673498,0.833163 0.906498,0 1.350826,0.268281 2.019676,0.673226 -0.975979,1.252174 -1.690696,2.612877 -2.356289,4.039352 l 2.10098,-0.17399 C 86.946723,52.44342 82.908442,58.650681 77.627182,58.515004 L 77.458875,55.48549 v -6.059028 l -0.280398,-2.019676 -1.421396,-4.604162 m 135.337029,0.56481 c 0.606,3.091895 1.2227,6.177612 1.65596,9.298003 -1.80891,-0.793631 -3.97452,-0.371734 -5.30249,0.295458 -1.56314,1.396623 -2.40577,3.42954 -3.47855,5.217497 l 0.72944,2.692901 c 3.64031,2.908973 6.2358,-0.998067 8.02249,-3.085728 1.10947,-1.264318 0.0562,-2.936609 0.0562,-4.992976 m 24.23612,2.356288 c 1.65296,-3.350083 1.64925,-9.904971 4.71257,-11.556923 4.40802,2.075235 2.35629,9.133561 2.35629,13.239987 -2.83293,-0.07466 -4.92171,-0.160682 -7.2007,-1.48297 -1.5703,1.989044 -2.58598,4.799278 -3.23429,7.878611 M 29.323263,44.713879 c 1.379102,-1.233685 2.165766,-1.750722 2.861208,-0.336612 0.253678,1.266181 -0.242028,2.67587 -0.617016,3.702739 -1.984897,1.667836 -5.248515,3.027502 -7.63,2.244197 -2.391768,-0.830424 -4.138347,-3.040447 -3.287675,-5.204653 0.850672,-2.164206 1.81811,-3.9904 2.782761,-5.454861 1.399332,-2.124363 1.85137,-2.692902 1.85137,-2.692902 m 18.513696,14.474346 c -0.458466,0.458466 -0.928714,0.970454 -1.683063,1.683063 -0.50088,0.472941 -1.022966,0.908855 -1.683064,1.009838 -1.719081,0.262558 -3.289042,-0.526462 -4.263871,-2.019676 -0.472605,-0.72439 -0.48001,-1.264654 -0.448705,-2.019676 0.04376,-1.050905 0.510978,-1.837232 1.683062,-2.244197 0.405955,-0.140704 1.268357,-0.177058 1.683064,-0.05588 1.204736,0.351423 3.438835,2.065455 4.712577,2.300074 m 37.364008,-0.673225 c 2.969597,-0.546996 6.814449,-0.958864 9.189588,-1.146357 m 79.339547,0.136519 c 0.49482,0.01313 1.10611,0.0067 2.01968,0.336613 2.04458,0.738528 3.37656,2.967914 5.72241,3.029514 m -30.96837,-3.029514 c -1.60541,3.167841 -1.23638,8.054952 -3.36612,9.705553 -1.07817,0.80888 -1.93653,0.761418 -3.36613,1.178144 -2.61312,0.762091 -2.63096,0.03568 -4.37596,0.617348 -2.67617,2.121138 -6.41163,4.152385 -7.55706,7.744769 -0.64932,2.125709 1.67077,5.487314 2.5537,7.205385 0.80081,1.55818 2.02805,3.03152 2.02805,3.03152 2.99372,0.156871 6.23105,0.09331 8.50967,-0.231882 0.92248,0.925499 2.7878,-14.01079 3.02684,-20.039828 M 265.89372,46.154691 c 0.33193,1.79445 0.39186,6.510028 0.34867,8.320953 0.009,3.369542 -0.01,6.724521 0.0562,10.09838 m -145.41668,-6.73225 c 1.80468,-3.760353 1.62042,-6.038732 5.72242,-7.517571 0.9792,-0.299249 1.63795,-0.157198 2.30007,0.448705 1.08354,1.114544 1.56265,2.518371 1.73928,4.039352 0,0.627109 -0.009,1.055281 0,1.683063 0.0141,1.028352 0.34671,1.795492 0.95362,2.692902 0.821,1.213488 1.62248,1.349143 2.07589,1.683063 M 253.84392,50.660816 c 1.42825,0.03972 3.57415,1.318511 4.71258,2.187982 0.72237,0.551708 1.5915,1.205747 2.01967,1.963462 0.89102,1.576357 -0.10031,4.130574 -2.35629,4.600485 -2.81292,0.09143 -6.13326,-0.835367 -8.52472,-1.698122 -0.1004,-1.094172 0.067,-3.375304 0.33393,-4.248814 0.46688,-1.527885 2.08228,-2.853129 3.81483,-2.804993 m 32.65143,3.141606 c 0.14441,-5.487797 8.68865,0.358156 9.64968,3.366127 0.61532,1.926097 -0.44669,4.934068 -1.29058,6.059028 -0.37599,0.501216 -1.83189,1.836501 -1.40233,2.019676 0.13734,0.760408 0.78498,1.039796 1.17815,1.683063 0.48236,0.789357 1.42825,2.157688 2.30007,3.029514 M 186.52138,52.624277 c 3.07949,-0.516285 4.80961,1.82582 6.56395,4.207659 0.32012,0.5783 0.16831,0.872163 0.16831,1.683063 0,0.730113 0.24471,1.257249 -0.39283,1.907584 -1.99204,1.655855 -4.29899,2.154747 -6.33943,1.290237 -2.08469,-1.644325 -2.06712,-4.175901 -1.57097,-6.227335 0.20837,-0.833116 0.88799,-2.464678 1.57097,-2.861208 m 6.73226,3.871046 c 1.91081,-1.953262 6.18128,-6.566777 8.72951,0.152912 l 1.36887,1.530152 m -93.57833,-5.049191 c 1.539,0.64798 2.91574,1.12496 5.72242,1.346451 m 21.2066,-1.346451 c -1.17111,1.874298 -2.27542,4.810429 -1.00984,6.805197 M 260.91279,54.81226 c 1.48945,-1.156153 3.57337,-1.015778 5.48819,-0.646122 3.37899,0.282897 6.48184,-0.363716 9.65938,-0.363716 m 24.23611,1.009838 c 1.31077,6.444495 1.35495,13.014891 2.35629,19.523535 m 3.02951,-19.186923 c 2.21862,0.05823 4.41703,1.49658 7.06887,2.749116 0.75132,0.35479 2.09777,0.906835 2.52459,1.683064 0.3006,0.546322 0.005,1.160303 -0.28039,1.626849 -0.30464,0.498523 -1.06134,0.979206 -0.95397,1.683063 0.0906,0.592438 0.64226,0.922655 1.06606,1.346451 1.129,1.128999 3.22879,4.044401 2.6929,5.722415 -0.80653,2.524932 -4.55302,6.442094 -7.40548,5.610324 -2.47175,-0.721024 -6.88272,-3.655614 -3.02951,-5.946936 M 244.02326,57.03203 c -0.53286,3.332861 -0.43321,6.076766 -0.27772,7.541997 m 0.67322,-7.405478 c 1.77234,0.20181 3.79587,0.380223 5.38581,0.673225 -0.0661,2.930019 0.38219,5.841627 0.67322,8.75193 m -106.70622,-8.75193 c 4.98077,1.278606 11.82221,0.02509 17.16725,0 m 161.9107,0 c 3.17916,6.763777 3.86799,14.247962 5.04919,21.543211 M 77.458875,59.188225 c -0.812205,1.474257 -1.15888,3.035224 -1.514757,4.656363 1.575859,0.660984 2.953606,0.04638 4.544271,-0.336613 L 93.616284,59.524837 M 201.89715,56.999243 c -2.04284,4.788936 -5.80654,6.14822 -8.64351,3.535432 M 9.7997276,87.127077 C 9.6997462,81.966375 9.5748843,77.475265 8.8460028,72.989344 c -0.084355,-0.505928 0.131481,-0.820661 0,-1.34645 -1.1741064,-2.966311 -2.1213869,-8.254809 0.6171117,-10.378779 0.8156465,-0.599844 1.6513885,-0.407301 2.6929015,-0.392827 1.114458,0.01548 4.510408,1.105436 5.32969,1.795155 1.638301,2.217725 2.052089,5.197232 2.580708,7.854521 0.398684,0.72237 0.675986,0.861055 0.953725,1.458542 0.499466,1.074468 1.204669,1.95875 1.57087,2.356289 2.455927,-1.938889 4.957969,-0.20365 7.742092,3.029514 1.764524,2.048962 3.128478,5.555793 4.039352,8.078705 0.404945,1.121256 0.442982,2.091711 1.346451,2.412503 0.944734,0.248898 1.341969,-0.710811 3.366126,0.953623 1.282831,1.176125 3.545204,1.544379 4.992976,0 0.710926,-0.758051 1.181678,-2.697445 1.402665,-4.039351 0.449145,-2.814214 -4.29327,-4.842882 -6.563947,-6.227335 -0.221497,2.532 -3.498961,8.587153 0.187041,10.217163 M 309.0484,62.217739 l 4.71258,0.673225 m -20.53338,2.356289 c -1.53223,1.868513 -3.31046,2.651474 -5.72241,3.590647 -1.97289,0.685007 -5.58373,1.426228 -6.28355,-0.561133 -0.36725,-1.043499 0.63384,-2.757868 1.23436,-3.254035 0.90616,-0.74829 1.34409,-1.388191 3.02951,-1.458543 2.9087,-0.240991 5.59481,-0.295562 7.74209,1.683064 M 224.222,64.91064 c 1.08651,3.815865 -0.54885,6.150847 -1.34645,9.761768 M 19.898108,70.633056 c -2.570913,2.029774 -8.308173,1.009838 -10.7716058,1.009838 m 67.9957608,2.356289 c 0.82672,1.30875 4.117782,3.811801 5.385802,4.712577 M 22.591009,74.335795 c 0.309063,4.21877 1.275261,8.260248 1.683064,12.454669 m 93.312657,1.346447 c 0.23057,0.638895 1.10518,0.598165 1.61212,0.673225 1.75431,0.105306 3.15747,0.0029 4.71258,0 0.81729,-0.034 1.04316,0.09997 1.62684,-0.448704 0.55811,-0.524443 0.45006,-1.226953 0.33662,-1.907584 -0.16023,-0.961703 -1.2928,-10.279816 -2.84481,-10.497724 -1.55202,-0.217909 -4.74664,8.590583 -5.44335,12.180787 z M 85.874182,76.69208 c 3.146273,2.928993 5.090357,7.098365 7.742092,9.761768 1.717177,-1.507196 2.805943,-3.492751 4.039352,-5.385803 M 171.3738,77.477397 c 2.40241,-0.700491 8.21806,0.674909 5.6662,3.92726 -0.46519,0.593112 -2.70771,2.336766 -3.30991,2.804994 -0.53622,0.4174 -0.93814,0.586379 -1.06605,1.234359 -0.0993,0.503572 0.31137,1.071101 0.50492,1.34645 0.56046,0.796089 1.74836,2.105176 2.30041,3.029514 2.05401,3.439509 -1.1051,6.507733 -4.43218,7.293387 -1.38785,0.327525 -3.31059,0.07473 -4.31975,-0.95396 -3.36616,-4.585871 4.48486,-9.129786 4.54427,-11.052004 -0.62937,-2.004255 -3.47112,-3.410939 -3.42234,-5.385803 0.0744,-1.338709 2.54782,-1.956393 3.53443,-2.244197 M 55.410745,78.71176 c 0.463852,0.927368 -0.485396,1.731872 -1.178145,2.356289 -1.480086,1.334332 -3.295438,1.564576 -4.375965,2.019676 0,0 -0.356085,-1.611963 1.009838,-3.871046 1.365924,-2.259083 3.95217,-1.689459 4.544272,-0.504919 z m 85.536095,-0.668542 c 5.66784,-0.457937 2.92126,1.192344 -0.0927,5.044507 -3.64229,4.707856 -8.2049,8.383937 -12.56676,12.118056 6.46673,7.208669 18.7091,-0.442001 26.25579,-0.673225 M 132.32674,78.375147 c 0,0 0.3659,2.173172 1.17814,3.70274 0.81225,1.529568 2.59293,4.248887 3.53444,5.190392 m 4.31707,-9.785186 c -0.43641,1.646972 -0.008,3.082158 -0.55544,5.477481 M 66.014044,92.51288 C 65.387921,88.564406 63.383779,84.840003 64.8359,81.068049 c 0.573251,-0.81292 2.129748,-0.746944 3.19782,-0.168307 4.65771,2.522912 6.595589,7.100508 10.098381,10.6033 m 102.330259,3.702739 c 0.3912,2.3848 1.83115,4.68894 4.03935,5.497899 2.02439,0.70284 4.37091,-0.996377 4.9371,-3.14161 0.40368,-4.132462 0.36685,-8.297911 -3.59065,-9.761768 -1.31313,-0.200621 -3.09919,1.017581 -3.98314,0.504919 -0.98745,-1.736344 -0.0208,-4.872835 0.67323,-6.17112 0.9691,-0.850283 4.4968,0.280399 6.00281,0.280399 M 80.151777,82.751112 c 2.18535,3.099055 1.682618,7.853518 4.375964,10.098381 M 49.856635,83.087725 c 0.06901,0.875529 0.153159,1.891427 0.785318,3.029514 0.772526,1.39021 2.038526,2.594274 3.590647,3.19782 2.071515,0.805515 4.652661,0.0892 6.395641,-1.234358 0.866049,-0.941099 1.874876,-1.631093 3.029514,-1.963462 m 62.263985,1.625179 c 0.0222,2.195725 -0.0986,6.296278 2.02904,7.126751 m 43.42303,-9.425155 h 1.00984 m -78.767366,1.009838 c 0,2.393989 1.920039,4.283396 4.039352,6.059028 m -3.971093,-6.018872 c -1.607906,2.824863 -2.452752,5.013557 -4.107611,7.365323 M 117.6523,88.127547 c -1.13496,3.740913 -2.39831,7.836059 -3.83926,11.117587 m 83.14334,-10.266687 c 1.10038,-0.336276 2.80499,0.494484 3.36612,0.897746 2.60203,2.292493 5.04949,6.498951 2.6929,8.302888 -1.17982,0.847591 -2.33979,1.179491 -3.70273,1.066053 -4.61633,-0.859779 -7.25719,-5.443992 -4.03936,-9.088543 0.66515,-0.708906 0.96776,-0.959683 1.68307,-1.178144 m 38.03723,1.514757 c 0.69679,0.980553 1.9978,2.677417 2.52459,3.702739 0.18211,0.354453 0.35345,1.278792 0.22453,1.683064 -0.71434,1.316882 -2.0193,1.489291 -3.42235,1.907584 -2.01563,0.47597 -7.28699,0.548005 -8.69571,-1.234359 -0.92299,-1.168046 -0.069,-2.899245 0.95362,-3.702739 m -15.14757,-2.019676 c -0.76074,1.521489 -1.33433,2.850436 -2.07589,4.375964 -0.3494,0.719005 -0.91054,1.45888 -0.4487,2.356289 2.65208,2.155167 7.80231,0.278617 10.93991,-0.336613 -0.72641,-2.50911 0.52209,-3.242253 -2.6929,-5.722415 m 20.52868,3.825206 c 1.2256,3.679737 1.77448,5.518202 2.04411,7.974972 M 106.07095,96.552232 c -0.5379,1.858102 -0.53454,4.557058 -1.51475,6.732258 m -1.57098,4.71257 c -1.3489,3.66336 -4.401448,2.96511 -7.012647,2.6929 -0.376333,-0.0367 -1.43801,0.0613 -1.683064,0.1121 -0.864421,0.18008 -1.320195,0.39888 -1.683063,0.56113 -1.04744,-2.2834 -2.057624,-8.68017 1.009838,-9.70555 2.179757,-0.004 8.927766,2.19117 9.481196,3.88543 0.31933,1.09441 0.13955,1.32163 -0.11226,2.45399 z M 219.77309,97.220774 c 0.3419,2.37838 1.2646,5.171066 2.09262,7.410166 M 7.4434388,99.245134 c -0.5055249,2.401396 2.4004187,9.295896 5.3858032,9.088546 1.497051,-0.10402 2.89709,-1.69283 3.702739,-2.69291 0.593617,-0.73684 1.01344,-1.12563 1.683064,-1.79515 0.749266,-0.7493 0.673225,-1.85743 0.673225,-3.59065 m 9.425155,1.00984 c 3.360332,2.5554 -0.840145,7.76889 -4.039352,8.0787 -2.268063,0.18884 -3.895316,-2.28896 -4.600385,-4.03935 -0.289958,-0.72001 -0.716951,-1.23032 -1.122031,-1.68306 m 30.29514,-1.00984 c 0.77118,2.44179 2.781431,7.12205 -1.683063,7.74209 -3.178634,0.44164 -5.481549,-4.29141 -6.327382,-5.75788 -0.48235,0.23452 -1.362198,3.01348 -2.144149,3.62611 -1.320195,1.03408 -2.588214,0.26054 -3.534432,-0.89774 -0.946555,-1.15896 -1.597901,-1.91735 -2.131769,-3.36613 m 28.612077,-1.00984 c 0.662791,2.28931 -0.07843,1.44003 0.617011,3.36613 0.232263,0.64327 1.991064,3.37791 2.749116,3.92726 3.272549,2.37144 9.02021,-0.0963 6.059028,-4.26387 m -16.157408,-0.33662 c 0,1.16401 -0.340652,2.60303 1.066052,3.98314 0.369264,0.36253 0.947901,0.6224 1.626849,0.39283 2.405098,-0.81292 1.350827,-3.06587 4.375965,-3.70274 m 30.631754,5.04919 0.336612,7.06887 m 32.651432,-7.06887 c -0.607,0.40593 -2.48252,1.14646 -3.43539,1.64843 2.90851,0.81426 8.12035,4.60617 6.01619,7.04729 -1.03744,1.20372 -2.86626,1.10375 -3.92726,0.61734 -1.0738,-0.49212 -3.68997,-1.68764 0.0964,-1.64392 m -9.13069,-13.20283 3.64853,13.61239 m -41.403355,-7.40547 0.336613,2.35628 m 32.314822,-1.68306 c 0.45976,2.74112 1.81467,6.52425 -2.3563,6.73225 -3.13723,0.13061 -3.95554,-2.52493 -5.04919,-4.71257 m 29.62191,0.67322 c 1.75862,0.008 4.95699,0.25426 5.44202,1.68305 -0.56762,4.35827 -8.7013,5.85063 -5.3858,8.24701 4.2395,1.82132 7.68817,-0.7763 11.38861,-1.51476 m 13.1279,-7.40548 c 0,0 -1.14352,2.24141 -2.86121,4.03935 -1.71769,1.79794 -0.77793,3.42504 0.50492,4.03935 1.96133,1.14432 4.42782,0.35046 6.05903,0.67323 m 4.26387,-3.36613 c -1.27623,-5.76239 6.13724,-6.30653 8.02249,-1.51475 1.88525,4.79177 -6.70903,5.29761 -8.02249,1.51475 z m 30.40723,5.04919 c -0.94521,-2.566 -2.74103,-6.775 -5.04919,-8.30322 -3.2115,-1.12455 -4.19822,1.93841 -5.64713,4.28963 0,0 -0.71848,-5.32621 -3.76865,-5.61634 -1.31779,-0.12535 -0.97991,4.77096 -1.32875,5.33661 -0.12056,0.19549 -1.37352,-2.77554 -1.37352,-2.77554 l 1.34645,3.02951 m -31.30498,3.02952 v 1.00983 m 183.79052,30.96837 c 0.15148,-0.71194 -0.0101,-1.48042 1.34645,-2.18798 2.08363,-1.08625 4.52408,1.28788 4.65536,3.19782 -0.62794,5.23408 -5.15683,9.25094 -8.69471,11.78144 1.7012,4.4982 2.88104,9.20473 4.37596,13.80112 m -15.1476,-22.21642 c 0.41808,1.98568 3.55901,7.39707 6.39565,8.30323 1.6329,0.52141 3.16079,0.11209 4.37596,0.11209 m 23.8995,-8.41532 c 3.52038,8.00717 4.39361,16.10639 7.74209,24.23612 m 0,-21.87983 c 0.40892,3.292 5.02592,20.15101 8.07871,20.42128 0.7843,0 1.2421,-0.69914 1.51475,-1.23435 0.43087,-0.85197 -0.0505,-4.81895 0.22553,-5.72242 0.27939,-0.91626 0.61937,-1.44508 1.62584,-1.51476 2.67668,0.23982 5.06873,1.84791 5.66519,4.54427 0.37028,1.89581 0.63957,4.29518 -0.95261,5.72242 -2.83592,1.89849 -4.89134,-0.83321 -6.39564,-2.6929 m 171.67247,-13.1279 c 0.92563,-1.13674 2.64914,-3.56742 1.00983,-4.99297 -3.33504,-2.68594 -10.48128,-0.62013 -14.47434,-0.72944 -0.51502,0.0384 -0.88529,0.0135 -1.23537,0.39283 0.0275,3.71075 2.31475,15.8542 2.91843,22.83344 4.08935,-0.94625 9.21815,-2.00751 13.46451,-3.87104 2.59131,-1.42574 0.99643,-3.711 1.61129,-5.67666 0.67297,-2.00386 3.86203,-3.75388 7.14064,-1.11181 3.22432,2.85681 6.78754,8.0789 8.0265,11.82042 m -61.54792,-24.38718 c 0.94422,6.63342 2.77048,13.11822 3.36613,19.52353 M 521.451,166.90428 c 1.95235,-0.92467 2.99585,-1.34645 5.3858,-1.34645 m -98.7714,-1.64759 -6.25175,4.67711 c 4.33011,1.94955 9.27922,2.34944 13.4645,5.49789 4.10985,3.3158 3.14862,8.61409 -1.00983,11.22065 -2.04661,1.22156 -5.28482,1.04316 -7.40548,0.33661 -1.01321,-0.33796 -1.82444,-0.45443 -2.29907,-1.23436 -0.67659,-1.11015 0.46453,-1.46898 0.95262,-1.62685 0.45779,-0.14811 2.03314,-0.34065 2.6929,-0.39282 m 132.62539,-14.47435 c 1.71673,3.83604 2.01968,8.76304 2.01968,11.78144 -1.45283,-0.26257 -2.91479,-0.46448 -4.37597,-0.67322 m -218.46162,-4.37597 c 0.12118,-0.65067 0.20196,-1.19497 0.73045,-2.01967 1.68899,-2.49361 4.07316,-4.82162 6.50672,-3.98314 1.13438,1.61911 -1.89177,4.47729 -3.19782,5.32959 -2.28897,1.49321 -5.25116,0.23159 -6.00181,2.6929 -1.38414,8.48943 7.98461,9.64993 12.73406,5.04919 m 119.4975,-12.79128 5.72242,3.02951 m -77.75753,2.01968 c 2.40341,0.71429 5.70222,5.78738 4.82366,8.41532 -1.83141,4.32239 -7.54479,5.1694 -9.53624,2.01967 -0.51165,-0.87957 -1.2421,-1.98467 -1.45753,-2.6929 -0.0272,-1.61803 0.21425,-3.14626 -0.22553,-4.71258 m 97.28106,3.70274 c -0.41403,0.45073 -0.86173,0.8725 -1.23537,1.68307 -0.50491,1.10711 -2.80398,4.74085 -4.48704,5.16128 -1.0839,0.27097 -2.96893,-0.25044 -3.70274,-0.72911 -3.12254,-2.07896 -1.24005,-7.53741 0.73045,-9.81798 1.37674,-1.54505 3.36276,-2.04694 5.32858,-2.01967 4.16542,0.5613 2.55485,3.04846 3.25504,5.04919 0.36018,0.89572 1.04013,0.91592 1.40031,1.68306 1.0132,2.14725 1.45417,4.61563 3.42335,6.05903 M 383.10319,176.66605 c 0,2.53873 0.76411,9.25315 4.71258,9.08854 1.85782,-0.54154 2.66646,-2.57464 4.03935,-3.70274 m 55.8777,7.34927 c -4.08063,-1.72739 -6.09509,-9.37719 -3.70274,-12.23015 0.8449,-0.47496 2.67944,0.16831 3.70274,0.16831 2.89531,0.0556 5.67813,1.22328 7.81127,5.50835 0.24135,3.97547 -4.08402,8.23668 -7.81127,6.55349 z m 122.52702,-8.69572 c 0.11445,-1.45248 0.31978,-1.88402 1.68306,-2.80499 0.57561,-0.38845 3.9653,-1.04889 4.71258,-0.78566 0.53521,0.18817 1.43397,0.59615 1.23537,1.57098 -0.31305,1.51442 -2.47411,2.15735 -4.26488,2.35628 -1.58208,0.17572 -3.26851,-0.80989 -4.71258,0 -0.94925,0.53387 -0.67323,1.4158 -0.67323,2.35629 0,1.2384 0.80787,3.05611 1.68307,4.03936 1.75375,1.97154 3.61858,3.12881 6.05902,3.36612 2.12066,0.20601 7.11936,-1.82074 8.75193,-2.63668 0.99301,-0.49752 1.61574,-0.11782 2.63568,-0.89775 1.04714,-1.5421 0.70821,-3.84692 1.74029,-4.88088 2.87467,-2.78446 9.28378,-0.28646 11.10822,1.34645 -1.14112,1.60699 -1.84801,3.7842 -1.34645,7.06886 0.1784,1.17411 1.13438,2.51012 2.35629,2.91742 3.05002,0.11578 4.95262,-3.35585 6.73225,-4.6567 0.52175,-0.57055 0.64293,-0.9176 0.67322,-1.62684 0.0269,-0.66178 0.17504,-0.97887 -0.39383,-1.62685 -0.4376,-0.49886 -1.29933,-0.65774 -1.96245,-0.84154 -2.18125,-0.6059 -3.67581,-0.37263 -5.72242,-1.23435 m -127.8633,-6.87831 c 1.50337,3.67644 2.73381,5.62208 4.27567,8.90174 m 165.3276,-8.08246 1.34645,2.01967 m -184.80036,-1.34645 c -1.65309,1.55793 -2.69685,1.91923 -2.8009,4.51951 0.28945,3.36954 4.15776,5.93551 6.50364,6.2521 2.17789,0.21173 3.88788,-0.5709 5.72242,-2.01968 m 160.90086,-8.41531 c 2.40091,2.63672 1.50678,6.64845 2.41351,8.75193 0.51498,2.33369 0.56751,6.8103 -0.73045,9.08854 m -67.99576,-16.83064 c 1.72346,2.11427 0.8663,9.50981 0.8663,11.61095 m -0.82179,-11.37338 c 1.52149,0 3.37547,1.06613 5.00468,1.10888 m 112.09202,14.47435 c -5.85185,0.0823 -11.74733,1.25182 -16.83063,-2.13177 -1.46763,-1.01926 -2.02304,-2.3849 -2.29907,-3.92726 -0.31641,-1.7386 0.0935,-3.29836 1.16023,-4.61855 5.09364,-0.0397 10.29615,-0.34927 15.82147,-1.65253 1.54614,-0.39922 2.00676,-2.63711 -15.22798,1.66506 M 545.68711,183.3983 c 1.35599,2.65986 1.59907,5.5079 2.01968,8.41532 m 76.74769,2.01968 c -2.83494,0.10097 -6.23421,2.17733 -8.69471,-0.1121 -1.97343,-4.0255 2.13098,-7.94231 5.3286,-9.31306 m 30.63176,1.00984 c 0.18669,3.50033 0.0494,6.96134 -0.33662,10.43499 1.44407,0.49348 1.86484,0.17134 2.80399,-1.00984 1.92706,-2.55052 3.90177,-6.54384 6.81674,-8.66291 m -134.84066,-0.089 c -1.55979,1.11802 -2.50649,2.01255 -2.18798,3.64653 2.05257,0.77302 5.08851,-0.1329 6.56394,-1.29024 m 96.60784,-2.01967 c 1.90523,0.55137 2.703,0.56214 3.70274,1.00984 m -43.18295,-0.33912 c -0.45802,1.71724 0.16723,3.49856 1.10637,5.05169 m 43.42303,-4.03935 c 3.33129,0.5792 5.38539,0.22804 8.75193,0 0.50155,0 0.78768,-0.19389 1.28923,0.16831 0.67291,2.60171 1.04883,5.86417 1.06706,8.24701 m -34.67111,-7.40548 c 0.20197,0.69746 0.33662,1.33063 0.33662,2.35629 0,2.669 0.22889,3.59132 2.35629,4.03935 m -221.82776,13.46451 c -2.11393,0.38979 -6.81304,2.00756 -9.76177,2.58081 -1.07043,0.20802 -3.9148,0.11175 -4.65535,-0.39283 -1.44708,-3.17173 -6.38025,-14.26513 -2.0769,-15.87701 1.01657,-0.35311 2.21491,-0.0367 3.02951,0.28073 4.02926,1.56694 9.19626,3.56911 12.79128,6.11491 1.10409,0.78128 1.55515,2.01968 2.41352,2.86121 0.56887,0.55945 2.47747,0.54834 3.64551,0.95396 2.97566,1.03273 7.65121,4.52407 7.74209,7.85418 -0.25379,3.82097 -2.64081,7.10314 -6.39564,7.06887 -2.0769,-0.029 -3.56136,-1.62247 -4.43319,-3.36613 -0.64293,-1.29124 -1.2118,-2.65453 -1.28922,-4.03935 -0.0842,-1.48918 -0.66313,-2.82081 -0.73045,-4.03935 -0.0404,-0.74594 0.26929,-1.08457 0.39383,-1.68307 0.25246,-1.21618 0.53859,-1.92811 0.67323,-2.35628 m 39.04707,3.36612 c -1.06369,-1.44339 -2.70973,-4.92599 -2.01967,-6.73225 2.88204,-2.68201 10.35957,0.13295 11.83866,2.6929 0.30295,0.60893 0.42077,1.26836 -0.11445,1.96346 -0.42749,0.5544 -0.84153,1.14852 -1.62583,1.57097 -2.44718,1.31851 -5.96478,-1.05292 -8.07871,0.50492 m 29.95853,-4.03935 c 4.91806,3.53849 8.50988,6.67946 12.28636,10.93991 4.31096,1.87357 7.85918,5.12969 11.61314,7.9104 m -7.40548,-17.50386 c -1.84672,2.57095 -2.96167,7.15336 -4.16651,9.51683 m 26.71956,-7.49715 c 3.4018,-2.63256 7.2618,17.23489 9.76177,23.22627 m -78.76737,-22.55305 c 0.78545,3.55856 1.08777,7.15004 1.34645,10.77161 m 7.40548,-10.77161 c 0.47126,1.63358 5.11651,4.94518 6.28456,6.39564 2.2611,2.22271 2.77091,3.38193 0.39047,6.00282 -4.36269,2.92983 -9.67892,2.93555 -13.68667,1.29055 -0.69679,-0.6537 -0.39384,-1.69821 -0.39384,-2.91742 m 79.44059,8.41531 c 5.34153,4.36525 12.93469,6.98052 15.03649,1.00984 2.54143,-8.31702 -7.04193,-12.78657 -13.01681,-12.45467 -1.41714,0.0788 -4.38606,1.58713 -4.71258,-1.34645 -0.0909,-0.80921 -0.0707,-1.35217 0.39384,-2.01967 2.84483,-2.70599 8.09115,-4.06594 11.38761,-4.37597 m -72.67723,7.00061 c 0.70549,-3.095 0.36946,-5.25965 3.33501,-6.49569 1.40649,-0.31215 9.8892,1.48106 11.61314,4.20766 1.92889,3.26713 -0.28948,5.63692 -2.52459,7.74209 -1.83791,1.73288 -5.58777,3.18705 -7.74209,2.46838 -2.79936,-1.01131 -5.38696,-4.82744 -4.68147,-7.92244 z m -72.06623,-3.97109 c 0.64221,3.93241 1.3376,7.85581 2.01968,11.78144 m 153.832,-11.78144 c 3.87442,7.89533 5.33293,16.65829 7.06886,25.24595 m -65.97608,-21.2066 c -1.57199,2.13244 -1.90523,7.42736 -3.70274,11.44483 m -64.29303,8.41532 c 1.33364,2.17505 6.33011,17.98328 0.67323,15.31587 -3.71053,-4.27322 -11.35663,-14.6535 -12.40891,-17.60792 0.6124,5.8687 2.36727,14.53873 4.33021,19.45929 m 90.54881,-15.14757 1.00983,4.03935 c -0.89875,0.071 -1.12092,0.2491 -2.01967,0.33662 -5.57608,0.14872 -11.86064,1.38257 -13.96943,4.71257 -1.49456,2.50003 -0.41403,4.57053 0.50492,7.06887 m 158.88119,-13.12789 c 3.3029,-1.68533 8.64922,-1.00091 11.78144,1.00983 -1.71336,2.71075 -4.02993,3.91796 -6.88582,4.66557 0.54531,0.48674 3.42208,0.53207 4.19292,0.83233 3.42345,1.46777 7.22671,1.90754 8.0787,5.61032 -1.02276,3.38433 -4.83675,6.02847 -7.74209,6.05903 M 488.46296,241.6323 c 0.38037,2.0631 0.16494,2.0126 1.00984,3.70274 7.17419,-2.63707 15.58846,-5.95835 23.56288,-6.05903 m 30.66856,1.86359 c 0.57641,4.47334 2.70617,10.91838 -0.37342,13.90099 -5.68155,-7.55897 -9.09855,-10.73357 -11.61313,-13.23999 -0.063,5.69546 0.18201,11.41791 0.1683,15.98911 m 79.10398,-16.49403 c -2.58855,-1.56659 -4.25478,0.14273 -6.05903,2.35629 -1.05147,4.4357 3.11704,0.11546 6.05903,1.17815 2.78379,1.00479 6.14992,3.93601 6.39564,6.90056 0.14138,1.67936 -0.83816,3.53039 -2.01967,4.71258 -2.88799,3.03721 -6.51925,2.78422 -10.14791,1.87488 -2.43127,-0.61994 -0.96033,-2.2115 -0.96033,-2.2115 l 2.01968,-1.34645 m -194.2255,-9.08854 c 0.10219,-3.19993 1.93982,-3.54647 4.37596,-2.86121 0.65976,0.33459 2.83428,2.5145 0.95262,3.70274 -1.00647,0.63654 -2.11393,-0.10671 -2.97229,-0.39283 -0.85836,-0.28645 -1.59555,-0.38845 -2.35629,-0.4487 m 216.10534,11.10822 c -1.28855,-3.02054 -5.29256,-12.65622 -4.03935,-14.47435 m -164.69763,7.58852 c 0.15518,2.29286 -2.91866,5.10818 -4.61855,4.75406 -1.59891,-0.33325 -3.67244,-2.32397 -4.09658,-3.92726 -0.65303,-2.47713 0.74392,-5.42822 3.08674,-6.95677 0.94588,-0.61735 2.43708,-0.51637 3.36613,0 2.11523,0.99512 1.75903,3.12764 2.13076,4.60048 0.44433,1.67701 1.4609,1.75948 2.58182,2.6929 1.92542,1.60362 3.97876,2.01968 5.72241,2.01968 m 128.58605,-9.76177 1.74028,5.72242 c 2.16183,3.59258 3.46764,7.63469 5.04651,11.50689 m -42.13113,-16.8927 c -1.59662,2.79112 -3.87656,5.26331 -6.73225,6.28355 -0.56214,0.18682 -0.92568,0.30363 -1.68306,0.11209 -2.04661,-0.51872 -1.68307,-7.32567 -1.68307,-9.20262 m 35.00772,3.48021 c 0.56888,1.54269 0.99638,5.77392 2.35629,6.56395 1.96245,1.13943 7.89357,-1.17815 9.42516,-1.17815 M 489.4728,245.33504 c 0,2.17923 0.0808,5.19427 0.67322,8.41531 m 89.53897,-8.41531 c 1.47,5.08206 1.17648,11.54501 2.30928,16.64258 m -170.279,-15.96936 c 0.37941,3.16277 1.66397,5.77607 4.37596,7.63 2.16105,1.41041 5.79984,0.26458 7.74209,-1.57097 0.8752,-0.82773 1.57535,-1.0509 2.18799,-1.85137 0.40393,-0.52713 0.1683,-2.55287 0.1683,-3.87105 m 69.34221,0.67323 c 4.12014,0 11.43137,5.97656 14.81096,9.08854 m -65.69651,-11.74446 c 1.55039,2.05799 4.67973,4.46336 3.87729,6.7683 -0.45902,1.2288 -1.80396,3.89227 -4.4935,4.52746 -3.15742,0.74526 -5.73588,-1.61103 -7.74209,-3.59065 -0.6261,-0.61836 -1.77731,-1.47268 -1.96245,-2.01968 -0.18512,-0.54665 -0.0572,-1.20507 -0.0572,-1.68306 m -2e-5,2.01968 c -1.34913,1.60126 -1.9004,4.52474 -3.70274,4.48805 -2.16442,-0.0902 -3.37623,-2.82653 -4.03936,-4.15144 m 126.22976,-0.33661 c 0.2259,3.38523 0.17626,6.70062 0,10.09838 m -31.97821,-4.37597 -1.00983,6.05903"
       id="path847"
       sodipodi:nodetypes="ccccscccscccccccccccscccccccccccccscccccccccccccccccccccccccccccccccccccccccccccccccczccccccsscccccccccssccccccccccccccccsccccccccscccccccccccccccccccccccczsccccccccccccccccccccccccccccccccccscccsccsscccccscccccccccccccccccccscsccccccccccccccccccccccsccscccccccccccccccccccccccccccccczcccccccccccccccccczcccccczccccccccccccccccccscccccccccccccccccccsccccccccccccccccccccccccscccccccccccccsccccccccccccccccccccccccczccczccccsscccccccccccccccccccccccccccccccccccccccccsccccccccccccccccccccccccccccccccccccccscscccccccccccccccccccccccccccccccccccccccccccccccccccccccsccscccccccccccccccccccccccccccccccccccsccczcccczccccccccccccccccccccccccccccccccccccccccccccccccccccccccccccccccccccccccccccccccccccc" />
  </g>
</svg>
