<?xml version="1.0" encoding="UTF-8" standalone="no"?>
<!-- Created with Inkscape (http://www.inkscape.org/) -->

<svg
   version="1.1"
   id="svg10289"
   width="2692"
   height="1137"
   viewBox="0 0 2692 1137"
   sodipodi:docname="IMG_4673.svg"
   inkscape:version="1.2.1 (9c6d41e410, 2022-07-14)"
   xmlns:inkscape="http://www.inkscape.org/namespaces/inkscape"
   xmlns:sodipodi="http://sodipodi.sourceforge.net/DTD/sodipodi-0.dtd"
   xmlns="http://www.w3.org/2000/svg"
   xmlns:svg="http://www.w3.org/2000/svg">
  <defs
     id="defs10293" />
  <sodipodi:namedview
     id="namedview10291"
     pagecolor="#ffffff"
     bordercolor="#000000"
     borderopacity="0.25"
     inkscape:showpageshadow="2"
     inkscape:pageopacity="0.0"
     inkscape:pagecheckerboard="0"
     inkscape:deskcolor="#d1d1d1"
     showgrid="false"
     inkscape:zoom="0.63566062"
     inkscape:cx="512.85228"
     inkscape:cy="45.621828"
     inkscape:window-width="1366"
     inkscape:window-height="705"
     inkscape:window-x="1016"
     inkscape:window-y="-8"
     inkscape:window-maximized="1"
     inkscape:current-layer="g10295" />
  <g
     inkscape:groupmode="layer"
     inkscape:label="Image"
     id="g10295">
    <path
       style="fill:none;stroke:#6e6599;stroke-width:0.333823"
       d="m 187.93509,16.180014 c -2.33447,3.308954 -5.54082,6.732117 -6.5653,10.014695 -1.22914,4.022802 2.8592,7.214886 6.23148,6.231343 1.46728,-0.552662 3.56672,-1.126985 4.61777,-1.390908 1.52001,-1.753112 0.53181,-6.324287 3.06016,-6.676463 0.69435,-0.08052 2.10042,0.304981 2.61484,0.667646 2.57559,2.073005 3.83474,4.516616 1.72486,6.843375 -0.96842,1.074176 -2.37148,1.963381 -4.00588,2.281147 -1.96488,0.382094 -2.96134,-0.981974 -3.0044,-2.61497 M 18.517839,17.447905 c 2.291896,0 -3.905001,-0.477465 -2.167852,0.957574 0.570671,0.471459 1.113167,0.764756 1.669116,1.224063 3.413009,2.945786 5.583335,12.304534 0.667647,13.24163 -2.944811,-0.192979 -6.251347,-2.730665 -7.177198,-5.341171 0.06833,-1.161537 1.022667,-0.980071 1.836027,-1.001469 m 9.680872,-1.00147 c 2.043913,2.468246 2.113085,5.62406 3.710909,6.483671 1.597825,0.859611 2.904297,-0.415066 3.744463,-1.476323 0.534251,-0.674857 0.934972,-0.905162 1.168382,-1.669116 0.27744,-0.907932 0.06269,-3.196357 -0.278175,-4.005878 m 173.33755,-6.91316 1.18192,0.890021 m -108.422485,0.01432 c 2.437854,4.401818 3.268375,13.128725 3.338235,17.692628 m 14.35439,-0.667647 -2.16985,-3.672055 c -0.31821,-1.784395 0.25307,-4.92479 -0.94572,-6.287025 -0.62826,-0.634646 -1.02054,-0.665697 -2.2256,-0.611964 -1.20506,0.05373 -3.23813,0.970709 -4.61777,1.72473 -1.57093,0.860489 -4.78865,4.365027 -1.94753,7.177198 2.84112,2.812171 6.67427,1.084842 9.56971,-2.002939 m 103.819,-2.670585 c -0.20902,-3.472583 -0.0855,-6.409183 2.05869,-8.679402 2.42589,-2.545402 5.71272,-0.351015 7.51102,2.002939 1.91014,2.500836 3.09621,6.303549 4.45087,9.013225 m 9.68087,1.00147 c 1.9305,-0.55882 8.35125,-2.603687 5.95307,-6.008817 -2.02965,-2.882363 -7.98071,-3.644581 -10.6266,-4.673524 -4.71285,-0.765769 -0.82858,-1.661957 4.00484,-3.435359 M 86.119028,22.188831 c -2.646884,1.810957 -4.430972,3.210972 -5.695607,4.005878 1.9315,1.728069 13.023025,1.636801 10.925614,7.677932 -2.56434,7.313659 -15.335383,3.351766 -10.571178,-1.335292 M 68.4264,33.538818 c -0.748765,-1.673389 -1.001469,-3.295435 -1.001469,-5.007347 0,-2.059389 1.295902,-4.978138 3.672055,-5.341171 1.944186,-0.297036 5.162575,1.431734 5.34117,4.005878 0.134865,1.941682 -1.819002,3.063929 -3.338231,3.950263 -2.139807,1.248298 -3.422689,1.404795 -4.673525,2.392377 m 51.35723,-6.377641 c 5.37812,-1.447379 12.21571,-3.298855 18.17868,-2.39771 M 36.989929,23.573284 c 2.380928,3.320492 3.719094,6.770649 -0.276729,8.630241 -2.028676,0.08452 -3.61447,-2.201964 -5.007347,-3.338231 M 154.21895,23.857946 c -3.26121,1.217638 -7.04943,0.715058 -8.35548,2.323934 2.32329,1.323556 11.50544,3.49193 12.8621,6.021641 2.82881,5.275508 -8.35426,5.007348 -10.51543,5.007348 M 119.16752,24.19177 120.37595,35.131786 M 52.488531,29.799362 c 1.436186,-2.065148 2.288508,-2.579215 3.586413,-3.493357 2.088731,-1.470825 5.596197,-1.41411 5.674993,-0.44512 0.0788,0.96899 -3.055149,2.901591 -5.34117,3.282617 -1.636068,0.2727 -2.528043,-1.137502 -3.894715,0.723261 -0.841856,1.132633 -1.045179,2.371356 -0.723061,4.005878 0.712045,4.660906 7.116442,5.128992 10.626593,3.004409 m 31.379377,-9.680872 c -1.503206,-3.006445 1.3403,-2.278944 3.338231,-1.390908 3.627878,1.347627 8.040598,3.509617 11.016168,4.061493 m 27.3735,1.00147 c -1.41713,-3.226017 1.52201,-5.953219 4.67352,-6.008817 1.72219,0.02394 3.24541,0.179208 3.33307,1.212389 0.0877,1.03318 -6.13652,3.861289 -8.00659,4.796428 z m 72.77344,-5.674994 c 0.17994,1.710276 2.12846,3.371581 2.33677,6.008817 M 42.054371,25.860885 c 1.992766,2.757211 10.057877,0.344943 8.28983,-2.002939 -1.768047,-2.347882 -8.379238,0.506217 -9.569374,3.672055 -1.190136,3.165838 0.647576,5.874472 3.616306,7.010287 2.653226,0.958206 5.020033,-0.260449 6.676463,-1.00147 m 73.441094,-5.674994 9.01323,5.674994 m 2.00294,-2.670585 c 0.28074,3.558021 4.25991,4.339701 7.01028,4.339701 M 68.4264,33.538818 c 0,1.693084 1.067901,5.668718 2.336763,7.677932 M 242.68209,39.881458 c 0.65385,3.701993 -0.0196,8.724576 -0.16691,11.349987 -0.0264,0.62258 -0.0409,1.172966 -0.0335,1.692263 0.15897,2.341769 0.0471,2.721059 1.25893,5.592378 m -49.12909,1.394761 c 0.97861,-5.087941 -1.2642,-15.568712 -0.83456,-17.692627 0.8419,-1.489185 2.75204,-1.669116 3.83896,-1.669116 2.59912,0.04766 9.54323,2.049154 9.68088,5.007349 -1.26902,3.853245 -5.64783,4.34392 -8.67941,4.339701 -1.33295,0 -3.40937,-0.150937 -4.00825,0.274354 1.84137,0.710125 3.92613,3.777925 6.67884,5.957123 1.89111,1.496863 4.03125,2.534051 6.00882,3.783217 m 89.13078,-19.02792 c 0.13373,3.338524 0.33382,6.673312 0.33382,10.014695 -0.60504,3.531687 -0.14823,7.124715 0,10.682341 m -19.69556,-5.674993 -2.33677,-0.333824 -1.80748,-0.143764 c 1.33675,-3.967754 1.63673,-7.184964 2.55858,-10.8724 -0.8232,0 -1.74722,-0.382561 -2.64287,0.389572 -4.42196,5.957796 -12.61445,11.568322 -14.13174,18.304525 M 128.84839,59.910848 v -5.34117 c -0.16705,-2.913218 -0.24506,-5.561543 0.11117,-8.679402 0.99412,-1.501871 2.10742,-1.669116 3.56089,-1.669116 2.89291,0 6.71385,1.261851 7.56677,4.673524 0.11278,3.394445 -1.72519,4.891266 -4.56236,5.007348 -1.25284,0 -5.96176,-1.235493 -6.56465,-0.807198 3.39787,-0.0043 8.93683,6.450582 12.23964,7.539409 3.30281,1.088827 2.31573,0.945721 4.00588,0.945721 M 341.15992,44.888806 c 6.23667,-0.235817 12.32671,1.33245 15.71942,2.744327 -2.21505,2.250645 -6.10286,2.408034 -8.04148,4.265959 1.74589,1.423088 8.84965,2.927963 7.90159,6.676463 -2.08955,3.487387 -9.55611,3.555404 -11.90747,2.002939 M 315.12172,45.556453 c 2.33809,1.353652 4.39177,3.49446 5.23,6.008816 0.73505,2.822685 0.0631,5.532646 -0.22268,8.011756 -0.91968,0 -2.52529,-1.070739 -3.02636,-1.432271 -2.22922,-1.545141 -5.19828,-2.653757 -7.32215,-1.739051 -2.75772,1.398385 -0.91602,4.531316 1.33529,5.063096 2.86754,0.676993 7.31583,-0.280187 8.99103,-1.82834 1.66718,0.467141 3.94697,0.983769 5.69721,2.273327 M 15.682341,46.224098 c 1.626196,-0.301692 7.513217,0.353557 7.511021,2.002939 -0.713676,2.046652 -3.28155,2.13945 -4.800135,3.092424 3.173784,2.201339 5.734431,5.247675 7.915807,7.589917 0.139738,0.201295 0.484144,2.815131 0.22256,3.338232 -1.276636,1.833756 -3.581651,3.516972 -5.841905,3.672054 -4.219058,0.175925 -5.083359,-3.595943 -2.670586,-6.008817 M 333.14817,46.224098 c 0.0271,5.478069 1.18178,10.710618 2.33676,16.023512 M 219.64829,53.902031 c -1.95356,-1.640208 -4.6223,-5.878763 -7.01028,-4.729273 -1.28723,0.634598 -1.31994,1.297904 -1.3353,2.39251 -0.03,2.170519 0.79116,5.794503 3.00441,7.010287 2.10679,0.48229 4.60488,-0.626253 5.28542,-2.392511 0.17493,-0.484711 0.019,-2.195889 0.22266,-2.614837 0.67664,-2.43657 2.22995,-6.231936 4.50662,-6.453803 4.27695,1.710537 0.66714,6.299286 4.67352,8.011756 0.64695,0.227667 1.08125,0.203966 1.66912,0.611898 0.79483,0.551142 1.95153,2.091402 3.0044,2.559422 1.90346,0.845908 3.94413,-0.64094 5.34118,-1.669116 1.636,-1.075129 2.60753,-2.63947 3.67205,-4.061626 m 38.05584,5.007347 c 0,-3.237751 0.82388,-4.781015 2.78175,-7.344109 0.96909,-1.268528 2.39718,-3.1346 4.22854,-3.338232 1.99693,-0.221992 3.67172,0.664642 3.78321,2.670585 0.0454,0.815864 -0.34517,1.178062 -0.72306,2.002939 -1.97523,4.309324 -7.48999,6.89178 -10.07044,6.008817 l -0.33382,5.007348 M 376.879,46.891744 c -1.38094,6.582776 -0.71797,11.532836 1.33529,17.692628 M 99.138131,63.582902 c -3.469298,0.451111 -6.397363,1.184679 -9.51396,-0.333823 -0.840093,-3.988486 -0.541009,-7.992804 -0.444985,-12.017634 4.625888,-1.878532 9.720156,-1.669116 14.632474,-1.669116 M 230.693,55.630615 c 0.16324,-2.068702 2.11827,-5.08284 4.9788,-5.957122 2.41314,-0.895874 4.77706,0.955241 6.67647,1.224129 m 49.40582,-1.335293 c 2.52371,0.199293 2.25765,0.810857 4.85987,1.158074 2.71304,0.356232 3.79851,1.554907 7.49159,1.846335 M 30.704383,50.229976 c -2.102252,2.840715 -3.74851,6.877924 -3.789805,9.477885 -0.0058,2.988414 2.12069,3.875041 2.12069,3.875041 M 150.88072,53.902031 c -1.28473,1.280132 -1.28165,2.500438 -1.78028,4.005877 -0.74542,1.125652 -2.46295,1.999267 -3.89471,1.335293 -3.25645,-1.510216 -2.00695,-6.196092 0,-7.956007 0.98177,-0.86093 2.62151,-1.213114 4.00588,-1.057218 1.56863,0.176926 1.39972,2.22393 1.72486,3.338231 1.2772,2.475175 2.86578,5.61519 4.9516,5.341171 m 13.70499,-7.866645 c -2.69223,7.869166 0.17127,22.308752 -3.6903,26.894565 -6.22492,3.381033 -15.69309,-2.140437 -20.02939,-5.674994 M 62.271286,51.935573 c -0.233863,-0.297803 -3.827157,-0.21699 -4.949066,-0.297996 -1.44245,0.530445 -1.645194,2.09821 -1.191528,2.431365 0.729404,0.535786 3.306589,-0.670281 4.707572,-0.319549 1.400983,0.350732 2.436911,1.640487 2.914612,2.155577 2.084726,2.247631 3.06046,7.451084 -0.333823,8.401327 -3.394283,0.950243 -6.767867,-0.406955 -9.680872,-1.724869 M 41.720548,51.899092 c 1.943184,0.408933 6.649757,1.698826 7.566769,4.339701 0.828215,2.385834 -1.782949,4.207173 -3.227068,5.230007 -1.158033,0.820204 -2.100643,1.585422 -0.165725,2.546248 M 348.50403,51.899092 h 0.33383 m -190.61303,0.667646 c 0.76245,1.703833 0.77013,3.151958 2.67059,4.339701 2.32073,1.450462 5.42943,-0.06154 7.45273,-0.913453 m 59.3119,-1.423309 c -1.4197,1.613921 -2.25901,4.379757 -4.3397,4.729273 -1.84622,-0.09085 -2.71828,-1.454097 -3.67206,-2.726334 m 53.25392,-1.138647 c -0.7131,1.559654 -1.14083,4.130108 -0.50986,5.812171 M 29.035268,63.582902 c 0.564461,-0.794499 -0.172556,-1.070392 1.057117,-3.672055 1.229673,-2.601663 5.789604,-6.398961 6.620815,-1.001469 -0.0194,0.698024 0.02711,1.236481 -0.723294,1.94719 -1.968621,1.496907 -4.998927,4.00575 -6.954638,2.726334 m 235.568152,-7.15777 c 3.22974,-0.08512 6.23248,-0.972922 8.42803,-0.972922 M 89.45726,56.906439 c 3.154171,1.072392 6.82289,-0.66684 9.347048,0 M 254.3659,59.577024 c -2.34984,3.741866 -6.37811,5.500304 -6.67646,10.682341 M 24.02792,86.950523 c -1.095574,1.18909 -3.357491,1.96515 -5.007347,2.002939 -1.210476,0.01669 -1.815464,0.297771 -2.559322,-0.667646 -0.925273,-2.77938 -1.910125,-8.354728 -0.611998,-10.348518 2.376387,-3.456405 8.560922,0.169736 9.847783,2.503674 1.879526,3.355825 -0.573542,5.320461 -1.669116,6.509551 z M 182.2601,84.613761 c 2.59295,-1.915229 7.33909,-4.241841 9.2913,-2.002939 -1.67749,4.414369 -17.44948,12.910414 -11.96189,18.972168 3.85624,1.47496 6.6023,-3.369761 6.34264,-6.286888 -0.80888,-3.232987 -2.75489,-4.509299 -5.00734,-7.010286 M 79.442565,83.278469 c 0.848912,1.466485 1.368675,2.334091 2.670585,3.338231 m 40.3926,14.3544 c 1.40814,-4.618875 10.50116,-17.537767 12.85219,-18.360278 4.2406,-0.07758 2.12929,10.901138 1.16839,15.355866 M 255.70119,83.612292 c 1.02014,2.392362 2.08483,5.130824 3.10932,7.521328 1.61773,-0.725699 3.54665,-1.746946 5.23626,-2.847804 m -55.13657,1.669116 c -1.01849,2.29203 -1.96722,5.842239 -0.50073,8.011756 2.99035,3.343912 8.57401,-0.06196 8.90206,-3.338232 0.13086,-2.353787 -2.89325,-6.464152 -4.67352,-7.288361 -2.01718,-1.669929 -2.91554,0.813174 -3.72781,2.614837 z m 27.09543,-5.674994 c 0.7752,1.73136 1.05886,3.486711 1.27954,5.341171 0.62319,3.537413 0.96325,7.117464 1.39104,10.682341 M 228.32769,84.613761 c -1.05886,2.445686 -2.99307,4.585664 -3.17132,6.676464 0.39392,0.828215 1.56563,0.755441 2.50368,0.611897 3.2067,-0.489718 6.49853,-1.87208 9.34705,-1.94719 M 101.80872,85.281408 c -0.40428,2.770746 -3.601382,6.575605 -3.727807,8.679402 1.250526,3.372019 7.065027,7.44767 9.736617,7.01029 M 141.8675,85.615231 c 4.00922,-0.489596 9.43828,-1.040754 13.0191,0.361697 -1.89011,2.965852 -7.01863,4.382598 -9.56971,7.983882 -1.06289,1.500535 -2.21859,3.830621 -0.77881,5.34117 3.81144,3.04654 8.88476,1.05628 12.68528,0.333824 M 90.458729,85.615229 c 2.144814,2.716653 5.797001,7.244458 7.639078,8.291264 -1.339966,1.977084 -1.539127,4.797944 -4.300846,6.396957 M 245.35268,85.949054 c -0.56216,1.124316 -1.88177,3.736816 -1.61337,5.007347 1.44152,2.93768 13.1886,1.006549 15.05946,0.05828 0.46505,2.07691 2.92459,8.740963 3.57889,12.293179 M 42.652241,89.349128 c 3.324965,-1.260405 6.460451,4.393824 6.623335,6.22767 0.162885,1.833845 -0.762729,3.581305 -2.547681,4.225917 -1.344973,0.485715 -1.920195,0.07513 -3.338232,-0.834558 -1.418037,-0.909689 -1.810778,-2.551156 -2.39251,-4.673524 -0.81119,-1.054881 -0.903098,-1.669766 -1.789399,-2.543715 -1.337663,-1.318935 -3.549435,-2.926645 -5.498962,-3.576265 -3.234112,-1.078249 -3.668917,1.227468 -5.341171,2.447925 -0.785492,-4.202189 -1.642952,-6.036737 -1.697663,-9.055481 m -10.488069,5.86236 c 1.032391,2.56877 1.382147,7.654 0.168098,10.537231 m 37.388194,-5.341171 c 0.632977,-1.040014 1.142725,-2.095653 2.730055,-2.955247 1.484177,-0.803846 4.44514,-0.810946 4.89213,0.952308 0.302777,1.194086 -0.986782,1.992257 -1.947191,2.392511 -2.255977,0.940046 -4.48892,0.453332 -5.674994,-0.389572 -0.493319,0.719162 -0.745427,1.606691 -0.667646,3.004409 0.168915,3.039459 1.655095,5.513754 5.007348,6.398384 2.261985,0.59688 4.940582,-0.36854 6.676463,-2.058683 m 4.005878,0 c -0.109828,-1.389038 -0.932035,-3.985849 -0.611898,-5.341171 0.157158,-2.001647 0.886876,-3.637456 1.669116,-4.617776 1.341969,-1.443451 3.152626,-0.556149 4.617775,0.278075 3.594942,2.047004 4.933907,5.633266 6.008817,9.347049 M 28.367621,90.622578 v 6.34264 m 13.352927,-5.674993 -0.667647,2.670585 m 25.704384,-2.336762 1.335292,3.004408 M 126.72652,92.95934 c 3.75897,0.224732 7.15622,-0.667646 10.80127,-0.667646 m -53.411701,1.669116 2.336762,5.674994 M 192.27479,94.962279 c -0.79783,0.582188 -1.8092,1.136809 -1.66911,2.837497 0.14009,1.700688 5.61903,3.597584 10.01469,1.168381 2.97792,-2.638496 2.91746,-7.665449 -0.33382,-10.292769 -0.60389,-0.463681 -1.23014,-0.637603 -2.00294,-0.723395 -0.84791,-0.09414 -3.18634,0.183269 -3.83897,-0.723395 -1.0038,-1.394045 0.44032,-2.811792 1.50221,-3.505143 1.88276,-1.228803 4.01188,-0.77881 6.34264,-0.77881 M 118.8337,102.30639 c -2.29904,2.81847 -4.09902,8.1316 -6.34264,11.68381 m -100.814597,3.33823 c -0.40792,3.31526 -2.2055346,11.28147 1.669116,12.62953 3.402857,0.005 4.539398,-4.59373 6.34264,-6.62071 0.899135,1.2748 1.781991,2.91944 3.338232,2.61483 1.556241,-0.30461 1.292717,-2.72047 1.669115,-4.28395 m 5.674994,-3.00441 c 0.535464,3.03898 0.844187,6.76758 3.004409,8.23442 1.34198,-0.32852 2.126769,-1.64135 3.004408,-2.55942 1.743912,2.2728 3.409695,4.75431 6.34264,4.3397 3.859994,-1.71983 1.299258,-5.03236 0.667646,-7.01029 m -23.701444,-2.67058 v 4.3397 m 17.024981,-4.00588 -0.333823,5.00735 m 86.126373,7.01028 c 3.06579,2.61726 9.02819,-0.45673 8.62366,-2.67058 -0.82087,-3.28415 -6.39227,-4.65093 -9.66653,-4.43711 -4.81286,0.77042 3.91159,-3.46494 6.05022,-3.90847 m -63.760224,1.33529 c 1.456805,2.91328 2.704302,12.14582 -3.672055,8.95748 -1.305615,-0.90953 -2.708115,-2.49429 -3.672054,-3.00441 -0.935039,0.14488 -1.135333,0.98979 -2.002939,1.72486 -2.908268,2.46395 -4.031916,-2.30805 -4.673524,-4.3397 m 63.426396,-3.0044 c 0.90934,2.03264 2.92763,6.98925 3.67206,9.34704 m 18.6941,-9.34704 c 3.78226,1.38445 7.67162,2.30965 11.58564,3.21297 -2.77623,1.74633 -9.71233,3.11766 -10.08344,6.13407 2.0592,3.91348 9.22968,1.88742 11.85072,1.3353 m 21.36468,-10.34852 c -4.45951,3.38258 -11.59646,15.73872 -0.33382,12.35146 m 20.02939,-9.68088 1.66912,2.33677 c 0.99094,-1.2877 1.87444,-2.75328 3.00441,-3.5609 1.84403,-0.64127 2.77039,1.08827 3.44939,2.2256 1.32494,2.21859 1.08559,3.09521 2.2256,4.67353 0.46602,0.64528 0.55815,0.9564 0.66765,1.33529 m -145.21308,-8.01176 0.667647,3.33824 m 34.717608,3.33828 c -2.408171,-0.0987 -2.767009,-2.23416 -1.94719,-4.3397 0.626252,-1.55529 1.979905,-1.82835 3.616306,-1.66912 1.051877,0.10215 3.109578,0.1601 4.005878,2.1977 0.141193,3.38467 -3.155471,4.04562 -5.674994,3.81112 z m 109.827825,0.33382 c 1.32027,-1.35566 2.90559,-5.1539 6.00881,-6.23148 4.86581,-1.68948 10.61825,5.42697 11.34999,8.90207 m -109.82782,-8.67941 c 2.14448,3.67899 -2.54426,7.56148 -5.34117,7.34411 -2.06236,-0.229 -3.993986,-2.60547 -3.477282,-5.29873 m 76.974122,-0.54317 c 0.81787,-0.58887 1.66378,-0.0304 2.61484,0.44498 2.35879,1.1794 9.29831,6.21512 5.34117,9.12473 -4.08833,3.00607 -8.18167,-1.79831 -8.34558,-5.73075 -0.0391,-0.93437 -0.15289,-3.44839 0.38957,-3.83896 m 14.9663,0.83456 1.00147,7.01028 M 89.123436,126.25942 c -0.885217,4.36244 -0.53398,8.69792 -0.333823,13.10139 m 69.435217,-8.6794 -0.33382,2.67058 m -84.791085,-0.33382 0.667646,0.66765 m 442.315689,19.69556 c 5.87195,1.08192 13.87369,1.78929 18.6941,5.34117 m -265.72324,-4.67352 c 0.69046,7.65138 0.32995,16.7824 2.00294,21.53159 3.04974,-5.41751 8.87587,-17.06831 12.35146,-21.53159 m 17.69262,2.33676 c 2.20249,9.03293 0.70908,27.3955 4.67353,34.38379 m 256.04236,-33.0485 c 0.50596,5.16912 1.00147,9.9447 1.00147,15.02205 -3.16909,0.69034 -6.66275,-4.60255 -8.95647,-3.17132 m -73.49785,-11.18308 c -0.12353,9.27576 0.77805,19.58358 1.33529,28.04115 m -84.12343,-2.67059 c 0.22032,2.08272 4.3397,3.94112 6.67646,3.22707 4.1995,-1.28288 8.01176,-5.57251 8.01176,-9.90353 0.87106,-8.81704 -15.45539,-11.60308 -15.79985,-13.01911 1.40068,-2.3328 5.00156,-3.64172 7.45427,-5.00734 m -92.46902,0.33382 c 1.54904,6.22433 -0.6233,25.50588 2.67059,31.37938 M 525.76413,159.3902 c -0.57943,7.30538 -2.7982,19.18978 -2.67058,27.3735 -0.75778,0.45934 -1.31861,0.55281 -2.33677,0.77881 -3.13256,1.2808 -15.17477,1.71099 -13.18601,-2.78175 0.94138,-1.88477 3.06116,-2.59982 4.50661,-4.00588 m -64.09405,-19.02792 3.00441,4.67353 m 186.94097,-4.67353 c -0.18994,3.94173 -1.71303,6.70771 -1.16838,9.90353 2.83838,1.04409 6.88241,1.75448 9.84778,1.78028 m 3.33824,-10.34852 v 1.3353 m 15.96167,5.86927 c 2.57043,2.03031 8.0569,3.26813 11.41183,0.75144 2.04299,-1.53291 3.71589,-4.89706 -0.66765,-5.61925 -4.38354,-0.72218 -6.37594,0.55627 -8.76186,1.94213 m 2.32327,-2.51382 c -1.62905,1.62972 -4.42068,5.02223 -5.91287,6.58051 -1.0916,1.14034 -2.63052,1.64508 -3.33823,3.00441 -3.23495,6.92766 4.89124,9.02455 9.68087,9.01323 m -102.48371,-10.0147 c -0.58419,-0.92469 -0.56416,-1.01849 -0.27707,-2.00294 0.56416,-1.94318 2.51035,-3.95814 4.61677,-3.22707 0.89465,0.31013 1.82602,1.04921 2.44693,1.89178 0.31713,0.4293 0.77447,1.09194 0.61423,1.66912 -0.27373,0.96742 -2.06636,1.29389 -3.06116,1.33529 -1.67913,0.0701 -3.34491,0.15089 -4.3397,0.33382 0.28375,3.59528 4.9072,5.24336 9.34705,5.675 2.87718,-0.59658 8.51474,-1.33123 10.29177,-2.50368 0.62759,-0.42829 0.68767,-1.46481 0.83456,-2.16985 0.19028,-0.90266 0.11016,-2.44258 0.39057,-3.00441 0.56416,-1.12565 1.04487,-1.34497 2.16985,-2.28101 3.55453,-1.99597 6.80838,-0.0552 10.01469,1.05688 0.91468,0.31747 1.01149,0.64228 2.00294,0.83456 1.3595,-1.28693 6.67734,-2.16636 7.75802,-1.36151 1.08068,0.80485 0.90803,5.94352 0.42065,6.75838 -0.49406,0.82454 -0.88797,0.78882 -1.5022,1.22413 -1.19509,0.84658 -3.46175,2.96468 -5.34117,2.78175 -0.94139,-0.0915 -2.05969,-0.67566 -2.50368,-1.33529 -0.81119,-1.20511 -0.62759,-3.14095 -0.22366,-4.67353 0.41728,-1.57631 0.74443,-2.42856 1.39204,-3.33823 m -241.68796,-2.67054 c 0,5.48939 0.16691,10.80319 -2.61384,15.68969 -1.0916,1.91281 -3.44839,4.26126 -5.73174,2.8375 -2.90849,-2.09534 -3.36518,-6.23131 -5.34117,-8.84631 -0.88797,0.52844 -1.02818,0.75811 -1.44546,1.66911 -0.67098,1.45914 -3.12125,5.59688 -4.89718,6.50955 -1.60903,0.82655 -2.88524,-0.0401 -3.61631,-1.5022 -1.12398,-2.24763 -2.23228,-7.31607 -2.39251,-9.34705 m -55.74847,3.00441 c 0.77169,-3.43288 2.72903,-6.28406 5.0631,-8.23442 1.1854,-0.97142 5.13553,-2.64388 5.8419,0.22266 0.71171,2.88958 -6.72019,7.50702 -8.90206,8.23442 -0.82822,0.27607 -1.27454,-0.0868 -2.00294,0.50073 -0.77747,0.62692 -0.92669,1.51089 -1.00147,2.28102 -0.18427,1.89478 0.3178,4.4512 1.44646,6.00881 3.14384,2.87682 7.27558,0.32951 9.90353,-1.33529 m 247.02914,0.66765 c -1.31811,-5.52797 -1.62461,-10.22187 1.05822,-15.35587 1.90279,-3.51182 6.0689,-3.13059 8.62265,-0.8903 3.03779,2.66391 4.3397,8.98051 4.3397,12.90794 m 108.29588,-16.55641 c 0.5942,3.2274 0.9186,4.13266 1.86576,6.87549 m -36.72054,-4.33971 c -1.54561,1.5446 -3.55188,3.05782 -5.00735,4.67353 -2.96101,3.28515 1.54894,4.67352 4.3397,4.67352 1.80932,0 3.56189,-0.62091 5.34117,-0.66764 m -161.73732,4.3397 c -3.0795,3.81143 -8.7803,6.47749 -12.51837,3.33823 -2.86083,-3.12059 -1.80656,-4.53879 -0.0568,-8.01176 2.37354,-3.99785 6.8482,-8.23698 11.40674,-7.14932 -0.006,4.57483 1.74588,7.95882 1.16838,11.82285 z m -46.90216,-11.34999 c 3.41835,-1.43978 7.95501,2.49232 8.34558,6.00882 0.13353,1.19508 -0.02,2.045 -0.50073,3.00441 -0.85125,1.70149 -3.11457,4.10335 -5.17426,4.61777 -4.73027,1.18274 -7.73802,-3.92743 -6.78662,-7.95601 0.31713,-1.34497 0.46401,-2.67058 1.77927,-3.39398 0.53078,-0.29076 1.08827,-0.49239 1.66912,-0.50073 0.94472,-0.013 1.589,0.35752 2.67058,0.55648 m 209.64095,-2.67058 c 2.34344,0.49339 3.14369,0.70754 4.52723,1.10891 -0.16692,2.72767 -1.39263,7.98777 -0.85518,10.90872 m -194.95272,1.00147 c -2.80078,0.22099 -6.96689,0.73875 -7.95501,-3.00441 -0.9347,-3.53986 3.54187,-8.99954 6.95354,-8.01175 m 208.9733,-0.33383 c -0.45066,2.45294 -0.59421,5.40393 1.66911,7.01029 M 322.132,173.18806 c 0.62592,-0.0608 1.45681,0.68 2.39251,1.44679 6.68043,3.84053 7.77661,13.62841 0.27808,14.68822 -1.41641,0.13754 -2.41154,-1.15837 -3.00441,-2.2256 -1.37523,-3.66607 -3.2894,-10.15242 -1.16838,-13.29718 0.37522,-0.53178 1.2949,-0.59186 1.5022,-0.61223 m 242.02179,10.57118 c -1.07825,-2.15516 -1.33529,-6.19943 -1.33529,-8.34558 -0.33021,-2.93744 -0.51645,-3.12334 4.3397,-2.33676 m -219.32181,1.66911 v 3.33824 m 102.48371,-3.00441 c 0.21662,2.943 0.77339,5.80046 1.43294,8.66508 m -180.69598,-7.99744 c -3.04947,7.11754 -5.76702,14.99679 -9.01323,22.36616 m 349.17903,-21.36469 c 1.15169,1.45881 1.16838,3.47911 3.00441,3.67206 m -25.64492,-5.7963 c 0,1.16604 -0.0595,6.77907 -0.0595,9.13453 M 467.6789,182.75777 c 0.97143,1.3196 1.71919,2.53539 3.00441,2.67059 m 52.41024,1.33529 c 2.41233,-0.20478 4.69587,-1.00786 7.01028,-1.66912 m -85.79255,37.3882 c -1.87943,0.39591 -3.41501,1.52891 -3.33823,3.33823 0.24035,5.7481 12.92897,4.86747 15.91335,1.61337 3.97583,-4.3377 -2.65056,-12.71132 -6.90013,-14.18749 -1.61931,-0.58194 -3.70778,-0.37688 -5.00734,-0.27807 -0.7945,-0.37722 -0.66765,-1.13934 -0.66765,-1.83603 0,-0.76779 -0.0668,-1.40306 0.66765,-1.83603 2.48996,-0.43803 5.82735,-0.44661 7.67793,-0.83456 m -97.18139,26.53219 c -1.40717,-6.64735 -3.37839,-15.52168 -3.29938,-22.19249 0.0901,-0.94204 0.33048,-2.00093 1.00147,-2.67058 1.0215,-1.0225 3.64868,-0.97176 5.00734,-0.55648 3.55856,1.08759 9.41382,5.13453 7.06704,8.90206 -1.09494,1.75424 -2.52704,2.38083 -3.7288,2.78175 -1.7609,0.0686 -3.75682,-0.31689 -5.34118,-0.77881 m -93.47048,8.34558 c -1.77712,-4.60999 -3.6809,-9.91508 -3.67205,-14.68822 0.16157,-3.87903 3.94245,-3.28082 6.34264,-1.94719 3.86753,2.53182 10.19036,8.97496 9.23588,12.29571 -0.6613,1.87808 -3.65503,3.16898 -5.23001,3.67205 -1.32628,0.42362 -2.63586,0.59654 -4.3397,0.66765 -0.99179,0.0414 -1.53625,0 -2.33676,0 0.17947,3.29025 0.48031,5.88078 0.33382,9.01322 m 204.29978,-26.0382 c 0.80769,6.28048 1.61256,12.51619 3.00441,18.69409 m -36.05291,-0.33382 c -2.82637,-5.00718 -1.26509,-11.76042 -3.10272,-17.52453 0,0 -0.69773,0.69675 -1.90462,2.83631 m -147.54984,4.50661 c 3.53901,1.73715 9.37832,4.87403 10.57118,8.51249 1.2268,4.20651 -3.64702,9.46322 -7.56677,9.68088 -1.56663,0.0871 -4.01723,-1.34298 -4.89619,-2.67059 -1.63606,-2.47163 -1.44712,-7.00561 -0.77881,-12.18454 0.95507,-2.72567 1.81233,-3.40968 2.67059,-3.33824 z m 122.17928,18.19337 c -2.3002,-0.95471 -8.24633,-3.40881 -9.01323,-5.34118 0.74335,-2.75427 1.70856,-10.78955 4.3397,-11.68381 m -37.38819,0.33383 c 0.22366,0.21798 0.57751,0.74609 1.33529,1.22413 3.90299,2.44942 9.89696,6.02826 8.34558,9.45821 -0.88129,1.73655 -4.50995,2.73401 -6.34264,3.11557 -2.8764,0.29951 -6.14422,0.46143 -9.2511,-0.0983 m 22.32695,-12.19739 c 3.72141,-0.19612 7.80636,5.60831 7.0637,8.51249 -0.36053,1.24049 -1.07825,2.84284 -2.44692,3.89472 -1.26185,0.96975 -2.77073,0.90533 -4.00588,0.16691 -3.26603,-2.65818 -2.04958,-6.91881 -1.11163,-10.07044 0.13687,-0.47337 -0.0367,-2.14983 0.50073,-2.50368 m 9.2903,1.50221 c 1.83541,2.69672 4.31915,7.41702 7.2561,8.50337 -0.93075,2.52252 -1.9344,5.0173 -2.9164,7.52014 m -127.18667,17.35878 c 1.03071,2.89711 3.22676,10.98426 2.28106,17.9707 -0.70637,1.70183 -3.0251,0.3592 -3.56056,-0.27807 -2.28514,-1.04572 -8.02334,-17.48001 -9.04042,-18.53193 1.60304,5.06242 1.49757,16.64089 1.64057,21.53634 m 19.02787,-15.68969 c 0.82421,-0.17159 2.03164,-0.67633 2.16985,0.66765 -0.52796,2.77423 -4.00041,4.893 -6.50955,5.50808 -1.63073,0.36253 -2.47297,-0.3829 -3.48691,0.39329 0.71092,-2.96097 5.22713,-6.02756 7.82661,-6.56902 z m 59.0867,8.01175 c -3.37989,0.8199 -8.55903,-2.00194 -11.01617,-5e-5 -2.11877,1.82034 -1.90713,3.96616 -1.11263,6.00882 0.45066,1.15937 0.97677,3.73381 1.44646,4.67353 m -25.03669,-15.68964 c 2.05768,2.79276 2.16684,13.18802 -3.00441,12.68528 -2.39541,-0.64309 -3.54859,-3.63001 -5.00735,-4.78469 -1.7523,0.5027 -2.91559,2.83276 -4.67352,2.78175 -2.06583,-0.75509 -2.86793,-3.21565 -4.00588,-4.67353 -0.47036,0.47036 -1.03452,0.91568 -1.55795,1.66912 -2.92728,5.76607 -8.41578,7.48581 -13.13027,2.67059 m 67.68602,-14.42574 1.7492,10.08603 c 5.67012,-0.50734 10.3532,-4.39503 15.02204,-5.67499 m 43.73083,1.00147 c 1.8698,2.31792 1.57947,7.97618 3.63321,9.35482 1.2805,-0.82205 4.66915,-6.91695 4.71237,-9.021 m -122.17927,0 0.66764,4.00588 m 36.0529,7.01029 c -1.24516,-0.72106 -2.57511,-3.38263 -3.95012,-2.50368 -1.67947,1.07358 -3.98285,5.73308 -7.01029,2.50368 -1.67789,-2.36242 -1.69597,-5.32077 -0.94606,-7.67794 0.95707,-2.15282 4.60183,-4.61364 6.73221,-2.50366 2.13039,2.10997 1.73667,4.95002 2.16986,7.17719 m -24.70292,-6.67646 v 4.67352 m 53.90095,-3.8687 c 3.91765,2.53706 7.69075,5.33007 9.85928,9.54369 m 78.11462,-8.6794 c 0,4.04928 0.66764,10.66866 0.66764,16.02351 m 25.03674,-3.00441 c -1.50221,1.68014 -0.47737,2.88624 1.33529,3.61631 2.31006,0.93003 5.448,0.56082 6.90013,-1.61337 1.2051,-1.80965 0.99145,-4.37875 -0.22367,-5.67499 -1.60235,-1.7065 -4.65015,-2.33676 -7.01028,-2.33676 -0.94138,0 -1.63574,0.24703 -2.33676,-0.16691 -0.78115,-0.46101 -0.69769,-1.1093 -0.55749,-1.83603 0.50407,-2.57945 1.9729,-5.00735 4.89719,-5.00735 m -20.69704,0.33382 c 0.16345,3.07131 -1.32421,6.37028 2.00294,7.01029 0.63093,0.009 1.03151,-0.10682 1.66912,-0.38957 0.82788,-0.36721 1.8427,-0.92436 2.67058,-1.2238 0.69435,-0.25103 1.45881,-0.28274 1.72587,-1.05721 0.26372,-0.76846 -0.14842,-3.53961 -0.15512,-3.7339 m 28.47329,0.0618 c 3.48449,-0.31009 6.98414,-0.2936 10.30968,0.81513 -0.23938,1.29075 -2.44023,2.18005 -2.75064,2.95525 1.48579,1.32206 8.18411,2.49081 9.96672,5.91049 1.2473,6.16707 -3.95203,10.38614 -9.18014,10.34852 M 336.48635,271.88855 c 0,2.65624 0.43964,5.29511 1.00147,8.34558 m 134.8646,-6.67646 c 1.81814,3.73981 2.47424,7.83937 4.00588,12.01763 m -94.80578,4.00588 c 0.18511,-6.35973 -1.08123,-12.468 -2.18134,-18.67874 3.52708,3.40316 5.47951,9.84077 9.85928,10.44433 1.99464,-2.17485 -0.25493,-10.21773 -1.66912,-13.13027 m 60.83352,6.79302 c 0.56083,1.93818 1.58474,6.54822 2.92671,9.23049 m -52.41024,-7.67793 c 0.0384,2.31511 1.14183,7.19176 2.00294,11.68381 m -35.71908,-5.00735 -3.33823,9.68087 M 44.735263,62.915256 c -3.090869,0 -5.949021,-0.102818 -8.355886,-2.002939 0,0 0.929498,-0.371154 4.768759,0.588661 3.342979,0.835744 3.587127,1.414278 3.587127,1.414278 z"
       id="path11505"
       sodipodi:nodetypes="cccccccccccccccczcccccccccczczccccccccccccccsscccccccccccccccczscccccccczcccczzccccccccccccccccccccccccccccccccsccczcccccccccccccccccccccccccccccccccccccsscccccccccccccccccccccsccccccccczczcccscccccccccccczccccccccczcccczccccccccccccccccccccccccccccccccccccccccczczccccccccccccccccccccccccccccscczccccscccccczccccccccccccccccccccccccccccccccccccccccccccccccccsccccccccccccccccccccccccccccccccccccccccczccccccccccccccccccczccscccccccccccccsscsccccccccccccsccccsccccccccccccccccccccssccsccccccccccccccccccccccccccccccccccsccccccccccccccccccccccccccccccccccccccccccscccccccccccccccccccczccccccccccccscccccsccccccccccccccccccccccscc" />
  </g>
</svg>
