<?xml version="1.0" encoding="UTF-8" standalone="no"?>
<!-- Created with Inkscape (http://www.inkscape.org/) -->

<svg
   version="1.1"
   id="svg6620"
   width="2662"
   height="1119"
   viewBox="0 0 2662 1119"
   sodipodi:docname="IMG_4670.svg"
   inkscape:version="1.2.1 (9c6d41e410, 2022-07-14)"
   xmlns:inkscape="http://www.inkscape.org/namespaces/inkscape"
   xmlns:sodipodi="http://sodipodi.sourceforge.net/DTD/sodipodi-0.dtd"
   xmlns="http://www.w3.org/2000/svg"
   xmlns:svg="http://www.w3.org/2000/svg">
  <defs
     id="defs6624" />
  <sodipodi:namedview
     id="namedview6622"
     pagecolor="#ffffff"
     bordercolor="#000000"
     borderopacity="0.25"
     inkscape:showpageshadow="2"
     inkscape:pageopacity="0.0"
     inkscape:pagecheckerboard="0"
     inkscape:deskcolor="#d1d1d1"
     showgrid="false"
     inkscape:zoom="0.90909091"
     inkscape:cx="321.2"
     inkscape:cy="177.1"
     inkscape:window-width="1366"
     inkscape:window-height="705"
     inkscape:window-x="1016"
     inkscape:window-y="-8"
     inkscape:window-maximized="1"
     inkscape:current-layer="g6626" />
  <g
     inkscape:groupmode="layer"
     inkscape:label="Image"
     id="g6626">
    <path
       style="fill:none;stroke:#665e94;stroke-width:0.316666"
       d="m 182.68777,7.0474653 c -2.0975,3.0697337 -4.93983,6.7749837 -5.06666,10.7666447 0,1.121948 1.045,2.795338 1.9,3.37775 2.41946,1.042525 5.00534,0.162318 7.28332,-0.844421 0.8854,-0.393521 1.53931,-0.267456 2.05833,-1.002755 -0.5158,-2.036609 -0.77851,-3.302289 1.10833,-4.961111 1.88684,-1.658823 7.97365,1.200892 9.07786,4.380536 0.85595,2.465878 -3.57357,8.135467 -6.8612,6.491653 -2.70749,-1.353684 -2.14161,-3.653502 -3.48332,-5.541655 M 7.8881193,20.030773 c -1.349409,0.142024 -2.3205287,1.129674 -0.8444533,3.16666 2.3592569,3.255707 6.569363,1.859178 8.286105,-0.949998 C 16.786783,19.863225 16.324166,16.5629 14.22144,14.330784 12.660023,12.673322 7.3578911,10.533034 6.9096575,10.10371 7.3215641,8.5730677 9.3302801,7.9679566 10.738114,7.3641314 M 231.45434,21.930769 c 5.34184,-1.948456 7.27532,-3.177495 2.84999,-6.649987 -2.50736,-2.048354 -6.89128,-2.916589 -8.54998,-5.066656 1.4098,-1.0016466 2.8234,-1.2666644 4.43333,-1.2666644 M 207.38772,13.06412 c 0.8417,2.908198 1.121,5.895498 2.21666,7.283319 2.71795,-1.616105 -0.0586,-4.14538 1.74167,-7.599985 1.10168,-2.114157 3.65781,-0.805915 5.22499,0.369423 2.51939,1.889577 2.80724,3.978117 4.11665,6.59723 M 92.121286,12.747454 c 2.212592,1.72184 3.30954,4.856979 3.78541,7.516653 -2.302479,0.666487 -3.976043,-0.243848 -6.635405,-2.13333 M 201.0544,14.64745 c 1.51936,1.64964 3.52956,5.667372 4.74999,7.599985 M 85.787965,14.964116 c -1.432856,1.339945 -3.556716,1.641016 -4.327875,3.166661 3.708773,2.278465 10.275247,3.56755 7.705751,7.91665 -1.182114,1.81095 -3.126443,2.382216 -4.961206,2.586085 -2.128893,0.392822 -5.875799,-0.488218 -4.433325,-2.586085 m 41.16658,-11.083311 0.63334,3.799993 c 2.92077,-0.539931 4.09042,-1.569394 5.78332,0.75833 3.32549,3.155638 6.32793,6.62543 9.41665,10.008315 M 41.235968,18.02036 c 1.688147,-1.554798 6.50014,-3.219485 8.452069,-1.472914 0.456769,1.720071 -3.525759,3.172487 -6.016654,2.480572 -1.093448,-0.303714 -1.988346,-1.177491 -3.113778,0.105513 -0.809563,1.924034 -0.597988,4.938037 0.369233,6.227808 1.543114,1.961049 4.476391,3.043604 6.861203,2.480508 2.753566,-0.661628 4.680622,-2.312157 5.277873,-4.327748 0.30828,-1.966969 1.175695,-3.424695 2.955444,-4.697234 1.47123,-1.021564 4.767407,-1.76763 5.963771,-0.316666 0.597453,2.867805 -4.27218,5.053626 -6.280437,5.330566 -0.858482,0 -1.773963,-0.296684 -2.533328,-0.316666 m 16.783299,0.633332 c 0.113391,-2.845587 0.3592,-7.638779 3.166661,-8.497226 1.257164,-0.331771 2.97666,1.064156 3.694542,2.163905 1.157777,3.510228 -1.833877,5.770077 -4.644541,6.649987 -1.000981,0.139048 -1.386047,0.120492 -2.216662,-0.316666 0.214773,1.57979 -0.02423,3.531899 0.949998,6.016655 M 19.604762,16.23078 c 2.052894,1.7806 1.987124,8.670989 4.749991,8.708316 1.433679,-1.070968 1.964244,-3.037135 3.16666,-4.274991 1.841901,1.971778 5.068478,6.647377 7.599987,5.541655 3.177743,-1.635675 0.184616,-8.136702 -1.266666,-9.97498 M 152.92116,27.630757 c 2.8502,-0.24662 10.6794,-2.047332 7.28332,-5.119413 -2.12205,-2.573196 -7.32361,-2.047776 -8.70831,-4.380567 1.09002,-0.831982 2.6073,-0.992648 4.27499,-0.949999 m -18.04997,-0.633332 c -3.33006,0 -14.2201,1.565634 -16.04996,2.161457 0.0375,1.814193 0.53334,6.456992 0.53334,8.921857 M 27.204747,16.864112 c 0.401754,2.180943 0.316666,2.301212 0.316666,3.799993 m 120.966427,6.33332 c -3.39688,0.772389 -8.0053,-0.328567 -9.07787,-3.483326 -0.18366,-0.601792 -0.16181,-1.321447 -0.10545,-1.899996 0.0656,-0.674625 0.18747,-1.420659 0.475,-1.899996 1.20931,-1.663491 3.90561,-2.565258 5.22499,-1.530574 1.66662,1.366097 -1.42056,3.111054 -3.16666,3.377813 -1.08648,0.166028 -1.64064,0.139523 -2.53333,0.05276 -0.79071,-0.07689 -1.29168,-0.262928 -1.58333,-0.316666 m -33.88326,-0.316666 c 1.0108,-0.717375 3.18154,-2.784635 4.74999,-2.849994 2.92819,0.149251 4.01578,2.427408 4.11666,5.066656 0.0133,0.480889 0.17733,1.175559 0.0529,1.58333 -1.64908,2.184934 -3.87527,5.746379 -6.06954,6.016655 -2.69134,0.224294 -3.78083,-2.799841 -3.96457,-4.612491 -0.1375,-1.356506 0.0794,-3.438468 0.84085,-5.09858 -0.6935,-0.652015 -1.78271,-0.406821 -2.89294,-0.422242 -2.092847,-0.02907 -3.685678,-0.316666 -4.749992,-0.316666 0,2.369168 0.826182,5.452292 2.216662,8.233317 m 14.8833,-3.483327 c 2.20843,2.3977 3.58593,5.996578 6.33332,4.116659 m -66.156123,-5.68333 c -1.188833,2.552644 0.315866,4.838367 1.292464,5.999993 2.241045,2.666328 5.064123,1.100762 7.547101,0.316666 M 285.9209,33.01408 c 0.72616,3.761685 2.22695,7.2196 2.33831,10.724979 -1.83158,1.311979 -4.99513,0.336937 -7.3104,0.315384 -0.55448,0.722315 0.2942,2.56353 0.001,3.374195 -1.12252,2.58002 -4.1287,1.906654 -6.74582,2.052078 -0.63681,0.01773 -1.22233,0.2717 -1.74166,-0.633332 -0.43612,-4.864078 5.66361,-9.027974 8.39165,-4.74999 M 175.72112,43.780725 c 0.28675,-1.84993 0.0114,-2.060229 0.42211,-3.799993 0.323,-1.367047 0.65804,-4.443774 2.11122,-5.647105 3.05772,-2.532378 8.9018,1.522847 10.60831,4.380441 1.23056,2.060546 -0.60167,3.793026 -2.375,4.433325 -2.78942,0.863595 -5.94897,0.159841 -8.23331,-0.52788 -0.7277,-0.02027 -2.49755,0.40945 -2.21667,1.794547 2.91544,2.674218 9.12536,6.246992 13.29998,6.333321 M 5.9881231,35.547408 c 2.6286264,-0.562256 9.1587609,-2.286094 9.8694349,-0.316666 -0.225922,2.668331 -4.510659,3.518507 -5.9944886,4.847217 1.9065816,1.755914 7.4439956,2.304369 6.8916986,5.919428 -1.259016,2.854247 -4.867356,3.830208 -7.2833185,3.799992 -0.9659264,-0.0133 -1.3252157,-0.224832 -1.8999962,-0.633332 M 225.12102,34.914076 l 2.26954,8.233317 c 0.75478,1.355385 1.06537,2.779228 1.37212,4.274991 1.78783,1.477027 3.49468,3.048363 5.22499,4.591658 m 31.29705,-3.008328 c -2.41853,0.183431 -6.74432,0.5004 -8.44421,-0.791665 1.39155,-3.345951 5.50191,-14.501997 7.29918,-10.277064 0.92307,2.311685 1.3312,9.29888 1.14503,11.068729 z m 43.7528,-11.874976 c 5.28325,0.139017 7.19465,5.903605 6.1221,10.449979 -0.3344,1.417081 -1.12701,2.785711 -1.68878,3.483327 -1.23811,2.215563 -3.7946,3.140293 -6.33332,3.16666 -0.67133,0 -1.26983,0.09563 -1.89999,-0.158333 -2.56851,-1.352704 -2.85824,-5.267303 0,-5.805438 3.10975,-0.08142 6.12861,0.785256 8.21977,2.776278 1.76278,1.77305 4.61865,1.64711 6.98019,2.237495 M 50.638035,52.330708 c 3.135944,0.08265 13.017824,1.335697 9.658314,-5.383323 -0.918015,-1.83603 -3.36996,-3.004527 -5.224989,-2.849994 -0.680832,0.05668 -0.920548,0.291966 -1.58333,-0.05288 -0.557649,-0.28975 -0.583933,-0.889515 -0.633333,-1.213781 -0.144083,-0.943665 0.437316,-3.875993 1.319548,-4.591658 0.607049,-0.492415 1.351214,-0.474999 2.163779,-0.474999 1.38383,0 1.55673,0.224833 2.849994,0.633332 m 65.233202,10.449979 c -2.19038,-0.172899 -3.08084,-0.859431 -4.74999,-2.111212 -1.31802,-1.194095 -2.94179,-1.710379 -4.38044,-2.374995 -1.14253,-1.062098 -1.05608,-2.378479 -0.58077,-3.747109 0.40439,-1.164381 1.70177,-3.126761 3.69455,-2.849995 3.63902,1.280316 7.78248,4.065635 8.23331,7.916651 0,1.65743 -2.40381,2.581462 -1.79454,3.799992 1.17483,2.349346 5.22879,2.648595 7.49453,3.483327 M 40.188056,38.080736 c 1.90253,0.05003 4.642324,1.184331 5.33044,3.166661 0.603317,2.743124 -0.113217,5.943709 -2.163779,7.283318 -0.986732,0.629216 -1.321131,1.088698 -2.216663,1.636214 -1.117831,0.683048 -3.14861,2.023496 -4.433324,1.372114 -1.635582,-0.829349 -1.408531,-2.600779 -0.316666,-3.64166 0.526932,-0.502232 1.168181,-0.691915 1.899996,-0.844548 2.132112,-0.443966 4.014692,0.819848 4.795302,1.512255 1.07416,0.792474 2.606133,1.092323 4.704679,1.865622 M 331.52081,38.080736 c 1.39016,0.2926 9.20173,2.660211 10.3354,3.171627 1.36166,0.612749 -3.01809,0.385781 -1.82742,1.365863 1.48723,2.402668 5.36254,4.959599 5.52982,6.862487 0.1045,1.837297 -1.25716,3.056461 -2.63783,4.169542 -2.82466,2.275562 -7.88815,2.913644 -10.76664,0.263783 M 22.454757,39.030734 c -1.227531,3.532797 -2.175934,8.396428 -0.580544,10.608312 1.59539,2.211884 3.375654,1.227561 4.644414,0.580449 1.017397,1.699877 1.738933,1.188692 3.536115,0.844549 m 60.483213,-1.899997 c -2.429461,1.918047 -2.833844,1.96618 -4.433324,2.849995 -1.63368,-2.699262 -0.656765,-6.542004 -2.533328,-9.183315 3.677019,-0.981928 11.970001,-3.972614 15.516635,-2.533329 m 226.099552,0.316667 c 0.87083,4.73194 2.74866,10.517112 3.79999,15.516635 M 194.72108,42.039062 c 0.58995,-0.280566 1.67326,0.07505 2.21666,0.263782 1.38337,0.716425 2.75444,1.595389 3.79999,2.427879 0.71757,1.013516 0.93595,2.121547 1.26667,3.16666 0.0925,1.332214 -0.81003,2.138763 -1.9,2.744545 -1.56718,0.870515 -3.95326,0.604199 -4.9612,-0.844549 -1.10549,-1.589346 -1.08079,-4.188541 -1.05545,-6.016654 0.0108,-0.779315 -0.13617,-1.375914 0.63333,-1.741663 m -40.21659,0.474999 c -0.0995,2.393171 -0.99908,4.387852 -1.37211,6.33332 -0.0136,0.979448 -9.5e-4,1.490547 0.15833,2.533329 0.6156,4.030842 1.53045,9.058231 1.53045,13.299973 -0.10859,2.192321 -0.29869,4.077516 -2.53333,4.486208 -5.95873,0.726381 -14.46197,-3.029999 -17.7333,-7.019536 m 77.87068,-15.281222 c -1.78801,2.933015 -5.89724,4.815726 -7.51793,3.195029 -0.67482,-0.674815 -0.36164,-1.73913 -0.0529,-2.480445 0.8588,-2.060862 3.0571,-4.775957 5.38333,-5.066656 2.10867,-0.263466 1.63494,1.241014 1.68878,2.533328 0.0409,0.975648 0.84961,1.756546 1.42499,2.322112 0.77837,0.764748 1.07413,0.689065 1.9,1.530764 1.40695,1.43323 1.27965,3.954842 3.53621,4.644224 3.86934,1.182431 7.76212,-1.736914 9.07786,-4.697108 0.2945,-0.663098 0.60104,-1.079831 0.73879,-1.266664 m 126.66641,-5.066656 c 0.8864,5.080453 3.77165,10.352735 5.06666,16.149967 M 138.67119,49.164047 c -0.12223,0.112417 -0.61591,0.725799 -1.26666,1.002882 -0.69983,0.297982 -1.93103,0.509199 -2.79711,-0.158333 -1.13747,-0.876532 -1.96935,-2.517495 -1.95288,-3.694543 0.0135,-1.713271 0.99323,-2.53859 2.21666,-3.16666 3.45025,0.65856 3.18296,4.136791 3.85288,5.647105 1.20857,1.221542 2.94964,2.365086 4.38044,2.902878 m 72.19985,-3.166661 c 1.07635,-1.31923 1.96365,-3.20371 4.11666,-4.011208 1.26318,-0.473733 3.12644,-0.822699 4.43333,-0.949998 1.40029,-0.136167 1.77049,-0.634285 3.55207,-0.5867 m -200.849597,7.15832 c -1.738527,-3.475672 2.449452,-7.342604 5.081239,-6.202071 0.938915,0.528199 1.052281,1.55388 0.527882,2.374995 -1.131764,1.771113 -4.414719,3.630602 -5.511207,3.861451 M 290.03756,52.96404 c -0.4606,-3.424163 -1.00573,-6.000359 -1.78229,-9.244774 1.81235,-0.06146 4.37483,0.239108 6.84894,0.694791 M 114.57749,43.630723 c 0.17961,2.477648 0.34375,4.950037 0.34375,7.433321 m 60.91029,-7.158321 c -0.27731,2.032597 -0.42708,2.965979 -0.42708,6.208322 m -86.766491,-3.16666 c 2.49009,-0.845558 5.022805,-1.422645 7.599985,-1.899996 m 47.499906,2.216662 c 2.11079,3.69484 5.76867,2.911385 8.86665,1.58333 m 104.18312,-0.316666 c -1.758,3.790748 -4.031,7.746662 -6.01665,11.399977 m 17.7333,-10.766645 -3.29687,-0.233334 c -0.13021,1.486814 0.44687,4.543792 0.44687,6.566655 m 6.64999,-6.016655 c -0.27625,3.215828 0.23328,6.359368 0.31666,9.183315 M 86.129615,51.966784 c 0.04528,1.719813 1.076064,2.560636 2.508344,2.580586 2.027296,0.02818 4.284808,-0.936382 6.333321,-1.58333 m 152.94969,5.066656 c -1.22616,4.457942 -3.93182,8.147649 -6.33332,12.03331 M 8.2047853,70.697338 C 6.9301786,67.76447 6.0001377,62.011385 7.6242415,59.930692 c 1.7082232,-1.998162 6.5023565,1.448114 7.1249855,3.166661 0.987017,2.724278 -2.58998,5.930521 -4.327779,6.70287 -0.885462,0.393299 -1.4941262,0.26506 -2.1388899,1.047225 -0.087475,1.449614 0.1978031,3.341289 0.5555595,4.59988 M 17.071434,59.614026 c 0.952625,3.792942 2.088473,7.482297 3.588871,11.083312 l 0.211122,5.383322 m 48.449904,-11.083311 0.949998,0.633332 m -23.161168,4.208464 c 1.694206,-4.010274 5.47442,-3.338899 5.058321,-1.675136 -0.407866,1.631464 -2.305645,1.939263 -3.430443,2.111213 -0.707115,0.107983 -1.528547,-0.533582 -2.058329,0.158333 -0.673759,2.406003 0.997168,5.639514 2.691661,6.54422 1.013648,0.506982 1.630197,0.369549 2.849994,0.369549 m 58.266555,7.599985 c 2.81559,-1.241288 4.46635,-4.391898 5.96377,-6.386204 1.59535,-2.620566 2.66345,-9.28723 5.27787,-9.605431 0.36828,2.817061 0.15833,7.108836 0.15833,9.658314 l 5.06666,-1.266664 M 20.554761,70.380672 c 1.081397,-0.970242 1.642928,-1.953762 2.533328,-3.061211 1.868709,-1.374014 3.773361,-0.0032 4.697202,1.794546 0.774027,1.506064 1.148959,3.383577 1.636119,5.066657 m 63.649874,-6.649987 c -1.300293,4.098511 -4.193758,7.5091 -6.016655,10.449979 -0.678615,1.110231 -1.69448,1.805947 -2.533328,3.483327 M 169.3878,69.747339 c 1.80471,-1.943033 6.99799,-3.379617 8.07498,-0.949998 0.0265,3.432504 -3.70492,5.798773 -5.54165,7.599985 -1.71091,1.715578 -3.86141,4.137753 -3.74711,6.649987 0.31793,3.816776 6.77602,3.14576 7.75831,0.316666 1.00004,-2.880394 -2.12799,-5.332023 -3.69454,-6.966653 -1.58802,-1.464502 -2.45007,-2.519401 -3.79999,-4.433324 m 14.56664,9.183315 c -1.65623,1.438709 -1.30515,3.721503 0,5.066656 1.53868,1.53868 4.28259,2.048513 6.01665,0.844548 4.70788,-3.269576 4.10304,-8.692799 -0.31666,-12.191642 -0.71947,-0.569682 -1.31987,-1.079831 -2.21667,-1.266664 -1.12859,-0.235283 -2.45036,-0.02533 -2.79711,-1.002881 -0.18271,-0.514583 -0.0636,-0.797682 -0.0529,-1.58333 0.0117,-0.848665 0.44206,-2.720795 1.58333,-3.324994 1.71285,-0.906931 3.19643,0.961715 2.84999,2.058329 M 61.40468,77.030658 c -0.557332,-0.921181 -1.303397,-3.501059 -1.161214,-4.433324 0.871841,-1.784485 2.769659,-4.527192 4.327875,-4.433325 4.237941,0.411983 5.466605,7.765285 7.283318,10.766645 M 81.987972,68.480675 c 2.170746,2.749612 3.082428,7.461919 5.115271,9.476352 1.934043,1.861801 4.43791,6.355367 7.868037,5.723618 M 35.1214,69.27234 c 0.504765,-0.267266 3.182493,0.193167 3.799992,0.527883 3.011789,0.811494 4.084474,4.099899 1.58333,5.488772 -0.941131,0.490516 -2.283479,0.262516 -3.16666,-0.10545 -1.985428,-1.110286 -2.935339,-2.442514 -3.166662,-4.486207 0.09152,-0.822382 0.476266,-1.174198 0.95,-1.424998 m 94.36648,0.474999 c 2.37874,0.657926 5.7762,0.187296 7.44165,1.583331 0.24275,3.069794 -3.65444,5.117951 -5.54166,6.70287 -1.2214,1.278206 -3.51468,2.84644 -3.48332,4.380441 3.19684,4.341768 12.25171,1.976619 16.46663,0.316666 m -85.499828,-11.716643 1.266664,1.58333 m 13.61664,-0.633332 3.16666,6.016654 M 221.32103,71.964002 c 0,2.472528 0.47528,4.506453 1.29165,6.138866 l 1.87501,-0.755544 m -10.13332,-5.066656 c 0.0129,2.507964 -2.76715,6.448598 -1.74166,8.180433 2.95054,0.651988 7.46332,-0.853994 9.97498,-2.480445 m 14.56664,-5.699988 c 0.61418,2.205059 1.19248,4.416111 1.68878,6.649986 0.83065,3.156963 1.0847,5.881221 1.47788,9.183315 M 201.0544,72.702784 c 1.53583,-0.447766 4.06536,2.059912 5.06666,3.06121 0.82808,0.828082 1.11783,1.539314 1.79454,2.533328 1.83432,5.056214 0.45744,8.923972 -6.8612,7.230436 -4.31014,-1.975363 -3.21859,-6.178788 -2.32211,-9.763764 0.37968,-1.519364 0.74385,-2.600778 2.32211,-3.06121 m 29.44994,0.527882 c -1.41909,2.151382 -2.26337,4.527914 -1.53045,6.649987 1.89107,1.045212 4.41197,0.51819 6.59711,0.105449 1.57668,-0.372082 2.44276,-0.541182 3.16666,-1.055448 M 116.50457,78.613988 c 0.41325,0.29355 0.68115,0.583299 1.58333,0.633332 1.56528,0.08708 2.65746,0.178283 3.79999,-0.633332 m 100.82202,-0.388909 c 0.8056,1.913297 0.81416,4.336151 2.09444,7.038896 M 121.76568,78.786169 c 0,1.382564 -0.51112,4.468877 -0.51112,6.794472 M 103.2046,83.680645 c -2.04749,2.153083 -2.77953,4.878738 -3.799996,7.599985 M 5.354791,89.6973 c 0.070943,2.255934 -1.1538032,9.540298 2.2166623,9.130431 1.7506081,-1.14679 3.2652507,-3.576608 4.2749917,-4.85544 0.368251,-0.480699 0.158333,-1.586814 0.158333,-2.058329 M 17.3881,91.597296 c 0.340737,2.528262 1.222185,7.798137 -0.949998,7.758318 -2.533687,-0.401937 -3.177976,-3.819175 -4.433324,-5.22499 m 28.183278,-0.316666 c 0.02913,1.110864 1.653947,6.560682 3.799993,6.649982 1.624618,-0.33654 2.766566,-2.261604 2.955444,-3.483322 0.178283,-1.283764 -0.10545,-1.60233 -0.10545,-3.16666 m 23.295786,8.370812 c -0.114189,-2.16377 -0.02676,-7.602083 2.037496,-8.317929 2.159979,-0.607682 4.603691,3.880426 4.063776,5.647106 -0.361316,1.182433 -3.023211,2.880073 -3.74711,2.849993 -1.045631,-0.0437 -1.263214,-0.0864 -2.298954,-0.26146 -0.01354,1.99413 0.660841,4.53456 1.348956,6.91146 M 86.421297,93.813958 c 1.330314,1.80563 4.170492,7.753882 4.433324,11.083312 M 28.471411,94.44729 c 0,2.002913 -0.08205,1.345197 1.16112,2.849994 0.600747,0.727382 2.014407,2.165679 3.272205,2.427879 3.708794,0.772667 3.185662,-2.853478 1.58333,-4.644541 m 64.283206,0.316666 c -0.874948,0.368599 -1.41423,0.124133 -2.216662,0.369549 -0.728965,0.222617 -1.515564,0.802749 -1.372114,1.530447 0.203616,1.032332 2.059279,1.414547 2.955444,1.899997 2.64448,1.432599 5.45964,3.488709 3.74711,6.649989 -0.47785,0.88223 -1.02062,1.53709 -1.84711,2.11121 -2.625482,1.82305 -7.275089,0.31983 -5.383326,-1.79455 M 55.388026,95.713954 c 0.383166,2.080496 -0.12825,5.849136 -3.483327,5.383326 -2.111529,-0.29324 -3.489909,-2.704499 -4.929156,-4.143746 M 21.561007,93.41812 c 0.261266,2.300582 2.769774,5.942244 4.377076,5.779161 1.48271,-0.246505 1.646323,-1.899642 2.533328,-2.849995 m 79.483179,0.316666 c 1.68371,0.531683 3.46527,0.861015 5.06665,0.949998 0.46582,0.02597 1.14348,-0.0013 1.37212,0.633332 0.28183,0.781216 -0.38412,1.470597 -1.05545,2.005448 -2.39658,2.306 -6.4922,4.03845 -7.49454,7.17787 -0.47658,1.63431 0.68115,2.15491 1.79455,2.21666 2.13876,0.11875 5.97549,-1.17483 7.91665,-1.58333 M 86.104631,98.563948 c -0.781215,1.099465 -0.977231,2.643842 -1.95288,3.799992 -1.240064,1.46996 -3.038727,1.65838 -4.380441,0.31667 -1.195731,-1.19573 -0.949998,-2.10995 -0.949998,-3.799996 m 98.799798,7.599986 c -1.80721,-2.8614 -6.82352,-10.050031 -10.76664,-7.441653 -1.55895,1.031383 -0.98895,2.902883 -2.21666,2.902883 -0.69667,0 -1.01017,-0.62795 -1.58333,-1.16122 -0.84233,-0.783748 -4.24022,-2.560448 -4.24583,1.75417 l 0.7625,3.3125 m -22.16662,-6.649999 c -2.4811,1.866879 -3.75181,4.815629 -4.11666,7.599989 -0.22515,2.31546 1.4554,4.37727 3.79999,4.11665 1.19795,-0.133 2.3066,-0.90439 3.16666,-1.58333 m -78.216508,-7.91665 1.266665,1.26667 m 88.349823,0.36956 c 2.45099,2.16251 0.16435,4.33769 -2.21666,5.59422 -1.7214,0.90851 -4.21514,1.0944 -5.22499,-0.89712 -0.26675,-1.60022 -0.55389,-4.19493 0.8677,-5.1979 1.94717,-1.05415 5.08682,-0.57891 6.57395,0.5008 z m -27.54995,4.06377 c 0,1.06843 0.11115,1.99911 0.63334,3.16666 m 165.61633,27.54995 c 2.34014,8.22467 2.06991,24.06296 5.69999,24.06661 1.47316,-7.74595 7.91719,-20.63991 12.98331,-28.49994 m 123.81642,3.16666 c -1.9855,1.98423 -4.43649,3.24393 -6.64999,4.74999 -0.69667,0.47469 -2.3655,2.05422 -2.2705,2.53333 0.96771,1.84331 2.88794,1.43748 4.48716,1.79455 2.318,0.54751 9.03448,2.48836 9.49998,5.48877 0.57317,3.69581 -2.55549,7.77257 -6.01665,7.91665 -1.44717,0.0605 -2.97666,-0.47183 -3.48333,-2.21666 M 328.03748,138.1472 c 0.0746,5.07339 -1.79012,33.23702 1.9,35.78326 m 170.04966,-35.46659 c 1.25866,7.56864 1.14864,15.15871 1.26666,22.79995 m 131.09974,-22.79995 c 0.22908,3.07333 0.94999,6.10094 0.94999,9.18331 -1.13683,-0.20931 -1.41233,-0.25206 -3.48332,-0.63333 m -94.68315,-7.28332 c 2.23151,-0.11017 4.07929,-0.49347 6.01666,0.0529 3.30687,0.50893 8.32736,-0.43742 10.76664,2.48046 m -213.74957,-2.53333 c -0.59159,5.41937 -0.39295,29.29839 1.58333,30.71661 m 201.3996,-30.39994 c 1.32626,6.45983 -0.8137,13.42963 -0.79167,18.94708 0.9595,1.37274 4.76266,-0.69445 5.85833,-1.21378 m 97.53313,-17.41664 c 1.01334,1.6036 1.47567,2.30913 2.21667,3.48333 m -82.33317,-1.58333 c 0.76152,3.07584 0.97498,3.92408 1.26666,6.64999 l -3.16666,-0.31667 m 106.08312,-1.58333 c 0.10767,-4.11666 7.15032,-4.83549 10.13332,-3.79999 0.73783,0.25618 1.69416,0.5738 1.84616,1.26666 0.2755,1.2597 -0.75683,1.70873 -2.16283,2.21667 -3.72083,1.34361 -7.72982,1.19509 -9.81665,0.31666 -1.58649,3.76643 3.116,6.01254 5.38333,6.96665 m -203.93293,-10.13331 2.53333,1.9 m 191.58295,-1.26667 c -0.21217,2.7018 -3.03683,6.53156 -5.69999,7.86377 -4.48716,2.2439 -4.43332,-3.37059 -4.43332,-6.5971 m -41.26517,4.67774 c -1.37107,3.62298 -3.50298,7.60423 -7.18474,7.67223 -1.89049,0 -3.37882,-1.58396 -3.48332,-3.48332 -0.10767,-1.94877 1.33633,-4.76678 2.53332,-6.01666 0.88667,-0.92656 2.58717,-2.39051 3.8,-2.74454 1.26349,-0.36797 1.73849,-0.57222 2.53332,0 0.51934,0.37271 1.16217,1.97948 1.47883,3.06121 0.10767,0.37113 -0.003,1.10136 0.26284,1.42499 0.86133,1.05355 1.12733,1.18212 2.05833,2.69167 0.44333,0.71819 1.06083,1.38699 1.84616,1.05544 0.75367,-0.31666 0.68717,-1.16374 1.00383,-2.00544 0.68083,-1.81513 2.071,-4.28354 3.16666,-6.01666 m -44.64991,2.53333 c 0.3515,-0.43288 0.62067,-1.0032 1.26667,-1.53045 1.40916,-1.14854 4.32882,-1.16469 4.32882,0.26379 0,0.88065 -2.28316,1.80879 -3.37883,1.89999 -1.30149,0.10862 -1.49466,-0.86513 -2.53332,-0.26378 -2.0902,2.08934 -0.3819,4.42828 1.58333,5.59422 1.38308,0.528 2.87508,0.37604 4.11665,0.36955 1.00383,-0.0418 1.9285,-0.47373 2.85,-0.84455 0.63966,-0.25681 1.86833,-0.71693 2.53333,-1.00256 1.74483,-0.75082 1.32999,-0.58995 2.21666,-2.58621 0.6745,-1.5143 1.349,-2.57513 2.84999,-3.325 2.25466,-1.12764 6.45366,1.88448 8.23332,3.00833 M 390.73735,147.6472 c 0.46611,5.53772 -2.908,20.93949 -8.54998,18.26118 -4.61078,-2.10611 -4.71408,-6.45846 -5.35834,-10.55574 0,0 -0.48098,0.45125 -0.71215,0.84455 -1.96709,3.21498 -3.49176,9.38356 -6.59615,10.34453 -4.12819,-0.57976 -4.95551,-8.33135 -5.06666,-11.6112 m 269.16613,0 c -0.19362,-2.45171 -0.33657,-4.88855 -0.23785,-7.34307 2.52105,0.042 5.3245,0.82364 7.83784,1.00976 1.2997,0.22955 1.8143,0.25893 2.84999,0 l 1.58333,5.06666 m -200.13293,-5.11954 c 0.4275,-0.13617 0.89933,-0.3705 1.58333,-0.15833 2.20659,1.34528 3.4998,5.29251 3.06216,7.49453 -0.48133,2.03458 -2.84366,5.96504 -5.27882,4.06378 -2.16917,-1.69353 -2.01734,-6.24102 -1.44863,-8.37625 0.56871,-2.13523 1.30929,-2.77768 2.08196,-3.02373 z m 12.98331,-0.26378 c -1.21284,2.09759 -3.344,4.04825 -4.48716,6.33332 -0.912,1.82653 -1.34583,3.98935 1.00383,5.06665 1.79233,0.82112 2.73916,0.15865 4.74999,0 m -150.0997,-2.53333 c 0.0564,-2.14699 0.36037,-2.89242 1.68878,-5.06665 0.89806,-1.46933 3.12518,-4.70978 4.90737,-2.74455 1.35533,1.4915 -3.32341,6.37702 -4.37949,7.12499 -0.7828,0.55448 -1.50416,0.5548 -2.21666,0.68621 m 177.64964,-8.44453 c 3.06605,0.10014 3.3936,5.19225 3.00833,7.8112 -2.36333,2.57072 -6.22604,5.0033 -9.02498,4.74999 -2.7455,-0.30495 -2.91016,-3.15114 -1.95383,-5.06665 0.90883,-1.8145 2.37183,-4.32091 4.17049,-5.59454 1.349,-0.95507 2.56183,-1.6074 3.79999,-1.9 m 63.64988,10.02786 c -0.36053,-1.86286 -0.63666,-3.72539 -0.63334,-5.38332 0.0665,-1.22328 1.501,-4.26137 2.85,-4.69711 1.273,-0.41198 2.83733,0.83664 3.79999,1.47757 1.91266,1.27585 4.05649,5.41815 4.11666,7.65287 m 3.79999,-8.86665 c 0.51531,2.39205 0.9256,4.55511 1.9,6.96665 m -1.89728,-6.98892 c 1.65933,0.3059 6.65044,1.6056 8.86393,1.6056 m 14.56664,0 c 0.29086,2.19956 0.70303,3.92992 0.95,5.06665 m -117.79977,-4.43332 c 0.26653,3.08388 1.27586,5.94489 2.21666,8.86665 m -95.9498,-7.91665 -0.94865,3.21527 m -26.28463,-2.89861 c 0.89616,0.35404 1.349,0.72707 2.21666,1.58333 0.44017,0.43384 0.86767,0.80877 1.21283,1.26667 1.74261,2.2517 2.70551,5.2017 2.32433,7.59998 -0.67881,3.05955 -1.94867,7.40038 -5.75382,7.59999 -3.62266,0.15105 -5.19016,-5.92134 -5.06666,-8.86665 0.0633,-1.51873 0.57633,-2.50356 1.47883,-3.79999 1.16533,-1.67802 1.98866,-1.82622 3.00833,-4.11666 0.19317,-0.43922 0.39267,-0.893 0.5795,-1.26667 m 265.92587,1.29301 c -0.49745,2.30769 1.15026,2.48672 2.60692,2.50699 3.2965,0.0459 7.85332,-2.05485 10.44998,-2.53333 m -139.33305,3.16666 1.58333,2.53333 m -182.08297,-2.21667 c -2.23977,3.60777 -1.82576,11.40947 0.63333,13.24709 1.23563,0.84107 2.58305,-0.28879 3.79999,-0.89711 m 220.0829,-12.03331 -0.63334,1.26666 c 2.13433,1.292 5.06983,1.56402 6.64999,0.31667 m -244.14951,2.84999 c -1.20369,4.78809 -1.78381,10.1918 -2.21666,14.56664 m -4.16663,27.52496 c -0.84064,-4.9264 -2.34162,-11.69407 0.73619,-15.17498 3.13816,-3.30061 8.97589,3.20687 10.60831,5.38332 0.67925,0.90567 0.75398,1.76351 0.73878,2.84999 -1.32207,7.44894 -11.15626,6.31488 -11.87498,7.12499 -0.36701,0.43827 0.15834,2.79109 0.15834,3.32499 0,1.21948 0.31666,4.22243 0.31666,5.69999 m 155.79969,-8.86665 c 0.684,2.36708 3.82849,4.44631 6.01665,4.74999 1.22867,0.17069 3.6765,0.19634 5.06666,-0.42211 1.01017,-0.44903 2.128,-1.29865 2.69166,-2.42788 1.88417,-3.76706 -5.11099,-9.4832 -7.75832,-11.50543 -1.24449,-0.95031 -3.28699,-1.84204 -2.79616,-3.37787 0.74734,-2.35093 6.09899,-0.95 7.86282,-0.95 m -117.16643,5.69999 c 0.01,-0.74417 0.0412,-1.24608 0.3705,-1.9 1.292,-2.58526 5.23132,-3.09003 7.86282,-1.84711 2.13749,1.0089 6.29848,2.90161 6.91282,5.01377 -4.01676,6.49587 -2.38581,0.46188 3.53715,8.86665 0.35467,0.51173 1.16217,1.12955 1.16217,1.9 0,0.97089 -0.9975,1.87181 -1.53266,2.53332 -1.71633,2.13117 -4.59166,3.48333 -7.22949,3.48333 -0.9595,0 -1.31416,-0.12572 -2.21666,-0.26378 -3.10016,-0.47373 -4.48976,-1.16363 -5.2125,-3.09458 -1.76122,-4.69332 -3.52736,-10.24527 -3.65415,-14.6916 z m 130.78307,-3.8 c 1.66182,6.15526 2.42967,11.97815 3.48333,17.7333 m -39.58326,-16.7833 c 1.8233,5.79821 2.09702,12.04076 3.16666,18.04997 M 307.45419,195.8859 c 1.79549,-0.5985 3.76864,1.97948 5.38332,3.32499 4.67399,3.89405 7.06165,13.01593 -0.95,15.46407 -7.4084,2.26353 -8.70008,-8.689 -7.49453,-13.51119 0.42465,-1.69764 1.57889,-4.78355 3.06121,-5.27787 m 82.64983,21.42784 c -3.10511,-3.67779 -6.32566,-7.16373 -8.60381,-11.39998 1.36711,-3.47424 2.67569,-4.94726 5.75382,-6.96665 m -13.61664,5.38332 c -1.4345,-2.86709 -0.703,-5.5293 2.84999,-3.06121 2.12483,1.47472 3.80702,4.28238 5.01669,4.98348 m -35.41663,-5.72226 c 2.65366,0.76823 4.10083,0.31667 6.96666,0.31667 m 6.64998,6.64998 c 1.85389,-2.82712 3.16288,-3.6854 5.5528,-3.62916 2.44629,-0.17304 4.09602,1.42992 5.53051,2.99583 0.92784,1.01397 2.44783,2.76988 1.5295,4.11666 -0.52566,0.77298 -1.3775,1.38668 -2.16283,1.9 -0.88666,0.5795 -1.51999,0.90788 -2.53333,0.94999 -4.14199,0.17259 -6.08632,-3.37597 -7.59998,-5.06665 m 21.53329,-2.75006 c -0.88304,2.74928 -2.50927,6.13808 -3.48333,8.76671 m 89.77482,13.29998 c 1.15089,6.10258 -1.7864,10.65228 -4.48715,15.51663 0.0498,3.61147 1.72955,7.2129 1.79549,10.76665 m -86.44983,-26.59995 c 1.33317,3.16318 0.60236,8.79953 1.74167,11.03043 6.20508,-0.15332 11.92661,-3.06179 17.2583,-5.33044 m -102.91644,-2.53333 c 2.79934,6.6301 5.11447,22.90853 -0.31669,23.27495 -5.9801,-5.66089 -6.7621,-17.39883 -9.07916,-24.0043 -0.91266,6.89185 -0.59084,14.7265 -2.3208,20.99598 M 446.4706,231.24705 c -1.44853,5.76967 2.06055,15.95647 1.47225,22.6389 -3.3062,-7.44746 -11.19688,-12.75916 -14.47917,-19.4459 0.84773,7.94922 1.061,13.4943 1.29031,21.50697 m 22.48325,-24.69997 c 1.21158,4.85531 2.75411,8.72492 6.01666,12.34997 m 56.65552,-9.54724 c -5.02101,0.25078 -5.61057,2.8404 -5.40474,3.30844 0.23117,0.53073 3.80161,-0.63507 4.7991,-0.0945 0.66184,0.35878 1.52633,0.62985 2.11217,1.26666 0.74733,0.81574 2.00133,2.34967 2.58399,3.48333 1.10517,2.1508 1.71316,5.56572 0.89933,7.91665 -2.1113,3.64289 -9.84372,2.50231 -12.56214,1.05545 -1.89683,-1.05291 -2.99883,-2.66158 -4.11666,-2.95544 m 29.44994,-12.66665 c 3.38516,-0.98008 8.17315,-0.0861 11.39998,1.21379 1.18116,0.47594 2.70749,1.12384 2.84999,2.58621 0.16784,1.71601 -1.93166,2.31546 -3.16666,2.74454 -0.61749,0.21438 -4.32815,1.34282 -3.53515,1.56657 3.1105,1.34513 6.76212,3.36387 8.70631,5.8222 0.50033,0.66532 0.99433,1.09471 0.79167,1.9 -1.19667,2.16706 -4.32309,3.40828 -6.27949,3.48332 m -52.2499,-18.68329 c 0.12184,2.77495 -1.09143,5.11483 -0.79166,7.5471 2.67763,1.17108 7.62952,-0.1012 9.71215,-1.21378 0.20583,-0.57064 -0.019,-0.79578 -0.0538,-1.26667 -0.0602,-0.80528 -0.60166,-2.53396 -0.95,-3.48332 m -17.73329,-0.63334 c 1.5487,4.78847 0.77204,9.86984 2.53332,14.56664 m -99.4554,-14.6389 c 3.03414,2.72793 7.07102,9.41679 10.47225,10.52222 m -97.53314,-4.11665 c 0.36163,-1.96302 0.9386,-4.51661 3.48333,-5.54166 0.98293,-0.39583 2.45258,-0.0257 2.53333,1.425 0.13996,2.51813 -2.9146,3.87884 -4.74999,4.11666 -0.40312,0.0523 -1.08332,0 -1.26667,0 m 227.36621,-5.69999 c 1.61925,5.53125 3.46162,11.64268 5.06666,16.7833 m -183.34969,-7.91668 c -0.5035,0.54783 -0.85817,1.05671 -1.37117,1.89999 -1.05766,1.7309 -3.02099,3.40226 -4.96215,3.48333 -1.69733,0.0706 -3.77466,-0.54657 -4.3795,-2.53333 -0.33326,-3.01082 1.59835,-7.56149 3.4295,-9.13043 1.24449,-1.03803 3.77149,-2.58051 5.06665,-1.58333 2.90866,2.11846 0.92518,5.70869 2.375,7.75832 0.44803,1.80223 2.05122,3.22007 3.64166,4.2221 m 24.94437,-11.88611 c 0.29168,2.28153 0.76422,4.68338 1.97224,9.03612 m -22.79995,-3.79999 c -0.35351,1.59349 -0.2584,6.21312 1.58333,5.96377 0.58978,-2.28303 -0.59884,-7.16221 0.0538,-7.86377 4.15073,-2.55003 8.12428,-2.21666 12.61281,-2.21666 m -58.89988,2.84999 c -0.0738,0.93607 -0.31667,1.8582 -0.31667,2.85 0,0.5662 0.0988,1.11878 -0.15833,1.58333 -0.4256,0.76855 -1.3376,1.12258 -2.00545,1.89999 -1.06716,1.24197 -1.90506,2.27208 -3.21954,3.16666 -1.33665,0.90979 -2.35663,1.6435 -3.79999,1.58333 -0.9652,-0.0402 -1.56212,-0.51711 -2.21667,-1.26666 -2.55993,-2.93138 -0.73593,-7.23867 -0.94999,-8.86665 m 206.41628,7.81129 c -1.29986,-2.03342 -2.09703,-6.77167 -2.80003,-8.60296 0.7315,-0.67766 0.9025,-0.74954 2.85,-1.10832 m -174.48299,1.58333 c 3.04865,3.42191 3.41674,10.53707 -1.26666,11.13619 -3.47699,0.33788 -4.32882,-2.31705 -5.69999,-4.48621 -2.32749,1.34742 -3.77466,5.40771 -7.28332,5.06666 -3.40416,-0.33092 -5.06665,-5.33582 -5.06665,-7.28332 m 12.66664,-2.53333 -0.31667,4.74999 m 87.71649,-0.31666 c -1.41866,3.85445 -4.08182,8.14845 -6.64998,11.39997"
       id="path7836"
       sodipodi:nodetypes="ccccczccccccccccccccccccccccccccccccccccccccccccccccccccccccccccccccccccccccccccccscscccccccccccccccccscccccccccccccccccccccccccccsccccsccccscccccccccccccccccccczccccccccccccccsccccccccscccccccccccsccccccscccccccccccccccccccccccccccccccsccccccccccccccccccccccccccccccccccccccccccccccccccccccccccccccccccccccccccsccccccccccccccccccccccccccccccccccccccccccccccccccccccccccccccscccssccccccccccccccccccccccccccccccccccccccccccccccscccccccccccccccccccccccsccccccccccccccccccccsccszscccccccsccccccccccccccccccccccccccccccccscccccccccccccsccscccccccccccccscsccccccccccccccccccccccccsccccccccccccccccccccccsccccccsccccccccccccccccccsccccccccccccccccccscccsscccccccsccccc" />
  </g>
</svg>
