<?xml version="1.0" encoding="UTF-8" standalone="no"?>
<!-- Created with Inkscape (http://www.inkscape.org/) -->

<svg
   version="1.1"
   id="svg7843"
   width="2689"
   height="1140"
   viewBox="0 0 2689 1140"
   sodipodi:docname="IMG_4671.svg"
   inkscape:version="1.2.1 (9c6d41e410, 2022-07-14)"
   xmlns:inkscape="http://www.inkscape.org/namespaces/inkscape"
   xmlns:sodipodi="http://sodipodi.sourceforge.net/DTD/sodipodi-0.dtd"
   xmlns="http://www.w3.org/2000/svg"
   xmlns:svg="http://www.w3.org/2000/svg">
  <defs
     id="defs7847" />
  <sodipodi:namedview
     id="namedview7845"
     pagecolor="#ffffff"
     bordercolor="#000000"
     borderopacity="0.25"
     inkscape:showpageshadow="2"
     inkscape:pageopacity="0.0"
     inkscape:pagecheckerboard="0"
     inkscape:deskcolor="#d1d1d1"
     showgrid="false"
     inkscape:zoom="10.181917"
     inkscape:cx="565.31595"
     inkscape:cy="259.2832"
     inkscape:window-width="1366"
     inkscape:window-height="705"
     inkscape:window-x="1016"
     inkscape:window-y="-8"
     inkscape:window-maximized="1"
     inkscape:current-layer="g7849" />
  <g
     inkscape:groupmode="layer"
     inkscape:label="Image"
     id="g7849">
    <path
       style="fill:none;stroke:#645a94;stroke-width:0.340862"
       d="M 12.250696,7.1694949 C 9.9866888,7.4077918 7.6532403,10.673158 6.001442,12.607692 c 4.288586,1.487796 7.057129,1.72247 10.680465,3.935517 0.716356,0.506965 0.982263,1.121301 1.704311,1.874743 1.358439,1.41751 0.900667,1.428745 1.963101,2.550182 1.187292,2.243929 3.739527,4.742251 5.876733,5.176008 1.710106,0.264986 1.601031,-2.343088 1.931565,-3.29498 0.211505,-0.609189 0.507789,-1.525788 0.858407,-2.392499 0.51691,1.237548 3.578121,2.567907 4.708999,2.96058 4.411101,1.531631 8.940139,-2.099132 4.772074,-6.021878 -1.114961,-1.049208 -1.996432,-1.563536 -3.067762,-2.726899 m 69.902285,-3.749485 c 0.80685,2.033539 1.3675,3.434796 1.61596,5.23908 0.16328,0.50434 0.22271,1.952944 0.74457,2.032672 3.10248,-0.463123 6.35326,0.304258 9.20328,0.7953 1.75838,-1.484711 3.45908,-3.32126 6.47639,-1.590668 1.6227,1.904004 0.92596,4.239866 1.87474,6.476384 1.37841,1.574779 1.63049,4.06772 2.89733,5.112935 M 198.36153,12.28243 c -3.04867,4.455718 -7.40114,9.153517 -3.69256,14.316218 0.90192,1.256009 2.12357,2.001612 3.69256,2.045174 2.74091,-0.09421 5.03196,-1.125326 7.15811,-2.442824 1.94248,-0.766627 1.42459,-2.930179 2.05759,-6.056759 0.63299,-3.126581 7.30523,0.7687 7.8905,3.026998 0.58527,2.258298 -1.57569,5.692761 -5.85774,5.302154 -1.93122,-0.176165 -2.97771,-1.183727 -2.52493,-4.210454 m 44.11013,4.721747 c 4.33193,-1.285491 14.13335,-6.006712 10.22587,-8.86242 -3.80301,-2.53257 -9.80098,-2.208839 -12.6119,-4.772073 0.89544,-0.824819 1.27073,-1.136844 3.06776,-1.704312 m -32.38192,0.340863 0.34086,0.681724 M 93.716795,14.327604 c -1.594554,1.300696 -2.223268,1.515242 -3.591803,2.218792 1.965276,1.838527 5.655043,2.07229 7.682151,4.257592 3.001977,3.256596 1.174813,9.976466 -2.726898,10.566733 -3.354796,-0.554827 -7.44573,-3.82559 -7.498972,-6.135522 m 143.503047,1.363449 c -0.42131,-1.143389 -0.84568,-2.023291 -1.24995,-3.408623 -0.66899,-2.714669 -0.58971,-6.431262 1.24995,-7.669403 2.57248,-1.626663 6.44673,1.606586 7.95334,3.579055 1.29425,1.694324 3.44271,5.367593 3.97684,6.817246 m -74.30799,-10.22587 c -2.72145,1.145843 -5.29982,1.223737 -6.29991,2.594379 0.55594,0.512111 3.10841,1.465837 5.27732,1.495969 2.92076,-0.142973 6.19561,0.906881 8.52156,2.840542 3.50372,3.011042 -2.54624,6.500961 -5.11293,6.703604 M 130.52993,16.031916 c 0,2.905033 0.0412,8.801099 1.70431,10.907594 M 100.19318,16.372778 c 2.59158,0.204585 5.74472,1.247447 7.18998,1.855955 M 76.332816,26.93951 c -1.496111,-3.942888 -0.04258,-8.037945 2.386037,-9.771364 1.005203,-0.670067 2.792344,-0.154615 3.749485,0.284007 1.704994,0.781426 3.739601,2.258247 4.033424,4.374422 -0.318085,2.401347 -3.010732,3.368535 -4.715148,4.033561 -1.981967,0.31797 -4.283256,1.067666 -5.453798,1.079374 m 73.626264,-5.112935 c 0.20722,-4.386711 4.03814,-6.135139 7.49897,-4.43121 1.13277,1.306211 -2.88744,3.184813 -5.4538,4.147136 -0.56719,0.212766 -1.2438,0.228309 -1.5908,0.681724 -0.44074,0.576467 -0.1643,1.13347 0.0569,1.647524 0.76694,1.78104 2.94028,3.095541 4.94251,3.067761 1.28505,-0.01786 2.57215,-0.527655 3.40862,-0.681724 M 45.755855,20.071939 c 1.190883,-1.993415 2.349347,-3.31084 4.671424,-3.358299 2.322077,-0.04746 4.285321,1.660272 2.386036,2.954118 -1.645188,0.575928 -5.289726,0.326031 -6.141896,-0.719636 -0.461187,0.0086 -0.594225,0.68722 -0.959289,1.174142 -0.406308,0.541425 -0.496636,1.087453 -0.625141,1.704311 0.29296,6.192514 7.058859,7.751483 11.816674,5.453798 m 76.353167,-7.839834 c 5.52855,-1.357754 8.94726,-2.5246 14.31621,-1.704312 m -88.271261,5.782581 c 0.544056,-5.063784 5.433196,-6.324654 8.168617,-5.100856 0.397615,1.730978 -3.485418,2.305711 -5.79466,2.670111 -1.271757,0.211948 -2.319909,0.854303 -2.386036,2.442824 0.32268,4.510744 4.733098,6.457861 8.521558,6.476384 M 107.69215,18.417952 c 0.0757,2.87865 2.04518,7.883259 2.04518,10.907595 M 18.386218,18.411577 c 0.843247,1.78659 -1.061615,3.68128 -3.465445,6.085109 -0.988705,0.988706 -2.091872,1.6736 -3.351801,1.7611 -1.304753,0.09063 -1.9760474,-0.325217 -2.3860366,-1.704312 M 139.85298,17.994894 c 3.20915,2.587337 5.22292,5.858403 7.3792,9.285479 M 116.90181,19.03023 c -1.54584,2.042856 -3.21048,4.925576 -1.93804,8.591005 0.40903,1.177338 1.76771,2.098519 2.95425,2.329249 2.53636,0.493193 5.68858,-1.881704 6.84912,-5.719419 m 96.43217,-3.767939 c 0.4847,2.302286 1.52945,5.17971 2.7269,7.158109 M 147.57304,22.5083 h 2.38604 m -73.550442,4.494284 c 0.789352,3.631311 2.114675,6.402706 2.991939,9.821934 M 8.5012108,35.461069 c 2.1725202,-0.05716 6.7356782,0.671532 9.2032832,2.613255 0.467424,0.367824 0.802731,0.775767 0.624903,1.477092 -0.190645,0.751942 -0.659058,1.125527 -1.306628,1.590804 -1.71089,1.228809 -2.026017,0.701495 -3.664437,1.240265 3.391584,0.500396 9.019793,4.699943 8.038826,8.417388 -1.337305,5.0676 -9.345321,4.246122 -9.828186,-0.340863 m 192.246358,0.340863 c -1.78885,-0.04704 -1.53729,-0.107713 -2.38604,-1.36345 -0.80739,-4.018572 -0.90621,-7.731772 2.38604,-9.260207 1.06315,-0.472435 2.40376,-0.923123 3.74948,-0.568013 1.87937,1.041745 4.06839,2.756314 5.05602,4.374423 0.98645,1.651478 1.02633,3.438278 -0.6248,4.658565 -2.38128,1.658736 -5.51779,2.265442 -8.1807,2.158682 2.6777,2.279748 5.33513,3.350691 8.1807,4.772072 1.26016,0.630255 3.09434,0.504136 4.77207,0.340863 0.68888,-0.06715 1.53729,-0.159524 1.98825,-0.511294 0.4738,-0.369495 0.3637,-0.730809 0.39778,-1.193018 0.0532,-0.717515 0.67218,-3.751531 0.68173,-4.43121 0.016,-1.157228 -0.74683,-2.504998 1.36345,-2.386037 1.22983,0.0692 3.75732,2.329453 4.03342,3.749486 0.13055,0.670476 0.0535,1.126891 -0.22701,1.704312 -0.63503,1.305843 -2.04824,2.783141 -3.46555,3.295116 -1.17222,0.42301 -1.79941,0.139753 -2.7269,-0.568218 M 36.167758,56.316743 c -3.446404,-0.07776 -2.867424,-1.26427 -3.806307,-1.704311 0,0 -1.557209,0.607062 -2.385913,0.618651 -1.266338,0.01772 -2.1535,-0.108394 -3.067761,-1.022587 C 26.177786,53.478369 25.988062,52.986164 25.88519,52.163322 25.603772,48.4031 27.217442,39.672746 29.975538,40.574003 M 111.7825,55.571945 c -3.42264,0.812335 -8.15406,3.149552 -10.50981,0.340863 -0.68103,-1.743942 -2.655665,-12.199934 -2.045173,-13.293631 3.520523,-1.35275 11.222963,-1.695001 14.941023,-1.022587 m -65.10471,0.340862 c 1.895535,0 3.205128,0.04806 4.772072,1.136094 2.370973,2.201801 4.243046,6.182468 2.045174,8.748914 1.587055,1.587055 2.044493,2.493067 4.772073,4.43121 M 140.7558,54.208496 c 0,-1.559104 0.27916,-1.732944 0.0569,-3.067761 -0.28409,-2.177047 -2.10748,-4.810782 -1.24994,-6.41946 1.41049,-2.45864 6.03633,-0.869199 8.35113,0.738307 1.69442,1.176657 1.91729,4.029369 -2.15924,5.024925 m 154.86556,-0.0255 h 2.38604 c -0.43122,-2.596333 -1.03545,-5.547949 -0.56196,-7.019214 M 63.039185,55.571945 c 3.338167,-0.0457 7.612758,1.166364 10.22587,0.170431 0.552879,-0.23349 1.133368,-0.569581 1.36345,-1.193018 0.918624,-2.487613 -5.042377,-5.326315 -7.158109,-5.737735 -0.926123,-0.180317 -2.832566,0.114529 -3.238193,-0.738649 -0.279848,-0.588669 0.06374,-1.3914 0.227356,-2.045174 0.18577,-0.744103 0.54947,-1.479683 1.306525,-1.874743 1.725496,-0.369358 3.257503,-0.170431 5.112935,-0.170431 m 176.225831,0.340862 c 1.64159,3.283186 2.1505,4.857289 2.38603,7.839834 -1.49025,0.156797 -2.00256,-0.340862 -3.74948,-0.340862 -2.70987,0.756859 -5.07733,2.783479 -5.79466,4.772072 0.0194,0.468345 0.33541,2.211174 0.73865,2.726899 2.10925,2.69997 5.51787,0.09749 7.04426,-1.704312 1.09212,-1.2888 1.70431,-1.558081 2.27253,-2.726898 0.25326,-0.520838 -0.0375,-1.663409 -0.17044,-2.386037 M 32.361574,54.549358 c -0.43933,-2.599571 1.857653,-7.051135 4.090348,-7.953341 1.520588,-0.527995 3.773688,-0.358928 4.601643,1.136095 0.624648,3.934097 -5.15244,6.482238 -8.29443,6.810872 m 124.358055,0.347237 c -0.76285,-1.811343 -1.83589,-5.899305 2.04517,-7.839834 1.29494,-0.647298 3.26819,-0.393355 4.37429,1.022587 0.80103,1.024973 0.1176,2.787231 -0.68172,3.749486 -1.01134,1.21756 -1.13099,1.784414 -2.66998,3.010837 -0.74649,0.595145 -1.71351,0.371199 -2.7269,0.568217 -1.08667,0.211335 -1.34061,0.598554 -2.38603,0.511294 -1.09826,-0.09135 -1.9194,-0.277803 -2.7269,-0.681725 -2.64618,-1.059468 -4.70329,-2.953746 -6.81725,-4.033424 -1.57289,-0.339782 -2.76757,-0.04421 -4.43121,-0.05692 m -37.15399,-2.386036 7.83983,-1.36345 m 211.33465,1.022587 c 2.28002,0 4.29588,0.64798 5.62422,2.726899 1.2355,2.481378 0.4424,7.435998 -1.53388,8.123772 -1.17991,1.744788 -6.99401,3.285532 -9.37371,-0.283938 -1.17249,-1.758694 5.1262,-3.555863 9.69898,0.132518 1.01043,1.140094 2.20427,1.984574 4.10594,2.935239 m -95.73132,-7.802254 c -3.36398,3.243865 -8.06126,2.940538 -8.06126,0.303286 0,-2.382968 3.7362,-6.304589 6.30596,-5.737735 1.04849,0.231104 1.13439,1.443892 1.30652,2.329112 0.20043,1.030086 0.11317,1.920077 0.56822,2.669975 0.97623,1.609211 1.59694,1.579215 3.23819,2.44296 M 55.881076,52.163322 c -0.403581,0.438008 -0.791823,0.972821 -1.420373,1.704312 -0.562082,0.654455 -1.309252,1.306866 -2.329112,1.363449 -1.899626,0.105667 -4.344632,-0.508567 -5.283367,-2.386036 -1.293231,-2.586123 0.941803,-3.83027 3.238193,-3.3517 1.042016,0.21713 2.791321,0.947257 3.749485,1.306526 0.996682,0.373585 1.443211,0.808866 2.045174,1.363449 M 338.11509,49.095561 c 1.72634,4.499802 1.73399,3.034101 5.11293,13.634493 m 2.04517,-12.611906 c 2.44057,-0.449597 7.89437,-2.25719 9.60209,0.681725 0.60275,1.628294 -0.68122,3.823383 -2.53256,3.749485 2.58737,0.302625 5.81061,1.997707 7.1342,3.749486 1.11462,1.486501 1.46912,3.909009 -0.56924,4.942504 -3.77884,1.744493 -7.65921,-0.911796 -10.56673,-1.193018 M 180.29583,49.436423 c -0.53209,1.123483 -0.89954,2.432735 -1.87474,4.090348 -0.68821,1.16984 -4.06649,1.893831 -5.62423,2.045174 -2.54908,0.268565 -4.28429,-2.696037 -3.74949,-5.112935 m 120.67165,5.390724 c 0,-1.528767 -0.68197,-3.702773 0.3914,-5.049861 1.5891,-1.994045 7.13732,-0.245762 7.95334,1.363449 0.72672,1.433326 -0.62343,2.625322 -1.87474,3.181268 -1.00043,0.444825 -1.31027,0.55322 -2.38603,0.568218 -0.85386,0.01193 -1.41288,0 -2.38604,0 h -1.70431 c 0,2.813136 0.34086,5.554351 0.34086,8.86242 M 303.00627,50.45901 c 2.32193,0.860498 4.73453,1.263662 7.15811,1.704312 m -33.5434,5.188757 c 0.17588,-2.22924 1.82315,-6.820056 3.57911,-8.282013 0.95329,2.529053 1.85385,5.131724 2.35444,7.865333 -0.58322,0.184065 -1.97053,0.854541 -3.74949,0.681724 -0.64184,-0.06238 -1.24585,-0.611507 -2.04517,-0.397786 -0.74068,1.206175 -2.58455,4.310494 -4.09035,6.192446 m -71.2466,-13.868336 0.6881,5.687636 M 303.0566,50.37044 c 0.69447,2.347089 1.50871,6.205522 1.99484,9.291853 M 162.91185,52.163322 c 0,0 0.11084,1.194428 0.58689,1.988475 0.47605,0.794047 2.48087,2.442735 2.48087,2.442735 m 12.61191,-2.045174 c 0.16347,7.215084 4.11481,23.170921 -1.02259,25.166889 -8.26133,0.527694 -16.09288,-4.542581 -22.15605,-10.509808 m 94.75973,-13.975356 2.04517,3.408623 m 117.25663,-3.067761 c 1.31914,2.504998 2.34854,9.753094 4.77208,13.293631 M 282.55453,56.935395 c 0.14686,0.934746 0.61227,2.847257 0.68172,3.749485 m -16.36139,0 c -1.546,5.427718 -3.33741,10.791671 -4.43121,16.361392 M 14.636733,88.635592 C 13.380775,84.860191 13.452382,80.109873 13.191438,77.23693 12.499569,73.899256 11.1348,67.586267 13.046031,64.775228 c 1.781789,-2.42319 5.518015,-0.334386 7.044499,1.022587 1.113666,0.989865 1.811854,1.066899 2.499646,2.726899 1.930747,3.818643 2.303853,6.504814 4.488032,11.248457 0.895173,2.014156 0.170431,5.441526 0.170431,7.839834 M 22.672993,68.807816 c -0.329818,1.790209 1.183365,5.708614 -8.914338,8.338682 m 64.960198,-2.486262 3.067761,1.704312 M 103.6018,76.023685 c -0.91483,4.918492 -3.696552,8.84424 -4.904815,11.317904 0.605897,2.200639 6.082095,5.668454 8.654305,7.429525 M 27.248639,79.432309 c 0.962513,-1.054198 2.13644,-3.097568 3.408623,-2.783823 2.685246,0.783302 4.341223,7.839152 5.112935,10.282794 M 90.92045,77.462956 c 1.780664,3.222172 5.514014,7.865187 7.839833,10.22587 -0.501927,0.926075 -1.271212,1.779001 -2.316589,3.332802 m -48.17134,-7.683861 c 0.326887,-1.774188 2.095956,-4.311085 4.200099,-5.041552 0.512316,-0.177931 1.124164,-0.219175 1.704312,-0.227356 1.256759,-0.01738 3.979567,-0.121006 3.692561,1.704312 -0.342907,2.183223 -4.817407,2.333544 -6.078598,2.386036 -2.837166,0.114065 -3.812549,1.065375 -3.667821,2.457728 0.162673,1.564983 -1.278781,3.502798 -3.490288,4.643457 -3.845268,1.922805 -7.105275,-5.632409 -6.078598,-8.805496 0.381084,-1.178021 1.516156,-1.325614 2.669975,-0.90908 1.718969,0.62071 5.63408,0.515803 6.880775,4.484378 m 20.729074,5.627985 c -0.209971,-0.569922 -1.70772,-3.568829 -1.590805,-4.772073 0.172818,-1.777597 -0.203835,-1.574784 0.681725,-4.090348 0.675248,-1.917351 2.937893,-1.473207 4.317703,-0.454369 2.65659,2.788023 5.459718,5.971651 6.817247,9.31679 M 64.743497,80.454896 c 0.822842,1.839293 1.367218,2.442806 2.386036,4.090348 m 62.036947,11.589319 c 1.0486,-2.123946 2.07806,-4.235345 3.40862,-6.192446 l 5.4538,-0.283938 2.7269,-0.340863 c -0.59353,-4.726629 -1.67337,-13.668786 -4.26078,-8.521558 -1.89806,4.324133 -3.10049,6.575575 -3.91992,8.521558 m 55.90142,0.340863 c 0.46221,-0.474822 0.83171,-0.968731 1.47696,-1.647388 2.07108,-2.17811 4.16023,-4.614594 4.65857,-6.192446 -2.64305,-1.112916 -9.35599,-0.183725 -9.7715,4.090348 0.54228,1.825208 2.32739,2.722194 3.63597,4.090348 -1.47966,1.955005 -3.63691,5.959292 -2.32911,7.839834 1.76056,2.253445 5.18759,1.169839 7.10119,-0.340863 2.2606,2.321955 3.4802,4.772078 7.15811,4.772078 3.97922,0 8.66233,-2.323323 7.72632,-6.817252 -0.66229,-3.177859 -2.79792,-5.647407 -5.11919,-7.839833 -1.02702,-0.970095 -3.88946,-0.945552 -3.97058,-2.386037 -0.10226,-1.813728 1.0069,-4.202151 3.06776,-4.43121 1.99265,-0.162555 3.44111,0.05026 5.45379,0.340862 m -62.71866,0.340863 c 2.6986,0 7.81256,-0.474822 10.22587,-0.340863 0.75841,0.04227 1.48956,0.04022 1.5908,1.022587 0.10737,1.04338 -1.53558,2.639638 -2.27253,3.408624 -1.80487,1.883605 -8.19978,7.162881 -6.64681,10.22587 0.82216,1.621482 2.14572,1.684541 3.57905,1.704311 4.10068,-0.179147 8.5035,-1.365572 11.93018,-1.022587 M 84.513512,83.863519 c 1.736694,2.199585 2.202994,5.151452 4.431211,6.476384 m -40.6666,-6.886543 c 0.37136,2.932315 2.19415,4.931357 3.171743,5.863956 3.050036,2.90926 7.322405,1.110871 10.22587,-0.340862 M 239.26501,87.272142 c 0.0969,1.978948 0.34443,3.890202 0.85216,5.79466 0.5806,2.591233 1.60658,5.029275 2.55647,7.498968 m -18.06571,-5.453794 c 0,1.486842 0.46562,1.978706 -0.56822,3.408623 -1.14188,1.579211 -3.59507,2.754171 -5.5673,2.726901 -2.03403,-0.26963 -3.39256,-1.620429 -4.3177,-3.067763 -1.1901,-2.63304 -0.76039,-5.10525 -0.11351,-7.498971 0.33268,-1.041676 0.47959,-2.056082 1.70431,-2.556468 0.68036,-0.277803 1.40367,0.09578 2.04517,0.568218 2.04279,1.503543 5.0751,4.629933 6.81725,6.41946 m 33.40451,-6.135522 c 0.86339,1.520458 1.65038,3.074207 2.38604,4.658566 1.36435,2.97618 2.12036,6.190543 3.06776,9.31679 M 140.74942,89.033153 c 0,1.79055 0.48358,4.170676 0.006,6.760548 m 47.72072,-5.79466 c 1.8098,1.155342 2.92783,2.1785 3.69257,4.090348 l 1.07951,3.408623 m 70.89936,-5.112935 c -5.32536,0.962435 -12.25852,5.108017 -16.19058,2.386037 -0.75808,-1.347429 0.5113,-4.46666 0.5113,-5.453798 m -8.52194,3.749486 c -3.39913,1.442742 -11.44269,2.521179 -13.58384,1.013026 -1.01099,-0.507009 0.83941,-4.159628 1.65366,-6.125961 m -108.39423,7.498971 c -0.35795,4.339483 -2.49651,8.272102 -4.09035,12.271042 m -12.6119,-4.77207 c 1.71931,2.72247 0.95154,8.60031 2.31022,10.11885 m 6.5522,-4.32419 c -1.54888,-0.5706 -1.93147,-0.50067 -3.14358,0.0883 -1.35396,0.84766 -2.03978,1.71194 -2.9223,2.80898 0.69495,0.85419 1.13671,1.01099 2.65764,1.30651 2.06664,0.40188 6.81895,-0.61253 8.01026,1.30687 0.90942,1.46503 -0.68241,3.68165 -1.87474,4.48779 -1.61024,1.08872 -2.76065,1.47014 -4.43121,1.81816 -1.24994,0.26042 -2.04961,0.0481 -3.06776,-0.56821 m -22.497298,-6.81723 c -0.207585,-1.12655 -0.551856,-3.59712 -0.113507,-5.4538 0.178612,-0.75705 0.307117,-1.4623 0.852156,-2.04517 0.841248,-0.90022 3.212287,-0.97146 4.374286,-0.56822 1.499113,0.5205 2.001203,2.0012 1.533881,3.29512 -1.489146,2.68394 -4.220695,5.08903 -6.444848,5.11293 0.723417,3.15903 1.215348,6.31464 1.502344,9.54415 M 30.998125,105.67871 c 0.610263,2.4943 1.840823,5.51202 3.408623,6.93075 2.144814,-0.33622 3.319489,-3.69757 3.749487,-4.75328 0.112689,1.1651 1.441848,1.97628 1.98825,2.5946 1.133026,1.2813 4.976931,4.92478 5.908508,2.04518 0.441757,-1.36516 -0.538563,-2.97403 -1.420374,-4.43122 m -32.04106,-1.70431 c 0.641796,2.00372 1.377547,5.97567 3.067761,6.53331 1.558989,-0.18609 2.207107,-1.89518 3.067761,-3.12468 1.535607,1.53275 3.180685,4.56192 5.112935,4.26078 2.389002,-0.4646 1.479206,-3.13526 1.363449,-4.60165 m 25.564676,-3.06776 c 0.716834,2.27015 1.269372,5.72513 3.408624,6.64682 2.263142,-0.13308 4.075884,-4.61501 4.090348,-4.5733 0.67265,2.12619 1.796685,5.40057 4.43121,5.76632 3.605983,0.50072 6.669994,-5.27723 3.408623,-7.83984 m -47.039003,1.36345 -0.340862,1.70431 m 82.147819,-1.02258 c 0.181,2.29127 0.14146,3.34215 -0.73864,5.45379 -0.447216,1.07372 -1.666139,2.20641 -3.010841,1.53388 -2.18561,-1.0928 -1.832476,-3.62507 -2.726899,-5.62422 m 25.90554,1.02258 c 4.02453,0.16783 6.98108,1.80876 9.68623,2.69534 -1.87378,2.36235 -3.05101,2.24272 -6.27761,4.34925 -1.69599,0.92706 -2.87481,1.94037 -3.12468,3.52213 0.25155,0.84738 1.22301,0.99395 2.10209,1.07951 4.42604,0.24533 8.15089,-1.62197 11.93019,-2.44296 m -58.287464,-6.13553 -0.681724,2.04518 m 103.622148,5.4538 c -0.11521,-0.62549 -0.94521,-2.81894 -0.73865,-3.74949 0.21747,-0.97759 1.22949,-3.44271 2.78383,-3.01084 2.26017,1.30892 4.02026,4.10685 5.79465,5.51038 0.66503,0.56754 1.09145,1.66478 1.36345,2.27253 m -33.74537,-7.49897 c -0.84181,2.6003 -1.64336,3.95002 -1.36345,7.15811 0.46733,4.2042 6.16279,2.27492 8.1807,0.68173 m 4.43121,-7.72633 c 1.4064,-0.51709 4.42337,0.009 5.4538,0.68172 1.05224,0.68684 2.38603,2.19822 2.38603,3.63598 0,1.68216 -1.99881,3.07015 -3.40862,3.57906 -2.27526,0.82147 -4.61084,-1.12042 -5.16986,-3.2382 -0.37052,-1.40469 -1.08633,-3.9874 0.73865,-4.65856 m 10.90759,-0.11351 1.36345,2.7269 m 9.20329,2.7269 c 1.4021,-1.54455 1.21631,-4.67637 3.06776,-5.34029 5.72779,0.48377 8.27977,8.04599 10.90759,11.81667 m -58.28746,-6.13552 -1.02258,1.70431 m 163.95478,78.7392 c 3.49493,-8.90168 6.62037,-17.47225 8.69199,-25.90554 3.73555,-8.80331 7.09172,-18.25432 9.71458,-27.95071 m -19.77002,5.79466 c 2.69952,7.885 5.71195,17.23761 9.88501,22.15605 m 248.14777,-16.36139 c 0.64156,3.02959 -0.14889,6.65891 1.08053,9.3766 2.2681,0.50414 4.34583,0.25062 7.10016,0.50841 1.92039,0.44679 1.11309,-0.7568 2.89733,-2.04515 0.60333,-0.99532 3.73926,-1.9528 4.83002,-0.34087 1.47934,2.18902 -1.21006,2.32741 -2.61441,2.38604 -1.33959,0.0559 -2.99525,0.26246 -3.65993,0 m -47.46942,-8.1807 c 6.0754,-1.69141 14.18932,-1.78191 19.77001,1.02257 m -12.95277,-1.70431 c 2.96934,3.60623 0.35775,22.09247 0.74818,22.52291 1.73935,-0.034 4.35943,-0.25682 6.40993,-0.70772 M 429.46618,160.55752 c -2.76716,1.95081 -5.36486,4.0647 -7.49897,6.24921 4.0213,1.79984 9.35527,1.5871 11.93018,3.69275 0.81467,0.69399 1.28165,1.66818 1.47594,2.66997 0.78057,4.00888 -4.70049,12.22366 -8.97491,10.05544 -1.99063,-1.00861 -1.83384,-3.38101 -0.68172,-5.28337 m 66.46815,-17.384 c 1.01045,5.63763 2.2704,11.27505 4.77208,19.77002 m 147.93425,-18.74743 0.68172,3.40862 m -304.39005,-3.06776 c 1.06554,8.6672 1.08526,17.64154 4.09034,25.90554 m 7.83983,-25.90554 c 0.72003,5.76894 -1.01146,22.14253 1.70426,23.86037 m 108.05336,-22.15605 1.70431,2.04517 m 164.97737,-1.36345 c 0.33664,2.80441 0.12578,6.47703 0.34087,8.86242 -0.13039,2.73512 0.32768,5.36402 0.34086,8.1807 M 559.6756,168.73824 c 1.20635,-0.46122 3.40098,-0.5339 4.11634,-0.38997 0.73591,4.14356 1.01866,9.83131 2.7009,12.66101 m -21.47432,2.04518 c -1.6923,-4.48854 -0.62322,-12.30728 3.06776,-14.37314 0.94759,-0.48744 2.37922,-0.93022 3.74948,-0.5113 2.13039,0.65105 4.26078,2.12017 5.39585,3.97684 1.36686,2.23436 2.41331,4.25158 3.46657,6.47639 m 11.54021,-9.8879 c 0,3.64587 -0.25085,16.73991 7.88895,12.33086 0.80443,-0.43494 1.11802,-0.81671 1.70431,-1.42038 0.77035,-0.79182 2.88385,-3.73181 3.11262,-5.46245 2.31664,-3.71828 5.81116,-6.62815 10.18101,-6.46773 0.74308,0.0412 1.05326,0.2686 1.70431,0.34087 1.46571,0.16293 2.03154,0.37733 3.06776,0.85215 0.81807,0.37563 3.47579,0.26885 4.51641,0.99948 0.7525,0.23908 -0.19768,3.26505 0.19772,5.30647 0.0852,0.43665 0.36132,1.20086 0.28632,1.70432 -1.39236,2.08917 -2.67855,5.14842 -5.00045,6.02201 -3.22115,1.11837 -5.87306,-2.68463 -5.00045,-5.68115 1.1862,-4.06342 3.07799,-5.40574 5.34131,-8.1807 m -206.90343,0.68173 c 3.55814,4.19044 1.7507,15.22076 -3.74949,14.20271 -3.30385,-0.72177 -3.81736,-4.36069 -5.79466,-6.13552 -1.16234,-0.23963 -1.39072,1.4415 -2.15766,2.49954 -1.86111,2.56601 -4.92546,2.15595 -6.59227,-0.34086 -1.17939,-1.76908 -0.79421,-3.12026 -0.79421,-5.11294 m 243.3757,-4.43121 c -1.79148,3.6552 -7.64523,6.24741 -7.15811,10.22587 2.04401,3.63981 7.01189,0.63568 9.88501,0 m -289.39211,4.09035 c -1.62523,1.11223 -2.88744,2.0162 -4.77207,3.01084 -3.10867,1.64091 -10.05851,2.17504 -9.82809,-3.3517 0.12885,-3.09333 2.29605,-5.78853 4.09035,-8.1807 0.8041,-1.07201 3.76892,-4.89785 4.71515,-5.22644 1.07815,-0.37427 1.1954,-0.3879 2.38604,0.11351 -0.94044,2.10209 -1.8335,3.94991 -4.43121,5.45379 m 118.62008,-5.5673 c 0.89987,-0.33745 1.81339,0.38824 2.7269,1.02259 1.51807,1.06554 2.64597,2.51165 2.7269,4.20385 0.0886,2.10312 -1.39072,5.1535 -3.40863,6.02202 -4.48704,0.48852 -4.13081,-5.08373 -3.46657,-7.72633 0.1568,-1.01611 0.0886,-3.02209 1.4214,-3.52213 m 227.64405,4.88558 c 0.29655,-1.60546 2.70731,-5.05976 6.52837,-5.11294 0.82489,-0.0116 2.42012,-0.26314 2.83939,1.02259 0.52833,1.60376 -3.88924,3.62644 -5.22542,4.09035 -1.38824,0.48492 -2.8117,0.3322 -4.09035,0 -0.62709,6.18267 6.75013,6.82976 10.56673,6.81725 M 363.67975,171.29471 c 1.77931,-0.86375 4.07331,2.39456 4.65959,3.23819 1.12485,1.62285 1.90201,2.74496 1.8168,4.77207 -0.092,2.22992 -1.63955,4.25431 -3.40863,4.94251 -3.42907,1.33345 -6.4048,-3.32682 -6.81724,-6.30596 -0.27269,-1.96916 -0.12953,-3.29614 1.02259,-4.43121 0.0989,-0.0975 2.35876,-2.03631 2.72689,-2.2156 m 95.44146,10.73716 c -2.41331,0 -6.10144,-0.69331 -7.04563,-3.40862 -1.10439,-3.18809 2.21902,-7.49897 5.00045,-7.49897 m 21.47433,0.1135 c 0.97146,-0.20213 1.66,-0.20826 2.38604,-0.0566 0.54879,0.11419 0.88624,0.14589 1.3055,0.68173 0.62719,0.79966 0.69536,1.59455 0.73967,2.66997 0.0239,0.53856 0.1977,1.18688 -0.11248,1.70431 -0.34087,0.56379 -0.71581,0.61389 -1.25097,1.07951 -1.39072,1.20904 -2.69281,2.47671 -4.43121,2.66998 -2.10312,0.23383 -5.63786,-1.76874 -4.26078,-4.77208 1.01577,-2.21321 3.34045,-3.50065 5.62423,-3.97684 m 185.76997,-0.1135 c -1.88156,3.2491 -5.88669,8.56587 -9.20328,11.19153 -3.05725,1.87364 -3.91996,-9.86905 -4.09035,-10.85067 m -25.90554,0 4.6002,1.50644 10.05688,0.8796 m 3.74949,-2.38604 c 0.0614,2.29775 1.70431,7.94107 1.70431,10.56673 m -179.97531,-9.20328 c 0.49766,2.35774 1.97018,5.90305 3.40862,8.18069 m 116.23117,-7.99004 c 1.3055,1.65182 1.36634,2.56079 1.36634,5.60401 m -202.81309,-3.74949 0.34086,2.7269 m 99.19094,-1.36345 3.06776,5.11294 m 118.96096,-4.43121 2.04517,1.70431 m -82.48868,3.40862 c 3.31019,1.12376 4.59024,0.78402 7.98138,0.38997 M 303.00627,217.8224 c -0.63262,-2.94025 -1.85975,-5.83096 -2.04518,-8.86242 0.36984,-2.42081 5.25883,-2.01484 7.15811,-1.24995 1.93065,0.77785 5.95691,2.91813 6.41946,4.99943 0.25974,1.1678 0.29758,1.65761 0.73865,2.38604 2.60816,-2.18876 5.14879,-1.77625 7.49897,-0.6248 2.30935,1.1545 5.24315,3.41578 6.53331,5.73773 0.7032,1.26597 0.96703,2.31548 0.17043,3.74949 -2.21002,3.59668 -6.65545,6.63231 -10.45322,4.829 -1.63103,-0.81569 -2.38297,-1.82362 -3.29512,-3.46555 -1.66204,-2.99209 -1.00588,-6.61614 -0.45437,-8.52156 l -0.6355,-0.0462 c -1.25834,2.3046 -8.03653,2.61623 -11.63554,1.26524 -0.19795,4.41528 0.34086,7.71626 0.34086,12.07461 m 126.45992,-6.13552 c 1.32936,0.9084 2.24628,1.77146 3.74948,2.27253 1.88156,0.62718 4.98682,0.51743 6.81725,-0.39779 0.66127,-0.33098 1.12825,-0.46937 1.53388,-1.19302 2.04176,-3.65438 -5.75717,-8.49292 -8.69199,-9.43064 -0.74649,-0.23826 -1.11121,0.0245 -1.64637,-0.51129 -0.61696,-0.61491 -0.42607,-1.34027 -0.3988,-1.98825 0.0579,-1.41969 1.24755,-3.57258 3.06776,-3.74948 1.13507,-0.1101 2.63486,0.35142 3.40862,0.34086 1.44185,-0.0201 1.19984,-0.2202 2.7269,-0.34086 m -94.07801,1.19301 c 1.92588,-1.01986 8.34772,0.38245 10.22587,0.85216 0.89306,0.22326 1.59183,0.43835 1.59183,1.36345 0,0.9977 -1.07712,1.3297 -1.93269,1.5908 -3.52637,1.09608 -4.76056,0.15852 0,3.12435 4.36178,2.21341 6.87546,6.53955 3.06776,8.91934 -1.94973,1.13678 -6.54114,2.11301 -8.52155,1.19302 -2.33796,-1.47251 -2.52914,-4.283 -3.18025,-6.30595 -0.66524,-2.73893 -2.84956,-9.62719 -1.25097,-10.73717 m 76.01231,0.85216 c 2.48147,4.10091 1.01236,10.01488 3.40862,13.97536 m 27.95071,-10.9076 c 0.52031,4.97512 2.22944,9.40559 4.09035,13.97536 m -142.48045,-12.95277 -0.68172,1.36345 m 77.7166,-1.36345 c -1.34004,1.95396 -2.33761,4.59339 -2.7269,6.47638 2.68264,2.69778 4.90977,4.45427 8.52156,8.86242 m -16.36139,-14.3162 c 2.92503,1.39485 5.98608,3.7316 7.49897,5.11294 m -20.73466,-2.89733 c 1.02941,-0.65105 2.44058,0.20281 3.69154,0.56822 2.54965,0.74342 8.52838,3.42055 4.43121,6.30595 -2.3349,1.64432 -8.31704,2.74906 -9.31577,-1.24994 0.0132,-1.68809 -0.0364,-4.77033 1.19302,-5.62423 m 21.07552,3.57905 c -0.28651,1.2377 -1.04368,2.50709 -1.70431,5.4538 m 70.21764,15.33881 c 2.69823,7.81789 4.02734,13.92257 5.05495,22.43999 -1.00555,1.00827 -2.41331,-0.27985 -3.35068,-0.85216 -3.35408,-2.04926 -10.53702,-12.13837 -13.34693,-15.50715 2.00368,7.74359 3.55943,14.5564 4.82537,22.89262 m 18.40661,-27.95072 c 0.0784,2.96789 2.12657,7.46316 3.71499,10.23164 0.63101,3.36196 5.74256,-7.14585 6.17002,-9.54991 m -171.45375,0 c 0.0867,4.75528 2.36304,14.16459 1.24995,19.37223 -0.79524,0.82932 -1.78612,0.029 -2.6134,-0.5113 -5.60651,-3.8698 -8.43204,-11.20984 -10.84116,-17.57543 -0.13,3.2423 1.57684,13.71824 2.66043,17.46193 m 102.94045,-18.06571 c 0.72065,2.13205 1.33047,4.28242 1.8168,6.47639 0.27212,4.20616 0.59874,8.40852 0.9101,12.6119 m 153.04719,-18.0657 c 1.5032,0 3.6779,0.22292 5.4538,0.56822 2.39626,0.46596 6.49683,0.85011 7.32854,3.18127 0.36813,1.03179 -0.73286,1.36788 -1.19302,1.64738 -1.70772,1.0335 -3.88242,1.71318 -3.00982,3.12469 1.32596,2.14948 8.56247,2.31377 9.14534,6.13552 -0.74986,6.49375 -11.34671,8.48529 -15.67967,8.86242 m -155.77408,-18.0657 c 5.84443,0.1642 11.67746,-1.52553 17.38398,-2.7269 m 88.96507,0 c 0.24537,3.32352 -0.059,6.58789 -0.39885,9.88501 3.2877,1.86923 7.07286,-0.39873 9.94295,-1.42038 -0.31593,-2.42902 -0.86785,-4.06079 -2.08563,-6.12482 m -17.68438,-1.99895 c 1.18638,6.90313 1.63987,14.43801 3.06776,20.45174 m 45.77953,-19.6718 c 1.92071,2.86028 3.55557,13.55706 4.66809,20.01266 m -27.26899,-6.13552 c 4.74704,0.71623 8.27558,3.09879 12.95277,3.06776 4.47893,-0.062 2.09631,-5.93032 0.28292,-8.18069 -1.90149,-2.50105 -4.41251,-3.37459 -7.10016,-3.80641 -1.74181,-0.29008 -3.32341,-0.84125 -4.09035,-1.30653 0.67831,-1.51922 -0.35027,-4.13947 5.96794,-3.06776 m -219.34775,5.11294 c 0.3954,-2.1471 0.21542,-3.2232 2.7269,-4.37429 1.47286,-0.67525 4.56551,-0.11044 4.03342,1.98825 -0.64798,2.55681 -4.68004,2.38604 -6.76032,2.38604 m 69.87677,7.83983 c -0.65446,-1.31198 -1.78271,-3.07424 -1.98723,-4.43121 -0.14316,-0.93771 0.007,-1.8243 0.68172,-2.7269 2.01109,-2.69418 10.6315,-4.0307 12.89483,-4.09035 m -44.65297,0.68173 c 1.70772,1.70874 5.80489,5.55878 4.65959,8.86242 -0.72604,2.08812 -3.53134,2.89971 -5.68218,2.27253 -3.86898,-0.50836 -5.44127,-3.96466 -7.83982,-5.68116 -1.62989,1.84667 -3.34952,6.04685 -5.79466,5.68116 -1.54479,-0.30064 -3.19695,-1.36413 -4.14727,-2.61339 -1.42617,-1.87543 -2.26526,-4.0474 -2.42156,-6.93854 1.33087,6.23703 -7.80977,12.47482 -12.86032,9.94937 -3.45907,-1.72953 -3.29444,-5.5915 -3.06776,-8.46463 m 53.85623,-2.95426 c 1.08736,-0.12066 1.70091,0.61083 2.27356,1.24995 0.38858,0.43835 2.16447,2.79677 2.2156,3.40862 0.0716,0.89135 -0.32723,1.27244 -0.68172,2.04517 -0.84534,1.84032 -3.61314,5.42278 -5.85261,5.4538 -4.23351,0.059 -4.26078,-4.70969 -2.78485,-7.83983 0.85557,-1.81237 2.65532,-4.07603 4.83002,-4.31771 m 40.22176,0.90908 c 4.90769,3.32499 9.96513,6.41471 14.99794,9.54415 m -81.46609,-9.20328 0.68173,4.09034 m 132.59544,-4.09034 c -0.0135,3.38729 0.33656,7.87528 0.34086,11.93018 m 47.039,-9.88501 c -1.61228,0 -2.36858,0.67518 -2.99843,0.97347 0.8206,2.24326 1.69975,7.67862 2.99843,10.27497 M 372.883,258.04417 c 1.49638,0.4329 3.98127,2.51727 6.47638,2.38604 m 55.56056,4.09035 c -0.067,5.83638 -3.57423,13.42944 -6.47638,18.0657"
       id="path9059"
       sodipodi:nodetypes="cccscccccccccccccccccczzscccccccccccccccccccccccccccccccccccccscczcccccccccccccccsccccccsccccccccccccccccccccccccccccccccssccccccccccccccsccccccccccccccccccsccccccccccccccccccccscccsccccccccccccccccccccsccccccsscccccccsccccccczcccccccccccccccccccccccccccccccccccccsccccccccccccccccccccccccscccccccccccccccccccccccccccccccccccccccccccccccccccssccccccccccccccccccccccccccccccccccccccccccccccccsccccccccccccccccccccsccccccccccccccccccccccccccccccccccccccccccccccccccccccccccsccccccccccsccccccccssccccccccccscccccccccccccccccccccccccccccccccccccsccccccccccscccccccccccccccccccscccccccccccccccccccccssccccccccccccccccccccccccccccccccccccccccccccccccccccccccc" />
  </g>
</svg>
