<?xml version="1.0" encoding="UTF-8" standalone="no"?>
<!-- Created with Inkscape (http://www.inkscape.org/) -->

<svg
   width="3000"
   height="1998.207"
   viewBox="0 0 793.74998 528.69227"
   version="1.1"
   id="svg5"
   xml:space="preserve"
   inkscape:version="1.2.1 (9c6d41e410, 2022-07-14)"
   sodipodi:docname="ZachW - Stake - Envelope16.svg"
   xmlns:inkscape="http://www.inkscape.org/namespaces/inkscape"
   xmlns:sodipodi="http://sodipodi.sourceforge.net/DTD/sodipodi-0.dtd"
   xmlns="http://www.w3.org/2000/svg"
   xmlns:svg="http://www.w3.org/2000/svg"><sodipodi:namedview
     id="namedview7"
     pagecolor="#ffffff"
     bordercolor="#000000"
     borderopacity="0.25"
     inkscape:showpageshadow="2"
     inkscape:pageopacity="0.0"
     inkscape:pagecheckerboard="0"
     inkscape:deskcolor="#d1d1d1"
     inkscape:document-units="px"
     showgrid="false"
     inkscape:zoom="0.64"
     inkscape:cx="382.03125"
     inkscape:cy="285.9375"
     inkscape:window-width="1366"
     inkscape:window-height="705"
     inkscape:window-x="-8"
     inkscape:window-y="-8"
     inkscape:window-maximized="1"
     inkscape:current-layer="layer1" /><defs
     id="defs2" /><g
     inkscape:label="Layer 1"
     inkscape:groupmode="layer"
     id="layer1"><path
       style="fill:none;stroke:#7b6d76;stroke-width:0.143322"
       d="M 1.3813325,5.5065603 C 1.8091181,6.1086095 2.7592679,6.4197481 2.6712261,5.3632379 2.5505205,3.9147584 0.32859237,3.3285008 2.3845812,2.1862746 2.6790629,2.0226758 2.9104719,1.9498958 3.2445117,1.9235218 M 4.1044381,3.0700955 C 5.1480657,2.4384173 6.7530062,2.0668434 7.974119,2.0668434 m 9.602541,0.1433212 c -0.470951,0.3346334 -1.82835,1.7311108 -0.716604,1.9109484 0.278186,0.045002 0.646852,0.1452197 0.859926,-0.047769 -0.271905,0.3190648 -0.428959,1.103117 0.02393,1.5287697 0.458483,0.4310073 1.240589,0.036686 1.695923,-0.2388761 M 26.175944,5.2199154 C 25.615842,5.662091 24.550536,6.3166825 23.882802,5.7693126 23.365268,5.3451225 23.456133,3.666197 23.787203,3.0700955 c 0.404023,-0.7272807 1.878805,-1.2496307 1.385492,0 M 14.996865,2.3534874 C 14.325836,2.9156779 13.873434,3.480631 13.370664,4.026514 M 13.133685,2.4968058 c 0,0 0.235683,1.2998634 0.284082,1.9573841 0.02222,0.3022008 0.0024,0.909048 0.0024,0.909048 m 19.92169,-3.0097505 c 0,0 0.118764,1.3219602 0.118764,1.8938727 0,0.8613036 -0.118764,2.4057714 -0.118764,2.4057714 M 13.128977,2.5065196 11.127058,3.3806287 c 0,0 -0.641603,0.2460102 -0.979198,0.2645724 -0.2983535,0.016413 -0.8858015,-0.1375453 -0.8858015,-0.1375453 0,0 0.3015507,-0.7602287 0.4317873,-1.01085 0.1195356,-0.2300313 0.5255172,0.5732897 0.5255172,0.5732897 l 0.274696,0.5016244 c 0.249374,0.4553913 0.10929,0.8874021 0.48968,1.6481955 M 28.515498,3.764688 c -0.629358,0.1763965 -0.564928,0.1157451 -1.193109,0.1653338 0.01621,-0.614619 0.09316,-0.756678 0.429968,-1.2898936 0,0 0.549202,0.7592294 0.807843,1.149732 0.23227,0.3506885 0.667616,1.0708311 0.667616,1.0708311 m 5.690613,-1.9339182 c 0,0 0.524278,1.1684039 0.644951,1.791518 0.1227,0.633616 0.07166,1.9348404 0.07166,1.9348404 M 5.6637062,2.416353 c 0,0 0.2619845,0.9707557 0.288794,1.4691096 C 5.97907,4.3791933 5.8241649,5.3632379 5.8241649,5.3632379 M 9.2638786,3.5000587 8.690593,4.7899523 M 28.530827,3.7866994 c 0.41474,-0.051705 0.973286,-0.1867481 1.37135,-0.2866407 1.848996,-0.4639961 -0.695954,0.6391372 -0.170197,0.9612612 0.901711,0.5524645 1.700872,1.4752036 0.170197,1.4752036 M 18.231463,3.5840013 17.682736,4.1104566 m -4.304775,-0.061671 c 0.127267,1.2089452 1.477893,0.8527558 2.335386,0.3112036 M 27.322389,3.9300218 26.892426,5.0765931 m 9.889186,-0.8599264 c 0,0 -1.174002,0.3040005 -1.820383,0.4040434 -0.449362,0.069549 -1.466847,0.1047313 -1.466847,0.1047313 m 10.781515,0.5497587 c 0,0 0.311715,0.980831 0.403929,1.4616993 0.07936,0.4138141 0.127787,1.2061257 0.127787,1.2061257 m 12.039006,-3.1530728 1.003253,-0.095554 1.863179,-0.4777319 m -8.312647,0.5732856 0.28664,0.8599304 c 0.340679,-0.3498638 0.58805,-0.8582688 1.003253,-1.074914 0.790272,-0.4122785 1.737201,0.6102354 1.361555,1.3615548 -0.274749,0.5496084 -1.670902,0.8755351 -2.190414,1.3022116 L 51.687044,5.6498827 m 4.299649,-1.1465752 -0.131777,1.2782093 -0.441513,1.5882227 m -4.586285,-1.433216 c -0.267725,0.3768073 -0.758746,1.022327 -1.146575,1.0988025 -0.30255,0.059652 -0.631991,-0.345724 -0.517091,-0.6074404 -0.273165,0.2372998 -1.067041,0.5451558 -1.41775,0.058031 -0.509794,-0.7080927 0.638357,-1.6713974 1.218237,-1.8392867 m 8.885933,0.061675 c 0,0.050015 0.167686,1.8943479 0,2.8047568 M 46.957437,6.2231683 C 46.266196,6.6596967 45.435342,7.445825 44.950935,6.9397763 L 44.725247,6.7040081 c 0.476728,-0.3614911 1.276235,-0.9094298 1.467854,-1.4840927 0.19764,-0.5930057 -0.337095,-0.8839975 -0.812202,-0.549393 -0.274725,0.1934799 -0.558811,0.5653308 -0.852289,0.9725228 -0.665,0.922666 -1.108955,2.3317337 -1.870821,2.2999799 -1.3895,-0.057913 -1.588286,-3.5893453 -0.286641,-3.7263584 m 7.106697,1.6205248 -0.33194,0.6228419 M 2.2411248,9.6628819 c 0,0 0.1547181,0.9200661 0.2005815,1.3328641 0.049682,0.447132 0.21203,1.477861 0.21203,1.477861 m 3.313751,-2.237439 c 1.0292092,0 1.8966718,-0.2483304 2.2463772,0.08224 0.3664273,0.346382 0.1900877,1.295468 0.1900877,2.354224 m 1.8631788,-1.863179 c 0.390938,-0.267481 1.561747,-1.049961 1.576535,0 0.01483,1.052367 -2.472253,2.177166 -0.286641,2.579787 m 14.18883,-0.143326 C 25.722905,12.376839 25.550457,12.05131 25.42226,11.608423 25.198294,10.83469 25.38358,9.3300204 24.90328,9.8687612 c -0.653486,0.7330208 -0.702689,1.2502668 -0.86015,2.0738358 0.647815,-0.05115 2.082608,-0.642757 2.680359,-0.97429 0.168937,0.942854 0.171375,3.127905 1.602153,1.84764 M 5.0128726,10.881326 c 0.6230897,0.4129 0.9204437,1.610039 0.2380067,2.00629 -1.1947422,0.693719 -1.6375799,-2.225666 -0.8302406,-2.556646 0.240229,-0.07066 0.4135582,0.431954 0.5922339,0.550356 z m 16.4333344,-0.358514 -0.429963,3.296396 c -1.220813,-0.353391 -1.16463,-1.858524 -2.006502,-2.72311 m 19.635049,-0.143322 1.433212,0.02389 1.576537,-0.453856 m -27.23283,1.868859 c -1.562319,-1.146429 -0.494864,-2.4610763 0.407773,-1.558325 1.087094,1.087081 -1.651348,1.828053 -1.194295,2.699217 0.267006,0.509095 1.393369,0.397888 1.48094,-0.143319 0.06736,-0.416552 -0.45089,-0.761541 -0.692675,-1.003252 m 31.520233,0.06298 c 0.32405,-0.255813 2.152571,-1.097872 1.276459,-1.711179 -0.559197,-0.391453 -1.28421,-0.08307 -1.471946,0.58681 m 0.01048,-0.461875 c -0.10972,0.391506 0.195487,1.354542 0.195487,1.948182 v 0.435001 m -14.905436,8e-6 c 0.243792,-0.402678 0.348702,-0.736933 0.573289,-1.098802 0.423085,-0.68167 0.449058,-2.5325594 0.815392,-1.69395 0,0 0.399782,0.904693 0.593887,1.359536 0.08126,0.190413 0.238917,0.573286 0.238917,0.573286 l 0.501624,0.85993 m 1.146572,-0.286645 c 0.167686,-0.910149 0.587679,-3.1626078 0.85993,-2.342808 0.32676,0.983939 1.591379,3.002299 1.705012,2.021342 L 37.7009,10.759782 m -8.80199,0.336311 0.573285,2.149824 m 25.224586,-2.149824 c -1.131999,1.276186 -0.620929,2.023077 0.28664,1.863179 l 0.716608,-0.573285 M 40.092832,11.001893 39.934669,13.38924 m 2.723104,0.143319 c 0,-0.552761 -0.170859,-1.673254 0.04197,-2.081275 M 42.595825,11.8818 c 0.167256,-0.320711 0.760643,-0.594087 1.208523,-0.451293 1.130804,0.360553 0.458418,2.059402 -1.143085,2.042672 m 6.5893,-2.09044 c 0,0.766696 -0.200935,1.776311 0.573286,2.006501 m 1.289894,-2.006501 c 0,0 0.612827,1.077993 1.098847,1.433212 0.170782,0.124821 0.497598,0.401667 0.597076,0.214983 0.306321,-0.574849 0.597223,-1.648195 0.597223,-1.648195 m -19.77837,0.286641 -0.573282,0.07166 c -0.587013,0.07338 -0.932826,0.142408 -1.443482,0.397705 m -8.302385,-0.03941 0.716608,-0.143323 v 1.146571 m 24.078014,-0.716608 c -0.787981,0.497712 -1.444969,0.644188 -2.149824,0.143323 m 9.029255,0.429963 c 0.01718,0.651971 0.568415,1.224026 1.433216,0.85993 m -33.823873,2.293143 c 0,0 -0.155766,0.420875 -0.197031,0.64036 -0.07551,0.401663 -0.08961,1.222819 -0.08961,1.222819 -0.64552,-0.18689 -1.313059,-2.294666 -1.380938,-1.629649 l -0.195592,1.916294 M 4.2476102,18.835448 C 2.00519,19.77965 2.0484289,15.714336 3.6743246,16.398983 M 5.8241487,16.25566 c 0,0 0.2902443,0.991455 0.3618893,1.445197 0.071677,0.453961 0.068074,1.277913 0.068074,1.277913 m 12.755614,-2.72311 c 0,0 -0.149413,0.455591 -0.187378,0.683384 -0.05758,0.345492 -0.09926,1.036473 -0.09926,1.036473 -0.649822,-0.386391 -1.024411,-1.92953 -1.17282,-1.256791 l -0.403718,1.830081 m 23.218085,-2.293147 0.214984,1.433216 0.358302,1.433216 M 10.123793,16.398983 9.9804703,18.692125 C 8.8588073,18.36736 9.1901251,17.511013 8.6905767,16.685624 l -0.8599264,1.71986 M 47.244062,16.398983 c 0,0 0.0033,0.712586 0.0597,1.062945 0.07541,0.468148 0.370275,1.37352 0.370275,1.37352 m -0.401415,-1.37317 c 0,0 -0.870778,0.525126 -1.276458,0.296021 -0.410211,-0.231665 -0.328629,-1.215994 -0.328629,-1.215994 m 3.869681,2.723106 c 0.715174,0.30112 1.587142,-0.225299 0.979316,-1.003249 -0.389979,-0.499191 -0.946782,-0.259986 -1.385346,-0.644947 -0.642225,-0.563539 0.512228,-1.1814 0.979316,-1.218232 m -20.652431,0.03835 c 0,0 0.200651,0.685935 0.279986,0.923934 0.11176,0.335287 0.450756,0.900894 0.450756,0.900894 m 5.876183,-1.504877 c 0.372095,-0.01572 0.986632,0.571924 0.875787,1.141972 -0.236898,1.218285 -0.222106,1.411245 -0.866077,1.538268 -1.050148,0.207078 -1.362071,-1.546227 -0.596886,-2.101913 0.26894,-0.195304 0.322071,-0.567135 0.587176,-0.578327 m -22.6448,2.078163 c -1.408263,0.74126 -1.862708,-1.867051 -0.573285,-2.006502 m 25.941191,0 0.429967,2.293146 m 20.494974,-2.293146 c 0,0 -0.0156,0.621599 0.01743,0.869307 0.06252,0.4689 0.269208,1.280517 0.269208,1.280517 m -7.59604,-1.863179 c 2.016106,-0.848896 0.569991,1.128655 0.859931,1.863179 L 54.55346,18.262162 M 14.710082,17.115591 c 0,0 0.351225,0.59305 0.453299,0.919022 0.08066,0.257588 0.119986,0.800835 0.119986,0.800835 m 9.462859,-1.86682 -0.146963,1.006889 m 1.863184,0.429967 -0.537461,-1.385418 c -0.357092,-0.920493 -0.208077,-0.776821 -0.752437,-1.481014 -0.196096,0.645402 -0.251515,0.722304 -0.429967,1.433216 0.451893,0.0119 0.456382,0.216182 0.899192,0.142271 0.387691,-0.06471 0.816082,-0.03778 1.10731,-0.09455 0.82467,-0.160231 1.517634,-0.409199 2.370682,-0.656139 m -1.497032,0.447319 0.416247,1.737635 M 56.70328,17.115591 c 0.86251,0 2.029915,0.25197 0.676656,0.935297 0.916499,-0.03352 0.760432,0.793298 0.183275,1.214519 m -16.911938,-1.576531 0.859929,-0.286644 m -2.579786,0.286644 c 0.576296,0.04543 1.030408,0.0097 1.665608,0.0097 m -8.115076,1.28018 -1.003249,1.433216 M 138.14461,35.691676 c 0,0 0.29726,-0.24525 0.69358,-0.364709 0.44003,-0.132629 0.99731,-0.144395 1.30111,-0.223645 0.52138,-0.136014 1.83,-0.474868 1.83,-0.474868 -0.57335,1.363554 0.16077,1.520803 0.74445,1.134465 -0.31908,0.473592 -0.58942,1.935356 -0.13651,2.396996 0.30528,0.311866 0.8585,0.188609 1.26553,0.167255 m 2.00649,-0.286644 c -0.25081,-0.682498 -1.04051,-2.31966 -0.64494,-3.009751 0.24651,-0.43054 0.93875,-0.195921 1.36155,-0.119389 1.15517,0.208536 2.74317,1.702659 1.69549,2.842499 -0.32964,0.359163 -0.96025,0.492166 -1.40885,0.716608 m -17.3419,-3.009755 c 0.37034,1.00526 0.3702,2.550406 1.43322,2.866432 0.38553,-0.915824 0.15863,-2.155341 0.7166,-3.153072 0.44468,-0.795144 0.78242,1.056827 1.00689,1.870455 0.27387,-0.559663 0.98222,-2.691417 1.14293,-1.727137 l 0.57329,3.439718 m -11.75236,-3.439718 c 1.03564,1.035644 1.1556,2.635397 2.14982,3.58304 0.89418,0.852333 1.95973,-0.655136 2.24794,-1.507116 m 0.20994,-0.136464 0.55187,1.786902 m 8.45597,-3.58304 c 0,0 -0.0743,0.756751 -0.052,1.135131 0.0255,0.433778 0.19531,1.301334 0.19531,1.301334 m 3.39773,-2.702532 0.33589,1.074138 0.30887,0.645219 0.21517,0.573785 m -13.57356,-1.597107 0.37021,0.223657 m 5.21934,0.922914 v 0.286641 m -47.869378,5.016251 c 0.783824,0.639503 3.210112,1.251916 2.221481,-0.573285 -0.778665,-1.437514 -4.213366,-3.585904 -0.788265,-4.251916 0.377221,-0.07324 0.763617,-0.04773 1.146571,-0.04773 m 22.931441,0 c 0.0255,0.968282 0.36719,1.721433 0.91962,2.579787 l 0.65691,1.433216 m 4.29965,-0.573285 c 0.32391,-0.144899 0.88989,-0.164392 0.97932,-0.573286 0.11093,-0.50693 -0.50621,-0.873975 -0.64495,-1.289894 -0.24279,-0.728503 0.53502,-1.427625 1.24217,-1.576538 m -12.03901,0.286645 c 0,0.953371 0.32147,1.379438 0.32147,2.013924 1.08666,0.02864 0.76276,-0.43739 1.97168,-0.43739 -0.0763,0.4142 -0.33566,0.706578 -0.0717,1.146571 0.50721,0.845313 0.85105,-0.987392 0.87051,-1.437745 l 1.06432,1.72439 m 2.43647,-3.00975 -1.27939,1.954434 m -7.46322,1.628602 c 0.50722,0.18689 1.47722,0.26027 0.83599,-0.573286 -0.61083,-0.794144 -2.4882,-2.293142 -0.11939,-2.293142 m -7.989158,2.017113 c 0.407923,-0.141892 2.060811,-0.641802 1.611355,-1.58715 -0.446733,-0.939615 -1.306225,0.727459 -1.556968,1.33204 -0.278377,0.671212 0.259335,2.077719 0.768703,2.203272 0.634482,0.156221 1.562202,-0.809622 2.006498,-1.24217 m 8.88594,-1.863179 0.51106,-0.781119 m -14.699893,2.357658 c -0.16052,-0.381094 -0.208106,-0.689092 -0.02393,-1.146572 0.130566,-0.323907 0.418214,-0.919984 0.883864,-0.835997 1.001245,0.180443 -0.515812,1.801411 -0.859927,1.982569 m 6.189676,-0.95184 c 0.30614,-0.364022 0.6244,-1.254167 1.40636,-1.030729 1.39309,0.398006 -0.38596,2.599138 -0.85993,2.985817 L 99.843025,39.47374 m -11.46572,0.143322 c 0.327202,0.888162 0.890502,3.489038 1.433216,2.723105 0.692963,-0.977978 0.37844,-1.457571 0.415118,-2.187208 0.0024,-0.04872 0.02495,0.204969 0.145886,0.422817 0.160377,0.288652 0.264528,0.484391 0.418312,0.761143 0.199931,0.359882 0.931445,1.68417 1.576538,1.361554 0.61141,-0.305706 -0.245933,-2.873167 -0.262712,-3.511378 m 13.042257,0.716608 0.92215,-0.141031 m -0.0228,0 c 0.0133,0.506642 0.2279,1.006263 0.67721,1.717569 m 8.45597,-0.85993 c -0.7275,0 -1.17547,0.01316 -1.44532,-0.434863 -0.27192,-0.451446 -0.16834,-0.701389 -0.13122,-0.998353 0.0879,-0.70299 0.92777,-1.037448 1.2899,-0.573286 0.34107,0.437179 -0.949,1.090003 -1.42293,1.414394 -0.36988,0.347889 -0.80415,0.381999 -1.4435,0.257739 -0.38697,-0.07524 -0.6222,0.02125 -0.85238,-0.329754 m -17.349458,0.950768 c 0.06621,0.629468 0.561102,1.14872 1.289894,0.573285 m 72.950644,3.583036 c 0.93446,0.196783 2.10683,-0.425519 1.14658,-1.433216 -0.47296,-0.496749 -3.16311,-1.294623 -1.00325,-1.863179 m -67.64776,0.143322 0.42997,1.719857 m 75.67376,-1.003249 c 0.65784,0 2.42213,-0.708438 2.84206,-0.501624 0.58045,0.284634 0.26085,1.573097 0.16769,2.078163 m -5.44622,-1.719861 c 0.44143,-0.266864 0.86073,-0.499313 1.00325,0 0.1349,0.472609 -0.8241,1.262089 -0.50162,1.695923 0.27517,0.369483 1.53354,-0.279332 1.93484,-0.40603 m -4.44297,0.453901 c -1.03478,0.58217 -2.36721,-1.083751 -1.28464,-1.586545 0.24073,-0.105621 0.49618,0.158996 0.84983,0.241549 0.66308,0.154779 1.22598,0.899997 0.43481,1.344996 z m -15.47872,-0.740541 c 0,0 0.7014,1.127403 0.95763,1.691105 0.22151,0.487324 0.47558,1.461967 0.47558,1.461967 m 0.42997,-3.153072 c 0,0 0.37587,0.969171 0.51133,1.443259 0.15119,0.529161 0.34859,1.566491 0.34859,1.566491 m 2.86643,-1.027186 c -1.1953,1.058143 -1.81445,-1.115325 -1.28989,-1.982564 0.79257,0.291946 2.29171,1.096409 1.28989,1.982564 z m -12.039,-1.695924 c -0.34541,0.691241 -1.26028,1.981793 -0.42997,1.86318 l 1.00325,-0.143319 c -0.11465,1.093684 -0.56325,2.181351 1.14657,1.146571 m -5.01625,-2.723109 c 0,0 0.74119,1.08737 0.99301,1.61621 0.22591,0.474409 0.44021,1.39354 0.44021,1.39354 m -4.44297,-0.143318 c 0.68221,0.340816 1.93993,0.758738 1.86318,0 -0.10889,-1.07645 -3.00402,-2.65532 -0.42997,-2.72311 m 19.06177,0.429963 1.14657,-0.143322 m -33.80694,1.077148 c 0.59403,-1.044809 1.84624,-1.256299 1.84624,-0.503862 0,0.67605 -1.0146,0.838426 -1.07491,1.433216 -0.071,0.699979 0.4731,0.716608 0.93159,0.716608 0.77566,0 1.24088,-0.147479 1.86318,-0.573286 m 10.74911,-1.576538 c 0,0 0.84758,-0.370527 1.2899,-0.501625 0.56145,-0.16641 1.71986,-0.358302 1.71986,-0.358302 M 136.82,47.786387 c -0.20768,-0.717323 -0.98219,-2.086187 -0.836,-2.72311 0.10391,-0.452608 0.87756,-0.224295 1.26596,-0.143322 0.64194,0.133722 1.88525,0.548637 2.22148,1.146575 0.59063,1.049827 -1.85459,1.524098 -2.56145,1.468346 m 14.5288,-2.614921 -0.57329,0.573289 m -19.3484,-0.429967 c 0,0 0.80769,0.851399 1.0311,1.380527 0.21389,0.506585 0.25879,1.629244 0.25879,1.629244 m -7.16607,-2.866449 c 0,0 0.2845,1.426245 0.31057,2.149824 0.008,0.223386 0.1124,0.513061 -0.0479,0.66888 -0.13141,0.127767 -0.36955,0.0594 -0.54934,0.02381 -0.46352,-0.09177 -0.87217,-0.33326 -1.28599,-0.596382 -0.36807,-0.234038 -1.05967,-0.895097 -1.05967,-0.895097 -0.3143,0.746562 0.51144,1.755763 -0.0908,2.518665 m -7.3094,-1.289894 c 0.98548,-0.622444 3.33925,-1.304369 4.15632,-0.573286 -0.53989,0.586185 -1.09168,3.053607 0.42997,2.221482 0.81851,-0.447592 0.6008,-2.112988 -0.42997,-2.221482 m -18.34515,4.156322 c -0.36361,-0.575719 -0.7093,-1.356968 -0.90765,-2.006498 -0.0935,-0.305706 -0.12369,-0.53846 -0.0479,-0.85993 0.21083,-0.892464 1.05828,-1.74795 2.10209,-1.385488 1.68933,0.586615 0.93571,2.521984 -1.59473,1.997125 m 9.47742,-2.044853 c -1.12063,1.216798 -0.55652,2.30676 0.56128,0.785153 -0.76912,0.788781 -0.74559,1.957303 -0.27464,2.320196 0.43469,0.334799 3.13,0.268298 3.5591,-0.143323 0.98648,-0.946351 -2.50497,-2.084037 -0.69267,-2.818704 m -7.59604,4.013004 -0.43361,-1.566041 c 0.42309,-0.345119 1.24266,-0.716356 1.41293,-1.300391 0.10118,-0.34698 -0.0807,-0.905936 -0.54936,-0.812203 -0.7232,0.144757 -0.87825,0.518277 -1.36863,0.861052 0.27382,0.571823 0.32191,0.741833 0.49455,1.241044 M 93.823563,48.07305 c -0.238917,1.296771 0.270159,2.833321 0.859926,4.012999 m 22.560821,-4.93675 c 0,0 0.36724,0.812739 0.45638,1.229608 0.12995,0.607656 0.20088,1.843963 0.20088,1.843963 m -31.100761,-1.576535 1.146571,3.296396 m 1.86318,-3.296396 c -0.150059,0.475396 -0.286787,0.94248 -0.38224,1.433212 -0.0526,0.270594 -0.07997,0.590345 -0.02381,0.859931 0.565116,2.713075 3.998065,-1.423795 0.909056,-1.992782 m -9.102318,0.416247 c 0.488441,-0.03855 2.262904,-0.652401 2.412532,0 0.114945,0.500906 -0.55253,1.121651 -1.070108,1.444868 -0.527475,0.3294 2.383939,0.432068 2.383939,1.278238 0,0.776374 -1.102289,0.629614 -1.576539,0.429967 m 24.651308,-3.153073 c -0.63922,0.622302 -1.74198,0.282583 -2.44053,0.282583 M 79.491394,49.506262 c 0,1.597176 0.446446,2.469575 1.146572,3.869681 m 60.911644,0.573285 c -0.16052,0.555658 -0.13787,0.969891 -0.1373,1.587037 8.1e-4,1.008648 0.30498,1.881774 1.28387,2.139326 m -1.2605,-2.13569 c -0.24637,0.324911 -1.08782,0.444637 -1.46261,0.559151 -1.07018,0.32706 -0.67619,-1.169505 -0.42996,-1.719857 m -4.72961,0.573286 c 0.32046,-0.436987 1.45528,-0.729649 1.79152,-0.262708 0.67561,0.938182 -1.04926,1.961354 -0.64495,2.985818 l 2.14982,-1.146576 m 5.73286,-1.743789 c 0.29759,-0.08835 0.39362,0.414533 0.62708,0.50671 0.7722,0.304895 0.81266,1.354421 -0.0538,1.619319 -1.2512,0.382239 -1.61093,-1.818031 -0.57329,-2.126029 m -12.32565,3.46365 c 0.87527,0.368479 1.90417,-0.531582 1.24217,-1.433216 -0.5419,-0.737819 -1.35138,-0.08155 -1.93484,-0.501624 -0.91611,-0.659568 0.75287,-1.464316 1.26596,-1.504877 m -10.60579,0.143322 c -0.72148,0.884294 -1.18284,1.34192 -1.43322,2.293143 0.73495,0.290085 1.53426,1.159758 2.0065,0.429967 m 3.43972,-1.863179 c 0,0 1.04093,0.01812 1.5614,-0.06933 0.47481,-0.07977 1.42442,-0.432295 1.42442,-0.432295 l 0.16725,1.074914 0.28665,2.866428 m -24.50798,-0.143322 c 0.12182,-0.661283 -0.10434,-2.773698 0.59722,-3.081412 0.38109,-0.167113 0.73638,0.422801 0.85993,0.644947 0.12498,0.224872 0.16167,0.374788 0.28664,0.573286 0.22559,0.358306 0.23275,0.390551 0.38209,0.716608 0.14103,0.307567 0.29195,0.536022 0.4539,0.85993 m 8.88594,-2.72311 c 0.48715,1.157037 1.43321,2.195115 1.43321,3.726359 m 0.85993,-3.726359 c 0,0 -1.31942,0.620303 -2.0065,0.859931 -0.51432,0.179374 -1.57654,0.429963 -1.57654,0.429963 m 4.29965,-1.146571 1.13607,1.000031 m -11.59854,2.439686 c 2.29415,-0.422658 -0.25583,-1.399967 -0.11939,-2.293146 0.0794,-0.520114 0.68293,-0.875982 1.11116,-1.008709 -0.76964,0.134137 -2.82056,0.682295 -3.2607,0.844391 m -5.61375,-0.695613 c 0,0 0.30902,2.507017 1.28989,2.72311 0.36439,0.08028 0.85993,-0.716608 0.85993,-0.716608 m -6.730978,-0.432254 c -0.582459,0.413911 -0.913363,0.282773 -1.724992,0.432254 0.02064,-0.785831 0.07883,-0.950365 0.573286,-1.576534 l 1.122638,1.146571 0.28664,0.573286 0.883868,1.576538 m 0.429963,-3.296395 c 0.775513,1.551025 0.704282,3.595362 2.579785,1.719857 m -9.745861,2.579787 c -0.52427,-0.830261 -1.105583,-2.168025 -1.146571,-3.153073 -0.0085,-0.203373 -0.04063,-0.642432 0.08651,-0.818861 m 16.825422,-0.04107 -1.63672,0.534938 m -15.848494,-0.391616 0.63011,-0.113998 c 0.446624,-0.01166 0.725136,-0.02933 1.089747,-0.02933 1.051265,0 2.555281,0.02535 2.818704,1.289894 0.231177,1.109881 -0.71933,1.88253 -1.52881,2.436465 m 28.391793,-3.75099 c -0.0985,0.534304 -0.52407,1.371138 -0.58742,2.174455 m -23.504729,-1.289893 1.220471,-0.891839 m -2.942619,1.301826 -0.141032,1.883155 m 17.341899,-1.433212 -1.00325,2.14982"
       id="path452"
       sodipodi:nodetypes="cssccccsccccscccccsccscccscscsccccsccsccsccccssccccccccsccscccccccsccccccscsccccsccsssccccsccsccsccsscccsscscccccccccsccsccsccssscccsscccccccccccsccccssccscccccccccscsccccsccscscccccccccsccsccscccsccscsccccccscccccsccccsccsccccccccccccccsscccccccccccscsccsccccsccccccccccsccccccccccccsccccccccsscccccccccccccsscscccccccsssccccccccccccccsccccsccsccscccccscccsccsccccsssccsccsccccccsccssssccccsccccsccccsccccccccccsccccsccccssccccccscccccccccsccccscccccsccccscscccccsccccccccsccccccccccscccccssccccccccc" /></g></svg>
