<?xml version="1.0" encoding="UTF-8" standalone="no"?>
<!-- Created with Inkscape (http://www.inkscape.org/) -->

<svg
   version="1.1"
   id="svg182"
   width="2218.6667"
   height="952"
   viewBox="0 0 2218.6667 952"
   sodipodi:docname="ZachW - Stake - Envelope50.svg"
   inkscape:version="1.2.1 (9c6d41e410, 2022-07-14)"
   xmlns:inkscape="http://www.inkscape.org/namespaces/inkscape"
   xmlns:sodipodi="http://sodipodi.sourceforge.net/DTD/sodipodi-0.dtd"
   xmlns="http://www.w3.org/2000/svg"
   xmlns:svg="http://www.w3.org/2000/svg">
  <defs
     id="defs186" />
  <sodipodi:namedview
     id="namedview184"
     pagecolor="#ffffff"
     bordercolor="#000000"
     borderopacity="0.25"
     inkscape:showpageshadow="2"
     inkscape:pageopacity="0.0"
     inkscape:pagecheckerboard="0"
     inkscape:deskcolor="#d1d1d1"
     showgrid="false"
     inkscape:zoom="0.28333139"
     inkscape:cx="1214.126"
     inkscape:cy="510.0035"
     inkscape:window-width="1920"
     inkscape:window-height="1058"
     inkscape:window-x="-6"
     inkscape:window-y="-6"
     inkscape:window-maximized="1"
     inkscape:current-layer="g188" />
  <g
     inkscape:groupmode="layer"
     inkscape:label="Image"
     id="g188">
    <path
       id="path612"
       style="fill:none;stroke:#52424f;stroke-width:0.794005"
       d="m 558.87468,421.0314 c -0.37079,2.71441 -2.11661,5.05624 -2.55597,7.7239 -2.35698,14.31116 22.33432,-7.48632 -0.43583,-5.68962 m -9.78805,-3.72951 c -0.12802,5.69361 1.82199,14.27276 2.41463,18.41444 m -10.80101,-17.10064 c 0.0629,1.24828 0.23642,2.49634 0.16491,3.7507 -0.71684,12.57337 7.94051,7.92451 7.47942,2.39451 m -31.62565,-2.8607 c 1.83594,-0.97009 6.18054,-1.66807 8.22147,-0.50857 6.84515,3.88887 -14.78183,12.59421 -0.0707,10.64817 0.98957,-0.13091 1.99682,-0.20196 2.99181,-0.30726 2.01904,-0.21367 4.08426,-0.39202 6.1131,-0.39202 m -27.00842,1.5257 c -0.14159,5.09385 7.53266,3.15703 7.96236,-0.83702 0.32979,-3.06542 -6.17911,-7.74649 -9.08133,-6.87627 -1.00763,0.30212 -3.78452,2.89433 -4.49947,2.73356 -0.4381,-0.0985 -0.60386,-3.8297 -0.67138,-4.26986 -0.18176,-1.18543 -0.43339,-2.36583 -1.00116,-3.43285 2.43459,-0.82327 5.79466,-0.96028 7.85635,-1.47273 m -31.28057,5.15373 c 4.47552,-0.0197 8.75529,0.72732 12.92119,-1.36678 0.20726,-0.10417 1.20548,-0.76806 1.44876,-0.60392 0.3155,0.21285 0.38403,2.16344 0.47117,2.50046 1.0796,4.17595 1.89703,10.4891 2.76798,13.91148 m -42.81472,-17.02866 c -4.81418,4.71379 -3.86146,13.29437 -5.32396,19.57991 M 436.004,425.32473 c 3.67049,5.38142 9.90212,9.53229 14.09903,13.76315 m -22.62852,-12.66104 c 2.2727,6.16667 2.42038,14.3438 4.73501,19.66467 m -17.12614,-16.26362 c 6.76419,-0.0612 16.23198,-2.13852 21.28405,-4.01557 m -20.75397,16.90991 c -0.96809,2.66612 -2.05211,5.46829 -4.14611,7.46961 m -6.3369,-15.38421 c -7.66494,3.09035 3.89668,7.69165 1.23676,9.94888 m -10.53011,-6.33592 c -1.41032,-4.49665 -5.5997,3.74218 -3.62783,4.33343 2.08733,0.62587 1.85725,-2.69244 3.03889,-3.40105 0.8764,-0.52556 0.95692,2.34153 1.97882,2.34153 1.66948,0 4.56756,-2.6151 5.33572,-3.13617 m -40.25705,0.4226 c -1.27291,13.94201 -7.206,3.06756 0.18846,-1.36678 1.03242,-0.61912 1.09002,3.16 1.14253,3.44344 0.42142,2.27448 3.32973,8.16355 6.69027,5.96509 3.05547,-1.99889 6.84093,-15.62622 3.06245,-16.30599 -2.23668,-0.40239 -1.58761,14.09933 3.67494,13.91148 6.07284,-0.21678 7.91172,-11.84706 5.17082,-11.62292 -2.23833,0.18304 -2.2612,19.53483 5.83043,11.43221 m -57.63235,-8.50695 c 2.44084,-2.34973 6.46532,-2.89013 9.77627,-2.99844 21.20816,-0.69371 10.6615,20.74091 0.51826,16.17886 m -4.78213,-14.0916 c 2.13077,5.09953 2.35204,10.7723 4.60545,15.8398 m -39.74043,-52.14264 c 1.40335,4.82085 1.38169,11.048 3.41581,15.29945 m 3.51004,-16.98409 c 1.94247,-1.01449 4.12276,-0.56499 6.10133,0.12715 7.69808,2.6929 -1.94347,7.73512 -1.94347,7.85103 0,0.67496 8.88974,-2.67448 9.91761,1.57868 1.08547,4.49146 -5.41322,6.09509 -7.96236,3.9732 m 12.37936,-14.971 c 0.23629,5.35246 0.26431,12.45078 2.88576,17.23837 m 5.54775,-15.23588 c -0.40344,1.34836 -0.77069,2.72538 -0.97763,4.12153 -0.17486,1.17963 -0.51826,2.40792 -0.51826,3.60236 0,8.66198 12.4284,-3.04075 5.33572,-7.40604 -1.27428,-0.78427 -2.53502,-1.13348 -3.83983,-0.31785 z m 13.75942,-4.19296 c 0.35318,5.52683 1.74683,11.66396 2.97999,16.65563 m 15.86646,-16.06404 c 25.38388,-8.4974 15.28446,12.02335 5.33572,8.33841 m -1.22498,-7.64973 c -0.98247,2.98233 2.39329,15.98686 6.00711,14.97101 m 9.45825,-11.43221 c 0.38024,0.98452 0.69937,1.97273 1.0483,2.96665 0.2039,0.58081 2.55867,5.01969 2.14371,5.39295 -1.97666,1.77807 -7.42752,-9.01501 2.28506,-8.30663 m 5.55952,0.99595 c -0.91866,1.53889 0.90311,1.66717 2.07305,1.5469 1.25588,-0.12911 5.89266,-3.90962 3.28624,-3.90962 -3.4533,0 -4.5546,10.32814 2.72086,6.74913 m 4.63826,0.76865 c 12.08347,1.37409 -6.33577,-7.42311 1.74325,-8.25366 m 21.0498,-0.69862 c 11.61268,6.4288 -9.60456,12.05182 1.00121,1.23964 0.52104,-0.53118 1.09582,-1.0069 1.64901,-1.50451 m -16.19635,4.19689 c 5.99894,-0.51746 13.25442,-7.02651 19.16386,-3.59177 m -17.98602,-5.04331 c 4.26317,2.84731 6.85128,10.64582 7.73857,13.58303 m 10.91627,-7.0258 c 0.42024,-0.45451 2.59702,5.08624 2.66197,4.85259 0.59155,-2.12856 0.91772,-6.37507 4.47586,-5.30819 2.60425,0.78086 1.33057,5.38905 4.82925,4.82081 m 20.45948,-12.58522 c 0.62974,0.25537 1.88947,3.19661 2.65021,5.47771 0.58109,1.74226 1.60872,3.41566 2.27329,5.14926 6.17604,16.11099 -3.65785,-4.3737 -2.19085,-9.65221 0.61591,-2.2161 3.57057,-4.85938 6.00713,-3.0938 3.08466,2.23521 1.83019,5.8134 -0.78919,7.77687 -2.14803,1.61018 -4.97635,1.95471 -4.86454,1.85416 0.64528,-0.58049 11.06084,7.57697 14.60549,2.4263 m -0.39369,-10.03932 c 6.17247,-0.96967 21.14472,2.07137 13.51013,10.574 -2.41177,2.68598 -11.30689,4.10845 -7.30279,0.57214 m -4.0754,-11.17792 c 2.58937,4.70114 3.96725,10.02246 6.67851,14.68493 m 28.67414,-18.4898 c -16.21567,9.91782 5.45353,10.795 5.45353,14.0704 0,3.53982 -9.34439,1.99256 -10.45946,0.32846 m 9.30196,-10.95017 c 4.68216,0.25724 11.65003,-2.41039 14.87641,-3.33748 m -6.76094,-0.43441 c 1.9606,4.83547 4.47816,12.39498 5.44172,16.12588 m 9.87052,-16.85695 c -11.20722,11.3489 3.78095,6.58783 3.78095,5.66843 0,-1.35854 -2.35303,1.41851 -3.29802,2.39451 -1.75127,1.80869 -5.68583,5.76123 -1.26031,7.08818 1.78463,0.53511 3.52154,-0.93823 4.79392,-1.86475 m 20.33175,-19.37028 c 0.23877,5.65842 4.08821,11.66962 4.48766,16.77218 m 2.93289,-17.66218 c 1.33885,5.71938 5.02762,10.64683 7.11431,15.97755 m 5.10782,-13.77573 c -3.82696,2.6326 -2.81508,15.8442 3.36869,14.14457 3.56498,-0.97985 8.1447,-7.51078 3.52179,-10.21376 -1.43653,-0.83994 -3.88385,-0.37823 -5.31214,-0.50857 m 15.689,1.62107 c 1.82649,-0.51354 4.29401,-1.08945 5.70088,-2.08726 m 13.01976,7.80932 c -3.04441,5.84708 7.2606,2.1917 5.32395,-2.74416 -1.80972,-4.61227 -6.01659,-3.86511 -9.77628,-2.4157 -4.12825,1.59148 -1.97883,-1.06711 -1.97883,-5.83795 0,-1.04402 0.0134,-2.08991 0.14134,-3.12558 1.73258,-0.19833 5.85462,-0.91318 6.19558,-0.98535 m 12.1438,2.99844 c -1.01985,1.23614 -2.17874,2.40334 -2.93289,3.83546 -8.57218,16.27852 18.68165,10.69984 3.74561,-1.15488 m 9.291,-2.41483 c 1.34044,-0.78082 4.68165,-1.8018 5.98352,-0.34964 3.35911,3.74678 -8.09967,11.64987 -2.6266,11.90899 1.78758,0.0846 3.26705,-0.56941 4.71144,-1.59988 0.7849,-0.55995 2.72164,-2.31046 2.73265,-2.32034 m 2.35467,-6.44581 c 1.93404,1.8859 8.42084,-2.31055 9.69384,-1.16547 0.18769,0.16883 -2.48429,9.50457 -2.27328,12.96851 M 572.02129,353.04266 c -0.98747,-1.6607 -2.43001,-0.89722 -3.67491,0.10596 -3.30516,2.66336 -2.14227,8.03356 1.46053,3.49641 0.82746,-1.04203 9.40032,-19.73915 6.41935,-18.76408 -2.57391,0.84193 -1.26246,27.69039 2.32043,17.35492 M 552.987,353.29695 c -0.008,1.53888 2.46706,1.46582 3.5336,0.85821 4.45043,-2.53542 5.02324,-8.43859 1.10721,-3.43284 -5.42874,6.9394 2.80596,6.47446 7.33808,4.32283 m -23.51767,-0.13686 c 1.7906,-1.64456 4.54434,-2.00454 6.45469,-2.38392 m -2.75617,-8.77282 c -1.18385,5.75288 1.74421,11.78719 2.12013,16.99468 m -10.5419,-10.13959 c 0.34214,-0.111 0.70676,-0.13421 1.06011,-0.20131 m -19.6939,2.25678 c -0.0294,1.14199 0.15311,2.23971 0.15311,3.37986 0,11.80888 0.0692,-3.55315 3.66318,-2.30975 1.12872,0.39051 -0.005,6.50254 2.66198,4.78902 0.49171,-0.31594 3.96473,-5.55819 4.06363,-5.4989 1.14028,0.68381 -0.7657,5.12538 1.42519,6.35711 5.12761,2.88276 5.84487,-9.70377 6.28982,-1.39856 m -25.45365,-6.35711 c 0.51521,-0.43231 1.23662,-0.26822 1.70788,-0.28607 m -1.94346,3.35867 c 0.13227,2.19325 -0.31617,4.95362 2.28505,5.0539 M 490.83114,341.739 c 2.37198,7.27378 2.14938,16.78567 2.76798,23.64846 4.99551,1.80606 12.13318,-1.2278 14.41705,-5.67902 m -38.32059,-6.21283 c -10.67299,2.34399 -1.27297,6.0035 -0.0825,8.26424 1.56052,2.9634 -3.57684,3.44062 -4.77035,2.8713 m -13.58076,-6.80211 c 0.30252,2.02701 2.43438,1.4962 3.72205,0.8688 0.76893,-0.37465 5.06248,-5.10148 3.086,-5.42473 -2.45311,-0.40121 -7.90782,10.08662 -2.33219,10.08662 1.8872,0 4.12905,-1.71131 5.21794,-2.94546 m -14.14613,-6.33593 c -9.96736,2.45316 -4.5414,14.80824 1.79036,4.75724 m -9.50536,-7.64972 c -0.93822,3.54404 -1.09503,12.57291 3.36868,13.97505 m -11.42419,-7.21085 c -1.60838,-4.99484 -5.64819,6.44429 -3.0389,5.9227 2.8873,-0.57715 4.88816,-7.97073 4.88816,-7.17294 0,2.49005 -1.91334,7.2789 2.27328,7.2789 m -21.92009,-3.42225 c 3.29046,0.27844 7.63178,-0.79882 10.20031,-1.63166 m -8.40995,-7.63913 c 0.92658,4.94219 3.50385,10.58016 5.33571,14.5472 m -14.19322,-10.07603 c -1.44487,-0.17011 -2.66629,0.64348 -3.3687,1.90713 -2.07564,3.73419 8.70409,6.61091 3.80451,9.84293 -0.71169,0.46947 -1.75507,0.38771 -2.55597,0.0954 m -36.15334,-4.7413 c 8.10487,0.62656 4.08966,-9.85742 2.40285,-2.11904 -0.35539,1.63035 -0.874,3.45611 -0.0707,5.03271 2.85396,5.60119 7.03135,-1.98436 7.33809,-4.02617 1.41402,0.37698 2.67288,0.37924 3.72205,-0.73107 8.52027,-9.01669 -5.23047,-4.98583 -2.17905,3.59177 0.38712,1.0882 1.2349,2.28441 2.47352,2.32035 2.3847,0.0692 5.65828,-2.53637 7.1143,-4.30165 0.78998,-0.95778 1.66326,-4.65574 1.06007,-3.57058 -1.50361,2.70509 0.50663,7.87627 1.26032,10.53162 0.39206,1.38127 2.11463,5.33814 1.53122,4.02617 -0.90615,-2.03778 -4.37275,-16.25401 1.38988,-15.00278 4.36905,0.94863 -0.20204,10.10826 -5.15904,7.0352 m -38.33949,-3.31629 c 3.81562,2.38672 2.37276,8.52913 6.74916,10.39388 0.9902,0.42191 -0.0353,-9.99847 -0.0353,-8.94234 0,4.21592 6.5664,7.75602 7.71501,5.68961 1.53051,-2.75346 -0.39036,-9.90244 -1.89636,-10.86006 m -23.25105,-9.98067 c -2.61164,1.07745 -5.7175,3.2319 -6.83161,5.96509 -3.6568,8.97105 14.35337,5.6579 13.99303,14.40946 -0.20305,4.93161 -11.96251,7.29746 -14.7233,4.37581 M 241.99321,253.11386 c -0.81814,3.13996 -0.53473,8.5222 1.70791,11.13554 m -19.84702,-8.75163 c 6.91292,-1.56617 7.42525,2.64704 3.09779,5.89093 13.8424,-2.70771 3.01864,9.20994 1.73146,3.78248 m -20.64797,-7.75568 c 12.03288,-3.56837 6.83874,5.38654 2.61486,9.18603 3.95098,1.39737 8.74589,-0.83179 11.29572,-3.64474 m -27.01265,3.77515 c 2.07931,2.32187 5.73209,0.2654 5.53596,-2.99843 -0.59435,-9.89059 -10.34127,4.45526 -7.98592,-7.61794 2.09153,-0.67856 5.23678,-0.0642 6.52537,-2.02369 m -13.27453,-0.10595 c -0.24077,7.17353 -1.36621,14.2088 -0.12957,21.32812 m -8.91643,-19.07134 c -1.47307,11.29716 0.89611,16.14092 8.93999,4.59831 m -29.80717,-5.05664 c 1.35502,4.55208 1.8557,9.3885 2.53241,13.95387 m -8.76331,-6.4101 c 3.7951,-0.87768 8.2699,-0.85642 11.67263,-2.65938 m -8.85754,-4.00498 c -2.23478,4.2903 -2.66475,10.40184 0.43581,14.18695 m -10.05896,-11.43221 c -1.93449,0.22104 -3.40195,1.63958 -4.55834,3.12558 -14.65813,18.83623 20.15805,7.19349 -0.14134,-3.01962 m -19.06395,8.64774 c 0.0293,2.98194 -1.32468,5.97548 -2.77976,8.46556 m -7.71501,-16.44374 c 0.0347,0.38625 0.28534,0.77734 0.41225,1.12309 m -18.645591,5.03272 c -0.69804,-4.13185 -6.26097,5.81675 -2.22616,5.81675 1.81489,0 2.42226,-5.09628 2.41461,-5.09628 -2.05804,0 1.17552,10.65319 5.60664,1.18666 0.26242,-0.56063 2.94206,-7.16235 2.29684,-7.16235 -1.18117,0 1.41969,9.3253 1.672561,10.129 0.33548,1.06626 1.03653,4.30694 1.03653,3.18915 0,-6.10921 -5.752771,-7.20077 -5.477081,-6.20878 0.17245,0.62049 10.370301,-1.10769 11.401731,-1.27142 0.12578,-0.02 1.86101,-0.64639 1.86103,-0.64631 0.21975,0.98837 -0.50654,3.40293 -0.51826,3.79308 m -35.524391,-6.19818 c 0.23098,1.63021 -0.19531,3.39925 0.47115,4.94795 3.55849,8.26915 2.32761,-7.81702 6.36046,-5.09629 2.3146,1.56153 -3.18546,8.44469 4.41699,6.57962 m -24.775342,-5.7959 c -0.02958,1.03696 0.16475,2.05322 0.376919,3.062 0.281554,1.3387 0.542227,2.7164 0.930511,4.02618 1.979622,6.67769 0.185938,-7.53848 4.134302,-6.22997 2.77752,0.92048 -0.53021,6.07301 4.6879,6.19818 M 54.59616,261.82538 c 0.576575,0.60461 0.65996,0.81695 0.883398,1.52571 m -9.517141,1.19725 c -5.118657,-2.48427 -4.659223,10.42246 0.918734,9.36615 4.469377,-0.84639 5.277323,-9.1218 5.889322,-8.29603 0.93602,1.26296 -0.931242,3.19593 1.378101,3.89902 m -27.07436,-5.39721 c -0.163026,1.31473 -0.141344,2.63971 -0.141344,3.9626 0,1.55606 0.427282,3.30246 1.154307,4.68307 0.234983,0.44624 1.116134,1.68039 0.836282,1.26083 -1.23597,-1.85298 -1.198366,-7.25823 1.766796,-7.76627 1.426365,-0.24439 2.224823,4.7115 5.182606,4.91616 m -14.888206,-8.99531 c -0.748479,1.19499 -0.309877,1.7124 0.60071,2.44749 m -8.527738,-3.93081 C 10.83483,247.8555 0.08605803,273.32192 9.170675,276.85569 c 1.500311,0.5836 3.062124,0.0965 4.110746,-1.09131 2.885004,-3.26795 3.356735,-6.74359 5.55952,-9.71578 0.211661,-0.2856 -0.426801,6.94618 3.356914,5.29759 m -16.8111,-41.93873 c 0.933195,4.02725 0.805529,11.57381 5.488848,13.23338 m 8.948329,-13.22093 c -1.415451,1.49863 -2.230004,3.44963 -2.626638,5.45653 -1.219392,6.16992 3.429727,11.6727 6.737385,3.67652 1.276767,-3.08654 -1.023732,-10.31948 -4.805687,-6.11342 m 14.51129,-1.68463 c 15.442512,-0.56747 7.342762,-6.26952 9.576039,11.55935 m 8.360229,-10.93511 c 13.963779,-7.29693 2.90641,6.09926 3.133121,9.2602 0.24871,3.46766 8.207698,-1.5661 8.951768,-3.0832 m 7.46875,-7.62734 c 1.72876,2.69996 5.69633,4.74125 5.12371,8.51853 -0.1509,0.99542 -2.82926,3.90547 -3.93407,2.75475 -0.61825,-0.64394 -0.44846,-2.08325 -0.12956,-2.81832 0.71251,-1.64237 8.35857,-8.73319 3.66315,-9.87471 -1.99543,-0.48512 -3.32889,0.51794 -4.72323,1.41975 -0.56108,0.36289 -1.71951,0.7455 -2.19083,1.12309 m 21.54259,-2.53978 c 1.35739,1.33957 11.065271,12.81557 13.510101,10.61638 0.46556,-0.41878 -2.48989,-13.49745 -2.93288,-14.58957 m 16.51198,5.7865 c -4.38945,-6.25922 -6.71345,7.97357 -3.95763,7.50139 0.7682,-0.13162 3.37737,-4.99173 2.8151,-5.24462 -0.82364,-0.37044 -0.70472,4.50953 1.7079,4.6301 3.76335,0.18807 5.95492,-2.92757 5.64197,-6.39949 -0.0417,-0.46246 -0.26791,-5.16274 -0.68316,-3.29511 -0.7528,3.38581 3.74804,17.6836 7.1143,11.09317 m 3.853,-13.02356 c 0.64143,0.061 1.34328,-0.0988 1.95525,-0.2119 m -3.20379,5.4989 c 0.29116,1.63178 -0.15635,7.32135 2.77976,4.21688 m 33.36868,-3.10318 c 3.20343,-0.38313 6.45704,-0.82173 9.30513,-2.46868 m -33.21577,-1.59988 c -3.68328,-1.48236 -2.73521,12.48299 0.0471,6.64318 0.67435,-1.41538 0.76768,-2.94181 0.91874,-4.48176 0.59258,-6.04118 -1.85936,5.81405 3.43936,5.61545 3.34976,-0.12555 5.69404,-6.99896 6.16023,-6.57961 0.7756,0.69767 -2.42324,8.38338 1.71968,7.14116 2.05209,-0.61531 2.30679,-5.06339 4.07541,-6.14521 0.65656,-0.4016 -0.17134,8.66054 3.42759,7.2577 4.74239,-1.84856 4.8971,-11.42118 6.16023,-10.93423 2.35622,0.90834 3.15772,11.03897 3.38047,13.04267 m 16.09708,-13.41164 c 4.54857,-2.36574 19.71969,1.52727 15.35935,8.78341 -1.1913,1.98246 -8.97532,5.70098 -8.97532,1.77999 m -4.44055,-11.43221 c -2.45132,2.60381 6.11589,18.40143 5.35928,14.07041 m 11.14259,-9.66281 c 1.33882,1.42312 1.62613,3.51131 2.19083,5.33997 0.0295,0.0954 0.69964,1.82132 0.5536,1.85416 -0.73594,0.1655 -0.44127,-3.95355 -0.28269,-4.52414 1.0695,-3.84817 2.18354,-3.33664 5.81865,-3.61296 m 3.4747,-1.88595 c 0.48045,-0.4309 1.13776,-0.22623 1.47233,-0.2119 m -2.24972,3.32689 c 0.48485,1.71982 0.4369,3.84874 0.87162,5.37176 m 6.31335,-7.61794 c 0.32627,2.00726 1.72913,8.80944 4.89992,8.40199 0.78088,-0.10035 -1.07874,-6.16737 0.51826,-7.17295 1.14014,-0.71791 4.26569,1.56023 6.3958,0.32845 0.24229,-0.1401 3.42106,-2.77798 2.07305,-3.19974 -4.27811,-1.33853 -4.504,16.27036 3.94584,6.01806 m -34.55668,-33.31818 c 2.65365,-0.97232 5.39773,-2.10467 8.03304,-2.88189 m -5.20616,-3.3057 c -1.71679,4.5865 1.38973,8.78456 2.88577,12.62947 m -12.00244,-8.86818 c 0.84437,-0.37234 1.23981,-0.008 1.74324,0.2331 m -2.73265,3.92022 c 0.0535,3.60929 2.93796,6.28743 1.89636,1.16547 m -10.44766,-2.39451 c -2.92956,-0.70234 -6.85678,6.42257 -4.21675,7.82984 1.19509,0.63704 2.43502,0.3869 3.45114,-0.48738 5.52956,-4.75771 1.4887,-15.12651 0.93052,-11.41102 -0.57977,3.8592 5.56909,19.54767 6.07778,10.51043 m -29.91776,-6.3889 c 2.7201,1.66908 3.39284,5.25575 5.67731,7.31068 0.17003,0.15295 -0.31913,-0.32776 -0.48293,-0.48738 -1.23319,-1.20172 -4.91374,-6.42053 -1.88458,-7.6921 1.70047,-0.71382 4.25408,1.46782 6.07778,1.61046 0.62211,0.0487 7.09859,-1.08778 5.60663,-2.76534 -0.94084,-1.0579 -3.9262,4.2431 -3.09778,5.79557 0.97827,1.83328 5.16024,-0.19862 6.53715,-0.42381 m -24.8176,-9.21781 c 1.23484,-1.19932 -0.0712,-2.11904 -1.34277,-2.11904 -4.7404,0 -5.34684,15.49883 1.46055,16.0729 2.16655,0.18271 3.68579,-1.70943 4.54656,-3.43284 M 134.752,193.2854 c 0.31784,1.39648 -0.90044,9.98241 2.33217,12.16327 2.03522,1.37305 1.80158,-7.32803 3.76917,-5.91211 2.41341,1.73674 0.40259,6.04564 4.61723,6.57961 m -17.27927,-6.86568 c -9.42276,6.56134 5.45402,7.39565 2.66197,10.67995 -1.43463,1.68755 -4.12416,-0.84797 -3.4747,-2.33094 m -11.50774,-7.77687 c -4.13664,-6.69341 -7.78573,7.10653 -4.06363,7.99937 3.36831,0.80797 3.95721,-6.08109 5.08837,-7.60735 0.25122,-0.33896 -1.29131,4.20272 0.83629,5.22343 2.69757,1.29415 5.93521,-1.16445 7.92702,-2.81832 m -25.17096,-6.53723 c 0.83482,2.16993 2.35467,0.71472 1.80214,-0.90059 -0.82789,-2.4203 -5.419091,-7.70757 -6.772721,-2.70178 -1.87428,6.93118 5.025631,25.40192 10.412321,14.88624 m -38.016381,-6.14785 c 0.91263,1.32383 2.41426,2.29185 4.04008,1.77999 2.59233,-0.81616 6.10266,-7.33247 2.21438,-5.58367 -5.50636,2.47656 -1.27987,15.76208 4.04008,8.73044 m -16.14853,-9.10127 c -8.690922,5.36331 -1.098394,16.68595 3.19202,8.64567 m -9.38758,-10.28792 c 2.254318,4.5377 1.520031,11.38889 3.54537,15.26766 M 47.041523,200.56164 c -3.278429,-4.06402 -7.112707,2.82251 -6.313354,5.98628 0.829643,3.28365 5.512408,-2.95 5.512408,-4.48176 0,-1.01299 0.298298,2.00467 0.494702,2.99844 0.482791,2.44285 1.638568,5.0152 4.558334,4.59831 m -28.492538,-6.77032 c 5.005142,-2.32486 12.216984,-2.15246 16.372316,-4.10034 m -12.485363,-4.54534 c 1.341101,5.42363 2.9661,12.86285 6.230903,16.86754 M 17.217998,194.45882 c -0.826409,-5.72902 -12.223506,3.6119 -8.633746,7.58615 2.733571,3.02636 11.41212,0.72359 10.718566,7.58615 -0.427945,4.23442 -9.372473,4.25002 -8.033035,-0.32845" />
  </g>
</svg>
