<?xml version="1.0" encoding="UTF-8" standalone="no"?>
<!-- Created with Inkscape (http://www.inkscape.org/) -->

<svg
   version="1.1"
   id="svg59"
   width="3000"
   height="1998.207"
   viewBox="0 0 2999.9999 1998.207"
   sodipodi:docname="ZachW - Stake - Envelope9.svg"
   inkscape:version="1.2.1 (9c6d41e410, 2022-07-14)"
   xmlns:inkscape="http://www.inkscape.org/namespaces/inkscape"
   xmlns:sodipodi="http://sodipodi.sourceforge.net/DTD/sodipodi-0.dtd"
   xmlns="http://www.w3.org/2000/svg"
   xmlns:svg="http://www.w3.org/2000/svg">
  <defs
     id="defs63" />
  <sodipodi:namedview
     id="namedview61"
     pagecolor="#ffffff"
     bordercolor="#000000"
     borderopacity="0.25"
     inkscape:showpageshadow="2"
     inkscape:pageopacity="0.0"
     inkscape:pagecheckerboard="0"
     inkscape:deskcolor="#d1d1d1"
     showgrid="false"
     inkscape:zoom="1.3122586"
     inkscape:cx="259.85732"
     inkscape:cy="145.16956"
     inkscape:window-width="1920"
     inkscape:window-height="1051"
     inkscape:window-x="-9"
     inkscape:window-y="-9"
     inkscape:window-maximized="1"
     inkscape:current-layer="g65" />
  <g
     inkscape:groupmode="layer"
     inkscape:label="Image"
     id="g65">
    <path
       style="fill:none;stroke:#8e868d;stroke-width:0.618596"
       d="m 235.19867,202.04774 c 0,-4.06548 0.57723,-6.80254 0.0135,-9.24096 m -205.387972,10.47815 -2.474391,-9.27896 6.18598,-1.8558 m 23.506714,0 c 0.513437,2.78759 1.59227,8.13339 3.09299,11.13476 m 14.537107,-11.5325 c -3.413384,5.5155 -0.629406,8.11068 4.728269,4.41834 -4.781813,4.64925 -3.214577,8.06799 2.385548,7.73276 m 97.649385,-4.46254 c 0.63119,0.33416 9.91153,-3.59939 7.51224,-6.05362 -1.52102,-2.47175 -8.57227,1.52434 -8.57227,1.52434 l 1.76769,10.84761 m -167.64,0 c 7.320486,-0.19269 0.579069,-4.60861 -0.515478,-7.42317 -1.345017,-3.45864 3.769673,-4.76617 6.082858,-4.94878 m 33.40428,1.85579 c -2.311047,1.59013 -6.330802,2.11894 -8.985654,2.84299 m 96.207944,-4.69878 c 1.00028,2.37523 0.33776,3.05624 0.72191,5.56738 0.66313,4.34119 0.51529,4.16631 0.51529,8.66037 m 31.54848,-2.4744 c -8.82924,8.82894 -8.32137,-13.19852 -3.09298,-11.13475 m 27.8369,-0.6186 c -4.43535,4.43528 -4.06728,7.30273 1.23719,6.18598 0,4.34292 3.34167,5.42176 5.56738,-0.6186 m 28.4555,-4.94878 c 3.26944,-0.47805 5.88422,-2.81661 8.66037,-3.71159 m -218.365023,4.33018 5.56738,-0.61859 m 35.391468,-0.5 -4.274806,4.61216 m 50.538241,5.7854 c -4.17429,2.85594 -6.05235,2.45763 -7.21718,-2.47439 -0.39342,-1.66669 -0.52147,-2.9123 -0.20599,-4.94878 0.45653,-2.94502 2.16695,-2.48207 4.33019,-1.8558 m 38.97166,-0.61859 c 0,3.38533 1.2372,8.07536 1.2372,12.37195 m 69.28295,-11.54718 c -2.56038,-0.53348 -5.58228,-0.59255 -7.88715,0.27967 -0.24126,3.26877 1.41363,10.53871 1.41363,10.53871 0,0 12.82219,-9.49575 6.47352,-10.81838 z m -90.93388,10.92858 -2.16509,-8.55725 -2.93882,-5.36154 -3.90989,13.65454 M 224.6825,195.24316 v 8.04177 m -106.84086,-5.47899 7.73331,-1.2815 m 5.9206,-0.22097 c -5.99345,-0.53818 -0.59619,8.32559 -4.5515,8.83725 m -77.943319,-1.85579 c -0.155775,-4.56798 -2.210441,-7.65405 -4.489629,-11.43483 l -3.552141,11.43483 m 98.362709,-4.13629 c 4.34361,-0.32354 8.29548,-1.8744 12.3663,-3.28688 m 46.39483,3.09299 -0.6186,0.6186 m -8.52744,3.62376 -9.58913,-3.71272 m -120.793808,-1.26757 5.911852,3.21232 m 182.486356,15.46494 c -5.8765,4.21974 -0.22931,6.91875 3.00883,3.8831 -4.27476,3.9829 -2.16214,10.69246 3.17715,7.25166 M 18.689437,217.82198 c 4.573047,-2.31968 4.791721,8.39938 0.618599,10.51616 -2.045147,1.03739 -3.439157,-0.40673 -3.711587,-2.16509 -0.19857,-1.28155 -0.07912,-1.99956 0.10312,-3.09299 0.293957,-1.76387 0.926845,-4.2116 2.989868,-5.25808 m 9.897565,2.78369 8.041771,-1.85579 c 1.062753,2.52406 0.618601,5.68448 0.618601,9.27896 m 9.897563,-7.42317 c 9.882717,-7.80219 0.314803,11.49627 9.278967,5.9798 0.678604,-0.41755 1.284209,-1.12344 1.855794,-1.64962 m 9.382274,2.47439 c 0.558594,1.99987 3.456104,2.67754 4.536176,0.6186 -0.995457,-3.50825 -8.721115,-8.66037 -4.639483,-8.66037 h 3.09299 c 5.859069,0 -3.242776,6.69808 -2.989683,8.04177 z m 32.063776,-8.66036 -3.711587,12.99055 -4.948779,-11.13476 m 16.702138,7.42317 c 0,0 -0.27598,-12.49969 2.59619,-10.71645 3.00395,1.86506 6.68278,10.71645 6.68278,10.71645 m 93.32019,-1.92396 c 0,0 7.93684,-4.98243 6.89265,-6.73641 -1.57822,-2.65103 -8.87309,2.63384 -8.87309,2.63384 l 3.30571,7.26373 m 26.59971,-10.51616 -0.6186,7.42317 -6.80457,-6.80458 m -91.55248,7.42318 3.55685,-8.63867 5.72212,9.25726 m -16.70214,-7.42317 c 0,3.15343 0.3959,3.98346 0.61859,6.80458 m 37.73447,-5.56738 4.94878,-1.2372 m -166.402807,0.6186 2.474391,11.13476 m 111.966206,-11.13476 0.7219,7.73247 4.84548,-2.16509 m 74.74702,-3.09299 c 0.6984,-4.31645 -7.56791,-2.89341 -10.0819,-1.67469 l 3.65229,8.98246 c 1.90537,-2.16297 6.16362,-5.66075 6.42961,-7.30777 z m 19.27984,-2.47439 1.2372,5.56738 m -68.66436,0.6186 c 0,0 0.93726,-6.89459 2.47439,-5.56738 2.09454,1.80849 6.18598,5.56738 6.18598,5.56738 1.96343,-1.55905 1.14881,-7.07008 1.14881,-7.07008 m 45.2389,6.48273 8.39264,-0.0554 m -110.88598,-2.70026 6.4431,-0.71235 m 58.58772,-2.19739 2.20957,7.48992 m -29.6485,-5.30245 -4.72838,-0.1328 m 98.71105,18.4258 6.18598,-0.6186 -3.22438,4.27409 c 6.11238,0.98743 4.84016,3.59757 1.36859,5.00488 m 9.27897,-9.89756 2.68038,4.94878 0.4126,4.94878 m -82.8921,-8.66037 c 0.25624,3.62904 2.24872,7.15577 2.47439,9.89757 m -74.23174,0 c 0,-3.44003 -0.94893,-8.77512 4.30798,-8.99199 0.77269,2.52072 2.65496,5.87487 3.11519,8.37339 m 57.5296,-8.04177 c 0,2.2517 0.8283,7.67927 1.2372,9.89756 m 35.26007,-9.89756 c 0.065,2.46016 1.4933,9.78374 1.85579,11.75336 m 8.66037,0 c 12.02454,-4.20799 1.63076,-6.93577 -0.61859,-6.18598 0,0 -1.31102,-3.08647 -0.34248,-4.06098 1.1532,-1.16031 3.52468,-1.5064 5.49794,-1.5064 m -125.163435,1.2372 c -0.590764,2.04013 0.377344,4.92465 -0.927896,6.70127 -1.905283,2.59316 -6.99263,-3.08248 -8.969671,-4.22688 l -0.618597,8.04177 m 43.920449,-10.51616 c 1.14255,2.55357 1.43514,4.52071 1.85579,6.80457 m 96.50125,-6.18598 c 5.99855,-1.7364 4.19966,1.81435 2.4744,6.18598 l 7.42317,-1.23719 M 49.619327,244.11238 c -1.772469,1.92446 -3.312406,4.17183 -3.092986,6.80458 0.254243,3.05092 1.675902,4.75949 4.330183,3.71159 M 193.13402,244.11238 c -0.22576,7.81501 4.33413,7.53979 10.82298,3.86784 m -52.26903,-2.83663 c 3.46476,-0.68355 6.75137,6.49156 2.47439,8.04177 -5.57914,2.02158 -7.73557,-7.00439 -2.47439,-8.04177 m -132.379934,0.20599 c 0.758451,3.51054 0.05924,8.75887 3.446538,10.51685 m 5.832428,-1.59075 0.618599,-8.9261 c 3.600639,1.1495 4.792789,4.96707 6.804576,8.04177 0.735571,-3.05436 0.858898,-8.71829 2.032451,-8.92576 m 79.622462,6.45137 c -0.382,-2.07223 -0.14399,-3.77464 -0.39148,-5.21853 M 14.359253,255.86574 c -1.323799,1.21926 -3.031686,2.88452 -4.9487824,2.37109 -3.105794,-0.83078 -5.7228338,-8.95235 -2.8868103,-11.54675 1.1168785,-1.02192 3.5303377,0.16455 4.7426037,0.51529 m 62.478377,-1.23719 c 0.103683,2.95591 -0.545413,5.40997 -1.855793,7.42317 -5.13589,-5.41394 -7.01078,-9.98873 -5.83243,1.81206 m 47.897082,-9.23523 c 1.49345,-0.007 4.34258,-0.39406 5.75204,-0.82172 m 47.25915,2.28406 c 2.46317,-0.41799 8.22133,-1.80794 10.08578,-2.69954 m -75.69046,2.20923 6.67278,-0.48613 m -50.371689,1.36989 3.711587,6.80458 m 74.231732,-1.2372 -1.85579,3.09299 m 427.41418,63.58418 -4.29329,3.84298 c -2.77325,2.48239 6.50655,-2.14426 3.35217,3.02541 -1.20604,1.97648 1.97289,1.7485 4.82882,1.83674 m -26.12034,-7.33655 1.23721,9.27897 m 6.18596,-9.27897 6.49602,-1.67935 m 15.68503,0.70681 c 1.56573,-3.41015 24.94483,5.60073 1.85538,9.63291 z m -75.38047,3.44694 c 0,4.49659 1.53785,15.03192 8.0418,9.89756 m 4.94875,-9.89756 c 0,3.23217 0.5586,5.13992 1.8558,8.66036 m 41.49015,-11.975 2.4303,8.26342 m -36.49728,3.71158 2.22445,-9.37911 5.19872,6.28613 4.33022,-8.04178 3.71159,11.13476 m -65.27093,2.25565 c 0,0 -3.68532,2.48604 -4.63062,2.07454 -3.09727,-1.34824 -1.07422,-3.92035 0.013,-6.31098 0.75346,-1.65695 -5.09619,3.76206 -5.79889,0.21875 -0.36981,-1.86475 3.93034,-4.42393 3.93034,-4.42393 m 9.8973,12.37195 c 6.63511,-1.39679 1.96899,-5.35581 0.82462,-9.27896 -0.72316,-2.47934 1.25572,-2.77503 2.88696,-2.4744 m -149.70063,21.03233 c 2.85421,1.20193 7.31244,-0.22146 5.25808,-4.33019 -1.22854,-2.45707 -5.40778,-4.46627 -6.80458,-6.80457 -2.43356,-4.0747 1.94858,-9.38413 5.87668,-8.66037 m 113.2034,0 3.09299,10.51616 m 1.85579,-10.51616 -3.33092,5.33657 m -69.66362,-4.09937 c -1.63619,2.59006 -3.36827,4.18914 -3.09299,6.80457 4.21551,0.26811 3.85506,-1.59601 6.18598,-3.09299 -1.88128,5.25041 1.97298,8.94479 6.80458,3.09299 m 53.19941,2.47439 -7.52332,-10.90714 c -0.59564,3.67951 -0.72632,8.47489 -1.7869,11.03853 m -75.43768,-8.17316 v 6.18598 c 0,1.76672 0.42435,4.64196 -1.8558,4.74279 -4.29245,0.18929 -4.59803,-5.59212 -7.42317,-7.83578 -1.11781,2.6544 -0.97491,6.40434 -3.09299,9.27897 -3.46167,-2.05808 -3.71159,-5.38984 -3.71159,-8.66037 m 23.50672,-3.71159 c 0,0 -3.85685,4.80027 -2.20934,6.18598 1.05857,0.89036 3.79997,-0.44159 3.79997,-0.44159 -0.61337,6.3234 0.34005,5.3438 5.21394,3.53458 m 36.49728,4.94878 c 1.35844,-0.50045 4.8696,-1.5601 4.53618,-3.71159 -0.5586,-3.60828 -8.67337,-9.27896 -0.206,-9.27896 m 5.56738,0 c 0.0916,3.47961 2.24366,5.35643 4.33019,8.66037 m 11.41528,-6.77333 c 2.94029,-0.21045 5.26078,-1.11649 7.76125,-2.50564 m -45.77624,14.22775 -4.69507,-12.90216 c 4.8703,-5.29929 14.49869,3.71799 2.48504,7.20265 m 55.20843,-6.14193 7.62418,0.0881 m -40.82745,1.85579 c 3.82965,-1.66046 7.78083,-2.97909 11.75336,-3.71158 m 216.50921,32.78568 c 13.25333,-4.39513 -4.69302,-11.4544 -5.47914,-11.26723 0,0 -0.73781,-3.08231 0.44354,-3.88961 1.81594,-1.24093 5.89432,-1.95266 9.05701,-0.44091 m 17.0109,3.22579 c 6.45199,-0.50972 3.52601,4.08337 1.85579,7.42318 2.76513,1.16482 4.39823,-0.15836 6.18601,-2.47439 m 6.18596,-4.33019 c 2.96927,-0.0779 3.62497,-1.77414 6.18597,-1.13389 2.02281,0.5054 0.35881,7.84382 -0.61859,9.79426 m -30.31127,-8.35107 c 2.98161,-1.09677 4.38584,5.15849 0.61858,6.28928 -3.95284,1.18586 -3.5384,-5.21477 -0.61858,-6.28928 m -34.74667,4.02089 c 0.65574,2.45212 -2.49294,5.55562 -4.84362,5.97998 -5.04897,0.9112 -2.43726,-7.58091 0,-8.76367 1.78778,-0.8679 4.34877,0.93408 4.84362,2.78369 z m -14.12259,-1.2372 3.71159,9.27897 m 19.17656,-8.66037 3.71159,-0.6186 m -34.64149,1.2372 3.093,11.13476 m -48.86926,1.85579 c 1.61765,-0.12743 3.92009,-0.51839 3.60832,-2.47439 -0.511,-3.20496 -4.40195,-2.66368 -5.8767,-4.94878 -1.67703,-2.59997 1.59909,-4.74836 3.50559,-4.94879 m 12.37198,9.27897 c -1.67323,-2.64895 -3.02165,-8.04267 -3.02165,-8.04267 m 9.82619,-1.2363 -2.97437,3.1491 c -2.36697,2.50599 5.38393,2.14199 7.23073,-0.66591 -3.7482,4.72095 -1.11037,10.66859 4.44875,6.48631 m -53.34743,-3.40212 c -0.50635,3.26903 -2.1755,3.84285 -4.08613,3.21186 -2.69939,-0.89152 -6.94535,-5.68624 -6.94535,-5.68624 1.82675,-2.47149 12.66212,-3.22914 11.03148,2.47438 z m 32.2704,-3.71158 c 1.89123,-0.052 3.32084,-1.2274 4.94875,-1.8558 m -85.3665,4.33019 c -0.71383,2.46573 -0.32351,11.53966 -1.85579,9.27896 -3.54137,-5.22492 -7.77724,-12.88092 -6.80452,0 m 36.49721,1.2372 -5.79569,-11.03781 c 0,0 5.81717,-2.73411 7.0329,-0.71554 0.76714,1.27374 -3.56813,6.96154 -3.56813,6.96154 m -51.48705,6.029 -3.71159,-6.18597 7.42316,-3.09299 m 4.9488,0.6186 c 2.03335,0.6421 3.48889,0.83634 3.71159,3.09299 0.25424,2.57955 -2.71192,6.31031 -5.56738,6.18597 -4.55103,-0.19795 0.7219,-7.125 1.85579,-9.27896 m 50.72498,0 -8.01763,2.55535 m -65.86466,9.02969 c 6.75069,-3.10158 -3.99994,-8.20405 0.88778,-10.34784 m -46.39483,14.22774 -3.09299,-4.94878 c 2.33459,-2.089 7.11264,-2.4014 7.93847,-5.56738 1.18461,-4.53927 -10.11595,-3.67647 -11.85994,-1.47513 l 3.92147,7.04251 m 34.89787,-9.54175 c -1.04605,2.0921 -3.14229,6.52329 -1.09374,5.92392 l 4.54893,-1.33095 c 0,4.73784 2.75524,6.20392 6.80458,2.47439 m 11.75336,-4.94878 2.47439,-0.6186 m -83.51071,0.6186 3.71159,14.84634 m 37.015,-10.02256 7.03044,-4.95518 c 2.24995,-1.58579 -10.13141,-2.54448 -8.91996,0.6154 l 3.84618,10.03216 m 21.25108,-9.65396 -1.64345,1.86219 m -71.26054,6.55457 c -0.90872,1.71723 -4.29307,2.97422 -5.56738,0.6186 -1.27493,-2.35624 0.40799,-6.02769 2.78369,-7.42317 1.02923,-0.60457 4.55968,3.4493 2.78369,6.80457 z m -38.04377,-5.56737 c 1.85147,-0.146 7.61556,-2.11746 8.55707,0.61859 0.79489,2.30799 -0.61288,4.80048 -2.32718,6.25956 3.31799,-0.0859 4.80652,-0.17194 6.14207,1.16362 2.80905,2.80904 0.91614,6.08019 -3.09299,6.18597 m 12.37196,-14.22774 c 1.78527,3.57116 2.11993,8.39251 3.09298,11.75335 m 72.37595,-10.51616 -9.44234,-0.0945 m -93.8635,1.33167 3.71159,11.13477 m 215.89062,8.04176 c -0.72873,3.95656 -0.28765,11.71563 0.61858,14.84635 m -35.87866,-1.85579 c 1.45123,0 4.93456,-0.28765 4.0209,-2.37109 -1.81621,-4.14027 -9.2431,0.004 -7.31989,-6.28928 0.37737,-1.23472 0.74357,-1.93745 1.4432,-3.09299 l 4.78048,-0.13779 m 41.61435,0.44709 c 4.9494,-2.63399 6.9351,7.06315 1.23722,9.27896 -5.02178,1.95292 -4.73599,-7.41636 -1.23722,-9.27896 m -64.95276,4.02088 c 3.91461,-1.47557 9.89755,-3.50559 9.89755,-3.50559 0,0 3.093,9.4961 3.093,12.16597 m 15.46493,-10.51617 c 2.44904,-0.70891 6.57113,-2.8692 8.0418,-0.61859 1.91755,2.93442 -4.9488,9.27896 -4.9488,9.27896 l 8.04176,-2.47439 m 6.80459,-7.42318 1.95912,6.49528 6.77011,-1.60259 m -74.91919,-3.65549 c -1.94532,4.89484 -3.96351,9.67873 -4.94877,14.84635 m -24.74391,-7.42317 14.84635,-6.18598 m 3.71158,1.23719 13.60918,9.27897 m -73.61316,1.85579 4.67257,-9.95309 c 2.38277,2.55995 4.45604,7.65785 5.84359,10.57169 m -8.35204,-5.47876 8.0207,-0.28704 m 7.13591,-2.89457 c -6.22619,6.39507 6.23485,5.32489 3.09299,10.51617 l -3.62354,0.88387 m -31.01794,-9.54424 2.4744,9.27896 4.33018,-3.09299 m 56.86647,-9.589 2.51892,9.589 m -82.89211,3.71159 c 0,0 -3.23277,-5.52875 -5.96523,-7.95356 -2.87537,-2.55162 -3.31373,11.04655 -3.31373,11.04655 m 14.84634,-9.27897 1.8558,8.04177 4.33019,-3.71159 m -42.37396,-4.02088 c 3.92625,-0.3093 6.42414,-0.55674 8.96967,-0.3093 3.07134,0.29878 6.58188,2.35624 6.80458,5.56738 0.31919,4.59247 -6.76195,6.32746 -10.69311,7.6 z m 21.69438,2.78358 5.83334,-1.23731 m 66.80845,1.23742 -3.71159,4.94878"
       id="path177"
       sodipodi:nodetypes="cccccccccccccccsccccccccccccccccccccccccccccccccccccccccccccccccccccscccccccccccsscccccsccsccccccccccccccccccccccccsccccccccccccccccccccccccccccsccccccccccccccccccccccccccccccccccccccccccccssccccccccccccccccccccsssccsccsccccccccccccccscccccsccccccccccccccccccccccccccccccccccccccccccccccscccccccccscccsccccccccccccccccccscccccccsscccccsccccscccccccccccscccscccccscccccccccccccccccccccccccsccccccccccccc" />
  </g>
</svg>
