<?xml version="1.0" encoding="UTF-8" standalone="no"?>
<!-- Created with Inkscape (http://www.inkscape.org/) -->

<svg
   version="1.1"
   id="svg59"
   width="3000"
   height="1998.207"
   viewBox="0 0 3000.0001 1998.207"
   sodipodi:docname="ZachW - Stake - Envelope30.svg"
   inkscape:version="1.2.1 (9c6d41e410, 2022-07-14)"
   xmlns:inkscape="http://www.inkscape.org/namespaces/inkscape"
   xmlns:sodipodi="http://sodipodi.sourceforge.net/DTD/sodipodi-0.dtd"
   xmlns="http://www.w3.org/2000/svg"
   xmlns:svg="http://www.w3.org/2000/svg">
  <defs
     id="defs63" />
  <sodipodi:namedview
     id="namedview61"
     pagecolor="#ffffff"
     bordercolor="#000000"
     borderopacity="0.25"
     inkscape:showpageshadow="2"
     inkscape:pageopacity="0.0"
     inkscape:pagecheckerboard="0"
     inkscape:deskcolor="#d1d1d1"
     showgrid="false"
     inkscape:zoom="0.30515286"
     inkscape:cx="843.83938"
     inkscape:cy="393.24554"
     inkscape:window-width="1366"
     inkscape:window-height="705"
     inkscape:window-x="-8"
     inkscape:window-y="-8"
     inkscape:window-maximized="1"
     inkscape:current-layer="g65" />
  <g
     inkscape:groupmode="layer"
     inkscape:label="Image"
     id="g65">
    <path
       style="fill:none;stroke:#8e868d;stroke-width:0.555544"
       d="M 18.142276,13.451654 C 22.635415,11.796296 29.899058,7.6843722 34.253088,7.3406565 m 3.333271,11.6664495 c 0,0 0.879151,-13.9804726 3.998013,-11.4221678 4.282042,3.5124228 4.89071,14.1998938 4.89071,14.1998938 m -34.999348,1.666635 c 2.493454,1.96852 7.792744,1.561749 6.110997,-2.22218 C 15.241331,15.952107 9.2652197,16.787591 6.1054453,12.803499 2.5242345,8.2880277 11.568455,9.1705666 13.697915,9.5628372 m 38.332617,0.5555448 c 0.831635,4.151881 2.102424,8.177784 3.333272,12.221995 m -1.794642,-6.239851 c 2.326636,-0.7431 2.836714,-1.685045 3.416916,-4.528006 m 10.599723,-1.454138 c -2.659871,4.249426 -2.841693,7.522009 2.22218,6.110998 -1.379037,2.701526 -1.349292,8.150707 3.333271,7.222087 m 34.443808,-1.11109 c -0.88499,-3.057332 0.3311,-9.697208 4.43287,-11.653023 l 5.01139,13.319659 M 38.435039,13.004339 c 0,0 7.211337,-0.05718 9.151135,-0.10823 M 102.0296,23.451467 C 99.858533,24.13701 97.275248,24.969495 95.640833,22.803313 93.980864,20.60302 93.281431,9.6041144 98.69633,13.451654 M 26.113396,10.059979 c 0.175885,2.227625 1.064268,8.394137 1.473149,10.613763 m 93.887145,4.444361 c 0.97164,0 1.84774,0.0624 2.77772,-0.09261 8.86402,-1.477448 -11.71642,-8.979361 0.65132,-11.57384 m -4.3151,0.434859 -12.49298,1.799778 m 25.04548,-1.679092 c 0,2.822781 2.17996,10.086923 2.77773,13.333085 m 56.11007,-13.333085 c -1.25276,1.252865 -3.14828,2.672061 -3.14828,4.444361 0,3.160553 3.24709,1.62373 5.55148,1.148461 -1.76017,3.102469 -0.31966,6.60627 3.15225,4.406992 M 71.474616,14.562744 69.807981,16.22938 m 105.387999,7.048022 c 0.75832,-1.517027 7.47323,-6.425534 6.55436,-8.066503 -1.28609,-2.29668 -8.99847,-0.06885 -9.80442,1.638877 l 5.63783,12.712689 M 227.02727,16.22938 c 2.87328,-0.529324 7.75263,-1.666636 9.99982,-1.666636 m -97.77596,1.111091 c 0.8679,3.602011 2.19551,8.088319 2.22218,11.110904 M 134.42174,20.7518 c 3.32468,0.939695 5.90968,0.355456 8.71821,-1.189149 m 18.33299,-3.888816 c -2.11607,2.297401 -3.58771,5.838502 -3.33327,8.888723 0.37943,4.555804 4.76324,6.707042 8.33318,3.888816 M 221.47182,17.34047 220.91627,28.451374 M 203.36872,14.522055 c 0,0 12.18265,3.509791 10.04769,7.170168 -1.10331,1.891464 -8.0554,4.259198 -8.0554,4.259198 z m 26.75045,1.226519 0.79692,11.036165 M 53.745771,16.23531 c 2.613052,4.159476 4.384369,3.899836 6.10422,3.37001 m 115.176159,3.721529 c 5.05743,3.826929 6.98271,0.144082 9.64914,0.124618 m -81.5346,26.110624 c -1.23492,-4.447762 0.69204,-7.861594 2.2107,-12.021309 l 5.56694,13.132401 M 92.585336,39.006734 c -0.730545,3.964981 0.951649,7.041368 0.555543,10.555357 -0.712765,6.323215 -9.147608,-4.685024 -10.555357,-6.666541 m 86.109508,-3.888816 1.11024,9.032556 c 0.13362,2.65028 0.60528,4.772574 1.11194,6.522708 M 7.0313726,39.562279 10.179481,52.895362 11.475734,57.895269 M 63.604209,40.951141 c 1.109037,2.829088 -5.199862,12.14663 0.648321,11.203514 4.870113,-2.288599 -4.882847,-6.649104 -6.167744,-9.660194 -0.722799,-1.693843 4.215555,-2.474691 5.519423,-1.54332 z m 85.646731,10.277585 c 0,-3.148274 -0.26888,-7.831519 1.66664,-10.555357 3.62938,2.157903 4.06715,6.62221 6.66654,9.444266 1.98941,-2.799836 1.11109,-6.992652 1.11109,-10.980353 m -31.66607,2.091632 3.33327,11.110904 M 40.364083,43.451094 c 0,0 4.444363,-1.111092 6.666543,-1.666636 2.11706,-0.529265 -2.860185,8.568389 -3.888816,10.55536 0,0 5.561009,-1.391532 8.333179,-2.777727 m 64.998791,-7.777633 c 0,5.758004 0.02,12.644096 6.66654,7.222089 m 19.99963,3.333271 -3.79208,-12.208568 -3.98556,10.541933 m 27.77727,-6.110998 c 2.31939,-0.67132 12.20088,-1.666635 14.44417,-1.666635 m 71.27792,-0.89605 c -8.13683,5.856668 0.76519,7.186264 3.20654,5.661701 -4.4157,3.854087 -3.13688,8.548537 2.18078,8.567432 M 22.586638,44.562185 30.364271,43.728868 c 1.178402,3.36461 1.803986,6.764605 2.222181,10.277586 M 19.253367,49.562091 c 0.884039,1.768021 1.27531,6.110998 -1.666636,6.110998 -2.618895,0 -4.00137,-4.264812 -3.796207,-6.110998 0.105165,-0.946816 0.408159,-1.792188 0.462936,-2.777728 0.06267,-1.128252 0.115109,-1.731687 0.555545,-2.777721 1.680191,1.680189 3.225885,3.118548 4.444362,5.555449 z m 83.635433,-5.301621 6.80827,-0.796918 m 129.5522,0.54309 c 0,3.72837 0.60443,5.498504 -1.11109,8.333176 l -7.22209,-7.222089 m -26.2034,2.222182 c 1.46608,3.234548 -3.70547,8.11892 -8.7934,9.44257 l -8.14075,-10.403894 c 3.65547,-1.963086 15.12474,-3.032158 16.93415,0.961324 z m 5.79051,4.580819 c 17.95296,-5.573509 1.66883,-7.43026 -1.01103,-6.280256 -0.16954,3.237109 0.8093,6.625233 2.53538,9.477067 m -68.8876,-8.888722 c -2.02034,0.06923 -4.02278,0.07135 -5.72735,-1.043549 m 87.39249,1.043549 2.22218,6.110999 m -16.43356,-0.397492 c 3.78097,0.944057 7.26463,1.219164 9.76702,-0.7136 m -56.66561,16.666357 c 0.95638,6.088315 0.73562,4.454808 2.77773,10.555357 m 38.33262,-10.555357 c -2.86619,0.481824 -8.60786,0.01492 -5.64823,7.777634 0.66276,1.927185 4.6238,2.218292 6.20377,3.240494 3.31494,2.145514 0.88332,4.373252 -1.66664,5.648228 m -9.99981,-16.110813 0.0928,5.555455 3.79604,9.444266 M 90.9187,69.006174 c 0,3.521602 0.233883,5.139346 -1.111092,8.333179 -2.48162,-1.949964 -1.54775,-5.16935 -4.999907,-7.222091 -1.808299,2.545511 -1.666635,6.233776 -1.666635,9.44427 m 26.110624,-2.777727 c -1.83111,-5.493327 -3.35185,-7.556764 -7.29392,-11.076165 l -3.816984,11.631713 m 15.555264,-7.222091 5.55546,-1.111088 m 38.33261,0 3.33327,11.110902 m 50.55462,-10.555358 c 7.75874,-1.429419 3.35771,4.048812 1.66663,8.333178 l 5.55546,-2.222179 m -93.88714,-6.110999 3.33327,7.777635 m 94.99822,-7.777635 c 0,0 4.56316,-0.429392 5.46268,1.203865 0.74414,1.351117 -1.57386,4.351586 -1.57386,4.351586 3.17217,2.587731 5.32546,6.202109 -0.55554,6.666542 M 147.02876,70.95058 c 3.89438,-1.352196 5.49657,8.07485 1.1111,9.537047 -2.1183,0.706095 -4.82769,-0.665546 -4.99991,-3.148274 -0.15833,-2.281625 1.73219,-5.639895 3.88881,-6.388773 m 12.31496,3.181811 c 5.18511,0.464788 8.15455,-2.209308 12.12903,-3.459581 m 12.222,0 2.77772,8.888722 7.79867,-4.0095 m 42.75595,-4.879222 c 0.0756,2.879388 1.74719,7.977627 2.22218,10.555358 M 20.364458,71.228354 c 0.583377,3.166608 1.646691,9.195941 2.777725,12.777541 m -7.222087,1.111088 C 8.6558423,88.74914 4.1514821,80.369296 6.6609908,74.006081 c 1.2719762,-3.225498 4.1345342,-2.454954 5.9258342,0 m 24.443986,-2.222183 2.499954,9.90704 c -4.798194,-0.315131 -6.0468,-5.117738 -9.251832,-8.536545 l -1.025752,8.073775 m 70.297092,-8.798207 c 3.714957,-0.120602 7.509107,-0.119781 10.054337,-2.033958 m -34.241179,1.943443 c 0,1.879406 1.253869,8.85761 -1.666635,9.351492 -2.974945,0.503324 -4.605469,-10.955908 -7.222087,-4.351585 -0.150768,-0.513299 -0.514219,4.862601 -0.640884,5.550367 m 50.881325,-13.386405 2.53636,7.836038 M 47.030626,72.89499 c -0.452767,2.685295 -2.472684,7.925685 0,9.166495 1.765525,0.81054 3.659931,-1.700522 4.444363,-3.055497 m 5.55545,-5.555455 c 1.42664,3.188833 1.761634,8.313737 4.444363,9.999814 m 76.109688,-6.110994 -1.11108,6.666542 M 599.1481,135.11605 c 0.56112,-4.97824 -7.50294,-8.81659 -11.82632,-9.31626 l 3.29227,14.1438 c 1.69914,-0.33737 8.31739,-2.90813 8.53405,-4.82754 z m -39.9048,-4.99991 8.88871,-2.22217 m 5.55544,0.55554 -2.7777,3.88882 c 1.06107,2.3871 5.19586,0.52517 5.79585,0.769 -2.11275,3.54981 -3.11815,8.54638 3.09286,4.78645 m -28.3328,-8.88872 2.22216,9.99981 m -73.8875,7.77763 c 8.74705,-4.8338 -6.51708,-13.00031 3.33328,-16.11081 m 34.44381,0 3.88881,10.55536 m 6.11101,-1.11109 2.77769,-9.44427 c 3.24328,2.37829 2.8622,7.60875 6.66655,9.99982 2.05275,-3.39161 -0.88457,-7.24075 2.22221,-9.99982 0.99564,-0.88421 0.68552,1.01943 1.29606,2.77773 0.9761,2.8105 2.29387,9.44427 6.48154,9.44427 l 1.11111,-1.1111 m -43.33253,-10.55535 3.8888,13.33308 3.88885,-2.77773 m 51.0498,-12.69754 0.6159,9.91982 m -88.76322,4.57751 c -5.51015,3.84966 -7.29699,-0.98794 -7.90165,-4.02197 -1.62997,-3.15827 -3.11106,-4.78102 1.11107,-7.77763 M 334.2475,157.33786 c 1.9394,0.15333 7.89929,2.13496 7.68485,-1.66663 -0.28166,-5.00436 -10.3148,-11.83423 -11.38867,-16.66636 -1.07109,-4.82047 4.23381,-6.25766 8.14818,-3.88882 m 95.55377,8.88873 c 0.6072,-3.29661 2.15775,-8.58818 6.02668,-10.21005 l 6.1953,12.98777 m 4.44438,-12.22199 2.22216,9.99981 m 3.88881,-9.99981 c -1.36723,2.17845 -1.83143,4.8385 -4.7405,6.19464 m -57.56079,5.29774 c 2.46939,-1.42942 7.75567,-5.91415 7.30234,-8.71465 -0.64887,-4.01104 -8.18152,-0.57536 -9.09953,1.60517 l 3.54408,11.72791 m 11.1109,-2.77773 c 1.76444,0.51055 6.3171,1.14665 5.4627,-2.22218 -1.20998,-4.77435 -9.27207,-5.74545 -1.57389,-9.99981 m 4.99991,3.88881 12.77754,-3.88881 m -48.33242,1.66664 c -4.49461,6.75561 -1.87188,8.10026 2.77772,4.9999 -1.22644,1.96323 1.21535,10.22941 5.926,4.99991 0.59528,-0.66085 0.90943,-1.44887 1.29609,-2.22218 m 82.15117,-6.98597 -5.62435,1.40034 m -108.1929,0.58572 c 0.77332,1.7283 4.93213,12.71476 0.55555,12.037 -4.23881,-0.65666 -4.5927,-6.05958 -7.22209,-7.76121 l -2.22218,6.27957 c -3.45327,-1.99941 -3.60827,-4.66658 -4.99991,-7.77763 m 90.21866,-3.54973 c 3.40715,0.29912 6.81642,0.60682 9.75261,-0.97795 m -23.73189,-0.38265 3.20357,8.79914 m 33.88824,-4.99991 c -1.93404,0.25957 -3.67051,1.69059 -6.02226,-0.8935 m -77.30949,8.67114 c -4.69803,1.12807 -4.56781,-1.97719 -3.31236,-6.19549 -0.99311,1.07558 -1.5231,1.65724 -3.35418,2.12168 -4.22326,1.07053 -2.74717,-5.6649 0,-6.48155 m 267.77277,30.55499 c 1.16111,-0.33555 3.1444,-1.12887 2.49996,-2.77773 -0.78886,-2.0133 -5.2777,-3.33327 -5.2777,-3.33327 0,0 -2.41662,-4.74878 -0.62686,-6.20604 1.6383,-1.33396 5.53415,-1.33143 7.04483,-1.45091 m 29.13696,0.43486 h 4.9999 l 5.46098,-0.27777 -0.46107,6.94431 m -22.77737,-4.44436 c 2.06109,-0.64999 4.97428,-2.65275 5.55544,-0.55554 0.86869,3.13482 -3.5166,4.11103 -2.7777,7.22208 2.14538,-0.24376 4.25138,-1.20879 6.31305,-1.88309 m -18.53507,-4.50568 c 3.23886,-1.64496 7.01654,5.45824 3.88884,7.87041 -0.82777,0.63722 -1.80555,0.69999 -2.77774,0.74055 -4.72212,0.19666 -6.19434,-6.03045 -1.1111,-8.61096 m -48.33243,1.94441 6.11101,14.44418 m 8.33318,-2.77773 c -7.3832,0.71777 -5.13324,-7.97651 -2.22217,-11.66645 3.45548,2.00052 10.22756,10.88813 2.22217,11.66645 z m -67.22096,3.33327 c 1.11106,0.46777 5.06657,1.02332 3.61101,-1.57386 -1.76105,-3.13605 -12.41197,-4.73658 -4.16658,-10.46314 0.8561,-0.59443 1.82775,-0.94553 2.77774,-1.29608 m 43.33252,0.55554 3.33327,11.66645 m 27.77728,-9.44427 4.9999,-2.22218 m -77.77634,3.33327 c 2.76662,-0.50943 7.99985,-1.66663 10.55535,-1.66663 m 7.22211,0 c -2.53466,4.83916 -1.24198,6.04236 3.54531,4.85099 -5.00699,6.22008 -1.92938,6.20621 2.01013,5.70437 m -77.41756,1.09143 c 13.93962,-9.28613 2.41604,-9.9383 -3.64943,-9.15832 l 5.51286,13.62234 m 27.68448,-8.33318 c 0.6972,-3.9277 -13.90128,-5.04257 -13.90128,-5.04257 l 5.36386,11.74924 c 0,0 8.25742,-5.12836 8.53742,-6.70667 z m -54.90623,-4.9999 1.66664,10.55535 -8.33318,-4.9999 c -1.63605,2.30218 -0.55553,5.10768 -0.55553,8.33318 m 92.42644,-15.92785 3.12732,11.48348 m -142.86296,-3.67462 c -7.22578,2.68814 -1.73363,5.63447 2.60708,5.93948 -2.64557,1.3147 -6.17193,3.73741 -4.37083,6.62387 0.87998,2.51439 4.56879,-0.7111 5.74042,-1.66664 m 7.77765,2.77773 c 6.22542,-0.65555 0.32553,-6.57877 -0.92611,-8.88873 -1.27606,-2.35606 1.11777,-2.73883 2.59274,-2.77772 m 22.77733,0.18499 c 4.69937,-1.56608 4.18551,7.3882 1.1111,8.51874 -6.35042,2.33439 -6.85153,-6.60488 -1.1111,-8.51874 m 43.84214,0.77524 c 4.27421,1.42827 7.19091,0.29244 10.04577,-0.96023 m -71.66533,2.22218 c 2.4905,-0.78665 6.16764,-1.66664 8.33318,-1.66664 m -45.55471,12.77754 -2.4351,-13.28872 c 6.04576,-4.34183 18.10433,1.71402 1.4588,6.96099 m -11.24569,10.21655 -6.90695,-13.79812 c -0.0271,-3.04553 4.97477,-5.51374 8.01804,-4.71987 5.27601,1.37609 -0.64847,11.21985 -4.32173,11.99317 m 56.55017,-9.48108 3.32607,8.22827 m -127.77539,-2.77773 c 1.44942,-0.11444 2.75273,-0.53221 4.44437,-0.55554 1.18831,-0.0167 2.07607,-0.0928 3.33327,-0.0928 1.04776,0 1.72719,-0.0422 2.1294,1.20387 0.88276,2.73105 -1.65495,5.45726 -3.21558,7.51134 3.81271,0.63538 12.29341,2.5291 9.41935,4.71065 l -6.21728,4.71923 m 72.50208,-17.06584 c 3.75194,3.45594 9.57011,1.90097 11.61529,-2.26655 m -99.0108,1.83562 c 1.73496,3.87826 2.8955,9.73926 6.11099,13.33308 m 19.99963,-13.33308 c 0.26444,3.3466 2.15274,10.15092 3.33327,13.88863 m 17.2219,-13.88863 c 0,2.95606 0.49722,7.70541 2.22219,10.55536 m -9.99982,-0.185 c -1.37442,0.28277 -2.45884,-0.97831 -3.0555,-2.03718 -1.0522,-1.86774 -0.50276,-4.81213 0.27778,-6.66655 2.46106,0.71222 7.57319,7.71597 2.77772,8.70373 z m 205.55171,9.81426 c 3.84439,-1.12164 9.29429,6.346 2.77774,8.51874 -6.86654,2.28829 -9.49982,-6.55766 -2.77774,-8.51874 m -22.77737,0.37055 c 0.10392,1.31276 0.32725,2.11719 0.64833,3.33328 2.44774,9.27538 7.54211,-0.52999 8.79596,-3.33328 l 4.44437,12.222 m -42.22146,1.11109 c 1.70388,0.67276 4.7627,-0.28889 3.70385,-3.33327 -1.09165,-3.13828 -7.40766,-3.98159 -7.40766,-3.98159 -3.94363,-3.62387 6.28809,-5.40234 6.28809,-5.40234 m -34.80589,3.27293 c -2.58108,4.83435 -4.54704,9.95398 -6.66654,14.99972 m 18.88852,-11.66645 c 4.19659,0 6.68488,-0.84276 10.55539,-2.77773 1.95163,2.74718 1.66663,5.81656 1.66663,9.44427 m -51.6657,-4.44436 c 3.64601,-0.67165 9.63315,-3.33327 12.22198,-3.33327 m 69.44317,1.11109 c -2.97387,1.65562 -5.73598,3.70059 -8.88876,4.99991 l 3.11586,-10.63116 c 0.92057,-3.1409 -5.67264,0.2708 -8.67129,1.18689 m -50.5546,5.55545 8.88871,8.33318 m -56.11003,2.77772 c -1.99518,-5.41547 -3.74777,-5.72576 -6.81743,-10.62095 l -3.73795,10.62095 m 17.22192,-8.88872 c -3.62385,4.59047 1.23551,4.66158 3.88879,7.31487 1.63776,1.63774 0.88444,2.30884 -0.55553,3.24049 m 28.67838,-14.13956 5.20986,11.91738 m -71.10978,-5.55545 c 0.92632,3.87877 1.60395,11.10933 8.75817,6.66823 m -20.98016,-6.11269 c 1.40863,2.78578 1.28929,10.78352 8.0311,6.83892 m -12.47547,0.93872 -8.35089,-9.85948 c -1.8147,3.74474 -2.64001,8.05229 -0.53783,11.52611 m 43.89001,-8.82838 8.54577,-1.02583 m -76.04548,2.97024 c 2.78217,-0.54649 6.64865,-0.64457 9.16553,-0.24534 5.18768,0.86443 2.83406,7.23166 -1.58041,12.03151 z m 22.45266,2.43961 c 3.96124,0.53126 6.21144,-1.40897 8.79959,-2.86104 m 66.80052,4.52768 c -0.0756,2.8755 -1.32777,4.84657 -3.88884,6.66654"
       id="path177"
       sodipodi:nodetypes="cccscccscccccccccccccccccccsccccccscccccscccccccccccccccccccccccccccscccccccccsccccccccscccccccccccccccsscccsccccccccccccccccccccccccccccccccccccccccccccsccccccccccccccccccccccccccccccccccccccccccccccccccccccccscccccccccccccccccccccccccccccccccsccccccccccccccccccccccccccccsccccccccscscccccccccccccccccccccccccccccccccccccccccccccccccccsccscccccccccccccccccccccccccccccccccscccccccscccccccccccccccccccc" />
  </g>
</svg>
