<?xml version="1.0" encoding="UTF-8" standalone="no"?>
<!-- Created with Inkscape (http://www.inkscape.org/) -->

<svg
   version="1.1"
   id="svg1669"
   width="2305.3333"
   height="980"
   viewBox="0 0 2305.3333 980"
   sodipodi:docname="ZachW - Stake - Envelope53.svg"
   inkscape:version="1.2.1 (9c6d41e410, 2022-07-14)"
   xmlns:inkscape="http://www.inkscape.org/namespaces/inkscape"
   xmlns:sodipodi="http://sodipodi.sourceforge.net/DTD/sodipodi-0.dtd"
   xmlns="http://www.w3.org/2000/svg"
   xmlns:svg="http://www.w3.org/2000/svg">
  <defs
     id="defs1673" />
  <sodipodi:namedview
     id="namedview1671"
     pagecolor="#ffffff"
     bordercolor="#000000"
     borderopacity="0.25"
     inkscape:showpageshadow="2"
     inkscape:pageopacity="0.0"
     inkscape:pagecheckerboard="0"
     inkscape:deskcolor="#d1d1d1"
     showgrid="false"
     inkscape:zoom="0.37113906"
     inkscape:cx="956.51479"
     inkscape:cy="656.08831"
     inkscape:window-width="1920"
     inkscape:window-height="1058"
     inkscape:window-x="-6"
     inkscape:window-y="-6"
     inkscape:window-maximized="1"
     inkscape:current-layer="g1675" />
  <g
     inkscape:groupmode="layer"
     inkscape:label="Image"
     id="g1675">
    <path
       id="path2084"
       style="fill:none;stroke:#52424f;stroke-width:0.8016"
       d="m 553.45218,422.36086 c -0.68625,0.89966 -1.44451,1.73317 -1.99713,2.72739 -0.87212,1.56902 -1.43925,3.73209 -0.7444,5.46296 2.21507,5.51776 14.0711,-5.28868 3.44961,-7.76572 -0.84412,-0.19687 -1.52065,-0.0884 -2.40566,-0.19598 m -8.50602,-2.0578 c 1.58055,4.39436 0.42537,11.96797 2.74153,15.53962 m -10.14009,-13.62065 c 4.34751,-0.26781 -0.91437,10.63261 4.33021,8.91712 1.88319,-0.61601 3.27438,-2.3305 4.194,-3.98494 m -30.26994,-3.8324 c 1.75543,-0.54959 8.30301,-2.21441 9.22322,0.6451 0.7192,2.23493 -1.20874,4.09127 -2.34211,5.80593 -0.16696,0.25254 -2.8958,3.0714 -2.9322,2.5804 -0.16415,-2.21525 14.77249,2.24411 14.54288,-2.04146 m -28.81343,1.723 c 0,2.37536 3.22954,2.77359 4.95656,1.51884 2.88803,-2.09825 1.9223,-6.13431 -1.67034,-6.73683 -2.2821,-0.38272 -4.27554,1.56681 -6.5452,0.51445 -0.15873,-1.6929 -0.0504,-3.62875 0.18155,-5.37313 2.01965,0.0591 4.45835,0.50402 5.90977,-0.98807 m -26.79815,2.33544 c 3.69844,3.8967 9.57292,1.85517 13.08137,-1.24121 0.85366,3.94428 0.72602,9.21625 1.92451,12.61624 m -32.02597,-12.2349 c -2.00439,5.72763 -2.31438,14.14769 -5.13811,18.68347 m -5.93701,-17.41777 c 3.2547,4.0447 6.63263,9.27832 11.08419,12.06097 m -18.10146,-10.11749 c 3.10047,4.21835 2.98925,11.2575 5.21985,15.15582 m -16.00444,-11.718 c 5.55873,-2.50488 13.53859,-4.02685 18.36471,-5.57728 m -22.17788,12.93471 c 0.38787,3.17085 0.64687,6.08127 -2.70522,7.24312 m -12.93608,-4.7117 c 1.18241,3.15812 8.51777,0.55304 6.75398,-2.43343 -1.22444,-2.07326 -4.92381,-2.63535 -5.38324,-5.37313 -0.273,-1.62708 1.76748,-2.48301 2.82327,-1.80465 m -9.62264,2.12312 c -3.49105,-4.88228 -5.26568,7.49317 -2.55998,5.84675 1.36562,-0.83098 2.4006,-3.6873 2.86863,-5.16082 0.0759,-0.23895 -0.30151,-0.93655 -0.30865,-0.68593 -0.0946,3.3188 2.45521,8.64899 5.9642,3.94411 m -35.37054,-2.05563 c -2.55035,-3.32456 -6.49974,4.33421 -4.51174,5.91208 1.96832,1.56225 4.04435,-7.04722 4.51174,-5.91208 0.59999,1.4572 -0.76857,3.44684 0.43574,5.10366 2.92003,4.01721 7.7161,-0.83002 8.96903,-3.69096 0.58895,-1.34482 3.3494,-8.73754 0.17248,-9.34991 -2.20643,-0.4253 -3.93019,12.43166 1.38892,13.04904 3.41875,0.3968 6.44412,-2.53322 7.28053,-5.62627 0.10146,-0.37521 0.77448,-5.56984 -0.62638,-4.84236 -4.3146,2.24063 -2.59959,14.8279 4.66607,9.48056 m -55.41186,-7.73306 c 5.82437,-5.96586 26.76104,1.64558 18.71875,10.38696 -1.69954,1.84728 -15.62622,6.05495 -13.84389,1.86182 m -2.72338,-12.84489 c 2.8525,4.02847 2.57584,10.14757 4.98379,14.15142 m -50.56841,-47.14925 c 1.32379,4.50871 0.57009,12.75612 3.16821,16.06223 m 6.1367,-16.33987 c 0.99084,0.52873 10.33311,1.87114 10.38518,2.07413 0.39722,1.54831 -6.65565,5.43322 -5.65556,5.85491 1.64201,0.69236 7.93791,-0.0263 8.66945,1.66584 0.85249,1.97188 -8.78295,7.02735 -7.21698,2.46609 m 10.17639,-12.65708 c 1.92398,4.0158 1.50168,9.17759 3.51317,13.04087 m 10.01256,-14.0748 c -0.72132,0.7717 -1.22553,1.74479 -1.58864,2.73556 -0.33552,0.91549 -0.66176,1.82943 -0.91687,2.76822 -3.87695,14.26667 14.43602,-5.50378 2.50551,-5.50378 z m 11.52901,-2.31911 c 1.383,5.20408 2.38153,10.97194 4.46635,15.90709 m 16.08714,-13.5203 c 1.86401,3.70813 4.43173,7.06137 5.55571,11.10557 0.0681,0.24488 0.39801,1.41396 0.17248,1.61683 -0.036,0.0324 -1.5125,-3.4984 -1.67942,-3.87878 -1.39247,-3.17315 -5.18048,-9.53704 -1.50695,-12.42843 7.06967,-5.56442 8.25587,12.83295 -1.3163,7.91272 M 386.181,397.5968 c 0.67975,0.44346 1.20269,1.03195 1.63403,1.71482 5.17433,8.19181 -2.56666,2.49399 0.68084,-2.06596 0.77752,-1.09173 2.2517,-1.23211 3.47686,-0.85741 1.81784,0.55596 10.03654,-0.31362 7.94321,-2.19662 -2.09285,-1.88257 -8.18011,11.02417 2.25134,7.89639 m 7.78889,-7.31661 c -11.16022,2.22617 7.02249,5.83442 -0.28142,8.73746 -1.04653,0.41596 -2.37716,0.30731 -2.95941,0.0572 m 5.7189,-4.66059 c 5.79316,0.50708 11.57883,-3.84747 17.07566,-3.45416 m -12.60929,-4.82602 c -0.33294,4.70493 0.31669,10.32288 3.43145,13.84929 m 10.04932,-8.6803 c -1.15157,-0.0797 -2.0938,0.57342 -2.95035,1.27387 -0.76917,0.62899 -1.47852,1.33624 -2.13329,2.08229 -5.59911,6.37961 7.66695,4.51193 4.41186,-0.53078 -0.79194,-1.22686 -2.39505,-2.32322 -3.76736,-2.44159 m 7.50546,0.91088 c 0.67767,0.37875 1.27475,0.93346 1.70665,1.58417 0.88696,1.33639 1.94801,2.53627 2.16964,4.18092 0.005,0.0391 -0.0106,0.69498 -0.0365,0.66143 -1.41824,-1.84279 0.5206,-6.59296 3.1319,-6.05089 3.12223,0.64811 3.36194,4.49879 6.88111,4.40139 m 14.99985,-10.24039 c 1.54177,0.85378 2.43035,2.34592 3.38607,3.76446 0.75377,1.11876 1.6574,2.18466 2.22411,3.41332 7.71335,16.72325 -11.66596,-9.44447 1.87004,-9.78269 1.45677,-0.0364 4.07655,0.86158 3.70382,2.82538 -0.46978,2.47516 -6.91597,5.83248 -6.92649,5.93658 -0.2613,2.58558 9.89067,0.50407 11.24758,-0.90641 m 2.26042,-7.63507 c 1.47306,0.0751 2.89131,0.49734 4.31206,0.86558 1.69227,0.43861 3.39654,0.82823 5.05641,1.38003 0.96912,0.32216 1.96811,0.8284 2.81418,1.39636 10.82633,7.26759 -11.06972,9.41049 -8.63314,5.52012 m -1.162,-7.33294 c 1.05396,3.32095 2.7064,6.47389 4.33021,9.53771 m 33.26623,-14.08265 c -0.76311,-0.35807 -1.6169,-0.41817 -2.45105,-0.33479 -1.18363,0.1183 -2.47433,0.8657 -3.25898,1.75565 -3.74086,4.24281 10.8508,7.55702 9.11425,9.84802 -1.73477,2.2887 -10.12351,1.31431 -8.05215,-1.73933 m 8.76931,-5.20981 c 4.60313,-0.65534 9.02759,-2.48347 13.50801,-3.3725 m -7.72536,-0.35113 c 1.63437,3.27 2.55077,9.71025 4.92029,11.33421 M 545.67692,386.901 c -1.62695,0.47715 -6.1027,3.21927 -4.076,5.42213 1.09791,1.19333 4.37746,1.44669 5.89158,1.32287 0.82125,-0.0672 3.17906,-0.75214 2.44201,-0.3838 -5.59135,2.7942 -6.43755,8.31208 1.39797,4.98934 m 17.22811,-10.04451 c 1.32536,4.17367 1.77363,8.93808 2.92308,12.97554 m 4.25759,-13.75946 c 0.89612,4.05799 1.67339,8.35312 3.79455,11.98747 m 7.66602,-12.03184 c -0.9234,1.11788 -1.62856,2.3721 -2.21504,3.69096 -2.34886,5.28216 3.54433,9.69375 6.99004,4.62188 2.56282,-3.77236 -1.46062,-11.23339 -4.775,-8.31284 z m 10.49411,3.6583 c 3.99371,1.94694 8.11649,-0.63753 12.09183,-0.53078 m 59.14637,-2.64331 c 2.9036,0.8389 5.92899,0.0825 8.76023,-0.6451 0.12713,-0.0327 1.81367,-0.65679 1.88824,-0.52262 0.15623,0.28107 -2.42076,11.40251 -2.21503,13.25318 M 648.654,387.38116 c 1.1947,-0.30485 2.44629,-0.23724 3.66747,-0.35929 16.46107,-1.64524 0.29048,6.61484 0.0908,11.2852 -0.13842,3.23685 8.92383,-3.41672 9.82233,-4.53205 m -27.35187,-6.72049 c -0.79089,0.42844 -1.68778,0.8418 -2.37843,1.43719 -3.33084,2.87133 -2.09236,8.30343 2.90492,6.41836 4.5462,-1.71492 6.15377,-8.36649 -0.11801,-8.6558 -1.01587,-0.0469 -2.37393,-0.0562 -3.21359,-0.11433 M 620.4397,396.2329 c -1.94161,2.81149 3.64516,4.27756 5.14722,1.84549 3.94035,-6.37998 -7.96781,-7.11008 -8.95993,-8.00254 -0.3855,-0.34675 0.38053,-2.78648 0.47203,-3.22551 0.16119,-0.77328 0.32683,-1.54903 0.32683,-2.3436 1.29859,0.15033 3.00727,0.4516 4.03061,0.76759 m -41.67952,-22.20965 c -0.0153,-1.28874 -0.61536,-2.37984 -2.04252,-2.20478 -2.16918,0.26607 -4.21335,6.46624 -0.56285,3.59298 1.60914,-1.26651 7.28103,-12.83457 4.87486,-13.37567 -2.8127,-0.63253 1.09694,15.59722 1.6885,17.0503 m -20.94305,-6.35709 c 1.03097,0.36272 2.37384,0.43215 3.46781,0.19598 0.65837,-0.14214 4.55926,-1.44965 3.80367,-2.80905 -0.13018,-0.23415 -0.36768,0.39324 -0.581,0.55528 -1.1343,0.86161 -3.22102,2.93058 -2.84142,4.58104 0.25926,1.1271 3.04596,1.13006 3.88537,0.97174 m -16.64898,-11.18722 c 1.74385,4.66614 3.31035,10.62633 5.52848,14.61688 m -6.60874,-5.97741 c 3.20062,0.19121 6.40403,-0.13826 9.05979,-2.07412 m -15.92274,-2.50692 c 0.85006,-0.85627 1.41557,-0.87079 2.34211,-0.18781 m -1.61587,3.78079 c -0.81099,1.96213 -1.77579,4.13378 1.35263,3.43782 m -19.2725,-5.79776 c 0.21828,-0.20879 2.27106,7.99152 2.37842,7.79839 0.96366,-1.73367 0.96841,-4.45724 1.70665,-6.40203 0.0989,-0.26044 0.29133,-0.96207 0.42665,-0.71859 0.39126,0.70386 0.79597,5.29147 1.67941,5.29147 0.49282,0 4.31511,-5.51323 4.46638,-5.27514 1.69604,2.66985 -0.16416,6.18109 3.71289,6.80216 m -19.38146,-9.26008 c 0.0674,-0.60968 0.52645,-0.79986 0.90783,-1.15139 m -1.33448,5.05467 c 0.0607,1.59384 0.75806,3.05953 1.57049,4.39323 m -17.45692,-13.67781 c 0.61362,4.36312 0.90627,8.83122 1.5251,13.22868 0.18754,1.33276 -0.12373,4.25343 0.71717,5.45479 1.94656,2.78102 8.89631,-3.57155 10.14917,-4.78519 m -39.12736,-5.90458 c -1.1774,-0.10506 -2.30941,0.48143 -3.10466,1.34737 -2.47875,2.69911 3.53979,3.2318 3.62212,5.60177 0.068,1.95853 -3.60435,0.94046 -4.06696,-0.10615 m -14.95137,-3.79713 c 1.19238,1.38413 2.88779,0.88561 4.38464,0.30214 0.46409,-0.1809 4.78578,-3.48087 3.10466,-3.98493 -2.6359,-0.79036 -7.71161,8.37 -1.8882,8.37 1.50135,0 3.26399,-0.89068 4.30294,-1.89448 m -13.71679,-6.11623 c -8.15764,0.12373 -6.40416,12.56925 1.71573,4.22175 m -10.35795,-7.47176 c 1.56637,3.78382 2.57826,9.95855 4.33929,12.62441 m -12.3642,-5.72426 c -2.05461,-5.16277 -6.1256,4.45053 -4.36652,5.11999 1.47407,0.56097 5.30951,-5.72927 5.356,-5.52012 0.49642,2.23271 -1.97155,5.22187 1.5251,5.65077 m -21.91204,-3.82685 c 3.46466,0.0166 6.90274,-2.08192 10.32164,-1.82915 m -8.27001,-5.07099 c 0.2042,4.8081 3.57186,9.4359 5.63741,12.95104 m -15.4144,-1.18405 c -0.28611,1.63058 4.1451,2.36555 3.72198,0.3103 -0.21824,-1.0602 -10.43876,-3.09635 -2.25134,-6.42652 0.88747,-0.36097 1.66037,-0.94407 2.52366,-1.32287 m -31.82209,5.00506 c 1.27182,0.18177 2.41951,-0.21262 3.41331,-1.0044 3.17472,-2.52937 2.82672,-5.11815 0.29957,-1.74749 -1.92647,2.56948 -2.41708,8.81071 2.54183,7.65957 1.77426,-0.41187 4.02045,-1.90606 5.21075,-3.28267 0.5826,-0.67381 1.18547,-1.22302 1.57956,-2.0333 0.1086,-0.2233 0.10589,-0.85199 0.2905,-0.68593 0.38806,0.34907 0.43504,6.49727 0.95318,8.51698 0.41639,1.62304 1.91271,2.87552 1.98808,4.6382 0.003,0.0576 0.0142,0.67209 -0.0545,0.62061 -1.38621,-1.03911 -1.91703,-13.11138 2.41474,-13.71863 0.61036,-0.0856 1.45787,-0.21369 1.9336,0.27763 2.45923,2.53987 -2.31882,5.34964 -5.37415,3.04587 m -25.60892,-1.64134 c 0.75626,0.007 1.53627,0.10228 2.23318,-0.26131 1.25002,-0.65216 2.24373,-4.16591 1.20736,-3.23367 -3.38917,3.04865 -2.61466,7.81197 2.4329,6.9573 m -23.6844,-4.10742 c 0.21196,0.76468 0.56987,1.47251 0.84425,2.21295 0.63017,1.70054 1.51205,3.29188 2.52368,4.79335 0.005,0.007 0.37714,0.51742 0.38127,0.50629 0.21286,-0.57442 0.93078,-7.22679 0.80794,-7.22679 -0.73908,0 2.20231,7.08236 6.89017,5.27514 1.8677,-0.72001 -1.14689,-6.62594 -0.31773,-7.90454 m -17.10288,-8.32917 c -1.32899,0.13114 -2.63721,0.64977 -3.85813,1.18405 -16.16367,7.07333 4.3961,8.07409 4.65699,14.17592 0.22012,5.14794 -8.80873,2.61949 -9.27767,-1.73932 M 270.89328,257.54662 c 0.1385,3.72168 -0.098,8.629 2.03346,11.718 m -19.54328,-10.75737 c 2.04975,0.17152 6.12938,1.19266 6.73584,3.59298 0.86628,3.42863 -6.17884,2.75095 -3.2953,2.97237 1.26929,0.0975 6.93009,1.07132 5.93699,3.50315 -1.45155,3.55443 -8.92498,0.24527 -5.55571,-0.99623 m -16.98486,-6.65517 c 0.80472,-0.34519 1.64809,-0.57743 2.44197,-0.94724 10.65448,-4.96313 -0.5598,8.07744 -0.36312,8.69663 0.80424,2.53203 8.83388,-3.95366 9.52278,-4.88318 m -24.51049,5.6426 c 1.14395,2.9935 6.56988,1.99832 5.88252,-1.78015 -1.84252,-10.12853 -13.3933,6.14052 -8.74208,-8.08419 1.25081,-0.3987 2.97028,-0.61296 4.10324,-0.46546 m -11.85581,0.45729 c 1.05521,4.13514 0.76128,10.49271 2.76877,13.74313 m -8.62406,-11.91398 c -0.457,7.02491 0.65582,8.5043 7.35315,4.52388 m -32.05549,-8.32403 c 0.10709,4.69767 0.27727,12.24996 3.57672,15.59678 m -15.09664,-8.01887 c 4.06863,-0.36896 8.04575,-1.39611 12.04645,-2.07413 m -10.14009,-3.40516 c -0.0512,4.10737 0.68397,8.49457 2.47829,12.03647 m -18.68244,-9.40707 c -1.69991,-2.37948 -3.74418,1.95549 -4.21217,3.397 -2.72198,8.38422 6.11082,7.48136 9.16873,1.86998 4.17227,-7.65625 -3.94238,-7.93136 -6.10946,-4.45039 m -13.14116,7.36905 c -0.70988,2.15195 -2.37423,4.59507 -3.56763,6.02639 m -18.77322,-17.3606 c -1.04398,4.50448 0.40667,9.00648 2.02438,13.00821 m 6.99911,-13.64515 c 0.39743,-0.46374 1.24392,0.20277 1.35261,0.22049 m -2.94126,4.80152 c 0.63067,1.545 0.98128,4.19771 1.47971,5.2588 m -15.17835,-1.80465 c 4.82586,-1.29381 10.65556,-2.96058 15.0331,-3.74812 m -19.16356,0.69409 c -1.94346,-3.6457 -5.13258,1.74448 -4.10324,4.21358 1.11046,2.66372 5.71003,-2.40206 5.71003,-4.14825 0,-1.00479 -1.14372,1.71637 -1.33446,2.7029 -0.39453,2.04065 -0.002,3.75366 2.38751,2.87438 m -20.025978,-7.4146 c 0.0515,0.92711 -0.0726,1.85059 -0.0726,2.77639 0,10.829 4.352018,-7.58124 6.300098,-1.32286 0.51846,1.66558 -0.0824,3.76847 0.18156,5.43029 m -20.909338,-7.07677 c 0.02,0.81668 -0.12969,1.61488 -0.0999,2.43343 0.0461,1.26511 0.51768,2.58814 0.9441,3.76445 1.55946,4.30182 2.22243,-2.72336 3.69473,-4.84235 3.16005,-4.54806 4.24174,0.36714 3.62211,3.45416 -0.14914,0.74299 -0.35145,2.21572 -0.41759,2.63757 m -15.72302,-9.52955 c 0.36483,0.063 0.74342,0.037 1.10751,0.0327 m -4.31203,5.6671 c -0.01,0.78944 0.68708,1.89404 0.9441,2.33544 m -8.86916,-7.20229 c -9.1692,1.65262 0.148713,17.41159 5.65557,8.24752 m -33.192595,-5.73495 c -0.466239,1.98663 -0.540564,3.97374 -0.580988,6.01007 -0.008,0.40367 -0.22281,1.96353 0.136166,2.28644 0.07939,0.0714 1.038243,-2.57715 1.116589,-2.79273 0.826097,-2.27299 1.894465,-5.19363 4.638836,-5.70793 2.521124,-0.47246 1.555136,6.11845 1.506941,7.20229 m -16.031673,-9.70104 c 0.39943,0 0.798861,0 1.198291,0 m -2.541829,3.74813 c -0.08628,1.67358 -0.32945,3.27918 1.270914,4.10742 m -11.311136,-8.32917 c 2.606277,-14.3787 -11.1299953,12.76518 -0.544677,13.69414 2.391804,0.2099 4.175408,-0.97861 5.55571,-2.76006 M 5.3738477,224.9255 c 1.899793,4.91531 1.711546,11.6594 4.139549,15.8091 M 20.552194,225.03982 c -0.896803,0.87103 -1.480083,2.16389 -1.815591,3.38883 -0.502066,1.83305 -1.194326,3.60179 -1.279993,5.52829 -0.525849,11.82538 20.93048,-9.06182 2.741544,-7.31661 M 36.9894,225.23842 c 1.570675,-0.0232 3.143924,0.31769 4.720537,0.13882 1.608376,-0.18248 6.931811,-2.79543 7.044499,-0.26131 0.160149,3.6015 -0.709723,7.34467 -0.118016,10.87692 m 9.246558,-11.03299 c 0.895645,-0.65546 1.998075,-0.91359 3.041115,-1.24938 1.611074,-0.51866 3.686819,-0.50479 5.219829,0.26131 4.24222,2.11999 -4.520456,7.33449 -4.702383,10.60744 -0.177363,3.19087 9.717943,-1.40618 10.948013,-2.53141 m 4.38866,-8.96729 c -0.0744,3.73365 6.60227,4.27774 9.39568,5.95291 7.23649,4.3396 -0.73756,8.89732 -3.9943,4.58921 -2.33384,-3.08728 8.78805,-6.777 7.65272,-9.41523 -1.1992,-2.78667 -9.75687,-0.0364 -11.05695,1.82915 m 28.301988,-0.97512 c 0.049,1.65279 0.54544,3.32796 1.17106,4.85868 0.61632,1.50794 1.55923,3.00027 2.48736,4.33607 10.7109,15.41555 3.64425,-11.61991 7.25329,-13.07353 m 12.81349,7.80732 c -2.41394,-3.61151 -6.72684,2.30241 -6.2184,5.0465 0.79588,4.29548 7.89219,-1.52053 6.48166,-1.94347 -0.39491,-0.11841 -2.66623,4.38778 1.61587,5.47112 m 5.86437,-13.74313 c -0.2643,2.74528 -1.75065,16.51167 3.7038,14.52705 m 4.54806,-12.77139 c 0.44574,0.10993 0.90147,0.17546 1.35262,0.23681 m -1.45248,4.14008 c -0.35075,1.21887 -0.63624,4.89137 1.13475,4.84236 m 10.70504,-5.72529 c -2.5178,-4.77248 -6.01955,4.66247 -4.03969,5.94474 1.9074,1.23535 3.5951,-1.78643 4.1577,-3.12752 0.2765,-0.65911 0.68085,-2.74805 0.68085,-2.0333 0,1.64166 -1.48661,4.07755 0.62638,5.24248 2.10074,1.15819 5.1423,0.0527 6.68137,-1.57601 0.65869,-0.69707 1.63404,-3.32715 1.63404,-2.3681 0,1.42119 0.15432,2.80769 0.15432,4.22175 0,5.07309 2.22433,-2.26092 5.04735,-2.58857 2.41525,-0.28034 0.21348,3.4881 3.63118,3.16018 m 3.3885,-4.34491 c 2.49165,0.92165 4.976,0.36603 7.35314,-0.51444 m -3.74919,-4.97301 c -1.43694,3.85624 0.0828,7.84426 1.54325,11.41586 m 13.4009,-10.06176 c 4.7865,0.0407 16.58964,-0.26462 17.74741,6.17338 1.17861,6.55392 -8.72007,8.76593 -13.11765,6.81849 m 0.68085,-10.60744 c -0.0907,3.89756 -0.44529,10.56362 1.67034,13.17152 m 15.63996,-9.64521 c 1.35571,2.47968 1.98435,6.52807 1.67942,6.41836 -1.60391,-0.57711 0.81439,-10.17468 6.16394,-7.11246 m 4.58437,-3.45416 c 0.48096,-0.4906 0.96089,-0.47007 1.51601,-0.53894 m -1.9336,4.53204 c 0.11703,1.10475 -0.61699,4.7203 1.28907,4.23808 m 7.01726,-7.63507 c 1.7318,1.21345 3.55693,8.82119 6.69953,7.52892 1.4341,-0.58972 0.77536,-4.37178 0.67178,-5.53645 -0.0624,-0.70189 -0.40851,-2.77879 -0.40851,-2.07413 0,0.61906 1.7586,1.8915 2.34211,2.04146 4.20737,1.08133 10.59721,-3.26161 8.09754,-4.31973 -2.78635,-1.17948 -6.26265,13.04592 4.36649,7.71673 m 3.24875,-42.69038 c -1.19541,3.28877 -0.29209,6.55838 0.0999,9.87252 0.041,0.34678 0.34362,4.30413 0.88964,4.00943 1.9238,-1.0383 -4.34535,-10.19637 -5.55571,-8.01887 -0.0338,0.0609 2.37405,-0.0891 2.64169,-0.15515 2.49949,-0.61648 4.99401,-0.30258 6.41812,-2.78455 m -15.60502,-1.674 c 3.00917,1.63268 -0.54794,-0.4297 0.70809,0.55528 m -12.00107,7.68406 c -2.23572,-5.31091 -7.81739,1.75675 -4.75684,2.77639 5.16659,1.72129 10.08602,-6.99725 8.13385,-11.21171 -1.75181,-3.78191 -4.8361,5.44531 -1.04397,9.7092 2.62308,2.9494 6.25686,0.21371 7.64364,-2.51509 0.0193,-0.0379 0.47056,-1.0239 0.50837,-1.01256 0.0338,0.0102 0.0789,3.21388 0.59006,3.72363 m -28.26952,-3.96121 c 0.97051,0.4407 2.07693,0.6332 3.10466,0.27764 6.23422,-2.15686 2.40229,-4.41117 0.95318,-2.85805 -1.24813,1.33773 -1.96695,2.96695 -2.44196,4.7117 -1.292,4.7456 4.63019,2.17761 6.80846,1.73116 m -22.44979,-3.00503 c 0.93235,0.90249 1.75297,1.90988 2.65076,2.84171 7.21411,7.48762 -2.97465,1.17365 0.57192,-3.49498 0.98188,-1.29253 2.69357,-1.55929 4.12139,-1.27387 m -15.16019,-4.27891 c -5.66199,-5.81909 -11.38647,10.08021 -4.39373,13.02453 2.18109,0.91836 4.31962,0.0225 6.11854,-1.25754 m -37.39664,-10.36719 c 0.15699,1.55591 0.28981,3.17157 0.10894,4.74437 -0.12062,1.04883 -0.0575,2.13679 0.0545,3.18468 0.13734,1.28478 0.82649,2.33315 1.48879,3.39699 2.65227,4.26033 3.8606,-6.99849 6.25471,-6.09172 1.99297,0.75483 1.2145,6.2401 1.94269,7.88821 m -19.05464,-2.7029 c -1.80152,3.74187 4.62317,3.48243 4.076,0.85742 -0.86564,-4.1529 -10.14002,-5.91651 0.36312,-9.71737 m -14.42487,1.73933 c -0.80912,-0.17353 -1.34933,-0.64985 -1.96084,-1.15139 -4.45339,-3.65247 -6.27676,7.74124 -3.27714,9.83986 1.74133,1.21829 8.12088,-8.46333 6.19117,-8.6803 -1.0271,-0.11549 0.007,5.45683 1.28906,6.3122 1.43736,0.95928 3.91187,-0.3465 5.12905,-1.09422 m -20.78857,-10.7136 c -5.27118,-10.44215 -14.16829,9.79215 -4.81131,14.17592 2.48419,1.16385 5.21837,-0.74727 6.79031,-2.50692 m -44.244108,-5.29332 c 1.81323,0.90413 3.48866,0.90536 5.219818,-0.16332 7.04384,-4.34832 -5.351368,-6.01269 -3.549478,3.30717 0.93703,4.84659 6.929648,5.26108 9.758798,1.41269 m -23.134498,-7.40416 c -1.33002,0.2789 -2.59421,1.19309 -3.36792,2.32727 -0.79535,1.16589 -1.8903,2.86295 -0.94411,4.22991 2.8695,4.14554 9.8642,-2.07005 12.40049,-3.52765 m -14.47934,-5.6426 c 1.74681,4.22228 2.25619,10.23881 3.69472,13.80845 m -10.60305,-9.16208 c -0.88167,-0.8839 -2.42884,-1.86364 -3.74012,-1.27388 -2.19203,0.9859 -6.852738,8.93983 -2.614452,8.19852 1.591742,-0.27841 5.992982,-6.80147 5.011032,-7.24311 -0.32227,-0.14494 -2.26265,7.60942 2.46921,7.55341 M 47.064053,193.7455 c 2.410341,4.93965 3.511663,10.43699 5.664645,15.45796 m -10.067454,-7.65957 c 5.117325,-0.94478 10.448819,-3.53581 15.641321,-3.53581 m -22.967233,-4.78519 c -0.95974,-1.44963 -2.048545,-0.27046 -2.986651,0.53894 -7.788627,6.72011 3.155958,5.55676 7.271448,9.80719 0.845202,0.87292 1.480294,1.9911 0.935026,3.25818 -1.240509,2.88267 -10.074046,4.32698 -10.348873,0.81658" />
  </g>
</svg>
