<?xml version="1.0" encoding="UTF-8" standalone="no"?>
<!-- Created with Inkscape (http://www.inkscape.org/) -->

<svg
   version="1.1"
   id="svg59"
   width="3000"
   height="1998.207"
   viewBox="0 0 3000.0001 1998.207"
   sodipodi:docname="ZachW - Stake - Envelope26.svg"
   inkscape:version="1.2.1 (9c6d41e410, 2022-07-14)"
   xmlns:inkscape="http://www.inkscape.org/namespaces/inkscape"
   xmlns:sodipodi="http://sodipodi.sourceforge.net/DTD/sodipodi-0.dtd"
   xmlns="http://www.w3.org/2000/svg"
   xmlns:svg="http://www.w3.org/2000/svg">
  <defs
     id="defs63" />
  <sodipodi:namedview
     id="namedview61"
     pagecolor="#ffffff"
     bordercolor="#000000"
     borderopacity="0.25"
     inkscape:showpageshadow="2"
     inkscape:pageopacity="0.0"
     inkscape:pagecheckerboard="0"
     inkscape:deskcolor="#d1d1d1"
     showgrid="false"
     inkscape:zoom="0.41686569"
     inkscape:cx="746.04365"
     inkscape:cy="236.28714"
     inkscape:window-width="1920"
     inkscape:window-height="1051"
     inkscape:window-x="-9"
     inkscape:window-y="-9"
     inkscape:window-maximized="1"
     inkscape:current-layer="g65" />
  <g
     inkscape:groupmode="layer"
     inkscape:label="Image"
     id="g65">
    <path
       style="fill:none;stroke:#8e868d;stroke-width:0.523975"
       d="m 12.383708,204.6093 c 2.018357,0.58429 7.328126,0.93441 6.637053,-2.61988 -0.742265,-3.81717 -9.2879029,-7.86955 -4.017171,-11.00351 l 3.352099,0.45247 m 6.079479,2.69139 9.955554,-2.61988 m 80.692388,10.47953 c 0,-4.42729 0.69951,-7.63046 4.68003,-9.73247 2.3495,3.90408 4.59301,7.86917 6.84745,11.82838 M 77.880773,192.55784 c -3.98015,3.46255 -1.137865,7.25822 3.527634,5.57868 -2.942771,3.00425 -5.364265,7.57592 1.71213,6.47278 m 93.791803,-5.76374 c -0.96045,1.35212 -1.86326,2.93354 -3.14386,4.01717 -8.14102,6.88877 -9.39595,-9.5916 -2.61988,-10.30489 m 27.77075,0 c -1.74903,1.42695 -4.42917,2.83089 -4.19181,5.23977 0.38303,3.88638 4.03357,2.20856 5.68481,0.59661 -2.40191,3.94457 -3.99145,9.76727 3.7362,5.43856 m -145.130933,-10.75096 2.619884,9.43158 m 48.205839,3.66783 c -1.15746,1.15773 -2.03355,2.3929 -3.66783,2.61989 -7.722372,1.07263 -6.374179,-14.1774 -1.04796,-15.7193 m -38.77426,0.52398 -5.601929,5.58749 m 78.434669,-5.06352 c 0,2.69969 1.12655,9.63425 1.57193,12.05146 m 42.4421,0.52398 c -1.50853,-3.01716 -3.62398,-9.54179 -2.65515,-12.8134 7.962,-2.07577 10.23779,3.26532 0.30443,6.62024 m 29.5975,-5.8583 c 2.88973,-0.68484 7.50858,-1.04413 9.95555,1.1353 2.60207,2.31739 2.37519,6.30291 -0.52398,8.03429 -1.30994,0.7824 -2.60259,0.78596 -5.50175,1.30994 z m 24.62689,1.57193 9.95556,-1.57193 m -192.299392,0.52398 c -2.443977,1.95317 -5.310556,1.26273 -8.301541,1.27733 m 103.117263,8.30809 c -2.8515,-5.87554 -2.38053,-6.27583 -2.59585,-10.63338 m -5.51704,5.29266 12.85271,-4.2447 m -24.62689,0.52397 -4.71579,1.83392 c -1.90571,0.82888 -5.50501,0.44378 -7.52075,0.60291 m 16.95232,-2.43683 c 0,0 -2.26934,2.22995 -2.27039,3.66784 -0.001,1.6076 2.97836,2.55996 2.53238,4.10446 -0.45867,1.58849 -4.4538,2.18326 -4.4538,2.18326 m 100.60349,-9.95556 1.04796,8.38363 m -200.741932,-10.80561 1.630848,7.66175 m 209.233284,-5.34072 0.35733,10.58048 M 52.205923,203.56135 c -1.748779,-4.28806 -3.453392,-8.59365 -5.157682,-12.89949 l -4.797869,10.27961 m 27.246777,-2.09591 -8.832315,0.67939 m 129.170156,1.26495 -8.71164,-0.32435 m 45.56676,19.33907 c 0.65497,0.92194 1.26331,1.83534 2.0959,2.61989 7.78001,7.32912 2.5219,-4.06344 8.90761,-5.23977 m 12.57543,9.95556 c -3.85371,0.33547 -7.14678,-0.23092 -3.34175,-5.54696 -1.29444,0.52007 -6.16902,3.05425 -6.78828,-0.21679 -0.69061,-2.0391 2.20174,-3.71693 3.84231,-4.19181 m -143.56957,11.52748 c -1.539962,-3.44268 -0.306,-7.90109 1.57193,-11.0035 3.8242,3.62824 4.57329,8.65715 7.33568,13.09941 m 51.34969,-12.57544 c 1.09564,2.4486 0.14308,4.98575 0.98904,7.98379 -2.68643,-0.77759 -7.12333,-9.96935 -8.03641,-7.24302 l -2.3842,7.11888 m 68.64092,-7.85965 2.61988,6.28772 m -58.16139,-3.14386 8.38363,-2.61988 m -80.692391,1.57193 c -1.293175,2.13615 -1.047954,2.36942 -1.047954,4.71579 0,2.22564 0.704224,4.73764 -0.69846,6.20037 -1.578217,1.64497 -4.707929,-0.9692 -5.67676,-2.53254 -0.740906,-1.19592 -1.259642,-2.48228 -2.008404,-3.66783 M 188.9638,219.54263 c 3.7501,-0.99932 6.51879,-2.20777 8.9076,-0.52397 3.25756,2.29627 -0.8481,9.20685 -4.89884,10.81618 z m -64.44911,1.30995 3.14386,9.43157 m 18.33917,-1.57193 c -2.3145,-2.58255 -4.91438,-6.54999 -7.98463,-9.09188 l -2.4949,8.04393 m 71.78479,-1.04795 -2.32747,-6.12107 c 0,0 4.39999,-3.68294 5.9953,-2.26256 1.0757,0.95774 -4.67256,5.27503 -4.67256,5.27503 M 7.6679187,222.42451 9.7638251,234.99994 M 38.582534,222.42451 c 1.773661,0 2.616792,-0.0219 4.191811,0 2.290302,0.0318 2.939246,0.95541 2.270547,3.14385 -0.577999,1.89167 -2.79452,5.76375 -2.79452,5.76375 0,0 5.418227,-1.66117 8.383622,-3.14386 m 8.645613,4.10447 c 0.707368,1.08353 3.49335,0.17945 4.191809,-1.04796 0.932575,-1.99056 -8.341916,-4.60487 -8.383623,-7.51031 -0.03934,-2.74079 5.08467,-2.2639 6.986178,-0.52398 1.541634,3.18583 -3.93061,7.12319 -2.794364,9.08225 z m 40.399943,-7.83123 5.97198,-1.51301 6.28772,-2.61988 m 0.98274,-0.32608 c 0,2.0082 -0.28795,10.32937 2.68509,10.63097 1.57717,0.15997 2.77079,-1.50994 4.19182,-1.92127 m 49.27065,-8.88646 2.60302,7.83851 M 24.435168,223.99644 c 2.342437,0 6.285727,-1.21086 7.59766,0.61132 0.869539,1.20771 0.261988,5.65502 0.261988,7.24832 m 103.833704,-7.18837 c 2.51335,-0.42532 7.44394,-1.48046 9.8692,-2.2432 m 60.25887,1.18573 9.95399,0.3862 M 20.592691,229.2362 c -0.173594,1.2499 -1.736458,4.0921 -3.493195,3.40585 -3.016532,-1.17832 -1.072003,-5.82652 0,-7.59766 1.753907,0.92309 3.807214,1.9309 3.493195,4.19181 z m 178.850639,11.00351 c -0.61672,3.34664 -0.62091,5.95028 -0.52398,9.43158 0.0665,2.39719 0.10532,1.91932 0.52398,4.19181 m 7.33567,-1.04796 c 2.68695,-0.21221 10.31133,-3.18525 5.23977,-6.37522 -1.37964,-0.8677 -6.08465,-1.44779 -6.08465,-1.44779 0,0 -0.44467,-3.33951 0.42262,-3.98934 1.25128,-0.93754 3.72487,-0.66064 4.88168,-0.44742 m 36.41075,-0.31566 c 1.74275,2.87873 3.57457,9.54947 3.66784,13.09941 M 171.1486,240.76369 c 2.50144,5.87398 3.85303,4.64938 4.71578,10.47952 m 57.11345,-9.95555 c 1.82553,-0.52869 6.27377,-2.06802 5.23976,0 l -1.57193,3.14386 c 1.09145,0.66073 2.4454,0.78492 3.66784,1.74642 3.29424,2.59211 -0.4983,4.85621 -3.14386,5.06527 m -20.43508,-8.90759 c 1.40268,-0.25833 7.83816,-2.3296 8.29611,0 0.37779,1.91827 -3.47297,6.55532 -3.47297,6.55532 0,0 5.54425,-2.04546 8.27627,-3.41146 m -64.44912,-2.61989 2.61989,10.47953 m 20.95906,-10.47953 c 0.48834,1.68773 2.93554,7.11953 2.93554,7.11953 0,0 4.78455,-1.76783 7.03764,-1.94546 M 90.45621,243.90755 c 0,3.44724 2.021501,6.58638 0,9.43157 0,0 -3.900351,-7.32327 -6.811694,-6.28771 -2.327214,0.82777 -1.047955,7.33566 -1.047955,7.33566 m 44.538009,-10.47952 1.57193,6.28771 m -26.19883,3.66784 c -0.66388,-2.29292 -1.04795,-5.77999 -0.16345,-8.69289 l 7.49912,9.21686 m 1.04795,-8.90759 h 8.90761 m 29.86666,0.26198 c 1.25859,-0.46267 2.60888,0.95521 3.66783,1.48443 3.28638,1.64319 5.24186,4.94791 1.04796,6.63721 -5.44726,2.19389 -9.5741,-6.3354 -4.71579,-8.12164 m 24.03723,-0.34531 -7.23315,2.17283 m -131.030965,0.006 c 0.200474,2.53971 2.284538,7.01866 1.047953,9.95555 -2.890831,-1.14122 -7.101875,-10.36676 -7.859648,-7.33567 l -1.571929,6.28772 m 28.294731,-8.9076 3.14386,9.43158 m -45.061981,2.09591 c -1.130951,0.92272 -2.734215,2.60468 -4.1918127,2.4454 -1.3533787,-0.14829 -2.1431897,-2.79175 -2.6198826,-4.01733 -1.3209135,-3.39642 -3.3022888,-11.6066 3.1438594,-8.38363 m 41.3941439,7.33568 c -1.823859,0.67173 -3.40768,1.74169 -5.239764,0.78596 -3.614022,-1.88579 -3.087007,-8.73417 1.04795,-9.16959 m 27.070023,-0.41244 c 0.0896,3.39537 0.347849,3.9169 0.17676,7.74811 -3.511691,-1.01651 -6.328577,-10.33653 -7.335673,-6.81169 l -2.095905,7.33567 m 50.79046,-10.48437 3.7031,7.86449 m -101.651447,-4.71579 3.667836,8.9076 m 80.639491,-7.23472 c 2.28685,0.008 6.16995,-0.88936 8.43652,-1.14891 m 25.67485,3.66783 c 0,2.17398 0.43332,3.64741 -1.57193,5.23977 m 440.66424,44.01403 1.75297,11.80207 c 2.04233,-0.46744 6.69355,-2.48943 7.6786,-2.98197 10.08134,-5.0417 -6.55494,-8.93118 -10.4795,-9.34408 m -14.14737,2.09591 c -5.89725,4.20809 -3.05638,6.53501 2.986,5.41023 -2.70148,2.59376 -4.82441,8.89626 2.25375,6.11726 m -21.48305,-8.90761 c 3.584,0 5.15071,0.0713 8.38365,-0.52397 m -50.82575,2.61988 c 0,4.10745 1.02125,8.69958 3.66787,12.05146 m -17.46799,-12.29343 c 0.6391,4.10997 0.25398,17.33135 10.8056,12.11038 m 49.7463,-13.87796 4.07397,10.91715 m -15.71929,-7.85965 2.61985,7.85965 m -103.74731,-7.33567 c -1.91308,1.762 -2.66556,6.74376 -4.94238,7.44852 m 0.33328,0.49994 c 2.23776,0.9657 8.6029,-1.80917 10.37281,-2.70869 m 19.91113,9.43157 c 2.27666,0 4.59789,0.16977 4.71578,-2.61988 0.20487,-4.84835 -10.19816,-11.52748 -1.57193,-11.52748 m 66.54501,8.38362 c -4.35424,-0.45848 -5.05348,-6.88793 -7.40088,-9.50938 -1.34793,2.0309 -4.04477,5.38822 -3.63182,8.71485 -2.36882,-0.49739 -6.85849,-5.46175 -7.54216,-7.01564 l 0.23567,8.85812 m -83.83623,-8.38362 3.66786,10.47953 m -7.85965,3.66784 c -2.33223,-3.40847 -5.7443,-10.98938 -7.92174,-14.41566 -1.90545,4.75772 -4.12973,7.44782 -4.12973,12.31975 m -115.79881,10.47953 c 1.19781,3.79359 3.37074,3.87219 6.81169,4.54131 1.5866,0.30809 4.36158,0.7912 4.71579,-1.39745 1.52373,-9.419 -9.05117,-8.64666 -12.92493,-14.14737 -3.28166,-4.66025 -0.40293,-9.40171 5.06529,-6.81169 m 155.09703,6.28772 c -6.95551,0.18407 -10.38432,-2.01007 -5.66838,-7.5624 -7.40862,3.73159 -6.61892,-4.22557 -1.1433,-5.53702 m -26.19884,5.76375 c -1.95953,1.45332 -6.91201,2.08199 -9.05691,3.22594 m -20.80974,0.44189 c 3.16013,-0.58214 8.95739,-2.89968 12.05146,-3.14386 m -20.43508,12.57544 c 1.12131,0.41289 2.03932,0.81793 3.14386,1.04795 1.02961,0.21431 1.64162,0.52398 2.61988,0.52398 0.77444,0 1.9209,-0.25989 2.53238,-0.78597 2.24314,-1.92876 -2.53447,-7.05115 -4.10431,-8.64561 -0.83417,-0.84727 -2.75088,-1.77209 -2.27039,-3.14386 0.67017,-1.91618 4.61728,-1.04795 6.4622,-1.04795 m -53.4456,0.52397 c -8.487,3.41298 -1.47742,11.64892 2.69521,6.46319 -2.63028,4.00878 -1.23965,11.15756 6.17865,5.98182 m 7.36941,-11.92103 c -4.42655,1.31623 -2.05414,7.24763 2.10152,4.89445 -4.89004,8.7697 1.98482,9.1877 7.85404,1.91725 m 3.34175,1.36143 c 2.994,-0.0786 9.19095,-3.14474 8.7097,-6.07722 -0.42656,-2.59925 -7.27615,-2.71065 -10.05967,-0.67128 1.07138,4.21336 1.79447,11.60719 2.724,14.81865 m 28.64193,-16.24958 3.84463,11.00981 m -76.50058,-9.95556 c 0.62562,3.39642 3.00657,5.59974 4.01732,8.90761 0.35211,1.15222 0.62039,3.01181 -0.0875,4.19181 -2.06919,3.44881 -7.94798,-5.4116 -9.64095,-6.41815 l -1.62455,9.56201 c -2.59892,-1.29946 -5.4263,-3.41895 -6.4622,-6.28772 -0.6644,-1.84021 -1.32094,-4.43022 -2.4454,-6.28772 m 318.57772,27.24678 c 4.16039,-0.32853 7.61863,-4.502 5.76375,-8.38363 -1.10561,-2.31702 -5.76375,-3.14385 -5.76375,-3.14385 0,0 -0.0603,-4.31274 1.09253,-5.30161 1.80776,-1.55075 5.95467,-1.11548 8.86301,-2.03406 m 31.43859,4.19181 10.21755,-2.0084 -1.8339,9.34407 m -22.53101,-6.81169 c 1.79726,-1.08883 6.46381,-2.66811 5.40645,-0.7323 l -3.83452,7.02001 c 0,0 4.62147,-0.19073 7.33568,-1.04795 m -72.30876,-4.71579 4.71579,14.14737 m 46.63392,-12.83743 c 2.70895,-0.98141 6.49207,6.30711 1.57193,7.94715 -4.54287,1.51482 -6.41347,-6.19288 -1.57193,-7.94715 m -113.17893,12.83743 c 1.19467,0.94525 8.59845,3.80669 7.07368,-0.52398 -1.5667,-4.45327 -11.55003,-6.1431 -4.45382,-10.47953 0.72835,-0.44486 1.32042,-0.74247 2.09593,-1.04795 m 69.25395,0.26198 c 1.75534,-0.98507 2.59895,1.69507 2.8819,2.88187 0.59733,2.53396 0.50824,5.16327 -1.92302,6.63722 -1.60337,0.96988 -3.0967,-0.31806 -3.40582,-1.92143 -0.35632,-1.8271 0.67066,-6.60105 2.44694,-7.59766 m -21.5721,0.78597 c 0.0681,2.68381 0.82263,8.55392 2.6199,11.52748 m -27.77077,-11.00351 c -3.74965,4.74709 -2.6757,4.62861 3.40586,4.69578 -0.93271,2.08962 -2.86618,4.06407 -1.22088,5.60927 1.37807,1.29527 4.39617,0.69846 6.19863,0.69846 m -17.68476,1.79276 -3.40472,-10.54676 m -3.53739,0.37038 c 2.10949,-0.26979 4.19732,-0.66305 6.28772,-1.04796 m -43.49007,7.33568 c -0.0712,2.55753 -6.37103,6.13086 -6.37103,6.13086 l -5.2574,-12.1566 c 0,0 11.7374,2.09644 11.62843,6.02574 z m 110.55904,-5.23977 2.61989,-0.52398 m -139.90173,14.14737 -4.92093,-13.31092 c 2.90579,0.38582 8.45199,-0.94962 10.0732,0.4735 2.31125,2.02831 -5.54443,7.22197 -6.90207,7.90052 m -26.54494,-7.63854 c 0.0571,2.16036 2.09747,9.73601 -0.0875,11.2655 -3.10456,2.17346 -9.45716,-8.95177 -9.64492,-6.57489 l -0.74706,9.45676 m 48.20581,-8.9076 c -2.88555,2.65761 -7.39416,2.45963 -11.07404,2.45963 m -50.75518,-0.62571 c 1.2937,-0.61882 2.72101,0.28085 3.49334,1.30994 2.04772,2.73097 1.07992,6.60892 -1.92141,7.85965 -6.31078,2.62931 -5.62487,-7.2314 -1.57193,-9.16959 m -24.1029,11.78947 c 2.87136,-0.22688 5.64322,-1.76528 3.14386,-4.71579 -2.8529,-2.06848 -5.14065,-4.86948 -0.4462,-7.40088 m 15.64149,12.64065 -4.98094,-11.47486 m -3.92664,2.04328 c 2.45284,-1.94463 5.16953,-2.64386 7.85965,-2.61988 m -27.77076,2.0959 c -4.10958,1.59682 -5.62201,6.38133 1.04795,3.92983 -3.08918,3.23404 -2.79539,6.38365 2.09591,5.50175 m -37.00444,1.89171 c 2.31022,-0.72937 11.10637,-7.14719 7.13778,-9.48937 -2.55334,-1.50696 -8.34476,0.58885 -10.60367,2.21689 l 6.41185,13.24042 m 15.7193,-3.66784 -4.41377,-9.4779 c 6.16561,-8.74224 8.36398,0.89233 2.69252,5.02298 m -0.006,0.13898 8.01527,-3.01973 m -51.34972,1.04795 v 8.90761 m -11.26549,2.0959 c -1.2675,1.79777 -3.76949,0.90491 -4.27932,-1.04795 -0.39036,-1.49595 0.20358,-8.18387 1.92143,-7.85965 2.79966,0.52839 4.36734,6.05664 2.35789,8.9076 z m -14.93333,-8.38362 c 0,3.60548 0.82107,7.48972 2.09591,11.52748 M 282.7556,363.89817 c 1.54625,0 6.79597,-0.82054 7.59766,0.61148 1.00237,1.78938 -0.25526,3.74173 -1.58225,5.12595 1.67388,0.4661 7.98157,0.92965 7.52048,3.69415 -0.448,2.68852 -5.37181,2.63927 -7.24817,2.09591 m -13.09942,-10.47953 3.14386,14.14736 m 214.83038,2.09591 c 0.33847,4.2856 3.38538,9.3336 5.76371,13.09941 m -13.0994,-12.05146 c -0.17291,2.18708 -1.81766,5.44412 0.52397,7.24817 1.89315,1.45875 6.8709,-1.86221 8.38365,-3.05636 m 13.62336,-1.65943 c 1.6563,1.32986 2.92014,2.64294 2.6199,4.80329 -0.41865,3.01601 -4.67543,4.21225 -6.72421,2.00841 -1.09823,-1.18052 -1.35866,-2.94318 -0.96096,-4.62829 0.38092,-1.61227 1.01181,-2.7514 1.92141,-4.19181 1.14649,0.60362 2.11845,1.18523 3.14386,2.0084 z m -48.72982,11.61499 c 2.75088,1.95443 7.78263,0.22059 5.50176,-3.58033 -2.06866,-3.44829 -6.88293,-1.66677 -9.69354,-3.49335 -1.81036,-1.17686 -0.32488,-2.66181 1.04792,-3.49336 2.44384,-1.47971 6.18661,-1.50695 8.90762,-2.0084 m 3.66782,2.61988 c 1.34872,-0.39036 6.7635,-1.83863 6.81172,1.57193 0.0326,2.29607 -1.93088,3.89367 -2.61989,5.76375 2.44486,0.83626 4.92536,-1.09773 7.33568,-2.61989 m -40.34621,-0.52397 c 0,0 6.54029,-2.35947 8.90762,-3.66784 2.96022,4.67074 3.76556,5.89136 4.19178,11.00351 m -28.29469,-7.33567 c -2.58241,4.24076 -4.03239,8.99864 -5.76375,13.62339 m -6.28772,-11.00351 -7.85965,3.14386 c 1.72177,2.72625 3.16901,6.67703 5.23975,9.95555 m 6.28772,-11.52748 c 2.53867,3.573 7.54526,8.04461 11.00351,9.95555 m -63.92512,1.57193 3.14071,-10.43005 c 1.81138,4.21089 3.17897,8.95244 5.76689,13.04994 m 5.76374,-1.57193 c 1.74589,0 3.36026,0.32696 4.62829,-0.78597 1.1648,-1.02175 0.0906,-2.48312 -0.61096,-3.40585 -1.80824,-2.3778 -7.04591,-4.07601 -2.4454,-6.81169 m 18.33919,2.09591 6.81168,-2.09591 m -89.16351,14.05986 c 2.11215,-2.44959 0.0414,-6.44805 -2.0084,-8.29612 -2.88083,-2.59683 -8.19342,-3.34349 -11.52749,-3.66783 -1.42469,-0.13833 -3.99238,-0.0833 -5.94802,0.7443 l 7.25797,16.28494 c 3.84965,-1.39064 9.94402,-2.41816 12.22594,-5.06529 z m 7.94715,0.0875 1.25946,-12.06028 c 1.81426,2.38581 3.60684,4.81944 4.94075,6.82051 l 4.8033,8.9076 m 13.62339,-15.19532 c 1.14279,2.28611 2.36418,8.28302 4.27931,9.16959 1.70293,0.78859 3.44732,-2.06038 3.99906,-3.16387 m -22.94972,-5.48174 -4.82314,3.09018 -4.98823,1.55991 m 13.47921,-5.54018 c 0,0 1.53253,15.35657 9.53457,7.68919 m 25.57186,-5.75115 c -1.89254,0.78156 -5.70827,1.03651 -7.64916,1.68347 m 29.1322,6.70016 c -0.17239,-1.64005 0.19441,-3.59448 2.09588,-4.19182"
       id="path177"
       sodipodi:nodetypes="ccccccccccccccccccccccccccccccccccccccccccccccccssccccccccccccccccccccccccccsccccccsccccccccccccccsccccccccccsccccccsccccscccccsccscccccccccccccsccccccccccccccsccccccccccccccccsccccccccccccscccccccccccscccccccccccccccccccscccccccccccccccccccccccccscscccccccccscccccsccccccccscccccsccccccccccccccccccccccccccccccccccccccsccccccccccccccccccscccccccccccsccccccccccccccccccccccccccccccccccccccccccccccccccccccccccccccccccccccc" />
  </g>
</svg>
