<?xml version="1.0" encoding="UTF-8" standalone="no"?>
<!-- Created with Inkscape (http://www.inkscape.org/) -->

<svg
   version="1.1"
   id="svg1490"
   width="2201.3333"
   height="928"
   viewBox="0 0 2201.3333 928"
   sodipodi:docname="ZachW - Stake - Envelope42.svg"
   inkscape:version="1.2.1 (9c6d41e410, 2022-07-14)"
   xmlns:inkscape="http://www.inkscape.org/namespaces/inkscape"
   xmlns:sodipodi="http://sodipodi.sourceforge.net/DTD/sodipodi-0.dtd"
   xmlns="http://www.w3.org/2000/svg"
   xmlns:svg="http://www.w3.org/2000/svg">
  <defs
     id="defs1494" />
  <sodipodi:namedview
     id="namedview1492"
     pagecolor="#ffffff"
     bordercolor="#000000"
     borderopacity="0.25"
     inkscape:showpageshadow="2"
     inkscape:pageopacity="0.0"
     inkscape:pagecheckerboard="0"
     inkscape:deskcolor="#d1d1d1"
     showgrid="false"
     inkscape:zoom="0.27483344"
     inkscape:cx="1200.7272"
     inkscape:cy="322.01322"
     inkscape:window-width="1920"
     inkscape:window-height="1058"
     inkscape:window-x="-6"
     inkscape:window-y="-6"
     inkscape:window-maximized="1"
     inkscape:current-layer="g1496" />
  <g
     inkscape:groupmode="layer"
     inkscape:label="Image"
     id="g1496">
    <path
       id="path1875"
       style="fill:none;stroke:#52424f;stroke-width:0.835729"
       d="m 550.66423,422.6759 c -0.52711,1.37109 -1.26861,2.73732 -1.61767,4.18667 -0.27459,1.13984 -0.40824,2.30345 -0.56939,3.46314 -1.52745,10.99201 15.07205,-1.17223 7.0854,-6.24341 -2.08167,-1.32176 -4.5713,-1.72145 -6.34434,-2.52826 m -9.38089,0.59345 c 3.07954,4.13239 0.47505,14.41071 4.5549,17.65716 m -12.39946,-15.00696 c 1.72425,-2.09168 1.52078,1.62823 1.58159,2.88595 0.0879,1.8194 -0.78719,4.5746 -0.0904,6.28407 0.91177,2.2368 8.72103,-4.3796 9.67013,-5.20285 m -31.79158,-3.28582 c 1.31641,-0.34156 2.58883,-0.6341 3.94938,-0.6341 15.76885,0 -5.36937,14.5909 0.69591,14.82811 3.42954,0.13413 11.98835,-0.29163 12.17348,-4.78824 m -21.6242,-13.28168 c -3.46571,1.67631 -7.63334,2.44169 -11.49565,2.27625 -0.9625,0.53105 -1.62006,1.38976 -2.34976,2.18682 -3.35904,3.66899 -5.3191,2.19911 -2.413,5.76378 2.59485,3.18291 9.34773,1.08194 10.58286,5.44673 1.02879,3.63545 -7.49151,5.61521 -6.44371,1.13812 m -22.59372,-10.45447 c -1.41371,3.70599 5.87525,0.788 7.68185,-0.39021 1.09844,-0.71635 2.20493,-1.59579 3.02758,-2.61768 0.13807,-0.17151 0.36149,-0.77298 0.36149,-0.55281 0,1.98642 2.21487,23.09065 4.79893,19.02291 m -28.501,-17.78457 c -2.96695,4.50486 -5.86858,19.30752 -4.97065,24.74605 m -26.40753,-12.92583 c 2.90929,-1.15252 5.98118,-1.86923 8.9652,-2.8453 2.59162,-0.84772 10.58857,-4.35559 10.71846,-4.26796 2.29394,1.54761 11.65008,13.8438 14.79436,12.26734 m -23.65112,-12.26734 c -0.21745,7.02932 4.74387,12.87797 5.76594,19.68139 m -24.83939,-5.08217 c -0.29146,2.71687 -1.31881,5.33268 -3.29868,7.17017 m -7.34748,-14.77934 c -7.50728,2.88586 7.43424,7.51324 2.12381,10.8203 -0.82413,0.51322 -1.84904,0.35114 -2.6028,0.0488 m -9.85086,-6.88564 c -0.81826,-3.71255 -4.10551,2.45655 -2.66606,3.96717 2.38889,2.50701 2.56075,-2.24655 3.48847,-3.08106 0.0888,-0.0799 0.89299,2.53407 1.14776,2.87783 0.84857,1.14496 2.274,0.32195 3.11793,-0.32518 m -32.57617,4.14684 c 8.03493,7.96447 9.60145,-10.65282 7.66379,-11.08857 -1.0798,-0.24282 -1.89104,3.2466 -1.98825,3.97531 -0.3048,2.28481 -0.86745,5.67466 0.20786,7.83678 2.27259,4.56951 7.74452,1.66778 9.40803,-1.69905 0.76295,-1.54417 1.08867,-3.03325 1.3285,-4.72321 0.21949,-1.54654 0.27119,-3.38575 -0.21689,-4.8858 -0.92033,-2.82851 -2.12635,3.11246 -2.07863,3.82084 0.56358,8.36474 6.30928,9.79914 11.03478,3.31681 m -30.55575,-1.67466 c -2.2689,-3.04286 -4.38942,8.15442 -2.04247,8.64161 1.60681,0.33354 2.1441,-5.67784 2.35878,-6.80436 0.004,-0.0212 0.0888,-0.91049 0.0542,-0.91049 -1.44276,0 2.24333,10.40203 5.09714,5.26788 m -39.51301,-9.56585 c 2.82354,-1.42245 6.01915,-1.03509 9.03749,-0.62597 2.20122,0.29836 4.61699,0.89824 6.47084,2.18682 1.63408,1.13583 5.59202,3.21141 6.14549,5.20285 2.39246,8.6083 -15.64977,12.22254 -14.80341,7.84492 m -2.73836,-16.21825 c 1.21409,6.6356 4.64073,13.28869 7.34748,19.20175 M 317.12279,390.648 c -0.46984,3.83281 2.20896,14.28823 6.29913,15.68984 m 0.16528,-18.26611 c 1.428,-0.10497 2.78949,0.35054 4.17532,0.57719 0.8989,0.14702 1.76761,0.46881 2.61183,0.78856 10.58995,4.01091 -3.43425,8.73096 -3.43425,9.78785 0,0.2169 0.43381,0 0.6507,0 1.04876,0 2.09846,0.0488 3.14505,0.0488 2.57833,0 7.06871,0.5031 8.2693,3.203 1.41402,3.17986 -5.55784,5.58141 -6.91368,2.22747 m 11.76681,-14.48667 c -0.43697,2.71601 -1.24472,14.35251 3.09082,14.82811 m 5.11522,-13.62496 c -0.728,1.52303 -0.93031,3.19738 -1.38273,4.78825 -3.04783,10.71714 11.0578,4.42641 5.21462,-2.02424 -0.89537,-0.98846 -2.4219,-2.19125 -3.77767,-2.1543 m 12.73383,-4.57688 c -0.72386,5.7179 0.9406,10.44439 3.22638,15.43783 m 23.9463,-10.8176 c 8.18156,4.8186 9.46983,-12.78467 0.56936,-9.89354 -8.4812,2.75494 1.25304,16.85094 3.1812,21.04714 m 7.98914,-13.50301 c -0.26541,0.99638 2.58692,8.67412 2.83777,8.67412 0.82529,0 -0.91385,-1.37571 -1.32851,-2.08927 -0.89649,-1.5427 -1.43705,-4.24355 0.84049,-4.82889 1.67664,-0.43091 4.36109,0.44173 6.13645,0.39021 1.02492,-0.0298 3.98061,-0.85359 2.95526,-0.85359 -4.51756,0 -3.01044,11.7737 2.96429,4.79638 m 5.89141,-6.74653 c -7.34276,3.07245 5.37408,7.89087 0.52418,8.73916 m 4.19638,-5.64803 c 2.03247,0.36139 12.82818,-3.50207 13.14955,-2.05675 0.27799,1.25039 -2.90844,5.27902 -1.96116,5.9345 0.42265,0.29243 1.63019,-0.0716 1.97921,-0.32518 5.06153,-3.67741 2.14429,-2.41014 0.40668,-5.53615 -0.87108,-1.56718 2.74034,-1.67879 3.53368,-1.52021 1.93003,0.3858 4.39494,2.27987 5.72976,3.6989 0.71992,0.76532 1.46687,1.54069 2.13284,2.34941 0.12643,0.1535 0.27436,0.67422 0.34344,0.48776 0.0608,-0.16423 -1.0612,-4.4511 1.12971,-2.8453 2.36046,1.7301 4.15215,3.92415 7.39262,2.63394 m -32.51686,-9.24318 c 2.49686,4.22703 5.17312,8.41917 7.7903,12.58438 m 39.07524,-19.09271 c 0.47811,2.15286 1.15328,4.25152 1.66291,6.40601 0.48209,2.03816 1.29197,4.32772 2.50335,6.04831 0.69821,0.99166 1.27843,1.87577 1.79846,2.96725 0.0957,0.20086 0.14041,0.767 0.28923,0.60158 0.0124,-0.0138 -1.81792,-1.37471 -1.87979,-1.42266 -1.41345,-1.09483 -2.13333,-2.71841 -2.80164,-4.3086 -1.39788,-3.32615 -1.4172,-10.47584 3.61501,-10.72275 5.75638,-0.28243 4.52005,4.83445 1.32849,7.63355 -1.06041,0.93004 -2.50127,2.22132 -3.8861,2.61769 -0.30908,0.0885 -1.23337,0.14318 -0.93087,0.25201 4.2574,1.53186 10.92865,0.9753 13.88158,-2.58516 m 1.81619,-8.17026 c 3.72685,-0.0402 12.54257,0.24092 14.15268,4.68256 0.39045,1.07704 -0.40359,1.97835 -0.95798,2.82905 -3.55624,5.45698 -10.90522,4.3901 -6.47083,2.22747 m -5.13331,-9.38951 c 0.67681,4.04812 2.75636,7.45418 4.88026,10.82029 m 28.38261,-13.52597 c -0.5497,0.74401 -1.32477,1.28371 -1.92498,1.97546 -9.19463,10.59693 8.82987,6.37783 8.46811,11.25928 -0.22178,2.99223 -7.91146,2.29458 -7.82646,-1.14625 m 4.40502,-8.05 c 4.45832,-0.80933 9.0436,-1.36643 13.45686,-2.86156 1.3552,-0.45913 2.8054,-0.77778 4.20239,-1.10561 0.31439,-0.0738 1.1332,-0.4603 0.94896,-0.1951 -0.9303,1.33894 -4.87491,5.09471 -2.28647,6.58485 1.89464,1.09076 4.12323,-0.0776 5.80206,-0.98366 0.78648,-0.42448 2.67547,-2.25258 2.24128,-1.47143 -0.75928,1.36599 -7.74594,8.05628 -1.93401,8.05628 1.74393,0 3.1327,-1.02946 4.16626,-1.9592 m -21.14773,-9.62526 c -0.13347,4.54264 2.72447,8.40702 4.80796,12.21043 m 43.8081,-16.60694 c 2.28174,5.3044 2.82799,11.70998 6.3714,16.454 m -14.52323,-14.48667 c -0.19405,1.27045 5.61761,19.38133 6.2991,13.251 m 15.23113,-14.73802 c -0.70861,1.19098 -1.31381,2.43807 -1.88886,3.69889 -5.97998,13.11169 10.1615,7.5123 6.57024,0.24389 -0.69547,-1.4076 -2.47022,-2.59872 -3.99454,-2.91035 -1.09813,-0.2245 -2.19121,-0.70069 -3.29867,-0.75603 m 16.91106,5.8719 c 3.22982,0.72982 5.75775,-0.64638 7.94393,-2.78027 m 8.76048,-9.01295 c -3.41556,2.56635 -6.75691,2.6122 -6.28106,7.64168 0.0689,0.72836 -0.0909,1.82558 0.6688,2.23559 2.80491,1.51387 4.7643,-3.16962 9.55262,2.98352 3.5462,4.55701 -6.62516,6.99244 -3.65118,2.02423 m 14.5016,-11.63979 c -0.6791,1.18457 -1.71687,2.19168 -2.34976,3.40624 -1.44462,2.77222 -0.88408,9.19891 2.82871,6.82874 5.26403,-3.36039 2.34639,-9.42771 -3.08176,-9.54397 m 9.76822,0.42625 c 1.54359,-0.68485 7.33982,-2.08816 7.95299,0.85359 0.53873,2.58459 -2.24376,4.89525 -3.49751,6.81248 -0.59632,0.91187 -2.78806,3.19831 -1.80748,2.72337 3.43754,-1.665 6.49625,-0.52357 9.28148,-4.07286 m 3.84997,-9.11311 c -0.47598,1.83068 1.61277,1.84542 2.93719,2.06488 2.1492,0.35613 5.49055,-1.8351 7.41978,-0.9674 0.32372,0.14559 -0.059,2.97773 -0.0723,3.30055 -0.13263,3.22147 0.43096,5.94153 0.77723,9.05621 m -144.42619,-50.3526 c -1.65566,5.11435 1.89699,9.65369 3.18246,14.279 m -5.41913,-3.2421 c 1.78939,0.77591 15.10707,-2.31236 15.10707,-3.41454 0,-0.26262 -3.88084,1.29866 -4.05154,3.67897 -0.16288,2.27123 1.46647,2.93243 3.45085,3.31107 2.10303,0.40128 13.15586,-1.82261 8.75495,-4.9896 -2.57676,-1.85429 -7.278,6.58765 -2.05775,6.58765 5.11487,0 7.95078,-18.93301 5.25298,-19.15363 -5.8887,-0.48155 1.18123,23.94678 3.84705,17.37163 m -33.31987,-9.92171 c -0.40965,0.53322 -0.77242,1.1249 -1.12475,1.66703 m -21.35696,-0.12647 c -0.96028,1.40328 -0.55249,1.87807 0.30674,3.09264 0.53781,0.7602 1.09693,1.58091 1.44427,2.44881 0.43167,1.07867 0.57965,4.94766 1.3931,5.67941 0.79688,0.71679 2.36829,-8.74848 4.20496,-8.47313 1.22877,0.18422 -0.36388,5.78019 1.58481,6.65663 2.70753,1.21775 4.93346,-7.34116 4.93346,-6.15077 0,1.80118 -1.51794,6.78796 2.37727,6.16227 2.9191,-0.4689 3.9037,-6.4462 4.15379,-5.77138 0.68211,1.84076 -0.99349,2.08092 2.10887,2.08092 m -42.70113,-12.56598 c 2.53922,4.02266 2.80301,26.61817 10.02025,19.31458 2.29686,-2.32436 4.99754,-5.29857 6.21153,-8.39264 0.25672,2.74977 -0.35052,8.92266 4.08989,5.46096 m -44.547,3.78173 c 7.66302,2.75575 0.65452,-7.69065 1.87882,-8.9215 m -15.70777,-1.59806 c -9.36197,5.0465 -0.14174,13.59371 6.24988,6.53018 0.24796,-0.27407 3.6143,-5.93052 2.58171,-6.11629 -1.86948,-0.33633 -7.04401,15.08535 2.33892,6.64514 m -18.02113,-8.23169 c 1.35184,4.12194 1.78798,8.59216 3.94934,12.35903 m -22.57014,-12.55259 c 0.15319,5.75999 1.46283,11.93724 4.81842,16.7393 m -9.53458,-6.47268 c 4.80596,-0.153 9.07401,-1.59283 13.56057,-3.00066 0.14965,-0.047 2.47765,-1.46176 2.51785,-1.4256 0.25579,0.2301 -3.4527,5.98982 -1.53374,5.98982 1.63369,0 1.80713,-6.08433 2.17278,-5.42648 1.1626,2.0916 0.85848,7.94177 4.9718,4.18483 m -22.30275,-4.89763 c -2.16282,-0.48713 -3.4245,0.20056 -5.02291,1.49458 -4.78206,3.87144 3.56944,3.20898 4.58836,5.80587 1.08887,2.77513 -1.63406,4.0409 -3.74481,2.40283 m -52.22749,-6.36625 c 3.35977,7.13864 6.99117,14.91401 6.99117,0.63232 0,-0.89656 1.42604,7.13098 5.52136,6.46119 1.2045,-0.197 -0.41175,-9.50186 0.25562,-8.86401 8.57411,8.19466 11.04556,-0.62927 8.69104,-1.26465 -1.75141,-0.47263 -3.19478,8.74867 0.75408,9.82975 5.48009,1.50027 9.14784,-7.69426 7.51519,-8.32367 -1.91125,-0.73681 -3.95023,7.75794 -0.66462,8.46163 4.72286,1.0115 8.86128,-5.33137 9.75186,-9.03647 -0.46788,4.57591 1.30418,8.82334 2.68858,13.05737 0.12501,0.38231 0.4291,1.46824 0.5368,1.0807 0.44312,-1.59438 -1.79086,-4.82771 -1.84045,-6.65663 -0.0252,-0.92955 -0.0768,-1.89616 0.0511,-2.81671 1.68091,-12.0962 8.79031,2.99457 1.58484,2.18438 -1.20824,-0.13585 -2.48864,-0.94979 -3.04187,-1.82799 m -49.6713,-20.03591 c -1.87452,-0.71986 -3.10744,0.0563 -4.33274,1.44859 -12.38321,14.07034 10.11291,15.21294 10.37812,23.08553 0.22028,6.53873 -12.28915,5.64899 -12.01408,-0.20694 M 226.80103,261.48451 c 0.27001,4.9533 0.0236,9.95655 1.66152,14.72738 m -21.05021,-12.57748 c 1.00968,-0.4175 7.44739,-2.78536 7.66857,0 0.17573,2.21311 -1.40083,4.19598 -2.92684,5.64492 -0.22587,0.21447 -1.06555,0.55185 -0.75407,0.55185 9.30284,0 6.22402,9.39873 1.91714,6.20825 m -20.3856,-12.38202 c 20.07357,-7.4182 -8.92807,20.36764 12.34639,7.40392 m -18.94248,4.05468 c 3.01327,2.98156 5.78096,0.73751 3.50197,-3.06964 -3.51314,-5.86887 -13.6525,0.15155 -6.78667,-9.10545 1.41014,1.04741 3.17186,0.65382 4.76729,0.82777 M 174.168,262.88344 c 0.66793,3.72475 1.40312,16.8479 5.93035,17.86599 m -12.65312,-15.7046 c 0.92364,7.75553 -0.32373,17.62333 7.89861,3.48353 m -29.52491,-4.56862 c -0.95972,6.51521 1.78377,12.3603 3.60423,18.33735 m -11.61788,-7.19698 c 3.2985,0.17609 6.49181,-0.22114 9.56015,-1.31063 m -6.92727,-7.03603 c -2.37136,3.99233 -1.41119,9.48204 0.99691,13.24429 m -15.0815,-12.1176 c -0.46347,1.81861 -1.25714,3.68687 -1.41869,5.57593 -0.20503,2.39762 -1.44677,5.09221 -0.8691,7.54189 1.61834,6.8628 17.25744,-10.07705 1.36756,-9.87573 m -10.00546,5.32076 c -0.23433,2.73094 -0.49793,5.95574 -0.25562,8.41564 m -11.9374,-14.56641 c -0.33995,0.56924 -0.54031,1.19388 -0.77964,1.80499 m -9.304519,-2.8742 c -3.09121,-1.55 4.83441,15.10373 3.29748,13.80763 -0.43887,-0.3701 -5.41153,-4.4629 -5.2913,-4.67918 0.28303,-0.5092 3.76302,-1.25182 4.33273,-1.41411 5.051669,-1.43897 5.823739,-2.39345 6.722769,3.41454 m -18.570699,-4.46075 c -1.47562,-3.9635 -4.62667,3.50176 -3.23357,5.27702 1.90556,2.42831 3.47641,-4.8497 3.47641,-3.65597 0,4.16025 3.1655,3.11332 4.99735,0.39089 m -23.458783,-3.38966 c 0.774713,0.93246 0.987564,2.01895 1.201409,3.1731 2.218779,11.97511 2.457315,-4.19926 5.380774,-2.39132 2.06634,1.27787 -0.18548,5.01495 2.51784,6.82908 m -24.667205,-6.80609 c 0.753772,0.98317 1.714607,1.76378 2.543406,2.67875 0.518965,0.57292 3.00476,5.20804 3.553103,5.20804 0.464454,0 -0.473114,-7.54196 2.390032,-6.57616 2.668905,0.90028 -0.498414,7.47398 3.847061,5.42648 m -20.21944,-6.74861 c -1.28459,1.89621 -4.290531,9.77888 -0.281181,10.68051 3.472465,0.78089 6.837289,-9.1404 7.783591,-8.28918 0.599785,0.53952 -0.115031,3.20243 -0.115031,3.89741 M 22.287424,274.9388 c 0.568646,1.39915 1.504287,2.64511 2.287788,3.94339 0.428377,0.70983 0.717909,1.52622 1.099161,2.26487 5.449445,10.55796 3.398045,-2.78006 4.716166,-2.97767 0.602688,-0.0904 2.642345,3.42309 3.489196,4.01237 M 10.554524,271.74269 c -3.944723,-4.24525 -4.984565,-1.69817 -4.984565,2.95468 0,4.14952 -1.538375,15.39577 5.227403,15.71609 3.561121,0.16859 5.734024,-3.23944 7.118982,-6.10479 1.197775,-2.47809 1.63377,-5.4138 1.572055,-5.38049 -1.462027,0.78908 -0.03792,4.06155 0.856323,4.73667 M 6.859337,240.32506 c 4.645123,-10.44545 0.805086,19.43395 6.134849,12.45101 m 10.793202,-14.12253 c -5.952,2.15309 -2.522969,18.15572 4.90788,8.65707 1.281673,-1.63833 2.835825,-4.19343 2.249445,-6.36922 -0.617073,-2.28967 -5.467325,-0.092 -7.157325,-2.28785 z m 11.400596,-2.63276 c -1.747566,2.67361 1.912536,1.73377 3.412511,1.32212 13.628567,-3.7401 7.629492,-2.97522 8.269264,11.7957 m 10.115814,-13.46273 c 16.501618,-5.86535 0.341423,8.23907 2.083295,10.19764 2.867196,3.2239 8.863052,-2.17804 10.493147,-4.03537 m 9.159836,-9.1116 c -7.460991,1.90912 1.02416,5.57018 3.5531,7.70285 2.98133,2.51416 -2.93345,7.70154 -5.26575,5.47246 -3.32836,-3.18106 8.92225,-13.64525 1.71265,-13.17531 z m 22.408379,1.43782 c 0.87323,1.48123 1.69709,2.97866 2.47951,4.51823 0.54595,1.07428 1.12157,2.16402 1.86601,3.11563 9.36787,11.97468 1.88985,-6.90911 6.13486,-11.15188 0.87338,-0.87292 1.5398,-0.68718 2.36447,-0.10346 m 11.36693,6.746 c -5.0968,-8.45644 -4.90722,4.52359 -3.92375,4.82864 2.52218,0.78234 4.94351,-8.91703 5.02291,-7.70283 0.52325,8.0015 1.76947,10.08651 7.41295,1.52907 m 1.02497,-6.32548 c -0.49009,3.58399 0.19378,12.04442 5.36799,11.73821 m 4.90788,-11.08289 c 0.78708,0.34713 1.50982,0.77651 2.19832,1.18417 m -2.50506,2.40282 c -0.57378,2.44317 -0.61453,4.83113 2.42837,3.9434 m 10.99174,-5.74246 c -3.59968,-2.95369 -4.892,5.57733 -2.33891,6.72561 2.79301,1.25619 3.46724,-6.42993 2.81181,-5.84036 -1.78029,1.60141 1.9791,8.88503 5.47024,5.31151 1.15723,-1.18454 2.03612,-2.66781 2.684,-4.17333 0.041,-0.0952 0.50295,-1.40509 0.54957,-1.39111 1.09141,0.32725 -1.30793,6.91076 0.51124,7.01303 2.19778,0.12356 2.9911,-6.45725 4.93345,-5.87485 2.5156,0.75429 1.0936,9.25834 5.40633,4.58722 m 1.916,-11.6761 c 0.17367,1.28569 5.13193,14.81934 5.18906,14.81934 0.45017,0 -0.57756,-0.6939 -0.90744,-1.00022 -1.49569,-1.3888 -3.21513,-3.62575 -4.93345,-4.65619 -0.5246,-0.3146 -2.38149,-0.36918 -1.77655,-0.45988 3.93345,-0.5897 7.45875,-1.85861 11.22166,-3.27658 m 13.0507,-2.9852 c -0.2238,-0.2055 -0.83021,-0.8334 -0.46012,-1.25316 4.22599,-4.79305 14.20432,-1.84299 16.87084,3.10414 3.98873,7.40017 -11.33738,11.95281 -10.9277,7.43841 0.0868,-0.95635 0.54713,-1.08821 1.40591,-1.4141 m -3.78317,-7.8638 c 2.60101,3.53542 4.86153,8.45033 7.11899,11.63474 m 11.38781,-11.0599 c 1.16343,1.38079 1.96495,2.99588 2.99074,4.47224 3.49013,5.02314 -6.5443,-3.6068 3.31027,-5.31151 m 4.78007,1.19567 c 0.35868,1.50247 1.4365,2.66169 2.10885,4.00088 m -1.54649,-7.1395 c 3.77494,-2.71726 5.80217,0.51079 7.25957,3.67897 0.56672,1.23197 0.65332,4.62036 1.66152,3.71346 0.6935,-0.62383 -1.78278,-4.7873 -0.39621,-6.31173 1.20684,-1.32682 4.39752,-0.69391 6.07095,-1.19567 0.87873,-0.26348 3.77121,-2.98043 1.50815,-2.66725 -4.09417,0.56659 -0.55975,14.57497 5.47024,7.79482 m -15.04121,-41.37389 c -0.11459,-0.25209 1.82768,10.4344 1.82768,10.24362 0,-1.68136 -8.0592,-3.6037 -0.33231,-5.01259 1.50262,-0.27398 2.90152,-0.73424 4.30718,-1.27614 m -13.30496,-3.52951 c -0.17199,1.26136 0.51148,1.61829 1.45703,2.25337 m -14.45524,6.01281 c 0.29159,-1.2172 -0.65694,-3.05845 -2.1472,-2.33385 -2.79031,1.35674 -3.5433,9.52874 1.0097,7.32345 2.91863,-1.41367 6.46181,-13.62646 3.55309,-13.8881 -2.49674,-0.22459 0.66051,10.43547 1.5465,11.78419 1.88468,2.869 4.55579,-0.39347 5.68751,-2.32235 0.60891,-1.0378 1.6104,-4.43383 1.6104,-3.23059 0,1.74781 -0.64952,2.96881 1.17585,3.541 m -29.07663,-0.40238 c 1.46623,0.31725 3.30244,0.69555 4.80563,0.27592 3.45119,-0.96345 -2.50506,-6.61911 -2.50506,0.96573 0,0.80092 0.5922,2.06417 1.22696,2.56378 1.82842,1.43911 4.20542,-0.37246 5.54693,-1.4256 m -27.85761,-6.94311 c -9.54578,-6.39993 -5.71585,18.85927 2.8118,13.33626 2.96178,-1.91822 3.10037,-11.09474 3.38695,-11.19786 0.4067,-0.14633 4.54788,5.90646 5.11238,6.66813 2.43562,3.28635 -4.05243,-3.8667 -1.02248,-4.82864 3.05223,-0.96903 4.60474,2.43603 11.60509,-1.55207 m -60.31587,-1.28018 c 0.22365,1.36837 0.68966,2.66259 0.84354,4.04686 0.10129,0.91114 0.29937,1.80486 0.42178,2.71324 0.16443,1.22031 0.4801,2.19699 0.83075,3.36856 2.14648,7.17157 1.66447,-5.67405 4.78008,-3.04665 1.94541,1.64057 2.56171,5.81981 5.12515,6.25425 M 137.33753,199.6721 c -8.15718,7.81957 2.83313,5.04524 4.21771,9.40436 0.79048,2.48872 -4.43396,4.73881 -5.21463,1.36812 m -13.87499,-9.82287 c -2.68253,-4.91349 -5.18164,7.26819 -0.58793,8.64557 3.48706,1.04557 5.22741,-8.02073 5.22741,-7.20848 0,7.93015 3.22801,4.20373 7.50241,1.01172 m -23.19358,-6.93826 c -4.13775,-11.27471 -11.742629,12.06845 -1.49537,13.50871 2.24073,0.31494 4.66064,-0.73379 6.22432,-2.31085 1.01706,-1.02577 1.87291,-2.13828 2.64565,-3.34556 m -49.776004,-0.66753 c -8.430625,4.9255 3.118225,16.51615 6.991175,4.32279 0.35307,-1.1116 1.43698,-4.03695 0.81798,-5.15056 -0.22533,-0.40539 -0.67667,2.94909 -0.74129,5.50696 -0.11318,4.4795 3.04134,7.00768 6.59496,3.40304 M 59.874157,198.69532 c -1.685242,2.32879 3.485494,17.46211 4.281615,15.31371 M 28.586424,199.35064 c 0.737579,2.44062 7.664596,17.34969 6.684431,18.08443 -1.229412,0.92157 -3.415725,0.12237 -4.831195,0.16095 m -6.901706,-4.82864 c 5.065256,-6.5264 14.343214,-8.8817 22.264391,-7.8638 0.432051,0.0555 4.081386,1.21427 4.46055,0.67831 0.472389,-0.66774 -1.15014,-2.45476 -1.827674,-1.54056 -1.436911,1.9388 -1.846209,7.47379 0.70295,8.93299 2.129915,1.21922 2.390037,-4.73022 2.390037,-4.05836 0,3.80469 4.845468,8.85429 6.646086,3.06964 M 17.35198,198.4309 c -19.469513,7.75755 3.252586,8.65982 1.942703,15.3367 -0.554653,2.82723 -7.637945,8.20857 -8.499323,3.49502" />
  </g>
</svg>
