<?xml version="1.0" encoding="UTF-8" standalone="no"?>
<!-- Created with Inkscape (http://www.inkscape.org/) -->

<svg
   version="1.1"
   id="svg1087"
   width="2057.3333"
   height="882.66669"
   viewBox="0 0 2057.3333 882.66669"
   sodipodi:docname="ZachW - Stake - Envelope41.svg"
   inkscape:version="1.2.1 (9c6d41e410, 2022-07-14)"
   xmlns:inkscape="http://www.inkscape.org/namespaces/inkscape"
   xmlns:sodipodi="http://sodipodi.sourceforge.net/DTD/sodipodi-0.dtd"
   xmlns="http://www.w3.org/2000/svg"
   xmlns:svg="http://www.w3.org/2000/svg">
  <defs
     id="defs1091" />
  <sodipodi:namedview
     id="namedview1089"
     pagecolor="#ffffff"
     bordercolor="#000000"
     borderopacity="0.25"
     inkscape:showpageshadow="2"
     inkscape:pageopacity="0.0"
     inkscape:pagecheckerboard="0"
     inkscape:deskcolor="#d1d1d1"
     showgrid="false"
     inkscape:zoom="0.41587779"
     inkscape:cx="982.25972"
     inkscape:cy="382.32386"
     inkscape:window-width="1366"
     inkscape:window-height="705"
     inkscape:window-x="-8"
     inkscape:window-y="-8"
     inkscape:window-maximized="1"
     inkscape:current-layer="g1093" />
  <g
     inkscape:groupmode="layer"
     inkscape:label="Image"
     id="g1093">
    <path
       id="path1482"
       style="fill:none;stroke:#52424f;stroke-width:0.879129"
       d="m 534.16639,231.98665 c -0.60296,1.20261 -1.17595,2.42299 -1.78426,3.61686 -6.65655,13.06415 9.48403,6.12222 6.88571,0.77989 -1.04522,-2.14901 -3.24989,-2.036 -4.67426,-3.52644 m -11.34634,-2.80307 c 0.51605,4.11565 -2.10111,13.38082 3.0659,15.38297 m -12.16311,-15.64294 c -0.59659,11.54005 4.2498,14.35541 9.29822,2.61093 m -23.77332,-0.31648 c 14.35126,-3.06407 0.0569,7.9975 1.8471,12.82857 1.32115,3.56524 6.44596,-3.2915 6.94852,-4.1481 m -21.66017,-10.50709 c -0.91818,2.33131 -3.23923,2.7808 -5.47841,2.36226 0.60867,2.38173 1.61185,4.75789 1.99787,7.18852 0.008,0.0493 5.41506,-5.38352 8.29301,-2.14751 4.9237,5.53623 -4.54176,10.59056 -4.34754,6.39733 m -25.46965,-7.99101 c 3.29603,0.42891 6.56504,0.76289 9.53697,-1.05115 0.32657,-0.19933 3.18741,-2.34036 3.43029,-2.03449 0.0428,0.0538 0.91925,19.61031 3.55595,14.93087 m -34.96942,-10.91271 c -1.95727,5.80576 -3.47527,12.16746 -3.63134,18.34428 m -23.81102,-11.18967 c 1.75055,-1.84336 4.10194,-2.35267 6.43337,-3.05174 13.89238,-4.16551 8.48014,-1.54728 18.53365,7.88929 0.7374,0.69215 1.73996,2.52983 2.72664,2.82568 1.92188,0.57625 1.45757,-2.43773 1.45757,-3.53775 m -18.9483,-11.3027 c 0.52476,5.71239 4.15615,12.27642 3.74442,17.60961 m -28.19818,-4.28116 c -0.88968,3.44903 -2.09592,6.59997 -4.61142,9.06476 m -15.81957,-13.43891 c 1.42044,-8.24523 -6.47551,2.95741 -2.92769,4.78104 2.08116,1.06975 1.80589,-2.9904 2.91512,-3.32299 1.22145,-0.36624 0.88299,2.8128 2.09839,3.19866 4.23308,1.34392 7.77442,-8.02595 6.81033,-6.72511 -1.67652,2.2621 8.34105,7.90519 0.7916,9.70902 m -39.88707,-7.2124 c -3.86396,-4.00043 -4.91802,7.89608 -3.45543,7.01898 1.86402,-1.11782 0.96978,-7.8493 1.31935,-6.90595 1.34156,3.62031 4.87959,13.39236 9.73802,5.22185 0.75506,-1.26981 3.31813,-10.10825 1.23139,-10.42109 -1.05148,-0.15764 0.11772,10.95039 4.07111,11.23488 3.81362,0.27444 4.34682,-4.78225 5.1266,-7.47109 0.0972,-0.33526 0.21171,-5.32186 -0.49004,-4.69061 -1.90281,1.71162 -2.29979,17.92458 9.24797,8.87261 m -58.37784,-8.90652 c 5.74248,-4.1274 19.9929,-0.34877 21.02155,7.51629 0.76649,5.8606 -7.5511,10.78944 -12.27619,7.71975 m -4.98457,-18.23744 c 1.46562,6.6791 3.05969,14.82021 6.18208,20.27705 m -45.33962,-56.9873 c 0.38548,7.24267 2.27491,14.84377 5.36534,21.01172 m 1.23139,-20.80827 c 1.09158,-0.68436 2.17798,-1.3729 3.46799,-1.60498 11.80854,-2.12442 2.23592,8.94338 2.82716,9.65251 2.16884,2.60123 9.64723,1.24509 10.39141,5.70786 0.8794,5.27362 -7.24519,2.8688 -8.65741,1.10767 m 12.62801,-15.40559 c -0.56475,2.26502 1.28763,17.42177 4.20934,16.03854 m 5.86794,-16.35501 c -0.52273,1.32355 -1.24046,2.57203 -1.77169,3.89943 -0.42689,1.06666 -0.65469,2.32419 -0.69109,3.46993 -0.44332,13.95731 13.50829,-2.86017 6.77264,-4.47587 -1.64614,-0.39487 -3.48178,0.33537 -5.13917,0.4182 m 13.5967,-5.28057 c 0.45478,5.73129 1.49333,13.21821 2.02299,17.9826 m 27.12371,-18.08525 c -0.64702,0.25298 5.0438,13.88927 4.83759,13.95884 -3.54955,1.19734 -3.02069,-12.24613 -1.45756,-14.73873 3.23123,-5.15256 7.88203,2.96446 4.96325,6.46515 -4.14392,4.97007 -6.86281,-3.80118 -9.43645,-2.00058 m 16.55429,0.81869 c 1.385,3.84886 2.89176,7.57255 2.66381,7.60672 -1.65444,0.24804 -3.25864,-8.58849 -0.23874,-8.74829 2.55498,-0.13519 4.72264,1.93933 7.41347,1.01725 3.16156,-1.0834 1.63766,-3.28799 0.0754,-1.46935 -4.34676,5.06001 2.36633,8.71238 6.43337,3.91073 m 2.88999,-5.68526 c -6.74039,3.6554 5.83921,7.02326 1.52039,9.76553 -0.94565,0.60045 -1.49889,0.65458 -2.24917,0.45211 m 6.00115,-3.92168 c 1.56473,-0.18002 3.09185,-0.67395 4.56116,-1.232 4.15157,-1.57676 7.60091,-5.16744 6.05642,0.15824 -0.56526,1.9491 -0.67509,4.23501 2.28686,2.65614 3.60541,-1.92187 -0.69707,-6.66259 -0.55287,-6.70251 2.36206,-0.65376 5.1981,1.42065 6.81033,2.87089 0.40997,0.36878 2.89673,3.7983 2.43765,3.63947 -1.89916,-0.65706 -0.009,-6.51645 2.76434,-5.78698 2.43776,0.64129 2.83302,5.05665 5.59151,6.10345 m -27.15337,-11.22358 c -0.34975,5.5252 2.77256,10.51678 5.1643,15.23604 m 45.23456,-19.50227 c 0.86036,2.349 1.58306,5.07692 2.91513,7.23372 0.90488,1.46514 1.35022,3.10806 2.21146,4.56629 11.13486,18.8538 -15.33599,-7.89597 1.93503,-10.53411 13.31877,-2.03444 -2.11004,11.73162 -2.023,11.94695 1.38817,3.43383 10.29609,-0.97287 11.50972,-2.46399 m 1.88479,-8.04752 c 18.87423,-5.89826 17.66358,14.1982 5.59151,11.65309 m -2.0096,-12.54437 c -0.0312,4.05765 2.5016,7.78954 4.41039,11.08795 m 184.55451,-22.71406 c -0.26973,1.93548 2.33106,2.3376 3.81981,1.86495 13.95011,-4.42888 6.08156,0.32488 6.08156,12.42167 m -25.0085,-12.80411 c 16.44306,-3.96803 -2.98658,8.7596 3.73185,8.7596 1.87636,0 3.67057,-1.02733 5.17686,-2.0571 1.18335,-0.80898 2.2296,-1.80443 3.36745,-2.66744 m -22.68013,-4.96188 c -17.39813,17.21381 18.06728,11.28212 -0.66595,1.05115 m -14.85205,9.73162 c -2.60344,4.14841 8.28143,2.81155 7.25011,-2.1362 -0.88752,-4.25779 -8.8607,-2.91034 -9.00924,-3.27779 -0.79537,-1.96746 0.71446,-5.05736 0.51517,-7.04158 2.31919,0.68353 4.33293,0.42066 5.88049,-1.44675 m -25.74412,7.90885 c 1.65892,0.37135 3.82097,0.14048 5.15174,-0.90422 m -17.95568,-3.43602 c -0.635,1.51623 -1.34226,3.03246 -1.78425,4.62281 -6.4975,23.37867 21.95967,1.61648 1.26908,-2.21533 m -12.0877,-2.82568 c 2.89894,3.80597 2.38214,13.6746 6.86059,15.95941 m -14.82693,-12.88507 c 1.05686,1.45801 4.38327,17.91442 7.01141,14.30921 m -51.39525,-9.68385 c 0.9018,4.66129 2.2609,10.64021 5.9559,13.91362 m -12.1505,-10.59062 c 2.1479,-0.75846 18.61771,-5.24038 18.91061,-4.95059 1.89497,1.87504 -5.1651,5.77456 -0.84189,7.65193 2.65875,1.15456 4.91817,-3.06147 6.42079,-2.61092 0.47246,0.14166 -0.76862,0.62325 -1.10571,0.98333 -1.82598,1.95046 -3.57804,3.79968 -3.32976,6.7025 0.30513,3.56824 4.70073,1.53199 6.15692,0.28257 m -27.1785,-11.56266 c -1.90809,-0.27805 -4.0654,0.12854 -5.01349,1.98927 -3.27208,6.42172 6.00033,5.6372 6.27001,10.48891 0.19976,3.59364 -5.73521,2.0718 -6.10667,1.53717 m 17.1318,-52.46118 c -2.42062,-1.78646 -6.23796,4.45112 -4.37267,5.74177 4.59336,3.17834 8.55753,-17.24609 8.35581,-16.81842 -0.93841,1.98977 -4.50627,23.38099 0.56546,16.86363 m -30.79725,-4.6115 c 1.06784,-0.0764 2.12912,-0.1292 3.19155,-0.24866 3.06735,-0.3449 5.97089,-1.2685 8.89615,-2.23793 1.64632,-0.54561 3.88541,-1.36515 3.81982,-1.42415 -1.09142,-0.98175 -4.55829,4.61108 -2.39996,6.6912 3.20095,3.08499 6.37501,-0.32695 9.3862,-1.52586 m -16.39756,-12.38776 c -1.74109,5.90789 -2.03198,12.68515 0.87956,18.24256 m -10.53907,-12.6207 c 0.51266,-0.49195 1.17958,-0.72201 1.79682,-1.02855 m -28.61092,5.10882 c 1.30235,-1.26452 6.80495,8.29942 7.01136,7.74235 0.58128,-1.56855 -0.55415,-5.31763 1.83455,-5.8548 1.80258,-0.40537 0.0689,5.76766 3.20411,4.96189 1.88525,-0.48452 2.20508,-6.40144 4.51088,-5.59484 1.97587,0.69118 -0.90604,5.71083 0.95497,6.82683 2.26458,1.35804 4.54377,-1.6441 5.35277,-3.50383 0.47269,-1.0866 1.68372,-4.31581 1.68372,-3.13085 0,2.04446 0.14421,4.77424 2.4628,1.59368 m -42.38238,-9.08737 c 0.17766,5.6318 -3.34144,13.10649 2.0858,17.27052 2.99584,2.29853 5.33504,0.0946 6.97368,-2.57701 0.71079,-1.15884 0.9052,-5.05119 1.45759,-3.80901 0.63124,1.41954 1.30411,8.10112 4.536,4.13679 m -46.2956,-2.01948 c -6.24283,5.61739 6.75535,5.74602 -0.30157,12.09389 M 415.47522,156.4979 c -1.11439,2.21117 -4.03132,7.78781 -1.41987,9.98028 4.98898,4.18853 8.32775,-9.57735 7.66477,-8.78219 -4.22959,5.07282 -0.94831,12.97752 5.93076,5.40268 m -19.31269,-10.09331 c 1.01241,5.04646 1.92122,10.92812 3.89521,15.30386 m -23.28727,-13.36341 c -1.39222,6.82765 1.22918,12.47045 4.98838,17.41746 m -7.25011,-6.01304 c 4.72122,-1.4239 9.68827,-2.76838 14.13583,-4.95058 0.0534,-0.0262 1.09441,-0.71096 1.10574,-0.70077 0.0353,0.0318 -1.68938,1.82651 -1.87222,2.04579 -0.39197,0.47012 -2.95961,4.16935 -1.14343,4.29503 2.27308,0.15728 3.29208,-6.25455 3.29208,-5.54963 0,2.68365 0.26868,5.90247 3.69417,4.81495 m -20.84565,-6.39733 c -7.62802,4.30513 0.98783,5.73936 -2.06069,9.6186 m -47.71071,-6.17057 c -0.083,0.90717 3.66124,10.60446 5.13916,9.05347 1.8206,-1.91062 -0.0731,-6.61615 1.24396,-8.98565 0.1358,-0.24433 0.75364,6.24858 4.59885,7.31285 2.78621,0.77115 0.20925,-6.26517 0.67852,-7.1094 0.0596,-0.10714 5.28842,1.03387 5.79255,0.97203 1.46734,-0.17999 5.11818,-3.28471 2.36226,-4.31763 -1.47555,-0.55304 -3.33976,9.27592 0.94238,10.81668 4.53267,1.6309 8.79174,-10.07811 5.74229,-11.44964 -1.20159,-0.54043 -3.25581,9.49437 -0.18847,11.59658 4.3763,2.99931 7.61928,-6.44834 8.59458,-9.29082 -0.56951,1.63932 -0.20646,3.36957 0.17662,5.00639 0.53756,2.29682 1.06012,4.59946 1.64605,6.88334 0.34135,1.33061 1.08832,2.45874 1.50781,3.7525 0.0959,0.29587 0.25632,1.15066 0.3644,0.859 1.07574,-2.90299 -3.51751,-10.35217 -1.156,-14.37703 0.69007,-1.17614 3.49059,-4.62178 5.23968,-2.9274 2.95968,2.86709 -4.69728,10.81171 -7.71502,7.132 m -40.74961,-23.56542 c -2.22062,-1.31356 -4.51292,-0.45705 -6.34541,1.13027 -10.85067,9.39895 11.01976,15.77612 6.32028,25.49889 -3.05718,6.32503 -14.84312,5.2206 -11.64792,1.59368 M 10.062931,88.207425 c -5.3951765,-10.020601 -6.9209505,18.118225 1.130867,18.118225 2.96586,0 4.226757,-3.37929 5.026074,-5.65135 m 1.118301,-5.719165 c -0.09625,2.39368 0.07651,4.24982 2.751775,4.24982 m -0.866997,-8.61266 c 0.574718,0.92491 1.249197,1.78443 1.72143,2.76916 0.401969,0.83821 0.903095,1.59505 1.369605,2.39617 0.602633,1.03489 1.253763,2.10774 2.03556,3.01783 4.860561,5.658125 0.219419,-4.20954 3.304643,-4.82626 1.796313,-0.35907 3.834969,2.77839 5.805116,3.18736 m 6.295155,-5.4705 c -4.26756,-0.55306 -2.994036,8.758865 1.294214,8.951735 2.627312,0.11816 4.829652,-8.656705 5.126598,-7.855375 0.733189,1.97856 0.03256,3.37472 1.457562,5.41399 m 1.859646,-10.56802 c 1.519314,1.55579 3.743398,11.07837 6.219768,11.44963 0.459959,0.069 1.089021,-7.04051 1.859646,-6.2843 1.843033,1.80857 0.07563,5.05114 3.128729,5.71917 m 3.034153,-9.1355 c 0.344314,1.54883 -0.359521,3.15893 0.08796,4.70193 2.811719,9.695305 2.79365,-5.5421 5.23968,-3.61687 1.870731,1.47242 2.321396,11.965815 7.388326,5.88871 m 3.44286,-4.75844 c -2.73777,-2.92883 -4.591061,4.88574 -2.62612,5.99043 2.23634,1.25728 2.64313,-4.11818 3.6439,-5.0184 0.96574,-0.86871 0.73864,3.25009 2.03556,3.323 2.03292,0.11429 3.38745,-3.07006 3.98317,-4.54369 m 10.88144,-3.68468 c 0.40681,0.34646 0.4159,0.95086 0.60313,1.37893 m -11.72331,5.92262 c 3.71009,-1.56441 12.63068,-5.88389 11.79871,1.41283 m -11.24584,-9.2456 c 0.20394,4.49107 2.70546,8.54825 3.71929,12.83986 m 18.906748,-7.43461 c -0.63699,2.79243 -1.59123,5.59402 -1.84708,8.454415 m 22.69272,-18.513825 c -7.22462,-0.57416 -7.95257,16.97103 0.75391,13.95884 1.84048,-0.63675 3.32678,-3.32678 3.61877,-5.16534 0.4715,-2.96886 -2.89637,-8.83486 -5.99359,-5.09751 m 18.65705,-8.44184 c -1.21365,6.24272 2.11691,11.62871 3.20413,17.49658 m -8.99668,-8.59005 c 4.14021,1.2672 8.16408,-1.01906 11.45945,-3.19867 m -11.01966,-2.56571 c -0.83244,5.02215 -0.18535,10.12268 1.9476,14.72742 m 35.56169,-18.423008 c 0.66384,5.486428 0.34284,13.081588 4.03343,17.586998 M 170.67319,77.04168 c 1.31135,8.052355 1.33256,20.710635 10.66784,8.217065 m 12.07514,5.83219 c 2.24998,1.98175 6.31247,-1.40643 4.32242,-4.09157 -4.01047,-5.41129 -8.23968,3.66552 -8.72023,-2.17012 -0.12086,-1.46762 -0.0954,-2.96278 -0.3267,-4.41936 -0.1816,-1.14349 -0.33465,-2.286278 -0.31413,-3.447323 1.17727,-0.1698 2.36065,-0.315642 3.49312,-0.644255 m 8.74537,3.277788 c 13.17713,-6.620071 -1.43089,12.60859 6.67212,9.60729 1.73457,-0.64247 3.31545,-1.4222 4.46064,-2.85958 m 4.57729,-11.655736 c 5.09743,-2.245153 10.7075,-0.408661 5.39046,4.374146 -0.0472,0.0425 3.85925,-0.42113 5.34021,1.52587 1.78583,2.34782 -1.71392,4.20364 -3.26695,4.73583 m 12.28875,-13.145046 c -0.69117,4.457863 -0.24922,8.940036 1.78426,12.964206 m -4.59511,-39.951126 c -1.71709,0.595111 2.40799,6.784645 2.80204,6.193884 0.88924,-1.333157 0.55736,-7.329286 2.58842,-7.459786 1.53489,-0.09862 2.21563,1.435298 3.89521,0.99464 0.98131,-0.257455 7.00964,-4.487171 4.67425,-4.487171 -2.99026,0 -2.85564,11.148313 3.06591,6.36342 m -24.82495,-6.675703 c 0.3875,0.483186 0.614,1.029897 0.91725,1.525863 m -0.57799,4.871464 c 0.0212,1.060332 -0.005,2.118813 -0.0503,3.17606 m -11.2961,-1.33372 c -0.0173,-0.0097 2.81959,5.878269 2.71408,5.764378 -2.33014,-2.515225 -3.06671,-8.129261 1.25651,-8.499631 m -27.29158,0.779887 c 1.68653,-1.583904 3.80581,-2.696436 6.04386,-3.300386 18.69827,-5.045872 11.57036,18.934074 0.94238,13.167645 m -2.66382,-9.935072 c 0.0973,4.124495 1.04049,8.964083 3.76956,12.218219 M 173.29498,45.882344 c -1.58347,-0.953572 3.32165,11.277166 2.51304,10.34197 -0.33761,-0.390448 -0.77618,-0.740595 -1.14344,-1.096362 m -3.49312,-3.797707 c 2.88791,-2.747115 7.37329,-2.126562 10.83119,-3.628166 m -33.33544,1.537164 c -0.54296,-4.606854 -5.22663,2.884366 -3.65646,5.866104 1.21148,2.300606 4.40862,-5.052308 4.27216,-5.052308 -1.2027,0 0.83561,4.536915 1.9853,4.950582 3.68019,1.324173 6.10668,-6.294802 6.10668,-5.775678 0,1.950208 -1.87524,9.139048 2.08582,8.070129 3.08706,-0.833069 2.2213,-6.237861 4.41038,-7.222429 0.81039,-0.36448 -0.84442,4.150784 0.75391,6.193884 2.28076,2.915433 4.79943,0.356814 5.99359,-2.124911 m -31.4544,-8.270088 c -0.36294,0.448413 -0.92946,0.638455 -1.38217,0.949427 m -0.98008,5.199244 c -0.13502,1.688789 -0.0793,2.791138 1.41987,3.628166 m -18.32004,-3.809011 c -2.3876,-4.615814 -5.6239,3.890734 -3.1413,5.108822 2.48253,1.218051 2.83016,-3.257876 3.9329,-4.249817 0.80862,-0.727374 -0.54229,2.17305 -0.35182,3.243877 0.39041,2.194925 2.93672,2.909836 4.74964,1.977971 4.01792,-2.065267 3.8852,-7.917191 3.32977,-11.664385 -0.0116,-0.07819 -0.30679,2.615969 -0.25131,4.961886 0.0646,2.731113 2.27386,13.060741 6.99881,8.013615 M 97.246742,51.243312 c 0.82623,1.521608 8.534278,12.769778 10.303448,11.17837 1.6384,-1.473784 -0.0452,-16.498209 -0.66596,-18.785087 M 60.033731,52.99055 c 0.704132,-0.911717 1.718432,-1.39248 2.63869,-2.023184 12.540728,-8.594817 1.225578,11.387899 3.593643,13.518029 3.120682,2.807137 8.436414,-2.298768 5.038636,-6.883343 -1.860673,-2.510591 -7.608219,-2.937186 -8.192501,-6.329511 m -17.616385,2.204024 c 14.422397,-10.492111 -1.131108,11.038934 5.00094,11.958257 2.218195,0.332553 3.726977,-1.468737 5.164293,-2.927397 0.989374,-1.00407 1.846853,-2.146232 2.915121,-3.051729 M 26.245951,53.49917 c 3.21217,0.41442 5.646944,-1.6964 8.418673,-2.735253 3.444224,-1.290903 3.196926,11.884814 3.857512,14.591787 M 17.085931,53.533079 c 11.787285,10.779455 -6.244588,20.810285 -3.819816,6.99637 0.438266,-2.496793 0.744385,-5.064339 1.960169,-7.278937 M 5.5008315,52.83231 c -0.401615,2.864031 1.288055,20.178163 4.9004215,17.530489 M 218.35586,8.0009448 c -0.49802,2.2306942 1.89155,14.1704822 1.22612,14.3700052 -0.99142,0.297269 -5.1992,-3.959065 -4.62017,-5.131003 0.60234,-1.219074 4.79448,-2.448229 6.02399,-3.196887 m -10.08214,-2.297325 c 5.15005,5.612572 -1.07161,-1.146302 1.31496,1.40663 m -2.20346,3.037042 c -0.35787,1.4853 -0.0127,2.228581 0.76411,3.500591 m -10.53753,-2.973104 c -4.13532,-1.942421 -7.33848,7.173601 -2.6477,6.729446 4.57367,-0.433067 6.12358,-17.7911462 3.05641,-15.3770252 -5.10765,4.0201502 2.09948,20.7291572 9.15147,10.5177572 M 168.73579,9.6677588 c -0.3852,-7.872047 -11.12312,11.5849902 -0.92403,15.0253662 4.81049,1.622685 8.40388,-9.928587 8.44068,-9.862394 1.07995,1.942886 1.97305,3.970971 3.28742,5.818333 0.11253,0.15816 1.13928,1.805337 0.99511,1.870179 -1.31674,0.592222 -2.80708,-3.03584 -2.68325,-3.96414 0.26354,-1.975417 6.15998,-1.627161 7.6055,-2.253805 0.77037,-0.333959 2.25678,-1.958551 2.25678,-1.11891 0,1.773796 -5.34395,6.135102 -0.63972,7.192995 2.24896,0.505749 5.43589,-1.484434 7.46334,-2.285774 m -60.41218,-8.431226 c 0.27905,-3.5997042 1.3714,16.413563 4.08706,13.219126 0.45342,-0.533359 1.69643,-4.845415 2.27454,-4.715408 1.59086,0.357753 2.01042,4.052417 5.25988,4.539579 M 126.96418,11.434601 c -6.96679,5.62367 -0.29582,6.477751 2.66548,10.917367 1.82142,2.730686 -1.59752,3.408484 -3.41181,2.493572 M 114.09863,12.720598 c -3.42101,-4.6881752 -4.27539,9.192293 -1.8303,10.038224 3.66126,1.26669 4.49021,-9.244979 3.76721,-7.944263 -2.26298,4.071228 2.56315,6.738313 5.63304,4.93919 M 98.034682,7.9572368 c -9.82652,-4.533805 -6.90933,23.1369192 5.952898,13.3470022 M 63.474475,11.10386 c -13.429557,19.691593 11.380558,7.89875 7.818735,0.57544 -1.15496,-2.3746642 -7.378975,9.182831 -0.408708,11.492807 2.252829,0.746597 3.113564,0.240387 4.762322,-1.454583 M 56.028905,8.6742268 C 56.774673,14.029776 57.182064,20.37695 60.897848,24.610706 M 50.004924,12.926085 c -1.068678,-2.900392 -5.370701,5.462892 -3.216342,7.400793 1.520417,1.367656 3.27439,-6.036434 3.802749,-5.402738 1.856659,2.226819 -0.746383,10.573058 5.135487,6.537633 M 28.290163,17.225898 c 6.1991,0.343685 12.186623,-1.739814 18.231869,-2.589478 M 32.394999,9.1377748 c 0.86493,6.4943452 3.262575,12.8715432 6.841393,18.1902842 M 23.048056,7.7151608 c -2.090823,-0.637694 -4.262393,-0.240352 -5.544194,1.646396 -4.674979,6.8813372 5.62612,8.2672222 6.823623,13.9224412 0.751161,3.547359 -3.081094,5.16709 -4.8334,2.157898" />
  </g>
</svg>
