<?xml version="1.0" encoding="UTF-8" standalone="no"?>
<!-- Created with Inkscape (http://www.inkscape.org/) -->

<svg
   version="1.1"
   id="svg2367"
   width="2080"
   height="889.33331"
   viewBox="0 0 2080 889.33331"
   sodipodi:docname="ZachW - Stake - Envelope37.svg"
   inkscape:version="1.2.1 (9c6d41e410, 2022-07-14)"
   xmlns:inkscape="http://www.inkscape.org/namespaces/inkscape"
   xmlns:sodipodi="http://sodipodi.sourceforge.net/DTD/sodipodi-0.dtd"
   xmlns="http://www.w3.org/2000/svg"
   xmlns:svg="http://www.w3.org/2000/svg">
  <defs
     id="defs2371" />
  <sodipodi:namedview
     id="namedview2369"
     pagecolor="#ffffff"
     bordercolor="#000000"
     borderopacity="0.25"
     inkscape:showpageshadow="2"
     inkscape:pageopacity="0.0"
     inkscape:pagecheckerboard="0"
     inkscape:deskcolor="#d1d1d1"
     showgrid="false"
     inkscape:zoom="0.30473866"
     inkscape:cx="1130.4768"
     inkscape:cy="374.09103"
     inkscape:window-width="1366"
     inkscape:window-height="705"
     inkscape:window-x="-8"
     inkscape:window-y="-8"
     inkscape:window-maximized="1"
     inkscape:current-layer="g2373" />
  <g
     inkscape:groupmode="layer"
     inkscape:label="Image"
     id="g2373">
    <path
       id="path2794"
       style="fill:none;stroke:#52424f;stroke-width:0.818591"
       d="m 560.90605,237.5413 c -12.77264,14.11902 4.00771,15.49758 4.00771,4.85458 0,-4.16857 -5.22765,-6.38337 -6.78594,-9.63734 m -8.10595,2.7486 c -0.95051,6.63546 0.18869,13.32743 3.40096,19.01615 m -13.38029,-16.70376 c -0.54233,3.46305 -0.30669,6.95694 0.67059,10.32674 1.64285,5.66478 5.96712,-2.12873 9.88356,-4.19389 m -14.62571,2.8438 c -0.25358,0.28075 -0.9366,0.60935 -2.26731,2.08259 -0.77182,0.85447 -9.25957,6.16903 -8.25491,2.91562 1.22509,-3.96715 9.65393,-8.89824 1.59671,-11.73429 -2.06575,-0.72712 -4.66032,-1.1009 -6.49857,-0.28725 m -9.3087,-2.75763 c -2.16287,5.12482 -3.18022,0.18198 -5.42877,0.99102 -0.99716,0.35879 -1.8188,1.94567 -1.99584,2.90126 -1.48219,7.99945 7.84223,2.41416 9.7877,8.97666 1.2957,4.37065 -6.38921,3.96041 -8.22295,1.46499 m -19.89482,-11.27469 c -0.60566,6.0869 10.32353,-2.39056 11.57605,-1.26391 1.09952,0.98907 2.79422,15.46667 2.79422,17.59425 m -32.96244,-18.61445 c -2.51374,5.03924 -5.49704,12.45195 -5.33296,18.35548 m -5.06153,-15.6553 c 0.69694,3.04709 8.15629,13.7778 11.35249,11.64812 m -23.58314,-11.15979 c 0.80518,5.73967 -0.96931,12.58846 1.56475,17.86714 m -11.8794,-15.68402 c 7.71367,0.81984 15.89343,-1.91557 22.83271,-2.59963 m -52.45136,9.23518 c 0.19767,-0.1082 -0.67137,-1.19593 -1.29332,-0.80431 -1.06999,0.67374 -1.51159,2.42664 -1.90007,3.53322 -1.50853,4.29705 3.02693,0.63297 3.80013,0.51705 0.79542,-0.11925 1.21431,2.04466 2.85808,1.91023 1.17103,-0.0958 5.83157,-4.72367 4.77412,-5.19928 -0.1096,-0.0493 -0.46452,0.63854 -0.51095,0.7325 -1.64641,3.33222 5.86677,7.37726 1.05382,8.4596 -1.34377,0.30219 -1.91258,-0.31482 -2.31521,-0.76122 m 13.9551,-1.40753 c -1.26215,2.00271 -1.71393,5.89828 -4.2472,6.33392 m -50.16393,-9.12264 c -4.50168,12.66914 -3.503,-0.26521 -0.57481,-1.27828 2.54639,-0.88097 1.29807,10.21424 7.08932,6.86536 2.35414,-1.36133 7.86322,-13.45339 4.88587,-15.03771 -2.08614,-1.11008 -2.25794,13.30311 4.24721,14.53501 4.57363,0.86613 7.72585,-13.76357 5.36489,-13.05565 -0.99309,0.29777 -2.01026,15.23948 9.94739,10.01077 m -65.99131,-9.01975 c 5.93763,-2.79809 21.4144,0.26374 21.89065,8.61759 0.48437,8.49608 -12.61901,10.07171 -18.10649,6.9228 m 2.42697,-17.78096 c -1.57237,-2.91691 2.8442,26.73657 4.40687,20.45242 M 668.9875,190.99272 c 0.0753,1.53312 1.21652,2.72427 2.61857,3.31778 2.27047,0.96109 6.64313,-2.76063 7.83977,-1.95333 0.6067,0.40929 -0.90256,13.60961 -0.70252,15.79893 m -26.61691,-16.40216 c 20.62887,-2.83022 -13.19438,22.38696 8.95748,9.85278 m -19.73515,-11.8061 c -1.52576,0.88213 -2.50174,2.35759 -3.28916,3.89228 -6.547,12.75988 9.53113,8.3286 4.55056,0.48833 -1.11399,-1.75362 -3.28829,-3.22952 -4.94977,-3.61939 M 625.2062,183.0789 c -2.33961,1.15174 -4.62827,3.38941 -5.68426,5.81687 -0.10409,0.23932 -1.50207,3.7807 -1.13365,3.86356 1.21058,0.27223 3.31887,-1.34377 4.93378,-1.12029 3.36982,0.46634 9.29198,4.48686 8.73392,8.50269 -0.60414,4.34746 -8.59019,8.41146 -8.59019,2.22622 m -22.32621,-12.15569 c 0.97893,1.62484 4.29187,0.37992 7.04143,-1.06284 m -17.19637,-2.39856 c -1.1016,1.58961 -1.52355,3.49303 -2.07571,5.31418 -4.21724,13.90956 13.68356,4.82092 7.20109,-3.2316 -1.44922,-1.80023 -2.84862,-2.46184 -5.12538,-2.08258 z M 580.191,184.96989 c 0.77209,5.77043 2.68688,12.51765 6.53046,16.18671 M 573.7723,186.06145 c -0.72144,4.45615 1.62921,11.68728 5.60438,14.08976 M 535.78953,188.7563 c 1.54833,5.00883 4.37339,10.35359 7.68009,14.31957 M 529.72209,190.6378 c 5.94255,8.7e-4 11.73692,-1.21436 17.59557,-2.02513 1.35354,-0.18731 5.37411,-0.86176 4.00771,-0.86176 -1.74525,0 -6.35359,5.35069 -4.50269,7.16697 3.02713,2.97053 9.12685,-3.38381 7.9196,-2.62837 -4.02192,2.51673 -5.25551,11.76518 0.89415,6.13285 m -26.60092,-11.38958 c -19.03068,8.13955 1.9397,9.1843 3.83205,13.15619 1.31347,2.75676 -5.98648,1.14704 -7.74394,-1.72352 m -30.12959,-4.86894 c 1.99234,0.15986 3.97003,0.24678 5.95564,0.44525 4.11626,0.4114 8.49329,-0.0932 12.29455,1.9964 1.45953,0.80232 2.36313,2.0534 2.36313,3.73429 0,6.47584 -8.24911,4.43872 -12.08697,4.00719 m -5.20522,-9.85279 c 1.44784,4.35207 5.08852,8.26312 6.94561,11.94973 m -30.56072,-9.40754 c 2.6041,-1.34135 12.50863,-4.80196 14.80136,-1.45062 3.48227,5.09012 -7.67407,6.96728 -6.80193,8.73249 2.30292,4.66091 12.9259,-1.32784 14.72153,-3.26032 M 478.596,197.00046 c 1.08817,4.84971 4.83277,8.89025 8.49438,11.93537 m -51.58629,-11.73654 c 0.46692,5.00083 3.7245,9.37196 7.32884,12.55297 m -10.15498,-2.71455 c 2.44937,-1.40528 13.00339,-6.32452 15.44002,-3.96409 0.9898,0.95883 2.48689,6.61168 -0.39916,5.44345 -1.90648,-0.77171 0.76164,-4.63581 2.12362,-4.85458 4.27719,-0.68704 4.1867,3.13412 6.45063,5.17056 0.13931,0.12533 -0.55624,-4.82993 2.20341,-4.58169 3.36177,0.3024 2.31462,5.4653 8.74991,2.19749 m -35.98945,-7.03771 c -9.73516,3.12444 8.65837,10.48911 -0.38323,10.74327 m -20.67717,-7.31059 c 0.12025,0.18227 3.14131,6.97962 2.95388,6.95152 -2.41375,-0.36187 -2.16059,-9.20316 1.67653,-8.73249 0.32558,0.0399 8.32892,2.57873 7.61622,0.0143 -0.01,-0.0357 -3.35839,3.52679 -2.63454,5.37164 0.85936,2.19021 3.89658,2.06785 5.33295,1.24955 m -24.98825,-2.38414 c 0.78035,1.14036 3.00689,1.93276 4.23124,0.90485 1.49288,-1.25336 2.41877,-4.00308 2.66648,-5.85997 0.96611,-7.24199 -11.85866,-2.94564 -15.00891,-2.34111 m 4.1035,2.24057 c 0.25658,1.37529 6.75336,20.52203 7.29688,12.79713 m -33.84277,-13.81009 c -1.01757,5.63465 -1.53577,14.15869 3.24129,18.36984 m -15.15262,-14.54937 c -5.3662,2.41904 -4.38513,19.84047 3.30516,13.9605 3.6538,-2.79369 -1.68635,-11.30899 -5.4607,-11.21723 m -9.62805,-0.48834 c 0.95105,5.08625 2.01778,11.33263 5.58842,15.29624 m -24.15796,-16.56015 c 2.58418,-0.0139 10.61304,-4.16238 12.77354,-0.57451 2.50861,4.16597 -4.52834,8.65894 -4.03963,8.74686 3.27571,0.58932 8.88703,4.74592 5.65229,8.57451 -2.0583,2.43618 -4.49115,-0.70116 -5.30102,-2.47038 m -19.84689,-16.07181 c 2.6054,6.98049 5.08954,15.87968 10.0911,21.52962 M 539.28146,143.7476 c 0.11279,-1.4007 1.15319,15.82121 2.17149,13.98923 0.46354,-0.83388 -8.23599,-3.03978 -4.61441,-3.51885 3.22709,-0.42689 8.31508,0.0735 11.32052,-1.27828 0.20441,-0.0919 5.19434,-2.11319 4.64637,-2.29802 -2.90039,-0.97837 -6.17096,7.41113 0.17566,7.41113 3.08136,0 14.91355,-6.73072 9.34066,-9.95332 -5.98458,-3.46067 -4.46843,12.98721 -1.30931,9.7666 1.89613,-1.93301 7.27287,-20.32558 4.64638,-21.1131 -3.64657,-1.09339 1.72662,21.22413 2.13956,23.19569 m -33.96164,-12.06463 c -0.62233,-0.42889 -0.89649,0.17488 -1.32524,0.25852 m -25.86644,1.40754 c 1.15354,2.20151 2.56061,10.18578 5.01362,11.28905 0.68043,0.30605 1.18906,-8.67431 2.05973,-8.1149 1.74837,1.12337 0.80077,6.79768 3.14548,7.32496 2.80293,0.63033 3.59754,-6.27765 4.94973,-7.89946 1.16987,-1.40309 0.58223,6.16306 3.73628,6.79353 1.5615,0.31214 2.13532,-0.74515 3.08163,-1.7666 6.24327,-6.73917 0.20602,-3.95804 3.65641,1.10592 m -43.23846,-15.75583 c 2.22807,6.42285 0.49677,15.62267 4.64638,21.42908 2.89519,4.0511 6.71902,-1.76517 7.77592,-4.23698 0.54575,-1.27638 0.91979,-5.47302 0.76641,-4.09336 -0.30119,2.70935 0.54034,5.27109 3.51272,5.27109 m -56.90352,-9.50471 c -1.42448,1.01503 -2.02932,2.38055 -2.81016,3.84919 -0.51469,0.96802 -0.79123,1.97085 -1.08574,3.03052 -0.5918,2.12934 -0.0251,3.9336 0.97398,5.7307 4.25128,7.64831 11.56899,-10.90826 9.45242,-11.28904 -3.16276,-0.569 -4.34073,8.75728 -1.14963,9.95332 5.76409,2.16039 13.97963,-13.21319 10.9693,-10.84381 -5.9024,4.64567 3.32161,11.90759 -1.16558,15.21005 m -22.28986,-16.76122 c -0.54212,4.65568 1.69755,10.29126 3.27322,14.42011 m -24.92437,-12.61041 c 0.9299,5.29105 4.75729,10.12632 7.21706,14.90844 m -8.70198,-4.96948 c 5.59214,-1.1935 11.46373,-0.87567 15.91903,-4.8833 0.35035,-0.31514 -3.47681,3.82404 -2.13957,5.98922 1.35531,2.19444 2.39757,-3.71372 3.2413,-3.56194 1.19347,0.21472 1.76894,4.69799 4.37491,5.35727 m -24.39746,4.29444 c 5.76162,-4.96004 -7.92721,-7.56487 2.53875,-12.82585 m -58.4709,7.52603 c 1.07307,1.59558 4.51048,11.11914 7.48849,10.22621 2.10246,-0.63041 -2.12429,-11.80182 0.57481,-12.49551 0.59993,-0.15419 5.11164,7.61935 8.27087,9.60862 1.95652,1.23195 -0.94205,-10.97748 -0.94205,-9.42191 0,3.7808 9.36239,4.53026 9.65999,-1.09156 0.0166,-0.31416 0.25732,-1.50683 -0.0639,-1.72352 -1.64698,-1.11113 -1.42364,7.49517 0.49498,9.0772 5.59431,4.61287 10.52751,-7.4389 7.72799,-7.94255 -1.73054,-0.31133 -3.49569,10.98744 1.16559,10.98744 5.13157,0 6.9195,-7.71453 7.83976,-11.46141 -0.12616,1.95155 0.2694,3.75994 0.70255,5.63017 0.67958,2.93425 1.56564,5.78296 2.79421,8.54578 0.18241,0.4102 0.70255,1.59794 0.70255,1.14901 0,-3.51663 -5.72378,-12.88781 -0.54288,-15.68402 4.60188,-2.48371 4.5704,11.31383 -3.17742,6.11849 m -50.93448,-18.64273 c -3.48938,-0.38973 -6.57941,1.09468 -9.02131,3.60503 -7.33553,7.54113 11.74051,15.05542 14.27443,22.21903 4.03259,11.40043 -16.8694,5.01796 -10.01126,0.12926 M 228.96346,68.527453 c -0.0906,5.99287 -1.32275,12.359126 0.36724,18.211847 M 214.44952,74.243786 c 11.83888,-3.510448 3.83524,8.295846 3.08161,6.262121 -0.11961,-0.322787 7.92343,0.165459 5.58843,4.366249 -1.41673,2.548762 -4.95,3.323828 -6.21114,0.531415 M 202.28271,74.674666 c 14.53218,-8.473365 -7.35246,21.003681 9.26082,4.725314 m -16.95687,-6.089767 c -2.13115,-1.466733 -7.73247,3.241942 -5.33296,5.400361 2.18542,1.965838 4.66625,0.354044 5.36489,4.59605 0.32737,1.98774 -0.96847,8.676865 -3.59256,5.529623 m -8.59021,-15.25314 c -0.61383,4.881109 -0.77054,12.315727 1.6925,16.746856 m -10.74575,-16.91921 c -1.46996,2.06468 0.93143,13.180922 4.23124,11.820468 1.93353,-0.797163 3.10483,-4.374683 4.50268,-5.845601 m -41.18995,2.293871 c 2.95779,-2.065615 7.26849,-0.546178 10.1869,-2.140034 m -4.88588,-8.15799 c -0.21197,4.911521 3.93269,9.631147 2.53874,14.247756 m -7.58429,-12.725312 c -2.34341,3.862989 -0.70137,10.82474 2.13957,14.118489 M 130.10096,72.903911 c -11.43605,24.160335 12.1117,10.894779 0,0 z m -15.24823,11.884144 c -0.49403,3.147337 -1.73404,6.126924 -1.8841,9.321364 m -7.9196,-17.105924 c 0.38158,0.7155 -0.47361,0.713343 -0.68657,1.034111 M 92.594833,83.20816 c 6.95266,-0.930376 10.864857,-5.663222 12.422267,2.542191 M 95.101643,74.418216 c -0.66,4.813342 0.30031,9.245706 3.16145,13.170556 m -12.61387,-6.922799 c -2.34311,-5.567404 -5.841537,3.999971 -3.87997,5.960499 2.85243,2.850931 4.26892,-5.234927 4.37494,-4.567323 0.42319,2.664728 1.24837,4.098835 3.80013,2.628367 M 66.201496,78.913727 c 3.699506,24.432103 4.63336,-15.346818 8.12717,9.795332 M 53.667456,77.664177 c 2.643328,0.07597 2.693186,2.767476 3.400959,4.768401 2.805647,7.931796 1.267054,-3.40079 3.672393,-2.614002 1.102207,0.360529 1.648116,3.345643 2.554706,4.280069 M 45.093218,79.258432 c -4.792806,0.408811 -1.463541,10.821859 2.235367,8.445239 3.90064,-2.506229 2.524626,-12.396028 3.800132,-3.217233 M 28.16827,78.353584 c 1.030673,1.39516 1.633801,3.044683 2.666478,4.438059 6.908411,9.321434 0.645934,-4.153821 5.636326,-2.427288 1.695117,0.586463 0.321416,5.645445 3.33709,6.980251 M 23.362225,81.642633 c -0.23371,3.093823 2.178438,6.470083 3.576592,2.068223 M 15.58633,75.107622 C 4.9978965,64.36943 9.9919635,104.63281 20.392375,87.258431 M 202.68394,45.797705 c 1.26929,-1.710881 4.66234,6.662561 4.66234,5.730699 0,-3.098999 -2.80702,-7.286891 3.25725,-7.741471 3.5541,-0.266416 5.55656,4.696415 5.62036,4.524238 0.5033,-1.358198 -0.6201,-6.885777 0.76641,-6.491922 3.06286,0.870038 5.37865,2.146055 7.64816,4.509874 0.34058,0.354729 1.03785,1.540234 1.03785,1.048475 0,-1.249136 -0.28594,-3.093234 0.0479,-4.294435 0.4082,-1.468705 3.04497,-0.313887 4.51865,-0.703771 0.50341,-0.133186 4.42332,-2.946801 3.08161,-3.159784 -1.00894,-0.16016 -4.09364,5.539046 2.96985,5.486535 m -52.32363,-2.657091 c 19.95888,-8.770282 24.26856,13.059441 8.71795,10.829441 m -5.92373,-9.105923 c 1.26633,5.385928 3.83132,10.140563 6.2271,15.066427 M 166.58784,48.713605 c 2.48501,-1.005189 5.10949,-1.927469 7.80783,-1.852781 m -6.1313,-5.687614 c -1.10786,4.686363 8.15543,15.50519 2.1236,10.757628 m -27.28748,-5.63016 c -2.864,0.124691 -4.49067,4.891134 -3.04969,7.267503 2.14185,3.532193 4.1065,-4.87792 4.2472,-4.624774 0.7163,1.288656 -0.76351,8.554524 3.12952,6.879712 3.87094,-1.665304 4.54918,-9.208341 5.18925,-8.344704 0.81821,1.103999 0.63101,15.375307 4.19931,6.147218 0.84893,-2.195446 1.87635,-5.316836 3.49676,-7.052063 3.04824,-3.264257 0.005,12.992043 4.4867,5.759425 M 132.41861,43.7154 c 0.24482,0.373429 0.48965,0.746858 0.73448,1.120288 m -1.61266,2.92998 c 0.33242,2.056047 0.5289,4.589207 2.69841,5.070019 M 124.03597,43.65795 c 0.56877,2.786951 0.54204,13.319832 4.99765,10.901255 M 117.9366,46.358129 c -3.30512,-2.627326 -6.73089,5.474644 -5.06151,7.727108 2.71292,3.660507 5.23917,-6.271798 4.75814,-3.964092 -1.45327,6.972034 2.57167,6.113089 5.14135,1.091564 M 95.519033,48.397627 c 1.28665,2.215364 2.75396,4.852554 4.949747,6.333929 1.21564,0.820124 2.0961,2.580094 3.38499,3.159786 1.90281,0.855809 -2.57762,-9.074885 -0.22354,-13.78815 m -33.24806,2.844253 c -0.962699,3.970702 3.091791,5.667208 5.28505,8.344705 4.884313,5.962686 -3.321122,5.870689 -3.321122,1.508079 0,-3.5618 12.178655,-19.621164 -1.963928,-9.852784 z m -15.599691,0.962301 c 15.970902,-11.780227 -2.553311,10.995799 5.316988,9.57989 2.258082,-0.406242 3.859485,-2.50924 5.221183,-4.179534 m -32.285131,-7.95691 c 13.560256,1.404489 9.072897,-0.19155 11.097014,12.222619 M 23.599063,42.193407 c -0.574329,1.361552 -1.294709,2.677895 -1.852163,4.050269 -0.930609,2.291029 0.240508,13.730938 4.550575,9.149013 3.001003,-3.190295 -0.658421,-11.107587 -5.141352,-9.335727 M 8.7338525,40.670966 c 2.9468985,5.158828 -1.216004,15.966729 3.8480295,19.662479 M 179.37559,18.2687 c 2.45148,-1.14792 5.58709,-0.474018 7.28092,-2.743268 m -3.08162,-5.7307003 c -2.10272,4.0760333 2.50182,14.7991373 -1.34123,12.8402153 M 175.16031,10.42669 c -0.75805,1.342035 -0.96308,2.023221 0.016,3.231597 m -11.17688,3.791741 c -1.72456,-0.98786 -2.93996,-0.162872 -4.11947,1.163376 -6.99178,7.861602 6.27432,7.712542 6.94562,-6.175943 0.0259,-0.535335 0.31503,-2.5452303 -0.43111,-2.6570913 -3.77988,-0.566683 -1.75062,9.8323503 -1.35719,10.7289043 7.38499,16.828903 7.70038,-15.2846762 8.71795,0.962298 m -34.79194,-8.675044 c -1.48368,-6.4391344 -12.16846,11.67955 -1.86814,13.630161 5.55548,1.052061 7.74015,-9.614083 6.64225,-9.120287 -0.19623,0.08826 3.26485,6.606822 3.86399,6.606822 1.47981,0 -1.83945,-2.849389 -1.32525,-4.236984 0.61757,-1.666568 6.34804,-3.045593 7.85573,-3.94973 0.37358,-0.22403 1.12082,-1.258588 0.71851,-1.091562 -2.91076,1.208449 -5.77964,8.487234 1.8841,6.836624 M 108.2211,10.702834 c 0.55684,1.052878 0.92441,2.1449 1.21349,3.289048 0.25422,1.006197 0.63847,1.973656 0.81431,3.001795 0.23696,1.385481 0.69914,2.69946 0.78238,4.122083 0.51377,8.780803 0.87425,-4.271217 4.21527,-3.346499 2.27927,0.630849 1.59648,6.003497 4.40687,7.267504 m -16.0787,-10.384201 c -1.0514,0.806205 -2.19597,2.021175 -2.2673,3.432675 -0.11732,2.321704 3.79553,3.444598 3.04968,5.960503 -0.90529,3.053753 -4.3385,1.210194 -5.253117,-0.488331 m -3.81609,-8.229802 c -1.78929,-0.142748 -2.97969,0.454844 -3.80013,2.05386 -0.58711,1.144262 -0.56884,5.492426 1.78829,4.667864 1.6104,-0.563343 1.42021,-4.475251 2.73035,-4.710952 1.27598,-0.229554 0.11543,2.967871 1.18155,3.705566 1.04479,0.722933 3.423157,-1.288937 4.534607,-1.637343 M 84.542143,11.564593 c -3.21541,-9.9693957 -10.658197,6.07013 -2.13957,12.38061 1.95926,1.45139 4.35579,0.448107 5.95567,-0.991023 M 52.304306,13.661541 c -0.9015,-0.445004 -2.242254,0.722743 -3.241287,3.059246 -3.543651,8.287772 9.83563,5.571262 9.83563,-3.748653 0,-0.941098 -6.024422,6.885941 -1.181555,9.608617 1.629793,0.916274 3.05528,-0.114705 4.231238,-1.192101 M 46.300741,9.1947547 c 1.83584,3.3931323 2.435701,12.1357273 1.532827,15.1813283 M 23.244495,8.2611817 C 22.83276,10.956096 28.442331,23.47512 24.825221,23.672313 m -7.217053,-6.678636 c 2.960088,-3.349568 22.679803,1.253437 21.395686,-2.211848 -0.594372,-1.603955 -5.358059,3.996899 -3.68836,6.750448 2.42258,3.99515 4.742177,-2.857266 4.742177,-4.782764 0,-0.317701 -1.405704,5.052244 2.586643,5.57271 M 13.776105,8.8356877 C 13.273728,3.6189382 3.4019505,14.225598 5.7766745,16.36172 c 2.272132,2.043841 9.5938975,1.543158 10.5541395,4.998205 1.106122,3.979938 -7.6310615,4.271295 -9.2927525,1.766607" />
  </g>
</svg>
