<?xml version="1.0" encoding="UTF-8" standalone="no"?>
<!-- Created with Inkscape (http://www.inkscape.org/) -->

<svg
   version="1.1"
   id="svg322"
   width="3000"
   height="1998.207"
   viewBox="0 0 3000 1998.207"
   sodipodi:docname="MonicaG - Pulsz - Envelope19.svg"
   inkscape:version="1.2.1 (9c6d41e410, 2022-07-14)"
   xmlns:inkscape="http://www.inkscape.org/namespaces/inkscape"
   xmlns:sodipodi="http://sodipodi.sourceforge.net/DTD/sodipodi-0.dtd"
   xmlns="http://www.w3.org/2000/svg"
   xmlns:svg="http://www.w3.org/2000/svg">
  <defs
     id="defs326" />
  <sodipodi:namedview
     id="namedview324"
     pagecolor="#ffffff"
     bordercolor="#000000"
     borderopacity="0.25"
     inkscape:showpageshadow="2"
     inkscape:pageopacity="0.0"
     inkscape:pagecheckerboard="0"
     inkscape:deskcolor="#d1d1d1"
     showgrid="false"
     inkscape:zoom="2.8172293"
     inkscape:cx="417.60888"
     inkscape:cy="185.28843"
     inkscape:window-width="1366"
     inkscape:window-height="705"
     inkscape:window-x="-8"
     inkscape:window-y="-8"
     inkscape:window-maximized="1"
     inkscape:current-layer="g328" />
  <g
     inkscape:groupmode="layer"
     inkscape:label="Image"
     id="g328">
    <path
       style="fill:none;stroke:#969db8;stroke-width:0.293224"
       d="m 72.293883,19.191822 c 1.610979,1.314234 3.321359,2.475989 5.278047,1.759349 0.949464,-0.347766 1.75847,-1.175245 1.368481,-2.345799 -0.980249,-2.940165 -5.028219,-3.741256 -5.669209,-7.037397 -0.202031,-1.03913 0.329293,-2.4213631 1.075257,-3.2254736 1.316578,-1.419412 3.125188,-1.5345042 4.691596,-0.5864482 M 37.106902,20.657945 c 2.81056,0.739514 5.535792,-2.727871 5.571273,-5.278047 0.01084,-0.782616 0.133416,-1.661118 -0.39087,-2.296831 -1.090209,-1.322091 -3.635987,-0.573547 -4.887177,0 -0.504348,0.231062 -1.143284,0.757987 -1.710382,0.390871 C 34.97633,13.012401 35.108869,11.36571 35.00536,10.688301 34.90625,10.038633 34.208962,8.4191805 34.614492,7.8049323 c 0.407289,-0.6169729 1.568167,-0.3421054 2.199186,-0.3421054 2.253434,0 4.323308,0.2932263 6.450946,0.2932263 M 5.7318452,8.0492773 6.0250693,10.395077 5.7318452,13.620549 v 1.759349 l -0.244257,2.639023 -0.3421934,2.639024 m 8.5035212,1.466125 c 1.117479,0.705791 2.197719,1.026287 3.518698,0.879674 1.035962,-0.115237 2.532288,-0.657996 2.883279,-1.759349 0.564751,-1.771372 -0.666207,-4.390455 -1.808024,-5.864497 -1.011039,-1.30485 -2.43875,-1.618601 -4.007505,-1.466123 -1.671381,0.162445 -2.035859,0.760331 -3.518698,-0.293226 l 2.394769,-5.4246585 2.29683,-0.1466132 h 7.623844 m 24.630887,2.6390237 c 1.186976,0 2.195963,-0.09307 3.225474,-0.293224 2.047883,-0.3982003 4.123622,-2.0293522 6.157722,-1.172901 l -1.368481,3.518698 -0.977318,7.330623 M 25.964359,9.9552395 c 1.597195,-0.8984423 5.072496,1.3130905 5.522302,2.7856345 0.360082,1.178471 -0.09413,2.696497 -0.341898,3.811925 -0.411983,1.853179 -1.393112,3.360941 -3.12783,4.300728 -1.691615,0.916034 -2.592988,-0.920434 -3.127831,-2.248155 -0.401131,-0.996084 -0.390868,-1.331535 -0.390868,-2.3458 0,-0.982889 -0.08064,-1.497206 0.04897,-2.345797 0.163032,-1.066753 0.260968,-3.308135 1.417155,-3.9585355 M 129.84894,17.862306 c 2.03381,-0.749482 7.68102,-2.968868 7.44321,-5.414656 -0.15276,-1.569251 -1.64088,-2.7960741 -3.42105,-1.905962 -0.98494,0.492501 -2.91347,1.400774 -3.96706,2.287745 l -0.13809,9.001413 M 99.563794,10.688301 c -0.604337,1.640006 -1.368479,3.238962 -1.368479,4.984823 0,0.549797 0.171829,0.896388 0.19558,1.466123 0.02698,0.644216 -0.06158,1.036551 0.04897,1.759349 0.255106,1.670502 0.951513,4.018648 2.345795,5.180403 2.64812,2.206811 7.92939,-1.739996 7.57488,-4.887177 -0.16919,-1.501899 -2.19801,-1.927074 -3.17651,-0.879674 -1.03391,1.106335 -0.76304,4.512433 -0.76304,5.971521 m 4.23278,-13.008918 4.39837,-0.293226 m 26.39023,0 c 0.84601,1.83245 1.1729,9.920677 1.1729,9.920677 0,0 3.58409,-0.133711 4.98483,-0.244257 m -34.47291,-9.486723 1.3385,4.795126 m 1.46612,-4.105148 0.64165,3.732624 m -0.18982,-1.514455 c 1.69501,-2.125867 4.72054,-1.798015 5.41267,1.300529 m -35.186982,5.864497 v 0.293224 m 74.772332,12.315447 0.29323,3.518698 v 6.74417 m 9.99905,-7.225592 c -0.51042,1.250068 -4.34128,10.821116 -2.66843,11.281771 0.61694,0.170072 1.16146,-0.13547 1.75935,-0.293224 1.72093,-0.454205 5.34255,-2.29126 5.57127,-4.349403 0.30026,-2.702948 -3.52486,-5.325258 -5.8645,-4.64263 -1.45498,0.424295 -2.52789,1.798055 -4.10515,1.71038 -3.07094,-0.170657 -2.25401,-4.416846 0.73307,-6.450946 3.17034,-0.170365 4.49396,0.711069 4.57439,2.744052 z m -16.45,-2.744052 c 0,1.494567 -0.33398,4.553488 0.43984,5.864497 0.73511,1.24562 4.79394,-0.07757 5.9296,-0.07757 m -38.86226,3.222054 c -0.88643,1.806029 -1.2773,2.716787 -1.17907,3.599685 0.12404,1.117187 0.68732,2.444031 2.00361,2.590057 0.51402,0.05718 1.00077,-0.112893 1.46612,-0.39087 0.96413,-0.575892 1.90567,-1.66493 2.24816,-2.785635 0.32049,-1.048867 0.29879,-2.318529 -0.29323,-3.225474 -1.39809,-2.141715 -3.67968,-2.312664 -5.47363,-3.714278 -1.33974,-1.046813 -1.35587,-3.208468 1.61274,-4.496017 5.0376,-0.293226 1.54326,5.424839 -0.3847,8.422532 z m -31.430193,2.720011 c -2.127933,-3.369154 -1.775478,-7.788051 -3.225474,-10.702708 -1.472283,2.011523 -2.638144,4.28988 -3.567668,6.597561 -0.696995,1.730905 -1.84321,3.924229 -2.883278,5.571272 M 5.6661577,44.64369 c 3.597904,-2.132256 6.3501573,-1.600933 5.0505083,-5.805803 0,-3.492601 -2.0159193,-4.113359 -4.5346188,-0.808991 -0.099918,3.850709 -1.3484904,11.614985 -0.450202,14.883783 m 8.7967448,-17.593491 0.293225,4.105149 0.293224,9.383196 m 32.841184,-13.195118 0.879674,0.586448 m 82.689403,10.26287 2.05258,0.586451 2.05257,-0.390871 0.34219,-1.954929 -0.68438,-2.345799 -5.21121,-2.053559 -0.3111,-4.104163 c 3.45212,-0.189099 6.19868,-0.488763 9.08997,-0.586448 m -44.570174,0.879674 c 1.278168,-0.37005 5.289778,-1.474921 6.304334,0.293224 0.29578,2.829891 -1.686621,5.847778 -1.319511,8.503522 0.177108,1.095194 1.412171,1.04036 2.345801,1.221867 0.89873,0.174761 1.34385,0.244255 2.3458,0.244255 m 43.39727,-7.672813 c 3.54685,1.822685 5.20856,4.298089 1.1729,6.988721 -0.97438,0.649493 -2.12206,0.684092 -3.22547,0.684092 -0.62691,0 -1.17847,0.116412 -1.71038,-0.342193 -1.11162,-0.958258 -1.24151,-2.944563 -1.22187,-4.349403 0.015,-1.067633 0.12286,-3.702258 1.22187,-4.25176 0.87674,-0.438373 2.956,0.855923 3.76295,1.270543 z m -83.275852,-0.830706 -2.363032,3.7842 -2.328564,6.185444 m -2.052576,-8.796745 4.691599,7.623847 m -27.26991,2.932247 c -1.93382,1.170555 -2.628175,-0.350697 -3.029894,-2.052573 -0.45919,-1.944375 -0.948289,-4.976026 0.733063,-6.744172 0.607561,-0.638936 2.851026,-1.204862 3.127536,0 0.332809,1.449411 -3.164926,2.391085 -4.249857,2.619508 m 18.666843,-3.499183 c 0.363013,0.862082 0.203205,1.436801 0.342193,2.3458 0.295863,1.937923 0.732769,3.421347 -0.04897,5.278047 M 38.693663,43.82271 c 0.287069,-1.557904 3.315373,-4.720921 5.059767,-2.3458 1.112496,1.515094 0.169485,4.686321 -0.488806,6.157722 m -4.398373,-6.450946 -0.586448,7.623847 m -10.26287,-6.157722 c 1.477266,1.549986 0.453619,5.802918 -1.466125,6.695203 -1.639419,0.76209 -2.382159,-1.342678 -2.590055,-2.590057 -0.211122,-1.266436 -0.306652,-4.392701 0.879675,-5.131434 0.810242,-0.504541 2.626708,0.449514 3.176505,1.026288 z m 54.541789,-1.367071 5.057963,-0.352264 m 6.669061,1.426109 4.83821,-1.612736 c 5.522304,-1.797762 8.322014,-2.785637 10.702704,-2.785637 m -94.865283,5.297563 c 0.969243,-1.248819 3.946794,-1.584329 4.747617,0.566935 1.047692,1.418915 0.684092,3.577049 0.684092,5.278047 m 52.194023,-0.586451 -2.639023,4.105149 m 20.525738,6.450946 c 0.967642,1.935284 1.172899,5.102114 1.172899,7.330622 m 43.374317,2.150644 c -0.96383,0.279149 -3.50483,0.644082 -4.37541,0.195156 -0.81898,-0.422244 -0.86795,-1.198997 -0.87968,-2.052576 -0.008,-0.560352 -0.027,-0.938025 0.0976,-1.466122 0.42722,-1.808906 1.41833,-3.701965 3.12783,-4.691599 m -27.85636,1.172901 c 1.02306,-0.188546 1.94701,-0.576774 2.93224,-0.782033 5.2804,-1.099886 0.21611,5.489171 -0.19558,7.232978 -0.14749,0.625449 -0.39468,1.399855 0.049,2.003606 0.53396,0.726904 2.11855,-0.03108 2.78564,-0.244257 2.03322,-0.649492 4.32067,-1.466125 6.15772,-1.466125 M 49.715572,61.4162 c 0,0.929816 -0.103217,1.499553 -0.244257,2.3458 -0.138989,0.832759 -0.648908,4.795106 -2.101543,4.496016 -1.57315,-0.32372 -1.599835,-2.546658 -3.225474,-3.029891 -0.584104,1.387539 -0.423416,2.198012 -1.466123,3.518698 l -2.639023,-6.450948 m 30.949162,7.292084 c 2.168116,-0.807095 5.746461,-2.562219 4.824267,-4.653061 -0.166551,-1.498378 -1.929126,-3.796382 -3.518698,-3.421054 -1.062647,0.251002 -1.309541,1.10018 -1.994519,2.10302 1.250893,3.120217 0.65331,8.399709 -0.351278,11.580905 M 154.84865,63.878108 c 1.65277,-2.95029 6.18747,-3.317248 7.36762,-0.995783 0.63615,1.251381 0.97732,2.791795 0.97732,4.105149 m -20.52574,-5.131437 c 0.98025,-0.536014 3.6958,0.393802 4.05617,1.612739 0.58088,1.963433 -1.25031,4.074065 -2.88327,4.935853 -0.50728,0.267714 -0.92806,0.482062 -1.46613,0.586449 -1.07144,0.208482 -1.90244,-0.05894 -2.05257,-1.12393 -0.17682,-1.25471 0.57941,-2.623484 1.12393,-3.811924 0.35656,-0.777632 0.42547,-1.763748 1.22187,-2.199187 m 7.33062,0.146614 0.58645,4.398372 M 23.911784,62.882325 27.723708,71.09262 c 1.937972,-1.12058 1.900689,-3.252495 2.932248,-5.278047 0.711657,1.590451 0.541,4.62093 2.052573,5.815528 2.224438,-3.241381 2.405015,-5.704628 2.3458,-6.401976 m 59.817868,4.105146 c 0.158634,2.009177 2.349903,3.650357 4.056179,1.466125 0.760331,-0.973213 0.364185,-2.493585 -0.04867,-3.518698 -0.405825,-1.007228 -1.413052,-2.173089 -1.368482,-3.225474 0.06862,-1.622705 1.924728,-1.090209 2.932246,-0.586448 m 49.69456,-0.371289 c 2.01457,-1.111689 6.43981,0.768253 4.88331,3.164466 M 80.210954,64.055224 c 0.252467,1.370533 0.533377,4.449101 1.563769,5.522304 0.796692,0.829826 1.87224,-0.0044 2.541379,-0.58645 1.360857,-1.183163 1.75935,-2.674211 1.75935,-4.349404 M 18.926963,64.34845 c -0.01566,3.921492 0.676054,4.467902 -2.052575,7.526201 -3.131642,-0.782911 -3.178264,-4.299262 -4.691597,-6.353302 l -2.2857771,5.91107 -2.1125955,-8.25687 m 97.6438716,2.93225 c 2.33994,-0.426378 4.68899,-0.797156 7.0374,-1.172901 m 9.96964,1.466125 0.29323,1.759349 m -68.907842,0.293224 1.172901,1.466125 m 88.260681,2.932248 1.75935,0.586451 m 11.14254,11.728993 c 1.05297,0 5.24902,-0.403184 4.54498,-2.345798 -0.50698,-1.398977 -2.84868,-1.522716 -3.27444,-3.225474 -0.37357,-1.494274 1.45967,-2.642835 2.83461,-2.932247 M 7.1979679,89.565785 c 1.3491283,1.242688 5.4662971,1.91212 5.8644981,-0.586448 0.382658,-2.400632 -0.59466,-4.678696 -1.856993,-6.744172 C 10.468893,81.030011 8.6552961,80.13421 8.5174797,78.716467 8.3793708,77.295792 10.210268,76.985854 11.303116,76.957118 m 425.469244,0.293224 c 0.09,5.810215 1.1729,11.495228 1.1729,17.300266 M 124.78113,77.836792 c -1.72973,2.190977 -1.75935,4.093126 -1.75935,6.744172 0,1.055023 -0.20203,2.074565 0.39087,2.932248 0.93627,1.354699 2.43465,1.172899 3.71428,1.172899 m 333.10341,-10.849319 -0.29322,4.398373 1.17289,7.623846 0.29324,2.932248 M 142.0814,78.130016 142.96107,83.70129 M 69.361635,78.716467 v 8.796745 m 17.886715,-8.796745 -0.586448,9.67642 m 61.071778,-8.289343 c 2.46011,-3.8401 6.31043,0.345767 6.07671,2.424845 m -6.15772,-3.518698 0.29322,3.811924 m 204.67094,24.924115 c 1.42507,-0.4504 3.64772,-0.92806 4.98483,-1.857 2.19331,-1.52271 3.50695,-2.627 2.83547,-5.47362 -0.61869,-2.616743 -2.6097,-3.805184 -4.59482,-5.375695 -2.38687,-1.889541 -6.57997,-5.326429 -7.82031,-8.112653 -0.44571,-1.003122 -0.68322,-2.30504 -0.68322,-3.225472 0,-0.905185 0.0616,-1.387834 0.34307,-2.3458 0.31376,-1.083466 0.74773,-1.982786 2.00274,-2.052573 0.53952,-0.02991 0.91191,-0.03313 1.46611,0.09764 0.8093,0.191182 1.38109,0.544224 2.05258,1.075255 m 111.71867,-1.172899 -4.43297,7.030651 m -373.491869,-3.51441 3.769937,-3.223013 m 201.152242,0 -0.29322,6.744172 c -0.83151,9.588101 1.02794,19.477717 0.29322,29.029257 M 485.44768,92.791259 c 0.73013,-0.269473 1.39868,-0.62017 2.05257,-1.075255 5.63286,-3.91074 -3.14044,-6.502261 -4.59483,-9.187615 -0.47795,-0.886125 0.24339,-1.947305 1.07613,-2.394767 1.3547,-0.726611 2.67421,-0.657996 4.10516,-0.244257 m -382.36519,8.210297 c 1.12334,0.207016 4.40306,0.98758 4.0075,-1.1729 -0.11641,-0.634831 -0.47414,-1.525356 -0.87967,-2.052574 -0.78907,-1.0257 -5.95071,-4.170829 -1.95493,-4.984823 0.35949,-0.07331 0.80108,0 1.17289,0 m 30.20216,2.639024 c -0.0595,1.426832 -3.58496,4.008971 -4.98482,4.300729 -2.61439,0.544518 -3.4275,-2.446375 -2.3458,-4.300729 0.5888,-1.009279 1.62536,-2.084202 2.63903,-2.49241 1.62946,-0.656198 4.7822,0.31463 4.69159,2.49241 z m 336.1995,2.722461 c 0.86795,-1.089332 3.51027,-0.900068 4.82099,-1.647204 0.78584,-0.447754 1.55995,-0.995792 1.46613,-1.954932 -0.14369,-1.486062 -1.80628,-1.796 -2.93226,-1.123929 -1.75055,1.046226 -2.51587,3.220781 -3.33155,4.656746 -1.8332,2.183691 1.00336,6.832976 3.62479,6.143603 M 101.39628,87.159966 c -1.913924,0.61792 -5.319598,-1.963656 -4.393872,-4.240282 0.766489,-2.206811 4.639282,-4.135113 5.493632,-2.150644 0.73169,1.699538 -3.601408,1.868369 -5.433185,1.916459 m 355.371305,7.43564 c -0.65389,0.956499 -4.10874,3.428107 -5.39894,3.500828 -1.45439,0.0821 -1.57462,-2.139371 -1.41628,-3.176507 0.44864,-2.939873 2.67421,-9.247139 6.24589,-9.305642 0.2025,3.148201 0.37806,10.032253 1.5715,12.237892 0.63629,1.173778 1.32243,1.420381 2.39564,1.759349 M 59.97844,89.565785 c 1.454102,0.306127 2.676557,-0.868531 1.905962,-2.345797 -0.965295,-1.85025 -5.23729,-2.266921 -2.785637,-4.984823 0.241326,-0.267421 0.586158,-0.480302 0.879675,-0.684094 0.483821,-0.336036 0.933629,-0.571789 1.466125,-0.782031 M 424.45692,96.309957 c 1.082,1.082295 3.00554,3.047193 4.69159,2.883281 2.39564,-0.232821 2.57745,-4.610082 1.9558,-6.401979 -0.4017,-1.15384 -1.7388,-2.042017 -2.54226,-2.932248 -1.55407,-1.720938 -3.45124,-4.048849 -4.3016,-6.157721 -1.50425,-3.734219 2.6918,-2.675385 4.59484,-1.172901 M 79.112671,84.209676 c -1.241812,0.568428 -2.133624,1.486859 -3.886538,1.544187 -1.643087,0.05374 -0.103802,-3.275908 1.466123,-4.300729 0.833052,-0.543639 1.686923,-0.390868 2.570719,-0.125686 -0.381174,1.963247 -0.303211,4.375394 0.654755,5.89254 M 30.932128,84.815151 c 1.901513,-0.69854 3.789391,-1.003902 4.415425,-3.166437 L 35.054329,81.35549 c -1.982723,-1.393277 -2.837564,0.221131 -3.760673,1.653492 -0.532229,2.545184 0.479194,8.231703 3.760673,6.850029 m 13.804037,-2.207714 c 1.120411,0.294691 3.362519,0.724876 4.375904,0.204108 0.658289,-0.338382 1.222747,-0.631313 1.71038,-1.221868 1.45762,-1.764334 0.504053,-4.865772 -2.003606,-4.691596 -1.348834,0.09354 -3.407818,1.109922 -3.792161,2.493642 -0.02074,2.449003 -0.252583,5.241041 -0.899436,7.476002 M 27.430482,82.528389 c 0,2.104769 0.326947,4.362893 -0.684092,6.157722 -0.326067,0.578825 -1.136539,1.759936 -1.954931,1.563768 -2.368669,-0.567097 -2.052574,-5.547227 -2.052574,-7.574877 -0.150131,0.692011 -0.594367,0.574428 -1.075254,1.905962 -0.458311,1.269371 -0.943011,2.947495 -1.856993,4.105147 l -1.466125,-4.105147 m 21.112188,1.759349 c 0.741274,-0.468281 4.686614,-2.555749 3.176505,-3.665311 -1.964021,-1.442959 -2.874189,2.0341 -3.235051,3.162294 0.180898,2.941405 1.487725,3.350229 3.28402,3.728489 m 22.285088,-7.037396 7.22566,-0.546434 m 306.818137,1.132884 c 0,0.887592 -0.0762,1.533273 0.0499,2.3458 0.17886,1.181988 0.38411,2.378053 0.73305,3.518698 0.5454,1.788378 1.02335,3.505795 1.46614,5.278047 0.91778,3.672934 2.10827,7.876896 -1.66259,10.556096 -2.4279,-3.07593 -2.9645,-9.398444 -6.15772,-11.728995 -0.86795,2.062543 -0.29324,5.380675 -0.29324,7.623845 0,2.14553 -0.93246,4.59923 -2.05257,6.45095 -2.15227,-1.27934 -3.1551,-3.98639 -3.90868,-6.15772 -1.76229,-5.073966 -3.72397,-10.325038 -6.64741,-14.954473 m 37.63184,7.605316 c 1.53356,-2.04671 7.63328,-5.633086 5.08223,-8.729245 -0.51901,-0.629847 -1.51012,-0.867067 -2.24904,-0.928644 -1.38109,-0.114945 -2.41324,0.671484 -2.83548,2.052573 -0.22579,0.739221 -0.0968,1.317753 -0.0968,2.052575 -0.2647,3.491926 0.0301,6.382235 1.07612,9.08997 0.82397,2.377468 3.995,3.460518 6.51674,3.991258 m -101.42482,3.92581 c 0,1.3462 0.13195,2.23848 0.87967,3.5187 1.18464,2.0297 2.77977,4.6916 5.27805,4.6916 1.3459,0 2.79444,-0.6404 3.37208,-2.05258 0.81225,-1.98923 0.0792,-5.50705 -0.78291,-7.33062 -1.25206,-2.65163 -3.82071,-6.001723 -5.81465,-8.210291 -1.70657,-1.890715 -4.74437,-4.152066 -5.76772,-6.450948 -0.62751,-1.415104 -0.69494,-4.665206 1.36935,-4.984823 2.73286,-0.423123 4.8558,2.443443 6.45096,4.398373 m 82.6894,12.901889 c -7.00469,-2.243799 -5.64144,-7.100354 -5.57128,-12.315439 0.0147,-1.049159 0.24925,-2.243757 0.68322,-3.225474 0.57471,-1.291067 2.71819,-2.535222 3.95853,-1.368479 0.6099,0.571789 0.41053,1.840864 0.29322,2.54138 -0.12021,0.721918 -0.39585,1.341209 -0.63336,2.052573 -0.54246,1.627985 -1.12891,3.016697 -2.29888,4.398373 -0.52488,0.620757 -1.84611,0.899355 -2.08949,1.62274 M 86.898548,83.254892 l 5.627849,4.25832 m 318.611023,11.59437 c 4.25017,-0.621426 7.2925,-3.990782 7.16178,-6.609547 -0.0522,-1.046975 -0.32548,-2.18951 -0.68322,-3.225474 -0.8181,-2.355181 -4.9467,-6.104941 -7.25971,-2.54074 1.4585,6.445888 0.29275,13.499019 1.19875,19.841009 m -137.52244,-18.766394 4.00837,4.691599 4.78837,6.157722 9.02804,5.391943 m 24.39959,-12.136115 c 4.26163,-3.785598 11.25652,-4.056188 16.42058,-4.105149 m 99.11001,0 4.83821,-0.733061 5.13142,-0.733062 m 18.83872,0.103404 6.96508,4.588193 m -145.42579,-2.03209 1.15917,7.310137 1.26966,5.864493 1.88688,9.7009 m 18.24887,-11.46024 h 3.51869 m 247.48177,4.10514 c 4.03702,8.16779 0.43372,18.45689 3.51869,26.68346 l 5.27805,-4.10514 m 43.39729,-22.28509 c -0.5454,1.88925 -0.55714,4.34911 -0.58645,6.45094 -0.0587,4.2893 0,10.26493 2.05256,14.36802 m -34.89374,-19.93929 0.58644,0.58645 m 64.80269,0.58645 -0.58645,3.22548 c -1.15189,5.7088 -1.08568,9.51864 -1.17485,15.14666 -2.66293,0.6185 -8.13759,-0.31509 -7.91512,-3.7109 0.24339,-2.49153 1.21688,-5.29534 3.81192,-6.30433 0.98523,-0.38324 3.44375,-0.14661 4.49351,-0.14661 m -47.59756,-5.57127 1.46613,0.58645 m -299.38256,0 -10.26288,2.93224 m 223.73055,-1.75935 c -1.78492,5.87454 -1.88824,11.77213 -2.34578,17.88672 m 8.79674,-15.83414 2.63903,0.87967 m 105.34628,3.83243 c 1.10839,-0.92161 4.07056,0.14663 5.44285,-0.99782 1.19928,-0.99785 0.85474,-2.47893 -0.82982,-2.15051 -3.09282,0.91334 -6.19818,3.77735 -6.01112,7.23297 0.17301,2.07046 3.27239,3.95971 5.13145,3.22548 m -173.29588,-9.08997 1.56287,5.57127 0.48969,2.63902 0.29322,7.33062 m 148.665,-15.24769 c 4.78652,-0.42501 9.5778,-0.79272 14.36803,-1.1729 m -95.00485,1.46613 1.66258,5.57127 1.19159,5.86351 c 1.58049,-0.99286 2.88131,-5.39054 3.59677,-7.32964 m 42.81083,-3.51869 c -1.52478,2.51762 -0.70374,5.92255 0.58644,8.50352 m -57.17885,-8.2103 v 9.96965 m 18.63857,-6.26189 c 1.11134,-0.16948 7.17696,-0.84442 7.4086,-2.24163 0.1994,-1.18903 -2.48654,-1.59808 -3.17563,-1.36848 -1.50717,0.502 -2.25043,1.53812 -3.23065,2.5936 -2.20299,1.27921 -1.9213,6.48083 0.005,7.96249 1.80626,1.38901 4.19605,1.07526 6.45094,1.07526 m 35.02477,-8.42073 c 3.02322,-2.81493 1.76482,-4.04337 5.00042,-2.13537 0.38255,2.72927 0.44918,5.47393 0.73305,8.2103 m -177.69425,-8.79675 c 0.41633,6.40072 0.91385,11.44908 -0.29322,17.88672 M 634.4057,118.30182 c 0,2.39623 -0.0616,5.09596 0.58646,7.33062 M 620.57523,119.171 c 1.04389,-1.23699 6.99568,-3.30876 7.13643,1.1834 0.13782,0.66151 0.23459,1.08962 0.24338,1.75934 0.0176,1.23419 -0.10556,1.90948 -0.29321,2.93225 m -92.36583,5.57128 c -1.65966,0.69875 -3.14631,-0.38882 -3.46886,-2.05258 -0.29322,-1.49984 -0.56005,-3.38557 -0.29322,-4.98482 0.33427,-2.00771 1.67725,-4.25235 3.76208,-4.6916 m 80.05038,0.29323 0.29322,2.63902 v 4.98482 m -156.58207,-3.5187 3.81192,-1.80831 10.84933,-1.71038 m 34.74875,5.30914 c 1.56752,-2.48462 3.04515,-3.26127 4.54337,-4.42947 m 10.93912,6.88217 c -2.00367,1.61142 -3.71275,3.54198 -6.54075,4.26037 -2.84909,0.72376 0.36361,-5.97035 1.85611,-8.21029 0.45158,-0.67442 0.93246,-1.79424 1.66259,-2.19919 0.63336,-0.3504 2.16853,-0.25701 2.9892,0.15867 0.16386,2.41957 -0.90143,7.51122 1.40917,8.19824 m 13.19512,-7.0374 c 1.18171,-0.34219 2.80431,-0.50221 6.15774,-1.1729 l 5.8644,-1.17289 m -181.21296,22.28508 c 0.69495,3.29497 2.53347,3.19909 5.27805,2.93225 1.13771,-0.11054 2.25197,-0.14426 3.22548,-0.8307 0.76532,-0.53954 0.67735,-1.45469 0.58644,-2.39477 -0.19938,-2.03674 -1.51889,-4.5919 -2.93224,-6.15772 -2.19039,-2.42527 -5.99646,-4.86812 -6.64742,-8.2103 -0.19353,-0.99726 0.26978,-2.72582 0.87968,-3.5187 0.63923,-0.82806 2.4191,-1.91593 3.42193,-1.6617 1.93236,0.48998 3.01728,3.88259 3.81194,5.47363 m 36.94633,-4.98483 v 1.75935 m 52.2285,-4.06044 2.62525,15.17901 m 39.60946,-13.1298 0.2484,6.99606 m -5.86449,0 c -1.12598,0.32636 -1.63326,0.37327 -2.63902,-0.39087 -0.75067,-0.5715 -1.40163,-1.4022 -1.66258,-2.24816 -0.42225,-1.38607 -0.0968,-1.6359 0.0498,-3.07886 0.19351,-1.93587 1.13476,-4.25176 3.37208,-4.25176 0.66855,0 1.80918,-0.26302 2.19919,0.58645 0.35187,0.76942 -0.47503,1.45703 -1.0263,1.85699 -1.38109,1.00107 -2.96553,2.08984 -4.52256,2.13089 m -20.82438,6.25776 c 1.28679,-1.83371 2.41704,-5.20996 3.94154,-5.74962 1.07612,-0.3334 2.81201,1.03479 3.42193,1.95493 1.01455,1.53327 0.48087,5.22996 -0.19648,6.74417 m 2.63903,-8.50352 8.84196,-2.61155 m -19.39806,4.66412 c 0.5054,2.78899 1.69604,6.83643 1.75935,9.3832 m -150.71756,-7.0374 0.34307,2.05257 0.24339,1.75935 v 3.81193 l 0.87967,11.14254 m 77.70458,-7.62385 c -0.91194,0.72046 -1.81506,1.27964 -2.93224,1.46613 -1.59809,0.26625 -2.32234,-0.53602 -2.93227,-2.05257 -0.34307,-0.853 -0.68907,-1.70687 -0.82981,-2.63903 -0.0821,-0.53601 -0.0499,-0.93715 -0.0499,-1.46612 0,-0.51373 -0.0204,-0.94477 0,-1.46613 0.0557,-1.3588 0.83569,-3.12489 2.05259,-4.0075 1.2198,-0.88466 2.63607,-0.68409 4.10513,-0.68409 m -85.03519,0.87967 c 0.39803,6.37817 1.46611,12.67312 1.46611,19.05962 m 111.77477,-12.64672 c -0.85329,0.85387 -3.34039,4.07382 -4.45448,3.70336 -4.34592,-1.44512 -0.22673,-9.97288 3.02892,-9.94205 l 0.78302,3.34449 1.46611,7.33062 m -49.26177,-9.67642 c 2.57159,0 5.37776,0.7055 6.74418,3.22547 1.56874,2.89501 -0.58059,6.15421 -2.93225,7.81943 -4.73852,3.35743 -7.39806,-3.80371 -7.03739,-7.5262 0.0645,-0.6668 0.30494,-1.16235 0.5366,-1.75935 0.20233,-0.51432 0.23784,-1.29674 0.68615,-1.61274 0.45483,-0.3206 1.44851,-0.14661 2.00271,-0.14661 z m 30.20217,0.29323 v 3.81192 l 1.17289,4.39837 M 301.3024,132.96306 c -2.04619,7.65925 -0.73246,14.3789 -0.29324,22.28509 m 173.00266,-21.69864 c -2.88533,1.82269 -6.34538,3.5492 -9.67642,3.81193 m -109.37286,-3.5187 c 1.12304,2.24698 1.20808,4.86548 1.1729,7.33062 -0.0205,1.51626 -1.27846,4.2456 -3.22548,4.05618 -2.37513,-0.23077 -3.07007,-3.62397 -4.10514,-4.93585 -1.03509,1.4063 -1.2081,4.46669 -2.05259,6.15772 -2.4836,-1.56172 -3.38674,-6.55944 -4.9848,-9.08997 m -50.72791,-0.58645 c 2.21971,2.71936 5.71674,5.33682 9.16507,6.60707 m 15.4246,9.06148 c -8.00517,1.58472 -7.16435,-11.42205 -4.26039,-14.78888 1.0908,-1.18668 3.98492,-1.01016 3.95853,0.87968 -0.0293,2.1681 -4.39777,2.81476 -5.84924,4.22928 m 24.07903,-5.25557 c 1.21982,-0.6492 3.85884,1.2726 4.64175,2.19919 0.88555,1.0474 2.26369,2.74077 2.39564,4.10514 0.0645,0.66416 -0.0762,1.121 -0.24336,1.75935 -0.31376,1.18668 -0.9999,2.67011 -2.10242,3.42106 -1.44267,0.98171 -3.02903,0.0613 -3.76208,-1.36848 -1.11132,-2.15814 -1.80921,-4.63002 -1.80921,-7.0374 0,-0.97849 -0.0938,-2.56073 0.87968,-3.07886 m 15.28722,0.94822 -0.0395,1.83742 m 59.18844,39.3282 c -3.03437,0.96811 -6.0292,5.83413 -10.51312,4.06907 -1.51012,-0.2337 -1.46613,-1.80714 -1.46613,-2.93225 0,-2.96186 0.736,-4.76783 2.44257,-7.33062 1.21687,-1.82474 3.20201,-2.78593 5.18128,-1.46612 0.78291,0.52194 4.51603,1.79583 4.86478,2.91322 l -0.41655,4.12418 -0.63631,7.33062 -0.29322,4.10514 m 18.17995,-17.00704 -1.12306,8.79675 -0.0499,3.81192 m 22.87154,-12.60867 c -1.74176,2.87859 -0.28442,9.09906 0,12.02222 0.12903,1.32479 0.2082,2.50561 0.58646,3.81193 m -71.25364,-15.54092 c -5.05914,6.08439 -5.45532,11.76831 -7.33061,19.93929 m 62.16365,-19.79268 c 1.07907,-0.54716 3.44832,-0.28296 4.39837,0.29323 1.22862,0.74508 1.99394,2.44813 2.68888,3.66531 2.24904,3.95179 1.48665,10.03796 -3.27531,12.02222 -3.33397,1.38929 -4.91446,-1.81477 -5.66805,-4.39838 -0.87381,-2.99382 -1.45147,-9.90601 1.85611,-11.58238 m -95.29807,2.19919 c 0.77704,-1.91564 3.42486,-2.07838 5.27805,-2.05258 0.98523,0.0138 1.98219,0.19441 2.4924,1.1729 1.24034,2.37982 -2.21064,6.48584 -2.94077,8.79675 1.72711,0.72661 4.43917,-0.23898 6.01963,0.97732 1.40456,1.08112 1.75643,2.71086 1.51599,4.30073 -0.51021,3.32487 -4.24298,4.45525 -6.79403,5.86449 -1.27738,-5.6563 -3.04482,-14.89091 -4.04415,-20.63692 m 79.10972,-0.18204 c -1.28727,2.03791 -2.81828,6.95188 0.52741,8.11363 1.58049,0.54833 5.5496,-0.21017 7.1125,-0.70396 m -127.8621,-5.65032 c 6.95057,-1.59557 15.87955,3.68944 12.21868,9.38319 -0.79171,1.12393 -6.17879,3.08532 -7.15818,4.06381 m 62.38122,-12.86055 11.43577,14.95447 m -21.11219,-12.60867 c 0.65096,0 1.12304,-0.0707 1.75935,0 0.91191,0.10145 2.10242,0.64245 2.93224,1.17289 3.94681,2.52145 6.60343,8.98999 1.75935,11.92458 -1.87958,1.13859 -5.24579,2.59269 -7.33062,1.1729 -3.31637,-2.25842 -3.58907,-8.03495 -2.44257,-11.33813 0.32841,-0.94506 0.77128,-2.28113 1.61273,-2.78563 0.50445,-0.30245 1.13186,-0.14661 1.70952,-0.14661 z m -55.29199,-3.28442 c -0.38444,5.96255 4.03166,17.14953 4.8573,23.22371 m 18.52302,-14.95447 c 1.82973,2.16194 2.6273,3.65798 2.58917,6.45094 -0.009,0.57502 -0.0322,0.92865 -0.19645,1.46613 -0.56299,1.84966 -2.60091,3.42838 -4.49514,4.0075 -2.43083,0.74303 -4.64468,-0.74186 -5.4745,-3.12783 -0.75067,-2.16869 -0.39585,-4.29486 -0.0968,-6.45094 0.14074,-1.00342 0.21697,-2.16048 0.9295,-2.88328 0.60405,-0.61607 1.94114,-1.19532 2.88241,-1.41745 1.93526,-0.45669 2.7006,0.58528 3.86177,1.95493 z m 241.74602,41.46737 c -0.89762,3.23555 -4.07109,8.3745 -2.96424,10.09123 0.60113,0.83833 1.57757,1.19635 2.49243,1.22186 4.0593,-1.15947 9.35927,-4.76266 7.67368,-9.08996 -0.60405,-1.49633 -1.90302,-2.19714 -3.27531,-2.88328 -0.94712,-0.47326 -1.97342,-0.79111 -2.93226,-1.12422 -1.67431,-0.58175 -3.3838,-1.58986 -4.15499,-3.32313 -0.38413,-0.86676 -0.63337,-1.63619 -0.5366,-2.63902 0.0704,-0.73277 0.36946,-1.36495 1.75935,-3.22548 4.75903,-1.17289 2.11654,7.90583 1.93794,10.972 z m -20.70433,-8.91941 c -1.43387,2.86538 -0.46622,7.69363 0.48967,10.55608 0.44864,1.35323 0.97644,2.68185 0.97644,4.10516 m -148.66499,-14.36802 0.92953,4.10515 1.12306,7.91706 0.29321,2.05257 v 1.75935 m 126.08668,-13.78155 c 1.22569,-0.45127 2.49242,-1.04448 3.81194,-1.17291 0.67735,-0.0657 1.01162,0.0417 1.75935,0 0.95589,-0.0531 2.4924,-0.25539 2.88238,0.87967 0.68909,2.00038 -1.34883,3.77616 -2.29595,5.27805 1.84147,0.7753 3.27534,-0.43689 4.98483,1.46613 1.24327,1.38284 1.92062,5.17424 0.82982,6.74417 -1.70949,2.46133 -4.25175,3.59611 -6.98754,3.81192 m -43.10405,-17.59348 1.17289,7.3306 v 2.63903 l -0.29322,5.57128 m -188.83681,6.15772 c 0.78751,-5.64533 -2.82069,-16.67648 -0.58643,-21.40542 1.59221,0.50054 1.78866,2.95219 2.14933,4.39838 0.66563,2.65808 2.55693,6.31988 4.69159,8.16132 1.07028,0.92131 2.23437,-0.049 3.12872,-0.73305 2.13468,-1.63004 2.44842,-3.82571 3.81191,-5.96214 0.6891,-1.07877 2.20249,-3.01764 2.47519,-3.50495 0.14662,1.60305 -0.0121,3.95563 0.2606,5.26429 0.70081,3.35919 1.51304,7.53206 3.42193,10.55609 m 41.93116,-17.30026 c -1.18254,5.82573 0.65358,10.18911 1.75935,15.83413 M 558.26421,224.156 c 0.25216,0.82131 0.21113,1.38636 0.19646,2.34578 -0.0117,0.87675 -0.14368,1.45793 -0.38998,2.3458 -0.5454,1.95581 -2.33701,3.85766 -4.30161,4.59395 -2.20506,0.82689 -2.93227,-0.13692 -3.22548,-2.24814 -0.39909,-3.29564 -0.35031,-6.90992 0.87967,-9.96965 0.20233,-0.5023 0.2639,-1.0301 0.87968,-1.27054 2.48655,-0.97204 5.37188,2.27425 5.96126,4.2028 z m -81.32006,-3.81194 0.0499,3.22548 1.51304,6.74417 0.78291,3.81192 m 32.25474,-13.24408 c 3.45712,0.52839 4.53912,2.97448 5.57126,6.20668 1.02335,3.2029 -1.37229,5.09097 -4.10515,6.64654 -4.54205,2.58681 -7.0374,-3.12461 -6.40108,-6.93975 0.16713,-1.00195 0.63921,-1.98133 1.0732,-2.93226 0.49847,-1.08844 0.67117,-2.48508 1.80918,-3.07886 0.72103,-0.37621 1.38696,-0.004 2.05259,0.0977 z m -47.50242,0.34219 c 1.4104,3.15218 3.07298,7.47342 2.93224,10.84932 -0.0587,1.41245 -1.22568,3.22546 -2.93224,3.22546 -1.01163,0 -2.13469,-1.0644 -2.93227,-1.6617 -1.96167,-1.47051 -3.69463,-2.80792 -5.18128,-4.78924 -1.25499,-1.67461 -2.04019,-4.60676 -3.4154,-5.66793 l 0.38639,3.02891 0.87968,8.79674 m -46.43131,-5.10145 c 0.9999,-1.58517 6.71988,-0.64341 6.84595,-3.69529 0.0851,-2.05608 -2.84134,-2.22352 -4.10515,-1.36848 -2.59544,1.80275 -4.44005,9.04782 -1.17289,10.40949 0.83861,0.24395 1.72123,-0.61401 2.3458,-1.12394 m 117.72075,-9.44123 1.62175,-0.87967 m -113.47801,0.93771 v 9.38319 m -90.35109,-1.135 c -0.87967,0.87908 -4.17579,3.55147 -5.53344,3.13861 -1.63912,-0.49877 -1.23739,-3.01759 -0.97644,-4.34942 0.19353,-0.99519 -0.0147,-1.09488 0.14662,-2.05256 0.15247,-0.92307 0.58938,-2.70148 1.21983,-3.5187 0.8093,-1.04241 2.7739,-1.17288 4.32918,-1.00561 0.32084,1.78733 0.0956,3.97363 0.3155,5.40398 0.38705,2.53375 0.44568,5.27893 2.29595,7.62386 m 55.41949,-0.29324 c 1.34003,-0.24688 3.1287,-0.83657 4.00837,-2.05257 0.63337,-0.87704 0.60405,-2.4974 0.29324,-3.5187 -0.5454,-1.78339 -2.55105,-2.81408 -3.71517,-4.10515 -0.39878,-0.44248 -0.96764,-1.0952 -0.82982,-1.75935 0.27857,-1.35614 2.35753,-0.87968 3.46884,-0.87968 m 90.33725,0.67964 9.91132,-1.04876 m -113.27472,4.6019 c 1.58341,-0.12492 4.57248,-0.49944 5.98876,-1.49611 0.57473,-0.40434 1.51304,-1.06557 0.82984,-1.80802 -0.41932,-0.45595 -1.16705,-0.34219 -1.70952,-0.34219 -0.6099,0 -1.17582,-0.14983 -1.75935,0.14662 -1.38401,0.70227 -3.46787,2.71221 -3.39798,3.9913 0.70017,4.24467 1.89389,4.79359 5.40236,5.4557 m -19.79806,-8.32755 c 1.47493,-0.65947 5.69523,-1.24555 6.6013,0.49328 0.93245,1.78486 1.16409,4.54292 1.51596,6.45094 m 25.51056,-7.33062 c 3.41932,-1.15384 5.50811,-1.53529 9.67642,-2.34579 m 13.98151,3.84639 c 1.71864,-3.00625 6.25692,-3.21116 8.3036,-1.79381 m -70.96042,10.26285 c -2.92345,2.69268 -6.52132,1.32802 -8.26015,-2.05257 -0.72133,-1.40424 -1.818,-3.5049 -0.73305,-4.98483 1.31071,-1.7831 4.05235,-2.31675 6.06096,-2.05256 m -18.58781,4.02757 c 0.39293,-0.9351 1.86812,-2.97137 2.8035,-3.58773 0.8093,-0.53513 2.2813,0.40612 2.88241,1.02629 0.76531,0.78935 0.86795,1.75495 0.87967,2.63902 0.0264,1.83412 0.14662,2.25078 0.29322,4.10514 m -7.0374,-7.33062 c 0.54454,2.8483 -0.11152,6.23804 0.58646,8.79675 m 102.92192,-5.86451 c 0,2.64578 -0.50142,3.58732 -1.75935,5.86451"
       id="path332"
       sodipodi:nodetypes="cccccccccccccscccccccccccsccccccccccccccsccccscccscccscccccccccccccccccccccccsccccccccscccccccccccccccccccccccccccccccccscssccccccccscccccccccccccsccccccccccccccccccccccccccccccccccccscccscccccccccccccccccccsccccccccccccccccscccccsccccscccccccccccccccccccccsccccccccccccccccccccccccscccccccccscccccccccccccscccccscccccccccccccccscccccccccccccccccscccccsccccccsccccsccccccccccccscccccccccccccccccccccccccccccccccccccccccccccccccccccccccccccccscccccccccccccccccccccccccccscccccsccssccccccccccccccccsccccccccccccccccccscscsccccscccsccccsscccccccccccccccccccccccccscccccscccccccccccccccscscccsccccccccccccccsccsscsscccccccccsccccccsccccccccccccccccccccccccccccccccccccccccccccccccccscscccscccccccccccccccccccccccccccccccccsccccccccccccccccccccccc" />
  </g>
</svg>
