<?xml version="1.0" encoding="UTF-8" standalone="no"?>
<!-- Created with Inkscape (http://www.inkscape.org/) -->

<svg
   width="3000"
   height="1998.207"
   viewBox="0 0 793.74998 528.69227"
   version="1.1"
   id="svg5"
   xml:space="preserve"
   inkscape:version="1.2.1 (9c6d41e410, 2022-07-14)"
   sodipodi:docname="MonicaG - Pulsz - Envelope24.svg"
   xmlns:inkscape="http://www.inkscape.org/namespaces/inkscape"
   xmlns:sodipodi="http://sodipodi.sourceforge.net/DTD/sodipodi-0.dtd"
   xmlns="http://www.w3.org/2000/svg"
   xmlns:svg="http://www.w3.org/2000/svg"><sodipodi:namedview
     id="namedview7"
     pagecolor="#ffffff"
     bordercolor="#000000"
     borderopacity="0.25"
     inkscape:showpageshadow="2"
     inkscape:pageopacity="0.0"
     inkscape:pagecheckerboard="0"
     inkscape:deskcolor="#d1d1d1"
     inkscape:document-units="px"
     showgrid="false"
     inkscape:zoom="1.5554293"
     inkscape:cx="343.63504"
     inkscape:cy="149.79787"
     inkscape:window-width="1350"
     inkscape:window-height="1041"
     inkscape:window-x="555"
     inkscape:window-y="0"
     inkscape:window-maximized="0"
     inkscape:current-layer="layer1" /><defs
     id="defs2" /><g
     inkscape:label="Layer 1"
     inkscape:groupmode="layer"
     id="layer1"><path
       style="fill:none;stroke:#9e98b4;stroke-width:0.082416"
       d="m 20.154275,5.9308095 c 0.239829,0.063131 0.413149,0.2269734 0.659326,0.3022177 0.655454,0.2002706 2.141907,-0.034202 1.428516,-0.9615444 -0.55738,-0.7246842 -2.211053,-0.9848713 -2.307646,-1.9779825 -0.02332,-0.2399954 0.133019,-0.5411174 0.247247,-0.7417431 0.190629,-0.3347166 0.558781,-0.7719502 0.961547,-0.6318577 0.296452,0.1031011 0.358592,0.4238308 0.41208,0.7142741 M 31.774918,4.0352435 C 31.664288,3.653053 31.630824,3.0750937 31.666858,2.6641821 m 1.92121,-0.3596742 c 0,0 0.145139,0.7235044 0.154007,1.0854587 0.0068,0.2765008 -0.07159,0.8101074 -0.07159,0.8101074 M 30.456263,2.7990041 c 0.536611,0 0.863178,0.00234 1.236239,-0.1648305 0.274055,-0.1227696 0.4831,-0.1302571 0.649047,-0.2345707 m 4.73576,2.4051588 c 0.126344,-0.4364744 0.179028,-0.4699334 0.453618,-1.096245 0.174691,-0.3984574 0.900476,-1.759097 1.23558,-0.6622657 0.191781,0.627517 -0.298017,1.5020311 -0.892813,1.7993871 -0.236286,0.118186 -0.454169,0.24214 -0.715438,0.2221655 M 28.066203,2.7165877 c -0.173734,0.6000713 -0.524495,1.9763355 -0.398317,2.802142 0.07681,0.5029836 0.234638,0.9385515 0.810397,0.9065737 0.168045,-0.00932 0.3398,-0.056125 0.494493,-0.1098598 0.19063,-0.06618 0.26233,-0.1201624 0.398318,-0.2472469 C 29.553726,5.897514 29.82611,5.4473565 29.948004,5.1890664 30.078717,4.912395 30.31896,4.3192482 29.961764,4.2138389 29.612073,4.1106536 29.248123,4.6621811 29.12384,4.9418171 28.910549,5.4217261 28.599309,6.114951 29.055188,6.3428893 l 0.494496,0.2472469 M 4.6600809,7.4142957 c 0.2905975,0.1223888 0.8522617,0.050768 1.236237,-0.1785954 0.4699357,-0.2806265 0.9889924,-0.8258065 0.9889924,-1.3873072 0,-0.26439 -0.1381301,-0.5784779 -0.2610118,-0.8241596 C 6.2884536,4.3524619 5.6163525,4.1780693 4.9073279,4.2962553 4.6227461,4.3436427 4.1895682,4.6911079 3.9321004,4.4335584 3.6486727,4.1502125 3.830443,3.2845129 4.0488425,3.2522921 4.7250716,3.152527 5.8322804,3.4583308 6.8028939,3.4583308 M 36.967116,2.8814205 c -0.134834,0.7320175 0.0089,1.324744 0.166304,2.1118701 0.05327,0.2664271 0.03563,1.4986271 0.148461,1.7666452 M 8.533627,5.9308095 C 8.6757123,6.2961583 9.0770783,7.0804296 9.6050335,6.7961749 10.615617,6.2519831 10.743914,2.9180101 8.986915,3.2110839 8.0014339,3.3754658 8.1649819,4.9828618 8.533627,5.9308095 Z M 13.890662,3.046251 C 13.162599,2.8355072 12.101573,3.014768 11.531578,3.117659 11.20019,3.177477 11.214076,3.5914424 11.170936,4.0352432 c -0.02011,0.2066157 -0.06626,0.4963091 0.04121,0.6455641 0.178348,0.2477422 0.586884,-0.036181 0.782952,-0.096097 0.66658,-0.2037329 1.637026,0.055548 1.785706,0.7691865 0.04698,0.225574 -0.01937,0.4619412 -0.08242,0.659329 -0.272385,0.8525093 -0.941603,0.9107765 -1.53846,0.3296634 M 2.2700187,3.046251 c 0,0.4029336 0.082416,0.939131 0.082416,1.4834887 0,1.065059 0.1648306,1.9985853 0.1648306,3.0493889 M 14.962068,3.5407472 c 0.813117,0 2.450037,-0.7927727 2.554893,-0.4944962 0.04722,0.1343198 -0.227632,0.9696254 -0.384634,1.4834887 -0.127994,0.4190019 -0.109862,0.8779762 -0.109862,1.3186534 m 16.730174,-2.381152 c 0.464002,-0.2930715 0.824414,-0.2701674 0.824414,0.4031695 m 4.862539,-0.7417432 c 0,0.8520983 -0.08242,1.5634311 -0.08242,2.3900623 0,0.2381825 -0.04805,0.5667385 0.07836,0.7204043 0.375983,0.4570446 1.443537,-0.6983996 1.81721,-0.8852371 m 7.582264,2.4862435 c 0.232082,-0.03544 0.503808,0.030247 0.618118,0.2334844 0.446835,0.4984257 -0.218171,1.4045788 -0.390661,1.5495376 -0.209497,0.1760559 -0.626291,0.6044446 -0.735148,0.7774096 -0.126382,0.200813 -0.234053,0.289757 -0.234053,0.475192 0,0.986675 0.443563,1.495191 1.483487,0.975228 0.59702,-0.29851 1.439311,-1.271925 0.961546,-1.9642176 -0.215986,-0.3927992 -1.845903,0.086647 -2.169511,0.049614 C 47.955649,9.8891104 47.511026,10.149982 47.301688,9.8708394 46.916888,9.357719 47.03874,8.265205 47.92843,8.0324168 48.460968,7.8930789 48.603086,7.8755784 48.835006,7.8401404 Z m -2.884557,0.068651 c 0,0 -0.376128,1.4323422 -0.530592,2.1341606 -0.07073,0.321367 -0.211151,0.915229 -0.211151,0.915229 M 44.384547,8.0736248 c -0.339555,0.5610031 -0.359004,1.5491708 0.247247,1.9505372 0.196315,0.129888 0.534716,0.05213 0.78415,0.08502 M 17.187298,8.8153679 17.35213,8.7329515 m 25.782415,1.4834865 c -0.129229,0.775781 -1.089538,1.274973 -1.799387,1.373626 -0.805122,0.111755 -0.909954,-0.791275 -0.796714,-1.373626 0.179088,-0.9210817 0.536445,-1.2899745 1.456041,-1.4560432 0.919679,-0.1659846 1.281568,0.6072411 1.14006,1.4560432 z m -4.76636,1.813149 c 0.511392,0.0942 1.341401,-0.153294 0.975228,-0.906576 -0.320267,-0.658913 -1.565823,-0.669508 -1.576902,-1.068579 -0.0038,-0.1351915 -0.09164,-0.742442 0.272011,-0.8269867 0.746934,-0.072607 1.513567,0.1236247 2.225229,-0.082414 m -5.560248,1.1378877 c -0.08522,-0.5579543 -0.08351,-1.0294296 0.450463,-1.2889556 0.296202,-0.1439823 0.590098,0.051097 0.906574,-0.041208 0.438042,-0.1278275 0.698063,-0.2501322 0.947784,0.1098597 0.121809,0.1756284 0.255898,0.6220877 0.07959,0.706873 0,0 -0.396238,0.3066209 -0.601247,0.4504329 -0.387848,0.272069 -1.188473,0.779468 -1.188473,0.779468 -0.430038,0.282045 -0.210732,1.054675 0.267857,1.428516 0.314744,0.245927 0.695589,0.01196 0.98899,-0.151071 0.566925,-0.314936 0.760339,-0.680168 0.823968,-1.063578 0.04342,-0.261642 -0.947483,-0.639272 -1.22718,-0.756851 -0.436205,-0.183371 -1.372911,0.32027 -1.448321,-0.173486 z M 2.3176562,11.965421 c 0.6458912,0.158147 1.922222,-0.75516 2.0265239,-1.254487 C 4.4308811,10.382259 4.4986262,10.01666 4.3990691,9.6395251 4.173661,8.7853664 3.4954017,8.8854141 2.8252257,9.3552704 2.409144,9.6469799 2.3233822,9.6289024 2.2214748,10.036532 c -0.087773,0.351091 0.098015,1.471085 0.081786,1.856322 -0.015559,0.369472 0.2140052,1.378988 0.2140052,1.702636 M 19.082864,9.0626148 c 0.208842,0.3450753 0.340459,0.7059736 0.604356,1.0714062 0.177936,0.246341 0.4044,0.514186 0.550936,0.762505 0.333467,0.525418 0.335609,0.594308 0.657857,0.968228 m 4.147013,0.09458 c 0.309654,-0.267981 0.628024,-0.645908 0.766909,-0.913573 0.454925,-0.876759 1.019786,-2.5529327 1.116887,-1.8254264 0.09996,0.7489129 -0.04339,1.4697284 0.06796,2.0262974 0.08268,0.413239 0.276094,1.476564 0.906576,1.277447 m -16.623961,-1.00144 c 0.231844,0.03836 0.537538,-0.06312 0.717699,-0.179824 0.303949,-0.196974 0.57823,-0.570976 0.72798,-0.87913 0.154776,-0.318291 0.01392,-1.0147049 -0.315901,-1.1950315 -0.379938,-0.2077698 -0.599741,0.2792249 -0.72798,0.5357044 -0.488051,0.9097691 -0.684109,3.1877551 0.645564,3.2966361 m 8.736087,-3.8735487 c -0.307659,0.6153174 -0.476108,0.9895157 -0.878808,1.7363917 -0.220542,0.409028 -0.275106,1.484918 -0.110191,2.05474 M 5.649071,9.3922782 c 0,0 0.3168142,1.0800948 0.3856083,1.6153318 0.073249,0.569883 0.026472,1.681304 0.026472,1.681304 m -0.022965,-1.67779 c 0.1490378,-0.14701 0.4047091,-0.422168 0.5998681,-0.506231 0.2708192,-0.116619 0.6409502,0.08382 0.810397,0.288455 0.5150991,0.621994 0.3597443,1.494037 0.5906752,2.225229 M 29.384845,9.6395251 c 0.455843,-0.083982 1.471125,-0.3944415 1.881803,-0.041208 0.488315,0.4199109 -0.464768,1.0334029 -0.671867,1.3943479 -0.265839,0.463318 -0.696466,1.248806 -0.09697,1.552757 0.4073,0.206534 1.445315,-0.347376 1.854015,-0.433418 M 31.22711,10.803613 c -0.278977,0.123952 -1.036732,0.07215 -1.430186,0.07215 M 17.59937,9.6395251 17.846617,12.77133 m -3.461466,-0.164832 c -0.139366,-0.481309 -0.08242,-1.077588 -0.08242,-1.565901 0,-0.164914 0.03803,-0.317484 0.02716,-0.485873 l -0.02716,-0.420703 m 0.02014,0.589304 C 14.429845,10.542008 14.592842,10.23737 14.714817,10.134021 14.888055,9.9872379 15.128133,9.8066661 15.374144,9.9279826 16.06998,10.270997 15.86864,12.015 15.86864,12.524083 m -6.1811944,0.41208 c -0.8992403,0.06247 -0.8241595,-1.118796 -0.8241595,-1.730735 0,-0.271478 -0.060905,-0.595042 0.1785953,-0.796714 0.5539175,-0.4664736 1.3268136,-0.05134 1.6757626,0.480813 0.172168,0.262495 0.05014,0.621462 0.06825,0.930802 0.03125,0.533705 -0.583923,1.080146 -1.0984454,1.115834 z M 26.005797,11.370261 c 0.363868,0 0.490034,0.02896 0.82416,-0.08242 l 0.98899,-0.329663 m -4.780123,0.741743 -0.41208,1.648317 m 14.054739,3.586035 c -0.677706,0 -1.282085,-0.490411 -1.184093,-1.195973 0.113352,-0.854909 0.69699,-2.114898 1.692641,-1.325167 m 6.68785,1.558364 c 0.03518,-0.268773 0.05672,-0.699248 0.05729,-0.882644 0.0025,-0.821249 -1.030136,-0.383933 -1.672016,0.324575 m 1.672016,-0.254323 c 0.23233,-0.241808 0.555443,-0.573144 0.861454,-0.808112 0.256643,-0.197138 0.685782,-0.270572 0.865366,0.06865 0.172002,0.324799 0.04121,1.032092 0.04121,1.401069 M 28.890355,14.666896 c 0.358427,-0.103762 1.335797,-0.41043 1.524692,0 0.06264,0.136152 -0.0258,0.283428 -0.06865,0.41208 -0.04698,0.14085 -0.200584,0.27588 -0.273092,0.394858 -0.162499,0.266639 -0.345027,0.372268 -0.496179,0.594132 -0.116289,0.170767 -0.09098,0.29884 -0.123622,0.494496 -0.216921,1.301758 1.548676,0.708696 2.156576,0.164831 m 9.216818,-1.648317 c 0.218731,0.828774 -0.556637,1.474667 -1.304891,1.70329 -1.10223,0.336751 -0.948277,-0.979926 -0.645564,-1.620873 0.186837,-0.395762 0.5563,-0.533752 0.892811,-0.631884 0.459626,-0.134034 0.92413,0.04352 1.057644,0.549467 z M 24.35748,14.58448 c 0,0.818391 0.01103,2.058175 0.320756,2.872903 m -6.0026,0.03881 c 0.2056,0.01364 0.35382,0.0016 0.572056,-0.04092 0.8235,-0.160051 1.327391,-1.06127 1.236239,-1.881802 -0.06395,-0.575924 -0.719986,-1.125391 -1.208794,-0.645564 -0.44109,0.432931 -0.373906,0.332696 -0.683258,0.829248 -0.14748,0.236722 0.0789,1.629466 0.0789,1.629466 -0.0074,0.272473 0.172085,1.327802 0.247247,1.565903 M 42.40656,14.749312 c 0,0 -0.09219,0.39292 -0.136331,0.636369 -0.05683,0.313429 -0.193332,1.011948 -0.193332,1.011948 m -15.659022,0.906576 c 0.333866,0.237276 1.531123,0.307658 1.29121,-0.41208 -0.231588,-0.694601 -1.170634,-0.790864 -1.511014,-1.250002 -0.38348,-0.517241 0.675893,-0.521281 0.87913,-0.398317 m -20.3567259,0.82416 c 0.1851882,0.586473 0.1802635,0.465303 0.2832711,0.829136 0,0 0.2648455,0.485123 0.3523736,0.472253 0.200614,-0.02949 0.1682413,-0.411967 0.1964206,-0.61135 0.064248,-0.454601 -0.038508,-0.772198 0.1158731,-1.159638 0.1645969,-0.413077 0.2330825,1.785536 0.7003807,1.856907 0.257879,0.03939 0.4729845,-0.296616 0.5906752,-0.480732 0.4255946,-0.666167 0.233482,-1.214727 0.233482,-1.977982 m -4.4504587,0.247247 0.3497967,1.124094 c 0.2057116,0.661068 -0.3015822,1.31072 -0.8442906,1.348384 -0.2759284,0.01911 -0.4753744,-0.17538 -0.6593267,-0.3159 -0.1249446,-0.09544 -0.5557069,-2.142648 -0.661525,-1.819591 -0.1585135,0.483946 0.2089823,2.767375 -0.4922979,2.767375 -0.222565,0 -0.3602909,-0.363454 -0.453288,-0.549467 C 1.6079119,17.051436 1.510357,16.041348 1.3634428,15.243807 M 23.615736,15.40864 c 0,0.736304 -0.165902,1.311567 -0.741743,1.895566 -0.189145,0.19178 -0.435568,0.521776 -0.741743,0.370871 -0.702925,-0.346477 -0.494496,-1.593675 -0.494496,-2.184021 m -11.408519,0.07676 c 0.09593,0.331313 0.03527,0.704048 0.158748,0.994643 0.166916,0.392811 0.327553,0.497576 0.434089,0.511436 0.290922,0.03785 0.293211,-1.628083 0.33387,-1.893909 0.07165,-0.468464 0.0098,1.342008 0.138616,1.533541 0.09577,0.142497 0.246341,0.193431 0.370872,0.274775 0.241313,0.157497 0.613339,0.196974 0.906574,0 0.564386,-0.379196 0.595868,-1.437333 0.247249,-1.826912 m 16.067332,0.782007 1.184906,-0.127484 c 0.372294,-0.04005 1.001731,-0.100442 1.291341,-0.07761 m -17.389756,0.41208 0.16483,0.164833 m 19.285322,0.08241 v 0.08242 m 8.324007,5.439451 c -1.737162,0 -2.68272,-1.596563 -1.744498,-3.131805 0.191206,-0.312768 0.436311,-0.606087 0.755508,-0.796714 0.68438,-0.408702 1.154482,0.06379 1.483487,0.46705 m 4.285625,-0.247246 0.659327,0.16483 m 3.461469,2.802142 c 0.475292,0.08753 1.911966,-0.07294 1.442278,-0.906576 -0.230022,-0.40837 -2.332947,-1.197092 -1.112615,-1.620873 0.138707,-0.04813 0.266203,-0.08299 0.41208,-0.10986 m -22.417127,0.41208 c -0.197366,0.83966 -0.0059,1.504652 0.08242,2.225229 0.02398,0.218463 0,0.659327 0,0.659327 m -0.0089,-0.755793 c 0.150657,-0.154696 0.335275,-0.254132 0.448431,-0.480447 0.182139,-0.364194 0.540484,-0.697402 0.961547,-0.741743 m 1.657437,0.559725 c 0.317989,-0.0885 0.970153,-0.2606 1.227121,-0.559725 0.230599,-0.268429 0.3112,-0.633201 -0.08242,-0.714297 -0.405735,-0.08349 -0.631017,0.406489 -0.764701,0.575681 -0.432653,0.547559 -0.507325,0.955183 -0.389122,1.374856 0.06329,0.759708 0.4237,0.839076 0.98899,0.824159 m 2.054306,-0.144963 c 0,0 0.15803,0.310871 0.770642,-0.0149 0.612612,-0.325776 -0.858219,-1.499293 -1.410113,-1.982949 -0.281725,-0.246892 0.249389,-0.560263 0.563147,-0.659327 m -12.444803,0.41208 c 0,0 0.05656,0.824054 0.08242,1.236237 0.0293,0.466915 0.08242,1.401072 0.08242,1.401072 m 24.72477,-1.153823 c 0,-0.267357 0.108461,-1.223472 0.240253,-1.416767 m -0.129155,0.417264 c 0.189887,-0.09774 0.469936,-0.303164 0.713062,-0.374124 0.253183,-0.07385 0.589935,0.166564 0.700535,0.384637 0.142744,0.281449 0.04121,0.838662 0.04121,1.153823 m -5.604281,-1.442281 c 0.199282,-0.09264 1.186625,-0.03799 1.387307,0.08242 0.22038,0.132196 0.390652,0.561664 0.329663,0.782951 -0.06016,0.21865 -0.502902,0.6243 -0.727978,0.741743 -0.326696,0.170438 -0.818062,0.345734 -1.153823,0.123625 -0.582847,-0.385543 -0.450898,-1.444505 0.164831,-1.730736 m 3.049388,0.206041 0.164833,1.23624 m -33.955353,2.142813 c -0.27288,-0.0072 -0.666004,-0.03948 -0.879131,-0.329664 -0.215764,-0.293896 -0.1392,-0.700123 -0.05489,-0.988992 0.142415,-0.488312 0.140354,-1.056488 0.604356,-1.469721 0.330736,-0.294555 0.791348,-0.159976 0.782951,0.315898 -0.0078,0.442586 -0.998325,1.133608 -1.425779,1.164882 m 8.884419,-1.576959 c -0.377796,0.01 -0.843508,0.06939 -0.798887,0.46922 0.06114,0.547818 1.961611,0.409003 1.856529,1.09668 -0.11464,0.750644 -1.939328,1.028799 -1.964218,0.08242 M 2.3524398,23.650228 c 0.5456847,0 1.968668,-0.124531 2.6373092,-0.384634 0.2122203,-0.0825 0.4816377,-0.106318 0.631881,-0.288458 0.3156532,-0.382903 -0.061234,-0.694105 -0.3846341,-0.83784 -0.5864724,-0.26068 -1.733866,0.09709 -2.1290504,-0.329663 -0.5628838,-0.6079 0.4777456,-1.386534 1.1812685,-1.332419 l 0.5357021,0.04121 m 9.2721889,1.511301 c 0.256407,-0.08926 0.464674,-0.197591 0.700135,-0.439893 0.205628,-0.211645 0.593149,-0.637817 0.315901,-0.892813 -0.305021,-0.280708 -0.766056,0.458893 -0.851603,0.645564 -0.09099,0.19854 -0.115137,0.387893 -0.162534,0.61365 -0.116978,0.557188 0.458243,1.165545 0.780652,1.1995 m 1.702636,-0.939561 c 0.503313,0.211893 1.063985,-0.135637 1.594,-0.488952 0.221124,-0.147443 0.577161,-0.501996 0.453288,-0.796717 -0.08332,-0.198291 -0.338069,-0.332392 -0.535702,-0.315898 -0.340461,0.02835 -0.692323,0.277725 -0.988992,0.453286 -0.148141,0.08767 -0.298597,0.123907 -0.368921,0.223237 -0.129175,0.182453 -0.101711,0.448298 -0.125573,0.710782 l -0.164833,1.813152 m 5.851529,-2.966975 0.329663,-0.08241 c 0.638756,-0.159686 1.283629,-0.343676 1.977983,-0.247249 m 1.96647,0.703649 c -0.428013,0.272618 -1.470546,1.07499 -1.884053,0.697423 -0.394361,-0.394362 0.01135,-0.86601 0.288455,-1.256845 0.124874,-0.176128 0.365888,-0.295323 0.575969,-0.399728 0.315284,-0.156691 0.830046,-0.544098 1.07235,-0.07416 0.101122,0.19615 -0.08967,0.817231 -0.04121,1.071407 0.07789,0.408552 0.331228,1.174344 0.824159,1.153823 0.254006,-0.01054 0.510812,-0.146618 0.741743,-0.164831 m -17.801836,-0.989 c 0.529689,-0.650097 0.583994,0.812294 0.41208,1.236239 l -0.208737,0.514756 c -0.171208,0.474265 -0.5939925,0.556651 -1.0274999,0.556651 -1.1483609,-0.0031 -0.9774025,-0.986776 -0.8452344,-1.610704 0.095083,-0.448857 -0.4486132,1.9824 -0.8855011,1.830507 -0.36658,-0.127496 -0.4948793,-0.72799 -0.5432293,-1.27153 -0.026817,-0.301468 0.1255123,-0.515167 0.2332694,-0.705223 M 29.037375,21.08831 c 0.357272,0.357273 0.844779,0.731214 1.666137,0.666352 m 93.129968,4.862539 c -0.39889,0.561746 -0.26538,1.233849 -0.32966,1.895566 0.0664,1.124648 -0.27007,2.262975 0,3.379052 m -31.070796,0.247247 c -0.146699,0.698311 -0.388178,1.826667 0.247247,2.472479 0.834048,0.846989 2.820273,0.623723 3.187024,-0.576913 0.139281,-0.456089 -0.21016,-0.987341 -0.440101,-1.40107 -0.575263,-1.035473 -1.235414,-2.114545 -2.087594,-2.966972 -0.44752,-0.447602 -1.049157,-0.973497 -1.030201,-1.648319 0.02473,-0.897509 1.380467,-1.476728 2.184021,-1.208794 0.700538,0.23365 1.307118,1.391924 1.483487,1.950537 M 71.99388,26.946864 c -0.371367,1.007946 -0.231095,2.874833 -0.247247,4.038379 -0.0035,0.249226 -0.0068,0.649188 -0.04855,0.998195 -0.06782,0.566446 -0.09122,1.213933 -0.03386,1.80395 0.07524,0.77405 -0.222359,1.622027 0,2.390062 m -0.0333,-3.499808 c -0.443292,-0.506423 -1.140717,-1.096037 -1.436426,-1.445149 -0.761853,-0.899241 -1.47541,-1.917078 -2.22523,-2.802142 -0.2784,-0.328592 -0.558615,-0.665095 -0.590675,-1.071407 m 63.460248,3.131805 c 0.2184,0.734819 0.99393,-0.0025 1.01618,-0.412079 0.0478,-0.857455 -0.84229,-1.559558 -1.07141,-2.307646 -0.20851,-0.681993 0.40549,-0.710342 0.63214,-0.329664 m -14.9997,-0.164832 c -0.34203,0.812044 0.0483,1.851323 0.014,2.451403 -0.0307,0.537186 -0.12108,1.130527 0.0684,1.751811 0.11961,0.392266 0.10631,0.708447 0.24724,1.153823 m 12.3175,-2.139047 c -0.73021,0 -1.53071,-1.202774 -1.04434,-1.839149 0.25253,-0.330418 0.50902,-0.949207 0.9244,-1.1728 0.15494,-0.08349 0.45246,-0.06931 0.52169,0.123622 0.12115,0.335434 -0.52746,0.885312 -0.76894,1.002755 -0.20439,0.09915 -0.53147,0.172061 -0.7616,0.150738 m -2.45262,-1.235905 c -0.30906,0.308813 -0.32556,0.556899 -0.63213,0.906574 -0.29849,0.340454 -1.50002,1.053182 -1.39448,1.54016 0.2443,1.127214 2.12878,0.817952 3.34526,0.685069 m -52.169261,1.895566 c -0.336999,0.800424 0.199857,1.687467 0.98899,1.950539 0.52878,0.176203 1.223794,0.351502 1.565903,-0.384636 0.269499,-0.579548 -0.01649,-1.076186 -0.30222,-1.565903 -0.465238,-0.79762 -0.940942,-1.601093 -1.455959,-2.39006 -0.317466,-0.486254 -0.713557,-1.176159 -0.467051,-1.730735 0.127003,-0.285654 0.421229,-0.611774 0.741743,-0.549467 0.541968,0.105412 1.2172,0.996162 1.483487,1.456043 m 43.889968,0.72684 c -0.10797,0.110685 -0.22827,0.322361 -0.33871,0.49156 -0.19121,0.29373 -1.01559,1.340284 -1.51915,1.048037 -0.40219,-0.233484 -0.15,-0.732265 -0.014,-1.030198 0.25137,-0.547983 0.86454,-1.681367 1.4975,-1.71697 0.35356,-0.01995 0.32966,0.313837 0.32966,0.563147 0,0.232412 -0.0346,0.381997 0.014,0.576911 0.094,0.376971 0.4162,1.07017 0.72773,1.401069 0.464,0.492684 0.84641,0.195575 0.98899,-0.16483 M 78.504726,30.078672 c 0.768941,-0.384305 2.867249,-1.621616 3.873548,-0.906576 m 29.916976,3.296638 c 0.37664,0.09906 0.76811,0.351339 1.15382,0.329664 1.06976,-0.06025 -0.64696,-1.789169 -0.78295,-2.060399 -0.43021,-0.859927 0.60823,-1.405934 1.27745,-1.071407 m -33.993739,-0.282883 0.203214,1.35429 0.09643,1.153823 0.233237,1.977982 0.11399,0.647816 m 1.781576,-0.5654 -1.318653,0.467051 -0.464661,0.09884 c -0.580291,0.123433 -0.738612,0.258272 -1.348491,0.258272 m 36.098157,-4.780122 c 0,0 0.69254,-0.151758 1.04425,-0.190235 0.50092,-0.0548 1.51065,-0.05701 1.51065,-0.05701 m -9.22765,2.180524 c 0.25632,0.121398 0.6803,0.358228 1.06847,0.374371 0.74999,0.03123 1.54118,-1.049402 1.30465,-1.813149 -0.26703,-0.863142 -1.75062,0.09168 -2.00776,0.383181 -0.24451,0.343839 -0.22391,0.372586 -0.33758,0.936379 -0.20522,1.017842 -0.44279,2.267509 -0.44279,3.295729 m -5.97948,-2.574262 c 0.67464,-0.09162 1.20182,-0.39308 1.36419,-1.134454 0.10219,-0.283838 0.0931,-0.806285 -0.32967,-0.824157 -0.88844,-0.03758 -1.11443,1.531963 -1.04005,1.869349 0.18586,0.84305 0.39968,1.592117 1.20488,1.592117 m -2.14281,-3.296635 c 0.11374,0.61606 0.38159,2.148169 0.014,2.884556 -0.21758,0.434416 -0.61729,1.036216 -1.16783,0.631883 -0.696414,-0.511721 -0.509763,-1.714307 -0.741743,-2.362616 -0.148919,-0.41618 -0.417023,0.567102 -0.521692,1.071406 -0.145052,0.69419 -0.290434,1.655113 -0.444595,1.225958 -0.349441,-0.972775 -0.393575,-2.0427 -0.68203,-3.039108 m -12.444802,0.659327 1.071406,-0.08242 m 19.139226,0.738916 c 0.49081,-0.01979 0.55734,-0.103323 0.80541,-0.203212 0.53653,-0.216178 1.61783,-1.51431 0.57691,-1.895566 -0.26867,-0.0984 -0.53158,0.268759 -0.64531,0.453288 -0.33214,0.534962 -0.51097,0.984332 -0.68414,1.455387 -0.27129,0.737988 0.41793,1.868776 1.0822,1.676418 m 51.18029,0.164831 c 0,0.431942 -0.0783,1.087643 -0.15082,1.565903 -0.15577,1.017176 -0.58725,3.414476 0.104,4.186416 0.23765,0.265395 1.95227,0.327585 2.84896,-0.257897 m 1.14842,-4.266801 c -0.08,-0.14287 -0.30677,-0.820478 -0.20742,-0.644391 m 11.33897,-0.500814 c -0.0222,0.84534 -0.0792,1.683098 -0.27457,2.359802 0,0 -0.11549,0.346287 -0.15153,0.52475 -0.1314,0.650762 -0.23324,1.977982 -0.23324,1.977982 m -5.357,-4.780123 h 0.57691 m 12.36239,0 -0.65933,3.214219 -0.11562,0.605013 0.0332,0.713643 m -35.02676,-3.708718 c -0.40714,0.552189 -0.54889,1.631424 -0.57692,2.307646 -0.007,0.148925 -0.017,0.376457 -0.0618,0.659322 -0.0905,0.571453 -0.0758,1.173762 0.0618,1.648312 m 2.47248,-4.450447 0.32967,0.576912 m -21.7578,-0.164832 -0.41208,2.225229 -0.0482,0.570025 c -0.0594,0.702928 0.24354,1.833134 0.54271,2.644187 m 51.18028,-1.977977 c -1.03267,0.380513 -1.29063,-0.399388 -1.0986,-1.318656 0.0511,-0.245187 0.077,-0.44303 0.19704,-0.740113 0.163,-0.403258 0.44003,-0.703067 0.90156,-1.004381 0.1912,-0.124942 0.54229,-0.286558 0.64532,0.01376 0.1195,0.346147 -0.19533,0.655782 -0.48049,0.810394 -0.33791,0.183046 -0.80489,0.320403 -1.12246,0.346942 m 4.50116,-0.646907 c -0.84586,0.03458 -2.05101,0.766591 -2.30729,1.767231 -0.0931,0.303951 -0.19203,1.00101 0.24725,1.087627 0.49284,0.09725 1.03777,-0.711216 1.29243,-0.987392 0.11951,-0.129559 0.45262,-0.513284 0.53339,-0.570399 m -8.83118,-1.14817 c 0.53653,0 1.73373,-0.146082 2.14282,-0.08242 0.75048,0.116796 0.94779,-0.164826 1.5659,-0.164826 m -5.6867,0.247242 c -0.13928,0.66007 -0.32966,1.680379 -0.32966,2.472479 m -22.00505,-2.142815 c -0.0462,0.587379 -0.18955,1.911721 -0.24725,2.637309 m 17.80184,-2.637309 c -0.15412,0.366505 -0.0847,0.806308 -0.15196,1.165786 l -0.26013,1.389106 m 0.26013,-1.428844 c 0.2967,-0.08596 1.12447,-1.297308 1.51182,-0.700204 0.11786,0.181149 0.19816,0.377224 0.12362,0.645562 l -0.41208,1.483486 m 0.36038,-1.327463 c 0.15906,-0.145339 0.43,-0.401209 0.5734,-0.568103 0.18708,-0.217082 0.43763,-0.647293 0.79696,-0.563147 0.23736,0.05571 0.31071,0.447106 0.32966,0.645564 0.056,0.576335 -0.061,1.168658 -0.16483,1.730735 m -17.88425,-2.307645 c 0,0.721137 0.16401,1.507633 0.50851,2.142813 0.0849,0.15659 0.21263,0.384634 0.39806,0.384634 0.16319,0 0.24478,-0.162193 0.31566,-0.302218 0.23571,-0.464661 0.34367,-1.361348 0.34367,-1.895566 m 0.77128,1.045355 c 0.1211,0.414606 2.62855,-1.088946 2.39631,-1.326694 -0.56059,-0.573873 -2.12449,0.268544 -2.31623,1.764825 -0.65933,2.158307 2.12963,1.398928 3.02219,0.57691 m -44.09251,3.379053 c -0.73844,-1.002671 -0.57691,-2.761591 -0.57691,-3.955963 0,-0.471667 -0.17472,-1.255195 0.41208,-1.318656 m 6.25692,0.658514 c -0.0128,0.757188 -0.0424,1.844537 -0.0757,2.638125 -0.0115,0.279717 0.0682,0.909713 0.0555,1.160819 m 25.98789,-3.962961 c 0.71043,0 0.73305,0.09591 1.35164,-0.113773 0.26896,-0.09117 0.39476,-0.05155 0.54393,-0.0785 0.2489,-0.04492 0.65851,-0.228046 0.90658,-0.384634 m -17.30938,2.032617 c 0.5423,0 1.12783,-0.0984 1.51272,-0.631552 0.19532,-0.26917 0.25878,-0.824241 -0.19203,-0.961547 -0.66098,-0.201177 -1.04859,1.087889 -1.30578,1.574468 -0.51748,0.979007 0.0597,1.529883 0.97612,1.529883 m 8.45045,-1.800974 c -0.30727,0.498356 -1.47761,1.245956 -2.10443,1.045477 -0.50933,-0.162358 -0.36511,-0.729216 -0.13764,-1.057643 0.25549,-0.367823 1.3063,-1.219674 1.70354,-1.23624 0.88103,-0.03667 0.49037,0.714134 0.54971,1.318656 0.0684,0.708282 0.63378,0.741743 1.26344,0.741743 m -12.03272,-1.977982 c 0,0 -1.03385,0.294442 -1.5659,0.3159 -0.19351,0.0078 -0.36223,0.0041 -0.55584,0.0086 -0.16706,0.0039 -0.34903,-0.0086 -0.51556,0.0051 -0.30117,0.02493 -0.90658,0 -0.90658,0 m 18.21391,1.977977 c -0.43516,0.03437 -0.99723,0.477024 -1.40107,0.151068 -0.8151,-0.657266 0.0816,-2.434812 0.98899,-2.458713 m 21.84021,0 -0.0824,1.565902 m -71.124949,3.87362 c -0.346147,0.03742 -0.454113,0.39304 -0.06841,0.714298 0.604933,0.504138 2.460938,0.526308 2.856536,-0.302218 0.224994,-0.46969 -0.446696,-1.156956 -0.727733,-1.483486 -0.827456,-0.960888 -2.490608,-1.935457 -2.774944,-3.214222 -0.161534,-0.72905 0.62801,-1.293189 1.291457,-0.98899 0.470595,0.215599 0.875257,0.844597 1.153823,1.236237 m 21.18089,-0.741743 1.31865,-0.219801 c 0,0 0.48895,-0.235234 0.74175,-0.271756 0.81614,-0.117911 2.47248,-0.0029 2.47248,-0.0029 m 14.42278,0.247247 -1.89557,0.82416 -0.66918,0.367357 m -29.08296,-0.94427 0.41208,0.329666 m 28.76315,-0.329666 c 0,0 -0.036,0.628267 -0.0747,0.919684 -0.0419,0.315548 -0.17255,0.893468 -0.17255,0.893468 m -10.96131,1.15382 c 0,-0.381667 0.0486,-1.200607 0.0709,-1.550509 l 0.0115,-0.180224 m -0.0115,0.3418 c 0.12363,-0.20909 0.40543,-0.399079 0.5612,-0.589047 0.21675,-0.265791 0.72196,-0.689491 1.0986,-0.535704 0.98075,0.400623 0.28351,2.560004 0.0824,3.25543 m -50.850553,-2.71977 c -0.248485,0.59018 -0.34862,1.490491 -0.41208,2.142813 -0.03495,0.359004 0,0.844022 0,1.153823 0,0.255655 -0.06115,0.489798 -0.09618,0.741743 -0.02637,0.189968 0.0096,0.263402 0.01376,0.41208 0.0062,0.221698 0,0.658832 0,0.906574 0,0.50282 -0.210491,1.589722 0.164831,1.895566 m 7.582264,-7.252599 c 0.15659,0.744297 0.429386,1.668098 0.5629,2.472477 0.183789,1.100994 0.343676,2.414375 0.343676,3.543885 M 75.94984,40.215815 v 3.626299 l 0.164833,1.977982 m -9.807494,-5.109785 c 0.248979,0.946132 1.462966,2.172317 2.22523,2.733488 0.423207,0.311532 0.757933,0.72021 1.195972,0.731749 m 36.873159,-1.194165 c -0.21922,0.268264 -0.69682,0.582249 -1.06439,0.750871 -0.62224,0.285077 -0.96921,-0.06766 -0.90658,-0.7143 0.0717,-0.734902 0.63708,-1.925565 1.31866,-2.266437 0.49862,-0.249471 0.76152,0.430377 0.74174,0.782951 -0.0122,0.21808 -0.0791,0.359499 -0.0824,0.576913 -0.004,0.274526 -0.0579,0.6208 0,0.906573 0.0954,0.470427 0.33625,0.785671 0.82415,0.82416 m -25.301676,-2.39006 c 0,0 0.421481,1.774948 0.714545,2.637309 0.08126,0.239103 0.288455,0.700535 0.288455,0.700535 0.227343,0.512359 0.416963,-1.179007 0.496856,-2.433174 0.03092,-0.485306 0.131246,0.762983 0.145524,1.676872 0.004,0.257075 0.129033,0.552735 0.236174,0.715094 0.08736,0.13104 0.215105,0.348124 0.42609,0.315901 0.30906,-0.04723 0.558781,-0.489717 0.714547,-0.727981 0.57856,-0.886136 0.48378,-2.42789 -0.220051,-3.214222 m 15.906266,2.472479 c -0.44257,0.04657 -1.818915,1.136846 -2.362861,0.41208 -0.446693,-0.596198 -0.356037,-1.46379 0,-2.060399 0.295875,-0.494989 0.735975,-1.000033 1.209041,-0.57691 m 2.55489,-0.24725 0.16484,2.472479 m -5.919939,-1.318656 c 0.145877,0.300737 0.267027,0.560429 0.233236,0.906576 -0.05769,0.59735 -0.670865,1.18514 -1.236237,1.373627 -0.375817,0.12519 -0.616471,-0.148185 -0.714547,-0.467051 -0.223345,-0.730866 -0.418673,-2.57476 0.549715,-2.857113 0.595868,-0.173736 0.960969,0.619107 1.167833,1.043961 z m 21.743789,-1.071406 -2.0604,0.988992 c -0.33391,0.160277 -0.93914,0.03286 -1.15383,-5e-6 M 74.1367,45.408017 c -0.309389,0.252358 -0.667732,0.571308 -1.071406,0.57691 -0.479991,0.0067 -0.641195,-0.405074 -0.769186,-0.824157 -0.26975,-0.882675 -0.075,-1.9793 0.302135,-2.802142 0.177771,-0.387767 1.229811,-1.340577 1.373627,-0.41208 0.100959,0.651746 -1.426642,1.642612 -1.809545,2.11197 m 9.364611,0.278092 c -0.132691,0.562241 -1.037618,1.710707 -1.524694,0.82416 -0.431861,-0.785508 -0.828678,-2.507155 -0.467299,-3.152409 1.094638,-0.742476 2.175032,1.396543 1.991993,2.328249 z m 18.537114,6.856328 c -0.440103,0.520126 -1.598175,1.480865 -2.273984,1.687483 -1.063991,0.325047 -1.276623,-0.698229 -1.139812,-1.456043 0.140106,-0.777513 0.917289,-2.085041 1.716723,-2.362617 0.71949,-0.249884 1.006298,0.639301 1.332665,1.043964 0.141754,0.176203 0.247894,0.446763 0.340498,0.859492 0.16669,0.742948 0.24248,2.102749 -0.107261,2.931637 m 10.961311,-4.615289 -0.0824,1.730733 -0.32967,2.22523 m -6.01636,-3.873549 c -0.22746,0.618203 -0.32059,1.420273 -0.32966,2.060399 -0.004,0.303456 -0.17967,0.593971 -0.19203,0.906576 -0.0222,0.523916 -0.19285,1.043302 0.0272,1.5659 m 4.50568,-2.966972 c 0.29092,1.233683 -1.07718,2.678517 -2.36287,2.678517 -0.43516,0 -0.48955,-0.531252 -0.4945,-0.865368 -0.009,-0.628832 0.12363,-1.136843 0.24725,-1.730733 0.0709,-0.338564 0.0363,-0.654135 0.27445,-0.892811 0.30246,-0.302054 0.628,-0.252384 1.04421,-0.315982 0.68569,-0.104777 1.13899,0.481721 1.29146,1.126377 z m -6.6485,-0.741743 c 0.2934,1.114841 0.82849,2.175104 2.10511,2.175104 M 70.427975,51.177131 c 0.232907,-0.391724 0.761194,-0.52845 1.236239,-0.686772 0.844433,-0.281533 1.759992,0.288125 2.032953,1.181266 0.269336,0.881438 -1.184796,2.145511 -2.021812,2.366387 m 11.18341,-1.871891 c 0.220051,-0.294225 0.332135,-0.661469 0.343676,-1.071406 0.03132,-1.122999 -2.299577,-0.706836 -2.29925,0.06134 2.2e-4,0.51694 0.04765,0.975781 0.142424,1.504563 0.131042,0.726166 0.360165,1.460075 0.5576,2.165771 0.09643,0.344683 1.73109,-0.171225 2.011306,-0.311413 0.236533,-0.118431 0.485429,-0.322989 0.5629,-0.618121 0.136368,-0.516998 -0.387274,-1.118906 -0.915454,-1.31571 -0.352633,-0.131392 -1.836241,0.41647 -1.418699,0.339247 0.284299,-0.05258 0.773196,-0.429468 1.015497,-0.754271 z m 7.019364,-1.565903 c -0.218402,0.346311 -0.389828,0.672101 -0.41208,1.071407 -0.01979,0.354801 -0.259309,0.983357 -0.295461,1.483488 -0.04628,0.640271 -0.199035,1.005309 -0.199035,1.483484 M 87.24082,51.012298 c 0.542297,0.588781 1.511721,1.418867 1.809636,1.822058 0.327647,0.443427 0.631367,0.648519 0.984107,0.843351 m -2.972586,-0.19293 c -0.128568,0.320678 -0.881025,1.218601 -1.290633,0.947782 -0.609054,-0.401859 -0.608949,-2.383486 -0.05522,-2.444991 0.611362,-0.06791 1.611232,0.839116 1.345852,1.497209 z M 71.581798,51.589211 c -0.256478,0.4237 -0.167777,1.776097 0.04048,2.348709 0.07827,0.215197 0.12594,0.51968 0.136806,0.686627 0.04322,0.66403 0.357758,1.337568 0.564458,1.992033 m 4.560318,-4.120796 c 0.691223,0.860504 1.369506,2.583741 -0.192276,3.10436 -0.796632,0.265544 -1.229481,-1.093 -1.373624,-1.70329 -0.06618,-0.280295 -0.105989,-0.62875 -0.109862,-0.906573 -0.0053,-0.38752 -0.308406,-1.15031 0.247249,-1.29121 0.533471,-0.135276 1.101488,0.389332 1.428513,0.796713 z m 54.94396,10.617886 c 0.2456,-0.07162 0.51428,-0.202083 0.74175,-0.315896 1.48513,-0.742486 0.86784,-2.834531 -0.16484,-3.694953 -0.58927,-0.491116 -1.09028,-0.852673 -1.48348,-0.508259 -1.15572,1.012317 -0.57232,4.879149 0.90657,4.519108 z m 13.20056,-3.365285 c -0.01,0.236286 0.18296,0.527297 0.39807,0.618119 0.1162,0.04913 0.53559,0.05926 0.65345,0.04121 0.16153,-0.02474 0.91543,-0.457197 1.09252,-0.324307 0.6609,0.495964 1.23419,0.780644 1.13858,1.642963 -0.0964,0.87097 -1.67139,2.523078 -2.6373,2.019186 -0.70054,-0.365515 -0.18791,-1.646997 0.014,-2.184019 0.0701,-0.187331 0.15927,-0.461565 0.20604,-0.659327 0.0356,-0.150692 0.85258,-0.797492 1.00884,-0.931239 0.26503,-0.226852 0.57354,-0.497854 0.65266,-0.71708 0.18544,-0.512873 0.23754,-0.873087 -0.60411,-1.359862 -1.03937,-0.601129 -1.89721,1.242996 -1.92276,1.854358 z m -9.98634,-1.318656 c 0.37087,-0.107469 0.48543,-0.348289 0.82416,-0.508258 0.66427,-0.313757 1.68788,-0.442738 1.73074,0.590675 0.0173,0.410678 -0.19533,1.204757 -0.43928,1.469723 -0.11209,0.120988 -0.25219,0.102195 -0.38488,0.164831 -0.39642,0.187333 -0.69147,0.445871 -1.07141,0.755508 m -15.82385,-2.472479 0.42609,1.565903 0.0684,0.494496 c 0,0 0.0279,0.384396 0.0272,0.576911 -7e-4,0.16508 -0.0272,0.494496 -0.0272,0.494496 l 0.0824,1.401067 m 2.30764,-4.450456 -0.0824,1.813149 c 0,0 0.005,0.329727 0,0.494497 -0.005,0.165019 -0.0272,0.494496 -0.0272,0.494496 l -0.13763,1.483486 m -25.384103,-4.120795 -0.08241,3.131803 -0.08242,0.576912 -0.41208,1.648315 m 43.268343,-5.1922 -0.16483,3.708716 m 2.80214,-3.585091 c 0.74999,-0.380102 1.61618,0.685452 1.84035,1.359861 0.42774,1.283134 0.0651,2.234708 -1.18102,2.788375 -0.17554,0.07797 -0.31153,0.07937 -0.49449,0.109944 -0.2283,0.03799 -0.52499,0.149584 -0.74175,0.02744 -0.7269,-0.408699 -0.0791,-2.192919 0.0552,-2.760929 0.10714,-0.453699 0.0519,-1.28643 0.52169,-1.524694 m -25.2436,0.738918 c 0.19168,0.352951 0.26087,0.546521 0.36801,0.868193 0.26785,0.805285 0.87691,3.290533 -0.75575,3.1318 -1.07141,-0.104173 -1.88344,-1.48183 -2.36475,-2.28794 -0.3027,-0.316421 -0.28501,-0.635516 -0.46524,-0.922763 -0.1971,-0.314144 -0.31168,-1.154788 -0.31154,-0.968684 7e-4,0.934505 0.21354,2.081102 0.24296,2.77832 0.029,0.686296 0.13434,1.291042 0.26126,1.730731 m 22.9543,-4.005635 c 1.15816,0.561734 0.85399,1.995541 0.0397,2.7694 -0.27444,0.304605 -0.92539,0.642174 -1.43199,0.01988 m -49.006547,-2.492348 -0.16483,1.153823 c 0,0 -0.12547,1.660883 -0.101608,2.486526 0.0064,0.221395 0.0069,0.472648 -0.0054,0.708502 -0.01042,0.199361 -0.05783,0.596102 -0.05783,0.596102 m 0.07414,-1.234364 c 0.07485,-0.252664 0.507618,-0.740231 0.786563,-1.080307 0.146699,-0.293069 0.393675,-0.675292 0.787624,-0.720951 0.362629,-0.04203 0.329663,0.496473 0.329663,0.727976 0,0.745287 -0.247249,1.417225 -0.247249,2.142815 m -17.637005,1.895564 c -0.368479,-1.272913 -0.369308,-3.450218 -0.168311,-4.76607 0.05111,-0.334607 0.09116,-1.880899 0.248803,-1.502839 0.34939,0.837898 1.013412,3.026008 1.732658,3.315701 0.712896,0.287138 1.117399,-0.587238 1.491226,-1.044904 0.187674,-0.229763 0.745119,-2.66555 0.906947,-2.301806 0.385746,0.867038 -0.07673,4.210779 0.33749,4.89508 m 3.436913,-1.137888 c -0.160301,0.243049 -0.452917,0.433127 -0.636703,0.647162 -0.291752,0.33881 -0.891409,0.977781 -1.003003,0.247247 -0.08868,-0.58062 -0.118382,-1.333743 0.03339,-1.879633 0.130341,-0.468814 0.399273,-1.083373 0.622211,-1.541567 0.193262,-0.3972 0.809809,-1.060218 1.072227,-0.587472 0.468504,0.844008 -0.187076,2.537435 -0.09516,3.172904 l 0.180492,1.247848 M 119.96558,61.053 l 0.45115,-0.0535 c 0.4199,-0.04979 1.40366,-0.01743 1.96676,-0.112958 l 0.33129,-0.0562 m -31.990814,2.277467 c 0.200271,-0.09082 0.624459,-0.195468 0.802477,-0.323788 0.254665,-0.183787 0.815918,-0.577983 0.782952,-0.975228 -0.03874,-0.467875 -0.461531,-0.575097 -0.768942,-0.247247 -0.36675,0.390487 -0.703529,0.704584 -0.791649,1.218858 -0.05209,0.30401 -0.04652,0.75838 -0.04652,1.006369 0,0.787897 0.423618,0.928333 0.988992,0.82416 m 1.730733,-0.41208 c 0,0.560676 0.353565,0.818555 0.906574,0.741743 0.295875,-0.04104 0.586802,-0.261589 0.604111,-0.57691 0.04862,-0.876411 -0.732679,-1.568867 -1.084595,-2.225229 -0.127745,-0.23818 -0.25961,-0.554 -0.137635,-0.727979 0.236534,-0.337987 0.581032,0.213952 0.700535,0.480732 m 8.406421,-0.164831 c 0,0.496555 -0.007,0.502984 0,0.98899 0.003,0.219636 0.0376,0.522746 -0.006,0.743318 l -0.24173,1.234662 m 0.26013,-1.505388 1.63544,-0.953323 1.15383,-0.508259 m -25.054438,0.08241 -0.247247,0.906576 -0.01684,0.529619 -0.06558,0.624202 -0.164831,0.98899 m 15.659022,-2.96697 0.906574,-0.06865 0.412079,0.06865 1.23624,-0.08242 m -13.559574,0.08829 c -0.707821,0.591717 -1.407532,2.028344 -1.096446,3.208344 0.242302,1.092339 1.246951,0.267686 1.716723,-0.164833 m -5.047075,-1.702633 c 0.348185,-0.242717 1.099941,-1.094656 1.33836,-1.058298 0.284871,0.06758 0.398067,0.782949 0.398067,0.782949 l 0.01402,2.307646 m 20.369846,-2.651009 c -0.49403,0.558445 -0.74696,1.148786 -1.66143,1.593365 -0.21264,0.103351 -0.66345,0.40087 -0.892568,0.274692 -0.607407,-0.333702 -0.297144,-1.559247 -0.213281,-2.139983 0.04142,-0.286841 0.407789,-0.698087 0.473719,-0.868195 0.12445,-0.319279 0.88432,-1.187282 1.29146,-0.810395 0.43763,0.405485 -0.52499,1.063331 -0.82416,1.208712 -0.2217,0.107634 -0.36151,0.259785 -0.57692,0.373668 -0.504152,0.266532 -0.465654,0.109388 -0.988995,0.134591 m 9.065755,1.648314 -0.57691,1.813152"
       id="path179"
       sodipodi:nodetypes="cccccsccccsccsccscccccscscssscccscccsccscscsscscccscccsccssccccsscccsssscsssccsccccccccsccccsccsscssssccssscccsssccccccsssccccccccsccscccccccscccccccssccscccsccsccscccccccsccccccscsccccccscccccccssccscccsccssssscccscsssscccsccssscccccscccccccsccccccccccccccscsccczsccscccccscccccsccccccssccscccccscsccccsscccccsssccscccsssscccsscscscccccccccccccccssscccsccccccssccscccccssccccccccccccccsccccccccccccccccsccscccccsccccsccccscscccccscscccsccccsscccccccccscccccscccsccccccccccsccccccscccsccccccccscccscccscccccscccccsccccccccssscccccccccccccccscccccccsccscccccccsccsccccccccccccccscsccssssccccccccccccccsccscccccsccccccccccscccccccccscccscccccccccscsccsscccsccscccsccsscccccsccccacccsscccsscsccccccccccsccccscccccccccccccccccccsssccccccsscccssccsssssccccssssccsscccccsscccccccccscccccccccccccccccccccccscccsccc" /></g></svg>
