<?xml version="1.0" encoding="UTF-8" standalone="no"?>
<!-- Created with Inkscape (http://www.inkscape.org/) -->

<svg
   width="3000"
   height="1998.207"
   viewBox="0 0 793.74999 528.69228"
   version="1.1"
   id="svg5"
   xml:space="preserve"
   inkscape:version="1.2.1 (9c6d41e410, 2022-07-14)"
   sodipodi:docname="MonicaG - Pulsz - Envelope21.svg"
   xmlns:inkscape="http://www.inkscape.org/namespaces/inkscape"
   xmlns:sodipodi="http://sodipodi.sourceforge.net/DTD/sodipodi-0.dtd"
   xmlns="http://www.w3.org/2000/svg"
   xmlns:svg="http://www.w3.org/2000/svg"><sodipodi:namedview
     id="namedview7"
     pagecolor="#ffffff"
     bordercolor="#000000"
     borderopacity="0.25"
     inkscape:showpageshadow="2"
     inkscape:pageopacity="0.0"
     inkscape:pagecheckerboard="0"
     inkscape:deskcolor="#d1d1d1"
     inkscape:document-units="px"
     showgrid="false"
     inkscape:zoom="1.0998546"
     inkscape:cx="281.40083"
     inkscape:cy="290.03834"
     inkscape:window-width="1350"
     inkscape:window-height="1041"
     inkscape:window-x="562"
     inkscape:window-y="1"
     inkscape:window-maximized="0"
     inkscape:current-layer="layer1" /><defs
     id="defs2" /><g
     inkscape:label="Layer 1"
     inkscape:groupmode="layer"
     id="layer1"><path
       style="fill:none;stroke:#6a6c78;stroke-width:0.0831069"
       d="M 1.4466238,1.8942542 V 2.8084306 L 1.6128385,5.4678477 1.8621583,6.2158093 M 4.2722556,6.3820241 C 5.1461245,6.3590081 6.3500106,5.1925978 5.5188591,4.3874589 5.1804483,4.0596868 4.5842392,3.9066032 4.1060432,3.9996001 3.9127369,4.0372456 3.8022883,4.086114 3.6074013,4.0550318 3.4389439,4.0281876 3.2853845,3.9428988 3.30265,3.805712 3.3826806,3.1697774 3.5750446,1.8602296 3.8982771,1.8942542 l 0.789513,0.083107 0.5817493,0.069253 0.3324271,0.013852 H 6.6823553 M 20.394985,5.3847403 C 19.476655,6.0364634 20.121066,6.4858223 20.893627,6.271241 21.255058,6.1708468 21.729101,6.0351324 21.932462,5.6340601 22.159178,5.1869439 21.711897,4.6239797 21.475374,4.3874565 21.364428,4.2765085 21.257386,4.2317981 21.156827,4.1242588 21.051613,4.0119798 21.001665,3.9137483 20.893627,3.8057096 20.539842,3.4519227 20.05541,3.290198 19.744011,2.8915333 19.436098,2.4974411 19.843571,1.9435514 20.31188,1.8942519 M 9.092455,3.4732826 C 9.1109008,3.639495 9.1624289,3.7316603 9.17556,3.888817 9.1915087,4.0806274 9.1493001,4.1664769 9.1063329,4.3874565 9.031704,4.7713269 8.8791199,5.0025307 8.6630402,5.3016329 8.5155257,5.5059101 8.4827002,5.6141985 8.3306131,5.8002725 8.164648,6.0034707 7.9626984,6.2261135 7.6796367,6.2850364 7.2006939,6.3848463 7.0024829,5.6743676 6.9455553,5.3016329 6.7914752,4.2935455 6.5571147,2.5382716 7.554978,2.1851253 8.1852659,1.9620631 9.039848,2.9999889 9.092455,3.4732826 Z m 2.576312,2.8256318 C 12.043577,6.1608748 12.248271,6.0013081 12.485956,5.5509527 12.704443,5.1369989 12.674192,4.5441139 12.430607,4.1381368 12.197325,3.749364 11.62098,3.5893827 11.170125,3.639495 10.818833,3.6785562 10.336896,4.1551738 10.020509,3.9442486 9.8166468,3.8082845 9.8404167,3.4830049 9.8404167,3.2239604 9.8404167,3.0020667 9.7881417,2.64803 9.9374017,2.4898791 10.310384,2.0944724 11.534134,2.226679 12.084302,2.226679 m 1.82835,0.9141764 c 0.383289,-0.010059 0.932125,-0.1488455 1.246601,-0.2493221 0.226551,-0.072386 0.683555,-0.3595187 0.900299,-0.2077661 0.225385,0.1577363 0.02045,0.599698 -0.06923,0.7895154 C 15.66014,4.1723757 15.49168,5.1379954 15.49168,5.9664872 M 31.032663,3.057748 c 0.13779,-0.039891 0.364756,-0.014959 0.581747,-0.069229 0.398333,-0.099645 0.499924,-0.026484 0.997284,-0.055432 m 0.113342,-0.063755 c 0.161654,0.3917458 0.244434,1.5262681 0.219085,1.7674463 m 8.310686,-1.8283504 c 0,0.4525156 -0.120838,1.667978 -0.05543,2.3269899 0.02811,0.2832643 -0.07126,0.6371573 0.150386,0.756499 0,0 0.875817,-0.1239732 1.151649,-0.1747497 m -5.152624,-1.4959234 0.24932,0.6648543 c 0.200507,-0.5546954 0.8067,-1.6518126 1.495923,-1.883782 0.709553,-0.2388129 1.36121,0.2222895 1.191172,0.8865006 -0.164785,0.6436946 -2.108694,1.2678457 -2.658833,1.1785214 m -6.01196,-2.00959 c 0.06765,0.3671656 0.08311,0.7862738 0.08311,1.3297085 M 26.877321,3.1408554 c -0.09291,0.3209568 -0.114459,0.900044 -0.180093,1.3297085 -0.100912,0.6606139 -0.311651,2.1750725 0.678735,2.243885 0.410712,0.028505 0.630768,-0.1569471 0.928011,-0.4155345 0.338133,-0.2941598 0.866597,-0.4744574 1.038878,-1.1634962 0.06125,-0.2450817 0.122018,-0.8494748 -0.221646,-0.9002961 -0.522379,-0.077251 -1.156043,1.9461491 -0.815001,2.2433078 m 4.628934,-2.1334764 c 0.295907,-0.3753142 0.390436,-0.3865301 0.831066,-0.7340813 0.555073,-0.4378909 0.885929,0.3886431 0.923159,0.8596917 m 2.90874,0.4155345 0.249322,1.2466036 M 22.63887,5.8002725 22.805085,6.215807 m 24.641181,4.73709 c -0.337589,0.380572 -0.38919,0.710398 -0.51252,1.080391 -0.09832,0.294946 -0.344809,1.334279 0.221647,1.482043 0.331263,0.08643 0.925477,-0.349961 1.163496,-0.567869 0.358272,-0.32794 0.489167,-1.071578 0.24932,-1.495923 -0.24957,-0.44163 -0.599409,-0.288643 -1.079873,-0.353679 -0.367034,-0.04968 -0.918099,0.300907 -1.233239,-0.06186 -0.393513,-0.452848 -0.279302,-1.7544353 0.47146,-1.745243 1.51138,0.018493 1.345929,0.956182 0.719709,1.662136 z M 2.1945854,9.6231881 C 2.7004078,9.223859 3.2105671,9.4573903 3.5658476,10.038723 c 0.3564467,0.583327 0.3189639,1.403675 0.2908758,2.07767 -0.018446,0.441797 -0.3456431,1.111056 -0.7479616,1.385142 -0.2396728,0.163223 -0.5412226,0.06078 -0.7375962,-0.02191 M 44.923261,9.4286427 c 0,0 -0.04594,0.6406723 -0.04228,0.9373243 0.0052,0.420413 -0.02491,1.168681 -0.02491,1.168681 l 0.05543,0.831069 M 43.083157,9.7894052 c -0.08967,0.4868398 -0.222977,1.5047318 0.664855,1.8006748 0.463736,0.154579 0.680145,-0.05543 1.080388,-0.05543 m -9.224859,-0.664854 c -0.324576,0.865482 -1.052489,0.991948 -1.218928,1.662136 -0.129481,0.444042 -0.367997,1.092356 0.05543,1.495923 0.177765,0.169372 0.41944,0.213502 0.664854,0.138539 0.79899,-0.244168 1.374339,-0.913427 0.983403,-1.717567 -0.161477,-0.332263 -0.800385,-0.275095 -1.0403,-0.474974 -0.278904,-0.232362 -1.091393,-0.08708 -1.231263,-0.286868 -0.396419,-0.566373 0.440549,-1.415822 0.955733,-1.537477 0.523735,-0.123677 0.862483,0.268352 0.831069,0.720288 z m 3.822911,-0.498642 c 0,0 -1.755394,0.05922 -2.130541,0.07032 -0.375147,0.01109 -0.375637,0.883544 -0.310111,1.104613 0.09701,0.327282 1.363789,0.784123 1.498802,0.985842 0.536092,0.800964 -0.647429,0.935289 -0.985675,0.836254 M 4.5215754,10.454259 c 0,0.463405 0.2082914,1.144735 0.3324271,1.662136 0.1490552,0.621265 0.3110696,1.014236 0.4986419,1.662138 M 42.071993,12.504256 c -0.428748,0.406559 -1.456947,0.957474 -1.869904,0.360101 -0.42185,-0.610337 -0.149439,-1.903641 0.731346,-2.216499 0.957641,-0.340154 1.7533,1.273488 1.138558,1.856398 z m -31.15119,1.939132 c -0.627374,-0.181589 -0.638427,-0.986146 -0.581749,-1.495924 0.09332,-0.560761 0.236949,-1.226784 0.415534,-1.662135 0.164552,-0.395009 0.566541,-0.993626 0.872623,-0.415535 0.213003,0.402321 -0.266274,1.007421 -0.540196,1.246601 -0.155408,0.135715 -0.402766,0.222085 -0.70902,0.362485 m 13.175049,1.133439 c 0,0 0.925192,-0.935198 1.387786,-1.402797 0.488303,-0.493587 1.12754,-2.3499709 1.040868,-1.526198 -0.110403,1.049349 0.04269,1.819978 0.244644,2.596567 0.07197,0.27284 0.218322,0.459998 0.401657,0.664857 m -7.562725,-3.074954 c -0.588249,0.498077 -0.697996,1.254201 -0.928054,1.745243 -0.170204,0.350129 -0.289877,0.489499 -0.401657,0.914176 m 10.554571,-2.493207 c 0.470966,-0.08676 1.597854,-0.148751 1.559678,0.04199 -0.04088,0.204288 -0.195478,0.596743 -0.342979,0.926958 -0.211021,0.472427 -2.02012,1.783697 0.362332,1.482708 0.226388,-0.0286 0.45792,-0.108289 0.664854,-0.124661 M 29.855603,12.02031 c -0.130313,0.137957 -1.158743,0.183598 -1.316147,0.2623 M 9.0376807,13.696088 C 8.4564591,14.150966 8.2304404,13.670287 7.9018579,13.142014 7.6860162,12.794998 7.2333404,11.81547 8.0536175,11.409987 c 1.1205361,-0.553906 2.0173575,1.477424 0.9840632,2.286101 z m 3.7114733,0.08244 c 0.05934,-0.751285 -0.126852,-1.925555 0.127619,-2.548523 m -0.120218,0.520944 c 0.100145,-0.245249 0.674407,-0.761569 0.98988,-0.534855 0.553909,0.398083 0.385616,2.171916 0.498642,2.562434 m 3.573593,-2.576312 c 0,0 0.212261,0.503014 0.332428,0.747962 0.180146,0.36721 0.581749,1.080389 0.581749,1.080389 M 1.9981342,10.010225 c 0.067849,0.859324 0.2714453,2.823973 0.3588614,3.464216 l 0.08691,0.636519 0.1662148,1.495924 M 15.824108,11.285329 v 2.243884 M 5.1163026,13.030572 c 0.287712,-0.565876 0.6431363,-1.755088 0.9843034,-1.579031 0.6724046,0.398874 0.2037778,1.903564 0.5817469,2.659419 m 19.7746411,-1.379799 -2.032114,-0.0052 m -3.198828,1.0526 v 0.415534 m 3.324273,2.65942 c 0,0.409383 0.06367,2.977959 0.3725,3.412608 M 13.164688,17.767659 c 0.382707,0.632278 0.339021,2.178097 -0.548229,2.387609 -0.306996,0.07247 -0.553348,-1.138087 -0.61596,-1.455807 -0.02816,-0.142904 -0.118969,1.531962 -0.664161,1.547525 -0.17675,-0.0032 -0.346308,-0.401655 -0.346308,-0.401655 l -0.318549,-1.163496 m 8.24943,1.786797 c 0.300928,0.06444 0.310992,0.03117 0.559897,0.04155 0.166712,0.007 0.518421,-0.183749 0.664855,-0.332427 0.375809,-0.381711 0.458002,-1.133661 0.318549,-1.662138 -0.256635,-0.972515 -1.158509,-0.775553 -1.38506,0.08311 -0.06411,0.590506 -0.276218,1.240382 -0.180093,1.745243 0.05912,0.291983 0.0014,0.395173 0,0.498642 -0.0061,0.441215 0.01006,0.850184 0.08311,1.246603 m 9.842148,-3.074954 1.626597,0.08311 m 5.085585,-0.913661 c -0.87552,-0.532376 -1.400627,0.567111 -1.472874,1.516973 -0.06179,0.812284 0.180964,1.511342 1.114706,1.029105 l 0.425209,-0.219601 m -8.808194,-2.493205 c -0.309072,-0.01418 -0.676461,0.313932 -0.58288,0.747962 0.09539,0.442411 0.936613,1.325635 0.24932,1.800674 -0.172696,0.119342 -0.279238,0.105047 -0.498642,0.110781 m 15.374767,-0.747961 c 0.05203,-0.164799 0.12624,-0.421351 0.263201,-0.567869 0.308824,-0.330515 0.484097,-0.534959 0.900296,-0.928055 0.967365,-0.913674 1.098175,0.779793 1.329711,1.329711 M 6.2668184,18.266301 c 0.087428,0.474457 0.370075,1.228403 0.6787346,1.745243 0.091998,0.15408 0.2623685,0.470966 0.4847616,0.470966 0.1338015,0 0.1918103,-0.110449 0.2632,-0.221644 0.1047147,-0.163305 0.3979981,-1.949282 0.36105,-1.639068 -0.07535,0.63262 -0.082438,2.071986 0.7054586,1.846834 0.8220934,-0.285472 1.0228793,-1.486283 0.6648566,-2.202331 m 14.0450562,0.166212 c 0.254143,0.419858 -0.04762,2.08482 -0.997281,1.89758 -0.545348,-0.107539 -0.581749,-1.267379 -0.581749,-1.731365 m 18.117295,1.329709 c 0,-0.286551 -0.0094,-1.176298 0.0184,-1.346584 m -0.02834,0.545461 c 0.274037,-0.162997 0.570117,-0.606612 0.841001,-0.667125 0.497141,-0.111054 0.533378,0.614657 0.747962,0.886501 m -4.48777,0 c -0.0047,0.338827 -0.08577,0.837966 0.180093,1.06651 0.232282,0.199705 0.603853,-0.03183 0.817188,-0.138456 0.160978,-0.08053 0.256385,-0.08776 0.401657,-0.2632 0.458831,-0.553989 -0.165765,-1.422597 -0.94185,-1.329709 -0.407836,0.04882 -0.45285,0.361349 -0.457088,0.664855 z M 1.3635094,18.681835 c 0.1667259,0.761809 0.6259555,1.305548 1.0803887,1.911458 0.4749875,0.633315 0.5104444,-3.125087 0.6303868,-2.388674 0.1770113,1.086785 0.305696,1.83498 0.9840631,1.949554 0.7468238,0.126135 0.8423556,-1.369868 0.629435,-1.72166 m 24.017881,-0.415532 c 0.312398,-0.09042 1.382572,-0.16519 1.579031,0 0.152911,0.128574 -0.967698,1.198887 -1.302035,2.07767 -0.07313,0.219402 -0.104633,0.627042 0.221646,0.734084 0.257548,0.08452 0.409501,-0.06818 0.777449,-0.190362 l 0.386047,-0.128187 m 2.160778,-0.831069 -0.08311,0.332427 m 8.227578,5.069518 c -0.444371,0.03507 -0.518004,0.07704 -0.914174,0 -0.730759,-0.142112 -1.163496,-0.578339 -1.163496,-1.32971 0,-0.795996 0.311567,-1.62507 0.914174,-2.160777 0.495401,-0.440384 0.913095,-0.421186 1.163496,0 m -20.527392,0.664854 c 0.161228,0.875282 0.405996,1.155541 0.373981,1.911458 -0.01929,0.455731 0.0482,0.925561 -0.04155,1.412815 m 28.671866,-1.329708 c 0.124326,-0.0033 0.422515,0.05294 0.484761,-0.24932 0.05934,-0.288049 -0.33434,-0.617983 -0.387776,-0.914176 -0.07704,-0.426338 0.248323,-0.654218 0.650976,-0.664854 m -7.313404,0.387858 c 1.007421,-0.241258 1.249678,1.314752 0.24932,1.662138 -0.464151,0.161143 -0.811455,-0.08319 -0.831067,-0.554073 -0.01779,-0.425924 0.153166,-1.005428 0.581747,-1.108065 m 2.316974,-1.374866 0.0025,0.231816 m 0.01378,1.283241 0.07686,1.383408 M 33.110336,25.41349 c 0.161809,0 0.338411,0.01779 0.498642,0 1.304113,-0.14494 -0.07259,-1.447184 -0.470966,-1.676016 -0.62539,-0.359231 -0.04874,-0.623925 0.547505,-0.665144 M 2.2776952,26.992518 c 0.3233008,-0.0085 0.5338114,-0.09923 0.831069,-0.23544 1.466834,-0.672336 0.096736,-2.057061 -0.831069,-2.520964 -0.1992664,-0.09964 -0.6098797,-0.226799 -0.6510023,-0.484762 -0.037014,-0.2322 0.1725801,-0.340988 0.3185751,-0.429412 0.2624745,-0.1589 0.8409657,-0.152335 1.1634962,-0.152335 m 27.0326188,0.963102 c 0.266232,-0.01176 0.338538,0.04199 0.641963,-0.118155 0.280402,-0.148014 0.686876,-0.486092 0.540193,-0.747961 -0.10887,-0.194388 -0.440383,-0.06939 -0.540193,0 -0.298271,0.207101 -0.359398,0.432376 -0.498642,0.650976 -0.254524,0.399579 -0.407306,0.633522 -0.415534,0.831067 -0.0078,0.186658 0.0031,0.337248 0.166214,0.470967 0.182004,0.149176 0.373896,0.177516 0.581747,0.193889 m 15.414423,-1.603566 c 0.165798,-0.198958 0.354187,-0.33756 0.542092,-0.460226 0.258962,-0.169039 0.720538,-0.313729 0.983403,-0.08311 0.261539,0.229375 0.180093,0.509528 0.180093,0.817188 m -1.662136,-0.831066 -0.02833,0.298906 c -0.02083,0.219783 -0.01381,0.355394 -0.02644,0.585549 M 10.352041,24.94194 c 0.400493,-0.0738 0.783351,-0.328769 1.136638,-0.775053 0.179673,-0.226966 0.276244,-0.472795 0.01388,-0.623301 -0.405228,-0.232532 -0.77065,0.364007 -0.900296,0.623301 -0.144358,0.28863 -0.150519,0.465604 -0.221647,0.706408 -0.184486,0.624562 -0.08992,1.307686 0.706408,1.454369 m 15.374771,-2.825632 0.08311,1.994563 M 12.60204,24.796581 c 0.191228,-0.01512 0.591822,-0.165459 0.811973,-0.324941 0.162641,-0.117928 0.49274,-0.510776 0.235441,-0.678734 -0.273421,-0.178514 -0.726519,0.342649 -0.80331,0.540195 -0.155346,0.362261 -0.427453,0.731963 -0.498642,0.997281 -0.119757,0.453847 0.09275,1.104738 0.650976,1.163496 m 12.050495,-0.664854 c -0.368165,0 -0.685633,-0.172531 -0.803394,-0.498642 -0.06707,-0.185909 -0.221112,-1.194947 -0.207769,-1.421793 0.01326,-0.225625 -0.437999,0.828822 -0.55785,0.996822 -0.131045,0.183689 -0.595007,0.539243 -0.841088,0.535752 -0.414952,-0.0058 -0.370657,-0.41944 -0.24932,-0.692529 0.263283,-0.592301 0.605267,-0.791591 1.163497,-0.997282 m -5.900586,2.077672 c 0.01046,0.397666 0.08518,0.533131 0.498639,0.49864 0.289463,-0.0241 0.701423,-0.09582 0.803396,-0.415535 0.201035,-0.63053 -0.822511,-0.884256 -1.02504,-1.2466 -0.116932,-0.209347 0.0074,-0.338411 0.138539,-0.429415 0.182086,-0.126237 0.512435,-0.216824 0.747962,-0.23544 m 8.560006,0 c -1.417716,0.579552 -0.956515,1.345124 0.498639,1.329708 M 5.1864343,24.083779 c 0.1333045,0.361931 0.6013636,2.569678 1.0803888,2.396219 1.0710387,-0.387833 0.9424529,-1.008401 1.0073006,-1.949934 0.011826,-0.171744 0.2545119,1.862756 0.8210499,1.839153 0.9950387,-0.04147 1.0803888,-1.832505 1.0803888,-2.285438 m 12.7153476,0 c -0.834143,0 -0.863498,-0.0221 -1.329708,0.08311 -0.424529,0.0958 -0.592567,0.02052 -0.997281,0.166214 m -4.579288,-0.106106 c 0.583264,-0.153821 2.001157,0.206366 1.490453,0.854067 -0.226431,0.287173 -1.237173,0.345005 -1.571513,0.378422 m 0.08856,-1.320348 c 0,0 -0.09761,0.76955 -0.09512,1.156265 0.004,0.621112 -0.153286,1.863332 -0.153286,1.863332 m 53.063727,-1.163497 0.04155,0.831069 0.276993,1.662136 0.138539,2.4101 0.166214,4.072235 0.08311,2.160778 m 22.771277,-2.825632 c 0.10887,0.516009 0.226881,0.765745 0.747961,0.997281 0.95656,0.425175 2.641966,-0.03682 2.742527,-1.246603 0.06067,-0.726102 -0.359853,-1.416305 -0.762092,-1.994563 -0.723859,-1.042576 -1.436915,-1.956835 -2.243884,-2.908739 -0.349879,-0.413207 -0.949912,-0.793339 -1.121943,-1.329711 -0.484512,-1.517116 1.813391,-1.568807 2.631996,-1.20505 1.09784,0.487921 1.421956,1.805247 1.911455,2.784081 m -22.688169,4.072235 c -0.08984,0.487671 -0.104547,0.66203 0.01387,1.163496 0.101144,0.428334 0.295614,1.007089 0.734084,1.315831 0.480524,0.338411 1.242698,-0.09807 1.579031,-0.401657 0.1402,-0.126571 0.283311,-0.248156 0.373981,-0.415532 1.110474,-2.050082 -0.77572,-3.796738 -1.980685,-5.318839 -0.43922,-0.554823 -1.480218,-1.804416 -1.094269,-2.576312 0.702087,-1.404175 2.477913,0.881596 2.853307,1.495923 0.06408,0.104797 0.191479,0.254557 0.2632,0.332427 m 40.722353,-2.243885 c 0,0.494901 0.0139,1.211859 0.11054,1.662136 0.27104,1.263269 0.24057,2.393166 0.49864,3.656703 0.10222,0.49116 0.0715,0.644494 0.22189,1.163494 m 5.81748,-5.817478 c -0.17203,0.81777 -0.0366,1.445394 0,2.326992 0.0141,0.333259 0.094,0.632618 0.0793,1.021558 -0.0247,0.653666 0.17001,1.606779 0.17001,2.302716 m -0.18582,-2.188161 c 0.15541,-0.155327 0.47752,-0.758476 0.61549,-0.969901 0.43049,-0.659617 0.88592,-1.281174 1.48179,-1.579028 M 63.527442,27.906694 c 0.251565,1.365778 1.36345,2.693162 2.410099,3.739809 0.542771,0.54277 1.741015,1.188262 2.409403,1.425098 M 129.7636,31.72961 c 0.27841,-0.02203 0.81196,-0.06167 0.87262,-0.498642 0.0707,-0.511439 -0.99894,-1.291232 -0.95573,-1.911458 0.0474,-0.678732 0.70558,-1.398603 1.24661,-1.412816 m -51.45541,8.845428 c 0,-0.395591 -0.07084,-2.658953 -0.12652,-2.944842 -0.222728,-1.147206 -0.214417,-2.297656 -0.51194,-3.490486 -0.119674,-0.4772 -0.335704,-1.372761 -0.419643,-1.826522 m -1.83837,0.413704 1.246603,-0.318547 0.581747,-0.09699 c 0.181547,-0.03027 0.346558,-0.129146 0.498642,-0.152334 0.458749,-0.07014 1.453538,0.05028 1.662138,0.401656 m 22.486023,3.793341 c 0.18529,0.04832 0.64579,0.133613 0.88704,-0.09156 0.65773,-0.735278 0.87004,-1.825064 0.28496,-2.621395 -0.26095,-0.354616 -0.53437,-0.195551 -0.77621,0.166212 -0.39559,0.594132 -0.53076,1.931179 -0.37693,2.65942 0.0728,0.34447 0.13927,0.589641 0.15766,0.724962 0.0437,0.321322 0.60392,0.406095 0.83893,0.376379 m 17.07129,-2.567544 c -0.19363,0.304669 -1.1236,1.410189 -1.59565,1.521637 -0.59172,0.139785 -0.53105,-0.800404 -0.49864,-1.135823 0.0715,-0.735827 0.76041,-1.750984 1.49592,-1.883782 0.62329,-0.112533 0.53932,0.925527 0.58317,1.357757 0.0336,0.331489 0.0708,0.318855 0.16479,0.609133 0.12823,0.396026 0.25182,1.503153 0.58175,1.745243 M 101.42417,29.73504 c 0.42694,1.186262 0.3463,3.215662 -0.41554,3.989128 -0.73217,0.698264 -1.410392,-1.196383 -1.615871,-1.566762 -0.09122,-0.164415 -0.254957,-1.195905 -0.354115,-1.011534 -0.367657,0.683609 0.107094,2.354781 -0.523217,2.827618 -0.168707,0.126557 -0.269266,-0.181174 -0.359853,-0.415535 -0.49324,-1.077213 -0.69572,-2.442402 -1.13607,-3.407381 m 15.624086,3.324274 c 0.41387,0.370407 1.49676,0.123912 1.34384,-0.664854 -0.15541,-0.796496 -1.22915,-1.016896 -1.48263,-1.745243 -0.11552,-0.334091 0.0889,-0.697683 0.305,-0.914177 0.26927,-0.269348 0.59422,-0.24932 0.91418,-0.24932 m -7.64936,2.570155 c 0.13821,-0.04221 0.37169,-0.134709 0.50217,-0.243165 0.33077,-0.275747 0.70142,-0.617816 0.9283,-0.997281 0.18949,-0.318217 0.23353,-0.681642 -0.0282,-0.997281 -0.59255,-0.715551 -1.2466,0.555152 -1.37127,1.080388 -0.0332,0.141199 -0.0274,0.265029 -0.0274,0.415535 v 0.581747 c 0,0.244069 -0.0133,0.460994 0,0.581749 -0.0522,0.517495 0.3605,1.115558 0.86522,0.96313 m 7.861,-3.207015 c 1.00012,-0.609232 2.27168,-0.886051 3.24117,-0.914176 m 4.64025,1.286833 c 0.12216,0.159399 0.5988,0.906108 0.76169,1.012483 0.49698,0.324533 1.28483,0.360103 1.91146,0.360103 m 0.41553,-1.911458 c 0.0972,0.06906 0.39828,0.211441 0.5251,0.206803 0.64432,-0.02357 1.22596,-0.473409 1.62155,-1.120977 0.23852,-0.389189 0.29586,-1.098007 -0.23519,-1.232725 -0.38312,-0.09723 -0.7089,0.386115 -0.8452,0.650976 -0.3275,0.727266 -0.47622,1.546575 -0.48451,2.243885 0,0.671005 -9.4e-4,1.471821 0.91418,1.495923 m -40.971752,-1.99456 c -0.535208,0.380299 -1.338851,0.581749 -1.994562,0.581749 M 109.07,35.718738 c 0,0 -0.18432,-0.603668 -0.2352,-0.914176 -0.0719,-0.438572 -0.0972,-1.329709 -0.0972,-1.329709 0.018,-0.591849 -0.004,-1.669985 0.1209,-2.107907 0.15666,-0.513226 0.61709,-1.086558 1.1257,-1.341028 0.54767,-0.274008 0.79533,0.612914 0.83107,1.038838 0.0706,0.851095 -0.54851,2.092297 -1.32971,2.396219 -0.33658,0.130975 -0.65827,0.15624 -0.74886,-0.125243 m 46.20831,2.383006 c 0,1.622328 9.4e-4,3.950733 0.16621,5.651266 0.0357,0.369076 -0.0341,0.516591 0.0141,0.831069 0.0382,0.249734 0.0681,0.800734 0.26261,1.080389 0.47621,0.684716 1.40451,0.225302 1.96714,-0.110783 0.32412,-0.193639 0.57676,-0.38254 0.83107,-0.637179 m 0.24932,-6.731655 c 0.44296,0 0.70225,-0.0024 0.99728,0.08311 m 20.44429,0.0831 c -0.32994,1.045318 -0.56346,2.039193 -0.73383,3.158061 -0.0258,0.165965 -0.002,0.250651 -0.0283,0.415535 -0.0216,0.144772 -0.0673,0.599615 -0.069,0.747961 -0.002,0.16879 -0.17413,1.204381 -0.0609,1.360977 m -0.0259,-0.705623 c -0.12882,0.210425 -0.5193,0.825245 -0.64313,1.019051 -0.25555,0.361853 -0.89691,1.155345 -1.26461,1.123554 -0.38815,-0.03356 -0.28611,-0.795137 -0.26049,-1.026755 0.11201,-1.01286 0.54594,-3.775065 2.36476,-3.306349 M 77.98804,36.632914 c 0.573478,0.17846 0.657377,0.250701 1.080391,0.150806 0.680645,-0.160728 1.285663,-0.535258 1.828351,-0.649448 m 90.503358,0.747962 0.19364,1.163496 0.13879,0.997282 0.0142,0.56948 c 0.0295,1.186192 -0.0461,2.12651 -0.3466,3.253435 m -30.91575,-5.069519 c -0.31248,0.423596 -0.27176,0.790514 -0.35985,1.246604 -0.0366,0.186158 -0.0416,0.3178 -0.0698,0.498642 -0.11219,0.736159 -0.069,1.159755 -0.069,1.786796 0,0.566875 0.0332,1.61294 0.49864,2.202334 m 18.78214,-4.238453 c -0.23104,0.798242 -0.0332,2.183134 0.24932,3.158062 M 116.02888,39.58582 c 0,0 0.0228,0.06367 0.008,0.205153 -0.0231,0.220464 0.0141,0.664855 0.0141,0.664855 l 0.0557,0.498641 0.27675,2.493205 v 0.581749 l 0.19645,1.668353 m 53.32436,-5.823695 1.32971,-0.249322 0.73241,-0.05477 0.51419,-0.02833 m -48.45129,0.0831 c 0.0874,0.976585 0.58838,2.451627 0.66842,3.670993 0.0327,0.498336 -0.005,0.953968 -0.16978,1.315418 m -10.38836,-4.404662 c 0.85268,-0.157072 1.19113,-0.259747 1.91146,-0.415535 0.58483,-0.126484 1.29896,-0.373066 1.91146,-0.08311 m 25.26448,0.249322 c -0.30334,1.048557 -0.9898,2.819399 -0.16621,3.739808 m 5.46376,-2.122105 c 0.24164,-0.01395 0.64376,-0.08688 0.93546,-0.301872 0.27592,-0.203281 0.77456,-0.751868 0.5402,-1.149619 -0.1953,-0.330349 -0.60751,-0.02967 -0.78952,0.166215 -0.41553,0.448028 -0.442,0.697897 -0.61906,1.138702 -0.17986,0.447759 -0.39235,0.858356 -0.4472,1.188288 -0.0856,0.513601 -0.0249,1.428607 0.56762,1.634462 0.45127,0.15674 0.99895,-0.249734 1.32971,-0.554071 m 10.38836,-2.908741 0.031,0.472115 c 0.043,0.655196 0.13524,0.916771 0.13524,1.522452 m -0.13023,-1.388688 c 0.0873,-0.08942 0.37041,-0.415315 0.47679,-0.605879 0.0798,-0.144438 0.31996,-0.625046 0.65073,-0.457086 0.39558,0.200619 0.49359,0.933289 0.49864,1.288155 0.003,0.23004 0.026,0.505403 0.0205,0.716538 l -0.0205,0.779387 m 0.013,-0.586538 c 0.16248,-0.218315 0.42001,-0.562832 0.54134,-0.82628 0.15874,-0.346472 0.44961,-0.991715 0.8585,-1.13582 0.23602,-0.08319 0.47952,-0.04696 0.66485,0.138539 0.39393,0.39376 0.39559,2.13734 0.49864,2.493204 M 107.98968,40.37272 c -0.25099,0.272258 -0.34406,0.620975 -0.40141,0.997283 -0.0632,0.411047 0.069,0.557812 0.069,0.914174 0,0.36509 -0.0382,0.740318 0.0141,1.080389 0.0764,0.503297 0.12964,1.120115 0.15208,1.662138 0.0216,0.520167 0.22439,1.370598 0.33243,1.745243 m 65.98684,-3.989128 c 0,0 -0.50746,-0.19773 -0.63743,-0.415534 -0.22791,-0.381932 -0.19245,-0.892553 -0.11053,-1.329709 0.0446,-0.238287 0.24775,-0.675066 0.24775,-0.675066 0.11146,-0.228724 0.1952,-0.287814 0.30656,-0.488432 0.2194,-0.394924 0.61748,-0.902907 1.10782,-1.052716 0.51857,-0.158433 1.11862,0.28996 0.66485,0.803394 -0.32328,0.366169 -1.02387,0.685217 -1.49592,0.803395 -0.12549,0.03133 -0.53903,0.156179 -0.63967,0.0684 M 88.625769,46.85505 c 0.354034,0.353952 0.66153,0.64998 1.163496,0.803393 1.125267,0.343813 2.08515,-0.346223 1.800925,-1.551355 -0.322453,-1.363118 -1.54911,-2.651358 -2.410098,-3.739808 -0.311651,-0.393593 -0.731341,-0.811705 -0.900878,-1.246604 -0.439636,-1.130418 1.908963,-0.294944 2.258013,-0.166212 m 47.703333,2.908739 c -0.43714,0.114936 -0.95905,0.65239 -1.41282,0.318549 -0.33575,-0.246577 -0.24932,-0.685133 -0.24932,-1.066511 0,-0.770982 0.18616,-2.473425 1.1635,-2.576312 m 28.67186,0.24932 c -0.11136,0.605849 -0.40722,1.588588 -0.16621,2.16078 m -38.815,-0.727028 c 0.32897,-0.05714 0.51521,-0.179586 0.75206,-0.367241 0.27591,-0.218155 0.63743,-0.529972 0.45709,-0.803311 -0.15458,-0.234278 -0.4895,0.02012 -0.6233,0.152335 -0.47066,0.67517 -0.83602,1.33576 -0.83107,2.160777 0,0.954899 0.36068,1.380323 1.2466,0.914177 m 1.65666,-1.211185 c 0.19633,-0.228348 0.31361,-0.42063 0.497,-0.659669 0.26095,-0.508282 0.79331,-1.434722 1.50304,-1.45342 m 6.81476,0.664854 c 0,0 0.72971,-0.192015 1.09456,-0.288025 0.36017,-0.09478 0.4986,-0.217182 0.9,-0.459939 m 4.07224,0.415537 c 0,0.805554 0.27758,1.870568 0.91418,2.396219 0.18283,0.150756 0.45958,0.268602 0.65073,0.138539 0.15873,-0.107789 0.17286,-0.369243 0.18034,-0.540193 0.0274,-0.660701 0.27924,-1.315748 0.33243,-1.994565 m -16.8707,0.08311 c -0.0183,0.692196 -0.0543,1.040282 -0.0831,1.412816 -0.0561,0.724001 -0.0602,1.164936 -0.0602,1.612551 M 65.438907,41.619326 c 0,1.929077 0.222642,3.814687 0.249319,5.734374 0.01131,0.81586 -0.129646,2.116399 0.249322,2.742524 m -4.737099,-8.227578 0.914177,1.163496 3.541623,3.274336 m 34.188887,-4.437832 0.249324,0.249322 m 22.68817,0.166212 c 1.12048,-0.150414 2.46068,-0.130242 3.49048,-0.415534 m -6.23301,0.08311 c -0.0716,0.820725 -0.0229,2.559483 0.20219,3.333945 0.1383,0.47592 0.21772,-0.475895 0.31058,-0.757633 0.28611,-0.868073 0.1184,-2.327322 0.73383,-2.70097 0.27924,-0.146518 0.38396,0.167376 0.41554,0.37398 0.0723,0.471631 0.16621,1.011659 0.16621,1.495924 v 1.329708 m -51.110712,-2.243885 0.886501,3.989128 0.443208,2.4101 m 62.745673,-5.152624 c -0.4762,-0.338079 -0.49458,-0.786858 -0.41363,-1.135161 0.16666,-0.717155 0.21501,-1.582581 -0.31355,-1.607366 -0.63676,-0.02986 -0.86763,1.373258 -1.03219,1.911458 -0.0814,0.267106 -0.17551,0.481989 0.0972,0.581747 0.25022,0.09152 0.54395,-0.216073 0.83483,-0.544429 0.13629,-0.154412 0.3308,-0.32123 0.45712,-0.543044 m -39.022467,2.749611 c 0.05485,0.653883 -0.554323,1.643355 -1.246604,1.883782 -0.548504,0.190314 -0.906694,-0.386031 -1.024707,-0.886501 -0.215246,-0.910935 0.04778,-1.887226 0.567619,-2.451651 0.820473,-0.994037 1.636632,0.815599 1.703692,1.45437 z m -27.693135,0.562611 c 0.08661,-0.07019 0.319649,-0.16777 0.434088,-0.244062 0.368495,-0.245666 0.720951,-0.675243 0.900296,-1.066511 0.100392,-0.219069 0.195467,-0.396502 0.05543,-0.664854 -0.213168,-0.408472 -0.663775,-0.364673 -0.928054,0 -0.331014,0.456838 -0.405582,1.32474 -0.443208,1.745243 -0.04476,0.500211 0,0.671919 0,0.914174 0,0.831069 0.102554,2.144075 0.997281,2.4101 m 4.48777,-5.235732 c 0,1.407082 0.452518,3.105287 0.650977,4.404663 0.08618,0.564045 -0.01953,0.932542 0.346305,1.329711 m 24.932056,-1.994566 c -0.293368,0.07721 -0.69976,0.397916 -1.080388,0.207766 -0.463737,-0.23195 -0.664857,-0.831151 -0.664857,-1.288154 0,-0.435646 -0.07884,-1.017919 0.05473,-1.402451 0.179737,-0.517424 0.276152,-1.098672 1.003022,-1.058619 m 2.598954,0.300292 c -0.34074,0.809792 -0.13214,2.186458 0.24932,2.991847 m 17.28622,-2.991847 c -0.38478,0.313727 -0.70973,0.594878 -1.08038,0.914174 -0.5839,0.311402 -1.5052,0.62853 -2.07768,0.664854 m -39.641976,-0.6233 c 0.342402,-0.166462 0.819684,0.226881 1.011162,0.540195 0.329685,0.539529 0.573188,1.34259 0.373981,1.994563 -0.115104,0.376558 -0.493822,1.272284 -0.886501,1.45437 -0.377969,0.175272 -0.695936,-0.501467 -0.747962,-0.789513 -0.131476,-0.72835 -0.558561,-2.806934 0.24932,-3.199615 M 105.5795,47.3537 c -0.49282,-0.319132 -0.51648,-1.081911 -0.58175,-1.495924 -0.0275,-0.174234 -0.0171,-0.43778 -0.013,-0.548733 0.0332,-0.885574 -0.1021,-1.228487 -0.33549,-1.624111 -0.28995,-0.491492 -0.85091,1.508588 -0.8707,2.422164 -0.005,0.217748 -0.0308,0.547508 0.305,0.429412 0.19779,-0.06964 0.37315,-0.350792 0.48451,-0.512519 0.0914,-0.131225 0.26458,-0.293941 0.37012,-0.436136 m -25.8698,0.519243 c 0.100559,0.47936 0.298353,1.272616 0.498639,1.82835 0.108871,0.302509 0.136502,0.907032 0.415535,0.914177 0.402952,0.01032 0.291613,-2.370304 0.327935,-2.866144 0.02054,-0.280452 0.165618,0.845385 0.170707,1.287113 0.01642,1.425043 1.329949,1.631789 1.897335,0.498642 0.472047,-0.943513 0.05568,-2.314775 -0.56762,-2.991847 m 26.680259,7.425429 c -0.31554,0.150273 -0.32597,0.436461 -0.73486,0.680629 -0.5884,0.351542 -1.30244,0.766372 -1.88502,1.065641 -0.32495,0.167044 -1.03896,0.588784 -1.35809,0.288603 -0.20776,-0.194637 -0.0839,-0.921324 0.0416,-1.232726 0.39891,-0.992129 1.21086,-2.132687 2.35441,-2.243882 0.71057,-0.06906 1.32722,0.518169 1.55161,1.163494 0.0665,0.192726 0.006,0.582489 0.0904,1.594571 0.0644,0.773152 0.0719,1.583766 0.0201,2.228347 -0.0341,0.352206 -0.16621,0.783781 -0.16621,1.080388 m 5.74612,-5.893504 c -0.13971,0.768438 -0.0974,1.396057 -0.11093,2.051236 -0.009,0.459074 -0.072,0.470123 -0.067,0.850419 0.009,0.630034 0,1.275773 0,1.828351 m 7.39651,-4.653983 c 0,0.625047 0.0283,2.23707 0,2.90874 -0.0108,0.259791 -0.17784,0.742145 -0.33242,0.997281 m -4.68141,-1.662136 c -0.0881,0.420687 -0.10472,0.631198 -0.12466,0.997282 -0.0125,0.22306 0.0216,0.465399 0.0831,0.664854 0.2942,0.964041 1.90814,0.0079 2.39598,-0.263198 0.31996,-0.17785 0.50279,-0.338328 0.72053,-0.650976 0.26428,-0.381295 0.21442,-0.425591 0.13796,-0.747962 -0.0723,-0.305832 -0.24101,-0.882512 -0.45709,-1.163496 -0.30334,-0.395091 -0.82608,-0.553077 -1.31558,-0.498642 -0.98479,0.166634 -1.25816,0.776396 -1.44024,1.662138 z m -28.625089,0.89154 c 0.507783,0.05352 1.807337,-0.238723 2.459727,0.521276 0.143773,0.167044 0.302509,0.279905 0.332427,0.498642 0.03241,0.229706 -0.246827,0.444454 -0.401407,0.581747 -0.482019,0.428499 -1.27569,0.596624 -1.911458,0.720288 -0.372317,0.0723 -1.360597,0.02656 -1.379554,-0.207476 -0.03585,-0.442501 -0.234059,-0.855159 -0.258048,-1.29239 -0.02472,-0.450606 -0.08514,-0.597503 -0.107641,-1.131877 -0.01988,-0.472297 -0.274411,-1.048741 -0.139778,-1.513891 M 71.256352,53.66982 c 0,-0.411546 0.04513,-0.586984 0.415535,-0.997284 0.41271,-0.45717 0.935451,-0.874448 1.495923,-0.983403 0.168542,-0.03283 0.252811,-0.01388 0.415534,-0.01388 0.148761,0 0.264115,-0.0063 0.415535,0 0.318714,0.01329 0.891405,0.283229 1.163496,0.457088 0.964206,0.615989 1.377578,2.358572 0.581747,3.28272 -0.458999,0.532964 -1.245214,0.882367 -1.911455,0.69253 -0.246449,-0.07022 -0.579559,-0.04054 -0.725328,-0.121148 m 38.372731,-3.895655 c -0.23104,0.548504 -0.18367,1.619585 0.58175,1.662135 0.48119,0.02676 0.89423,-0.154245 1.32971,-0.263197 0.16787,-0.04197 0.47695,-0.129243 0.61906,-0.132984 M 97.518117,52.340111 c -0.476514,0.68796 -0.885973,1.379753 -1.170558,2.160778 -0.306514,0.841201 -0.579672,1.367856 -0.740899,2.243885 m -9.041196,-1.840617 c 0.485925,-0.277085 0.768026,-0.32168 1.144146,-0.765413 0.246471,-0.29078 0.209601,-0.554267 0.280545,-0.856123 0.06285,-0.267427 0.01305,-0.437886 -0.04345,-0.776297 -0.159567,-0.956644 -1.466836,-1.009666 -2.229757,-0.554074 -0.239348,0.14286 -0.689788,0.473376 -0.789516,0.720286 -0.06151,0.152087 -0.04155,0.281401 -0.04155,0.415535 m -12.133602,-0.0831 c 0,0.46731 0.257384,1.835747 0.33243,2.326992 -0.016,0.811014 0.166212,1.631765 0.166212,2.659419 M 91.700639,53.17118 c 0.198625,-0.02759 0.527736,0.0618 0.747962,0.110781 0.663198,0.147486 1.889848,0.745637 1.82835,1.634462 -0.0191,0.269516 -0.16372,0.408055 -0.332427,0.58175 -0.490331,0.504708 -1.732779,1.419214 -2.493207,1.038835 C 90.845468,56.234 90.628509,55.79123 90.657568,55.21084 c 0.03409,-0.680796 0.313392,-1.938351 1.043071,-2.03966 z m -12.881563,0.429413 c 0.252646,0.13696 0.357361,0.257299 0.581749,0.484764 0.173692,0.175937 0.295029,0.285471 0.401405,0.498639 0.418029,0.834975 -0.447946,2.33946 -1.315581,2.700974 -0.515262,0.214581 -0.882845,-0.0477 -1.149616,-0.540196 -0.414621,-0.765331 -0.739236,-2.890124 0.235442,-3.28272 0.346555,-0.139453 0.983154,-0.0042 1.246601,0.138539 z m 16.538264,-0.09699 c 0.387277,0.420354 0.580823,0.573857 0.831069,0.831069 0.38481,0.532711 0.90828,0.677502 1.495923,0.914174 m 54.033578,7.728938 c -0.0789,0.51734 0.0906,0.991962 0.65073,0.914174 0.85101,-0.11826 1.98708,-1.220341 2.29956,-1.994562 0.13796,-0.34423 0.12799,-0.810958 -0.0141,-1.163497 -0.13214,-0.328606 -0.64345,-0.956983 -0.87262,-1.163496 -0.18114,-0.16323 -0.45789,-0.146763 -0.7241,-0.122098 -0.52247,0.04841 -1.0796,0.223604 -1.31202,-0.210329 -0.37564,-0.740732 0.22439,-2.897853 1.28816,-2.4101 0.53687,0.245996 1.01536,1.095716 0.66485,1.579031 -0.50617,0.69796 -1.09966,1.453105 -1.4973,2.436223 -0.25177,0.622481 -0.39533,1.378796 -0.48314,2.134654 z m -14.72404,-4.737092 c 0.47039,0.433321 1.19757,1.268628 1.4685,2.243885 0.28506,1.027867 0.30168,2.03296 -0.31913,2.908742 -0.2701,0.381957 -0.89174,1.032684 -1.39869,0.983401 -0.65488,-0.06366 -0.89257,-1.074653 -0.81694,-1.56515 0.0233,-0.153499 0.0623,-0.262286 0.069,-0.415535 0.0108,-0.266606 -0.0341,-0.47886 0,-0.831069 0.0175,-0.181504 0.074,-0.331678 0.0831,-0.49864 0.0174,-0.319296 0.0382,-0.527728 0.0972,-0.914176 0.0266,-0.177848 0.0856,-0.311734 0.12466,-0.498639 0.0607,-0.293119 0.14461,-0.829574 0.27675,-1.080392 0.0756,-0.142859 0.11967,-0.165465 0.24932,-0.249319 0.22439,-0.144938 0.40639,-0.278989 0.49864,-0.332428 m 2.74252,0.997282 c 0.44961,-0.414204 0.81113,-0.690368 1.32972,-0.928054 1.56905,-0.71929 1.82731,2.176215 1.31174,2.643063 -0.52286,0.473437 -0.59204,0.635668 -0.97932,1.110625 M 127.68589,58.07448 c -0.15957,0.865058 -0.16622,1.972291 -0.16622,2.825632 0,0.279572 0.0166,0.320377 0.0274,0.581749 0.01,0.240759 0.0557,0.484679 0.0557,0.747962 0,0.525069 -0.0224,0.947251 0.24932,1.329708 m 18.2004,-5.485051 -0.0831,3.573593 v 1.412816 l 0.16621,0.498642 m -25.09826,-5.152624 c 0,1.778903 0.75045,3.421009 -0.0972,5.069517 -0.5992,1.166655 -1.66742,0.354687 -2.41372,-0.699442 -0.20029,-0.282063 -0.59181,-2.287432 -0.66519,-2.915484 -0.0297,-0.253831 -0.1099,0.48022 -0.14811,0.872404 -0.0582,0.597285 0,1.003265 0,1.579028 0,0.261704 -0.0561,0.733287 -0.0601,0.994323 -0.006,0.407136 -0.002,0.556075 -0.0519,1.183532 m 7.09299,-6.000771 0.0972,0.664855 0.069,0.581747 -0.0831,2.410099 -0.0831,1.329709 m 23.36715,-1.329709 c 0.0765,0.503627 0.16289,1.380902 0.90005,1.329709 1.67709,-0.116432 2.13003,-2.04501 1.57903,-3.324274 -0.24766,-0.576013 -0.59796,-1.589113 -1.57903,-1.495923 -0.88541,0.242914 -1.00637,2.783343 -0.90005,3.490488 z m -48.04989,-1.495923 0.30501,1.911458 0.0981,0.555656 c 0.10353,0.58635 0.18195,1.600801 0.0124,2.519295 m 42.26926,-4.926454 c 0.90363,0.367554 1.27022,1.633805 0.75267,2.43325 -0.30916,0.556151 -1.17347,1.068753 -1.71782,0.581749 M 89.124329,61.149439 c -0.117181,0.278157 -0.09059,0.582496 -0.138789,0.831067 -0.02826,0.147846 -0.02743,0.262118 -0.02743,0.415534 v 2.65942 c 0,0.230122 0.03179,0.423075 0.02299,0.673959 l -0.02299,0.655749 m 0.018,-0.650741 c 0.331416,-0.356307 0.496443,-0.706726 0.757398,-1.177609 0.188652,-0.338993 0.455426,-1.069086 0.969856,-0.900296 0.199457,0.06549 0.264281,0.294864 0.332429,0.484763 0.257631,0.712307 0.142113,1.780232 0.49864,2.493205 m 33.238427,-4.926455 c 0.44462,-0.128649 1.51769,-0.03644 2.08199,-0.05996 0.27093,-0.01131 0.28222,-0.04863 0.61077,-0.06445 0.20033,-0.0096 0.29426,-0.157863 0.63583,-0.184872 m -23.99739,2.16829 c 0.52441,-0.0138 1.14966,-0.389887 1.4613,-0.838582 0.14295,-0.205106 0.19281,-0.639506 -0.069,-0.789515 -0.50197,-0.287964 -1.12074,0.916308 -1.2407,1.225086 -0.34274,0.882227 -0.64727,2.085597 -0.006,2.362388 0.41221,0.149427 0.78868,-0.142695 1.1635,-0.221647 M 67.267238,61.980506 c 0.06083,0.7704 0.351462,1.384155 0.707883,1.948568 0.209627,0.331958 0.19357,0.551369 0.275514,1.043278 0.05493,0.329188 0.05177,0.693527 0.110865,0.997284 0.125241,0.644076 0.152335,1.478219 0.152335,1.911455 m -0.548726,-3.975014 c 0.140942,-0.308568 0.262429,-0.585889 0.410194,-1.011395 0.09549,-0.275 0.322869,-0.679898 0.637178,-0.540196 0.295778,0.131477 0.482936,0.504793 0.609423,0.789516 0.393345,0.884922 0.600614,1.681417 0.886501,2.576312 0.101225,0.316803 0.152918,0.271426 0.290875,0.581749 0.170036,0.382539 0.124659,0.842038 0.124659,1.246601 m 39.226431,-5.568158 c -0.62995,0.447613 -1.31811,1.169943 -1.74528,1.868954 -0.26159,0.285267 -0.47496,0.426435 -0.64034,0.757449 m -11.160793,1.944474 c 0.190315,0.135048 0.271759,0.214167 0.49864,0.138539 0.430494,-0.143526 0.622471,-0.718043 0.581749,-1.135821 -0.09142,-0.938693 -0.953235,-1.633465 -0.914176,-2.576312 0.01329,-0.32229 0.130477,-0.416116 0.415534,-0.498642 m -26.374925,3.839991 c 0.174938,-0.246163 0.311204,-1.252875 0.37636,-1.679213 0.03308,-0.216492 0.04729,-0.347219 0.08311,-0.581747 0.05643,-0.369743 0.09009,-1.252837 0.567869,-1.302035 0.284641,-0.02925 0.466064,0.584906 0.554074,0.803393 0.292369,0.725855 0.451851,1.573712 0.69253,2.326993 0.08477,0.265442 0.140803,1.030523 0.22632,1.326052 M 93.21209,64.670449 c 0.132972,0.127486 0.532994,-0.07249 0.649344,-0.127509 0.355697,-0.168043 1.080388,-0.530886 1.219177,-0.983404 0.128817,-0.422931 -0.304952,-0.914162 -0.72054,-0.706408 -0.481973,0.24094 -0.694721,0.871641 -0.914179,1.288157 -0.430753,0.817545 -0.297521,0.806635 -0.332427,1.163494 -0.03075,0.312151 -0.01746,0.620976 0.24932,0.789516 0.285888,0.180674 0.413042,0.161062 0.747961,-0.04155 m -14.876125,1.163496 c -0.752118,-0.07912 -0.908711,-0.711164 -0.914174,-1.246601 -0.0072,-0.708008 0.199388,-2.354781 -0.05287,-2.777946 -0.429674,-0.720776 -1.883662,1.480224 -1.775479,2.611731 0.0437,0.457098 -0.0019,1.204534 0.436786,1.420849 0.458497,0.226064 0.891502,-0.52844 1.051483,-0.749443 0.147251,-0.20341 0.183122,-0.387249 0.335075,-0.565299 m 8.731226,1.306709 c -0.413871,0.381046 -0.908357,0.623718 -1.315581,0.166215 -0.30334,-0.340656 -0.263449,-0.80863 -0.263449,-1.246604 0,-1.085291 0.250983,-3.241166 1.57903,-3.241166 m 20.776722,0 -0.0406,1.087473 -0.0165,0.526621 c -0.0142,0.451616 0.0572,1.10242 0.0572,1.377753 m -8.393804,-2.493205 c 0,0 0.545527,-0.203347 0.831074,-0.249322 0.16416,-0.02643 0.33327,0.0034 0.49865,-0.01388 0.58815,-0.0615 1.74524,-0.318549 1.74524,-0.318549 m -22.106432,0.831069 c 0,0.856832 0.127398,1.320285 0.162412,1.848087 l 0.08691,1.309972 m -0.09045,-1.379039 c 0.151255,-0.19206 0.208286,-0.58206 0.399764,-0.949852 0.184986,-0.355328 0.302351,-0.816454 0.687967,-0.870722 0.265943,-0.03748 0.411379,0.240262 0.49864,0.457088 0.302509,0.751119 0.428833,1.664796 0.581749,2.493205 m 29.83536,-1.745243 c -0.27674,0.525484 -0.56928,1.11064 -0.91417,1.579028"
       id="path179"
       sodipodi:nodetypes="cccccccssscccccssscsccscsccccascssscscccsccccsccccsccccssccccscscsccccccccsscccscssccccccscccsccccccscscczssccscscsscccssccssccccccssscccsssscccsccsccsccccccccccccccssccccccscccccccssccsscccsccsscscccsccccscssccssccssccsccsccccsssccsccsccccccccccccscccsscccsscscsccscccsccsccscccccscccccssccccccccccccsssccsccsccsccccccccccccccccscscsscccsccccscccccscccccccccccsccccccssccccssscccsssccccccccccccssccccccccsccccccccsccsccccccccccccccccccssccsccccsccccsccccsccccccccccsccscccccccsccccsccccsscccsccccsccccssscscccccccccccscccccscccccccscccccccsccccccccccccssccscccccsscsccccccccscscssccccccsscccccccccscccsssscccccssscccccccccscccscccccccccccccccccccsssccscssccscccccccccsscccccccsscccssccccccccccccccssccssccccscccccccccccsccsssccccccccsssscccccccccccccsccccccsssccccccccsccccscccsccccsscccccccccccccsccscccccssccccssssscccscccsccssccsccsccccc" /></g></svg>
