<?xml version="1.0" encoding="UTF-8" standalone="no"?>
<!-- Created with Inkscape (http://www.inkscape.org/) -->

<svg
   version="1.1"
   id="svg59"
   width="3000"
   height="1998.207"
   viewBox="0 0 3000 1998.207"
   sodipodi:docname="MonicaG - Pulsz - Envelope5.svg"
   inkscape:version="1.2.1 (9c6d41e410, 2022-07-14)"
   xmlns:inkscape="http://www.inkscape.org/namespaces/inkscape"
   xmlns:sodipodi="http://sodipodi.sourceforge.net/DTD/sodipodi-0.dtd"
   xmlns="http://www.w3.org/2000/svg"
   xmlns:svg="http://www.w3.org/2000/svg">
  <defs
     id="defs63" />
  <sodipodi:namedview
     id="namedview61"
     pagecolor="#ffffff"
     bordercolor="#000000"
     borderopacity="0.25"
     inkscape:showpageshadow="2"
     inkscape:pageopacity="0.0"
     inkscape:pagecheckerboard="0"
     inkscape:deskcolor="#d1d1d1"
     showgrid="false"
     inkscape:zoom="1.6589241"
     inkscape:cx="61.787033"
     inkscape:cy="136.23287"
     inkscape:window-width="1366"
     inkscape:window-height="705"
     inkscape:window-x="-8"
     inkscape:window-y="-8"
     inkscape:window-maximized="1"
     inkscape:current-layer="g65" />
  <g
     inkscape:groupmode="layer"
     inkscape:label="Image"
     id="g65">
    <path
       style="fill:none;stroke:#969db8;stroke-width:0.339197"
       d="m 73.345468,20.599199 c 0.08175,3.102639 5.757199,1.139704 6.727302,-2.035184 0.294764,-0.964001 0.164174,-2.27873 -0.395502,-3.052777 C 78.19701,13.464181 75.24226,12.6362 73.79762,10.423277 72.360439,8.2215462 73.081912,6.4210872 75.719852,7.4834535 c 0.679411,0.2737323 1.351021,0.652615 2.035184,0.9046395 m 54.951324,10.230139 c 3.90688,-0.719778 5.76501,-2.978777 5.76501,-6.498969 0,-1.347631 0.14077,-3.0982277 -1.01759,-4.0137223 -2.13728,-1.6892031 -4.63741,2.8701623 -5.1159,4.0403753 -0.31126,3.723014 0.81623,8.938675 1.04553,11.845257 M 108.9612,9.7448817 114.04916,8.0488939 m 28.15338,0.3391991 c -0.29917,3.791549 0.7001,6.848734 1.92223,10.515119 0.44062,1.322531 0.86869,3.540203 2.14814,4.239968 1.15327,0.630569 3.37061,-1.077969 4.40957,-1.187192 m -48.45193,-0.157131 c 0.56082,-2.472665 0.16277,-7.830629 3.67787,-7.983606 4.05726,3.650143 -3.3835,12.351638 -7.80154,5.766356 -2.293652,-3.513407 -1.300482,-7.32429 0,-10.8543175 m 13.74206,0.053304 2.53942,5.3738535 m 2.37438,-4.070369 0.67839,3.052777 c 1.87929,-3.178256 1.97932,-0.701223 3.05278,0.678396 M 15.003517,25.68716 c 3.081608,3.994388 5.137144,-3.200327 4.352922,-5.766356 -1.174643,-3.844802 -5.986836,-1.61424 -7.236099,-3.731173 -0.63396,-1.074236 -0.303583,-2.804822 0.847993,-3.27902 2.291279,-0.943308 6.942014,-2.487334 9.497526,-2.487334 m 28.83178,3.052777 7.123146,-2.035184 c 0.734701,1.861176 -1.042694,4.160593 -1.583036,6.105553 -0.61259,2.205799 -0.791348,4.200959 -0.791348,6.44475 M 5.1667919,12.119263 7.5411729,25.008765 M 40.104125,25.68716 c 1.873046,-0.344963 3.33872,-1.239427 4.522518,-3.052776 0.551873,-0.845281 1.259779,-3.455067 0.1696,-4.239969 -1.080007,-0.777778 -5.444798,1.188548 -6.388106,0.678396 -0.840531,-0.454864 -1.240445,-4.696188 -0.508796,-5.935956 0.845281,-1.432091 5.999724,-0.678393 7.631941,-0.678393 m -15.263883,0.452149 c 2.156617,-0.479286 4.990952,1.968023 5.087961,4.296613 0.119738,2.871645 -1.489075,6.149989 -4.748764,7.010195 -1.832342,0.483356 -4.22131,-1.58507 -4.409564,-3.279023 -0.35039,-3.153857 0.756071,-7.291048 4.070367,-8.027785 m 87.173731,0.226244 0.13418,0.831747 m -32.697128,8.326585 0.339196,0.339197 M 189.69018,33.658298 c -1.81442,-0.731244 -3.38824,0.873435 -4.40957,1.639341 -4.64207,5.898178 3.38539,6.213873 5.03132,7.745235 1.11426,1.094929 1.83099,3.502891 1.30048,5.031314 -0.53457,1.538938 -2.7068,3.46117 -4.29661,3.391973 -2.74309,-0.119396 -2.6429,-5.880527 -0.1696,-9.327926 2.88787,-4.025262 5.04154,-7.473368 2.54398,-8.479937 z m -46.95734,9.421131 c -1.42849,2.062059 -2.73339,4.269216 -2.22628,5.673155 1.01352,2.806519 5.21448,3.217286 6.33179,0 0.64753,-1.864908 0.0237,-6.434915 -2.26142,-6.783949 -2.27025,-0.346999 -4.4479,0.655668 -6.44476,-0.791348 -4.20774,-3.049383 7.51431,-10.628504 6.51846,-6.345687 z m 36.10302,-7.894743 -0.3392,4.409568 0.3392,9.497527 M 173.4087,35.523885 c -0.13264,2.510304 -0.84142,8.620243 5.35771,6.498967 m -66.07404,-5.481374 c 1.3093,0 4.41194,-0.562729 5.37051,0.395843 1.39783,1.397831 -0.64413,6.379962 -0.9043,8.084091 -0.11329,0.740468 -0.0566,1.281148 -0.0566,2.035184 0,1.460583 -0.45589,1.793677 0.33919,3.052777 l 5.08796,-2.035185 m 31.54536,0.339197 c 3.04633,0 6.28567,-1.67326 3.61822,-5.087961 -1.8181,-2.327234 -4.26846,0.369727 -6.3318,-0.847993 -1.49382,-0.881573 -0.65499,-4.175519 0,-5.25756 2.67118,1.12478 6.17272,0.678395 9.15833,0.678395 m 9.38458,5.766357 c -0.62582,2.047395 -2.76341,5.97263 -4.63581,5.087961 -3.66907,-1.73355 -2.32281,-9.856116 0.67839,-11.532713 1.85187,-1.034535 4.70433,4.000495 3.95742,6.444752 z m -69.76172,9.15833 c 1.44193,-2.2828 2.64676,-5.366105 3.10943,-8.140738 0.33445,-2.00805 0.41925,-4.388198 1.63934,-6.105553 1.34017,1.819114 2.10879,5.195485 2.77022,7.462342 0.47454,1.626791 1.18143,4.172466 1.97854,5.766357 M 63.169546,40.611846 h 1.017593 m -44.434857,1.017593 2.82653,7.462342 1.243839,7.462344 m 25.50151,-1.554324 c -4.350789,1.306502 -6.510211,-4.995446 -6.16726,-8.282401 0.121771,-1.253336 0.91651,-3.394688 2.374381,-3.900772 1.275382,-0.442653 1.992108,1.511465 2.035185,2.54398 0.09769,2.346568 -2.298186,2.81245 -4.299452,4.234367 m 27.704072,-6.269551 c 0.33445,4.235898 4.574757,7.544769 7.801542,9.15833 m -0.678396,-8.819131 -3.512955,8.579409 -1.477775,3.603917 m 40.267257,-11.84413 3.22238,-0.847995 5.25756,-1.865585 M 12.968333,59.946098 c 0,-5.185311 -1.500948,-10.010734 -2.71358,-15.772681 0.474877,-6.007862 5.260613,-2.981884 6.783949,-0.169598 1.619261,2.83544 -1.109471,7.937003 -4.949729,8.628699 m 40.236974,-3.635954 c 0.475894,-1.224163 1.962055,-3.085777 3.381257,-3.805553 1.394102,-0.707226 2.753605,0.701798 3.109424,1.865585 0.234046,0.766247 0.272035,1.268599 0.28255,2.035185 0.02409,1.731941 0,3.193204 0,5.087961 M 33.320176,45.530208 c 4.728413,-0.394147 6.023808,8.315763 1.356789,9.15833 -3.607024,0.651259 -6.142186,-8.759434 -1.356789,-9.15833 m 18.655856,0.169599 c 0.312607,3.679764 0.983422,8.709384 1.017592,10.854318 M 65.204731,46.3782 65.54393,55.875729 m 37.05586,-8.913006 5.74978,-0.624847 m -85.814257,3.037876 c 5.474559,-5.153529 5.387296,4.056283 4.679311,6.499977 m 57.324359,-2.374383 -1.017593,3.731172 m 53.25399,18.655859 c -3.73015,0 -4.74876,-1.996857 -4.74876,-5.42716 0,-1.507731 0.71571,-5.304368 2.71358,-5.70971 1.07322,-0.217765 1.81742,0.876147 2.37438,1.639341 m -48.844425,-1.356789 2.71358,9.836726 m 62.751515,-9.15833 v 3.052776 l 0.3392,4.409566 m -47.82683,-6.105553 c 1.27606,-0.235064 4.44009,-1.849983 5.25756,-0.339197 0.4725,0.873771 -0.36905,2.225133 -0.62175,3.052777 -0.50473,1.651552 -0.99453,3.132148 -0.90464,4.748762 0.13263,2.388968 2.25431,2.761406 4.07037,1.752634 0.78456,-0.43587 1.62102,-0.937881 2.37438,-1.413435 m 28.49258,-8.310338 c 1.41785,-0.836799 3.08263,0.388382 3.78782,1.526389 1.3456,2.171203 1.28352,5.404094 -1.07424,7.010192 -3.9279,2.675589 -5.32235,-6.996964 -2.71358,-8.536581 m 8.82115,2.570082 c 2.48357,-4.733572 7.33879,-0.572439 7.01202,2.891804 M 160.385,69.809932 c 0.85783,-1.716001 3.01636,-3.416708 5.22216,-3.079885 2.15899,0.3297 2.23565,3.667741 2.37439,5.427158 m -70.553065,5.087961 c 1.523335,0.641421 6.108945,0.0064 4.579165,-3.052777 -0.99554,-1.991428 -4.127013,-2.14237 -5.540111,-3.504926 -1.473812,-1.421238 0.638031,-3.130114 1.978538,-3.279023 0.760482,-0.08446 1.186512,0 2.035183,0 m -50.201213,1.017592 c 1.510445,3.376712 1.109852,11.384484 -4.409568,8.819134 -1.949027,-0.905996 -1.474295,-4.282418 -2.904012,-5.385488 -0.64278,1.527065 -0.522898,2.645791 -1.505553,4.028699 -1.154968,-1.828613 -1.767896,-4.048323 -3.391974,-6.105553 M 23.483452,69.443625 c 0,2.568743 1.197706,6.196459 2.374383,8.140737 0.963543,-0.229579 1.788637,-4.492168 2.17073,-5.562029 1.188885,1.505695 1.553995,5.818124 3.256427,6.749221 1.280469,0.700103 2.771921,-0.738772 3.335329,-1.865585 0.844939,-1.689544 0.395843,-4.185018 0.395843,-6.105553 M 7.2019764,70.12202 c 1.069151,2.1383 2.0545186,6.661497 4.7487646,7.971138 1.092215,0.530845 2.195964,-0.161118 2.374381,-1.187189 0.309348,-1.77943 0.02747,-3.707839 -0.216869,-5.133893 1.29052,1.832618 2.043447,6.644677 3.948041,6.829878 1.933087,0.187917 2.017198,-2.432045 2.035184,-3.731169 0.02206,-1.596603 -0.297136,-2.465967 -0.339196,-4.070369 m 86.495338,1.695985 c 3.24121,-1.445179 6.70914,-1.812199 10.17592,-2.374381 m -37.990111,2.035185 c 0,1.477543 0.03867,3.239334 1.074239,4.352921 2.989498,2.889488 5.475504,-2.417456 4.86866,-4.853429 M 69.614299,84.029114 66.724846,72.550621 c 1.291836,-1.863606 5.525017,-7.316435 8.203658,-4.067942 2.262445,2.743767 -3.905939,9.170396 -6.953287,9.250447 m 54.893073,-3.879934 v 1.356789 m -67.500282,1.695988 0.339196,0.678393 m 125.842236,5.42716 1.69599,1.356789 m -17.97746,14.246291 c -1.72448,0.952807 -3.40385,2.713578 -5.42716,2.713578 -2.29976,0 -2.55009,-2.165434 -3.05278,-4.070367 -0.87106,-3.301069 1.40801,-12.51876 6.10555,-12.889502 m 17.29907,3.731172 0.3392,6.105553 0.67839,3.391974 m -64.4475,-8.819134 -0.28255,2.71358 0.28255,7.462345 0.67839,4.070369 m -102.098416,0.67839 c 0.09396,1.18855 0.499299,2.80313 2.035184,3.27903 1.624757,0.50336 4.893601,-1.71736 5.370514,-3.27903 1.169213,-3.825803 -3.596171,-6.615364 -6.388106,-8.592884 -1.097982,-0.777779 -3.436409,-1.784178 -3.674525,-3.279021 -0.184861,-1.159378 1.50061,-1.469064 2.317736,-1.639343 2.71731,-0.56612 5.454974,-1.569804 7.801541,0.282552 m 172.312282,8.819133 c 1.1821,0 4.41024,-0.544411 3.56157,-2.374381 -0.73538,-1.585749 -3.12469,-2.195625 -4.12701,-3.731172 -1.83846,-2.816357 0.67737,-3.767126 2.93982,-3.052776 M 92.679723,89.795469 c 1.979555,4.424831 2.035184,9.538911 2.035184,14.585491 m 90.565703,-14.585491 0.3392,6.105555 m -0.18256,-4.846249 c 4.95637,-3.21261 4.79915,3.035129 4.59213,6.542235 m -69.19627,-7.123146 -4.1613,5.128863 m 22.13876,3.351074 c 6.1259,0 -1.66478,-3.183369 -1.69599,-5.42716 -0.04,-2.86961 2.8055,-3.052777 5.08796,-3.052777 m -15.16804,5.865483 c 4.56396,-0.208283 5.98292,-1.002069 5.67052,-4.169495 -0.18928,-1.921214 -2.26483,-1.359165 -3.39198,-0.565443 -1.4002,0.986047 -1.92121,2.513115 -2.21437,4.164071 -0.6843,3.848325 2.78182,6.95546 4.58875,6.91649 m 38.32931,-11.419757 c 5.39052,-1.898151 9.38729,6.646573 2.71358,8.593227 -4.14431,1.20856 -6.52379,-7.251362 -2.71358,-8.593227 M 80.468614,102.68497 c 1.687847,2.12541 6.986788,0.559 7.123145,-2.713577 0.16485,-3.955381 -4.349866,-3.47813 -5.314205,-6.783949 -0.697729,-2.393038 2.486996,-1.452442 3.61822,-0.678395 m 24.156406,6.005508 c -0.74725,0.767265 -3.97654,4.287773 -5.16135,4.340013 -1.09697,0.0485 -1.31168,-1.84456 -1.24384,-2.54398 0.27272,-2.802449 2.1132,-7.378223 5.44547,-7.105256 0.20317,3.088641 1.57185,9.178426 3.59991,9.818836 m -56.148036,-4.5213 c 1.008434,-1.236374 6.697123,-3.208331 3.911635,-4.80663 -1.17973,-0.676698 -2.175953,0.589865 -2.656933,1.526389 -2.725911,5.820041 -1.144257,6.836051 4.013722,9.497531 M 41.460914,93.86584 c 0,2.366578 0.7018,6.30161 -0.73504,8.14074 -0.964678,1.23468 -2.527023,1.0376 -3.674526,0.62175 -1.643073,-0.5953 -1.630862,-2.46427 -2.71358,-3.674529 l -1.695988,5.427159 c -1.636288,-2.0725 -2.525663,-5.729725 -3.731168,-8.140739 m 39.397638,6.878149 c 2.146781,1.52537 7.898688,-2.54796 8.089995,-4.842965 0.218106,-2.61555 -2.791594,-4.450269 -5.087961,-3.618219 -1.413095,0.51219 -1.906289,2.098954 -3.56157,3.448622 l 0.847993,8.310332 0.339196,2.71358 m 31.545357,-14.585487 -6.783948,0.508796 -3.052776,0.847995 m -44.744483,3.588224 c 1.236232,-0.908374 5.50093,-1.783498 4.549591,-3.927423 -0.502691,-1.179389 -2.196302,-0.470804 -2.883177,0.05665 -1.424968,1.094591 -1.424629,2.541266 -1.805799,4.071638 -1.273712,4.040397 4.483692,4.492367 5.406989,4.479987 m 237.907353,-9.286665 11.41975,13.907085 8.37712,10.83351 m 0.89416,-24.740595 c 0.0339,1.225181 0.32225,1.90595 0.33921,3.052777 0.0305,2.167468 0,3.787138 0,5.766348 0,2.87233 0.2544,6.20324 0,8.81914 -0.31545,3.25866 -1.04066,6.2453 -1.3568,9.49752 -0.45588,4.69043 -0.0252,9.29367 0.33921,13.9071 m -192.25665,-40.305344 4.68049,4.689614 m -87.512928,-3.391971 0.339196,2.035185 M 320.62037,122.35842 c -3.54802,2.2404 -2.33367,6.77717 1.35678,8.36698 2.84587,1.22518 6.14625,0.20149 8.0288,-2.26143 5.17278,-6.77275 -2.19459,-15.69703 -7.3504,-20.35184 -2.40152,-2.16781 -6.09199,-3.49611 -6.44474,-7.12314 -0.45115,-4.624285 5.38644,-4.149407 8.14074,-2.656938 2.42525,1.313371 3.54798,5.439708 3.73115,7.744898 m 54.95,14.58548 c -3.52086,5.81995 6.85178,4.69246 9.83671,4.07037 1.11259,-0.23133 1.84184,-0.55119 2.3744,-1.69599 2.24547,-4.83084 -1.97754,-12.11579 -6.10555,-14.81173 -2.53722,-1.65732 -7.53698,-2.90522 -8.36802,-6.2185 -0.25778,-1.03931 -0.30866,-2.169509 0,-3.052779 0.63091,-1.785198 2.35743,-1.695988 3.95843,-1.695988 3.53105,0 6.6822,0.459613 9.49755,3.052777 m 82.08575,-1.356789 c 0,2.352329 0.11873,4.193159 0.33922,6.444749 0.38668,3.97404 1.50262,8.43177 3.39196,12.21111 m 26.79659,-18.655859 c 0.13229,4.993999 1.69599,10.239689 1.69599,15.263879 m 5.42715,-13.56789 -6.17894,6.24393 m -174.27406,-0.13838 c 3.32411,-4.68025 12.09576,-6.928786 16.62066,-4.07037 m 181.47063,12.8895 c 1.24823,0 2.94422,0.37956 3.33429,-1.01759 0.71911,-2.56705 -2.94423,-6.00718 -4.07037,-8.14074 -1.65527,-3.13554 0.92263,-5.27655 3.78885,-4.74876 m -11.87192,0.45215 c 3.18168,-0.61836 2.24209,4.86171 -1.01759,5.31421 -1.05583,0.14667 -2.29426,0.23053 -2.63485,-0.24423 m -21.31306,3.56865 c -0.83104,0.85172 -5.60296,4.92791 -6.91904,4.98591 -1.48569,0.0655 -1.36698,-2.73529 -1.35681,-3.56157 0.0475,-3.38078 4.08055,-9.98835 8.23952,-6.55813 0.0988,2.98351 -0.50582,7.37695 1.25803,9.61091 M 339.78959,102.37571 c 0,4.52387 2.24771,12.04787 2.87862,16.59074 0.32222,2.3235 2.36994,9.27164 2.7261,11.20337 m 89.6196,-16.88059 c 0.34257,-0.94805 2.39892,-1.6023 3.08071,-2.46352 0.7089,-0.89311 1.75026,-1.85236 1.07524,-3.05278 -1.12953,-2.00601 -3.26647,-0.36667 -3.95844,1.01759 -1.53839,5.63233 2.71568,14.90749 6.90332,11.00183 m 83.23078,-4.81427 c -7.33341,0.034 -8.36436,-11.47064 -2.5635,-12.85855 m -108.54317,5.9926 c 0,1.45753 0.017,2.78108 0,4.07037 -0.0237,1.5905 -0.62073,6.68253 -3.05278,6.78395 -2.89673,0.12075 -3.31056,-2.92592 -4.74875,-4.74877 -0.58002,1.37884 -0.5122,3.73558 -1.3568,5.42716 -3.26986,-2.0552 -3.80918,-6.7965 -5.08796,-9.83672 m 73.26664,-1.0176 4.23997,-1.01759 c 4.18231,-0.91956 6.99765,-1.35679 8.31035,-1.35679 m -21.36944,11.87191 c 1.03454,1.63799 1.7265,2.25804 3.73115,2.03519 1.67565,-0.18622 2.84926,-1.77095 2.71359,-3.39198 -0.26119,-3.12842 -2.81873,-3.87024 -5.42715,-5.42716 -0.68178,-0.40771 -2.43204,-1.64748 -1.8656,-2.65693 0.55968,-0.99995 2.93407,-0.39584 3.90079,-0.39584 m -46.86806,6.98974 c 1.48113,-0.88994 7.25658,-4.60247 4.4107,-6.48095 -0.99724,-0.65906 -2.28617,0.75268 -2.71356,1.52639 -1.75596,4.02149 -3.4592,6.88425 1.41445,9.15833 0.675,0.30901 1.3127,0.3202 2.03519,0.3392 m 22.13947,-2.33605 c 2.58468,-0.95212 6.42434,-2.82484 8.38829,-4.7871 0.7564,-0.75641 1.64509,-1.58405 1.29911,-2.71357 -1.24484,-4.09412 -9.29413,-0.58792 -10.0604,1.8172 -0.33206,4.70453 1.87558,11.95624 2.99493,15.82106 m 57.32181,-20.34856 6.7865,6.44146 M 367.7688,111.8433 c 1.9843,0.57426 3.89399,0.67263 5.76636,1.01759 m 32.90216,-0.67839 v 2.03518 m 207.2496,12.88951 2.3744,-0.3392 m -274.07152,4.40956 c 2.94423,-0.54237 8.16447,-2.71358 10.51511,-2.71358 m 244.90053,0.3392 c 1.54674,5.34609 2.03519,10.91707 2.03519,16.62068 0,1.46872 -0.82425,5.52586 0.0577,6.3881 1.19738,1.17362 6.13947,-1.3439 7.74388,-1.63934 m 72.58823,-21.03024 -0.1911,16.80282 c -4.62717,1.09367 -10.48278,0.71593 -8.17689,-5.60931 0.80728,-1.99753 6.16959,-3.35391 8.1471,-2.78168 m -30.64606,-5.35905 0.73605,4.74876 0.95994,9.83672 m -111.93514,-9.83672 c -1.39893,5.65863 0.594,9.67932 2.03519,15.26388 l 0.67837,4.74877 m 5.76637,-18.65586 1.35678,0.3392 m -74.28423,0.33919 2.43204,13.2287 0.62073,4.40957 m 134.66139,-16.95987 c -0.10855,4.07139 -0.60379,7.47489 0.67838,11.53271 m 23.74383,-11.53271 h 0.33919 m -200.46566,6.44475 c 1.76043,-1.62272 3.70742,-1.65868 5.76636,-2.48733 4.89462,-1.97108 8.88358,-3.61822 14.24629,-3.61822 m 189.27215,0.33919 c 2.81153,-0.46387 5.64726,-0.72455 8.47993,-1.01759 m -230.31503,1.01759 c -1.76722,3.95301 0.31884,8.33578 0.95992,12.55031 0.35616,2.32418 1.02439,5.33829 1.41446,7.46234 m 151.28204,-7.80154 c -1.5637,0.78253 -2.95442,1.89543 -4.74877,1.69599 -5.62311,-2.73417 -5.08651,-8.61149 -1.63832,-12.21111 0.78693,-0.80118 2.25226,-1.09696 2.31673,0.3392 0.1058,2.31507 -3.00709,3.55271 -4.77671,4.19785 m 96.02079,0.21171 c -1.41445,0 -2.86282,0.5105 -4.07037,-0.67839 -1.17361,-1.15497 -1.35678,-3.27936 -1.0313,-4.60661 0.51543,-2.27429 2.4729,-4.21252 3.00205,-2.91899 0.52914,1.29353 -1.45514,2.38039 -3.01546,2.70873 v 0 m -35.38361,4.36924 c -0.28831,-1.36256 2.31863,-5.18474 4.88296,-3.50979 2.65933,1.73534 2.3744,4.32308 2.3744,7.0102 m -13.21348,-2.15751 c -0.13567,-1.73195 1.54508,-6.41503 4.39434,-3.60885 1.76043,1.73432 2.32349,4.66702 2.71359,6.78395 m -62.07313,-7.12315 -2.71358,9.15833 -3.73118,-8.14074 m 79.033,-0.67839 1.35678,7.12315 m -19.33425,-6.78395 1.01759,10.51512 m -260.16441,8.47993 c 0.0339,1.22756 0.18996,2.46359 1.12952,3.33533 2.07251,1.91647 8.9209,0.13025 9.66713,-2.31773 1.33305,-4.35937 -3.11722,-9.26349 -6.72629,-11.41977 -1.3941,-0.83137 -4.16533,-1.46193 -4.6911,-3.16572 -0.8446,-2.72138 2.06913,-5.08797 4.35192,-5.08797 2.52701,0 4.54863,1.49688 6.44474,3.39198 m 180.45303,-3.05278 c 0,3.26003 0.2544,6.99527 0.33919,10.17593 m -16.95985,2.03518 c -1.10918,1.07932 -2.81197,2.55212 -4.40959,2.37438 -1.53656,-0.17062 -1.9436,-1.75535 -2.37437,-3.05278 -0.88869,-2.6671 -2.11997,-6.08079 -0.90566,-8.81913 0.81408,-1.82725 2.47614,-2.42492 3.95844,-2.03518 m -83.97087,-2.87355 3.70208,18.85347 m 46.00984,-3.76882 c -1.15326,1.06203 -2.79497,2.39677 -4.40956,2.37439 -3.21404,-0.28962 -5.12296,-16.03483 2.03519,-13.9071 2.09448,0.62258 -2.05246,4.91471 -4.89752,4.91075 m 30.61408,1.05058 c -1.96151,1.92101 -7.2217,6.67138 -7.51184,3.5362 -0.10514,-1.8683 0.51559,-4.30136 1.24147,-6.10555 1.05491,-2.61996 2.29637,-4.16738 5.0643,-3.07227 l 1.94691,8.83862 m -121.77188,-9.15833 0.6784,0.3392 m 101.42004,2.03518 0.57295,2.96278 1.46223,5.51716 m -1.39514,-5.53633 c 2.27263,-1.85473 2.86724,-5.18061 5.8047,-4.63959 m -220.13913,1.01759 c -3.11824,6.23682 -0.0319,14.97862 0.6784,21.36944 0.55052,4.9533 0.6784,9.90252 0.6784,15.26388 m 247.95331,-35.61573 c 3.67036,-0.21369 7.05314,-1.58844 10.51511,-2.71358 m -86.53499,7.29969 c 0,-1.19635 0.55524,-3.85819 2.07484,-4.19026 1.08544,-0.23778 1.90628,0.89005 2.48631,1.63934 1.8656,2.40457 2.94084,5.90169 2.94084,8.81913 m -8.14074,-10.17592 1.696,10.85431 m 10.17592,-10.51512 6.10555,-0.33919 6.44475,-0.6784 m -211.65918,2.37438 14.33947,12.67263 m 129.21442,-2.74426 c -0.89886,0.5668 -4.40493,2.76847 -5.44287,2.11314 -1.55015,-0.97892 -1.21434,-4.85968 -1.07526,-6.27515 0.32901,-3.36993 1.90969,-5.42716 5.69261,-5.07592 1.35085,2.92982 -0.78444,11.37549 3.12653,12.19907 M 302.64289,152.88619 c 0,3.39909 1.52675,6.0662 2.60064,9.15833 1.22383,3.5246 0.79136,7.8921 0.79136,11.87191 m 74.22655,-17.63827 c 1.72991,2.43917 1.27199,8.43618 -1.97751,9.38458 -2.72035,0.79304 -4.05001,-2.98257 -4.35191,-4.97501 -0.28154,-1.82624 -0.99449,-4.70648 0.79034,-6.78395 1.28283,-1.49316 4.20266,0.48675 5.53908,2.37438 z m 17.69593,-3.39197 c -0.44095,1.52435 -0.29848,1.91205 -0.33919,3.39197 -0.0712,2.58468 -0.13908,4.98858 1.35679,7.46235 m -87.85212,-10.51513 c -0.73608,2.545 -1.02777,6.6537 0,9.49753 1.24823,3.46015 1.35678,7.3823 1.35678,10.85432 m 76.99782,-9.49753 c -4.16196,3.28547 -6.55668,-3.47066 -5.31522,-6.78395 0.84119,-2.23734 2.73732,-3.17353 4.63681,-2.37438 m 65.1259,2.71358 -11.19351,7.46234 m -114.98792,-6.78394 c 0,3.64501 1.43819,9.31911 3.05278,12.5503 2.33028,-1.38562 1.24825,-2.72579 2.03518,-4.74876 0.39007,-0.99894 0.33919,-2.17019 0.36631,-3.11921 1.01416,1.52407 1.25846,7.25063 3.36487,7.75502 1.71632,0.41111 2.47952,-1.72821 2.71356,-2.93983 0.48845,-2.507 0.0407,-7.10381 -0.33918,-9.15833 m -46.68111,8.73159 c 0.65274,-1.09829 2.26728,-1.54725 3.60304,-2.96523 1.02065,-1.0834 2.25667,-2.56501 2.03519,-4.07037 -0.20657,-1.4036 -1.80862,-1.20178 -2.65693,-0.3392 -2.80075,3.58968 -3.49943,8.15501 -3.10944,12.21111 0.32665,3.36009 2.87165,6.21071 5.76637,3.39198 m 21.70862,-1.69599 c -1.75705,-0.1808 -1.33983,-2.8557 -1.35678,-4.07037 -0.017,-1.2669 -0.33921,-2.02162 -0.33921,-3.39197 l 0.50879,-5.76636 c 0.79457,-9.00492 16.29328,12.01182 1.1872,13.2287 z m 119.05829,6.10555 c -0.77675,4.21317 -0.67838,10.31805 -0.67838,14.92469 v 5.76635 m -37.90503,-10.16095 c -1.6485,1.17125 -5.76664,4.85726 -7.88662,5.29924 -2.77802,0.57833 -3.59889,-2.86385 -3.39199,-4.97501 0.24423,-2.50837 0.53594,-6.23886 2.26247,-8.47994 2.44899,-3.18472 6.77716,-1.85541 8.69227,1.48549 l 0.57799,13.7784 v 5.08796 m 31.26382,-14.92469 c 1.68241,3.78544 1.42463,9.42257 -1.75364,12.5503 -2.29976,2.26551 -6.34301,2.61013 -6.78396,-1.35678 -0.16282,-1.47823 -0.14246,-2.429 0.0577,-3.73118 0.47486,-3.12163 0.0317,-7.70667 2.82552,-10.51512 2.45695,-2.46978 4.49435,0.44842 5.65441,3.05278 z m -23.80148,-2.37438 c -0.3799,1.31066 -2.09963,8.30186 -0.95992,9.44088 1.05829,1.05796 6.68385,0.69236 8.46125,1.02002 m -0.37819,-10.1217 0.33919,12.8895 -0.33919,4.74876 m -43.75646,-15.94228 c -4.33968,6.62074 -4.23334,12.67806 -3.73118,20.01265 m -31.88455,-12.8895 c -0.24422,-1.16175 0.25099,-3.01479 1.41445,-3.95742 2.13015,-1.72617 8.23232,-1.89136 8.76147,1.58304 0.23743,1.55352 -0.60379,3.67859 -1.58406,5.08796 -0.90904,1.3093 -2.08606,2.55857 -3.16471,3.73117 m 21.36944,-11.19351 c 2.45239,4.90479 5.03028,9.45411 8.81914,13.56789 m -76.99782,-6.44475 c 0,-4.88987 4.9415,-5.78911 8.81914,-5.76636 8.52869,0.05 4.9266,12.5782 -3.90463,14.59718 m 38.42209,-15.16445 4.11003,20.26716 c 3.67041,-1.59997 10.59683,-5.00653 6.14657,-9.52396 -0.80731,-0.81781 -3.88853,-1.66418 -4.8281,-2.30628 m 14.26794,-3.12088 c 1.41107,2.82212 2.08948,5.63339 1.47213,8.81913 -0.21031,1.08408 -0.37313,1.89001 -1.41446,2.60063 -1.8181,1.23807 -3.24273,-0.29171 -4.01269,-1.92223 -1.51621,-3.20542 -1.9911,-5.75788 -1.1872,-9.15833 0.17299,-0.74081 0.22117,-2.46934 0.84798,-2.88318 1.23198,-0.81338 3.69727,1.34797 4.29424,2.54398 z m -35.3308,0 c 2.42866,3.64603 5.93936,13.25278 -0.56644,15.15093 -1.93004,0.56273 -3.01207,-2.00296 -3.84312,-3.27902 -1.0108,-1.54776 -2.09285,-4.0256 -2.26243,-5.76636 -0.14588,-1.5101 0,-2.74885 0,-4.40956 0,-1.55048 -0.38338,-3.34434 1.35678,-3.95742 1.69592,-0.59751 4.30103,0.74047 5.31521,2.26143 z m -25.83794,-3.00788 c 0,5.30267 3.68939,14.99783 5.25884,19.96775 m 270.17073,-1.69599 c -0.90904,-1.79571 -4.84213,-1.89759 -6.27516,-0.1696 -2.16716,2.61332 -2.05551,7.60108 1.696,7.2361 1.10241,-0.10718 1.77402,-0.74623 3.05277,-0.62175 2.95102,0.28696 5.80369,2.67695 6.10556,5.76636 0.22387,2.30859 -1.15326,8.0936 -4.74875,7.6886 -2.63218,-0.29648 -2.22092,-5.58391 -1.95947,-8.61434 0.21283,-2.4665 2.67517,-10.21011 2.12905,-11.28537 z m -50.37081,4.40957 c 0.52238,-1.29268 2.39134,-3.28411 3.73118,-3.67453 1.64512,-0.47996 4.23657,1.2106 4.40956,2.99613 0.27816,2.85401 -2.79838,4.97671 -3.39197,7.80154 0.76999,-0.2432 1.55353,-0.72384 2.37437,-0.67839 3.62263,0.20148 5.21349,6.92844 3.05278,9.15834 -1.49245,1.54165 -3.68027,1.39748 -5.42715,0.33919 m 14.9247,-18.65586 c 3.68027,5.37933 3.91093,11.62565 4.07036,17.63827 m -36.97253,-15.54644 c 2.07251,0.3453 6.05129,2.48055 6.72629,4.69212 1.24825,4.07681 -0.94637,8.66072 -4.6911,10.74136 -2.51684,1.39716 -4.16196,-0.72554 -5.14561,-2.93982 -1.21094,-2.72749 -3.70719,-10.01611 -0.22387,-12.38071 0.84485,-0.57353 2.54736,-0.24422 3.33429,-0.11295 z m 48.50524,1.4131 c 2.87299,1.99481 6.06485,7.57597 3.61924,10.68472 -1.45515,1.84998 -5.20669,4.24572 -7.35042,2.93982 -2.01484,-1.22722 -1.35678,-4.80337 -1.35678,-6.95355 l -0.33919,-7.29274 c -0.0873,-1.87596 3.57851,-0.66246 5.42715,0.62175 z m -72.58824,-0.79135 3.11043,14.5855 0.28154,2.71356 m -11.53271,-16.95986 1.69597,13.56789 0.33922,4.07037 M 466.81445,216.6553 c 1.63153,4.42822 2.51763,8.11396 1.03533,12.96618 -0.51559,1.69462 -0.61226,4.70357 -2.38628,4.58044 -5.09473,-0.35377 -7.13238,-7.95546 -10.01214,-10.25388 l 0.84798,8.31035 0.33919,2.37438 m -60.71634,-13.5679 0.0577,6.44475 0.95992,10.51511 0.33922,2.71359 m 128.58292,-17.97747 -0.94949,0.94949 m -165.96275,-0.27109 c 0,2.64371 0.33919,4.83389 0.33919,7.46234 0,3.84583 1.93342,7.62313 2.03518,11.53272 m 115.38371,-17.48493 9.116,-0.99093 m -185.89443,22.20702 c -0.7321,-6.00553 -4.05767,-15.64647 -1.01759,-20.35185 3.16944,1.88459 4.62379,8.19114 8.50659,11.06683 1.25807,-0.0176 2.32466,-3.23737 2.82125,-4.17625 1.10241,-2.09082 2.18863,-3.36159 3.53186,-5.18545 2.09283,2.94423 2.48684,12.57815 2.77856,16.27235 m 68.51789,-1.696 c 3.77527,-0.0994 6.05126,-3.78679 3.05278,-6.78393 -1.52639,-1.52776 -4.42653,-1.14479 -5.31524,-3.39199 -1.41784,-3.59447 2.78481,-4.26743 4.63683,-3.73116 m 34.59814,0.67838 c 0.15943,2.01145 1.01759,7.03021 1.01759,9.49755 m -0.5276,-5.72218 c 2.15051,-3.40385 6.67047,-4.45782 10.36433,-3.09697 m -52.10288,12.50998 c -3.16619,2.63454 -6.78187,-0.98524 -7.44837,-5.36391 0.47662,-1.56287 2.22011,-9.87321 5.222,-6.75022 2.56093,2.66271 -3.42928,6.39353 -5.03031,7.4057 m -17.63826,3.73116 c -2.30655,3.24647 -5.98005,4.13788 -7.35042,-0.33919 -0.53592,-1.76145 0.0746,-4.55848 0.84801,-6.10555 1.37034,-2.74005 2.69662,-4.40956 5.82401,-4.40956 m 4.78454,5.50967 c 1.51621,-4.11583 7.01953,-6.01033 9.40408,-1.10011 0.90566,1.85743 0.73607,6.99831 0.73607,8.81914 m 45.11325,-5.76637 c -2.25905,1.12986 -4.37224,-0.2432 -4.40956,-3.05277 -0.9489,-3.98179 4.3729,-9.2429 5.93595,-7.0665 1.12261,1.84319 -3.60401,4.51582 -5.5964,3.60676 m -80.05095,12.95725 c -4.65378,-1.34693 -3.27324,-9.85436 -4.80205,-12.3469 -5.74039,0.97646 -4.82321,4.24529 -4.35628,10.31172 0,0.91787 -0.22387,2.60063 1.01759,2.60063 1.0617,0 4.38697,-3.01436 5.12302,-3.75076 m 64.75165,-9.36498 c 2.90953,-0.17826 5.6757,-0.96895 8.47995,-1.696 m -67.5003,2.3744 1.696,11.19352 m -0.92596,-6.63646 c 0,-2.06332 3.01541,-5.18763 4.82672,-1.8435 0.91245,1.68684 1.35002,4.73623 2.20479,6.44477 m 100.06323,-6.10555 -0.67838,9.49752"
       id="path177"
       sodipodi:nodetypes="cccccccsscccccccccccccccccccccccccccccccccccccccccccscccssscccccscccccccscsccccscccsscccccccccccccccccccccccccccccccccccccccccccccccsscccccccccccccccccccsccccsccccccccccccccccccccccccccsccccccccscccccccccccccccccscccccccccccccccscccccccccccccccccccccccccccccccccccccccccccscsccccccccccccccccccsccccccccccccccccccscccccccccccccccscccccccscccccccccccccccccccccccccscccccccccccccccccccccccccccccccccccccsccccccccccccccccccccsccccccccccccsccccccccccccccscccccccccccccccccccccccccscccccccccccccccccccccscccccssccsccccccccccccscccccccccccccccccsccccccccccscccccssccccssccssccccccccccccccsccccssccccccccccccccccccccscccccccccccccccccccccccccccccccccccscccccccccc" />
  </g>
</svg>
