<?xml version="1.0" encoding="UTF-8" standalone="no"?>
<!-- Created with Inkscape (http://www.inkscape.org/) -->

<svg
   version="1.1"
   id="svg10164"
   width="4688"
   height="2048"
   viewBox="0 0 4688 2048"
   sodipodi:docname="FrankN - Stake - Envelope70.svg"
   inkscape:version="1.2.1 (9c6d41e410, 2022-07-14)"
   xmlns:inkscape="http://www.inkscape.org/namespaces/inkscape"
   xmlns:sodipodi="http://sodipodi.sourceforge.net/DTD/sodipodi-0.dtd"
   xmlns="http://www.w3.org/2000/svg"
   xmlns:svg="http://www.w3.org/2000/svg">
  <defs
     id="defs10168" />
  <sodipodi:namedview
     id="namedview10166"
     pagecolor="#ffffff"
     bordercolor="#000000"
     borderopacity="0.25"
     inkscape:showpageshadow="2"
     inkscape:pageopacity="0.0"
     inkscape:pagecheckerboard="0"
     inkscape:deskcolor="#d1d1d1"
     showgrid="false"
     inkscape:zoom="0.12817383"
     inkscape:cx="2012.8914"
     inkscape:cy="838.70475"
     inkscape:window-width="1920"
     inkscape:window-height="1051"
     inkscape:window-x="-9"
     inkscape:window-y="-9"
     inkscape:window-maximized="1"
     inkscape:current-layer="g10170" />
  <g
     inkscape:groupmode="layer"
     inkscape:label="Image"
     id="g10170">
    <path
       id="path10631"
       style="fill:none;stroke:#584a57;stroke-width:1.12894"
       d="m 499.82962,423.48567 c -0.1111,3.80111 -0.91548,7.55254 -1.11061,11.35548 -0.83733,16.31924 9.99217,9.13065 10.79136,2.18118 0.50615,-4.40103 -8.15867,-19.96111 -10.16202,-11.50533 m -4.38688,11.32218 c -2.1749,-2.18211 -4.55871,0.70802 -7.38551,0.14986 -7.27991,-1.43748 2.37086,-12.17204 0.77742,-17.36624 0.47649,9.44562 4.49449,18.35292 5.60855,27.70604 m -23.99641,-25.01727 c 0.22364,-2.05739 -0.12842,8.18782 0.42574,6.1939 5.07556,-18.26244 8.72383,2.01747 5.60855,9.72375 -0.61738,1.5272 -5.62946,6.26122 -7.10787,3.6797 -4.8578,-8.48236 11.35292,-0.35935 12.86448,0.76593 m -29.2829,-19.26436 c 2.87626,-1.36537 5.33254,-1.37784 8.25549,-0.69932 m -8.40357,-0.81586 c 0.5383,3.54828 -0.46191,8.7275 2.11014,11.77173 2.77127,3.28003 5.49584,-10.14363 8.99589,0.73262 2.38698,7.4174 -8.87612,12.70359 -11.67984,4.61212 m -17.48279,-16.12123 c 0.93246,3.45916 9.92128,1.29851 10.10649,1.63172 1.35084,2.43023 1.50077,17.67518 1.814,21.47886 m -36.75156,-20.69271 c -0.0448,8.37226 -3.20911,16.36117 -4.10923,24.55914 m -5.16431,-23.11057 c 4.31716,6.1829 7.27041,13.84257 13.10512,18.8148 m -30.24543,-18.5817 c 4.19992,-1.85068 9.15321,-0.0656 13.40128,0.0833 m -5.88619,1.51518 c 0.0955,7.88599 1.90135,15.73985 4.92367,23.01067 m -26.77805,-5.2888 c 1.51882,2.04567 1.84912,4.58187 2.81353,6.87655 m -15.32633,-14.40247 c -0.28176,-1.09645 -0.22883,-3.14676 -1.62889,-3.44661 -3.03644,-0.65033 -3.32645,8.74756 -2.35078,10.42307 0.99951,1.71643 8.53805,2.58419 7.47806,5.44464 -0.65876,1.77773 -3.84812,0.30059 -5.59003,1.04897 m -9.60672,-13.40347 c -2.79729,-11.33837 -11.12452,11.56832 -4.72007,12.82071 4.08787,0.79938 5.62408,-6.28358 5.7011,-9.12436 0.0939,-3.46395 0.14856,-6.79416 0.0926,-6.69339 -2.07088,3.72561 2.89768,13.28795 4.64602,16.35055 m -22.15778,-23.81826 c 2.78357,8.19036 3.34803,16.81464 5.60855,25.14189 m -12.82748,-24.22613 c 1.23784,6.72915 2.26699,14.06113 4.7756,20.49647 m -14.01099,-10.68192 c -7.14271,-3.15174 -12.79928,10.53727 -4.94218,13.02051 4.24648,1.34209 6.63071,-4.12186 7.14487,-7.35942 0.34092,-2.14669 0.006,-8.65111 -0.37019,-6.51025 -0.59786,3.40596 2.8649,11.05347 4.22029,14.31922 m -35.5949,-20.67968 c 4.31396,0.61615 7.62075,-3.03197 11.84645,-1.76493 7.26201,2.17747 8.90606,15.08767 6.12682,20.96269 -0.97667,2.06456 -5.47119,6.22088 -6.20087,2.13123 m -7.95932,-24.32604 c 0.20459,8.65281 3.80049,16.91602 6.77468,24.9421 m 20.95477,-61.89118 c -1.06764,2.47585 -0.90644,5.25849 -0.98104,7.90887 -0.76195,27.07317 19.52859,-7.01682 4.27583,-5.21153 m -26.02515,-2.04799 c 11.64869,-5.49197 3.85152,15.74363 1.25869,14.28593 -1.47367,-0.8285 1.09075,-8.80733 3.75754,-7.24286 5.21173,3.05745 6.47711,16.7773 0.83296,11.88829 m -14.36382,-20.62968 c 0.83597,8.22939 2.88996,16.42602 6.33044,23.87648 m 15.43739,-23.69332 c 1.62906,6.04704 1.90743,12.51839 3.72053,18.49844 m 18.70596,-19.44406 c 1.37254,6.59563 2.24704,14.9635 4.10923,20.56307 m 27.67319,-24.34971 c 8.58693,-10.23456 15.53189,15.73271 5.03473,13.33686 m -5.20132,-14.98524 c 2.51231,7.50397 4.09661,15.28581 6.29342,22.86081 m 7.5521,-14.96858 c -0.0185,1.86009 -0.1054,3.7365 0.22213,5.57783 0.34822,1.95773 1.01339,4.00729 2.14716,5.66109 0.0964,0.14061 1.56983,1.98456 1.44379,2.09794 -1.35498,1.21884 -3.70985,-12.0861 3.66499,-14.38583 m 1.50537,6.00457 c -0.47508,-5.21199 8.50878,-3.79671 9.82884,-5.57785 1.46976,-1.98312 -8.18271,-4.381 -7.31146,5.61115 0.46688,5.35464 5.21712,9.74956 9.01439,3.86287 m 5.69477,-8.96539 c 1.96735,-8.55892 -4.95512,2.53615 -2.70247,6.92651 0.57492,1.1205 6.77585,3.11419 6.53406,3.6797 -0.22799,0.5332 -6.74816,2.82656 -7.73722,3.59646 m 7.23685,-14.35631 c 5.27311,-0.82765 10.74311,-0.64121 15.99268,-0.91575 m -10.01394,-9.45736 c 0.5695,7.65358 3.96996,15.36313 5.77514,22.37796 m 5.79496,-14.53946 c -2.16219,2.65364 -3.30939,10.27698 0.40722,12.40446 1.98656,1.13715 3.63602,1.26468 5.42346,-0.29971 9.17603,-8.031 -7.8253,-17.10882 -1.96208,-8.8413 m 9.15853,-3.82149 c 0.0335,4.02132 0.76766,8.54067 2.75801,12.12139 0.80388,1.44626 -3.43788,-13.65237 3.29478,-10.70611 5.05933,2.214 5.01726,10.26812 5.59004,14.61894 m 36.8964,-26.06795 c 5.31791,-0.89389 13.86152,9.79823 12.05005,15.5014 -0.79708,2.50949 -3.20601,4.62686 -4.70155,6.51024 m -5.10878,-21.19577 c -0.178,6.61866 3.77555,15.04005 5.62705,20.61301 m -23.98903,-14.93529 c 2.14337,-17.17269 14.93147,-3.67108 8.53314,3.36337 -0.62389,0.6859 -6.75732,4.16471 -7.32998,2.44758 -0.2081,-0.62397 0.77136,-0.6901 1.11059,-0.68266 6.79413,0.14907 8.76103,5.54442 14.06766,8.39174 M 462.43462,378.4638 c 0.94864,7.72362 6.02907,14.28928 7.57061,21.71196 M 670.1786,368.921 c 0.85435,3.337 7.34604,0.20722 7.71869,0.7659 2.97548,4.46088 0.76385,17.00888 0.3702,22.26141 m -17.19584,-24.10959 c -0.11454,1.13745 -1.97061,4.30474 -0.81445,5.34474 0.25984,0.23373 2.63858,-6.13351 5.20133,-4.22917 3.97277,2.95211 1.84717,12.3283 0.22211,15.95095 -4.7257,10.53481 -9.01709,2.39713 -8.03335,1.64838 1.04707,-0.79697 7.55596,5.75023 13.21618,0.41626 M 645.8934,371.10217 c -1.139,3.88447 -3.33901,15.0707 3.70201,14.71884 8.5589,-0.42773 5.27781,-12.0688 1.4808,-16.16741 -2.17199,-2.3445 -3.14352,0.66626 -2.18418,2.41429 m -20.15745,0.2664 c 4.94696,-1.86824 10.20251,-0.18092 15.30781,-0.3996 m -13.29022,-1.69833 c 0.26448,3.60297 2.13492,6.7687 2.98012,10.18996 0.22351,0.90478 11.76073,-5.84286 9.08843,4.01273 -1.67971,6.19488 -14.12361,7.6453 -15.30781,0.36629 m -5.97696,-1.19881 c -2.50883,0.014 -4.94438,-0.0647 -7.32998,0.41625 m -12.84598,-8.47499 c -0.9404,2.20234 -1.33274,4.55149 -1.33274,6.94317 0,15.61858 11.31546,9.49334 6.12684,-2.29774 -0.9363,-2.12774 -2.37457,-4.26691 -4.7941,-4.64543 z m -9.79183,-2.03133 c 1.10366,6.96043 2.06325,14.21362 4.73857,20.79618 m -12.97555,-20.87942 c 1.57113,6.41409 2.66895,13.25392 5.1458,19.38091 M 539.77031,375.7409 c 3.90902,0.0467 8.08097,0.48672 11.90197,1.43192 m -13.67895,8.29184 c 3.86648,-0.21251 8.28322,-0.0458 11.80942,-1.63173 m -9.34757,-8.85794 c -0.0261,1.44405 -0.41782,2.87906 -0.27766,4.32906 0.38531,3.98586 3.43033,7.59088 3.94265,11.73845 0.13724,1.11106 -0.60112,6.92036 0.68487,7.20956 2.94236,0.66168 7.92735,-3.26445 10.4952,-4.01272 m -29.83821,-16.98327 c 3.45968,-0.28148 6.83381,0.69311 10.25457,0.88247 m -4.83112,-2.34769 c -1.69019,7.56529 4.2947,14.39767 4.38688,21.3623 m -12.6979,-18.54841 c -6.8243,-7.73257 -7.51148,4.19313 -4.83112,9.44071 1.36635,2.67505 10.15394,6.20808 5.57152,8.85794 -1.7404,1.00641 -4.62421,1.93143 -5.21983,1.93143 m -3.82051,-52.33927 c -2.66617,6.69536 5.13956,16.42806 2.46183,21.5288 m -0.61083,-14.46908 c -4.83161,-0.69001 -13.59846,7.45035 -10.32862,12.6542 4.55546,7.24985 9.48665,-6.1512 9.58821,-9.25755 m -21.10073,0.9784 c 2.4305,0.64843 5.93508,0.67315 7.99635,-1.13221 4.18315,-3.66384 -6.48198,-6.76906 -5.90471,3.09694 0.46716,7.9842 8.98747,8.74975 12.93853,2.76395 m -21.76783,-15.61795 c 0.14548,7.58174 2.1036,15.01768 3.94264,22.27805 m -7.66316,-11.07242 c 2.97266,-0.23999 7.15539,-1.22973 9.44012,-1.91478 m -14.9191,-0.54946 c 2.10701,4.44933 2.02585,10.27878 4.18327,14.53567 m 4.31285,-21.94505 c -1.46782,-0.29203 -2.41512,0.0672 -3.62798,0.59942 m -23.915,-7.75903 c 1.67763,0.30785 2.49339,1.40007 3.3133,2.7806 m -6.93152,14.97028 c 0.1024,2.22555 0.75334,4.35145 1.36975,6.47694 2.69127,9.27998 -1.79839,-5.43571 2.49887,-8.50827 5.15211,-3.6838 6.49904,8.52425 5.12728,11.23892 -1.24933,2.47239 -2.18637,-11.49522 2.66544,-11.38878 4.12457,0.0905 5.05326,11.22155 5.05326,14.03618 m -24.45179,-14.88535 c 0.96154,6.04314 2.12873,12.3427 4.46092,18.0489 m -20.87934,-25.57481 c 6.24119,20.55244 -2.09303,21.9311 17.14031,21.37894 m -47.26553,-11.4027 c -1.39604,-0.17781 -1.66913,0.21665 -2.16569,1.53182 -5.24388,13.88896 13.49032,9.14238 -1.31421,14.96859 m -11.99451,-6.64345 c 2.08659,-1.74288 4.44749,-3.11374 6.66361,-4.62877 3.73906,-2.55616 -6.73289,-8.02882 -3.36883,4.47891 1.12991,4.20101 4.3283,7.45964 7.40403,2.96375 m -14.27757,-14.64703 c -2.71096,18.77764 -13.08647,5.33023 -2.07313,10.10671 3.18555,1.38157 6.19673,6.7515 6.95979,9.05774 m -11.10605,-22.2614 c -0.89052,7.99932 3.34234,16.44049 5.07176,23.61007 m -11.11346,-15.70496 c -5.9816,-3.31948 -12.28417,8.28368 -8.58867,13.10376 3.29789,4.30149 6.69093,-5.30817 6.83021,-7.62583 0.11785,-1.96123 -0.263,-7.83393 -0.44425,-5.87754 -0.32251,3.48124 4.3482,17.82118 8.14443,9.6072 m -28.48111,-4.93706 c 3.62234,-1.88618 7.85333,-1.84674 11.80941,-1.76494 m -7.84826,-10.77271 c -0.4844,8.19806 2.44647,17.43667 4.84963,24.64239 m -11.62431,-18.13214 c -0.57291,-0.2645 1.05149,7.25308 0.81444,6.82661 -0.37798,-0.68001 -2.35545,-7.29669 -4.60901,-4.91183 -5.8801,6.2227 6.84833,13.11567 5.20133,14.15273 -1.67426,1.05422 -4.03451,0.65598 -5.68259,0.44955 m -14.05981,-9.89591 c 7.76957,-7.752 11.75024,8.618 4.46094,13.02051 m -0.37021,-18.4818 c -3.03293,8.00059 10.17637,27.35549 -0.5553,23.34368 m -12.58684,-17.33293 c 2.03889,-1.65094 5.30797,-0.71716 7.42253,-1.91478 2.06564,-1.16991 -7.93513,-6.23455 -5.5345,4.72867 1.33672,6.10459 5.85375,9.27575 9.06993,2.3144 m -17.38096,-3.86287 c 2.11891,-0.94389 5.41725,-2.01835 6.99682,-3.91282 0.59604,-0.71486 -6.28067,-3.47125 -6.01577,3.79627 0.1657,4.54618 5.97691,14.79589 7.58912,5.61113 m -25.24772,-9.75706 c 0.99976,-0.49451 3.18419,14.96818 4.0537,14.18604 1.46058,-1.31383 2.05795,-8.46467 2.48035,-10.47301 0.28224,-1.34197 0.65716,-5.3611 0.90699,-4.01273 0.38581,2.08225 -0.62802,4.3375 -0.0926,6.5269 3.41559,13.96552 12.32788,6.05435 4.66454,-7.04305 m -18.399,-1.09893 c -1.06706,-2.09768 -0.94455,-4.88834 -2.35078,-6.84325 -0.67131,-0.93324 -1.69821,-1.13221 -2.75801,-1.13221 -5.37459,0 -1.94901,8.65733 -0.81443,11.32218 1.0541,2.47582 10.3594,9.26446 9.21801,11.88829 -0.47027,1.08102 -9.64195,-2.13524 -12.43876,-0.36631 m 8.12098,-120.46793 c -4.16579,-4.32417 -15.6048,7.84854 -12.43876,10.80602 3.00257,2.80476 9.2946,-5.30241 10.4952,-7.27617 0.26243,-0.43141 1.61105,-3.84825 1.94356,-3.52985 1.02926,0.98558 -0.51391,2.82084 -0.49977,4.24582 0.0519,5.22907 3.35206,11.17747 1.03656,16.0009 m -21.40125,-19.969 c 9.21509,-2.17186 3.88922,9.87789 -0.7404,12.6542 -0.63285,0.37951 3.64393,-6.55532 6.6081,-5.77764 8.06041,2.11474 -1.84396,17.53471 -3.665,10.57292 m -15.32628,-10.85598 c -0.60388,-2.59018 1.56672,-7.16439 4.62751,-4.96177 4.57096,3.28934 1.07424,14.67439 -3.42436,16.90001 -5.3012,2.62271 -3.35848,-6.40349 1.36975,-3.94611 2.62573,1.36466 3.68538,4.47825 6.83021,3.34671 M 239.32212,254.9812 c 0.0495,2.39845 -1.08485,4.58451 -1.4623,6.89321 -4.12507,25.23218 15.34777,4.04686 7.79274,1.84818 -2.21976,-0.646 -2.96945,8.88888 1.31422,9.5073 m -11.67984,-5.74434 c -2.38505,2.59444 -10.18965,5.63624 -13.49385,2.66404 -0.006,-0.005 1.42094,-1.86623 1.51783,-1.99803 2.78342,-3.78616 3.80896,-8.67213 6.68213,-12.40445 -1.27767,7.86918 3.05412,15.09045 4.36838,22.57776 m -32.11982,-21.53393 c 2.6793,6.60821 3.46597,13.59584 4.62752,20.52978 m -15.01167,-14.10278 c 2.79388,3.43835 8.6741,13.36604 13.73447,12.3545 m -13.38277,-17.76583 c -1.39216,7.79937 1.51491,15.2113 3.05415,22.72761 m -21.76783,-22.59441 c 4.6126,-0.80421 9.69448,-0.34729 14.28977,0.1998 m -15.0857,17.49943 c 3.8487,1.8424 11.48982,3.58901 14.53041,-0.333 m -8.71825,-18.3819 c -2.6357,7.85527 1.94858,14.20218 3.31331,21.37894 m -17.38964,0.13217 c 1.20622,1.4206 1.22163,3.43527 1.53634,5.22818 m -12.29068,-14.76879 c 4.9121,-3.95604 -7.06758,-2.11848 -0.49977,6.74336 0.71732,0.96788 6.23855,2.91448 5.96024,3.62976 -0.74139,1.90542 -6.03403,0.48594 -7.31148,2.13123 m -8.07038,-21.31234 c 0.47511,1.35971 0.82372,2.75319 1.11061,4.16257 m -1.03657,1.88148 c 0.80159,5.41995 2.74869,10.59717 4.46093,15.7678 m -12.60536,-19.59736 c 1.68769,7.09869 3.17441,14.22744 5.44196,21.16249 m -12.3688,-12.93641 c -4.91603,1.07263 -3.61177,15.36001 2.0176,14.53568 6.2938,-0.92163 2.69832,-11.91791 -0.40723,-14.15273 -1.81815,-1.30838 -5.50972,1.78723 -1.81398,2.73065 m -15.90014,1.08226 c 7.59436,-17.03096 17.52453,13.41849 4.14625,10.27322 m -2.35078,-15.28495 c -1.75123,0.69921 5.84541,24.46445 5.60855,24.55915 -1.1748,0.46967 -2.62154,-0.40578 -3.14671,-0.64936 m -10.88392,-22.06161 c 2.03578,-8.4308 -21.050544,11.96731 -7.718694,12.5876 9.338424,0.43449 4.038004,-23.05362 8.755264,-4.31242 0.50298,1.99829 0.61083,3.94173 0.61083,5.9941 M 82.223056,272.20837 c 1.35873,2.02214 1.97384,4.39589 2.88757,6.62681 3.54183,8.64763 -0.94546,-0.43392 0.9255,-4.02937 4.44204,-8.53632 9.03237,-2.35478 8.4591,4.77863 -0.16324,2.03124 -1.32347,3.79701 -0.99954,5.67774 m -15.40037,-14.25263 c -5.99418,-3.67238 -10.45797,10.34311 -5.59004,13.05381 4.99749,2.78285 5.59004,-14.94546 5.59004,-13.05381 0,4.15937 2.47445,8.31463 4.33135,12.37115 m -14.68921,-21.57497 c 1.02426,0.76825 1.61171,1.84251 2.25823,2.9138 m -7.75572,6.01074 c 2.67988,4.30639 3.84338,8.72388 4.18328,13.70317 m -13.58639,-23.95973 c -1.0958,9.6804 6.29453,17.14471 7.51509,26.25747 m -6.33044,-15.6013 c -7.94842,-6.45522 -11.07694,20.00222 -2.9431,10.90592 2.10906,-2.35862 2.63766,-4.86929 2.72098,-7.94217 m -25.578794,-3.35959 c 0.117562,4.19776 1.074334,8.34079 2.350779,12.3212 1.738436,5.42106 -1.309304,-4.09792 -0.573813,-6.69341 0.509507,-1.798 2.474201,-3.21482 4.016683,-4.11261 7.331595,-4.26732 7.109115,9.57951 8.033365,13.73647 m -30.911799,-1.44858 c 5.629178,0.87317 10.484796,1.33141 14.622948,-3.08029 m -8.625688,-19.63067 c -1.529994,8.30927 5.896304,15.64348 5.553017,23.26042 M 9.469902,259.92802 c 4.316763,3.05172 9.298925,2.32436 13.919566,2.49754 m -1.524019,-21.61471 c -1.602245,1.76882 -4.199589,1.98242 -6.645111,1.63172 -1.454153,-0.20852 -2.53635,-0.83251 -4.053703,-0.83251 -0.570201,0 -0.927307,1.4303 -1.351234,1.04897 -3.053894,-2.74706 0.990396,-16.90563 3.054159,-19.33096 1.921683,8.03925 0.696176,23.48087 8.070387,29.22122 m 4.164763,-22.21146 c 0.802271,-6.64318 5.856939,-1.58829 6.515542,2.38099 0.648362,3.90756 -0.726046,18.07593 -7.940816,16.25066 -2.938638,-0.74345 -0.192276,-6.24258 2.757998,-5.91085 4.01473,0.45142 7.203296,4.30137 11.402202,4.76198 m 1.38825,-14.81874 c 0.12094,-2.00453 0.87524,-4.44198 3.07267,-5.04503 9.57481,-2.62763 5.26383,22.68226 0.0926,20.26338 -6.56389,-3.07028 4.60724,-10.35051 12.56833,1.94808 m 5.34644,-26.37559 c -13.70295,17.58495 8.43582,19.86151 8.12592,24.04299 -0.18706,2.5239 -9.8596,1.43257 -10.36564,-1.98138 -1.09278,-7.37237 12.70913,-16.1007 -0.96252,-21.7286 m 35.27088,-0.0441 c -0.0211,-0.19767 1.851,8.19465 1.851,8.14198 0,-4.20846 -4.87001,-10.93031 -8.38505,-5.77764 -4.20323,6.16148 3.74879,32.58292 12.49429,18.26534 m -8.6442,-4.47892 c 8.60402,-2.96934 7.61474,3.55871 11.272634,9.84031 m 3.20224,-18.36524 c -2.38091,4.54231 1.00782,22.13339 7.81124,13.43676 1.21595,-1.55432 2.10107,-4.24235 1.59187,-6.2272 -0.96065,-3.74453 -8.04469,-8.88586 -5.05325,-1.84818 m 8.98581,-3.97512 c -3.06892,1.69195 -4.57406,13.27821 0.38871,13.75312 6.12141,0.58578 5.52564,-11.70266 1.62888,-12.70415 -1.58186,-0.40656 -1.46399,2.43541 0.0555,3.01369 m 13.12014,-5.75 c -1.52329,-1.02024 -3.16334,-0.94208 -4.81261,-0.24975 -3.39918,1.4269 -1.58188,7.28273 0.1851,9.3741 1.8447,2.18337 6.20398,1.52078 7.68167,4.17922 1.54554,2.78049 -9.40138,0.63349 -10.03245,0.34965 m 9.92139,-7.39271 c 1.92379,-1.91437 7.56251,-2.37645 8.42208,-5.21154 0.93583,-3.0866 -16.79879,1.14467 -4.10924,13.32021 5.12821,4.92049 8.53218,-7.52629 8.9959,-10.25656 m 12.92969,-4.60646 c 1.01562,-1.57301 1.56605,-3.44097 2.72098,-4.92848 1.40294,-1.80694 3.5253,-3.79121 5.81216,-2.66405 8.64981,4.26341 -0.86907,17.83772 -3.1467,12.92061 -1.2384,-2.67349 6.64289,-0.221 7.44103,0.48286 2.75499,2.42959 4.51923,5.80645 6.77469,8.60819 M 163.96955,223.0869 c 0.0892,8.28325 4.5282,15.36037 6.34895,23.26042 m 14.01864,-13.97146 c -5.90837,15.87746 9.29779,15.92513 7.0153,3.86286 -0.5659,-2.99066 -5.10469,-3.5005 -5.3494,-0.0666 m 13.47532,-6.85991 c -1.36553,0.59706 1.82416,7.76653 2.77652,6.90986 0.4276,-0.38464 -0.10598,-1.96341 -0.31468,-2.33103 -5.15977,-9.08931 -9.64695,5.20185 -3.16523,10.65617 4.44554,3.74088 9.22049,-0.88301 11.29115,-5.11163 m 7.53147,-12.28361 c 4.37373,2.50385 -10.53196,13.09626 -9.86586,10.93923 1.38389,-4.48141 17.12663,5.98154 18.63963,7.95882 m -18.63963,-20.89608 c 1.15698,7.23237 3.44607,14.16516 7.03382,20.42988 m 49.53293,-9.05775 c -1.34764,-0.15441 -2.08613,0.44777 -3.20225,1.01567 m -17.69561,-10.37312 c 4.02767,-1.32304 8.79756,-0.0832 13.08661,-0.0832 m -8.32953,-1.09892 c -2.02158,7.70995 4.32519,13.7698 5.16431,21.12919 m -12.82748,-22.64436 c -2.49521,-0.50083 -0.98469,10.8357 -0.79593,9.02444 0.45216,-4.33835 -4.19011,-10.52661 -6.51553,-3.92946 -3.96323,11.24353 6.13118,21.30743 15.28931,10.97253 m -32.68105,-46.54426 c 2.00491,8.16654 4.04982,16.36916 6.66361,24.34269 m -9.23652,-15.2017 c 3.67657,0.95813 7.34031,0.62778 11.0505,0.34966 m -15.25228,-10.98918 c -0.78054,-0.49001 -2.2307,0.17717 -2.42482,0.21646 m 2.79501,7.30946 c -0.21618,5.50615 1.09816,11.81592 3.59096,16.30061 m -13.54937,-19.51411 c 0.64023,6.5667 2.99193,13.17195 5.66408,19.18111 m -4.53497,-12.83736 c -0.90643,-2.0012 -2.81262,-3.20664 -4.8126,-1.84818 -10.46613,7.10895 -0.97351,20.72851 3.60946,7.27617 0.61796,-1.81391 1.14744,-3.49842 1.20314,-5.42799 z m -22.52673,2.83055 c 0.005,-1.52949 8.0745,-3.59832 7.84827,-4.41232 -0.63408,-2.28146 -5.05699,0.81844 -5.46047,1.99803 -2.66102,7.77938 3.82508,16.21704 10.05096,7.59252 m -21.82699,-9.14099 c -0.007,1.90097 0.40366,3.77525 0.79594,5.62778 0.53938,2.54725 1.6467,4.56099 2.9431,6.77666 0.17894,0.30583 0.79857,0.96572 0.44424,0.96572 -4.1466,0 0.57264,-13.07325 4.7941,-14.41913 m -17.16961,-8.11538 c 0.51005,-2.45043 1.78838,13.60573 2.57288,11.48868 1.33794,-3.61047 -7.32052,-13.1259 -8.01485,-8.44168 -0.81201,5.47823 -1.02772,19.24771 7.40403,19.24771 2.42648,0 3.7996,-1.48425 4.72007,-3.52986 m -37.03692,-17.94112 c 0.024,2.98369 -0.25318,5.9473 0.37021,8.89124 0.30679,1.44884 0.81141,2.84463 1.18464,4.27912 0.57956,2.22748 1.34679,4.55106 2.2027,6.69341 4.27164,10.69202 -4.77904,-8.44169 3.66499,-8.44169 6.55318,0 2.01428,17.09072 7.55211,13.76978 m -23.39672,-15.3016 c 2.61398,-9.82239 -5.84022,1.46749 -0.64785,7.85893 0.64417,0.79293 6.67619,1.55359 6.60809,1.68167 -1.67529,3.15092 -6.02785,1.18015 -6.97829,4.42897 m -11.80942,-13.90297 c -2.63147,-10.61901 -12.447564,9.73736 -4.70156,13.47007 4.17216,2.01051 8.33668,-14.39094 5.49749,-15.6679 -0.50962,-0.22921 0.59699,0.95048 0.81444,1.46522 1.25991,2.98241 2.35357,6.32548 2.9431,9.5073 0.2831,1.52796 0.60862,3.11885 0.83295,4.61213 m -20.929994,-24.8489 c -0.003,-0.49016 3.94843,14.54917 3.97966,14.35253 0.56992,-3.58864 -7.49006,-16.66335 -10.10649,-10.07341 -2.88496,7.26625 6.73773,25.90707 14.641454,16.56701 m -39.980474,-7.71577 c 2.40919,-0.0115 5.18004,-0.88766 6.84872,-2.76394 1.25272,-1.40856 -0.57944,-5.80937 -2.53587,-4.36237 -4.33864,3.2089 -0.57579,15.69759 2.81353,18.54839 4.65705,3.91712 7.07817,-4.58958 7.31147,-7.49262 m -21.3051,-11.55533 c 2.38087,-0.33564 -4.9565,14.83556 -6.77468,11.15568 -0.70874,-1.43443 6.01421,-0.33511 7.20041,1.26542 2.46737,3.32918 4.75745,5.89361 8.99589,6.6268 m -16.82564,-24.87549 c -5.76951,-3.41564 6.51341,23.48545 7.64465,26.05766 m -14.76661,-14.61431 c -7.026708,-13.813 -15.346481,12.84221 -3.60946,12.08809 4.86055,-0.3123 4.46808,-7.83671 4.609,-11.00583 0.068,-1.53032 0.22176,-6.10835 -0.0185,-4.59547 -0.37437,2.35731 1.57706,24.95416 7.45956,13.37016 M 20.970774,190.0408 c 0.671238,9.26187 5.162476,19.52946 7.681674,27.6561 M 16.75048,204.80959 c 4.300457,0.49502 8.512199,1.34564 12.901512,1.13222 m -15.659511,-4.12927 c -0.692478,-2.4103 -1.477595,-4.76634 -2.554388,-7.02641 -3.959319,-8.31018 -7.834825,0.96114 -3.720522,7.37607 0.986976,1.53887 11.469176,9.0796 9.791822,10.75607 -2.207964,2.2068 -10.125769,-0.71572 -12.457271,-0.49951" />
  </g>
</svg>
