<?xml version="1.0" encoding="UTF-8" standalone="no"?>
<!-- Created with Inkscape (http://www.inkscape.org/) -->

<svg
   version="1.1"
   id="svg23259"
   width="4698.6665"
   height="2048"
   viewBox="0 0 4698.6665 2048"
   sodipodi:docname="FrankN - Stake - Envelope97.svg"
   inkscape:version="1.2.1 (9c6d41e410, 2022-07-14)"
   xmlns:inkscape="http://www.inkscape.org/namespaces/inkscape"
   xmlns:sodipodi="http://sodipodi.sourceforge.net/DTD/sodipodi-0.dtd"
   xmlns="http://www.w3.org/2000/svg"
   xmlns:svg="http://www.w3.org/2000/svg">
  <defs
     id="defs23263" />
  <sodipodi:namedview
     id="namedview23261"
     pagecolor="#ffffff"
     bordercolor="#000000"
     borderopacity="0.25"
     inkscape:showpageshadow="2"
     inkscape:pageopacity="0.0"
     inkscape:pagecheckerboard="0"
     inkscape:deskcolor="#d1d1d1"
     showgrid="false"
     inkscape:zoom="0.18126517"
     inkscape:cx="1975.0071"
     inkscape:cy="819.24178"
     inkscape:window-width="1920"
     inkscape:window-height="1051"
     inkscape:window-x="-9"
     inkscape:window-y="-9"
     inkscape:window-maximized="1"
     inkscape:current-layer="g23265" />
  <g
     inkscape:groupmode="layer"
     inkscape:label="Image"
     id="g23265">
    <path
       id="path23714"
       style="fill:none;stroke:#584a57;stroke-width:1.20048"
       d="m 507.08158,427.63942 c 0.53001,3.95255 -4.04074,21.1891 2.31038,22.56023 5.98722,1.29254 10.10003,-11.52392 6.65277,-16.17526 -2.64886,-3.57409 -8.80909,-4.63606 -12.65141,-6.34741 m -8.54563,-0.56339 c 1.95548,8.63676 2.91427,17.67365 5.65069,26.12829 m -3.45165,-25.27696 c 0.26348,4.39971 -12.11256,17.26123 -3.99445,17.37713 3.56105,0.0508 7.6514,-0.46986 11.0091,-1.6025 m -27.41107,-17.35996 c -0.10637,-0.90814 -0.37578,7.58114 -0.37578,6.83568 0,-2.69303 3.57369,-9.89369 5.6646,-4.18153 1.85653,5.07185 3.45898,16.9929 -3.92487,18.39121 -1.07422,0.20342 -2.71471,0.29651 -3.47948,-0.56338 -0.59208,-0.66576 -0.36592,-1.57071 0.0278,-2.22848 2.85614,-4.77133 11.5704,1.81174 14.15454,3.70578 m -33.36934,-20.94416 c 2.8295,-1.28593 6.12158,-0.60894 9.08843,-0.15024 m -9.72865,1.0266 c -0.0428,1.40491 0.0302,2.79757 0.18094,4.19404 0.14422,1.33616 0.38652,2.66746 0.66806,3.98122 3.18757,14.87409 4.35772,-1.79608 9.81215,4.9327 3.6813,4.54137 -0.99562,9.32539 -6.33267,8.12519 -2.74645,-0.61762 -4.53802,-3.27579 -7.27908,-4.14397 m -16.91031,-16.43816 c -2.51915,0.74618 14.22099,0.026 11.63542,-0.63851 -4.08158,-1.04899 1.25147,21.5376 1.76757,23.54927 m -48.56882,-19.10678 c 3.6123,5.93573 8.93839,17.67455 15.94997,19.45537 m -3.20113,-17.10169 c -0.22129,-0.71533 -1.46821,-4.75723 -3.00627,-3.50548 -0.12568,0.10229 -3.10352,21.85096 -3.84135,24.77619 m -15.67161,-26.90451 c -2.55033,2.96213 5.81838,23.35655 5.35841,23.86225 -0.62842,0.69089 -2.90574,-1.00647 -3.49341,-1.23944 m -9.01883,-20.79495 c 4.24888,-4.1836 8.73403,-0.28961 13.27772,-0.23787 m -30.09925,19.80655 c 0.6953,2.11073 0.34935,4.3278 0.70981,6.49764 m -11.34314,-16.52579 c 1.19132,-1.04597 1.7887,-3.78696 0.43147,-5.00782 -1.90144,-1.7104 -5.70641,8.34416 -4.73211,10.49138 1.38879,3.06066 9.39432,4.05513 9.86783,5.97181 0.17154,0.69433 -1.43867,0.0776 -2.12944,0.26291 -1.58122,0.42421 -2.3396,1.27592 -2.64441,2.76683 m -12.27564,-14.84819 c -3.78729,-9.43328 -15.54638,11.7679 -5.72027,14.05946 3.98536,0.92942 4.56039,-8.62639 4.66251,-10.89201 0.056,-1.24243 -0.014,-2.47626 -0.014,-3.71831 0,-0.35164 -0.0835,-1.40328 -0.0835,-1.05164 0,2.81185 4.00659,21.78587 6.37441,12.66978 m -22.8532,-19.36773 c 2.73432,8.92559 3.71797,18.35299 7.19558,27.06725 m -16.26556,-26.23128 c 1.72168,7.88186 1.42087,17.10456 5.38624,24.32548 m -15.15867,-15.57833 c -2.45585,-8.7981 -12.78516,10.10004 -6.48576,12.24411 4.29175,1.46075 7.35771,-4.57416 7.52961,-7.93739 0.10818,-2.11663 -0.96803,-3.98732 -0.50106,-5.5086 0.0882,-0.28742 -0.11987,-1.1877 -0.15309,-0.88888 -0.0947,0.85226 3.00412,22.02641 6.80588,14.04693 m -37.2166,-15.48668 c 12.78611,-6.23973 20.17819,6.26344 15.07315,17.55241 -0.89453,1.97809 -5.96173,6.91691 -5.31666,1.85289 m -6.77804,-24.35051 c 1.73485,9.18325 3.8648,18.13738 6.88938,26.97961 m -8.96999,-70.29685 c 1.67354,8.3276 4.67023,16.49411 6.01256,24.88885 m 2.68616,-20.8826 c 16.92291,-10.68211 6.45168,15.93947 3.9527,12.66978 -2.45403,-3.21085 6.73883,-10.80598 10.64722,0.85133 2.39237,7.13556 -10.38963,10.66293 -7.20949,5.94679 m 10.88383,-23.3114 c 0.47115,7.1119 1.78706,13.9583 4.41199,20.56962 m 4.18931,-18.30358 c -0.39205,2.95414 -2.58092,22.59663 5.13571,20.46945 11.24702,-3.10036 -0.98817,-21.52945 -2.54698,-16.7887 m 13.04111,-1.64007 c -0.019,7.82869 2.57617,15.24197 4.37024,22.77305 m 16.58626,-27.98205 c 6.18729,-14.36452 23.57854,12.4945 4.85738,12.4945 m -0.82116,-15.19873 c -0.0719,8.57526 2.22168,16.76398 4.43982,24.95145 m 9.22759,-16.7261 c 0.19309,2.14215 0.44255,4.27948 0.89075,6.38496 0.81233,3.81588 2.9753,6.78195 4.10579,10.34114 0.1124,0.35384 -0.4849,-0.57096 -0.65413,-0.9014 -0.93465,-1.82502 -1.50467,-3.87957 -1.61448,-5.93427 -0.23456,-4.38863 1.43007,-7.31191 5.8177,-8.35053 m 1.90676,3.59311 c 2.41092,-2.60598 6.38014,-0.16609 9.06058,-1.2144 0.8975,-0.351 0.76052,-1.23397 0.86291,-2.07824 0.88556,-7.30204 -10.60056,-1.38301 -8.29509,6.5352 1.47708,5.07312 8.70059,10.69965 10.80032,2.76681 m 5.58699,-10.90632 c -0.70335,-7.02397 -4.33747,3.54429 -2.36606,7.38653 0.81276,1.58404 6.91523,4.06002 6.77804,5.17057 -0.16184,1.31034 -4.96644,6.16493 -5.9012,7.7496 m 5.48778,-18.22625 c 4.08424,-0.71841 11.9185,-4.18712 15.40716,-0.7637 m -10.6333,-10.70422 c 1.16837,8.68093 4.13075,16.8131 6.5971,25.15177 m 9.52765,-18.6216 c -5.17717,-0.95512 -6.96059,15.32423 -1.89284,15.96242 2.04815,0.25793 4.8006,-1.10845 5.78986,-2.92958 5.1948,-9.56305 -5.26276,-15.8194 -4.52333,-8.56337 m 10.7495,-5.17419 c -0.13144,5.83281 3.38706,10.68462 4.87128,16.02503 0.38601,1.38888 -1.29629,-2.60352 -1.6284,-4.00625 -0.54033,-2.28234 -1.05492,-10.05013 2.21296,-10.9546 4.41264,-1.22132 6.24381,12.39476 6.44401,15.03596 m 14.5397,-17.26689 c 0.57509,-1.22889 1.04487,-2.51707 1.79541,-3.65571 7.58189,-11.50256 17.19968,7.13845 6.84762,10.6917 -1.25074,0.42929 -3.41553,0.51261 -4.56508,-0.26292 -4.87709,-3.2903 15.66801,0.81333 16.95206,8.68857 m -18.85882,-24.38807 c -1.44572,8.69604 5.76202,17.14565 5.76202,25.27696 m 12.3836,-21.86788 c 1.75547,-2.40535 4.99286,-2.16413 7.5992,-1.64006 18.12333,3.64406 4.42237,26.34303 -1.02992,20.29418 m -5.45584,-23.26132 c 1.39066,8.64626 6.00961,16.31008 8.65697,24.52579 m 182.09044,-32.92406 c 2.42232,0.66144 4.82698,-0.006 7.11206,-0.87636 0.71071,-0.27069 1.72547,-1.76611 2.01812,-1.06417 0.1031,0.24733 0.14712,20.81828 -0.12527,23.02345 m -19.4712,-22.07196 c -0.24699,-1.7464 0.29228,7.04703 0.29228,5.28325 0,-10.89685 9.70556,0.31748 6.15173,8.80124 -4.02941,9.619 -12.75072,7.82021 -9.15802,4.03129 3.68478,-3.88602 15.46284,9.20509 15.46284,-1.21439 m -29.03447,-13.57095 c -0.98915,2.15079 -1.79238,4.36177 -2.35213,6.66039 -3.37605,13.86384 14.99034,12.07868 10.52196,-2.39123 -0.91004,-2.94703 -3.08494,-3.0712 -5.72027,-2.61658 m -19.97225,-3.60563 c 5.28199,0.72808 10.29352,2.1818 15.71337,1.99061 m -16.55508,-0.19361 c 1.06247,3.1056 0.43381,6.54702 1.22478,9.6776 1.80858,7.15819 12.51424,-8.70676 11.46839,7.28639 -0.26525,4.05611 -11.07199,5.59908 -12.48439,-0.60095 m -4.80076,-4.89011 c -2.06308,0.87049 -4.26607,1.38971 -6.45792,1.7277 M 595.2621,378.2417 c -3.18452,3.69368 5.02625,28.78737 10.21577,12.78245 0.86324,-2.66232 1.81631,-5.45835 1.41963,-8.31298 -0.42899,-3.08709 -7.09001,-6.85481 -8.08633,-3.68075 m -13.95971,-2.19092 c 1.56258,6.74366 4.64355,13.00826 6.87548,19.51798 m -17.11348,-16.4343 c 2.11135,6.19486 5.95593,11.66073 7.19559,18.12831 M 540.5145,377.93257 c 4.78016,-0.60443 9.57933,-1.19593 14.39116,-0.41314 m -12.45656,10.1909 c 3.69015,-0.36948 9.2382,0.58723 11.76066,-2.40374 m -12.58183,-7.94991 c -4.77967,10.44656 7.09951,15.06431 8.33685,20.40685 0.0734,0.31699 -6.90012,4.23759 -4.66251,5.02034 4.97215,1.73934 10.17632,-4.46401 14.59993,-5.28324 m -34.89229,-17.48981 c 3.626,1.44484 7.16655,-1.26413 10.67506,-0.80125 m -5.24707,-0.23787 c 0.82467,8.06995 3.88466,15.77514 6.84763,23.28634 m -15.1288,-25.0516 c -0.19396,2.80375 3.17171,10.16354 3.17328,10.14083 0.29644,-4.26634 -7.8984,-11.50751 -9.63121,-5.03286 -3.11739,11.6481 24.88847,18.84103 1.54489,17.85288 m 12.73102,-57.90975 c 1.26988,8.1836 4.31733,15.81027 7.27909,23.38651 m -5.21924,-15.17368 c -11.20621,-0.0776 -7.41763,28.74972 1.67015,8.31297 m -23.75792,-3.84349 c 2.28797,0.13916 4.52088,-0.10391 6.76411,-0.52583 8.73057,-1.64207 -2.94943,-6.25845 -4.43982,2.67919 -1.25188,7.50731 5.45016,9.90113 10.71682,5.78403 m -20.71075,-20.36529 c -1.03705,8.7247 1.60073,16.55114 5.27491,24.26288 m -7.79405,-10.35367 c 3.25343,0.59191 6.96203,-0.13101 9.86783,-1.69014 m -15.86646,-4.19404 c -0.78336,5.24613 1.71187,9.47812 4.07795,13.88418 m -9.68689,-27.09231 c -0.006,1.45774 -0.53153,2.40978 -1.22477,3.58059 m -15.14274,12.92018 c -0.24414,1.83422 0.34833,3.58466 0.79334,5.33332 0.42722,1.67881 1.02056,3.45305 1.85108,4.98277 3.76858,6.9413 -1.45143,-2.48412 -0.52888,-7.08606 0.64519,-3.21834 5.05169,-9.12519 6.86154,-3.63065 0.25086,0.76158 3.40867,9.75187 2.12945,10.0657 -3.09883,0.76023 -4.27662,-22.19915 4.18931,-7.74959 0.89793,1.53257 1.74313,3.13778 2.18511,4.87009 0.40621,1.59207 0.77583,3.20255 1.15518,4.795 m -30.5372,-21.89786 c -1.31472,-0.29003 -2.59598,-0.66511 -3.93877,-0.81377 m 9.25543,9.42721 c -0.57589,5.81678 3.11102,10.55005 4.87128,15.73708 m -23.0342,-25.97807 c -1.8016,7.82296 4.62835,13.92252 5.49758,21.18307 0.2431,2.03049 -0.30771,2.72411 -1.4057,4.23161 -0.17677,0.24269 -0.94621,0.73103 -0.68199,0.58841 3.03522,-1.63815 7.49378,0.50177 10.6194,-0.86384 m -45.65675,-8.08195 c 0.0443,-7.03933 -4.65188,-0.25659 -4.10579,3.74334 0.48716,3.56833 6.63286,4.47971 7.43218,7.78715 0.78055,3.22978 -8.97136,1.41974 -10.86991,-0.45069 m -11.59365,-6.99843 c 1.54729,-2.00239 4.64112,-1.01613 6.37442,-2.64163 3.03373,-2.84504 -3.3577,-6.51686 -4.60685,-2.50391 -2.12742,6.83458 4.95472,17.83697 11.32921,9.70265 m -17.43919,-13.93425 c 4.10942,2.23321 -3.04889,14.75775 -6.29091,12.34427 -4.67383,-3.47937 6.99206,1.25008 8.85182,2.6291 1.43955,1.06742 2.76903,2.56094 4.32848,3.3302 m -13.19421,-24.2128 c -3.59569,8.1753 2.97695,17.3787 5.44191,25.13925 m -15.94302,-14.44653 c -5.90383,-4.01738 -12.44387,10.31474 -6.86155,13.38339 4.64471,2.55325 6.48842,-3.71922 6.93114,-6.93582 0.23908,-1.73699 0.42676,-3.86929 0.0696,-5.59624 -0.0283,-0.13689 -0.32304,-1.38505 -0.13918,-0.85133 0.4095,1.18879 4.43075,17.80238 7.97498,10.6291 m -26.63914,-21.96755 c 0.11938,9.44427 2.77189,18.69681 6.87547,27.07977 m -10.50806,-10.35365 c 3.96427,-0.13552 7.89631,1.7865 11.76066,0.92643 m -16.38806,-2.96404 c -0.2676,-0.98233 -1.4919,-7.14442 -3.43773,-5.88419 -4.10212,2.65678 0.67437,10.27309 2.07377,13.0704 1.19248,2.38369 4.38574,4.39027 4.21713,4.44445 -2.06052,0.66196 -4.47203,0.66796 -6.56926,0.63849 M 329.31183,360.3902 c 0.45202,-2.10194 2.21514,-3.39946 4.21714,-3.99374 8.2008,-2.43435 7.79673,17.1604 -1.5588,16.22534 m -1.14127,-12.64476 c 0.28802,3.00332 0.003,6.08839 0.9325,9.01409 1.5772,4.96555 5.56717,9.27021 5.56717,14.73551 0,3.8877 -2.36471,2.31771 -4.20321,0.11266 M 314.54826,363.6 c 2.63627,0.53156 4.93697,0.11679 7.126,-1.41471 0.73563,-0.51468 4.21779,-4.13488 2.35214,-5.05791 -0.73877,-0.36549 -2.17453,0.52618 -2.82535,0.80126 -8.42176,3.55961 2.76773,25.61547 8.57345,12.90765 m -22.44414,-6.52797 c 1.35372,-1.1556 2.88393,-2.08966 4.38416,-3.04224 6.90568,-4.38482 -2.47525,-4.73563 -3.38207,-2.65414 -1.34184,3.07998 -0.51551,13.49413 3.50732,15.42407 2.37929,1.14145 4.8607,-0.0344 7.12599,-0.71361 m -30.74475,-13.57119 c 1.73183,4.4549 1.48459,10.99906 4.8852,14.72298 2.81823,3.08618 1.64232,-13.96258 1.64232,-11.76837 0,10.54264 15.86973,20.79028 9.17194,3.09234 -0.81454,-2.1523 -1.80405,-4.32297 -2.79752,-6.3975 m -20.11143,-4.49451 c -1.11347,-1.74258 -2.00868,-3.6403 -3.17329,-5.35837 -3.15756,-4.6581 -6.57354,-1.02443 -5.06613,3.51799 1.33792,4.03173 3.1815,8.38136 6.1378,11.53051 2.2351,2.38088 5.96994,4.53551 7.126,7.72455 1.68034,4.63529 -17.0799,1.23728 -10.85601,-0.38811 m 19.23205,-101.12524 c -3.98228,-7.10663 -15.3124,5.73947 -10.6194,9.55241 4.63939,3.76939 7.46661,-2.09831 8.35077,-5.79655 0.3644,-1.52422 0.25053,-6.262 0.25053,-4.69483 0,8.50149 4.02148,16.62158 5.78986,24.82626 m -24.05021,-11.06728 c 4.17575,11.35174 12.18094,-4.51754 4.24498,-7.41157 -1.69924,-0.61966 -5.96808,3.53296 -4.96872,4.43192 1.10137,0.9907 4.87422,-7.91331 2.89494,-10.34115 -1.28185,-1.57233 -7.10822,-1.29378 -5.9708,0.88889 m -11.72233,0.47354 c 5.65703,-14.33011 8.75605,21.49521 1.08561,17.0391 -3.30757,-1.9215 0.94942,-5.75954 3.66042,-4.84506 2.84381,0.95928 2.84107,6.51541 5.31664,6.30985 M 242.872,271.66614 c -0.64867,1.62452 -1.21127,3.27393 -1.64232,4.97026 -0.58251,2.29246 -1.42225,5.57426 -0.76548,7.93739 3.25224,11.7019 14.9858,-0.85111 11.45447,-4.74491 -3.47777,-3.83474 -3.66547,4.98714 -2.9506,6.71048 m -16.89638,-18.60404 c 2.27658,7.63715 1.80392,16.22932 4.8156,23.62438 m -8.05849,-21.25819 c 0.66808,4.62281 -9.15923,14.14708 -0.91859,14.14708 3.18039,0 8.02333,0.11229 10.95343,-1.0266 m -33.78,-13.2982 c 1.24781,7.30875 4.62551,14.05975 6.12391,21.27071 m -19.66606,-17.51484 c 6.61218,2.73106 10.9009,17.43927 18.88666,16.77619 m -17.80106,-17.70264 c 1.28455,6.10501 2.51054,12.4884 5.14963,18.20342 m -21.64239,-20.35678 c 4.50327,1.89344 8.11748,1.50278 12.6514,1.07668 m -13.01327,18.39121 c 4.52073,2.59524 9.09407,-1.20715 13.54215,0.10016 m -9.25543,-19.21751 c -0.013,6.99367 3.62358,12.86549 3.53516,19.94364 m -21.32966,-2.30658 c 2.28014,2.50453 3.69593,3.75725 2.51914,7.16118 m -9.28327,-16.12517 c -0.8914,-0.19472 -2.0195,-0.80048 -2.92276,-0.30047 -1.12976,0.62538 -1.41151,2.69876 -1.60056,3.7809 -1.50439,8.61154 3.58583,3.68974 5.05222,8.40061 0.41113,1.32081 -3.18851,0.52339 -3.74394,1.7903 m -5.17747,-20.29418 c 0.55712,-1.0541 -2.08371,0.71821 -2.92277,1.42722 m -1.53098,4.25665 c 0.60472,5.22741 1.65644,12.27709 5.41408,16.21281 m -12.81843,-22.9358 c 0.35516,8.17252 2.00489,17.07139 5.95689,24.35051 M 124.22693,280.174 c -0.27492,2.13097 -1.71542,16.48291 2.04594,16.7136 6.38549,0.39163 5.57069,-13.06439 3.42381,-16.26289 -1.75469,-2.61421 -10.37506,4.38019 -2.39388,5.17057 m -16.36751,0.78873 c 0.89656,-2.5107 2.41369,-5.8445 5.51151,-6.07198 10.10758,-0.74221 4.07543,19.15775 -0.55672,12.90765 m -1.61448,-14.61031 c -2.81762,8.95367 2.03617,17.23516 4.38415,24.2754 m -16.54844,-22.34739 c -4.861293,0.42511 -12.365033,14.60733 -5.288823,16.67604 5.263643,1.5388 5.794473,-8.8002 5.901213,-11.68074 0.0965,-2.60504 -0.63571,-5.19458 -0.61239,-4.9953 0.70256,6.00373 2.32632,11.37937 4.96871,16.75115 M 83.428627,281.12666 c -0.44298,1.43013 3.29928,14.08449 4.00837,14.08449 1.30455,0 -0.68894,-2.53986 -0.73765,-3.8435 -0.0891,-2.38354 0.30813,-9.79637 3.73001,-10.3787 5.20749,-0.88622 4.0902,11.28085 3.99445,13.82157 m -19.51776,-12.9789 c -9.31313,-4.73061 -8.48961,16.38895 -1.41963,12.11892 2.50967,-1.51576 2.58122,-4.82212 2.70008,-7.36149 0.0774,-1.65438 0.0418,-3.31404 0.0418,-4.97026 0,-0.42658 0.0133,0.85623 0.0835,1.27699 0.22275,1.33577 0.60769,2.66459 0.96034,3.9687 0.91191,3.37229 2.23583,7.98078 4.16147,10.57901 m -11.7309,-24.2528 c -0.94493,-0.76123 -2.03312,-1.11679 -3.14545,-1.51487 m -5.66461,7.14866 c 0.24797,5.52043 3.14098,10.38448 4.06404,15.74959 m -14.55821,-23.27383 c 1.10904,8.06319 3.84539,15.671 6.30483,23.36147 m -4.14755,-15.01094 c -1.78551,-1.10758 -3.35215,0.14497 -4.80169,1.22692 -8.25768,6.16365 -0.93553,21.86163 4.05012,14.15961 1.38476,-2.13922 2.00524,-4.83737 2.67225,-7.26134 m -28.49622,-7.83298 c -0.031,2.18332 0.7982,4.23324 1.4753,6.27229 0.72285,2.17684 1.59733,4.29415 2.33822,6.46009 2.04135,5.96781 -1.13411,-3.85854 -0.87684,-6.1471 0.23421,-2.08337 6.74173,-8.36079 8.51779,-5.02034 2.07751,3.90745 1.73181,9.51312 3.18721,13.65883 M 7.5389363,268.17461 c 4.8420007,0.0389 9.6660507,-1.61793 13.1385407,2.5665 M 9.5431173,291.28569 c 4.8383497,-0.009 10.5199697,4.20542 14.9061197,0.60093 m -11.17611,-24.05004 c -4.0399297,9.17934 4.8834,16.93285 5.12181,25.18932 m -6.53034,-63.17401 c 3.28408,9.24481 3.01887,19.25852 4.39807,28.73235 m -5.51151,-31.18618 c 0.91823,5.08005 0.25052,10.5959 -2.3660497,15.09857 -0.714898,1.23022 -3.81752,3.84448 -2.43564,3.50547 5.3640497,-1.31593 9.5914897,-1.19208 14.8504497,0.82629 m 3.10182,-14.6955 c -0.69746,1.15237 0.15362,9.5836 -1.26654,9.90296 -1.05997,0.23837 -0.26542,-5.34368 3.00628,-4.79498 3.08047,0.51662 3.52397,4.23156 3.66042,6.73551 0.10699,1.9634 -1.56966,18.1602 -6.91722,13.48355 -4.75057,-4.15455 5.59863,-9.1851 12.24779,-0.0376 m 2.66249,-22.10565 c 9.18936,-3.78903 8.87751,12.00117 6.33266,17.15178 -0.26655,0.53949 -3.11948,5.51646 -4.17538,3.73082 -3.6949,-6.24846 7.20896,-7.50645 10.98126,3.25508 m 7.4988,-26.54119 c -3.86176,-3.28349 -4.50942,5.64686 -4.50942,7.99999 0,8.68438 11.95855,12.29088 11.705,15.71203 -0.13301,1.79457 -8.2199,-0.23846 -8.64305,-2.55399 -0.74807,-4.09352 11.48755,-18.12854 5.26099,-18.30357 -1.69953,-0.0478 -3.17281,-0.33433 -4.70427,0.46322 m 34.30139,3.6783 c -0.53255,-2.21617 -1.4878,-3.51757 -3.7996,-2.52895 -11.33287,4.84643 -4.21223,20.42331 1.64232,17.86539 2.13522,-0.9329 4.28185,-2.1332 6.29091,-3.21752 m -7.47394,-2.44131 c 17.368853,0.51054 6.70861,-2.66024 12.122533,10.94208 m 4.88792,-18.2535 c -1.27033,2.49814 -1.181,17.95788 4.43983,16.1377 9.36378,-3.03227 -3.30506,-19.06251 -1.7815,-10.07824 m 9.14409,-4.84506 c -1.35644,2.07984 -2.48858,14.34404 1.85109,14.51015 5.09523,0.19504 7.82159,-11.34416 4.27281,-14.14708 -2.01528,-1.59172 -4.66306,-0.36085 -3.42382,2.10328 m 11.15065,-1.29235 c 0.20596,-0.22251 1.09144,-2.4665 0.40362,-2.67918 -3.58456,-1.10839 -3.84762,5.65895 -2.93668,7.46165 1.05897,2.09566 7.45866,2.95732 7.12599,5.47104 -0.24588,1.85781 -7.8984,2.08886 -7.71055,-0.85133 m 6.22088,-5.20026 c 1.89369,-2.8982 9.85367,-3.91798 11.07868,-7.22378 0.22656,-0.61139 -5.69703,-0.26572 -6.40225,0.26292 -3.29501,2.46995 -2.22474,7.63892 -0.94642,10.87948 2.92242,7.40841 9.37143,1.38043 9.4642,-4.54459 m 14.04766,-10.35264 c 1.53023,-1.46179 4.02386,-1.34425 6.04039,-1.36463 10.28187,-0.10392 1.92975,16.57853 -4.20322,14.78558 -3.34818,-0.97882 0.69801,-4.94555 3.42381,-3.95618 4.63445,1.68215 6.00167,7.18944 10.59156,9.35211 m -15.435,-23.09856 c 0.0873,7.93386 2.01298,15.82672 4.38416,23.37398 m 12.65526,-12.92985 c -5.10628,12.84116 10.50929,18.90804 9.45029,5.09546 -0.23985,-3.12847 -5.22518,-9.43838 -7.12598,-4.11893 m 13.65196,-5.3101 c 0.80377,1.98904 -0.0563,7.25311 2.714,8.15022 0.74458,0.24112 -1.42916,-6.02724 -5.05222,-4.97026 -3.69752,1.07871 -2.0441,9.00491 -0.37578,11.0172 3.15375,3.80399 7.21298,-0.65728 8.85182,-3.60563 m 9.89838,-13.59016 c 2.17036,-0.0519 -4.71943,18.50167 -7.27909,13.8967 -1.55159,-2.79138 2.48232,-4.45804 4.53725,-3.79342 4.56041,1.47494 7.52762,10.02279 9.10233,13.99685 m -15.88037,-25.06413 c -0.95838,7.44278 5.4216,13.57762 6.20741,20.46945 m 45.53609,-4.81537 c -0.79016,0.70791 -1.43675,1.53047 -2.19903,2.26603 m -12.17821,-17.62752 c 1.54987,7.10855 3.14885,15.00926 6.01256,21.74645 M 233.90127,239.8018 c 3.10318,-0.98343 6.34141,-0.92931 9.53379,-0.45071 m -13.19422,-3.88105 c -0.69183,1.22755 1.6952,10.80562 2.08769,10.62909 1.85583,-0.83468 -0.96534,-6.69118 -2.19903,-7.2989 -6.97002,-3.43341 -5.418,12.74475 -2.03201,15.6244 4.21475,3.58448 9.99911,0.15268 10.3132,-4.9327 m -22.00398,-46.18681 c -3.15296,8.98588 2.79196,16.23908 5.26099,24.18776 m -11.21786,-13.44599 c 4.25832,-1.08551 10.03612,0.25208 13.737,1.56495 M 200.0392,198.58526 c 1.26058,-0.37469 2.58349,-0.33899 3.88311,-0.38811 m 3.78569,10.99216 c -0.28309,5.68083 1.75702,10.87229 3.29856,16.18777 M 198.98145,203.8685 c 0.25322,7.55998 0.33482,16.51283 6.12389,22.14708 m -2.19904,-12.54459 c -4.44169,-7.40366 -11.52818,4.17866 -10.66114,9.46478 1.02807,6.26796 8.02143,1.76588 9.11626,-1.87793 m -21.0857,-3.53051 c 1.27985,-0.66993 2.70978,-0.89546 4.05013,-1.40219 1.65641,-0.62623 4.06946,-0.43215 5.48367,-1.6025 3.41316,-2.82461 -9.57537,-5.44483 -8.23942,3.76838 0.67322,4.64282 6.27981,10.68081 9.4642,4.8701 m -20.13589,-12.13041 c -0.0228,1.84028 0.53199,3.60409 0.97425,5.37089 0.5362,2.14211 1.1165,4.23228 2.12944,6.20969 3.38474,6.60755 -1.26118,-3.06536 -1.07168,-6.24725 0.26409,-4.43435 3.40376,-6.80322 4.32848,-1.32707 M 163.66082,200.2528 c -0.30117,-1.00383 2.75074,9.51278 2.50523,8.18778 -1.0435,-5.63195 -9.29866,-11.66029 -9.81215,-2.79186 -0.36991,6.38873 8.21197,29.58396 13.54216,14.42252 m -38.13754,-20.44701 c 0.0811,3.01665 0.6064,5.9917 1.23869,8.93896 0.41209,1.92082 0.94497,3.80624 1.51706,5.68387 6.39698,20.99521 -4.08474,-6.15725 5.24707,-5.10797 0.70034,0.0787 4.65606,15.60251 5.40016,17.16429 m -19.1502,-19.0212 c -0.18642,-0.85642 0.41275,-3.3337 -0.98817,-3.36775 -3.83097,-0.0931 -3.65246,9.56185 -2.5609,11.79341 0.5287,1.08086 7.44664,4.98709 6.2074,6.54772 -1.17424,1.47876 -6.28851,-1.15602 -8.10024,-0.23787 m -7.15437,-10.83381 c -4.42382,-9.85598 -8.7895,1.73925 -6.63886,8.18778 0.3487,1.04554 0.99625,2.91409 2.26863,3.10485 9.69255,1.45311 1.4264,-23.54047 6.15173,-8.66353 0.41033,1.29186 0.82615,2.58557 1.22478,3.88106 0.56451,1.83463 1.63064,4.76941 2.08769,6.03442 M 97.200607,195.6972 c 1.16437,2.84669 1.27918,6.1578 2.5609,8.95148 0.11396,0.24839 0.403623,0.98689 0.403623,0.71361 0,-13.50138 -9.359953,-11.22014 -9.032743,3.05477 0.22238,9.70182 10.664983,23.36502 13.138543,8.97651 m -39.616373,-6.9303 c 2.12281,-1.09741 4.22887,-2.24298 5.27491,-4.49451 0.73826,-1.58907 -1.42517,-4.14489 -2.92277,-2.7543 -3.65773,3.39635 -0.9418,13.52573 2.0181,16.48824 5.8584,5.86355 8.33714,-2.30464 8.39252,-7.2363 m -17.23042,-13.52111 c -0.18812,1.18138 -4.8281,15.82189 -7.25125,13.52111 -1.76342,-1.67437 4.25997,-1.23445 5.23315,-0.60094 3.59046,2.33729 6.22215,8.07049 7.48786,10.59154 m -15.33758,-27.81843 c 1.84532,8.94311 3.49231,17.87986 6.88938,26.37868 m -16.34843,-19.43112 c -8.6921,-1.44235 -11.3531,18.12718 -2.22687,17.01406 5.60626,-0.68379 4.10679,-7.81843 3.21505,-11.48042 -0.29829,-1.22491 -0.91042,-2.87511 -1.55881,-3.96869 -0.17082,-0.2881 -0.55115,-1.22106 -0.41754,-0.91393 0.2059,0.47333 7.71488,25.76659 9.4642,15.32392 m -27.39052,-25.10169 c 0.3114,7.54465 0.89416,21.85516 7.30692,27.0923 m -12.24779,-13.49607 c 4.91493,-0.54625 9.83064,0.81486 14.66952,-0.43818 M 9.1827773,190.26846 c 0.59185,1.18355 1.0503197,2.43371 1.6283997,3.61815 0.74025,1.51671 1.62949,3.00294 2.25471,4.56964 2.43949,6.11293 -0.87762,-3.25766 -2.714,-4.78247 -5.1968147,-4.31508 -2.4261587,6.80232 -1.3500397,8.70108 1.5440097,2.72434 3.0825997,5.58223 5.0104597,8.05007 0.93255,1.19376 4.14532,3.70579 2.63049,3.70579 -3.1612,0 -6.05875,1.97808 -9.4224467,1.97808 -2.467222,0 -0.567881,-2.4254 0.473211,-2.90453" />
  </g>
</svg>
