<?xml version="1.0" encoding="UTF-8" standalone="no"?>
<!-- Created with Inkscape (http://www.inkscape.org/) -->

<svg
   version="1.1"
   id="svg15553"
   width="5370.6665"
   height="2042.6667"
   viewBox="0 0 5370.6665 2042.6667"
   sodipodi:docname="FrankN - Stake - Envelope81.svg"
   inkscape:version="1.2.1 (9c6d41e410, 2022-07-14)"
   xmlns:inkscape="http://www.inkscape.org/namespaces/inkscape"
   xmlns:sodipodi="http://sodipodi.sourceforge.net/DTD/sodipodi-0.dtd"
   xmlns="http://www.w3.org/2000/svg"
   xmlns:svg="http://www.w3.org/2000/svg">
  <defs
     id="defs15557" />
  <sodipodi:namedview
     id="namedview15555"
     pagecolor="#ffffff"
     bordercolor="#000000"
     borderopacity="0.25"
     inkscape:showpageshadow="2"
     inkscape:pageopacity="0.0"
     inkscape:pagecheckerboard="0"
     inkscape:deskcolor="#d1d1d1"
     showgrid="false"
     inkscape:zoom="0.11264896"
     inkscape:cx="2112.7581"
     inkscape:cy="545.94379"
     inkscape:window-width="1920"
     inkscape:window-height="1051"
     inkscape:window-x="-9"
     inkscape:window-y="-9"
     inkscape:window-maximized="1"
     inkscape:current-layer="g15559" />
  <g
     inkscape:groupmode="layer"
     inkscape:label="Image"
     id="g15559">
    <path
       id="path16042"
       style="fill:none;stroke:#584a57;stroke-width:1.0458"
       d="m 508.77502,406.1932 c -0.63784,2.83741 -1.00069,5.72612 -1.2416,8.62461 -0.21181,2.54828 -1.0705,6.97265 0.49664,9.2699 1.74437,2.55706 4.83301,0.76036 6.63569,-0.5212 5.85732,-4.16405 1.51693,-9.88673 -2.01416,-14.18406 -1.64681,-2.00419 -4.89606,-4.48814 -7.46343,-4.11996 m -8.48431,-3.76009 c 2.06667,8.77265 4.40172,17.50437 6.22183,26.34539 m -2.84189,-23.39193 c -5.97812,12.95948 -14.61473,18.5843 5.26992,14.51913 m -25.63227,-16.21923 c 0.0693,2.29235 0.48285,4.57253 0.48285,6.87487 0,0.23834 -0.6354,-5.23005 2.8005,-5.54705 2.80223,-0.25854 6.34956,5.11949 5.71139,7.60703 -2.87724,11.21534 -13.90425,10.38684 -8.73263,5.60909 2.07488,-1.91684 11.53651,10.29748 12.05738,6.08066 m -35.92242,-2.59154 c 2.89472,2.37137 11.80981,6.59369 14.26467,1.58841 0.76963,-1.5692 -1.70737,-9.79203 -3.39372,-10.22543 -2.0628,-0.53016 -4.79114,7.09308 -6.47014,3.37539 -1.50529,-3.33304 -1.44487,-7.27933 -2.30388,-10.78388 3.54303,-1.39399 7.18638,-1.41592 10.89854,-1.46431 m -26.90146,11.46639 c 3.4229,0.24373 6.90418,0.0173 10.34672,-0.062 m -12.20913,-9.46846 c 2.87536,0.0655 6.73836,0.24719 9.13271,0.68252 -1.90013,6.42254 1.28166,16.57056 4.24905,22.65977 m -45.8203,-19.97742 c 0.7704,8.78863 -1.79954,17.34789 -4.16628,24.99275 m -4.33183,-21.74146 c 2.17937,6.1665 7.48136,12.12211 12.95409,15.58634 m -33.15088,-14.86659 c 4.70268,-1.90896 11.67005,-3.11478 16.69271,-1.73733 m -10.34672,-1.57601 c -0.36311,7.58854 4.07414,13.55508 6.60809,20.30196 m -35.80291,3.00398 c 1.5991,1.66393 2.56343,3.79893 3.82138,5.72078 m -10.19497,-15.56153 c 0.27548,-0.66964 1.24958,-2.70526 -0.13795,-2.97828 -3.67991,-0.7241 -4.10427,8.11685 -3.28336,10.07652 0.86328,2.06085 5.58617,3.91666 5.84934,5.10031 0.10772,0.4845 -1.31527,0.41761 -1.5727,0.52121 -0.96593,0.38871 -1.29071,1.23475 -1.69686,2.12201 m -13.91006,-12.41033 c 2.89013,-10.27046 -14.24986,12.57733 -3.39373,12.96795 4.15924,0.14965 5.92945,-5.97067 6.22184,-9.17063 0.162,-1.7731 0.32469,-3.67486 -0.0276,-5.43537 -0.10991,-0.54919 -0.42259,-2.15397 -0.51044,-1.60084 -0.8418,5.30051 2.59464,12.83285 4.95263,15.92142 m -23.52154,-21.75388 c 3.60975,5.02208 1.18684,18.76625 6.60811,22.26266 m -14.07154,-20.91002 c 1.6458,7.08553 2.02382,15.21619 5.84935,21.48086 M 303.17505,425.4052 c -4.38198,-3.63653 -12.44235,9.13923 -6.95298,11.25543 4.17809,1.6107 6.09828,-5.76704 6.56671,-8.38882 0.25564,-1.43085 0.38627,-5.79682 0.38627,-4.34334 0,4.98925 0.78069,12.6052 5.35271,15.72285 m -35.45475,-17.99379 c 16.30614,-8.09442 18.00016,12.72958 10.22255,20.82317 m -9.40861,-24.02483 c 3.81926,7.5898 6.1516,17.40199 8.44293,24.6453 m 25.32832,-58.04598 c -0.53237,4.08639 -1.69394,17.53358 6.41495,14.58117 10.83052,-3.94331 -2.79911,-21.16467 -3.09022,-14.61839 m -29.28742,-1.58363 c 15.844,-3.43396 3.51472,11.73159 2.95227,10.10134 -1.32015,-3.82641 4.36364,-5.17533 6.27701,-2.27093 6.19748,9.40745 -0.92224,14.6642 0.0966,9.54291 m -15.75464,-19.40848 c 0.91523,7.76715 2.18669,16.51367 5.13198,23.8635 m 15.97533,-21.08376 c 1.6954,6.28807 2.93272,12.711 5.31131,18.81281 m 22.11439,-20.68666 c -0.70786,6.38698 2.74312,12.16395 3.55926,18.30403 m 19.05396,-22.06576 c 8.55236,-16.45211 16.32063,5.6515 5.3803,9.97726 m -2.97985,-14.55636 c -0.26476,5.88355 1.36766,11.53751 3.95933,16.76524 0.18339,0.36991 2.31907,4.56621 2.04176,4.66599 -1.26287,0.4544 -2.92385,-1.48733 -3.58687,-2.25854 m 8.48432,-10.94518 c 0.39287,1.7064 0.67946,3.41352 1.29678,5.06308 0.76081,2.03293 1.91501,3.95222 3.39374,5.53463 0.37162,0.39769 1.63911,1.43196 1.21401,1.09204 -3.69905,-2.95766 -2.48588,-16.9095 2.20729,-13.31541 m 1.21402,4.5543 c 1.64168,-0.89275 3.34098,-1.68019 5.0354,-2.4695 10.53205,-4.90609 0.81784,-6.88114 -1.28299,0.63289 -0.30574,1.09356 -0.91188,3.23602 -0.37248,4.36816 2.02112,4.24209 9.34202,8.91515 10.45708,1.14166 m 7.01755,-11.99218 c -1.07158,0.42675 -2.22946,-0.68521 -3.1592,0.17372 -2.50718,2.31622 -1.51542,9.06244 1.03467,11.00725 0.45366,0.34597 4.35432,1.58001 4.27664,2.20888 -0.10192,0.82516 -2.45674,1.1805 -3.03503,1.51397 -1.52803,0.88108 -1.69575,2.41452 -2.66255,3.62357 m 8.90116,-13.01398 c 4.89027,-1.90903 10.23284,-0.21178 15.20277,-0.27302 m -10.0708,-12.57083 c -1.16732,8.2016 3.35878,15.9563 6.59431,22.4488 m 6.16664,-15.18924 c -2.28607,3.06747 -4.82834,12.14037 0.51045,13.79937 1.82856,0.56822 4.09723,-0.0266 5.31131,-1.4519 5.16068,-6.05843 -6.42536,-12.59423 -3.53169,-7.32162 m 8.33143,-4.64857 c -0.0584,1.55971 0.27417,3.07883 0.70358,4.56669 0.74098,2.56736 1.98943,4.73611 3.10401,7.11065 1.88779,4.02185 -0.62122,-2.35508 -0.46905,-4.24404 0.70591,-8.76276 4.29285,-9.28801 7.32548,-0.83145 0.48404,1.34975 0.86249,2.69529 1.22781,4.08273 0.4179,1.58717 0.99454,3.13354 1.50373,4.69081 m 19.87786,-19.73753 c 0.45824,-1.46564 1.44024,-2.4939 2.56599,-3.48706 12.6672,-11.17536 6.24111,15.81912 0.22073,10.94518 -2.36603,-1.91546 4.09265,-3.23477 5.43547,-2.63082 3.2971,1.48291 7.35047,7.07463 8.78782,9.95244 m -16.0944,-19.6673 c 1.49334,6.83601 2.79014,13.91876 5.62862,20.30196 M 474.051,370.62545 c 13.78093,-5.32012 16.78368,8.15413 8.78781,17.58427 m -7.17888,-19.11805 c 1.35492,6.42018 4.70438,13.19767 7.22891,18.87486 M 671.13023,349.2699 c 1.80563,0.86464 5.5679,-0.36438 6.91161,1.32781 1.88343,2.37186 1.69764,18.45258 0.67598,21.71665 m -17.54803,-22.63495 c -0.0731,-2.20876 0.20693,8.83664 0.20693,6.62668 0,-11.16235 9.89221,-2.21023 4.11111,8.19027 -0.56198,1.01103 -3.98066,4.75032 -5.43548,3.21406 -2.91712,-3.08037 12.96097,0.24505 13.42314,0.32265 M 646.65528,352.6097 c -1.03403,1.48668 -1.70852,3.13528 -2.12453,4.88935 -0.27685,1.16737 -0.46537,2.44812 -0.52424,3.64839 -0.57577,11.7398 14.23279,7.73104 7.35308,-5.46018 -1.08422,-2.07889 -2.48041,-2.29302 -4.51117,-1.27818 m -18.66548,-1.11686 c 4.85043,-2.90934 11.15937,0.50393 16.403,1.31541 m -16.76169,-3.67322 c 0.0254,2.8893 0.67467,5.74167 1.25541,8.56257 1.83177,8.89771 11.97082,-7.59273 11.3262,6.1303 -0.36157,7.69752 -11.83627,7.31087 -14.33365,0.96794 m -4.69135,0.56803 c -2.35324,-0.0728 -4.71369,-0.18061 -7.06334,-0.34747 m -15.75461,-9.02172 c -0.37767,1.97064 -0.56504,3.9651 -0.80015,5.95657 -3.1798,26.93461 21.40028,-2.08549 1.87621,-5.78283 m -12.96789,0.0248 c 2.52684,5.67608 4.52834,11.63877 6.91161,17.41055 m -18.33551,-17.56281 c 1.2091,6.92619 3.44192,15.338 6.45635,20.7611 m -47.26526,-18.21677 c 2.83285,1.30838 12.32127,-2.04102 12.92649,1.47674 m -11.87803,7.39607 c 3.63515,-1.12969 7.15222,-2.5348 10.77439,-3.71045 m -10.26395,-5.73319 c -1.63979,7.26813 5.5907,11.8901 7.10475,18.08065 0.38133,1.55918 -1.5048,5.53243 -0.069,4.81489 2.78073,-1.38963 6.89504,-2.71583 9.1603,-4.69079 m -31.55058,-15.36298 c 3.90596,-0.70528 7.90464,0.64127 11.79526,-0.17373 m -6.19425,-0.70734 c 1.19373,7.51651 3.47474,14.79184 5.31132,22.15098 m -16.47198,-16.5791 c -0.80051,-1.24582 -0.39993,-5.2156 -2.08314,-5.65875 -3.44866,-0.90794 -4.6404,6.80581 -3.68342,8.91003 2.27385,4.99987 8.21425,5.99854 10.58123,10.13857 1.51614,2.65183 -6.85788,4.5401 -5.0216,0.75698 m 3.72782,-48.97001 c -0.7969,6.50165 3.2834,11.9698 5.13196,17.8821 m -5.33889,-7.86763 c -9.81,-5.91569 -12.24697,13.52334 -5.24234,8.88521 1.8911,-1.25219 3.86001,-3.24727 4.56635,-5.37331 m -23.44249,-1.29316 c 2.37736,0.31943 4.71311,0.39084 7.00818,-0.35988 9.68779,-3.16888 -3.91281,-6.31166 -5.47687,3.5367 -1.3682,8.6152 9.57103,4.76652 12.82993,1.62566 m -22.07299,-16.15719 c -2.94303,3.68605 6.29086,20.68292 5.13196,22.46122 -0.39326,0.60344 -1.40882,-0.18166 -1.77962,-0.3847 m -8.48432,-10.52327 c 3.09389,-1.47036 6.31952,-1.5176 9.62935,-1.12925 M 478.717,332.22284 c -0.43768,0.66555 -0.91287,1.30462 -1.37956,1.94829 m -1.07606,9.45605 c 1.02847,4.29664 2.01635,8.94708 4.31804,12.76939 m -25.90371,-12.03378 c -0.0373,1.68964 0.22326,3.34507 0.44145,5.01344 0.20018,1.53051 0.6228,3.08782 1.14504,4.54188 2.39655,6.67257 -1.89151,-5.53698 1.89001,-6.80041 4.5822,-1.53096 5.04938,11.30327 4.24905,10.16339 -2.47991,-3.53201 1.87647,-16.39199 6.53913,-12.07446 2.6152,2.42164 1.90956,7.98781 2.89708,10.10133 m -17.83775,-26.05997 c -1.20468,0.55968 -2.41167,1.13126 -3.64204,1.61325 m -2.95227,13.4395 c -0.9001,5.82406 1.86883,10.97863 3.93176,16.15717 m -20.01303,-23.1637 c -2.3475,7.0456 4.76347,13.22459 4.92503,19.61943 0.0556,2.19997 -4.95067,1.75447 -4.387,1.92347 3.7792,1.13318 8.95882,-2.43698 13.35416,-0.98035 m -39.88678,-7.36421 c 1.83117,-7.85564 -7.00106,0.41445 -3.80758,5.85729 0.6089,1.03779 7.09119,4.50441 6.31839,5.28645 -2.22338,2.25 -7.9812,-1.17976 -10.31913,-1.45191 m -7.18752,-6.86246 c 2.30515,-0.20165 3.97454,-1.77155 5.79417,-3.01551 2.86194,-1.95654 -6.23308,-7.22926 -3.93175,5.78283 0.69896,3.95203 6.05342,9.41077 8.36015,3.27611 M 386.53943,345.4333 c 2.90203,8.48014 -8.09716,12.09566 -7.17372,9.9152 1.3988,-3.3029 11.70885,6.44218 12.73337,7.63184 m -12.74717,-21.61736 c -0.12796,7.87657 1.4669,17.16405 5.3527,23.15615 m -13.47831,-13.8118 c -4.8178,-5.33805 -12.17159,8.97869 -8.66366,12.39711 5.89069,5.74039 7.72555,-10.23641 7.72555,-13.26577 0,-0.50874 0.10843,1.01233 0.19315,1.51396 0.30026,1.77817 0.62315,3.42453 1.18642,5.13754 0.76809,2.336 4.73028,12.20219 5.54584,4.13237 m -24.39154,-17.09491 c -0.8378,6.9621 1.61679,15.58247 4.40081,21.40641 m -10.01562,-7.74354 c 4.15798,-1.95159 8.25633,-1.47431 12.62299,-1.01758 m -13.83701,-1.50154 c -3.09055,-9.83803 -8.79295,-3.53818 -6.0011,3.99586 0.56761,1.53172 12.35551,9.29895 1.39336,6.32885 m -19.94091,-7.13944 c 13.51596,-19.59617 19.88808,11.33826 3.94555,9.61736 m 1.13124,-14.80454 c -4.0412,4.61218 6.07745,19.66005 4.89745,22.23785 -0.36926,0.80668 -3.1226,0.19087 -3.90417,0.21095 M 311.2427,355.64635 c 1.3249,3.07205 12.45455,-3.48157 8.78781,-4.11996 -5.0496,-0.87915 -7.53134,5.85441 -6.2908,9.70423 2.00476,6.2215 9.06051,8.379 11.3538,1.07963 m -24.30386,-3.80128 c 1.40409,-2.4233 4.63242,-0.76169 6.71846,-2.32058 7.06595,-5.28037 -3.5199,-8.14931 -4.51117,-0.23578 -0.69659,5.56117 2.92976,15.36391 9.02235,8.27714 m -27.30154,-11.26784 c 0.5589,0.90063 4.17034,13.93072 4.95263,13.41469 1.4936,-0.98526 1.98837,-6.12392 2.15211,-7.79317 0.10787,-1.09968 0.30351,-4.40589 0.30351,-3.30093 0,14.13864 10.27601,17.00932 3.79379,-2.92865 m -17.42388,-2.48191 c -5.4461,-14.69422 -10.87256,-6.02282 -6.38736,4.23165 1.5265,3.49002 8.07752,7.41286 8.23599,11.11892 0.0592,1.38552 -14.03071,2.94657 -8.56709,-0.78179 m 38.72894,-95.5756 c 2.69773,-9.50867 -14.03503,2.83333 -8.88439,9.48086 2.35345,3.03743 7.14828,-2.94636 7.91869,-4.85212 1.01289,-2.50558 0.89522,-5.7295 1.17263,-5.64632 0.33958,0.10182 0.94893,8.13465 1.13123,9.46845 0.57579,4.21248 3.51585,12.79731 2.8557,15.13962 m -26.29446,-26.19649 c 8.55083,-2.24822 10.87856,7.38558 4.23526,12.04964 -0.59324,0.4165 -1.81277,1.84309 -2.62117,1.67528 -1.83725,-0.38138 2.79646,-4.67472 4.58014,-4.60393 2.89148,0.11475 4.36751,3.25461 4.78709,5.7456 0.96466,5.72708 -5.39867,9.30588 -9.04994,4.11997 M 275.9128,264.98976 c -0.32982,1.87237 -0.44146,3.80571 -0.44146,5.70838 0,0.52315 1.1574,-6.16921 4.59395,-5.03826 3.95808,1.30258 3.34723,7.14034 2.62117,10.18821 -0.32124,1.34845 -3.66609,14.94897 -6.71847,9.9152 -3.47133,-5.72467 8.14176,-1.06859 9.94664,1.10445 m -23.27321,-21.61738 c 0.028,2.28836 -0.55252,4.55271 -0.9657,6.80041 -0.3275,1.78167 -0.56074,3.60949 -0.75876,5.41055 -1.95832,17.81135 12.78791,1.53005 8.22219,-0.67011 -3.21706,-1.55027 -3.24631,7.29834 -1.32437,8.79835 m -14.99319,-21.59474 c 2.9151,8.3953 4.06522,18.86861 5.75277,26.61841 m -6.04249,-27.92141 c 0.23359,5.02442 -0.84207,9.96631 -2.57977,14.65563 -0.46123,1.24466 -2.93203,2.58697 -1.94518,3.47467 0.3784,0.34038 2.46009,0.80834 3.00744,0.88107 2.38893,0.31745 4.63233,-0.28772 6.55292,-1.68769 m -32.48869,-15.2637 c 1.61556,8.11178 2.80031,16.09303 5.43548,23.96278 m -17.18846,-18.66314 c 4.32127,6.30269 7.71061,13.54791 13.18861,18.94933 m -13.96092,-21.6532 c 1.6163,7.4111 2.5675,15.05394 4.58015,22.37436 m -24.51482,-21.48088 c 5.03613,-4.39751 9.68726,-0.67349 14.62336,1.91107 m -12.40227,20.50052 c 4.6314,2.84296 9.62854,0.15602 14.47162,-0.35987 m -9.67074,-21.55534 c 0.7453,7.79069 3.10806,15.39136 4.20767,23.10653 m -22.62904,-1.06557 c 2.31618,2.15483 3.02849,4.29063 2.8419,7.38365 m -11.0503,-22.11376 c -4.14849,-3.50466 -5.18318,9.9591 -4.04211,12.19856 1.04298,2.04696 6.38217,-0.98034 7.65657,2.39504 1.14774,3.03991 -4.57324,2.42847 -6.05627,2.68046 -1.32494,0.22511 -2.58007,-0.0602 -3.87658,-0.11169 m -2.59358,-20.9969 c -0.44828,-1.35476 -0.89805,-2.70912 -1.36577,-4.05791 m -3.03503,6.29162 c 0.6876,6.38406 2.26686,13.1232 5.02161,18.85006 M 149.779,267.13826 c -0.85058,9.78907 3.63904,19.78237 6.0149,28.33092 m -16.67891,-19.2968 c 0.0188,3.22576 -4.10102,13.16623 -1.22782,16.11997 3.41247,3.50811 8.4894,-2.71481 8.70504,-5.85729 0.21588,-3.14582 -4.72618,-10.75523 -7.56,-6.17995 m -16.96517,3.05338 c 9.1836,-14.0601 18.65341,12.49177 5.73898,11.37952 m -3.14539,-16.65357 c 0.009,9.56119 5.67676,18.43312 6.69086,27.68563 m -20.4589,-24.80663 c -6.85235,-3.39834 -9.31702,15.24549 -6.05628,14.40746 4.01268,-1.03129 6.68707,-6.0608 7.5738,-9.80352 0.30702,-1.29588 0.37248,-2.71981 0.37248,-4.04551 0,-0.39307 0.0777,-1.55762 -0.0276,-1.1789 -0.9633,3.46604 2.98062,12.59994 4.19387,15.43744 M 88.888561,278.92792 c -0.76165,5.56061 3.97314,11.1571 3.97314,16.45502 0,0.22608 -0.10906,-0.4388 -0.16555,-0.6577 -0.37868,-1.46734 -0.67599,-2.92069 -0.67599,-4.4426 0,-3.44833 -0.36743,-9.73903 3.61446,-11.36713 4.700299,-1.92184 7.581269,12.71911 8.001459,15.53672 M 80.645621,279.91467 c -6.20753,-8.32213 -11.35893,11.91831 -6.35978,13.51397 5.03971,1.60861 6.76431,-6.37299 7.2565,-9.60496 0.18792,-1.234 0.2303,-2.55859 0.3035,-3.80973 0.0215,-0.36824 -0.004,-1.466 0.069,-1.10445 1.17612,5.81875 -0.11009,10.90203 4.7319,15.42503 m -17.23074,-24.93071 c -0.61176,-1.06533 -1.86709,-1.30052 -2.88328,-1.81179 m -3.32475,9.10858 c -0.12635,6.05675 3.1661,11.1119 5.07679,16.49225 m -14.04394,-23.14375 c -0.0439,8.57475 2.74491,16.39956 5.54584,24.27302 m -6.81504,-12.22338 c -2.29414,-9.98067 -14.6478,11.82535 -4.02832,12.22338 2.76922,0.10379 4.48864,-2.88557 5.6838,-5.00104 0.82704,-1.46389 1.47737,-2.88906 1.68306,-4.55429 m -29.74596,-2.01418 c 0.44292,1.33312 0.73889,2.71989 1.20022,4.04551 0.63977,1.83838 1.32797,3.66068 1.97278,5.49741 2.25622,6.42684 -0.94062,-2.26805 -0.20694,-5.0879 0.52983,-2.03634 1.86677,-3.73127 3.4627,-5.06309 4.75205,-3.96558 5.05965,5.65135 5.73898,8.64944 0.43254,1.90893 0.78953,3.85413 1.29679,5.72079 M 6.3536111,269.77227 c 4.6312599,3.49189 9.7528999,0.59875 14.3060699,0.6453 m -9.58796,28.20683 c 4.10768,-0.7483 8.71886,-1.48554 12.82993,-0.47157 m -10.82959,-27.22647 c 0.51748,9.19871 3.70186,17.38136 6.73227,25.88625 m -6.30779,-65.98691 c 1.8691,10.39074 4.58142,20.43138 8.40153,30.16752 m -7.32547,-32.09099 c -0.68334,2.94183 -1.5845,5.86175 -2.66256,8.68665 -1.19048,3.11947 -2.1400299,6.23162 -3.6006599,9.2575 -0.64796,1.34234 -1.33912,5.55607 -1.73825,4.11996 -0.2096,-0.7542 1.32164,-2.06905 1.89,-2.18408 4.8017099,-0.97183 8.8519599,-0.0196 11.3537999,-5.31127 m 6.9826,-8.44526 c 0.0359,-0.75599 0.16554,7.52974 0.16554,6.94933 0,-1.51484 -0.54299,-6.09159 -0.16554,-6.94933 1.26775,-2.88094 4.8719,0.41423 5.62861,1.8242 2.60921,4.86175 1.47263,10.41137 0.0414,15.40021 -0.38878,1.35514 -2.99685,6.84402 -4.82847,4.45501 -2.82571,-3.6856 6.82837,-9.92581 12.37467,-0.29783 m 3.30692,-23.09191 c -0.43454,1.8489 3.49879,8.41841 1.94519,9.81592 -0.94878,0.85344 -0.99853,-8.95153 0.38627,-8.66184 3.55512,0.7437 4.42824,8.03439 4.96643,10.697 0.22477,1.11204 -1.11748,13.0284 -3.97314,10.13857 -3.30877,-3.34836 2.41136,-3.21727 4.29044,-2.09721 2.71338,1.61737 4.61066,4.29734 6.78744,6.00621 m 7.02605,-24.74292 c -3.1255,-4.18301 -3.03224,4.82027 -3.00745,6.62668 0.17711,12.90458 10.87612,9.00626 10.12599,13.0548 -0.47079,2.5409 -6.3439,1.82959 -6.9254,-0.70734 -1.43157,-6.2455 7.41937,-12.96753 6.05627,-19.09824 -0.0901,-0.40518 -4.25959,-1.11691 -4.81467,-1.62564 m 35.163029,14.07035 c 10.48574,-0.47345 9.11873,3.07996 11.93321,12.59565 m -9.73971,-27.73525 c -0.10632,-0.19277 3.13116,10.13697 3.04883,9.84073 -0.29755,-1.07063 -1.0513,-2.24457 -1.46233,-3.28852 -0.96742,-2.45707 -1.55423,-6.18385 -4.89745,-5.41054 -10.131869,2.34356 -1.537619,31.609 8.87059,18.10547 m 8.04873,-10.72424 c -2.0601,0.76483 -1.76584,4.03246 -1.76584,5.90693 0,5.80214 6.53138,14.49204 7.97387,4.51706 0.65043,-4.49773 -4.30682,-14.44944 -5.17336,-6.16753 m 10.81577,-7.47052 c -2.1982,1.03649 -2.68623,4.2743 -2.88328,6.50258 -0.54955,6.21445 5.76533,15.5423 8.38774,5.27404 1.39275,-5.45344 -3.84796,-16.78705 -4.53876,-7.5698 m 15.08981,-4.86414 c -1.32205,-1.38205 -2.42791,-0.50616 -3.76621,0.43434 -1.64579,1.15658 -2.85569,3.07828 -2.85569,5.1003 0,4.28496 10.37923,8.57643 6.44256,9.44364 -2.27502,0.50117 -4.75077,0.34062 -6.98059,0.6453 m 8.85678,-9.36918 c 2.15512,-0.30787 4.32724,-0.65935 6.44256,-1.19132 14.2352,-3.57987 -10.89525,-9.5011 -2.38664,6.89969 5.56609,10.72895 14.02816,-0.96355 15.20277,-8.06618 m 20.3832,-7.20095 c 2.62568,-11.47626 13.29434,-0.36654 8.09803,6.93691 -1.06468,1.49642 -5.84713,3.61851 -6.9392,1.303 -0.93102,-1.97408 6.7855,0.56383 7.65657,1.26577 2.36851,1.9086 3.45026,4.88426 5.03541,7.37125 M 187.8698,227.42743 c -0.19214,8.12909 1.17538,16.22781 4.23525,23.76422 m 10.64334,-17.25781 c -0.0831,1.46393 -0.32089,2.91707 -0.41386,4.38056 -0.0937,1.47485 -0.23842,3.08839 0.0138,4.55429 2.7892,16.21168 12.20956,-9.6425 2.62117,-5.82006 m 11.29857,-4.59151 c -0.13684,-0.91364 1.88483,8.43225 1.94519,7.78076 0.5566,-6.00807 -8.5182,-8.72674 -5.60103,3.84694 1.38086,5.95181 11.15229,11.29744 11.27102,1.89866 m 8.24645,-13.25476 c 2.09272,-0.64031 -6.26198,15.46828 -7.09096,11.44157 -0.1527,-0.74175 0.38323,-1.20051 1.02089,-1.43951 5.89783,-2.21052 10.87445,4.72567 14.25088,7.91727 m -15.3545,-21.4064 c -0.74749,8.16363 3.27272,16.08248 5.86313,23.6277 m 22.40851,-24.15453 c 2.10456,2.84379 1.32403,6.48811 1.87621,9.76629 0.42655,2.53241 0.26863,-9.74033 -3.66964,-7.20993 -4.83818,3.10862 -2.66424,14.40932 0.81394,17.68355 4.29958,4.04747 7.77826,-4.98819 8.07044,-7.78076 m -3.84897,-9.55532 c 4.07686,0.92741 9.00853,0.56164 12.5678,-1.41468 m -6.71847,0.86866 c -0.0923,6.96405 2.68288,13.42934 5.46307,19.68148 m 8.67745,-6.34126 c -1.17679,1.27176 -2.84961,1.56228 -4.31804,2.35781 m -32.57317,-53.68088 c -0.51376,8.68404 1.78728,16.91732 4.18008,25.11685 m -9.67073,-15.08996 c 3.65363,0.2154 7.3188,0.18673 10.91234,1.02999 m -15.18899,-10.70941 c -0.92972,0.13325 -1.32554,-0.4298 -1.95897,-0.96794 m 3.26956,7.75594 c 0.76996,5.33934 2.67634,10.42541 2.67634,15.85936 m -10.01561,-22.34953 c -0.0456,7.45697 0.57504,14.92554 3.26956,21.9276 m -2.60738,-10.77145 c -6.99903,-9.27283 -16.42246,13.09203 -6.23561,13.09203 2.48261,0 4.02002,-3.90488 4.7043,-5.83247 0.60023,-1.6908 0.96554,-3.53332 1.29679,-5.27404 m -25.1581,0.87429 c 12.91401,1.98281 8.50847,-9.03571 4.11109,-3.10238 -1.23395,1.66494 -1.4162,3.67721 -0.84153,5.65874 0.72725,2.50768 1.90698,10.90462 5.78037,7.59462 1.51388,-1.29369 2.96079,-2.81372 3.55927,-4.74043 m -22.58344,-13.88625 c 0.0394,2.40821 -0.2523,4.81309 -0.0828,7.22234 0.21333,3.03177 1.38441,5.61024 3.03505,8.11582 0.13576,0.20609 2.00281,2.44756 1.90379,2.58118 -0.19493,0.26301 -1.85772,-3.62372 -1.93139,-3.98346 -1.06191,-5.18544 -1.30983,-9.73989 4.40081,-10.21302 m -14.8192,-0.66028 c -0.42656,-2.27285 -0.81401,-4.58674 -1.5865,-6.77559 -1.84206,-5.2195 -5.30519,0.17034 -5.6838,3.06515 -1.09315,8.35824 8.66259,29.40762 10.88475,11.96277 m -40.55743,-13.21027 c 0.20777,5.41796 1.26673,10.86926 2.81431,16.05791 0.35888,1.20327 1.29678,4.79236 1.29678,3.53671 0,-4.4028 -1.59616,-9.25332 3.26956,-12.04963 0.98005,-0.56323 1.81264,-0.59359 2.63497,0.23578 3.12559,3.15234 3.07135,12.63579 3.68343,14.58117 m -19.92088,-13.15408 c -0.0611,-1.25975 -0.52648,-2.37899 -1.76584,-2.81696 -3.60771,-1.27491 -3.89411,9.16341 -2.92468,11.03206 1.09098,2.10289 10.37201,1.61441 8.30497,6.36608 -1.31636,3.02603 -9.65707,2.46688 -9.29824,-1.67529 M 121.8819,205.3593 c -7.5946,-10.5609 -11.86459,16.74086 -4.30423,15.71044 7.73714,-1.05451 3.08141,-26.46263 8.47051,-7.88004 0.29415,1.01426 0.59232,2.04241 0.9381,3.04033 0.51794,1.49475 1.2384,3.9746 1.57271,5.01344 m -20.11103,-15.94825 c -0.50402,-1.33285 -1.04561,-2.64956 -1.5451,-3.98346 -7.263289,-19.39635 -12.069989,14.64086 0,16.36815 2.27635,0.32576 4.5562,-0.41223 6.01489,-2.17167 m -46.122789,-7.08277 c 21.3822,-9.94575 -3.32776,-12.95708 5.76657,6.67631 3.62225,7.81994 10.29921,3.30007 9.90526,-4.08273 m -22.88694,-13.97311 c 2.17411,-2.99185 -6.89133,18.32725 -7.10475,14.29576 -0.51868,-9.79793 17.29132,5.56751 18.21022,6.37849 m -19.40704,-25.4537 c -0.6541,9.38291 3.73265,21.28184 7.28408,28.80248 m -16.58788,-14.11578 c -4.68301,-18.56624 -16.8655,12.0925 -6.09767,11.72699 3.71328,-0.12604 5.61073,-5.91966 5.65621,-8.94726 0.0234,-1.55996 -1.21421,-5.80785 -0.13796,-4.67838 2.39767,2.51622 2.10135,14.06972 7.2565,13.78697 m -28.0465,-24.6577 c 1.56478,9.08939 4.45621,18.26344 6.91161,26.73009 m -10.19497,-13.91107 c 4.92921,-2.41448 9.93488,1.17564 14.73373,-1.79938 M 8.9477611,190.22517 c 1.3688499,2.86894 1.7916699,7.70472 4.3042299,9.96484 1.01823,0.91592 -3.7227799,-9.23442 -6.4563499,-6.88728 -0.95923,0.82363 -1.02657,2.73386 -1.18642,3.88418 -1.23922,8.91764 14.7769199,15.43566 12.0159899,19.92968 -2.20433,3.58799 -15.9651599,1.81975 -11.0502999,-4.28129" />
  </g>
</svg>
