<?xml version="1.0" encoding="UTF-8" standalone="no"?>
<!-- Created with Inkscape (http://www.inkscape.org/) -->

<svg
   width="3000"
   height="1998.207"
   viewBox="0 0 793.74998 528.69227"
   version="1.1"
   id="svg5"
   xml:space="preserve"
   inkscape:version="1.2.1 (9c6d41e410, 2022-07-14)"
   sodipodi:docname="FrankN - Stake - Envelope41.svg"
   xmlns:inkscape="http://www.inkscape.org/namespaces/inkscape"
   xmlns:sodipodi="http://sodipodi.sourceforge.net/DTD/sodipodi-0.dtd"
   xmlns="http://www.w3.org/2000/svg"
   xmlns:svg="http://www.w3.org/2000/svg"><sodipodi:namedview
     id="namedview7"
     pagecolor="#ffffff"
     bordercolor="#000000"
     borderopacity="0.25"
     inkscape:showpageshadow="2"
     inkscape:pageopacity="0.0"
     inkscape:pagecheckerboard="0"
     inkscape:deskcolor="#d1d1d1"
     inkscape:document-units="px"
     showgrid="false"
     inkscape:zoom="1.8101934"
     inkscape:cx="454.92378"
     inkscape:cy="235.05776"
     inkscape:window-width="1366"
     inkscape:window-height="706"
     inkscape:window-x="-8"
     inkscape:window-y="-8"
     inkscape:window-maximized="1"
     inkscape:current-layer="layer1" /><defs
     id="defs2" /><g
     inkscape:label="Layer 1"
     inkscape:groupmode="layer"
     id="layer1"><path
       style="fill:none;stroke:#4d3a43;stroke-width:0.063089"
       d="m 41.535201,2.2491543 c -0.0906,0.5497612 0.770128,1.6476658 0.167865,1.0390258 -0.993686,-1.0524868 -1.952041,-1.0405297 -2.295743,0.06383 -0.0778,0.2609987 -0.190158,0.8508979 -0.135064,1.149452 0.195547,1.0597596 0.379163,2.5441936 1.558206,3.0971504 0.170816,0.080096 0.376752,0.1275321 0.56096,0.1064463 0.916714,-0.1049434 1.164982,-0.5358021 1.038819,-1.223973 -0.0282,-0.1540889 -0.0416,-0.2436241 -0.0416,-0.3831543 m 11.15679,-4.1508058 0.436296,-0.06383 m 3.178746,0 c 0.113956,1.0369164 0.466687,2.0419179 0.685614,3.0013539 0.01651,0.072253 0.164169,0.6541723 0.186988,0.7663068 0.0464,0.2279139 0.116685,0.5513551 0.166226,0.7663067 0.077,0.3342949 0.166627,0.7904901 0.249311,1.1494504 0.0477,0.207222 0.159404,0.6357178 -0.22855,0.5747314 M 12.543747,2.7773066 c 0.0557,0.3737703 0.172416,0.9414798 0.238898,1.2771804 0.235999,1.1914363 0.687756,2.674839 0.976506,3.8315087 0.0364,0.145734 0.118114,0.3910729 0.207749,0.5747296 m 0.436285,-4.1508058 c 0.526759,2.6749139 -1.316189,2.5470127 -1.094341,2.4478246 1.143372,-0.5112002 2.17841,1.1406329 3.400505,2.2138459 M 5.0539326,2.3941608 c 0.0527,0.1865912 0.060402,0.3434158 0.135064,0.5108661 0.3752833,0.8418996 0.5133388,1.8009345 0.6856155,2.6820644 0.043501,0.4288897 0.1983974,0.8481759 0.2908218,1.2133083 L 6.3109083,7.3751292 C 6.4594343,7.9618993 6.6073582,8.558981 6.9237902,9.099311 L 7.1107669,9.4186092 M 49.930379,6.6088225 C 49.692909,6.7938867 49.452992,7.081814 49.307095,7.2474082 49.166961,7.4064736 48.997826,7.5547083 48.808467,7.6624949 48.56838,7.7991571 48.439794,7.8993342 48.185185,7.9391941 47.853592,7.9910927 47.296132,7.805278 47.063273,7.5667064 46.824493,7.3220615 46.760173,6.9945339 46.668548,6.6726874 46.468461,6.0086009 46.846245,5.3691817 47.011371,4.8846407 47.128865,4.5398276 47.457018,4.4028308 47.7489,4.3737758 c 0.230237,-0.022964 0.527138,0.00327 0.675203,0.1915764 0.28736,0.3650998 -0.367723,0.5411063 -0.612873,0.6492514 -0.374702,0.1652923 -0.579519,0.2633378 -1.059589,0.4682763 L 46.377658,5.8425246 M 24.208466,2.7728111 c 0.0839,0.2970092 0.83877,1.3029668 0.520778,1.0347835 -1.91259,-1.61302 -2.304484,0.6072915 -2.16103,1.9710739 0.111045,0.5908707 0.444418,2.947346 1.184235,3.2355205 0.55759,0.2011558 0.851469,-0.3750466 1.184242,-0.6173198 M 2.1868275,9.5463214 C 2.7719782,9.4702324 3.8524882,9.4651622 3.9320315,9.099311 4.0149337,8.6355715 3.5965481,8.244654 3.2464159,7.9498606 1.9654477,6.8713585 1.1820109,5.3939707 1.3869477,3.9906226 1.4178471,3.7789313 1.437649,3.6624656 1.5531548,3.5223463 1.6833782,3.364435 1.9267268,3.0549696 2.1868275,3.0327474 2.3126113,3.022042 2.3528138,2.9906547 2.4984684,3.1072824 2.9032417,3.6277676 3.055079,4.3206477 3.3087392,4.7569426 M 32.727748,3.6713494 C 32.514329,3.968097 32.54076,4.2731485 32.54076,4.6292248 c 0,0.313356 0.0555,0.5936507 0.135066,0.8940193 0.24544,0.9264335 0.706106,1.8605985 0.862182,2.7459218 M 33.160582,6.9631577 c 0.0011,-0.2836624 0.553982,-1.123298 0.751399,-1.3121926 0.213117,-0.2039196 0.458316,-0.5147728 0.747939,-0.5640649 0.178934,-0.030488 0.408824,0.035141 0.560958,0.1383205 0.665045,0.4510968 0.49863,1.5697026 0.49863,2.2776455 0,0.333788 -0.0815,0.8056351 0.186987,1.0217311 M 54.667341,4.2460717 c 0.09351,0.23415 0.186207,0.4685045 0.280472,0.7024498 0.0687,0.1704419 -0.0442,-0.091538 0.207746,0.5108665 0.258072,0.6170655 0.5448,1.1980484 0.571372,1.851901 m -0.186987,-2.6182 c 1.033039,0.1224489 1.88354,-0.1037406 2.680129,-0.1915764 0.203716,-0.022473 0.614432,-0.04013 0.747937,0.1277122 M 43.198921,4.5014961 c 0,0.1792513 -0.0556,0.4821614 0,0.6385866 0.353224,0.9942932 0.740267,2.3174472 1.246556,3.1929216 M 43.801053,6.8744631 c -0.0249,-0.1155817 0.411745,-0.6291448 0.471388,-0.7122254 0.28092,-0.3910058 1.009058,-1.0758602 1.544278,-0.8305778 M 16.023734,6.9919767 c 0.699095,-0.2714842 1.509295,-0.801402 1.786775,-1.3410293 0.0919,-0.1787119 0.0589,-0.3427203 -0.0104,-0.5108647 -0.0562,-0.1363354 -0.214478,-0.2628468 -0.342812,-0.2980322 -1.181423,-0.3825889 -0.635583,2.3704107 -0.477878,2.9162312 0.134845,0.466724 0.453377,1.4835599 1.03883,1.5751966 0.296488,0.046338 0.498746,-0.1317421 0.685613,-0.3086899 0.473619,-0.4484796 0.560952,-1.2718099 0.560952,-1.5219381 m -6.731467,0.1277122 c 0,0.3280415 -0.0823,0.5489357 -0.176577,0.7663067 C 12.25967,8.620762 12.040948,8.9071635 11.723076,8.7268233 10.360885,7.8940539 10.988527,5.2888242 9.9778703,5.0762178 9.7027605,5.0449123 9.5711773,5.1248441 9.2922653,5.2677949 9.1047182,5.3639014 9.0311757,5.4716951 8.8975421,5.6509474 8.5565489,6.1083047 8.2950089,6.7423536 8.2950089,7.3112731 c 0,0.4807883 0.024801,1.3153573 0.4986282,1.6390598 0.378395,0.2584319 0.9391045,0.2086824 1.2258149,-0.1171198 0.475757,-0.3175976 0.901102,-1.0989664 0.872112,-1.3548164 M 28.519641,7.6295824 C 28.387587,8.5418668 26.938723,9.8907989 26.100172,8.9077339 25.342935,8.019993 25.45152,6.393553 26.120873,5.6722151 26.239958,5.5438972 26.272599,5.5264476 26.380602,5.395516 c 0.466996,-0.5661823 1.391452,0.020183 1.776356,0.4470086 0.160267,0.1777318 0.154955,0.4079097 0.145415,0.5747296 -0.0596,1.0426068 0.672344,1.9173766 0.685605,2.873634 M 53.322822,5.3981137 c -0.0728,0.9062714 -1.811866,2.8571239 -2.395247,2.4559584 -0.832791,-0.5726864 -0.59412,-2.5373612 0.0623,-2.9374989 0.300413,-0.1831093 0.904724,-0.3553239 1.184244,-0.457675 0.129646,-0.047482 0.760948,-0.1451456 0.883041,-0.1652677 m -0.322092,-1.58018 c 0.0602,0.3348091 0.284092,1.1886901 0.312752,1.4596841 0.0562,0.5312745 0.267951,1.1544388 0.393625,1.66939 0.170258,0.6976525 0.23591,1.0246079 0.415535,1.6603257 M 4.4928911,6.4172542 C 5.4010238,6.2913327 6.5934882,6.5046084 7.4223283,6.2895332 M 30.0362,8.80124 c 0.126035,0.037675 1.572055,0.3669054 1.634278,0.1210173 0.303312,-1.1987583 -1.670171,-1.0806177 -1.747583,-2.3134348 -0.0411,-0.6536972 0.0897,-1.2896852 0.623282,-1.7561054 0.269192,-0.2353188 0.878241,-0.1876454 0.758349,0.095789 L 31.16946,5.2677949 m 37.288598,5.6827971 c 0.215918,0.964683 0.197637,2.563653 0.502969,3.385121 0.091,0.238384 0.202567,0.570455 0.311641,0.830155 0.215658,0.512725 0.873373,1.866485 0.291071,1.468751 l -0.56095,-0.383151 m -2.056845,-5.108677 c 0.514899,-0.136712 1.706522,-0.277158 2.181499,-0.202244 0.480428,0.07576 0.903762,0.05852 1.184244,0.202244 m -2.617797,3.895372 c -0.148346,0.192918 -0.524018,0.828625 -0.810269,1.074923 -0.936275,0.805615 -2.093196,0.289439 -2.410239,-0.564058 -0.362374,-0.975553 -0.648124,-2.844716 -0.186987,-3.576083 1.191304,-1.889425 1.477215,0.272964 1.849289,1.277171 M 55.789272,11.5898 c -0.0828,0.201343 -0.0623,0.256258 -0.0623,0.44701 0,0.211436 -0.003,0.45023 0,0.638586 0.01231,0.768472 0.377282,1.383928 0.581711,2.043471 0.125524,0.404975 0.298341,0.658878 0.425954,1.085587 0.046,0.153879 0.139486,0.295825 0.197338,0.447014 0.0885,0.231252 0.228558,0.702449 0.228558,0.702449 M 45.541408,16.294574 c 0.231108,-0.08829 0.456437,-0.10185 0.597403,-0.553974 0.123864,-0.397259 0.475405,-0.970709 0.540137,-1.404887 0.0761,-0.510678 0.013,-1.182113 -0.321991,-1.596461 -1.002976,-1.240582 -2.276312,0.602076 -2.597034,1.404892 m -17.576605,4.980963 c -0.0618,-2.007867 -0.598982,-3.183295 -3.241078,-3.129074 m 2.271621,0.500451 c 0.174937,0.977403 -0.123783,1.394697 -1.336699,1.47916 -0.172005,0.01203 -0.507248,-0.09863 -0.685605,-0.212834 -0.119943,-0.07679 -0.203997,-0.125868 -0.311641,-0.223506 -0.962014,-0.872504 -1.290856,-2.580575 -1.038827,-3.586737 0.187755,-0.7496 0.904482,-1.253567 1.724432,-0.904684 0.123845,0.05288 0.293381,0.185185 0.436305,0.266098 M 3.3399476,13.569415 c -0.2619391,1.081631 -1.2323226,2.759744 -0.8829815,3.703789 0.1859472,0.379096 1.8143668,0.274587 2.5346927,0.127727 m 11.9047182,2.10732 c 0.196985,0.588903 -0.466189,0.885401 -1.059579,1.011074 -0.678706,0.135231 -0.946716,-0.585142 -0.997257,-1.074928 -0.0677,-0.65563 0.0424,-1.343439 0.27007,-1.851894 0.174527,-0.389761 0.502058,-1.071289 0.696024,-1.468744 0.125526,-0.257225 0.326793,-0.545356 0.394725,-0.830166 0.130075,-0.545361 -0.764498,-1.597692 -1.111499,-1.511335 -3.687817,0.917745 1.201993,4.71873 1.807516,5.725993 z M 57.098191,13.18626 c 0.119866,-0.02264 0.288801,-0.138802 0.363564,-0.03196 0.58054,0.829877 -1.151162,2.495153 -1.288258,2.162108 -0.123543,-0.300144 0.678716,-0.340029 1.174015,-0.16123 0.943473,0.340592 2.457279,1.001104 2.867105,1.479415 m -56.1578914,-3.3845 c 0,0.232955 0.026099,0.374472 0.083102,0.574729 0.082304,0.289155 0.1727782,0.588967 0.2389495,0.894019 0.030401,0.139981 0.067102,0.240426 0.1038433,0.383154 0.065304,0.253514 0.1494266,0.483016 0.1973978,0.766304 0.1505463,0.889088 0.4932878,2.018025 0.747937,2.937486 0.088002,0.317866 0.1010441,0.640949 0.1869873,0.957882 M 55.643888,14.271832 c -0.0913,0.374213 -0.169615,1.266114 -0.353214,1.596468 -0.29228,0.525859 -0.799618,1.022416 -1.433552,1.085592 -0.151025,0.01505 -0.229619,0.02053 -0.373973,0 -0.197327,-0.02813 -0.413865,-0.146813 -0.560961,-0.2661 -0.284091,-0.230409 -0.441315,-0.590439 -0.509029,-0.947217 -0.0432,-0.2274 -0.008,-0.763751 0.0312,-0.957877 0.0711,-0.349498 0.225189,-0.776834 0.405135,-1.085596 0.746567,-0.900509 0.929093,-0.297214 1.256978,0.06383 m -9.787271,-1.450801 c 0.258651,0.909801 0.326062,1.830727 0.625004,2.727974 0.25801,0.774437 1.247614,1.988899 0.851831,2.47982 -0.357385,0.443293 -1.130201,-0.338392 -1.412802,-0.627921 m 6.419826,-0.255435 c -0.134697,0.202752 -0.364004,0.380846 -0.623284,0.532133 -0.212297,0.123881 -0.382322,0.263539 -0.685613,0.138382 -0.207489,-0.08563 -0.329075,-0.231948 -0.425888,-0.41508 -0.371513,-0.70271 -0.244168,-1.273646 -0.0623,-1.979611 0.0958,-0.371843 0.0834,-0.739231 0.363553,-0.936618 0.136195,-0.09591 0.321441,-0.148194 1.048578,0.07127 1.435813,0.433368 0.737445,2.058913 0.384975,2.589516 z M 6.8615482,15.485115 c 0.082102,-0.456516 0.00699,-0.59164 0.1558248,-0.957877 0.093604,-0.230202 0.5282296,-0.63941 0.8414316,-0.478934 0.1599961,0.08199 0.2645792,0.217691 0.3635642,0.415078 0.2346582,0.562283 0.1973872,1.011422 0.1973872,1.532601 0,0.412783 0.039802,0.690976 0,1.021739 -0.092105,0.766269 -0.2808015,1.488444 -0.5921227,2.235053 -0.067902,0.162974 -0.4474466,1.06298 -0.7790996,1.011074 -0.1689743,-0.0265 -0.3250499,-0.235128 -0.4051336,-0.372488 -0.1449853,-0.248662 -0.2486395,-0.681119 -0.0208,-0.936611 0.4753667,-0.532975 0.9959566,-0.39968 1.3702086,-0.167471 0.6024626,0.161836 1.8980108,1.289086 2.1097683,1.295654 m 23.560136,-1.40488 c 0.401133,-0.442843 0.958484,-0.634318 1.495882,-0.808902 0.215729,-0.07009 0.312182,-0.103773 0.363565,-0.276698 0.0592,-0.199243 -0.120903,-0.365291 -0.301241,-0.45767 -0.627314,-0.321366 -1.699123,-0.353081 -1.745194,-1.202654 -0.0106,-0.196045 0.0982,-0.711321 0.228557,-0.95788 0.0795,-0.150377 0.180088,-0.387894 0.270071,-0.510867 0.355473,-0.485782 0.565671,-0.172287 0.942614,0.03383 m -24.253428,1.626504 c -0.0472,-0.546012 0.61075,-1.939098 1.246565,-1.670989 0.278539,0.136531 0.374692,0.503338 0.457055,0.840822 0.0673,0.275741 0.0416,0.60544 0.0416,0.830167 0,0.449622 -0.0633,0.799136 -0.114255,1.277171 -0.0883,0.829248 -0.26396,1.575613 -0.789508,2.352098 -0.819672,0.730425 -1.5272968,-0.392719 -0.955686,-0.744974 0.791259,-0.487619 2.696279,0.44264 2.919027,1.074928 M 32.457744,15.6767 c 0.169877,0.205836 0.0489,0.442475 0.0208,0.702442 -0.0709,0.654294 -0.526599,1.804608 -1.121911,2.118001 -0.612213,0.392964 -0.986726,-0.10751 -1.225815,-0.585397 -0.691355,-1.401575 0.644145,-4.27398 2.326965,-2.235046 z m -3.594281,-0.638577 c 0.104844,0.102962 0.149924,0.160143 0.197388,0.319281 0.0766,0.256775 0.0763,0.376445 0.124654,0.574731 0.0905,0.370884 0.171035,0.795098 -0.0104,1.213308 -0.0745,0.171659 -0.0846,0.239716 -0.197389,0.383153 -0.187826,0.23888 -0.471017,0.53923 -0.737535,0.649248 -0.290633,0.119925 -0.691966,0.07164 -0.914176,-0.212899 -0.409494,-0.524403 -0.145404,-1.42737 -0.145404,-2.03281 0.0498,-0.767815 1.228904,-1.339885 1.682862,-0.894012 z m 7.292418,0.383135 c 0.510969,-0.02421 1.516296,-0.576453 1.807516,-0.830145 0.0804,-0.06996 0.168157,-0.122171 0.218147,-0.202242 0.059,-0.09445 0.127844,-0.226632 0.0208,-0.361823 -0.102473,-0.129443 -0.350164,-0.142342 -0.488218,-0.138386 -1.37158,0.110778 -1.277597,1.10025 -1.184243,1.915748 0.0815,0.712286 0.115615,1.808992 0.872592,2.139272 0.706636,0.308314 1.148944,-0.330754 1.485474,-0.798239 0.272101,-0.377974 0.559021,-0.73309 0.57136,-1.213308 m 6.567542,0.08916 c 0.287831,0.162974 1.339939,1.11886 1.784475,1.454112 0.104766,0.079 0.265141,0.197764 0.373975,0.14898 0.237339,-0.106388 0.182617,-0.308566 0.186977,-0.478932 m 31.306658,5.416829 c -0.162105,0.585321 -0.623913,0.947348 -0.994936,1.385726 -0.327372,0.386799 -1.146632,0.781653 -1.37077,0.03034 -0.248931,-0.834459 0.522938,-2.261289 1.080769,-2.884304 0.179507,-0.200838 0.397655,-0.476317 0.643854,-0.553395 0.788487,-0.177235 0.610662,0.378876 0.600721,0.714641 -0.0177,1.188384 0.122414,2.327026 0.313651,3.170063 0.217118,0.957204 0.219889,2.01616 0.207548,2.937504 -0.004,0.288514 0.006,0.511628 -0.124653,0.830156 m -17.327308,-7.535311 0.124656,0.638586 c 0.124376,0.637121 0.107474,1.282504 0.23872,1.915757 0.260708,1.257912 0.57601,2.61913 0.758536,3.703797 M 61.997938,20.81572 c -0.01261,0.68418 -0.143716,1.279528 -0.329153,1.949322 -0.0933,0.430821 -0.149746,0.90017 -0.342801,1.277171 -1.301069,2.477567 2.505782,0.733174 2.940036,0.70244 m 6.304682,-3.744386 c -0.771839,1.311979 0.362643,-0.263595 0.873672,0.359877 1.128052,1.376298 0.400923,3.488273 -0.633885,4.533963 -0.150414,0.152007 -0.393282,0.378351 -0.623282,0.308634 -0.164536,-0.04989 -0.339101,-0.286732 -0.353401,-0.436358 -0.0206,-0.215764 0.0359,-0.349336 0.228748,-0.457663 0.949015,-0.533211 1.290716,-0.239054 1.807536,0.266082 0.107924,0.105489 0.185606,0.190133 0.311641,0.319296 0.301541,0.309035 0.339063,0.475295 0.685615,0.830167 m 1.682842,-0.766303 c -0.122774,0.170636 -0.272709,0.488313 -0.135246,0.766312 0.134916,0.272853 0.483058,0.458733 0.758528,0.372486 0.294832,-0.09231 0.582772,-0.507483 0.727378,-0.755648 0.57217,-0.981885 0.547309,-2.142396 -0.177017,-3.065211 -0.674744,-0.859647 -1.486806,-0.0025 -1.755134,0.38316 -0.131875,0.189364 -0.258821,0.359541 -0.364004,0.574724 -0.250279,0.512029 -0.0347,0.756416 0.384574,0.319296 0.246988,-0.25752 0.393884,-0.447734 0.560951,-0.702448 0.400995,-0.611402 1.196163,-1.604156 0.737326,-2.298908 -0.26977,-0.408463 -0.832639,-0.517952 -1.267136,-0.542796 -0.300571,-0.01718 -0.370854,0.03402 -0.467467,0.159643 m -6.135726,5.681275 c -0.202757,-0.268003 -0.55557,-0.893284 -0.533428,-1.275029 0.0326,-0.562587 0.163794,-1.412682 0.633883,-1.692258 0.57433,-0.341574 0.471257,0.761012 0.425705,1.181381 -0.0274,0.252631 -0.108774,0.440383 -0.197587,0.638586 -0.184636,0.412102 -0.513639,0.964368 -0.799669,1.192054 -0.143295,0.11406 -0.470018,0.241949 -0.685616,0.212843 -1.10567,-0.14925 -0.860631,-3.038092 -0.789688,-3.76766 0.0507,-0.521116 0.120623,-1.042255 0.478058,-1.532606 m -11.094439,0.06379 c 0.108015,0.382384 0.202638,0.805134 0.249311,1.149463 0.0766,0.565204 0.279849,1.075729 0.394723,1.59646 0.24082,1.091596 1.08976,3.654394 -0.394723,2.479824 -0.281422,-0.222681 -0.650854,-0.475276 -0.934927,-0.755647 -0.571079,-0.56365 -1.021395,-1.168844 -1.475121,-1.788031 -1.417313,-1.934166 -0.347005,1.045413 -0.0415,2.043466 0.141215,0.461391 0.393475,1.143517 0.644034,1.468752 m -2.991759,0.19157 c -0.521291,0.185087 -0.978076,0.186004 -1.527047,0.223508 -0.705087,0.04817 -1.723092,-0.461726 -1.838686,-0.159645 m 1.783505,0.168911 c -0.305271,-1.048046 -0.456777,-2.070356 -0.609663,-2.978687 -0.146145,-0.86826 -0.231728,-2.032418 -0.28569,-2.832112 m -1.229825,0.06804 c 0.713246,-0.03966 1.098329,-0.01685 1.588247,-0.162775 0.263451,-0.07843 0.873783,-0.0539 1.121912,0.05324 m -11.361727,0.749701 0.211107,-0.01783 m -2.374648,-0.09332 c 0,0 -0.007,0.05684 -0.0104,0.08513 -0.016,0.120751 -0.0519,0.361889 -0.0519,0.361889 -0.293533,2.04597 1.064049,3.529538 1.256975,5.427975 l 0.0519,0.510877 M 15.165633,24.490512 C 14.969025,24.430566 14.863822,24.376574 14.546261,24.28866 M 3.9848414,31.206511 C 3.7211416,30.446422 3.5686668,27.80589 3.4958643,27.107367 c -0.011903,-0.114492 0.013898,-0.214854 0,-0.319287 -0.078104,-0.588061 0.1662865,-1.725282 0.1026335,-2.089484 m 34.3026392,0.429153 c -0.0916,0.382373 -0.178505,0.769238 -0.0519,1.085583 0.389533,0.973518 0.593871,2.093622 0.986844,2.937494 M 2.376953,24.823874 c 0.9245138,-0.08023 2.3552179,-0.443383 2.9264579,0.303875 m 35.7382401,0.33458 c -0.703856,-0.465897 -1.237894,-0.472037 -1.332978,0.495577 -0.0557,0.566666 0.147276,1.212973 0.682637,1.593867 0.173064,0.123138 0.461426,0.174636 0.643062,0.259933 0.238019,0.111769 0.598623,0.428335 0.623513,0.687016 -0.148245,0.418947 -1.040447,0.334835 -1.325928,0.332815 m -27.79846,-3.703804 0.311641,1.46875 c 0.278119,1.310759 0.754459,2.421825 1.121912,3.703806 m 14.584845,-2.618198 c 0.261909,-0.484479 0.310431,-0.955609 0.747937,-1.341043 0.689854,-0.598798 1.560827,1.085732 1.724442,1.660331 0.20834,1.032468 -0.56963,2.016365 -1.12108,2.55948 M 19.44345,28.632507 c -0.0618,0.43222 -0.865582,1.280221 -1.425051,1.497481 -0.176078,0.06256 -0.502931,0.09987 -0.685616,-0.03198 -0.486099,-0.350707 -0.319643,-0.826909 -0.311643,-1.266506 0.002,-0.09266 0.002,-0.158312 0.0207,-0.255442 0.0265,-0.139658 0.0377,-0.175216 0.0416,-0.31929 0.0726,-0.584585 0.24413,-1.413582 0.810269,-1.670987 1.695584,-0.7709 1.164755,2.479824 2.181492,3.650599 0.501689,0.530603 0.745076,-0.344003 0.810271,-0.574732 m 1.184242,0.38316 c -0.408605,-0.966806 -0.8206,-2.60687 -1.059588,-3.192913 m 0.632933,1.989189 c -0.008,-0.2664 0.549001,-1.303367 0.665555,-1.542191 0.140053,-0.286984 0.531788,-0.882333 0.945333,-0.670513 0.333834,0.171013 0.575583,0.581437 0.706377,0.925948 0.0869,0.228806 0.31183,2.081011 0.336322,2.255638 M 14.901953,26.8519 c 0,0 0.518109,1.757315 0.851842,2.618198 0.150935,0.389367 0.51938,1.149455 0.51938,1.149455 m 17.514271,-3.565425 c 1.254335,0.653609 -0.552429,2.93905 -1.308887,2.926831 -0.165397,-0.0025 -0.309342,-0.07843 -0.405144,-0.202237 -0.136436,-0.176254 -0.148578,-0.337067 -0.155816,-0.564058 -0.0373,-1.1699 -0.0839,-3.178567 1.869847,-2.160536 z m -20.636567,0.711805 c -0.336153,0.913493 -0.301771,1.305779 -1.157613,2.278889 -0.143025,0.16262 -0.243059,0.264314 -0.394723,0.393815 -0.265071,0.226328 -0.543393,0.490514 -0.934925,0.351217 -0.428075,-0.152284 -0.348094,-0.744273 -0.311641,-1.128185 0.0693,-0.729517 0.201817,-1.490683 0.672225,-2.075131 0.175716,-0.218321 1.574476,-0.988321 1.801605,-1.023888 m 13.571588,2.092347 c -0.936243,3.365993 -2.803523,0.580202 -1.751464,-0.972946 1.071519,-1.53178 1.675312,-0.337912 1.750405,0.9898 0.0248,0.437978 0.503018,1.272511 0.971294,1.947685 m 1.716163,-4.04982 c 0,0.382383 0.303392,2.594948 0.548411,3.219664 0.185276,0.472398 0.30751,0.900276 0.394794,1.277162 0.0659,0.286282 0.368594,1.047213 0.436296,1.341035 0.0181,0.07883 0.0482,0.262222 -0.0104,0.319296 -0.29322,0.285318 -0.734667,-0.1967 -0.779097,-0.255442 M 44.050881,28.57607 c -0.0486,-0.162965 -0.581772,-0.699823 -0.581772,-0.766303 M 9.6663689,30.300255 C 9.4205497,30.47261 9.3400563,30.58343 9.1677407,30.470565 8.9147922,30.304884 9.0542376,29.364962 9.0119247,29.023084 8.8236182,27.501642 6.5686055,28.047685 6.3950891,29.309367 m 0.52883,1.757175 C 6.8499174,29.946603 5.9271412,28.859563 6.2135427,27.82479 m -4.2135648,3.241752 c 0.3717143,0.04016 0.4239944,0.01358 0.8102709,0.0745 0.9658448,0.152416 2.4261679,0.01848 2.9832183,-0.399933 M 132.51564,47.350572 h 0.18698 m -10.28418,7.15216 c -3.09713,0.212941 -2.17343,-0.04653 -2.92944,-2.107329 -0.45176,-1.23148 -0.75009,-2.544079 -0.74795,-3.703796 1.8e-4,-0.124022 -0.0661,-0.368268 0.0729,-0.478942 m 16.25711,0.60665 c 0.32286,0.739496 0.31966,1.774465 0.51919,2.554352 0.11047,0.43177 0.27886,0.738054 0.2911,1.14947 0.009,0.299383 0.13268,0.546124 0.18699,0.830166 0.0239,0.124756 0.0434,0.19853 0.0729,0.319288 0.0334,0.136853 0.26858,0.881621 0.22813,1.021738 -0.0879,0.304593 -0.14399,0.294705 -0.48804,0.127724 m 1.24655,-2.873664 c -0.28807,-0.210748 -1.45576,-0.0211 -1.86983,1.6e-5 -0.13066,0.0066 -0.26116,-0.0057 -0.37398,-0.01063 -0.34592,-0.0148 -0.49426,0.01759 -0.74794,0.202237 m 6.60678,2.149903 c -0.14274,0.115647 -0.33847,0.250888 -0.49862,0.319296 -0.32039,0.136829 -0.72363,0.209008 -1.05957,0.127718 -0.56035,-0.135576 -0.88177,-0.634505 -1.14249,-1.128192 -0.0977,-0.184938 -0.11563,-0.362206 -0.14586,-0.574731 -0.12873,-0.90533 0.38175,-1.719647 1.10136,-2.235045 0.21005,-0.152563 0.59461,-0.156962 0.81027,-0.03198 0.3696,0.214052 0.41425,0.794018 0,0.957875 -0.69484,0.274857 -1.38038,0.436912 -2.06743,0.659855 m -35.32959,-3.501536 c -0.18203,0.356974 -0.0683,0.70083 -0.0623,1.02173 0.003,0.166472 -0.021,0.236452 0.0106,0.447005 0.0213,0.142013 0.0819,0.82584 0.4101,1.851903 0.43571,1.36215 0.70867,2.094882 0.82585,2.745921 m 0.54044,-4.432765 c 0.15384,0.632581 -1.13895,2.518244 -1.48217,1.863048 -0.10832,-0.206766 0.39388,-0.235667 0.60479,-0.114812 0.58542,0.335473 1.20554,0.947661 1.50061,1.343504 0.38084,0.510861 1.14249,1.532606 1.14249,1.532606 m 17.07798,-5.23641 c 0.22875,-0.0065 0.48991,-0.05553 0.68562,-0.06379 m -26.208723,2.832218 c -0.953766,-0.221037 -2.74008,-0.335218 -3.557111,0.35192 m 2.154318,-4.333599 c -0.676252,-0.29177 -0.877392,0.471792 -0.764147,1.027674 0.128445,0.630506 0.291641,1.638994 0.566592,2.484551 0.250639,0.770785 0.312241,1.581863 0.59211,2.426634 0.118846,0.358724 0.225809,0.54942 0.291082,0.894019 0.0363,0.19181 0.0791,0.263539 0.0517,0.447007 -0.0418,0.279821 -0.193837,0.422954 -0.363375,0.447014 -0.153955,0.02184 -0.349671,-0.07115 -0.498628,-0.191581 m 28.359452,-1.149461 c -0.3548,-0.658859 -0.62121,-1.404046 -0.80689,-2.139731 -0.10705,-0.424213 -0.0712,-1.201157 -0.12598,-1.600664 m -14.37417,4.974803 c 0.8302,-0.517942 2.76463,-0.968073 2.88312,-1.617567 0.0209,-0.114699 -0.14837,-0.1757 -0.22875,-0.212843 -0.27925,-0.129018 -0.57718,-0.262902 -0.8726,-0.351217 -0.24435,-0.07303 -0.41927,-0.148727 -0.62328,-0.30869 -0.87316,-0.684653 -0.80158,-2.579098 -0.12465,-2.969429 0.26592,-0.153339 0.48817,0.01905 0.49862,0.202243 0.0176,0.308109 -0.26614,0.781629 -0.4363,1.149447 m -18.386877,3.129074 c -0.146085,0.510263 1.159693,0.07499 1.37121,-0.03198 0.175307,-0.08868 0.269881,-0.235833 0.269881,-0.41508 0,-0.327785 -0.616493,-0.552976 -0.830841,-0.76631 -0.455058,-0.452902 -0.83749,-1.048292 -1.111311,-1.660315 -0.0708,-0.158368 -0.0601,-0.225986 -0.0729,-0.383151 -0.057,-0.697861 1.251406,-1.637244 1.589378,-1.181381 0.317223,0.427876 0.324262,1.042075 0.592131,1.628395 m 12.785839,-0.0096 c 0.27001,-0.09352 0.59097,-0.134391 0.86406,-0.277778 0.20091,-0.10548 0.68725,-0.465848 0.42571,-0.798229 -0.22337,-0.28387 -0.6726,-0.205948 -0.90376,0.01063 -0.23693,0.221985 -0.23644,0.270742 -0.26989,0.500212 -0.10399,0.71344 -0.27206,1.244721 -0.17637,1.851903 0.0515,0.326983 0.22263,0.731628 0.4363,0.957891 0.10234,0.108351 0.21877,0.169997 0.36338,0.223499 0.68435,0.25321 1.56257,-0.573579 1.86985,-1.117527 m 23.37314,-2.618206 c 0,0.320826 -0.0321,0.432105 0,0.702449 0.0628,0.529261 0.22778,1.012551 0.26989,1.532597 0.0694,0.8564 0.70172,1.851101 0.72738,2.618213 M 81.49855,52.509978 c 0.559099,-0.275954 1.856597,-0.182501 1.94406,-0.497734 0.0704,-0.442419 -0.453746,-0.702449 -0.789699,-0.702449 -1.455971,0.223368 -0.867492,2.596903 -0.478067,3.256792 0.0977,0.1655 0.185107,0.277409 0.311652,0.447006 0.141466,0.1896 0.397665,0.518318 0.602713,0.627921 0.142125,0.07589 0.28297,0.118999 0.436295,0.127725 0.291081,0.0166 0.579141,-0.242716 0.789699,-0.447014 0.0693,-0.06722 0.166426,-0.172231 0.228129,-0.24477 m -0.340614,-2.239241 c 0.473999,-0.190362 0.959735,-0.342957 1.379622,-0.549273 0.156365,-0.07679 0.224968,-0.120823 0.373974,-0.19158 0.728406,-0.345875 -0.0271,-0.962365 -0.623283,-0.723703 -1.105672,0.44264 -1.07292,1.244614 -0.924336,2.235047 0.182409,1.21581 1.720154,2.63511 2.794185,1.149462 0.0741,-0.102464 0.208825,-0.334418 0.28048,-0.447015 m -0.089,-3.339652 c 0,0 0.204757,1.247265 0.307141,1.870901 0.08,0.487462 0.176807,1.068263 0.24932,1.468751 0.0479,0.264487 0.258799,0.840405 0.322231,1.149455 0.206148,1.004268 1.069819,1.756563 1.111321,2.682052 0.005,0.100705 -0.187598,0.06632 -0.373973,0.02126 -0.145838,-0.03525 -0.307173,-0.09146 -0.488028,-0.234105 -0.256069,-0.201942 -0.499879,-0.307922 -0.758539,-0.681178 m -0.363052,-6.1944 c 0.683285,-0.717896 1.516485,0.205147 1.882419,0.531633 0.411223,0.366902 0.541208,1.239234 0.5892,1.831262 0.0492,0.607305 -0.0732,1.237057 -0.373973,1.724185 -0.129294,0.209408 -0.834811,0.691072 -1.038628,0.847913 m 55.256141,-4.636344 c 0,0 -0.27835,0.01383 -0.41753,0.02077 -0.96491,0.04801 -1.43851,0.531887 -1.89041,1.213317 -0.14469,0.218159 -0.1229,0.264005 -0.30168,0.70244 -0.25634,0.628617 0.20379,1.177129 0.82086,1.213309 0.56838,0.08486 2.07918,-0.962135 2.15204,-1.086287 m -0.78081,-4.597131 c 0.14852,0.480872 0.2089,0.812314 0.2493,1.341035 0.0218,0.28504 0.0931,0.554868 0.14524,0.830158 0.0277,0.146216 0.0267,0.225109 0.0212,0.383159 -0.0345,0.994562 0.38631,1.993074 0.58155,2.873648 M 125.91868,53.2576 c 0.0648,-0.319101 0.54571,-1.744362 0.98735,-1.692373 0.85763,-0.02224 1.41393,1.379356 1.43356,1.851887 0.012,0.287434 0.0381,0.549649 -0.0829,0.894028 -0.0492,0.139992 -0.24868,0.375398 -0.41573,0.319289 -0.0954,-0.03206 -0.14066,-0.09182 -0.16643,-0.191572 -0.0372,-0.144 -0.0452,-0.193626 -0.0206,-0.319298 0.14694,-0.749521 0.12994,-1.648137 0.2387,-2.235054 0.0312,-0.168354 0.0761,-0.273156 0.38458,-0.574722 0.49865,-0.487471 0.91378,0.212507 1.22599,0.702447 0.2662,0.417737 0.45941,0.877337 0.65445,1.277171 0.0929,0.190477 0.15679,0.321229 0.24931,0.510862 0.12314,0.252392 0.20791,0.435369 0.35278,0.702456 0.12813,0.23624 0.20444,0.461056 0.32224,0.70244 M 77.167989,51.629093 c 0,0 0.380874,0.801501 0.529787,1.213308 0.136535,0.377558 -0.0561,0.641996 -0.0373,1.250119 0.0813,2.622425 0.822062,1.05844 0.842272,0.953017 0.160535,-0.837706 0.186518,-1.166793 0.251559,-1.487422 0.0397,-0.195613 0.026,-0.454008 0.221208,-0.423004 0.219038,0.03484 0.151175,0.238783 0.187337,0.423004 0.0906,0.46144 0.169036,0.713447 0.289859,1.04407 0.133466,0.365193 0.545591,0.81574 0.894025,0.996819 0.495497,0.257504 0.663295,-0.335554 0.727375,-0.649249 0.314854,-1.203537 -0.393133,-2.318553 -0.415734,-3.256783 M 125.47247,51.6291 c 0.0972,0.236601 0.18204,0.886604 0.24932,1.0856 0.28723,0.849482 0.62994,1.451569 0.87259,2.298901 m -25.95527,-1.360196 c -0.16795,0.388385 -0.37773,0.660602 -0.54487,1.040915 -0.181208,0.412364 -0.436927,0.956616 -0.986658,0.894028 -0.469337,-0.05349 -0.771797,-0.461988 -0.883191,-0.894028 -0.0625,-0.242365 -0.0397,-0.352582 -0.0517,-0.574722 -0.026,-0.479016 0.058,-1.758919 0.5192,-1.968956 1.596519,-0.727097 1.907259,1.456362 2.119159,2.160534 0.0806,0.267972 0.12426,0.459774 0.23933,0.70244 0.14048,0.296228 0.20937,0.494498 0.42571,0.702449 0.53036,0.509814 0.64013,-1.009159 0.62328,-1.341034 m -28.421739,0.319305 c 0.01441,1.214952 2.511974,1.329586 2.971171,0.819477 0.153755,-0.17079 0.0501,-0.515448 -0.0623,-0.691775 C 76.439661,54.591775 76.059226,54.260955 75.85913,54.055726 75.701463,53.894022 75.629221,53.820287 75.485156,53.672584 75.265229,53.447096 75.094992,53.18503 74.913605,52.90628 74.49668,52.26556 74.24413,51.722266 74.031033,51.054378 c -0.087,-0.272682 -0.201447,-0.606528 -0.228739,-0.894021 -0.0338,-0.355821 -0.048,-0.730352 0.0106,-0.957873 0.213157,-0.827869 0.904384,-0.393057 1.215394,0.127708 0.336792,0.373042 0.366022,0.852941 0.602092,1.277172 0.162696,0.292367 0.195716,0.460041 0.415736,0.76631 m 93.679594,6.843545 c -0.40674,-0.0413 -3.10652,-0.532827 -3.11641,-0.01063 -0.0131,0.69194 0.29886,3.581028 0.74795,3.863433 0.16199,0.101858 0.32556,-0.02756 0.41573,-0.15966 0.28256,-0.413909 0.54484,-0.870689 0.91375,-1.20245 0.11896,-0.106993 0.28328,-0.107687 0.40512,0 0.19103,0.168821 0.23632,0.570251 0.25992,0.819297 0.10294,1.086876 -1.09023,2.58515 -2.24382,2.043484 -0.44577,-0.209303 -0.82648,-0.960434 -0.99727,-1.277172 M 147.5368,58.206563 c -0.3403,-0.211061 -0.53726,-0.191581 -0.87259,-0.191581 -0.22562,0 -0.54537,-0.0025 -0.74795,0 -0.31911,0.0049 -0.75983,-0.0927 -1.09655,0.137572 -0.28342,0.193837 -0.15436,0.752122 0.0164,1.650485 0.0305,0.162204 0.0731,0.464777 0.14523,0.574723 1.24896,1.843594 -0.0834,4.180024 2.99175,3.065211 0.48928,-0.173695 0.41637,-0.30141 0.2493,-0.766303 m -10.05875,1.043368 c 0.9677,0.05422 1.31388,0.760415 2.26771,0.4043 0.42581,-0.169702 0.79841,-0.446368 0.55038,-1.00067 -0.32663,-0.729894 -1.43339,-1.209047 -2.10858,-1.564532 -0.38004,-0.200086 -0.80871,-0.608368 -0.91436,-1.053665 -0.0747,-0.314954 0.0134,-0.617961 0.0418,-0.894021 0.044,-0.427804 0.22096,-1.063583 0.62329,-1.309106 0.51415,-0.292709 1.37185,-0.0597 1.43355,0.542804 m 35.09089,1.085591 c 0.005,-0.507352 -0.0521,-1.046958 0.13524,-1.532604 0.10243,-0.265454 0.17889,-0.294707 0.42572,-0.31929 0.15705,-0.0157 0.46825,0.206521 0.5921,0.447014 0.33489,0.650208 0.67607,1.291589 0.59212,2.107329 -0.0854,0.830214 -1.48862,2.873067 -2.30614,3.065211 -0.33543,0.07884 -0.65958,-0.441951 -0.46746,-0.830157 0.19059,-0.385122 0.68059,-0.238063 0.90376,-0.106643 0.56466,0.332489 1.06799,0.755256 1.49587,1.064527 0.13371,0.09664 0.40632,0.350462 0.56095,0.308435 0.28231,-0.07671 0.23685,-0.41444 0.187,-0.691588 m -51.42582,-1.146951 c 0.59253,-0.154665 0.74576,0.07565 1.25144,-0.194034 0.35062,-0.187033 0.37843,-0.362051 0.59211,-0.766303 0.13535,-0.256039 0.11048,-0.599445 0.0729,-0.894019 -0.25849,-2.028296 -3.94185,-2.356852 -3.28282,1.6e-5 m 16.57934,-1.724202 c 0.21271,-0.390209 0.47337,-0.569449 0.8914,-0.386995 0,0 0.3605,0.188464 0.56094,0.244836 0.11965,0.03369 0.24782,0.06133 0.37397,0.05324 0.24079,-0.01554 0.72915,-0.102602 0.72915,-0.102602 m 34.09364,0.127709 c 0.54791,-0.07998 0.91409,-0.115654 1.37123,-0.17031 0.97352,-0.116381 0.73461,-0.141578 0.68561,0.489597 -0.0177,0.226452 0,0.428139 0,0.638595 v 0.383143 c 0,0.500008 -0.0184,1.010108 0,1.468751 0.0132,0.331443 0.0923,0.80717 0.12466,1.149463 m -50.42368,-2.618198 c 0.22146,-0.776026 0.64968,-1.440012 1.55821,-1.2559 0.17006,0.03451 0.28887,0.05389 0.4363,0.127709 1.80224,0.903023 2.54276,2.093549 2.36847,3.618671 -0.0542,0.501939 -0.34655,0.839104 -0.68562,1.160315 -0.34218,0.323762 -0.59149,0.745867 -1.05958,0.978959 -0.14148,0.07017 -0.32932,0.176679 -0.37397,0.09579 -0.49779,-0.90196 -0.54136,-1.684309 -0.7897,-2.682067 -0.25803,-1.058776 -0.46412,-2.533317 -0.46412,-3.284858 m 11.96408,-0.201868 c -0.046,0.476209 0.10292,1.102373 0.18663,1.570969 0.232,0.78723 0.44156,1.65629 0.63386,2.362762 l 0.25992,0.830166 c 0.0741,0.298525 0.20807,0.5803 0.15583,0.883167 l -0.35341,0.07467 m 29.21144,-3.512216 c 0.21194,0.372929 0.33722,0.731178 0.33224,1.085591 -0.004,0.265649 -0.12841,0.424017 -0.26988,0.638585 -0.27302,0.413166 -0.88258,0.950107 -1.413,0.957875 -0.38519,0.0057 -0.7392,-0.309703 -0.8726,-0.638585 -0.11967,-0.295016 -0.12668,-0.644336 -0.12466,-0.957875 0.006,-0.879987 0.0475,-1.672622 0.374,-2.554343 0.44292,-1.196233 1.79617,1.152465 1.9739,1.468752 z M 124.8808,58.243141 c 0.14188,0.642987 0.21763,1.307896 0.40475,1.943097 0.20098,0.682191 0.27739,1.479415 0.52979,2.075393 0.28282,0.667832 0.1923,0.445574 0.28047,0.670521 0.0995,0.253906 0.20612,0.506706 0.28048,0.766295 0.0422,0.147189 0.0935,0.447014 0.0935,0.447014 m -14.46018,1.021745 c -0.0224,-0.295032 -0.20737,-0.523725 -0.29107,-0.830165 -0.25647,-0.938901 -0.53045,-1.988091 -0.72675,-2.873632 -0.16666,-0.751778 -0.24064,-1.342089 -0.22875,-2.107336 0.002,-0.08998 -0.0231,-0.222681 0.0729,-0.287362 0.26178,-0.177342 0.48118,0.159579 0.61269,0.415078 m 44.81412,-0.191579 c 0,0 0.46942,1.575458 0.70618,2.362771 0.0896,0.298108 0.16982,0.598275 0.2705,0.894028 0.0439,0.128805 0.10919,0.252728 0.14522,0.383143 0.0638,0.230779 0.12466,0.702449 0.12466,0.702449 m -3.79776,-4.302254 c 0,0.3297 0.15191,0.887142 0.26562,1.237034 0.0527,0.162262 0.0833,0.295075 0.12464,0.447014 0.0384,0.141162 0.0641,0.233747 0.1147,0.383151 0.13324,0.393392 0.27768,0.821914 0.38394,1.213317 0.14617,0.538372 0.26303,0.646241 0.35339,1.149447 M 95.492571,59.99465 c 0.390273,-0.407301 0.516637,-1.159292 0.768518,-1.468743 0.27796,-0.341509 0.757279,-0.3885 1.101339,-0.266098 0.387045,0.137693 0.600074,0.302638 0.872593,0.64925 0.222988,0.283615 0.385524,0.720457 0.509229,1.021737 0.0812,0.197664 0.034,0.420688 0.0311,0.574722 -0.0216,1.158173 -1.297597,1.379374 -1.729422,2.013176 m 62.956482,-2.471042 c 0.2845,0.115941 0.86509,0.428516 1.05959,0.649447 0.13831,0.157117 0.31606,0.342187 0.31163,0.574722 -0.0184,0.966896 -0.6603,2.194009 -1.62054,2.713997 -0.18001,0.09748 -0.39704,0.22811 -0.62328,0.202424 -0.1733,-0.01971 -0.31785,-0.07851 -0.40512,-0.234353 -0.15456,-0.275878 -0.15583,-1.146265 -0.15583,-1.46875 0,-0.252246 -0.043,-0.526196 -0.0106,-0.766304 0.0205,-0.151989 0,-0.212262 0.0106,-0.38315 0.0561,-0.844503 0.0358,-1.85762 1.43355,-1.288033 z m -63.940398,-1.14476 c 0.003,0.12829 0.149196,1.073757 0.178456,1.283339 0.155756,1.115801 0.819601,2.292856 1.1113,3.192928 0.136925,0.422495 0.414527,0.876773 0.509229,1.341033 0.0356,0.174325 0.032,0.404316 -0.0829,0.574724 -0.26531,0.393464 -0.84037,0.254305 -1.10134,0.04285 -0.285031,-0.231024 -0.297311,-0.349311 -0.31164,-0.489795 m 51.483233,-4.789389 c -0.63697,0.274588 -1.02466,0.366541 -1.62052,0.553649 -0.41822,0.130907 -0.6959,0.118041 -0.98074,0.241286 M 74.550212,60.122435 c 0.127154,0.413163 0.0335,0.759555 0.176397,1.277171 0.219846,0.796389 0.431155,1.661401 0.560949,2.362762 0.160337,0.866387 0.326313,1.632582 0.613315,2.362771 0.076,0.193487 0.132754,0.302688 0.207545,0.510869 m 1.682863,-0.957882 c -0.0324,0.125165 -0.0491,0.219016 0,0.383159 0.116645,0.389514 0.206187,0.762499 0.747948,0.702433 0.640222,-0.0709 1.208603,-0.584448 1.41298,-0.957875 0.158707,-0.289962 0.186988,-0.73948 0.186988,-1.085593 0,-0.250968 -0.133544,-0.606109 -0.239338,-0.830164 -0.439016,-0.929766 -1.352971,-2.373026 -2.202062,-1.851894 -0.227177,0.139419 -0.133324,0.414366 -0.0206,0.478932 0.09351,0.05357 0.321742,-0.06297 0.373975,-0.223499 0.172706,-0.530961 0.543669,-1.058914 0.332213,-1.596468 -0.191417,-0.486612 -0.678474,-0.434576 -1.09075,-0.308437 -0.425477,0.130179 -0.757528,0.317269 -1.121911,0.500009 m 86.397746,0.362084 c 0.21009,0.212826 0.49141,0.123669 0.73734,0.0211 0.18807,-0.07843 0.49864,-0.319298 0.49864,-0.319298 M 81.34397,60.761043 c -0.198827,0.703726 -0.084,1.462284 0.0517,2.171201 0.140466,0.733721 0.551821,1.376731 0.716776,2.043466 0.078,0.315346 0.178887,0.518531 0.291071,0.830165 m 5.921197,-5.044832 c -0.0971,0.276461 -0.140275,0.484103 -0.0829,0.766304 0.22232,1.093196 0.666015,2.241481 0.913735,3.384509 0.110043,0.50771 0.227507,1.051751 0.291081,1.404889 m 16.95331,-0.127718 c 0.43132,-0.360163 0.961,-0.536605 1.49589,-0.734376 0.14387,-0.05324 0.40938,-0.154777 0.56096,-0.202432 0.19372,-0.06093 0.25671,-0.0404 0.49862,-0.127718 0.11897,-0.04293 0.19046,-0.07736 0.23871,-0.148791 0.12005,-0.177636 -0.0873,-0.42908 -0.23871,-0.553649 -0.68067,-0.560001 -1.46857,-0.729248 -1.6623,-1.681397 -0.0643,-0.316091 0.0979,-0.842931 0.22875,-1.213317 0.0898,-0.25415 0.12403,-0.545355 0.49862,-0.734376 0.42259,-0.213283 0.38768,0.183918 0.31164,0.606658 m -24.698083,2.127357 c 0.0588,0.845377 0.57264,2.212703 1.387278,2.491536 0.719088,0.246135 1.613681,-0.731178 1.84928,-1.425964 0.0511,-0.150706 0.107994,-0.35631 0.124654,-0.510869 0.0426,-0.394633 -0.0533,-0.883977 -0.241579,-1.223056 -0.146435,-0.263744 -0.325682,-0.526668 -0.529129,-0.766303 -1.780484,-2.097131 -2.707049,-0.23934 -2.590504,1.434656 z m 31.678873,-2.191211 c 0.27863,0.244721 0.4852,0.659579 0.60271,0.957875 0.14613,0.370941 0.33085,0.640491 0.22813,1.085592 -0.13412,0.581102 -0.62791,1.129965 -1.14248,1.394044 -0.19473,0.09992 -0.31588,0.182347 -0.56097,0.245212 -0.6811,0.174691 -1.19893,-0.454701 -1.29829,-1.064526 -0.0234,-0.143705 -0.0106,-0.229894 -0.0106,-0.383151 0,-0.247133 0.0158,-0.457212 0.0829,-0.70244 0.15015,-0.548415 0.19131,-1.201704 0.85733,-1.772077 0.32375,-0.277261 1.19263,0.196757 1.24126,0.239471 z m -15.519761,-0.38316 c -0.198208,0.226706 -0.249308,0.412528 -0.249308,0.702449 -0.0261,1.39065 0.847969,2.422684 1.371219,3.576079 m -0.72852,-1.385701 c -0.17987,-1.170392 0.76428,-2.910073 1.7881,-2.828964 0.20505,0.03263 0.25181,0.166033 0.37397,0.319297 m 15.27045,-0.191579 c -0.23747,0.271398 -0.18511,0.651442 -0.11405,1.021736 0.17695,0.922022 0.51679,1.824735 0.73735,2.68207 m -0.39451,-1.351324 c 0.0919,-0.492851 0.43783,-1.138298 0.85137,-1.650042 0.14899,-0.184367 0.33627,-0.466977 0.60271,-0.510861 0.7273,-0.119808 1.05355,1.141735 1.25717,1.660324 0.0837,0.213235 0.10724,0.299473 0.20756,0.510868 0.28301,0.596419 0.3428,1.274611 0.3428,1.915757 M 109.5787,61.91049 c 0.62896,0.01349 1.24063,0 1.86985,0 0,0 0.87589,0.04367 1.3089,0 0.10629,-0.01072 0.31164,-0.06379 0.31164,-0.06379 m 14.00938,0.258404 c 0.086,0.0862 0.19582,0.151703 0.38848,0.32718 0.61591,0.560951 0.85041,1.412461 1.31949,1.968759 0.60272,0.692235 1.20544,0.05242 1.36063,-0.70244 m -27.48682,-0.957882 c 0.64518,-0.120857 2.39525,-0.769533 2.80477,-1.096453 0.1953,-0.155906 0.34724,-0.299776 0.15582,-0.563871 -0.42997,-0.59323 -1.4362,-0.263235 -1.67227,0.06379 -0.46499,0.644311 -0.66632,1.546918 -0.60271,2.235055 0.0493,0.533579 0.37086,1.117649 0.81027,1.447668 0.68482,0.514369 1.5501,0.01914 1.93218,-0.362068 m -9.536241,4.789388 -0.0623,0.06379 m 20.194401,8.365477 c 0,-0.316737 -0.11033,-0.607296 -0.12466,-0.957875 -0.038,-0.929782 -0.0371,-1.895802 -0.18698,-2.745922 -0.0803,-0.455692 0.1669,-0.988813 -0.0312,-1.341034 -0.0797,-0.141644 -0.21502,-0.146886 -0.34282,-0.116857 -0.48943,0.115017 -1.07676,0.01293 -1.9647,0.01669 m -11.80986,0.03639 c 0.81261,-0.02445 1.42434,-0.184482 2.24382,-0.255435 0.39952,-0.03966 0.94941,-0.05823 1.32214,0.111696 m 0.82051,0.28786 c -0.0104,0.542723 0.23245,0.744575 0.49571,1.13305 0.10006,0.147647 0.15156,0.199726 0.24932,0.319297 0.45896,0.561384 0.99358,1.15221 1.47531,1.59646 0.49719,0.458513 0.74756,1.12362 1.3089,1.468751 m -6.34064,-4.838417 c 0.0229,0.212893 -0.0177,0.215068 -0.0169,0.496043 0.002,0.526087 0.0108,1.054988 0.17639,1.532605 0.0762,0.219917 0.1663,0.400971 0.20819,0.638585 0.10646,0.604042 0.54286,1.135397 0.32161,1.788042 -0.17579,0.518531 -0.70681,0.408699 -0.92434,0.06387 m 29.76182,-3.938171 c 0.36739,0.130833 0.6843,0.401062 0.89316,0.681374 0.0928,0.12456 0.13818,0.176974 0.22875,0.319289 0.11262,0.176982 0.14737,0.280254 0.25991,0.510877 0.23338,0.478214 0.42502,0.664126 0.41511,1.021737 -0.006,0.227335 -0.39859,0.948158 -0.5298,1.149454 -0.35371,0.542664 -0.96956,1.138365 -1.45412,1.351879 -0.16178,0.07123 -0.46193,0.171256 -0.68561,0.05299 -0.45008,-0.427747 -0.8128,-1.643378 -0.78226,-2.077021 0.0465,-0.660626 0.0792,-1.470134 0.20751,-2.053223 0.0842,-0.382725 0.80735,-1.185274 1.44735,-0.957367 z m -24.24573,-0.340362 c -0.29633,0.940061 -0.80533,2.036661 -1.1325,3.001356 -0.2292,0.675779 -0.61438,1.291459 -0.98667,1.915757 m 21.62796,-4.917113 c -0.38003,1.142019 -0.57,2.319999 -1.02842,3.448361 -0.0692,0.170294 -0.13838,0.340577 -0.20756,0.510877 -0.4812,1.184433 2.45782,0.0714 3.10583,0.148777 0.25872,0.03091 0.38769,0.05299 0.62329,0.170513 0.11904,0.05937 0.22937,0.12963 0.31164,0.191572 m -4.48766,0.06387 c -1.0686,0.876257 -3.06586,-0.749889 -3.6568,-0.191588 -0.31317,0.295858 -0.26287,0.688365 -0.19697,0.957875 0.0787,0.321824 0.38458,0.533219 0.67503,0.425939 0.21814,-0.08105 0.35431,-0.280018 0.46745,-0.489793 0.21734,-0.402944 0.54262,-0.812101 0.67503,-1.213317 0.20065,-0.608033 0.46398,-1.604827 0.22874,-2.29891 -0.10197,-0.300831 -0.38109,-0.851697 -0.62328,-1.085591 -0.20283,-0.195873 -0.67286,-0.334607 -0.81027,-0.202441 -0.98219,0.944701 -0.29502,-0.173646 -0.14667,-0.883158 m 5.88975,0.38979 c 0,0 0.0287,0.549388 0.0535,0.823534 0.0135,0.149266 0.0414,0.297583 0.0517,0.447014 0.0549,0.794566 0.27902,1.698278 0.32223,1.979611 0.0979,0.637246 0.16608,1.254927 0.24932,1.851903 0.0623,0.447014 0.18699,1.341026 0.18699,1.341026 M 87.452176,72.830351 c 0,0 0.0489,0.638577 0.0729,0.957882 0.0234,0.31085 0.0827,0.611337 0.155816,0.894012 0.132774,0.513175 0.303272,1.08071 0.436296,1.532607 0.133244,0.452631 0.328351,0.88998 0.467466,1.341033 0.0656,0.212867 0.133676,0.425253 0.196958,0.638594 0.100804,0.33984 0.291082,1.021729 0.291082,1.021729 m 29.481326,-2.809777 c 0.0443,0.215206 0.20162,0.479711 0.30104,0.638585 0.0776,0.124022 0.0935,0.155809 0.25992,0.308445 0.15394,0.141759 0.30166,0.439344 0.62327,0.457867 0.43569,0.02494 0.53167,-0.09261 0.99726,-0.351225 0.3827,-0.212017 0.72309,-0.365902 0.85203,-0.798237 0.15901,-0.533203 -0.16829,-1.220343 -0.60271,-1.511532 -0.0991,-0.06649 -0.19634,-0.07982 -0.31164,-0.08493 -0.12965,-0.0057 -0.16264,-0.02094 -0.31165,0.01088 -0.31783,0.06788 -0.81843,0.508391 -1.05958,0.383153 -0.21135,-0.109767 -0.31176,-0.358855 -0.38457,-0.521729 -0.20268,-0.45337 -0.12106,-1.141792 -0.11406,-1.660324 0.002,-0.127078 -0.0437,-0.208877 0.0729,-0.287361 0.0305,-0.02053 0.42635,0.04784 0.61269,0.08493 0.69561,0.138511 1.55884,0.361438 2.11917,0.07475 m -45.73756,0.104205 c 0.650082,-0.129639 1.824016,0.02044 2.419318,0.257863 0.451816,0.180205 0.921943,0.755434 1.039018,1.234393 0.0637,0.260521 0.0795,0.848075 0,1.08559 -0.153635,0.459184 -0.131134,0.971484 -0.322242,1.404889 -0.182516,0.413943 -0.601933,1.267072 -0.966085,1.596468 -0.210508,0.190419 -0.629694,0.23149 -0.675016,-0.01088 -0.396694,-2.12115 -1.218394,-4.04879 -1.518235,-5.699078 m 9.111705,0.53739 c 0,0 0.421565,2.479873 0.737336,3.703796 0.122155,0.473455 0.446896,1.404889 0.446896,1.404889 m 9.896574,-4.234611 c -1.846109,-0.801436 -1.777916,1.720169 -1.274676,2.382709 0.234857,0.309205 1.058237,0.234555 1.350648,0.33015 0.174426,0.05708 0.411996,0.271397 0.405136,0.436153 -0.006,0.134742 -0.0965,0.225062 -0.218148,0.266296 -0.529341,0.179337 -1.04419,0.743583 -1.61159,0.65207 m -1.690312,-2.0439 c -0.145846,0.715853 -1.167663,2.225184 -2.058346,1.870762 -0.627023,-0.250323 -0.789789,-1.216171 -0.752637,-1.703103 0.0338,-0.443088 0.0118,-0.92427 0.339393,-1.214707 1.701922,-1.509003 2.400899,1.012603 2.895796,2.044873 0.174516,0.367179 0.124025,0.381229 0.322231,0.70244 M 82.966332,76.617663 c -0.160564,0.673015 -0.900722,1.406826 -1.37297,1.89609 -0.171825,0.178003 -0.390595,0.231407 -0.623282,0.14879 -0.206108,-0.07327 -0.395797,-0.252243 -0.478069,-0.468089 -0.29044,-0.765026 -0.243728,-1.862027 -0.0659,-2.607345 0.158794,-0.665474 1.362039,-1.105087 1.764925,-0.983381 0.482056,0.145644 0.374361,0.820506 0.57912,1.437706 0.180956,0.545415 0.233547,0.751363 0.433137,1.259001 0.101452,0.258026 0.152275,0.49869 0.239347,0.766302 0.055,0.169181 0.120914,0.370386 0.196958,0.51087 0.0411,0.07597 0.102324,0.19252 0.197578,0.212645 0.282459,0.0597 0.249317,-0.254796 0.249317,-0.46808"
       id="path125"
       sodipodi:nodetypes="cccssssccccssssccssccsccscsssccsssscsssssccscccccsssccccssccssssccssccsccscccccsscscsccsccsssccccsssssccsssccssccccssssccccsccsccsssccsssssccsssccccsssscccccccsssssccssscccssssccsssssscccsscssssscsscsccsssssscccsssssscccssscscssccsssssscscscssccsssccssccsscccssccssccccccsssssssccssssssssssccsssssssccssssssccsccsccsccccsssccccssccsccccssscccscccccccssscscccccscsccscssssscssssscccsccscssccccssccccsccccssccsssssccssccssssccsccsssccsssccccccssssssccsccssssssccssssssccsssssssccssccccsssssccsssssccssssssccsssccssscccssscccsssssssssssccsssssssscccsccssssssssccsssssssccsccsssssssccsssccccccsssscccsssssssssccsssccsssccsssssccsscccscccccccccscssssccssssccssscccsssccssssccssssscsssssssssscssssscccccsssccssssssssssccsccssccssccsssssssccssssssssssssssssscccccccsccssssccssccscccsssssccccsssscccccsssccsssscssssssscssscsccssssccsscsssssccssssccsssssccscccsssssssssccssssssccsccsssscccsscccsscsssssssc" /></g></svg>
