<?xml version="1.0" encoding="UTF-8" standalone="no"?>
<!-- Created with Inkscape (http://www.inkscape.org/) -->

<svg
   version="1.1"
   id="svg7727"
   width="4512"
   height="2048"
   viewBox="0 0 4512 2048"
   sodipodi:docname="FrankN - Stake - Envelope65.svg"
   inkscape:version="1.2.1 (9c6d41e410, 2022-07-14)"
   xmlns:inkscape="http://www.inkscape.org/namespaces/inkscape"
   xmlns:sodipodi="http://sodipodi.sourceforge.net/DTD/sodipodi-0.dtd"
   xmlns="http://www.w3.org/2000/svg"
   xmlns:svg="http://www.w3.org/2000/svg">
  <defs
     id="defs7731" />
  <sodipodi:namedview
     id="namedview7729"
     pagecolor="#ffffff"
     bordercolor="#000000"
     borderopacity="0.25"
     inkscape:showpageshadow="2"
     inkscape:pageopacity="0.0"
     inkscape:pagecheckerboard="0"
     inkscape:deskcolor="#d1d1d1"
     showgrid="false"
     inkscape:zoom="0.12817383"
     inkscape:cx="1872.4571"
     inkscape:cy="323.77904"
     inkscape:window-width="1920"
     inkscape:window-height="1051"
     inkscape:window-x="-9"
     inkscape:window-y="-9"
     inkscape:window-maximized="1"
     inkscape:current-layer="g7733" />
  <g
     inkscape:groupmode="layer"
     inkscape:label="Image"
     id="g7733">
    <path
       id="path8196"
       style="fill:none;stroke:#584a57;stroke-width:1.25854"
       d="m 506.73147,413.12236 c 5.94526,5.54902 14.84103,12.78093 6.05533,19.80578 -1.47824,1.18198 -4.00105,2.23644 -5.85106,1.40438 -4.31394,-1.94026 0.27613,-16.16662 1.88227,-19.1364 m -11.89179,-3.92439 c 0.68013,9.51032 1.16961,20.69963 2.77232,29.22958 m -1.09434,-29.79397 c -2.4976,10.56573 -16.3125,24.1282 4.66918,17.83702 m -23.06861,-16.65575 c -0.0676,1.29827 -0.0438,2.59868 -0.0438,3.89815 0,4.83119 -0.39261,-3.11383 2.74313,-3.74065 2.69485,-0.53869 3.22673,10.17651 2.87446,11.89134 -0.79676,3.87864 -8.79917,11.70662 -7.42689,6.8513 2.17958,-7.71163 8.78174,5.28021 11.87719,0.59063 m -29.2461,-18.68271 c 3.55361,0.0295 7.00796,-0.67225 10.59317,-0.74813 m -11.5124,3.60941 c 0.089,2.66637 0.5494,5.41588 1.76552,7.82254 1.3588,2.68901 8.69939,-7.63189 9.73229,3.51754 0.56365,6.08424 -9.1554,7.94532 -11.3665,2.31001 m -17.70788,-15.45583 c 1.632,1.61963 10.00561,-1.58206 10.79746,-0.1575 0.27356,0.49217 -0.86066,7.24767 -0.77334,8.30819 0.38039,4.61925 1.30813,9.73196 2.21786,14.09635 m -42.92158,-19.24154 c -2.35372,9.23665 -4.77534,18.62956 -6.11369,28.14021 m -2.84527,-27.15583 c 2.98082,8.23707 8.92491,14.17801 14.32851,20.65891 m -24.65737,-18.68204 c -2.65772,6.84847 3.15038,14.52439 5.00476,21.14453 m -12.00852,-21.15766 c 0.91261,-0.77509 1.94406,-0.85697 3.09334,-0.76125 7.3633,0.61328 1.63582,3.15843 11.99392,0.26249 m -36.21605,25.67322 c 2.3788,0.68532 5.25493,0.94004 6.69734,3.0319 m -14.43065,-17.94202 c -1.12104,-0.93722 -2.06443,-0.99596 -2.65559,0.45939 -0.88512,2.17903 -2.17319,8.02074 -0.71496,10.18507 1.50623,2.23556 12.19733,3.33016 1.53207,6.40505 m -13.19039,-12.52134 c -7.14852,-6.55152 -10.50787,11.34589 -4.72753,13.29572 4.06369,1.37077 4.21585,-17.40568 5.79268,-14.56886 2.50741,4.51096 3.56192,10.83276 5.38414,15.75012 m -28.74736,-23.42667 c 2.55868,9.06558 3.37535,18.68624 6.37633,27.61521 m -15.49575,-25.55457 c 2.16346,7.33437 3.13641,14.89194 5.7343,22.08955 m -10.95924,-12.99683 c -6.49665,-8.29095 -15.17919,12.1095 -8.76926,12.52136 4.68667,0.30112 5.89009,-5.15001 6.69732,-8.78069 0.40347,-1.8146 0.56602,-4.23576 0.23346,-6.0638 -0.078,-0.42883 -0.0513,-1.72485 -0.1459,-1.29939 -1.04603,4.70465 2.78353,13.17228 5.55922,16.892 m -37.29496,-19.35952 c 18.12333,-8.82375 19.27957,10.92601 11.07468,23.12643 m -10.85581,-26.84084 c 3.48679,8.02216 4.21682,16.78195 8.46287,24.58332 m 21.72055,-60.74814 c 0.18128,2.54237 0.292,5.12712 0.62742,7.65192 2.15813,16.24568 14.34442,3.10709 6.62437,-6.61504 -1.4239,-1.79317 -2.94809,-2.37663 -5.03395,-1.61438 m -28.62781,0.72187 c 8.03959,-10.10849 13.77408,6.41976 4.50865,8.45256 -1.43047,0.31384 3.19011,-9.30273 6.18664,-6.14253 1.64445,1.73425 1.06632,18.45595 -1.4591,13.9126 M 268.58642,388.8821 c 2.4005,6.19871 3.1007,12.90092 5.32576,19.13639 m 17.71366,-21.27579 c 2.12537,7.23272 4.08831,14.55539 6.47845,21.72204 m 19.56673,-20.31764 c 0.73562,6.55848 1.79996,13.27472 4.01257,19.51702 m 22.06181,-24.46519 c 0.48039,-0.62954 0.98886,-1.875 1.88226,-2.10002 4.21654,-1.06202 10.62417,4.32453 9.84902,8.80695 -0.37513,2.16919 -4.09762,5.02434 -5.71974,6.20817 m -3.49512,-15.23932 c -3.53888,8.94236 10.304,24.31597 0.9776,23.2183 m 10.3743,-14.66074 c -0.13796,1.83483 0.11528,3.56002 0.56906,5.32879 0.5993,2.33603 1.85929,4.09607 2.9474,6.20818 3.2567,6.3215 -4.79985,-7.57344 3.73534,-10.98571 m 1.76916,5.56545 c -0.45636,-1.72838 2.47184,-2.23249 4.04174,-2.8744 16.29707,-6.66346 -4.14539,-8.81865 -0.3064,5.52567 1.38933,5.19127 7.82815,6.79245 10.06787,1.31251 m 5.92987,-12.1058 c -0.23179,-0.81804 -0.67223,-2.28058 -1.80929,-1.66689 -1.37631,0.74281 -1.5819,2.44359 -1.85309,3.88503 -1.57787,8.38697 7.75637,8.97269 6.93081,11.49758 -0.46749,1.42974 -6.03655,1.3244 -7.51445,2.76941 m 7.93759,-13.00697 c 5.29303,1.20094 11.4521,1.05495 16.67766,-0.51189 m -10.52785,-11.38582 c -0.58982,7.51345 3.70059,16.52774 5.09232,22.28642 m 9.05875,-13.76822 c -5.26862,-0.99452 -6.1431,13.99224 1.35699,12.46884 7.43834,-1.51087 3.80809,-15.85494 -0.18969,-12.25884 -0.89917,0.80881 -1.35395,-0.93037 -0.71496,1.53563 m 9.5563,-2.69214 c 0.0195,1.35074 0.1947,2.69077 0.36478,4.02941 0.22979,1.80858 1.13153,3.57886 1.67798,5.31567 2.32431,7.38738 -0.38427,0.21381 0.87548,-3.36003 4.74446,-13.45989 7.25042,2.12835 7.7333,6.03754 0.1936,1.5674 0.48479,4.65667 0.59824,5.4338 m 39.58726,-23.80499 c 10.31602,-8.75542 19.60857,14.35964 3.92501,18.99202 m -2.17407,-20.58015 c 0.30071,7.5365 3.18181,14.65587 6.11368,21.4858 m -26.40997,-19.96329 c 6.88334,-9.00835 13.57732,5.34856 4.20226,10.3557 -0.57722,0.3083 -2.45966,1.10138 -3.00578,0.51189 -1.76156,-1.9015 4.9406,-3.30289 6.27418,-2.59878 5.05266,2.66771 9.65694,9.70162 10.09708,9.30569 0.2279,-0.205 0.11206,-1.55131 0.13132,-1.81126 m -18.48698,-19.46451 c 1.65859,7.43327 4.62705,14.52537 6.84325,21.77453 m 212.68824,-37.23775 c 1.02907,2.81909 6.42088,1.9173 7.79167,3.76691 0.53235,0.71829 -0.30327,2.74646 -0.49609,3.46502 -1.57221,5.85901 0.0305,12.01306 -0.78792,17.90264 m -15.80222,-23.17894 c 0.25552,-0.9863 -0.89006,8.55454 -0.89006,7.92757 0,-9.48321 8.58531,-6.03205 5.99697,2.37565 -1.59054,5.16649 -9.75985,11.54168 -8.25858,8.91194 4.25244,-7.44905 7.94843,8.88042 11.527,-0.53813 m -24.0608,-14.01761 c -2.69138,1.15654 -3.53398,3.87148 -4.14388,6.52317 -0.25084,1.09059 -0.45297,2.20347 -0.46692,3.32065 -0.16684,13.35645 17.37754,0.14384 9.41129,-8.40006 -1.31969,-1.41537 -3.0592,-1.21906 -4.47949,-0.32813 m -19.27489,-2.29689 c 6.18612,2.4655 12.29416,0.42684 18.70583,0.24937 m -17.61149,-1.19438 c -3.18709,24.96603 10.57856,1.52224 10.57856,13.68948 0,6.82819 -9.39329,6.52624 -12.78184,3.47816 m -14.95233,-2.26173 c 2.88111,-0.31779 5.73548,-0.8859 8.5796,-1.4175 m -24.52771,-5.84068 c -0.0602,2.04801 -0.70006,3.96525 -1.22565,5.91943 -6.57612,24.45019 24.43854,2.12931 2.85986,-6.15569 m -12.69596,-1.3041 c 2.16428,6.18168 4.09122,13.62165 6.69734,19.16266 m -17.55314,-19.64828 c 2.07216,6.40833 4.08342,12.95243 5.54464,19.4514 m -48.99819,-17.23705 c 5.84195,0.6892 11.06843,-2.4489 16.89654,-1.74565 m -12.98611,10.50008 c 3.55356,-0.84089 7.34429,-1.20312 10.81202,-2.3625 m -11.71669,-6.79881 c -2.448,5.93007 2.503,9.75715 4.1439,14.92324 0.68652,2.16145 -10.5582,8.45082 0.4669,5.14503 1.25958,-0.37766 2.48716,-0.76376 3.69157,-1.29937 1.1607,-0.51618 2.38868,-0.72921 3.51646,-0.90565 m -24.23588,-15.44823 c -0.81747,7.69493 3.57757,14.57072 5.64677,21.72203 m -11.81882,-21.32829 c 4.67723,0.60335 9.67317,-1.25094 14.05126,0.57752 m -17.50937,-1.85065 c -0.35427,-1.10408 2.2854,9.173 1.92604,8.20319 -0.5467,-1.47531 -2.53348,-9.83043 -5.34036,-7.50756 -1.21834,1.00826 -1.30652,3.02444 -1.45911,4.4363 -1.13275,10.48033 11.76256,12.76396 10.73907,16.05199 -0.61042,1.96104 -10.25757,3.72768 -10.25757,-2.49377 m 11.37155,-50.1381 c 0.6294,6.89003 1.25392,13.92346 2.7869,20.69829 m -2.81609,-10.4082 c -11.07322,-11.2603 -11.56193,26.8626 0.20427,5.05316 m -21.41631,-3.42308 c 1.83182,0.94056 4.26416,0.62255 6.18664,0 9.07275,-2.93803 -5.39078,-8.8084 -4.74212,5.00066 0.30086,6.40496 6.20589,5.63981 9.33833,1.65376 m -19.68345,-5.52567 c 2.56974,-1.01557 5.10138,-1.7148 7.74789,-0.98439 m -4.15847,-11.93071 c -2.41315,8.28473 3.42453,17.21539 4.05634,24.36018 m -12.94234,-14.62135 c 0.0896,5.57239 1.41041,11.0272 4.34816,15.75012 m -4.24545,-26.62108 c -0.37158,-0.97533 -0.86477,-1.07641 -1.57583,-1.50939 m -19.45,1.10251 c -0.69605,-0.49764 -1.69781,-0.26252 -2.55346,-0.26252 m 0,10.90696 c -0.0918,2.38481 -0.14971,4.63693 0.4961,6.93006 0.65406,2.3224 1.35938,4.58922 2.23245,6.83818 2.82852,7.28602 -3.75439,-8.39484 3.88125,-11.30072 3.24245,-1.23397 4.18679,10.39655 3.64778,10.44759 -2.72636,0.25815 -2.66701,-13.78892 3.51647,-11.47133 3.83458,1.4372 3.7516,10.11999 4.9318,13.07259 m -26.62883,-13.15134 c 1.8209,5.0003 2.48272,10.46868 4.66916,15.31698 m -19.771,-25.43644 c 0.0349,1.46285 0.20864,2.95008 0.45233,4.39691 0.76753,4.55667 2.96104,8.82369 3.42893,13.45322 0.2102,2.08004 -1.61488,6.01882 -0.14592,7.83569 0.80835,0.9998 4.00196,-4.72422 9.71769,-2.55939 m -41.9397,-9.86224 c -5.64931,-3.95669 -6.97885,4.46234 -4.72753,8.13757 0.84298,1.37613 2.43185,3.55936 4.1293,3.84564 0.41131,0.0694 1.62479,0.26185 1.21106,0.31501 -3.09588,0.39784 -5.49986,2.45375 -7.92299,4.05566 m -11.48198,-9.12723 c 1.64077,-1.5701 3.40449,-3.04714 5.22363,-4.42315 5.99046,-4.5313 -5.01418,-4.40842 -3.07873,6.03754 0.72386,3.9068 5.39434,7.2267 7.82085,2.86128 M 384.7821,351.87352 c 4.67236,4.21073 -7.29676,15.48784 -7.64574,11.7207 -0.75373,-8.1358 13.66174,7.26484 14.53276,8.57069 m -13.86157,-24.03206 c 0.17606,7.72301 4.29347,15.76338 6.15745,22.47018 m -12.78361,-11.07732 c -4.56346,-6.44857 -11.11213,8.65146 -6.66814,10.97258 4.89233,2.55529 5.89481,-9.15429 5.89481,-11.68135 0,-1.43583 -0.0998,2.89038 0.14592,4.30504 0.40782,2.34785 2.76259,10.37502 6.39092,6.4313 m -28.32166,-6.98809 c 3.22142,-0.60969 6.80822,-1.12582 9.87819,-0.15751 m -7.26639,-10.90696 c 1.29277,7.38544 1.15666,17.15672 5.26741,23.79582 m -11.46478,-13.7045 c -0.76688,-0.88475 -0.58385,-7.11458 -2.29082,-6.47068 -3.71458,1.40122 -2.05448,9.95135 -0.18969,11.95696 2.06066,2.21628 7.02727,2.02822 6.68275,2.71691 -1.25051,2.4997 -7.80109,6.03348 -7.98135,1.60126 M 322.7557,358.93953 c 10.81605,-6.61737 18.91262,14.45073 3.47269,14.45073 m -2.01358,-14.89698 c -1.36669,4.09029 8.79381,27.58151 1.37156,24.37332 m -15.60981,-19.3138 c 2.03729,-0.28377 4.77013,-0.004 6.55142,-1.29937 6.22627,-4.52822 -2.68404,-6.98165 -3.1225,0.31499 -0.41322,6.87639 6.5801,11.96533 11.97932,6.72005 m -23.654,-5.12299 c 2.7808,-2.12995 6.29332,-3.16349 9.2216,-4.97441 0.0945,-0.0584 -1.38237,-0.2222 -1.72176,-0.27563 -0.95161,-0.14981 -3.09413,-1.25703 -3.96878,-0.87939 -1.22375,0.52839 -1.11593,4.46359 -1.16729,5.4338 -0.30109,5.68734 3.08942,11.14445 8.7255,5.84067 m -29.25525,-11.83883 c 2.28168,1.56185 2.43342,14.83135 6.01156,14.83135 0.79426,0 1.28337,-8.484 1.2986,-9.27944 0.0238,-1.24305 -0.13131,-4.97082 -0.13131,-3.72753 0,16.70133 16.2232,14.99553 5.77809,-1.62752 m -24.57102,-10.05762 c -0.21894,-0.47072 3.10328,7.98546 2.97659,7.41568 -0.79626,-3.58131 -8.37339,-13.43603 -8.15643,-4.06878 0.0505,2.1802 0.49329,5.06938 1.60502,6.96943 0.6492,1.10954 13.32108,11.34028 9.60096,12.45573 -2.82949,0.84839 -6.3887,-0.60539 -8.95896,-0.76126 m 55.35459,-100.5776 c -1.35701,-10.1806 -16.0889,9.77712 -9.10487,13.24323 1.39374,0.6917 2.69373,-0.56967 3.57484,-1.48314 7.34688,-7.61682 6.85782,-17.96019 6.85782,-7.3763 0,1.31598 0.23493,2.65215 0.43773,3.95065 0.34348,2.19911 0.51211,4.42001 0.78794,6.62818 0.26423,2.11541 0.58185,4.60374 0.70036,6.54942 m -23.04112,-23.37093 c 1.59379,-0.12011 2.97564,0.0623 4.31899,0.95813 3.29649,2.1984 1.52605,6.25667 -0.48152,8.64944 -0.197,0.23479 -3.24616,3.50406 -3.34136,3.01877 -0.91433,-4.66056 11.44605,-3.65157 8.65254,3.63566 -1.35344,3.53061 -8.67812,10.02252 -9.64475,3.16315 m -12.37328,-21.99767 c 0.0963,-0.71141 -1.58748,7.16384 -1.78013,6.47067 -1.28084,-4.6086 6.36328,-5.69486 5.74891,4.25254 -0.21801,3.52996 -7.39953,13.64688 -6.39091,8.20318 1.5526,-8.37964 10.0769,9.46978 10.66613,-2.32314 M 273.46231,265.5971 c -2.95371,2.72425 -2.67085,21.35349 3.4581,16.81325 1.27583,-0.94511 5.72203,-9.26065 1.21106,-7.77005 -2.15327,0.71152 0.7547,9.06979 4.90263,3.08439 m -21.12781,-12.16143 c 2.11167,7.13696 2.50901,14.7751 4.31897,21.87955 m -5.93859,-19.92391 c -4.14973,11.8592 -11.5661,16.19652 6.30336,12.56072 m -35.71375,-12.22813 c 0.98092,7.16347 4.15091,15.77538 6.69735,21.32829 m -21.7554,-16.27513 c 5.60579,6.0499 11.76367,10.91854 18.42862,15.60575 m -14.82461,-20.1339 c -1.15313,7.93873 0.94167,15.17669 3.53106,22.52267 M 198.29426,266.4471 c 5.1083,-0.28074 10.60527,-0.11788 15.10184,2.52002 m -15.11643,18.36202 c 5.55526,3.07383 10.23999,2.54791 15.01429,-1.10251 m -10.11165,-19.79265 c -1.33767,8.34744 2.99956,15.82021 5.53003,23.3233 m -33.49808,-6.30912 c 2.68756,2.41038 5.63032,4.47816 7.48525,7.62568 m -12.95692,-16.262 c -3.68641,-9.65937 -5.10363,4.67844 -3.29761,7.92756 1.05734,1.9022 5.8025,2.349 5.29659,4.73817 -0.30354,1.43348 -3.2065,0.36193 -4.36276,-0.53813 m -11.24977,-22.62768 c 0.50848,1.90478 1.56059,3.51032 2.23246,5.36817 m -1.78013,1.44376 c -0.17087,5.42755 1.05468,11.02247 3.32678,15.38262 m -12.53379,-19.43828 c 1.12875,6.89994 2.17297,14.81101 4.93181,20.80329 m -13.64272,-10.84133 c -1.28423,1.89252 -5.28323,11.98385 -0.70037,12.46884 1.69901,0.1798 2.77241,-1.25915 3.58942,-2.55939 5.07945,-8.08379 -3.46906,-13.3442 -2.88905,-9.90945 z m -19.37703,5.27629 c 8.30461,-25.47168 18.94449,14.72294 5.924,8.33444 m -5.77809,-14.51637 c 2.99239,8.96633 6.84398,17.76126 9.11946,26.97209 M 111.3168,278.20381 c -2.17229,-0.52731 -4.16994,1.42948 -5.19445,3.2419 -0.66785,1.18148 -1.27495,2.43754 -1.51748,3.78003 -2.50267,13.85365 8.74812,4.08877 8.60878,-6.0638 -0.001,-0.0696 -0.12719,-1.96876 -0.20428,-1.96876 -1.81566,0 2.82021,15.98986 3.25383,16.7345 M 88.576542,277.50357 c -0.26634,-1.14082 3.92501,16.24252 3.92501,15.18574 0,-2.14019 -1.6221,-4.13708 -1.35697,-6.65443 0.21475,-2.03901 1.47358,-3.80988 2.72854,-5.34191 6.02572,-7.3561 7.660348,8.37484 7.660348,11.51071 M 79.084672,279.4205 c -6.23234,-3.27628 -9.66731,15.38676 -4.15848,15.01511 4.77144,-0.3219 4.88013,-8.30488 5.48627,-11.57634 0.22833,-1.23231 0.46034,-2.51387 0.51069,-3.7669 0.0151,-0.37598 0.0146,-1.50504 0.0146,-1.12876 0,2.94315 -1.4227,18.00863 4.66916,16.07825 m -14.56195,-20.92141 c -0.9851,0.53715 -2.07872,0.7905 -3.1371,1.10251 m -3.38514,5.93254 c 0.95811,4.58282 1.58387,9.45504 3.23923,13.80761 m -10.66613,-22.10267 c -3.18864,8.4428 -0.0864,15.51592 2.64099,23.1133 m -4.39193,-10.11945 c 0.11694,-1.77086 -1.25358,-2.72751 -2.97659,-2.57252 -9.63042,0.86628 -4.75039,18.97147 -0.29183,12.61322 1.18795,-1.6941 2.37438,-3.71753 3.18087,-5.61754 0.63781,-1.5026 0.78599,-3.1202 0.89006,-4.72504 m -31.06354,0.16966 c 0.12342,-0.5433 5.36236,14.56066 5.41331,13.87323 0.18269,-2.46505 -1.97961,-4.90244 -1.42993,-7.59944 0.563,-2.76236 6.39574,-10.68788 9.48424,-6.33942 2.33233,3.28381 1.55758,10.89633 1.9698,14.50324 M 9.894467,297.58466 c 4.537425,-0.9726 9.225535,-1.38373 13.876175,-1.32563 M 7.092969,271.08508 c 3.55422,2.54691 8.035333,2.4202 12.037693,3.25503 m -6.21583,-0.55125 c -2.578911,9.05624 4.75728,15.52823 6.90161,22.83767 m -6.92477,-60.59223 c 2.83561,7.08987 3.28014,17.20132 6.12828,23.29705 m -7.966759,-26.07957 c 2.586579,2.37556 -5.278241,19.47937 -5.004762,19.70077 0.136102,0.11019 13.868511,-2.30896 15.554161,-2.34939 m 3.58942,-5.69629 c 0.521,-2.2212 1.25607,-5.02692 3.99797,-5.02692 8.97829,0 2.77509,22.40788 -2.26163,16.367 -2.70704,-3.24674 7.45406,-4.34262 12.41707,3.17628 m 3.32142,-13.72424 c 0.33506,-16.14196 10.10496,6.01056 4.56703,12.95447 -0.45137,0.56597 -1.12044,1.63018 -1.99898,1.40439 -3.21466,-0.82619 -1.94701,-7.2172 2.20326,-5.99818 2.73769,0.80413 5.21126,7.88626 8.15645,4.75129 m 5.11608,-21.63139 c -1.78944,-4.49206 -4.36572,-1.01346 -4.59621,2.16564 -0.72555,10.00735 4.87945,10.39786 10.98713,16.13075 2.11018,1.98069 -6.69733,4.40519 -6.69733,-0.70876 0,-2.68016 9.30083,-17.33871 0.43773,-16.13075 m 38.43036,-7.14221 c -0.0214,-0.20958 2.597218,9.10253 2.597218,9.01695 0,-6.51133 -7.751068,-10.8676 -8.769278,-2.44127 -0.69176,5.72477 7.831468,26.72747 12.490018,11.53696 m -6.668148,-2.57252 c 17.323408,3.54716 6.736838,-6.16398 12.913158,8.79382 m 4.20225,-15.67137 c -0.36132,1.56779 -1.08721,2.96248 -1.3278,4.56754 -0.54015,3.60365 3.43821,15.13929 7.73331,7.57318 1.92626,-3.39324 -1.05621,-12.49749 -5.35495,-8.32132 m 13.00501,-4.53031 c -4.37039,2.43892 -5.85919,15.1826 -0.56905,16.89201 9.15808,2.95925 2.40443,-10.20367 0.20427,-12.63948 m 11.8772,-3.32065 c -4.83209,-4.88994 -5.96996,7.00996 -3.56024,9.3582 0.87403,0.85174 10.68693,1.84742 5.86564,4.34441 -1.66151,0.86051 -3.52136,1.27747 -5.25282,2.00814 m 5.76351,-11.97009 c 1.60374,1.7031 3.94218,1.84752 5.88023,0.525 1.93847,-1.32281 5.86541,-6.8797 0.42314,-6.06379 -5.83477,0.87475 -1.92965,24.99417 9.13406,9.16131 m 14.5892,-11.96547 c 0.27387,-1.81209 1.20475,-3.52243 2.40754,-4.89567 10.38272,-11.85401 10.81526,17.40582 2.53886,12.4426 -1.43456,-0.86028 -0.34922,-2.45805 1.05057,-2.32314 5.06942,0.48858 13.62948,6.46655 15.37905,11.31383 m -20.54433,-21.93204 c 2.31075,6.78668 4.25116,14.19663 7.63118,20.56703 m 13.6719,-15.63199 c -2.19753,1.81557 -2.49798,5.37194 -2.962,8.08506 -1.08452,6.34106 5.90549,15.69378 7.42689,6.96943 1.68054,-9.63708 -4.83702,-17.15969 -5.58841,-7.61256 m 17.81578,1.16813 c -1.42802,-1.68455 -1.21231,-4.38966 -2.59723,-6.05067 -2.88397,-3.45893 -9.44828,21.00365 5.44251,13.30886 1.21043,-0.6255 2.08924,-1.5559 2.90363,-2.57252 m 6.4726,-16.62828 c 1.63247,4.71308 -6.24543,13.93134 -6.75571,12.78385 -2.34847,-5.28128 12.02664,5.78412 13.46763,7.80944 m -14.22636,-22.3783 c -2.79091,8.36201 2.6926,15.00742 4.34816,22.73267 m 49.05541,-7.35005 c -0.1292,1.02345 -0.57737,1.46013 -1.06515,2.20501 M 256.5176,232.28544 c -0.0758,6.8219 3.14646,13.35851 5.12149,19.3989 m -10.53482,-19.30702 c 2.92125,0.94804 6.52831,0.3659 9.49884,-0.23625 m -12.94234,0.40687 c -0.10598,-1.72337 1.57583,10.3827 1.57583,8.43944 0,-3.42315 -5.47609,-11.89191 -7.41228,-5.11879 -2.22459,7.78193 3.84779,22.60159 11.17681,11.06446 m -31.53426,-50.43858 c 1.47961,7.2123 3.17884,14.40244 5.4425,21.40704 m -8.11269,-15.36949 c 3.72322,1.19881 7.98082,1.50766 11.57079,0.13125 m -15.9773,-12.10135 c -0.68875,0.34717 -1.37263,0.74405 -2.04277,1.11564 m 1.24025,13.13822 c 1.73055,3.63003 1.51007,8.13008 3.51647,11.41884 m -12.76726,-10.21133 c -3.11035,-11.68218 -12.66502,8.62414 -5.67595,10.39508 10.37406,2.62866 2.54088,-31.36116 6.85785,-13.29572 0.43929,1.83835 1.09871,3.60852 1.54665,5.44691 0.61958,2.5428 1.45566,5.85013 2.34917,7.88819 m -26.04128,-7.37903 c 1.99497,-3.36097 5.47547,-3.71611 8.44827,-5.05316 0.10495,-0.0472 -2.91373,-2.28666 -3.93962,-1.62751 -1.98389,1.27469 -1.68167,6.04695 -1.40075,8.03256 0.87157,6.15996 5.87854,10.3154 8.7401,2.25752 m -18.55993,-10.67071 c -0.0583,1.92754 -0.42353,4.00589 0.0292,5.9063 0.67893,2.84999 1.81495,5.60629 3.64778,7.91443 0.26704,0.33629 1.12715,1.29608 0.84629,0.97126 -3.43908,-3.9774 -3.53347,-12.16632 1.9844,-13.66323 m -14.23406,-5.55341 c 0.005,-0.51057 1.9029,8.06333 2.02817,7.61256 1.92168,-6.9144 -6.7251,-16.10727 -8.11266,-4.16065 -0.68496,5.89726 7.58469,24.38562 11.1914,10.86758 m -39.2484,-15.94525 c -0.2175,5.55039 1.90535,10.88968 3.86665,15.98637 0.4723,1.22732 1.75289,4.95519 1.40075,3.68815 -0.65688,-2.36353 -2.12504,-17.89728 4.21684,-10.13258 2.88877,3.53688 2.80266,10.35904 3.16628,13.46636 m -19.68345,-15.18575 c -0.0609,-2.14949 -2.29839,-2.21762 -3.21005,-0.5775 -7.93745,14.27987 7.51346,10.19339 8.01053,12.6526 0.57662,2.85276 -6.29457,1.87311 -7.17884,1.66689 m -11.51443,-11.24268 c -4.64027,-8.21372 -10.24338,10.22438 -4.20225,11.43196 4.04326,0.80823 6.0307,-5.6116 6.27419,-8.62319 0.11676,-1.44414 -0.26885,-5.74908 -0.4961,-4.31816 -0.51347,3.23318 3.63114,11.29061 4.87345,13.83386 M 98.021792,195.69691 c -0.3377,-0.2321 4.291938,9.89121 4.027158,9.71258 -1.91049,-1.2889 -1.38038,-5.54389 -3.808288,-6.86443 -0.94487,-0.51391 -2.17351,-0.38859 -2.90364,0.47251 -6.11658,7.21376 6.765738,23.19463 10.053298,15.98637 m -41.496898,-5.36468 c 10.17432,1.67228 3.5994,-6.46877 2.42213,-5.14504 -2.01342,2.2639 0.31278,11.9456 2.10112,14.04386 4.59019,5.38564 8.03917,-3.99535 7.26639,-7.52069 m -19.90232,-8.38694 c 1.91164,-1.06766 -3.28761,13.04261 -4.47948,10.04071 -1.87853,-4.73141 9.19107,4.1018 12.91317,8.15068 m -15.05806,-23.03455 c 1.44949,7.77684 4.23889,17.07225 7.04752,23.62518 m -14.02458,-13.56663 c -7.29019,-8.266 -9.762,8.21089 -6.69733,13.1251 4.21006,6.75083 7.73981,-6.92562 6.23042,-10.99884 -0.13762,-0.37135 0.30721,0.73279 0.40855,1.11564 0.41761,1.57773 0.84839,3.16597 1.32779,4.72503 0.80024,2.60249 3.5079,10.23151 5.924,4.41004 m -31.56883,-11.08713 c 4.73389,-1.16606 10.42287,0.7892 14.15561,-2.04179 m -10.33813,-11.35976 c -0.84964,9.84895 6.63773,17.74813 7.0778,27.24857 m -14.83656,-20.5478 c -2.623388,-1.01597 -2.655127,-5.2203 -4.993668,-6.42234 -2.111358,-1.08527 -3.239694,6.20025 -3.239694,7.33187 0,5.97011 10.681052,9.96398 9.471462,14.5338 -0.62668,2.36761 -9.482312,4.03221 -8.212727,1.11371" />
  </g>
</svg>
