<?xml version="1.0" encoding="UTF-8" standalone="no"?>
<!-- Created with Inkscape (http://www.inkscape.org/) -->

<svg
   width="3000"
   height="1998.207"
   viewBox="0 0 793.74998 528.69227"
   version="1.1"
   id="svg5"
   xml:space="preserve"
   inkscape:version="1.2.1 (9c6d41e410, 2022-07-14)"
   sodipodi:docname="FrankN - Stake - Envelope44.svg"
   xmlns:inkscape="http://www.inkscape.org/namespaces/inkscape"
   xmlns:sodipodi="http://sodipodi.sourceforge.net/DTD/sodipodi-0.dtd"
   xmlns="http://www.w3.org/2000/svg"
   xmlns:svg="http://www.w3.org/2000/svg"><sodipodi:namedview
     id="namedview7"
     pagecolor="#ffffff"
     bordercolor="#000000"
     borderopacity="0.25"
     inkscape:showpageshadow="2"
     inkscape:pageopacity="0.0"
     inkscape:pagecheckerboard="0"
     inkscape:deskcolor="#d1d1d1"
     inkscape:document-units="px"
     showgrid="false"
     inkscape:zoom="0.11313708"
     inkscape:cx="1781.0252"
     inkscape:cy="1683.798"
     inkscape:window-width="1366"
     inkscape:window-height="706"
     inkscape:window-x="-8"
     inkscape:window-y="-8"
     inkscape:window-maximized="1"
     inkscape:current-layer="layer1" /><defs
     id="defs2" /><g
     inkscape:label="Layer 1"
     inkscape:groupmode="layer"
     id="layer1"><path
       style="fill:none;stroke:#4b3b44;stroke-width:0.0629058"
       d="M 2.29735,8.3155571 C 2.2342459,8.6594235 2.3003574,9.472672 2.9878677,9.8179282 3.8213869,10.236434 5.099898,9.8244057 5.1849633,8.9459301 5.2098661,8.6886808 5.0936572,8.460372 4.871091,8.3260902 3.8241576,7.6944786 2.6800956,7.8290434 2.506575,6.8656965 2.2895485,5.6608101 0.60104889,3.1528692 1.7532914,2.0223192 1.857298,1.9202665 2.1591888,1.8556837 2.29735,1.8962428 2.4261686,1.9340383 2.5447176,2.1351202 2.6112205,2.2639673 2.9057031,2.8344804 3.3358715,3.464154 3.3645148,4.0290153 M 6.1893533,2.768264 c 0.004,0.1591703 0.066104,0.2600343 0.083708,0.441262 -0.028401,1.3105533 0.3859363,2.3165253 0.7522016,3.4822211 0.1019477,0.3259554 0.188054,0.6385785 0.2521884,0.9304042 0.037002,0.1670519 0.088706,0.2739502 0.1465107,0.4412548 0.1630017,0.8343254 1.0067515,2.0223669 -0.292961,2.0172059 M 25.586602,3.9029389 c 0.153752,0.6459938 1.015744,2.2487697 0.680038,1.765048 -0.0802,-0.1155664 0.137391,0.1577432 -0.240616,-0.34671 C 25.536889,4.6685155 25.10946,3.4316366 24.205576,4.2076004 22.850739,5.3706981 23.636095,7.933292 24.100929,9.1350465 c 0.110288,0.2851382 0.220406,0.5791225 0.376645,0.8194894 0.149652,0.2302161 0.361776,0.4983071 0.606844,0.6828821 0.658566,0.496039 1.637466,-0.01383 1.757674,-0.430736 M 12.529582,3.7768625 c 0.127998,0.8506615 0.265567,1.6925908 0.554479,2.5214956 0.210275,0.6010001 0.321023,1.1296229 0.394496,1.9847902 0.0484,0.5891572 -0.005,1.7705607 -0.005,1.7705607 M 45.611185,8.6937845 C 45.377849,9.1177121 45.074787,9.3533703 44.669568,9.4607652 44.217296,9.5806203 43.766864,9.4516184 43.414089,9.1245152 42.742182,8.5015575 42.516487,7.55649 42.472474,6.8656965 c -0.0323,-0.5064641 -0.0559,-1.037007 0,-1.5128952 0.171131,-1.4568595 2.156261,-1.2473906 2.449271,-0.1007216 M 56.249577,4.2384486 55.655044,4.0290153 m 3.201485,0.1260693 c 0,0 0.09491,0.6321632 0.167602,0.9455639 0.07361,0.3174688 0.271819,0.9455658 0.271819,0.9455658 0.198366,0.6900443 0.360925,1.4199573 0.502186,1.8911226 0.0445,0.148559 0.0477,0.2716333 0.07341,0.441262 0.156151,0.5836798 0.383588,1.1839022 0.491515,1.7650481 M 58.354293,6.4244416 c 0.656789,0.00835 1.362737,0.062992 1.945999,0.063063 M 14.475138,4.5963821 c 0.649977,1.26404 -1.340883,3.2820611 -1.257169,2.8702486 0.11861,-0.5833542 1.540569,1.3390117 2.136003,1.920597 0.18456,0.1776348 0.27313,0.2182296 0.43942,0.3782274 0.253678,0.2441399 0.332394,0.3290519 0.56497,0.3782199 M 35.567267,4.9746095 c -0.0494,1.6803369 0.807767,3.3881088 1.25548,4.9169149 M 36.303289,8.3583193 c -0.522117,-1.1373318 1.325713,-2.9463717 2.454975,-1.8708145 0.733491,0.6986038 0.585061,1.9255423 0.763774,2.8997229 M 54.650625,5.0376441 c -0.07541,0.4109388 0.034,0.6614277 0,1.0085987 -0.123759,1.2618884 0.484235,3.024438 0.921384,4.4511912 M 54.624253,6.7254248 c -1.121779,0.429736 -1.657218,0.9622952 -1.898736,1.7792789 -0.1655,0.5598217 -0.303949,1.3444251 -0.0314,1.8280883 0.13569,0.240778 0.389747,0.342097 0.700989,0.241619 1.092667,-0.352749 1.55107,-1.2048861 1.638557,-1.8530758 M 33.244595,10.20671 C 33.399644,10.1371 33.89176,10.01909 33.997887,9.9440402 34.119136,9.8582792 34.293907,9.7435989 34.238495,9.576337 34.134566,9.2626266 33.604669,9.1310657 33.370143,8.9354327 33.148546,8.7505925 33.003046,8.559791 32.90982,8.3155856 c -0.189903,-0.4974276 -0.401929,-2.420831 0.272,-2.6370389 0.182554,-0.058598 0.382507,0.1293453 0.418518,0.1785868 0.139441,0.1906788 0.108598,0.5627294 -0.0419,0.9455498 M 16.32636,7.5306085 C 16.636981,7.1684343 17.536075,6.4449152 17.47777,6.1092774 17.437567,5.934472 17.196291,5.8167168 17.04883,5.7940918 16.916,5.7737179 16.749019,5.7592485 16.630312,5.8676577 c -0.410062,0.6089118 -0.306543,1.7563229 -0.272,2.3848951 0.0173,0.3120322 0.09251,0.668576 0.188323,0.9455568 0.08781,0.2539234 0.213376,0.5733283 0.43942,0.7459306 0.102447,0.078282 0.194095,0.1151628 0.313874,0.1786418 0.591321,0.305728 1.107167,0.02268 1.370547,-0.3572269 0.178031,-0.2573864 0.269489,-0.4890496 0.313871,-0.7564547 0.0261,-0.1571471 0.0575,-0.362087 0.08371,-0.5042967 0.025,-0.1356574 0.0424,-0.1980015 0.0523,-0.2521509 m 11.640341,0.3693724 c 0.08351,0.4059934 -0.632916,1.6040128 -1.2826,1.8159518 -0.485895,0.158499 -0.96181,-0.22394 -1.109029,-0.6724219 -0.441712,-1.3455337 -0.580391,-2.658614 0.544059,-3.593136 1.214756,-1.0095791 1.795035,2.1506533 1.935515,2.899723 0.0275,0.1464841 0.297703,1.0121989 0.408039,1.1977099 0.05911,0.09935 0.127369,0.23159 0.230187,0.304659 0.261959,0.186145 0.394476,-0.0198 0.502196,-0.430736 M 4.7450715,6.4244701 c 0,0 0.7939477,-0.078015 1.1927145,-0.1050832 C 6.759813,6.2813761 7.5256476,6.1255975 8.2604312,6.424463 M 46.301596,6.2353538 c 0.344724,1.110363 0.590782,2.4263172 1.192703,3.3409832 M 46.79359,7.9699415 c 0.0415,-0.6473551 0.432411,-2.7112971 1.830649,-1.7345877 m 0.746552,1.7332851 c 0.656946,-0.1206844 2.285732,-0.5533513 1.795798,-1.0398721 -1.255358,-1.2466273 -2.398521,1.6598046 -1.736773,2.6475702 0.09421,0.1361628 0.12932,0.238913 0.261577,0.3572288 0.08251,0.073753 0.141121,0.1233682 0.251098,0.1785852 0.853791,0.301234 1.390719,-0.2942228 1.820459,-0.6408973 0.06321,-0.051041 0.313433,-0.2667734 0.376647,-0.3046543 m 4.645278,-2.61606 c 0,0 0.0302,0.3371646 0.0628,0.5043037 0.0412,0.2118588 0.118577,0.4193684 0.167611,0.6303713 0.0243,0.1046881 0.0393,0.2103978 0.06281,0.3151856 0.0472,0.2107501 0.101478,0.4206657 0.15694,0.630373 0.08911,0.3369191 0.28248,1.0085986 0.28248,1.0085986 L 57.8521,10.837088 M 10.93302,8.748829 C 10.811241,9.3092041 10.346576,9.9242856 9.7043019,10.280247 9.3913692,10.444205 8.8842146,10.32049 8.731294,10.017571 8.4453016,9.4573307 7.9631886,8.5231771 8.3251137,7.9757143 10.372551,4.8786749 10.683412,8.442267 11.08533,9.1350465 c 0.176332,0.2964685 0.292721,0.8088353 0.627743,0.9770755 0.344124,0.17279 0.617696,-0.151913 0.627736,-0.5358135 m 33.898062,6.5558935 c -0.08981,-0.368415 -0.045,-0.614233 -0.101548,-0.858947 m -0.955807,0.658527 c 1.162093,-1.277409 2.958149,-0.809849 3.128911,0.515606 0.0249,0.257573 -0.0427,0.555992 -0.104649,0.819496 -0.0108,0.927957 -0.827116,1.318423 -1.422529,1.804894 m -19.297301,-0.23211 c -0.253318,0.58222 -0.648047,1.748254 -1.585902,1.915263 -0.247937,0.0442 -0.497857,-0.105084 -0.690509,-0.283669 -0.374257,-0.346898 -0.655165,-1.135187 -0.774195,-1.565413 -0.14356,-0.518861 -0.337814,-1.084427 -0.397619,-1.702007 -0.0378,-0.390451 -0.145948,-1.032859 0.07321,-1.260751 1.277959,-1.32855 2.038553,-0.617003 2.605133,0.441269 m 35.592961,-1.134682 0.447913,1.624718 c 0.184922,0.670795 -0.876292,-1.467535 -1.431583,-0.805229 -0.194191,0.231614 -0.440119,0.771955 -0.460132,1.134675 -0.0509,0.922422 -0.120067,2.134537 0.397359,2.836683 0.484083,0.656907 1.341005,0.569541 2.050834,0.220635 0.13214,-0.06501 0.340235,-0.226056 0.439422,-0.304661 m -47.969976,-0.60938 c -0.0514,-0.185073 -0.157941,-0.487855 -0.177842,-0.693414 -0.033,-0.341096 -0.224787,-0.940512 -0.129318,-1.260752 0.686496,-2.302876 2.029072,-0.36082 1.720579,0.871228 -0.204333,0.816085 -1.215215,1.631098 -1.214615,2.343682 3.56e-4,0.335947 -0.127539,1.143083 0.201083,1.28977 0.336275,0.150027 1.56487,0.238748 1.436952,-0.24105 -0.28351,-1.063364 -1.513265,-1.145274 -1.836839,-2.309464 z m 39.117581,-3.358198 c 0.0316,1.423404 0.09031,2.796936 0.352805,4.152678 0.08861,0.457913 -0.180362,0.966299 -0.07901,1.449862 m 7.699703,-5.774445 c 0.747764,0.01857 1.626924,0.06486 1.757683,0.06306 0.355307,-0.005 0.894534,-0.05651 0.941617,0.378227 M 6.3390245,19.905099 c -0.204714,0.0086 -1.0479743,0.07899 -1.2801002,0.09338 -0.4601625,0.02851 -0.8049061,0.131144 -1.0043811,-0.08403 -0.1074376,-0.115905 -0.1292191,-0.170559 -0.1255497,-0.315195 0.032603,-1.285688 0.5729208,-2.123881 0.8160691,-3.340984 0.1631619,-0.629494 0.6115224,-0.35946 0.6800274,0 0.268229,1.407437 0.8647909,2.885446 1.0148714,4.160474 0.1651318,1.402996 0.043303,0.252023 0.062805,0.378227 0.067903,0.44086 0.1883227,1.323779 0.1883227,1.323779 M 64.285936,15.8644 c 0.0621,1.371924 0.16639,2.791579 0.554776,4.05005 0.053,0.171666 0.2562,0.582995 0.146892,0.75644 -0.159361,0.252872 -0.27307,0.08309 -0.544249,-0.189111 M 36.257736,19.725332 c 0.237287,0.232044 0.582221,0.653322 0.941607,0.693413 0.280789,0.03132 0.789266,-0.06126 0.544069,-0.441262 -0.161833,-0.250827 -0.4298,-0.38102 -0.669617,-0.514828 -0.407761,-0.227525 -0.873941,-0.620352 -1.129931,-0.998068 -0.106966,-0.157852 -0.170652,-0.258091 -0.272009,-0.441269 -0.09681,-0.17487 -0.167361,-0.299946 -0.167411,-0.504297 -3.56e-4,-1.501362 0.753524,-1.751591 2.000872,-1.229967 M 14.788961,21.742531 13.470697,20.96509 c -0.662586,-0.390761 -0.947137,-0.814017 -1.318254,-0.2942 -0.199122,0.278903 0.523899,0.501539 0.690511,0.304667 0.670247,-0.791995 1.457034,-2.346401 1.161322,-3.267425 -0.0544,-0.169558 -0.08901,-0.343809 -0.177833,-0.504297 -0.213665,-0.386231 -0.582471,-0.753251 -0.920716,-0.95609 -0.414167,-0.248378 -0.753284,-0.06105 -0.753284,0.262677 m 34.086378,-0.378227 c 0.118867,1.30635 0.441591,2.398263 0.669626,3.530102 0.0293,0.151474 0.120839,0.468742 0.07321,0.630373 -0.155681,0.528563 -0.574451,0.03852 -0.742813,-0.126076 M 32.365742,18.086359 c 0.0641,-0.687035 0.545699,-1.731989 1.56936,-1.029591 0.338184,0.232045 0.807018,0.451658 0.753294,0.903515 -0.324613,2.730051 -2.571121,2.791272 -2.322654,0.126076 z M 8.0721281,17.329905 c 0.090306,-0.331068 0.4939522,-1.008571 1.00439,-0.935026 0.3041596,0.04384 0.572951,0.374563 0.7323812,0.61984 0.4059777,0.624577 0.4136897,1.265891 0.3975477,1.954164 -0.01541,0.656564 -0.2363255,1.356153 -0.8160584,1.880593 -0.1289378,0.116652 -0.5730008,0.25259 -0.7846834,-0.178586 -0.111228,-0.226559 0.1109859,-0.450369 0.2824884,-0.493772 0.98447,-0.249156 2.1101194,1.070044 2.4481954,1.061109 M 56.471035,16.88865 c 0,0.441068 -0.219187,0.885079 -0.39755,1.260751 -0.220105,0.463608 -1.092126,1.719731 -1.145562,1.048373 -0.053,-0.665732 2.413271,1.48817 3.426333,1.599198 M 54.472741,20.29267 c -0.0567,0.07684 -0.08991,0.175056 -0.15694,0.252151 -0.252979,0.291164 -0.752873,0.517946 -1.109029,0.388752 -0.137189,-0.04982 -0.326932,-0.126767 -0.439422,-0.220634 -0.195042,-0.162761 -0.341052,-0.543948 -0.418508,-0.798489 -0.231546,-0.556158 -0.381847,-1.617672 -0.219716,-2.206318 0.07061,-0.212752 0.352026,-0.568613 0.638224,-0.672422 0.154042,-0.05586 0.24664,-0.0537 0.313875,-0.06306 0.237094,-0.03304 0.358503,0.215402 0.502195,0.672422 m -1.883225,2.206318 c -0.163661,0.311333 -0.551848,0.856744 -0.941616,0.735454 -0.748712,-0.590331 -0.86102,-1.654881 -0.85989,-2.260143 7.12e-4,-0.395628 0.197744,-0.852137 0.441371,-1.112358 0.149911,-0.160114 0.334155,-0.144297 0.464914,-0.144297 0.15568,0 0.473731,0.05342 0.644123,0.11278 0.402109,0.140221 0.463044,0.74004 0.494975,1.351285 0.0212,0.405 -0.110307,1.063169 -0.243877,1.317279 z M 30.733616,17.455988 c 0.295721,0.172156 0.303402,0.297159 0.418509,0.69342 0.12143,0.417995 0.0446,1.055746 -0.104647,1.449855 -0.08921,0.235572 -0.292719,0.365233 -0.502186,0.493779 -0.07481,0.04593 -0.155259,0.09799 -0.251098,0.126068 -0.247846,0.0726 -0.475441,0.03686 -0.617261,-0.115544 -0.07521,-0.08088 -0.100378,-0.144734 -0.136031,-0.252151 -0.157192,-0.473658 -0.183312,-1.127492 -0.115068,-1.575938 0.0271,-0.178211 0.0281,-0.353895 0.0523,-0.504296 0.0458,-0.284302 0.240457,-0.318951 0.690519,-0.409752 0.229126,-0.04622 0.393017,-0.0058 0.56497,0.09456 z m 6.528512,0.504302 c 0.702049,-0.389111 1.622394,-0.817026 2.071546,-1.176716 0.16198,-0.129719 0.377035,-0.359827 0.282489,-0.525296 -0.0501,-0.08775 -0.115047,-0.09798 -0.282489,-0.126076 -0.348546,-0.05853 -1.004201,0.05154 -1.182224,0.252158 -0.104366,0.117633 -0.13815,0.455006 -0.136029,0.630366 0.005,0.390487 -0.0533,0.724455 -1.1e-5,1.134682 0.0742,0.571456 0.359186,1.894882 1.192715,2.132736 0.518865,0.14807 1.029193,-0.511811 1.234576,-0.871998 0.339844,-0.595961 0.695901,-1.234922 0.836969,-1.765049 M 25.837221,18.96889 c 0.401538,0.03441 1.515567,-0.203055 1.722153,-0.118625 0.341234,0.139451 0.225023,0.28107 0.317541,0.591664 0.0594,0.199535 0.117078,0.39935 0.178322,0.598596 0.0711,0.231476 0.130429,0.465212 0.219705,0.693414 0.09181,0.234751 0.324364,0.693413 0.324364,0.693413 m 19.009343,-3.00449 c 0.313491,0.05802 0.88202,0.503165 1.203923,0.861214 0.376146,0.418385 0.655618,1.293716 1.192715,1.449863 m 17.388456,-1.891125 -0.0628,0.315186 m 3.332927,6.218306 c 0.636874,-0.25802 1.57845,-0.620121 2.00286,-0.04068 0.652037,0.890256 0.303442,1.624351 -0.209033,2.332378 -0.177583,0.245349 -0.536499,0.566431 -0.784677,0.252151 -0.27411,-0.347113 0.09041,-0.653199 0.303203,-0.661896 1.940186,-0.07925 2.218176,0.971727 1.809767,1.985682 -0.193584,0.480611 -0.505015,0.984238 -0.857502,1.344777 -0.467341,0.478049 -1.00124,0.130993 -1.203373,-0.147068 m -3.646227,-5.295149 c -0.774866,1.345548 -0.111769,-0.0079 0.507514,0.283663 0.119948,0.06026 0.202965,0.153301 0.293151,0.283668 0.128259,0.185388 0.247669,0.517492 0.313873,0.756455 0.147229,0.531415 0.106087,1.149418 -0.0314,1.702006 -0.175312,0.603038 -0.407518,1.153125 -0.753294,1.575937 -0.140599,0.17194 -0.309481,0.52521 -0.512865,0.556813 -0.293162,0.04557 -0.357535,-0.33913 -0.303194,-0.493771 0.441802,-1.257239 0.845692,-0.687784 1.443844,0.06306 0,0 0.15314,0.216703 0.251098,0.315186 0.181164,0.182119 0.617073,0.504296 0.617073,0.504296 M 47.870916,25.272589 c 1.294792,0.341938 2.190175,-0.03931 3.439253,0.159632 m -13.106486,0.02944 c -0.15204,0.578094 -0.117657,1.128053 -0.0105,1.702021 0,0 0.299639,1.682431 0.470802,2.521495 0.06441,0.315777 0.114009,0.633856 0.209294,0.945559 0.07171,0.234557 0.272,0.69342 0.272,0.69342 m 2.071546,-5.799453 -0.513447,0.421781 m 9.138086,-0.539665 c -0.0491,0.684567 -0.0367,1.41306 -0.0246,2.009015 0.007,0.504418 0.202884,1.407999 0.376647,1.954158 0.08371,0.263244 0.300362,1.381514 0.330675,1.580645 m 1.615323,0.247435 c -1.053624,-0.497018 -2.126982,-0.0925 -3.201438,-0.189087 m 6.089051,-5.42124 c 0.104338,0.568849 0.266339,0.667526 0.355745,1.260751 0.108537,0.720115 1.43354,3.867907 0.585862,3.971349 -0.130221,0.01591 -0.229968,0.03398 -0.313873,0 -0.28748,-0.116429 -0.481933,-0.34219 -0.627744,-0.504297 -0.663437,-0.737621 -1.316163,-1.773123 -1.778585,-2.64757 -1.40338,-2.65382 -0.395979,1.131068 -0.355676,1.575959 0.0435,0.479776 0.112768,1.124302 0.376647,1.512902 m 11.357823,-4.70959 c -2.184456,-0.670529 -1.726153,1.120817 -1.627886,2.251108 0.039,0.448526 0.0947,0.843577 0.198993,1.260751 0.107808,0.431421 0.166881,0.889327 0.679848,1.124144 0.146891,0.06781 0.219085,0.06673 0.376649,0.03153 1.100655,-0.328302 1.100887,-1.0417 1.129938,-1.344777 0.009,-0.09413 0.0682,-0.436972 0.0628,-0.567339 -0.0134,-0.323939 -0.131189,-0.595421 -0.439421,-0.49377 -0.173242,0.05716 -0.206475,0.290615 -0.251097,0.430736 -0.120469,0.3783 0.218343,1.236779 0.374645,1.435291 m -47.957484,-4.208938 0.188322,0.06306 m -15.2541261,0.06306 c 1.2206567,0.344458 2.7246721,0.07026 3.6640789,0.212551 m 55.7830962,4.641337 -0.251097,-1.008599 -0.0628,-0.441262 c -0.05831,-0.409666 -0.167133,-0.787194 -0.251108,-1.260751 -0.122207,-0.689246 -0.378348,-2.306361 -0.868122,-1.197688 -0.355255,0.804169 -0.685868,1.634522 -1.14061,2.395419 -0.438231,0.930002 1.672278,0.260128 2.284941,0.267788 M 4.0593746,26.27864 c 0.069806,0.270444 0.050704,0.614578 0.057904,0.822096 0.024803,0.597847 0.2806004,1.526329 0.4499034,2.206308 0.1194388,0.742347 0.3021488,1.453239 0.5230957,2.080241 0.1331998,0.261072 0.1360702,0.523366 0.1569317,0.756448 M 77.563614,31.954709 c 0,0 0.205033,-0.627312 0.271808,-0.945564 0.0219,-0.104364 0.035,-0.209757 0.0421,-0.315186 0.0359,-0.946674 -0.110867,-1.921446 -0.251097,-2.899723 -0.08411,-0.71815 -0.08721,-2.797396 -0.502186,-3.120358 -0.285909,-0.222492 -1.151921,0.0089 -1.381027,0.23116 -0.777145,0.754187 -1.375327,1.745934 -1.487644,2.511467 -0.0748,0.509876 0.27233,1.78352 1.236527,1.239262 0.165203,-0.09325 0.234788,-0.157528 0.376645,-0.294194 0.173893,-0.167548 0.310844,-0.32458 0.439422,-0.504302 0.419271,-0.586041 1.030583,-1.059613 1.208045,-1.643933 m -63.919461,0.383189 c 0.0462,0.864792 0.115318,1.515457 0.123658,2.269335 0.0113,1.021839 -0.101177,1.983824 0.252609,3.001237 m 30.331771,-3.050046 c -1.264507,-1.686556 -1.916676,-0.631084 -2.12073,-0.0022 -0.106487,0.32808 -0.0925,0.536029 0.002,0.839467 0.130449,0.416894 0.841347,0.95039 1.359314,1.131076 1.463464,0.510509 -0.599542,1.287043 -1.916765,0.434552 m -1.415989,-3.67763 c -0.0754,0.269005 0.0155,0.519047 0.0523,0.756454 0.09051,0.583723 0.350473,1.103023 0.449901,1.702007 0.06431,0.387557 0.177712,0.829006 0.313873,1.134675 m -20.885706,-0.78258 c -0.243066,0.392223 -0.85677,0.928978 -1.399139,1.160779 -0.405317,0.179419 -0.897011,-0.170926 -1.056674,-0.378228 -0.442739,-0.595579 0.066,-1.647358 0.28249,-2.20631 0.08881,-0.22933 0.250788,-0.58208 0.41845,-0.756447 1.589962,-1.653557 1.643957,2.011865 1.810026,2.521502 0.04871,0.14938 0.149253,0.417376 0.230129,0.567332 0.27951,0.518239 0.535656,1.197709 1.203195,1.197709 M 15.793446,27.85751 c 0,0 0.0403,0.379748 0.08371,0.567339 0.0541,0.233852 0.15092,0.46157 0.219704,0.693413 0.07461,0.251432 0.12321,0.506925 0.209295,0.756455 0.0441,0.127688 0.112269,0.250633 0.156932,0.378213 0.0801,0.228857 0.125508,0.463371 0.198745,0.693414 0.0605,0.190112 0.198802,0.567337 0.198802,0.567337 m -3.12622,-0.887115 c -0.110708,0.536337 -1.496385,1.154364 -2.021263,1.097225 -0.72203,-0.07861 -1.00313,-0.678273 -0.816068,-1.281743 0.359496,-1.15972 1.439223,-3.584642 2.795478,-2.326366 m 22.065888,0.720408 c 0.142339,0.05587 0.245196,0.204235 0.363395,0.303158 0.233207,0.195156 0.449901,0.659182 0.449901,0.987607 0,0.649592 -0.389246,1.377122 -0.816065,1.712531 -0.231998,0.182314 -0.328945,0.271747 -0.564972,0.304661 -0.123729,0.01728 -0.251548,0.05234 -0.376636,0 -0.27704,-0.115905 -0.501745,-0.653265 -0.564968,-0.882524 -0.216557,-0.785208 -0.145812,-1.43203 0,-2.017192 0.18435,-0.739832 0.834909,-0.672724 1.509345,-0.408241 z M 22.101888,28.715072 c 0.0315,0.43127 0.036,0.42996 0.105069,0.781457 0.165221,0.84126 0.515524,1.658201 0.742822,2.52151 m -0.502665,-1.613213 c -0.0188,-0.42844 0.525646,-1.465714 1.067613,-1.643751 1.372578,-0.450909 1.570791,1.125453 1.53798,1.775586 -0.0268,0.532034 0.116488,0.953211 0.0343,1.301138 M 3.0831653,31.797628 c 0.8863927,0.319397 1.4439223,0.312746 2.2270077,0.356955 0.5705505,-0.0036 1.1682619,-0.170487 1.632124,-0.462313 m 0.014112,-0.298721 c -0.174784,-0.921391 0.8493784,-3.157353 1.7435726,-2.51691 0.4808726,0.344415 0.6326437,0.960683 0.7741931,1.31326 0.1022876,0.254787 0.2248779,0.445416 0.3243538,0.693408 0.048403,0.120711 0.046903,0.203176 0.073304,0.315193 0.024602,0.104385 0.056406,0.607997 0.083706,0.756447 M 28.214628,30.799964 c -0.459732,0.605232 -1.177001,1.808752 -2.314433,1.133999 -0.886262,-0.856399 -0.263369,-1.905695 0.627734,-2.626586 1.326214,-1.072881 1.619034,0.7065 1.632135,1.134682 0.0209,0.682327 0.447752,1.422735 0.690519,1.891123 m 1.497946,-2.655907 c 0.368146,-0.419579 1.096977,-1.201483 1.829079,-1.315464 0.237596,-0.02318 0.389887,0.03527 0.564961,0.08403 0.311361,0.08687 0.718389,0.374131 0.868361,0.735464 0.443691,1.069006 -0.56628,2.72141 -1.781497,3.106152 M 31.35291,28.732855 c 0.368835,1.495956 0.255738,2.716169 0.573601,4.041603 0.236295,0.985289 1.190303,2.360195 -0.313883,1.575937 m 14.312539,-3.404039 v 1.386826 M 6.529988,28.834 c 0.1337604,0.150091 0.1874721,1.077256 0.3115322,1.9202 0.1168086,0.79366 0.3065015,1.507446 0.3545045,1.590695 M 134.0601,47.020833 c 0.29379,0.487033 -0.0659,0.693415 -0.43942,0.693415 m 2.25987,0.69342 c 0.19494,0.573953 0.29463,1.27653 0.41869,1.765041 0.24224,0.917157 0.57868,1.682899 0.88889,2.521501 0.17548,0.474342 0.5185,1.057705 0.57566,1.57593 0.0164,0.149653 -0.0101,0.440384 -0.0735,0.493772 -0.22095,0.186597 -0.43186,-0.196864 -0.61705,-0.304654 m 7.65845,-5.799446 c 0.076,0.412451 0.0654,0.820317 0.15414,1.197709 0.028,0.119158 0.31843,4.116618 0.49701,4.234913 m -0.48451,-3.840803 c -1.12152,0.08379 -1.80093,0.895885 -2.30094,1.43398 -0.33219,0.35283 -0.56406,0.858162 -0.67987,1.323777 -0.25597,0.662978 0.58586,1.174761 1.11929,1.040132 1.10776,-0.279581 2.07184,-0.787267 2.07184,-1.767228 m -72.630038,4.005054 c 0.284371,0 1.041434,-0.0036 1.318264,0 0.805367,0.01109 1.958497,-0.0014 1.935326,-0.756441 -0.0102,-0.185833 0.0337,-0.239416 -0.05211,-0.378227 -1.106417,-1.790883 -2.663016,-3.250017 -2.699288,-5.295142 -0.007,-0.409464 -0.166962,-0.954816 0.188322,-0.998075 0.793825,-0.09665 1.104437,1.37708 1.255488,1.880592 M 120.18698,49.54235 c 0.0859,1.315276 0.51143,2.321033 0.74362,3.541384 l 0.1214,0.638074 c 0.0918,0.482642 0.29779,0.930534 0.47875,0.909267 0,0 0.73698,-0.08357 1.10443,-0.129762 0.10484,-0.01317 0.20865,-0.0306 0.31388,-0.04204 0.24994,-0.02721 0.75329,-0.06306 0.75329,-0.06306 m -20.84104,-4.47566 0.12555,0.37822 c 0.46676,1.406171 0.5432,2.86804 0.89954,4.160453 0.33003,1.19701 0.13387,0.485831 0.35593,1.386826 m 0.96903,-5.074263 c 0.12555,0.208209 0.0322,0.437491 -0.10087,0.661645 -2.17459,3.663305 -3.25377,-0.396153 0.76397,3.025792 0.47648,0.405821 0.46892,0.877988 1.00439,1.197717 M 95.642327,50.109667 c -0.135608,0.861725 0.14711,1.649877 0.251088,2.584536 0.0509,0.457381 0.105957,0.806041 0.261768,1.323764 0.166651,0.553775 0.659127,1.329833 0.659127,1.954165 0,0.397067 -0.190204,0.57129 -0.481485,0.567338 -0.0785,-7.12e-4 -0.340854,-0.126646 -0.43942,-0.189125 m 37.225115,-5.862451 0.0628,0.819483 c 0.0687,0.89636 0.45018,1.769142 0.71122,2.647577 l 0.35594,1.19771 m -8.85119,-0.315207 c -0.52903,-0.509783 -0.98232,-3.167705 -0.85272,-3.505094 m -0.75886,-1.47127 c 0.27703,0.140352 0.35277,0.134556 0.52554,0.250085 m 2.25426,0.802564 c 0.14619,0.09833 0.16562,0.243421 0.15003,0.393613 -0.0568,0.547726 0.2693,1.045177 0.36598,1.449861 0.14772,0.699079 0.21312,1.302398 0.63842,1.89113 m -0.50209,-1.209026 c 0.0458,-0.524446 0.11076,-1.716504 0.56486,-2.131965 0.16219,-0.148393 0.38605,-0.480993 0.59392,-0.426828 0.94481,0.246183 0.90612,1.419618 0.96422,1.718873 0.0679,0.349842 0.54235,1.608605 0.0112,1.660215 -0.75876,0.07372 -0.29921,-1.488563 -0.2071,-1.742738 0.24145,-0.666164 -0.0257,-1.280504 0.64652,-1.73479 0.30633,-0.207035 0.50998,-0.141359 0.73258,0.147062 0.12767,0.16544 0.19858,0.314891 0.28249,0.504309 0.31595,0.713154 0.60945,1.607024 0.92026,2.332387 0.11229,0.262057 0.1519,0.512804 0.32455,0.75644 m 6.46569,-3.29895 c 0.70354,-0.03535 2.97488,-0.646569 3.00254,-0.987586 0.049,-0.60444 -1.39256,-0.322535 -1.80979,-0.168125 -0.14953,0.05536 -0.25777,0.143541 -0.31387,0.252145 -0.33464,0.647959 -0.16667,1.286055 0.0207,1.933172 0.17473,0.603399 0.45708,1.580272 1.04646,1.880591 0.17898,0.0912 0.57877,0.113477 0.75329,0.05262 0.10921,-0.03815 0.45332,-0.276966 0.56507,-0.337798 m -3.70381,-2.646036 c -0.86982,0.09231 -1.77186,0.104795 -2.51097,0.105076 -0.27936,1.07e-4 -0.53233,0.05219 -0.69054,0.252144 m -42.498095,3.467076 c -0.0198,0.411997 -0.342944,0.904746 0.43943,1.008598 0.575821,0.07643 1.10115,-0.02088 1.286871,-0.37822 0.166073,-0.319535 -0.193994,-0.520364 -0.408028,-0.672422 -0.121798,-0.08654 -0.230967,-0.138673 -0.376647,-0.199576 -0.13178,-0.05514 -0.201845,-0.06479 -0.313872,-0.147127 -0.514776,-0.490603 -0.69273,-1.10297 -0.742614,-1.691487 -0.0345,-0.488107 -0.104846,-1.284768 0.5543,-1.607462 0.747434,-0.07869 0.989462,1.38664 1.11927,1.670497 m 0.198994,0.241619 c 0.40596,0.198201 0.971069,0.0043 1.381037,-0.09455 0.27864,-0.06702 0.517846,-0.161704 0.878832,-0.231074 0.205476,-0.03952 0.365966,-0.06587 0.564961,0.03153 m -11.683196,0.440384 c 0.516476,-0.169536 1.337405,-0.443363 1.744164,-0.902723 0.0904,-0.102104 0.144129,-0.307117 0.1356,-0.430731 -0.008,-0.121346 -0.0697,-0.273331 -0.177654,-0.357243 -0.113627,-0.08832 -0.190533,-0.136939 -0.313871,-0.126067 -2.149852,0.189477 -1.448462,2.726213 -0.502195,3.383026 0.132848,0.09222 0.274328,0.190931 0.43942,0.241627 0.666589,0.218877 1.235228,-0.07954 1.632124,-0.430731 0.08321,-0.07363 0.1236,-0.150191 0.209037,-0.252158 m -0.12471,-2.220247 c 2.412971,-1.026834 3.284953,0.636089 3.002322,1.905061 -0.0331,0.148515 -0.0435,0.240259 -0.09421,0.378228 -0.13118,0.357536 -1.083538,1.400763 -1.822981,1.458342 m 22.715131,-3.589314 c 0.29488,-0.251663 0.35623,-0.982099 -0.46982,-0.821253 -0.13819,0.02692 -0.17765,0.05536 -0.31387,0.178585 -0.24042,0.217546 -0.28583,0.356572 -0.35592,0.567344 -0.10316,0.310169 -0.14852,0.833831 -0.0728,1.19771 0.0643,0.309046 0.18515,0.729099 0.38669,1.0086 0.13933,0.19322 0.46328,0.430887 0.59636,0.567331 0.69548,0.713052 -0.92257,0.798036 -1.62147,1.008592 m -9.67893,-2.440737 c -0.0609,0.629494 -1.146561,2.30572 -1.871523,1.799847 -0.219166,-0.152928 -0.249617,-0.24393 -0.324542,-0.430729 -0.12345,-0.307801 -0.185314,-0.542674 -0.177653,-0.882531 0.0131,-0.582096 0.136748,-1.051484 0.418699,-1.575923 0.3971,-0.73861 0.998922,-1.177898 1.439459,-0.318058 0.17989,0.351123 0.32121,0.73539 0.44236,1.11045 0.22776,0.705105 -0.0113,1.528797 0.53317,2.137551 0.11782,0.131749 0.35183,0.185237 0.53736,0.267241 0.18861,0.08337 0.5837,0.22782 0.5837,0.22782 M 82.246503,53.820261 c 0.466382,-0.218064 1.803916,-0.876721 1.845319,-1.252062 0.01571,-0.142806 -0.0451,-0.230252 -0.12555,-0.315185 -0.169422,-0.17894 -0.497694,-0.440241 -0.816065,-0.315186 -1.949239,0.765626 -0.499558,4.184014 0.941606,4.160444 0.429569,-0.04694 0.755503,-0.280494 1.067165,-0.514821 0.13827,-0.103974 0.28524,-0.250425 0.533577,-0.430745 m -8.50589,-2.773616 c 0.0113,0.146304 0.105387,0.815176 0.13622,1.008591 0.100897,0.63305 0.143629,1.287431 0.240407,1.89113 0.401358,2.503686 1.365315,-0.827933 1.537978,-1.197709 0.09741,-0.208685 -0.0314,-0.900499 -0.0314,-1.197717 m 30.94768,1.260751 c -0.93307,0.969718 -1.82439,1.850587 -2.67858,0.37822 -0.37392,-0.644532 -0.72738,-2.811456 0.23041,-3.025804 0.26587,-0.05954 0.55447,0.149623 0.71123,0.315185 0.10022,0.105854 0.1645,0.260567 0.0941,0.378221 -0.22326,0.373403 -1.02284,0.635893 -1.41675,0.669339 m -25.660034,-0.50945 c 0.008,0.313105 0.354156,1.909783 0.397777,2.172495 0.0355,0.213601 0.008,0.447058 -0.0628,0.63038 -0.212245,0.549109 -0.428042,1.348759 -1.119269,0.808957 -0.509646,-0.398004 -0.865811,-1.036733 -1.077826,-1.565406 -0.06731,-0.167901 -0.177653,-0.251898 -0.303201,-0.378227 m 9.604446,4.979956 c 0.154432,0.02037 0.331454,0.07527 0.627745,0.178592 0.252359,0.08806 0.55995,0.05356 0.816069,0 0.58111,-0.267376 0.383795,-0.803436 0.198993,-1.12415 -0.953807,-1.655262 -1.547789,-3.497556 -1.517238,-5.042997 0.006,-0.29549 0.0554,-0.724521 0.07061,-1.224173 m 85.427858,6.330204 c 0.10686,0.408248 -0.55006,1.102777 -0.243,1.546781 0.18854,0.272612 0.57508,-1.275228 1.10114,-0.664257 0.15754,0.182991 0.29494,0.438189 0.38668,0.693413 0.19827,0.551595 0.38957,1.09673 0.32455,1.702021 -0.0811,0.75531 -1.84945,2.713103 -2.22849,2.258624 -0.0873,-0.104681 -0.12542,-0.324595 -0.0628,-0.419831 0.0717,-0.109007 0.26743,-0.08503 0.40803,-0.07375 0.7789,0.06242 1.14963,0.358501 1.63208,0.651154 0.12999,0.07885 0.35028,0.177017 0.50218,0.168314 0.39798,-0.02282 0.34715,-0.508084 0.56499,-0.945566 m -7.97228,-4.160446 c -0.36347,0 -0.53421,0.06947 -0.81607,0.04204 -0.49089,-0.04795 -1.18055,-0.196994 -1.75767,-0.241692 -1.15746,-0.08963 -0.58077,1.040254 -0.38731,1.523406 0.15601,0.389624 0.3332,1.043572 0.76395,0.81949 1.60494,-0.834925 1.84865,-0.661579 1.48588,0.882545 -0.13014,0.553839 -0.68687,1.427941 -1.23479,1.618174 -0.7991,0.277433 -1.8029,-0.0014 -2.44817,-0.346719 -0.31098,-0.166498 -0.4041,-0.417087 -0.5022,-0.641084 -0.11329,-0.258673 -0.1833,-0.436222 -0.18833,-0.630378 m 13.39718,-3.327955 c 0.46496,-0.176921 1.0782,-0.14511 1.60585,-0.139099 0.4855,0.0058 0.59617,-0.03736 0.67984,0.189118 0.19573,0.529673 0.15206,1.098752 0.24106,1.575937 0.0348,0.186684 0.004,0.325243 0.0314,0.504297 0.15158,0.994072 0.24041,2.270609 0.24041,3.088839 M 140.08388,59.0574 c -0.057,0.653877 0.0182,1.304557 0.11733,1.894766 0.14346,0.853857 0.60274,1.726973 0.92089,2.521502 0.0884,0.220664 0.15904,0.517435 0.21972,0.756441 0.16829,0.662997 -0.40985,0.489005 -0.81604,0.126083 m -46.6659,-4.527406 c 0.0446,-0.242253 0.334305,-0.595693 0.589643,-0.830784 0.148291,-0.136515 0.666667,-0.375218 0.878842,-0.37822 0.102317,-0.0014 0.211955,-0.04031 0.313873,0.02102 0.641644,0.385756 0.681878,1.204569 0.753292,1.744062 0.107118,0.809265 -0.505026,1.757105 -1.467803,2.312327 m -0.896074,-3.740239 c 0.227056,0.750422 0.198815,1.392024 0.41789,2.05829 0.370157,1.125763 0.630444,2.064152 1.035724,3.214887 0.0472,0.134132 0.0423,0.218714 0.0734,0.378235 0.038,0.194754 -0.0139,0.738753 -0.230377,0.850999 -0.189613,0.0983 -0.290649,-0.0712 -0.376645,-0.157592 -0.164472,-0.165153 -0.328315,-0.516276 -0.43942,-0.819489 m 77.013335,-5.169068 c 0.23602,0.380747 0.32035,0.92348 0.39799,1.323786 0.09,0.463939 0.0774,1.052772 -0.0941,1.512896 -0.0738,0.197987 -0.16938,0.307022 -0.2511,0.504303 -0.15305,0.369431 -0.49791,0.816206 -0.85812,0.977083 -0.083,0.03708 -0.16627,0.05953 -0.2511,0.07375 -0.29873,0.05011 -0.7949,-0.133613 -0.9209,-0.483504 -0.0717,-0.19916 -0.0835,-0.321478 -0.15694,-0.504297 -0.0496,-0.12355 -0.0768,-0.236429 -0.10421,-0.378227 -0.10063,-0.520726 -0.14357,-1.096839 -0.13622,-1.638972 -0.23052,-1.005381 1.75575,-2.186383 2.37477,-1.386821 z m -25.09902,4.286544 c -0.15629,0.313299 -0.81926,0.445567 -1.31824,0.619667 -0.27252,0.09507 -0.48542,0.115825 -0.50218,0.01073 -0.24453,-1.529942 -1.78071,-2.896721 -1.82047,-4.349577 -0.0105,-0.379861 -0.0652,-0.84596 0.25109,-0.977088 0.90974,-0.37709 2.09439,0.03369 2.8876,0.03153 m -9.47888,5.484258 c 0,0.358683 0.10428,0.557994 0.50218,0.588136 0.43745,0.03311 1.37614,-0.205467 1.69492,-0.367502 0.17794,-0.09046 0.34979,-0.278622 0.37664,-0.472785 0.0592,-0.42801 -0.49969,-0.671348 -0.81608,-0.830202 -0.30131,-0.151287 -0.61248,-0.298326 -0.87884,-0.472786 -0.44298,-0.290127 -0.93911,-0.515779 -1.04645,-1.09244 -0.0525,-0.282113 -0.0537,-0.549771 -0.01,-0.81948 0.071,-0.438132 0.0922,-1.911447 0.67986,-2.080234 0.28041,-0.08056 0.39532,-0.09326 0.55428,0.189109 0.27482,0.488142 0.35782,0.948719 0.4501,1.449863 m 16.88626,-1.323786 c 0,0 0.23579,0.669462 0.32453,1.008598 0.0491,0.187809 0.0702,0.378948 0.11487,0.567338 0.055,0.23216 0.12624,0.462183 0.18833,0.693406 0.0846,0.315065 0.16742,0.63038 0.25111,0.945566 0.95243,3.586671 -1.17933,0.415777 -2.56301,-1.659776 -0.52261,-0.783963 -1.41948,-2.324768 -1.20342,-0.735643 0.0575,0.423235 0.11495,0.882905 0.27182,1.197709 0.44519,0.893604 0.52071,2.081256 0.85284,2.814286 m -30.18915,-4.075106 c 0.50757,-1.564787 2.21899,0.170312 2.37475,1.008598 0.0477,0.3133 -0.0282,0.69468 -0.19837,0.945566 -0.19895,0.275693 -1.54155,1.678257 -1.65104,1.333778 -0.4926,-1.549712 1.97278,-0.258762 2.84368,0.998614 0.0954,0.143727 0.11111,0.191638 0.20904,0.315193 0.13811,0.175237 0.28373,0.354895 0.43942,0.504296 0.14438,0.138681 0.27369,0.254037 0.4394,0.231347 0.46204,-0.06436 0.66793,-0.832094 0.75332,-1.239945 m -5.19382,-4.792971 c 0.55886,1.512054 1.07439,2.869062 1.15554,4.351709 0,0 0.0295,0.252215 0.0207,0.378227 -0.0151,0.215537 0.14159,0.542953 -0.12554,0.641091 -0.23192,0.08519 -0.69051,-0.262864 -0.69051,-0.262864 m 15.6791,-5.36238 c 1.11146,0.134102 1.69625,0.07506 2.83935,-0.05889 m 17.69168,2.584528 c 0.16685,0.30135 0.35598,0.62092 0.32453,0.945559 -0.0206,0.213076 -0.14202,0.348554 -0.23038,0.504297 -0.24061,0.424199 -0.65921,0.838336 -1.08788,1.07164 -0.37169,0.202285 -0.95274,0.06234 -1.16132,-0.252144 -0.19193,-0.289407 -0.37207,-0.764028 -0.40803,-1.134682 -0.5792,-1.869051 1.37732,-3.412846 2.56308,-1.13467 z m -52.53134,-2.080239 c 0.12303,0.260351 0.2072,0.527253 0.18833,0.882523 -0.0444,0.835386 0.51314,1.638943 0.61713,2.395435 0.15946,1.160087 1.52029,3.553454 -0.0521,2.584528 m 19.75734,-5.247988 c 1.3798,-0.541716 3.71332,0.999247 3.84571,1.843978 0.13418,0.856181 -0.54389,2.178383 -1.19269,2.836681 -0.44645,0.452973 -0.94759,0.989794 -1.1092,0.126074 -0.0157,-0.08334 -0.0435,-0.283114 -0.0835,-0.378227 -0.29496,-0.700987 -0.23723,-1.443641 -0.4187,-2.080234 -0.0626,-0.219496 -0.0648,-0.363699 -0.15694,-0.630378 -0.10122,-0.293093 -0.27314,-0.950598 -0.3032,-1.260751 -0.0258,-0.26601 0.002,-0.433473 -0.0218,-0.561434 m -24.39733,6.676072 c 0.15066,-0.372554 0.86803,-0.55515 1.38104,-0.641091 0.1455,-0.0244 0.21979,-0.03772 0.37663,-0.09456 0.17525,-0.06357 0.26213,-0.109712 0.3032,-0.27295 0.0481,-0.191038 -0.29423,-0.448985 -0.49152,-0.567337 -0.28921,-0.173502 -0.53932,-0.240719 -0.81606,-0.399026 -0.23675,-0.13544 -0.46611,-0.287959 -0.60703,-0.483498 -0.13529,-0.187728 -0.19599,-0.33219 -0.25109,-0.567338 -0.083,-0.354253 0.0509,-1.166804 0.20967,-1.575937 0.0628,-0.161991 0.15199,-0.469186 0.26114,-0.630371 0.186,-0.274671 0.65172,-0.497191 0.70119,-0.126077 m 38.4671,-0.09273 c 0.54027,-0.08676 1.22578,-0.03513 1.77114,-0.07558 l 1.12995,-0.08383 m -70.181562,0.441255 c 0.114248,-0.114723 0.213434,-0.243953 0.376647,-0.325906 0.139359,-0.06997 0.481823,-0.109569 0.627745,-0.03153 0.949496,0.507887 0.626463,1.389059 0.491373,2.122469 -0.05661,0.307108 -0.297701,0.794163 -0.554289,0.997887 -0.14517,0.11525 -0.474164,0.218799 -0.596362,0.01073 -0.150241,-0.255867 0.103558,-0.604513 0.27182,-0.81949 0.733161,-0.936767 2.099207,-1.097514 2.396229,8e-6 0.108717,0.401695 0.07371,1.00983 0,1.386818 -0.06831,0.349497 -1.397208,3.432751 -1.883223,1.638979 m 20.213287,-5.358182 0.0628,0.252151 m -24.04252,-0.126034 c 0,0.49169 0.156371,0.527619 0.261769,1.07164 0.09171,0.473406 0.199424,1.000429 0.323913,1.449861 0.12974,0.468387 0.260459,0.876217 0.345254,1.38682 0.079,0.47594 0.455123,1.088027 0.198993,1.512903 m 39.585346,-5.446212 c -0.19299,0.381761 -0.22679,0.742264 -0.22604,1.159677 3.6e-4,0.148774 0.006,0.231742 0.0107,0.378227 0.0285,0.937172 0.56182,1.826663 0.85747,2.647549 l 0.13621,0.378228 m -0.62408,-1.555528 c -0.33063,-0.991264 0.90069,-3.189374 1.75405,-2.478849 0.65579,0.546044 1.11062,1.420231 1.19271,2.269352 0.0372,0.38452 0.005,0.814442 0.0421,1.197709 0.0227,0.235127 0.0207,0.305107 0.0207,0.504297 0,0.317086 -0.12053,0.80625 0.37663,0.819489 M 97.806063,63.5784 c 0.160292,-1.680424 0.189453,-2.406721 1.728212,-2.247999 m -2.259869,0 c 0.162431,1.092007 0.496253,2.282051 0.878841,3.214916 0.102707,0.250439 0.163832,0.378861 0.188322,0.693415 m 63.213621,-3.593144 c 0,0 0.66927,-0.126976 1.00439,-0.189118 0.22995,-0.04269 0.69051,-0.126069 0.69051,-0.126069 m -83.552445,0.189118 c 0,0.266017 0.0404,0.409795 0.114878,0.693413 0.206154,0.785497 0.348705,1.671777 0.43942,2.269345 0.0236,0.1551 0.0441,0.344169 0.08411,0.504302 0.07921,0.317057 0.306861,0.804365 0.365965,1.071635 0.0357,0.161386 0.104207,0.271062 0.188324,0.378227 m 31.261548,-3.782254 c 0.18269,0.145391 0.34657,0.325279 0.37665,0.567338 0.0722,0.58121 -0.59037,1.389051 -1.06716,1.628266 -0.32609,0.163598 -0.78134,0.189643 -1.05649,-0.115363 -0.26282,-0.291329 -0.32454,-0.823269 -0.32454,-1.197717 0,-0.185324 -0.0111,-0.284136 0.0107,-0.441255 0.16919,-1.223064 1.18756,-1.136266 2.06088,-0.441269 z m -2.91266,-0.466272 c -0.74392,0.295549 -2.50026,-0.173668 -3.17644,-0.02736 -0.12768,0.02764 -0.31388,0.178399 -0.31388,0.178399 m -19.397283,-0.50429 c -0.027,0.609567 0.411279,1.312267 0.502184,1.828081 0.153432,0.870523 0.09151,1.785349 0.376637,2.584537 M 84.02896,62.507278 c 0.155401,0.05558 0.219285,0.09058 0.376647,0.178398 0.366807,0.204689 0.937645,0.475313 1.004381,0.914041 0.0481,0.31646 -0.0275,0.67029 -0.08351,0.945564 -0.114068,0.560635 -0.424291,1.126288 -0.788606,1.609277 -0.315221,0.417907 -1.059244,0.808734 -1.576102,0.281848 -0.270959,-0.27622 -0.486293,-0.884425 -0.502184,-1.260752 0.0387,-0.345904 -0.07091,-0.712247 -0.0628,-1.0086 0.0275,-0.779931 0.05991,-2.221671 1.632124,-1.659776 z m 15.819096,0.335968 c 0.442034,-0.05874 2.310404,-0.732359 2.427484,-0.89322 0.13356,-0.183488 -0.0645,-0.392879 -0.29315,-0.47278 -0.1989,-0.06947 -0.3259,-0.04629 -0.56497,-0.0208 -1.09494,0.116638 -1.3419,2.024354 -1.20338,2.584551 0.062,0.250769 0.14311,0.551586 0.32456,0.756441 0.18704,0.211188 0.38782,0.304653 0.62773,0.378227 0.68916,0.211355 1.27997,-0.15066 1.75768,-0.630373 m 2.50028,7.879659 c -0.0967,0.402804 -0.15047,0.960063 -0.17765,1.44986 -0.007,0.132383 -0.0294,0.193279 -0.0521,0.315186 -0.18593,0.999348 -0.37799,2.109533 -0.64905,3.15189 -0.0739,0.284394 -0.12178,0.451973 -0.17765,0.756447 m 7.90951,-6.555907 c 0.35646,0.352059 1.96066,0.262466 2.11361,0.45198 0.10127,0.125478 0.0226,0.235766 0.0207,0.367516 -0.002,0.171458 0.001,0.346537 0.0107,0.504297 0.0344,0.591093 0.0847,1.230752 0.16697,1.765046 0.16752,1.087889 0.38732,2.080867 0.38732,3.214908 m 13.05704,1.071643 c 0,-0.504931 0.0107,-0.344819 -0.0521,-0.75645 -0.0766,-0.503042 -0.15065,-0.606427 -0.24107,-1.07164 -0.19988,-0.93586 -0.2993,-1.914621 -0.5436,-2.773654 -0.90059,-2.971748 -1.73487,0.205798 -1.87209,1.926261 -0.038,0.476955 1.92294,-0.03067 2.24142,-0.100324 m -5.4228,-4.280741 c -0.008,0.199283 -0.5193,0.767376 -0.27321,0.948646 0.13431,0.09894 0.28301,-0.270142 0.36751,-0.384957 0.12893,-0.17516 0.39933,-0.590088 0.71123,-0.36751 0.37359,0.266587 0.38661,0.770293 0.46015,1.186992 0.2651,1.502362 0.23218,2.790456 -0.6484,4.16048 -0.35888,0.55836 -0.76819,0.480281 -1.05649,0.126076 -0.20323,-0.249697 -0.26627,-0.492728 -0.199,-0.756448 0.25456,-0.997793 1.70323,0.438714 2.38536,0.714204 0.35333,0.142699 0.81613,0.378378 1.19271,0.305101 M 98.59254,72.614056 c 0.712962,-0.505995 3.07102,-0.971985 3.51537,-0.441255 m 17.06972,0.06206 c -1.44972,0.281221 -2.66781,-0.38552 -2.63165,0.946608 0.015,0.552732 -0.0181,1.573318 0.43942,1.943439 0.31464,0.254577 0.62769,-0.101527 0.87884,-0.252145 0.15877,-0.09522 0.33643,-0.225723 0.50219,-0.283669 0.11735,-0.04103 0.2524,-0.06097 0.37664,-0.07313 0.35661,-0.03506 0.82005,0.351088 0.92091,0.682695 0.0661,0.217454 0.0207,0.49421 0.0207,0.693413 0,0.430544 -0.35344,1.076675 -0.56497,1.449863 -0.26368,0.465212 -0.99923,0.694299 -1.50658,0.609573 -1.02171,-0.170616 -1.49576,-0.964117 -1.88323,-1.366021 M 100.56077,71.97709 c -0.0147,0.19556 0.0405,0.644596 0.0405,1.015259 0,0.180916 0.017,0.337243 0.0835,0.567337 0.0906,1.127548 1.30374,3.951076 0.79536,3.971356 -0.20841,-0.0058 -0.27469,-0.03808 -0.5022,-0.168305 -0.25146,-0.143964 -0.34527,-0.219374 -0.56497,-0.399032 M 73.990395,72.75918 c 2.806267,-0.843749 3.396389,1.156345 3.139022,3.025216 -0.06441,0.467574 -0.321613,0.901485 -0.467234,1.308099 -0.391907,1.094367 -0.84344,1.834934 -1.118439,1.321078 l -0.0728,-0.315186 c -0.607712,-1.970399 -0.890932,-3.958801 -1.103688,-5.775372 m 56.867904,0.847732 c 0.57333,0.248062 0.81951,1.023328 1.00437,1.523614 0.17625,0.476977 0.0171,0.915287 -0.13622,1.386827 -0.0493,0.151755 -0.10551,0.242045 -0.18831,0.378221 -0.21161,0.347955 -0.78709,1.017512 -1.11927,1.239946 -1.06578,0.713672 -1.62059,-0.452622 -1.74701,-1.366016 -0.0162,-0.116018 0.0521,-0.560412 0.0521,-0.756454 0,-0.256565 -0.0533,-0.31091 0,-0.504297 0.37875,-1.375538 0.74854,-2.501408 2.13433,-1.901841 z m -28.06008,-0.61966 c 0,0.259718 0.23645,0.994619 0.43942,1.323784 0.519,0.84167 1.37451,1.649044 2.07155,2.269345 0.61257,0.545142 1.04896,1.202756 1.50658,1.702013 M 85.221667,72.803238 c 0,0.182811 0.009,0.390862 0.09421,0.567345 0.107827,0.222549 0.216165,0.572968 0.293152,0.882524 0.222455,0.894467 0.684237,1.929573 0.910222,2.836682 0.054,0.21874 0.07781,0.427396 0.125551,0.630371 0.0345,0.148767 0.0684,0.220626 0.0835,0.378227 0.0232,0.23828 -0.0257,0.375074 0.07341,0.630372 0.114878,0.297534 0.169491,0.506823 0.365975,0.756449 m -4.017503,-5.988543 c 0.0546,0.296275 0.0676,0.368696 0.13622,0.567339 0.0593,0.285958 0.08961,0.579202 0.15693,0.819489 0.107017,0.386378 0.151981,1.00418 0.219706,1.449861 0.07861,0.376471 0.09191,0.745233 0.240428,1.134676 0.103645,0.25781 0.17502,0.468388 0.282488,0.756448 0.0426,0.114125 0.148141,0.33599 0.28248,0.33599 m 6.221389,-1.955691 c -0.106485,0.363838 -0.267597,0.5322 -0.623814,1.304508 -0.134618,0.291869 -0.504456,0.92016 -1.077836,0.851012 -0.181093,-0.02188 -0.248948,-0.09531 -0.365965,-0.220633 -0.232637,-0.249128 -0.288281,-0.682688 -0.324553,-0.945559 -0.0158,-0.114723 -0.0338,-0.196057 -0.05211,-0.315186 -0.0263,-0.171472 -0.0166,-0.397197 -0.01069,-0.567343 0.0168,-0.481736 -0.0398,-1.009998 0.13622,-1.449863 0.0746,-0.186381 0.14125,-0.214321 0.240427,-0.315185 0.09791,-0.0996 0.2797,-0.332147 0.439421,-0.420458 0.316383,-0.174928 0.686859,-0.0771 0.805397,0.168298 0.343864,0.711945 0.691139,1.555335 1.030572,2.382403 0.198895,0.484637 0.183073,0.970051 0.374757,1.474872 0.08061,0.212169 0.25683,0.898353 0.551339,0.912773 0.514185,0.0252 0.205274,-0.429289 0.43942,-0.987794 m 0.294712,0.367271 c 0.352634,0.09179 1.032792,0.02412 1.261999,-0.131568 0.360245,-0.244644 0.622185,-0.821319 0.13819,-1.307344 -0.43063,-0.432435 -1.503128,0.01368 -1.475194,-0.819482 0.01431,-0.427584 0.07541,-1.509361 0.470813,-1.785859 0.257998,-0.162 0.547388,0.0851 0.627734,0.209915 m -12.505673,1.860851 c -0.0948,0.213062 -0.576149,1.041269 -0.689327,1.231588 -0.203205,0.341721 -0.715763,0.617321 -1.054735,0.81589 -0.120528,0.07055 -0.227788,0.131986 -0.376647,0.115356 -0.42678,-0.04766 -0.43942,-0.472779 -0.43942,-0.745735 0,-0.493585 0.14259,-1.026863 0.230385,-1.449862 0.0767,-0.369387 0.14889,-0.792364 0.219705,-1.134668 0.09431,-0.455753 0.157782,-0.697445 0.491525,-0.767167 1.134719,-0.23707 1.555072,1.518086 1.637466,2.027919 0.224766,1.390829 0.953837,3.802231 1.626794,1.512895 m 47.080653,-1.638979 h 0.0628 m -34.086401,1.134675 c -0.208404,0.361836 0.313873,1.253194 0.313873,1.575937"
       id="path125"
       sodipodi:nodetypes="csssssssccccccccssssssccccccssssccccssscccccsccccccsccsccsssccssssssccccccccccccccsssssscccccccccscccsccsssscccccsccccccccccsssssccssssscssssscsscsccscsssscsssccssccssssssccsssssscccccsssscssssssccssccsssccsscscssssssssssssssssscssssssssccssssccsccccsssssscccsscsssssccccssscccccsccccssssssccssccsssscccccccsssccccccccsccssssssccsccsssccssccccssssccsssssccsscssssssssscsccsscccccsssscccssccccsccsccccscccccsccccsccccsccccsssccsssssccssccssccssssccssccccccscccsssssssssccssssssccsccsssscccccssccssssscsccssccssssssccssssssssccssscsccsssccssssccssssccccssccsssssssssccssssssssccssssccsssccssssccsssssccsssssssscccssssccsssssssssccsssssssccccsccccccsssccccsssscccssccsssssssccsssssssssccsccssssssssccccsssccsssccssssccccsccsccsssscssssssscsccscssssssccscssssssccsssccsssscccccsccssssssssccccsssssssssccsccsccsscccssssssssscssccssccccccccccsccsssssssssssssccssscccssssssssccccc" /></g></svg>
