<?xml version="1.0" encoding="UTF-8" standalone="no"?>
<!-- Created with Inkscape (http://www.inkscape.org/) -->

<svg
   version="1.1"
   id="svg18956"
   width="5229.3335"
   height="2048"
   viewBox="0 0 5229.3335 2048"
   sodipodi:docname="FrankN - Stake - Envelope88.svg"
   inkscape:version="1.2.1 (9c6d41e410, 2022-07-14)"
   xmlns:inkscape="http://www.inkscape.org/namespaces/inkscape"
   xmlns:sodipodi="http://sodipodi.sourceforge.net/DTD/sodipodi-0.dtd"
   xmlns="http://www.w3.org/2000/svg"
   xmlns:svg="http://www.w3.org/2000/svg">
  <defs
     id="defs18960" />
  <sodipodi:namedview
     id="namedview18958"
     pagecolor="#ffffff"
     bordercolor="#000000"
     borderopacity="0.25"
     inkscape:showpageshadow="2"
     inkscape:pageopacity="0.0"
     inkscape:pagecheckerboard="0"
     inkscape:deskcolor="#d1d1d1"
     showgrid="false"
     inkscape:zoom="0.16361535"
     inkscape:cx="2521.1572"
     inkscape:cy="818.99409"
     inkscape:window-width="1366"
     inkscape:window-height="705"
     inkscape:window-x="-8"
     inkscape:window-y="-8"
     inkscape:window-maximized="1"
     inkscape:current-layer="g18962" />
  <g
     inkscape:groupmode="layer"
     inkscape:label="Image"
     id="g18962">
    <path
       id="path19419"
       style="fill:none;stroke:#584a57;stroke-width:1.19512"
       d="m 497.34424,255.48747 c -1.93756,2.67124 -7.56055,18.85257 -0.93639,19.8699 1.82637,0.28048 3.35625,-0.73825 4.69725,-1.86411 6.28503,-5.27663 -0.95144,-13.34028 -3.76086,-18.00579 z M 484.86431,251.635 c -0.0817,8.77667 3.4526,17.05477 4.71259,25.51742 m -5.69502,-24.52325 c -2.37717,9.36972 -14.13357,24.84159 8.44276,14.81614 m -27.89201,-14.94752 c -0.74597,-1.55154 -0.53727,6.85817 -0.53727,5.13663 0,-14.91122 13.96285,5.42171 1.84205,15.18894 -0.942,0.75909 -3.41461,3.30655 -4.83539,2.65116 -1.85202,-0.85432 -0.2042,-6.03981 1.27409,-6.75218 5.30504,-2.55644 6.10804,11.32494 10.83742,3.88009 m -28.44894,-23.35469 c 3.77386,1.53459 7.81462,2.61223 11.88126,2.84448 m -11.39005,0.24855 c -0.26639,1.96677 -0.18283,3.95989 -0.10744,5.93749 0.59877,15.7096 4.56116,-4.73487 9.17958,5.79942 0.43405,0.99005 1.38405,3.18864 1.02848,4.30814 -0.96308,3.03206 -10.72508,5.7191 -12.38782,0.17951 m -15.22767,-16.59738 c -1.85561,0.5237 12.01968,0.14917 9.96245,-0.22093 -2.14607,-0.38608 0.51292,20.91343 0.66007,22.88008 m -36.21611,-18.6645 c -6.06403,2.36814 -8.04139,16.94615 -8.87257,23.23909 m -1.32014,-24.48182 c 3.81498,6.66727 7.4741,13.92875 12.64879,19.60755 m -25.19013,-21.45784 c 1.12577,7.25655 2.57237,14.5606 4.4056,21.70638 m -9.40366,-21.38895 c 4.6534,0.49904 9.29602,0.39053 13.92288,1.2013 m -35.82466,18.78079 c 0.54219,2.27396 1.867,4.21838 3.07009,6.18605 m -11.7431,-16.43169 c -2.89781,-4.74246 -5.26606,6.05104 -4.39023,8.35392 0.29442,0.77418 6.97805,4.53484 5.98668,5.42661 -1.08998,0.98046 -3.13095,0.55926 -4.62049,2.36118 m -12.09643,-10.99526 c -1.18901,-12.09065 -17.2156,6.06624 -5.58758,9.45857 4.1972,1.22448 5.42318,-8.7046 6.40115,-10.508 0.60169,-1.10952 -0.0101,-5.03494 0.1535,-3.78342 0.31883,2.43777 3.32581,18.64557 5.1424,13.10392 m -24.82169,-21.67877 c 1.62242,8.0447 1.74873,16.77147 4.55907,24.57847 m -14.53689,-22.96292 c -0.15298,8.01961 1.83393,15.95939 4.31348,23.54286 m -14.10707,-14.2776 c -3.11926,-11.00609 -13.46964,9.5047 -4.25207,9.81758 6.58197,0.22343 4.93802,-5.87653 4.25207,-9.81758 -0.10164,-0.58402 0.72138,-1.26357 0.36841,-1.73982 -1.08464,-1.46349 0.47915,3.61177 0.75218,5.41279 0.414,2.73092 1.97802,12.40164 5.51082,6.75217 m -34.24689,-15.86555 c 10.54967,-14.23814 22.97923,12.47688 6.33973,20.57413 m -5.64896,-26.89825 c 2.68457,8.59559 4.08271,17.73927 7.39892,26.1388 m 27.38955,-66.3757 c -0.53984,1.98393 -0.56647,4.04054 -0.70612,6.07558 -0.13126,1.91262 -0.1954,3.89898 -0.0461,5.81323 1.17081,15.00773 15.2413,4.43619 6.01738,-7.45639 -1.74619,-2.2514 -2.94896,-3.83171 -6.00202,-3.17588 m -28.93564,-2.58211 c 9.24777,-6.01873 8.17327,14.14767 4.39024,11.64025 -3.90635,-2.58917 9.35927,-11.70936 8.67302,4.03198 -0.13226,3.03355 -4.259,9.81497 -5.94064,4.14243 M 260.76727,209.9929 c 1.04934,8.79855 2.27474,17.51702 4.34419,26.1388 m 21.90512,-23.99853 c -0.34952,7.82708 2.21412,15.27775 3.62271,22.88007 m 21.47529,-23.21147 c 0.23322,8.91708 3.18255,17.42989 4.8661,26.08357 m 26.79524,-26.1099 c 1.16833,-1.20073 1.47294,-3.53518 3.07009,-4.32193 3.32073,-1.63578 9.40504,5.29413 8.76513,8.492 -0.66116,3.30405 -4.13068,7.54626 -6.35511,9.81757 m -2.02625,-17.66059 c -3.6796,2.78702 5.78267,23.37136 4.63583,25.43457 -0.46101,0.8294 -2.54053,0.0239 -3.08544,-0.12427 m 10.42297,-14.7747 c -3.33519,-2.53748 6.23493,17.47203 4.77399,14.84374 -3.39341,-6.10492 2.12819,-18.17576 2.82449,-14.92658 m 2.76309,4.90188 c 2.48846,-3.8997 6.1435,-1.07511 9.22562,-2.2093 5.24335,-1.92948 -5.78301,-11.02926 -6.06342,2.84448 -0.0691,3.41992 4.54059,12.16804 7.26077,5.97891 m 11.60979,-13.13439 c -0.6388,0.79623 -2.41035,-0.94272 -3.00868,-0.63518 -0.73226,0.3764 -1.85287,4.09443 -2.02626,4.87428 -2.47764,11.14346 18.92486,9.0385 -0.59867,13.7667 m 6.04808,-11.57121 c 4.18285,-0.0727 8.40443,0.21462 12.46458,1.04941 m -4.12927,-14.47091 c -11.84703,2.96194 5.46809,21.27756 -1.04384,27.25725 m 13.21823,-19.27346 c -7.83951,-2.95921 -10.58716,18.68631 -1.90346,17.38443 12.02344,-1.80255 2.19521,-19.70274 -0.41446,-11.12934 m 11.42254,-5.84639 c -4.37276,2.47536 2.72366,17.83414 2.30256,18.21291 -1.10745,0.9962 -0.88481,-2.85368 -1.13592,-4.32194 -0.55441,-3.24153 0.54087,-8.67205 3.79156,-10.36991 3.50838,-1.83244 5.0722,5.54094 5.77178,7.42877 0.79152,2.136 1.27996,4.82666 1.05917,6.6141 m 23.99758,-21.97099 c 1.63101,-4.05027 7.3581,-4.37993 8.84187,0.069 1.05953,3.17692 -8.96132,13.04691 -9.60938,10.7151 -0.8663,-3.11702 3.88604,-4.01829 5.84852,-3.28633 2.89339,1.07915 10.11007,17.73168 11.37469,9.38953 m -16.65522,-20.68454 c -1.55666,8.84308 2.49189,16.13246 4.72795,24.17804 m 12.53919,-18.9755 c 0.68094,-1.89011 1.451,-4.21947 3.62271,-4.77762 6.69218,-1.71994 12.6741,9.2543 11.49751,14.89898 -1.03313,4.95639 -6.92321,7.86684 -10.36157,10.72891 m -1.7653,-25.6555 c -0.44734,7.28506 1.16446,14.86314 4.34418,21.20928 m 188.85538,-14.89455 c -0.52431,1.51574 9.28532,0.60909 8.70372,1.13227 -3.86926,3.48048 -1.36352,19.02174 -1.44295,24.0952 m -18.4471,-27.57043 c -0.28642,1.37438 -1.6712,4.2085 -0.27632,5.34375 0.93095,0.75765 4.0002,-3.07166 5.60293,-2.65116 3.85591,1.01164 2.70221,11.34247 1.59645,13.96002 -0.90108,2.133 -7.77136,8.92765 -8.1511,3.12063 -0.10776,-1.64783 8.52181,3.42535 9.68615,3.89391 m -16.25615,-22.14825 c -7.38717,-1.39335 -13.00713,16.23594 -5.28057,18.03342 7.87159,1.83121 7.78479,-14.24494 5.28057,-18.03342 z m -21.78231,-0.44186 c 5.31844,-2.96225 10.76248,0.55012 15.97983,1.14607 m -15.7966,-2.67791 c 0.51271,2.61401 -2.18983,13.97754 1.76531,15.32703 2.24347,0.76548 6.95303,-10.60561 7.65987,-5.09521 1.22429,9.54438 -4.45733,14.23969 -11.4054,5.93749 m -6.17088,-5.82702 c -2.06714,0.25946 -4.69045,1.53716 -6.49326,0.13807 m -16.11797,-12.06829 c -0.45224,2.55404 -0.85017,5.13113 -1.08989,7.71873 -0.26446,2.85472 -0.80096,8.52745 2.79379,9.36192 9.17779,2.1305 10.69698,-16.9096 1.45828,-14.9542 m -11.41728,-2.57872 c -1.62183,7.68613 2.22055,15.11787 4.03716,22.36916 M 579.03786,213.0754 c 1.84986,7.21184 2.26275,15.11434 5.48013,21.95493 m -49.35421,-21.4403 c 5.52974,-0.72765 11.39741,-0.22849 16.65526,-2.30596 m -14.01497,9.94186 c 4.02793,-0.90188 8.19535,-1.77806 12.18826,-2.85829 m -13.87681,-5.90987 c -3.68625,5.73378 8.11818,11.16892 7.58313,14.89897 -0.26228,1.82844 -7.0802,7.31579 -2.80914,7.40116 4.01696,0.0803 11.46336,1.50793 10.1313,-3.85248 m -30.04086,-18.50289 c 4.55427,-0.84536 9.33863,0.16168 13.84612,0.23474 m -8.81116,-0.99419 c -1.66792,8.04323 3.19843,14.97868 4.02182,22.71438 M 517.6796,219.56894 c -1.2659,-2.65693 -0.51292,-5.93277 -1.25874,-8.61627 -0.73405,-2.64117 -6.9254,4.45544 -7.10725,7.31832 -0.38722,6.0953 9.58916,14.1859 9.57868,14.23618 -0.0744,0.35683 -5.37387,-0.11685 -7.59848,1.82267 m 8.8487,-56.1274 c -0.6714,7.3889 2.32382,14.13077 4.80469,20.75361 m -6.73556,-11.18173 c 1.78908,-4.52665 -3.34295,-2.55078 -4.94286,-0.11047 -8.51539,12.98838 6.19366,15.7809 8.1511,2.92734 m -27.81505,0.46948 c 2.95811,-1.61151 9.77579,1.35615 12.17293,-1.51891 1.38646,-1.66287 -6.28859,-4.61054 -9.21028,-0.74563 -1.03579,1.37017 -1.2578,4.11089 -0.75218,5.70275 2.46988,7.77599 9.72277,3.22307 14.49085,0.51092 M 481.82895,178.53 c -0.21672,1.89465 8.55531,29.16163 2.76309,22.60391 m -4.74329,-10.16278 c 2.92108,-0.60119 6.20768,-1.9226 9.16423,-1.02181 m -16.74736,-19.20711 c -0.10404,0.92318 -0.78123,1.6517 -1.22803,2.44404 m 3.1622,11.11555 c -2.19012,6.10987 1.06386,10.34763 3.4692,15.65841 m -26.49108,-14.82054 c -0.63872,1.91106 -0.4395,4.0046 0.13815,5.90988 0.63627,2.09859 1.62806,3.91329 2.47143,5.92369 0.26471,0.63101 1.04224,2.52027 0.69077,1.93313 -1.62622,-2.71668 -2.49369,-12.89821 2.94729,-11.99926 2.50757,0.41429 3.92893,10.07395 2.24117,10.41133 -1.21416,0.24271 -1.97109,-10.35051 2.31793,-10.50798 4.54483,-0.16686 4.37632,9.4319 5.15775,11.57121 m -17.00832,-26.24926 c -1.15519,0.7515 -1.67479,1.8175 -2.22582,2.99637 m -5.38801,9.44476 c 1.48258,5.38721 1.99484,11.44829 4.17533,16.56976 m -22.18143,-26.24926 c -0.88785,7.28629 2.78368,13.47217 4.68189,20.15987 0.24435,0.86087 0.90935,2.40543 -0.18421,3.03779 -1.065,0.61586 -4.5527,-0.20138 -3.63806,0.62136 0.15352,0.13809 9.58638,-3.62323 13.23211,-2.72019 m -44.90512,-7.6967 c 4.41557,-7.95274 -4.25495,-3.15222 -2.10301,3.30015 2.42733,7.27818 14.51566,8.7361 -1.25874,8.57485 -1.36624,-0.0139 -2.99575,-0.61638 -4.02183,-0.98037 m -9.07212,-8.54724 c 19.41865,-5.91512 -2.56695,-11.50717 3.05474,4.22529 1.68385,4.71229 7.75772,4.58742 8.78046,-0.44186 m -14.09172,-12.93822 c 4.37086,-0.85346 -9.98575,12.78374 -8.19715,9.12717 3.02058,-6.1752 11.20177,9.67373 11.6203,11.40552 M 366.96024,176.1036 c -0.34658,7.91538 3.18764,18.31353 4.62049,24.75798 m -11.30488,-14.23662 c -4.22864,-7.49939 -12.82913,6.17915 -9.74753,11.7231 3.57261,6.42731 7.8529,-1.77884 8.48881,-5.41277 0.25336,-1.44792 0.3991,-2.91876 0.3991,-4.391 0,-0.39207 -0.13423,-1.56151 -0.0767,-1.17369 0.38014,2.56467 4.63805,17.78974 6.63139,9.72093 m -26.011,-21.95607 c -1.66774,8.34445 2.17598,17.42136 3.4692,24.63372 m -8.61161,-9.15479 c 4.13593,-1.52553 8.6164,-0.57898 12.47994,0.20711 m -16.48641,-11.10174 c -1.19403,2.39477 2.19832,8.74181 2.53282,7.71875 0.92202,-2.81984 -6.18181,-6.47824 -6.83095,-1.58793 -1.35457,10.20466 4.81665,8.4478 7.30683,12.31685 1.56573,2.43272 -3.88599,1.33653 -4.77401,0.99418 m -16.54779,-14.00144 c 7.21631,-11.95773 17.53016,15.08428 1.7653,14.05667 m 0.7094,-17.11852 c -1.28679,4.44633 8.82609,26.2497 2.90123,27.06394 m -17.3396,-21.71577 c 2.71043,0.0183 5.56033,-1.31572 7.70593,-2.98256 3.72542,-2.89414 -3.55639,-6.0977 -4.49769,-1.86409 -1.33533,6.00579 3.30275,19.57041 10.65322,12.55158 M 291.01698,186.618 c 21.85774,-8.95961 -1.90902,-12.91091 4.03716,4.54287 1.22885,3.60703 7.74371,11.15898 8.48881,2.63736 m -27.79969,-12.86918 c 0.58634,5.08498 0.51015,11.41143 3.26965,15.96221 1.63038,2.68871 2.30257,-15.02802 2.30257,-13.20058 0,17.74268 13.90782,16.48057 7.07657,-2.18169 m -22.9643,-3.17586 c -1.35721,-2.13043 -1.40813,-4.73418 -2.60958,-6.93168 -4.74166,-8.67265 -4.87388,6.58279 -3.30035,10.12136 1.42831,3.212 11.66718,10.41193 11.03698,13.4353 -0.91183,4.37451 -12.33346,-1.33768 -14.01497,-5.2609 m 53.26858,-82.6662 c 7.01682,-6.42907 -9.93176,-0.29708 -9.93176,12.26162 0,1.46811 0.1266,3.83782 1.65786,4.57049 4.7734,2.28394 9.34897,-10.73743 10.06989,-13.7529 1.39247,-5.82438 1.06003,5.1697 1.2741,6.94549 0.28465,2.36135 0.61401,4.6732 0.61401,7.05596 0,2.09605 0.23355,4.27487 0.0153,6.2965 m -24.29973,-24.93748 c 1.88352,-1.0426 3.10136,-0.14505 4.58978,1.09084 7.72631,6.41538 -2.50575,13.74636 -3.05473,12.75871 -1.82735,-3.2875 5.83055,-5.67434 8.0283,-2.49927 4.37493,6.32046 -5.4671,14.51122 -5.05031,9.76235 m -18.21018,-20.38506 c 0.31798,9.28518 0.20536,-2.12645 4.03716,-2.12645 4.0818,0 4.59455,9.96959 4.66655,12.68967 0.0646,2.44117 -0.48589,9.25596 -3.30036,10.36991 -2.20489,0.87267 -6.67088,-3.92901 -4.08321,-4.48765 2.90087,-0.62625 6.62231,3.83201 9.71684,3.71439 M 260.92799,99.887943 c 0.0555,1.574667 -6.00602,27.894217 1.88811,24.343737 1.80037,-0.80975 10.62889,-9.17378 5.12705,-9.61046 -2.41363,-0.19157 -3.34522,8.46967 1.3048,8.17441 m -18.0185,-21.42153 c 0.99402,7.91459 1.62767,15.94744 2.85518,23.84664 m -5.66431,-23.51525 c -0.55044,1.39401 -1.24792,2.73232 -1.91881,4.0734 -9.96405,19.91759 -1.8302,5.49249 8.59627,14.87136 M 222.63744,96.610022 c 0.66567,8.830908 1.75152,17.739058 3.77622,26.359718 M 208.51502,102.5199 c 6.38745,5.55864 9.89938,15.40608 15.99518,20.40842 m -12.09617,-21.15406 c -0.26496,8.11297 0.29633,15.98766 2.59423,23.70856 M 189.5572,99.730659 c 6.44545,-0.345048 11.08558,5.029911 17.37672,1.753631 m -15.58072,20.51889 c 3.63961,-0.92711 15.5361,3.63668 16.39429,-1.57413 M 196.64912,99.661618 c -0.47149,8.408922 2.47582,16.235302 4.46698,24.205652 m -23.20778,-3.79184 c 0.59797,1.54477 0.97527,3.15848 1.22804,4.79142 M 166.94564,107.7603 c -4.17903,-2.82072 -7.09017,5.94064 -5.63362,8.56104 0.71955,1.2945 11.49085,6.06047 7.9976,7.55305 -2.54022,1.08538 -9.31677,4.09133 -10.30017,2.7202 m -0.85963,-27.091549 c -0.5705,-0.631322 -0.68736,-1.461365 -0.92102,-2.236917 m -3.94508,7.787786 c 0.80111,5.64178 0.98744,11.84031 3.65341,17.02543 M 145.4857,97.846066 c 1.26807,9.318074 0.79464,18.873684 2.33326,28.154784 m -15.85703,-17.28779 c -0.52487,1.43908 -0.65124,3.01385 -0.69077,4.54288 -0.58879,22.77402 11.22484,0.96378 9.65544,-0.80087 -1.39238,-1.5656 -4.75059,-1.83173 -6.6314,-2.01599 m -17.79616,-0.80017 c 13.10796,-12.096688 14.31027,19.29508 1.53505,14.27761 m -0.61402,-16.51453 c -2.29439,6.14088 8.98237,26.31518 1.98021,30.06031 m -15.42623,-23.71881 c 8.06916,-3.50337 -2.06961,-6.65945 -4.743288,-2.76163 -1.36228,1.98601 -1.12134,5.14502 -1.47364,7.44258 -0.16838,1.09805 -1.06193,4.56822 -0.0614,5.39898 0.76702,0.63688 2.26488,-0.4978 2.977988,-0.74564 8.99748,-3.12701 1.99776,-23.384167 6.17089,-5.17805 0.45947,2.00454 0.95119,4.45447 1.50435,6.18605 m -23.731828,-18.6686 c -0.92719,4.49636 -0.80557,9.14895 0.0614,13.64244 0.21311,1.10457 0.70612,4.42509 0.70612,3.30014 0,-3.02657 -1.78669,-6.25557 -1.10523,-9.32049 0.30917,-1.39054 1.17747,-2.3766 2.48677,-2.8859 7.28133,-2.83232 6.52024,8.97574 7.55243,12.68967 m -21.34479,-12.96297 c 2.4696,-12.804399 -10.25472,0.41668 -8.1511,9.36191 0.36223,1.54031 1.18195,3.36724 2.94729,3.59011 4.35315,0.54959 6.14019,-6.86129 6.14019,-9.96947 0,-1.97627 0.10635,-3.98695 -0.27631,-5.93749 -0.0918,-0.46821 -0.29714,-1.87109 -0.32236,-1.39462 -0.14374,2.71527 1.74068,23.76211 6.83096,13.80813 M 69.980482,92.329932 c -1.82787,-0.533221 -3.70265,-0.947317 -5.24986,-2.029796 m -5.44941,13.697664 c 0.48473,5.87628 0.91272,11.90862 3.19289,17.39825 M 46.865252,95.589783 c 1.69848,8.418897 1.17098,18.451247 5.32661,26.097367 m -5.44941,-11.30886 c 0.38241,-1.32957 0.80969,-3.44421 -0.67542,-4.29433 -6.0931,-3.48784 -16.10409,16.22358 -4.94285,15.85174 2.68097,-0.0893 5.06418,-2.0696 6.32439,-4.4048 0.85073,-1.57641 1.46446,-3.24622 1.81136,-4.98473 m -25.15942,-6.2827 c 0.81452,1.82907 1.08176,3.79984 1.28944,5.7718 0.23327,2.21485 0.58409,4.40596 0.85963,6.61409 0.79285,6.35386 -0.4361,-6.11547 0.50656,-8.58866 0.69685,-1.82825 1.95089,-3.47428 3.73017,-4.34956 5.35337,-2.63347 4.57443,6.40489 4.57443,9.48619 0,1.73816 -0.0577,3.51946 0.18421,5.20567 M 5.280842,92.344873 c 4.55857,0.825566 9.53123,-0.710013 13.93822,0.814679 M 5.572502,122.88846 c 5.31323,0.95447 10.93056,-1.42312 16.11799,-0.12427 m -8.76512,-30.585015 c -2.4507,10.537075 2.14941,19.970145 4.23673,29.894605 m -2.96302,-69.085804 c 3.31255,8.341916 3.52221,20.378071 4.35953,27.533415 m -8.67301,-33.85754 c 0.69441,6.559966 1.39513,13.382027 -0.52192,19.787053 -0.10934,0.365327 -1.72398,5.251869 -1.51969,5.343747 2.55329,1.148377 8.44679,-1.04946 10.62252,-1.532703 m 6.76955,-11.433133 c -1.01879,-5.156241 5.39018,-3.637149 6.63141,-0.5109 1.96265,4.943282 1.77328,20.637106 -5.05031,22.590103 -3.20821,0.918231 -2.45592,-5.297967 -0.39911,-6.006537 5.58216,-1.923049 9.08535,10.560219 12.69484,2.623546 m 3.07074,-24.88808 c 0.002,-0.228101 0.3094,8.08817 0.39911,7.442584 2.11757,-15.238442 11.6602,17.40556 2.70168,20.960743 -3.21377,1.275385 -3.95066,-6.968656 -1.51969,-8.091565 3.80636,-1.758227 6.88849,8.896924 11.5896,7.525432 m 7.15359,-27.243013 c -2.88552,-2.25356 -3.6083,6.279416 -3.79157,8.340113 -0.58169,6.54056 5.88821,9.790739 7.36823,15.382258 0.33608,1.269731 -10.08433,2.093913 -10.45367,-1.449853 -0.50999,-4.893348 16.1544,-16.247006 3.80691,-19.455659 m 36.23507,3.876526 c -0.28884,-1.631456 -0.19268,-3.397301 -0.67542,-4.998545 -1.3423,-4.452415 -7.81414,-2.20598 -8.79582,1.284156 -2.25107,8.003159 6.72119,29.908939 10.83743,16.072666 m -4.55909,-7.525431 c 13.739238,4.411563 6.62059,1.772317 10.806728,15.202753 m 9.18974,-18.044099 c -2.12686,-2.531593 -3.39936,0.05052 -3.60736,2.402613 -0.19047,2.153897 -0.68707,4.226267 -0.75217,6.393165 -0.28517,9.490959 14.07456,6.813721 7.35287,-3.935316 -1.09303,-1.747925 -1.58532,-3.057811 -3.73016,-2.554506 m 12.75623,-3.148254 c -5.11994,-1.423223 -5.5531,14.136789 -1.16663,15.396068 4.23852,1.216804 8.15038,-7.616 2.37932,-11.571215 m 14.39032,-2.262537 c -0.67594,-0.427879 -2.54344,-2.181475 -3.592,-1.615553 -0.86194,0.465195 -1.01553,2.911616 -1.3355,3.728196 -4.32254,11.031731 7.62646,8.940857 5.75643,12.164964 -0.8452,1.457177 -5.12335,0.281858 -6.43185,0.89753 m 7.64453,-11.474558 c 2.56489,-0.287022 5.99093,0.232192 8.33531,-1.173691 0.24995,-0.149895 -2.91339,-3.844942 -3.34641,-3.617731 -4.89279,2.567361 -4.95427,11.654268 -2.11837,15.409875 4.24107,5.616452 11.27767,-2.728963 13.49306,-6.089386 m 99.81685,-7.234166 c 1.29128,7.738415 1.69566,15.573494 2.19512,23.390974 m 9.14888,-8.464385 c -0.49066,0.848886 -0.8794,0.808212 -1.5811,1.118459 m -16.1794,-16.901153 c 4.05824,2.332072 8.92061,-0.26441 12.92511,1.297965 m -14.5369,5.992729 c -6.33227,-23.949844 -11.93591,20.934374 0.76752,13.835747 2.80199,-1.565736 4.35221,-3.880853 5.18845,-6.945489 M 226.77797,61.927285 c 4.37035,6.632886 -10.52094,15.503811 -9.6094,9.928047 0.0889,-0.543839 1.18368,-0.632733 1.5811,-0.648983 6.93355,-0.283494 10.26996,9.812063 14.12244,13.946214 m -14.16848,-26.23545 c 0.67428,7.918021 2.66892,15.635485 3.48455,23.542863 m -8.96467,-21.609725 c -0.42567,2.081167 -1.44706,6.640391 0.36841,8.436768 0.96559,0.955419 -0.52821,-7.206874 -4.52839,-3.921509 -2.84772,2.338844 -3.96246,8.670514 -2.30256,11.916418 3.23509,6.326191 10.6597,2.708283 12.35712,-2.941132 M 195.66258,62.962895 c 1.23315,4.143988 -1.12333,11.110816 1.44293,14.829933 3.32274,4.815427 5.94319,-4.599534 5.77178,-6.835024 -0.2325,-3.032725 -3.9209,-7.841387 -5.09634,-2.692587 m -16.56317,-9.789965 c -1.53678,0.208292 -2.21607,-1.122155 -1.47363,-2.457848 4.26701,-7.676569 13.34591,10.746674 2.65562,15.437492 -0.82306,0.361151 -2.17897,1.173866 -2.90124,0.248547 -2.7387,-3.508669 6.37316,-0.615092 7.30683,-0.09666 3.79665,2.10814 6.91397,5.626784 10.11596,8.450576 m -19.23413,-26.13879 c -0.0281,8.632559 1.66486,16.954441 4.89678,24.896061 M 214.1376,20.588381 c -0.37534,9.327186 1.35724,19.063737 4.22138,27.823386 m -7.89013,-17.301589 c 3.86657,0.359637 9.52485,1.688229 12.67947,0.510901 M 205.26504,17.163965 c -1.07188,0.276043 -1.72333,0.920101 -2.48678,1.629359 m 3.10079,9.265256 c 1.87461,5.699066 3.69111,11.326298 4.5591,17.260166 m -8.30461,-14.512347 c -2.04442,-1.870343 -5.00278,-2.478138 -6.86167,-0.09666 -6.87297,8.805264 0.69389,21.128717 3.23896,8.823396 0.95674,-4.625741 2.38598,-9.186042 1.74996,-14.001446 -0.4259,-3.224432 -1.16665,-6.411861 -1.16665,-6.089385 0,8.500165 3.53762,18.139023 4.5898,25.710742 m -25.38967,-9.430953 c 2.213,-1.731803 5.79457,-1.612968 7.95154,-3.300143 4.376,-3.422892 -7.83013,-7.117043 -6.18625,4.501451 0.66478,4.698385 6.3912,9.855026 9.51729,3.686771 M 171.44693,25.041288 c -0.90673,-3.029032 1.20544,18.541963 1.84205,15.106096 0.37541,-2.026178 -0.622,-4.199394 -0.0307,-6.420781 0.47147,-1.771208 5.80932,-12.105244 5.97134,-7.635897 m -13.78471,-0.607558 c -0.24933,-1.404886 -0.51697,-2.783936 -0.95174,-4.142439 -2.91148,-9.09741 -7.33135,-1.093128 -6.877,4.832846 0.38242,4.988081 8.10305,21.154929 10.77603,8.892436 M 132.65887,18.059767 c -0.2058,2.560641 0.52057,5.075681 0.72148,7.622089 0.17917,2.271198 0.57903,4.433279 0.87497,6.669327 0.32364,2.445503 0.75,4.955235 1.38155,7.345926 0.18852,0.713664 0.78033,2.833241 0.70612,2.098836 -0.31602,-3.126889 -2.17265,-17.259673 4.46698,-15.630805 5.07383,1.244741 -0.69787,14.944793 6.00203,15.865543 m -21.99722,-15.58938 c 0.97413,-12.759736 -4.34606,-0.935013 -3.89902,4.694764 0.20919,2.634356 2.27769,4.868891 4.23673,6.379358 0.21441,0.165313 2.38377,1.188394 2.08766,1.587935 -1.35676,1.830672 -5.33504,1.617864 -6.56999,0.635174 m -6.59611,-15.377566 c -8.40264,-10.806557 -13.67154,14.855133 -5.26521,12.054498 6.8554,-2.283927 1.11755,-22.360188 4.54374,-7.566856 0.34996,1.511032 0.55874,3.091573 1.02848,4.570492 0.52053,1.638799 1.02245,3.283491 1.5197,4.929503 m -14.629,-14.277608 c -13.344578,-31.2504404 -9.157238,24.379619 0.0461,13.034876 M 61.606002,24.37305 c 1.91902,-0.10234 4.37162,-0.939356 5.26521,-2.830667 0.72596,-1.536504 -1.72818,-4.741964 -3.03939,-3.562498 -2.5461,2.29028 -0.27891,15.933666 1.90346,18.268159 4.54104,4.857576 8.19125,-4.40789 7.93619,-7.925869 M 54.022872,15.7982 c 4.32319,-0.716458 -4.3418,16.362727 -4.77399,13.835748 -1.85724,-10.859121 11.05584,8.20992 11.17514,8.367728 M 48.435302,9.0184076 c -0.9866,10.0800134 3.48581,19.6210504 4.39024,29.3837044 m -12.39678,-16.26927 c -3.58908,-12.053069 -15.36128,9.310465 -7.04587,12.496359 5.38805,2.064328 5.48012,-9.299009 5.48012,-11.75072 0,-1.477903 -0.10746,-5.910314 -0.10746,-4.432409 0,4.96494 0.59208,13.87296 4.8047,17.06685 M 22.438012,8.6699136 c 0.85099,9.5495734 0.26152,20.9341474 5.0503,29.5494014 M 16.804392,23.11322 c 4.15111,-0.844384 8.54568,-0.798926 12.67948,-0.05523 m -14.09172,-6.21366 c -0.1081,-2.129637 -0.99932,-4.180681 -1.91881,-6.089385 -3.3877,-7.0322824 -9.68987,-0.9793144 -7.36823,5.053775 0.98759,2.566364 11.5097,17.223475 10.72998,18.392432 -0.98773,1.480812 -7.03909,0.800871 -8.07435,0.800871" />
  </g>
</svg>
