<?xml version="1.0" encoding="UTF-8" standalone="no"?>
<!-- Created with Inkscape (http://www.inkscape.org/) -->

<svg
   version="1.1"
   id="svg59"
   width="3000"
   height="1998.207"
   viewBox="0 0 3000 1998.207"
   sodipodi:docname="FrankN - Stake - Envelope17.svg"
   inkscape:version="1.2.1 (9c6d41e410, 2022-07-14)"
   xmlns:inkscape="http://www.inkscape.org/namespaces/inkscape"
   xmlns:sodipodi="http://sodipodi.sourceforge.net/DTD/sodipodi-0.dtd"
   xmlns="http://www.w3.org/2000/svg"
   xmlns:svg="http://www.w3.org/2000/svg">
  <defs
     id="defs63" />
  <sodipodi:namedview
     id="namedview61"
     pagecolor="#ffffff"
     bordercolor="#000000"
     borderopacity="0.25"
     inkscape:showpageshadow="2"
     inkscape:pageopacity="0.0"
     inkscape:pagecheckerboard="0"
     inkscape:deskcolor="#d1d1d1"
     showgrid="false"
     inkscape:zoom="0.86577801"
     inkscape:cx="313.01326"
     inkscape:cy="221.18834"
     inkscape:window-width="1920"
     inkscape:window-height="1051"
     inkscape:window-x="-9"
     inkscape:window-y="-9"
     inkscape:window-maximized="1"
     inkscape:current-layer="g65" />
  <g
     inkscape:groupmode="layer"
     inkscape:label="Image"
     id="g65">
    <path
       style="fill:none;stroke:#8e868d;stroke-width:0.232162"
       d="m 5.6539152,214.86309 c 2.5463628,0.93817 4.8596348,1.37719 7.4292138,0.27094 0.842055,-0.36264 2.509681,-1.19471 2.282859,-2.36041 -0.354282,-1.82294 -4.274352,-3.24703 -5.4558301,-4.64325 -2.0109946,-2.37689 -3.4901051,-6.16184 -4.3335529,-9.05436 -0.6716468,-2.30229 -0.4192863,-4.4093 -0.3870162,-6.73272 0.021591,-1.55552 1.1907641,-2.7822 2.7859549,-1.97339 2.0472133,1.03798 2.5874573,4.83203 3.7146083,6.61665 m 209.875288,-5.10759 -1.39297,3.01812 M 22.137483,192.57545 c 0,1.15183 0.192928,2.307 0.232163,3.25028 0.224008,4.85113 2.490429,9.62672 3.637297,13.69761 0.70415,2.53546 2.166777,5.1589 2.166777,7.89354 0,1.47818 -0.338029,3.20362 -2.321629,2.78596 m 24.377106,-27.62739 c 0.802425,8.13885 1.482672,17.46004 6.036237,22.75197 m 46.432586,1.8573 c -13.00587,5.76389 -12.69003,-12.60213 -10.29248,-19.73385 0.504024,-1.45192 1.276895,-3.17671 2.631101,-3.98545 0.841127,-0.5023 2.230157,-0.70747 3.250281,-0.34824 1.381137,0.48634 2.514978,1.4093 3.123718,2.69827 0.57344,1.21468 0.57696,3.71096 1.51954,4.65354 m 70.34536,16.2514 c -1.06563,3.68141 -6.05736,-0.36078 -7.4292,-1.8573 -3.47456,-3.79029 -4.87542,-9.71764 -4.87542,-14.62626 0,-1.63675 0.52793,-3.91304 1.85729,-5.10759 0.45017,-0.4044 1.72753,-1.10832 2.28286,-0.65781 0.55697,0.45175 0.47896,1.19409 0.77403,1.81863 0.78193,1.65578 2.03608,4.23186 2.28286,5.57191 m -31.10983,-7.42921 c -1.38392,1.75282 -1.22652,4.10672 -0.85134,6.03623 1.01687,5.22947 2.43934,11.21997 4.10162,16.48357 m 93.09734,-20.6625 c -3.2297,3.47442 2.3622,16.75206 3.94678,21.12682 l 0.69649,3.01812 m -24.84144,-22.28764 c 0,4.28318 1.72264,8.36181 2.70934,12.30464 0.45737,1.83292 0.80561,4.00527 1.00526,5.80407 0.12074,1.08768 0.26467,1.93275 0.46433,3.01812 M 57.658411,198.84385 c 0,1.81505 0.406981,4.19193 -0.309473,5.80407 -0.633341,1.42502 -1.762349,2.36365 -2.43771,3.71461 -0.413948,0.82766 -1.474932,3.44971 -2.824727,2.90204 -1.611212,-0.65377 -1.72706,-3.75454 -0.464326,-4.68203 5.639467,-1.05831 10.799343,7.31093 14.161939,10.60218 m -21.88678,-4.75865 c -9.820252,12.20714 -13.508726,-9.84059 -6.437098,-13.04058 1.014784,-0.30994 2.005656,0.12815 3.386279,0.4217 0.368162,0.84703 1.212869,4.76366 1.295751,5.30506 0.500311,3.27535 1.269468,6.7181 2.785955,9.75084 1.026625,2.05348 3.084517,3.70811 5.068814,2.08947 m 25.344224,-6.25219 c -0.441342,1.19796 -1.358311,4.17154 -1.934541,5.32354 -1.147117,2.29423 -3.667941,2.9415 -4.759339,0.23216 -0.565549,-1.40412 -0.735726,-2.78851 -1.083273,-4.17893 -0.795391,-3.18087 -2.693786,-7.53091 -1.238357,-10.91166 1.010605,-2.34717 5.067885,-2.07925 4.798112,0.69649 -0.201285,2.06973 -3.802457,2.72007 -5.192186,4.07334 m 53.983495,8.01397 c 0,3.15904 -6.79814,6.68956 -10.0201,3.4676 -1.34748,-1.34747 -1.62514,-3.53119 -1.62514,-5.33974 0,-4.07028 4.30914,-9.04994 7.77526,-11.78715 3.05961,1.61509 3.15089,19.23685 6.38668,19.33244 1.3607,-0.0618 1.62514,-2.70771 1.62514,-3.59852 m 3.94677,2.78595 c 0.9384,-0.9384 5.10758,-2.49297 5.10758,-3.71461 0,-2.15354 -4.40018,-1.61794 -5.57191,-2.39894 -1.56176,-1.04125 -2.32186,-2.82704 -2.51502,-4.56594 -0.10749,-0.96627 0.34848,-1.97455 0.58041,-3.01812 0.6475,-2.91434 1.43476,-4.51998 4.72057,-3.48245 m -114.224164,0.23217 h 4.643259 1.392978 l 6.732725,1.16081 m 187.685322,10.53729 c -1.00526,1.03289 -7.99818,3.16032 -9.61635,3.16032 -6.44616,-3.30194 1.91759,-13.31962 6.90193,-13.5721 m -37.39965,8.07561 c 0.0999,-1.94208 4.27461,-7.29386 5.42413,-7.50463 1.0893,-0.15346 1.95062,0.77635 2.55378,1.62514 m 6.03549,3.81517 c 1.63953,-1.33749 4.12117,-0.89317 5.57266,-2.03518 0.65517,-0.51563 0.72668,-1.89584 0,-2.3604 -1.93624,-1.23789 -4.11439,-0.11631 -4.9142,1.74123 -0.41223,1.71476 -1.24503,4.14927 -1.12204,5.57191 0.26652,2.74207 3.35801,6.1017 6.03624,5.80407 1.08908,-0.12096 2.08227,-0.98484 3.01813,-1.62514 m 31.10982,-10.44733 11.37599,-0.23217 m -103.14289,4.34214 c -0.41438,-3.24589 3.27053,-5.85101 6.25363,-1.78834 1.93971,2.68589 2.71281,6.51379 3.71461,9.51868 0.43715,1.31148 0.83833,3.08753 2.16678,3.48244 m 23.68061,-15.09059 3.25027,7.19705 1.39299,4.64326 m 44.11096,-11.84031 0.50379,3.25028 1.12135,5.57191 0.92866,3.71461 m 6.50056,13.00112 c -1.71568,1.86264 -1.50674,6.07524 -1.12135,8.59003 1.16571,4.91323 3.11083,9.53239 5.06812,14.16194 m -45.27179,1.62514 c -0.31039,-5.54446 -3.96028,-21.77271 -2.8999,-22.05548 19.62539,0.18699 -0.5033,17.33353 0.57828,12.76896 4.28729,-4.64944 8.24481,3.72071 11.60815,6.07501 1.16431,0.74362 2.09621,1.37579 3.25029,0.88988 m -97.06033,-2.13535 c -2.89693,1.06725 -8.064452,3.86218 -10.895445,2.32874 -10.786937,-6.51456 2.556739,-26.24653 6.732725,-16.21263 m 161.81757,-0.46433 13.00111,-1.16081 M 18.05032,251.31267 c -1.851501,0 -5.649518,0.23216 -7.520984,0.23216 -0.5516187,0 -1.650678,0.20547 -2.0506941,-0.27093 0.2037996,-4.02748 3.2221081,-11.96655 4.7205671,-14.58749 -0.02866,6.03185 3.011947,11.32051 4.024081,16.71572 0.332921,1.71197 0.745939,4.60147 0.967423,5.80408 m 47.593401,-0.42556 c 0.606873,-0.11817 1.817602,-0.21521 2.205546,-0.96742 0.865273,-1.67807 -2.912251,-2.92873 -3.753378,-3.94677 -1.830372,-2.21599 -3.804918,-5.65735 -4.217471,-8.35786 -0.170408,-1.11508 -0.166692,-1.93439 -0.03877,-3.25029 0.126064,-1.29779 1.104399,-4.63165 2.553792,-5.22366 1.257859,-0.51378 4.824113,1.00318 5.262438,2.43771 0.60339,1.97478 -0.137674,4.32287 -1.160816,6.03624 -4.05001,2.72164 -8.80092,14.46934 -0.85134,13.27205 z M 238.51333,236.91857 c 0,1.24834 -0.22054,2.43028 -0.54093,3.7146 -0.83115,3.31715 -4.2393,8.10481 -8.04909,6.50057 1.63631,-2.28671 7.48025,0.73405 9.28651,1.39297 l 7.66138,4.17894 m 19.26952,-0.23217 c -2.77667,0.87665 -4.69201,2.18698 -7.66137,1.23813 -2.04071,-0.65215 -4.38092,-2.34136 -5.18419,-4.48841 -0.37379,-0.99458 -0.61988,-2.37502 -0.61988,-3.48244 v -2.08947 c 0,-1.62862 -0.38772,-3.26932 0.54093,-4.64326 0.85205,-1.26041 3.42441,-2.07042 4.79881,-2.08946 0.4295,-0.006 0.70345,-0.0815 1.16082,0.0773 1.55085,0.53885 2.89274,2.97517 3.01811,4.56595 m -99.83006,8.35786 c -0.35057,0.95164 -0.83974,1.91999 -1.39297,2.78596 -0.80353,1.25785 -1.66392,3.07407 -3.25029,3.25028 -1.03451,0.11492 -2.06996,-0.17947 -2.78596,-0.92865 -1.15803,-1.21143 -1.84452,-2.91783 -2.32162,-4.4111 -1.1499,-3.59969 -0.76708,-8.99979 1.89607,-11.84031 0.83439,-0.89011 2.5582,-1.26947 3.67584,-1.16081 1.10138,0.10702 2.50806,0.6612 2.01216,2.08946 -0.80979,2.33161 -6.07807,3.22614 -7.95417,4.4111 M 41.63917,239.2402 c 2.603938,-2.53545 6.26329,-1.80019 7.119739,1.62514 1.189027,5.21639 2.29775,17.45955 -3.869459,17.41222 -1.341438,-0.0559 -1.987546,-2.07786 -1.857303,-3.25028 1.806393,-5.22119 8.86914,3.4397 10.215168,4.87542 m 173.425705,-8.59003 c -0.57808,0.56183 -1.14687,1.01176 -1.85729,1.19958 -0.80793,0.21336 -1.34191,0.23426 -2.32164,0.1934 -0.52933,-0.022 -0.86596,-0.15904 -1.39298,-0.23217 -1.02847,-0.14278 -2.00124,-0.31527 -2.59325,-1.39297 -1.11207,-2.02516 -1.15152,-4.76097 -1.12135,-6.96489 0.0441,-3.15974 2.7372,-3.82814 5.10758,-4.91419 1.23278,-0.56509 2.35413,-1.08629 3.71462,-1.12205 m -199.892294,0.46433 c -0.03413,1.29616 0.06919,2.76668 0,3.1342 0.845074,-1.21096 1.618408,-2.31815 2.553792,-2.78596 1.847785,-0.92377 3.450637,1.80995 3.753378,3.36636 0.307617,1.58243 0.21777,4.04637 0.193393,5.80408 -0.267306,2.27578 -2.986372,7.81137 -4.643259,8.55125 -0.526546,0.2122 -1.081879,0.36845 -1.58637,-0.0385 -0.851572,-0.68743 -0.682094,-3.02647 0.425555,-3.79215 5.168785,-3.1727 6.409272,2.81742 10.447331,4.56595 m 104.241154,-2.55379 c 0.93933,-1.62235 2.82008,-0.83057 4.41109,-1.14004 0.53072,-0.10308 1.46449,-0.53942 1.74122,-1.18159 0.22218,-0.5154 -3.11933,-2.36945 -3.55975,-3.25028 -0.99064,-1.98081 -0.96742,-4.02222 -0.96742,-6.2684 0,-1.10509 0.0107,-2.29632 0.58041,-3.25028 1.07584,-1.80135 2.20299,-0.93004 3.59852,-0.23216 m 123.08619,-2.8652 c 0,3.31041 0.83077,8.9409 2.32126,11.91955 1.07259,2.14844 2.83008,5.59118 3.21081,7.66138 m -62.64451,-7.89354 c -0.39468,2.36319 -2.58397,5.99654 -5.37921,6.2684 -0.67328,0.0655 -2.14287,-0.29229 -2.78595,-0.7738 -1.32149,-0.9911 -1.39298,-3.17761 -1.39298,-4.56595 0,-2.79617 -0.297,-7.88723 3.94676,-8.35786 5.43747,-0.60301 6.24983,3.59016 5.61138,7.42921 z m -76.88541,-6.46179 c 0.99436,0.91403 0.94468,2.66453 1.23813,3.908 0.20988,0.88849 0.15485,2.01749 0.15485,3.01812 0,1.03521 0.21104,2.07414 -0.0773,3.01811 -0.4627,1.5144 -3.06153,3.40978 -4.56595,3.86946 -2.58977,0.79122 -4.72149,-2.01772 -5.06881,-4.10162 -0.39189,-2.35065 -0.25283,-7.13761 1.62514,-9.01558 0.67513,-0.67536 1.73306,-1.11501 2.74718,-1.35444 1.14732,-0.27087 3.05271,-0.16391 3.94677,0.65795 z m -17.18005,1.12204 c 1.52972,0 3.75593,0.0952 4.79811,1.62514 1.02384,1.50303 0.92679,5.71934 0.30947,7.42922 -0.57135,1.58242 -2.9956,3.48035 -4.64325,3.86946 -1.91813,0.45271 -2.49947,-0.7601 -3.09543,-2.47649 -0.65888,-1.89746 -0.61918,-4.3101 -0.61918,-6.50056 0,-1.3881 -1.19242,-3.39735 0.69649,-3.86946 0.81231,-0.20302 1.57824,-0.0773 2.55379,-0.0773 z m -20.430339,2.78596 c 3.471769,0 8.300989,-0.74664 10.602189,2.32163 1.69339,2.25801 1.55317,6.9347 2.16677,9.05435 m 173.65788,-6.2684 -1.62515,2.32163 m -119.09958,12.07247 1.85731,3.48245 m 31.10984,3.7146 h 1.62513 l 5.33976,0.19339 4.64324,0.96743 m -6.32065,-1.00576 c 0,5.29958 0.36258,18.05233 2.75387,22.83512 m -49.59852,-19.97206 -0.23218,3.71461 v 1.39298 l 1.78,7.89354 0.81258,5.33974 0.19338,1.85731 m -81.953509,-18.8052 2.785955,-0.23216 m 147.191294,0.23216 c -0.41204,5.48545 4.43745,15.65377 2.08947,19.26952 -2.80917,-2.81033 -6.677,-7.83712 -9.75084,-10.91166 -1.15849,-1.15942 -2.73745,-3.9959 -4.26727,-4.52005 0.16188,2.59175 1.07925,4.57431 1.86903,6.84168 0.88222,2.65107 1.28385,5.56054 2.16608,8.35787 M 58.122737,277.77924 c -0.318991,1.10231 -0.232164,2.6441 -0.232164,4.17893 0,2.56796 1.364887,5.37643 2.166777,8.12571 0.783318,2.68566 0.840662,5.31862 2.24432,8.1257 M 275.42723,284.2798 c 0.12306,-1.55735 0.62221,-4.9056 2.78596,-4.87542 1.39298,0.0193 2.93918,1.74865 3.52192,3.01812 0.71273,1.55758 0.42485,3.882 0.42485,5.80407 v 2.08947 c 0,1.40575 0.12537,2.88555 0,4.17893 -0.11143,1.14526 -0.43182,1.74401 -0.96811,2.78596 -0.62684,1.22326 -2.31235,3.33478 -3.90731,2.43771 -1.54155,-0.86783 -0.0673,-3.55929 1.16082,-3.98554 3.35687,-0.68743 5.75223,3.51598 7.42921,5.95892 M 8.9041965,280.79736 c 4.0845125,-0.74358 8.1684805,0.10857 11.8403085,0.23216 m 101.252715,12.38157 c -1.27086,2.09968 -4.63951,4.38686 -6.7624,5.88199 -4.14318,2.91759 -4.65975,-4.79486 -4.4111,-7.3519 0.46804,-4.8132 3.88826,-9.26493 8.74458,-10.84077 1.95009,4.31458 1.5746,14.35014 4.25654,18.26998 m 143.6024,0.75343 c -1.21654,-1.53947 -1.6719,-5.51393 0.18307,-7.44738 1.54156,-1.60402 2.72096,1.87379 2.70935,2.74718 -0.007,0.55069 -0.0325,0.84252 -0.23216,1.39298 -0.91531,1.7702 -4.96341,5.65056 -6.03624,5.80407 -7.12195,0.64593 -3.40259,-17.19525 -2.78596,-21.12682 m 28.32388,0 c 2.05465,0.75731 4.77095,1.42873 4.87542,3.94677 0.0186,0.44064 0,0.70113 0,1.16081 -0.15904,1.921 -2.28486,8.17553 -3.48244,8.55126 -1.23047,0.31226 -1.13761,-1.97292 -0.73596,-2.74719 3.80091,-3.27764 7.51222,7.18251 7.70085,9.51868 0.0557,1.00481 -0.97277,2.12035 -1.85731,2.47649 -0.95419,0.38399 -1.83177,-0.41836 -2.5538,-1.08351 M 164.91767,281.95817 c 0.83603,3.97069 4.41111,8.22298 4.41111,12.30464 m 84.73948,8.1257 -0.46433,-4.4111 -1.62514,-9.51867 -2.49761,-7.88915 c -0.77555,2.19582 -5.90558,10.53539 -4.19565,11.952 1.11205,0.80166 7.8483,-0.56794 9.00912,-0.78153 m -78.46531,-9.31756 c -2.41705,2.41705 -3.16972,6.47131 -0.65771,9.28652 0.97647,1.09441 3.51563,2.01262 3.44367,3.7146 -0.0318,0.75291 -0.74617,1.01432 -1.39299,1.12205 -0.72736,0.12119 -1.26621,0.0388 -2.08946,0.0388 m 134.85177,-3.28584 c -6.28356,5.10173 -11.15381,5.44036 -8.32297,-3.44689 1.10973,-3.47687 3.30136,-6.73272 7.11759,-6.64202 0.42994,4.61928 1.63264,13.53653 2.40109,18.01801 v 6.73272 M 14.760528,280.61359 c 2.717469,7.31636 2.545687,16.07528 2.970142,23.72562 m 72.409946,-11.5345 c -1.043572,1.27922 -4.228848,4.41097 -5.462563,5.52466 -2.886713,2.60603 -7.116083,1.461 -7.517957,-2.67358 -0.120028,-1.23465 -0.120724,-1.97455 0.03877,-3.01812 0.07452,-0.48824 0.154155,-0.86783 0.270702,-1.39298 0.39073,-1.75747 1.068646,-3.68698 2.708645,-4.87542 1.565242,-1.13412 6.044626,-3.1212 7.889145,-0.34825 0.534886,4.35979 2.038605,7.95437 4.879815,10.79558 M 69.963046,285.20845 c -0.159727,2.02423 -0.272559,3.59342 0.387016,5.57191 0.980656,2.94244 3.189222,5.7804 4.952732,8.35787 m 22.76374,-7.7524 c 0.236253,-4.03118 5.785156,-7.26616 7.804456,-4.55224 2.04237,3.20029 1.93461,6.16643 1.93461,9.75085 m 38.07472,0.65772 c -0.65238,0.16321 -1.45798,0.70577 -2.01216,0.23216 -2.27792,-2.65677 -1.60239,-11.1512 0.0388,-11.56938 8.46133,1.04857 10.17485,9.39304 1.97338,11.33722 z m -12.61826,4.62144 c 9.12335,-4.91667 7.40401,-14.47332 -3.22651,-15.26808 -0.69443,8.059 3.9903,15.68734 5.78446,22.75788 0.51284,2.05162 1.13388,4.38486 -0.15486,6.2684 M 29.1352,291.7241 c 0.208482,-2.64108 6.475627,-6.80144 8.054102,-3.72969 0.87363,1.70013 0.743386,3.85205 1.006194,5.57191 0.319224,2.09039 0.931671,3.96325 1.58637,6.03624 m 21.461198,-4.60782 c -1.016873,2.76018 -8.34469,7.11796 -11.478193,7.16161 -0.872701,0.0121 -1.794618,-0.016 -2.476481,-0.73526 -1.399942,-1.47633 -1.470288,-3.66005 -1.470288,-5.53314 0,-0.71088 0.208482,-1.52113 0.232163,-2.08947 0.115617,-2.77365 2.266606,-5.08738 4.875421,-6.50056 1.759099,-0.9528 6.304003,-0.94855 8.05846,-0.62538 m 37.909799,1.08971 c 0.413018,2.24223 2.424014,6.67027 3.250285,9.28651 m -71.041859,-8.1257 c 0,3.69116 0.190838,8.04329 1.857304,11.37598 m 156.245645,-9.28651 0.0388,1.8573 0.88988,7.66138 m 11.84031,-4.4111 c 3.31052,-0.28218 8.26912,-1.47221 11.14382,-0.69649 m -200.588774,8.82219 h 16.715733 m 330.832171,69.64888 c -1.19331,0.75036 -1.39298,2.39174 -1.39298,3.71462 0.63727,6.54983 2.22673,12.93748 3.94678,19.26951 m 108.65224,-22.5198 1.16082,1.16082 m -53.86181,-0.92866 c -0.10423,6.70243 2.27935,14.98596 2.73799,21.83147 m 13.0491,-21.5993 c 0.43414,1.49629 2.98562,1.82712 4.41109,2.08947 m -186.89114,17.41222 c 1.56941,2.63805 6.45876,3.01811 9.05435,3.01811 1.04473,0 3.40814,0.32966 3.48244,-0.92865 0.24609,-4.18589 -4.28109,-7.39322 -6.65611,-10.6795 -1.85096,-3.10765 -4.83165,-10.61592 -4.17894,-13.6976 0.62453,-2.63761 3.33154,-4.34818 5.72746,-2.47649 0.6338,0.4952 0.85205,1.34678 1.0842,2.01216 0.68953,1.98939 1.5137,3.96859 2.16608,6.03624 m 70.8097,1.1608 c 0.9549,6.23814 0.22834,14.40534 3.01811,20.19817 m 138.3691,-19.03735 c 0.98658,6.22135 2.15591,13.00116 3.40583,18.8052 0.20663,0.9976 0.31574,2.54728 -0.38771,3.25028 -0.70577,0.70577 -1.21421,0.48521 -2.08947,0.23216 M 286.37605,386.51576 c 0.59667,-0.99389 2.36573,-1.00618 3.44529,-1.51601 0.86133,-0.40675 4.50628,-1.92255 3.83069,-3.21151 -0.45272,-0.86528 -1.71105,-0.46433 -2.43771,-0.46433 -0.53165,0 -0.859,-0.0337 -1.39298,0.0773 -4.36174,1.72334 -3.59496,5.36437 -2.82543,8.97704 0.54326,2.79245 2.32627,10.65837 6.30787,6.73273 0.45504,-0.44923 0.84972,-0.85367 1.16082,-1.39298 m 209.87529,-14.3941 c 1.00552,5.21301 1.34971,10.5783 1.79301,15.88468 -1.41781,0.958 -5.36136,2.28509 -6.9006,2.45618 -1.33726,0.1486 -2.72328,-0.22101 -3.17368,-1.62513 -0.61291,-1.9237 -0.29484,-3.9816 0.46433,-5.80407 0.62684,-1.50419 2.0593,-3.61734 3.40583,-4.56595 0.93795,-0.66097 4.47211,-0.85949 5.31021,-0.88153 M 365.2743,382.0204 c 0,0.92215 0.0117,1.2943 -0.15556,2.08946 -0.12072,0.58389 -0.2693,1.47795 -0.61754,2.08947 -1.09582,1.92417 -2.44236,3.35894 -4.10232,4.60449 -1.0308,0.77333 -2.51433,2.34298 -3.71462,1.19958 -1.59031,-1.51602 -0.27626,-3.48245 1.62515,-3.48245 1.28154,0 2.28912,0.50799 3.48245,1.39298 2.56074,1.90027 4.48073,4.46449 5.57191,7.42922 m -71.60343,-9.01558 c 0.26235,-0.41535 0.86105,-0.42022 1.25805,-0.58042 0.87294,-0.35172 1.66925,-0.76519 2.55379,-0.85133 0.89616,-0.0873 1.62747,-0.0529 2.5538,-0.42556 0.63147,-0.25468 1.86891,-0.56206 1.81784,-1.43175 -0.0627,-1.09697 -1.49514,-1.78092 -2.28217,-1.85729 -0.94026,-0.0915 -1.46031,0 -2.5538,0 -0.55486,0 -1.13294,-0.14094 -1.62513,0.11607 -2.60316,2.18967 -1.74391,6.20397 -1.00526,8.93828 0.42021,1.68247 0.33198,3.91589 1.5462,5.30098 1.74586,1.99079 5.30956,-0.47247 6.6561,-1.81854 m 71.73836,0.69649 c -2.49343,3.51006 -5.59049,0.6359 -6.96489,-2.55379 -1.07492,-2.4939 -0.62452,-7.01735 1.43244,-9.28652 0.97045,-1.07074 2.73256,-1.07607 3.9073,-0.61917 0.79864,0.31108 1.74587,1.40109 1.27691,2.20553 -0.89384,1.53183 -5.53885,1.69226 -6.96897,2.21928 m -18.32113,7.42391 c -1.03546,1.4582 -6.84126,5.34132 -8.72178,4.55752 -1.8898,-0.78726 -2.72792,-3.46548 -2.97866,-5.10758 -0.37377,-2.44862 0.87294,-5.66454 2.35878,-7.89353 1.67157,-2.50713 3.61478,-4.36537 6.29826,-1.73683 1.62712,3.15995 2.05961,9.21456 4.14907,12.18416 0.96116,1.36395 2.06626,1.04588 3.17368,0.69649 m 25.53792,3.94676 c 0.73407,-1.02865 5.57808,-2.62171 5.03097,-3.94676 -0.5144,-1.24579 -2.85561,-1.93044 -3.44531,-3.01813 -2.10339,-3.88547 -1.88283,-13.84341 4.68274,-10.21516 m -118.4031,-0.92866 c 1.51004,3.86139 1.68085,7.44313 2.32164,11.60815 1.10277,-0.63798 1.67389,-1.33424 2.01285,-2.5538 0.57112,-2.0616 0.79863,-3.76706 1.70175,-5.57191 0.27163,0.30275 0.5897,0.64891 0.7731,1.16082 0.16716,0.46085 0.21591,0.89686 0.38772,1.39298 0.64308,1.85289 1.50673,7.03894 3.7146,7.81623 6.81676,1.02951 0.4577,-12.72506 -0.1927,-14.08463 -0.52237,-1.10532 -0.6756,-2.2009 -1.20028,-3.25028 m 187.81981,3.71461 c -0.86597,1.73402 -0.69649,3.06153 -0.69649,4.87543 0,0.84484 -0.0743,1.35489 0.0395,2.08946 0.39932,2.61601 0.61291,5.82984 2.51433,7.89354 m -159.7281,7.42921 c 0.76149,0.42021 2.18929,1.94552 2.90204,0.69649 -0.87643,-8.82315 -4.01223,-15.80082 -3.30799,-24.87845 0,0 4.74739,-1.45347 6.9065,0.26917 3.79244,6.92716 -0.59563,10.80731 -5.43355,14.41189 m 182.80603,1.3752 c -4.51788,3.09148 -6.66307,0.0796 -8.8988,-3.94678 -1.09117,-1.96084 -1.97802,-3.87178 -0.77543,-6.03622 1.26298,-2.27056 3.56835,-3.25076 5.95963,-3.01813 0.73827,0.072 2.47718,0.13188 2.90204,0.92866 0.45272,0.85111 -0.65239,1.71242 -1.27691,2.05069 -1.84336,0.99899 -5.75429,0.42026 -7.83447,0.42026 m -48.11679,-3.16744 v 3.01811 l 0.46434,2.78596 2.32162,8.35786 m 4.99065,-9.17171 c 0.26862,-3.07075 5.1807,-6.68436 6.77304,-3.82941 0.93245,2.69692 0.99718,5.31481 1.23744,8.35786 -2.35147,-0.79631 -0.95605,-7.38597 3.01811,-8.59002 1.78766,-0.17365 3.63336,1.27853 4.33448,3.01811 0.51773,1.28897 0.38075,2.65108 0.58041,3.94678 0.12072,0.79631 0.19269,1.16917 0.19269,2.08946 v 2.78596 m -16.94789,-10.44733 2.16608,6.96488 0.85203,3.7146 M 326.9674,388.52095 c 3.57718,0.70906 7.50216,0.39812 10.44733,0.92867 m 130.01124,0 10.02242,0.0188 m -150.9453,-3.50129 c -0.48754,-1.32449 -1.29547,-3.59761 -2.78596,-3.908 -0.5247,-0.10959 -0.85901,-0.0388 -1.39298,-0.0388 -0.45736,0 -0.65006,-0.0502 -1.16082,0.0773 -6.04735,3.29324 -0.44533,7.91044 2.66559,11.11662 5.25755,2.77185 1.95161,4.65256 -2.43343,4.59315 m 92.40085,-0.46433 c 5.69628,-1.68185 10.95054,-0.99755 16.71573,0.69649 m -99.83005,19.26953 c 1.36512,-2.16377 3.86783,-4.74543 6.03622,-6.19179 0.729,-0.48523 1.67158,-0.62684 2.5538,-0.54094 7.84339,3.49407 3.71213,12.80599 -0.54867,16.96122 m 310.71834,-4.42443 c 0.0372,0.90079 0.23217,1.39995 0.23217,2.32163 v 1.62515 c 0,1.09115 0.29716,2.44931 -0.46433,3.25027 -1.66692,1.74818 -5.70658,3.10867 -7.89355,3.01813 -2.48413,-0.10448 -3.01811,-3.27815 -3.01811,-5.1076 0,-0.94954 -0.0789,-1.74819 0.0766,-2.55378 0.35521,-1.82017 0.74524,-3.61711 1.50907,-5.33975 1.03543,-2.32627 1.85781,-6.60308 5.26313,-6.96489 4.81184,-0.51124 4.14411,6.12679 4.29501,9.75084 z m -204.0712,-9.28651 c 0.0511,1.91998 1.18169,5.03328 1.39297,7.19705 0.0998,1.03545 1.50228,8.64499 2.16267,10.35872 l 0.85544,5.42836 -1.62513,-1.16082 m 50.14719,0.46433 c 1.43012,-0.52701 4.65023,-0.65935 5.45582,-2.08946 0.32039,-0.56881 0.17646,-1.34888 -0.0766,-1.85731 -0.55254,-1.1051 -1.99659,-1.58568 -2.7488,-2.5538 -2.26359,-2.9206 -5.02866,-8.12569 -3.94677,-11.37598 0.57577,-1.72497 4.43895,-6.08731 6.11517,-3.7146 0.83113,1.17707 0.91008,2.49806 1.00526,3.7146 m -170.29824,-4.93312 c 0,0 7.86672,17.46335 5.2304,24.20265 l -1.39297,-0.69649 m 196.17767,-11.84031 c -1.14225,0.21126 -4.86418,1.96004 -5.76265,1.46785 m 9.24509,-12.14735 h -9.05435 c -0.71274,0 -2.72328,-0.35753 -3.21082,0.0395 -2.53057,2.04999 0.78007,6.24519 1.74122,8.55057 3.22783,6.90048 0.40068,13.82777 2.43772,15.90315 0.66862,0.51309 2.974,0.1834 3.67514,0.11609 2.00124,-0.19502 5.35367,-0.99832 7.19704,-0.46433 M 388.49059,414.52321 c 0.58021,7.42374 1.56443,13.98978 3.63798,20.89466 0.25074,0.86597 0.17412,1.30475 -0.15554,2.08947 l -0.69649,-0.46433 m 54.22255,-22.15604 c 0.92169,-0.6547 3.00561,-0.36376 4.05035,-0.36376 11.86122,-0.0897 -0.63661,18.88874 -2.20556,13.92978 0.6874,-4.9713 7.08516,0.13372 8.47396,0.88917 2.50967,1.32566 4.61538,2.9299 6.96488,4.52717 1.00526,0.6849 2.24733,1.61586 3.25027,2.01286 m 153.22754,-5.57191 c 0.51076,2.42611 2.45164,4.43896 4.64325,5.53245 0.68952,0.34591 1.39994,0.42718 2.08947,0.50379 0.53398,0.0604 0.84275,0.20895 1.39297,0.23216 0.48058,0.0209 0.72669,0 1.16082,0 1.28154,0 3.03438,-0.4086 4.17894,-1.23742 1.30475,-0.94723 2.17073,-3.23636 2.32162,-4.79881 0.0813,-0.8265 -0.0557,-1.14457 -0.19268,-1.85731 -0.47826,-2.4586 -2.11966,-4.99614 -4.9149,-3.87016 -1.10277,0.44575 -4.20447,3.86785 -5.30028,3.28976 -0.69184,-0.36451 -0.65238,-1.8341 -0.73596,-2.43771 -0.32966,-2.37503 -0.55719,-4.78025 -0.88917,-6.96489 -0.10681,-0.68952 -0.15323,-2.54451 0.46431,-2.90204 0.85437,-0.49451 3.26887,0.54326 4.13948,0.5804 0.7847,0.0325 1.15849,-0.009 1.85729,0 0.91473,0.0117 1.93857,0.28325 2.78596,0.42486 1.94088,0.32503 3.19688,0.19039 5.10759,0.0395 m -383.76531,-0.92864 v 4.87542 l 1.16082,9.05435 1.39297,5.80407 m 401.4097,-13.92977 c 0,-1.77605 -0.26699,-3.7448 0.96811,-5.10758 1.80159,-1.98964 5.06579,0.28787 5.688,2.32162 0.90544,2.96473 0.37842,8.76183 -0.8915,11.37598 -1.3221,1.96512 -3.6483,4.50534 -5.53246,4.4111 -1.03543,-0.0581 -2.91132,-1.97571 -2.51432,-3.25028 0.24377,-0.78703 1.11671,-0.36449 1.58568,-0.0766 2.27072,1.67529 3.3609,2.82963 5.80406,3.7146 1.89445,0.76151 3.52424,0.5363 4.87542,-1.31636 M 566.32739,416.3805 c 0,2.97169 0.96579,5.56263 1.54852,8.35787 0.74756,3.59621 0.50379,7.31081 2.63041,10.6795 m 99.13356,-18.80519 c 1.50675,0 3.25957,0.17179 4.64326,-0.0395 0.63381,-0.0952 1.67854,-0.52468 2.28217,0.0789 0.71505,0.71507 0.3877,3.12492 0.54326,4.13948 0.10448,0.68487 0.19269,1.07491 0.19269,1.85729 0,3.70301 2.19394,8.38109 2.55379,12.07248 0.19037,1.96642 -0.62219,4.37627 -0.92864,6.03623 M 464.1757,418.23781 c 1.15152,-1.4928 3.0599,-1.62513 4.64325,-1.62513 1.0401,0 1.83176,0.17412 2.78595,0.42486 0.72435,0.19268 1.80624,0.40163 2.5538,0.77541 2.45396,1.22582 3.95837,4.40181 4.45056,6.92542 0.11144,0.57112 0.20895,0.83347 0.19271,1.39298 -0.0766,2.78363 -2.34254,5.07043 -3.94678,7.42921 -0.81258,1.19565 -1.62978,2.79524 -2.78596,3.48245 -0.83578,-1.66926 -1.53924,-3.58924 -2.04999,-5.33976 -1.15154,-3.94675 -4.18818,-10.46488 -4.30193,-14.7599 m 42.33718,1.0623 c 3.71258,0.0524 7.79059,-1.10539 10.91167,-1.39297 m 58.27288,0 0.5038,4.64324 1.08187,8.12571 1.66461,5.57191 M 261.2653,418.00565 c 0.82186,-0.41092 1.42316,-0.71506 2.32163,-0.88919 2.01518,-0.39234 4.76166,-0.43878 4.87542,2.28217 -0.11517,3.36991 -2.59028,12.54857 -5.80407,11.68475 -1.14224,-0.397 -1.57638,-2.61183 -0.65702,-3.48244 2.1513,-1.53144 6.7167,-1.2787 8.08624,0.15556 1.5578,1.70175 3.45225,5.49761 2.9415,7.66137 -0.14395,0.60362 -0.462,1.34886 -0.89151,1.85729 -2.57701,3.06689 -5.97819,-0.1091 -5.06812,-3.25026 m 11.60815,-15.78709 c -0.40165,1.38833 -0.0557,2.14984 0,3.48245 0.0186,0.42717 -0.0418,0.72203 0,1.16082 0.13233,1.36511 0.4411,3.00418 0.7731,4.41109 0.61756,2.60718 1.3837,5.4001 2.24501,8.1257 m 315.74158,-5.10759 c 0.0117,0.77078 0.15556,1.67854 -0.30877,2.32164 -1.65765,2.29145 -5.30725,2.97864 -7.35261,1.1608 -3.52423,-3.13186 -2.24501,-8.32071 -1.85729,-12.30462 0.11607,-1.18403 0.1144,-4.67224 2.08947,-3.1342 3.79818,2.95774 7.37813,8.26499 7.4292,11.95638 z m -295.77556,-11.37598 0.65701,4.41109 1.50907,8.59004 1.08421,4.17893 m -11.376,-13.46546 c 2.2961,2.25896 3.08313,5.07044 2.78596,8.12571 -0.18341,1.8991 -2.14982,5.34672 -4.17894,5.57191 -1.16313,0.13002 -2.78362,-0.35521 -3.44297,-1.62514 -2.16143,-4.14644 -2.00872,-9.3981 -0.73596,-14.27801 0.31156,-1.19455 4.34842,1.00061 5.57191,2.20553 z m 219.32286,-5.02577 c 0.18805,1.02617 1.48034,6.33982 1.92842,7.57957 0.46897,1.29778 0.78703,2.49343 1.16081,3.7146 0.75685,2.47254 1.33262,5.80872 1.39297,8.12571 M 360.88343,426.96064 c 0.28324,-0.28325 0.98039,-0.21405 1.37274,-0.40444 1.77838,-0.86364 6.00373,-2.05927 5.26314,-4.60379 -0.35986,-1.23278 -1.32333,-1.8411 -2.47718,-1.85729 -2.37038,-0.0325 -3.21082,1.28617 -3.63799,3.48244 -0.41534,2.01895 -0.58751,3.2704 -0.54095,5.10758 0,0.78472 -0.0789,1.19565 0.0766,1.85731 0.32968,1.3953 1.12368,3.44994 2.47718,4.33448 1.16082,0.75685 2.64201,0.0766 3.94678,0.0766 m 9.28651,0 c 1.06331,0.30877 4.46449,-0.25073 3.59853,-1.85731 -0.56416,-1.04705 -2.54219,-1.87818 -3.59853,-2.24501 -1.83642,-0.63612 -3.94213,-1.3535 -4.17894,-3.79121 -0.13698,-1.40924 -0.0255,-2.65827 0.38772,-3.94678 0.96579,-3.02741 4.42037,-3.38493 5.88068,-0.46433 m -30.41334,-0.69649 c -0.57344,0.94723 -0.46432,1.16779 -0.46432,2.08947 0,3.48013 1.88749,7.10187 3.01811,10.6795 m 57.7691,-3.01813 c -0.69184,1.34888 -2.73952,3.67515 -4.13946,3.87017 -1.88284,0.26001 -5.10992,-1.63907 -5.64853,-3.40583 -0.19036,-0.62219 -0.15554,-0.95884 -0.15554,-1.62514 0,-0.53629 -0.0511,-0.86829 0,-1.39298 0.17875,-1.83409 1.15849,-4.46682 4.06284,-6.15232 5.72283,-0.58041 7.9005,4.77559 5.88069,8.7061 z m -59.97395,-3.19256 c 1.83456,-3.98484 2.95347,-5.66442 6.84812,-5.39746 m 58.04072,0.92865 c -1.07491,2.14983 -0.21591,4.96596 0,7.19706 0.10216,1.05401 0.20663,2.36341 0.46433,3.25027 m -0.689,-4.99985 c 0.0998,-3.76104 6.05893,-6.74992 8.73808,-2.89368 0.80329,1.15848 1.05635,2.62111 1.27691,3.94677 0.10447,0.63147 0.19268,0.92865 0.19268,1.62514 v 5.10757 m -40.39635,-10.91164 c 4.68636,-0.36353 9.05307,-0.71058 13.46546,-0.69649 m 210.57176,1.1608 c 1.37208,0.61291 4.60148,0.34825 5.80409,0.69649 m -252.82544,25.0736 c 4.57594,0 9.59762,-1.02151 13.92978,0.23217 m 12.76897,1.62514 c -2.51488,7.57536 -5.31999,15.05209 -7.42922,22.75197 m -14.27074,-24.79519 1.65733,9.0081 0.81258,4.87543 0.19268,1.39297 0.27163,3.7146 0.1927,1.62516 m 78.70323,-12.76898 c 0.70114,-1.56476 1.4487,-3.36404 3.01811,-4.60379 0.52933,-0.42021 1.45335,-0.85203 2.08947,-0.65933 1.48352,0.45504 1.6855,2.20554 1.93392,3.40583 0.54095,2.59094 -0.57577,5.56261 -0.9658,8.12569 -0.39258,3.23765 -2.68646,7.25506 -5.37923,7.42922 -1.32564,0.0557 -2.21715,-1.78766 -2.16608,-3.01811 1.72736,-6.07904 9.77994,2.81009 11.45261,4.41109 m -47.82557,-19.96602 c 1.51835,1.11903 4.45288,1.30244 6.2684,0.7731 0.73595,-0.21357 3.22474,-1.33957 3.9073,-0.88917 0.67326,0.44342 -0.13929,3.69139 -0.23217,4.295 -0.30412,1.9943 -0.14858,3.64264 0.0395,5.57191 0.17412,1.78998 0.44344,3.66818 0.73596,5.57191 0.18341,1.2119 0.42486,2.06858 0.42486,3.25029 m 9.05436,-2.08946 c 2.11036,1.27689 5.56261,1.83408 7.89353,1.12134 1.70408,-0.52005 2.53057,-2.29841 2.5538,-3.9073 0.0186,-1.35815 -0.78937,-3.12723 -1.85731,-4.17893 -1.16314,-1.14456 -3.48941,-1.69712 -4.87542,-0.65702 -0.70577,0.52933 -2.7372,2.58629 -3.63799,1.77836 -0.34361,-0.30645 -0.39003,-0.93097 -0.50147,-1.3535 -0.50844,-1.92464 -1.00528,-4.03035 -1.2003,-6.03624 -0.065,-0.67791 -0.43645,-1.32101 -0.15554,-2.08947 0.38307,-1.04008 1.8457,-0.69649 2.70934,-0.69649 2.14984,0 4.75006,-0.46433 6.50056,-0.46433 m -145.1018,0.46433 c 0.6013,1.42781 0.48058,3.83301 0.7731,5.33976 0.80328,4.13249 1.61121,8.87558 2.01285,13.00111 0.22055,2.25662 0.34592,5.10063 1.39298,7.19706 m 6.03623,-25.53793 c 0.55022,2.98098 0.94955,5.89926 1.43245,9.05436 0.48057,3.15044 0.80328,6.53075 1.50906,9.51868 0.45968,1.94784 1.46959,5.33742 1.46959,6.96489 m 71.27401,-25.53793 6.57719,13.00113 4.79881,6.96489 m 86.05581,-2.78595 c 0.72668,1.8689 3.55674,4.15338 5.41637,3.94675 2.11036,-0.23447 3.62639,-3.65888 4.02339,-5.33973 0.97508,-4.12555 -2.00035,-14.27175 -7.04152,-13.46546 -4.76792,0.76258 -4.13016,10.40322 -2.39824,14.85844 z m -6.19178,-2.32165 c -2.0291,0 -6.77219,0.63149 -8.82218,-0.23215 1.29778,-3.52192 3.92626,-9.14462 7.12315,-13.04262 0.5536,5.14842 0.80559,11.56719 1.69903,17.45371 l 0.46433,3.48244 M 256.69315,457.35854 c -0.43414,1.49978 0.32357,6.10229 0.39322,7.77617 0.23216,5.58584 4.85573,17.34841 4.85573,17.34841 0,0 8.80706,-13.2484 6.82904,-19.43787 -0.93563,-2.93222 -4.54808,-5.74835 -7.50584,-6.03623 -2.58166,-0.25073 -5.14937,0.24144 -7.19704,1.8573 m 69.48739,15.53178 c -0.35521,1.93159 -6.91021,6.49584 -9.58936,6.75586 -1.5555,0.15091 -2.33557,-1.14456 -2.78596,-2.55378 -0.63148,-1.97572 -0.18573,-4.35306 0,-6.2684 0.0488,-0.49451 -0.0418,-0.86365 0.0395,-1.39298 0.30414,-1.99661 0.91937,-4.52951 2.12662,-6.2684 1.84105,-2.64899 7.28963,-1.6286 7.32111,1.88343 l 5.13908,14.60013 m 5.80407,-18.34087 c -1.50907,2.38896 -2.28449,5.92247 -2.32163,8.59002 -0.0139,0.98439 -0.39236,2.35878 0.30877,3.21082 1.18868,1.44173 5.26546,0.63845 5.688,3.28976 0.0789,0.48521 -2.54452,2.14981 -2.97866,3.01811 m -46.96843,-5.53209 c -15.46059,12.38615 -13.82457,-12.22449 -3.21217,-12.00649 0.86043,1.41286 2.13681,5.67738 2.43165,6.85909 0.65239,2.6095 0.6756,5.07972 1.39298,7.66138 0.38772,1.39064 1.11207,3.05525 2.70934,2.08946 m 52.70099,-0.92866 0.92864,3.94677"
       id="path177"
       sodipodi:nodetypes="cccccccccccccscccccssccccsccccccccccccscccccccccccccccccccccssccccsccccccccccccccccscccccccccccccccccccccccccccccccscccccccccssccccccccscssccccccscccccccccccccsccccccccccccccccccsscccccscsscscsccccsssscccsssccccccccccccccccccccccccccccssccccsscccccccccsccccccccccccccccccccccccccscccccccccccsccccccccccccccccccccscccccsccccccccccccccccccccccccscccscccccccccscsccccccsccccccsccsccccscccsccccccccccccccccccsccccccccccccsccccccccccccccccccccccccsccccccccccsccccccccccssccsccscccccccscccccccccccscccccccccccccccccccscccccccsccccccccccccccccccccccscscccsccscccscccccccccccccccccccccccccscccccccccsccsscccccccccccccscccsccccscccccccccccscccccccccccccccccccccccccccccccccccccccscccccccccccccscscccccccccccccssccccccccccccccccc" />
  </g>
</svg>
