<?xml version="1.0" encoding="UTF-8" standalone="no"?>
<!-- Created with Inkscape (http://www.inkscape.org/) -->

<svg
   version="1.1"
   id="svg22309"
   width="4816"
   height="2048"
   viewBox="0 0 4816 2048"
   sodipodi:docname="FrankN - Stake - Envelope95.svg"
   inkscape:version="1.2.1 (9c6d41e410, 2022-07-14)"
   xmlns:inkscape="http://www.inkscape.org/namespaces/inkscape"
   xmlns:sodipodi="http://sodipodi.sourceforge.net/DTD/sodipodi-0.dtd"
   xmlns="http://www.w3.org/2000/svg"
   xmlns:svg="http://www.w3.org/2000/svg">
  <defs
     id="defs22313" />
  <sodipodi:namedview
     id="namedview22311"
     pagecolor="#ffffff"
     bordercolor="#000000"
     borderopacity="0.25"
     inkscape:showpageshadow="2"
     inkscape:pageopacity="0.0"
     inkscape:pagecheckerboard="0"
     inkscape:deskcolor="#d1d1d1"
     showgrid="false"
     inkscape:zoom="0.12562292"
     inkscape:cx="2021.924"
     inkscape:cy="1110.4661"
     inkscape:window-width="1920"
     inkscape:window-height="1051"
     inkscape:window-x="-9"
     inkscape:window-y="-9"
     inkscape:window-maximized="1"
     inkscape:current-layer="g22315" />
  <g
     inkscape:groupmode="layer"
     inkscape:label="Image"
     id="g22315">
    <path
       id="path22762"
       style="fill:none;stroke:#584a57;stroke-width:1.14709"
       d="m 517.06893,431.88989 c 0.0595,2.12888 -0.75141,4.24957 -1.11266,6.37139 -0.45571,2.67657 -1.47154,5.7358 -1.30263,8.47076 0.49984,8.0932 14.9784,1.54825 11.56084,-6.44462 -2.18073,-5.1002 -8.8492,-4.89644 -12.44283,-8.129 m -9.34909,-2.01394 c 1.29498,8.59419 3.13028,17.08703 5.56333,25.4245 m -3.25659,-26.24229 c -1.465,4.92778 -3.23996,9.76953 -5.63115,14.32951 -0.75697,1.44352 -4.16987,2.80356 -2.95806,3.89362 0.98076,0.88222 6.31416,0.13214 7.57153,0.0732 2.26465,-0.10609 4.50744,-0.23603 6.64884,-0.96425 m -26.73751,-15.89283 c -0.95392,12.01045 1.34779,-3.76461 6.16036,-1.51351 4.3435,2.03169 0.71755,19.91604 -5.46833,21.82381 -0.41841,0.12905 -1.89786,0.65667 -2.26605,0.28074 -4.18305,-4.27124 0.52507,-5.83013 5.12911,-3.74716 2.17689,0.98488 4.73147,3.49284 7.04234,3.34437 M 463.0296,431.83161 c 3.71803,-1.18824 7.0115,-0.55078 10.59744,0.58586 m -8.23643,0.42721 c -0.65612,3.16418 -1.42788,7.25675 0.25781,10.28941 1.65457,2.97663 5.49387,-4.11619 9.76973,0.26852 1.5037,1.54199 2.10653,3.78041 1.88609,5.89536 -0.55481,5.32354 -10.2339,3.47446 -12.8906,1.53793 m -20.12412,-19.83 c 3.23338,-0.40836 6.21285,1.03581 9.30838,1.53792 3.3247,0.5393 1.40885,1.96282 1.31619,5.50478 -0.15585,5.95818 -0.0345,12.62702 2.14392,18.23534 m -32.82635,-25.18368 c -2.13973,8.00616 -4.1305,16.73804 -5.14268,25.04612 m -5.38691,-21.51866 c 3.61221,6.98457 8.82942,14.46475 14.98023,19.60237 m -33.66483,-21.31117 c 4.27035,-0.49036 11.05493,-1.42666 14.60031,1.53791 m -8.72491,-2.68525 c 0.64699,8.05874 3.29192,15.83519 5.29193,23.67908 m -30.36407,1.67442 c 0.99909,1.1915 1.35167,2.62064 1.76397,4.07672 m -12.19858,-18.3574 c -4.25158,-3.01933 -6.8441,10.10944 -4.27425,12.33997 1.76177,1.52916 7.5069,1.12317 8.30427,3.45422 0.062,0.18115 -4.74773,2.8617 -5.19695,5.85874 m -13.83577,-17.51067 c -4.40844,-11.35665 -16.2543,12.06963 -6.71667,13.49953 4.67716,0.7012 5.71939,-5.88509 6.17392,-9.04444 0.36468,-2.5348 0.23066,-7.69157 0.23066,-6.09066 0,1.05288 3.23742,22.89584 7.35444,14.13423 m -27.38236,-22.50734 c 0.9387,9.0002 5.62399,17.0682 6.64884,26.01037 m -14.77671,-23.55702 c 1.22302,8.27701 2.97371,16.59193 6.59457,24.19172 m -15.06167,-15.04964 c -3.38441,-10.01777 -13.99988,10.8962 -8.942,13.85348 3.74795,2.1914 7.16758,-5.72064 7.49011,-8.06798 0.22006,-1.60159 -0.20354,-6.46231 -0.20354,-4.84567 0,1.56619 6.87236,20.86476 7.47657,10.13075 m -35.28705,-15.02458 c 11.87023,-12.83026 23.84527,17.2533 8.0736,20.84735 m -6.13323,-22.49513 c 3.23639,7.28325 3.93785,15.82712 7.92434,22.78807 m -10.70903,-63.99656 c 0.96704,6.9712 1.028,14.45431 3.79934,21.04265 m 3.33798,-21.70176 c 12.59895,-1.30617 8.65789,13.5279 7.01522,11.68087 -1.00285,-1.1276 2.53323,-7.52751 4.50492,-1.94071 1.44282,4.08822 -2.62188,17.60585 -5.76685,9.91104 m 10.67976,-19.1738 c 0.7695,7.55733 3.57222,14.8068 5.71257,22.08014 m 3.58001,-21.2295 c 0.18758,1.92195 -0.0536,3.82898 -0.25781,5.73669 -1.82336,17.03244 11.38819,12.35646 10.50246,1.73321 -0.41144,-4.93468 -8.93902,-9.41319 -6.56743,-1.79425 m 15.17021,-8.28767 c 0.54091,6.42976 2.78007,12.52705 4.78988,18.6015 m 21.64236,-23.19109 c 11.74351,-10.59877 14.79673,5.27392 4.45064,12.41321 m -0.70558,-12.2057 c 0.26273,7.41459 3.38938,14.08363 5.45476,21.03043 m 5.95532,-17.09214 c 0.45158,4.55016 1.98928,8.50986 4.21998,12.43762 0.63354,1.11553 2.97927,4.0965 1.96751,3.30775 -5.78071,-4.50658 -1.4345,-11.99459 2.36102,-15.91625 m 0.23686,8.01424 c 0.87434,-3.53398 10.69074,-0.84927 11.08592,-1.4891 3.51276,-5.6877 -9.76031,-9.67963 -7.28659,2.62424 1.06397,5.29204 6.83596,8.15964 10.5703,3.36877 m 7.80239,-11.24915 c 3.0901,-6.02254 -7.72251,1.832 -1.98107,8.28769 1.57536,1.77137 3.18501,3.2633 5.18337,4.54053 0.0369,0.0236 0.90569,0.727 0.82772,0.74455 -2.12954,0.47889 -3.96424,0.36811 -6.05181,1.29381 m 2.87665,-11.59544 c 5.49793,-1.66404 11.24529,-0.86579 16.90705,0 m -9.62047,-9.66692 c -1.38357,7.97264 2.43815,15.39746 4.92557,22.73924 m 7.66434,-18.27195 c -2.7947,1.51373 -8.02231,14.14549 -2.90378,15.73316 3.61305,1.12069 10.4793,-4.95065 8.80633,-8.78811 -1.25782,-2.88515 -9.60368,-6.65023 -5.34622,-1.08631 m 8.12846,-3.51386 c 0.45569,3.92724 1.40727,7.69056 2.70023,11.41234 0.50453,1.45223 -0.93625,-2.97873 -0.93625,-4.51611 0,-1.1485 1.46996,-12.92226 4.92556,-8.60503 3.20892,4.00902 6.68327,12.65704 3.82648,17.53961 m 17.557,-21.08857 c -0.66192,-8.97855 10.55308,-4.15277 9.37623,2.3313 -0.40692,2.2419 -8.4709,9.05334 -9.68832,6.04182 -1.20182,-2.97293 5.15202,-2.97326 6.49958,-2.09937 3.8172,2.47543 9.93631,13.07699 14.42392,7.4943 M 464.43474,392.606 c 1.19609,6.84502 3.32899,13.45192 5.50904,20.05398 m 11.9272,-19.00429 c 9.53641,-3.8708 18.7856,8.784 10.24464,17.93018 -1.48205,1.58709 -2.90153,3.1703 -5.1698,3.41761 M 484.7283,390.7974 c -0.5346,7.69979 2.65564,15.24787 5.3055,22.32425 m 31.28234,-24.89813 c -0.2608,-1.23216 1.35005,10.3265 1.50617,9.20311 0.70092,-5.04404 -6.07901,-8.38677 -8.01932,-2.68526 -1.97256,5.79625 10.52129,12.9301 10.2175,13.78025 -0.35969,1.00662 -6.30411,3.14052 -7.53083,3.88143 m 7.78864,-24.57011 c 4.13763,-0.0452 8.45229,2.53419 12.44283,2.14821 m -6.36389,-1.26939 c -1.15479,7.98675 2.99152,14.78181 5.11554,22.14116 m 4.25325,-21.07235 c 4.02518,-2.27922 7.79817,0.72241 11.8865,0.76895 m -9.59334,6.72535 c 4.1031,-0.0976 8.2944,0.52744 12.34785,-0.25632 m -13.55549,-7.05489 c -2.08927,5.68619 6.04976,8.74108 6.32318,13.41407 0.11069,1.89188 -3.38176,4.15886 -2.34744,5.59022 0.98327,1.36073 4.2866,1.25718 5.72614,1.25718 3.44839,0 8.19876,-0.53002 6.02466,-5.01654 m 18.91194,-14.41357 c 1.81976,5.8274 1.69312,12.1156 3.17515,17.99122 m 6.95002,-18.96867 c 0.43842,6.87366 2.91499,13.31882 5.08839,19.78546 m 3.67331,-18.0997 c -0.40425,2.42968 -0.80281,4.86851 -0.84128,7.36005 -0.17613,11.40765 7.38735,12.70794 8.95557,1.2816 0.9514,-6.93206 -4.40712,-16.34918 -5.82111,-7.34784 m 20.03757,7.21773 c -2.0276,0.34336 -4.91143,0.58319 -6.28247,-0.34176 m 10.15647,-11.2509 c 6.28587,-0.13564 12.2072,2.01301 18.87456,1.68438 m -16.52712,-3.10025 c -0.0933,2.0915 -0.14002,4.20516 -0.0135,6.29815 1.17795,19.4965 9.31547,-1.40554 11.23519,7.4943 2.66795,12.36867 -12.86658,9.30316 -15.79439,0.0854 m 21.19481,-10.61897 c -1.23713,1.6035 -1.86605,3.49647 -2.18462,5.48036 -1.23505,7.69131 5.98566,16.17351 8.38569,8.20226 1.08785,-3.61312 -2.92692,-18.82094 -6.0111,-10.86309 m 17.68555,-6.83067 c -0.0331,-0.46371 -0.80057,8.38294 -0.80057,7.87268 0,-13.56284 10.89654,-3.41735 4.1657,6.6277 -1.27355,1.90063 -7.69813,9.31599 -8.20927,4.43067 -0.0581,-0.55483 -0.19212,-1.85847 0.17639,-2.3557 2.59023,-3.49498 11.87991,10.38561 13.52835,1.80644 m 0.095,-17.33211 c 0.29851,-0.004 0.59773,0.009 0.89556,-0.0121 2.45822,-0.17175 4.91036,-0.50373 7.38157,-0.56146 1.19259,-0.0279 4.76158,-0.26854 3.56865,-0.26854 -0.61806,0 -1.03157,4.81053 -1.04481,5.21185 -0.24032,7.27793 1.15813,14.4283 1.04481,21.66514 M 536.01057,356.53483 c -0.86264,5.19516 -0.89658,11.05212 1.38404,15.95286 0.24221,0.52047 3.08536,5.91152 2.80879,6.11506 -0.42337,0.31159 -1.62635,0.16199 -2.15748,0.2075 m -1.42474,-11.11941 c -1.69703,-1.53112 -4.21687,-1.82257 -6.35033,-1.14734 -10.26441,3.24869 -3.05268,21.43012 4.5185,7.12815 0.59918,-1.13184 0.95635,-2.34021 1.24835,-3.57628 m -27.00243,1.61115 c 4.10331,-0.0883 8.70267,-0.62155 12.44283,-2.47775 1.50326,-0.74605 -2.82764,-1.86978 -4.40994,-2.42895 -3.71832,-1.31399 -6.8367,1.28348 -6.35032,5.08979 1.10687,8.66227 7.60027,8.98697 13.16199,4.0767 m -27.0541,-7.00354 c 3.0751,-0.86944 6.21877,-0.68739 9.32194,-0.10986 m -5.6583,-13.52392 c -0.24957,1.13318 -0.45501,2.26085 -0.55632,3.4176 -0.55893,6.38124 4.75445,20.73813 4.68132,21.06705 -0.22195,0.99826 -1.99248,0.75608 -2.60527,0.72015 m -6.3096,-28.10976 c -0.99884,-0.71241 -1.78635,-0.62482 -2.90378,-0.6469 m -0.65132,13.46289 c 0.69275,4.44133 1.63198,10.16513 4.46422,13.80467 m -28.61715,-13.91452 c -0.47375,3.38241 0.37042,7.0908 2.23889,9.97207 0.66459,1.02482 1.43502,1.97877 2.0625,3.02702 0.16787,0.28042 0.74505,1.06076 0.50206,0.8422 -3.05115,-2.74459 -3.53013,-9.88468 -0.43421,-12.66955 4.11271,-3.69949 6.97468,11.17225 5.23766,11.69308 -0.30109,0.0903 -2.34071,-10.6094 2.76809,-11.1316 4.59085,-0.46927 5.91244,10.13199 6.66241,12.99909 m -18.90141,-24.64134 c -1.40731,-1.28389 -3.44041,-0.25633 -5.19695,-0.25633 m -3.52796,11.60764 c 0.10966,5.22244 2.64306,9.94834 4.77632,14.59804 m -20.62864,-24.44352 c -2.73255,3.64587 5.07229,18.41304 4.77631,19.21178 -0.66752,1.80133 -7.97543,2.98354 -6.1875,3.69835 0.32838,0.13127 10.55264,-1.82172 14.24752,-0.6347 m -37.89467,-5.88507 c 0.73798,-1.114 1.21803,-6.58606 -1.41117,-5.79772 -2.20937,0.66247 -1.86239,7.75146 -0.89557,9.32518 0.24938,0.40592 5.14156,4.52899 4.36924,4.99213 -3.26881,1.96026 -7.38797,-1.47504 -9.37622,3.72275 m -8.61137,-13.31591 c 0.52551,-1.53095 6.8493,-1.65172 6.97448,-1.98954 0.73435,-1.98167 -4.31003,-3.92753 -5.23765,0.93985 -1.40251,7.35926 4.79704,14.88193 9.93255,5.94417 m -16.05219,-12.58409 c 0.0845,2.32388 -0.66759,4.82529 -1.7097,6.90844 -0.51026,1.01996 -6.7587,6.71012 -7.00165,3.86921 -0.13858,-1.62052 4.11804,-0.52273 4.84417,-0.18308 3.08759,1.44422 9.57952,12.04228 10.51602,6.56667 m -13.44695,-21.50646 c 0.0901,8.22782 2.39241,16.04763 4.68134,23.84996 m -10.59701,-14.12807 c -3.34833,-9.1536 -16.56224,8.50079 -9.10484,12.37659 4.70686,2.44628 7.2385,-6.57001 7.69366,-9.50825 0.43999,-2.84036 0.27138,-5.22264 0.27138,-5.19964 0,2.46068 1.53904,19.25214 6.8388,13.07232 m -26.53852,-20.45739 c -0.70358,8.62472 3.37549,16.66008 5.11554,24.82643 m -8.95557,-12.48646 c 3.69077,-0.97419 7.62397,0.0969 11.08592,1.41586 m -12.78998,-2.73521 c -1.19735,-13.11047 -7.71173,-1.6347 -4.68133,4.51611 0.99149,2.01241 7.1532,4.33759 6.73025,6.49344 -0.40344,2.05654 -6.53292,0.83869 -6.75738,-0.34176 m -17.18906,-11.10544 c 8.70312,-14.19659 15.45914,10.05276 5.82114,12.01043 m -3.18874,-15.3548 c -3.83871,7.96126 6.45086,16.25733 5.19696,23.77675 -0.19562,1.17304 -2.89043,0.39327 -3.44655,0.0854 m -17.88146,-18.1418 c 2.77,0.0237 5.72352,-0.37721 8.27713,-1.52572 2.45922,-1.10608 0.90683,-3.71059 -1.37047,-4.01568 -6.00342,-0.80429 -3.64616,9.92911 -2.18462,12.90143 2.35236,4.78403 8.11782,0.45266 9.40336,-2.69745 m -24.30031,-6.99818 c 2.44954,0.1574 4.47296,-0.15281 6.70312,-1.22056 10.01869,-4.79674 -6.60247,-6.04325 -3.7722,6.32255 0.6265,2.73731 6.30973,10.7842 8.73848,5.44375 m -28.27794,-13.08452 c 0.21343,1.24047 2.08677,16.42182 2.7681,16.48992 0.68529,0.0685 2.63563,-8.9463 2.91734,-10.17956 0.31073,-1.36024 0.89556,-5.4842 0.89556,-4.08892 0,11.58192 11.11134,22.9182 6.06538,-1.03748 m -20.66568,-13.15776 c -0.60823,-0.75874 2.76808,8.84874 2.76808,7.62856 0,-0.13711 -1.45135,-1.64795 -1.61471,-1.92849 -4.05107,-6.95682 -10.30585,-6.28549 -8.91487,2.61202 0.87796,5.61606 11.52815,17.3663 11.24875,18.08886 -0.6586,1.70321 -16.07301,3.70166 -10.62457,-1.5135 M 273.395,265.04389 c 8.53902,-6.13718 -5.47353,-4.18722 -5.59044,5.38272 -0.0183,1.50119 -0.29528,3.31016 1.08552,4.33303 1.08128,0.801 2.41658,0.4289 3.40582,-0.28073 6.60604,-4.73879 4.32854,-18.53646 4.32854,-2.551 0,1.90343 -0.0851,3.80776 -0.0407,5.71228 0.0637,2.73072 0.50912,5.46046 0.58346,8.20224 m -22.47036,-21.70176 c 2.04476,-0.73422 3.68219,0.16481 5.45476,1.18395 5.90731,3.39643 -3.31901,9.85195 -4.03001,9.27634 -0.91231,-0.73857 4.64932,-6.69089 7.66651,-1.83085 3.0386,4.89449 -3.58195,13.88714 -5.11552,9.88663 m -13.50123,-20.0662 c -0.94707,1.82251 -1.18915,5.1142 -1.1398,5.1142 0.0657,0 0.50592,-3.26439 1.89968,-3.33216 4.97577,-0.24194 4.03148,8.39372 3.16158,11.19264 -0.40774,1.31192 -2.98194,8.7171 -5.1291,5.62683 -1.57244,-2.26314 2.17444,-3.64951 3.77219,-3.64951 2.96976,0 4.87487,5.6981 6.06538,7.86048 m -24.9846,-21.76393 c -0.53974,2.15066 -0.8825,4.34582 -1.26192,6.53006 -0.26617,1.53239 -0.50831,3.01531 -0.47491,4.57714 0.32883,15.38147 14.00932,1.19491 9.83756,-1.0741 -3.69684,-2.01071 -1.89953,7.08278 -0.90912,8.49517 m -24.92637,-6.28594 c 2.59246,-3.98962 5.14639,-7.56634 5.98396,-12.36439 0.19096,-1.09397 0.36578,-4.39926 0.48849,-3.29554 0.95302,8.57277 3.0707,17.29316 3.6365,25.74185 m -11.16733,-10.42368 c 4.19534,4.79385 8.67062,0.1795 14.03041,1.25719 m -30.46659,-16.35351 c 2.79318,6.70999 2.6807,14.48724 4.85772,21.21353 m -16.24216,-18.23534 c 4.93253,5.23306 7.96399,13.15836 12.95844,17.79593 m -12.15787,-18.74797 c -0.33367,7.47229 2.41711,14.58741 3.86718,21.81161 m -21.47983,-20.20046 c 3.60373,-0.33394 7.39905,-2.53685 11.01809,-1.97732 m -12.72778,19.50473 c 4.77882,0.2222 9.9582,0.85793 14.65459,-0.24412 m -7.95147,-18.82121 c -1.08251,7.12691 1.94418,14.01789 3.02589,21.00603 m -23.26471,-3.65241 c -0.73271,3.35967 0.52541,6.73863 1.85898,9.78898 m -9.15913,-19.56576 c -16.141,8.26392 11.81658,14.91494 -2.48314,15.03744 m -3.25657,-24.26496 c -0.65808,-0.45298 -1.44123,-0.57478 -2.18461,-0.78116 m -2.83595,8.15341 c -0.31714,5.30367 0.0466,10.60411 1.73685,15.67214 m -10.29892,-19.90752 c 0.78182,7.25743 1.00484,15.25845 4.65419,21.82382 m -15.17021,-13.35305 c -1.91327,1.14527 -2.04369,3.5363 -2.21176,5.60242 -0.10248,1.25989 -0.17084,2.73155 0.12212,3.96685 0.44633,1.88195 1.17364,3.93479 3.33799,4.19877 7.62559,0.93009 4.80352,-15.86182 -1.24835,-13.76804 z m -12.8092,2.01394 c 6.87638,-12.67637 11.5988,19.59468 3.0259,10.61897 m -0.80216,-12.06821 c -1.18827,8.48762 1.57675,16.35661 3.05304,24.54569 m -9.737661,-21.76112 c -1.69505,-10.92398 -14.52715,10.08538 -6.90665,11.71749 8.02405,1.71853 2.45208,-23.76208 6.45887,-7.54313 0.36833,1.49095 0.66852,2.99322 1.05839,4.47949 0.42813,1.63214 0.65639,3.32903 0.85485,4.95552 m -23.48162,-14.24583 c 4.26157,15.69824 0.96568,10.86788 2.56455,5.06537 4.10998,-14.91561 7.22168,2.84675 7.87006,6.55447 m -14.11182,-11.5344 c -2.24191,-1.87163 -4.26953,-2.07693 -6.11965,0.28073 -7.07183,9.01182 5.35826,14.59413 5.27836,4.10112 -0.0115,-1.50716 -0.10855,-3.00886 -0.10855,-4.51611 0,-1.37201 0.0103,2.74837 0.14926,4.11332 0.29847,2.93088 1.13816,5.61316 3.36513,7.61637 m -6.09646,-23.87953 c -1.10716,-0.20153 -2.08716,-0.0241 -3.14803,0.17088 m -8.75204,9.85001 c 0.44917,4.91683 2.16599,9.74222 4.43708,14.10981 m -13.52835,-20.42016 c 1.25576,7.28617 4.07114,14.26842 5.37335,21.53088 m -3.93503,-11.33911 c 0.42371,-1.52922 -1.13947,-1.56581 -2.37459,-1.61115 -9.45923,-0.3473 -6.10492,14.34626 -1.50616,11.57101 1.56434,-0.94404 2.6207,-2.28019 3.31085,-3.93024 m -22.57143,-11.07964 c -0.12908,-0.40814 4.65686,14.54904 4.54563,14.04878 -0.52012,-2.33932 -3.88507,-6.59356 -2.36101,-9.06885 0.72358,-1.1752 2.7246,-1.84421 3.88075,-2.45334 4.6391,-2.44419 2.70836,10.39789 2.8495,12.96246 M 7.3715287,263.78594 c 3.4733703,0.31502 7.1084603,0.2589 10.4888803,0.91543 m -10.1225203,17.5152 c 3.3909303,1.07957 12.2910103,5.96598 13.5283503,0.54925 m -10.01396,-19.21179 c 0.68553,7.24707 3.95338,13.92722 5.19695,21.03045 m -1.98114,-57.29606 c 1.72222,7.53743 0.67005,15.68188 2.5917,23.14204 m -6.11965,-27.18213 c -0.12601,3.36462 0.69837,6.95139 -0.44778,10.21619 -1.1160303,3.179 -7.3897803,9.70618 0.50206,8.06797 2.91153,-0.60438 5.50398,-2.3224 8.42638,-2.55099 m 7.05592,-3.85701 c 2.47952,-8.49051 5.98838,2.53385 5.78042,6.77417 -0.0535,1.0906 -4.58738,15.84329 -6.55386,12.14469 -1.39432,-2.62246 -0.19042,-7.16851 3.44654,-6.43241 3.429,0.694 4.23463,4.87021 8.49423,3.49083 m 2.9852,-18.67474 c 3.39997,-0.0156 4.41371,3.4372 5.19695,6.12727 0.62253,2.13813 0.71669,16.63779 -4.912,14.41495 -1.66175,-0.65625 -2.49968,-3.79362 -0.40708,-4.38186 3.1066,-0.87326 6.60782,2.99931 9.57976,3.53966 m 8.08281,-20.0024 c -0.26551,-0.93179 -1.12981,-2.63482 -2.42886,-2.05056 -1.39572,0.62774 -1.92447,3.24335 -2.2389,4.51612 -0.58703,2.37622 -1.58507,5.79798 -0.33922,8.14121 1.75828,3.30703 10.56515,4.89875 5.92968,8.73929 -1.21209,1.00422 -3.45708,1.42861 -5.02055,1.14734 -2.1548,-0.38766 7.25444,-14.73348 4.59991,-19.04092 -0.73548,-1.19344 0.10944,-1.58344 -1.64186,-1.20836 m 33.67464,0.67837 c -0.97444,-2.75611 -2.50975,-3.77754 -5.29194,-2.59982 -13.10938,5.54928 1.04343,27.28899 6.86595,14.19525 m -6.30962,-6.29815 c 14.247191,-0.90525 6.24969,2.96709 10.73313,11.76631 m 5.657141,-14.76754 c -6.627861,8.4348 3.91875,19.96079 6.90665,7.56755 1.18994,-4.93566 -4.43641,-8.69421 -2.95805,-2.86835 m 6.4453,-4.30861 c 0.0732,2.01581 -0.036,4.04274 -0.0543,6.06624 -0.0124,1.37243 -0.0828,2.75331 0.28495,4.08891 0.37628,1.36641 1.08231,2.7111 2.5917,2.9782 6.05238,1.071 3.28606,-15.79701 -0.62418,-10.75324 m 13.08255,-3.31642 c 1.12466,-5.66022 -6.42368,1.2643 -4.80345,5.15081 0.49989,1.19908 6.99361,6.43193 6.78453,6.73755 -0.53474,0.78166 -5.22393,-0.10287 -6.49958,0.81778 m 7.50258,-8.57885 c 19.41947,-2.24865 -2.3218,-11.56442 1.60115,3.17349 2.20187,8.27208 9.86872,3.69541 11.7101,-1.87968 m 15.08406,-7.28405 c 1.49578,-11.71811 15.10487,2.45707 5.80756,6.90843 -0.63183,0.30251 -2.87552,1.43292 -3.52796,0.97646 -0.37545,-0.26267 4.88526,-0.74597 6.13322,-0.10985 2.93459,1.49585 5.09657,4.35402 7.50369,6.44462 m -14.19324,-19.98076 c 0.10304,6.65215 1.52831,13.32512 3.54152,19.66341 m 11.92537,-12.6908 c -0.67858,2.55168 -0.9312,5.21503 -0.73272,7.84828 1.10826,14.70447 15.30241,-1.09459 1.45188,-6.49344 m 14.38137,-2.475 c -0.74223,-1.27092 0.42627,5.84902 0.54277,4.38185 0.48718,-6.13535 -5.83493,-2.04406 -5.38692,4.56494 0.53824,7.94039 9.63689,10.8445 11.87293,2.09938 m 9.66909,-11.65922 c 3.20454,0.65055 -7.31721,10.19089 -7.01522,8.15342 0.0792,-0.53406 1.35201,-0.71553 1.72328,-0.76896 5.58954,-0.80447 12.06402,5.24297 14.5189,9.93545 m -17.19199,-20.92059 c 0.54507,6.8523 1.32916,13.80698 5.34621,19.54134 m 25.57922,-21.65079 c 0.58509,1.90596 -0.58606,9.00281 1.46547,9.99648 0.10372,0.0502 0.41751,-10.08187 -4.95271,-4.74802 -2.68633,2.66813 -0.63286,8.12398 1.03125,10.97294 2.21393,3.79025 6.93949,4.27638 8.60278,-0.37838 m -2.42886,-11.36352 c 3.56163,0.77613 7.72841,-2.16415 10.61101,0.52485 m -6.81167,-1.62336 c 0.7204,6.14842 2.98549,12.10901 4.81701,18.04004 m 8.31784,-5.5658 c -0.54797,0.64839 -1.19479,0.59685 -1.87254,0.78116 m -47.80833,-46.17236 c 4.56039,7.29841 3.96866,16.06485 6.47245,23.94762 m -8.19571,-12.53527 c 3.33995,-2.45716 7.52464,-2.91498 11.11305,-1.35484 m -15.71297,-8.00695 c -0.67875,-0.0503 -1.35864,-0.0234 -2.03536,-0.0366 m 2.37459,6.68874 c 1.06604,4.55772 2.71221,8.81572 4.57278,13.10894 m -14.11183,-23.75233 c 0.1506,9.61163 4.56576,17.74475 8.16856,26.27891 M 186.0641,200.9627 c -5.79631,-0.06 -9.59779,20.74432 -2.98519,15.08627 2.51405,-2.15114 3.94116,-6.38703 4.35567,-9.5937 m -20.66568,4.00348 c 1.53616,-0.95229 3.15109,-1.80752 4.81702,-2.51438 11.81335,-5.01246 -4.35249,-5.60254 -3.0259,4.54053 0.6233,4.76572 5.81151,8.16436 8.43995,2.77069 M 157.66319,202.0646 c -2.78219,-1.36452 4.99824,13.77617 3.71793,12.20572 -1.77405,-2.1761 -1.01222,-11.14083 2.42886,-7.99475 m -13.16199,-3.82039 c -4.86345,-15.01052 -11.16527,2.41173 -3.7722,10.86309 0.97514,1.11472 2.28429,2.83112 3.98931,2.61202 2.0546,-0.26402 2.74995,-3.72815 2.98519,-5.27287 m -32.85924,-13.09925 c 0.68144,4.951 1.27519,9.92968 2.87664,14.68347 0.52708,1.56458 1.60115,6.33797 1.60115,4.68699 0,-2.51212 -1.81447,-4.94456 -1.5333,-7.76283 0.20153,-2.02004 2.81704,-6.13051 5.34621,-4.58935 2.4562,1.4967 3.33421,11.3268 4.19283,13.71922 M 116.7858,203.91243 c -2.91662,-7.59811 -6.56925,5.91201 -5.59045,9.56928 0.4608,1.72177 6.61386,2.78509 6.47244,3.07584 -0.90121,1.85294 -5.72602,0.74326 -7.49012,2.3557 m -8.10478,-13.17211 c -2.371611,-11.16303 -11.083881,11.51462 -5.101971,13.78025 4.158261,1.57493 5.152201,-6.54332 5.251231,-9.00781 0.1011,-2.51608 -0.19123,-4.87436 -0.14926,-4.77244 1.91312,4.64645 2.29305,9.0579 5.35978,13.29203 M 87.296179,194.62174 c 1.20793,3.94714 2.37855,9.21175 2.78166,8.84914 1.98334,-1.78407 -2.49753,-8.96997 -5.75329,-5.66345 -5.01328,5.09146 6.25435,29.84226 6.92023,15.91625 m -34.33493,-6.01517 c 2.27563,3.35643 9.92806,-4.48871 6.63527,-5.87095 -4.17365,-1.75201 -4.22479,9.56218 -2.89021,11.5344 5.20968,7.69883 10.29571,-1.88843 10.80097,-7.14035 m -17.43625,-10.66779 c 1.55191,-1.17559 -4.12531,16.41333 -5.53617,12.35218 -1.24675,-3.58875 4.65331,0.41518 5.21052,1.08631 2.60652,3.13943 5.28008,7.37836 6.75739,11.18043 m -15.63156,-27.37741 c 2.1996,7.66794 3.81145,15.46004 6.2282,23.0688 m -11.65582,-15.29376 c -5.63809,-7.93124 -12.54136,12.74505 -4.30139,14.3173 3.38075,0.64508 3.35155,-8.56444 3.35155,-10.61897 0,-1.5647 -0.25781,-6.25169 -0.25781,-4.687 0,1.71812 4.1028,25.03745 6.49958,14.59804 m -22.90457,-22.37308 c 0.95063,7.66295 2.01206,16.50905 5.83469,23.38615 m -10.23107,-11.72969 c 3.02911,-3.21479 9.51099,0.10581 13.4198,-0.0244 M 9.3670387,190.13113 c 0.8121003,3.45791 2.4332803,6.64604 3.7179203,9.94766 2.36426,6.07631 -2.96655,-8.16058 -5.6854303,-5.85874 -6.14932,5.20608 19.8680703,26.18608 -2.2389,19.73664" />
  </g>
</svg>
