<?xml version="1.0" encoding="UTF-8" standalone="no"?>
<!-- Created with Inkscape (http://www.inkscape.org/) -->

<svg
   version="1.1"
   id="svg8663"
   width="4544"
   height="2048"
   viewBox="0 0 4544 2048"
   sodipodi:docname="FrankN - Stake - Envelope67.svg"
   inkscape:version="1.2.1 (9c6d41e410, 2022-07-14)"
   xmlns:inkscape="http://www.inkscape.org/namespaces/inkscape"
   xmlns:sodipodi="http://sodipodi.sourceforge.net/DTD/sodipodi-0.dtd"
   xmlns="http://www.w3.org/2000/svg"
   xmlns:svg="http://www.w3.org/2000/svg">
  <defs
     id="defs8667" />
  <sodipodi:namedview
     id="namedview8665"
     pagecolor="#ffffff"
     bordercolor="#000000"
     borderopacity="0.25"
     inkscape:showpageshadow="2"
     inkscape:pageopacity="0.0"
     inkscape:pagecheckerboard="0"
     inkscape:deskcolor="#d1d1d1"
     showgrid="false"
     inkscape:zoom="0.18126517"
     inkscape:cx="2162.5776"
     inkscape:cy="1078.5304"
     inkscape:window-width="1920"
     inkscape:window-height="1051"
     inkscape:window-x="-9"
     inkscape:window-y="-9"
     inkscape:window-maximized="1"
     inkscape:current-layer="g8669" />
  <g
     inkscape:groupmode="layer"
     inkscape:label="Image"
     id="g8669">
    <path
       id="path9158"
       style="fill:none;stroke:#584a57;stroke-width:1.22376"
       d="m 510.37742,435.34045 c -1.25504,2.52544 -2.60205,5.0793 -3.47119,7.79703 -1.0162,3.17754 -1.43714,7.3309 0.60193,10.14334 6.88702,9.49907 20.4403,-20.01129 -0.72231,-15.86478 m -11.01549,-3.53753 c 1.69816,7.6748 2.24202,15.42012 3.19027,23.17447 m -5.69836,-24.45592 c 1.85275,6.15555 -11.28209,16.85671 -1.72555,18.08475 3.12879,0.40206 6.11352,-1.22599 8.94883,0.14439 m -27.12768,-16.76869 c 0.32736,-1.91556 -0.0602,7.77307 -0.0602,5.82973 0,-11.7747 9.38489,-4.41911 5.37732,6.69604 -0.68889,1.91066 -1.64569,3.84512 -2.6084,5.63118 -3.90208,7.23942 -5.3568,-1.959 -3.59157,-2.32828 5.02032,-1.05019 9.22804,7.7879 12.17923,2.40048 m -31.50149,-4.09705 c 1.44051,1.67689 3.8837,5.30243 6.15984,6.08241 4.51442,1.54697 8.4019,-4.07 7.34367,-8.01361 -3.25515,-12.13065 -13.64239,8.75848 -12.37989,-10.91944 3.87262,0.0441 8.42349,-1.19096 11.87828,-0.0722 m -30.85564,0.54351 c 2.60154,0.83347 5.51124,-0.0401 8.18637,-0.36098 4.67219,-0.56036 0.94304,0.185 0.94304,3.75413 0,6.04935 1.95126,14.00282 2.20712,18.95108 m -38.21293,-19.48288 c -2.52817,8.34379 -6.01636,16.88838 -5.89902,25.75543 m -5.53783,-25.80958 c 0.93613,9.14522 9.04082,13.23125 15.18894,18.37353 m -33.22706,-18.17499 c 5.10987,2.29477 10.49714,-3.48124 14.56693,-0.59561 m -7.02263,-1.04682 c -2.54416,7.10295 7.66606,25.56916 2.84918,24.72665 m -26.64149,-3.39482 c 0.58533,1.94954 1.05773,3.91923 1.7657,5.82971 m -9.6511,-12.94088 c 0.77954,-0.8791 1.96617,-2.34126 1.50485,-3.68193 -1.69168,-4.91628 -5.01355,3.25746 -5.19675,4.67459 -1.36416,10.55304 8.57505,2.78608 3.08996,11.24432 m -11.05562,-10.63067 c -4.26885,-8.99995 -11.37202,6.11013 -6.5812,9.38531 2.83886,1.94076 5.08499,-2.01318 5.79868,-4.31363 0.50685,-1.63374 -0.77751,-5.77332 0.78252,-5.07168 1.0173,0.45756 2.26326,9.20263 3.73202,10.97359 m -20.23522,-20.72916 c -0.47708,8.46184 3.80722,15.97405 6.13979,23.84228 m -13.58377,-22.8135 c 0.29699,7.15125 0.73648,14.85639 3.65176,21.4779 m -14.25961,-10.21611 c -5.32795,-6.02965 -16.48346,3.87555 -10.85497,9.98091 7.46633,8.09888 9.19596,-13.26348 10.99543,-12.61602 3.96929,1.4282 1.82099,11.961 6.62133,12.2009 m -38.54418,-17.48914 c 21.97573,-10.5053 18.41318,22.44199 6.66147,20.86423 m -5.27701,-21.82083 c 0.46227,8.08153 6.55204,14.01695 7.46405,21.94717 m 21.79278,-60.72568 c -0.4036,2.52442 -0.58187,5.07833 -0.58187,7.63458 0,3.82823 5.21344,14.63295 10.17277,7.94141 3.71676,-5.015 -1.11957,-16.36865 -7.34367,-15.17892 m -28.01846,1.04372 c 11.81621,-10.77422 3.52625,13.0353 1.92622,8.7175 -0.43425,-1.17184 0.53107,-2.56732 1.14367,-3.46534 5.03838,-7.38573 13.56153,11.50594 -0.22071,13.48234 m -10.4938,-23.86033 c -1.94406,9.34898 2.73598,17.1588 4.67505,25.75543 m 17.77728,-22.18179 c 0.71655,6.31525 3.35838,12.38421 3.99287,18.66231 m 22.17144,-21.22522 c 0.53922,6.76746 1.52415,13.69585 3.13008,20.2867 m 24.61738,-21.49222 c 9.98076,-10.80409 14.64441,6.71709 2.52815,13.75308 m -1.18381,-18.42768 c -0.80754,9.125 3.89122,17.24156 5.53783,25.88177 m 7.62458,-18.01256 c 0.8942,2.38613 1.22433,4.91605 1.80582,7.38191 4.60738,19.53817 -0.91779,-16.80076 5.27699,-6.38923 m 1.88608,4.09704 c 2.14035,-2.85365 5.87832,-3.19806 8.9087,-4.67461 4.44507,-2.16581 -9.23814,-6.67046 -7.06275,5.39655 1.11868,6.20538 7.38091,10.4934 10.43361,2.94193 m 6.91752,-9.8767 c -4.26958,-5.91161 -6.84331,4.54634 -4.79546,7.68874 0.955,1.46544 12.60071,5.36995 2.46796,5.73947 m 3.90417,-10.80798 c 5.13731,-2.28267 10.86914,-3.77043 15.50997,0.18048 m -9.1896,-12.88672 c -0.62204,8.65737 1.84755,17.87493 3.69188,25.66517 m 12.29964,-16.46036 c -15.25729,2.028 -1.20866,23.11517 3.93267,9.2409 3.00277,-8.1032 -5.84914,-10.23898 -4.75533,-4.47606 m 8.29477,-3.1399 c -0.92386,1.28325 2.69454,12.50639 2.94951,12.43553 1.15119,-0.31995 -0.82172,-2.25517 -1.04337,-3.42925 -0.58874,-3.11865 -0.6025,-8.81987 2.96957,-10.34188 4.10493,-1.74908 5.06502,7.31522 5.85888,9.45749 0.63096,1.70269 0.97361,4.18606 1.34432,5.70337 m 21.16178,-20.89251 c 8.20495,-12.34876 15.34154,6.59661 4.09318,9.54773 -0.25441,0.0667 -1.39704,0.38676 -1.5249,-0.0541 -1.07882,-3.71993 5.47392,-2.35763 6.88217,-1.24536 2.55648,2.01917 7.66339,12.56128 10.97536,8.6814 m -18.07825,-22.7774 c -0.93259,8.88851 2.84725,18.34699 5.63817,25.37641 m 11.24733,-22.47466 c 12.7227,1.4045 16.8503,12.94395 6.60128,20.19644 m -5.17668,-23.19253 c -1.41867,8.22665 2.95305,16.67547 6.521,23.77008 m 29.72788,-16.8848 c -1.3268,-2.25406 -0.32408,-7.89 -2.24724,-9.61994 -4.609,-4.14591 -5.23578,8.12724 -3.85241,11.80383 1.18296,3.14397 9.56592,6.48573 8.06598,10.23359 -2.20232,5.50293 -13.73323,3.02923 -9.1896,-0.0361 m 15.80664,-18.53188 c 0.002,7.4405 1.46134,14.97021 3.8123,22.01936 m -9.65111,-22.79545 c 4.7569,1.50474 9.52564,1.24184 14.3663,0.75804 m 4.83557,-0.50536 c 4.13494,-0.83993 8.40921,-0.56512 12.6006,-0.99268 m -10.59413,9.20482 c 4.09903,-0.1685 8.17984,-0.34326 12.2595,-0.74 m -13.74428,-7.90532 c -0.72778,6.62417 1.58789,11.79842 4.71519,17.29063 0.60685,1.06577 -6.56652,8.16943 2.6084,4.0429 1.98656,-0.89349 3.98594,-1.44253 6.05953,-1.73267 m 25.26101,-20.48354 c 1.15036,7.16899 2.2302,14.30385 3.85241,21.36961 m 5.69837,-22.59692 c 1.11461,7.29668 1.71577,14.87439 4.23364,21.87497 m 5.63817,-18.7345 c -0.0362,2.64904 -0.0803,5.30309 -0.0803,7.95946 0,1.92458 3.09117,17.07986 7.90546,9.65602 1.11593,-1.72079 1.09161,-15.6811 -0.14044,-16.94769 -0.95035,-0.97697 -3.75904,-0.57264 -4.95598,-0.50536 m 13.58826,9.95151 c 2.30916,0.766 4.63994,1.64788 6.84206,2.54486 m 6.521,-12.94088 c 7.18525,0.93838 14.31669,2.00794 21.20834,-0.83025 m -21.38891,-0.70389 c 0.37735,3.41666 1.67246,6.68981 2.26729,10.0531 1.00564,5.68607 6.6354,-8.2052 9.18961,-0.68584 0.55231,1.62593 1.42524,3.74289 0.90291,5.50483 -2.00053,6.74823 -12.01406,9.002 -14.5268,1.58828 m 23.05427,-16.76719 c -0.95235,1.70478 -2.04433,3.32673 -2.80905,5.12581 -2.6943,6.33862 2.55873,18.00497 7.64464,10.73895 3.30018,-4.71482 2.88022,-19.87183 -5.43752,-13.03112 m 16.65366,-4.87315 c -0.61987,-2.77431 -2.16698,11.09096 -2.16698,8.24824 0,-10.78105 8.43398,-3.91406 7.28345,5.08973 -0.47999,3.75639 -11.59381,15.74798 -9.00902,6.91262 2.46684,-8.43211 9.83477,7.64168 12.52035,-1.10096 m 0.54174,-18.8428 c 0.77784,3.51955 5.62716,-0.006 7.00255,1.40779 2.9166,2.99834 1.49283,20.27995 -0.58187,23.75204 M 555.15263,357.24638 c -0.22463,7.66236 1.94344,15.77397 4.07312,22.68716 m -3.35079,-11.00968 c -3.2178,-9.16068 -13.02409,4.61854 -7.88541,9.24092 3.78897,3.40828 8.84833,-6.64238 7.88541,-9.24092 z m -24.38555,1.53711 c 1.24614,-0.46052 10.83492,-2.61991 10.83492,-2.8878 0,-4.52925 -6.45763,-4.20158 -7.82522,-0.57755 -3.18938,8.45172 5.79767,14.17029 11.95853,9.11458 m -25.04067,-18.53597 c -0.42058,3.28159 7.50024,24.9572 2.98962,24.7808 m -6.56114,-12.88674 c 3.32479,0.17967 8.21369,0.006 10.63426,-0.74 m -11.97858,-13.62673 c -0.77859,0.29903 -0.87628,1.15106 -1.26408,1.66047 m -3.75209,12.0204 c 1.18217,3.94913 1.07324,8.51878 2.94951,12.1287 m -25.5148,-11.64195 c 0.23217,3.65575 0.71863,7.37525 2.52815,10.63067 0.47741,0.8589 2.32078,2.17788 1.42458,2.58096 -1.43528,0.64553 -3.86547,-11.37952 1.62524,-13.17553 5.34113,-1.74708 7.19325,11.62333 3.53138,11.62333 -1.52961,0 -0.87069,-10.71171 2.6084,-10.90138 4.84453,-0.2641 4.98529,8.90078 5.57798,11.53309 m -21.1682,-25.68323 c -1.0548,0.48553 -1.98195,1.23853 -2.86926,1.87705 m -1.02329,11.65943 c 1.01963,4.80812 2.27265,9.81662 4.73525,13.95162 m -23.47083,-22.8513 c -0.58547,6.3567 2.61871,11.80446 5.09641,17.435 3.63184,8.2533 -7.26814,5.71173 2.20712,4.49413 2.1068,-0.27073 3.70585,-0.70091 5.79867,-0.25268 m -48.56121,-7.6212 c 0.73129,-8.79896 -5.69443,1.03973 -3.49125,5.61315 0.66734,1.38526 15.45244,9.53264 -0.62201,7.23751 m -15.22635,-10.63067 c 2.41858,0.68454 3.97321,-0.65695 5.89902,-1.82291 7.90384,-4.78539 -7.706,-5.75608 -1.30421,8.32042 2.42771,5.33816 5.38403,4.897 8.10611,-0.0722 m -17.73714,-14.49308 c -1.34517,11.34177 -10.73237,7.6374 -3.0097,10.08921 3.53035,1.12079 6.5728,5.71325 8.46728,7.3819 m -13.32293,-19.99791 c 1.58561,6.53567 3.05532,15.51902 5.11649,20.73789 m -11.41664,-9.87578 c -4.50339,-6.57048 -14.66882,5.62977 -9.47051,10.30578 4.01377,3.61048 7.84493,-2.13056 8.18638,-5.73947 0.2154,-2.27663 0.16051,-9.14529 0.16051,-6.85849 0,0.42201 3.34913,20.71147 6.92231,10.63066 m -29.22983,-18.03731 c 0.62054,8.40739 3.70226,17.01002 6.5812,24.29349 m -9.45044,-10.19749 c 3.37533,-3.24552 8.67255,0.6611 12.66079,-2.85168 m -17.11515,1.8951 c -0.44456,-1.92382 -0.43082,-4.43414 -1.70549,-6.08239 -4.31038,-5.57363 -4.52989,6.19113 -3.73202,8.44677 0.62138,1.75668 8.13069,6.28943 7.08282,7.9053 -0.95202,1.46806 -5.00188,0.79706 -6.44075,0.83025 m -18.67634,-10.43122 c 15.90629,-9.24632 15.64957,7.01912 3.411,13.21163 m -0.12038,-20.25059 c -2.11691,9.82643 4.63277,18.91982 5.05628,28.57102 m -23.45557,-21.514 c 2.95197,-0.81227 6.24997,-1.00413 9.06922,-2.25608 10.70183,-4.75236 -8.95784,-6.04444 -5.29707,0.54145 2.25039,4.04857 4.65345,14.92782 10.09252,8.17606 m -23.07355,-6.61365 c 2.08887,-1.06727 5.5412,-1.23454 7.22327,-3.05022 1.8284,-1.97363 -7.455,-8.05456 -6.1799,3.98875 0.45234,4.27253 6.78649,15.44403 9.61096,6.55167 m -31.64195,-14.8721 c 3.24577,5.30024 3.28265,11.79801 5.21681,17.59745 1.83591,5.50485 3.51131,-16.25416 3.51131,-12.63406 0,20.83715 17.80841,9.16454 4.11326,-5.81167 m -20.20511,-2.72536 c -1.80643,-1.57955 -1.45896,-6.11486 -3.47119,-7.3819 -3.18378,-2.00472 -5.36554,4.76324 -4.67505,6.7863 1.11419,3.26444 10.94396,15.77892 9.55078,18.53597 -1.5696,3.10616 -13.32957,3.20053 -11.87828,0.25269 M 292.61771,272.6074 c 3.38722,-10.38471 -14.76709,7.15291 -5.49772,10.0531 6.32575,1.97919 7.12296,-15.14828 7.12296,-13.31991 0,2.79498 0.42571,5.5818 0.98317,8.32043 0.5609,2.75557 5.92104,14.62284 1.82588,13.75308 m -26.80636,-18.86083 c 1.785,-1.26766 4.66649,-3.57473 6.54107,-1.28145 5.92368,7.24676 -4.15896,14.02115 -4.63493,12.25504 -0.69423,-2.57596 5.21881,-3.47403 6.72166,-2.47267 6.26826,4.17664 2.11736,16.81256 -5.0563,9.69213 m -16.89443,-14.7277 c 3.54113,-11.23816 8.38318,1.58884 4.73525,8.78969 -0.95261,1.88043 -2.18361,4.55456 -4.43429,5.16192 -0.31059,0.0838 -1.00064,0.12598 -1.14367,-0.27073 -1.69834,-4.71039 9.4551,1.24955 10.15271,1.87706 m -16.59347,-1.35365 c -3.89705,1.83355 -4.00055,-7.91093 -1.86601,-7.94141 4.14666,-0.0592 4.17855,5.75288 1.86601,7.94141 -0.74799,0.70788 -4.21705,1.24244 -5.35726,1.10097 -8.05536,-0.99945 -2.48044,-15.81558 -1.20388,-19.69109 m -5.87871,11.65626 c -18.72434,8.31491 -6.55188,-5.72653 -5.57798,-14.096 2.93746,7.42485 2.16708,15.81453 4.75532,23.26472 m -29.51686,-20.39033 c 2.22181,5.0563 3.03827,10.72211 3.85239,16.15355 m -15.06853,-14.836 c 3.20334,6.33759 7.08412,13.0192 13.42323,16.64087 m -12.11904,-17.79598 c -0.16201,7.06816 0.31707,14.40248 3.57151,20.774 m -24.17511,-2.18967 c 4.86887,-0.15876 9.80495,-1.93564 14.60706,-0.43316 m -7.84527,-17.97646 c -0.6935,6.28427 1.13504,12.12593 2.46795,18.12085 m -9.49058,-18.1389 c 5.14339,0.91387 10.34358,1.00254 15.36952,0.10829 m -31.58952,17.20185 c 2.42057,1.98088 3.44605,4.43315 4.01293,7.43605 m -15.20901,-4.36778 c 17.67517,4.61979 1.52273,-1.86024 2.08673,-8.0497 0.36829,-4.04172 6.91735,-6.82061 4.49448,-3.24876 m -11.05562,-7.72482 c 0.72682,1.38297 0.90445,2.86322 1.08348,4.38582 m -0.98315,1.98535 c -0.10043,4.18555 0.60269,8.59012 2.02652,12.54382 M 136.127,270.6373 c -0.67939,8.78408 1.42545,17.21869 4.655,25.32226 m -13.34299,-16.17159 c -1.35694,2.04501 -4.3501,13.53343 -0.16052,14.89014 1.26652,0.41014 2.10506,-0.63173 2.78899,-1.51609 4.21563,-5.45111 -2.24989,-12.25568 -1.32427,-7.81507 m -14.00513,-6.91263 c 0.54463,10.07059 4.83598,19.51615 6.13979,29.40126 m -11.65756,-19.92572 c 4.35505,-15.96288 19.12007,0.59116 8.30676,7.39995 M 99.830049,280.13089 c -7.24475,0.73062 -6.65617,19.42459 -2.64853,15.39551 2.78883,-2.80376 3.104811,-8.30608 4.333961,-11.93017 0.5383,-1.58715 0.80259,-6.63933 0.80259,-4.96338 0,6.37611 3.36916,15.17783 5.49771,19.36621 M 80.244109,280.68018 c -0.32186,3.9497 1.31821,7.50438 2.68866,11.09992 2.90918,7.63257 -1.21112,-1.9342 -0.0201,-5.03558 0.73878,-1.92371 2.44311,-3.56131 4.35402,-4.27753 5.8545,-2.19427 3.81229,10.58585 3.81229,13.06723 m -14.92059,-12.36037 c -11.06417,-8.07206 -11.48286,21.30926 -4.43429,12.34528 1.8152,-2.30846 2.54821,-4.60753 2.54821,-7.52629 0,-1.82313 -0.76246,-3.44757 -0.76246,-5.23411 0,-1.93787 0.45046,13.33733 6.50095,12.18285 m -10.53394,-17.90427 c -0.68283,-0.0838 -1.38515,-0.10887 -2.06666,-0.16244 m -8.08605,4.38582 c 1.56535,4.65469 3.86336,11.25781 5.51778,14.74576 m -13.9048,-22.27205 c 1.56227,7.58796 3.18488,15.19044 5.59803,22.54278 m -6.15985,-13.21162 c -7.05952,-6.67638 -13.52855,13.37405 -4.65499,13.37405 2.26802,0 3.48616,-2.26133 4.19351,-4.04289 m -23.95719,-9.78238 c 0.9736,2.0502 2.02667,4.05394 2.84918,6.17264 3.7738,9.72099 -1.3278,0.43953 0.78252,-3.35705 4.88414,-8.7868 9.69606,-6.18687 8.6278,2.94194 -0.17694,1.51205 -0.30097,4.54998 -0.30097,5.45069 M 9.1625291,293.985 c 4.9714399,0.6944 10.1803299,1.25106 15.0886099,-0.0902 M 7.1761291,272.01983 c 4.4806599,0.77289 9.3857199,0.2903 13.5636999,1.91316 m -5.97926,-1.58828 c 0.6536,5.92142 6.32762,16.59263 2.9495,22.23594 m -3.35651,-63.22247 c 1.42857,8.20028 4.40795,18.27985 6.9825,24.97934 m -5.39739,-24.7808 c 0.0268,11.8997 -12.1990199,20.09861 -0.60194,18.39158 3.61101,-0.53152 6.92618,-0.68823 10.31323,-1.98535 m 0.64207,-7.74288 c 7.33393,-12.86081 12.87029,7.31769 4.39415,15.30526 -0.79092,0.74533 -3.13989,2.07672 -3.93267,0.59561 -4.406,-8.23149 11.3858,0.1648 13.32293,2.27413 m 3.69189,-18.46377 c 6.53568,-10.75228 7.88191,9.68194 3.15015,16.24379 -0.37903,0.52562 -1.68633,1.75707 -2.40776,1.06487 -2.67024,-2.56208 2.4737,-5.0417 4.59481,-4.38583 3.01488,0.93224 6.04497,4.19824 8.16631,5.73948 m 6.26017,-22.09156 c 9.71247,1.00514 0.53928,11.54345 -0.48155,15.82867 -1.74957,7.34432 10.14928,7.17322 9.73135,1.53414 -0.13576,-1.83176 -22.43614,-9.56988 -7.50418,-21.65839 m 36.116371,5.36045 c -6.418881,-17.94277 -12.391781,11.18946 -1.464721,15.35941 2.290891,0.87424 3.353841,-1.51591 4.113251,-3.21266 m -6.389851,-3.37136 c 17.063221,-2.29323 5.628591,-2.8327 14.085381,10.17944 m 4.17344,-16.29794 c -1.61815,2.2583 -1.36439,5.07577 -1.36439,7.72483 0,5.29371 6.22196,11.22013 6.86211,3.15851 0.47275,-5.95352 -5.18053,-13.74213 -4.45435,-7.29166 m 11.89833,-6.46142 c -5.10186,1.02951 -6.82773,11.22267 -1.48478,13.10333 3.7262,1.31158 7.58524,-2.60928 8.2265,-5.97411 1.85116,-9.71346 -9.43637,-3.59168 -3.65176,-3.59168 m 12.35981,-5.46874 c -4.85097,-0.44125 -7.39684,5.98658 -4.77538,9.69213 3.03612,4.29167 10.55656,4.45573 9.63103,5.28825 -1.77687,1.59835 -6.33117,1.07119 -8.66792,2.56291 m 6.08301,-10.81636 c 2.15641,0.1609 10.56716,-2.44266 9.41031,-5.32435 -1.23364,-3.07302 -6.98462,1.33472 -7.2634,3.59168 -1.50903,12.21674 12.00669,17.76062 15.0485,4.36777 m 13.81189,-10.21814 c 5.91959,-12.04893 16.94576,-0.75854 6.3003,7.32775 -0.30352,0.23054 -2.6774,1.41793 -3.13009,1.01072 -3.27688,-2.94763 9.79523,-2.98147 14.48667,7.418 m -14.08538,-22.52472 c -1.09014,8.6383 1.4943,16.17732 4.55467,23.82423 m 12.37989,-16.85745 c -1.81814,2.33086 -1.73543,5.42143 -1.94627,8.26629 -0.67359,9.08877 5.99296,13.22283 9.83168,3.35704 1.98082,-5.09085 -2.63924,-10.32908 -5.79868,-3.9346 m 15.72631,-1.24423 c -4.51593,-19.16987 -9.0583,18.29731 6.32037,5.91996 m 7.68476,-15.08868 c 4.84995,1.05295 -6.86869,18.04948 -7.50418,12.90479 -0.20423,-1.65342 15.45374,4.43375 17.05496,6.73215 M 221.77907,229.5684 c -1.49517,7.1782 1.43584,15.60432 5.19674,21.71254 m 28.95328,-18.19305 c 4.57713,0.53447 8.85657,-1.1576 13.24266,-1.85901 m -10.23296,0.27073 c -0.52455,6.85309 4.33348,12.90415 8.22649,18.15695 m -15.59022,-20.32279 c -0.27829,-0.92716 0.14045,12.05343 0.14045,11.497 0,-4.56975 -6.33247,-12.50901 -7.06275,-4.1151 -0.68638,7.8891 7.53452,20.20808 14.06532,9.76433 m -43.9003,-52.3397 c 0.4724,7.23882 1.82687,14.58996 5.11647,21.08083 m -10.65432,-10.97358 c 4.50277,0.80174 8.9804,0.26864 13.12228,-1.53413 m -16.07179,0.0722 c 0.0529,5.24587 1.27481,11.06209 4.0932,15.57599 m -11.43685,-21.5501 c 0.36125,7.48634 3.06109,14.72095 4.69512,21.96522 m -1.44465,-14.38478 c -18.61059,-1.39265 -7.15226,25.68897 -1.10356,5.88386 m -24.46588,-1.49712 c 2.36819,-1.41533 5.18912,-1.67462 7.88541,-1.89511 8.36548,-0.68409 -1.10009,-7.46941 -4.5346,0.84829 -3.10131,7.51076 3.04548,11.921 9.04916,7.79702 m -19.80381,-13.08528 c -0.83692,2.03765 -0.71608,4.16617 0.12039,6.17264 1.02761,2.46498 2.37369,4.72161 3.67182,7.05703 0.39986,0.71936 1.53029,2.88821 1.00324,2.25608 -3.68368,-4.41808 -3.98694,-15.05203 3.97279,-13.98771 m -18.324,-8.62521 c -0.96007,0.046 1.09054,9.93358 1.22394,9.49359 2.10917,-6.95661 -7.2905,-12.73236 -8.066,-3.66388 -0.50781,5.93825 7.51393,25.05592 11.71777,11.37066 m -35.79247,-14.23482 c -2.15509,6.83294 4.47441,13.30751 4.47441,19.63693 0,1.54618 -3.78011,-12.61195 2.68866,-13.15747 5.20579,-0.439 5.78198,12.58082 5.85888,12.92284 m -18.64006,-13.21162 c -0.96164,0.33311 -2.7512,-2.65012 -3.45112,-1.75071 -1.07625,1.38302 -2.80568,10.07478 -1.40452,11.58723 0.58464,0.63109 19.93991,4.00069 2.92944,4.18729 m -10.73459,-11.85797 c -0.95707,-12.85714 -12.041111,10.59432 -4.73525,11.35261 7.4349,0.77168 2.85047,-20.88061 6.11971,-10.95554 0.80319,2.43839 1.88673,4.78377 2.70873,7.21947 0.68934,2.04261 1.40343,4.67978 1.90614,6.44337 M 94.901389,194.19516 c 0.39398,4.19667 2.84919,8.61096 2.84919,12.8326 0,1.22499 -1.605,-11.77759 -6.44076,-9.4214 -6.18301,3.01263 -1.91754,27.69316 10.493811,19.16767 m -42.632081,-6.79059 c 2.42671,-0.80441 4.96841,-1.91226 6.84204,-3.71803 5.11456,-4.92929 -4.24207,-6.84079 -3.23041,2.94194 0.2748,2.6572 1.83551,6.4042 3.85242,8.15799 5.38163,4.67955 9.25167,-1.26586 10.39348,-6.20874 m -22.61827,-11.5333 c -2.08134,18.00047 -14.70035,9.80042 -4.43429,9.80042 3.91302,0 8.06963,5.87544 10.33329,8.51896 m -14.44654,-22.05545 c -0.24085,8.24683 2.90282,15.73964 5.41745,23.35496 m -13.58377,-13.21162 c 0.85152,-14.60088 -13.63646,10.26969 -3.2906,10.26969 4.66343,0 6.12073,-13.77113 5.29707,-13.77113 -1.51372,0 2.17509,18.44232 6.34043,14.096 m -24.39532,-22.88682 c 0.1986,8.80852 2.06106,17.74365 5.51778,25.79153 m -11.79802,-15.84672 c 4.50555,2.59102 9.39003,1.78724 14.3061,1.38974 m -19.34232,-14.92624 c -0.5895699,2.38878 1.40452,4.819 1.40452,7.07508 0,1.829 -3.5295599,-8.83958 -5.3371899,-4.09705 -1.24536,3.26733 -0.94507,8.69851 0.78252,11.69553 1.82535,3.16662 11.6299999,6.81826 11.0556199,10.30579 -0.66013,4.00819 -8.2729299,2.04231 -10.2129099,0.81219" />
  </g>
</svg>
