<?xml version="1.0" encoding="UTF-8" standalone="no"?>
<!-- Created with Inkscape (http://www.inkscape.org/) -->

<svg
   version="1.1"
   id="svg59"
   width="3000"
   height="1998.207"
   viewBox="0 0 3000 1998.207"
   sodipodi:docname="RonaldW - Stake - Envelope28.svg"
   inkscape:version="1.2.1 (9c6d41e410, 2022-07-14)"
   xmlns:inkscape="http://www.inkscape.org/namespaces/inkscape"
   xmlns:sodipodi="http://sodipodi.sourceforge.net/DTD/sodipodi-0.dtd"
   xmlns="http://www.w3.org/2000/svg"
   xmlns:svg="http://www.w3.org/2000/svg">
  <defs
     id="defs63" />
  <sodipodi:namedview
     id="namedview61"
     pagecolor="#ffffff"
     bordercolor="#000000"
     borderopacity="0.25"
     inkscape:showpageshadow="2"
     inkscape:pageopacity="0.0"
     inkscape:pagecheckerboard="0"
     inkscape:deskcolor="#d1d1d1"
     showgrid="false"
     inkscape:zoom="0.2012328"
     inkscape:cx="593.83957"
     inkscape:cy="859.70079"
     inkscape:window-width="1366"
     inkscape:window-height="705"
     inkscape:window-x="-8"
     inkscape:window-y="-8"
     inkscape:window-maximized="1"
     inkscape:current-layer="g65" />
  <g
     inkscape:groupmode="layer"
     inkscape:label="Image"
     id="g65">
    <path
       style="fill:none;stroke:#665f8a;stroke-width:0.367444"
       d="m 254.25344,12.442896 c -5.13604,1.604924 -16.48337,9.940076 -8.38938,10.824141 2.93294,0.04071 7.6909,-0.03913 10.77693,-2.290997 -1.26701,-4.85803 -2.73247,-8.939087 -3.79548,-13.9378249 m 7.34889,1.1023343 1.09372,1.5130719 M 208.38469,21.736005 c -2.83189,1.937683 -10.28955,6.327986 -12.30939,0.734889 -0.71542,-1.981188 0.57395,-7.30605 1.59213,-9.186118 1.6739,-3.136958 4.02296,-5.0017169 7.85895,-3.9312244 m 6.85741,1.9950324 c 3.90757,0.192596 5.7575,8.383408 8.12658,11.8572 m -5.59641,-10.3814 c 1.5745,-2.047182 6.54478,-3.3693744 8.16852,-1.376832 m 82.67505,-0.367445 c -3.55484,0.585163 -8.32064,-1.1613945 -8.45122,2.572114 -0.11657,3.333098 9.46795,-0.06765 11.20705,3.674447 0.37223,0.801213 -0.0599,1.581372 -0.61251,2.143452 -1.9405,1.974795 -5.95299,2.265885 -8.38987,2.265885 m -157.26634,4.041892 c 3.51767,3.677693 12.32823,-3.515706 12.06432,-5.511671 -0.27595,-1.419256 -1.97024,-2.151499 -3.24564,-2.204669 -2.71285,-0.113026 -9.14166,2.713727 -10.28846,0 -0.55399,-3.726563 2.9683,-6.090777 5.87912,-6.614005 m 81.20528,5.634177 c 3.55231,-0.285663 12.26787,-0.603996 11.32943,-4.531843 -0.62245,-1.897007 -3.79865,-0.971303 -4.71542,-0.551167 -4.42075,1.914052 -7.81917,5.146422 -7.71634,8.267507 0.0191,1.3727 0.92633,2.773069 2.57211,3.184533 1.24307,0.310822 1.81555,0.231748 2.93956,0.122469 2.71799,-0.264266 5.03253,-1.342826 7.71634,-1.837223 M 112.48162,11.814997 c -10.83657,6.119199 -10.08451,25.090428 2.93956,13.9629 m 17.72963,-4.727298 c -0.79789,3.830704 -9.55047,9.6664 -14.05519,5.829632 -4.89669,-6.877378 3.39958,-15.115546 8.26751,-14.330345 4.36919,2.637185 5.73429,9.082185 7.90006,13.228011 M 15.476211,13.284776 c -6.0384208,0.154887 -11.0242898,9.028123 -8.7574209,12.644319 4.1549409,2.228403 13.9899719,-2.176207 13.4117329,4.258139 -0.533099,5.932045 -7.392437,4.77678 -11.2683177,4.77678 M 74.877546,23.590949 c 2.313799,0.669705 16.810216,-5.54699 11.08669,-9.203839 -7.390368,-4.7218202 -14.35933,14.179948 -6.920088,15.43268 2.239577,0.217747 6.762085,-2.03513 8.083784,-2.939559 M 279.37927,10.258632 c 1.58216,3.390119 3.33264,6.694007 5.06647,10.007594 M 159.47125,10.517954 c 0.90936,4.584358 3.28124,9.881829 4.45263,13.422719 m -1.68161,-4.508736 c 2.32078,-1.465847 11.22158,-7.154107 14.11337,-1.37038 0.56182,1.123132 0.42881,2.002023 0.42881,3.307003 m 100.67986,-5.879116 c 3.46655,0.730967 7.54425,-0.03584 10.46139,-0.05191 m -219.904893,0.7868 c -3.571384,4.782042 -4.713468,5.480709 -9.738762,7.938262 m 207.441255,-9.023367 3.35891,6.03484 M 26.075893,13.513727 c 1.761959,6.843798 2.00434,11.813443 3.730662,18.143285 M 51.424069,26.75057 c -4.072406,3.377215 -11.670829,8.028932 -15.7384,7.049858 -3.530984,-5.814665 4.913875,-17.180988 11.831785,-15.79724 4.451934,0.890494 3.701084,8.588166 3.96834,12.184046 m 5.511671,-11.758232 c 0.696474,4.2254 2.305184,9.258585 2.939558,12.493122 m 1.735617,-8.479392 c 1.829139,1.780968 5.430658,4.534468 7.450501,7.377058 M 22.582795,26.019989 c 2.236195,-0.117693 8.94036,-2.620458 11.269959,-0.536091 M 200.18723,51.49535 c 2.163,-0.01937 5.56587,0.01119 7.46257,0.0037 -0.27196,-3.32039 -3.30429,-10.736831 -5.14422,-9.36984 -2.82586,2.099495 -2.1006,11.951557 -2.57211,15.616402 m 28.33604,-5.718951 c 1.90189,-0.04998 8.5067,-5.310322 5.77495,-7.019246 -4.6153,-2.887239 -6.97317,8.657821 -5.45031,9.737288 2.61658,0.900973 5.49147,-2.332539 8.08379,-2.878195 m 23.14902,-7.348895 c -1.48484,2.398205 -2.62388,9.345878 -0.36745,10.717259 3.14411,0.430233 8.78219,-5.555133 9.7935,-7.516172 m -0.23993,-2.098753 c 0.085,2.539486 0.80952,4.892178 1.46977,7.348906 M 169.75284,51.83103 c -1.3871,-0.620614 -5.80202,0.57681 -6.98445,0.609511 m 6.66716,-7.188073 c -2.60248,-0.618004 -7.96142,1.898586 -7.96142,1.898586 0,0 1.43307,6.980046 3.55209,10.22709 m 55.1167,-11.758232 c 0.88628,2.104722 0.45968,13.850462 -5.14422,9.798648 -3.25879,-3.098504 -2.85023,-5.397874 -3.307,-8.32887 m 74.95871,8.083786 c -1.95334,1.336395 -6.27044,2.805071 -8.81866,1.531142 -4.60936,-4.66641 0.83771,-11.568215 4.96049,-11.819594 3.58793,-0.105716 0.82749,3.658645 -2.02094,5.08286 -1.55688,0.778618 -4.26015,0.747752 -5.02186,3.000923 m -93.45332,0 c -3.04679,-0.287455 -5.72667,0.145481 -8.81868,0.367444 m 10.6559,-6.246561 c -2.43786,-0.568444 -8.17982,-1.790701 -8.45123,1.469781 -0.23871,3.864601 1.93158,6.65529 2.57212,9.553561 m 62.09816,-11.75823 c 0.78621,2.164996 0.95435,4.346903 1.10233,6.614005 m -0.17118,-2.814846 c 0.65372,-0.768087 1.29225,-1.410401 2.37585,-2.268017 1.61786,-1.280912 4.36267,-1.350728 5.87911,0 1.94011,1.727725 1.46978,5.065592 1.46978,6.920085 M 75.369702,58.113032 74.573447,50.029249 74.451088,47.151054 c 2.714917,-0.913835 5.511252,-0.08767 8.267507,0.306082 m 56.219045,10.288452 c -1.47052,0.541612 -3.33566,2.00441 -4.77678,2.204668 -5.58112,0.775308 -4.48687,-9.476031 -1.83723,-12.125676 1.57905,-1.502231 3.00495,-1.165798 3.54479,1.037506 m 7.11111,-1.40495 c 0.39831,3.886594 1.14422,7.647584 2.20467,11.390786 M 9.2296502,48.559471 c 4.1756718,0.239597 11.3657108,1.263153 11.3657108,1.263153 -1.297102,4.368559 -1.204032,8.921929 -1.444703,13.434635 m 82.675062,-5.511671 -2.813521,-8.981166 m 0.480453,1.608526 c 2.618978,-2.292734 3.265378,-1.840672 5.640078,0.02376 M 51.788409,56.43144 c -2.474057,1.807618 -9.207985,2.579062 -10.59107,1.314164 -1.330883,-1.330895 -0.472165,-2.397955 0.183724,-3.674458 1.303695,-2.53684 6.195289,-4.88388 9.367669,-4.31639 0.188259,4.20266 1.320607,8.068725 2.574286,12.03273 m 59.165012,-9.840152 c 2.09847,-1.515709 7.54715,-3.770002 9.48579,-1.489272 1.36285,1.60316 1.18795,6.587182 0.42881,8.389865 M 111.01184,49.66181 c 1.97328,1.280187 1.77356,5.31408 1.88002,7.683908 M 29.439111,61.420037 C 24.20211,61.127654 29.046653,49.79861 29.867809,50.212972 c 6.731267,3.396661 7.769936,12.128142 -0.428698,11.207065 z m 57.161558,-6.552644 c 1.328312,-0.516628 7.160743,-1.621167 7.44735,-3.368366 0.260151,-1.584788 -1.924675,-1.271358 -2.878194,-0.979976 -2.915358,1.144865 -5.763624,4.302879 -4.347973,6.859093 1.630352,2.96087 6.273015,3.325006 8.757309,1.102334 M 74.621438,52.012579 c 3.128055,0 8.179071,0.282523 8.179071,0.282523 m 124.849291,-0.796075 2.20467,5.51167 m -58.42371,-5.144224 1.46978,4.409337 m 124.93121,14.697788 c 0.0476,2.926673 -1.13698,9.286182 -0.18374,10.594534 1.20384,1.138904 9.64704,-0.669489 10.09219,-1.362788 m -1.45723,-6.292187 c 1.34245,4.52566 1.66467,7.861952 2.93954,12.49312 M 235.20816,71.341045 c -0.21013,4.67568 0.37699,9.310221 0.73489,13.962898 m 18.00479,-12.49312 c 2.17617,4.386364 4.71536,7.463282 8.25798,11.061794 m -16.70921,-9.95946 c -4.08837,4.710913 -4.31914,4.737763 -10.02733,5.786169 m 24.72512,-5.786169 c -1.68634,3.769352 -3.27593,9.410608 -5.14423,11.758232 M 301.777,83.834165 c 0.0919,1.658277 0.70367,6.116485 3.61309,5.389311 1.69944,-0.425134 3.39483,-1.861106 4.77677,-2.878561 11.38521,-9.199367 -9.95303,-18.408137 -8.38986,-2.51075 z m 15.37133,-9.921008 c 1.56664,4.101537 1.27311,8.534246 1.46977,12.860566 M 140.40742,76.485269 c -6.24242,-5.083425 -12.66212,7.302041 -6.98145,8.389866 4.17295,0.745941 9.30289,-1.532082 12.06431,1.898588 1.35624,1.7325 -0.37369,3.276871 -1.77586,4.347973 -2.6941,2.058058 -7.70825,1.898586 -10.28845,1.898586 M 294.36675,75.015491 c 0.26381,2.505239 1.46977,6.870849 1.46977,10.288452 M 169.43555,76.485269 h 0.36745 m 151.3872,0.73489 c 2.71706,0.153677 11.69687,1.837225 11.69687,1.837225 0,0 -0.67352,8.522512 -0.67352,11.390786 M 16.94599,89.345835 C 15.76741,91.38148 11.095093,93.952857 8.127316,92.469115 6.2827068,91.54683 5.2742915,89.585409 5.1877582,87.508611 5.0229124,83.664358 10.088922,76.130127 13.271542,77.771327 c 1.389897,0.820136 1.23704,3.697228 1.469779,4.960503 m 53.279486,8.45123 c -1.519383,0 -3.934967,1.412457 -5.144228,0.918611 -4.303143,-1.757487 -1.576704,-9.542907 0.12236,-11.941953 0.790742,-1.116298 2.387289,-3.21698 3.55209,-1.469781 m 37.479361,-1.102334 c 2.08494,4.405085 1.78151,8.153966 3.307,12.493123 m 103.25197,-12.493123 -4.40933,4.409337 c -2.00941,2.009404 7.41756,0.06852 9.4922,1.959584 1.68973,3.511568 -4.78939,6.438419 -7.28754,6.491646 M 71.695253,86.406277 c 3.884595,0.948098 11.199095,-3.920005 9.308479,-6.246559 -3.538534,-4.354446 -8.451472,9.320274 -6.736364,11.329422 2.531692,2.327763 7.180235,-0.08966 9.921008,-0.30608 m -60.628381,0 c -1.437113,-2.275587 -3.246282,-9.038686 -4.42883,-11.403928 m 1.062728,2.585255 c 1.428588,-2.235903 4.216479,-3.112992 6.673104,-3.307003 m 149.608183,4.369551 c 1.03031,-1.030316 6.73918,-4.553274 8.39305,-4.369551 4.65992,1.785214 1.73098,8.822085 1.46978,11.758229 M 30.292023,85.377846 c 3.634012,-0.525803 11.013599,-2.349876 8.700648,-4.850684 -4.001685,-4.326706 -8.916656,3.853102 -9.798537,8.45123 -0.43825,2.253904 2.174317,4.187398 3.919422,4.04189 3.433184,-0.286238 6.593061,-2.735624 8.45123,-5.144225 m 6.981449,-8.083785 c -1.900195,1.037996 -6.564425,3.575704 -5.082863,5.144227 1.544483,1.635136 13.77304,0.712372 9.124756,5.511671 -1.95297,1.838327 -5.275405,2.865702 -8.083786,2.939558 M 176.04956,80.159718 c 0.56988,4.962659 1.00928,7.137132 1.10233,9.186117 M 87.862822,80.894606 c 0.595839,3.5156 0.71746,5.577014 1.102334,9.553564 m -0.495833,-4.97672 c 1.287769,-2.470796 1.004376,-2.747703 3.802836,-3.719595 5.826938,-2.02315 4.848432,5.973916 4.77678,8.696315 m 52.544601,2.572112 c 10.78046,-1.634255 8.63188,-11.345251 -1.31428,-11.429662 0.50694,6.554035 1.19524,13.090805 3.1515,19.146 m 88.34756,-22.11021 c 1.32574,2.229289 4.52924,5.571525 6.08574,6.677533 m -88.37564,-6.203097 c 1.19106,3.45067 2.8831,9.0132 4.23079,12.449658 m -3.34612,-10.074472 c 1.7108,-3.280519 5.49589,-0.882358 7.02057,0.520908 m 33.67095,6.438954 c -2.35349,0.185926 -3.35272,1.362634 -6.11259,0.787582 -4.0261,-0.838876 -1.03802,-7.092619 3.67444,-7.7777 4.55828,-0.27735 1.60519,6.882346 2.32703,10.472172 0.83924,4.028665 1.32023,7.970612 -0.12236,12.125682 -1.58773,4.57321 -5.86956,5.94856 -9.55356,2.87819 -1.06669,-0.88885 -1.78395,-1.56789 -2.93956,-2.51075 M 169.803,84.569055 c 0,2.142202 0.25243,3.689143 0.36744,5.144224 m 55.11671,-4.77678 -4.40934,13.595454 M 102.47268,86.488191 c 1.6868,-0.707726 6.99799,-1.323385 9.27405,0.652976 m 123.09399,79.368063 c -3.97959,-7.92029 -13.10358,3.57325 -8.08379,4.71542 4.66806,1.06213 20.03129,6.07007 12.12568,10.28845 -2.98586,1.49293 -8.14331,-0.44975 -10.28846,-2.1433 m 311.22569,-11.75823 c 0,0 0.83962,14.76667 5.69537,18.9234 -9.11344,11.92422 -13.98752,-5.48284 -3.12327,-6.06284 M 374.2741,178.8387 c 4.6047,-1.53205 4.15911,-2.56354 6.50462,-5.71546 1.57634,-2.0757 3.51279,-4.86277 6.1841,-5.14423 m -129.34053,1.10233 c 0.2387,4.24475 5.57338,10.69527 0.73489,12.92193 -2.91343,0.87547 -4.99509,-4.45469 -5.45031,-5.94048 -0.56329,-1.93018 0.25758,-3.50799 -0.42881,-5.87911 m 69.81448,13.9629 c 3.45912,-0.54602 5.58922,-0.1422 8.81867,-2.14331 0.88887,-0.55116 2.08711,-1.53371 1.6535,-2.63347 -2.17206,-4.684 -11.35506,-2.63818 -13.41171,-4.16425 -2.92744,-2.29323 3.36248,-5.75676 5.51167,-5.75676 m -80.47039,0.36744 c 0.63605,3.45325 0.77457,7.40953 2.08231,10.6559 0.38324,0.95168 0.67242,2.57211 1.95958,2.57211 3.16326,-0.83277 3.24347,-4.72275 4.46986,-7.27545 m 27.86527,6.17312 c -17.53509,7.99154 -10.3478,-12.40749 -6.43028,-9.73728 2.02426,1.37974 1.66212,2.66077 0.79626,3.85816 -0.94786,1.31079 -4.29101,1.23289 -5.61418,1.72049 m 65.99745,-6.86471 c 3.19354,3.83421 4.84724,8.41652 8.0838,11.75823 m -58.29187,-4.67087 c 1.98946,-1.0143 8.97495,-1.50123 5.74727,-6.29111 -0.96234,-1.42812 -3.50433,0.83042 -4.22561,1.83722 -2.40075,3.18491 -1.60018,8.73147 0.1837,9.73729 1.849,1.25923 5.14644,-0.51663 6.61401,-0.97998 m 70.88149,-2.82072 c -0.55924,1.15084 -5.27114,5.76106 -6.94611,5.27048 -7.33926,-2.14959 -0.10588,-23.83656 6.41236,-6.21499 l 3.50865,5.23501 m 42.25616,4.04189 c 3.68546,0.67868 10.10471,-1.66489 11.75822,-6.24655 2.09355,-6.20134 -8.00069,-3.36229 -11.39078,-3.30701 -1.17583,-0.0162 -2.23038,-0.35275 -1.71598,-1.83722 1.30657,-1.64431 4.42678,-3.76487 6.12531,-4.40934 m -111.76381,11.52266 c 1.26732,-0.0353 5.59655,-0.758 6.67463,-1.35657 1.92063,-1.06705 3.84053,-3.31765 4.04187,-5.38931 0.16795,-1.72662 -0.98218,-3.32133 -2.93953,-3.91953 -1.2813,-0.39134 -1.83614,-0.36744 -2.93957,-0.36744 -1.64653,0 -6.531,1.95802 -6.531,1.95802 -0.768,6.59813 2.90267,10.61908 4.69377,15.92441 m 65.10562,-18.9316 c 2.26907,5.05998 3.83262,7.81215 5.44376,12.68504 m 111.70322,-9.18612 -0.36744,2.93956 m -47.76783,-1.46978 c 1.44105,2.11458 4.40934,11.88059 4.40934,11.88059 0,0 5.89382,-1.59214 8.08377,-1.59214 m 50.33994,-10.28845 c 3.62056,3.83226 5.13737,9.49476 8.45124,13.22801 M 345.44156,176.79768 c -3.70252,-0.65187 -5.80005,-0.37535 -9.55355,0 m 42.0923,0.18588 c 1.92542,1.52049 4.09917,2.57547 6.04294,4.95835 m 65.77262,-4.04189 1.46977,0.36744 m 17.63737,10.6559 c -1.62539,-3.45787 -3.24149,-5.29051 -5.87913,-8.08378 m 2.99705,3.33509 c 0.0735,-0.74335 1.75034,-3.36522 2.26844,-4.06998 0.60628,-0.82418 1.46244,-1.2879 2.45085,-1.04097 3.08653,0.77089 4.41992,4.00219 5.14423,6.55264 1.14018,-2.55011 0.88554,-5.56202 4.40934,-6.73637 3.16003,-1.05383 5.49329,6.48062 5.87911,8.57359 m -83.40997,-4.40934 c -2.24507,1.00386 -6.97041,3.95151 -10.28844,2.8782 -5.77979,-3.55177 3.58176,-14.76017 6.91899,-13.35037 3.04214,4.51215 -6.23849,7.7514 -8.12944,7.42891 m 128.87828,5.24058 c 2.5317,0 7.60503,-0.58918 6.08207,-2.93221 -2.35059,-3.61635 -6.0692,1.33337 -6.614,4.40934 -0.24988,1.56605 -0.13598,4.16131 1.8372,4.65442 2.07239,0.51773 3.25189,0.31601 5.14424,-0.18372 1.75637,-0.46335 3.10122,-0.87746 4.40933,-1.53114 m -14.69778,-6.61401 c -4.9449,0.0532 -10.48537,0.8292 -14.33034,1.10234 m -47.7782,-1.17322 2.94993,4.84766 m 18.73968,-2.20466 0.38516,3.00007 m 16.28812,-5.66308 c 0.62466,1.48227 1.90841,4.91214 2.43384,6.33746 m -272.64398,4.04189 c 3.36738,4.83274 4.44342,13.51445 6.61401,18.00479 m 4.40934,-14.33035 c 1.81297,-0.66801 4.6129,-3.17068 6.55264,-1.34742 2.45857,2.31123 -2.52398,7.60721 -3.52236,8.56666 2.35309,0.28702 11.38604,1.27829 10.93262,4.90644 -0.20835,1.66673 -2.10546,3.17325 -3.67445,3.67445 -1.74242,0.55668 -2.39942,-0.32409 -4.04189,-0.36745 m 313.06291,-15.43268 c 3.05823,4.56585 6.36287,9.08397 8.45121,14.69779 M 251.00828,198.10948 c 3.04013,3.32033 3.65966,7.6013 5.51168,11.39078 m 55.83415,0.81192 c 2.84144,-1.30223 8.70566,-4.94677 7.36632,-8.16081 -0.97631,-2.34356 -2.98696,-3.6039 -5.14423,-3.18464 -1.49328,0.29028 -6.30792,2.8172 -6.30792,2.8172 0,0 5.08493,9.88841 6.67538,13.9629 M 280.7713,199.21181 c 4.16054,3.22913 7.15966,7.58654 10.28845,11.75823 m 272.76934,-14.54228 c 0,0 6.81226,13.01066 8.32587,17.1144 M 270.8503,213.05235 c -8.78587,1.74839 -7.23266,-11.55416 -2.57212,-12.55448 9.83791,-1.17353 9.91271,9.32155 2.57212,12.55448 z m 87.81927,-1.34742 c 1.39555,0.99174 3.45289,1.26695 5.14423,1.10234 2.28037,-0.22157 7.15415,-3.11851 5.02298,-6.24656 -2.67721,-3.92835 -8.48505,0.24986 -11.57561,-2.02095 -0.6592,-0.48429 -0.40125,-1.34632 0.061,-1.95958 1.63586,-2.16903 2.98953,-2.77568 5.75674,-2.26603 m -12.86054,10.28845 c -2.05735,0.75804 -4.73197,1.921 -6.98147,2.32703 -2.34136,0.42293 -4.44718,-1.55797 -3.98053,-3.79681 0.49101,-2.23608 5.8279,-11.69948 7.8387,-8.02242 2.14316,3.9191 -5.2936,5.7943 -7.24708,6.2987 m 34.98916,-6.36006 c 1.03992,3.5811 3.52709,6.88127 5.51167,9.55356 m 0.12035,-5.02988 c -1.54693,1.09829 -6.73435,2.82521 -6.73435,2.82521 m 67.98158,3.88628 c 1.40733,-1.40585 1.65287,-1.68859 3.30271,-2.47786 5.31727,-2.40277 2.8277,-8.69324 -1.83724,-8.57359 -2.56885,0.18589 -6.24657,2.38839 -6.24657,2.38839 2.28181,4.49548 4.84341,8.78239 7.66456,12.94715 m 48.92195,-13.68204 c -1.2493,-1.71082 -3.92797,-2.04961 -4.40934,1.10233 -0.2095,4.23923 2.92193,4.8755 5.87911,4.4707 2.13853,-0.29726 7.03659,-0.6162 8.26751,1.77587 0.73123,1.42274 -0.66873,2.24839 -1.6535,2.87819 -2.60518,1.66379 -5.55943,1.9526 -7.71634,2.63348 m 41.8887,-0.73489 c -2.23039,0.64523 -7.48116,1.07624 -9.12364,-0.79626 -0.67612,-0.76759 -1.26768,-3.69392 -1.96215,-5.08286 -0.63203,-1.26621 -3.08654,-4.63789 -2.3884,-5.87912 0.76796,-1.36028 5.44553,-1.87617 7.22764,-2.20466 m -205.40162,5.14422 c 1.55796,-0.46298 1.12694,-2.27264 2.93957,-3.55209 2.13668,-1.50799 4.15872,-1.149 6.24654,-0.4898 m 181.15027,12.49312 c -1.09285,-2.81148 -5.43183,-9.54754 -4.70959,-12.27698 m 107.33478,0.15561 c -1.42937,-0.41337 -4.54316,-0.68187 -6.35468,0.91431 0.77899,2.57725 1.18319,5.47309 1.89971,5.87911 12.65187,-2.37708 15.00345,7.12691 2.14219,6.43029 M 504.17771,202.15137 c 4.23018,1.65226 6.28771,-1.13259 10.28844,0 m 66.50749,12.86057 c -4.04188,0.39279 -7.11739,-4.67317 -6.12529,-8.08379 0.45929,-1.56935 1.02884,-3.81518 4.83925,-3.85817 6.4206,1.61557 10.4614,10.78746 1.28604,11.94196 z m -116.47996,0.36744 c -0.78266,-0.11942 -1.21257,-0.44387 -1.77476,-1.10233 -2.55348,-2.77523 -5.57415,-9.43121 -5.57415,-9.43121 3.80749,-12.26858 31.37298,6.4491 7.34891,10.53354 z m -72.01919,-2.57211 c 2.70808,0.0375 6.37149,-0.95536 8.45124,-3.30701 1.1795,-1.33456 0.64668,-3.15782 -0.7349,-4.04189 -9.38514,-7.83915 -14.8372,7.05435 -7.71634,7.3489 z m 242.51352,5.38931 c -8.9768,0.16366 -5.80398,-13.08285 -0.36743,-14.45307 9.13019,-2.30117 7.13433,14.3297 0.36743,14.45307 z M 407.40586,207.31294 c 1.70495,-2.15948 6.95363,-4.18086 9.31998,-2.4671 2.84769,2.06394 4.16683,6.48687 4.77678,9.79865 m -16.53502,-9.55356 c 3.15232,2.40742 4.13249,4.99081 6.61401,7.71634 m 235.53208,-3.67445 c 2.36798,-2.9656 11.74617,-8.09062 12.96929,-2.96029 0.68816,6.44624 -4.76983,10.24567 -6.47197,14.84256 3.27399,-0.74994 7.53539,-3.0636 11.14003,-3.0636 M 323.9006,203.77235 c 1.91034,2.34135 6.27327,7.12494 9.04784,10.13725 m 192.00978,-3.90013 c 1.92735,-0.17087 4.79731,-2.07819 6.41038,-1.61154 m 62.21943,1.83723 c 2.22099,-1.8397 4.84647,-1.37817 7.59509,-1.46979 m 67.24238,1.46979 c 4.43249,0.53495 10.96087,-0.36745 10.96087,-0.36745 0,0 0.42991,7.36356 0.42991,11.02334 M 445.57239,209.47431 c 1.4955,1.06375 3.21669,0.21225 5.32581,1.31201 1.07293,0.56035 1.94378,2.44094 2.57211,3.12328 m -223.40638,29.02814 -6.33842,-16.32061 c 16.39528,-2.50381 23.80707,8.20288 6.33842,16.32061 z m 121.6242,-2.20467 c -3.37794,-3.90434 -5.38733,-7.56883 -7.4358,-12.37878 m 28.38015,-0.48179 -3.24453,5.51167 c -1.81356,2.89952 -3.32238,9.07074 -5.94158,9.55357 m -24.61882,-13.59546 5.9485,-1.06354 6.54464,-1.14113 m -90.02395,2.20467 c 3.34632,3.34632 4.81903,8.61254 7.71634,11.75823 m 90.07626,-12.91288 c 5.76597,4.61174 8.9671,7.7836 13.91057,12.54544 m -76.42849,-4.04189 c -7.73376,17.51713 -13.78954,-8.7964 -3.12327,-5.32795 3.58683,1.16636 3.27944,3.92173 3.12327,5.32795 z m -23.51645,-6.61401 c 2.92155,2.93633 4.61683,6.71152 6.614,10.28845 m 136.98343,-8.51175 c 0,0 -3.71704,-0.37739 -5.43823,0.24425 0.67841,1.91166 1.48826,6.25085 2.93957,6.73636 0.85982,0.22782 1.53591,-0.36855 2.20467,-0.79589 2.30754,-1.47565 4.95314,-2.09994 6.91896,0.18373 1.25666,1.45471 -1.28973,5.75418 -2.50963,6.85872 -1.76742,1.6028 -4.30279,1.35881 -6.24657,0.79625 m 15.80012,-8.45122 c -0.0458,-4.53376 7.01264,-8.34485 8.63497,-5.87912 1.22566,3.40631 -3.58446,9.97982 -4.47181,13.22801 1.26335,1.65884 8.21459,-1.2296 11.26952,-1.10234 M 310.16686,230.81206 c -3.81542,0.68277 -7.80943,7.66973 -0.73487,6.30792 2.47695,-0.48172 4.68784,-1.48006 6.98144,0.36745 4.4189,3.55943 -2.9109,6.72203 -5.51167,8.02242 m -56.58647,-8.08378 c -1.86846,1.91916 -3.0509,4.89436 -6.61401,5.38931 -1.36799,0.18997 -3.23094,-0.81022 -3.85817,-2.08231 1.3969,-7.97139 8.25555,-15.33679 10.28845,-3.67445 1.22135,3.43674 3.59496,6.25199 5.32795,5.14423 M 391.37216,231.9144 c 4.31924,0.0558 7.87196,-0.16371 11.94194,1.10233 l 2.02097,9.92101 m 55.8516,-9.18612 c 0.26823,2.54896 1.61674,4.39794 2.69336,6.98145 0.69814,1.67297 1.48449,3.61602 2.08342,5.51167 m -17.26992,-11.39079 c 0.87821,1.45067 1.34485,5.75896 3.30701,6.1852 3.21311,-0.37129 8.3483,-1.05577 10.58803,-3.13865 m 17.33778,11.10007 c -2.38473,1.06008 -5.11852,0.72461 -6.30904,-1.6535 -5.35453,-15.7878 22.82127,-6.85556 6.30904,1.6535 z m -183.35493,-12.5083 3.307,7.18035 m 25.72112,-0.73488 -0.36743,8.45122"
       id="path177"
       sodipodi:nodetypes="cccccccccccccccsccccccccccccsscccccccccsccscccccccccccccccccccscccccccccsccscccccccccccccccccccccccccccccccccccccccccccccccccccccccccccscccccccccccccccccccccccccccccccccccccccccccccccccccccccscccsccccccccccsccccscccccccccccccccccccsccscccccccccsccccccccccccccccccccccssccccsccccscccccccccccsccccccccccccccccccccccccccccccscccccccccccccccccscccccccccccccccccccccscccccsccccccccccccccccccccccccccccccccccccccccccccssscccccccccccccccccccccccccccccccccccccsccccccccccccccccscccccccccccccccccccccc" />
  </g>
</svg>
