<?xml version="1.0" encoding="UTF-8" standalone="no"?>
<!-- Created with Inkscape (http://www.inkscape.org/) -->

<svg
   width="3000"
   height="1998.207"
   viewBox="0 0 793.74998 528.69227"
   version="1.1"
   id="svg5"
   xml:space="preserve"
   inkscape:version="1.2.1 (9c6d41e410, 2022-07-14)"
   sodipodi:docname="RonaldW - Stake - Envelope17.svg"
   xmlns:inkscape="http://www.inkscape.org/namespaces/inkscape"
   xmlns:sodipodi="http://sodipodi.sourceforge.net/DTD/sodipodi-0.dtd"
   xmlns="http://www.w3.org/2000/svg"
   xmlns:svg="http://www.w3.org/2000/svg"><sodipodi:namedview
     id="namedview7"
     pagecolor="#ffffff"
     bordercolor="#000000"
     borderopacity="0.25"
     inkscape:showpageshadow="2"
     inkscape:pageopacity="0.0"
     inkscape:pagecheckerboard="0"
     inkscape:deskcolor="#d1d1d1"
     inkscape:document-units="px"
     showgrid="false"
     inkscape:zoom="0.46769781"
     inkscape:cx="-2376.5345"
     inkscape:cy="1327.7804"
     inkscape:window-width="1366"
     inkscape:window-height="705"
     inkscape:window-x="-8"
     inkscape:window-y="61"
     inkscape:window-maximized="1"
     inkscape:current-layer="svg5" /><defs
     id="defs2" /><path
     style="fill:none;stroke:#545063;stroke-width:0.0898371"
     d="m 62.896986,1.8693688 0.877852,2.1055356 c 0.117651,0.2822108 0.296491,0.5918216 0.409762,0.7692521 0.1025,0.1604404 0.19306,0.2374006 0.26953,0.4491912 0.0514,0.1421103 0.119661,0.2955907 0.0749,0.4491811 -0.0603,0.2066906 -0.19145,0.2744608 -0.374341,0.4192312 -0.497881,0.394151 -1.210563,0.5838715 -1.886595,0.4791412 -0.901232,-0.1396303 -0.1762,-1.7245145 0.232371,-1.9424551 l 1.243923,-0.6635218 m 0.769642,-1.7062045 0.449192,0.1796705 m -33.77876,1.0780528 c -0.0718,-0.1185703 -0.15542,-0.3145208 -0.22458,-0.4491912 -0.0663,-0.1290803 -0.187941,-0.4192311 -0.404272,-0.4192311 -0.411901,0 -0.518301,0.1605005 -0.910062,0.8624023 -0.423361,0.758582 -0.517821,1.0095727 -0.602162,1.4434138 -0.0492,0.2531107 0.0191,0.362021 0.134741,0.5390215 0.285881,0.4379111 0.687342,0.8014421 1.197803,0.8085321 0.708992,0.01 1.012033,-0.0119 1.527224,-0.2695107 M 2.7959367,7.0799227 c 0.2104206,0.0609 1.4479038,0.1942005 1.7967548,0.1796704 C 4.9538224,7.2445931 5.2919733,7.0641626 5.5809141,6.840362 5.8398248,6.6397815 6.0831954,6.4103109 6.0150952,6.0018798 5.9682951,5.720739 5.8447848,5.6268288 5.6707243,5.4628484 5.3517935,5.1623976 4.5518214,4.7027464 4.05366,4.6543162 3.5207886,4.6025161 3.3263881,4.6762163 2.8857769,4.7741065 2.2822953,4.9082169 1.1515423,5.0798274 1.403473,4.205135 c 0,0 0.0214,-1.151793 0.4217711,-1.4643038 0.2717108,-0.2120706 0.7090819,-0.1528805 1.0334128,-0.0362 0.1997005,0.0718 0.4763112,0.4224811 0.4763112,0.4224811 M 51.218145,3.5762934 c -0.004,-0.1597805 -0.0378,-0.732992 -0.449191,-0.5839416 -0.152,0.0551 -0.374951,0.3928911 -0.628872,0.9432925 -0.31249,0.6774118 -0.329421,0.8085522 -0.359341,1.1678831 -0.0624,0.748762 -0.0899,1.8266649 0.988213,1.9913853 0.817882,0.1249603 1.812645,-1.0604128 2.335766,-1.5422041 m 18.596269,0.9882126 c 0.716092,0.4333912 1.226814,0.2825208 1.886575,-0.0749 0.399422,-0.2163605 1.077783,-0.7971821 0.883373,-1.3625236 -0.164581,-0.4787613 -1.312884,-0.6744318 -1.781735,-0.6288617 -0.256761,0.025 -0.746642,0.1539205 -0.943292,-0.1048002 -0.0405,-0.0533 -0.084,-0.2910408 -0.0599,-0.3443809 0.0852,-0.1887905 0.160181,-0.1733005 0.374351,-0.374321 0.383151,-0.359591 0.464182,-0.6056016 0.898363,-0.4342212 M 22.39726,4.7093466 c 0.0296,0.0876 0.662952,0.0207 0.836752,-0.0968 0.385421,-0.2606707 1.626974,-1.0861829 0.794702,-1.0764828 l -0.395151,0.005 c -0.978712,0.0114 -1.129143,0.7105919 -1.322123,1.5986542 -0.0469,0.1876305 -0.0931,0.4721313 -0.110671,0.6828818 -0.0259,0.3120108 0.110061,0.5237214 0.359371,0.6887418 0.528672,0.349951 1.657585,-0.3254108 2.156076,-0.5090713 M 20.044693,6.451461 C 19.374061,5.9220396 17.334155,5.5722087 16.852524,5.1032974 c 0,0 0.800062,-0.2871307 1.205753,-0.4133711 0.359621,-0.1119003 1.720655,-1.151513 2.055786,-1.3233935 m 18.616729,-0.0594 -1.204093,0.5034113 c -0.760532,0.3179708 0.12939,0.7834221 0.665082,0.6495017 0.25433,-0.0636 0.30141,-0.1454104 0.449191,-0.1946605 0.0786,-0.0262 0.511351,-0.1282203 0.628852,-0.1347504 0.439201,-0.0244 0.905302,0.2090706 1.257723,0.4941013 0.254241,0.2056406 0.424301,0.5307815 0.16466,0.8384923 -0.13034,0.1545204 -0.26464,0.1973605 -0.434171,0.2844707 -0.19514,0.1002703 -0.316581,0.1963205 -0.539031,0.2395807 -0.284061,0.0552 -0.482772,0.0309 -0.718692,-0.015 -0.267081,-0.0519 -0.611252,-0.0531 -0.898373,0.03 M 58.247574,5.1804376 c 0.429681,-0.0113 1.355783,-0.4774512 1.849435,-1.0647428 0.12965,-0.1542104 0.304111,-0.4848513 0.23961,-0.6138916 -0.0958,-0.1917405 -0.22343,-0.1524104 -0.404271,-0.1197703 -0.442611,0.0799 -0.815712,0.3174608 -1.063033,0.5689615 -0.19135,0.1945005 -0.22937,0.3654409 -0.32945,0.6138916 -0.111561,0.2773207 -0.198761,0.4213211 -0.254041,0.5570315 -0.0705,0.1729904 -0.11355,0.2283006 -0.15022,0.4311711 -0.0718,0.3974211 0.0372,0.9682826 0.628871,1.1080029 0.273271,0.0645 0.667042,-0.1110403 0.898373,-0.2395806 0.593381,-0.3296409 1.146133,-0.6939518 1.706884,-1.0480928 m 6.558117,-2.0662554 c 0,0 0.565612,0.5588714 0.763612,0.8983723 0.0803,0.1377604 0.164681,0.4491912 0.164681,0.4491912 0.253441,0.6912119 0.365051,0.9967227 0.778612,1.6170643 M 6.5691267,3.4868431 c 0,0 0.2421206,0.1572204 0.3349209,0.2652507 0.4808713,0.5597415 1.0971829,1.9228051 1.0971829,1.9228051 0.0959,0.1887905 0.1163603,0.4088511 0.2748007,0.9562326 M 55.413096,6.2093703 C 55.055075,5.8795895 54.813255,5.3711381 54.452304,5.0440173 54.289673,4.8966969 54.150963,4.7487865 54.122853,4.564886 54.078253,4.2723652 54.500434,4.0268946 54.901465,3.9210543 55.406986,3.7876639 55.903618,3.7286838 56.428719,3.5766734 M 15.950382,3.3184527 c 0.419901,0.6331717 0.412701,1.0215427 0.665492,1.6057842 0.26538,0.6162117 0.595791,0.9619126 0.733691,1.6170643 M 41.8571,3.3597728 c 0.314321,0.4594212 0.707892,1.7128345 0.736702,2.2211359 0.139471,-0.2925808 0.273551,-0.6782918 0.539032,-0.8663023 0.445391,-0.3154909 1.509424,-1.1522231 2.156065,-0.9432925 0.458262,0.1480504 0.407322,0.7141619 0.509112,1.0630828 0.11095,0.380601 0.11707,0.7348319 0.299421,1.1678831 M 13.890956,5.6519289 C 13.689726,5.8531994 13.477335,6.07242 13.127234,6.2717905 12.634753,6.5522413 11.792251,7.1675229 11.150829,6.8557321 9.8021653,5.4160882 11.48542,3.2861026 13.231595,3.6686236 c 0.441191,0.1307104 0.449671,1.1657731 0.449671,1.1657731 l 0.20958,0.8085321 c 0,0 0.195551,0.4140511 0.326241,0.5930416 0.153641,0.2104306 0.266751,0.5810716 0.527222,0.5748415 M 36.177855,5.7447991 C 36.031175,5.4661284 35.562454,4.1091048 35.367063,3.9617144 M 35.523034,4.187735 C 35.334213,4.0452746 35.221373,4.0162345 35.009292,4.0026245 c -0.455481,-0.0292 -0.723222,-0.1757005 -1.174623,0.0727 -0.11539,0.0635 -0.275261,0.1465704 -0.404241,0.2591407 -0.265581,0.2316206 -0.454871,0.8978624 -0.419291,1.2185832 0.0209,0.1880205 -0.003,0.2951408 0.14976,0.4192411 0.424941,0.3443609 1.790355,-0.0942 2.156096,-0.4192411 0.225321,-0.2002405 0.369861,-0.369831 0.539031,-0.5390214 M 6.7990073,5.5717187 c 0.3431409,-0.0676 0.5026113,-0.4472612 0.8644523,-0.5002114 0.6241617,-0.2304206 0.7846421,-0.2054305 1.4380738,-0.061 M 65.861594,4.564876 c 0.307521,0.4869613 0.321271,0.5744515 0.539031,0.9882026 m 1.527224,-0.7186919 0.993873,-0.1407704 c 0.480071,-0.068 0.663102,-0.2185806 1.341884,-0.2185806 M 8.0963507,5.3734081 v 0 M 60.925261,13.37321 c -0.241391,0 -0.618212,0.1689 -1.082753,0.17537 -0.224221,0.003 -0.775932,-0.1074 -0.943502,-0.203681 m 2.560566,2.000426 c -0.15317,-0.306431 -0.416101,-1.206963 -0.464181,-1.437394 -0.034,-0.1635 -0.0812,-0.325391 -0.11974,-0.539021 -0.0666,-0.368871 -0.10367,-0.269871 -0.209611,-0.718702 -0.0856,-0.362491 -0.25468,-0.827573 -0.434261,-1.167873 -0.386291,-0.732002 -0.326191,-1.438834 -1.018123,-1.8865857 -0.0401,0.0563 -0.15139,0.2204606 -0.17968,0.359351 -0.0255,0.1247807 -0.0756,0.3034707 -0.0898,0.4491817 -0.0731,0.752122 0,1.457524 0,2.156095 v 0.359351 c 0,0.182361 -0.214371,1.024183 -0.157401,1.286934 l -0.0759,0.850942 -0.0458,0.557231 M 1.4484631,9.9551003 c 0.375641,-0.1582005 0.8770824,0.01 1.2577134,0.1048407 0.2689507,0.0672 0.4886113,0.0272 0.7907421,0.0566 0.8546522,0.0831 1.9762852,-0.3809213 2.0662554,1.167883 0.347651,1.234263 0.1974806,2.506967 0.1974806,3.342179 M 1.3586129,9.9550803 h 0.0899 m 40.9656891,0 0.359341,0.5390217 M 20.583814,14.896114 20.032433,13.5468 c 0,0 -0.272761,-0.963093 -0.436842,-1.435634 -0.24258,-0.698682 -0.533521,-1.424764 -0.699941,-2.1688158 -0.0329,-0.1468504 -0.108591,-0.4364511 -0.108591,-0.4364511 0.543162,-0.2286806 1.916495,-0.3029308 2.500427,-0.0449 0.12822,0.0566 0.0926,0.1868605 0.10484,0.2245906 m 26.861301,0.7186923 c -0.507761,-0.360781 -1.097093,-0.0334 -1.706914,0.25451 -0.244801,0.115621 -0.916783,0.350451 -0.916783,0.350451 0,0 0.420381,1.622655 0.746032,2.013876 0.512122,0.615211 0.825343,1.382423 1.608185,2.232366 m 0.359341,-2.335757 c -0.427542,-0.0788 -0.727602,-0.16082 -1.203504,-0.2249 -0.25756,0.0143 -0.30907,-0.139251 -0.875552,-0.004 0,0 -0.671842,0.0708 -0.960412,0.22904 -0.188801,0.103521 -0.464192,0.449192 -0.464192,0.449192 m 8.085312,-2.695118 c -0.967543,-0.20366 -2.214566,-0.428431 -2.904688,0.628862 -0.0973,0.14904 -0.14721,0.286941 -0.14976,0.449181 -0.005,0.346331 0.32413,0.628502 0.494111,0.898373 0.19825,0.601801 0.744992,0.936422 1.122983,1.617074 0.229521,0.403181 0.593371,1.024053 0.808532,1.257713 M 28.938656,14.626773 c -0.630222,-0.447291 -0.820402,-1.044623 -1.257723,-1.617064 -0.166821,-0.218391 -0.191631,-0.234291 -0.194681,-0.449182 -0.003,-0.21148 0.123171,-1.013272 0.314421,-1.257723 0.640462,-0.818322 1.890445,-0.827132 2.575367,-0.628862 m 9.432905,3.50365 c -0.679532,0.536421 -2.703307,2.049905 -2.784947,0.0898 -0.0232,-0.557622 -0.0693,-1.245593 0.015,-1.796745 0.0345,-0.22603 0.0345,-0.398871 0.10474,-0.628862 0.0703,-0.23007 0.18597,-0.397611 0.314421,-0.628851 0.12129,-0.218221 0.17752,-0.482341 0.374371,-0.583942 0.27139,-0.14006 0.520411,0.251091 0.718692,0.494102 M 8.2761212,10.913453 c 0.754212,-0.0112 1.6194143,0.756182 1.9764158,1.377474 0.19206,0.349641 0.1901,0.841952 0.10484,1.078043 -0.062,0.17159 -0.15338,0.30778 -0.284531,0.449181 -0.2946608,0.317671 -0.6811318,0.556541 -1.0780329,0.793532 -0.1720704,0.10278 -0.3317209,0.24939 -0.5390314,0.269511 -1.3049635,0.12694 -0.7944021,-2.027176 -0.7037219,-2.680108 0.0344,-0.24759 0.0938,-0.633441 0.1647105,-0.898372 0.0494,-0.18461 0.0809,-0.357911 0.3593509,-0.389261 m 6.2885868,-0.0599 v 1.078043 c 0,0.14967 0.0181,0.22612 0.0599,0.359351 0.0921,0.29251 0.0309,0.603691 0.164681,0.943292 l 0.583931,1.482304 m -0.616121,-1.552694 c -0.310831,0.12394 -0.463472,0.12097 -1.090793,0.519571 -0.509542,0.323771 -0.906473,0.549892 -1.347564,0.464192 -0.22343,-0.0435 -0.449651,-0.0877 -0.598951,-0.254601 C 11.58307,13.7402 11.5111,13.58676 11.42037,13.36899 c -0.176531,-0.423582 0.0262,-0.870883 0.14976,-1.257714 0.143471,-0.449281 0.559502,-1.042833 0.928273,-1.272723 0.436531,-0.272031 0.606691,-0.274101 0.988222,-0.344351 m 56.238039,1.167883 c 0.338411,0.428611 0.329271,0.735542 0.543512,1.089503 0.340401,-0.349561 0.15257,-0.646772 0.893872,-1.538684 0.671072,-0.807382 1.463724,0.0433 1.736825,0.898372 0.052,0.162871 0.383001,1.062433 0.389311,1.108003 0.0343,0.247761 -0.03,0.868402 -0.03,0.868402 l 0.0599,0.539032 m -32.610857,-3.68332 0.284511,0.539022 0.13476,0.718691 0.374241,1.437394 0.284531,0.898373 M 23.744402,13.52185 c 0.407191,-0.0145 1.904875,-0.762762 2.109796,-1.141073 0.15254,-0.281721 0.10339,-0.661012 -0.329451,-0.703692 -0.485471,-0.0479 -0.764962,0.412081 -1.003213,0.703692 -0.460571,0.563911 -0.867642,1.122123 -1.063042,1.751825 -0.229211,0.738751 -0.0946,1.156833 0.718722,1.122963 0.770082,-0.0321 1.622794,-0.901243 2.245915,-1.212794 0.231331,-0.11571 0.351881,-0.12748 0.628852,-0.13476 m 37.012888,-2.245926 c 0.849302,0.245881 0.843882,1.567954 0.583932,2.245926 -0.310101,0.808792 -0.375771,1.472074 -0.943273,1.751825 -0.317051,0.15631 -0.577031,-0.126851 -0.688802,-0.404271 -0.2792,-0.693362 -0.523211,-1.366694 -0.643771,-2.156086 -0.0641,-0.419631 -0.0286,-0.683392 -0.194681,-1.078043 m -42.529032,0.217871 0.754802,0.0366 1.706914,-0.164671 m 10.780439,2.964628 c -0.0952,-0.258371 -0.238331,-0.664172 -0.329421,-0.898372 -0.0738,-0.189741 -0.0933,-0.325211 -0.149691,-0.539022 -0.0598,-0.22675 -0.1175,-0.842132 -0.0749,-0.988212 0.0567,-0.194321 0.145641,-0.251271 0.314431,-0.449182 0.197741,-0.23178 0.360971,-0.30087 0.598952,-0.25451 0.18821,0.0366 0.30347,0.11742 0.434181,0.25451 0.599031,0.628502 1.493284,2.164716 1.542224,2.784948 m 43.301475,-2.964628 c -0.0657,0.356661 0.003,0.751762 -0.134751,0.973213 -0.16198,0.26097 -0.280561,0.1856 -0.419271,0.374351 -0.0785,0.10699 -0.227021,0.33482 -0.314431,0.449181 -0.342281,0.448111 -1.116133,1.437664 -1.736814,1.122963 -0.218041,-0.110591 -0.333301,-0.292241 -0.434192,-0.494102 -0.22213,-0.761292 -0.415431,-1.616204 -0.37434,-2.335766 m 11.229629,1.796745 c -0.374351,0.236451 -0.460141,0.289091 -0.808532,0.434181 -0.594001,0.247501 -1.628834,0.692462 -2.245926,1.018213 -0.380281,0.2007 -0.782662,0.381721 -1.167883,0.494101 -0.446401,0.13018 -0.924962,0.172041 -1.257723,-0.0898 -0.280561,-0.220821 -0.207881,-0.585282 -0.119751,-0.958293 0.0622,-0.2634 0.376311,-0.709752 0.531822,-0.958602 0.308241,-0.493212 0.372211,-0.586502 0.875562,-1.287324 0.253511,-0.30299 0.876002,-0.885432 1.227803,-0.853452 l 0.494112,0.0449 c 1.075243,0.0977 0.507131,0.926223 -0.0449,1.332554 -0.234571,0.17267 -0.470482,0.20187 -0.718702,0.329431 -0.229351,0.11787 -0.389541,0.16279 -0.622492,0.2502 -0.449901,0.168721 -0.903382,0.363511 -1.377164,0.431281 m -49.09903,-1.741214 0.304901,0.512211 m 11.17564,-0.395761 c 0.10115,0.240221 0.11022,0.655722 0.20959,0.793532 0.132701,0.183981 0.197381,0.823842 0.314421,1.036483 m -16.973225,-1.659754 0.494411,0.14447 m 42.726234,-0.0452 0.0898,0.898372 0.269531,1.527224 M 49.601101,13.279159 c 0.395101,-0.28074 0.447001,-0.22459 0.808512,-0.22459 h 0.673792 c 0.368411,-0.0449 1.614094,0.008 2.200996,0.22459 m 25.190206,-0.576051 c 0.0543,0.586081 0.144671,1.120283 0.413371,1.564264 m -18.001547,-0.897602 0.662992,-7.6e-4 m 8.175181,0.449181 c -0.26054,0.449991 -0.314351,0.459431 -0.658772,0.898372 -0.1398,0.178151 -0.25307,0.213991 -0.419291,0.329431 -0.23571,0.16368 -0.606921,0.449901 -0.898352,0.539021 -0.244721,0.0747 -0.557181,0.0474 -0.808532,-0.10484 -0.246711,-0.1494 -0.458681,-0.560061 -0.568952,-0.763612 -0.21936,-0.404911 -0.16349,-0.368971 -0.10484,-0.763622 0.13789,-0.927822 0.1613,-1.095503 0.688792,-1.751825 0.14347,-0.18129 0.275441,-0.3156 0.434191,-0.419271 0.254151,-0.16584 0.612172,-0.28525 0.898352,0.0599 0.482982,0.582522 0.108071,1.074903 -0.389271,1.512234 -0.18684,0.164311 -0.3021,0.219021 -0.509081,0.299511 -0.351021,0.136461 -0.729742,0.281921 -1.114883,0.281921 m -44.522358,5.272984 c -0.900432,0.18956 -1.279463,0.780682 -1.766825,1.527234 -0.12435,0.190541 -0.19998,0.398871 -0.20961,0.628852 -0.0102,0.24355 -0.0572,0.419721 0.17969,0.613861 0.722632,0.592382 2.347447,-0.329611 3.054448,-0.643771 0.355221,-0.157931 0.430142,-0.273741 0.808533,-0.389351 0.29204,-0.0892 0.633251,-0.0778 0.717621,-0.0148 M 94.69931,18.040502 c 0.155421,0.310741 0.134751,0.359351 0.224591,0.853442 0.0593,0.554022 0.198541,1.053603 0.299161,1.482304 0.19404,0.821652 0.416841,2.241176 0.733962,2.874788 M 76.103031,18.130342 c 0.513241,0.395911 0.588902,0.686482 0.742802,1.347354 0.13448,0.577441 -0.0169,1.443434 0.245411,2.066445 m 11.948331,-3.413799 c 0.181971,0.878672 0.509002,1.732375 0.733692,2.874778 0.0392,0.20169 0.0247,0.480631 0.179681,0.613861 0.17123,0.147241 0.354671,0.006 0.524021,-0.0598 0.248661,-0.0967 1.058273,-0.466531 1.347554,-0.598951 0.410551,-0.188021 0.544471,-0.288781 0.790832,-0.341231 m -0.485101,-1.788345 c 0.32876,0.381271 0.29528,0.325381 0.397691,0.647272 0.0494,0.15434 0.074,0.848872 0.10076,1.230903 0.0483,0.689342 0.347531,1.521874 0.723042,2.272726 M 44.749898,18.310023 c -0.953172,0 -1.472824,-0.269571 -2.436956,0.508951 -1.120993,0.905212 -0.508832,1.757105 0.370681,1.647144 0.460031,-0.0575 1.416983,-0.26295 1.886565,-0.26951 0.21356,-0.003 0.32395,-0.0239 0.539031,-0.015 0.307321,0.0129 0.504421,-0.088 0.793542,0.13476 0.949383,0.731542 0.14191,1.538544 -0.613882,2.021335 -0.939242,0.600102 -1.677064,0.409021 -2.695097,0.194671 m 12.936565,-4.222341 0.17107,0.33744 M 79.427,18.310023 c -0.290891,0.736942 -2.001985,1.432893 -2.475167,1.765614 0.0484,0.640972 1.895635,1.518204 2.385337,1.917705 M 4.8622222,18.938884 c 0.0423,-0.401851 -0.0571,-0.721932 -0.6288517,-0.404261 -0.5353914,0.297451 -1.2699734,1.114213 -1.4823239,1.617054 -0.0896,0.212311 -0.4922313,0.945673 -0.5839316,1.392474 -0.0301,0.146671 0,0.299461 0,0.449191 0,0.179671 -0.0331,0.362421 0,0.539022 0.0355,0.18947 0.0966,0.382831 0.2096106,0.539021 0.1288503,0.178101 0.3016408,0.346531 0.5090813,0.419271 0.3250209,0.113951 1.0331428,-0.015 1.0331428,-0.015 0.1410804,0.198541 1.7518246,-0.943292 1.7518246,-0.943292 M 80.864394,18.399873 c 0.374101,0.502691 0.366441,0.380301 0.674132,0.576871 0.137,0.0875 1.070322,0.732772 1.302283,0.845513 0.242561,0.11796 0.633762,0.21654 0.743812,0.406191 M 70.263616,18.579543 c -0.265021,-0.086 -0.433582,0.0448 -0.494092,0.0898 -0.681461,0.507011 -1.188273,1.048842 -1.572144,1.706904 -0.0847,0.14499 -0.1971,0.401481 -0.13476,0.524021 0.10797,0.212191 0.414601,0.229351 0.673762,0.254591 0.19163,0.0186 0.2733,-0.0385 0.449191,-0.0898 0.380461,-0.11095 1.579714,-0.156051 1.976415,0.14967 0.417741,0.321891 -0.009,0.748972 -0.359341,0.958293 -0.513591,0.306701 -0.798202,0.480091 -1.257723,0.658772 -0.384691,0.14958 -0.967263,0.406871 -1.437384,0.419271 m -6.558117,-1.257714 c 0.0297,-0.30599 0.0308,-0.760742 0,-1.078052 -0.0649,-0.667392 -0.122001,-1.514115 -0.718692,-1.946496 -0.195751,-0.14185 -0.520972,-0.27382 -0.718692,-0.29943 -0.102771,-0.0133 -0.169161,-0.005 -0.269521,0.0299 -0.338871,0.11769 -0.823532,0.697141 -0.943272,0.958292 -0.0398,0.087 0.0473,1.202963 0.0674,1.377514 0.0273,0.23709 0.1572,0.958252 0.1572,0.958252 m 24.795026,-3.234128 c 0,0.622121 -0.310591,0.829692 -0.340421,1.376553 -0.0227,0.415422 -0.14173,0.878533 -0.258521,1.228714 -0.10313,0.309491 -0.16808,0.669021 -0.314431,0.988212 -0.10627,0.231961 -0.13233,0.294661 -0.2545,0.539022 M 24.505074,20.9466 c 0.559182,-0.155061 0.395691,-0.0779 0.840043,-0.225991 0.10519,-0.035 0.498481,-0.279661 0.628841,-0.359351 0.437071,-0.267081 1.120543,-0.662632 1.422384,-1.063043 0.355751,-0.471821 -0.197,-0.412981 -0.524001,-0.299421 -0.440131,0.152811 -0.955553,0.167131 -1.325054,0.626642 l -0.989262,1.230283 c -0.143941,0.178991 -0.131921,0.611602 0.427741,0.868093 0.612401,0.28074 1.860165,0.009 2.515416,-0.209591 0.411451,-0.13718 1.146953,-0.555551 1.437414,-0.793612 0.212911,-0.17447 0.418501,-0.224121 0.504191,-0.461921 m 3.089289,1.195613 c 0.0669,-0.362851 0.0898,-0.639102 0.0898,-0.988203 0,-0.21543 0.009,-0.312101 0,-0.539021 -0.0237,-0.568582 -0.15076,-1.216933 -0.628872,-1.602064 -0.22018,-0.177431 -0.443511,-0.276881 -0.718692,-0.284521 -0.25362,-0.007 -0.555031,0.0344 -0.808542,0.16467 -0.379101,0.194861 -0.625071,0.646112 -0.823532,1.003213 -0.0755,0.13593 -0.234971,0.385771 -0.272631,0.512231 m 0.0191,-0.350171 c -0.0694,0.233161 0.0117,0.702582 0.0906,1.071533 l 0.17798,0.832652 M 17.080085,18.938874 c -0.469221,0.197551 -0.837282,0.252261 -1.257714,0.718692 -0.1,0.11095 -0.28998,0.407321 -0.22459,0.524022 0.11633,0.2077 0.283891,0.10331 0.583931,0.0449 0.389371,-0.0756 2.477807,-0.481522 2.560367,0.509101 0.0365,0.437961 -0.682862,0.958293 -1.033113,1.152883 -0.576491,0.320271 -1.106993,0.557172 -1.706914,0.673782 -0.437071,0.085 -0.282901,-0.002 -0.808532,0.14976 m 19.386191,-4.961683 c 0.0406,0.193061 0.421001,1.587214 0.527722,1.907215 0.0358,0.10772 0.0752,0.226211 0.10474,0.359351 0.0539,0.242291 0.0533,0.182371 0.13477,0.449181 0.0533,0.174191 0.0438,0.394921 0.0898,0.539022 0.109961,0.344261 0.457722,0.667312 0.688792,0.898372 m 21.830408,-2.874787 c 0.634712,0.0668 0.662792,0.2305 0.930213,0.756902 M 11.66012,20.353958 c 0.0483,0.0305 0.468232,0.218761 0.658592,0.12712 0.213451,-0.10277 0.312431,-0.21219 0.449181,-0.29951 0.199701,-0.127571 1.007243,-0.596522 0.763612,-0.958203 -0.1423,-0.211301 -0.633201,-0.0902 -0.777202,0.0538 -0.17582,0.175811 -0.21091,0.167151 -0.351451,0.296891 -0.736012,0.707562 -1.301123,1.451014 -1.596364,2.149726 -0.0742,0.17221 -0.331241,0.683391 -0.239611,0.898362 0.139601,0.327281 0.594092,0.318831 0.853453,0.239601 0.27501,-0.0841 0.562031,-0.312271 0.808532,-0.449192 0.239431,-0.13304 0.332661,-0.10843 0.539031,-0.25459 0.467502,-0.331141 0.571352,-0.473531 1.078043,-0.793532 m 87.231794,-1.706905 c 0.69019,0.951143 1.14981,1.535424 0,2.605277 -0.53543,0.490061 -1.537107,1.045073 -2.245919,1.182883 -0.18955,0.0367 -0.26951,0.0799 -0.449181,0.10475 -0.459971,0.0639 -0.901962,-0.33168 -1.093323,-0.748611 -0.17698,-0.386482 -0.0476,-0.801983 0.0153,-1.257724 0.0485,-0.348211 0.141051,-0.566241 0.344081,-0.898372 0.156311,-0.255761 0.285681,-0.328441 0.434811,-0.539022 0.199441,-0.28208 0.0506,-0.451471 1.062763,-0.808532 1.079998,-0.380971 1.484098,-0.15344 1.931488,0.359351 z m 4.22236,0.449181 c 0.41504,-0.20743 0.32341,-0.21453 0.71869,-0.26951 0.45997,-0.0639 1.01606,-0.173291 1.43739,-0.284511 0.30994,-0.0817 1.02055,-0.489071 1.34755,-0.299431 0.39889,0.231601 0.31265,0.721302 0.37463,1.122963 0.1671,1.097723 -0.28479,2.035175 -0.28479,3.144298 M 7.9166703,22.981495 C 7.6494096,22.691324 7.3718288,22.260283 7.2578685,21.903452 c -0.0598,-0.18704 -0.0864,-0.331861 -0.1497304,-0.539021 -0.1113103,-0.364291 -0.4575712,-1.097993 -0.0599,-1.512224 0.4911813,-0.511622 1.8694049,-0.244271 2.5753368,-0.374351 m 41.9033911,0.14181 c 0.13202,-0.006 0.418661,-0.12744 0.684592,-0.11963 0.407761,0.012 0.803312,0.15749 0.803312,0.15749 m 11.31948,-0.17967 -0.718692,0.0898 c -0.671712,0.084 -1.002103,1.247333 -0.988193,1.572144 0.014,0.328511 -0.0314,0.242291 0.194711,0.583942 0.216221,0.326911 0.855052,0.364731 1.242723,0.359351 0.535412,-0.007 0.661292,0.0118 1.266704,-0.278111 0.353921,-0.169511 0.390541,-0.172781 0.520981,-0.520822 m -0.709702,-1.716504 c 0.341921,0.564891 0.443431,0.917682 0.718712,1.661984 0.209891,0.567462 0.310611,0.911303 0.419291,1.302634 0.14564,0.524201 0.319111,1.371633 0.419191,1.886575 0.0339,0.1742 0.0493,0.25855 0.0599,0.449191 0.0318,0.573161 0.193591,1.224113 -0.10484,1.796735 -0.17976,0.345071 -0.613032,0.588881 -0.973192,0.628861 -0.205561,0.0228 -0.445322,0 -0.718692,0 -0.418302,0 -0.728322,-0.019 -1.078063,-0.16467 -0.312081,-0.13008 -0.705222,-0.404891 -0.988193,-0.628862 -0.464821,-0.367971 -0.624752,-0.421151 -0.808532,-1.003212 m -10.613308,-5.982306 0.17713,0.681932 0.194691,0.539011 0.898372,1.437394 m 50.425471,-3.189599 c 0.20482,0.389081 0.49687,1.467064 0.58671,1.931886 0.0422,0.21381 0.0566,0.34731 0.15003,0.539021 0.18057,0.371481 0.28119,0.458981 0.31442,0.808532 0.0126,0.12667 0.0737,0.231511 0.0898,0.269511 M 47.804306,19.971907 c 0.348571,-0.1424 0.673952,-0.0673 0.988223,0.0898 0.2297,0.114811 0.418271,0.296281 0.628841,0.464181 0.546932,0.435982 1.237784,1.353934 0.359351,1.811655 -0.14778,0.077 -0.27544,0.104391 -0.449191,0.164761 -0.512141,0.21934 -1.338573,0.353981 -1.805025,-0.0325 m 8.183482,-2.093636 c 0.178331,0.398701 0.162701,0.714662 0.299451,0.988213 0.15872,0.317391 0.12361,0.361191 0.0599,0.808532 m -21.618207,-2.048596 0.818432,10e-4 0.830462,0.0658 0.923843,0.0948 m 37.372219,0.718692 c -0.054,0.683662 -0.208511,1.287003 -0.479102,2.066255 -0.26367,0.759302 -0.431221,1.522554 -1.048132,2.156086 m -24.742576,-0.009 c -0.0649,-0.647702 -0.494951,-1.629084 -0.582552,-2.576717 -0.0508,-0.550031 -0.16265,-1.121363 -0.1736,-1.456754 -0.0107,-0.25738 -0.11327,-0.394471 -0.0449,-0.628861 0.0721,-0.247411 0.20563,-0.472272 0.479111,-0.583942 M 146.70891,51.32043 c -0.17354,0.0266 -0.32634,0.0529 -0.44313,0.0643 -0.2174,0.0211 -0.52824,0.106371 -0.80853,0.164671 -0.48063,0.10026 -2.01684,0.706122 -2.00605,1.437393 0.01,0.690492 1.22717,0.164671 1.46703,0.0748 0.221,-0.083 0.40966,-0.132871 0.62886,-0.239501 0.1662,-0.0809 0.31365,-0.20128 0.4987,-0.256211 0.0961,-0.0285 0.86914,-0.444421 0.9394,-0.471261 l -0.28215,-0.792272 c -0.0961,-0.268341 -0.068,-0.588462 -0.0779,-0.831022 -0.018,-0.426011 -0.17428,-0.483151 -0.17968,-0.898373 -0.004,-0.2608 -0.018,-0.3244 -0.0602,-0.539021 -0.0512,-0.263051 -0.0907,-1.010493 -0.11948,-1.167883 m -28.20884,2.066245 c 0.27759,0.284701 0.3252,0.312641 0.40426,0.718702 0.34995,1.140203 0.21333,2.029566 0.50938,3.189179 l 0.79326,-0.299431 0.98821,-0.015 m 14.19425,-3.234099 c 0,0 0.51224,0.693922 0.70343,1.078043 0.0922,0.185211 0.17533,0.376581 0.27389,0.558472 0.0984,0.18157 0.20409,0.342331 0.31005,0.519581 0.13525,0.226221 0.3297,0.718692 0.3297,0.718692 m -15.2723,-2.695107 0.33274,0.305931 m 9.12281,-0.331401 0.29497,0.24264 m -7.05541,0.950683 c 0.13612,0.0502 0.22896,0.361581 0.3112,0.349841 m -15.58351,1.267213 c -0.87411,0.184071 -2.12374,0.925323 -3.14429,1.137963 -0.2758,0.0573 -0.68726,0.0638 -0.8831,-0.16476 -0.18417,-0.213901 -0.0597,-0.571722 0.0322,-0.784722 0.11943,-0.276911 0.17635,-0.309171 0.29788,-0.423931 0,0 0.49797,-0.537362 0.77764,-0.797673 0.34968,-0.32548 0.60139,-0.596831 1.39247,-0.583941 0.61541,0.01 -0.30904,0.799182 -0.7187,1.078043 -0.2174,0.14787 -0.39977,0.306521 -0.62886,0.389261 -0.19494,0.0704 -0.74568,0.10977 -0.98922,0.0838 m 6.64895,-1.730805 c -0.55249,0.0437 -0.94625,0.0139 -1.12897,0.186741 l -0.84744,0.801472 c 0.74475,0.587712 2.1525,0.0555 3.32398,0.299421 0.41774,0.087 0.937,0.20977 1.12296,0.598941 0.22908,0.478742 -0.4438,0.689682 -0.76361,0.778622 -0.45458,0.126221 -0.73039,0.101341 -1.07806,0 -0.13655,-0.0399 -0.19225,-0.0165 -0.35935,-0.0599 -0.17248,-0.0446 -0.29286,-0.0537 -0.43391,-0.13476 -0.37102,-0.212731 -0.34497,-0.247321 -0.73396,-0.13475 m 14.08722,-0.616622 c 0,0 -0.19614,-0.474381 -0.26814,-0.730962 -0.072,-0.256571 -0.182,-0.367571 -0.0887,-0.575151 0.1418,-0.315481 0.31195,-0.713252 0.91307,-0.922133 0.21113,-0.0734 0.36743,-0.0651 0.53902,-0.0149 0.48333,0.14096 0.72588,0.701722 1.07805,1.063043 0.46715,-0.467511 1.70062,-1.480334 2.50016,-0.778612 0.37732,0.330511 0.28119,0.898462 0.37462,1.407474 m -64.772508,3.413809 c 0.648791,0.20492 1.278733,0.354141 1.976415,0.015 0.300491,-0.146071 0.626962,-0.253341 0.898352,-0.494102 0.265191,-0.23529 0.287301,-0.893972 0.0599,-1.227803 -0.19413,-0.284971 -0.682481,-0.539381 -0.958272,-0.524021 -0.644692,0.11706 -1.321744,0.388531 -1.886595,0.0748 -0.192241,-0.1052 -0.498421,-0.319731 -0.494091,-0.628862 0.006,-0.398341 0.27299,-0.584571 0.464191,-0.823532 0.0976,-0.122 0.16367,-0.272481 0.299421,-0.374271 0.24669,-0.18506 0.534531,-0.262681 0.808542,-0.224591 0.778682,0.108171 0.831062,0.475512 0.988192,0.973213 M 99.101322,51.81882 c 0.776052,-0.0581 1.156868,1.378764 1.311338,1.850765 l 0.30572,0.934193 m -0.33516,-1.104353 c 0.2165,-0.11293 1.59199,-0.681882 1.77256,-0.797232 0.53902,-0.343721 1.47063,-0.734152 1.88658,-0.613862 m 29.84356,-0.20444 c 0,0 0.68984,0.12135 1.09883,0.14045 0.409,0.0191 1.35514,-0.0258 1.35514,-0.0258 m -9.47891,0 0.0898,0.898372 m 5.03088,-0.898372 c 0.0898,0.0806 0.088,0.10752 0.13223,0.449191 0.0595,0.344771 0.21544,0.368061 0.22712,0.808532 m -10.4211,-1.167883 c 0.11589,0.294401 0.80134,0.939603 0.53902,1.437394 m 19.67432,-0.988203 c -0.86333,0.158921 -1.52813,0.412081 -2.33576,0.613852 -0.31802,0.0797 -0.61359,0.1927 -0.89838,0.0898 -0.28029,-0.10125 -0.1662,-0.325571 -0.10511,-0.524021 0.0997,-0.322151 0.96635,-0.978063 1.23906,-1.238974 0.23285,-0.22278 0.43016,-0.419681 0.83892,-0.646701 0.59534,-0.364201 1.37822,-0.313681 1.71045,-0.0907 0.38864,0.25735 -1.13464,0.814372 -1.61706,0.928292 -0.49505,0.11547 -0.99228,0.271981 -1.44305,0.259391 m -42.577114,0.24967 c 0.0808,0.438861 0.194041,0.448742 0.359351,0.808532 0.0683,0.148061 0.0738,0.474752 0.157211,0.673782 0.22443,0.535682 0.355751,0.814652 0.830992,1.302644 m -0.853452,-1.365574 c -0.112301,0.247771 -0.249821,0.223381 -0.494102,0.362361 -0.392591,0.223601 -1.132843,0.687522 -1.617064,0.808532 -0.236281,0.059 -0.315331,0.10798 -0.539031,0.10484 -0.269511,-0.004 -0.473442,-0.14671 -0.523752,-0.449191 -0.0898,-0.535781 0.361481,-1.596654 1.017863,-1.828215 0.288851,-0.10191 0.538501,-0.26401 0.826312,-0.32559 0.151871,-0.0325 0.464331,-0.0384 0.464331,-0.0384 m -5.647745,0.305601 c 0.604602,0.302481 1.036473,0.550812 1.224454,0.959253 l 0.30278,0.657822 0.628852,0.808532 m -2.605267,-1.257724 1.621864,-0.422481 c 0.444272,-0.18771 1.137024,0.0436 1.881775,0.0631 m -10.241407,4.042681 c -0.29098,-0.526441 -0.574421,-1.096823 -0.913372,-1.706904 -0.0757,-0.136371 -0.0901,-0.283361 -0.14221,-0.396761 l -0.492152,-1.071753 -0.373151,-1.068153 c 0.485362,-0.13807 1.381054,-0.562802 1.920885,-0.517791 1.082003,0.0902 2.457497,1.231033 1.317644,2.230925 -0.631562,0.355211 -1.420094,0.214011 -1.998135,0.292801 -0.110411,0.0266 -0.257651,0.0855 -0.384471,0.147481 m 5.287304,-2.671207 c 0,0 -0.368941,0.11883 -0.539022,0.20959 -0.346951,0.185131 -0.967352,0.675342 -0.967352,0.675342 0.0778,0.293401 0.580161,0.435591 0.787682,0.432711 0.492931,-0.007 1.301643,-0.739632 1.886575,-0.569031 0.532651,0.15542 0.938712,0.766582 0.778622,1.227803 -0.131431,0.378401 -0.610892,0.632371 -0.958293,0.733702 -0.16162,0.0471 -0.279031,0.0748 -0.449181,0.0748 -0.522861,0 -0.617362,-0.12191 -1.078053,-0.449181 M 74.649487,54.544439 c 0.240681,0.18776 0.741922,-0.0156 0.914503,-0.0156 0.2935,0 0.796672,-0.0766 0.988202,-0.209681 0.305541,-0.212101 0.639482,-0.534221 0.179681,-1.063043 -0.594722,-0.683992 -1.046243,-0.695882 -1.422394,-0.344341 -0.228541,0.213451 -0.610172,0.759572 -0.643862,1.063043 -0.0205,0.184161 -0.0427,0.487911 0.005,0.672442 0.0958,0.367341 0.0814,0.401741 0.368981,0.764952 0.138441,0.17491 0.239951,0.291251 0.434181,0.434181 0.151641,0.11166 0.335091,0.195121 0.539022,0.254591 0.575581,0.16782 1.011113,-0.206081 1.437394,-0.419261 m -4.491852,-2.874788 0.359341,1.078043 c 0.27799,0.833962 -0.439031,2.616957 -1.527224,1.766825 -0.357011,-0.278941 -0.272741,-0.583582 -0.539022,-0.958293 m 9.882076,1.257723 c -0.433011,0.0798 -1.235523,0.575222 -1.886575,0.539022 -0.24068,-0.0134 -0.363841,-0.0943 -0.539021,-0.269511 -0.17384,-0.17384 -0.242651,-0.289191 -0.329441,-0.539021 -0.0738,-0.212831 -0.11058,-0.319111 -0.11975,-0.539032 -0.0157,-0.376501 0.22463,-0.688482 0.327941,-0.993602 0,0 0.20038,-0.659902 0.435671,-0.892973 0.247431,-0.24508 0.880152,-0.704762 1.122963,-0.269511 0.424301,0.760562 -0.294031,1.200584 -0.808532,1.257724 -0.316491,0.0351 -0.549812,0.0789 -0.795022,0.0389 m -7.110669,-1.386484 c 0,0.202231 -0.0192,0.329801 -0.0599,0.539032 -0.0475,0.24471 -0.0743,0.563641 -0.0777,0.802162 -0.002,0.14634 0.0112,0.26687 -0.0571,0.440551 -0.18615,0.20105 -0.356281,0.17033 -0.583951,0.464181 -0.153351,0.198011 -0.242281,0.439041 -0.404261,0.628862 -0.131511,0.15416 -0.367341,0.366811 -0.598852,0.22459 -0.485301,-0.29798 -0.374341,-2.002105 -0.374341,-2.560346 m 31.125596,0.0681 c 0.45997,0.447561 2.16262,0.0909 2.92264,0.470881 m 69.98309,0.898372 0.85345,-0.26951 c 0.51518,-0.162691 0.85165,-0.197011 0.98821,0.0898 0.18237,0.383251 -0.47614,1.319893 -0.65851,1.617064 -0.0629,0.102061 -0.7123,0.821412 -0.77888,0.898373 -0.0928,0.10727 -0.17626,0.25463 -0.44638,0.497851 0.15456,0.12256 0.61886,0.0529 0.76081,0.0412 0.44289,-0.0369 1.09691,-0.17967 1.61706,-0.17967 m -9.67155,-2.614077 c -0.2345,-0.002 -1.02603,0.0215 -1.40129,0.21573 -0.12713,0.0658 0.007,0.469422 0.0678,0.601602 0.0422,0.0918 0.0782,0.691122 0.22459,0.748612 0.17428,0.0685 0.3306,-0.067 0.44918,-0.11975 0.18866,-0.0837 0.85256,-0.320181 1.16789,-0.254511 0.21022,0.0437 0.2767,0.11284 0.44919,0.23951 0.35934,0.264841 0.75552,0.691922 0.8238,1.182884 0.0548,0.399681 -0.31802,0.687431 -0.64413,0.868452 -0.31622,0.17563 -1.19393,0.0767 -1.52723,-0.0898 -0.25155,-0.125771 -0.30635,-0.231151 -0.62886,-0.239591 M 177.34897,54.963 c 0.4986,-0.144371 0.75643,-0.0898 1.25772,-0.0898 0.2192,0 0.96125,-0.087 1.1526,0.104841 0.15362,0.15362 0.10511,0.354041 0.10511,0.613851 0,0.248581 -0.018,0.324851 -0.0602,0.539022 -0.0746,0.387111 -0.11948,0.829652 -0.11948,1.167883 m -9.79224,-2.290846 c 0.22819,-0.10466 0.53004,-0.0213 0.7187,0.0599 0.22279,0.0959 0.61358,0.365911 0.8238,0.613862 0.24436,0.28963 0.56418,0.706751 0.4941,1.167883 -0.0862,0.563451 -0.9343,0.881932 -1.3179,1.063043 -0.34228,0.16179 -0.68995,0.29529 -1.07805,0.28451 -1.9863,-0.0552 -0.75284,-2.679297 0.35935,-3.189218 m -18.77595,0.314431 c 0.26118,0.0968 0.45777,0.3129 0.52335,0.539021 0.0755,0.257751 0.1693,0.291611 0.25554,0.539022 0.13206,0.380551 0.76091,1.299593 1.01785,1.706904 m -4.04267,-2.695107 c 0.63605,0.378211 0.42583,0.821472 0.73397,1.437394 0.24346,0.486651 0.4366,1.075173 0.79326,1.527224 m -7.45647,-2.515437 c -0.76632,-0.322511 -1.31346,-0.18577 -1.94061,-0.244951 l 0.36846,1.008563 c 0.15442,0.456821 0.15721,0.453141 0.26951,0.763612 0.0422,0.11787 0.1096,0.247861 0.13475,0.359351 0.1096,0.493021 0.20034,0.911043 0.7187,0.853452 0.75374,-0.0837 1.07356,-0.431131 1.70691,-0.31443 m 10.60077,0.374361 c -0.25963,-0.0396 -0.40965,-0.006 -0.62886,-0.194681 -0.78967,-0.678362 -0.56598,-2.108476 0.53902,-2.874788 0,0 0.46436,-0.21589 0.71056,-0.20444 0.22777,0.0106 0.637,0.24936 0.637,0.24936 0.57231,0.224031 0.83728,0.406062 1.16788,1.033133 0.42672,0.808532 0.0198,1.088103 -0.89837,1.706905 -0.73037,0.296011 -1.06816,0.354671 -1.52723,0.284511 z m -19.96594,-1.973006 c -0.56687,-0.16421 -1.09898,-0.15713 -1.49222,0.154471 0,0 -0.22755,0.14884 -0.46209,0.366141 -0.13361,0.1238 0.53902,0.0898 0.53902,0.0898 0,0 0.25535,0.0252 0.37736,0.0343 0.44861,0.0337 1.12934,-0.218701 1.59906,-0.0343 0.71241,0.279661 1.18765,0.467061 1.06278,1.078043 -0.0315,0.15802 -0.13296,0.23591 -0.25424,0.359341 -0.29377,0.29817 -0.69714,0.465001 -1.07806,0.539031 -0.19404,0.0377 -0.25513,0.0737 -0.44918,0.0898 -0.22729,0.0189 -0.30275,-0.0355 -0.53902,-0.0748 -0.32701,-0.0546 -0.4932,-0.11688 -0.80853,-0.374351 m 3.54275,-2.416596 1.21861,-0.0689 0.53902,0.015 0.87217,0.0494 m 20.23955,-0.0943 0.80853,0.0898 1.61707,0.17968 m -23.53732,-0.22019 0.0297,0.399861 0.1653,0.628861 0.8831,1.527234 m -15.9811,-1.973235 c 0.38405,-0.779562 1.52956,-0.290581 2.14619,-0.0481 0.86237,0.339101 2.59338,2.702407 0.71869,2.470517 l -2.00013,-0.247401 m -1.14417,-2.537547 0.29197,0.404271 c 0.0758,0.104921 0.1644,0.324581 0.20214,0.494102 0.0862,0.386211 0.26375,0.710391 0.40711,1.078052 0.14743,0.378071 0.48588,0.726242 -0.0927,0.898363 m 17.44501,-2.069436 c 0.49589,-0.20887 0.72722,0.205411 1.42077,-0.0867 m -32.43119,0.898373 c 0.18776,0.35692 0.22639,0.373631 0.53902,0.628861 0.39619,-0.396181 1.07671,-0.798192 1.34756,-0.808542 0.48072,-0.0184 1.37811,0.435801 1.66199,0.988213 0.18237,0.354221 0.13475,0.860362 0.13475,1.167873 m -12.128,-2.156086 c 0.12308,0.194681 0.25963,0.540371 0.3297,0.718692 0.0817,0.211211 0.1644,0.278411 0.26951,0.449191 0.43571,0.712852 0.72858,1.461824 1.10769,1.976415 m 7.2768,-2.335766 0.44919,1.796745 m 7.90566,-0.718702 c -0.12308,-0.333381 -0.17338,-0.368331 -0.26951,-0.628862 0.45637,-0.036 0.84056,-0.386661 1.38768,-0.363841 0.53183,0.0222 1.34696,0.398431 1.66678,0.813033 m -15.45197,1.407473 c -0.14105,0.049 -0.28838,0.104121 -0.44919,0.119761 -0.19225,0.0187 -0.42403,0.0423 -0.62886,-0.0299 -0.8849,-0.311741 -0.11589,-1.761255 0.44919,-2.111176 0.74404,-0.321431 3.00435,0.260361 2.97343,0.568841 -0.0396,0.395551 -0.85202,0.843833 -1.10527,0.966303 -0.49497,0.239351 -0.95003,0.385751 -1.2393,0.486191 z m 12.39749,-1.856645 -0.40437,-0.795632 c -0.19934,-0.392221 -0.83538,-1.912235 0.40437,-1.929395 0.74475,-0.0104 1.47154,0.382711 2.06626,0.868372 0.37731,0.308581 -0.35482,1.111083 -0.6935,1.489924 m -54.466475,0.815913 c 0.0287,-0.0226 0.14592,-0.172391 0.359371,-0.239591 0.554361,-0.174471 0.984502,-0.308231 1.617074,-0.299431 0.534062,0.007 0.336221,0.685132 0.336221,0.685132 0,0 0.534291,0.0888 0.831652,0.13841 0.382601,0.0638 0.833772,0.172211 1.167883,0.404261 0.391941,0.272211 0.720572,0.630032 0.793532,1.107963 0.117131,0.766672 -0.888142,1.331024 -1.512224,1.452394 -0.22219,0.0432 -0.30465,0.0716 -0.539031,0.0748 -0.722202,0.0101 -0.928302,-0.15128 -1.347564,-0.449181 m 0.610262,-2.730927 c -0.787782,0.0622 -0.772662,0.273611 -1.598454,0.395161 m 13.655216,-0.988203 0.643862,0.539022 c 0.460011,0.667012 0.715542,1.836565 1.063043,2.695107 m 9.432895,-0.539021 c -0.592562,-0.483412 -1.835105,-1.426974 -1.796745,-2.335767 0.01,-0.23178 0.0418,-0.28568 0.26951,-0.359341 l 0.224251,-0.0475 0.404611,0.003 1.257723,0.0449 m 8.385697,-0.13526 c -0.760276,0.14232 -2.394951,0.282501 -0.722126,0.416881 0.22137,0.0178 0.935626,-0.0626 1.230286,0.12264 0.74207,0.466522 -0.35395,1.424994 -1.212786,1.527234 -0.976533,0.0449 -1.378104,-0.0822 -1.751825,-0.673781 m -4.354641,-0.442111 c 0.593301,0.490961 2.191525,-0.624992 2.139145,-0.679792 -0.0947,-0.0745 -0.16481,-0.206001 -0.28401,-0.223541 -0.507582,-0.0747 -1.432464,0.563082 -1.432464,0.563082 -0.373881,0.14697 -1.333224,1.151273 -0.872123,1.449263 0.519062,0.335451 1.782875,0.141631 2.378497,0.141631 M 63.525388,59.634852 c 0.703712,0.785322 0.689352,1.828895 1.347563,2.874788 m 7.725971,-2.874788 c 0,0.475501 0.0811,0.405881 0.254511,0.808532 0.34947,0.811132 0.32557,1.547264 0.823542,2.335766 m 30.205075,-2.920017 c -0.23178,0.18902 -0.99096,0.448411 -1.54705,0.404581 m -23.627152,1.257713 c 0.184701,0.397351 -0.12362,0.588702 -0.449191,0.778622 -0.736842,0.429781 -2.138206,0.730642 -2.964618,0.179671 -1.382764,-1.829275 0.955023,-1.972666 1.931495,-1.811745 0.890192,0.378301 1.269583,0.395821 1.482314,0.853452 z m 8.065861,-0.693232 c 0.413611,0.0109 0.896373,0.0603 1.471894,-0.20231 0.272631,-0.111301 0.904453,-0.592232 0.853433,-0.901203 -0.124881,-0.561661 -0.916613,-1.201303 -1.497314,-1.257723 -0.552142,-0.0537 -1.035463,0.310841 -1.063043,0.808532 -0.0133,0.238881 0.358361,0.747002 0.464091,1.078053 0.0409,0.12774 0.10324,0.342941 0.14941,0.446001 0.114541,0.255651 0.201051,0.339621 0.314781,0.632042 0.178871,0.604881 0.606582,0.731282 0.494102,1.078053 m 33.060047,3.323969 c 0.72678,-0.215971 1.33587,-1.921616 2.24592,-1.587155 0.22908,0.0844 0.2785,0.214981 0.26951,0.419271 -0.009,0.218841 -0.0988,0.502552 -0.19495,0.718702 -0.3252,0.732342 -0.72947,1.387614 -0.94328,2.156086 -0.27849,1.004103 1.81741,0.218301 2.30612,0.179671 m -6.46827,-3.323949 c -0.40876,0.18273 -1.46614,0.332671 -1.97642,0.314431 0.1087,0.14779 0.12757,0.22567 0.17967,0.494111 0.0683,0.352971 0.0395,0.893062 0.28479,1.033123 0.27221,0.15569 0.37138,-0.0658 0.62562,-0.190841 0.15811,-0.078 0.23322,-0.15198 0.43715,-0.228431 0.21651,-0.081 0.3306,-0.0777 0.53902,-0.0748 0.74385,0.0103 1.70151,0.906453 1.94678,1.706905 0.3836,1.256373 -1.67187,0.908342 -1.7671,0 m 7.54631,-3.054458 c 0.12308,0.425021 0.31892,1.596674 0.89837,1.661984 0.22639,0.0255 0.35845,-0.0495 0.53902,-0.10484 0.1662,-0.0509 0.26862,-0.0736 0.4492,-0.0911 0.1608,-0.0157 0.25064,-0.0507 0.44918,-0.0286 0.35216,0.0392 0.3844,0.22095 0.67367,0.099 l -0.31432,-1.087253 m -18.05726,-0.0898 c 0.30006,0.008 0.29018,0.12065 0.62886,0.13476 0.21651,0.009 0.48602,-0.11886 0.62886,-0.13476 0.2731,-0.0304 1.33049,-0.195571 1.61707,-0.179671 0.91634,0.0509 0.59472,1.505844 0.74834,2.156086 0.1123,0.475961 0.29287,0.792362 0.3297,1.257723 m 19.71924,-0.808532 c -0.2165,0.555732 -1.43649,1.111013 -2.02133,1.167883 -1.77788,0.172841 -0.43809,-1.760744 -0.18116,-2.502706 0.10691,-0.307341 0.29543,-0.753912 0.72018,-0.596682 0.442,0.16362 0.64413,0.538121 1.16788,1.122963 0.28119,0.213191 0.48692,0.365821 0.31443,0.808542 z m -29.29519,-1.958615 c 0,0 -0.0618,0.448351 -0.0815,0.655972 -0.0459,0.483661 -0.76998,1.237533 -0.76998,1.237533 -0.36949,0.500031 -0.68627,1.567614 -1.07167,2.131346 m -0.80853,-3.862991 0.56866,0.703702 c 0,0 0.62647,0.442181 0.86873,0.733692 0.21286,0.256161 0.3573,0.575572 0.56413,0.836622 0.11847,0.149531 0.23158,0.271141 0.34951,0.421101 0.29692,0.377591 0.70343,1.257724 0.70343,1.257724 m -8.804035,-3.59349 c 0.277601,0.168001 0.356651,0.179321 0.628862,0.224601 0.270411,0.0451 0.514761,0.0449 0.808532,0.0449 0.132061,0 0.352161,-0.007 0.539022,-0.0225 0.610891,-0.0811 1.156203,-0.226661 1.706899,-0.0674 m -1.706699,0.0807 c 0.14711,0.15736 0.10042,0.213391 0.20912,0.458281 0.0719,0.160181 0.143741,0.437961 0.165301,0.539032 0.0871,0.419361 0.408761,1.150993 0.703421,1.617064 m 29.417047,-2.699817 c 0.14112,0.519601 0.23997,1.239063 0.58854,1.711604 m -50.847822,1.437404 c -0.1989,-0.314971 -0.896842,-1.619144 -1.107963,-1.871585 -0.1512,-0.18084 -0.25918,-0.318271 -0.374351,-0.527411 m -12.622113,0.0931 c 0.635062,-0.185151 1.621754,0.0101 2.156106,0.299511 0.743132,0.402471 1.368393,1.119643 1.721904,1.826665 0.12315,0.24642 0.260261,0.422231 0.254501,0.628861 -0.004,0.130981 -0.173391,0.416391 -0.284521,0.539012 -0.18101,0.1998 -0.532901,0.396901 -0.793512,0.509111 -0.370681,0.15955 -0.551431,0.14643 -0.898372,0.194591 -0.336811,0.0468 -0.735962,0.015 -1.167883,0.015 -0.303191,0 -0.490982,0.0883 -0.673792,-0.359351 -0.0853,-0.208871 -0.0322,-0.333921 -0.0748,-0.539022 -0.103851,-0.498411 -0.498872,-1.363013 -0.658872,-1.886575 -0.0696,-0.22792 -0.206451,-0.643061 -0.179661,-0.808542 0.0473,-0.292681 0.264021,-0.321521 0.598922,-0.419261 m 19.04546,0.419261 c 0.130171,0.183181 0.230881,0.440741 0.314431,0.628862 0.0473,0.10646 0.130501,0.21622 0.209831,0.404271 l 0.28427,0.673772 m -0.35755,-0.835743 c -0.174821,0.280561 -0.474792,0.290081 -0.900173,0.461402 -0.531111,0.2139 -1.061333,0.364731 -1.527224,0.494101 -0.330961,0.092 -0.831892,0.321611 -1.167883,0.20968 -0.906822,-0.3023 -0.12236,-1.251703 0.269511,-1.676994 0.11517,-0.12496 0.21044,-0.220651 0.318871,-0.329081 0.28497,-0.284961 0.22734,-0.351521 0.669331,-0.479451 m 5.210554,1.886575 c 0.512252,0.323511 1.006503,0.476451 1.539964,0.475361 0.702352,-0.002 1.260714,0.0443 1.694175,-0.14592 0.297091,-0.136201 0.723282,-0.541722 0.718692,-0.868463 -0.003,-0.1997 -0.190631,-0.398151 -0.359351,-0.524011 -0.562642,-0.420081 -1.769425,-0.608742 -2.425597,-0.554031 -0.16719,0.0139 -0.284691,0.0898 -0.449191,0.0898 -0.16448,0 -0.300001,0.0141 -0.467191,2e-4 -0.231681,-0.0193 -0.473581,0.0162 -0.700682,-0.0301 -0.234661,-0.0478 -0.554942,-0.114211 -0.449191,-0.239591 0.372211,-0.441291 0.893702,-0.472991 1.796745,-0.449191 m -13.295886,0.808532 c 0.583492,0.599312 0.958743,1.936445 1.347554,2.335766 m -3.234139,-1.437394 c 0.104031,0.564722 0.389721,0.934673 0.808542,1.257724 m -0.562351,-0.573712 c -0.394711,0.395041 -1.161713,1.006363 -1.683564,1.187563 -0.297131,0.114621 -0.496432,0.0717 -0.808533,0.194681 -0.25965,0.10457 -0.758782,0.11158 -1.078062,-0.11975 -0.202051,-0.146441 -0.288091,-0.226301 -0.344351,-0.419271 -0.0572,-0.196021 0.0903,-0.478922 0.19461,-0.628862 0.241741,-0.347401 0.706412,-0.687762 1.188863,-0.841062 0.298381,-0.0948 0.610992,-0.120681 0.890843,-0.145981 0.23286,-0.0211 0.695171,0.0936 0.695171,0.0936 m 20.642665,0.983243 c -0.16889,0.428431 -0.614481,1.384924 -0.988202,1.976415"
     id="path562"
     sodipodi:nodetypes="cscccsssccccsssscsccsssssssssccsscsccssssssccssscsscccsccsssssssssccsssccscscccssccscccscsccccccsscccsccccsccccsscscscccccccsccccscccscscscsscccccsccccccccsscsccccscccssccccccccsccccscccscccssscssccscsccscsscccccssscccccccccscsssccsscccccccssssccccsccsccccccscscsssscccccscccccccscccccccssccssccsssccssccsccccccscccscccccsccsssccccccccccssssssscccscccscscsscsccsssscsccscccccssssscssccsscsscccsccsscsssccccccccccssssccccsscccccccscsccccccccsssccsccsscssccsssscsssccccccccccccscscccsccccccsccscscccccccscsccccccccccsssccccccccccsssscsccscsccccccczsscccccsssccssccccsccccczccccccccccscsccccccscccsscssccscccccccsccsccccscccccsccscsccsscsccssccsscssssscccccsscccccsccsccccscccsccccccscscccccccsccccccscccsccsccccssccccsscssccssccccccccccccccssccscscccccsccccccccccscssccssscscccccscsscsccccccccscccccssccccsssccccccccssccsccccccsccccccccccccccccccsccscccsscccsscscscsscccssscccscccccccccscccccsscsscsscccsccsccssccscsccssssccccccccsccssccc" /></svg>
