<?xml version="1.0" encoding="UTF-8" standalone="no"?>
<!-- Created with Inkscape (http://www.inkscape.org/) -->

<svg
   version="1.1"
   id="svg2454"
   width="1254.6667"
   height="834.66669"
   viewBox="0 0 1254.6667 834.66669"
   sodipodi:docname="RonaldW - Stake - Envelope38.svg"
   inkscape:version="1.2.1 (9c6d41e410, 2022-07-14)"
   xmlns:inkscape="http://www.inkscape.org/namespaces/inkscape"
   xmlns:sodipodi="http://sodipodi.sourceforge.net/DTD/sodipodi-0.dtd"
   xmlns="http://www.w3.org/2000/svg"
   xmlns:svg="http://www.w3.org/2000/svg">
  <defs
     id="defs2458">
    <pattern
       id="EMFhbasepattern"
       patternUnits="userSpaceOnUse"
       width="6"
       height="6"
       x="0"
       y="0" />
    <pattern
       id="EMFhbasepattern-2"
       patternUnits="userSpaceOnUse"
       width="6"
       height="6"
       x="0"
       y="0" />
    <pattern
       id="EMFhbasepattern-6"
       patternUnits="userSpaceOnUse"
       width="6"
       height="6"
       x="0"
       y="0" />
    <pattern
       id="EMFhbasepattern-9"
       patternUnits="userSpaceOnUse"
       width="6"
       height="6"
       x="0"
       y="0" />
    <pattern
       id="EMFhbasepattern-25"
       patternUnits="userSpaceOnUse"
       width="6"
       height="6"
       x="0"
       y="0" />
    <pattern
       id="EMFhbasepattern-4"
       patternUnits="userSpaceOnUse"
       width="6"
       height="6"
       x="0"
       y="0" />
    <pattern
       id="EMFhbasepattern-0"
       patternUnits="userSpaceOnUse"
       width="6"
       height="6"
       x="0"
       y="0" />
    <pattern
       id="EMFhbasepattern-8"
       patternUnits="userSpaceOnUse"
       width="6"
       height="6"
       x="0"
       y="0" />
    <pattern
       id="EMFhbasepattern-89"
       patternUnits="userSpaceOnUse"
       width="6"
       height="6"
       x="0"
       y="0" />
    <pattern
       id="EMFhbasepattern-09"
       patternUnits="userSpaceOnUse"
       width="6"
       height="6"
       x="0"
       y="0" />
    <pattern
       id="EMFhbasepattern-40"
       patternUnits="userSpaceOnUse"
       width="6"
       height="6"
       x="0"
       y="0" />
    <pattern
       id="EMFhbasepattern-05"
       patternUnits="userSpaceOnUse"
       width="6"
       height="6"
       x="0"
       y="0" />
    <pattern
       id="EMFhbasepattern-45"
       patternUnits="userSpaceOnUse"
       width="6"
       height="6"
       x="0"
       y="0" />
    <pattern
       id="EMFhbasepattern-64"
       patternUnits="userSpaceOnUse"
       width="6"
       height="6"
       x="0"
       y="0" />
    <pattern
       id="EMFhbasepattern-97"
       patternUnits="userSpaceOnUse"
       width="6"
       height="6"
       x="0"
       y="0" />
    <pattern
       id="EMFhbasepattern-5"
       patternUnits="userSpaceOnUse"
       width="6"
       height="6"
       x="0"
       y="0" />
    <pattern
       id="EMFhbasepattern-20"
       patternUnits="userSpaceOnUse"
       width="6"
       height="6"
       x="0"
       y="0" />
    <pattern
       id="EMFhbasepattern-1"
       patternUnits="userSpaceOnUse"
       width="6"
       height="6"
       x="0"
       y="0" />
    <pattern
       id="EMFhbasepattern-46"
       patternUnits="userSpaceOnUse"
       width="6"
       height="6"
       x="0"
       y="0" />
    <pattern
       id="EMFhbasepattern-04"
       patternUnits="userSpaceOnUse"
       width="6"
       height="6"
       x="0"
       y="0" />
    <pattern
       id="EMFhbasepattern-07"
       patternUnits="userSpaceOnUse"
       width="6"
       height="6"
       x="0"
       y="0" />
    <pattern
       id="EMFhbasepattern-3"
       patternUnits="userSpaceOnUse"
       width="6"
       height="6"
       x="0"
       y="0" />
    <pattern
       id="EMFhbasepattern-39"
       patternUnits="userSpaceOnUse"
       width="6"
       height="6"
       x="0"
       y="0" />
    <pattern
       id="EMFhbasepattern-88"
       patternUnits="userSpaceOnUse"
       width="6"
       height="6"
       x="0"
       y="0" />
    <pattern
       id="EMFhbasepattern-7"
       patternUnits="userSpaceOnUse"
       width="6"
       height="6"
       x="0"
       y="0" />
    <pattern
       id="EMFhbasepattern-95"
       patternUnits="userSpaceOnUse"
       width="6"
       height="6"
       x="0"
       y="0" />
    <pattern
       id="EMFhbasepattern-42"
       patternUnits="userSpaceOnUse"
       width="6"
       height="6"
       x="0"
       y="0" />
    <pattern
       id="EMFhbasepattern-464"
       patternUnits="userSpaceOnUse"
       width="6"
       height="6"
       x="0"
       y="0" />
    <pattern
       id="EMFhbasepattern-53"
       patternUnits="userSpaceOnUse"
       width="6"
       height="6"
       x="0"
       y="0" />
    <pattern
       id="EMFhbasepattern-93"
       patternUnits="userSpaceOnUse"
       width="6"
       height="6"
       x="0"
       y="0" />
    <pattern
       id="EMFhbasepattern-76"
       patternUnits="userSpaceOnUse"
       width="6"
       height="6"
       x="0"
       y="0" />
    <pattern
       id="EMFhbasepattern-19"
       patternUnits="userSpaceOnUse"
       width="6"
       height="6"
       x="0"
       y="0" />
    <pattern
       id="EMFhbasepattern-92"
       patternUnits="userSpaceOnUse"
       width="6"
       height="6"
       x="0"
       y="0" />
    <pattern
       id="EMFhbasepattern-69"
       patternUnits="userSpaceOnUse"
       width="6"
       height="6"
       x="0"
       y="0" />
    <pattern
       id="EMFhbasepattern-47"
       patternUnits="userSpaceOnUse"
       width="6"
       height="6"
       x="0"
       y="0" />
    <pattern
       id="EMFhbasepattern-399"
       patternUnits="userSpaceOnUse"
       width="6"
       height="6"
       x="0"
       y="0" />
    <pattern
       id="EMFhbasepattern-82"
       patternUnits="userSpaceOnUse"
       width="6"
       height="6"
       x="0"
       y="0" />
    <pattern
       id="EMFhbasepattern-532"
       patternUnits="userSpaceOnUse"
       width="6"
       height="6"
       x="0"
       y="0" />
    <pattern
       id="EMFhbasepattern-30"
       patternUnits="userSpaceOnUse"
       width="6"
       height="6"
       x="0"
       y="0" />
    <pattern
       id="EMFhbasepattern-958"
       patternUnits="userSpaceOnUse"
       width="6"
       height="6"
       x="0"
       y="0" />
    <pattern
       id="EMFhbasepattern-644"
       patternUnits="userSpaceOnUse"
       width="6"
       height="6"
       x="0"
       y="0" />
    <pattern
       id="EMFhbasepattern-55"
       patternUnits="userSpaceOnUse"
       width="6"
       height="6"
       x="0"
       y="0" />
    <pattern
       id="EMFhbasepattern-22"
       patternUnits="userSpaceOnUse"
       width="6"
       height="6"
       x="0"
       y="0" />
    <pattern
       id="EMFhbasepattern-73"
       patternUnits="userSpaceOnUse"
       width="6"
       height="6"
       x="0"
       y="0" />
    <pattern
       id="EMFhbasepattern-15"
       patternUnits="userSpaceOnUse"
       width="6"
       height="6"
       x="0"
       y="0" />
    <pattern
       id="EMFhbasepattern-60"
       patternUnits="userSpaceOnUse"
       width="6"
       height="6"
       x="0"
       y="0" />
    <pattern
       id="EMFhbasepattern-28"
       patternUnits="userSpaceOnUse"
       width="6"
       height="6"
       x="0"
       y="0" />
    <pattern
       id="EMFhbasepattern-764"
       patternUnits="userSpaceOnUse"
       width="6"
       height="6"
       x="0"
       y="0" />
    <pattern
       id="EMFhbasepattern-72"
       patternUnits="userSpaceOnUse"
       width="6"
       height="6"
       x="0"
       y="0" />
    <pattern
       id="EMFhbasepattern-158"
       patternUnits="userSpaceOnUse"
       width="6"
       height="6"
       x="0"
       y="0" />
    <pattern
       id="EMFhbasepattern-18"
       patternUnits="userSpaceOnUse"
       width="6"
       height="6"
       x="0"
       y="0" />
    <pattern
       id="EMFhbasepattern-37"
       patternUnits="userSpaceOnUse"
       width="6"
       height="6"
       x="0"
       y="0" />
    <pattern
       id="EMFhbasepattern-31"
       patternUnits="userSpaceOnUse"
       width="6"
       height="6"
       x="0"
       y="0" />
    <pattern
       id="EMFhbasepattern-284"
       patternUnits="userSpaceOnUse"
       width="6"
       height="6"
       x="0"
       y="0" />
    <pattern
       id="EMFhbasepattern-81"
       patternUnits="userSpaceOnUse"
       width="6"
       height="6"
       x="0"
       y="0" />
    <pattern
       id="EMFhbasepattern-040"
       patternUnits="userSpaceOnUse"
       width="6"
       height="6"
       x="0"
       y="0" />
    <pattern
       id="EMFhbasepattern-51"
       patternUnits="userSpaceOnUse"
       width="6"
       height="6"
       x="0"
       y="0" />
    <pattern
       id="EMFhbasepattern-074"
       patternUnits="userSpaceOnUse"
       width="6"
       height="6"
       x="0"
       y="0" />
    <pattern
       id="EMFhbasepattern-10"
       patternUnits="userSpaceOnUse"
       width="6"
       height="6"
       x="0"
       y="0" />
    <pattern
       id="EMFhbasepattern-91"
       patternUnits="userSpaceOnUse"
       width="6"
       height="6"
       x="0"
       y="0" />
    <pattern
       id="EMFhbasepattern-59"
       patternUnits="userSpaceOnUse"
       width="6"
       height="6"
       x="0"
       y="0" />
  </defs>
  <sodipodi:namedview
     id="namedview2456"
     pagecolor="#ffffff"
     bordercolor="#000000"
     borderopacity="0.25"
     inkscape:showpageshadow="2"
     inkscape:pageopacity="0.0"
     inkscape:pagecheckerboard="0"
     inkscape:deskcolor="#d1d1d1"
     showgrid="false"
     inkscape:zoom="2.2619808"
     inkscape:cx="368.7034"
     inkscape:cy="160.69986"
     inkscape:window-width="1280"
     inkscape:window-height="658"
     inkscape:window-x="-6"
     inkscape:window-y="-6"
     inkscape:window-maximized="1"
     inkscape:current-layer="g2460" />
  <g
     inkscape:groupmode="layer"
     inkscape:label="Image"
     id="g2460">
    <path
       style="fill:none;stroke:#64648a;stroke-width:0.544004px;stroke-linecap:butt;stroke-linejoin:miter;stroke-miterlimit:4;stroke-dasharray:none;stroke-opacity:1"
       d="m 19.371481,20.716394 c -0.324558,-8.096961 -3.786518,-9.738241 -6.491174,-7.659289 -1.298234,0.76593 -1.839166,1.969532 -1.622793,2.516625 0.324559,0.76593 1.40642,0.984766 3.570145,3.063718 2.271911,2.62604 4.543822,5.470921 5.950242,6.783945 1.514608,1.750695 2.163726,1.969531 1.298235,5.252085 -1.081861,2.407204 -4.760192,3.391969 -7.789409,3.063718 -3.029213,-1.094186 -5.4093091,-2.516625 -3.67833,-7.002786"
       id="path56723" />
    <path
       style="fill:none;stroke:#64648a;stroke-width:0.544004px;stroke-linecap:butt;stroke-linejoin:miter;stroke-miterlimit:4;stroke-dasharray:none;stroke-opacity:1"
       d="m 26.728146,14.260707 c 0.540929,3.173134 1.190046,5.580343 1.839164,10.504171 0.649117,5.03325 1.298234,7.112202 1.947352,9.519406"
       id="path56725" />
    <path
       style="fill:none;stroke:#64648a;stroke-width:0.544004px;stroke-linecap:butt;stroke-linejoin:miter;stroke-miterlimit:4;stroke-dasharray:none;stroke-opacity:1"
       d="m 23.482559,24.108369 c -0.108188,0.328258 5.084751,-5.14267 7.897594,-2.407209"
       id="path56727" />
    <path
       style="fill:none;stroke:#64648a;stroke-width:0.544004px;stroke-linecap:butt;stroke-linejoin:miter;stroke-miterlimit:4;stroke-dasharray:none;stroke-opacity:1"
       d="m 35.383042,19.07512 c 4.543821,-5.252085 11.034995,1.641274 10.92681,5.580343 0.21637,4.26732 0,8.972312 0,8.972312 0.108185,-0.437672 -1.081864,-0.984765 -2.812843,-3.610811 -1.839164,-2.188368 -4.111074,-6.565108 -6.491174,-5.361501 -4.435632,4.157899 -1.514604,12.364287 4.543822,10.613586 3.461961,-1.313017 4.760195,-1.531853 4.760195,-1.641274"
       id="path56729" />
    <path
       style="fill:none;stroke:#64648a;stroke-width:0.544004px;stroke-linecap:butt;stroke-linejoin:miter;stroke-miterlimit:4;stroke-dasharray:none;stroke-opacity:1"
       d="m 47.824457,16.449075 c 0.865491,1.531859 1.730982,2.954302 2.59647,5.470927 0.865491,2.188367 1.839167,5.580337 2.596469,6.89336 0.865491,-3.063718 1.839168,-7.331038 2.59647,-10.723007"
       id="path56731" />
    <path
       style="fill:none;stroke:#64648a;stroke-width:0.544004px;stroke-linecap:butt;stroke-linejoin:miter;stroke-miterlimit:4;stroke-dasharray:none;stroke-opacity:1"
       d="m 53.450143,27.281503 c 0,0.109421 0.865488,-1.641274 2.163723,-2.516625 1.298234,-1.094181 3.029216,-1.531859 4.543819,-2.188367 3.137401,1.313023 4.219265,11.051264 4.327448,10.613592"
       id="path56733" />
    <path
       style="fill:none;stroke:#64648a;stroke-width:0.544004px;stroke-linecap:butt;stroke-linejoin:miter;stroke-miterlimit:4;stroke-dasharray:none;stroke-opacity:1"
       d="m 53.125585,28.485105 c 0.649117,1.203608 1.298234,5.361506 1.839163,6.346272"
       id="path56735" />
    <path
       style="fill:none;stroke:#64648a;stroke-width:0.544004px;stroke-linecap:butt;stroke-linejoin:miter;stroke-miterlimit:4;stroke-dasharray:none;stroke-opacity:1"
       d="m 70.651753,28.156853 c 3.137399,-3.829647 8.222148,0.76593 7.248473,-3.720226 -1.081865,-4.704998 -7.14029,-4.923834 -7.573033,-1.313023 -0.216372,1.860111 0,4.595571 1.081858,7.76871 1.081864,3.063718 2.921033,6.565108 5.733871,5.689758 2.596471,-1.313023 4.327451,-2.735461 5.409309,-4.704992 1.081865,-1.750695 1.406426,-4.048484 1.406426,-3.720227"
       id="path56737" />
    <path
       style="fill:none;stroke:#64648a;stroke-width:0.544004px;stroke-linecap:butt;stroke-linejoin:miter;stroke-miterlimit:4;stroke-dasharray:none;stroke-opacity:1"
       d="m 99.862031,24.217785 c -2.70466,-2.516625 -5.625687,-3.063712 -7.032106,2.078952 -1.622797,5.361506 -0.216371,13.458474 5.301121,12.583124 2.704664,-1.422439 4.760194,-2.954297 5.950254,-5.142665 1.29823,-2.078953 1.83915,-5.03325 1.83915,-4.486162"
       id="path56739" />
    <path
       style="fill:none;stroke:#64648a;stroke-width:0.544004px;stroke-linecap:butt;stroke-linejoin:miter;stroke-miterlimit:4;stroke-dasharray:none;stroke-opacity:1"
       d="m 112.41163,20.716394 c 3.57015,-4.595571 7.35667,3.17314 7.46485,6.455694 0.32456,4.157899 -0.54093,7.878125 -0.54093,7.76871 -0.10819,0.328251 -1.19005,-6.127436 -6.92392,-9.628827 -2.70465,0 -3.57014,2.516625 -3.46196,3.610812 0.10819,1.531859 1.08187,1.750695 2.3801,4.376735 2.48828,4.048484 8.00578,1.203607 8.00578,1.64128"
       id="path56741" />
    <path
       style="fill:none;stroke:#64648a;stroke-width:0.544004px;stroke-linecap:butt;stroke-linejoin:miter;stroke-miterlimit:4;stroke-dasharray:none;stroke-opacity:1"
       d="m 130.15418,24.546042 c -0.54094,-5.799178 -3.1374,-7.878131 -5.19295,-5.142665 -0.97367,1.203602 -1.73098,3.282549 -1.73098,4.157899 -0.10819,1.094187 0.54094,0.984766 2.16373,0.76593 1.83917,-0.328257 4.86837,3.282554 6.92393,4.486156 2.05553,1.860116 3.13739,1.313023 1.19003,4.923834 -3.8947,4.26732 -9.4122,3.939063 -10.49405,1.313017 -0.97368,-1.313017 0.97367,-6.236851 0.97367,-6.236851"
       id="path56743" />
    <path
       style="fill:none;stroke:#64648a;stroke-width:0.544004px;stroke-linecap:butt;stroke-linejoin:miter;stroke-miterlimit:4;stroke-dasharray:none;stroke-opacity:1"
       d="m 134.48162,16.777332 c 1.40642,5.361507 3.1374,10.723007 4.7602,20.132997 0,0 -2.48829,-7.76871 -0.10819,-11.598358 2.3801,-3.720226 5.84206,-3.173132 8.00578,0.109422 2.05554,2.954297 2.48829,8.425218 2.59647,8.644054"
       id="path56745" />
    <path
       style="fill:none;stroke:#64648a;stroke-width:0.544004px;stroke-linecap:butt;stroke-linejoin:miter;stroke-miterlimit:4;stroke-dasharray:none;stroke-opacity:1"
       d="m 174.18597,19.512793 c -1.51461,-4.704993 -6.16662,-4.157899 -7.14029,0.984766 -1.08186,5.361506 0.10818,13.458473 4.0029,14.005566 3.8947,-0.87535 7.35665,-1.64128 7.0321,-4.048483"
       id="path56747" />
    <path
       style="fill:none;stroke:#64648a;stroke-width:0.544004px;stroke-linecap:butt;stroke-linejoin:miter;stroke-miterlimit:4;stroke-dasharray:none;stroke-opacity:1"
       d="m 177.75612,17.652677 c -0.10819,0.328257 0.86548,2.626045 1.73098,6.455692 0.86549,3.501391 1.73098,8.534641 1.73098,7.878126 0.10818,0.218842 -3.35378,-13.677304 -1.51461,-14.66207 1.94735,-3.063718 5.19294,4.595577 5.08475,3.720227"
       id="path56749" />
    <path
       style="fill:none;stroke:#64648a;stroke-width:0.544004px;stroke-linecap:butt;stroke-linejoin:miter;stroke-miterlimit:4;stroke-dasharray:none;stroke-opacity:1"
       d="m 187.70925,26.296737 c 1.5146,-2.516624 5.73386,-1.969531 5.73386,-6.127436 0.10819,-4.267319 -2.70464,-3.282554 -4.43563,-1.641274 -0.86548,0.76593 -1.40642,4.923829 -1.40642,8.206383 0,3.50139 0.54094,5.9086 2.05554,7.002786 3.02922,0.109415 6.49117,-2.078953 6.49117,-2.407209"
       id="path56751" />
    <path
       style="fill:none;stroke:#64648a;stroke-width:0.544004px;stroke-linecap:butt;stroke-linejoin:miter;stroke-miterlimit:4;stroke-dasharray:none;stroke-opacity:1"
       d="m 203.829,12.400591 c 0.86549,3.829648 1.73098,9.081733 2.48828,12.692545 0.75731,3.829647 1.5146,6.127435 2.3801,8.862896 0,-0.437678 -0.8655,-1.969537 -2.05554,-5.252086 -1.08186,-3.063717 -2.59647,-7.87813 -3.89471,-8.64406 -2.59646,-2.078952 -5.19293,7.331038 -3.8947,12.145451 1.29824,6.674524 8.54671,2.62604 8.54671,-1.64128"
       id="path56753" />
    <path
       style="fill:none;stroke:#64648a;stroke-width:0.544004px;stroke-linecap:butt;stroke-linejoin:miter;stroke-miterlimit:4;stroke-dasharray:none;stroke-opacity:1"
       d="m 210.8611,12.83827 c 0.32456,0.656508 0.64912,2.844875 0.97368,3.282553"
       id="path56755" />
    <path
       style="fill:none;stroke:#64648a;stroke-width:0.544004px;stroke-linecap:butt;stroke-linejoin:miter;stroke-miterlimit:4;stroke-dasharray:none;stroke-opacity:1"
       d="m 212.4839,18.746864 c 0.7573,3.61081 1.73098,13.677309 2.38009,16.084513"
       id="path56757" />
    <path
       style="fill:none;stroke:#64648a;stroke-width:0.544004px;stroke-linecap:butt;stroke-linejoin:miter;stroke-miterlimit:4;stroke-dasharray:none;stroke-opacity:1"
       d="m 217.78502,11.962919 c 0.54093,3.282554 1.19005,5.799178 1.94736,11.051264 0.64911,5.252085 1.29823,7.440459 1.94734,9.957084"
       id="path56759" />
    <path
       style="fill:none;stroke:#64648a;stroke-width:0.544004px;stroke-linecap:butt;stroke-linejoin:miter;stroke-miterlimit:4;stroke-dasharray:none;stroke-opacity:1"
       d="m 217.46047,24.546042 c 2.48827,-2.297788 5.4093,-4.814413 7.89758,-4.595577"
       id="path56761" />
    <path
       style="fill:none;stroke:#64648a;stroke-width:0.544004px;stroke-linecap:butt;stroke-linejoin:miter;stroke-miterlimit:4;stroke-dasharray:none;stroke-opacity:1"
       d="m 236.17668,17.543262 c -4.65201,-3.282555 -9.84495,-0.437673 -6.92392,1.969531 1.62279,0.656508 5.95024,5.033249 8.76308,6.674529 2.92103,2.297783 4.43564,1.969531 0.54094,6.565103 -7.8976,7.440458 -12.76598,-2.078947 -12.76598,-1.641275"
       id="path56763" />
    <path
       style="fill:none;stroke:#64648a;stroke-width:0.544004px;stroke-linecap:butt;stroke-linejoin:miter;stroke-miterlimit:4;stroke-dasharray:none;stroke-opacity:1"
       d="m 16.883197,59.778786 c -0.108185,0.109415 -0.865488,-5.361499 -0.865488,-5.361499 4.219264,-3.501397 10.27769,-3.501397 14.605142,-0.109422 0,5.580336 0,10.941843 0.108184,16.412763"
       id="path56765" />
    <path
       style="fill:none;stroke:#64648a;stroke-width:0.544004px;stroke-linecap:butt;stroke-linejoin:miter;stroke-miterlimit:4;stroke-dasharray:none;stroke-opacity:1"
       d="m 40.251422,53.760772 c -4.002889,-2.73546 -4.002889,5.580341 -3.894703,9.081732 0.216373,2.516627 1.081864,7.878124 4.111076,8.315803 3.029214,0.875345 2.488282,-8.315803 2.59647,-9.957083 0.108186,-0.656509 -0.649117,-1.860111 -1.298234,-3.829642 -0.757302,-1.750699 -1.514609,-4.157903 -1.514609,-3.61081 z"
       id="path56767" />
    <path
       style="fill:none;stroke:#64648a;stroke-width:0.544004px;stroke-linecap:butt;stroke-linejoin:miter;stroke-miterlimit:4;stroke-dasharray:none;stroke-opacity:1"
       d="m 54.640189,52.55717 c -2.163721,-0.87535 -4.002889,-0.656514 -5.08475,1.531859 -1.19005,1.860109 -1.622793,5.580341 -0.973676,7.00278 1.514605,5.142667 6.058426,4.267322 7.681221,1.2036 0.757305,-1.96953 0.324559,-3.501389 -0.216372,-5.470921 -0.540932,-1.860114 -1.298234,-4.048481 -1.406423,-4.267318 z"
       id="path56769" />
    <path
       style="fill:none;stroke:#64648a;stroke-width:0.544004px;stroke-linecap:butt;stroke-linejoin:miter;stroke-miterlimit:4;stroke-dasharray:none;stroke-opacity:1"
       d="m 54.532005,52.666586 c 0,-0.109416 1.514607,1.422443 2.704654,6.565106 0.649117,2.188368 1.19005,4.376741 1.514609,5.689766 -0.266199,1.223277 0.798279,2.196542 0.766114,5.285893 0.416936,1.313019 0.842679,3.973784 0.842679,3.973784"
       id="path56771"
       sodipodi:nodetypes="ccccc" />
    <path
       style="fill:none;stroke:#64648a;stroke-width:0.544004px;stroke-linecap:butt;stroke-linejoin:miter;stroke-miterlimit:4;stroke-dasharray:none;stroke-opacity:1"
       d="m 82.33586,72.471331 c -0.865487,-8.534642 -1.839168,-14.224404 -2.596467,-19.476488 2.271912,-1.094187 5.40931,-1.313023 7.573034,1.094186"
       id="path56773" />
    <path
       style="fill:none;stroke:#64648a;stroke-width:0.544004px;stroke-linecap:butt;stroke-linejoin:miter;stroke-miterlimit:4;stroke-dasharray:none;stroke-opacity:1"
       d="m 80.929441,62.076574 c 1.730979,-0.328257 3.67833,-1.64128 5.40931,-0.656514"
       id="path56775" />
    <path
       style="fill:none;stroke:#64648a;stroke-width:0.544004px;stroke-linecap:butt;stroke-linejoin:miter;stroke-miterlimit:4;stroke-dasharray:none;stroke-opacity:1"
       d="m 93.911784,64.812035 c 2.163729,-2.954297 4.652012,-0.765929 7.032106,0.109423 0.10819,0.218833 -0.973671,-3.173141 -2.271912,-5.142672 -1.29823,-2.078952 -2.812838,-2.844882 -3.786518,-0.875351 -1.839163,5.252088 -1.839163,13.458474 3.137404,14.990332 2.488276,-0.328256 3.894696,-1.422436 4.760196,-3.391967 0.86548,-1.750703 0.97367,-4.267324 0.97367,-4.04849"
       id="path56777" />
    <path
       style="fill:none;stroke:#64648a;stroke-width:0.544004px;stroke-linecap:butt;stroke-linejoin:miter;stroke-miterlimit:4;stroke-dasharray:none;stroke-opacity:1"
       d="m 104.62222,60.435294 c 0.86549,2.844883 2.05554,8.096969 3.02922,13.458473 0,-0.109411 -2.48829,-13.677309 -1.19005,-14.333818 1.51461,-2.407209 5.19294,2.297789 4.97656,2.188368"
       id="path56779" />
    <path
       style="fill:none;stroke:#64648a;stroke-width:0.544004px;stroke-linecap:butt;stroke-linejoin:miter;stroke-miterlimit:4;stroke-dasharray:none;stroke-opacity:1"
       d="m 113.16893,57.918669 c 0.75731,4.486162 1.73099,9.081736 2.59648,16.741027 0,0 -0.43276,-4.704991 -0.86549,-8.644059 -0.32457,-4.048484 -0.64912,-7.331032 -0.43275,-8.206383 0.21637,-0.984766 2.05554,-1.750695 3.89471,-1.750695 1.94735,-0.109421 3.78652,1.86011 4.00288,3.282554 0.54094,3.829642 1.83917,12.801962 1.83917,12.692539"
       id="path56781" />
    <path
       style="fill:none;stroke:#64648a;stroke-width:0.544004px;stroke-linecap:butt;stroke-linejoin:miter;stroke-miterlimit:4;stroke-dasharray:none;stroke-opacity:1"
       d="m 133.9407,60.763551 c 0.10818,-3.610811 -4.54383,-6.783942 -5.19295,-1.203602 -0.54093,2.844882 0,7.659296 1.5146,11.160679 0.8655,2.188376 1.73099,2.078953 3.02923,1.750703 1.19004,-0.656512 2.59646,-1.422447 4.21926,-6.236855"
       id="path56783" />
    <path
       style="fill:none;stroke:#64648a;stroke-width:0.544004px;stroke-linecap:butt;stroke-linejoin:miter;stroke-miterlimit:4;stroke-dasharray:none;stroke-opacity:1"
       d="m 137.51084,50.149967 c 0.54092,3.063712 1.19005,5.470916 1.83917,10.394748 0.64911,5.033249 1.29823,7.112203 1.94734,9.519407"
       id="path56785" />
    <path
       style="fill:none;stroke:#64648a;stroke-width:0.544004px;stroke-linecap:butt;stroke-linejoin:miter;stroke-miterlimit:4;stroke-dasharray:none;stroke-opacity:1"
       d="m 142.59559,50.806475 c 0.32456,0.547088 0.64912,2.407204 0.97367,2.735461"
       id="path56787" />
    <path
       style="fill:none;stroke:#64648a;stroke-width:0.544004px;stroke-linecap:butt;stroke-linejoin:miter;stroke-miterlimit:4;stroke-dasharray:none;stroke-opacity:1"
       d="m 144.8675,59.778786 c 0.64912,2.188367 1.40642,8.753477 1.94735,10.285336"
       id="path56789" />
    <path
       style="fill:none;stroke:#64648a;stroke-width:0.544004px;stroke-linecap:butt;stroke-linejoin:miter;stroke-miterlimit:4;stroke-dasharray:none;stroke-opacity:1"
       d="m 155.36156,57.590418 c -0.10818,-3.063716 -3.35377,-9.628825 -3.67833,-5.142669 -0.21637,2.735462 0,6.236856 0.21638,10.723006 0.32455,4.157907 0.64911,9.191154 0.64911,9.191154"
       id="path56791" />
    <path
       style="fill:none;stroke:#64648a;stroke-width:0.544004px;stroke-linecap:butt;stroke-linejoin:miter;stroke-miterlimit:4;stroke-dasharray:none;stroke-opacity:1"
       d="m 150.27681,62.185989 c 1.29824,-0.218836 2.92103,-1.203602 4.21927,-0.437672"
       id="path56793" />
    <path
       style="fill:none;stroke:#64648a;stroke-width:0.544004px;stroke-linecap:butt;stroke-linejoin:miter;stroke-miterlimit:4;stroke-dasharray:none;stroke-opacity:1"
       d="m 164.5574,58.575184 c -0.21638,-0.218837 -0.97368,-4.486155 -1.73098,-6.674528 -0.75731,-2.297788 -1.6228,-2.62604 -2.05554,1.203608 -0.54094,5.142663 0.10818,7.549872 0.86549,11.92661 0.64912,4.814408 1.51461,6.565106 1.51461,6.455689"
       id="path56795" />
    <path
       style="fill:none;stroke:#64648a;stroke-width:0.544004px;stroke-linecap:butt;stroke-linejoin:miter;stroke-miterlimit:4;stroke-dasharray:none;stroke-opacity:1"
       d="m 158.49896,61.529481 c 1.73098,-1.313023 3.78653,0.218836 5.62569,0.109421"
       id="path56797" />
    <path
       style="fill:none;stroke:#64648a;stroke-width:0.544004px;stroke-linecap:butt;stroke-linejoin:miter;stroke-miterlimit:4;stroke-dasharray:none;stroke-opacity:1"
       d="m 182.51631,68.094591 c 0.64912,-6.56511 1.19004,-14.662076 1.73098,-19.257647 2.70465,2.954297 5.5175,14.443233 8.11396,15.975091"
       id="path56799" />
    <path
       style="fill:none;stroke:#64648a;stroke-width:0.544004px;stroke-linecap:butt;stroke-linejoin:miter;stroke-miterlimit:4;stroke-dasharray:none;stroke-opacity:1"
       d="m 181.97538,61.529481 c 2.59647,-0.547094 5.62568,-2.516625 8.11396,-1.094187"
       id="path56801" />
    <path
       style="fill:none;stroke:#64648a;stroke-width:0.544004px;stroke-linecap:butt;stroke-linejoin:miter;stroke-miterlimit:4;stroke-dasharray:none;stroke-opacity:1"
       d="m 194.52498,53.870193 c 1.94735,1.313018 4.32745,8.425216 6.38299,10.613586 0.43274,-2.735462 0.86548,-7.331039 1.29823,-10.50417"
       id="path56803" />
    <path
       style="fill:none;stroke:#64648a;stroke-width:0.544004px;stroke-linecap:butt;stroke-linejoin:miter;stroke-miterlimit:4;stroke-dasharray:none;stroke-opacity:1"
       d="m 206.85821,58.684605 c -0.10819,-0.875351 1.5146,-1.750701 3.1374,-1.531865 1.62279,0 3.24559,0.87535 3.35377,0.437678 0.21637,0.328251 -2.38009,-7.002779 -4.43564,-4.595575 -0.97367,0.547093 -1.73097,2.735459 -1.83915,4.267318 -0.21638,1.750695 0.32455,2.844882 2.16372,5.689766 3.46196,4.157895 5.08475,-3.063726 4.97657,-3.173141"
       id="path56805" />
    <path
       style="fill:none;stroke:#64648a;stroke-width:0.544004px;stroke-linecap:butt;stroke-linejoin:miter;stroke-miterlimit:4;stroke-dasharray:none;stroke-opacity:1"
       d="m 216.05404,51.900656 c 0.64912,3.720227 1.40643,7.331036 2.27191,13.567886 0,-0.656507 -1.73098,-10.613583 0.10818,-13.130213 1.73098,-3.063713 8.11397,-3.720227 8.97946,2.078958 1.08187,4.486148 1.94735,8.86289 1.94735,9.081724"
       id="path56807" />
    <path
       style="fill:none;stroke:#64648a;stroke-width:0.544004px;stroke-linecap:butt;stroke-linejoin:miter;stroke-miterlimit:4;stroke-dasharray:none;stroke-opacity:1"
       d="m 233.03928,52.885422 c -0.43275,10.175916 0.86549,10.832428 4.43563,10.066505 3.46196,-0.218845 2.59647,-6.893368 2.48828,-10.394757"
       id="path56809" />
    <path
       style="fill:none;stroke:#64648a;stroke-width:0.544004px;stroke-linecap:butt;stroke-linejoin:miter;stroke-miterlimit:4;stroke-dasharray:none;stroke-opacity:1"
       d="m 244.83158,55.730302 c 2.59646,-2.188366 4.43563,-1.750693 5.5175,-2.188366 1.08186,-0.109421 1.62279,-1.203607 1.51461,-1.094187 0,-0.10942 -1.73099,-3.610805 -4.0029,-3.063717 -2.27191,-0.328258 -4.21926,7.768708 -2.3801,11.707777 2.05554,5.79918 9.4122,3.939065 10.71044,-0.656515"
       id="path56811" />
    <path
       style="fill:none;stroke:#64648a;stroke-width:0.544004px;stroke-linecap:butt;stroke-linejoin:miter;stroke-miterlimit:4;stroke-dasharray:none;stroke-opacity:1"
       d="m 29.649174,89.321775 c 0,-0.328256 -2.812843,-6.127438 -5.842057,-3.610811 -2.921028,2.078947 -2.704657,9.738238 -2.27191,14.771486 0.540929,5.9086 6.815732,6.56511 8.763085,4.92383 1.947352,-0.43766 4.111074,-6.455684 3.029212,-7.768708"
       id="path56813" />
    <path
       style="fill:none;stroke:#64648a;stroke-width:0.544004px;stroke-linecap:butt;stroke-linejoin:miter;stroke-miterlimit:4;stroke-dasharray:none;stroke-opacity:1"
       d="m 35.491231,92.494908 c 0.757302,2.954294 1.839163,7.331034 2.704654,12.364282 0,0 -1.40642,-10.504173 -0.649117,-11.598353 0.865491,-2.297787 4.111077,0.984763 4.002889,1.09418"
       id="path56815" />
    <path
       style="fill:none;stroke:#64648a;stroke-width:0.544004px;stroke-linecap:butt;stroke-linejoin:miter;stroke-miterlimit:4;stroke-dasharray:none;stroke-opacity:1"
       d="m 44.3625,99.825942 c 2.596469,-4.486157 5.625683,-1.203607 8.330337,-2.626043 0,0.984768 -2.48828,-8.20638 -5.517497,-5.799182 -1.298235,0.547096 -2.380096,3.501395 -2.59647,6.018021 -0.21637,2.626042 0.432748,4.704992 2.380099,7.549882 2.380097,1.20359 6.2748,-2.51663 6.2748,-2.84489"
       id="path56817" />
    <path
       style="fill:none;stroke:#64648a;stroke-width:0.544004px;stroke-linecap:butt;stroke-linejoin:miter;stroke-miterlimit:4;stroke-dasharray:none;stroke-opacity:1"
       d="m 61.455919,93.917344 c 0.324559,-1.09418 -0.108184,-5.252087 -2.921025,-3.939062 -1.406419,0.437673 -2.921028,1.641275 -3.786516,3.391972 -0.865491,1.531858 -1.081864,3.720228 0,2.844877 1.190047,-1.860114 4.111075,1.531863 6.491168,2.735465 2.271912,1.860114 4.11108,1.531854 3.137404,3.939064 -1.730979,3.72023 -9.195829,2.40721 -8.330338,-2.07895"
       id="path56819" />
    <path
       style="fill:none;stroke:#64648a;stroke-width:0.544004px;stroke-linecap:butt;stroke-linejoin:miter;stroke-miterlimit:4;stroke-dasharray:none;stroke-opacity:1"
       d="m 71.19268,96.762226 c 0.540932,-2.188364 1.730985,-7.33104 -2.488284,-5.799176 -2.055539,0.328256 -3.137398,5.033247 -3.137398,8.315802 -0.108183,3.610808 0.865492,5.799178 3.029215,6.893358 4.219263,0.21884 4.111075,-1.96953 4.111075,-2.29778"
       id="path56821" />
    <path
       style="fill:none;stroke:#64648a;stroke-width:0.544004px;stroke-linecap:butt;stroke-linejoin:miter;stroke-miterlimit:4;stroke-dasharray:none;stroke-opacity:1"
       d="m 74.221895,99.825942 c -0.108188,-1.969531 6.923917,-5.361503 7.032101,-4.814413 0,-0.109417 -2.055535,-4.157896 -4.543823,-2.407204 -1.190042,0.218839 -2.271906,3.282555 -2.596466,5.908598 -0.324555,2.735457 0,5.033247 1.730979,7.221617 2.596472,1.75069 7.897593,-3.61081 7.897593,-3.93907"
       id="path56823" />
    <path
       style="fill:none;stroke:#64648a;stroke-width:0.544004px;stroke-linecap:butt;stroke-linejoin:miter;stroke-miterlimit:4;stroke-dasharray:none;stroke-opacity:1"
       d="m 84.607771,92.604325 c 0.216373,4.595574 0.649121,8.753485 0.865487,14.771495 0,-0.32826 -0.649114,-13.13022 1.190053,-15.646841 2.055535,-3.939068 7.356662,1.313019 7.46485,7.65929 0.432744,5.908601 0.324555,7.112201 0.432744,7.002781"
       id="path56825" />
    <path
       style="fill:none;stroke:#64648a;stroke-width:0.544004px;stroke-linecap:butt;stroke-linejoin:miter;stroke-miterlimit:4;stroke-dasharray:none;stroke-opacity:1"
       d="m 99.104722,86.914566 c 0.432749,3.829645 0.865497,13.567884 1.190048,15.865674"
       id="path56827" />
    <path
       style="fill:none;stroke:#64648a;stroke-width:0.544004px;stroke-linecap:butt;stroke-linejoin:miter;stroke-miterlimit:4;stroke-dasharray:none;stroke-opacity:1"
       d="m 95.426392,95.668041 c 2.596472,-0.54709 5.625688,-2.407204 8.222148,-0.765929"
       id="path56829" />
    <path
       style="fill:none;stroke:#64648a;stroke-width:0.544004px;stroke-linecap:butt;stroke-linejoin:miter;stroke-miterlimit:4;stroke-dasharray:none;stroke-opacity:1"
       d="m 126.15129,90.96305 c -0.21638,-5.689759 -1.83917,-8.315808 -5.84206,-5.799182 -1.83917,1.531858 -1.94735,3.282556 -1.29823,4.157907 0.54092,0.984763 1.94734,0.984763 3.02921,2.078942 1.19004,0.765935 3.46195,3.939068 4.97657,5.580348 1.62278,1.860115 2.38009,2.297787 0.7573,4.486155 -1.62279,1.09419 -4.54383,2.07895 -6.70755,1.2036 -2.16372,-1.42244 -3.57014,-2.735461 -2.3801,-7.112196"
       id="path56831" />
    <path
       style="fill:none;stroke:#64648a;stroke-width:0.544004px;stroke-linecap:butt;stroke-linejoin:miter;stroke-miterlimit:4;stroke-dasharray:none;stroke-opacity:1"
       d="m 135.67168,110.76779 c -0.75732,-8.64406 -1.6228,-13.786725 -2.27192,-19.25765 -0.21637,-0.328256 2.48828,-2.297787 5.08476,-2.078954 2.59647,-0.109411 5.19293,3.720234 4.86838,5.580343 0,2.626043 -2.27191,4.814413 -4.54382,3.501394 -2.27192,-1.531858 -4.54383,-0.328256 -4.43564,0"
       id="path56833" />
    <path
       style="fill:none;stroke:#64648a;stroke-width:0.544004px;stroke-linecap:butt;stroke-linejoin:miter;stroke-miterlimit:4;stroke-dasharray:none;stroke-opacity:1"
       d="m 146.70667,90.744211 c 0.86548,1.969531 1.94735,7.549873 2.92103,11.051259 0,0.5471 -1.40642,-8.972306 -1.19006,-10.28533 0.10819,-0.984763 1.6228,-2.844883 3.35378,-2.078954"
       id="path56835" />
    <path
       style="fill:none;stroke:#64648a;stroke-width:0.544004px;stroke-linecap:butt;stroke-linejoin:miter;stroke-miterlimit:4;stroke-dasharray:none;stroke-opacity:1"
       d="m 156.22705,82.318992 c 0.21638,0.32825 0.43276,1.422441 0.64912,1.750691"
       id="path56837" />
    <path
       style="fill:none;stroke:#64648a;stroke-width:0.544004px;stroke-linecap:butt;stroke-linejoin:miter;stroke-miterlimit:4;stroke-dasharray:none;stroke-opacity:1"
       d="m 157.09254,89.431186 c 0.75731,2.40721 1.6228,9.628827 2.3801,11.270104"
       id="path56839" />
    <path
       style="fill:none;stroke:#64648a;stroke-width:0.544004px;stroke-linecap:butt;stroke-linejoin:miter;stroke-miterlimit:4;stroke-dasharray:none;stroke-opacity:1"
       d="m 161.85274,88.446424 c 0.64911,3.501389 1.5146,7.221617 2.48828,13.349046 0,-0.43766 -0.7573,-11.598349 0.21638,-13.130213 0.97368,-1.860114 6.2748,-7.549873 7.35665,0.218845 1.08187,7.002778 2.16373,11.270098 2.27192,11.598348"
       id="path56841" />
    <path
       style="fill:none;stroke:#64648a;stroke-width:0.544004px;stroke-linecap:butt;stroke-linejoin:miter;stroke-miterlimit:4;stroke-dasharray:none;stroke-opacity:1"
       d="m 185.0046,88.555846 c -2.92103,-5.689765 -6.81574,0 -6.92392,5.361498 -0.21638,4.048484 1.08185,6.236856 3.46195,5.908598 0,-0.328256 4.0029,-0.984762 4.0029,-5.142669 0.10818,-3.391967 -0.54093,-5.908593 -0.54093,-6.127427 z"
       id="path56843" />
    <path
       style="fill:none;stroke:#64648a;stroke-width:0.544004px;stroke-linecap:butt;stroke-linejoin:miter;stroke-miterlimit:4;stroke-dasharray:none;stroke-opacity:1"
       d="m 184.89641,86.914566 c 0.10819,-0.656513 0.97367,3.939067 1.83916,7.878129 0.86549,4.157901 1.73098,7.768715 1.83916,9.300575 0.21638,3.72022 1.51461,6.34626 -1.94734,5.58034 -3.35377,-0.21885 -6.81574,-2.29779 -6.49118,-5.9086"
       id="path56845" />
    <path
       style="fill:none;stroke:#64648a;stroke-width:0.544004px;stroke-linecap:butt;stroke-linejoin:miter;stroke-miterlimit:4;stroke-dasharray:none;stroke-opacity:1"
       d="m 196.90508,85.820375 c -0.32456,-2.407204 -0.64913,-3.720223 -3.02921,-1.422436 -1.19005,0.656513 -2.81285,3.173139 -3.46196,4.376741 -0.64912,1.313019 -0.21638,1.203602 2.92102,0.109422 3.35377,0.218828 6.81574,3.391967 8.97946,4.814408 2.16372,1.750692 3.02922,1.860114 1.29823,4.704997 -3.57014,3.610803 -7.35667,3.391963 -8.97945,-1.531858"
       id="path56847" />
    <path
       style="fill:none;stroke:#64648a;stroke-width:0.544004px;stroke-linecap:butt;stroke-linejoin:miter;stroke-miterlimit:4;stroke-dasharray:none;stroke-opacity:1"
       d="m 211.18566,97.856411 c -0.21637,2.844879 -0.32456,3.610809 -0.43275,7.549869"
       id="path56849" />
    <path
       style="fill:none;stroke:#64648a;stroke-width:0.544004px;stroke-linecap:butt;stroke-linejoin:miter;stroke-miterlimit:4;stroke-dasharray:none;stroke-opacity:1"
       d="m 216.16222,83.30376 c 0,0.32825 0.64912,3.06371 1.40642,7.440451 0.75731,4.048484 1.40643,9.738239 1.40643,9.519409 -0.10819,-3.063721 -0.21637,-6.01802 -0.43275,-8.75348 0,-0.765929 1.29824,-1.750692 2.48829,-4.157901 1.29823,-2.078948 2.48828,-5.470926 2.38009,-4.267324"
       id="path56851" />
    <path
       style="fill:none;stroke:#64648a;stroke-width:0.544004px;stroke-linecap:butt;stroke-linejoin:miter;stroke-miterlimit:4;stroke-dasharray:none;stroke-opacity:1"
       d="m 218.54232,92.494908 c 1.29824,-2.078953 2.70466,-2.297787 4.21926,-2.954299 0.10819,-0.218834 1.19005,3.282555 2.27191,5.689759 1.08187,2.626043 2.05554,3.939062 2.05554,3.939062"
       id="path56853" />
    <path
       style="fill:none;stroke:#64648a;stroke-width:0.544004px;stroke-linecap:butt;stroke-linejoin:miter;stroke-miterlimit:4;stroke-dasharray:none;stroke-opacity:1"
       d="m 231.62351,83.63543 c 1.73098,-3.829645 4.22861,10.281914 6.06777,10.06308 -0.43275,-3.063722 -0.86548,-7.221617 -1.29823,-11.270102 0.54094,3.829645 0.86548,7.87813 1.29823,10.832429 0.43275,2.954294 0.8655,4.92383 1.29824,7.659293"
       id="path56855"
       sodipodi:nodetypes="cccsc" />
    <path
       style="fill:none;stroke:#64648a;stroke-width:0.544004px;stroke-linecap:butt;stroke-linejoin:miter;stroke-miterlimit:4;stroke-dasharray:none;stroke-opacity:1"
       d="m 250.02451,75.644464 c 0,0.218834 0.32457,16.959861 0.32457,16.959861 -0.10819,-0.218839 1.94734,-3.173139 4.11107,-2.078948 2.16373,0.87534 4.21926,0.656507 4.21926,0.547084 -0.43274,-3.501383 -0.97368,-8.20638 -1.40642,-13.567883 0.97368,9.847661 1.83917,15.209164 2.81284,20.898929"
       id="path56857" />
    <path
       style="fill:none;stroke:#64648a;stroke-width:0.544004px;stroke-linecap:butt;stroke-linejoin:miter;stroke-miterlimit:4;stroke-dasharray:none;stroke-opacity:1"
       d="m 264.62966,77.066899 c 0,0.875352 0.21636,1.094191 0.43274,2.954305 0.21638,1.641275 0.64912,4.814408 1.08187,7.987547 0.32455,3.173133 0.7573,6.236849 0.97366,7.549873 0.32457,1.641275 0.54094,1.422441 0.43275,2.18837"
       id="path56859" />
    <path
       style="fill:none;stroke:#64648a;stroke-width:0.544004px;stroke-linecap:butt;stroke-linejoin:miter;stroke-miterlimit:4;stroke-dasharray:none;stroke-opacity:1"
       d="m 275.01553,76.191559 c -2.70465,-2.626048 -3.02921,5.47092 -2.3801,12.364287 0.75731,7.768707 3.46197,8.644053 4.7602,7.549874 1.29824,0 2.59647,-4.814414 1.73098,-10.0665 0,-0.547096 -0.64911,-2.626049 -1.51461,-5.14267 -0.86549,-2.407204 -1.94734,-5.361509 -2.59647,-4.704991 z"
       id="path56861" />
    <path
       style="fill:none;stroke:#64648a;stroke-width:0.544004px;stroke-linecap:butt;stroke-linejoin:miter;stroke-miterlimit:4;stroke-dasharray:none;stroke-opacity:1"
       d="m 281.93946,73.456094 c 0.86548,0.218839 1.83915,8.644058 2.59646,13.458472 0.64912,5.361503 1.19005,7.221623 1.19005,7.659296"
       id="path56863" />
    <path
       style="fill:none;stroke:#64648a;stroke-width:0.544004px;stroke-linecap:butt;stroke-linejoin:miter;stroke-miterlimit:4;stroke-dasharray:none;stroke-opacity:1"
       d="m 288.21426,80.568294 c 0,-1.641275 0,-3.173133 0,-4.814408 2.81283,-1.96953 6.70754,-2.516626 9.84494,-0.656517 0,0.437672 0.32456,5.908604 0.7573,10.504178 0.32457,4.595574 0.64912,8.315797 0.75731,8.75347"
       id="path56865" />
    <path
       style="fill:none;stroke:#64648a;stroke-width:0.544004px;stroke-linecap:butt;stroke-linejoin:miter;stroke-miterlimit:4;stroke-dasharray:none;stroke-opacity:1"
       d="m 251.6473,168.43132 c 2.27192,-7.00278 -0.21636,-13.23963 -5.84204,-11.70777 -5.40932,0.21883 -7.78942,8.97231 -2.59648,9.5194 2.81284,0.98477 5.73388,5.79918 8.33034,8.97232 2.48829,3.39197 4.65201,5.14266 5.95025,6.23685 2.59646,2.29779 1.51461,10.72301 -5.95025,10.28533 -3.78652,0.87535 -7.35666,-0.65651 -9.52039,-1.96953 -2.05554,-1.75069 -2.81283,-3.39197 -0.97367,-9.40999"
       id="path56867" />
    <path
       style="fill:none;stroke:#64648a;stroke-width:0.544004px;stroke-linecap:butt;stroke-linejoin:miter;stroke-miterlimit:4;stroke-dasharray:none;stroke-opacity:1"
       d="m 261.60044,171.16678 c -2.27191,7.00278 -1.94735,21.11777 0.97368,21.66486 1.40642,-0.21884 2.70466,-4.37674 3.78652,-8.20639 1.08186,-3.93907 1.73097,-7.7687 1.94735,-10.83243 2.59647,16.30335 5.73387,18.16347 8.22215,15.20917 1.29824,-1.86011 0.54094,-5.03325 -0.43274,-9.40998 -0.97368,-4.04849 -2.27191,-9.30058 -2.3801,-9.95708"
       id="path56869" />
    <path
       style="fill:none;stroke:#64648a;stroke-width:0.544004px;stroke-linecap:butt;stroke-linejoin:miter;stroke-miterlimit:4;stroke-dasharray:none;stroke-opacity:1"
       d="m 280.85759,183.31223 c 1.51461,-2.84487 4.65201,-2.07895 6.70754,-2.18837 2.05555,-0.6565 3.13741,-1.42244 1.51461,-3.93906 -1.94735,-2.73546 -4.43563,-3.17314 -6.2748,-0.98477 -1.73098,1.86012 -2.81284,6.34627 -1.73098,9.19115 2.05554,7.54988 9.5204,4.81441 9.41221,5.03325"
       id="path56871" />
    <path
       style="fill:none;stroke:#64648a;stroke-width:0.544004px;stroke-linecap:butt;stroke-linejoin:miter;stroke-miterlimit:4;stroke-dasharray:none;stroke-opacity:1"
       d="m 292.75808,185.17235 c 1.62279,-3.06372 3.8947,-0.21885 5.40931,-0.87535 1.62279,0 2.59647,-3.50139 1.83917,-3.82964 -1.40643,-4.70501 -3.57016,-4.26733 -5.73388,-1.53187 -1.94735,4.04848 -3.57014,15.42801 5.30113,12.69255"
       id="path56873" />
    <path
       style="fill:none;stroke:#64648a;stroke-width:0.544004px;stroke-linecap:butt;stroke-linejoin:miter;stroke-miterlimit:4;stroke-dasharray:none;stroke-opacity:1"
       d="m 308.98601,196.00478 c -1.29823,-7.87814 -2.59647,-12.80196 -3.67833,-17.1787 0,-0.10943 -0.43275,0.10941 0.21638,-0.87535 0.7573,-0.76593 2.59645,-1.86012 8.00577,-0.65652 4.97657,4.37674 6.16662,5.03326 5.5175,7.00279 -0.64912,1.42244 -3.13741,4.26731 -5.5175,2.62604 -4.7602,-1.86011 -6.49117,-0.65651 -6.49117,-0.76593"
       id="path56875" />
    <path
       style="fill:none;stroke:#64648a;stroke-width:0.544004px;stroke-linecap:butt;stroke-linejoin:miter;stroke-miterlimit:4;stroke-dasharray:none;stroke-opacity:1"
       d="m 328.78409,177.62247 c 0.32456,-0.10942 2.16372,-7.98754 -1.73098,-6.23686 -3.89471,1.0942 -6.70755,7.22163 -2.59646,6.01802 2.27191,-0.32825 5.73386,4.37674 8.00577,5.9086 2.38011,2.18837 3.78652,1.31302 2.05555,4.81441 -1.73099,2.40721 -3.67835,3.17314 -5.19295,3.72023 -1.51461,0.43768 -2.81284,0.65651 -3.57014,-0.87535 -1.29823,-3.17313 -3.57015,-8.09696 -3.57015,-7.44045"
       id="path56877" />
    <path
       style="fill:none;stroke:#64648a;stroke-width:0.544004px;stroke-linecap:butt;stroke-linejoin:miter;stroke-miterlimit:4;stroke-dasharray:none;stroke-opacity:1"
       d="m 338.62903,167.55597 c 0.43276,3.39197 0.86549,6.01802 1.40644,11.27011 0.43273,5.3615 0.97367,7.44045 1.40641,10.06649"
       id="path56879" />
    <path
       style="fill:none;stroke:#64648a;stroke-width:0.544004px;stroke-linecap:butt;stroke-linejoin:miter;stroke-miterlimit:4;stroke-dasharray:none;stroke-opacity:1"
       d="m 332.46242,178.06015 c 4.43564,-1.31303 9.62858,-4.705 13.95602,-2.2978"
       id="path56881" />
    <path
       style="fill:none;stroke:#64648a;stroke-width:0.544004px;stroke-linecap:butt;stroke-linejoin:miter;stroke-miterlimit:4;stroke-dasharray:none;stroke-opacity:1"
       d="m 350.09679,169.41608 c 0,0 1.83915,-0.76592 3.8947,-0.54709 2.05553,0 4.32744,2.29779 4.97656,4.81442 1.40641,5.14267 1.83917,12.69254 1.83917,13.23963 0,-0.21883 -0.97366,-1.09419 -2.59646,-3.50139 -1.62279,-2.18837 -3.67836,-5.79918 -5.84206,-7.00278 -2.16374,-1.2036 -4.11109,2.40721 -5.08477,5.3615 -0.86549,3.06372 -0.75729,5.58034 1.51463,6.67453 4.43561,2.18837 12.00866,-1.64128 12.00866,-1.53186"
       id="path56883" />
    <path
       style="fill:none;stroke:#64648a;stroke-width:0.544004px;stroke-linecap:butt;stroke-linejoin:miter;stroke-miterlimit:4;stroke-dasharray:none;stroke-opacity:1"
       d="m 363.07913,167.88423 c 0,0.87535 0.64913,4.37674 1.29824,9.62882 0.64912,4.92384 1.29823,11.59836 1.29823,11.59836 0,-3.39197 0,-6.45569 0,-9.40999 0,-1.09418 1.51459,-1.53186 3.02921,-3.50139 1.4064,-1.64128 2.92103,-4.92383 2.92103,-4.37674"
       id="path56885" />
    <path
       style="fill:none;stroke:#64648a;stroke-width:0.544004px;stroke-linecap:butt;stroke-linejoin:miter;stroke-miterlimit:4;stroke-dasharray:none;stroke-opacity:1"
       d="m 366.4329,179.70142 c 1.83918,0.32826 4.21926,5.58034 6.16661,6.56511"
       id="path56887" />
    <path
       style="fill:none;stroke:#64648a;stroke-width:0.544004px;stroke-linecap:butt;stroke-linejoin:miter;stroke-miterlimit:4;stroke-dasharray:none;stroke-opacity:1"
       d="m 377.68428,177.29421 c 2.05552,0.32826 3.35376,1.2036 4.00288,0.65652 0.64911,-0.43768 0.75729,-2.29779 0.54094,-3.28256 -0.43276,-2.84488 -2.38012,-5.47092 -3.78653,-2.51663 -1.19006,2.40721 -1.94736,7.00279 -1.94736,9.62883 0.10818,2.84488 1.08186,3.72023 3.13741,3.61081 4.21927,-0.98476 3.89471,-4.1579 3.89471,-4.26732"
       id="path56889" />
    <path
       style="fill:none;stroke:#64648a;stroke-width:0.544004px;stroke-linecap:butt;stroke-linejoin:miter;stroke-miterlimit:4;stroke-dasharray:none;stroke-opacity:1"
       d="m 395.75135,175.87178 c -2.2719,-6.23685 -7.68119,-6.56511 -8.87126,-3.28256 -0.97367,1.42244 3.02921,-0.32825 6.81573,3.50139 3.89472,4.04849 7.57303,5.58034 6.2748,7.54988 -2.38008,4.04848 -7.89758,4.37674 -9.304,-2.40721"
       id="path56891" />
    <path
       style="fill:none;stroke:#64648a;stroke-width:0.544004px;stroke-linecap:butt;stroke-linejoin:miter;stroke-miterlimit:4;stroke-dasharray:none;stroke-opacity:1"
       d="m 441.51413,161.75679 c 0.54094,10.28534 0.97367,18.27289 1.6228,31.73135 1.51462,-1.20359 3.02923,-2.4072 4.54382,-2.95429 1.51462,-0.65651 3.02923,-0.54709 4.54381,-2.40721"
       id="path56893" />
    <path
       style="fill:none;stroke:#64648a;stroke-width:0.544004px;stroke-linecap:butt;stroke-linejoin:miter;stroke-miterlimit:4;stroke-dasharray:none;stroke-opacity:1"
       d="m 453.30645,165.80528 c 0.43273,0.76592 0.97367,3.82965 1.40641,4.48615"
       id="path56895" />
    <path
       style="fill:none;stroke:#64648a;stroke-width:0.544004px;stroke-linecap:butt;stroke-linejoin:miter;stroke-miterlimit:4;stroke-dasharray:none;stroke-opacity:1"
       d="m 455.79472,174.88701 c 0.43276,3.06372 0.86549,5.47092 1.40644,10.28534 0.43273,4.81441 0.86547,6.78394 1.29823,9.19115"
       id="path56897" />
    <path
       style="fill:none;stroke:#64648a;stroke-width:0.544004px;stroke-linecap:butt;stroke-linejoin:miter;stroke-miterlimit:4;stroke-dasharray:none;stroke-opacity:1"
       d="m 460.87948,174.44934 c 0.8655,6.12743 1.94735,11.37951 3.02919,20.57067 0,-0.43768 -2.59646,-11.81719 1.73101,-16.08452 4.652,-4.26732 6.0584,9.30057 6.49118,12.69255 0,0.10941 -1.6228,-11.16068 1.73097,-14.00557 3.46196,-3.39197 6.49116,3.93907 8.43853,12.25487"
       id="path56899" />
    <path
       style="fill:none;stroke:#64648a;stroke-width:0.544004px;stroke-linecap:butt;stroke-linejoin:miter;stroke-miterlimit:4;stroke-dasharray:none;stroke-opacity:1"
       d="m 484.24771,169.41608 c 0.8655,0.43768 1.73097,3.39198 2.59647,3.93907"
       id="path56901" />
    <path
       style="fill:none;stroke:#64648a;stroke-width:0.544004px;stroke-linecap:butt;stroke-linejoin:miter;stroke-miterlimit:4;stroke-dasharray:none;stroke-opacity:1"
       d="m 487.06057,177.07538 c 0.75729,3.82964 1.73097,14.44323 2.59647,16.95986"
       id="path56903" />
    <path
       style="fill:none;stroke:#64648a;stroke-width:0.544004px;stroke-linecap:butt;stroke-linejoin:miter;stroke-miterlimit:4;stroke-dasharray:none;stroke-opacity:1"
       d="m 493.0108,168.3219 c 0.54094,3.82964 0.97368,6.78394 1.51462,12.80196 0.54091,6.01802 0.97367,8.42522 1.40641,11.37952"
       id="path56905" />
    <path
       style="fill:none;stroke:#64648a;stroke-width:0.544004px;stroke-linecap:butt;stroke-linejoin:miter;stroke-miterlimit:4;stroke-dasharray:none;stroke-opacity:1"
       d="m 490.84706,181.67095 c 3.02924,-1.31302 6.59939,-3.82964 9.52041,-2.4072"
       id="path56907" />
    <path
       style="fill:none;stroke:#64648a;stroke-width:0.544004px;stroke-linecap:butt;stroke-linejoin:miter;stroke-miterlimit:4;stroke-dasharray:none;stroke-opacity:1"
       d="m 505.01947,182.98397 c 2.16374,0.98477 3.89471,0.87535 4.7602,-0.43767 0.86548,-1.31302 1.08186,-3.82965 0.32457,-4.37674 -0.75734,-0.87535 -2.70468,-0.21883 -4.21927,2.07895 -1.51462,2.29779 -2.92102,6.34627 -2.59647,9.51941 0.32456,5.47093 8.22214,-0.65651 8.11397,-0.65651"
       id="path56909" />
    <path
       style="fill:none;stroke:#64648a;stroke-width:0.544004px;stroke-linecap:butt;stroke-linejoin:miter;stroke-miterlimit:4;stroke-dasharray:none;stroke-opacity:1"
       d="m 525.25028,172.26097 c 0.32456,7.76871 0.75733,12.80196 1.08189,18.3823 0,-0.21884 -0.64912,-2.07896 -1.94735,-4.92383 -1.29824,-2.73547 -3.24559,-6.56511 -5.84206,-6.78395 -2.48829,0.98477 -3.78653,5.47093 -3.8947,8.09697 -0.10821,2.9543 0.97367,3.82965 2.92102,4.92383 4.00288,-0.65651 8.33032,-2.62605 8.33032,-2.9543"
       id="path56911" />
    <path
       style="fill:none;stroke:#64648a;stroke-width:0.544004px;stroke-linecap:butt;stroke-linejoin:miter;stroke-miterlimit:4;stroke-dasharray:none;stroke-opacity:1"
       d="m 242.99241,215.70009 c 0,1.09419 0.21637,1.53187 0.43275,4.04849 0.32455,2.18837 0.7573,6.56511 1.08185,10.61359 0.43276,4.1579 0.8655,7.98755 1.08187,9.62883 0.21638,1.96953 0.32456,1.64127 0.21638,2.95429"
       id="path56913" />
    <path
       style="fill:none;stroke:#64648a;stroke-width:0.544004px;stroke-linecap:butt;stroke-linejoin:miter;stroke-miterlimit:4;stroke-dasharray:none;stroke-opacity:1"
       d="m 252.5128,219.63916 c 0.86549,-0.98476 3.67833,-1.96953 5.62568,-1.09419 2.05554,0.76593 3.02922,3.28256 0.21638,6.45569 -2.92104,2.18838 -4.86838,3.82965 -6.16663,5.9086 -1.19004,1.96953 -1.73096,4.37674 -1.83915,3.82965 0,0.32825 0.7573,-1.96953 1.94734,-3.06372 1.19006,-1.2036 2.81285,-1.2036 4.54382,0 1.6228,0.87535 3.24559,2.51663 4.54383,3.17313 1.29823,0.87535 2.16373,0.76593 2.27191,2.73547 0.21638,3.39197 -0.43275,7.65929 -1.5146,9.84766 -1.08187,2.29779 -2.70467,2.73546 -4.21927,2.73546 -1.62279,-0.21883 -3.57014,-2.73546 -4.7602,-5.03324 -1.19004,-2.51663 -1.73097,-4.81442 -0.54093,-8.09697"
       id="path56915" />
    <path
       style="fill:none;stroke:#64648a;stroke-width:0.544004px;stroke-linecap:butt;stroke-linejoin:miter;stroke-miterlimit:4;stroke-dasharray:none;stroke-opacity:1"
       d="m 264.19691,218.54497 c 0.64911,4.37675 1.40642,7.76872 2.16373,14.7715 0.32455,3.06372 0.64912,6.01801 1.08186,7.87813 0.32456,2.07895 0.7573,3.06372 1.08187,5.25208"
       id="path56917" />
    <path
       style="fill:none;stroke:#64648a;stroke-width:0.544004px;stroke-linecap:butt;stroke-linejoin:miter;stroke-miterlimit:4;stroke-dasharray:none;stroke-opacity:1"
       d="m 275.98921,225.21951 c -3.02921,-5.25209 -6.2748,-3.06372 -6.59936,2.62604 -0.21637,3.06371 0.21637,7.00277 1.19005,11.9266 1.08186,4.48617 2.70466,10.17593 4.86838,8.09698 2.27191,0.32825 3.57014,-5.03325 3.78651,-9.08174 0.21638,-4.37673 -0.75729,-7.65929 -3.24558,-13.56788 z"
       id="path56919" />
    <path
       style="fill:none;stroke:#64648a;stroke-width:0.544004px;stroke-linecap:butt;stroke-linejoin:miter;stroke-miterlimit:4;stroke-dasharray:none;stroke-opacity:1"
       d="m 284.31955,217.45079 c 1.19005,3.93907 2.48828,7.22162 3.78652,13.89614 1.29823,7.00279 2.59647,9.84767 3.78652,13.13022"
       id="path56921" />
    <path
       style="fill:none;stroke:#64648a;stroke-width:0.544004px;stroke-linecap:butt;stroke-linejoin:miter;stroke-miterlimit:4;stroke-dasharray:none;stroke-opacity:1"
       d="m 328.56771,239.22506 c -1.08185,-9.19114 -2.27191,-15.09974 -3.24559,-20.57066 -0.21636,-0.32826 2.92104,-2.40721 5.95026,-2.07896 3.02921,0.10942 5.84206,4.26732 5.4093,6.23686 -0.21636,2.18836 -2.59647,5.9086 -4.97656,5.3615 -2.3801,-0.65651 -4.65201,0.32825 -4.65201,0.76593"
       id="path56923" />
    <path
       style="fill:none;stroke:#64648a;stroke-width:0.544004px;stroke-linecap:butt;stroke-linejoin:miter;stroke-miterlimit:4;stroke-dasharray:none;stroke-opacity:1"
       d="m 337.33079,227.07962 c 0,0.32825 0.64912,3.06371 1.29824,6.89336 0.75733,3.72023 1.51462,8.53464 1.62278,7.44045 0.32457,0 -2.81281,-14.22439 -1.62278,-14.66206 1.29823,-2.40721 4.21926,1.96953 4.11108,1.96953"
       id="path56925" />
    <path
       style="fill:none;stroke:#64648a;stroke-width:0.544004px;stroke-linecap:butt;stroke-linejoin:miter;stroke-miterlimit:4;stroke-dasharray:none;stroke-opacity:1"
       d="m 345.9857,233.97298 c 2.59647,-3.50139 4.97656,-1.42244 6.81573,-0.98477 1.73097,0.76593 2.81286,0 2.70465,0.43768 0,0.87535 -0.97368,-6.12744 -5.73385,-6.89337 -2.27191,-0.54709 -3.78653,4.37674 -4.00292,8.64407 -0.32455,4.37674 0.64913,7.98754 3.46198,8.64405 5.62567,-0.32825 7.14029,-3.72023 7.14029,-4.1579"
       id="path56927" />
    <path
       style="fill:none;stroke:#64648a;stroke-width:0.544004px;stroke-linecap:butt;stroke-linejoin:miter;stroke-miterlimit:4;stroke-dasharray:none;stroke-opacity:1"
       d="m 367.73114,227.51729 c -2.16374,-4.37674 -3.78654,-5.47093 -5.84207,-3.61081 -1.94735,1.96953 -3.35376,5.47092 0.86551,6.23685 2.27191,0.98477 5.19293,3.06372 7.03208,3.93906 1.94735,1.20361 2.70467,1.31303 0.75733,4.04849 -4.11109,3.50139 -15.57882,7.22162 -13.09056,-2.18837"
       id="path56929" />
    <path
       style="fill:none;stroke:#64648a;stroke-width:0.544004px;stroke-linecap:butt;stroke-linejoin:miter;stroke-miterlimit:4;stroke-dasharray:none;stroke-opacity:1"
       d="m 375.19598,218.43555 c 0,0.98477 0.10818,1.31303 0.21639,3.28256 0.21634,1.86012 0.43273,5.36151 0.64911,8.8629 0.21636,3.39197 0.43273,6.78394 0.64912,8.3158 0.10817,1.75069 0.21635,1.64128 0.21635,2.40721"
       id="path56931" />
    <path
       style="fill:none;stroke:#64648a;stroke-width:0.544004px;stroke-linecap:butt;stroke-linejoin:miter;stroke-miterlimit:4;stroke-dasharray:none;stroke-opacity:1"
       d="m 370.76034,228.28322 c 3.67835,-1.2036 8.00579,-4.1579 11.68411,-2.18837"
       id="path56933" />
    <path
       style="fill:none;stroke:#64648a;stroke-width:0.544004px;stroke-linecap:butt;stroke-linejoin:miter;stroke-miterlimit:4;stroke-dasharray:none;stroke-opacity:1"
       d="m 391.42391,226.09485 c -4.7602,-3.93906 -7.7894,-1.31302 -7.35667,5.47092 0.32456,5.36151 2.92103,11.59836 6.38301,8.75348 1.83916,-0.21884 2.81284,-3.39197 3.0292,-5.79918 0.21637,-2.73546 -0.43274,-4.59557 -2.05554,-8.42522 z"
       id="path56935" />
    <path
       style="fill:none;stroke:#64648a;stroke-width:0.544004px;stroke-linecap:butt;stroke-linejoin:miter;stroke-miterlimit:4;stroke-dasharray:none;stroke-opacity:1"
       d="m 394.99406,223.79706 c 1.40641,4.04849 3.13742,8.8629 4.86839,16.63161 0,-0.21884 -3.57016,-12.03603 0.64911,-16.41277 2.16373,-3.61081 4.652,1.31302 6.49118,5.79918 1.73096,4.70499 3.0292,8.97231 2.92102,11.05126"
       id="path56937" />
    <path
       style="fill:none;stroke:#64648a;stroke-width:0.544004px;stroke-linecap:butt;stroke-linejoin:miter;stroke-miterlimit:4;stroke-dasharray:none;stroke-opacity:1"
       d="m 440.10771,245.3525 c -0.64911,-11.27011 -1.08184,-17.94463 -1.62278,-26.26043 -0.32456,-0.32826 4.00287,-0.65652 7.03211,1.53186 3.24558,2.9543 5.30112,5.03324 2.16371,6.01801 -3.35377,0.76593 -5.5175,-1.2036 -6.92391,-1.09418 -1.40642,-0.32825 -1.94736,1.64128 -1.83918,0.54709"
       id="path56939" />
    <path
       style="fill:none;stroke:#64648a;stroke-width:0.544004px;stroke-linecap:butt;stroke-linejoin:miter;stroke-miterlimit:4;stroke-dasharray:none;stroke-opacity:1"
       d="m 443.3533,226.97019 c -0.10817,0 2.27191,1.96954 4.652,7.87813 1.19007,2.40721 2.38012,5.03326 3.24559,6.23686 0.8655,1.31302 1.40645,1.42244 1.40645,1.96953"
       id="path56941" />
    <path
       style="fill:none;stroke:#64648a;stroke-width:0.544004px;stroke-linecap:butt;stroke-linejoin:miter;stroke-miterlimit:4;stroke-dasharray:none;stroke-opacity:1"
       d="m 456.98477,246.33726 c -0.64911,-10.50417 -1.29823,-16.74102 -1.83918,-24.40031 -0.21634,0 3.13741,-0.54709 6.383,1.96953 1.73097,1.09418 3.35377,4.26732 4.65199,6.34627 1.29825,2.18837 2.16375,3.28255 2.16375,5.25209 0.54094,8.86289 -11.35956,9.73824 -11.35956,10.83242 z"
       id="path56943" />
    <path
       style="fill:none;stroke:#64648a;stroke-width:0.544004px;stroke-linecap:butt;stroke-linejoin:miter;stroke-miterlimit:4;stroke-dasharray:none;stroke-opacity:1"
       d="m 504.69491,225.43834 c 2.81285,-4.59558 -1.83917,-11.81719 -7.46485,-8.42522 -5.51749,2.4072 1.51462,4.92383 4.76021,9.84766 3.13738,6.01801 11.25134,10.83243 5.51749,14.99033 -2.92102,1.09418 -8.11396,3.06371 -11.79231,1.53185 -3.7865,-2.51662 -5.95024,-4.8144 -2.92103,-14.77149"
       id="path56945" />
    <path
       style="fill:none;stroke:#64648a;stroke-width:0.544004px;stroke-linecap:butt;stroke-linejoin:miter;stroke-miterlimit:4;stroke-dasharray:none;stroke-opacity:1"
       d="m 507.39956,220.07683 c 0.1082,0.98477 3.8947,-1.2036 7.68123,-1.42243 3.8947,-0.65652 7.78941,0.21883 7.57303,0.98476"
       id="path56947" />
    <path
       style="fill:none;stroke:#64648a;stroke-width:0.544004px;stroke-linecap:butt;stroke-linejoin:miter;stroke-miterlimit:4;stroke-dasharray:none;stroke-opacity:1"
       d="m 515.40535,218.76381 c 0.43273,4.04849 0.75729,7.1122 1.19006,13.13022 0.32456,6.12743 0.75729,8.53464 1.19003,11.59836"
       id="path56949" />
    <path
       style="fill:none;stroke:#64648a;stroke-width:0.544004px;stroke-linecap:butt;stroke-linejoin:miter;stroke-miterlimit:4;stroke-dasharray:none;stroke-opacity:1"
       d="m 532.82335,214.60591 c -2.92104,1.2036 -5.95027,0.76593 -8.43853,4.70499 -0.10822,0.32826 0.97367,15.31859 2.59646,22.32137 0.86548,3.61081 3.35377,3.72023 5.73386,3.28255 2.48829,-0.76593 4.97658,-1.96953 5.84205,-5.47092"
       id="path56951" />
    <path
       style="fill:none;stroke:#64648a;stroke-width:0.544004px;stroke-linecap:butt;stroke-linejoin:miter;stroke-miterlimit:4;stroke-dasharray:none;stroke-opacity:1"
       d="m 525.57484,233.5353 c 2.81286,-1.09418 6.27483,-3.50138 9.08764,-2.18837"
       id="path56953" />
    <path
       style="fill:none;stroke:#64648a;stroke-width:0.544004px;stroke-linecap:butt;stroke-linejoin:miter;stroke-miterlimit:4;stroke-dasharray:none;stroke-opacity:1"
       d="m 555.86701,216.35661 c 0.43273,2.62604 0.86547,4.04848 1.40641,6.45569 0.43273,2.29779 0.97367,5.58034 1.40641,8.75347 0.54094,3.17314 1.08188,6.34627 1.51462,8.31581 0.43273,2.18836 0.97368,3.17313 1.40641,5.3615"
       id="path56955" />
    <path
       style="fill:none;stroke:#64648a;stroke-width:0.544004px;stroke-linecap:butt;stroke-linejoin:miter;stroke-miterlimit:4;stroke-dasharray:none;stroke-opacity:1"
       d="m 566.46924,218.98265 c 0,0.98477 0.43276,1.31302 0.97368,3.61081 0.54093,2.18837 1.29821,6.45569 2.05553,10.50417 0.75733,4.1579 1.5146,8.20639 2.05556,10.0665 0.54093,1.96954 0.97369,1.86012 0.86548,2.9543"
       id="path56957" />
    <path
       style="fill:none;stroke:#64648a;stroke-width:0.544004px;stroke-linecap:butt;stroke-linejoin:miter;stroke-miterlimit:4;stroke-dasharray:none;stroke-opacity:1"
       d="m 581.61534,224.12532 c -2.27193,-3.82965 -4.7602,16.41277 -1.73101,21.44602 3.02925,6.34627 8.11395,0.87534 8.54672,-1.31302 0.21635,-1.7507 0.4327,-4.15791 -0.32457,-6.89337 -0.32455,-1.42244 -0.86553,-3.06371 -1.94736,-5.68976 -1.08183,-2.62604 -2.48827,-6.12743 -4.54378,-7.54987 z"
       id="path56959" />
    <path
       style="fill:none;stroke:#64648a;stroke-width:0.544004px;stroke-linecap:butt;stroke-linejoin:miter;stroke-miterlimit:4;stroke-dasharray:none;stroke-opacity:1"
       d="m 637.33124,225.87601 c -2.27192,-3.82965 -4.7602,16.41278 -1.73101,21.44602 3.1374,6.34627 8.11396,0.87535 8.54672,-1.31302 0.21635,-1.75069 0.43277,-4.1579 -0.21636,-6.89336 -0.43276,-1.42244 -0.97367,-3.06372 -2.05556,-5.68976 -1.0819,-2.62605 -2.48828,-6.12744 -4.54379,-7.54988 z"
       id="path56961" />
    <path
       style="fill:none;stroke:#64648a;stroke-width:0.544004px;stroke-linecap:butt;stroke-linejoin:miter;stroke-miterlimit:4;stroke-dasharray:none;stroke-opacity:1"
       d="m 596.43685,236.38019 c 2.16366,-0.32826 4.76015,-1.7507 6.81571,-0.43768"
       id="path56963" />
    <path
       style="fill:none;stroke:#64648a;stroke-width:0.544004px;stroke-linecap:butt;stroke-linejoin:miter;stroke-miterlimit:4;stroke-dasharray:none;stroke-opacity:1"
       d="m 626.72895,219.96742 c -4.652,-1.7507 -9.62856,-1.31302 -13.73963,0.65651 0,-0.43767 -0.97368,18.81997 -0.86548,18.3823 0.10816,0.5471 1.08183,-5.58034 3.24555,-8.97231 2.05557,-3.82965 5.30112,-4.92383 9.95317,-0.54709 4.32744,5.79917 6.49115,7.44045 6.81571,11.2701 0.32456,3.28255 -1.29824,8.75347 -4.32743,9.08173 -3.1374,1.64127 -6.16665,1.53186 -8.33037,-0.76593 -2.27187,-2.07895 -3.46196,-6.45569 -3.0292,-10.17592"
       id="path56965" />
    <path
       style="fill:none;stroke:#64648a;stroke-width:0.544004px;stroke-linecap:butt;stroke-linejoin:miter;stroke-miterlimit:4;stroke-dasharray:none;stroke-opacity:1"
       d="m 650.42174,228.93973 c 1.29824,-5.58034 4.32744,-6.23685 6.70757,-6.5651 2.48827,-0.32827 4.21928,3.50138 3.1374,6.12742 -1.08189,3.72024 -3.89472,4.92384 -6.383,10.06651 -2.38013,4.48615 -4.43565,12.80196 -4.00288,13.34905 0.75733,3.06371 2.92099,3.17314 2.81284,2.95429 0,-1.31301 11.79226,-4.48615 11.90047,-4.92382"
       id="path56967" />
    <path
       style="fill:none;stroke:#64648a;stroke-width:0.544004px;stroke-linecap:butt;stroke-linejoin:miter;stroke-miterlimit:4;stroke-dasharray:none;stroke-opacity:1"
       d="m 666.54151,224.56299 c 4.43563,-1.96953 10.60222,-1.09418 15.03787,3.50139 -1.29825,7.98755 -2.81284,17.94463 -4.32744,24.50974"
       id="path56969" />
    <path
       style="fill:none;stroke:#64648a;stroke-width:0.544004px;stroke-linecap:butt;stroke-linejoin:miter;stroke-miterlimit:4;stroke-dasharray:none;stroke-opacity:1"
       d="m 245.91344,304.43847 c -0.97367,-14.55265 -1.83916,-23.41555 -2.59647,-34.02914 -0.54094,-0.65651 5.30113,-2.73546 10.2777,-0.10942 2.59646,1.31302 4.97656,5.47092 6.49116,8.53463 1.40643,3.28256 2.05555,5.47094 1.08187,10.39476 -1.73099,10.50417 -5.62569,12.36429 -8.97947,14.11498 -3.35376,1.31303 -6.27479,2.51663 -6.27479,1.09419 z"
       id="path56971" />
    <path
       style="fill:none;stroke:#64648a;stroke-width:0.544004px;stroke-linecap:butt;stroke-linejoin:miter;stroke-miterlimit:4;stroke-dasharray:none;stroke-opacity:1"
       d="m 267.65887,278.39687 c 4.97656,-4.04848 8.43853,5.25209 8.6549,7.76872 0.43274,3.17313 0.64912,13.13021 0.86549,13.23963 0.10818,-0.21884 -0.32456,-2.73546 -1.73098,-5.25208 -1.40642,-2.07896 -3.78652,-8.42523 -7.46485,-9.40999 -3.46196,0.32825 -3.78652,5.47092 -2.92103,7.22161 0.86549,1.7507 3.02921,5.68977 4.65201,6.67453 3.35377,1.09418 7.14029,-0.98476 7.14029,-0.98476"
       id="path56973" />
    <path
       style="fill:none;stroke:#64648a;stroke-width:0.544004px;stroke-linecap:butt;stroke-linejoin:miter;stroke-miterlimit:4;stroke-dasharray:none;stroke-opacity:1"
       d="m 296.54459,278.83454 c 4.86839,-3.93906 8.33034,5.25209 8.6549,7.87814 0.43275,3.17314 0.64911,13.13022 0.86549,13.13022 0.10819,-0.10943 -0.32456,-2.62605 -1.73098,-5.14267 -1.40642,-2.07896 -3.78651,-8.42522 -7.46484,-9.40999 -3.46196,0.32825 -3.8947,5.47092 -3.02923,7.22162 0.86549,1.64128 3.02923,5.68976 4.7602,6.67452 3.35377,1.09419 7.14029,-0.98476 7.14029,-1.09418"
       id="path56975" />
    <path
       style="fill:none;stroke:#64648a;stroke-width:0.544004px;stroke-linecap:butt;stroke-linejoin:miter;stroke-miterlimit:4;stroke-dasharray:none;stroke-opacity:1"
       d="m 281.39852,268.33038 c 0.21637,3.17314 0.43275,4.92382 0.64911,7.65929 0.21638,2.62605 0.43275,6.34628 0.64913,9.84766 0.21637,3.50139 0.43274,7.00278 0.64912,9.19115 0.21637,2.40721 0.43273,3.50139 0.54092,6.12743"
       id="path56977" />
    <path
       style="fill:none;stroke:#64648a;stroke-width:0.544004px;stroke-linecap:butt;stroke-linejoin:miter;stroke-miterlimit:4;stroke-dasharray:none;stroke-opacity:1"
       d="m 287.78151,269.86224 c 0,1.42243 0.10819,1.86011 0.32456,4.48615 0.10819,2.40721 0.32456,7.1122 0.64912,11.70778 0.21637,4.59557 0.43274,8.97231 0.64911,10.94184 0.10819,2.18837 0.21638,2.07896 0.21638,3.17314"
       id="path56979" />
    <path
       style="fill:none;stroke:#64648a;stroke-width:0.544004px;stroke-linecap:butt;stroke-linejoin:miter;stroke-miterlimit:4;stroke-dasharray:none;stroke-opacity:1"
       d="m 317.64091,280.25699 c -0.32455,-4.15791 -1.40642,-6.45569 -4.86838,-4.48616 -3.46196,0.65651 -7.24847,9.40999 -2.92103,6.56512 2.27191,-2.18838 5.95025,3.17313 8.87127,5.68975 2.92103,3.28255 5.19294,3.50139 4.86838,5.79918 -0.32456,2.4072 -2.81285,4.81441 -5.73387,6.23685 -2.81284,1.09418 -6.05842,1.31302 -7.68122,-5.03325"
       id="path56981" />
    <path
       style="fill:none;stroke:#64648a;stroke-width:0.544004px;stroke-linecap:butt;stroke-linejoin:miter;stroke-miterlimit:4;stroke-dasharray:none;stroke-opacity:1"
       d="m 331.056,297.76394 c -0.10819,3.39197 -0.21638,4.26732 -0.21638,8.75348"
       id="path56983" />
    <path
       style="fill:none;stroke:#64648a;stroke-width:0.544004px;stroke-linecap:butt;stroke-linejoin:miter;stroke-miterlimit:4;stroke-dasharray:none;stroke-opacity:1"
       d="m 352.3687,270.95642 c 5.51749,-0.98477 12.11685,-5.03325 17.63435,-1.42244"
       id="path56985" />
    <path
       style="fill:none;stroke:#64648a;stroke-width:0.544004px;stroke-linecap:butt;stroke-linejoin:miter;stroke-miterlimit:4;stroke-dasharray:none;stroke-opacity:1"
       d="m 361.13178,269.20572 c 0,4.92383 0,8.42522 0.10818,15.31859 0,3.06372 0,5.9086 0,7.76871 0,2.07895 0.10818,2.9543 0.10818,5.14267"
       id="path56987" />
    <path
       style="fill:none;stroke:#64648a;stroke-width:0.544004px;stroke-linecap:butt;stroke-linejoin:miter;stroke-miterlimit:4;stroke-dasharray:none;stroke-opacity:1"
       d="m 374.9796,264.39131 c 1.08188,2.62604 2.27191,4.04848 3.46197,6.56511 1.08186,2.4072 2.38008,6.12743 3.46196,9.84766 1.29825,3.61081 2.38009,7.33104 3.57016,9.73825 1.19002,2.51662 2.38008,3.82964 3.46194,6.23684"
       id="path56989" />
    <path
       style="fill:none;stroke:#64648a;stroke-width:0.544004px;stroke-linecap:butt;stroke-linejoin:miter;stroke-miterlimit:4;stroke-dasharray:none;stroke-opacity:1"
       d="m 387.09648,269.31514 c 0.21635,-1.86011 -3.78653,6.78394 -7.68123,12.58313 -3.8947,4.37674 -7.68124,20.13299 -7.46486,18.27288"
       id="path56991" />
    <path
       style="fill:none;stroke:#64648a;stroke-width:0.544004px;stroke-linecap:butt;stroke-linejoin:miter;stroke-miterlimit:4;stroke-dasharray:none;stroke-opacity:1"
       d="m 418.57867,266.25142 c 3.78649,-1.42244 9.19582,-1.31301 12.98234,3.17314 0,-0.43768 -0.97366,7.22162 -2.16373,15.09975 -1.08186,7.44045 -2.27191,13.45847 -2.27191,13.56789"
       id="path56993" />
    <path
       style="fill:none;stroke:#64648a;stroke-width:0.544004px;stroke-linecap:butt;stroke-linejoin:miter;stroke-miterlimit:4;stroke-dasharray:none;stroke-opacity:1"
       d="m 450.06087,268.33038 c -4.11109,-1.42244 -8.43853,-1.2036 -11.9005,0.76593 0,3.82964 0.10818,7.44045 0.21638,11.16068 -0.1082,-0.10942 2.48827,-5.68976 5.73385,-5.25208 3.1374,-0.10943 7.03211,2.18836 8.54674,5.47092 1.51458,3.50138 2.48825,6.01801 2.27191,9.84766 -0.21639,3.50139 -1.6228,8.42522 -4.86838,9.51941 -6.383,6.12743 -8.22219,-9.84767 -8.33036,-8.97232"
       id="path56995" />
    <path
       style="fill:none;stroke:#64648a;stroke-width:0.544004px;stroke-linecap:butt;stroke-linejoin:miter;stroke-miterlimit:4;stroke-dasharray:none;stroke-opacity:1"
       d="m 460.23036,273.69188 c 4.54382,-9.30057 14.49696,-1.53186 7.35668,5.36151 -3.46197,2.51662 -4.65204,8.3158 -4.97659,12.58311 -0.43275,4.37675 0,7.11221 0,7.11221 3.67835,-0.54709 7.35667,-1.31302 11.03499,-1.31302"
       id="path56997" />
    <path
       style="fill:none;stroke:#64648a;stroke-width:0.544004px;stroke-linecap:butt;stroke-linejoin:miter;stroke-miterlimit:4;stroke-dasharray:none;stroke-opacity:1"
       d="m 478.18926,267.23619 c 0,0.21884 -0.54091,4.81442 -1.08186,10.50418 -0.54093,5.58034 -1.08184,12.36428 -1.08184,12.03603 4.54382,-6.56511 9.52039,1.2036 14.17239,-0.43768 -0.75729,-3.61081 -1.51459,-8.09697 -2.27191,-13.45847 1.19005,10.61359 2.38011,16.19393 3.67835,23.0873"
       id="path56999" />
    <path
       style="fill:none;stroke:#64648a;stroke-width:0.544004px;stroke-linecap:butt;stroke-linejoin:miter;stroke-miterlimit:4;stroke-dasharray:none;stroke-opacity:1"
       d="m 509.23873,277.74037 c -1.19006,-1.96954 -2.70464,-2.9543 -4.43565,-2.84489 -7.35663,-0.21883 -7.14029,10.94185 -6.38296,15.20917 1.08185,5.36151 4.65199,12.80196 9.84494,9.08173 2.59647,-1.31302 5.5175,-2.07894 6.49117,-5.90859 0.43274,-1.64129 0.43274,-3.39197 -0.43273,-5.25209 -0.8655,-2.07895 -2.38012,-4.26732 -5.08477,-10.28533 z"
       id="path57001" />
  </g>
</svg>
