<?xml version="1.0" encoding="UTF-8" standalone="no"?>
<!-- Created with Inkscape (http://www.inkscape.org/) -->

<svg
   version="1.1"
   id="svg180"
   width="3000"
   height="1998.207"
   viewBox="0 0 3000 1998.207"
   sodipodi:docname="DeneyseS - Stake - Envelope14.svg"
   inkscape:version="1.2.1 (9c6d41e410, 2022-07-14)"
   xmlns:inkscape="http://www.inkscape.org/namespaces/inkscape"
   xmlns:sodipodi="http://sodipodi.sourceforge.net/DTD/sodipodi-0.dtd"
   xmlns="http://www.w3.org/2000/svg"
   xmlns:svg="http://www.w3.org/2000/svg">
  <defs
     id="defs184">
    <inkscape:perspective
       sodipodi:type="inkscape:persp3d"
       inkscape:vp_x="0 : 1220.8736 : 1"
       inkscape:vp_y="0 : 1000 : 0"
       inkscape:vp_z="3000 : 1220.8736 : 1"
       inkscape:persp3d-origin="1500 : 961.76251 : 1"
       id="perspective454" />
  </defs>
  <sodipodi:namedview
     id="namedview182"
     pagecolor="#ffffff"
     bordercolor="#000000"
     borderopacity="0.25"
     inkscape:showpageshadow="2"
     inkscape:pageopacity="0.0"
     inkscape:pagecheckerboard="0"
     inkscape:deskcolor="#d1d1d1"
     showgrid="false"
     inkscape:zoom="0.125"
     inkscape:cx="2008"
     inkscape:cy="1380"
     inkscape:window-width="1920"
     inkscape:window-height="1051"
     inkscape:window-x="-9"
     inkscape:window-y="-9"
     inkscape:window-maximized="1"
     inkscape:current-layer="g186" />
  <g
     inkscape:groupmode="layer"
     inkscape:label="Image"
     id="g186">
    <path
       style="fill:none;stroke:#9086ab;stroke-width:0.217378"
       d="m 120.25882,202.4 c -2.07814,1.64054 -3.76913,0.41961 -4.81864,-1.73903 -0.89016,-1.83152 -0.18999,-4.05061 0.28999,-5.86922 0.17151,-0.6501 0.1389,-1.09301 0.47084,-1.73903 0.26085,-0.50752 0.56323,-1.11324 0.86951,-1.52165 0.33303,-0.444 0.51932,-0.68799 1.01451,-1.0869 0.39932,-0.32174 0.79148,-0.50908 1.26797,-0.10869 0.42432,0.35633 0.25368,1.35405 0.25368,1.84772 m 31.95468,-1.95641 0.65214,0.86952 m -5.21709,-0.43476 v 3.26068 l 0.0724,1.30427 -0.0724,1.30428 -0.10869,2.60854 c -0.3833,0.63345 -0.95057,1.2301 -1.95641,1.73903 -1.5297,0.61644 -2.49638,1.21402 -3.80413,1.0869 -0.30498,0.0299 -0.5332,0.0335 -1.0409,-0.30551 -0.26337,-1.91804 2.31561,-4.84657 4.30158,-5.56372 1.13972,-0.41159 1.66317,-0.47802 2.60855,-0.65214 m 15.43389,-4.78233 c 0,0 0.33684,0.2934 0.43476,1.08689 l 1.08689,4.56496 m -94.559764,8.47777 c -0.836691,0.83673 -2.695279,3.1821 -3.912818,2.17379 -0.830605,-0.68781 -0.533883,-1.62795 -0.724523,-2.60855 -0.61779,-3.17644 0.376934,-8.28324 2.028796,-10.86894 0.374761,-0.58651 1.095806,-1.73903 1.956409,-1.73903 1.785332,0 1.853154,3.69196 1.956409,4.99972 m 94.559761,3.47806 -1.08689,-2.82593 -0.21738,-1.08689 c 1.21406,-0.51115 2.45921,0.21957 4.1302,-0.61592 0.47194,-0.23592 0.81692,-0.37933 1.26797,-0.68835 M 7.0044792,207.83447 c 1.2400807,0.26107 1.6226239,1.40294 3.0433028,1.30428 2.631631,-0.18275 5.346735,-3.99297 4.528717,-6.52137 -0.225552,-0.69713 -1.079177,-0.78754 -1.702793,-0.57966 -1.611668,0.53723 -2.9192447,1.85807 -4.7823329,1.88394 -0.8084534,0.0112 -1.8094827,0.1737 -1.956409,-0.86952 -0.1946845,-1.38231 0.7558913,-2.51383 1.2318204,-3.69544 0.2577242,-0.63988 0.4156933,-1.30171 0.6521363,-1.95641 0.282375,-0.782 1.161346,-2.29111 1.6303407,-2.82592 0.310569,-0.35418 0.6250945,-0.59532 1.0506565,-0.76083 1.933715,-0.75202 2.173788,3.65542 2.173788,4.89102 m 114.775994,2.82593 c -1.2971,-1.44983 -3.16634,-4.14224 -2.57225,-6.08661 0.17478,-0.57203 0.81843,-1.29684 1.48535,-1.63034 1.18298,-0.59153 2.83745,0.53443 3.91282,0.76083 m 3.49657,2.8773 c 0.78539,-1.49211 2.2894,-2.98675 4.54644,-3.45696 0.52215,-0.1088 1.37275,-0.2789 1.63034,0.18112 0.44672,0.79782 -1.28927,1.63801 -2.06509,2.10135 -0.65388,0.3905 -1.45818,0.9378 -2.17379,1.0869 -0.63562,0.1324 -1.36014,-0.15636 -1.95641,0.10869 -1.53122,0.68052 -2.5479,2.44609 -2.39117,4.05772 0.17152,1.76529 3.01244,2.2388 4.34758,1.77524 0.81039,-0.28137 1.96663,-0.40402 2.82592,-0.86951 M 19.612447,194.35699 c 0.402151,0.72772 0.652137,1.58517 0.652137,2.60854 0,0.44185 -0.05069,0.56541 0,1.0869 0.09336,0.96038 0,2.17379 0,3.0433 0,0.53323 0.135579,0.86023 0.292517,1.4549 l 0.142241,1.5884 0.652136,3.47806 m 132.601052,-13.2601 c 0.77017,1.46324 1.47122,3.75324 1.30427,5.86923 m -75.865191,-5.65185 -0.217378,3.47806 -0.0363,1.30427 0.253681,1.73903 0.21738,4.34758 m 2.608545,-0.43476 c 2.845052,0.52406 5.403818,-0.37285 7.825635,-1.92019 0.974944,-0.6229 2.491813,-1.86811 1.666642,-3.07952 -1.071676,-1.57315 -4.587343,-1.71621 -6.231596,-1.73903 -0.631703,-0.009 -2.562679,-0.0629 -3.007,-0.50723 -0.545186,-0.54517 0.197814,-1.17635 0.615833,-1.52166 1.144716,-0.94566 2.419861,-1.33131 3.912818,-1.44917 m 6.738743,0 0.398455,3.47806 0.446247,1.76035 -0.192569,3.45674 m 0.201757,-3.49232 c 0.338675,-0.21392 0.68776,-0.57465 1.102519,-0.89148 1.147108,-0.87621 2.430946,-2.14996 3.912818,-2.49985 1.852721,-0.43745 3.368281,1.25147 3.260681,3.18821 -0.0348,0.62511 -0.24629,1.35972 -0.36237,1.95641 -0.16325,0.84027 -0.13326,1.72035 -0.50715,2.60854 m 70.64811,-4.78234 c 1.41839,0 2.40072,-0.0926 3.69544,-0.36228 1.26449,-0.26342 1.74707,-0.2201 2.82592,-0.57971 0.50497,-0.16831 0.84843,-0.26383 1.30427,-0.43475 0.4841,-0.18156 1.66099,-0.7747 1.41297,-1.44918 -0.2752,-0.74824 -1.58709,-1.09659 -2.28248,-1.2318 -1.34514,-0.26155 -3.2046,-0.12914 -4.56495,-0.0725 -2.50796,-0.0721 -6.28042,0.48543 -4.34758,-1.73903 1.38774,-0.69383 2.91549,-1.19123 4.34758,-1.30427 M 46.350037,202.4 c -0.402803,-0.56685 -0.346284,-0.81143 -0.21738,-1.73903 0.250639,-1.80478 0.999508,-3.76761 2.173789,-4.74611 1.456437,-1.21374 3.796085,-0.29486 2.934613,1.92019 -0.604748,1.55511 -2.213133,3.25451 -3.586749,4.09398 -0.737566,0.45067 -1.040593,0.35439 -1.739031,0.90573 0.881253,1.4559 0.754522,3.97125 3.043303,4.1302 1.059503,0.0736 2.245522,-0.59053 3.043302,-1.30427 m 95.007506,-10.21874 1.50867,-0.21545 m 11.30369,0.50724 c 1.00082,-0.0834 3.0886,0.49845 4.18158,0.49845 m -84.884269,3.16396 c -0.300416,0.30852 -1.101937,0.8815 -1.394094,1.4822 -0.123906,0.25525 -0.353893,0.78596 -0.579533,1.0869 -0.731913,0.97583 -3.242638,3.5426 -4.709945,2.71723 -0.905165,-0.5091 -0.701482,-1.89426 -0.507145,-2.71723 0.447801,-1.89657 2.423339,-6.46313 4.637341,-6.52137 m -48.910222,0.21738 c -0.505625,0.27338 -0.696701,0.35224 -0.978205,0.86952 -0.213032,0.39137 -0.57888,1.41455 -0.797129,1.95641 -0.714306,1.77378 -1.346182,3.60079 -1.702728,5.43447 -0.237942,1.22373 -0.444887,4.34757 1.304273,4.34757 1.42557,0 3.417224,-2.43549 4.206744,-5.1311 l 1.078153,-3.16284 m -0.285185,-4.09665 c 0,1.46566 0.267376,3.71122 0.434758,5.21709 0.202596,1.82294 0.672134,3.5013 1.304273,5.21709 m 9.999422,-10.2168 c -0.298678,1.41829 -4.112274,4.51869 -3.536438,5.90067 0.356283,0.85486 1.632636,1.91307 2.232166,2.5771 0.444105,0.49202 0.839082,0.83917 1.304272,1.30427 0.751697,0.75177 1.194714,1.01612 1.739031,1.95641 m -7.608257,-10.43418 0.434758,3.26068 v 1.30428 l -0.217378,4.56495 m 110.259097,-7.38701 c 0.55156,1.95498 0.69869,1.48344 1.03883,2.16992 m -125.644928,1.30427 -1.60937,-0.0416 c -0.768452,0.0413 -1.642882,-0.17171 -2.520825,-0.39317 m 26.737588,0.86952 1.086894,-0.21738 m 228.254891,14.23956 c -0.13259,-1.68425 -2.85267,-7.15584 -1.2745,-8.73262 0.62823,-0.62839 1.77599,-0.68791 2.5716,-0.94198 0.99558,-0.31786 1.66512,-0.43476 2.60854,-0.43476 2.06076,0 3.88674,0.25214 5.86923,1.05068 1.59121,0.64052 3.57152,2.32804 3.18895,4.16641 -0.44129,2.11575 -2.06946,2.39116 -3.84109,2.39116 -1.44992,0 -2.60854,-0.0906 -3.91281,-0.21737 -1.3108,-0.12761 -2.61507,-0.38629 -3.69545,-0.86952 m 20.4336,1.73903 c -0.74125,-0.90821 -2.20639,-1.76316 -2.75418,-2.82592 -0.29998,-0.58497 0.26302,-1.20711 0.50866,-1.73903 1.30428,-2.84827 5.00841,-1.69827 7.24524,-1.52165 m -98.25521,0 v 4.56495 l -0.18107,1.30427 0.18107,0.86952 0.21739,2.17379 m -9.12991,-8.69516 0.0363,3.91282 -0.0363,1.30427 v 2.39117 m -16.65696,-9.16583 c 0.13384,1.42063 -0.006,4.14291 1.13035,6.23968 1.32613,2.44713 1.30277,4.43914 2.04912,5.09994 m 45.43217,-9.12991 c 0.38476,2.09466 -0.43693,4.80016 0,7.1735 m -6.30399,-6.52136 c 0.53367,0.75115 1.06482,2.00313 1.03364,3.33002 -0.0323,1.37661 0.24563,2.67757 0.27063,3.6261 m 70.43072,-6.73874 1.73904,1.08689 m -130.20989,-0.86952 0.65213,1.0869 m 96.08142,-0.43476 c 1.32602,0.39433 0.81083,1.586 0.3978,2.60855 -0.29128,0.72756 -0.53475,1.35079 -1.08688,1.88402 -0.78475,0.75995 -1.91076,2.02879 -3.22374,2.02879 -1.87815,0 -2.61723,-2.0327 -3.08025,-3.47806 -0.13912,-0.43454 -0.18912,-0.80191 -0.61518,-0.9419 -0.78908,-0.25933 -1.47383,1.14124 -2.0651,2.57224 -1.10646,2.0738 -3.1933,2.89419 -4.45626,1.63035 -0.54563,-0.54628 -1.12603,-1.96946 -1.30427,-2.60855 -0.19569,-0.70496 -0.21739,-1.14646 -0.21739,-1.95641 m -72.86968,-4.70363 c -0.58148,0.84745 -1.07299,3.06433 -0.22399,5.07031 0.9837,2.32422 1.10243,4.36693 2.01081,5.50255 m 37.17177,-0.65214 c -0.90517,0.088 -2.13421,0.23151 -2.71722,-0.86951 -0.49542,-0.93604 0.20759,-2.01663 0.72452,-2.82593 1.15992,-1.81555 3.14176,-3.22959 6.44896,-0.9782 2.0856,3.67064 -2.4421,4.47774 -4.45626,4.67364 z m 20.86836,0.57975 c 0.88909,0.65431 2.37378,0.61866 3.26068,0.47084 2.27162,-0.37845 5.69751,-1.9088 5.43447,-4.85472 l -2.08682,-1.56242 c 0,0 -1.68122,-1.08251 -2.58682,-0.93743 -1.61647,0.25895 -2.92946,1.28474 -3.86364,3.03192 -0.81492,1.52414 -1.56323,2.8185 -0.15787,3.85181 z m -36.92484,-6.01422 c 1.12342,0 2.57444,-0.0191 3.88328,0.28977 1.56056,0.36846 3.66102,1.28267 4.85792,1.28267 m -65.94136,6.2532 c -1.62209,-1.57948 -2.13727,-1.59382 -3.07961,-3.47806 -0.29194,-0.58432 -0.27585,-1.89859 0.28998,-2.60855 1.39318,-1.74837 5.30078,-0.96603 7.1372,-1.30427 m 3.69544,0.43476 c -0.0239,0.90734 -0.30498,1.56686 -0.57975,2.39116 -0.35976,1.07951 -0.28977,1.79229 -0.28977,3.04331 0,0.71691 -0.10651,1.446 0.65214,1.84772 1.85598,0.98255 4.43844,-1.93707 5.18079,-3.152 0.61105,-0.99972 1.03189,-1.42817 1.77533,-1.9564 1.26645,1.60425 0.62149,4.9171 3.0433,6.19529 1.63317,0.86191 2.9494,-0.89756 3.69544,-2.0651 1.31601,-2.05988 1.26167,-3.74 0.86952,-5.86923 m 5.21709,-0.43475 c 0.10586,1.34144 0.43476,1.30514 0.43476,2.60854 0,1.64339 -0.43476,2.08554 -0.43476,3.69544 m -70.865481,-5.65185 0.434758,0.43476 m 7.825633,0.86952 c 0.73518,-0.44498 0.93473,-0.43476 1.73903,-0.43476 1.43166,0 5.05667,1.62534 4.02151,3.69544 -1.14812,1.88491 -5.936,3.25612 -7.46366,3.40268 m 51.48286,-7.09812 v 0.65214 m -99.994232,-0.21738 c 1.131456,1.86945 0.573661,5.08449 1.304272,7.60825 m 28.911376,-7.60825 c 0.971248,1.08559 0.947118,3.56153 1.086894,4.99971 0.04348,0.44758 0.02869,0.66257 -0.0363,1.08689 -0.107819,0.70605 -0.181077,1.75099 -0.181077,2.60855 m 16.520788,-8.69515 0.688439,4.13019 0.18107,2.39117 c 0.5719,1.97677 0.51432,3.40276 0.65214,4.99971 m 12.39059,-10.65156 c 1.25449,-0.36324 2.45594,-0.85234 3.69544,-0.86951 0.81234,-0.0113 1.23058,-0.0769 1.95641,0.14499 0.70278,0.21455 1.97184,0.74213 2.13748,1.59404 0.17369,0.89342 -1.09385,1.82337 -1.70273,2.24617 -1.7712,1.22993 -4.07411,2.2803 -6.0866,3.00722 -0.57497,0.2076 -1.25493,0.3552 -1.70273,0.0724 -0.64888,-0.40976 -0.68844,-1.91337 -0.68844,-2.93461 v -1.52165 m -100.646368,8.47776 c 1.300273,1.02647 3.33909,1.30428 4.782333,1.30428 0.681874,0 1.036962,-0.16739 1.73903,-0.36237 1.541563,-0.42824 3.445323,-1.65947 2.499856,-3.55045 -0.364262,-0.72844 -1.288121,-1.19015 -2.065098,-1.44927 -0.894144,-0.29802 -1.833351,-0.40519 -2.825924,-0.25346 -0.631942,0.0965 -1.652905,0.42041 -2.173788,0.54345 -0.587966,0.13869 -1.077525,0.25063 -1.485414,-0.1813 -0.476429,-0.50431 -0.6165518,-1.70664 -0.7246108,-2.35486 -0.2188569,-1.31319 -0.3985205,-3.66783 -0.3580868,-4.65733 l 2.4594226,0.63582 2.065098,0.32607 m 54.996828,-0.65214 c -0.03652,1.38558 -0.525622,2.51747 -0.797128,3.91282 -0.0913,0.46997 -0.05434,0.65214 -0.07239,1.0869 -0.02239,0.53844 -0.289765,0.76517 -0.289765,1.30427 0,0.40128 0.158903,1.10841 0.543446,1.48535 1.668817,1.63621 3.93912,-2.73528 4.311273,-3.65914 0.511711,-1.27036 0.99516,-1.15646 1.521651,-1.99271 0.399543,-0.63475 0.434758,-1.60165 0.434758,-2.13749 m -31.085161,0.86952 c 0.318678,0.63714 0.851909,2.54464 0.398455,3.007 -0.603878,0.61605 -1.103414,0.35867 -2.137484,0.76082 -1.783376,0.69366 -3.604793,1.26037 -5.651849,1.23189 -0.769956,-0.0106 -0.167397,-0.6517 0.134542,-1.52165 1.021909,-0.89529 1.398255,-1.90503 2.290617,-2.65336 0.818431,-0.48889 1.187024,-1.2762 2.139796,-1.47684 m 88.581841,0.65214 c 1.51209,1.33297 0.7217,2.21944 -0.9782,3.36937 -1.7862,1.25971 -2.83027,1.68577 -4.13019,1.99271 -2.17857,0.51432 -3.39329,-1.37144 -1.88403,-3.18829 0.44454,-0.53519 0.92647,-0.79605 1.44927,-1.30428 0.56431,-0.54844 0.95168,-0.88668 1.73903,-1.05059 0.8969,-0.18694 1.47144,-0.25368 2.71723,-0.14499 z m -50.323178,0 c 0,2.02314 -0.203902,3.7487 -1.304272,5.43447 -0.382587,0.58627 -1.402964,2.18813 -2.391167,1.63034 -0.849734,-0.47976 -0.652137,-1.76859 -0.652137,-2.71724 0,-1.58643 -0.144498,-2.33477 -0.484476,-2.9806 m -45.074058,-0.46758 c -0.08353,1.19717 -0.518584,2.02563 -1.201339,2.74342 -2.157088,1.36043 -4.38198,4.22026 -3.128554,5.81317 0.524362,0.66638 1.20493,-0.0752 2.499855,-0.47106 0.696047,-0.2126 1.359053,-0.40107 1.956409,-0.72453 1.021681,-0.55344 3.47806,-1.51404 3.47806,-3.0433 0,-1.47383 -2.188569,-1.67969 -3.043302,-1.73903 -1.027114,-0.0713 -0.847777,-0.0435 -1.956408,0.32607 -0.655181,0.21846 -0.865385,0.0413 -1.521653,0.10501 -0.855384,0.0833 -3.248834,0.30518 -3.58675,-0.43108 -0.263745,-0.57453 0.513602,-1.32319 0.978205,-1.70273 1.002312,-0.81887 2.397036,-1.34057 3.695439,-1.34057 m 55.700495,4.44544 c 0.935816,-1.31688 3.48305,-2.77663 5.165562,-2.70641 2.352689,0.098 3.043301,2.07314 3.043301,4.13019 m 3.260683,-4.13019 c -0.128351,2.18093 -0.589312,3.73359 -1.086894,5.21709 m -49.326477,-4.41746 1.068391,3.54794 m 65.887865,-1.40703 c 0.38185,3.86561 -0.15883,3.6951 -0.23948,5.53723 m 67.38742,1.73903 c 0.8856,1.46296 0.62018,4.38757 0.28978,6.0866 -0.175,0.90082 0.14498,1.87729 0.14498,2.60855 m -30.43303,-8.26039 -0.72452,4.99971 -0.0363,1.70273 1.41297,0.0726 c 2.41882,-0.27286 5.17349,-0.0699 6.94784,-1.25578 m 6.9644,3.39326 c 1.92489,0 3.64978,-0.004 5.65185,-0.61583 1.1808,-0.36085 2.32791,-1.36645 1.88402,-2.64485 -0.79668,-2.29422 -3.59827,-1.52165 -5.14471,-1.52165 -0.41932,0 -0.92168,-0.13869 -1.30427,-0.47106 -0.69844,-0.60671 -0.30558,-1.34253 -0.21738,-2.13749 0.0791,-0.71148 0.0833,-0.73061 0.21738,-1.30427 1.144,0.66787 2.28002,0.64114 3.0433,1.08689 m 20.43361,0.21738 c -0.65463,-0.3983 -1.53706,-0.43946 -1.73903,-0.86951 0.22085,1.85097 0.10847,2.85135 1.08688,3.36936 0.5402,0.28607 0.97974,0.0104 1.52166,-0.0724 1.5523,-0.23716 4.52909,-0.57931 5.61555,0.83322 0.93016,1.20927 -0.89387,2.41138 -1.92012,2.75353 -2.98003,0.99321 -5.29469,1.1932 -8.47777,0.94191 m 15.65128,0 c -1.48599,-0.87908 -1.6636,-2.07901 -0.90582,-3.47806 0.73561,-1.35775 3.10396,-3.97259 4.60127,-4.49257 0.57518,-0.19955 1.31992,-0.13781 1.70272,0.1813 0.37281,0.31063 0.49584,0.64453 0.76084,1.05059 0.52213,0.79974 0.91732,2.1414 1.26817,3.0433 0.40346,1.03755 0.78235,2.41443 -0.68844,4.02151 -2.85504,0.76083 -4.87885,0.77409 -6.73874,-0.32607 z M 85.695594,231.74614 c 0.06304,2.39356 0.178902,5.52229 0.434758,7.82563 0.0426,0.38302 0.170859,0.93125 -0.07239,1.26797 -0.315853,0.43715 -0.944512,0.60323 -1.449266,0.86952 -1.051896,0.55518 -1.809678,0.75865 -2.825923,0.94212 -1.262536,0.22781 -3.447193,0.63518 -4.057809,-1.1232 -0.718221,-2.06836 2.088574,-4.53626 3.840431,-5.1447 1.171018,-0.4065 1.753376,0.0502 1.956408,1.01451 m 71.952377,-5.65185 c 0.2615,2.65038 0.23252,5.33572 0.43476,8.04301 m -36.30226,-6.95612 c 2.13705,0.61866 1.15776,5.44034 1.95641,7.60826 m -11.3037,-6.08661 c 1.47188,0 2.61094,0.0626 3.69544,1.0869 0.5828,0.5504 1.38384,1.20254 1.66665,1.95641 0.15738,0.41954 0.18825,0.82603 0.10869,1.30427 -0.18912,1.13406 -1.26015,1.9525 -2.21009,2.42747 -1.50926,0.75452 -5.01341,1.60121 -6.73874,0.9782 -1.73577,-0.62692 -2.00206,-2.304 -1.34058,-3.84043 0.90777,-2.10836 2.39812,-4.02303 4.60126,-4.81863 0.63605,-0.22956 1.06015,-0.34194 1.73903,-0.18108 m 18.69457,0.86952 c 0.81582,1.93771 -0.25346,4.34561 1.30427,6.0866 m -76.952081,-1.30427 c -1.077781,-0.0598 -2.135838,-0.13966 -4.564954,0.21738 -0.807128,0.0224 -1.149535,0.70919 -1.702982,-0.19902 -0.18662,-0.30628 -0.218902,-0.72997 -0.400203,-1.08884 -0.26269,-0.51997 -0.08718,-0.79734 -0.02098,-1.13319 0.177155,-0.89886 0.753161,-1.41569 1.689412,-1.63676 1.689033,-0.39868 3.388065,0.0709 4.999712,0.57975 m -44.562656,10.86893 c 1.217712,-2.43551 1.306924,-5.88661 1.702793,-8.47777 0.18321,-1.19928 0.03624,-1.43383 1.123132,-1.63034 2.01047,1.73164 2.701191,2.27595 3.49504,3.18127 0.395264,-0.55633 3.104186,-2.23263 3.678458,-2.38414 0.435018,-0.11478 0.790368,-0.0857 1.304272,0 1.121523,0.18694 1.23632,0.76887 1.521652,1.70272 0.146447,0.47932 0.210575,0.81431 0.217379,1.30428 0.02443,1.75881 0.567619,3.71174 0.652136,4.78233 m 5.651848,-9.56466 0.682015,0.93475 m 43.663254,6.89088 c -1.350791,-0.95972 -2.048577,-2.5905 -3.260681,-3.91281 -0.431279,-0.47041 -0.81191,-0.74105 -0.905818,-1.30428 -0.065,-0.39063 0.1526,-0.97255 0.362371,-1.30427 0.995812,-1.57469 4.50974,-1.08689 6.195295,-1.08689 m 46.519056,0.43475 2.82593,0.43476 1.52165,0.0363 1.73903,0.18108 1.8654,0.10937 m -92.512351,-0.32675 0.869516,2.82592 0.652136,4.34758 m 21.303118,-6.44898 c 0.715612,-0.0796 0.977553,0.19151 1.521653,0.47106 0.561706,0.28868 1.007767,0.73778 1.521651,1.1232 0.853863,0.6404 2.768535,1.03407 2.173787,2.68093 -0.595401,1.64882 -3.960206,2.24791 -5.434469,2.39117 -1.646644,0.15999 -4.461048,0.0178 -4.927325,-1.95641 -0.128905,-0.54649 0.01674,-0.81235 0.289984,-1.30427 0.750392,-1.35101 1.33275,-1.64208 2.463554,-2.42747 0.519753,-0.36085 1.597299,-0.88995 2.391165,-0.97821 m 6.738743,0.57975 c 0.636968,0.14538 0.71252,-0.48404 2.010341,0.50242 m -20.704915,1.01923 c 0,0.93734 0.264115,2.61007 1.086894,3.91282 m -19.781466,-2.82592 c 0,0.88103 -0.14173,2.7381 -0.217378,3.69544 m 63.474601,-3.69544 c -0.845116,2.16786 -2.967068,4.50037 -4.564956,5.86923 m 216.509297,44.78002 c 0.0196,0.74844 0.15652,1.31732 0.28913,1.95641 0.10215,0.48324 0.14564,0.80452 0.14564,1.30428 0,2.32051 0.33475,5.19904 0.43476,7.60825 0.0435,1.0619 0.15651,2.72811 1.30427,3.11569 1.55425,0.52541 4.25193,-2.1014 6.0866,-2.24617 m 31.08517,-10.43418 0.43475,0.43475 m 9.3473,0.21738 c 2.48463,1.3734 2.60854,3.22199 2.88706,5.86922 0.27851,1.72641 0.84099,3.32741 1.67791,4.9997 m -43.69315,-9.9994 0.77164,0.8654 m -167.06642,13.4816 c 1.37427,1.33796 3.92956,2.66789 5.86923,2.21009 3.09873,-0.7317 3.47784,-4.34214 2.0651,-6.55767 -1.01277,-1.58817 -3.07743,-1.30427 -4.67365,-1.30427 -0.8206,0 -2.20748,0.0485 -2.39116,-1.0869 -0.24607,-1.52121 0.95864,-3.85695 1.99271,-4.9634 0.4665,-0.49932 1.0269,-1.31515 1.70273,-1.52166 1.28166,-0.39171 2.10357,1.11211 2.64485,2.13749 0.31324,0.59366 0.37976,1.02885 0.39845,1.73903 m 213.68334,-1.08689 c 0.22389,-1.06233 1.01081,-1.49427 2.39117,-1.99272 0.5478,-0.19759 0.8782,-0.28302 1.52165,-0.47084 1.36079,-0.39693 1.4173,-0.5204 2.82592,0.0724 -0.49127,1.65034 -4.08455,2.37399 -5.86923,2.57224 -0.52388,0.0585 -0.73261,0.0235 -1.30427,-0.0724 -1.50812,-0.25287 -3.31904,1.30591 -3.22373,1.63034 -0.4717,0.56344 -0.47389,0.90429 -0.83473,1.73902 -0.70866,1.64708 0.86951,2.48356 2.31944,3.00701 1.9064,0.68843 4.27366,0.16216 6.0866,0.0363 1.09342,-0.0759 1.70424,-0.43476 2.60854,-0.43476 m -102.60279,3.26068 c 2.34553,0.24694 5.65186,-0.89647 7.60827,-2.82592 0.61084,-0.60323 2.11944,-1.66491 1.4847,-2.60855 -1.16733,-1.73707 -6.33225,-1.08689 -8.22344,-1.08689 -0.82169,0 -1.73687,-0.14543 -1.91947,-1.08689 -0.1478,-0.75605 0.71083,-1.42579 1.26733,-1.81142 0.63691,-0.44237 1.78034,-0.9269 2.39116,-1.23189 0.39563,-0.19738 0.65213,-0.5617 1.0869,-0.68844 0.40649,-0.11825 0.74343,-0.002 1.0869,0.0363 0.54561,0.0606 0.94993,0.20064 1.30427,0.65213 m 46.95381,7.1735 c -0.31302,-1.07798 -0.50431,-1.98793 -0.72387,-3.0433 -0.18912,-0.90756 -0.73474,-1.99771 -0.25433,-2.82592 0.26521,-0.45737 1.00212,-0.74453 1.41297,-1.0869 2.28681,-1.90598 3.62369,-0.16499 4.9997,1.52165 0.85865,-0.70104 1.33471,-1.17319 2.39117,-1.84772 3.50414,-2.23878 4.82145,1.91772 4.78233,4.67365 -0.0152,1.08472 -0.21738,1.42926 -0.21738,2.39116 m -94.34239,-7.60825 c 0.95864,0.78169 0.72387,2.60811 0.90647,3.69544 0.10218,0.61757 0.18043,1.02385 0.18043,1.73902 0,0.45433 -0.0674,0.94756 0.25434,1.26798 0.32388,0.32389 0.60865,0.26716 1.04993,0.18129 0.59126,-0.11521 1.16081,-0.0837 1.70208,-0.61605 0.40649,-0.39911 0.40214,-0.78843 0.90647,-1.19558 0.56301,-0.45585 0.9782,-0.68497 1.52165,-1.15929 1.14559,-1.00037 2.78897,-2.73636 4.13019,-3.47806 m 10.2168,8.69515 c -1.40861,0.40802 -2.84331,0.9643 -4.34758,1.34058 -1.31731,0.32911 -4.25845,0.94603 -4.74536,-0.90582 -0.22608,-0.8543 0.62822,-2.0751 1.01298,-2.82592 0.98037,-1.90707 3.14765,-3.86369 5.03666,-4.78233 0.76518,-0.37172 1.47382,-1.05168 2.17379,-1.30428 0.56736,-0.20477 1.02167,-0.1876 1.73902,-0.21738 1.28471,-0.0535 2.0738,1.05755 1.0869,2.17379 -1.7238,1.94924 -5.28013,3.45611 -7.60826,4.1302 m -50.21449,5.57946 c 0.58279,0.49301 1.07516,0.6317 1.73903,0.76083 0.80322,0.15607 1.45774,0.27167 2.39117,0.18107 2.13683,-0.20781 5.44185,-1.41079 6.95611,-3.0433 1.99387,-3.00166 -4.04806,-2.79408 -6.0866,-3.1883 -0.93169,-0.18107 -2.0788,-0.29672 -3.04331,-0.47084 -0.6693,-0.12086 -1.69076,-0.10869 -2.13747,-0.68844 -0.56475,-0.733 0.38062,-1.5573 1.05059,-1.9201 2.08726,-1.13059 3.87607,-1.99271 6.30397,-1.99271 m 107.81988,-1.30428 c 0.39781,0.68627 0.55582,0.77643 1.01013,1.24315 m 62.68186,-0.15625 c -0.49781,-0.0785 -0.85865,-0.0552 -1.52166,0 -0.50648,0.0422 -1.81511,0.1139 -2.39116,0.28976 -1.41513,0.43237 -2.74332,0.83713 -4.13021,1.37688 -0.92603,0.35998 -3.64977,1.10015 -3.44109,2.46355 0.18477,1.20906 1.77162,1.22102 2.57158,1.37666 0.8956,0.17412 1.69339,0.0624 2.60855,-0.21738 0.66083,-0.20216 1.38903,-0.27136 4.67362,-0.9057 2.34116,-1.01786 2.29116,-1.41979 2.28247,-1.99259 -0.009,-0.68018 -0.36739,-1.71338 -0.47173,-2.39116 -0.11086,-0.72822 0.037,-1.78903 0.037,-2.60855 0,-0.90408 -0.063,-1.97097 0.14564,-3.0433 0.26956,-1.38557 -0.27171,-3.85608 1.15864,-4.78233 m -163.25147,20.86834 -0.86951,-3.04331 -0.0555,-1.55542 c -0.0527,-0.6207 -0.40191,-0.90726 -0.41622,-1.2705 -0.0848,-0.55584 -0.93038,-2.82114 -1.0869,-3.47806 -0.19564,-0.83126 -0.47822,-1.45013 -1.04994,-2.17379 m 13.69487,1.73903 c -1.46296,0.11543 -1.83251,0.51758 -2.82592,1.23189 -0.42824,0.30802 -0.63257,0.56301 -0.94126,0.9419 -0.50432,0.61757 -1.73469,1.73316 -2.28248,2.39117 -1.36824,1.51853 -2.09873,3.81481 -0.90643,4.9997 0.41085,0.39345 0.79779,0.67387 1.30427,0.90582 2.34336,1.07407 5.48665,-1.05059 7.49957,-3.0796 l 1.5586,-2.39116 0.0717,-1.30428 -0.86951,-2.60854 m -10.44136,5.03421 c -0.43476,0.20108 -0.99276,-0.28796 -1.51446,-0.46926 -0.72606,-0.25198 -0.75539,-0.233 -1.95859,-0.28885 -1.51638,-0.0941 -3.21066,-0.69919 -3.8737,-0.1096 m 110.39147,-5.2534 c 0,1.38144 0.29564,2.74484 0,4.34758 m 29.78089,-2.82593 c -1.24993,0 -1.84771,-0.21911 -3.26068,-0.43475 -1.04125,-0.15913 -0.693,0.20124 -1.93159,-0.63514 -3.50737,0.53773 -4.01371,-0.017 -5.67666,-0.017 m -5.2171,0.21736 1.0869,4.99971 m -29.12876,-4.78233 0.65213,3.91282 M 171.995,299.35092 c 1.62382,2.05683 1.2647,5.25665 0.1087,7.39088 -0.43803,0.80864 -1.91468,2.76353 -3.15201,2.06509 -0.45496,-0.25672 -0.62735,-0.92429 -0.79712,-1.41296 -0.15305,-0.44063 -0.29477,-0.74278 -0.32607,-1.30427 -0.0296,-0.53258 0.0363,-1.00429 0.0363,-1.52165 0,-1.4747 0.43476,-3.38155 0.43476,-4.78234 m -5.43443,-0.21737 c -0.0724,2.75092 -0.54715,5.3436 -0.43476,8.04301 0.0287,0.68909 0.12151,1.98228 0.86952,2.24618 1.49643,0.52823 2.39747,-1.91663 3.0796,-2.68094 0.41454,-0.46454 1.0985,-0.79696 1.40414,-1.04629 m 42.03532,0.61154 c -0.0748,-0.31564 0.007,-0.59236 0,-1.0869 -0.008,-0.61648 -0.64823,-1.99923 -0.97821,-2.60854 -1.19101,-2.19879 -4.20106,-3.90304 -6.63006,-2.78963 -0.47387,0.21716 -0.90276,0.51758 -1.30427,0.76083 -0.38888,0.23542 -0.67126,0.25325 -0.8332,0.72452 -0.51649,1.50252 1.48534,6.03857 1.8114,7.71694 0.32607,2.67506 1.12995,5.12296 1.63035,7.49957 m -14.56438,-12.39058 c 0.0546,-0.69148 0.10325,-1.12798 0.65214,-1.73903 1.13428,-1.26232 2.78506,-1.96032 4.13019,-2.42747 0.65106,-0.22608 1.07321,-0.23042 1.73904,-0.0361 0.62605,0.1826 1.60751,0.49258 1.52164,1.37666 -0.22172,2.27987 -5.19708,3.06765 -6.95611,3.04331 -0.56041,-0.008 -0.99865,-0.2776 -1.52166,-0.14499 -0.69669,0.17672 -1.04841,1.03776 -1.23188,1.66664 -0.20324,0.6967 -0.15412,1.50556 -0.14478,2.17379 0.0191,1.37731 1.32645,2.12726 2.46356,2.42746 1.88859,0.49824 3.8889,0.22043 5.43446,-0.47106 m -17.60768,-6.0866 c 0.33869,-1.6086 2.69377,-2.83462 4.56496,-3.22438 0.57888,-0.12065 0.92452,-0.22455 1.52166,-0.39867 0.84669,-0.24695 3.06742,-0.35194 2.93461,1.0145 -0.15586,1.60274 -2.37661,2.319 -3.58675,2.78963 -1.19797,0.46584 -3.30721,0.80169 -4.56495,0.43475 -0.55846,-0.16281 -0.58236,-0.53518 -1.0869,-0.50714 -0.44259,0.0246 -1.00147,0.64735 -1.30427,0.9782 -0.54824,0.59888 -1.07647,1.36927 -0.79712,2.17379 0.54474,1.56904 2.18051,2.33117 3.62304,2.39117 1.30427,0.0543 2.85831,-0.25999 4.1302,-0.50715 0.80321,-0.15629 1.79185,-0.33715 2.60855,-0.50736 0.67648,-0.14086 0.9282,-0.23999 1.30427,-0.50714 m 11.73846,-7.60826 c 0.65256,0.0172 0.83646,0.0519 1.52164,0.86951 m 49.77973,0.43476 c 0.86953,0.80039 1.77817,1.21232 2.82594,2.39117 1.00863,1.13493 1.75858,2.41116 2.82592,3.47806 m -8.2604,-5.21709 c 0,1.57491 0.42389,4.28953 1.0869,6.0866 m -7.00751,-5.6002 c 0.58728,2.20338 1.00477,2.14292 1.50675,3.20904 m -32.97528,0.21738 c -0.0516,0.8727 -0.87683,0.83274 -1.52168,1.0506 -1.05429,0.52714 -3.69849,1.43752 -4.78234,1.55795 -0.55714,0.062 -0.79973,0.33781 -1.30428,0.25368 -0.84973,-0.14173 -1.18167,-0.26694 -1.73902,-0.39867 -0.5191,-0.1226 -1.1758,-0.4478 -1.73903,-0.50715 m 253.2463,11.95583 c 2.41943,3.84869 11.54499,1.70772 10.57982,-3.26069 -0.25216,-1.28862 -0.71735,-2.85266 -2.10204,-3.33306 -1.08038,-0.37563 -2.65203,-0.20304 -3.69545,0 -0.61084,0.11868 -1.14776,0.18172 -1.73903,0.36215 -0.82603,0.25216 -2.23248,1.39557 -2.82592,1.1232 -0.53911,-0.24695 -0.43477,-0.9393 -0.43477,-1.41297 0,-0.91886 -0.27389,-3.56218 0.25434,-4.05781 0.94343,-0.8869 3.96337,-0.32365 4.89592,-0.12736 m 22.67423,1.57663 c 0.75865,-0.33998 1.46079,-0.40476 2.17378,-0.65214 1.40428,-0.4878 1.74121,-0.65214 4.67366,0.10868 -0.54128,2.71483 -4.18237,4.34691 -5.72359,6.41266 -0.55432,0.74257 -0.39562,0.94821 -0.80701,1.75367 1.70152,0.88915 2.42,-0.489 4.24815,-0.66678 2.51724,-0.24477 5.11058,-0.65214 7.60826,-0.65214 m 0.65211,-7.17347 8.043,0.21738 4.1302,0.65214 1.26732,0.86951 -0.83256,1.30428 -4.64148,5.64717 m -29.70437,-7.5312 c 0.98691,-0.15086 1.28254,0.28434 1.95641,0.72474 0.66736,0.43563 1.12819,0.76692 1.73903,1.37666 0.71083,0.71018 1.62817,1.36167 1.59338,2.60855 -0.0783,2.83984 -4.64973,3.50654 -6.5931,3.69544 -1.20862,0.11738 -3.58674,0.16434 -4.23888,-1.0869 -0.88907,-1.70272 1.56079,-4.26779 2.49987,-5.43446 0.35215,-0.43846 0.58692,-0.8693 1.08688,-1.23189 0.63909,-0.4628 1.28906,-0.54997 1.95641,-0.65214 m -76.95209,11.66605 c -2.05639,-1.02777 -4.68015,-0.98016 -6.73873,-0.57975 -0.58476,0.11391 -1.58034,0.37802 -2.17379,-0.10869 -0.76518,-0.62692 -0.45215,-1.9788 -0.68909,-2.78962 -0.21085,-0.72365 -0.55649,-0.823 -0.76083,-1.52165 -0.36301,-1.24993 -0.95864,-3.24873 -0.94125,-4.56496 0.004,-0.36976 -0.0783,-0.73865 0.25434,-0.9782 0.3065,-0.22064 0.87603,-0.10869 1.26731,-0.10869 1.50862,0 4.71278,0.10782 5.65185,1.30427 m 30.21565,-1.08689 c 1.37819,3.49197 2.78897,7.74999 4.56495,11.3037 m -11.73845,-10.86894 1.0869,1.95641 2.10204,4.34757 1.5934,4.34758 m 17.39029,-1.59404 c -1.23471,0.8693 -2.72158,1.17819 -4.13019,1.41296 -0.47171,0.0785 -0.81952,0.19455 -1.30427,0.18108 -1.43906,-0.04 -2.90418,-0.84995 -3.76718,-2.17379 -1.38035,-2.11184 1.62817,-5.56816 2.89767,-6.95612 0.46301,-0.50649 0.86951,-1.32862 1.73902,-1.48535 0.71735,-0.12934 1.05864,0.37215 1.73903,0.79691 2.89499,1.91482 6.1494,5.76274 2.82592,8.22431 z m 3.14887,-3.32443 2.72036,-0.516 h 3.04331 m -76.73471,-3.91282 3.47807,0.28977 1.73902,0.54344 1.08689,0.0726 4.56496,1.05059 m -19.78146,6.0866 c 0.96081,0.60758 2.43246,1.28667 3.69542,1.30428 1.26733,0.0176 2.00206,-0.58214 3.26069,-0.65214 1.19993,-0.0667 2.79549,-1.04494 1.6673,-2.35486 -2.11076,-2.44856 -7.07568,-1.8062 -9.71031,-2.35509 -1.06515,-0.22172 -2.41943,0.25238 -2.75419,-1.15928 -0.26085,-1.10885 1.68685,-2.10618 2.53681,-2.31878 1.54557,-0.3865 3.59109,-0.0391 4.34757,1.23189 m -33.4763,8.47777 c 0,-1.00755 -0.2652,-2.02314 -0.3978,-2.82592 -0.23042,-1.37471 -0.3065,-2.85636 -0.47171,-4.34758 -0.0587,-0.5254 -0.39128,-1.02211 -0.10869,-1.52165 0.55432,-0.98016 2.37161,-0.66605 3.36938,-0.65213 3.30414,0.0459 7.69085,1.93727 9.09294,4.99971 1.3608,2.96526 -2.95853,4.65473 -4.96275,5.0721 -1.44775,0.30193 -3.17374,-0.31912 -4.56496,-0.94191 m 42.57636,-9.1924 0.0299,2.0189 1.70207,2.82593 1.34123,3.47806 m 8.91254,-4.34758 c 1.77381,-0.79343 4.61929,0 6.73874,0 m -106.95036,1.0869 c 0.5717,0.83408 1.34774,3.12764 1.95641,3.36937 0.51519,0.20455 0.6717,-0.22651 0.94124,-0.54345 0.68039,-0.79669 2.09119,-1.8862 3.18895,-2.28248 2.31073,-0.8343 5.37796,0.12652 6.4844,2.28248 0.23913,0.46345 0.37172,1.00929 0.47173,1.52165 0.22389,1.14798 0.11738,2.3753 -0.43477,3.47806 m 20.54229,-6.90178 -3.15201,-0.12673 -1.30427,0.28977 c -0.74127,-0.93864 -1.14124,-2.07162 -1.52165,-3.26068 -0.17174,-0.53953 -0.4152,-1.21211 -0.10869,-1.73903 1.41513,-2.4353 7.08003,-0.66105 8.58646,0.86951 0.67171,0.68192 0.89995,1.66317 0.21738,2.39117 -0.31738,0.33868 -0.65649,0.52975 -1.0869,0.76083 -0.26955,0.14521 -0.65431,0.16846 -0.94231,0.47094 -0.16303,0.26129 -0.68801,0.34422 -0.68801,0.34422 z m -57.49668,-0.0543 1.23254,3.91282 c -0.23876,1.15665 0.40968,1.85937 0.97825,2.82592 l 1.4847,3.26068 m 9.34723,-9.89073 c 1.23473,-0.56562 2.6303,0.45693 3.69545,0.79713 0.62822,0.20086 1.20645,0.90516 1.73903,1.30427 0.91516,0.68648 1.85859,1.66251 1.91945,2.78962 0.0804,1.41666 -1.63686,2.47921 -2.78897,3.007 -2.39986,1.09972 -11.3363,1.7886 -9.74509,-2.78962 0.68692,-1.97749 3.26504,-4.23084 5.18013,-5.1084 m -61.73555,7.06481 c -0.90887,-1.15124 -1.06061,-2.34117 -1.77535,-3.69544 -0.31584,-0.59844 -0.93472,-1.10711 -0.68821,-1.70273 0.23302,-0.56323 2.33921,-1.01537 3.11569,-1.12319 2.39898,-0.33324 6.24398,-0.703 7.31849,2.39116 0.63366,1.82512 -0.92452,2.90897 -2.31879,3.58675 -0.56561,0.27499 -0.93819,0.27325 -1.52164,0.36237 -0.66083,0.10087 -0.99994,0.21195 -1.73904,0.18108 -1.1221,-0.0467 -1.63556,-0.683 -2.35486,0.0363 -0.67474,0.67453 0.33715,2.05401 0.39845,2.78962 0.0522,0.62649 0.25456,1.551 0.43476,2.17379 m 100.86376,-11.95583 0.66411,2.02028 0.60342,2.9183 m 3.6017,-5.22394 c 2.38465,0.75321 4.3411,3.1478 5.99971,4.85031 m -73.90879,-2.39116 c -1.04125,0.0822 -2.66072,0.98646 -3.47805,1.48535 -1.47819,0.90364 -1.96712,0.41238 -1.8477,1.12319 0.56714,3.37572 7.97564,-0.8519 10.03639,2.17379 1.11734,1.64252 -0.94124,2.4992 -2.10204,3.07961 -1.1456,0.57235 -2.52594,1.0019 -3.69545,1.05059 -1.84554,0.077 -3.71499,-0.95169 -4.9997,-1.0869 m -51.95358,-7.60825 0.0724,1.95641 0.72473,1.73903 1.59405,7.39087 m 91.95122,-11.08631 v 4.78233 m -131.29679,-3.47806 c 1.6023,-0.80126 5.43947,-1.84729 6.63006,0.43476 0.69604,1.33427 -0.41498,2.2966 -1.15929,3.0796 -0.31585,0.33216 -0.36302,0.68518 -0.72474,0.97821 -0.6517,0.52801 -3.2672,1.13189 -4.31127,1.15928 m -7.60826,-6.52137 0.47106,1.95641 0.61584,4.99971 1.08689,5.2171 m 76.73471,-3.26069 c -0.46519,-0.92886 -3.49327,-4.65038 -3.73239,-6.0866 -0.0739,-0.4465 0.007,-0.65649 0.037,-1.0869 0.05,-0.71061 0.55865,-1.62338 1.30427,-1.73903 1.21731,-0.18846 3.06721,0.6917 3.91282,0.86952 m 5.21709,2.39117 c 0.36084,-1.71425 2.2216,-2.52442 3.91282,-2.97092 0.47823,-0.12608 2.30638,-0.67692 2.13682,0.36237 -0.16303,1.01146 -1.5673,1.40383 -2.35421,1.77533 -1.80859,0.85409 -3.9476,0.30998 -5.43447,1.52165 -0.99993,0.81452 -2.24551,2.64355 -2.53681,3.87652 -0.10869,0.4665 -0.2152,1.08863 0.1826,1.48535 1.27384,1.27493 5.5062,-0.75974 6.70179,-1.70273 m -67.6048,-6.95612 0.21738,1.52165 1.1232,4.56496 1.26797,4.99971 m 10.43418,-10.76025 c 1.34405,-0.48541 3.08612,1.00864 3.73173,2.0651 1.68405,2.75571 1.16733,6.14573 -2.21009,7.31849 -0.63625,0.22085 -1.09449,0.21912 -1.73901,0.36215 -2.05097,0.45584 -4.50084,1.2058 -6.30399,0.57975 -0.60954,-0.21173 -1.28928,-0.43302 -1.63035,-1.08689 -0.57888,-1.10972 0.56606,-2.33552 1.19558,-3.26069 0.95126,-1.39752 2.02533,-2.3629 3.26068,-3.47806 1.09885,-0.99211 2.24118,-1.97466 3.69545,-2.49985 m 86.08199,1.41296 c -1.57817,-0.0415 -4.34975,-0.54823 -5.99462,-0.0974 l -1.3963,0.0611 -2.39117,0.47106 m -35.65008,-0.21738 c 0.25589,-0.11267 0.51445,-0.21251 0.87227,0.16406 m -63.33345,2.63617 c 1.50079,0.47389 5.59533,0.53719 6.0877,3.069 0.2452,1.26166 -1.35514,2.5805 -2.31878,3.11569 -2.22727,1.23753 -4.9432,1.71229 -7.1735,0.36237 m 180.85914,9.78204 c 0.0283,0.27129 0.10218,0.743 0.037,1.0869 -0.0891,0.44953 -0.34998,0.72952 -0.50866,1.08689 -0.15435,0.34672 -0.29999,1.1082 -0.0717,1.52165 1.13036,2.0401 7.78449,-0.46235 9.38004,-0.96601 m -38.83487,6.40048 c 1.78902,0.32955 3.02375,0.42062 4.99972,0.0363 1.326,-0.25803 2.32594,-0.92125 3.47805,-1.52164 0.96733,-0.50454 2.14336,-1.69034 1.26732,-2.86223 -1.24992,-1.67469 -4.48452,-1.34775 -6.04964,-1.52166 -0.49636,-0.0586 0.064,0.0125 -1.42928,0.0979 -1.00636,-0.0592 -2.0804,-0.2521 -2.5869,-0.50578 -1.46821,-1.46683 -2.88821,-2.40116 4.61844,-2.63156 l 1.42653,0.57376 m 45.14239,-0.0704 c 1.44775,-0.2615 3.40632,3.62153 2.97158,4.92733 -0.29999,0.90104 -1.27167,1.54948 -2.10207,1.88402 -0.84777,0.34107 -1.51512,0.10695 -2.39115,0.36215 -0.64562,0.18825 -1.03038,0.37216 -1.73904,0.36238 -0.58909,-0.008 -0.93038,-0.15978 -1.52164,-0.21738 -1.83469,-0.17826 -3.91282,-1.44145 -2.53681,-3.47807 0.71082,-1.05189 2.47376,-1.81163 3.62369,-2.35486 0.88909,-0.42019 3.21722,-1.39927 3.69544,-1.48557 m -11.95582,0.145 -0.43477,6.52137 m -58.90965,-4.99972 c 0.79996,0.0211 2.4186,-4.7e-4 3.35984,-0.092 2.22814,-0.21673 3.49194,-0.5919 5.77007,-0.56016 0.75214,0.0104 2.16944,0.31085 2.49986,1.08689 0.50648,1.18885 -1.8581,6.76593 -2.25809,8.14911 m 25.2573,-7.92454 c 0.69922,-0.57516 1.258,-0.86942 1.78197,-1.09408 1.85642,-0.10369 5.97792,-1.32536 6.63006,0.43476 0.48258,1.29797 -1.99554,2.43552 -2.82594,2.86223 -1.64338,0.84472 -1.64555,1.23731 -2.64548,2.0651 -0.36303,0.30063 -2.13901,0.76538 -1.26734,0.61583 2.37375,0.0389 4.83666,-0.54345 6.73873,-0.54345 m -88.9079,-4.99971 3.69545,0.0363 2.82592,-0.0363 1.52164,0.0363 4.99972,1.48535 m 4.99972,0.21738 c 0.60359,-0.42354 1.23569,-0.74018 1.9564,-0.72453 0.79315,1.32117 1.58949,2.7222 2.35422,3.33308 l 0.80521,1.05822 1.40553,0.75319 3.04329,2.31878 m 0.43476,-7.39088 c -1.33509,0.75597 -2.26238,2.05567 -3.26068,3.26069 l -1.31822,1.16759 -1.14469,0.75251 -4.27582,3.29699 m -70.43073,-8.04302 0.50714,3.91281 1.88402,8.04303 m 57.87055,-13.11207 -0.055,3.16403 0.22455,1.0355 0.65214,5.86923 m -32.82419,0.43476 c 2.04163,0.42976 3.25372,1.06429 5.43446,0.57975 0.9456,-0.21021 2.26944,-0.63476 3.04331,-0.9782 0.54344,-0.24195 0.97821,-0.13739 1.52165,-0.32607 0.75431,-0.26174 1.33254,-0.94103 0.65213,-1.66665 -1.82815,-1.95098 -6.17137,-1.95641 -8.69514,-1.95641 -1.35601,0 -2.63051,0.0135 -3.91282,-0.25368 -0.59692,-0.12435 -1.61513,-0.82712 -1.48535,-1.48535 0.10673,-0.54149 0.48432,-0.76278 1.05059,-1.0145 1.27232,-0.5654 3.11613,-1.2821 4.34758,-1.52166 0.81799,-0.1589 1.96358,-0.0269 2.82592,-0.0724 m -65.43101,12.02823 c -1.30536,0.25389 -2.39573,-0.27303 -3.69544,-0.65214 -0.66344,-0.19347 -0.92038,0.16956 -1.48535,-0.32606 -0.99342,-0.87126 -1.40296,-4.0037 -1.55795,-5.39818 -0.0804,-0.72387 -0.75735,-3.50306 -0.54345,-3.91281 0.17195,-0.32933 0.33563,-0.45215 0.76082,-0.68845 1.28645,-0.71451 3.44437,-0.78864 4.99972,-0.61582 2.02162,0.22454 4.85254,1.71751 6.30398,3.07959 0.79495,0.74584 1.41992,1.96098 1.52165,3.007 0.43415,3.32521 -3.44203,4.92879 -6.30398,5.50687 z m 9.12991,-6.159 c 1.28253,-1.24624 3.51718,-2.16552 5.21709,-1.81141 0.82474,0.17172 1.4697,0.23999 1.88402,1.15927 0.18607,0.41303 0.56214,1.61427 0.39846,1.95641 -0.2902,0.60693 -0.66322,0.65148 -1.19558,1.05059 -1.18276,0.88714 -3.7448,2.90093 -5.43448,2.57247 -2.88923,-1.20488 -2.4867,-3.21704 -0.86951,-4.92733 z m 12.60796,-5.21709 c 0.24586,0.84952 1.27255,2.09489 1.92012,3.26068 1.26231,2.27183 2.22139,4.99841 2.42746,7.60826 m 23.04215,-10.43418 c 0.60476,0.8206 1.16928,2.63419 0.57975,3.69544 -0.32281,0.58083 -0.69127,0.7106 -1.08688,1.30428 -1.03974,1.55947 -2.17271,2.40659 -3.84044,3.33307 -1.11058,0.61713 -3.06787,1.57186 -4.34758,0.72473 -2.69353,-1.78315 -0.55192,-5.19666 0.79713,-7.10111 0.41585,-0.58714 0.96451,-1.31557 1.59405,-1.63034 0.56778,-0.28389 3.23433,-0.52386 3.67278,-0.37387 m 3.28333,3.74324 1.52166,4.78233 m -34.56323,-2.17378 1.08689,3.26068 m 59.56179,-2.60854 c -0.23156,1.23261 -1.40226,2.62171 -3.04331,3.47805"
       id="path298"
       sodipodi:nodetypes="ccccccccccccccccccsccccccccscccccccccccsccccccscccssssccsccscscccccccccccscccccccccccsccccssscscccccccccsccccccccccccccssccccccccccccccccccccccccsccsccccccccccccccccsccccsccccccccscccccccscscccsccccasccccccccccscccccccsccccscccccccccccccccccssccsccscccccccccccccsccccccccccccccccccccccscccaccsccccccccccccccccccccccccccsscccccccsccccccccccccccccccccccccscccccccccccssccccccscssccccccscccccccccccscsccccccccccccccscccccccccccccsscccccccccscccsccccsccccccccccccccccscccccccccccsccccccccsscccccsccccccccssccccccccccccccccccccccccccccccccscscsccscscccccccccccsccccscccccccccsccccccccccccccccccsccccccscscccccccsccccccccccccccccccccccsscccccccccsccscccccccccccssccccccccccccccccccccscccccccccccccccccccccccccccscccscccsccccccccacccccccccccccccccccccccccccccccccccccscccsccccccccccccccccccccccccccccscccccccccccccccccccccccccccccccccccccccccccccccccsssccccsccsccccccccccccccccccccssccccccc" />
  </g>
</svg>
