<?xml version="1.0" encoding="UTF-8" standalone="no"?>
<!-- Created with Inkscape (http://www.inkscape.org/) -->

<svg
   width="3000"
   height="1998.207"
   viewBox="0 0 793.74998 528.69228"
   version="1.1"
   id="svg202"
   inkscape:version="1.2.1 (9c6d41e410, 2022-07-14)"
   sodipodi:docname="DeneyseS - Stake - Envelope16.svg"
   xml:space="preserve"
   xmlns:inkscape="http://www.inkscape.org/namespaces/inkscape"
   xmlns:sodipodi="http://sodipodi.sourceforge.net/DTD/sodipodi-0.dtd"
   xmlns="http://www.w3.org/2000/svg"
   xmlns:svg="http://www.w3.org/2000/svg"><sodipodi:namedview
     id="namedview204"
     pagecolor="#ffffff"
     bordercolor="#000000"
     borderopacity="0.25"
     inkscape:showpageshadow="2"
     inkscape:pageopacity="0.0"
     inkscape:pagecheckerboard="0"
     inkscape:deskcolor="#d1d1d1"
     inkscape:document-units="px"
     showgrid="false"
     inkscape:zoom="0.70710678"
     inkscape:cx="394.56558"
     inkscape:cy="207.18229"
     inkscape:window-width="1920"
     inkscape:window-height="1051"
     inkscape:window-x="-9"
     inkscape:window-y="-9"
     inkscape:window-maximized="1"
     inkscape:current-layer="layer1" /><defs
     id="defs199"><pattern
       id="EMFhbasepattern"
       patternUnits="userSpaceOnUse"
       width="6"
       height="6"
       x="0"
       y="0" /><filter
       style="color-interpolation-filters:sRGB;"
       inkscape:label="Lighting"
       id="filter420"
       x="0"
       y="0"
       width="1"
       height="1"><feComponentTransfer
         in="blur"
         result="component"
         id="feComponentTransfer418"><feFuncR
           type="gamma"
           amplitude="0.934579"
           exponent="1.86916"
           offset="0"
           id="feFuncR412" /><feFuncG
           type="gamma"
           amplitude="0.934579"
           exponent="1.86916"
           offset="0"
           id="feFuncG414" /><feFuncB
           type="gamma"
           amplitude="0.934579"
           exponent="1.86916"
           offset="0"
           id="feFuncB416" /></feComponentTransfer></filter><clipPath
       clipPathUnits="userSpaceOnUse"
       id="clipPath490"><rect
         style="fill:#8a7fa0;stroke:#000000;stroke-width:0.637646"
         id="rect492"
         width="839.1626"
         height="293.03915"
         x="-101.58971"
         y="-106.41964" /></clipPath></defs><g
     inkscape:label="Layer 1"
     inkscape:groupmode="layer"
     id="layer1"><path
       style="fill:none;stroke:#726c8b;stroke-width:0.0772689"
       d="m 41.313174,53.422069 c -0.493748,0.09095 -1.132297,0.402408 -1.699915,0.631024 -0.308378,0.124202 -0.888128,0.242307 -1.159031,0.05152 -0.384645,-0.270859 -0.397239,-0.740954 -0.283346,-1.223429 0.213031,-0.902276 0.936421,-2.006223 1.674185,-2.446841 0.254368,-0.151897 0.416247,-0.198265 0.69542,0.05151 M 1.4424522,54.04022 c 0.2120489,0.06696 0.4316468,0.159421 0.6181507,0.206045 0.2280512,0.05701 0.4116575,0.129572 0.6954196,0.09016 0.4379133,-0.06083 0.9156589,-0.214776 1.0946444,-0.605278 0.118515,-0.258588 0.1525906,-0.446475 0.051508,-0.772688 -0.1043747,-0.336854 -0.3245137,-0.343352 -0.60527,-0.257568 -0.3171114,0.0969 -0.5241765,0.189873 -0.7726886,0.334837 -0.2309102,0.134695 -0.6031373,0.303774 -0.8499572,0.218933 -0.1590502,-0.05468 -0.2348277,-0.214776 -0.2833216,-0.373471 -0.090234,-0.295329 0.051546,-0.788305 0.1287839,-1.159033 0.044978,-0.215904 0.1207016,-0.407632 0.2318066,-0.618151 0.1414173,-0.267952 0.1171087,-0.412709 0.3219561,-0.59239 0.2086567,-0.183034 0.3998198,-0.179626 0.60527,-0.01288 0.297709,0.241621 0.4150958,0.519532 0.4636129,0.837085 0.045141,0.295476 0.081024,0.426215 -0.1545376,0.61815 M 50.971781,50.331315 c 0.165045,0.447997 0.200434,0.663739 0.09017,1.081764 -0.04405,0.166777 -0.03863,0.221854 -0.03863,0.386344 0,0.258704 0.166825,0.758378 0.180269,1.081764 0.01198,0.287881 0.04738,0.09963 0.06882,0.601248 0.138783,-0.0513 0.275077,-0.127492 0.394796,-0.369442 M 22.41768,53.805199 c -0.337433,0.231204 0.04499,-0.07644 -0.421716,0.286528 -0.287363,0.2235 -1.299817,1.093045 -1.687011,0.643912 -0.148588,-0.172348 -0.09017,-0.471347 -0.09017,-0.695419 0,-0.619944 0.142716,-1.567105 0.373442,-2.086259 0.111652,-0.251139 0.15021,-0.446722 0.309075,-0.695421 0.127107,-0.198927 0.325147,-0.700247 0.631053,-0.669657 0.195414,0.01954 0.253674,0.106214 0.373442,0.283315 0.205379,0.303573 0.180268,0.667996 0.321978,1.004494 m -16.8446069,-1.159033 0.077269,0.69542 0.090149,0.540882 c 0.2703969,0.903382 0.2702451,0.670555 0.2961947,1.081764 l -0.077269,1.159032 m -0.4950036,-1.52203 c 0.4192854,-0.07241 0.7970424,-0.310931 1.2676919,-0.177884 m 24.0112923,-1.839964 0.161784,0.58676 c 0.01592,0.304126 0.170473,0.715528 0.21815,0.944128 0.02008,0.09645 0.01629,0.281978 0.115901,0.34771 0.321517,0.212204 0.398863,-0.213169 0.914323,-0.270441 0.500934,-0.05565 1.492758,-0.05384 1.777183,0.540882 0.161956,0.338677 0.07727,0.788583 0.07727,1.159033 m 18.621788,-3.090753 0.07727,0.309075 m -25.42145,3.090753 c 0.887047,0 1.456132,-0.260094 2.163529,-0.772688 0.263023,-0.190576 0.643263,-0.546708 0.309074,-0.837085 -0.507348,-0.440772 -1.50767,-0.02585 -2.086259,-0.09014 -0.445531,-0.0495 -0.789532,-0.393237 -0.386345,-0.772689 0.148126,-0.139393 0.332181,-0.237996 0.489346,-0.373471 0.181735,-0.15664 0.383948,-0.284002 0.592419,-0.399218 m 15.608306,2.936217 c -0.383407,-0.242176 -0.663739,-0.503268 -0.914323,-1.004495 -0.240768,-0.48147 -0.592418,-0.977946 -0.386344,-1.468108 0.21388,-0.508986 1.299508,-0.562055 1.764281,-0.231808 m 11.435788,-0.231806 0.437882,0.849958 0.206,0.540882 0.21898,0.463613 0.450708,1.081764 m 3.708906,-2.858948 c -0.355746,0.177872 -0.394689,0.0595 -0.695419,0.193172 -0.170765,0.07589 -0.799115,0.477468 -0.927228,0.59239 -0.09041,0.08113 -0.246332,0.204052 -0.218903,0.373471 0.04165,0.257483 0.318117,0.288677 0.527978,0.309076 0.297254,0.0289 0.461991,0.0097 0.69542,0 0.357678,-0.0149 1.116611,-0.109738 1.352204,0.309075 0.171461,0.304872 -0.101299,0.635135 -0.283343,0.849957 -0.450709,0.532035 -1.134075,0.55136 -1.532473,0.540882 M 9.2150016,53.391335 C 9.0334971,53.520312 8.6388857,53.875243 8.396648,54.117489 8.2744859,54.23962 8.1508558,54.31532 8.0103038,54.426564 7.706645,54.666963 7.0704364,55.126257 6.851271,54.503833 6.6291928,53.873126 7.1851497,52.426908 7.5595713,51.953961 7.7338281,51.733837 7.945568,51.374622 8.2421102,51.219907 c 1.0740369,-0.560354 0.9957636,1.030619 1.004495,1.66128 0.00208,0.15086 -0.02264,0.323046 -0.012903,0.463613 0.016999,0.243961 0.1460381,0.346559 0.1674417,0.618151 m 4.6361301,0 c 0.246952,-0.181968 0.444837,-0.237996 0.927226,-0.631024 0.114976,-0.0937 0.187455,-0.180268 0.309076,-0.283329 0.170687,-0.144632 0.28489,-0.215279 0.463613,-0.399218 0.381248,-0.393137 0.814332,-1.290019 0,-1.390839 -0.854207,0.36746 -2.37849,1.749321 -1.699915,2.70441 z M 12.491898,51.25854 c -0.58848,0.588496 -1.094324,0.930948 -1.274669,1.553882 0.585234,0.292648 1.574472,0.264255 1.81555,0.918722 m 12.427382,-0.721181 c -0.221761,0.226236 -0.268432,0.173214 -0.463612,0.412106 -0.152916,0.187215 -0.611737,0.673166 -0.914322,0.837084 -1.071017,0.310463 -1.433824,-0.195229 -1.056037,-1.068891 0.166822,-0.375271 0.34601,-0.891365 0.61815,-1.223428 0.117921,-0.325362 1.571381,-0.963391 1.671574,-0.641437 0.157147,0.272965 0.445748,1.37709 0.144247,1.684566 z m 20.592977,-0.891806 c 0.01538,-0.146208 -0.0028,-0.37045 0.475685,-0.743713 0.43595,-0.351736 0.774542,-0.573289 1.274935,-0.270441 -0.342302,0.867173 -1.776334,0.74141 -2.395334,1.39084 -0.131512,0.137955 -0.125793,0.224628 -0.193173,0.386344 -0.08708,0.208958 -0.214113,0.444303 -0.193171,0.69542 0.09728,1.167694 1.811413,0.495749 2.318064,0.309075 M 10.616955,51.112171 c 0,0.887394 0.30932,2.467372 0.329565,3.237124 m 40.319847,-0.953787 c 0,0.46437 -0.157244,0.574679 -0.540883,0.79845 -0.597673,0.348644 -2.207608,1.156664 -2.432383,8.1e-4 -0.115748,-0.595449 0.58477,-1.572127 1.056033,-1.90596 0.293081,-0.207621 0.892533,-0.475049 1.236302,-0.489374 0.15276,-0.0064 0.254601,0 0.386345,0 m 4.249784,0.927226 c 0.500935,0 0.845013,-0.134626 1.159034,-0.30485 0.30167,-0.0642 0.59934,-0.148384 0.927225,-0.0815 m -26.266283,0.190829 0.149416,1.200011 m 21.712544,-0.849957 c 0.08183,0.183447 0.197238,0.29302 0.216995,0.613028 l 0.09208,0.546004 M 25.526185,52.953637 c -0.06154,0.703075 0.159776,0.523373 0.178682,0.932056 m -11.667594,0.07727 c 0.04829,0.262072 0.06838,0.495579 0.386345,0.656785 0.51886,0.263077 1.396093,-0.142654 1.854452,-0.34771 m 46.129499,2.086259 0.231806,0.618151 0.309075,0.669689 0.540884,0.02573 h 0.463611 l 1.390839,0.167442 0.477271,0.05071 c 0.199779,0.566032 0.277622,0.76626 0.372688,1.018152 m 23.697229,0.134048 c 0.387889,0.122472 0.758358,0.133147 1.106068,0.200757 0.325303,0.06328 1.239393,0.0969 1.532241,-0.128729 0.423434,-0.325843 0.485249,-0.702528 0.258078,-1.133302 -0.303665,-0.575267 -0.887047,-1.097496 -1.481244,-1.377967 -0.635149,-0.299988 -1.246345,-0.260349 -1.854451,-0.16741 -0.191627,0.02926 -0.695419,0.309075 -0.695419,0.309075 0,0 0.08113,0.573567 0.193171,0.85551 l 0.716512,1.619159 M 65.961935,56.435554 c -0.08007,0.361403 0.01621,0.852271 -0.127975,1.448791 m -12.544115,-1.371522 0.07727,0.309075 m 4.017979,0.07727 0.32198,0.772689 0.527978,1.622645 m 38.016263,-2.395334 -1.390839,0.463613 c -0.231388,0.08236 -0.241266,0.201641 -0.32221,0.309076 l 0.05178,0.540882 c 0.227942,0.309616 0.3763,0.635702 0.734054,0.849957 M 68.666339,57.002197 c 0.251122,-0.08719 0.434869,0.02185 0.618151,0.128777 0.157782,0.09203 0.217279,0.12278 0.386344,0.167441 0.286513,0.07557 0.652612,0.146579 0.811321,0.450709 0.335812,0.64365 -0.597132,1.20524 -1.120396,1.365109 -0.610425,0.186527 -1.381491,0.379235 -1.71282,-0.283345 -0.259854,-0.519787 0.199431,-0.996072 0.450788,-1.31357 0.182971,-0.231111 0.293697,-0.420343 0.566612,-0.515121 m 3.003825,-0.325178 c 0.355166,0.360215 0.459895,0.63695 0.576272,0.917568 l 0.128807,0.463613 0.154537,1.159032 M 24.314028,57.208243 c 0,0.426833 0.02496,0.637467 -0.05154,1.004495 -0.0221,0.106244 -0.0306,0.269436 -0.115904,0.37344 -0.242623,0.296094 -0.31657,0.171845 -0.502246,0.553785 -0.114822,0.236211 -0.820669,1.257661 -1.423599,0.802686 -0.329399,-0.16721 0.316106,-2.579869 0.316106,-2.579869 m 22.253427,2.163528 c -0.125176,-0.339751 -0.22377,-0.593966 -0.334805,-0.927227 -0.06475,-0.194099 -0.255761,-0.562594 -0.167442,-0.772688 0.228175,-0.542813 1.40753,-0.777888 1.970355,-0.540882 m 9.117724,-0.07727 0.309075,0.772689 0.141634,0.61815 0.167441,0.540882 M 2.6787536,61.38076 C 3.4601039,61.709771 4.5860114,61.348771 5.3058943,61.058781 5.7458011,60.881603 6.2658359,60.699249 5.9884331,60.144458 5.8055146,59.77859 5.2387399,59.415813 4.8422811,59.37177 4.0853711,59.287701 3.4643073,59.597163 2.9878289,59.835383 2.8419685,59.63008 2.8332912,59.554434 2.8332912,59.294501 c 0,-0.299262 -0.077269,-0.999704 -0.077269,-1.31357 0,-0.221221 -0.039925,-0.563135 0.090149,-0.656785 0.2496247,-0.179728 0.7874855,0.156624 1.0688832,0.309075 0.4145165,0.224543 0.4474715,0.104777 0.927226,0.193172 M 34.204441,62.07618 c 0,-0.444296 -0.07611,-0.652536 -0.141633,-1.081764 -0.0901,-0.58933 -0.150443,-1.201144 -0.270443,-1.777184 -0.09751,-0.46794 -0.453799,-1.060128 -0.167442,-1.545376 0.150984,-0.255915 0.369193,-0.19325 0.579518,-0.257537 0.142483,-0.04358 0.241233,-0.08214 0.386345,-0.09017 0.179339,-0.01 0.285198,0.03616 0.463611,0.03863 0.15029,0.0021 0.24757,-0.01661 0.386345,0.02573 0.68267,0.208625 1.271614,0.875687 0.502246,1.596915 l -1.680596,0.280099 m 13.541366,-1.980013 c -0.07387,0.400871 -0.481077,0.894233 -0.463614,1.31357 0.06004,1.441683 1.222857,0.745259 1.854453,0.218903 0.25862,-0.215503 0.499235,-0.254755 0.656785,-0.463613 0.140166,-0.185831 0.163193,-0.596979 0.193171,-0.759784 m -33.30287,-0.231807 0.161648,0.682463 0.07016,0.785645 0.128808,1.004495 0.334806,0.69542 m 34.461901,-3.090754 c 0.361774,0.654622 0.424747,1.194808 -0.09017,1.777183 -0.286513,0.324143 -0.971502,0.708324 -1.377936,0.502248 -0.517239,-0.262251 -0.490206,-1.006123 -0.561371,-1.392313 m -36.450406,1.121872 c -0.396776,0.198426 -1.673257,0.907445 -2.240797,0.515151 -0.45774,-0.316416 -0.110185,-0.748735 0.128807,-1.056033 0.25576,-0.328856 0.493517,-0.626573 0.798419,-0.927226 0.296095,-0.291999 0.573799,-0.452255 1.004495,-0.463613 m 12.903895,0 c 0.09357,0.711182 -0.19178,1.814427 -0.772686,2.395334 -0.141866,0.141866 -0.328238,0.345005 -0.540883,0.296171 -0.165046,-0.03786 -0.172618,-0.226475 -0.231806,-0.37344 -0.22439,-0.557108 -0.07163,-0.902114 -0.309075,-1.236302 m 3.168022,-1.081763 c 0.07495,0.258928 0.17826,0.661112 0.218903,0.927226 0.02673,0.174705 -0.07827,0.463458 0.103076,0.579516 0.234589,0.150133 0.410374,-0.16976 0.527978,-0.257537 0.08469,-0.06321 0.258619,-0.168755 0.334806,-0.231807 0.182662,-0.151214 0.560508,-0.384566 0.824227,-0.399247 0.722849,-0.04018 0.682205,1.054255 0.772689,1.545376 m 9.735874,-0.631054 c -0.187533,0.08337 -0.398012,0.138156 -0.618152,0.193172 -0.311469,0.07789 -0.925217,0.0046 -1.31357,-0.03863 -0.232579,-0.02581 -0.411689,0.0952 -0.553786,-0.141633 -0.119148,-0.198581 -0.108177,-0.454573 -0.141634,-0.69542 -0.02928,-0.210557 -0.118607,-0.379776 0.0129,-0.527978 0.40257,-0.454032 1.760029,-0.308225 2.305162,-0.141711 0.723004,0.220989 0.952462,0.531998 0.898252,0.969106 -0.02883,0.232476 -0.332564,0.26905 -0.589173,0.383099 z m 1.468104,-1.159033 c 0.482622,-0.289526 0.90304,-0.119303 1.31357,0.103077 0.190392,0.103077 0.283267,0.177177 0.463614,0.321902 0.196185,0.157551 0.400483,0.34006 0.309075,0.59242 -0.156547,0.432164 -1.03177,0.564912 -1.390839,0.669689 -0.131821,0.0384 -0.249887,0.08971 -0.386345,0.102999 -0.715509,0.06954 -1.027523,-0.515657 -1.042527,-0.996043 -0.01126,-0.360142 0.308938,-0.539288 0.733452,-0.794044 z M 77.55226,57.633221 c 0.528519,-0.190777 1.655098,0.656322 1.454971,1.274936 -0.09736,0.301967 -0.706235,0.509202 -0.991357,0.59242 -0.261169,0.07619 -0.475978,0.02573 -0.69542,0.02573 -0.362083,0 -1.26157,-0.241852 -1.056035,-0.849958 0.133985,-0.396311 0.914631,-0.908372 1.287841,-1.043129 m 7.572346,-0.03863 c 0,0.284272 -0.02859,0.573953 0.0255,0.927226 0.0595,0.388353 -0.234898,0.91154 -0.643649,1.081763 -0.452796,0.188845 -1.445025,-0.777517 -1.445025,-0.777517 l -0.334575,-0.32198 c 0,0 -0.452697,0.322327 -0.84754,0.635884 -0.628195,0.279636 -1.075581,0.574108 -1.468106,0.386345 -0.663739,-0.317575 -0.229489,-1.295567 -0.07727,-1.777183 m -66.29667,-0.07727 0.141634,0.618151 0.167442,0.61815 0.540882,1.854452 m 48.066778,-3.126173 c 0.118182,0.661478 0.152966,0.721007 0.148982,1.194453 m 11.21364,-1.612987 c 0.271875,0.815498 0.450765,1.569007 0.376685,2.153869 m 8.11323,-1.159032 -0.07727,0.309075 M 9.1962531,58.501324 c 0.2556053,0.05386 0.7880378,0.101312 1.0162129,0.419737 0.357754,0.499157 0.03966,1.302047 -0.705079,1.682182 -1.1068456,0.436291 -1.6090159,-0.130701 -1.0592016,-0.922398 0.2629457,-0.378694 0.351805,-0.786133 0.6438812,-1.06886 0.2678133,-0.259313 0.2348203,-0.22547 0.3219793,-0.476516 0.085306,-0.24587 0.2034499,-0.332488 -0.012903,-0.540882 -1.2439177,0.176402 -2.1245143,0.30518 -1.7771834,0.927226 l 0.7295845,0.236058 0.5839858,0.07302 M 32.040913,58.521813 c -0.0095,0.36185 -0.140707,1.14551 -0.309075,1.545377 M 53.59892,58.096834 c 0.188268,0.709603 0.117214,1.06264 0,1.352205 M 27.63659,59.062695 v 0.849957 m 9.813141,-0.69542 c 0,0.556413 0.154539,1.739863 0.154539,2.472603 m 28.898548,2.202162 c -0.341685,0.612124 -0.788065,1.034939 -1.236303,1.171936 -0.427373,0.130585 -1.124107,-0.31232 -1.274935,-0.59242 -0.128343,-0.238374 2.19e-4,-0.564217 0.04346,-1.139715 0.131878,-0.453419 0.06436,-0.978619 1.115569,-1.101081 0.731735,0.416943 1.171858,0.901419 1.352205,1.66128 z m -8.963186,-1.584011 0.218903,0.540882 0.296249,0.849958 0.489343,1.31357 m 2.62714,-2.240797 -0.753371,-0.293757 c -0.17392,0.0076 -0.405163,-0.156817 -0.521564,0.02332 0.03863,0.206308 0.04082,0.330402 0.102998,0.579517 0.08554,0.341914 0.252283,0.875919 0.631056,0.991591 0.700518,0.214034 1.318748,-0.780879 2.008989,0.0129 0.325921,0.374831 -0.07511,0.553245 -0.386344,0.631055 -0.399865,0.09991 -0.487488,0.201517 -0.849956,0.154537 -0.130277,-0.01692 -0.245561,-0.0129 -0.309078,-0.0129 m -6.757941,-1.669418 c -0.218894,-0.469684 -0.212662,-0.886024 -1.141589,-0.362512 0.02432,0.777911 0.131378,1.227157 0.879181,1.039707 0.693952,-0.134912 1.36806,-0.227763 1.983814,0.188484 0.620082,0.419261 0.41949,1.149903 -0.140477,1.383255 -0.327927,0.136611 -0.381784,0.09504 -0.69542,0.05154 -0.357754,-0.04968 -0.792699,-0.09999 -1.159031,-0.167442 m -6.02697,-2.62714 c 0.04536,0.379828 0.214664,1.416919 0.102998,1.532473 0.489964,0.625415 2.450423,0.123746 3.075604,0.07437 M 29.027429,62.771598 c 0.01492,0.567772 -0.01709,0.872984 -0.03864,1.39084 -0.01005,0.240229 0.03864,0.338901 0.03864,0.540882 0,0.26735 0.0683,0.693951 -0.103001,0.927226 -0.208703,0.284195 -0.596282,0.324838 -0.978763,0.399248 -0.185908,0.03616 -0.27755,0.06181 -0.463614,0.06436 -0.224852,0.0031 -0.327079,0.0089 -0.540881,0 -0.30869,-0.01283 -0.810474,-0.224621 -0.914322,-0.618151 -0.133676,-0.506574 0.754838,-1.164673 1.068858,-1.352205 0.115828,-0.06916 0.310081,-0.193481 0.463614,-0.24471 0.247802,-0.0826 0.320743,-0.03709 0.540881,0.05154 0.251357,0.101222 0.260087,0.09929 0.463614,0.141634 0.128189,0.02674 0.338981,0.144187 0.4222,0.203297 m 12.988028,-1.451871 0.39119,0.927226 c 0.147759,0.811632 0.186935,1.324002 0.458766,1.931721 m -0.42615,-1.766939 -0.501064,0.07258 -0.386344,-0.0056 c -0.463325,0.05108 -0.882163,0.03543 -1.236301,-0.07727 m -1.349872,-1.070649 c 0.499311,0.450091 0.450435,0.597073 0.560184,0.864019 0.06097,0.141556 0.171691,0.323911 0.231806,0.463613 0.167829,0.389666 0.343537,0.800659 0.437884,1.159032 m 10.770587,-2.262746 c 0.27178,0.27329 0.22549,0.619476 0.330395,0.871907 l 0.180268,1.622646 m -15.531037,0.618151 c -0.476593,0.05293 -1.16761,0.02789 -1.365109,-0.540882 -0.215889,-0.621783 0.385573,-1.469963 0.824226,-1.841549 0.190624,-0.161569 0.32994,-0.30668 0.540883,-0.412152 0.20538,-0.10269 0.524191,-0.07789 0.772689,-0.115903 0.160565,-0.02449 0.24502,-0.0063 0.386345,0.06444 0.311548,0.155774 0.985829,0.686712 0.927225,1.184763 -0.103888,0.882874 -1.18206,1.560831 -2.086259,1.661281 z M 17.746178,64.935126 c -0.214962,0 -0.412384,-0.04721 -0.618151,-0.03863 -0.210248,0.0087 -0.301503,0.03863 -0.540882,0.03863 -0.254446,0 -0.355591,0.04474 -0.618151,-0.07727 -0.198871,-0.116507 -0.210045,-0.591784 -0.309075,-1.004495 0.102845,-0.411225 0.43371,-0.371972 0.772689,-0.437882 0.31232,-0.06073 0.874837,-0.103 1.236301,-0.103 m 6.567852,2.472603 c -0.190074,-0.252986 -0.264185,-0.128442 -0.759786,-1.236301 0.02401,-0.320259 0.117735,-0.535944 0.257537,-0.682516 l 0.42498,-0.21898 1.2363,0.05154 m -12.672089,0.07727 c 0.268756,0.213382 0.378697,0.455638 0.502248,0.69542 l 0.193172,0.69542 0.309075,1.236301 m 7.932961,-0.772688 c -0.09466,0.272604 -0.395539,0.430465 -0.66969,0.540882 -0.603701,0.243165 -1.514547,0.265186 -2.086259,-0.115903 -0.871437,-0.580985 -0.07642,-1.572113 0.69542,-1.970356 0.317146,-0.08072 0.636509,-0.183587 1.159033,0.03863 0.586702,0.423897 1.084776,0.978765 0.901496,1.506743 z m -18.4415236,1.390838 0.077269,-0.61815 0.09015,-0.618151 0.1899325,-1.675341 c 0.4705176,-0.02027 1.5994436,1.132408 2.0548856,1.286583 0.3922592,-0.408386 1.5760486,-1.658325 2.1128199,-1.307911 0.1552718,0.1013 0.2545856,0.52311 0.3299767,0.692174 0.076805,0.172155 0.066992,0.296636 0.090173,0.463614 0.050843,0.36579 0.2615551,1.052015 0.3863443,1.39084 M 15.982276,64.86631 c 0.08917,0.597775 0.463566,1.011413 0.836677,1.536926 m 14.526541,-1.468108 c -0.03006,0.114281 -0.07997,0.189618 -0.167441,0.386344 -0.07086,0.159406 -0.06808,0.30753 -0.128731,0.463613 -0.235669,0.605866 -0.664356,1.180667 -1.094667,1.622645 M 10.480643,65.072914 c -0.09324,0.762419 0.246231,1.11569 0.0023,1.407589 M 139.4446,85.411372 c 0.0209,0.260628 0.15222,0.705775 0.15454,0.849958 0.002,0.169991 0,0.206385 0,0.386344 0,0.454187 0.0773,1.075275 0.0773,1.545378 0,0.232347 -0.051,0.367567 -0.0131,0.618151 0.0641,0.420186 0.20244,0.680197 0.38634,1.081764 0.0518,0.112579 0.10354,0.284116 0.0518,0.386344 -0.0834,0.163655 -0.19548,0.199043 -0.34771,0.29617 -0.19703,0.125795 -0.48061,0.23853 -0.69541,0.32198 -0.65833,0.255915 -1.8645,1.004263 -2.54988,0.656785 -1.06345,-0.896585 1.35109,-2.160871 1.93173,-2.511238 0.55479,-0.331173 0.64751,-0.231805 1.15903,-0.231805 m -3.86344,2.021892 c -0.28049,-0.04288 -0.6112,0.0408 -0.84996,0.07727 -0.39098,0.05973 -0.58338,0.180656 -0.92723,0.218903 -0.14681,0.01638 -0.2488,0 -0.38634,0 -0.27817,0 -1.13817,0.119536 -1.2618,-0.231806 -0.0757,-0.214344 0.10895,-0.36579 0.2573,-0.540883 0.28435,-0.335654 0.66529,-0.609958 1.08177,-0.824226 0.21944,-0.112891 0.50611,-0.02504 0.77269,-0.128729 0.69928,-0.27191 0.91795,-0.411379 1.31357,-0.746959 -0.38403,-0.217744 -0.57797,-0.283652 -1.08176,-0.03863 -0.1669,0.08106 -0.24108,0.115363 -0.38635,0.193174 -0.3083,0.165201 -0.40653,0.541962 -0.48534,0.656784 m -10.02322,-2.047624 0.61815,0.540881 m -69.387425,4.249787 c 0.239998,0.12 0.456892,0.281646 0.772689,0.360615 0.175014,0.04373 0.288677,0.02813 0.463612,0.02573 0.324065,-0.0045 0.924137,-0.152916 1.14613,-0.386345 0.361695,-0.380317 0.438809,-1.050701 0.21898,-1.545375 -0.489576,-1.101468 -2.232838,-0.826314 -3.219561,-1.004497 -0.970652,-0.175246 -0.612125,-1.609896 0.618152,-2.086259 0.467874,0.0251 0.866679,-0.05835 1.699913,0.540883 m 55.40176,-0.07727 0.39948,3.245292 0.37321,1.043129 1.00449,-0.09017 1.54538,-0.257538 m -11.97667,-3.39983 c -0.32066,0.261865 -0.53624,0.402572 -0.84995,0.643881 -0.59729,0.459365 -1.27004,0.812575 -1.0045,1.287841 0.30337,0.542953 1.09799,-0.03802 1.85445,-0.206077 0.24649,-0.05478 0.56175,-0.102998 0.77269,-0.102998 0.2179,0 0.37244,-0.05563 0.61815,0.07727 0.24649,0.133442 0.41185,0.36355 0.45048,0.61815 0.041,0.264028 -0.0355,0.633373 -0.15454,0.927226 -0.14913,0.371277 -0.42111,0.648748 -0.83682,0.746959 -0.58801,0.138773 -0.93495,-0.143103 -1.46811,-0.283345 m -5.847074,-1.698708 c 0.13522,-0.321593 0.403488,-1.100666 0.824601,-1.546585 0.08731,-0.09226 0.183129,-0.201748 0.309078,-0.257537 0.159173,-0.0707 0.21867,-0.03987 0.386342,-0.05154 0.158402,-0.01106 0.303667,-0.08136 0.463614,-0.02573 0.143721,0.04991 0.277394,0.18073 0.34771,0.334804 0.09349,0.203451 -0.05563,0.386113 -0.193172,0.540883 -0.414934,0.466394 -1.159033,0.884342 -1.777183,0.978764 -0.159947,0.02442 -0.240307,-0.06259 -0.386345,0.03863 -0.196264,0.135994 -0.297486,0.628506 -0.309075,0.914323 -0.01776,0.422429 0.443522,0.7237 0.772689,0.824226 0.789686,0.241389 1.996625,-0.31008 2.549871,-0.746957 m 29.130354,-2.936217 0.70855,0.927227 0.27867,0.400455 c 0.28469,0.504574 0.68488,1.192983 1.02177,1.685804 m 0.14342,-2.037984 c -0.31085,0.05677 -0.42972,-0.136197 -1.20448,0.264231 -0.76113,0.379883 -0.97888,0.271178 -1.48881,0.382914 M 81.72478,88.811203 c 0.208625,0.264644 0.404116,0.67618 0.554018,0.927225 0.333801,0.558885 0.209397,0.649136 0.759551,1.171936 0.203218,0.193406 0.123632,0.322598 0.257306,0.527978 0.127492,0.194332 0.419569,0.445378 0.592653,0.618153 m 7.186001,-3.013487 1.056265,1.699915 0.720919,1.159033 m -34.15283,-2.781678 c 0,0.919189 -0.149822,2.146606 0.103001,3.013484 0.0639,0.218903 0.147738,0.383254 0.360613,0.515151 0.597752,0.370428 1.205317,-0.659179 1.403743,-1.056032 0.112116,-0.224313 0.23142,-0.308149 0.334806,-0.540883 0.08129,-0.182894 -0.0011,-0.337201 -0.03863,-0.540881 m 34.770979,1.699914 c -0.642876,-0.43989 -1.461927,-0.834271 -2.163528,-1.146128 -0.21558,-0.09582 -1.001884,-0.511069 -1.001884,-0.511069 -0.07264,-0.326891 1.530984,-1.458453 2.160918,-1.433556 m 20.089899,0.07727 0.69542,0.540881 m 4.17251,1.854453 c -0.2094,-0.227171 -0.23335,-0.306835 -0.38634,-0.540883 -0.13136,-0.201284 -0.53161,-0.59466 -0.47675,-0.927226 0.0286,-0.168368 0.0997,-0.22493 0.21944,-0.386344 0.1584,-0.214343 0.48371,-0.461141 0.79819,-0.360613 0.32685,0.104545 0.61892,0.409601 0.75955,0.669688 0.0688,0.126413 0.12054,0.319893 0.18081,0.463614 0.13677,0.329011 0.25962,0.225316 0.37321,0.61815 m -0.0773,-0.231806 c 0.10432,-0.112813 0.19472,-0.204841 0.28358,-0.386344 0.12826,-0.263642 0.5007,-0.971502 0.79818,-1.120399 0.89169,-0.445995 1.64969,1.336673 1.69992,1.970357 m -35.105524,-0.77269 c 0.0425,0.109027 0.116677,0.335966 0.08963,0.463612 -0.04018,0.194796 -0.166127,0.245948 -0.282802,0.386344 -0.174628,0.20909 -0.504566,0.54181 -0.785824,0.682517 -0.389435,0.194717 -0.788144,0.332255 -1.159034,0.218979 -0.562516,-0.171923 -0.835276,-0.64195 -0.66992,-1.210571 0.107404,-0.368108 0.271214,-0.699669 0.438115,-1.004495 0.167671,-0.30637 0.768052,-0.607873 1.58401,-0.309075 0.556336,0.443678 0.717055,0.59752 0.785824,0.772689 z m 29.619464,-0.849958 c 0.15143,0.121167 0.30964,0.184787 0.44309,0.458784 m -50.358761,1.019133 c 0.04853,-0.263331 0.04683,-0.472881 0.309077,-0.782497 0.194406,-0.229489 0.314097,-0.486794 0.61815,-0.592421 0.301116,-0.104543 0.460445,-0.02573 0.69542,-0.02573 0.257458,0 0.507424,0.0357 0.579515,0.231806 0.05872,0.159638 -0.153995,0.356984 -0.27044,0.463614 -0.349642,0.320048 -0.787833,0.538872 -1.236303,0.669688 -0.206694,0.06027 -0.676333,-0.0136 -0.759784,0.05146 -0.129348,0.100837 -0.08809,0.207699 -0.09017,0.360615 -0.05689,0.766782 0.438388,1.635246 1.004495,1.687011 0.793475,0.04412 1.535872,-0.555718 2.163528,-0.605247 m -3.631637,-0.32198 c -0.27214,0.128577 -1.010135,0.543741 -1.31357,0.695419 -0.714659,0.357369 -1.92832,0.674481 -2.524141,-0.06436 -0.20368,-0.252592 -0.192168,-0.487567 -0.180268,-0.772689 0.01492,-0.357831 0.210635,-0.670152 0.360613,-0.927225 0.118995,-0.203991 0.197808,-0.476596 0.424979,-0.66969 0.243938,-0.207312 0.538255,-0.362392 0.837053,-0.540881 0.257306,-0.153689 0.538332,-0.106245 0.772689,-0.103001 0.252592,0.0035 0.565607,0.05741 0.656785,0.309077 0.08175,0.225701 -0.264877,0.481693 -0.424979,0.579516 -0.386167,0.382656 -1.668466,0.453954 -2.250454,0.453954 m 7.602929,-0.627071 c 0.12332,-0.0357 0.354679,-0.171194 0.597226,-0.174593 0.209323,-0.0029 0.328547,-0.05664 0.540883,-0.07727 0.896627,-0.08716 2.823943,0.313247 2.936215,1.468108 0.04003,0.41138 -0.314097,0.608029 -0.61815,0.772689 -0.245484,0.13298 -0.563445,0.174008 -0.849958,0.257537 -0.392526,0.114511 -0.488029,0.14573 -0.849956,0.206075 -0.270055,0.04505 -0.3678,0.156161 -0.463614,0.231808 -0.544668,-0.544668 -0.968874,-1.561451 -1.210571,-2.318067 -0.102072,-0.319582 0.03724,-0.352962 -0.334805,-0.463612 m 9.890411,-0.07727 c 0.556336,0.102536 0.645967,0.289603 1.437374,0.19873 0.590645,-0.04895 1.179723,-0.105728 1.807918,0.03308 M 63.257526,90.588386 c -0.105008,0.569857 -0.169992,1.483561 -0.618151,1.93172 -0.698898,0.698898 -1.258786,-0.407516 -1.468108,-0.927225 -0.08808,-0.21875 -0.181504,-0.325071 -0.309075,-0.463614 m 64.701458,-1.198546 c 0.65549,1.467646 0.91544,1.188337 1.3634,1.739429 m -10.6631,-0.772689 0.77269,0.927226 m -28.280395,-0.69542 c 0.629739,0.182432 0.598832,0.741164 1.31357,1.004495 m -12.517553,0.849958 0.96586,-0.193173 c 0.67533,-0.262869 1.39393,-0.531531 1.815818,-0.837053 0.302121,-0.21898 0.520792,-0.755767 0.34771,-1.133302 -0.251897,-0.549846 -0.970497,-0.764421 -1.506743,-0.682517 -0.499156,0.07619 -1.091809,0.201904 -1.622645,0.386345 -0.316879,0.110032 -0.78142,0.221608 -1.081764,0.115904 -0.383099,-0.134912 -0.335578,-0.431933 -0.141634,-0.66969 0.399095,-0.489497 1.32153,-0.980542 1.996087,-0.927226 m 98.208699,4.327057 c 0.23181,0 0.32685,-0.03168 0.54088,-0.06437 0.32453,-0.04961 0.68924,0.02241 1.0045,-0.02581 0.36084,-0.05509 1.3012,-0.245175 1.60951,0.02581 0.3168,0.277783 0.15144,0.933486 0.10354,1.2234 -0.0371,0.221143 -0.0479,0.429458 -0.10354,0.695417 -0.12286,0.590954 -0.39948,1.166452 -0.52775,1.777184 M 72.9934,93.370065 c 0.07711,0.418566 0.398398,1.075118 0.695419,1.545375 m 87.777411,2.395334 c 0.22176,0.04088 0.32993,0.05494 0.54088,0.09018 0.54242,0.0904 1.01608,-0.09404 1.54537,-0.270443 0.27353,-0.0911 0.52466,-0.13437 0.77269,-0.309075 0.58415,-0.411533 0.26194,-1.239391 -0.23181,-1.506743 -0.37398,-0.202752 -0.69773,-0.206539 -1.08176,-0.115902 -0.25962,0.06135 -0.50688,0.143256 -0.77269,0.231806 -0.14913,0.04976 -0.44197,0.236366 -0.60501,0.141633 -0.23258,-0.134756 -0.0904,-1.094358 -0.0904,-1.352204 0,-0.184132 -0.051,-0.390979 0.15454,-0.502247 0.0981,-0.05324 0.18467,-0.03663 0.30908,0.02573 0.26348,0.131744 0.65601,0.40404 0.92722,0.553786 m 9.19499,-0.386344 0.42498,-0.309076 c 0.50225,-0.219676 0.93573,-0.453567 1.35221,-0.59242 0.22176,-0.07402 0.39871,-0.108871 0.61815,-0.154537 0.25808,-0.05378 0.51384,-0.08453 0.69542,0.06444 0.14063,0.115516 0.1584,0.221682 0.1414,0.373439 -0.0309,0.279403 -0.32994,0.75345 -0.47598,1.004495 -0.32762,0.561126 -0.62433,0.95373 -1.10803,1.403742 -0.0997,0.09296 -0.33226,0.253829 -0.41184,0.321904 -0.10799,0.215633 -0.2096,0.187708 -0.45195,0.381101 -0.17273,0.137833 -0.6842,0.341421 -0.54816,0.409141 0.6846,0.292028 1.54022,-0.275091 2.23641,-0.275091 m -5.48609,0.206075 c -0.21404,0.118685 -0.57874,0.307145 -0.84996,0.386344 -0.4667,0.136226 -1.11267,0.222922 -1.54537,-0.07727 -0.72942,-0.506419 -0.39717,-1.289538 0.19317,-2.099162 0.62742,-0.543277 1.21235,-0.96586 2.04762,-0.849958 l 1.13354,0.656787 0.29594,0.463611 -0.50225,0.927228 c -0.45125,0.428146 -0.54011,0.463303 -0.77269,0.59242 z m -20.78532,-2.524141 0.32221,0.463613 0.38635,0.69542 1.06862,2.008989 m 4.7134,-2.781678 c -0.25756,-0.242663 -0.51512,-0.181129 -0.77268,-0.231806 l -1.1204,0.502249 c -0.81596,0.435021 -1.4372,0.936882 -1.42948,1.506741 0.0139,1.012145 1.11499,1.42306 1.93173,1.184763 0.63437,-0.184905 1.19766,-0.536477 1.62264,-1.030225 0.15377,-0.178879 0.19317,-0.330943 0.19317,-0.811323 z m -9.27226,-0.154536 0.33458,1.004494 1.44261,2.240796 m -6.9542,0.309075 c -0.56329,0.163037 -1.08022,0.02967 -1.69992,0.244711 -0.24803,0.08623 -0.60897,0.213396 -0.80755,0.02973 -0.28203,-0.261401 -0.28271,-0.671447 -0.26107,-0.892591 -0.0528,-0.351558 -0.063,-0.192647 -0.28599,-0.589174 -0.12904,-0.23003 -0.14748,-0.303203 -0.25489,-0.569859 -0.17772,-0.440508 -0.5208,-1.053095 -0.0904,-1.274935 0.41957,-0.216274 1.46734,0.402417 2.00899,0.502248 m -9.19499,0.618151 c -0.12243,-0.350139 -0.43454,-0.545084 -0.85699,-0.649754 -0.42181,0.09875 -0.63971,0.183358 -0.92019,0.366408 -0.25345,0.165589 -0.51771,0.37151 -0.59266,0.66969 -0.0502,0.201207 -0.0456,0.365094 0.12904,0.527978 0.45898,0.428996 1.33907,0.101608 1.93172,0.167442 0.38944,0.04327 0.71629,0.238992 1.08177,0.386344 0.23103,0.09303 0.68615,0.257538 0.75955,0.540881 0.0919,0.352888 -0.43116,0.572023 -0.68228,0.66969 -0.87546,0.340524 -1.6072,0.208006 -2.47261,0.02573 m 28.97582,-3.168023 c 0.45608,-0.06164 0.73927,-0.24276 1.54538,0 m -38.9435,3.245292 c -0.0116,-0.427373 -0.1584,-0.798342 -0.33458,-1.236303 -0.11126,-0.275463 -0.50456,-0.792855 -0.41261,-1.081762 0.18854,-0.589407 1.37925,-0.791234 1.98349,-0.849958 0.83991,-0.08167 1.76405,0.231344 2.15039,1.004495 0.2094,0.418257 0.61197,1.300511 0.23181,1.777184 -0.28744,0.360612 -0.97977,0.382557 -1.3777,0.515151 -0.19627,0.06529 -0.31603,0.09991 -0.54089,0.102999 -0.15222,0.0022 -0.24262,0.014 -0.38634,0 -0.21635,-0.02109 -0.40875,-0.07727 -0.61815,-0.07727 -0.25499,0 -0.33921,-0.03593 -0.61815,-0.09017 -0.22795,-0.04427 -0.28281,0.08276 -0.38635,0.128807 -0.1159,0.05154 -0.29207,0.06622 -0.46361,0.115904 m -4.9452,-3.374099 c 0.60965,-0.143874 2.1643,0.04628 2.36983,0.824227 0.0695,0.264723 -0.13522,0.492744 -0.24494,0.695419 -0.0858,0.158094 -0.051,0.300191 -0.20631,0.437885 -0.15299,0.135761 -0.29362,0.08314 -0.45048,0.115901 -0.22562,0.04706 -0.61197,0.146115 -0.84995,0.218903 -0.35003,0.107018 -0.57102,0.266347 -0.84996,0.167442 -0.27817,-0.09883 -0.19626,-0.396698 -0.25731,-0.553786 -0.0518,-0.131589 -0.18621,-0.272373 -0.25807,-0.386345 -0.095,-0.152142 -0.17772,-0.357367 -0.1669,-0.540881 0.008,-0.16126 0.0131,-0.312165 0.0386,-0.463614 0.0286,-0.169835 0.12904,-0.252977 0.2573,-0.321978 0.17463,-0.09373 0.44198,-0.151601 0.61816,-0.193173 m 18.15817,-0.02573 h 0.77269 l 1.93172,0.154536 m -1.2363,0 c 0.0657,0.356519 0.003,0.337433 0.16768,0.69542 0.26889,0.587243 0.83759,1.749831 0.91409,2.163528 m 2.82755,-1.73372 c 0.45975,-0.01213 1.51341,-0.627308 2.11765,-0.198 m -44.144654,0.111074 c 0.561194,0.184914 0.66411,0.516897 1.170042,1.202495 0.10895,0.170224 0.08345,0.37089 0.258079,0.502247 0.306757,0.231961 0.677647,0.409139 0.91409,0.656787 0.275077,0.288675 0.463614,0.395769 0.463614,0.84996 m 7.649619,-0.15454 c -0.18468,-0.226166 -0.79433,-1.235686 -0.70856,-1.622648 0.0386,-0.171305 0.12363,-0.234819 0.25808,-0.386344 0.11049,-0.125176 0.25189,-0.229874 0.37321,-0.309075 0.27585,-0.179881 0.73019,-0.392217 1.08176,-0.450709 0.40643,-0.06777 0.77732,0.09736 1.08176,0.283267 0.35467,0.216894 0.51693,0.447618 0.84996,0.785592 0.24108,0.244634 0.30908,0.336662 0.30908,0.695419 M 78.402208,99.93792 c -0.453567,-0.131203 -0.525426,-0.557882 -0.772687,-0.849958 -0.18444,-0.217665 -0.319352,-0.269282 -0.424979,-0.540881 -0.07217,-0.185523 -0.01676,-0.313557 0.115904,-0.463614 0.26194,-0.296093 0.769596,-0.418643 1.159031,-0.553786 0.27276,-0.09458 0.653695,-0.155465 1.004495,-0.03863 0.542427,0.180809 1.100309,1.07396 0.91409,1.674185 -0.08036,0.260087 -0.401797,0.393143 -0.605015,0.463614 -0.148355,0.05161 -0.224078,0.06467 -0.386342,0.102999 -0.201672,0.0476 -0.299031,0.07897 -0.540883,0.115904 -0.175399,0.02681 -0.401797,-0.04667 -0.450477,0.167437 -0.068,0.29355 0.343847,0.48827 0.514611,0.63106 0.220988,0.18483 0.337665,0.31155 0.631285,0.37344 m 21.403469,-1.236304 c -0.1924,0 -0.55479,0.03261 -0.69542,-0.03863 -0.2434,-0.123321 -0.2264,-0.276004 -0.399479,-0.476517 -0.227942,-0.264877 -0.245714,-0.352191 -0.128266,-0.64388 0.225625,-0.560663 1.339845,-1.278104 1.995855,-1.068861 0.17154,0.05455 0.38094,0.333802 0.54088,0.399171 0.22099,0.09033 0.26426,0.161493 0.54088,0.257614 0.44894,0.156006 0.48602,0.149052 0.34771,0.875688 -0.89786,0.42467 -1.49129,0.695419 -2.20216,0.695419 z m -29.9803,-2.163537 c 0.08631,0.192941 0.09898,0.339056 0.180269,0.540883 0.34825,0.864561 1.002795,2.236778 1.519646,3.090758 m 20.244437,-3.631641 -0.695419,0.218903 -1.081764,0.412153 c 0,0 -0.51916,0.182936 -0.463614,0.373441 0.239384,0.821003 1.66128,0.110494 2.549873,0.283344 0.362389,0.07047 0.758778,-0.0024 0.991359,0.334806 0.169218,0.243862 -0.0425,0.499465 -0.29594,0.592421 -0.415707,0.152296 -1.48279,0.463613 -1.931722,0.463613 -0.329938,0 -0.482157,-0.0515 -0.849956,-0.0515 m -4.867937,-1.236304 c 0.123629,-0.585464 0.993676,-0.916252 1.664276,-1.311226 0.164929,-0.03841 0.306893,-0.09979 0.535541,-0.07449 1.025291,0.592338 -1.060876,1.218739 -1.658937,1.359987 -0.214806,0.05076 -0.322983,0.02728 -0.54088,0.05146 -0.244944,0.02728 -0.483704,0.02612 -0.631288,0.283346 -0.21558,0.376221 -0.114358,0.656785 0.322212,0.862857 0.231033,0.10918 0.457431,0.1615 0.69542,0.14164 0.547835,-0.0456 1.140488,-0.26048 1.622645,-0.463616 m 16.303729,-2.086259 c 0.24726,0.348251 0.46989,0.478293 0.67851,0.598832 m 10.75728,-0.598832 c 0.43734,0.402726 1.40552,0.826235 1.00449,1.390839 M 56.380599,98.469808 c 0.771683,-0.16242 1.711429,-0.872212 2.62714,-0.592421 0.679581,0.207699 0.593117,0.746031 0.231808,1.210571 -0.139316,0.179109 -0.19016,0.368031 -0.386345,0.515151 -0.275927,0.206927 -0.354278,0.24672 -0.772689,0.334807 m 4.945207,-1.777184 c 0.105936,0.503099 0.261863,0.603933 0.412074,1.004495 0.211254,0.563213 0.318193,1.131213 0.437882,1.699913 m -9.890411,-2.627138 1.004495,3.399828 m 26.194136,-2.704409 0.463614,0.05154 c 0.07821,-0.187952 0.138642,-0.393688 0.309075,-0.48942 0.255792,-0.213457 0.477702,-0.240573 0.69542,-0.244634 0.71446,-0.06067 1.140037,0.03915 1.699914,0.06436 m -17.230951,0.03863 c 0.205303,-0.09411 0.49089,0.0063 0.69542,0.07727 0.215735,0.07487 0.345545,0.03863 0.540881,0.03863 0.486331,0 0.935804,0.17316 1.14613,0.695419 0.07171,0.177951 0.08754,0.273919 0.09017,0.463614 0.01104,0.79448 -0.716437,1.2234 -1.390839,1.53247 -0.764497,0.35042 -2.123579,0.19843 -2.382431,-0.83705 -0.189927,-0.759478 0.666985,-1.679902 1.300667,-1.970357 m 46.670384,-0.03863 c 0.0634,0.345933 0.26117,0.393918 0.30907,1.004497 M 98.327921,98.58329 c -0.482419,-0.01316 -0.989112,-0.144479 -1.35945,0.03622 -0.762547,0.146421 -0.616702,0.178835 -1.180765,0.391171 m -14.135368,-0.0048 c 0.398706,0.282726 0.96644,1.267709 1.386009,1.782009 M 58.930471,99.55158 c 0.1115,0.09975 0.197576,0.202986 0.386345,0.231806 0.127107,0.01938 0.523418,0.0214 0.69542,0.06437 0.372589,0.09319 1.612368,0.417564 1.532472,0.940134 -0.108176,0.70801 -1.643972,1.34386 -2.150625,1.44237 -0.215271,0.0418 -0.602774,-0.0127 -0.682514,-0.0773 -0.17007,-0.13784 -0.190236,-0.27105 -0.321981,-0.43788 m 52.620082,4.79067 c 0.28744,-0.49699 0.77424,-0.61228 1.46811,-0.82423 0.17772,-0.0542 0.29594,-0.0831 0.46361,-0.0901 0.24263,-0.0101 0.51539,0.22795 0.59265,0.45071 0.17849,0.51539 -0.12517,1.23043 -0.46361,1.69992 -0.22872,0.31626 -0.65678,0.71172 -0.88859,1.00449 -0.17308,0.2186 -0.18467,0.34918 -0.24494,0.54088 -6.6e-4,0.2417 0.25226,0.13056 0.46361,0.0773 l 0.77269,-0.20607 0.77269,-0.11591 1.31357,-0.14163 m -29.825777,-2.93621 1.622645,0.15453 0.927228,0.16744 0.540881,0.0128 1.854453,0.12881 m 1.622645,-0.30907 c 0.384027,0.4864 0.334574,0.54088 0.772689,1.00449 0.231035,0.24464 0.401026,0.51253 0.631285,0.77269 0.11436,0.12966 0.247743,0.27398 0.40943,0.36943 0.135556,0.22979 0.350301,0.44082 0.504663,0.55778 l 0.772686,0.61815 m 6.413312,-3.24527 c 0.42266,0 0.82214,-0.0257 1.15903,-0.0257 0.39794,0 1.0895,0.0679 1.35221,0.48934 0.4018,0.64465 -0.0919,2.14823 0.0386,2.85895 m 2.62715,0.30907 c 0.5996,0.22107 0.95349,0.0851 1.54537,-0.2189 0.14759,-0.0757 0.24958,-0.13097 0.38635,-0.23181 0.28898,-0.21287 1.04622,-0.79795 0.91409,-1.2492 -0.19936,-0.68391 -1.29967,-0.82887 -1.91859,-0.57952 -0.39021,0.15724 -0.66683,0.61854 -1.00449,0.46361 -0.26967,-0.12363 -0.23181,-0.77439 -0.23181,-1.04313 0,-0.19093 -0.0842,-0.53114 0.0904,-0.65678 0.40952,-0.29486 0.47056,0.12726 1.06862,0.34771 m -19.471705,-0.30908 c 0.0077,0.30451 0.140628,0.35327 0.309075,0.69542 0.124403,0.25236 0.124403,0.50982 0.244941,0.77269 0.343846,0.75144 0.677648,1.57195 1.223166,2.24079 m 26.348673,-3.55437 c 0.26503,0.37305 0.12827,0.52388 0.39948,0.84996 0.46362,0.55865 2.17743,0.40683 2.76158,0.40683 m -64.074635,3.37934 c -0.228717,-0.27902 -0.148743,-0.5541 -0.257614,-0.92723 -0.08198,-0.28126 -0.182587,-0.5374 -0.244634,-0.77269 -0.137384,-0.52048 -0.317961,-1.19202 -0.399248,-1.77718 -0.02666,-0.19194 -0.192012,-0.51515 -0.141633,-0.69542 0.05772,-0.20669 0.151987,-0.20221 0.373439,-0.25754 0.274769,-0.0687 0.785283,-0.21728 1.159034,-0.10307 1.20207,0.36733 2.241568,2.05535 2.74908,3.00103 l -0.08331,0.45033 -0.128807,0.37345 -0.296172,0.2447 c -0.438579,0.47524 -0.918526,0.53679 -1.381465,0.76844 -0.403613,0.0187 -1.148472,-0.0606 -1.348674,-0.30482 z m 20.347437,-0.84996 c 0.401179,0.0106 0.922356,0.0848 1.468106,0.0773 0.192632,-0.003 0.280023,-0.0338 0.463614,-0.0644 0.519247,-0.0865 0.928772,-0.31619 1.390839,-0.55379 0.390979,-0.20074 1.094126,-0.91617 0.759552,-1.39084 -0.748734,-1.06376 -2.471057,-0.50603 -3.463961,-0.64388 -0.265265,-0.0369 -0.395386,-0.16844 -0.540883,-0.28334 0.108253,-0.14828 0.17741,-0.26349 0.386344,-0.36062 0.654159,-0.30405 0.928695,-0.3348 1.545378,-0.3348 m 45.184159,0.46482 c -0.58922,0.68216 -1.39204,1.90849 -0.4455,2.43276 0.50843,0.28157 1.06245,-0.001 1.54538,-0.12881 0.46052,-0.12146 1.08485,-0.34523 1.36534,-0.75978 0.085,-0.12587 0.18157,-0.39407 0.1669,-0.54088 -0.0301,-0.3097 -0.11668,-0.45064 -0.32144,-0.84996 -0.12363,-0.24069 -0.12595,-0.27732 -0.20631,-0.46361 -0.10122,-0.23529 -0.37552,-0.48193 -0.76061,-0.48656 -0.70299,-0.0353 -0.83948,0.60061 -1.34376,0.79684 z m -3.69079,-0.23302 c 0.0409,0.52018 0.46284,2.00668 0.69542,2.47261 m -48.370296,-2.36962 c 0.08886,-0.0123 0.562902,0.19688 0.61815,0.20608 0.302198,0.0504 0.295091,-0.0253 0.502247,0.30907 0.179341,0.28937 0.240694,0.44059 0.360615,0.77269 0.05911,0.16373 0.411379,0.69959 0.386344,0.84996 -0.02844,0.17038 -0.175169,0.25723 -0.32198,0.37344 -0.185987,0.14727 -0.418257,0.20484 -0.61815,0.25761 -0.399171,0.10532 -1.006582,0.25128 -1.468109,0.29617 -1.802604,0.17525 -1.528997,-1.48449 -0.61815,-2.39533 0.204068,-0.20407 0.289835,-0.33705 0.540881,-0.47652 0.207622,-0.11528 0.400329,-0.16288 0.618152,-0.19317 m -7.572348,0.0515 c 0.495966,1.06131 1.107075,2.16385 1.390839,3.24529 m 1.468109,-2.93621 c 0.621781,0.87514 0.867651,1.9855 1.468108,2.93621 m 24.339686,-0.30907 c 0.116675,-0.23297 0.178489,-0.35938 0.32221,-0.54088 0.419569,-0.53045 0.526202,-0.54885 0.91409,-0.92723 0.202465,-0.23421 0.376451,-0.53872 0.489112,-0.6954 0.22408,-0.29339 0.797415,-1.1826 0.978997,-1.54538 m -13.212972,2.70439 c -0.411844,0.60216 -1.052401,1.64537 -1.31357,2.47261 m -7.415394,-2.33739 c 0.381635,1.10126 0.422434,0.68424 0.615734,0.94655 m -12.024963,-0.62299 c -0.413242,0.30146 -1.588023,1.42742 -2.470845,1.26631 -0.371358,-0.11012 -0.538883,-0.3658 -0.616643,-0.65554 -0.07549,-0.28129 0.01025,-0.74254 0.199565,-0.85065 0.228717,-0.16195 0.48038,-0.37691 0.772689,-0.4378 0.241697,-0.0504 0.52257,-0.17973 0.772688,-0.23181 0.259932,-0.0542 0.338671,-0.16358 0.618151,-0.16744 0.309616,-0.004 0.488261,0.21836 0.61815,0.54088 0.08353,0.20739 0.06305,0.35729 0.180268,0.54088 0.169144,0.26473 0.445147,0.54815 0.66969,0.77269 m -30.830307,-53.414519 0.07727,0.309075"
       id="path507"
       sodipodi:nodetypes="cscccccsccccscccsccccccsccccccsccscccccccccccccccccccccsccccccccccccccccssccccccccscccccccccccccccccccccccccccccccsscccccccccccccccccccccccccccccccccccccccccccccccccsccccccccccccccccccccccccsscccccccccsccccsccccccccccscccscccscccccssccccccscccacccccccaccccscccccccccccccccccccccccccccccccccccccccccccccccccccccscccccccccccccccssscsscccccccccccccccccccccssccacccsccccccccccccccccccccccccccccccccccccccsscccccccccscsccscccsccccccscccccccccccassccccccccccccsccccccccccccccccccccccccccsccccccccccccccccccccccccccccccscccscccccscscssccccsccccccscccccsccccccccccccccccccccccccccccccccccsccccccccccccscccsccccccccccccccccccccccccccccsccccccsccccccccccccccsscscccccccccccscccccccccccccccccccccscccsccccccccccssccccscsccccccasccsccccccccccccccccsscccccccccccccsccccccccccccccccccccccccscccccccccccccccccsccccccccscccccccccsccsccccccccsccsccccccccccccccccccccsccccscccccccccccccccccaccccsccccccscccc" /><path
       d="m 10.20447,63.628868 0.07727,0.309076"
       style="fill:none;stroke:#726c8b;stroke-width:0.0772689"
       id="path834" /></g></svg>
