<?xml version="1.0" encoding="UTF-8" standalone="no"?>
<!-- Created with Inkscape (http://www.inkscape.org/) -->

<svg
   version="1.1"
   id="svg55610"
   width="4110.6665"
   height="1602.6667"
   viewBox="0 0 4110.6665 1602.6667"
   sodipodi:docname="NathanC - Pulsz - Envelope 40.svg"
   inkscape:version="1.2 (dc2aedaf03, 2022-05-15)"
   xml:space="preserve"
   xmlns:inkscape="http://www.inkscape.org/namespaces/inkscape"
   xmlns:sodipodi="http://sodipodi.sourceforge.net/DTD/sodipodi-0.dtd"
   xmlns="http://www.w3.org/2000/svg"
   xmlns:svg="http://www.w3.org/2000/svg"><defs
     id="defs55614"><pattern
       id="EMFhbasepattern"
       patternUnits="userSpaceOnUse"
       width="6"
       height="6"
       x="0"
       y="0" /></defs><sodipodi:namedview
     id="namedview55612"
     pagecolor="#ffffff"
     bordercolor="#666666"
     borderopacity="1.0"
     inkscape:pageshadow="2"
     inkscape:pageopacity="0.0"
     inkscape:pagecheckerboard="0"
     showgrid="false"
     inkscape:zoom="2.4093416"
     inkscape:cx="160.00222"
     inkscape:cy="106.87567"
     inkscape:window-width="1920"
     inkscape:window-height="991"
     inkscape:window-x="-9"
     inkscape:window-y="-9"
     inkscape:window-maximized="1"
     inkscape:current-layer="g55616"
     inkscape:showpageshadow="2"
     inkscape:deskcolor="#d1d1d1" /><g
     inkscape:groupmode="layer"
     inkscape:label="Image"
     id="g55616"><path
       style="fill:none;stroke:#35312b;stroke-width:0.218823"
       d="m 151.03245,19.359146 c -2.76681,0 -6.49579,-0.482507 -7.51594,-3.720004 -0.73613,-2.335946 0.30613,-5.168663 1.72039,-7.0023631 0.64356,-0.8346378 1.32388,-1.6384872 2.08408,-2.4029922 0.76894,-0.7730169 1.32716,-1.2447137 2.39852,-1.0981892 m -42.88946,1.9694152 c -0.2545,1.057116 -0.43984,2.3253959 -0.69936,3.7200043 -0.0783,0.420798 -0.21752,1.290929 0.0499,1.609668 0.37025,0.441805 0.78142,0.212696 1.30616,0.04617 0.92759,-0.294341 3.90994,-1.296663 5.03273,-1.655841 M 29.804054,23.079152 c 1.124754,0.08556 2.761994,-0.110506 4.5953,-0.744439 1.299594,-0.449244 2.877751,-1.157359 3.532035,-2.756962 0.233486,-0.570911 0.349461,-1.055825 -0.120134,-1.750372 -0.643561,-0.951665 -1.578814,-1.727832 -2.536606,-2.209244 -1.210972,-0.608549 -2.687813,-1.099153 -3.938829,-1.608355 -1.169176,-0.475942 -3.06966,-1.017095 -2.333318,-2.524222 0.39454,-0.807371 1.191714,-1.195587 1.895672,-1.744878 0.777042,-0.6063614 1.599382,-1.2710601 2.625884,-1.5319419 1.738556,-0.4418052 2.356514,-0.6034285 4.376477,-0.2284307 M 163.06775,8.6367789 163.50541,10.38737 M 93.26296,8.8556022 c -0.664131,0.7852941 -0.812056,1.2968598 -0.676166,3.2823568 0.05055,0.737438 -0.241143,3.203363 0.227139,3.869243 0.35909,0.510955 0.882954,0.565222 1.54227,0.473754 0.707896,-0.09803 0.923219,-0.412264 1.4066,-0.819058 0.892363,-0.750565 1.504414,-0.420141 2.033092,0.03523 1.143573,0.985145 1.347736,0.949257 2.181017,1.795449 0.391918,0.39804 0.437648,0.79083 0.541148,1.210315 0.18163,0.736123 0.5963,1.389312 1.27903,1.969195 m -20.56944,-0.65647 c 1.095213,0.260839 2.125655,0.304823 3.282357,0.07331 0.905493,-0.181186 1.991297,-0.253617 2.840552,-0.653846 0.630431,-0.297163 1.176397,-0.82409 0.953415,-1.607042 -0.380315,-1.334607 -5.400134,-4.017605 -3.067909,-5.726882 0.416859,-0.30561 0.91709,-0.267929 1.46218,-0.148254 0.854288,0.187511 1.234166,0.584851 1.876634,1.279179 1.229789,1.329137 2.099832,1.658465 3.340345,2.088018 l 0.472441,0.10022 m 26.696505,5.470597 c 1.57247,-0.137202 2.29962,-0.588855 3.72,-0.930221 0.96152,-0.231078 2.12106,-0.134358 3.06244,-0.511611 0.89456,-0.358433 1.69129,-1.274867 0.80571,-2.138564 -1.02015,-0.995211 -3.18913,-1.220162 -4.5244,-1.77685 -0.4766,-0.198692 -1.26786,-0.598264 -1.26786,-1.205063 0,-1.020157 1.6136,-1.377057 2.36176,-1.643805 1.15233,-0.410557 2.55346,-0.707653 3.28236,-0.765664 m 44.42122,8.752953 c 1.54972,0.368937 2.31122,0.254711 3.72001,0.01729 1.27837,-0.215324 5.28941,-1.072676 4.36619,-3.080604 -0.69935,-1.521044 -2.54689,-2.192176 -3.92767,-2.817793 -0.56632,-0.256462 -1.35014,-0.625399 -1.36808,-1.346205 -0.0381,-1.511329 2.51932,-1.360188 3.33663,-1.268653 0.90987,0.101885 1.4532,0.388981 1.96941,0.618308 m -73.30597,0 c -0.27397,1.037881 -0.53459,1.297844 -1.31295,1.531768 m 59.52009,2.844709 c 0.64836,-0.917965 1.29433,-2.542952 2.01537,-3.249752 0.50328,-0.493448 1.02714,-0.798708 1.61053,-0.333926 0.48251,0.384254 0.64159,1.246201 0.77507,1.833087 0.27572,1.212284 0.31729,2.2959 0.85079,3.501182 M 71.818226,16.73326 c 0.970702,-1.087992 2.101365,-3.883685 4.153495,-2.837706 1.606386,0.818619 1.421041,2.478398 0.939629,3.713002 -0.294756,0.756692 -0.921468,1.552555 -1.611637,2.028934 -0.866543,0.598483 -1.667,0.619929 -2.605974,0.54706 -0.460405,-0.03589 -1.011622,-0.107661 -1.235916,-0.656471 -0.236768,-0.580103 0.561283,-1.964601 0.132388,-2.770748 -0.226481,-0.42605 -0.806146,-0.76282 -1.17399,-0.628462 -0.436771,0.159303 -0.539399,0.457998 -1.027814,0.786233 -0.452091,0.303947 -2.256512,1.440955 -2.821953,1.612514 -0.973985,0.295192 -1.513604,0.257993 -1.969414,0.393883 -0.294317,-1.070925 -0.212259,-2.217561 1.314038,-3.053905 1.576406,-0.863698 2.798974,-0.723213 4.156557,-0.228452 m 42.451825,-0.437648 c 0.45121,-0.91534 1.24773,-1.431108 2.40706,-1.510541 0.85188,-0.05821 2.12346,0.08469 2.12346,1.291717 0,2.628512 -3.50993,0.914465 -4.74935,0.218824 -0.70461,1.670501 -0.21992,2.81298 0.94116,4.156777 1.19784,1.386468 2.62939,2.018869 4.31061,1.751467 m 36.56306,-6.96582 c 0.96501,-0.259744 2.56001,0.106787 3.19307,0.862604 1.12716,1.345328 -0.3674,2.536605 -1.68078,3.01933 -0.75495,0.277469 -1.84184,0.544215 -2.62261,0.407232 -0.80899,-0.142017 -1.49347,-0.809429 -1.29281,-1.700043 0.17616,-0.781201 0.7637,-1.229132 1.25342,-1.739867 0.44619,-0.46522 0.5998,-0.701332 1.14971,-0.849256 m -48.59837,0.401104 0.76873,1.752779 1.39982,0.870699 3.08322,2.409471 M 56.938207,17.608556 c 0.103503,-1.25408 0.07068,-2.252573 1.969413,-2.559146 0.927814,-0.149893 3.431376,-0.01969 2.40006,1.580127 -0.408544,0.633715 -1.450582,0.925845 -2.181235,1.084273 -0.917967,0.199129 -1.514918,0.133264 -2.188238,0.332393 0.699579,1.704856 2.403997,2.598315 4.814124,3.282358 m 99.346009,-5.689419 c -0.29081,1.565684 -0.62671,2.722387 -0.87529,3.720004 M 51.686436,16.514436 c 2.581464,1.012061 0.312698,4.402299 -2.407063,5.316764 -0.852975,0.286878 -1.376182,-0.01707 -2.188238,0.06412 -0.600671,0.06017 -0.993023,0.295848 -1.531768,0.380097 -0.753409,0.117945 -1.438765,-0.06937 -1.969194,-0.351433 -1.755623,-0.933282 -3.579521,-3.970776 -1.313161,-5.19072 M 92.606488,16.51444 v 3.063535 m 3.063534,-3.063535 c 0.0814,0.723432 0.207664,1.353206 1.103747,1.625206 0.470034,0.14289 1.264364,0.133482 1.735491,-0.0941 0.674852,-0.325828 0.854289,-0.647717 1.099589,-0.874638 m 6.127071,-0.656472 -0.21883,2.407063 m -40.92005,0.218823 0.935472,1.377059 1.690414,1.059983 1.530673,0.709427 1.314036,0.792361 c 0.988866,-1.498286 0.446401,-1.936373 1.09412,-3.282358 m 1.750589,-0.656472 0.218825,0.656472 m -26.477682,-0.218823 0.437648,1.969415 m 22.9765,1.531766 -0.218823,2.188238 m 37.200048,68.054211 0.55494,3.720005 0.28315,2.407061 0.12999,1.969413 0.12516,1.53177 0.0937,1.96941 0.12604,2.18824 0.21883,4.37648 m -20.788265,-4.81413 c -0.323861,-1.06545 -0.350776,-1.41841 -0.417954,-2.40706 -0.05711,-0.83591 0.06652,-1.77991 0.03611,-2.62588 -0.02341,-0.644 -0.07528,-1.08559 -0.04727,-1.750595 0.03961,-0.931971 0.178998,-1.855188 0.604828,-2.625886 0.668288,-1.20922 1.449709,-2.452139 2.45958,-3.15347 0.824529,-0.572662 2.344916,-0.512923 3.264195,0.139172 1.043353,0.740063 1.940311,2.464614 2.249291,3.67077 0.244644,0.955166 0.250772,2.024776 -0.106787,3.063529 -0.458217,1.33133 -1.377495,2.1668 -2.571398,3.10315 -0.819058,0.64224 -2.251259,1.3602 -3.063534,1.61579 -1.400691,0.44071 -1.71164,0.61643 -2.407061,0.97048 m 77.463635,0 c 0.53962,-0.94903 1.08032,-3.35828 1.92893,-4.57582 0.57879,-0.83044 0.92213,-0.88186 1.43351,-1.55978 0.28753,-0.38141 1.44117,-2.388022 1.90091,-2.785188 1.97664,-1.707044 2.12303,1.752123 2.1075,2.792628 -0.003,0.20198 0.023,1.00331 0.55756,1.09565 0.68208,0.11795 1.0079,-0.28359 1.3902,-0.70373 0.49409,-0.54291 1.91075,-3.319561 2.72609,-4.097261 0.8427,-0.803521 1.54775,-0.967639 2.23529,0.0105 0.32495,0.462375 0.36129,0.978143 0.44028,1.507697 0.26608,1.780574 0.0516,3.709504 0.37857,5.470594 m -28.22827,5.25178 c -2.10859,1.43658 -5.95814,2.07773 -6.55181,-1.31295 -0.22976,-1.31163 -0.079,-2.25716 0.007,-3.50118 0.12101,-1.75387 0.34727,-3.61409 1.46612,-5.009316 1.24685,-1.555181 2.21427,-1.011841 3.32853,-0.898928 m 16.6306,1.969414 0.21884,1.31295 m -56.45656,9.40942 c 1.29807,0 2.09108,0.005 3.28236,-0.30154 1.48056,-0.38075 2.52939,-0.87814 3.46858,-1.90705 0.47025,-0.51533 0.72759,-1.06239 0.39651,-1.70989 -0.81797,-1.5996 -3.91192,-2.40071 -5.38745,-3.05653 -0.90921,-0.40417 -1.64271,-1.12103 -0.89849,-2.14929 0.59696,-0.82474 2.73618,-1.03153 3.73379,-1.16042 m 4.5953,1.96941 c 1.46481,-0.56412 2.04141,-0.45931 4.15766,-0.86085 1.64993,-0.31313 2.43835,-0.77048 3.72,-0.23326 -0.42758,1.47377 -0.48579,1.44598 -1.64074,2.86418 -0.77901,0.9567 -1.49544,1.94162 -2.13506,3.04406 -0.42955,0.73984 -1.25715,1.85388 -0.90221,2.8318 0.35515,0.97858 1.55014,1.03832 2.27095,0.99455 1.53023,-0.093 3.80841,-0.37484 5.47059,-0.98164 m 25.60327,-8.5873 c 1.16086,-0.42036 2.91298,0.55428 3.71475,1.10659 1.33395,0.91884 1.62148,2.35651 -0.66063,3.92504 -2.55367,1.75497 -4.63403,0.0689 -4.58261,-2.5714 0.0204,-1.03876 0.19498,-1.97729 1.52849,-2.46023 m -89.499817,3.33553 c 0.03589,-0.22561 -0.02779,-0.61074 0.350774,-0.96742 0.438961,-0.41336 1.298062,-0.29432 1.675097,0.16171 0.535242,0.64728 0.398696,1.76022 0.377907,2.5563 -0.0547,2.10421 -1.209657,4.86226 -3.279293,5.90211 -0.903087,0.45384 -2.500062,0.19629 -3.282139,-0.12166 -0.807678,-0.32824 -1.127818,-0.82869 -1.960004,-0.85188 -0.712272,-0.0199 -1.440955,1.50726 -2.85412,1.71054 -2.496561,0.35909 -3.226993,-2.08101 -4.023293,-4.01323 -0.408764,-0.99192 -0.698486,-1.24095 -0.621899,-2.18714 0.04595,-0.56675 0.177904,-1.01512 0.268717,-1.31404 l 1.750589,1.31294 m 40.482407,-1.53176 c -0.307886,0.97398 -0.864355,2.74427 0.112474,3.58455 0.593451,0.51052 1.46984,0.1046 2.075763,-0.14683 1.001557,-0.41555 1.276399,-0.5534 1.750591,-1.46831 m -12.035309,-1.09412 c 0,2.55959 0.0096,4.60953 0,6.34589 m 51.642415,-5.68942 -0.65647,0.43765 m -124.0731,5.25177 c 0.06304,0.49105 0.313378,1.45475 0.116678,1.93703 -0.382352,0.93744 -1.174953,0.7009 -2.304916,0.68799 -2.8079468,-0.0322 -6.4340544,-1.14992 -7.1577047,-4.3756 -0.3554793,-1.58451 -0.3395927,-2.43158 0.098952,-3.03115 0.1666343,-0.2278 0.4574074,-0.6602 1.3695088,-0.65319 1.0390849,0.008 2.5304129,0.71621 3.0633583,0.83962 m 46.1718246,0 -0.218823,0.21883 m 43.764761,-0.21883 c 0.795861,1.07268 1.883641,1.96833 3.282361,2.84472 m -42.232999,-1.96942 0.218823,1.96942 m -39.607109,-1.31295 c 2.123247,0.70418 2.86309,1.68516 2.460017,3.93883 -0.136765,0.76391 -0.983395,2.44382 -1.624985,2.94034 -0.469378,0.36303 -0.902211,0.47725 -1.491504,0.61467 -0.948601,0.22145 -2.034777,0.009 -3.063534,-0.34771 -1.136153,-0.3941 -1.807024,-1.29609 -2.407061,-1.89436 m 21.007086,0 c -0.838314,0.95342 -1.913833,1.43571 -3.500086,0.83394 -0.807898,-0.30635 -1.21119,-0.68645 -1.539646,-1.49435 -0.38666,-0.95122 -0.468719,-2.09327 -0.426705,-3.05937 0.0221,-0.50505 0.03786,-1.16918 0.684698,-1.35956 0.923219,-0.27177 2.274894,0.53065 2.812324,0.70287 m 41.795349,-0.8753 v 0.8753 m -32.385923,0 c 0.733058,1.32323 1.649931,2.39743 1.896326,3.93883 0.156022,0.97726 -0.42233,1.91864 -1.240949,2.37664 -0.592356,0.33152 -1.086899,0.42277 -1.749497,0.63678 -0.657566,0.21248 -1.25955,0.29738 -1.969414,0.24902 -2.125873,-0.14486 -3.71169,-1.66547 -4.376477,-2.16832 m 53.174187,-2.84472 v 0.21883 m 533.273619,11.16001 3.78784,10.28472 0.93876,3.04187 1.40047,0.25931 3.28235,0.41883 m -0.21882,-8.97178 c 0.57114,2.17577 1.16852,2.7062 2.62589,4.37648 M 561.98356,130.084 c 1.5077,0.72562 3.47055,0.44334 5.25177,0.64553 0.69148,0.0783 1.26481,0.19476 1.96942,0.27375 0.86436,0.0972 1.37859,0.16084 2.18823,0.17419 0.90375,0.0149 1.92346,0.14311 2.84472,0.279 1.27136,0.18709 2.36986,0.28425 3.50118,1.0346 m -47.04713,-2.18824 c 1.453,1.17158 2.26483,4.7465 3.05479,7.44001 0.25383,0.86479 0.36106,1.60223 0.63458,2.40706 0.24509,0.7254 0.46609,1.40288 0.64116,2.18824 0.78776,3.50884 1.56458,7.00039 2.17948,10.50354 0.36106,2.06396 0.66742,5.14762 1.36765,7.00236 m 46.60947,-29.54121 c 0.32824,1.03919 0.50987,2.01668 0.77027,3.06353 0.2779,1.11272 0.42451,2.0064 0.6696,3.06353 0.30416,1.31032 0.62583,2.5981 1.00002,3.93883 0.42233,1.5042 1.58648,4.25131 1.27356,5.45769 -0.20789,0.80374 -0.69368,0.82146 -1.30638,0.87529 -0.51861,0.0457 -0.99784,-6.5e-4 -1.53176,0.0501 -0.53613,0.051 -1.01317,0.13174 -1.53178,0.17725 -0.77244,0.0678 -0.90811,0.0797 -1.59523,0.62759 -0.49235,0.3941 -0.9847,0.74663 -1.37639,1.19303 -0.51205,0.58163 -0.81184,1.40353 -1.11382,2.12259 -0.21881,0.52561 -0.45296,1.41863 -0.71117,1.96941 -0.43547,0.93241 -0.63021,0.76173 -0.85998,1.75059 -0.13129,0.56259 -0.2035,1.49173 -0.25165,1.75059 m -9.40942,-25.16474 c 0,0.39432 -0.0219,0.87508 0.009,1.53221 0.0416,0.89324 0.23414,1.67597 0.63459,2.62545 0.65647,1.55211 0.85123,3.2631 1.20572,5.03294 0.56675,2.83618 0.98033,5.97805 0.99564,8.97178 0.004,0.83 0,1.40594 0,2.18824 0,1.14729 -0.31729,1.64905 0.2254,2.2552 0.2976,0.33392 0.90155,0.15646 1.08755,0.11904 0.61051,-0.12079 2.19917,-0.21117 3.06353,-0.53678 0.65866,-0.2488 0.96283,-0.60658 1.18165,-1.18208 0.24728,-0.6567 0.30854,-1.86285 0.56895,-2.40597 M 365.69859,131.83459 c 1.03943,1.09565 1.4727,2.04447 2.40707,3.28236 3.37208,4.46291 6.78353,8.98666 9.32846,14.00473 0.58426,1.15364 0.94314,2.48321 1.54052,3.72 0.48359,1.00418 1.01754,2.02084 1.38516,2.84471 m 264.7768,-18.81885 c -0.67835,-0.81205 -0.8359,-1.1044 -0.43763,-1.96941 1.40046,2.1471 -0.12037,6.45946 -1.03505,8.53325 -0.29323,0.66369 -0.80307,1.49129 -1.58428,1.32017 -1.34796,-0.29476 -1.3392,-2.07161 -1.60179,-3.06988 -0.19914,-0.76698 -0.4267,-1.39654 -0.59302,-1.96942 M 470.51521,159.4064 c 0.89936,1.12257 1.59959,1.93463 3.06352,2.54646 1.68933,0.7057 4.43118,0.21378 6.12708,-0.28514 0.75494,-0.22232 1.32825,-0.43787 1.96941,-0.8801 0.80746,-0.55779 1.37859,-1.22521 1.88188,-2.03769 0.57333,-0.93022 0.70462,-2.7097 0.46609,-3.93883 -0.84028,-4.30755 -7.18836,-7.9002 -10.44446,-10.22105 -2.15323,-1.53373 -5.64345,-3.22699 -6.9017,-5.75309 -0.34354,-0.68711 -0.43107,-1.48822 0.0613,-2.12741 0.58207,-0.75428 1.52958,-0.7987 2.46396,-1.05735 2.87096,-0.79434 5.89729,-0.49389 8.09647,1.65299 m -93.00011,-1.31294 c -0.95189,2.52566 -1.15321,5.48897 -0.7834,8.3153 0.10067,0.75188 0.12473,1.22892 0.12693,1.96942 0.002,1.63089 0,4.01498 0,5.68942 0,1.92893 -0.0591,3.08278 -0.34575,5.25176 -0.0941,0.72913 -0.0853,1.21865 -0.18381,1.96942 -0.37857,2.86266 -0.49017,6.06668 -0.7462,8.75296 -0.13566,1.42082 0.0263,1.98232 -0.25602,3.50118 m 267.84036,-29.10357 c -0.47704,-0.65735 -1.03066,-1.41076 -1.22104,-2.18824 -0.12911,-0.52999 -0.10942,-1.0869 -0.0875,-1.75059 0.0263,-0.90571 0.2801,-1.92062 1.31294,-2.20465 0.53394,-0.14749 0.90375,-0.044 1.28889,0.13129 1.23635,0.56632 1.24291,2.45346 0.83372,3.82307 -0.44204,1.48188 -1.07005,1.41579 -1.90815,2.18912 l 2.62588,1.20156 2.18823,0.33021 m -28.00943,-6.12707 c -0.77902,0.41642 -2.65653,0.9195 -5.25178,0.43765 m 6.12707,0 c 0.12473,1.56787 0.74399,4.13423 1.25824,7.22118 0.20787,1.2462 0.52736,2.90686 0.71117,4.15765 M 410.11983,138.39931 c 0.0197,2.50553 0.83154,5.22639 1.38954,7.65883 0.24726,1.08165 0.43764,1.925 0.71774,3.06354 0.26697,1.09127 0.43765,2.13594 0.64552,3.28235 0.17507,0.96961 0.38295,1.85891 0.57333,2.84471 0.15317,0.80593 0.15317,1.32935 0.26696,2.18825 0.46829,3.50992 1.19477,6.83758 1.22103,10.06589 m 102.62837,-23.19533 c -0.75713,-0.87617 -1.29105,-1.31688 -1.48143,-2.40706 -0.0897,-0.5057 -0.12911,-1.02235 0.081,-1.49829 0.48579,-1.09193 1.19478,-0.27046 1.40047,0.40417 m -112.2566,-0.21882 c 1.20352,1.76941 1.47267,5.37913 1.96721,7.65883 0.26915,1.24708 0.50768,2.91539 0.64772,4.15765 0.0722,0.6486 0.17507,1.30047 0.28447,1.96942 0.10067,0.63394 0.12911,1.09084 0.18381,1.7506 0.11598,1.44203 0.45953,2.95215 0.6915,4.37646 0.27351,1.68802 0.23413,3.327 1.0394,4.81414 m 225.38854,-22.75769 c 0.035,1.739 0.63457,2.72961 1.0941,3.72001 m -34.79297,8.75295 v -3.28236 c 0,-0.61052 -0.002,-1.09018 0,-1.75059 0.004,-0.77836 0.0503,-1.19062 0.24946,-1.96941 0.17943,-0.70177 0.16848,-1.31842 0.50767,-1.96066 0.63021,-1.19807 2.33265,-1.85716 3.61934,-1.7018 0.75056,0.0908 1.13569,0.40023 1.53176,0.59892 m 11.59767,9.62825 c -0.75056,-0.65669 -1.59305,-1.66481 -2.29984,-2.31734 -0.20132,-0.18381 -0.49455,-0.47529 -0.9847,-0.44093 -0.71337,0.0499 -1.25825,0.77048 -1.74842,1.1521 -0.73524,0.57267 -2.49459,1.22761 -3.33924,0.22364 -0.98034,-1.16545 -0.88405,-4.14583 -0.68929,-5.40101 0.10722,-0.69257 0.2232,-1.97051 0.81402,-2.53091 0.62365,-0.58973 1.29325,-0.56194 1.85343,-0.24333 0.68274,0.38928 1.22104,2.88431 1.57992,3.86836 m -19.8889,-3.77558 c 0.56676,-0.23655 1.6565,-0.12736 2.59744,0.17768 0.74619,0.24136 1.70901,1.03088 0.8009,1.95454 -0.58208,0.59257 -1.79435,0.82562 -2.54711,0.92015 -0.64553,0.0812 -1.03723,0.0775 -1.40047,-0.28403 -0.62585,-0.62409 -0.081,-2.50554 0.54924,-2.76834 m 26.45361,0.2744 c -0.38295,0.36828 -0.7637,0.71162 -0.93439,1.75147 -0.14222,0.88339 -0.16411,1.58866 -0.15973,2.40618 0.004,1.0799 0.0591,2.20443 1.10505,2.87579 0.92563,0.59279 2.12041,0.37025 3.0526,0.0372 0.89936,-0.32167 1.49239,-0.83306 2.18824,-1.1624 m -37.41887,-4.81412 1.96942,-0.21882 m -1.7506,0.43764 c 0.21227,1.45037 0.88405,4.45219 1.18603,6.56472 0.12911,0.89652 0.12691,1.43462 0.12691,2.40706 m -7.44,-8.09648 c 1.00878,1.0985 1.79217,2.23944 2.4005,4.15765 0.93656,2.95675 1.66306,5.55594 2.85127,8.09648 m -70.6801,1.09413 c -1.26917,0.40241 -1.88844,0.52735 -3.06352,0.76281 -1.59523,0.31926 -3.86444,0.26062 -5.24303,-0.69782 -0.68929,-0.47967 -1.14444,-1.08318 -1.52958,-1.81559 -0.39606,-0.7556 -0.43765,-1.34445 -0.44858,-2.18823 -0.0285,-2.42983 0.4442,-6.79208 2.42895,-8.4 0.9278,-0.74969 1.57114,-0.78623 2.82282,-0.79061 m 81.18363,0.43765 c 0.1138,2.63333 2.6784,6.40454 5.90824,4.5953 m -69.58597,1.53177 c -0.0831,1.11841 -0.45515,1.60223 -1.37639,2.6226 -1.00222,1.11162 -2.79657,2.21187 -4.27145,1.15387 -0.85123,-0.61096 -1.00878,-1.71646 -1.09849,-2.68235 -0.21883,-2.3819 0.8009,-5.43909 3.46397,-5.4706 m -33.69886,0.43765 c 2.72217,0.77661 5.52092,2.7388 3.534,5.68943 -0.50767,0.75253 -1.06129,1.2963 -1.78341,1.89807 -0.90593,0.75581 -1.94972,1.44927 -3.06354,1.70617 -0.73743,0.16981 -1.3742,0.21708 -2.18605,0.0659 -1.20352,-0.22517 -2.29983,-1.69478 -2.39612,-2.79481 -0.0766,-0.88668 -0.29541,-1.95059 0.33699,-2.77272 1.55583,-2.01931 4.51215,-0.8114 6.43342,-0.072 m 122.32251,-3.50118 -0.21882,0.65647 m -184.46847,0.65648 0.43764,-1.09412 c 1.31514,0.83284 -0.35886,1.6263 -0.43764,2.62588 0.40702,-0.065 1.28887,0.0147 1.09411,-1.31294 m 10.9412,0.43765 c 0.81841,0.10591 1.41579,0.15317 2.18823,0.48688 3.42022,1.47903 2.98695,8.21661 -0.65647,9.05516 -0.65865,0.1512 -1.13788,0.1116 -1.75058,0.0768 -0.98034,-0.0558 -1.8425,-0.4976 -2.62589,-0.93415 -0.50768,-0.28339 -0.94313,-0.44444 -1.30857,-1.06634 -0.29322,-0.50111 -0.36763,-1.55934 -0.44202,-2.14775 m 138.95311,-5.25178 0.65648,1.53177 m -147.26843,-0.65647 c 0,1.40966 0.081,2.21055 0.25602,3.93883 0.11598,1.14313 0.523,2.97731 1.19916,3.93861 2.33922,3.33247 4.98262,0.63852 6.42248,-1.09391 m 124.0731,-3.50117 c 2.57119,-0.33239 5.3415,-1.78057 8.53413,-2.84472 m -153.39549,0.8753 c 0.21882,0.01 0.42451,-0.002 0.69148,0.0381 0.1882,0.0278 0.37201,0.0473 0.62147,0.11619 1.85781,0.51008 3.19045,1.06918 4.58217,2.48365 1.25386,1.27313 1.09192,3.31935 -0.42891,4.44365 -2.49677,1.84689 -6.7157,1.07924 -6.73976,-2.26745 -0.002,-0.48513 0.11597,-1.11272 0.38512,-1.45889 0.49235,-0.63437 1.00003,-0.34531 1.32607,-0.29169 m -28.66591,2.62589 c 0.19694,-1.05036 0.76587,-2.55872 1.96942,-3.59331 0.51641,-0.44422 0.91906,-0.92826 1.75058,-1.3136 1.04817,-0.48579 1.98474,-0.14881 2.84472,0.14114 1.00658,0.33895 2.12915,1.26415 2.06788,2.13965 -0.13349,1.93638 -4.68284,2.82568 -6.22555,2.84407 -0.71117,0.009 -1.98911,-0.22869 -2.23418,0.5081 -0.62803,1.88495 1.35015,3.72942 2.67184,4.943 1.5077,1.38342 3.80315,2.35915 5.47059,2.64624 m 131.51311,-13.56707 4.37648,2.18824 m -15.09884,-0.43766 0.21881,1.53178 m -12.0353,18.81884 c 0.10942,0.58098 0.36324,1.98845 0.17506,2.33748 -0.33918,0.63 -0.7615,0.49871 -1.70682,0.3812 -1.19041,-0.14836 -2.1401,-0.0932 -3.28236,-0.0928 -2.38737,0.002 -5.21895,0 -7.65884,0 -0.19476,1.95673 -0.84246,4.25459 -1.5077,6.34589 -0.4442,1.39807 -0.60832,2.39919 -0.89937,3.93883 1.28232,0.19059 2.63027,-0.4022 4.15767,-0.14749 2.38955,0.39826 5.18612,2.04711 5.19049,4.52397 0.004,2.15103 -3.11168,3.55086 -4.75286,3.42984 -1.33263,-0.0985 -2.90816,-0.77989 -3.93882,-1.89807 m 0.21883,-17.06826 1.53176,0.87529 m -71.99303,18.81885 c -0.43983,-2.37556 -0.31074,-5.45002 -0.4289,-7.87766 -0.07,-1.42039 -0.17725,-2.78627 -0.3545,-4.15764 -0.0438,-0.34575 -0.12253,-0.89412 -0.0219,-1.29348 0.26259,-1.02781 0.9475,-1.23482 1.37202,-1.98977 0.42233,-0.75208 1.46175,-2.88322 2.53398,-3.46026 0.9497,-0.51139 1.76591,-0.0709 2.57994,0.53723 2.24513,1.67815 3.15106,6.25397 2.09196,8.83128 -0.66086,1.60617 -1.69808,2.36899 -3.17733,1.9703 m 60.83302,-11.37885 c 0,0.98231 -0.0941,4.04234 0.0919,5.4706 0.081,0.61184 0.12255,1.08405 0.12692,1.75058 0.007,1.18866 -0.0525,2.30684 0.009,3.72001 0.0481,1.10309 0.20569,1.62018 0.21007,2.62589 0.007,1.23154 0,3.07097 0,4.37648 m 18.81891,-17.94356 c 0.25822,0.4836 0.41139,0.95561 0.43327,1.5322 0.0416,1.12871 0.004,1.98474 0.004,3.28193 v 3.28236 c 0,0.92715 -0.011,1.52695 -0.12691,2.40705 -0.10504,0.81337 -0.0547,1.37378 -0.1116,2.18825 -0.15319,2.24293 -0.51862,4.55219 0.45733,5.90824 m -50.11065,0.21882 c 0,-1.06501 -0.0219,-1.84468 0.19257,-2.8447 0.48798,-2.27228 1.0241,-4.83798 1.75278,-7.00237 0.31073,-0.92169 0.67835,-1.10922 0.99346,-2.03199 0.35887,-1.04949 0.38075,-1.75301 0.72868,-2.56331 0.81184,-1.88429 1.49457,-3.6863 3.33488,-2.8447 m -9.40947,1.0941 c -0.52518,0.22123 -0.70024,0.34596 -1.09413,-0.21881 0.99784,0.0199 1.82499,0.38863 2.62589,0.86764 1.70244,1.01905 2.45739,1.73745 3.50118,2.19589 m -40.04476,-2.18825 1.31294,1.96942 m -39.16945,21.22592 c -0.47266,-1.55518 -0.3567,-3.23882 -0.56457,-4.81413 -0.0678,-0.53196 -0.07,-0.97683 -0.1116,-1.53177 -0.0635,-0.85538 -0.1685,-1.47356 -0.39608,-2.40706 -0.23413,-0.97092 -0.38294,-1.68297 -0.56019,-2.62589 -0.21007,-1.12147 -0.63239,-3.70074 -0.73963,-4.5953 -0.0875,-0.70964 -0.50548,-1.9554 -0.36542,-2.83617 0.1094,-0.69958 0.57988,-0.97179 0.7812,-1.16524 0.6127,-0.59235 1.0788,-1.73045 2.83158,-1.79983 3.49024,-0.13786 6.138,4.8555 4.50339,7.76737 -0.6149,1.09807 -1.49019,1.30966 -2.53398,1.68561 -0.81403,0.29278 -1.53396,0.34312 -2.40707,0.50592 m 60.24002,-9.84205 c 1.38734,-0.75778 3.94758,0.28646 5.18831,1.19633 2.11822,1.55539 4.21893,4.59178 3.61934,7.33278 -0.26477,1.21973 -0.61488,2.43354 -1.88844,3.16659 -2.26482,1.30333 -5.86885,1.12345 -8.0768,-0.31445 -0.79433,-0.51686 -1.48362,-1.21009 -2.00223,-1.97685 -1.20135,-1.77925 -1.89939,-5.27343 -0.65428,-7.20915 0.65866,-1.023 1.31731,-0.89433 2.21888,-1.16698 0.77025,-0.23371 1.05692,-0.73504 1.59522,-1.02827 m -64.61648,0.43262 1.0941,2.18825 m 18.38121,3.28236 c 1.3414,-1.07028 2.50115,-0.90288 4.15766,-0.65561 2.0832,0.31096 4.49683,1.25933 5.50123,3.50031 0.38732,0.86676 0.0503,1.1718 0.19038,1.96941 0.19037,1.07793 0.39168,1.90902 -0.32824,3.28236 -2.14448,4.08609 -7.93017,5.58177 -10.84272,1.51207 -1.70465,-2.38079 -2.06351,-6.91155 -1.57772,-9.82738 0.58863,-3.52108 1.97816,-5.67344 5.08765,-2.8447 m 60.83302,-0.21882 c 1.68933,1.24664 2.77031,3.32109 3.84474,6.12706 0.39606,1.03547 0.49453,2.00268 0.75056,3.06354 m -36.76241,-4.81414 c 0.15976,0.16107 0.40045,0.3928 0.6893,0.69171 1.31076,1.36197 2.43333,3.01583 2.54711,4.99772 0.10723,1.88145 -2.02412,3.89484 -3.45522,4.7767 -1.53177,0.94358 -2.71561,1.4263 -4.37649,0.91272 m -16.19295,-8.97178 c 0.40045,0.56588 0.77026,0.87421 0.21882,1.96942 m 152.30138,9.1906 c 1.8972,0.19016 5.09202,1.06786 3.09198,3.71978 -0.5033,0.66545 -0.57333,1.07028 -1.3414,1.53199 m -41.3577,-0.65647 0.10285,1.75059 0.55362,2.84471 0.83154,13.12943 1.13787,3.50117 m -31.94826,-20.35061 c 1.06785,0.27791 2.36766,2.10947 3.72219,3.50119 0.86434,0.88624 1.64774,1.77027 2.62369,2.57555 0.63897,0.52736 1.29981,0.46609 1.73528,1.21009 0.6674,1.14226 -0.25602,3.87975 -0.38732,4.96731 -0.12254,1.00221 -0.35231,2.24295 -0.5602,3.28235 -0.44858,2.24075 -0.78776,4.1117 -0.78776,6.12706 m 56.01891,-21.66355 c 1.0591,3.13793 1.58646,6.35027 2.09632,9.62825 0.30416,1.96285 0.54706,3.31518 1.40485,4.37648 m 5.68943,-14.00473 c 1.674,0.0131 4.95636,0.58426 6.77915,2.22982 0.48142,0.43109 0.92344,0.92344 1.22104,1.49019 0.35231,0.67178 0.45516,1.16195 0.51424,1.96941 0.14879,2.03506 -0.3173,3.62372 -1.75059,5.00888 -1.081,1.04597 -1.54271,0.93001 -2.38738,2.43113 m -67.61656,-6.34588 c 0.12037,-1.53178 0.0175,-5.731 1.53178,-6.56472 m 35.8871,10.94118 c 1.63899,2.25826 5.94326,3.04603 8.53412,3.06354 0.98035,0.007 2.7178,-0.12473 2.54931,-1.53176 -0.16193,-1.3611 -1.51208,-2.17074 -2.76812,-2.93006 -0.97815,-0.59083 -2.14885,-0.9475 -3.28236,-1.15976 -0.96063,-0.17944 -3.30424,0.0569 -3.93227,-0.68055 -0.75494,-0.88623 0.26916,-2.51428 0.66961,-3.54494 0.60833,-1.56897 1.08974,-2.16198 2.38737,-2.976 1.12256,-0.70462 2.14228,-0.76589 3.28236,-0.89937 1.92782,-0.22758 3.54931,0.21882 5.47059,0.59301 m -18.16239,0 c 0.21884,2.75936 1.26481,3.83161 1.31295,6.12706 -1.86875,0 -3.0307,0.23633 -5.25178,0.47486 -0.72211,0.0766 -1.39172,0.39607 -2.1204,0.0503 -1.1138,-0.53392 -0.42889,-3.68937 -0.035,-4.65 0.32385,-0.79433 0.93,-0.6696 1.49893,-0.6893 m -51.86124,-0.65647 c 0.558,1.83374 1.03066,2.70905 1.57335,4.15765 0.17724,0.46829 0.34574,1.19916 0.66521,1.74185 0.73525,1.25604 1.50114,1.40921 2.4202,2.85345 1.20353,1.89502 2.21449,4.96512 3.45961,6.77917 0.67178,0.97814 1.87532,2.18605 2.49241,0.21882 0.47265,-1.50551 -0.15976,-5.00232 -0.69586,-6.56034 -0.2254,-0.65429 -0.24072,-1.2648 -0.3567,-1.96941 -0.40045,-2.39394 -1.42891,-5.18831 -2.1182,-7.22119 m -27.5718,12.47296 c -0.56019,0.004 -1.17947,0.0503 -1.7506,0.12691 -0.84465,0.10942 -1.27355,0.046 -2.18823,0.15537 -0.8556,0.10066 -2.50554,0.44422 -3.18827,-0.0394 -0.66304,-0.46827 -0.49672,-1.49675 -0.54049,-2.43112 -0.0941,-2.07227 -1.02628,-6.38529 0.22102,-6.77261 0.22976,-0.07 0.47266,0.13348 0.66303,0.20789 m 84.68481,1.75058 c 0.67398,1.08538 0.81184,1.90815 1.11381,3.50119 0.44641,2.35017 0.81403,5.01106 1.73091,7.44001 m -58.42596,-9.62825 0.046,1.75059 0.88842,4.37648 1.03504,7.00235 m -100.00248,-6.12706 1.31294,1.96942 c 0.61489,-0.70899 0.99564,-1.43111 1.47706,-2.84471 0.31073,-0.91687 0.64553,-1.99567 1.80748,-1.91033 2.21888,0.16192 3.52744,4.27581 4.32397,6.06798 0.34136,0.77026 0.41357,1.18603 0.54923,1.96942 0.5777,3.32174 1.53615,8.63916 3.43991,11.37883 m 43.1083,-7.22119 c -0.0263,-0.61052 -0.47922,-2.78562 -0.372,-3.93883 0.13129,-1.39608 0.20788,-1.49019 0.35231,-3.28235 0.35011,-4.33272 3.80315,-4.52089 6.80323,-2.62589 m 5.68942,0 c -0.24728,0.82497 -1.26261,1.45957 -1.51863,2.40707 -0.31511,1.16852 0.12691,2.66527 0.93437,3.43991 0.30636,0.29541 0.87749,0.70899 1.32826,0.45078 1.00003,-0.57333 0.0306,-2.57775 -0.2976,-3.67187 -0.28228,-0.92999 -0.4464,-1.3567 -0.66522,-1.75058 m -66.96009,1.75058 c 0.26477,1.25167 0.32167,3.21891 0.56457,5.03295 0.47266,3.54933 1.03722,6.98704 1.43329,10.50354 0.10065,0.89937 0.35668,1.37203 0.40919,2.18824 m 80.08952,-16.84943 c 2.24295,3.15763 3.06792,6.94984 4.5953,10.94118 m -38.51298,-6.78353 c -0.2604,0.28447 -0.47704,0.51861 -1.09412,1.31076 -0.84467,1.0788 -3.40927,2.5843 -4.52527,0.43107 -0.38514,-0.74181 -0.29762,-1.63241 -0.28885,-2.3983 0.011,-0.93437 0.22538,-2.53398 1.12256,-3.02195 1.26261,-0.68712 2.58212,0.84246 3.35019,1.68931 0.73525,0.81403 0.75933,0.72212 1.49457,1.674 0.3348,0.43327 0.80308,0.95189 0.95845,1.20135 0.71556,1.14882 1.60616,2.99789 2.70246,4.14671 m -36.10593,-5.25177 -0.65647,1.09411 c -0.0722,-0.37855 -0.17068,-0.78338 0.19914,-1.53176 0.28229,-0.57113 0.9125,-1.5821 1.55802,-1.64775 1.01753,-0.10721 1.71339,1.3589 1.85125,2.30422 0.21446,1.4508 -0.60833,2.81844 -1.42016,3.93883 m 17.94355,-6.12706 c 1.24948,0.63457 2.34579,2.03286 2.40487,4.37646 0.0241,1.01753 0.0394,2.22108 -0.558,3.05479 -0.6324,0.87748 -1.77028,1.1904 -2.72216,1.03066 -0.53612,-0.0897 -1.0241,-0.46173 -1.7506,-0.37857 -1.04597,0.11817 -1.7856,1.1729 -3.06354,1.05036 -0.64114,-0.0613 -1.24947,-0.36763 -1.74183,-0.73963 -1.05253,-0.79433 -1.6171,-2.54273 -1.89938,-3.79877 -0.15319,-0.67617 -0.43547,-1.47488 -0.32824,-1.95629 0.10284,-0.45735 0.37199,-0.71119 0.80964,-0.6149 0.55801,0.12473 1.05692,0.73525 1.1904,0.82059 m 40.26359,-1.53176 c 0.91906,2.21449 0.49672,2.85345 1.53177,3.93883 m -42.67065,-2.84472 -0.87529,1.09412 m 42.88946,-0.87529 c 1.51864,0.13348 2.31517,0.41138 4.15765,0.87529 1.20354,0.30416 2.49459,0.62365 3.28236,0.87529 m -61.05185,-1.31294 c -0.16192,1.31294 -0.13566,2.78782 0.59959,3.93883 0.87529,1.36984 2.43988,1.97161 3.99571,2.24077 1.40485,0.24507 3.20578,0.46609 4.5953,0.38511 m 8.31531,-3.71999 0.21882,1.96941 m -29.54121,5.25178 0.21883,1.0941"
       id="path55700"
       sodipodi:nodetypes="cccccccccccccccccccccccccccccscccccccccccsccssccccsccsccccccsccccccccccccccccscccccsccccccccccccccccccccccccccccccccccccccccccccccccccccccccccccsccsccccccsccccccccccscccsccccccscccccccccccccccsccccscccccccscssccccccccccccccccccccccccccccccccccccccccsccccccccccccccsscccccccscccsccccccccccccccccccccccccccccccscccccccccccccccccccccccccccccccccccccccscscccccscccccccccscccccccccccccccccccccccccccccccccccccccccccccccccccccccccccccccccccccsccscccccccccccccccccccccccccccccccccccccsscccccccccccccccccccccccccccccccccccccccsccccccccccccccccccccccccccsccccccccccscccccscccccccccccccccccccccccccccccccccccccccccccccccccccccccccccccccccccscccsccccccccccccccccccccccccccccc" /><path
       style="fill:none;stroke:#010101;stroke-width:0.182935"
       d="m 33.782145,58.491386 c 0.460497,0.311833 0.838182,0.597455 1.513031,0.622859 0.678343,0.02553 1.794067,-0.04781 2.360669,-0.325732 1.486265,-0.72904 2.80003,-2.232886 3.44014,-3.951154 0.231025,-0.619659 0.48625,-0.979157 0.366294,-1.677661 -0.157985,-0.919681 -1.095428,-1.700267 -1.806854,-2.129823 -0.810446,-0.489255 -1.745884,-0.819311 -2.645589,-1.059721 -0.297648,-0.07944 -0.627015,-0.09861 -0.923364,-0.08515 -0.378065,0.01719 -0.501087,-0.0046 -0.921147,-0.05485 -0.653764,-0.07812 -0.790012,-0.01004 -1.281573,0.03284 -0.730313,0.06379 -1.72531,0.387952 -1.991312,0.359932 -0.113323,-0.01208 -0.229987,-0.0422 -0.363387,-0.370863 -0.102928,-0.253293 -0.0072,-0.721799 0.02441,-0.918915 0.0644,-0.402752 1.192111,-3.041764 1.388069,-3.58677 0.172165,-0.479243 0.266023,-0.642764 0.527902,-1.139223 0.477381,-0.90496 0.254827,-1.486625 1.288048,-2.448313 0.443707,-0.413097 0.823478,-0.659904 1.397196,-0.958349 0.606057,-0.315239 1.87142,0.0391 2.576525,0.116967 0.365964,0.04046 0.408894,0.09067 0.740922,0.09857 0.393587,0.0094 0.426076,-0.0704 0.729787,-0.05346 0.257111,0.01431 0.538325,0.08726 0.740922,0.09857 0.394146,0.02203 0.47862,-0.03419 0.918913,0.0244 0.795754,0.105884 2.720705,0.25975 3.511038,0.354282 0.328274,0.03928 0.514994,0.0066 0.916679,-0.0061 m 1.093174,0.317399 c 0.473992,0.872084 0.03008,2.175451 0.04628,2.717363 0.0087,0.6931 -0.22341,1.222302 -0.231237,1.851188 -0.0077,0.765998 -0.434263,2.001801 -0.103653,2.758979 1.440476,2.778292 5.281335,-0.726236 6.342118,0.308369 0.210974,3.145387 0.116625,6.009437 0.35296,9.289563 M 175.04307,31.267861 c 0.0417,0.568866 0.0258,0.882233 0.0936,1.277123 0.069,0.401967 0.17159,0.446912 0.24929,0.898867 0.0646,0.376793 0.076,0.53114 0.0668,0.912233 -0.0152,0.634843 -0.0708,1.536611 -0.0221,2.202722 0.044,0.601164 -0.007,0.633336 -0.0584,1.288258 -0.063,0.799948 0.029,0.814114 0.0764,1.461799 0.0386,0.527452 0.0991,0.725163 0.0327,1.281582 -0.11332,0.947078 -0.20399,1.026357 -0.18383,1.664294 0.026,0.825528 0.0897,2.100443 -0.0904,2.94143 -0.0696,0.325166 -0.008,0.724749 0.0193,1.099133 0.0298,0.406671 0.0689,0.563017 0.0364,0.914465 -0.10306,2.963503 -0.30372,2.426983 -1.62164,4.154151 -0.5692,0.775774 -1.23533,1.330275 -2.18328,1.077071 -0.84582,-0.226014 -1.17112,-0.963218 -1.22834,-1.744274 -0.0241,-0.328218 -0.0447,-0.418963 0.008,-0.73424 0.0728,-0.442798 0.20358,-0.924152 0.36255,-1.310537 0.14824,-0.360101 0.1384,-0.782361 0.68898,-1.028674 0.69976,-0.313197 1.23619,0.188975 1.49075,0.318714 M 140.22247,34.18557 c 0.266,1.019437 0.26168,1.068362 0.35619,2.358442 l 0.13366,1.824464 c 0.0642,0.877013 -0.0264,1.006558 0.19451,1.82 0.11236,0.41328 0.0532,1.166912 0.0461,1.464033 -0.009,0.389353 0.0379,0.51741 0.0668,0.912233 0.0255,0.348473 0.0746,0.585163 0.0668,0.912223 -0.0243,1.020162 -0.15064,2.951352 -0.0842,3.858112 0.30919,1.505035 0.042,2.930636 0.13826,4.392076 0.0146,0.200147 0.0594,0.474023 0.0534,0.729783 -0.0115,0.481239 -0.11076,0.991279 -0.0755,1.472939 0.0329,0.449183 0.19908,1.047635 0.22861,1.450652 0.0327,0.44645 -0.0606,0.695223 -0.0415,1.103598 m 0.48786,-7.985396 c 0.51559,0.06734 0.72354,-0.02712 1.86776,0.07833 0.58211,0.05384 0.84089,0.126045 1.47518,0.105985 0.63905,-0.02005 1.35191,-0.09904 1.82446,-0.133655 0.72777,-0.05332 2.53138,-0.368863 3.4531,-0.436385 1.07261,-0.07858 1.55033,-0.162559 2.17599,-0.342836 M 15.812225,46.050903 c -1.11954,-1.284773 -3.073738,-2.32088 -0.734458,-2.514151 l 1.094682,-0.0802 c 0.646698,-0.04737 0.73704,0.0026 1.655381,0.06216 0.643035,0.04184 1.258988,0.155386 2.035872,0.248339 0.468895,0.05588 0.48445,0.09896 0.923365,0.08515 0.896241,-0.02821 2.419219,0.01281 2.914082,0.550854 1.098711,1.427891 -1.245314,2.30808 -1.204249,3.175823 0.444685,1.309649 2.009394,1.586715 3.123306,2.155731 1.535388,0.790339 4.229921,2.31788 4.178874,4.46292 -0.01738,0.726725 -0.702866,2.040924 -1.103372,2.465367 -0.326293,0.345818 -0.471495,0.391854 -0.858771,0.79661 -0.417427,0.43632 -1.432367,1.755207 -1.873253,1.971486 -0.343508,0.168417 -0.50482,0.327529 -1.059029,0.566779 -0.486309,0.209696 -1.050726,0.397234 -1.601921,0.667622 -0.7346,0.360326 -0.959772,0.46174 -1.610836,0.545936 -0.467506,0.06049 -0.616261,0.17171 -1.076862,0.3234 -0.375039,0.123588 -0.38188,0.08553 -0.729785,0.05346 -1.330977,-0.122795 -1.278082,-0.202972 -1.895741,-0.839334 M 95.889407,52.47417 c 0.53378,-0.317729 1.86021,-0.451952 2.7545,0.04271 0.38483,0.21283 0.65906,0.415787 0.90272,0.63712 1.240503,0.836898 0.951153,1.142687 0.17152,2.341338 -0.29768,0.526041 -1.17492,2.207203 -1.93257,2.831879 -1.35006,1.080557 -2.99819,1.242993 -4.37871,0.320772 -2.25696,-3.335176 -2.26057,-5.885312 2.2646,-4.140181 m -4.51606,3.118897 c -0.88084,-0.293242 -0.71285,-0.366901 -1.5534,-0.840008 -0.6523,-0.531473 -2.113172,-1.60406 -2.667243,-2.189131 -3.265034,-2.983271 -5.095985,-2.398135 -1.218018,-3.273509 0.167307,-0.06492 0.667954,-0.336734 0.881045,-0.492659 0.991982,-0.725851 2.080246,-1.499473 2.784776,-2.466193 0.26266,-0.360602 0.43352,-0.467029 0.78446,-0.974596 0.42094,-0.608808 0.78268,-1.509698 0.90401,-2.267331 0.0867,-0.542133 0.12526,-1.0116 0.13627,-1.477382 0.009,-0.376126 0.002,-0.511909 -0.0668,-0.912232 -0.11315,-0.659194 -0.58664,-1.663249 -0.95091,-2.131445 -0.3987,-0.512264 -1.27668,-1.164772 -1.87956,-1.452055 -0.785874,-0.374219 -1.907111,-0.48137 -2.598786,-0.42098 -0.900904,0.07868 -1.314507,0.44224 -1.92672,1.241704 -0.273373,0.356977 -0.418137,0.712048 -0.497613,1.137001 -0.197654,1.057621 -0.177113,1.410677 -0.174036,2.213857 0.0019,0.478409 0.116387,1.588742 0.160385,2.189357 0.02553,0.348474 0.06987,0.488111 0.03635,0.914457 -0.03689,0.468973 -0.0932,0.668082 -0.08514,0.923365 0.01093,0.344043 0.08827,0.753099 0.0802,1.094683 -0.01411,0.589091 -0.120016,0.865574 -0.04879,1.837822 0.01768,3.088573 -0.215271,1.807761 -0.382312,4.79707 l -0.102237,1.108048 M 54.792796,42.86773 c -1.100024,2.174677 -0.22962,4.809185 -1.356671,6.519267 m 19.642178,-5.330141 c -0.411354,0.04098 -1.302275,0.418777 -2.320569,0.873065 -0.430378,0.192031 -0.482613,0.185028 -0.896635,0.279747 -0.388962,0.08885 -0.504566,0.155821 -0.887735,0.40125 -0.322728,0.206696 -0.522881,0.358934 -0.878818,0.522944 -0.511359,0.235743 -0.931937,0.383765 -1.421697,0.623979 -3.005772,1.884056 -6.148204,3.543155 -6.836021,7.256896 -0.170778,0.598032 -0.319758,1.061141 -0.183674,1.664282 0.233797,1.023074 0.346144,2.719415 1.471637,2.979794 0.330829,0.07664 0.592631,-0.0128 0.914464,-0.03638 1.544953,-0.113179 3.018044,-2.051125 3.208798,-3.353294 0.04908,-0.334319 0.07894,-0.397212 0.06823,-0.738705 -0.01071,-0.335619 -0.07652,-0.563193 -0.188514,-0.90332 -1.040481,-1.961915 -3.046547,-3.059072 -3.879081,-3.29262 -0.62371,-0.248704 -0.782521,-0.328418 -1.742257,-1.248059 -0.327877,-0.314218 -0.727097,-1.061594 -0.806244,-1.408344 -0.15733,-0.687876 -2.19e-4,-1.232415 0.430605,-2.049222 0.324399,-0.614579 0.513565,-0.981894 0.959705,-1.507072 0.554356,-0.652889 0.919731,-0.948369 1.522439,-1.334426 1.105735,-0.70795 1.428423,0.261657 1.70216,0.700718 m 81.531394,-3.771655 c 0.45288,1.735222 0.22355,1.381507 0.32217,2.727775 0.11329,3.395979 0.008,6.839647 0.23518,9.887746 0.0755,1.031005 0.0317,2.866088 -0.23621,3.869238 -0.14282,0.534325 -0.19157,0.785155 -0.30181,1.306088 m -22.8018,-3.282094 -1.29716,-0.180109 c -3.16555,-0.665137 -4.75098,-3.070404 -4.503,-4.71432 0.12542,-0.761783 0.24897,-1.080826 1.34301,-2.116064 0.86593,-0.500726 1.04278,-0.763318 1.48395,-1.025838 0.63607,-0.378599 1.44715,-0.609522 2.18267,-0.251615 0.67618,0.329054 0.95936,1.247638 0.85301,2.046904 -0.0514,0.386945 -0.23862,0.741278 -0.49743,1.136997 -0.45608,0.697403 -1.73776,1.875716 -2.54228,2.020488 m -6.23925,-5.045692 c -0.25411,0.01157 -0.63455,-0.161147 -1.49522,-0.379651 -0.33734,-0.08553 -0.61547,-0.07359 -0.90999,0.09727 -0.40469,0.234716 -0.40188,0.373365 -0.68747,0.631274 -0.93838,0.84665 -1.51171,1.578326 -0.82524,2.506064 0.20583,0.278216 0.69515,0.54044 1.23712,0.612439 0.55516,0.07397 0.61646,0.0671 1.11472,0.193482 1.04124,0.264339 2.6,1.003079 3.41101,1.492661 0.52605,0.363607 0.98363,0.644769 0.97752,1.243001 -0.20594,1.3805 -0.67312,2.084229 -2.48125,3.269363 -0.90259,0.591637 -1.28591,0.862574 -2.55203,0.217563 m -9.08185,-3.370043 c 0.16985,-0.855045 0.37326,-1.738719 0.61698,-2.429735 0.15227,-0.427715 0.48864,-0.58827 0.82607,-0.824846 0.50978,-0.357424 0.96705,-0.545364 1.42019,-0.226202 0.80206,1.077296 2.25727,1.204294 3.09664,1.790834 0.46714,0.337579 0.71393,0.616651 0.8211,1.193194 0.23993,1.198058 -0.21685,2.402739 -0.86748,3.181775 -0.3853,0.459281 -0.60353,0.625308 -1.03454,0.90121 -0.30502,0.195313 -1.20979,0.674663 -1.77769,0.772213 -0.70447,0.12097 -1.44776,0.177958 -2.02695,-0.126646 -0.43803,-0.230398 -0.87547,-0.986345 -1.04294,-1.29929 -1.3501,-1.639036 -0.63546,-1.064667 -0.0313,-2.932507 z m 28.42057,-5.567096 c -0.46821,2.098468 -1.04351,4.689877 -2.1303,6.39252 -0.25185,0.3853 -0.42016,0.604169 -0.63247,0.963462 -0.31745,0.536848 -0.95368,1.426479 -1.75987,1.01542 -0.85858,-0.437671 -1.00659,-1.261052 -1.23573,-2.263369 -0.0847,-0.370004 -0.12621,-0.739499 -0.05,-1.096899 0.0973,-0.454504 0.23541,-0.767636 0.21057,-1.299404 m 36.06684,1.576627 c -0.164,-0.628694 -0.3177,-1.672488 -0.0314,-2.932505 0.63597,-1.952522 0.3953,-4.312481 0.28879,-6.074195 -0.041,-0.560837 0.14883,-1.285891 0.20076,-1.848957 0.25932,-1.01227 -0.55665,-2.033405 -0.10328,-3.080034 0.28987,-0.58508 0.5168,-0.542093 1.10347,-1.212019 0.37525,-0.428647 0.67064,-0.820618 1.21475,-0.945036 0.55509,-0.126914 1.02994,-0.02497 1.47292,0.07551 0.86869,0.19738 1.23812,0.492958 1.71778,0.913637 0.40712,0.357021 1.02673,1.363571 1.18092,1.931165 0.15802,0.581993 -0.018,1.67746 -0.2045,2.216089 -0.24635,0.710844 -0.76791,1.333078 -1.26515,1.926939 -0.27172,0.324571 -0.5481,0.482936 -0.86546,0.705385 -0.37369,0.262159 -0.47082,0.348333 -0.87659,0.553412 -0.26318,0.133005 -0.58098,0.381902 -0.87659,0.553232 -3.43996,1.506055 -2.75184,1.813485 -0.4129,3.545956 0.90709,0.864437 3.07937,3.094972 3.90522,4.482976 0.29241,0.491254 0.37413,0.735465 0.67136,1.234798 m -31.33192,0.46104 c -2.04374,0.22512 -3.09641,-1.097704 -3.86284,-2.651834 -0.27238,-1.423967 0.13711,-2.86267 1.19456,-3.725381 0.40143,-0.291528 2.08441,-1.377616 2.81455,-0.389615 0.47031,0.63615 -0.034,2.229464 -0.31862,2.744093 -0.21016,0.770158 -1.30256,1.419619 -1.96355,2.076612 M 175.263,47.209698 c 0.91362,1.578099 0.56116,3.058233 1.28651,5.041666 M 14.020965,74.18019 c 1.076216,-0.07884 2.981496,-0.03499 4.574524,-0.151688 l 1.094676,-0.0802 c 0.6332,-0.04639 0.886333,-0.01324 1.455124,-0.16765 1.384663,-0.376029 1.493821,-0.231779 2.545332,-0.30881 0.859103,-0.06294 2.082943,-0.336021 2.905776,-0.396298 l 1.094676,-0.0802 m 23.202224,-1.266851 c 0.395222,0.870567 0.551552,1.344463 0.721089,2.331711 0.06844,0.398522 0.03384,0.562653 0.127588,0.907781 0.125566,0.462199 0.152844,0.493956 0.188518,0.903309 0.04193,0.480807 0.06681,1.029632 0.12029,1.642025 0.201059,3.31902 1.054227,2.942005 0.254893,6.401209 l -0.145904,0.927818 0.01197,1.83338 0.09356,1.277124 M 21.065658,75.197546 c 0.134912,0.881197 0.252913,1.042405 0.850077,1.588554 0.276046,0.252525 0.470387,0.411264 0.783248,0.676321 1.817771,1.540222 4.615164,3.082243 6.182045,4.683032 0.491684,0.502154 0.881071,1.145327 1.228334,1.744274 0.246664,0.425081 0.253199,0.621967 0.293107,1.079077 0.349872,2.056031 -1.250232,3.55274 -3.199168,3.902875 -1.852246,0.318009 -3.225088,-0.05796 -5.188692,-0.720449 M 59.219641,77.721825 c -3.890872,-0.14302 -9.648727,3.553376 -4.923387,5.404872 2.936613,1.018404 5.09775,2.897304 7.144794,4.88764 0.49783,0.483779 0.693,0.85519 0.910644,1.207267 m 0.93336,1.011548 c 0.884261,0.486043 1.662845,0.212407 2.523779,-0.184885 2.423608,-2.203875 -2.663056,-5.253913 -4.334799,-6.591349 -1.612526,-1.233631 -1.150776,-2.617283 1.087776,-2.678275 0.503223,-0.0088 1.176709,0.396023 1.695478,0.609502 m 6.70237,8.86369 c 2.336009,-0.292261 2.590201,-2.682052 1.486591,-4.327688 -0.402897,-0.574681 -0.488256,-0.810917 -1.001341,-1.14954 -0.412673,-0.272422 -0.753203,-0.150995 -1.268923,-0.212626 -0.308664,-0.03704 -1.214002,-0.279201 -1.846737,-0.170481 -4.27206,2.051521 0.583743,5.945084 2.63041,5.860335 z M 117.66928,74.357096 c -0.28852,0.796289 -0.44364,2.189397 -0.53303,3.157285 -0.10351,1.122811 0.0976,2.151953 0.9741,2.863445 0.45402,0.368621 0.72657,0.476136 1.33726,0.727449 0.9148,0.376502 1.60446,0.341026 2.22277,0.29573 0.65279,-0.04782 1.44694,-0.344457 1.79623,-0.100976 0.35892,0.249952 0.34538,0.508288 0.42948,0.855041 0.0806,0.331404 0.47075,2.662782 0.62258,3.072619 m -32.399873,-6.27174 c -3.42186,19.995224 1.46522,-12.498553 2.19333,2.064702 -0.1306,0.956882 -0.83256,3.433333 0.13539,3.933731 0.86851,-0.04333 1.40823,-0.847253 1.84572,-1.510906 0.95331,-1.466802 1.25974,-4.379663 2.02196,-6.201155 0.16048,-0.383382 0.71631,-0.985934 1.15845,-0.879654 0.636513,0.152755 0.707123,0.518289 0.827803,1.284418 0.80852,1.869103 0.4419,4.207195 1.12703,5.787056 0.12925,0.289512 0.70882,2.214112 0.75156,2.32947 m 21.56134,-11.313288 c -0.35891,1.910443 -0.47623,3.182914 -0.34219,5.3444 l 0.0734,1.504827 m -19.76934,-4.788169 c 0.52496,0.05748 0.90872,0.140521 1.85565,0.291993 0.6461,0.103441 0.92375,0.0954 1.66206,0.153386 0.93831,0.07378 0.84256,-0.151608 1.86457,0.413677 0.64405,0.356169 0.93995,0.276351 1.12363,0.315168 m 43.00166,-3.914513 c 2.14843,0.545134 4.19218,-0.400962 6.59257,-0.146729 0.32433,0.04315 0.59092,-0.04854 0.84996,0.335217 0.54646,0.809227 -0.35555,1.816821 -0.83862,2.323614 -0.57146,0.599665 -1.08514,1.442163 -0.52868,1.964702 0.23222,0.217955 1.68886,0.601903 2.00408,0.648152 0.48133,0.07057 0.92078,0.137615 1.30829,0.332088 1.09402,0.549183 2.26805,1.597299 1.8018,2.894527 -1.08129,2.850715 -4.60649,2.84575 -6.24,4.125629 m -49.0746,-8.877852 0.14702,2.006915 0.0668,0.912232 0.0668,0.912225 0.0534,0.729791 0.0936,1.277124 0.17375,2.371799 0.27602,1.263758 0.89884,-0.249277 1.08355,-0.232165 3.0459,-0.987465 m -72.680427,4.407238 c -0.311883,-0.524125 -0.927319,-1.398557 -1.376756,-2.10025 -0.410436,-0.92938 -0.720475,-1.927887 -1.665114,-1.865072 -0.268013,0.01963 -0.550241,0.285922 -0.672586,0.41613 -0.713722,0.758467 -1.630654,1.652523 -2.453293,1.983346 -0.488741,0.196482 -0.536329,0.268012 -1.081314,0.262635 -0.549948,-0.0056 -1.03171,-0.0418 -1.686561,-0.487808 -0.854683,-0.582304 -1.1229,-1.992641 -0.678879,-3.007411 0.287836,-0.657945 0.529179,-0.901418 0.918807,-1.22895 0.415192,-0.349207 0.60836,-0.343914 1.072399,-0.384327 0.574137,-0.04989 1.26568,-0.06701 1.851195,0.231236 m 9.108949,-0.850717 c -1.095502,1.562434 -2.354988,4.483979 -0.82119,5.899136 0.427427,0.38873 1.093164,0.550164 1.845238,0.568073 1.760096,0.04183 2.548429,-1.042738 3.768995,-1.132153 M 149.10145,75.2644 c 0.39759,-0.271425 0.7325,-0.169219 1.09023,-0.140919 0.16583,0.01296 1.09436,0.126001 1.29939,0.210395 1.08315,0.445981 2.29298,1.113805 2.54778,2.228524 0.20437,0.894268 0.1585,2.003319 -0.22516,2.767871 -0.29295,0.583295 -0.66911,1.295032 -1.09831,1.700655 -0.34533,0.32649 -0.5366,0.311881 -0.88551,0.431728 -0.43063,0.148199 -0.99415,0.293118 -1.44397,0.319834 -0.39939,0.024 -0.51235,0.07951 -0.92559,-0.115614 -0.3935,-0.185969 -1.17372,-0.903782 -1.35358,-1.368248 -0.0453,-0.837625 -0.34754,-1.88655 -0.17022,-2.738906 0.30504,-1.342275 0.65345,-1.278473 0.71784,-1.886844 0.0644,-0.607264 -0.0371,-1.077842 0.44709,-1.408446 m -13.761,4.951743 c 0.003,-0.633814 -0.0112,-0.990062 0.6266,-1.880161 0.9372,-1.308426 2.19566,-1.977121 3.48479,-2.089535 0.69478,-0.06063 0.95314,-0.529858 1.49967,0.440409 0.36365,0.887139 -0.0888,2.001577 -0.32973,2.592112 -0.57085,1.386694 -1.43332,2.733671 -2.10821,4.189805 -0.32944,0.711061 -1.20333,2.212764 -0.12727,2.852415 0.34885,0.20739 1.1118,0.143434 1.43802,0.017 0.72058,-0.279323 0.77123,-0.108638 1.61527,-0.485187 0.54121,-0.241595 0.94767,-0.437 1.41502,-0.715196 0.3953,-0.23513 0.56607,-0.37787 0.8766,-0.553231 0.39666,-0.224225 0.84219,-0.442121 1.23034,-0.732116 0.84902,-0.634301 1.04554,-0.788468 1.57964,-0.971767 M 129.4307,77.164018 c -0.23418,0.06116 -0.63078,0.02049 -1.00497,0.471104 -0.8517,1.23159 -2.02916,3.145571 -1.29301,4.466302 0.9714,1.632306 2.65684,0.870333 3.69631,-0.454211 2.09559,-1.645311 1.60093,-3.54507 1.90607,-0.689911 0.38383,1.165982 0.26451,1.990786 0.71968,3.982642 0.12121,0.529476 0.0261,0.626323 0.1714,1.088 0.11399,0.362165 0.36752,1.000623 0.41106,1.437287 m -49.594588,-0.95247 c 1.072803,1.451543 1.091816,3.210852 1.130748,5.419927 0.0061,0.344021 -0.02311,0.565356 -0.08515,0.923366 -0.19554,1.126612 -0.96773,2.436526 -1.681175,2.507684 m 26.155975,-8.519427 c -1.07523,1.212155 -0.97297,0.804976 -2.50079,0.9169 M 73.910653,83.819049 c 0.915678,11.243834 0.09498,0.802168 1.852137,-0.614076 0.744007,-0.610469 2.292281,0.691241 2.759081,1.356998 1.095003,1.561802 1.329715,3.70664 1.586864,5.386512 m 29.854315,-3.104172 -0.10228,1.108039"
       id="path92775"
       sodipodi:nodetypes="cccccccccccccccccscssccccccccccccsscscccscccscccccssccscccscsscccsscccscccccccccccccccccccccccccccscsccsccscccsccsccccccccscccccsccccccccccccccccccccccccccccccccscccccscccccccccccccccscccccccsccccsccccccccccccccsscssccsccccccccccccccccccccccccccccccccccscccccccccccccsccccccccccccccccccccccccccccscccccccccccccccccccscccscccccccsccccscccccccscccccccccccc" /></g></svg>
