<?xml version="1.0" encoding="UTF-8" standalone="no"?>
<!-- Created with Inkscape (http://www.inkscape.org/) -->

<svg
   version="1.1"
   id="svg43106"
   width="3456"
   height="1272"
   viewBox="0 0 3456 1272"
   sodipodi:docname="NathanC - Pulsz - Envelope 9.svg"
   inkscape:version="1.2 (dc2aedaf03, 2022-05-15)"
   xml:space="preserve"
   xmlns:inkscape="http://www.inkscape.org/namespaces/inkscape"
   xmlns:sodipodi="http://sodipodi.sourceforge.net/DTD/sodipodi-0.dtd"
   xmlns="http://www.w3.org/2000/svg"
   xmlns:svg="http://www.w3.org/2000/svg"><defs
     id="defs43110"><pattern
       id="EMFhbasepattern"
       patternUnits="userSpaceOnUse"
       width="6"
       height="6"
       x="0"
       y="0" /></defs><sodipodi:namedview
     id="namedview43108"
     pagecolor="#ffffff"
     bordercolor="#666666"
     borderopacity="1.0"
     inkscape:pageshadow="2"
     inkscape:pageopacity="0.0"
     inkscape:pagecheckerboard="0"
     showgrid="false"
     inkscape:zoom="1.4328704"
     inkscape:cx="118.99192"
     inkscape:cy="55.483037"
     inkscape:window-width="1920"
     inkscape:window-height="991"
     inkscape:window-x="-9"
     inkscape:window-y="-9"
     inkscape:window-maximized="1"
     inkscape:current-layer="g43112"
     inkscape:showpageshadow="2"
     inkscape:deskcolor="#d1d1d1" /><g
     inkscape:groupmode="layer"
     inkscape:label="Image"
     id="g43112"><path
       style="fill:none;stroke:#48413a;stroke-width:0.266858"
       d="m 138.29479,20.063822 c 1.12081,0.736798 2.39532,1.087982 4.00261,0.06992 0.95615,-0.605769 2.64937,-2.222131 1.2561,-3.310114 -0.70157,-0.54786 -1.82317,-0.515304 -2.59012,-0.302617 -0.87343,0.24204 -1.59288,0.608703 -2.24082,1.485334 -1.11707,1.510686 -0.76134,2.408932 -2.8295,2.899685 -1.08798,0.258053 -1.86294,0.238305 -2.93544,0.224161 -2.99095,-0.0395 -4.57582,-2.290447 -4.57689,-5.069245 -2e-4,-0.764816 -0.003,-1.332424 0.0865,-2.134867 0.17373,-1.551784 1.05276,-2.763081 1.78742,-4.0028782 1.08051,-1.8232589 1.21741,-3.6796857 3.50359,-4.8034543 M 95.063705,5.3866029 c 0,1.2131923 0.0021,2.4319627 0,3.7360203 -0.0016,1.0489398 -0.141701,1.9072918 -0.220424,2.9354428 -0.08112,1.06023 0.136098,2.059615 1.29293,1.779147 1.431163,-0.347184 2.754246,-1.466122 3.997809,-2.312863 M 16.073577,25.667853 c 1.162702,-0.101405 2.190641,-0.349584 3.202303,-0.895044 1.002052,-0.540389 1.791954,-1.106128 2.668584,-1.853866 1.132815,-0.966295 2.521548,-2.133534 2.723826,-3.655697 0.128626,-0.968962 -0.389346,-1.68094 -0.980706,-2.397724 C 22.284443,15.1651 20.368397,14.43044 18.47557,13.345926 17.834309,12.978728 17.004112,12.545084 16.825318,11.766284 16.488808,10.300722 18.04913,9.4907799 19.009288,8.8796485 19.934219,8.2908511 20.626451,7.6476687 21.677606,7.2533852 22.908892,6.791427 24.136976,7.0745906 25.146768,8.0551877 M 81.187062,7.7883298 c -0.383476,1.6296518 -0.256451,5.7203792 0.424039,7.1443372 0.373869,0.782963 0.741065,0.662342 1.439967,1.030341 0.841139,0.442984 1.043951,0.986843 1.407412,1.949401 0.408294,1.081312 1.035144,0.86142 1.912043,0.306086 0.801108,-0.507296 2.341415,-0.818989 3.089153,-1.356975 -0.670348,-0.487283 -0.832865,-0.650334 -1.868009,-0.800576 0.39762,1.756997 -0.123823,2.104447 -0.800576,2.668587 M 150.57028,9.9231988 c -0.52811,1.2985602 -0.21589,2.3267392 0.26686,3.4691602 m 10.40748,8.272614 c 1.89523,1.011396 7.97187,-0.371199 8.15867,-4.002878 0.17293,-3.361082 -5.40122,-2.28164 -6.89296,-4.11469 -1.3978,-1.717984 0.75975,-2.769271 2.20346,-2.289915 M 69.445285,21.398116 c 1.643582,1.103193 3.064604,1.666264 5.070314,1.174444 0.997783,-0.24471 3.182554,-1.032476 2.812422,-2.459368 -0.407493,-1.569929 -3.730416,-2.263228 -4.945956,-3.004561 -1.129612,-0.688761 -1.833853,-1.678006 -0.951885,-2.91543 0.457129,-0.641261 1.038879,-1.230217 1.751126,-1.59688 0.706373,-0.363461 1.341764,-0.310091 2.134869,-0.271395 m 27.753285,4.002878 c 0.52571,0.373334 0.96283,0.875029 1.8568,0.587354 0.8793,-0.282869 1.95368,-1.723371 0.98231,-2.512472 -1.22488,-0.995116 -3.89453,0.701304 -4.68417,1.949936 -0.50196,0.793636 -0.91265,2.066552 -0.77896,2.910624 0.36079,2.274704 2.69581,2.747576 5.02575,2.899685 2.01958,0.131829 4.71779,0.661544 6.62503,-0.694899 0.8382,-0.596429 1.35484,-1.452777 1.33723,-2.471643 -0.0486,-2.818027 -5.68863,-5.388141 -0.75708,-6.938323 m 40.5625,6.938323 c 0.63592,-1.733513 1.35964,-2.32167 2.19358,-3.734952 0.57107,-0.967896 1.44103,-2.255756 2.49405,-1.429562 1.18459,0.929735 0.99512,3.985266 1.18326,4.897656 M 94.52999,13.926077 c -0.02962,0.699169 -0.146239,1.71083 -0.251115,2.401727 -0.146505,0.962292 -0.243109,1.332424 -0.39495,2.134867 -0.121155,0.639394 -0.648734,3.455819 -2.251219,2.454833 -1.36685,-0.853948 -1.351906,-3.028045 -2.17303,-4.055984 m -30.95559,5.870889 c 0.0053,-1.878419 0.766684,-4.842682 2.0855,-6.642376 1.274248,-1.739119 4.373276,-1.481333 5.141028,0.772555 0.958289,2.812423 -2.250418,5.704902 -4.557943,6.209265 -1.241959,0.271661 -2.029459,-0.137433 -2.668585,-0.339444 l -0.533717,3.202303 m 19.480673,-10.674344 2.134334,0.282071 1.868544,-0.282071 m 2.935444,1.334294 c 1.048754,-0.886237 1.774076,-1.063431 2.935445,-0.800576 m -34.691612,5.070312 c -1.83652,-0.293812 -1.641981,-1.819174 -0.730391,-3.197499 0.801911,-1.212072 3.295169,-2.396656 4.252658,-1.00072 0.771488,1.124277 -0.655672,2.155684 -1.387664,2.695006 -0.730926,0.538253 -1.722306,0.89024 -1.881621,1.777544 -0.169188,0.94041 0.584154,1.339897 1.348169,1.860538 M 43.826865,20.59754 c -0.614574,-1.33456 -0.760278,-2.897283 1.338296,-4.008748 1.102927,-0.583888 2.618149,-0.885171 3.058734,0.333571 0.384542,1.064234 -1.149094,2.134869 -2.262161,2.662183 -1.137083,0.539053 -1.588876,0.693298 -2.134869,1.012994 m 37.360197,-4.536596 c -2e-4,1.27932 0.02962,2.686199 -0.800576,4.269738 m 14.410362,-3.73602 c 1.752726,0.751206 2.858589,2.39292 5.337172,2.668584 m 48.03454,-1.067433 0.26685,0.800576 M 28.615928,18.462671 c 0,1.764202 -0.47821,3.706933 0.573212,5.31342 1.172043,1.790088 3.515596,3.138258 4.756488,0.812586 0.493155,-0.924398 0.27433,-1.932057 0.27433,-2.923704 m 5.070313,-2.134867 c 2.429479,3.681047 -2.207455,6.33122 -5.070313,4.803455 m 9.606907,-3.469163 c 1.095456,1.403143 2.674191,1.754061 4.269738,2.134869 m 17.345804,82.459293 c -0.537718,-1.21501 -0.684492,-1.93659 -0.87316,-3.20231 -0.230299,-1.54644 -0.581486,-3.216174 -0.346649,-4.803449 0.132627,-0.896644 0.243907,-1.632373 0.725588,-2.385981 1.190722,-1.863208 3.237261,-0.812585 4.309765,0.785096 0.444853,0.662611 0.660743,1.371921 0.895043,2.134603 0.264991,0.86222 0.359993,1.488002 0.159583,2.401731 -0.350652,1.59741 -1.442906,3.38136 -3.001626,4.23424 -0.896911,0.49075 -1.405543,0.60203 -1.868544,0.83607 m 553.998323,-10.674344 3.4665,10.674344 0.21615,2.31686 -1.28092,0.55347 -2.93543,-0.46861 M 78.518477,95.85165 l 0.800576,4.002878 0.113147,2.935442 0.153711,2.13487 0.800575,4.26974 m 54.972864,-5.60403 c 0.55026,-1.03221 1.10132,-1.298 1.68174,-2.13887 0.66074,-0.95643 1.42983,-2.648042 2.14714,-3.716276 0.35573,-0.529446 0.93161,-1.221678 1.5782,-0.63966 0.45153,0.406693 0.44032,1.079443 0.4598,1.691351 0.0753,2.392115 0.2255,4.644935 1.07144,6.671465 m -12.27549,0 c 0.31436,-1.21421 0.53131,-2.6894 1.08051,-3.73602 0.4227,-0.80591 0.85101,-1.3842 1.45864,-2.133537 0.66849,-0.824859 1.30494,-1.702556 2.17544,-1.288658 0.6103,0.290074 0.46033,1.109329 0.4267,1.554449 -0.0859,1.143756 -0.071,1.883756 -0.071,2.668316 m -51.236843,7.20518 c 1.197929,-0.59776 2.786003,-1.41782 3.461422,-2.6926 0.366664,-0.6917 0.315962,-1.59635 -0.343981,-2.15915 -0.717848,-0.61271 -1.467987,-0.63272 -2.315531,-0.75628 -0.652203,-0.0953 -1.198195,-0.19854 -1.429828,-0.83607 -0.737864,-2.03186 2.802549,-3.07234 3.83022,-3.1628 m 27.753291,9.34005 c -1.93419,0.19267 -5.58695,1.8141 -7.50994,-1.09546 -1.32468,-2.00437 0.39122,-5.82579 1.63078,-7.40052 0.69757,-0.88624 1.3946,-0.62045 2.41,-0.31036 m 278.86717,-0.53371 c 1.68922,1.93365 3.07956,3.88919 4.20302,6.13774 1.04075,2.0799 2.07616,4.28682 2.84471,6.40461 0.35225,0.97083 0.63245,1.88002 0.918,2.93544 0.59509,2.19892 1.23823,4.50698 2.02546,6.67147 0.46967,1.29666 1.00606,2.75771 1.50242,4.00287 0.65913,1.6604 2.30832,3.22739 2.87939,1.0621 0.23485,-0.89398 0.2802,-1.69695 0.30422,-2.66325 0.0534,-2.29952 0.27754,-4.7805 0.65647,-6.93832 0.1708,-0.97003 0.37094,-1.6628 0.40829,-2.66858 0.0454,-1.24036 0.2215,-2.35663 0.38162,-3.46917 0.12274,-0.85554 0.12543,-1.52829 0.23216,-2.40172 0.26954,-2.26617 0.60844,-4.52486 1.79063,-6.40461 m 222.29315,-2.66858 c 0.39497,0.71438 0.42431,0.7416 0.53373,1.60115 -0.66448,-0.65994 -0.65914,-0.80778 -0.53373,-1.60115 m -73.65295,0.80057 c 0.74187,0.0606 1.40368,0.21749 2.13487,0.35519 0.92066,0.17319 1.72124,-0.004 2.66858,-0.0643 3.03686,-0.19214 6.8476,0.30715 9.34005,0.77656 m -452.85894,1.86801 c 0.28234,-0.80538 0.47207,-2.15756 1.87201,-2.55277 1.89096,-0.53399 5.13703,-0.11315 5.12075,2.28591 -0.0136,1.98676 -1.91818,3.74803 -3.79046,4.58489 -1.45998,0.65274 -3.90948,0.75655 -4.59477,-1.14055 -0.5097,-1.41168 0.71545,-2.45857 1.39701,-2.47698 0.96362,-0.0262 1.54217,0.49582 1.86347,0.63379 m 412.02958,-4.00288 c 0,5.54185 0.71251,11.32174 1.09147,16.81209 0.0827,1.20487 0.24017,1.97048 0.24283,3.2023 0.003,1.3455 0,2.00544 0,3.2023 0,2.00171 0.12009,4.28041 0.26685,6.13775 M 89.459676,102.25625 c 1.465322,-0.78189 6.87321,-1.53363 5.153305,1.60116 -0.646597,1.17844 -2.994953,2.87033 -2.185303,4.10882 0.794972,1.2158 4.47762,-0.0384 5.304614,-0.10595 m 331.438318,32.28989 c -1.87869,-5.87383 -2.11352,-12.85511 -2.39106,-18.94696 -0.0907,-2.00971 -0.19214,-3.91321 -0.47234,-5.87089 -0.16012,-1.13361 -0.27754,-1.98489 -0.45099,-3.2023 -0.34158,-2.38545 -1.21955,-9.11562 1.17951,-10.40748 m 204.14679,0 1.06742,0.80057 m -49.10196,0 1.08612,10.14063 -1.08612,2.40173 c 2.4204,1.7207 1.868,5.47913 1.868,8.53947 m 49.36884,-12.80921 c 0.54173,-1.04102 0.70184,-1.94967 -0.26685,-3.46916 -0.10408,0.38 -0.23217,0.81098 -0.21884,1.60248 0.024,1.20273 0.28288,1.3367 0.61112,2.40039 0.45899,1.48321 1.23821,6.57967 3.6106,5.80258 1.74791,-0.57322 2.08415,-2.77773 2.64722,-3.9335 0.74187,-1.53123 1.00606,-1.88455 1.58514,-4.00394 0.33892,-1.23076 0.81927,-1.55472 1.37699,-2.13461 0.54973,-0.57161 1.86534,-1.76179 2.93011,-2.33287 1.21421,-0.65114 3.29837,-1.85334 4.26174,-0.46567 0.99271,1.43143 -1.83066,4.10188 -2.66059,4.93315 m -85.6616,-4.26974 c 1.18219,4.79411 1.86803,9.60798 1.86803,14.67722 0,1.37486 0.49635,4.01676 -0.42699,4.90539 -0.87529,0.84034 -3.64528,-0.0758 -4.91019,-0.10194 M 65.442407,105.45856 v 4.80345 m 5.070314,-4.00288 c 0.02161,1.93339 1.802362,4.5809 3.369088,2.10712 0.70344,-1.11067 1.128011,-1.40314 1.701223,-1.5734 m 558.534938,-0.26686 v 0.80058 m -532.3828,0.80057 0.26686,0.53372 m 521.44158,-0.53372 c 1.28092,1.35911 0.70185,1.45892 0.84595,2.93545 0.0827,0.8334 0.32289,1.78208 0.45367,2.66858 0.29621,1.99824 1.13681,3.80541 0.56841,5.87089 m -0.80058,-10.67434 4.00288,0.26686 m 5.60403,-0.26686 h 0.5337 m -583.352764,1.06743 c 2.345686,1.25771 1.717767,3.93803 -0.533984,4.77837 -1.947,0.72666 -2.285912,-0.0777 -3.735754,0.44539 -0.87316,0.31489 -1.865342,1.20353 -2.935443,1.15416 -1.458116,-0.067 -2.641633,-1.41221 -3.028045,-2.6419 -0.243641,-0.77496 -0.173725,-1.58887 -0.174257,-2.40173 m -22.682979,-0.53371 c 3.388036,1.49441 3.470495,6.02193 -0.533716,7.32153 -2.368903,0.76882 -3.219382,-1.16003 -5.070313,-1.41916 -1.322283,-0.18519 -2.021454,0.82593 -3.7360186,0.98872 -1.6712817,0.15824 -2.3888116,-0.52518 -2.988763,-1.82185 -0.4550211,-0.98337 -0.6029935,-2.59333 -0.7472572,-3.73495 m 425.6393838,-0.53372 -0.26687,3.73602 0.26152,12.2755 -0.50436,2.40172 0.475,1.86801 0.6378,5.60403 1.26491,3.46916 m 59.77632,-8.53947 c 0.30954,-0.35279 0.56307,-0.75628 1.11812,-1.07064 0.79792,-0.45125 1.68121,-0.40028 2.61789,-0.57614 1.0541,-0.19775 1.68655,-0.53479 2.6686,-0.75094 1.07543,-0.23617 4.16565,-1.0202 4.17366,1.0685 0.003,0.81285 -0.53639,1.71216 -0.918,2.39665 -1.09679,1.97716 -3.44248,4.60225 -5.92426,4.52086 -1.81197,-0.0595 -3.15693,-1.5243 -3.65595,-2.9197 -0.35225,-0.98311 -0.0827,-1.50349 -0.0801,-2.66859 -1.72124,-0.46887 -2.93011,-1.66013 -4.5366,-2.83564 -3.10357,-2.27257 -9.91379,-5.18266 -10.92251,-9.17299 -0.46968,-1.86268 0.13876,-3.59245 1.07277,-5.07032 1.37965,-2.17916 3.48516,-4.61238 5.84686,-2.93544 m 158.24712,-0.80058 c 1.15015,1.32736 2.29497,3.66717 5.07031,4.15126 2.76733,0.48328 5.45458,-0.42137 7.7389,-1.74953 m -621.246688,-2.13487 0.759746,1.60249 -0.806179,1.86667 -2.089503,1.94514 -1.866942,-0.24151 -2.401727,0.83767 -1.984361,-0.83687 -0.684226,-2.505 m -12.008635,-2.40173 v 4.26974 m 16.812089,-3.73602 0.26686,4.00288 m 17.078946,-3.73602 0.266858,1.60115 m 10.674343,-1.06744 h 1.067433 M 596.224,121.73693 c 0.69118,-1.74526 0.83794,-2.56745 1.26759,-4.26974 0.29353,-1.17578 0.467,-2.28884 1.24622,-3.16281 1.29961,-1.46158 2.72196,-0.52944 3.62394,0.49423 m -22.14926,-1.06744 2.6686,1.3343 m 5.87088,3.73602 c -0.79523,-1.66013 -0.47769,-3.42487 1.07811,-4.26254 0.70451,-0.37787 1.3583,-0.33517 2.12419,-0.4267 1.48641,-0.17746 2.97548,0.71438 1.93739,2.26242 -1.21687,1.81277 -3.63727,1.31695 -5.13969,2.42682 m -4.00288,-4.5366 v 1.33429 m 47.23396,-1.06743 -0.26685,0.80057 m -18.68011,7.47204 c -1.56379,-0.24417 -2.16156,-0.75521 -2.93543,-1.33429 -0.91534,1.0701 -3.77872,4.88164 -6.02301,2.58372 -0.50168,-0.51343 -0.6111,-1.06316 -0.74986,-1.78314 -0.21083,-1.08985 -0.04,-2.37851 0.42697,-3.46916 0.35225,-0.81846 0.58708,-1.69723 1.16083,-2.36224 1.16884,-1.35777 2.68193,-0.66421 3.85077,0.22737 m 5.87088,-0.80058 c 0,1.6193 -0.0827,3.02884 0.0106,4.5366 0.0507,0.77816 0.22416,1.46505 0.85127,1.99743 1.82531,1.55098 5.10501,0.18333 6.61009,-0.66314 m -105.9428,-4.80346 c 0.008,2.65605 0.443,3.06274 1.86802,5.07032 m 55.23972,-1.86801 c 0.0186,1.56672 0.30154,1.97448 0.80058,2.66858 0.64312,-0.67835 1.37699,-1.32548 1.78794,-2.66858 0.43497,-1.4301 0.49636,-2.92424 1.94806,-3.07795 0.72052,-0.0763 1.2489,0.55213 1.46505,1.21501 0.79257,2.42708 0.86196,4.91553 1.73725,7.20011 m 7.73899,-6.40461 c 1.1208,2.43722 3.56522,2.96667 5.60403,3.46916 m 14.94408,-3.46916 c 1.35029,0.91399 1.00338,1.49868 0.80058,2.13487 l -0.53373,-1.86801 m -35.49217,3.46916 -0.53373,2.66859 m -8.80633,-0.53372 5.60403,0.80058 m -46.96711,2.93544 -1.33428,0.53372 c 0.43763,-0.74987 0.58442,-0.74747 1.33428,-0.53372 m 3.46917,-0.26686 c -0.003,0.89691 0,2.1282 -0.49635,2.85912 -0.59777,0.88117 -1.53711,1.73192 -2.70595,2.02519 -2.4978,0.62739 -2.62323,-2.66324 -1.60115,-4.08373 m -72.58553,-0.53372 c -1.5291,1.42182 -2.91676,7.9257 0.80057,9.1303 0.89131,0.28821 1.58248,-0.14731 1.97476,-0.65167 0.56841,-0.73733 0.44564,-2.1749 0.16012,-3.14146 m 70.98436,-5.33717 h 0.80057 m -119.81947,0.26686 c -0.57641,3.06113 -1.22756,7.8798 -2.10019,11.47492 -0.44564,1.84239 -1.05676,4.0856 -1.36898,5.60403 m 19.21381,-0.80058 c -1.5958,0.0328 -3.62927,0.60444 -5.60403,-0.15024 -1.09144,-0.41737 -1.83864,-1.04689 -2.59386,-1.98569 -1.63049,-2.02733 -1.23821,-5.85942 -0.44832,-8.27155 0.60043,-1.83572 2.0388,-4.94863 4.10963,-5.40202 0.81659,-0.17879 1.98008,0.16652 2.36702,0.93881 0.83528,1.67614 -2.34034,4.35326 -3.43447,5.26378 m 100.07196,1.33429 c -1.75326,1.16137 -4.53126,1.5251 -5.94027,-0.5588 -0.76856,-1.13655 -0.84593,-4.53286 -0.66981,-5.84046 0.0614,-0.4622 0.31489,-1.16831 0.99272,-1.05676 1.24089,0.20468 0.90197,1.28786 0.54705,2.11886 m -78.45641,-2.13487 -0.26685,1.33429 m 9.60691,0.53372 c 1.96673,0.12942 4.86749,0.33971 5.27579,2.67259 0.40561,2.33501 -1.56647,4.66842 -3.14094,6.10572 -1.08078,0.98471 -3.06352,2.24348 -4.53658,1.69695 -2.36704,-0.8785 -2.15623,-3.09716 -2.13488,-4.87124 0.0186,-1.29373 0.38162,-1.95393 0.80858,-3.2023 0.36561,-1.05756 0.0347,-2.70167 1.19286,-3.54601 0.91532,-0.66742 1.37965,0.53505 1.73459,0.91505 0.28821,0.30796 0.64847,0.009 0.80058,-0.0376 l -0.26688,-0.26686 -0.26685,-0.26686 m 18.94696,-0.26686 c 2.04147,0.67756 2.92477,2.09671 3.12225,4.26974 0.14943,1.65852 -0.87531,3.36695 -2.33236,4.14885 -2.65791,1.42556 -5.58267,-0.25592 -6.92764,-1.48027 m 73.91981,-5.60402 c 0.92867,0.70583 1.59583,1.37031 3.46918,1.06743 m -13.34294,0 -0.80057,2.40173 c 1.4784,0.14383 1.54777,-0.68823 0.80057,-1.86801 m -37.62705,5.87088 c 2.96747,0.5508 5.67874,0.29862 8.27261,-1.10559 2.41507,-1.30788 2.70862,-1.82798 4.5366,-2.63043 m -60.31003,28.02015 c 0.40029,-0.6063 0.73119,-1.17391 0.80058,-2.40173 0.0694,-1.25396 0.20815,-2.61788 0.70717,-3.73601 0.76054,-1.71724 2.19357,-4.68818 4.62732,-3.80087 3.53589,1.29133 2.88208,7.38531 1.69989,9.93861 -0.50437,1.08878 -1.51041,2.47218 -1.28625,3.72455 0.28821,1.61209 2.71395,2.11192 4.12563,2.91276 1.63583,0.9284 2.06815,1.23422 2.66858,1.63531 0.72852,-1.60009 -0.7472,-4.91394 0.90465,-7.70047 0.46968,-0.79071 1.8947,-1.00072 2.83137,-1.22355 1.12881,-0.26873 1.56379,-0.60177 2.93545,-0.25325 1.7746,0.45072 3.70667,1.33243 4.49924,3.04059 1.04607,2.25388 0.42697,5.40442 -1.56381,6.85773 -1.13947,0.83073 -2.56984,1.63237 -4.00287,1.63237 -1.12347,0 -2.45243,-0.6039 -3.20231,-1.09519 -0.59508,-0.39041 -1.01673,-0.97963 -1.7319,-0.6562 -0.38428,0.17479 -1.02208,2.04333 -1.41702,2.55384 -1.15817,1.49147 -4.5953,3.1532 -6.45798,3.72347 -0.58442,0.17853 -1.26223,0.33091 -1.84399,0.11715 -1.14216,-0.42163 -1.385,-1.52643 -1.54777,-2.72676 -0.32558,-2.40679 -0.36294,-4.82053 -1.00873,-7.20518 -0.40829,-1.50214 -0.75254,-3.50598 -1.50776,-4.7757 -0.70717,-1.19099 -1.75592,-1.66226 -2.63121,-3.23005 m 77.12211,-6.67147 0.39762,3.20231 0.66981,6.13774 0.0774,2.93545 -0.0774,5.33717 m -17.87952,-9.0732 c 0.0961,0.926 0.34959,1.19606 1.3343,0.80058 -1.65187,-1.97288 0.0507,-5.91172 2.20424,-7.26469 0.80058,-0.50249 1.68388,-0.0355 2.59921,0.0358 2.43107,0.18867 5.36918,0.41256 7.20518,0.55747 m -16.54523,-0.53372 c -2.38306,2.98241 -2.07884,10.09499 -1.60115,13.87665 m -26.68585,-12.2755 c 1.34228,1.18832 2.6419,3.16975 3.41045,4.5366 0.40029,0.71464 0.79257,1.64945 1.27292,2.64483 0.5604,1.16537 1.15283,1.17418 1.89202,2.42655 1.50774,2.56104 2.60187,5.42977 4.63267,6.13668 m -6.67148,-9.87377 c 0.29621,-0.3736 0.5524,-0.71064 1.14216,-1.60249 1.23555,-1.87067 2.48179,-3.52493 4.46187,-2.66725 m -65.38033,12.54235 c -0.28821,-1.17337 -0.68849,-3.24499 -0.77656,-4.53659 -0.0454,-0.67622 -0.0694,-1.33696 0.0641,-2.13487 0.26419,-1.58487 0.475,-2.41694 1.38766,-4.00261 2.12953,-3.70133 7.0157,-0.37547 7.50673,2.93518 0.24018,1.63931 -1.02742,2.86633 -1.97742,4.00287 -1.05676,1.26171 -1.75594,2.20906 -3.26903,3.16682 -1.10211,0.69836 -2.04947,0.36426 -2.63655,1.2601 -0.53373,0.81045 0.17078,4.56195 0.2802,5.71371 0.08,0.82993 0.19748,1.34497 0.21881,2.1282 0.016,0.66207 0.003,0.90224 0.003,1.34096 m 87.26274,-18.41324 c 1.6465,-0.0707 2.12153,-0.54332 3.73601,-0.4606 1.2062,0.0616 2.53782,0.52305 3.31972,1.55686 1.68922,2.23574 -0.0507,5.52637 -2.51915,6.19859 -1.0861,0.29541 -2.04147,-0.20789 -2.93543,-0.62338 m -29.88817,-4.80346 -1.08344,2.13487 -1.23823,5.60403 0.18682,4.26974 M 415.0884,166.30978 c 0.81659,-0.49609 2.30832,-0.13717 3.14092,0.0614 1.46239,0.34932 3.29837,0.6023 4.20837,2.0775 1.94271,3.14573 0.54705,8.24699 -2.60722,10.12675 -1.40901,0.84007 -3.29571,0.68022 -4.48056,-0.56041 -0.65913,-0.69169 -1.09411,-1.49147 -1.28625,-2.37264 -0.33624,-1.54511 -0.10675,-3.64128 -0.10407,-5.33717 0.003,-1.53737 -0.18948,-3.19589 1.12881,-3.9954 m 156.3178,13.60231 c 0.77924,-0.18573 2.76198,-0.25858 3.73602,-0.2359 0.85928,0.02 1.7426,-0.26846 2.59653,0.28394 1.11014,0.71758 -0.0453,2.28644 0.2215,3.11584 0.34959,1.09465 1.78794,0.96763 2.74864,1.94193 3.59726,3.65223 -2.07081,10.2671 -5.29982,11.70628 m -19.74751,-14.41036 c 2.22826,0.9783 3.86678,2.03052 5.60403,2.66858 m -14.94409,-1.33429 -0.54173,5.52024 -1.32627,0.72692 -2.40173,0.96415 -2.6686,0.84061 -1.32627,-0.21776 -0.18682,-1.42983 0.97939,-4.53632 c 0.15477,0.85982 0.10407,0.87477 -0.26687,1.60115 m 28.28701,-3.46916 c -0.14144,0.86115 -0.16279,3.17909 0.11475,4.26974 0.33624,1.33135 0.96335,1.26971 0.41896,2.66858 -0.52304,-0.94949 -0.45633,-0.99324 -0.53371,-1.60116 m -13.07608,-4.80344 c -0.63511,0.6957 -1.16616,1.33055 -1.63317,2.13487 -0.6698,1.14936 -2.26295,3.33253 -0.48567,3.97431 0.99003,0.3576 2.86872,0.32318 3.98687,0.70771 1.32361,0.45607 3.6266,1.12909 3.90146,2.79109 0.27754,1.66065 -1.78528,3.20817 -3.36776,3.5927 -2.0895,0.50785 -4.30442,-0.0285 -5.60403,-1.45891 m -17.87952,-10.9412 0.26686,9.0732 0.26687,2.93543 m -42.69738,-9.87376 0.27754,9.87376 -0.0454,4.5366 -0.76587,2.13488 M 507.62702,187.651 c -0.0106,4.26306 -1.20621,8.89945 -2.78869,12.80921 -0.92866,2.2883 -2.02545,4.6017 -2.81534,6.9383 m -5.33718,-19.21381 c 1.92404,0.80512 3.6693,1.96461 5.33718,3.49211 1.12881,1.03488 1.69722,1.64386 2.70861,2.45084 0.71517,0.57267 1.01939,0.78242 1.29427,0.99538 m 41.89678,-6.67146 h 0.26685 m -65.91405,0.26685 c 0.48301,0.64367 1.00072,1.63212 1.66786,2.33262 1.04609,1.10239 1.82531,2.08576 2.55652,3.80514 1.20086,2.82283 1.90537,6.688 3.51452,8.53946 m -33.09047,-14.14349 c 0.77924,1.97181 0.84061,3.99167 1.3343,6.4046 0.21349,1.0306 0.47234,1.75032 0.80058,2.40173 l 1.86534,-1.14082 5.07299,-4.73008 m 80.32441,-2.40173 c 0,2.16636 -0.50971,5.57361 -0.53372,8.53948 m -144.90419,13.07606 c 0.29621,-3.71788 1.02207,-7.41039 1.06744,-11.20806 0.0134,-1.11252 0.0747,-2.23841 0.41897,-3.2023 0.35759,-1.00258 0.87262,-1.48613 1.29427,-2.40173 0.67248,-1.46477 1.868,-4.51925 3.55455,-3.6725 1.65719,0.83234 2.10017,3.8932 2.41774,5.54053 0.95801,4.95822 0.92599,10.11873 2.45509,14.94406 m 155.31167,-20.54809 0.26687,4.53658 M 483.8766,191.387 c -0.18147,0.37095 -0.40563,0.64126 -0.38428,1.34097 0.056,1.66868 0.92333,5.17171 0.95535,6.93166 0.0134,0.74079 -0.032,1.37751 -0.0374,2.13485 -0.0134,1.98998 -0.26152,4.13737 -0.26687,6.13775 m -25.08469,-9.87375 0.16812,4.0026 0.71517,1.46825 2.05216,1.04769 5.60403,1.75406 m -16.27839,0 0.83794,-2.40172 1.13416,-2.85191 2.03078,-0.0835 m -40.02878,6.93832 c -0.81124,-1.78794 0.40829,-4.70764 2.6686,-5.67607 0.87262,-0.37281 1.63317,-0.58763 2.12418,0.16091 0.56307,0.86142 -0.20548,2.16209 -0.82459,2.82257 -0.98471,1.04767 -3.43713,2.03132 -3.93082,3.03924 -0.99272,2.022 2.72195,2.99896 4.23238,3.12251 m 18.68009,-4.26973 0.80058,0.80057 c -0.93402,-1.96995 -1.46772,-3.49717 0.58442,-5.25231 0.77922,-0.66714 1.57447,-0.78136 2.61253,-0.34931 0.98205,0.40829 1.27292,1.06557 1.72659,2.13273 0.64046,1.50614 2.60721,3.79873 3.61594,4.26947 m 2.13485,-6.4046 c 0.49636,1.90776 0.69918,2.42948 1.60115,3.46915 m -20.28124,-2.40172 c 1.08878,0.0355 1.97476,0.29301 2.44442,1.33935 0.30956,0.6925 0.49904,1.56353 0.29355,2.39561 -0.31223,1.25476 -1.36899,1.99315 -2.73797,1.80501 -1.8013,-0.24737 -2.6419,-0.98416 -2.66858,-3.13825 m 44.56536,-2.13485 c 1.34497,3.48996 3.01817,7.72661 1.06745,11.20805 m -14.41036,-10.9412 c -0.0507,1.15096 -0.0694,2.4276 -0.26687,4.26972 m -35.75903,-3.736 c -0.61112,0.93747 -0.69384,1.60247 -0.57376,2.66858 0.0961,0.86222 0.0854,1.5878 0.90199,2.20372 1.84399,1.39086 3.39977,-0.38241 4.47522,-1.40315 m 15.47779,-3.2023 c -1.36898,1.57047 -1.54245,2.90823 -4.5366,2.93545"
       id="path43196"
       sodipodi:nodetypes="ccsccccccccccccccccccccccccccsccccccccccccccccccccccscccccccccccccccccccccccccccccccccccccccccccccccccccccccscccccccccccccccccccccccccccccccscccscccccccccccccccccccccccccccscccccccccccccccccccccccsscccscccccsccccccccccccccccccccsccsccccccccccccccsccccccccccccccccccccccccccccccccccccccccccccccccccccccccscccccccccccccccccccccccccccccccscccscccccccccccccccccccccccccccccccccccccccccsccccccccccccccccccccccccccccccccccccccccccccccccccccccccccscccccccccccccccccccccsccscccccccccccccccccccccccccccccccccccccccsccccccccccccccccccccccccccccccccccccsccc" /><path
       style="fill:none;stroke:#010101;stroke-width:0.153996"
       d="m 151.92875,46.335649 c -0.52875,-0.192765 -0.54354,-0.0055 -1.23552,-0.153347 -1.02466,-0.218957 -2.09919,0.323544 -2.12369,1.534294 -0.0114,0.53271 -0.0447,0.777891 0.20597,1.227856 0.33554,0.602491 0.91338,0.475566 1.52101,0.301319 0.49817,-0.142945 0.69018,-0.290603 1.06404,-0.66455 0.67247,-0.672683 0.92489,-0.912047 1.31722,-2.030524 3.14532,-11.50245 -0.66845,-18.228365 1.86392,0.730383 l 0.55659,3.222775 m -31.09114,-13.353305 -0.0217,1.386752 -0.17781,3.700534 -0.37514,6.47731 -0.18243,1.082113 -0.15921,2.159826 m 16.49542,-13.329516 c 1.48554,-4.239659 1.47936,1.725046 1.31757,3.553476 0.0939,23.314255 -3.78458,-1.598631 2.32867,-6.364964 0.97314,-0.361352 1.8817,0.378323 2.46394,1.179656 0.15949,0.219325 0.18751,0.521294 0.19611,0.765976 0.0115,0.307344 0.045,0.39617 -0.01,0.770351 -0.0383,0.264822 -0.12377,0.542917 -0.24006,0.775285 -0.49772,0.993794 -1.44078,1.899403 -2.27982,2.6415 -1.99566,1.43264 -3.82308,2.434604 -1.44379,4.523396 0.51595,0.466786 1.2892,1.051928 2.02997,1.291659 0.27996,0.09042 0.50928,0.175814 0.77693,0.317049 0.68405,0.361239 1.7496,0.756693 2.17569,0.903482 M 128.82233,39.0502 c -0.006,0.900797 -0.67644,4.697239 0.26293,5.103085 0.1505,0.05072 0.85522,-0.09939 1.2284,-0.180252 1.12578,-0.446546 2.41259,-0.483888 3.36852,-0.944734 0.66227,-0.320785 1.04242,-0.443012 1.68208,-0.574999 M 12.945933,44.141684 c 1.888319,-0.723372 6.506881,-1.540106 8.311699,-0.280089 0.857094,0.645307 0.02262,1.681795 -0.416978,2.113995 -0.406507,0.399672 -0.640642,0.65548 -1.20978,1.052703 -0.449014,0.313375 -0.518159,0.192083 -0.758854,0.529624 -0.410274,0.575364 -1.001201,0.810578 -0.923144,1.251951 0.06705,0.379088 0.345085,0.538208 0.808612,0.598868 0.528404,0.06929 0.652572,-0.05112 1.078821,0.02827 0.577107,0.107525 0.777678,0.214602 1.237165,0.23036 0.37639,0.01297 0.516346,0.02686 0.9276,0.159968 0.313974,0.101628 0.369057,0.08221 0.773635,0.163084 0.457749,0.09155 0.750859,0.205776 1.240451,0.384332 0.874616,0.318819 2.180898,0.742093 1.835691,1.809197 -0.161559,0.499115 -0.614647,0.841498 -1.002364,1.150902 -0.381139,0.304331 -0.789533,0.505125 -1.215256,0.796086 -0.862363,0.589557 -1.675235,1.163104 -2.738985,1.5732 -1.663453,0.641802 -8.051842,1.90385 -5.097689,-0.687089 M 45.428402,43.294429 c 0.112459,2.128355 -1.847667,4.923758 -0.856173,6.795636 0.282242,0.493499 0.626717,0.481844 1.010053,0.414816 0.414802,-0.07243 1.004367,-0.292063 1.528659,-0.546007 0.219688,-0.106482 0.869577,-0.379144 1.068965,-0.433616 0.507812,-0.138527 0.709793,-0.143458 1.074988,-0.151251 0.0061,0.286221 0.02778,0.528811 0.01972,0.923768 -0.03086,1.520176 -0.115592,2.934299 -0.07182,3.852309 m 1.014832,-10.1877 c -0.0047,0.954607 -0.419148,2.178202 -0.65282,3.094546 -0.0739,0.290327 -0.116774,0.35266 -0.166372,0.619676 -0.135559,0.728255 -0.165178,0.682973 -0.147962,1.49217 l 0.0043,0.205226 m 56.700328,0.792353 c -0.77988,-0.369361 -2.16364,-0.886482 -3.25346,-2.087004 -2.19201,-2.552032 0.8238,-3.594378 3.13192,-3.609555 0.78166,-0.01668 1.51502,0.41734 1.20998,1.360454 -0.14031,0.433389 -0.39128,0.618221 -0.69881,0.939102 -0.75985,0.792999 -1.33352,0.798001 -1.9785,1.120436 M 62.577165,45.701009 c -0.533574,0.353121 -0.980841,0.448904 -1.525917,0.674362 -1.917964,0.876906 -4.704619,2.68962 -5.743211,3.947675 -1.068183,1.319963 -1.248426,3.681989 0.06794,4.388426 0.930783,0.460723 3.247274,-0.794317 3.932917,-2.163347 0.275083,-0.549137 0.362619,-1.586404 0.265208,-2.008062 -0.128938,-2.736854 -4.969137,-2.091507 -5.140431,-3.895108 -0.04088,-0.450269 1.097651,-1.759973 1.342937,-2.031063 0.718899,-0.946267 1.688607,-1.489915 1.84096,-0.347351 m 69.001302,-0.214658 c 1.36898,0.222115 1.74675,0.116756 2.46666,0.101399 -0.18469,0.969904 -0.11243,1.948242 -0.0915,2.928543 l 0.0164,0.769795 0.0297,1.385656 0.0231,1.077723 m -31.683638,2.1908 c 1.567658,1.064325 3.665138,-0.60854 4.062968,-2.08911 0.0278,-0.103647 0.0473,-0.29475 0.0157,-0.462423 -0.10767,-0.571322 -0.46455,-1.255604 -0.91176,-1.828918 -0.29425,-0.377109 -0.88326,-0.838997 -1.27931,-0.999581 -1.483598,-0.836387 -3.894464,-1.611465 -1.268926,-1.7186 0.830386,-0.125937 1.538156,0.170621 2.319266,0.412604 m 18.43635,4.997635 c -0.60337,0.01287 -2.82715,0.372091 -3.56739,-1.156119 -0.23584,-2.0844 2.26842,-5.354582 3.30171,-4.075277 0.0725,0.106206 0.1067,0.293187 0.11255,0.459699 0.0265,0.757606 -0.24054,1.265568 -0.82978,2.02011 m -3.90159,-2.381236 c -0.14059,1.742713 -1.80962,6.2438 -3.40748,6.336702 -0.26666,0.0058 -0.56093,-0.0982 -0.77584,-0.265937 -0.93231,-0.727614 -0.97693,-2.471677 -0.99549,-3.341717 -0.004,-0.193217 0.008,-0.436369 0.0381,-0.616939 0.0399,-0.234668 0.0924,-0.461282 0.0928,-0.464068 M 27.350366,55.07854 c 0.591377,0.218888 1.098964,0.524737 1.860125,0.5507 0.315531,0.01078 0.417131,-0.07144 0.765973,-0.195952 0.560097,-0.200177 1.122059,-0.349096 1.527561,-0.59743 0.335561,-0.205391 0.480675,-0.356213 0.756659,-0.632274 0.501,-0.500963 0.758011,-0.865038 1.022446,-1.408096 0.147861,-0.303517 0.261201,-0.47075 0.419895,-0.779111 0.205572,-0.39979 0.221596,-0.572806 0.288209,-0.930339 0.05734,-0.308058 0.06896,-0.514248 0.03483,-0.770906 -0.05249,-0.39551 -0.474332,-1.208562 -0.802662,-1.523171 -3.997647,-3.192003 -7.60421,2.443474 -5.01218,-3.897847 l 0.750091,-0.940196 0.89748,-1.251404 0.745162,-1.171129 0.460241,-0.08683 1.539609,-0.03286 1.84753,-0.03943 0.766521,-0.170394 0.767064,-0.144726 2.461184,-0.155232 0.764876,-0.247361 2.155454,-0.046 m 50.217465,7.37427 c 0.972761,0.116108 2.053534,0.596124 2.750153,1.353312 0.480981,0.545947 0.682299,1.476775 0.225524,2.151625 -0.412888,0.609996 -0.937847,0.89044 -1.642129,1.241569 -0.902973,0.254268 -1.738735,0.640516 -2.603648,0.697418 -0.291683,0.01656 -0.428943,-0.04152 -0.619126,-0.140819 -0.502189,-0.26207 -0.675974,-0.675166 -0.770382,-1.215809 -0.244226,-1.632747 1.548206,-4.056376 2.659608,-4.087291 z m -8.611404,0.671595 c 1.180883,0.191524 2.46281,-0.158364 3.554789,0.56599 0.345455,0.229058 0.916145,0.755992 1.048916,1.030112 0.326581,0.975951 0.417854,0.857858 -0.143538,1.697401 l -0.371757,0.624059 -0.605989,0.475021 -1.980678,1.017754 -1.075537,0.12566 -1.077727,0.02301 -0.773091,-0.137543 c -1.502805,-0.896843 -1.924858,-2.929714 0.08385,-3.287737 0.643413,-0.08545 0.521786,0.0402 1.386743,0.02171 m -10.256226,2.991447 0.114535,-1.85082 -0.01972,-0.923768 c -0.04846,-2.948884 0.413283,-3.757738 0.390745,-4.114045 -0.377482,-2.462206 -0.673171,-3.275794 0.772041,-5.152636 0.234868,-0.304571 0.286277,-0.465087 0.625677,-0.757821 0.213862,-0.184491 0.496115,-0.318363 0.762685,-0.350022 0.789408,-0.09385 0.82159,-0.04382 1.556038,0.736943 0.287315,0.305351 0.607722,0.840564 0.642128,1.218546 0.03644,0.401018 -0.112161,1.109447 -0.425739,1.703437 -0.460868,0.873018 -0.934075,1.203815 -1.807007,1.93827 -0.50902,0.428288 -1.386817,1.670952 -1.655784,1.806688 -0.256927,0.129741 -0.374879,0.01604 -0.583012,0.346186 -0.148984,0.236537 -0.344006,1.996811 -0.05067,2.439855 0.360826,0.545274 0.679465,0.282936 1.007867,0.312282 0.119755,0.01067 1.202767,0.271295 1.392768,0.304054 0.573412,0.09885 1.12663,0.261998 1.705618,0.528281 0.487984,0.224481 0.853069,0.391829 1.398246,0.560717 0.584558,0.180981 0.763287,0.371093 1.239352,0.332898 m -37.781903,12.358647 0.282103,6.001195 c 0.134794,3.156976 0.280549,6.562522 0.04318,9.240944 l 0.01972,0.923758 M 11.764937,68.195727 c 0.553853,-0.366555 0.404338,-0.497676 1.375791,-0.491451 0.438786,0.0028 0.553479,0.106022 0.927052,0.134243 0.941819,0.07136 2.450332,0.31785 3.396998,0.389598 0.313826,0.02379 0.562337,0.02025 0.925955,0.08296 0.408063,0.07025 0.440883,0.04188 0.770897,0.03485 0.218795,-0.0047 0.925687,0.09993 1.234974,0.127677 0.654407,0.05853 1.195359,0.08306 1.699594,0.246061 0.470688,0.1523 0.768034,0.163365 1.08156,0.156668 M 125.87626,66.992668 c -0.30227,-0.406658 -0.56193,-0.636322 -0.91886,-0.955873 -0.28817,-0.258009 -0.26817,-0.411542 -0.65305,-0.525164 -0.90896,-0.268639 -2.054,0.418903 -2.69428,1.264021 -0.41919,0.553292 -1.08335,2.163539 -1.06986,2.795397 -0.13733,1.352886 2.08309,2.043759 3.14395,1.574121 1.8826,-1.063457 2.22809,-3.476565 2.26757,-2.89634 -0.48825,3.275033 0.0754,6.508709 0.14808,9.213186 m 19.46053,-11.967645 c 1.06556,0.0073 6.22698,-0.170418 6.61433,0.783028 0.2264,0.706635 -0.91617,2.324314 -1.3019,2.749053 -1.00652,1.759542 -2.35812,1.37569 0.3386,1.430346 0.22951,0.0078 0.52977,-0.01136 0.7698,-0.01643 l 0.76981,-0.01643 c 0.59644,-0.01273 1.56493,-0.0513 2.30068,0.746778 0.20137,0.218274 0.2611,0.404922 0.32379,0.737523 0.24679,1.307842 -1.44634,3.37734 -2.50399,4.160984 -1.64963,1.222161 -2.57353,1.329527 -3.66111,1.66973 m -130.819537,-9.427879 0.203721,1.125162 c 1.355365,1.950857 3.020061,3.663603 4.583154,5.447304 1.262851,2.875883 2.21592,4.159253 -0.213111,5.652404 -1.855957,1.052021 -4.735144,0.06054 -5.394108,-0.141648 M 118.18813,67.618841 c -0.24286,0.911034 -0.27229,2.109873 -0.24878,2.777863 -0.46511,1.504749 -4.73411,2.907656 -5.76965,1.509419 -0.39798,-0.877183 -0.31762,-4.049137 0.61999,-4.634172 m 15.09145,-0.168033 c 2.38385,0.54168 6.93314,-1.035267 5.55958,1.883751 -0.28327,0.598142 -0.95577,1.796686 -1.23365,2.336793 -0.51631,1.003899 -2.4187,3.770552 -1.74623,4.786503 1.36983,0.842533 3.01914,-0.0222 4.38845,-0.06794 m -43.742359,-7.101816 0.92595,0.08296 1.848628,0.01184 0.766528,-0.170384 1.382361,-0.183538 1.07498,-0.151239 1.073892,-0.202685 1.99821,-0.196669 1.70014,0.271774 m -4.772242,0.127551 c 0.08298,2.759053 -0.338763,5.779413 -0.281179,8.477718 l 0.02628,1.231689 c 1.658227,-0.02735 3.131861,-0.758049 4.748701,-1.230853 0.72888,-0.209183 1.43192,-0.394542 1.6848,-0.44676 m 34.64732,-7.670824 c 0.48445,-0.09996 1.22656,-0.180204 1.69027,-0.1901 0.43295,-0.0093 0.52828,-0.07485 0.92487,0.03156 0.25251,0.06794 1.4824,0.606052 1.7122,0.836363 0.55734,0.558626 0.95673,1.525736 0.97631,2.443653 0.008,0.353808 -0.0945,0.489376 -0.16327,0.773643 -0.25753,1.068147 -0.97776,1.94979 -1.92101,2.608228 -0.44848,0.313008 -0.79666,0.562425 -1.37196,0.670973 -0.94502,0.178358 -1.21969,0.162965 -2.01738,-0.701382 -0.7048,-0.864976 -0.75564,-4.351776 -0.25358,-4.666812 0.35665,-0.155177 0.92454,0.09597 1.23607,0.178945 m -20.80451,-0.480193 0.61583,-0.01314 m -0.61583,0.01314 c -0.002,2.35625 0.0506,4.161938 0.29201,6.463072 M 48.906657,83.57627 c -0.525895,-2.044931 -6.37906,-7.337971 -6.395465,-7.932849 -0.08706,-1.847355 3.035246,-2.56328 4.629139,-2.657599 m 11.932753,3.390794 c 0.965201,0.60107 1.874065,0.806859 2.301955,2.004559 0.280622,0.785737 0.02959,1.66075 -0.51529,2.321473 -3.13737,3.460809 -6.147276,-5.789166 -1.786665,-4.326032 z m -4.938792,-0.459488 c -0.304638,-0.409845 -0.589013,-0.743259 -1.407555,-0.996878 -0.474312,-0.146845 -0.961247,-0.249817 -1.543989,-0.172368 -0.369091,0.04896 -0.788564,0.342758 -0.782373,0.632811 0.0076,0.355353 0.09423,0.453009 0.375224,0.736426 0.558527,0.563388 2.185118,0.961349 2.778993,1.506735 0.435505,0.399811 0.617374,0.513303 0.763807,0.907874 0.303274,1.125666 0.260897,1.089045 -0.136802,2.005334 -0.346285,0.800033 -1.713494,1.830721 -2.690455,1.443694 m 27.313782,-6.282065 c 0.758025,3.199115 -2.444637,13.177349 0.591315,1.31302 0.419767,-1.280204 3.175553,-11.583817 3.138684,-5.551463 0.04264,0.244002 0.03702,0.775375 -0.0028,1.078283 -0.05324,0.406385 -0.108948,0.907405 -0.09868,1.388382 0.0093,0.435244 0.04275,0.552671 -0.006,0.924315 -0.388868,2.851437 0.07547,3.805397 1.363949,1.357168 0.159281,-0.309614 0.566744,-1.397144 0.679104,-1.862857 0.120421,-0.499487 0.172285,-0.638601 0.310481,-1.084852 0.333167,-1.075466 0.759298,-3.258556 1.71193,-3.990053 1.011886,-0.776804 1.335452,0.642617 1.414124,1.304813 0.196968,1.658405 0.539196,3.302475 0.724276,5.06757 0.03402,0.324735 0.162593,0.928418 0.231513,1.22731 0.08724,0.377969 0.07232,0.415262 0.119111,0.767609 0.03191,0.240376 0.480709,1.406061 0.501314,1.837677 m -25.94429,-3.143066 0.09025,2.119912 c -0.438357,5.528067 0.245094,-0.420808 0.709974,-1.399017 0.583189,-0.806387 1.662628,-2.075122 2.39625,-2.509179 0.545655,-0.299683 1.11471,-0.202776 1.502034,0.609798 0.331536,0.695771 0.355971,0.960175 0.392049,1.531946 0.09754,1.5467 0.22317,3.239747 0.242675,4.15366 m -29.249345,0.778314 c -1.017974,0.210109 -1.938953,0.584187 -2.909924,0.780969 -0.419462,0.08492 -0.549258,0.04409 -0.925956,-0.08296 -0.567839,-0.191516 -1.463976,-0.695943 -1.745567,-1.194998 -0.261264,-0.463295 -0.256309,-1.515736 -0.119692,-1.999847 0.0825,-0.291955 0.446652,-1.012121 0.69389,-1.170045 0.326712,-0.208749 0.642184,-0.19361 0.918839,-0.250648 m -2.666154,4.98589 c -5.283935,-7.790497 0.558172,-3.934357 -4.818197,-2.027886 l -0.613107,0.141393 c -1.42518,-0.09038 -1.904207,-2.459804 -1.150015,-3.364145 0.427315,-0.44595 0.750237,-0.471479 1.221832,-0.488165 0.429582,-0.0149 0.589055,-0.01256 0.923766,-0.01972 l 1.38565,-0.02956 m 65.033934,1.538678 1.998205,-0.19668 m -24.07131,2.824188 c 0.18057,-0.748758 0.424682,-1.190029 1.001268,-1.202335 0.277438,-0.006 0.448253,0.390761 0.477217,0.708681 0.02977,0.326833 0.115464,0.596104 0.122409,0.921577 0.01627,0.762104 -0.164779,1.076648 -0.220506,1.699046 -0.06887,0.769627 -0.463604,1.416045 -0.723803,2.171884"
       id="path173318"
       sodipodi:nodetypes="cscccsccccccccccccccccccccccccccccccccccscccccccccccccccccccscccccccccccccccccccccccscccccccccccccsccccccccccccccccccccccccccsccccccccccccccccccccccccccsscccscccccccccccccsccccccsccccccccsscccccccccccccccccccccccccccccccccsccsccccccccccccccccccccssccccccccsccccccccsccccccccccsccccccccssccccssssc" /></g></svg>
