<?xml version="1.0" encoding="UTF-8" standalone="no"?>
<!-- Created with Inkscape (http://www.inkscape.org/) -->

<svg
   version="1.1"
   id="svg45791"
   width="4393.3335"
   height="1402.6667"
   viewBox="0 0 4393.3335 1402.6667"
   sodipodi:docname="NathanC - Pulsz - Envelope 16.svg"
   inkscape:version="1.2 (dc2aedaf03, 2022-05-15)"
   xml:space="preserve"
   xmlns:inkscape="http://www.inkscape.org/namespaces/inkscape"
   xmlns:sodipodi="http://sodipodi.sourceforge.net/DTD/sodipodi-0.dtd"
   xmlns="http://www.w3.org/2000/svg"
   xmlns:svg="http://www.w3.org/2000/svg"><defs
     id="defs45795"><pattern
       id="EMFhbasepattern"
       patternUnits="userSpaceOnUse"
       width="6"
       height="6"
       x="0"
       y="0" /></defs><sodipodi:namedview
     id="namedview45793"
     pagecolor="#ffffff"
     bordercolor="#666666"
     borderopacity="1.0"
     inkscape:pageshadow="2"
     inkscape:pageopacity="0.0"
     inkscape:pagecheckerboard="0"
     showgrid="false"
     inkscape:zoom="2.2543246"
     inkscape:cx="128.86343"
     inkscape:cy="27.280898"
     inkscape:window-width="1920"
     inkscape:window-height="991"
     inkscape:window-x="-9"
     inkscape:window-y="-9"
     inkscape:window-maximized="1"
     inkscape:current-layer="g45797"
     inkscape:showpageshadow="2"
     inkscape:deskcolor="#d1d1d1" /><g
     inkscape:groupmode="layer"
     inkscape:label="Image"
     id="g45797"><path
       style="fill:none;stroke:#39352d;stroke-width:0.209939"
       d="m 89.134943,5.0297527 v 1.679515 2.0993961 c 0,1.2636252 0.21141,2.5272512 0.2091,3.7789112 -0.0011,0.584681 -0.04472,1.097353 0.0317,1.679516 0.264944,2.017939 0.275651,3.965338 -0.66068,5.878306 M 102.78101,5.0297527 c -0.811,2.7439083 0.20385,5.9110563 0.20385,8.6075183 0,0.800501 -0.36907,1.596592 0.0149,2.261469 0.40414,0.69931 1.03522,0.681675 1.6707,0.995324 1.68666,0.83241 3.55302,2.277634 5.45843,2.621515 m 34.64001,0.839757 c 1.22835,1.142911 4.20656,1.345083 5.60476,-0.237861 0.90988,-1.030173 0.56326,-2.15188 -0.77636,-2.844471 -1.81912,-0.940738 -4.0745,-0.17047 -4.66674,1.612756 -0.36551,1.100713 -0.55068,1.817656 -1.64992,2.350483 -0.76669,0.371592 -1.34424,0.337162 -2.08071,0.396785 -0.81751,0.06592 -1.68371,0.212249 -2.51928,0.188736 -1.52981,-0.04325 -2.57951,-0.742346 -3.12934,-2.306395 -0.54774,-1.557752 -0.13373,-3.201578 0.0701,-4.618459 0.2135,-1.482804 0.72597,-2.849301 1.29889,-4.198791 0.38104,-0.897702 0.84795,-1.6841343 1.29449,-2.5192737 0.42805,-0.8004993 0.92813,-1.6478162 1.55417,-2.2969481 0.3863,-0.4005646 0.85803,-0.8305213 1.40009,-0.6942711 1.0835,0.2720816 0.73647,1.7074381 0.66067,2.7812787 M 18.595268,25.393884 c 2.012269,0.479082 4.539101,0.289927 6.508125,-0.243319 1.052636,-0.285099 1.940889,-0.676216 2.939152,-1.175662 1.674059,-0.837659 3.567293,-2.264617 2.460702,-4.249386 -0.5893,-1.057254 -1.306243,-1.547882 -2.250762,-2.138233 -1.433678,-0.896021 -3.234118,-1.548513 -4.828609,-2.14978 -1.300366,-0.49042 -3.459172,-0.822543 -3.992628,-2.22326 -0.237653,-0.624361 0.04262,-1.167264 0.471523,-1.640467 0.915755,-1.010439 2.177282,-1.6499156 3.311166,-2.3588802 1.101132,-0.6883917 1.950967,-1.5157638 3.149093,-2.0857495 m 2.309333,0.209939 0.209941,0.2099405 M 156.52553,9.4384823 c -0.51919,1.1126787 -0.62982,2.5887637 -0.62982,4.1987887 m -51.64512,0.209941 c 1.33563,-0.871459 5.15968,-3.177225 7.13794,-3.9888517 m 58.57313,12.5963717 c 2.24257,-0.618272 4.11984,-2.287712 5.17647,-4.408729 0.39762,-0.797981 0.42745,-1.647396 -0.19252,-2.418924 -1.25291,-1.559221 -3.38674,-0.429957 -4.19941,-1.636898 -0.42953,-0.637588 0.28657,-1.394629 0.90337,-1.727383 0.65836,-0.355218 1.41142,-0.427226 2.091,-0.514982 m -14.48583,7.137944 c 0.79903,-1.184479 1.50506,-2.134875 2.12858,-3.359032 0.53891,-1.058095 1.40891,-2.774561 2.70024,-3.048742 0.97055,-0.206161 1.65096,0.533457 1.99778,1.370065 0.84542,2.039563 0.39951,4.901668 0.1014,6.507285 m -53.74451,-3.568971 c 0.046,-0.843117 0.77741,-2.612487 1.89848,-3.272118 0.81142,-0.477612 3.43482,-1.441445 4.17486,-0.20658 0.92352,1.540956 -2.24908,3.517117 -3.55407,3.789618 -1.07552,0.224845 -1.57811,-0.0086 -2.30933,-0.100981 0.32184,1.232555 0.9273,1.763283 2.72921,2.729213 m -40.098444,2.309335 c 1.475874,0.739198 6.811276,0.791262 8.008982,-1.28126 0.51981,-0.899801 -0.435414,-1.308133 -1.081819,-1.640888 -1.328076,-0.683772 -4.96024,-1.853345 -5.139528,-3.586187 -0.04934,-0.475512 0.05396,-1.010017 0.30924,-1.466217 0.245839,-0.438984 0.548782,-0.7646 1.053266,-1.014428 0.626251,-0.31029 1.28609,-0.279219 1.761814,0.262215 0.365504,0.41631 0.324566,1.012748 0.336532,1.378882 m 38.418927,8.397581 c 1.37448,-0.390068 3.02124,-0.848576 4.82861,-1.650544 0.94746,-0.420299 1.96378,-0.767749 2.3593,-1.919267 0.3231,-0.940109 -0.43352,-1.597219 -1.10071,-2.138654 -0.83031,-0.673906 -1.54033,-0.961942 -2.51801,-1.379093 -0.66257,-0.282789 -1.13809,-0.501754 -1.33081,-1.118977 -0.17509,-0.561168 0.15766,-0.985037 0.52191,-1.271394 0.55508,-0.436045 1.3539,-0.565997 2.06832,-0.599168 m -36.949352,0.20994 c 1.299946,0.657111 1.711428,0.714424 2.309335,0.839758 m -22.463527,8.18764 c 0.227783,-1.226675 0.117356,-4.110825 1.392738,-5.659967 1.240113,-1.506107 2.929497,-1.458871 3.965128,0.204691 0.564527,0.907148 0.76166,1.5588 0.667187,2.516125 -0.0718,0.72744 -0.165012,1.318839 -0.633177,1.844738 -0.93486,1.050117 -2.214442,1.228565 -3.712361,1.390009 -0.855712,0.09216 -1.233603,-0.08482 -1.679515,-0.295596 -0.340522,1.120868 -0.407703,1.665661 -0.419879,3.149093 m 31.490927,-9.027398 c -0.282789,0.315748 -0.385449,0.819814 -1.477766,1.332487 -1.150678,0.539963 -3.052309,-0.410433 -2.590232,-1.475665 0.316169,-0.72933 1.668599,-0.707286 2.388481,-0.624361 1.054737,0.121555 1.367757,0.536816 1.679517,0.767539 m -6.298185,-0.41988 h 0.209939 m 6.298185,0.41988 2.099397,2.729213 m 2.72921,-2.519274 v 3.988851 M 35.810307,18.88576 c -0.20364,0.499237 -0.455568,0.902739 -0.641785,1.679516 -0.245629,1.024504 0.702248,2.687645 1.694633,3.521105 0.65291,0.548362 1.465797,0.814146 2.305345,0.586572 0.925203,-0.250879 1.31527,-0.940949 1.680356,-1.378464 0.398884,0.286568 0.723031,0.593289 1.469996,0.582162 1.027864,-0.01512 3.635942,-0.599587 4.578571,-1.479653 0.72933,-0.680834 1.221009,-1.633329 1.809678,-2.391211 0.729541,-0.939269 0.698259,-1.606456 2.009121,-2.375676 0.716734,-0.420507 1.784276,-0.705606 2.519065,-0.732479 0.674535,-0.02477 1.177131,0.306092 1.889035,0.69826 0.677475,0.373273 1.077619,0.283627 1.469996,0.24017 m 3.149094,2.519274 c -0.915967,-0.900429 -0.633597,-1.899533 0.632968,-2.735511 0.690491,-0.455779 3.299829,-1.48973 3.956939,-0.305672 0.517081,0.931291 -0.813096,1.770209 -1.650755,2.161956 -1.358727,0.635278 -2.052158,0.697 -2.729213,1.089167 0.457249,0.601896 0.800079,1.183639 2.099395,1.469576 m -6.718065,-4.19879 c -0.902739,1.198545 -1.123596,1.771261 -3.149092,1.881268 -0.522959,0.02834 -0.965931,0.0055 -1.469576,0.155985 -0.789163,0.235762 -1.10806,0.326667 -1.679517,0.06214 M 155.26589,18.88576 154.63607,19.725517 M 44.627767,20.565276 c 0.201753,-0.407913 0.474044,-0.997632 1.260477,-1.07552 0.862852,-0.08524 1.294907,0.400985 1.888615,1.07552 m 1.889456,0.209939 c 1.2504,1.185528 2.29338,1.494769 3.988851,1.73641 0.864951,0.123235 1.35411,0.152416 2.309334,0.153046 m 8.817461,-0.839758 1.679515,0.839758 m -25.822559,-0.629819 0.209939,1.259637 m 573.974634,52.904757 1.59133,5.668367 0.94263,3.778911 0.52905,1.889455 0.46397,2.488204 -1.00771,0.594128 -2.51927,-0.353119 m -40.3084,-13.436128 c 0.34221,1.76811 0.52695,3.437969 0.98881,5.248487 0.20366,0.795042 0.26453,1.327239 0.3947,2.099397 0.42197,2.522632 1.33941,5.193063 1.76769,7.767761 0.19943,1.197914 0.48915,2.207093 0.61722,3.359031 0.0483,0.436464 0.23513,1.188049 -0.0146,1.609816 -0.62771,1.059985 -1.92934,0.183489 -3.33383,0.0697 M 462.82734,114.1983 c 2.16237,-0.006 4.35205,-0.41274 6.29819,-1.21177 2.56545,-1.05306 4.61447,-1.75069 6.71807,-3.65337 0.80826,-0.73227 1.82647,-1.73221 1.54094,-2.90241 -0.317,-1.30415 -2.15817,-2.37295 -3.22047,-2.99584 -0.96152,-0.56369 -1.79288,-0.92856 -2.7292,-1.46097 -0.66761,-0.3802 -1.24704,-0.735 -1.88946,-1.14711 -3.90698,-2.510877 -9.52497,-6.349412 -9.65513,-11.401395 -0.0168,-0.699729 0.006,-1.383502 0.12177,-2.099395 0.27292,-1.702399 1.0182,-3.550077 1.83066,-5.038548 0.3779,-0.692381 0.74319,-1.278113 1.26385,-1.886306 1.21555,-1.422971 2.72922,-1.980361 4.75933,-1.63543 1.15887,0.196713 2.37232,1.380352 3.05882,2.262938 0.51225,0.65711 0.87964,1.24725 1.34991,1.888617 m 153.0459,-0.83976 c 0.7138,1.864893 1.35201,3.866456 2.0994,5.038549 M 517.62155,82.497431 c 0.0756,3.655257 0.89225,6.922965 1.60183,10.496976 0.95314,4.793967 1.68582,9.912293 2.14139,14.695763 0.26663,2.79976 0.43878,6.16425 1.29533,8.39758 m 32.12074,-14.27588 c 0.50595,-2.725649 -0.96782,-6.585177 -2.02801,-9.657222 -0.62562,-1.817027 -1.82648,-5.435753 -2.33872,-7.137523 -0.21205,-0.707497 -0.31702,-1.088537 -0.46188,-1.469996 0.85866,-0.253817 2.89928,-0.195244 4.1988,-0.21078 2.00282,-0.02372 4.69214,-0.258435 6.08825,7.88e-4 m -16.79517,0.419879 c 1.16096,0.293286 1.51366,0.02393 2.51927,-0.120086 1.46958,-0.210569 2.4563,-0.453679 3.77892,-0.08985 m -146.1179,1.049697 c -1.52627,2.312063 -1.15257,7.011769 -0.75159,10.077096 0.0966,0.721142 0.0987,1.193717 0.18264,1.889455 0.15957,1.342773 0.26664,2.846361 0.44718,4.198792 0.17425,1.28797 0.25403,2.72606 0.41988,3.98885 0.0777,0.58972 0.11757,1.05242 0.12176,1.67951 0.0189,4.03924 -0.10496,9.17877 0.83977,13.01625 M 350.5097,85.436533 c 1.48848,3.143843 5.1834,7.152219 8.06588,10.496974 1.37091,1.589873 3.02103,3.569811 4.18199,5.248493 1.44229,2.08449 3.08402,4.18787 4.54729,3.77891 M 81.78706,85.646524 c 0.286777,1.544944 0.420299,7.778468 0.750744,10.287035 0.106439,0.808898 -0.115677,2.39667 0.215607,3.087581 0.334015,0.696159 0.921215,0.478451 1.552923,0.527368 1.029754,0.07978 1.847678,0.155774 2.729215,-0.076 0.951865,-0.250038 2.687854,-0.455778 3.095347,-1.658312 0.769849,-2.272174 -4.157221,-2.293799 -4.756808,-3.583038 -0.702248,-1.509884 1.950757,-2.508776 2.921098,-2.28645 m 284.048164,-6.088246 -0.78728,3.149092 -0.67181,4.61867 -0.39467,2.309334 -0.43669,5.248492 -0.0378,1.88945 -0.39888,4.19879 -0.12387,1.46958 -0.27921,2.09939 -0.28133,2.51928 -1.14626,7.55782 -0.27083,6.92801 m 27.50208,-41.35809 -0.3275,3.568972 0.58993,3.98885 0.39679,1.679517 0.27082,2.099394 1.58085,14.905707 0.21832,3.56897 0.41989,3.35903 M 132.38248,95.933559 c 0.32835,-1.76832 0.006,-2.229767 0.7012,-3.568971 0.45767,-0.881957 0.67957,-1.203583 1.31296,-1.798343 0.43227,-0.406022 0.85803,-0.535975 1.3222,-0.37516 0.95879,0.332544 0.63234,1.651384 1.3117,2.732571 0.1711,0.272502 0.40141,0.327087 0.61492,0.297274 1.37804,-0.193773 2.82431,-4.428043 4.18429,-5.265071 1.17336,2.237954 0.99597,4.743582 1.04971,7.347881 m -76.837862,6.29819 c 0,-1.28315 0.07915,-2.747062 -0.185587,-3.988855 -0.225475,-1.057885 -0.228625,-1.739558 -0.234502,-2.939153 -0.004,-0.852354 -0.271873,-1.858804 -0.137512,-2.729213 0.17614,-1.140602 0.673487,-2.211084 1.836762,-2.993318 2.163636,-1.454251 4.689838,1.020096 4.875425,2.993318 0.09363,0.996582 -0.20826,1.545574 -0.918275,2.308494 -0.94242,1.012748 -2.023398,1.477554 -3.136917,2.100235 m 52.064998,2.099395 c 6.3e-4,-0.824851 0.19273,-2.181271 0.49945,-3.148043 0.28132,-0.886575 0.63171,-0.887204 1.7742,-1.504006 0.98839,-0.533456 0.88846,-0.877547 1.92535,-0.993433 0.66677,-0.07474 1.22374,-0.04829 1.88925,-0.01449 0.79882,0.04052 1.82941,0.290976 1.86489,1.255017 0.047,1.28357 -1.24662,2.282673 -2.07504,2.932226 -1.19372,0.93591 -2.32718,1.735359 -3.98864,1.964194 -0.69616,0.09573 -1.27811,-0.204902 -1.88946,-0.130793 -1.08938,0.132472 -1.73284,0.619951 -3.14909,0.617852 -1.18427,-0.0021 -2.66917,-0.298534 -3.76989,-1.114778 -1.35767,-1.006871 -1.73347,-3.537271 -1.29448,-5.112237 0.17614,-0.632758 0.43688,-1.365447 0.77362,-1.885677 0.45725,-0.706026 0.88217,-0.984616 1.56154,-1.263416 m 504.48464,0.41988 2.09939,0.125334 5.2485,0.714423 M 94.593371,91.73477 c 1.087697,-0.347871 2.176442,-0.680834 3.358822,-0.775518 0.328136,-0.02645 0.994063,-0.0099 1.217439,0.422399 0.346821,0.670966 0.0017,1.089166 -0.528627,1.822695 -0.655222,0.906309 -1.437877,1.662091 -2.113882,2.519274 -0.437724,0.55487 -0.873767,1.076989 -1.24956,1.679516 -0.321416,0.515401 -0.682932,1.226676 -0.407702,1.858384 0.252558,0.579433 0.790842,0.649133 1.403025,0.648503 1.437666,-0.0013 3.02166,-0.559069 4.408734,-0.905679 0.72975,-0.182647 1.52038,-0.399514 2.30933,-0.545422 0.80113,-0.148428 1.05999,-0.05081 1.6073,-0.406654 0.46102,-0.299793 0.54941,-0.613232 0.70204,-0.859072 m 395.3161,-6.298185 c 0.48287,2.482744 1.35201,4.718181 2.51927,6.298185 m 116.30649,-6.298185 c 0.15746,1.164325 0.19945,1.716255 0.63192,3.359033 0.31491,1.194136 0.71169,2.338095 0.99722,3.56897 0.41357,1.776088 0.38838,3.489616 0.83345,5.248486 0.42198,1.66776 0.68441,2.6423 0.68651,4.40873 m 20.99394,-13.226186 c 0.0294,0.471943 0.0693,1.232973 -0.0273,1.889455 -0.0798,0.537654 -0.22043,0.919535 -0.39048,1.469576 -0.19525,0.635908 -0.26453,1.28483 -0.7222,1.821226 -0.57103,0.670339 -0.91954,0.616169 -1.48847,1.750899 -0.71169,1.41709 -1.3919,3.83958 -2.83209,4.68963 -1.82227,1.0751 -2.66622,-2.89969 -2.7187,-4.06296 -0.0525,-1.15656 -0.008,-2.463854 -0.008,-3.568976 m -43.03759,9.237336 c -0.13437,-2.5558 0.24143,-5.01314 0.41568,-7.55782 0.0924,-1.366496 0.084,-3.234748 1.0056,-4.336511 1.0497,-1.257537 2.75651,-0.471523 3.8272,0.34766 m 46.1867,0.20994 c 0.56684,-0.02918 0.82086,-0.434785 2.30933,-0.406862 2.07001,0.03884 2.7922,2.299467 3.14909,3.346014 M 76.748575,96.563377 76.412043,98.59958 74.43924,99.929338 72.632502,99.94088 71.919966,98.242889 m 512.672284,0 -0.83975,0.41988 c 0.52904,-0.857394 0.77047,-0.910718 1.7152,-1.578537 0.57733,-0.408122 1.11059,-0.535345 1.85377,-0.508473 0.6928,0.02498 1.30373,0.163544 1.54306,0.850255 0.30861,0.877967 -0.46818,1.94551 -0.95733,2.485055 -0.75368,0.828631 -1.79289,1.431161 -2.89507,1.476921 -0.71169,0.0294 -0.94263,0.004 -1.67952,0.004 0.30652,0.96089 0.76419,1.59344 1.47798,2.30031 1.07699,1.06775 2.96224,1.72801 3.98045,2.10842 m -10.28703,-8.607524 0.46186,1.679517 0.61302,3.568967 0.18476,1.67952 0.20993,3.14909 m 35.26984,-9.867153 c -0.55633,0.265363 -1.31212,0.425757 -1.95244,1.281681 -1.0392,1.387282 -2.01751,4.450922 -1.10007,6.275932 1.82647,3.63363 6.03366,0.82737 8.09106,0.83997 m -41.14814,-7.977705 h 1.67951 m -17.63492,9.867155 c 0,-1.63857 -0.32121,-2.78652 0.21625,-4.1906 0.36529,-0.95166 0.80826,-1.02702 1.25963,-1.69589 0.46187,-0.68252 1.0707,-2.003665 1.73619,-2.698144 0.77049,-0.801759 1.7488,-1.206102 2.86568,-0.465017 0.68441,0.45515 0.99511,1.118769 1.34362,1.911711 0.36739,0.84081 0.57732,1.44711 0.82295,2.30933 0.61304,2.14034 0.98463,3.61264 2.25266,5.03855 M 76.748575,98.662764 77.798273,99.71246 m 506.164157,-0.839757 -0.83975,2.309337 m 24.9828,-0.20994 c 0,0.83682 0.11337,1.85901 -0.12596,2.51927 -0.24143,0.66152 -0.64032,0.97622 -1.0266,1.46958 -0.40939,0.52233 -0.79148,1.14396 -1.3751,1.52374 -1.36462,0.88574 -3.11971,0.14234 -3.77682,-1.3138 -0.64242,-1.42339 -0.67391,-2.9612 -0.3401,-4.40873 0.14486,-0.62226 0.20154,-1.32451 0.81456,-1.66986 1.26384,-0.712745 2.14558,1.00771 2.471,1.8798 m 37.99904,-1.469579 c 0.55004,1.026189 0.56054,2.434039 2.31773,4.189769 1.18406,1.1809 2.62844,1.8441 4.19039,2.04774 2.03431,0.26516 4.12952,0.30043 5.66837,-1.4089 M 49.036559,100.55222 c 0.543115,-0.3907 1.089377,-0.581323 1.679517,-0.661521 0.678524,-0.09195 1.021565,-0.23849 1.679516,-0.06004 0.501125,0.136041 1.00897,0.417361 1.429898,0.729121 0.79777,0.59056 0.965512,1.2546 0.456618,2.07315 -0.628979,1.01191 -1.38581,1.49204 -2.516334,2.00912 -1.598061,0.73122 -3.811662,0.71904 -5.458428,0.54374 -0.717993,-0.0764 -1.38518,-0.50112 -2.099394,-0.37768 -0.985877,0.17068 -1.343194,1.09316 -2.309335,1.43389 -0.787903,0.27775 -1.611287,-0.13121 -2.098346,-0.87272 -0.864741,-1.31695 -0.631499,-2.91669 -0.630869,-4.18724 M 562.75855,99.922401 c 0,1.370899 0.0945,2.128789 0.62982,2.939149 m -551.091224,1.25964 c 0.546262,1.92536 -0.48643,2.48631 -2.099395,2.69038 -1.425279,0.18033 -3.5328627,0.0915 -4.4983746,-1.05558 -0.7925211,-0.94116 -0.572294,-2.39667 -0.5370242,-3.52426 0.026662,-0.84731 0.1303725,-1.26698 0.8366085,-1.67951 m 52.0649983,0.83976 c -0.176559,0.95543 0,1.22625 0.419879,1.67951 m -30.44123,0.62982 -0.386288,-0.45326 c -0.08629,-0.14989 -0.385449,-0.32225 -0.320998,-0.79399 0.09384,-0.68755 0.686922,-0.60022 0.851305,-0.48433 0.438144,0.30861 0.253396,1.11856 -0.144019,1.73158 m -10.916853,0 c 0.305882,-0.58762 0.656271,-1.16873 1.262786,-1.46055 1.17797,-0.56662 2.650696,0.58216 2.054677,1.88022 -0.641155,1.39568 -2.415563,2.03138 -3.737343,2.5008 -0.628768,0.22317 -1.622203,0.49378 -2.309335,0.40434 -1.129894,-0.14716 -1.482592,-0.83178 -1.889455,-1.22541 m 19.734313,-3.56898 c 2.875752,-0.054 1.988128,2.50017 -1.57e-4,3.40019 -0.72765,0.32939 -3.05462,0.54689 -3.565403,0.32267 -0.706656,-0.31029 -0.959843,-0.8154 -1.262997,-1.20358 l -0.453258,0.25256 c -1.53193,0.55361 -2.383444,-0.35648 -3.325653,-2.14202 m 605.6755,-0.62982 c 0.004,1.72214 0.10916,3.25302 0.83975,4.61867 m -585.941176,-3.98885 0.209939,1.67952 m -16.795161,-0.62982 v 0.62982 m 580.482748,-0.62982 2.93916,2.51927 m -125.54384,-2.00093 c 0.92584,-0.17509 2.61166,0.0525 2.85308,1.37427 0.50806,2.78547 -3.58366,6.85704 -6.2121,6.92149 -0.89016,0.0218 -1.61445,-0.0567 -2.28624,-0.67432 -0.7516,-0.69175 -0.99512,-1.52689 -0.84396,-2.47141 0.14486,-0.88973 0.58992,-1.8544 1.26383,-2.47141 0.84395,-0.77258 2.06161,-0.51162 2.87197,-1.06754 1.19665,-0.81919 0.45558,-1.2525 2.35342,-1.61108 m 60.88247,2.84069 c 1.94823,-0.37768 5.40803,-1.5737 7.97769,-2.09855 1.77609,-0.36278 3.29606,-0.55172 4.82861,-0.8406 m -65.71106,1.46958 c -0.98463,1.2928 -1.94614,2.20268 -2.26946,4.19879 -0.14065,0.8597 0.0714,0.98776 0.26243,1.6793 0.14907,0.54018 0.0672,0.91009 0.58783,1.25691 0.54164,0.36215 1.34781,0.27943 2.04902,0.24017 2.79428,-0.15703 5.21279,-1.21303 6.928,-1.28693 m 12.59637,-2.09939 c -0.57313,0.14968 -1.01191,0.32645 -1.88945,1.02177 -1.27644,1.01044 -3.31075,1.70093 -4.04344,-0.18306 -0.66342,-1.70723 0.56684,-4.44023 2.57385,-4.60524 1.47378,-0.12113 2.48778,0.18979 3.23308,1.26699 0.29181,0.42324 0.26032,1.87014 0.37369,2.49954 0.34219,1.91255 1.21975,2.40317 3.1113,3.35903 m -33.38038,-6.928 1.0497,0.41988 m -47.2364,0.41987 c 2.02592,0.18727 6.06515,2.39688 6.27929,5.45843 0.0588,0.82842 -0.002,1.39547 -0.43247,2.0994 -0.3569,0.58573 -0.72849,1.01673 -1.23025,1.34298 -1.15046,0.74445 -3.20787,0.0632 -4.19669,-0.52779 -0.46816,-0.28006 -0.90273,-0.40581 -1.26384,-0.90211 -0.37998,-0.528 -0.57732,-1.74019 -0.62561,-2.22242 m -51.43519,9.23734 c -2.3786,1.25355 -5.79012,1.67763 -7.64809,-0.84291 -1.44019,-1.95474 -0.76628,-4.9636 0.0106,-6.92485 0.49965,-1.26489 1.20505,-2.14873 2.18127,-3.14909 0.97622,-0.99764 1.7488,-1.76811 2.93705,-2.2831 1.0602,-0.45955 3.8041,-0.78181 3.93847,1.02451 0.18895,2.5304 -2.53607,3.49927 -4.35834,4.19774 m 45.7668,-5.03855 c 0.47866,1.08182 0.52905,1.36566 0.64032,2.30933 0.084,0.70351 0.15536,1.22983 0.38839,1.88946 0.21414,0.60463 0.45557,0.88175 0.66761,1.46958 0.3359,0.92856 0.11967,1.32849 1.04339,2.30828 1.40031,1.48532 3.19318,2.03054 4.80762,0.58363 0.98041,-0.88027 0.97411,-1.45215 1.48008,-2.26209 m -20.57408,-5.36942 c 1.67532,-0.2219 3.39472,-0.1944 4.32476,1.18217 1.78658,2.64272 -1.77609,6.60323 -4.53469,6.89379 -2.04691,0.2156 -4.1757,-0.31365 -5.06374,-2.4966 -0.45138,-1.10912 -0.3884,-2.93202 0.13226,-3.96093 0.87334,-1.71731 3.22256,-1.36398 5.14141,-1.61843 m 87.96466,0.33087 -0.20994,2.09939 m -12.59637,-1.0497 c -0.27923,0.64935 -0.31072,0.85887 0.20994,1.67952 m -62.56198,1.46958 c 0.0315,0.73668 0.0441,0.71967 0.20995,1.25963 m -31.91081,29.18159 c 0.16584,-0.30881 0.3695,-0.66257 0.40728,-1.26069 0.0336,-0.55319 0.0252,-1.27118 0.16585,-1.8884 0.55004,-2.43005 2.27365,-8.12004 5.72505,-6.71617 1.95664,0.79651 2.18127,3.21648 1.82857,4.82671 -0.19104,0.87462 -1.58294,2.75798 -1.42128,3.5379 0.11337,0.54018 0.53114,0.57061 0.85655,0.63297 0.46186,0.088 1.50946,0.25129 2.09519,0.44865 1.10218,0.37159 2.71033,0.83136 3.08192,2.30869 0.55634,2.21129 -1.19876,3.48668 -2.66204,4.55779 -1.31211,0.96005 -2.7523,1.60206 -4.19879,2.31794 -0.69069,0.34242 -2.75231,1.24558 -3.1491,1.24285 -0.676,-0.005 -0.98251,-0.28762 -1.19665,-0.99974 -0.36109,-1.21072 -0.6634,-3.33194 -0.84185,-4.59977 -0.16586,-1.16642 -0.31072,-3.19171 -0.69491,-3.98884 -0.34849,-0.72178 -0.6634,-0.88658 -0.96362,-1.46917 -0.20993,-0.40791 -0.45766,-1.02051 -0.71169,-1.46999 m 72.84901,-7.55782 c 0.3569,1.91402 1.0392,4.63525 1.0497,6.71806 0.008,1.77965 0.002,2.60619 0,4.19878 -0.002,1.44796 -0.14906,3.36492 -0.41988,4.82862 m -15.11565,-1.0497 c 1.28483,1.11394 3.09451,1.36292 5.03855,0.29497 1.43808,-0.79001 3.41152,-2.20121 3.67814,-4.07389 0.25402,-1.77944 -1.415,-2.67945 -3.04832,-2.87301 -1.44019,-0.17068 -4.50741,1.11793 -4.59768,-0.90905 -0.0357,-0.78768 0.65081,-4.03985 0.87545,-4.8244 0.16585,-0.57439 0.18265,-1.04088 0.81456,-1.17524 0.59833,-0.12743 1.18197,0.11904 1.64803,0.20616 1.60184,0.30001 3.1407,0.4837 4.61867,0.75809 m -13.01624,-0.41987 0.83975,0.83975 -0.83975,0.83976 c -0.18056,-0.62625 -0.23933,-0.85655 0,-1.67951 m -83.13605,14.48582 c -0.3674,-0.97559 -0.46187,-1.87708 -0.73688,-3.14909 -0.20366,-0.93591 -0.56684,-1.66315 -0.61304,-2.72922 -0.0336,-0.77929 0.21625,-1.21533 0.35061,-1.88946 0.22464,-1.14564 0.54584,-2.54341 1.23024,-3.56876 0.81037,-1.21134 1.7488,-1.84452 3.1281,-1.63479 0.79148,0.12051 1.44858,0.55886 2.03852,1.10302 1.24704,1.14857 2.4311,2.8197 2.72081,4.52041 0.17635,1.03585 -0.12596,2.1397 -0.697,2.93601 -0.69489,0.97244 -1.77609,1.82038 -2.80269,2.50038 -0.6865,0.45557 -2.34502,1.00729 -3.1491,1.24977 -0.78727,0.23744 -1.10218,0.39154 -1.28273,1.0856 -0.14065,0.53618 0.004,1.31884 0.0315,1.88546 0.0756,1.56069 0.43248,2.50206 0.62143,3.98886 m 82.29629,-19.1045 0.41987,5.24849 0.22884,4.61866 0.61092,2.51928 m -20.78401,-11.54667 -2.25475,2.93914 -0.96782,1.67952 -0.88175,1.67953 1.12738,1.88945 1.7362,2.30933 2.29043,2.72922 m -8.60767,-11.54667 c -0.23303,-0.35983 -0.52695,-0.46354 -0.41988,-1.46957 0.91533,0.60022 0.44087,1.04865 0.80826,1.88946 0.83766,1.90877 1.65013,2.64125 2.97065,3.98884 m -30.23129,-2.09939 c 0.76629,-0.55718 0.86915,-0.5427 1.46957,-0.62982 m -34.22013,0.20994 c 1.0266,1.1742 1.30582,1.51597 2.09939,1.88945 m 48.36797,-0.83388 c 0.41147,-0.26452 0.85235,-0.24331 1.38769,-0.19356 0.86915,0.0806 1.22396,0.32708 2.09941,0.90148 0.88174,0.57943 1.57664,0.98966 2.26523,1.68561 0.85026,0.86097 1.03502,2.27176 0.91324,3.4789 -0.13226,1.3199 -0.75158,2.48401 -2.12879,3.36534 -0.73898,0.47237 -1.61863,0.7413 -2.51927,0.53639 -0.67391,-0.15305 -1.12947,-0.35794 -1.59763,-0.73059 -0.48287,-0.38523 -0.81037,-1.11519 -1.0329,-1.70155 -0.24774,-0.64768 -0.33592,-1.23256 -0.42828,-1.88946 -0.17005,-1.18784 0.0189,-1.96357 0.13856,-3.35904 0.0777,-0.88301 0.20784,-1.64509 0.90274,-2.09352 m -12.04843,1.25377 1.88945,-1.04971 m -24.29839,1.27917 c 0.51224,-0.27649 1.11898,-0.14549 1.50736,0.1711 0.60043,0.49043 0.34851,1.00204 1.19035,1.36313 1.47378,0.63151 4.1694,0.76986 5.19391,2.43594 1.23445,2.00365 -0.64032,4.38144 -2.48778,5.42105 -1.29533,0.72807 -3.04832,0.91828 -4.40873,0.32017 -0.60253,-0.26495 -1.09589,-0.63297 -1.50947,-1.18406 -0.52275,-0.69869 -0.76838,-1.54306 -0.79567,-2.45861 -0.0168,-0.51771 -0.004,-0.93885 -0.004,-1.46957 0,-0.52464 -0.002,-0.91953 0,-1.46959 0.006,-1.01211 0.18056,-2.51653 1.31423,-3.12956 m 0.78518,-0.0195 c -0.26453,0.7518 -0.49337,1.21976 -1.46959,0.83977 m 47.65627,0 c -1.13576,1.49308 -2.3891,3.74322 -3.35902,6.71805 m -43.03761,-6.08823 h 1.25963 m 137.09051,13.22619 c 1.29953,0.13708 4.97137,-1.88988 6.15123,-0.32877 0.50806,0.67117 -0.18895,1.62514 -0.51225,2.21822 -0.64452,1.18406 -1.66483,2.78673 -2.07001,3.98884 l 0.20994,0.20994 1.0497,-0.41987 -0.41988,-1.0497 m -19.10445,-4.19879 c 1.63753,0.12933 4.12531,0.86159 5.66837,1.0497 m 3.77891,0 c 0.37789,1.34214 0.59833,2.86587 0.81247,4.40872 0.43248,3.11214 0.44717,7.02017 0.44717,9.65722 M 498.72693,161.0148 c -0.49546,0.79715 -2.41641,4.16604 -1.87476,4.9086 0.31702,0.43269 0.87126,0.19293 1.24494,0.0968 0.59203,-0.15201 1.4087,-0.39532 2.09939,-0.33947 1.59135,0.12826 3.75583,1.28797 4.57039,2.68217 0.82716,1.41542 0.51225,3.11362 -0.59203,4.1757 -0.61301,0.58741 -1.10008,0.80596 -1.87895,0.8534 -0.65921,0.0401 -1.23235,-0.004 -1.88946,-0.11987 -1.56406,-0.27712 -2.39121,-0.70078 -3.56897,-1.76034 m -53.74453,-10.28703 c -0.20154,0.34051 -0.79566,2.32507 -0.18894,3.3204 0.64241,1.052 1.96503,1.35621 -0.021,2.76783 l -0.20993,-2.30932 m 43.45747,-3.77891 c -0.0861,1.08034 -0.3443,3.40039 -0.14906,5.03855 0.0861,0.74507 0.13437,1.35368 0.14906,2.09939 0.0106,0.44591 -0.10707,1.13745 0.48706,1.42402 0.45767,0.22149 0.93213,-0.0995 1.19246,-0.26495 0.49545,-0.31575 1.07699,-0.87608 1.67951,-1.24095 0.85446,-0.51645 1.60394,-0.70351 2.30934,-1.01947 0.96992,-0.43478 1.35831,-0.74508 2.72921,-0.36822 m -52.065,-3.1491 c -0.19314,-0.22443 -0.52064,-0.38567 -0.74738,-1.04257 -0.17216,-0.50111 0.44927,-0.79609 0.74738,-0.84688 v 0 m 20.57407,0 c -0.43667,1.47839 -0.10077,2.5707 -0.57104,4.19878 -0.25193,0.86874 -0.54794,1.3264 -1.52835,1.25963 0.68021,-0.51875 0.49126,-0.38648 1.04969,-0.62981 m 19.10451,-4.40873 0.54164,2.51927 0.51854,3.35904 1.24915,5.03855 m 7.9777,-10.91686 c 0.0798,1.85229 0.41988,3.54945 0.41988,4.61868 m -36.73942,-4.1988 c 2.08051,1.54074 3.54169,2.99857 5.66836,4.61866 m -41.77795,-4.19877 c 0.62772,2.10715 0.65501,4.14294 1.15466,6.29818 0.29183,1.25586 0.60253,1.48804 1.57455,2.09939 l -0.62982,0.83975 -0.41987,-1.25963 m 28.13188,-7.97769 -0.11966,2.09938 0.18264,1.46958 -0.0441,1.46958 0.77888,3.56896 0.51435,3.56898 -0.26243,1.88946 m 73.05895,-12.17649 c 2.04691,-0.62163 5.74395,-0.87776 6.19112,2.09939 0.17425,1.16076 -0.063,2.31249 -0.3464,3.35903 -0.24143,0.89099 -0.65081,1.74187 -1.17356,2.51927 -0.89014,1.32451 -2.16448,2.69018 -3.41152,3.56898 m -155.98506,-8.39758 c -0.79987,-0.008 -1.45697,0.1986 -1.82227,-0.66027 -0.17635,-0.41168 -0.008,-1.04003 0.26662,-1.41624 0.3569,-0.48896 0.94473,-0.85488 1.54726,-0.68398 1.13577,0.32184 2.01121,2.16446 2.49199,3.18036 1.10848,2.33978 2.01542,5.02029 2.12667,7.55782 0.0672,1.52837 -0.14486,3.09515 0.21835,4.61868 m 48.70596,-9.44727 c 1.91464,-2.30368 5.13092,-4.82945 7.55782,-5.2485 m 14.90571,0.62982 c 0.85025,1.10429 1.22394,2.47162 1.80337,3.77891 1.02872,2.31878 1.58296,5.64254 3.86499,6.29818 m 12.80631,-9.65721 -2.30933,10.28703 m -17.42498,-10.0771 c 0.0525,2.50837 0.55215,5.33983 0.80407,7.97771 0.13436,1.40953 0.0357,2.39541 0.0357,3.35903 m 5.2485,-11.12679 c 0.30441,0.59811 0.3254,0.61554 0.20994,1.25964 m 42.40779,-1.25964 0.2981,1.67951 -0.0882,4.40873 m -125.75377,-5.8783 c -0.55003,0.98861 -0.87965,2.4416 -0.83136,3.56898 0.0315,0.76208 0.0882,1.66628 0.38628,2.51927 0.21625,0.61995 0.3653,0.84857 0.43669,1.46957 0.0756,0.64032 0.17844,1.06608 0.35059,1.67952 0.16586,0.58447 0.29182,1.25816 0.28553,2.09939 -0.0106,1.52668 -0.50386,1.22311 -0.62773,2.93916 m 95.31253,-14.06596 0.83977,0.62982 m -51.43518,5.03855 c -0.66341,2.24363 0.0231,2.85161 0.62981,3.56898 0.34431,-0.37223 0.82297,-0.66867 0.96363,-1.47 0.11127,-0.62037 -0.0504,-2.47687 0.50385,-3.35756 1.28274,-2.03137 3.11131,-1.33816 4.41083,-0.84081 m 3.77891,0.83975 0.53745,2.20248 2.82159,1.45551 5.03855,2.85015 m -22.88342,-3.56898 c 0.24983,0.84816 0.34851,2.02361 -0.006,2.729 -0.58992,1.17419 -2.16867,2.13635 -3.77261,1.83194 -1.035,-0.1965 -1.95033,-0.85173 -2.48988,-1.83257 -0.49126,-0.89139 -0.45556,-2.21423 -0.44926,-3.14825 0.004,-0.74465 -0.0924,-1.51051 0.66131,-1.73997 0.57313,-0.17489 1.08117,0.23281 1.40029,0.5282 0.60672,0.56431 1.14627,1.63019 1.50736,2.4714 m -25.82256,1.88946 c -2.60954,-0.82443 0.63402,-5.24344 2.48778,-4.01046 1.53046,1.01841 -1.7257,3.16735 -1.89994,4.21956 -0.18476,1.10953 1.352,1.7127 1.93143,2.10024 m -14.69576,-6.50812 c -0.42407,0.47635 -1.0035,0.83325 -1.0455,2.30932 -0.0231,0.75369 0.0903,1.45909 0.20575,1.88946 0.13226,0.49546 0.22253,1.21136 0.36109,1.67637 0.23094,0.77425 0.60883,1.03396 1.10848,1.47272 m 24.98281,-6.29818 c 1.05389,0.0248 1.86845,0.33402 2.72921,1.03605 0.50595,0.41401 0.91744,0.72807 1.23024,1.28147 0.55214,0.97958 0.31491,2.30597 -0.81456,2.89339 -0.7285,0.37852 -2.7607,0.23429 -3.35484,0.0584 -0.51855,-0.15347 -0.82295,-0.43102 -1.46118,-0.36509 -0.88175,0.0913 -1.00771,0.83345 -2.10778,1.0688 -2.33454,0.49965 -4.28277,-3.03761 -3.98886,-4.92329 m 37.99906,-1.0497 c 0,1.2124 0.34849,2.2029 0.41987,3.77891 m 11.12679,-3.56896 c 0.44088,0.63211 0.81038,1.19728 1.17776,1.88945 0.80827,1.52101 1.29534,3.38213 1.33102,5.03855 0.0294,1.41709 -0.15746,2.23019 -0.82925,3.56896 m -46.18671,-9.23733 0.83977,2.93915 m 22.25358,-1.88946 0.41989,1.67952 m -4.82861,-0.62982 1.25963,1.04971"
       id="path45881"
       sodipodi:nodetypes="ccsccccsccccccccccccccsccccccccccccccccccccscsccsccccccccccccccccccccccccccccccssccccccccccccccccsccccsccccccccccccccccccccccccccccccccccccccscccccsccccsccccccccsccccccccscccccccccccccccccccccccccccccccccccccccccsccccccccccccccccccccccccccccccccccscscccccccccccsccccccccccccccsccccccccsscccccccccccccccccccccccccccccccccscccccscccccccscccccccscccccccccccccccccsccccccccccccccsccscccsccccccccccsccccccccccccccccsccccccsccccscccccccccccccccccccccccccccccccscscccccccccccccccccccscccccccccccccccccccccccccccccccccccccccccsccsccccccccccccccccccccccccccsccccccccccccccccsccccccccccccccccccccccccccscccccccccccccccccccccccccccccccccccccccccccccsccccccccccccccccccsccccccccccccccc" /><path
       style="fill:none;stroke:#010101;stroke-width:0.162406"
       d="m 72.253779,37.54607 c 1.877293,4.246736 1.615636,7.679477 1.368132,13.280111 2.222617,-3.7664 -2.619577,-12.518128 -0.291146,-16.100945 0.446275,-0.57726 1.056585,-0.82778 1.535047,-0.838564 0.567208,-0.01277 1.365031,0.321809 2.047892,0.70834 0.363982,0.205991 0.496476,0.222418 0.806275,0.584763 1.192879,1.394919 1.300275,3.244815 0.319454,4.705229 -0.780983,1.162863 -1.084668,1.964691 -2.112244,2.843437 -0.282448,0.241516 -0.592986,0.502488 -0.90296,0.653649 -1.9071,1.419945 -0.777316,3.496656 0.445216,3.708755 2.048129,0.601657 3.88687,1.482603 5.70508,2.559271 m -48.579089,-8.830612 1.377087,0.570761 1.160997,0.133254 c 2.507438,0.110077 4.863949,-0.198995 7.252933,-0.897957 M 121.56329,29.098871 c 0.45354,5.975144 2.59232,11.819726 3.1805,16.9568 m 3.4242,-16.441071 c -0.42898,2.841714 0.19931,5.646892 0.84528,8.404262 0.80607,-0.459394 1.98253,-0.341707 3.79254,-1.109544 m -87.803036,3.0157 c 0.375451,2.147435 -2.447805,7.477398 1.951322,5.354458 0.764074,-0.319897 1.766294,-0.969604 2.154268,-0.449437 0.254286,1.852185 0.233779,3.814241 0.55814,5.330861 0.145519,0.662007 0.282028,1.321994 0.71602,1.87691 M 158.12857,40.739552 c -0.64209,0.128937 -1.4644,0.567368 -2.0757,1.557736 -0.1701,0.275432 -0.0927,0.344818 -0.16445,0.674024 -0.0955,0.43757 -0.24463,0.92165 -0.087,1.319025 0.27639,0.697334 1.06333,0.964191 1.69847,0.750224 1.37244,-0.714762 2.21338,-2.705084 2.46198,-3.275115 1.23721,-1.80131 0.77126,-4.386008 0.7992,-6.576205 0.24076,-2.079222 -0.40545,-4.574374 -0.6593,-6.627283 -0.0584,-0.486845 -0.43532,-2.263774 0.28078,4.382731 0.95594,3.822523 0.44957,7.989366 1.76434,11.728936 l 0.74847,1.709445 M 49.572592,40.521451 c -1.047127,1.461447 -0.08631,2.862275 -0.464228,4.308592 m -33.11729,0.04972 c 1.311313,0.07406 2.624708,-0.3258 3.895763,-0.249551 0.318395,0.02318 0.538535,0.03657 0.81915,0.01075 0.684707,-0.063 2.882213,-0.238328 3.118583,0.770637 0.07502,0.320175 0.02549,0.469877 -0.03758,0.822377 -0.158514,0.88574 -0.622134,1.711285 -0.992132,2.409101 -0.364287,0.687069 -0.812737,1.319444 -0.08593,1.782281 0.232173,0.147968 1.881218,0.39689 2.52197,0.569752 0.962595,0.259518 2.470296,0.520828 3.376579,0.875924 0.353077,0.138367 0.417433,0.201637 0.703064,0.406328 0.302995,0.217163 0.451058,0.319612 0.668721,0.574009 0.208932,0.244323 0.258104,0.363709 0.29237,0.619187 0.10774,0.803133 -0.384998,1.740498 -0.688925,2.209133 -0.508607,0.784366 -1.523393,2.005385 -2.339141,2.543483 -1.143617,0.754439 -2.547882,1.011007 -3.060483,0.394689 m 11.396939,-3.16739 c 0.852422,0.05355 1.424764,-0.127631 2.060745,-0.547203 0.266158,-0.175563 0.454096,-0.31459 0.74494,-0.607449 0.340013,-0.342444 0.586488,-0.54297 0.817011,-0.915941 0.239412,-0.387451 0.532815,-0.969657 0.678155,-1.389974 0.456345,-1.319187 -0.253801,-2.840547 -1.540562,-3.522749 -1.189102,-0.63037 -3.24545,-0.524823 -4.59559,-0.129829 -0.956822,0.279955 -2.179201,1.135601 -2.843282,0.613873 -0.951345,-1.024953 1.316364,-5.176256 1.898154,-5.761975 m 24.729025,-2.477793 c -6.022049,6.171354 3.109101,5.068633 3.663929,8.720191 0.44912,1.462468 -1.791604,4.63607 -2.804508,2.299507 -0.338643,-1.983788 -0.165705,-3.980798 0.439316,-6.10488 0.966429,-3.173642 2.221419,-3.921982 5.067368,-5.024731 m 82.404647,-9.669521 c 2.54097,2.579894 1.2907,9.093039 1.30772,12.797735 0.64258,-3.965676 -0.4919,-11.435869 -0.34836,-14.280348 0.0382,-0.523922 0.0651,-1.036893 0.36339,-1.51576 0.27646,-0.444044 0.62861,-0.884322 1.17272,-0.904121 0.60438,-0.022 1.05456,0.08737 1.52222,0.417047 0.49212,0.34699 0.60861,0.46986 0.86868,0.877147 0.13334,0.209 0.1761,0.364659 0.29237,0.619187 0.23405,0.512188 0.29907,0.51701 0.31609,1.270634 0.0118,0.523857 -0.0373,0.860762 -0.11395,1.322246 -0.0656,0.396292 -0.06,0.598512 -0.17943,1.002976 -0.0847,0.286603 -0.30031,0.735757 -0.44822,1.03523 -0.44231,0.895164 -0.5343,1.097746 -1.3802,2.128544 -0.62246,0.758451 -0.91429,0.784159 -1.19964,0.9074 -0.79632,0.117286 -0.712,1.520516 -0.22133,2.016578 0.41998,0.376991 0.58328,0.03406 1.33613,0.684788 0.77291,0.66799 1.00491,0.765108 1.65238,1.273783 0.5689,0.446958 0.80109,0.538985 1.21053,0.999694 0.58835,0.662164 0.88919,1.696629 1.49214,2.438027 m -55.611327,2.749946 c -0.01134,0.180646 -0.211913,0.399863 0.254797,0.759955 0.232392,0.179524 0.538231,0.259599 0.848182,0.25265 0.503105,-0.01127 0.809228,-0.142806 1.396398,-0.631025 0.43398,-0.360912 0.46375,-0.727454 0.45257,-1.226648 -0.0119,-0.530493 -0.20819,-0.93582 -0.7655,-1.380246 -0.32542,-0.259453 -0.548299,-0.385647 -0.880432,-0.521281 -0.902839,-0.368601 -2.942562,-0.559179 -3.563657,-1.071677 -0.706991,-0.583484 4.25e-4,-1.77055 0.677137,-2.534859 0.593598,-0.670507 1.738245,-1.135424 2.141334,-1.238486 M 126.8977,38.109291 c 1.20663,-0.144845 1.25923,-0.05543 2.11558,-0.09039 m 7e-5,-8e-6 c 0.61528,2.915838 0.58892,6.155452 0.884,8.726755 m -24.19641,-0.839274 c -2.11241,-0.866848 -4.01991,-2.755037 -3.4953,-3.649339 0.82577,-1.820722 4.98509,-1.338504 3.35588,0.703475 -0.32549,0.519617 -1.92271,1.123901 -2.16755,1.048389 M 89.533498,45.70241 c 0.155256,-0.186463 1.296005,-1.267045 1.615648,-1.529837 0.67921,-0.558177 1.678408,-0.505562 2.621913,0.03972 0.470697,0.27195 0.778357,0.303224 1.164259,0.841677 0.114146,0.15936 0.175225,0.313798 0.265597,0.622401 0.136686,0.467271 0.07115,0.562491 0.03552,0.977162 -0.05001,0.580802 -0.417769,1.087357 -0.820213,1.570608 -0.695268,0.834588 -2.558328,1.619607 -3.757052,1.405114 -0.757898,-0.135565 -1.327049,-1.245453 -1.44598,-1.598388 -0.257984,-0.98087 -0.01722,-1.321045 0.320313,-2.328455 z m 29.366712,0.727646 c -1.97491,0.331253 -2.94697,-0.05445 -4.20978,-1.457514 -0.96611,-2.446355 0.0595,-3.349448 2.02941,-4.442007 2.54569,0.03783 1.12471,3.293538 -0.15977,3.844328 m -30.596444,5.654482 c -0.381057,0.338537 -0.560059,0.381615 -1.083565,0.511853 -0.644523,0.160351 -1.19196,0.153811 -1.654419,-0.155868 -0.81752,-0.547635 -1.0553,-1.644142 -0.981629,-2.49931 0.03499,-0.405759 -0.02233,-0.467096 0.255871,-0.821255 0.556365,-0.708147 0.869555,-1.197697 1.27703,-1.625434 0.828913,-0.531584 2.161148,-1.059327 3.012086,-0.797827 3.652063,1.084026 0.504973,4.196587 -0.825374,5.387841 z m 22.674624,-5.966007 0.13549,1.128731 c 0.10046,0.836888 0.0539,1.287381 1.05463,1.97252 1.38801,0.950575 2.598,-0.500141 3.12704,-1.656626 0.69458,-1.885627 0.49837,-2.791959 0.28796,-3.960292 M 47.035579,65.03466 c 0.403969,2.463463 0.670557,4.943443 1.21289,7.378697 0.499338,2.064834 0.185787,4.314542 0.413002,6.166138 m 4.881312,-9.536575 c -0.747318,0.470501 -1.150807,0.872747 -1.802716,1.334084 -0.640147,0.453056 -2.263737,1.461565 -2.740008,2.155518 -1.082087,1.6084 -0.152364,1.995673 0.343941,2.412288 0.195112,0.170086 0.532287,0.524804 0.688085,0.735255 0.507625,0.685934 1.370741,1.988223 1.995231,2.541218 0.373909,0.330994 0.604278,0.447288 0.876093,0.712687 0.514887,0.502512 1.019599,1.06874 1.691084,1.596291 m -31.905178,-11.538184 0.819149,0.01076 1.296433,-0.101137 4.714908,-0.238842 1.947885,-0.12474 1.154538,0.07945 m -4.30428,1.28111 c 0.180136,0.352468 0.446351,0.809101 0.672938,1.064227 0.305998,0.344394 0.479788,0.400893 0.822395,0.719134 1.080268,1.003229 1.798975,2.128524 2.568355,3.453843 0.20807,0.358437 0.205781,0.39796 0.258029,0.786881 0.04437,0.330984 0.174615,0.744722 0.162423,1.12551 -0.01799,0.556012 -0.150714,1.347105 -0.378375,1.844712 -0.318763,0.696637 -1.267872,1.363765 -1.83495,1.746879 -0.542704,0.366776 -0.80361,0.369137 -1.580213,0.462361 m 55.837113,-3.594892 c 0.752597,-3.842517 -0.175724,-12.869659 2.505279,-13.195591 2.153579,0.913314 1.610852,5.118284 1.815935,6.951851 1.718435,4.882797 2.986105,-11.330148 3.889145,-4.392569 0.286838,2.874195 0.341413,5.996819 2.438415,8.049437 m 2.00647,-8.929868 c 0.620801,-0.07452 0.61842,-0.01808 1.144853,-0.0012 0.830402,0.02676 1.39669,-0.132611 1.93821,-0.205361 0.44903,-0.05984 0.50507,-0.163874 1.10939,-0.296743 0.50247,-0.110505 0.56731,-0.06095 0.96104,-0.169854 0.85428,-0.237494 1.31937,-0.06134 1.98013,0.143917 m 19.34239,-2.629321 c -0.4736,1.448611 -0.19926,2.823115 -0.0535,4.095722 0.77003,3.243217 -0.32054,6.274067 -0.0298,8.836449 m 13.38309,-13.874397 c 1.66936,-0.22114 3.29952,-0.600184 4.97934,-0.761297 l 0.80188,0.09462 0.11726,1.430748 -0.47516,1.038476 -1.42211,2.460716 -1.09642,1.767336 -0.52886,1.04491 -0.59013,1.215835 -0.36003,0.861085 -0.006,1.309333 0.88365,0.54822 c 1.93959,-0.287309 3.8708,-0.598683 5.74687,-1.180573 m -86.77739,7.472571 c 2.47911,-0.568298 2.392208,-2.744934 0.828669,-3.997873 -0.787936,-0.753062 -2.498997,-1.4804 -2.420951,-2.680998 0.359178,-1.134081 2.077522,-1.335168 3.101262,-1.190134 m 74.89046,1.151488 c -0.92057,-2.35121 -1.02442,-3.818416 -1.80807,-5.964575 -0.97152,-3.032699 -0.57727,-2.994306 -0.10838,-0.991829 0.0232,0.784222 -1.33741,2.143066 -2.17319,2.173757 -0.73684,0.396744 -2.41449,0.962077 -2.94441,0.692563 -0.60699,-0.32004 -0.5705,-0.664653 -0.63536,-1.204996 -0.0459,-0.382634 -0.0919,-0.426674 -0.0431,-0.812685 0.0708,-0.560228 0.34068,-1.307103 0.73521,-2.051117 0.21807,-0.411224 0.36281,-0.555856 0.65901,-0.869648 0.36524,-0.38701 1.21222,-0.663544 1.87367,-0.742946 m -12.64236,1.21351 c 0.14934,1.244026 -0.0945,2.881887 1.57442,3.332058 0.93278,0.251484 2.33031,-0.01572 3.41202,-0.19154 0.41265,-0.06706 0.66484,-0.07981 1.07505,-0.129051 m 31.14223,-5.374075 c 1.21552,0.07639 1.27629,-0.153208 2.25747,-0.27099 0.57857,-0.06945 1.53457,-0.357595 2.23812,-0.432238 2.17476,0.148247 0.29518,2.150252 -0.19334,3.158393 -0.0813,0.185105 -0.1839,0.535201 -0.0408,0.795435 1.03147,0.992361 2.95196,-0.195591 4.02481,0.825424 0.57691,0.615789 0.47501,1.55073 0.16345,2.270382 -0.23847,0.550587 -0.59006,0.936947 -0.97387,1.425484 -0.66462,0.845954 -1.26526,1.33925 -2.08004,1.749153 -1.08352,0.544884 -1.63095,0.742921 -2.68638,0.785876 M 39.926596,76.520172 c -1.041617,-0.66945 -3.253486,-1.408 -4.323151,-0.435156 -2.409209,3.224002 4.657584,4.162336 4.552278,1.132834 -0.04571,-0.366505 -0.0692,-0.261191 -0.243596,-0.02476 0.480382,1.977492 0.709189,2.288219 1.196647,3.002862 M 102.49882,67.863913 c -0.0318,2.72551 -1.28148,7.539293 0.29707,9.287924 l -1.864,0.823581 -1.444781,0.227921 M 43.217587,75.470845 c -0.213215,0.63703 -0.370124,1.232131 -0.554607,2.193008 -0.179024,0.932755 0.07148,1.817703 1.112712,2.456261 0.685448,0.420376 0.8835,0.24841 1.815675,0.136511 m 25.222796,-7.493369 c 0.11896,0.881746 0.08987,1.848781 0.199008,2.639072 0.591353,7.844364 1.356953,-2.960571 2.786716,-2.702971 0.519351,0.196257 0.704434,0.649385 0.897722,1.119016 0.210387,0.511263 0.443625,1.421353 0.581533,1.893055 0.119785,0.40895 0.275216,1.190358 0.438996,1.576358 M 147.90625,63.231032 c 0.75437,-0.23467 1.32948,-0.301417 2.09947,-0.224718 2.23005,0.482223 5.46182,1.874398 4.27117,4.694259 -0.33515,0.774012 -0.68485,1.448683 -1.33294,2.068398 -0.31563,0.301724 -0.70064,0.537848 -1.05131,0.780484 -0.59887,0.414076 -0.98606,0.607447 -1.54797,0.731005 -0.53308,0.117161 -0.804,0.08815 -1.14487,0.0012 -0.35443,-0.09109 -1.73284,-0.536568 -2.03936,-1.091085 -0.17825,-0.322589 -0.33587,-0.876656 -0.35044,-1.102928 -0.0312,-0.487465 -0.1018,-0.86485 0.12136,-1.486718 0.44335,-1.236664 0.91414,-1.549813 2.11019,-1.725447 m -83.136301,9.189223 c 0.270831,0.08003 1.024469,0.471599 1.389974,0.678159 0.701242,0.396555 0.713274,1.078674 0.709585,1.82321 -0.0025,0.517668 -0.07608,0.711176 -0.509507,1.206158 -0.345386,0.394448 -0.759943,0.581937 -1.231909,0.638592 -0.383126,0.04599 -0.48436,-0.0029 -0.828836,-0.09139 -0.315923,-0.08094 -0.832463,-0.163905 -1.163089,-0.378252 -0.300487,-0.194884 -0.454586,-0.404895 -0.62794,-0.688004 -0.374279,-0.898691 0.09073,-2.800596 0.643895,-3.266949 0.358511,-0.287903 1.219628,-0.03923 1.617827,0.07848 z m 13.386915,1.14642 c 0.09401,0.783177 0.158417,1.691121 0.167812,2.760572 0.0046,0.518623 0.06531,0.583471 -0.187001,1.167443 -0.271477,0.627178 -0.173785,1.077205 -0.993234,1.264237 m 24.516099,-4.251524 2.18005,-0.91598 1.41252,-0.496714"
       id="path14938"
       sodipodi:nodetypes="ccccccccccccccccccccccccccccccccccccccccssccccccccccccsccccccccccccccccscccscccccccsccccccccccccccccccccccccccccccccccccccsccccscccccccccccccccccccccccsccccccccccccsccccccccccccccccccccccccccccscscccccccscccccscccccccccccccscccccccccccccccccccccsscccccccscccc" /></g></svg>
