<?xml version="1.0" encoding="UTF-8" standalone="no"?>
<!-- Created with Inkscape (http://www.inkscape.org/) -->

<svg
   version="1.1"
   id="svg58476"
   width="4353.3335"
   height="1645.3333"
   viewBox="0 0 4353.3335 1645.3333"
   sodipodi:docname="NathanC - Pulsz - Envelope 46.svg"
   inkscape:version="1.2 (dc2aedaf03, 2022-05-15)"
   xml:space="preserve"
   xmlns:inkscape="http://www.inkscape.org/namespaces/inkscape"
   xmlns:sodipodi="http://sodipodi.sourceforge.net/DTD/sodipodi-0.dtd"
   xmlns="http://www.w3.org/2000/svg"
   xmlns:svg="http://www.w3.org/2000/svg"><defs
     id="defs58480"><pattern
       id="EMFhbasepattern"
       patternUnits="userSpaceOnUse"
       width="6"
       height="6"
       x="0"
       y="0" /></defs><sodipodi:namedview
     id="namedview58478"
     pagecolor="#ffffff"
     bordercolor="#666666"
     borderopacity="1.0"
     inkscape:pageshadow="2"
     inkscape:pageopacity="0.0"
     inkscape:pagecheckerboard="0"
     showgrid="false"
     inkscape:zoom="6.4347797"
     inkscape:cx="104.9764"
     inkscape:cy="53.692591"
     inkscape:window-width="1920"
     inkscape:window-height="991"
     inkscape:window-x="-9"
     inkscape:window-y="-9"
     inkscape:window-maximized="1"
     inkscape:current-layer="g58482"
     inkscape:showpageshadow="2"
     inkscape:deskcolor="#d1d1d1" /><g
     inkscape:groupmode="layer"
     inkscape:label="Image"
     id="g58482"><path
       style="fill:none;stroke:#484237;stroke-width:0.207044"
       d="m 79.773249,17.55284 c 0.345557,-1.142058 0.680142,-1.196552 1.656356,-1.138103 1.544552,0.09247 2.917258,0.864079 3.519757,1.345147 -1.156757,1.037501 -2.271485,1.725717 -4.329301,0.910375 -0.618856,-0.245347 -1.265249,-1.077873 -1.660705,-1.531509 -0.427961,-0.490591 -0.683868,-0.742295 -0.808716,-1.449311 -0.107662,-0.609374 0.13458,-1.423762 0.165015,-2.070444 0.106629,-2.27012 -0.478479,-6.8422218 0.0083,-8.4888263 l 3.312714,1.0352228 M 27.183938,17.345796 c -0.537695,-0.35854 -1.184295,-0.69155 -1.531509,0.04824 -0.192345,0.409742 0.08427,1.248066 -0.603742,1.571676 -0.843293,0.396697 -1.353656,-1.229844 -1.842903,-2.034006 C 22.158553,15.21011 20.363268,14.066211 18.695112,13.090845 17.780596,12.556131 16.731501,12.127549 16.061298,11.33256 15.388404,10.534548 14.87162,9.7365575 15.363352,8.4540822 15.854254,7.1739673 17.959275,6.1675446 19.1092,5.7677624 c 0.719481,-0.2501718 1.332746,-0.4518126 2.070446,-0.3789328 0.840186,0.082963 2.337947,0.8026701 2.442712,1.4194351 0.109526,0.6443225 -0.145345,0.9044326 -0.579311,1.6346164 M 90.125476,6.5794804 c 0.05507,1.5291688 -0.124848,1.7534809 0.05901,3.3127124 0.152591,1.2936762 0.233753,3.8685442 0.562126,4.9690692 0.68718,-0.372474 1.403554,-0.432538 2.691578,-0.916214 1.180982,-0.443428 2.04353,-0.788612 3.105668,-1.310799 1.037087,-0.509889 2.037733,-0.999611 2.898624,-1.292745 m 33.334168,0 c -0.52838,0.844991 -1.71578,2.654849 -2.3572,3.242897 -0.51803,0.474898 -1.11473,0.447735 -1.05034,-0.356571 0.0855,-1.06508 1.21846,-2.263453 1.81288,-3.09337 1.10272,-1.5397488 3.01519,-4.3436906 4.90737,-4.1408905 M 90.539564,7.6147031 c 0.755092,0.3878772 1.23295,0.8803118 1.449313,1.8634007 M 153.4811,9.0640147 c -0.60146,1.6538713 -0.45135,1.4956893 0.14721,2.8986233 0.38365,0.89965 1.05428,1.674596 1.50915,2.070445 m -87.579838,5.383158 c 0.477031,0.569579 0.982219,0.912859 1.863401,1.08305 0.80561,0.155489 4.252693,0.720928 4.276296,-0.881388 0.0118,-0.797123 -1.246615,-1.351381 -1.791762,-1.669194 -1.571676,-0.916235 -4.551875,-1.185185 -5.500346,-2.924504 -0.688008,-1.261604 0.149693,-2.608699 1.171045,-3.266686 0.593596,-0.382349 1.337507,-0.51728 2.051811,-0.466823 0.94288,0.06663 1.351172,0.488066 1.8634,1.086031 m 37.268013,11.594492 c 2.02738,0 3.49533,-0.08033 5.38316,-0.990914 0.99071,-0.477652 2.45017,-1.420118 1.91578,-2.708349 -0.79919,-1.927171 -4.42847,-2.420144 -5.8459,-3.472385 -0.47744,-0.354565 -1.0375,-0.867972 -0.97373,-1.523268 0.0665,-0.684531 0.60706,-0.994062 1.17788,-1.247693 1.94849,-0.865694 3.49284,-0.989175 5.58937,-0.823705 m -57.12255,0.213732 c 1.372499,-0.733414 2.575841,1.146571 2.811872,2.270802 0.136028,0.648173 0.325474,1.165868 0.362535,1.863401 0.07102,1.341234 -1.175185,2.441054 -2.367968,3.014361 -0.592561,0.284685 -1.834207,0.49525 -2.276454,0.456118 -0.401667,-0.0354 -0.872072,-0.09193 -1.059033,-0.791116 -0.352391,-1.317217 0.794222,-2.956637 1.060275,-3.92163 0.271227,-0.983607 0.482,-2.364552 1.468773,-2.891936 m 31.656074,1.649669 c 0.01884,2.285751 0.429412,2.421695 2.070447,2.944173 0.724241,0.23044 1.563599,0.662128 2.277488,1.05427 0.569994,0.312845 1.392375,0.948264 2.070447,1.086983 0.645357,0.131889 1.062138,0.04369 1.451795,-0.561089 0.42175,-0.654675 0.436864,-1.990527 0.729005,-2.660937 0.746809,-1.71408 2.431324,-2.664683 4.237584,-2.859326 0.76316,-0.08222 1.46587,-0.0048 1.9371,0.533927 0.58573,0.669251 -0.17536,1.579749 -0.70622,2.096616 -1.17995,1.149097 -1.69715,1.047437 -3.30133,1.88514 m -26.708745,-4.140891 3.105668,0.828178 m 79.091017,5.590201 c 0.31594,-0.968968 1.18553,-2.913943 1.97292,-3.933845 0.74991,-0.971286 1.51743,-2.007275 2.9922,-2.33805 1.06919,-0.23982 1.06132,0.907497 1.19528,1.716917 0.194,1.172183 0.35073,1.850771 0.65343,2.898624 0.42568,1.474983 1.30769,2.300057 2.29612,3.105667 m -36.64688,-7.453602 c -0.51347,0.890621 -0.61948,1.838389 -0.62113,2.898622 -0.002,1.056135 -0.26088,2.381012 0.50395,3.205257 1.35469,1.460491 4.09016,1.720746 5.91443,1.497553 0.83045,-0.10166 2.13484,-0.274956 2.89862,-0.422371 0.61141,-0.117809 1.08512,-0.218018 1.44372,-0.807267 0.46275,-0.760474 -0.0679,-1.730271 0.89651,-2.498613 1.17021,-0.932322 2.68102,0.412432 3.24997,0.681798 m 26.29466,5.383157 c 1.66567,-0.401252 5.08833,-1.225083 6.0927,-3.313541 0.5644,-1.173115 0.0787,-2.207301 -0.92486,-3.023263 -0.6433,-0.522994 -1.50439,-0.79029 -2.26922,-0.873728 -0.75136,-0.08207 -1.67622,0.01408 -2.47562,-0.29771 -1.05842,-0.412887 -1.20708,-1.061351 -1.45822,-1.394673 1.09878,-0.539226 2.40399,-0.525892 4.14089,0.207046 m -4.96907,-0.207046 h 0.82818 M 35.465718,16.103529 c 2.07438,0.188348 2.99697,2.302955 2.218068,4.132607 -0.596909,1.401899 -1.936901,1.870234 -3.460335,1.991769 -0.493594,0.03934 -1.181602,0.07764 -1.656357,-0.01014 -0.915963,-0.169361 -1.396514,-0.726518 -1.8634,-1.145162 -0.904577,0.806231 -2.326559,1.956363 -3.914384,0.881595 -1.198167,-0.8112 -1.123837,-1.837106 -1.261729,-2.537951 m 52.796356,-3.312718 1.035223,0.414088 -0.41409,0.414089 m -30.642591,2.484535 c -0.02774,0.85323 -0.242035,1.906879 -1.449519,2.211649 -0.324645,0.08199 -1.076631,0.07454 -1.449104,0.05777 -1.374569,-0.06191 -4.41481,-0.49111 -4.813578,-2.272521 -0.352803,-1.575816 2.295089,-2.823839 3.36406,-2.986244 0.808301,-0.122778 0.978698,0.173751 1.715571,0.565376 1.245994,0.662024 0.916793,0.03495 2.218481,1.181707 0.416574,-0.603328 1.039571,-1.47569 2.070446,-1.584306 0.937084,-0.09872 3.438181,-0.410589 2.830921,1.161314 -0.230441,0.596081 -1.027977,0.8847 -1.588654,1.087398 -0.498976,0.180542 -0.900643,0.304355 -1.449311,0.352183 -0.496494,0.04306 -1.133362,0.144516 -1.531509,-0.160253 -0.336241,-0.257564 -0.301871,-0.672066 -0.331893,-0.856336 m 31.47077,-1.656357 h 0.414089 m -1.656356,0.207045 -1.449311,5.176112 m 64.390848,-3.7268 c 0.2646,-0.76884 0.70975,-1.486331 1.8634,-1.354424 1.40708,0.160853 3.20981,0.636786 3.26634,2.389647 0.0725,2.239599 -2.79883,4.068631 -4.91151,3.471307 -0.80168,-0.226506 -1.19175,-0.851366 -1.66754,-1.193819 M 45.817945,17.13875 c -0.413468,0.491732 -0.812857,0.979943 -1.657184,1.366909 -0.481172,0.220502 -0.932322,0.440384 -1.448484,0.506224 -1.026527,0.130852 -1.006651,-0.140998 -1.656356,-0.630865 M 90.74661,17.759884 c 0,0.308497 -0.0046,0.56461 1.55e-4,1.243303 0.0052,0.744739 0.0412,1.428607 0.827971,1.862364 m -6.41833,-2.898621 3.519758,3.312711 m 63.355626,-3.105667 v 2.277489 m -120.914007,-1.8634 c -0.07205,0.913273 -0.191102,1.509146 -0.207044,2.277488 m -6.625425,-1.656354 c -1.059239,1.208932 -2.031521,2.209784 -4.969068,2.948312 -0.793809,0.199592 -1.399001,0.171433 -2.27749,0.156319 -1.070628,-0.01822 -1.364424,-0.275577 -2.484535,-0.620098 m 83.853036,-1.8634 c 0.905613,1.101061 1.438545,2.210406 2.898623,2.823465 2.24374,0.941846 4.93822,0.282203 7.24656,0.282203 M 56.170172,20.658507 c -0.795466,1.292786 -0.667925,3.146456 -1.863401,4.762025 m -6.004292,-4.554981 1.863401,0.818033 3.519758,1.252414 m 87.786882,-2.070447 -1.03522,1.035223 M 74.157373,72.005549 c -0.244312,0.562747 -0.414503,0.863169 -0.390072,1.448483 0.02795,0.666683 0.649499,1.306244 0.905613,1.882656 0.408912,0.921141 0.353631,1.996117 0.05611,2.880196 -0.576825,1.713501 -1.706046,2.431738 -3.444599,3.104841 -0.665027,0.257562 -1.842903,0.294417 -2.271693,0.918863 -0.321333,0.467713 -0.219052,1.15303 -0.209735,1.566499 0.01304,0.583659 0.09669,1.336264 0.216154,1.862573 0.207872,0.916999 0.551152,1.196923 1.437095,1.450138 M 85.77754,71.798505 c 0.05735,2.773774 0.684697,6.432044 0.820104,9.524047 0.106006,2.421179 -0.379513,5.067 0.629208,7.453603 M 68.799889,81.736642 c -0.01014,-1.224048 -0.382205,-1.758429 -0.245348,-3.105668 0.08261,-0.813685 0.286756,-1.073527 0.498977,-1.863401 0.206631,-0.769999 0.665028,-2.231941 1.253241,-2.871087 1.228602,-1.334816 2.142082,-0.591319 3.255153,-0.441626 m 57.351338,15.942429 c -1.12446,0.11201 -3.73384,1.062759 -5.5902,1.329432 -0.6083,0.08716 -1.00313,0.129817 -1.65636,0.116773 -1.53234,-0.03085 -2.9655,-0.649291 -3.40112,-2.481428 -0.59774,-2.513313 1.74994,-6.660416 3.23776,-8.485098 0.49753,-0.609953 0.84474,-1.123631 1.60749,-1.056135 0.98492,0.08696 1.14827,1.054063 1.24745,1.466496 M 89.090253,88.56911 c 0.715546,-0.01471 1.282641,-0.09793 2.070445,-0.207044 1.154687,-0.160046 2.184527,-0.374959 3.102562,-1.115971 0.882839,-0.713061 1.604388,-1.779133 0.765237,-2.796135 -0.939361,-1.138745 -4.767201,-1.996738 -5.18895,-3.139624 -0.165222,-0.447423 -0.08447,-1.106445 0.375786,-1.52219 0.974352,-0.880768 3.424724,-0.743084 4.051033,-0.743084 m 47.827284,9.10996 c 0.62838,-1.79487 1.26153,-1.210383 2.07169,-2.48557 0.94558,-1.488028 1.73897,-3.747506 2.8982,-5.174043 0.49443,-0.608503 1.35904,-1.666502 2.12304,-0.910374 1.17188,1.159863 0.14266,3.819142 0.56772,5.257275 0.93812,-0.427548 1.87293,-1.355522 3.00504,-2.673153 0.59691,-0.694634 1.93235,-2.044978 2.93423,-1.453659 1.32572,0.78242 0.64578,4.243585 0.89319,5.576123 M 99.02839,80.494375 c 1.74249,0.403115 2.6864,0.676827 4.34794,0.985118 0.58655,0.108698 1.52509,0.298557 1.57208,1.094437 0.13458,2.287014 -4.10403,3.344183 -4.42702,5.7871 -0.1147,0.868138 0.74639,1.180568 1.40562,1.142473 2.11559,-0.122364 4.56699,-0.923834 6.62543,-1.348481 m -32.920082,-5.383159 -0.606019,2.277284 0.82528,1.32467 2.472318,-0.210564 1.844145,-0.531482 2.917879,1.695071 m 60.042919,-4.554979 -0.62114,3.933846 m -10.13607,-3.572967 c 1.18761,-0.477031 3.43777,0.384275 4.54587,0.674345 0.58304,0.152592 1.11514,0.242035 1.65532,0.499806 2.03339,0.969381 1.12446,2.741269 -0.6201,3.448325 -1.62778,0.660059 -3.91728,1.261937 -5.3639,0.249075 -1.36318,-0.954476 -2.24022,-4.0589 -0.21719,-4.871551 m -52.391377,0.674345 v 1.449311 M 53.685638,84.221176 c 0.478066,0.155905 1.083878,0.129609 1.79756,0.766479 1.055306,0.941638 -0.334584,3.804442 -1.254275,4.78459 -1.01162,1.078288 -2.172104,0.761097 -3.234864,0.303943 -0.774761,-0.333136 -1.195475,-0.57103 -1.656356,-0.885945 -0.413054,0.408085 -0.79795,1.000646 -1.656357,1.326535 -0.760268,0.288827 -2.008746,0.05383 -2.691372,-0.44059 -0.70478,-0.510159 -1.318666,-1.172079 -1.663602,-1.921166 -0.237894,-0.516784 -0.430654,-1.0257 -0.477239,-1.656357 -0.05155,-0.698154 0.0617,-1.232121 0.07019,-1.656355 m -8.69587,0.207044 c 2.898003,0.451357 1.425089,4.845255 -0.828177,4.74753 -1.219286,-0.053 -1.838349,-0.468541 -2.403787,-1.454074 -0.524031,-0.913066 -1.093195,-1.624057 -1.944148,-2.051189 M 18.488067,85.256398 c 0.727968,1.178705 1.657598,0.81472 2.123034,1.893215 0.258391,0.599187 0.0557,1.234399 -0.114289,1.833586 -0.309116,1.089262 -0.759646,2.044978 -1.802529,2.633813 -0.907683,0.512643 -3.066743,0.482621 -3.933018,0.100003 -0.45467,-0.200833 -1.087397,-0.641631 -1.653249,-0.632106 -1.191749,0.02008 -0.781386,0.843706 -2.082455,1.530473 C 9.594055,93.370887 7.3592366,92.740436 6.3355463,91.652417 5.1281666,90.369155 4.9159455,88.72398 5.2372175,86.912754 M 115.59195,87.119798 c -0.25135,1.522192 0.72528,1.251999 1.65636,0.828178 m -68.117651,-0.621134 0.207044,1.863401 M 12.897864,87.947976 c 7.77e-4,1.268355 0.11491,1.73172 0.207046,2.898624 m 46.999107,-2.691578 1.242268,0.207044 m -36.439837,0.414089 c 0.12816,0.618856 0.171226,1.07042 0.476824,1.655321 0.597116,1.143299 1.604801,1.247858 2.835887,1.032324 0.595668,-0.104144 1.173736,-0.320298 1.593829,-0.727555 0.818862,-0.794016 0.925283,-1.486786 1.304795,-1.96009 M 347.06775,120.86806 c 1.93585,1.79549 2.74126,4.56036 4.21128,7.03951 1.12426,1.89384 2.36031,3.74047 3.24232,5.79725 1.15323,2.69013 1.99384,5.42249 2.7806,8.28178 0.26917,0.98512 0.48863,1.6636 0.68533,2.69158 0.20704,1.08532 0.44307,2.27562 0.80954,3.31271 0.17185,0.49007 0.40788,0.99795 0.64391,1.44538 0.22153,0.42112 0.51139,0.92776 1.07663,0.93625 0.66667,0.0101 0.74742,-0.57765 0.91927,-1.13978 0.33335,-1.10189 0.40789,-2.56507 0.64392,-3.72639 0.14286,-0.69732 0.25258,-1.18926 0.32505,-1.8634 0.11802,-1.11783 0.42444,-2.21372 0.57766,-3.31271 0.49484,-3.54854 0.88822,-7.39687 1.08905,-10.97336 0.058,-1.0522 -0.15114,-1.49465 -0.0808,-2.27749 0.06,-0.6702 0.46793,-1.08843 0.67497,-1.8634 m 252.38729,-3.51976 c 0.3292,1.2812 0.93376,2.24644 1.68533,3.93385 1.1636,2.61539 2.48662,5.10986 3.30237,7.86769 0.20912,0.70892 0.73087,2.5833 0.41822,2.98082 -0.31678,0.40187 -0.72672,0.35612 -1.26503,0.40022 -0.90893,0.0745 -2.52595,-0.23272 -3.51976,-0.27537 m -156.31862,21.73968 c -0.28781,0.0822 -1.66051,0.35963 -1.05801,1.36855 0.70188,1.17767 3.35414,1.40108 4.57777,1.54041 0.75985,0.0865 1.52591,0.19422 2.27748,0.19648 0.58801,0.002 1.07664,-0.0112 1.65636,-0.0876 0.73294,-0.0965 1.28781,-0.12671 2.07044,-0.23913 1.79301,-0.25756 3.7061,-0.62631 5.38316,-1.58451 1.55077,-0.88594 3.42245,-2.56342 4.04152,-4.09285 1.27539,-3.16095 -2.15534,-5.48254 -4.33552,-7.69274 -3.35412,-3.39719 -7.7062,-5.61028 -11.71457,-8.18716 -2.19469,-1.41101 -5.01049,-3.65413 -5.71445,-6.27386 -0.40166,-1.49528 -0.47206,-3.63156 -0.19462,-5.17612 0.44929,-2.48971 2.59634,-4.73283 5.08088,-5.2757 1.05592,-0.23085 1.80128,-0.42257 2.89863,-0.21139 2.09115,0.40187 2.61497,1.75967 3.51976,2.79551 m -105.38567,0.62114 c 0.57972,1.08864 0.48448,1.52178 -0.20706,2.48453 m 24.84535,35.40461 c -0.3292,-1.24268 -0.41202,-2.16072 -0.41408,-3.51976 -0.002,-0.79587 -0.058,-1.30355 -0.14701,-2.07043 -0.26709,-2.24789 -0.12837,-4.95044 -0.28572,-7.24656 -0.36026,-5.25707 -1.34992,-10.27376 -2.42242,-15.3213 -0.37268,-1.75532 -0.66461,-4.66264 -0.66461,-6.41838 0,-0.77621 -0.22361,-1.8605 0.12422,-2.66093 0.36647,-0.83812 1.08284,-0.67621 1.53214,-0.62093 0.52175,0.064 1.08905,0.40726 1.65634,0.79733 m -24.22421,-0.20705 v 0.41409 m 156.52568,1.03522 0.73086,1.86341 2.85515,7.4536 1.82613,5.38315 0.78263,2.89863 1.25675,5.17611 0.27124,1.86341 1.38719,5.5902 m 98.96729,-30.02146 0.71016,2.27749 1.15324,2.27749 m -57.14428,-3.93385 c 0.51346,1.0667 0.34368,1.74518 0.62113,2.89863 0.66668,2.7657 1.40168,5.37653 2.15946,8.07473 0.28159,1.00479 1.19466,2.69676 0.81369,3.69595 -0.20911,0.5435 -0.66253,0.5936 -1.10975,0.46606 -1.09113,-0.31077 -1.93794,-1.00561 -2.69159,-1.67747 M 546.86567,129.978 c 1.22363,-0.0101 2.27956,-0.282 3.51975,-0.11926 0.85716,0.11263 1.96693,0.25611 2.89863,0.32112 2.67915,0.18717 7.03123,1.40169 8.69587,2.48971 m -169.15539,-2.07044 c -0.0497,1.17249 -0.10145,2.1102 -0.0186,3.31271 0.0456,0.66234 0.0186,1.20583 0.0186,1.8634 0,1.43089 0.10767,3.13424 0.37268,4.55498 0.24432,1.30852 0.15115,2.1162 0.33541,3.51976 0.10353,0.7818 0.11802,1.29734 0.1201,2.07044 0.004,2.21517 0.029,5.42788 0.24224,7.66065 0.0828,0.86524 0.21118,1.41805 0.1532,2.27749 -0.21325,3.17979 -0.65632,8.153 1.46796,8.48881 M 552.66296,132.2555 c 1.62531,1.62593 2.56322,3.11685 3.13258,5.38316 0.78263,3.11747 0.90064,6.34426 1.33337,9.52405 0.17392,1.26235 0.294,2.9096 0.29608,4.14089 0.002,0.5025 -0.11388,1.13232 0.21325,1.5284 0.31678,0.38448 0.83647,0.23002 1.23606,0.1853 0.81575,-0.0913 1.83028,-0.25342 2.69157,-0.26356 0.68533,-0.008 1.23193,-0.002 1.8634,-0.002 m 80.12625,-16.56357 c -0.60043,2.52056 -0.68946,4.9877 -1.37479,7.4536 -0.28157,1.01121 -0.73706,2.54727 -1.55075,3.24688 -0.51762,0.44493 -1.18015,0.60581 -1.82821,0.26688 -1.95243,-1.02177 -2.41413,-4.5084 -2.90691,-6.41238 m -13.25084,-4.14089 c 1.04765,0.98636 0.98967,1.23378 1.36028,2.48453 0.72052,2.42988 1.25262,4.97011 1.78886,7.45361 0.36647,1.69859 0.72467,3.14252 0.7847,4.55498 m 28.3651,-4.34794 c -1.66463,1.09899 -3.86966,0.69008 -5.5902,-0.13354 -1.66049,-0.79464 -2.7951,-2.10937 -3.04562,-4.00735 -0.22154,-1.6781 0.008,-3.39222 1.10768,-4.6997 0.79091,-0.94247 2.86343,-1.75388 3.34791,-0.4642 0.71016,1.89177 -0.75778,3.41914 -2.0311,4.33572 m -24.84535,-4.76202 c 1.02902,0.13002 2.89034,0.45715 4.96907,0.62113 m 3.31271,4.14089 c -0.54039,1.14185 -0.30849,1.75802 0.20706,3.10567 m -47.20617,3.10567 c -0.25259,-1.06421 -0.0166,-3.39802 1.46795,-4.66202 0.69359,-0.59049 1.61495,-0.92736 2.39965,-0.30519 1.98556,1.5752 -1.36029,4.34173 -2.41828,4.83284 -0.4907,0.22837 -0.86752,0.28303 -1.24227,0.34141 0.15529,0.53294 0.23603,1.04268 0.71016,1.62116 1.51557,1.8485 3.51355,2.03753 5.08708,1.27747 m 2.2775,1.65709 c 0,-2.37584 -0.22361,-5.43472 0.31678,-7.66065 0.35196,-1.44456 1.45552,-2.63175 2.78889,-2.32988 0.79711,0.18054 1.23399,0.72735 1.65636,1.29465 m -91.51369,-1.03522 c 1.07871,1.58803 2.00832,2.8392 4.14089,3.7268 m 66.4613,-2.69158 c 1.60665,1.15614 2.64188,0.55281 4.96907,1.24227 m 41.82298,5.38316 c -0.72879,0.56026 -1.48036,1.15158 -2.48453,1.6284 -1.31059,0.62196 -3.45763,0.8433 -4.73096,-0.14887 -1.3168,-1.02528 -1.32095,-3.98808 -0.89236,-5.41338 0.33541,-1.12073 0.3851,-1.55283 1.27538,-2.07044 m -50.51885,8.90291 c 0,-1.01079 -0.20291,-2.79241 -0.20706,-3.7268 -0.002,-0.53956 -0.10351,-1.2284 0.12216,-1.8282 0.29815,-0.79733 0.73915,-1.17519 1.10977,-1.6839 0.441,-0.60353 1.69361,-1.41784 2.66258,-0.71161 2.71435,1.97355 2.19468,6.23349 4.18023,8.57164 m 3.51976,-9.10995 c 0.0725,1.42964 1.09526,4.4235 1.68742,6.62542 0.23395,0.86566 0.37889,1.6253 0.59007,2.48453 m 36.02575,-2.27749 c -0.92963,0.78553 -1.29402,1.17642 -2.69157,0.50249 -1.23399,-0.59586 -1.62116,-1.48408 -2.48454,-2.36589 -1.24226,1.4576 -3.12223,5.20261 -6.2072,4.01604 -1.47622,-0.56813 -1.30851,-2.84706 -1.12425,-4.01604 0.0952,-0.60291 0.23396,-1.47001 0.55695,-2.06961 0.37889,-0.70416 0.72466,-1.03978 1.39134,-1.29652 0.60665,-0.23313 1.77644,-0.15362 2.48454,-0.15362 m 2.89862,1.65635 v 1.8634 m -250.52388,0.82818 -0.23397,2.69158 -0.48863,2.07044 -1.96899,9.10996 m 11.5945,-9.10996 c 0.41201,-1.40769 3.10773,-4.00299 4.76203,-4.06635 0.8116,-0.0313 1.58389,0.16419 2.27748,0.56502 0.78677,0.45551 1.52385,1.14765 1.27332,2.04892 -0.19668,0.71077 -0.85923,1.12487 -1.48036,1.45551 -0.68532,0.36421 -1.2899,0.64847 -2.07044,0.86877 -1.7661,0.49857 -3.321,0.16418 -4.96907,-0.87187 -1.35407,3.99845 -0.21119,11.38475 5.38314,10.90524 1.83235,-0.15693 3.42245,-1.13273 4.96907,-1.94953 1.55698,-0.82175 3.01665,-2.18142 4.34794,-2.95142 m 135.82121,-9.10996 c -1.35613,0.40063 -2.99386,-0.21097 -4.00837,1.05779 -1.26712,1.58369 -1.89446,6.89872 0.911,7.42689 1.646,0.30974 3.44314,-2.61683 3.86758,-3.72265 0.41824,-1.08905 0.60664,-1.10147 0.47206,-2.2775 m -33.74825,0 c 0.30229,-0.87992 0.95033,-0.99319 1.8634,-2.27747 1.50521,0.64183 4.91731,0.33126 5.82002,2.69177 0.52175,1.36878 -0.28158,3.06467 -1.30438,4.08084 -0.54039,0.53853 -1.00003,0.86835 -1.61701,1.23007 -0.60044,0.35176 -1.21536,0.64183 -1.8634,0.88656 -1.09528,0.41449 -2.19882,0.67993 -3.31065,0.0542 -1.74125,-0.9814 -2.07045,-3.18082 -1.36857,-5.00944 0.30435,-0.79029 1.06422,-1.66815 1.98763,-1.34931 0.80747,0.27909 1.17187,1.21142 1.33751,1.7632 0.22361,0.74142 0.30436,1.04805 0.73294,1.8634 m -88.32727,-5.5813 c 0.86337,-0.52113 2.02283,0.58469 3.02492,0.75696 1.74332,0.29958 3.4742,0.5704 4.7351,1.78616 0.56523,0.54535 0.75986,1.06027 0.57974,1.79591 -0.35199,1.44082 -1.19466,2.42282 -2.41621,3.23755 -1.09941,0.73294 -2.64397,1.28057 -3.93386,1.27995 -0.66253,0 -1.28988,-0.135 -1.82613,-0.52734 -1.2609,-0.92218 -1.48037,-2.25471 -1.48658,-3.57608 -0.006,-1.29651 0.0497,-3.98311 1.32302,-4.75311 m 29.52662,-0.21596 c 0.93583,0.18408 1.6874,0.41492 2.48454,0.92012 2.13255,1.35179 2.86134,2.71786 2.67294,5.29122 -0.18013,2.44788 -1.76609,4.10072 -3.91521,5.2759 -1.12219,0.6143 -3.47422,0.99879 -4.55291,0.34371 -0.66669,-0.40602 -0.76399,-0.96132 -1.48659,-1.16857 -0.52588,-0.15134 -1.31059,0.2673 -1.8282,0.37931 -1.24641,0.26915 -2.79303,0.14182 -3.93384,-0.62714 -1.04765,-0.70539 -1.78886,-1.70335 -2.39551,-2.75389 -1.18636,-2.0543 -1.14703,-4.14462 -2.15948,-6.21133 m 73.91491,-1.44933 -0.41409,0.4141 m 22.56785,10.55926 c -1.12426,0.15446 -1.84062,0.52093 -2.89862,0.74454 -2.16569,0.45798 -5.47426,0.74164 -7.20308,-0.99568 -1.15116,-1.15945 -1.19879,-2.94873 -0.84681,-4.51088 0.3292,-1.46215 0.8613,-2.75679 1.19258,-4.14088 0.26915,-1.12177 0.56315,-1.86526 1.88824,-2.07046 m 45.96389,0.20706 c 2.24229,1.07931 5.21959,0.53293 7.24655,-0.20706 m -35.8187,2.69159 c 1.45138,1.1816 2.28578,2.85307 4.14088,3.93384 m -100.0025,0.82817 0.62113,2.89863 m 86.75166,-2.69157 c 0,1.02445 -0.16564,1.90377 0.82818,2.48453 m -115.32381,34.57643 c -0.0207,-1.02942 -0.0725,-2.4069 -0.41616,-3.7268 -0.85302,-3.26965 -1.43482,-6.48029 -2.0166,-9.73109 -0.12216,-0.68138 -0.38304,-1.41494 -0.40788,-2.07045 -0.0393,-0.99278 0.24845,-2.21703 0.4969,-3.31271 0.32093,-1.4224 1.35201,-4.27298 2.97317,-4.96741 2.88619,-1.23605 5.30448,1.9721 5.54672,4.55332 0.0745,0.78304 0.0393,1.33751 -0.1408,2.07045 -0.37474,1.53482 -2.07252,3.66862 -2.72263,4.34794 1.44931,1.10954 2.52802,1.04887 4.76202,2.28577 2.31061,1.27932 2.59012,2.20254 4.14089,2.89033 0.63562,-2.15305 0.45964,-3.91023 1.13668,-6.41837 0.25466,-0.94558 0.5176,-1.99695 1.38719,-2.35949 1.41205,-0.58945 2.37894,1.10065 3.68747,1.59508 1.34165,0.50684 2.50317,0.60705 3.93384,0.93336 1.63979,0.37392 3.28373,1.5023 4.08293,2.93672 0.51554,0.92445 0.53003,2.19797 0.45343,3.3127 -0.21327,3.10712 -1.84271,5.85253 -4.53636,7.42173 -1.01658,0.59256 -1.78887,0.97828 -2.89861,1.17807 -0.83232,0.14949 -1.52178,0.1526 -2.2775,-0.11697 -1.52799,-0.54536 -2.74955,-2.23609 -3.36033,-3.51376 -0.30021,-0.62528 -0.53418,-0.83915 -0.87373,-1.4493 -0.40995,-0.73502 -0.47413,-2.06735 -0.52797,-3.31273 M 481.2326,174.078 c 1.10768,1.24558 1.24227,2.82243 1.24227,4.76203 0,0.66999 0.0228,1.14537 -0.008,1.8634 -0.06,1.35407 -0.176,2.72097 -0.34992,3.93384 -0.0807,0.57351 -0.15941,1.06877 -0.22982,1.65636 -0.23809,1.97086 -0.4265,4.08396 -0.76606,6.00428 -0.147,0.83336 -0.14286,1.41537 -0.30229,2.2775 m -23.39603,-20.29037 c 0.40995,0.45695 0.97105,0.952 1.51143,2.48454 0.36439,1.0317 0.41202,1.75491 0.5321,2.69158 0.0787,0.61906 0.0953,1.28305 0.14079,1.86341 0.0518,0.63127 0.0518,1.06275 0.11181,1.8634 0.0973,1.29195 0.53832,3.03878 0.83438,4.34793 0.45551,2.00709 0.90272,4.17691 1.00211,6.21134 0.0642,1.32093 0.18634,2.65907 0.42237,3.93384 m 3.93384,-7.24657 c 1.74746,1.59445 3.55288,2.204 6.00429,2.8711 1.01245,0.27578 2.18846,-0.0138 3.10153,-0.50933 1.37478,-0.74392 1.5342,-2.32925 0.6377,-3.60382 -1.54456,-2.19674 -3.75786,-3.24812 -6.22376,-3.71045 -0.64391,-0.1205 -1.19258,-0.29896 -1.8634,-0.39546 -1.20085,-0.17308 -3.65227,0.15488 -4.08085,-1.29692 -0.54245,-1.85056 0.66876,-3.94336 1.26711,-5.57073 0.51348,-1.39238 0.59215,-2.37087 2.19261,-2.85515 1.19051,-0.36026 2.04146,-0.1849 3.10566,-0.28572 2.39551,-0.22714 4.71234,0.49193 6.83247,1.07041 m -116.35908,23.81013 c -0.31263,-1.31081 -0.15735,-1.92842 -0.58178,-3.10567 -0.37062,-1.02529 -0.78057,-2.87771 -1.10977,-4.14089 -0.47827,-1.82924 -1.48451,-3.82494 -1.59216,-5.79724 -0.0538,-1.01183 0.265,-1.13399 0.35611,-1.8634 0.10353,-0.82384 -0.0269,-2.57668 0.0642,-3.51977 0.16978,-1.75656 0.6377,-4.37215 2.86342,-4.17153 0.4348,0.0391 0.81783,0.1203 1.24227,0.33189 0.73708,0.36771 1.38927,0.95158 2.07046,1.47809 1.66255,1.28347 3.32306,2.96488 4.2092,4.84609 1.07043,2.27335 -0.0393,4.84961 -2.13876,5.97634 -1.62323,0.87186 -3.54253,0.44163 -4.76203,0.23499 M 426.159,178.42594 c 1.16773,1.64456 2.41,3.51541 3.51976,5.1759 0.30021,0.44908 0.84888,1.37043 1.44725,1.2901 0.47206,-0.0636 0.66253,-0.44618 0.89028,-0.87746 0.36441,-0.68159 0.82404,-1.77396 1.25469,-2.48288 0.84474,-1.3932 1.95036,-1.88576 3.44729,-2.27749 m -61.90632,2.20855 c 2.21539,-0.21491 2.71229,0.77724 4.34794,1.66133 0.9876,0.53375 2.34582,1.17186 3.31272,1.84869 2.29612,1.6075 3.39967,3.34978 3.0684,6.08297 -0.10559,0.85365 -0.43894,1.56195 -0.91928,2.27749 -1.32094,1.97024 -3.76821,3.57359 -6.08297,4.08105 -2.05596,0.45032 -4.49701,0.40458 -5.96081,-1.19382 -0.90064,-0.98283 -1.37478,-2.73649 -1.73504,-3.92246 -0.20289,-0.66004 -0.37268,-1.13749 -0.33541,-1.8634 0.0766,-1.53047 0.3292,-3.0893 0.84889,-4.55497 0.64598,-1.82427 1.86133,-4.26222 3.45556,-4.41688 m -19.25514,0.48304 c 0.0207,2.50192 0.30436,3.52307 1.24227,4.34793 m 45.54981,-2.07045 c -0.28781,-0.89898 0.16562,-0.62921 0.41408,-0.62114 m -0.82818,0.20706 c -0.31471,0.57744 -0.10352,1.2727 -1.65636,1.44931 m 30.84964,0 0.19049,1.44972 0.89443,1.65594 2.52801,5.17611 1.77023,3.10567 m -5.38316,-9.93814 c -1.68121,1.93319 -3.98353,6.54531 -4.76203,9.93814 m -15.11424,-2.89861 c -1.43897,1.44289 -2.69572,3.31705 -5.38317,4.00299 -1.84268,0.47041 -4.60052,0.79505 -5.38314,-0.48325 m 129.81691,4.76203 c 0.82818,0.15611 1.91103,0.30871 2.69158,0.46896 0.67497,0.13871 1.2402,0.26564 1.53213,0.99237 0.47206,1.18264 -0.28987,2.26962 -0.28778,3.3007 0,0.38924 -0.0186,0.83232 0.21118,1.17601 0.50312,0.75364 1.19464,0.45757 2.27127,0.48242 1.77644,0.0455 3.13672,0.91098 4.28582,2.27541 0.47,0.55902 1.02695,1.27126 0.84889,2.07044 -0.2526,1.13668 -1.49279,1.86961 -2.44312,2.50732 -1.89239,1.26917 -3.89866,2.27749 -5.38316,3.49698 m -6.83247,-13.66494 c 0.61285,1.14289 0.71223,2.43899 0.94827,3.7268 0.26087,1.43689 0.68324,2.72057 0.88822,4.1409 0.2236,1.54869 0.50724,3.22575 0.62941,4.76201 0.15943,1.97314 0.10144,3.19677 1.05386,4.76203 m -17.39174,-15.94243 c 0.63355,-0.0124 1.55075,-0.21947 2.48453,-0.35197 0.7557,-0.10767 2.21745,-0.16979 2.89862,-0.23396 2.18017,-0.20704 4.59432,-0.0745 6.00429,1.00002 m -19.46218,-0.41409 c 0.94412,1.79715 0.82817,4.89246 0.82817,6.41839 -0.50311,0 -1.01865,-0.029 -1.65636,0.0621 -0.64598,0.0932 -1.43273,0.30021 -2.07044,0.51761 -0.8758,0.29608 -1.9545,0.6791 -2.78268,-0.10974 -1.23191,-1.17186 -0.38303,-4.01666 -0.11595,-5.43905 m 11.80154,12.62971 c 0.95863,1.71018 4.84278,1.52384 7.03953,0.35611 0.86958,-0.4617 1.6667,-1.26918 1.60044,-2.21951 -0.13665,-1.91516 -2.01247,-2.54871 -3.87794,-2.96695 -1.45345,-0.32712 -3.85309,-0.44514 -4.75995,-1.81578 -0.96069,-1.45345 -0.46172,-2.8717 -0.33749,-4.12018 0.0373,-0.37062 0.0973,-1.13876 0.60043,-1.52799 0.98967,-0.76399 1.82199,0.0766 2.21952,0.28572 m 20.4974,-0.62113 -0.41407,0.41408 m -40.37369,-0.20704 c 0.83439,1.59425 0.69774,2.60876 0.94826,4.34793 0.33128,2.31062 0.76607,5.31691 1.09527,7.66065 0.19255,1.36649 0.36647,3.00628 1.06214,4.14089 m -21.11854,-15.3213 -0.96484,2.69159 -0.28572,2.89861 -0.588,3.7268 -0.43894,2.48454 -0.74121,5.17612 -0.087,2.48454 m -20.9115,-1.44933 -1.646,-8.07473 -0.80335,-3.93384 0.17185,-2.07044 c 1.29196,0.57557 2.79925,1.59423 4.37485,4.34793 0.65634,1.14702 1.10355,2.06009 1.78887,3.31271 0.46999,0.85716 1.058,1.66257 1.54662,2.48453 0.33956,0.57145 0.66048,1.46381 1.02901,2.06217 0.40995,0.66046 0.85717,1.19051 1.56526,0.95654 0.46792,-0.15528 0.60871,-0.80954 0.64598,-1.15531 0.0994,-0.89857 -0.10145,-2.33752 -0.16564,-3.3127 -0.1532,-2.34168 -0.57972,-5.80347 -1.40789,-8.07474 -0.21119,-0.57559 -0.49691,-1.09941 -0.64392,-1.65636 -0.14907,-0.56523 -0.18427,-0.92755 -0.2443,-1.24227 l 1.4493,0.20704 m -11.80154,-0.20704 1.8634,2.07044 m 16.14948,-2.07044 c 1.27747,1.39962 3.25682,3.06013 4.96907,4.76203 0.54867,0.54452 1.40997,1.38926 1.98141,1.87789 0.47828,0.40788 0.95655,0.74121 1.33131,1.02072 m 32.50598,-5.38314 h 2.07044 m -92.1348,0.20704 c 1.34371,1.08698 2.43484,3.4328 2.91724,4.96907 0.19877,0.63149 0.21533,1.23605 1.02902,1.28574 1.11804,0.0704 2.34788,-1.09113 3.30028,-1.69984 m 83.23192,-4.34793 c 0.0373,1.84063 0.5176,3.7413 0.82817,6.00429 0.25467,1.85513 0.36026,3.7558 1.24227,4.96907 M 361.7679,234.53549 c -0.0207,-1.02073 -0.19255,-1.71433 -0.36232,-2.69158 -0.31057,-1.78265 -0.78678,-3.76407 -0.87166,-5.5902 -0.0683,-1.4493 -0.14494,-2.97316 -0.33749,-4.34793 -0.0559,-0.4141 -0.0476,-0.94619 -0.0559,-1.44931 -0.0249,-1.50314 -0.64598,-1.30231 -1.4783,-2.48453 1.29817,-0.18428 1.60874,0.5942 1.8634,0.82817 0.4907,-0.54866 1.06008,-1.43067 1.62737,-2.69157 0.32714,-0.72467 0.72466,-1.45139 1.66672,-1.11391 1.25882,0.45136 2.46797,3.25267 3.07047,4.42661 1.19257,2.3189 1.30438,4.66472 2.10564,7.03951 0.3644,1.07664 0.54866,2.30234 0.63977,3.31272 0.10765,1.18429 0.35611,1.82614 0.62113,3.10567 m -11.80154,-14.49313 c 0.11802,1.56526 1.13253,1.9835 1.44931,2.2775 m 0.62113,-1.8634 -0.20704,0.82817 m 59.21473,0 -0.13665,3.10567 0.84268,2.27749 0.80541,1.46381 1.35199,0.70395 4.38314,2.59427 m 6.21133,-7.03952 c 2.05595,0.79092 3.43694,2.24437 4.80758,5.17612 0.54453,1.16773 0.83231,2.2133 0.77435,3.51975 -0.0663,1.54456 -0.46793,3.59015 -1.33131,4.96907 -0.2733,0.43479 -0.92341,1.2402 -1.52384,1.12633 -0.62528,-0.11801 -0.89029,-0.66048 -1.27747,-1.12633 m -24.01716,-4.96907 c -0.28159,-1.18222 -0.2236,-2.24229 -0.39752,-3.31271 -0.18428,-1.1284 -0.39546,-2.06423 0.10766,-3.30443 0.40373,-0.99588 1.93379,-1.28989 2.7744,-0.98139 0.82817,0.30229 1.23191,0.67704 1.65634,0.97312 m -21.53262,-0.20706 c 0.58179,0.84474 0.79918,1.25263 1.07042,2.2775 0.48242,1.81992 2.18018,6.58195 -0.65634,7.36457 -0.87786,0.24017 -2.16567,-0.0393 -2.89861,-0.37476 -0.51762,-0.23603 -1.09113,-0.39752 -1.44311,-1.01244 -0.40374,-0.70602 -0.34784,-2.2982 -0.42029,-2.87171 m -14.28607,1.03523 c -1.13255,-0.57144 -1.25677,-1.4017 -1.24227,-3.10567 0.008,-0.75157 0.089,-1.47416 0.66874,-2.00419 0.68325,-0.62528 1.39549,-0.68325 2.43693,-0.25881 0.9317,0.38097 2.07665,1.14496 1.72881,2.263 -0.32299,1.03936 -1.7868,1.8075 -2.55286,2.43898 -0.35198,0.28987 -0.87579,0.59837 -0.92963,1.1077 -0.058,0.55072 0.26088,0.99173 0.59216,1.42239 0.57144,0.73915 1.3168,1.48864 2.19673,1.83235 1.37479,0.5383 3.09739,0.14286 4.14089,-0.59008 m 19.66924,-7.66066 c -1.33752,0.82611 -1.29817,2.24229 -1.39134,3.51976 -0.0704,0.9317 -0.0456,2.75784 1.39547,3.02907 1.77231,0.33127 3.72059,-2.3686 4.55084,-3.23611 0.83853,0.91099 1.90274,2.10771 3.10567,2.48454 m 11.80154,-5.38316 c 0,0.98139 0.16771,2.3251 -0.20704,4.34793 m -14.70017,-3.51976 v 1.8634 m -22.7749,-1.44931 c 0.002,1.88618 0.28572,4.24441 1.71433,5.75376 1.85927,1.96072 3.42659,0.1615 4.28997,-0.78469"
       id="path58566"
       sodipodi:nodetypes="cscccccccccccsccccccccccsccscccccccccccccccccccccccccccccccccccccscccccccsscccsccccscccccccccccccsccccccccccccccccccccccccsccccccccscccccccccccccccccccccccccccccccsccccccccccccccccccccccccccsccccccccccccccccsccscccccccccccscccccccccsccscccccccccccccccccccccccccccccccccscccsscssccsccccccccccscscccccccccccccccccccccccccccsscccccccccccsccccsccccccccsccccccccscccccccsccccccccccccccccccccccccccccccccccccccccccccccccccccccccccccccccccccccccccccsccccccccccccccccccccccccccscccsscccccccccscccccccccccccccccccccsccccccccsccccccscccccscccccccccccccccccccccccscccccccccccccscccccccccccccccccccccccccccccccccccccscccccccccccccccccccccccscccccsccccccccccccccccccccccccccccccccccccccccccccccccccccccccc" /><path
       style="fill:none;stroke:#010101;stroke-width:0.152859"
       d="m 16.254927,29.459516 c -3.418524,-0.4329 -0.483831,-2.334102 1.681446,-2.445743 1.774,-0.07388 4.803731,0.357284 6.2672,1.197386 0.284165,0.163119 0.361047,0.243046 0.611432,0.48406 0.263071,0.253086 0.343781,0.331952 0.433047,0.611439 0.06008,0.188076 0.07967,0.533539 0.07641,0.76429 -0.0083,0.597555 -0.332165,1.232848 -0.815196,1.605013 -0.710942,0.547758 -0.685881,0.578085 -1.375729,1.095491 -0.356467,0.267398 -0.349741,0.376387 -0.534999,0.66238 -0.278451,0.429839 -0.623579,0.656991 -0.560493,1.070014 0.08793,0.575513 0.330067,0.747024 1.095492,0.917147 0.73984,0.164483 1.892695,0.852193 2.598601,1.273779 0.824665,0.492508 1.902321,1.385509 2.420209,2.089112 0.504885,0.685882 0.632371,1.113272 0.280336,1.987163 -0.267038,0.662795 -0.582387,0.932894 -1.019108,1.375729 -0.663252,0.672574 -1.472023,1.185264 -2.292877,1.732344 -0.362271,0.241666 -0.647048,0.517578 -1.070005,0.687865 -1.406261,0.371144 -4.612017,1.741617 -5.502911,1.554114 -1.978443,-0.782739 -0.0082,-2.255301 0.305715,-2.445735 M 126.00737,29.918091 c -0.1553,0.536239 -0.34592,1.479379 -0.30572,2.445735 0.0958,2.301898 0.54877,5.578577 0.7643,7.795789 -0.15457,1.296186 -0.0336,2.301081 0.12733,3.36289 0.0593,0.388411 0.0647,0.494191 0,0.917148 -0.11786,0.771629 -0.12733,1.783398 -0.12733,2.598594 0,0.289055 -0.003,0.51086 0,0.764298 0.003,0.266434 -0.0104,0.358606 0.051,0.611432 0.14949,0.620754 0.31243,0.684044 0.56052,0.764289 m -0.11107,-7.568718 c 1.07267,0.45833 2.57821,0.927295 3.47389,0.970275 0.31535,0.01755 1.00826,0.02555 1.37573,0.02555 0.61908,0 0.7114,-0.0333 1.22287,-0.203756 0.27452,-0.09157 0.34927,-0.112809 0.61142,-0.229291 0.31444,-0.139862 0.62781,-0.2993 0.91717,-0.4841 0.61402,-0.392239 0.95031,-0.533024 1.37572,-0.611441 M 42.546601,30.376665 c -0.02311,0.875057 -0.72944,3.707587 -1.019108,5.197194 -0.138025,0.748159 0.428444,1.696214 1.171966,1.834296 0.627334,0.09585 1.62978,-0.06147 2.292877,-0.25481 0.496028,-0.144604 2.555647,-0.451243 3.057176,-0.662338 m 1.222864,6.878632 c -1.475241,-1.530668 -1.324424,-4.665943 -1.222864,-6.878632 0.321389,-1.7 0.349855,-5.453767 1.070006,-6.114342 m 89.209142,5.425367 c 0.28629,-0.2941 0.6428,-0.59473 0.79902,-1.298186 0.065,-0.292116 0.3288,-0.897434 0.50963,-1.222864 0.773,-1.391583 1.99388,-1.605389 3.1845,-0.993589 0.64522,0.331585 1.23708,0.946347 1.63054,1.605021 0.27408,0.459031 0.26537,0.47921 0.35663,0.917147 0.0946,0.453995 0.21262,1.123664 0.12732,1.681446 -0.0595,0.389789 -0.0591,0.569555 -0.20375,0.917148 -0.22242,0.533937 -0.4864,0.811375 -0.84073,1.222871 -0.29074,0.337513 -0.33475,0.422501 -0.63696,0.76429 -0.26261,0.297161 -0.64155,0.650568 -0.91715,0.917156 -0.28707,0.27774 -0.5451,0.329414 -0.89163,0.560534 -2.3691,1.707691 -1.94164,2.299523 0.61147,3.745032 0.94116,0.470501 1.99053,0.926781 2.75146,1.655919 1.33904,1.283248 1.90569,2.081938 2.59859,3.057168 M 137.715,35.107751 c 1.21653,0.88851 0.90079,2.616496 1.23445,3.828992 0.1298,0.467136 0.18131,0.665546 0.20376,1.070014 0.75241,2.321612 0.35029,4.19705 0.76432,6.2672 v 1.070005 M 73.42403,32.05811 c 0.271936,0.738306 0.668143,1.733568 0.76429,2.598593 0.08008,0.721033 0.07028,0.923572 0.611432,1.146439 0.224401,0.09248 0.928005,-0.389332 1.171966,-0.687864 0.542802,-0.664624 1.046936,-1.258481 1.579494,-1.655912 0.492966,-0.368083 0.824975,-0.614019 1.375721,-0.636966 0.370377,-0.01543 0.921131,-0.223601 1.171965,0.458582 0.106393,0.289511 0.05519,0.60562 0.05094,0.917148 -0.0074,0.542803 -0.07967,0.909506 -0.50948,1.528587 -0.425708,0.613114 -0.703759,0.794707 -1.171966,1.171966 -0.249927,0.201315 -0.515896,0.44237 -0.764289,0.611432 -0.491904,0.33476 -0.920209,0.588199 -1.37573,0.942527 -3.727661,2.048647 -0.551121,2.244649 1.171966,4.305566 0.619995,0.769799 1.236774,1.421738 1.885201,2.140019 0.249161,0.275912 0.504435,0.504436 0.764298,0.764299 0.636346,0.636345 1.671356,1.83827 2.14002,2.445734 M 152.60479,32.975258 c 0.20773,0.657751 0.26567,0.56864 0.86625,1.401256 1.50999,1.69872 0.84924,6.010139 1.57949,7.770262 0.82092,1.05207 0.83949,1.392938 1.12091,2.904309 0.10403,0.610845 0.19158,1.145712 0.28035,1.681446 0.18297,1.098438 0.1044,1.743813 0.89161,2.598594 m -28.12598,-15.591569 0.86626,5.350045 c 0.1002,1.165443 0.22505,2.328044 0.35662,3.490222 M 63.793971,34.045271 c -0.898347,0.37833 -1.066953,0.143381 -1.681446,0.356623 -3.39854,1.375697 -8.738406,3.973588 -8.865793,7.592024 -0.03682,0.884437 0.004,2.190306 0.764289,2.725925 0.306181,0.215682 0.646591,0.225462 1.070014,0.178384 0.410573,-0.04555 1.12794,-0.367626 1.528588,-0.611432 0.35356,-0.215226 0.490827,-0.424638 0.764289,-0.713391 0.613424,-0.647358 0.704682,-1.352799 0.942675,-2.03806 0.502272,-2.7467 -0.805637,-3.931531 -2.776978,-5.01881 -0.95674,-0.518191 -1.755577,-0.631922 -2.445736,-1.401256 -0.406712,-0.535824 -0.469815,-1.35724 -0.178384,-1.987163 0.223168,-0.446304 1.612654,-1.83676 2.012688,-2.114541 0.523635,-0.379447 1.294399,-0.48588 1.681446,-0.02547 m -26.444533,12.5344 c 0.163708,0.146598 0.737081,0.467905 1.070006,0.509481 0.292875,0.03665 0.339194,0.08423 0.764298,0.101959 0.587431,0.02448 0.647505,-0.02947 1.222863,-0.229291 0.206059,-0.07152 0.346378,-0.03192 0.611432,-0.101959 0.466836,-0.123201 0.570012,-0.396819 0.917156,-0.738763 0.299601,-0.294859 0.577195,-0.425708 0.917148,-0.713391 0.406451,-0.343929 0.497407,-0.560535 0.917156,-0.942528 0.88398,-0.804951 1.345918,-2.330935 1.070005,-3.38841 -0.111584,-0.428011 -0.322221,-0.820698 -0.917147,-1.248398 -0.325128,-0.233716 -0.550289,-0.376949 -0.917148,-0.560379 -0.608077,-0.304034 -1.660049,-0.453227 -2.292885,-0.611432 -0.952193,-0.406533 -3.899213,0.57353 -4.356465,-0.331243 -0.0931,-0.479676 0.118768,-0.756959 0.305716,-1.070014 0.88292,-0.578614 1.091026,-1.851666 1.37573,-2.267399 1.670474,-1.250946 2.631361,0.102767 5.732194,0.12738 l 0.76429,0.05094 1.987161,0.203822 0.917148,0.152858 1.070014,-0.05094 m 33.476022,3.388369 c -0.112066,1.863904 -0.109829,2.815811 -0.305715,4.662188 0,0.366099 -0.144295,1.171508 -0.203757,1.375729 -0.154694,0.53011 -0.290891,1.146897 -0.407676,1.987162 -0.100425,0.722714 -0.152857,0.850192 -0.152857,1.834303 M 99.86859,36.949605 c -0.507194,0 -1.713088,0.263839 -1.987155,0.305724 -2.260352,1.223664 1.296859,2.674325 2.445735,3.668599 0.1929,0.167838 0.36716,0.373439 0.61143,0.585905 0.58171,0.416118 1.07658,0.929312 1.52859,1.401257 0.44512,0.464386 0.71645,0.994348 0.68786,1.681446 -0.0324,0.777285 0.008,1.009328 -0.53501,1.528588 -0.26031,0.248703 -0.53486,0.46912 -0.91715,0.585905 -2.409249,0.326581 -2.916185,-0.279455 -2.90431,-1.961635 m 7.79579,-2.522168 c 0.56521,-0.399456 1.04687,-0.479636 1.68145,-0.815197 0.88963,-0.481962 1.58085,-1.214766 0.61142,-1.987162 -0.4063,-0.323748 -1.10622,-0.332924 -1.52859,-0.203911 -0.24182,0.07396 -0.92754,0.514223 -1.37572,0.942682 -1.02144,1.353184 -0.9457,2.522439 0.15286,3.821466 0.99755,1.177467 2.34303,2.356772 3.21003,2.90431 m 6.57293,-6.878633 c -1.3029,4.390636 -1.12957,8.64798 -3.92343,6.267201 l -0.63681,-1.37573 -0.4841,-2.751451 m 11.00582,5.65576 c -1.02293,0.08074 -1.2539,0.41104 -2.44575,-0.764289 -0.73937,-0.729139 -1.35493,-1.738769 -1.80877,-2.598594 -0.15286,-0.289666 -0.41257,-0.879547 -0.4841,-1.222872 -0.0641,-0.308467 -0.14383,-0.468663 -0.12733,-0.76429 0.0367,-0.662338 0.40477,-1.813821 1.19734,-2.089121 0.3479,-0.120751 1.05992,-0.05535 1.37573,-0.05085 0.3751,0.0049 0.59157,-0.02 0.91714,0.305715 0.37711,0.377105 0.53516,1.442073 0.30573,1.987162 m -33.170318,3.974324 c -0.44619,0.198253 -0.57184,0.159739 -1.070006,0.152857 -0.301895,-0.004 -0.861506,-0.01249 -1.222871,-0.22929 -0.412411,-0.24748 -0.793793,-0.948945 -0.891622,-1.452155 -0.0538,-0.276214 -0.02555,-0.453987 -0.02555,-0.76429 0,-0.538982 -0.06923,-1.618621 0.611432,-2.089122 0.791073,-0.268213 1.497134,0.09725 2.140019,-0.433046 0.04711,-0.02539 0.196736,-0.06555 0.458574,-0.07641 2.822742,1.259002 2.076762,3.948119 0,4.89147 z m 8.534589,-2.904309 c 0.257571,0.356613 0.307856,0.497243 0.331243,0.917147 0.02155,0.387039 -0.01171,0.616175 -0.458578,1.070014 -0.281558,0.285993 -0.440382,0.332466 -0.764289,0.611431 -0.299753,0.258173 -0.450474,0.441456 -0.764289,0.611432 -0.581519,0.141675 -1.099189,0.211536 -1.528588,0.382149 -0.280491,0.109144 -0.500462,0.206206 -0.917151,0.229292 -0.595537,0.03298 -1.483493,-0.361056 -1.987161,-0.738772 -1.117606,-0.994552 0.02057,-3.61784 1.375697,-4.280039 1.933457,-0.748567 3.250024,-0.770714 4.713116,1.197346 z m 58.876039,-1.528589 c -0.72077,0.849915 -0.7244,1.894574 -1.04444,2.751452 -0.12581,0.335373 -0.49389,1.332162 -0.78982,1.681446 -0.31918,0.376646 -1.0234,1.086977 -1.37573,1.375729 -0.41883,0.343161 -0.67611,0.61984 -1.37574,0.687865 -0.89574,0.08712 -1.55349,-0.105625 -1.96163,-0.535007 -0.43396,-0.456279 -0.50397,-1.051214 -0.48411,-1.528587 0.0162,-0.387341 0.0317,-0.586829 0.33125,-0.891622 0.68297,-0.695048 1.71339,-0.405079 2.11449,-0.331251 m -20.0245,-2.776977 c 0.52592,2.061407 0.75812,3.918624 0.76433,6.139869 M 43.616639,48.158513 c 0.640045,2.15406 1.000968,5.951092 1.222872,8.254362 0.774747,2.389482 -0.152303,5.9255 0.611432,7.795788 m 8.712936,-5.961484 c -0.365635,-0.408747 -0.524762,-0.884448 -0.738763,-1.222875 -0.329103,-0.520173 -0.684044,-0.610517 -1.09554,-0.713391 -1.680344,0.207796 -2.043701,2.104411 -1.171966,3.159127 0.239226,0.284629 0.730975,0.64491 1.019108,0.917156 0.775612,0.732493 1.910124,1.249615 2.573075,2.012689 0.245788,0.282638 0.356311,1.007188 0.127478,1.324667 -0.337185,0.26463 -0.571538,0.176858 -1.019108,0.280344 -0.971107,0.179764 -1.062519,-0.124579 -1.681445,-0.254818 m -1.844851,-6.916125 c -0.722967,-0.616886 -1.652736,-0.336762 -2.435189,-0.268222 -3.575888,0.646158 -3.646043,3.370531 -0.942674,6.114342 0.384589,0.409814 0.54815,0.55228 0.942674,0.815197 0.262614,0.175176 0.411349,0.26276 0.611441,0.433202 0.725155,0.617701 0.590492,0.461937 1.222863,1.044479 M 16.560675,47.776362 c 0.272394,0 1.995112,0.02139 3.057176,0.331242 0.582787,0.169977 0.747383,0.275299 1.375722,0.458582 0.58099,0.169364 0.877163,0.440688 1.375729,0.66233 0.323602,0.143846 0.446802,0.03045 0.76429,0.127332 0.248858,0.07617 0.525072,0.262613 0.764298,0.382148 0.678689,0.339349 1.477223,0.717058 1.834303,0.942683 m -3.362891,-1.452163 c 0,0.156074 -0.06735,0.224401 0,0.917156 0.06816,0.700853 0.08167,0.957965 0.331243,1.375722 0.127176,0.213086 1.133908,1.417003 1.299296,1.681445 0.235863,0.377406 0.529203,0.936569 0.687865,1.37573 0.173952,0.481807 0.376647,0.637114 0.713237,1.070006 0.353413,0.454296 0.439626,1.128406 0.662492,1.681446 0.376795,0.935498 0.492208,1.481966 0.585906,2.445735 0.348598,1.442064 0.0755,3.202442 -0.687865,4.254512 -0.210026,0.278663 -0.725922,0.59233 -0.99358,0.636966 -0.392542,0.06539 -0.441301,0.03911 -0.76429,0.101949 -0.247479,0.048 -1.907325,-0.165388 -2.292878,-0.433194 -1.174553,-0.815653 -1.567486,-1.27515 -1.834304,-1.808777 m 12.237649,-2.553376 c -3.045158,-1.873757 -5.364682,2.988652 -1.690408,2.655328 0.935302,-0.18894 1.885715,-1.377175 2.211407,-1.547943 0.518647,0.072 1.115557,1.150969 1.4572,1.471518 0.715759,1.088381 1.694376,1.216643 2.75145,1.197336 m 68.174888,-9.324432 c -0.70865,0.708649 -1.34286,1.57031 -1.37573,2.751451 0.5294,2.065407 2.90558,1.982353 4.28004,1.987162 0.60471,0 2.55534,-0.133446 2.90431,-0.152859 0.48774,-0.07731 0.92831,-0.0065 1.37574,0.101949 0.3346,-0.05576 0.72362,-0.215372 1.22286,-0.25481 M 79.675794,57.164762 c -0.235046,3.673375 -0.743652,4.555698 -1.666009,7.960982 2.636112,-7.806948 2.840023,-8.127489 3.362802,-8.050606 0.913156,0.612908 0.764053,2.390698 0.764298,3.311984 0.826787,5.484536 2.342037,-6.223943 4.28012,-5.502902 1.325004,1.511339 0.550657,4.518358 0.86625,6.267201 0.03763,1.671364 0.262834,2.784561 0.815156,4.280038 m 24.304559,-6.318107 v -1.070005 c 0.16767,-0.84327 -0.20591,-1.72712 -0.15289,-2.445736 0.0671,-0.88918 0.53439,-0.691996 0.91715,-0.611431 m 7.03146,10.139564 c 0,-0.567718 -0.20713,-1.024463 -0.28019,-1.375731 -0.0563,-0.269944 -0.0154,-0.337046 -0.0764,-0.611431 -1.07301,-8.562723 0.32864,-4.452588 -2.5477,-3.184499 -0.47599,-0.07274 -0.9277,-0.05273 -1.37572,-0.382148 -0.40096,-0.294867 -0.69429,-1.019565 -0.71339,-1.477682 -0.0375,-0.898348 0.87848,-2.167538 1.47769,-2.26735 0.62808,-0.104711 1.16875,0.07885 1.83429,0.611431 m -28.737427,-0.02555 1.681453,0.305715 0.76429,0.05086 1.681436,0.07641 0.917155,0.02555 v 1.37573 c 0,0.993114 -0.08818,1.321917 -0.152856,1.987162 -0.08424,0.866551 0.163104,1.211246 -0.02559,2.445734 -0.116331,0.761539 -0.132215,1.415616 -0.127335,1.681438 0.0021,0.119845 -0.146742,0.300981 0.178387,0.535007 0.03295,0.02383 0.792877,0.100892 1.04449,0.07641 0.531036,-0.05167 1.042345,-0.265209 1.528577,-0.305715 1.588966,-0.132377 2.057025,0.305715 3.21003,0.305715 m -5.655742,-8.101504 c 0.466059,0 1.250843,0.458574 2.292877,0.458574 m 25.221725,0.917156 c 0.31672,-0.20009 0.93809,-0.475243 1.22286,-0.585913 0.37238,-0.144907 0.48884,-0.172418 0.91716,-0.178385 0.40476,-0.0057 1.62045,-0.152858 1.98716,-0.152858 0.3719,0 0.83308,0.01437 0.91715,0.611441 0.056,0.39743 -0.006,0.552884 -0.20377,0.917147 -0.33659,0.621219 -0.797,1.40951 -1.27391,2.14002 -0.28539,0.437324 -0.30312,0.645979 -0.66234,1.070013 -0.35632,0.420509 -0.49985,0.659735 -0.8152,1.044479 -0.45551,0.555791 -1.26414,1.157753 -1.09553,2.012688 0.14032,0.711253 1.23952,1.042038 1.91073,1.070014 0.95154,0.03959 1.04234,0.07339 1.68144,-0.05094 0.32085,-0.06237 0.55443,-0.128246 0.91715,-0.203911 0.36472,-0.076 1.12092,-0.276214 1.52858,-0.356622 m 6.26722,-8.254363 c 0.53362,0.0422 0.78354,0.256345 1.37571,0.305725 0.73709,0.06146 2.096,0.29027 3.21004,0.305715 0.54172,0.0074 0.72501,0 1.37572,0 0.56222,0 1.07032,-0.190768 1.27377,0.305716 0.10991,0.267806 -0.10929,0.771327 -0.22929,0.917148 -6.4756,1.513037 0.61835,1.702646 0.94269,4.891479 -0.0792,0.815041 -0.77087,1.541731 -1.27377,2.14002 -0.19963,0.237388 -0.42633,0.438394 -0.7134,0.585905 -0.4737,0.243503 -0.52828,0.254964 -1.07001,0.586061 -0.49587,0.302964 -1.60562,0.35983 -2.14002,0.382148 -0.46208,0.01926 -0.59858,-0.01682 -0.76429,-0.02555 M 42.852317,63.29144 c -1.851373,0.12427 -5.266698,0.540232 -5.197195,-1.987162 0.05077,-1.219655 0.840265,-2.660806 1.681445,-2.904309 m 73.066403,0.713383 c 0,0.478762 0.002,0.664331 0.25481,1.528588 0.39269,1.346685 0.47509,2.626111 0.66234,3.515749 m -49.526182,-3.52988 c 0.363186,3.753832 -0.01877,4.164185 0.102394,4.237583 0.244075,-3.337651 1.920827,-9.195038 2.64906,-3.713971 0.04286,1.111132 -0.01257,2.338371 0.203764,3.515748 M 132.0152,60.141578 c -1.42348,0.770013 -2.41724,0.869385 -2.67047,2.232714 -0.34624,2.352511 2.38177,4.650801 4.91701,2.904309 0.74212,-0.48441 1.79516,-1.948638 1.50304,-2.904309 -0.85751,-1.524979 -2.85994,-2.666643 -4.35728,-2.677459 m -74.186476,1.454588 c -0.325895,0.538525 -0.458574,1.548456 -0.458574,1.834303 0,0.937025 0.622591,2.186951 1.834304,2.675026 0.356459,0.143535 0.446035,0.07641 0.917148,0.07641 3.157404,-0.670502 3.652247,-2.421131 2.292877,-3.821465 -1.291982,-1.640686 -2.938595,-2.175849 -3.974323,-2.598594 m 33.96005,5.732194 1.070004,0.101959 0.764289,-0.203912 1.070011,-0.05094 m -23.107082,0.687865 c 0.917916,1.291967 0.204982,3.732355 -1.070014,5.197196 -0.153616,0.176547 -0.40125,0.45032 -0.611431,0.535006 -0.378786,0.152548 -0.598746,-0.04604 -0.76429,-0.07641"
       id="path175213"
       sodipodi:nodetypes="ccccscccsccsccccccccccccscccccscccccccccccccccccscccccccccccccccccccsccscccccscccccccccccccccccccccccccccccccccscccccccccccccccccccccccccccccccccccsccccccccsccsccccccsscccccccccccccccccccccccccccccccccscccccccccsccccccccccccccccccccccccccccccccccccccscccccccssccccscccccsscccccccccccsssccccccccccccccccccccccccsccccccccccccc" /></g></svg>
