<?xml version="1.0" encoding="UTF-8" standalone="no"?>
<!-- Created with Inkscape (http://www.inkscape.org/) -->

<svg
   version="1.1"
   id="svg41963"
   width="3340"
   height="1157.3333"
   viewBox="0 0 3340 1157.3333"
   sodipodi:docname="Casey - Pulsz - Envelope 6.svg"
   inkscape:version="1.1.2 (b8e25be833, 2022-02-05)"
   xmlns:inkscape="http://www.inkscape.org/namespaces/inkscape"
   xmlns:sodipodi="http://sodipodi.sourceforge.net/DTD/sodipodi-0.dtd"
   xmlns="http://www.w3.org/2000/svg"
   xmlns:svg="http://www.w3.org/2000/svg">
  <defs
     id="defs41967" />
  <sodipodi:namedview
     id="namedview41965"
     pagecolor="#ffffff"
     bordercolor="#666666"
     borderopacity="1.0"
     inkscape:pageshadow="2"
     inkscape:pageopacity="0.0"
     inkscape:pagecheckerboard="0"
     showgrid="false"
     inkscape:zoom="0.37065868"
     inkscape:cx="1354.3457"
     inkscape:cy="577.35057"
     inkscape:window-width="1920"
     inkscape:window-height="1017"
     inkscape:window-x="-8"
     inkscape:window-y="-8"
     inkscape:window-maximized="1"
     inkscape:current-layer="g41969" />
  <g
     inkscape:groupmode="layer"
     inkscape:label="Image"
     id="g41969">
    <path
       style="fill:none;stroke:#5b4f3e;stroke-width:0.277837"
       d="m 121.4381,6.1336592 1.38919,-0.8335136 -0.55567,1.9448644 c -0.49789,-0.2189348 -0.88297,-0.5392833 -1.60924,0.08113 -0.99466,0.8496275 -1.44226,2.3557867 -1.90374,3.530764 -0.86658,2.205754 -2.09462,5.367271 -0.29924,7.489397 1.35196,1.5984 3.98503,1.562005 5.75569,0.729879 1.87624,-0.881301 1.60452,-3.026209 3.11679,-4.045042 0.88825,-0.598463 2.37079,-0.526781 3.23348,0 1.09579,0.669034 0.65097,1.886521 -0.0928,2.720311 -1.33557,1.496991 -3.27515,2.111013 -4.58905,0.884915 M 87.264045,5.5779828 c 0.367303,1.5417231 0.703209,2.8961827 0.323404,4.4454072 -0.172538,0.703486 -0.562622,1.494211 -0.407311,2.217701 0.220604,1.026334 0.907419,1.321952 1.755102,1.753712 1.963202,0.999383 2.752262,1.842066 4.163401,3.252371 M 121.16027,6.9671729 121.99378,7.24501 M 14.748359,22.803932 c 1.16942,-0.527893 2.425248,-1.045782 3.611892,-1.713427 0.869355,-0.488995 1.651191,-0.991881 2.500264,-1.531998 1.083011,-0.688759 2.91452,-1.803446 1.542834,-3.313217 -1.735653,-1.909857 -7.416328,-1.074676 -7.551357,-4.555152 -0.05056,-1.301392 1.339457,-2.6005623 2.398019,-3.2356997 1.558116,-0.9352023 3.825828,-1.5797855 4.444295,0.457599 m 66.68109,0.2778393 C 89.753751,8.6442023 90.429174,8.289959 92.542964,7.8006865 m -20.560001,0.2778372 0.436761,3.0562173 0.365912,2.06489 3.364895,0.991325 m 24.171899,5.556759 c 1.90068,-0.519836 6.85426,-1.670362 7.09431,-4.167569 0.23477,-2.442749 -6.56587,-3.537986 -3.18819,-6.2707998 0.40786,-0.3300714 0.86796,-0.5384498 1.37224,-0.6909828 0.63264,-0.1911518 1.28806,-0.2333838 1.94542,-0.2620005 m 28.33946,0.8335137 0.27784,2.2227014 m -40.286491,2.500541 c -0.179483,-1.520883 -0.224492,-2.763098 1.394468,-3.709136 0.83296,-0.4870486 2.138519,-0.763498 2.753373,0.236164 1.34446,2.18575 -2.667521,3.685795 -3.870002,3.750809 0.326181,1.238881 0.810453,2.349955 3.056216,2.500541 m 48.899466,5.556759 c 0.69904,-0.405365 1.39419,-0.79934 2.2227,-1.318342 1.45143,-0.909363 5.43868,-3.383786 4.41151,-5.597598 -0.46426,-1.000773 -1.77816,-1.336123 -2.74448,-1.554226 -0.92909,-0.209766 -2.84311,-0.104189 -3.10289,-1.294168 -0.49511,-2.268546 2.72559,-2.112957 3.93641,-2.182695 M 62.814313,20.581228 c 2.424968,1.598957 7.559135,-0.585683 7.177386,-3.885563 -0.323404,-2.794215 -4.213968,-1.374185 -5.619549,-2.512487 -1.301394,-1.054116 0.295341,-2.849504 1.498378,-3.048437 m 20.282167,0.833514 h 0.555674 m 52.233521,5.278919 c 0.71488,-1.194702 0.96882,-1.138857 1.55311,-2.24743 0.48011,-0.911031 0.80434,-2.420524 1.97571,-2.069892 0.59541,0.178372 0.74322,0.993826 0.83185,1.539221 0.30006,1.844288 -0.12948,3.175964 0.64041,5.000804 m -95.854066,-2.50054 c -1.591454,-0.429539 -2.442472,-2.170749 -0.99077,-3.405737 1.116908,-0.949929 2.978423,-0.355911 4.046988,0.349519 -1.160251,1.684254 -2.000156,2.239374 -3.056218,3.056218 l 3.056218,1.667027 M 71.149449,13.079606 H 72.2608 m 8.890813,0.833513 c -0.335629,0.310624 -0.754886,0.891026 -1.66814,1.242213 -0.734326,0.282561 -2.570277,-0.08613 -1.685086,-1.39947 0.785724,-1.165806 2.860063,-0.131416 3.618837,0.272559 1.094683,0.582905 1.937086,2.158801 2.512767,2.663076 m 3.611892,-3.334052 c -0.674867,1.264438 -0.171148,1.93625 -1.111351,3.889729 M 72.816476,13.635282 v 3.611892 M 53.9235,19.469877 c 0,-1.690922 -0.393696,-2.893959 0.552342,-4.392896 0.778779,-1.233321 2.372734,-1.566449 3.409071,-0.03612 1.301392,1.921526 -0.157534,4.109499 -1.738989,4.66851 -1.080233,0.381749 -1.600346,0.07918 -2.222424,-0.239496 -0.587627,1.987374 -0.393975,3.197913 -0.833514,5.556757 M 41.976472,14.746633 c 2.466087,-0.09058 0.800173,1.673139 -1.38919,2.778378 l 3.056217,1.38919 m -3.889731,-3.611892 0.555676,2.222702 M 27.80674,15.857984 c 0.208099,1.352792 0.634024,1.517274 1.111351,1.944866 M 35.5862,16.41366 c 0.687092,1.429476 0.889359,2.849506 -0.163646,3.990307 -1.64869,1.786499 -2.526659,0.03945 -4.003922,-0.171147 -0.703486,-0.100299 -1.256383,0.46121 -1.943754,0.4651 -2.130738,0.01194 -2.304388,-2.5161 -1.668138,-3.728583 m 107.24542,-0.27784 0.27784,1.38919 M 31.696469,18.914201 v 0.555676 M 181.72892,31.416906 c -0.22171,1.756491 -0.13336,2.19992 -0.01,4.167291 0.0356,0.562622 -0.0247,1.068008 0.29534,1.55089 0.47818,0.721823 1.40475,0.821567 1.9371,0.949928 m 25.83892,-6.668109 c 0,2.547218 -0.28089,8.890811 0,11.113515 m -11.94702,-9.16865 c -0.25645,0.886858 -0.47817,2.622234 -1.1147,3.523541 -0.54399,0.770167 -2.51859,0.971041 -3.58132,0.358411 -1.88486,-1.086348 0.41286,-4.974689 1.36196,-5.54898 m -61.4019,0.555677 c -0.0636,3.078166 -2.42664,6.660051 -2.051,9.684316 0.23644,1.902357 3.61328,1.981262 4.82937,1.984875 -0.0436,-2.107679 -0.61291,-3.432966 -0.80962,-5.834596 -0.13225,-1.611738 -0.30062,-2.721422 -0.30173,-4.445405 M 166.17,32.806096 c -0.0119,1.427253 -0.54261,2.855895 -0.11502,4.167569 0.29951,0.919919 0.88964,1.602011 1.27778,2.500538 1.0116,2.341063 1.15663,3.665793 2.1713,5.278921 M 98.933236,35.306637 c 0.235885,2.989812 -0.454265,5.024975 0.277838,7.501621 1.006046,-0.782669 1.470876,-2.079337 3.335166,-2.81672 1.44198,-0.5704 3.094,0.402864 3.22209,1.983485 0.18059,2.228537 -1.75205,4.21869 -3.77888,4.497361 -2.694469,0.37008 -3.236809,-1.074954 -3.056214,-3.386287 M 200.63413,36.357419 c 0.8863,-0.318957 1.89402,0.02973 2.76614,0.26478 4.26092,1.149138 2.31106,5.53453 -1.11134,6.561419 -4.34955,1.305003 -4.51404,-5.797643 -1.6548,-6.826199 m -22.5171,0.338406 3.33406,0.833514 m -15.55893,-0.277837 c -1.21387,1.638688 -1.48365,3.391567 -2.2227,5.556756 1.78594,0.864354 3.15791,0.679036 4.44541,0.833514 m 13.33622,-6.112433 c 0,1.390023 -0.0117,4.796594 -0.83352,7.501623 m 16.11459,-7.223786 c -0.0267,1.288335 -0.27783,3.250982 -0.27783,5.001082 M 76.150531,38.362853 c -0.01027,3.542989 -1.111353,7.386041 -1.111353,10.55784 m 41.675682,-0.27784 c 1.62619,-0.959095 3.52382,-1.725927 4.81854,-3.413515 0.44315,-0.577625 0.75544,-1.3389 0.242,-2.026828 -1.09468,-1.467538 -4.22536,-0.623745 -4.87661,-2.645572 -0.51483,-1.5984 1.35085,-1.57923 2.31661,-1.360572 m 21.67136,2.778378 c 0.26033,0.88047 0.0514,2.49832 0.72237,3.122342 0.6257,0.582072 1.24583,0.161702 1.73955,-0.386194 0.70154,-0.778501 1.20887,-1.509493 1.98348,-2.418579 1.01911,-1.195536 1.57729,-1.390855 3.33406,-2.406075 2.88479,-1.667027 2.04349,1.373074 0.27783,2.644183 m 23.61622,2.778378 c 0.14559,-1.126354 0.54874,-3.456581 1.23722,-4.711019 0.51539,-0.939091 1.55617,-1.64591 2.47109,-0.72099 0.68348,0.690706 0.87713,1.764549 0.90547,2.653631 0.0981,3.094836 -2.95953,3.476308 -4.61378,2.778378 l -1.38918,4.167568 M 65.870528,47.80934 c -1.159418,0.694317 -1.333066,1.569229 -1.389188,2.77838 -2.403853,0.303953 -5.519807,1.333899 -7.226843,-1.678142 -0.901028,-1.590065 0.01557,-5.072764 0.991048,-6.321088 0.469825,-0.600964 0.981325,-0.791838 1.47921,-1.501159 0.426759,-0.60791 0.749329,-1.204706 1.42253,-1.613128 m 53.067035,1.111353 c -0.36675,0.867688 -0.46844,2.010989 -0.99994,2.706419 -0.49788,0.651808 -1.1133,0.987991 -1.66064,1.433364 -0.6907,0.562622 -1.38585,1.00633 -2.29938,0.768779 -1.50505,-0.391751 -0.88547,-2.064336 -0.31896,-3.241534 m -69.181632,4.167568 c 0.872412,0.25811 1.29389,0.564566 1.74371,1.394468 0.362302,0.667922 0.533726,1.436978 0.31868,2.213256 -0.448151,1.618127 -2.868121,3.128733 -4.546538,2.218813 -2.269937,-1.230266 -0.366192,-3.424351 0.826846,-4.404009 0.761275,-0.625135 1.1872,-0.990768 1.657302,-1.422528 -0.922977,-0.850741 -3.305438,-2.179361 -2.606397,-4.16229 0.467324,-1.325287 1.360017,-1.353904 2.606397,-1.394469 m -16.114596,1.389191 c 0.984934,-0.460379 6.069923,-2.21937 6.206342,0.3109 0.08029,1.489489 -1.468097,2.195475 -2.316613,3.300991 1.260272,0.897417 3.075944,1.273886 3.287657,3.057328 0.335626,2.826445 -3.069554,4.274258 -5.232522,4.722132 M 12.525656,42.530421 c 1.750658,-0.325071 8.472945,-1.114408 7.466338,2.222981 -0.694874,2.303554 -2.75893,4.312599 -4.33066,6.112155 -0.542895,0.621524 -1.799556,1.776774 -1.537553,2.690026 0.472323,1.64869 5.459235,0.367025 6.737011,0.366191 m 73.071363,-11.66919 c -0.554564,2.283271 -0.154757,1.811779 -0.01277,3.889728 0.0664,0.975211 0.194486,2.429138 0.568456,3.611894 M 86.986214,47.80934 c 0.668199,-1.929305 1.277777,-1.550613 1.901799,-3.334888 1.415307,-4.047543 1.619517,0.750162 3.37712,0.834347 l 0.277838,-0.277837 0.277839,-0.277838 0.277831,-0.277839 m 37.508109,-1.667027 -1.38919,3.611894 m 15.83676,-3.611894 c 1.13386,1.286111 2.81534,2.648906 5.8346,2.77838 m 12.78054,-2.500541 -1.38919,2.778378 M 155.89,43.363934 c -0.11558,2.654464 -1.58312,6.402496 -3.88973,7.501623 M 47.255391,43.641772 c -2.398296,0.918254 -4.91134,1.725652 -6.390272,2.77838 m 72.515691,-2.77838 1.66702,2.222703 m -27.783785,0.555677 c -0.11169,-1.048006 -0.233383,-2.352455 1.667028,-2.500541 m 80.572987,0 h 1.11135 m -34.17406,2.778378 c -0.16837,-1.331399 -0.24644,-1.772606 -0.27784,-2.500541 h 1.94487 m -71.682176,1.667027 c 1.655915,-1.094126 5.326986,-1.582009 5.893219,0.570957 0.667924,2.538606 -3.708023,5.489798 -5.892662,5.218906 -0.90992,-0.112801 -1.404194,-0.609019 -1.945421,-1.066618 m 18.615137,-5.834596 -0.989937,2.084339 -2.259932,0.973823 -0.917699,-1.946811 m 3.611892,1.111351 1.667027,2.222704 m 28.339462,5.556758 v 13.336216 m -5.55675,-11.669189 0.26311,4.445406 -0.17504,2.222701 -0.2031,1.667028 -0.99633,5.556758 M 144.22081,59.75637 c -1.22499,1.069952 -1.03689,3.672738 -2.51693,4.079214 -0.57985,0.159201 -1.02745,0.08696 -1.65064,0.08835 -1.13246,0.0022 -4.0681,0.29701 -5.27364,-0.167536 -2.51249,-0.968264 -1.10802,-4.405951 0.27256,-5.667057 m 18.3373,4.723242 c 1.35252,0.179762 3.47575,1.17192 3.73914,2.779491 0.24506,1.497545 -2.17797,3.968359 -3.70885,3.257092 -2.17937,-1.012719 -0.9391,-4.437626 -0.0303,-6.036583 -2.36607,-1.775938 -1.24555,-4.542926 2.2227,-4.723242 M 38.920254,58.922856 c -0.355633,3.184577 0,5.765691 0,9.168648 0,1.369463 0.275616,3.580498 -0.280337,4.698517 -0.504555,1.014109 -0.936315,1.307228 -1.618684,2.251599 -1.077456,1.490877 -4.165624,4.5746 -5.594823,2.386627 -0.387027,-0.592351 -0.240885,-1.664804 -0.343684,-2.390794 -0.168927,-1.193871 -0.839349,-2.900907 -2.136852,-2.04989 -1.382243,0.906309 -1.809002,1.42003 -2.372734,2.465257 -0.409535,0.759331 -0.50761,1.819283 -0.711267,2.363011 M 148.11054,58.922856 c -0.52539,1.244713 -0.2545,3.556601 -0.80267,4.357053 -0.42287,0.617634 -1.0619,0.600407 -1.69787,0.685703 -1.17998,0.157813 -1.97876,0.05862 -2.77838,-0.319513 m 17.78163,-4.167568 c 1.01522,-0.136697 5.0886,-1.496991 4.40734,0.572069 -0.58568,1.778996 -3.31711,4.403174 -4.43791,6.09604 -1.09746,1.657858 -1.44225,3.02232 0.58624,3.056217 m 12.78054,-10.002163 c 1.28028,-0.135863 3.94169,-0.287563 3.80972,1.672028 -0.19504,2.89896 -6.21579,7.151268 -8.8108,7.664712 -0.96576,0.191154 -1.87846,-0.03723 -2.13324,-1.017997 -0.63458,-2.441918 1.86541,-5.540922 4.35595,-5.818203 m -73.904881,-2.50054 c 1.525886,0.0044 3.455471,-0.01723 4.715461,2.50054 1.51505,3.027322 -2.248538,7.613591 -5.271137,8.120367 -5.097491,0.854629 -3.78693,-5.338098 -2.628623,-8.119256 0.442596,-1.063284 0.996603,-1.899021 2.056832,-2.110734 1.338623,-0.267001 1.145804,1.61924 0.571791,2.943137 M 58.368905,60.034207 c -0.561788,3.026765 -0.55373,5.824593 -0.555674,8.612974 2.664743,-0.658199 3.486031,-0.963265 6.668109,-2.222704 m 75.5719,-6.39027 0.27367,3.611892 -0.55151,6.112433 m -43.620542,-8.612974 0.555675,0.277839 m 57.512437,1.389188 c 1.41253,-1.502546 2.58445,-1.389188 5.00109,-1.389188 m -55.0119,1.389188 2.77838,0.555677 m 0.55567,-0.27784 c 1.35696,0.397309 2.99426,0.01194 4.44541,0 m 35.84108,0 h 0.83352 m -1.11136,1.111353 v 5.278919 M 6.1353858,79.482858 c 2.1385168,0.488716 4.5873802,1.136079 6.3269232,-0.432871 3.786652,-3.416018 -4.7035179,-6.5203 -6.0354727,-8.761618 -1.2847216,-2.162411 1.5219959,-4.818819 3.5982787,-4.975243 m 39.730817,10.835677 c 0.805174,-0.06418 4.630724,-0.476213 4.071437,-2.156576 -0.526781,-1.583399 -2.940359,-0.924646 -3.57522,-2.848673 -0.507887,-1.539777 0.883525,-2.18964 2.004324,-1.940697 m 5.278919,-0.277839 0.03251,2.577224 1.634799,1.000496 4.167289,2.534715 m 21.393517,-5.834596 c -1.563671,3.705523 -0.278116,8.471833 -4.167568,10.002164 m -5.001082,-9.16865 -5.001081,6.945946 c -1.206928,-0.658198 -2.000433,-0.58596 -3.015096,-1.68342 -0.780448,-0.843793 -0.861576,-1.659526 -0.874635,-2.761985 m -23.89406,-1.111353 c 0.0015,1.740376 0.692094,4.445128 2.778378,2.500541 m 11.391354,-1.944865 -0.277839,4.167568 M 31.418632,74.203939 c 0.909919,-0.637638 1.342513,-1.948478 3.334054,-1.667027 m 3.889731,0.555674 1.006051,1.66814 1.010773,1.696478 1.507549,-0.599853 1.19887,-1.375575 m -23.616219,3.056218 c -0.808231,0.388971 -1.883741,1.163028 -3.217362,0.270058 -1.813726,-1.214429 -0.231994,-4.243141 1.550612,-4.321768 2.659742,-0.117248 1.81984,2.712253 2.348008,4.038373 0.537896,1.350013 1.720095,1.050228 2.37496,0.84685 M 26.139713,73.9261 v 0.833513 m 19.170813,-0.277837 1.389188,2.500541 m 23.894059,0 C 69.909181,79.35283 67.134414,82.65271 66.704042,84.48394 M 622.93548,81.427723 c 0.075,3.477975 1.55588,7.1371 2.10323,10.835677 0.15837,1.074122 0.0444,2.395795 0.51678,3.24987 0.61124,1.113017 2.77283,1.400025 4.32593,1.751212 m 2.77838,-13.614056 c -0.67236,2.820331 0.39731,6.363598 1.94488,8.890811 m -497.88549,5.278921 c 1.33056,-1.972372 1.83817,-2.780601 3.10234,-4.723245 0.56595,-0.869631 1.55005,-2.877566 2.56555,-2.198809 1.12636,0.75294 0.34257,2.303555 0.72238,3.588 2.01683,-1.619797 3.36851,-5.75958 6.39027,-6.945949 0.52372,1.78872 -0.58568,3.981974 0,6.112435 1.58673,-0.67737 3.15402,-3.414351 5.8346,-4.445408 m 367.57952,-1.11135 c 0,6.291638 1.03076,12.419628 1.86428,18.615138 0.3612,2.68253 0.63903,5.81598 1.19192,8.0573 M 79.762423,89.207182 c -1.41614,3.355726 -0.696541,8.839969 -1.267218,12.502708 -0.299232,1.92069 -0.218381,3.64634 0.433704,5.00108 M 582.64898,89.207182 c 0.075,3.637454 0.82518,9.44649 0.83351,12.224868 l -1.66703,-0.27784 M 61.980799,95.319617 c 0.735159,-0.964375 1.217484,-1.855124 1.788997,-3.055107 0.43315,-0.909363 1.002717,-1.840675 2.101845,-1.766215 6.191893,0.419537 1.747599,7.986728 -1.112741,9.583735 -0.910197,0.50817 -1.643412,0.59902 -2.214646,-0.358406 -0.393697,-0.659586 -0.269504,-1.472819 -0.289785,-2.181305 -0.01694,-0.595962 -0.04862,-1.105516 -0.238662,-1.667027 -0.36758,-1.084679 -0.792395,-1.720927 -0.868522,-2.778379 M 482.34951,113.93475 c 0,0.92715 -0.0973,1.89819 -0.025,2.77838 0.10279,1.26861 0.93909,2.54361 2.25048,2.68975 2.23382,0.24867 7.21267,-3.29488 6.20691,-5.95073 -0.24451,-0.6507 -1.0947,-1.09524 -1.76428,-1.21304 -0.82241,-0.14475 -1.3614,0.22338 -2.22271,0.25367 -0.80017,0.0281 -1.47253,-0.16587 -2.22269,0.15086 -0.72516,0.30562 -1.37253,1.13108 -2.22271,0.9177 -1.26971,-0.31868 -2.38941,-1.8015 -3.61188,-2.46859 -3.63969,-1.98598 -8.29347,-3.78665 -10.68288,-7.44216 -1.96432,-3.00454 -0.64737,-6.33193 0.95854,-9.164209 0.86963,-1.533388 2.28383,-3.311273 4.16757,-3.301825 1.3892,0.0067 1.80039,0.928255 2.01988,2.190195 0.1667,0.952151 0.31673,1.592567 0.48066,2.222703 M 155.33433,91.985563 v 0.555674 m 400.64221,0.277839 c 2.09491,-0.0075 2.67558,-0.467047 3.61191,-0.833513 m 95.29838,8.335137 c -0.67237,0.94437 -1.00298,2.17214 -2.25048,3.0151 -2.23382,1.50588 -4.72603,-0.39815 -5.29838,-2.73726 -0.57789,-2.363571 1.25584,-5.857104 2.87285,-7.484123 1.21137,-1.217486 2.10046,-0.807952 2.16991,0.816287 0.0333,0.779058 0.006,1.44976 0.006,2.222427 m -290.6185,-3.611894 c 1.8504,-0.06918 1.62258,0.746551 2.10046,1.945144 0.36397,0.915754 1.46144,2.483037 2.15326,3.333777 2.98118,3.671072 6.93483,6.827312 8.97137,11.113512 1.17526,2.47415 3.00899,4.39873 4.27593,6.66283 1.01966,1.82234 2.87562,3.20986 3.89251,3.61717 M 558.75493,93.096913 c 2.04211,0.492051 2.6978,0.584294 4.72323,0.965209 1.93376,0.363689 4.9372,0.287285 6.66811,0.423982 m -447.59681,6.945946 c -1.85263,0.78628 -5.76514,1.82845 -7.413,-0.0411 -2.05572,-2.331893 1.77066,-7.550522 4.07894,-8.016179 m 283.39463,0.833513 1.11137,-0.277837 m -248.94275,0.277837 v 0.555677 m 408.42168,-0.555677 c 0,1.940699 -0.15836,2.905629 0.1167,5.001082 0.48343,3.667744 -1.10024,8.686604 -0.39453,11.947024 1.27249,-0.35813 5.41505,-1.49726 6.94594,-1.89179 0.73906,-0.1906 1.23083,-0.24867 1.65869,-0.94993 0.37509,-0.61347 0.28617,-2.40469 0.28617,-2.99287 m 49.73299,-11.113516 3.61188,1.111353 m -501.21952,0.277837 c 1.81594,-0.956873 4.12589,-1.369185 6.11243,-1.019943 1.26638,0.222548 2.9448,0.933814 3.23375,2.410244 0.22783,1.164975 -0.55345,2.224092 -1.31806,3.050935 -1.31362,1.42059 -4.26842,3.52799 -6.31998,2.37385 -1.32112,-0.7435 -0.86907,-2.33801 -0.31895,-3.481031 m 17.78162,-4.167568 -0.55568,1.111351 m 502.33089,-0.277838 c -1.58368,1.861236 -2.95897,5.253636 -5.27891,6.381376 -2.92286,1.42115 -2.86175,-4.309261 -2.50054,-5.825699 m -234.77302,-0.277839 1.93375,16.948108 0.0361,8.89081 -0.30283,6.39028 M 589.31708,103.0991 c 1.40309,-0.24172 6.46252,-2.72587 5.09556,-4.276761 -0.81407,-0.922423 -2.50888,0.01056 -3.34796,0.716265 -1.32528,1.113296 -2.7756,2.711416 -1.72814,4.641556 1.19192,2.19631 4.36761,0.20032 5.53174,-0.43176 0.75016,-0.40814 0.98911,-0.19782 1.39476,-0.0936 0.73349,-1.18998 0.97242,-2.26076 1.60589,-3.61189 1.15858,-2.468868 3.75081,-4.444849 6.17356,-3.889729 m -220.60328,0 c -3.14512,4.706569 -1.30583,15.589479 -4.16757,19.170809 M 625.71386,96.153131 c 0,2.144908 0.27783,4.733249 0.27783,7.223779 -2.28383,0.33313 -4.06755,3.4138 -6.94038,2.68975 -1.26417,-0.31784 -1.542,-1.48615 -2.3005,-2.21464 -0.61959,-0.59569 -1.03635,-0.81935 -1.43643,-1.59146 -0.33895,-0.65403 -0.35285,-1.56172 -1.07523,-1.65174 -0.71683,-0.0895 -1.3225,0.60485 -1.86151,1.02966 -1.08634,0.85547 -3.1868,2.54861 -4.63157,1.29306 -1.20303,-1.04717 0.0222,-2.76254 0.69461,-3.722194 1.35307,-1.920692 2.4533,-3.095947 4.49264,-1.389188 M 82.540801,105.59962 c 1.197482,-0.0622 5.903777,-1.60424 4.525425,-3.46936 -0.857686,-1.16025 -3.628565,-0.47705 -4.038653,-2.12352 -0.401197,-1.60979 2.267713,-2.311609 3.125122,-2.464421 m 529.281165,0 -1.11136,2.778381 m 2.77839,3.33405 c 0.53622,-1.09551 0.59734,-2.19658 1.12524,-3.33405 0.6029,-1.299728 1.3364,-2.351622 2.76448,-2.500542 M 89.764586,98.097995 c 2.083784,0.12336 4.012258,-0.260889 5.834596,0.277837 -0.899639,1.214986 -2.005711,2.606958 -3.005094,3.889728 -0.473436,0.60791 -1.08468,1.3903 -0.785449,2.18159 0.761554,2.01321 5.822926,0.15892 7.124597,-0.23672 m 534.282244,-5.278921 -0.83351,1.667031 m -221.15895,25.28324 c -1.18638,-6.38971 0.20004,-13.11895 -0.54178,-19.72649 -0.30286,-2.70808 -0.89186,-6.192725 0.54178,-6.668105 m 95.85407,6.112435 c -1.0947,-1.15386 -3.70637,-4.04504 -2.22271,-5.834597 M 62.536473,100.59854 c 0,1.84651 -0.295897,2.62945 0,5.27892 m 12.502705,0 c -1.396413,-1.06051 -1.577285,-2.09574 -2.222702,-3.05622 -1.099404,0.83462 -2.047943,2.70864 -3.826384,2.04294 -2.26688,-0.84879 -0.09002,-3.84555 0.770167,-3.98781 m 514.555751,8.61298 c 0,-2.81561 -0.46398,-5.62122 -0.55567,-7.77946 1.38918,0.24672 2.99509,0.0103 4.72323,0.55567 m -81.96216,-0.27783 v 0.27783 m -468.434669,0.55568 c -0.312012,1.60924 -1.123854,4.631 -0.01723,6.35999 0.537062,0.83934 1.641467,1.20776 2.516377,0.95604 0.553453,-0.1592 1.043282,-0.41676 1.3828,-0.98466 0.362578,-0.60624 0.277005,-1.15164 0.285618,-1.88596 m 529.558994,1.38919 c 1.11137,0.0759 1.54479,-0.31091 1.99489,-1.66703 0.38062,-1.14331 1.44752,-3.76443 2.94785,-3.03232 1.70593,0.83295 2.45332,5.43673 3.3924,7.19988 m 16.11461,-7.50162 v 1.94487 m 30.00649,-1.94487 -0.83351,2.77838 M 46.699708,103.93259 c 3.202082,0.90964 1.533388,4.46958 -0.289784,6.04909 -1.923472,1.66619 -3.045104,0.53428 -4.155621,-0.49233 m -11.947029,-5.00108 c 1.558392,0.31812 2.58278,1.70092 1.870405,3.61189 -1.474486,3.95558 -6.173835,4.78298 -7.704999,1.38919 -2.52638,0.94881 -3.880006,1.44448 -3.889731,-1.94487 m -5.834596,-0.27783 c 3.161794,1.24499 2.55861,5.17167 -0.833514,5.90183 -1.595901,0.34368 -2.069891,-0.93548 -3.334054,-0.998 -1.1538601,-0.0572 -1.4430893,0.95993 -2.7772675,1.05801 -3.5410431,0.26006 -2.8245006,-6.29469 -1.9459772,-8.18455 l 1.1113529,1.11135 m 18.0594598,0 -0.555673,3.33406 m 30.284333,-0.27784 -0.555676,0.83351 m -43.342709,-0.55567 c -0.173091,0.92825 -0.23505,1.22999 -0.277837,2.2227 m 561.788189,-2.2227 -0.27783,0.83351 m -65.56974,2.2227 c -0.47234,0.72544 -0.88076,2.08573 -1.59201,2.94786 -0.52512,0.63709 -1.31696,0.97994 -2.01988,1.40864 -1.53366,0.93409 -4.24538,2.09684 -6.11245,1.15053 -3.55631,-1.804 -0.97521,-8.43405 2.22271,-7.72973 l -0.27783,1.94487 m 63.9027,-1.38919 -0.55566,1.11135 m -3.88974,0 3.88974,-0.55568 m -47.23245,3.6119 c -0.52788,0.18754 -0.95577,0.52789 -1.94486,0.70737 -1.23916,0.22449 -2.46165,-0.52817 -2.47832,-1.81984 -0.0333,-2.35578 2.87285,-1.9557 4.10368,-1.57784 0.99188,0.30451 0.52788,1.62924 0.89463,2.41108 0.55289,1.18442 1.55867,1.57784 2.75893,1.66842 m -11.39136,-1.66703 c -0.42787,1.04328 -0.71682,1.36974 -1.66703,1.11135 m -65.01406,0.83351 c 0.38898,-0.74599 0.89186,-1.43809 1.94487,-1.51644 0.85019,-0.0631 1.73092,0.65459 2.05599,1.51783 0.61126,1.63452 -0.77237,4.23981 -1.71981,5.55509 -0.76683,1.06662 -1.99766,2.22604 -3.3924,2.17603 -0.66125,-0.0236 -1.02245,-0.25672 -1.66703,-0.1881 -1.16414,0.12364 -2.75615,1.08829 -4.16756,0.51039 -2.83395,-1.1622 -3.33129,-5.14861 -3.33406,-7.77696 m 41.67568,1.94487 -0.55568,1.11135 c 2.13936,0.63263 3.83973,0.24394 5.8346,-0.59847 2.5061,-1.05772 3.44797,-1.96987 5.27893,-2.73559 m -92.41445,0.59041 c 0.98077,-0.53178 2.41165,-0.36925 3.22293,-0.29618 2.39218,0.21449 1.22249,2.04906 -0.55012,2.9637 -0.97244,0.5015 -5.47342,2.85562 -5.94573,1.12219 -0.31952,-1.16637 2.2727,-3.24821 3.27292,-3.78971 m -10.38558,-0.0347 c -0.0445,1.86818 -1.37807,7.18766 -2.18935,10.28 -0.43899,1.67092 -0.85297,2.9348 -0.86685,4.72324 m 13.89188,-14.7254 -1.11135,0.55567 m 28.89515,-0.27784 c 0.89463,-0.2131 5.67066,-1.03967 5.34003,1.66731 -0.32507,2.65752 -5.67623,8.31041 -8.56573,5.69151 -1.40309,-1.27167 -1.4281,-5.51842 0.50844,-6.44529 1.27249,-0.60929 1.53921,0.73739 1.60589,1.58701 m -30.84,1.11136 c -1.25581,2.32022 -0.4362,5.37866 2.50054,6.32775 1.77538,0.57429 5.22892,-0.1517 6.66811,-0.771 m 42.5092,-5.00108 v 1.94487 m 50.84433,15.28108 0.55568,5.55676 -0.55568,8.61297 m -78.62812,7.77946 c 0.32785,-4.17062 -0.39452,-7.72639 -0.25005,-11.66919 0.0556,-1.53089 0.53068,-1.86651 0.90576,-3.05622 0.59734,-1.89318 3.33682,-8.72716 6.54029,-6.50029 1.96432,1.36724 1.75594,4.35705 0.80851,6.22246 -0.32785,0.64319 -0.96132,1.45031 -0.81405,2.19269 0.27226,1.38558 3.33959,1.96376 4.47873,2.63141 1.08634,0.63624 1.35307,0.92242 2.01988,1.84512 0.69182,0.95548 0.91132,1.58367 1.33918,2.49943 0.31951,0.6832 0.88076,1.56228 1.48643,2.10629 1.9921,1.78566 5.00108,0.43065 6.82093,-0.96799 1.82817,-1.40558 2.91174,-3.46075 3.58411,-5.58371 0.46121,-1.45837 -0.10558,-2.47609 -1.36419,-3.2971 -1.30584,-0.85435 -4.9205,-1.61813 -6.09575,-1.3389 -0.59736,0.14142 -0.82518,0.44371 -1.48089,0.75516 -1.42531,0.67904 -2.62,0.54956 -3.13124,2.49165 -0.38896,1.48255 -0.55845,2.34106 -0.95575,3.05622 m 13.61405,-10.83568 c 1.47809,2.06239 2.56166,4.35678 4.16757,5.8346 1.41698,-1.75427 2.7756,-6.19162 5.8346,-7.77946 m 27.50595,0 c 0.80851,0.61235 1.45031,0.60068 2.50054,0.53094 2.82005,-0.18781 5.33726,-0.70654 7.77945,-0.25311 m -10.27999,0 c -1.42254,1.33946 -3.20069,3.93141 -2.77837,6.11244 2.63111,-0.63375 8.0184,-1.37697 9.71597,1.6962 1.76705,3.19625 -3.87304,6.33859 -6.10409,6.64505 -1.46698,0.20143 -2.43942,-0.56513 -3.61188,-1.39531 m -6.11245,-12.78054 0.11392,2.22271 -0.10836,2.77837 -0.3195,2.77838 -0.51957,5.00108 m -88.35245,13.33622 c 0,-2.9962 -0.1528,-5.49035 -0.68348,-8.33513 -0.27506,-1.47171 -0.50011,-2.93758 -0.7057,-4.44541 -0.16116,-1.17636 -0.43622,-2.40219 -0.44176,-3.61189 -0.006,-1.23694 0.38342,-1.68898 0.68625,-2.77838 0.52512,-1.87819 1.94765,-4.51848 4.47874,-4.10506 3.07013,0.50178 6.83482,5.27031 4.7566,8.24345 -0.76127,1.08746 -2.16437,1.6048 -3.3674,1.92987 -1.21693,0.32896 -1.97543,0.32118 -3.33405,0.32201 m 29.4508,-8.0573 c 0.83352,1.522 1.17249,2.14019 1.94488,3.05622 m 18.61513,-1.38919 1.11135,1.11135 m 12.22487,-0.83351 2.22271,5.00108 m -70.293,-4.72325 1.3892,1.66703 m 14.52258,-0.53178 c 0.71405,-0.37008 1.34196,0.15698 2.14769,0.49927 0.7335,0.31174 1.27251,0.3348 1.94486,0.57763 1.04469,0.37786 2.46166,1.12497 3.28127,1.9846 2.73393,2.86256 0.25283,8.01312 -2.72559,9.504 -1.30028,0.65041 -2.73115,0.6343 -3.87583,-0.2295 -1.83373,-1.38502 -2.62834,-4.90745 -2.46164,-7.08097 0.10002,-1.34335 0.44176,-4.60656 1.68924,-5.25503 m 52.15851,0.53178 c -0.82518,1.522 -1.88097,6.62227 -2.22271,9.16865 m -47.51028,-8.89081 0.55569,1.94487 m 31.39568,1.66702 c -0.50844,0.65987 -0.85018,1.34335 -1.47811,2.50054 -1.61701,2.97481 -5.08443,6.31581 -8.52405,6.66811 m 122.80434,1.38919 c 0.95854,-0.30312 4.43985,-1.37585 5.2428,-0.1103 0.7585,1.1972 -1.12525,2.61723 -1.63092,3.72219 1.61425,0.51511 4.22592,0.75267 4.42875,3.05733 0.37785,4.28593 -2.86174,8.09231 -6.09577,10.55673 m -21.94919,-1.94487 c 1.8115,1.2336 7.50162,1.72538 8.1851,-2.50054 0.42232,-2.60834 -3.77581,-3.90195 -5.68456,-4.2348 -0.86685,-0.15142 -2.44776,0.005 -2.66447,-1.08524 -0.27783,-1.38724 1.41697,-4.24369 2.51444,-4.98441 0.55289,-0.37341 1.17802,-0.24755 1.81706,-0.3084 0.90853,-0.0858 1.59757,-0.38869 2.50054,-0.42787 1.27805,-0.0553 3.35629,0.0186 4.16757,0.20505 m 5.00108,-0.27784 0.27783,11.39135 m -56.40108,-10.00216 c -3.54799,4.40067 -2.68947,11.43858 -3.73693,16.67027 -0.38619,1.92736 -1.05577,4.4968 -1.26415,6.11243 m 35.84109,-21.94919 c -0.83074,1.43976 -2.58669,8.40126 0.011,8.75106 0.93354,0.12531 2.52278,-0.7196 3.32295,-1.0455 0.58623,-0.23922 1.22527,-0.39314 1.86428,-0.72627 0.86965,-0.45177 1.77538,-1.10746 2.30329,-1.42253 m -12.78056,-5.27892 c 0.0222,2.60251 0.58903,6.48501 0.55569,9.44649 -0.025,2.05905 -0.27784,3.0501 -0.27784,5.00108 m -44.17622,-13.61406 c -1.81706,2.52583 0,9.78879 0,13.05838 0,1.78011 0.58623,3.33128 -0.28619,4.66574 -0.68068,1.04439 -1.64202,-0.10948 -2.0171,-1.05412 -0.86129,-2.16825 -1.83373,-6.13605 -2.92007,-8.04619 -0.61403,-1.07912 -1.2197,-1.26416 -1.84206,-2.51554 -0.54456,-1.09163 -1.18082,-3.10873 -1.54757,-3.88556 m 63.90279,-2.22271 c -0.66125,1.75344 -0.83352,3.49937 -0.83352,5.00108 m -81.96217,-4.16756 c 0.15558,3.05455 0.9002,7.96672 1.66703,10.55784 1.98654,-0.94576 3.60355,-2.21215 5.8346,-3.05622 m 26.95026,-6.66811 c 2.44776,2.14241 5.11778,4.30676 8.05731,6.11243 m 39.7308,-1.38919 c -0.0167,2.16853 -0.63901,5.37617 0,8.0573 m -61.95784,-7.22378 c 0,2.44303 -0.0806,8.66409 0.83352,12.5027 m -80.85083,-6.66811 c 0.0167,1.88152 0.36398,2.56667 0.83352,3.33406 0.39731,-0.48372 0.9113,-1.00661 1.30861,-2.22271 0.37786,-1.15497 1.93098,-6.50863 3.91195,-5.53286 1.66703,0.82185 1.6976,3.21931 2.07824,4.69935 0.83629,3.25181 0.86686,9.45454 1.59202,12.5027 m 51.39999,-14.16973 c -0.36118,2.85312 -0.34451,2.77727 0.30006,5.55649 0.51678,2.21715 2.6089,3.57104 4.42319,4.72352 m -14.44756,-0.55568 c 0.14447,-1.16915 0.43063,-1.67509 0.72515,-2.77837 0.43064,-1.60118 0.32228,-4.53071 2.08379,-5.50676 0.93631,-0.52011 1.55311,-0.26589 2.46997,-0.05 m -42.5092,8.05731 c 0.0417,-1.95126 0.16114,-3.41297 1.95599,-4.92357 0.95021,-0.79823 2.75893,-1.58757 3.58965,-0.26701 0.49457,0.79101 -0.0972,1.97321 -0.57512,2.68587 -1.28361,1.91568 -3.01176,2.37995 -4.97052,3.06037 0.72793,2.78173 2.43386,4.94023 5.55677,4.44542 m 25.56107,-9.16866 c 0.91966,2.17408 -0.0278,3.78443 -1.67813,5.21557 -1.25027,1.08107 -3.06177,1.24167 -4.15924,-0.23088 -1.28361,-1.72343 -1.27527,-4.13783 0.1556,-5.76597 1.12801,-1.285 2.35605,-0.22254 3.18123,0.78128 m 7.50162,-1.11135 1.11137,4.72324 m 19.17081,-4.72324 c 0.85296,1.62451 2.44497,4.19786 2.92563,6.94595 0.25839,1.46949 -0.0361,2.45303 -0.70294,3.61189 m -40.00865,-9.72432 c 1.1169,-0.55957 2.23104,-0.42065 2.6589,1.11273 0.65571,2.35663 -0.9363,5.24559 -3.21457,5.92851 -1.7226,0.51651 -2.39774,-0.91993 -3.88973,-1.06829 -1.25305,-0.12474 -2.62834,1.67869 -4.05921,0.52761 -2.02267,-1.62785 -2.04211,-4.58376 -0.38619,-5.11138 m -23.06055,-1.66702 c 0,1.26554 0.0417,1.84096 -0.0111,3.05622 -0.0667,1.54477 -0.79463,5.83987 -0.8224,7.22377 m 28.06163,-7.77945 0.27783,3.33405 m 33.34054,-3.05622 v 0.55568 m -15.83675,0 1.66702,1.3892"
       id="path42053"
       sodipodi:nodetypes="cccccccccccccccccccccccccccccccccccccccccccccccccccccccccccccccccccccccccccccccccccccccccccsccccccccccccccccccccccccccccsccccccccccccccccccscscccsccccscccccccccccccccccccsccccsccccccccccccccccccccccccccccccccccccccccccccccccccccccccccccccccscccccsccccccccccccccccscccccccccccccccccccccccccccccccccccccccccccccccccccsccccccccccccccccccccccccccscccccccsccccccccsscsccccccccccccccscccccsccscccccccccccccccccccsccccccccccccccsccccccccccsccccccccccccccccccccccccccccccccccccccccccccccccccccccccccccccccccccccccccccccccccccsccccccccscccccccccccccccccccsccccccccccccccccccccccccccccccccccccscccccccccscccccccccccccccccccccccccccccccccccccccccccccccccccccccsccccccccccccccccccccsccccccccccccccccccccccccccccccccccccccc" />
  </g>
</svg>
