<?xml version="1.0" encoding="UTF-8" standalone="no"?>
<!-- Created with Inkscape (http://www.inkscape.org/) -->

<svg
   version="1.1"
   id="svg45410"
   width="4438.6665"
   height="1374.6667"
   viewBox="0 0 4438.6665 1374.6667"
   sodipodi:docname="Casey - Pulsz - Envelope 15.svg"
   inkscape:version="1.1.2 (b8e25be833, 2022-02-05)"
   xmlns:inkscape="http://www.inkscape.org/namespaces/inkscape"
   xmlns:sodipodi="http://sodipodi.sourceforge.net/DTD/sodipodi-0.dtd"
   xmlns="http://www.w3.org/2000/svg"
   xmlns:svg="http://www.w3.org/2000/svg">
  <defs
     id="defs45414" />
  <sodipodi:namedview
     id="namedview45412"
     pagecolor="#ffffff"
     bordercolor="#666666"
     borderopacity="1.0"
     inkscape:pageshadow="2"
     inkscape:pageopacity="0.0"
     inkscape:pagecheckerboard="0"
     showgrid="false"
     inkscape:zoom="0.2789126"
     inkscape:cx="2219.3333"
     inkscape:cy="688.3877"
     inkscape:window-width="1920"
     inkscape:window-height="1017"
     inkscape:window-x="-8"
     inkscape:window-y="-8"
     inkscape:window-maximized="1"
     inkscape:current-layer="g45416" />
  <g
     inkscape:groupmode="layer"
     inkscape:label="Image"
     id="g45416">
    <path
       style="fill:none;stroke:#403b31;stroke-width:0.215536"
       d="m 127.3172,19.639688 c 0.18557,-1.370815 0.15864,-2.175416 1.72753,-3.034977 0.78693,-0.431074 1.62817,-0.578932 2.58321,-0.620746 0.90569,-0.03944 2.17887,-0.21101 2.79509,0.740584 0.85977,1.327709 -1.54239,2.746588 -2.57956,3.251806 -2.24028,1.091265 -3.21624,0.73606 -4.52627,-0.336667 -0.3718,0.314253 -0.76084,0.8074 -1.93984,0.858053 -0.77118,0.03298 -1.29278,-0.01056 -1.93982,0.06574 -1.70921,0.200881 -3.42855,-0.252825 -4.49438,-2.001476 -0.79361,-1.302059 -0.56622,-2.940354 -0.45672,-4.31074 0.0978,-1.226404 0.57332,-2.716066 1.17381,-3.879665 0.75373,-1.4606714 1.52471,-3.1267081 2.72202,-4.2821373 1.69411,-1.6348694 3.00479,-0.9847451 3.42617,0.1869353 m 12.50114,2.3709073 c -0.60996,2.0635507 -0.43602,3.1123537 0.21555,5.1728877 M 86.580716,9.7249861 c 0.07026,1.5367359 0.630014,2.9709619 0.428056,4.7418139 -0.103458,0.907626 -0.235151,1.272531 -1.074667,1.724295 M 75.372794,10.371597 c 0.168765,1.253737 0.386027,2.726758 0.670965,4.095203 0.110141,0.529575 0.0457,1.177694 0.381932,1.597344 0.949872,1.185885 1.29861,0.04009 3.008034,1.046002 l 0.465345,0.374171 c 0.836715,-0.601132 1.7424,-0.766449 2.770943,0.01272 0.572251,0.433444 0.63605,0.914523 1.049018,1.483757 0.558025,0.769035 1.249037,1.398403 2.381468,0.95138 0.561043,-0.221356 0.64036,-0.849 0.733472,-1.370384 0.18299,-1.023585 -0.0017,-1.788096 -0.253255,-2.370692 m 6.466109,-5.172887 c -2.238137,1.369738 -3.915446,2.64507 -5.819498,2.801981 m -64.661089,9.914701 c 0.756319,-0.01617 1.451426,-0.134064 2.15537,-0.360163 1.011515,-0.324598 2.100191,-0.524186 3.013422,-1.238906 0.695537,-0.544232 1.283306,-1.224466 1.145795,-2.064197 -0.115314,-0.703945 -0.642302,-1.142132 -1.150321,-1.480956 -0.71817,-0.478707 -2.90199,-0.92767 -3.652273,-1.303783 -1.221233,-0.612125 -1.425563,-1.324044 -0.937803,-2.603687 0.524618,-1.375771 1.915047,-2.231022 2.874186,-2.466174 0.151738,-0.03707 1.011731,-0.16898 1.247527,0.224591 0.330418,0.551559 -0.04483,0.903099 -0.141608,1.153554 -0.101733,0.262739 -0.26942,0.537763 -0.459094,0.871631 m 124.795911,0.646611 c -1.0195,0.0444 -1.46307,0.271577 -2.3707,0.362317 -0.76278,0.07609 -1.2124,-0.102811 -1.42966,-0.609754 -0.23364,-0.545093 0.30758,-1.391506 0.79468,-1.803829 0.86108,-0.729161 1.36608,-0.769036 2.35907,-0.747266 0.62677,0.01379 1.2389,0.193983 1.72428,0.427625 -0.30864,0.795763 -0.47202,1.149674 -0.86214,2.155369 1.03954,0.310373 2.4722,0.206916 2.86793,1.511993 0.8171,2.694428 -3.47618,5.385622 -5.66991,4.73858 m -4.74182,-7.328257 -1.89457,1.746926 -1.04751,1.917202 -1.15312,1.724296 m -40.952021,3.664129 c 1.042551,-0.251316 1.913541,-0.394217 3.233051,-0.988668 0.70352,-0.316839 1.41781,-0.687994 2.15537,-1.043415 0.58131,-0.280197 1.02294,-0.542507 1.46802,-1.008066 0.6201,-0.648551 1.06972,-1.37103 0.55329,-2.083596 -0.39271,-0.541645 -1.00419,-0.649629 -1.59023,-0.686271 -0.99643,-0.06229 -3.13779,0.116175 -4.09499,-0.05862 -0.960648,-0.175664 -1.329863,-0.75438 -1.724511,-1.24408 0.967331,-0.716445 3.285211,-1.274687 5.603961,-1.724296 m 39.22773,0.431074 c 0.20433,0.383009 0.41362,0.709762 0.42999,1.724295 0.0231,1.40487 -0.26123,3.944543 1.50984,4.526276 M 92.831287,16.837711 c 0.995997,-2.020228 3.282413,-2.175199 4.741814,-1.293222 -0.207347,0.415988 -0.375466,0.930473 -0.910645,1.424054 -0.588846,0.543368 -1.19666,0.762138 -1.891337,0.71472 -0.850723,-0.0582 -1.043845,-0.578502 -1.927977,-0.542292 -0.883702,0.036 -1.431596,1.614373 -0.743819,2.388151 0.89491,1.006557 2.684729,0.96927 3.965018,0.972718 m -31.037322,2.370907 c 1.746928,0.931982 7.043748,-0.106907 5.976408,-2.58321 -0.762137,-1.767835 -3.597311,-1.513933 -4.897646,-2.196323 -0.466206,-0.24485 -1.012592,-0.655448 -1.004186,-1.252917 0.01293,-0.938447 1.122516,-1.213042 1.865257,-1.295808 m 30.606249,0 1.29322,0.215538 m -25.002287,0.215537 h 2.155371 m -20.476013,7.759331 c 0.0043,-1.568032 0.584321,-4.722415 1.644548,-6.453392 0.647258,-1.056563 1.539796,-0.819688 2.277364,0.206915 0.700495,0.975304 0.798564,2.70348 0.545093,3.660033 -0.359947,1.359391 -1.171229,2.453027 -2.742708,2.730854 -0.874218,0.15454 -1.28029,-0.01337 -1.724297,-0.14441 -0.92185,1.83616 -0.815806,2.923759 -1.508758,5.388425 M 76.450478,16.406638 c 0.241832,1.302921 0.601994,3.286938 -0.215537,4.957349 m 61.859109,-4.741817 -1.07769,2.80198 M 64.811483,17.053244 64.164872,18.130928 M 79.89907,17.484317 c 0.0375,1.150321 0.602425,2.145887 2.155369,1.724296 m 5.172888,-1.508758 c 1.492161,0.408226 2.317237,1.623208 4.310738,1.939833 M 45.197619,18.777539 c 1.780335,0.616005 1.923451,0.536687 3.448591,1.589586 0.892755,0.616435 1.444314,0.992331 2.155154,0.921636 0.882409,-0.08751 1.721925,-0.666871 1.453797,-1.421898 -0.178895,-0.503278 -0.870122,-0.958709 -1.669118,-0.776148 -1.126396,0.257135 -1.396248,0.88564 -1.724296,1.195584 M 44.551008,19.42415 h 0.431073 m 2.155371,0.215538 -0.378052,0.461248 c -1.344951,1.479015 -2.300857,0.416849 -3.684389,1.090186 -1.373187,0.66795 -0.104105,2.093727 0.830463,2.469624 1.506389,0.60609 2.602609,0.109277 4.309662,0.07414 m -12.71668,-2.155369 c -6.47e-4,0.962587 0.192258,1.182866 -0.221573,1.894785 -0.391846,0.6742 -1.019489,1.016472 -1.71826,1.375126 -0.906117,0.464913 -1.828401,0.241832 -2.210763,-0.695322 -0.254979,-0.625274 -0.13471,-1.130492 -0.02673,-1.712442 0.15691,-0.845336 0.478922,-1.884656 1.159804,-2.586444 m 6.035036,0.646611 1.248606,1.725158 -0.455,1.251624 -1.871292,0.870985 -1.939832,-0.614712 m 10.561311,-2.80198 0.862147,0.431073 m 2.155371,-0.215537 c 0.245065,1.537641 1.630536,2.66878 4.741813,2.155369 m 114.019066,4.31074 -0.21877,3.233055 -0.16899,1.939832 -0.11013,2.155371 -1.01087,5.60396 m 32.76161,-12.285607 c -1.43332,2.474365 -1.93983,7.062501 -2.13596,9.914702 -0.0539,0.790373 -0.0194,1.373185 -0.0194,2.155369 m -77.80885,5.819498 c 0.72506,-1.439571 1.65273,-3.043166 1.97194,-4.741598 0.12308,-0.654585 0.43776,-1.08178 0.74835,-1.786154 0.2345,-0.531299 0.23924,-0.914308 0.32848,-1.447115 0.12479,-0.745974 0.53647,-2.001478 0.70135,-2.801982 0.17674,-0.858053 0.72787,-2.978073 0.92574,-3.664127 0.18428,-0.638205 0.32395,-0.951165 0.78648,-1.504664 0.68132,-0.81473 1.3247,-1.032854 2.08145,-0.866244 -0.38086,1.127043 -0.34313,1.482464 -0.25131,2.586444 0.0513,0.614712 0.0358,1.087815 0.0358,1.724296 0,3.511098 0.31296,4.939029 0,6.897182 1.03954,0.387105 1.11993,1.391077 2.42006,2.112695 1.63678,0.908488 3.2283,-3.189517 3.61497,-4.268064 m 46.77153,-9.052553 c -0.28881,1.170366 -0.93112,3.112354 -0.0129,4.480367 0.94191,1.404224 1.65103,0.999014 2.59938,1.554668 l 3.23306,-5.819498 m -60.13481,0.215538 1.29322,0.862147 m -35.132532,0 -0.514056,3.017518 -0.140961,1.724295 0.0084,3.017518 c 0.271145,-0.165101 0.551559,-0.260369 1.294299,-0.761061 0.79059,-0.533022 2.132522,-1.482247 3.016224,-1.21412 1.343226,0.407365 1.530743,1.895648 2.155586,2.837329 l 2.155369,-1.724295 m 54.099771,-6.466109 c -0.0166,0.448101 0.0108,0.791235 0.28645,1.294298 0.43949,0.801368 0.66386,0.953751 0.79124,2.369829 0.0985,1.094282 0.93415,3.171412 0.50803,4.278841 -0.26296,0.683683 -0.78219,0.719893 -1.58572,0.637773 -1.04017,-0.106475 -1.29128,-0.680449 -2.08703,-0.190103 -0.43367,0.267265 -0.51752,0.96151 -0.60675,1.308525 -0.25001,0.970563 -0.84253,2.466389 -1.40141,3.448591 m 39.89373,-12.117056 c 0.93328,-0.334515 3.49816,0.239029 4.28273,0.725497 1.13587,0.705021 1.21563,1.904916 0.73067,2.985618 -0.62291,1.382885 -2.19633,2.811464 -3.73958,3.245986 -1.9506,0.548973 -3.36021,-1.741754 -3.17054,-3.461523 0.0776,-0.69985 0.1401,-1.31456 0.43323,-1.939618 0.28666,-0.607382 0.79533,-1.315853 1.46349,-1.55596 m -35.79854,0.04699 c -0.39873,0.521168 -0.76579,1.056132 -1.02682,2.15537 -0.29679,1.250114 -0.84641,3.90596 -0.91301,4.741813 m 12.71669,-5.819498 c 1.576,-0.498537 2.31293,-0.239031 3.44859,-0.215537 m 0.21555,-0.215538 h 1.72428 m -100.224689,0.646611 0.0084,2.370908 -0.0084,6.035034 0.431075,3.664129 m -11.854533,-1.508758 -1.293222,0.646611 c -0.896419,-1.102042 -1.753177,-2.259044 -1.920434,-3.664129 -0.07113,-0.595529 -0.151092,-1.104843 -0.136867,-1.724296 0.01811,-0.784123 0.0513,-1.365426 0.231487,-2.15537 0.148074,-0.650059 0.34335,-1.34495 0.855681,-1.779904 1.194291,-1.013886 2.222834,0.263602 2.478891,0.702219 M 181.84805,35.373886 c 0,0.969916 -0.0539,3.195551 0.43108,4.526276 m -79.31761,5.388426 c 0.76883,-0.275673 1.38849,-0.594667 2.15537,-0.999446 1.25076,-0.659974 2.62762,-1.519104 3.63547,-2.513808 0.52397,-0.517504 1.03048,-1.26046 0.62807,-2.068077 -0.36965,-0.741662 -1.15743,-1.002247 -1.89263,-1.313481 -0.89749,-0.379993 -1.96785,-0.684546 -1.99329,-1.718262 -0.031,-1.246234 1.81224,-1.156787 2.85544,-0.655017 m 50.65118,5.388425 c 0.16144,-0.753733 0.41577,-1.271883 0.77529,-2.15537 0.36556,-0.897926 0.7865,-2.413367 1.64153,-3.164298 1.18568,-1.041475 2.44872,0.07005 2.75392,1.224681 0.56061,2.120021 -1.53785,3.429408 -3.23091,3.982907 -0.60328,0.197216 -1.31003,0.171352 -1.77989,0.670105 -0.75718,0.803521 -0.52375,1.540874 -0.591,3.106103 m -71.342743,-8.837015 -0.864736,3.38005 -1.937246,0.715152 c -0.345937,-0.685408 -0.668164,-1.474488 -1.724295,-1.243001 -0.584321,0.128029 -1.107644,0.473319 -1.349692,1.039318 -0.510822,1.194506 -0.529574,2.1655 -0.805677,3.221201 M 136.5853,43.133217 c -1.18611,-0.02457 -2.50045,0.01207 -2.9742,-1.090401 -0.61773,-1.437848 1.18803,-3.592139 2.32759,-4.445018 1.06344,-0.795978 1.95879,-0.438834 2.15536,0.793606 m -108.630629,0 1.724295,-0.978107 1.939833,0.547033 c -0.520091,1.047294 -0.925731,1.233518 -1.293222,2.586443 h -1.508759 m 9.483628,-1.293221 c -0.126521,-0.223511 -0.478924,-2.077776 0.822489,-1.47923 0.917539,0.422021 0.828307,0.816238 0.901805,1.910304 -0.584536,-0.04505 -1.357019,-0.03492 -0.862147,-1.077685 l 0.215536,-0.215537 0.215537,-0.215536 M 19.333184,37.96033 c 1.071433,0.02392 5.117709,-0.426547 5.31902,1.512639 0.248084,2.388796 -2.914705,4.772204 -4.199521,6.462015 -1.103117,1.450563 0.115959,1.544536 1.251407,1.384177 0.781968,-0.110571 1.375773,-0.179758 2.155369,-0.398527 0.81861,-0.229762 1.594543,-0.517289 2.370908,-0.769899 m 6.897182,-8.190405 h 0.64661 m 68.109681,0 c -0.0582,0.456939 -0.16984,1.696277 -0.71494,2.2418 -0.53323,0.533885 -0.9531,0.896849 -1.871504,0.947501 -1.353787,0.07458 -2.084242,-1.296886 -2.586444,-1.680541 -0.3815,0.524831 -0.606736,1.106351 -1.364132,1.869567 -1.096006,1.105058 -3.593649,2.60347 -5.304796,2.156232 -0.878529,-0.229547 -0.859778,-0.98328 -0.729594,-1.654894 0.283001,-1.461987 0.414694,-1.408965 0.932413,-3.233054 M 41.53349,39.684626 c 0.401114,0.508883 1.017766,1.3165 1.360255,1.724296 0.439263,0.523108 0.535177,0.850077 0.565999,1.294299 0.03168,0.461033 -0.0694,1.209379 -0.394647,1.719985 -0.707393,1.110447 -4.621329,3.090155 -5.22785,1.069064 -0.443143,-1.476859 2.348276,-2.509282 3.264739,-3.063642 0.930256,-0.562337 1.155277,-0.741448 1.50919,-1.019706 m 112.294754,-0.431074 0.21554,-1.293222 c 0.25217,0.01487 1.13415,-0.177603 2.15538,0.06919 1.03737,0.25067 1.49279,1.000092 1.72428,1.224035 m -98.069312,3.233054 c 0,-0.618806 -0.132772,-2.574589 0.706745,-3.308493 0.428272,-0.374817 0.724634,-0.517935 1.448624,-0.580225 0.494442,-0.04268 1.115618,0.05992 1.500352,0.225883 0.547249,0.236229 1.086523,0.733473 1.338916,1.295161 0.67614,1.504664 -1.315206,3.200724 -2.839268,3.190163 -0.668164,-0.0045 -1.267789,-0.392707 -1.939833,-0.457369 -0.650059,-0.06229 -0.935431,0.255412 -1.508758,0.479569 -0.839948,0.328264 -2.457122,-0.103026 -3.017518,-0.413614 M 73.001887,40.1157 c -0.451766,0.480432 -0.964744,1.173168 -0.121995,2.095235 1.430304,1.56523 3.541058,0.529789 3.355049,-1.448624 M 101.45276,40.1157 c 0.73628,0.92724 1.34237,2.28577 2.80199,2.586444 M 122.14431,40.1157 c 1.84048,0.486898 2.84746,0.351757 4.09521,0.646611 m -79.964217,-0.431074 -2.80198,0.862147 m 43.107393,-0.862147 v 2.586444 M 31.834327,40.546773 c 0.500693,0.289035 0.998584,0.440774 1.938971,0.742095 0.741663,0.237521 1.566091,0.578285 1.798871,1.45078 0.446594,1.674075 -2.604333,3.572525 -3.953164,3.868673 -0.788433,0.173291 -1.154415,-0.120055 -1.724511,-0.673122 M 143.05141,40.762311 c 0.71665,2.424791 0.21165,6.097973 -2.802,6.632503 -1.09621,0.19463 -2.06698,0.01014 -3.0175,-0.166394 m -11.20794,-6.250572 c -0.0323,0.590787 0.10649,1.216707 -1.07767,2.155369 M 76.234941,42.27107 78.39031,44.426439 m 35.13253,9.699165 0.27394,2.80198 0.37353,4.31074 0.43021,1.939833 c 0.39142,-0.115529 1.23438,-0.06315 2.80176,-0.02349 0.60804,0.01552 0.9807,0.0028 1.28439,-0.476121 0.49035,-0.773346 -0.40564,-4.523258 -0.42202,-5.319883 m -16.59635,2.15537 c 1.11498,1.61e-4 2.17887,-0.02026 3.23306,0.468578 1.20787,0.56018 2.54829,1.147734 2.98562,2.342671 0.71752,1.960954 -0.35111,4.126886 -1.66438,5.586071 -1.52342,1.692613 -4.27324,2.396987 -6.04387,1.432459 -0.590144,-0.321581 -1.036736,-0.850294 -1.446041,-1.424053 -2.070448,-2.901128 -0.901375,-5.698581 0.651353,-8.405726 1.481168,-2.582133 4.247368,-3.063428 6.379458,-1.939833 m 43.96955,-0.431075 c -1.33267,0.623333 -2.82828,0.984574 -3.79475,2.164639 -1.19838,1.463712 -0.91366,3.250944 0.77745,3.356772 1.91138,0.119193 1.89672,-0.719678 3.2337,-1.178987 0.92939,-0.31921 1.80663,-0.358222 2.80112,-0.24722 m 3.01751,-3.664129 c 1.13394,-0.33516 2.36077,-0.345505 3.66392,-0.410813 0.37912,-0.01897 1.01086,-0.05561 1.268,0.325245 0.2899,0.429565 0.0791,0.899219 -0.0953,1.37879 -0.20951,0.576345 -0.60953,1.164761 -0.92034,1.724296 -1.57256,2.830863 -3.02053,5.309537 -4.77846,7.974867 M 66.751316,57.358658 c 0,2.516179 -0.546387,5.475502 0,7.328257 l 2.155369,-0.709979 4.310738,-1.44539 M 129.0415,57.358658 c -0.75374,0.988884 -1.38871,2.783444 -1.25249,4.310739 0.0724,0.81279 0.31167,1.472764 1.04945,1.779905 1.63226,0.679373 3.948,-0.05475 5.16039,-0.05561 0,1.698432 -0.17739,3.360222 -0.64661,5.388425 m -116.6055,5.172888 c 0.969916,0.517718 1.806416,0.529142 2.801982,0.38581 1.26477,-0.181913 3.118172,-1.050526 4.310737,-1.438493 0.820766,-0.26705 1.50919,-0.400037 2.025402,-0.994487 0.33128,-0.381933 0.659544,-2.522646 0.430212,-3.027649 C 25.968274,68.11697 25.269071,67.80832 24.50607,67.374014 23.828422,66.988202 23.068871,66.595924 22.350701,66.252144 20.3031,65.272097 16.90279,64.824642 16.389164,62.10047 c -0.306923,-1.627951 0.515349,-3.308923 1.869569,-4.065027 1.850169,-1.033285 3.810692,-0.622687 4.307505,1.263047 M 141.54264,58.005269 c -0.70093,1.206791 -1.1113,2.154291 -1.05548,3.664128 0.019,0.507159 0.172,1.231147 -0.1608,1.655755 -0.38021,0.485174 -0.7658,0.445515 -1.37017,0.532161 -0.74467,0.106906 -1.67946,0.471164 -2.31507,0.158635 -1.12575,-0.553283 -1.31456,-1.381808 -2.42674,-0.837791 m 34.27039,-4.558607 c 1.18373,-0.0082 4.01631,-0.222004 4.71315,1.005048 0.51879,0.913446 -0.935,2.143947 -1.48095,2.690548 -1.65727,1.659419 -4.6901,3.930963 -7.11166,3.704002 -2.32046,-0.217691 -1.62644,-3.037993 -0.76236,-4.349751 1.10506,-1.677309 2.75113,-3.036915 4.64182,-3.049847 M 47.784063,58.65188 c 0,1.425777 -0.12027,3.204387 -0.341842,4.526277 -0.181483,1.08221 -0.352403,2.037039 -0.484743,3.233054 -0.149797,1.354003 0.19075,1.709639 -0.381716,3.229175 -0.334083,0.886289 -0.869476,0.988453 -1.532253,1.555961 -0.792313,0.678726 -1.086736,0.787572 -2.00126,0.845767 -0.809987,0.05151 -0.986297,0.619453 -1.871292,0.415556 -0.612771,-0.140961 -0.501554,-0.939526 -0.498536,-1.520182 0.0054,-1.07316 0.786494,-4.588136 -0.66019,-4.697199 -1.053329,-0.07953 -2.012038,1.671921 -2.583857,2.53256 -1.061735,1.597992 -1.36672,0.92724 -1.929918,3.026786 M 137.23191,59.514028 c -0.74986,1.136095 -0.75806,2.240291 -1.07769,3.448591 m -1.7243,-3.233055 v 3.017518 m 11.85454,0 c -0.10066,1.839177 -2.77419,3.66887 -0.95074,5.750958 1.48872,1.69994 4.1547,-0.804816 4.7082,-2.302367 0.5468,-1.479661 -0.40199,-2.339438 -1.17102,-3.448591 m -34.27038,0.431075 v 1.294298 l -0.0192,3.231978 -0.62743,2.80198 m 4.95735,-7.328256 c 0,1.153984 0.0608,1.878188 -0.008,3.448591 -0.0382,0.862364 -0.23407,1.641745 -0.42267,2.370907 m 22.20031,-5.172887 c 0,1.411981 0.0511,3.519718 0.21554,5.603961 m -89.016765,-2.15537 c -0.52742,2.433196 1.554667,3.500968 3.017518,2.801981 0.877019,1.192566 1.546692,2.648733 3.036915,3.406776 0.839301,0.42698 1.847582,0.01487 2.782366,-0.349169 0.725066,-0.282569 1.319302,-0.608891 1.411767,-1.341933 0.08923,-0.708039 -0.369645,-1.224035 -0.805677,-1.634847 -1.08609,-1.023586 -3.247495,-1.93229 -3.380482,-3.744956 -0.194198,-2.64895 2.546785,-1.843919 3.636756,-1.077685 m 4.95735,-0.431075 -0.214459,1.939618 0.220495,1.204205 4.735776,3.10675 m 5.819499,7.328258 c 0.0541,-1.241278 0.761061,-2.773961 1.46134,-4.095204 1.643255,-3.100499 3.679433,-7.197857 6.513527,-8.837016 m 6.466109,1.293222 c -0.04742,0.798996 0.01229,1.198602 -0.01078,1.939834 -0.07953,2.550017 -0.898359,5.165343 -2.144594,7.543793 M 35.92953,67.057822 c -0.173508,1.373833 -0.173508,1.849307 0,2.586444 m 6.897182,1.939832 c -0.201527,-0.669242 -0.460818,-3.348582 1.100317,-3.964371 1.22037,-0.481295 1.870214,0.247867 2.348274,0.51578 m 8.405942,-0.646612 0.215538,2.586445 m 20.476011,-2.370907 c 0.01035,1.153985 0.164454,2.028418 1.296455,2.836682 0.540996,0.386242 1.113464,0.659543 1.719985,0.967762 0.603718,0.306923 1.0238,0.549619 1.294298,0.721832 M 26.661439,68.351044 c 0.661483,0.01358 0.925301,0.06014 2.155371,0.215536 m 37.287895,-0.215536 c -0.460604,1.235888 -0.599625,2.018719 -0.862149,4.095202 M 40.886879,69.428729 c 0.680882,0.08837 0.661698,0.09419 1.293222,0.215537 M 31.61879,70.07534 c -0.633893,2.004277 -1.183298,1.82452 -2.586443,2.331033 -1.548633,0.558886 -2.457768,0.01143 -3.017517,-0.3912 M 46.490841,70.07534 c 0.472888,0.672044 0.987375,2.272191 1.735934,2.495487 0.881977,0.26317 1.234597,-0.426117 1.928194,-1.417803 m -18.967253,0.215538 1.724296,1.939833 M 634.26014,99.819442 c -1.21348,-0.539705 -2.79121,-0.999661 -3.87967,-1.44733 -0.51082,-0.210149 -1.35142,-0.121995 -2.00664,-0.809989 -0.66818,-0.702219 -0.52807,-1.551004 -0.74577,-2.484494 -0.68971,-2.977643 -1.9657,-6.353815 -2.74593,-9.268091 -0.33409,-1.244294 -1.47859,-4.61831 -0.75224,-5.388423 M 88.736085,82.79202 c -0.650706,2.201495 -0.01703,4.655384 -0.01703,6.897184 0,3.009327 -0.65825,5.785228 0.01703,8.62148 M 580.16037,83.438631 c 0,3.299656 0.66384,6.313294 1.33848,9.483627 0.14226,0.666226 0.31038,1.278997 0.46125,1.939833 0.17673,0.77227 0.48711,2.057301 0.55177,2.801982 0.0453,0.504356 0.0733,0.94556 0.19183,1.508758 0.19613,0.913449 0.2026,1.321239 0.29529,2.155369 0.17674,1.60726 0.80826,3.75228 0.39443,5.38843 M 138.52513,95.077629 c 0.4524,-1.021862 0.68864,-2.179725 0.98198,-3.233054 0.24076,-0.865812 0.4244,-1.511562 0.82636,-2.370908 0.47635,-1.018628 1.49561,-3.01213 2.90243,-2.200202 0.5272,0.304339 0.80159,1.200757 0.94793,1.769128 0.53604,2.081657 0.10066,2.582995 1.02294,4.31074 2.00858,-1.44884 2.85587,-3.464973 4.28423,-6.250573 0.52053,-1.014747 1.49368,-3.291034 2.69852,-2.229083 0.58066,0.512116 0.23322,1.743263 0.16662,2.44462 -0.16835,1.76805 -0.3246,4.116541 0.17888,5.819499 m -82.766188,1.508759 c 0,-0.988668 -0.209285,-3.2309 -0.215321,-4.526277 -0.0032,-0.68627 -0.07759,-1.526218 0.159713,-2.15537 0.273516,-0.725498 0.724419,-1.14795 1.225542,-1.723219 2.274562,-2.611229 4.781688,-0.338824 4.791819,2.800904 0.0026,0.853526 -0.167472,1.602948 -0.535609,2.370692 -0.533671,1.113464 -2.493332,2.822887 -3.486311,3.202232 -0.697693,0.266404 -1.153339,-0.12695 -1.71826,0.592081 -0.436894,0.555869 -0.407797,3.711762 -0.437109,4.396307 M 367.42538,85.594002 c 0.52807,0.836068 0.97423,1.40724 1.53032,2.155369 0.64876,0.870985 1.28029,2.020659 1.93552,3.017518 1.61006,2.450871 3.19425,4.531881 4.45299,7.11272 1.56695,3.215161 3.05847,7.638631 5.87553,9.268091 M 524.12075,86.240613 c 0,3.284352 1.29754,6.02512 2.26099,9.268089 0.22415,0.760199 0.39443,1.39431 0.50436,2.155371 0.11639,0.80891 0.19181,1.384824 0.33623,2.155369 0.16381,0.877238 0.27805,1.686358 0.36211,2.586448 0.27157,2.85133 0.81688,6.01714 1.46995,8.83701 0.22847,0.99018 0.60997,2.02476 1.10139,2.80198 M 124.08414,96.801924 c -2.17907,0.743602 -7.3927,2.054283 -8.48396,-1.724512 -0.39163,-1.356158 0.18687,-2.908455 0.77809,-4.094986 0.39896,-0.800505 0.85202,-1.670196 1.40379,-2.350863 0.80525,-0.993194 1.77107,-1.329432 2.8535,-1.097728 m 430.64285,0 c 1.36003,0.0112 2.79121,-0.02112 4.74181,0.22739 0.7824,0.09958 1.22641,0.333651 1.93983,0.409305 0.61428,0.06552 1.11217,-0.01853 1.7243,0.02996 1.77172,0.140529 4.34954,0.739937 6.03503,1.488713 m -163.59254,0.215536 -0.21555,-1.508758 h 0.43108 l -0.15087,2.370907 1.01086,4.957351 3.2546,16.596351 0.32116,2.80198 0.0905,1.72429 -0.15304,1.93984 -0.0625,3.44859 M 557.74452,88.395982 c 0.32115,2.519843 1.7049,6.290448 2.12735,9.052553 0.31469,2.075406 0.50004,5.947525 0.45694,7.759335 -0.0194,0.76925 -0.11639,1.20549 -0.21338,1.72429 l 1.50875,-0.17976 2.58645,-0.27631 3.87966,-0.19054 M 385.74602,88.827056 c -0.33407,1.052683 -0.43107,1.811158 -0.43107,3.017519 0,2.190501 -0.0431,4.494592 -0.25217,6.681645 -0.31901,3.35483 -0.98932,6.65729 -1.68766,9.9147 -0.43323,2.01872 -1.09062,4.00769 -1.55403,6.03504 -0.15734,0.68799 -0.3621,1.27102 -0.63151,1.93983 -0.33194,0.82055 -0.55394,1.46651 -0.82337,2.37091 -0.53452,1.79068 -1.0475,3.4973 -1.0863,5.38842 m 85.56817,-7.97487 c 0.10131,1.34603 1.61869,2.98303 3.66413,3.50032 3.17055,0.80245 6.22687,-0.53108 8.61933,-2.44785 1.06905,-0.85784 2.06269,-1.87409 2.42479,-3.20784 1.56911,-5.78393 -4.62759,-10.28693 -8.88875,-13.07361 -1.97863,-1.294514 -5.06727,-2.77202 -5.96175,-5.031494 -0.84058,-2.127781 -0.27373,-4.593955 1.43547,-5.950976 2.97011,-2.357112 8.13868,-1.461556 10.34578,1.4247 m 159.06628,-1.939833 -0.21553,1.293222 0.21553,-1.293222 M 99.72847,89.689204 c 0.69403,0 1.39431,-0.08772 2.15451,0.0319 3.03778,0.478492 1.3262,3.649903 0.32179,5.140988 -0.60673,0.900729 -1.87797,2.59097 -1.44409,3.094465 0.28838,0.334944 0.65932,0.24722 1.12337,0.156265 1.37039,-0.268775 2.46295,-0.703298 3.66392,-0.879823 m 21.25258,-7.275019 c 0.5423,-0.390553 1.40186,-0.278043 2.02542,-0.206486 1.4691,0.168766 3.18153,0.581735 3.85186,2.308618 0.3927,1.011731 0.0526,2.077776 -0.85785,2.85608 -1.35444,1.157866 -2.96838,1.757489 -4.71832,1.394525 -0.87465,-0.181268 -1.55165,-0.73843 -1.81633,-1.665023 -0.33473,-1.172737 0.31232,-2.459708 0.83693,-3.293836 0.32007,-0.508668 0.0739,-0.958709 0.67829,-1.393878 m 0.0856,-0.05324 c 0.0341,0.796195 0.0619,0.790807 0.21553,1.293224 0.15519,-0.507375 0.18191,-0.504142 0.21554,-1.293224 m -36.210208,7.543795 c 1.176832,-0.506512 4.569383,-0.739723 4.7888,-2.173906 0.08708,-0.569879 -0.488622,-0.870985 -0.910859,-1.074883 -0.830895,-0.400683 -2.08726,-0.666224 -2.712318,-1.367582 -0.863226,-0.968623 0.356929,-2.39052 1.420389,-2.581917 0.473966,-0.08514 1.031559,0.04914 1.50919,0.08557 m 312.744146,0.646611 h 0.43106 l -0.21553,1.293221 -0.21553,-1.293221 m -280.62914,0.215538 1.7243,1.508758 m 279.12037,-0.431075 0.35132,1.939833 0.51729,1.293222 0.0216,1.293222 0.72636,3.017518 1.02379,4.957346 0.46556,2.15537 0.73714,5.17289 0.12717,2.58644 0.125,1.93984 0.12503,2.15537 0.0905,2.80198 M 78.39031,93.784407 c -0.656525,1.223818 -1.338484,4.458812 0.863011,4.462477 1.574498,0.0026 3.42014,-2.240075 3.878804,-3.384793 M 623.91436,94.21548 c 1.69197,2.040058 2.56273,2.487297 3.87967,2.586444 M 408.3774,94.862091 c 0.041,0.622471 0.0108,0.730455 0.43108,1.50876 m 230.62454,-1.077685 c -0.46341,1.570832 0.0323,2.422204 0.25433,4.095201 0.21338,1.611573 0.86646,2.650033 1.73509,4.095203 0.37718,0.62743 0.73497,1.63312 1.4678,1.88466 0.86215,0.29593 1.21778,-0.49014 1.46564,-1.23891 0.88586,-2.6871 1.43118,-5.138618 2.83648,-7.111858 M 82.70105,95.939776 c 0.63799,0.83693 0.94944,2.040273 2.155369,3.017519 m -31.252858,-1.50876 c 0.228469,-0.75287 0.31296,-1.114111 1.508758,-1.060872 0.677864,0.03017 1.135233,0.302397 1.568247,0.858052 0.478277,0.613418 0.605013,1.143424 0.43948,1.927116 -0.498968,2.363149 -2.490313,4.865099 -5.240781,4.726939 -2.139851,-0.10777 -2.158819,-1.54217 -2.370907,-3.21818 m 59.272662,-3.664128 -0.21554,0.215536 m 470.73273,0.215537 c 1.54325,1.496904 2.24374,1.503802 3.01752,1.724296 m 67.46307,2.155369 c -0.17674,-0.64338 -0.28451,-1.35077 0.2026,-2.118512 0.3384,-0.534316 0.9613,-1.010006 1.5217,-1.203128 0.4009,-0.137943 0.78887,-0.157127 1.29322,-0.103241 0.76947,0.08212 1.1833,0.376542 1.28244,1.063458 0.11208,0.780459 -0.42461,1.471683 -1.07122,1.942633 -1.26519,0.92272 -2.29116,0.63799 -3.44427,0.84986 0.23061,1.22361 0.43753,2.89488 2.58644,3.36281 1.01301,0.22071 1.81913,-0.0679 2.80198,-0.56083 m -26.29552,-6.466104 c 0.0129,1.648211 0.11639,3.457214 0.62075,5.819494 0.39228,1.83099 0.63153,3.43394 0.67247,5.38843 M 43.688859,98.741757 c -0.434737,1.201619 -0.397665,1.284813 -0.215321,2.586443 0.189457,1.35271 0.578933,3.20568 2.155154,3.70034 1.896727,0.59531 3.091879,-0.97552 4.095204,-1.97604 M 35.282919,99.172831 c 2.354526,-0.510176 3.356126,1.602949 2.905653,3.664129 -0.208855,0.95655 -0.65825,1.80253 -1.459401,2.46294 -0.839516,0.6923 -2.925267,0.65329 -3.817159,0.4231 -0.723342,-0.18644 -1.306154,-0.33624 -1.721493,-0.9947 -0.339687,-0.53841 -0.626998,-2.34095 -1.080487,-2.96903 m 559.749498,1.93984 c -0.49574,-0.4078 -1.22641,-0.83133 -1.43979,-1.72516 -0.21553,-0.89836 0.21338,-1.89004 1.01733,-2.400652 1.06044,-0.672044 1.81483,-0.484311 2.79336,-0.360592 0.78886,0.100008 1.39238,0.274163 1.64024,0.870764 0.23278,0.56342 -0.31037,1.31607 -0.79965,1.75792 -1.38804,1.25184 -2.22434,1.21714 -3.21149,1.64218 0.51513,1.46975 2.07992,2.28749 4.52628,3.01752 m -86.2148,-5.38843 c -0.24571,-0.67614 -0.5453,-1.19946 0.21555,-1.724293 0.17027,1.304643 -0.1595,1.104633 0.49789,2.370903 0.54099,1.04342 1.46134,2.15947 2.08855,2.80198 m 71.98934,-5.172883 h 2.58645 m -76.9467,0.215538 1.07769,0.215537 m 87.508,7.543798 c 0.0453,-0.57807 0.12718,-1.10722 0.20477,-1.7243 0.18967,-1.49453 0.70264,-2.23275 0.95913,-3.44859 0.14872,-0.70718 0.22847,-1.32814 0.70049,-1.90793 0.83845,-1.028548 2.00666,-0.600921 3.09297,-0.0319 m -583.027493,0 c 2.672228,0.37697 3.754008,4.13981 0.861933,5.75936 -1.227699,0.68756 -3.384362,0.56039 -4.526062,0.15756 -0.712348,-0.25132 -1.497334,-0.56471 -1.998674,-1.22102 -0.455861,-0.59682 -0.730454,-1.70554 -1.018842,-2.325 m 605.874398,5.8195 c -1.02595,-0.0774 -1.73939,-0.50565 -2.69206,-1.93983 -0.46556,-0.70308 -0.87939,-2.31552 -1.83422,-2.45044 -0.56685,-0.08 -0.96128,0.54811 -1.24364,0.93952 -0.76732,1.06346 -2.65542,2.79379 -4.0758,1.59649 -0.62938,-0.52893 -0.51082,-1.55446 -0.35349,-2.24094 0.28666,-1.24645 1.0195,-2.41445 1.93768,-3.40786 0.86646,-0.938875 1.59067,-0.956765 2.65758,-0.25627 M 5.1077455,100.25052 c 0.021553,1.04923 0.075222,1.62558 0.2689901,2.58644 0.3261069,1.6161 1.4887133,2.84918 2.7485263,3.78957 1.1848078,0.88435 3.6005461,0.9628 4.5469681,-0.35822 0.348738,-0.48668 0.46362,-0.79469 0.625919,-1.06044 m 12.716681,-4.52628 c 0.333866,0.89125 0.354343,1.63894 0.531083,2.58644 0.131045,0.7033 0.360377,1.52234 0.882407,2.07045 0.537765,0.56492 1.753825,1.01281 2.445914,0.68541 0.582382,-0.27567 0.836715,-0.7283 1.097945,-1.03156 m 539.273481,-3.01752 c 0,1.82495 0.0539,3.77061 1.07769,5.38843 1.20054,-1.00807 1.17898,-1.64347 1.87517,-3.66413 0.21338,-0.62592 0.44184,-1.34883 0.70912,-1.92798 0.222,-0.48474 0.50004,-0.88909 1.07121,-0.83607 0.71344,0.066 1.03028,1.06669 1.1984,1.68636 0.68324,2.48859 1.6704,5.31945 2.90543,7.32826 m 48.28027,-3.23305 c -1.21346,0.34917 -2.1489,0.89275 -3.44859,1.07746 -1.20269,0.17114 -3.19641,0.55954 -4.21805,-0.34442 -1.01518,-0.89879 -0.45048,-2.93777 -0.0496,-3.9661 0.52161,-1.33029 1.20916,-2.59528 2.54333,-2.80198 m -559.31841,1.7243 c -0.175878,1.10635 -0.779166,1.40336 -1.939832,1.50875 m -28.45088,-1.07768 v 0.21554 m 604.796722,0.21553 c 0.29959,1.01648 0.60135,1.86397 -0.12932,2.35237 -0.91604,0.61342 -1.37298,-1.4622 -1.37945,-2.13683 m -63.15232,3.23306 -1.07769,2.3709 m -17.88956,-1.72429 c 2.42479,0.0873 4.8776,-0.18731 6.25056,-0.21554 m 11.42347,0.21554 0.21553,0.86214 m -62.07465,9.91471 c -0.43323,0.66924 -1.66179,0.73476 -3.0175,0.84361 -0.86216,0.0694 -1.88164,0.22222 -2.802,0.23321 -1.53893,0.0183 -3.66843,0.13428 -4.94872,-0.5854 -1.31262,-0.73778 -1.53462,-1.4178 -1.50445,-2.6468 0.0194,-0.79425 0.24571,-1.33589 0.51082,-2.15536 0.33194,-1.03307 0.78672,-1.89522 1.35788,-2.7925 0.61213,-0.95612 1.0001,-1.13588 1.99803,-0.6561 m -16.81188,0.8074 c 0.56471,-0.20885 1.17683,-0.0739 1.7243,0.12437 1.0001,0.3621 2.02174,0.33538 3.01752,0.61169 0.82981,0.23041 1.39668,0.36254 2.12303,0.99234 1.63808,1.41974 -0.59703,3.25784 -1.69197,3.94023 -0.45046,0.27977 -0.83842,0.44918 -1.29322,0.63346 -1.54108,0.62549 -3.09941,1.01777 -4.52196,0.0347 -1.50875,-1.04234 -1.63592,-3.91523 -0.72635,-5.20112 0.4009,-0.56363 0.73497,-0.90116 1.36865,-1.13567 m -56.68622,0.27029 c 0,2.54592 0.23925,5.02804 1.22857,7.32826 0.37071,0.86128 1.19838,1.71201 2.00449,2.21097 0.55393,0.34249 1.07769,0.41534 1.7243,0.33387 2.06484,-0.26037 2.7675,-2.23986 2.15536,-4.0536 m 85.1371,-3.01752 c -0.15519,0.18687 -0.39659,0.51298 -0.71774,0.8352 -0.45693,0.45824 -0.90741,0.86539 -1.43763,1.26952 -0.66816,0.5091 -1.29107,0.87077 -2.15536,0.87766 -0.60782,0.005 -1.03675,-0.21014 -1.28676,-0.64337 -1.43332,-2.4832 2.85586,-4.25858 4.29997,-4.03119 0.78454,0.1235 0.96345,0.91969 1.45702,1.69218 0.45694,0.7158 1.01733,1.18006 1.5648,1.72408 0.80611,0.80137 1.56265,1.40358 2.58644,1.72451 m -135.35721,-0.86215 c 0.13794,-0.35865 0.18105,-0.824 0.61428,-1.50035 0.48496,-0.75438 1.41608,-1.38806 2.1877,-1.84672 0.72852,-0.43301 1.50013,-0.59639 2.37091,-0.50824 0.66169,0.0668 1.17251,0.2996 1.31693,0.86129 0.38797,1.51889 -3.22012,3.1893 -4.54999,3.36281 -0.86214,0.11251 -1.82129,-0.17157 -2.40971,0.54466 -1.61006,1.95557 0.10993,5.17914 1.97863,6.31157 1.79112,1.08501 4.48748,0.93176 6.46611,0.62268 0.89018,-0.13923 1.46998,-0.26662 2.37092,-0.51944 m 39.01218,-10.77685 c 1.37082,0.26597 2.15107,0.34809 3.23306,1.21412 0.7587,0.60825 1.15096,1.10549 1.31693,2.01894 0.35779,1.95901 0.19399,3.70659 -1.748,4.73103 -0.63799,0.33646 -1.23072,0.44638 -1.93983,0.43 -2.10149,-0.0481 -3.18133,-1.66028 -3.87967,-2.35905 m -18.23012,-3.65723 c 0.35995,-0.23365 0.98285,-0.16812 1.41824,-0.078 0.61643,0.12738 1.1833,0.3177 1.72429,0.58281 0.86215,0.42332 1.52816,0.72636 2.00666,1.65296 0.41813,0.80826 0.2845,1.97194 -0.54532,2.69917 -0.73497,0.64208 -1.63161,0.54789 -2.53902,0.52138 -1.22209,-0.036 -2.27607,-0.52462 -2.7093,-1.72193 -0.25003,-0.69058 -0.19398,-1.48009 -0.0711,-2.1545 0.13148,-0.71602 0.14873,-1.1333 0.71558,-1.50186 m 92.59036,3.01062 0.64661,0.64661 M 375.83133,144.8667 c 0.63583,0.0295 1.07984,-0.35564 1.71784,0.54186 0.25648,0.36145 0.24571,0.77744 0.15302,1.18222 -0.21985,0.96453 -0.69618,1.17101 -1.00872,1.50897 -0.48925,-0.55091 -0.95266,-0.9337 -1.0518,-1.93983 -0.0561,-0.57182 -0.0129,-1.51673 0.0474,-2.15537 0.10992,-1.19127 -0.041,-3.09748 1.26089,-3.84087 1.3622,-0.77873 3.55851,0.49768 4.70086,1.36758 2.70498,2.06075 3.73741,4.64246 4.05857,7.86172 0.26294,2.63731 -0.96345,5.39166 -3.41196,6.50921 -0.9613,0.43862 -1.81698,0.29636 -2.80197,0.2093 -0.53886,-0.0476 -1.08201,-0.24507 -1.50014,0.30864 -0.23495,0.31317 -0.0841,1.16799 -0.0453,1.59433 0.11854,1.26972 0.17673,2.62739 0.3427,3.87967 0.10776,0.79683 0.12501,1.36283 0.12501,2.15536 m 28.45088,-23.58556 c 1.81051,-0.52591 3.42272,0.6216 4.73319,1.85383 0.81041,0.76192 1.49367,1.65899 1.35356,2.76448 -0.1444,1.12618 -0.63367,2.09631 -1.33631,2.89336 -0.46988,0.53324 -1.11002,1.04665 -0.88803,1.8284 0.2371,0.83392 1.26521,1.33763 1.95708,1.94932 1.38807,1.22511 2.75025,2.25042 3.48309,4.10576 0.45909,1.16067 -0.0453,2.16249 -0.90742,2.98972 -0.87508,0.8365 -1.71352,1.42857 -3.00675,1.83335 -1.05397,0.33 -1.57341,0.34594 -2.58644,0.42117 -0.78023,0.058 -1.61868,0.0142 -2.36228,-0.38517 -0.8018,-0.43193 -0.9462,-0.77378 -1.15528,-1.62622 -0.23493,-0.9669 -0.14656,-2.39526 -0.14656,-3.44838 0,-1.77386 0.0668,-3.76845 -0.55178,-5.58155 -0.48926,-1.43698 -1.05613,-0.88025 -1.1833,-2.17864 -0.10346,-1.04407 0.27804,-0.85655 0.46773,-1.93898 0.17458,-0.99793 -0.15304,-1.69002 0.0129,-2.58644 0.20906,-1.14019 0.90525,-2.54183 2.11657,-2.89401 m 56.47068,1.16971 v 3.87967 l -0.12501,1.93983 -0.39658,4.95735 -0.34056,3.44859 m 19.82939,-14.22544 c -0.58841,1.99243 -0.57331,4.55947 -0.9462,6.68165 -0.1444,0.83046 -0.10561,1.57385 -0.1401,2.37091 -0.0453,1.04147 -0.27588,1.90664 -0.14441,3.01752 0.11208,0.97035 0.15304,1.54604 0.15304,2.58644 m -42.02971,-14.22544 -1.87949,3.66413 -1.88378,4.0952 -1.19623,3.01752 -0.93544,1.50876 -2.94208,5.60396 m 38.79665,-16.81189 c -0.68325,0.83133 -3.9745,5.85657 -1.71136,6.35317 0.62506,0.1373 1.4678,-0.19506 2.14244,-0.28386 1.75447,-0.23084 6.59759,-1.13308 7.09763,1.26218 0.21554,1.03932 -1.1833,2.07821 -1.92474,2.60197 -1.1984,0.84662 -2.16615,1.22899 -3.4486,1.63075 -1.70059,0.53302 -3.53911,0.79641 -4.74181,-0.57181 m 4.0952,-10.9924 c 1.78249,1.7e-4 5.46818,0.54531 8.40594,0 m -49.35796,2.58645 c 0.91389,0.77356 1.8687,2.16981 2.52825,3.22465 0.29961,0.47957 0.73713,1.03199 1.07122,1.53548 0.3815,0.57333 0.69188,0.98975 0.92681,1.2749 m -13.14775,-5.6587 c 1.09062,-0.40651 2.99165,0.095 4.09519,0.38451 0.47203,0.12394 0.85353,0.20347 1.29322,0.47526 1.82776,1.13049 3.04986,2.92031 3.38395,5.23001 0.40736,2.82052 -0.48713,6.71612 -3.59948,7.7658 -0.9268,0.31231 -2.40754,0.0299 -3.23305,-0.54833 -0.7436,-0.52181 -1.26736,-1.08653 -1.89457,-1.82905 -1.15528,-1.37038 -1.44626,-3.26086 -1.67687,-4.95735 -0.10563,-0.77313 -0.0927,-1.34279 -0.0927,-2.15537 0,-1.60338 -0.17241,-3.65852 1.72431,-4.36548 m -16.16528,0.27028 c 1.10786,1.30917 1.08416,1.91569 0.43108,3.01752 m -28.66643,-1.29323 c 0,1.81806 -0.13362,2.17046 0.37074,3.87967 0.52159,1.77236 0.3427,1.91246 0.70696,3.87966 m 10.99238,-6.03503 c 1.45273,-0.9891 3.10158,-1.08394 4.52628,-0.43086 1.17898,0.54035 2.34288,0.6145 3.44858,1.36629 0.67464,0.45931 1.17253,0.92875 1.526,1.65425 0.70913,1.4579 0.75439,3.27099 0.27805,4.73857 -0.59057,1.81375 -2.13382,3.55918 -3.95941,3.98119 -1.22856,0.28408 -2.26961,0.0817 -3.23306,-0.64747 -1.4872,-1.12619 -2.70283,-2.59808 -2.80197,-4.41139 -0.0388,-0.72206 -0.20045,-1.40273 -0.14657,-2.15538 0.056,-0.72744 0.1401,-1.42966 0.23924,-2.15537 0.0561,-0.42611 0.21985,-1.25205 0.0259,-1.65575 -0.34055,-0.70653 -1.04966,-0.48776 -1.41176,-0.49962 m 22.63138,-0.21553 h 0.43106 m 24.14015,3.66413 c 0.67031,0.60781 0.90741,0.97465 1.72429,2.37091 m -57.97944,31.46838 c -0.13363,-1.53333 -0.40089,-2.34353 -0.58411,-3.87967 -0.39012,-3.24382 -0.79748,-6.14301 -0.19398,-9.48361 0.18968,-1.06238 0.65739,-4.67523 2.48298,-3.86114 1.64024,0.73154 2.41618,3.33221 2.69422,4.93881 0.25218,1.45769 0.5841,2.74292 0.73714,4.31075 0.0733,0.76429 0.0345,1.23805 0.12717,1.93983 0.12285,0.91258 0.28666,1.87667 0.33192,2.80197 0.0797,1.62473 0.0948,5.05327 1.51738,5.8195 m 142.03886,-20.04494 3.44858,0.21555 1.29322,0.002 1.24581,0.34443 -0.35132,1.37772 -1.32555,1.29429 m -38.79665,-3.01751 c -0.78887,1.06733 -0.81905,2.38664 -0.98717,3.66412 -0.0603,0.46814 -0.0841,0.80935 -0.0905,1.29322 -0.006,0.55696 -0.18752,1.2956 0.22199,1.80986 0.68111,0.85935 3.60163,-0.0222 4.73536,-0.17717 1.00871,-0.13794 1.57342,-0.27437 2.15537,-0.555 0.23493,0.43173 0.45477,1.0404 0.58841,1.93983 0.069,0.46471 0.11424,0.79921 0.18105,1.29323 0.0862,0.62031 0.0927,1.07057 0.0927,1.7243 0.002,1.49884 -0.13147,3.06881 0.21555,4.52627 m 23.49352,-14.87205 c 0.29313,1.58139 0.86861,6.09064 0.80611,8.40594 -0.0345,1.28891 -0.2996,2.61532 -0.1595,3.87967 m -26.07997,-12.07008 c 0.71989,2.12865 1.21347,3.32273 0.86215,4.52628 -0.48496,-0.63777 -0.95267,-0.97703 -0.43108,-2.15536 m 5.8195,10.5613 c 1.58851,2.08511 5.91218,1.42276 7.97487,0.60264 1.52601,-0.60652 3.64689,-1.48591 3.72232,-3.40461 0.14442,-3.65638 -5.72898,-5.20997 -7.81753,-4.09522 -0.71342,-1.11949 -0.13362,-2.85585 1.51307,-4.26223 2.23297,-1.91031 6.63854,-1.76439 9.26378,-1.55726 m -31.68393,0.21554 0.30606,4.95734 0.12502,1.93984 0.0625,2.37091 0.36857,4.74181 m -19.39833,-13.3637 c -1.41177,3.27874 -2.02173,7.54358 -2.60368,10.99239 -0.29098,1.72839 -0.0431,2.86146 -0.1983,4.31073 m -4.0952,-14.87205 c 0.2177,0.7311 0.12718,1.0557 0.31253,1.71481 0.26511,0.93931 0.93758,0.99407 1.19623,1.08718 -0.0388,-0.74081 0.0388,-1.51976 -1.07768,-2.15538 m 70.04951,-0.21553 c 1.10139,0.79295 4.40772,0.87012 5.89493,2.8246 2.55843,3.36282 -1.89457,7.88672 -5.24832,7.7367 m -84.27495,-10.34577 c 0.0625,0.37784 0.10561,0.83801 0.53884,1.3234 0.45048,0.50715 0.70266,0.64596 1.03889,1.26627 0.54316,1.00786 1.24365,3.10676 1.65533,4.30752 0.25864,0.75394 0.72635,1.87452 1.30615,1.86526 0.72851,-0.0115 0.87723,-0.60546 1.07984,-1.21951 0.33839,-1.02273 0.71557,-3.82018 0.84706,-4.52542 m -6.25058,-1.72485 c -0.42891,0.8018 -0.24571,1.88616 -0.21553,4.09521 0.009,0.7074 0.0323,1.2445 0.0323,1.93984 0,1.97496 -0.0927,4.25664 -0.46341,6.25056 M 426.91358,174.1797 c 0.17459,1.38051 0.49143,3.67942 0.63153,4.95734 0.0733,0.66709 0.30391,1.16218 0.4203,1.93983 0.23493,1.56868 -0.1789,3.00459 0.0991,4.52628 0.18752,1.02251 0.55824,1.13976 0.14226,2.15538 l -0.21554,-1.07769 m 35.5636,-11.639 1.2458,2.37091 1.18329,1.47405 0.58842,0.68132 m 32.33055,-4.52628 v 0.64661 m -64.23002,1.50875 -1.93983,0.95355 -2.58644,1.78356 -1.93983,0.92703 m -7.97487,6.89719 c -0.23709,-0.99902 -0.49142,-2.07412 -0.27589,-3.23306 0.22416,-1.20809 0.59703,-1.86914 1.19623,-3.01644 0.72852,-1.39044 1.90319,-1.48032 3.39039,-0.64769 m -30.82177,8.19041 c -1.72215,0.10216 -4.33876,0.0347 -5.216,-1.74456 -0.30176,-0.61428 -0.39444,-1.26499 -0.37504,-1.91958 0.0582,-1.97389 1.77172,-3.86931 3.6512,-4.44588 1.45488,-0.44637 2.18338,0.92142 1.72214,2.07476 -0.44831,1.12014 -1.73507,1.93445 -2.5843,2.15559 m 62.2902,-3.01752 -0.43323,2.15536 -0.85999,1.93984 m -47.2026,-3.87967 c 0.57332,0.0522 1.12725,0.12696 1.63161,0.54186 0.43538,0.35651 0.86431,0.93177 1.1639,1.39797 0.55609,0.86452 0.63368,0.97726 1.29754,1.93984 0.39443,0.57074 0.66169,0.98113 0.86214,1.28375 0.37504,0.57008 1.05613,1.19859 2.15753,1.04017 0.93542,-0.1345 2.11657,-1.15959 2.67265,-1.89305 0.42245,-0.55826 0.71343,-0.87574 0.78887,-1.50855 0.0733,-0.5979 -0.37718,-1.59368 -0.65954,-2.15538 m -5.8195,2.80199 c 0.31899,-0.44142 0.53454,-0.79921 0.69834,-1.50919 0.1401,-0.60372 0.32545,-1.71739 1.25011,-1.62343 0.91172,0.0923 1.81914,1.25831 2.34936,1.8394 0.4203,0.46081 0.70696,0.8115 0.84275,1.49906 0.0819,0.40974 0.0323,0.80567 0.0323,0.87184 m 26.07996,-4.0952 c -0.12285,1.12402 0.20262,2.16162 0.48928,3.23306 0.16165,0.60587 0.29529,1.10505 0.49574,1.7243 0.18105,0.55371 0.29097,0.94512 0.29097,1.50875 0,2.1295 -0.76731,4.35319 -2.78474,4.95736 m -40.95202,-10.99239 c 0.0625,1.35486 0.51729,3.00157 1.1488,4.31052 1.19193,2.4692 3.20936,2.15666 4.45515,0.21576 0.52161,0.43559 0.62506,0.66945 1.50877,0.64661 -0.62074,-0.68282 -0.72637,-0.66192 -1.29322,-0.64661 l -0.64661,-3.01753 m 25.64889,-1.07769 c 1.46565,0.85182 3.18996,3.36843 4.95735,4.74183 m 19.61386,-3.87967 0.43108,0.86214 m -37.93451,0.21554 1.93983,2.37091 m -8.62147,-1.50876 c -0.73929,0.77098 -1.1445,2.14761 -3.87967,2.15537"
       id="path45500"
       sodipodi:nodetypes="cccsscccsccscccccccccccccccccccccccccccccccscccccccccccccccsccccccccccccccccccccccccccsccccccccccccccccccccccccccccccccccccccccccccccccccccsccccscsccccccccccccccccccccsccccccccccccccccccccccccccccccccccccccccsccccccscccccccccccccccccccccccccccccccccccccccccscccccsccccccccccccccccccccccccccccccccccccccccccccccccsccccccccccccccccccccscccccccccscccccccccccccsccccccscccccccccccccccccccccccccccccccccccccccccccccccccccccccscccccsccccccccccccccccccccccccccccccccccccccccsccccscccccccccccccccccccccsccsccccccccccccccccscccccssccccccccccscccccccccccccccccccccccccccccsscccccscccccccccccscccscccccccccccccccccccccccccccccccccccccccccccscccccccccccccccccccccccccccccccccccccccccsssccccccccccccccccccccscscccccsccscccccccscccccccccccccccccccccccscccccscccccccsccscccccccccccccccccccccccscsccccccccccccccccscccccccscccsccccccccccccccsccccccccccccccscscccccccccccccccccccccccccccccccccccccccsccccccccccccccccccccccccsccccccccccsccccccccccccsccccccccccccccc" />
  </g>
</svg>
