<?xml version="1.0" encoding="UTF-8" standalone="no"?>
<!-- Created with Inkscape (http://www.inkscape.org/) -->

<svg
   version="1.1"
   id="svg44267"
   width="4044"
   height="1216"
   viewBox="0 0 4044 1216"
   sodipodi:docname="Casey - Pulsz - Envelope 12.svg"
   inkscape:version="1.1.2 (b8e25be833, 2022-02-05)"
   xmlns:inkscape="http://www.inkscape.org/namespaces/inkscape"
   xmlns:sodipodi="http://sodipodi.sourceforge.net/DTD/sodipodi-0.dtd"
   xmlns="http://www.w3.org/2000/svg"
   xmlns:svg="http://www.w3.org/2000/svg">
  <defs
     id="defs44271" />
  <sodipodi:namedview
     id="namedview44269"
     pagecolor="#ffffff"
     bordercolor="#666666"
     borderopacity="1.0"
     inkscape:pageshadow="2"
     inkscape:pageopacity="0.0"
     inkscape:pagecheckerboard="0"
     showgrid="false"
     inkscape:zoom="0.30613254"
     inkscape:cx="2022"
     inkscape:cy="607.57997"
     inkscape:window-width="1920"
     inkscape:window-height="1017"
     inkscape:window-x="-8"
     inkscape:window-y="-8"
     inkscape:window-maximized="1"
     inkscape:current-layer="g44273" />
  <g
     inkscape:groupmode="layer"
     inkscape:label="Image"
     id="g44273">
    <path
       style="fill:none;stroke:#474139;stroke-width:0.221078"
       d="m 125.1561,19.037164 c -1.82213,1.050787 -4.67559,0.817328 -5.89107,-1.114899 -1.42441,-2.264285 -0.84585,-5.2316 -0.45941,-7.728238 0.28807,-1.8617226 1.19515,-4.7640187 3.25538,-5.0848041 m 13.92794,3.0950986 c 0.64798,2.0272895 1.4463,3.3261245 2.43187,4.4215695 m 10.1696,6.190195 c 1.72044,-0.585857 7.30134,-3.228409 5.39719,-5.724826 -1.60503,-2.104224 -4.65724,-0.05991 -5.82895,-2.464803 -1.05344,-2.1623462 2.20061,-2.2992164 3.52686,-1.7589002 m -61.901956,0 c 0.06632,0.5244865 0.195432,1.5855752 0.224836,2.4318632 0.02078,0.598016 0.125572,0.93096 0.124466,1.547548 -6.63e-4,0.485931 -0.08489,0.850268 -0.154754,1.326471 -0.09683,0.659476 -0.355937,1.50665 -0.06102,2.149103 0.419165,0.913718 1.254399,0.708115 2.298331,0.725579 1.384615,0.02321 2.59325,0.193002 3.49525,1.128827 0.802294,0.83214 0.800525,1.422419 0.705241,2.407766 m -19.4549,-10.390687 c 0,1.538264 0.194107,2.59303 0.496542,4.421569 0.108328,0.654392 0.116509,1.448284 0.521083,1.857059 0.607964,0.614819 1.063386,0.414963 1.856395,0.558002 0.624988,0.11275 1.119541,0.30752 1.547549,0.309951 1.223226,0.0075 2.335914,-0.594259 3.53615,-0.206044 0.663235,0.214446 0.956826,0.508259 1.326691,1.242681 0.33007,0.655498 1.618514,2.759944 2.400912,2.63636 1.187191,-0.187695 0.915707,-3.458992 0.916148,-4.187225 m 50.626966,-1.547548 c 0.25114,-0.976505 1.01939,-3.017058 2.07592,-3.844997 0.558,-0.437293 1.15646,-0.272811 1.67268,0.06323 1.24312,0.809368 1.35941,2.459718 1.77836,3.781768 M 90.446789,12.846968 c 0.547832,-0.09882 0.97805,-0.372738 2.210784,-0.867954 0.840982,-0.338028 1.571647,-0.298676 2.431863,-0.458516 m 6.411274,10.169607 c 1.70031,0.09882 5.0554,-1.115562 7.07053,-2.767459 0.70303,-0.576351 1.49935,-1.3897 0.95506,-2.304301 -0.70679,-1.188296 -2.9525,-1.426397 -4.04618,-1.707831 -1.14939,-0.295581 -1.70075,-0.761394 -2.21078,-1.179232 1.0877,-1.015414 2.83489,-2.083 5.0848,-1.547549 m -5.30588,1.547549 c -1.21239,1.184097 -3.618171,2.339231 -5.305883,2.87402 -0.298456,-1.019614 -0.254905,-1.917413 0.402141,-2.861197 0.535674,-0.769575 2.623092,-1.378645 3.355312,-1.218142 0.80516,0.17642 1.21261,0.431986 1.54843,1.205319 m -81.135785,12.60147 c 0.8569,0.10833 3.147274,0.147681 5.084804,-0.337364 1.140986,-0.285855 3.54035,-0.505608 4.190984,-1.68484 0.605313,-1.097432 -0.600671,-2.270695 -1.354769,-2.998707 -1.516376,-1.464204 -4.684872,-2.465026 -5.669556,-4.486345 -1.365822,-2.803054 4.165118,-4.242275 5.92844,-3.75745 m 102.801472,1.989706 c -0.16471,1.065599 -0.79633,1.727065 -1.61078,2.359128 -0.89625,0.695513 -2.86341,1.271865 -3.84588,0.528599 -0.50229,-0.380034 -0.53833,-1.016077 -0.48748,-1.561034 0.0562,-0.597575 0.22572,-1.049238 0.88343,-1.618294 0.80561,-0.697503 1.38041,-0.971199 2.40777,-1.025141 1.96185,-0.103022 2.1586,0.733317 3.5021,0.879229 l 0.47731,-0.0046 M 96.636984,13.952361 v 0.221078 m -28.519117,8.179902 c 1.540696,1.221679 3.055745,2.134513 5.084804,1.651015 1.11313,-0.265295 2.750878,-1.274075 2.288825,-2.756406 -0.566182,-1.817265 -3.032534,-2.516979 -4.720688,-2.961346 -0.542747,-0.142818 -1.243123,-0.161389 -1.765089,-0.361906 -0.498976,-0.191896 -1.001708,-0.474877 -1.001708,-1.090359 0,-1.423303 2.066421,-0.84054 2.766797,-0.450116 m 64.775982,-0.663235 0.22108,0.221079 m -74.28125,0.830812 c 1.367369,-0.297793 2.252788,1.115341 2.712632,2.043207 0.37119,0.749013 0.650855,1.428829 0.512239,2.210784 -0.218648,1.231628 -1.847111,2.359571 -3.004899,2.577555 -1.027351,0.193442 -1.961407,0.15785 -2.331713,-0.64953 -0.170674,-0.371853 -0.101255,-0.866848 -0.02963,-1.26479 0.243187,-1.352557 0.403026,-4.538739 2.141366,-4.917226 m 36.255757,-0.167577 c 0.381581,1.74475 2.409748,3.117869 4.863718,2.874019 M 78.066396,16.82638 c 0.292267,1.507313 0.708778,3.524212 0.884313,5.74804 m 2.652942,-4.863727 c 0.0027,0.765817 -0.138837,1.300605 0.354389,1.9393 0.41629,0.53877 1.052555,0.81158 1.856396,0.5863 1.199129,-0.335817 1.885135,-1.029341 2.431862,-1.420207 m -35.593626,6.190196 c -1.833625,0 -3.592968,-0.148343 -5.075077,-1.279822 -0.504722,-0.385119 -0.991759,-0.921677 -1.067145,-1.594418 -0.07627,-0.678932 0.132647,-1.018951 0.376054,-1.546444 0.303099,-0.656603 0.60686,-0.973409 1.127721,-1.411365 0.546726,-0.459842 0.884756,-0.750119 1.543348,-0.925656 0.825728,-0.220194 1.312763,-0.0703 1.768628,0.107444 0.559549,0.218205 1.555507,0.73774 2.210784,1.1233 l -1.253294,0.58829 -0.07318,-1.251525 m 3.979412,0 c -0.06433,0.03736 0.405457,-0.326754 0.698387,-0.373181 0.645328,-0.102359 1.185644,0.114299 1.155798,0.806494 -0.02609,0.608187 -0.465813,0.751005 -0.978494,0.510028 -0.760068,-0.357484 -1.103401,-0.794997 -1.317848,-0.943341 -0.426239,1.334429 0.410322,1.493385 1.105392,1.547549 m -3.316176,-0.884314 1.768628,-0.221078 m -1.768628,0.663236 c 0.293813,1.111803 1.128384,1.428166 1.989706,0.221078 M 40.92522,20.584714 c 1.038627,0.03405 1.649466,0.03648 1.846227,1.109593 0.09241,0.504059 -0.0091,0.866185 -0.200077,1.322269 -0.263747,0.629632 -1.609451,1.948585 -2.309385,2.105994 -1.151597,0.259103 -2.114837,-0.593595 -3.095099,-0.654172 -0.758519,-0.04687 -1.054101,0.280549 -1.768405,0.300446 -1.954997,0.05461 -1.768849,-2.282856 -1.768849,-3.299816 m 13.043628,0.221077 1.989706,-0.663235 m -5.526962,0.663235 h 1.105393 m 8.622058,0 3.537255,1.768628 M 37.387966,21.911185 c -0.0022,0.874585 0.01083,1.205982 -0.22108,1.989706 m 22.107844,-0.663235 -0.442157,2.652941 m 151.880877,3.095097 0.22107,4.200491 0.22109,7.737744 m -28.96128,-11.275 c 0,0.825507 0.16006,2.058241 0.21245,3.095098 0.0188,0.36898 -0.082,1.210184 0.36303,1.572089 0.54207,0.44083 1.99676,0.196539 2.51963,0.196539 m 6.63235,-4.421569 c -0.30575,1.280708 -0.71387,2.9357 -0.57614,4.421569 0.078,0.839434 0.46095,1.528094 1.24357,1.865018 0.72558,0.312162 2.75839,0.626535 3.39974,0.118497 0.53125,-0.420932 0.33582,-1.58491 0.36301,-2.204594 0.0745,-1.695007 0.37032,-2.73474 0.65461,-4.20049 m -28.96126,0.663236 c 0.56728,1.085273 1.32006,0.952848 1.73922,2.001864 0.73818,1.847553 0.78195,3.916847 0.72248,5.735881 -0.0158,0.477971 -0.0376,0.890503 0.19742,1.276065 0.3586,0.588289 0.79567,0.620566 1.32051,0.692858 2.24306,0.308627 2.17055,0.688218 3.53703,1.362286 0.70635,0.34842 1.09102,0.307078 1.76863,0.004 1.38792,-0.620566 2.74225,-2.185581 2.54351,-3.777345 -0.14084,-1.129269 -0.93097,-1.884694 -1.6592,-2.652941 -2.15949,1.855069 -2.73208,4.011467 -2.87401,5.969117 m 26.54223,-9.720376 c 1.18763,-0.6314 3.18883,0.208919 4.18435,0.870385 0.8297,0.551591 1.32867,1.237819 1.25595,2.217638 -0.10943,1.473709 -1.27408,2.817424 -2.57999,3.495471 -1.12816,0.585636 -2.44624,0.89802 -3.46983,0.107223 -1.65212,-1.275844 -1.15071,-3.510284 -0.48482,-5.150242 0.24893,-0.613052 0.46294,-1.204878 1.09434,-1.540475 m -33.83782,-0.0071 c -0.52926,1.720875 -0.59691,2.613589 -1.26479,4.863726 -0.23677,0.798093 -0.78019,1.891547 -0.55314,2.602536 0.25689,0.803618 1.01807,0.654613 1.81793,0.751223 1.07134,0.12911 1.72551,0.281654 2.43185,-0.03758 M 136.4311,32.522945 c 0.49721,0.838549 1.15514,1.249976 1.09721,1.764426 -0.0895,0.795882 -0.78925,0.933615 -1.76044,0.446357 -0.36832,1.245777 -0.48991,2.91315 -0.64688,4.20049 -0.0544,0.446137 -0.0833,0.799641 -0.32034,1.32647 -0.71696,1.593755 -0.71652,2.415283 -1.46465,4.42157 m 3.0951,-11.717153 -0.66323,1.768628 m -34.26716,-0.663235 0.91305,4.642647 0.19234,1.768628 0.88431,3.979412 c 0.35594,-0.286961 0.81158,-0.524399 1.17216,-1.330009 0.19102,-0.426238 0.24805,-0.895368 0.47554,-1.316522 0.71121,-1.3163 0.99817,-1.048575 1.66848,-1.553961 l -0.88431,0.22108 m 72.51371,-5.305882 c 1.34881,-1.454255 3.0425,-0.663678 3.75834,-0.663236 m 0.66324,0.221078 c 0.002,1.46575 0.46139,4.138809 0.22107,6.411275 m -45.09999,-6.190197 c 1.21814,2.594799 2.47409,6.597865 2.21079,9.064216 m 56.15391,-7.07451 c 0,1.478794 -0.0758,3.395765 0.88432,5.084804 M 142.84238,39.37638 c -0.1751,1.060956 -0.13774,2.799516 0.59757,3.707928 0.74835,0.92455 1.95168,0.879891 2.86783,6.63e-4 0.82219,-0.788586 1.47703,-1.289772 1.99568,-2.184033 0.90686,-1.563468 1.18763,-1.53119 2.43451,-2.646309 0.7656,-0.684681 1.38727,-1.10473 2.22361,-0.734424 0.70966,0.314374 0.82528,1.112688 0.27148,1.856175 M 76.07669,37.828832 c 0.162273,2.057356 0.100812,4.144557 0.240975,6.190195 0.03007,0.440831 0.175537,1.166188 0.168462,1.547549 -0.01525,0.812685 -0.206044,1.048354 -0.864637,1.674891 -0.947322,0.900894 -1.084389,1.22389 -2.418819,2.051607 -0.919023,0.570162 -2.668858,0.940025 -3.758333,0.818875 -0.467139,-0.05195 -1.091686,-0.180842 -1.547549,-0.150776 -0.786819,0.05195 -0.953732,0.24606 -1.768628,0.5779 -1.465087,0.596248 -2.614473,0.79367 -3.979412,0.774659 -0.889178,-0.01239 -1.678428,-0.187255 -2.385436,-0.81357 -1.035311,-0.917474 -1.158009,-2.06443 -1.151597,-3.386036 0.0073,-1.566341 0.763604,-3.3332 1.747182,-4.604843 0.564193,-0.729559 1.114457,-1.112468 2.010929,-1.143197 m 51.511273,2.210784 -1.10539,0.663235 c 0.95837,0.07539 1.14275,-0.311278 1.54755,-0.663235 0.3398,0.633832 0.43641,1.232954 1.15513,1.9393 0.85093,0.836339 1.65544,0.617694 2.82428,0.509144 1.22345,-0.113856 2.11241,-0.303099 3.31618,-0.779301 0.91526,-0.361906 3.04933,-0.865743 3.04933,-2.104889 0,-0.912389 -1.28004,-1.184538 -1.94394,-1.300825 -0.96081,-0.168461 -2.49664,-0.392192 -3.05774,-1.382403 -0.67097,-1.184317 0.13199,-1.753816 0.84695,-1.965829 m 43.55246,4.421568 c 0.41585,-1.316964 0.92322,-2.572911 1.76862,-3.316177 m -58.80686,0.663235 c 0.77753,0.666774 0.99662,1.033984 1.15801,1.989706 0.1322,0.783724 0.11562,1.41844 -0.1762,2.210786 -0.44901,1.21792 -2.59723,3.915741 -4.24824,3.38073 -0.60134,-0.194991 -0.79876,-0.898683 -0.83281,-1.391247 -0.0506,-0.733979 0.24098,-1.279601 0.34091,-1.768405 m 31.83529,-4.42157 c 1.1149,0.617915 3.09134,1.167074 4.42157,0.22108 m -24.76079,0.221078 -0.22107,2.652941 m -17.465198,-2.431863 -0.191234,2.652941 0.190128,1.768628 0.07627,1.547548 0.809147,1.768628 m 50.184807,-7.295588 c 1.20885,1.643497 4.09437,3.74308 7.73774,1.989706 m 4.2005,-1.768628 c -0.16737,1.32426 -0.0765,1.943059 -0.26729,3.316176 -0.27038,1.946596 -0.69795,3.925912 -2.38566,4.200492 M 82.045808,44.90334 c -0.742381,1.032217 -0.912832,3.299818 1.105393,2.784925 1.417775,-0.361683 1.46796,-1.53163 2.652941,-1.379529 1.476803,0.189244 1.789629,0.794778 3.306228,0.644887 l 0.416953,0.02741 0.477308,0.13309 c 0.275023,-0.647318 0.458296,-1.601713 0.694187,-2.210786 0.250703,-0.647758 0.520197,-1.096105 1.013644,-1.767522 0.564413,-0.768026 0.934941,-1.39412 1.806433,-0.940245 1.407385,0.732875 1.239807,1.390141 3.118089,1.381297 m 78.482836,-1.547549 c -0.24407,0.98999 -0.52704,2.504377 -0.88431,4.42157 m -63.00735,-4.200492 c 0.0157,1.324924 0.23965,1.968483 1.54755,1.989706 m -26.971568,-0.88431 c -0.263084,1.10517 -0.233681,1.639297 0,2.431863 m -34.046079,1.768627 c -1.331777,-0.309068 -3.348012,-1.51505 -4.642647,-0.878345 -0.75255,0.370086 -1.37776,1.324261 -2.210563,1.225217 -0.784828,-0.09307 -1.615862,-0.784828 -1.694344,-1.894421 -0.105898,-1.500459 1.295298,-2.252567 2.578436,-1.989706 m 49.079411,-0.221078 v 0.442156 m -76.714213,3.537256 c -0.151881,-0.532578 -1.089475,-1.774597 -0.307963,-2.824278 0.64997,-0.873038 1.962735,-0.933613 2.960904,-0.933613 1.836719,-1.66e-4 4.647731,0.390646 5.393429,2.431641 0.917918,2.512335 -1.831192,4.695043 -3.286773,6.632132 -0.630074,0.83833 -0.783944,1.363169 -1.001265,1.989706 1.893759,0.559771 5.416422,-0.498532 7.958823,-0.642675 1.19272,-0.06743 2.364434,0.388434 3.537256,0.409657 1.391025,0.0252 3.58744,-0.864858 4.642647,-1.5785 0.569277,-0.384897 0.985568,-0.661908 1.480341,-1.286897 0.439283,-0.555127 0.759846,-1.214604 0.198086,-1.829645 -0.957269,-1.047912 -2.722359,-0.779743 -4.11029,-0.823296 -0.823075,-0.02587 -1.648803,-0.03404 -1.729718,-0.904873 -0.125572,-1.353443 1.556393,-1.55595 2.171875,-2.850144 -1.23406,-0.716735 -2.868492,-1.033762 -4.863726,-0.663236 m 36.477941,4.642647 c -1.491174,-1.435904 -0.474434,-1.954111 0.884314,-2.812558 0.542968,-0.343115 0.93295,-0.810253 1.547549,-1.033543 0.835676,-0.303762 2.265832,-0.370085 3.316176,0.03073 1.125731,0.429776 1.507314,1.126615 1.989706,1.604587 m 0.442158,0 c 0.552695,0.651076 0.663235,1.206204 1.547548,2.652941 M 45.788945,47.998439 c 0.323218,0.220857 0.616588,0.426681 1.327577,0.754762 0.89581,0.413638 2.077695,1.009664 2.293247,2.119479 0.158954,0.818432 -0.365002,1.611882 -1.008781,2.077253 -0.466697,0.337144 -0.851816,0.356157 -1.285572,0.337144 -1.371128,-0.06013 -2.383888,-1.793388 -2.428546,-3.298489 -0.02697,-0.915708 -0.0033,-1.211068 -0.0033,-1.547992 m 62.34412,7.074509 0.38335,3.758113 0.4132,1.193381 2.29855,0.354388 m 34.04608,-4.642647 c 1.03332,-0.0086 2.018,-0.227489 3.09509,-0.380475 0.48638,-0.0692 1.38992,-0.273695 1.83628,0.147902 0.65815,0.621009 -0.14635,1.970692 -0.49831,2.664437 -0.51047,1.006127 -0.97805,1.933773 -1.55042,2.874019 -0.85668,1.406722 -1.55905,2.490227 -2.44049,3.979411 m -5.74804,-5.969117 c -0.36544,0.183938 -0.82705,0.385782 -1.24467,0.766922 -0.35527,0.324322 -0.80428,1.324922 -1.53693,0.962795 -1.22721,-0.606417 -0.38512,-3.044691 0.26971,-3.937185 0.56043,-0.763163 1.03553,-1.26899 1.83562,-1.209078 1.0552,0.07915 0.93162,1.307016 0.92786,1.867891 -0.004,0.623 -0.0281,1.129049 -0.0305,1.327577 l 4.86373,-0.884313 m -42.0049,-2.210786 0.43884,3.316177 0.22019,2.431863 0.22196,3.758334 0.2244,3.095097 M 155.44385,56.17834 c 1.70982,0 6.60206,-0.269937 5.54972,2.652941 -0.53345,1.481447 -2.6998,3.475796 -4.00217,4.372711 -1.3183,0.907969 -3.2209,1.856838 -4.86285,1.942616 -1.4695,0.07694 -2.15507,-1.531852 -1.85794,-2.778071 0.4006,-1.681081 1.86944,-3.412567 3.40461,-3.537256 m -34.70931,-0.884313 c -0.008,0.89979 -1.01033,3.554058 -0.0878,4.512433 0.81136,0.842749 2.02972,0.390202 3.18286,0.354388 0.76604,-0.02388 1.55551,0.09131 1.8365,-0.69905 0.39441,-1.10915 -0.0679,-2.144683 -0.0679,-3.504535 m 7.51667,-0.663236 c -0.21578,0.766037 -0.80959,2.874019 -0.52904,3.441308 0.43773,0.884976 1.29308,0.37937 2.07659,0.09595 m -5.74804,-2.431862 c -0.75742,1.133469 -0.27458,2.015572 -1.23804,2.961787 -0.68557,0.673406 -1.1883,0.351957 -1.85706,0.354389 M 62.811985,60.157752 c 0,2.484922 0.25225,2.2508 0.197201,4.200491 -0.01769,0.627641 -0.38755,1.942837 -0.360137,2.652941 0.03051,0.790134 0.220637,1.720874 0.666774,2.319112 0.453653,0.608629 1.198466,0.716074 1.706945,1.017846 0.961028,0.570161 1.635318,1.286013 2.431864,2.190003 M 91.55218,60.368661 c 1.155798,-0.05107 2.129871,0.527715 3.095098,0.925213 1.257937,0.517987 2.982127,0.680702 3.718761,1.997444 1.220795,2.182487 -1.930678,4.234978 -3.718761,4.574334 -2.812117,0.533684 -5.518117,-0.814232 -5.86322,-3.728488 -0.105013,-0.886083 0.0619,-2.184034 0.525946,-2.823613 0.526386,-0.72558 1.251525,-0.900895 2.242176,-0.94489 M 16.385515,72.317067 c 0.636043,0.484825 1.192718,0.802955 1.989706,0.862647 0.65196,0.04886 1.126616,-0.0097 1.768628,-0.183274 0.556454,-0.150554 1.010991,-0.340903 1.546664,-0.635159 0.75233,-0.413416 1.0006,-0.974733 1.807094,-1.135679 0.754984,-0.150555 1.099424,0.195654 1.952124,0.101475 1.171273,-0.129552 2.018003,-0.119162 2.77807,-0.747024 0.554244,-0.457854 0.734644,-1.389478 0.404796,-2.222501 -0.637149,-1.607682 -3.101288,-2.319334 -4.509337,-1.276287 -0.755204,0.55955 -0.912834,1.10473 -1.768628,1.237377 -0.533241,0.08268 -1.133026,-0.293814 -1.547548,-0.573478 -0.870164,-0.586741 -1.878282,-1.29375 -2.615359,-2.069294 -0.963901,-1.013865 -2.105108,-2.235987 -1.974672,-3.748606 0.09418,-1.092349 1.030448,-1.542243 1.93709,-1.440547 0.896472,0.10037 1.437231,0.492783 1.989706,1.218585 m 87.547061,-0.884315 c -1.59,1.156905 -3.07189,0.641128 -4.64265,1.105393 m 4.64265,-0.663235 c 0.34001,1.428166 0.42049,3.861576 0.22107,5.748039 m 28.96128,-5.748039 c 1.20465,1.024255 2.95073,1.50908 3.8251,3.095982 0.94754,1.719106 -1.84402,2.932163 -3.16187,2.856775 -3.2965,-0.1888 -2.39538,-4.30904 -1.9897,-5.5106 m -72.292648,2.652941 c 0.492341,-0.101918 0.97805,-0.119604 1.731044,-0.499638 1.519693,-0.766921 2.837541,-1.817706 4.238074,-1.932225 m 61.23872,0 c -0.0807,1.699209 -0.49698,2.690966 0.44216,4.642647 m -87.547056,-4.20049 c 0,1.913212 -8.29e-4,3.835931 0,5.748038 1.65e-4,0.60465 -0.01017,1.483658 0.218425,1.989706 0.28718,0.636265 0.58011,0.905759 0.884755,1.32625 0.447021,0.61703 1.515493,2.411303 2.434074,0.884536 m 79.146072,-9.94853 c 1.50511,0.803178 2.78758,0.442156 4.2005,0.442156 m -6.1902,0 c 0.0546,1.271422 -0.008,3.118312 0.44216,4.642647 m -61.459807,2.431863 -0.221078,0.884314 c -0.206046,-0.105896 -0.574583,-0.363011 -1.075768,-0.827939 -0.458296,-0.425354 -0.74636,-0.492783 -1.356979,-0.756088 -1.030888,-0.44481 -2.426778,-0.755868 -3.536371,-0.864638 -1.066039,-0.104349 -2.3001,-0.382465 -3.044693,-1.138332 -1.452042,-1.47393 0.11474,-2.652942 1.497145,-3.067243 1.114456,-0.333828 2.147333,-0.05284 3.095097,0.02189 m 560.433804,1.105392 c 1.12973,5.476114 4.9809,11.717599 5.08481,16.580882 -1.12529,-0.166251 -2.18204,-0.62963 -3.97941,-1.32647 M 77.403161,66.12687 l -3.329884,5.084804 -1.112909,1.768628 -0.83258,1.768626 -1.35698,3.979412 M 51.094827,66.790105 c 0.01481,0.290497 -0.0055,0.523735 0.131321,1.110919 0.187918,0.805831 0.349305,1.980643 -0.385117,2.474531 -1.416671,0.952185 -3.063484,-1.40451 -2.620223,-2.922215 m 34.930393,-0.442156 c 0.328301,1.436568 0.595585,3.488838 0.348198,5.305883 -0.192781,1.416448 -0.236997,2.029941 -0.790356,3.316176 M 32.303162,70.990596 c 0.298235,-0.932951 0.736411,-3.713897 2.2099,-3.618834 1.203772,0.0776 1.267885,0.771565 1.32625,1.629349 0.07715,1.12971 0.156523,3.218017 0.664339,4.421347 m 6.853433,-3.316177 c -0.562867,0.456749 -1.069358,0.9471 -1.989706,1.569437 -0.619462,0.418722 -1.596187,1.153587 -2.298553,0.631841 -0.4468,-0.332059 -0.362127,-1.038184 -0.350852,-1.538042 0.02343,-1.033542 0.402364,-2.344095 1.151597,-2.99915 0.675174,-0.590721 1.374003,-0.524397 1.939963,-0.538105 m 28.076962,0.884313 c 0.195654,2.45795 1.518146,3.609549 2.874019,4.642647 M 22.79679,68.779811 c 0.103905,0.820644 0.186589,1.187191 0.221078,1.989706 m 37.583333,-1.326471 1.105391,1.105393 m -0.884313,-0.221078 -3.537254,2.087864 -2.652942,0.12292 m 8.40098,-1.547549 v 1.547549 m 566.181847,-0.884314 0.88431,4.20049 m -46.20538,-3.316176 c 0.55712,2.433189 1.37731,7.26331 1.82831,10.390686 0.19897,1.378644 0.30288,2.813665 1.04571,3.979412 l 1.54754,-0.442158 m -59.91225,16.801965 c -1.06338,0.75631 -2.07813,1.18851 -3.31617,1.51306 -1.29552,0.33979 -3.13048,0.49035 -3.91309,-0.86287 -0.4289,-0.73995 -0.57702,-1.25219 -0.95063,-1.75559 -0.36037,0.30576 -0.69199,0.62146 -1.32648,1.00038 -0.55711,0.33096 -1.2933,0.62123 -1.9897,0.79036 -1.16952,0.28408 -2.12015,0.39882 -3.31618,-0.20759 -2.26385,-1.14851 -1.39722,-2.90962 -1.38175,-4.899101 0.007,-0.92455 -0.41784,-1.3037 -1.27562,-1.954775 -1.24025,-0.94069 -2.99782,-1.811518 -4.41714,-2.521621 -3.43113,-1.71579 -7.9124,-3.550078 -8.74144,-7.68314 -0.76272,-3.810286 0.11717,-8.58956 3.21448,-11.22791 1.36184,-1.159998 4.10321,-2.079906 5.73699,-0.988441 1.76198,1.177463 1.77967,5.067338 1.77967,6.689391 m 31.8353,-7.07451 c 0.81357,1.837604 0.79145,3.192151 1.35742,5.084804 0.36478,1.223006 0.61239,2.511009 0.90421,3.758334 0.32498,1.379307 0.63891,2.795094 0.9219,4.20049 0.53722,2.662006 1.16729,5.320694 1.58292,7.958823 0.12822,0.812906 0.18349,1.586016 0.28297,2.431863 0.26089,2.176075 0.63893,4.572563 1.804,6.411273 M 410.34727,75.191086 c -1.20266,2.457286 -1.03907,4.643973 -1.1076,7.516666 -0.0154,0.60487 -0.12381,1.163537 -0.18128,1.768628 -0.10612,1.124847 0.0177,2.218522 -0.0575,3.316176 -0.21223,3.098635 -0.2255,5.689896 -0.44216,8.843137 -0.0995,1.454254 -0.18348,2.411523 -0.33382,3.758337 -0.084,0.74149 -0.0663,1.28402 -0.0973,1.9897 -0.0707,1.6236 -0.38688,3.19105 -0.59249,4.86373 -0.48195,3.93033 -0.72513,6.92064 -0.72513,10.83284 M 393.10315,76.517556 c 1.10318,1.354769 2.72811,2.83909 3.97278,4.642647 0.54828,0.791683 0.9639,1.440327 1.46355,2.210784 0.53942,0.833246 1.14297,1.572974 1.68019,2.431863 1.7642,2.832235 2.91603,6.002722 4.67138,8.843137 1.25351,2.029942 1.66031,3.043145 3.24544,4.642647 M 647.12227,84.697458 c -0.40458,-0.374728 -0.8998,-0.762278 -1.18277,-1.346589 -0.38026,-0.782397 -0.62566,-1.888673 -0.39131,-2.853901 0.53943,-2.221618 2.45398,-3.335853 4.66918,-3.573955 1.11865,-0.120266 2.75906,-0.329627 3.74949,0.382467 1.14076,0.822191 1.17172,2.040995 0.37804,3.190604 -1.09654,1.587122 -2.75022,2.262737 -4.56969,2.832678 -0.73399,0.2297 -1.8239,0.365221 -2.2749,1.019171 -0.45984,0.66611 0.28299,1.436347 0.73619,1.873861 1.42816,1.373338 3.05309,1.396552 4.85489,1.128605 m -93.07402,-9.506372 3.09509,0.221078 1.98971,0.23567 2.65294,0.240755 6.1902,1.73436 m -13.04363,-2.210785 0.44216,1.32647 m 3.75833,-0.884313 c 0,1.650572 -0.20118,2.133407 0.31614,3.979412 0.76493,2.734739 1.72441,5.480092 2.14446,8.400981 0.14591,1.006791 0.46206,2.61403 0.61681,3.537254 0.15254,0.913718 0.26751,1.420207 0.45985,1.989706 0.34046,-0.128225 0.68977,-0.244291 1.32647,-0.416955 0.42447,-0.114739 0.87768,-0.267725 1.32647,-0.417616 0.99927,-0.33427 2.60872,-0.46935 3.53725,-0.894041 1.19162,-0.545622 1.27562,-0.984904 1.1054,-2.471878 m 66.10244,-13.706863 -0.79588,5.74804 -0.9418,2.874019 -1.82167,2.639676 -1.69348,-1.313426 -2.64188,-5.52674 -0.50626,-2.87402 m -71.8505,-0.221078 0.66323,0.442157 m -133.0892,0 c -1.36185,1.459118 0.31172,5.517454 1.03243,7.737744 1.65145,5.091437 3.19901,10.74817 3.84235,15.917646 0.29846,2.41926 0.0309,5.9689 1.09434,8.1799 m 188.57989,-30.287742 1.76864,0.83413 2.65294,0.934498 m -30.06668,8.622059 c 0.0575,-1.328682 0.23876,-2.639013 0.40457,-4.200491 0.11275,-1.046363 0.17687,-1.741434 0.68093,-2.652941 1.08771,-1.973788 2.86738,-3.179991 4.88362,-2.210784 m 20.33922,-0.442157 c 0,1.415344 0.49742,5.02047 1.20045,7.516667 0.29625,1.048575 0.55933,1.767522 0.56818,2.874019 m -17.46078,-9.057141 c 1.21593,-0.610619 2.7259,0.703472 3.30734,1.201119 0.56375,0.482393 0.91084,0.790577 1.01916,1.444747 0.21666,1.310112 -1.31984,2.14623 -2.35006,2.692736 -1.27784,0.677606 -3.91751,1.245335 -4.14965,-0.924328 -0.0774,-0.724253 0.17908,-1.311216 0.46206,-1.989486 0.38911,-0.926096 0.66103,-1.898622 1.71115,-2.424788 m 9.50196,0.656161 c -1.82169,1.313205 -2.2108,2.702242 -2.2108,5.084804 -1.59176,-0.01438 -1.93001,-0.06058 -2.87401,-1.326471 m -17.90735,2.874019 c -1.62714,1.010993 -5.2285,1.407386 -5.454,-1.32647 -0.19456,-2.37416 3.59251,-4.958347 5.67507,-5.031081 1.74873,-0.06124 0.95285,1.591102 0.19897,2.339672 -1.23582,1.225659 -2.56893,2.008056 -4.17838,2.249253 m -156.7446,-4.421569 0.86,3.537254 2.22847,7.07451 1.55417,5.969121 1.54755,9.28529 M 86.246298,95.088144 c -1.054986,-0.334491 -4.565269,-0.850488 -3.123175,1.538043 0.758963,1.257273 4.427095,1.605913 3.861135,3.543443 -0.291381,0.99751 -1.493385,1.41424 -2.285509,1.73193 -0.927423,0.37185 -1.931784,0.54872 -2.874019,0.44039 -0.704135,-0.0809 -1.114235,-0.25358 -1.433915,-0.55579 -0.559992,-0.52948 -0.724032,-2.408873 -0.768248,-3.381839 -0.133974,-2.953167 -0.448125,-6.142665 -0.994631,-9.064216 -0.140165,-0.749014 -0.752331,-3.357739 -0.206929,-3.742415 0.690428,-0.486815 1.314089,0.215329 1.635095,0.426238 M 530.39286,85.581772 c -1.17172,2.199289 0.26972,4.423116 2.21078,6.411274 m 50.62697,-6.411274 c 1.34414,0.578119 1.86147,0.619019 2.87401,0.663236 m 46.2054,0.221077 0.66323,3.316177 m -46.20539,-2.874019 c 0.0154,1.887788 1.31983,5.573166 1.32647,8.179901 M 126.48257,94.203831 c -0.002,0.882987 -0.65107,2.86186 -0.20626,3.379847 0.39528,0.460285 0.93317,-0.07097 1.17171,-0.33626 0.39684,-0.441715 0.88763,-1.366044 1.23097,-1.938196 1.60613,-2.675932 1.74165,-3.845659 3.7727,-4.642647 0.4961,1.632444 0.0267,2.153525 0.88431,3.758334 0.94047,-0.553359 1.67909,-1.160882 2.81124,-3.095099 0.53014,-0.905979 1.35454,-2.200392 2.06133,-2.844616 0.47466,-0.432429 1.06295,-0.9471 1.68948,-0.644664 0.61372,0.296025 0.49279,1.368254 0.41873,1.941732 -0.25933,2.005844 -0.31261,3.758775 -0.5695,5.74804 m 437.29312,1.105391 c -0.0243,-0.3157 -0.22328,-1.123521 -0.0398,-1.768627 0.29404,-1.039069 0.68756,-1.069135 0.87769,-1.989706 0.11053,-0.532357 0.2277,-1.260369 0.42447,-1.768628 0.3095,-0.799641 0.7804,-2.291257 1.83716,-2.291257 1.3331,0 1.73325,2.323093 2.01624,3.39665 0.34045,1.299278 0.23213,2.039449 1.07444,3.095097 m 33.16176,-5.305882 c 1.44143,1.93532 3.84677,1.622053 6.19019,0.884315 M 63.033063,92.656281 c 0.237881,0.387993 0.69706,1.439 1.329786,1.412028 0.61062,-0.02587 0.864418,-0.499416 1.141871,-0.979376 0.385782,-0.667658 0.875028,-1.732593 1.729938,-2.161484 1.137449,-0.570825 2.089634,0.221741 2.826488,1.066703 0.829708,0.9513 1.566119,2.079022 1.560372,3.31507 -0.0068,1.451381 -1.491175,2.178287 -2.491997,3.04403 -0.71983,0.622335 -1.597733,1.09677 -2.559202,1.452705 -0.865745,0.320563 -1.259706,0.0745 -1.856396,0.712753 -0.337587,0.36147 -0.35439,2.27601 -0.35439,2.97042 m 55.048527,-7.295593 c -1.72153,0.05593 -1.85065,1.106054 -2.96024,2.09737 -0.64754,0.578562 -1.11291,0.51865 -1.90348,0.850489 -1.09987,0.461611 -3.07874,1.179894 -4.41737,0.646433 -0.86154,-0.343555 -1.23738,-1.115782 -1.22876,-2.046744 0.0177,-1.917633 1.25529,-4.283394 2.52649,-5.718635 0.62764,-0.708557 1.04835,-0.82595 2.01424,-0.913718 m 5.08481,3.095099 c 0.42381,-3.160316 6.486,-2.042987 5.6249,1.326471 -0.14614,0.572149 -0.3849,1.040836 -0.74261,1.50687 -0.90796,1.182769 -2.73938,2.487574 -4.21906,2.746899 -0.51754,0.09064 -0.99927,0.200297 -1.53848,8.29e-4 -0.68755,-0.254462 -1.03045,-0.805611 -1.33554,-1.159558 m 459.84313,-4.64259 0.88431,0.442157 m -488.141161,-0.221078 3.979411,0.240975 2.652942,0.864416 c -0.403025,1.010993 -1.748509,2.744468 -2.678145,4.200491 -0.297792,0.466475 -0.782174,1.097217 -0.525723,1.698327 0.241418,0.5653 0.852035,0.50074 1.435462,0.51135 1.251525,0.0232 2.511009,-0.21864 3.758111,-0.37782 1.087043,-0.13884 2.002087,-0.34466 3.095103,-0.50539 M 64.138455,94.424909 c 0.0012,1.594418 0.429777,4.026944 0.442158,5.52696 M 562.89139,96.856772 c 2.09361,0.480846 4.30882,-0.217763 5.52695,-0.221079 m 0.22109,0.221079 c 0.11496,0.608628 0.11275,0.871269 0.44215,2.210784 m -29.40343,0 c -0.004,0.388876 0.0486,1.014084 -0.2277,1.465084 -0.34048,0.55469 -0.99928,0.9785 -1.41269,1.41513 -0.76052,0.80251 -2.80992,2.48956 -4.01258,1.24997 -0.95728,-0.988 -0.36478,-2.87601 0.13928,-3.909106 0.32499,-0.666993 0.64112,-1.192055 1.31762,-1.635316 0.95065,-0.623664 2.52692,-0.513567 3.31176,-0.575468 m -26.30834,1.768628 c 0.92853,6.63e-4 2.31249,-0.06456 3.49968,0.782838 0.49521,0.353284 0.72956,0.676724 1.16287,0.890064 1.49448,0.73575 2.08919,0.5454 3.07521,1.42219 0.35814,-0.49212 0.57701,-0.9314 0.85777,-1.76862 0.4908,-1.460445 0.79146,-2.812782 2.67947,-2.874022 M 69.00218,98.625399 c 0.688438,0.728454 1.248431,1.597731 1.327356,2.652941 0.04753,0.63626 0.0818,1.18918 0.695071,1.58447 0.623219,0.4017 1.369801,0.20251 1.915423,-0.19787 1.534063,-1.12639 1.765533,-2.31557 1.81019,-3.818462 m 391.97205,9.064212 c 0.26309,-0.92433 0.24982,-1.38726 -0.66324,-2.21078 -0.65439,1.30503 -0.0464,1.6897 0.88431,2.65294 -1.52101,1.82412 -3.31838,2.2707 -5.09142,-0.44216 -0.9219,-1.40871 -1.50555,-2.91293 -2.0295,-4.42156 -0.39794,-1.14276 -1.57409,-3.44176 0.0464,-3.979417 m -385.11862,0.442156 1.32647,1.326471 m 28.29804,-1.10539 c -0.46935,0.85933 -0.81114,0.8045 -1.32647,0.88431 m 366.99019,-0.66323 c 1.81947,1.03553 4.77972,1.06427 5.92932,3.1329 0.79368,1.42397 -0.30729,3.15368 -1.30657,4.13969 -2.24617,2.21366 -6.0664,1.73215 -7.71786,0.68623 m 30.50883,-3.97941 c 3.01108,-0.0621 6.28969,-0.59824 9.06422,-1.68351 2.57778,-1.00878 3.16583,-1.89332 5.08481,-2.2959 m 5.08479,0 -1.32647,0.44215 m -466.475476,0 c 1.288666,0.20384 2.570036,0.91129 2.766134,2.21167 0.107001,0.70944 -0.17399,1.34526 -0.416734,1.98882 -0.333608,0.88454 -0.773111,1.75691 -1.488078,2.31912 -0.604871,0.47554 -1.670027,0.76139 -2.408871,0.6639 -0.408995,-0.054 -0.820422,-0.23965 -1.32647,-0.24828 -0.828161,-0.0139 -0.934278,0.28121 -1.768628,0.33251 -0.735085,0.0453 -1.443421,-0.23435 -1.948806,-0.6177 -0.585859,-0.44437 -0.887409,-0.92587 -1.150935,-1.56545 -0.510028,-1.23848 -0.581436,-1.3687 -0.658593,-2.8738 m 489.688717,-2.21079 0.88431,3.31618 m 8.62206,-3.31618 c 0.80472,0.6597 1.45028,1.11313 2.87402,1.32647 M 31.861004,101.94157 c 1.888674,0.29161 3.023912,2.83666 2.603199,5.30589 -0.146796,0.86243 -0.695734,1.71623 -1.506649,2.17983 -0.727348,0.41585 -1.52102,0.51445 -2.42302,0.43464 -1.497806,-0.13265 -1.872534,-0.47775 -2.560089,-1.86855 -0.27281,-0.55137 -1.216373,-1.246 -1.172377,-1.84778 0.02365,-0.32321 0.146795,-0.47952 0.276569,-0.58342 0.721378,-0.57857 1.243786,0.2633 1.245113,1.90636 M 5.1105154,102.38373 c 0.046581,2.25633 0.3622371,4.03513 1.2087684,5.96912 0.5520992,1.26147 1.7143748,2.72634 2.9918986,3.33386 0.9580436,0.45565 1.9683946,0.6628 3.0940586,0.2014 1.327753,-0.54429 1.95188,-1.48984 1.57052,-3.0931 -0.277211,-1.16464 -0.750782,-1.74365 -1.1275,-2.21079 m 410.321549,7.51667 c -2.85411,0.22528 -5.69497,0.67959 -8.15779,-1.27982 -0.56816,-0.45211 -0.88431,-0.90996 -1.04128,-1.59442 -0.44437,-1.94549 1.21372,-4.16291 2.58662,-5.48894 1.35743,-1.31166 3.22332,-2.70003 5.06491,-3.21293 0.86221,-0.24009 2.22627,-0.16382 2.08256,0.97407 -0.20118,1.58779 -2.70157,3.00556 -3.85119,3.92547 -1.08328,0.86552 -1.93665,1.37091 -3.09509,2.255 m 30.7299,-6.41127 c 1.85926,0.14657 5.3302,0.1815 6.78269,1.99943 2.62198,3.28102 -4.21597,6.97989 -7.00377,5.85239 -2.21963,-0.89758 -2.79444,-3.61176 -2.21079,-5.64104 l 1.9897,1.54755 M 17.711986,104.15236 c 1.068251,0.87238 2.215426,1.88889 2.270034,3.31618 0.07495,1.96649 -1.668259,3.65531 -3.596505,3.49569 -1.140764,-0.0946 -1.702967,-0.5034 -2.210783,-0.84275 m 31.172057,-5.74804 0.442156,3.0951 m -23.87647,-1.32647 c 0.919244,0.4636 0.975398,0.58983 1.113131,1.76862 0.09904,0.84585 0.27281,1.46686 0.960585,2.14911 0.664341,0.65881 1.644381,0.70988 2.565615,0.41651 0.904875,-0.28807 1.212394,-0.84629 1.550866,-1.23915 m 417.838228,-2.87402 -0.88432,0.88432 M 54.853161,106.58422 v 1.54755 m 430.439699,12.82255 c 2.10909,0 5.02512,0.66302 6.85342,0.66324 m 4.20051,-0.66324 0.27633,3.0951 0.29625,2.21078 0.75389,7.51667 m -21.00246,-11.275 c 0,0.96744 -0.0199,2.00717 0.0928,2.87402 0.11718,0.87856 0.17244,1.46752 0.28519,2.43186 0.0796,0.65683 0.0575,1.12418 0.0641,1.76863 0.0243,1.82721 0.14369,4.36055 0.88431,5.74804 m 5.96912,-12.15932 c -0.46869,0.7729 -0.81358,1.41071 -1.1474,2.21079 -0.54828,1.31276 -1.4149,3.00291 0.2675,3.71456 1.52766,0.64643 5.29041,-0.81865 5.88953,2.03436 0.28962,1.37865 -1.30878,2.34299 -2.35669,2.7049 -0.74725,0.25777 -1.26235,0.35217 -1.98971,0.38047 -1.17172,0.0455 -2.39428,-0.55601 -3.31617,-1.31762 m -49.51272,-9.31912 c 0.92853,-0.27414 1.70229,0.44149 2.10909,1.14872 0.65217,1.12993 0.84451,3.10969 0.69197,4.41206 -0.0774,0.64975 -0.55712,2.0242 -0.30509,2.59215 0.84231,1.89795 3.33828,0.7751 4.59622,2.94366 0.61901,1.06427 -0.30509,1.825 -1.13193,2.43982 -1.68903,1.2544 -3.78485,2.38919 -5.74803,2.77011 -1.07887,0.20914 -1.63819,-0.15011 -1.95654,-1.02249 -0.59471,-1.62249 -0.75168,-3.95973 -1.28447,-5.74384 -0.24983,-0.83987 -0.46427,-1.59751 -0.451,-2.43186 0.0133,-0.86685 0.29845,-1.45624 0.48636,-2.21078 0.39574,-1.59884 1.11424,-4.34243 2.99342,-4.89755 m 26.29948,12.63529 c -0.83568,-1.05211 -1.8659,-2.32287 -2.62641,-3.31617 -0.4289,-0.55933 -1.18276,-1.33266 -1.08328,-2.21079 0.13485,-1.17901 0.92631,-1.99236 1.49891,-3.31617 0.68313,-1.58049 1.61166,-3.0668 3.09509,-3.75834 m -8.40097,3.0951 c 1.46575,1.59221 2.19972,2.63702 3.31618,3.53725 m -41.34168,3.53726 c -0.007,0.75764 -0.13043,1.7558 -0.22771,2.8738 -0.0464,0.5213 -0.10391,0.99397 -0.53058,1.3614 -0.34489,0.29624 -0.62787,0.33958 -1.01033,0.50892 -0.70303,0.30951 -3.30513,1.332 -4.2005,1.16442 -0.74503,-0.13906 -1.62933,-0.37716 -2.17761,-1.11158 -0.47753,-0.64069 -0.42448,-1.07908 -0.57039,-1.92294 -0.12822,-0.73929 -0.27413,-1.25948 -0.42004,-1.98971 -0.23877,-1.18431 -0.0177,-2.53135 0.0685,-3.75833 0.0729,-1.06781 0.24319,-2.93769 1.77526,-3.02457 1.98749,-0.11275 4.28228,1.7726 5.43853,3.24565 0.55269,0.70347 0.87988,1.79184 1.65587,2.23532 0.75609,0.43133 1.22698,0.0738 1.96318,0.55115 0.8423,0.54496 1.26014,1.31254 1.55197,2.29833 m 28.07697,-7.60642 c 1.73104,-0.0632 3.92856,0.12557 5.28156,1.45712 1.12086,1.10297 1.25131,3.11014 0.34045,4.38045 -0.76713,1.0698 -2.08476,2.23091 -3.41123,2.40268 -1.45912,0.1888 -3.29849,0.004 -4.30883,-1.30922 -0.86884,-1.12971 -0.99485,-3.28567 -0.66987,-4.40941 0.17908,-0.62278 0.0862,-0.7751 0.21446,-1.32227 0.20338,-0.8642 1.79515,-1.1715 2.55346,-1.19935 m 37.80441,-0.13132 c 0.15032,0.93096 0.4112,1.03575 1.10538,0.88431 m -41.34166,1.54755 c 0.902,0.0389 1.68241,0.21091 2.87401,0.44216 m -29.6245,0.22107 c 2.70378,0.90908 7.54983,2.11396 7.04577,5.96912 -0.2675,2.04299 -2.88507,3.91685 -4.83499,4.15959 -2.36111,0.29382 -4.10322,-1.32205 -4.64264,-3.27527 m 42.00489,-6.85344 c -1.00589,1.73459 -1.97201,5.54421 -2.65294,8.17991 m -47.0897,-0.66324 c 0.0332,1.58823 0.7981,4.3506 1.10539,6.63235 m 144.36422,-4.42156 c 0.97937,-0.12624 2.41859,-0.48019 3.75833,-0.88984 0.98381,-0.30111 3.14373,-0.71276 2.706,1.11113 -0.19234,0.80363 -0.72956,1.46155 -1.15844,2.21057 -0.61461,1.07687 -1.03465,1.63399 -1.54756,2.87402 1.69125,0.49964 3.83129,0.16448 5.74804,0.22439 0.78041,0.0245 1.37732,0.14835 1.93885,0.71033 1.22036,1.22146 0.23213,3.13975 -0.52836,4.37116 -0.87106,1.41004 -2.08256,2.87137 -3.62127,3.86025 -1.27563,0.81976 -2.34122,0.99175 -3.75834,1.00348 m -9.06422,-14.59118 1.1054,12.15931 m -15.47549,-0.44215 c 1.83053,1.50422 4.00152,1.60702 6.1902,0.40169 0.9241,-0.5087 3.18795,-1.80908 2.42301,-3.23481 -0.94843,-1.76642 -3.78707,-1.68993 -5.51812,-1.56878 -1.2115,0.0849 -1.7642,0.82286 -2.80326,0.18659 -0.58587,-0.35881 -0.46427,-1.10296 -0.28299,-1.75381 0.31172,-1.11932 0.64334,-2.90608 1.58734,-3.62502 0.68093,-0.51777 1.78853,-0.35439 2.60431,-0.35439 2.07372,0 4.12532,-0.21976 6.19019,-0.22108 m -26.30832,0.44216 0.76492,2.65294 1.22478,8.84313 m -20.56029,-11.05392 c -1.22035,1.99302 -1.64262,2.97594 -2.21521,4.86373 -0.1857,0.60774 -0.3471,1.38218 -0.47975,1.9897 -0.0862,0.39573 -0.56153,1.24114 -0.45763,1.76841 0.28519,1.46598 1.55419,1.67577 2.04719,1.98993 m 25.64511,-9.94853 c -0.36258,0.99419 -1.48345,4.54603 -0.53059,5.29969 0.86884,0.68534 2.73253,-0.10037 3.84676,-0.22594 0.77377,-0.0871 1.94991,0.0153 2.5203,-0.4373 0.35151,-0.27988 0.31613,-0.67782 0.36919,-1.1003 0.15254,-1.17879 0.24982,-1.29906 0.86883,-2.20968 m -42.00489,0.22108 2.02729,1.77282 2.9315,3.00136 1.89463,1.41601 m -22.99214,-5.52696 c 0.451,1.2051 0.42225,2.50858 1.09434,3.75834 1.06781,1.98594 1.01252,4.01722 0.4311,4.22813 -0.32278,0.11649 -0.58587,-0.1205 -0.86221,-0.24872 m 5.0848,-6.63236 c 0.91306,2.69716 2.09141,5.4014 2.79664,8.17991 0.32942,1.29707 -0.12381,1.14187 0.21444,2.43186 0.2454,0.93405 0.99928,2.71749 1.18942,3.31618 m 47.31078,-12.15932 v 4.64264 m -54.60637,-1.76862 c 0.40015,0.18283 0.88873,0.19521 1.60281,0.94578 0.46869,0.49212 2.13341,2.918 2.63747,3.46584 0.62344,0.67915 0.95726,0.8631 1.28667,1.11534 m 14.81225,-5.08481 -0.75608,3.09511 -2.78117,9.72745 m -85.11518,-9.94853 c 0.62564,2.21829 0.88651,3.11499 1.54754,3.97941 0.31615,-0.37318 0.72735,-0.84983 0.98379,-1.9897 0.11718,-0.52706 0.26089,-1.07887 0.44437,-1.54756 0.31394,-0.7992 1.01918,-2.97703 2.32796,-2.41285 1.55419,0.67076 1.88801,2.99495 2.24173,4.40255 0.78041,3.12694 0.74946,5.62911 1.96097,7.29559 l 1.11203,-1.54799 1.56081,-2.18093 2.41197,-0.6765 1.09654,0.67981 -2.20194,2.62023 m 35.15147,-10.16962 1.1054,4.64265 c 1.64924,-0.91813 3.18353,-2.77785 5.52696,-4.42156 m 12.82254,0.44215 c 0.26529,1.9749 1.00149,4.30086 1.54756,6.41128 m -26.97157,4.86372 c 0.1636,-0.52107 0.34708,-0.96854 0.41341,-1.54799 0.0973,-0.86685 -0.0332,-2.16391 0.0663,-3.09466 0.2056,-1.90304 0.98822,-3.34823 3.05752,-2.87401 m 3.53726,0.22107 c -0.0199,0.59582 -0.13487,1.28137 -0.51069,1.64814 -0.46649,0.45322 -1.03024,0.35573 -1.2911,1.23849 -0.4289,1.45315 1.42153,1.67046 2.02286,1.85948 0.47533,0.1488 0.9197,0.22308 1.32647,0.30002 0.93517,0.17663 2.47608,0.47796 3.53725,0.48084 m -53.27989,-4.64265 c 0.51069,2.7511 0.52175,6.80302 1.1054,9.94853 m 56.59607,-9.94853 c 1.01475,1.22588 2.08698,4.08155 2.52029,6.1902 0.41564,2.02552 0.57481,3.63673 0.57481,5.74804 m -21.44462,-9.50638 c -0.32498,-0.62653 -0.40898,-0.7384 -0.22107,-1.54755 0.54165,0.72314 0.31615,1.16353 0.49963,1.98971 0.37141,1.6614 0.58365,2.2477 1.49008,3.31618 m -15.91765,-5.08481 c 1.85706,0.86088 2.6861,4.29799 0.64997,5.85548 -1.353,1.03531 -2.26384,0.17664 -3.52398,-0.17 -0.89759,-0.24696 -1.67799,0.56463 -2.65295,0.16669 -1.60725,-0.65705 -2.00739,-2.51101 -2.21079,-4.08354 m 30.72991,-1.76863 c 0.14369,1.13943 0.2056,1.41446 0.22107,2.21079 m -13.04363,0.44215 c 0.0464,0.40878 0.21224,1.01652 -0.0265,1.51018 -0.30509,0.63472 -1.00589,1.07113 -1.52101,1.36494 -0.79368,0.45256 -2.20858,0.497 -3.07299,-0.13132 -2.45839,-1.79117 -0.53501,-5.92866 1.96759,-4.73351 m 15.69657,2.2108 c -0.15917,0.30663 -0.49299,0.38311 -0.22107,1.54754 0.49963,-0.90709 0.39131,-0.92765 0.44215,-1.32647 m -26.52941,0.44216 v 1.76862 m -13.92795,-0.88431 c 0.34268,0.34223 0.62567,0.66589 1.32648,1.28911 0.64776,0.5748 1.89907,1.45491 2.87403,1.78278 1.24025,0.41718 2.02507,0.35858 3.09508,0.24429 m 20.11815,-3.31618 c 0.84009,0.73375 1.29552,1.25794 2.65294,2.21078 m -30.50882,-1.76862 c 0.19454,0.78748 0.30287,1.55816 1.10538,3.09509"
       id="path44357"
       sodipodi:nodetypes="cccccccscccscccccccccsccccccscccccccccccccccccccccccscccscccccccccsccccsccccccccccccccccccccccccccccccccccsccscccccccccccccccccsccccccccccscscccccccccscccccccccssccccccccccccccccccccsccscccccccsccsccccccccccsccccccccccccccccccccccccccsccccccccccccccccccccccccsccccccccccccccccccccscccccccccccsccccccccccccccccccccccccccccccccccsccccccscccccccccsccccccccccccccccccccccccsccccccccccccccccccccccccccccccccccccccccccccccccccccccccccccscccccsccccccccccccscccccccccccccssccccccccccccccccccccccccccccccccccccccccccccccsccscccccccccccccccccsccccccccccccccccsccccccccccccssccccccccccccccccccccccccccccccccccccccccccccccccccccscccccsccccccccccccccccccccccsccsccsccccccccsccscccccccccsccscccccccccccccccccccccccccccccccccccccccsccccsccccccccccccccccccccccccsccccccscscccccccccccccccccccccscsccccccssscscccccccccccsccccccccccccccccccccccccccccccccccccccccccccccccccccccccccccccsccccccccccccccccsccccc" />
  </g>
</svg>
