<?xml version="1.0" encoding="UTF-8" standalone="no"?>
<!-- Created with Inkscape (http://www.inkscape.org/) -->

<svg
   version="1.1"
   id="svg48895"
   width="3562.6667"
   height="1277.3333"
   viewBox="0 0 3562.6667 1277.3333"
   sodipodi:docname="Casey - Pulsz - Envelope 24.svg"
   inkscape:version="1.1.2 (b8e25be833, 2022-02-05)"
   xmlns:inkscape="http://www.inkscape.org/namespaces/inkscape"
   xmlns:sodipodi="http://sodipodi.sourceforge.net/DTD/sodipodi-0.dtd"
   xmlns="http://www.w3.org/2000/svg"
   xmlns:svg="http://www.w3.org/2000/svg">
  <defs
     id="defs48899" />
  <sodipodi:namedview
     id="namedview48897"
     pagecolor="#ffffff"
     bordercolor="#666666"
     borderopacity="1.0"
     inkscape:pageshadow="2"
     inkscape:pageopacity="0.0"
     inkscape:pagecheckerboard="0"
     showgrid="false"
     inkscape:zoom="0.34749251"
     inkscape:cx="1781.3334"
     inkscape:cy="638.8627"
     inkscape:window-width="1920"
     inkscape:window-height="1017"
     inkscape:window-x="-8"
     inkscape:window-y="-8"
     inkscape:window-maximized="1"
     inkscape:current-layer="g48901" />
  <g
     inkscape:groupmode="layer"
     inkscape:label="Image"
     id="g48901">
    <path
       style="fill:none;stroke:#3f3733;stroke-width:0.256561"
       d="m 116.73278,18.981801 c -2.84425,-0.359444 -7.25866,-0.984943 -7.11242,-4.874681 0.087,-2.314471 1.42444,-5.6844907 2.92558,-7.3929888 0.94415,-1.0748926 1.66996,-1.4160688 3.16059,-1.5866826 M 85.175643,5.6405728 c 0.09236,1.1689481 0.250148,1.753884 0.403316,2.8221827 0.121352,0.8470653 0.06517,1.2242885 0.139055,2.0524965 0.163431,1.830262 0.05952,3.480085 0.401007,5.387804 0.400236,2.237734 0.339431,2.880422 0.339431,5.644365 M 70.551603,8.4627555 c 0.471562,1.6779675 0.640893,2.9577745 0.916441,4.8746785 0.07825,0.544322 0.08697,1.782362 0.373553,2.158021 0.797395,1.045336 1.876753,0.784797 3.584687,0.920724 m 10.775607,-4.618117 c 0.389975,-0.111501 0.842292,-0.299947 1.796447,-0.650718 1.287685,-0.473537 1.662267,-0.374581 3.078231,-0.37553 m 53.621471,7.953423 c 1.28692,-0.102368 4.02033,-0.41563 3.83894,-2.309262 -0.14316,-1.492628 -2.39783,-2.339821 -3.19292,-3.379642 -1.88547,-2.466536 1.83622,-1.397416 2.68929,-0.981708 m -47.72055,7.440299 c 0.9752,-0.04208 3.70014,-0.200631 3.72092,-1.562206 0.0169,-1.107759 -1.44008,-1.453271 -2.15358,-1.981968 -1.34669,-0.997745 -1.02471,-2.801837 0.48798,-3.410326 0.52416,-0.210842 0.94774,-0.201889 1.53655,-0.229238 m 32.07026,4.874679 c 0.0929,-1.996693 0.57958,-2.274011 1.86931,-3.580605 0.45745,-0.463197 1.16095,-1.164049 1.84725,-0.758782 0.79303,0.468148 0.65218,2.113429 0.75506,2.800015 0.13213,0.882805 0.35945,1.60513 0.65962,2.309058 M 11.029204,27.191785 c 2.177187,0 4.08883,0.174719 6.15749,-0.257845 1.185061,-0.247581 2.751372,-0.802013 2.929426,-2.307775 0.120585,-1.019578 -0.94338,-1.882396 -1.646873,-2.522005 -1.41263,-1.284862 -3.176751,-2.421433 -3.846634,-4.148609 -0.395362,-1.019628 -0.255024,-2.063375 0.796112,-2.685614 0.96724,-0.572621 1.959877,-0.845371 3.05078,-1.102243 1.001874,-0.235933 2.028635,-0.314235 3.078745,-0.317135 m 76.455495,7.4403 c -1.593762,-0.274522 -3.174442,-0.965444 -4.14989,-2.822183 -0.650643,-1.23845 -1.336175,-3.48832 0.562897,-4.206541 2.54022,-0.960722 3.490527,2.871391 0.251687,2.92373 m 29.504641,-2.664987 c 1.0578,-0.254637 2.33086,-0.103522 2.73777,0.903304 0.80817,1.998696 -2.47223,3.475262 -4.02033,3.631251 -1.62609,0.163943 -2.37448,-1.401522 -1.74924,-2.634507 0.63859,-1.258976 1.71999,-1.584374 3.0318,-1.900048 m -61.831462,7.026543 c 1.245609,1.053444 6.431754,1.537833 6.147996,-1.279219 -0.163174,-1.618136 -2.930707,-1.782849 -4.094217,-2.213361 -2.173594,-0.803809 -0.904895,-1.954105 0.767891,-2.404396 0.617288,-0.166073 1.141187,-0.230573 1.796448,-0.260514 m 4.874678,0.513125 v 5.387803 m 14.880602,-4.87468 c 1.877006,0.800577 3.26629,1.760272 4.874678,3.335308 m -11.03217,-1.02625 c -0.107756,0.521336 -0.247069,1.45907 -1.293073,1.669708 -0.704775,0.141878 -1.322321,-0.168562 -1.551429,-0.915157 -0.326861,-1.065246 0.391256,-2.409684 1.296151,-2.278477 0.746852,0.10827 0.741208,0.679838 1.408526,1.060063 0.69631,0.396901 1.135031,-0.155476 1.9119,0.102369 0.815868,0.270929 1.308467,1.240476 1.819795,1.900867 M 55.215606,17.963762 c 1.159405,-0.674732 2.670555,0.428971 3.275272,1.321807 0.971856,1.435209 0.211406,3.159306 -1.281527,3.999289 -1.096291,0.616776 -2.144604,0.908999 -2.814231,-0.05285 -0.680658,-0.977246 -0.514406,-4.491377 0.820486,-5.268246 m -7.498026,1.2746 c 1.566312,-0.290685 2.105092,-0.262463 3.078745,0.256562 -1.034716,1.59325 -2.506098,2.011703 -4.361556,2.565622 V 20.008048 M 35.146038,19.494924 c 0.515178,1.743597 -0.0644,5.969685 -3.078745,6.118235 -1.504736,0.07415 -1.607105,-0.865897 -2.822181,-0.917208 -0.571108,-0.02437 -1.010087,0.285553 -1.539117,0.372014 -1.650463,0.269646 -2.582553,-1.235091 -2.822439,-2.750858 m 16.16341,-2.56562 c 0.261437,-0.0744 0.542373,-0.207046 0.805862,-0.200376 2.285454,0.05875 0.168561,1.830313 -0.804578,2.372686 -0.80612,0.448983 -1.242018,0.56495 -1.540656,0.649871 m 6.927175,-0.513122 c 0.519283,1.749752 2.771385,2.020425 4.874679,1.795933 m -21.551214,-1.539372 -0.256561,2.052497 m 16.933096,-1.539372 c -1.455476,1.234832 -5.115334,2.070711 -6.670614,0.256561 m 14.110915,0.769686 c -0.0026,0.903098 -0.01053,1.49704 -0.256563,2.822183 m 135.208213,2.052495 c -1.03395,1.248945 -1.64611,2.381666 -2.14846,4.361556 -0.18934,0.745568 -0.38534,2.106887 -1.06113,2.594099 -0.518,0.373553 -1.07756,0.276831 -1.6651,0.196526 -0.82304,-0.112886 -1.87161,-0.698362 -2.30186,-1.518077 -0.69195,-1.317959 0.0965,-3.454096 0.76249,-4.607856 m -10.51903,-0.769686 0.7353,5.644367 0.0318,2.052495 -0.7671,5.131242 m -45.4115,-10.775607 c 0.4436,1.649438 0.92081,1.653542 1.21483,3.078745 0.24553,1.19173 0.56084,3.149556 0.92619,4.361556 0.48977,1.624807 0.90181,2.670553 0.93773,4.361554 -2.23312,-0.05362 -4.51087,-1.730255 -5.90093,-2.309059 -0.50671,1.004185 -0.93568,1.823387 -1.02625,3.59187 M 94.668439,31.809902 c 1.736926,3.23807 -0.111349,7.128834 1.026248,9.492796 0.528004,-0.221412 1.135287,-0.623446 2.051471,-0.312492 0.853838,0.289915 1.437004,1.064476 1.762582,1.852122 0.402288,0.973396 0.54417,2.352161 0.03079,3.334793 -0.576239,1.103218 -1.921395,2.010164 -3.075154,2.184113 -0.628576,0.09493 -1.395697,0.06337 -1.711782,-0.682455 -0.3089,-0.729149 0.01718,-1.189677 0.201146,-2.014525 0.309925,-1.38954 0.256817,-2.81192 0.74095,-4.104992 m 30.78744,-9.74936 c -0.5711,0.659108 -1.02804,1.224315 -1.30589,2.56562 -0.45053,2.174622 -1.2587,4.610679 -1.25973,6.15749 m 65.93646,-7.440299 c 0.26939,-0.432307 0.47489,-1.044208 1.29717,-1.174799 0.81946,-0.129819 2.14794,0.455655 2.54304,1.046004 0.44592,0.666036 0.13393,1.722046 -0.13597,2.437854 -0.44718,1.185317 -2.44837,4.220189 -3.577,2.033511 -0.52542,-1.018039 -0.15393,-2.031972 0.64244,-2.803197 m -34.63588,-2.565622 c 0.35021,2.527137 1.21611,1.965009 1.68562,3.592895 0.32942,1.141958 0.43974,3.530808 1.1399,4.535505 0.50466,0.724019 1.2433,0.576751 1.7926,0.594711 m 38.74086,-8.209986 -0.77969,5.131242 -0.24655,3.591867 m -42.07617,-7.440299 c -0.55315,0.837931 -0.77328,1.936017 -1.46292,4.361554 -0.20243,0.71196 -0.31942,1.528341 -0.70632,2.200277 -0.9403,1.632505 -0.74531,1.42392 -1.6792,3.700652 m 20.78152,-9.492796 h 2.30906 M 61.828494,51.565182 c 0.688355,0.535188 1.215078,0.970575 2.309058,0.764041 2.975607,-0.561871 3.970811,-4.85826 0.769686,-5.043754 -1.673811,-0.09724 -2.323168,0.955694 -2.718787,1.97168 -0.296329,0.76045 -0.200119,1.309492 -0.619855,1.967062 -0.509019,0.797651 -1.024453,0.966468 -2.049161,1.343359 -0.900277,0.330965 -1.474463,0.416656 -2.309059,0.557252 -1.853918,0.312493 -3.815078,0.104164 -5.359838,-1.256641 -1.183778,-1.042925 -1.160687,-2.416557 -1.057036,-3.894868 0.264003,-3.765819 2.596408,-8.766212 4.689954,-11.786719 0.577523,-0.833826 1.101935,-0.974423 1.983482,-1.041385 m 110.834812,0 h 4.10499 M 71.064728,36.42802 v 2.309058 l -0.22988,6.927176 0.486441,4.618117 M 185.4914,36.42802 l 0.25658,4.361555 m -22.83403,1.795934 c 0.0639,-0.801757 0.0849,-1.760272 0.62935,-2.822183 0.94517,-1.843399 3.73221,-3.272706 4.14604,-0.512867 0.19088,1.273575 -0.39767,2.253897 -1.21764,3.019993 -1.29282,1.207379 -2.6313,0.628575 -3.55775,0.315057 -0.47053,1.487804 -0.36714,1.958082 -0.76969,3.59187 m -21.29465,3.848431 c 2.6508,0.482849 3.95131,-1.659444 5.0612,-3.848431 0.36586,-0.721966 1.05806,-1.935761 0.56572,-2.709809 -0.49183,-0.773535 -1.36234,-0.395105 -2.03505,0.0085 -1.46138,0.876929 -3.83099,2.389106 -5.30339,1.263569 -0.70298,-0.537499 -1.37877,-3.23807 -1.19969,-3.95003 0.2463,-0.979298 0.6686,-1.925243 1.9078,-2.553563 1.28537,-0.651668 1.64123,0.808941 1.44496,1.783619 -0.2032,1.008547 -0.74609,1.425973 -1.4678,1.796192 m -3.3353,-3.335306 c 0.004,1.208149 -0.0998,1.939865 1.28281,2.052495 v 0 m -6.15749,-0.769686 c 0.10262,1.175568 0.26836,3.193686 1.58786,3.826368 1.56605,0.750444 2.56126,-1.713322 3.03025,-2.800119 m 22.57747,-0.256563 c -1.87368,1.156327 -2.63464,0.606771 -4.105,0.256563 m -51.31241,2.309059 c -0.0477,1.224313 -0.27144,2.131261 0.84101,2.766252 1.17967,0.673218 1.70562,-0.291199 2.75086,-0.04387 1.69459,0.401262 5.99047,3.736313 7.39514,0.301459 0.62627,-1.531417 -2.80165,-2.757528 -2.84065,-4.278685 -0.0295,-1.143754 1.4116,-1.04549 2.37268,-1.054213 m -26.682452,5.387804 c 0.284272,-0.942866 0.942096,-1.593251 1.430591,-2.30675 0.336867,-0.491829 0.631143,-1.158122 1.31488,-0.792265 0.536471,0.287093 0.558792,0.980838 0.584962,1.559642 0.08877,1.975015 0.45001,4.159127 1.544248,5.900927 m 37.714621,-7.440299 -0.25656,1.539372 m -46.181173,4.104993 c 0.266826,-1.680995 0.690153,-1.597099 1.12477,-2.818335 0.425636,-1.196093 1.145805,-2.166923 1.953975,-2.569469 0.316599,0.813045 0.306593,0.824078 0.513125,1.539373 M 40.533841,43.611757 c -1.482157,1.178647 -1.971936,0.914387 -2.417584,2.565878 -0.428202,1.587349 1.086541,3.189323 2.887093,2.741366 0.782001,-0.194475 1.043438,-0.608822 1.592994,-0.795855 0.756858,-0.257589 2.391671,-0.149833 3.325301,-0.149833 M 22.831059,44.638006 c 1.969884,0 4.92394,-0.595995 6.632386,0.154707 0.934399,0.410499 0.743774,1.235347 0.403315,1.896507 -0.555199,1.07833 -0.969804,1.431103 -2.417584,1.540654 m 56.187095,-1.539372 c 0.0449,-0.626525 -0.07338,-0.975705 0.769686,-1.795934 m -72.607066,0.256561 c 1.457016,0 2.280836,-0.114683 3.591869,0.171898 1.719735,0.375863 2.916341,1.218413 2.740083,2.906847 -0.126742,1.214309 -1.155813,3.203434 -1.872646,4.361556 -0.681431,1.100907 -2.207204,2.36858 -1.605824,3.490783 0.328656,0.613184 1.127591,0.780462 1.764635,0.843832 1.264081,0.125972 2.621807,-0.193961 3.848431,-0.225774 1.080895,-0.02822 1.653542,-0.04336 2.822183,-0.26041 M 74.400034,45.151129 c 7.7e-4,1.218413 -0.179079,2.286996 0.680661,3.262958 0.522617,0.592914 1.226366,0.704005 1.883678,0.393821 0.497987,-0.23501 0.951588,-0.556483 1.276909,-1.135799 0.344306,-0.612414 0.263233,-1.535012 0.263747,-2.264416 m 28.478391,-0.256564 v 0.256564 m -77.994872,2.56562 c 1.117585,0.910025 2.830136,1.553996 2.779337,3.590842 -0.06003,2.400907 -3.522084,3.293743 -5.344957,3.336333 m 52.082101,-6.927175 2.052495,1.282811 M 41.560091,48.99956 c 0.245786,0.27914 0.484132,0.488751 1.037793,1.141445 0.565975,0.667576 0.816637,2.048905 -0.529544,2.551254 -1.308211,0.487981 -2.952003,-0.355595 -3.268088,-1.388514 -0.310953,-1.016242 -0.0195,-1.740005 0.194217,-2.304185 m 78.251431,8.979673 -1.05703,2.56562 0.43205,2.763688 1.90779,0.964672 2.66722,0.714783 0.15496,3.766844 m 20.52497,-9.749359 c 1.28845,-0.408448 5.845,-1.426485 5.03811,1.283836 -0.6273,2.107657 -3.1865,5.198975 -4.52499,7.182712 m -3.59187,-5.900928 c -0.86358,0.328656 -1.50986,1.01496 -2.56562,0.908743 -1.06139,-0.106472 -2.44529,-1.349259 -2.10355,-2.444267 0.42923,-1.37466 1.79363,-1.386205 2.36012,-0.516971 m -30.53089,-0.513125 c 0.37458,2.963036 -0.30505,5.052734 1.79593,5.387803 m 18.9856,-5.387803 c -0.8718,1.33438 -2.26827,3.535169 -1.47036,5.093014 0.50722,0.990842 1.68176,0.648589 2.49661,0.461555 0.56495,-0.129821 1.18454,-0.157274 1.64122,-0.61267 0.82639,-0.824848 0.42641,-3.467436 0.41127,-4.685338 m -28.99151,0.256564 0.44488,3.078745 0.50363,2.052495 0.3343,4.104994 m 19.49872,-9.236234 c 0.18139,2.298283 0.64628,3.255259 -0.25657,5.13124 m 34.37932,-4.99552 c 1.28153,-0.04028 2.92147,0.810994 3.03359,2.173594 0.08,0.972884 -1.00521,1.856997 -1.75103,2.428874 -1.21149,0.928753 -3.55365,1.86341 -5.13073,1.613518 -2.17026,-0.343794 -1.98374,-2.684665 -0.92542,-4.041622 1.45855,-1.870082 2.74008,-2.110224 4.77359,-2.174364 m -20.52496,3.199586 c -0.23579,0.279652 -0.59959,0.55007 -1.20969,1.179929 -0.9634,0.993921 -1.2587,2.416045 -0.21834,3.660627 0.67014,0.8015 1.15299,1.013677 2.19771,0.92234 1.18455,-0.103393 2.45479,-1.107834 2.52662,-2.42759 0.088,-1.61865 -0.6668,-2.238503 -1.24381,-3.335306 m -47.207418,1.257923 c 1.041129,-0.04028 2.101757,-0.05054 3.078745,0.227315 0.788158,0.223979 1.849811,0.639866 2.253127,1.391593 1.255102,2.339332 -2.309059,4.412611 -4.305625,4.736391 -1.843654,0.298896 -3.832267,-0.681942 -4.213774,-2.738543 -0.179594,-0.968777 0.496448,-2.372943 1.071659,-2.961239 0.600356,-0.613696 1.123742,-0.617288 2.115868,-0.655517 m 16.419968,0.02489 -0.51312,2.822181 m -16.933096,-2.56562 c -0.520052,0.396903 -0.302487,0.343024 -1.282811,0.769687 m 42.076177,-0.769687 v 3.59187 m -27.7087,-3.335308 h 3.84843 m -47.463983,0.513125 c 0.885909,1.905487 0.68733,3.634202 1.282809,5.644364 0.478489,-0.183441 1.025736,-0.313774 1.796448,-0.636016 1.729743,-0.723249 2.510974,-1.691771 3.847919,-2.69929 M 38.737907,67.215468 c 0.226544,1.791571 0.220387,2.988433 0.26041,4.618117 0.0272,1.113222 0.07107,2.855536 0.323013,3.591612 0.459246,1.342846 1.636097,1.826465 2.495322,2.052753 m -9.492796,1.282809 c -0.640636,-1.323858 -0.606512,-2.660803 -0.80381,-4.104735 -0.07415,-0.542886 -0.317366,-1.456246 -1.039588,-1.668679 -0.722224,-0.212434 -1.117842,0.368166 -1.504481,0.904637 -0.679889,0.942609 -1.078586,1.548353 -1.420584,2.303157 -0.20294,0.447445 -0.517741,1.705624 -1.16941,1.921393 -0.964672,0.319419 -2.221058,-0.877699 -2.603079,-1.267672 -0.667573,-0.681172 -0.678606,-1.280246 -1.978349,-1.545787 -2.411426,-0.4926 -3.199329,2.033255 -3.848175,2.944563 -0.598816,-0.374581 -1.154785,-0.770456 -2.052497,-1.539628 -1.595302,-1.366707 -6.4892243,-4.206079 -4.046496,-6.899981 0.545963,-0.601895 1.194553,-1.028815 1.994001,-1.317447 0.929011,-0.335583 1.823129,-0.248865 2.822181,-0.248865 m 57.983029,0 c -1.408784,1.408782 -2.539709,2.02171 -3.258852,4.104993 -0.258614,0.748904 -0.307362,1.425972 -0.953641,1.813125 -0.992383,0.594453 -2.439649,-1.092185 -2.714683,-2.069687 m -24.373397,1.282811 c -0.08287,0.969547 -0.05567,2.431439 1.082948,3.066686 0.920289,0.513637 1.751036,-0.581113 2.518927,-0.491573 0.735051,0.08569 1.083974,0.555713 1.785928,0.782515 0.773791,0.250148 1.272035,0.217307 2.052497,0.308388 0.949023,0.111091 3.55749,-0.01693 4.125261,-1.167872 0.402289,-0.815867 -0.72684,-1.423406 -1.303335,-1.732306 -1.091159,-0.585219 -2.882219,-1.181212 -2.608467,-2.55074 0.260924,-1.305388 2.111763,-1.536807 3.121848,-1.806967 m 5.387803,1.282811 0.213459,1.921648 1.578884,0.922342 3.59546,2.543813 m 15.650286,-4.618117 c -1.193014,3.998262 -0.524926,4.590664 -4.618117,6.414051 M 59.519435,73.116394 c -0.36791,0.689383 -0.508507,1.164793 -0.513125,2.565622 m -12.314979,-2.052497 0.256563,1.795934 m -7.953425,0 c -0.625497,0.625499 -1.5209,2.818335 -3.320169,2.585889 -2.160509,-0.279396 -0.165482,-3.659088 0.497987,-3.868698 m 34.122755,0.513122 c -0.299408,1.543479 -0.768147,3.168287 -0.769686,5.644365 M 23.600745,76.964825 c -1.148628,1.313854 -3.763252,2.873752 -5.644365,1.282811 m -0.513124,0 -1.289225,1.069094 -3.842017,0.93722 -2.052496,-0.21038 m 114.426682,7.696862 1.28281,-1.282811 c 0.24784,0.347642 0.5316,0.871798 0.89258,1.106297 0.78123,0.507993 1.3957,-0.0998 1.94141,-0.861023 0.60189,-0.839984 1.09269,-2.391159 2.26313,-2.391159 0.73351,0 0.76122,0.839985 0.80894,1.377482 0.18011,2.028379 0.41127,3.254747 0.76455,5.129959 m -79.021113,1.795934 c 0,-0.505684 0.01129,-1.265107 -9.62e-4,-2.309059 -0.0092,-0.779434 -0.287349,-1.427768 -0.06106,-2.265442 0.198579,-0.735565 0.756857,-1.249715 1.24099,-1.838267 1.6089,-1.9568 3.940793,-1.526032 4.473672,0.768403 0.345333,1.486008 -0.205506,3.010756 -1.315136,4.051114 -0.476694,0.446932 -1.176081,0.90823 -1.771818,1.200968 -0.938247,0.461042 -1.287685,0.272981 -1.97091,0.729405 -0.825104,0.551353 -0.594712,3.792244 -0.594712,4.537558 m 16.163411,-11.288731 0.329683,7.953423 0.440003,4.618117 m 39.510562,-4.361554 c -1.44111,0 -4.45982,0.738129 -6.12953,-0.445906 -1.349,-0.95672 -1.0696,-2.284171 -0.67091,-3.658061 0.24989,-0.861278 0.69477,-1.506275 1.42392,-2.015552 0.72145,-0.503888 1.3136,-0.527491 2.04121,-0.551095 m 7.18374,0.769686 c 0.54494,-0.359699 0.97955,-0.673475 1.79645,-0.738385 2.24697,-0.178567 3.33043,1.665857 1.73692,3.55672 -0.6373,0.756088 -1.65636,1.704597 -2.7624,1.706906 -1.89677,0.0044 -1.83596,-2.616933 -0.001,-1.959621 v 0 m 8.20999,-3.078745 0.25656,2.565622 m -49.003356,6.15749 c 1.279218,0.277087 3.316834,0.422558 3.634972,-1.060372 0.340713,-1.587862 -2.439136,-2.734181 -3.071048,-4.074463 -0.886936,-1.881113 1.191986,-1.60813 2.258259,-1.279218 m 4.361556,1.539372 c 0.949279,-0.120071 3.770435,-1.268185 4.70971,-0.502347 0.555713,0.453345 0.102624,1.293585 -0.116223,1.785158 -0.348412,0.783541 -0.993665,1.881627 -0.477719,2.750859 1.053445,1.774896 4.220959,1.688691 5.633589,2.380383 m -30.530886,-4.87468 c -0.305822,1.044722 -0.167792,4.510619 1.751549,3.764535 1.617367,-0.628834 1.246636,-2.105604 2.598975,-2.284171 0.976988,-0.129051 1.159917,1.211998 1.550404,2.111505 M 65.1638,93.64136 64.907238,94.154483 m 33.096507,0.513125 h 0.513125 m 262.71956,1.539372 c 2.36549,1.227136 4.06394,3.790705 5.60587,5.90093 2.84784,3.89615 5.31853,7.46108 7.17861,11.80185 0.54134,1.26306 0.86205,2.58666 1.48036,3.84843 1.07756,2.19258 1.88317,4.52242 3.43794,6.41405 m 242.45115,-27.195574 0.76713,4.104994 2.05506,10.00592 0.4849,2.44427 1.82416,0.61652 4.87467,1.30077 M 38.481346,98.002914 c 4.21942,0.318394 1.695875,6.240876 -1.539372,6.376076 -2.323427,0.097 -2.585634,-1.17685 -2.565622,-3.29733 M 26.422928,98.7726 c 2.127669,0.355083 1.152734,2.86529 0.297613,4.10474 -1.564003,2.26724 -3.052834,2.39885 -4.659168,1.28306 -1.484211,1.06345 -2.975349,0.13701 -3.848431,-2.05249 m 12.314979,-2.30906 c 0.263746,0.8659 0.239886,1.77336 0.771995,2.52765 0.980324,1.38954 1.697416,0.80406 2.563313,0.55109 m 342.253791,46.18117 c 0.0513,-2.53432 0.81331,-5.41114 1.54965,-7.95342 0.28734,-0.99649 0.57212,-1.82749 0.81842,-2.82218 0.6568,-2.65234 1.40339,-5.46837 2.05251,-8.20999 1.42903,-6.03511 2.56047,-12.28932 3.35069,-18.47247 0.31301,-2.46941 0.65937,-5.02682 1.24175,-7.4403 0.53878,-2.23132 1.36493,-3.128 2.78885,-3.07874 m 16.41996,0.25656 2.05251,2.30906 m -393.566222,-2.0525 c 0.79483,0.73865 1.960649,1.15966 1.892659,2.56639 -0.110321,2.28289 -3.146991,2.80038 -4.451865,1.74283 -0.5362157,-0.43436 -0.8959151,-0.84075 -1.2892247,-1.23047 -2.2023282,1.45188 -3.8297028,-0.59035 -3.8484311,-2.82218 m 42.8458658,0 h 0.769686 m 355.338472,0 v 1.28922 l 0.0744,2.30264 0.86718,6.15749 2.13459,7.18374 2.38091,11.54529 0.36945,2.56562 0.22321,2.30906 0.62087,3.84843 M 22.061373,102.10791 v 2.05249 m 555.456877,-1.79593 c 1.33669,2.06815 0.70297,1.96449 0.85435,4.10499 0.2386,3.40176 1.11091,6.84636 1.60095,10.26248 0.12315,0.85179 0.15907,1.77311 0.3361,2.41785 0.32069,1.15966 0.4926,2.14331 0.54134,3.73964 0.0205,0.6958 0.0231,1.12811 0.11032,1.79594 0.0949,0.71991 0.14624,1.31026 0.14881,2.0525 0.0102,1.97168 -0.077,3.98363 0.25656,5.3878 m -103.13795,7.18374 -0.51313,-0.76969 h 1.03652 c 1.67021,0 3.23268,-0.0824 4.86441,-0.60241 1.19557,-0.38099 3.08388,-1.35131 2.62207,-2.98946 -0.4849,-1.71229 -2.35012,-2.93712 -3.64831,-4.00621 -2.83245,-2.33138 -5.70337,-4.59375 -8.72312,-6.59827 -3.80225,-2.52457 -7.31972,-5.13945 -7.43773,-9.92048 -0.0513,-2.18591 -0.0847,-4.59092 1.19045,-6.41406 0.97237,-1.3921 2.49635,-2.64823 3.93822,-3.42561 2.71699,-1.46523 5.27235,-1.12297 6.92717,0.34687 M 8.9767073,104.1604 v 0.51313 M 417.68007,142.90128 c -0.69271,-0.74044 -0.70297,-1.06935 -0.7748,-2.0525 -0.195,-2.57922 -0.4413,-4.92086 -0.50799,-7.69686 -0.0231,-0.91798 -0.14624,-1.7005 -0.24374,-2.56562 -0.26426,-2.3165 -0.78764,-5.03093 -1.32642,-7.4403 -0.91081,-4.08704 -1.66253,-8.21358 -2.59898,-12.31498 -0.30532,-1.32617 -0.35662,-2.33626 -0.44386,-3.59187 -0.12315,-1.81826 -0.59522,-3.19856 1.27768,-2.56562 m 115.45293,0.25656 c 1.16736,1.71563 1.25716,3.73914 1.79594,5.90093 0.56957,2.28212 1.20583,4.63325 1.60351,6.92717 0.22577,1.29667 0.3874,2.81783 0.55673,4.105 0.27709,2.1038 0.47979,3.8356 0.63884,6.15749 0.15138,2.19899 -0.45411,7.74227 1.56247,8.97967 m 95.95422,-32.07026 c -1.31873,1.98938 -1.58812,3.5734 0.51313,4.87468 m -81.33018,-3.59187 c 1.15452,-0.27478 2.42451,-0.34046 3.84843,-0.5003 2.65797,-0.29838 5.83422,-0.42666 8.46654,-0.24655 0.73121,0.05 1.31873,0.19114 2.05251,0.22372 0.66449,0.0293 1.14425,-0.0164 1.79593,0.0547 1.31872,0.14393 2.27827,0.76199 2.82219,1.75129 m -90.05329,-1.28281 v 0.25656 m 80.04736,1.79594 c 0.19754,4.57809 0.84152,9.85993 1.32642,14.36747 0.35406,3.31273 0.72607,6.47383 0.72607,8.72311 1.50089,-0.35739 3.92284,-0.32301 6.15749,-0.26964 0.60293,0.0144 1.13401,0.0464 1.79081,-0.28633 0.7389,-0.37381 0.98006,-0.71093 1.33411,-1.49704 0.2027,-0.45232 0.27453,-0.85358 0.44642,-1.28229 0.28479,-0.71504 0.99803,-2.10817 2.0602,-1.85957 1.24433,0.2912 1.33412,2.15718 1.64199,3.14238 0.72095,2.31085 1.05961,3.68602 2.21928,4.36155 m 69.01518,-23.86027 c -0.254,3.19189 -2.00118,6.18443 -3.46615,8.97967 -0.41819,0.79432 -1.18275,2.45068 -2.19104,2.58589 -0.93902,0.12546 -1.51628,-1.10989 -1.86776,-1.8162 -1.13658,-2.2811 -1.70871,-5.16075 -1.71128,-7.69686 M 655,122.11975 c -1.62918,0 -2.67595,0.0593 -4.10501,-0.29017 -3.62008,-0.88514 -5.06965,-5.37831 -3.01459,-8.42909 1.25201,-1.85957 3.49438,-2.63772 4.55397,-0.51698 m -31.55714,0 3.33532,0.51313 m 0.76969,0.76968 c 0,1.50987 0.23346,5.2526 0.62087,8.20999 0.14368,1.08398 0.11545,2.12177 0.40537,3.33531 m -111.09137,-1.79594 c -0.85693,-0.74069 -2.16026,-1.44752 -2.71187,-2.57562 -0.61317,-1.26024 -0.90054,-3.54877 0.91592,-3.83843 m 80.81705,12.31498 c 1.24434,-2.66901 0.23861,-5.26978 1.85239,-7.9524 1.70614,-2.83398 5.58022,-3.15391 7.89698,-2.31008 m 19.24216,5.64436 c -1.56503,0.38587 -3.17881,1.01394 -4.87468,1.02497 -0.97238,0.007 -1.80876,-0.0136 -2.41169,-0.80638 -0.5003,-0.65833 -0.6568,-1.72255 -0.59008,-2.52765 0.21037,-2.49532 1.91907,-3.85099 4.02801,-3.59186 m -41.56305,0.25656 2.30906,-0.25656 m 0.76968,0 c 1.39827,1.9e-4 3.02487,0.12058 5.13125,0.51312 m 4.60273,1.9e-4 c 1.13655,0.17677 1.09551,1.23355 0.59521,2.05224 -0.5824,0.94748 -2.03453,2.18155 -2.88888,2.76728 -0.60293,0.41358 -1.27512,0.99905 -1.92422,0.56367 -0.64397,-0.43359 -0.195,-1.64611 -0.0924,-2.04814 0.37201,-1.46317 2.48351,-3.61932 4.31025,-3.33505 m 43.11782,-0.25682 c -1.10066,1.16325 -1.61892,2.55254 -1.53938,4.87468 m -20.52497,-2.30906 c -0.6414,0.98084 -0.81331,1.19507 -1.39313,2.0525 -0.49004,0.72787 -2.58359,3.52875 -3.73554,2.1541 -1.15453,-1.37851 0.0129,-5.01015 2.04993,-4.71972 m 2.82219,1.28281 c 1.10321,1.45009 1.64968,3.38636 3.84843,4.36155 m -28.47839,-1.53937 c 0.27451,1.05499 0.4772,2.03813 2.30906,2.6585 2.15512,0.72966 3.76888,0.31146 5.3878,0.16368 m -25.65622,2.30906 c 0,-0.85691 -0.27965,-1.26485 0.25658,-3.07874 l 1.53937,0.25656 m -146.49696,0.76969 c 1.83699,-1.212 4.13066,-0.96186 5.61615,0.54006 1.75745,1.77823 1.64457,5.25516 -0.28478,7.05571 -1.65996,1.5463 -4.62068,1.50654 -5.91119,-0.42307 -1.08012,-1.61403 -0.94416,-3.03898 -0.18986,-4.60708 l 1.53937,1.02624 m 88.25736,7.44031 c -1.42648,1.9e-4 -3.12749,0.31146 -5.13125,0.25271 -1.56758,-0.0462 -2.5964,-0.71478 -3.44819,-2.04968 -1.34182,-2.10252 -1.3726,-5.76007 -0.18985,-7.94855 0.7312,-1.34695 1.66764,-1.54322 2.86835,-1.28665 m -72.86361,0 c 0,1.07371 -0.0359,1.7128 0.2899,3.07874 0.53622,2.24723 1.14172,4.39286 2.65286,6.14646 1.87803,2.18155 4.85416,1.86751 6.80658,0.26759 1.87034,1.53245 3.87922,2.09175 6.14724,0.45566 1.15453,-0.83306 1.90112,-2.0838 2.03453,-3.5344 0.2386,-2.561 -2.36036,-4.60786 -4.84645,-2.82219 m 72.88929,-2.81115 c 1.35976,-0.7099 2.97099,0.70298 4.07934,0.70889 0.91078,0.005 2.01657,0.0262 1.62659,1.31077 -0.24116,0.79124 -1.00829,1.28974 -1.45726,1.82775 -0.74404,0.89566 -1.61634,1.99195 -2.73497,2.57588 -3.83815,2.00503 -4.13063,-5.05555 -1.5137,-6.42329 m -121.12296,17.94832 c -1.80363,0 -3.64575,0.17369 -5.90093,0.24553 -2.1115,0.0672 -4.31794,-0.55392 -5.84704,-2.30188 -3.25835,-3.72836 -0.48748,-9.40685 2.51687,-12.28829 1.37004,-1.31514 3.81251,-3.67885 5.88041,-3.5498 1.7523,0.1093 0.626,2.92789 -0.0667,4.04009 -0.89027,1.4234 -2.27827,2.65028 -3.76632,3.37738 -1.12888,0.55186 -2.01146,0.54955 -3.33532,0.47105 m 103.39452,-6.67062 c 0.11288,-0.37355 0.11802,-1.01598 1.04164,-1.18711 0.74915,-0.1388 1.39313,0.22757 2.03711,0.42461 1.29819,0.3969 2.62719,1.52372 2.50148,3.07156 -0.1873,2.29059 -2.44248,5.10456 -4.81054,4.8049 -1.45471,-0.18422 -2.20388,-1.81108 -2.22183,-3.26553 -0.0129,-1.15299 0.28478,-3.08413 1.25203,-3.44973 0.57726,-0.21756 0.95441,0.0249 1.48291,0.0598 0.78766,0.0521 1.28282,-0.19781 1.53937,-0.9716 m 74.14646,0.76969 v 0.51312 m -13.08467,0.51312 c 1.77797,-0.001 3.3353,-0.31762 4.87467,-0.51312 m -34.63588,0.51312 c 1.14428,1.38364 1.76772,2.9597 3.59188,4.36156 m -14.11093,1.02631 c -1.66508,1.28256 -1.53167,-2.63463 0,-3.59187 m -72.09393,2.0525 0.51311,2.30906 m 24.88654,0.51312 c 3.20445,0.002 5.89322,0.52544 8.7231,0 m 14.36748,30.01776 c 0.72607,0.51236 2.16282,1.3331 3.59186,1.25511 2.08329,-0.11366 5.61101,-1.86136 4.65404,-4.33385 -0.44642,-1.14837 -1.5599,-2.07585 -2.60154,-2.6567 -2.61949,-1.45958 -5.10558,-1.35183 -6.92717,-0.93517 -0.0129,-2.09457 1.92677,-4.23994 3.61496,-5.87399 0.70042,-0.67758 1.35207,-1.12682 2.28597,-1.25125 0.96467,-0.12854 1.6343,0.14727 2.56562,0.18806 0.86718,0.038 1.49575,0.039 2.30905,-0.0128 1.96015,-0.12469 3.41741,0.0228 4.87468,0.0228 m 2.30906,0.51312 c 0.0154,5.62897 0.29248,11.53247 -0.76969,16.67654 M 422.04162,156.4139 c 1.1186,-0.31711 2.00632,0.2912 2.77343,1.12271 2.11921,2.2911 2.02427,5.80985 -0.005,8.1987 -0.65681,0.77508 -2.21158,1.92037 -1.5599,3.05181 1.44701,2.51046 5.54174,2.66645 7.40438,5.16203 2.81449,3.773 -4.59247,7.06238 -7.07342,7.71251 -1.27768,0.33456 -3.01973,0.38664 -4.3128,-0.53134 -1.61634,-1.14658 -1.2392,-2.54843 -1.34183,-4.87596 -0.0334,-0.75199 -0.16676,-1.32899 -0.22321,-2.0525 -0.11801,-1.44136 -0.20268,-3.15982 -0.30274,-4.61812 -0.0975,-1.43059 -0.4028,-2.43041 -0.3515,-3.59186 0.0308,-0.65706 0.2104,-1.01702 0.31815,-1.53938 0.17703,-0.85153 0.61062,-2.4027 0.96211,-3.3353 0.58496,-1.54938 1.91652,-4.19377 3.71245,-4.7033 m 64.65364,0.0852 c -1.39569,5.37857 -1.59325,11.37647 -3.84843,16.67653 M 445.64528,161.6303 c 2.06787,1.39647 4.12807,3.61522 5.3878,4.87468 0.35661,-0.53724 0.69272,-1.09373 1.20841,-2.0525 1.42134,-2.64874 3.26858,-5.12149 5.71876,-5.3878 m -81.58673,28.4784 c -0.6953,-2.34677 -1.075,-6.98081 -1.66766,-9.49281 -0.71067,-3.00588 -2.07046,-6.00637 -2.3578,-9.23623 -0.16421,-1.85007 0.51055,-1.97348 0.76199,-3.33531 0.4926,-2.66183 2.1936,-5.3896 5.57253,-3.8728 3.24037,1.45393 5.33904,5.1025 5.08248,8.49092 -0.33866,4.50754 -4.01776,7.43132 -7.13499,7.4403 m 57.0133,-12.56333 c 1.37262,-0.80022 1.95244,0.66476 3.02486,0.83383 0.87744,0.13777 1.30847,-0.0926 2.3065,0.1955 4.79259,1.38466 7.81745,8.43833 2.56562,11.43984 -4.59245,2.62412 -8.78724,-3.85663 -8.96941,-7.85926 -0.0616,-1.34464 -0.11289,-3.91796 1.07243,-4.60991 m 17.38979,1.53116 1.7523,2.31009 2.02172,2.56459 1.87033,2.56562 m -5.64435,-6.67061 c -0.29249,0.36278 -0.64142,0.75224 -1.01599,1.54066 -0.85179,1.79234 -1.96528,4.78975 -1.54965,6.92589 m -55.67396,-7.49264 c 0.68758,-0.17061 1.10579,-0.11135 2.30906,0.51056 1.35209,0.69887 2.3065,1.36876 3.33018,2.37423 0.71837,0.70349 1.27768,1.31488 1.70613,2.29879 1.58555,3.63035 0.64141,9.59414 -4.01007,10.20758 -1.55988,0.20602 -3.4764,-0.78662 -4.60784,-1.79568 -1.20329,-1.07217 -2.12178,-2.49738 -2.29367,-4.05034 -0.0821,-0.74711 -0.13598,-1.31412 -0.13598,-2.0525 0,-1.6266 0.20526,-3.42536 0.76969,-5.12996 0.4849,-1.46445 1.42905,-1.98964 2.9325,-2.36268 m -0.25656,0.56546 c 0.0821,0.72325 -0.18216,1.35157 0.51312,2.82219 m 146.24037,6.67061 c 2.38347,-0.54494 4.82082,-0.75891 7.18376,-0.12341 0.69271,0.18652 1.40338,0.47131 1.67277,1.17737 0.32327,0.85614 -0.28734,1.6207 -0.80817,2.28109 -1.24689,1.57965 -1.39569,1.94141 -3.43024,2.05275 m -9.74934,-2.82218 c 2.70415,4.07882 1.53937,10.54214 1.53937,15.13717 v 2.5656 m -18.21592,-3.33529 c 1.82416,1.54962 2.71186,1.81876 4.36157,1.35387 0.77994,-0.21987 1.77797,-0.73787 2.15512,-1.65432 1.20583,-2.93737 -1.94475,-4.82208 -4.20763,-5.57739 -0.98264,-0.32737 -2.18077,-0.17703 -2.48095,-1.34003 -0.4182,-1.62274 1.19044,-4.97037 2.49379,-5.71979 1.05447,-0.60395 1.36234,-0.47079 2.55278,-0.42281 1.01856,0.0411 1.7087,-0.0721 2.56563,-0.16318 1.52398,-0.16138 3.02229,0.31891 4.36154,0.69554 m -31.30056,1.02625 2.82217,16.67653 m 3.84844,-16.67653 c -0.15906,1.94243 -1.97552,5.21437 -0.72351,7.10241 0.77226,1.16555 2.96329,0.68554 4.05882,0.52467 0.93388,-0.13727 1.57272,-0.2563 2.56562,-0.44334 m 35.40556,-7.18374 c 1.86778,1.18454 3.65088,0.81176 5.01836,3.33916 0.62089,1.15041 0.8364,2.75213 0.56701,4.10114 -0.89542,4.47317 -6.49104,6.76067 -9.17724,7.18372 m -30.27432,-13.34121 0.25656,11.54529 v 4.61811 m -48.74679,-15.13716 c 0,1.681 0.13598,3.70425 0.36689,5.38781 0.51311,3.77635 0.4849,8.44243 -0.62345,10.51904 -1.96783,-1.21509 -2.04736,-2.56485 -3.26346,-5.3878 -0.28223,-0.65448 -0.57471,-1.50627 -0.89798,-2.02529 -0.51569,-0.8228 -1.02368,-1.00906 -1.48293,-1.31001 l -0.508,2.05249 0.29506,3.33531 -0.0436,5.64436 m 19.49871,-16.93309 c 0,0.84306 -0.005,1.69999 0.10776,2.56561 0.10006,0.75276 0.19242,1.25742 0.11545,2.05251 -0.0641,0.68092 -0.21551,1.07242 -0.28734,1.79592 -0.0847,0.83819 -0.12059,1.3875 -0.2617,2.30906 -0.61319,3.97388 -1.68047,6.46767 -2.23978,10.26249 m -5.64436,-17.44622 3.07874,1.29282 4.87468,3.06874 m -20.78153,-3.84843 1.79593,3.59186 m -32.58338,-2.05249 1.07756,5.64436 0.57213,2.0525 0.39512,3.07874 -0.0436,1.79593 0.56443,2.56562 m -0.51311,-7.44029 c 1.388,-1.39981 2.67081,-3.48205 5.38781,-4.105 m -61.5749,5.3878 c 1.04164,2.16025 0.62601,2.65003 1.53937,3.84843 0.38996,-0.45822 0.8877,-0.88847 1.17249,-2.30906 0.28222,-1.4093 0.76968,-5.19384 2.42707,-5.34264 1.25203,-0.11262 2.03711,2.50892 2.38602,3.54671 0.51569,1.52835 0.87745,2.88324 1.20071,4.36156 0.66707,3.03564 1.10323,4.93292 1.79337,7.95342 m 35.66214,-5.13125 c -0.36689,-2.38012 -0.0129,-2.56048 0.77739,-4.36129 0.5285,-1.20302 1.77283,-2.04762 3.58415,-2.05275 m 5.90094,1.53937 c 2.20644,0.73172 4.99012,3.91052 7.44031,4.61812 m 10.26247,-4.10499 c -0.44386,1.8693 -0.0462,3.75041 -0.31043,5.64436 -0.254,1.8244 -0.79792,3.37532 -1.74207,4.87467 m -31.30056,-7.69686 c -0.35663,1.20406 -2.68621,3.33351 -5.12611,2.37525 -1.45729,-0.57213 -2.01402,-2.59153 -1.24177,-3.87562 0.99033,-1.64611 2.33984,0.46206 3.03256,1.24381 m -35.91868,-1.28281 0.25656,9.49281 m 27.7087,-9.23624 c 4.14861,0.4636 1.31617,6.00611 -2.0525,5.59664 -0.74916,-0.0911 -1.31103,-0.18574 -1.80363,-0.82947 -0.45155,-0.58931 -0.94415,-1.7595 -1.53167,-2.45811 m -10.26248,2.56561 c -0.33866,-0.18728 -0.7312,-0.25784 -0.94929,-1.04138 -0.29504,-1.05318 -0.39766,-2.36654 0.72095,-2.98202 1.19815,-0.65989 3.77146,-0.59677 3.46614,1.20506 -0.33352,1.97452 -1.90112,2.17745 -2.98124,3.0749 0.87488,1.05037 2.09354,2.3106 3.84843,2.56563 m 2.56561,-5.3878 c 0.41052,0.98674 1.12632,2.72596 2.10125,3.44973 1.16992,0.87129 1.78055,0.33097 2.51687,-0.37098 m 15.6503,-3.07875 1.53937,2.30906"
       id="path48985"
       sodipodi:nodetypes="ccccccccccsccccccccccscscccccccccccccccssccccccccccccccccccscccccccccccccscccccccccccccccccccccccccccsccccccccccsccccccccscccccccccsccccccccccccccccccccccccccccccccccsccccscccccccccsccccccccccccccccsccccccccccsccccccscccccccccccccccccccccccccccccccccccccccccsccscccccccccsccccccccccccccccccccccsccscccccccccccccsccccsccccccccccccccccccccccccccssccccccssccccccccsccsccscccccccccccccccccccccccccccccccccccccccccccscccccccsccccccccccccccccccccccccccssccccccccccccccccccccccccccssccccccccscccsccccccccscccccccccccccccccccccccccccccccccccccccccccccccccccccccccccccccccccsccsccccscccccsccccccccccccccsccccsscccccccccccccccccccccccccccccccccccccccccccccscccccsscccccccccsccsccccscccccccccccccccccccccccccccccccccccccccccccccccccccccccccccccccccsccccccccccccc" />
  </g>
</svg>
