<?xml version="1.0" encoding="UTF-8" standalone="no"?>
<!-- Created with Inkscape (http://www.inkscape.org/) -->

<svg
   version="1.1"
   id="svg2280"
   width="3585.3333"
   height="1606.6667"
   viewBox="0 0 3585.3333 1606.6667"
   sodipodi:docname="Casey - Pulsz - Envelope 50.svg"
   inkscape:version="1.1.2 (b8e25be833, 2022-02-05)"
   xmlns:inkscape="http://www.inkscape.org/namespaces/inkscape"
   xmlns:sodipodi="http://sodipodi.sourceforge.net/DTD/sodipodi-0.dtd"
   xmlns="http://www.w3.org/2000/svg"
   xmlns:svg="http://www.w3.org/2000/svg">
  <defs
     id="defs2284" />
  <sodipodi:namedview
     id="namedview2282"
     pagecolor="#ffffff"
     bordercolor="#666666"
     borderopacity="1.0"
     inkscape:pageshadow="2"
     inkscape:pageopacity="0.0"
     inkscape:pagecheckerboard="0"
     showgrid="false"
     inkscape:zoom="3.9065744"
     inkscape:cx="471.25686"
     inkscape:cy="45.820195"
     inkscape:window-width="1920"
     inkscape:window-height="1017"
     inkscape:window-x="-8"
     inkscape:window-y="-8"
     inkscape:window-maximized="1"
     inkscape:current-layer="g2286" />
  <g
     inkscape:groupmode="layer"
     inkscape:label="Image"
     id="g2286">
    <path
       style="fill:none;stroke:#26272a;stroke-width:0.262254"
       d="m 6.1714318,7.4914102 0.262254,1.0490202 M 6.1714318,7.4914102 C 6.4978571,3.6859312 9.7660614,5.7640103 11.941035,5.655628 M 6.6959399,8.8026845 c 1.9294092,0.7109731 9.5985221,5.0069665 7.5980431,8.6268685 -1.420633,2.57062 -4.8010966,1.571955 -6.811279,1.076555 M 7.7449601,9.5894486 8.0072141,9.8517027 M 75.522919,9.3436815 c 0.229476,0.7768765 2.732261,15.3741625 0.977019,4.4418415 m -13.63097,-3.633908 c 0.258584,2.04611 0.664048,4.088922 0.255979,5.469693 1.478594,0.705727 2.400418,-1.97e-4 3.739229,1.675807 0.68737,0.860457 0.467076,2.106691 1.585855,2.775179 1.735076,1.036955 4.072027,-0.407282 4.378342,-1.82844 M 52.372505,12.474251 c 1.727996,-0.193282 3.230977,-0.896388 4.458329,0.262254 m 19.669104,1.049018 3.834065,-3.030813 m -33.468847,1.719541 c 2.021323,0.535469 2.230314,1.329842 2.62255,2.098037 m 2.884799,-2.098037 c -0.522666,1.833939 0.151689,2.470858 1.311273,2.622547 m -6.818622,-2.622547 c -2.794159,1.384563 -4.99554,4.748543 -2.098035,5.245093 m 32.349906,-0.209802 v 0 l 4.365753,2.832351 m 12.325972,-6.294114 c 0,0.581213 0,0.581213 0,0 m -2.62255,1.049019 2.360296,-0.786765 m -76.622621,0.262255 v 1.835784 m 32.563829,-1.835784 c 0.198526,0.823742 0.596105,1.6842 0.485433,2.621498 -0.09179,0.77916 -0.443735,1.370806 -1.044822,1.851519 -1.471775,1.176999 -3.701987,0.894287 -4.161196,-1.325961 m 14.948516,-2.8848 c 0.762636,0.329654 1.690494,0.873831 2.360292,0.524508 m 24.651943,-0.524508 1.311274,0.262254 m 3.147056,0 v 1.573528 m 20.007388,-0.949265 c -4.19867,0.232791 -5.44705,3.602077 -4.31635,4.883086 M 21.906713,15.621308 c 0.09756,1.29344 0.70258,2.340359 -1.312585,3.143646 -1.994931,1.528076 -2.913885,-1.323121 -3.670251,-2.356882 m 36.759901,-1.311274 c 2.841635,1.380199 6.065155,7.654054 4.196076,6.294113 m 4.458329,-5.769603 h 0.786764 m 4.982841,0 c 1.041937,0.406493 1.461808,0.813514 2.098037,1.573528 m 59.524585,-1.04902 v 0.52451 m 16.22278,0 c 0.85877,-0.180869 1.48557,-0.748341 3.02156,0.199507 M 63.387203,16.408072 c 0.259107,0.921824 0.26958,5.392101 0.530785,6.768415 M 88.563654,16.93258 85.432071,19.292086 M 27.151809,14.832528 c 1.175164,-0.234981 -0.806172,4.387962 -1.573529,4.547675 -1.779135,0.37083 -1.99502,-0.942689 -3.328061,-1.679362 m 64.477653,-2.866297 c -1.092625,-0.130894 -2.803548,3.372052 -1.295801,4.457542 0.618135,1.122976 0.555194,1.438204 2.344819,1.574315 M 77.117027,17.509542 c -0.346061,0.880805 0.601211,2.423453 0.550189,3.447361 m 59.631574,-1.139521 2.09803,-1.835782 c 0.72803,1.977662 1.03355,2.184319 1.04902,4.196075 m -67.617467,-3.409311 0.524508,1.049018 h -0.524508 m 0.524508,0 0.786764,0.786765 m 71.813545,-3.933821 c -2.43095,1.223856 -1.64636,2.447711 -1.57352,3.671567 M 44.767121,17.719344 c 0.06294,0.99001 0.885107,5.082235 0.524507,6.55637 m 45.894574,-7.605388 4.720585,5.769603 -2.098038,1.835785 m -39.284711,-2.94755 c 1.363107,0.401627 5.040413,0.814081 3.355816,0.06275 m 62.110126,-1.049021 c 1.96892,-0.626373 2.8948,0.57258 3.93382,1.573531 m -6.29412,2.151275 c -1.60551,-0.185798 0.62801,-4.741393 2.3603,-3.724806 m -12.85049,0.786767 c -1.32403,-1.762219 2.6708,6.094413 6.09663,3.409311 m 31.14355,-4.196078 3.40931,1.573531 m -7.34314,0.262254 0.78677,2.884803 m -11.51145,-4.369845 -0.0278,3.320825 m -5.7696,-2.098037 c -0.50458,2.399418 -5.19894,4.95464 -6.29412,2.151275 m -26.705734,0.209018 c 1.042201,-0.170467 2.222609,-0.543393 2.884803,0 m 43.490041,-4.458335 -1.57353,5.769607 m 12.06372,-3.671565 2.36029,3.147057 m -5.04962,1.573528 c 1.9261,0.022 4.04346,0.474324 5.04962,-1.573528 M 17.972892,35.814922 c 1.568284,0.01284 6.362563,0.562011 7.034723,2.15783 0.621018,1.474921 -1.917084,2.719321 -2.838646,3.349519 M 82.225298,36.33943 c 0.0076,0.922874 0.134274,1.746355 0.217671,2.622548 0.282973,2.97187 -0.05848,9.47395 0.569094,11.014698 M 8.2694682,38.175214 c 0.6579984,-1.193259 1.6262415,-1.056888 2.8848028,-0.52451 l 0.262254,-0.262254 -0.52451,-0.262256 m 0.262256,0.52451 -0.52451,0.52451 m 1.049018,-0.52451 c 2.556196,0.516117 2.143409,2.06237 1.573528,3.671567 l 0.262256,0.262254 c 0.510872,-0.510872 0.341717,-0.23839 0.524508,-0.786764 m 31.470567,-2.884803 1.311274,0.262256 m -17.833321,0.786764 c 1.18644,-0.470223 1.547303,-0.763686 3.147056,0 m 12.325973,0.262254 v 0.52451 -0.52451 m -19.40685,0.262254 -0.262254,0.262256 m 34.617622,-0.262256 h 0.262254 m -15.210772,0.52451 c -1.050592,1.265904 -1.778612,2.341149 -1.311275,3.671567 l -0.262254,0.262254 -0.262254,-0.52451 M 28.987591,38.961978 c -0.623632,2.687783 1.464241,4.930615 3.146533,4.774608 2.939106,-0.651116 1.004367,-5.173953 5.23e-4,-4.774608 m 140.830793,1.573529 -0.26227,3.93382 M 59.409138,39.486486 59.671392,42.895799 M 22.168969,41.322271 c 3.501896,1.223789 3.074441,5.284357 -1.856303,7.027381 m -7.060359,-6.502873 -2.8848,4.982841 -0.262256,-0.52451 0.262256,-0.262254 m 75.004848,-2.622549 c 3.091983,-1.869875 4.587358,2.32384 3.336142,4.982841 -2.210332,3.612743 -8.295249,0.177909 -3.336142,-4.982841 m -7.605387,1.573528 1.311274,-1.835782 c 0.523723,2.676833 0.194069,5.081448 1.311272,7.605387 m -25.17645,-7.080877 h -1.573529 1.573529 m 44.05879,0 -0.262255,0.262254 m 1.311271,-0.262254 1.04902,0.524508 m -58.482799,-0.262254 0.52451,1.835782 -0.52451,-0.524508 m 10.752444,-1.573528 c -3.072983,-0.09635 -2.685443,0.9608 -2.217365,2.0448 l 1.693117,0.796467 c 1.698375,-0.05899 4.504692,0.866866 2.097777,-2.841267 m 18.095575,2.622547 2.098036,-2.360293 c 0.239702,1.527109 0.514282,2.569047 0.786764,3.671567 M 184.7669,45.256091 185.55366,43.944817 M 32.134124,43.736586 c 0.691829,1.376837 1.953272,3.527851 -0.01364,4.980217 -1.262718,1.094089 -3.00369,0.681779 -4.181913,-1.362675 m 0,0 c -0.446734,-1.971392 2.065901,-3.85107 4.195551,-3.617542 m 27.53727,-0.840787 1.311273,6.031857 m 5.769603,-4.458329 0.392859,2.098037 2.491943,2.884802 m 28.848017,-4.720585 c 0.618922,1.22237 4.228863,5.208641 4.982843,6.031859 m -41.173991,-5.507349 1.41093,2.275584 1.734815,0.208231 1.57484,-1.172542 m 8.916659,-1.311273 v 0.786765 m 96.946927,-0.699434 c 0.19354,0.09706 0.19354,0.09706 0,0 m -81.4739,0.174923 c -0.04957,1.158642 -0.437441,1.485411 -0.02701,2.622285 0.09609,0.654079 2.321942,2.557452 1.076031,1.311536 m -49.04163,-3.671567 c 1.654302,1.484888 3.150991,2.25041 5.245093,2.622549 M 193.4213,48.927656 c 0.51219,-1.72275 1.54861,-3.198196 3.67156,-2.741873 1.8426,0.396006 2.78436,1.178836 4.18086,2.391763 1.06817,0.927859 1.23496,1.419061 1.53446,2.710402 0.64487,2.780163 -2.45863,5.767768 -5.19081,5.614875 -2.40932,-0.135062 -3.66604,-3.717987 -4.72058,-5.614875 M 17.972892,46.042856 c -1.718293,0.867275 -4.182438,1.808245 -6.289129,2.027752 -1.105667,0.115393 -1.167822,-0.340143 -1.316256,-1.240988 M 73.29215,46.314362 73.029896,47.36338 m 22.570393,-1.320524 0.524508,1.049018 m 76.578373,-2.622547 c 0.32625,4.894512 0.0522,3.231502 0.92158,3.95113 0.70178,0.5809 2.45836,0.932315 3.27451,1.293963 M 77.766968,44.993835 76.193439,47.616384 M 191.32326,46.30511 v 4.982838 h 1.57353 l 0.52451,-2.360292 m -76.15161,-8.333434 -2.25655,8.700853 c 0.27517,0.311082 4.39017,0.209028 4.75358,0.410095 M 24.004752,46.82962 v 0.262254 m 183.578298,0 c -0.27511,1.504554 -1.57065,6.266837 -0.52451,7.080877 M 117.26969,40.594222 c 0.085,0.968506 4.84916,14.120027 5.28007,14.98232 m 10.81521,-2.977319 c -1.29465,-2.852506 3.5777,-4.383286 5.33559,-3.272551 l -5.33559,3.272551 c -1.01047,3.643244 2.47249,2.381647 5.85085,2.657537 m 29.81579,-7.640376 c 1.63883,0.277464 2.70726,0.53054 3.93383,1.049018 m -9.44118,8.91666 c 0.63203,-1.448958 2.44736,-0.694188 3.92202,-0.737985 0.39758,-0.0118 0.70127,0.110147 1.06082,0.213477 0.77208,-1.388116 1.08154,-1.812705 1.05059,-3.409313 0.41741,-1.882202 -0.97234,-3.987572 -2.36187,-4.458329 m 17.57108,-3.933821 c -1.07098,1.185448 -0.83546,4.74116 0.83527,5.198413 1.79907,1.039053 3.87509,0.592695 5.45884,1.095701 m -18.09557,-2.884803 c 0.0144,1.17123 -0.0767,8.371476 -0.36201,10.628964 M 73.029896,47.36338 v 3.671566 m 19.423335,-1.58278 c 1.917869,1.940927 4.576588,0.419213 5.101098,1.845034 m 66.494441,0.253005 c 0.5961,-1.729308 1.46941,-2.340362 3.14705,-2.360293 m -52.71319,0.524508 -1.83579,5.507349 m -16.784297,-5.245093 0.262254,-2.884802 m 6.556373,3.671566 0.5245,0.786765 m 22.0294,-0.786765 c 0.64934,1.446334 0.94386,3.865634 2.09804,5.507349 0.78204,-0.577485 2.15857,-3.98731 2.6503,-5.256361 m -27.30224,0.535777 c -1.15891,1.029874 -2.51424,1.550712 -4.196081,1.835782 m 92.838171,-1.573528 c 0,1.400965 -0.2376,4.225971 0.52452,6.031859 m -39.07596,-5.245095 -2.84982,4.80385 m 5.47236,-4.27934 c -2.62254,-0.52451 -1.92158,-0.52451 -2.62254,-0.52451 l 4.42535,-8.161684 3.70454,10.259722 c -1.45341,-0.258059 -3.22468,-1.05033 -5.50735,-1.573528 m 47.46811,-0.262256 v 0.262256 m -59.26957,0 c 1.81155,1.666326 2.49484,5.11599 1.72538,6.818623 -0.39627,0.825316 -1.1235,2.369208 -1.46312,2.098036 m 20.19361,-10.490187 c -1.46555,2.313086 -1.13325,10.554731 -0.79602,12.004999 m 43.80579,-9.382453 -0.26225,3.409311 m -45.89458,-2.884801 c -0.18436,1.162576 0.70672,3.644292 0.10901,4.196075 m -122.057449,-0.262254 0.262254,2.360292 m -25.963218,0.786764 c -1.223855,-1.229498 -2.44771,-0.933971 -3.6715646,0 m 3.6715646,-0.52451 v 0.52451 -0.52451 m 25.963218,-0.262254 v 1.311274 m -29.8970367,0 c -0.9918479,1.504293 -0.8360686,2.647723 0.7880737,3.615705 1.909477,1.138448 4.013284,2.005462 5.73997,3.429768 0.747162,0.616298 0.954607,1.369232 1.514257,2.029065 0.461044,0.543654 0.42564,-2.447361 0.612103,-2.51817 m 98.870028,-5.507349 c 0.006,2.293679 0.62521,5.094036 0.78676,6.294113 -1.75343,0.100706 -2.5103,0.640164 -3.82105,-0.456849 -0.54654,-0.457633 -0.69707,-1.243349 -0.84419,-1.903444 -0.47206,-2.115608 -1.9441,-3.823148 -0.8421,-4.720585 m -47.730363,0.262255 0.392334,3.147056 0.323622,2.360293 -0.191446,5.507349 m -25.700962,-10.752442 0.262256,1.049018 -0.262256,-1.835783 m 0.262256,1.835783 c 0.721643,0.754763 1.293486,0.80455 0.524508,1.573528 l -0.262254,-0.786764 m 59.794075,0.262254 c 2.26011,-2.117444 5.26817,0.642263 7.34313,1.835784 0.23892,-0.717005 0.22318,-0.362698 -0.26225,-0.52451 m -3.67157,-1.573528 0.78676,0.262254 m -48.779372,0.786764 2.884802,-0.524508 m 93.62493,1.311272 c 1.07371,-1.088087 2.12865,-2.279364 3.67157,-0.786764 M 40.002289,65.711959 c 0.223441,0.532114 1.496164,1.846536 1.51662,3.409311 0.01206,0.919204 -0.392857,1.319403 -0.994209,2.073648 -0.730117,0.915269 -2.502171,2.357671 -3.93041,2.004675 -1.154708,-0.285333 -1.767859,-1.233384 -1.451843,-2.242539 0.357499,-4.833195 5.017467,-2.524268 5.382253,0.237864 m 114.60741,-5.482959 1.35753,3.429829 M 64.391977,65.974213 v 0.52451 m 0.715956,1.835783 5.380666,-5.799375 m 27.471982,4.225846 0.524508,-0.262254 m 67.923971,0.52451 -3.93382,6.031857 M 50.989232,66.941981 c -0.307625,1.127433 -0.01709,1.227829 0.111677,2.703799 0.05717,0.654062 2.055154,2.907005 1.888622,3.464821 m 92.963659,-6.087368 c -0.44242,1.708065 -0.30893,1.414077 0.0393,2.884801 0.15054,0.636492 0.20299,1.185392 0.24416,1.835784 0.043,0.682125 0.17309,1.232596 -0.20298,1.796969 -0.40493,0.607644 -0.995,0.771291 -1.65404,0.799876 -0.67767,0.02937 -1.13006,-0.07868 -1.83579,-0.207442 -2.68401,0.452858 -2.05493,-4.565467 -2.26054,-6.099991 m 20.35612,-0.747743 5.76964,-0.262254 M 17.972892,68.859016 c 0.784667,-1.623095 2.063804,-1.032638 3.337313,-0.334254 m 33.116094,-1.239275 c 3.153874,0.285857 7.853742,3.214193 6.556368,6.294113 M 27.938573,69.357784 c -0.194331,1.767598 -0.253077,2.00288 0.52451,3.697306 m 18.095575,-5.507349 c 0.427475,0.959591 0.657735,2.02723 1.478591,3.143123 0.987651,1.34222 3.292235,1.675509 3.06366,-1.045084 m -20.01528,-0.786764 c 0.554407,-1.041151 1.024892,1.729046 1.311274,2.360292 l -0.52451,-0.262254 m 136.110197,3.933821 c -0.84834,-7.084519 5.38367,-8.355838 7.60539,-5.245095 M 65.107933,68.334506 c 1.350349,0.643048 2.849659,2.721155 4.11504,4.196076 0.803809,0.937298 1.447646,1.660596 2.249882,2.360293 m 26.22547,-6.031859 c 0,1.528421 -0.293463,2.395958 0.194595,3.671566 0.743492,1.942521 3.28238,3.303359 5.31275,2.717484 1.35639,-0.391547 2.50034,-2.378652 3.40932,-2.192976 m 1.04902,-3.93382 -1.04902,3.147056 M 24.004752,70.17029 23.480241,71.219308 c -0.193019,-0.71648 -0.385251,-1.36215 0.786765,-1.573528 l -0.262254,-0.262254 m 7.080877,-0.52451 -2.622546,4.196074 m 85.232777,-3.671564 c -0.19616,1.620734 0.15919,2.88349 0.26226,5.245093 m 21.23337,-7.516899 c 0.60608,0.836068 0.9817,4.032059 0.36231,4.760602 -0.44374,0.52215 -1.03932,0.621806 -1.66427,0.809055 -0.64803,0.19407 -2.74843,1.06869 -3.51343,0.584043 -0.97323,-0.616823 -0.14888,-3.77407 -0.14888,-4.905173 m 9.95642,1.547787 V 70.17029 M 41.518909,69.12127 c 0.500907,1.513209 2.440592,4.93511 4.515289,5.245095 m 71.857792,-4.196075 0.26225,4.196075 m -4.19607,-3.409311 -0.26226,1.049018 m 37.76463,-5.245095 c -2.23824,0.669542 -1.63888,5.444747 1.57358,5.991209 1.43611,1.136088 3.2155,1.921278 2.8848,4.236725 M 23.480241,71.219308 c 0.09704,1.136349 0.364273,1.290555 0.786765,1.835782 m 7.867641,-1.573528 1.311275,3.147057 M 90.09294,71.481562 c 0.619706,1.292917 3.485888,7.434921 -0.262256,7.605387 M 16.923874,71.743818 16.13711,73.5796 v -0.786764 m 1.223679,-1.41565 c 1.740584,1.00365 4.195552,1.329631 5.594944,0.628886 m 53.57196,-0.905022 c 0.710448,1.310488 2.37038,3.498984 3.861821,3.003061 M 28.463083,73.05509 v 0.52451 m 134.012157,-0.52451 -1.57353,3.409313 M 15.874856,73.5796 c -1.596345,1.15261 -3.433703,1.067378 -5.245095,0.262255 m 124.924039,-1.969533 1.48273,7.476882 -0.52451,-0.524509 m -81.036702,-3.93382 c 1.198241,0 2.375766,-0.21636 4.196074,-0.52451 m 86.362278,-0.825578 c 0.37188,1.562513 -0.0102,4.163031 0.44403,6.070673 m 21.50489,-4.720585 c 4.35524,4.236996 9.37323,0.190438 7.60539,-5.245095 m -94.040441,1.933521 -5.3541,10.916959 m 74.849581,-4.539581 c 1.70469,0.788846 3.407,1.544424 4.8759,-0.967768 m -87.330866,19.93136 c -1.388902,-1.748977 -2.379175,-3.743163 -2.577703,-5.769603 -0.07238,-0.740345 -0.241536,-1.731145 0.255175,-2.569574 0.571978,-0.965883 1.545728,-0.595842 2.322528,-0.111721 1.312323,0.817974 3.025631,2.10381 3.633013,3.478287 0.520838,1.179096 0.239702,2.405661 -0.562273,3.41744 -0.859933,1.085211 -2.065781,0.991322 -2.995474,1.726424 -0.178749,1.836046 0.05194,6.662036 -0.06602,8.034666 M 83.274317,89.314883 c 0.928643,3.606527 1.800641,9.060376 1.835782,13.374987 M 83.536571,91.150668 c 0.231308,0.975062 0.200363,0.737198 0.52451,1.311272 m -11.539206,1.311274 -0.52451,0.52451 m -53.499963,0.786764 c 1.161264,0.05245 1.85991,0.781257 2.454443,1.684986 0.394692,0.600039 0.453962,1.059771 0.444258,1.724587 -0.01599,1.121664 -0.961163,2.609959 -2.112985,2.975539 -1.005485,0.31917 -1.989204,0.22161 -2.883754,-0.24101 -0.763685,-0.39469 -1.430861,-1.259083 -2.358981,-1.290554 -1.798281,-0.06111 -2.097251,2.722724 -3.935132,3.111914 -1.5226507,0.32231 -3.0298272,-1.48148 -3.8082005,-2.45811 -1.3575932,-1.373522 0.6800967,-4.60967 1.0879149,-4.722603 M 89.04392,94.822232 89.830684,95.084488 M 38.34143,99.193232 c 0.03514,0.398628 0.40361,-0.225801 0.349587,-0.174923 M 145.95319,96.395761 c -0.14633,-0.685008 1.27089,-0.997092 1.94357,-0.197478 0.86282,1.025153 0.73825,2.682866 1.46574,3.869047 l 1.83579,-2.098041 M 94.551269,95.871252 c 1.030661,-0.04144 1.934653,-0.162073 2.884802,0.0354 0.525559,0.10936 1.499834,0.167842 1.750025,0.833706 0.517168,1.376314 -1.670562,2.967413 -2.536789,4.113722 m 57.696033,-3.409299 -1.04901,-1.311274 c -0.84997,0.691304 -1.16835,0.946215 -2.09804,1.835782 M 20.857694,96.658017 v 0.524508 M 89.04392,94.822232 c -0.747359,-0.370849 -3.294463,1.809863 -0.495662,4.123956 1.097536,0.676617 3.497954,0.824268 4.081471,2.224972 0.744541,1.78779 -2.796946,2.04244 -3.848063,2.04322 m 33.352604,-8.744904 c -0.23685,0.0867 -2.08686,0.385343 -2.62843,0.718241 -1.14808,0.705721 -2.51676,1.972093 -2.13841,3.830592 m 10.59718,-0.624265 c -1.71105,-3.376483 7.47417,-0.432832 5.1381,-1.211519 m -119.850403,-1.357532 0.786764,3.717824 m 29.110274,1.835783 c 0.404922,0.27432 0.268812,0.17335 0.524511,0 -0.840003,-0.99998 -1.058198,-1.34825 -0.972703,-2.879819 0.06452,-1.159427 0.475468,-1.23653 1.497213,-1.316256 m 11.539206,1.04902 c 0.846558,-1.531307 2.484601,-0.534477 3.147056,0.786764 m 95.460712,-1.573528 c 0.67635,2.195331 0.74743,4.087239 2.3603,4.720589 M 79.340496,98.231545 c -0.08471,1.937795 -0.37686,2.855165 -2.360292,3.814755 -1.842339,0.8914 -3.53598,-0.45685 -3.671565,-2.241227 m 59.794071,-2.622548 c 1.83646,0.978815 1.59383,2.789265 1.04902,4.720585 m -95.985223,-3.409311 0.262254,0.262254 m 103.590609,1.835787 c 0.43508,-0.905307 3.16357,-3.740279 3.93382,-4.196079 m -121.686184,2.360292 0.786764,3.147057 m 109.09796,0 c -1.06921,0.9908 -2.89005,2.11613 -4.45833,1.69626 -2.88034,-0.77076 -5.29568,-5.141169 -1.72879,-5.205326 m -10.59718,0.624265 -0.26226,2.884801 M 30.561119,99.280563 c 0.256749,0.834497 0.744279,1.408047 0.713072,2.349807 -0.115654,3.5066 -5.142554,1.59686 -5.958165,1.0595 m -1.04902,-3.147053 v 0.786763 m 25.176453,0.26226 0.52451,-0.52451 c -0.478091,1.67266 -0.08576,3.16489 -1.837095,4.26373 -1.901609,1.193 -3.882681,-0.77653 -4.719273,-2.16569 m 15.473027,-2.360297 v 0.262257 m 0,0.52451 c -0.88065,1.73691 -2.490108,4.81998 -4.982839,4.82732 -1.502194,0.004 -3.340077,-4.25718 -4.45833,-4.82732 M 38.34143,99.193232 c -0.705728,1.465738 -1.843912,5.348418 -4.112678,6.144888 -1.661907,0.58352 -2.830777,-2.59736 -2.954561,-3.70775 m 47.804051,-0.77628 0.786764,1.31128 c -0.462927,0.0744 -0.400242,-0.39845 -0.52451,-0.52451 m 62.678874,-1.04902 -0.98627,2.8313 m -61.168094,-1.25777 0.786764,0.78676 m 15.997537,-2.09805 -0.262254,1.31129 m 0,0 3.671567,0.33725 4.72058,-0.075 m 12.32597,-0.52451 c 1.77599,2.81374 4.10377,2.59711 6.81863,2.36029 m -12.32597,-1.31127 -0.26226,0.78676 m -47.205847,1.04902 v 0.26226 m 448.717797,45.63232 c 3.75273,16.01417 2.98468,27.42854 1.57362,42.48526 M 396.40649,152.25602 c 0.042,2.07312 0.12851,4.1431 0.30683,6.03186 0.17834,1.87774 0.20981,3.24225 0.21768,4.98283 -0.0134,3.96787 0.12555,8.00799 -0.21768,11.53921 -0.23842,2.77764 -0.3125,5.75164 -0.68184,8.39216 -0.50879,3.50844 -1.70728,9.09472 -0.67401,12.58823 m 219.76939,-43.00979 0.26227,1.04902 m -254.12482,-0.52451 c 1.27979,2.12532 1.50008,1.4647 1.73875,3.67157 0.42094,1.72811 0.93223,3.48313 1.53419,4.98284 2.47124,4.51002 7.69774,13.94515 11.15106,14.94853 m 72.16459,-13.11275 c 1.81263,-8.91729 5.03397,-14.34763 11.49466,-7.86764 m 156.30381,-0.78676 0.54812,6.81862 0.47729,11.80146 -0.61367,7.08089 -0.0682,2.28108 2.27899,1.65274 m -247.83071,17.30881 c 3.49894,-5.73787 4.9661,-13.13904 6.35969,-19.14461 1.03781,-4.91379 1.28377,-9.48087 1.50795,-14.16175 0.008,-1.54048 -0.0813,-2.92623 0.0236,-4.45833 0.30777,-1.63531 0.15535,-3.31906 0.28323,-4.72058 0.15212,-1.58743 0.20719,-2.74424 1.52896,-3.93382 m 22.29164,1.04902 -0.26225,5.50735 v 5.50735 c -0.10771,2.10353 -0.29141,4.19908 -0.50091,6.29411 -0.44145,4.86917 -1.03907,10.39118 -1.70466,14.424 l -0.15472,6.03187 m 137.68373,-37.24017 c 1.1539,0.8122 2.17147,1.01335 3.4093,1.50272 1.69416,0.66927 3.05003,1.14369 4.72059,1.48672 3.44341,0.70651 6.399,1.34668 9.44117,1.73114 m -107.21761,1.83578 c -0.39599,1.49276 -0.68184,3.98995 -0.22029,5.50735 0.25963,0.84263 0.92838,1.75816 1.44241,2.62255 1.36111,2.27847 3.44078,4.18375 5.55192,6.03186 0.78677,0.68921 1.3244,0.90818 2.09805,1.57353 0.9782,0.84341 4.63665,4.04633 3.93382,3.67157 m 111.45826,-22.0294 c -1.02543,1.41093 -1.04903,2.69755 -1.04903,4.45833 -0.003,3.53808 0.48256,6.9723 0.52451,10.49019 0.0262,2.48697 -0.0918,4.30307 -0.52451,5.7696 l 2.36029,0.78677 m -28.84801,-19.66911 c -0.94675,1.92862 0.0918,4.33219 0.48255,7.60539 0.32782,2.73033 0.5822,5.52624 0.19144,8.39214 -0.42486,3.12059 -0.94149,7.18867 -1.72302,9.96569 m -46.68133,-17.04656 c -1.54467,-2.19035 -1.93019,-3.97054 0,-4.98284 m 130.60285,4.19608 -0.26225,1.83578 m -16.52205,7.86765 c 1.98788,1.04089 3.31751,1.70256 4.98283,2.09802 m -48.51712,-1.83577 c 1.84366,0.47703 2.85859,0.58403 3.93382,0.78676 m -180.95576,2.36029 c -2.01435,0.0106 -5.6275,5.83586 -8.3869,5.93797 -1.58401,-0.0189 -1.13556,-1.5549 -0.68972,-2.52866 1.1067,-2.42217 2.15835,-3.606 4.35604,-4.8719 1.3716,-0.79017 1.49224,-0.72068 3.14706,-1.15995 m 183.05379,0.5245 c -0.88904,1.66611 -0.49304,2.95694 -0.89429,5.50735 -0.31471,2.00495 -0.61104,3.52077 -1.466,5.50735 m 7.08088,-4.98283 c 0.0734,-1.71017 0.0865,-3.09252 2.12426,-4.89289 0.68187,-0.6003 2.82187,-1.79776 3.61386,-0.4794 0.59271,0.98869 -0.64514,2.35058 -1.29029,2.98839 -0.87854,0.86491 -3.54044,1.91892 -4.01511,3.03901 -0.49305,1.15733 0.85232,2.52866 1.67055,3.09539 0.97036,0.67504 1.85415,0.86727 2.87956,0.97008 m -192.75721,-11.27695 1.57352,2.62254 m 14.94852,0.52452 c 1.64698,-1.7204 4.50293,-0.0546 5.80896,1.88062 0.73169,1.08548 0.65038,2.38258 0.52975,3.62673 -0.0656,0.67634 -0.021,1.21213 -0.29111,1.83578 -0.43533,1.00758 -1.20375,1.78097 -2.11378,2.41168 -2.4442,1.69444 -4.76779,-0.13347 -5.13231,-2.67393 -0.30423,-2.11038 -0.0682,-4.44286 1.98526,-5.50735 m 178.85772,4.72058 c -0.55598,0.40334 -0.46682,0.44085 -0.26226,1.04902 0.56385,-1.46339 1.73088,-4.22231 2.51503,-5.7696 1.16179,-2.28661 3.34636,-2.83341 5.09036,-2.09805 m -131.38961,-1.04901 2.88481,2.62254 m 152.10772,-1.83577 c -0.0761,1.79093 -1.42665,9.06403 -1.82267,12.58822 -0.16259,1.44633 -0.44582,2.33354 -0.79987,3.67156 M 417.9113,184.51334 c 0.2806,0.86021 0.20717,0.68055 0,1.31128 v -1.31128 m 137.15921,8.12991 c 0.14686,-0.64174 0.46419,-2.02985 0.77889,-2.52421 0.50092,-0.78362 0.7553,-0.72147 1.39519,-1.68315 0.78676,-1.1791 3.50374,-5.03318 5.35786,-3.31359 1.10147,1.02175 1.00445,4.36131 1.16442,5.68516 0.10491,0.88013 0.20194,1.46365 0.22029,2.36029 m -131.1562,-7.30196 c 2.1485,1.96614 0.61049,4.39697 1.34012,6.51519 0.2911,-0.84785 0.3016,-0.97899 0.52451,-1.83577 m -16.78429,-4.72059 c 0.31732,2.4492 0.71332,4.62146 1.15916,7.08088 0.29371,1.61051 0.63989,4.15071 2.01673,5.1331 2.16624,1.5481 4.0466,-4.38986 4.42948,-5.65762 1.08312,1.74505 3.55881,4.68597 6.2915,2.95247 1.09622,-0.69654 1.66007,-1.89978 2.36291,-2.95247 m 38.02694,-5.83332 c 0.65302,-0.10936 1.23784,0.14215 1.83578,0.32519 3.68997,0.79468 6.90993,2.6111 4.89629,6.2936 -0.81824,1.31519 -2.34456,2.19769 -3.84728,2.52158 -2.27898,0.4912 -5.26081,-0.84027 -5.70927,-3.30705 -0.23341,-1.28818 0.0734,-2.49168 0.6635,-3.67155 0.49566,-0.98766 1.02279,-1.97059 2.16098,-2.16177 m 175.44841,0.85049 c 3.26768,-1.93597 3.95371,0.33671 2.23857,3.2876 l -5.6479,2.21976 c 0,1.0734 -0.10751,1.92049 0.3829,2.88375 0.73169,1.44503 2.70385,2.50977 4.33769,2.56119 2.22131,0.0695 4.59734,-0.61002 6.03186,-0.72436 M 486.09751,187.39815 c -0.36978,-0.35064 1.27456,-0.7823 2.62256,-0.78676 m 67.1372,0 c -0.1285,1.62913 -0.24651,2.07286 -0.26225,2.88481 m 43.00976,0.26224 c -0.0892,0.33359 -0.22029,0.9415 -0.65824,1.38471 -0.59533,0.60004 -0.98871,0.78493 -1.70205,1.24466 -1.16964,0.75372 -3.98103,1.82504 -4.82023,-0.3176 -0.58484,-1.48802 0.24126,-2.28502 0.73956,-3.35974 0.49828,-1.07367 1.10147,-1.67948 1.98264,-1.92285 0.93625,-0.25806 1.59975,0.24888 2.09803,1.13505 m 13.11274,7.60537 c -0.95198,0.22686 -1.62598,0.25176 -2.62254,0.37267 -3.23624,0.39128 -5.06153,-1.83133 -4.08069,-4.83099 0.64515,-1.97112 2.01673,-4.17799 3.81842,-4.45833 m 26.22549,0 c -1.52632,3.15545 -1.59452,8.97121 0,11.53921 0.88117,-0.57329 4.56846,-3.97552 3.93382,-5.50735 m -173.08811,-6.81863 c 1.95117,1.78151 5.09559,6.2275 2.35504,8.56812 -1.08835,0.92891 -2.37341,1.26407 -3.66632,1.66926 -0.88905,0.27877 -1.4293,0.24494 -2.3603,0.2696 -0.76841,0.0205 -1.32963,0.17754 -2.09804,0.22108 -2.34717,0.13269 -4.70747,-0.61552 -6.81861,-1.54914 m 52.7132,-7.86764 -0.78677,0.26225 2.62254,-0.52452 m -19.93135,0.52452 c -1.38995,1.59503 -3.6165,4.32431 -3.40407,6.55636 0.17047,1.79593 1.4765,2.21108 2.87956,2.60419 2.279,0.63781 4.11739,0.0525 5.76959,0.0183 m 11.80147,-8.6544 c -0.62678,1.3409 -1.43978,3.39278 0.52976,4.51077 0.58221,0.33097 1.35585,0.76133 2.07706,0.54863 0.86019,-0.25334 1.06213,-1.10933 1.27979,-1.91235 0.25177,-0.92472 0.44059,-2.04375 0.30947,-2.8848 m 130.07834,4.19614 c 0.77628,-1.09857 1.81217,-3.97341 2.8848,-4.19606 m -259.36991,1.83577 c -1.05165,1.71542 -1.32177,5.46357 1.57352,6.65445 1.605,0.6601 2.79827,0.20352 3.93383,0.16418 m 39.3382,-6.81863 0.26225,2.36029 m 81.56122,-2.36029 c 1.25883,2.26037 1.71515,3.79563 3.93382,4.98285 m 26.22547,-3.40932 c 0.93625,-0.23078 3.59551,-0.67137 4.72058,-0.77654 1.05165,-0.0981 1.86202,-0.0815 2.88481,-0.13847 1.85938,-0.10357 2.8035,0.33438 4.19607,0.65276 m 52.97547,0 0.26224,0.26225 m -3.93382,0 c -0.14161,1.30001 -0.28848,2.82869 0.78677,4.45834 m 45.37007,-4.19607 3.14706,-4.45835 m -24.91421,7.86765 c -0.24128,1.27588 -0.32257,1.81271 -0.52451,2.88481 m -219.76945,40.38722 c 0.1521,-3.17749 0.0813,-5.55403 -0.68973,-8.65441 -0.45369,-1.83054 -1.20899,-4.51917 -1.70728,-6.29411 -0.22291,-0.79096 -0.5114,-2.04795 -0.57434,-2.88481 -0.13111,-1.71855 -0.28847,-2.28476 -0.1285,-4.45832 0.1285,-1.70413 0.25702,-3.35818 1.20375,-4.7101 1.85676,-2.65429 5.02742,-2.17672 7.06253,0.014 1.4214,1.53129 2.62515,3.75207 2.69073,5.7452 0.0236,0.76842 -0.042,1.31522 -0.30422,2.09805 -0.50092,1.49851 -2.63828,2.96846 -2.17409,4.41007 0.43009,1.33514 2.85332,2.4526 3.77384,3.45861 1.04903,1.15208 1.88823,2.80664 1.84889,4.45728 -0.0551,2.16466 -1.83316,3.8979 -3.65845,4.86719 -0.7684,0.40702 -1.68104,0.93598 -2.36029,0.64016 m -42.223,2.88474 c 0.11276,-0.89848 0.23603,-1.47937 0.25963,-2.36029 0.0656,-2.74344 -0.46157,-6.91198 -0.73956,-9.70342 -0.12588,-1.26014 -0.2675,-2.26326 -0.56647,-3.40932 -0.32257,-1.24492 -0.57697,-2.31911 -0.42485,-3.4093 0.16522,-1.19956 0.49303,-1.13688 0.65038,-2.09805 0.0761,-0.4647 0.17309,-1.35217 0.30161,-1.83578 0.37239,-1.41041 0.86018,-3.44838 2.61728,-3.62147 1.2772,-0.12563 2.47044,0.80197 3.40933,1.60238 2.05868,1.75474 4.92514,5.1158 3.64795,8.0499 -0.81037,1.86176 -2.42585,2.33905 -4.17247,2.6236 l 1.04901,0.26225 m 101.23033,-9.96567 1.04901,1.57353 v -1.04903 m 0.26227,0.78676 c 3.03691,0.52269 6.6193,2.16152 8.91665,2.88481 m -9.17892,-2.62254 c -0.90739,1.10226 -1.79905,2.40461 -2.36029,3.67155 l 0.52452,-0.52449 m -6.03187,-2.3603 0.26227,2.09803 -0.52452,-0.5245 m 22.81616,-1.04903 0.21768,3.67157 -0.71334,6.29412 -1.34011,2.62254 m -58.48282,0 c -0.12324,1.19981 -0.52188,2.11509 -1.14081,3.1468 -1.87249,3.11427 -5.2582,3.15939 -7.34574,0.26225 -1.82529,-2.53311 -2.18984,-6.16403 -1.98003,-9.17865 0.0865,-1.23941 0.31996,-2.82448 0.83136,-3.93382 0.83397,-1.8038 1.88298,-3.02432 3.67942,-1.72433 0.84184,0.61131 1.47388,0.90688 2.27375,1.58482 1.82267,1.54467 2.98183,3.29076 3.89448,5.64686 0.47993,1.23732 0.31209,2.10406 0.31209,3.14705 m 6.03186,-8.91665 c 0.98608,1.49354 1.36372,2.643 2.3603,3.93382 0.48254,-0.48335 1.13555,-0.97507 1.88823,-2.09804 0.69497,-1.03749 0.97559,-1.90372 2.05607,-2.63041 m -61.37809,-0.51665 c 0.21505,1.04482 0.5245,0.8712 1.57353,0.81719 0.73956,-0.038 1.16441,-0.0887 1.83578,-0.009 0.83397,0.0999 1.25882,0.5232 1.57353,0.76499 m -0.26225,-1.04901 c 1.81479,1.1387 4.53438,2.80035 4.90677,5.76959 0.40912,3.28893 -0.99655,6.96548 -3.15754,9.43069 -1.42404,1.62597 -3.63485,2.92072 -5.68305,1.78647 -5.20576,-2.88296 -3.12346,-13.77493 -1.04903,-16.7245 m 86.54405,-0.26225 1.04903,15.73528 m -82.08573,-15.47303 -0.5245,0.52451 m 86.8063,0 c -0.27798,1.02095 -1.44239,3.50791 -1.83577,4.19607 m -61.62987,-3.14706 -0.26225,1.04902 m 31.20831,-0.5245 v 0.26225 m -67.13722,2.09804 0.52452,-0.26227 m 65.03918,0.26227 -1.29293,2.62254 c -0.87907,1.79704 -1.90456,3.51343 -2.90316,5.2451 m -66.61269,-6.81863 c 1.17751,0 2.4311,-0.10725 4.19607,-0.78676 m 99.13228,0.26225 c 0.49567,2.11797 6.13151,2.81583 6.29412,1.83579 M 436.5314,226.9986 c 1.39782,1.98633 1.73613,4.00778 2.62256,6.29412 m 36.71565,-4.72059 c 2.10066,0.0175 5.25296,1.08129 5.10086,3.67157 -0.0865,1.4361 -1.58403,2.58452 -2.74057,3.27347 -2.09803,1.25017 -3.51159,1.57379 -5.7696,0.66035 m 14.16176,-5.2451 0.52451,0.52452 m -0.52451,0.52451 c -0.16523,0.84761 -0.21768,1.17358 -0.52452,2.3603 m -53.76221,-0.52452 c 0.18096,0.53972 -0.27275,0.52818 0.52452,0.26225 m -30.15931,3.40932 c 1.32176,0.24547 1.98003,-0.0102 4.45834,0.26225 m -0.52452,0.26225 h 0.26227 m 16.52205,10.22793 c 0.35943,3.10817 0.58411,6.55988 0.79463,9.34415 2.01394,0.48847 3.438,-1.39915 4.97496,-2.52552 m -61.60625,9.44117 c 0.61282,-0.21971 0.24207,-8.15936 -0.18093,-11.53921 -0.14949,-1.39781 1.53419,-4.13313 3.30177,-3.83416 1.6968,0.28585 2.55437,2.97397 3.06577,4.35867 0.48779,1.31652 0.92313,2.59894 1.2693,3.93383 0.26489,1.00967 0.49566,1.88298 0.67139,2.8848 0.47729,2.71696 -0.139,4.12001 0.50353,6.81861 m 72.12003,-15.47301 c 0.14425,1.12244 0.44584,3.33063 0.83922,4.44783 0.50878,1.4529 1.01231,1.59452 1.52894,2.89529 0.81824,2.06394 1.68106,4.98284 2.61469,7.08088 0.27274,0.60843 0.74218,1.71515 1.52633,1.59452 0.97033,-0.14949 1.26669,-1.96168 1.47124,-2.64353 0.24913,-0.8261 0.40649,-1.47125 0.61105,-2.36029 0.55073,-2.3839 0.38028,-9.45673 0.0629,-11.164 m 11.01468,17.98261 c 1.40044,-1.74662 2.60419,-5.06151 3.349,-8.12989 0.36191,-1.48699 1.19588,-3.77122 1.39783,-5.2451 0.14685,-1.0595 -0.0708,-1.61287 0.76052,-2.09803 m 22.29167,0.78676 c -0.39894,1.4827 -0.78184,2.96938 -1.15655,4.45832 l 0.71071,2.03772 c 1.67015,1.16017 3.50012,0.62417 5.16642,0.36191 l 1.86463,-0.67661 0.49566,-3.55879 m -14.16175,-2.3603 c 1.01754,4.27738 -0.59533,11.84342 0.78676,16.52205 m -25.66957,-17.52086 c 0.72905,1.92495 5.04323,7.48962 6.00047,9.39097 m 45.1078,4.72059 0.26225,0.52449 c 0.45371,-1.63647 0.13114,-3.41979 -2.09802,-4.33243 -2.44422,-0.99919 -6.28363,-0.44846 -6.53014,-3.79746 -0.0682,-0.93625 0.25963,-2.12951 0.8628,-2.87955 0.50353,-0.62416 1.03853,-1.19589 1.99577,-1.30342 1.09098,-0.12063 1.77808,0.38815 2.09804,0.24915 m 18.09558,-0.52451 c 1.1172,0.18882 3.5719,0.90477 4.98283,0.93363 0.60842,0.0132 1.48698,-0.0682 1.67842,0.67923 0.37765,1.46863 -2.90052,3.21787 -3.77647,4.15675 m -20.45586,-4.98285 5.2451,1.31128 m -67.92397,-1.04901 c -1.35848,2.55698 0.0839,9.23397 -1.31128,13.63724 m 75.19208,-13.57449 c -0.61106,3.75811 -0.24494,12.9741 -1.76077,16.39652 m -97.55876,-15.41026 c -0.41698,1.97739 -0.73692,3.41981 -0.26225,5.2451 l 0.26225,-1.04903 m -42.22299,-2.36029 c -1.4529,0.82873 -3.32802,1.95381 -2.77992,4.45833 0.46419,2.11901 2.91367,2.64615 4.35344,3.14706 m 0.26225,-7.60539 c 1.57615,2.20032 -0.41698,3.96792 -2.62254,4.19608 m 30.94605,2.09803 -0.26225,-1.57353 0.5245,1.31128 c 1.47388,-0.89166 2.48094,-5.80893 6.55638,-6.03186 m -18.35784,4.98285 c -0.0719,-1.9822 2.26359,-7.11607 6.55642,0.78674 m 96.24743,-4.72056 h 1.31128 m -1.83579,0.52449 c 0.0865,2.02724 0.17572,5.15069 0.24914,8.12991 0.021,0.87331 0.0132,1.49747 0.0132,2.3603 m -106.4754,-9.44117 c 2.11116,0.89691 1.17753,3.05526 -0.52975,4.37441 -1.50272,1.16441 -2.09805,0.0104 -3.66632,-0.042 -1.12246,-0.0367 -1.69416,1.17228 -2.88481,1.08574 -2.20036,-0.15736 -2.09808,-2.94512 -2.09808,-4.36916 m 36.97791,-1.04901 4.98283,6.29411 m 102.54159,-6.29411 c 1.74925,1.45287 6.66653,0.86805 8.57836,2.76154 0.98869,0.98345 0.60843,2.66974 0.10752,3.79482 -0.66612,1.4896 -1.82266,3.0815 -2.92677,4.18558 -0.84707,0.84709 -1.85938,1.54468 -2.8743,2.10853 m -123.52197,-12.32598 0.78676,0.52452 m -20.19362,0 c 1.8961,-0.0315 0.7422,1.3611 0.52452,2.88481 m 31.20832,-2.88481 c -0.0446,2.21606 -0.26227,3.75286 -0.26227,5.50735 m -16.25978,-3.40931 c -0.80806,5.7248 -5.21614,4.78886 -6.55642,-0.78674 m 35.14218,0.26223 c 0.41588,4.26341 5.32331,10.10937 0.78676,12.85047 m -29.37252,-12.32596 c 0.56909,0.98869 0.50876,2.70647 1.83578,3.14706 m 3.14705,-2.36029 -0.26225,1.04901 m 103.06611,1.31128 c -1.08574,0.99919 -1.72565,1.61548 -2.88481,2.30522 m -43.27203,-1.78072 c -0.37239,0.94675 -0.56909,1.22212 -0.78676,2.09804 m 38.28919,0.78676 5.7696,-1.10408 M 31.806882,14.360484 l 1.311274,0.262254 m 0,0 -3.409313,3.40931 m 2.098039,-3.671564 c -1.374108,-0.326793 -3.552325,2.546716 -2.098039,3.671564 0.618135,1.122976 2.624462,2.495689 4.414087,2.6318 m 4.019103,-6.57487 1.311274,0.262254 m 0,0 -3.409313,3.40931 m 2.098039,-3.671564 c -1.448266,-0.214917 -3.464689,2.679821 -2.098039,3.671564 0.618135,1.122976 2.352955,2.676693 4.14258,2.812804"
       id="path2389"
       sodipodi:nodetypes="cccccccccccccccccccccccccccccccccccccccccccccccccccccccccccccccccccccccccccccccccccccccccccccccccccccccccccccccccccccccccccccccccccccccccccccccccccccccccccccccccccccccccccccccccccccccccccccccccccccccccccccccccccccccccccscccccccccccccccccccccccsccccccccccccccccccccccccccccccccccccccccccccccccccccccccsccccccccccccccccccccccccccccccccccccccccccccccccssccccccccccccccccccccccccccccccccccccccccccccccccccccccccccccccccccccccccccccccccccccccccccccccccccccccccccccccccccccscccccccccccsccccccccccccccccccccccccccccccccccccccccccccccccccccccccccccccccccccccccccccccccccccccccccccccccccccccccccccccccccccccccccccccccscccccccccccccccscccccccccccsccccccccccccccccccccccscccccccccccccccsccccccccccccccscccccccccccccccccscccccccsccccccccccccccccccccccccccccscccscccccccccccccccccccscccccccccccscccccsccccccccccccccccccccccccccccccccccccccccccccccccccccccccccccccccccccccccccccccccccccccccccccccccccccccccccccccccccsccccccccccccccccccccccccccccccccccc" />
    <path
       d="m 496.0742,196.91032 c -1.54467,-2.19035 -2.29219,-12.47774 -0.362,-13.49004"
       style="fill:none;stroke:#26272a;stroke-width:0.262254"
       id="path1509"
       sodipodi:nodetypes="cc" />
  </g>
</svg>
