<?xml version="1.0" encoding="utf-8"?>
<!-- Generator: Adobe Illustrator 25.0.0, SVG Export Plug-In . SVG Version: 6.00 Build 0)  -->
<svg version="1.1" id="Layer_1" xmlns="http://www.w3.org/2000/svg" xmlns:xlink="http://www.w3.org/1999/xlink" x="0px" y="0px"
	 viewBox="0 0 2420.6 1208.2" style="enable-background:new 0 0 2420.6 1208.2;" xml:space="preserve">
<style type="text/css">
	.st0{fill:none;stroke:#64648A;stroke-width:1.3333;}
</style>
<g>
	<g>
		<g>
			<g>
				<path class="st0" d="M679.3,116.4c1.6-4.6-2.7-14.8-2.7-14.8c7.2,3.4,26.9,0,36.8-8.3c6.1,13.2,8.4,55.6,8.4,55.6"/>
				<line class="st0" x1="696.4" y1="124.2" x2="731.7" y2="121.6"/>
			</g>
			<g>
				<path class="st0" d="M404.8,110.1c-11.1-4.2-18.2,14.6-8.2,17.4s13.5-2.6,13.8-8.4C410.8,113.9,404.8,110.1,404.8,110.1z"/>
				<path class="st0" d="M409.3,114.9c0,0,5.8,12.3,12.8,13.4"/>
			</g>
			<path class="st0" d="M248,106.8c-15.3-1.9-18.7,23.1-5.2,23.7c13.6,0.6,16.3-7,15.1-14.2C256.6,109.9,248,106.8,248,106.8z"/>
			<path class="st0" d="M256.4,112.5c0,0,11,13.4,20.2,12.8"/>
			<g>
				<path class="st0" d="M84.7,91.7c-14.5-4-20.9,21.5-8,24c12.8,2.4,16.6-5.1,16.3-12.7C92.7,96,84.7,91.7,84.7,91.7z"/>
				<path class="st0" d="M91.1,97.5c0,0,8.9,15.4,17.8,16.1"/>
			</g>
			<g>
				<path class="st0" d="M570.3,117.3c-14.5-3.8-20.9,20.6-8.1,22.9c13,2.3,16.6-4.9,16.3-12.2C578.2,121.3,570.3,117.3,570.3,117.3
					z"/>
				<path class="st0" d="M576.6,122.7c0,0,8.9,14.7,17.8,15.3"/>
			</g>
			<path class="st0" d="M587.1,103.3c4.4,19.5,23.8,42.2,23.8,42.2"/>
			<path class="st0" d="M614.8,105.6c4.4,19.5,23.8,42.2,23.8,42.2"/>
			<path class="st0" d="M637.9,103.3c4.4,19.5,23.8,42.2,23.8,42.2"/>
			<path class="st0" d="M451,107.6c-13.5-4.6-29.9-2.2-11.1,6.6c18.8,8.9,28,31.5-11,23.1"/>
			<path class="st0" d="M110,100.7l23.3,24.8c0,0-30.1-31,14.5-24.5"/>
			<path class="st0" d="M153.9,85c0,0,10.8,36.9,28.2,44.1"/>
			<path class="st0" d="M183.7,85.8l20.9,45.8c0,0-21.2-66.3,26.3-0.4"/>
			<g>
				<path class="st0" d="M283,106.4c1.9,17.1,13.2,24.5,13.2,24.5s-9-31.3,10-19.7s18.9,19.6,18.9,19.6"/>
				<path class="st0" d="M306.1,111.2c0,0,15-17.8,43.7,18.8"/>
			</g>
			<path class="st0" d="M345,90.8c0,0,6.1,37.8,16.1,39c9.9,1.2,29.4-7.6,21.4-17.8s-23.7-6.3-32.1,1.4"/>
			<path class="st0" d="M501.9,103.1c0,0,6.1,37.8,16.1,39s29.4-7.6,21.4-17.8s-23.7-6.3-32.1,1.4"/>
			<g>
				<path class="st0" d="M468.5,116.1c-4.3,9.7,18.7,12.1,26.6,5.6C502.8,115.1,477.4,101,468.5,116.1z"/>
				<path class="st0" d="M468.5,116.1c0,0-7.8,25.9,26.5,19.2"/>
			</g>
			<path class="st0" d="M33.5,97.1c6.8,2.4,27.7,2.2,28.5-6.6s-7-13.9-18.6-6.7c-11.6,7.2-23.4,33.6,23.7,32"/>
		</g>
	</g>
	<g id="Layer_1_1_">
		<g id="Layer_2_1_">
		</g>
		<g>
			<g>
				<path class="st0" d="M528.6,505.5c4.3,30.6,13.2,52.1,15.8,78.4"/>
				<path class="st0" d="M518.4,544.9c16.2,0.2,29.9-1.4,43.9-1.9"/>
				<path class="st0" d="M569.8,551c-5.9,4-11,34.6,8.9,37.6c0.2-0.9,25,2.5,19.2-19C591.2,546,569.4,550.8,569.8,551z"/>
			</g>
		</g>
		<g>
			<g>
				<path class="st0" d="M674.3,552.8c-0.7,1.9,16.6,33.6,13.9,33.3c4.1-0.7-5.9-52.8,25.5-38.5c10.3,4.8,12.3,6.8,12.2,6.8"/>
				<path class="st0" d="M728.9,557.1c31.3,1.8,36.2-2.5,28.9-7.5c-5.9-5.9-39.2-2.3-26,13.6c4.5,7.5,10.8,8,19,6.6
					c7.7-1.4,17.3-4.5,16.5-4.4"/>
				<path class="st0" d="M807.3,549.6c-16.5-4-38.8-0.8-31.8,9.5c2.3,5,6.7,7.3,15.5,7.2c8-0.1,20.5-2.2,21.5-5.1"/>
				<path class="st0" d="M817.5,553.6c30.7,3.2,34.3,0.1,27.9-4.5c-3.7-4.7-41.3-2.5-23.4,8.9c5.6,5.9,11.6,7.4,19.5,7.4
					c7.3,0,16.6-1.6,15.5-1.6"/>
				<g>
					<path class="st0" d="M865.7,543c4.3,1.1-0.6,4.8-0.1,4.7"/>
					<path class="st0" d="M867.5,552.8c5.5,4.4,13.6,9.3,15.3,14.7"/>
				</g>
				<path class="st0" d="M891.6,551.7c2.3,4.8,9.9,9.6,15,13.6c5.4,4,8.3,6.9,8.6,6.9c1.8,0.3,12.7-10.7,8.5-18.9"/>
				<path class="st0" d="M939.8,558.7c31.4,9.8,40.5,5.5,34.4-4.5c-4.7-8.7-44.7-6.9-31.6,12.1c11.7,21.9,35.8,17.9,36.6,17.3"/>
			</g>
		</g>
		<g>
			<g>
				<path class="st0" d="M1386.6,536.5c-24.6-10.2-54.1-9.1-36.3-2.8c17.9,6.3,44.6,20.8,42.5,31.4c-1.8,10.3-18.5,12.4-34.2-1.5"/>
				<g>
					<path class="st0" d="M1128.3,528.9c-0.7,18.5,3.7,28.5,19.7,26.7c15.4-2.5,16-17.4,10.4-22.1"/>
					<path class="st0" d="M1161.4,539.5c1,0,7.7,12.3,27.9,9c16.4-3.5,2.1-21.6-7-25.6"/>
				</g>
				<path class="st0" d="M1216.9,534.3c31.7,4.5,38.2-0.2,29.6-6.7c-8.7-6.4-40.4-3.6-26.4,13.3c7.6,17.7,36.6,8,37.2,7.9"/>
				<path class="st0" d="M1259.5,538.8c34,6.4,42,2.1,33-5.4c-9.6-7-43.7-5.5-30.3,12.4c6.6,19.2,39.8,11.5,40.1,11.3"/>
				<path class="st0" d="M1322.1,563.1c2.1-0.7-16.2-27.2-15.1-32.1c2.2-6,40.8-1.9,30.7,8.3c-9.4,9.7-24,6.7-24,6.8"/>
				<path class="st0" d="M1088.3,504.3c-10.6,6.5-20.3,13-31.1,20.3c-0.4,0.6,67.9,1.7,53.5,24.7c-20.2,26.6-46.7,19.9-53.3,11.6"/>
			</g>
		</g>
		<g>
			<g>
				<path class="st0" d="M1500.8,510.2c-15.4-8.9-23.3-2.2-20.5,18.9c3.4,20.7-11.7,51,27.8,28.6c8.4-6,15.8-14.5,15.6-14.4"/>
				<g>
					<path class="st0" d="M1562.3,498.8c4.3,3.2,4.4,6.5,4.4,6.5"/>
					<path class="st0" d="M1571.4,522.4c-0.1,0.1,11.4,16.4,15.4,25.4"/>
				</g>
				<path class="st0" d="M1590.1,520.5c5.5,9.7,12.6,19.4,12.3,31.1c1.4-0.3-0.9-10.9-1.8-20c-0.6-9.2,0.2-17.2,16.8-15.3
					c30.7,3.5,38.5,38.9,36.7,39.6"/>
				<path class="st0" d="M1688.2,522.5c-19.8-10.3-44.1-8.4-30.1-2c14.3,6.3,36.4,21.1,34.4,32.4c-1.7,10.9-15.7,13.9-28.4-0.6"/>
				<path class="st0" d="M1536.5,520.4c5.7-2.5,18.6,4.9,23.9,7.5c6.1,3.2,8.4,8.1,7.5,13.4c-0.4,2.6-4.8,6.5-8.4,8.1
					c-14.6,6-24.4-2.1-27.2-10.5C1531.7,535.5,1532.7,522,1536.5,520.4"/>
			</g>
		</g>
		<g>
			<g>
				<path class="st0" d="M1789.5,472.7c4.4,34.6,14.8,58.4,16.3,89"/>
				<path class="st0" d="M1778.4,517.3c15.3-2.9,28.2-6.5,41.2-9.6"/>
				<path class="st0" d="M1827.9,536.4c-0.2,8,2.7,15.6,13.5,18.7c0.1-1.1,29.9,8.2,27.2-14.1c-0.7-6-3.1-10.9-6.1-14.7
					C1848.3,509.8,1828,519.6,1827.9,536.4z"/>
			</g>
		</g>
		<g>
			<g>
				<path class="st0" d="M57,712.4c-8.1-21.2-19-62.4,3-62c20.3,1.3,32.1,21.7,10.1,27.5c-22.5,6.5-22.2,3.6-22.1,3.5"/>
				<path class="st0" d="M112.6,666c-15.8-2.9-19.3,22.3-6.9,22.3c14-0.3,20.5-7.7,18.5-13.7C122.5,669.1,112.5,666,112.6,666z"/>
				<path class="st0" d="M120.9,670.3c0.6,0.2,12.4,11.5,20.9,10.7"/>
				<path class="st0" d="M137.8,667.5c6.4,6.8,12.4,12.5,9.6,20.2c1.1-0.3,2.8-7,3.1-12.7c1.1-5.8,1-10.7,16-9.4"/>
				<path class="st0" d="M170.6,645.3c1.8,15.3,35.6,23.1,34.3,35"/>
				<path class="st0" d="M160.5,660.8c14.2,0.8,32.5-4.9,32.7-4.8"/>
				<g>
					<path class="st0" d="M217.6,647.1c-3.8,2.7-0.2,6.6-0.1,6.5"/>
					<path class="st0" d="M219.8,657.5c-1.2,0.3,11,13.2,18,18.4"/>
				</g>
				<path class="st0" d="M272.9,658.7c0.1,0-23.2-2.7-28.3,1.6c-2.3,2.2,2.5,6.6,9.1,9.7c6.9,3.1,15.5,4.9,28.7,1.2"/>
				<g>
					<path class="st0" d="M282,648.7c-2,2.5,3.9,5.4,3.9,5.4"/>
					<path class="st0" d="M290.3,657.5c-1.2,0,19,12.7,33.2,17.6"/>
				</g>
				<path class="st0" d="M342.1,683.8c-6.7-11.6-37.3-25.2-15.6-27.5c19-2.6,31.4,7.7,17.1,11.4c-15.3,3.5-16.1,2.1-16.1,2.1"/>
				<g>
					<path class="st0" d="M375.8,662.5c-17.8-3.9-13.8,13.7-0.7,17.8c14.1,4,16.6-1.9,13.1-8.3C385.4,666.3,375.8,662.5,375.8,662.5
						z"/>
					<path class="st0" d="M384.4,667.4c0-0.3,15,13.6,23.9,16.1"/>
				</g>
				<path class="st0" d="M412.5,650.2c2.1,13.2,21.6,28.1,30.6,47"/>
				<path class="st0" d="M394.3,661.6c17.1,3.6,46-1.2,46.3-1.5"/>
				<g>
					<path class="st0" d="M452,671.3c-2.4,10,23.3,16,31.8,8.5C492.5,671,459.8,654.6,452,671.3z"/>
					<path class="st0" d="M452,671.3c-0.1-0.2-1.9,28.1,33.1,26.2"/>
				</g>
			</g>
		</g>
		<g>
			<g>
				<g>
					<path class="st0" d="M554.5,634.6c-2,4.1,0.3,11.1,0.3,11.1"/>
					<path class="st0" d="M555,652.6c-0.2-0.3-3.8,26.2,5.6,34.3"/>
				</g>
				<path class="st0" d="M570.4,652c2.3,11.1,5.5,20.5,5.8,32c1.6-0.8-2.6-33.4,14.5-32.5c17.9-0.9,30.6,39.4,29.9,40.1"/>
			</g>
		</g>
		<g>
			<g>
				<path class="st0" d="M689.5,624.3c2.2,26.1,13.6,43.6,11.5,66.6"/>
				<path class="st0" d="M664.8,652.1c16.9-0.3,32.5-1.1,47.6-1.6"/>
				<path class="st0" d="M724.3,626.5c0.8,23.1,14.8,38.2,14.6,61.2c2.4-1.1,0.4-19.5,3.7-29.9c3.3-10.1,11.9-12.1,35.7,27.2"/>
				<path class="st0" d="M780.5,672c7.2,5.3,14,10.2,17.9,5.5c3.5-4.5,15.1-22.3,2.7-25.7c-13-2.3-28.4,7.6-17.4,31.3
					c4.1,12.1,14.3,15.5,23,13.8"/>
			</g>
		</g>
		<g>
			<g>
				<path class="st0" d="M1390,623.2c-18.9-2.7-39.7,5.1-25.4,7.8c14.2,2.7,36.3,6.5,38.2,16.6c1.6,10.1-8.5,20-23.2,12.5"/>
				<g>
					<path class="st0" d="M922.5,646.6c-5.5,22.1-1.5,35.5,17.1,36.4c17.2-0.3,23.5-20.4,18.3-27.2"/>
					<path class="st0" d="M959.4,663.9c1.2-0.1,5,17.6,29,15.4c9-1.6,14.1-9.3,12.9-17c-0.8-7.8-7.8-15.7-12.6-18.5"/>
				</g>
				<path class="st0" d="M1012.5,654.2c25.3,7.5,31.3,0.4,23.7-8.3c-8.6-8.8-31.2-6.5-21.8,17.6c2.2,12.2,7.2,15.2,13.9,14.8
					c6.3-0.3,14.3-4,13.8-3.9"/>
				<path class="st0" d="M1065.7,653c25.2,7.4,30.4,0.3,22.4-8.3c-8.7-8.7-31.2-6.3-19.8,17.6c3.1,12.2,8.2,15.3,14.7,14.9
					c6.2-0.3,13.8-4,13.2-4"/>
				<path class="st0" d="M1309.3,637.2c35.4,7.2,45,0.5,38.2-8.1c-6-8.7-49.1-6-35.5,17.1c13.9,23.6,42.5,10.7,43,10.6"/>
				<path class="st0" d="M1121.5,687.2c0.8-0.2,4.1-11.3,0.1-22.6c-2.9-11.5-13.2-23-12-28.2c0.6-10.2,35.6-6.3,31,9.9
					c-4.8,16.4-20.8,14.5-20.3,14.4"/>
				<g>
					<path class="st0" d="M1198.8,600.4c-16.2,28.3,20.1,49.2,23.5,77.3"/>
					<path class="st0" d="M1179.6,628.2c11.2-1.5,22.6-3,34.2-4.6"/>
				</g>
				<g>
					<path class="st0" d="M1243.2,638.2c-3.4-2.2-7.4-2.9-10.7-1.4c-12.5,5.5-9.8,25.3,4.8,31.2
						C1254.1,673.4,1260.2,648.9,1243.2,638.2z"/>
					<path class="st0" d="M1249.7,644.7c0-0.1,6.8,13.8,21.8,13.8"/>
				</g>
				<g>
					<path class="st0" d="M1263.7,604.7c-10.4,20,3.1,37.4,10.6,56.9"/>
					<path class="st0" d="M1299.3,624.7c-13.1,1.5-25.8,3-38.2,4.5c-1.2,0,21.6,23.9,43.9,33.3"/>
				</g>
				<path class="st0" d="M898,623.1c-20.8,2.8-41.2,25.2-41.7,25.2c0.1,0,22.1-4.8,42.3,10.9c11.3,7.8,9.3,18.8,2.3,24.6
					c-7.5,5.7-19.8,6.1-40.9-7.7"/>
				<path class="st0" d="M1173.1,630.2c-17.6-1.2-31.7,5.3-23.6,9.2c8,4,28.5-2.8,40.1,13c11.8,16-23.9,27.5-37.5,14.8"/>
			</g>
		</g>
		<g>
			<g>
				<path class="st0" d="M1511.4,611.2c5.9,10,12.6,19,18.1,27.7c0.6,0.6-16.7-34.7,13.2-31"/>
				<path class="st0" d="M1560.1,606.2c6.5-2.3,20.1,5.6,25.9,8.3c6.7,3.4,9.5,8.1,10,13c0.2,2.3-3.1,6-6.4,7.4
					c-13.5,5.4-29.5-1.7-33.5-10.1C1554.7,621.5,1555.8,607.9,1560.1,606.2"/>
				<path class="st0" d="M1603.4,611.2c4.5,7.2,9.9,13.9,13.7,20.8c0.8,0.1-13.6-25.8,6.5-20.1c10.5,3.7,19,15.8,18.7,15.9
					c0.2,0.1-12-25.1,7.3-15.6c19.5,9.5,22.9,16.4,22.7,16.5"/>
				<path class="st0" d="M1678,604.9c6.5-1.9,19.6,5.5,25.5,8.5c6.6,3.5,9.6,8.3,10.5,13.1c0.5,2.3-2.3,5.5-5.3,6.5
					c-12.3,3.6-28.7-5-33.7-12.3C1673.1,617.7,1673.3,606.3,1678,604.9"/>
				<path class="st0" d="M1722.5,587.1c-7.6,17.7,7.1,32.3,13.9,49.8"/>
				<path class="st0" d="M1708,610.1c13.1,0.6,26.3,1.4,39.6,2.3"/>
				<g>
					<path class="st0" d="M1752.6,584.3c3.5,3,2.5,6.3,2.5,6.3"/>
					<path class="st0" d="M1754.8,607.5c-0.8,0,9.6,17.6,19.9,27.2"/>
				</g>
				<path class="st0" d="M1784.7,604.8c5.3-1.9,14.6,7.1,18.9,10.8c4.8,4.4,6.6,10.3,7.3,16.2c0.2,2.8-1.8,6.6-4,7.4
					c-8.9,3.4-22.4-8.3-26-16.9C1779.1,618.9,1780.7,606.1,1784.7,604.8"/>
				<path class="st0" d="M1813.9,601.9c3.5,12.6,11,25.6,17.6,40.1c0-0.4-8.9-27,6.1-36c13.3-9.8,29.1,17.2,43.2,44.3"/>
				<path class="st0" d="M1468.5,686.6c2-12.2-3.2-50.2-5.9-71c-0.8-6.4,4.4-11.9,10.1-10.6c7.5,1.6,17.4,4.5,25.7,9.2
					c15.4,9.8,33.4,21.3-31.7,33.8"/>
			</g>
		</g>
		<g>
			<g>
				<path class="st0" d="M103.3,760c6.6-5.6,23.1,0.7,29.9,2.5c7.9,2.5,11.6,8.3,12.9,14.9c0.7,3.3-2.4,9.3-5.7,12.4
					c-13.6,12.2-31.3,9.1-37.6-1.5C100.2,784.1,98.9,763.8,103.3,760"/>
				<path class="st0" d="M182.5,746.3c-15.5-16.6-36.3-21.3-27,9.5c10.3,28.9,20.3,40.2,20.3,40.5"/>
				<path class="st0" d="M223.4,741.7c-15-14.8-35.3-18.1-23.8,8.3c12.9,24.7,23.9,35.2,24.2,35.4"/>
				<path class="st0" d="M241.2,753.7c31.6,3.8,38.5-1.1,30.8-7.6s-40.8-3-28.1,14.4c10.9,17.4,38,6.7,38.1,6.8"/>
				<path class="st0" d="M336.3,757.4c32.4,9.6,40.2,3.9,32.6-6.4c-7.7-9.6-43.9-8.6-29.4,15.8c12.1,25.9,38.8,16.4,39.1,16"/>
				<path class="st0" d="M287.1,756.3c0.9-0.2,25.9,25.6,24.5,26.4c0.7-0.2-4.5-11.7-7.5-21.2c-2.6-9.6-3-17.6,14.5-13.8
					c11.2,3.3,13.5,5.9,13.5,5.9"/>
				<path class="st0" d="M416.6,709.4c1.6,24.4,7.9,49.5,11.8,76.2c0.8-1.2-10.5-62.5-41.6-34.7c-8,12.7-6.6,50.6,41.6,34.7"/>
				<path class="st0" d="M149.4,769c8.8-2.7,17.5-5.2,25.9-7.4"/>
				<path class="st0" d="M193.1,753.1c6.9,0.2,13.7,0.3,20.5,0.6"/>
			</g>
		</g>
		<g>
			<g>
				<path class="st0" d="M505.6,714.5c3.4,21.4,7.4,43,11.5,62.2c0.6,0,35.3,2.5,28.4-19.2c-6.2-22.5-23.7-16.9-33.7-7.3"/>
				<path class="st0" d="M548,738.8c-0.6,34.9,4.9,42.4,19.3,34.1c14.5-8,17.2-37.2,17.4-37.5c-0.6-2,21.7,60.7,16.3,82.5
					c-5.1,21-37.9-9.8-52.9-24.8"/>
			</g>
		</g>
		<g>
			<g>
				<path class="st0" d="M1294.8,722.1c0,0.4,15,14.4,5.3,23.3c-9.8,9.3-18.7,7.1-18.7,7c-5-19.6-14.7-55.6-0.7-56.3
					C1294.8,695.8,1309.4,719.9,1294.8,722.1c-14.9,2.8-20.6-2.6-20.5-2.5"/>
				<path class="st0" d="M1308.7,723.6c-0.9,16.1,10,21.1,18.4,18.4c8.6-2.7,10.6-16.4,10.6-16.5c-0.1-0.2,5.3,19.3,7.2,37.3
					c1,9.8-0.2,18.8-3.1,26.7c-2.5,6.8-12.8,1.9-16.2,1.1c-6.8-3-33.6-10.9-36.9-16.7"/>
			</g>
		</g>
		<g>
			<g>
				<path class="st0" d="M1464.9,710.1c-22.3,0.5-42.6,13.5-30.4,16.5c12.5,3,42.4,5.5,40.6,15c-2,9.5-39,13.6-32.4,0.9"/>
				<path class="st0" d="M1480.5,726.9c3.8,18.6,13.1,17.2,21.5,16.4c8.8-1,6.5-14.7,4.9-19.6"/>
				<path class="st0" d="M1508.5,710.9c2.1,12.1,11.7,21.7,18.2,30.7c0.3,0.3-18.8-15.9,0.4-15.2c18.6,1.3,27.4,12.1-0.4,15.2"/>
				<path class="st0" d="M1540.6,724c5.1,5.7,11.7,10.8,17.1,15.8c0,0.3-10.2-24.1,5.5-13.6c16.1,10.1,16.2,13.4,16,13.6"/>
				<path class="st0" d="M1565.6,727.8c0.5-0.3,3.6-16.5,36.3,8"/>
				<g>
					<path class="st0" d="M1675.5,713.4c2.8,1.6,2.4,3.4,2.4,3.4"/>
					<path class="st0" d="M1678.9,726.1c-0.5,0,6.7,9.8,13.9,15.2"/>
				</g>
				<path class="st0" d="M1618.8,712.7c-0.5,10.1,12.1,18.3,21.1,27.7"/>
				<path class="st0" d="M1611.4,724.8c7.8-0.2,15.6-0.4,23.5-0.5"/>
				<path class="st0" d="M1648.7,711.2c-2.7,10.2,8.9,18.8,18.2,28.9"/>
				<path class="st0" d="M1689.7,722.4c6,6.3,14.8,12.8,23.2,20.3c0.2-0.1-6.5-7.5-7.5-13.1c-1.4-5.6,2.9-10.2,16.8-5
					c18.7,8.8,20.5,22.1,20.4,22"/>
				<path class="st0" d="M1768.6,730.8c0.7-3.4-3.4-6.3-7.9-5.5c-13.3,2.3-25.2,11.8-9.3,16C1764.3,744.9,1767.4,736.8,1768.6,730.8
					z"/>
				<path class="st0" d="M1764.4,739.5c-0.1-0.4,9.7,24.1-1.4,33.6c-11.4,8.7-26.9-15.2-29-21.5c-2.2-7.3,55.5,1.2,56.3,2"/>
				<g>
					<path class="st0" d="M1601.3,726.6c-0.3,0.1,8.2,8.7,14.9,12.8"/>
					<path class="st0" d="M1596.6,715.3c0.1,2.1,0.8,4.1,1.8,6"/>
				</g>
				<path class="st0" d="M1642.8,723.6c6.3,0,12.7,0.1,19.2,0.1"/>
			</g>
		</g>
		<g>
			<g>
				<path class="st0" d="M268.1,851c3.3,11.9,7.5,23.2,11.3,33.7c-0.1,0.7-15-42.9,17.8-29.9"/>
				<g>
					<path class="st0" d="M308.9,860.4c12.6,1.7,30.9,1.8,22.4-6.3C323.5,845.2,308.7,849.1,308.9,860.4z"/>
					<path class="st0" d="M308.9,860.4c0.1,0.2-1.7,22.2,22.5,16.5"/>
				</g>
				<path class="st0" d="M357.3,851.7c-8.1-2.9-17.5,3-16.2,11.2c1.3,8.1,11.3,13.1,16.8,9.7C363.6,869.1,368.8,861.9,357.3,851.7z"
					/>
				<path class="st0" d="M356.6,866.4c5.1,2.4,10.1,4.7,15,7.1"/>
				<path class="st0" d="M377.3,852.3c-1.3,12.1,3.8,22.6,16.3,21.3c12.9-1.3,3.7-21,5.2-21.3"/>
				<g>
					<path class="st0" d="M408.4,859.6c12.3,2.1,30.5,3.8,22.6-4.3C424.3,847,408.1,850.3,408.4,859.6z"/>
					<path class="st0" d="M408.4,859.6c-0.3,0.1,0.7,18.3,23.2,17.4"/>
				</g>
				<path class="st0" d="M461.4,854.3c-19.1-2.8-32.5-1.6-21.5,3.7c11.1,4.2,56.2,20.4,31.6,21.6c-23.7,0.7-25.1-7-25.2-7"/>
				<path class="st0" d="M479.9,840.6c-0.4,0.1-2.4,8.5-0.6,17.5c1.4,9,6.6,19.2,11,22.8"/>
				<path class="st0" d="M465,856.6c9.7,1.9,19.8,4.2,30.1,6.9"/>
				<path class="st0" d="M508.7,890c0.1-0.1,6.5,14.2,1.1,20.8"/>
			</g>
		</g>
		<g>
			<g>
				<path class="st0" d="M596.4,826.3c-16.8,0.3-33.2,1.1-49.8,1.2"/>
				<path class="st0" d="M571.5,827c-0.7,23.3,4,39.1,3.4,61.8"/>
				<path class="st0" d="M602.3,895.6c-15.3-6.9-30.6-9.2-46.2-7.4"/>
			</g>
		</g>
		<g>
			<g>
				<path class="st0" d="M668.6,815.1c4.1,19.8,9.2,39.1,14.4,56.6c0.5-0.4-0.4-46.5,28.5-21.2c5.6,5.7,5.4,16.2,5.3,16.2"/>
				<path class="st0" d="M715.9,850.3c16.1,4.7,29.2-5.5,21.1-10.5c-7.8-5.7-42,14-2.1,22.6c0,0,10.8,1.1,14.2-4.9"/>
				<path class="st0" d="M744.8,838.6c4.2,7.7,9.1,14.8,13.7,21.9c-0.1,0.3-12.1-26.5,8.6-22.9c7.6,1.3,9.9,5.1,10,5.1"/>
				<path class="st0" d="M783.9,844.3c15.4,5.2,28.5-3.7,21.1-8.9c-8.1-5.1-41.8,10.6-2.3,21.3c0,0,10.4,2.1,13.7-3.5"/>
				<path class="st0" d="M812,820.2c1,13.8,8.3,25.8,15.3,38.9c-0.2-0.1-12-20.5,6.3-19.5c18.1,0.9,41.8,21-6.3,19.5"/>
				<path class="st0" d="M865.5,834.2c-9.4,20.8-2.1,30.4,13.2,25.3c16.2-5,20.4-26.5,20.6-26.6"/>
				<path class="st0" d="M889.9,851.9c-0.1-0.3,8.6,39-14.4,46.7c-24.1,8-20.6-6.7-10.4-23.2c10.2-16.7,40.1-8.7,40.6-8.1"/>
			</g>
		</g>
		<g>
			<g>
				<g>
					<path class="st0" d="M1000.2,808.8c8.3,20.2,24.5,34.7,29.8,49.6c2.5,0.5-15.3-30.8-33.1-5.9c-16.7,27.9,32.5,4.9,33.1,5.9"/>
				</g>
				<path class="st0" d="M1033.7,841.9c25.6,1.6,32-3.6,25.7-8.9c-6.6-5.7-31.7-1.6-24.7,15.7c3.3,17.2,28,2.8,28.9,3.1"/>
				<path class="st0" d="M1090,830.4c-8.1-3.4-19.6-1.5-17.2,9.3c2,10.8,8.1,19.1,24.4,11.7"/>
				<path class="st0" d="M1096.2,817.7c1.5,10.1,11.1,17.5,16.8,23.5c6.4,5.9,8.9,10.2,9.4,10.1"/>
				<g>
					<path class="st0" d="M1140.1,829.6c-2.6-1.6-5.7-2-8.2-1.1c-8.9,3.6-8.7,16.5,1.2,20.9C1146.4,854,1153.9,837.1,1140.1,829.6z"
						/>
					<path class="st0" d="M1145.1,834.1c0.1-0.1,4.7,9.5,16.3,10.5"/>
				</g>
				<path class="st0" d="M1195.4,844c3.2,14.7,26.3,7,26.3-1.2C1221.1,834.6,1191.3,829.2,1195.4,844z"/>
				<path class="st0" d="M1195.4,844c0.7-0.3,0.7,26,30.1,18.2"/>
				<path class="st0" d="M1151.7,829.1c8.8,7.6,18.4,16.2,25.2,26.4c1.9-1.6-31.8-32.5,0.1-25.9c14.4,2.4,17.5,7.4,17.5,7.3"/>
			</g>
		</g>
		<g>
			<g>
				<path class="st0" d="M1421.8,823.2c9.7,1,19.7,2.6,30.3,4.9"/>
				<path class="st0" d="M1319.5,792.5c2.5,21.8,13,37.1,12.5,55.6"/>
				<path class="st0" d="M1297.3,806.5c0.3,0.2,27.4,3.1,44.9-7.3"/>
				<path class="st0" d="M1350.5,798.5c2.6,15.5,12.2,26.8,14.3,40.9c2.2-0.5-16.3-36.3,16.9-17.7c14.7,11.1,13.6,16.7,13.6,16.5"/>
				<g>
					<path class="st0" d="M1415.6,819.6c-2.3-2-5.1-2.8-7.8-2c-10,3-12.2,16.7-1.9,22.5C1417.4,846.5,1426.4,829.4,1415.6,819.6z"/>
					<path class="st0" d="M1419.4,825c0,0,2.4,10.7,13.8,13.7"/>
				</g>
				<path class="st0" d="M1427.5,804.7c7.6,15.5,18.4,34.3,25.4,55.2"/>
			</g>
		</g>
		<g>
			<g>
				<path class="st0" d="M1510,802.8c17.6,0.1,35-0.1,52.7,0"/>
				<path class="st0" d="M1539,855.4c1-19.8-3.9-33-2.7-52.6"/>
				<path class="st0" d="M1509.9,859.7c17.7-5.7,36.3-5.8,53.8,0"/>
			</g>
		</g>
		<g>
			<g>
				<path class="st0" d="M1663,797.3c2.7,20.4,8.5,38.8,9.9,57c1.5,0.3-13.4-48.8,14.4-34.4c6.2,3.2,14,10,17.9,16.5
					c4.3,6.4,4.6,12.7,4.3,12.9"/>
				<g>
					<path class="st0" d="M1732.7,822.9c-2.1-2-4.8-2.8-7.5-2c-9.5,2.9-14.4,18-7,23.6C1727.8,849.6,1744.5,831.8,1732.7,822.9z"/>
					<path class="st0" d="M1736.1,828.1c0.4,0,0.8,10.4,11,12.4"/>
				</g>
				<path class="st0" d="M1755.3,820.6c3.4,10,20.4,23.7,20.1,24.1c1.2-0.2,8.7-18.5,6.9-25.9"/>
				<path class="st0" d="M1797.7,826.8c8.4,3.9,21.4,2.4,22.5-1.9c1-4.2,0.1-9.4-9.9-6.9C1800.4,820.6,1797.7,826.8,1797.7,826.8z"
					/>
				<path class="st0" d="M1797.7,826.8c-1.3,6,2.7,18.6,29.9,21.5"/>
			</g>
		</g>
		<g>
			<g>
				<g>
					<path class="st0" d="M861.1,954.7c-3.4-1.6-7.4-1.5-10.8,0.6c-13.8,8-15.7,31.6,0.2,30.3C867.2,984.2,878.6,961.8,861.1,954.7z
						"/>
					<path class="st0" d="M867.5,959.6c0.1,0.1,5.3,11.1,20.3,8"/>
				</g>
				<path class="st0" d="M953,928.3c-2.2-0.3,17.4,48,17,49.9c0.7-0.9-15.6-31.4-30-19.7c-4.1,3.1-5.4,7.9-4.6,13.2
					c1.3,10.7,11.5,19.4,34.6,6.4"/>
				<path class="st0" d="M885.9,957.7c6.1,6.6,11.9,13.2,15.4,21.1c2.8-1.2-18.7-33.9,2.7-27.2c22.9,6,27.4,30.5,26.2,31"/>
			</g>
		</g>
		<g>
			<g>
				<g>
					<path class="st0" d="M1056.6,948.8c-2.7-2.9-6.2-3.8-9.8-2.4c-13.3,5.1-21.3,30.5-5.9,35.6C1057.6,986,1069.3,962,1056.6,948.8
						z"/>
					<path class="st0" d="M1060.9,956.4c-0.1,0.1,2.5,15.1,17.6,14.4"/>
				</g>
				<path class="st0" d="M1104.6,943.5c-0.2-6-6.1-10-12.1-6.6c-17.2,9.6-25.1,35.7-3.1,33.3C1107.7,968.5,1105,954.6,1104.6,943.5z
					"/>
				<path class="st0" d="M1104.1,960.2c-1.1,0.7,23.5,19.7,6.5,37.5c-19.3,19-41.9,5-44.9-3.7c-0.5-4.7,19.5-14.5,37.9-21
					c18.7-6.6,35.6-11.1,36.1-11.1"/>
				<path class="st0" d="M1138.9,943.7c3.4,12,11.6,22.1,18.6,33c-0.8,0.1-20.8-33.7,3.2-31.1c9.8,2.4,13.9,6.5,13.9,6.5"/>
				<g>
					<path class="st0" d="M1182.2,956.9c15.6,2.7,40.4,5.4,30.5-5.5C1204,940.8,1183.1,945.3,1182.2,956.9z"/>
					<path class="st0" d="M1182.2,956.9c-0.6,0.2-1.7,22.9,28.5,22.9"/>
				</g>
				<g>
					<path class="st0" d="M1221.1,960.6c16.3,3.8,43.9,9.2,32.7-4.5C1243.3,943.4,1222.4,948.3,1221.1,960.6z"/>
					<path class="st0" d="M1221.1,960.6c-0.4,0.3-3.4,24.7,28.7,28.2"/>
				</g>
			</g>
		</g>
		<g>
			<g>
				<path class="st0" d="M1431.1,907.5c5.3,25.6,14.8,45.7,18.2,67.5c1.7-1-3.7-43.4,13.9-30.2c18.5,13.6,20.7,29.2-13.9,30.2"/>
				<g>
					<path class="st0" d="M1479.1,950.5c10.6,0.4,28.2,2.5,19-8.9C1488.6,931.2,1476.8,938.3,1479.1,950.5z"/>
					<path class="st0" d="M1479.1,950.5c0.4-0.6,7.2,29.6,27.9,27.9"/>
				</g>
			</g>
		</g>
		<g>
			<g>
				<path class="st0" d="M1621.3,944.3c-2.7-1.9-5.9-2.1-8.5-0.7c-9.3,5.5-13.2,24.7-3.4,28.6
					C1621.9,975.5,1635.8,952.6,1621.3,944.3z"/>
				<path class="st0" d="M1550.7,904.2c3.2,26.5,9.6,50.6,11.4,74.6c1.2-0.4-4.4-47.5,20-34.5c25.8,12,19.6,24.6-20,34.5"/>
				<path class="st0" d="M1631.5,933.9c2.1,20-1.9,37.7,15.2,33.9c19.8-4.6,10.6-34.8,10-34.5"/>
				<path class="st0" d="M1666.2,935.5c5.2,10.3,10.6,21.1,12.2,33.7c2.9-1.2-3.3-39.9,10.1-32.9c14.7,5.9,23.1,35.2,22.3,35.7"/>
				<path class="st0" d="M1724.5,901c4,20.8,17.4,42.7,25.3,68.9c0.7-1.1-22.1-37.9-32.2-21.7c-8.7,14.2,11.9,46.5,32.2,21.7"/>
			</g>
		</g>
		<g>
			<g>
				<g>
					<path class="st0" d="M1805.8,917.7c4.6,16.3,9.9,32.6,15.2,46.2c-0.1,0.3-9.2-22.1,4.9-24c3-0.4,6.1,0.4,8.6,1.9
						c19.6,10.9-12.8,21.7-13.4,22.2"/>
				</g>
				<path class="st0" d="M1848,933.8c-2.3,24.1,8.7,27.3,17.2,24.7c8.8-2.9,3-24.2,3.2-25"/>
				<path class="st0" d="M1869.1,936.9c-0.3-1,12.5,37.8,12,57c-0.2,9-13.2,5.6-26,2.1c-12.7-4.1-25.2-8.3-23.7-13.8"/>
			</g>
		</g>
		<g>
			<g>
				<path class="st0" d="M81.8,27.5c-11.8,2-8.6,11.5-5,16.9C80,50,96.4,47.5,98.7,41C100.2,34.6,95.9,25.6,81.8,27.5z"/>
				<path class="st0" d="M121.6,23.4c-24.7-1.7-26.2,4.2-9.2,6.5c16.6,2.4,31.1,6.3,24.4,11.8c-7.9,5.5-28.5,9.1-29.9,0.6"/>
				<path class="st0" d="M148.5,8.9c-7.6,13.6,10.1,23,6.6,35.8c1.4-0.2,0.1-7.4-0.1-12.5c0.2-5.1,1.5-8.3,15.6-1
					c10.5,5.5,14.5,12.8,14.2,12.9"/>
				<path class="st0" d="M187.8,32.3c10.1,15.5,13.8,19.2,31.2,16.9c16.5-2.4-1.4-21.8-1.1-21.2"/>
				<g>
					<path class="st0" d="M254.4,37.2c-17.7-5.3-20.3,15.5-7.2,20.9c14.7,5.5,19.1-0.9,18-8.7C264.4,42.3,254.4,37.1,254.4,37.2z"/>
					<path class="st0" d="M262.5,43.6c0.3-0.3,11.4,17.1,21,20.9"/>
				</g>
				<path class="st0" d="M27.1,11.6c17.1-0.3,34-0.7,50.9-0.9"/>
				<path class="st0" d="M50.6,11.2C48.7,13.5,79.4,44.1,66,49.4c-12.4,5.4-35.2-6.6-35.6-7.2"/>
			</g>
		</g>
		<g>
			<g>
				<path class="st0" d="M853.7,117c5,6.3,10.7,11.9,13.4,17.9c2,0-13.5-22.3,4.2-18.1c9.8,2.8,18.4,12.8,17.9,12.8
					c1.1,0.1-13.8-21,4.3-13.7c18.5,7.2,22,12.5,21.7,12.6"/>
				<g>
					<path class="st0" d="M957.7,113.9c8.7,6.9,19.8,13.6,23.7,21.3"/>
					<path class="st0" d="M949.8,104.1c3.9,1.2,4.2,5,4.3,5"/>
				</g>
				<path class="st0" d="M987.5,98.2c-7.5,8.1,2,16.3,9.4,23.3c8.2,6.9,14.4,12.5,18.7,12.4"/>
				<g>
					<path class="st0" d="M939.4,117.7c-2.2-1-4.5-1.2-6.2-0.5c-5.8,2.8-4.1,12,3.9,14.1C947.2,133.3,950.9,122.4,939.4,117.7z"/>
					<path class="st0" d="M943.8,120.5c0.1,0,4.8,6.1,13.2,5.9"/>
				</g>
				<g>
					<path class="st0" d="M771.8,111.8c-1.6-1.8-3.7-2.4-5.8-1.3c-7.7,3.7-11.6,19.8-2.7,23.2C772.9,136.7,779.5,120.2,771.8,111.8z
						"/>
					<path class="st0" d="M774.4,116.6c0,0.1,2,16,11.2,15c12.5-1.4,14.2-21.8,2.3-32c-12-11-52.3,1.3-31.4,40.3
						c12.3,13.3,38.8-2.5,38.6-1.8"/>
				</g>
				<g>
					<path class="st0" d="M829.6,112c-2.7-1.4-5.5-1.5-7.7-0.2c-8.4,4.9-6.2,19,5.9,20.2C841.3,132.9,842.4,118.5,829.6,112z"/>
					<path class="st0" d="M838.6,124.6c1.6,4.3,3.6,11.1,1.8,17.6c-1.3,6.3-6.4,12.7-6.4,12.8c1.1-0.2-15.4-7.7-15.9-13.8
						c0.6-6.2,19.6-9.6,19.6-9.5"/>
				</g>
				<path class="st0" d="M1079.5,119.4c3.8-1.7,14.6,3.5,19.1,5.8c5.3,2.6,8.1,6.6,9.8,10.8c0.9,2.1-0.2,5-1.9,5.8
					c-7,3.4-19.3-4-24.2-9.9C1080.3,129.3,1076.9,120.3,1079.5,119.4"/>
				<path class="st0" d="M1037,127.1c1.2,1.8,4.6,3.5,2.3,6.5"/>
				<path class="st0" d="M1115.3,118.3c3,8.9,8.2,18.3,11.7,28.6c0-0.6-11.2-34.9,10-23.1c10.3,6.8,15.9,26.5,15.8,26.6
					c-0.3-0.2-5.8-37.6,12.8-19c17.7,19.6,17.3,32.6,17.5,32.3"/>
				<path class="st0" d="M1062.8,116.6c-5.7-2-10.2-0.3-8,5.5c1.1,3,4.1,6.5,7.7,9.4c7.1,5.9,13.5,5.1,13.4-0.4"/>
			</g>
		</g>
		<g>
			<g>
				<path class="st0" d="M462.1,30.2c-21.4-4.9-26.8,22.2-8.6,25.8c18.2,4,22.4-3.9,21-12.7C473.3,35.5,462.1,30.2,462.1,30.2z"/>
				<path class="st0" d="M471.3,37c-0.2-0.2,14.2,18.1,26.9,21.4"/>
				<path class="st0" d="M327.1,8.8c3.9,15.7,3.7,44.3,3.6,44.3c0,0.2,21.7,4.6,31.6,0.2"/>
				<path class="st0" d="M374.5,30.9c-15,2.3-12.6,14.2-6.4,20.7c6.1,6.5,26.6,4.2,26.9-3.4C395,40.5,392.5,28.7,374.5,30.9z"/>
				<path class="st0" d="M416.9,29.2c-14.2-1.4-33.4,20.9,5.1,17.5C433.3,44.3,430.8,32.7,416.9,29.2z"/>
				<path class="st0" d="M428,43.3c-0.3,0.1,7.8,21.4-10.9,36.1c-20.1-12.7-36.5-25.5,17.6-33"/>
				<path class="st0" d="M490.9,33.6c4.3,9.3,9.7,19.1,14.4,29.8c0.1-0.7-16.7-34.7,10.3-28.1c17.6,5.3,23.1,35.6,22.9,35.6"/>
			</g>
		</g>
		<g>
			<g>
				<g>
					<path class="st0" d="M661.9,18.6c6.7,7.3,14.4,14.1,15.4,22.2"/>
					<path class="st0" d="M653.3,1.6c0.4,2.6,1.4,5,2.6,7.3"/>
				</g>
				<path class="st0" d="M752.5,21.5c-11,4.6-1,15.5,6,23.4c7.2,7.8,26.1,5.3,21.7-5.6C776,28.7,766.6,16,752.5,21.5z"/>
				<path class="st0" d="M777.8,27c1.1-0.4,14.3,23.9,13.5,24.5c1.1-0.7-15.2-46.2,19-20.8c19,16.2,17.8,33.7,18,33.3"/>
				<path class="st0" d="M676.5-1.2c-0.4,0.1-2.1,7.1,2.9,14.9c4,7.9,14.6,16.5,16.6,24.6"/>
				<path class="st0" d="M722,13c-6,3.5-10.8,6.9-15.7,10.3c-0.1-0.1,31,2.6,38.4,11c8.3,8.6-3.3,20-30.6,5.7"/>
				<path class="st0" d="M559.2,5.6c-4.9,21.7,12.2,38.2,23.5,37.1c12.5-0.9,13.4-24.2,11.2-32.6"/>
				<path class="st0" d="M594.9,20.4c0.2,0.7,17.7,21.3,37.2,21.2c11.9-0.3,12.4-8,8-16.3C636,17.1,627,8,628.6,7.6"/>
			</g>
		</g>
		<g>
			<g>
				<g>
					<path class="st0" d="M322.4,217.8c-3.3-17.1-6.5-35.6-9.2-54.2c-0.2-0.1,27.9-7.1,47.2,7.2c18.7,13.2,2.3,22.6-42.3,24.1"/>
					<path class="st0" d="M329.9,194.6c13.4,8.7,26.8,15.5,39.8,22.5"/>
				</g>
				<path class="st0" d="M392.7,181.2c-18-6-24.6,29.8-8.7,32.7c15.5,3.6,19.2-6.2,18.4-16.7C401.8,187.7,392.7,181.2,392.7,181.2z"
					/>
				<path class="st0" d="M400.1,189.5c-0.2,0.1,11,21.4,21.9,24"/>
				<path class="st0" d="M421.8,180.2c-2.3,11.3-4.4,31.6,15.2,31.5c20.1,0.9,19.7-32.2,19.4-32.3c0,0.5-9.5,17.1-3.4,56
					c5.5,38.9-45.8,20.8-56.3-1.1"/>
			</g>
		</g>
		<g>
			<g>
				<g>
					<path class="st0" d="M506.4,230.7c0.9-22.7,1.5-44.9,2.2-67.6c-0.1-0.1,26.5-6,45,7.9c18,13.1-2.2,21.6-45.8,22.6"/>
					<path class="st0" d="M523.8,193c12.7,8.5,25.8,15.3,38.3,22"/>
				</g>
				<path class="st0" d="M612.8,188.1c-17-5.8-22,25.7-7.6,29.4c14.6,4,18.6-5.1,17.4-14.7C621.7,194,612.8,188.1,612.8,188.1z"/>
				<path class="st0" d="M620.1,195.7c-0.1-0.1,11.3,20,21.3,22.6"/>
				<path class="st0" d="M580.6,187c-16.6-5.9-22.6,27.6-8,30.3c15,2.9,19.1-6.3,17.9-15.8C589.6,193,580.6,187,580.6,187z"/>
				<path class="st0" d="M670.8,164.7c-2.8-0.4,14.3,55.4,5.6,61.7c-9.7,4.8-34.3-0.4-33.9-16.6c0.2-16.3,19.8-18.7,34.2-11.3"/>
				<path class="st0" d="M696.8,229.4c6.1,8.9-2.3,29.5-2.3,29.6"/>
			</g>
		</g>
		<g>
			<g>
				<path class="st0" d="M735.8,242c14.5-22,23.1-37,35.4-55.9c-2.1,2.3,6.7,50.1,4.8,50.7"/>
				<path class="st0" d="M749.8,220.2c8.6-0.1,16.9-0.3,24.9-0.3"/>
				<path class="st0" d="M798.3,247.4c1.2-0.8-5.2-23.6-3.2-33.2c2.9-10.2,21.6-17.8,29-3.6c7.6,14.4-15.4,17.7-28.5,18.4"/>
				<path class="st0" d="M837,188.8c0.5,19.7,7.3,38.8,10,61.9"/>
				<path class="st0" d="M824.2,206.9c10.7-0.3,22-0.1,34.2,0.9"/>
			</g>
		</g>
		<g>
			<g>
				<path class="st0" d="M29.5,284.6c-3.4-8.6-7.2-19.9-9.6-31.2c-3.7-18.4-3.9-35.7,3.7-37.2c12.5-2,60.1,12.3,33.8,26.6
					c-27.5,16-37.8,10.9-37.4,10.5"/>
				<path class="st0" d="M68.9,229.8c9.2,8.8,14.7,47.1,12.1,47.5c2.4-0.8,3.9-40.7,31.7-17c6.6,8.9,5.4,12.5,5.5,12.5"/>
				<path class="st0" d="M143.1,252.9c-17.9-2.8-25.2,17.1-9.9,18.3c16.2,1.2,22-4.5,21.2-10.3C153.4,255.9,143,252.9,143.1,252.9z"
					/>
				<g>
					<path class="st0" d="M164.2,256.4c-3.4,7.6,25.4,8.2,33.6,3.1C205.8,253.9,171.4,244.1,164.2,256.4z"/>
					<path class="st0" d="M164.2,256.4c1,0.1-6.3,20,35.7,14.1"/>
				</g>
				<path class="st0" d="M204.1,252.3c6.6,7.2,13.3,14.7,18.3,23.1c1.4-0.6-20-29.5,8.1-19.4c28.8,10.4,33.3,26.8,33,26.6"/>
				<path class="st0" d="M269.7,262.5c4.4,8.3,8.7,17.1,12,26.5"/>
				<path class="st0" d="M254.9,247.1c3.8,2.5,7.7,5.1,11.6,7.9"/>
				<g>
					<path class="st0" d="M285.5,254.7c15.1,15.8,29.3,35.2,41.4,56"/>
					<path class="st0" d="M321.4,265c-10.9,10.9-19.3,21-28.9,31.4"/>
				</g>
			</g>
		</g>
		<g>
			<g>
				<path class="st0" d="M564.9,276.4c-9.3-1.7-18.7-3.6-28.1-5.7c-0.1-0.3-18.1,12.5-0.8,23.8c16.2-7.3,27.9-3.4,34.5,8.2
					c6.9,10.7-25.9,37.5-38.4,13.7"/>
				<path class="st0" d="M606.5,280.6c-21.1-4.7-23.1,26.4-6.4,28.9c18,2.7,22.9-6.3,19.8-15.4C617.6,285.8,606.5,280.6,606.5,280.6
					z"/>
				<path class="st0" d="M635,277.1c0.5,10,5.4,19.2,8,29.4c13.1-0.2,26.1,0,39.4,0.6"/>
				<path class="st0" d="M667,287.4c3,12.8,9.5,26.3,8.4,41.9"/>
				<path class="st0" d="M698,279.3c-0.9,11,1.1,21.8,2.4,33.5c13.5,1.2,27.4,3.1,41.9,5.8"/>
				<path class="st0" d="M728.7,292.9c1.9,16,4.5,32.9,5.8,50.2"/>
				<path class="st0" d="M490.3,276c-3.1-9.2-1.6-14.1,17.9-12.4c19.2,1.7,0.5,10.1-9.4,24.9c-10.3,14.6-22.4,24-2.3,30.3
					c19,5.9,25.5,1,18.8-9C507.9,300.3,489.9,276.5,490.3,276z"/>
			</g>
		</g>
		<g>
			<g>
				<path class="st0" d="M338.8,309.4c-0.3,1.2,2.9,18.4-11.7,31.3"/>
			</g>
		</g>
		<g>
			<g>
				<path class="st0" d="M81.7,509c14.6-0.2,29.2-1.3,44.1-1.8"/>
				<path class="st0" d="M104.8,509.1c-1.7,32.3,1.4,55.4,0.4,87.7"/>
				<path class="st0" d="M79.5,605.8c13.7-7.4,27.9-12.5,41-12.2"/>
			</g>
		</g>
		<g>
			<g>
				<path class="st0" d="M66.8,946.9c5.4,14.9,12,28.6,18,41c-0.1,1.1-18.7-42.5,8.1-38.9c10.7,1.7,15,9.7,15,9.7"/>
				<g>
					<path class="st0" d="M116.1,964.7c2.7,18,29.3,2.3,28.2-6.1C144,949.6,114,944.7,116.1,964.7z"/>
					<path class="st0" d="M116.1,964.7c0.3,0.5-0.9,31.9,33.1,14.1"/>
				</g>
				<g>
					<path class="st0" d="M170.7,957.2c-2.4-2.4-5.4-3.3-8.4-1.9c-11.8,5-13.7,23.5-1.7,29.3C173.8,990.7,181.8,968.8,170.7,957.2z"
						/>
					<path class="st0" d="M174.7,963.8c-0.1,0,2.9,13.2,15.6,15"/>
				</g>
				<path class="st0" d="M208.6,934.5c-0.9,0.4,1.7,13.3,6.4,27.1c4.4,13.7,10.9,28.9,10.2,29.2c0.3-0.2-14.4-27.8-23.5-19.5
					c-8.8,7.6-0.6,17.5,9.7,20.8c10.5,3.3,13.8-1.2,13.8-1.3"/>
				<path class="st0" d="M235.4,991.8c6.6,8.9,0.2,26.5,0.3,26.5"/>
			</g>
		</g>
		<g>
			<g>
				<g>
					<path class="st0" d="M290.6,952c-2.7,15.2,7.1,33.6,26.3,28.7c20.7-4.7,13.7-24,8.4-30.1"/>
					<path class="st0" d="M347.1,946.4c6.7,8.3,14.8,15.2,18.8,22.3c2.1,0.4-22.9-23.2,5-21.9c29.4,1.9,36.9,16.5,34.6,16.8"/>
					<path class="st0" d="M421.9,928.8c2.4,11.7,23.9,19.4,34.1,27.1c1.8,0.7-36.5-20.5-44.6-9.7c-8.5,12.1,2.3,13.4,44.6,9.7"/>
					<path class="st0" d="M464.8,948.3c27.8-0.5,30.2-3.7,21.6-6.7c-8.6-3.2-34.7,1.6-16.4,10.3c15,8.4,34.3,0.1,34.1,0.2"/>
					<path class="st0" d="M507.6,942.6c0.1,0.3,21.5,11.8,19.6,12c2.1-0.1-19.9-19.5,7.3-14.9c8.3,1.8,10,3,10,3"/>
					<path class="st0" d="M587.8,943.7c-20.1-3.3-44.2-2.1-28.9,0.2c15.2,2.3,39.3,6.5,39.4,10.9c-0.2,4.3-17.6,6.4-29.8,1.5"/>
					<path class="st0" d="M592.3,932.4c-1.4,8.9,22,17.1,31.2,28"/>
					<path class="st0" d="M651.2,944.5c-3.6-1.6-7.5-2-10.8-1.3c-12.9,2.7,1.3,14,16.8,19.4C675.1,968.3,668.7,951.7,651.2,944.5z"
						/>
					<path class="st0" d="M692.8,946.4c-3.7-1.8-7.9-2.2-11.2-1.3c-12.8,3.4,2.3,17,18.5,23.3C718,975,710.5,954.5,692.8,946.4z"/>
					<path class="st0" d="M747.7,931.9c0.7,15.2,11.2,31.3,17.5,49.8c0.7-1-18.9-33.2-35-21.3c-14.2,10.4,5.8,16.9,20.4,21
						c14.9,3.9,14.6,0.3,14.6,0.3"/>
					<path class="st0" d="M572.6,938.5c14.3-0.1,28.8,0,43.5,0.1"/>
				</g>
				<path class="st0" d="M782,984.5c-0.3,6-0.5,11.9-0.8,17.8"/>
			</g>
		</g>
		<g>
			<g>
				<path class="st0" d="M273.4,173.4c-15.4-0.4-30.2-0.3-45.3-0.8c0.8,16.6,2.6,32.1,2.9,47.6c0-1.7,30.1-0.9,37.7-0.4"/>
				<path class="st0" d="M230,201.6c12.4-3.3,21.8-6.8,33.1-8.2"/>
			</g>
		</g>
		<g>
			<g>
				<path class="st0" d="M401.3,275.6c9,0.2,18.3,0.6,28.5,1.9c-1.9,0-31.5,19.5-32,24.7c0.3,2.9,39.2,5,38.8,6.7"/>
				<path class="st0" d="M354,303.9c1.4-1.9,17.2-33.8,28.8-39.8c2.5,8.4,6.8,17,8.5,24.7c2,7.5,1.4,14.1,1,14.3"/>
				<path class="st0" d="M365.6,284c8.6,0.6,16.8,1,24.9,1.8"/>
			</g>
		</g>
		<g>
			<g>
				<g>
					<path class="st0" d="M1329.5,902.9c6.4,31.7,17.2,52.2,21.5,80.2"/>
					<path class="st0" d="M1382.9,939.8c-3.8-3.6-8.6-4.6-12.7-3.2c-15.1,5.9-18.7,26.8-1.3,34.8
						C1386.9,981.2,1400.9,959,1382.9,939.8z"/>
				</g>
				<path class="st0" d="M1323.5,941c12.2-1.2,22.6-3.6,33-5.6"/>
			</g>
		</g>
		<g>
			<g>
				<path class="st0" d="M1282.1,1030.9c-18.7-6.5-44.6,7.7-30.1,13c14.6,5,37.5,10,36.3,16.7c-1.4,6.5-18.5,14.7-33.2,8.6"/>
				<path class="st0" d="M1486.7,1039.2c-15.6-9.1-35.4-7.2-25.2-0.9c10.8,6.1,30.3,19,28.4,30.1c-1.9,10.7-13.4,13.6-24.9,0.2"/>
				<g>
					<path class="st0" d="M1299.5,1038.4c-2.2,20.5,5.3,30.3,16.7,30.3c11.5-1.2,8.8-16.5,5.2-22.2"/>
					<path class="st0" d="M1323.8,1053.1c0.5,0.1,7.9,13.5,22.4,11.4c11.3-2.6-1.5-22.5-5.2-28.1"/>
				</g>
				<path class="st0" d="M1357.2,1045.3c24.1,6,28.2,1,24.1-6.3c-1.7-7.8-33.2-5.3-21.4,13.5c10.5,18.5,29,9.1,29.4,9"/>
				<path class="st0" d="M1393.9,1045.3c24.2,7.1,29.1,2.1,25.3-5.8c-1.2-8-33.9-6-22.9,13.1c11.1,19.8,29.4,11.6,29.8,11.3"/>
				<path class="st0" d="M1443.9,1083.2c3.6-1.8-19.4-41.4-12.8-46.5c5.2-6.7,29.2-2.9,20,8.1c-8.5,10.4-18.1,7.6-18.4,7.7"/>
			</g>
		</g>
		<g>
			<g>
				<g>
					<path class="st0" d="M17.4,144.4c4.8-5.9,32.3-4.2,26,6.1c-5.8,10.3-9.6,7.6-21.2,7.4"/>
					<path class="st0" d="M39.2,156.1c0.1-0.2,6,0.3,13.4,13.6c7.4,12.5-14.4,19.7-25.9,21"/>
					<path class="st0" d="M73.1,149.1c-17.4,17.5-13.6,34.5,6.6,33.1c22.3-1.1,21.1-21,8.8-15.1c-12.4,6.2-12.5,6.3-8.8,15.1"/>
				</g>
				<path class="st0" d="M114.9,154c18.3-0.5,32.1,9.8,23.2,22.1c-9.7,11.9-32.1,4.6-31.1-3.2c0.4-8,10.2-9.8,19.2-3.5
					c9.2,6.1,16.4,18.9,16.2,19"/>
				<path class="st0" d="M183.4,166.5c-7.9-2.5-15.6-4.5-23.1-6.1c-0.7,5-0.9,10.1-1.1,15.2c-0.1,0.1,7-3.1,14.1,3.2
					c7.2,6.3,13,19.5,6.6,22.5c-6.3,3-24.5-1.9-27.2-11.3"/>
			</g>
		</g>
		<g>
			<g>
				<g>
					<g>
						<path class="st0" d="M74.9,828.3c1.4,22.4,9.8,38.6,7,58.8"/>
						<path class="st0" d="M58.3,854.1c11.9,0.2,23.1,0.1,34,0.1"/>
						<path class="st0" d="M98.3,840.7c-0.1,1,12.8,36.3,9.7,37.6c2.7-0.3,4.9-30.2,19.8-18.3c15.8,12,14.2,16.5,14.4,16.3"/>
					</g>
				</g>
				<path class="st0" d="M145.6,859.3c0.4-0.2,6.9,16.4,14.8,20.2"/>
				<path class="st0" d="M138.5,844.9c2.1,6.4,5,7.3,5,7.3"/>
				<path class="st0" d="M189.6,853.1c-28.4-4.6-40.4,1.3-21.7,5.6c19.4,3.8,49.3,26.6,28.2,28.1c-20.8,1.8-35.3-12.4-35.3-12.2"/>
			</g>
		</g>
		<g>
			<g>
				<g>
					<path class="st0" d="M1097.8,1052.4c-1.9-2.4-4.4-3.4-7.1-2.3c-10.1,3.1-17.4,24.4-6.8,28.9
						C1094.4,1082.4,1107.9,1062.7,1097.8,1052.4z"/>
					<path class="st0" d="M1100.8,1058.5c0.1,0.1,1,11.8,11.4,12.2"/>
				</g>
				<path class="st0" d="M1111.3,1051.7c4.4,8.2,9.9,15.1,12,23.6c2.1-0.6-10.3-27.9,7.2-19.3c18.3,8.3,20,21.7,19.6,21.7"/>
				<path class="st0" d="M1167.9,1037.3c2.4,13.4,10.9,27.6,15.5,44.6c0.7-0.9-10.7-37.1-24.3-24.1c-11.5,11.1-1.4,30.4,24.3,24.1"
					/>
			</g>
		</g>
		<g>
			<g>
				<g>
					<path class="st0" d="M1584.5,1039.3c10.4,23.7,7.1,30.4,30.7,28.2c25.1-2.3,5.6-27.5,5.2-27.4"/>
					<path class="st0" d="M1634.7,1012.3c-2,0.6-5.1,13.2-2.6,25.5c2,12.5,9.6,24.7,17.9,28.5"/>
					<path class="st0" d="M1660.5,1053.2c17.8,4,23.8-7.2,16.1-11c-8.3-2.8-33.5,12.2,3.3,28.9c14.3,5.5,11.3-9.4,11.1-9.3"/>
					<path class="st0" d="M1707.3,1041.8c-12.8-6-25.9-0.1-15.4,7.7c10.3,7.6,37.5,14,26.6,28c-10.6,13.5-23.3-8.1-23.4-7.8"/>
					<path class="st0" d="M1723.7,1078.7c3.2,7.4,1.2,10.3,1.2,10.3"/>
				</g>
				<g>
					<path class="st0" d="M1541.6,1082.3c-1.6-18.8-6.7-37.6-9.7-58.2c0.2-0.2,20.2-6.4,35.3,3.7c15.7,9.2,4.8,36.7-31,22.9"/>
					<path class="st0" d="M1554.6,1054.7c6.5,5.8,12.7,11.1,17.4,16.7"/>
				</g>
			</g>
		</g>
		<g>
			<g>
				<g>
					<g>
						<path class="st0" d="M1223.3,698.9c-6.3,3.9-5.5,8.5-5.4,8.5"/>
					</g>
				</g>
			</g>
		</g>
		<g>
			<g>
				<g>
					<path class="st0" d="M907.4,208.7c8.5-16.3,45.6-22,33.7,8.7c-9.1,28.3-36.5,43.5-41.3,29.5c-4.9-15.6,26.6-24.5,70.6-0.3"/>
					<path class="st0" d="M958.5,202.2c5.7,16,16.7,28.2,24.1,42"/>
					<path class="st0" d="M1076.5,276.5c3-6.4-3.5-27.1-10.6-43.9c-7.1-17.2-14.9-30.6-13.8-30.4"/>
				</g>
				<path class="st0" d="M978.5,207.5c5.5-9,17.1-10.5,26.6-5.7c10,4.7,26.6,10.6-6.6,16.4c28.5,9.7,36.6,22.5,35.3,29.9
					c-1.3,6.6-40.1-5-40.1-4.1"/>
			</g>
		</g>
		<g>
			<g>
				<g>
					<g>
						<path class="st0" d="M308,562c7.8,6,15.1,12.1,19.2,19.3"/>
						<path class="st0" d="M295.2,542.2c1.7,3.2,3.9,6.2,6.2,9.1"/>
					</g>
					<path class="st0" d="M358.8,538.9c-26.5,3.1-38.3,13.1-22.4,15.7c7.5,1.1,30.4,5.9,45.9,12.8c15.5,6.6,23.5,15.3,1.3,16.9
						c-46.3,4.5-41.4-1.3-41-1.8"/>
					<path class="st0" d="M376.6,531.8c-1.1,0.4,1.7,13.6,13.8,27.7c11.8,13.8,20.6,32,19.4,31.8c0.3-1.1-9.7-52.7,23.7-22.7
						c13.7,19.8,16.9,36.2,17,35.9"/>
				</g>
				<path class="st0" d="M203.7,556.1c-0.2,0.1,4.4,19.2,7.4,32.8c2.6,11.2,14.9,11.1,25.3,1.1c6.9-6.7,11.9-14.4,10.2-23.2
					c16.7,14.3,25.3,20.4,42.4,17.4c10.8-2,19.1-10.9,13-17.2c-18.2-18.6-23.2-27.1-22.9-27.1"/>
			</g>
		</g>
	</g>
</g>
<g>
	<path class="st0" d="M706.8,736c-12.2-6.5-32,1.2-30,25s34.6,26.3,42.2,17.4c7.6-8.9-4.7-22.1-4.7-22.1l-7.9,2.1l19.5-6.9l2.6,29"
		/>
	<line class="st0" x1="739.8" y1="727.6" x2="757.2" y2="776.1"/>
	<path class="st0" d="M780.6,749c-1.8-0.1-3.6,0.4-5.1,1.4c-16.3,10.9-6.2,30.6,10.5,29.7C803.1,779.2,812.3,750.1,780.6,749z"/>
	<path class="st0" d="M798,715.9l19.9,66.4c0,0-17.8-35,6.1-35.6c32,1,35.5,29.7,23,31.5s-31.4-3.5-31.4-3.5"/>
	<path class="st0" d="M872.8,745.5c-10.2,4.2-22,21.5-9.2,34c19.3,7.8,37.4-16.5,18-32.6C879.2,744.9,875.8,744.3,872.8,745.5z"/>
	<path class="st0" d="M889.4,758.4c0,0,4.4,20.4,15.3,20.8"/>
	<path class="st0" d="M893.6,721c0,0,16.9,58.3,30.9,58"/>
</g>
<g>
	<path class="st0" d="M992.4,776c0,0-19.3-34.9-17.5-44.4s-11.5-22.3,11.3-17.2c22.8,5.1,42.3,13,34.4,23.9c-7.9,10.9-42,9.1-42,9.1
		"/>
	<path class="st0" d="M1042.9,752.7c-13.8-7.1-25.3-6.4-29.5,0.2c-4.2,6.6-6.9,19.9,14.9,22.2
		C1050.1,777.4,1055.7,757.2,1042.9,752.7z"/>
	<line class="st0" x1="1048.4" y1="718.7" x2="1064.7" y2="772"/>
	<line class="st0" x1="1057.2" y1="747.4" x2="1108.7" y2="730.4"/>
	<line class="st0" x1="1067.6" y1="744" x2="1105.5" y2="773.3"/>
	<path class="st0" d="M1102.2,751.1c4.8,5,15,4.5,23,1.8c7.9-2.7,8-12.3-2.6-12.3C1112,740.7,1102.1,744.5,1102.2,751.1z"/>
	<path class="st0" d="M1102.2,751.1c0,0-2.1,28.3,32.1,20.4c12.7-3.5,19.2-9.8,19.2-9.8"/>
	<path class="st0" d="M1154.5,740.3l20,32.1c0,0-21.1-31.9-4.7-33.6s29.7,5.3,29.7,5.3"/>
	<line class="st0" x1="1196.4" y1="765.8" x2="1197.7" y2="774.1"/>
</g>
<g>
	<g>
		<path class="st0" d="M95.5,1021.5c-16.6,7-53.1,49.9-9.6,69.6c29.3,9.8,41.3-21.8,34.2-33.7s-11.4,3.6-11.4,3.6s7.7-8.1,25.7-7.4
			c5,6.1,6.2,26.3,6.2,26.3"/>
		<path class="st0" d="M154.8,1020.2c0,0-0.3,69.9,13.2,70.7"/>
		<path class="st0" d="M201.9,1051.9c-3.7-2.4-8.3-2.4-12-0.2c-16.1,9.4-28.8,33.5,0.9,38.3C222.1,1095.1,225.2,1067.1,201.9,1051.9
			z"/>
		<path class="st0" d="M214.9,1012.3l10.2,73.8c0,0-13.9-38.1,7.7-39s45.9,32.6,24.9,37.4c-21.1,4.8-32.6,1.6-32.6,1.6"/>
		<path class="st0" d="M290.9,1053.8c-6.2,1-16.2,6.5-15,26.5c0.2,3.4,1.6,6.4,3.8,7.9c12.2,8.3,34.5-7.8,16.7-31.7
			C295,1054.5,292.9,1053.5,290.9,1053.8z"/>
		<path class="st0" d="M301.2,1064.7c0,0,6,20.2,10.5,20.3"/>
		<path class="st0" d="M307.8,1032.1c0,0,5,47.5,19.6,53.6"/>
	</g>
	<g>
		<path class="st0" d="M369.5,1091.2l-12.4-73c0,0,37.6-5.6,39.8,13.5c2.2,19-6.9,24.8-33.5,23.4"/>
		<path class="st0" d="M416.3,1061.1c-3.3-3.4-7.6-5.1-11.9-4.6c-19.3,2.2-15.2,25.2-3.1,30.4
			C413.7,1092.2,433.1,1078.3,416.3,1061.1z"/>
		<line class="st0" x1="428.2" y1="1027.4" x2="438.8" y2="1084.3"/>
		<line class="st0" x1="433.5" y1="1055.9" x2="466.7" y2="1035.5"/>
		<path class="st0" d="M441.1,1051.2c0,0,25.7,16.8,31.3,29"/>
		<path class="st0" d="M477.4,1058.3c13.1,7.7,28.4-3.1,28.1-12.1s-19.4-6.6-24.7,2.6c-3,3.8-14.3,29.3,29.9,29.1"/>
		<path class="st0" d="M517.6,1043.9l14.4,38.2c0,0-6.2-23.1-5-33.7c1.3-10.5,18.5-6.9,24.3-4"/>
		<path class="st0" d="M563.3,1026.5c0,0,4.7,18.2,1.5,22.6"/>
		<path class="st0" d="M607.5,1047.9c-19.2-1.1-34.9,5.4-28,7.3s45.5,11,33.5,28.5s-40.9-2.1-40.9-2.1"/>
	</g>
	<g>
		<path class="st0" d="M673.4,1058.9c0.2-8.8-7-24.5-17-11.7c-10,12.8-7.8,54.7,25.6,34.3"/>
		<path class="st0" d="M703,1062.7c-3.6-3.1-17.1,2.3-18,9.4c-0.9,7.1-4.8,20,10.6,20.7S711.2,1072.7,703,1062.7z"/>
		<path class="st0" d="M901.1,1046.4c-3.6-3.1-17.1,2.3-18,9.4c-0.9,7.1-4.8,20,10.6,20.7C909.1,1077.2,909.3,1056.4,901.1,1046.4z"
			/>
		<path class="st0" d="M713.1,1062.2l7.1,28.2c0,0-13-30.3,2.7-32c15.7-1.7,27.6,28.4,27.6,28.4"/>
		<path class="st0" d="M766.5,1037.5l24.3,43.1c0,0-14.4-28.7-30.3-13.1c-15.9,15.6,12.7,32.5,30.3,13.1"/>
		<path class="st0" d="M787.4,1046.4c2.1-0.1,6.5,4.1,6.5,4.1"/>
		<path class="st0" d="M795.1,1063.6c0,0,12.8,21.9,13,22.9"/>
		<path class="st0" d="M855.3,1036.2c2.1-0.1,6.5,4.1,6.5,4.1"/>
		<path class="st0" d="M863,1053.4c0,0,12.8,21.9,13,22.9"/>
		<line class="st0" x1="824" y1="1029.3" x2="840.6" y2="1089"/>
		<line class="st0" x1="810.4" y1="1057.7" x2="852.5" y2="1052.5"/>
		<path class="st0" d="M912,1045.3l21.2,37.9c0,0-24.2-44.6-1.1-41.2c23.1,3.5,32.1,34.8,32.1,34.8"/>
		<path class="st0" d="M1009.8,1031.1c-16.7-3.6-42.7,0.7-32.8,6.1c9.9,5.4,57.5,27,43,38.9s-40.6-10.1-40.6-10.1"/>
	</g>
</g>
</svg>
