<?xml version="1.0" encoding="UTF-8" standalone="no"?>
<!-- Created with Inkscape (http://www.inkscape.org/) -->

<svg
   width="3000"
   height="1998.207"
   viewBox="0 0 793.74998 528.69228"
   version="1.1"
   id="svg202"
   inkscape:version="1.2.1 (9c6d41e410, 2022-07-14)"
   sodipodi:docname="MonicaG - Stake - Envelope21.svg"
   xmlns:inkscape="http://www.inkscape.org/namespaces/inkscape"
   xmlns:sodipodi="http://sodipodi.sourceforge.net/DTD/sodipodi-0.dtd"
   xmlns="http://www.w3.org/2000/svg"
   xmlns:svg="http://www.w3.org/2000/svg">
  <sodipodi:namedview
     id="namedview204"
     pagecolor="#ffffff"
     bordercolor="#000000"
     borderopacity="0.25"
     inkscape:showpageshadow="2"
     inkscape:pageopacity="0.0"
     inkscape:pagecheckerboard="0"
     inkscape:deskcolor="#d1d1d1"
     inkscape:document-units="mm"
     showgrid="false"
     inkscape:zoom="1"
     inkscape:cx="306"
     inkscape:cy="106"
     inkscape:window-width="1366"
     inkscape:window-height="705"
     inkscape:window-x="-8"
     inkscape:window-y="-8"
     inkscape:window-maximized="1"
     inkscape:current-layer="layer1" />
  <defs
     id="defs199">
    <pattern
       id="EMFhbasepattern"
       patternUnits="userSpaceOnUse"
       width="6"
       height="6"
       x="0"
       y="0" />
    <pattern
       id="EMFhbasepattern-9"
       patternUnits="userSpaceOnUse"
       width="6"
       height="6"
       x="0"
       y="0" />
  </defs>
  <g
     inkscape:label="Layer 1"
     inkscape:groupmode="layer"
     id="layer1">
    <path
       style="fill:none;stroke:#7986b2;stroke-width:0.0806062"
       d="m 92.991192,63.022314 c -0.21764,-0.752761 -0.07283,-0.04136 -0.219539,-0.838389 m 35.579637,-0.290077 c 0,0.154114 0.0218,0.242587 0.0266,0.403024 0.0411,1.488808 1.84833,0.172677 2.31102,-0.48363 0.23295,-0.331526 0.39336,-0.755268 0.42963,-1.128469 0.05,-0.517079 -0.003,-1.385513 -0.40303,-1.75984 -0.43367,-0.405766 -1.07208,-0.255278 -1.53154,0.06714 -0.5699,1.037463 -0.83268,2.075169 -0.83268,2.901773 z m -10.6942,0.967255 c 0.88346,0.372107 2.04985,-0.963341 1.82737,-1.853909 -0.1725,-0.687638 -0.93585,-0.783882 -1.50494,-0.617996 -0.28051,0.08173 -0.83429,0.347164 -0.88668,-0.18805 -0.033,-0.337575 0.36112,-0.581405 0.56425,-0.806048 0.22973,-0.254794 0.42803,-0.587853 0.72547,-0.765747 0.45785,-0.273653 1.54525,-0.282117 1.93458,-0.282117 m 6.28738,4.594473 c 0,-0.668948 0.24182,-1.360464 0.24182,-1.934515 -0.61342,0.06023 -0.46243,-0.148562 -1.70253,0.0369 -0.92135,-0.311859 -0.2256,-1.460379 0.171,-1.890808 m -43.786358,2.466233 c -0.252301,0.07312 -0.397031,0.137414 -0.57437,0.354933 -0.141063,0.171876 -0.314366,0.398171 -0.537652,0.37616 -0.278096,-0.02739 -0.395781,-0.363101 -0.403038,-0.617975 -0.02178,-0.769452 0.432865,-2.128451 0.913287,-2.821166 0.238595,-0.343456 0.588433,-0.536666 0.860082,-0.241815 0.337744,0.367075 -0.161218,1.484176 -0.161218,2.015118 0,0.276153 -0.107205,0.443248 -0.134615,0.725445 -0.0266,0.280104 0.187013,0.434661 0.215223,0.725442 0.0258,0.265215 0.01371,0.416583 0.241824,0.564236 m 8.141356,-0.08061 c 0.523143,0.220124 1.957958,-0.282882 1.746766,-1.128469 -0.171693,-0.684816 -1.221203,-1.150792 -1.545246,-1.692697 -0.393364,-0.658302 0.664206,-1.41107 1.168812,-1.450888 M 75.660591,62.61929 c 0.208772,0 0.381271,0.0087 0.564249,-0.02687 0.196683,-0.03816 0.374828,-0.08206 0.564254,-0.147781 0.23618,-0.08196 0.413516,-0.0851 0.644859,-0.188075 0.33855,-0.150523 0.648086,-0.240225 0.967292,-0.523932 0.544101,-0.483627 1.04548,-1.192627 0.86008,-1.934512 -0.172499,-0.68869 -1.222814,-1.857782 -1.746766,-2.243475 -0.135419,-0.09971 -0.242626,-0.08568 -0.38933,-0.201511 C 76.80441,57.1006 76.476338,56.493645 75.902412,56.735136 m 28.373838,5.88415 c 0.20072,-0.544711 0.61826,-1.467974 0.95359,-1.934517 0.13058,-0.180796 0.2386,-0.148148 0.40304,-0.335879 0.1193,-0.135174 0.13461,-0.307909 0.16121,-0.470167 0.0314,-0.188375 -0.0105,-0.365622 0.13462,-0.537392 0.16524,-0.195629 0.29905,-0.216665 0.46994,-0.429865 0.52072,-0.647903 0.93102,-1.063179 1.50494,-1.531493 m -19.475406,3.756366 c -0.114464,0.0881 -0.287939,0.176262 -0.448351,0.354478 -0.277288,0.309146 -1.041447,0.944182 -1.101095,0.08061 -0.04917,-0.708273 0.490896,-1.698264 0.886679,-2.256933 0.20152,-0.285341 0.652116,-0.68353 0.953587,-0.523932 0.545713,0.288967 0.09028,1.103641 -0.0266,1.571793 -0.04837,0.191839 -0.241827,0.624044 -0.241827,0.806048 0,0.237867 0.103988,0.3117 0.107212,0.564233 0.0064,0.440932 0.152346,0.767198 0.644857,0.806049 m 25.552584,-0.16121 c 0.008,-0.298195 0.083,-0.632989 0.26842,-0.967257 0.40465,-0.727942 0.84799,-1.511502 1.16881,-2.256933 0.13542,-0.313069 0.4909,-0.966938 0.29583,-1.276218 -0.14912,-0.236411 -0.66501,-0.119536 -0.92698,-0.09407 -0.77142,0.07496 -2.47224,0.546582 -3.1437,0.564235 m -34.98366,3.86903 c 0,-0.945575 -0.145091,-2.389126 -0.241821,-3.385402 -0.04917,-0.502572 -0.115872,-1.113637 -0.115872,-1.521416 m 9.305129,-0.01008 c -0.211194,0.471538 -0.304699,1.023033 -0.32243,1.450885 -0.03305,0.798791 -0.288576,1.525363 -0.322432,2.337537 -0.01209,0.281472 -0.228119,0.807355 0.01371,1.034427 0.224897,0.211878 0.465106,-0.03865 0.550549,-0.147773 m 34.338797,-2.82116 c 0.56668,-0.04474 1.20025,-0.503134 1.77337,-0.295577 0.71338,0.258579 0.26036,1.171912 -0.0266,1.585253 -0.22973,0.330964 -0.64567,0.712464 -0.86008,1.047861 -0.11769,0.183853 -0.16122,0.322261 -0.24182,0.48363 0.65936,0.27753 2.05226,0.102191 2.74065,-0.241815 m -40.061931,0.161211 0.01371,-2.740563 0.0669,-0.564236 0.161213,-1.450885 m 16.846978,4.755684 0.21522,-1.128469 0.60455,-2.337539 0.22812,-0.886651 -0.0806,-0.403025 c 0.69968,-0.349906 1.9765,-0.219728 2.57945,0.161212 m 22.24767,3.707818 c 0.34903,-0.442279 0.49654,-1.314019 0.72547,-1.934515 m -21.76403,-1.370279 -0.0272,2.146713 c 0.14694,0.836239 0.0763,0.994292 0.10778,1.31929 0.0395,0.403605 0.17976,0.73846 0.56425,0.967258 M 99.439814,58.347234 C 100.075,57.712309 101.48891,57.36308 102.02415,57.137707 M 78.401236,52.866108 c -0.310338,-1.072125 -0.364347,-2.381225 -0.590853,-3.546611 -0.150737,-0.772919 -0.517499,-1.5859 -0.537653,-2.337539 m 5.320096,5.561732 c 0.499768,0.840144 1.547663,-0.540699 1.773365,-1.047864 0.113655,-0.25576 0.161214,-0.430752 0.161214,-0.725444 0,-0.192241 -9.14e-4,-0.301137 -0.05401,-0.483628 -0.119297,-0.40939 -0.474778,-1.09042 -0.76577,-1.356819 m 0,0 c -0.113659,-0.104385 -0.09501,-0.08883 -0.395081,-0.211825 -0.327749,-0.03216 -0.943506,0.19539 -1.109054,0.601387 -0.03386,0.142751 -0.135421,0.436635 0.0669,0.523931 0.265199,0.114297 0.774838,-0.354158 0.89817,-0.602017 0.161438,-0.24335 0.172515,-0.24322 0.286305,-0.583125 0.05807,-0.362579 0.08845,-0.531675 0.105246,-0.789677 0.02337,-0.239717 0.03224,-0.36965 -0.0266,-0.564231 -0.0798,-0.260675 -0.316786,-0.691429 -0.53765,-0.886654 -0.861694,-0.761553 -2.078869,0.403589 -2.418225,1.047863 m 7.496498,4.675078 c -0.120105,-1.516661 -0.548131,-3.184213 -0.900389,-4.675078 -0.128164,-0.544002 -0.32646,-0.934694 -0.550549,-1.289678 m 7.415891,5.481127 -0.618256,-3.54661 -0.268423,-1.450887 m -2.498833,4.876589 c 0.651305,0.235042 1.317931,-1.43412 1.396926,-1.813607 0.102372,-0.49048 -0.04192,-1.010139 -0.20152,-1.450888 -0.135419,-0.376343 -0.273258,-0.762115 -0.456236,-1.128466 -0.130584,-0.260513 -0.309536,-0.550853 -0.577959,-0.685141 -0.430441,-0.215376 -0.853629,0.453805 -0.98099,0.685141 -0.100761,0.184102 -0.223286,0.196998 -0.349033,0.416487 -0.1064,0.184906 -0.0403,0.578498 -0.0403,0.792585 0,0.775823 0.331298,1.626606 0.618259,2.337541 0.124942,0.311618 0.22973,0.716011 0.590855,0.846348 M 111.20849,50.36736 c 0.73998,0.907449 1.47996,0.355627 1.26312,-0.564234 -0.1725,-0.728991 -0.89877,-1.528591 -1.24942,-2.176329 -0.38933,-0.718913 -0.34661,-1.299431 0.55055,-1.370282 m -9.02804,4.594472 c 0,-0.589139 -0.0613,-1.205201 -0.14751,-1.773305 -0.0234,-0.150649 -0.0613,-0.428575 0.0266,-0.550771 0.0742,-0.102692 0.13864,-0.05957 0.28213,-0.107527 0.87298,-0.290904 1.8846,-1.158614 1.77336,-2.162869 -0.10398,-0.936788 -1.41627,-1.612096 -2.25701,-1.612096 -0.20313,0 -0.41593,-0.06166 -0.53765,0.09407 -0.11285,0.144687 0.0185,0.69062 0.0806,0.953797 0.17008,0.720767 0.46672,1.530119 0.53765,2.256933 0.0204,0.278262 0.0738,0.243154 0.11131,0.590951 m 6.13577,0.06522 c 0.40707,-0.182246 1.23007,-0.43757 1.46464,-1.1398 0.12494,-0.37594 -0.33049,-1.067612 -0.77947,-0.84635 -0.38611,0.190226 -0.60537,1.231641 -0.67146,1.571795 -0.0331,0.166689 -0.025,0.230205 -0.0274,0.403022 -0.002,0.157179 -0.025,0.27865 -0.0266,0.403024 -0.002,0.144522 0.0605,0.726007 0.0806,0.886652 0.0991,0.794361 0.72305,1.240993 1.37033,0.644839 m 7.98014,0.18805 c 0.3845,0.113653 0.69323,-0.579949 0.81978,-0.832889 0.39659,-0.794199 0.19185,-1.736066 -0.14832,-2.579352 -0.0967,-0.240848 -0.25391,-0.657897 -0.51024,-0.765746 -0.41593,-0.17467 -0.51105,0.26656 -0.59085,0.604535 -0.13139,0.554563 -0.13462,1.30846 -0.13462,1.853911 0,0.260193 -0.0169,0.424544 0.054,0.725443 0.079,0.334108 0.11527,0.877221 0.51024,0.994098 m -3.3049,-0.349259 -0.16122,-2.095727 -0.0943,-0.564231 -0.0669,-0.48363 -0.22812,-1.773305 0.0669,-0.644837 m 7.89954,5.481124 c -0.22651,-0.781462 -0.16766,-1.770402 -0.33613,-2.579352 -0.0476,-0.229725 -0.12495,-0.806048 -0.38934,-0.806048 -0.42883,0 -0.76597,0.683308 -0.81111,1.01008 -0.0556,0.401088 0.0413,0.623456 -0.15618,0.843829 -0.0271,-0.567295 -0.38285,-1.141363 -0.40304,-1.773305 m -13.70327,3.062981 c -0.0242,-0.307989 -0.0758,-0.681028 -0.0806,-1.047861 -0.006,-0.400282 -0.19507,-0.930906 -0.0669,-1.370281 0.0701,-0.241171 0.17008,-0.328787 0.25471,-0.564234 0.13865,-0.384082 0.40627,-0.94622 0.86009,-1.0344 0.38772,-0.07545 0.55941,0.174185 0.64486,0.470167 m 12.49416,3.546609 v -1.289676 m 8.78622,0.967258 -0.24182,-2.256934 v -0.725442 l 0.0403,-0.604537 -0.44334,-1.652396 m 0.43021,1.644608 c 0.20394,0.128969 0.38876,0.246054 0.61769,0.531719 0.34903,0.434863 0.71015,1.095015 1.1285,1.531493 0.32565,0.339665 0.6102,0.633552 1.0479,0.322419 m 0.98241,-4.347624 c 0.18056,1.143862 0.39034,3.766863 0.83126,4.428227 0.46833,-0.303881 0.84073,-0.700374 1.1019,-1.370282 0.32082,-0.82491 -0.16766,-2.12434 -0.73917,-2.740563 -0.32727,-0.352968 -0.87217,-0.652333 -1.28972,-0.806048 m 6.12617,4.755684 c 0.557,0 1.22121,0.02563 1.77337,-0.308958 0.16847,-0.102288 0.32081,-0.200224 0.30873,-0.416485 -0.0169,-0.316294 -0.38773,-0.562864 -0.63116,-0.806048 -0.6239,-0.624204 -1.79836,-1.246714 -1.84027,-2.256935 -0.0105,-0.236009 0.15718,-0.454207 0.28212,-0.644837 0.64164,-0.9833 1.72904,-1.038029 2.60605,-0.322421 m 2.33761,4.755684 c 0,-1.41139 -0.24182,-2.868645 -0.24182,-4.110845 l -1.1285,0.241815 m 5.4007,1.612094 c -0.60698,0.383116 -0.97051,0.48363 -1.61215,0.48363 0.0419,0.53046 0.32243,1.402442 0.88668,1.706163 0.43286,0.233187 0.81978,-0.282119 0.96729,-0.577696 m 9.59229,0.483627 c -0.22731,-0.360382 -0.26358,-0.706418 -0.32242,-1.128466 -0.17734,-1.27694 -0.56426,-2.712029 -0.56426,-4.030239 v -0.725445 m 2.90187,5.776706 c 0.47397,0.09874 0.92054,-0.49048 1.20912,-0.779207 0.29744,-0.297271 0.52556,-0.652576 0.56425,-1.047861 0.0564,-0.579307 -0.15074,-1.138141 -0.38934,-1.692702 -0.20393,-0.472989 -0.49977,-1.309587 -1.0616,-1.50465 -0.39095,-0.135659 -0.81816,0.184749 -0.94069,0.537392 -0.29905,0.86207 -0.22086,2.543567 -0.0935,3.304797 0.0717,0.43188 0.19426,1.074464 0.71176,1.182231 m -46.26871,-0.214974 0.80608,-0.147749 0.40304,-0.107527 0.48364,-0.06714 1.37033,-0.241815 m 50.05726,-0.16121 c 0.8625,0.794279 3.61766,0.622916 3.38552,-1.047863 -0.18298,-1.319903 -1.74354,-1.917506 -2.66005,-1.53149 -0.15396,-0.365383 -0.0202,-0.718913 0,-1.209071 0.007,-0.173703 0.0202,-0.423983 0.17492,-0.537392 0.13219,-0.09753 0.42883,-0.06029 0.63115,-0.09399 0.80205,-0.133644 1.7516,-0.416487 2.57944,-0.416487 m -64.29834,5.196492 c -0.11982,-0.385938 -0.28223,-0.629923 -0.42948,-0.924436 m 48.84814,0.886652 -0.32242,-5.239309 m 17.33061,4.554168 c 0.54571,0.281472 1.31632,-0.845543 1.37033,-1.329977 0.0758,-0.678693 -0.28374,-1.938868 -0.9673,-2.17633 -0.1733,-0.06013 -0.32162,-0.03272 -0.38933,0.161209 -0.22328,0.6396 -0.25553,1.957005 -0.25553,2.659957 0,0.254392 0.008,0.564638 0.24183,0.685141 m 2.25701,-3.425702 c 0.34097,-0.09866 0.60536,-0.36627 0.96729,-0.456788 0.8093,-0.202238 1.06805,0.338218 0.95359,1.021022 -0.0822,0.494428 -0.36113,1.071318 -0.59086,1.531491 -0.13542,0.270349 -0.345,0.527235 -0.37644,0.806048 -0.0443,0.392141 0.26279,0.335557 0.57796,0.322418 0.69242,-0.02886 1.31551,-0.143236 1.93458,-0.322418 m 1.61215,0.322418 0.72547,-2.498748 0.0669,-0.685143 -0.38933,-0.01346 -2.33762,0.456786 m -30.94839,2.750795 c -0.12011,-0.414711 -0.50949,-0.955728 -0.23301,-1.29991 0.14509,-0.181038 0.35709,-0.169106 0.55055,-0.255273 0.65292,-0.290178 1.43804,-0.611952 2.1764,-0.631379 m -19.65709,1.171216 c 0.38127,-0.370944 1.22457,-0.477611 1.4938,-1.251819 0.0967,-0.280424 -0.0597,-0.517081 -0.24182,-0.711984 -0.58924,-0.63057 -1.65891,-0.339346 -2.31102,-0.01346 m -27.32594,1.6927 c 0.44414,-0.443808 0.71062,-0.628351 1.23537,-0.628351 m 61.15484,0.305933 1.20911,-0.01346 0.64486,-0.06715 m -21.3314,-0.651756 c 0.54105,-0.09849 0.82651,-0.0692 1.17951,-0.07368 M 92.991192,42.951723 c -0.151541,-0.8208 -0.483643,-1.633134 -0.483643,-2.418142 0.165246,0.01298 0.334521,0.102929 0.564254,0.0806 1.124472,-0.1093 1.554111,-2.21123 0.872976,-2.982376 -0.377243,-0.42761 -0.814135,-0.138883 -1.088199,0.241813 -0.162023,0.226339 -0.257138,0.279617 -0.389333,0.48363 -0.124943,0.193047 -0.120912,0.736645 -0.120912,0.967257 0,0.300492 0.160759,0.928434 0.160759,1.208618 M 89.761858,39.8031 c 0.38772,-0.204173 1.203669,-0.923693 1.21415,-1.687664 0.004,-0.28115 0.02015,-0.854573 -0.403038,-0.940416 -0.440925,-0.08939 -0.707737,0.999095 -0.779477,1.34344 -0.110433,0.532395 -0.137032,0.718268 -0.0403,1.128467 0.04272,0.179989 0.0032,0.372799 0.0403,0.564233 0.100761,0.517161 0.239407,1.056649 0.457047,1.531491 0.299857,0.654833 1.271986,1.096306 1.370325,0.161211 m -15.799072,-2.17633 c -0.124938,0.33991 -0.226504,0.437198 -0.24182,0.806049 -0.03063,0.727617 0.274872,1.281372 0.96729,1.598633 1.118833,0.512729 2.86479,-0.784042 2.982476,-1.840448 0.02257,-0.200222 9.14e-4,-0.304043 -0.05401,-0.483628 -0.09995,-0.327578 -0.262779,-0.689171 -0.510244,-0.96726 -0.823003,-0.925744 -2.057105,-1.773465 -3.224301,-2.243472 -0.714182,-0.287678 -2.03292,-0.54908 -2.230167,-1.383742 -0.158152,-0.669745 0.726838,-1.119924 1.262878,-1.276216 0.535233,-0.156052 1.203469,-0.117845 1.773365,-0.09407 0.730305,0.03047 1.608927,0.637907 2.015189,1.209072 m 8.35066,5.416552 c -0.444144,-0.603166 -0.538989,-1.573476 -0.289913,-2.35357 0.09996,-0.313875 0.365961,-0.801049 0.72547,-0.604535 0.805269,0.440262 0.224087,1.960307 -0.09431,2.53905 -0.09109,0.165966 -0.277288,0.267285 -0.335323,0.416485 -0.04595,0.11615 0.0089,0.276395 0.0532,0.389563 0.278095,0.703599 1.153493,0.753575 1.666155,0.403024 m -6.287382,-3.304796 c 0.04353,0.238026 0.150733,1.05036 0.336133,1.276215 0.153959,0.187968 0.244241,0.176927 0.37563,0.416485 0.211194,0.384242 0.734333,1.502876 1.222818,1.665859 0.555384,0.18523 0.483644,-0.569955 0.483644,-0.940417 0,-1.089373 0.139452,-2.427817 -0.161216,-3.466005 m 11.123836,4.110844 c 0.627126,0.610664 1.80561,0.04498 1.58555,-0.886651 -0.245852,-1.039482 -1.615375,-1.171109 -2.002288,-2.015121 -0.131391,-0.287196 0.04353,-0.746964 0.148315,-1.047863 0.09834,-0.284534 0.182176,-0.489109 0.429637,-0.644837 m 7.980145,4.513867 c -0.40788,-0.673936 -0.26923,-1.504972 -0.72547,-2.015119 -0.16121,0.197563 -0.29261,0.418822 -0.41674,0.725443 -0.11849,0.295819 -0.37483,1.275893 -0.87298,1.061323 -0.27648,-0.119214 -0.32243,-0.495799 -0.32243,-0.738905 0,-0.806772 0.0411,-1.585495 0.37644,-2.418142 0.0983,-0.244313 0.27487,-0.859811 0.59085,-0.859811 0.88749,0 0.64486,1.67424 0.64486,2.230092 m -4.191586,1.934515 -0.241827,-2.17633 -0.08746,-0.765749 c -0.102776,-0.194825 -0.151141,-0.284054 -0.154365,-0.523933 -0.01049,-0.740035 -0.04434,-1.393337 -0.322428,-2.015121 m -0.380218,2.722939 c 0.4223,-0.119516 0.183702,-0.206796 1.266899,-0.358552 0.470768,-0.0085 0.752337,-0.179103 1.128505,-0.268656 m 4.99767,3.062984 c -0.1,-1.265335 -0.46591,-2.425642 -0.48365,-3.707821 -0.008,-0.56891 -0.009,-1.368591 0.0806,-1.853911 m 6.69042,5.239311 c 0.43609,0.401573 1.15591,0.136303 0.94069,-0.725445 -0.14187,-0.567859 -0.68516,-1.212778 -1.1019,-1.612094 -0.30793,-0.295255 -0.62068,-0.364815 -0.64486,-0.806048 -0.0202,-0.357159 0.14025,-0.671518 0.48364,-0.967255 0.21764,-0.187329 0.40707,-0.259873 0.64486,-0.322421 m -3.2243,2.418145 c 0.57554,0 1.36711,-0.66741 1.18251,-1.450888 -0.0548,-0.23206 -0.14751,-0.549806 -0.45704,-0.470167 -0.33371,0.08576 -0.57231,0.731569 -0.63116,1.034401 -0.0597,0.306298 -0.11365,0.536827 -0.14831,0.886654 -0.0298,0.31347 -0.0298,0.303636 -0.0266,0.564231 0.002,0.195467 0.10318,0.721012 0.17492,0.967259 0.21764,0.746563 0.64083,0.731327 1.27602,0.564234 M 82.673434,39.243903 c 0.07711,0.745817 0.31143,1.853024 -0.380369,1.136891 l -0.399108,-0.572656 -1.074499,-2.418145 m 37.401882,-3.627212 c 0.44254,1.527382 -0.0806,3.316726 0.21523,4.836289 0.0798,0.410117 -0.16525,1.293625 0.34903,1.424044 0.60536,0.15339 1.5936,-0.581322 2.09579,-0.84635 0.47317,-0.249794 1.02211,-0.400526 1.45094,-0.738905 m -15.47664,-3.062982 c -0.27563,0.749115 -0.47139,1.482694 -1.25857,2.77842 -0.0101,0.09125 -0.25528,0.309671 -0.24409,0.38706 0.0112,0.07739 0.1131,0.184739 0.14534,0.267561 0.56166,0.699845 1.04577,0.903355 1.67975,0.919619 m 16.1215,-0.564236 c -0.33533,-0.796131 -0.56426,-2.208085 -0.56426,-3.062979 m 2.0958,2.901773 -0.16122,-1.289679 0.0137,-0.711982 c 0.17064,-0.227207 0.30871,-0.491049 0.71177,-0.456788 0.21428,0.203487 0.47081,0.364733 0.53291,0.720404 l 0.11195,0.528972 c 0.133,-0.136948 0.18979,-0.301858 0.27201,-0.537063 0.0822,-0.237382 0.50263,-1.10131 0.9371,-0.980967 0.66985,0.185551 0.96809,2.051796 1.04789,2.485285 m -2.257,0.241818 v -1.209073 m 3.78855,1.128467 v -1.773306 l -0.16122,-0.725442 m -24.58529,2.176329 0.27969,-0.06992 m 34.70397,-3.234884 c -0.19185,-0.02015 -0.29422,-0.0395 -0.48365,0 -0.58763,0.122438 -0.86895,1.177152 -1.04789,1.6927 -0.11769,0.339183 -0.39337,1.247439 0,1.51803 0.4385,0.301703 0.9157,-0.605584 1.07449,-0.779125 0.1193,-0.130339 0.21684,-0.14122 0.36274,-0.282119 0.24988,-0.240848 0.17491,-0.699085 0.17491,-1.101625 0,-0.364658 -0.0629,-0.681675 -0.0266,-1.047861 0.0669,-0.694733 0.1072,-1.458948 0.1072,-2.17633 m -4.75584,2.928033 c 0.1588,-0.354981 0.57554,-1.056792 1.1285,-1.141269 0.2386,-0.03651 0.53443,0.103097 0.59086,0.389566 0.0717,0.360785 -0.54007,0.770339 -0.83268,0.859811 -0.14106,0.04312 -0.3321,0.04369 -0.48364,0.02684 -0.17734,-0.01967 -0.29664,-0.09656 -0.40304,-0.161207 -0.44254,0.647094 -0.60617,2.29651 0.64486,2.418142 0.40465,0.03934 0.96648,-0.126709 1.28972,-0.322418 m -3.70795,0.161209 c 0.21845,-0.517886 -0.0274,-1.713658 -0.0806,-2.256933 0.0143,-0.486027 -0.0376,-0.487636 -0.16122,-1.128467 l -0.24182,-2.901772 m 7.01285,5.803544 c -0.0404,-0.03487 -0.0881,-0.164586 -0.14862,-0.460958 m -15.38344,-0.332495 c -0.0564,-0.193854 -0.11839,-0.197392 -0.11839,-0.557936 m 10.49157,-1.389174 c -0.76335,0.140654 -0.98987,0.13666 -1.47299,0.425846 -0.23968,-0.0949 -0.52285,-0.02532 -0.70341,-0.02283 -0.22006,0.0031 -0.41352,0.06231 -0.64486,0.0806 m -2.86003,-1.176105 0.19998,-0.355385 m -8.14988,0.101976 0.25035,-0.263185 M 3.4564057,24.483147 c -0.2009547,0.272767 -0.1888635,0.570764 -0.087298,1.05794 0.1136563,0.545613 0.2992151,1.144909 0.4970256,1.6927 0.1092232,0.30243 0.4526918,1.141363 0.7792329,1.007559 0.3975562,-0.162902 -0.02128,-1.186259 -0.080608,-1.491189 -0.020797,-0.10696 -0.1065628,-0.268574 -0.040304,-0.389561 0.1043869,-0.190792 0.3546733,-0.178621 0.5374105,-0.416485 0.5961731,-0.776143 1.2128203,-2.95207 -0.1746766,-3.318257 -0.7476343,-0.197241 -1.4131304,0.542309 -1.4509349,1.222532 -0.013221,0.238268 -0.1064826,0.393273 0.040304,0.64484 0.1216366,0.208521 0.2353739,0.252291 0.3358913,0.403022 0.2151415,0.322743 0.5868631,1.237885 0.6968924,1.536529 M 14.210137,25.48004 c 0.603675,-0.639862 1.285886,-1.488498 1.129186,-2.115281 -0.0927,-0.37054 -0.364105,-0.931067 -0.752391,-0.403024 -0.534509,0.726894 -0.421577,2.22606 -0.282126,3.06298 0.05707,0.342329 0.186687,1.042946 0.658321,1.115006 0.421739,0.06448 1.024683,-0.885845 1.222574,-1.19561 0.191282,-0.299366 0.362895,-0.62743 0.470184,-0.96726 M 7.7084515,26.991974 7.5875402,25.7829 7.4187683,25.10532 6.5799463,22.316895 m 3.3855155,4.675079 c 0,-0.749464 -0.2311822,-1.653931 -0.6583216,-2.256935 -0.1949894,-0.275347 -0.534589,-0.775821 -0.9403669,-0.523931 -0.2486745,0.154276 -0.5744495,0.698742 -0.6465934,0.924437 -0.075126,0.235367 -0.052919,0.436414 -0.1729435,0.566751 m 3.9497686,1.262835 c 0.38611,0.07827 0.682261,-0.577532 0.819536,-0.859811 0.421335,-0.866743 0.113012,-1.570746 -0.32243,-2.418142 -0.14864,-0.289211 -0.363782,-0.790411 -0.738929,-0.806048 -0.421497,-0.01757 -0.539667,0.391577 -0.564253,0.644838 -0.02958,0.304041 0.0765,0.593252 0.08061,0.886652 0.0052,0.370217 -0.04127,0.719477 0.01346,1.047861 0.05441,0.326851 0.281643,1.417274 0.712007,1.50465 M 26.49,26.750157 c 0.250932,-0.414632 0.246984,-0.96226 0,-1.370281 m -8.544396,1.209074 -0.32243,-2.498748 -0.403038,-0.967259 m 6.20678,3.466007 c 0,-0.590674 0.101323,-1.00869 0.32243,-1.81361 0.325653,-0.804757 0.375792,-1.420657 0.631399,-2.055421 0.174354,-0.432846 0.300261,-0.754541 0.497106,-1.128467 m -5.158881,4.836287 c 0,-0.860535 -0.120428,-2.087745 -0.403038,-2.901771 -0.09834,-0.283245 -0.299054,-0.886652 -0.64486,-0.886652 -0.328153,0 -0.617051,0.46525 -0.725468,0.725443 -0.09342,0.224241 -0.259506,0.4866 -0.37155,0.608312 m 3.515243,2.212855 c 0,-0.942354 0.177256,-2.612401 -0.241822,-3.304796 m 9.431079,2.659957 0.913525,-1.585253 0.779232,-0.16121 0.806076,-0.282117 0.644857,-0.470167 M 22.379019,22.236292 c 0.245367,0.310812 0.331135,0.715931 0.497106,1.047862 0.346047,0.692153 0.535665,1.198728 0.964061,1.682922 0.419667,0.474324 0.807853,1.438656 1.521309,1.138244 m 16.191423,-4.137561 c 0.02507,0.238028 0.05179,0.411606 -0.05646,0.671557 -0.226832,0.544322 -0.724581,1.393495 -0.161218,2.015117 0.357739,0.394803 0.815186,0.165322 1.195655,-0.06714 0.844445,-0.516032 1.383224,-1.550835 1.289717,-2.512209 -0.09004,-0.926389 -0.912231,-1.667712 -1.679296,-0.940416 -0.228197,0.216344 -0.211192,0.568183 -0.497104,0.765746 -0.219092,0.151456 -0.457532,0.0723 -0.631399,-0.08061 -0.34113,-0.299849 -0.332989,-0.77727 -0.268746,-1.034399 0.10898,-0.43583 0.792371,-1.047702 1.141966,-1.222533 0.198941,-0.09947 0.463089,-0.09745 0.644862,0.0403 0.426733,0.323547 0.229826,0.854811 0.219992,1.229866 m -6.507379,1.40325 c -0.433989,0.137028 -0.806075,0.10551 -1.128507,0.335879 -0.433828,0.309845 -0.307999,1.49941 0.322432,1.66578 0.718859,0.189743 1.716538,-0.655157 2.1764,-1.115008 m 17.37092,-2.095724 c 0.170163,0.288325 0.585855,0.128565 0.846382,0.08061 0,0.187808 0.01371,0.343538 -0.05377,0.564232 -0.153796,0.503378 -0.586015,1.602343 -0.13429,2.176329 0.573844,0.72923 1.553305,-0.957502 1.719598,-1.370281 0.122041,-0.303072 0.199747,-0.540131 0.161216,-0.886653 -0.04732,-0.425834 -0.524996,-0.717382 -0.886681,-0.832889 -0.146624,-0.04683 -0.280513,-0.02273 -0.376197,-0.147828 -0.09608,-0.125663 -0.02716,-0.286469 0,-0.389564 0.07754,-0.293803 0.312276,-0.764455 0.228444,-1.047862 -0.101246,-0.342329 -0.355077,-0.260353 -0.577717,-0.241814 -0.785114,-0.174037 -1.19361,1.575924 -0.926985,2.095724 z m -23.791811,2.93326 c 0.157752,-0.37457 0.432468,-1.321534 0.643418,-1.929051 0.130906,-0.376991 0.111978,-0.500751 0.282704,-0.762395 0.144529,-0.221339 0.169759,-0.860535 0.221275,-0.531488 0.390073,0.982514 0.437047,2.023161 0.472313,2.725452 l 0.609591,1.997484 M 45.51337,23.606573 c 1.051449,0 2.066297,-1.537375 0.886684,-2.176329 -0.453092,-0.245442 -1.211853,0.299446 -1.504698,-0.08061 -0.382567,-0.496605 0.117204,-1.032546 0.214979,-1.249374 0.591177,0.369815 1.692352,-0.02313 2.1764,-0.201512 m 1.074741,3.143588 c 0.419081,0.595024 1.040161,0.258176 1.424094,-0.16121 0.383852,-0.419306 0.621647,-0.941465 0.564254,-1.531492 -0.03942,-0.405603 -0.173872,-1.12629 -0.564254,-1.329978 -0.262701,-0.137028 -0.509036,-0.0035 -0.725465,0.08061 -1.038653,0.20912 -1.102976,2.315674 -0.698629,2.942075 z m 4.567787,-0.0806 c 0,-1.161355 -0.182094,-2.69881 0.322432,-3.707821 m -18.700943,3.627216 0.581885,-0.332495 m 0.01008,-0.01008 c 0.15517,-0.842481 1.319241,-2.078557 -0.269531,-1.99497 m -14.428745,1.209073 c -0.08586,-0.421364 -0.05712,-0.449736 0,-0.725443 m 30.550245,-1.209072 c -0.205067,0.708437 0.783557,2.312741 1.888201,1.23715 m 2.948253,0.05253 c 0.150447,-0.138199 0.343099,-0.18145 0.420668,-0.483629 M 23.910559,15.868513 c -0.205306,0.300091 -0.246334,0.401975 -0.241821,0.725443 0.0112,0.808143 1.062084,1.650384 1.665915,0.725443 0.540555,-0.828134 -0.433749,-2.187292 -1.021056,-2.740562 -0.251898,-0.237301 -0.771735,-0.433091 -0.85984,-0.806048 -0.167824,-0.710693 0.92473,-0.725443 1.18227,-0.725443 M 6.4993392,17.561215 c 1.0684525,0.196836 2.4392635,-0.780337 1.2762584,-1.827071 -0.3753083,-0.337734 -0.8822491,-0.414711 -1.356866,-0.322418 -0.1974887,0.03845 -0.3940098,0.113975 -0.5642527,0.01346 -0.2947816,-0.173944 -0.045624,-0.9758 0.01346,-1.329978 0.026842,-0.161211 0.093344,-0.338057 0.2283613,-0.416485 0.091892,-0.05328 0.1680665,-0.07287 0.32243,-0.06715 0.2946201,0.01088 0.5714263,0.13058 0.8866825,0.161211 0.4376985,0.04256 0.9618086,0.08061 1.4509351,0.08061 M 4.48415,17.561215 C 4.368881,17.248385 4.3033472,17.066865 4.255789,16.755166 4.111582,15.811686 4.182678,14.122854 3.6780748,13.289159 m 15.1542122,4.03024 c -0.254398,-0.878753 0.104306,-2.082506 0.241821,-2.982378 0.04353,-0.284696 0.343552,-0.774611 0.06715,-1.034399 -0.174838,-0.164435 -0.526448,0.01764 -0.712006,0.05368 -0.650341,0.126467 -1.322286,0.480968 -1.93458,0.49709 m -6.206779,3.277953 c 0.534267,0.185794 0.92207,-0.554398 1.141967,-0.940416 0.414161,-0.727376 0.297039,-1.326432 0.09399,-2.095724 -0.09931,-0.376424 -0.339278,-1.008123 -0.752311,-1.16877 -0.397798,-0.15468 -0.9381909,0.488789 -1.0747401,0.685141 -0.4179498,0.600749 -0.2324718,1.142654 -0.2149799,1.773305 0.01185,0.426563 0.2896224,1.566797 0.806075,1.746464 m 4.030376,-0.05376 c 0.966887,0.330802 1.671961,-1.016829 1.115044,-1.773305 -0.389013,-0.528527 -1.141242,-0.875289 -1.759904,-0.711983 -0.295507,0.07794 -0.714908,0.414067 -0.926987,0.147748 -0.309693,-0.388918 -0.178787,-1.545596 0.0403,-1.85391 0.273179,0.129371 1.255946,0.564234 1.853973,0.564234 m 17.733652,-1.047862 c -0.06682,0.846431 -0.09342,2.059854 -0.08061,2.982376 0.0062,0.449535 0.155493,1.173527 0.644861,1.34344 0.278821,0.09681 0.522419,-0.05489 0.725468,-0.201511 0.146141,-0.105592 0.199261,-0.144122 0.322428,-0.255276 0.170646,-0.154036 0.281402,-0.268736 0.389579,-0.403024 0.121152,-0.150408 0.339033,-0.586642 0.403035,-0.806048 0.113013,-0.387467 0.279146,-1.209717 -0.147751,-1.410584 -0.345565,-0.162579 -0.554984,0.348053 -0.658322,0.604538 -0.179352,0.445339 -0.276405,1.094934 -0.161216,1.531489 0.04861,0.18394 0.09169,0.287266 0.214857,0.419054 m -6.871666,0.517977 c -0.06384,-0.107081 -0.136073,-0.105164 -0.181367,-0.453402 m 15.234818,-0.725443 c -0.149122,-0.354096 -0.221992,-0.975719 -0.241822,-1.450886 -0.0092,-0.219808 0.01435,-0.352163 -0.02684,-0.564232 -0.08504,-0.437281 -0.08464,-0.925748 0.107451,-1.289678 0.207484,-0.39311 0.724823,-1.469103 1.370325,-1.128467 0.476149,0.251325 0.511617,0.883347 0.349274,1.37028 -0.218285,0.654834 -1.267613,1.264871 -1.807763,1.151138 m 2.828817,-2.118394 c 0,0.906724 -0.03232,2.741128 0.658322,3.627215 0.409002,0.524819 1.221122,-0.355547 1.598691,-0.564232 m -7.738323,-0.64484 c -0.09318,-0.505795 0.01563,-1.095015 -0.349274,-1.53149 -0.279705,-0.33451 -0.64663,-0.05086 -0.832994,0.161209 -0.237955,0.270751 -0.418596,0.295416 -0.429881,0.725443 m -1.450936,0.483629 -0.08061,-1.531491 -0.0806,-0.443327 -0.967295,0.0403 m 2.573643,1.346642 C 37.650929,12.707006 36.873896,11.128614 36.10458,11.816898 M 2.3883562,10.226178 C 2.8803843,10.070771 3.2284476,9.9539762 3.6780762,9.7290888 3.9331184,9.6016508 4.1504363,9.4772789 4.403544,9.3260649 4.8379376,9.0666784 5.4079134,8.7391803 4.9677963,8.2110577 4.8520439,8.0721771 4.7002601,7.8630073 4.5512972,7.7677309 3.8108367,7.2943399 1.864891,7.2146212 1.4479084,6.2765421 1.108712,5.513296 1.8494948,4.4287596 2.6301786,4.3420286 3.2620609,4.2718219 3.9065178,4.444235 4.403544,4.7450528 M 6.6605538,9.7425489 C 7.0879352,9.3943363 6.662656,8.0604876 6.5664848,7.5662198 6.5230376,7.3428635 6.4827338,7.2449297 6.4455739,7.0019851 6.4068017,6.7480801 6.3531171,6.6265301 6.338124,6.3571474 6.3096693,5.8447424 6.1380563,5.1934567 6.0963016,4.6644475 M 12.625509,9.6619436 C 12.518705,9.4082009 12.530957,9.0866686 12.450833,8.8558954 12.002333,7.5642847 11.980649,5.8573183 11.980649,4.5032369 m 3.950222,2.5526366 c 0.425688,-0.033612 1.102499,-0.4085488 1.128051,-1.0211451 0.0089,-0.214409 -0.142111,-0.5956698 -0.403037,-0.5507723 -0.394413,0.067789 -0.593433,0.744949 -0.64486,1.1150072 -0.02563,0.1845845 -0.02217,0.3667496 -0.10745,0.5373921 -0.118251,0.2364122 -0.0898,0.7039198 -0.05377,1.0747023 0.113656,1.1688497 1.277548,1.3242568 2.015187,0.6448377 M 10.046069,7.8080336 C 9.7250096,8.1565683 9.6531076,8.6528538 9.1593868,8.896198 8.5078364,9.2174084 8.5951341,8.1290837 8.5951341,7.8080336 c 0,-0.8573915 0.3320224,-2.0707369 1.1763657,-2.3413174 0.5380692,0.4718905 0.2161288,1.2404992 0.2611082,1.5352689 0.03974,0.2599509 -0.049735,0.5157913 0.02692,0.8060485 0.08407,0.3187127 0.182334,0.4130202 0.282126,0.7254429 0.149527,0.4682342 0.633414,1.5319755 0.913525,0.564235 M 14.963127,8.9365007 C 14.486807,8.4909258 14.249114,8.0552933 13.333344,7.5914085 L 12.351807,7.3143297 13.512192,4.3420286 m 7.415891,0.080605 c 0,-0.2826006 -0.0711,-0.6465331 -0.147753,-0.8866537 -0.04901,-0.1533918 -0.11124,-0.3761816 -0.335893,-0.3761816 -0.167664,0 -0.296475,0.1815207 -0.389575,0.2955763 -0.265683,0.3251607 -0.374181,0.8829455 -0.470265,1.2896779 -0.04353,0.1845847 -0.02684,0.3042817 -0.02684,0.4836273 0,0.2225499 -0.06118,0.4121339 -0.08061,0.64484 -0.04901,0.5883332 0.06698,1.3652017 0.33589,1.9345135 0.423836,0.8975342 1.072564,0.9456556 1.759905,0.4030241 m 1.128505,0.3627215 c 0.387158,0.1936123 0.687464,-0.3690595 0.826996,-0.6049895 0.110109,-0.1861157 0.14126,-0.2815018 0.261206,-0.4966353 0.08609,-0.1544382 0.08886,-0.412415 0.06384,-0.575963 -0.07859,-0.5141759 -0.04675,-0.9900276 -0.104143,-1.5063007 -0.02056,-0.1850692 -0.07432,-0.354743 -0.241822,-0.4567869 -0.317754,-0.1936123 -0.624951,0.2507609 -0.752311,0.5373922 -0.329282,0.7408384 -0.493076,1.6798839 -0.32243,2.4987481 0.04957,0.2380254 0.03297,0.4866913 0.268666,0.6045351 m 7.496498,-0.040303 C 30.150632,7.9341806 29.949517,6.9582987 29.673999,6.3571474 29.566954,6.1235546 29.384296,5.7451155 29.069443,5.8063749 28.433611,5.9300225 28.548557,6.5220662 28.263367,6.8407768 L 28.166781,6.3269204 27.86033,4.6644475 27.779724,3.6971908 m -2.660049,4.1108428 c -0.106483,0.5057149 1.004532,1.0939682 1.262878,0 C 26.564485,7.037613 25.50248,6.5817924 25.039067,6.1690964 24.395738,5.5960763 25.007793,5.0650521 25.442105,4.7450528 m -1.678944,2.7650615 c 0.195391,0.2474571 0.258558,0.6576589 0.550438,0.8218513 0.360479,0.2027197 0.510487,-0.099145 0.725468,-0.3627215 M 35.67926,2.1656993 C 35.323781,1.9224325 34.885841,1.728256 34.470146,2.0985541 c -0.259315,0.2308531 -0.505249,0.7884778 -0.564251,1.1150072 -0.251898,1.3950261 -0.341859,3.0895012 0.188057,4.433264 0.15122,0.3832761 0.554982,0.667972 0.940448,0.4836271 0.32267,-0.1543582 0.639216,-0.6395186 0.725468,-0.9672567 m 3.389293,-1.2027735 c 0.118493,-0.2814719 0.09295,-0.6219568 0.332114,-0.8929504 0.119863,-0.1359012 0.285267,-0.3055727 0.45672,-0.1477481 0.440922,0.4056013 -0.367651,1.325141 -0.792613,1.0343994 -0.386031,0.6377457 -0.04941,1.7514619 0.725468,1.9882785 0.329846,0.1007578 0.598429,-0.1087342 0.886683,-0.2149733 m 8.141356,0.1612106 c 0.442295,-0.034901 1.782153,-0.8159624 1.773365,-1.4508862 -0.01282,-0.9232482 -1.438926,-0.6369391 -1.853973,-0.9807191 -0.680084,-0.5631039 0.55184,-1.3375549 1.0479,-1.5986344 M 4.6453663,7.7274283 C 5.0462275,7.3688195 6.0660533,7.2687191 6.4507929,6.9953058 M 43.033432,4.9679747 c -3.160741,0.4627713 -2.056976,2.1880888 -1.228006,2.7594536 0.450071,0.3102075 0.991777,-0.715992 1.162908,-1.1561749 0.08448,-0.2171486 0.05797,-0.6023792 0.08651,-0.8589439 0.02797,-0.2516477 -0.01476,-0.8731913 -0.05377,-1.1284673 C 42.921842,4.0650693 42.853326,3.2848969 42.853326,2.7299318 M 28.263365,7.5662198 V 6.8407768 M 43.044249,5.8551426 c 0.104465,0.1417824 0.184419,0.370963 0.244392,0.5985098 0.157752,0.5977653 0.324655,1.1927947 0.787021,0.8764214 m 2.808038,0.074935 c 0.464137,-0.050134 0.265037,-0.7326151 0.241822,-1.2896756 -0.0055,-0.1305796 0.0057,-0.2651898 0,-0.4030241 C 46.981593,4.6560014 46.711797,3.6800916 46.964308,2.4075129 m -9.834115,4.9168933 c -0.175321,-0.35055 -0.204422,-0.7437403 -0.241824,-1.1284673 -0.01241,-0.1278402 -0.03482,-0.3517608 0.01346,-0.4701693 0.08996,-0.2209367 0.273663,-0.2453598 0.403038,-0.4970895 0.305741,-0.5950233 1.317122,-1.511259 1.598686,-0.5642326 M 45.11033,7.0825904 C 44.83038,6.1154936 44.949116,5.4211658 44.949116,4.5032369 M 6.4628138,6.9818356 C 6.8679471,6.8112753 7.5715799,6.7698432 8.272704,6.4377527 M 36.887112,5.7777999 36.807761,5.1480771 m 9.592293,0.080603 0.660436,-0.082823 C 47.72181,4.9010132 47.890324,4.9062613 48.495849,4.9062613 M 44.691268,2.8109915 44.626689,2.4075129"
       id="path300"
       sodipodi:nodetypes="ccscccccscccscccccccccccccscccccccccscccsccccccsccccccccscccccscccccccccccccccccccccccccccccccccccccccscccccccccccccccccccccccccscccccccccccscccccccccccccccccsccccccccccscccccccccccccccccccccccccccccccccccccccccsccccccccccccccccccccccccccccssccccccscccccccccccccccccccccccscccscccccccccccccccccssccccccccccccsccccccccccscscccccccccccccccccccccccscccccccccccccscccccccccccsccccccccccccscscccccsccscccccccccccsccccccccsccccccccccsccccccccccccccccsccccccccccccccsscccccccccccacccccccccccccccccccccccsccccccsccccccccccscccccccccccccccccccsccccccccccccccccccccccccccccccccccsccsccccccccccscccccccccccccccccccccccccccccccccccccccccscccccccccccsccscccccccccccccccccccccccccccccccccccccccccccccaccccccccccccccccccccccccccccc" />
  </g>
</svg>
