<?xml version="1.0" encoding="UTF-8" standalone="no"?>
<!-- Created with Inkscape (http://www.inkscape.org/) -->

<svg
   width="3000"
   height="1998.207"
   viewBox="0 0 793.74998 528.69228"
   version="1.1"
   id="svg202"
   inkscape:version="1.2.1 (9c6d41e410, 2022-07-14)"
   sodipodi:docname="MonicaG - Stake - Envelope6.svg"
   xmlns:inkscape="http://www.inkscape.org/namespaces/inkscape"
   xmlns:sodipodi="http://sodipodi.sourceforge.net/DTD/sodipodi-0.dtd"
   xmlns="http://www.w3.org/2000/svg"
   xmlns:svg="http://www.w3.org/2000/svg">
  <sodipodi:namedview
     id="namedview204"
     pagecolor="#ffffff"
     bordercolor="#000000"
     borderopacity="0.25"
     inkscape:showpageshadow="2"
     inkscape:pageopacity="0.0"
     inkscape:pagecheckerboard="0"
     inkscape:deskcolor="#d1d1d1"
     inkscape:document-units="mm"
     showgrid="false"
     inkscape:zoom="1"
     inkscape:cx="371"
     inkscape:cy="747.5"
     inkscape:window-width="1920"
     inkscape:window-height="1058"
     inkscape:window-x="-6"
     inkscape:window-y="-6"
     inkscape:window-maximized="1"
     inkscape:current-layer="layer1"
     showguides="true" />
  <defs
     id="defs199">
    <pattern
       id="EMFhbasepattern"
       patternUnits="userSpaceOnUse"
       width="6"
       height="6"
       x="0"
       y="0" />
    <pattern
       id="EMFhbasepattern-0"
       patternUnits="userSpaceOnUse"
       width="6"
       height="6"
       x="0"
       y="0" />
    <pattern
       id="EMFhbasepattern-7"
       patternUnits="userSpaceOnUse"
       width="6"
       height="6"
       x="0"
       y="0" />
    <pattern
       id="EMFhbasepattern-1"
       patternUnits="userSpaceOnUse"
       width="6"
       height="6"
       x="0"
       y="0" />
    <pattern
       id="EMFhbasepattern-3"
       patternUnits="userSpaceOnUse"
       width="6"
       height="6"
       x="0"
       y="0" />
  </defs>
  <g
     inkscape:label="Layer 1"
     inkscape:groupmode="layer"
     id="layer1">
    <path
       d="m 573.9446,135.67918 -0.59532,-1.52136"
       style="fill:none;stroke:#7c85ac;stroke-width:0.264583"
       id="path467"
       sodipodi:nodetypes="cc" />
    <path
       style="fill:none;stroke:#7a84af;stroke-width:0.0627279"
       d="m 108.26129,111.125 c 0,-0.67803 0.10004,-1.16857 0.37752,-1.75104 m -24.454984,-2.56401 c 0.113255,0.57734 0.137164,1.21028 0.220218,1.75103 0.04153,0.26823 0.105705,0.47528 0.136534,0.75045 0.02014,0.17841 0.04719,0.46502 0.06292,0.62536 0.01196,0.12351 -0.0409,0.25109 0.07362,0.36479 0.176804,0.17566 0.617241,0.0208 0.870179,-0.11464 0.514053,-0.27522 1.319425,-1.09064 1.436457,-1.68849 0.06606,-0.33795 -0.01824,-0.58704 -0.06292,-0.87552 -0.09816,-0.63857 -0.724835,-1.32523 -1.164013,-1.76149 -0.135277,-0.13457 -0.222108,-0.18335 -0.398282,-0.27097 -0.252307,-0.12551 -0.39891,-0.15634 -0.880876,0.18761 -0.220218,0.64057 -0.353608,0.72574 -0.293833,1.03187 z m 10.549739,-1.12567 c -0.146601,0.50261 -0.259856,1.17576 -0.115141,1.75103 0.06229,0.24953 0.115141,0.31838 0.115141,0.56284 0,0.20693 7.13e-4,0.35727 0.05223,0.56283 0.06292,0.2484 0.111367,0.40593 0.157299,0.62537 0.08368,0.39742 0.0906,0.81092 0.482593,1.06313 m -4.970654,-1.81358 c -0.197567,0.15997 -0.356754,0.28155 -0.514054,0.56284 -0.147861,0.26497 -0.50147,0.75045 -0.807258,0.5941 -0.160446,-0.0822 -0.17932,-0.18023 -0.188759,-0.34395 -0.02076,-0.36772 -0.03838,-0.76677 0.09438,-1.06313 0.07613,-0.17066 0.07047,-0.312 0.136537,-0.5003 0.09186,-0.26271 0.284397,-0.68371 0.58704,-0.6879 0.168624,-0.002 0.429742,0.24803 0.503358,0.37522 0.207006,0.35634 0.254824,0.56952 0.230915,1.0006 -0.01258,0.22587 0.07802,0.30142 0.08368,0.50028 0.0038,0.13678 0.118289,0.74333 0.12584,0.87553 0.0082,0.15102 0.04404,0.31074 0.251677,0.35439 0.183097,0.0384 0.321523,-0.12876 0.503359,-0.16679 m 25.167872,0.18761 0.25167,-1.12566 c 0.15279,-0.58591 0.3171,-1.16859 0.48259,-1.75104 l 0.64996,-1.25074 0.56627,-0.50028 m -0.44043,3.62713 -0.6399,-0.66707 c 0,0 -0.11673,-0.1567 -0.17273,-0.23671 -0.1,-0.1428 -0.2913,-0.43422 -0.2913,-0.43422 l -0.38538,-0.42348 -0.52412,-0.86507 m -22.588159,3.50208 c -0.113883,-0.39036 -0.293833,-0.4382 -0.314598,-0.81299 -0.0063,-0.11381 0.0075,-0.20074 -0.03146,-0.31269 -0.146603,-0.41943 -0.307046,-1.11652 -0.419674,-1.56342 -0.04719,-0.18779 -0.05222,-0.30937 -0.05222,-0.50029 0,-0.21238 -0.04845,-0.30744 -0.105078,-0.5003 -0.154781,-0.52769 0.122694,-1.27156 0.230915,-1.56342 m 8.368314,5.19056 c 1.63945,-0.52537 0.9968,-1.38134 -1e-5,-1.84483 -0.13024,-0.063 -0.25923,-0.10619 -0.35675,-0.22932 -0.21519,-0.2731 0.0554,-0.50962 0.29383,-0.69829 0.44296,-0.35096 0.92744,-0.45202 1.38423,-0.66709 m 10.94804,3.06432 0.25168,-1.0006 0.0629,-0.75044 -0.0522,-0.31269 -0.0107,-1.56342 -0.12867,-0.93415 0.44327,-0.20587 c 0.54451,-0.33786 0.88834,-0.3433 1.32131,-0.49638 l 0.75504,0.0104 m -17.428749,4.18997 c -0.17932,0.14083 -0.262374,0.12388 -0.42974,0.2606 -0.222107,0.18066 -0.424078,0.61692 -0.765733,0.50028 -0.389472,-0.1332 -0.100671,-1.08914 -0.04216,-1.32372 0.576624,-1.21167 1.266333,-0.60393 1.269096,0.56283 0.0025,0.19555 0.09186,0.24121 0.09438,0.43776 0.0063,0.45678 0.102559,0.96533 0.440437,0.93805 m 29.131799,-0.75044 c -0.0472,-0.25621 0.0434,-0.33638 0.0629,-0.6879 0.0233,-0.42112 0.24791,-0.84418 0.36683,-1.25074 0.0466,-0.15696 0.0787,-0.35459 0.11577,-0.50029 0.20478,-0.75108 0.18791,-0.50241 -0.35676,-0.5003 -0.38758,0 -0.79719,0.0439 -1.13255,-0.0208 -0.30767,-0.0594 -0.4958,-0.12325 -0.75503,-0.18761 -0.66255,-0.16459 -0.84187,-0.49147 -1.32131,-0.66708 m 14.7232,3.81475 c -0.13087,-0.44838 -0.0629,-1.12334 -0.0629,-1.56341 0,-0.18505 -0.005,-0.2828 0.0315,-0.5003 0.0919,-0.54739 0.0466,-1.34086 0.4719,-1.81357 m 1.61514,0.81298 c -0.11829,0.21613 -0.0761,0.30536 -0.11577,0.56283 -0.0868,0.56796 -0.17806,1.01259 -0.17806,1.62596 0,0.25309 -0.008,0.64488 0.25168,0.78172 0.19945,0.105 0.4052,-0.0129 0.56627,-0.073 0.50651,-0.18874 1.21938,-0.69697 1.405,-1.20903 0.0529,-0.14458 0.0667,-0.23564 0.11577,-0.37522 0.0503,-0.14402 0.0547,-0.20781 0.0522,-0.37522 -0.009,-0.62049 -0.48322,-1.50952 -1.06963,-1.79275 -0.77128,-0.4594 -0.76129,0.38242 -1.02748,0.85469 z m -11.17893,2.81416 c 0.5581,0.33589 1.06586,-0.19868 1.37353,-0.68791 0.14849,-0.23551 0.17744,-0.46001 0.0843,-0.75044 -0.11766,-0.3664 -0.44044,-0.75869 -0.76574,-0.90679 -0.29572,-0.1347 -0.67638,0.0435 -0.79719,-0.34395 -0.11199,-0.35965 0.28377,-0.58648 0.60844,-0.63581 0.40834,-0.062 0.88402,-0.0211 1.25839,-0.0521 0.26866,-0.0223 0.55432,-0.12583 0.81795,-0.18762 m 0.50336,1.06313 c 0.0969,-0.29774 0.56061,-0.46934 0.88087,-0.50029 0.25609,-0.0247 0.4719,-0.01 0.59774,0.18761 0.27873,0.43845 -0.0201,0.9368 -0.3039,1.31328 -0.16296,0.21537 -0.42219,0.5844 -0.52475,0.81297 -0.0365,0.0826 -0.10319,0.19231 -0.073,0.31269 0.0434,0.1776 0.45428,0.18761 0.6185,0.18761 0.66695,0 1.35718,-0.0159 1.95052,-0.0625 m 0.6292,-3.12685 c -0.0994,0.53563 7.1e-4,1.62352 0.75503,1.86567 0.29132,0.0935 0.74497,-0.1015 0.9438,-0.15634 0.21455,-0.0591 0.27873,-0.0989 0.50336,-0.1459 m -28.1251,-1.12567 c 0.24916,-0.42776 0.83683,-0.72049 1.2584,-0.90679 0.15919,-0.0704 0.26552,-0.0313 0.44044,-0.0313 m -35.172099,-3.18939 -0.12584,-0.56284 -0.05222,-0.37521 -0.136536,-1.0006 -0.105075,-0.625365 -0.209522,-2.251335 m 22.147723,3.93984 c 0.597729,-0.0626 0.314589,-1.222922 0.314589,-1.876117 m 0,0 C 100.17472,98.51654 100.14288,97.9249 99.98739,97.491969 99.836383,97.075914 99.618681,96.598187 99.704253,96.303768 M 81.20587,100.18106 c 0.03901,0.18398 0.07487,0.46896 0.251678,0.60454 0.232803,0.17805 0.437921,0.036 0.629196,-0.0418 0.451136,-0.18304 1.017413,-1.034417 0.943795,-1.563412 -0.02957,-0.212569 -0.186871,-0.464528 -0.335359,-0.614927 -0.15038,-0.15203 -0.434778,-0.225133 -0.471899,-0.385671 -0.03209,-0.137518 0.06795,-0.357711 0.12584,-0.500289 0.04908,-0.122013 0.09627,-0.19456 0.157299,-0.312687 0.103818,-0.201437 0.172399,-0.567398 0.05222,-0.812986 -0.380665,-0.778517 -1.834108,-0.362214 -1.91905,0.437762 m 8.053716,3.28319 c 0.53356,0.21651 1.060197,-0.505484 1.206172,-0.906789 0.11703,-0.322249 0.178063,-0.493789 0.178063,-0.875514 0,-0.291735 -0.08117,-0.611797 -0.136537,-0.875513 -0.0258,-0.123137 -0.07487,-0.200126 -0.135906,-0.312687 -0.181837,-0.332695 -0.356126,-0.946002 -0.734273,-1.125663 -0.32781,-0.155787 -0.892201,-0.02167 -1.184777,0.312677 -0.37563,0.429065 -0.182467,0.969448 -0.188759,1.43835 -0.0025,0.184421 0.02957,0.520565 0.05222,0.750448 0.05537,0.567707 0.36116,1.358051 0.943795,1.594691 m 23.657796,0.0313 -0.12584,-0.812985 -0.12584,-1.876102 c -0.0914,-0.666114 -0.0488,-1.201578 -0.12584,-1.876111 -0.0453,-0.404615 0.073,-0.854443 0.12584,-1.188201 m -0.86515,2.665632 c 0.18562,0.07275 1.14891,-0.15203 1.3685,-0.164156 0.20323,-0.01123 0.78777,-0.04413 1.00673,-0.08339 m 1.60445,1.27156 c 0.0912,0.260656 -0.0308,0.616369 -0.1573,0.875524 -0.15101,0.308681 -0.46372,0.505169 -0.81796,0.500289 -0.19442,-0.003 -0.30327,-0.110305 -0.41967,-0.25014 -0.41453,-0.806535 -0.21057,-1.625017 0.24649,-1.828165 0.47252,-0.210025 0.82797,-0.310967 1.14844,0.702492 z m 10.97947,2.063723 c 0,-0.765634 -0.1661,-1.522464 0.0629,-2.063723 0.13213,0.03797 0.41338,0.100247 0.50335,0.07295 0.15164,-0.04612 0.16045,-0.113505 0.3146,-0.260586 0.19316,-0.184113 0.30579,-0.257971 0.45113,-0.437761 0.0912,-0.11288 0.1378,-0.186986 0.19883,-0.312687 0.17806,-0.364152 0.23343,-0.885582 0.16799,-1.313275 -0.11262,-0.733185 -0.96392,-1.197454 -1.6359,-1.188201 -0.39136,0.005 -0.82048,0.22557 -1.13256,0.437762 M 85.295614,100.24355 85.064699,98.992806 84.918097,97.429382 84.781562,96.99162 84.603499,96.178644 m 24.161151,3.627139 c 0.1617,0.497607 0.92492,0.08478 0.88087,-0.437762 -0.0126,-0.152458 -0.0428,-0.302798 -0.0736,-0.437752 -0.12207,-0.540384 -1.39556,-0.886526 -0.92241,-1.563425 0.27811,-0.397925 0.72987,-0.601858 1.12186,-0.437761 m -4.2864,1.328909 c 0.31146,-0.0326 1.60036,-0.328381 1.89546,-0.640998 0.33913,-0.358904 -0.001,-0.849324 -0.44044,-0.812986 -0.8211,0.06808 -1.38486,0.942811 -1.49937,1.625962 -0.0862,0.510924 0.0579,1.346363 0.6185,1.542603 0.31334,0.109557 0.49077,-0.05596 0.75503,-0.104252 m -15.100719,0 c -0.160444,-0.337258 -0.137793,-0.884152 -0.209522,-1.250739 -0.02642,-0.133324 -0.04027,-0.237895 -0.04216,-0.375224 -0.0025,-0.184104 -0.06732,-0.247268 -0.115144,-0.437752 -0.134646,-0.534639 -0.101929,-1.56262 -0.136535,-2.001186 m 11.82889,4.064901 c 0.0245,-0.467094 -0.0629,-0.671463 -0.0629,-1.188202 0,-0.207252 -0.0529,-0.343896 0.0314,-0.489853 0.09,-0.156283 0.20135,-0.270038 0.3146,-0.437761 0.15227,-0.224755 0.54174,-0.670647 0.7865,-0.792154 0.2479,-0.123256 0.48259,-0.04224 0.69211,-0.03131 m 21.95897,1.500887 c 0.15101,0.300492 0.57572,0.903969 1.13255,1.042303 0.30328,0.07534 0.50336,-0.03668 0.81796,0.02077 m 1.76176,-0.03131 c 0.45679,0.226952 1.16653,-0.590099 1.42638,-0.906782 0.0686,-0.08389 0.12207,-0.162416 0.17807,-0.250149 0.14031,-0.218255 0.69337,-0.345148 0.34605,-0.812986 l -0.12583,-0.125075 -0.12584,-0.09383 c -0.17492,-0.08707 -0.79468,-0.193238 -1.06964,-0.04174 -0.45994,0.25321 -0.8557,1.068572 -0.93309,1.57387 -0.0434,0.281349 0.0327,0.521808 0.3039,0.656643 m 2.64262,-0.156344 -0.37752,-1.125673 -0.25167,-0.312677 m -51.279537,1.250738 0.591913,-0.516102 0.414801,-0.421959 m 35.235013,0.938061 c 0.009,-0.358029 -0.0378,-0.886148 0.0736,-1.177764 0.0686,-0.180913 0.19426,-0.338101 0.28424,-0.446916 0.0994,-0.119827 0.57839,-0.364062 0.77469,-0.418221 0.63046,-0.173976 0.974,1.446421 1.00672,1.855289 m 20.51181,-0.125075 c 0.46058,0 1.14892,0.02833 1.41569,-0.437761 0.0541,-0.09502 0.0522,-0.210562 0.0522,-0.312687 0,-0.09144 0.006,-0.216307 -0.0522,-0.302241 -0.37814,-0.564079 -1.66422,-0.829366 -1.86682,-1.386249 -0.0761,-0.209945 0.0478,-0.427822 0.1573,-0.562836 0.15856,-0.195425 0.46372,-0.294548 0.67135,-0.406493 0.43478,-0.234009 0.6141,-0.192115 1.06964,-0.156344 m 5.85153,1.500888 c 0.0875,-0.412805 0.29446,-0.770009 0.81795,-1.094395 0.26426,-0.163599 0.61598,-0.36778 0.86011,-0.09383 0.32719,0.367283 -0.16862,0.802978 -0.48259,0.917228 -0.17051,0.06202 -0.48448,0.188925 -0.6292,0.218881 -0.24224,0.05019 -0.31711,0.08349 -0.56627,0.09383 -0.44736,0.01849 -0.50084,0.42994 -0.41968,0.771272 0.11703,0.491284 0.36808,0.81873 0.86011,1.063125 0.26112,0.129766 0.70974,0.07892 1.00672,0.06252 0.15415,-0.0089 0.24035,-0.07007 0.37751,-0.125075 0.66192,-0.265088 1.13948,-0.336631 1.69883,-0.687901 m -6.85824,0.562826 c 0.0604,-0.19117 0.2026,-0.280355 0.25168,-0.500299 0.0642,-0.287412 -0.0333,-0.798216 -0.0629,-1.063126 -0.0245,-0.218751 -0.0245,-0.268159 -0.0736,-0.500289 -0.0485,-0.233084 -0.10759,-0.303304 -0.11514,-0.562836 -0.017,-0.612552 -0.13087,-0.743312 -0.25168,-1.313275 m -44.798801,3.752213 0.566277,-0.06252 c 0.441404,0.06938 0.626954,-0.312915 0.943794,-0.448197 0.10319,-0.04145 0.55118,-0.275912 0.69212,-0.375225 0.33599,-0.236572 0.65814,-0.527055 0.58704,-0.990142 -0.10193,-0.666025 -1.3383,-1.104651 -1.845436,-1.125673 -0.484481,-0.02008 -0.534817,0.09303 -0.943795,0.125075 m 27.307131,2.8767 c -0.12835,-0.179164 -0.1164,-0.274163 -0.12584,-0.500299 -0.006,-0.150649 -0.0698,-0.28935 -0.10507,-0.437752 -0.12144,-0.51318 -0.1466,-1.073323 -0.1466,-1.500887 m 30.32728,2.438938 v -0.312687 -0.687901 l -0.12584,-1.876112 v -1.876112 m -53.16712,4.690274 -0.50336,-0.93805 m 76.57324,0.687901 c 0.30516,-0.0328 0.24602,-0.3008 0.25168,-0.687901 0.0101,-0.733622 0.27936,-1.400581 0.48259,-2.126262 0.0547,-0.19774 0.17303,-0.572894 0.0522,-0.739992 -0.11263,-0.155717 -0.78335,-0.07564 -0.97526,-0.07295 -0.18876,0.003 -0.34228,0.03588 -0.56627,0.07295 -0.36053,0.05973 -0.70156,0.05208 -1.06964,0.05208 m -59.69897,3.552883 c -0.19476,-0.618715 -0.29402,-0.783705 -0.3264,-1.176482 m 53.60757,-1.000588 c -0.0805,0.198803 -0.0598,0.330567 -0.0629,0.562826 -0.004,0.315689 -0.21204,0.573531 -0.10508,0.938061 0.10822,0.367025 0.28943,0.626119 0.73427,0.55239 0.4052,-0.06709 0.80915,-0.307995 1.05894,-0.63575 0.25356,-0.332138 0.22399,-0.790285 0.19945,-1.229915 -0.0145,-0.262097 -0.24916,-0.70767 -0.40897,-0.927615 -0.89378,-1.076812 -1.05395,-0.164205 -1.41569,0.740003 z m -3.64935,1.625962 c 0.39262,0.122699 0.6078,0.360206 1.06963,0.156343 0.15478,-0.06828 0.30076,-0.07802 0.42974,-0.177176 0.22715,-0.173916 0.37061,-0.373594 0.45115,-0.604541 0.10696,-0.305869 0.0862,-0.57528 -0.13654,-0.875513 -0.42912,-0.579535 -0.91423,-0.861758 -1.5623,-1.156932 -0.34229,-0.155906 -0.6594,-0.02187 -0.92303,-0.354402 -0.24224,-0.306246 0.0151,-0.796099 0.35675,-0.833808 0.10193,-0.01123 0.20072,0.03439 0.3146,0.03131 0.22714,-0.006 0.55747,-0.04294 0.75503,-0.07295 0.55307,-0.08389 1.15899,-0.114628 1.76176,-0.114628 m -11.8289,0.312687 c -0.0485,0.611359 -0.0629,2.217314 -0.0629,3.001774 0,0.434691 0.034,0.78778 0.3146,0.875514 m -25.6083,-0.06252 0.18875,-0.812976 v -1.063126 m 27.05546,1.844843 c 0.3901,0.196488 0.95889,-0.296675 1.19548,-0.531567 0.32844,-0.326314 0.46749,-0.752884 0.59773,-1.125663 0.1982,-0.568025 -0.0629,-1.583502 -0.66066,-1.876112 -0.3448,-0.168539 -0.80411,-0.07524 -1.06963,0.145897 -0.21456,0.178548 -0.22463,0.438826 -0.30391,0.667079 -0.0547,0.15685 -0.0717,0.219885 -0.0736,0.375224 -0.004,0.328322 0,0.785654 0,1.125663 0,0.412 -0.12206,0.999277 0.3146,1.219479 m 13.46481,-3.09558 c 0.0843,0 0.1724,0.02385 0.3146,-0.03131 0.15478,-0.05983 0.27621,-0.150529 0.44043,-0.198058 0.34606,-0.100247 1.05139,-0.392548 1.32132,0.04174 0.11137,0.179601 0.15352,0.39867 0.11514,0.625363 -0.0793,0.475601 -0.39262,0.935119 -0.64996,1.375813 -0.11577,0.198873 -0.48637,0.490668 -0.36682,0.812986 0.0661,0.179601 0.23091,0.187612 0.39828,0.187612 0.45302,0 0.99161,-0.01849 1.44715,-0.06252 0.21707,-0.02097 0.3341,-0.06252 0.56628,-0.06252 m -34.03954,-0.562836 c 0.15289,0.02793 0.27873,0.08637 0.44043,0.04174 0.1787,-0.0494 0.37186,-0.08478 0.56628,-0.125074 0.14849,-0.03081 0.27244,-0.07295 0.44044,-0.114689 0.14975,-0.03717 0.38569,-0.09721 0.56628,-0.114628 0.57572,-0.05556 1.09103,-0.21094 1.57299,-0.437762 m 16.79956,-0.125075 h 1.32131 M 91.587583,92.238769 c 0,-0.579783 -0.06292,-1.065253 -0.06292,-1.625962 0,-0.110067 -0.02831,-0.282542 0.03146,-0.364779 0.146602,-0.202113 0.298867,-0.01044 0.534815,-0.01044 0.386956,0 0.664431,-0.239385 0.943795,-0.416929 0.402687,-0.255596 1.028737,-0.718236 0.943795,-1.27157 -0.106963,-0.695972 -0.97085,-0.620176 -1.373536,-0.291855 -0.174288,0.141584 -0.326553,0.374281 -0.440436,0.542004 -0.155412,0.228204 -0.313342,0.280792 -0.451136,0.562837 -0.153523,0.31381 -0.125838,0.457143 -0.125838,0.812976 m -16.547874,1.625962 c 0,0.37435 0.731127,0.05795 1.132554,-0.125075 0.666947,-0.303801 1.387378,-0.775833 1.939815,-1.261184 0.266778,-0.234137 0.516568,-0.52293 0.545512,-0.865067 0.01132,-0.13402 -0.0082,-0.27135 -0.06292,-0.375224 -0.08117,-0.154276 -0.32152,-0.275604 -0.471899,-0.364779 -1.079701,-0.640819 -2.136122,-0.311871 -3.271822,-0.594105 -0.427225,-0.10612 -0.697149,-0.378474 -0.755036,-0.792153 -0.02454,-0.176918 -0.0063,-0.233889 0.06292,-0.375224 0.05852,-0.11944 0.09816,-0.180794 0.146603,-0.312677 0.09312,-0.252346 0.316488,-0.445952 0.545515,-0.583659 0.7198,-0.43326 1.800132,-0.554389 2.516786,-0.291865 m -2.453867,6.066087 h 0.06292 m 10.759264,-2.564013 c 0,-0.616866 0.256712,-1.045682 0.775799,-1.552979 0.154783,-0.150847 0.506504,-0.224447 0.597736,-0.125074 0.07865,0.08508 0.03838,0.18454 0.0107,0.30224 -0.08117,0.341074 -0.814809,1.113339 -1.069635,1.261184 -0.147861,0.08558 -0.196309,0.03141 -0.356753,0.187612 -0.201974,0.197174 -0.128356,0.492855 -0.06292,0.739993 0.08557,0.322636 0.307679,0.786846 0.619129,0.969329 0.223995,0.131446 0.665062,0.03131 0.933099,0.03131 m -7.613279,-3.001775 c 0.233433,0.463644 0.43855,1.019354 0.660658,1.500888 0.08054,0.174293 0.108221,0.319932 0.188759,0.500289 0.706944,1.397559 0.695912,-0.164166 1.038168,-0.562827 0.181839,0.128265 0.26804,0.163907 0.377518,0.375224 0.170512,0.330011 0.463088,0.871697 0.943795,0.938051 0.487627,0.06729 0.82362,-0.25171 0.99602,-0.625364 0.191275,-0.413748 0.319631,-0.834494 0.325293,-1.250747 0.0082,-0.570768 0.137795,-1.357107 -0.188759,-1.813575 m 11.765983,3.001775 c 0,0.340268 -0.0057,0.539261 0.314598,0.698357 0.216445,0.107622 0.590817,0.06381 0.817955,0.01034 0.120807,-0.02823 0.195683,-0.03976 0.3146,-0.09383 0.372483,-0.169543 0.909189,-0.401861 0.901639,-0.927614 -0.0088,-0.659267 -1.233856,-1.379252 -1.845434,-1.43835 -0.420932,-0.04075 -1.020557,0.05307 -1.226933,-0.375225 -0.249792,-0.519303 0.554951,-0.877769 0.849415,-1.052679 0.293206,-0.174165 0.593332,-0.140212 0.880876,-0.260596 m 14.91195,4.189985 c 0.32781,0 0.54614,-0.03638 0.81795,-0.156343 0.13276,-0.05864 0.24539,-0.05407 0.37752,-0.125075 0.3769,-0.203058 0.44989,-0.572587 0.22022,-0.896336 -0.29195,-0.412059 -0.96141,-0.697543 -1.01741,-1.198647 -0.0208,-0.188178 0.0667,-0.322129 0.168,-0.437761 0.29823,-0.339324 0.6531,-0.263906 1.06964,-0.187613 m -7.42452,2.939238 -0.0736,-0.25015 -0.17806,-0.562826 c -0.0956,-0.511978 -0.28183,-0.687991 -0.25169,-1.125663 v -1.000599 c 0,-0.189798 -0.0629,-0.28598 -0.0421,-0.500289 0.0176,-0.178358 0.0396,-0.313372 0.0421,-0.500299 0.003,-0.225759 0.0478,-0.307936 0.10508,-0.562836 0.0579,-0.260029 0.0837,-0.407865 0.0837,-0.687901 m -5.97736,4.877876 -0.115143,-0.750439 -0.262375,-1.751037 -0.05112,-0.53938 c 0.438552,0.183607 1.309508,-0.01302 2.064548,-0.08597 0.22147,-0.02147 0.38255,-0.07613 0.62919,-0.06252 m 1.51007,1.938649 c -0.21078,0.165537 -0.11105,0.276657 -0.25954,0.508111 -0.14912,0.232319 -0.64964,0.656265 -0.98815,0.461208 -0.21204,-0.121944 -0.26238,-0.520366 -0.26238,-0.71917 0,-0.235081 0.0189,-0.345397 0.0522,-0.562836 0.14752,-0.686271 -0.30439,-1.881966 0.89157,-1.625962 0.15226,-0.006 0.27433,-0.003 0.36682,0.08339 0.15038,0.14052 0.0434,1.030296 0.0944,1.292452 0.0415,0.210313 0.0132,0.386227 0.0944,0.562837 0.0994,0.214686 0.1768,0.28598 0.25167,0.500289 0.13591,0.387986 0.34543,0.894905 0.70282,1.000598 m 21.95896,-0.750449 c 0,-0.37103 -0.0201,-0.683468 0.0422,-1.000588 0.0252,-0.129895 -0.0302,-0.26478 -0.0107,-0.437762 0.0283,-0.251839 0.0412,-0.367034 0.12301,-0.601917 0.15352,-0.439133 0.42124,-1.131607 0.71571,-1.524344 0.11703,-0.155906 0.18309,-0.269968 0.38821,-0.250149 0.29321,0.02833 0.431,0.399486 0.44044,0.625374 0.0227,0.538753 0.0629,1.250737 0.0629,1.813574 m 5.03358,1.125663 -0.42974,-1.751037 -0.0632,-0.52634 c -0.033,-0.324594 -0.14188,-0.694004 -0.13622,-1.099622 0.004,-0.271907 0.10193,-0.442254 0.12584,-0.687901 0.0422,-0.429572 0.044,-0.419872 0.3146,-0.812986 m -14.03109,0 c 0,0.376973 -0.0535,1.798506 0.0837,2.501485 0.0705,0.360584 0.13213,0.698596 0.16799,1.063126 0.0333,0.343269 -0.11262,0.888841 0.12584,1.125663 0.25546,0.253777 0.76574,0.127957 1.06964,0.01044 0.70155,-0.271281 1.82405,-0.743879 2.26511,-1.136109 m -41.023619,1.063125 c 0,-0.395977 -0.02202,-1.093957 -0.06292,-1.313275 m 26.992399,-0.812956 c -0.60843,0.016 -1.42387,0.548067 -1.89828,0.917228 -0.15919,0.124071 -0.34417,0.216307 -0.4612,0.396047 -0.263,0.404982 -0.63052,0.644586 -0.63052,0.644586 0,0 0.94387,0.905202 1.73162,0.981366 0.51594,0.0499 1.11493,0.06421 1.57299,-0.09383 m 1.63591,0.218881 c -0.24476,0.04483 -0.45743,0.110752 -0.69212,-0.04174 -0.51309,-0.334284 -0.46769,-1.066316 -0.25168,-1.584247 0.0623,-0.143214 0.0837,-0.229953 0.13654,-0.375224 0.13653,-0.377222 0.51154,-0.821424 0.88087,-1.031857 0.29006,-0.165597 0.66192,-0.119449 0.7758,0.09383 0.10382,0.195305 -0.0245,0.458395 -0.13653,0.625374 -0.15478,0.231255 -0.33662,0.428001 -0.58704,0.583649 -0.17806,0.110762 -0.89361,0.144148 -1.08174,0.247645 m 15.42742,0.294369 c -0.1076,-0.225689 -0.12584,-0.370344 -0.12584,-0.625374 0,-0.277472 -0.0208,-0.723235 -0.19946,-1.000588 -0.11011,-0.171849 -0.0617,-0.187632 -0.14469,-0.436023 -0.0239,-0.422624 -0.0384,-0.649874 0.0925,-1.002327 m 14.59736,0.125075 h -0.37751 c -0.23469,0 -0.60151,0.121635 -0.81796,0.281418 -0.34731,0.256083 -0.68205,0.818174 -0.83873,1.219469 -0.0944,0.240141 -0.0831,0.34314 -0.12583,0.562836 -0.044,0.22401 -0.0805,0.740559 0.20953,0.833799 0.11703,0.03767 0.27684,-0.05367 0.37751,-0.114629 0.23784,-0.144585 0.73805,-0.379726 0.89661,-0.594095 0.21141,-0.286169 0.18939,-0.409992 0.41401,-0.594105 0.14283,-0.116945 0.20763,-0.680526 0.25168,-0.906782 0.0503,-0.257157 0.0491,-0.448019 0.0529,-0.687911 0.004,-0.292302 0.11514,-0.437762 0.1573,-0.687912 0.0686,-0.408669 0.0705,-0.401921 0.0522,-0.750438 m -16.17035,1.250737 c -0.28188,0.205434 -0.18876,0.702602 -0.18876,1.063136 0,0.640561 0.0239,1.949652 0.50336,2.001176 m 6.79532,0 v -0.750438 l -0.0944,-0.375225 -0.0944,-1.313275 m 8.9346,2.438938 c -0.0513,-0.444083 -0.27425,-0.561107 -0.10225,-1.430527 m -50.422261,1.055303 c 0.319224,0.101251 2.02904,-0.252604 1.6949,-0.836432 -0.357224,-0.03688 -1.397916,0.502923 -1.49544,1.086582 -0.02076,0.123951 -0.03209,0.194052 -0.07362,0.312687 -0.164219,0.470083 -0.322777,1.515895 0.314598,1.74059 0.269926,0.09512 0.545513,-0.04492 0.817957,-0.05208 m 36.509136,-2.524932 c -0.11829,-0.165726 -0.10886,-0.454768 -0.12584,-0.758261 -0.0226,-0.402487 -0.12395,-1.417527 -0.64493,-1.490441 -0.36871,-0.05168 -0.57335,0.388821 -0.62243,0.681371 -0.16404,0.319883 -0.14213,0.546417 -0.29777,0.707452 m -26.575696,0.257962 0.739305,-0.34004 0.416844,-0.128991 m 33.135077,0.156344 c 0.40611,-0.04284 0.85548,-0.08001 1.25163,-0.174264 M 99.075018,87.54857 c 0,-0.42162 0.02076,-1.03292 0.02076,-1.563424 0,-0.256899 -0.05915,-0.251333 -0.08368,-0.562827 m 35.541742,1.672855 c 0.1831,0 0.63203,0.06301 0.95166,-0.07822 0.13465,-0.05944 0.35488,-0.08329 0.34606,-0.281408 -0.012,-0.273557 -0.28188,-0.253649 -0.53482,-0.25015 -0.20763,0.003 -0.5065,0.184859 -0.59774,0.312687 -0.0617,0.08597 -0.0378,0.190862 -0.16799,0.281408 -0.24539,0.171292 -0.47497,0.283655 -0.66561,0.479218 -0.1139,0.116845 -0.25837,0.249842 -0.27536,0.404118 -0.0321,0.285235 0.0286,0.404306 0.0286,0.64882 0,0.341083 0.2693,0.77796 0.60844,0.875524 m -3.90102,-4.31506 c -0.14157,-0.236324 -0.31145,-0.268845 -0.37751,-0.625364 m -7.80204,0.375224 -0.25168,-0.312687 M 6.2055884,72.039382 C 6.3001566,71.444035 6.1175633,70.981882 6.0063218,70.41343 5.8773994,69.754283 5.2823052,68.672392 5.4505524,68.03702 m 20.0713766,3.877298 0.230724,-1.125673 0.115332,-0.594096 c 0.182091,-0.4559 0.225631,-0.731067 0.356567,-1.156941 0.04612,-0.150082 0.133327,-0.285792 0.199204,-0.437752 0.09815,-0.226385 0.200399,-0.45277 0.356564,-0.562836 m 3.271825,3.877298 c 0.213738,-0.268915 0.392241,-0.647887 0.440437,-0.875524 m -8.997514,0.625374 c 0.01567,-0.08438 0.06292,-0.170099 0.06292,-0.312687 0,-0.21576 -0.06292,-0.458395 -0.06292,-0.687911 0,-0.707919 0.172274,-1.766671 -0.199265,-2.376401 -0.08828,-0.145092 -0.160321,-0.267036 -0.367013,-0.250149 -0.360402,0.03002 -0.372295,0.2908 -0.576783,0.562836 -0.13037,0.173846 -0.316675,0.206994 -0.46139,0.437752 -0.155223,0.247645 -0.03146,0.716675 -0.03146,1.000598 0,0.323312 9.51e-4,0.729179 0.06292,1.063126 m -8.116638,0.437761 c -0.49738,-0.671024 -0.0015,-1.869233 -0.576784,-2.501485 -0.253818,-0.278914 -0.699488,-0.113615 -0.892777,0.17656 -0.167241,0.250775 -0.206052,0.366885 -0.3551093,0.511351 L 9.7613288,69.212428 9.5508385,68.537319 9.3515719,67.286571 m 7.4968181,1.98916 c -0.388295,0.842237 0.07078,1.487897 0.273761,1.825601 0.337564,0.561584 0.935175,0.246392 1.352772,-0.125075 m -5.033572,0.35458 c 0.520596,0.171978 0.897549,-0.270157 1.069634,-0.667267 0.09778,-0.225759 0.06292,-0.414613 0.06292,-0.687901 0,-0.154465 -0.0044,-0.230769 -0.06292,-0.375225 -0.06103,-0.150718 -0.08677,-0.282044 -0.125839,-0.437761 -0.06537,-0.260149 -0.353987,-0.597853 -0.629197,-0.677277 -0.393185,-0.11444 -0.82752,0.257654 -1.017222,0.614739 -0.217954,0.41024 -0.282951,0.822369 -0.157299,1.250738 0.11659,0.39711 0.448805,0.843628 0.859923,0.979954 m 10.318825,0.02067 c 0.105013,-0.220133 0.129616,-0.228254 0.12584,-0.500289 -0.0085,-0.60974 -0.12584,-0.907418 -0.12584,-1.500887 v -1.063136 m -13.716488,2.8767 c -0.1773702,-0.609104 -0.06292,-0.919912 -0.06292,-1.43835 m -3.9242471,0.90555 c 0.00749,0.283913 0.7808436,0.167584 1.1557819,0.07444 0.3388224,-0.08438 0.6201993,-0.350833 0.8599231,-0.615365 0.176238,-0.193864 0.3427235,-0.474656 0.46139,-0.739814 0.066128,-0.147587 0.1169676,-0.278287 0.1258394,-0.437761 0.00812,-0.144457 0.041967,-0.223881 0.041967,-0.375225 0,-0.144456 -0.024413,-0.235757 -0.041967,-0.375214 C 8.6251017,67.889492 8.3735487,67.567433 8.1560983,67.40108 8.0215761,67.298518 7.9256235,67.25412 7.7785802,67.203469 7.5186591,67.11342 7.2911416,67.059003 6.9606246,67.109643 c -0.1260282,0.01879 -0.2101519,0.02694 -0.3145984,0.08319 -0.2993719,0.161343 -0.5059999,0.581592 -0.566277,0.906783 M 60.945702,67.411715 c -0.111996,0.09065 -0.603399,0.470273 -0.681418,0.562827 -0.163593,0.193874 -0.105705,0.250776 -0.241612,0.500299 -0.263005,0.482786 -0.648073,1.120037 -0.324665,1.688499 0.278732,0.490291 0.76636,0.348329 1.184775,0.25015 0.834316,-0.195742 1.801391,-0.461526 1.992668,-1.43835 0.08368,-0.428379 -0.307678,-0.928052 -0.608435,-1.125663 -0.20386,-0.134457 -0.66506,-0.439014 -0.943795,-0.427137 -0.223992,0.0089 -0.259385,0.07385 -0.397181,-0.0089 0.182468,-0.362085 0.51547,-0.912487 -0.106175,-1.221417 -0.346582,-0.206835 -0.604775,-0.70118 -1.006723,-0.343956 -0.207004,0.193238 -0.341652,0.485291 -0.419674,0.750439 -0.0862,0.2958 -0.127097,1.036866 0.178692,1.219479 0.303903,0.181341 0.495648,0.0818 0.661757,0.19933 m -35.655783,0.76999 c 0.828767,0.796844 1.043627,1.449938 1.95051,1.876111 m 20.511813,-2.87673 c -0.40086,0.314556 -1.014768,0.353329 -1.384234,0.687902 -0.253628,0.230142 -0.251678,0.429631 -0.251678,0.750448 0,0.484039 0.0085,0.966815 0.629196,1.052491 0.55665,0.07693 1.598161,-0.7273 1.85613,-1.177565 0.07362,-0.128206 0.163528,-0.288297 0.1573,-0.437762 -0.01341,-0.319565 -0.392366,-0.599105 -0.629195,-0.677276 -0.154219,-0.05129 -0.214179,-0.01004 -0.304091,-0.09383 -0.12068,-0.113198 0.01001,-0.914376 -0.217695,-1.060711 -0.181901,-0.116318 -0.986684,-0.262693 -1.196458,-0.222677 -0.854646,0.559934 -0.908507,0.976943 -0.169347,1.991933 m -7.73912,-0.25015 c 0.998534,-0.04055 2.154602,-0.424841 3.083056,-0.437752 m -0.25167,1.563415 c -0.304407,0.215134 -0.61026,0.251402 -0.943795,0.302052 -0.27452,0.04194 -0.501092,0.103815 -0.755036,0.156344 -0.158684,0.0331 -0.232175,0.08001 -0.377519,0.09382 -0.240731,0.02375 -0.427787,-0.141335 -0.440438,-0.364589 -0.01132,-0.200116 0.171834,-0.724805 0.230726,-0.875513 0.141514,-0.296407 0.07219,-0.412298 0.398472,-0.594096 0.106019,-0.05884 0.206376,-0.103814 0.283137,-0.21888 0.09438,-0.141962 0.08167,-0.212003 0.136346,-0.375225 0.05864,-0.175108 0.151638,-0.327695 0.01044,-0.479655 -0.113381,-0.121328 -0.220974,-0.130084 -0.367011,-0.166352 -0.647003,-0.160717 -1.159548,0.06311 -1.698831,0.02067 m 20.38598,-0.938051 c -0.0075,0.288923 -0.09061,0.483413 -0.146603,0.750439 -0.05348,0.255785 -0.04216,0.454648 -0.04216,0.750449 0,0.176351 -0.02076,0.264531 -0.02076,0.437761 0,0.185108 0.01824,0.318313 0.02076,0.50029 0.005,0.353964 0.05096,1.224478 0.314599,1.438349 m -8.116638,-0.125074 c 0.349898,0 1.149292,-0.400232 1.048682,-1.000589 -0.105769,-0.630373 -0.707909,-0.91366 -1.237441,-1.125663 -0.27156,-0.108814 -0.640836,-0.06381 -0.786495,-0.375224 -0.0779,-0.166342 0.06009,-0.443387 0.167806,-0.552201 0.21204,-0.215124 0.544758,-0.198238 0.870367,-0.198238 0.851555,0 1.745329,0.125065 2.390948,0.125065 m 2.390946,2.168165 c 0.618376,-0.49029 0.243187,-1.28639 -0.377517,-1.594693 -0.203231,-0.10131 -0.572128,-0.186986 -0.755036,-0.240141 -0.392303,-0.113824 -0.481084,0.06381 -0.629197,0.417118 -0.165541,0.395232 -0.12584,0.71918 -0.12584,1.1882 0.1043,1.277027 1.342331,0.643126 1.88759,0.229516 z m -22.273563,0.646008 0.592517,-0.42494 0.256899,-0.325509 0.115332,-0.437762 0.251678,-0.562826 0.325105,-0.656643 c 0.01945,0.298295 0.09451,0.206368 0.230727,0.531558 0.128861,0.307688 0.295473,1.031241 0.49285,1.156942 0.333412,0.211993 0.239535,0.288922 0.461391,0.594095 0.329761,0.453396 0.824059,0.726058 1.300361,0.812986 M 16.839014,69.287569 c 0.09362,0 0.240667,0.0089 0.440437,-0.05188 0.161577,-0.0494 0.411179,-0.260148 0.555768,-0.406483 0.185424,-0.187612 0.29069,-0.879271 0.06292,-1.073761 -0.328378,-0.280792 -0.719299,0.201368 -0.838908,0.469021 -0.194107,0.434014 -0.220218,0.852385 -0.220218,1.063135 m 16.08384,-0.555014 c 0.331462,0.19949 1.480215,0.05685 1.833259,-0.09074 m -14.88909,0.430954 c -0.06177,-0.349472 0.02112,-0.540802 0.05505,-0.785624 m 35.675447,-1.938649 -0.12584,1.000588 0.09438,0.437762 c 0.178272,0.319297 0.356546,0.352334 0.534817,0.500299 l 0.566283,-0.108069 0.566277,-0.204618 m -32.97122,-1.290514 0.277742,0.195196 M 4.6325966,61.283022 c 0.014283,0.539698 -0.1229451,0.887401 -0.062919,1.500887 0.055935,0.571593 0.095952,1.210097 0.2621863,1.751037 0.1330122,0.432762 0.2306006,0.5916 0.5557693,0.625374 M 6.771866,64.660021 c 0.046435,0.4265 0.9760098,0.002 0.7445284,-0.750439 -0.1581172,-0.514681 -0.9538622,-0.645381 -1.1849662,-1.125673 -0.2648288,-0.550323 0.061095,-1.375812 0.6291968,-1.375812 0.4087261,0 0.7506944,0.0089 1.0696342,-0.08319 0.1867458,-0.05437 0.3193175,-0.08697 0.5033575,-0.104431 0.1905207,-0.01809 0.5268893,-0.06252 0.755036,-0.06252 m 1.2583933,2.970506 c 0.506126,0.251392 0.85426,-0.353964 0.985762,-0.781717 0.207321,-0.674146 -0.197064,-1.307024 -0.408977,-1.938649 -0.06342,-0.188855 -0.349772,-0.525306 -0.576785,-0.594096 -0.484545,-0.14696 -0.6291971,0.489038 -0.6291971,0.844245 0,0.756701 -0.097714,2.108748 0.6291971,2.470217 m 25.230788,-3.908567 c -0.247966,0.175109 -0.374624,0.447145 -0.450946,0.750449 -0.09381,0.373028 -0.172233,0.958406 -0.23207,1.518161 -0.06016,0.562747 0.08638,1.105884 0.441844,1.400432 0.306755,0.187265 0.698769,0.07266 1.088337,-0.006 0.457965,-0.09233 0.707848,-0.370563 0.851666,-0.546974 0.47234,-0.340198 0.713523,-1.282891 0.251678,-1.490262 -0.197015,-0.08846 -0.408977,0.500299 -0.408977,0.500299 -0.03909,0.399128 -0.656905,1.561666 -0.03146,1.751037 M 14.196387,63.909483 c 0.391863,0 0.810594,-0.23702 0.482404,-0.687912 -0.158872,-0.218254 -0.559984,-0.460274 -0.797003,-0.542192 -0.374057,-0.128832 -1.119215,-0.08697 -1.195473,-0.583471 -0.06242,-0.405866 0.362731,-0.848001 0.755036,-1.031856 0.145407,-0.06818 0.235067,-0.116329 0.377517,-0.145719 0.150315,-0.03131 0.232048,-0.0332 0.377519,-0.08379 0.233495,-0.08071 0.786873,-0.159465 1.006714,-0.176978 m 4.026858,3.251925 c 0,-0.457144 -0.02636,-0.785465 0.05241,-1.188201 0.05675,-0.290174 0.09035,-0.560958 0.157299,-0.812986 0.07745,-0.291417 0.411432,-0.693537 0.346059,-1.000588 -0.03316,-0.156343 -0.132698,-0.206377 -0.241172,-0.239515 -0.34914,-0.107571 -0.828589,0.05377 -1.132553,0.103805 -0.245072,0.04065 -0.946563,0.246403 -1.132554,0.260785 m 8.745834,2.8767 c 0.351406,0 0.671101,-0.120702 1.006716,-0.125075 0.224435,-0.003 0.31057,-0.04632 0.503355,-0.06252 0.32322,-0.02693 0.603528,-0.148213 0.817957,-0.375224 0.170199,-0.180108 0.143332,-0.362711 -0.02095,-0.562827 -0.55646,-0.678528 -1.609611,-0.82362 -2.307076,-1.105029 -0.183537,-0.07375 -0.312647,-0.212003 -0.346056,-0.395858 -0.0392,-0.21576 0.105013,-0.479665 0.27263,-0.646007 0.521415,-0.518438 1.348053,-0.479666 1.835179,-0.479666 m 17.365829,3.439537 c 0.0234,-0.294548 -0.06292,-0.710424 -0.06292,-1.063126 0,-0.145719 0.0037,-0.235768 0.05241,-0.375224 0.05059,-0.144457 0.07129,-0.222012 0.07343,-0.375225 0.0034,-0.24514 0.04562,-0.303304 0.136346,-0.562826 0.05619,-0.160727 0.03769,-0.225143 0.05241,-0.375224 0.03083,-0.315192 0.305035,-0.84175 0.503359,-1.125663 0.243813,-0.348965 1.137336,-1.075013 1.562484,-0.5003 0.183033,0.247645 0.03504,0.627243 -0.12584,0.812977 -0.185991,0.214507 -0.358831,0.332078 -0.55577,0.500299 -0.456483,0.390858 -0.89414,0.788992 -1.418638,0.665796 m -14.714862,2.12973 c 0.105425,0.111567 0.210051,0.229496 0.329867,0.226624 m 17.37663,-4.022739 c 0.136976,0.739178 0.262248,1.439593 0.314596,2.188789 0.01724,0.247019 0.194107,0.773587 0.44044,0.812986 0.154215,0.02505 0.297546,-0.004 0.440436,-0.07315 0.410048,-0.197621 0.806631,-0.427127 1.258395,-0.427127 m -7.9908,-0.375225 c -0.02875,-0.362094 -0.113822,-0.622243 -0.325106,-0.875523 -0.134774,-0.161969 -0.414137,-0.130074 -0.545261,-0.260774 -0.312208,-0.310183 0.066,-0.72418 -0.639705,-0.802352 -0.420868,-0.04632 -1.043273,0.101818 -1.353591,0.226892 m 0.333683,-0.60803 c -0.147478,0.342266 -0.141457,1.573106 -0.175565,1.756951 m 1.698828,0.25015 c 0.09743,-0.235251 0.145173,-0.51165 0.153648,-0.82057 M 3.2483639,55.904847 c 0.015353,0.290174 -0.1381089,1.03624 0.3880255,1.344543 0.724583,0.425249 2.1144786,-0.04632 1.8665749,-1.031857 C 5.2709167,55.295107 4.0829934,54.547789 3.3112835,54.174443 3.0508591,54.048752 2.7217262,53.916174 2.4933279,53.799229 2.1967875,53.647885 1.8160605,53.582227 1.5495328,53.340834 1.4245114,53.227636 1.3705263,53.140708 1.3607737,52.965609 c -0.00919,-0.164473 -0.023155,-0.299557 0.073427,-0.437761 0.2000846,-0.286418 0.6906692,-0.569089 0.996207,-0.729805 0.1131926,-0.05944 0.1891366,-0.08319 0.3145985,-0.125075 0.6051614,-0.200116 1.3802058,-0.141961 1.8875901,0.229506 m 2.5797065,4.690274 c 0.055495,-0.299547 -0.017555,-0.911782 -0.062919,-1.375813 -0.049266,-0.50342 -0.085067,-0.707292 -0.188759,-1.063125 0.1403737,-0.07007 0.2468968,-0.121318 0.5033572,-0.125075 0.6870829,-0.0089 1.3509483,-0.110067 1.95051,0 m 9.634573,0.875523 c 0.238215,0 1.125381,-0.265784 1.42878,-0.573471 0.08828,-0.08945 0.2491,-0.387728 0.06292,-0.520933 -0.244445,-0.175099 -0.810847,0.219507 -1.048621,0.417128 -0.257656,0.213872 -0.200902,0.414613 -0.356565,0.58347 -0.06915,0.07504 -0.271625,0.326443 -0.322464,0.432753 -0.0677,0.141335 -0.08859,0.198863 -0.08651,0.348955 0.0021,0.149465 -0.0066,0.260784 0.07343,0.375224 0.183537,0.262653 0.694255,0.635373 1.059127,0.614739 0.611389,-0.03379 1.102854,-0.302052 1.698831,-0.36459 M 11.48298,55.693778 c -0.149312,0.121328 -0.411373,0.254215 -0.631844,0.440574 -0.210718,0.177614 -0.607048,0.555959 -0.9332868,0.36459 -0.2383396,-0.140083 -0.1569217,-0.569079 -0.1153317,-0.781708 0.1230708,-0.629121 0.5989955,-1.519652 1.5978765,-1.680677 0.2479,0.148571 0.909026,0.40857 0.287071,1.172566 -0.08628,0.105982 -0.22066,0.306743 -0.207132,0.445574 0.0207,0.211377 0.04983,0.211059 0.08916,0.445574 0.02501,0.138592 0.223652,0.566077 0.928066,0.680089 m 2.139265,-0.437752 c -0.06669,-0.420249 -0.09337,-0.307687 -0.199266,-0.812986 -0.01299,-0.329027 -0.172909,-0.496582 -0.251678,-0.750438 -0.205497,-0.66852 -0.367012,-1.514654 -0.367012,-2.251336 m 0.589872,2.727085 c 0.09394,-0.155091 0.274455,-0.255626 0.406334,-0.371318 0.22324,-0.196369 0.481338,-0.492785 0.702626,-0.709172 0.319128,-0.311434 0.643919,-0.675397 0.817955,-1.021222 m 13.71649,-1.250747 c -0.395577,-0.04125 -0.84262,-0.30893 -1.447153,0.08319 -0.524749,0.340825 -0.877856,0.853627 -1.090587,1.417706 -0.18209,0.482786 -0.264514,1.305155 -0.115395,1.813574 0.07689,0.262037 0.23683,0.472788 0.461455,0.667278 0.264638,0.228253 0.771268,0.439004 1.122045,0.385223 0.844444,-0.128206 1.454263,-0.221386 2.076349,-0.677276 m 1.612317,-0.386943 c -0.17435,0.09134 -0.470325,0.261868 -0.679028,0.428846 -1.168672,0.891764 -1.591861,-1.776103 -0.429931,-2.345142 0.395513,-0.278913 0.612773,-0.262653 1.164014,0.08319 0.149875,0.786081 -0.03146,1.037483 -0.03146,1.407081 0,0.151961 -0.04153,0.290791 -0.02095,0.437752 0.02347,0.168231 0.105517,0.227637 0.14679,0.375224 0.07047,0.252029 0.339922,0.433478 0.644138,0.479755 0.403441,0.06133 0.626402,-0.03886 1.054693,-0.125174 0.08035,-0.0163 0.114012,-0.04751 0.188759,-0.03131 M 14.436269,55.482699 c 0.961727,0.700862 1.100387,0.562519 2.276907,0.589096 l 1.006714,-0.104431 m 23.0286,0.06252 c 0.06871,-0.864889 -0.05826,-1.664735 -0.618688,-2.376411 -0.154845,-0.196359 -0.382804,-0.365842 -0.639704,-0.302052 -0.199646,0.0494 -0.456287,0.121586 -0.596157,0.261043 -0.344297,0.342077 -0.314291,0.591342 -0.525891,0.86462 -0.0711,0.09134 -0.03706,0.717252 -0.02719,0.8417 m -3.443897,0.2108 c -0.08136,0.267474 -0.06499,0.514741 0.07343,0.594106 0.102371,0.05814 0.30107,0.07315 0.42993,0.07315 0.235636,0 0.706336,-0.200116 0.859923,-0.365215 0.765041,-0.821107 -1.35617,-1.37956 -1.300359,-2.178164 0.05845,-0.836741 1.088257,-0.632868 1.384232,-0.625364 m 16.201813,0.78953 c 0.331588,0.06063 1.548138,-0.02028 1.656863,-0.53938 0.04839,-0.230769 0.06028,-0.619749 -0.36701,-0.625374 -0.264828,-0.004 -0.500211,0.205125 -0.671163,0.375224 -0.575904,0.572209 -1.207304,1.501513 -0.639643,2.313863 0.426974,0.610992 1.048808,0.375225 1.688325,0.375225 m 2.705544,-2.438938 c -0.120805,0.03131 -0.198825,-0.02644 -0.377517,-0.002 -0.147231,0.02067 -0.305162,0.08895 -0.440438,0.116497 -0.100673,0.02067 -0.3448,0.237646 -0.408977,0.333947 -0.299687,0.446518 -0.48763,0.673837 -0.48763,1.138484 0,0.220134 0.206756,0.747636 0.456169,0.883336 0.366823,0.199499 0.642777,-0.143651 0.901377,-0.404426 0.229652,-0.231384 0.205376,-0.473592 0.482852,-0.502356 v -0.812986 c 0,-0.25014 -0.05915,-0.4315 -0.07361,-0.687901 -0.0302,-0.548455 0.07361,-1.056248 0.07361,-1.500888 m -7.047005,3.877288 V 55.404577 55.09189 l -0.09438,-0.687911 -0.11011,-0.578461 -0.361789,-1.047501 m 10.192987,2.939237 c 0,-0.615981 -0.377519,-0.632868 -0.377519,-1.250737 0,-0.459648 -0.09689,-0.852375 0,-1.375813 M 47.606731,50.964443 c -0.332972,0 -0.679092,0.196368 -0.943795,0.385849 -0.745409,0.532194 -1.674356,2.166913 -1.363281,3.178762 0.198323,0.645381 0.911139,1.178191 1.614959,1.042492 0.390228,-0.07564 0.836958,-0.24202 1.195473,-0.375225 0.178189,-0.06689 0.266341,-0.08071 0.440439,-0.166978 m 15.666999,0.500299 c 0.106332,0.02813 0.188758,0.05506 0.377517,0.01064 0.273701,-0.06441 1.069633,-0.398989 1.069633,-0.823611 0,-0.121328 -0.100041,-0.349581 -0.157297,-0.437762 -0.160446,-0.247018 -0.631715,-0.335825 -0.912336,-0.479655 -0.134018,-0.06818 -0.200085,-0.05884 -0.314599,-0.156343 -0.710992,-0.604114 1.126892,-0.868646 1.447153,-0.927426 m -8.689514,2.108649 c 0.06984,0.263905 0.316792,0.569187 0.572877,0.642976 m 4.781894,-0.187612 c -0.07991,-0.275157 -0.135907,-1.013718 -0.12584,-1.250738 0.0082,-0.195743 0.06733,-0.245767 0,-0.437762 -0.06229,-0.178229 -0.06292,-0.296426 -0.06292,-0.437752 0,-0.214507 -0.06292,-0.855505 -0.06292,-1.125673 0,-0.50342 -0.0012,-1.419584 -0.06292,-1.751026 M 38.344669,54.582596 C 38.237454,54.447513 38.109132,54.139448 38.10586,53.90368 38.09596,53.198892 37.742058,52.482843 37.854181,51.777429 M 5.7317806,54.260258 6.3943458,54.15383 c 0,0 0.3095018,-0.134458 0.566277,0 m 0,-0.004 c 0,-0.618496 -0.3145984,-1.914099 -0.3145984,-2.435032 m 54.0479976,2.001186 1.069635,-0.06252 0.511222,-0.08597 m -0.0079,0.02346 c 0.230917,-0.126953 0.852563,-0.158848 1.384235,-0.239514 0.204487,-0.03131 0.188758,-0.01064 0.440436,-0.01064 m -14.188387,1.070947 c -0.143879,-0.373952 0.0741,-1.014532 0.533262,-1.384499 0.461171,-0.371586 0.915869,-0.725948 1.249443,-0.530703 0.31955,0.14219 0.241854,0.266837 0.513864,0.406493 m 6.606566,-1.500887 c 0.29069,0.136962 0.286283,0.381794 0.503355,0.398671"
       id="path605"
       sodipodi:nodetypes="ccccccccccccccccscccccccccccccccccccccccaccccsccsccccccccccccccccccccccccccccccccsscccssccccccccccccsccsccccscccsccccccccccccccccccsccccccccscccccccccccccccccscscccccsccscccccccccccccccccccscccscccccccccccccccccccccccccccccsccccccccsssccscccccccccccccsccscccccccccccccccccccccccccccscccsccscccscccccccccccsccccccccssccccssccccscscccccccccsccccscccccccccccccccccccsccccccccccsccccccccccccscccccccccccccsccccccccccccscccccsccccccscccccccccccccccccccsccccsccccccccccccsccccccccccccccccccccccccsccccsccacscccccccccccccccccssccccscccccccccccccsccccccccsccccccccsccccccccccccccccccccccccsccccccccccccccccccccccccsscccccccsccccccccccccccccccccccccccccccccccccccccccscccccccscccscscacccccccccccscccccccccccscccsccscccccccccccccccccccccccccccccccccccccccccccccccccccscsccccccccccccccccccccccscsccccccccccccccscccccccccccccscccscccccccccscccccccccscccccccccssccccccccccccccccscccc" />
  </g>
</svg>
