<?xml version="1.0" encoding="UTF-8" standalone="no"?>
<!-- Created with Inkscape (http://www.inkscape.org/) -->

<svg
   width="3000"
   height="1998.207"
   viewBox="0 0 793.74998 528.69228"
   version="1.1"
   id="svg202"
   inkscape:version="1.2.1 (9c6d41e410, 2022-07-14)"
   sodipodi:docname="MonicaG - Stake - Envelope14.svg"
   xmlns:inkscape="http://www.inkscape.org/namespaces/inkscape"
   xmlns:sodipodi="http://sodipodi.sourceforge.net/DTD/sodipodi-0.dtd"
   xmlns="http://www.w3.org/2000/svg"
   xmlns:svg="http://www.w3.org/2000/svg">
  <sodipodi:namedview
     id="namedview204"
     pagecolor="#ffffff"
     bordercolor="#000000"
     borderopacity="0.25"
     inkscape:showpageshadow="2"
     inkscape:pageopacity="0.0"
     inkscape:pagecheckerboard="0"
     inkscape:deskcolor="#d1d1d1"
     inkscape:document-units="mm"
     showgrid="false"
     inkscape:zoom="1"
     inkscape:cx="210"
     inkscape:cy="766.5"
     inkscape:window-width="1920"
     inkscape:window-height="1058"
     inkscape:window-x="-6"
     inkscape:window-y="-6"
     inkscape:window-maximized="1"
     inkscape:current-layer="layer1"
     showguides="true" />
  <defs
     id="defs199">
    <pattern
       id="EMFhbasepattern"
       patternUnits="userSpaceOnUse"
       width="6"
       height="6"
       x="0"
       y="0" />
    <pattern
       id="EMFhbasepattern-0"
       patternUnits="userSpaceOnUse"
       width="6"
       height="6"
       x="0"
       y="0" />
    <pattern
       id="EMFhbasepattern-7"
       patternUnits="userSpaceOnUse"
       width="6"
       height="6"
       x="0"
       y="0" />
    <pattern
       id="EMFhbasepattern-1"
       patternUnits="userSpaceOnUse"
       width="6"
       height="6"
       x="0"
       y="0" />
    <pattern
       id="EMFhbasepattern-3"
       patternUnits="userSpaceOnUse"
       width="6"
       height="6"
       x="0"
       y="0" />
    <pattern
       id="EMFhbasepattern-5"
       patternUnits="userSpaceOnUse"
       width="6"
       height="6"
       x="0"
       y="0" />
    <pattern
       id="EMFhbasepattern-33"
       patternUnits="userSpaceOnUse"
       width="6"
       height="6"
       x="0"
       y="0" />
    <pattern
       id="EMFhbasepattern-4"
       patternUnits="userSpaceOnUse"
       width="6"
       height="6"
       x="0"
       y="0" />
    <pattern
       id="EMFhbasepattern-11"
       patternUnits="userSpaceOnUse"
       width="6"
       height="6"
       x="0"
       y="0" />
    <pattern
       id="EMFhbasepattern-6"
       patternUnits="userSpaceOnUse"
       width="6"
       height="6"
       x="0"
       y="0" />
    <pattern
       id="EMFhbasepattern-34"
       patternUnits="userSpaceOnUse"
       width="6"
       height="6"
       x="0"
       y="0" />
    <pattern
       id="EMFhbasepattern-69"
       patternUnits="userSpaceOnUse"
       width="6"
       height="6"
       x="0"
       y="0" />
    <pattern
       id="EMFhbasepattern-8"
       patternUnits="userSpaceOnUse"
       width="6"
       height="6"
       x="0"
       y="0" />
    <pattern
       id="EMFhbasepattern-46"
       patternUnits="userSpaceOnUse"
       width="6"
       height="6"
       x="0"
       y="0" />
    <pattern
       id="EMFhbasepattern-14"
       patternUnits="userSpaceOnUse"
       width="6"
       height="6"
       x="0"
       y="0" />
  </defs>
  <g
     inkscape:label="Layer 1"
     inkscape:groupmode="layer"
     id="layer1">
    <path
       d="m 573.59733,151.86838 c -0.52815,-0.54571 -0.57135,-1.09141 -0.77722,-1.63712"
       style="fill:none;stroke:#7c85ac;stroke-width:0.264583"
       id="path467"
       sodipodi:nodetypes="cc" />
    <path
       style="fill:none;stroke:#757eaa;stroke-width:0.0634355"
       d="m 113.25191,111.11619 c -0.14366,-0.48148 -0.0786,-0.56805 -0.0644,-1.0619 0.0116,-0.3949 0.15848,-0.50658 0.25768,-0.81203 m -18.48902,-1.74902 c 0.0096,0.33051 0.05282,0.54033 0.107587,0.81205 0.08053,0.40346 0.108878,0.95308 0.150103,1.31176 0.03608,0.31331 0.03092,0.87781 0.193265,0.96819 0.260262,0.14486 0.870978,-0.0616 1.159588,-0.13536 0.621024,-0.15891 1.359295,-0.50834 1.814755,-1.0827 0.11661,-0.14735 0.196487,-0.27616 0.235783,-0.43725 0.03994,-0.16204 0.09212,-0.30164 0.07538,-0.49972 -0.06185,-0.71677 -0.685445,-1.14454 -1.267172,-1.57204 -0.324685,-0.23886 -0.831684,-0.52945 -1.24527,-0.55175 -0.214523,-0.0115 -0.605098,-0.0652 -0.740382,-0.0616 -0.186823,0.005 -0.263307,-0.0275 -0.515841,0.0303 -0.03221,0.42051 0.01997,0.79767 0.03221,1.21806 z m 6.98212,2.89358 c 0,0 -0.16888,-0.10878 -0.25006,-0.27007 -0.0696,-0.13842 -0.19391,-0.23306 -0.24673,-0.37479 -0.12498,-0.3345 -0.1559,-0.74646 -0.30085,-0.93697 -0.22032,0.11256 -0.30278,0.1601 -0.4619,0.43726 -0.16105,0.2819 -0.709283,1.00055 -1.052006,0.61421 -0.150746,-0.16979 -0.09921,-0.38678 -0.09663,-0.55175 0.009,-0.64001 0.383952,-1.3839 0.665486,-1.99887 0.0741,-0.16185 0.23385,-0.38996 0.42969,-0.42682 0.61586,-0.11618 0.51987,0.80417 0.51537,1.11393 -0.004,0.33176 0,0.5347 0,0.81204 m 6.42884,0.71698 c -0.11724,0.0807 -0.25493,0.20454 -0.41149,0.37207 -0.15267,0.16365 -0.4655,0.30822 -0.73478,0.13944 -0.29892,-0.1877 -0.30472,-0.82334 -0.23643,-1.16602 0.12756,-0.63377 0.35947,-1.21419 0.77306,-1.74901 0.11596,-0.14947 0.22611,-0.2904 0.4297,-0.31232 0.18939,-0.0205 0.3775,0.059 0.43999,0.24986 0.0625,0.18913 0.0348,0.31357 0.0322,0.49972 -0.002,0.16153 -0.0702,0.28383 -0.0857,0.43724 -0.0284,0.28147 -0.0606,0.6472 -0.0644,0.93697 -0.003,0.16697 -0.14494,0.44356 -0.13979,0.56218 0.004,0.10538 0.0464,0.15535 0.0754,0.24986 0.0425,0.14099 0.22096,0.44681 0.38652,0.48929 m 1.05594,-0.0307 c 0.22677,0.0428 0.42254,-0.19662 0.61903,-0.30238 0.20808,-0.11192 0.41229,-0.26484 0.52632,-0.46848 0.13979,-0.25117 0.19262,-0.45855 0.0425,-0.74957 -0.16041,-0.31095 -0.27765,-0.37042 -0.50442,-0.56218 -0.33756,-0.28591 -0.53856,-0.57906 -0.3221,-0.99944 0.0773,-0.14935 0.16814,-0.2483 0.3221,-0.34356 0.17652,-0.10924 0.30794,-0.15085 0.51537,-0.15615 m -6.89311,3.43555 -0.12885,-0.74957 -0.11788,-0.43725 -0.1398,-1.43669 v -1.37422 l 0.0432,-0.43726 0.0857,-0.37478 m 1.80379,4.80977 c -0.0522,-0.23893 -0.14302,-0.34937 -0.18231,-0.56218 -0.0316,-0.16846 -0.12948,-0.63052 -0.1398,-0.87451 -0.0213,-0.49959 -0.0644,-0.94833 -0.0644,-1.49915 0,-0.55937 0.0155,-1.27634 0.12885,-1.62407 m 19.0688,4.37252 c 0,-0.19733 -0.0154,-0.32819 0.0212,-0.49972 0.0464,-0.21544 0.0902,-0.32094 0.10763,-0.56218 0.22009,-0.52442 0.32215,-0.81744 0.32219,-1.37425 0,-0.14729 0.0888,-0.28987 0.14196,-0.45747 0.0754,-0.23911 0.12897,-0.31208 0.23404,-0.54195 0.13464,-0.29278 0.28861,-0.63352 0.45094,-0.87451 0.22806,-0.33819 0.49218,-0.86376 0.91287,-0.87451 m -0.12936,4.31008 c -0.40844,0.54038 -0.93927,-0.28471 -1.25623,-0.67667 -0.24713,-0.72309 -0.71819,-1.61208 -0.74273,-2.57509 m -3.73458,3.3767 c 0.29635,-0.093 0.22098,-0.52171 0.27896,-0.81204 0.16749,-0.83497 0.23642,-1.6249 0.23642,-2.49859 -0.0144,-0.22291 -0.0329,-0.17816 -0.0754,-0.56218 -0.0992,-0.17795 -0.1333,-0.60481 -0.1333,-0.7957 m 25.3331,1.73267 c -0.003,0.12124 -0.0205,0.20095 -0.0432,0.31233 -0.0477,0.24005 -0.13657,0.41782 -0.13915,0.62464 -0.004,0.30651 -0.027,0.43257 0.0644,0.68711 0.0844,0.23562 0.0676,0.59691 0.31116,0.77038 0.16877,0.12037 0.36462,0.14873 0.57978,0.0937 0.33821,-0.0866 0.66032,-0.3488 0.92316,-0.60378 0.21903,-0.21213 0.469,-0.432 0.59075,-0.69754 0.25253,-0.55126 -0.0921,-1.35149 -0.612,-1.56162 -1.03976,-0.12663 -1.449,-0.35637 -1.67491,0.37479 z m -1.61057,2.43612 0.0644,-1.06189 -0.0212,-0.49972 0.0856,-0.99943 0.0299,-0.59478 0.0345,-0.71698 m -8.89017,3.6854 c 0.36139,0.21214 0.74277,0.20208 1.08421,-0.0312 0.13147,-0.0896 0.21775,-0.17233 0.33306,-0.28109 0.28667,-0.26978 0.44902,-0.80048 0.24673,-1.18682 -0.25188,-0.48167 -0.71637,-0.5555 -1.21305,-0.56219 -0.14624,-0.002 -0.39619,3.8e-4 -0.48316,-0.13536 -0.0793,-0.12355 0.009,-0.27134 0.0323,-0.42682 0.0232,-0.1614 0.14495,-0.58011 0.38653,-0.66631 0.27766,-0.0989 0.51022,-0.0475 0.77305,-0.10406 0.36013,-0.0776 0.90063,-0.29151 1.28844,-0.29151 m 4.12297,3.18565 -0.70582,0.11271 -0.77587,0.0123 -0.77305,-0.12494 -0.5798,0.0105 -0.58863,0.0805 c 0.39754,-0.71451 1.83242,-1.76373 1.94193,-2.5271 0.1617,-1.1283 -1.32321,-0.55937 -1.67495,-0.12494 m -5.54029,2.49859 c 0.12436,-0.65525 0.43484,-1.24955 0.62295,-1.87394 0.047,-0.15797 0.085,-0.22313 0.16106,-0.37479 0.0573,-0.11469 0.0856,-0.18683 0.10697,-0.31232 0.0444,-0.2571 0.35689,-0.83028 -0.18232,-0.96821 -0.73955,-0.18926 -1.94295,0.57562 -2.64128,0.59343 m 10.75786,0.12494 c 0.1295,0.39746 0.14045,1.57642 0.64422,1.9156 0.25253,0.16996 0.65839,0.10625 0.90189,0.0833 0.17716,-0.0167 0.26477,0 0.45096,0 m -25.57538,-1.49915 1.03074,-0.1874 0.51537,-0.0624 0.46496,-0.14971 0.8879,-0.12094 1.41727,-0.41645 M 94.37638,95.625086 c 0,0.399709 0.123685,0.64294 0.128849,0.999433 0.002,0.131482 0.01611,0.240177 0.04317,0.37478 0.06056,0.30233 0.01482,0.710911 0.117888,0.999433 0.07988,0.223315 0.09664,0.332195 0.09664,0.562183 0,0.174029 0.0084,0.263419 0.04316,0.437253 0.08439,0.422573 -0.02577,1.280272 0.343367,1.561612 m 3.22108,-0.37478 c 0.05476,0.50415 0.5624,0.30845 0.966324,0.0312 0.173294,-0.11874 0.24158,-0.248357 0.354318,-0.395585 0.28732,-0.375663 0.517314,-0.767382 0.397494,-1.259729 -0.0612,-0.250167 -0.260919,-0.567739 -0.450963,-0.73914 -0.346588,-0.312142 -0.759532,-0.194391 -1.073908,-0.32276 0.05733,-0.131549 0.0438,-0.229617 0.06442,-0.437253 0.0277,-0.273968 0.153323,-0.378348 0.117889,-0.624643 -0.0335,-0.235426 -0.067,-0.365976 -0.117889,-0.56218 -0.05218,-0.202322 -0.214524,-0.453427 -0.515373,-0.437253 -0.568843,0.03064 -0.819442,0.762883 -1.288432,0.812043 m 5.411416,3.622945 c 0.0857,-0.449936 0,-1.114741 0,-1.624079 0,-0.251676 -0.0663,-0.368361 -0.12885,-0.624653 -0.0612,-0.251473 -0.10243,-0.45842 -0.12884,-0.687107 -0.0142,-0.122987 -0.0528,-0.20207 -0.0857,-0.312326 -0.13077,-0.43481 -0.34338,-0.932093 -0.4297,-1.249287 m 14.04391,4.372525 c 0.0103,-0.194138 0.0277,-0.549943 -0.10759,-0.999433 -0.0528,-0.177277 -6.4e-4,-0.294275 -0.0213,-0.499719 -0.0354,-0.356047 -0.14946,-0.497845 -0.12885,-0.874506 0.24738,-0.0058 0.3395,-0.0414 0.57979,-0.13536 0.14946,-0.05827 0.23514,-0.145047 0.38653,-0.218632 0.62876,-0.304821 2.31016,-1.429501 1.26717,-2.196621 -0.13077,-0.09599 -0.29311,-0.133431 -0.42969,-0.197824 -0.50763,-0.239245 -1.2749,0.0048 -1.8038,0.104119 -0.18489,0.03481 -0.3395,-0.0098 -0.39748,0.145735 -0.0367,0.09876 0.01,0.200199 0.0109,0.312317 0.003,0.161103 0.0225,0.282782 0.0535,0.437253 0.14623,0.727714 0.2818,1.111483 0.33398,1.752552 m -10.24396,2.224384 c 0.19906,0.05905 0.39232,-0.03694 0.51538,-0.124936 0.11853,-0.08475 0.21259,-0.228366 0.28989,-0.353982 0.13335,-0.216314 0.20615,-0.35305 0.2899,-0.562179 0.37493,-0.934355 0.2725,-2.919229 -1.03075,-3.164904 -0.18167,-0.03432 -0.23836,0.01018 -0.38653,0.05207 -0.11532,0.03258 -0.22225,0.05983 -0.3221,0.135302 -0.16943,0.128369 -0.29763,0.372598 -0.32211,0.541381 -0.0296,0.207636 -0.0966,0.483097 -0.0432,0.74957 0.0354,0.174717 0.0432,0.263108 0.0432,0.437253 0,0.231431 6.4e-4,0.3518 0.0431,0.56218 0.12047,0.600539 0.17845,1.507588 0.92316,1.728217 m 2.51245,-0.104128 0.0966,-0.437253 -0.24674,-1.186826 -0.39749,-1.49915 -0.0966,-0.374789 -0.12885,-0.874507 m 13.61117,2.428653 c 0.48187,0 1.09885,-0.362446 1.36685,-0.929503 0.12304,-0.260481 -0.16363,-0.582542 -0.41874,-0.541382 -0.33048,0.05343 -0.52504,0.387783 -0.69768,0.624644 -0.0979,0.133682 -0.1398,0.312762 -0.18296,0.478918 -0.0399,0.154723 -0.0135,0.231304 -0.0966,0.437253 -0.0483,0.12161 -0.1385,0.247672 -0.17136,0.37479 -0.0966,0.37285 0.22805,1.012681 0.56884,1.166027 0.30858,0.138734 0.49669,0.02948 0.83747,0.02085 m 0.90192,0.06244 c 0.23192,0 0.44257,0.02502 0.70863,0 0.22998,-0.02172 0.36139,-0.133925 0.51536,-0.291518 0.10565,-0.108065 0.13658,-0.158292 0.12884,-0.333125 -0.0154,-0.354179 -0.268,-0.519713 -0.51538,-0.749583 -0.13657,-0.127176 -0.23191,-0.195515 -0.38652,-0.301893 -0.21259,-0.145977 -0.53856,-0.284023 -0.57979,-0.572613 -0.0406,-0.282026 0.30665,-0.545376 0.51536,-0.666308 0.23386,-0.135418 0.34015,-0.145725 0.64422,-0.145725 m 13.01316,2.998302 c 0.46643,-0.268723 0.40779,-1.3112 0.40779,-1.811479 0,-0.379405 -0.13334,-0.923725 -0.15009,-1.31175 -0.007,-0.149546 -0.0451,-0.239866 -0.0856,-0.37479 -0.0664,-0.220251 -0.0194,-0.465857 -0.0541,-0.687116 -0.0207,-0.131666 -0.0805,-0.251289 0.0219,-0.37478 0.094,-0.113679 0.14753,-0.100696 0.31116,-0.124937 0.29312,-0.04344 0.51924,-0.08348 0.77306,-0.09367 0.12567,-0.0048 0.20486,0.02647 0.3221,0.03122 0.4123,0.01668 1.2034,0.170403 1.28843,0.687107 0.10302,0.625147 -0.39489,1.121121 -0.79432,1.488726 -0.16878,0.154966 -0.49217,0.301263 -0.66611,0.45811 -0.11659,0.105253 -0.19069,0.213812 -0.27895,0.301893 0.28539,0.339059 0.67836,0.637132 1.15959,0.864073 0.4342,0.204698 0.93282,-0.01803 1.09516,-0.23943 m -21.32354,1.0619 -0.0644,-0.87451 -0.0966,-0.988999 0.57979,-0.699344 c 0.36646,-0.384854 0.49524,-0.334414 0.74084,-0.497913 m 12.43339,2.998302 c 0,-0.594975 0.008,-1.288956 0,-1.873942 -0.004,-0.279708 -0.12238,-0.840143 -0.51538,-0.895305 -0.56267,-0.08145 -0.58235,0.08523 -0.90191,0.458052 l -0.19327,1.686549 m -33.177113,0.562183 c 0.03092,-0.280096 0.383952,-0.599416 0.644216,-0.874509 0.08697,-0.09231 0.175871,-0.19539 0.268637,-0.291518 0.07988,-0.08368 0.24586,-0.198386 0.30835,-0.270662 m 26.8666,1.436689 c 0,-0.374538 -0.0361,-1.044291 -0.19326,-1.436689 -0.0477,-0.119187 -0.0606,-0.186265 -0.0644,-0.312327 m 0,0 c -0.0382,-0.35179 -0.15285,-0.653247 -0.25795,-0.999433 -0.004,-0.544241 -0.10275,-0.930046 0.0212,-1.686549 l 0.10763,-0.499716 m 2.7704,4.778556 c 0.34594,0.170208 0.79238,-0.126062 1.03074,-0.343561 0.41488,-0.379037 0.46062,-0.731215 0.48316,-1.249297 0.005,-0.13373 -0.0119,-0.258599 -0.0323,-0.37478 -0.0361,-0.21101 -0.21774,-0.371978 -0.38652,-0.478918 -0.12817,-0.08096 -0.24352,-0.07563 -0.38653,-0.08329 -0.15655,-0.0087 -0.24223,-0.0957 -0.38653,-0.09367 -0.46705,0.0068 -0.6178,1.017982 -0.64422,1.280519 -0.0464,0.465614 -0.19004,1.091327 0.32211,1.342994 m 23.70716,-0.530951 c 0,-0.09531 0.008,-0.178897 0,-0.37479 -0.0105,-0.25954 -0.0644,-0.458799 -0.0644,-0.687107 v -2.186256 c 0,-0.229627 -0.0209,-0.877212 -0.0209,-0.877212 0,0 0.72206,-0.09935 0.98723,-0.184684 m -10.30746,4.10186 c 0.49154,0.09931 1.01399,-0.06206 1.3419,-0.364425 0.12054,-0.110624 0.19521,-0.239614 0.28989,-0.364356 0.1398,-0.183454 0.21904,-0.306014 0.19327,-0.56218 -0.0167,-0.169656 -0.007,-0.279902 -0.0967,-0.437253 -0.33886,-0.592103 -0.77113,-1.15659 -1.47074,-1.36379 -0.17073,-0.05061 -0.28282,-0.105059 -0.45096,-0.145783 -0.36463,-0.08843 -0.3833,-0.1992 -0.77306,-0.176967 -0.22225,0.0126 -0.19777,0.145231 -0.19325,0.312327 0.009,0.321247 0.085,0.746195 0.13979,1.061896 0.0374,0.218127 0.0573,0.368788 0.0966,0.56218 0.0522,0.261663 0.0747,0.614084 0.0856,0.874497 0.005,0.134177 -0.0374,0.247303 0.0754,0.343558 0.16104,0.137425 0.29312,0.131549 0.43999,0.176966 0.12237,0.03801 0.21131,0.06089 0.32211,0.08329 m 5.73353,-0.853708 c -0.13851,0.182649 -0.24933,0.30745 -0.11791,0.499717 0.23644,0.346991 0.99339,0.340184 1.34191,0.166591 0.23708,-0.118119 0.39941,-0.197386 0.56885,-0.416445 0.46769,-0.604601 -0.0927,-1.396776 -0.63327,-1.811476 -0.23321,-0.179274 -1.00304,-0.427876 -0.88063,-0.812043 0.1063,-0.330991 0.45803,-0.341677 0.75178,-0.385213 0.14173,-0.02094 0.23256,-0.05207 0.38653,-0.05207 m 0,0 c 0.28088,0 0.46903,0.145473 0.46903,0.145473 m 0.5623,-0.02376 c 0.43782,-0.220968 0.68135,-0.326735 1.1459,-0.372957 m 3.81403,3.124603 c -0.35541,0.02124 -0.71082,0.190512 -1.06622,0.407699 l -0.21127,-0.532626 -0.16104,-0.624653 -0.0432,-0.312316 -0.0645,-0.530939 -0.0645,-0.468475 0.0323,-0.812043 0.86969,-0.353982 1.41727,-0.208198 m -19.00408,3.560469 h 0.64421 m -19.22392,-0.155741 -0.36024,-1.280974 m 41.29425,1.12436 c 0.027,-0.335811 0.16491,-0.517451 0.12883,-0.874507 -0.0219,-0.215557 -0.0851,-0.353293 -0.1179,-0.562179 -0.11724,-0.743326 0.0399,-2.541305 -0.46189,-2.685973 m -34.98093,3.935269 1.19646,-0.16058 c 0.59321,-0.164187 1.06947,-0.464064 1.63831,-0.464064 m 36.08683,0.655866 c 0.48895,0.307449 1.34446,-0.386096 1.61053,-0.780802 0.41295,-0.613221 0.15075,-1.812475 -0.35433,-2.311192 -0.23963,-0.235988 -0.4838,-0.392214 -0.81621,-0.530949 -0.22934,-0.09561 -0.45804,-0.1912 -0.64422,-0.03122 -0.23901,0.205387 -0.0644,0.572177 -0.0644,0.874507 0,0.218001 -0.0477,0.300516 -0.10764,0.499716 -0.15783,0.525014 -0.0941,1.984564 0.37624,2.279951 m -1.62149,-0.03122 c -0.0798,-0.36872 -0.18683,-1.16296 -0.19327,-1.624076 -0.007,-0.502528 -0.0212,-0.944901 -0.0212,-1.374223 0,-0.183521 0.0212,-0.375536 0.0212,-0.56218 m -30.27817,3.373089 c 0,0 -0.0644,-0.57811 -0.0644,-1.124359 m 48.18734,1.061896 c 0.0921,-0.30776 0.30407,-0.575803 0.32211,-0.999433 0.009,-0.209759 -0.0335,-0.329062 0.0105,-0.499717 0.0328,-0.127622 0.0883,-0.183957 0.12883,-0.312326 0.0341,-0.109936 0.0561,-0.210816 0.10697,-0.312317 0.11592,-0.230499 0.31759,-0.520398 0.38653,-0.749579 0.0393,-0.129863 0.12567,-0.443808 0.0863,-0.56218 -0.0548,-0.163848 -0.14301,-0.167969 -0.33306,-0.249854 -0.25832,-0.111255 -0.59075,-0.215509 -0.83748,-0.145735 -0.43355,0.122561 -0.54307,0.372104 -0.77305,0.395589 m -10.30746,2.748445 c 0.26477,0.249912 0.54952,0.312133 0.90191,0.364357 0.3105,0.04596 0.45223,-0.0382 0.70863,-0.05207 0.25961,-0.01396 0.61974,-0.21007 0.83748,-0.353991 0.25962,-0.171275 0.71637,-0.55612 0.68738,-0.895305 -0.0522,-0.607403 -0.79947,-1.122547 -1.39602,-1.186823 -0.32532,-0.035 -0.90189,0.05721 -1.06295,-0.249863 -0.0767,-0.145852 0.0606,-0.414448 0.10763,-0.56218 0.085,-0.269779 0.22483,-0.639139 0.50442,-0.707905 0.19906,-0.04897 0.57141,-0.03714 0.77304,-0.08329 0.47545,-0.108754 0.93734,-0.02085 1.41729,-0.02085 m 1.11643,1.061896 c -0.22033,0.328064 -0.37171,0.686729 -0.4078,0.999433 -0.0205,0.179391 -0.0992,0.355233 -0.12883,0.56218 -0.0624,0.434248 -0.0695,1.170524 0.51536,1.249287 0.73054,0.09838 1.51777,-0.775682 1.54612,-1.436687 0.0167,-0.387404 -0.0105,-0.622956 -0.0754,-0.999433 -0.15396,-1.391501 -0.88687,-1.198555 -1.4495,-0.37478 z m 2.94214,-0.37479 c 0.36076,-0.429321 1.3973,-0.462298 1.35285,0.312327 -0.0419,0.731021 -0.58751,1.511018 -0.99853,2.134226 -0.10249,0.155722 -0.18812,0.55068 -0.0856,0.66624 0.15397,0.173651 0.40521,0.01726 0.56885,-0.03122 0.44192,-0.130861 0.81621,-0.208188 1.224,-0.395588 m -23.50211,0.265707 0.69687,-0.215597 0.64421,-0.112554 m 10.62964,-0.687107 c 0.48187,0.135292 1.08164,-0.127428 1.41727,-0.187399 M 107.2607,91.627244 c -0.0863,-0.453988 -0.25188,-1.015364 -0.25768,-1.436686 -0.004,-0.311134 -0.13271,-0.659811 -0.11789,-0.999433 0.008,-0.200887 -0.0109,-0.392466 -0.0109,-0.624643 0,-0.121737 -0.0271,-0.254915 0.0109,-0.37479 0.096,-0.305141 0.3176,-0.289589 0.45096,-0.499716 0.18489,-0.291141 0.62553,-0.847706 1.08421,-0.760004 0.22998,0.04402 0.46254,0.319754 0.52632,0.51015 0.0393,0.117936 0.0696,0.203011 0.0966,0.312317 0.0663,0.272349 0.02,0.521523 -0.10759,0.74958 -0.14559,0.26047 -0.27894,0.516452 -0.51537,0.666308 -0.15397,0.09757 -0.42775,0.166155 -0.64421,0.145725 -0.40134,-0.03791 -0.63827,-0.18739 -0.87985,-0.18739 m -5.22761,0.07195 c 0.0309,-0.380656 -0.0699,-0.990619 0.23415,-1.508642 0.12755,-0.217003 0.25768,-0.721528 0.59074,-0.489283 0.43806,0.305393 0.17136,1.223368 -0.12885,1.530381 -0.16299,0.166533 -0.63078,0.358694 -0.69005,0.452641 -0.094,0.148227 0.0226,0.428488 0.0458,0.630054 0.0238,0.209323 0.19521,0.524519 0.31116,0.687116 0.12627,0.176394 0.19649,0.296764 0.34401,0.416445 0.30149,0.244617 0.59912,0.227562 0.89095,0.145735 m 0.7803,-1.996229 c 0.15268,-0.01164 0.40828,-0.03752 0.57256,-0.148372 0.14623,-0.0987 0.21709,-0.220687 0.3221,-0.353982 0.18618,-0.23624 0.35818,-0.469988 0.38653,-0.74957 0.0303,-0.300584 -0.0135,-0.746583 -0.32211,-0.822476 -0.35947,-0.08843 -0.62811,0.412954 -0.7621,0.69754 -0.18425,0.389034 -0.19198,0.602284 -0.21517,0.999433 -0.008,0.140732 0.0264,0.281279 0.0219,0.437253 -0.005,0.178896 -0.0109,0.229617 -0.0109,0.437253 0,0.2155 -0.0103,0.313568 0.0754,0.499717 0.1559,0.340368 0.23128,0.614714 0.51537,0.853698 0.15268,0.128553 0.30987,0.164226 0.50442,0.124936 0.24222,-0.04906 0.41617,-0.151911 0.5798,-0.353981 m -13.915073,-0.74959 c -0.07086,0.371348 0.0026,1.094505 0.708637,0.999433 0.291186,-0.03917 0.588169,-0.222694 0.83748,-0.343558 0.379444,-0.183831 0.775637,-0.391836 1.084215,-0.676683 0.129481,-0.119186 0.184247,-0.234921 0.289898,-0.353981 0.320176,-0.36042 0.568198,-0.730149 0.494114,-1.249297 -0.02835,-0.199568 -0.139151,-0.346302 -0.278946,-0.489283 -0.224186,-0.229113 -0.588812,-0.347921 -0.880643,-0.489341 -0.117242,-0.05672 -0.193265,-0.07301 -0.322108,-0.104061 -0.137217,-0.03326 -0.234495,-0.06506 -0.38653,-0.09367 -0.248667,-0.04693 -0.352385,-0.07292 -0.579794,-0.07292 -0.540497,0 -0.954727,0.05643 -1.417274,0.124927 -0.411654,0.06099 -1.603454,0.37829 -1.857274,0.05207 -0.118534,-0.151843 0.02512,-0.372472 0.08568,-0.489283 0.0612,-0.118799 0.133996,-0.212067 0.214523,-0.312317 0.228052,-0.282598 0.441931,-0.396151 0.719589,-0.582988 0.403279,-0.271593 1.013995,-0.721965 1.481696,-0.791235 0.193909,-0.0287 0.324685,-0.10694 0.515373,-0.124936 0.234494,-0.02211 0.394904,0.03113 0.579794,0.145735 0.157189,0.09731 0.297628,0.142535 0.429692,0.239488 0.123039,0.09056 0.199062,0.169403 0.343367,0.23942 m 4.187403,1.499149 c 0.118534,0.624527 -0.08503,1.592661 0.193265,2.123793 0.131418,0.250426 0.41423,0.39778 0.579794,0.687117 0.0715,0.124742 0.09018,0.187952 0.193265,0.312316 0.170073,0.205202 0.495402,0.466051 0.773059,0.499717 0.262198,0.0318 0.458688,-0.126556 0.568848,-0.37478 0.0657,-0.14717 0.19262,-0.487849 0.20421,-0.687117 0.0277,-0.479228 -0.105,-0.708593 -0.12885,-1.124359 -0.0168,-0.297579 -0.0554,-0.445437 -0.10758,-0.687107 -0.0444,-0.208761 -0.12112,-0.376603 -0.16106,-0.56218 -0.076,-0.355426 -0.15138,-0.430388 -0.246733,-0.749579 m 9.469963,3.498015 c 0.306,0.148227 0.41487,0.18739 0.70863,0.18739 0.34079,0 0.54436,0.0039 0.90191,-0.145725 0.30922,-0.128989 0.46512,-0.223877 0.63326,-0.478918 0.0741,-0.112438 0.14623,-0.225244 0.12885,-0.37479 -0.0554,-0.485531 -1.01272,-1.313495 -1.47075,-1.603268 -0.134,-0.08494 -0.25575,-0.08746 -0.36527,-0.218631 -0.11338,-0.136107 -0.12047,-0.359111 -0.0535,-0.489284 0.067,-0.129367 0.17587,-0.212697 0.2899,-0.312326 0.21903,-0.191763 0.53276,-0.39459 0.83748,-0.468485 0.18103,-0.04392 0.33306,0.06109 0.51537,0.09367 M 96.695546,87.00487 c 0,0.471355 0.176515,1.243546 0.36527,1.936403 0.103792,0.461135 0.689741,2.079219 0.840966,1.156503 0.06249,-0.09502 0.04675,-0.310979 0.08219,-0.469387 0.03544,-0.157293 0.133996,-0.314198 0.257686,-0.437253 m 15.525602,0.687097 c -0.0767,-0.40289 -0.20614,-1.396331 -0.25768,-1.998866 -0.018,-0.209818 -0.12885,-0.340368 -0.10209,-0.5622 -0.0267,-0.267316 -0.0911,-0.988844 -0.0911,-1.311779 0,-0.706848 0.15526,-1.070526 0.12885,-1.561622 m 4.76714,5.434476 c -0.16169,-0.271156 -0.38588,-0.653315 -0.52632,-1.061896 -0.0966,-0.281153 -0.12885,-0.42713 -0.31115,-0.624643 -0.11403,0.107434 -0.23256,0.18389 -0.37558,0.32275 -0.2448,0.237432 -0.61459,0.848646 -1.17054,0.66625 -0.30149,-0.09883 -0.36205,-0.494723 -0.30085,-0.80161 0.0238,-0.117674 0.0271,-0.18802 0.0431,-0.312327 0.0258,-0.200315 0.13465,-0.318503 0.22548,-0.499716 0.19648,-0.391652 0.50506,-0.900357 0.93412,-1.12436 0.26606,-0.139044 0.39941,-0.08029 0.56884,0.124937 0.12497,0.150912 0.14559,0.265037 0.18295,0.437253 0.0915,0.425443 0.0486,0.815844 -0.11247,1.186823 m 2.45291,1.686549 c -0.0934,-0.429448 -0.0702,-0.675868 -0.12885,-1.186833 -0.0277,-0.242232 -0.0699,-0.456364 -0.0699,-0.693292 m 3.63842,-0.962471 c 0.0767,-0.0019 0.35601,0.03142 0.49001,-0.03083 0.47879,-0.124064 0.80002,-0.227795 0.69922,-0.370408 -0.0548,-0.163033 -0.64364,-0.101519 -0.82273,0.04809 -0.23257,0.19377 -0.19858,0.186721 -0.39187,0.374305 -0.2113,0.205134 -0.61457,0.440191 -0.64421,0.69754 -0.0386,0.339185 -0.0528,0.863889 0.10762,1.124359 0.0856,0.139491 0.14818,0.306267 0.27895,0.437254 0.47994,0.480537 0.94764,0.345303 1.4817,0.249863 m 0.57979,-0.312327 c 0.0818,0.246111 0.43033,0.247672 0.83748,0.1874 0.2841,-0.04208 0.48896,-0.217943 0.55853,-0.499716 0.10565,-0.427635 -0.50377,-0.788249 -0.73054,-1.12437 -0.16557,-0.245985 -0.27895,-0.538695 -0.27895,-0.812033 0,-0.182901 -0.007,-0.281531 0.12883,-0.437253 0.1746,-0.199831 0.26414,-0.34256 0.57981,-0.37479 m 3.73644,-3.123226 c 0.0444,0.234368 0.0631,0.414389 0.16106,0.687107 0.0702,0.195641 0.0323,0.324068 0.0323,0.562179 0,0.751325 0.3105,1.621711 0.50441,2.373656 0.0954,0.369603 -0.10565,0.766936 0.22548,1.113927 0.51409,0.538017 1.18085,0.246431 1.78255,0.197833 0.26928,-0.02172 0.43613,-0.06661 0.64422,-0.156168 0.20551,-0.08853 0.39169,-0.11238 0.57979,-0.229055 m 0.57979,0.51015 -0.19326,-0.874507 -0.1179,-0.499716 -0.1398,-1.31176 m -14.4949,-1.186823 c -0.004,0.155538 -0.0322,0.269595 -0.0754,0.437253 -0.12178,0.473547 -0.0496,1.594096 0.0109,2.123793 0.0677,0.588108 0.1778,0.626893 0.25814,1.18374 0.78577,-0.0029 0.65535,0.762844 1.2345,1.158684 0.46963,0.321063 0.79496,0.273532 1.21306,0.156159 m -2.0366,-1.22588 c 0.0245,-0.300701 0.19805,-0.546928 0.39389,-0.897913 0.22032,-0.3949 0.60491,-0.666939 0.86968,-0.999433 m 14.49487,1.686539 -0.18232,-1.374222 -0.0753,-0.74957 m 3.67203,2.061329 c 0,-0.338497 -0.27701,-0.774751 -0.41872,-0.999433 -0.25892,-0.429137 -0.4481,-0.479597 -0.93908,-0.40033 -0.0831,0.0223 -0.17373,0.05314 -0.33158,0.11271 -0.11276,0.04257 -0.26586,0.146694 -0.31868,0.28762 -0.0328,0.08892 0.0105,0.212562 0.0323,0.312317 0.0838,0.388781 0.17069,0.654566 0.23642,0.999433 m 3.54318,-0.56218 -0.24673,-1.561613 -0.0105,-0.56218 m -28.28109,2.06133 c 0.49878,0.03423 0.97058,-0.209304 1.35238,-0.312337 0.12047,-0.01134 0.19842,-0.04712 0.32211,-0.09367 0.34336,-0.12961 0.80721,-0.172651 1.03075,-0.281085 m 28.86089,0.562132 c 0.0328,-0.200015 0.0419,-0.683674 -0.0212,-0.999433 -0.0323,-0.159038 -0.0432,-0.244618 -0.0432,-0.437253 0,-0.263729 -0.0238,-0.358607 -0.12883,-0.56218 0.24416,-0.174281 0.30021,-0.145987 0.5798,-0.1874 0.46642,-0.06904 0.67257,-0.249853 1.09516,-0.249853 m 5.21392,-0.477319 c -0.42003,-0.04295 -1.23716,0.305103 -1.4665,0.602245 -0.16556,0.213502 -0.34079,0.432444 -0.44064,0.74958 -0.0934,0.297384 -0.21968,0.997552 0.172,1.218055 0.51086,0.287465 1.04299,-0.644511 1.28844,-0.905738 0.14494,-0.154413 0.30793,-0.127613 0.41873,-0.312317 0.10052,-0.167658 0.0323,-0.548072 0.0323,-0.812043 0,-0.165971 -0.007,-0.266473 0,-0.437253 0.0154,-0.356988 0.0593,-0.767373 0.0644,-1.12436 0.003,-0.161036 0.0386,-0.212571 0.0967,-0.37479 0.14817,-0.414137 0.047,-0.805857 0.16105,-1.186823 m -13.8606,4.920662 c -0.0348,-0.320326 -0.2606,-0.718048 -0.48414,-0.92293 -0.14947,-0.137677 -0.35691,-0.188146 -0.53665,-0.05207 -0.28603,0.216683 -0.41555,0.523473 -0.55986,0.667016 m 15.3342,-0.01057 c 0.007,-0.175337 -0.23619,-0.319724 -0.24972,-0.652966 m -4.61053,0.181495 c 1.75527,-0.10152 2.33194,-0.655109 0.98856,-0.67231 -0.94558,0.333668 -1.58528,1.18627 -0.91744,1.84071 0.40392,0.355174 0.51989,0.278341 0.96631,0.260296 0.15011,-0.0058 0.19779,0.01309 0.32212,-0.01047 0.16942,-0.0319 0.52761,-0.203641 0.64422,-0.239429 m -5.66896,-1.436677 c 0.65646,-0.117179 0.91865,-0.285778 1.41727,-0.37479 m 0,0.0019 c 0,-0.06632 0.003,-0.279708 0,-0.439056 -0.001,-0.136795 -0.0419,-0.228493 -0.0967,-0.37478 -0.20229,-0.54238 -0.30536,-1.361919 -0.35432,-1.811476 m -2.96339,0.56218 0.14144,0.268848 m -6.45476,-0.456239 c -0.10947,-0.192015 -0.17136,-0.233059 -0.19326,-0.437253 M 19.003127,73.200209 c 0.01212,-0.446629 0,-0.774567 0,-1.311759 0,-0.356047 0.01946,-0.515958 0.03221,-0.812034 0.0086,-0.199268 -0.0041,-0.531578 -0.03221,-0.812043 -0.01578,-0.157409 -0.06481,-0.294204 -0.118085,-0.437253 -0.07551,-0.20238 -0.188949,-0.660248 -0.526132,-0.582794 -0.628444,0.02017 -1.01638,0.964042 -0.975753,0.978557 l -0.191537,0.773403 m 8.897871,2.203923 c -0.103068,-0.379783 0.09947,-0.486607 0.128849,-0.999433 0.03125,-0.545318 0.107059,-0.445117 0.107059,-0.766189 m -9.06166,1.453296 v -1.061897 l -0.05352,-0.742492 -0.07252,-0.536678 -0.07439,-0.570936 -0.186098,-0.89833 m 3.994153,3.747869 c 0,-0.329809 -0.06442,-0.628395 -0.06442,-0.936969 0,-0.416639 -0.146623,-0.722091 -0.193264,-1.186824 -0.0516,-0.514707 0.07439,-0.481875 0.07439,-0.921 M 4.4438726,72.638029 c 0,-0.15866 -0.00422,-0.416018 0,-0.562189 0.00316,-0.111188 0.026096,-0.181767 0,-0.312317 -0.045738,-0.227998 -0.082333,-0.485977 -0.1502946,-0.74958 -0.089157,-0.34605 -0.1863079,-0.95133 -0.2792036,-1.31175 -0.1179541,-0.457867 -0.4723947,-1.218054 -0.4723947,-1.218054 0,0 0.4723499,-0.240478 0.7730695,-0.281086 0.3056808,-0.04121 0.474015,-0.09686 0.8374807,-0.06244 0.1584779,0.01503 0.2341733,0.0543 0.3865295,0.06244 0.2586533,0.01377 0.3798296,0.06875 0.5797942,0.187391 0.300978,0.178023 0.7338947,0.545948 0.7730591,0.936969 0.088776,0.885745 -0.5373406,1.487282 -1.2132514,1.967635 -0.1995775,0.141798 -0.5740613,0.377291 -0.7838178,0.44787 -0.151326,0.05061 -0.2923651,0.06497 -0.4327403,0.07563 m 6.6816148,-0.742113 c 0.0069,0.474729 0.251373,1.351107 0.83748,1.540998 0.394453,0.127429 0.703097,-0.267975 0.84824,-0.541565 0.46042,-0.868883 0.416742,-1.668427 -0.225476,-2.498583 -0.239197,-0.309204 -0.688795,-0.817667 -1.138137,-0.572797 -0.604333,0.69879 -0.326782,1.218821 -0.322107,2.071947 z m 12.240101,1.311749 c 0,-0.466603 0.07073,-0.396645 0.08588,-0.74957 0.0061,-0.142418 -0.05534,-0.334812 -0.107323,-0.499716 -0.06089,-0.500715 0.01734,-0.928262 0.02142,-1.374213 0.0095,-0.659628 0.337891,-0.810792 0.644217,-1.249296 m 0.422845,3.087805 c -0.335164,-0.327588 -1.691201,-1.160459 -1.85085,-1.588656 -0.301558,-0.584665 -0.350196,-0.931966 -0.246927,-1.249286 m -12.17568,3.498007 C 10.119421,71.958437 10.039411,71.521805 9.9626842,71.138899 9.925061,70.951509 9.9331101,70.862807 9.8660577,70.701646 9.8017064,70.546738 9.7106084,70.429927 9.6512756,70.264402 9.5679152,70.031401 9.3224046,69.720335 9.0178185,69.670981 8.794147,69.634717 8.6714241,69.79966 8.5024458,69.952076 8.3669672,70.074501 8.2564851,70.076382 8.126675,70.212547 7.993387,70.351843 8.051494,70.561729 8.051494,70.701646 v 1.186833 m 25.583002,-1.484218 c -0.349222,0.148373 -1.673607,0.175115 -2.396126,0.102529 M 20.679835,68.393527 c 0.01855,-0.153036 -0.0042,-0.134924 0.128849,-0.18739 m 9.725941,3.494961 c 0.646522,-0.724262 0.893385,-1.833098 1.191802,-2.498592 0.05953,-0.12993 0.08819,-0.263603 0.150295,-0.37479 0.07781,-0.139296 0.161633,-0.713946 0.268446,-0.82013 0.392327,0.390401 0.337376,1.010022 0.612004,1.694636 0.05037,0.125557 0.103082,0.31607 0.139602,0.437254 0.08668,0.321741 0.211514,0.50693 0.300407,0.794376 0.06977,0.406021 0.336917,1.223223 0.751794,1.266953 m 9.856463,-1.093128 c 0.248732,0.110557 0.506611,-0.05556 0.708637,-0.135554 0.200223,-0.07873 0.353676,-0.280464 0.526132,-0.44724 0.200802,-0.194895 0.48213,-0.509093 0.504614,-0.822661 0.0087,-0.120553 0.02712,-0.193644 0.03221,-0.312326 0.0059,-0.139917 -0.01384,-0.339806 -0.03221,-0.499717 -0.0259,-0.226117 -0.329,-0.600906 -0.515373,-0.687106 -0.100684,-0.04683 -0.283132,-0.03743 -0.354318,-0.135554 -0.0746,-0.102441 -0.03221,-0.179265 -0.03221,-0.301699 0,-0.37416 -0.01591,-0.770185 -0.246928,-1.061897 -0.163309,-0.206133 -0.30117,-0.253606 -0.590553,-0.249863 -0.655984,0.155965 -1.160114,0.171566 -1.513867,0.718338 -0.331022,0.555306 -0.385135,1.264898 0.171853,1.707145 0.166338,0.132422 0.434718,0.208615 0.633457,0.198017 0.234883,-0.01251 0.318043,-0.114746 0.569286,-0.114746 l -0.150586,0.583231 c -0.127084,0.654633 -0.268036,1.31364 0.289855,1.561622 z m -29.708857,-0.06652 c 0.252404,-0.148043 0.203773,-0.147083 0.397038,-0.245781 0.116597,-0.05992 0.398705,-0.379784 0.483161,-0.530949 0.188177,-0.336683 0.382279,-0.788927 0.214718,-1.186823 -0.05489,-0.13055 -0.143403,-0.261101 -0.31135,-0.229249 -0.233721,0.04499 -0.241451,0.238616 -0.34356,0.416639 -0.450603,0.609149 -0.452378,1.576478 -0.429501,2.123803 0.02106,0.49034 0.347232,1.509767 0.848239,1.780235 0.369329,0.199888 0.953118,-0.472228 1.14883,-0.718339 M 57.398394,70.86847 c 0.520526,0.153657 1.096455,-0.411015 1.374112,-0.791429 0.236428,-0.323564 0.302781,-0.676489 0.225475,-1.124359 -0.06249,-0.362922 -0.291185,-0.632149 -0.633264,-0.728966 -0.386529,-0.109306 -0.752444,0.03122 -0.848432,-0.270467 -0.04445,-0.139927 0.108232,-0.400398 0.172006,-0.499717 0.255109,-0.395404 0.736984,-1.664684 -0.09663,-1.925785 -0.184891,-0.05808 -0.36978,9.69e-4 -0.515373,0.09367 -0.428403,0.270477 -0.856616,0.726299 -0.968709,1.185417 -0.07666,0.316069 0.01333,0.983977 0.163422,1.271316 0.0679,0.213279 0.54174,0.36809 0.658899,0.388859 0,0 -0.175739,0.222665 -0.175739,0.360711 0,0.430379 -0.0393,0.956963 0.08568,1.374223 0.07086,0.235493 0.291831,0.587167 0.558535,0.666502 M 46.575551,70.764119 c 0.357412,0 0.641575,0.0637 0.966324,-0.09367 0.374999,-0.181776 0.910728,-0.828284 0.858934,-1.280528 -0.01913,-0.167406 -0.04478,-0.277963 -0.08588,-0.437253 -0.0391,-0.151785 -0.123171,-0.306703 -0.268445,-0.406022 -0.264386,-0.180515 -0.597704,-0.286088 -0.891144,-0.18739 -0.132514,0.04431 -0.185792,0.09182 -0.322107,0.09367 -0.131286,0.0019 -0.25002,0.01251 -0.354318,-0.135554 -0.09425,-0.133672 -0.1159,-0.359169 -0.09663,-0.551552 0.01502,-0.149914 0.08401,-0.304211 0.107363,-0.437253 0.257334,0 0.483325,-0.02686 0.730124,-0.0831 0.527099,-0.121175 0.870013,-0.14304 1.352853,-0.229249 m 2.705703,-0.06244 c 0.456104,0.01813 0.791097,0.224255 0.83748,0.687116 0.06925,0.690229 -0.195262,1.466037 -0.612004,1.998866 -0.919304,1.073474 -1.322444,0.511556 -1.320643,-0.499726 0,-0.482845 0.113896,-0.946336 0.268445,-1.436686 0.219708,-0.564284 0.388389,-0.781898 0.826722,-0.749561 z M 8.056901,70.31811 C 7.9909946,70.228129 7.9039295,69.968327 7.8689491,69.764686 7.8483989,69.645373 7.8369909,69.561054 7.8152148,69.452369 7.7330133,69.042595 7.6554485,68.554747 7.6004973,68.265536 m 27.3791727,1.87394 c 0.457489,-0.08959 0.752786,-0.08378 1.394189,-0.3483 0.464693,-0.171769 0.532186,-0.131423 0.667341,-0.182639 0.373388,-0.140547 0.897393,-0.321072 1.288432,-0.281095 m 16.749572,0.812034 c 0.0699,-0.367916 0,-0.976318 0,-1.436687 0,-0.364793 -0.06629,-0.402899 -0.139601,-0.687106 -0.02841,-0.109936 0.0108,-0.248612 0.0108,-0.37479 0,-0.372288 -0.04761,-0.816406 0.0108,-1.186823 0.02679,-0.169908 0.05367,-0.267355 0.05367,-0.437253 m -20.35722,2.498573 c 0.08427,0.0058 0.173811,0.04994 0.322108,0.05188 0.217294,0.0029 0.440323,-0.103712 0.708638,-0.11431 0.236943,-0.0097 0.984297,-0.224245 1.11662,0.124937 0.04723,0.124306 -0.0087,0.203011 -0.03221,0.312317 -0.03602,0.167406 -0.24245,0.647759 -0.434841,1.030664 -0.237391,0.375411 -0.180798,0.437884 -0.198714,0.593422 -0.0507,0.442246 -0.310382,0.911352 0.193265,1.155591 0.279333,0.135544 0.473242,0.02628 0.708637,-0.06244 0.24358,-0.09182 0.539531,-0.138046 0.77306,-0.229249 0.216908,-0.08436 0.545781,-0.254226 0.773059,-0.364163 m 5.089399,-2.061358 c 0.360714,-0.240807 0.707216,-0.504574 0.981728,-0.884688 m 8.101632,-1.988665 c 0,0.420391 0.05849,0.657756 0.139602,1.061896 0.03775,0.188021 0.110419,0.258609 0.118085,0.437253 0.0087,0.203011 0.06952,0.669625 0.332867,0.843275 0.291315,0.191763 0.855905,-0.148043 1.084409,-0.249863 0.167238,-0.07437 0.41342,-0.08562 0.52268,-0.09367 m 1.934085,0.406691 c 0.3118,-0.0637 0.447573,-0.351131 0.622155,-0.520418 M 14.171508,65.454705 c 0.181089,0.590919 0.943776,0.271728 1.288432,-0.01057 0.296211,-0.242358 0.483355,-0.731458 0.472404,-1.113743 -0.02093,-0.731457 -0.853328,-0.756444 -1.374306,-0.74957 -0.28236,0.0039 -0.394324,0.168027 -0.708638,0.198008 -0.186114,0.01745 -0.464866,-0.169898 -0.483161,-0.322934 -0.02209,-0.184898 -0.01225,-0.329819 -0.03221,-0.56219 -0.01649,-0.191763 0.124079,-0.9226 0.322107,-1.030655 0.184439,-0.10057 0.869499,-0.06312 1.095167,-0.114309 0.601505,-0.138046 1.154757,-0.103071 1.674961,0.0831 m -3.70424,1.186823 c -0.259941,-0.465363 -0.86035,-1.208068 -1.449487,-0.905738 -0.139149,0.07117 -0.143143,0.156168 -0.225474,0.281095 -0.166853,0.252975 -0.274501,0.489719 -0.418741,0.687106 -0.08536,0.116811 -0.133482,0.181776 -0.193265,0.312327 -0.14089,0.307323 -0.193264,0.790178 -0.193264,1.12436 0,0.30358 0.05772,0.570925 0.322108,0.812043 0.413329,0.377281 1.048589,0.30357 1.481696,0.09367 0.549709,-0.266725 0.945902,-0.991938 0.966324,-1.467918 0.08636,-0.48493 0.0021,-0.508667 -0.289897,-0.93697 z m 10.404086,2.498583 c 0.35799,-0.0097 0.694593,-0.08184 1.030744,-0.176783 0.271667,-0.07679 0.584498,-0.02686 0.837481,-0.146161 0.344848,-0.162413 0.559759,-0.264224 0.579795,-0.614026 0.0091,-0.15929 -0.0413,-0.266104 -0.139602,-0.37479 -0.457587,-0.505961 -1.283923,-0.739583 -1.921889,-0.988816 -0.235139,-0.09182 -0.626372,-0.395394 -0.590553,-0.63526 0.02906,-0.194265 0.239519,-0.43288 0.397288,-0.582794 0.580954,-0.554064 1.371663,-0.755204 1.868226,-0.666502 M 6.3120774,65.079983 c 0.214267,0.103692 0.628562,0.417889 1.0307454,0.37479 0.6570362,-0.07059 1.2264577,-0.645258 1.1595885,-1.31176 -0.07763,-0.773937 -1.2756759,-1.088755 -1.9326476,-1.12436 -0.2455747,-0.01309 -0.702388,0.212378 -0.8696907,-0.06244 -0.1448198,-0.237985 0.088578,-0.784554 0.171812,-0.999433 0.055407,-0.143039 0.1343838,-0.330439 0.3113492,-0.385407 0.2230918,-0.06875 0.4110095,-0.01629 0.6442159,-0.07243 0.1754846,-0.04247 0.2962104,-0.106194 0.450951,-0.166776 0.2551097,-0.09994 0.815256,-0.282336 1.095167,-0.312326 0.443607,-0.04809 0.4848369,0.03064 0.9019022,0.06244 m 18.2957307,4.310058 c 0,-0.234242 -0.05534,-0.389712 -0.06442,-0.725145 m 4.89604,-3.647377 c -0.334156,0.203632 -0.243901,0.285468 -0.38653,0.56218 -0.108351,0.209886 -0.193846,0.422263 -0.246929,0.687116 -0.06571,0.327938 -0.1396,0.448492 -0.1396,0.74957 0,0.532199 -0.12246,1.146225 0.03221,1.561613 0.05991,0.161162 0.125753,0.356047 0.214718,0.499717 0.363338,0.587167 1.050793,0.219795 1.428034,-0.06244 0.155975,-0.116695 0.175483,-0.411694 0.175483,-0.547238 0,-0.280465 -0.0629,-0.53184 0.01821,-0.846659 0.04496,-0.174271 0.218342,-0.594342 0.332432,-0.729896 0.08606,-0.102431 0.19713,-0.264844 0.375773,-0.229239 0.232883,0.04683 0.21871,0.364172 0.193264,0.541566 -0.02171,0.151785 -0.239261,0.745827 -0.332866,0.874506 -0.225347,0.310445 -0.2796,0.32978 -0.57465,0.382256 m -29.1129375,0.86703 c 0,-0.442246 -0.058687,-0.910731 -0.064417,-1.311749 C 4.3064551,63.418479 4.1435246,62.870669 4.0573287,62.269132 4.0088245,61.930577 3.8770134,61.867483 3.7996424,61.582025 m 15.6544456,3.560276 c -0.128849,-0.678371 0.06326,-1.780865 0.279138,-2.498583 0.065,-0.21613 0.174518,-0.437874 0.171812,-0.624643 -0.0017,-0.119313 0.01907,-0.256108 -0.08588,-0.364173 -0.202863,-0.209255 -0.581791,-0.03432 -0.751606,0.04121 -0.549838,0.244859 -1.02192,0.612775 -1.61054,0.44787 m 23.900398,2.248729 c -0.08233,-0.4335 -0.193265,-1.782115 -0.193265,-2.373656 0,-0.290461 0.01469,-0.688978 0.139602,-0.988815 0.08349,-0.20113 0.201012,-0.254605 0.310915,-0.452612 0.06783,-0.122435 0.375497,-0.22825 0.515807,-0.318193 0.317599,-0.203641 0.854616,-0.414768 1.22401,-0.270477 0.312509,0.121804 0.611103,0.391031 0.7623,0.593411 0.265353,0.354806 -0.244543,0.727715 -0.397222,0.93697 -0.156867,0.214879 -0.302654,0.354175 -0.493921,0.510334 -0.513762,0.41852 -1.538298,0.337381 -2.069841,0.05255 m -2.63293,0.374091 c 0,-0.349182 0.06076,-0.630267 0,-0.999433 -0.02951,-0.179274 -0.171424,-0.393532 -0.38653,-0.426636 -0.178383,-0.02744 -0.536113,0.04955 -0.654004,0.144455 -0.195716,0.290016 -0.278111,0.595303 -0.312325,0.906824 m -1.481696,-0.06244 c 0.432656,-0.04557 0.193265,-0.830156 0.193265,-1.249287 0,-0.112448 0.04284,-0.327947 -0.128849,-0.385407 -0.332478,-0.110567 -0.464607,0.134923 -0.773059,0.322944 m 2.25194,1.028609 c 0,-0.455996 0.02039,-1.33219 -0.576988,-1.622021 -0.328098,-0.15929 -0.632104,0.118673 -0.83748,0.281085 m 5.468132,0.651803 c -0.05022,-0.288484 -0.08409,-0.511401 -0.154755,-0.601547 m 3.190272,-0.362582 c -0.08146,0.739534 0.195411,1.485856 0.193279,2.123783 0,0.151165 0.02519,0.271098 0.05367,0.437253 0.103596,0.602158 0.392199,1.509146 1.105926,0.999433 0.185985,-0.133042 0.337891,-0.15866 0.515373,-0.312317 M 3.4130864,56.959446 c -0.1964855,0.362292 -0.8179604,1.358602 0.1288485,1.49915 0.813903,0.120553 1.7809355,-0.365414 2.3835987,-0.812043 0.143982,-0.106805 0.2594911,-0.178024 0.3757708,-0.312317 C 6.4441917,57.169322 6.6084672,56.933838 6.634171,56.709583 6.6824253,56.288581 6.4677706,55.981878 6.1832199,55.71015 6.048977,55.582082 5.8399437,55.487369 5.6986663,55.398047 5.5508838,55.304962 5.1487057,55.140766 4.9655554,55.128267 4.6648357,55.108293 4.4048097,54.97367 4.121741,54.866856 3.6309129,54.681968 3.2485712,54.829428 2.7688881,54.648234 2.3521449,54.490825 1.8576448,54.524558 1.4804564,54.200364 1.215104,53.972996 1.4202871,53.665663 1.6092995,53.482025 1.7365967,53.35897 1.9723796,53.120355 2.1246722,53.013541 3.086937,52.338923 3.9800143,52.312685 5.0236432,52.711832 m 8.7613358,5.247028 -0.06442,-0.874506 -0.0091,-0.464752 -0.05532,-0.347291 c -0.218436,-0.511886 -0.140705,-1.071079 -0.21472,-1.49915 -0.07897,-0.393523 -0.04252,-0.809541 -0.118152,-1.186823 -0.09477,-0.472237 -0.08722,-0.837651 -0.05367,-1.249296 m 0.410528,4.071084 c 0.228448,0.186896 0.3868,0.344615 0.62023,0.363911 0.317599,0.03433 0.869176,0.122425 1.224009,0.208004 0.160409,0.03937 0.27405,0.143039 0.450952,0.166776 m 9.276708,-3.747879 c 0.01199,-0.444118 -0.0409,-1.767746 -0.901903,-1.68654 -0.757726,0.07117 -0.979852,0.896362 -1.288431,1.436687 -0.209112,0.366043 -0.225733,0.670244 -0.34356,1.061896 -0.06803,0.226117 -0.08704,0.296706 -0.10739,0.499717 -0.01507,0.150534 -0.08967,0.271718 -0.118086,0.437253 -0.11358,0.660248 -0.196808,1.964512 0.246929,2.436119 0.135863,0.14429 0.2066,0.170528 0.386529,0.18739 0.127293,0.01183 0.182248,0.03306 0.322108,0.05188 0.631331,0.08494 1.535745,-0.588418 1.997068,-0.905738 0.13303,-0.09124 0.168743,-0.116423 0.264345,-0.206996 m -15.7899502,0.90473 c 0.4944362,0.249853 1.1968882,-0.364017 1.4436232,-0.653858 0.161053,-0.189262 0.198619,-0.168541 0.337075,-0.412547 0.158542,-0.164914 0.202888,-0.370495 0.196444,-0.567785 l -0.01093,-0.333445 c -0.0045,-0.137977 0.0097,-0.406312 0.04297,-0.571837 0.08169,-0.407272 0.09518,-1.036705 -0.288699,-1.277823 -0.217101,-0.136164 -0.583869,-0.09736 -0.700537,0.0382 -0.112158,0.13055 -0.223414,0.23175 -0.311349,0.37479 -0.361405,0.586546 -0.575285,1.303013 -0.7945121,1.998866 -0.079369,0.251734 -0.1682038,0.310445 -0.1718119,0.56218 -0.00369,0.258609 -0.073639,0.675868 0.2576863,0.843274 M 11.75425,56.484882 c 0.05588,0.472644 0.354722,0.900269 0.677829,1.1617 M 7.4072399,57.459192 C 7.8480765,57.414201 7.6733019,56.044991 7.6649262,55.460326 7.6637662,55.37975 7.5416897,54.891271 7.5360778,54.835673 7.5232998,54.707624 7.4937516,54.65953 7.4824096,54.460893 7.4697635,54.239769 7.4451154,54.101714 7.4072291,53.898713 7.2953348,53.297796 7.2139644,52.318978 7.2139644,51.649984 m 20.3572266,4.434985 c 0.215877,0.234242 0.123105,0.527196 0.52613,0.863879 0.14714,0.123065 0.349295,0.06438 0.504616,0.07311 m 0.371845,0.222714 c 0.422089,0.03995 1.253897,-0.247071 1.474928,-0.597504 0.183086,-0.290451 0.114607,-0.555926 -0.04297,-0.812033 -0.330798,-0.537202 -0.965608,-0.802046 -1.202551,-1.31176 -0.279397,-0.600906 0.276947,-1.436065 0.88045,-1.499149 M 16.59642,55.207757 c 0.06996,-0.368535 0.156137,-0.736858 0.731744,-1.163484 0.09406,-0.06933 0.282421,-0.204261 0.386529,-0.239246 0.173294,-0.05808 0.335701,-0.02182 0.46171,0.218632 0.186436,0.356047 -0.35026,0.797043 -0.654975,0.968201 -0.183537,0.103062 -0.339695,0.209255 -0.515371,0.218622 -0.332029,0.01813 -0.314185,-0.109316 -0.697879,0.156158 -0.14205,0.09808 -0.13329,0.196146 -0.139602,0.343559 -7.75e-4,1.162437 0.828299,1.736572 1.739386,1.749012 0.213301,0 0.30684,-0.01687 0.515373,-0.104322 0.306646,-0.128049 0.488508,-0.253606 0.708637,-0.457867 0.325844,-0.302951 0.387495,-0.484096 0.644217,-0.56218 m 23.581103,-1.249287 c 0.222255,0 0.494205,-0.02628 0.770252,-0.104312 0.340082,-0.09619 0.685446,-0.422263 0.869692,-0.770194 0.150488,-0.284207 0.233915,-1.13998 -0.225477,-1.113742 -0.213492,0.01183 -0.444523,0.198473 -0.61247,0.321528 -0.133611,0.09745 -0.210579,0.16695 -0.321642,0.303115 -0.145978,0.178023 -0.179994,0.374169 -0.289897,0.614026 -0.149586,0.326066 -0.153259,0.394783 -0.182506,0.687116 -0.01861,0.185519 -0.08936,0.272339 -0.07518,0.437253 0.01855,0.2155 0.04567,0.492842 0.118086,0.687107 0.249183,0.668994 0.923161,0.83702 1.556876,0.56218 M 33.69125,56.834568 c 0,-0.667743 -0.03125,-1.836463 -0.268444,-2.498583 -0.06423,-0.179274 -0.321207,-0.486597 -0.569036,-0.416639 -0.39149,0.111188 -0.627257,0.528466 -0.785348,0.862648 -0.09979,0.211127 -0.111142,0.419752 -0.245398,0.553424 l 0.0042,-0.349666 -0.05207,-0.769952 -0.252759,-1.941144 -0.03894,-0.422321 m 9.680682,4.794833 c 0.1032,-0.47535 0.06442,-1.083752 0.06442,-1.624076 0,-0.133673 -0.07286,-0.531569 0.03221,-0.655875 0.148363,-0.175531 0.471309,-0.314198 0.622764,-0.530948 0.291765,-0.41789 0.615691,-0.744858 1.174741,-0.737362 0.407155,0.03481 0.423792,0.112176 0.654726,0.348338 m -30.139261,2.560484 c 0.1731,-0.214249 0.51969,-0.384351 0.748064,-0.67232 0.395741,-0.499087 0.580438,-1.29739 1.009292,-1.624077 m 10.844273,0.499717 c -0.17046,0.540945 -0.275913,1.030044 -0.38653,1.624076 -0.120878,0.662362 0.0025,1.112123 0.558355,1.291145 0.351097,-0.03306 0.644473,-0.467864 0.80527,-0.728965 0.127872,-0.207384 0.139601,-0.283587 0.41874,-0.312317 l -0.06442,-0.812043 -0.0108,-0.74957 c 0,0 0.212062,-1.069837 -0.182494,-1.218064 -0.457645,-0.171925 -0.976939,0.394153 -1.138121,0.905738 z m 21.817481,-2.311183 c -0.01888,0.695853 -0.08588,1.468539 -0.08588,2.123793 0,0.136174 0.02145,0.221123 0.02145,0.37479 0,0.209875 0.02802,0.38915 -0.08588,0.56218 -0.15036,0.227988 -0.19816,0.252975 -0.322109,0.437253 -0.199255,0.296075 -0.642539,1.331743 -1.138135,0.978819 -0.411142,-0.292963 -0.159767,-0.946967 -0.08588,-1.291146 0.04291,-0.199888 0.04999,-0.301078 0.161054,-0.499716 0.186951,-0.334812 0.173616,-0.798924 0.831241,-0.7716 0.180894,0.03578 0.316257,-0.0019 0.61885,0.230538 m -16.084535,2.516822 v -0.66401 -0.56218 m 7.215216,-3.747869 c -0.03613,-0.332941 -0.434136,-1.050029 -0.901902,-0.999433 -0.227343,0.02434 -0.41436,0.139917 -0.601246,0.301699 -0.826142,0.717097 -1.609702,2.052593 -1.65351,3.07139 -0.0059,0.139296 -0.01456,0.232991 -0.04297,0.37478 -0.0974,0.485977 0.0061,1.040661 0.193265,1.436686 0.07827,0.165535 0.133225,0.242988 0.300655,0.364172 0.224382,0.162403 0.578056,0.297957 0.901902,0.249854 0.187145,-0.02754 0.344076,-0.0637 0.515373,-0.134924 0.430724,-0.179895 1.232901,-0.787046 1.352854,-1.228672 m 9.27671,0.999423 c -0.428539,-0.416309 -0.415298,-0.52768 -0.546181,-1.040496 m 1.641347,1.040506 c 0,-0.339185 -0.06442,-0.50409 -0.06442,-0.812043 0,-0.726464 0.156415,-1.24054 0.128848,-1.749003 m 1.932648,2.498583 c 0.53631,-0.211137 0.515373,-1.040041 0.515373,-1.49915 0,-0.239866 0.06481,-0.605289 0.03221,-0.812043 -0.03633,-0.23049 -0.03221,-0.304201 -0.03221,-0.56218 0,-0.298577 -0.04387,-0.426005 -0.10739,-0.687106 -0.166402,-0.683364 0.02808,-1.819592 -0.02146,-2.123803 m 2.1259,5.309492 c 0.210724,0.05934 0.659161,0.04935 1.030746,-0.02065 0.372489,-0.07059 1.200822,-0.171149 1.341904,-0.666493 0.0947,-0.331069 -0.3395,-0.558437 -0.568842,-0.666502 -0.305486,-0.143669 -0.677972,-0.3473 -0.966323,-0.406021 -0.294858,-0.05934 -0.482711,-0.05624 -0.837481,-0.114309 -0.155063,-0.0256 -0.268831,-0.103692 -0.311349,-0.249854 -0.04781,-0.164284 0.100749,-0.327317 0.193265,-0.426636 0.257492,-0.277342 1.040922,-0.839522 1.213251,-0.322943 M 5.8555072,55.215893 c 0.230436,-0.266725 0.5924314,-0.340882 0.9719382,-0.463317 0.2692184,-0.08746 0.3291109,-0.151786 0.6508737,-0.260471 0.5365448,-0.2736 0.9663014,-0.468485 1.6683034,-0.468485 h 0.4509511 m 31.6579534,0.349657 c -0.2276,-0.246731 -0.401954,-0.860621 -0.413485,-1.286627 m 9.856503,0.687107 c 0.771366,-0.07999 1.378779,-0.09493 1.997064,-0.249853 0.434975,-0.04121 0.688796,0.02182 0.901902,-0.124927 m -4.316246,-1.686549 -0.06442,-0.37479"
       id="path2705"
       sodipodi:nodetypes="cccccccccccccccscccccccsccccccccsccsccccccccccccccccccccccsccccccccccccccsccccccccccccccccccccccccccccccccccccccccccccccccccccccccsscccccccccccccsccccccccccccccccccccccscccsccccccccccccccccccsccccccccsccscscsccccccccccccccccccccccccccccccccssccccsscccccccccccccccccccccccsccccccccccccccccccccccccccccccssccccscccccccccccccccsccsccscccccsccccccsccccccccccsccccccssccccccccscccccscccsccccccccccccccsccccccsccccccsscccccccscccccccscccccccccsccsccccccccccccccccccccccccccsccccsccscccccccccccccsccccccccccccccccccccscscccccccscccccccccccccccccccccccccccscsccccccccccccccscccccccccscccccccccscccccccccccccccccscccccccccscccccccccccscccccccsccccccccccccccccccccccccsccccccsccccccccccccccccccscsscccscscccccccccccccccccccccccccccccccsccccccccccccccccccsccccccccccsccascccccccccccccccccscccccccccsccccsccccccccccccccccscccccccccccccccccccccccsccccccccccssccccccccccccccccccccccccccccccccccccscccccccccccccccccccscccccccccsscccaccssccccccccccccccccsccccccsccscsccccccccccccccsccccccccccc" />
  </g>
</svg>
