<?xml version="1.0" encoding="UTF-8" standalone="no"?>
<!-- Created with Inkscape (http://www.inkscape.org/) -->

<svg
   width="3000"
   height="1998.207"
   viewBox="0 0 793.74998 528.69228"
   version="1.1"
   id="svg202"
   inkscape:version="1.2.1 (9c6d41e410, 2022-07-14)"
   sodipodi:docname="MonicaG - Stake - Envelope23.svg"
   xmlns:inkscape="http://www.inkscape.org/namespaces/inkscape"
   xmlns:sodipodi="http://sodipodi.sourceforge.net/DTD/sodipodi-0.dtd"
   xmlns="http://www.w3.org/2000/svg"
   xmlns:svg="http://www.w3.org/2000/svg">
  <sodipodi:namedview
     id="namedview204"
     pagecolor="#ffffff"
     bordercolor="#000000"
     borderopacity="0.25"
     inkscape:showpageshadow="2"
     inkscape:pageopacity="0.0"
     inkscape:pagecheckerboard="0"
     inkscape:deskcolor="#d1d1d1"
     inkscape:document-units="mm"
     showgrid="false"
     inkscape:zoom="1"
     inkscape:cx="384"
     inkscape:cy="211.5"
     inkscape:window-width="1920"
     inkscape:window-height="1051"
     inkscape:window-x="-9"
     inkscape:window-y="-9"
     inkscape:window-maximized="1"
     inkscape:current-layer="layer1" />
  <defs
     id="defs199">
    <pattern
       id="EMFhbasepattern"
       patternUnits="userSpaceOnUse"
       width="6"
       height="6"
       x="0"
       y="0" />
    <pattern
       id="EMFhbasepattern-9"
       patternUnits="userSpaceOnUse"
       width="6"
       height="6"
       x="0"
       y="0" />
    <pattern
       id="EMFhbasepattern-7"
       patternUnits="userSpaceOnUse"
       width="6"
       height="6"
       x="0"
       y="0" />
    <pattern
       id="EMFhbasepattern-70"
       patternUnits="userSpaceOnUse"
       width="6"
       height="6"
       x="0"
       y="0" />
    <pattern
       id="EMFhbasepattern-2"
       patternUnits="userSpaceOnUse"
       width="6"
       height="6"
       x="0"
       y="0" />
  </defs>
  <g
     inkscape:label="Layer 1"
     inkscape:groupmode="layer"
     id="layer1">
    <path
       style="fill:none;stroke:#7c85ad;stroke-width:0.0879525"
       d="m 85.529842,250.86309 c 0.408099,-1.40013 -0.916464,-3.73982 -2.433644,-3.78195 -0.438883,-0.0122 -0.588584,0.0355 -0.593862,0.39542 -0.0044,0.30342 0.223244,0.95816 0.293614,1.2982 0.155676,0.7452 0.214937,1.30578 0.447133,2.00038 0.155674,0.46735 0.323302,1.09786 0.336493,1.56661 0.0062,0.22004 0.109432,0.36923 0.13229,0.54425 0.713293,-0.0563 1.508383,-0.96245 1.817976,-2.02291 z m 31.428048,1.58314 0.1759,-1.14338 0.12482,-1.06801 c 0.4777,-0.87986 0.48649,-2.43186 1.19451,-2.97779 m -29.464109,2.72652 c 0,-0.43277 0.0017,-1.13111 -0.527715,-1.42191 -0.215482,-0.11851 -0.553221,-0.30191 -0.776618,-0.13192 -0.619187,0.46973 -0.621824,1.98846 -0.542667,2.69721 0.03166,0.28166 0.27529,0.82892 0.615666,0.77691 0.52068,-0.0795 0.766945,-0.99544 0.894476,-1.39258 0.07036,-0.22095 0.203171,-0.36379 0.336858,-0.52771 0.03073,1.02441 0.39421,1.77212 1.143382,2.19881 m 13.544677,-0.17591 c 0,-0.73871 0.22428,-1.41207 0.17591,-2.0229 m 35.53278,1.847 c -0.12137,-0.65834 -0.31135,-1.56258 -0.35181,-2.28677 -0.0123,-0.21937 0.044,-0.70362 0.044,-0.70362 l 0.047,-0.51417 -0.0301,-0.59614 c -0.0259,-0.54711 0.0583,-0.92918 0.11503,-1.35236 m -25.85807,4.92534 c 0.27001,-1.46558 -0.21001,-3.79793 -0.32792,-5.28731 m 13.78464,5.28731 c 0.1803,-0.9783 0.42481,-2.67732 0.43977,-3.78195 0.004,-0.34789 0.0616,-1.05248 -0.19086,-1.30463 -0.19965,-0.20033 -0.67987,-0.10261 -0.95253,-0.10261 -0.95076,0 -1.77136,-0.0651 -2.63857,-0.088 m -31.574927,5.18919 c -0.586644,-1.17359 -1.407241,-3.16048 -1.407241,-4.48558 m 3.254241,4.39763 c -0.642931,-1.01848 -0.826752,-2.43031 -1.055428,-3.60605 -0.07476,-0.38278 -0.16711,-0.7177 -0.175906,-1.05543 m 36.588221,4.13376 c 0.20844,0.19183 0.46087,0.51395 0.79157,0.52772 0.7388,0.0308 0.87776,-1.08942 0.57169,-1.56848 -0.5242,-0.8203 -1.46705,-0.45981 -2.05193,-1.01146 -0.29464,-0.27808 -0.21285,-0.99731 0.073,-1.15804 0.31223,-0.17585 0.49404,-0.11102 0.86783,-0.2253 0.43009,-0.13152 0.9011,-0.11742 1.37165,-0.12982 m 9.91291,2.422 c 0.0651,0.42885 0.0132,1.02434 0.27793,1.40724 0.15479,0.22306 0.35357,0.30754 0.58664,0.2492 0.6315,-0.15779 1.30698,-1.06636 1.23134,-1.74439 -0.0712,-0.64411 -0.61743,-1.44493 -1.14339,-1.83234 -1.66805,-1.39863 -1.17467,0.40726 -0.95252,1.92029 z m -40.824847,1.4952 c 0.159194,-0.0628 0.292877,-0.13257 0.439767,-0.23455 1.35358,-0.94027 -1.192641,-1.16135 -1.671102,-1.55382 -0.753753,-0.61755 0.492535,-1.80194 1.055429,-1.90563 m 36.412313,3.16628 c -0.6227,0.18023 -1.31401,0.35181 -2.11086,0.35181 -0.41074,0 -0.83542,0.006 -0.83542,0.006 0,0 1.01133,-1.74879 1.01133,-2.55634 0,-1.35098 -0.65085,-1.62774 -1.58315,-0.61566 m -16.44711,0.70362 c 0.81605,1.14344 0.84891,2.00932 1.93492,2.72652 m -21.196472,-0.7036 v -0.79157 l -0.439781,-1.27531 c -0.42571,-0.37589 -0.742339,-0.50363 -0.92352,-0.29318 -0.246268,0.28647 -0.360606,1.29288 -0.395786,1.65644 -0.01848,0.18912 0,0.3276 0,0.52771 0,0.35916 -0.04574,1.24711 0.527713,1.39258 0.441522,0.11182 0.641173,-0.51779 0.820597,-0.77691 0.142483,-0.20474 0.218467,-0.32873 0.424276,-0.44803 0.235714,0.32006 0.287258,0.77676 0.778033,0.97574 m 39.49065,-5.18919 c -0.3694,0.73896 -0.91646,2.78892 0.088,3.29821 0.56202,0.28499 1.23573,-0.21147 1.89454,-0.39578 0,0 0.59802,-0.29676 0.83198,-0.61567 m -28.84839,-1.05543 c 0.28408,-0.44929 0.51012,-0.82325 1.05542,-1.20205 0.59808,-0.41548 1.44418,-0.71197 2.11086,-0.95278 0.42569,-0.15383 0.70626,-0.22032 1.14339,0.044 m -31.83884,-2.37472 -0.27881,-2.63858 -0.864571,-3.95786 m 8.443433,5.62896 c 0,-1.13371 -0.128409,-2.66681 -0.468785,-3.78195 -0.208447,-0.67988 -0.622705,-1.44155 -0.674597,-1.93496 m 2.447709,1.847 c 0.02463,0.28875 0.160953,0.48515 0.190858,0.79157 0.08179,0.84127 0.247145,2.30708 0.982427,2.87315 0.316628,0.24389 0.562016,-9e-5 0.77662,-0.23457 0.440643,-0.48145 0.725609,-1.2046 0.600715,-1.847 -0.135445,-0.69975 -0.653485,-1.9544 -1.216381,-2.44799 -0.213724,-0.18725 -0.516282,-0.22946 -0.791572,-0.1759 -0.641033,0.52096 -0.386775,0.47139 -0.542667,1.04074 z m -5.701958,3.43015 c 0.931417,-0.58831 2.382634,-1.44198 1.319287,-2.63857 -0.191735,-0.21522 -0.451196,-0.43703 -0.703619,-0.5424 -0.135447,-0.0563 -0.377316,-0.0553 -0.424811,-0.24917 -0.146001,-0.59307 0.767825,-1.91789 -0.278808,-2.33074 -0.378197,-0.14917 -0.83203,0.52446 -1.055431,0.74759 m 11.082008,5.01329 c 0,-0.43193 -0.150399,-0.94223 -0.175903,-1.40724 -0.06421,-1.15692 -0.429209,-2.78923 -1.143382,-3.694 m 8.619338,4.30967 c 0,-1.02808 -0.0879,-1.6769 -0.0879,-2.46267 0.22428,-0.006 0.35972,-0.0333 0.61567,-0.16121 0.22691,-0.11355 0.5066,-0.27626 0.70362,-0.45445 0.46439,-0.4191 0.78277,-0.96194 0.79157,-1.58315 0.004,-0.24802 0.0299,-0.40256 -0.015,-0.61566 -0.14512,-0.69756 -0.79333,-1.35289 -1.48024,-1.52448 -0.21988,-0.055 -0.36237,-0.12551 -0.61567,-0.14662 -1.10556,-0.0921 -1.75113,0.72974 -2.11086,1.58314 m 14.95192,4.92534 -0.23483,-2.02291 -0.11698,-0.87952 -0.14852,-0.66642 c -0.10135,-0.30027 -0.10305,-0.71787 -0.11535,-1.00468 -0.022,-0.53528 -0.088,-0.90794 -0.088,-1.40724 m 3.17689,3.26551 c -0.004,0.23932 0.044,0.51689 0.0185,0.7803 -0.0229,0.24196 0.0369,0.46554 0.0739,0.70362 0.0449,0.29781 0.17415,1.19484 0.60072,1.1287 0.30959,-0.0479 0.47582,-0.4541 0.61567,-0.68893 0.64314,-1.00587 -1.28337,-4.0621 -1.30877,-1.92369 z m -9.48295,0.0294 c 0.28761,-0.16863 1.54289,-0.56575 1.46876,-1.00815 -0.0589,-0.71101 -0.62447,-0.84276 -1.02641,-0.26386 -0.48022,0.69237 -0.56026,1.81499 -0.46879,2.63858 0.066,0.59482 0.40459,1.04294 0.87953,1.05543 m 2.19881,-0.17591 c 0.46087,0.32727 1.05543,-0.24213 1.05543,-0.87952 0,-0.34152 -0.26386,-0.77258 -0.42481,-1.05543 -0.22252,-0.39095 -1.17505,-1.20407 -0.79157,-1.6711 0.15655,-0.19112 0.38523,-0.17317 0.60071,-0.26386 m 11.43382,3.95786 c -0.34038,-0.76175 -0.60863,-1.58367 -0.93845,-2.37471 -0.0976,-0.23519 -0.18295,-0.64267 -0.46879,-0.68893 -0.41513,-0.0672 -0.46439,0.50959 -0.70362,0.77688 l -0.11795,-1.39605 m -14.48216,3.24305 c -0.29376,-1.01602 -0.55322,-4.59894 1.23134,-2.81448 m 22.07606,2.81448 v -1.31928 l -0.029,-0.52772 0.029,-0.52771 -0.12629,-2.7347 m -8.581,5.02146 v -1.75905 m 15.02492,-0.61566 c -0.2536,-1.8705 -0.93485,-1.98912 -2.19444,-2.99003 l 0.3858,1.84294 c 0.25489,0.5455 0.18764,2.43091 0.71519,3.02716 0.79089,-0.0708 1.23329,-1.16062 1.09345,-1.88007 z m -51.34928,1.67109 c 0.23596,-0.20167 0.507007,-0.31562 0.703619,-0.61567 m 42.217171,-4.66147 c 1.409,-1.11243 3.64915,0.72481 3.60606,2.28676 -0.0114,0.4256 -0.16851,1.29784 -0.41565,1.62748 -0.0642,0.0855 -0.49434,0.3166 -0.49434,0.3166 0,0 0.3138,0.26267 0.4145,0.37833 0.51804,0.59755 1.94672,0.50719 2.60636,0.31616 m -30.94197,-0.094 -0.0172,-0.52161 -0.088,-0.52772 -0.26386,-1.75905 m 39.22679,1.6711 c 0.0836,1.05587 1.29994,1.10838 2.02291,0.77688 0.30256,-0.13861 0.60159,-0.33914 0.68867,-0.68893 0.10554,-0.42112 -0.18998,-0.79104 -0.39579,-1.14338 -0.4723,-0.8096 -1.30609,-1.53213 -1.86107,-2.28676 -0.78806,-1.07047 0.73528,-0.87944 1.12843,-0.70362 m 15.30372,4.66148 -0.088,-1.23134 -0.073,-0.61567 -0.015,-1.05542 v -0.87953 l 0.088,-0.70362 m -28.32068,4.39762 h 0.61567 m 19.43749,-2.63857 c -0.51892,0.32762 -0.93582,0.43976 -1.4952,0.43976 0,0.29411 0.0387,0.57108 0.10291,0.87953 0.0484,0.23395 0.11434,0.66228 0.27793,0.86483 0.5453,0.67231 1.37821,0.40371 1.99388,0.0147 m -4.22172,0 -0.16095,-2.46266 -0.015,-0.70362 -0.17591,-0.70362 c 0.47583,-0.35076 0.72033,-0.35181 1.40724,-0.35181 m -34.30145,4.13376 0.96748,-0.26385 0.68744,-0.1526 0.98364,0.0647 m 44.24009,0.30783 c 0.65085,0.12832 1.69573,-1.04778 1.83205,-1.62712 0.17239,-0.7286 -0.87248,-1.5068 -1.48024,-1.64181 -0.75111,-0.16685 -0.9965,0.28655 -0.9965,0.93819 0,0.20097 0.0264,0.3161 0.029,0.52771 0.004,0.26606 0.0563,0.49975 0.11697,0.79157 0.0748,0.35894 -0.0264,0.90794 0.49869,1.01146 m -3.8699,-0.13193 v -1.31929 c 0,-0.89615 -0.015,-1.95395 -0.26386,-2.81448 m 10.81815,3.25424 c 0.62622,0.88146 1.56116,0.50951 2.18386,-0.26385 0.25418,-0.31496 0.44944,-0.75472 0.45471,-1.14338 0.004,-0.25551 0.004,-0.3483 -0.073,-0.61567 -0.20405,-0.69729 -0.89096,-1.29862 -1.68605,-1.01145 -0.40722,0.14696 -0.8848,0.62499 -1.21638,0.21988 -0.16095,-0.19552 -0.1029,-0.67856 -0.1029,-0.96748 0,-0.30537 -0.0581,-0.65208 0.11697,-0.87952 0.18119,-0.23431 0.31927,-0.17222 0.58665,-0.17591 0.72033,-0.01 1.37118,-0.0484 2.11085,0.0879 m 1.6711,4.54424 c 0.47055,0.14565 0.82675,-0.37239 1.07038,-0.67433 0.55674,-0.69149 0.47319,-2.26469 -0.63062,-2.43338 -0.31926,-0.0488 -0.42217,0.28083 -0.51276,0.49842 -0.22604,0.54285 -0.83115,2.32898 0.073,2.60929 m 2.63858,-3.48881 c 0.28232,-0.17098 0.63853,-0.39746 0.96747,-0.35181 0.74672,0.10378 0.55938,1.27337 0.33686,1.75905 -0.21284,0.46597 -0.63414,0.95885 -0.8206,1.40724 -0.0818,0.19701 -0.0844,0.36482 -0.13192,0.52771 0.77661,0.3271 2.46882,-0.49464 3.07833,-0.87952 m 1.14338,0.79157 c 0,-0.4577 0.066,-1.1571 0.21988,-1.58315 0.15832,-0.43888 0.59808,-0.90168 0.35181,-1.31928 -0.0967,-0.16333 -0.24099,-0.16729 -0.39578,-0.17591 -0.41514,-0.023 -1.12931,0.19772 -1.49519,0.35181 m -28.4966,2.46267 c 0,-0.4227 -0.1715,-0.86563 0.044,-1.23133 0.19789,-0.33545 1.54708,-0.43976 1.97893,-0.43976 m 13.28082,0.87952 c 0.55058,0 1.06774,-0.19042 1.49519,-0.52772 m -20.22906,-0.35181 1.31928,-0.35181 m -53.299178,-1.31928 c -0.127529,-0.69333 -0.312231,-1.30258 -0.351809,-2.02291 -0.0167,-0.30106 -0.07828,-0.62358 -0.073,-0.96747 0.0053,-0.4213 0.01898,-0.46017 0.08846,-0.79157 0.04661,-0.2234 0.258956,-0.50318 0.380325,-0.70362 0.160954,-0.26624 0.435364,-0.43264 0.747595,-0.33713 1.374698,0.42006 -0.01935,1.51173 -0.527713,1.75905 -0.27969,0.13589 -0.45363,0.16676 -0.685826,0.17291 m -17.520301,-0.5394 c -0.559204,0.70837 -0.03404,1.94129 0.879522,2.36003 0.665801,0.30537 1.634159,0.0639 2.198813,-0.35181 0.329822,-0.24293 0.771343,-0.77275 0.864571,-1.12869 0.146003,-0.55138 -0.343014,-1.13688 -0.659642,-1.58315 -0.611269,-0.8629 -1.917365,-1.78315 -2.843504,-2.27207 -0.608805,-0.32138 -1.483932,-0.67759 -1.803024,-1.33398 -0.415312,-0.85437 0.908109,-1.4864 1.539168,-1.49519 1.574348,-0.0219 2.784575,0.70441 3.957859,1.847 m 7.305645,4.10987 c -0.138085,-0.47705 -0.259774,-0.68975 -0.166544,-1.29539 0.03606,-0.23853 0.04222,-0.38215 0.08795,-0.61567 0.04749,-0.24688 0.342136,-1.02544 0.673716,-0.83555 0.594559,0.33985 0.04661,1.81526 -0.146001,2.24279 -0.108182,0.23994 -0.286726,0.29693 -0.410737,0.52771 -0.09587,0.17864 -0.06157,0.47891 -0.01496,0.70363 0.121376,0.5796 0.472305,1.67443 1.202312,1.58314 0.452953,-0.0565 0.723848,-0.34539 1.055428,-0.61567 m 0.479968,-1.23247 c 0,-0.62402 -0.175658,-1.29502 0.07677,-2.02177 0.09763,-0.2796 0.416896,-0.71523 0.747598,-0.41047 0.46087,0.42349 -0.136327,1.74198 -0.439762,2.08157 -0.13105,0.14688 -0.2964,0.1847 -0.380835,0.35181 -0.08356,0.16509 0.0167,0.43668 0.04398,0.61567 0.06508,0.42516 0.371159,1.09025 0.879525,1.04074 0.372916,-0.0362 0.60775,-0.41672 0.879522,-0.68894 m -10.906102,-3.51809 1.495191,3.43014 c 0,0 0.244547,0.45629 0.439763,0.41047 0.325158,-0.0763 0.351809,-0.93818 0.351809,-0.93818 l 0.08795,-0.61567 c 0.246268,0.0713 0.313989,0.13545 0.454714,0.35181 0.179424,0.27758 0.470546,0.9315 0.864571,0.86484 0.418656,-0.0708 0.439763,-0.8235 0.439763,-1.1287 0,-1.07337 -0.128409,-2.36196 -0.527713,-3.25424 m 16.535063,4.39762 c -0.25506,-0.69341 -0.44592,-1.3739 -0.52772,-2.11085 -0.17674,-1.18475 -0.34233,-2.34112 -0.35187,-3.60605 m -2.990321,4.39762 c -0.08092,0.28101 -0.140726,0.67635 0.102904,0.96748 0.510124,0.61074 1.509265,-0.43475 1.568193,-0.96748 0.08356,-0.75252 -0.359726,-1.32729 -0.879525,-1.847 -0.170628,-0.17081 -0.756392,-0.50485 -0.747596,-0.70362 0.01935,-0.42868 0.651727,-0.36105 0.923499,-0.43976 m 8.003676,1.93495 c -0.56905,0.16922 -0.53035,0.61074 -1.05543,1.14338 -0.17678,0.17916 -0.44064,0.53352 -0.70362,0.39579 -0.16183,-0.0847 -0.17327,-0.23123 -0.1759,-0.39579 -0.01,-0.72675 0.4723,-1.75157 0.87952,-2.37472 0.13633,-0.20827 0.47055,-0.72217 0.77662,-0.57169 0.48198,0.23651 0.24099,1.37004 0.29376,1.71508 0.0308,0.20062 0.0554,0.34081 0.10203,0.52771 0.0967,0.38532 0.25154,1.07328 0.58664,1.31929 m 1.847,-0.26386 c -0.3949,-0.93854 -0.39403,-2.77507 -0.43976,-3.86991 -0.0211,-0.49851 -0.0879,-0.54926 -0.0879,-1.05543 m 2.46267,0.35181 c -0.4512,0.81567 -1.92073,2.4296 -1.92073,2.4296 0,0 0.58033,0.75278 0.76239,1.00055 0.51101,0.69368 1.40108,1.37382 2.21376,0.96748 m 0.71417,-2.04472 c 0.4468,-0.23527 0.9455,-0.46439 1.20584,-1.03362 0.13808,-0.30062 9.9e-4,-0.92843 -0.42481,-0.67433 -0.31751,0.18954 -0.76079,0.88885 -0.79157,1.20204 -0.0185,0.19297 0.0695,0.29816 -0.029,0.52772 -0.18646,0.43167 -0.23483,0.45331 -0.23483,1.05543 0,0.9885 0.71153,1.14347 1.31928,0.96748 m 1.93496,0 c 0.21372,-0.0169 0.35796,-0.0503 0.52771,-0.1906 1.38086,-1.14083 -0.90063,-1.6645 -0.96748,-2.62388 -0.0325,-0.46712 0.43097,-0.77891 0.79158,-0.89421 0.365,-0.11645 0.67987,0.0209 0.96747,0.27854 m -33.421928,3.25424 -0.527715,-2.19881 m 38.611123,-4.74943 c 0,1.65474 0.0422,3.39109 0.42481,5.01329 0.14425,0.61056 0.44329,1.64128 1.15834,1.67109 0.35269,0.0147 0.96835,-0.28857 1.31929,-0.52771 0.657,-0.44724 1.24012,-0.80019 1.847,-1.23134 m 8.26752,1.05543 c -0.34917,-0.82824 -0.088,-1.91305 -0.088,-2.63857 m -6.68438,2.28676 -0.26386,-2.46266 m 5.3651,2.46266 c -0.10291,-0.56034 0.0405,-1.76362 -0.35181,-2.11085 -0.24187,-0.21399 -0.49957,-0.0569 -0.6746,0.1759 -0.48813,0.6512 -0.82059,1.14541 -0.82059,1.847 m -1.58315,-0.1759 c -0.015,-0.57521 -0.32014,-1.10117 -0.43976,-1.6711 m 8.00363,-1.14338 c 0.64255,-0.1002 1.3348,-0.13414 1.92766,-0.30059 l 1.32653,-0.22712 m 0.57454,1.09609 c 0.16271,-0.36403 0.31208,-1.05669 0.92071,-1.24271 0.27617,-0.0843 0.80564,-0.0608 0.86457,0.32252 0.0572,0.36614 -0.53123,0.56633 -0.77662,0.68893 -0.31399,0.15708 -0.81532,0.15541 -1.04048,0.24926 -0.4125,0.17159 -0.41426,0.97864 -0.33774,1.34857 0.14776,0.7089 0.62095,0.87953 1.29027,0.87953 m -42.033735,0.0939 0.820415,-0.56587 c 0.23946,-0.14691 0.51154,-0.1259 0.7552,-0.21702 0.9323,-0.27186 1.78895,-0.46738 2.81448,-0.27854 m 41.7774,-0.87952 c 0,-0.33537 0.24363,-1.12491 -0.088,-1.26063 -0.13985,-0.0573 -0.39579,0.004 -0.52772,0.0733 -0.48374,0.25199 -1.36238,1.91613 -1.01145,2.40401 0.23131,0.3212 0.71857,-0.25955 0.89448,-0.51303 0.22428,-0.32375 0.71485,-0.71486 0.71485,-0.71486 0,0 0.13653,0.84265 0.1937,1.15462 m -14.95243,0.21073 c -0.10466,-0.33123 -0.38912,-1.12051 -0.87901,-1.25147 -0.19526,-0.0523 -0.3738,0.0536 -0.49869,0.1759 -0.14073,0.13818 -0.21292,0.10431 -0.5387,0.53616 m 9.30491,-5.30028 0.16096,1.847 0.19085,0.96748 0.1041,0.39426 c 0.001,1.06375 -0.016,2.01458 -0.016,3.12384 m 7.01246,-2.88007 c -0.0475,-0.76971 -0.12124,-1.53942 -0.0643,-2.30913 m -11.87358,1.14338 0.17591,0.36381 m -6.15667,-1.50719 0.35181,-0.35181 M 12.558337,209.7893 c 0.621999,0.52692 1.312162,-0.55234 1.465903,-1.05543 0.265353,-0.86844 -1.619908,-3.42117 -2.125547,-1.49519 0.07124,0.44099 -0.004,0.90952 0.06502,1.36106 0.06902,0.45155 0.204728,0.85921 0.594622,1.18956 z m 16.798916,0.17591 c 0.19543,-0.53044 0.575826,-1.06766 0.263857,-1.58315 m -24.5387309,1.49519 c -0.065701,-0.22692 -0.1342155,-0.57705 -0.175905,-0.79157 -0.035093,-0.18048 -0.1453855,-0.44724 -0.043976,-0.58638 0.148024,-0.2029 0.3479399,-0.14424 0.6596433,-0.27845 0.7198029,-0.30995 1.9404069,-1.06036 1.6418083,-2.0376 -0.3343072,-1.09404 -1.8423398,-1.32782 -2.6972376,-1.11409 -0.5063423,0.12665 -1.0915778,0.28329 -1.1433817,0.76228 m 12.4012949,2.37472 c -0.265259,-0.37332 -0.04254,-0.90737 0.25649,-1.39297 0.299027,-0.48561 0.622065,-0.85677 0.945554,-0.45403 0.247586,0.30827 0.157083,0.68462 0,0.96747 -0.169045,0.30432 -0.444336,0.48478 -0.762284,0.67018 -0.187515,0.10942 -0.343278,0.17297 -0.513027,0.26801 -0.132016,0.0739 -0.105542,0.26632 -0.08795,0.3811 0.171859,1.12517 1.071788,1.39308 1.920266,0.87952 m -6.420529,0 c -0.01645,-0.62472 -0.25427,-2.81448 -1.1433815,-2.81448 -0.4243706,0 -0.6896352,0.56492 -0.967477,0.79158 -0.4638612,-0.51848 -0.4650925,-1.38147 -0.6156672,-2.19881 m 16.8868697,4.04581 0.665445,-1.79948 1.005644,-1.80657 m -8.003665,3.5181 c 0,-0.61594 -0.08795,-1.31912 -0.08795,-1.93496 0,-0.13377 -0.02498,-0.31592 0.04398,-0.42507 0.101057,-0.16008 0.235624,-0.17098 0.395786,-0.21988 0.16192,-0.0495 0.334923,-0.0694 0.527714,-0.0587 0.949623,0.0528 1.143382,1.70118 1.143382,2.46267 m 2.022906,0 c -0.142395,-0.77284 -0.220057,-1.43873 0,-2.19881 m 10.466341,2.11085 0.650436,-0.77428 0.229089,-0.45705 0.205193,-0.43976 0.601066,-1.23133 0.46905,-0.61567 0.181898,-0.23905 c 0.983321,1.60411 0.09037,2.35392 1.621122,3.22943 m 9.322968,0.49843 c 0.256208,0.0783 0.483213,-0.1073 0.703622,-0.20528 0.658498,-0.29262 1.502226,-0.89967 1.524477,-1.70039 0.011,-0.39499 -0.275554,-0.92279 -0.644952,-1.04074 -0.128148,-0.041 -0.239055,-0.0273 -0.351812,-0.0294 -0.295694,-0.005 -0.727631,0.18637 -1.055429,0.39579 -0.191032,0.12208 -0.458232,0.23342 -0.600979,0.41047 -0.170012,0.21073 -0.176257,0.62279 -0.190593,0.96748 -0.01705,0.40968 0.08725,1.04056 0.615666,1.20204 M 9.040239,208.82182 c -0.1600736,-0.38021 -0.1809119,-1.05282 -0.078975,-1.3508 m 29.3671399,-0.32029 c 0.329388,-0.13606 1.499808,-0.14312 2.405975,-0.28699 m -35.8807783,1.67059 c -0.4245464,-0.59755 -0.2498618,-1.89835 -0.5079143,-2.71561 m 49.3011296,2.16756 c 0.44328,0.26596 1.936274,-0.70266 2.198812,-1.09941 0.364826,-0.55155 0.444512,-1.61226 -0.278546,-1.97893 -0.242573,-0.12305 -0.559201,-0.0778 -0.791572,-0.0293 -0.70784,0.14741 -1.196593,1.18833 -1.348574,1.83231 -0.0847,0.35867 -0.239142,0.99994 0.21988,1.27531 m -2.917119,-0.39578 c 0.413906,0.26139 1.678222,0.45876 1.275311,-0.52772 -0.35357,-0.86554 -1.340043,-0.50845 -1.788337,-1.05543 -0.135096,-0.16482 -0.09727,-0.35304 -0.02938,-0.52771 0.119793,-0.30783 0.190858,-0.54724 0.630356,-0.57169 0.628157,-0.0349 1.143294,0.13193 1.847,0.13193 m 8.707295,0.78857 c 0,0.52666 -0.666417,1.55923 0.01468,1.98193 0.717429,0.4453 2.323001,-1.04918 2.360029,-1.71507 0.05875,-1.0571 -1.162204,-0.24882 -1.465904,-0.63036 -0.158227,-0.19877 0.225861,-0.7322 0.293233,-0.95279 0.104662,-0.34266 -0.07775,-1.01611 -0.410473,-1.15807 -0.27802,-0.11856 -0.576354,0.11126 -0.791572,0.29324 -0.205018,0.17317 -0.415576,0.41777 -0.498428,0.68893 -0.159985,0.52358 -0.152069,1.33793 0.410475,1.4805 0.288043,0.0731 0.732035,-0.20071 0.953939,-0.41681 m -37.630109,0.0797 c 0.842043,0.9709 1.030925,1.93342 1.84701,2.81448 m 7.828267,-0.56304 c 0.390247,0.16429 1.195998,0.0802 1.75854,-0.0526 0.371555,-0.0844 0.331676,-0.16288 0.961121,0.0295 m 22.08242,-0.0295 0.175906,-0.70363 0.02929,-0.61566 0.146616,-0.79157 0.439763,-1.847 m -13.632627,3.07833 c -0.378549,-0.26896 -0.599396,0.0215 -0.938189,-0.43976 -0.150663,-0.20519 -0.162889,-0.48119 -0.07327,-0.70362 0.18989,-0.47143 0.974514,-1.16238 1.539168,-1.04074 0.232457,0.05 0.355591,0.26737 0.527715,0.33712 m 10.466342,-0.61567 c -0.257614,0.51531 -0.705908,1.91472 0.175903,2.18412 0.56791,0.17353 0.988861,-0.22094 1.371895,-0.33185 M 38.02793,206.02513 c 0.912111,-0.4056 1.654352,-0.4841 2.042452,-0.6178 0.424408,-0.14621 0.65357,0.008 0.612138,0.0432 0,0 0.07896,0.331 -0.349322,0.73832 -0.647888,0.58988 -1.49317,1.59269 -1.110582,2.10527 1.399922,0.18346 1.865884,-0.15378 2.360027,-0.43976 m -19.34954,-2.63857 c 0.241503,0.38203 0.3277,0.41534 0.469837,0.51644 m 25.144789,0.25123 c 0.171505,-0.38338 0.372897,-0.92155 -0.06431,-1.3658 -0.320411,-0.3256 -0.639152,-0.23325 -0.967478,0 m -41.8215169,-2.1284 c -0.083203,-0.45173 -0.1691327,-0.5921 -0.2785456,-1.05543 -0.1763445,-0.74689 -0.5130264,-2.03874 -0.5130264,-2.63857 m 2.9024304,2.90243 c 0.299742,0.29974 0.6929776,0.73493 1.143382,0.70362 0.5034398,-0.0349 0.9714346,-0.54197 0.8502361,-1.05543 -0.1691324,-0.71629 -0.998348,-0.96748 -1.6418081,-0.96748 -0.2450355,0 -0.852699,0.11785 -1.0114532,-0.10264 -0.1746736,-0.24266 0.00519,-1.07285 0.1466168,-1.17267 0.1696602,-0.11979 0.543634,-0.12226 0.7768839,-0.13193 0.4511081,-0.0188 0.7614043,0.015 1.1433818,0.0733 0.5680849,0.0868 1.3175275,0.27855 1.9349532,0.27855 m 0.527715,0.79157 c -0.03158,0.32498 0,0.52041 0,0.87952 0,0.20335 8.8e-5,0.34592 0.07327,0.52772 0.239054,0.59341 0.745485,0.95727 1.333974,0.63035 0.452428,-0.25137 0.989289,-0.69746 1.289999,-1.15807 0.439058,-0.67266 -0.1117,-1.80601 -0.850236,-1.847 -0.506694,-0.0281 -0.773542,0.24583 -1.231337,0.13193 -0.336597,-0.0901 -0.570198,0.36791 -0.61567,0.83555 z m 15.039874,2.11086 c 0.341783,0.063 0.64346,0.13166 0.967476,0.0147 0.375557,-0.13563 1.113917,-0.34188 0.952788,-0.89422 -0.350401,-1.20143 -2.378409,-0.83581 -2.653172,-1.93495 -0.162536,-0.65006 0.820772,-1.14338 1.348574,-1.14338 0.461398,0 0.708369,0.1898 1.055429,0.52771 m 9.059101,3.16629 c 0.308452,-0.30845 0.872138,-0.63291 0.996768,-1.23133 0.08144,-0.39086 -0.162977,-1.13996 -0.644956,-1.02615 -0.589809,0.13932 -0.742848,1.26001 -0.644955,1.72976 0.04521,0.21725 0.02418,0.30291 0.205193,0.46906 0.4132,0.37934 0.526307,0.28584 1.055428,0.14661 m -2.550627,-3.694 c -0.788141,0.0829 -0.879522,1.22834 -0.879522,1.847 0,0.54064 -0.0038,1.13379 0.454449,1.55386 0.297544,0.27273 0.707137,0.38575 1.040742,0.38109 0.34873,-0.005 0.590161,-0.11539 0.791572,-0.26385 m -20.668825,0 c 0.234481,0 0.419006,0.0558 0.615667,-0.044 0.534135,-0.27081 0.424195,-1.08991 0,-1.42193 -0.289891,-0.22683 -1.057276,-0.29315 -1.319286,-0.29315 -0.146705,0 -0.278194,0.0618 -0.425075,-0.044 -0.173266,-0.12471 -0.06975,-0.41874 -0.02938,-0.57169 0.102641,-0.38875 0.149168,-0.67398 0.454451,-0.83555 0.256205,-0.13562 0.49781,-0.0493 0.879524,-0.044 0.239934,0.003 0.369576,0.064 0.615667,0.088 0.383649,0.0373 0.431213,-0.15831 0.848724,-0.0101 m 0.822373,0.53783 c 0.698606,0.10678 1.559309,-0.28962 2.198811,-0.3518 0.28136,-0.0274 0.475031,0.012 0.703619,0 m -0.263857,2.81447 c -0.160337,-0.87037 0.175905,-1.96151 0.175905,-2.72652 m 25.682114,2.55062 -0.102641,-0.61567 -0.07327,-0.79157 c 0.201149,-0.0159 0.36518,-0.0546 0.615668,-0.11724 0.398337,-0.0996 0.999051,-0.31795 1.319288,-0.67433 0.943728,-1.05033 -0.543899,-1.92176 -1.495194,-1.93496 -0.465093,-0.006 -0.85217,0.10607 -1.231334,0.17591 m 4.045813,0.61567 c -0.0445,0.56368 -0.332371,2.52915 0.351809,3.06364 0.366851,0.28664 1.306448,-0.0733 1.75905,-0.0733 m -22.515816,-0.5277 0.316463,0.0413 m 16.839855,-0.55177 c 0,-0.3585 -0.125124,-0.92584 -0.26945,-1.42453 m -4.045813,1.14338 c -0.152859,-0.52815 -0.697222,-1.78411 -1.512454,-1.26325 -0.285844,0.18259 -0.218274,0.19322 -0.422499,0.47168 m -0.967476,0.52772 v -1.05543 l 0.08795,-0.79157 c 0.590161,0.18637 0.731949,0.84947 0.882523,1.36962 m -2.146927,-1.1005 c 0.466178,-0.24153 1.190674,-0.304 1.25805,-0.26328 M 2.0040408,195.7169 c -0.1710675,0.0855 -0.8238506,0.3139 -0.586379,0.70362 0.2435404,0.39965 0.8049409,0.33325 1.202046,0.41047 0.2263019,0.044 0.3836487,-0.005 0.6156673,-0.044 0.6307069,-0.1052 1.5818246,-0.45173 1.8909775,-1.07012 0.1496951,-0.29939 -0.060511,-0.63537 -0.219881,-0.87953 -0.5507584,-0.84372 -1.368804,-1.06026 -2.1988113,-1.50988 -0.305107,-0.16526 -0.6504081,-0.42867 -0.7036195,-0.77688 -0.092174,-0.60326 0.9091645,-1.37135 1.4951916,-1.21664 0.5924478,0.15629 1.2169981,0.91048 1.4072392,1.39255 m 18.6459184,0.088 c 0,-0.36316 0.118912,-1.18912 -0.117241,-1.4805 -0.648209,-0.79984 -1.456052,0.5541 -1.61252,1.21664 -0.208623,0.88366 0.125508,3.41845 1.114094,3.67932 0.42824,0.11301 1.176628,-0.34953 1.495191,-0.60098 m -11.609722,0.52771 c -0.199037,-0.36008 -0.392532,-0.74891 -0.513027,-1.14338 -0.06025,-0.19692 -0.19156,-0.32331 -0.219881,-0.52771 -0.04776,-0.34355 0.03536,-0.70732 0.02929,-1.14339 -0.004,-0.29015 -0.07019,-0.84478 -0.439762,-0.95279 -0.290243,-0.0849 -0.601155,0.14618 -0.762284,0.33713 -0.4519,0.53563 -1.3667812,2.36847 -0.630267,2.97569 0.51716,0.42648 1.478405,-0.97601 1.801102,-1.22491 m 5.132453,-0.34354 c 0.489543,-0.0128 1.347871,-0.5089 1.700384,-1.14339 0.173707,-0.31258 0.15339,-0.66017 -0.293145,-0.70362 -0.573274,-0.0558 -1.22166,0.84593 -1.392551,1.31929 -0.08716,0.24125 -0.03078,0.36439 -0.131929,0.61567 -0.120407,0.29877 -0.182677,0.3993 -0.131928,0.70362 0.08883,0.53325 0.403965,1.1023 0.952788,1.21664 0.38963,0.0812 0.776357,-0.11389 1.143382,-0.24917 m -2.81448,0.17591 -1.348575,-1.92027 -0.425162,-0.45445 0.542403,-0.79157 1.231334,-1.49519 m -9.1470545,4.57353 0.175905,-1.23134 v -0.52771 l -0.1026405,-0.79157 -0.073264,-0.52772 -0.2638572,-1.58314 m 22.1640187,3.60606 c 0,0.32287 -0.109766,0.59693 0.11724,0.87952 0.310209,0.3862 0.817254,-0.004 0.923501,-0.35181 0.09666,-0.31636 -0.02955,-0.61619 -0.161216,-0.87952 -0.267464,-0.53484 -1.253937,-0.84206 -1.465904,-1.40724 -0.389454,-1.03872 0.878909,-1.08692 1.377951,-1.23134 m -15.567583,3.95786 c -0.09472,-0.51417 -0.10651,-1.07548 -0.205193,-1.58314 -0.04925,-0.25321 -0.170188,-0.49851 0.117241,-0.61567 l 0.379612,-0.008 m 16.859069,0.71189 c -0.03193,-0.1102 -0.109414,-0.29701 -0.04398,-0.43976 0.137733,-0.30053 0.323929,-0.34477 0.410473,-0.61567 0.09068,-0.284 0.304315,-1.26352 0.776885,-1.0994 0.665008,0.23087 1.023678,1.58323 1.055428,2.15483 0.03386,0.60951 0.112316,1.26705 0.791572,1.23134 m -7.30005,-0.96748 c -0.218915,0.0461 -0.216881,0.15248 -0.381353,0.33402 -0.167988,0.18531 -0.538982,0.51094 -0.849981,0.44286 -0.34281,-0.0749 -0.35181,-0.65568 -0.35181,-0.86483 0,-0.94171 0.383676,-2.77455 1.278616,-2.56562 0.555744,0.83932 0.334456,0.97367 0.304528,1.33428 v 0.61567 l 0.01469,0.61567 c -0.01375,0.24339 0.1661,0.29319 0.249169,0.43976 0.261163,0.36397 0.531347,0.68885 0.884606,0.65374 m 14.511203,-2.54322 c 0.04169,-0.52824 0.683743,-1.37364 1.315154,-0.925 -0.179247,0.34064 -0.502209,0.68885 -0.879525,0.83555 -0.196572,0.0764 -0.380217,0.0177 -0.615666,0.19059 -0.205545,0.15093 -0.25735,0.28497 -0.35181,0.55701 -0.185492,0.53422 -0.01997,1.31093 0.527713,1.53916 0.561577,0.23396 1.105827,-0.0291 1.671097,-0.044 m 3.166288,-2.90243 c -0.365706,0 -0.524988,-0.1125 -0.967475,0.10264 -0.251897,0.12243 -0.514258,0.29217 -0.674333,0.51302 -0.326566,0.45067 -0.783479,1.35377 -0.469049,1.93496 0.353041,0.65252 1.644094,-0.81374 1.817711,-1.05543 0.146706,-0.20432 0.29992,-0.2424 0.425076,-0.45445 0.134302,-0.22762 0.0094,-0.60872 -0.04398,-0.86484 -0.160075,-0.76818 0,-1.75623 0,-2.55062 m -9.76272,0.70362 c -0.831328,-0.59069 -1.715251,0.90952 -1.905667,1.6711 -0.21091,0.8439 -0.260251,2.18043 0.762283,2.52133 0.490513,0.1635 1.287537,-0.26914 1.671097,-0.41048 m 9.329062,-1.0783 c 0.134742,0.42674 0.201818,0.99616 0.521614,1.43011 m 0.843936,-0.32283 c 0.133599,-0.11873 0.06417,-0.23364 0.196802,-0.39547 0.224194,-0.27345 0.152511,-1.40742 0.454452,-1.83232 m 3.342192,2.46267 c -0.200528,-0.44829 -0.21249,-1.14285 -0.263854,-1.67109 -0.01476,-0.78797 -0.03458,-1.62011 -0.08795,-2.55062 m -12.753102,4.13376 c 0,-0.23853 -0.145736,-1.05728 -0.02929,-1.31929 0.177048,-0.39851 0.20361,-0.36597 0.410386,-0.87952 0.45612,-1.13239 1.224915,-0.83265 1.465904,0 m -36.7641244,1.40724 1.5831437,-0.33712 0.5277147,-0.10264 0.5277148,-0.088 1.583144,-0.1759 m 21.9937042,0.83783 c -0.204839,-0.70749 -0.283696,-1.7192 -0.445354,-2.59688 m -16.896273,2.44686 c -0.01178,-0.44645 -0.325958,-1.5596 -0.342405,-2.183 m 26.033923,0.70362 c 0.09096,0.47386 0.239844,0.20699 0.313554,0.98501 m 11.472075,-0.98501 c 0.903127,0.10722 1.933886,-0.002 2.638575,-0.0587 m 0.263857,2.25748 c 0.484619,0 2.131353,-0.31382 1.905666,-1.05543 -0.145297,-0.47723 -0.824905,-0.61347 -1.202047,-0.79157 -1.018901,-0.63558 1.220548,-0.96383 1.671094,-0.96748 m -7.2121,-1.14338 -0.175904,-0.26386"
       id="path312"
       sodipodi:nodetypes="cscccscccccccccccccccccccccccccccscccccccscccsccccccccccccscsccccccccscccccscccscccccccccccsccccccccscccccccccccccccccccccccccccccccscccccsccccccccccccccccccccccccccccccccccccccccccccccccccccccccccssccccscccccccscccccsccccccccccccccccccccccccccccccccccccccccccccccccccccccccaccccscccccccccccccccccccccccccccccccsccccccccccsccccccccccccccccccccccccccccccccccccccccccccccccccccccccccccccccccccccsccccccscccccccccccccccccccccccccccccccccccccsccccccssccsccccccccccccccccccccccccsccccccccccccscccccccccccccccccsccccccccsscccccsccccscccccccccccccccccccccccccccccccccccccccccccccccccccccccccccccccccccccccccccccccccccccsccccsccccccccccscccccccccccccccccccccccccccccccccccccccccccccccc" />
  </g>
</svg>
