<?xml version="1.0" encoding="UTF-8" standalone="no"?>
<!-- Created with Inkscape (http://www.inkscape.org/) -->

<svg
   width="3000"
   height="1998.207"
   viewBox="0 0 793.74998 528.69228"
   version="1.1"
   id="svg202"
   inkscape:version="1.2.1 (9c6d41e410, 2022-07-14)"
   sodipodi:docname="MonicaG - Stake - Envelope38.svg"
   xmlns:inkscape="http://www.inkscape.org/namespaces/inkscape"
   xmlns:sodipodi="http://sodipodi.sourceforge.net/DTD/sodipodi-0.dtd"
   xmlns="http://www.w3.org/2000/svg"
   xmlns:svg="http://www.w3.org/2000/svg">
  <sodipodi:namedview
     id="namedview204"
     pagecolor="#ffffff"
     bordercolor="#000000"
     borderopacity="0.25"
     inkscape:showpageshadow="2"
     inkscape:pageopacity="0.0"
     inkscape:pagecheckerboard="0"
     inkscape:deskcolor="#d1d1d1"
     inkscape:document-units="mm"
     showgrid="false"
     inkscape:zoom="1.4142136"
     inkscape:cx="230.5168"
     inkscape:cy="164.40232"
     inkscape:window-width="1920"
     inkscape:window-height="1051"
     inkscape:window-x="-9"
     inkscape:window-y="-9"
     inkscape:window-maximized="1"
     inkscape:current-layer="layer1"
     showguides="true" />
  <defs
     id="defs199">
    <pattern
       id="EMFhbasepattern"
       patternUnits="userSpaceOnUse"
       width="6"
       height="6"
       x="0"
       y="0" />
    <pattern
       id="EMFhbasepattern-9"
       patternUnits="userSpaceOnUse"
       width="6"
       height="6"
       x="0"
       y="0" />
    <pattern
       id="EMFhbasepattern-7"
       patternUnits="userSpaceOnUse"
       width="6"
       height="6"
       x="0"
       y="0" />
    <pattern
       id="EMFhbasepattern-70"
       patternUnits="userSpaceOnUse"
       width="6"
       height="6"
       x="0"
       y="0" />
    <pattern
       id="EMFhbasepattern-2"
       patternUnits="userSpaceOnUse"
       width="6"
       height="6"
       x="0"
       y="0" />
    <pattern
       id="EMFhbasepattern-6"
       patternUnits="userSpaceOnUse"
       width="6"
       height="6"
       x="0"
       y="0" />
    <pattern
       id="EMFhbasepattern-3"
       patternUnits="userSpaceOnUse"
       width="6"
       height="6"
       x="0"
       y="0" />
    <pattern
       id="EMFhbasepattern-91"
       patternUnits="userSpaceOnUse"
       width="6"
       height="6"
       x="0"
       y="0" />
    <pattern
       id="EMFhbasepattern-27"
       patternUnits="userSpaceOnUse"
       width="6"
       height="6"
       x="0"
       y="0" />
    <pattern
       id="EMFhbasepattern-4"
       patternUnits="userSpaceOnUse"
       width="6"
       height="6"
       x="0"
       y="0" />
    <pattern
       id="EMFhbasepattern-48"
       patternUnits="userSpaceOnUse"
       width="6"
       height="6"
       x="0"
       y="0" />
    <pattern
       id="EMFhbasepattern-35"
       patternUnits="userSpaceOnUse"
       width="6"
       height="6"
       x="0"
       y="0" />
    <pattern
       id="EMFhbasepattern-1"
       patternUnits="userSpaceOnUse"
       width="6"
       height="6"
       x="0"
       y="0" />
    <pattern
       id="EMFhbasepattern-20"
       patternUnits="userSpaceOnUse"
       width="6"
       height="6"
       x="0"
       y="0" />
    <pattern
       id="EMFhbasepattern-99"
       patternUnits="userSpaceOnUse"
       width="6"
       height="6"
       x="0"
       y="0" />
    <pattern
       id="EMFhbasepattern-5"
       patternUnits="userSpaceOnUse"
       width="6"
       height="6"
       x="0"
       y="0" />
    <pattern
       id="EMFhbasepattern-30"
       patternUnits="userSpaceOnUse"
       width="6"
       height="6"
       x="0"
       y="0" />
    <pattern
       id="EMFhbasepattern-0"
       patternUnits="userSpaceOnUse"
       width="6"
       height="6"
       x="0"
       y="0" />
    <pattern
       id="EMFhbasepattern-72"
       patternUnits="userSpaceOnUse"
       width="6"
       height="6"
       x="0"
       y="0" />
    <pattern
       id="EMFhbasepattern-60"
       patternUnits="userSpaceOnUse"
       width="6"
       height="6"
       x="0"
       y="0" />
    <pattern
       id="EMFhbasepattern-98"
       patternUnits="userSpaceOnUse"
       width="6"
       height="6"
       x="0"
       y="0" />
    <pattern
       id="EMFhbasepattern-15"
       patternUnits="userSpaceOnUse"
       width="6"
       height="6"
       x="0"
       y="0" />
  </defs>
  <g
     inkscape:label="Layer 1"
     inkscape:groupmode="layer"
     id="layer1">
    <path
       style="fill:none;stroke:#7b84af;stroke-width:0.0775403"
       d="m 84.809165,246.84006 c 0.210135,0 0.34738,0.0321 0.542781,0.0646 1.270885,0.21184 2.44407,0.78795 3.24351,1.87392 0.463691,0.62936 0.682354,1.27271 0.220215,1.9385 -0.548986,0.79032 -1.873372,1.25985 -2.649551,1.35696 -0.05544,-0.4779 -0.04927,-1.45764 -0.315781,-2.35926 -0.283959,-0.96061 -0.275928,-1.84478 -0.28031,-2.24954 m 19.244521,4.41495 c 0.12854,-0.16263 0.23938,-0.38543 0.23262,-1.00803 m 10.7781,0.62032 c 0.16438,-0.89327 0.39778,-2.2734 0.93048,-3.21792 0.4381,-0.83844 0.59008,-1.73736 1.08556,-2.36497 m -26.673843,5.44074 c 0.447408,0.11969 0.882021,-0.55346 1.043305,-0.78591 0.147327,-0.21205 0.260146,-0.36103 0.39119,-0.62274 0.141122,-0.28208 0.03877,-0.84649 0.03877,-1.1631 0,-0.29812 0.02172,-0.98979 -0.232623,-1.12434 -0.118636,-0.0627 -0.219438,-0.0703 -0.387701,-0.0258 -0.340401,0.0898 -0.671498,0.521 -0.839761,0.84002 -0.338851,0.64192 -0.410962,1.46466 -0.400882,2.17113 0.0031,0.22559 0.05583,0.62205 0.387701,0.71078 m 11.320874,0.0646 c 0.4761,-0.12538 0.93979,-0.45748 0.87854,-1.00802 -0.0946,-0.85392 -1.05223,-1.27784 -1.27942,-2.09359 -0.20083,-0.72492 0.37917,-1.1631 0.86613,-1.1631 m -10.390399,2.86899 c 0.10933,0.13892 0.224092,0.2679 0.284572,0.46524 0.120188,0.3949 0.247353,1.10766 0.87853,0.54278 m 0.852944,-4.96257 c 0,1.22971 0.26674,2.58336 0.452059,3.79947 0.05661,0.36914 -0.05428,0.90939 0.258985,1.04679 m 1.847785,0.0388 c -0.583878,-0.96457 -0.298531,-2.51847 -0.517194,-3.56685 -0.07754,-0.37514 -0.103129,-0.64327 -0.103129,-1.00802 m 42.414527,4.49733 c 0,-0.66411 0.11863,-1.44306 0.15508,-2.09358 0.0101,-0.1852 0.21298,-1.01304 0.21298,-1.01304 0,0 -0.64828,0.33902 -0.80181,0.37737 -0.33807,0.0845 -0.84994,0.33268 -1.2043,0.21808 -0.20315,-0.0658 -0.15721,-0.0914 -0.22777,-0.26574 -0.11473,-0.63415 0.12116,-1.5769 0.37937,-2.10812 0.0868,-0.17827 0.13181,-0.28434 0.2458,-0.46525 m -37.5355,4.17132 c -0.170591,0.12097 -0.210772,0.33095 -0.4116,0.56805 -0.172141,0.20351 -0.59739,0.29579 -0.823032,0.23614 -0.290776,-0.077 -0.236499,-0.44018 -0.232622,-0.71079 0.0078,-0.58473 0.443531,-2.26604 1.085564,-2.3908 0.65832,-0.12802 0.46989,1.12827 0.46524,1.46032 -0.003,0.21262 -0.0775,0.38858 -0.0907,0.62032 -0.009,0.16783 0.0907,0.94443 0.27139,1.1631 0.39468,0.4769 1.40658,-0.50161 1.6803,-0.7754 m 11.1658,0.31016 c 0.10313,-1.30235 -0.14966,-3.05981 -0.23262,-4.10963 -0.17292,0.0136 -0.32025,0.0415 -0.54279,0.10336 -0.55906,0.15531 -1.36238,0.60977 -1.47326,1.13728 m 17.75464,2.76061 c 1.29299,0.3748 1.80107,-1.15779 0.90697,-1.83013 -0.33497,-0.3954 -1.02973,-0.25619 -1.25382,-0.69786 -0.11011,-0.21789 0.006,-0.95754 0.19385,-1.04679 0.14267,-0.0678 0.38227,-0.004 0.54278,-0.0258 0.31792,-0.0442 0.75292,-0.0581 1.08556,-0.0905 0.35359,-0.0343 0.62886,-0.15508 1.00803,-0.15508 m -4.65242,3.48931 c 0.12484,-0.67713 0.43035,-1.46021 0.46524,-2.09359 0.0132,-0.23146 0.0419,-0.51394 0.10313,-0.7754 0.0814,-0.34397 0.3846,-0.84798 0.11631,-1.13729 -0.23339,-0.252 -0.65676,-0.21664 -0.9173,-0.15507 -0.75059,0.17733 -1.79971,0.57077 -2.48129,0.51696 m 8.29681,1.00802 c 0.72655,-0.49703 1.65471,-0.93343 2.48129,-1.26647 0.33963,-0.13678 0.80564,-0.26425 1.05997,0.10337 0.71958,1.04144 -1.03593,2.31357 -1.49963,3.02406 -0.2962,0.4547 -0.63747,0.72138 -0.37452,0.69787 0.83311,-0.0745 1.19053,0.0538 1.8222,0 0.52086,-0.0444 1.01655,-0.32644 1.47327,-0.54278 m 3.50249,0.58155 c 0.44353,0.28052 1.13519,-0.58598 1.31819,-0.89171 0.43732,-0.73335 -0.0341,-2.09127 -0.78859,-2.46835 -0.41019,-0.20501 -0.59551,0.17215 -0.68468,0.52984 -0.0457,0.18043 -0.17447,0.44547 -0.19385,0.62032 -0.0256,0.22522 0.0256,0.29168 0.0256,0.54278 0,0.39361 -0.0822,1.41129 0.32334,1.66712 m -24.59344,-2.75268 0.33574,0.69786 0.34516,0.53148 c 0.52857,0.8814 1.15466,2.23388 1.41269,1.17441 m 21.16848,-1.55081 c 0,-0.48695 0.0589,-2.0231 0.54279,-2.63637 m -26.82893,0.93049 c 0.45903,-0.32606 1.0778,-0.23263 1.78342,-0.23263 M 84.886735,242.4978 c -0.01396,-0.51579 -0.224868,-0.93645 -0.232622,-1.47326 -0.01552,-1.09913 -0.280695,-2.1564 -0.3877,-3.25669 -0.0473,-0.48486 -0.03567,-0.94421 -0.07754,-1.47327 m 4.032092,5.89306 c 0.965378,-0.0762 1.628347,-1.18908 1.628347,-2.09358 0,-0.82464 -0.581553,-1.18257 -1.163104,-1.47327 0.179118,-0.42484 0.60714,-1.96812 -0.310161,-2.23572 -0.577676,-0.16849 -1.227462,0.87675 -1.550806,1.2277 m 26.673849,4.03209 c 0.1388,0.48052 0.44508,0.40794 0.77541,0.14213 0.28224,-0.2275 0.51098,-0.56348 0.59473,-0.91753 0.0899,-0.38359 0,-0.65436 -0.14268,-1.00802 -0.24347,-0.60443 -0.9739,-0.92087 -1.0592,-1.47327 -0.0411,-0.26278 0.78633,-0.38575 0.87783,-0.41296 m -21.051477,3.95399 c 0.662194,0.23309 1.360056,-0.60086 1.628345,-1.13728 0.383051,-0.76579 0.02481,-1.51405 -0.413288,-2.17113 -0.284574,-0.42639 -0.628077,-0.98158 -1.137516,-1.13728 -0.597836,-0.18269 -0.987087,0.32466 -1.008023,0.82712 -0.01086,0.25487 0,0.48308 0,0.7754 0,0.70469 0.12794,2.56046 0.930482,2.84317 m 11.475957,-0.2068 c 0,-0.49067 -0.0775,-1.06222 -0.0775,-1.5508 0,-0.14027 -0.0349,-0.34343 0.0388,-0.4523 0.14888,-0.21882 0.40709,-0.17144 0.73663,-0.33606 0.64126,-0.32062 1.34223,-1.02198 1.53763,-1.69293 0.0682,-0.23363 0.12251,-0.40957 0.0907,-0.69786 -0.18299,-1.64758 -2.70848,-2.31916 -3.72193,-0.93049 m -6.901086,5.42782 -0.620321,-4.65242 m -4.729958,4.57488 -0.517191,-2.94653 -0.10313,-1.24064 m 25.665826,3.95455 c 0.21375,-1.33777 -0.0504,-2.64018 0,-4.10963 l -0.0775,-1.39573 m -5.27444,3.90271 c 0.31792,-0.1422 1.04695,-0.56088 1.30671,-1.11126 0.14655,-0.309 0.18764,-0.8669 -0.29698,-0.83999 -0.45129,0.025 -0.6087,0.56457 -0.77541,0.91753 -0.46446,0.98337 -0.31016,2.91792 1.08557,2.40375 m -3.95456,0 c -0.0558,-0.30179 -0.0775,-0.41818 -0.0775,-0.69786 v -0.93048 c 0,-0.18463 -0.0434,-0.41283 0.0775,-0.60738 0.13647,-0.21944 0.27605,-0.14058 0.42648,-0.40065 0.4381,-0.75508 0.99716,-0.94793 1.58957,-0.54278 m 8.02542,2.32621 c 0.10623,0.23836 0.16981,0.62032 0.50401,0.62032 0.44973,0 0.95142,-1.0164 0.93048,-1.39572 -0.0302,-0.5424 -0.45593,-1.32649 -0.93048,-1.56376 -0.96069,-0.39919 -0.65895,1.9634 -0.50401,2.33916 z m 9.88638,0.3877 c 0.0938,-0.23751 0.22022,-0.40398 0.23262,-0.62032 0.0147,-0.26488 0.0768,-0.29481 0.0907,-0.54278 0.0101,-0.18579 -0.0698,-0.35553 -0.0907,-0.54278 -0.083,-0.74711 -0.41096,-2.16415 -0.54278,-2.79145 -0.49161,0.15515 -0.68856,0.49152 -0.69786,0.85294 m 5.08858,-0.25201 c 0.15176,0.93014 0.0742,3.0984 0.27488,3.43116 0.36585,0.60655 1.88268,-0.86512 1.91214,-1.39573 0.0457,-0.82301 -0.93668,-1.76031 -1.61516,-2.08063 -0.47222,-0.22301 -1.07083,-0.41616 -1.08557,0.14213 m -8.60697,3.25669 c 0,-0.71453 0.0209,-1.69053 -0.32334,-2.32621 -0.0868,-0.16121 -0.23417,-0.40949 -0.45206,-0.37475 -0.46695,0.20538 -0.67886,0.5244 -0.93048,1.07261 v 1.39573 m 6.43114,-3.70695 c 0.26441,-0.36087 0.7646,-0.47836 1.1678,-0.29933 0.35669,0.15857 0.85993,0.66049 0.98244,1.05975 0.12872,0.42236 0.0667,1.1669 -0.16826,1.5508 -0.32877,0.53844 -0.63971,0.61474 -0.96926,1.00803 0.38538,0.37545 0.8072,0.65304 1.39573,0.62032 0.48152,-0.0267 0.98321,-0.23898 1.39572,-0.54278 m -44.120406,0.3877 1.008024,-1.16311 m 16.216492,1.16711 c 0.11631,-0.77476 -0.31589,-2.35529 -0.2432,-3.33823 m 23.97933,2.86535 0.36831,0.004 m 11.32088,-0.7754 c 0.53348,0.67227 2.18276,0.15097 1.91292,-0.7754 -0.21944,-0.75153 -0.89636,-1.4949 -1.60276,-1.84802 -0.35048,-0.1754 -0.98398,-0.29776 -1.21505,-0.63327 -0.23495,-0.34195 0.22409,-0.72462 0.51719,-0.89172 0.8196,-0.46671 1.38487,-0.17338 2.17113,0.11631 m -33.769,4.28911 c -0.005,-0.18353 0.0106,-0.35219 -0.0386,-0.56717 m 9.30484,-0.15508 -1.25585,0.26786 -0.45004,0.11984 -0.85294,0.31016 m 6.51564,-0.43904 c -0.0186,-0.30258 0.0492,-0.55603 -0.0798,-0.95669 m 22.87437,0.69787 c 0.19308,-1.04974 -0.005,-2.23069 -0.005,-3.22095 m 3.88247,1.28244 c -0.36134,0.21851 -0.94212,0.34397 -1.39573,0.40065 -0.12561,0.0157 -0.34272,-0.0253 -0.42647,0.0775 -0.22719,0.27759 0.0744,1.01027 0.42647,1.18892 0.61955,0.31412 1.75629,-0.30643 2.32621,-0.42647 m 4.88504,-0.23262 c -0.3311,-1.14441 -0.18687,-2.67831 -0.15508,-3.87701 m 4.49733,3.77365 c 0.50944,0.15555 1.46629,-0.3739 1.69271,-0.82712 0.40165,-0.80262 -0.19851,-2.39685 -1.07238,-2.68809 -0.31404,-0.1046 -0.83667,-0.0846 -0.99485,0.0647 -0.22176,0.20882 -0.21478,0.63211 -0.25898,0.91753 -0.11709,0.76734 -0.34505,2.23402 0.6335,2.53301 m -2.55883,-0.12926 -0.0907,-0.85294 -0.1419,-2.40375 m 10.62302,2.71391 c 0.16749,0.57837 0.80409,0.55744 1.22746,0.0775 0.48075,-0.54472 0.62498,-1.23234 0.55597,-1.9385 -0.14966,-1.54174 -1.61439,-0.29024 -2.15795,-0.80123 -0.16826,-0.15787 -0.09,-0.43097 -0.0132,-0.67204 0.0341,-0.10615 0.055,-0.27612 0.16826,-0.33598 0.11554,-0.0611 0.25511,-0.0238 0.37452,-0.0388 0.39546,-0.0495 1.34455,-0.28845 1.78343,-0.32311 m 2.32621,4.45856 c 0.39778,0.15477 1.0119,-0.49757 1.24064,-0.73663 0.29931,-0.31249 0.53658,-0.81859 0.54278,-1.24064 0.005,-0.37413 -0.10313,-0.71903 -0.27139,-1.08557 -0.19075,-0.41608 -0.52727,-1.19133 -1.04679,-1.29236 -0.41329,-0.0803 -0.63738,0.7823 -0.71105,1.05974 -0.0675,0.25782 -0.0675,0.454 -0.14189,0.69786 -0.15276,0.49913 -0.15509,0.91475 -0.15509,1.39573 0,0.39297 0.0341,1.00415 0.54279,1.20187 m -24.12714,-0.0897 c 0,-0.46431 -0.29107,-1.29226 0.0377,-1.64205 0.145,-0.15392 0.34273,-0.0735 0.5172,-0.0905 0.60791,-0.0591 1.13906,-0.31016 1.78342,-0.31016 m 25.20059,-1.9385 c 0.19695,-0.34041 1.04291,-0.94258 1.44767,-0.4523 0.15664,0.18982 0.13027,0.59613 0.10313,0.84 -0.0682,0.61334 -0.59395,1.2021 -0.94366,1.70588 -0.12872,0.18594 -0.30318,0.42198 -0.18067,0.60738 0.0923,0.1398 0.34893,0.0927 0.50401,0.0905 0.49703,-0.007 1.37712,-0.21937 1.78343,-0.46525 m 2.3262,0.46525 c 0.18222,-0.62855 0.26442,-1.30555 0.41329,-1.93851 0.16361,-0.69081 0.5676,-1.52607 0.5172,-2.24867 -0.35906,-0.426 -1.55023,-0.23844 -1.91292,0.23262 -0.17895,0.36065 -0.0706,0.44837 -0.28729,0.79479 m -32.30521,2.30682 c -0.32229,0.0409 -0.63876,0.0584 -0.97924,0.17205 -0.52653,0.22818 -1.05306,0.3062 -1.57958,0.44828 m 18.84228,-0.85295 c 0.60481,0.38196 1.01732,0.14756 1.62834,-0.0775 m -81.030104,-3.87697 c 0.03955,0.49874 0.573799,1.59399 1.240645,1.89973 1.070055,0.49045 2.848055,-1.16698 2.946529,-2.05481 0.02095,-0.18726 -8.79e-4,-0.29884 -0.05195,-0.46525 -0.0915,-0.30023 -0.294651,-0.67948 -0.50401,-0.93048 -0.841312,-1.01035 -2.008294,-1.85724 -3.16597,-2.46834 -0.476098,-0.25131 -1.478692,-0.37142 -1.680296,-0.94343 -0.28535,-0.81154 0.942114,-1.78901 1.525215,-2.08064 0.223316,-0.11181 0.616446,-0.25875 0.852944,-0.24557 0.747488,0.0415 1.657811,0.57713 1.938505,1.08557 m 11.079777,5.12977 c 0,-0.40662 -0.04657,-1.49639 0.18915,-2.02816 0.128717,-0.28938 0.393905,-0.68701 0.749814,-0.50401 0.290777,0.14949 0.338852,0.5199 0.310161,0.81417 -0.04963,0.50734 -0.47377,1.06431 -0.852941,1.39572 -0.138023,0.12019 -0.312489,0.13112 -0.387702,0.31016 -0.09382,0.22394 0.03799,0.41554 0.07754,0.62033 0.134145,0.68809 0.551311,1.52862 1.395724,1.5508 m -8.762047,-5.42782 c 0,1.55492 0.60869,2.91614 0.775401,4.4198 0.04032,0.36242 0.0809,0.5906 0.310161,0.62032 0.228039,0.0296 0.387389,-0.25898 0.455623,-0.51796 0.05195,-0.1954 0.242239,-0.54178 0.242239,-0.54178 0.307457,0.2156 0.610248,0.50583 0.930484,0.51696 0,0 0.255882,0.0199 0.387702,-0.0258 0.296979,-0.10313 0.571471,-0.43144 0.620322,-0.74959 0.155855,-1.02073 -0.0085,-2.06792 -0.310161,-3.02407 m 1.197028,2.60245 c 0.500133,-0.15795 1.22688,-0.84849 1.28426,-1.43934 0.03722,-0.38491 0.01629,-1.38138 -0.620323,-1.08556 -0.349705,0.16244 -0.483851,0.5869 -0.555963,0.93048 -0.193851,0.93102 -0.428797,2.30946 0.711044,2.75268 0.532701,0.20718 0.925832,-0.1633 1.395725,-0.34893 m 6.823534,-0.69787 c 0,0.26837 -0.0558,0.43469 0.15509,0.60738 0.16438,0.13492 0.42259,0.0816 0.62032,0.013 0.41329,-0.14345 1.08479,-0.41004 1.14992,-0.93049 0.0737,-0.58667 -0.79014,-1.34578 -1.14992,-1.70588 -0.15818,-0.15787 -0.3784,-0.30737 -0.37452,-0.54278 0.006,-0.45199 0.62652,-0.68817 0.99484,-0.69787 m -4.1422,5.62167 c 0,-0.0747 0.0697,-0.75938 -0.09857,-1.40705 -0.170764,-0.65722 -0.09101,-1.33768 -0.07589,-1.42317 0.02559,-0.1419 0.03954,-0.23378 0.06513,-0.3877 0.06746,-0.40825 0.02869,-0.35653 0.11632,-0.7754 0.0768,-0.36808 0.17601,-1.00764 0.64591,-1.04679 0.50633,-0.0422 0.83356,0.55015 0.7754,0.96925 -0.0252,0.81268 -0.94919,1.65512 -1.607504,1.62108 m -8.939188,0.66393 -0.07633,-0.7342 -0.232622,-2.01605 m 17.369024,2.4167 c 0.50246,0.15283 1.10537,-0.57595 1.27285,-0.84664 0.12822,-0.18033 0.0925,-0.36128 0.16165,-0.65253 0.11786,-0.17989 0.0411,-0.43376 0.0388,-0.60737 -0.004,-0.2921 0.069,-0.73074 -0.0388,-1.00802 -0.11786,-0.30257 -0.0977,-0.44416 -0.42647,-0.52984 -0.27605,-0.072 -0.63041,0.35692 -0.76222,0.60738 -0.37452,0.70957 -0.55597,1.55057 -0.55597,2.3262 0,0.24146 -0.0302,0.60722 0.31016,0.71082 m 1.47884,-1.63955 c 0.15121,0.41135 0.35421,1.41096 0.84737,1.70414 m 5.81552,-0.0775 c -0.9211,-0.0884 -1.33206,-2.21532 -0.62032,-2.57178 0.14577,-0.0702 0.21556,-0.0699 0.3877,-0.16795 0.25511,-0.14547 0.83743,-0.60466 0.85294,-0.98221 0.0248,-0.60256 -0.54356,-0.49897 -0.85294,-0.15508 -0.44431,0.49471 -0.42713,0.87742 -0.43954,1.34646 m -3.59255,2.37548 v -0.77541 l 0.0256,-0.3877 c -0.26359,-1.4351 -0.81254,-2.88919 -0.56837,-4.34225 m 0.36539,3.42874 0.48755,-0.63729 c 0.37549,-0.54448 0.88516,-1.02541 1.62834,-1.39573 m 3.95456,3.87702 c 0.31481,0.19074 1.30732,-0.009 1.39572,-0.62033 0.11398,-0.78579 -0.93513,-1.32811 -1.24064,-1.9385 -0.18145,-0.36359 -0.10778,-1.09518 0.3877,-1.15016 0.26596,-0.0296 0.47144,0.1243 0.69786,0.14213 m -12.56152,3.64439 c 0,-0.38343 -0.26752,-1.91881 -0.37452,-2.3262 -0.14618,-0.31667 -0.2143,-0.49747 -0.25899,-0.85295 l -0.31016,-1.08556 -0.37452,-1.39572 m 6.6642,4.22063 c 0.55906,0.10297 1.23483,1.28473 2.02031,1.28473 m 9.77008,-8.21927 c 0.89481,0.97173 0.59085,2.53223 0.93048,3.64439 0.27682,0.90559 -0.038,2.53169 0.32334,3.41177 0.0977,0.2396 0.52185,0.18144 0.76222,0.0646 0.88474,-0.42988 1.78033,-0.9149 2.63637,-1.07261 m 3.87702,0.93048 c 0,-0.13795 0.0248,-0.28109 -0.0388,-0.46524 -0.0791,-0.22859 -0.0938,-0.3121 -0.1419,-0.54279 -0.0876,-0.42011 -0.23804,-1.86096 -0.82735,-1.86096 -0.29775,0 -0.42827,0.25032 -0.55776,0.46054 -0.0899,0.14639 -0.10908,0.30137 -0.21764,0.3924 -0.1985,-0.27907 -0.34583,-0.55464 -0.15508,-1.00802 m 14.21278,-1.64142 c -0.58631,0.12279 -0.54602,0.0385 -0.90493,0.25622 -0.24426,0.19082 -0.29815,0.39384 -0.37181,0.68733 -0.19928,0.79681 -0.45206,1.65022 -0.45206,2.48129 0,0.3052 -0.038,0.95235 0.31016,1.05974 0.55907,0.17269 1.36575,-1.14622 1.48749,-1.52585 0.11863,-0.37289 0.089,-0.95488 0.089,-0.95488 l 0.51708,1.73115 m -14.57757,0.69787 c 0,-0.753 -0.0364,-1.14062 -0.15508,-1.78343 m 3.87701,1.62834 -0.0775,-0.69786 -0.36168,-1.63435 c -0.0599,-0.24823 -0.42402,-0.34029 -0.63388,-0.25258 -0.83872,0.35054 -0.56162,0.36609 -1.06161,2.51196 m -2.75032,-0.005 c -0.17835,-0.96902 -0.51797,-2.27162 -0.23263,-3.25669 m 6.66847,3.25669 c 0,-0.85969 -0.51952,-1.82258 -0.54278,-2.71391 m 5.35027,0.31258 c 0.0512,-0.64738 0.41484,-1.05263 1.08557,-1.29478 0.33419,-0.12058 0.81649,0.0157 0.7754,0.43942 -0.0535,0.54898 -0.92816,0.85294 -1.39573,0.85294 -0.17989,0 -0.47066,-0.0884 -0.58155,0.0775 -0.0853,0.12787 -0.0388,0.31582 -0.0388,0.46524 0,0.72477 0.49393,1.65913 1.08557,1.70589 m -3.10161,-0.0775 -0.0775,-2.24867 c -0.17265,-1.18461 -0.35445,-2.47872 -0.54279,-3.56685 m -32.87707,5.5829 1.07228,-0.49201 c 0.55586,-0.37593 1.1477,-0.4173 1.95179,-0.43847 m 36.6247,-0.79553 c 0.0435,-0.99735 -0.1689,-1.78179 -0.18078,-2.69378 0,-0.34521 -0.0613,-0.9111 0.0776,-1.24065 m -7.6765,3.25669 c 0.30795,-0.0387 0.55316,0.0482 0.93049,-0.12926 0.53412,-0.16162 0.674,-0.13046 1.02345,-0.20971 0.45396,-0.0112 0.87465,-0.20548 1.30276,-0.35889 m -5.11766,-1.62835 h 0.23262 m -6.3583,-1.08556 0.46524,-0.23262 m -124.2971202,-8.91714 0.025844,-1.47326 -0.1033845,-0.77541 -0.025844,-0.46524 -0.051696,-0.54278 -0.1550806,-1.24064 m 21.7888132,4.03209 c 0.302947,-0.28531 0.548595,-0.64703 0.620322,-1.24064 m -16.283455,1.08556 c -0.230759,-0.79727 -0.07444,-1.68588 -0.28434,-2.48129 -0.07653,-0.29008 -0.308688,-0.94831 -0.7236829,-0.83999 -0.2975995,0.0776 -0.4514782,0.42944 -0.5508848,0.66795 -0.086457,0.20765 -0.3020581,0.4822 -0.3020581,0.4822 0,0 -0.1307329,-0.24138 -0.1680297,-0.46524 -0.1309656,-0.78571 -0.297212,-1.56174 -0.297212,-2.24867 m 5.3502785,3.17916 c 0.541773,-0.0998 1.08471,-0.43384 1.395724,-1.00803 0.178653,-0.32978 -0.02132,-1.19676 -0.542781,-1.12433 -0.452681,0.0629 -0.719109,0.77641 -0.801224,1.12433 -0.07452,0.31567 -0.128872,0.6304 -0.116311,0.93048 0.01411,0.33924 -0.0663,1.03478 0.232621,1.39573 0.466327,0.56317 1.079206,-0.16167 1.382776,-0.46524 m -6.2807612,0.62032 c -0.1584148,-0.54728 -0.245366,-1.45617 -0.1546439,-1.94879 m 3.0236331,1.75494 c 0.386616,0.18199 0.741363,-0.55806 0.865892,-0.81417 0.279223,-0.57442 0.114062,-1.67697 -0.47819,-1.97728 -0.613344,-0.31094 -0.646609,0.34017 -0.723684,0.73663 -0.118481,0.60924 -0.03737,0.90466 0.02582,1.47327 0.02287,0.20587 0.103672,0.48439 0.310161,0.58155 m 8.451888,0.0388 0.01295,-1.00802 0.06459,-0.54279 0.07754,-1.31818 m 2.093587,2.71391 0.155081,-0.93049 0.117523,-0.45755 0.296002,-0.78309 0.315008,-0.59609 0.357033,-0.56701 m -7.5214,3.17915 c 0,-0.14717 0.0052,-0.97189 0.11631,-1.15015 0.144027,-0.23569 0.03207,-0.31404 0.264122,-0.64782 0.04296,-0.16058 0.39497,-0.52444 0.563,-0.67037 0.320784,-0.27876 0.684137,-0.0772 0.814172,0.29721 0.217037,0.62521 0.103361,1.44659 0.103361,2.09359 m -13.2351535,-0.0267 c 0.4168953,-0.25231 1.1253032,-0.41284 1.6816544,-1.0589 0.4457868,-0.51766 0.7068416,-1.39457 0.5169377,-2.01605 -0.1105414,-0.36173 -0.3554367,-0.7958 -0.6074037,-1.08556 -0.4466475,-0.51363 -1.1668802,-0.66894 -1.7705001,-0.40065 -0.2349315,0.10444 -0.3334465,0.17896 -0.4652416,0.40065 m 30.8610238,1.62834 c 0.850471,-0.0774 1.805575,-0.28434 2.558825,-0.31016 m 0.697862,1.47327 c -0.513316,0.28364 -2.020389,1.01298 -2.533007,0.3877 -0.226496,-0.27643 -0.193696,-0.67631 -0.129183,-1.00803 0.161019,-0.43303 0.388717,-0.79654 0.516882,-1.1631 0.101115,-0.29101 0.362579,-0.49696 0.180981,-0.76245 -0.114993,-0.16803 -0.330787,-0.18098 -0.516961,-0.15508 -0.531308,0.0737 -1.221026,0.14213 -1.705886,0.14213 m -0.268603,3.01291 -0.816961,-1.07441 c 0.0077,-0.4731 -0.246054,-1.55637 -0.741479,-2.21716 -0.313117,0.75552 -0.420254,1.63537 -0.576705,2.2947 0.51603,0.14935 0.871163,0.24007 1.318184,-0.0775 m -16.702657,0.93291 c -0.03497,-0.4433 -0.15289,-0.66322 -0.04604,-1.24307 m 15.043985,1.8704 0.386527,-1.48269 m -9.847612,-0.93049 c 0.465807,1.23766 0.864138,1.90423 1.949406,2.0536 m 32.416348,-2.99392 c -0.720814,0.79461 -0.847583,2.32814 0.604903,1.70278 0.191911,-0.0826 0.356995,-0.13454 0.542781,-0.2455 0.532391,-0.31799 0.919938,-0.84457 0.852943,-1.44744 -0.02575,-0.23169 -0.185167,-0.51448 -0.297212,-0.69786 -0.08716,-0.14252 -0.210212,-0.23526 -0.284341,-0.38771 -0.07459,-0.15353 -0.03877,-0.2292 -0.03877,-0.3877 0,-0.31582 0.02373,-0.91482 -0.3877,-1.05974 -0.934129,-0.32893 -1.796297,1.06013 -1.667117,1.99023 0.05156,0.37149 0.386462,0.58442 0.659092,0.54278 0.170821,-0.0261 0.254101,-0.17672 0.387702,-0.28434 0.274104,-0.22076 0.62451,-0.72051 1.008023,-0.80123 m -11.010716,2.32621 c 0.486255,0.24317 1.860967,0.75966 1.860967,-0.54278 0,-0.7257 -0.718256,-1.6347 -1.473266,-1.55081 -0.384134,0.0427 -1.083781,0.59986 -1.227695,0.15509 -0.05025,-0.15524 0.04707,-0.46284 0.06459,-0.62033 0.02303,-0.20703 -0.0056,-0.46314 0.31016,-0.52983 0.210445,-0.0445 0.326367,0.033 0.542783,0 0.518667,-0.0793 1.616636,-0.12996 2.016047,-0.24557 m 1.008023,2.17113 c -0.0321,0.38522 -0.310084,1.01081 -0.03877,1.39572 0.3808,0.54023 1.850345,-0.62497 2.041869,-1.00802 0.220214,-0.44043 0.02132,-1.26274 -0.374753,-1.52498 -0.517531,-0.35189 -0.59301,-0.4462 -1.240644,-0.25845 -0.204551,0.33792 -0.351722,0.96352 -0.387702,1.39573 z m 4.052655,0.97073 c 0,-0.47664 -0.107018,-0.66336 0.0053,-1.04827 0.0732,-0.25077 0.02574,-0.35281 0.05172,-0.62032 0.07584,-0.77967 0.198658,-1.70992 0.620323,-2.32621 m -11.050699,2.76722 c 0.119645,-0.20052 0.142568,-0.41558 0.117522,-0.67364 -0.05381,-0.55371 -0.43942,-1.373 -1.163105,-1.04679 -0.338772,0.15268 -0.649089,0.73431 -0.697862,1.12434 -0.02024,0.16175 -0.03792,0.29038 -0.06459,0.46524 -0.03668,0.24006 -0.0044,0.67032 0.10336,0.85294 0.05839,0.0989 0.722691,0.88351 1.33044,-0.18122 0.474072,-0.528 0.167562,-0.33329 0.724377,-0.51664 0.197573,0.003 0.50316,0.0277 0.697862,0.10336 0.359244,0.13973 0.585198,0.54239 0.529833,0.90466 -0.03357,0.22006 -0.07459,0.47106 -0.171208,0.65909 -0.295351,0.57473 -0.481022,0.86493 -1.032254,1.17121 -0.149189,0.0828 -0.854883,0.16458 -1.017716,0.0985 -0.549683,-0.22308 -0.337186,-1.01407 -0.324701,-1.46357 0.07176,-0.52295 0.632211,-0.89007 0.968042,-1.4975 z m -23.119108,0.66151 c 0,0 -0.128829,-0.17204 -0.180522,-0.32712 M 52.940157,204.348 c -0.382738,0.63234 -0.725157,2.0352 0,2.54588 0.381653,0.26883 0.513627,0.0698 0.969253,0.0517 0.383824,-0.11631 0.516497,-0.13662 0.814173,-0.42647 m -41.328952,-3.10161 c 0.374985,0.0296 0.46811,0.14515 0.852943,-0.0258 0.78905,-0.35072 0.628308,-1.2881 0.129259,-1.8222 -0.312642,-0.33459 -0.863488,-0.46005 -1.292363,-0.24557 -0.225875,0.11298 -0.460357,0.34219 -0.684913,0.19385 -0.297057,-0.1961 -0.155236,-0.86868 -0.09049,-1.20187 0.02916,-0.14981 0.0314,-0.33893 0.16803,-0.43942 0.141821,-0.10437 0.409335,-0.006 0.607373,-0.0388 0.657464,-0.10957 1.257548,-0.39856 1.938506,-0.4523 m -8.9946699,3.56685 c 0.7136573,1.23266 1.5957786,-0.8486 1.2148,-1.70588 -0.3373622,-0.75904 -1.1426411,-0.8638 -1.8351221,-0.5945 -0.2168956,0.0844 -0.4912641,0.22991 -0.6849364,0.0905 -0.1310042,-0.0943 -0.090466,-0.29334 -0.090466,-0.42647 0,-0.37344 0.081952,-0.77758 0.4652416,-0.96925 0.2499743,-0.125 0.9027081,-0.0834 1.2406441,-0.11632 0.5360282,-0.0521 0.9023826,-0.15508 1.473265,-0.15508 m 1.7058857,4.16136 c 0.645833,0.22789 1.46458,-0.97453 1.602524,-1.44745 0.215019,-0.73741 -0.826889,-2.0863 -1.5249837,-2.1453 -0.4117388,-0.0347 -0.4259286,0.51355 -0.4781909,0.82712 -0.1047567,0.62854 -0.4446933,2.46725 0.4006506,2.76563 m 8.994671,-0.0517 c 0,-0.70934 0.0915,-1.30051 0.310161,-2.01605 0.06986,-0.22859 0.170898,-0.56876 0.245568,-0.7754 0.06545,-0.18129 0.06459,-0.30582 0.06459,-0.46524 -0.735083,-0.0774 -1.63044,0.48067 -2.403749,0.15508 m 8.141729,2.79145 c 0.396229,0.35451 1.991077,0.40413 1.938505,-0.54279 -0.06707,-1.20707 -1.855228,-1.14767 -2.209898,-2.01604 -0.296823,-0.72671 0.905282,-1.00803 1.356954,-1.00803 h 0.542783 m -23.184581,3.64439 c -0.021804,-0.82844 -0.2253475,-1.60896 -0.310161,-2.48128 -0.058171,-0.59831 -0.2326209,-1.38673 -0.2326209,-1.93851 m 25.2781239,3.79947 0.232623,0.15508 m 6.271068,-0.22777 c 0.451282,0.0356 1.000114,-0.21715 1.405417,-0.56058 0.24301,-0.20587 0.619236,-0.50269 0.374751,-0.83999 -0.518047,-0.715 -1.226919,-0.28116 -1.563675,0.31016 -0.105455,0.18516 -0.197962,0.40809 -0.2068,0.62032 -0.0075,0.17951 0.0026,0.316 0.0026,0.47038 -0.202923,0 -0.36189,0.0165 -0.545352,-0.1085 -0.269529,-0.18362 -0.470746,-0.65087 -0.452292,-0.9822 0.01077,-0.19478 0.06188,-0.34855 0.06459,-0.54278 0.0046,-0.32932 0.116001,-1.17365 0.335983,-1.47327 0.130811,-0.17811 0.268678,-0.19664 0.43942,-0.23262 m 13.336926,-0.69786 c 0.06924,0.87675 -0.348699,1.69968 -0.387702,2.63637 -0.0124,0.2986 0.0266,0.73221 0.310161,0.89171 0.492381,0.27697 1.453648,-0.33412 2.016048,-0.34893 m -5.21943,0.0824 0.195668,-1.18613 c 0.201448,0.0312 0.284965,0.21536 0.603966,0.2508 0.224712,0.025 0.498663,-0.006 0.697862,-0.11631 0.406855,-0.22603 1.127823,-1.02632 0.891715,-1.51204 -0.178422,-0.36707 -0.677316,-0.7754 -1.046794,-0.7754 -0.32125,0 -0.78545,0.31791 -0.928667,0.63032 -0.190515,0.41577 -0.167311,1.20404 -0.214884,1.49434 m -6.532935,0.58925 c 0,-0.7561 -0.03699,-1.16155 0.07754,-1.78343 -0.29698,-0.0625 -0.453222,-0.0218 -0.775401,0.23262 m 1.705885,1.47327 c 0,-0.15423 0.0056,-0.58093 0.16803,-0.71081 0.26255,-0.20998 0.373512,-0.29597 0.684912,-0.60738 0.135465,-0.13546 0.328305,-0.40413 0.542783,-0.36188 0.458108,0.0903 0.68189,1.35393 0.930483,1.60253 m -2.233683,-0.52309 c 0,-0.56062 -0.138274,-1.92021 -1.023009,-1.10526 M 8.6258589,192.25172 c -0.381188,0.83169 -0.7267075,1.96704 -0.4135222,2.86899 0.2680567,0.77214 1.1711292,0.13278 1.4037502,-0.28593 0.2534014,-0.45609 0.2257583,-0.55267 0.4054971,-0.87718 0.235318,-0.4209 0.439469,-1.47378 -0.2326214,-2.09358 -0.7524505,-0.57287 -0.9721222,-0.0291 -1.1631037,0.3877 z m 18.4933521,-1.00803 0.16803,0.69787 0.426472,1.47326 0.258442,0.7754 c 0.169203,-0.36635 0.151156,-0.48498 0.308125,-0.7801 0.08126,-0.27884 0.325921,-0.60988 0.622357,-0.52513 0.193463,0.0552 0.235878,0.27294 0.323112,0.45229 0.304964,0.62746 0.245414,2.08405 1.072613,2.17113 m 13.724627,-2.24867 c 0,-0.2206 0.02621,-0.96049 -0.09049,-1.04679 -0.140892,-0.10429 -0.225644,-0.0471 -0.452294,-0.11631 -0.335051,-0.10236 -0.466482,-0.0234 -0.63327,0.31016 -0.3449,0.68987 -0.452294,1.42232 -0.452294,2.17113 0,0.26813 -0.05393,0.70034 0.232622,0.74958 0.455316,0.0782 1.028306,-0.49734 1.013703,-0.93617 0.08049,-0.13802 0.07868,-0.41446 0.12358,-0.56822 0.08208,-0.23455 0.100599,-0.31358 0.270557,-0.56338 0.03677,0.39557 0.08957,0.76263 0.298045,0.85294 m -42.5696023,1.08557 c 0.4647997,0.0489 1.0734519,-0.14182 1.5508053,-0.15508 0.4103044,-0.0114 0.8611465,-0.38414 0.633248,-0.85295 -0.5025849,-1.03384 -2.2390292,-1.46241 -2.5588287,-2.55882 -0.1629973,-0.55884 0.4510519,-1.39371 0.9950977,-1.31819 0.5281965,0.0734 0.7814506,0.85543 1.0855634,1.24065 m 46.9893976,3.64439 c 0.422208,0.1778 1.494357,0.0896 1.292364,-0.54278 -0.245724,-0.76905 -1.535607,-1.01873 -1.524984,-1.78343 0.005,-0.36281 0.357149,-0.74718 0.697862,-0.91753 0.239056,-0.11957 0.418562,-0.0905 0.697863,-0.0905 m -27.759415,2.63637 c 0,0 -0.210398,0.25336 -0.409134,0.4438 -0.172527,0.1654 -0.541817,0.3713 -0.831508,0.21529 -0.769744,-0.41446 -0.156631,-2.23929 0.16803,-2.83022 0.171518,-0.31234 0.34451,-0.31016 0.878763,0.19385 0.399999,1.00904 0.196518,1.14438 0.193849,1.51203 -0.0011,0.15655 -0.01604,0.2386 0.01295,0.38771 0.02815,0.14476 0.269997,0.69181 0.452294,0.78835 0.361183,0.19121 0.467665,-0.059 0.467665,-0.059 m 0.453839,0.0261 c 0.195401,0.46416 0.102105,0.5281 0.487172,0.85997 0.533863,0.46028 1.46768,-0.69809 1.460314,-1.22769 -0.01172,-0.84535 -1.077426,-1.10526 -1.55081,-1.55081 -0.521922,-0.49122 -0.180358,-1.07277 0.310161,-1.1631 m 13.91356,1.2098 c 0.381342,0.23084 0.932612,0.10226 1.361875,-0.27932 0.250532,-0.2227 0.564106,-0.61567 0.15508,-0.81417 -0.333656,-0.16191 -1.085485,0.40918 -1.292362,0.67204 -0.117784,0.14973 -0.126934,0.30109 -0.258442,0.43934 -0.102897,0.10825 -0.159269,0.11189 -0.232623,0.24557 -0.186251,0.33924 -0.371726,0.92777 -0.16803,1.31819 0.222776,0.42686 0.764161,0.35187 1.176056,0.23262 m -18.764745,-4.10964 c -0.450043,-0.45004 -1.120999,-0.49075 -1.641295,0.15508 -0.574186,0.71283 -0.893341,1.91052 -0.659092,2.71391 0.374907,1.28547 1.762491,1.52251 2.610549,0.85295 m 15.197891,0.3877 c -0.255145,-0.9704 -0.02018,-2.65125 0.852942,-3.14038 0.386462,-0.19889 0.60714,0.32132 0.775403,0.50401 m 7.056164,2.63637 c -0.15176,-0.79499 -0.425868,-1.31267 -0.310161,-2.71391 m -35.14997,2.60002 c -0.209905,-0.32034 -0.520878,-0.61285 -0.5960906,-0.97168 m 2.3262076,1.00803 c -0.20504,-1.13779 -0.03218,-1.78708 -0.40065,-2.79145 l -0.452293,-1.70589 m 0.678175,2.43076 c 0.1702,0.0896 0.380008,0.23706 0.599211,0.41487 0.371699,0.30149 0.770411,0.69015 1.048822,1.03139 m 21.711273,-3.6444 c -0.277516,-0.13872 -0.468421,-0.34854 -0.775403,-0.31016 -0.95452,0.11934 -1.634937,2.23603 -1.550804,3.10161 0.07312,0.75199 0.533321,1.50599 1.318184,1.47327 0.479819,-0.02 0.863101,-0.24472 1.240643,-0.54278 m -29.6979189,0.46524 c -0.1877327,-0.64855 -0.016709,-0.98321 -0.1421545,-1.62835 -0.054061,-0.27798 -0.1360521,-0.52425 -0.1680065,-0.85294 -0.016641,-0.17121 -0.081014,-0.48571 -0.051692,-0.69786 -0.1407238,-0.4744 -0.022373,-0.95507 -0.336009,-1.47327 m 22.6520373,4.86273 -0.01029,-0.98572 m 20.238008,0.31017 -0.16803,-0.69787 -0.229967,-0.81496 c -0.0957,-0.26479 -0.120586,-0.35807 -0.157728,-0.58076 -0.125072,-0.75051 -0.113673,-1.7818 -0.06459,-2.40375 m -10.310181,3.89963 c -0.24805,-0.34908 -0.167764,-1.15819 -0.0027,-1.7285 m -22.164918,1.02858 c 0.339471,0.0804 1.494009,-0.34282 1.603806,-0.95104 0.164928,-0.91312 -1.229246,-0.0971 -1.421546,0.31016 -0.117962,0.49445 -0.254517,0.72648 -0.271391,1.1631 -0.0074,0.26922 -0.03257,0.75602 0.155081,1.08557 0.357228,0.62737 0.924978,0.62032 1.395725,0.62032 m -4.471198,-2.465 c 0.231921,-0.30249 0.209082,-0.23884 0.439104,-0.46858 0.492458,-0.32148 1.032061,-1.03307 1.473265,-1.48622 m 34.970659,1.55081 c -0.565502,0 -0.729819,0.0662 -1.235803,0.39357 -0.147754,0.1609 -0.400864,0.12866 -0.625171,0.14921 m -42.647137,-0.85294 1.1635088,-0.41436 c 0.252442,-0.14587 0.2910214,-0.11184 0.4648366,-0.14137 0.3750545,-0.0625 0.7713471,-0.14756 1.163104,-0.14213 0.3343534,0.005 0.5860491,0.0917 0.930483,0.15508 m 35.7618116,0.53672 -0.09329,-1.77737 m 2.200205,0.1042 c -0.038,-0.10614 -0.07786,-0.18805 -0.106618,-0.41436"
       id="path1490"
       sodipodi:nodetypes="cccccscccccccccsccccccccccccccccccccccccccccccccccccccccccscccccccccccccsscccsccsccccccccccccccsccccccccccccccsccscccccccccccccccssccssccccsccccccccccscccccccccccccsccccccccccccccccccccccccscccccccccccccccccccscccccccccscccccccscccccccccccccccccccsccccccscccccccaccccccccccccccscccccscccsccccccccccccsccccccccccccccccccccccccccccccccccccsccccccscccccccccaccccccccscscccccccccccccccccccccccccccccccccccccccccccccccccccccccccccccccccccccccccccccccccccccccccccccsccsccccccsccsccccssccccccccccccsccccccccccccccccccccccccccccsccccccscccccccccsccsccccccsccsccccccccccsccscccccccsccccccccccccccccccccscsscccccccsccccscccccccssccccccccscccccccccccccccccccccsccccscccccccccccccccccccccccccccccccccccc" />
  </g>
</svg>
