<?xml version="1.0" encoding="UTF-8" standalone="no"?>
<!-- Created with Inkscape (http://www.inkscape.org/) -->

<svg
   width="3000"
   height="1998.207"
   viewBox="0 0 793.74998 528.69228"
   version="1.1"
   id="svg202"
   inkscape:version="1.2.1 (9c6d41e410, 2022-07-14)"
   sodipodi:docname="MonicaG - Stake - Envelope15.svg"
   xmlns:inkscape="http://www.inkscape.org/namespaces/inkscape"
   xmlns:sodipodi="http://sodipodi.sourceforge.net/DTD/sodipodi-0.dtd"
   xmlns="http://www.w3.org/2000/svg"
   xmlns:svg="http://www.w3.org/2000/svg">
  <sodipodi:namedview
     id="namedview204"
     pagecolor="#ffffff"
     bordercolor="#000000"
     borderopacity="0.25"
     inkscape:showpageshadow="2"
     inkscape:pageopacity="0.0"
     inkscape:pagecheckerboard="0"
     inkscape:deskcolor="#d1d1d1"
     inkscape:document-units="mm"
     showgrid="false"
     inkscape:zoom="0.5"
     inkscape:cx="524"
     inkscape:cy="573"
     inkscape:window-width="1920"
     inkscape:window-height="1058"
     inkscape:window-x="-6"
     inkscape:window-y="-6"
     inkscape:window-maximized="1"
     inkscape:current-layer="layer1"
     showguides="false" />
  <defs
     id="defs199">
    <pattern
       id="EMFhbasepattern"
       patternUnits="userSpaceOnUse"
       width="6"
       height="6"
       x="0"
       y="0" />
    <pattern
       id="EMFhbasepattern-0"
       patternUnits="userSpaceOnUse"
       width="6"
       height="6"
       x="0"
       y="0" />
    <pattern
       id="EMFhbasepattern-7"
       patternUnits="userSpaceOnUse"
       width="6"
       height="6"
       x="0"
       y="0" />
    <pattern
       id="EMFhbasepattern-1"
       patternUnits="userSpaceOnUse"
       width="6"
       height="6"
       x="0"
       y="0" />
    <pattern
       id="EMFhbasepattern-3"
       patternUnits="userSpaceOnUse"
       width="6"
       height="6"
       x="0"
       y="0" />
    <pattern
       id="EMFhbasepattern-5"
       patternUnits="userSpaceOnUse"
       width="6"
       height="6"
       x="0"
       y="0" />
    <pattern
       id="EMFhbasepattern-33"
       patternUnits="userSpaceOnUse"
       width="6"
       height="6"
       x="0"
       y="0" />
    <pattern
       id="EMFhbasepattern-4"
       patternUnits="userSpaceOnUse"
       width="6"
       height="6"
       x="0"
       y="0" />
    <pattern
       id="EMFhbasepattern-11"
       patternUnits="userSpaceOnUse"
       width="6"
       height="6"
       x="0"
       y="0" />
    <pattern
       id="EMFhbasepattern-6"
       patternUnits="userSpaceOnUse"
       width="6"
       height="6"
       x="0"
       y="0" />
    <pattern
       id="EMFhbasepattern-34"
       patternUnits="userSpaceOnUse"
       width="6"
       height="6"
       x="0"
       y="0" />
  </defs>
  <g
     inkscape:label="Layer 1"
     inkscape:groupmode="layer"
     id="layer1">
    <path
       d="m 573.9446,135.67918 -0.59532,-1.52136"
       style="fill:none;stroke:#7c85ac;stroke-width:0.264583"
       id="path467"
       sodipodi:nodetypes="cc" />
    <path
       style="fill:none;stroke:#7180b0;stroke-width:0.0616363"
       d="m 93.857028,110.50319 c 0.303803,0.16352 0.709938,-0.14309 0.868556,-0.40837 0.161816,-0.27032 0.204669,-0.46746 0.378636,-0.6905 0.138789,-0.17861 0.08506,-0.31921 0.08506,-0.53459 0,-0.22678 0.01919,-0.32717 0.05309,-0.53459 0.04157,-0.25263 0.0211,-0.54261 0.01088,-0.77218 -0.0064,-0.13561 -0.02047,-0.29687 -0.138789,-0.39601 -0.206588,-0.17403 -0.383751,-0.15164 -0.692671,0.0199 -0.261589,0.14494 -0.408695,0.31108 -0.554521,0.55437 -0.347293,0.58056 -0.276939,1.33855 -0.276939,2.01955 0,0.20802 0.03198,0.6165 0.266707,0.74248 m 1.236319,-1.09144 c 0.09913,0.12972 0.161175,0.31137 0.24496,0.52716 0.116403,0.29949 0.151581,0.46545 0.49056,0.41579 m 15.605874,-0.77218 0.21298,-0.83158 0.36265,-1.36617 M 99.026799,104.6525 c -0.163733,0.52574 -0.07035,1.00496 0.04285,1.54436 0.06716,0.32182 0.09658,0.71985 0.149023,1.06918 0.07419,0.49526 0.198271,0.88385 0.255836,1.36616 0.03709,0.30876 0.05116,0.73238 0.447709,0.77218 m -12.930493,-1.72259 c 0.06652,0.24585 0.157339,0.3773 0.202749,0.59399 0.06907,0.33055 0.196353,0.78144 0.703542,1.84135 0.350489,1.03638 0.454741,1.02926 0.767498,0.94046 0.321072,-0.0911 0.66517,-0.30062 0.948504,-0.49497 0.568592,-0.3896 1.217131,-1.26115 1.290045,-1.87106 0.03965,-0.33013 -0.08059,-0.77752 -0.276942,-1.06917 -0.158616,-0.23557 -0.47713,-0.4547 -0.66133,-0.65339 -0.09018,-0.0975 -0.129835,-0.19143 -0.234087,-0.29699 -0.265431,-0.26806 -0.799484,-0.52544 -1.194108,-0.67316 -0.410613,-0.15355 -0.889021,-0.29556 -1.343129,-0.33661 -0.27758,-0.0251 -0.342815,0.0564 -0.511664,0.1188 0.06396,0.41966 0.155422,1.33047 0.308922,1.90075 z m 10.500071,1.66317 c -0.258392,-0.33768 -0.200189,-1.0709 -0.255834,-1.60376 -0.02176,-0.20897 -0.06396,-0.34291 -0.06396,-0.53459 0,-0.17701 -0.03262,-0.24686 -0.09594,-0.41579 -0.228972,-0.6133 -0.178444,-1.4725 -0.03198,-1.84136 m 5.703179,3.39314 c 0.30219,-0.3397 0.24931,-0.49267 0.30891,-0.9578 -0.0808,-1.97859 -1.28023,-0.47019 -1.27916,0.95038 0,0.24199 0.0192,0.33335 0.12792,0.47519 0.44354,-0.0233 0.62023,-0.0657 0.84233,-0.46777 z m 0.26495,-0.55129 c 0.11934,0.62907 0.23646,0.58061 0.38487,0.83094 0.12879,0.0469 0.26772,0.0608 0.4266,0.01 m 0.95938,0.0594 c 0.26223,-0.0192 0.68244,-0.18709 0.95938,-0.43556 0.15414,-0.13805 0.30891,-0.27027 0.36264,-0.45541 0.0307,-0.1071 0.0531,-0.19311 0.0639,-0.29699 0.039,-0.37428 -0.47776,-0.72057 -0.74639,-0.97016 -0.0966,-0.0899 -0.17333,-0.16138 -0.22385,-0.27721 -0.22961,-0.53007 0.37416,-0.74806 0.73552,-0.71278 m 14.45463,2.91052 c -0.26608,-0.2683 -0.23346,-0.36292 -0.19188,-0.71278 0.0185,-0.15384 0.0339,-0.19743 0.0959,-0.35639 0.055,-0.14202 0.0614,-0.26094 0.0959,-0.41579 0.23555,-0.5209 0.45441,-0.99093 0.59673,-1.30677 0.11832,-0.27263 0.25839,-0.48731 0.40549,-0.71278 0.30572,-0.46913 0.72401,-1.17235 1.36424,-1.18797 m -6.33189,4.63308 c 0.0652,-0.32782 0.19187,-0.39832 0.19187,-0.77217 0,-0.1766 0.003,-0.28726 0.0429,-0.4752 0.18995,-0.90909 0.0211,-1.87711 0.0211,-2.79173 0,-0.29937 -0.16053,-1.20733 -0.064,-1.29685 0.45986,-0.42684 1.89381,-0.36119 2.55834,-0.24751 m 0.89541,1.84136 c 0,0.0511 -0.0102,0.134 0.0109,0.23759 0.0269,0.13644 0.0627,0.21764 0.0959,0.35639 0.0902,0.37897 0.22258,0.59678 0.54885,1.05515 0.27703,0.23129 0.34146,0.50299 0.5167,0.65749 0.11577,0.10199 0.23153,0.14209 0.36264,0.20789 0.37608,0.18913 0.82763,0.13823 1.15126,-0.13857 m 7.5471,-1.06917 c 0.20659,-1.04102 0.19188,-2.1418 0.19188,-3.20753 0,-0.41514 0.0966,-0.81898 -0.38376,-0.98008 -0.56283,-0.1887 -1.35464,0.28274 -1.91875,0.43557 -0.28398,0.0769 -0.56668,0.12071 -0.89542,0.12872 m 16.56525,3.44512 0.008,-2.58384 0.056,-1.09887 0.0748,-0.41579 -0.0144,-0.33539 m -0.1074,1.86138 c -0.14966,0 -0.31788,0.0532 -0.48866,0.0951 -0.51944,0.3088 -1.891,0.4982 -1.89476,0.42814 0,0 -0.42149,-1.57186 0.19187,-1.63346 m -0.7675,2.79173 c -0.29613,0.0507 -0.52062,0.20552 -0.83146,0.2376 -0.61656,0.0636 -1.10392,6.7e-4 -1.66292,0.10888 -0.20978,0.0407 -0.33002,0.11933 -0.51167,0.12872 -0.21874,0.0113 -0.41573,0 -0.41573,0 0,0 0.0697,-0.31713 0.0959,-0.4752 0.0902,-0.54961 0.69779,-1.25134 0.92739,-1.84135 0.0678,-0.17499 0.0959,-0.23272 0.0959,-0.41579 0,-0.33073 -0.0141,-0.67418 -0.38374,-0.83158 -0.58906,-0.2506 -1.24784,0.44032 -1.66293,0.65338 m -3.07,2.61354 c 0.35944,0.57622 1.19218,0.15271 0.86344,-0.47519 -0.19573,-0.37379 -0.69651,-0.86995 -1.11928,-0.99 -0.25456,-0.0722 -0.62872,0.0791 -0.82059,-0.13857 -0.22258,-0.25191 -0.0684,-1.07535 0.11704,-1.24737 0.18101,-0.16822 0.47969,-0.15966 0.7675,-0.1782 0.77262,-0.0499 1.1762,-0.47519 1.98272,-0.47519 m 10.63822,-0.29699 c -0.087,0.20837 -0.12472,0.34357 -0.17013,0.53459 -0.0556,0.23177 -0.14199,0.55935 -0.17077,0.83158 -0.0697,0.66509 -0.0665,1.50243 0.17077,2.07895 0.11513,0.27983 0.488,0.23278 0.62871,0.26729 0.29358,-0.1403 0.66453,-0.32253 0.86344,-0.4554 0.17014,-0.11358 0.47649,-0.33573 0.51167,-0.52467 0.0288,-0.15438 0.0422,-0.25465 0.0851,-0.4158 0.0512,-0.18936 -0.0109,-0.36511 -0.0211,-0.53458 -0.0192,-0.32343 -0.18803,-0.74907 -0.34089,-1.06917 -0.19764,-0.41259 -0.59034,-0.95847 -1.03422,-1.18798 -0.0819,0.0295 -0.37863,0.13211 -0.52254,0.47519 z m -31.36078,2.91053 0.57563,-0.50489 0.95938,-0.43557 0.51377,-0.17432 m -28.143649,-1.43936 c 0.435557,0.14898 0.786051,-0.0397 0.948505,-0.53459 0.05053,-0.153 0.147105,-0.30773 0.191875,-0.47518 0.132395,-0.4901 -0.01982,-1.059909 -0.127917,-1.484964 -0.121519,-0.478335 -0.258355,-0.802755 -0.628712,-0.890973 -0.308004,-0.07337 -0.553242,-0.04374 -0.842332,0.415786 -0.04989,0.07959 -0.105531,0.209258 -0.117045,0.296994 -0.02942,0.216744 0.06166,0.236637 0.126144,0.191678 0.238034,-0.165962 0.229344,-0.13172 0.361569,-0.258592 0.227693,-0.218406 0.350636,-0.506633 0.473436,-0.623531 m -3.9672,3.244582 c -0.176525,-0.32806 -0.22961,-0.63884 -0.319791,-1.06918 -0.08507,-0.40586 -0.10809,-0.740934 -0.127917,-1.187963 -0.01151,-0.251496 -0.143268,-0.540652 -0.181003,-0.772181 -0.02301,-0.137329 0.0038,-0.214728 -0.01088,-0.356395 -0.01216,-0.117129 -0.05245,-0.184489 -0.06396,-0.296994 -0.05948,-0.567613 -0.170769,-0.914024 -0.255835,-1.247368 m 7.930856,4.098501 c 0,-0.996709 -0.278219,-2.02282 -0.532774,-2.969925 -0.165014,-0.612934 -0.490563,-1.135226 -0.490563,-1.722568 m 3.624532,3.029328 c 0.03262,0.157231 0.08826,0.401837 0.13815,0.534587 0.04605,0.121532 0.0678,0.237603 0.266707,0.237603 0.321072,0 0.647899,-0.540234 0.799483,-0.77219 0.2149,-0.329537 0.432359,-0.871248 0.41573,-1.247369 -0.0051,-0.11725 -0.02622,-0.187461 -0.08507,-0.296985 -0.191234,-0.354379 -0.545617,-0.712836 -0.895417,-0.999856 -0.129458,-0.10623 -0.291141,-0.172763 -0.436236,-0.259821 -0.08679,-0.0521 -0.169394,-0.203528 -0.259783,-0.157046 -0.929901,0.478246 -0.09835,2.222041 0.05643,2.961077 z m 3.282992,0.712789 c -0.03134,-0.157464 -0.04541,-0.258982 -0.06396,-0.415795 -0.02878,-0.240556 -0.08315,-0.386439 -0.117045,-0.593979 -0.02175,-0.131692 -0.0051,-0.225539 -0.01088,-0.356395 -0.0064,-0.148196 -0.04989,-0.223877 -0.06396,-0.356386 -0.03326,-0.31998 -0.0243,-0.705481 -0.07483,-1.009784 -0.02494,-0.153721 -0.06524,-0.270971 -0.09594,-0.415786 -0.09466,-0.452623 -0.223854,-1.216548 -0.276939,-1.484965 m 8.826283,4.039102 c -0.0966,-0.485942 -0.24624,-0.953169 -0.43684,-1.425561 -0.10234,-0.25328 -0.25327,-0.534058 -0.26671,-0.831582 -0.01,-0.212351 0.0352,-0.28571 -0.0639,-0.475191 -0.1356,-0.258564 -0.23217,-0.394472 -0.25583,-0.71278 -0.0422,-0.563582 -0.19957,-0.930602 -0.25585,-1.42557 m -15.733793,3.979711 c 0.450268,-0.512791 0.755991,-1.996456 -0.511669,-2.356167 -0.296766,-0.08414 -0.518703,-0.04291 -0.767502,0.06928 -0.457941,0.206648 -0.853206,0.697692 -1.279169,0.801885 m 23.025063,1.247368 v -1.484971 c 0,-0.176293 -0.0748,-0.535121 0.032,-0.702865 0.13943,-0.21953 0.20403,-0.174924 0.30892,-0.425705 0.1842,-0.440026 1.03484,-1.172468 1.25806,-0.475187 m 3.64563,2.851125 c 0.48417,-0.04736 1.16405,-0.615181 1.27918,-1.069166 0.18484,-0.726863 -0.95618,-0.581696 -1.2472,-1.019697 -0.15925,-0.239618 -0.0691,-0.537142 0.1068,-0.683089 0.20915,-0.173921 0.5379,-0.302808 0.75663,-0.415787 0.13113,-0.06761 0.24626,-0.111668 0.38376,-0.138573 m 5.50043,0.950374 c -0.002,0.129667 0.002,0.389949 0,0.534587 -0.006,0.425352 -0.20914,1.998704 0.70354,1.385946 0.26991,-0.181221 0.46242,-0.455647 0.60761,-0.732562 0.0793,-0.151115 0.0934,-0.261651 0.0959,-0.41579 0.003,-0.178202 0.0166,-0.260942 -0.0851,-0.415796 -0.11576,-0.175165 -0.31212,-0.370641 -0.50144,-0.514806 -0.50293,-0.34017 -0.81169,-0.282738 -0.82058,0.158421 z m 2.43043,2.078953 c 0.0441,-0.222269 0.24048,-0.664078 0.25583,-1.009778 0.004,-0.08312 -0.023,-0.261118 0.032,-0.326695 0.16246,-0.193108 0.23679,-0.406443 0.36663,-0.638102 0.15541,-0.277027 0.52751,-0.60648 0.88056,-0.688448 0.29357,-0.06826 0.4765,0.210809 0.51167,0.405867 0.0243,0.135909 0.0812,0.223459 0.11705,0.356395 0.12152,0.450957 0.34153,1.08949 0.5865,1.425574 m -8.05878,0.178193 -0.12792,-1.366173 0.064,-0.831582 h 0.44772 l 0.7675,-0.178193 m -14.51859,1.603763 c 0.1599,-0.109356 0.31148,-0.128181 0.51168,-0.257375 0.30379,-0.19607 0.49567,-0.424581 0.7675,-0.633607 0.39653,-0.304944 0.87303,-0.767965 1.00222,-1.247368 0.0333,-0.123603 0.0358,-0.217283 0.0211,-0.356386 -0.048,-0.456241 -0.63128,-0.765058 -1.02334,-0.871201 -0.2552,-0.0691 -0.52254,-0.1071 -0.83146,-0.07922 -0.37224,0.03362 -0.40358,0.08033 -0.7675,0.178192 m 26.54278,3.266927 c -0.0601,-0.705657 -0.3134,-1.230029 -0.38375,-1.900757 -0.0262,-0.249063 -0.0959,-0.772181 -0.0959,-0.772181 0,0 -0.12377,-0.41171 -0.12952,-0.779388 -0.008,-0.562264 -0.1391,-0.712465 -0.0304,-1.061969 m -19.1236,4.395494 c 0.0582,-0.293196 0.43876,-1.022786 0.77837,-1.29685 0.59744,-0.362766 0.83472,-0.318402 0.64982,0.227674 -0.12088,0.32337 -0.44707,0.743438 -0.72465,0.960302 -0.36456,0.28481 -0.39526,0.312498 -0.70355,0.108874 -0.37031,0.384195 -0.29676,1.073748 0.12793,1.187971 m 12.37791,-1.334662 c -0.19572,-0.255416 -0.004,-1.084583 -0.42854,-1.575864 -0.1938,-0.22435 -0.38632,-0.265279 -0.69268,-0.237594 -0.21617,0.0195 -0.30187,0.08293 -0.51167,0.118792 m 14.93433,-1.544362 c 0.17013,0.291886 0.36584,0.594285 0.43683,0.890982 0.11385,0.475958 0.078,0.720916 0.0429,1.187968 -0.0211,0.284642 -0.3377,0.91016 -0.70355,0.999856 -0.12983,0.03176 -0.2635,-0.02898 -0.67156,-0.494969 l -0.55452,-1.336469 -0.52766,-2.10865 -0.0371,-0.400937 0.35976,-0.04699 0.35977,-0.04699 c 0.8257,0.466365 1.08921,1.003274 1.29516,1.356279 z m -6.52708,0.86 c 0,0 0.0622,-0.155978 0.0827,-0.430636 0.0263,-0.100431 -0.0438,0.0037 -0.005,-0.521316 -0.053,-0.36545 -0.007,-0.502241 0.0534,-0.685328 0.10682,-0.420476 0.85765,-0.834201 1.40705,-0.465157 0.41702,0.279943 0.54365,1.153633 0.40487,1.539431 -0.11321,0.31659 -0.19573,0.663958 -0.33004,1.009775 -0.1787,0.42134 -0.47703,0.34134 -0.46945,0.445486 m 11.81122,0.68309 c 0,0.269067 0.0396,0.615962 0.51167,0.445486 0.16501,-0.05962 0.41701,-0.07903 0.56475,-0.178192 0.24816,-0.166138 0.40806,-0.568626 0.54365,-0.861283 0.0978,-0.210029 0.13303,-0.341953 0.10681,-0.593988 -0.0793,-0.757387 -0.86344,-1.631439 -1.66292,-1.930448 -0.40742,-0.152356 -0.88199,-0.104481 -1.19411,-0.504888 -0.55643,-0.715223 0.72593,-1.42557 1.32202,-1.42557 0.35946,0 0.66453,0.116786 1.02334,0.178202 m -35.68885,5.345868 -0.19188,-0.296994 m 7.80294,0.118792 0.72971,-0.413716 0.7491,-0.219279 m -0.008,-0.02043 c 0,-0.37534 -0.0122,-0.619295 -0.0211,-1.247368 -0.003,-0.214849 0.0211,-0.954776 0.0211,-1.128576 m 28.90925,2.197742 c 0,-0.600638 -0.27886,-1.316622 -0.39462,-1.960148 -0.0736,-0.411747 -0.30828,-1.212384 -0.37289,-1.603763 -0.0281,-0.172249 -0.10425,-0.253447 -0.1599,-0.415787 l -0.04,-1.069175 m -14.87034,4.870681 0.54621,0.03715 c 0.0803,0.232486 0.56443,0.279172 0.73009,0.428148 0.417,0.373854 1.03612,0.59826 1.51389,0.752399 0.32043,0.103357 0.66517,-0.181638 1.02334,-0.207893 m 15.79775,-3.326318 c -0.43299,0.211636 -0.87495,0.451245 -1.34312,0.58406 -0.14136,0.04012 -0.24945,0.106208 -0.38376,0.12872 -0.16948,0.02842 -0.25647,-0.01142 -0.35177,0.128711 -0.064,0.09421 -0.0326,0.217459 -0.0109,0.287076 0.087,0.275615 0.36328,0.68516 0.59736,0.890982 0.21555,0.189895 0.53662,0.270201 0.85257,0.237594 0.45858,-0.04727 1.31755,-0.450483 1.535,-0.772181 m 4.22127,0.356385 0.0851,-0.475187 -0.0211,-0.356385 -0.20275,-0.831582 -0.40486,-1.425561 -0.15989,-0.593989 -0.12792,-0.653389 m 3.00605,3.979708 c -0.0985,-0.289333 -0.19444,-0.525979 -0.24496,-0.950374 -0.0435,-0.3618 -0.0294,-0.933453 -0.0857,-1.247378 -0.0742,-0.414895 -0.10745,-0.85427 -0.2021,-1.306759 -0.0684,-0.325386 -0.1599,-0.966125 0.21298,-1.069176 m 1.73774,3.860906 c 0.0953,0.220013 0.35626,0.521818 0.62872,0.514806 0.43044,-0.01114 1.00863,-0.456835 1.25807,-0.8118 0.13431,-0.191204 0.11704,-0.550385 0.0211,-0.772181 -0.28206,-0.650176 -0.86856,-1.393196 -1.59896,-1.534444 -1.31251,-0.323862 -0.61099,1.888257 -0.30893,2.603619 z m -10.81985,0.05944 c -0.26288,-0.309114 -0.25584,-0.629447 -0.25584,-1.128576 0,-0.220663 -0.0799,-0.491523 0.0748,-0.643461 0.15926,-0.15687 0.50591,-0.179679 0.69267,-0.237594 0.48737,-0.150935 1.03166,-0.425714 1.59896,-0.425714 m 15.86172,2.197751 c 0.18995,0.09747 0.4445,0.237594 0.70354,0.237594 0.15414,0 0.30828,-0.05934 0.44771,-0.118802 0.50975,-0.216976 1.04636,-0.739156 1.01246,-1.306768 -0.01,-0.158774 -0.0595,-0.328534 -0.12792,-0.475187 -0.20082,-0.434027 -1.01246,-0.805151 -1.52413,-0.692999 -0.17972,0.03947 -0.28333,0.07708 -0.4477,0.108929 -0.17205,0.03325 -0.55261,0.252982 -0.75663,0.138583 -0.34602,-0.193823 -0.26672,-0.677201 -0.26672,-0.980074 0,-0.266403 0.11258,-0.836569 0.38376,-0.980084 0.15989,-0.08442 0.3959,-0.08674 0.57563,-0.08906 0.35496,-0.0046 0.90501,0 1.27916,0 m 2.49439,0.296994 c -0.40934,0.481781 -0.26287,1.938594 -0.0109,2.613538 0.11064,0.295388 0.0972,0.634016 0.45857,0.801882 0.59418,0.275903 1.26702,-0.661284 1.38598,-1.039475 0.0422,-0.135667 0.0883,-0.209203 0.064,-0.356395 -0.0403,-0.241931 -0.0384,-0.383059 -0.17076,-0.593979 -0.29742,-0.473646 -0.60378,-0.980316 -1.15126,-1.227596 -0.23984,-0.108279 -0.43172,-0.110657 -0.57562,-0.316767 M 79.391535,90.87206 c -0.01088,0.375991 -0.213622,0.799383 0.08506,1.128576 0.330666,0.364048 0.994553,0.200408 1.38598,0.07922 1.109042,-0.343328 2.330008,-1.136712 3.048903,-1.979931 0.221297,-0.260049 0.367762,-0.558585 0.543648,-0.831581 0.151581,-0.236294 0.234727,-0.408905 0.298047,-0.712781 0.05692,-0.271454 0.04318,-0.654383 -0.120923,-0.925029 -0.14552,-0.239999 -0.458536,-0.398494 -0.699659,-0.51046 -0.679239,-0.31529 -1.425635,-0.817261 -2.110631,-1.108729 -0.403578,-0.171841 -1.158928,-0.288088 -1.598962,-0.435633 -0.256474,-0.086 -0.42916,-0.144221 -0.703545,-0.207893 -0.470093,-0.109115 -1.728796,-0.399042 -1.897646,-0.910755 -0.200192,-0.609554 1.074503,-1.607859 1.503022,-1.97994 0.709941,-0.616073 1.419241,-1.035128 2.31338,-1.415698 0.148385,-0.06324 0.233449,-0.131209 0.383751,-0.158355 0.143909,-0.026 0.338341,-0.06928 0.511668,-0.06928 0.204669,0 0.406777,0.06195 0.575628,0.09901 0.127276,0.02786 0.19955,0.04328 0.319793,0.09895 0.13559,0.06306 0.310199,0.09504 0.447709,0.178202 0.364564,0.221136 0.56731,0.647622 0.895419,0.871201 M 179.0389,92.178857 c 0,-0.258796 -0.0115,-0.412164 0.0531,-0.653389 0.15671,-0.58145 0.32875,-1.201508 0.46946,-1.722555 0.0812,-0.301805 0.45539,-0.642272 0.27694,-0.950374 -0.14902,-0.257134 -0.40613,-0.105725 -0.6076,-0.06928 -0.12217,0.0222 -0.20531,0.03863 -0.3198,0.05944 -0.27374,0.04941 -0.39781,0.118504 -0.63959,0.168339 -0.15605,0.03213 -0.24304,0.02647 -0.38374,0.07922 -0.18676,0.06993 -0.25136,0.106143 -0.44771,0.118792 -0.20915,0.01347 -0.34474,0.09671 -0.57563,0.168275 -0.17525,0.05414 -0.29229,0.05414 -0.44771,0.06928 m 0.064,1.900757 -1.76845,0.293725 c -0.1695,-0.102279 -0.11385,-0.285469 -0.0333,-0.531318 0.0761,-0.229988 0.27054,-0.585259 0.36264,-0.831582 0.16437,-0.439311 -0.18995,-1.128576 -0.73552,-1.128576 -0.41509,0 -0.73105,0.286722 -1.15125,0.296994 m -9.97753,1.841356 c 0.66965,0 1.425,-0.409433 1.79084,-0.534587 m -19.4274,0.400945 0.82147,-0.341545 c 0.17053,-0.131747 0.17437,-0.106319 0.31381,-0.178192 0.12727,-0.06566 0.2974,-0.105438 0.4477,-0.12872 0.26608,-0.04114 0.79309,-0.165423 0.89542,0.12872 M 95.317214,90.099991 c -0.04669,-0.234919 -0.127918,-0.493845 -0.127918,-0.831582 0,-0.509642 -0.154139,-1.47873 0.06396,-1.960149 0.126638,0.105373 0.272464,0.122359 0.436837,0.247513 0.173969,0.132342 0.463784,0.182177 0.786136,0.07829 0.44707,-0.144164 0.763578,-0.560071 0.951618,-0.919791 0.09018,-0.171896 0.235327,-0.34395 0.255838,-0.539538 0.0012,-0.451783 -0.125373,-0.641733 -0.575624,-0.697902 -0.09466,-0.0098 -0.502713,0.118374 -0.639585,0.197974 -0.355611,0.206287 -0.694591,0.489267 -0.884547,0.755966 -0.200829,0.28155 -0.330666,0.440908 -0.330666,0.877488 m 3.617649,-1.550566 c -0.672408,-0.278921 -1.156467,0.369927 -0.675563,0.4814 0.268625,0.0104 0.592895,0.02638 0.895419,0.06928 0.232168,0.03288 0.375436,0.01895 0.639584,0.108873 0.150303,0.05117 0.287178,0.114399 0.298688,0.296994 0.01,0.160139 -0.0256,0.298118 -0.159899,0.435568 -0.347933,0.355206 -1.289403,0.927565 -1.673792,0.871201 m -7.994824,-0.141072 c 2.851292,-1.330154 0.674035,-1.272388 0.319793,-0.809302 -0.159897,0.248339 -0.285255,0.44323 -0.319793,0.772181 -0.0275,0.262539 0.03326,0.528226 0.202748,0.712781 0.116404,0.127113 0.285525,0.361521 0.463329,0.336279 0.218099,-0.03093 0.71834,-0.248023 0.83922,-0.426866 m 0.757236,-1.141931 c 0.440675,-0.01077 1.27693,-0.280779 1.383102,-0.787032 0.03454,-0.165311 -0.01982,-0.45208 -0.138789,-0.584069 -0.09146,-0.101983 -0.234089,-0.188112 -0.37288,-0.188112 -0.471372,0 -0.740638,0.593682 -0.820587,0.950374 -0.06012,0.267173 -0.08315,0.501089 -0.07483,0.772181 0.0032,0.102224 0.03414,0.18592 0.01088,0.296995 -0.203948,0.245784 0.350994,0.683711 0.917994,0.634935 m -9.627226,-2.595084 0.703545,1.009775 0.275333,0.454188 c 0.285427,0.290623 0.374662,0.636468 0.609206,0.911972 0.334502,0.372313 0.210936,0.373427 0.478921,0.616788 0.836899,0.549206 0.619247,-2.13145 0.619247,-2.13145 0,0 -0.01982,0.1583 0.07483,0.247512 0.101054,0.09587 0.165735,0.252676 0.237368,0.344981 0.133035,0.171785 0.310757,0.395485 0.444428,0.625175 0.286536,0.490631 1.28109,1.504929 1.72688,0.653389 0.366484,-0.699593 0.02814,-1.519362 -0.05308,-2.197742 -0.01919,-0.160028 0,-0.277519 0,-0.415796 0,-0.108576 7.25e-4,-0.191204 -0.0211,-0.296994 -0.05756,-0.274538 -0.106812,-0.901431 -0.106812,-1.128567 m 17.900392,2.606108 c -0.45928,-0.19647 -0.57531,-0.659686 -0.63159,-1.002354 -0.032,-0.194947 -0.26148,-0.545482 -0.26148,-0.545482 0,0 -0.3263,0.39711 -0.42096,0.523211 -0.19379,0.259753 -0.77581,0.954888 -1.2152,0.54694 -0.42213,-0.391909 -0.15158,-1.030745 -0.0851,-1.475043 0.0365,-0.241931 0.18676,-0.647501 0.39462,-0.871201 0.16117,-0.173856 0.60761,-0.609544 0.88455,-0.534588 0.1375,0.03724 0.31915,0.09314 0.41573,0.22774 0.0806,0.111901 0.032,0.251608 0.032,0.405868 v 0.772181 0.415786 m -10.469213,1.484971 c 0.01056,-0.309207 -0.09195,-0.408347 -0.147902,-0.593988 m 6.843565,0.415786 -0.39462,-1.544362 -0.0531,-0.415787 -0.12791,-0.415786 0.51167,-0.138583 1.21522,-0.03966 0.4477,0.118801 m 4.66897,2.257143 c -0.12172,-0.52362 -0.22887,-0.900641 -0.28022,-1.659551 l -0.008,-0.389699 0.22385,-0.118792 0.38376,-0.148502 c 0.3006,0.392922 0.6626,0.873282 1.21521,1.158277 0.43812,0.226012 0.73872,0.326685 1.21521,0.326685 m 4.09334,0.593989 c 0.22961,-0.06733 0.35305,-0.130086 0.52255,-0.287076 0.12983,-0.120928 0.30188,-0.240742 0.40485,-0.376223 0.64215,-0.846079 -0.81483,-1.086106 -1.15125,-1.663164 -0.0985,-0.168812 -0.002,-0.390014 0.11705,-0.51475 0.30507,-0.320156 0.66581,-0.445784 1.13014,-0.366304 m -3.83751,1.126923 c 0,-0.368626 0.0806,-0.773742 0.53277,-1.245725 0.21682,-0.226012 0.66517,-0.412405 0.87432,-0.118792 0.36968,0.518363 -0.45666,1.066204 -0.89542,1.247368 -0.20787,0.08563 -0.36969,-6.78e-4 -0.56476,0.138574 -0.26414,0.188056 -0.20274,0.345882 -0.20274,0.574207 0,0.239553 -0.005,0.34095 0.0959,0.534588 0.23664,0.452498 0.39719,0.356385 0.86344,0.356385 m 7.35523,-6.474434 c 0,0.980427 -0.17013,2.017051 -0.064,3.029324 0.0422,0.402422 0.13367,0.917887 0.19187,1.306769 0.0166,0.109467 0.0409,0.187935 0.064,0.296994 0.0422,0.200528 0.13303,0.43788 0.181,0.65338 0.0806,0.358354 0.29102,0.902145 0.71442,1.098875 0.58458,0.271566 1.25167,-0.353776 1.57785,-0.68308 0.13623,-0.137691 0.22705,-0.26878 0.40486,-0.396014 0.31532,-0.225065 0.50399,-0.239441 0.70355,-0.376176 m -24.112366,0.593988 c 0.467536,-0.297291 1.057236,-0.276349 1.423076,-0.419501 m 24.60804,0.3601 c -0.0537,-0.269606 -0.064,-0.611327 -0.064,-1.009774 0,-0.117669 0.0288,-0.240148 -0.032,-0.356386 -0.0729,-0.139233 -0.32683,-0.605272 -0.35177,-0.772181 -0.0467,-0.312857 -0.064,-0.78757 -0.064,-1.128576 m 0.44771,1.781956 c 0.11705,-0.05433 0.21426,-0.119749 0.3409,-0.237594 0.1567,-0.145288 0.41445,-0.321939 0.68243,-0.207893 0.54557,0.232244 0.70483,0.944495 0.95938,1.277069 0.29038,-0.191799 0.0552,-0.258026 0.21577,-0.670784 0.14838,-0.381452 0.53063,-1.112714 0.99945,-1.002299 0.27693,0.0652 0.25583,0.342678 0.25583,0.544507 0,0.167391 0.0198,0.257133 0.0531,0.415795 0.1017,0.485227 -0.004,1.053072 0.33067,1.306769 m -21.84554,-0.136196 c 0.0991,-0.04857 -0.19758,-0.837888 -0.28411,-1.289374 v -1.484971 m 20.27485,2.672929 v -0.356386 m -26.53079,0.289565 c 0,-0.358234 -0.19875,-1.887811 -0.012,-2.487316 m 7.1556,2.384795 0.88207,-0.731559 0.76751,-0.702862 0.78861,-0.712781 m 12.97581,1.030773 c 0.01,0.436943 0.0471,0.801158 0.14699,1.000924 l 0.37243,0.878835 m 11.06483,-1.009774 -0.25583,-0.593989 -0.20275,-0.772181 -0.0959,-0.415786 -0.0796,-0.796932 -0.15446,-0.391045 -0.0959,-0.356395 -0.15989,-1.247368 -0.10681,-0.593988 v -0.712781 m 4.98876,5.702263 c -0.46178,0.13549 -1.09881,0.395949 -1.32202,-0.178193 -0.10042,-0.259335 -0.2259,-0.755204 -0.15447,-1.128576 0.0588,-0.307387 0.18326,-0.324977 0.46403,-0.831582 0.16053,-0.290698 0.87495,-1.07993 1.33226,-0.861282 0.15606,0.07467 0.23089,0.227201 0.22385,0.386095 -0.005,0.110898 -0.0339,0.200231 -0.10681,0.277212 -0.19955,0.2108 -0.5929,0.427368 -0.88454,0.574142 -0.10297,0.05173 -0.21107,0.09344 -0.3198,0.09902 -0.16565,0.0084 -0.4514,-0.02628 -0.52048,-0.02628 m -6.13121,0.38265 c 0,0.420541 -0.17397,0.742304 0.0109,1.187967 0.0998,0.240928 0.26415,0.190852 0.43683,0.178202 m 9.65774,-0.514815 c 0.1842,0.06687 0.34921,-0.06826 0.45858,-0.197974 0.25008,-0.298128 0.52063,-0.877619 0.72465,-1.187977 0.14455,-0.219651 0.23025,-0.223041 0.35178,-0.356386 0.10169,-0.111557 0.18292,-0.513208 0.11704,-0.71278 -0.087,-0.265037 -0.28206,-0.433023 -0.56476,-0.564288 -0.34025,-0.158123 -0.63702,0.204503 -0.81035,0.445486 -0.2392,0.333168 -0.41765,0.760183 -0.46882,1.187968 -0.0256,0.211701 -0.0601,0.293911 -0.064,0.534588 -0.004,0.241457 -0.0301,0.747588 0.25584,0.851363 m 1.79084,-0.01978 c 0,-0.287428 0.17423,-1.260843 -0.21271,-1.766204 M 133.5,81.605875 l 0.95938,0.05944 0.45596,-0.08591 0.43945,-0.03288 1.15126,-0.296994 m 7.17644,-0.275996 c 0.14518,-0.189783 0.17879,-0.420634 0.17879,-0.733788 0,-0.54902 -0.0384,-1.293581 0.12791,-1.781956 m -20.89489,2.264043 c -0.30444,-0.141489 -0.1935,-0.06575 -0.33933,-0.244493 m 8.6344,-0.415787 c 0.0281,0.247392 0.11001,0.299966 0.31979,0.356395 M 31.422651,75.725329 c 0.05827,-0.514388 0.476748,-1.164805 0.575626,-1.663154 M 7.8219613,75.309543 C 7.6800374,74.853952 7.4721723,74.391237 7.3315914,73.943373 7.1259647,73.28821 6.8157019,72.459006 6.53211,71.805032 6.4298403,71.569212 6.3543053,71.494961 6.3509154,71.270444 c -0.00243,-0.16038 -0.036136,-0.434212 0.021299,-0.593988 0.3016283,-0.840488 1.3595022,-1.190345 2.1532913,-0.811977 0.4656818,0.222149 0.7580364,0.520332 1.0766136,0.881473 0.2083769,0.23581 0.3827916,0.758519 0.4477107,0.999679 0.07285,0.270257 0.0465,0.424098 -0.0426,0.65338 -0.1934111,0.49717 -0.4068407,0.984235 -0.7781836,1.36617 -0.202045,0.207893 -0.4060727,0.352234 -0.6395853,0.296994 -0.2693252,-0.06352 -0.7410192,-0.19661 -0.7674981,-0.430646 m 5.692308,1.678014 c 0,-0.433014 -0.05718,-0.792381 -0.06396,-1.247368 -0.0033,-0.224527 -0.01465,-0.349857 -0.127917,-0.593989 -0.121265,-0.26135 -0.252444,-0.726442 -0.511668,-0.901077 -0.335398,-0.225716 -0.516081,-0.07309 -0.703544,0.188297 -0.255322,0.355791 -0.519427,0.831331 -0.519427,0.831331 0,0 -0.08024,-0.229634 -0.148424,-0.281308 -0.33682,-0.429782 -0.400639,-1.023938 -0.675277,-1.559798 -0.220913,-0.422324 -0.175119,-1.069175 -0.575627,-1.484971 m 17.716508,4.989482 c -0.07432,-0.374802 -0.158746,-0.875538 0.03198,-1.366169 0.14538,-0.430535 0.215123,-0.434129 0.228357,-0.932664 l 0.166071,-0.611699 0.127916,-0.296994 0.72484,-1.484962 m -14.646493,3.029334 c 0.0022,0.149681 0.01855,0.206704 0.07464,0.356385 0.08589,0.229876 0.09766,0.384312 0.191876,0.593989 0.05859,0.130679 0.106298,0.253632 0.202491,0.356385 0.244195,0.260171 0.597246,0.239377 0.874122,0.06947 0.246432,-0.151464 0.458199,-0.425881 0.618287,-0.663475 0.275149,-0.408663 0.505976,-1.093526 0.277132,-1.603763 -1.087839,-1.148543 -2.261249,-0.490882 -2.238549,0.890983 z m 6.971478,1.484961 c 0,-0.3855 -0.222576,-1.105404 -0.117236,-1.42557 -0.0055,-0.387767 -0.0316,-0.40662 0.146943,-0.894577 0.02494,-0.238187 0.642625,-1.261586 1.057588,-1.124972 0.306873,0.100979 0.318384,0.443118 0.362452,0.653389 0.07694,0.367669 0.07464,0.662286 0.159897,1.069175 0.03479,0.166315 0.108025,0.26135 0.117235,0.415787 0.0081,0.134831 0.01235,0.173437 0.06396,0.296994 0.0502,0.119981 0.14915,0.486471 0.191876,0.593979 m -11.768367,0.178202 -0.127918,-1.247368 m 13.815039,1.009774 c -0.121073,-0.388472 -0.09888,-0.658729 -0.117237,-1.069175 -0.02469,-0.549438 0.164629,-0.811977 0.181195,-1.36617 0.0079,-0.263133 0.06396,-0.468063 0.06396,-0.71278 m 10.553152,1.781956 c 0.06185,-0.218592 0.703544,-1.238908 0.703544,-1.238908 l 0.447712,0.128897 c 0,0 0.461236,0.131265 0.72353,0.08433 0.256856,-0.04634 0.543646,-0.168692 0.543646,-0.168692 0,0 0.253756,0.340802 0.289124,0.422176 0.04912,0.112858 0.235625,0.399757 0.309177,0.534588 0.08398,0.153842 0.328619,0.326694 0.469008,0.465092 0.367376,0.362923 0.90629,0.465091 1.31115,0.128896 m -19.529958,0.08925 c -0.05174,-0.182586 -0.193055,-0.342297 -0.222539,-0.623838 -0.01547,-0.147907 -0.02622,-0.226903 -0.05334,-0.356394 -0.104381,-0.498359 0.03467,-0.965225 0.106618,-1.247369 m -3.51772,1.722556 0.255835,-0.118793 c 0.400638,-0.298777 1.234785,-0.602894 1.471048,-1.187976 0.135144,-0.335007 -0.250142,-1.083431 -0.692863,-0.861273 -0.339235,0.170475 -0.534309,0.687241 -0.650265,1.039466 -0.04982,0.151473 -0.124017,0.462723 -0.127918,0.593988 -0.003,0.101574 0.03473,0.172853 0.01068,0.296994 -0.04701,0.241754 -0.07464,0.379557 -0.07464,0.593988 0,0.326101 -0.03479,0.558345 0.09594,0.831573 0.14589,0.304721 0.184777,0.593988 0.490371,0.821487 0.41202,0.307683 1.051925,-0.398568 1.268488,-0.583884 m 7.48314,-3.563912 0.106619,0.534588 0.09594,0.296985 0.213175,0.534587 c 0,0 0.232448,0.587302 0.425099,0.839532 0.153072,0.200417 0.461751,0.449415 0.566258,0.516543 0.118898,0.07662 0.255066,0.165126 0.38375,0.178193 0.150686,0.01607 0.277389,-0.08256 0.383751,-0.108697 M 45.49353,70.082449 c -0.21407,0.01542 -0.345441,0.05526 -0.575626,0.108697 -0.294596,0.06826 -0.739747,0.282738 -1.023339,0.296994 -0.222253,0.01189 -0.486734,0.120687 -0.73552,0.153554 -0.200898,0.02656 -0.607606,0.03473 -0.607606,0.03473 h -1.215211 m -2.825817,1.367498 0.523309,-0.1239 0.959377,-0.293233 m 11.64045,-2.197742 c -0.289478,0.0074 -0.348574,0.14552 -0.639587,0.277389 -0.218481,0.0986 -0.547484,0.239971 -0.692862,0.386085 -0.138151,0.138407 -0.109177,0.336196 -0.159897,0.524493 -0.07074,0.262539 -0.157784,0.365896 -0.191876,0.593988 -0.033,0.220961 0.02456,0.348668 0.07458,0.534588 0.0708,0.263133 0.128494,0.414003 0.394431,0.465092 0.154141,0.03028 0.350622,0.02554 0.511669,-0.0095 0.554074,-0.121773 1.235038,-0.55657 1.609645,-0.911182 0.243362,-0.229867 0.493758,-0.5726 0.309111,-0.910579 -0.165843,-0.303523 -0.543711,-0.506076 -0.83146,-0.643284 -0.119731,-0.05758 -0.332968,-0.132454 -0.341092,-0.30709 -0.0096,-0.204921 0.19501,-0.307683 0.33041,-0.435391 0.170641,-0.16156 0.257467,-0.445775 0.257467,-0.445775 0,0 -0.03124,-0.487975 -0.150847,-0.653101 -0.248158,-0.343328 -0.862288,-0.527464 -1.31115,-0.406285 -0.459222,0.124736 -0.904501,0.124141 -1.295158,0.391435 -0.188359,0.128293 -0.436964,0.362924 -0.602297,0.549438 -0.102782,0.11582 -0.08284,0.191854 -0.08526,0.34629 -0.0044,0.288673 0.128555,0.545278 0.309111,0.772181 0.415602,0.522106 0.653977,0.241755 1.097975,0.534588 m 5.94814,-2.73233 c -0.28161,0.04811 -0.644128,0.05944 -1.023337,0.05944 -0.441248,0 -1.057361,-0.09148 -1.471046,-0.05944 -0.349981,0.0273 -0.634788,0.224527 -0.876743,0.519738 -0.196033,0.239376 -0.117734,0.46486 0.01076,0.642885 0.213643,0.296001 0.3279,0.280166 1.05786,0.421535 0.291075,0.05582 0.573963,0.103951 0.831462,0.3166 0.239908,0.197798 0.592255,0.514982 0.639584,0.831572 0.04196,0.280955 0.02028,0.604678 -0.159896,0.821487 -0.148064,0.178193 -0.968642,0.08925 -1.146765,0.05897 m -15.514431,1.07967 c -0.149727,-0.310655 -0.183303,-0.562505 -0.319793,-1.069175 -0.03575,-0.133048 -0.10342,-0.358169 -0.127916,-0.475178 -0.04784,-0.228687 -0.128171,-0.239683 -0.170576,-0.497467 -0.05942,-0.36115 -0.143896,-0.503995 -0.21717,-0.456631 -0.212759,0.368125 -0.237766,0.71709 -0.337092,0.954098 -0.152543,0.364103 -0.55433,1.284192 -0.55433,1.484962 m 3.837511,-2.494746 c 0.239653,0.05879 0.42494,0 0.703544,0 0.549789,0 1.129635,-0.196015 1.72688,-0.04931 1.15861,0.537449 -0.02993,1.326495 -0.170579,1.65306 -0.103167,0.26551 -0.326637,0.567854 -0.437029,0.831582 -0.07899,0.188882 -0.0694,0.31659 -0.03198,0.534587 0.05705,0.332629 0.547613,0.288673 0.83146,0.237594 0.58797,-0.106329 1.844563,-0.284522 2.174589,-0.772181 m 11.896289,-3.385664 c -0.07483,0.147304 -0.10457,0.259567 -0.127914,0.415787 -0.04113,0.275011 -0.338214,0.987801 0.06396,1.198072 0.301628,0.157398 0.957963,0.0019 1.245584,-0.161486 0.284422,-0.160974 0.456933,-0.294236 0.718396,-0.475995 0.319281,-0.222743 0.589881,-0.639588 0.530401,-1.035778 -0.05181,-0.345696 -0.549978,-0.619528 -0.842142,-0.801882 -0.157912,-0.0986 -0.458263,-0.277389 -0.628904,-0.31659 -0.162007,-0.03798 -0.269243,-4.55e-4 -0.368564,0.07058 -0.351187,0.251598 -0.343741,0.621376 -0.590815,1.107262 z m -32.938632,1.247369 c 0.0301,0.149059 0.339778,0.296994 0.339778,0.296994 M 62.954204,69.60729 c -0.03582,-0.423513 -0.06396,-0.733575 -0.06396,-1.187977 0,-0.225715 -0.02654,-0.68308 -0.02654,-0.68308 0.02654,-0.829799 -0.0227,-1.110754 0.111607,-1.752256 0.04413,-0.21027 0.07611,-0.330855 0.10681,-0.534587 0.04925,-0.328478 0.191876,-0.46213 0.383751,-0.71279 m 1.40709,4.851085 c -0.451548,-0.141964 -0.468177,-1.003841 -0.319795,-1.346565 0.08442,-0.194826 0.119767,-0.382352 0.261754,-0.576593 0.112258,-0.163009 0.219562,-0.457551 0.583253,-0.505705 0.406518,-0.253428 0.271227,-0.407066 0.423292,-0.580866 0.201469,-0.228083 0.317233,-0.597545 0.255833,-0.890973 -0.04669,-0.225121 -0.131755,-0.419352 -0.330026,-0.583893 -0.156698,-0.130076 -0.264787,-0.224526 -0.426603,-0.257784 -0.149024,-0.03093 -0.333224,0.09682 -0.447708,0.178193 -0.32747,0.233433 -0.652378,0.737141 -0.703546,1.07927 -0.02942,0.197798 0.0307,0.242349 0.09594,0.415787 0.0921,0.245915 0.114484,0.47163 0.41573,0.583893 0.117683,0.04458 0.326187,0.0469 0.618157,0.06947 0.26447,0.05349 0.420528,0.03566 0.533096,0.08906 0.259031,0.123547 0.800121,0.649823 0.874311,0.980074 0.127919,0.571411 -1.248468,1.530107 -1.833688,1.346565 m -4.477098,-3.7225 c -0.05181,0.228084 -0.139429,0.399153 -0.181002,0.65338 -0.13751,0.835139 0.606966,1.407748 1.460172,1.484962 0.198273,0.01783 0.596694,-0.043 0.746997,-0.04885 0.160537,-0.0056 0.299326,0 0.447711,0 M 5.5834109,66.459164 C 5.5293662,65.982194 5.165442,65.396527 5.071743,64.914802 5.0478237,64.791849 5.0016441,64.743732 4.9545068,64.617808 4.8848559,64.431888 4.8553076,64.253695 4.7839297,64.08322 4.6416858,63.743468 4.5358984,63.448851 4.3894975,63.132846 4.1857895,62.693294 4.1040507,62.147422 3.7925728,62.063671 M 8.333627,66.16217 c 0.2299946,0.04514 0.3059135,0.199581 0.5756266,0.237594 0.6363233,0.09027 1.2320974,-0.462715 1.4283854,-1.009775 0.08039,-0.223932 0.143651,-0.333818 0.08532,-0.593979 -0.117747,-0.525087 -0.5757538,-0.880293 -1.1299544,-1.108971 -0.1581054,-0.06538 -0.2922264,-0.130085 -0.4477095,-0.138407 -0.1210095,-0.0065 -0.1983993,0 -0.3197926,0 -0.3963509,0 -0.7809335,0.228093 -1.1512531,0.237594 -0.1841368,0.0046 -0.3877167,0.03148 -0.5116682,-0.178193 -0.129516,-0.219177 -0.09824,-0.590422 -0.021299,-0.831582 0.025647,-0.08015 -0.018889,-0.365032 0.062019,-0.417894 0.1347606,-0.08851 0.2258939,-0.08201 0.4296018,-0.09269 0.2193139,-0.01133 0.3519073,0.01811 0.5830534,-0.05907 0.1705774,-0.05702 0.3224359,-0.02313 0.4816287,-0.06408 0.2969595,-0.07662 0.6677268,-0.12533 0.9593776,-0.178202 0.3062974,-0.05526 0.5240761,0.0093 0.8314613,0.0992 m 6.251749,3.797911 c 0.236007,0 1.080647,0.02972 1.295355,-0.105103 0.518894,-0.326685 0.189189,-1.070949 -0.149215,-1.435656 -0.248672,-0.267888 -0.653401,-0.51202 -1.002038,-0.534587 -0.152861,-0.01012 -0.285383,-0.04458 -0.44771,-0.05944 -0.470414,-0.04272 -0.861073,-0.0019 -0.948696,-0.534588 -0.04944,-0.30056 0.04963,-0.52687 0.05328,-0.772181 0.0043,-0.291654 0.165397,-0.485291 0.319793,-0.772181 0.08372,0.03269 0.17499,0.05582 0.319793,0.05944 0.14736,0.0037 0.386757,0.05702 0.575626,0.05944 0.504185,0.0065 0.864079,-0.05944 1.343128,-0.05944 0.390595,0 0.805686,0.01133 1.087295,0.05944 m -6.076058,4.009399 c 0.220976,0.07133 0.53546,-0.197798 0.692862,-0.33679 0.412341,-0.364112 0.883139,-0.725847 0.906101,-1.237273 0.009,-0.198987 0.0013,-0.30056 -0.06396,-0.475187 -0.172112,-0.460337 -0.591936,-1.107782 -1.151253,-1.237273 -0.196608,-0.04579 -0.390595,-0.03919 -0.575626,0.108697 -0.09523,0.07606 -0.100672,0.136614 -0.127918,0.237594 -0.03159,0.117018 -0.09191,0.274426 -0.117236,0.415795 -0.122736,0.683675 -0.162647,1.488528 0.06396,2.138342 0.05373,0.153841 0.18401,0.324911 0.373071,0.386095 m 9.529819,-0.386095 c 0,-0.710998 0.04675,-1.677411 0.245151,-2.375935 0.06115,-0.215026 0.13553,-0.327884 0.1386,-0.534588 0.0031,-0.206119 0.08282,-0.260171 0.0213,-0.415796 -0.05532,-0.139586 -0.184394,-0.168692 -0.277133,-0.178192 -0.162776,-0.01662 -0.397566,0.08136 -0.575626,0.138397 -0.388421,0.12533 -0.846044,0.275021 -1.215214,0.346894 -0.249374,0.04811 -0.408949,0.108697 -0.703542,0.108697 m 8.12273,2.79173 c 0.234984,0.155031 0.317361,0.109292 0.575626,0.06947 0.725098,-0.112263 1.30501,-0.335006 1.566984,-0.960478 0.08442,-0.201355 0.141795,-0.40688 0.07464,-0.593988 -0.205628,-0.5726 -0.956756,-1.017493 -1.513708,-1.168363 -0.156186,-0.04216 -0.276555,-0.09979 -0.447709,-0.148501 -0.369233,-0.104537 -0.549594,-0.06417 -0.895417,-0.28689 -0.287943,-0.185325 -0.259801,-0.428268 -0.09594,-0.653389 0.124145,-0.170475 0.384902,-0.288673 0.543648,-0.415786 0.2346,-0.187703 0.737569,-0.415787 0.959378,-0.415787 M 39.545385,60.04418 c -0.277709,0.188883 -0.190405,0.637935 -0.255835,0.950374 -0.07291,0.348083 -0.186695,0.305316 -0.191875,0.653389 -0.0028,0.188883 -0.10374,0.481716 -0.127918,0.712781 -0.03025,0.288673 0.120308,0.516765 0.127918,0.772181 0.01477,0.494792 0.356761,1.136888 0.895419,1.366169 0.159194,0.0677 0.34493,0.125925 0.51167,0.108697 0.148639,-0.01486 0.222576,-0.04931 0.383751,-0.08906 0.239204,-0.05823 0.45826,-0.181165 0.522348,-0.375991 0.04125,-0.125331 -0.01068,-0.212054 -0.01068,-0.356395 0,-0.175221 0.02374,-0.229867 0.09594,-0.415786 0.05187,-0.133652 0.03921,-0.225716 0.09593,-0.356395 0.123119,-0.283918 0.326381,-0.558939 0.639587,-0.534588 0.62238,0.04811 0.59104,0.71813 0.309111,1.069175 -0.327277,0.40688 -0.681926,0.616259 -1.140571,0.616259 m -8.318488,0.0096 c -0.04413,-0.222743 0.01431,-0.443434 0.0039,-0.566396 m 18.228175,-0.593979 c -0.066,-0.29106 -0.101525,-0.585974 -0.06008,-0.98157 0.01593,-0.152058 0.01122,-0.415489 0.0068,-0.562793 -0.0058,-0.192457 -0.03242,-0.327288 -0.01068,-0.534587 0.03102,-0.2964 0.133928,-0.953346 0.309111,-1.247368 0.14928,-0.250076 0.335844,-0.333827 0.50105,-0.534588 0.220465,-0.267888 0.638627,-0.719913 1.044634,-0.772181 0.278477,-0.03566 0.558679,0.08674 0.756823,0.257189 0.24496,0.210865 0.423595,0.605867 0.394431,0.930778 -0.03556,0.396191 -0.157784,0.582705 -0.405048,0.950383 -0.124911,0.185317 -0.205819,0.266096 -0.362455,0.415787 -0.290819,0.277983 -1.163533,0.830987 -1.598962,0.752576 -0.266131,-0.04811 -0.32216,-0.140181 -0.575626,-0.158597 m 4.477105,-2.613529 c -0.01975,0.232839 -0.05897,0.438949 -0.06396,0.772182 -0.0029,0.197203 -0.07592,0.277389 -0.117236,0.475187 -0.116022,0.554183 -0.213684,1.528917 0.138535,2.019549 0.572684,0.797721 1.801263,0.04458 2.281207,-0.178193 m -13.559205,0.05944 c -0.148304,-0.747236 -0.46669,-1.338252 -0.319839,-2.07895 h -0.703545 m 0.71331,9.01e-4 c 0.494847,0 1.384528,-0.09882 1.610496,0.47437 0.09107,0.231055 0.105658,1.052839 0.306488,1.165696 0.03911,0.09092 0.0043,-0.315113 0.375756,-0.195717 0.248991,0.188882 0.474636,0.445486 0.83146,0.514982 M 3.1529874,58.55916 c 0.028077,0.991358 1.1806102,0.981857 2.0466725,0.791777 C 5.6392468,59.254717 6.2966123,59.012958 6.350913,58.55916 6.368567,58.411847 6.360443,58.267515 6.265657,58.153469 6.0106538,57.845785 5.5665259,57.569575 5.2636185,57.311792 4.6271673,56.770666 3.9118554,56.285978 3.2596064,55.836925 2.9251034,55.606455 2.52031,55.422318 2.1936098,55.173441 1.8899348,54.942386 1.483971,54.678054 1.3834664,54.282468 c -0.078202,-0.307693 0.00288,-0.623689 0.1918756,-0.821487 0.1518569,-0.159786 0.5356336,-0.449647 0.8101433,-0.485291 0.8338912,-0.107509 1.8080433,0.422918 2.3664651,0.890982 0.3217753,0.269671 0.5162732,0.360546 0.7035437,0.653389 M 9.0051914,58.915555 8.973212,57.846379 8.7173781,56.361408 8.5894609,55.826821 c 0.1364876,-0.09027 0.1873347,-0.09092 0.3837511,-0.118792 0.087239,-0.01245 0.166356,-0.05823 0.2558342,-0.08906 0.5225408,-0.179976 1.0616478,-0.218583 1.5989628,-0.267294 0.261398,-0.02378 0.359894,-0.06055 0.639585,-0.01012 0.301437,0.05461 0.703544,0.247689 0.703544,0.247689 0,0 0.373773,-0.490632 0.703543,-0.583884 0.381449,-0.108707 0.776932,0.09693 0.927106,0.269179 0.189189,0.217403 0.219269,0.253549 0.277424,0.403796 0.06903,0.178342 0.07464,0.379557 0.07464,0.564288 0,0.392039 -0.06396,1.009775 -0.06396,1.009775 0,0 -0.384966,0.231065 -0.607606,0.524492 -0.231018,0.304712 -0.591872,0.663485 -0.927398,0.663485 -0.458967,0 -0.62238,-0.484103 -0.639585,-0.772181 -0.01,-0.166315 -0.05315,-0.234631 -0.06396,-0.415796 -0.01228,-0.205516 0.04247,-0.295796 0.06396,-0.475187 0.03409,-0.285107 0.124,-0.88672 0.255834,-1.19354 m 2.57386,2.860001 C 14.344203,58.19788 14.144118,57.419216 14.072933,57.257647 m 3.02301,1.004528 c -0.202172,-0.254821 -0.214516,-0.55241 -0.277132,-0.831582 -0.0401,-0.178787 -0.103102,-0.389067 -0.170577,-0.593988 -0.04944,-0.150276 -0.04726,-0.276201 -0.06396,-0.415787 -0.07067,-0.590422 -0.293312,-1.167182 -0.39443,-1.781955 -0.07304,-0.444308 -0.231977,-1.169561 -0.181195,-1.425571 m 12.663789,-0.415786 c 0.05373,-0.189486 0.402619,-0.802476 0.05328,-1.108971 -0.265812,-0.232848 -0.578249,-0.10514 -0.820781,0.02972 -0.47873,0.2667 -0.901303,0.880887 -1.108594,1.376274 -0.390276,0.931958 -0.338914,1.795023 -0.234534,2.791731 0.04841,0.46212 0.365906,1.299041 0.959378,1.306768 0.253338,0.0037 0.443487,-0.03028 0.639584,-0.118801 0.317233,-0.143152 0.846556,-0.333818 1.151253,-0.475187 m 4.924806,0.534588 c 0.632228,0 1.516647,-0.554193 1.257872,-1.306769 -0.159195,-0.462714 -0.650206,-0.897512 -1.02334,-1.177872 -0.151453,-0.114047 -0.347933,-0.123548 -0.362452,-0.36649 -0.0234,-0.390841 0.511541,-0.797721 0.83146,-0.890974 m -16.117543,0.534579 c -0.359703,0.373622 -0.922245,0.779081 -1.220739,1.194877 -0.168723,0.235216 -1.057898,0.933285 -1.057898,0.933285 0,0 2.035466,0.595855 2.470512,0.792465 0.117492,0.05284 0.191683,0.09027 0.319792,0.108706 0.454938,0.06473 0.647644,0.05944 0.959378,0.05944 m 12.663785,-0.296994 c -0.555991,0 -0.557526,-0.305901 -0.746203,-0.712781 -0.04835,-0.104536 -0.115203,-0.175815 -0.127918,-0.296985 -0.02705,-0.258387 0.106619,-0.463912 0.106619,-0.71279 0,-0.317778 0.418855,-0.545574 -0.159894,-1.187967 -0.550385,-0.61091 -1.063057,0.0143 -1.311152,0.475187 -0.06415,0.119386 -0.04963,0.177598 -0.06396,0.296994 -0.02603,0.217988 -0.102205,0.547655 -0.149215,0.772181 -0.06799,0.324912 -0.180107,1.043042 0.213173,1.217668 0.30681,0.13602 0.729895,-0.157408 0.924713,-0.371236 0.205499,-0.219056 0.289143,-0.222362 0.446398,-0.430645 M 6.7986264,56.539685 C 6.945603,56.514702 7.165876,56.375153 7.4382114,56.262296 7.61608,56.189206 7.8847698,56.050242 8.0777965,55.985501 8.3205191,55.904146 8.427074,55.886305 8.5894645,55.767504 8.4705017,55.58515 8.4188871,55.410524 8.3975891,55.054723 8.388959,54.910382 8.311757,54.789212 8.2803532,54.638937 8.2107663,54.306893 8.1777636,54.099594 8.0990948,53.807355 7.9714975,53.333347 7.7250014,52.805298 7.6940454,52.441185 m 29.1650756,3.801506 c 0.02195,-0.244847 0.147133,-0.695024 0.269372,-0.865035 0.09052,-0.150758 0.47238,-0.579714 0.785944,-0.788025 0.08539,-0.05674 0.162838,-0.100979 0.287812,-0.118792 0.202686,-0.02907 0.359641,0.01421 0.511669,0.09859 0.459796,0.256604 0.765518,1.095913 0.89542,1.554466 m 6.715644,-5.583461 c -0.154332,-0.201958 -0.32267,-0.247103 -0.575627,-0.237602 -0.428522,0.01662 -0.957395,0.433617 -1.268489,0.722885 -0.324142,0.300551 -0.432233,0.651596 -0.671566,0.999679 -0.138597,0.201355 -0.297854,0.47281 -0.362451,0.712781 -0.200576,0.744858 -0.325741,1.359037 -0.255836,2.13835 0.152799,1.70295 1.996083,1.133917 3.070009,0.950374 m -25.199652,0.05944 c 0.427626,-0.397379 0.71333,-0.820892 1.407086,-0.738775 -0.269019,0.51644 -0.929375,0.504246 -1.407086,0.738775 v 0.593979 c 0,0.187703 -0.02533,0.362933 0.01068,0.534588 0.04349,0.207902 0.346658,0.560127 0.564948,0.633784 0.378703,0.127113 1.045341,-0.197204 1.343132,-0.277389 m 27.438192,-3.139275 c 0.253023,-0.37183 0.599931,-0.863595 1.087296,-1.127322 0.288069,-0.15622 0.559446,-0.199581 0.735524,0.168097 0.201851,0.421731 -0.56661,0.724659 -0.863441,0.901078 -0.409335,0.242934 -0.567056,0.308278 -0.959379,0.04931 -0.142111,0.161569 -0.27323,0.313033 -0.341089,0.475187 -0.03914,0.09326 -0.07662,0.188892 -0.09593,0.296994 -0.04388,0.244132 -0.05443,0.596366 0.127914,0.752585 0.227181,0.194232 0.503547,0.122359 0.756823,0.07903 m -3.581677,0 c 0,-0.373613 -0.218484,-0.700902 -0.117235,-1.009774 0.08212,-0.250661 0.16615,-0.307628 0.271937,-0.543439 0.06082,-0.135435 0.286548,-0.380801 0.420924,-0.525737 0.398142,-0.429448 0.985282,-0.65338 1.471046,-0.65338 m -12.383971,2.736045 -0.08925,-0.612553 -0.190568,-1.113717 -0.127915,-1.247368 -0.191874,-0.950383 m 19.315469,3.326318 c -0.0025,-0.08795 -0.191874,-0.821478 -0.191874,-0.821478 0,0 -0.282698,0.13068 -0.38375,0.227499 -0.25398,0.242933 -1.147927,1.268747 -1.598965,1.039465 -0.226668,-0.115225 -0.191876,-0.318967 -0.191876,-0.504878 0,-0.193052 -0.01823,-0.301154 0,-0.475196 0.01484,-0.141369 0.04579,-0.230461 0.08526,-0.356385 0.217523,-0.692591 0.846746,-1.343008 1.705581,-1.098876 l 0.447708,0.02972 m 8.12273,1.663154 c 0.226415,-0.04458 0.802041,-0.191854 1.151253,-0.356385 0.207866,-0.09801 0.315957,-0.257793 0.266709,-0.475187 -0.05629,-0.247104 -0.289738,-0.325506 -0.522547,-0.415796 -0.177163,-0.06835 -0.307,-0.05405 -0.511668,-0.0992 -0.251356,-0.05461 -0.656854,-0.140181 -0.692669,-0.435392 -0.01407,-0.116414 0.02878,-0.209676 0.08506,-0.296985 0.155419,-0.241159 0.531496,-0.424107 0.79948,-0.534587 0.225774,-0.09326 0.384392,-0.159192 0.639588,-0.178202 M 47.156437,54.75784 C 46.843872,54.442439 46.62245,53.99516 46.452895,53.451072 m 11.000863,1.306768 -0.06396,-1.247368 m 2.942091,1.247368 -0.191875,-1.069175 -0.05282,-0.463439 0.628445,-0.07114 1.407087,-0.05944 m -6.648135,1.347121 0.124369,-1.881709 C 55.62176,52.215003 55.535,52.012998 55.535,51.787877 m 3.45376,1.722555 0.639584,-0.178193 0.447711,-0.118801 m 0,0 c 0,-0.375397 -0.183563,-0.968196 0.03198,-1.544362 0.103612,-0.276201 0.159896,-0.539343 0.159896,-0.831582"
       id="path1858"
       sodipodi:nodetypes="cccscccccsccccccccccccccccccscccsccccscccccccccccccccccccccccccscsccccccccccscccccccccccccscscccscccscccccccccccccccccccccccccaccscccsccscccccccscccaaacccccccccccsccccccccscccccccccccscccccccccccscccccccsscccscccccccccsccccsccsccccccccccccccccccccccscscccccccccccccccccsccsscccccccccccccccccccccsccsccccsccccccscscccccccccccccccacccsccccsccccccccccsssccccccscccccccccsccccccccccccccccccccsccccsccsccccccccccccsccccccsccccscccccccccccccccccccccccccccccscccsccccccccccsccsccccssscccsccccccccccccccccccccccccacccccccccccccsccccscccccccccsccccccccccsccccccccccsccccccccccccccccccccccccccsccccccsccccccccccccsccccccccscccccccaccccccaccccccccccsccccccccccccccccsccacccccccccccccsccccccccccccccaccccsccccccccccccccccccccccccccsccccccccccscccccccccccccccccccsccsccccccccccccccccccccccccccccsccccccsccccccccsccccccscccccscsccccccccccccccccccccccccccccccccasccscccccccsccccccccccccccccccccccccccssccccccccccscscccacccccccccccccsccccccccccccccccccccccccccscccccccccccccccccccccccscccccccc" />
    <path
       d="m 255.28318,87.284197 0.27925,0.827233"
       style="fill:none;stroke:#7180b0;stroke-width:0.264583"
       id="path1868"
       sodipodi:nodetypes="cc" />
  </g>
</svg>
