<?xml version="1.0" encoding="UTF-8" standalone="no"?>
<!-- Created with Inkscape (http://www.inkscape.org/) -->

<svg
   width="3000"
   height="1998.207"
   viewBox="0 0 793.74998 528.69228"
   version="1.1"
   id="svg202"
   inkscape:version="1.2.1 (9c6d41e410, 2022-07-14)"
   sodipodi:docname="MonicaG - Stake - Envelop19.svg"
   xmlns:inkscape="http://www.inkscape.org/namespaces/inkscape"
   xmlns:sodipodi="http://sodipodi.sourceforge.net/DTD/sodipodi-0.dtd"
   xmlns="http://www.w3.org/2000/svg"
   xmlns:svg="http://www.w3.org/2000/svg">
  <sodipodi:namedview
     id="namedview204"
     pagecolor="#ffffff"
     bordercolor="#000000"
     borderopacity="0.25"
     inkscape:showpageshadow="2"
     inkscape:pageopacity="0.0"
     inkscape:pagecheckerboard="0"
     inkscape:deskcolor="#d1d1d1"
     inkscape:document-units="mm"
     showgrid="false"
     inkscape:zoom="0.7071068"
     inkscape:cx="482.95392"
     inkscape:cy="217.78888"
     inkscape:window-width="1366"
     inkscape:window-height="705"
     inkscape:window-x="-8"
     inkscape:window-y="-8"
     inkscape:window-maximized="1"
     inkscape:current-layer="layer1"
     showguides="true" />
  <defs
     id="defs199">
    <pattern
       id="EMFhbasepattern"
       patternUnits="userSpaceOnUse"
       width="6"
       height="6"
       x="0"
       y="0" />
    <pattern
       id="EMFhbasepattern-0"
       patternUnits="userSpaceOnUse"
       width="6"
       height="6"
       x="0"
       y="0" />
    <pattern
       id="EMFhbasepattern-7"
       patternUnits="userSpaceOnUse"
       width="6"
       height="6"
       x="0"
       y="0" />
    <pattern
       id="EMFhbasepattern-1"
       patternUnits="userSpaceOnUse"
       width="6"
       height="6"
       x="0"
       y="0" />
    <pattern
       id="EMFhbasepattern-3"
       patternUnits="userSpaceOnUse"
       width="6"
       height="6"
       x="0"
       y="0" />
    <pattern
       id="EMFhbasepattern-5"
       patternUnits="userSpaceOnUse"
       width="6"
       height="6"
       x="0"
       y="0" />
    <pattern
       id="EMFhbasepattern-33"
       patternUnits="userSpaceOnUse"
       width="6"
       height="6"
       x="0"
       y="0" />
    <pattern
       id="EMFhbasepattern-4"
       patternUnits="userSpaceOnUse"
       width="6"
       height="6"
       x="0"
       y="0" />
    <pattern
       id="EMFhbasepattern-11"
       patternUnits="userSpaceOnUse"
       width="6"
       height="6"
       x="0"
       y="0" />
    <pattern
       id="EMFhbasepattern-6"
       patternUnits="userSpaceOnUse"
       width="6"
       height="6"
       x="0"
       y="0" />
    <pattern
       id="EMFhbasepattern-34"
       patternUnits="userSpaceOnUse"
       width="6"
       height="6"
       x="0"
       y="0" />
    <pattern
       id="EMFhbasepattern-69"
       patternUnits="userSpaceOnUse"
       width="6"
       height="6"
       x="0"
       y="0" />
    <pattern
       id="EMFhbasepattern-8"
       patternUnits="userSpaceOnUse"
       width="6"
       height="6"
       x="0"
       y="0" />
    <pattern
       id="EMFhbasepattern-46"
       patternUnits="userSpaceOnUse"
       width="6"
       height="6"
       x="0"
       y="0" />
    <pattern
       id="EMFhbasepattern-14"
       patternUnits="userSpaceOnUse"
       width="6"
       height="6"
       x="0"
       y="0" />
    <pattern
       id="EMFhbasepattern-08"
       patternUnits="userSpaceOnUse"
       width="6"
       height="6"
       x="0"
       y="0" />
    <pattern
       id="EMFhbasepattern-89"
       patternUnits="userSpaceOnUse"
       width="6"
       height="6"
       x="0"
       y="0" />
    <pattern
       id="EMFhbasepattern-85"
       patternUnits="userSpaceOnUse"
       width="6"
       height="6"
       x="0"
       y="0" />
    <pattern
       id="EMFhbasepattern-37"
       patternUnits="userSpaceOnUse"
       width="6"
       height="6"
       x="0"
       y="0" />
    <pattern
       id="EMFhbasepattern-82"
       patternUnits="userSpaceOnUse"
       width="6"
       height="6"
       x="0"
       y="0" />
  </defs>
  <g
     inkscape:label="Layer 1"
     inkscape:groupmode="layer"
     id="layer1">
    <path
       style="fill:none;stroke:#8a7fa0;stroke-width:0.0847122"
       d="m 81.230328,65.063884 c -0.05222,-1.227121 -0.329227,-2.785713 -0.627723,-4.023899 -0.0624,-0.258871 -0.210239,-0.541969 -0.2283,-0.754479 -0.02218,-0.260296 0.160503,-0.408596 0.42801,-0.475073 0.573966,-0.142512 1.463802,0.251158 1.968856,0.642734 0.856025,0.663356 1.833605,1.821821 1.512597,2.85026 -0.349259,1.119148 -3.003493,2.431105 -3.003493,2.431105 0,0 -0.04104,-0.461062 -0.04995,-0.670648 z m 6.111824,-3.652718 c 0,0.531237 -0.119652,1.455166 -0.119652,1.976093 0,0.153159 -0.0231,0.267757 -0.01456,0.419155 0.01027,0.182584 0.0779,0.38839 0.128402,0.586819 0.204591,0.800302 0.771279,1.396359 1.170185,0.335324 m 11.470729,0.670651 c -0.03424,-0.427656 0,-0.960791 0,-1.425131 m -10.186691,1.341299 c -0.259377,-0.803355 -0.337273,-1.68769 -0.428013,-2.598768 -0.09587,-0.967662 0.0856,-2.032067 0.0856,-3.017921 m -2.225663,1.124624 c -1.078341,-0.279768 -1.546837,2.300298 -1.626447,3.234598 -0.02825,0.327695 -0.239687,0.955432 0.256807,1.13172 0.384357,0.136528 0.979433,-0.609003 1.097564,-0.868879 0.09245,-0.204296 0.152679,-0.314698 0.266529,-0.429128 m 6.340126,1.200201 c 1.227519,0.02181 1.075393,-1.292455 1.112834,-1.788396 0.04023,-0.407251 0.0856,-0.807965 0.0856,-1.173635 0,-0.364751 0.05222,-1.494124 -0.513613,-1.578793 -0.428869,-0.06421 -0.610347,0.700994 -0.713069,0.991974 -0.321866,0.907304 -0.614627,2.120007 -0.385211,3.017923 0.05051,0.19826 0.194316,0.467492 0.413458,0.530927 m 14.124413,-0.02794 -0.17121,-1.592794 v -3.353247 l -0.0856,-1.173638 -0.10016,-0.391239 -0.58466,-0.0139 -1.62645,0.321326 m -10.503689,5.221177 c 0.318441,0.394927 0.431704,0.898499 1.087419,0.898499 m 1.626447,-0.251495 c 0.650578,0.452807 1.077734,-0.367347 0.770422,-1.089804 -0.356108,-0.837726 -1.282325,-1.571585 -1.440689,-2.431104 -0.129262,-0.697561 0.386921,-1.005975 1.012676,-1.005975 m -5.649762,4.526883 c -0.703652,-1.377682 -0.621473,-3.539017 -0.684819,-5.02987 -0.01968,-0.46409 -0.08817,-0.706027 0,-1.173638 m 19.602965,6.203508 c 0.25602,-1.102033 0.26649,-2.869054 0.41345,-3.60474 l 0.13456,-0.532649 0.32256,-0.72482 0.4731,-1.262888 m 6.78856,4.532306 c 0.16008,-0.541549 0.15922,-1.122583 0.28505,-1.676625 0.20459,-0.899006 0.6035,-1.75333 0.65658,-2.682597 0.0197,-0.345134 0.28677,-1.060382 -0.10016,-1.299385 -0.32272,-0.199854 -0.82093,0.0788 -1.09828,0.195578 -0.73789,0.31135 -1.50061,0.789606 -2.31126,0.852312 m 15.92205,4.275391 c -0.0625,-0.774683 -0.18832,-1.612827 -0.19945,-2.431105 -0.006,-0.42016 -0.0574,-0.950225 -0.0574,-1.42513 0,-0.722624 0.22942,-1.636888 0.59922,-2.095778 m 1.96886,5.490941 c 0.42202,0.232296 1.15477,-0.321575 1.45524,-0.558901 1.04092,-0.82096 1.37734,-2.734574 0,-3.40908 -0.25595,-0.12558 -0.47681,-0.101856 -0.77042,-0.09783 -0.23712,0.0032 -0.41432,-0.03353 -0.58467,0.111746 -0.29618,0.251745 -0.19004,0.881989 -0.29961,1.313384 -0.15922,0.622698 -0.58723,2.207275 0.19946,2.640681 m -13.52519,-0.293408 c 0.90311,0.605261 2.20598,-0.371625 2.45422,-1.341298 0.0933,-0.365925 0.0231,-0.769236 -0.18575,-1.089807 -0.28249,-0.433574 -0.90568,-0.483538 -1.32684,-0.363241 -0.29533,0.08433 -0.40062,0.145196 -0.68482,0.02792 0.16179,-0.546245 0.0531,-1.076897 0.59922,-1.494963 0.32614,-0.249228 0.57182,-0.06262 0.94162,-0.09783 0.65914,-0.06279 1.22241,-0.284272 1.88325,-0.335324 m 0.17121,1.760454 c 0.45541,-0.446318 1.09999,-1.046381 1.71205,-1.229552 0.32871,-0.09833 0.6249,0.03311 0.82778,0.307409 0.23112,0.312355 0.29019,0.791366 0.1712,1.173636 -0.2414,0.771919 -1.08373,1.510556 -1.5982,2.09578 -0.42373,0.482364 -0.51361,0.754482 -0.51361,0.754482 -0.1809,0.154223 2.00108,-0.254055 3.16729,-0.419158 m -18.40453,-2.413561 c 0.0976,0.453695 0.24429,1.433949 0.84775,2.156393 0.79607,0.908215 0.87029,1.870835 1.72033,2.352949 M 130.62288,57.2676 c -0.67112,0.832779 -0.77213,2.200736 0.17121,2.906175 0.53244,0.398368 0.95446,0.195578 1.36964,0.195578 m -24.84741,-1.801724 c 0.71392,-0.428484 1.61212,-0.526486 2.50517,-0.545549 M 81.743938,53.746671 C 80.932086,52.068205 81.577784,49.455186 80.3743,47.962319 m 4.622532,4.526885 c 0.361242,0.482532 0.845751,0.170932 1.284035,0.02792 0.640307,-0.208907 1.392753,-0.552027 1.36964,-1.369213 -0.03167,-1.101963 -1.295165,-1.514412 -1.968856,-1.844288 0.179764,-0.352509 0.655715,-0.756911 0.470814,-1.257467 -0.405757,-1.101039 -1.74201,-0.231459 -2.097261,0.502987 m 5.56416,3.940066 c -0.591515,-1.157877 -0.728477,-3.437918 -1.284038,-4.526885 m 7.019401,4.526885 c -0.311593,-0.724973 -0.151517,-1.581056 -0.271361,-2.347273 -0.13782,-0.885762 -0.438284,-2.32464 -0.584664,-3.101755 m -2.568073,5.25345 c 0.795246,0.259709 1.67524,-1.084693 1.712048,-1.732539 0.02483,-0.443217 -0.153228,-0.984597 -0.370659,-1.341299 -0.303889,-0.497372 -1.248084,-1.53889 -1.855004,-1.662623 -0.640307,-0.130778 -0.481942,0.788599 -0.513615,1.159636 -0.0779,0.919125 0.0642,2.001217 0.41346,2.850261 0.123268,0.299025 0.268791,0.613979 0.61377,0.726564 m 11.556331,-1.061891 -0.55642,-3.101753 -0.29961,-0.838311 -0.0856,-1.173638 m 4.70814,4.107728 c -0.0111,-0.414628 -0.16522,-0.942931 -0.17121,-1.341299 -0.003,-0.221901 -0.13354,-0.54574 -0.071,-0.75448 0.0685,-0.231039 0.18669,-0.466319 0.29969,-0.668352 0.27906,-0.49737 0.58287,-1.073325 1.3122,-1.092102 m 2.99609,3.437077 c 0.1635,0.269602 0.29276,0.3593 0.59922,0.405157 0.35696,0.0534 0.91423,-0.19759 0.85602,-0.656649 -0.095,-0.743835 -0.99984,-1.188224 -1.39789,-1.760455 -0.19774,-0.283685 -0.19431,-0.602411 0.11385,-0.824312 0.19175,-0.138407 0.3544,-0.09783 0.59922,-0.09783 m 2.82488,3.185587 -0.48536,-2.598768 -0.15666,-0.419156 -0.0428,-0.502987 -0.24225,-1.42513 -0.10016,-1.005975 m -29.53284,5.868184 c 0.388637,-0.270606 0.725534,-0.592065 1.049967,-0.659047 m 32.078183,0.463469 c 0.44684,0.110909 1.00154,-0.548171 1.21298,-0.894228 0.11899,-0.195998 0.15665,-0.351921 0.15665,-0.586816 0,-0.523191 -0.45198,-1.334594 -0.94162,-1.481047 -1.02809,-0.307577 -1.04949,1.533355 -0.87058,2.235526 0.0728,0.283935 0.10358,0.642399 0.44257,0.726565 m -8.23328,0.0026 c -0.34525,-0.144236 -0.31014,-0.415258 -0.39802,-0.645284 l 0.12841,-0.922143 0.2277,-0.922143 c 0.15694,-0.228945 0.129,-0.557444 0.65657,-0.586819 0.25424,0.591262 -0.23626,1.27373 -0.77042,1.42513 m 11.38512,1.089806 -0.29961,-1.159636 -0.21677,-0.42731 -0.68205,-1.850133 m 3.93771,3.269416 c -0.57439,-0.712229 -0.65914,-2.607736 -1.62645,-2.976007 -0.59408,-0.226344 -1.01353,1.207924 -1.11283,1.467045 -0.0719,0.187027 -0.21098,0.337688 -0.30943,0.460082 m -17.32467,0.797385 c 0.82949,-0.06413 1.50489,-1.006057 1.8687,-1.760454 0.33813,-0.701416 0.39891,-1.48004 -0.0137,-2.17961 -0.24397,-0.413288 -0.72591,-0.706699 -1.17018,-0.894228 -1.01696,-0.428796 -2.44395,0.327865 -2.56808,1.481045 m 28.42001,3.269418 c -0.24824,-0.838731 -0.44941,-2.094019 -0.41346,-2.934092 0.0111,-0.259708 -0.0146,-0.342703 -0.0146,-0.586819 0,-0.384199 0.0856,-1.026177 0.0856,-1.42513 m -22.3257,4.349805 -0.1824,-0.610475 -0.26215,-0.805238 m 22.77025,-1.005974 c 0.43143,0.04451 0.61719,0.553201 0.94162,0.922143 0.54358,0.618589 1.44925,1.351611 2.14007,1.173637 m 1.11283,-3.856235 c 0,0.422257 -0.0351,0.541045 0.0573,0.922143 0.18576,0.77175 0.84918,2.278113 0.62747,2.766429 0.84318,-0.08383 2.17772,-1.035651 2.14006,-1.928117 -0.0394,-0.920634 -1.01182,-1.943291 -1.79765,-2.40319 -0.44,-0.257278 -1.18645,-0.49804 -1.36964,0.05592 m -19.6029,4.02388 c 0.47766,-0.172271 0.64886,-0.312689 0.98442,-0.377236 0.56069,-0.135303 0.8603,-0.284185 1.58364,-0.209574 m 25.93755,-0.754488 c -0.47766,0.772923 0.1421,1.0157 0.85603,1.005974 0.54956,-0.0074 1.47236,-0.560998 1.7694,-1.005974 0.22171,-0.332978 0.17035,-0.859354 0.0137,-1.173636 -0.40576,-0.81811 -1.02552,-1.506865 -1.7831,-2.039866 -0.32957,-0.232044 -0.56669,-0.563932 -0.17121,-0.866311 0.34327,-0.262475 0.7105,-0.295839 1.11283,-0.279409 0.24397,0.01 0.47339,0.07754 0.68482,0.209579 0.14467,0.09045 0.24483,0.313276 0.42802,0.335324 m 0.51361,-0.09783 c 0.1986,-0.03781 0.29447,-0.0019 0.51362,-0.0139 0.19089,-0.01038 0.28077,-0.07981 0.42801,-0.09783 0.35525,-0.04351 0.60692,0.01107 0.94162,-0.08383 m -0.68483,5.113689 c 0.0257,-0.969256 0.0377,-2.200735 -0.19945,-3.185584 -0.14895,-0.616161 -0.1093,-1.302486 -0.29762,-1.740336 m 3.01683,2.128051 c 0.0625,0.16498 -0.0459,0.580367 -0.0373,0.78592 0.024,0.561586 0.0839,1.372989 0.68482,1.73254 0.46825,0.280416 1.65298,-0.24705 1.96886,-0.47507 m 5.39295,0.16766 c -0.33385,-1.13063 -0.34241,-2.660717 -0.34241,-3.772403 0,-0.429801 -0.0548,-0.781137 0.0856,-1.257467 m -27.13597,4.526883 c 0.47937,-0.43215 1.56396,-1.04856 1.62645,-1.928117 0.0377,-0.534256 -0.48622,-1.01729 -0.94163,-1.271466 -0.35867,-0.200023 -0.62747,-0.318979 -1.02723,-0.237494 -0.47595,0.09708 -0.74988,0.315036 -1.11283,0.670648 m 30.73128,2.6826 c 0,-1.736228 -0.0865,-3.287358 -0.17121,-4.862209 m 1.6547,1.760454 c -0.0334,0.168418 -0.0214,0.253674 -0.0283,0.419155 -0.0128,0.294416 -0.11557,0.620017 -0.12841,0.922143 -0.0171,0.401469 0.0608,1.154859 0.38521,1.508962 0.70451,0.768816 2.20256,-0.381935 2.55352,-1.089806 0.14039,-0.282931 0.11386,-0.592014 0.10016,-0.922143 -0.0103,-0.246212 -0.1344,-0.793882 -0.24226,-1.005974 -0.25937,-0.506759 -1.93536,-2.084163 -2.35658,-0.948442 -0.22005,0.388785 -0.21577,0.778599 -0.28339,1.116105 z m 7.76157,2.682597 c 1.71633,-0.132704 2.5441,-2.266878 0.59921,-2.822343 -0.43742,-0.124826 -1.4929,0.396688 -1.6838,-0.111747 -0.19003,-0.506006 0.15751,-1.364185 0.31417,-1.844288 0.0685,-0.209829 0.1284,-0.419658 0.34241,-0.47507 0.17976,-0.04661 0.3133,0.0477 0.51361,0.05591 0.74645,0.03043 1.42956,-0.03521 2.05446,0.335327 m 1.19843,4.233475 c 0.70023,0.393335 1.90209,-1.105567 2.09726,-1.63471 0.19946,-0.540292 -0.0882,-1.097265 -0.41346,-1.508961 -0.24482,-0.309671 -0.68396,-0.616076 -1.08458,-0.726565 -0.40576,-0.111832 -0.44599,0.404317 -0.52817,0.726565 -0.1986,0.778288 -0.24225,1.769425 -0.24225,2.431104 0,0.194489 -0.0805,0.571059 0.1712,0.712567 m 6.9338,-0.04192 c 0.31502,-1.066502 0.55813,-2.144486 0.94163,-3.185587 0.12327,-0.33348 0.42287,-0.994825 0.214,-1.341299 -0.107,-0.177806 -0.27649,-0.16766 -0.47081,-0.16766 -0.51533,0 -1.49462,0.372879 -1.96885,0.572817 M 75.837369,42.429462 c -0.636111,0.876788 0.803893,1.729773 1.540844,1.9002 0.432378,0.09993 0.889067,0.15752 1.36964,0.111749 1.124132,-0.107054 2.482212,-0.692951 2.98179,-1.760457 0.473467,-1.011589 -0.495639,-1.906237 -1.184139,-2.514936 -0.977752,-0.864467 -2.133128,-1.509464 -3.252894,-2.17961 -0.766569,-0.458808 -2.199469,-0.785498 -2.767783,-1.508962 -0.295415,-0.376065 -0.203476,-0.876791 0.199711,-1.14572 0.281717,-0.187867 0.854142,-0.18686 1.198434,-0.08383 1.154434,0.345469 1.931534,1.612157 2.653675,2.319358 m 73.104483,4.359222 c -0.59066,-0.304558 -1.23524,-0.4407 -1.96885,-0.167663 -0.51533,0.192057 -0.38778,0.601572 -0.48537,1.089806 -0.0514,0.260464 -0.0317,0.845773 -0.0283,1.089806 0.002,0.140081 -0.0291,0.286115 0.10016,0.37724 0.11042,0.07822 0.21571,0.05441 0.32785,0.02792 0.4186,-0.09867 0.74474,-0.207398 1.11283,-0.321325 M 87.564897,41.171992 c 0.644587,-0.132956 1.052911,-0.778036 1.355086,-1.42513 0.101868,-0.216201 0.08988,-0.856585 -0.327858,-0.712564 -0.471668,0.162633 -0.601785,0.690349 -0.784973,1.047891 -0.191749,0.375898 -0.255953,0.834118 -0.327858,1.173635 -0.122411,0.576591 0.07961,1.38791 0.599218,1.746456 0.435715,0.300534 1.159911,-0.04561 1.540844,-0.153663 M 81.658328,39.49537 c 0.842329,0.847282 0.953612,2.350961 1.626447,3.185584 0.336105,0.307388 0.243967,-0.523273 0.684819,-1.005974 0.427156,0.350332 0.579529,1.341301 1.284037,1.341301 0.451125,0 0.646298,-0.752973 0.684819,-1.089807 0.121557,-1.071194 -0.340696,-2.266292 -0.513615,-3.185586 m 5.290328,2.199213 c 0.03424,-0.420412 0.184804,-0.948451 0.459589,-1.444731 0.149804,-0.271948 0.677971,-0.917618 0.969875,-0.419156 0.229414,0.391408 -0.631746,1.390256 -0.898826,1.564876 -0.189182,0.123651 -0.300465,0.06782 -0.499061,0.27941 -0.267937,0.28469 -0.13782,0.503322 -0.100155,0.838311 0.05307,0.471552 0.236263,1.105399 0.770422,1.243469 0.221709,0.05742 0.339842,0.014 0.599216,0.014 m 5.392953,-1.928118 c 0,1.111349 1.212989,2.128054 2.225666,1.005972 0.332135,-0.367849 0.14809,-0.79673 -0.07105,-1.173635 -0.319297,-0.548844 -0.820928,-1.028357 -1.384193,-1.3273 -0.301318,-0.159949 -0.911665,-0.340187 -1.07003,-0.684649 -0.214005,-0.464508 0.5256,-0.502987 0.813224,-0.502987 m 67.112307,4.191559 1.28404,-0.08383 M 83.969594,41.67498 v -1.425131 m 9.587473,-0.251492 c -0.116418,0.309421 -0.171204,0.411444 -0.171204,0.75448 0,0.427204 0.04879,0.538701 0.282584,0.696187 0.153324,0.07818 0.319202,0.09283 0.573441,0.0583 0.148091,-0.02012 0.374083,-0.152071 0.513613,-0.237494 0.536728,-0.328285 1.154779,-0.887856 0.670267,-1.522963 -0.786684,-1.032715 -1.744014,0.70718 -1.827048,1.196336 -0.06601,0.310677 -0.0736,0.313466 -0.05621,0.64795 -0.04194,0.136228 0.01114,0.28947 0.01456,0.419158 0.01456,0.505416 0.145526,1.338532 0.256809,1.928117 m 12.531041,-3.002959 c -0.50241,-0.239787 -0.97884,-0.614411 -1.07487,-1.272433 -0.0582,-0.178141 -0.17549,-0.307157 -0.2277,-0.502985 -0.12926,-0.478509 0.0976,-1.553729 -0.52817,-1.802373 -0.28762,-0.11426 -0.76015,0.359386 -0.92707,0.544903 -0.44514,0.49251 -1.70521,2.433369 -0.61377,2.976008 0.28334,0.141003 0.71392,-0.257864 0.92707,-0.419156 0.57011,-0.429718 0.66,-0.91552 1.12739,-1.299382 m -4.19452,2.17961 c 0.43828,-0.708626 0.065,-1.505356 -0.0856,-2.263442 -0.0659,-0.330631 -0.10871,-0.596124 -0.24225,-0.838314 -0.0984,-0.177888 -0.0745,-0.203709 -0.11471,-0.419155 -0.0933,-0.509777 -0.2979,-1.31749 -0.484514,-1.844286 -0.09159,-0.257445 -0.100155,-0.377155 -0.100155,-0.670648 m 7.533019,5.700521 c -0.0281,-0.616389 0.0838,-0.912891 -0.0843,-1.849168 l -0.21534,-0.791516 c -0.0428,-0.563765 -0.35097,-1.097853 -0.45626,-1.718539 -0.0437,-0.255015 -0.0471,-0.390486 -0.10016,-0.67065 m 0.70629,2.940872 c 0.61805,0.175292 1.62552,0.999194 2.461,0.999194 m 64.88665,0.75448 c 0.36295,-0.243026 0.81579,-0.651367 1.28403,-0.586816 0.56243,0.167636 0.66053,1.041867 0.57098,1.341298 -0.16264,0.497622 -0.55727,1.042608 -0.84233,1.508962 -0.16778,0.275971 -0.4768,0.623452 -0.57011,0.922143 -0.0539,0.171266 -0.13354,0.424186 0.0711,0.558902 0.45369,0.298775 1.75913,-0.174286 2.39687,-0.223578 M 111.2768,38.27803 c 0.0274,-0.335491 0.22342,-0.708846 0.52817,-1.046097 0.14552,-0.161291 1.01268,-0.775105 1.01268,-0.167663 0,0.333397 -0.68055,0.881484 -0.94163,1.019973 -0.24226,0.128514 -0.3056,0.08442 -0.51362,0.167663 -0.22171,0.08853 -0.47851,0.408259 -0.51361,0.65665 -0.14809,1.043112 0.36295,1.423621 1.28403,1.257467 m 1.54085,-0.419156 c 0.68653,0.335996 2.33438,0.188621 1.7831,-0.922143 -0.3758,-0.75775 -1.46808,-1.104559 -1.84046,-1.760454 -0.22085,-0.389229 0.28335,-0.800169 0.65658,-0.754482 0.38349,0.04695 0.61205,0.411529 0.85602,0.67065 m -8.02657,1.665888 c 0.92505,-0.38871 1.50281,-0.89573 2.2056,-1.330564 m -10.272294,1.592794 c 0.493927,-0.471382 1.036654,-0.492507 1.498044,-0.586819 0.4537,-0.226092 0.94762,-0.335324 1.66925,-0.335324 m 17.29169,-4.610715 c 0.48965,1.30106 0.66514,2.705652 0.68483,4.107728 0.005,0.353935 0.15408,1.148654 0.42801,1.299382 0.34241,0.188537 0.84318,-0.149386 1.19843,-0.265493 0.90824,-0.296342 1.75827,-0.277146 2.65367,-0.530902 m 1.19844,0.67065 c -0.28591,-0.886599 -0.25681,-1.837496 -0.25681,-2.766431 m 3.5097,2.263444 c 0.0146,-0.18552 0.0128,-0.498544 0.0711,-0.656649 0.0719,-0.195496 0.21572,-0.251075 0.29961,-0.433157 0.14809,-0.320738 0.42887,-1.313384 0.91338,-1.313384 0.19945,0 0.30988,0.247637 0.38521,0.391241 0.29105,0.555131 0.42116,1.399897 0.47081,2.011949 m -3.6809,-0.335326 c 0,-0.249229 -0.018,-0.888778 0.0428,-0.991974 0.10272,-0.174787 0.11203,-0.271824 0.21133,-0.453653 0.0882,-0.161374 0.30314,-0.471088 0.60189,-0.356743 0.51447,0.19692 0.59455,1.111247 0.75292,1.479683 m 6.60889,0.238858 -0.0856,-2.095781 c -0.28663,-1.249617 -0.23364,-2.622121 -0.42801,-3.772403 m 7.53301,5.868184 c 0,-0.304811 -0.005,-0.495024 -0.0574,-0.754483 -0.0325,-0.165566 -0.0111,-0.243361 -0.0282,-0.419155 -0.0197,-0.195496 -0.0916,-0.292656 -0.14295,-0.502987 -0.0402,-0.169675 -0.0282,-0.327278 -0.0282,-0.502988 0,-0.309588 0.0924,-0.624541 -0.10016,-0.824312 -0.17634,-0.183841 -0.36723,-0.227434 -0.58466,-0.30741 -0.16864,-0.06195 -0.34156,-0.04904 -0.49907,0.06983 -0.68738,0.518328 -1.03835,1.761124 -0.95617,2.487019 0.13182,1.160979 1.30629,0.05172 1.56909,-0.335324 0.19945,-0.292823 0.36295,-0.467191 0.57097,-0.67065 m -10.01549,1.592793 0.17121,-1.760454 m 5.25919,0.08069 c 0.13269,-0.247135 0.48302,-0.640344 0.81858,-0.918999 0.23113,-0.191972 0.9947,-0.626973 1.14108,-0.16766 0.14552,0.453442 -0.98272,0.866393 -1.31229,0.991973 -0.20972,0.07998 -0.51447,0.02984 -0.68482,0.125748 -0.89112,0.500388 0.1772,1.379693 0.85603,1.397212 m -11.18182,-0.434772 c -0.14461,-0.564522 -0.2034,-0.514082 -0.28891,-0.655031 m 7.53302,-0.670651 0.8374,-0.43618 0.44663,-0.178553 c 0.4177,-0.111489 0.84495,-0.136985 1.28404,-0.05592 m 5.11207,-0.03831 c 0,-0.614231 0.11995,-1.44215 -0.0615,-2.05747 m -9.90045,1.285122 c -0.14108,-0.268864 -0.24986,-0.311603 -0.37184,-0.446811 m -7.53302,-0.502987 c 0.15128,0.125686 0.25184,0.352816 0.48476,0.315205 M 12.405961,25.886801 c 0.465935,0.152068 1.147073,-0.476076 1.455242,-0.810395 0.6671,-0.723631 0.665473,-2.361443 -0.428012,-2.738515 -0.42767,-0.14746 -1.03014,-0.04569 -1.255531,0.223577 -0.170092,0.203207 -0.171376,0.420665 -0.199711,0.670651 -0.07781,0.685906 -0.496836,2.352722 0.428012,2.654682 M 4.5305369,25.327898 4.2737296,23.735106 c 0.1588525,0.04913 0.376137,0.187027 0.599217,0.153662 C 5.6797497,23.768051 6.8246824,22.256575 6.7133992,21.471662 6.6082794,20.730177 5.6822323,20.076041 4.9585491,20.046532 4.0510777,20.009479 3.279329,20.433497 2.6472833,21.052507 m 8.1322317,3.940067 c 0.2295,-0.533753 -0.01079,-1.505189 -0.370915,-2.095782 -0.229329,-0.375983 -0.7941341,-1.101288 -1.2555312,-0.670648 -0.1231821,0.114933 -0.2671469,0.185789 -0.3448741,0.322686 -0.1266916,0.223326 -0.1893709,0.362046 -0.2971443,0.599457 -0.098272,0.216619 0.042801,0.555716 0.042801,0.75448 0,0.250238 -0.078583,0.578269 -0.085603,0.838315 M 15.316444,23.39978 c 0,-0.5304 0.09167,-2.337848 0.856026,-2.17961 0.547587,0.113362 0.404985,1.025003 -0.0571,1.676622 -0.113765,0.160537 -0.295842,0.380176 -0.456517,0.461072 -0.140559,0.07076 -0.341072,0.03141 -0.341072,0.03141 0,0 -0.01435,0.466551 -0.0013,0.597327 0.08552,0.861114 1.057105,1.09316 1.712048,0.58682 m 9.416269,0.251492 c 0.245659,-0.469693 0.318855,-1.072049 0.171206,-1.844287 m -6.505787,1.592795 c 0,-0.895234 0.125837,-2.157482 -0.142699,-3.017925 -0.09031,-0.289553 -0.282487,-0.744589 -0.627723,-0.810397 -0.353622,-0.06732 -0.716384,0.343711 -0.826553,0.579023 -0.127036,0.271531 -0.286278,0.650529 -0.286278,0.650529 0,0 -0.07139,-0.406998 -0.256807,-0.838311 m 0.34241,3.269417 -0.0856,-1.173636 0.0057,-1.291518 m 3.675232,2.213661 c 0,-0.275554 0.01053,-0.506258 0,-0.754482 -0.02551,-0.599811 -0.256809,-1.370975 -0.256809,-1.928118 m 2.311266,2.6826 0.399508,-1.341299 0.263912,-0.70083 c 0.502145,-0.950144 0.422191,-1.748216 1.134233,-2.317093 M 4.2784402,23.75213 C 4.0938251,23.297093 3.8233924,22.49256 3.5033077,21.974649 M 30.810486,23.31595 c 0.171609,-0.06981 1.060145,-0.924335 1.027229,-1.383216 -0.01196,-0.16674 0.204333,-0.03437 0.342409,-0.04191 0.627039,-0.03412 0.994874,-0.213267 1.369641,-0.502987 l 0.856022,1.508959 M 8.5043626,23.124645 C 7.9437524,22.351889 7.5912522,20.769913 7.1842127,19.878871 M 41.082778,19.040558 c -0.0039,0.279409 -0.08783,0.73017 0.256807,0.978059 0.365609,0.262895 0.561381,0.111747 0.941628,0.111747 0,0.676852 -0.485793,1.745198 0.02851,2.431104 0.14013,0.18686 0.34515,0.262058 0.570712,0.237494 0.892061,-0.09708 2.180549,-1.15251 2.325561,-2.081779 0.08312,-0.532747 -0.306371,-1.121075 -0.784717,-1.3553 -0.252356,-0.123566 -0.519179,-0.0653 -0.770422,-0.06983 -0.182077,-0.0033 -0.271276,-0.03152 -0.328115,-0.09783 -0.116505,-0.135723 0.259631,-0.723549 0.214005,-0.991976 -0.06737,-0.395684 -0.276495,-0.95425 -0.741915,-1.061889 -0.204248,-0.0472 -0.52908,-0.0377 -0.690014,0.06734 -0.613244,0.419528 -1.003157,1.133765 -1.022036,1.832865 z m -17.805308,1.089806 0.827521,1.257469 0.356619,0.419156 0.26709,0.516077 0.830217,1.059173 m 6.278798,-1.491419 c 0,-0.592436 0.186078,-0.86227 0.325438,-1.564271 0.03998,-0.201196 0.0639,-0.30267 0.07315,-0.519038 0.01206,-0.2836 0.216684,-0.8035 0.216684,-0.8035 0,0 0.934219,1.627831 1.09678,2.383822 M 46.390129,21.22017 c 0.549227,0.325601 1.456612,-0.08786 1.683543,-0.754482 0.156911,-0.460987 -0.217087,-1.121577 -0.442307,-1.50896 -0.241483,-0.415384 -0.771963,-0.851055 -1.241236,-0.838313 -0.268449,0.0073 -0.90961,0.33172 -1.098534,0.209579 -0.155284,-0.100347 -0.0999,-0.280919 -0.0999,-0.461072 0,-0.255853 -0.07679,-0.567537 0.0999,-0.740481 0.379816,-0.372042 1.402937,-0.265493 1.954559,-0.265493 m 8.817051,0.838311 c -0.121812,0.647763 -0.576188,1.536627 -0.599216,2.347273 -0.0078,0.275386 -0.134825,0.484881 0.0999,0.754482 0.300295,0.34505 0.697234,0.01376 1.012934,-0.153662 0.658625,-0.34941 1.535365,-1.153015 1.355344,-1.858287 -0.126177,-0.494436 -0.554105,-0.837474 -1.012934,-1.005974 -0.397453,-0.145951 -0.628665,0.04837 -1.027229,-0.195578 -0.630666,-0.59339 -0.493344,-2.786089 0.599209,-2.10978 0.293018,0.188284 0.434605,0.696804 0.485109,1.047891 0.0682,0.455864 -0.01844,0.727211 -0.910712,1.187564 m -6.50819,3.129742 c 0.542976,0.281504 1.315196,-0.568207 1.36964,-1.04789 0.08808,-0.776193 -0.319641,-1.651559 -1.027231,-1.997948 -0.258604,-0.12667 -0.674632,-0.188539 -0.813223,0 -0.08586,0.116776 -0.0428,0.2556 -0.0428,0.405154 0,0.649273 -0.208014,2.266545 0.513613,2.640684 M 35.347415,20.633351 c 0.532904,-0.04043 0.816,-0.267908 1.369638,-0.363241 0.390947,-0.07444 0.783778,-0.305733 1.198434,-0.391239 m 15.408439,0.502988 c 0.01386,-0.172359 0.0904,-0.557898 0.0856,-0.670651 -0.0066,-0.155424 -9.7e-4,-0.479384 -9.7e-4,-0.479384 0,0 -0.517272,0.06853 -0.683856,0.116145 -0.31613,0.09029 -0.850631,0.326021 -1.07003,-0.05591 -0.170349,-0.296594 -0.02089,-0.857005 0.0285,-1.173638 0.09339,-0.598219 0.102467,-1.088714 -0.07131,-1.676623 m -17.120489,3.017924 c 0.347289,-0.17898 1.516363,-0.956934 1.840452,-0.419158 0.24562,0.847526 -0.35009,1.342154 -0.627723,2.095778 -0.122668,0.332475 -0.508821,1.080586 -0.171204,1.411132 0.272303,0.26675 0.734211,0.04913 1.012934,-0.04192 0.713411,-0.232883 1.419717,-0.236404 2.05446,-0.530905 m 3.680903,-1.844283 c 0.352664,-0.299067 0.137779,-0.665699 1.057995,-0.897201 m -22.116193,0.561877 -0.342412,-0.251495 m 32.528927,-0.335324 0.0856,-0.586819 -0.0428,-1.508961 0.128404,-0.670649 M 4.1881199,17.866922 C 3.2421702,16.400129 4.0133712,14.207775 3.0752883,12.75322 m 3.2528927,4.862207 c 0.7060489,0 1.1768623,-0.0389 1.5979407,-0.670648 0.3473747,-0.521094 0.057953,-1.188558 -0.3995066,-1.481047 -0.4999184,-0.319563 -1.1549481,-0.01601 -1.7120489,-0.06983 -0.3499428,-0.03378 -0.3424097,-0.275889 -0.3424097,-0.544903 0,-0.349408 -0.045626,-1.287396 0.1997104,-1.578793 0.388892,-0.461826 1.9295648,-0.817018 2.4539652,-0.600817 m 1.2127371,2.431105 c -0.080552,0.516231 -0.1837885,1.58793 0.171205,2.011946 0.7280488,0.869917 1.7833558,-1.254701 1.7833558,-1.676622 0,-0.60216 -0.518152,-1.333922 -1.112832,-1.592794 -0.9546938,-0.584824 -0.7308558,0.537509 -0.8417288,1.25747 z m 8.3747448,1.760454 c -0.263058,-0.889953 -0.04469,-2.183301 0.0856,-3.101755 0.04323,-0.305061 0.153231,-0.803018 -0.0856,-0.964059 -0.209985,-0.14159 -0.347804,-0.08173 -0.599219,0.014 -0.498634,0.189878 -1.093827,0.450006 -1.626446,0.614734 m -2.568073,3.017923 c 0.752617,1.0385 2.445747,-0.379254 1.868958,-1.508962 -0.317157,-0.621188 -1.22771,-0.97068 -1.868958,-0.656649 -0.239687,0.117364 -0.511902,0.44682 -0.756126,0.279409 -0.176684,-0.121137 -0.09168,-0.352008 -0.0999,-0.544903 -0.01019,-0.239757 -0.194489,-0.702755 -0.0428,-0.880227 0.125322,-0.146538 0.359616,-0.132537 0.556416,-0.223577 0.490845,-0.226932 0.963627,-0.572821 1.540844,-0.572821 m 8.817051,3.688574 c 0.601186,0.340857 2.572525,-0.74132 2.282761,-1.592793 -0.219486,-0.64483 -1.079105,-1.301732 -1.683543,-1.564876 -0.298154,-0.129771 -0.595452,-0.02691 -0.856025,-0.223495 -0.753986,-0.568962 0.668297,-1.301897 1.112832,-1.313382 m 8.560244,-0.419158 c -0.522433,0.845271 -0.231384,2.345012 0.0571,3.269419 0.123525,0.395848 0.315104,0.984092 0.713326,1.187636 0.197228,0.100764 0.503941,0.04091 0.684819,-0.028 0.186957,-0.07117 0.245252,-0.137064 0.428013,-0.251495 0.199196,-0.124655 0.424673,-0.301791 0.570711,-0.488986 0.376393,-0.482534 0.821869,-1.657678 0.114108,-1.970033 -0.350371,-0.154669 -0.615654,0.361395 -0.699116,0.628732 -0.224192,0.718686 -0.291904,1.422197 0.01429,1.844289 m -8.285931,-0.0926 c 0.09863,-0.102058 0.02895,-0.305104 -0.01752,-0.494215 m 16.178863,0 c 0,-0.395012 0.05564,-0.725643 -0.01429,-1.173638 -0.05205,-0.334067 -0.0428,-0.668722 -0.0428,-0.922143 0,-0.550603 4.86e-4,-0.803857 0.3282,-1.341299 0.299096,-0.49058 0.83976,-1.3523643 1.526549,-0.894227 0.859534,0.573406 -0.47398,1.889137 -1.112831,2.12378 -0.278893,0.102358 -0.496494,0.106883 -0.684819,0.111746 m 2.653675,-1.592791 c 0.123438,0.65623 0.334963,1.843279 0.570712,2.598766 0.06249,0.200355 0.1302,0.450508 0.299608,0.544903 0.263654,0.146955 0.957975,-0.321158 1.184137,-0.461072 m -7.44741,-0.419156 c -0.338387,-0.2556 -0.498807,-0.534592 -0.656315,-1.089806 -0.06232,-0.219889 -0.07687,-0.607944 -0.370916,-0.656649 -0.327171,-0.05424 -0.418253,0.33784 -0.684819,0.488986 -0.16273,-0.224332 -0.327343,-1.144714 -0.941628,-0.85231 -0.139188,0.06631 -0.281887,0.203792 -0.42801,0.251493 -0.216747,0.07076 -0.426472,0.101771 -0.684822,0.181661 m 0.856025,1.25747 c -0.02317,-0.497782 -0.220881,-0.222721 -0.06955,-1.493345 m 1.267986,1.074189 0.0015,-0.427183 M 1.3632467,9.3999716 C 1.5412998,9.9547664 2.4262322,9.98679 2.9040906,9.98679 3.5977185,9.98679 4.6442342,9.954515 4.9300178,9.148478 5.3325461,8.0132362 3.4843381,6.674955 2.6472833,6.2423023 2.3010472,6.0634064 1.6831943,5.9819225 1.4916504,5.6275682 1.2690926,5.2158731 1.6879367,4.8531357 2.0480661,4.6914252 2.5905461,4.4479794 3.1462001,4.6414618 3.5889102,5.0407498 M 6.670598,9.9029589 6.4137907,7.2203608 V 6.7173736 L 6.3281882,5.2084123 M 11.464335,7.807179 c 0,-0.28402 0.175399,-1.1035536 -0.171205,-1.4111303 C 11.131855,6.252865 10.903039,6.1220046 10.693913,6.1305552 10.426405,6.1414527 10.196563,6.4473534 10.009093,6.6335424 9.4983033,7.140805 8.824013,8.2507299 9.0103694,8.9808158 9.229426,9.8387441 10.00156,9.3223439 10.437105,8.9668171 10.65736,8.7870832 10.842433,8.5781758 10.979226,8.3101675 c 0.14424,-0.2825112 0.319382,-0.3877193 0.485109,-0.5029873 0.347717,0.5625912 0.156823,1.0887156 0.599217,1.6766238 M 14.032408,8.8131545 13.904004,7.4299394 C 13.788098,7.175053 13.749081,6.970747 13.668597,6.6824581 L 13.261986,4.6215939 m 0.632655,2.7860598 0.822586,0.2178644 m 0,0 1.797652,0.5169869 m 9.15946,-4.9460403 c -2.195875,0 -3.480766,3.4621445 -2.282759,5.1975339 0.504883,0.7312595 1.789946,0.3558633 2.368362,0.2514936 M 17.354843,6.7230495 c 0.37862,0 1.263031,-0.089673 1.813712,-0.5226616 0.244822,-0.1924764 0.714437,-0.722038 0.171203,-0.8941434 -0.350198,-0.1109927 -0.605551,0.053484 -0.856022,0.2374938 -0.539638,0.3963538 -0.739006,0.7112237 -1.112832,1.1736365 -0.196032,0.2425237 -0.256809,0.3025468 -0.256809,0.5868184 0,1.2735635 1.261439,1.4718243 2.225663,1.1736365 M 29.440846,7.8071802 c 0,0.6381231 1.580906,1.3410476 1.783356,0.3353248 0.05273,-0.2615533 -0.263827,-0.61574 -0.428013,-0.8383118 -0.363209,-0.492592 -1.302013,-1.3013116 -1.355343,-1.9281174 -0.09339,-1.0970989 0.998896,-0.4822808 1.284037,0 m -4.194519,3.073837 c 0.308084,0.061197 0.653403,-0.4443054 0.856025,-0.6427338 0.187983,-0.1840933 0.381872,-0.2867025 0.470812,-0.502987 0.05213,-0.126669 -0.02928,-0.2830142 -0.0428,-0.4191559 -0.03938,-0.3964378 0.0231,-0.7967318 -0.0571,-1.1736368 -0.0618,-0.2906427 -0.0044,-0.3042235 -0.142614,-0.502987 -0.08517,-0.1223937 -0.257833,-0.2669186 -0.399506,-0.307409 -0.358759,-0.1024419 -0.591342,0.3757312 -0.72762,0.6427337 -0.371686,0.7279901 -0.547085,1.5755234 -0.328115,2.3472734 0.06266,0.2211465 0.09159,0.5034063 0.370916,0.5589024 M 27.9,7.3880231 c 0.292333,0.3626537 0.401049,0.8527309 0.941628,1.0059743 m 6.248979,-0.083831 c -0.08012,-0.7450916 0.08894,-2.5840127 -0.941628,-2.8362607 -0.4257,-0.104286 -0.99102,0.5816014 -1.141339,0.7957901 -0.106745,0.1519859 -0.147921,0.267357 -0.271101,0.4616778 -0.105461,0.1664049 -0.0428,0.5501842 -0.0428,0.7404808 m 7.190604,-3.0179228 c 0.507025,-0.5099451 0.329571,-1.1892292 -0.0999,-1.760455 -0.309967,-0.4123656 -0.78155,-0.6206023 -1.155633,-0.1676625 -0.696204,0.8430066 -0.997096,2.1516114 -1.055735,3.1855854 -0.03895,0.6861584 0.193377,1.6544924 0.856025,2.1236956 0.903961,0.640135 2.058567,-0.3301273 2.739278,-0.6985654 m 3.766507,-1.4251302 c 0.319984,0 0.961317,-0.1033639 1.341134,-0.5868184 0.23438,-0.2984389 0.228217,-0.9357237 -0.313903,-0.810396 -0.348146,0.080562 -0.778641,0.6069379 -0.941628,0.8942274 -0.114195,0.2012786 -0.116847,0.316714 -0.256807,0.502987 -0.169407,0.2254221 -0.273758,0.3650849 -0.399508,0.6706495 -0.353195,0.8587667 0.0035,1.3222695 0.827521,1.1736368 M 49.17421,4.2976187 c -2.774252,0.8899803 -2.270469,1.5332404 -2.270469,2.5035862 0,0.3536001 0.01053,0.8861796 0.513616,0.838312 0.483737,-0.046023 1.225141,-1.510722 1.355343,-1.9281174 0.09177,-0.2940799 0.164186,-0.2851097 0.313903,-0.5868184 0.282062,-0.5682076 -0.0428,-1.788706 -0.0428,-2.4311045 m -7.019401,4.7783778 c 0,-0.7004933 0.01781,-1.4971412 0.0856,-2.1796108 0.02276,-0.2293622 0.08509,-0.4541973 0.214005,-0.6706495 0.125665,-0.2109195 0.234723,-0.3322232 0.399506,-0.4750715 0.404473,-0.3505821 0.919629,-0.05625 1.18414,0.3912404 M 52.98151,7.4718544 C 52.92381,6.7558524 52.9067,5.8871935 52.89591,5.1245811 52.89301,4.9186079 52.788993,4.7285626 52.84596,4.4539316 L 52.810313,3.0288012 52.72471,1.8551645 M 52.146028,4.636583 c 0.100926,-0.2078176 0.983844,-0.2548303 1.177903,-0.2943985 0.06633,-0.025317 0.878216,-0.051282 1.121999,-0.061845 M 4.7231424,7.2756699 c 0.5793745,-0.44791 0.983005,-0.5547174 1.6846293,-0.5984226 0.607804,-0.043705 1.6383718,0.030067 2.4028874,-0.127536 M 13.724774,6.8196509 C 13.843162,6.6441085 13.954766,6.6199617 14.203613,6.5217954 14.779717,6.2945291 15.139076,5.8458645 15.573252,5.543737 M 49.55742,7.0526983 C 49.378245,6.4466007 48.909666,6.1550718 49.043807,5.2084123 m 1.968854,1.4251301 C 50.792407,6.1211662 50.841457,5.0971682 50.841457,4.6215939 M 32.696414,6.7984933 c 0,-0.9218078 -0.432055,-2.4475065 -0.601893,-3.3505362 M 57.004833,3.2802948 c -0.789085,-0.081316 -2.005279,0.2221866 -2.141773,0.997878 -0.02808,0.1596045 0.111715,0.2857452 0.344127,0.3434211 0.205444,0.050969 0.400447,0.091041 0.599216,0.1397465 0.40216,0.098418 1.786011,0.4286288 1.61215,1.03389 -0.05556,0.1936501 -0.380542,0.6382879 -0.56887,0.7202747 -0.666275,0.3727879 -1.23663,0.3021272 -1.813702,0.5371932 M 50.56129,2.9980365 c 0,0 -0.06213,-0.2047491 -0.05612,-0.284193"
       id="path591"
       sodipodi:nodetypes="cscccccccscccccccccccccccscccccccccccccccccccccccccccccccccsccccccccccsscccccccccccccccccccccccccccccccccccccccccccccccccsccccccccccccccscccccccccccccccccccccccsscccccccccccccccccccccssccccscccccccccsccccccccccccccccccccsccccccccsccccscccscccscsccccccccccscccccccscccccccccccccccccccccscsccccccccccccccccccccccccccccccccscccssccccccsccccccccccccccccscccccsccccccccscccccccccccccccccccccccccccccscccccccccccccsccaccccccccccccccccccccccccccscccccccccccssccccccccccccccccccccscccccccsccccccccscccccscccccccccccccccccccccccccsccccsscccssccsccccccccccccccccccccccccscccccccccccccsccccccsccccccccccccccccccccccccccccccccccscccccccsccccccccccccccccccccccccsccccsscccccccccsccccccccccsccccccccacccccccccc" />
  </g>
</svg>
