<?xml version="1.0" encoding="UTF-8" standalone="no"?>
<!-- Created with Inkscape (http://www.inkscape.org/) -->

<svg
   width="210mm"
   height="297mm"
   viewBox="0 0 210 297"
   version="1.1"
   id="svg12927"
   inkscape:version="1.2 (dc2aedaf03, 2022-05-15)"
   sodipodi:docname="Casey - Pulsz - Envelope 64.svg"
   xml:space="preserve"
   xmlns:inkscape="http://www.inkscape.org/namespaces/inkscape"
   xmlns:sodipodi="http://sodipodi.sourceforge.net/DTD/sodipodi-0.dtd"
   xmlns="http://www.w3.org/2000/svg"
   xmlns:svg="http://www.w3.org/2000/svg"><sodipodi:namedview
     id="namedview12929"
     pagecolor="#ffffff"
     bordercolor="#666666"
     borderopacity="1.0"
     inkscape:pageshadow="2"
     inkscape:pageopacity="0.0"
     inkscape:pagecheckerboard="0"
     inkscape:document-units="mm"
     showgrid="false"
     inkscape:zoom="2"
     inkscape:cx="344"
     inkscape:cy="135.75"
     inkscape:window-width="1920"
     inkscape:window-height="991"
     inkscape:window-x="-9"
     inkscape:window-y="-9"
     inkscape:window-maximized="1"
     inkscape:current-layer="layer1"
     inkscape:showpageshadow="2"
     inkscape:deskcolor="#d1d1d1" /><defs
     id="defs12924"><pattern
       id="EMFhbasepattern"
       patternUnits="userSpaceOnUse"
       width="6"
       height="6"
       x="0"
       y="0" /></defs><g
     inkscape:label="Layer 1"
     inkscape:groupmode="layer"
     id="layer1"><path
       style="fill:none;stroke:#26272b;stroke-width:0.0603572"
       d="M 1.3460336,5.0073563 C 1.5545681,5.2558471 1.855751,5.4413229 2.1910363,5.5186431 2.8785668,5.6772027 3.8019699,5.1769603 3.7420384,4.4037828 3.6840351,3.6556537 2.5672436,2.7980973 1.9997038,2.3975058 1.8077673,2.2620209 1.6247615,2.2031123 1.532297,1.9885597 1.5246502,1.3070064 3.2998046,1.0670236 2.8549663,1.8084183 M 21.08288,1.3859165 c -0.08115,0.5277803 0.149934,1.0465065 0.237024,1.5089337 0.101936,0.7654269 0.16209,1.5256367 0.245836,2.2936994 V 6.4559318 M 23.557532,6.2748604 C 23.248925,6.0395276 23.032785,5.6825745 22.591753,5.3520579 22.230334,5.081173 21.928186,4.9615451 21.668286,4.6756932 20.82032,3.5560015 21.420142,3.1823625 22.4711,3.1966357 M 17.280369,1.5669881 c -0.589802,0.3907749 -0.07624,1.549511 0.0172,2.1728651 l 0.06791,0.4209926 0.03561,0.303296 C 17.257073,4.4311824 17.171548,4.3895959 16.857871,4.3434253 M 31.58506,1.9894901 c -0.443299,0.4072647 -0.636053,0.987122 -0.889792,1.5089325 -0.193144,0.4005925 -0.313192,0.9772457 -0.403307,1.3882196 -0.123793,0.5644616 -0.166103,1.0555893 0.150471,1.5692298 0.339391,0.5507003 0.943927,0.8442777 1.565125,0.9657169 0.383149,0.074956 0.704128,0.091082 1.086433,4.55e-5 M 15.454641,3.2073556 c -3.188054,0.3406398 2.626276,2.0867138 0.19608,3.0168646 C 15.12175,6.4182082 14.574188,6.0479165 14.202145,5.7316451 M 8.541419,4.5054966 C 8.6700433,4.4739837 9.3519627,4.4015111 9.2687183,3.9220676 8.1624332,3.1380378 7.7718658,4.6066538 8.4141788,5.2374385 8.6092537,5.4252706 8.7902047,5.5035546 8.9510575,5.6109296 M 35.847142,6.827903 C 36.064221,6.3955509 36.092065,5.7440995 36.460214,5.326012 M 9.9771312,4.6351385 C 10.4445,3.540881 11.755893,4.1566154 10.339276,4.6049543 10.234315,4.6356159 10.067186,4.5923358 9.9771312,4.6351385 9.7068358,5.0340494 10.180574,5.6705717 10.580705,5.8523597 m 1.146786,1.0864386 c -0.04985,-0.325748 0.06054,-0.5899328 0.06217,-0.90536 0.0015,-0.297079 -0.03186,-0.4810479 0.07146,-0.7846456 0.09567,-0.2811444 0.08028,-0.5064578 0.207327,-0.7846451 0.180047,-0.3943145 0.51177,-0.7154153 0.986903,-0.5219105 1.196449,1.0224537 -0.08972,2.0963607 -1.207138,1.9101217 M 6.9592661,3.9209317 C 7.6117232,4.4997254 7.1908948,5.4792178 6.627361,5.4160331 6.3605203,5.3760796 6.235822,5.2553618 6.0237869,5.1884248 M 24.161103,5.4902507 c -0.25187,-0.3428278 -0.155419,-0.4416336 -0.09446,-0.7846437 0.05638,-0.3169369 0.165803,-0.5985033 0.517021,-0.5735152 0.247345,0.017566 0.538871,0.1136523 0.671295,0.3354059 0.137373,0.230081 -0.02499,0.4680709 -0.206,0.6030901 -0.332146,0.2477664 -0.660973,0.3402957 -0.887857,0.4196647 0.08873,0.2445078 0.316817,0.5644618 0.663931,0.90536 M 4.6053292,4.1623536 C 4.6510829,4.7417841 4.6347853,5.3233879 5.0986907,5.7124509 5.3230385,5.900645 5.549439,5.8501262 5.7394443,5.662355 5.876878,5.5265474 5.9750789,5.3650316 6.0237869,5.1884248 6.0796751,4.9856248 6.0515491,4.6604797 5.993551,4.4641373 m 11.407533,3.3e-6 c 0.212096,0.6046596 0.22477,1.1844528 0.24143,1.9917912 m -0.241423,-1.99179 c 0.211071,0.016838 0.478935,0.098077 0.845004,0.2414292 m 2.233213,0.4225005 v 0.4828581 c -0.417009,0.1081603 -0.717709,0.5475012 -1.326715,0.2462585 -0.266477,-0.1317608 -0.31591,-0.341985 -0.309815,-0.6084026 0.0043,-0.1843914 -0.0033,-0.3806736 0.146789,-0.5068205 0.101217,-0.085043 0.241853,-0.1215601 0.387436,-0.060056 0.193143,0.081603 0.297198,0.3103576 0.378017,0.3858051 M 40.880086,8.3270095 C 41.465143,8.1505327 42.297612,7.6367236 41.824016,6.8918327 41.527297,6.5496068 41.102988,6.3428226 40.699015,6.1642247 40.514741,6.0827453 40.222859,5.9349875 40.118919,5.7869915 c -0.12016,-0.4123691 0.0021,-0.7531136 0.519737,-0.919604 0.503516,0.042362 0.55938,0.1540536 0.784647,0.5021129 M 36.555496,4.531552 36.615856,4.471194 M 20.47931,5.6109293 20.720741,6.03343 m 17.25545,-0.2938211 0.0671,0.2334651 c 0.362687,-0.1787184 0.591261,-0.375362 0.883449,0.1209555 0.257364,0.4372279 0.422261,1.4379529 0.444412,1.8708359 M 38.043292,5.9730743 C 37.712127,6.347105 37.638732,6.8338825 37.500075,7.300935 M 33.697564,6.093788 c 0.475796,0.073939 1.604721,0.7299013 0.841684,1.1903076 -0.273178,0.164897 -0.497767,0.1573514 -0.781325,0.097173 -0.297744,-0.063133 -0.669726,-0.2578465 -0.700991,-0.5631341 -0.0195,-0.190126 0.08076,-0.3057703 0.157774,-0.4225622 l 0.24143,0.1810715 m -7.48431,1.086435 0.589359,-0.3450895 C 26.909114,7.0634356 27.080167,6.8893654 27.206253,6.6964634 27.318216,6.5251692 27.399336,6.3593086 27.413158,6.1541529 27.434342,5.8387266 27.26009,5.5720067 27.038578,5.3093915 26.777354,4.9995775 26.155612,4.7035854 26.112819,4.2866371 26.297286,3.813545 26.965315,4.2366135 27.299685,4.4037828 M 24.342163,27.218859 c 0.02795,0.263881 -0.02994,0.283258 0.04641,0.603574 0.03386,0.142021 0.09265,0.22646 0.11812,0.362142 0.0449,0.239198 0.0635,0.643773 0.07455,0.905361 0.02619,0.62156 -0.09446,1.391237 -0.176606,1.991793 -0.02511,0.183728 -0.06833,0.256699 -0.08058,0.422502 -0.0084,0.112747 0.0186,0.193566 0.02566,0.301786 0.01029,0.158138 -0.0042,0.222777 -0.0067,0.362145 -0.0028,0.1524 -8.52e-4,0.368541 -8.52e-4,0.543214 M 19.875732,30.77994 c 0.0699,-0.212761 0.491368,-0.24179 0.78374,-0.457087 0.228815,-0.168456 0.300036,-0.336189 0.478633,-0.56422 0.375785,-0.479963 0.67129,-0.915137 0.597538,-1.513702 -0.06374,-0.517202 -0.480323,-1.051847 -0.818988,-1.448274 -0.131822,-0.154336 -0.345184,-0.393651 -0.524084,-0.218977 -0.409282,0.399566 -0.380014,1.5067 -0.395219,2.089755 -0.0052,0.199419 0.0062,0.36015 -0.0063,0.543213 -0.05291,0.750488 -0.200742,1.599554 -0.262016,2.413994 -0.199874,0.330331 -0.235391,0.562208 -0.275772,0.966018 M 7.0800378,30.357439 c -0.095801,-0.921612 0.4998307,-0.196007 0.5368181,0.120716 0.01666,0.178957 0.00553,0.281988 -0.045634,0.482858 C 7.4769489,31.331485 7.38508,31.809276 7.0118909,32.01986 6.3270236,32.406328 5.8396989,31.688317 5.5106905,31.323155 5.3194183,31.535612 5.034532,32.09253 4.6052699,32.145643 4.4481605,32.165141 4.3338439,32.132553 4.1828294,32.057159 3.4360889,31.684332 3.5069475,30.868966 3.3378267,30.29708 m 8.2689553,-0.181072 c 0.262071,-0.121137 0.505672,0.143952 0.721632,0.334679 0.108401,0.09579 0.216561,0.15989 0.231832,0.332511 0.01974,0.222719 -0.07545,0.32267 -0.15524,0.539957 -0.114799,0.31283 -0.370051,0.74469 -0.682942,0.95769 -0.395401,0.269132 -0.895521,0.239498 -1.259718,-0.03048 C 10.30264,32.131947 10.239392,31.806336 10.037497,31.806096 9.8509921,31.805869 9.6706997,32.087583 9.5374299,32.193994 9.3239469,32.364381 9.0697207,32.397399 8.8797758,32.154401 8.5493796,31.731837 8.5857763,31.127538 8.7096292,30.659229 M 26.273612,30.236724 c -0.629693,-0.184829 -1.162026,0.651917 -0.662785,0.949842 0.372465,0.217527 1.074119,0.438858 1.233403,0.922683 0.08902,0.270461 -0.257545,0.417368 -0.449904,0.4697 -0.262674,0.07152 -0.552029,0.002 -0.724288,-0.109004 M 13.4175,30.29708 c -0.03519,0.278307 -0.06868,0.26521 -0.05776,0.603572 0.01382,0.42739 0.113048,0.890632 0.481168,1.183368 0.236901,0.188313 0.585948,0.301363 0.785309,0.0927 0.13351,-0.139728 0.143952,-0.282231 0.162664,-0.431011 0.02481,-0.196526 -0.0871,-0.346995 -0.164233,-0.422562 m 1.56929,-1.026075 c 1.220546,0.01444 0.71602,1.375 0.17564,1.92902 -0.59464,0.609668 -1.254346,0.323671 -1.743361,-0.04937 M 28.084332,30.29716 c 0.580354,0.101364 1.804356,0.310112 1.481841,0.767426 -0.387438,0.560529 -1.664241,1.510848 -1.384127,1.85182 0.169182,0.17849 0.632968,0.141609 0.867998,0.16713 0.439886,0.0478 0.760142,0.110695 1.207148,0.110695 M 10.097846,30.357518 c 0.06507,0.455941 -0.007,0.5606 -0.0069,1.025954 0,0.153489 -0.0347,0.321464 -0.05348,0.422624 m 23.720431,-1.448595 c -0.310842,0.39697 -0.485697,0.899748 -0.545692,1.388219 -0.04913,0.40023 0.04249,0.452259 -0.02052,0.760019 -0.06302,0.307761 0.0035,0.541403 0.157464,0.808302 0.147999,0.256641 0.477368,0.45576 0.770884,0.47785 0.311565,0.02349 0.547505,0.01804 0.845003,-0.114801 M 21.626107,30.478217 c -0.01798,0.41906 -0.164716,1.102788 0.204852,1.495171 0.516538,0.548347 1.089028,-0.231711 1.311686,-0.650168 0.236886,-0.739908 0.250705,-0.212539 0.414887,0.362081 M 5.5710482,30.659224 c -4.56e-5,0.350072 -0.00187,0.46602 -0.060358,0.663931 M 35.349345,31.89988 c -0.317446,0.778049 -0.09032,1.984755 0.883227,1.735202 2.612702,-1.096073 -1.660686,-3.417765 -0.30174,-1.829068 m 3.017819,-0.362144 c -0.01339,0.120293 -0.03784,0.218192 -0.113172,0.362143 -0.386623,2.008044 0.316075,0.230277 0.656388,-0.543214 0.10055,-0.298831 0.987897,-1.65371 1.07774,-0.98262 0.439635,4.533468 2.106358,-3.747819 2.085287,1.405179 l 0.03591,0.845003 m -24.505026,-0.905419 0.120714,0.301786 m 13.218204,0.784646 c 0.03834,0.204371 0.04678,0.252232 0.06036,0.422503 m 69.591994,7.605025 c 0.004,0.315849 0.0701,0.454128 0.19135,0.724285 0.12493,0.277465 0.2571,0.568689 0.39049,0.845004 0.0905,0.18693 0.15272,0.354782 0.24988,0.543216 0.25472,0.491249 0.52873,1.000486 0.78284,1.508937 0.1346,0.268166 0.26135,0.502896 0.38569,0.784642 0.14727,0.334622 0.19978,0.646913 0.32833,0.965717 0.18471,0.460103 0.34465,0.963123 0.49132,1.448577 0.22453,0.744872 0.49915,1.827501 0.92226,2.172864 0.29998,-0.448997 0.44846,-1.191694 0.61082,-1.810719 0.23539,-0.899204 0.39776,-1.832995 0.63919,-2.716083 0.14123,-0.517983 0.24203,-1.041402 0.39715,-1.569287 0.12554,-0.425158 0.21064,-1.017022 0.40499,-1.327864 m 5.07002,1.207147 c 0.19251,0.327523 0.19352,0.602351 0.18346,0.965717 l 0.29394,2.59537 0.008,3.500723 0.007,0.603572 -0.009,0.845003 m 16.4172,0.905361 c 0.17564,0.343979 0.79551,0.521429 1.38822,0.410672 0.27583,-0.05154 0.52329,-0.06621 0.78464,-0.16731 0.49856,-0.192719 1.03332,-0.578468 1.20413,-1.088364 0.20039,-0.59983 -0.1171,-1.156387 -0.46657,-1.629651 -0.22633,-0.306128 -0.48044,-0.631273 -0.73213,-0.905358 -0.13097,-0.141961 -0.23057,-0.273296 -0.373,-0.412237 -0.32413,-0.316397 -0.59513,-0.64474 -0.86251,-1.036339 -0.19316,-0.283075 -0.29334,-0.617031 -0.27341,-0.965717 0.0567,-0.977305 0.76954,-2.138339 1.56385,-2.689342 0.28548,-0.198092 0.56796,-0.298043 0.90536,-0.26153 0.39534,0.0428 0.48648,0.304987 0.5432,0.596936 m -18.34862,-0.181072 c -0.18348,0.414654 -0.19193,0.67715 -0.23116,1.086431 -0.0488,0.515092 -0.0688,1.288208 -0.0706,1.810722 -0.004,0.94145 -0.15754,1.926911 -0.24143,2.836795 -0.0163,0.17389 -0.0543,0.310295 -0.0899,0.482856 -0.10196,0.498072 -0.0808,1.107923 0.0296,1.569291 m 31.86867,-7.48431 -0.0604,2.655723 -0.0428,0.603575 -0.0277,0.603572 -0.10019,1.871076 -0.0706,1.146792 -0.12072,2.233221 m 6.46081,-8.404424 c 0.4394,-0.02946 0.91019,0.171114 1.32786,0.35375 0.81905,0.358227 2.13363,0.756223 2.89715,0.913756 m 4.2828,-0.528462 c -0.60538,1.136526 -0.53778,2.879468 -0.72913,4.04394 -0.0501,0.305592 -0.0942,0.59464 -0.14062,0.905301 -0.0241,0.161879 -0.0525,0.220967 0.002,0.331181 0.0645,0.131577 0.26496,0.14184 0.38507,0.159583 0.50459,0.07424 0.97538,0.144918 1.32786,0.293941 m 10.92468,-5.371802 -0.0344,0.482857 -0.19012,1.448575 -0.22453,1.750364 -0.236,0.965717 -0.0531,0.457814 0.19858,0.182881 0.5396,0.445735 m -18.28838,-5.43216 c 0,0.452681 0.0145,0.842773 -0.002,1.267506 -0.0151,0.380974 -0.0525,0.863594 -0.10083,1.267504 -0.0217,0.179021 -0.0163,0.293459 -0.0435,0.48286 -0.0441,0.307821 -0.10682,0.588605 -0.16718,0.90536 -0.0338,0.177934 -0.0428,0.307879 -0.0761,0.482861 -0.0453,0.241006 -0.0942,0.388154 -0.14546,0.603569 -0.0742,0.312047 -0.11891,0.677514 -0.12856,0.905361 m -12.37327,-5.190731 -0.0604,0.543216 m -35.55046,1.448575 c -0.0368,0.802089 -1.05144,2.671355 -0.42251,3.500729 m 6.27716,-0.905361 c -0.36455,0.136769 -0.60719,0.250179 -0.96571,0.360632 -0.18046,0.05558 -0.36576,0.103753 -0.54321,0.116792 -0.17745,0.01298 -0.28428,0.0063 -0.48286,0.0054 -0.60841,-0.0029 -1.38158,-0.327018 -1.38279,-1.026014 -8.9e-4,-0.520763 0.37602,-1.143534 0.78163,-1.488474 0.25591,-0.217585 0.44906,-0.360272 0.72187,-0.411637 0.21849,-0.0411 0.36516,-0.0025 0.60357,0.03772 0.8094,0.136593 0.002,0.868362 -0.36214,1.051065 -0.33861,0.169786 -0.46657,0.15554 -0.78465,0.328465 m 7.24293,-0.905357 c 0.42139,-0.01243 0.57706,0.243499 0.77982,0.483762 0.23962,0.281385 0.3893,0.474888 0.36154,0.844095 -0.0211,0.276678 -0.13278,0.516778 -0.31627,0.717951 -0.14606,0.159885 -0.31387,0.264789 -0.5233,0.294965 -0.18469,0.02667 -0.37844,-0.01405 -0.54261,-0.102724 -0.32412,-0.175219 -0.49855,-0.463965 -0.47743,-0.789473 0.0776,-0.877178 1.04169,-1.458303 0.29575,-1.388218 m 3.50073,0.663932 c -0.27136,-0.565716 0.23461,1.820876 0.46349,2.105925 0.68868,0.805893 1.58619,-0.502895 1.58861,-1.140208 m 52.99374,-1.388217 0.12069,0.4225 m -51.54515,-0.301789 c 0.39957,0.166527 0.95244,0.424251 0.94821,0.905361 -0.002,0.243785 -0.13157,0.52384 -0.25772,0.724287 -0.25652,0.407231 -0.7853,0.851354 -1.2748,0.977263 -0.59633,0.153248 -0.87277,-0.405238 -1.14678,-0.788814 m 14.61315,-1.147828 c 0.11589,0.146612 0.15151,0.294546 0.15332,0.476522 8.9e-4,0.180771 -0.0278,0.328465 -0.11951,0.482857 -0.20704,0.34742 -0.58125,0.637436 -0.96512,0.738533 -0.63072,0.166105 -1.25,-0.358101 -1.29647,-0.979962 -0.0453,-0.599166 0.44122,-1.207024 0.99469,-1.348745 0.42975,-0.10997 1.02787,0.372166 1.23309,0.630795 z m 2.62977,2.589029 c -0.46958,-0.05939 -1.44555,0.07333 -1.81011,-0.435417 -0.39776,-0.554201 0.12131,-1.32092 0.48527,-1.737448 0.13942,-0.159281 0.49977,-0.624093 0.70739,-0.601399 0.17202,0.01869 0.17323,0.196101 0.19496,0.299616 m 32.35152,-0.120717 1.37396,0.337026 m -12.4797,-0.0956 0.58029,-0.09145 c -0.0163,0.378623 -0.24229,1.091872 -0.39922,1.721098 -0.13399,0.535915 -0.22996,1.07563 -0.30179,1.629646 M 171.118,51.819563 c -0.0344,0.435175 -0.32314,1.267573 -0.51929,2.077265 -0.0645,0.266599 -0.12435,0.460347 -0.17926,0.724286 -0.0725,0.351706 -0.19315,0.620598 -0.2529,0.905361 M 162.622,54.379686 c 1.84518,-0.323509 0.82241,-2.516866 2.59542,-2.112508 m -23.41868,0.120714 c -0.32655,0.0029 -0.59815,0.0516 -0.83113,0.308128 -0.14728,0.162177 -0.29209,0.497882 -0.0549,0.655901 0.34162,0.22773 0.96029,-0.175096 1.24819,-0.334202 0.16115,-0.08908 0.27161,-0.114677 0.4056,-0.237385 0.63153,-1.057939 0.30879,0.164927 0.98262,0.754345 m 17.92609,0.116973 c 0.24626,-0.09645 0.50881,-0.223139 0.72428,-0.371739 0.21789,-0.149986 0.68022,-0.455514 0.53779,-0.764965 -0.13099,-0.285133 -0.48226,-0.254472 -0.71886,-0.211194 -0.18349,0.03368 -0.31748,0.05975 -0.47683,0.183246 -0.18469,0.14347 -0.25288,0.297382 -0.36334,0.504464 -0.20345,0.381823 -0.22034,0.57255 -0.12555,0.845006 0.1865,0.314341 0.54443,0.421535 0.90536,0.422498 m -6.51859,-1.810719 c -0.7149,3.244381 -0.22004,1.78126 1.04164,0.241492 0.13519,-0.160972 0.56976,-0.622828 0.80999,-0.52505 0.17201,0.06996 0.13943,0.295936 0.14002,0.464631 0,0.179145 -0.006,0.307946 -0.0368,0.482862 -0.0845,0.482195 -0.15392,0.946947 -0.0235,1.388219 M 139.797,51.41676 c -0.23419,0.41785 -0.52815,2.090143 -0.53359,2.359397 m 40.31869,2.112505 c -0.59633,-0.01238 -1.46306,-0.204185 -1.70208,-0.965717 -0.1714,-0.547801 0.0948,-0.98998 0.43699,-1.445076 0.2034,-0.270942 0.56737,-0.51907 0.8426,-0.633753 0.21185,-0.08806 0.40438,-0.133387 0.5589,0.04737 0.57507,0.988162 -0.44535,1.726353 -1.16184,1.246766 m -11.16622,1.267505 c -0.27222,-0.152463 -0.27391,-0.607921 -0.36203,-0.96572 -0.47201,0.101641 -1.18252,0.851158 -1.75049,0.590416 -0.41526,-0.190669 -0.45811,-0.573333 -0.28669,-0.952318 0.10501,-0.233101 0.21608,-0.348743 0.42491,-0.526193 0.18771,-0.159886 0.3549,-0.311566 0.52571,-0.393108 0.23359,-0.111422 0.43941,0.04129 0.60358,0.134414 m -12.52748,0.183741 c -0.24988,-0.06477 -0.45148,-0.124699 -0.72429,-0.172564 -0.55589,-0.09754 -1.68096,-0.375725 -2.29357,-0.231047 -0.23949,0.0843 -0.37942,0.119124 -0.54323,0.282895 m 24.41788,-0.183741 c -0.44182,0.594521 -0.49916,1.214269 -0.57702,1.991792 -0.026,0.258209 0.0815,0.679925 0.45631,0.6212 0.70618,-0.110634 1.39667,-0.986302 1.87107,-1.466201 0.19676,-0.19948 0.48527,-0.523418 0.56495,-0.783135 0.0568,-0.184817 0.005,-0.21916 -0.0217,-0.303296 m -7.60508,2.414295 c -0.35188,-0.05963 -0.93795,-0.114802 -1.3025,-0.549735 -0.46415,-0.553234 0.12916,-1.643832 0.69893,-1.804202 m -39.35297,0.06036 0.0604,0.06036 m 37.72338,0.362142 -0.36213,0.663929 m 6.03981,-1.046445 c 0.0359,1.015745 -0.51022,1.320269 -0.78873,1.951805 m -69.59201,2.172863 0.18108,0.543214 c 0.3543,-0.411032 0.33497,-0.70497 0.80697,-1.448575 0.10805,-0.170688 0.36518,-0.704189 0.64282,-0.636105 0.63918,0.156445 0.89208,1.784709 0.60176,2.265753 -0.23721,0.392926 -0.61685,0.484068 -0.96511,0.422506 m 5.49252,-0.362146 c 0.012,0.408017 0.10622,0.518469 0.24142,0.72429 0.0749,-0.106232 0.15029,-0.222117 0.21005,-0.422506 0.0477,-0.160546 0.10622,-0.324119 0.17322,-0.482855 0.23117,-0.546235 0.81361,-1.753566 1.60308,-1.40681 0.4865,0.213544 0.46355,0.829792 0.30844,1.225737 -0.0767,0.196162 -0.16297,0.347661 -0.26135,0.543217 -0.10442,0.206423 -0.43095,0.485273 -0.43398,0.717648 -0.002,0.18047 0.18832,0.23117 0.33198,0.289114 0.33075,0.13399 0.62228,0.317476 0.7605,0.68324 0.13882,0.368786 -0.0169,0.773173 -0.23057,1.086436 -0.32472,0.475013 -0.93071,0.968132 -1.49566,1.026078 m 5.2037,-4.033151 c 0.50579,-0.225329 0.64522,0.585714 0.83193,1.015279 0.0899,-0.07485 0.17623,-0.141236 0.30118,-0.3042 0.29636,-0.388097 0.44725,-0.627112 0.78525,-0.842588 m 6.57894,-0.181073 -0.0604,0.241428 -0.0604,-0.181072 0.12071,-0.06036 m -17.86576,0.06036 c 0.6861,0.10901 1.07825,0.351622 1.145,0.965717 9e-4,0.235999 -0.0471,0.444234 -0.13882,0.663934 -0.14787,0.351277 -0.34886,0.734553 -0.59633,1.026072 -0.48104,0.564952 -1.42383,0.90898 -1.59704,-0.120716 -0.26405,-0.850953 1.26207,-3.955987 1.0667,-2.41429 m -3.50105,-0.06036 c 0,0.186507 5.6e-4,0.301188 0,0.482862 -0.004,0.708595 -0.18107,1.648355 -0.24142,2.414294 m 21.66828,-2.776438 -0.0857,0.784644 -0.36938,1.569291 -0.14847,0.965721 m 1.50892,0.965721 c 0.5758,0.459921 1.26087,0.07785 1.54394,-0.543218 0.32593,-0.714635 -0.22453,-1.20474 -0.88,-1.434092 -0.17926,-0.06215 -0.43216,-0.04106 -0.50399,-0.214874 -0.0555,-0.133396 0.0157,-0.284887 0.0706,-0.403191 0.20099,-0.428534 0.47078,-1.064702 0.86129,-1.286814 0.2535,-0.143652 0.40681,-0.195556 0.6585,-0.167794 0.46716,0.0507 0.61323,0.118299 0.96572,0.247468 m -13.51993,0.120744 c 0.34585,0.06277 0.87579,0.380251 1.15886,1.02608 0.0923,0.211246 0.10986,0.339206 0.10563,0.543208 6.9e-4,0.518837 -0.26282,0.985449 -0.42443,1.267477 -0.22815,0.381457 -0.75507,0.829914 -1.26268,0.575803 -0.34584,-0.173225 -0.54442,-0.525704 -0.63315,-0.87759 -0.14485,-0.578828 -0.0621,-1.141961 0.0694,-1.750364 0.0712,-0.328949 0.18409,-0.572795 0.40138,-0.840779 0.14305,-0.176845 0.35913,-0.240827 0.49372,0.0037 0.0766,0.14003 0.0766,0.269796 0.0911,0.354298 m -4.70777,-0.06036 c -0.005,0.6929 -0.0484,0.997701 -0.169,1.629642 -0.0731,0.380252 -0.10082,0.880013 -0.19314,1.267509 m 19.73685,-2.716078 c 0,1.088846 -0.34284,2.230805 -0.57824,3.259296 -0.0634,0.278848 -0.13218,0.486477 -0.14606,0.784638 m -11.64896,-3.983579 c -0.005,0.149081 -0.0163,0.284282 -0.0905,0.405601 -0.10684,0.174433 -0.18591,0.228149 -0.29515,0.439405 -0.28269,0.626645 -0.55559,0.958593 -0.69423,1.569255 l -0.12735,0.724281 m 1.11673,-2.732941 c 0.20883,0.341014 0.34463,0.763519 0.40922,1.284401 0.061,0.485272 0.16356,0.94037 0.16417,1.448571 m -14.48577,4.043946 v -0.24143 c -0.0453,0.306621 0.0374,0.742397 0.24144,1.026078 0.0736,-0.09542 0.15149,-0.181676 0.25229,-0.422503 0.0784,-0.187714 0.15029,-0.368184 0.24023,-0.543218 0.1551,-0.299969 0.51907,-1.32665 1.01339,-1.133511 0.29575,0.11528 0.29033,0.525715 0.31506,0.771376 0.0181,0.184087 0.0465,0.301778 0.0488,0.48285 0.004,0.210041 -0.0482,0.386893 -0.0482,0.603576 0,0.547438 0.0278,1.198087 0.0518,1.750359 0.0104,0.242033 -0.0604,0.726099 0.1201,0.925891 m 1.02427,-0.503358 c 0.27161,-0.06277 0.44724,-0.07605 0.71282,-0.322305 0.29214,-0.270408 0.36637,-0.623487 -0.10924,-0.642199 -0.22091,-0.0085 -0.46475,0.0024 -0.66393,0.115882 -0.99186,0.79996 -0.16902,2.060236 0.84351,2.116028 m 17.92777,0.301849 c 0,-1.177569 -0.15459,-2.458954 -0.0176,-3.621432 0.026,-0.217899 -0.012,-0.521495 0.0435,-0.72188 0.41266,-1.937604 0.87966,1.185022 1.24016,2.291135 0.10564,0.316267 0.28068,0.809385 0.41648,1.086426 0.63236,1.015848 0.81759,-1.616559 0.79611,-1.931432 0.0806,-0.487008 -0.47075,-1.991043 -0.65003,-1.7051 m -8.22647,-0.407373 c -0.2203,0.587881 -0.19676,1.919967 -0.18108,2.353945 0.47502,-0.05977 1.3158,-0.417077 2.17287,-0.543218 m 7.96717,-1.508939 c 0.4783,0.06769 0.61088,0.809248 0.78024,1.086395 0.3386,0.542614 0.60271,0.948656 1.00227,1.269755 m 0.81286,-2.35615 c -0.13037,0.400166 -0.24687,0.803357 -0.38389,1.207151 -0.28729,0.850431 -0.94156,2.12638 -1.00434,2.897152 m 8.26757,-3.923272 c -0.25954,0.315674 -0.53658,0.962707 -0.70438,1.508939 -0.0755,0.247459 -0.17684,0.520881 -0.0181,0.759297 0.21728,0.325923 1.10876,0.106829 1.44675,0.0157 0.13642,-0.03679 0.28791,-0.09843 0.42252,-0.135204 0.17563,-0.04708 0.26677,-0.01268 0.38628,-0.132783 0.0888,-0.08991 0.0911,-0.223323 0.0911,-0.325933 -5.4e-4,-0.343435 0.005,-0.51425 0.005,-0.845005 m -3.31965,-0.784639 c 0.24203,0.336182 0.15089,0.350671 0.20945,0.724281 0.0271,0.173225 0.032,0.309033 0.0452,0.48286 0.0447,0.583662 0.17806,1.176365 0.2535,1.75036 0.0266,0.197972 0.0344,0.32956 0.0351,0.543218 m 10.26076,-3.259298 c 0.47379,0 1.48659,0.190126 2.05214,0.284284 0.19254,0.03263 0.54744,0.0157 0.6585,0.217285 0.13097,0.237211 -0.19978,0.419489 -0.35671,0.521495 -0.3054,0.199178 -0.93917,0.422492 -0.94459,0.781623 -0.003,0.176843 0.29574,0.281863 0.46173,0.33378 0.49735,0.156928 1.13773,0.301175 1.3345,0.819043 0.0821,0.216682 0.0477,0.398357 -0.0386,0.603575 -0.19315,0.458716 -0.71161,0.996498 -1.17516,1.086436 m -8.08788,-1.207151 c 0.0893,0.153311 0.16899,0.339206 0.4225,0.438198 0.55167,0.213667 1.44194,-0.153913 1.37312,-0.800344 -0.038,-0.352489 -0.39956,-0.633146 -0.7092,-0.79792 -0.37662,-0.199782 -1.27474,-0.280668 -1.53005,-0.615644 -0.17504,-0.229362 0.0899,-0.521494 0.21306,-0.69894 0.2885,-0.416464 0.61866,-0.788868 1.13592,-0.845006 m 0.43069,0.166144 0.60357,0.01081 1.14679,0.04948 m -40.8701,0.377075 c -0.0217,0.508803 -0.0398,0.485874 -0.0954,0.905352 -0.0592,0.449663 -0.18288,1.105748 -0.20642,1.569297 m 42.25012,-2.172862 v 0.603565 c -5.3e-4,0.781634 -0.19554,1.546357 -0.42249,2.353945 m -26.37468,-2.414179 c -0.0404,0.69894 -0.0647,1.129742 -0.13986,1.750218 -0.0435,0.364557 -0.0725,0.665139 -0.16357,0.965721 m -4.40608,-2.112514 c -0.22272,-0.17624 -0.19496,-0.288549 -0.60357,-0.340412 -0.16177,-0.02051 -0.29093,0.04768 -0.40923,0.168392 -0.23293,0.23721 -0.26621,0.587278 -0.25229,0.89631 0.0314,0.703748 0.66815,0.992277 1.26267,0.641597 0.23539,-0.138822 0.36878,-0.26255 0.48528,-0.470783 0.30669,-1.314202 0.0447,-0.228322 0.66393,0.01026 m 24.71053,-1.363972 c 0,0.345848 -0.17021,1.091862 -0.18107,1.629644 M 110.1696,68.865385 c 0.32471,-0.179264 0.64462,-0.10924 0.57943,0.301788 -0.0447,0.283681 -0.22031,0.570377 -0.42491,0.761106 -0.31447,0.293337 -0.85346,0.383276 -1.17758,0.124934 -0.16115,-0.128552 -0.19857,-0.31928 -0.38086,-0.347655 -1.11644,0.59937 -0.85701,-0.141606 -1.2518,-0.900531 m 1.49323,0.17624 c -0.0978,0.299979 -0.15512,0.408627 -0.24143,0.724291 m 9.24812,-0.795405 c 0.55348,0.155119 1.24018,0.973525 1.6319,1.524591 m -4.40833,-0.920935 c 0.0625,1.45703 0.28753,0.465832 0.56357,-0.10521 0.29213,-0.618667 0.66574,-1.199906 1.18903,-1.086436 m 4.70788,1.327932 c 0.65366,0.588484 0.61625,2.280304 -0.18107,2.655722"
       id="path8070"
       sodipodi:nodetypes="ccccccccccccccccccccccccccccccccccccccccccccccccccccccccccccccccccscccccccccccccccccccccccccccsccccccccccsccccccccccccccccsccccccsccccccccccccsccccccccccccscccccccccccccccccscccccccccccccccccccccccccccccccccccccccsccccccccscccccccccccccccccccccccccccccccccccccccccccccccccccccccccccccccccccccccccccsccccccccccccccccccccccsccccccccccccccccccccccccccsccccscccsccccccccccccccccccccccccccccccccccccccccccccccccccccccccccccccccccccccccccccccccccccccccccccccccccccccccccccccccccccccccccccccsccccccccccccccccccccccccccccccccccccccccccccc" /><path
       style="fill:none;stroke:#010101;stroke-width:0.0490182"
       d="m 3.6639699,15.337776 c 0.7033889,0.119219 1.2259891,-0.02216 1.8484849,-0.454444 0.097557,-0.06845 0.1531509,-0.113046 0.2383727,-0.20419 0.1255598,-0.134286 0.224008,-0.3223 0.2693106,-0.499505 0.029094,-0.113732 0.045497,-0.148076 0.032634,-0.246324 C 5.9933153,13.480261 5.5827232,12.957978 5.2427324,12.693512 4.6662749,12.024159 3.4347453,12.44739 4.2302878,11.75475 c 0.0545,-0.0438 0.4614005,-0.454893 0.4696159,-0.62067 0.00766,-0.15434 0.011378,-0.173656 -0.1078512,-0.290653 C 4.3482761,10.604274 3.8359369,10.499561 3.5979788,10.451744 3.43966,10.419934 3.1308978,10.352363 2.9068992,10.319643 2.7484881,10.2965 2.5814474,10.247557 2.4134283,10.229948 2.0679607,10.182656 1.759798,10.136354 1.4826048,10.261207 M 22.5402,15.145275 c -0.07731,-0.05886 -0.189984,-0.132322 -0.352806,-0.282428 -0.08629,-0.0796 -0.160446,-0.152392 -0.236866,-0.237275 -0.100424,-0.111641 -0.155865,-0.131358 -0.261312,-0.236454 -0.234487,-0.233627 -0.330854,-0.341432 -0.459014,-0.52409 -0.07459,-0.10623 -0.09712,-0.115577 -0.196056,-0.238646 -0.136818,-0.170254 -0.407835,-0.418203 -0.560286,-0.618782 -0.809087,-1.4673 -0.554714,-0.349997 0.258984,-0.564535 0.101092,-0.03321 0.169549,-0.02639 0.292848,-0.04255 0.46731,-0.06131 1.4005,-0.419325 1.38947,-0.978534 -0.003,-0.152511 -0.07835,-0.263685 -0.11932,-0.388361 -0.07009,-0.213405 -0.139018,-0.314562 -0.251581,-0.432965 -1.034541,-1.3612597 -2.05257,-0.389595 -2.068759,1.197531 l 0.0019,0.437519 c -0.162642,1.023382 -0.03396,1.475672 -0.293492,2.564078 m -8.675743,-4.220874 c -0.07224,0.540316 -0.316923,1.034138 -0.290288,1.579219 0.0048,0.100681 -0.01244,0.134823 0.04903,0.243583 0.0778,0.13761 0.185965,0.179099 0.310627,0.242988 0.199008,0.06949 1.151445,0.02846 1.312373,-0.1095 0.184378,-0.43491 0.11473,-0.943639 0.354315,-1.376995 M 7.1924871,10.71276 c 0.4266346,0.22753 1.2035644,0.219734 1.671352,0.273304 0.128718,0.01526 0.1536616,0.0029 0.2942156,-0.0018 0.2369688,-0.008 0.5877254,-0.0509 0.8333896,-0.01165 0.08842,0.01413 0.1538067,0.02624 0.2460507,0.02444 M 39.424436,9.6735563 c -0.06505,0.4345887 -0.02255,0.7886527 -0.0029,1.3733847 0.01021,0.303939 0.0074,0.375601 0.0835,0.781932 0.301022,1.392268 0.05114,1.767067 0.07242,2.400818 l 0.0099,0.293944 c 0.01059,0.315451 -0.03529,0.834525 0.03949,1.175777 m 0.393857,-2.192206 c 0.15721,-0.03166 0.719946,-0.199402 0.84992,-0.203767 l 0.341289,-0.0605 -0.03748,0.344579 0.0082,0.244953 0.0099,0.293945 0.01155,0.588163 -0.158167,0.88814 M 17.765975,11.72525 c -0.797661,-0.107204 -1.577107,0.424108 -2.183193,0.710916 -0.445062,0.196682 -0.804956,0.573352 -1.031868,0.917479 -0.06256,0.09691 -0.109762,0.208944 -0.169728,0.299977 -0.0819,0.124285 -0.114809,0.131717 -0.120788,0.298331 -0.0048,0.134547 -0.05364,0.282295 -0.07499,0.443932 -0.02887,0.218097 -0.02415,0.319072 0.0083,0.490182 0.06407,0.338032 0.432481,0.210107 0.593373,0.143544 0.102258,-0.04229 0.196546,-0.101644 0.288734,-0.164976 0.11424,-0.07853 0.136038,-0.112911 0.238373,-0.204189 0.225287,-0.200953 0.30627,-0.262088 0.425835,-0.463905 0.07585,-0.128007 0.122088,-0.274148 0.13381,-0.396861 0.0073,-0.07642 -0.0015,-0.0903 -0.0066,-0.195963 -0.08168,-0.541887 -0.68668,-0.930697 -1.117558,-1.147764 -0.07368,-0.03677 -0.417141,-0.195878 -0.502794,-0.367291 -0.09518,-0.19054 -0.09864,-0.298172 -1.42e-4,-0.490455 0.115305,-0.224957 0.356928,-0.462341 0.517509,-0.654976 0.09906,-0.118801 0.155411,-0.194734 0.317572,-0.280418 0.102404,-0.0541 0.248002,-0.03285 0.342113,-0.03601 m -8.1984404,4.149954 c 0.3413601,0.05111 0.5271308,0.09741 0.934114,0.06673 0.1589981,-0.01194 0.2518929,-0.04985 0.4370778,-0.129104 0.2297632,-0.09836 0.709315,-0.354537 0.8218278,-0.599818 0.044058,-0.09609 0.040747,-0.185683 0.030934,-0.295314 C 9.4308762,13.611772 9.2301871,13.457102 9.041043,13.342506 8.949672,13.287166 8.8749582,13.250046 8.7911537,13.203761 8.6198438,13.109061 8.2558742,12.970327 8.046696,12.942676 c -0.1523771,-0.0202 -0.3299063,-0.05474 -0.5421876,-0.07988 -0.088099,-0.01048 -0.1509215,-0.0031 -0.2452289,3.1e-5 -0.095243,0.0032 -0.1563977,0.0061 -0.2455014,-0.0081 -0.1190848,-0.01904 -0.4188518,0.0059 -0.5421879,-0.07989 -0.1345349,-0.09353 -0.138707,-0.241107 -0.09428,-0.372868 0.035459,-0.105109 0.097584,-0.168593 0.1714224,-0.250988 0.3529442,-1.336991 0.4346575,-1.29512 1.3732921,-0.860068 M 45.031267,10.139311 c 0.0933,-0.03594 0.134414,-0.02544 0.244404,-0.02456 0.242206,0.0019 0.414565,0.05784 0.596116,0.225211 0.176488,0.162746 0.322494,0.218144 0.401843,0.52601 0.03315,0.128524 0.122337,0.478209 0.125901,0.584323 0.0029,0.08735 0.0156,0.127535 -0.0081,0.2455 -0.03115,0.154806 -0.063,0.338129 -0.171378,0.496216 -0.103379,0.150805 -0.205878,0.210847 -0.308294,0.31282 -0.09753,0.0971 -0.230296,0.178904 -0.350751,0.26515 -0.182475,0.130705 -0.285646,0.194103 -0.48113,0.277769 -0.06271,0.02682 -0.183044,0.06118 -0.242212,0.08985 -0.601126,0.399632 -0.490877,0.167334 -0.61444,0.445713 -0.09977,0.180848 -0.03392,0.500231 -0.169596,1.035661 m 0.169596,-1.035661 c -0.01597,-0.04596 0.02362,-0.513125 0.01613,-0.736228 -0.004,-0.118704 -0.006,-0.135903 -0.0082,-0.244953 -0.0032,-0.17072 0.03515,-0.413854 0.02596,-0.687516 -0.0084,-0.249215 -0.137702,-0.290043 -0.03123,-0.685594 0.07287,-0.270562 0.15555,-0.209569 0.279136,-0.450789 0.160092,-0.312428 0.295814,-0.550135 0.526241,-0.638922 m -3.805371,0.601907 c -0.06506,0.37026 -0.0014,1.072189 0.051,1.518712 0.01628,0.138841 -0.015,0.160638 -0.03094,0.295314 -0.01525,0.128376 -0.0023,0.177131 0.0017,0.29422 0.0065,0.192925 -0.01441,0.250372 -0.03583,0.393571 l 0.390282,-0.06215 0.487712,-0.08176 0.340194,-0.09318 M 12.389933,12.535202 c 0.0017,0.05045 0.0095,0.08409 0.0082,0.244951 -0.02524,0.464071 -0.163154,1.841371 0.212782,1.954693 m 16.175756,0.936345 c 0.20927,-0.02361 0.365323,-0.02978 0.582951,-0.166714 0.174687,-0.109947 0.353066,-0.324672 0.414638,-0.553429 0.107001,-0.296028 0.0058,-0.481821 -0.111188,-0.633865 -0.115019,-0.152202 -0.48406,-0.383419 -0.703689,-0.507682 -0.35224,-0.08909 -0.832047,-0.193374 -0.851215,-0.519111 -0.0028,-0.08225 0.0823,-0.189923 0.139021,-0.241707 0.111733,-0.101998 0.301368,-0.206501 0.432965,-0.251629 0.154821,-0.05302 0.201389,-0.02309 0.391377,-0.02947 m 1.118878,0.943344 c 0.0346,-0.04619 0.288668,-0.260564 0.325705,-0.280691 0.116231,-0.06311 0.100047,-0.063 0.242485,-0.08171 0.133601,-0.01753 0.722424,-0.04755 0.883754,0.02756 0.127653,0.05943 0.208799,0.13169 0.20556,0.279182 -0.0066,0.298371 -0.502292,0.640732 -0.710182,0.759538 -0.111835,0.06394 -0.171918,0.05217 -0.340194,0.09318 -0.222856,0.05427 -0.24707,0.111641 -0.338821,0.133994 -0.618242,0.0531 -0.45717,-0.662914 -0.268307,-0.931053 z m 8.191735,1.735783 c -0.05938,0.03867 -0.345609,0.146729 -0.535335,0.124257 -0.09331,-0.01109 -0.127504,-0.0039 -0.245229,3.1e-5 -0.107587,0.0036 -0.13904,0.01037 -0.2455,-0.0081 -0.20513,-0.03563 -0.536597,-0.117788 -0.74254,-0.203961 -0.302248,-0.126443 -0.629122,-0.35221 -0.839563,-0.65845 -0.09597,-0.139646 -0.0961,-0.229936 -0.09478,-0.389184 0.0013,-0.150171 0.128386,-0.38015 0.245088,-0.490499 0.08779,-0.08304 0.26691,-0.280384 0.322963,-0.362358 0.07279,-0.106373 0.110664,-0.113433 0.198935,-0.16201 0.177506,-0.09757 0.221702,-0.09735 0.388908,-0.102961 0.148786,-0.005 0.273262,-0.05916 0.377532,0.04456 0.0992,0.09869 0.09475,0.24808 0.101041,0.331738 0.0056,0.07378 0.0028,0.09702 -0.01137,0.14752 -0.04123,0.148081 -0.189704,0.324434 -0.239974,0.400426 M 23.999471,13.78117 c 0.418075,0.06454 0.840203,0.17988 1.203659,0.334551 0.528865,0.166569 0.539439,0.737042 0.283068,1.126741 -0.06142,0.08118 -0.09205,0.09652 -0.190479,0.169867 -0.126795,0.09455 -0.325491,0.189164 -0.482228,0.245092 -0.136234,0.04862 -0.283647,0.107621 -0.437625,0.112792 -0.332745,0.01117 -0.845492,-0.08873 -1.090957,-0.355731 -0.07992,-0.08697 -0.09516,-0.134526 -0.106211,-0.241663 -0.122151,-0.602597 0.216705,-1.466854 0.867233,-1.224683 m 1.79435,0.154381 c 0.788709,-0.492323 2.02504,0.285745 1.989243,0.816021 -0.06726,0.641917 -1.002005,0.744963 -1.446689,0.735228 -0.083,-0.0019 -0.110103,-0.0086 -0.197608,-0.04241 -0.13173,-0.05096 -0.273581,-0.09356 -0.398781,-0.190984 -0.309727,-0.202588 -0.06091,-1.200661 0.05384,-1.317855 z m 7.195052,-0.437815 c -0.0045,0.815279 -0.09833,1.85944 0.474187,2.436374 0.161856,0.160781 0.285267,0.164042 0.54246,0.08806 0.09014,-0.02667 0.133666,-0.05946 0.192399,-0.11274 0.461974,-0.418648 1.192444,-1.884081 0.611834,-2.227615 m 9.367052,-0.265523 c 0.06324,0.05913 0.128563,0.09387 0.254828,0.285717 0.108273,0.164543 0.327873,0.338884 0.457367,0.475101 0.229295,0.241159 0.377138,0.573188 0.584827,0.863186 0.113051,0.15781 0.241464,0.244234 0.3316,0.381232 0.118975,0.180761 0.34838,0.460172 0.418205,0.525461 m 4.048167,-0.430223 c -0.263464,-0.07561 -0.373385,-0.471643 -0.537335,-0.913828 -3.224457,-7.5905492 0.178231,-5.7852955 -0.60792,-1.058595 -0.09069,0.16215 -0.192745,0.277696 -0.272455,0.401516 -0.0606,0.09396 -0.05557,0.126935 -0.09139,0.199254 -0.0519,0.104837 -0.117969,0.206963 -0.186237,0.30053 -0.0693,0.09493 -0.0996,0.109872 -0.197291,0.211 -0.124705,0.129059 -0.161347,0.188802 -0.284621,0.287453 -0.118832,0.09512 -0.236937,0.195803 -0.385072,0.217306 -0.22671,0.03293 -0.484108,0.04009 -0.6255,-0.126131 -0.203943,-0.239853 -0.201011,-0.422648 -0.0867,-0.634687 0.05527,-0.102545 0.1424,-0.215581 0.235082,-0.302169 0.114699,-0.107195 0.268419,-0.162333 0.38507,-0.217307 0.100337,-0.04726 0.170952,-0.08392 0.290929,-0.09967 0.115192,-0.01511 0.247055,0.0178 0.344304,0.02929 0.05634,0.0067 0.184423,-0.0041 0.29422,-0.0017 0.199765,0.0044 0.223684,0.07405 0.298883,0.137101 m -18.798467,0.388758 c 0.143438,0.211082 0.302234,0.406348 0.65443,0.501196 0.226281,0.06091 0.542099,0.09622 0.836682,0.08633 m -29.2478532,3.088579 0.4409161,-0.01481 0.6861461,-0.01484 0.4942935,0.114157 0.2465976,0.04076 0.2975099,0.09629 c -0.035311,0.05343 -0.069116,0.09232 -0.089754,0.248245 -0.00674,0.05073 -0.069016,0.359764 0.060571,0.586517 0.043219,0.07565 0.1381208,0.199146 0.1650104,0.288733 0.046999,0.156595 0.044675,0.155742 0.1748028,0.337451 0.1038921,0.145023 0.2685855,0.372706 0.3855271,0.52656 0.137261,0.180539 0.25271,0.414044 0.364324,0.625362 0.086937,0.164523 0.1006042,0.355098 0.1242565,0.535333 0.084368,0.399226 0.188875,0.722362 0.023034,0.931098 -0.06658,0.07949 -0.1705723,0.149237 -0.2794568,0.197378 -0.1690987,0.07483 -0.4200858,0.07135 -0.6349584,0.07857 -0.1560305,0.0052 -0.2564208,0.02603 -0.4912777,-0.02435 -0.2566391,-0.0551 -0.319718,-0.07411 -0.5914526,-0.08641 m 4.9171673,0.374375 c -0.1039288,-0.0556 -0.1905478,-0.09517 -0.3119927,-0.283788 -0.070217,-0.109124 -0.1549258,-0.226382 -0.1807212,-0.338761 -0.1008724,-0.12217 -0.052945,-0.50263 -0.150303,-0.524325 0.1038859,0.01551 -0.1019312,0.483039 -0.2615697,0.498809 -0.1750653,0.08995 -0.2302795,0.160414 -0.3842493,0.241754 -0.1595102,0.08432 -0.2635599,0.06609 -0.3900059,0.07034 -0.096757,0.0032 -0.3378803,0.02768 -0.4409161,0.01481 -0.7023528,-0.325403 -0.2741076,-0.762084 0.00951,-1.177424 0.059013,-0.09326 0.1943993,-0.257595 0.2835244,-0.320129 0.1142342,-0.08015 0.3746417,-0.151039 0.5364295,-0.09159 0.2009672,0.07379 0.2432722,0.131561 0.4031679,0.32159 m 4.0016975,-3.518556 -0.08152,0.493198 -0.04392,0.639071 -0.05698,0.737604 -0.04076,0.246599 0.0066,0.195962 c 0.0503,0.587133 -0.10106,1.115716 -0.246189,1.675828 l -0.11096,0.347049 -0.138607,0.740344 m 2.316639,-2.57914 c -0.131237,-0.03326 -0.344787,2.03e-4 -0.684499,0.06384 -0.135105,0.02533 -0.194964,-0.0013 -0.391651,0.02136 -0.567011,0.03732 -0.865973,0.04593 -0.860445,0.666491 -0.04366,0.381124 0.291675,0.488357 0.414958,0.672709 0.05351,0.08355 0.09541,0.156537 0.155199,0.240017 0.0812,0.113365 0.136842,0.18124 0.197653,0.287638 0.298891,0.522994 0.566977,0.756719 0.875572,1.00056 0.06908,0.05457 0.103197,0.09649 0.151909,0.142037 M 4.5024522,18.39959 c 0.2653329,-0.0089 0.6027964,-0.01104 0.9360327,0.123893 0.1447416,0.05861 0.1889364,0.07919 0.3459517,0.07828 0.2107562,-0.0013 0.4468882,0.04767 0.6401689,0.07659 M 27.902643,20.017 c 0.13607,0.212263 0.50915,0.384244 0.798657,0.414593 0.189838,0.01991 0.284442,0.07083 0.396863,0.13381 -0.03929,0.09636 -0.04791,0.147667 -0.07993,0.29696 -0.05106,0.237772 -0.138312,0.749113 -0.189199,0.938227 -0.02463,0.09151 -0.02324,0.108293 -0.0424,0.197608 -0.01993,0.09288 -0.02415,0.107436 -0.0261,0.19706 -0.0014,0.06219 0.0085,0.111883 0.0066,0.195963 -0.0016,0.0724 -0.01649,0.114438 -0.03423,0.197333 -0.0291,0.135412 -0.03928,0.53484 -0.03085,0.785771 0.0052,0.154272 0.09426,0.176441 -0.0048,0.343483 -0.05746,0.09688 -0.433091,0.161681 -0.566639,0.166166 -0.156524,0.0053 -0.271356,0.04869 -0.391379,0.02947 -0.145365,-0.02322 -0.236405,-0.05274 -0.296137,-0.05544 M 13.821685,22.794959 c 0.01165,0.08161 0.05983,0.224975 0.498133,0.228502 0.203642,0.0016 0.573178,-0.0474 0.732941,-0.08186 0.388671,-0.06566 0.421798,-0.351445 0.08614,-0.599586 l -0.07623,-0.0792 c -0.09175,-0.100403 -0.141293,-0.151613 -0.236867,-0.237275 -0.234227,-0.209848 -0.45618,-0.295141 -0.689299,-0.565403 -0.09539,-0.110633 -0.41137,-0.381839 -0.30715,-0.627282 0.05459,-0.128519 0.181738,-0.195028 0.311859,-0.206656 0.07204,-0.0064 0.116677,-0.02055 0.196237,0.0016 0.427656,0.118993 0.744949,0.431993 0.852311,0.551738 m -5.044031,1.689817 C 9.8504664,22.902712 9.5035113,22.997497 9.2099737,22.753689 8.899889,22.496165 8.8675203,22.212884 8.9337604,21.831092 c 0.034485,-0.198617 0.2303558,-0.726259 0.3645049,-0.829689 0.154277,-0.11892 0.3168609,-0.03286 0.3913783,-0.02947 m 19.4085444,-0.406565 1.077794,-0.03619 m 2.696134,-0.0415 c -0.379728,0.365106 -0.508565,1.316848 -0.138379,1.721255 0.44364,0.465724 1.941044,0.61811 2.261294,0.398187 0.328625,-0.605391 0.185743,-1.748506 0.524228,-2.159295 m -17.1908,0.724452 c -0.04651,0.183572 -0.07935,0.501364 -0.07659,0.640169 0.155823,2.015427 -0.114988,1.214309 0.498888,0.170699 0.267886,-0.295595 0.352087,-0.470367 0.569584,-0.484524 0.148462,-0.01754 0.226797,0.191559 0.255923,0.318395 0.02798,0.121919 0.06341,0.252419 0.09483,0.389183 0.02781,0.121141 0.01753,0.178821 0.02618,0.293396 0.0092,0.121866 0.01701,0.130039 0.0654,0.243033 0.07786,0.181946 0.143526,0.356894 0.156888,0.534237 0.01643,0.218095 -0.03471,0.08935 0.05885,0.2923 M 22.9875,21.162952 c -2.067198,5.18069 1.216977,-1.755162 1.309766,-0.461362 -1.296157,5.630539 1.309471,-1.175579 1.071405,1.264222 -0.01649,0.51243 -0.111971,1.070676 0.05265,1.567703 0.07928,0.231336 0.124438,0.314227 0.312042,0.529026 m 11.629803,-2.744766 c -0.121568,-0.104652 -0.298447,-0.226477 -0.548221,-0.259532 -0.220903,-0.02922 -0.483082,0.06487 -0.630848,0.201037 -0.159562,0.147003 -0.260585,0.277326 -0.336307,0.452707 -0.05643,0.130739 -0.07558,0.2641 -0.07664,0.394941 -0.0021,0.25766 0.04022,0.45767 0.265244,0.595977 0.222454,0.136724 0.511139,0.09289 0.688067,0.04232 0.758307,-0.07241 0.511535,-0.456213 0.598315,-0.713972 0.06578,-0.134264 0.0895,-0.09756 0.05826,0.01809 -0.22171,0.838708 -0.300989,1.731591 -0.252215,2.513328 m 1.232263,-2.738908 c 0.468072,-0.07327 1.508144,-0.873059 1.742323,-0.45088 1.092862,3.004288 -3.01471,3.596755 0.714527,3.507313 m 4.601102,-3.195366 c 0.416342,-0.312543 0.936224,-0.285464 1.414424,-0.235495 0.150827,0.01789 0.251543,0.03609 0.394943,0.07664 0.149336,0.04221 0.334381,0.110649 0.426292,0.279958 0.14304,0.263626 -0.189913,0.57232 -0.393662,0.691673 -0.230785,0.135222 -0.459405,0.140545 -0.510794,0.368667 -0.02156,0.09568 0.02139,0.177416 0.0654,0.243033 0.09361,0.139531 0.232835,0.177182 0.377578,0.289787 0.09125,0.071 0.166722,0.147963 0.252904,0.228545 0.10912,0.102029 0.22805,0.190928 0.289145,0.333611 0.0478,0.111741 0.07129,0.175938 0.07519,0.291752 0.0083,0.245981 -0.17956,0.500806 -0.321544,0.648395 -0.263404,0.273793 -0.35031,0.310405 -0.622349,0.454124 -0.264471,0.139735 -0.65709,0.208195 -0.974604,0.188057 -0.122089,-0.0077 -0.185508,-0.03413 -0.295588,-0.03912 m -1.526026,-3.087691 c 0.108717,0.126467 0.143506,0.238006 0.21077,0.434334 0.08456,0.246804 0.06409,0.37506 -0.05863,0.688613 -0.182257,0.465779 -0.842061,1.205136 -1.346919,1.271381 -0.08814,0.01167 -0.314183,0.01485 -0.391927,0.01316 -0.194269,-0.0043 -0.474386,-0.277853 -0.581492,-0.519977 -0.05764,-0.130341 -0.04323,-0.14652 -0.0654,-0.243034 0.07192,-0.861942 0.299414,-1.670366 0.842391,-2.17812 0.07693,-0.071 0.164806,-0.08876 0.192949,-0.09643 0.547041,0.122001 0.982517,0.377577 1.19826,0.63007 z m -27.088842,0.999617 c -0.17148,0.08569 -0.295419,0.08133 -0.486617,0.114427 -0.990388,-0.085 -1.152213,-0.611605 -0.934161,-1.284677 0.02253,-0.07261 0.05252,-0.231201 0.08811,-0.297235 0.03685,-0.06828 0.216874,-0.318579 0.290882,-0.3449 0.114188,-0.04067 0.513457,-0.0834 0.635507,-0.06225 0.228416,0.03966 0.129591,0.0237 0.346776,0.102828 0.04017,0.01464 0.197265,0.07602 0.249066,0.114251 1.164946,1.147088 0.488243,1.330824 -0.189564,1.657546 z m 18.013542,-0.809269 c 0.03041,0.619515 -0.01016,1.227798 0.108211,1.76202 m -4.408883,-1.061752 c -0.113677,0.06169 -0.213272,0.07092 -0.486613,0.114427 -0.114306,0.01821 -0.186877,0.04503 -0.292304,0.05885 -0.184091,0.02414 -0.305061,0.02339 -0.488258,0.06544 -0.104843,0.02406 -0.140905,0.03372 -0.243308,0.05721 -0.246082,0.05648 -0.368068,0.107314 -0.48662,0.114427 m -7.735736,-0.08354 c 0.0395,0.180242 0.06749,0.108136 0.05068,0.292574 -0.01157,0.127417 -0.07768,0.323027 -0.123984,0.445578 -0.06432,0.17029 -0.13874,0.33773 -0.244815,0.498681 -0.18924,0.287095 -0.247398,0.28738 -0.459883,0.424144 -0.288048,0.185454 -0.594324,0.251653 -0.880736,0.0623"
       id="path157702"
       sodipodi:nodetypes="ccscccccccccccccccccccccccccccccccccssccsccsccscccccccccccccccsccccccccccccccccccsccccccsccscssccccccscsccccscsccccccccccccccccccccsccccccsccsccccscccccccccsccccccsccccccccccccccccccccccccccccscccccccccccccccccccsccccccccsccsccccccccccccccccsccccccccccccssccscsccccccccccsccccccccccccccccccccccccccccccccscccccccccccccscsscssccccsccccccccccccccccccccccscccccccc" /></g></svg>
