<?xml version="1.0" encoding="UTF-8" standalone="no"?>
<!-- Created with Inkscape (http://www.inkscape.org/) -->

<svg
   width="210mm"
   height="297mm"
   viewBox="0 0 210 297"
   version="1.1"
   id="svg113258"
   inkscape:version="1.2 (dc2aedaf03, 2022-05-15)"
   sodipodi:docname="Casey - Pulsz - Envelope 73.svg"
   xml:space="preserve"
   xmlns:inkscape="http://www.inkscape.org/namespaces/inkscape"
   xmlns:sodipodi="http://sodipodi.sourceforge.net/DTD/sodipodi-0.dtd"
   xmlns="http://www.w3.org/2000/svg"
   xmlns:svg="http://www.w3.org/2000/svg"><sodipodi:namedview
     id="namedview113260"
     pagecolor="#ffffff"
     bordercolor="#666666"
     borderopacity="1.0"
     inkscape:pageshadow="2"
     inkscape:pageopacity="0.0"
     inkscape:pagecheckerboard="0"
     inkscape:document-units="mm"
     showgrid="false"
     inkscape:zoom="2.8284272"
     inkscape:cx="166.52364"
     inkscape:cy="87.504462"
     inkscape:window-width="1920"
     inkscape:window-height="991"
     inkscape:window-x="-9"
     inkscape:window-y="-9"
     inkscape:window-maximized="1"
     inkscape:current-layer="layer1"
     inkscape:showpageshadow="2"
     inkscape:deskcolor="#d1d1d1" /><defs
     id="defs113255"><pattern
       id="EMFhbasepattern"
       patternUnits="userSpaceOnUse"
       width="6"
       height="6"
       x="0"
       y="0" /></defs><g
     inkscape:label="Layer 1"
     inkscape:groupmode="layer"
     id="layer1"><path
       style="fill:none;stroke:#2f2e31;stroke-width:0.0481086"
       d="M 2.8042057,2.184779 C 2.7245277,0.69796668 0.97584416,1.4861043 1.4181467,2.2810005 1.724541,2.7939353 2.2831214,3.2129142 2.7079881,3.6273228 3.5702613,4.3798607 4.4440374,5.5938099 3.1890754,6.0857274 3.0560068,6.136388 2.9446834,6.1694872 2.8042057,6.2148995 2.5734769,6.2895124 2.3177312,6.3266559 2.0825757,6.2976522 1.7516412,6.2568069 1.7285728,6.209177 1.5052717,6.0334875 M 18.558045,2.7389167 c -0.137057,0.3778337 -0.0096,0.7861007 0.03953,1.2740014 0.02247,0.1901736 0.03209,0.3277171 0.03459,0.5291956 0.0043,0.3484024 0.05528,0.344122 0.03348,0.5773044 -0.01404,0.1500021 -0.02958,0.207733 -0.03295,0.3367604 -0.0022,0.084053 -10e-4,0.1958503 -0.0087,0.2886527 -0.02198,0.2638753 -0.033,0.8930415 -0.04012,1.0583902 m 3.94491,-3.7524769 c -0.04859,0.248962 -3.84e-4,0.448711 0,0.6735219 3.02e-4,0.1677073 0,0.3059705 0,0.4810868 0,0.1358103 0.0039,0.2522811 -0.0018,0.3848693 -0.0082,0.1866612 -0.0893,0.4292744 0.02276,0.6007329 0.247727,0.15353 0.422878,0.3238358 0.606409,0.5538758 0.361921,0.388766 0.539586,0.868842 0.815972,1.2027156 M 34.976325,7.3040945 C 34.787645,7.4053158 34.538829,7.3290539 34.36357,7.3191837 34.222709,7.3113095 34.107536,7.2584697 33.9787,7.2082935 33.730413,7.1115953 33.544954,6.9758803 33.36652,6.7551099 32.890675,6.1664035 32.857482,5.013431 33.044576,4.301568 33.170857,3.4464464 33.989742,1.7050138 34.315386,2.6658749 m 4.179243,1.3209777 c -0.003,0.2656636 0.007,0.1706153 0.05985,0.4189702 M 15.553075,6.7070029 c 0.07038,0.4816646 0.534824,0.514089 0.962173,0.4366341 C 16.697533,7.110583 16.841089,7.061269 16.978246,6.9528866 17.114587,6.8451718 17.262617,6.6504275 17.273105,6.4662677 17.292351,6.1279186 16.949045,5.8247866 16.707682,5.6209009 16.568841,5.503661 16.428075,5.3865649 16.274705,5.294051 16.142839,5.2145305 16.029735,5.1737795 15.889835,5.1014245 15.690761,4.9985212 15.475764,4.900619 15.426164,4.6382818 c -0.03391,-0.1792045 0.09381,-0.3804432 0.271958,-0.472427 0.123929,-0.063937 0.290865,-0.078605 0.429466,-0.041413 0.216442,0.058013 0.25589,0.2066261 0.339552,0.2252441 m 6.059813,0.2405365 C 23.078619,4.4363217 23.323972,4.3451308 23.873995,4.253462 M 8.9089229,5.3503938 C 12.29285,3.7507623 5.8866248,4.0322686 9.3950923,6.46646 M 43.119272,5.359972 c -0.007,-0.083467 -0.02511,-0.2432367 -0.06206,-0.3839546 -0.186328,-0.4405016 -0.575137,-0.043766 -0.710211,0.082515 -0.381002,0.3572692 -0.517671,0.6070973 -0.457681,0.8305632 0.05138,0.1913281 0.188007,0.3004869 0.364038,0.3933359 0.705797,0.3588687 2.012652,0.4441384 1.058256,0.8245413 L 42.926841,7.2308999 42.397648,7.4286263 M 6.7972222,4.8307645 C 7.0212641,5.0434052 7.0969382,5.1034929 7.152456,5.4080689 7.2352086,5.8619749 7.0192919,6.6330594 6.5078481,6.7311539 6.1498712,6.7997604 5.9395396,6.4973453 5.7388311,6.3221337 5.6528647,6.4096383 5.5530351,6.5385751 5.4296844,6.6334925 5.281942,6.7471734 5.1205387,6.7219127 4.9918958,6.59164 4.6450481,6.0848128 4.7185704,5.4597439 4.7766575,4.8788733 m 7.9412265,3.428848 c -0.01852,-0.3673903 0.02515,-0.7314094 0.04413,-1.0234131 0.0086,-0.1518316 0.06326,-0.5019187 0.05326,-0.625414 -0.01212,-0.149473 -0.03935,-0.1972457 -0.04989,-0.3367596 -0.0093,-0.123976 -0.01381,-0.2214937 0.01626,-0.3367614 0.03007,-0.1153171 0.05821,-0.138601 0.07437,-0.2886526 0.03046,-0.2828303 0.138169,-0.6936296 0.436106,-0.7521305 0.301257,-0.059167 0.576246,0.41282 0.617812,0.7040217 0.03069,0.2149023 0.0572,0.6787179 -0.233181,0.7456855 -0.312654,0.3081349 -0.584566,0.3131872 -0.817844,0.3127056 m 5.0033,-1.6838079 c 0.278021,3.57e-5 0.419123,0.00879 0.577305,0.04253 0.04311,0.00916 0.107302,0.039545 0.22613,0.053691 0.484402,0.1591958 0.397534,0.022341 0.926793,0.1918583 M 11.75241,6.9956491 C 11.530293,6.7910896 11.261558,6.608999 11.069941,6.3223672 11.00995,6.2326468 10.941635,6.1216586 10.852778,5.9993179 c -0.07207,-0.099247 -0.09281,-0.1764147 -0.105359,-0.2547358 -0.02069,-0.1285952 -0.0071,-0.306116 0.07798,-0.4241744 0.06999,-0.096992 0.151447,-0.1644349 0.301642,-0.1943103 0.285862,-0.056914 0.561621,-0.036844 0.643502,0.1902697 0.08607,0.2387145 -0.289664,0.4210943 -0.430523,0.5089698 -0.09453,0.083705 -0.405448,0.2081432 -0.405448,0.2081432 m 9.586295,-0.166364 C 20.219905,5.55103 19.659762,5.1446659 19.749468,5.8891547 c 0.01953,0.1494245 0.11017,0.2967814 0.234578,0.3950197 0.110554,0.087267 0.315497,0.1928673 0.475795,0.1236876 0.304809,-0.1189008 0.242193,-0.5677298 0.433229,-0.3262749 0.128306,0.3030853 0.359805,0.6246916 0.673521,0.6735228 m 0.983126,-1.5641545 c -8.8e-4,0.3224724 -0.07409,0.7401049 -0.09434,1.2027174 -0.0095,0.2172096 -0.0709,0.4652047 -0.0709,0.6981948 M 24.988221,5.9373175 C 25.370389,5.9332875 25.86745,6.0586639 25.771186,5.6244608 25.678046,5.5165583 25.553158,5.4807562 25.415327,5.4246661 25.15044,5.3168029 24.935828,5.2632087 24.762684,5.4633411 24.463947,6.1535115 24.93791,6.3748862 25.367218,6.8032203 M 35.951081,5.7448348 c 0.581436,-0.3618023 1.067205,0.3864487 1.153174,0.8659533 -5.49e-4,0.1701602 -0.03291,0.2762874 -0.107427,0.4329771 -0.05845,0.12287 -0.107763,0.2273628 -0.198545,0.327718 -0.533743,0.5394623 -1.453883,-0.2691191 -1.535466,-0.760696 0.01745,-0.1088703 0.02838,-0.3228606 0.12643,-0.3652899 0.209418,-0.09059 0.28702,0.1515422 0.321364,0.2209636 m 3.790272,-0.4948237 c 0.09607,0.2747483 0.04954,0.4702946 0.109106,0.5772714 m -0.387515,1.1202588 c 0.02357,-0.2704183 0.139222,-0.6070351 0.178913,-0.8177512 0.02945,-0.1562081 0.04571,-0.2331778 0.208602,-0.3025076 1.396948,-1.3456548 0.742867,0.6933164 0.526549,1.1683749 M 5.7869371,5.9853695 5.7388311,6.32213 M 38.126284,5.4399027 c -0.19811,0.3827432 -0.139703,1.2411006 -0.106476,1.5076386 M 26.569892,7.9578209 C 27.015534,7.922863 27.542519,7.692454 27.778808,7.5420197 27.930591,7.4456611 28.139623,7.3624306 28.301075,7.2557257 28.425917,7.1731745 28.576786,7.0728642 28.564181,6.9035692 28.54109,6.5941351 27.797427,6.3353587 27.580168,6.2369758 27.418666,6.1638004 27.277851,6.1057838 27.099127,6.0260683 27.006135,5.9845455 26.913573,5.958469 26.839486,5.8690407 26.72032,5.7251969 26.770834,5.5071678 26.854877,5.3681822 27.191114,4.9772773 27.605404,4.915786 28.01314,5.2156301 M 22.24011,32.733793 c -0.06639,-0.357687 -0.08939,-0.687183 -0.03439,-1.154608 0.03782,-0.32103 0.01631,-0.508894 0.120079,-0.865957 0.06981,-0.240303 0.144471,-0.506342 0.352349,-0.635708 0.2734,-0.170254 0.802644,0.265897 0.952984,0.499562 0.180936,0.281147 0.265512,0.576824 0.230537,0.857775 -0.02155,0.173097 -0.0714,0.292648 -0.177234,0.43298 -0.13504,0.179062 -0.263731,0.312033 -0.434084,0.480894 -0.116711,0.115702 -0.40315,0.335463 -0.529147,0.373565 -0.112285,0.03397 -0.277923,-0.01429 -0.40825,0.09275 -0.138649,0.113873 -0.103339,0.438367 -0.135329,0.592265 -0.142846,0.521606 0.103219,0.781896 -0.01211,1.041427 m 3.971404,-3.735507 c 5.23e-4,0.06129 -0.0098,0.102997 0.01007,0.241749 0.03267,0.227986 0.08554,0.286822 0.08607,0.5761 3.85e-4,0.193589 -0.0177,0.485514 0.0059,0.673521 0.07255,0.594195 -0.08688,0.722617 0.008,1.491367 l 0.08246,0.914063 m 2.982782,-2.261105 c -0.125086,-0.468238 0.264399,-0.303556 0.577305,-0.282497 0.284995,0.03387 0.706713,0.220868 0.866771,0.483156 0.09603,0.157317 0.05682,0.317902 -0.01719,0.472859 -0.333295,0.693009 -1.201977,0.894481 -1.251537,1.43022 0.07054,0.381322 0.934094,0.516456 1.267871,0.638454 M 2.3231192,32.25271 c -0.4131157,-0.328208 -0.3772206,0.530952 -0.3569903,0.673527 0.07249,0.506247 0.1304227,0.983628 0.3471907,1.443211 0.074304,0.157556 0.1568678,0.269554 0.2801223,0.397762 0.1211375,0.125996 0.2393888,0.217067 0.4031988,0.287837 0.1339824,0.05788 0.2840333,0.108533 0.4327855,0.05498 0.2256295,-0.08125 0.3113586,-0.290913 0.4252813,-0.499995 0.086736,-0.159094 0.1475483,-0.23289 0.2256286,-0.384868 0.1176263,-0.228852 0.070905,-0.332478 0.070905,-0.67352 M 27.96504,32.541362 c -1.601013,-0.23715 -0.60119,0.527177 0.04809,1.028519 0.164436,0.131771 0.367888,0.305301 0.436155,0.510965 0.199075,0.599721 -0.907572,0.721484 -1.157784,0.721631 m 8.322817,-2.405445 c -0.133648,0.02204 -0.397474,-0.04271 -0.564653,0.07957 -0.538023,0.644667 -0.535176,1.666384 -0.387307,2.373971 0.09102,0.41537 0.343259,0.815343 0.759588,1.02428 0.15616,0.07837 0.36731,0.132878 0.529195,0.121477 0.21168,-0.01495 0.321558,-0.04825 0.529198,-0.08738 M 11.704308,32.49324 c 0.800793,0.877202 1.426094,2.233629 -0.293836,2.497002 -0.559263,0.03829 -0.840988,-0.30453 -1.202716,-0.476422 m 13.721529,-1.884923 c -0.15074,0.421485 -0.289362,0.405118 -0.316836,0.970661 0.03142,0.192531 0.151109,0.312659 0.311696,0.401707 0.224908,0.124794 0.402381,0.06913 0.575187,-0.05047 0.178339,-0.1234 0.377605,-0.464154 0.574706,-0.418403 0.112141,0.02609 0.152602,0.109735 0.19484,0.165205 0.116953,0.153613 0.225581,0.342678 0.33883,0.479451 M 5.8831428,32.878131 c 0.3961156,0.138905 0.6233841,0.490098 0.6637248,0.865946 0.013807,0.156356 -0.038291,0.272587 -0.09881,0.43298 -0.153851,0.407674 -0.3483068,0.897706 -0.9016524,0.909541 C 5.2096447,35.09374 4.8701905,34.946843 4.640568,34.733196 4.4325291,34.507721 4.2863167,34.405706 4.0803361,34.225166 M 16.755699,33.118671 c 0.160826,-0.136003 0.531491,-0.273755 0.721389,-0.192434 0.516877,0.119615 0.457358,0.788478 0.297364,1.106499 -0.09579,0.182672 -0.204751,0.295486 -0.345373,0.431055 -0.27191,0.262145 -0.524095,0.436201 -0.865762,0.484695 -0.194264,0.02757 -0.551086,0.01668 -0.721632,-0.04378 -0.104395,-0.03699 -0.145606,-0.178205 -0.28868,-0.150352 -0.190367,0.03714 -0.349625,0.22165 -0.529167,0.239304 -0.321654,0.03171 -0.705274,0.109162 -1.010089,-0.08915 -0.231836,-0.150773 -0.413543,-0.458573 -0.479163,-0.679342 -0.05158,-0.173431 -0.05474,-0.243334 -0.06244,-0.432976 -0.19198,-0.826066 0.445264,-0.715699 0.445196,-0.09621 m 11.156697,-0.644662 v 0.481085 M 8.7696855,33.118674 c -0.085197,0.130131 -0.2012872,0.258197 -0.2674361,0.389151 -0.090013,0.178385 -0.070483,0.280856 -0.069275,0.524911 0.0022,0.450927 0.2230805,1.000854 0.6734733,1.166829 0.3070784,0.113152 0.6600031,-0.138361 0.8616263,-0.349701 0.108774,-0.114064 0.192051,-0.194503 0.239679,-0.336036 0.03978,-0.118205 0.0079,-0.296065 0.0052,-0.43298 M 40.227469,33.83514 c -0.225892,1.445465 -0.565249,1.761565 0.342854,0.192501 0.170599,-0.205579 0.293203,-0.40291 0.395263,-0.62493 0.399411,-0.633574 0.94652,-0.711223 0.917432,0.143652 -0.0047,0.191953 -0.08299,0.47406 -0.118155,0.673521 -0.02572,0.145864 0.0041,0.411667 0.133454,0.473341 0.12234,0.05836 0.214034,-0.01795 0.314003,-0.105069 0.116326,-0.101314 0.23102,-0.252958 0.345662,-0.367552 0.476898,-0.491705 1.492521,-1.351125 1.578013,-0.241262 0.01269,0.176557 -0.03329,0.310301 -0.06524,0.481086 -0.163278,0.722746 -0.06403,0.968465 -0.118341,1.395143 M 37.87355,34.097332 c 0.299863,0.144952 0.723458,0.492296 0.800576,0.849457 0.05008,0.232076 -0.05383,0.385639 -0.203113,0.531118 -0.164533,0.160393 -0.357542,0.243335 -0.595588,0.236502 -0.143892,-0.0041 -0.249971,-0.02647 -0.384864,-0.06494 -0.370152,-0.10555 -0.645191,-0.418783 -0.699601,-0.798892 -0.02092,-0.146011 0.04277,-0.358169 0.0829,-0.481086 0.147016,-0.533307 0.268077,-0.634711 0.999691,-0.272155 z m -5.626829,0.368374 c 0.0094,0.291923 0.08708,0.354659 0.240545,0.481089 M 15.553005,34.513821 v 0.240538 m 4.425998,-0.240538 0.04811,0.28865 m 72.114903,7.168183 c 0.162511,0.25344 0.369045,0.464 0.577776,0.677998 l 0.3257,0.620937 0.482049,1.010281 0.649944,1.44326 0.44982,1.15461 0.305007,0.962174 0.194842,0.625413 0.138073,0.432977 0.734272,1.282817 m 2.829621,-7.392613 -0.278546,0.673518 -0.736066,2.164891 -1.165184,3.70437 -0.81545,1.972457 -0.186179,0.432979 -0.389683,0.962169 -0.381982,0.865953 -0.468581,1.106505 -0.292976,1.106505 M 106.04539,43.75068 c 0.038,0.433988 0.0953,0.42605 0.0962,0.865956 5.6e-4,0.35365 0.0481,0.896408 0.0481,1.250826 v 0.384872 c 0,0.179923 0.003,0.337239 -5.5e-4,0.529193 -0.005,0.216487 9.2e-4,0.432976 -0.002,0.625414 -0.0173,0.901073 -0.0702,1.816582 -0.0933,2.742193 -0.008,0.365625 -0.0664,0.797162 -0.0923,1.15461 -0.0332,0.450776 -0.0563,0.811591 -0.12076,1.298935 -0.0539,0.402183 -0.0761,0.631663 -0.0761,1.010283 0,0.392562 -0.0794,0.71489 -0.0279,1.106495 0.0341,0.255939 0.0448,0.553252 0.26844,0.673525 m -1.58757,-11.594192 -0.0962,1.39515 -0.0399,0.529196 -0.008,0.721631 -0.0501,1.491366 -0.0462,0.625415 v 0.384867 l -0.0279,0.625417 -0.0765,0.673518 -0.14819,1.20272 -0.0842,0.625411 -0.11643,0.769733 -0.0361,0.432981 -0.13181,1.298942 0.0438,0.43297 m 19.67642,0.0481 c 0.47387,0.0697 1.02615,0.17031 1.63568,-0.0856 0.35216,-0.148162 0.74184,-0.42094 0.96507,-0.732205 0.10488,-0.146252 0.18425,-0.304533 0.21937,-0.481087 0.18138,-0.904449 -0.407,-1.581815 -0.91551,-2.261112 -0.18955,-0.254012 -0.36033,-0.476756 -0.56672,-0.701424 -0.12604,-0.136629 -0.21456,-0.262673 -0.3358,-0.405077 -0.30404,-0.356965 -0.59461,-0.756748 -0.85778,-1.154607 -0.10872,-0.164533 -0.19194,-0.299716 -0.25257,-0.481086 -0.11738,-0.352155 -0.2593,-0.86788 -0.2747,-1.250826 0.035,-1.410274 1.48383,-3.751467 2.49973,-1.828128 m 14.91369,0.336759 c 0.0684,0.686513 0.19244,1.582295 0.19244,2.309216 0,0.269411 -9.2e-4,0.524386 -0.0481,0.76974 -0.0664,0.347825 -0.0265,0.732695 -0.0525,1.106499 -0.0581,0.844307 -0.16743,1.66023 -0.29731,2.501649 -0.10584,0.684586 -0.41855,2.019605 0.15731,2.549765 m 6.1081,-7.900569 c 0.0993,-0.706618 1.1751,-0.195392 1.73191,-0.116424 0.13998,0.02021 0.2391,0.03271 0.38487,0.05629 0.22227,0.03656 0.36995,0.04666 0.5773,0.06831 0.2848,0.02982 0.62252,0.107759 0.91406,0.149136 0.42721,0.06109 0.87607,0.114016 1.29895,0.183293 0.36129,0.05917 0.66678,0.122196 1.05838,0.188586 m -3.46212,0.25129 c 0.47147,0.620601 0.44838,1.843522 0.37669,2.597867 -0.0525,0.550842 -0.0375,1.246013 -0.19435,1.780022 -0.0515,0.174632 -0.10633,0.266526 -0.12268,0.432972 -0.0245,0.241032 -0.0174,0.432503 -0.0837,0.721631 -0.13904,0.606169 -0.35697,1.174816 -0.54412,1.780029 -0.0673,0.217929 -0.10631,0.365137 -0.15731,0.625407 -0.0409,0.209276 -0.0602,0.285773 -0.0442,0.384874 0.35119,-0.08372 0.63023,-0.06492 1.05839,-0.123637 0.54699,-0.07552 1.04492,-0.119794 1.49137,-0.261237 m 7.45685,-7.889822 c -0.0789,0.112575 -0.1578,0.244393 -0.18281,0.38487 -0.0251,0.138553 -0.0269,0.228036 -0.0438,0.384868 -0.0476,0.447894 -0.14337,0.882795 -0.0822,1.347047 0.0235,0.18281 0.0201,0.345418 0.0201,0.529192 0,0.470023 0.0395,0.985746 -0.0201,1.443261 -0.0192,0.145287 -0.0275,0.247282 -0.0279,0.38487 -9.1e-4,0.333398 -0.0477,0.894338 -0.0481,1.154609 -0.63889,0.0052 -1.17481,-0.437303 -1.78002,-0.577301 m 14.76935,-3.608155 c 0.17573,0.187189 0.13303,0.402565 0.10491,0.625411 0,0.145291 0.0755,0.653317 0.0953,0.81785 0.0173,0.14529 0.0361,0.244873 0.0399,0.384869 0.006,0.22515 5.5e-4,0.480606 5.5e-4,0.72163 0,0.380058 0.0106,0.714418 -0.011,1.106501 -0.009,0.177998 -0.0313,0.311265 -0.0375,0.481088 -0.006,0.147695 -0.0192,0.287684 -0.0505,0.43298 -0.0265,0.122672 -0.0996,0.210232 -0.11692,0.336757 -0.0433,0.319928 -0.0207,0.579711 -0.0726,0.673525 l 0.43297,0.220816 0.72162,0.404591 m -37.63161,-5.13175 c 0.007,0.300679 0.16461,0.191311 0.29403,0.598791 m -33.86337,4.292416 c -0.17607,0 -0.30308,-0.0072 -0.48109,0.0041 -0.270846,0.01881 -0.502247,0.03605 -0.769733,-0.02067 -0.181858,-0.03844 -0.293461,-0.04238 -0.481087,-0.122194 -0.838532,-0.356483 -1.34512,-1.203684 -1.254191,-2.074444 0.04862,-0.467137 0.311261,-0.924653 0.598954,-1.298939 0.561909,-0.731733 1.751157,-1.255157 2.675797,-1.145949 0.28289,0.03368 0.68506,0.158761 0.68891,0.472428 0.006,0.509471 -0.79137,0.929941 -1.17,1.124299 -0.31174,0.160201 -0.605203,0.372361 -0.914056,0.555178 -0.195326,0.11594 -0.287693,0.169822 -0.384875,0.244876 m 8.755771,-0.673527 c 0.64899,0.584044 1.43076,0.998254 1.6867,1.972458 0.30692,1.168553 -1.43172,1.753561 -2.26208,1.130075 -0.59076,-0.443565 -0.52727,-1.445194 -0.27758,-2.044143 0.0794,-0.190505 0.049,-0.270367 0.13806,-0.41422 0.20206,-0.326171 0.56481,-0.110165 0.76301,0.0775 m 24.48732,0.432948 c -0.19195,-0.323761 -0.16693,-0.60328 -0.37717,-0.911169 -0.11307,-0.165017 -0.29491,-0.225639 -0.48879,-0.142886 -0.40844,0.174154 -0.66583,0.603769 -0.8977,0.909735 -0.21602,0.284797 -0.44262,0.618198 -0.58116,0.962175 -0.1892,0.574843 -0.1659,1.378452 0.27707,1.69292 0.66631,0.444999 1.55392,0.247274 1.92387,0.231402 m 40.89192,-2.69408 c -0.17174,-0.215519 -0.32136,-0.422873 -0.16982,-0.768772 m -60.4471,-0.193423 c -0.12172,0.171266 -0.11114,0.294425 -0.10108,0.529193 0.007,0.173676 -0.051,0.386796 -0.0351,0.577301 0.0235,0.278075 0.0808,0.558551 0.0885,0.817855 0.005,0.164046 0.0356,0.275177 0.0717,0.43298 0.0346,0.150096 0.0539,0.245832 0.0938,0.384864 0.0361,0.127491 0.0616,0.218895 0.10969,0.336757 0.15924,0.386318 0.6437,1.110837 1.16759,0.826996 0.72789,-0.393537 0.53112,-0.986711 0.52921,-1.644841 m 14.04772,0.2391 c -0.13904,0 -0.24919,-0.01631 -0.38487,-0.04862 -0.34156,-0.0803 -0.82842,-0.313665 -1.0401,-0.583554 -0.29636,-0.377655 -0.28336,-1.398521 0.18041,-1.637133 0.30837,-0.158281 0.63551,0.0083 0.90781,0.192905 0.12844,0.08705 0.24006,0.180896 0.38486,0.252573 0.16886,0.08321 0.26509,0.0775 0.43298,0.194847 0.21744,0.152017 0.41519,0.356484 0.49119,0.62012 0.11361,0.451209 -0.38024,0.998947 -0.97228,1.00886 z m 29.2022,-1.5862 0.91407,0.384874 m -42.76861,-0.336767 c 0.16339,0.387012 0.4708,0.642756 0.7298,0.886643 0.26749,0.253539 0.47003,0.444044 0.51284,0.845269 0.0293,0.279997 -0.0318,0.479644 -0.13277,0.721631 -0.0697,0.167901 -0.16501,0.304045 -0.29395,0.430581 -0.10777,0.105355 -0.29097,0.135267 -0.42568,0.190115 -0.73366,0.298271 -1.50147,-0.405556 -1.82813,-0.654763 m 43.29243,-2.467583 c 0.11354,0.306456 -0.0467,0.446932 -0.1174,0.865961 -0.0275,0.165013 -0.0602,0.310299 -0.075,0.481077 -0.0303,0.345909 -0.0428,0.786577 -0.14865,1.106506 -0.0578,0.174632 -0.0875,0.283362 -0.0919,0.481086 m -3.63515,-1.471865 c -0.32892,0.869805 -0.50009,1.795382 0.18287,0.365849 0.17079,-0.381498 0.46041,-0.713933 0.74617,-1.05069 0.19052,-0.224671 0.41855,-0.543634 0.68507,-0.587886 0.3079,-0.05101 0.37909,0.502247 0.38487,0.72403 0.005,0.176554 5.5e-4,0.302601 5.5e-4,0.481087 0,0.607125 0.0548,1.345594 0.19243,1.780019 m 4.32975,0.288675 -0.5292,-0.246798 c -0.602,-0.671247 -0.93956,-1.472637 -0.54936,-2.206779 0.051,-0.0885 0.10201,-0.189549 0.18329,-0.262192 0.14096,-0.126047 0.26123,-0.206876 0.51044,-0.192437 0.10148,0.0062 0.18666,0.02264 0.28431,0.0775 0.1222,0.06877 0.19822,0.166934 0.28481,0.280952 0.22419,0.295382 0.29058,0.50658 -0.0409,0.788021 -0.44116,0.374766 -0.84334,0.403146 -1.24986,0.559017 M 137.02784,55.24842 c -0.005,0.0616 0.008,0.165501 -0.077,0.278553 -0.0943,0.125082 -0.17512,0.14914 -0.3079,0.238133 -0.17126,0.114985 -0.59847,0.325705 -0.81784,0.339168 -0.19099,0.01112 -0.39738,-0.0481 -0.56624,-0.180886 -0.26074,-0.205422 -0.12508,-0.595583 -0.0103,-0.867395 0.29756,-0.588119 0.5927,-0.544467 1.15391,-0.432981 m 24.24651,2.645981 c 0.0288,-0.0991 0.0596,-0.219383 0.12268,-0.336768 0.17992,-0.332913 0.3738,-0.507545 0.51283,-0.815922 0.0645,-0.143365 0.13664,-0.219861 0.21939,-0.34301 0.41409,-0.633721 1.15048,-1.252948 1.74297,-1.054067 m 6.06169,-0.0481 c 0.43491,0.126793 1.32637,0.611778 1.39504,0.529434 m 0,0 c 0,0.427693 0.005,1.002584 -0.23045,1.683805 -0.29878,0.719262 -0.27457,1.304124 -0.53884,2.068461 m -32.98341,-3.425856 0.62541,0.769738 m -4.0129,-2.58627 c -0.0515,1.127441 0.38998,1.515514 0.62613,2.211545 m 42.96105,-0.28865 c -0.14481,0.309332 -0.31078,0.851033 -0.5037,1.152678 -0.19104,0.208353 -0.26759,0.438598 -0.3406,0.675447 -0.0991,0.192915 -0.26652,0.399781 -0.38968,0.577301 -0.19629,0.282874 -0.40028,0.48012 -0.64226,0.72163 -0.43394,0.433459 -0.87317,0.569125 -0.99826,-0.14433 -0.024,-0.136144 -0.0448,-0.247275 -0.0558,-0.384864 -0.009,-0.113062 -0.0111,-0.183773 -0.0245,-0.288649 -0.0183,-0.138078 -0.0279,-0.209765 -0.0269,-0.336768 5.5e-4,-0.129891 0.0111,-0.21071 0.026,-0.336757 0.0226,-0.190993 0.0327,-0.315108 0.007,-0.529194 0.0154,-0.432132 -0.18623,-1.047868 0.35069,-1.106494 m 4.47411,0.144289 c 0.32425,-0.229003 0.81111,0.103463 0.8573,0.529182 0.0188,0.171756 0.005,0.278076 -0.0322,0.432981 -0.10662,0.637323 -0.62534,0.715839 -1.12324,0.557764 m 0.29818,-1.519928 c -0.77277,0.515855 -1.37986,1.476342 -1.25077,2.261101 0.0269,0.140476 0.0385,0.247752 0.0495,0.384864 0.0115,0.140964 0.0452,0.244397 0.0909,0.384874 0.20205,0.628295 0.61193,1.211859 1.01412,1.635699 M 165.07514,56.35492 c 0.28219,-0.837517 -0.4492,-0.494976 -0.76834,-0.0953 -0.10439,0.118828 -0.23139,0.26027 -0.31992,0.383908 -0.14528,0.2035 -0.32089,0.552774 -0.17511,0.76445 0.11979,0.174154 0.26699,0.199168 0.44549,0.194837 0.127,-0.0031 0.21215,-0.02888 0.33676,-0.07511 0.27517,-0.10149 0.58115,-0.226103 0.81784,-0.41181 0.43604,-0.27331 0.61637,-0.584578 0.63274,-0.0404 0.0103,0.06347 0.0501,0.216485 0.18715,0.208787 m 3.07699,1.331725 c -0.37381,0.165979 -0.84864,0.289124 -1.34705,0.356962 -1.56466,0.250822 -1.78842,-1.351278 -1.07952,-2.176984 0.22177,-0.238622 0.43586,-0.543145 0.74279,-0.636481 0.51716,-0.02505 0.42277,0.142366 0.57729,0.580279 M 146.0245,56.210572 c 0.20494,0.41662 0.74568,0.387274 1.25082,0.384864 0.16357,-10e-4 0.2439,5.5e-4 0.38486,-0.0375 0.1198,-0.03272 0.35163,-0.08439 0.48008,-0.106535 m 24.53164,-0.345115 c -0.5671,0.333741 -0.77639,2.529577 -0.28386,2.317277 m -78.032345,5.43626 c 0.223711,0.43056 0.532563,0.478677 0.962176,0.336757 0.318961,-0.105354 0.611461,-0.304523 0.807749,-0.625407 0.160011,-0.261237 0.165505,-0.481575 0.156349,-0.721631 -0.0046,-0.12557 0.0018,-0.215052 -0.01007,-0.336767 -0.02307,-0.230914 -0.11207,-0.496483 -0.192918,-0.721632 -0.215049,-0.597027 -0.785134,-1.247936 -1.290275,-1.627512 -0.160204,-0.120324 -0.502732,-0.373323 -0.695175,-0.217452 -0.155873,0.12557 -0.242434,0.489263 -0.258824,0.642257 -0.103454,0.454366 0.03992,0.793989 -0.104727,1.250824 v 0.481088 l 0.0683,0.865951 0.03607,0.625407 0.03992,0.432981 0.03992,0.529194 0.0082,0.721631 v 0.769748 m 9.23714,-5.689342 c 0.64997,-0.247753 1.39661,0.515731 1.43846,1.119012 0.0308,0.436824 -0.24006,0.704792 -0.50418,1.010282 -0.14433,0.167422 -0.51476,0.533047 -0.41229,0.718743 0.15972,0.288172 0.53353,0.353606 0.82506,0.589818 0.3714,0.300191 0.80583,0.666305 1.03289,1.096875 0.13614,0.25786 0.26412,0.579233 0.0861,0.865951 -0.25352,0.407489 -0.89674,0.637447 -1.31144,0.797162 -0.3738,0.14433 -0.73125,0.24151 -1.1065,0.294904 -0.17175,0.02452 -0.48301,-0.0041 -0.61146,-0.106311 -0.16406,-0.130379 -0.1809,-0.174642 -0.34831,-0.360337 -0.16598,-0.184262 -0.2035,-0.226115 -0.19244,-0.481088 0.0188,-0.434902 0.23718,-0.285284 0.19437,-0.914067 -0.0106,-0.155872 -0.005,-0.482044 -0.005,-0.625408 -5.5e-4,-0.221305 -0.0212,-0.333391 -0.0399,-0.529194 -0.0298,-0.312231 -0.0616,-0.803415 -0.0554,-1.154611 0.008,-0.497449 -0.0943,-0.936194 0.14482,-1.393224 0.0986,-0.189549 0.18955,-0.20591 0.28961,-0.34302 0.0875,-0.120272 0.37285,-0.508502 0.5749,-0.585487 m -4.938764,1.840643 c -0.121501,0.381375 -0.09775,0.490266 0.203933,0.735582 0.112089,0.0991 0.247764,0.243432 0.343014,0.371401 0.212641,0.285763 0.47195,0.621563 0.561909,0.961686 0.178964,0.677368 -0.368038,1.837755 -1.077149,2.03789 -0.226594,0.06399 -0.346383,-0.0052 -0.529193,-0.09723 -0.431059,-0.21794 -0.717791,-0.745689 -0.851525,-1.21908 -0.07838,-0.277098 -0.108252,-0.57971 -0.110651,-0.86595 -9.15e-4,-0.2035 0.01538,-0.361304 0.07124,-0.577312 0.03708,-0.14432 0.07407,-0.240543 0.130858,-0.384863 0.262981,-0.540913 1.139941,-1.850791 1.257569,-0.962123 z m 9.989744,0.09809 c 0.11354,0.17752 0.10681,0.250641 0.13085,0.431049 -9.1e-4,0.584377 0.45433,1.038106 0.7544,1.337379 0.17849,0.178964 0.35167,0.357451 0.45702,0.58692 0.40556,0.881357 -0.2925,2.143722 -1.19741,2.36455 -0.19774,0.04861 -0.40316,0.07757 -0.62542,0.08279 -0.79667,0.01971 -1.39057,-0.76926 -1.39515,-1.533222 -0.003,-1.177883 1.27669,-3.986207 1.87571,-3.269465 z m 2.40596,-0.09819 c 0.1092,0.194847 0.14337,0.407001 0.21841,0.625418 0.191,0.552286 0.32041,1.14547 0.55133,1.491368 0.75701,-0.351327 1.3572,-1.92539 2.16489,-1.731912 m 6.97562,-0.192424 c 0.55088,0.286944 1.09254,0.315925 1.53947,0.460893 0.73943,0.2367 1.5669,0.559506 2.06867,0.69373 m -5.77303,-0.865952 -0.088,0.432981 -0.0563,0.384864 -0.0909,0.336767 -0.67929,2.212989 -0.19195,0.625418 m 3.27138,-3.896805 c -0.0764,0.273255 -0.36226,0.609057 -0.55855,0.914068 -0.10969,0.1703 -0.21985,0.349752 -0.31944,0.529193 -0.18501,0.374482 -0.0553,0.506973 0.30069,0.481106 0.3844,-0.02929 0.7991,-0.166935 1.20273,-0.139999 0.2949,0.01974 0.50225,0.05391 0.76973,0.101491 0.2213,0.03896 0.45655,0.158759 0.62349,0.297802 0.14818,0.123637 0.25401,0.274211 0.24055,0.462316 -0.0236,0.339167 -0.31415,0.541223 -0.57538,0.73366 -0.15059,0.110653 -0.27278,0.207344 -0.43298,0.30308 -0.34205,0.203988 -0.72885,0.347352 -1.1065,0.462815 -0.3281,0.101074 -0.50995,0.08611 -0.86596,-0.0083 m 5.67683,-4.137349 c 0.10294,0.347831 0.0212,0.70768 -0.10535,1.106495 -0.35361,1.110358 -0.91697,2.454031 -1.38602,3.36761 m -12.60438,-2.934505 c 9.2e-4,0.197725 -0.0683,0.269785 -0.003,0.480983 0.076,0.24583 0.1549,0.45895 0.22322,0.72163 0.12604,0.48301 0.27759,0.820733 0.30885,1.202709 m -1.7319,-0.432971 0.23958,-0.384874 c 0.26332,-0.457152 0.52966,-0.821703 0.96025,-1.106494 m -18.422742,9.862279 c 0.03077,-0.164057 0.07068,-0.379099 0.08854,-0.529204 0.04331,-0.354552 0.05777,-0.83083 0.206863,-1.250815 0.07984,-0.224671 0.177042,-0.277598 0.237179,-0.384874 0.064,-0.11354 0.123158,-0.367547 0.161165,-0.577301 0.04761,-0.26027 0.11305,-0.622052 0.214078,-0.865961 0.107767,-0.258338 0.283848,-0.984779 0.679299,-0.976125 0.312222,0.0062 0.563831,0.603769 0.65139,0.831805 0.07453,0.19387 0.09429,0.328582 0.177518,0.529194 0.105845,0.25545 0.101029,0.552287 0.130383,0.865951 0.03131,0.337245 0.05146,0.739435 0.05146,1.058388 0,0.368513 -0.0037,0.713455 0,1.058398 0.0027,0.200124 0.02747,0.299236 0.01584,0.481088 -0.01108,0.180407 -0.01584,0.328581 -0.01584,0.529193 m -2.446787,-4.907086 v 0.817854 c 0,0.284797 0.05869,0.812069 0.03415,1.058388 -0.0293,0.296348 0.03122,0.370913 0.110166,0.481088 m 17.360478,-1.491379 0.11642,0.673524 0.0761,1.106505 -0.10728,0.769738 -0.0543,0.529194 c -0.0378,0.33838 -0.10044,0.629761 -0.27435,0.915051 l -0.14192,0.383908 -0.4806,1.058387 m 6.35046,0.384847 c 0.3354,-1.030029 0.10619,-2.241821 -0.005,-3.271387 -0.0201,-0.229481 0.0462,-0.547477 0.0673,-0.721631 0.0515,-0.425283 -0.008,-0.658607 0.17704,-0.99633 0.0967,-0.176076 0.36177,-0.445966 0.62685,-0.47339 0.43249,-0.04477 0.8496,0.794752 0.97565,1.132963 0.18329,0.494072 0.16693,1.010281 0.17944,1.539475 0.008,0.353596 0.0548,0.58933 0.0472,0.914068 -0.006,0.26267 -0.0424,0.607602 -0.0837,0.865951 -0.0461,0.283841 -0.0601,0.565759 -0.0601,0.817844 m -1.86229,-3.800581 c -0.2245,-0.457199 -0.24982,-0.353905 -0.32994,-0.790494 m 6.522,-0.219779 c -0.0327,0.169345 -0.12797,0.641291 -0.18474,0.817855 -0.0567,0.17752 -0.11691,0.401702 -0.16597,0.5773 -0.039,0.139999 -0.0818,0.240544 -0.13038,0.384864 -0.18907,0.561916 -0.37379,1.053101 -0.54891,1.587592 -0.16502,0.503214 -0.32426,0.856332 -0.50515,1.347049 -0.13759,0.372356 -0.21504,0.481076 -0.29298,0.817844 m -0.43297,-5.29196 0.12024,0.562825 c 0.12026,0.418494 0.41327,0.996283 0.65333,1.36142 0.22467,0.342054 0.38265,0.460142 0.63763,0.682891 m 5.46833,-2.510901 c 0.12855,0.69791 0.11185,1.46435 0.15827,2.26099 l 0.0341,0.481087 V 75.8867 l -0.008,0.336757 -0.18426,1.202718 m 11.69053,-4.32969 c 0.19869,-0.615799 1.28017,-0.148662 1.97245,0.07552 0.21649,0.07023 0.67161,0.1703 0.75724,0.410366 0.0543,0.151062 -0.0761,0.241509 -0.18186,0.325216 -0.43208,0.422117 -1.21169,0.772739 -0.47926,1.032428 0.3233,0.117384 0.60907,0.187139 0.85778,0.427682 0.14192,0.137599 0.25064,0.286729 0.27856,0.47099 0.0462,0.305012 -0.20976,0.708636 -0.40605,0.962165 -0.52438,0.678822 -1.43748,1.369653 -2.17355,1.587592 m -1.68368,-5.29196 -0.0967,0.673525 -0.0519,0.5773 -0.29154,1.683805 -0.0947,0.384864 -0.13856,0.529194 m -5.53243,0.240534 c 0.18811,0.09578 0.29875,0.243431 0.57731,0.311264 0.68073,0.165013 2.03162,-0.182329 2.19472,-0.984789 0.0803,-0.395449 -0.17224,-0.754343 -0.4633,-0.981413 -0.25737,-0.200613 -0.56671,-0.331947 -0.86547,-0.452219 -0.23621,-0.09526 -0.64225,-0.156838 -0.72884,-0.444522 -0.0592,-0.196769 0.11883,-0.432015 0.22323,-0.575379 0.36474,-0.420438 0.51951,-0.869832 0.93859,-0.829926 0.17993,-0.0072 0.54844,-0.01589 0.76974,-0.02649 0.75579,-0.0375 1.59384,0.136632 2.21299,0.375244 m -40.122881,0.865997 c 0.08945,0.04959 0.191472,0.108703 0.384866,0.12989 0.375253,0.04041 0.911661,-0.324738 0.787056,-0.706713 -0.09333,-0.285248 -0.262669,-0.240053 -0.450295,-0.228526 -0.246345,-0.0071 -0.366372,0.112225 -0.503218,0.277158 -0.274152,0.353188 -0.363808,0.655962 -0.241025,1.009277 0.05576,0.221295 0.198687,0.372357 0.359367,0.528228 0.368038,0.356973 0.854418,0.409888 1.154609,0.482054 m 32.617681,-2.35733 c 0.0649,0.284807 0.12122,0.687475 0.0976,1.106504 -0.008,0.145764 -0.0298,0.249198 -0.0635,0.384864 -0.0409,0.163569 -0.025,0.363225 -0.0486,0.529194 -0.076,0.534014 -0.22851,1.057432 -0.32233,1.539486 m -1.49136,-3.463824 c -0.0462,0.364181 -0.33484,1.119002 0.0148,1.394666 0.22659,0.178486 0.68891,0.167901 0.94726,0.122672 0.17512,-0.03075 0.37429,-0.08321 0.5773,-0.108243 0.16068,-0.02015 0.25845,-0.01354 0.3229,-0.01395 M 112.8773,73.192686 c -0.85182,0.214668 -1.89699,0.474721 -2.58693,1.099759 -0.38552,0.481669 0.45236,1.094172 0.69005,1.403826 l 0.56528,0.719709 0.70622,0.769737 m -7.79371,-1.731894 c 0,0.162125 0.005,0.398826 -0.0765,0.521019 -0.0822,0.122193 -0.15106,0.172222 -0.27422,0.290572 -0.12027,0.11595 -0.21408,0.192437 -0.37092,0.281919 -0.15636,0.08902 -0.25065,0.109686 -0.43298,0.108253 -0.19581,-0.001 -0.40459,-0.03803 -0.5773,-0.122682 -0.21313,-0.1044 -0.40892,-0.317041 -0.48109,-0.549887 -0.14385,-0.460883 0.26892,-1.221479 0.72163,-1.389379 0.41037,-0.152018 0.60328,0.380542 0.72163,0.667759 m -5.147626,-0.673535 c 0,0.462804 -0.04569,1.039627 0.264592,1.441329 0.170788,0.220818 0.486389,0.306934 0.697583,0.225627 0.391596,-0.151061 0.33676,-0.412288 0.33676,-0.849112 m 1.587541,-0.625418 c 0.0371,0.116429 0.0856,0.291539 0.17079,0.529205 0.0539,0.151061 0.14529,0.321362 0.16118,0.481076 0.0221,0.230925 0.002,0.48061 -0.12653,0.672559 -0.46858,0.697582 -1.61478,-0.173173 -1.864938,-0.422851 m 13.253698,-0.20158 c 0.75116,0.908177 0.47374,1.690904 0.2404,2.164892 m -8.8802,-2.028747 0.46119,0.777922 m 0.96231,-0.28866 c -0.23873,1.246567 -0.06,0.44632 0.31995,0.04618 0.0894,-0.141442 0.12268,-0.23669 0.21937,-0.382941 0.43106,-0.654286 0.93571,-1.568822 1.81803,-1.587583"
       id="path11669"
       sodipodi:nodetypes="cccccccccccccccssccccccsccccccccccccccccccccccccccccccccccccccccccccccsccccccccccccccccccccccccccccccccccccccccccccccccsccccccssscscccccccccccccccccscccccccsccccscccccccccccccccccccccsscccccccccccccccccccccsccccccccsccccccccccccccccccccccccccccccccsscccccscccccccccccccccccccscccccccccscccccccccscccccccccccccccsccccccccsccccccccccccccccccccccscccccccccccccccccccccccccccscccccccccccccccccccccsccccccccccccccccccccccccccccccccccscccccsccccccccccccccccccccccccccccccccsccccccccccccccccccccccccccccccccccccccccccccccccccccccccccccccccccccccccccccccccccccccccccccccccccsccccsccccccccccccccsccccccccccccccccccccccccccccccsccccccccccsccccccccccccccccscccccccccccccccccccccccccccccscccccccccccccc" /><path
       style="fill:none;stroke:#010101;stroke-width:0.0526428"
       d="m 1.2999542,13.396361 c -0.1569981,-0.235034 -0.2029564,-0.39795 -0.253721,-0.56832 -0.26951329,-1.18354 1.6210607,-1.471479 2.3316532,-1.280972 0.2133513,0.06357 0.4119121,0.152545 0.5869485,0.360222 0.1401929,0.166333 0.058165,0.376271 -0.037871,0.528644 -0.1751996,0.359586 -1.1031221,0.758761 -0.9650896,1.20239 0.7655388,0.663478 2.0606984,0.552793 2.6602321,1.356683 0.2750867,0.390994 -0.3419184,0.764014 -0.627024,0.906271 -0.750337,0.439337 -2.3887415,1.021996 -3.1194204,0.947265 m 5.3561977,-5.139828 c 0.069077,-0.0013 0.1093737,-0.02055 0.2649093,0.03208 0.1550536,0.05247 0.2756721,0.10438 0.428159,0.147753 0.3236021,0.09204 1.061619,0.137329 1.3783102,0.184368 m 0,0 c 0.2166445,0.03218 0.4935104,0.04407 0.791987,0.0349 m 0.566754,-0.288783 c -0.182553,0.407048 -0.251608,0.876361 -0.342765,1.174604 -0.08094,0.271621 -0.190194,0.785627 0.174919,0.967052 1.175905,-0.0063 1.523265,-0.140178 1.571194,-0.09575 m 0,0 c 0.03635,1.155566 -0.225402,1.304735 -0.01785,2.117146 m 25.538459,-5.417963 c 0.01328,0.297288 0.06574,0.292212 0.08077,0.628738 0.02617,1.043105 -0.03013,1.849513 -0.129704,2.798642 -0.01483,0.73224 -0.284159,1.625635 -0.27829,2.225629 0.0025,0.147909 -0.02075,0.404889 -0.02676,0.580843 m -24.806954,-4.31917 c -0.196338,0.454214 -0.242544,1.19976 -0.359669,1.386137 m 27.442045,-2.75427 c -0.165413,0.937626 -0.267549,2.252466 -0.234281,3.014094 0.0631,0.794605 -0.04104,1.671585 -0.209872,2.380659 m 8.314914,-1.425183 c -0.120485,0.0054 -0.230642,-0.01283 -0.42033,0.02758 -1.236508,0.324703 -0.847955,2.006117 0.327138,1.425714 2.299715,-2.879473 -0.640359,-12.4216804 1.260063,1.076684 M 16.880814,13.016815 c -0.55614,0.156667 -1.045169,0.417449 -1.549926,0.692766 -0.502324,0.363844 -1.987654,1.452842 -1.83401,2.198489 0.03141,0.147409 0.253977,0.317163 0.418867,0.332617 0.296913,0.02779 0.7659,-0.204721 0.98278,-0.412751 0.486018,-0.502146 0.801516,-0.904025 0.366885,-1.421607 -0.209209,-0.367159 -0.590928,-0.396053 -0.877627,-0.575593 -0.339263,-0.213828 -0.908793,-0.198478 -0.964459,-0.554146 0.06892,-0.332866 0.761339,-1.322497 0.81153,-0.510495 m -7.5011552,3.127794 c 0.1143515,0.142862 0.1614652,0.200778 0.328458,0.275157 0.2063491,0.09191 0.3962081,0.03405 0.6303038,-0.04569 0.1635012,-0.05573 0.2477037,-0.06881 0.4132858,-0.18534 0.1040192,-0.0732 0.1617371,-0.117671 0.2551255,-0.187025 0.1735627,-0.129002 0.2392946,-0.220571 0.3349647,-0.366276 0.1398244,-0.213073 0.1895378,-0.437983 0.138322,-0.63852 -0.30132,-0.662753 -1.2026675,-0.889249 -1.8215607,-0.86718 -1.5394374,0.519146 -0.6619854,-0.957883 -0.062229,-1.393647 0.2669617,-0.172124 0.336298,-0.04136 0.735092,-0.05917 m 20.3055873,3.94128 c 0.06187,0.0086 0.197696,0.03734 0.2653,0.04085 0.600588,0.0098 1.168442,-0.664365 0.796831,-1.03679 -0.397894,-0.369228 -1.264253,-0.553234 -1.548141,-1.037473 -0.202034,-0.344618 0.302028,-0.622433 0.572697,-0.74576 0.256983,-0.117076 0.445369,-0.179606 0.735485,-0.05039 m 1.491931,1.364955 c 0.269498,-0.114511 0.971697,-0.420897 1.150212,-0.806694 0.281854,-0.67167 -0.734132,-0.323484 -1.040948,-0.102806 -0.527586,1.099457 -0.307983,1.801503 0.782301,2.178272 m 6.974325,-1.944972 c 0.366295,-0.03678 0.785424,-0.05894 1.102052,-0.101902 0.604197,-0.100171 1.125709,-0.261434 1.776331,-0.342793 m -14.801736,1.007374 c 0.511466,0.140853 0.848371,0.27922 0.861993,0.721665 0.0089,0.199896 0.05263,0.377161 -0.239469,0.537646 -0.216739,0.119126 -0.69853,0.226533 -0.938236,0.03308 -0.174764,-0.141007 -0.236514,-0.415743 -0.264447,-0.611735 -0.01917,-0.13436 0.0043,-0.186734 0.05601,-0.318673 0.05563,-0.141968 0.150656,-0.337549 0.244557,-0.423682 0.145335,-0.133327 0.21829,-0.193154 0.420876,-0.23387 m -4.283362,2.241874 c -0.109735,-0.02651 -0.171473,-0.0579 -0.324935,-0.196273 -0.09411,-0.08486 -0.265523,-0.231121 -0.384571,-0.351695 -0.08682,-0.08791 -0.135288,-0.16564 -0.222104,-0.253559 -0.522437,-0.820335 -1.264201,-0.40472 -1.270635,-1.313341 0.02628,-0.548146 0.60958,-0.527556 1.066045,-0.908274 0.430755,-0.360599 0.869,-0.864996 0.947729,-1.394847 0.02367,-0.159302 0.08016,-0.376251 -0.06052,-0.568163 -0.16093,-0.219488 -0.478889,-0.326779 -0.722886,-0.257545 -0.825258,0.334676 -0.811769,0.84755 -1.003277,1.308414 -0.906593,6.610911 -0.228771,5.202124 -0.122869,-0.120817 m 15.365832,2.62054 c 0.204606,-0.159582 0.384607,-0.381773 0.383764,-0.649479 -1.74e-4,-0.09131 -0.02966,-0.175679 -0.116531,-0.249474 -0.09875,-0.08396 -0.22454,-0.112226 -0.417029,-0.09557 -0.241602,0.06206 -0.472889,0.194275 -0.669195,0.354852 -0.368444,0.308315 -0.293902,0.364029 -0.114174,0.786727 0.466455,0.544265 0.937642,0.692638 1.608852,0.823983 M 24.085021,15.040073 c 1.606503,0.252717 -0.174277,1.816016 -1.033568,1.63581 -0.787784,-0.516257 -0.241948,-1.383996 0.18507,-1.75601 0.211789,-0.138084 0.553079,-0.0075 0.848498,0.1202 z m 8.042804,-0.438167 c -0.05885,0.09116 -0.08549,0.164855 -0.102221,0.268042 -0.01967,0.121444 -0.03497,0.15385 -0.04085,0.265299 -0.0072,0.138384 0.0159,0.208017 0.02523,0.367741 0.01036,0.176014 0.04636,0.312626 0.108807,0.469399 0.125302,0.314898 0.310871,0.473708 0.620274,0.516804 0.106789,0.01488 0.136617,0.01366 0.21036,-0.0094 0.08819,-0.02749 0.185768,-0.08459 0.257084,-0.143218 0.193864,-0.159364 0.614112,-0.735172 0.70552,-0.918522 0.273818,-0.517092 0.124653,-0.512407 0.104389,-1.005873 m 11.586817,2.22278 c -0.209146,-0.241911 -0.234899,-0.300571 -0.409127,-0.508684 -1.428328,-1.63356 -2.418067,-1.477258 -0.42014,-2.721395 0.77953,-0.614595 1.202488,-1.624097 0.417886,-2.442644 -0.519513,-0.518984 -0.899098,-0.253961 -1.206621,0.317355 -0.08033,0.149247 -0.202873,0.495769 -0.234776,0.642827 -0.17864,0.897085 -0.671916,7.273155 -0.210147,3.75075 0.106132,-0.638193 0.08222,-3.287789 -0.06393,-3.755291 m -31.242232,6.786731 c -0.01915,0.799064 -0.02399,1.477263 -0.06149,2.163252 -0.04588,0.67598 0.02489,1.224201 -0.06485,1.893249 0.01386,0.679481 -0.112826,1.463905 -0.131845,1.962293 m 2.210208,1.1133 c -0.312537,-0.792839 -1.966669,-1.647373 -2.092979,-2.225137 -0.270367,-1.539245 1.206987,-1.497206 2.358718,-1.264618 M 4.9207755,20.137767 c 0.1070201,-0.04788 0.3476909,-0.01553 0.6310858,-0.02818 0.6372861,-0.02595 1.3219324,0.14911 1.955239,0.123476 M 28.359236,22.25291 c 0.615628,0.301291 1.374974,0.33345 1.930219,0.546155 -0.02254,1.064763 -0.245054,1.946251 -0.330723,3.0184 -0.236911,0.141956 -0.481505,0.126891 -0.749082,0.138839 m 1.278426,-3.429584 -0.198621,0.272345 m -18.832382,2.105592 c -0.09267,0.0041 -0.207539,-0.0064 -0.368134,0.01644 -0.179182,0.02555 -0.454085,0.07297 -0.628737,0.08077 -0.206154,0.0092 -0.440341,-0.02049 -0.6903282,-0.118462 C 9.6710247,24.8446 9.5769436,24.801694 9.4994845,24.728588 9.3850549,24.62056 9.3207841,24.451011 9.3317096,24.314517 9.3461368,24.133601 9.4528498,23.970962 9.5472324,23.830635 9.7119758,23.58557 9.9101602,23.41558 10.124454,23.383299 m 4.882009,1.942515 c -0.110447,0.15348 -0.325383,0.466392 0.07998,0.611225 0.390358,0.07129 0.883558,-0.239683 0.930362,-0.603644 0.01872,-0.174466 -0.01561,-0.232954 -0.10411,-0.364218 -0.08595,-0.127479 -0.274276,-0.292595 -0.412822,-0.394328 -0.364069,-0.265702 -1.281671,-0.368774 -1.208434,-0.903357 0.292547,-0.569603 1.140058,-0.511335 1.627345,-0.336141 m 8.316328,-0.503132 c -0.05393,0.55039 -0.145363,0.783371 -0.171821,1.166968 -0.439789,2.495081 0.131019,0.291506 0.677945,-0.982552 0.956252,-2.241547 0.357342,2.088125 0.950112,0.461999 0.201187,-0.452422 0.624602,-1.889527 1.060029,-1.830172 0.151358,0.02633 0.141057,0.113108 0.166773,0.194534 0.02485,0.07867 0.113857,0.451573 0.139795,0.573406 0.305032,0.906455 0.167282,1.87918 0.273437,2.780641 m 2.958062,-2.397981 c 0.592744,0.242487 1.299583,-0.153444 1.984968,-0.194023 M 7.8704924,23.650832 c -0.087353,-0.01381 -0.3478727,-0.0243 -0.5835836,-0.08813 -0.6473555,-0.196399 -1.2275761,0.899561 -0.330561,0.857886 0.1901144,-0.0085 0.4390915,-0.03583 0.6283455,-0.08955 0.1481576,-0.06057 0.2620585,-0.116964 0.349075,-0.166859 0.5809054,-0.333083 0.071595,-0.401224 0.106276,0.142941 0.012201,0.191878 0.191264,0.440717 0.491825,0.780857 0.2291425,0.236512 0.3690263,0.239622 0.6779044,0.233205 M 4.3606403,24.11493 c -0.2238009,0.508345 0.2882816,0.810643 0.7243778,0.881022 0.9163661,0.159276 1.3205057,-0.427744 1.3674884,-1.237907 C 6.4299629,23.413823 6.3565486,23.122268 6.2676306,22.76509 6.2300176,22.6178 6.2002054,22.49888 6.1173682,22.350237 5.8611804,21.89037 5.5464506,21.418731 5.2738905,20.965127 5.1869579,20.820461 5.0533443,20.605054 5.0049843,20.450181 4.9493337,20.271921 4.996214,20.276995 4.9207773,20.137769 4.400784,19.76751 3.4194031,19.726065 2.9051206,19.841358 2.6896763,19.893293 2.628925,19.885521 2.494572,20.088018 m 33.017762,2.846704 c -0.133582,0.466767 -0.258799,0.834054 -0.320558,1.279 -0.02063,0.544316 -0.124624,1.228218 0.08628,1.735092 M 17.250406,23.64953 c 0.03298,-0.01078 0.491871,0.202072 0.647101,0.335205 0.228931,0.196396 0.416707,0.499019 0.458296,0.822661 0.02876,0.224093 -0.105566,0.589684 -0.230076,0.748008 -0.26881,0.35154 -0.740203,0.498312 -1.145641,0.305831 -0.519929,-0.285562 -0.667849,-0.741841 -0.421751,-1.18436 0.120812,-0.214014 0.370673,-0.514206 0.499681,-0.610761 0.19379,-0.155035 0.456726,-0.115558 0.543685,-0.05756 m 22.716259,1.71522 c -0.189842,0.01108 -0.710547,0.169896 -0.990607,0.237467 -0.09108,0.02193 -0.204623,0.02822 -0.314762,0.0316 -0.135821,0.0042 -0.247378,0.05841 -0.313804,-0.144075 -0.03135,-0.09556 0.04558,-0.279686 0.182792,-0.429725 0.402892,-0.440552 0.937466,-0.922503 1.288784,-1.427623 0.08962,-0.12889 0.201818,-0.302262 0.244167,-0.432465 0.0423,-0.130202 0.07811,-0.334836 -0.05622,-0.471748 -0.127587,-0.130098 -0.158111,-0.123308 -0.269996,-0.146031 -0.106033,-0.0215 -0.164944,-0.03558 -0.2653,-0.04085 -0.11245,-0.0059 -0.146623,0.0065 -0.262952,0.01174 -0.331951,0.01482 -0.360665,-0.0016 -0.629518,0.06327 -0.276313,0.06661 -0.59625,0.128589 -0.828142,0.335549 m -0.897235,-0.333203 c -0.209573,0.0094 -0.272091,-0.03066 -0.431224,0.08515 -0.309601,0.320504 -0.742701,0.995449 -0.396312,1.352627 0.66078,0.02995 0.646466,-0.197111 0.743185,-0.426032 0.606242,-1.434892 -0.412338,-0.960128 0.218273,2.288932 m -3.61108,-2.98044 c -0.103229,0.39782 -0.148268,1.063417 0.469238,1.065612 0.370724,-0.03374 0.677793,-0.02516 0.994522,-0.149797 m 9.380811,-1.156607 c 0.171171,0.623664 1.274196,0.546064 1.323691,0.731325 0.03289,0.496741 -0.573207,0.55862 -0.619809,0.8708 -0.03354,0.358086 0.287021,0.375021 0.492492,0.408372 0.516424,0.130249 1.353148,0.515555 1.363683,1.03691 0.0037,0.217624 -0.02357,0.266478 -0.191968,0.421333 -0.933253,0.648795 -1.660917,0.970272 -2.694389,1.024931 m -2.820347,-3.74102 c 0.580608,0.239257 0.872397,0.210345 1.257169,0.596405 0.165074,0.144656 0.303389,0.240024 0.380485,0.457269 0.0615,0.173151 0.03658,0.257521 0.01009,0.421112 -0.01877,0.115556 -0.0369,0.228501 -0.09109,0.320239 -0.07957,0.134607 -0.134797,0.174592 -0.234092,0.265129 -0.11605,0.105829 -0.173444,0.141063 -0.307321,0.198155 -0.114434,0.04885 -0.179721,0.07132 -0.311238,0.110544 -0.176396,0.05256 -0.715509,0.111838 -0.892862,0.06621 -0.33479,-0.09364 -0.67638,-0.458359 -0.473347,-0.962528 0.0384,-0.166756 0.159712,-0.452194 0.298494,-0.592976 0.133746,-0.135602 0.477635,-0.294921 0.615039,-0.38753 0.222066,-0.06548 0.152309,-0.06278 0.360429,-0.08486 m -22.863913,0.02699 0.04207,0.505248 c 0.02325,2.919272 -0.102171,-2.182784 1.17987,-0.08556 0.05857,0.107887 0.08341,0.152096 0.134488,0.257471 0.05021,0.103676 0.08268,0.20767 0.128,0.310456 0.08361,0.189501 0.187681,0.569582 0.223376,0.675065 m 9.077174,-0.08914 c 0.478121,-0.06978 0.875694,-0.292864 1.353261,-0.376599 m -9.586634,0.480756 c 0.2247,0.288116 0.387098,0.428359 0.145102,0.889341 -0.06819,0.129829 -0.245066,0.337969 -0.350129,0.419649 -0.327513,0.254651 -0.298788,0.268966 -0.618563,0.308644"
       id="path29139"
       sodipodi:nodetypes="cccccccccccsccccccccccccsccccccccccccccccccccccccscscccccccccscccccsccccscccscscscccccccccccccccccccsccccccccccsccccccccccccccccccccccccccscccccccccccccccccccccssccccccccccccccccccccccccccccscsssccccccscccccccccccccccccscccccccccccccccccc" /></g></svg>
