<?xml version="1.0" encoding="UTF-8" standalone="no"?>
<!-- Created with Inkscape (http://www.inkscape.org/) -->

<svg
   width="210mm"
   height="297mm"
   viewBox="0 0 210 297"
   version="1.1"
   id="svg160080"
   inkscape:version="1.2 (dc2aedaf03, 2022-05-15)"
   sodipodi:docname="Casey - Pulsz - Envelope 76.svg"
   xml:space="preserve"
   xmlns:inkscape="http://www.inkscape.org/namespaces/inkscape"
   xmlns:sodipodi="http://sodipodi.sourceforge.net/DTD/sodipodi-0.dtd"
   xmlns="http://www.w3.org/2000/svg"
   xmlns:svg="http://www.w3.org/2000/svg"><sodipodi:namedview
     id="namedview160082"
     pagecolor="#ffffff"
     bordercolor="#666666"
     borderopacity="1.0"
     inkscape:pageshadow="2"
     inkscape:pageopacity="0.0"
     inkscape:pagecheckerboard="0"
     inkscape:document-units="mm"
     showgrid="false"
     inkscape:zoom="2.534831"
     inkscape:cx="155.03992"
     inkscape:cy="101.58468"
     inkscape:window-width="1920"
     inkscape:window-height="991"
     inkscape:window-x="-9"
     inkscape:window-y="-9"
     inkscape:window-maximized="1"
     inkscape:current-layer="layer1"
     inkscape:showpageshadow="2"
     inkscape:deskcolor="#d1d1d1" /><defs
     id="defs160077"><pattern
       id="EMFhbasepattern"
       patternUnits="userSpaceOnUse"
       width="6"
       height="6"
       x="0"
       y="0" /></defs><g
     inkscape:label="Layer 1"
     inkscape:groupmode="layer"
     id="layer1"><path
       style="fill:none;stroke:#65595c;stroke-width:0.0532905"
       d="m 24.184679,1.3229352 c 2.75e-4,0.3953703 0.06304,0.7856188 0.135358,1.1723989 0.07679,0.4106056 0.0826,0.8312832 0.184387,1.1723979 M 36.068537,6.1724027 C 35.670667,6.4350196 35.162701,6.290868 34.741862,5.8503651 34.266774,5.3530553 34.151133,4.4977742 34.150066,3.8276046 34.149517,3.5530824 34.138546,3.3858928 34.172707,3.1348244 34.223811,2.7593366 34.344465,2.289738 34.571268,1.9624255 35.050421,1.180515 35.487145,1.6975706 35.56662,2.4445436 M 2.9749213,5.159876 C 2.9330453,5.1836984 2.7751285,5.2085281 2.8332208,5.3613152 3.0298906,5.8785563 4.187144,5.4000084 4.3318658,4.9467126 4.7114568,3.7577731 2.8437565,3.1181061 2.5101877,2.495089 2.4780244,1.1952266 3.1392878,1.5339328 3.9341567,1.9624297 M 19.761539,2.1222981 c 0.09363,-0.070362 0.151303,0.9024927 0.251289,1.2789838 0.0973,0.3676972 0.171757,0.7278044 0.25617,1.0658171 0.118199,0.4735427 0.0461,1.0109811 0.02548,1.4921427 m 5.915258,-2.9842898 c -0.378153,0.2718844 -0.941063,0.6692257 -1.33094,0.8515872 -0.145697,0.068144 -0.201066,0.1121614 -0.267786,0.160938 L 24.504424,3.667732 M 39.479153,5.7460789 C 39.395861,5.3836216 39.348338,4.8485559 39.673517,4.5827787 M 9.5296954,5.8526576 C 9.0484258,5.6450364 8.0441603,4.86635 8.5477054,4.2029802 8.6534343,4.0636454 8.7747237,3.9815517 8.9434957,3.9216894 9.198014,3.8314157 9.7060356,3.7644919 9.8429389,4.0484578 10.013577,4.4023093 9.3946029,4.7553455 9.103369,4.7335491 m 4.476429,1.2789806 c 0,-0.3567294 -0.06156,-0.4822297 -0.06129,-0.8526537 2.75e-4,-0.3303499 -0.03245,-0.6411632 0.09129,-0.9589903 0.221796,-0.5696682 0.842476,-0.2112185 1.195688,0.048974 0.649135,0.4782003 0.645725,1.1997583 -0.106582,1.6367439 -0.511539,0.297042 -0.65276,0.1665869 -1.119108,0.125926 l -0.05329,0.8526529 M 10.808676,5.106585 c -0.05165,-0.2390626 -0.03288,-0.4071952 0.08377,-0.6373479 0.160246,-0.3162923 1.264005,-0.8802956 1.431125,-0.3188022 0.0583,0.1959664 -0.155875,0.3678032 -0.290009,0.4757328 -0.40032,0.3218771 -0.825207,0.3620044 -1.224889,0.4804173 m 17.745854,2.0250527 c 0.232134,0 0.367333,0.016356 0.586198,-0.024943 0.448016,-0.084465 1.138453,-0.3873705 1.370694,-0.779166 0.141861,-0.2393822 0.111646,-0.4382636 -0.07242,-0.68596 C 30.200148,5.3201713 29.880188,5.1891286 29.567052,4.982254 29.350105,4.8389543 28.963532,4.7126553 28.924259,4.4135547 28.877413,4.057508 29.263454,3.8448669 29.567,3.9970175 c 0.249027,0.1248286 0.324701,0.2978699 0.373089,0.4700732 M 24.611004,3.987473 c 0.0543,0.3406463 0.28452,0.3290923 0.527313,0.5872119 0.409433,0.4353335 0.588277,1.0301119 0.698377,1.5977133 M 5.2131369,4.1473497 C 5.1203574,4.3846595 5.0073275,4.5504949 5.0339198,4.8401309 5.0944581,5.4995514 5.8028532,5.7313664 6.2263025,5.223025 6.341464,5.0847359 6.3289402,4.8400779 6.3322449,4.6802583 M 19.256473,4.2539356 20.268998,4.467099 M 45.021402,7.7711271 C 45.433713,7.6017693 46.014103,7.3093621 46.404619,6.9161825 46.588793,6.7307309 46.745146,6.4875111 46.610537,6.2277717 46.392094,5.8062943 45.694146,5.5938773 45.287854,5.4581447 44.988093,5.358068 44.303786,5.2733324 44.237171,4.8911298 c -0.02845,-0.1632828 0.08809,-0.3289635 0.194142,-0.4410616 0.407619,-0.4307756 1.050522,-0.26056 1.176286,0.1768993 M 7.238189,4.2539315 C 7.5643289,4.4546198 7.9732832,4.7247025 7.8426673,5.159876 7.7662469,5.4145531 7.5150348,5.6661384 7.238189,5.7216141 6.8077588,5.8078392 6.4715469,5.4480722 6.2263025,5.223025 M 24.611006,3.9874771 c -0.0012,0.4390636 -0.101888,1.1136728 -0.182467,1.7053076 -0.02612,0.191794 -0.0306,0.3413271 -0.0307,0.5329087 m 3.623778,0.1598729 C 27.267284,6.3788063 26.447512,5.5997922 26.67485,4.7871069 26.74332,4.542182 26.902403,4.4607114 27.115673,4.3884323 c 0.239861,-0.081291 0.545217,-0.1473124 0.798563,-0.1175594 0.300506,0.035297 0.341222,0.2978482 0.152571,0.5138362 -0.244338,0.2796698 -0.581936,0.470824 -0.951134,0.4817487 m -3.73035,0.8526568 C 22.659229,4.2390771 22.635536,5.9565394 21.57423,5.3335009 21.238924,5.1198047 21.175081,4.7369636 21.525686,4.5447968 21.975568,4.2981875 22.259501,4.7898276 22.467815,5.051965 M 20.268998,4.467099 c 0.330882,0.017218 0.525181,0.1232086 0.852654,0.3197452 m 15.853049,0.1568394 c 0.384546,0.00115 0.65164,0.030427 0.897842,0.4295773 0.184547,0.2991222 0.1927,0.8626195 -0.258833,0.9025871 C 37.231614,6.309742 36.800546,6.269008 36.513202,6.0250608 36.321246,5.8621513 36.234169,5.538303 36.38898,5.2802683 36.512935,5.0738196 36.726844,4.9429907 36.974701,4.9436834 m 4.392825,0.7835984 c 0.0035,0.192371 -0.002,0.5142974 0.02661,0.5360822 0.09864,0.074998 0.326953,-0.6580783 0.549195,-0.8027061 0.138768,-0.132641 0.310688,-0.5977099 0.551081,-0.4560634 0.142766,0.084147 0.137809,0.3160151 0.15955,0.475035 0.08271,0.6055969 -0.194722,1.1946213 0.342396,1.4921443 M 10.808676,5.1065851 c 0.04631,0.3186258 0.1336,0.5004544 0.48889,0.7567298 0.252439,0.182095 0.494432,0.2103387 0.79009,0.2557962 M 39.500149,3.296896 39.660021,2.9771509 M 16.777252,5.7993696 C 17.5665,6.8506897 19.254348,6.2643071 18.319543,5.3296078 17.946559,4.9719193 17.450634,4.6887851 17.041628,4.3625703 16.886764,4.2390793 16.620417,4.1114905 16.611517,3.88299 c -0.0076,-0.1976664 0.223181,-0.2845464 0.378898,-0.3254578 0.212044,-0.055714 0.390089,-0.026066 0.585987,0.1005337 0.281481,0.181887 0.365362,0.3583013 0.47983,0.4892849 M 19.17534,28.074943 c 0.0487,-0.08985 0.08995,-0.171222 0.118945,-0.32001 0.04338,-0.222116 0.08405,-0.479938 0.184492,-0.692516 0.139516,-0.295337 0.336959,-0.573675 0.709088,-0.520171 0.167813,0.02414 0.285373,0.107168 0.426328,0.213217 0.186997,0.140687 0.329497,0.256062 0.443326,0.467041 0.146176,0.27077 0.302532,0.564029 0.344632,0.852439 0.02468,0.16872 6.33e-4,0.316124 -0.0543,0.479619 -0.735986,1.278593 -1.195498,0.996072 -1.852763,2.025049 -0.05355,-0.06379 -0.186572,-0.204584 -0.201706,-0.426327 -0.01876,-0.273968 0.04225,-0.271732 0.05062,-0.532911 -0.04203,-0.488082 -0.09592,-1.165894 -0.168662,-1.54543 -0.133121,-0.165681 -0.308077,-0.239545 -0.373038,-0.319747 m 5.062629,-0.266455 0.265656,1.86518 7.97e-4,0.692782 v 0.639488 l -0.106583,2.078342 M 4.467065,29.673666 c 0.2042639,0.229151 0.4191857,0.360991 0.5367989,0.639702 0.092247,0.2186 0.1542769,0.418227 0.215828,0.639277 0.042632,0.152838 0.052492,0.271411 0.041887,0.426329 -0.018118,0.2648 -0.122356,0.726139 -0.475035,0.701625 C 4.5739664,32.065842 4.3585113,31.935223 4.2034882,31.79395 3.7909587,31.418034 3.8436047,31.198157 3.5078296,30.846066 3.2085483,31.280384 2.8865861,32.398532 2.0156859,31.935063 1.8854911,31.865787 1.7614246,31.782489 1.657289,31.675111 1.3063688,31.313212 1.2950658,30.568846 1.4280905,30.099992 1.5225751,29.766925 1.6582856,29.425329 2.0156859,29.780248 m 8.1002101,0.692781 c 0.858142,0.604904 0.948789,2.088466 -0.4263276,1.791104 C 9.4823205,32.219261 9.193324,32.028483 9.0501307,31.911828 8.9353434,31.818355 8.8195946,31.76693 8.731772,31.625442 8.6664987,31.5203 8.5914037,31.041643 8.5704599,30.899355 M 3.454539,30.526319 3.5078296,30.846066 M 19.495085,30.579611 c 0.01108,0.535945 0.100399,0.891127 0.05329,1.332272 m 1.811889,-1.278982 c -0.09485,0.188651 -0.1506,0.330509 -0.159233,0.532909 -0.01418,0.33083 -0.126512,0.604318 0.02942,0.956836 0.168506,0.380925 0.541115,0.184919 0.763712,-0.0519 0.171926,-0.182953 0.277139,-0.338254 0.384423,-0.505602 0.152392,-0.306772 0.203944,-0.167639 0.327956,0.05716 0.127727,0.257201 0.239251,0.563867 0.412323,0.929077 m 1.758599,0.639486 c 0.421104,0.08814 1.652282,-0.266403 1.263951,-0.958436 -0.213536,-0.380443 -1.097364,-0.549108 -0.971225,-1.119695 0.05366,-0.242685 0.268799,-0.451481 0.559928,-0.403251 0.219025,0.03629 0.313828,0.130988 0.426326,0.189876 m 1.012525,-0.106584 c 0.08872,-0.01 0.190889,-0.01412 0.320014,-0.0068 0.168079,0.0094 0.321609,0.01451 0.479349,0.05612 0.189503,0.05005 0.475303,0.141593 0.488996,0.378043 0.01333,0.230219 -0.175593,0.418708 -0.295178,0.585242 -0.172395,0.239968 -0.419503,0.544793 -0.576713,0.799363 -0.26235,0.424834 -0.07365,0.718947 0.436188,0.743938 0.297788,0.01462 0.478443,-0.03213 0.79936,0.0022 M 8.731772,31.625442 c -0.065273,0.27802 -0.3260874,0.692481 -0.5899293,0.903725 -0.5482034,0.438957 -1.2498308,0.153265 -1.5147399,-0.457341 -0.078604,-0.181243 -0.1012523,-0.3862 -0.1189452,-0.586202 -0.038849,-0.43842 0.174208,-0.764668 0.5701584,-0.532908 m 7.300847,-0.159872 c 0.322144,0.09278 0.668321,0.287504 0.874823,0.585454 0.362931,0.553461 -0.07483,1.230561 -0.608351,1.404947 -0.549801,0.165629 -0.9351,-0.325415 -1.158602,-0.614305 m -1.399377,-1.269585 c -6.31e-4,0.247537 -0.04013,0.496245 0.0072,0.746074 0.07018,0.370474 0.307489,0.748734 0.685587,0.858301 0.620891,0.179803 0.799363,-0.413858 0.799363,-0.911595 m 19.930777,2.291506 c -0.376606,0.111326 -0.867627,0.09572 -1.27898,-0.14058 -0.354278,-0.203462 -0.729177,-0.583855 -0.794353,-0.978527 -0.09555,-0.578363 0.103223,-1.188813 0.512178,-1.608157 0.223237,-0.228831 0.427073,-0.246098 0.708503,-0.04385 m 1.332282,0.746071 c 0.363283,-0.104343 0.704079,0.05702 1.012528,0.294644 0.532643,0.410447 0.864962,0.997924 0.382466,1.564993 -0.395204,0.464431 -1.188811,0.555132 -1.455853,-0.101094 -0.07329,-0.586635 -0.13146,-1.385509 0.540478,-1.385509 m 2.664531,0.266457 c -0.163481,0.585186 -0.40046,1.818633 0.256594,0.851693 0.08872,-0.133814 0.188809,-0.330776 0.259312,-0.478657 0.176127,-0.369253 0.381296,-0.717828 0.642101,-1.011569 0.0988,-0.111217 0.252602,-0.307379 0.423824,-0.239541 0.214123,0.08484 0.119105,0.562379 0.124274,0.771492 0.0055,0.22494 0.02228,0.748256 0.324542,0.796378 0.176766,0.02808 0.346975,-0.15657 0.473221,-0.272584 0.330087,-0.303119 0.826755,-1.113299 1.27882,-1.181297 0.238693,-0.03592 0.308504,0.243859 0.318577,0.444341 0.0079,0.157524 0.0047,0.275565 -0.0131,0.426325 -0.05414,0.459314 -0.06922,0.880898 -0.03805,1.278979 m -23.927633,-1.49215 c -0.06155,0.195207 -0.04897,0.276846 0.106583,0.373037 m 12.736513,0.213162 -0.266455,0.159875 m 69.864304,0.746069 c -0.195046,0.32076 -0.17533,0.719802 -0.157747,1.119111 0.02987,0.681483 0.09646,1.388758 0.224887,2.078342 0.108182,0.579804 0.159872,1.183482 0.25686,1.758597 0.0256,0.152305 0.0549,0.271038 0.0789,0.426328 0.0533,0.342231 0.0591,0.706638 0.10764,1.065816 0.0331,0.248658 0.0517,0.454038 0.0783,0.692783 0.0587,0.522192 0.10819,1.320549 0.17267,1.865172 0.0229,0.194245 0.0293,0.337178 0.0533,0.532918 0.0772,0.647483 0.19238,1.287291 0.19771,1.91847 M 94.102196,34.096806 c -0.258995,0.922305 -0.239279,1.950499 -0.460975,2.930997 -0.37196,1.645567 -0.896884,3.23758 -1.556089,4.796175 -0.132698,0.313404 -0.192913,0.574152 -0.302161,0.905941 -0.205705,0.624948 -0.451367,1.267851 -0.635222,1.918469 -0.07458,0.264383 -0.14708,0.54751 0.130031,0.639497 M 88.879771,34.150096 c 0.767385,0.767655 1.414341,1.547568 1.971755,2.451379 0.135365,0.219825 0.278178,0.401973 0.376768,0.63949 0.388493,0.935042 0.867639,2.090109 1.115443,2.947399 m 26.378903,6.75154 c 0.49561,0.406019 1.16175,0.319681 1.7586,0.11527 1.14895,-0.393557 2.81003,-1.308465 2.82335,-2.726529 0.005,-0.567385 -0.36983,-1.098425 -0.71037,-1.545432 -0.24034,-0.315911 -0.45137,-0.622175 -0.72688,-0.905945 -0.47696,-0.4915 -0.97682,-0.953798 -1.44152,-1.438852 -0.14442,-0.150651 -0.27658,-0.269597 -0.4146,-0.426329 -0.39702,-0.451422 -0.87877,-1.138823 -0.91341,-1.758595 -0.0304,-0.54735 0.009,-1.037678 0.19504,-1.545435 0.13963,-0.384654 0.35971,-0.794673 0.58033,-1.119107 0.12204,-0.179004 0.24302,-0.324382 0.39703,-0.477487 0.43485,-0.432293 1.48042,-0.713352 1.63763,0.157743 0.0629,0.347457 -0.0517,0.869279 -0.15241,1.172397 -0.0687,0.206929 -0.0965,0.280683 -0.10178,0.532908 m -20.03737,-1.119107 c 0.23235,0.777888 0.2169,1.502001 0.27125,2.291506 0.0149,0.216734 0.0475,0.379856 0.0485,0.586199 8.9e-4,0.187158 0,0.340529 0,0.53291 0,0.781776 0.0533,1.577408 0.0533,2.344794 0,0.463046 -0.0432,0.933439 -0.0538,1.385566 -0.005,0.177774 -0.0363,0.307115 -0.048,0.479614 -0.057,0.83155 -0.005,1.439499 -0.005,2.131635 m 37.62335,-7.460718 c 0.22703,0.260058 0.19079,0.629685 0.22223,0.959235 0.0597,0.627023 0.0443,1.278504 0.0443,1.918473 0,0.791259 -0.0965,1.535948 -0.10658,2.291504 -0.002,0.150224 -0.0208,0.279616 -0.0378,0.426331 -0.0335,0.27807 -0.0597,0.531465 -0.0693,0.799357 -0.007,0.20384 -0.05,0.377669 -0.0826,0.586203 -0.0411,0.261122 -0.0533,0.48217 -0.0912,0.746074 -0.0267,0.184483 -0.0363,0.307863 -0.0618,0.479615 -0.0543,0.368457 -0.15613,0.848009 -0.18545,1.225689 -0.0427,0.546014 -0.0997,1.000851 -0.21796,1.492137 m 7.21884,-9.78496 c -0.18758,-0.167704 -0.2121,-0.374898 0.0543,-0.41844 0.61231,-0.100077 1.15854,0.01893 1.81082,0.04749 1.04876,0.04594 2.14123,0.28958 3.14416,0.602293 0.62563,0.194989 1.27951,0.465971 1.70532,0.674605 m 4.34526,-0.819912 c -0.0147,0.391281 0.0543,0.842147 0.0154,1.1724 -0.0383,0.322624 -0.0283,0.684573 -0.0597,1.012524 -0.032,0.334984 -0.008,0.639753 -0.009,0.959237 -5.3e-4,0.325288 -0.0347,0.61396 -0.0842,0.959228 -0.0303,0.209916 -0.064,0.367336 -0.0735,0.586203 -0.0117,0.26646 0.007,0.623504 -0.0112,0.8526 -0.005,0.06937 -0.0448,0.228866 0.0122,0.312109 0.0933,0.136745 0.24525,0.0605 0.42325,0.06103 0.68106,0.002 1.15747,0.101145 1.75859,0.213165 m -10.28478,-5.96862 c 0.27126,0.571543 0.47855,1.381673 0.47963,2.025052 8.9e-4,0.538721 -0.0991,1.106158 -0.10659,1.652017 -0.004,0.272638 -0.0869,0.557312 -0.11457,0.799357 -0.0155,0.140265 -0.032,0.23406 -0.0587,0.373038 -0.0512,0.269709 -0.11084,0.660919 -0.18119,0.959239 -0.12203,0.514206 -0.2105,1.049192 -0.38422,1.545431 -0.0725,0.206074 -0.25687,0.479834 -0.25047,0.691774 0.0112,0.360887 0.43592,0.222543 0.72263,0.183527 0.7887,-0.107325 1.57953,-8.2e-4 2.3448,-0.129226 m 20.56994,-6.714599 c -0.15347,0.287237 -0.13269,0.566746 -0.22115,0.905942 -0.21263,0.81045 -0.23342,1.525401 -0.35065,2.344801 -0.0922,0.644118 -0.16467,1.351135 -0.25048,1.971763 -0.0437,0.319203 -0.12576,0.741641 -0.13215,1.012523 -0.006,0.237996 -0.0395,0.501631 -0.0618,0.746075 -0.0352,0.37149 -0.14229,0.894325 -0.20516,1.278972 -0.1263,0.770644 -0.45139,1.948054 -0.53719,2.611259 m -37.5414,-3.997178 c 0.0233,-0.750307 -0.23236,-1.500614 0.18028,-2.250923 m -34.474956,0.386108 c -0.525449,-0.0052 -1.304559,0.303221 -2.025055,0.189769 -0.413534,-0.06511 -0.759395,-0.203622 -1.023715,-0.563606 -0.856384,-1.165042 0.292037,-2.753488 1.39675,-3.233102 0.211029,-0.09159 0.368243,-0.103535 0.586198,-0.04361 0.539307,0.148303 0.538773,0.607574 0.157738,0.981026 -0.35971,0.351666 -0.849451,0.570803 -1.276843,0.790147 -0.196113,0.100628 -0.318678,0.162322 -0.532907,0.174047 m 11.56411,-1.438855 c -0.004,0.184016 -0.0628,0.434909 -0.1652,0.639497 -0.10871,0.216571 -0.0795,0.249979 -0.13696,0.532908 -0.074,0.369247 -0.11671,0.684411 -0.16201,1.065817 -0.0212,0.177827 -0.0155,0.305891 0.007,0.479615 0.0261,0.197547 0.0272,0.34639 0.0666,0.532909 0.0395,0.185023 0.0911,0.357107 0.17212,0.532908 0.34746,0.75407 1.07168,0.835008 1.57261,0.211089 0.28565,-0.356411 0.2979,-0.71869 0.2979,-1.117034 m -5.11591,-2.291506 c 0.35811,-0.06698 0.82174,0.102393 1.11911,0.300023 0.36929,0.245679 0.74606,0.692946 0.73914,1.138831 -0.0192,1.165095 -2.3496,2.662736 -3.06743,1.225689 -0.3288,-0.658408 0.0107,-1.612205 0.45297,-2.126888 0.19825,-0.231121 0.47856,-0.566535 0.75621,-0.32449 m 6.71464,0.373005 c 0.32667,0.216032 0.65228,0.297043 0.86544,0.697516 0.2947,0.554498 -0.0458,1.412373 -0.49453,1.778962 -0.22222,0.181077 -0.5196,0.311746 -0.79724,0.403671 -0.52331,0.173258 -0.98504,-0.196533 -1.26056,-0.457488 m 65.1931,-1.766772 0.10659,0.95924 m -47.83871,-0.824619 c 0.19665,0.0134 0.32348,0.138719 0.47962,0.251859 0.27871,0.202075 0.40926,0.165199 0.69278,0.326348 0.32506,0.184712 0.65068,0.530406 0.6315,0.922779 -0.0104,0.209385 -0.13324,0.412581 -0.27872,0.561425 -0.39914,0.409331 -1.05462,0.655634 -1.63176,0.65473 -1.34239,-0.002 -1.26246,-1.647273 -0.57607,-2.386255 0.19078,-0.205491 0.4114,-0.349371 0.68265,-0.330886 m 28.93693,3.89908 c -0.10712,-0.455263 0,-1.005286 0,-1.545432 0,-0.39281 0.0165,-0.696248 -0.002,-1.119112 -0.12211,-1.09201 -0.33346,-1.002718 -1.00087,-0.350439 -0.39968,0.393713 -0.73594,1.044498 -1.05356,1.521879 -0.14708,0.220622 -0.2526,0.222543 -0.41087,0.434161 -0.7607,1.586062 0.10306,-0.480622 0.18208,-1.44575 0.0498,-0.23383 0.0593,-0.364085 -0.006,-0.586191 m 2.83332,-0.48817 c 0.29499,0.214824 0.78561,0.03589 0.90125,0.03722 0.13377,0.002 0.32988,-0.02212 0.42473,0.123535 0.0815,0.125229 0.0335,0.269544 0.0165,0.409373 -0.12134,1.0701 -0.45423,2.142811 -0.60115,3.197453 m -24.83768,-0.828023 c -0.40608,0.257456 -0.9134,0.445043 -1.49214,0.423983 -0.76686,-0.02793 -1.34028,-0.564768 -1.27899,-1.329919 0.0485,-0.598674 0.41087,-1.211991 0.80843,-1.651802 0.7134,-0.675702 0.75111,-0.03494 0.68368,0.692563 m 28.93675,1.278961 c 0,-0.421471 0.0244,-1.025047 0.37517,-1.384604 0.3741,-0.383578 1.02851,-0.589931 1.48682,-0.269015 0.40128,0.280957 0.1231,0.691139 -0.16574,0.916341 -0.48442,0.377409 -1.1367,0.696197 -1.69625,0.737278 0.10659,0.363556 0.30963,0.655105 0.63949,0.953643 0.23448,0.211888 0.4274,0.269222 0.74608,0.272046 m 9.01067,-2.398015 c 0.40075,0.365675 0.9651,0.84045 1.33228,0.905946 m -9.33052,0.639415 c -0.10967,0.519079 -0.0781,0.860541 0.40395,0.423984 0.39862,-0.431129 0.78551,-0.961898 1.14789,-1.436507 0.18705,-0.245359 0.33839,-0.611147 0.68638,-0.532909 m -27.44465,2.877688 c -0.25206,-0.276367 -0.47962,-0.585237 -0.61178,-0.95924 -0.0405,-0.1142 -0.0815,-0.300656 -0.2025,-0.356079 -0.12364,-0.05691 -0.21317,-0.0083 -0.35812,0.03645 -0.34691,0.106308 -1.05888,0.317396 -1.3733,-0.0083 -0.28777,-0.297582 -0.073,-0.692251 0.1588,-0.949011 0.33201,-0.367491 0.71623,-0.359183 1.10791,-0.162219 m 31.06854,1.65202 c -0.048,-0.257986 -0.12417,-1.130191 -0.48228,-1.243913 -0.31921,-0.101147 -0.59153,0.279565 -0.74981,0.49784 -0.26112,0.359505 -0.58834,0.816575 -0.56914,1.278982 0.0219,0.523105 0.61711,0.786626 1.05515,0.634481 0.42274,-0.146931 0.82407,-0.346232 1.01444,-0.717413 0.12114,-0.334751 0.0787,-0.384313 0.29188,-0.04921 l 0.18582,0.292006 m -34.4795,-6.595286 0.15987,-0.586202 m 38.3205,5.263414 1.11911,0.639486 m -36.41709,-0.356171 -0.0532,0.373037 m 33.64145,2.434153 c -0.68798,0.127741 -1.70476,-0.135509 -1.70476,-1.119101 0,-0.588227 0.35544,-1.162332 0.80096,-1.533073 0.25099,-0.20869 0.3677,-0.09969 0.53077,0.147513 m -22.27557,-0.213165 c 0.47695,0.324696 1.15902,0.05259 1.67541,0.05259 m 29.07341,1.06651 c -0.36026,0.658199 -0.73756,1.209384 -1.23476,1.758597 -0.2398,0.26486 -0.49506,0.520769 -0.78551,0.753437 -0.28083,0.224671 -0.81162,0.74516 -1.14255,0.353472 -0.14761,-0.17495 -0.15081,-0.410121 -0.13908,-0.627284 0.0352,-0.642747 0.52011,-1.34533 0.63735,-1.811891 m 5.16922,3.304051 c -0.6768,-0.231121 -1.69998,-0.763873 -1.70531,-1.865185 -0.002,-0.335456 0.002,-0.577086 0.23075,-0.852435 0.47694,-0.575112 1.62483,-0.753748 1.50973,0.319536 -0.0325,0.299005 -0.23981,0.483343 -0.40821,0.69278 m -90.114828,2.877698 c 0.0027,-0.333066 0.112982,-0.686383 0.22063,-1.065817 0.208905,-0.737226 0.314419,-1.539139 0.854784,-2.130617 0.152405,-0.166797 0.341594,-0.320916 0.576607,-0.304342 0.254728,0.01796 0.460433,0.211078 0.618705,0.41012 0.112448,0.141699 0.197713,0.311062 0.262187,0.479407 0.285645,0.742346 0.05965,1.597667 -0.463625,2.184918 -0.355452,0.398625 -0.94485,0.883037 -1.482548,0.976831 -0.227554,0.03998 -0.304828,-0.156143 -0.397551,-0.327209 -0.06978,-0.129497 -0.134831,-0.171596 -0.189189,-0.223291 -0.06871,0.09107 -0.184379,0.192386 -0.264853,0.373037 -0.06445,0.14389 -8.89e-4,0.42899 -0.0176,0.586203 -0.05751,0.543563 -0.0336,1.151615 -0.19717,1.705303 m 83.662661,-7.252172 c -0.25435,0.101877 -1.00841,3.704233 -0.31579,2.296113 M 99.324442,52.90816 c 0.09806,0.390089 0.317086,0.880898 0.370377,1.332277 0.03573,0.302691 0.08631,0.449239 0.162539,0.586203 0.07565,-0.08744 0.174252,-0.168938 0.236612,-0.373038 0.11137,-0.362911 0.1492,-1.012533 0.23767,-1.38557 0.13643,-0.574468 0.28298,-1.398396 0.80469,-1.794934 0.40288,-0.306107 0.72796,0.177983 0.88836,0.515962 0.24567,0.516272 0.28831,1.051954 0.35971,1.598725 0.0363,0.274446 0.0752,0.567542 -0.0304,0.849983 -0.0835,0.223904 -0.30919,0.398343 -0.52979,0.579214 -0.7113,0.512871 -0.27104,0.777823 0.34817,0.886034 0.66002,0.113265 1.45904,0.169038 1.44522,0.615677 -0.0107,0.32614 -0.37411,0.48975 -0.61658,0.626703 -0.26432,0.149217 -0.57661,0.281912 -0.85265,0.393287 -0.15402,0.06179 -0.27179,0.08422 -0.42634,0.124699 -0.18012,0.04693 -0.34958,0.110316 -0.5329,0.144419 -0.19078,0.0352 -0.30802,0.01755 -0.47962,-0.06345 M 88.934209,53.387794 c 0.0018,0.289378 0.07458,0.414077 0.15988,0.532908 m 6.286586,-0.852714 c 0.246471,0.277144 0.548632,0.479951 0.768986,0.737008 0.382626,0.403413 0.965091,0.846795 0.787636,1.501204 -0.332536,1.228888 -1.76766,2.22223 -2.99548,1.607792 -0.532373,-0.266459 -0.839326,-0.869714 -0.986949,-1.44792 -0.226478,-0.885156 0.08631,-1.682385 0.560624,-2.398084 0.214229,-0.322941 0.425792,-0.73355 0.852651,-0.792068 0.429517,-0.101762 1.445818,0.900962 0.639488,0.632197 m 10.817989,0.892622 c 0.28777,-0.107647 0.53451,0.114044 0.74608,0.277114 0.43059,0.330927 0.78817,0.50945 1.01199,1.068476 0.14708,0.368239 0.0532,0.605383 0.009,0.959239 -0.0917,0.739678 -0.71677,1.459105 -1.44792,1.699437 -0.56222,0.185458 -1.06901,-0.283501 -1.29816,-0.793491 -0.36398,-0.811093 -0.0528,-1.89556 0.40501,-2.611259 0.13908,-0.217424 0.32028,-0.505193 0.57341,-0.599516 m 14.92144,-0.03998 1.01253,0.501463 1.7053,0.404482 m -5.11592,-0.852662 0.024,0.373037 -0.28992,1.065817 -0.23021,1.012534 -0.30322,1.811881 m 7.03439,-4.050103 c 0.32348,1.355195 -0.4647,2.905954 -0.93898,4.103396 -0.11778,0.297894 -0.27499,0.565413 -0.39329,0.852652 m -13.99888,-4.168285 c 0.39814,0.884359 0.57582,1.516501 0.72949,1.557034 0.29264,-0.233905 0.88909,-1.671259 1.14532,-1.993648 m 0.13616,3.470722 c -0.37326,-0.601964 -0.83942,-0.890841 -1.28126,-1.157315 -0.30307,0.395842 -0.6153,0.845389 -0.7999,1.225688 -0.17479,0.359714 -0.16521,0.425262 -0.37251,0.799369 m 11.67046,-4.156758 c -0.2153,0.376766 -0.39596,0.751402 -0.65388,1.119112 -0.10343,0.147077 -0.32401,0.378364 -0.23928,0.57128 0.0895,0.205168 0.42899,0.162 0.6267,0.216893 0.5249,0.145478 1.74634,0.765784 1.66267,1.450039 -0.0277,0.230216 -0.2494,0.369838 -0.43698,0.464702 -0.29363,0.148677 -0.62989,0.246199 -0.95923,0.277644 -0.33734,0.03147 -0.63949,0.04693 -0.95924,-0.07456 -0.35172,-0.133764 -0.48814,-0.403413 -0.63949,-0.721026 m -19.024831,-3.03758 -0.06818,0.959239 -0.304828,1.705303 M 109.9821,56.372002 v 0.319744 m -21.316336,4.956028 c 0.117239,0.634699 -0.07725,1.109516 0.159872,1.438854 0.07991,-0.07674 0.166272,-0.14335 0.221162,-0.321882 0.102315,-0.332527 0.382093,-1.168667 0.612305,-1.49001 0.164139,-0.229677 0.503066,-0.619765 0.818553,-0.475886 0.598989,0.272847 0.714628,1.324281 0.784435,1.861447 0.04907,0.376776 0.11724,0.757268 0.121506,1.119111 0.0112,0.962968 -0.171597,2.096462 0.05334,3.03758 m 13.749013,-3.99682 -0.3043,1.705314 -0.0463,0.426321 -0.0752,0.692791 -5.5e-4,0.373026 c 0.26539,-0.04154 0.33413,-0.172125 0.53505,-0.370897 0.19078,-0.189188 0.39382,-0.333607 0.63735,-0.438586 0.48868,-0.209437 1.09246,-0.564353 1.59873,-0.416206 m -18.70508,-1.705303 -0.106048,1.172394 -0.09219,1.278983 -0.06818,0.746074 m 28.990218,-2.451377 c -0.0218,0.513188 -0.17586,1.105248 -0.36291,1.598726 -0.25312,0.668262 -0.60113,1.416465 -0.84572,2.07834 -0.1684,0.454038 -0.45404,0.902748 -0.49667,1.385561 m -1.22571,-4.796178 c 0.18332,-0.32561 0.35811,-0.03251 0.57128,0.213166 0.31281,0.361312 0.58673,0.760457 0.82228,1.172395 0.24459,0.42793 0.39434,0.726353 0.73808,1.012533 m 12.83478,-2.266877 1.65201,0.89689 0.6395,0.168928 m 2.13993,-1.037164 c 0.64055,0.06979 1.29177,0.203571 1.97175,0.315487 0.19185,0.03147 0.67521,0.02502 0.7967,0.196113 0.2185,0.30749 -0.38102,0.599516 -0.58353,0.767383 0.39595,0.363442 1.23795,0.504133 1.48735,1.066348 0.14122,0.318683 0.004,0.723694 -0.13536,1.011993 -0.34852,0.724224 -1.25554,1.688791 -1.99147,1.865185 M 123.73121,64.3656 c 0.0347,0.599526 0.0458,0.786574 0.005,1.385561 -0.0607,0.889953 0.008,1.950983 -0.21795,2.717837 M 92.579718,66.979647 c -0.188113,-0.209427 -0.469536,-0.754729 -0.439695,-1.015321 0.0448,-0.396485 0.683188,-1.658946 1.246469,-1.193185 0.179064,0.147618 0.17373,0.415137 0.106057,0.606982 -0.140165,0.399155 -0.449784,0.628303 -0.776453,0.890494 -0.09646,0.07778 -0.253662,0.171596 -0.289903,0.291497 -0.08311,0.272846 0.232879,0.53132 0.449775,0.686394 0.153481,0.109776 0.296828,0.166268 0.479616,0.209967 M 125.3301,64.791921 c -0.0826,0.560096 -0.78551,1.503343 -0.43379,2.01813 0.28297,0.414067 0.93471,0.247799 1.33972,0.189718 0.20091,-0.02877 0.33574,-0.02295 0.47963,-0.02295 l -0.47963,1.918468 m 0.95924,-3.836938 c -0.0352,0.206758 -0.10073,0.527042 -0.13908,0.746074 -0.0948,0.533439 -0.0597,0.783376 -0.34053,1.172396 m 1.7586,1.81189 c 0.43112,0.329869 1.16119,0.455098 1.65201,0.176924 0.40928,-0.232346 0.75139,-0.676798 0.51586,-1.136163 -0.2169,-0.423133 -0.73915,-0.729022 -1.15535,-0.908604 -0.34106,-0.147088 -0.89209,-0.07352 -1.0461,-0.478025 -0.13323,-0.34905 0.65974,-1.146288 0.93952,-1.277914 m 3.51719,0.106578 c -0.004,0.95924 -0.55155,2.386899 -0.58619,3.197451 m -20.62361,0.106588 c 0.34616,-2.965261 -0.82378,-8.494227 0.47945,-3.288533 0.41753,0.430914 0.46557,1.04903 0.65654,1.583273 0.0586,0.160401 0.11405,0.385821 0.18013,0.53077 0.20776,0.361123 0.34058,1.026426 0.32952,0.268588 l 0.11457,-0.479614 -0.002,-0.905947 v -1.225688 l -5.5e-4,-0.532909 -0.0735,-0.532909 -0.0858,-1.225688 m 22.70203,2.824371 0.21316,-0.05327 m -36.18448,0.746064 c -0.0208,0.254735 -0.06658,0.539305 -0.204634,0.73488 -0.124697,0.176933 -0.321877,0.354386 -0.541965,0.456176 -0.475891,0.219551 -1.075414,0.01069 -1.204378,-0.55156 -0.06925,-0.303231 0.13004,-1.413276 0.61338,-1.134563 0.402352,0.232346 0.438593,0.750981 0.525992,1.118161 m -4.730641,-1.156003 c -0.488141,0.678927 0.134823,2.01813 0.959242,1.739417 0.427383,-0.144949 0.413,-0.44711 0.639488,-0.780178 m 8.686216,-0.692757 c 0.21902,0.329338 0.24087,0.500404 0.56861,0.868104 0.41034,0.459904 0.84785,0.896361 1.24327,1.316824 m -1.81188,-2.184928 c -0.10872,0.420993 -0.17887,0.884604 -0.25082,1.492115 -0.0272,0.229688 -0.0155,0.397556 -0.0155,0.639497 m -7.460711,-1.971763 c 0.333593,0.341593 0.742336,1.429789 -0.266463,1.587532 -0.546765,0.08526 -0.690627,-0.161967 -0.985331,-0.520612 m 5.568335,-0.267562 c -0.0219,0.50979 -0.1902,0.977085 0.1274,0.441254 0.18172,-0.207309 0.27445,-0.254196 0.4503,-0.494538 0.20571,-0.280842 0.37943,-0.598456 0.60433,-0.852651 0.21902,-0.247269 0.4226,-0.434858 0.73648,-0.319754 m -3.455384,1.267789 0.373044,0.799357 m 8.94436,-0.20196 c -0.0155,0.238213 0.0763,0.431658 0.17958,0.639485 0.11031,0.222221 0.18493,0.442324 0.21316,0.692781 0.0485,0.4274 -0.11563,0.710372 -0.39274,1.012533"
       id="path12912"
       sodipodi:nodetypes="cccccccccccccccccccsccccccsccccscccccccccccccccsccccccccccccccscccccccscccsscccccccccccccccscccccccccccccsccccccsccccccccccccccsccccccccccccccccccccsccccccccccccscsccccccccccccsccccccccccccccccsccccsccccccccccccccccccccccccccccscccccccscsccscsscccccscccccccccsccccccccccccccsccccccsccccccccccccsccccscccccccccccccccccccsccccccccccccsccccccccscccsccccssccccccccccccccccccccccccccccccccscccccscccccccccccssccccccccccccscccccccccccccccccccccccccccccccsccccccccccccccccccccccccccccccccccccccccccccccccccccccccccccccccccccccccccccccccccccccccccccccccccccccccccccccccccccccccccccsccccccccccccccc" /><path
       style="fill:none;stroke:#010101;stroke-width:0.0547091"
       d="m 41.603941,10.021615 c -0.0057,0.256828 -0.129538,0.90178 -0.141075,1.419648 -0.01982,0.889696 -0.0075,1.819036 0.140857,2.684553 0.05236,0.305479 0.11052,0.411077 0.111764,0.713886 M 14.144317,9.5192797 c -0.148488,0.2811309 -0.224724,0.6867393 -0.304546,0.9782263 -0.09069,0.646028 -0.157291,1.689598 0.401815,2.024554 0.409123,0.181589 1.0052,0.180568 1.424523,-0.07771 0.130982,-0.08491 0.177678,-0.122506 0.276931,-0.14886 m -7.5821133,1.363314 c 0.4237459,0.492609 0.8336315,0.847334 1.5719543,0.673471 1.535468,-1.078685 2.073054,-1.920067 0.437706,-2.452771 C 9.7757469,11.683151 9.1750562,11.597162 8.5143898,11.683068 8.2313646,11.719883 7.8372331,11.77967 7.8821466,11.404506 7.9453368,10.877222 8.6320301,10.160822 8.9944019,9.7876041 9.150383,9.6269495 9.2047668,9.5832505 9.3821442,9.5773519 11.202502,9.845327 12.233471,9.5196532 12.881444,9.7100382 M 2.2615451,9.999876 C 1.9991881,9.7329751 2.095338,9.6417081 2.2666576,9.6468333 3.2858651,9.6075851 4.2076809,9.5164798 5.2228599,9.5941268 c 0.1377323,0.01077 0.3403092,0.04177 0.4065612,0.1732256 0.089097,1.0280876 -1.4435151,1.2207486 -1.4908651,1.8273586 -9.187e-4,0.107236 0.00112,0.159815 0.103502,0.26678 0.5670312,0.742152 2.2020821,1.178348 2.6111014,1.927885 0.1524078,0.296984 -0.024223,0.638294 -0.3735969,0.803379 -0.7925452,0.298675 -1.7152841,0.554777 -2.3521148,-0.0432 m 12.3614843,-4.649641 -0.17749,0.597996 c -0.179718,0.590975 -0.276854,1.188139 -0.368388,1.797643 l -0.08576,0.983099 -5.51e-4,0.43777 m 6.476152,-3.30325 c 0.102591,-0.6593309 0.345186,-0.405741 0.450485,0.510857 -0.0098,1.488799 -0.108721,2.071232 -0.0087,2.81753 -0.144424,2.473692 -0.31173,-2.706835 0.48622,-3.636048 0.143758,-0.1621645 0.973175,-1.0850428 1.362377,-0.5624762 0.239019,0.5622942 -0.376624,0.9885042 -0.722754,1.2933172 -0.662533,0.317122 -2.021087,1.344313 -0.648908,2.552316 0.0685,0.02259 0.422962,0.304106 0.538833,0.376841 0.424618,0.266604 1.047659,0.39573 1.413148,0.432766 M 19.223772,9.9608411 c -0.248024,9.758e-4 -0.62694,0.4118519 -0.890972,0.6915449 -0.278415,0.306474 -0.607085,0.568442 -0.723842,0.968883 -0.07309,0.58422 0.5741,0.453514 0.910942,0.458078 0.740967,0.01694 1.513788,0.158243 1.947519,0.599756 0.08118,0.08926 0.111693,0.134863 0.149117,0.267798 0.04087,0.145269 0.02542,0.199867 -0.04501,0.382056 -0.101451,0.262435 -0.445549,0.567179 -0.726479,0.676988 -0.247034,0.0965 -0.344261,0.140027 -0.549799,0.115418 -0.708182,-0.08604 -0.6606,-0.549186 -0.578498,-1.05262 0.207988,-0.76914 0.703099,-0.845619 1.076174,-1.225524 0.25835,-0.255611 0.803375,-0.476031 1.095948,-0.47721 M 47.772433,10.70633 c 0.214942,0.277068 0.177642,0.526201 0.137893,0.769191 -0.03434,0.195598 -0.160524,1.06702 -0.484485,2.506453 -0.400071,2.520154 0.0045,-2.035414 1.095335,-3.313684 0.130524,-0.152713 0.289927,-0.319536 0.516161,-0.243877 0.114122,0.03817 0.166269,0.102199 0.214313,0.205428 0.06032,0.129559 0.113988,0.297216 0.145206,0.441017 0.01782,0.08198 0.0075,0.130451 0.0042,0.218986 -0.0034,0.08887 0.0013,0.137388 -0.02309,0.218375 -0.06966,0.230742 -0.191468,0.510686 -0.334933,0.703935 -0.114245,0.153906 -0.224888,0.283887 -0.383485,0.429238 -0.08944,0.08195 -0.182153,0.148946 -0.278556,0.221822 -0.08761,0.06624 -0.202958,0.142082 -0.277334,0.167074 -0.324989,0.108963 -0.644047,0.609449 -0.650501,0.633865 0.02974,0.423229 0.499928,0.493521 0.839631,0.701972 l 0.215939,0.13248 0.649036,0.342796 m -5.656553,-4.011365 c -0.150138,0.335515 -0.135643,1.175964 -0.142291,1.474344 -0.0025,0.112346 -0.02164,0.278713 -0.0097,0.437566 0.131633,0.688906 -0.02449,1.274409 -0.149608,1.802517 M 30.363781,13.875399 c -0.240693,-0.453634 -0.810723,-1.274465 -1.397163,-0.742523 -0.117545,0.120344 -0.125759,0.154964 -0.197529,0.269212 -0.07596,0.120997 -0.114705,0.184487 -0.153131,0.324925 -0.05051,0.18444 -0.03213,0.439639 0.09599,0.604089 0.15593,0.200202 0.552829,0.347877 0.802972,0.391811 0.691928,-0.0019 1.063109,-0.390162 0.848863,-0.847514 z m 0.252157,0.552845 c 0.163123,0.167256 0.189009,0.172155 0.376777,0.282008 0.204568,0.119695 0.448326,0.19238 0.706982,0.198143 0.324234,0.0072 0.729434,-0.06791 0.956972,-0.379961 0.352007,-0.482692 0.03267,-0.925236 -0.374069,-1.221373 -0.276086,-0.200964 -0.517633,-0.25494 -0.757617,-0.381662 -0.214179,-0.113122 -0.177393,-0.05972 -0.380023,-0.136189 -0.199268,-0.07515 -0.315345,-0.371917 0.01361,-0.610732 0.421125,-0.270496 0.983674,-0.28393 1.48003,-0.112971 m 1.284667,1.287246 c 0.09236,-0.0018 0.317751,-0.121586 0.446004,-0.157691 0.358352,-0.310067 0.570629,-0.594177 0.33091,-0.737065 -0.21373,-0.229689 -0.741064,-0.250127 -0.964019,-0.121785 -0.107933,0.06485 -0.117826,0.172159 -0.142222,0.243085 -0.196769,0.43309 0.06091,0.89858 0.11237,1.096959 0.07999,0.209673 0.307535,0.425206 0.52584,0.549804 0.366307,0.209102 0.761371,0.244992 0.979443,0.24985 m 6.931853,-1.651416 c 0.696074,-0.163783 1.292459,-0.105107 1.973915,-0.174913 l 0.27348,0.0061 m -6.729994,-0.04049 c -0.02789,0.573256 -0.337313,1.257673 -0.694123,1.680939 -0.153111,0.181607 -0.390375,0.510075 -0.610791,0.396813 -0.206513,-0.106112 -0.297707,-0.271984 -0.354298,-0.473036 -0.04285,-0.152318 -0.08393,-0.393904 -0.106285,-0.549596 -0.02057,-0.142847 -0.0054,-0.171949 -0.0019,-0.328379 0.009,-0.402504 -0.0267,-0.349179 0.06932,-0.655129 m 3.502813,2.431119 c -0.465077,-0.04713 -0.855294,-0.241721 -1.136421,-0.572546 -0.224659,-0.264336 -0.209407,-0.425648 -0.204159,-0.661222 0.0095,-0.425203 0.241241,-0.718278 0.566655,-0.872077 0.128751,-0.06083 0.192885,-0.100004 0.33122,-0.129427 0.289047,-0.06148 0.600525,0.04441 0.620877,0.378668 0.0258,0.423418 -0.457787,0.642534 -0.644842,0.69703 M 26.434417,12.985236 c 0.175831,-0.04944 0.293764,0.0043 0.546142,0.04868 0.154972,0.0272 0.262691,0.129142 0.3782,0.218177 0.208686,0.160884 0.586292,0.383426 0.67922,0.626222 0.110663,0.289213 -0.249274,0.604769 -0.489483,0.682268 -0.194403,0.06264 -0.216063,0.09177 -0.440407,0.117856 -0.415821,0.04836 -0.730156,-0.147766 -0.97599,-0.404804 -0.08546,-0.08936 -0.132141,-0.113647 -0.204775,-0.223453 -0.07358,-0.11114 -0.07694,-0.176936 -0.05651,-0.329595 0.112262,-0.269163 0.362409,-0.677016 0.563611,-0.73534 m 25.771636,2.580692 c -1.283551,-0.42145 -0.473538,-6.3688343 -0.730263,-4.968398 0.04193,2.511298 0.161174,3.073002 -0.263327,4.125421 -0.07821,0.130467 -0.09755,0.16079 -0.25263,0.286208 -0.19376,0.156677 -0.32162,0.270935 -0.607133,0.232725 -0.117253,-0.01563 -0.209431,-0.08817 -0.277942,-0.215944 -0.153311,-0.28595 -0.135612,-0.616135 0.244975,-0.76066 m -46.2609681,3.365381 1.1463742,0.125847 0.2185778,0.01407 0.5984011,0.159277 0.3277674,0.02553 0.273072,0.02431 0.7053562,0.271106 m 5.8662374,-0.489477 -0.05118,2.297214 c 0.06229,0.742517 -0.0159,1.419235 -0.04753,2.133128 l -0.0073,0.328173 -0.01219,0.546957 m 2.078813,0.127744 C 13.832235,21.407926 11.67306,20.132966 14.56709,20.116895 M 6.02214,17.929796 c 0.010924,0.06777 0.014896,0.104907 0.056506,0.329595 0.1858963,0.543699 0.4003682,1.077581 0.6039752,1.545692 0.082113,0.190241 0.2109674,0.643042 0.2643342,0.826731 0.026577,0.0916 0.037973,0.117898 0.049822,0.22 0.00946,0.08126 0.055213,0.562577 0.020639,0.711857 -0.1935212,0.6686 -0.7589293,1.06484 -1.3129633,0.800728 -0.1948062,-0.09464 -0.407996,-0.274387 -0.4847463,-0.348276 M 27.575096,21.146116 c -0.257611,0.931014 -0.458752,1.938627 -0.781105,2.718734 0.430232,-1.132625 0.770093,-2.300608 1.234512,-3.420028 0.618373,-1.14672 0.425901,-0.189416 0.42113,0.337719 -0.08937,0.675742 -0.246286,1.358065 -0.263872,2.018863 0.526835,0.694853 1.012204,-1.228449 1.185165,-1.615278 0.05396,-0.118039 0.144273,-0.384223 0.193267,-0.4882 0.285327,-0.422886 0.318712,-0.356968 0.386618,0.03687 0.14192,0.826834 0.177367,1.702701 0.284193,2.604769 l 0.171332,0.496323 m 1.22416,-3.365538 c 0.36839,0.165382 1.308174,0.345377 1.365556,0.522929 0.0093,0.03075 -0.123615,0.469011 -0.131929,0.59901 -0.07148,0.444056 -0.07982,2.245773 -0.280926,2.374181 -0.242547,0.07437 -0.533126,-0.02078 -0.755995,-0.04421 m 7.448502,-2.734359 c -0.109657,0.439994 -0.07997,1.426089 -0.283703,1.680946 -0.122199,0.132771 -0.210524,0.05917 -0.356944,0.0559 -0.659301,-0.03661 -1.504346,-0.07185 -1.567892,-0.855775 -0.02601,-0.347576 0.06522,-0.8595 0.296629,-1.033123 m -4.367742,-0.04259 c 0.352166,0.03569 0.530402,0.01832 0.814341,0.291757 m 7.837656,3.950485 c -0.100118,-0.640624 -0.04311,-2.183875 0.119651,-2.702784 -0.04471,0.113005 -0.271636,0.373067 -0.670121,0.392165 -0.283048,0.03293 -0.810091,-0.03058 -0.951079,-0.294803 -0.157745,-0.295679 0.01706,-0.684803 0.265222,-0.851433 0.127161,-0.08538 0.208441,-0.125486 0.385712,-0.119074 0.251575,0.0091 0.432276,0.259385 0.48251,0.448532 m -25.375243,1.733016 c 0.337387,0.233131 0.744531,0.266866 1.091272,0.142897 0.258083,-0.09385 0.578752,-0.324472 0.604906,-0.542889 0.01386,-0.115649 -0.02072,-0.173113 -0.05768,-0.274899 -0.02589,-0.07118 -0.09398,-0.161173 -0.141405,-0.203819 -0.257458,-0.231413 -0.939193,-0.555676 -1.298883,-0.649111 -0.160341,-0.04166 -0.370421,-0.12027 -0.422339,-0.283023 -0.0174,-0.05445 -0.014,-0.162127 -0.0043,-0.218987 0.02567,-0.150244 0.09475,-0.265976 0.227313,-0.377996 0.199774,-0.139195 0.458614,-0.204122 0.659597,-0.13125 0.238255,0.08876 0.204889,0.122492 0.374745,0.373186 M 8.1388527,21.169089 c 0.412478,-0.176068 0.8891301,0.01511 0.9343483,0.24053 m 2.904356,1.851512 c -0.192198,-0.0093 -0.57098,0.01244 -0.819215,-0.07297 -1.094624,-0.202107 -0.680531,-1.784942 -0.176132,-1.919221 m 36.970563,0.987844 c 1.225379,-0.36352 1.585585,0.402444 1.253059,1.06765 -0.01876,0.041 -0.06283,0.199487 -0.03345,0.272869 0.314203,0.387279 1.229524,0.437013 1.132154,1.174401 -0.07702,0.57621 -0.873925,1.09556 -1.396232,1.264016 -0.30734,0.0991 -0.635052,0.05879 -0.931447,0.05219 m -3.275644,-0.346592 c -0.153075,0.06445 -0.188787,0.0758 -0.33061,0.102079 -0.09869,0.01827 -0.406603,-0.03872 -0.545129,-0.09423 -0.227314,-0.09109 -0.405823,-0.233295 -0.427206,-0.474661 0.101121,-0.519263 0.308364,-1.131157 0.480818,-1.521525 0.154818,-0.349458 0.225319,-0.654443 0.159891,-1.036169 -0.03549,-0.757365 -1.7379,-0.826165 -1.445715,-0.05576 M 21.020467,22.313422 c 0.08984,0.190138 0.08792,0.141118 0.10208,0.33061 0.01801,0.24058 -0.0383,0.474141 -0.07967,0.709622 -0.02238,0.127497 -0.120495,0.294679 -0.111004,0.421299 0.0072,0.537361 0.07572,0.102883 0.241388,-0.105377 0.2359,-0.609528 0.549658,-1.24462 0.973891,-1.65025 0.347506,-0.332359 0.66993,-0.238879 0.944641,0.176076 0.07687,0.116137 0.142121,0.255164 0.164635,0.386727 0.03046,0.177542 -7.11e-4,0.444989 -0.0054,0.656552 l -0.01097,0.49226 m -3.524954,-1.437463 c 0.123604,0.04243 0.169275,0.149004 0.267588,0.270436 0.108433,0.133915 0.176363,0.18955 0.182905,0.387134 0.0069,0.208923 -0.03645,0.312093 -0.146487,0.434518 -0.134561,0.149734 -0.210378,0.197569 -0.334267,0.266167 -0.145718,0.08069 -0.51718,0.147174 -0.714698,0.148245 -0.197355,0.0011 -0.230238,-0.01143 -0.434924,-0.128274 -0.11969,-0.06827 -0.275569,-0.224209 -0.33928,-0.326756 -0.06852,-0.110261 -0.08076,-0.14561 -0.08508,-0.275509 0.04782,-1.081315 0.721075,-1.049103 1.604246,-0.775961 z m 27.120685,0.978149 c 0.322835,0.328031 0.387431,0.621799 0.379151,0.993456 -0.0065,0.293442 -0.0027,0.408883 -0.09544,0.599824 -0.06522,0.134314 -0.08326,0.163298 -0.151912,0.270228 -0.09801,0.152574 -0.143953,0.188105 -0.289922,0.321878 -0.196695,0.180252 -0.437058,0.296601 -0.663659,0.313551 -0.151945,0.01139 -0.233519,-0.01653 -0.326549,-0.08022 -0.185632,-0.127153 -0.379696,-0.384404 -0.415432,-0.592984 -0.151907,-0.661455 0.204587,-1.657852 0.482244,-1.995774 0.08992,-0.108318 0.172056,-0.231147 0.325134,-0.26637 0.289918,-0.0071 0.59814,0.276382 0.756394,0.436411 z m -7.843738,-0.402783 -0.0195,0.87513 0.04068,0.219797 0.0492,0.657769 M 10.361752,22.789591 C 9.7680189,22.300738 9.1124156,21.807673 9.3715274,21.482065 c 0.037819,-0.0498 0.019051,0.09668 -0.022985,0.207836 -0.046564,0.123147 -0.1544817,0.272628 -0.9577173,0.451595 -0.068406,-0.0072 -0.3058267,-0.04014 -0.3719075,-0.09037 -0.2750839,-0.209095 -0.099734,-0.806756 0.1199579,-0.882029 m 17.0239985,2.221632 c 0.01194,0.21073 0.06846,0.39066 0.105121,0.604293 0.04025,0.234945 0.03825,0.476446 0.02972,0.712058 -0.0063,0.173495 -0.09573,0.369817 -0.28343,0.440605 -0.379075,0.142918 -0.406948,-0.173015 -0.761879,-0.190281 m 8.157557,-0.584377 0.173228,-0.406561 c 0.510134,0.05116 1.019272,0.11091 1.528431,0.170859"
       id="path89263"
       sodipodi:nodetypes="csccccccccsscsscssccccccccccccccccccccccccccccccccccccccccccccccccccsccccccsccccccscccccccccccscccccccccccccccccccsccscccscscccccccccccccccccscccccccccccccccccccccccccccccccccccccccscccscccccccccccccccccccscccccccccccsccsccccccccccccsccscccccccccccsccccccscccc" /></g></svg>
