<?xml version="1.0" encoding="UTF-8" standalone="no"?>
<!-- Created with Inkscape (http://www.inkscape.org/) -->

<svg
   version="1.1"
   id="svg47371"
   width="4366.6665"
   height="1480"
   viewBox="0 0 4366.6665 1480"
   sodipodi:docname="Casey - Pulsz - Envelope 20.svg"
   inkscape:version="1.2 (dc2aedaf03, 2022-05-15)"
   xml:space="preserve"
   xmlns:inkscape="http://www.inkscape.org/namespaces/inkscape"
   xmlns:sodipodi="http://sodipodi.sourceforge.net/DTD/sodipodi-0.dtd"
   xmlns="http://www.w3.org/2000/svg"
   xmlns:svg="http://www.w3.org/2000/svg"><defs
     id="defs47375"><pattern
       id="EMFhbasepattern"
       patternUnits="userSpaceOnUse"
       width="6"
       height="6"
       x="0"
       y="0" /></defs><sodipodi:namedview
     id="namedview47373"
     pagecolor="#ffffff"
     bordercolor="#666666"
     borderopacity="1.0"
     inkscape:pageshadow="2"
     inkscape:pageopacity="0.0"
     inkscape:pagecheckerboard="0"
     showgrid="false"
     inkscape:zoom="3.2075661"
     inkscape:cx="117.5346"
     inkscape:cy="41.620343"
     inkscape:window-width="1920"
     inkscape:window-height="991"
     inkscape:window-x="-9"
     inkscape:window-y="-9"
     inkscape:window-maximized="1"
     inkscape:current-layer="g47377"
     inkscape:showpageshadow="2"
     inkscape:deskcolor="#d1d1d1" /><g
     inkscape:groupmode="layer"
     inkscape:label="Image"
     id="g47377"><path
       style="fill:none;stroke:#3e3a2e;stroke-width:0.224808"
       d="m 118.14717,5.1023644 c -2.02686,0.9194198 -3.36605,2.9536871 -4.32126,4.9457806 -0.68521,1.429107 -1.25622,2.845622 -1.19576,4.496166 0.0834,2.272137 1.85175,3.426976 3.71856,3.511729 1.21307,0.05508 2.53606,-0.25808 3.59693,-0.81403 M 80.604199,5.7767892 c 0.02878,1.3945299 0.105209,2.8815911 0.449617,4.0465485 L 82.627924,9.2725569 84.425939,8.6403967 87.348446,7.1256388 M 8.2159449,17.466818 c 1.6357044,0.482438 3.0198491,-0.09172 4.2592171,-1.357842 0.959257,-0.979938 1.793743,-2.422983 1.095941,-3.812522 C 13.112719,11.38373 12.229446,10.759888 11.363259,10.346691 10.349826,9.863353 9.3777535,9.775902 8.4571636,9.1244076 7.0741441,8.1457735 7.962361,7.1999822 9.1163033,6.7058531 9.8505262,6.3914144 10.389841,6.2297092 11.138453,6.0860805 c 0.620918,-0.1191271 1.234196,-0.084124 1.798464,-0.084484 m 118.698743,0 0.44963,2.248082 M 65.766856,6.6760217 c 0.885519,1.8861417 1.88097,3.7749793 2.023275,5.3953983 l -4.046549,-0.674425 m 28.550645,5.17059 c 2.291477,1.61e-4 8.273843,1.273314 9.057073,-1.583549 0.21514,-0.785481 -0.42669,-1.395611 -0.97386,-1.816226 -0.882829,-0.679146 -2.518088,-1.269043 -3.214539,-2.232796 -1.234419,-1.7085422 0.513016,-2.1588337 1.650766,-1.7861011 m 44.512043,7.8682881 c 1.57657,-0.07217 4.20369,-0.754682 5.37112,-1.711465 0.56066,-0.459732 1.1908,-1.279834 0.7151,-2.047553 -0.57955,-0.935203 -2.87979,-1.200926 -4.06184,-1.561968 -0.62451,-0.190638 -1.02826,-0.26415 -1.20115,-0.782109 -0.31967,-0.9574581 0.91408,-1.65279 2.09927,-1.3155776 M 81.053816,9.8233377 c 0.0014,1.8908603 0.04721,1.9216603 1.349975,2.8512423 1.41112,1.007141 2.439616,2.447937 4.045423,2.993771 m 1.739915,-4.418457 c 1.062416,-0.907254 2.566873,-1.6089376 3.694579,-1.125245 0.709306,0.348329 1.031556,0.886984 0.692489,1.600993 -0.639961,1.308281 -3.1256,0.955411 -4.387068,-0.475748 z m 47.268281,3.069608 c 0.26033,-0.999946 0.60113,-1.511386 1.22363,-2.246957 1.18722,-1.40303 2.18514,-1.751482 3.26264,-0.437478 0.83764,1.021303 1.29108,2.54393 1.58356,3.808477 m -89.473687,1.348849 c 1.158211,0.299669 7.100569,0.695107 5.930666,-2.434674 -2.15544,-3.293469 -5.144287,-3.091837 0.588772,-3.410341 M 33.619276,15.89316 c -1.972244,-0.316979 -2.027547,-2.010011 -0.977241,-3.342224 0.548983,-0.696231 1.92256,-1.10156 2.775707,-1.239368 0.569889,-0.09194 1.205198,-0.187715 1.56399,0.38195 0.33609,0.533693 0.101162,1.185638 -0.312707,1.621091 -1.232623,1.296918 -2.376897,1.699326 -3.049749,2.578551 1.045134,0.640254 2.485257,0.841906 3.821741,0.899233 m 53.50436,-0.449617 c -1.350198,-0.391615 -2.771659,-0.865287 -3.43327,-2.251454 -0.575284,-1.204747 -0.392169,-2.519727 0.677022,-2.841428 m -43.779058,1.046333 c -1.072335,2.278658 -3.045703,2.365882 -4.271355,2.472891 0.505369,-1.535889 1.472493,-3.349867 4.271355,-2.472891 m 2.023275,3.821742 c 0.324522,-2.451398 0.619939,-4.940206 2.922508,-5.875814 1.200476,-0.4640037 2.053624,0.722983 2.199973,1.829265 0.226832,1.713263 -0.985109,3.727545 -3.099208,4.307326 -0.946665,0.259653 -1.481934,-0.01753 -2.023273,-0.260777 l -0.449392,1.798465 -0.225034,1.798465 m 35.489705,-8.098516 c -0.657564,1.073234 -0.479516,1.891087 -1.079979,3.137424 -0.223011,0.462879 -0.628339,0.992528 -1.394036,0.974767 m -2.43996,-1.358981 c -0.307987,0.2936 -1.639087,1.240083 -2.699282,1.312697 -0.730402,0.04991 -3.114505,-0.642132 -2.53068,-2.239283 0.596022,-2.77015 1.985665,-2.206909 2.484768,-0.954405 0.63966,1.605227 0.260059,2.509882 -0.741443,3.08017 m -5.057882,-3.497352 0.446243,2.472891 -0.221437,2.697699 m -0.224806,-5.17059 1.798467,0.224807 m 62.051692,-1.565323 c -0.96726,2.407692 -1.03304,3.232593 -1.57828,5.387065 M 19.681166,13.195462 c -0.298771,1.010962 -0.273817,1.692131 -0.220539,2.922507 0.03575,0.824596 0.270671,1.387291 0.908226,1.975165 0.614626,0.566966 1.374478,1.059295 2.233695,0.672626 1.594116,-0.717364 1.700899,-1.628512 1.349975,-3.547024 M 123.99219,13.328998 c 0.28955,-0.06565 0.60451,-0.127693 1.12404,-0.126569 0.58337,0.0012 1.42057,-0.0076 1.63278,0.718713 0.53977,1.846349 -3.31637,2.897329 -4.77897,2.767166 -0.58225,-0.05171 -1.12157,-0.32912 -1.26859,-1.041088 -0.11016,-0.533694 0.0648,-1.05053 0.4658,-1.436975 1.10921,-1.069188 1.34008,-0.544485 2.82494,-0.881247 m -96.667545,0.540888 c 0.52313,0.02428 0.957909,-0.0099 1.573208,0.296297 3.385388,1.684262 -0.660936,4.080944 -2.697248,3.622335 -0.883048,-0.198731 -1.415842,-0.596191 -2.023275,-0.996125 m 15.961386,-2.023275 c 0.463106,1.926608 2.088243,2.959827 4.046548,4.046549 m 305.739196,54.403597 2.69771,1.776659 3.14507,2.536061 5.73036,5.841868 3.5677,4.682756 7.71094,9.891563 2.38072,3.372119 2.64375,3.82174 1.62085,2.31328 1.45452,1.7335 0.006,1.79824 -0.34623,4.04655 -0.16859,2.24808 -0.73063,6.29463 -0.0383,1.57366 -0.15959,2.02327 -0.0652,4.27136 m 2.02327,-51.930706 c -0.42488,1.434503 0.0225,2.471094 -0.0472,3.821742 -0.0405,0.809757 -0.16638,1.483734 -0.17759,2.248081 -0.0135,0.749285 -0.11019,1.231051 -0.18662,2.023274 -0.3462,3.646164 0.18662,7.58548 0.18662,11.240414 0,2.982755 0.50864,7.615595 -0.29618,10.341405 M 90.651709,79.162052 c 0.05687,2.753899 0.818975,5.847261 0.653518,8.76752 -0.08588,1.516107 -0.465353,3.777228 -0.743441,5.170589 -0.183219,0.918567 -0.315856,1.456984 -0.359694,2.472892 M 403.87846,79.963512 v 2.697698 c 0,0.762101 0.002,1.317152 0.0944,2.023275 0.10116,0.763897 0.1304,1.402803 0.1304,2.248082 0.002,3.314798 0.5755,6.516967 0.96217,9.666754 0.22931,1.861863 0.3125,3.861529 0.54629,5.845019 0.10115,0.84393 0.0225,1.40887 0.10336,2.24808 0.0944,0.99882 0.18211,1.68134 0.18659,2.6977 0.006,1.21217 0.15286,2.26516 0.28776,3.37212 0.31023,2.51133 0.3507,5.24275 0.78009,7.86829 0.57549,3.50948 1.22745,6.91353 1.96481,10.34118 0.4069,1.89423 0.46086,2.89575 1.46351,3.82174 M 74.246102,93.665104 c 0,-2.089591 -0.30866,-3.807127 -0.460407,-6.185149 -0.03799,-0.596415 -0.160062,-1.47047 -0.01933,-2.023273 0.223008,-0.876752 0.36891,-0.928233 0.893162,-1.798467 0.301918,-0.501321 0.758728,-1.137979 1.175748,-1.563765 0.948915,-0.968923 1.874225,-1.432928 3.123035,-0.521556 1.741365,1.270391 2.638801,3.350767 2.437147,5.232637 -0.206823,1.932677 -1.432253,3.352567 -2.883391,4.550568 -0.68409,0.564945 -1.407074,1.047382 -2.248082,1.380774 -1.115049,0.442197 -1.420788,0.105654 -2.01788,0.928231 -0.227505,0.313384 -0.441972,2.180866 -0.455012,2.807181 M 410.61728,81.933657 c -0.46149,1.744714 -0.0415,2.118448 0.002,3.65006 0.0876,2.40972 -0.0383,4.791564 0.19109,7.193865 0.081,0.850674 0.0315,1.691682 0.13265,2.47289 0.0742,0.564718 0.11913,0.969148 0.13038,1.573659 0.009,0.585174 0.018,0.990055 0.0944,1.573657 0.1866,1.409998 0.22256,2.860912 0.33498,4.496162 0.0584,0.84686 0.0113,1.45676 0.11464,2.24808 0.14838,1.11461 0.23829,2.39421 0.33497,3.59693 0.10114,1.25714 0.17086,2.75638 0.33946,4.04655 0.081,0.60047 0.12139,0.97411 0.13039,1.57366 0.009,0.7684 -0.006,1.24769 0.0944,2.02328 0.16637,1.25577 0.32597,2.41264 0.35521,3.59693 0.0899,3.74014 0.84302,9.27132 2.47288,12.36445 m 228.8548,-49.457811 3.6711,11.240412 0.59576,2.922506 -0.0989,1.727427 0.77784,0.520656 M 140.55914,91.301697 c 0.11847,-0.802792 0.45995,-1.846127 0.72658,-2.922508 0.29001,-1.169902 0.32327,-2.487728 1.36369,-3.180811 1.34974,-0.899234 1.44821,1.635029 1.50778,2.506162 0.0337,0.496601 0.11532,1.472719 0.90778,1.366834 0.51706,-0.06924 0.77558,-0.401734 1.11573,-0.921265 0.37026,-0.565841 0.6461,-1.395834 0.95858,-2.019002 0.59597,-1.188787 1.53296,-3.081448 2.64757,-3.52342 1.79195,-0.710395 1.56151,3.192277 1.56308,3.973036 0.002,0.836963 0.0488,1.348624 0.0922,2.248083 0.0439,0.914294 0.0808,1.790372 0.13265,2.472891 m 395.95618,-6.617212 c 0.72162,5.681802 3.04389,10.782703 3.95212,16.635805 0.76661,4.95118 0.62271,10.42751 1.59389,15.28697 0.30349,1.52667 0.31024,2.57652 0.5238,4.27135 M 127.74507,92.650546 c -2.05161,0.655989 -4.98175,1.737542 -6.73098,0.173552 -1.6411,-1.467548 -1.16541,-5.688097 0.10634,-7.094499 0.65058,-0.719611 1.21845,-0.853596 2.12847,-0.947343 m 357.51397,37.445214 c 1.10154,1.0413 2.24359,1.76046 4.04654,2.1323 1.75127,0.36149 4.01507,0.20683 5.84504,-0.30575 1.47023,-0.41206 2.71792,-0.91406 4.04654,-1.46686 1.05209,-0.43749 2.03001,-0.97118 2.92249,-1.69371 1.27692,-1.03434 2.59654,-2.37375 2.88654,-4.06139 0.52382,-3.05559 -3.52048,-5.69686 -6.03386,-7.13069 -4.37701,-2.49627 -9.20365,-4.39343 -13.48848,-7.16509 -2.42344,-1.56803 -4.98175,-3.366052 -6.07431,-6.161767 -0.75537,-1.926832 -0.55755,-4.484251 0.30349,-6.29463 0.42263,-0.887543 0.91271,-1.476542 1.72427,-2.132306 1.49721,-1.206096 3.07089,-2.305185 4.94577,-2.360488 1.70405,-0.04991 3.30243,-0.147248 3.37213,2.019902 M 601.4849,85.583717 c -1.1173,3.780825 1.19597,9.310885 2.25707,13.038878 0.50583,1.781385 0.89248,3.800385 1.11505,4.945785 -0.95094,0.006 -1.34211,-0.36374 -3.14732,-0.67443 M 107.06271,85.906299 c 1.01029,0.190186 1.86366,0.22863 2.92139,0.267297 1.33827,0.04901 1.43292,0.702974 0.61192,1.755751 -0.6742,0.864612 -3.03288,2.578102 -3.72799,3.373248 -0.32642,0.373408 -0.8527,0.879226 -0.62092,1.494526 0.24234,0.643626 1.03906,0.606983 1.49002,0.576409 1.0384,-0.07014 3.47532,-0.65914 4.72097,-0.722984 m 15.96139,-5.620208 c 1.8731,-0.446017 4.38085,-0.442197 6.29464,-0.157141 0.77693,0.115778 1.39673,0.332491 2.01338,0.78728 1.05794,0.78031 1.31265,1.864111 0.66431,2.958028 -0.57282,0.966 -1.85602,1.939869 -2.90251,2.450409 -1.50845,0.736021 -3.05222,1.146072 -3.87074,-0.02001 -0.60181,-0.857194 0.16118,-2.647791 0.94823,-3.096057 M 94.24864,95.79786 c 1.419665,-0.112179 3.524544,-0.363738 4.691075,-1.143373 0.6153,-0.411176 1.095485,-1.193732 0.559546,-1.952685 -0.493004,-0.698704 -1.138203,-0.701626 -1.878497,-1.026251 -0.874503,-0.383521 -2.190755,-1.024451 -2.380268,-2.172321 -0.18142,-1.098862 0.583602,-1.702698 1.260274,-2.003041 0.727256,-0.322375 1.501494,-0.152196 2.244036,0.204575 m 472.166184,0.576652 c 4.30731,-0.184341 8.7248,-0.226156 13.26367,-0.224808 2.0435,6.43e-4 3.95887,0.08723 5.62021,1.348851 M 80.651057,90.689886 c 0.769518,0.814706 0.652229,0.496234 0.836572,1.698283 0.08655,0.565168 -0.332942,2.393984 0.457935,2.915988 1.278259,0.844155 2.886985,-0.750411 3.750249,-1.575906 1.026926,-0.982411 1.443496,-1.211268 2.023274,-2.688931 m 568.120253,1.322617 -0.22481,1.573657 m -568.407672,-1.897462 1.411464,2.373311 m 26.537488,-2.210514 -0.67443,0.674426 m 462.51171,-4.736327 c 0.12993,0.209304 1.09433,4.596992 1.19661,4.805612 0.60562,1.235093 0.15249,3.620329 0.66601,5.22834 0.85424,2.6723 2.02552,5.53388 2.49537,8.3179 0.25402,1.51724 0.53955,3.91122 0.57774,5.39541 0.0156,0.54583 0.16191,1.28119 0.22258,1.83151 M 56.207161,92.340361 c 3.136525,-0.789976 4.069479,3.216107 2.148267,5.119335 -0.903504,0.894961 -2.534936,0.715789 -3.497117,0.465801 -0.5256,-0.136458 -0.938574,-0.378801 -1.573657,-0.342832 -0.912047,0.05193 -1.476092,0.707923 -2.472891,0.946442 -0.940149,0.22481 -1.964373,0.03485 -2.570907,-0.657113 -0.806162,-0.919692 -0.576407,-2.5808 -0.576407,-3.733166 m 598.004881,3.513493 c 1.15775,0.498851 1.73102,0.937451 2.69769,1.124043 M 5.6253058,92.565169 c -0.5534769,1.150121 -0.6665558,1.999445 -0.312483,3.372125 0.344181,1.335585 1.305012,2.833034 2.377123,3.640995 1.1663052,0.879001 3.4721632,1.317151 4.9010422,0.590121 0.761653,-0.38757 1.000848,-1.158437 1.822073,-1.217787 0.680718,-0.04923 1.431353,0.55033 2.00304,0.788403 1.498123,0.623394 3.975735,1.000624 5.611216,6.42e-4 3.193174,-1.952007 -0.143653,-4.860577 -2.463899,-5.151255 M 659.48543,97.94814 c 0.73062,2.73322 1.2769,4.49324 1.96256,7.19386 0.27204,1.06829 0.4159,1.83916 0.89025,2.92251 0.42038,0.9615 0.90597,2.70602 2.06374,2.48458 0.99588,-0.19019 1.12403,-1.60558 1.40505,-2.48458 0.78234,-2.45535 1.21173,-4.51954 1.77149,-6.96905 M 38.672118,93.464404 c 1.049179,0.211769 2.732995,1.104257 2.89553,3.372123 0.07373,1.026924 -0.192211,1.762046 -0.902155,2.410169 -1.221833,1.115044 -4.453675,1.073004 -5.806348,0.198731 -0.947116,-0.612153 -1.474292,-1.200701 -2.25685,-1.934475 -1.105831,1.045584 -2.925654,2.545058 -4.338125,0.64992 -0.706347,-0.947792 -0.607656,-2.393534 -0.607656,-3.572429 M 679.94297,108.96378 c -1.16001,0.68296 -3.1698,1.36708 -4.94577,1.34795 -0.94647,-0.0101 -1.55118,-0.02 -2.47289,-0.51144 -1.72633,-0.92098 -2.17192,-2.74208 -2.23614,-4.56852 -0.005,-0.22651 0.0621,-0.48894 0.13823,-0.7207 4.0892,-11.04687 10.15591,1.65476 1.76179,-0.38826 m -23.04394,-4.82579 2.02326,0.534819 3.14732,1.038841 m -621.712535,-5.536095 0.224809,2.47289 m 496.577466,6.882045 c -0.83853,-1.09886 -1.30165,-3.08886 0.44962,-3.59693 m 118.51283,-2.316226 c 0.58898,3.173396 2.45206,10.355566 3.69973,14.458766 M 52.610232,95.559391 c 0.535042,0.92711 0.57663,1.311308 0.674422,2.023274 M 65.19949,96.162103 h 0.625539 M 620.14399,111.66147 c 1.53094,-2.81078 0.95769,-6.17413 2.71343,-8.98333 1.21844,-1.94684 2.97869,-1.38685 4.70523,-1.13304 m -614.069056,-4.933382 0.919467,2.338905 m 626.862899,4.392947 c -1.26792,1.6638 -0.98019,2.89283 -1.47251,4.72097 -0.17534,0.64677 -0.30348,1.14225 -0.32146,1.79847 -0.0584,1.94302 0.42713,3.70439 2.6932,3.99529 0.70364,0.0904 1.13977,-0.0654 1.79847,-0.13623 0.79582,-0.0854 2.03676,-0.33565 2.6977,-0.48694 m -41.81434,-9.66675 2.69763,-5e-5 m 4.69106,4.83668 c -0.28415,-1.21743 0.0527,-3.66311 1.38333,-4.34677 0.77334,-0.39926 2.7629,-0.60294 2.936,0.65531 0.19782,1.45181 -3.51152,2.1078 -4.11624,2.84001 -0.35745,0.43478 -0.20907,0.96285 -0.0876,1.41044 0.26977,0.99815 1.85691,3.15114 3.06189,3.51061 1.2297,0.36643 1.42527,0.0991 2.47288,0.0861 m 17.75984,-4.72097 c -0.50131,1.5478 -0.7396,1.31332 -2.24808,1.75845 -0.79806,0.23537 -2.07721,0.41858 -2.80783,-0.30035 -0.80932,-0.79492 -0.77561,-1.99809 -0.44739,-3.03176 0.24505,-0.77559 0.54405,-2.10803 1.468,-2.27483 0.79132,-0.14253 1.64784,0.69802 2.23685,1.15079 m -29.00032,-1.5737 c 0.38215,2.05699 0.55976,2.74423 0.92845,5.3954 0.18209,1.30501 0.39115,2.63295 0.42039,4.04654 m -14.38766,5e-5 c -0.0306,6.21204 3.31654,-4.51988 4.16345,-5.84501 0.52605,-0.78414 1.61638,-2.67095 2.79662,-2.49381 1.06109,0.15894 1.82768,1.87603 2.07947,2.71861 0.77334,2.56596 0.60248,5.20791 1.52644,6.96906 m -11.01559,-6.06982 0.44961,4.72097 m 43.20546,-3.96885 c 0.30349,1.26478 1.21397,1.88368 2.47289,2.4729 M 529.3215,122.45231 c -1.64559,0.20817 -2.91801,0.48447 -4.49617,0.44625 -2.09296,-0.0504 -4.41972,-0.26101 -5.21105,-2.46975 -0.38218,-1.06739 -0.0674,-2.1559 0.21583,-3.14709 0.8745,-3.04166 2.64374,-6.23618 5.22003,-5.17059 m 18.20949,2.92251 c -0.0202,1.71259 -0.39117,1.91739 -1.15327,3.14732 -1.22523,1.97763 -5.77758,5.71597 -6.54192,1.34885 -0.15738,-0.90958 0.0225,-1.42934 0.0539,-2.24809 0.0899,-2.38971 0.85652,-5.16092 3.59469,-5.17059 m -140.28035,17.98466 c -2.19862,0.52965 -4.54562,0.75154 -6.74424,0.0337 -1.10156,-0.3597 -2.04803,-0.99883 -2.92026,-1.84186 -2.08397,-2.01765 -2.42343,-4.72659 -1.65684,-7.40901 0.46085,-1.61412 1.59389,-3.47981 2.79886,-4.70096 0.93971,-0.95117 2.19637,-1.90593 3.35188,-2.45513 0.85652,-0.40735 1.37359,-0.7295 2.24809,-0.89429 0.97118,-0.18299 2.59879,-0.10411 3.525,0.79357 1.28591,1.24431 -0.14838,3.41439 -1.00939,4.55912 -0.91497,1.21575 -2.25484,2.72984 -3.63964,3.53645 -1.74002,1.01344 -3.67113,1.15192 -5.1706,0.0605 m 120.08584,-8.98807 c 1.37131,-0.70927 4.2466,0.0213 4.60631,1.7951 0.17309,0.85585 -0.004,1.66965 -0.49908,2.472 -1.52419,2.46524 -4.71423,5.10157 -7.73791,4.12455 -0.95318,-0.30731 -1.45226,-1.1418 -1.6456,-2.10128 -0.26976,-1.32794 0.51931,-4.14794 1.50396,-5.0991 0.84529,-0.81628 1.86143,-0.23605 2.5898,-0.435 0.59575,-0.163 0.80256,-0.55933 1.18252,-0.75627 m 64.93134,1.34459 5.62022,-0.16142 1.79846,-0.25516 2.02328,-0.48266 4.04654,-0.67442 m -142.30361,13.03887 c 0.41588,1.81578 0.48783,3.78129 -2.47289,3.78105 -1.71304,0 -2.85282,-1.20699 -4.02632,-2.3027 -1.75574,-1.6393 -2.75165,-3.97304 -3.61716,-6.19932 -0.27427,-0.71174 -0.44963,-1.29129 -0.57553,-2.02327 -0.18657,-1.07863 -0.38665,-1.87468 -0.0989,-2.9225 m 107.78396,0.82838 c 1.36234,1.51252 1.77857,2.17438 3.4961,3.89259 m -94.64427,-3.59693 c 1.31739,0.16433 3.14058,0.986 3.79702,2.47378 0.74637,1.69146 0.6272,4.25158 0,6.06892 -0.24504,0.71288 -0.54403,1.2315 -0.99365,1.7897 -1.14652,1.42304 -2.89553,2.21976 -4.60183,2.25348 -1.75799,0.0345 -2.93472,-1.05192 -3.96884,-1.87135 m -21.6593,-8.5285 c 2.00529,-0.0766 3.2867,0.41409 4.94577,1.38325 1.26119,0.73602 2.72018,1.92525 3.16082,3.39977 0.16411,0.54921 0.20007,0.99747 0.14386,1.57365 -0.0674,0.68679 -0.20008,1.39921 -0.5013,2.02328 -0.93297,1.92909 -3.11585,3.62458 -5.27626,3.80084 -2.90901,0.23717 -5.48532,-1.5631 -5.99563,-4.47526 -0.15513,-0.88755 -0.0786,-1.58378 -0.0742,-2.47289 0.004,-0.6751 0.018,-1.15462 0.13938,-1.79848 0.3507,-1.8596 1.4028,-3.35547 3.45755,-3.43416 m 105.54566,-11.7559 c 2.31251,8.10155 1.71335,9.79438 2.13749,14.29084 m -21.5816,22.25601 0.2248,5.3954 0.48786,9.44196 0.63619,6.29463 m -17.08541,-2.47291 c 2.25706,1.18318 5.00646,0.92353 7.16912,-0.69802 0.80482,-0.60383 1.22746,-1.45518 0.56428,-2.42837 -0.86102,-1.26074 -2.56508,-1.71463 -3.91168,-2.15209 -1.63435,-0.53078 -4.46918,-0.23022 -5.73035,-1.56243 -1.71979,-1.81937 1.68155,-7.79387 3.72731,-8.12614 1.34885,-0.21919 4.35455,1.73552 5.82479,2.15298 m -38.44221,15.06216 c -1.76473,-2.03878 -3.51825,-4.5101 -4.93005,-6.74425 -0.27201,-0.42871 -0.65643,-0.85742 -0.71489,-1.34884 -0.0854,-0.72457 0.38218,-1.17328 0.69693,-1.79848 1.33759,-2.66734 3.507,-6.0361 6.52168,-7.19386 M 422.3127,169.2124 c 0,-1.09616 0.004,-1.47137 -0.1304,-2.4729 -0.15961,-1.20407 -0.31247,-2.61519 -0.31922,-3.82172 -0.004,-0.82169 -0.32822,-2.19234 -0.19782,-3.14733 0.11239,-0.79874 0.32145,-1.01276 0.39117,-1.57366 0.0427,-0.34395 0.24052,-3.5749 0.25852,-4.04654 0.0786,-2.16019 1.61861,-7.72307 4.94352,-5.64404 1.79173,1.1209 2.93826,3.62728 2.04351,5.64404 -0.46985,1.06222 -1.58039,1.99967 -1.8097,3.14731 -0.22256,1.12831 0.67892,1.74811 1.56466,2.32991 1.16003,0.76232 2.17166,1.2623 3.37213,1.90458 5.38399,2.16647 6.83098,5.67409 1.12404,8.30128 m 53.05476,-19.95445 1.07681,2.92252 0.72164,3.37212 1.34883,7.64348 m -102.28774,13.93812 c 0,-1.31085 -0.0922,-1.89176 -0.20906,-3.14732 -0.28777,-3.11876 -1.13304,-6.45043 -2.06149,-9.44194 -0.27653,-0.89227 -0.61598,-2.22448 -0.72164,-3.14733 -0.13038,-1.12651 0.27876,-2.28968 0.29449,-3.59693 0.009,-0.84484 -0.0584,-1.64065 0.0405,-2.4729 0.24279,-2.01765 1.31736,-4.50649 3.55645,-4.78639 0.87902,-0.10992 1.85466,0.0618 2.6977,0.39792 1.78499,0.71152 3.20127,2.2238 4.09375,3.93887 0.46987,0.89877 0.82731,1.73236 0.79359,2.69769 -0.0337,0.9343 -0.44962,1.89289 -0.94643,2.69771 -0.4249,0.69016 -0.87902,1.21305 -1.47025,1.77845 -1.50173,1.43181 -3.84872,2.96296 -5.84277,3.16732 m 64.96958,-14.38773 c 1.97606,1.95899 3.81945,3.75903 5.59546,5.39541 m -57.04508,0.17018 c 0.60698,-0.25135 1.19824,-0.10369 1.69505,0.24751 0.46312,0.32958 0.67893,0.72951 1.00715,1.15618 0.53728,0.70456 1.13978,1.35875 1.98729,1.79936 1.81421,0.94196 3.55873,1.26951 4.68952,2.94231 0.76884,1.13931 0.8745,3.05087 0.65867,4.47525 -0.30349,1.99944 -1.89513,4.29046 -3.77452,5.12248 -1.50846,0.66748 -3.17429,0.56675 -4.71198,-0.5481 -0.77559,-0.56222 -1.26567,-1.30005 -1.79847,-2.10149 -1.4635,-2.20312 -1.7962,-5.52152 -1.37582,-8.0931 0.20458,-1.24701 0.23381,-4.42331 1.62311,-5.0004 m 49.1296,2.2283 c 0.5845,0.61191 0.55303,1.24094 0.51257,2.09767 -0.0495,1.04514 -0.37767,2.00328 -0.89924,2.92229 -0.86552,1.5206 -2.53584,3.11494 -4.26238,3.7905 -1.87938,0.73534 -3.84645,0.26504 -5.35717,-1.13011 -2.90778,-1.88528 -2.91285,-8.4125 -1.09481,-9.62292 8.15686,1.1906 5.3385,-3.85922 11.10103,1.94257 z m -16.78869,10.5869 c -0.89248,0.41005 -1.77148,0.69622 -2.6977,1.02217 -1.16226,0.40896 -2.05699,0.64746 -3.37211,0.82979 -1.0049,0.13916 -1.62538,0.22188 -2.69771,0.22481 m 33.47169,-15.06215 c -1.31289,1.55613 -3.65761,6.59677 -3.797,9.66674 m 131.28804,9.89158 c 3.01469,-0.38084 6.20021,-0.62408 9.21713,-0.73176 0.71939,-0.0257 1.91763,0.003 2.21662,0.5782 0.21581,0.4123 0.054,0.79852 -0.29225,1.19307 -0.58,0.66116 -2.12668,1.18856 -2.16043,2.32608 -0.018,0.6324 0.44514,0.8682 0.91949,1.0755 0.70589,0.30662 1.36908,0.51885 2.01427,0.92665 1.00715,0.63553 1.99405,1.50912 2.71346,2.50052 1.01387,1.39496 1.49721,3.23704 1.54892,4.94581 0.12365,4.08993 -3.48904,7.10662 -7.40968,7.41867 M 538.5386,175.95665 c 0.20906,0.99657 0.55301,1.7092 0.78006,2.69769 0.28328,1.22812 0.39117,2.29238 0.64297,3.37213 1.09931,4.66814 1.75125,10.02283 2.39869,14.83734 m 13.0389,-20.68237 0.4451,2.24809 0.22931,4.49617 -0.0337,1.79847 0.0337,2.02327 -0.69464,5.1706 -0.87902,5.39539 m 9.66677,-20.23275 c 1.71304,0.0735 3.21924,0.4141 5.17057,0.34643 1.17801,-0.0409 2.39421,-0.34035 3.59694,-0.34665 1.21845,-0.006 1.79622,-0.19669 3.14732,-0.22459 m -28.55065,0.44962 -1.15103,3.37213 -0.66317,2.69769 -0.4159,2.24809 -0.2428,1.79847 c 1.67931,0.23066 2.43468,-0.94713 4.04656,-1.55882 1.27017,-0.48244 2.7539,-0.90554 4.04655,-1.07392 0.49682,-0.0645 1.06335,-0.0641 1.56916,-0.065 0.54178,-0.002 1.04985,5e-5 1.31963,5e-5 m 6.32834,-6.9691 c -0.55302,1.10943 -2.27956,3.29163 -2.07722,4.72098 0.16636,1.17911 1.26117,2.16647 2.30203,2.57134 2.49986,0.97163 5.19532,0.50853 7.86828,0.9334 1.43654,0.22864 2.68873,0.34757 3.04841,1.67011 0.19783,0.72839 0.004,1.51274 -0.33272,2.24382 -0.35295,0.7659 -0.83179,1.39291 -1.40505,2.01991 -1.0656,1.16359 -2.38747,1.81664 -3.78353,2.44927 -0.89473,0.40532 -1.71077,0.62586 -2.6977,0.70049 -1.64559,0.12455 -2.83258,-0.8021 -3.59692,-1.79755 m 21.5816,-15.51177 c -0.55303,1.8686 -0.10338,2.65724 -0.24504,4.72098 -0.18661,2.73028 -0.0495,5.52915 0.0383,8.3179 0.0359,1.11258 -0.0135,1.73145 0.20683,2.92249 m -85.42714,-15.51177 c 0.71489,0.93522 0.98018,1.8747 1.39382,2.92253 0.38667,0.97633 0.88573,1.88907 1.22295,2.92249 0.48785,1.49655 1.04311,3.26782 1.2814,4.72098 0.13715,0.83877 0.0652,1.78634 0.12815,2.6977 0.072,1.06963 -0.15511,4.58204 -0.90821,4.73266 -0.6115,0.12231 -0.96219,-0.25785 -1.46802,-0.92328 -0.75311,-0.99613 -1.35559,-1.91941 -1.98056,-2.91016 -0.85301,-3.51798 -10.02087,-20.41676 -5.6202,-5.39539 0.58225,1.56085 1.02963,2.55809 1.51071,4.04654 0.64969,2.00598 1.0094,3.97149 1.29266,6.06983 m 20.45754,-18.65907 c 0,3.66212 0.61373,8.96917 0.15961,12.81406 -0.35969,3.05761 -0.70139,6.1748 -0.3844,8.0931 m -8.54273,-20.68237 c 1.74226,2.43738 6.33593,5.73499 9.0741,7.13307 m -59.43114,-3.31131 c 0,3.41866 2.24359,9.07169 3.14731,11.46522 2.34925,-1.16835 5.02672,-3.40653 8.0931,-4.72098 m -79.13251,24.5041 c 0,-2.89104 -0.0674,-6.41917 -0.44962,-9.21716 -0.14163,-1.03186 -0.3462,-2.62102 -0.50581,-3.59691 -0.081,-0.51278 -0.21356,-1.18789 -0.1057,-1.79848 0.24954,-1.41449 0.49008,-1.37133 0.64969,-2.9225 0.22258,-2.19074 0.74638,-5.40259 2.8843,-6.40164 2.11094,-0.98578 4.03755,2.9369 4.7502,4.60317 0.32372,0.75762 0.54177,1.7697 0.89698,2.47291 0.25629,0.50828 0.56428,0.80189 0.70364,1.34883 0.11916,0.47502 0.0225,0.85834 0.0585,1.34885 0.10568,1.3828 0.66991,3.14484 0.91497,4.49618 0.16861,0.94059 0.25402,1.58624 0.3799,2.47287 0.18886,1.32212 0.50583,2.91443 0.61374,4.27138 m -15.06215,-17.98463 c 0.8138,1.33063 1.17124,2.78268 1.60064,4.04565 0.43387,1.27399 0.8655,1.95128 1.60963,2.24893 m 72.1005,-5.17054 c 0.0359,1.82702 -0.20234,2.56034 0.86551,4.27136 0.30573,0.48805 0.7104,1.05908 0.85426,1.57364 0.42264,1.50422 0.31924,3.06438 0.52832,4.72098 m -10.79081,-0.44959 c -0.072,-0.37321 -0.36869,-1.49835 -0.31474,-2.02328 0.12141,-1.17756 0.49458,-0.87384 0.72614,-2.02328 0.4024,-2.00395 1.87938,-3.45554 4.08475,-4.04655 m -9.66675,7.19385 c -1.97156,0.89722 -3.11583,2.28452 -5.62019,1.31582 -2.14243,-0.82865 -4.33207,-4.46785 -2.37624,-6.35758 1.51746,-1.4662 3.72734,0.10947 4.84688,1.09144 0.56876,0.49975 1.1555,1.25219 1.69056,1.92706 0.71489,0.89991 1.14652,1.35019 1.45899,2.02326 m 33.04682,-4.04655 1.12179,8.76753 -0.67218,3.82174 m -60.2487,-11.91486 c -0.0359,-0.0553 0.33497,0.41929 0.44064,0.71063 0.28325,0.77469 0.12587,0.97905 0.32597,1.76227 0.18432,0.71603 0.53728,1.37313 0.8228,2.02329 0.31247,0.70904 0.42712,1.18653 0.82054,1.79847 0.4204,0.65216 1.2724,1.89603 2.0952,2.00978 1.26569,0.17512 1.75127,-1.4934 1.89515,-2.2346 0.16412,-0.84752 -0.13039,-1.88007 -0.33047,-2.47288 m 36.11544,-3.59696 c 1.57364,0.627 5.61121,2.57091 8.39658,3.14734 m -64.51996,-2.28788 c 0.53505,-0.11758 0.80257,-0.0156 1.34887,0.003 1.01163,0.0339 2.37846,0.0639 2.30203,1.38932 -0.10571,1.8133 -2.15142,3.28353 -3.6509,3.52589 -0.78009,0.12611 -1.31737,0.26752 -1.8232,-0.26684 -0.5283,-0.55888 -0.55076,-1.7751 -0.32821,-2.58799 0.28551,-1.04199 1.32862,-1.88257 2.15141,-2.06307 m 23.38005,-0.18503 c 1.46577,0.55303 1.99406,0.48807 3.14732,1.25872 1.12631,0.75242 2.36725,1.6984 2.61902,3.01266 0.15288,0.80052 0.0202,1.46618 -0.49683,2.18041 -0.48333,0.66587 -1.21171,1.27353 -2.12219,1.33039 -3.1653,0.19761 -4.15443,-1.71241 -6.18896,-2.3873 m 20.35188,-2.69718 1.34887,2.24809 m -43.86236,-0.1097 c 0.25629,1.26613 1.4995,2.68825 3.84648,3.38313 1.11279,0.32935 2.20986,0.52426 3.37213,0.54831 M 655.98439,96.138997 c 0.628,2.668283 0.84243,5.084883 1.03035,7.302973 0.16935,1.99882 0.48313,3.82388 0.94088,5.5342"
       id="path47461"
       sodipodi:nodetypes="cccsccccccccccccscccccccccccccccccccccccccccccccccccsccccccccccccccccsccccscccccccccccccccccccccccccccccccccccccccccccccccsccscccscccccccccccccccccccsccccccccccccccccccccccccccccsccccccccccccccccccccccccccccccsccccccccccccccscccscccccccccccccscccccccccsccccccccccccccccccccsccccscccccccccccccccccccccccccsscccccccccccscccccccccccccccccccccccccccsccccsccsccccccccccccccccsccccccsccccccscccccsccccccccccccsccccccccscscccccccccccccccccssccccccccccccccsccccccsccccscccccscsccccscccccccccccccsccccccccccccccccccssccccccccccsccccccccccccccccccccccccccccccccccccccsscccccccccccccccccccscccccccccccccccsc" /><path
       style="fill:none;stroke:#010101;stroke-width:0.161095"
       d="m 120.09981,26.016894 c 0.0391,0.755427 -0.184,2.676301 -0.1051,4.199549 0.13556,2.616921 0.374,5.343267 0.99827,7.852554 0.22026,0.885652 0.41407,1.183065 0.48367,2.072005 M 39.354716,30.521923 c -0.374814,0.857877 -0.510348,2.065555 -0.68127,2.938895 -0.12564,1.916826 -0.09393,4.995797 1.620847,5.857639 1.240942,0.444143 2.991114,0.311331 4.166212,-0.538422 0.366142,-0.277872 0.495077,-0.398443 0.780793,-0.497445 m -21.968109,5.654623 c 1.351619,1.354277 2.632507,2.306663 4.762743,1.635321 4.274011,-3.501966 5.669408,-6.089772 0.751166,-7.297927 -1.78952,-0.44706 -3.572186,-0.568748 -5.493537,-0.17261 -0.823091,0.169755 -1.967445,0.43115 -1.917261,-0.680304 0.07072,-1.562139 1.9312,-3.815405 2.914032,-4.990289 0.423057,-0.505741 0.573237,-0.645897 1.092825,-0.701849 5.403871,0.390469 8.360409,-0.790398 10.304653,-0.372451 M 4.5654035,34.521029 C 3.7368618,33.794416 3.999333,33.505461 4.5034357,33.483205 7.487811,33.145997 10.174897,32.677712 13.172899,32.684629 c 0.406796,0.0016 1.008422,0.04856 1.231599,0.420144 0.485531,2.999591 -3.973054,3.89912 -3.97999,5.690747 0.02063,0.315105 0.03819,0.469053 0.362034,0.760872 1.826724,2.055859 6.723074,2.980667 8.0874,5.09262 0.512224,0.838907 0.068,1.879639 -0.922113,2.440507 -2.26228,1.049659 -4.916146,2.002665 -6.916447,0.385192 M 46.32251,31.128873 45.931536,32.92356 c -0.399042,1.774548 -0.554232,3.549282 -0.690284,5.359032 l -0.03775,2.905573 0.09354,1.285642 M 63.59501,31.36338 c 0.157652,-1.958477 0.925277,-1.266639 1.434105,1.402033 0.295357,4.374038 0.131814,6.105896 0.588041,8.275631 0.114627,7.295488 -1.504894,-7.880785 0.635944,-10.783213 0.386826,-0.507509 2.621448,-3.398182 3.878144,-1.948418 0.824344,1.599129 -0.890685,2.984779 -1.840716,3.955252 -1.876477,1.075517 -5.642203,4.387746 -1.349687,7.636241 0.206075,0.05141 1.308261,0.800898 1.664351,0.98925 1.30496,0.690411 3.162653,0.933912 4.24399,0.963075 M 54.366511,30.712213 c -0.72811,0.05694 -1.751331,1.345945 -2.465748,2.224767 -0.750825,0.960595 -1.658925,1.801455 -1.914574,3.002778 -0.0874,1.731499 1.784621,1.20673 2.774755,1.146772 2.17954,-0.111894 4.479731,0.135012 5.849535,1.337063 0.257859,0.244419 0.357366,0.371702 0.496214,0.753921 0.151649,0.417685 0.118232,0.581373 -0.04897,1.131719 -0.240755,0.792735 -1.184842,1.76256 -1.985879,2.146199 -0.704412,0.33717 -0.980445,0.486158 -1.589362,0.45866 -2.09833,-0.0984 -2.059467,-1.468824 -1.928009,-2.965047 0.443257,-2.303894 1.880506,-2.636305 2.893312,-3.833148 0.702983,-0.806865 2.25545,-1.572827 3.114345,-1.640006 m 78.8004,-7.791854 c 0.69152,0.766806 0.63625,1.506515 0.57244,2.228713 -0.0583,0.581853 -0.23901,3.168285 -0.87684,7.465752 -0.62598,7.487606 -0.43005,-5.978007 2.49482,-9.969229 0.35003,-0.476865 0.78178,-1.001461 1.4626,-0.828557 0.34344,0.08724 0.51051,0.263885 0.67408,0.556566 0.20534,0.36732 0.39945,0.847962 0.52244,1.263436 0.0702,0.236824 0.0504,0.381444 0.0602,0.642126 0.01,0.261667 0.0339,0.403156 -0.0203,0.646295 -0.1543,0.69275 -0.45104,1.541345 -0.83024,2.140062 -0.30196,0.476829 -0.59857,0.882615 -1.03263,1.343976 -0.24479,0.26013 -0.50246,0.47706 -0.76968,0.712057 -0.24284,0.213568 -0.56505,0.461417 -0.77801,0.551013 -0.9306,0.390742 -1.75853,1.92992 -1.77216,2.003013 0.1795,1.23635 1.57552,1.340365 2.61847,1.878506 l 0.66296,0.342004 1.98055,0.865278 M 125.84721,27.977556 c -0.36782,1.017939 -0.14222,3.482779 -0.0968,4.360422 0.0171,0.330447 -0.003,0.823158 0.0667,1.287045 0.53657,1.994314 0.20544,3.74767 -0.0468,5.3257 m -37.838264,0.830752 c -0.805584,-1.279682 -2.658248,-3.565928 -4.2645,-1.876157 -0.318962,0.378987 -0.335543,0.482443 -0.521409,0.833568 -0.196747,0.371855 -0.296661,0.566724 -0.378915,0.987492 -0.108159,0.552615 0.0014,1.298003 0.413424,1.753022 0.501495,0.55393 1.699159,0.901141 2.443271,0.97568 2.03146,-0.156194 3.036874,-1.377237 2.308129,-2.673605 z m 0.86087,1.568528 c 0.515439,0.455627 0.592515,0.464372 1.167826,0.746069 0.626787,0.306939 1.358411,0.467288 2.119211,0.42788 0.953702,-0.0494 2.127215,-0.358277 2.727425,-1.324168 0.928556,-1.494093 -0.105554,-2.724087 -1.364451,-3.505122 -0.8545,-0.530008 -1.575563,-0.6359 -2.30787,-0.955757 -0.653585,-0.285544 -0.533927,-0.136724 -1.14561,-0.317164 -0.601514,-0.177262 -1.00701,-1.02347 -0.09305,-1.796382 1.177733,-0.886039 2.826743,-1.047996 4.321532,-0.654071 m 4.052788,3.500252 c 0.270821,-0.02534 0.906607,-0.426248 1.275362,-0.560192 0.984781,-0.988565 1.546261,-1.869088 0.811201,-2.236476 -0.677643,-0.627938 -2.230629,-0.573111 -2.857381,-0.147681 -0.302829,0.213941 -0.308515,0.53121 -0.364702,0.744793 -0.483504,1.314631 0.374551,2.62544 0.568865,3.196773 0.280544,0.598289 0.995689,1.181657 1.663883,1.499988 1.121205,0.534268 2.289145,0.553618 2.930565,0.520394 m 19.99588,-6.359027 c 2.00837,-0.632546 3.77244,-0.590121 5.75834,-0.943522 l 0.80441,-0.04167 m -19.77157,1.346752 c 0.0429,1.689451 -0.71664,3.766644 -1.67223,5.087273 -0.41007,0.566631 -1.03526,1.582861 -1.70719,1.298268 -0.62954,-0.266622 -0.93345,-0.733846 -1.14341,-1.311919 -0.15899,-0.437963 -0.33223,-1.138429 -0.4318,-1.590754 -0.0915,-0.414993 -0.053,-0.503771 -0.0769,-0.963884 -0.0613,-1.183923 -0.15444,-1.019557 0.0609,-1.938896 m 10.81552,6.376178 c -1.37597,-0.03713 -2.56422,-0.523558 -3.4618,-1.433806 -0.71728,-0.7273 -0.70763,-1.204318 -0.74352,-1.897219 -0.0648,-1.250684 0.55198,-2.161777 1.47407,-2.684285 0.36483,-0.206659 0.54463,-0.335662 0.94445,-0.4522 0.8354,-0.24346 1.77312,-4.21e-4 1.90568,0.97676 0.168,1.237757 -1.20437,1.986509 -1.74179,2.187268 M 76.199688,38.023227 c 0.505556,-0.183467 0.863611,-0.05074 1.614351,0.02398 0.461003,0.04612 0.799528,0.322023 1.158102,0.558321 0.647844,0.426989 1.805165,0.998258 2.130925,1.690994 0.387944,0.825177 -0.600291,1.830203 -1.288794,2.110092 -0.55722,0.226307 -0.614489,0.316541 -1.267594,0.441993 -1.21054,0.23257 -2.176304,-0.274902 -2.95417,-0.976163 -0.270402,-0.243769 -0.412787,-0.304945 -0.649986,-0.611576 -0.240305,-0.310335 -0.264464,-0.502823 -0.237747,-0.955551 0.271032,-0.814851 0.916775,-2.066991 1.494913,-2.282085 m 76.240902,1.965719 c -3.86095,-0.958073 -2.77755,-18.599073 -3.22645,-14.430761 0.67006,7.365339 1.14254,8.988832 0.12517,12.17172 -0.20124,0.400156 -0.25141,0.493416 -0.67952,0.895479 -0.53485,0.50228 -0.88544,0.865642 -1.73218,0.815625 -0.3477,-0.02034 -0.63419,-0.21332 -0.8632,-0.573596 -0.51248,-0.80631 -0.53241,-1.779762 0.55371,-2.287044 m -135.113271,19.95719 3.393754,0.119898 0.644912,-0.0065 1.791903,0.337399 0.968052,0.0035 0.80718,0.01196 2.130332,0.642492 m 17.119716,-2.714899 0.349994,6.756952 c 0.344595,2.166856 0.262394,4.171071 0.324995,6.274319 l 0.05,0.965285 0.08333,1.608794 m 6.132292,-0.0776 C 41.027373,65.501109 34.409255,62.227391 42.904129,61.549938 M 17.335418,56.988397 c 0.04683,0.196631 0.06659,0.304814 0.2377,0.955554 0.664293,1.5561 1.410363,3.077144 2.110203,4.407423 0.282558,0.540758 0.75955,1.842357 0.956265,2.370137 0.09799,0.263194 0.137199,0.337946 0.194213,0.635195 0.04549,0.236543 0.284651,1.639991 0.215638,2.085878 -0.422672,2.005509 -1.996707,3.292203 -3.681157,2.63729 -0.592659,-0.235468 -1.257842,-0.716883 -1.49931,-0.917151 m 65.457538,-7.423336 c -0.553727,2.790039 -0.92494,5.792721 -1.70164,8.153719 1.016718,-3.419671 1.760367,-6.92349 2.880354,-10.311821 1.566132,-3.502032 1.209408,-0.64898 1.310199,0.9 -0.115271,2.003796 -0.427456,4.041623 -0.335188,5.985893 1.698377,1.925714 2.704815,-3.8278 3.128474,-5.001397 0.13276,-0.358377 0.339986,-1.159699 0.461222,-1.475694 0.745768,-1.303953 0.858155,-1.117657 1.143337,0.02409 0.596818,2.397107 0.891648,4.961389 1.401793,7.587065 l 0.61122,1.420144 M 93.088101,58.87183 c 1.117798,0.405421 3.91669,0.729313 4.123861,1.238198 0.03411,0.08825 -0.260863,1.404184 -0.256957,1.787745 -0.113184,1.319542 0.254675,6.612129 -0.307897,7.033003 -0.696054,0.271189 -1.570062,0.05509 -2.229626,0.03478 m 21.277178,-9.651624 c -0.2262,1.315933 0.0757,4.205143 -0.46702,4.997909 -0.32993,0.416495 -0.60532,0.219607 -1.03599,0.241915 -1.94403,0.03611 -4.4332,0.116627 -4.79052,-2.171543 -0.1521,-1.01499 0.004,-2.538143 0.64606,-3.098377 m -12.835231,0.826141 c 1.041921,0.02814 1.561532,-0.06166 2.454871,0.679403 m 23.87576,9.893793 c -0.43351,-1.859404 -0.60218,-6.403603 -0.23726,-7.962837 -0.10667,0.341585 -0.71642,1.154685 -1.88242,1.297541 -0.824,0.158346 -2.38551,0.08661 -2.85706,-0.658571 -0.52762,-0.833913 -0.0983,-2.014689 0.5934,-2.558 0.35481,-0.278417 0.58476,-0.413893 1.10672,-0.433669 0.74074,-0.02806 1.32587,0.667548 1.51458,1.212045 M 47.643109,72.19491 c 1.041515,0.611123 2.244449,0.621521 3.235657,0.181969 0.737433,-0.331791 1.628861,-1.078863 1.658088,-1.725941 0.0155,-0.34262 -0.09849,-0.50384 -0.229244,-0.794686 -0.09154,-0.203347 -0.311081,-0.452824 -0.459633,-0.567724 -0.806429,-0.623479 -2.878974,-1.427216 -3.955559,-1.623248 -0.479915,-0.08742 -1.113937,-0.272513 -1.30184,-0.739128 -0.06293,-0.156124 -0.07644,-0.473039 -0.0602,-0.642136 0.04268,-0.446776 0.220286,-0.801668 0.585188,-1.159493 0.556325,-0.452253 1.302278,-0.699281 1.908335,-0.529063 0.718972,0.208758 0.628338,0.315079 1.181717,1.014259 M 24.25672,66.039658 c 1.172907,-0.606855 2.614248,-0.14913 2.796113,0.502835 m 8.931918,4.804489 c -0.566428,0.01432 -1.673983,0.160908 -2.421531,-0.03588 -3.258396,-0.3551 -2.387114,-5.093304 -0.935179,-5.597465 M 141.40791,60.563032 c 3.51918,-1.334347 4.74374,0.836474 3.91215,2.862273 -0.0462,0.124508 -0.14108,0.599491 -0.0388,0.808571 1.007,1.068831 3.7057,1.015541 3.58035,3.202092 -0.10071,1.708828 -2.32771,3.40746 -3.82478,4.015876 -0.88094,0.357928 -1.85204,0.310959 -2.72386,0.356117 m -9.69445,-0.3044 c -0.43548,0.222585 -0.53788,0.263697 -0.94862,0.371759 -0.28583,0.07509 -1.20243,-0.02513 -1.6213,-0.157995 -0.68735,-0.217976 -1.24251,-0.596685 -1.35787,-1.300811 0.18385,-1.546841 0.65917,-3.388815 1.08058,-4.572698 0.37852,-1.0599 0.51912,-1.970852 0.24386,-3.077545 -0.26914,-2.216285 -5.28329,-2.047576 -4.25751,0.151136 m -63.424633,3.677292 c 0.305198,0.538774 0.288892,0.395246 0.371758,0.94861 0.105282,0.702545 -0.0093,1.400664 -0.07942,2.101161 -0.03793,0.37928 -0.289668,0.891578 -0.234217,1.261335 0.13823,1.5764 0.244753,0.285631 0.685892,-0.362015 0.559984,-1.841262 1.343027,-3.774546 2.500452,-5.058076 0.948078,-1.051661 1.91524,-0.847377 2.812309,0.311321 0.251021,0.324299 0.472912,0.718348 0.56768,1.099777 0.128127,0.514721 0.09463,1.306885 0.126862,1.92917 l 0.075,1.447919 m -10.66414,-3.453475 c 0.372201,0.09767 0.529536,0.400694 0.844676,0.735861 0.347576,0.369636 0.559175,0.518209 0.621408,1.096995 0.06594,0.611988 -0.03903,0.924406 -0.335535,1.307877 -0.362525,0.469001 -0.574749,0.625979 -0.92361,0.854401 -0.41033,0.268705 -1.486658,0.544812 -2.066437,0.590964 -0.5793,0.04613 -0.678589,0.01662 -1.305102,-0.281956 -0.366334,-0.174434 -0.858033,-0.598387 -1.067462,-0.885638 -0.225219,-0.308863 -0.268849,-0.410002 -0.309847,-0.790511 -0.09502,-3.18571 1.888976,-3.237738 4.541909,-2.627993 z m 79.853417,-3.033975 c 1.01945,0.892961 1.27311,1.741546 1.32973,2.834731 0.0447,0.863123 0.0811,1.201285 -0.14965,1.782177 -0.16225,0.40862 -0.20893,0.497664 -0.38724,0.826618 -0.2546,0.469378 -0.38175,0.583719 -0.78126,1.008333 -0.53835,0.572154 -1.21884,0.966162 -1.88057,1.065285 -0.44371,0.06654 -0.68933,0.0023 -0.97638,-0.164454 -0.57281,-0.332965 -1.1987,-1.046124 -1.34906,-1.650835 -0.59014,-1.9093 0.23973,-4.912868 0.98147,-5.965657 0.24046,-0.33765 0.45491,-0.71623 0.89676,-0.853 0.84979,-0.08407 1.81663,0.681331 2.3162,1.116802 z m -23.121,0.525424 0.13333,2.574079 0.16735,0.636576 0.28774,1.920837 m -84.678921,0.870844 c -1.849973,-1.306223 -3.882543,-2.611339 -3.192567,-3.623926 0.100197,-0.15448 0.07701,0.279741 -0.02222,0.615313 -0.109938,0.371775 -0.394265,0.834222 -2.714008,1.534696 -0.202451,-0.0063 -0.906806,-0.05126 -1.111791,-0.184386 -0.853328,-0.5541 -0.468568,-2.347334 0.160169,-2.616218 m 50.475101,2.816389 c 0.08098,0.616206 0.286103,1.132266 0.440298,1.751619 0.169332,0.681163 0.216091,1.390764 0.242341,2.084495 0.01945,0.510838 -0.200604,1.106829 -0.736344,1.355575 -1.082039,0.502234 -1.232687,-0.419437 -2.278712,-0.392842 m 23.827556,-3.492575 0.420144,-1.231592 c 1.509156,0.03915 3.017265,0.10371 4.525474,0.16886"
       id="path89263"
       sodipodi:nodetypes="csccccccccsscsscssccccccccccccccccccccccccccccccccccccccccccccccccccsccccccsccccccscccccccccccscccccccccccccccccccsccscccscscccccccccccccccccscccccccccccccccccccccccccccccccccccccccscccscccccccccccccccccccscccccccccccsccsccccccccccccsccscccccccccccsccccccscccc" /></g></svg>
