<?xml version="1.0" encoding="UTF-8" standalone="no"?>
<!-- Created with Inkscape (http://www.inkscape.org/) -->

<svg
   width="210mm"
   height="297mm"
   viewBox="0 0 210 297"
   version="1.1"
   id="svg67425"
   inkscape:version="1.2 (dc2aedaf03, 2022-05-15)"
   sodipodi:docname="Casey - Pulsz - Envelope 83.svg"
   xml:space="preserve"
   xmlns:inkscape="http://www.inkscape.org/namespaces/inkscape"
   xmlns:sodipodi="http://sodipodi.sourceforge.net/DTD/sodipodi-0.dtd"
   xmlns="http://www.w3.org/2000/svg"
   xmlns:svg="http://www.w3.org/2000/svg"><sodipodi:namedview
     id="namedview67427"
     pagecolor="#ffffff"
     bordercolor="#666666"
     borderopacity="1.0"
     inkscape:pageshadow="2"
     inkscape:pageopacity="0.0"
     inkscape:pagecheckerboard="0"
     inkscape:document-units="mm"
     showgrid="false"
     inkscape:zoom="2.534831"
     inkscape:cx="216.58249"
     inkscape:cy="112.63078"
     inkscape:window-width="1920"
     inkscape:window-height="991"
     inkscape:window-x="-9"
     inkscape:window-y="-9"
     inkscape:window-maximized="1"
     inkscape:current-layer="layer1"
     inkscape:showpageshadow="2"
     inkscape:deskcolor="#d1d1d1" /><defs
     id="defs67422"><pattern
       id="EMFhbasepattern"
       patternUnits="userSpaceOnUse"
       width="6"
       height="6"
       x="0"
       y="0" /></defs><g
     inkscape:label="Layer 1"
     inkscape:groupmode="layer"
     id="layer1"><path
       style="fill:none;stroke:#2e2b2d;stroke-width:0.052056"
       d="m 18.928387,2.2383727 c -0.07334,0.963359 0.24115,1.9435894 0.246921,2.8567923 L 18.758858,5.036868 17.925959,4.8348898 m 5.049448,-2.3425279 c -0.06023,0.3452359 0.02723,0.4353973 0.145393,0.7287859 0.147111,0.3652263 0.209787,0.6314414 0.288443,0.9890672 0.0291,0.1323791 0.05674,0.240292 0.04065,0.3613217 -1.189719,0.7608214 -0.175241,0.8091059 0.514786,1.197595 0.484539,0.234461 0.946955,0.5875068 1.24914,0.7315454 m 9.942726,1.6137496 C 34.266903,8.3261391 33.108865,7.4238502 32.721774,6.3965737 32.4452,5.6624768 32.408448,4.8404061 32.733344,4.1061018 32.87327,3.789809 33.034854,3.4743479 33.187897,3.1690907 33.42992,2.7544407 33.986252,2.4683904 34.167494,2.9088076 M 23.449895,4.5715364 C 23.807163,4.3691812 24.285174,4.1940242 24.589158,4.0321258 24.892281,3.8702305 25.0459,3.7354578 25.422056,3.637592 m 12.805817,3.9042171 c 0.0042,-0.4957314 0.08513,-1.2990175 0.462337,-1.6295218 M 13.136792,8.3747044 c 0.0095,-0.2202499 0.08767,-0.6813108 0.102964,-0.8849541 0.01806,-0.2393027 0.0063,-0.6643928 0.06949,-0.9370112 0.07792,-0.3361269 0.151171,-0.2328473 0.205779,-0.5726182 0.02884,-0.1792812 0.0345,-0.3502854 0.03898,-0.5205613 0.0066,-0.2532532 0.0494,-1.186205 0.519834,-1.0607493 0.672513,0.1793341 0.806974,1.181519 0.6861,1.7374789 -0.06496,0.2987504 -0.253931,0.6127017 -0.582843,0.848986 -0.328913,0.2362834 -0.536772,0.1771999 -0.832088,0.140084 m 2.394587,-0.312343 c 0.3418,0.4122338 0.981518,0.5040609 1.509368,0.2618433 0.21546,-0.098851 0.340864,-0.2709012 0.29443,-0.5221239 C 17.203899,5.0692141 14.892605,4.7863519 16.780724,4.3143209 M 5.172193,4.6787186 C 4.939814,5.0529503 4.9384609,5.5901181 5.133095,6.0842358 c 0.058455,0.14836 0.1205105,0.2441435 0.249609,0.3415925 0.1125974,0.084956 0.2292563,0.1195728 0.3611141,0.041179 0.2153041,-0.128006 0.2912021,-0.398751 0.2550233,-0.6430499 -0.2068416,-0.562119 0.2524767,-0.6226564 0,0 M 25.924953,5.9939392 c 0.180687,0.044508 0.168879,0.055084 0.538218,0.050265 0.359189,-0.00455 0.588025,-0.3179604 0.38433,-0.6216034 C 26.69404,5.1939187 26.532561,5.160869 26.307002,5.076636 26.144586,5.0160415 25.896226,4.9238991 25.742036,5.0006309 25.165749,5.7196966 26.403902,6.8446067 26.879619,7.1774153 M 6.994164,5.0430919 C 7.2204525,5.0887426 7.8161317,5.419561 7.8010353,5.7718883 7.7522073,6.1838187 7.3895307,6.7711166 6.7338834,6.636342 6.3206099,6.5513861 6.2426091,6.2732147 5.9818073,6.0631677 M 19.175308,5.095165 c 0.06742,0.226757 0.03993,0.3449768 0.06096,0.5726182 0.04175,0.452576 0.147002,0.8154481 0.147271,1.1972802 M 19.175308,5.095165 c 0.238313,0.00562 0.75622,0.137585 1.041123,0.2602815 M 9.0243538,5.4075053 C 9.3739923,5.4796986 9.4889054,5.3452453 9.7365868,5.1350877 10.018471,4.8310282 9.6782806,4.5095271 9.3887487,4.5331628 9.0731321,4.5589825 8.9422101,4.6690809 8.7814606,4.8891749 8.6801597,5.0279571 8.5973841,5.1385247 8.5677178,5.3033859 8.4731311,5.8294654 8.7747973,6.1394602 9.1805233,6.4486224 M 23.449895,4.5715337 23.652137,6.9691846 m -11.884997,0.0097 C 11.484943,6.8385413 11.081196,6.5726746 10.968338,6.2927164 10.811894,5.8599412 10.912986,5.3427392 11.229326,5.2070535 11.589474,5.0619564 11.647673,5.034316 11.732316,5.0440977 12.157147,5.0930327 11.910089,5.5702816 11.418939,5.789282 11.270285,5.855585 11.192642,5.889918 11.104985,5.9104408 M 1.9967721,6.0321761 C 2.0451985,6.5173449 2.559227,6.5019655 2.9337834,6.3776705 3.3006754,6.2546608 4.347369,5.8905803 4.3576757,5.4074473 4.3654641,5.0384759 3.8170727,4.7277537 3.5584571,4.522704 2.8474746,3.958988 1.958511,3.4339496 1.4706403,2.648526 1.3703247,2.4870574 1.3358155,2.3077087 1.3532545,2.1280006 1.3922491,1.7267417 1.8329516,1.5137748 2.1529403,1.3901043 2.7556071,1.1877767 3.0856176,1.7801221 3.5063961,1.97179 M 22.506902,7.073303 22.235505,6.3797322 C 21.9795,5.6093565 22.082982,6.1933549 21.830449,6.2186293 21.68693,6.3218526 21.202633,6.3488343 20.945268,6.2064022 20.244665,5.8266076 20.700358,5.2497474 21.144592,5.5476374 21.499623,5.63453 21.496371,5.706253 21.706938,5.8728001 m 14.1784,0.9792106 c 0.279593,-0.091416 0.617749,-0.0557 0.86986,0.2371162 0.323213,0.3754284 0.168661,0.8931266 -0.3493,1.0498162 -0.325247,0.098436 -0.933524,0.019679 -1.088285,-0.3378441 -0.06205,-0.1434147 -0.03415,-0.2793343 0.01717,-0.4154092 0.129882,-0.3439862 0.152476,-0.403591 0.550548,-0.5336791 m 4.060381,0.013066 c 0.023,0.389876 -0.334482,1.3257519 -0.01208,0.7826643 0.08032,-0.091416 0.170953,-0.1531482 0.207549,-0.1889637 0.111973,-0.1095261 0.191568,-0.274805 0.327954,-0.4895875 0.248618,-0.3914638 1.040081,-1.2104104 1.088235,-0.2602815 0.01821,0.3596038 -0.004,0.6254026 -0.04997,0.9890672 M 38.494306,4.4225338 38.390194,4.0821188 m -10.469462,4.188476 c 0.54285,0.00187 1.541092,-0.134489 1.446755,-0.6767323 C 29.323238,7.3954759 29.163168,7.2414941 29.011841,7.1032844 28.591018,6.7189025 28.045209,6.255862 27.757182,5.7718955 27.648905,5.5900119 27.644429,5.341704 27.66613,5.147222 27.726293,4.693268 28.389483,4.5851816 28.75364,4.9389968 M 43.173189,8.6870411 C 43.782356,8.6840959 44.366722,8.2415015 44.480446,7.7796847 44.548533,7.4008656 44.291163,7.2443813 44.042547,7.102922 43.237944,6.6056815 41.541308,5.3145 43.589646,5.6677707 m -25.76781,24.8308073 0.26028,0.312335 c 0.06762,-0.07798 0.143311,-0.155127 0.219678,-0.312597 0.06559,-0.13519 0.130504,-0.325299 0.303174,-0.38251 0.193285,-0.06413 0.40609,0.07595 0.570329,0.163197 0.357729,0.190004 0.675219,0.467099 0.839144,0.844247 0.06455,0.148463 0.114679,0.317023 0.156376,0.468506 0.215722,0.78308 -0.218739,1.692085 -0.891409,2.153929 -0.126497,0.08682 -0.224571,0.13524 -0.364393,0.17267 -0.353045,0.09463 -0.626555,-0.144508 -0.780849,-0.192294 -0.07924,0.211557 -0.09837,1.47278 -0.09863,1.875436 m 0.04658,-4.790581 c -0.05575,0.313067 -0.06023,0.502654 -0.04669,0.780843 0.01018,0.209161 0.04045,0.461685 0.06877,0.676729 0.08516,0.646383 0.02998,0.987192 0.02998,1.457573 m 4.997335,1.665799 c -0.198876,-0.324258 -0.214263,-0.673659 -0.208015,-1.197292 0.0074,-0.621655 -1.96e-4,-1.104685 -1.96e-4,-1.76991 0,-0.174128 0.0051,-0.303645 -8.92e-4,-0.468507 -0.116684,-0.633175 -0.148895,-0.794063 -0.103171,-1.509629 M 6.3694745,32.73699 c 0.2369072,0.07148 0.2744926,0.144299 0.4638195,0.305155 0.2655392,0.225558 0.4942739,0.923058 0.09693,1.15018 -0.1896929,0.108431 -0.3756382,-0.01291 -0.5459132,-0.16226 -0.1644971,-0.1443 -0.2676205,-0.225611 -0.3792287,-0.304008 -0.06085,0.0836 -0.1188446,0.167102 -0.1658519,0.312598 -0.072204,0.223374 -0.209005,0.551328 -0.510827,0.494688 -0.2167614,-0.04071 -0.3444549,-0.23753 -0.4685055,-0.39089 -0.3117641,-0.385369 -0.6139506,-0.812542 -0.7475259,-1.301351 -0.057936,-0.212129 -0.1291517,-0.6304 -0.050075,-0.82051 0.062879,-0.151169 0.1659038,-0.110409 0.2249352,-0.116501 m 3.8001011,0.989068 c -0.6647721,-0.521346 -0.00232,0.945162 0.063563,1.040342 0.3537214,0.498384 0.6896403,0.414731 0.9255063,0.05284 0.2320664,0.127071 0.6705884,0.477719 1.1452356,0.347788 0.201041,-0.05508 0.34706,-0.157209 0.438521,-0.348569 0.213586,-0.447059 -0.292295,-0.895988 -0.646746,-1.092398 m 15.668901,0.260282 c 0.05575,-0.04545 0.129933,-0.108068 0.261218,-0.122436 3.153681,0.192994 -0.395755,1.964089 0.215846,2.515564 0.255283,0.156638 0.509525,0.02629 0.824361,0.0013 M 6.0050878,33.049326 c -0.074746,0.164602 -0.052059,0.273764 0,0.676731 m 7.7563682,-0.676731 c 0.438782,0.161845 0.923164,0.287505 1.080738,0.937011 0.21973,0.905726 -0.533471,1.164862 -1.236906,0.763248 -0.168871,-0.09641 -0.250706,-0.4761 -0.431757,-0.610765 -0.18105,-0.134663 -0.303587,0.03992 -0.505252,0.110195 -0.230504,0.08021 -0.483394,0.307651 -0.778812,0.167933 -0.124883,-0.05908 -0.219005,-0.153981 -0.293858,-0.276521 -0.08048,-0.131808 -0.10905,-0.260178 -0.119885,-0.414368 -0.02722,-0.388494 0.04821,-0.424104 0.151432,-0.780843 m 12.129085,2.602807 c 0.0696,0.05882 0.113793,0.129516 0.261581,0.177355 0.325819,0.105466 0.960749,-0.174805 0.920769,-0.593803 -0.06719,-0.704894 -1.729774,-0.713326 -1.455801,-1.457366 0.146589,-0.398022 0.688077,-0.520145 1.054293,-0.520771 0.192242,-2.75e-4 0.307131,0 0.416449,0 M 8.9722887,33.205497 9.0764012,33.98634 M 31.720846,33.569892 c -0.289878,0.19221 -0.386238,0.553356 -0.539658,0.785474 -0.121136,0.175794 -0.165383,0.486932 -0.123375,0.724152 0.140605,0.793807 0.989902,1.271055 1.547995,1.353462 M 13.173531,33.930596 v 0.208224 m 7.35524,-0.360705 c -0.51454,1.153034 0.293325,1.436083 1.070847,0.520563 0.123374,-0.145447 0.199639,-0.235243 0.282614,-0.41645 m 14.731899,0.989066 c -0.500582,1.687397 0.528243,-0.213089 0.79193,-0.618793 0.281195,-0.254131 0.407799,-0.08199 0.455338,0.254401 0.0032,0.06377 8.24e-4,0.716032 0.0029,0.780843 0.0037,0.117594 -0.0027,0.39448 0.213121,0.368714 0.478343,-0.05721 0.916758,-0.958407 1.266524,-1.356845 0.393976,-0.389236 0.574748,-0.242242 0.493808,0.207288 -0.01915,0.207391 -0.04596,0.483654 -0.04836,0.67673 -0.0017,0.134147 -0.01285,0.224727 -0.02957,0.364393 -0.0442,0.370274 0.104478,0.859812 0.238004,0.989067 m -18.115635,-2.654864 0.364392,0.780842 m 11.192165,-0.624675 c 0.440758,0.05966 0.949298,0.281312 1.35122,0.570069 0.297188,0.213533 0.523426,0.716032 0.320145,1.04362 -0.171369,0.276106 -0.449766,0.40708 -0.78641,0.41369 -0.168247,0.0033 -0.300623,-0.01531 -0.468504,-0.06512 -0.391152,-0.115982 -0.705939,-0.471162 -0.725196,-0.869077 -0.0088,-0.182874 0.0078,-0.364499 0.107807,-0.504583 0.18584,-0.26028 0.576941,0.01828 0.721498,0.140188 M 16.156052,34.142506 c -0.07288,0.306195 -0.116263,0.287579 0.04297,0.605485 m 12.554623,0.643747 0.156169,0.156168 m 62.259178,5.30973 c 0.289952,0.245135 0.330033,0.521398 0.495054,0.832902 0.115559,0.21822 0.188958,0.399322 0.268086,0.624675 0.08746,0.251169 0.141593,0.483498 0.22853,0.728785 0.150964,0.424725 0.296199,0.985733 0.431027,1.405514 0.05623,0.174651 0.0739,0.290062 0.12701,0.468507 0.08586,0.289328 0.175954,0.548306 0.237375,0.832899 0.04846,0.223946 0.07443,0.387975 0.124412,0.624675 0.111401,0.531232 0.1442,1.05981 0.275386,1.561686 0.04159,0.158767 0.07649,0.26486 0.09474,0.416446 0.03543,0.294638 0.05881,0.659448 0.112953,0.93701 0.145244,0.744404 0.161898,1.959397 0.676738,2.238421 0.231127,-0.395107 0.452366,-1.259761 0.655389,-1.821969 0.253511,-0.702864 0.388339,-1.457832 0.520035,-2.186358 0.04427,-0.247791 0.08693,-0.466371 0.130142,-0.728788 0.04793,-0.289275 0.08122,-0.607285 0.101512,-0.884951 0.05052,-0.693029 0.387295,-1.575535 0.466941,-2.186361 m 6.038528,-1.041102 0.052,0.572619 0.004,0.416446 0.0983,1.093178 0.0577,1.926081 0.0469,0.520562 -0.0494,0.57262 -0.0541,1.405515 -0.089,1.249348 -0.0526,0.520559 -0.089,0.832899 -0.39407,3.12337 m 2.34252,-10.98385 c 0.0349,0.289379 0.14784,0.701561 0.15669,1.041126 0.0224,0.83888 0.10515,1.771001 0.10365,2.602804 -5.5e-4,0.186465 -0.007,0.292817 -0.0303,0.468506 -0.0224,0.173764 -0.0198,0.301772 -0.022,0.468504 -0.003,0.183812 -0.0344,0.330455 -0.0473,0.520566 -0.0286,0.41572 -0.0515,0.76106 -0.0567,1.145235 -0.002,0.114001 -0.006,0.201976 -0.0224,0.312337 -0.0421,0.2962 -0.10619,0.558039 -0.1291,0.884955 -0.0125,0.174387 -0.003,0.29724 -0.0395,0.468507 -0.0583,0.274856 -0.12858,0.526806 -0.16502,0.832895 -0.0312,0.257678 -0.062,0.571059 -0.10208,0.780844 -0.0999,0.518999 -0.21864,1.086414 -0.0624,1.61374 m 15.77302,-0.104111 c 0.21604,0.706923 1.8683,0.43415 2.4987,0.124937 0.6408,-0.314941 1.28995,-0.712129 1.4331,-1.478399 0.14159,-0.755856 -0.39615,-1.602806 -0.81051,-2.186357 -0.54139,-0.762102 -1.23061,-1.505465 -1.76315,-2.290473 -0.24934,-0.36741 -0.52472,-0.711192 -0.75377,-1.09318 -0.0827,-0.137792 -0.12701,-0.265069 -0.17491,-0.416448 -0.0978,-0.30755 -0.1874,-0.431284 -0.18428,-0.78084 0.004,-0.48428 0.22541,-1.045135 0.55544,-1.457577 0.40136,-0.501871 1.02863,-1.020404 1.75013,-0.728314 0.75222,0.30458 0.61582,0.983652 0.72879,1.457101 m 17.43881,-0.989064 c -0.27277,0.642633 -0.11452,1.85502 -0.0432,2.602807 0.0177,0.186309 0.0328,0.31702 0.0577,0.520562 0.0448,0.36403 0.005,0.56632 0.0593,0.989067 0.025,0.190161 0.0155,0.289223 0.005,0.468505 -0.0145,0.245184 -0.003,0.770953 -0.022,1.041125 -0.0203,0.298283 -0.0182,0.527326 -0.0478,0.832897 -0.14003,1.443517 -0.46955,2.927641 -0.52941,4.320662 m 6.39439,-9.194267 c 0.0879,0.01042 0.19938,0.03571 0.3644,0.02531 0.14784,-0.0093 0.31806,-0.02801 0.4685,-0.02451 0.41541,0.0096 0.83914,0.151065 1.24935,0.20744 0.31546,0.04331 0.57887,0.08387 0.88495,0.108595 0.27591,0.02223 0.52681,0.08235 0.78086,0.100938 0.14314,0.01052 0.22331,0.03207 0.36438,0.06403 0.7647,0.173242 1.98959,0.187247 2.65486,0.351119 m 18.8008,0.24061 c 0.005,0.249138 0.0515,0.335708 0.0255,0.54981 -0.026,0.214103 -0.0215,0.349344 -0.0265,0.54336 -0.0224,0.90994 -0.10411,2.044245 -0.23009,2.967202 -0.0541,0.398748 -0.16501,1.343048 -0.25351,1.665795 -0.0494,0.178555 -0.0646,0.290996 -0.0884,0.416451 l -0.36438,-0.05623 -1.04113,-0.204061 m -20.97821,-5.726162 c 0.10208,0.280423 0.35243,0.736801 0.40708,1.145232 0.0286,0.214733 0.052,0.449612 0.0833,0.676732 0.0427,0.309736 -0.003,0.502343 -0.0307,0.780843 -0.037,0.371159 -0.0973,0.779801 -0.16762,1.145237 -0.14993,0.781878 -0.44977,1.516914 -0.72513,2.238414 -0.0786,0.204581 -0.34982,0.687318 -0.47684,0.866389 m 8.24948,-6.228189 c 0.0973,0.329305 0.0849,0.612701 0.10619,0.989067 0.0364,0.658512 0.05,1.375325 0.05,2.03019 v 0.832897 c 0,0.15617 0.005,0.269655 -0.005,0.416451 -0.0151,0.218637 -0.0474,0.55596 -0.0474,0.780843 v 0.468507 c 0.16762,0.01302 0.6101,0.07913 1.19729,0.104111 m -24.90661,-3.676315 c -0.10353,-0.343046 0.11014,-0.754183 0.33662,-0.592292 m -33.576252,5.882348 c -0.458096,0.0583 -1.179066,0.228526 -1.874019,0.01199 -0.309211,-0.09683 -0.567934,-0.296201 -0.773555,-0.532536 -0.113479,-0.131182 -0.165538,-0.248832 -0.23061,-0.416449 -0.06712,-0.172829 -0.08746,-0.288912 -0.08898,-0.468507 -0.0018,-0.280584 0.103074,-0.563249 0.195214,-0.832896 0.239972,-0.703803 0.745959,-1.311297 1.262361,-1.821969 0.729074,-0.770994 1.661786,0.147025 1.04115,0.780325 -0.126501,0.124935 -0.22488,0.214469 -0.364394,0.316498 -0.289434,0.21187 -0.620511,0.409686 -0.989073,0.464864 m -3.019178,-1.769951 c -0.01874,0.413845 -0.281705,0.830334 -0.475866,1.301444 -0.269129,0.652785 -0.51484,1.326389 -0.788138,1.978136 -0.259758,0.618428 -0.314414,1.194689 0.06667,1.09318 m 80.58294,-3.904213 -0.1041,0.208224 M 105.64,52.570332 c -0.69862,-0.145509 -0.74194,-0.03839 -1.08537,0.832902 -0.15044,0.364392 -0.32847,0.852682 -0.2405,1.24935 0.0849,0.384175 0.32952,0.758455 0.7012,0.869335 0.23321,0.06923 0.35867,0.06455 0.83291,-0.140559 0.39095,-0.348776 0.56119,-0.566891 0.60751,-0.832898 0.036,-0.205622 0.004,-0.321186 -0.0266,-0.572619 -0.0661,-0.548671 -0.25767,-0.905776 -0.633,-1.249347 m 6.66324,1.145238 c 0.25195,0.183237 0.55075,0.343048 0.69912,0.624675 0.089,0.1697 0.0983,0.320144 0.0718,0.52056 -0.0427,0.322224 -0.26236,0.553355 -0.51067,0.745442 -0.29672,0.229049 -0.71837,0.42634 -1.09318,0.421136 -0.26445,-0.0037 -0.60281,-0.191046 -0.78084,-0.325351 -0.10813,-0.07267 -0.11982,-0.185998 -0.31203,-0.216571 -0.12077,0.03541 -0.27465,0.271232 -0.35429,0.359723 -0.25768,0.284228 -0.51692,0.371681 -0.8428,0.159293 -0.20405,-0.133262 -0.31805,-0.312856 -0.44662,-0.519 -0.12807,-0.204581 -0.25666,-0.401873 -0.33681,-0.624672 -0.1494,-0.414366 -0.2228,-0.963561 -0.20407,-1.405518 0.0824,-0.592971 -0.006,-0.880818 0.57054,-0.52056 m 16.03329,-0.22124 c 0.40969,-0.151483 0.47164,0.21187 0.6731,0.45497 0.11139,0.133786 0.1952,0.10099 0.34617,0.20302 0.14056,0.09526 0.24986,0.212911 0.38573,0.340447 0.2556,0.23998 0.49765,0.568453 0.2962,0.938571 -0.11451,0.21031 -0.32899,0.309215 -0.55596,0.400315 -0.64757,0.260279 -1.7418,-0.115565 -1.90525,-0.866737 -0.10568,-0.484643 0.2738,-1.290991 0.76001,-1.470586 m 5.62208,3.240497 c -0.19158,0.02448 -0.32432,0.04945 -0.52056,0.05206 -0.24259,0.0027 -0.49298,5.51e-4 -0.7288,-0.05882 -0.20353,-0.05153 -0.33107,-0.111921 -0.52056,-0.232173 -0.49506,-0.315979 -0.77876,-0.810513 -0.64914,-1.374798 0.0641,-0.279025 0.2431,-0.59032 0.41801,-0.824053 0.10672,-0.142633 0.16658,-0.220716 0.29673,-0.351899 0.29828,-0.300884 0.47423,-0.465904 0.7673,-0.281625 m 42.67002,1.336257 c -0.26861,-0.140035 -0.52681,-0.241544 -0.88494,-0.374286 -0.14212,-0.05258 -0.32484,-0.137429 -0.45186,-0.07704 -0.0937,0.04425 -0.10365,0.131701 -0.11765,0.192087 -0.05,0.209786 -0.10042,0.83238 -0.17647,1.092138 -0.21706,0.73972 -0.35137,1.609577 -0.45132,2.290473 m -15.86063,-3.470578 c 0.23634,0.01873 0.27746,0.04528 0.52056,0.05154 0.49766,0.01199 0.92503,-0.06457 1.1447,5.02e-4 l -0.0515,0.31339 -0.074,0.727746 -0.34252,1.405519 m 2.1343,-0.937014 c 0.0161,-0.35086 0.46695,-1.078084 1.09318,-1.310776 0.24727,-0.09214 0.78188,-0.233211 0.93233,0.03175 0.11243,0.197292 -0.31651,0.553356 -0.46383,0.654867 -0.54607,0.375846 -1.02706,0.464338 -1.56168,0.624155 0.18115,0.458093 0.87247,0.624671 1.40551,0.624671 m -7.99752,-1.574946 c -0.0654,1.134204 -0.74485,2.105532 0.26102,0.999747 0.30401,-0.342529 0.56794,-0.855805 0.87402,-1.192605 0.13118,-0.144716 0.26496,-0.273818 0.41593,-0.382612 0.10828,-0.07808 0.23687,-0.160334 0.36492,-0.01822 0.0968,0.107238 0.12806,0.258197 0.14159,0.39875 0.0338,0.359711 0.0307,0.384697 -0.0104,0.728787 -0.0656,0.555961 -0.005,0.91775 0.0152,1.405515 m 7.06426,-0.575296 c -0.16562,0.900245 0.0652,0.359106 0.54978,-0.05408 0.13691,-0.178034 0.23113,-0.364917 0.33993,-0.567935 0.15668,-0.292556 0.30349,-0.635607 0.60385,-0.843828 0.19885,-0.138471 0.38886,0.01145 0.50077,0.06298 m -26.7048,0.728786 c -0.0417,0.11088 -0.10042,0.34253 -0.19418,0.437792 -0.11244,0.114525 -0.28318,0.130661 -0.4305,0.209788 -0.33263,0.179072 -0.7241,0.365954 -1.09318,0.479439 -0.41541,0.128058 -1.17074,0.06507 -1.24153,-0.398232 -0.0979,-0.642374 0.76209,-1.328994 1.34565,-1.499741 0.37376,-0.109835 0.62832,0.04946 0.88494,0.354504 m 42.47784,-0.156169 c 0.58283,-0.100217 0.0597,0.668496 -0.1218,0.937007 -0.39147,0.575223 -1.18689,1.393546 -1.75221,1.806868 -0.20927,0.153046 -0.6528,0.507032 -0.91671,0.295683 -0.26602,-0.213431 -0.20199,-0.900572 -0.22385,-1.217596 -0.0224,-0.326909 -0.003,-0.633524 0.0994,-0.937011 M 131.67166,53.34572 c -0.735,0.403955 -0.36064,2.377623 -0.21145,2.764403 m -20.97865,-1.197294 0.052,0.728787 m 35.19018,-0.364395 0.62467,0.05206 1.09319,-0.05466 0.78083,-0.05154 1.6658,-0.102029 m 16.13741,1.457572 c -0.26704,0.285269 -0.35658,0.26705 -0.67673,0.469025 -0.4003,0.252994 -1.79021,1.049977 -2.08016,0.25872 -0.061,-0.165537 -0.0303,-0.311294 0.0437,-0.467463 0.0932,-0.197293 0.16241,-0.311297 0.28735,-0.520563 0.2353,-0.393546 0.92869,-1.584586 1.33264,-0.937011 m 14.83601,3.071314 c -0.50442,-0.0042 -1.11661,-0.200937 -1.47735,-0.583549 -0.40083,-0.425297 -0.59865,-1.049973 -0.32224,-1.60281 0.2803,-0.518975 1.29367,-1.358999 1.7395,-1.121291 0.33524,0.196772 0.1291,0.669444 0.002,0.913066 -0.23998,0.458094 -0.52681,0.630399 -0.7746,0.780843 m -43.60913,-1.071831 c 0.003,0.432587 0.11935,1.025502 0.40253,1.48828 m 33.05566,1.041124 c -0.27487,0.04061 -0.87143,0.261843 -1.30089,-5.49e-4 -0.35866,-0.219157 -0.44299,-0.531496 -0.40812,-0.884436 0.0229,-0.230087 0.0588,-0.379491 0.14993,-0.572617 0.076,-0.159292 0.15096,-0.268607 0.24674,-0.416451 0.14472,-0.223319 0.29672,-0.373242 0.47944,-0.468504 m -1.92609,0.624703 c 0,0.191044 -0.12901,0.904188 10e-6,1.301372 m 7.08606,-2.6688 c -0.38097,0.07288 0.32097,1.965656 -0.25442,2.310272 m -71.79773,7.490225 c 0.44323,-1.358779 0.0371,-2.283353 0.31899,-3.487761 0.0812,-0.372723 -0.012,-0.826132 0.14316,-1.197295 0.11399,-0.273292 0.29671,-0.589271 0.47579,-0.832896 0.11088,-0.151484 0.22385,-0.283706 0.36336,-0.411247 0.10984,-0.09942 0.21499,-0.184797 0.36439,-0.231647 0.38574,-0.12077 0.75897,0.04061 1.03591,0.332638 0.18689,0.197291 0.29048,0.406038 0.38523,0.674649 0.22072,0.626755 0.0338,1.172826 -0.37586,1.665798 -0.19416,0.23321 -0.35866,0.432588 -0.62883,0.572615 M 92.418318,64.95964 c 0.119727,-0.400834 0.147314,-0.808954 0.193134,-1.197294 0.01196,-0.0989 0.01669,-0.360749 0.06765,-0.448721 0.159291,-0.27642 0.268094,-0.296203 0.302973,-0.644458 0.03748,-0.371682 0.106714,-1.013015 0.113997,-1.405519 -0.07658,-1.777769 0.383225,-3.348322 1.328477,-0.989063 0.193125,0.494529 0.02865,1.169177 -0.07934,1.513842 -0.107973,0.344665 -0.38543,0.66325 -0.677987,0.776728 m -0.988136,0.74847 -0.158872,-0.384195 -0.07024,-0.416449 -0.03383,-0.41645 -0.191572,-1.301404 m 28.564208,-0.05206 0.52056,0.17699 0.52056,0.223842 1.87402,0.53618 m -22.53343,-0.364375 0.20823,0.208227 m 19.52186,-0.514893 c -0.14618,0.370139 -0.60203,0.966731 -0.78853,1.347769 -0.074,0.150442 -0.20979,0.348775 -0.18012,0.519522 0.0474,0.274858 0.36232,0.338364 0.59657,0.406558 0.54867,0.160334 1.37011,0.29464 1.65695,0.843829 0.061,0.116087 0.0792,0.22853 0.075,0.364396 -0.003,0.134824 -0.0235,0.234252 -0.0895,0.364391 -0.075,0.1468 -0.16501,0.242062 -0.28995,0.359708 -0.10312,0.09683 -0.18897,0.160334 -0.31129,0.234775 -0.14055,0.08538 -0.26914,0.166058 -0.41645,0.243102 -0.37117,0.19417 -0.85789,0.356064 -1.24935,0.355545 -0.20614,-5.5e-4 -0.3899,-0.06871 -0.57262,-0.204063 m -1.09318,-4.685051 c -0.0171,0.140551 -0.0968,0.363872 -0.0968,0.520562 0,0.263403 0.0453,0.453409 -0.0224,0.780843 -0.1749,0.851119 -0.43935,1.599686 -0.69859,2.394583 -0.15461,0.474233 -0.33941,0.887038 -0.53565,1.301403 m -10.35918,-3.227481 c 0.49505,0.314418 1.08224,0.78709 1.17074,1.405518 0.0667,0.464338 -0.18427,0.971367 -0.49869,1.300359 -0.38418,0.401877 -0.99636,0.48985 -1.44404,0.125457 -1.07184,-0.87298 -0.49246,-2.562723 0.10052,-3.508065 0.19001,-0.302967 0.58146,-0.84175 0.87974,-0.978655 0.47684,-0.219159 0.52526,0.627276 0.53618,0.926599 0.006,0.168661 -0.0192,0.247789 0.0364,0.364392 m 17.6991,-1.145235 -0.37949,1.874021 -0.17855,0.468508 -0.79541,1.769907 m -26.553753,-3.8637 c 0.307712,0.121477 0.701557,0.226546 1.097786,0.543695 0.591871,0.474234 0.798018,1.397707 0.548666,2.070794 -0.07336,0.196772 -0.149403,0.386261 -0.261321,0.572619 -0.262882,0.438314 -0.72254,0.817803 -1.044603,0.9281 -0.322072,0.110296 -0.467306,0.186819 -0.699996,0.133724 -0.155649,-0.03487 -0.284748,-0.06455 -0.407599,-0.155648 -0.310773,-0.230607 -0.511716,-0.741277 -0.590844,-1.11452 -0.198847,-0.937533 0.340448,-2.017177 0.834984,-2.758977 0.416747,-0.62196 1.411407,-1.01012 1.725143,-0.364393 m 10.410917,0.156289 0.1494,0.468507 0.48516,1.093179 0.22645,0.468504 -0.33107,0.572616 -0.4378,0.624675 -0.56065,0.780841 m -5.10108,-3.591978 c 0.34565,0.330036 1.15886,0.652887 1.19478,1.353563 0.0391,0.768351 -0.58667,1.345654 -1.19521,1.676731 -0.17386,0.09422 -0.32326,0.167621 -0.52056,0.226446 -0.29203,0.08693 -0.51014,0.07496 -0.8329,0.07496 m 7.78449,-1.717854 c 0.38001,-0.254554 0.76106,-1.359188 1.48151,-1.561683 m -1.48151,1.561683 c 0.18584,0.282147 0.56217,1.379487 0.75269,1.874023 m -18.740211,2.654865 0.03802,0.364392 0.0755,0.624675 0.146797,0.364389 c 0.07497,-0.07808 0.156694,-0.1697 0.282668,-0.312337 0.102029,-0.115562 0.26913,-0.297237 0.446119,-0.292552 0.453937,0.01198 0.776678,0.65018 0.942217,1.02134 0.200935,0.451329 0.232172,0.948463 0.155132,1.405518 -0.04739,0.280585 -0.124421,0.553878 -0.190528,0.832896 -0.08693,0.366478 -0.289951,0.758461 -0.38626,1.145238 m 13.586696,-4.84122 c 0.34566,0.429463 0.77304,1.503379 0.82821,2.238413 0.0135,0.180115 0.0109,0.287351 -0.0156,0.468508 -0.0323,0.221759 -0.0104,0.41697 -0.0406,0.624672 -0.0235,0.159811 -0.0615,0.210309 -0.0864,0.364393 -0.0177,0.110359 -0.0312,0.324313 0.0219,0.448727 0.062,0.146798 0.21812,0.257156 0.31078,0.385213 0.33734,0.510545 0.73871,0.447064 1.16952,0.803747 m 14.1579,-4.448721 c 0.16085,0.157213 0.1593,0.371162 0.18636,0.572619 0.0182,0.140035 0.0224,0.255076 0.0437,0.416451 0.0235,0.173869 0.0297,0.286308 0.0303,0.468507 5.6e-4,0.413846 5.6e-4,0.774073 0,1.145232 -5.4e-4,0.301407 -0.0386,0.5924 -0.0541,0.937011 -0.025,0.541906 -0.20458,1.217075 -0.20613,1.717854 M 91.84518,69.592752 c -0.09213,0.218113 -0.103868,0.454977 -0.104386,0.728791 -8.92e-4,0.443518 -0.04685,0.774075 -0.135863,1.249346 -0.039,0.207705 -0.09735,0.539302 -0.115568,0.728789 -0.02811,0.286827 -0.04578,0.383132 -0.06087,0.728784 m 34.721467,-3.279538 c -0.24415,0.521601 -0.5846,0.792815 -0.88391,1.301406 -0.09,0.152523 -0.27434,0.433626 -0.22332,0.621552 0.0468,0.171259 0.22383,0.222797 0.37844,0.269645 0.70536,0.215513 1.44143,0.173871 1.87402,0.254039 -0.0719,0.382091 -0.18376,0.863611 -0.35398,1.45757 -0.0698,0.244666 -0.1026,0.401875 -0.11452,0.676731 M 116.41545,70.0092 c 0.47475,0.505987 0.71057,0.897971 1.12962,1.508589 0.0869,0.127016 0.2608,0.252475 0.32533,0.378971 0.0833,0.164497 -0.004,0.303487 -0.0474,0.454969 -0.0744,0.260802 -0.20406,0.60281 -0.28371,0.884955 -0.0968,0.346174 -0.18948,0.655385 -0.23894,0.989068 m 10.51535,-4.060381 c -0.0129,0.304528 -0.0906,0.712129 -0.2379,1.249348 -0.036,0.12962 -0.0629,0.282664 -0.0973,0.41645 -0.0427,0.163977 -0.11505,0.269127 -0.18532,0.364393 m -8.69337,-1.978138 -0.19938,0.468508 -0.22697,0.676731 -0.30506,0.534097 m -5.3934,1.470045 c 0.16476,-0.801705 0.0483,-1.012925 -0.0246,-1.587695 -0.0269,-0.194689 -0.0413,-0.386776 -0.0458,-0.572615 -0.32054,-2.410887 0.0981,-1.332854 0.48353,-0.156163 0.21238,0.350855 0.44977,0.948463 0.59449,1.353456 0.0572,0.159292 0.11191,0.321189 0.19365,0.468507 0.0931,0.167102 0.31494,0.485166 0.5294,0.330039 0.2785,-0.201982 0.16243,-0.449765 0.18273,-0.746487 0.0125,-0.184278 0.036,-0.283707 0.0484,-0.468503 0.0188,-0.269653 0.0567,-0.500265 0.008,-0.728788 -0.05,-0.237895 -0.12077,-0.421655 -0.15877,-0.67673 -0.0701,-0.37437 -0.1048,-0.652956 -0.21496,-1.041124 m 14.52353,5.465893 c 0.66371,0.235813 1.24934,0.138989 1.92607,-0.108799 0.32275,-0.118167 0.59033,-0.36075 0.54296,-0.7241 -0.0807,-0.622593 -0.76211,-1.133784 -1.32379,-1.389379 -2.03554,-0.336644 -0.006,-2.07593 0.83289,-2.039554 0.31234,0.04061 0.52525,0.261321 0.78084,0.413846 0.30766,0.183759 0.55076,0.30505 0.88497,0.464342 m 2.13422,3e-6 c 0.16813,-0.115566 0.28839,-0.218112 0.4685,-0.320666 0.24727,-0.14107 0.54087,-0.141592 0.78084,-0.14992 0.11453,-0.0037 0.18897,-0.01459 0.31234,-0.01302 0.29829,0.0042 1.26393,0.01561 1.17751,0.535657 -0.0276,0.168662 -0.1572,0.275376 -0.29255,0.380007 -0.25259,0.194029 -0.45535,0.313107 -0.64837,0.474657 -0.4947,0.351178 0.007,0.385383 0.35951,0.40329 0.41776,0.02092 0.89299,0.03889 1.20349,0.371403 0.36543,0.3925 -0.0781,1.107753 -0.33004,1.433107 -0.13014,0.168139 -0.27382,0.306091 -0.4305,0.447679 -0.57886,0.522127 -0.81312,0.816244 -1.45549,1.070798 m -28.13124,-3.559597 c -0.36508,-1.208269 0.41557,-1.521025 1.06204,-1.64601 m 24.91639,0.204077 c 0.15736,0.311991 0.19414,0.632953 0.15182,0.889094 -0.0302,0.181673 -0.0624,0.337842 -0.0942,0.52056 -0.15407,0.885996 -0.55491,1.892763 -0.81987,2.602809 M 94.291506,72.351734 c 0.164503,-0.424778 0.565328,-0.482043 0.989064,-0.351902 0.160335,0.04945 0.35919,0.137431 0.313896,0.35138 -0.07292,0.343047 -0.538776,0.3139 -0.782399,0.274856 -0.08746,-0.01459 -0.205102,-0.03905 -0.288916,-0.09422 -0.125975,-0.08381 -0.185843,-0.146799 -0.231645,-0.180115 -0.210832,0.735036 0.761577,1.309213 1.301399,1.405516 m 3.435756,-1.405517 c 0.222283,0.158248 0.656424,0.349817 0.916709,0.635606 0.19625,0.215513 0.35919,0.545027 0.32014,0.821966 -0.052,0.370119 -0.424257,0.682979 -0.768347,0.753773 -0.502337,0.103067 -0.770431,-0.558039 -1.140028,-0.504942 -0.334719,0.04841 -0.365956,0.575737 -0.838108,0.44508 -0.512752,-0.142114 -0.855798,-0.921394 -0.871416,-1.422695 0.01276,-0.333174 -0.03623,-0.696966 0.298778,-0.780843 m 7.287861,2.03019 c 0.0135,-0.262363 0.1291,-0.738156 0.28944,-0.980217 0.1062,-0.160856 0.27224,-0.328473 0.40291,-0.454451 0.19886,-0.191046 0.42322,-0.276938 0.71317,-0.283184 m 1.74898,0.08433 c -0.20666,0.283703 0.0511,0.840269 -0.0921,1.328041 m -8.840702,-0.943868 c 0.04525,0.422692 -0.09004,0.538783 -0.09888,0.977615 m 5.044212,-0.196774 -0.17622,-0.499306 c -0.11361,-0.268978 -0.0965,-0.493517 -0.21116,-0.153984 -0.0738,0.1724 -0.144,0.167793 -0.31688,0.378957 -0.23581,0.287349 -0.66372,0.534094 -0.90005,0.112958 -0.0926,-0.165014 -0.0989,-0.38365 -0.0869,-0.567409 0.0166,-0.240501 0.0652,-0.519 0.20042,-0.725141 0.17126,-0.259764 0.31129,-0.123897 0.44976,0.04841 m 7.18373,1.301399 c -0.25768,0.322748 -0.43312,1.913065 -0.36441,2.290472"
       id="path15830"
       sodipodi:nodetypes="ccccccccccccccccccccccccccccccccccccscccccccccccccccccccccccccccccccccccccccccccccccccccccccsccccccccccccccccccccccccccccssccccsccccccsccccccccccccccsscccccccsccccccccccccccccccccccccccccccccccccccccccccccccscccccccccccccccccccccccccsccccccccccccccccccccccccccsccccsccccccccccccccccccsscsccccccccccccccccccccccccccccccscccccccccccccccccccccccsccccccccccccccccccccccccccscccccccccccccccsccccccccccccccccccccccccccccccscccccccccccccccccccccccccccccccccccccccccccccccscccccccscccccccccccccccccccccccccccccccccccccsccccccsccccccccccccccccccccccccccccccccccccccccccccccccccccscccccccccccccccccccccccccccccccsccccccccccccccccccccccccc" /><path
       style="fill:none;stroke:#010101;stroke-width:0.0587739"
       d="m 29.622252,17.020123 c 1.453285,0.921203 0.815379,2.072116 -0.561066,1.716558 -0.924237,-0.588647 -0.59444,-1.35233 0.02667,-1.626938 m -3.796442,0.565562 -0.23117,-0.08084 -0.630711,-0.317597 -0.518464,-0.213646 -0.689403,-0.320682 -0.284724,-0.181702 c -0.249483,-0.387114 -0.257704,-0.576395 0.282077,-0.887654 0.223875,-0.09164 0.742815,-0.431207 0.971477,-0.566914 0.188507,-0.111862 0.305315,-0.113726 0.446848,-0.290386 0.188583,-0.235393 0.390564,-0.396456 0.562169,-0.617854 0.155623,-0.200637 0.174487,-0.312058 0.194101,-0.519492 0.01,-0.106249 0.01159,-0.134686 -0.0073,-0.235801 -0.04932,-0.265386 -0.01435,-0.209542 -0.203374,-0.422674 -0.254309,-0.28669 -0.657113,-0.464717 -1.093566,-0.469466 -0.25252,-0.0027 -0.376211,0.06738 -0.538518,0.167876 -0.183175,0.113437 -0.256869,0.185251 -0.411872,0.370718 -0.318999,0.650446 -0.382535,3.912093 -0.522219,4.127503 0.264341,-0.359419 0.105501,-1.52 0.204044,-2.49803 0.05263,-0.522303 0.07203,-0.916674 0.08065,-1.120936 M 8.0573343,16.35745 c 0.3595162,0.174098 0.7344538,0.275378 1.2855856,0.175456 0.1991787,-0.03608 0.623101,-0.229624 0.7820281,-0.321794 0.372679,-0.216302 0.750154,-0.427525 0.755732,-0.941212 0.0012,-0.108523 0.0013,-0.189148 -0.04326,-0.296548 C 10.48849,14.133103 8.8722153,13.914781 8.1251326,13.947963 7.8814758,13.93095 7.6925754,13.923424 7.476943,13.96292 c -0.1657133,0.0097 -0.2078702,0.0089 -0.2805776,-0.0736 -0.1052032,-0.119237 -0.021447,-0.289634 0.011294,-0.401562 0.060711,-0.207804 0.3530415,-0.716071 0.4700112,-0.916974 0.1440796,-0.247492 0.2509518,-0.343641 0.3654933,-0.4222 0.02888,-0.01982 0.1447017,-0.06564 0.2399129,-0.08549 0.7037028,0.0447 1.4348571,0.08523 2.1711165,0.123934 0.120848,0.0064 0.190832,0.004 0.292949,0.02521 0.12995,0.0269 0.258378,0.06263 0.408279,0.07051 m -8.562898,0.550444 c -0.1578555,-0.294685 -0.1494657,-0.471657 0.056069,-0.693501 0.1812445,-0.195629 0.6025825,-0.192298 0.870598,-0.140614 0.3474886,0.06701 0.658395,0.255583 0.9144032,0.518903 0.076665,0.07889 0.1443588,0.11894 0.2151991,0.197704 0.1128321,0.125288 0.160095,0.17115 0.2657262,0.357269 0.08106,0.142923 0.071589,0.20899 0.059732,0.356268 -0.010156,0.126535 -0.03886,0.23426 -0.096752,0.348044 -0.093265,0.183199 -0.1630151,0.213609 -0.2532812,0.339816 -0.4201289,0.687036 -0.5727168,0.330351 0.1035105,0.643017 0.09449,0.04534 0.3647723,0.149124 0.4607988,0.191016 0.3248485,0.14167 0.8715464,0.573974 0.9859901,0.836538 0.1756362,0.402853 -0.1260353,0.859425 -0.4998388,1.11157 -0.205572,0.138685 -0.3799738,0.212857 -0.6044107,0.30176 -0.5591426,0.245622 -1.2516928,0.467118 -1.6649918,0.324468 M 12.418892,12.87886 c -0.01441,0.494309 -0.110383,0.970865 -0.126019,1.464749 l 0.44123,0.376321 c 0.317525,0.03859 0.630878,-0.02777 0.945255,-0.06802 l 0.345955,-0.0505 c 0.141064,-0.371566 0.212285,-0.765667 0.305758,-1.151198 m 26.319028,0.912563 -0.15749,0.756836 -0.01851,0.352155 -0.01851,0.352157 0.01138,0.530293 0.001,0.353183 0.01447,0.4716 -0.0021,0.411875 -0.0051,0.470569 0.02064,0.354214 -0.01022,0.941142 0.04121,0.708424 m -22.1552,-5.107829 c -0.375046,0.05862 -0.252673,0.07518 -0.656934,0.18129 -0.139525,0.03657 -0.256183,0.106128 -0.361411,0.157568 -0.962571,0.604674 -1.525851,0.513286 -2.096337,1.439637 -0.06948,0.113586 -0.12957,0.162926 -0.116355,0.347013 0.01101,0.153249 0.06203,0.249628 0.168396,0.342383 0.118856,0.103591 0.298531,0.117215 0.514836,0.09569 0.444852,-0.04418 0.619535,0.02186 0.947824,-0.116916 0.151926,-0.06423 0.461537,-0.171257 0.585893,-0.322334 0.192638,-0.234122 0.124766,-0.42426 -0.0083,-0.588985 -0.09349,-0.115738 -0.163655,-0.171689 -0.281638,-0.240395 -0.457192,-0.332973 -1.352387,-0.471352 -1.669697,-0.705739 -0.236889,-0.183659 -0.38852,-0.373608 -0.37794,-0.64767 0.01753,-0.304894 0.231723,-0.485831 0.379375,-0.686317 0.145544,-0.199225 0.56739,-0.633178 0.753705,-0.715669 0.193065,-0.08549 0.291921,-0.05598 0.525665,0.07666 m 33.294523,5.92875 c -0.345994,-0.01819 -1.292648,0.257876 -0.851,0.887118 0.18467,0.203872 0.391158,0.282333 0.616305,0.218789 0.41654,-0.128578 0.751171,-0.342894 0.966303,-0.655468 0.585499,-1.094832 0.790798,-1.150657 0.840598,-2.368866 l 0.04628,-0.880391 0.03702,-0.704313 c 0.01763,-0.335488 -0.03253,-0.293513 -0.02167,-0.707398 -0.02597,1.777739 -0.146631,3.659509 0.273207,5.252446 0.03976,0.14393 0.06728,0.228304 0.138026,0.360385 m -3.743983,-0.432214 c -0.241046,-0.103485 -0.458579,-0.144815 -0.688373,-0.340286 -0.15904,-0.13525 -0.374316,-0.323602 -0.507669,-0.419011 -0.903794,-0.479207 -0.150054,-1.733792 0.340685,-2.002817 0.115928,-0.06577 0.267006,-0.178833 0.367066,-0.265152 0.305224,-0.263222 0.657958,-0.649486 0.662002,-1.024591 0.003,-0.278518 -0.203515,-0.590182 -0.510761,-0.733106 -0.151093,-0.07027 -0.364083,-0.0032 -0.472625,0.03401 -0.04316,0.01479 -0.133957,0.03369 -0.180191,0.06899 -0.156058,0.119335 -0.136942,0.145295 -0.229624,0.262605 -0.03991,0.05047 -0.220187,0.279994 -0.333753,0.448694 -0.0073,0.511295 -0.109636,1.268141 -0.204409,1.986222 -0.104527,0.792005 -0.239054,1.583114 -0.01799,1.86442 3.32e-4,0.163232 0.04747,-0.325762 0.142869,-1.420869 0.111672,-0.723915 0.209033,-1.516121 0.13302,-2.239594 m -4.354406,-1.294468 -0.188343,1.343764 -0.08337,0.466457 0.05664,0.414961 -0.102913,0.465429 -0.04011,0.763006 c 0.0062,0.180862 -0.02828,0.351409 -0.06691,0.526177 l -0.112168,0.641508 m -27.857733,-5.417388 -0.01543,0.293464 -0.03085,0.586927 c -0.0382,0.726675 -0.0043,1.326128 0.265776,1.661908 m 16.696614,1.652563 c 0.443102,0.05855 0.875847,0.09018 1.365874,-0.232309 0.297079,-0.195498 0.454909,-0.435922 0.372205,-0.735721 -0.232068,-0.526467 -0.664785,-0.786905 -1.165703,-0.963695 -0.201928,-0.07059 -0.262508,-0.100487 -0.279066,-0.289344 -0.04524,-0.516534 0.950953,-0.597419 1.266485,-0.580833 m 9.681311,1.685973 c 0.124895,0.0033 0.230152,-0.0039 0.532348,-0.05048 0.431608,-0.06654 0.848123,-0.04635 1.120306,-0.03923 M 26.621374,16.694228 c 0.561991,0.121036 0.915567,0.10933 1.353889,0.308049 0.582764,0.360314 0.575887,0.780365 -0.05862,1.115162 -0.301909,0.148974 -0.65079,0.266126 -0.958105,0.312538 -0.177,0.02731 -0.775805,-0.0015 -0.934456,-0.137399 -0.24276,-0.213366 -0.353732,-0.53073 -0.306397,-0.8891 -0.0047,-0.330687 0.42578,-0.607967 0.893336,-0.529973 m 11.932613,1.733835 c 0.120836,-0.108769 0.11523,-0.08605 0.247112,-0.222431 0.113022,-0.116889 0.244569,-0.256936 0.31506,-0.395424 0.07856,-0.154367 0.127574,-0.391565 0.0571,-0.526692 -0.0694,-0.13313 -0.161958,-0.12222 -0.257948,-0.131268 -0.348996,-0.0065 -0.66222,0.179438 -0.843292,0.367658 -0.729132,1.438259 0.609211,1.308062 1.455058,1.430144 m -5.300936,-1.043746 c 0.233439,-0.09469 0.547481,-0.159101 0.670301,-0.435607 -0.02254,-0.494334 -0.323714,-0.496733 -0.724907,-0.460779 -1.330136,0.744754 0.04796,1.3711 0.783675,1.582112 M 37.4284,17.430435 c -0.0056,0.106233 0.0018,0.191372 -0.03804,0.351129 -0.0246,0.09865 -0.132481,0.410906 -0.194101,0.519492 -0.256006,0.46635 -0.570588,0.748753 -1.091916,0.805831 -0.125369,0.01242 -0.166768,0.01066 -0.291407,-0.05457 -0.138501,-0.07249 -0.243241,-0.191586 -0.317186,-0.310946 -0.145661,-0.235249 -0.182178,-0.54598 -0.03813,-0.767118 m 5.609746,-0.35254 1.115163,0.05862 M 3.2830501,20.745352 C 3.177367,20.613965 2.9306157,20.326791 3.1460817,20.179031 c 0.3730149,-0.04227 0.7894295,0.09941 1.1573679,0.188371 0.1151415,0.02871 0.1799785,0.03135 0.2934638,0.01543 0.1518489,-0.02133 0.4923768,-0.01337 0.7063714,-0.0021 l 0.3521558,0.01851 0.3521569,0.01851 c 0.3960582,0.02082 0.987484,-0.02943 1.3504479,0.06117 0.2078547,0.05189 0.2772589,0.07289 0.4072485,0.09009 m 4.8796481,0.326034 c -0.03724,0.708422 0.0013,1.308058 0.152509,1.950228 -0.02242,1.256302 0.09968,2.064221 -0.05641,2.939783 m 2.242511,-2.354036 -0.586926,-0.03085 -0.950398,0.165865 c -1.279019,0.563491 -0.413747,1.098159 -0.01535,1.411713 0.177898,0.145953 0.240099,0.189773 0.396966,0.285713 0.104978,0.0642 0.186546,0.13034 0.283696,0.201246 0.59218,0.432576 0.919526,0.567021 1.184214,0.984326 M 5.651238,20.703952 c -0.00758,0.28905 0.08969,0.475965 0.2533581,0.778431 0.1686598,0.311615 0.400121,0.653427 0.5767149,0.971992 0.1304092,0.235388 0.2044639,0.512779 0.3217936,0.782028 0.181994,0.417372 0.3095812,0.951653 0.147901,1.479147 -0.064354,0.209849 -0.2116981,0.351536 -0.4149569,0.42943 -0.2521741,0.08957 -0.5439212,0.07322 -0.7666029,0.02833 C 5.6173124,25.14183 5.2916057,25.055675 5.194343,24.91749 m 24.269243,-1.51995 0.349072,0.0772 0.701228,0.09571 0.350613,0.04786 0.292435,0.03497 0.580244,0.158037 m 7.613105,0.72387 c -0.0049,-0.184884 -0.110342,-0.354044 0.08389,-0.476259 0.109194,-0.06865 0.203929,-0.09287 0.357811,-0.08907 0.146415,0.0037 0.205054,0.0056 0.348556,0.08701 0.194024,0.110076 0.427909,0.347607 0.439208,0.601807 0.02234,0.503088 -0.422701,1.049234 -0.709861,1.375205 -0.101328,0.115031 -0.180244,0.211055 -0.253283,0.339816 -0.07939,0.139845 -0.182237,0.338606 -0.122516,0.464399 0.06035,0.127063 0.09429,0.09741 0.257947,0.131269 0.08203,0.01697 0.725116,0.09696 0.818613,0.10188 0.08352,0.0044 0.186061,0.0052 0.294491,-0.0041 0.175651,-0.01507 0.414052,0.01666 0.613673,-0.105111 m -7.617879,-3.245052 c -0.09995,0.206447 -0.09051,0.60239 -0.10188,0.818613 -0.0086,0.163694 -0.05455,0.230434 -0.0021,0.411877 0.06934,0.239535 0.309938,0.454466 0.601398,0.50245 0.317484,0.05224 0.515557,0.03601 0.765061,9.6e-4 0.122677,-0.01722 0.190468,-0.0081 0.294494,-0.0041 0.325393,0.0126 0.318035,-0.0086 0.531319,-0.03092 -0.166156,-0.513842 -0.126298,-0.985698 0.0833,-1.584705 m -5.168047,-0.212796 -0.0216,0.410851 0.07673,0.592582 -0.0056,0.293978 -0.141986,1.58162 -0.01851,0.352156 c 0.317291,0.01668 0.373938,-0.09805 0.945253,-0.06802 m 6.451519,-2.154303 c -0.184645,-0.440148 -0.630701,-0.524108 -1.452965,0.180557 -0.133535,0.165044 -0.334788,0.823524 -0.122999,1.033322 0.243302,0.188725 0.704296,0.144169 1.046187,0.251154 0.608193,0.03637 0.569285,-0.168075 0.633205,-0.849541 -0.0023,-0.239514 0.05733,-0.296664 -0.01123,-0.460099 0.01668,1.737128 -0.03752,1.899131 0.205975,2.353695 m -2.159178,-1.709476 c -0.123755,-0.0014 -0.164699,-5.46e-4 -0.340008,-0.01096 m 7.99139,-0.874759 c 0.12799,0.03062 0.244708,0.06295 0.349072,0.0772 0.133936,0.01829 0.145805,0.03432 0.290897,0.06432 0.312843,0.115991 1.094061,0.09793 1.160997,0.306274 0.04076,0.13486 -0.04857,0.261234 -0.106034,0.337727 -0.07081,0.09421 -0.188598,0.172949 -0.20182,0.293495 -0.01216,0.111362 0.08899,0.172532 0.145736,0.213653 -0.06889,-0.04988 0.709035,0.363737 0.68786,0.350028 0.09358,0.06048 0.142312,0.106357 0.224999,0.198221 0.19535,0.217025 0.283903,0.554504 0.25336,0.778431 -0.01253,0.09175 -0.03983,0.152282 -0.07103,0.231686 -0.559875,0.97281 -0.992762,1.070395 -1.831738,1.257382 m -2.579626,-3.549176 c 0.04649,-0.05712 0.131452,-0.215562 0.364496,-0.21626 0.205904,-5.93e-4 0.394284,0.05792 0.638934,0.161122 0.147458,0.0622 0.202424,0.06114 0.346501,0.126095 0.184534,0.120303 0.38541,0.304993 0.43506,0.493707 0.03588,0.143902 0.0012,0.262083 -0.06068,0.408794 -0.07214,0.171066 -0.09383,0.246791 -0.197673,0.401595 -0.19994,0.298067 -0.632728,0.547169 -0.984878,0.634891 -0.141216,0.03513 -0.442496,0.0061 -0.529262,-0.0082 -0.621429,-0.263128 -0.882817,-0.939602 -0.633356,-1.386956 0.05656,-0.09967 0.131571,-0.223383 0.233735,-0.340843 0.05876,-0.06766 0.182516,-0.174799 0.32278,-0.169428 0.142552,0.0055 0.239757,0.114598 0.286777,0.142613 M 21.801382,26.9675 c -0.05882,-0.163177 -0.114637,-0.592574 -0.132887,-0.830954 0.02545,-0.258905 -0.02779,-0.516334 -0.145775,-0.772775 -0.234384,-0.615461 -1.013053,-0.739029 -1.254991,-0.101455 -0.06151,0.0733 -0.195735,0.350503 -0.236324,0.487416 -0.267426,1.680674 -0.095,1.329152 -0.151535,-0.295754 M 17.926446,24.77258 c 1.22683,0.262557 2.423433,1.826197 1.10918,2.186848 -0.286106,0.07037 -0.557705,-0.01422 -0.758379,-0.128144 -0.729866,-0.597783 -1.344973,-1.413063 -0.354513,-1.875562 m -1.280298,-0.61359 c -0.216413,-0.110783 -1.137407,-0.645392 -1.268611,-0.125533 -0.04364,0.172918 0.158092,0.386157 0.308447,0.477223 0.331336,0.200749 0.999393,0.482995 1.258847,0.684145 0.182939,0.141863 0.326166,0.150215 0.331588,0.409815 0.06352,0.397304 -0.188589,0.61548 -0.448897,0.702262 -0.116767,0.03694 -0.22433,0.07344 -0.357299,0.07934 -0.210781,0.0093 -0.196643,0.02592 -0.404679,-0.138982 m -6.5273878,-2.344166 -0.6456197,-0.03394 -0.4108498,-0.0216 -0.2285698,0.05667 -0.1451815,0.335669 0.085988,0.416504 0.3449905,0.341836 c 0.5133438,0.04399 0.8934202,0.170307 1.0765225,-0.325973 l 0.07272,0.598286 c 0.1651313,0.260826 0.4210615,0.253409 0.7027015,0.325296 m 14.980029,-0.80169 c -0.139654,0.488536 -0.37254,0.938834 -0.564789,1.441685 0.353483,-0.3184 0.732227,-1.92996 1.159219,-2.646396 0.0546,-0.0893 0.289286,-0.283601 0.376867,-0.264637 0.268216,0.05795 0.135733,0.183405 0.09322,0.46591 -0.08662,0.567072 -0.161693,1.08224 -0.272258,1.633627 -0.208951,0.726524 0.210665,0.753625 0.424769,0.316602 0.0797,-0.169139 0.200896,-0.460633 0.268708,-0.63328 0.210084,-0.425494 0.77105,-1.890412 1.135129,-1.813862 0.221955,0.05799 0.158978,0.242775 0.19106,0.471052 0.07117,0.506833 -0.01163,1.29508 -0.0174,1.823589 7.42e-4,0.290307 0.101006,0.549189 0.253359,0.77843 m 7.534189,-1.13421 c -0.02584,0.609788 -0.130138,1.277366 0.142222,1.773124 m -23.829242,-1.25253 c -0.208339,0.0055 -0.229488,0.04167 -0.413934,0.03709 -0.804438,-0.0713 -1.571834,-0.92533 -1.077184,-1.527993 0.159313,-0.185729 0.202031,-0.106031 0.511776,-0.03195 m 11.429737,2.013297 c 0.227435,0.25267 0.489025,0.581118 0.586457,0.972504 0.06552,0.262935 0.04777,0.469584 -0.06637,0.70277 -0.0271,0.05537 -0.04687,0.115835 -0.09729,0.171451 -0.101901,0.112412 -0.164653,0.131714 -0.296002,0.219861 -0.219441,0.147256 -0.273732,0.137693 -0.590012,0.02784 m 8.504124,-1.671777 c -0.08992,0.06361 -0.316692,0.214889 -0.543145,0.255897 -0.218918,0.0308 -0.381866,0.104193 -0.593614,0.09634 -0.08552,-0.0033 -0.252789,-0.01329 -0.352156,-0.01851"
       id="path22155"
       sodipodi:nodetypes="cccccccccccsccccscccsccccccccccccccsccscccccccccccccccccccccccccccccccccccccccccccccccccccccsccccccccccccccscccccccccccccscccccccccccccccccccccccccccccccccsccccccccscscccccccccccccccccccccccccccccccsccsscccscccccccccccccccccccccccccsccccscccccccccsccccccccccccccccccccccccccccccccccccccccccccccccccccccssccccc" /></g></svg>
