<?xml version="1.0" encoding="UTF-8" standalone="no"?>
<!-- Created with Inkscape (http://www.inkscape.org/) -->

<svg
   width="210mm"
   height="297mm"
   viewBox="0 0 210 297"
   version="1.1"
   id="svg5"
   inkscape:version="1.2 (dc2aedaf03, 2022-05-15)"
   sodipodi:docname="Casey - Pulsz - Envelope 12.svg"
   xml:space="preserve"
   xmlns:inkscape="http://www.inkscape.org/namespaces/inkscape"
   xmlns:sodipodi="http://sodipodi.sourceforge.net/DTD/sodipodi-0.dtd"
   xmlns="http://www.w3.org/2000/svg"
   xmlns:svg="http://www.w3.org/2000/svg"><sodipodi:namedview
     id="namedview7"
     pagecolor="#ffffff"
     bordercolor="#666666"
     borderopacity="1.0"
     inkscape:pageshadow="2"
     inkscape:pageopacity="0.0"
     inkscape:pagecheckerboard="0"
     inkscape:document-units="mm"
     showgrid="false"
     inkscape:zoom="1.4142136"
     inkscape:cx="234.75945"
     inkscape:cy="133.99674"
     inkscape:window-width="1920"
     inkscape:window-height="991"
     inkscape:window-x="-9"
     inkscape:window-y="-9"
     inkscape:window-maximized="1"
     inkscape:current-layer="layer1"
     inkscape:showpageshadow="2"
     inkscape:deskcolor="#d1d1d1" /><defs
     id="defs2"><pattern
       id="EMFhbasepattern"
       patternUnits="userSpaceOnUse"
       width="6"
       height="6"
       x="0"
       y="0" /></defs><g
     inkscape:label="Layer 1"
     inkscape:groupmode="layer"
     id="layer1"><path
       style="fill:none;stroke:#474139;stroke-width:0.0645262"
       d="M 32.131079,5.6086953 C 31.62285,5.9296288 30.826962,5.8583253 30.48794,5.2681801 30.090643,4.576618 30.252015,3.6703348 30.359802,2.9078064 30.44015,2.339195 30.693153,1.4527701 31.267793,1.3547957 M 34.85357,2.417041 c 0.159565,0.5790225 0.04922,0.2130749 0.144358,0.4500486 m 3.669453,2.6740833 C 39.147247,5.3622395 40.703874,4.5551459 40.172766,3.7926856 39.725092,3.1500088 38.873768,3.7743891 38.546955,3.0398803 38.25313,2.3794518 39.16075,2.3376482 39.530668,2.502673 m -17.265707,0 c 0.0185,0.1601893 0.05451,0.4842699 0.06271,0.7427453 0.0058,0.1826471 0.03502,0.2843351 0.03471,0.4726547 -1.84e-4,0.1484137 -0.02368,0.2596908 -0.04317,0.4051333 -0.02701,0.2014181 -0.09927,0.4601647 -0.01702,0.6563836 0.116914,0.2790689 0.349878,0.2162734 0.641052,0.2216076 0.386197,0.00704 0.72331,0.058953 0.974896,0.3447684 0.223776,0.2541541 0.223283,0.4344386 0.196706,0.7353864 M 18.688492,2.9078064 c 0,0.4698196 0.05415,0.791969 0.138496,1.350444 0.03021,0.1998666 0.0325,0.4423381 0.14534,0.5671868 0.169574,0.1877795 0.2966,0.1267397 0.517787,0.1704261 m 2.812088,-0.2162734 c -0.01185,0.2186677 -0.0042,1.2553897 -0.132727,1.3490321 m -0.3285,0.089563 C 21.62275,6.2559265 21.370163,5.6073383 21.278101,5.4071351 21.174939,5.1828262 21.09305,5.0930898 20.908061,5.0275925 20.300278,4.8703339 19.704458,5.2366517 20.082297,5.79586 c 0.116113,0.1645539 0.29358,0.2478759 0.517788,0.1790695 0.33446,-0.1025637 0.552499,-0.3319239 0.704992,-0.4513032 M 36.324181,4.4608159 c 0.07005,-0.2982462 0.284329,-0.9214768 0.579016,-1.1743467 0.155638,-0.1335596 0.322561,-0.083321 0.466545,0.019313 0.34673,0.2471985 0.379167,0.7512517 0.49602,1.1550344 M 22.44995,3.718073 c 0.152801,-0.030186 0.272799,-0.1138421 0.616632,-0.2650921 0.234567,-0.1032451 0.438364,-0.091228 0.678296,-0.1400412 m 1.788234,3.1060227 c 0.474251,0.030181 1.410053,-0.3407172 1.972114,-0.8452433 0.19609,-0.1760313 0.4182,-0.4244448 0.266386,-0.7037851 C 27.574474,4.5070026 26.948099,4.4342819 26.64305,4.3483255 25.351755,3.9812897 27.030857,3.4187306 27.444673,3.5155064 m -2.959836,1.3504451 c -0.08325,-0.3114127 -0.0711,-0.5856207 0.112166,-0.8738737 0.149409,-0.2350443 0.731633,-0.421068 0.935864,-0.3720473 1.033315,0.3944133 -0.563349,1.0730937 -1.04803,1.245921 z M 3.3343439,7.8369292 C 3.5733502,7.8700104 4.2121819,7.8820309 4.7525981,7.7338916 5.0708424,7.6465884 5.7400742,7.579467 5.9215493,7.2193041 6.0903822,6.8841241 5.7540097,6.5257842 5.5436764,6.3034332 5.1207284,5.8562322 4.2369706,5.5505592 3.9623218,4.933204 3.5813673,4.07709 5.1240582,3.63752 5.6158843,3.7855967 M 33.840014,5.1138264 C 33.590032,5.3262512 33.041352,5.5022815 32.767321,5.2752714 32.627222,5.1592005 32.61717,4.9649394 32.631353,4.798497 c 0.01567,-0.1825121 0.06295,-0.3204593 0.246406,-0.494262 0.224701,-0.2130331 0.385025,-0.2966254 0.671576,-0.3131003 1.089739,-0.045649 0.877788,0.6182581 0.290679,1.1226917 z M 16.221962,6.6215487 c 0.429732,0.3731283 0.85231,0.6519283 1.418255,0.504257 0.310474,-0.081023 0.767275,-0.3891299 0.638399,-0.8418672 C 18.120696,5.7289046 17.432782,5.515198 16.96192,5.3794771 16.810537,5.3358555 16.61519,5.3301853 16.469602,5.2689481 16.330427,5.210342 16.190205,5.1239113 16.190205,4.9359299 c 0,-0.4347089 0.576367,-0.2567196 0.771715,-0.1374762 M 35.018574,3.1342055 c 0.102045,0.7392889 0.09987,1.5983258 0.06166,2.1840344 M 14.372369,4.9171331 c 0.381387,-0.090951 0.628348,0.3406486 0.756608,0.6240398 0.103532,0.2287642 0.181536,0.4363957 0.142874,0.6752232 -0.06099,0.3761655 -0.515197,0.7206649 -0.838127,0.7872423 -0.286549,0.059082 -0.547076,0.048202 -0.650362,-0.1983812 -0.04761,-0.113577 -0.02824,-0.2647555 -0.0082,-0.3862948 0.06783,-0.4131008 0.112413,-1.3862314 0.597271,-1.5018293 m 10.112464,-0.051184 c 0.106431,0.5328845 0.672127,0.9522655 1.356588,0.8777879 m -6.869137,-0.9183 c 0.08152,0.4603675 0.197693,1.0763736 0.246654,1.755579 m -7.868384,0.8507775 c -0.511436,0 -1.002152,-0.045312 -1.4155421,-0.390886 C 9.7942794,6.9232835 9.6584344,6.7594076 9.6374075,6.5539372 9.6161376,6.3465768 9.6744129,6.2427271 9.7422993,6.0816183 9.826849,5.8810781 9.911565,5.7843186 10.056843,5.6505568 c 0.152494,-0.140446 0.246777,-0.2291032 0.430471,-0.2827151 0.230312,-0.067252 0.366156,-0.021471 0.493307,0.032821 0.865326,0.3266997 -0.35336,0.8777834 -0.739996,1.0182995 M 12.117032,5.572367 c -0.01795,0.01143 0.116773,-0.2744738 0.198476,-0.2886613 0.203394,-0.031261 0.454558,0.2095935 0.44202,0.4210041 -0.0073,0.1857536 -0.129925,0.2293742 -0.272922,0.1557736 -0.211999,-0.109178 -0.307761,-0.2428097 -0.367574,-0.2881164 -0.118888,0.4075636 0.348106,1.5766076 0.541975,1.5931502 M 8.6374179,6.0813513 c 0.2896948,0.01039 0.4600692,0.0112 0.5149499,0.3388941 C 9.17814,6.574197 9.1498106,6.6847979 9.0965583,6.8240959 9.0229677,7.0163988 8.6476162,7.4192363 8.4523901,7.467313 8.1311869,7.5464458 7.8625199,7.2860145 7.5891049,7.2675138 7.3775387,7.2532033 7.2950949,7.3531969 7.0958605,7.3592771 6.5505729,7.3759577 6.6024928,6.6620421 6.6024928,6.35144 m 1.0482764,0.1350458 c -6.137e-4,0.2671166 0.00301,0.5416604 -0.061663,0.781028 M 13.783362,6.8052572 13.632104,7.7018854 M 169.82509,19.720858 c 0.31512,1.672525 1.38928,3.578812 1.41827,5.064165 -0.31386,-0.05078 -0.60862,-0.192302 -1.10993,-0.405132 m 2.58984,-2.70091 0.24665,1.282922 m -12.88761,-1.012832 c 0.15539,0.743148 0.38415,2.218374 0.50995,3.173545 0.0554,0.421068 0.0845,0.859353 0.29167,1.215399 l 0.43164,-0.135045 m -16.71074,5.13169 c -0.2966,0.230994 -0.57963,0.362997 -0.92495,0.462122 -0.36134,0.103776 -0.87315,0.149764 -1.09143,-0.26354 -0.29369,-0.441361 -0.14542,-0.747431 -0.0259,-1.143891 0.13689,-0.446052 0.22075,-0.859085 0.74735,-0.877789 m -1.35657,1.791022 c -0.15539,0.101087 -0.36073,0.189738 -0.55496,0.241394 -0.32621,0.08676 -0.59137,0.121809 -0.92497,-0.06339 -0.89114,-0.864636 -0.28667,-1.969629 0.66782,-1.257272 0.13811,0.107897 0.20348,0.206686 0.32433,0.271845 0.56716,0.29141 0.94911,0.355855 0.48778,0.807425 z m 5.98134,-8.880848 c 0.22691,0.561244 0.22075,0.974953 0.37861,1.55301 0.10173,0.373534 0.1708,0.766918 0.2522,1.147879 0.0907,0.42127 0.1782,0.853683 0.25714,1.282922 0.14983,0.813036 0.32557,1.625057 0.4415,2.4308 0.0357,0.248279 0.0512,0.484403 0.079,0.742744 0.0727,0.664621 0.17821,1.39656 0.50317,1.958144 M 111.6767,22.759346 c -0.33545,0.750509 -0.28981,1.418372 -0.30893,2.295755 -0.005,0.184741 -0.0346,0.35537 -0.0506,0.540177 -0.0296,0.343554 0.005,0.677586 -0.016,1.012834 -0.0593,0.946391 -0.0629,1.73782 -0.12333,2.700889 -0.0278,0.444161 -0.0512,0.736533 -0.0931,1.147879 -0.0234,0.226467 -0.0185,0.392167 -0.0272,0.607699 -0.0197,0.495882 -0.10791,0.974616 -0.16526,1.485489 -0.13443,1.200409 -0.20225,2.113716 -0.20225,3.308588 m -3.82311,-12.694178 c 0.30769,0.413777 0.76092,0.867121 1.10808,1.417967 0.15293,0.241798 0.26886,0.439909 0.40821,0.675223 0.15046,0.254491 0.3188,0.48042 0.46864,0.742744 0.49208,0.865027 0.81335,1.833364 1.30295,2.700889 0.34963,0.619989 0.46309,0.929443 0.90521,1.417967 m 66.74104,-4.266291 c -0.11286,-0.114453 -0.33403,-0.422992 -0.41296,-0.601454 -0.10606,-0.23896 -0.17451,-0.576843 -0.10915,-0.871644 0.15046,-0.678531 0.68447,-1.018843 1.30233,-1.091565 0.31202,-0.03673 0.76955,-0.100671 1.04581,0.116815 0.31819,0.251115 0.32682,0.623364 0.10544,0.97448 -0.30584,0.484741 -0.76709,0.69109 -1.27457,0.865163 -0.20473,0.07015 -0.50873,0.111545 -0.63452,0.311276 -0.12827,0.203445 0.079,0.438693 0.20533,0.57232 0.39835,0.419447 0.85158,0.426537 1.35414,0.3447 m -25.96023,-2.903456 0.86328,0.06752 0.55498,0.07197 0.73995,0.07353 1.72657,0.529712 m -2.46652,-0.540179 c 0,0.504122 -0.0561,0.65159 0.0881,1.215401 0.21335,0.83525 0.48097,1.673741 0.59813,2.565845 0.0407,0.307496 0.12888,0.798381 0.17205,1.080354 0.0426,0.27907 0.0746,0.433763 0.12826,0.6077 0.095,-0.03917 0.19238,-0.0746 0.36998,-0.127346 0.11839,-0.03505 0.2448,-0.08177 0.36997,-0.127549 0.27872,-0.102092 0.72762,-0.143351 0.98661,-0.273061 m 18.74563,-4.941344 -0.222,1.755579 -0.26268,0.877789 -0.50809,0.806214 -0.47236,-0.401149 -0.73687,-1.687987 -0.14121,-0.87779 m -56.97683,0.06752 c -0.37985,0.445647 0.087,1.685152 0.28797,2.363278 0.46062,1.555037 0.89226,3.282727 1.0717,4.861599 0.0833,0.738895 0.008,1.823034 0.30523,2.498322 m 52.59875,-9.250544 0.49331,0.254763 0.73997,0.285415 m -8.38622,2.633367 c 0.016,-0.405809 0.0666,-0.806013 0.11285,-1.282922 0.0314,-0.319583 0.0493,-0.531873 0.18992,-0.810267 0.30339,-0.602838 0.79977,-0.97124 1.36214,-0.675222 m 5.48803,-0.405134 c 0,0.432277 0.13874,1.533361 0.33483,2.295756 0.0827,0.320257 0.15601,0.539839 0.15848,0.877788 m -4.68517,-2.496161 c 0.33914,-0.186496 0.7603,0.214855 0.92248,0.366849 0.15724,0.147333 0.25404,0.24146 0.28426,0.441258 0.0604,0.400136 -0.36813,0.655505 -0.65548,0.82242 -0.35641,0.206956 -1.09266,0.380352 -1.15741,-0.28231 -0.0216,-0.221203 0.0499,-0.400474 0.12887,-0.607633 0.10853,-0.282851 0.18437,-0.579882 0.47728,-0.740584 m 2.65029,0.200407 c -1.28725,1.342443 -0.21321,2.355721 1.17171,1.890622 m -1.99391,-0.448699 c -0.44397,-0.0044 -0.47425,-0.03312 -0.73754,-0.41975 m -4.85324,1.003494 c -0.45383,0.308778 -1.45832,0.429845 -1.52123,-0.405134 -0.0542,-0.725121 1.00202,-1.514388 1.5829,-1.536603 0.48776,-0.0187 0.26576,0.485957 0.0554,0.714588 -0.3447,0.374343 -0.71654,0.613304 -1.16544,0.686971 m -43.71924,-1.350445 0.23987,1.080355 0.62156,2.160711 0.43349,1.823101 0.43165,2.835932 m -96.262151,-5.21451 c -0.294257,-0.102161 -1.273346,-0.259758 -0.871117,0.469753 0.21169,0.383998 1.234807,0.49048 1.076949,1.082245 -0.08127,0.304661 -0.416536,0.43194 -0.637475,0.528969 -0.258676,0.113577 -0.538814,0.167592 -0.801621,0.134505 m -0.399948,-0.169752 c -0.156194,-0.161713 -0.201948,-0.735721 -0.21428,-1.032887 m 0,0 c -0.03737,-0.901962 -0.124991,-1.876105 -0.277424,-2.768411 -0.03909,-0.228765 -0.20984,-1.025528 -0.05772,-1.143016 m 122.374417,1.540783 c 0.16213,0.877638 -0.0142,0.372401 0.29627,0.882346 m 15.6087,-1.872515 c 0.3749,0.176569 0.51919,0.189062 0.8016,0.202567 m 12.15897,-2.896729 0.72865,3.774522 m -12.88761,-0.877785 c 0.005,0.576572 0.36813,1.702167 0.36998,2.498322 M 35.208289,28.213339 c -5.57e-4,0.269684 -0.181596,0.874076 -0.05753,1.03228 0.110252,0.140581 0.26028,-0.02168 0.326814,-0.102702 0.110686,-0.134909 0.247578,-0.41722 0.343342,-0.591968 1.651266,-2.98596 0.705527,1.32836 2.083047,-1.2154 0.147866,-0.276706 0.377807,-0.672048 0.574946,-0.868808 0.132392,-0.132074 0.296478,-0.289266 0.471229,-0.196895 0.171179,0.09041 0.137449,0.417895 0.116792,0.593047 -0.07233,0.61263 -0.08719,1.148013 -0.158844,1.755579 m 119.262665,0.690523 c -0.006,-0.09642 -0.0623,-0.343149 -0.0111,-0.540178 0.082,-0.317355 0.19178,-0.326538 0.24481,-0.607701 0.0308,-0.162593 0.0635,-0.384944 0.11839,-0.540178 0.0863,-0.244228 0.21767,-0.6998 0.51242,-0.6998 0.37183,0 0.48344,0.709523 0.56237,1.037412 0.095,0.396828 0.0648,0.622893 0.29969,0.945311 M 17.510939,27.740683 c 0.06635,0.118502 0.194423,0.439502 0.370904,0.431265 0.170314,-0.0078 0.241103,-0.152533 0.31849,-0.299124 0.107604,-0.203916 0.244063,-0.529171 0.482515,-0.660164 0.317258,-0.174342 0.582841,0.06772 0.788366,0.325794 0.231421,0.29055 0.436822,0.63498 0.435218,1.012496 -0.0019,0.443283 -0.415918,0.665296 -0.695069,0.929714 -0.200775,0.190075 -0.445638,0.334977 -0.713812,0.443688 -0.241475,0.0979 -0.351358,0.02275 -0.517788,0.21769 -0.09416,0.110403 -0.09885,0.695144 -0.09885,0.907232 M 31.787857,29.55601 c -0.306776,0.140986 -0.76811,0.525735 -1.14148,0.362805 -0.240301,-0.104931 -0.345131,-0.340785 -0.342727,-0.625121 0.0049,-0.585687 0.350126,-1.308243 0.70469,-1.746597 0.175061,-0.216408 0.292405,-0.252263 0.561812,-0.27907 m 2.987155,1.350446 c -0.04077,0.174747 -0.107357,0.317894 -0.20713,0.46023 -0.253248,0.361244 -0.764069,0.759761 -1.176782,0.838965 -0.144351,0.02768 -0.278716,0.06117 -0.429112,2.53e-4 -0.67191,-0.459392 -0.413245,-0.913978 -0.164283,-1.128157 0.390308,-1.13504 2.248469,-1.756821 1.977307,-0.171291 z m 123.366803,-0.119744 0.23559,0.270088 m -133.434162,-0.555479 1.109939,0.0736 0.739958,0.264011 c -0.112412,0.30878 -0.487694,0.838221 -0.746988,1.282922 -0.08306,0.142472 -0.218165,0.335115 -0.146636,0.518707 0.06733,0.172655 0.23765,0.152937 0.40038,0.156177 0.349076,0.007 0.700371,-0.06678 1.048213,-0.1154 0.303199,-0.0424 0.558423,-0.105266 0.863286,-0.154357 m -10.111847,-2.06705 c 3.35e-4,0.486971 0.09447,1.511954 0.09792,1.970094 M 154.22431,29.376518 c 0.58395,0.14686 1.23259,-0.167797 1.60318,-0.135046 m -8.07785,0.810267 c -9.1e-4,0.118772 0.0136,0.309724 -0.0635,0.447469 -0.095,0.169415 -0.27872,0.298856 -0.39404,0.432213 -0.21212,0.245104 -0.78373,0.760366 -1.11918,0.381768 -0.26701,-0.301757 -0.10174,-0.878397 0.0388,-1.193927 0.0907,-0.203714 0.17883,-0.36408 0.36752,-0.499462 0.26515,-0.190481 0.70481,-0.156855 0.92372,-0.17576 m -127.979805,0.004 c 0.192019,0.222486 8.64e-4,0.603741 0.02288,0.926025 0.01326,0.194329 0.02281,0.363202 0.193869,0.483932 0.173829,0.122688 0.382066,0.06185 0.534251,-0.06043 0.427881,-0.344024 0.492443,-0.707226 0.504898,-1.166242 m 106.683367,3.256363 c 0.0266,-1.081661 -0.61923,-0.697125 0,0 -0.42424,0.557126 -0.92556,0.693522 -1.4201,-0.135046 -0.25714,-0.43025 -0.41993,-0.889673 -0.56607,-1.350441 -0.11099,-0.349024 -0.43905,-1.051189 0.013,-1.215402 M 20.779099,29.968917 21.149078,30.37405 m 7.892896,-0.33761 c -0.130911,0.262457 -0.226243,0.245712 -0.369979,0.270087 m 99.653755,0.150349 c 0.50749,0.316273 1.33316,0.325051 1.65381,0.956856 0.22137,0.434913 -0.0858,0.963204 -0.36442,1.264353 -0.62651,0.676101 -1.69205,0.529036 -2.15268,0.20959 m 8.50954,-1.2154 c 0.83984,-0.01897 1.75432,-0.182715 2.52819,-0.514181 0.68633,-0.258909 1.95375,-1.148444 1.23201,-1.770832 -0.34594,-0.287308 -0.83617,-0.553276 -1.23204,-0.770158 -0.95701,-0.52404 -2.20692,-1.084272 -2.43816,-2.346599 -0.21274,-1.163747 0.0327,-2.623442 0.89658,-3.429252 0.37984,-0.354289 1.14447,-0.63525 1.60017,-0.301891 0.49145,0.359623 0.49638,1.547676 0.49638,2.043086 M 13.564507,30.239005 c 0.359435,0.06225 0.716834,0.278328 0.77153,0.675493 0.02985,0.216678 -0.04852,0.410871 -0.116236,0.607428 -0.09305,0.270159 -0.215636,0.536599 -0.415055,0.708311 -0.16871,0.145241 -0.465804,0.232546 -0.671882,0.202771 -0.114078,-0.0165 -0.228833,-0.07319 -0.36998,-0.07583 -0.23099,-0.0043 -0.260588,0.08588 -0.493306,0.10156 -0.20503,0.01384 -0.402599,-0.07158 -0.543561,-0.188659 -0.163408,-0.135721 -0.247516,-0.28278 -0.32102,-0.478123 -0.142257,-0.378259 -0.162173,-0.418031 -0.183694,-0.877722 M 144.6283,28.557258 c 0.36062,0.926932 0.5176,2.002519 0.71652,3.047496 m 2.34135,-1.105546 c 0.22444,0.201487 0.46803,0.432685 0.86514,0.497844 M 8.8164208,30.576613 c 0.5267886,0.08907 0.843431,0.866379 0.7260851,1.620536 -0.040942,0.263406 -0.1940544,0.524175 -0.4202347,0.665768 -0.2028728,0.127011 -0.4242438,0.157125 -0.6758291,0.13275 -0.4177698,-0.04052 -0.522288,-0.145916 -0.7140611,-0.570698 -0.076093,-0.1684 -0.3392712,-0.380554 -0.3269997,-0.564351 0.00667,-0.09872 0.040941,-0.146456 0.077143,-0.17819 0.2012062,-0.176709 0.3469171,0.08042 0.3164543,0.852332 -0.1252392,0.390077 -0.2110128,0.560569 -0.4634008,0.648553 -0.2569517,0.0896 -0.5303037,0.074 -0.7156018,-0.127211 C 6.428142,32.847728 6.379666,32.658057 6.352049,32.399716 6.3136372,32.039688 6.2979657,32.001134 6.0415748,31.859541 m -4.6864019,-1.14788 c 0.012998,0.689133 0.1010332,1.232417 0.33715,1.8231 0.1539913,0.385281 0.4781737,0.832684 0.8345004,1.018235 0.2672184,0.139165 0.5490257,0.202433 0.8629962,0.06151 C 3.7601563,33.448271 3.9342381,33.159479 3.8278686,32.669807 3.7505446,32.314097 3.6184599,32.137256 3.513386,31.99458 m 111.739754,2.648669 c -0.79607,0.06881 -1.58845,0.207561 -2.27538,-0.390885 -0.15846,-0.138085 -0.24665,-0.277922 -0.29043,-0.486971 -0.12394,-0.594195 0.33853,-1.271445 0.72145,-1.676444 0.37863,-0.40061 0.89906,-0.824648 1.41272,-0.981299 0.24049,-0.07332 0.62095,-0.05003 0.58087,0.297503 -0.0561,0.484945 -0.75352,0.917964 -1.07418,1.198925 -0.30214,0.264348 -0.54017,0.418706 -0.86328,0.688726 m 10.46301,-1.347473 c 0.73132,1.002096 -1.17591,2.131812 -1.95349,1.787449 -1.98465,-1.625645 0.87243,-3.035406 1.95349,-1.787451 z M 4.8699724,31.251839 c 0.297958,0.266444 0.6179274,0.576908 0.6331597,1.012835 0.020905,0.600609 -0.4653123,1.116412 -1.0031394,1.06766 -0.3181813,-0.02889 -0.5070273,-0.177135 -0.6486678,-0.280781 m 8.7265541,-1.732191 0.185005,1.037813 m 2.466514,-0.362593 v 0.472656 m 117.351112,4.269201 c 0.58827,0 1.40161,0.202501 1.91156,0.202568 m 1.17161,-0.202568 0.0771,0.945312 0.0827,0.675221 0.21028,2.295757 m -5.85801,-3.443634 c 0,0.295479 -0.005,0.613034 0.0258,0.87779 0.0327,0.26833 0.048,0.448212 0.0795,0.742743 0.0223,0.20061 0.016,0.343349 0.0179,0.540179 0.006,0.55807 0.0401,1.331807 0.24665,1.755577 m 1.66491,-3.713724 c -0.13073,0.236061 -0.22693,0.430862 -0.32003,0.675225 -0.15294,0.400945 -0.39465,0.917154 0.0746,1.134508 0.42609,0.197433 1.47559,-0.250035 1.6427,0.621337 0.0807,0.421071 -0.36504,0.715601 -0.65733,0.826137 -0.20842,0.07872 -0.3521,0.107563 -0.55497,0.116204 -0.32682,0.0139 -0.66781,-0.169818 -0.92494,-0.402431 m -13.81005,-2.846263 c 0.25898,-0.08372 0.4748,0.134841 0.58827,0.350844 0.1819,0.345105 0.23554,0.949767 0.193,1.34754 -0.0216,0.198448 -0.15539,0.618235 -0.085,0.7917 0.23494,0.579676 0.93112,0.236733 1.28197,0.899057 0.17266,0.325053 -0.0851,0.557396 -0.31571,0.745176 -0.47111,0.383121 -1.05567,0.729711 -1.60324,0.846052 -0.30092,0.06387 -0.45692,-0.04585 -0.54572,-0.312291 -0.16588,-0.495544 -0.20966,-1.209388 -0.35826,-1.754295 -0.0697,-0.256515 -0.1295,-0.487915 -0.12579,-0.742743 0.005,-0.264756 0.0833,-0.444768 0.13565,-0.675221 0.11039,-0.488321 0.31078,-1.326274 0.83493,-1.495819 m 7.33545,3.859095 c -0.23308,-0.321337 -0.52044,-0.709455 -0.73256,-1.012832 -0.11963,-0.170831 -0.3299,-0.407023 -0.30214,-0.675223 0.0376,-0.360095 0.25837,-0.608511 0.41807,-1.012832 0.19053,-0.482716 0.44952,-0.936667 0.86329,-1.147879 m -2.3432,0.945312 c 0.40882,0.486295 0.75043,0.940449 1.06184,1.215399 m -11.73162,1.823034 c -0.013,0.159216 -0.0289,0.30358 -0.148,0.415801 -0.0962,0.09047 -0.17512,0.103719 -0.28179,0.155434 -0.19609,0.09453 -0.92187,0.406823 -1.17161,0.35564 -0.2078,-0.04247 -0.45446,-0.115193 -0.60737,-0.3395 -0.1332,-0.195681 -0.1184,-0.329576 -0.1591,-0.587308 -0.0357,-0.225796 -0.0764,-0.384673 -0.11716,-0.607702 -0.0667,-0.361715 -0.005,-0.77313 0.0191,-1.147877 0.0204,-0.326132 0.0678,-0.897234 0.49515,-0.923769 0.55436,-0.03443 1.19442,0.54139 1.51693,0.991291 0.43278,0.541596 0.50449,1.005333 0.45386,1.68799 z m 8.81967,-2.458147 c 0.48283,-0.0193 1.09575,0.03835 1.47313,0.445037 0.31264,0.336871 0.34902,0.949905 0.095,1.337886 -0.21397,0.326741 -0.58147,0.681368 -0.95145,0.733831 -0.40698,0.05766 -0.92002,0.0013 -1.20183,-0.399865 -0.24233,-0.345039 -0.27748,-1.003516 -0.18683,-1.346732 0.05,-0.190209 0.024,-0.236731 0.0597,-0.403849 0.0567,-0.263945 0.50071,-0.357803 0.71221,-0.366308 m -6.17433,2.728311 c -0.0746,0.623973 -0.8047,1.196292 -1.34859,1.270429 -3.09548,-0.970273 1.55004,-3.959987 1.34859,-1.270429 z m 9.08635,-2.093198 c -0.28056,0.529782 -0.56388,1.96342 -0.7538,2.768421 m -13.18659,-0.358012 c 0.009,0.485079 0.27515,1.484209 0.36085,2.181105 m 40.26611,-1.350441 c 0.27317,-0.03855 0.67459,-0.14666 1.04827,-0.271777 0.27441,-0.09196 0.87685,-0.217692 0.75476,0.339363 -0.0537,0.245447 -0.20349,0.44639 -0.32311,0.675157 -0.17142,0.328899 -0.28859,0.499056 -0.43165,0.877789 0.47173,0.152601 1.06863,0.05024 1.60325,0.06853 0.21767,0.0075 0.38416,0.04531 0.54079,0.216952 0.34037,0.37306 0.0648,0.958948 -0.14737,1.335048 -0.24297,0.430658 -0.58088,0.87698 -1.01005,1.179004 -0.3558,0.250373 -0.65302,0.302903 -1.04828,0.306486 m -2.52819,-4.456468 0.30831,3.713721 m -4.31643,-0.135041 c 0.51058,0.45942 1.11612,0.490818 1.72657,0.122684 0.25777,-0.155367 0.88919,-0.552533 0.67583,-0.987982 -0.26453,-0.539503 -1.05629,-0.516142 -1.53911,-0.47914 -0.33791,0.02593 -0.49207,0.251319 -0.78189,0.05699 -0.16341,-0.109583 -0.12949,-0.336868 -0.079,-0.535652 0.0869,-0.341865 0.17944,-0.887581 0.44274,-1.107161 0.18993,-0.158139 0.49886,-0.108244 0.72639,-0.108244 0.5784,0 1.15063,-0.06711 1.72657,-0.06752 m -7.33792,0.135046 0.21335,0.810265 0.34161,2.700887 m -5.73468,-3.37611 c -0.34037,0.608712 -0.45815,0.908918 -0.61787,1.48549 -0.0518,0.185618 -0.0968,0.422149 -0.13381,0.607698 -0.19213,0.726989 -0.31169,0.634883 -0.76336,0.04017 l -0.81766,-0.916682 -0.56544,-0.541459 m 9.74276,-0.472651 c -0.10108,0.303648 -0.41376,1.388459 -0.14799,1.618644 0.24233,0.209318 0.76215,-0.03066 1.07295,-0.06901 0.21582,-0.02661 0.54385,0.0046 0.70295,-0.133561 0.098,-0.08548 0.0881,-0.207021 0.103,-0.336056 0.0426,-0.360028 0.0697,-0.396761 0.24233,-0.674885 m -14.61414,0.60769 c 0.25467,0.823771 0.58334,1.649706 0.78005,2.498324 0.64275,1.96099 0.63314,1.561474 -0.46075,0.267049 -0.14059,-0.167323 -0.60492,-0.90824 -0.73564,-1.058544 -0.19918,-0.22924 -0.33545,-0.23303 -0.81701,-1.166647 -0.24414,-0.509721 -0.25216,-0.111609 -0.0647,0.270095 0.29784,0.606551 0.28242,1.226947 0.36469,1.59028 0.0823,0.363332 0.28763,1.073731 0.43995,1.7183 m 14.76218,-3.715606 0.003,1.543199 m -9.435,-0.580536 -0.23758,1.13241 -0.77573,2.970978 m -23.74059,-3.038502 c 0.17452,0.677515 0.24728,0.951387 0.43164,1.2154 0.0882,-0.113981 0.20288,-0.259557 0.2744,-0.607698 0.0327,-0.160976 0.0728,-0.32951 0.12395,-0.472659 0.0876,-0.244093 0.28427,-0.909251 0.64931,-0.736938 0.43349,0.204865 0.52661,0.914724 0.62528,1.344636 0.21414,1.201458 0.37911,2.359466 0.79375,3.241062 m 0.51607,-1.239348 c 3.07319,-2.121837 -1.72235,-1.458981 -0.33109,0.552725 0.18068,0.175557 0.5297,0.444361 0.80162,0.5445 0.34594,0.127416 0.56484,0.109525 0.86329,0.0746 m 8.81769,-4.38894 0.30832,1.417968 c 0.46002,-0.280418 0.88795,-0.848418 1.54159,-1.350443 m -1.54163,1.350445 c -0.14822,0.139328 -0.26866,0.186317 -0.32398,0.316282 -0.13012,0.138423 -0.10581,0.295744 -0.17858,0.565358 -0.11963,0.443824 0.39649,0.510196 0.56421,0.567926 0.13259,0.04545 0.25653,0.06813 0.36998,0.09163 0.26084,0.05394 0.69063,0.145979 0.98662,0.146859 m -14.86076,-1.417964 c 0.14244,0.840246 0.14553,2.077792 0.30832,3.0385 m 15.1771,-2.336892 c 0.31802,0.47659 0.39704,0.620469 0.46802,1.118855 0.16747,0.721095 -0.12496,1.000717 -0.21343,1.416467 m -4.8256,-2.966843 c 0.0944,0.232155 0.0714,0.35872 0.13935,0.607702 0.71902,1.882034 0.44503,0.834651 0.54933,-0.33762 0.0573,-0.58123 0.27563,-1.022622 0.85281,-0.877786 m -5.42627,0.675228 c 0.51797,0.26293 0.7492,1.3127 0.18128,1.788391 -0.37736,0.316207 -0.63142,0.05395 -0.9829,-0.05192 -0.25036,-0.07542 -0.46803,0.17245 -0.73995,0.05091 -0.44832,-0.200677 -0.55992,-0.766918 -0.61665,-1.247203 m 8.5711,-1.147883 c 0.0401,0.348006 0.0573,1.206349 0.0617,1.449566 m -3.63805,-0.03159 c 0.013,0.124851 0.0593,0.310469 -0.007,0.461243 -0.0851,0.193857 -0.28057,0.327146 -0.42424,0.416882 -0.22137,0.138222 -0.61601,0.151795 -0.85711,-0.04011 -0.6857,-0.547064 -0.14924,-1.810743 0.54879,-1.445719 m 4.37791,0.639296 c -0.0245,0.105563 -0.0156,0.225631 -0.0615,0.508584 m -7.27627,-0.270088 0.0615,0.656117 m 3.63081,-0.464961 c 0.23432,0.224104 0.36134,0.384203 0.73995,0.675221 M 18.540688,4.7307688 c 0.174321,0.034434 0.31226,0.093918 0.43164,0.094668"
       id="path44357"
       sodipodi:nodetypes="cccccccscccscccccccccccccccccccscccccccccccccccccccccccccccccccsccccsccccccccccccccccccccccccsccsccccccccccccccccccccccccccccccccccccscccccccccccccsscccccccccccccccccccccccccccccccccccccccccsccsccccccccccccccccccsccccccccccccccccsccccccccccssccccccccccccccccccccccccccccccccccccccccccccccsccccccccccccccccccccscccsccsccsccccccccsccscccccccccccccsccsccccccccccccccccccccccccccccccsccccscccccccccccccccccscccccsccccscsccccccccccccccccscsccccccssscsccccccccccccscccccccccccccccccccccccccccccccccccccccccccccccscccccccccccccccccccc" /><path
       style="fill:none;stroke:#010101;stroke-width:0.049021"
       d="m 35.484855,10.710995 c 0.06695,0.824916 0.24072,1.61918 0.37175,2.435066 l 0.07182,0.438057 0.373016,1.355085 0.05856,0.340572 m -0.322869,-1.807653 c 0.248185,-0.302602 0.904481,0.118362 1.012738,-0.191616 0.03517,-0.116009 -0.01663,-0.179717 -0.02089,-0.244351 0.01835,-0.57241 -0.208833,-1.228485 -0.132761,-1.612984 m 2.944451,0.007 c 0.05198,0.46308 0.0898,0.607069 0.102766,1.012969 0.744467,5.519418 -0.299873,1.273517 0.241465,-1.337876 0.220397,-0.267397 0.42685,-0.676222 0.782921,-0.678746 0.217017,0.0038 0.466978,0.233948 0.585843,0.411392 0.07518,0.112219 0.08278,0.210461 0.09121,0.338878 0.03576,0.542573 -0.08381,0.847514 -0.526936,1.19724 -0.111429,0.08796 -0.261756,0.1689 -0.38106,0.224299 -0.850682,0.370104 -0.952872,-0.03641 -0.08374,0.593389 0.480171,0.463201 1.32203,1.451979 1.546102,1.628538 M 20.20373,13.038827 c 0.04456,0.647369 0.220235,1.452348 0.218145,2.128832 0.09131,2.994852 -0.211823,-1.808869 -0.05784,-2.44508 0.0352,-0.140845 0.06152,-0.195607 0.129088,-0.350305 0.130272,-0.298174 0.40562,-0.701854 0.702718,-0.805486 0.08433,-0.02941 0.146533,-0.04528 0.244352,-0.02089 0.06581,0.01643 0.160417,0.06577 0.247995,0.122279 0.219349,0.107845 0.209249,0.29089 0.206069,0.494653 -0.04683,2.608267 -3.900426,0.980599 0.915286,4.016201 M 1.697395,13.249116 c -0.1816195,-0.182961 -0.250834,-0.547484 0.1189298,-0.546127 0.2120329,7.76e-4 0.2512551,0.02219 0.3941819,0.02864 0.1096026,0.0049 0.4686294,0.08017 0.5946585,0.108229 0.2026603,0.04513 0.5226337,0.182794 0.7006111,0.258178 0.1568083,0.06642 0.3853554,0.170075 0.5516303,0.225001 0.1276082,0.04216 0.1813202,0.07122 0.3009265,0.123468 0.1917897,0.08378 0.309182,0.148319 0.4562585,0.279036 0.094981,0.08441 0.2227325,0.167863 0.2844916,0.279764 0.1564707,0.283508 -0.1005941,0.510495 -0.3290702,0.753375 -0.1125629,0.119663 -0.3526477,0.346191 -0.4211271,0.398182 -0.3649303,0.102744 0.5994119,0.487333 0.9767057,0.84926 0.295624,0.439946 0.1877189,0.432493 -0.060784,0.878522 -0.4206856,0.337455 -0.8728715,0.47258 -1.3831821,0.619909 M 18.139882,14.163275 c -0.307459,0.07329 -0.606443,0.05164 -0.731367,0.09521 -0.81389,0.310499 -1.079198,0.521654 -1.573335,1.055177 -0.257356,0.816175 0.220389,1.284454 0.423665,1.385199 0.08582,0.04203 0.201011,0.0577 0.297117,0.05002 0.106425,-0.0084 0.149187,-0.02816 0.241813,-0.06983 0.122319,-0.05499 0.236166,-0.105807 0.332953,-0.205423 0.166361,-0.171157 0.17904,-0.205881 0.336132,-0.45922 0.359489,-1.069645 -0.557483,-1.644897 -1.143826,-1.86324 -0.134437,-0.04801 -0.297984,-0.07428 -0.44991,-0.156643 -0.185058,-0.10032 -0.326162,-0.230488 -0.317011,-0.43352 0.0045,-0.09937 0.041,-0.175753 0.07704,-0.249432 0.05339,-0.109039 0.08673,-0.159197 0.142343,-0.252819 0.06682,-0.112449 0.135067,-0.259668 0.226999,-0.355385 0.205568,-0.214002 0.399909,-0.09185 0.497172,0.121469 m -4.709864,0.04798 c 0.05327,0.223576 -8.96e-4,0.297759 0.01164,0.539353 0.0087,0.16755 0.02587,0.183712 0.03408,0.341842 0.01732,0.333884 0.01535,0.548526 0.04063,0.783284 0.0079,0.07304 0.03638,0.123103 0.05093,0.193706 0.02354,0.113976 2.47e-4,0.168836 0.06419,0.291192 0.08812,0.168608 0.169877,0.224007 0.366525,0.283705 0.128918,0.03911 0.188702,0.03336 0.346495,0.05565 0.163675,0.02307 0.198233,0.0061 0.343533,-0.0015 0.202969,-0.01053 0.489608,-0.07448 0.682834,-0.08451 l 0.293732,-0.01524 c 0.19401,-0.01007 0.298497,0.02835 0.420486,-0.09544 0.253565,-0.440569 0.08339,-1.553756 0.142534,-1.973577 m -7.1013047,0.93559 c 0.6039144,0.08527 1.2170228,-0.157191 1.801187,-0.289786 l 0.7731247,-0.236455 0.43552,-0.120765 0.733482,-0.05441 0.196668,0.0062 m -4.5117752,3.866492 c 0.064393,0.07927 0.170891,0.157442 0.3248476,0.269473 0.1111584,0.08092 0.3454012,0.114028 0.5277092,0.079 0.3368629,-0.06475 0.5105686,-0.383889 0.6141189,-0.620902 0.058006,-0.132845 0.082735,-0.205893 0.1127372,-0.349458 0.027459,-0.131211 0.045039,-0.16506 0.041896,-0.296696 -0.0037,-0.156248 -0.043221,-0.258704 -0.07745,-0.388677 -0.029836,-0.113415 -0.07361,-0.20598 -0.1539282,-0.286538 -0.092583,-0.0929 -0.1401557,-0.09966 -0.2553558,-0.191315 C 7.7181358,15.249907 7.774628,15.172182 7.4389923,15.111089 7.3263539,15.090587 7.1748101,15.008025 7.0401555,14.992702 c -0.068244,-0.0078 -0.4498582,0.01372 -0.4903993,0.0091 -0.088631,-0.01008 -0.156803,0.01194 -0.2253779,-0.08648 -0.046509,-0.06672 -0.00685,-0.193794 0.00402,-0.237462 0.00679,-0.02733 0.3230507,-0.599735 0.3668025,-0.657159 0.044626,-0.05857 0.1182636,-0.175756 0.1921451,-0.239042 0.1245924,-0.106743 0.2138719,-0.07571 0.3826209,-0.03621 m 23.9378652,1.572503 -0.635571,0.04936 -0.956395,-0.457651 c -0.350529,-0.302666 -0.456632,-0.149214 -0.574906,-0.67374 -0.0042,-0.113033 -0.0023,-0.284502 0.08577,-0.397145 0.358037,-0.231875 0.652594,-0.269803 1.105097,-0.302763 0.142468,-0.0054 0.246958,-0.04543 0.293176,0.132052 0.03837,0.147283 -0.08826,0.297161 -0.129511,0.342145 -0.143096,0.155995 -0.409205,0.107554 -0.666616,0.239112 m -1.091551,-1.170549 c -0.187132,-0.07592 -0.348573,-0.01115 -0.487437,0.06619 -0.116773,0.06446 -0.764967,0.393733 -0.757465,0.538347 0.0074,0.141691 0.08875,0.170327 0.208518,0.234618 0.07624,0.04092 0.18725,0.10377 0.251972,0.126007 0.254039,0.08731 0.49459,0.206067 0.70569,0.356073 0.313175,0.157166 0.545735,0.376288 0.519898,0.717533 -0.01302,0.130166 -0.0889,0.358627 -0.2129,0.469173 -0.14802,0.132016 -0.268306,0.26598 -0.47516,0.302825 -0.261477,0.04655 -0.30818,0.06507 -0.535969,0.07689 m 11.238815,-3.037376 -0.781169,0.08143 c -0.432788,0.03686 -0.845061,0.157723 -1.262257,0.270012 0.03677,0.552455 0.11035,1.136961 0.181716,1.610445 m -4.789139,-1.322342 c 0.26357,0.07042 0.223354,0.395688 0.177342,0.579844 -0.02613,0.104636 -0.02447,0.12919 -0.05257,0.248162 -0.04444,0.18805 -0.140882,0.347237 -0.243857,0.503521 -0.09893,0.150086 -0.200634,0.293983 -0.382888,0.347125 -0.133075,0.03876 -0.170297,0.01014 -0.297542,-0.05819 -0.124263,-0.06674 -0.179865,-0.100527 -0.266072,-0.23983 -0.05974,-0.09655 -0.108937,-0.140285 -0.159564,-0.237158 -0.06922,-0.132478 -0.05171,-0.208539 -0.0611,-0.389527 m 3.864225,0.683106 c -0.161331,0.01267 -0.226191,0.0436 -0.339302,0.08304 -0.136782,0.04774 -0.187569,0.04527 -0.389949,0.05297 -0.23378,0.0089 -0.478269,-0.006 -0.745333,-0.174029 -0.212212,-0.133602 -0.412774,-0.387041 -0.426351,-0.648755 -0.0085,-0.164098 0.07263,-0.320133 0.181565,-0.44302 0.118574,-0.133762 0.168477,-0.241073 0.368228,-0.313623 0.351469,-0.127658 0.52053,-0.105759 0.68622,-0.01924 0.07876,0.04113 0.09545,0.114793 0.117514,0.214797 0.03222,0.146128 0.0218,0.219612 -0.06129,0.395875 -0.0956,0.202878 -0.205174,0.278413 -0.454917,0.219947 m -7.509613,0.01324 c 0.215492,0.196717 0.490812,0.168867 0.637472,0.302392 0.1197,0.112139 0.156115,0.190557 0.229475,0.323508 0.05358,0.09706 0.04772,0.12407 0.0127,0.244775 -0.02798,0.09648 -0.05532,0.18837 -0.181006,0.295715 -0.110883,0.0947 -0.217997,0.155183 -0.383599,0.175358 -0.210873,0.02567 -0.540216,-0.1696 -0.700187,-0.250001 -0.147928,-0.07435 -0.318831,-0.152517 -0.401667,-0.33097 -0.06576,-0.141542 -0.06198,-0.160491 -0.07237,-0.290768 -0.0106,-0.132917 -0.01978,-0.188106 0.05565,-0.346496 0.05348,-0.112238 0.06616,-0.206578 0.165553,-0.278566 0.162696,-0.117865 0.563978,0.108186 0.637977,0.155054 z m -3.085028,0.143698 c 0.269127,-0.26795 1.03082,-0.08554 1.27482,0.130216 0.190015,0.17412 0.305629,0.483752 0.130423,0.778626 -0.112011,0.188414 -0.533716,0.566024 -0.785888,0.621615 -0.229021,0.05051 -0.523885,0.01837 -0.686932,-0.152515 -0.05523,-0.05786 -0.05972,-0.112061 -0.06729,-0.192858 -0.166212,-0.873652 0.446625,-1.147373 0.843102,-0.780041 m -9.202893,1.279148 c -0.4871,-0.0621 -0.451412,-0.680757 -0.422612,-1.049794 l 0.315245,-0.07364 m 29.97396,-0.47939 c -0.128445,-0.37062 -0.56268,-0.30296 -0.788848,-2.29712 -0.486325,-6.0628228 0.543042,1.094545 -0.158723,2.137954 l -0.145727,0.187562 -0.237158,0.159564 -0.386563,0.118225 c -0.861403,0.105789 -0.86001,-0.678353 -0.562918,-1.230714 0.06232,-0.114954 0.167299,-0.244886 0.286246,-0.317554 0.143312,-0.08751 0.330543,-0.110914 0.486592,-0.08251 0.222401,0.04047 0.356548,0.09238 0.495477,0.08883 M 24.15942,19.478544 c 0.465707,0.59541 -0.0568,4.033702 0.103288,1.734326 0.0359,-0.658331 0.407453,-2.982526 1.013953,-2.895574 1.416521,0.512704 1.362929,3.540549 1.462451,0.750417 0.414022,-1.652562 0.777014,-0.161443 0.816296,0.595784 0.02925,0.563769 0.126334,1.489079 0.155618,2.053582 M 44.837321,17.83431 c 0.460651,-0.141429 0.900538,-0.328349 1.35551,-0.364841 0.271064,-0.0038 0.428271,0.03363 0.311508,0.327449 -0.106968,0.206333 -0.242723,0.341951 -0.339228,0.557555 -0.147446,0.476939 0.350425,0.441956 0.63733,0.457808 0.22856,0.01347 0.504547,0.064 0.752106,0.304593 0.257517,0.332574 0.137637,0.780457 -0.0558,1.131896 -0.366312,0.505637 -0.902628,1.098893 -1.543351,1.159977 M 39.5991,18.106048 c 0.0902,-0.06373 0.292495,-0.18575 0.381907,-0.207962 0.100462,-0.025 0.131169,-0.01502 0.244352,-0.02089 0.133796,-0.0069 0.27257,-0.02195 0.394181,0.02864 0.129186,0.05372 0.189441,0.151669 0.211061,0.283573 0.01346,0.08196 0.01329,0.157715 0.0045,0.245201 -0.01096,0.109444 -0.0082,0.14602 -0.03626,0.247317 -0.03522,0.127391 -0.08756,0.162799 -0.180582,0.30389 -0.100885,0.153083 -0.151999,0.341087 -0.268336,0.504789 -0.138112,0.194383 -0.269157,0.412305 -0.358627,0.656736 -0.03083,0.08426 -0.03175,0.08916 -0.03063,0.197937 9.47e-4,0.09739 -0.01452,0.231904 0.115262,0.329432 0.180613,0.135732 0.978011,0.071 1.178736,0.01248 0.346951,-0.101151 0.413304,-0.06071 0.775244,-0.195627 m -7.52981,-2.268279 c -0.471766,1.492547 0.222687,1.68223 1.704404,1.629628 0.182457,-0.0095 0.240843,0.06005 0.380083,-0.08516 0.112554,-0.117365 0.05026,-0.277298 0.02948,-0.37788 -0.06086,-0.295193 -0.06737,-0.778313 0.05021,-1.082519 m -8.175532,0.424115 c 0.420348,0.07234 0.851888,0.0049 1.275377,-0.01708 l 0.391641,-0.02032 c 0.0082,0.158664 0.04009,0.322532 0.07943,0.584924 0.04699,0.313682 0.204823,1.367934 0.230671,1.607905 0.012,0.111688 0.01853,0.153073 0.06165,0.242236 0.300576,-0.144616 0.597587,-0.172209 0.922532,-0.195118 m -1.29429,-2.239947 0.391643,-0.02032 M 2.8642368,20.523175 c 0.1952819,-0.01524 0.249934,-0.03883 0.4870132,-0.07435 0.1080483,-0.01621 0.123429,-0.04219 0.2422363,-0.06165 0.3146578,-0.05157 0.4793864,-0.07395 0.6828348,-0.08451 0.1008375,-0.0052 0.5172709,-0.03837 0.6364183,-0.03301 0.2689842,0.01216 0.4193263,0.0477 0.5976215,0.165346 m 6.2458581,-0.639158 c 0.227317,0.966531 0.330243,2.216515 0.561796,3.259686 m 1.596612,-2.340828 c -0.217943,-0.05104 -0.327398,0.004 -0.636418,0.03301 -0.123685,0.01162 -0.166734,-0.0063 -0.291193,0.06419 -0.197513,0.111904 -0.316746,0.180971 -0.621181,0.326745 -0.494145,0.287443 -0.36639,0.571305 -0.232224,1.042875 0.09413,0.345202 0.124468,0.382906 0.455702,0.42634 l 0.551629,0.224967 0.303468,0.172457 0.749143,0.247462 m 23.265453,-4.765729 c 0.07147,-0.03316 0.222847,-0.03708 0.292462,-0.03971 0.18102,-0.0069 0.51928,0.07167 0.640434,0.359472 0.07161,0.1702 0.04595,0.167506 0.08867,0.289922 m 3.831354,-0.738712 c 0.544117,0.156383 1.299504,0.07381 1.634146,0.275182 0.706227,0.7454 0.384212,1.402515 -0.35425,1.687335 -0.66763,0.12827 -1.276041,0.0181 -1.189951,-0.54366 0.03452,-0.223026 0.143811,-0.355095 0.355023,-0.411113 M 4.3016122,20.869776 c 0.1018835,0.06653 0.22179,0.200501 0.4111135,0.355023 0.098787,0.08058 0.150565,0.141561 0.2420035,0.249227 0.1583602,0.186415 0.2852632,0.342604 0.4384337,0.566299 0.064334,0.09395 0.1008469,0.137269 0.1432476,0.238005 0.063797,0.151559 0.1983181,0.367731 0.2589151,0.575612 0.038984,0.133605 0.047929,0.292723 0.052973,0.389949 0.00472,0.09101 0.00977,0.196676 -0.033716,0.296271 -0.1319573,0.302103 -0.2696036,0.534651 -0.5004138,0.762265 -0.1304727,0.1287 -0.3086003,0.18801 -0.4785486,0.237518 -0.1215989,0.03547 -0.1978476,0.04301 -0.3409931,0.05043 -0.1995367,0.01035 -0.3999233,0.04264 -0.5461267,-0.11893 M 38.973704,20.739464 c -0.174235,-0.239824 -0.184859,-0.269323 -0.280476,-0.511483 -0.620852,-1.988787 0.520201,-0.429674 -0.987184,-0.76383 -0.09368,-0.02592 -0.235817,-0.02846 -0.340015,-0.08873 -0.08426,-0.04874 -0.112357,-0.09269 -0.174646,-0.211832 -0.04638,-0.08875 -0.05971,-0.104354 -0.05348,-0.242661 0.0091,-0.201188 0.135699,-0.347801 0.321101,-0.433896 m -0.874412,1.280734 c -0.02676,0.146392 0.01832,0.353115 0.03555,0.685374 0.0099,0.190485 0.07259,0.292376 0.174801,0.530889 m -17.539732,0.203566 c 0.42456,0.904786 -0.241163,2.324696 0.2467,0.464459 0.08448,-0.278189 0.203357,-0.646471 0.565587,-0.610186 0.441331,0.100448 0.586364,0.654299 0.667946,0.889805 0.165205,0.47366 0.267709,0.890197 0.468894,1.153764 m -3.873607,-1.388816 c 1.507253,-0.356695 1.36386,0.894252 0.873792,1.282654 -0.199265,0.145327 -0.248349,0.127403 -0.434673,0.137068 -0.189457,0.0098 -0.222916,0.01397 -0.344802,-0.023 -0.106478,-0.03233 -0.237425,-0.05567 -0.351154,-0.145441 -0.09458,-0.07461 -0.166714,-0.175329 -0.21881,-0.274973 -0.05816,-0.160272 -0.08742,-0.328685 -0.04987,-0.488283 0.182242,-0.441457 0.572749,-0.59277 0.919629,-0.882185 m 12.802722,-0.173285 c -0.273846,0.230883 -1.201498,0.523603 -1.401925,0.416334 m -17.524151,1.890825 -0.584924,0.07943 -0.449062,-0.140312 -0.354538,-0.210696 -0.16774,-0.236734 -0.1075157,-0.338031 0.08521,-0.249856 m 5.409773,1.142886 c 0.187059,-0.0097 0.334987,-0.02901 0.483628,-0.139609 0.195098,-0.145209 0.452332,-0.424948 0.332456,-0.688119 -0.301631,-0.766191 -1.660727,-0.604193 -1.739192,-1.038779 -0.02414,-0.797517 1.056398,-0.491378 0.952575,0.18616 m 6.704207,-0.04341 c 0.216027,0.02831 0.215806,0.112013 0.514949,0.464156 0.10299,0.121253 0.462776,0.589189 0.481231,0.760428 0.01104,0.102707 -0.0014,0.14061 0.0127,0.244776 0.01731,0.127366 0.04903,0.176722 0.007,0.294157 -0.04693,0.131435 -0.10911,0.257575 -0.178044,0.352845 -0.147712,0.204207 -0.377341,0.394404 -0.602847,0.522143 M 7.2654912,23.469665 C 7.1664752,23.255341 7.0096531,23.024806 6.771681,23.065101 c -0.3441175,0.06684 -0.1632782,0.568406 -0.00395,0.711966 2.0656274,0.720868 0.2090939,-1.152846 0.8689526,-0.278811 0.4313167,0.336647 0.7108658,0.205054 0.983596,0.190906 0.108632,-0.0056 0.3172744,-4.57e-4 0.4401728,-0.03104 0.4023765,-0.1001 0.4777387,-0.24651 0.6241442,-0.269617"
       id="path237897"
       sodipodi:nodetypes="cccccccccccccsccccccccccscccccccccccccccccccccccccccccccccsscccccssscccccccccccccscccsccccscccccccccccccscccccccccccccccccsccccccsssscccccccscscccccccccccccccccccccccccccccccccccccccccscssccccccscccccccccccccccccccccsccccccscccccccccccccscccccscsccccccccsccccsccccccccscccccccccccccccccccccscccccccc" /></g></svg>
