<?xml version="1.0" encoding="UTF-8" standalone="no"?>
<!-- Created with Inkscape (http://www.inkscape.org/) -->

<svg
   width="210mm"
   height="297mm"
   viewBox="0 0 210 297"
   version="1.1"
   id="svg5"
   inkscape:version="1.2 (dc2aedaf03, 2022-05-15)"
   sodipodi:docname="Casey - Pulsz - Envelope 01.svg"
   xml:space="preserve"
   xmlns:inkscape="http://www.inkscape.org/namespaces/inkscape"
   xmlns:sodipodi="http://sodipodi.sourceforge.net/DTD/sodipodi-0.dtd"
   xmlns="http://www.w3.org/2000/svg"
   xmlns:svg="http://www.w3.org/2000/svg"><sodipodi:namedview
     id="namedview7"
     pagecolor="#ffffff"
     bordercolor="#666666"
     borderopacity="1.0"
     inkscape:pageshadow="2"
     inkscape:pageopacity="0.0"
     inkscape:pagecheckerboard="0"
     inkscape:document-units="mm"
     showgrid="false"
     inkscape:zoom="1.7817059"
     inkscape:cx="323.84693"
     inkscape:cy="149.01449"
     inkscape:window-width="1920"
     inkscape:window-height="991"
     inkscape:window-x="-9"
     inkscape:window-y="-9"
     inkscape:window-maximized="1"
     inkscape:current-layer="layer1"
     inkscape:showpageshadow="2"
     inkscape:deskcolor="#d1d1d1" /><defs
     id="defs2"><inkscape:perspective
       sodipodi:type="inkscape:persp3d"
       inkscape:vp_x="0 : 148.5 : 1"
       inkscape:vp_y="0 : 1000 : 0"
       inkscape:vp_z="210 : 148.5 : 1"
       inkscape:persp3d-origin="105 : 99 : 1"
       id="perspective27557" /><pattern
       id="EMFhbasepattern"
       patternUnits="userSpaceOnUse"
       width="6"
       height="6"
       x="0"
       y="0" /></defs><g
     inkscape:label="Layer 1"
     inkscape:groupmode="layer"
     id="layer1"><path
       id="path40110"
       style="fill:#000000;fill-opacity:0;stroke:#433d35;stroke-width:0.0708192"
       d="m 30.653436,1.340417 c -0.287293,0.5053412 -0.579582,1.0669459 -0.726559,1.7706937 -0.06573,0.3146773 -0.09267,0.5430127 -0.135083,0.843188 -0.03496,0.2476452 -0.03134,0.5029611 -0.03052,0.7588686 0.0014,0.4582721 -0.0098,1.0626687 0.2613,1.3708545 0.472336,0.5368563 1.419452,-0.07361 1.939433,-0.27471 M 35.233464,2.520881 c 0.01399,-0.2419791 -0.008,-0.3761249 -0.05948,-0.4215945 m -12.907368,0.674551 0.153996,1.4427769 0.455039,-0.049884 0.89804,-0.126446 M 37.374781,7.579998 C 37.565716,7.4511542 37.729466,7.3587447 37.910108,7.1761962 38.290669,6.7916162 39.360314,5.4799546 38.9449,4.637695 38.672476,4.0854074 38.062082,4.2784119 37.864785,3.6901206 37.696276,3.18775 38.132212,3.0384218 38.385956,3.0267847 m -1.784427,0.4215944 c 0.04799,-0.047311 0.333627,-0.2672909 0.361584,-0.061218 0.02762,0.1330311 0.143384,0.2845399 0.114264,0.3141822 V 5.1347608 M 36.601531,3.4483791 c -0.431654,0.6173816 -0.551805,0.9976591 -0.713773,1.6863742 m -17.130514,-1.7706936 0.05598,1.0960603 0.06299,0.5902933 -0.59481,-0.084298 m 7.018749,2.276615 c 0.586184,0 1.950796,-0.2205785 1.714241,-1.5176529 C 26.917607,5.194374 25.43594,4.4183894 26.370803,4.2046421 26.4812,4.1794286 26.612476,4.1532884 26.72769,4.1229367 m 6.364462,0.1381149 c 0.642037,0.024025 0.648104,1.0678125 0,1.1950503 -0.181953,0.035752 -0.494226,0.049828 -0.645546,-0.046627 -0.175231,-0.111812 -0.298894,-0.5495904 -0.148943,-0.8457179 0.117536,-0.2320453 0.26041,-0.2482329 0.437604,-0.2697346 0.131154,-0.015854 0.242621,-0.037268 0.356885,-0.032963 M 2.6973845,9.0134344 c 0.3567075,0 0.6287735,-0.00449 0.9516953,-0.1454086 C 4.0296391,8.7014927 4.4018715,8.3341215 4.4934115,7.7486107 4.5258223,7.5416086 4.5113156,7.3642853 4.4576034,7.1584643 4.3778447,6.8526398 4.2406759,6.6389768 4.0651487,6.4142672 3.7155794,5.9667029 2.6625862,5.5188859 2.4818834,4.9515899 2.3531079,4.5475336 2.6405791,4.3538533 2.8758262,4.3075629 3.071222,4.2691249 3.3256208,4.2755269 3.5301165,4.3169229 3.8559528,4.3829329 4.0431397,4.4913785 4.3033701,4.628902 M 22.420615,4.2166144 c 10e-5,0.245223 -0.134906,1.038056 -0.03504,1.3397166 -0.04074,0.3109673 -0.05948,0.6194882 -0.05948,1.2647806 m 0.05948,-1.2647806 c 0.246416,0.2009168 0.640426,0.4324857 0.950299,0.5919957 M 24.111651,5.6626473 C 24.366647,5.6798494 25.143468,5.5585959 25.09398,4.8868302 25.056328,4.3757743 24.600822,4.5742605 24.407986,4.6689509 24.01577,4.8613658 23.964853,5.264241 23.932078,5.5564049 M 35.180445,3.328887 34.936054,4.9661734 M 15.664227,7.24278 c 0.337256,0 0.750649,0.030352 1.189619,-0.061564 C 17.03681,7.142937 17.221974,7.095795 17.388223,6.9589519 17.580286,6.8008542 17.662013,6.6321339 17.74606,6.4838998 17.437294,6.2314501 16.946338,6.1963729 16.496959,6.0134004 16.34683,5.9522664 16.214603,5.923019 16.099805,5.766095 15.926775,5.5296649 15.99887,5.2879225 16.148941,5.0971941 c 0.161015,-0.2047269 0.384544,-0.3564997 0.585947,-0.4573455 0.193611,-0.097044 0.349749,-0.086507 0.535328,-0.011025 m 1.605986,0.4215945 c 0.281556,0.3024075 0.473712,0.2045547 0.76901,0.3148916 m 1.669706,0.3596575 C 21.100869,5.0167269 20.715201,5.17013 20.300726,5.219055 c -0.02615,-0.021573 -0.235239,0.2442441 -0.175427,0.5059121 0.120984,0.2258056 0.300201,0.4708367 0.594809,0.4670416 0.317272,-0.00393 0.535329,0.00636 0.59481,-0.4670416 0.05222,0.1507751 0.08773,1.0426017 0.35689,1.2647816 M 18.876202,5.050418 18.93568,6.8211116 m -5.472248,1.0961427 c 0.0049,-0.6229465 0.141624,-1.4420188 0.373481,-2.0233114 0.148822,-0.3732787 0.465379,-0.7839108 0.782591,-0.3605475 0.23596,0.3150143 0.297643,1.2169732 0.119021,1.5892402 -0.112062,0.2334782 -0.236734,0.418052 -0.388232,0.5839908 -0.338625,0.3709222 -0.668863,0.3179662 -0.886861,0.2106279 L 13.34447,9.2663497 M 12.749657,8.0858979 C 12.413946,7.973165 12.043261,7.7186839 11.897532,7.3266016 11.717424,6.8420228 11.876353,6.5912591 12.283922,6.229699 12.44446,6.0872797 12.652347,6.0243834 12.809138,5.9779236 M 10.097583,7.0679257 C 9.7891735,6.9982 9.6620602,6.8322415 9.7873868,6.4996873 9.9064082,6.1840834 10.230996,6.1253977 10.347995,6.2463948 c 0.148523,0.1534611 0.02956,0.3411544 -0.04241,0.4907343 -0.07417,0.1543035 -0.180643,0.297055 -0.118308,0.4821342 0.158161,0.4697408 0.957703,0.5727786 1.253799,0.5293539 M 23.932078,5.5564049 c -0.03586,1.4500761 0.138853,1.3183806 1.01118,1.4333382 M 8.3480742,6.8211116 C 8.5387698,6.9067011 8.7581953,7.0160573 8.755103,7.3286269 8.7503298,7.8115201 8.3007271,8.135727 7.9911889,8.1611099 7.7487446,8.181045 7.6407268,8.0346359 7.3989367,8.1043373 7.1714222,8.1698701 7.0619762,8.6045094 6.7418499,8.7155661 6.4956592,8.8010339 6.3499305,8.7699241 6.1473385,8.645204 5.7117586,8.3770669 5.5565725,7.797794 5.5524685,7.1584063 M 7.3368977,7.9172739 C 7.1836153,7.3181896 7.3518349,7.1679339 7.5153413,6.9897683 M 172.35709,28.860903 c 0.0642,0.617208 0.12085,1.036478 0.16844,1.492725 m -3.81679,-4.476449 c 0.0636,0.44453 0.24386,0.792332 0.39495,1.264782 0.26171,0.818138 0.49667,1.763354 0.67332,2.61388 0.0666,0.318797 0.20997,0.743774 0.15942,1.094535 -0.21799,0.184599 -0.29682,0.189522 -0.40497,0.229905 -0.14156,0.0061 -0.29929,0.07029 -0.46584,0.02469 m -31.40594,-5.14343 c 0.32834,0.405905 0.41756,1.066299 0.65726,2.023654 0.1832,0.730274 0.35452,1.503144 0.48002,2.276602 0.19865,1.222203 0.38305,2.426858 0.49368,3.625701 0.0208,0.223699 0.0309,0.366028 0.0345,0.590241 0.003,0.222084 0.0131,0.362736 0.0345,0.590225 0.0172,0.18879 0.0226,0.314841 0.0249,0.505911 0.002,0.22758 0.005,0.371931 0.0249,0.590225 0.0226,0.239811 0.0339,0.426245 0.0345,0.674556 9.3e-4,0.336267 0,0.540398 0,0.843189 0,0.234073 -0.005,0.435335 0.002,0.674557 0.0196,0.629604 0.007,1.197483 0.0571,1.770692 m 8.01575,-12.761381 1.60599,0.361392 0.53533,0.0601 2.7956,0.168722 m -31.56966,12.676968 c 1.04509,0.54393 2.75932,0.385158 3.86626,-0.453212 0.62931,-0.476406 1.29251,-1.137811 0.86722,-2.244999 -0.28074,-0.731376 -0.92313,-1.20517 -1.40255,-1.658291 -1.13014,-1.068157 -2.34058,-1.945908 -3.44989,-3.034886 -0.65727,-0.645294 -1.537,-1.588305 -1.60064,-2.811187 -0.0322,-0.619397 0.0268,-1.304071 0.22127,-1.855007 0.15167,-0.429854 0.30396,-0.721351 0.60611,-1.019929 0.37354,-0.368972 0.74649,-0.530779 1.18962,-0.588459 0.78099,-0.101619 1.41327,0.338457 1.48702,1.524072 M 87.695661,27.479301 c 1.244945,1.625828 2.558887,3.169453 3.611099,5.059114 0.365213,0.654746 0.733393,1.460412 0.982029,2.192287 0.396744,1.170606 1.709127,4.272615 1.985709,5.432501 M 156.21774,27.479301 c 0.10824,0.519319 0.069,1.114437 0.18914,1.686362 0.2754,1.308631 0.55615,2.499547 0.78455,3.794347 0.12909,0.731391 0.24983,1.239234 0.27541,1.686376 -0.29741,-0.003 -0.61861,-0.15927 -1.13015,-0.252947 M 95.547156,28.490988 c -0.478225,0.558094 -0.475258,1.744373 -0.475838,2.951143 0,0.341839 -0.0066,0.535852 -0.03454,0.843188 -0.04343,0.473114 -0.02499,1.109046 -0.02499,1.602061 0,3.086903 -0.252801,6.142626 -0.612071,9.190739 -0.07019,0.595465 -0.132628,1.220435 -0.186163,1.770693 -0.02621,0.265525 -0.04343,0.498496 -0.06907,0.758872 -0.08264,0.851372 -0.216506,1.590253 -0.257546,2.445249 -0.01788,0.365681 -0.0056,0.53703 -0.0056,0.927503 M 150.20977,28.490988 c 0.20223,0.74495 0.25754,1.263 0.41398,2.023639 0.0695,0.335934 0.11062,0.596643 0.1719,0.927519 0.0577,0.312137 0.0958,0.53247 0.11777,0.843188 0.0446,0.636597 0.0946,1.304736 0.13918,1.939324 0.0315,0.449257 0.11303,0.897743 0.0898,1.349099 -0.028,0.524376 -0.18975,0.923456 -0.13442,1.336278 0.0404,0.30347 0.31762,0.184834 0.51034,0.136198 0.57875,-0.146012 1.01594,-0.291905 1.42755,-0.460627 m -52.2833,-7.925923 c 0.0796,0.493271 0.18379,0.89572 0.26171,1.433414 0.14156,0.981892 0.32179,1.986057 0.53235,2.951159 0.50321,2.308477 0.67512,4.900267 0.75007,7.335731 0.0108,0.341325 0.002,0.667551 0.002,1.01182 v 1.011835 c 0,0.431877 -0.0244,0.928606 0.007,1.349098 0.0209,0.274872 0.0684,0.412564 0.0518,0.674542 l -0.0594,-0.421595 m -0.29647,-13.912641 c 0.22959,0.476315 0.39436,1.04522 0.54663,1.60206 0.32475,1.187791 0.67451,2.379475 0.86365,3.625701 0.11897,0.781295 0.20462,1.493541 0.28076,2.276618 0.19272,1.983338 0.24506,4.415511 0.27183,6.23958 m 72.03142,-12.900776 c 0.207,0.990077 0.0399,2.501314 -0.1487,3.625716 -0.0642,0.383468 -0.15287,0.932894 -0.35271,1.245545 -0.29443,0.460551 -0.61384,0.0903 -0.79943,-0.318132 -0.14513,-0.320487 -0.21175,-0.598243 -0.31345,-0.927413 -0.13682,-0.444365 -0.27303,-1.010823 -0.17013,-1.517745 m -4.18507,-2.193827 c 0.31825,0.165255 0.4063,0.01776 1.01117,0.252947 m 8.94356,4.639076 c -0.46871,0.486613 -0.92731,0.991934 -1.54651,0.919501 -0.44848,-0.05239 -0.68998,-0.596219 -0.82679,-1.172448 -0.19866,-0.838553 -0.29145,-2.01766 -0.17249,-2.866844 0.0434,-0.308936 0.0429,-0.565446 0.16298,-0.838205 0.11539,-0.26258 0.24447,-0.34226 0.41934,-0.324806 1.55054,-0.04042 1.46574,1.205503 -0.1864,2.145638 m -7.80486,-2.754859 c 0.0113,0.363914 0.38833,1.549379 0.46749,2.025196 0.16417,0.982315 0.53057,2.660417 0.62454,3.457068 M 36.688624,38.333134 c 0.230665,-0.73417 0.220376,-0.874218 0.485007,-1.517745 0.135498,-0.32935 0.369317,-0.889815 0.609264,-0.667294 0.132046,0.122609 0.09296,0.450178 0.112358,0.667294 0.03503,0.391999 0.07209,0.525147 0.161432,0.758873 0.307339,-0.363673 0.595108,-1.392268 1.130376,-2.103335 0.156435,-0.207846 0.265642,-0.405151 0.456754,-0.346293 0.116345,0.03579 0.143764,0.258685 0.159589,0.426396 0.07043,0.747577 -0.0938,1.963196 -0.140733,2.613457 m 94.785039,-2.843609 c -0.10885,-0.244292 -0.034,-0.625926 -0.11645,-1.019057 m 33.09665,-0.595309 c 0.0205,-0.13668 0.37943,-0.545018 0.56755,-0.465956 M 22.809539,34.21544 c 0.205269,0.859299 0.21205,1.784191 0.240244,2.698196 0.03836,1.241182 0.0038,2.203339 -0.0618,3.372753 m -3.685498,-5.829628 c 0.550079,-0.31931 0.983041,0.758615 1.030804,1.360739 0.07626,0.961569 -0.552221,2.209228 -1.033184,2.487392 -0.118783,0.0687 -0.289196,0.186691 -0.43992,-0.01208 -0.118785,-0.156567 -0.09292,-0.640311 -0.1123,-0.873282 -0.05865,-0.703804 -0.123306,-1.512671 0.06769,-2.192287 0.09161,-0.325893 0.214489,-0.612406 0.486911,-0.770498 m 142.657504,1.36089 0.32479,0.852314 c 0.10008,-0.261579 -0.0286,-0.306267 0.26093,-0.69892 m 4.88653,-2.290574 c -0.11301,0.861066 -0.0839,1.516443 0.18859,2.314605 0.0654,0.192172 0.12788,0.379436 0.2629,0.491505 0.24745,0.205308 0.66382,0.217191 0.94396,0.167786 0.33013,-0.05828 0.54604,-0.276654 0.83274,-0.490312 m 3.00349,-4.266859 c 0,0.855676 0.26734,3.431688 0.56537,4.182543 m -6.74752,-0.287892 c -0.14751,0.475967 -0.74233,1.750368 -1.40137,1.601456 -0.38425,-0.08697 -0.47169,-0.741584 -0.47585,-1.144877 -0.007,-0.707519 0.0125,-1.786366 0.5948,-2.164201 0.26053,-0.169145 0.46099,0.06372 0.62873,0.305313 0.0886,0.127288 0.20044,0.285502 0.29739,0.439804 0.2177,0.346383 0.15764,0.448501 0.3563,0.962505 0.0969,0.250591 0.28372,0.317875 0.44253,0.456579 0.16728,0.146302 0.30795,0.233172 0.43288,0.266751 m -13.87557,-1.447202 c 0.0214,0.698323 0.0434,1.425577 0.23792,1.939324 0.0642,-0.104338 0.19867,-0.234073 0.26112,-0.590392 0.0684,-0.3883 0.0923,-0.97457 0.24566,-1.348932 0.12789,-0.312486 0.2873,-0.902892 0.62098,-0.670601 0.25993,0.181044 0.39318,0.794296 0.47645,1.176511 0.22365,1.021182 0.28551,2.111081 0.65607,3.035474 m 5.35329,-0.252963 c -0.67274,0.275642 -1.79454,0.322602 -2.11812,-1.180466 -0.16535,-0.766618 -0.005,-1.555508 0.35927,-2.093294 0.15048,-0.22293 0.27956,-0.395456 0.50974,-0.484664 0.21949,-0.08516 0.49369,-0.126686 0.71378,-0.03941 0.22246,0.08833 0.37711,0.268892 0.39674,0.594106 0.0262,0.450691 -0.28016,0.875652 -0.51569,1.135531 -0.35571,0.391998 -1.00703,0.488621 -1.3086,0.466198 m -131.921159,-1.27407 0.59481,-0.08395 0.497083,0.156234 -0.01524,0.602215 -0.776881,1.334768 -0.362595,0.845031 0.301032,0.263834 1.129841,0.08592 m 4.421611,1.419498 c -0.444085,0 -0.919635,0.102828 -1.303227,-0.307683 C 30.90785,38.69632 31.83052,36.787753 32.7034,36.7311 m 124.76344,-2.084753 c 0.20817,0.410119 0.17605,0.706839 0.26706,1.180467 0.21533,1.117969 0.4467,2.150793 0.4467,3.204106 m -0.71376,-4.384534 0.53532,0.08559 0.71378,0.08304 m -124.466034,2.11258 c 0.470552,-0.117173 1.284669,0.123665 1.408567,0.816628 0.125623,0.702626 -0.26814,1.55948 -0.694797,1.89102 -0.20854,0.162064 -0.481797,0.26619 -0.713476,0.178748 -0.407442,-0.153622 -0.49036,-0.810301 -0.397747,-1.310473 0.06139,-0.331631 0.172077,-0.366028 0.100047,-0.718398 -0.11944,-0.604321 0.06043,-0.798501 0.297406,-0.857525 z m -10.36971,2.262705 c 0.297168,0 0.566318,0.02733 0.832733,-0.0921 0.242505,-0.108867 0.988158,-0.35499 0.824585,-0.800789 -0.118664,-0.323356 -0.5706,-0.512735 -0.824347,-0.690985 -0.202532,-0.142388 -0.344751,-0.302957 -0.380499,-0.608451 -0.02885,-0.246877 0.02902,-0.465519 0.109147,-0.67285 0.09707,-0.251196 0.261657,-0.486356 0.503447,-0.371086 0.179098,0.08531 0.240601,0.268968 0.302996,0.369485 m 108.188272,4.815442 c -0.54128,0.06689 -1.2259,0.398914 -1.96287,0.02536 -0.24327,-0.123363 -0.46217,-0.287103 -0.59838,-0.616786 -0.33488,-0.810045 -0.025,-2.394227 0.25279,-3.118522 0.0904,-0.236353 0.19034,-0.482989 0.35094,-0.618733 0.27896,-0.235583 0.38186,0.187777 0.41101,0.450086 m 21.82951,-0.252947 -0.0594,1.264783 m 8.62469,-1.602261 -0.21177,1.285944 m -141.285833,0.0539 c -0.0019,0.328249 -0.03801,0.593608 -0.05413,0.927505 -0.01044,0.215349 -0.01071,0.465775 -0.0043,0.674133 0.0046,0.146617 -0.0051,0.259954 0.06001,0.363582 0.146026,0.232382 0.519447,-0.04801 0.667792,-0.287949 0.148049,-0.239644 0.189151,-0.474049 0.402032,-0.515195 0.22924,-0.04424 0.421721,0.425731 0.475016,0.524301 M 148.5447,37.59748 c 0.80477,0.08924 1.86073,-0.269761 2.57034,-0.499773 m -137.287127,0.99633 c 0.414345,0.08154 0.679214,0.171923 1.004991,0.674889 0.21437,0.330952 0.359681,0.718225 0.473468,1.18012 0.0963,0.391062 0.138115,0.942769 -0.119141,1.213941 -0.387042,0.407839 -0.807394,0.06991 -1.061913,-0.130007 -0.07626,-0.05994 -0.24863,-0.245291 -0.416367,-0.222612 -0.284735,0.0385 -0.329464,0.335603 -0.594809,0.486945 -0.325064,0.185332 -0.785326,-0.234646 -0.939917,-0.677078 -0.16625,-0.475726 -0.189984,-1.053133 -0.190221,-1.598769 m 17.844285,-0.758867 h 0.05948 m -11.02758,0.03021 c -0.05103,0.622636 -0.146646,0.980748 -0.214313,1.740481 M 137.05238,38.94611 c -0.21533,0.351094 -0.48239,0.666947 -0.76076,0.850677 -0.17369,0.114908 -0.3783,0.244613 -0.59243,0.155827 -0.20521,-0.08516 -0.27124,-0.311971 -0.31882,-0.584668 -0.0422,-0.246289 -0.047,-0.429598 -0.038,-0.674467 0.0172,-0.452533 0.18974,-0.900687 0.53296,-1.039813 0.27063,-0.109473 0.55555,0.116719 1.18957,0.196633 0.33716,0.53222 0.2587,0.654647 -0.0125,1.095811 z m -8.8501,-1.052257 c 0.18498,-0.05345 0.35569,-0.04515 0.53532,0.02053 0.22306,0.08139 0.42649,0.211212 0.58589,0.450842 0.872,1.306864 -0.8702,2.557982 -1.59706,2.601499 -0.803,0.04801 -1.43527,-0.836529 -1.28895,-2.020363 0.37212,-1.809912 1.45904,-0.783918 1.7648,-1.052512 z m -106.284927,0.790292 -0.05877,0.487717 M 9.4858367,38.937172 c 0.4633569,-0.150844 0.8345173,0.194693 1.1197883,0.843188 0.112122,0.254895 0.242624,0.516117 0.23388,0.843188 -0.01012,0.378168 -0.0737,0.698323 -0.190994,1.008528 -0.159825,0.422606 -0.523373,0.729443 -0.8652693,0.753301 C 9.5447226,42.402139 9.0001155,42.091873 8.8621203,41.879648 8.7823616,41.75704 8.6985475,41.516233 8.5286105,41.496497 8.3609936,41.476871 8.2976461,41.594796 8.1177753,41.617898 7.9126852,41.644319 7.7008145,41.546328 7.5671012,41.282145 7.3554953,40.863916 7.4634494,40.450671 7.4634494,40.03329 m -3.5093762,0.421595 c 0.1359849,-0.171999 0.2667005,-0.293007 0.5187622,0.09558 0.1030659,0.158953 0.1632453,0.36097 0.1837194,0.578932 0.015265,0.162486 0.016332,0.347742 -0.014507,0.505502 C 4.595636,41.872413 4.5394942,41.954963 4.4234443,42.062472 4.3123034,42.165299 4.0144052,42.282713 3.8351062,42.301935 3.3761153,42.351155 2.9263966,42.064253 2.62139,41.640892 2.3549638,41.271074 2.1855387,40.88202 2.1731238,40.370538 2.1562212,39.673982 2.4450467,39.175908 2.7644485,39.02144 M 134.35611,36.603998 c -0.14632,0.556342 -0.37832,3.115726 -0.20582,3.944419 m 2.90209,-1.602307 0.44109,0.657183 M 5.6195438,39.527517 c 0.3671101,0.04575 0.7200823,0.314009 0.8161204,0.843188 0.083746,0.461487 0.020693,1.024729 -0.3428906,1.329876 -0.2264373,0.189967 -0.5510784,0.202953 -0.7706349,0.180274 -0.2681932,-0.02779 -0.4066226,-0.1137 -0.6542902,-0.161052 m 8.9816235,-1.01182 c -0.09962,-0.152868 -0.394775,-0.315611 -0.178441,-0.927504 0.278845,0.413924 0.224242,0.684251 0.237922,0.927504 m -5.2343233,-0.50591 0.1189614,1.180466 m 8.4462949,-1.09615 -0.05948,0.421594 M 113.09404,39.62112 c 1.02128,-0.177828 1.1575,1.61639 0.85118,2.698211 -0.12788,0.451521 -0.46693,0.998924 -0.79169,1.137115 -0.37236,0.158515 -0.77801,-0.0684 -1.07067,-0.36029 -0.13502,-0.134536 -0.251,-0.334243 -0.41636,-0.384072 -0.17725,-0.0536 -0.32774,0.10615 -0.47584,0.152778 -0.28909,0.09105 -0.72389,-0.170066 -0.95169,-0.469142 -0.21235,-0.27969 -0.44137,-0.736012 -0.50501,-1.088224 -0.12788,-0.711566 -0.14751,-0.806421 -0.14929,-1.602046 m -11.242495,2.30721 c -0.600764,0.625648 -1.5935,0.931293 -2.081252,1.149859 l -0.118955,-0.168646 c 0.186182,-0.690819 0.329517,-1.215543 0.72686,-1.855009 0.139779,-0.225044 0.249225,-0.360456 0.416361,-0.573872 0.19629,-0.250261 0.45742,-0.490826 0.700692,-0.571428 0.210562,-0.06976 0.383651,-0.069 0.594803,0.07263 0.777296,0.603365 0.356537,1.315531 -0.238509,1.946468 z m 7.317935,-1.570067 c 0.32894,-0.186268 0.97133,-0.05104 1.24791,0.191567 0.207,0.181542 0.4027,0.37918 0.56091,0.676656 0.38543,0.726318 0.20818,1.825835 -0.38247,2.119612 -0.23376,0.116115 -0.37354,0.02854 -0.59481,-0.01057 -0.16238,-0.02899 -0.26706,-0.05889 -0.41636,-0.155661 -0.32357,-0.209612 -0.62693,-0.639043 -0.74886,-1.113002 -0.11599,-0.44909 -0.0369,-0.717137 0.0214,-1.09606 0.0417,-0.269406 0.10765,-0.496381 0.31227,-0.612075 m 5.82799,1.20221 c 0.12016,0.340313 0.17012,0.521523 0.17845,0.92752 m -15.46505,0.505909 c -0.09757,0.259274 -0.118374,0.478596 -0.118973,0.843188 -5.62e-4,0.640825 0.03931,1.323128 0.475857,1.698335 0.194502,0.166957 0.377108,0.155164 0.594812,0.156583 0.870205,0.0061 1.373409,-0.483729 1.962868,-1.09606 m 24.744066,4.553219 c -0.18081,0.532214 -0.17843,1.282993 -0.17843,1.939324 0,1.443032 0.0594,2.650391 0.0594,4.047309 m -3.45767,-5.302051 c 0.55259,0 1.12241,0.1646 1.54652,0.252962 m -3.44213,-0.09436 c 0.23137,0.681881 0.14512,1.585859 0.12133,2.360918 -0.008,0.277757 -0.002,0.487459 -0.0279,0.758873 -0.0446,0.465443 -0.10289,0.841421 -0.18558,1.264782 -0.0619,0.317045 -0.1279,0.750522 -0.20522,1.096151 m 2.08183,-5.143446 c -0.21651,0.720671 -0.38483,1.191415 -0.67926,1.939324 -0.11243,0.285503 -0.30099,0.703307 -0.0256,0.876664 0.24031,0.151101 0.39972,0.03458 0.64537,0.05828 0.41934,0.04077 1.3294,0.137405 1.49952,0.839308 0.0833,0.342427 -0.0577,0.640144 -0.25637,0.905927 -0.5603,0.746883 -1.32285,0.54689 -1.83795,0.439547 m -6.12654,1.517745 c -0.26172,-0.635434 -0.58767,-1.377682 -0.87913,-1.938992 -0.11956,-0.230117 -0.31406,-0.397994 -0.39316,-0.689233 -0.12611,-0.46265 0.13382,-0.75093 0.26826,-1.081806 0.23137,-0.567048 0.39019,-1.374556 0.71793,-1.845828 m -9.91319,7.990912 c 0.47644,-0.01442 1.5257,0.06161 1.99083,-0.331386 0.47764,-0.403641 0.81905,-0.688796 1.2491,-1.203569 0.19926,-0.238452 0.51214,-0.677501 0.39555,-1.059549 -0.13859,-0.45145 -0.62931,-0.409773 -0.93088,-0.466546 -0.38603,-0.07277 -1.11051,0.06189 -1.36628,-0.505396 -0.12247,-0.271339 0.0215,-0.622192 0.081,-0.892262 0.13986,-0.63711 0.25163,-1.555931 0.10055,-2.192287 -0.0535,-0.226145 -0.12373,-0.409363 -0.25041,-0.563424 -0.12611,-0.152431 -0.25161,-0.204262 -0.40864,-0.158515 -0.20878,0.06088 -0.36759,0.251348 -0.51808,0.476829 -0.21592,0.323689 -0.38781,0.665693 -0.52225,1.088298 -0.0856,0.270418 -0.15879,0.867378 -0.20521,1.096137 -0.0428,0.211061 -0.0958,0.27463 -0.12431,0.50591 0.041,0.894882 -0.48756,3.207025 -0.0303,3.883666 m 8.18095,-6.83481 0.47347,0.625981 0.36938,0.551103 0.40625,0.509292 m -18.677023,7.251416 c 0,-1.15374 -0.258135,-2.521139 -0.297396,-3.625716 -0.0161,-0.451189 -0.128483,-1.066208 -0.135025,-1.517729 -0.0066,-0.480377 0.101088,-0.584081 0.186172,-1.011836 0.04998,-0.25278 0.09458,-0.511058 0.164768,-0.758872 0.201044,-0.71004 0.66619,-1.519586 1.27111,-1.149512 0.956459,0.585349 1.150951,2.511777 0.512133,3.587256 -0.383651,0.646216 -1.49119,0.607003 -1.999158,0.850693 m 15.431209,-4.459874 c 0.15227,-0.135443 0.40804,-0.06915 0.56922,-0.0012 0.43183,0.18213 0.8363,0.330272 1.18724,0.776403 0.84701,1.07634 0.50202,3.655311 -0.41636,4.436017 -0.67035,0.56966 -1.39959,0.03865 -1.72733,-0.919999 -0.32894,-0.960649 -0.39674,-2.399302 -0.0684,-3.371485 0.0672,-0.198831 0.17725,-0.353208 0.25873,-0.530869 0.0725,-0.157775 0.0863,-0.290576 0.19689,-0.388889 m 3.57957,1.241463 -0.2825,0.773114 -0.28849,1.096136 -0.41696,1.855023 M 97.688522,54.757888 c 0.139779,-0.01208 0.275403,0.01208 0.41637,0.04137 0.314655,0.06523 0.503214,0.191235 0.719719,0.591087 0.164169,0.304134 0.227222,0.54014 0.231976,0.926235 0.01067,0.842342 0.0028,1.534007 -0.192124,2.276617 -0.07731,0.293339 -0.157618,0.528424 -0.296218,0.758525 -0.195681,0.323447 -0.447891,0.634151 -0.760749,0.664773 -0.192724,0.01888 -0.37593,-0.06372 -0.525227,-0.226312 -0.178432,-0.194694 -0.273606,-0.388798 -0.388414,-0.691076 -0.121332,-0.320834 -0.193903,-0.652964 -0.239108,-1.011835 -0.101088,-0.792514 -0.300373,-2.335883 0.115988,-3.023002 0.212939,-0.351517 0.619782,-0.279931 0.917787,-0.306399 m 40.090158,3.16077 c 0.46515,0 0.97847,-0.05239 1.54652,-0.08757 0.26647,-0.01661 0.5264,-0.170926 0.76432,-0.01842 0.3099,0.198151 0.0952,0.761228 -0.0702,1.008287 -0.0976,0.145861 -0.42529,0.419148 -0.32655,0.651938 0.0946,0.223366 0.43183,0.05481 0.5841,0.07641 0.28908,0.04122 0.60611,0.201534 0.81905,0.505079 0.26113,0.371766 0.20462,0.992779 0.12372,1.405676 0.0246,0.341383 -0.34066,1.203972 -0.52632,1.433469 m -5.11546,-0.168685 c -0.19151,-0.512071 -1.18069,-0.758783 -1.72495,-0.758872 -0.18081,0 -0.47524,0.08999 -0.59183,-0.135142 -0.11539,-0.222945 0.038,-0.587613 0.10766,-0.792347 0.19212,-0.560209 0.46217,-1.87491 0.96241,-1.987975 0.4229,-0.09573 1.07065,0.579444 1.42516,0.723192 m -3.80678,-0.337264 -0.47585,6.155266 m -2.97405,-5.986633 0.33131,1.517744 0.0856,1.01182 0.10172,1.686376 0.0416,0.590226 0.0345,1.349098 m 7.8515,-6.071013 c 0.0464,0.489557 0.11955,0.93679 0.16119,1.433429 0.0809,0.953052 0.0297,1.988986 0.25517,2.866828 m -6.8403,-4.271767 c -0.0447,0.453635 -0.0476,1.034517 -0.1839,1.438621 -0.0417,0.300626 -0.13496,0.629865 -0.0724,0.881378 0.12491,0.499266 0.93708,0.289714 1.22616,0.265435 m -8.64292,-1.855009 c -0.19687,1.648009 -0.38543,4.174206 -0.60966,5.986634 -0.11421,0.922612 -0.26767,1.828191 -0.34202,2.61388 m -3.92566,-7.757326 0.22007,1.770693 c 0.0383,0.350575 0.0451,0.622419 0.0179,0.927504 0.011,-0.03303 0.0212,-0.06224 0.0299,-0.08899 m -9.66589,-1.934655 c 0.48893,0.996811 0.54246,2.00004 0.77326,3.035475 0.10765,-0.0835 0.2284,-0.152535 0.41636,-0.321439 0.41993,-0.376809 0.77324,-0.916285 1.07065,-1.364953 m 9.27903,-1.349083 c 0.70783,0.453636 1.48807,1.148967 2.15663,1.676635 m 13.30842,-0.917778 c 0.45324,0.759628 -0.0125,1.307031 -0.53533,1.659394 -0.82679,0.556932 -1.77075,0.262823 -2.37924,0.02703 m 8.02993,-1.517729 c -0.23257,0.46721 -0.55674,0.854649 -0.9517,1.096136 m -23.37598,3.962978 -0.0447,-2.951159 -0.12371,-1.011819 c 0.28683,-1.258468 -0.46519,-2.655327 0.13442,-0.857565 0.15585,0.43458 0.29801,0.490056 0.50976,1.110481 0.15585,0.456504 0.38008,1.247236 0.54246,1.686376 0.0923,0.248569 0.22841,0.633652 0.46098,0.633652 0.16298,0 0.21235,-0.273951 0.24446,-0.465353 0.116,-0.691588 0.12015,-1.395816 0.12015,-2.107638 m -24.863006,6.998499 c 0,-0.858196 -0.05644,-1.676833 -0.05943,-2.529549 -9.36e-4,-0.29192 -0.08863,-0.862334 -0.02677,-1.180467 0.05887,-0.304316 0.120153,-0.371765 0.186771,-0.674556 0.132638,-0.603302 0.421719,-2.032669 0.970129,-2.160502 0.472291,-0.110076 0.754825,0.822865 0.826788,1.317314 0.211751,1.449615 0.209373,3.162537 0.541286,4.553218 m 13.561662,-5.312091 -0.0339,1.180467 0.15405,0.843112 0.24506,0.519228 0.46752,0.324036 1.01119,0.421595 m -6.64968,1.624368 c -0.005,-0.0989 -0.05,-0.321001 -0.006,-0.590391 0.0637,-0.391577 0.15346,-0.400516 0.18142,-0.758707 0.0221,-0.28532 0.0594,-0.539975 0.10471,-0.843173 0.12073,-0.816809 0.27837,-1.46926 0.96834,-1.349113 m -12.978479,-0.19096 c 0.269441,0.577753 0.226613,0.778774 0.416361,1.09615 m 14.452228,1.186132 c -0.13145,0.335255 -0.40149,0.437282 -0.65251,0.47405 -0.37472,0.05482 -0.71733,-0.402704 -0.85592,-0.971096 -0.20997,-0.860734 0.15227,-1.740267 1.09382,-0.674564 0.47582,0.644365 0.51447,0.91756 0.41461,1.17161 z m -6.00586,-1.270448 c 0.9279,-0.388798 1.46918,1.39556 1.00285,2.521971 -0.42351,1.023038 -1.19022,0.745116 -1.6506,0.126533 -0.23259,-0.312409 -0.24447,-0.527079 -0.30396,-0.962082 m -2.200796,1.855008 c -0.491309,-8e-4 -1.170578,-0.107056 -1.645237,-0.928772 -0.3099,-0.537604 -0.324173,-1.272453 -0.07553,-1.852471 0.154641,-0.360472 1.162847,-1.28941 1.118831,-0.336947 -0.02321,0.492502 -0.544244,1.009631 -0.82559,1.263182 m 6.912002,-1.158142 c 0.19272,0.855071 0.21175,1.096482 0.47585,1.517745 m 4.98556,-2.214747 c 0,0.275899 0.0259,1.046775 0.17702,1.770829 m 3.19645,-0.934776 c 0.20697,0.515438 0.24932,1.011624 0.26656,1.595357 0.0333,1.110057 -0.27181,1.7605 -0.6519,1.939339 M 99.294217,67.78403 c 0.17072,0.797225 0.152273,1.652131 0.475258,2.359318 0.408635,0.892941 0.811915,0.185166 1.071245,-0.419994 m 6.83888,-1.259147 0.3584,0.852082"
       sodipodi:nodetypes="cccccccccccccsccccccccccccccscccccccccccccccccccccccsccccccscsccccccccccccccccccccccssccccccccccsccccccccccccccccccccccccscccccccccsccccccccccccccccccssccccccccsccccccccssscccccccccccccccccccccccccccccccccccccccccccsccccccccccccccccccccccccccccccccccccccccccccccccccccccccsscccccccccsccccccccccccccccccccccscccscccccccsccccccsscccccccccsscccccccccscccssccccccsccccccccccccccccccccscccscccscccccccccccccccscccccscccccccccccccccccccccccccccccccccccccccccccccccccccccccccccscccccccccccccccscccccccccccccccccccccccccccccccccccccccccccsscccccscccccccccccccccccscccsccccccccccccccccccccc" /><path
       style="fill:none;stroke:#020202;stroke-width:0.0558759"
       d="m 17.862802,18.56367 c -0.100287,-0.195301 -0.162184,-0.243424 -0.277642,-0.576197 -0.06026,-0.173891 -0.229321,-0.656526 -0.23231,-0.753961 -0.0057,-0.184768 0.02999,-0.136834 0.07245,-0.295742 0.02611,-0.09785 0.02722,-0.217359 0.06327,-0.294177 0.06268,-0.133787 0.127028,-0.188958 0.164217,-0.311372 0.0473,-0.155824 0.144854,-0.444733 0.227485,-0.605552 0.124869,-0.242918 0.310633,-0.47104 0.456822,-0.701293 0.06611,-0.104206 0.09587,-0.195234 0.176549,-0.29458 0.21933,-0.270026 0.47813,-0.397828 0.842228,-0.379617 0.242562,0.01212 0.468154,0.191848 0.59678,0.342352 0.23644,0.276691 0.221154,1.048785 0.133336,1.337622 -0.06573,0.216435 -0.166859,0.383411 -0.291944,0.559849 -0.102737,0.144916 -0.273248,0.305231 -0.37499,0.460634 -0.124856,0.19074 -0.2377,0.441726 -0.409737,0.589378 -0.101774,0.08734 -0.203782,0.130387 -0.305481,0.203139 -0.117674,0.0842 -0.267012,0.211382 -0.346492,0.295203 -0.262283,0.276723 -0.292138,0.326417 -0.494534,0.424314 M 1.0623284,18.761177 c -0.0768286,-0.01062 -0.2350328,0.04064 -0.40610626,-0.110321 -0.12097331,-0.106757 -0.0504615,-0.194928 -0.0177699,-0.270928 0.0465585,-0.108284 0.0576214,-0.137261 0.10194179,-0.177956 0.11708814,-0.107565 0.39629955,-0.09185 0.65943275,-0.121744 0.094163,-0.01076 0.1282193,0.006 0.2281407,0.0084 0.1187136,0.0028 0.171158,0.0026 0.2863616,0.01735 0.3214478,0.04133 0.6033721,0.03531 0.9297982,0.134486 0.1723854,0.05238 0.265892,0.08023 0.4199743,0.136278 0.2042375,0.07433 0.763136,0.238556 0.8940825,0.423988 0.1760577,0.249334 -0.075566,0.540736 -0.2438951,0.731173 -0.1577371,0.178372 -0.2258153,0.197337 -0.2298813,0.369772 -0.00128,0.05724 0.1320317,0.257058 0.2477465,0.3451 0.1667252,0.126964 0.3837715,0.299431 0.5729714,0.535361 0.1507011,0.187962 0.1441314,0.288499 0.1395051,0.486365 -0.00615,0.261494 -0.050523,0.367279 -0.1726348,0.539529 -0.2118271,0.298792 -0.5648247,0.51813 -0.9039267,0.682958 -0.1105604,0.05374 -0.2024264,0.09144 -0.32894,0.06545 C 3.0900709,22.525864 2.8548455,22.42468 2.7562569,22.383601 m 5.961358,-5.266392 c -0.2020986,0.0025 -0.2641052,0.04174 -0.4957473,0.08444 -0.1081502,0.01995 -0.3185383,0.05425 -0.4406543,0.07506 -0.1172148,0.01997 -0.1465131,0.03165 -0.2785408,0.02859 -0.3149218,-0.0074 -0.3953609,0.02952 -0.6121636,0.06648 -0.4144375,0.07059 -0.5657023,-0.01084 -0.7664643,0.158889 -0.032684,0.0276 -0.1886192,0.502234 -0.1956712,0.51511 -0.1578814,0.288359 -0.4400795,0.640854 -0.4922983,1.047419 1.32e-4,0.389336 -0.4079385,0.722335 0.2229277,0.698877 0.1267737,-0.0091 0.3323226,-0.119847 0.4863733,-0.139525 0.367293,-0.04692 0.8101872,0.08017 1.1091201,0.188982 0.3161376,0.115006 0.7487988,0.233574 0.8776641,0.549556 0.1433441,0.351206 -0.2762826,0.717701 -0.5188852,0.891369 -0.1552475,0.111122 -0.3055,0.193736 -0.4722848,0.222143 -0.5312761,0.09049 -0.7254897,-0.138296 -0.9344918,-0.162044 m 3.1814907,-4.282853 -0.1883839,1.279059 -0.054055,0.29261 0.2573212,0.456831 0.3322448,0.0096 0.6988739,-0.222929 0.261344,-0.12953 0.267583,-0.09285 0.244147,-0.230501 0.325802,-0.08383 c 0.05009,0.294141 0.05815,0.583654 0.104422,0.945784 0.01561,0.121693 0.06103,0.358311 0.07506,0.44066 l 0.05629,0.330495 c 0.04665,0.273926 0.09761,0.338252 0.148885,0.541448 m -0.362545,-3.792527 -0.04346,0.687569 -0.0082,0.284793 -0.01754,0.229709 0.04712,0.332059 m 23.634989,-5.329216 0.26269,1.542313 0.214557,0.927025 0.223939,0.982107 0.307188,1.137971 m 9.181883,-6.325043 0.26027,0.862559 0.02935,0.505124 0.104423,0.945784 0.08443,0.495743 0.07549,0.553948 0.203569,0.418772 0.06545,0.328935 0.09282,0.267593 0.334536,1.076632 0.121524,0.602787 M 40.76553,13.094644 c 0.11139,-0.161637 0.178868,-0.384435 0.392548,-0.690346 0.133366,-0.190999 0.217976,-0.327841 0.418164,-0.3735 0.129301,-0.02953 0.320996,-0.04818 0.453159,-0.0016 0.23576,0.08296 0.52035,0.292945 0.632564,0.496871 0.211009,0.38361 -0.03581,0.913895 -0.398362,1.210927 -0.155485,0.127375 -0.205672,0.126905 -0.337296,0.293579 -0.136607,0.173018 -0.20209,0.306034 -0.343175,0.370194 -0.230841,0.104951 -0.249394,0.162073 -0.346484,0.295201 -0.04223,-0.06308 -0.0645,-0.09932 -0.110926,-0.207828 -0.07921,-0.184777 -0.09541,-0.338174 -0.168086,-0.764899 -0.02396,-0.140626 0.005,-0.449139 -0.192077,-0.628577 -0.181322,-0.165062 -0.176161,-0.142078 -0.518238,-0.21401 m -27.370018,6.362136 c 0.339285,-0.02165 0.328774,0.182174 0.652817,0.172213 0.136176,-0.0042 0.263185,-0.03489 0.393396,-0.01976 0.190982,0.02211 0.427195,0.04218 0.643436,0.11713 0.107946,0.03739 0.243342,0.09124 0.287152,0.243961 0.02745,0.09542 -0.0072,0.213779 -0.04642,0.281844 -0.134826,0.234043 -0.565958,0.53975 -0.888706,0.66149 -0.198074,0.07472 -0.496244,0.150731 -0.73346,-0.03565 -0.215868,-0.169549 -0.313278,-0.398386 -0.406754,-0.724247 -0.0263,-0.0916 -0.0138,-0.246593 -0.01039,-0.338315 0.0071,-0.193873 0.07294,-0.292596 0.108955,-0.358641 -0.186507,-0.105683 -0.469561,-0.334924 -0.516922,-0.705483 -0.02115,-0.168878 -0.03748,-0.163433 0.03554,-0.346136 0.08205,-0.205498 0.151035,-0.326925 0.319487,-0.564541 0.154698,-0.218212 0.199567,-0.342447 0.474202,-0.543677 0.393013,-0.287936 0.519298,-0.223007 0.653179,-0.158471 m 23.009393,-3.01212 c 0.158633,0.627867 0.222106,0.723048 0.279034,0.972722 0.0072,0.03227 0.04252,0.194203 0.06545,0.328935 0.05175,0.303835 0.08218,0.308459 0.148671,0.484803 0.05048,0.133727 0.334236,1.113072 0.381455,1.352043 m -11.568561,1.630303 c 0.321663,0.0043 0.499764,-0.0013 0.819984,-0.177468 0.100589,-0.05533 0.17404,-0.09698 0.255086,-0.166217 0.185997,-0.158927 0.303972,-0.367767 0.06067,-0.586603 -0.32523,-0.292513 -0.504341,-0.326451 -0.81164,-0.494712 -0.252851,-0.138425 -0.46734,-0.199723 -0.688779,-0.383345 -0.126526,-0.104904 -0.169135,-0.201032 -0.212573,-0.360557 -0.0543,-0.199732 0.02328,-0.396422 0.235525,-0.503025 0.177959,-0.08932 0.574785,-0.177479 0.698884,-0.222931 m -23.2903972,4.080232 0.4594264,0.03511 m 9.2944038,-0.653041 c 0.06656,-0.09664 0.114071,-0.202843 0.200395,-0.3406 0.03403,-0.05431 0.116809,-0.145839 0.17384,-0.199651 0.376179,-0.355182 1.017811,-0.619999 1.256316,-0.610741 m 18.834907,-1.564268 c 0.178258,0.02892 0.234262,-0.01895 0.373072,-0.139094 0.108629,-0.09401 0.16247,-0.147325 0.231632,-0.30398 0.0913,-0.20679 0.333093,-0.477983 0.0038,-0.643015 -0.198449,-0.09951 -0.366359,-0.08004 -0.520769,-0.06247 -0.01544,0.0018 -0.110548,0.01252 -0.165247,0.02814 -0.15364,0.04408 -0.176467,0.05811 -0.23674,0.16315 -0.11892,0.2073 0.05632,0.132449 -0.257198,0.431105 l -0.136506,0.363333 0.120609,0.319541 0.578792,0.458758 0.531719,0.126751 0.673491,-0.03914 m -6.235929,0.381952 c -0.06786,-0.05237 -0.212135,-0.528975 -0.314753,-0.683239 -0.03813,-0.05727 -0.131606,-0.277821 -0.07327,-0.374817 0.09642,-0.160392 0.214235,-0.148208 0.362308,-0.146727 0.273891,0.0027 0.389477,-0.03981 0.47235,0.221826 0.07888,0.249108 -0.123351,0.365626 -0.303127,0.438927 -0.122366,0.04997 -0.275918,0.102201 -0.22694,0.331521 0.01659,0.07777 0.03814,0.128972 0.08343,0.212513 0.0802,0.148106 0.129986,0.168195 0.278004,0.245518 0.388732,0.203137 0.845844,0.314481 1.1939,0.353992 m -6.174946,-0.979304 c 0.159049,-0.07986 0.190899,-0.04195 0.32894,-0.06546 0.113908,-0.0194 0.172836,-0.03248 0.27853,-0.02859 0.157262,0.0058 0.251551,0.02065 0.401227,0.02615 0.107727,0.0039 0.185119,0.01166 0.292605,0.05406 0.144495,0.05701 0.176692,0.07465 0.268622,0.190435 0.06614,0.08334 0.116746,0.169316 0.138677,0.259783 0.02207,0.09028 0.0019,0.197948 -0.01732,0.286354 -0.0888,0.408091 -0.391117,0.601906 -0.682808,0.872019 -0.171505,0.158838 -0.605595,0.259131 -0.691058,0.268869 -0.07798,0.0088 -0.569312,-0.52723 -0.572546,-0.617696 -0.148404,-0.382878 0.0028,-1.07947 0.255133,-1.245914 z m -0.960076,1.684433 c -0.114028,0.153811 -0.306512,0.47561 -0.460131,0.626302 -0.126662,0.124221 -0.349334,0.211232 -0.521121,0.268209 -0.09871,0.03278 -0.147621,0.04645 -0.275417,0.04691 -0.131581,4.7e-4 -0.246872,-0.03015 -0.357071,-0.09976 -0.149387,-0.09438 -0.289943,-0.285315 -0.295201,-0.346485 -0.01657,-0.193466 0.08795,-0.137579 0.0537,-0.405909 -0.02421,-0.186833 -0.112434,-0.387759 -0.02981,-0.618409 0.09878,-0.275344 0.19139,-0.3126 0.430494,-0.356725 0.277346,-0.05119 0.522122,-0.235393 0.760206,-0.195629 0.266963,0.04459 0.328605,0.116624 0.544215,0.200176 0.784781,0.424857 0.474142,0.441305 0.150106,0.881323 z m 9.28522,-3.055159 0.04691,0.275412 c 0.02651,0.155609 0.02185,0.322079 0.0016,0.453163 -0.01074,0.06939 -0.02289,0.372721 -0.0351,0.459424 -0.03193,0.225358 -0.138028,0.648243 -0.180995,0.767674 -0.05621,0.155923 -0.147479,0.328134 -0.361939,0.260028 -0.157595,-0.05002 -0.220639,-0.205522 -0.2999,-0.374024 -0.06165,-0.131144 -0.09527,-0.18958 -0.166453,-0.311732 -0.176227,-0.302529 -0.33184,-0.69206 -0.471405,-0.826598 m 6.636687,-1.357099 c 0.233277,-0.03973 0.363921,-0.06939 0.755518,-0.223163 0.337897,-0.132646 0.504713,-0.161516 0.75865,-0.204766 m -20.847997,3.777595 0.31451,0.18262 0.539515,0.172581 1.083747,0.37281 0.82119,0.162411 m 15.942043,-3.962261 c 0.372909,-0.237581 0.512548,-0.173797 0.632848,-0.277831 m -19.33383,3.349665 0.07506,0.44066 0.05629,0.330496 0.03875,0.560205 m 23.203732,-5.19918 c 0.0527,0.3094 0.0054,0.255274 0.103087,0.549247 0.05889,0.177696 0.076,0.168887 0.111577,0.377761 0.02235,0.131261 0.06602,0.382629 0.163941,0.463325 0.06608,0.05472 0.139741,0.05538 0.151778,0.05917 0.09984,0.03111 0.135822,0.0071 0.41528,0.10872 0.273904,0.09964 0.772741,0.454971 1.066189,0.602522 0.113255,0.05694 0.226701,0.107341 0.35708,0.09976 m 2.306625,-2.320008 c -0.133375,0.0645 -0.188635,0.08649 -0.274378,0.330135 -0.07583,0.215379 -0.337353,0.844355 -0.446419,1.039604 -0.114337,0.204649 -0.397313,0.728511 -0.696696,0.846046 -0.451555,0.08807 -0.464473,0.01515 -0.532495,-0.353285 -0.0136,-0.07483 -0.06121,-0.264417 -0.07484,-0.384015 -0.01229,-0.111551 -0.0264,-0.152113 -0.02849,-0.278551 -0.0024,-0.139304 -0.01568,-0.248996 0.05364,-0.4059 0.133504,-0.30206 0.299783,-0.328793 0.430494,-0.356724 0.139193,-0.02969 0.268487,-0.07425 0.404341,0.0445 m -3.132058,0.968028 0.09504,0.890703 M 1.9769802,26.127054 c 0.1779662,-0.01608 0.4386026,0.0093 0.5680289,0.0071 0.1596148,-0.0026 0.2894674,-0.04697 0.5098114,-0.0018 0.2651746,0.05437 0.5572546,0.09803 0.811816,0.107383 0.1837165,0.0067 0.4508223,-0.03334 0.6215394,-0.01143 0.1631271,0.02096 0.2038682,0.0728 0.4090322,0.07203 0.2524719,-8.86e-4 0.258063,-0.03564 0.4516117,-0.01077 0.2905004,0.03735 0.7479271,0.03976 0.8543855,0.02452 m 5.9962007,-1.401195 c 0.038,0.22314 0.09364,0.420774 0.186411,0.761777 0.06851,0.251952 0.05762,0.338317 0.121965,0.716074 0.08362,0.491007 0.142362,0.732495 0.324737,0.90826 0.10827,-0.136054 0.160419,-0.155648 0.390628,-0.36881 0.171602,-0.158913 0.649894,-0.489544 0.850401,-0.664433 0.328913,-0.286881 0.46822,-0.570149 0.682028,-0.65463 M 4.4714823,26.79597 c 0.5662291,0.33076 1.1943868,0.989128 1.5487752,1.549987 0.091089,0.144268 0.1712872,0.267548 0.2035612,0.418773 0.038212,0.179857 0.087583,0.378274 0.057296,0.613727 -0.02403,0.18717 -0.1780032,0.436773 -0.3685479,0.554022 -0.196244,0.120715 -0.2223058,0.13405 -0.4156508,0.221906 -0.6414817,0.291656 -1.225093,0.132758 -1.5829624,0.02402 m 34.4650847,-7.967347 0.06735,0.838738 0.03214,1.298179 -0.03487,0.516064 0.04712,0.332058 0.121965,0.716073 m -12.24467,-0.675371 c 0.427029,1.226017 0.31862,4.520809 0.370899,1.734165 0.0061,-0.262058 -0.13605,-0.703868 -0.03134,-1.07159 0.33103,-1.118467 0.515202,-2.706263 0.683781,-0.78711 0.612934,3.976868 0.289051,0.606594 0.723745,-1.20972 0.25945,-0.492429 0.488481,-0.359982 0.670609,-8.61e-4 0.168412,0.335545 0.171939,0.782097 0.270411,1.144234 0.107211,0.394148 0.297112,0.809296 0.371645,1.183673 0.134991,0.678373 0.369151,0.911464 0.610741,1.25631 m -0.114077,-3.664804 0.404342,0.0445 0.991487,-0.168872 0.498872,-0.06609 0.32737,-0.07464 0.744215,0.04328 m 3.432681,-0.811385 c -0.100219,0.357039 -0.05255,0.292183 -0.08977,0.582096 -0.01479,0.114858 -0.02188,0.24972 -0.03554,0.346136 -0.01068,0.07522 -0.06836,0.546083 -0.06205,0.634053 0.01055,0.14699 0.01013,0.198756 0.07462,0.327374 0.07761,0.154612 0.22028,0.290322 0.379387,0.341613 0.142311,0.04582 0.230818,0.02667 0.346132,0.03548 0.117501,0.009 0.165806,0.02607 0.286356,0.01737 0.570653,-0.04103 0.895964,-0.152603 1.221008,-0.207964 m -27.705443,2.451626 -0.08435,-0.05178 c -0.24506,-0.06306 -0.26373,0.07989 -0.301208,0.117449 -0.04584,0.08087 -0.122859,0.229057 -0.173422,0.31294 -0.111784,0.185624 -0.166145,0.308358 -0.1999355,0.60086 -0.027074,0.234054 0.030568,0.478562 0.1953605,0.703573 0.278681,0.37229 0.648816,0.341021 1.083747,0.372753 l 0.662555,-0.103419 0.486357,-0.139521 m -1.927906,0.328365 -0.04569,0.06447 c -0.166295,0.172772 -0.219414,0.199334 -0.4988691,0.06612 -0.1631684,-0.0778 -0.3699637,-0.349168 -0.4946085,-0.463688 -0.1114012,-0.102265 -0.2307977,-0.217906 -0.4676677,-0.194282 -0.1397159,0.01398 -0.2153751,0.08225 -0.2629025,0.120331 -0.129961,0.104214 -0.7330965,0.625011 -1.1129486,0.454087 -0.092582,-0.0417 -0.1466864,-0.0805 -0.1951433,-0.202951 -0.038858,-0.09813 -0.0316,-0.13014 -0.046695,-0.218768 -0.012965,-0.07613 -4.335e-4,-0.500358 0.016343,-0.569589 0.044619,-0.183933 0.064745,-0.249823 0.1656075,-0.358824 C 7.7250346,27.950277 8.2387798,28.0248 8.3063678,28.013291 M 48.029095,20.964195 c 0.279659,-0.15162 0.521685,-0.189016 0.827802,-0.131559 0.158622,0.02847 0.350323,0.01788 0.516068,0.03487 0.08891,0.0092 0.309602,0.0184 0.392438,0.141006 0.109545,0.162154 -0.0043,0.375329 -0.109919,0.519382 -0.09719,0.132522 -0.147625,0.07371 -0.17204,0.265489 -0.01,0.07839 0.0385,0.201575 0.101973,0.266035 0.145148,0.14804 0.769675,0.458668 0.874959,0.644503 0.05345,0.09434 0.05746,0.148012 0.101973,0.266033 0.108647,0.287854 0.02442,0.531472 -0.135107,0.759859 -0.09497,0.135942 -0.136388,0.228867 -0.283584,0.331703 -0.321749,0.224843 -0.578626,0.325275 -0.898883,0.379822 m -17.419505,-0.773988 0.05629,0.330496 0.03875,0.560206 0.04691,0.275413 0.225163,1.321983 0.07506,0.440659 0.128127,0.308796 0.277401,0.07558 1.057159,0.216707 m -16.321501,0.569402 c 0.02789,-0.09181 0.07529,-0.198226 0.109373,-0.24535 0.06033,-0.08329 0.310784,-0.222976 0.412518,-0.240304 l 0.275415,-0.04691 c 0.09347,-0.01592 0.477051,-0.05274 0.618592,0.02687 0.134146,0.07544 0.06554,0.124248 0.225867,0.216592 0.09103,0.05251 0.163653,0.0031 0.278727,0.02814 0.06715,0.01459 0.168654,0.05074 0.237711,0.120088 0.161839,0.162485 0.157944,0.302015 0.222141,0.472289 0.04991,0.13235 0.114171,0.33271 0.03692,0.494367 -0.138509,0.290274 -0.163404,0.205016 -0.320089,0.394602 -0.16434,0.198882 -0.657126,0.282362 -0.900859,0.257388 -0.105049,-0.01079 -0.269069,-0.05562 -0.353947,-0.08142 -0.470419,-0.169944 -0.962506,-0.966703 -0.842438,-1.396354 z m -1.299453,-1.195686 c 0.128101,0.0017 0.327943,-0.09355 0.413899,0.156226 0.02868,0.08337 -0.04845,0.195581 -0.121647,0.228566 -0.0614,0.02763 -0.155703,-0.01203 -0.209996,-0.06819 -0.196955,-0.203663 0.01224,-0.201998 -0.161945,-0.340842 -0.0753,-0.05994 -0.477961,-0.04976 -0.554366,-0.03781 -0.127918,0.02006 -0.178647,-0.01123 -0.261528,0.07288 -0.08762,0.08889 0.02817,0.472674 0.126215,0.630329 0.130202,0.209364 0.231885,0.182069 0.415893,0.278713 0.0973,0.0511 0.208751,0.124454 0.311376,0.164222 0.150436,0.05827 0.221962,0.06824 0.361762,0.1273 0.167845,0.07094 0.311923,0.07894 0.478191,0.145276 0.125097,0.04994 0.239679,0.07775 0.357266,0.156462 0.09544,0.06384 0.135741,0.151401 0.183046,0.24276 0.157744,0.386859 0.356001,0.616161 0.0044,0.802243 -0.06746,0.03496 -0.312477,0.168396 -0.417208,0.212762 -0.252709,0.106967 -0.320146,0.08644 -0.575845,-0.05309 m -3.626338,-1.989658 0.08386,0.3258 0.408068,0.232774 0.301225,0.326583 1.160777,0.935905 0.515717,0.365606 m 4.554018,-3.212914 c 0.05757,0.02902 0.144574,0.05909 0.243786,0.10018 0.08352,0.03458 0.151677,0.112127 0.198083,0.164644 0.141438,0.160179 0.167302,0.333977 0.452816,0.329104 0.135859,-0.0024 0.247677,-0.226736 0.282203,-0.284252 0.01004,-0.01673 0.418799,-0.601123 0.467778,-0.637013 0.107331,-0.07864 0.217063,-0.127262 0.374629,-0.129956 0.241892,-0.0041 0.51101,0.263418 0.699912,0.504276 0.09346,0.11915 0.139992,0.209622 0.230919,0.357432 0.127901,0.20783 0.215515,0.347871 0.277643,0.576199 0.04009,0.147398 0.01884,0.1759 0.111357,0.321115 m 18.289558,-5.098935 c 0.126297,0.0017 0.201694,0.01644 0.339874,-0.0012 0.406507,-0.05195 1.097211,-0.230701 1.54232,-0.262691 0.243856,-0.01756 0.452766,0.04095 0.551846,0.18941 0.07167,0.107388 0.03357,0.295992 0.01976,0.393398 -0.03147,0.222615 -0.115055,0.423331 -0.209133,0.602425 -0.120691,0.229878 -0.227672,0.391784 -0.31931,0.62119 -0.07993,0.200208 -0.148382,0.347445 -0.264394,0.555159 -0.0739,0.132238 -0.131676,0.22727 -0.16404,0.368021 -0.0399,0.173551 -0.116774,0.29445 0.05686,0.500441 0.127722,0.151517 0.321618,0.153805 0.505733,0.140585 0.15326,-0.01102 0.409486,-0.05008 0.558637,-0.04797 0.08238,0.0012 0.13664,-0.0051 0.221893,-0.02836 0.121617,-0.03307 0.122428,-0.06291 0.266034,-0.101993 0.590563,-0.160669 0.738384,-0.125766 0.936401,-0.159489 m 0.82354,-3.484419 c 0.12407,0.0017 0.418105,-0.03046 0.560207,-0.03873 0.10215,-0.0059 0.24402,0.0323 0.349263,0.05387 0.29025,0.0595 0.664482,0.09728 0.893481,0.254049 0.08472,0.05795 0.157876,0.137597 0.192242,0.241194 0.165928,0.500115 -0.555641,1.435926 -0.86944,1.772946 -0.210546,0.22608 -0.666644,0.688398 -1.026603,0.628298 -0.150989,-0.02524 -0.297748,-0.14013 -0.402003,-0.252739 -0.117721,-0.127092 -0.174032,-0.23942 -0.221956,-0.41564 -0.05638,-0.206974 -0.0503,-0.369437 -0.02042,-0.563327 0.05023,-0.3254 0.096,-0.401779 0.172216,-0.652819 0.03551,-0.116858 0.07637,-0.220457 0.159768,-0.282273 0.09983,-0.07409 0.242588,-0.03929 0.335181,-0.02878 m -33.556459,5.148716 c -0.06573,0.10449 -0.132597,0.219832 -0.07143,0.578971 0.02339,0.137321 0.04373,0.212075 0.06567,0.385578 0.02013,0.157209 0.0035,0.166264 0.0012,0.339874 m 28.154784,-5.248827 c 0.0048,0.0578 0.01254,0.241424 -0.0662,0.332484 -0.118224,0.136841 -0.227114,0.152384 -0.409569,0.201994 -0.134348,0.03653 -0.273408,0.06301 -0.440662,0.07506 -0.134277,0.0097 -0.232458,5.96e-4 -0.350825,-0.06307 -0.177195,-0.09525 -0.202041,-0.187888 -0.238733,-0.403316 -0.04357,-0.255804 0.02251,-0.543376 0.165951,-0.689558 0.252658,-0.257399 0.486039,-0.07953 0.621547,-0.01138 m -19.597252,3.744076 c -0.08451,0.361108 -0.06996,0.587564 -0.01513,0.909467 0.05129,0.301137 0.03406,0.204485 -0.01635,0.569589 m 20.281024,-4.332856 c 0.15659,0.156294 0.255852,0.463828 0.389203,0.95396 0.130623,0.480223 0.222873,0.642942 0.288424,1.027804 m -17.336566,0.987857 0.287396,0.744578 0.241321,0.695744 c -0.242554,0.558954 -0.288011,0.493518 -0.861348,0.60015 m 8.370129,-2.105792 c -0.310994,0.356154 -0.65973,0.237461 -1.16491,0.481814 m 1.16491,-0.481814 0.04691,0.275414"
       id="path180"
       sodipodi:nodetypes="ccccccccccccscccccccccsccccccccccscccccscsccccccccsccccccccccccsscccccccccccccccccccccccccccsccccsccccccccsccccccsccccscccsccccccccccccccsscccccccccccscccccccccsccccsccccccccccccccccccscccccccccccccccccccccccscccscccscccccccccccccscccccsccccccccccccccccccccccccccccccccccccccccccccccccccccccscccscccccccsccccscccccccccccccsscccccccccccccccccsccccccccccccccccccccssccccccccccccccccccccsscscccccccccscccccccscccscccccccccccc" /></g></svg>
