<?xml version="1.0" encoding="UTF-8" standalone="no"?>
<!-- Created with Inkscape (http://www.inkscape.org/) -->

<svg
   version="1.1"
   id="svg48514"
   width="3798.6667"
   height="1326.6667"
   viewBox="0 0 3798.6667 1326.6667"
   sodipodi:docname="Casey - Pulsz - Envelope 23.svg"
   inkscape:version="1.2 (dc2aedaf03, 2022-05-15)"
   xml:space="preserve"
   xmlns:inkscape="http://www.inkscape.org/namespaces/inkscape"
   xmlns:sodipodi="http://sodipodi.sourceforge.net/DTD/sodipodi-0.dtd"
   xmlns="http://www.w3.org/2000/svg"
   xmlns:svg="http://www.w3.org/2000/svg"><defs
     id="defs48518"><pattern
       id="EMFhbasepattern"
       patternUnits="userSpaceOnUse"
       width="6"
       height="6"
       x="0"
       y="0" /></defs><sodipodi:namedview
     id="namedview48516"
     pagecolor="#ffffff"
     bordercolor="#666666"
     borderopacity="1.0"
     inkscape:pageshadow="2"
     inkscape:pageopacity="0.0"
     inkscape:pagecheckerboard="0"
     showgrid="false"
     inkscape:zoom="2.6072305"
     inkscape:cx="135.00916"
     inkscape:cy="64.244415"
     inkscape:window-width="1920"
     inkscape:window-height="991"
     inkscape:window-x="-9"
     inkscape:window-y="-9"
     inkscape:window-maximized="1"
     inkscape:current-layer="g48520"
     inkscape:showpageshadow="2"
     inkscape:deskcolor="#d1d1d1" /><g
     inkscape:groupmode="layer"
     inkscape:label="Image"
     id="g48520"><path
       style="fill:none;stroke:#463e34;stroke-width:0.263942"
       d="m 150.98547,21.661071 c 1.73515,-0.203237 5.10861,-2.803337 4.51975,-4.891651 -0.29483,-1.045741 -1.59421,-1.356666 -2.40847,-1.312059 -0.56432,0.03061 -0.95442,0.167075 -1.58367,0.35289 -4.15886,0.467667 -2.29219,5.9504 -0.52761,5.85082 z m -3.12088,-1.058224 c -0.71588,0.340238 -1.65852,0.452383 -2.42218,0.648846 -1.0315,0.265529 -1.67419,0.278461 -2.63943,0.128014 -1.01328,-0.157838 -2.06377,-0.412014 -2.90232,-1.050493 -0.84936,-0.646658 -1.61506,-1.485732 -1.94024,-2.528834 -0.84304,-2.702774 0.95256,-7.14704 2.4895,-9.2377313 0.53212,-0.7238615 0.94017,-1.3595154 1.59528,-1.9454147 1.43743,-1.2857447 3.56137,-2.2208402 3.92508,-0.6942748 M 82.096157,5.6590152 c -1.008527,1.749176 -0.767545,3.0762521 -0.792884,5.5427958 -0.008,0.763059 -0.06018,1.270359 -0.08578,2.111543 -0.03484,1.138912 -0.171298,1.991711 -0.17684,3.167312 -0.0153,3.173911 0.162852,5.635177 -0.792091,7.126453 M 98.988489,5.6590152 99.296246,8.5623855 c 1.043444,2.9494905 -0.502617,5.0521355 -0.272652,7.3890765 1.152876,1.412099 1.291896,1.638026 2.076696,2.449916 1.7576,1.406813 2.83396,2.347242 4.48676,2.830256 M 99.345506,12.82117 103.83227,10.851367 M 18.485967,8.2984435 C 17.603343,7.7085572 16.620685,7.1901731 15.582599,7.3797368 c -0.934094,0.1705597 -1.349276,0.6407749 -2.111542,0.9654245 -1.053661,0.448438 -2.889118,1.1146286 -2.784332,2.5929717 2.161748,4.014967 6.01136,6.312387 8.700707,10.077473 1.06148,2.060317 -0.232896,3.418532 -1.431461,4.216608 -1.958454,1.25109 -4.650144,0.702086 -6.596457,0.222505 M 159.95926,8.8263275 l 0.52787,1.3197145 m 12.14138,12.405307 c 0.92353,-0.21696 1.54695,-0.604165 2.37548,-1.093515 0.66777,-0.39433 1.25109,-0.703671 1.81883,-1.197772 2.27651,-1.980099 -0.97711,-3.865176 -2.61066,-4.606593 -1.03809,-0.471401 -2.51247,-0.621585 -3.27211,-1.456435 -1.63301,-1.795074 1.09589,-2.864042 2.48029,-2.467336 m -95.106222,0.527883 2.903371,1.055773 m 26.217161,5.014911 c -0.28638,-0.408584 -0.98529,-1.151319 -1.16583,-1.858421 -0.19505,-0.763057 -0.0224,-1.425817 0.20588,-2.100454 0.37137,-1.097211 1.17903,-2.206299 2.54361,-1.959512 1.32658,0.239924 2.60696,1.357722 2.13451,2.751074 -0.62106,1.831764 -2.532,2.488981 -3.71817,3.167313 0.71978,1.245811 1.93707,2.579512 3.95915,2.639428 m 51.46882,-3.431257 c 0.41282,-2.076173 0.92591,-2.740516 2.25116,-4.183753 0.39461,-0.429437 0.92855,-0.914562 1.59766,-0.544515 0.63742,0.352892 0.76594,1.252408 0.86362,1.8249 0.3703,2.169344 0.20138,2.971731 1.09431,4.750969 M 99.023594,15.951462 C 96.748881,14.807725 97.49908,13.351309 99.345506,12.82117 m 14.159834,10.258065 c 1.3601,-0.107425 2.51774,-0.249955 3.95913,-0.595984 1.08164,-0.259719 5.73364,-1.466994 4.06261,-3.517036 -1.06923,-1.311531 -3.81028,-1.44799 -5.11837,-1.774223 -0.8367,-0.208779 -1.47808,-0.531317 -1.83519,-1.253728 -0.73456,-1.486524 1.18641,-2.59482 2.89095,-2.097024 m -44.606308,1.319712 c -9.714876,-0.0165 1.765016,5.379619 1.452478,7.387493 -0.863359,3.302714 -6.854331,3.063318 -8.842874,2.906274 m -7.902689,-0.932247 c 0,-0.464801 -0.287484,-1.398369 -0.276612,-2.235594 0.0095,-0.746165 0.01292,-1.338981 0.07259,-2.111014 0.05463,-0.706047 0.07548,-1.510808 0.535276,-2.329558 0.379019,-0.674373 0.874441,-1.032016 1.502096,-1.246337 1.103808,-0.377175 1.912792,-0.02903 2.636788,0.392218 0.884472,0.51416 1.376989,1.235781 1.85842,2.127906 0.536068,0.993481 0.98266,1.475703 0.768601,2.639428 -0.147281,0.800009 -0.763057,1.618759 -1.087973,2.097024 -0.594398,0.875761 -1.360886,1.27194 -2.329557,1.285664 -1.310476,0.01821 -2.225829,-0.790771 -3.679625,-0.619737 -0.927759,0.109273 -1.070288,1.369598 -1.071343,2.779844 M 88.170804,16.70713 c 1.389658,-0.577773 3.576423,0.5168 4.206717,1.500776 0.658538,1.028058 -0.612346,1.950802 -1.081372,2.494788 -0.446327,0.517855 -1.055772,1.140497 -1.810646,1.433474 -1.049702,0.407263 -1.868187,0.104257 -2.523821,-0.675958 -0.730331,-0.869164 -0.701825,-2.089371 -0.308813,-3.127986 0.286114,-0.75646 0.750917,-1.305988 1.517935,-1.625094 m -46.742669,5.350118 c -1.582864,-0.484863 -1.692664,-2.707788 -0.446855,-3.801566 0.827724,-0.726635 1.868714,-1.453005 2.803864,-0.964183 1.446932,0.755932 0.104257,2.557075 -1.019082,3.378201 -0.534485,0.390637 -1.437434,0.686252 -1.337927,1.387548 0.254178,1.792171 3.216405,1.787155 4.507877,1.813814 m 3.251246,-2.079076 c -0.877875,-0.649828 -0.460315,-3.437854 0.29456,-4.127008 4.212043,-2.790752 3.482072,6.378779 -0.29456,4.127008 z M 32.390996,18.208171 c 4.259287,-0.388272 -0.218262,6.871367 -3.167312,5.542798 m 69.79991,-7.799507 -0.527885,3.695199 m 61.518541,-6.592333 c -0.91282,2.381183 -1.24475,4.471927 -1.63865,6.593651 M 29.835503,20.967693 c -7.44e-4,1.170321 0.177103,1.956871 -0.611819,2.783276 -0.501493,0.525245 -1.155807,0.952305 -1.763665,1.294901 -1.146042,0.645341 -2.632565,0.477209 -3.392191,-0.662495 -0.761214,-1.141815 -0.659067,-2.584 -0.507037,-3.410668 0.161008,-0.875234 0.636897,-1.115157 0.995857,-1.324728 m 67.722347,-0.160658 2.375484,1.8476 m -45.467221,0.457065 3.431254,2.639427 m 9.629283,84.262477 c 0,-1.28831 -0.284668,-3.91928 -0.270277,-5.12814 0.01026,-0.87286 0.04355,-1.56914 0.352627,-2.37549 0.24362,-0.63531 0.4912,-1.03333 0.904005,-1.579696 0.503866,-0.666718 1.253465,-1.46356 2.173304,-1.488108 1.928103,-0.052 2.402408,2.412704 2.371789,3.859634 -0.0512,2.40478 -1.870827,4.18745 -3.69124,5.48658 -0.668829,0.47721 -1.389392,0.55322 -1.840208,1.22522 -0.950194,1.41631 -0.271333,4.35057 -0.271333,5.69351 M 76.49331,98.286891 c 0.08974,1.446935 7.45e-4,3.496979 0,5.542799 -9.3e-4,3.09077 -0.579616,6.28368 -0.791826,8.97405 m 30.908176,-12.05593 c -0.51496,1.05894 -1.92644,2.33944 -2.27379,3.59422 -0.31277,1.12994 -0.99952,2.3721 -1.10457,3.63322 -0.16918,2.02893 1.58328,3.82832 2.85047,4.64998 M 352.68228,98.566839 c 5.95719,5.908361 9.86091,12.845571 12.7062,20.851481 1.48599,4.17451 2.86907,8.24108 5.50587,10.29376 M 118.75107,108.13821 c 0.64627,-2.711 2.27125,-8.05791 3.99846,-5.08836 4.16135,14.62725 6.47511,-9.053391 6.97936,-0.0138 -0.22936,2.17516 -0.501,4.18045 -0.68417,6.42185 m -18.19662,-6.91529 c 1.01248,-0.33125 2.03394,0.48855 2.87777,0.98054 0.83854,0.48882 1.47886,1.17059 2.04818,1.97588 1.13761,1.6082 -0.13301,3.29242 -1.77395,4.05152 -3.55848,1.64621 -5.23715,-0.88105 -4.6285,-4.31573 0.20456,-1.15475 0.18872,-2.27096 1.4765,-2.69221 m -30.923403,9.20534 c 1.341091,0.31568 2.665293,0.44765 3.943567,-0.27028 0.591231,-0.33178 1.150526,-1.04521 0.784702,-1.73832 -0.875234,-1.6565 -3.949377,-1.32658 -4.34133,-3.53393 -0.233591,-1.31575 1.797448,-1.99831 3.308257,-1.58392 m 293.828167,1.59967 c -2.49693,1.27194 -4.29437,7.78261 -4.86184,11.61347 -0.46454,3.13828 -0.91326,6.47847 -1.36193,9.50194 -0.12144,0.82324 -0.24548,1.52348 -0.32994,2.37548 -0.54374,5.42271 -1.76314,11.09958 -3.18844,16.36445 -0.44605,1.64225 -0.91852,3.59464 -1.05576,5.27885 -0.161,1.9611 -0.28769,2.5431 -0.28769,4.48703 m 31.14522,-49.62122 c -0.83404,3.49222 -1.05576,8.20651 -1.05576,11.87742 0,7.05412 -0.26395,14.06629 -0.26395,21.11541 0,2.95326 0.46454,5.23055 0.52789,7.91828 0.0343,1.46251 0.161,2.53148 0.79182,3.6952 M 87.842978,104.35757 c 15.757062,1.86833 -13.419803,6.51554 9.50245,6.86251 m -28.770274,-2.90336 c -0.39697,0.75725 -0.784439,1.614 -0.757516,2.63943 0.0227,0.85411 0.217489,2.13502 1.290152,2.25248 0.885264,0.0968 1.356136,-0.75039 1.747828,-1.46145 1.135918,-2.64751 1.722023,-0.94809 2.206563,0.52868 m 465.390909,37.75981 c -0.3141,-0.92775 -0.49885,-1.84627 -0.52525,-2.90337 -0.0158,-0.74379 0,-1.34029 -0.002,-2.11154 -0.005,-1.28012 -0.33257,-2.33115 -0.21906,-3.6952 0.0897,-1.06764 0.2217,-1.75706 0.21906,-2.90336 -0.002,-1.0988 -0.16364,-1.79983 -0.24019,-2.90337 -0.34313,-5.02257 -0.84724,-11.0666 -1.06897,-16.10052 -0.10557,-2.42299 -0.17683,-4.94548 -0.65986,-7.39039 -0.2349,-1.18193 -0.73904,-1.67339 -0.14251,-2.63942 m -487.562186,0.51187 c 1.222057,1.00642 2.441734,2.04952 2.170402,3.95914 -0.196637,1.38332 -0.88975,2.45995 -1.917016,3.37504 -2.642857,2.3541 -4.993268,1.17665 -6.58801,-0.73561 -0.563253,0.50518 -1.249241,1.30388 -2.375484,1.46409 -1.652809,0.23517 -2.550742,-1.5731 -2.928444,-2.7838 -0.310926,-0.99665 -0.23834,-1.95872 -0.238869,-2.63943 m 64.862707,-1.49823 -0.26394,0.26394 m 366.7435,36.35468 c 2.72916,-0.65036 5.07034,-1.19356 7.65432,-2.44359 1.71829,-0.83141 3.52893,-1.6301 5.01228,-2.82471 0.96869,-0.781 1.94264,-1.69293 2.70541,-2.67347 2.62888,-3.38375 1.4253,-6.48428 -1.91093,-8.71565 -3.8351,-2.56527 -8.65204,-3.98739 -11.86688,-7.36242 -0.97131,-1.02119 -1.53085,-2.02813 -1.58365,-3.4302 -0.0264,-0.78154 0.0396,-1.37039 0.26659,-2.11154 0.93699,-3.02347 3.86148,-6.55871 7.37718,-5.98279 2.81365,0.46084 3.50518,2.3132 4.75098,3.34336 M 30.303464,111.48402 c 1.177448,1.06291 1.846014,2.23718 2.031565,3.69521 0.115872,0.91086 -0.242564,2.09333 -0.734551,2.89201 -0.62581,1.01592 -1.735425,1.58393 -2.88067,1.77106 -1.588672,0.25972 -2.344078,-0.57091 -3.695199,-0.3492 -1.218096,0.19981 -2.273602,0.74697 -3.087336,-0.63425 -0.706047,-1.1983 -0.551375,-2.86193 -0.871803,-3.94357 m 383.04079,-2.62342 1.5731,24.28273 0.5622,10.82166 0.24017,3.43125 m 183.70411,-38.53564 c -0.21115,1.78927 0.15575,2.47816 0.25339,4.48704 0.18477,3.7559 0.63082,7.82563 1.22207,11.61347 0.45134,2.89493 0.63609,4.81617 0.63609,6.59857 -1.23525,0.0153 -2.86112,0.34102 -4.48704,-0.52789 M 41.653516,113.59558 c 0.102939,1.30361 0.243092,1.88851 0.263944,2.90336 M 6.284679,114.91528 c -1.6472326,-2.3419 -1.7890466,5.37023 1.3199774,6.0142 1.0544517,0.16708 2.2110495,0.21327 2.9292366,-0.55534 1.297542,-1.38886 1.335815,-3.30535 0.501754,-4.66702 m 5.542797,-2.11156 c 2.458128,2.42977 -0.109888,6.03846 -2.111541,6.00787 -1.072663,-0.0583 -2.189244,-0.93942 -2.967612,-1.19491 m 12.997432,-3.66638 c 0.16523,2.02338 0.52683,3.03798 0.527886,4.75096 m 29.561581,-3.78598 0.415413,-0.006 M 654.864,118.27567 c -0.0619,1.45794 0.20314,3.16542 1.04357,4.83785 m -101.88194,-3.69415 5.54279,1.04945 2.11155,0.26552 2.11156,0.15783 6.33461,1.16663 m -8.44617,-1.32446 c 0.4223,3.1285 1.58896,8.58658 2.22767,12.674 0.21379,1.37118 0.40912,2.31345 0.41176,3.6952 0.005,3.1784 0.0158,5.91707 -0.79183,8.97405 m 76.54344,-27.18715 0.45663,2.37548 2.02708,6.59857 0.25075,3.00815 -1.1508,0.40779 -3.69518,0.27925 m -121.30354,-5.45499 c 0.17161,1.29919 0.55252,2.44095 1.20961,3.34345 m 124.93991,1.4245 c 2.05083,0.7137 3.56851,0.4904 7.39041,0.79182 m -7.39041,-0.79182 0.16099,1.32631 0.59123,3.42466 0.82879,6.07068 0.0791,1.8476 0.18737,2.90337 m 23.92379,-13.56586 c 0.6968,2.94058 -0.75488,6.6086 -2.03499,9.23799 -0.42761,0.88315 -1.23789,2.77536 -2.44676,2.77536 -1.41999,0 -2.19601,-3.36263 -2.47842,-4.35901 -0.45134,-1.59211 -0.68097,-3.01845 -0.69415,-4.75097 m -278.7235,13.72502 c -2.47315,-0.002 -5.23663,-0.31964 -6.57482,-2.64049 -1.1112,-1.92783 -0.24282,-4.75678 0.61235,-6.5975 0.87893,-1.88852 2.59984,-4.31494 4.37882,-5.28203 0.63346,-0.34444 1.17982,-0.45425 1.8476,-0.42969 1.99011,0.0728 1.808,1.99039 1.08216,3.33623 -1.03467,1.91649 -3.96441,4.36535 -5.56921,4.75097 m 214.32153,-7.65434 1.24315,-0.21617 3.95915,0.58754 m 10.37027,12.29788 c 0.14255,-0.75515 0.31145,-2.69987 0.66249,-3.95915 0.2745,-0.97896 0.52789,-1.4076 0.83407,-2.63941 0.48303,-1.9582 0.93171,-4.40231 2.99045,-5.39156 1.19305,-0.57329 2.64737,-0.57567 3.95915,-0.67913 m -122.99729,1.24396 c 1.81328,-0.46217 4.54247,0.23465 5.64574,1.9339 1.9822,3.04539 -3.5606,7.36296 -6.17364,7.8209 -4.77998,0.83775 -7.28482,-4.91461 -3.92481,-8.33056 1.39888,-1.4216 2.81101,-1.00589 4.45271,-1.42424 m 98.97856,-1.24396 c 0.53316,1.89722 0.30088,3.2333 0.63873,5.80673 0.0897,0.66857 0.14517,1.1925 0.15309,1.8476 0.0238,2.03104 0,3.1615 0,5.01491 m 6.22902,-7.45057 c 0.0396,-0.38852 0.0739,-0.89397 0.32992,-1.58471 0.23226,-0.62633 0.76806,-1.628 1.41737,-2.05347 0.57011,-0.37111 1.12967,-0.45742 1.78951,-0.45108 0.77337,0.007 1.49395,0.27951 1.57312,1.00694 0.13197,1.19302 -2.35436,2.50139 -3.4207,2.7289 -0.57275,0.12221 -1.25108,-0.0201 -1.68922,0.35342 -0.46983,0.40384 -0.42496,1.00932 -0.41703,1.64384 0.0104,0.7971 0.14779,1.43004 0.56218,2.11154 0.91061,1.49602 2.22767,2.54679 3.91956,2.63942 m -156.25407,-9.50193 c 1.7209,0.25761 4.25738,0.73983 5.08088,3.16732 1.16398,3.43917 -2.60775,7.08158 -5.87272,6.83664 -1.98748,-0.14886 -2.71332,-1.36828 -3.95914,-2.61357 -2.0825,2.54864 -4.01721,3.57247 -6.83875,1.59264 -2.34077,-2.12446 -3.90752,-7.4472 -3.19106,-10.0388 m 191.89161,1.77951 c 0.78919,-0.31119 1.83704,-0.29483 2.62886,0.22724 0.91852,0.60601 1.37515,1.68897 1.29597,2.74422 -0.0607,0.80555 -0.26396,1.86238 -0.91061,2.48422 -0.6572,0.63189 -1.92941,0.86442 -2.75556,0.91536 -0.76806,0.0475 -1.66549,-0.10341 -2.10363,-0.82033 -0.46454,-0.7599 -0.23226,-1.86529 -0.0449,-2.57925 0.15836,-0.59889 0.21115,-1.13337 0.60707,-1.83599 0.35895,-0.63557 0.79446,-0.94359 1.28275,-1.13547 m 15.83129,9.30608 c -2.16961,0.0929 -6.26337,0.57751 -7.59363,-2.64074 -0.53054,-1.2825 -0.10027,-2.32033 0.30354,-3.42993 1.04256,-2.8593 2.22503,-3.4244 4.65066,-3.43126 m -223.03159,1.58365 c 1.49657,-1.38253 3.00369,-1.66179 4.75097,-1.02066 2.99839,1.10091 5.65896,5.20178 3.34943,8.14316 -0.75749,0.96338 -1.69714,1.51661 -2.82153,1.83888 -1.42265,0.40726 -3.18579,0.003 -4.47645,-0.95045 -1.28807,-0.95283 -2.68695,-3.11426 -1.59423,-4.57967 m 259.19172,-3.95915 c 3.52178,0.6983 4.58269,-3.29534 1.84235,-4.22254 -0.9317,-0.26237 -1.57574,0.31408 -2.1907,1.06632 -2.33789,3.24621 -1.7618,9.71073 0.1636,11.48784 2.35436,2.0094 5.70908,-0.39011 7.3112,-1.4691 m -150.44731,-5.80674 c -0.0765,0.26632 -0.10029,0.56774 -0.39592,0.99216 -0.43287,0.6208 -0.71793,0.95389 -1.1508,1.65122 -0.8367,1.34347 -3.30457,4.72088 -5.28943,4.01167 -1.59421,-0.56986 -1.22204,-2.38419 -0.82877,-3.48774 0.91061,-2.54044 2.76084,-4.33236 5.02546,-3.95914 m 47.50969,8.18222 c 0.0238,-0.52603 0.0555,-1.22733 0.26923,-1.84813 0.36423,-1.06051 0.81295,-1.45643 1.3461,-2.37495 0.74698,-1.28092 2.18546,-3.70655 3.91693,-3.62737 1.41737,0.0649 2.17223,1.45142 2.65261,2.5716 1.14025,2.67057 1.02938,5.00514 2.37285,7.12645 m -71.52849,-2.63943 c -3.13562,0.008 -7.18714,2.70093 -10.28847,1.40101 -0.89214,-0.37295 -1.57837,-1.25293 -1.70505,-2.19283 -0.095,-0.7174 0.0713,-1.40207 0.25071,-2.11154 0.37218,-1.46727 1.10064,-3.22882 2.50484,-3.95915 m 151.00344,-6.90468 c -2.40051,3.00655 -3.18447,11.5738 -1.34793,13.50325 m -80.23332,-5.54333 0.38536,1.84787 0.67042,2.9031 m -45.53538,-4.5501 c 1.21415,2.26568 1.95319,5.85583 3.43127,7.91827 m -90.66434,-7.06284 0.52789,2.90337 m 75.18921,-10.19541 c -1.41867,2.46979 -1.63241,12.52716 -0.49343,14.15455 m 110.18026,-5.17011 c 0.74698,1.24423 1.26429,2.96882 2.90337,4.48703 m -72.96435,-1.16452 6.33464,-0.52682 5.80674,-0.265 m -85.51744,41.70294 c 0.095,-2.2026 0.99769,-5.02863 1.3857,-7.39038 0.1346,-0.83195 0.15835,-1.50739 0.2745,-2.3755 0.11349,-0.85306 0.31937,-1.51846 0.40646,-2.37548 0.12406,-1.23049 0.10289,-2.10072 0.0211,-3.43125 -0.0765,-1.22338 -0.0528,-1.62378 0.28771,-2.11154 m -86.30926,23.75485 c 0,-1.41211 0.0897,-3.60758 -0.0449,-5.01493 -0.0897,-0.93145 -0.20322,-1.58654 -0.21906,-2.63942 -0.0238,-1.31706 -0.54636,-3.47138 -0.7153,-4.75097 -0.0791,-0.59571 -0.1478,-1.20807 -0.0449,-1.84759 0.1953,-1.20966 0.5754,-1.62457 0.92907,-2.90338 0.59389,-2.14744 2.2145,-6.42383 4.846,-6.29424 1.86871,0.0919 2.77401,1.95265 2.87963,3.65482 0.13459,2.22847 -1.06898,4.0758 -2.3148,5.80647 -3.91748,3.53224 1.72676,2.88469 4.4501,3.79024 1.42792,0.49489 3.10659,1.37672 3.69255,2.80966 0.78919,1.92889 -0.47247,3.56111 -1.69714,5.01387 -1.64438,1.94894 -3.5474,3.05329 -5.95456,3.82214 -1.20886,0.38616 -1.94526,0.38588 -3.1673,-0.12695 m 60.44285,-24.54669 0.60705,2.11155 -0.0686,5.54279 -0.23228,2.63942 -0.83405,6.07069 m 6.59856,0 c 2.4969,0.45662 4.00665,-0.63109 5.783,-2.30106 1.20885,-1.13627 2.33852,-2.92104 0.74167,-4.35321 -2.70015,-2.42035 -6.02054,-0.14858 -8.90015,-1.00007 0.57803,-1.69557 1.20623,-3.68516 1.96638,-5.5428 0.3009,-0.73244 0.6018,-1.7114 1.30386,-2.0767 0.77073,-0.40014 1.7526,0.14992 2.53651,0.3748 0.76808,0.22013 1.35928,0.37401 2.11152,0.57593 1.06898,0.28689 2.40453,0.71079 3.43127,0.86203 m -48.30151,-0.26394 c 2.66317,0.73983 4.72456,3.91559 6.07066,5.54279 0.78657,-0.97658 1.13232,-1.92731 1.97958,-3.69519 0.31938,-0.66989 0.49093,-1.4348 1.03729,-2.02075 1.11385,-1.19566 2.09308,-0.99454 3.58171,-0.0907 m -76.63845,15.12841 c -0.49747,-1.8215 -1.44144,-6.36947 -1.66413,-8.35538 -0.0819,-0.80265 -0.25521,-2.81305 0.14337,-3.75718 1.57045,-3.73004 4.53504,-4.66813 7.68651,-2.19129 1.15342,0.9077 2.02972,1.78637 2.32798,3.39853 0.19004,1.01988 0.17684,1.70586 0.0184,2.63943 -0.12671,0.75356 -0.37216,1.43558 -0.7364,2.11155 -0.85254,1.57995 -2.19074,3.23382 -3.72159,4.23204 -1.31707,0.85942 -3.1858,0.80899 -4.05417,1.9223 -0.41051,2.06499 -0.0628,3.71123 -0.60971,5.45912 -0.40645,1.33238 -0.0871,3.42704 -0.0871,4.22311 m 53.847,-20.8441 c 1.02674,-0.52551 2.15905,-0.142 3.16468,-0.0217 1.1191,0.13382 1.77634,0.0488 2.90336,0.41307 1.39626,0.45161 2.87434,1.11569 3.62129,2.50562 1.69981,3.1578 -0.97923,7.16841 -3.88523,8.63594 -0.93437,0.4714 -1.87398,0.767 -2.90336,0.84118 -2.68166,0.19321 -5.21552,-1.67446 -5.51378,-4.46328 -0.12668,-1.19249 -0.12933,-3.00815 0.15046,-4.22308 0.32464,-1.41024 1.15605,-3.01686 2.46258,-3.6878 m 16.88969,1.84021 c 0,0.89766 -0.0369,1.63671 0.23492,2.37549 0.39855,1.07451 0.66251,1.34848 0.9845,2.63942 0.51734,2.05716 0.68889,3.97234 0.89213,5.5428 m -58.58472,-10.09766 c 1.00561,-0.40093 1.80009,0.15757 2.37284,0.83986 1.36722,1.63144 2.89281,0.51101 4.65332,2.44411 2.58135,2.83766 -0.0871,9.90076 -3.34152,11.22495 -1.45433,0.59151 -2.75292,0.44608 -3.95388,-0.37372 -3.1541,-2.15116 -2.82154,-7.1175 -2.02708,-10.37217 0.35107,-1.43954 0.91061,-3.21007 2.29632,-3.76303 m 56.70809,1.91544 c -1.47014,1.92123 -1.45959,3.16308 -2.41242,6.33462 -0.38274,1.27801 -0.48831,2.31452 -0.49094,3.69518 m 58.38333,8.92358 c 1.91359,2.66027 0.66779,10.54953 0.25076,14.2529 -0.11348,1.00036 -0.23226,1.73938 -0.25076,2.63944 m 24.25974,-13.4106 c 0.54902,-1.02199 1.28277,-1.36854 2.37549,-1.52823 1.3989,-0.20428 5.82258,-0.20404 6.09181,1.81303 0.0924,0.70711 -0.56486,1.14074 -1.05842,1.56254 -2.26839,1.87926 -1.55565,1.44075 0.25078,2.06299 1.09536,0.36872 2.43356,0.83907 3.07756,2.16434 0.78657,1.6177 -0.49619,3.54474 -1.54932,4.747 -1.81858,2.08118 -4.15447,4.0808 -6.81238,4.75096 m -31.4092,-16.62839 c -0.46982,1.2231 -2.35964,4.96239 -1.56518,6.21636 0.64402,1.01751 3.22273,0.30935 4.2046,0.19374 0.63609,-0.0752 1.17982,-0.0739 1.83704,-0.0755 0.56749,-0.002 0.90797,0 1.06634,0 m 6.33463,-6.33461 c -0.57277,0.95361 -2.10365,2.99573 -1.67342,4.14942 0.36161,0.97686 1.82913,0.94362 2.72919,1.29281 1.72618,0.66829 4.16236,2.0561 4.8196,3.79574 0.35366,0.93781 0.13459,1.7906 -0.31148,2.63944 -1.31177,2.49029 -4.15445,4.21119 -6.88361,4.17452 -1.10329,-0.0151 -1.874,-0.59599 -2.90338,-1.00722 m 19.00388,-13.46106 -0.11086,3.95914 -0.41968,5.01489 -0.18475,1.8476 -0.0765,2.37549 m -12.50477,-15.45399 6.33463,-0.26394 m -28.6703,3.84052 c 0.75224,1.37222 0.77864,2.96301 1.01354,4.75096 0.59123,4.50261 0.57012,8.92682 0.57012,13.46106 M 441.3222,208.89491 c 0,1.0832 -0.0871,2.06165 0.0765,3.43123 0.0713,0.62425 0.16632,1.16558 0.18475,1.84762 0.0607,2.45863 0.4144,4.86156 -0.25864,7.3904 -0.34314,1.29621 -0.32466,2.17065 -1.32235,3.1673 -1.3382,-1.49048 -2.12477,-3.53314 -2.62888,-5.54279 -0.18742,-0.74776 -0.36424,-1.99674 -0.60707,-2.63812 -0.42758,-1.13203 -0.81948,-0.60295 -1.33153,-1.61199 -0.34312,-0.6757 -0.91323,-3.6614 -1.20092,-4.36693 -1.82215,-2.07115 0.0704,6.97387 0.45864,9.10922 0.17684,2.14874 0.0625,5.3969 0.0308,6.89821 m 21.11552,-18.73993 -1.17456,7.39039 -0.91852,2.37549 -0.57011,2.37547 -3.14355,8.71013 m -38.00776,-19.7957 c 0.22436,2.56605 0.92909,5.73812 1.05842,8.7101 0.0555,1.24817 -0.0924,3.01687 0.0976,4.22307 0.17422,1.09696 -0.0132,1.48339 0.005,2.37549 0.0158,0.84277 -0.0633,2.20024 -0.10558,3.16731 m 35.8962,-17.42021 c 1.06634,2.02656 2.44938,6.72869 4.75096,7.3904 m -91.58817,11.34954 c -0.005,-1.77316 -0.24019,-3.99953 -0.45135,-5.80675 -0.10027,-0.8491 0.0475,-3.61205 0.0661,-4.48703 0.0184,-0.80027 -0.8895,-4.12278 -0.88421,-4.20486 0.029,-0.5989 0.28241,-0.61182 1.00034,-1.10934 0.57802,-0.40041 0.85781,-0.73878 1.28804,-1.28542 0.83934,-1.06606 2.28838,-2.13344 3.67671,-0.7517 2.18018,2.17223 2.84532,6.19551 3.38376,9.19892 0.17684,0.97052 0.33784,1.73095 0.36425,2.63943 0.0581,2.03738 0.26655,4.13572 0.26655,6.33464 M 360.78,212.04144 l 0.0895,2.15053 m 58.01998,-1.86581 c -1.17453,2.51618 -3.9829,4.90432 -5.80674,5.27885 m -8.44891,2.37547 0.79183,2.37549 c 0.30617,-0.42652 0.64138,-0.8264 0.79975,-1.84812 0.19004,-1.20121 0.6836,-3.06808 2.63151,-2.63889 m -30.61735,9.76588 c -1.53352,-0.004 -2.82156,-0.0188 -3.90899,-1.09379 -0.79975,-0.7913 -1.25111,-1.75417 -1.34611,-2.86535 -0.1399,-1.68158 0.32993,-4.21756 2.09306,-4.85445 0.86574,-0.3133 1.85816,0.006 2.20919,0.91087 0.68362,1.75548 -0.88155,3.47666 -1.95053,4.7354 m 24.28275,-2.32575 c -0.16366,0.91748 -0.43816,2.76917 -1.45434,3.79485 -0.53845,0.54374 -1.259,0.69865 -1.91622,0.21514 -1.26693,-0.92882 -0.81822,-3.05463 -0.29562,-4.31206 0.25602,-0.61762 0.76278,-1.26164 1.50182,-1.11305 0.50151,0.10131 0.73906,0.55007 1.20886,0.90296 0.67307,0.50915 1.00299,0.41413 1.71299,0.81163 0.6889,0.38666 1.84233,2.91762 2.4098,3.60995 m -12.4053,-4.22311 c 2.03236,0.7124 3.20428,2.11129 2.07196,3.95518 -0.46984,0.76361 -1.17191,1.44245 -2.07196,1.63433 -1.49919,0.31912 -1.95318,-0.73876 -3.16731,-0.41807 -1.2986,0.34286 -1.85024,1.88561 -3.43125,1.52823 -2.39398,-0.54029 -3.97763,-6.73766 -1.84762,-6.69967 m 23.49091,0.52789 0.26393,3.95915 m 7.49079,-4.48704 c 1.68925,0.71475 3.55267,3.3782 5.01493,5.27885 m -30.98169,-2.4829 v 2.37549 m 37.21592,-2.532 c 0.99241,2.65025 0.7364,5.64126 -0.18477,8.18223 -0.52787,1.45959 -1.29595,2.41797 -2.71861,2.90338 M 81.217489,13.313354 l 2.375484,1.8476"
       id="path48604"
       sodipodi:nodetypes="ccccccccccsccccccccccccccccccccccccccccccccccsccccccccccccccccccccccccccccccccscccccccccccccccccccccccccccccccccccccccccccsccccccccccccccccccccccccccccsscccccccccccccscccccccccscccccccccccscccscccccccccccccccccccccccccccccccccccccccccccccccccccccccssccccscccccccccscccscccccccscccscccccccccccccscscccccccccccccccccccccccccccsccccccccccccccccccccccccccccccccccsccccccscccccccccccccsccccccccccccccccccccccscccccccccccccccccccccccccccccccccccccccccccccccccccccccccccccccccccccccccccccccccccccccccccccccccccccccccccccccccccccccccc" /><path
       style="fill:none;stroke:#010101;stroke-width:0.205414"
       d="m 168.88368,47.230325 c -1.35135,0.139526 -1.61021,0.73199 -1.59841,1.887706 0.0102,0.993021 0.15271,1.797523 1.28893,2.331966 1.05324,0.495346 1.77525,-0.07825 2.64246,-1.193647 1.82038,-4.285231 2.72556,-8.935923 2.14825,-13.202013 -0.14398,-1.183764 -0.48816,-3.210527 -0.51935,-4.507941 0.99766,13.988382 0.77821,12.227398 1.56761,14.810345 0.72699,2.546179 0.82897,2.846335 1.55133,3.812818 m -40.67926,-16.898101 0.0198,0.821422 0.0247,1.02678 0.079,3.285679 0.8037,7.788704 0.20563,1.433373 0.059,1.025956 0.30412,4.102174 m 5.07549,-19.642102 0.23005,1.021832 0.19082,0.81732 0.0198,0.821411 0.0886,2.258096 0.26956,2.664675 0.0444,1.848204 0.23991,1.432548 0.45049,3.071291 0.059,1.025945 0.25966,2.253982 -0.17077,1.442424 M 40.641041,37.574607 c -0.102812,0.432613 -0.409183,0.902325 -0.615797,1.453136 -0.326138,0.869543 -0.634098,2.341192 -0.703181,3.509964 -0.02543,0.429137 -0.02751,0.590747 0.230043,1.021842 0.850427,1.288918 2.538012,1.372594 3.936322,1.343666 0.608057,-0.01462 0.963192,-0.233704 1.344687,0.378621 0.253905,0.407638 0.09771,1.098332 0.0052,1.643669 -0.176708,1.042513 0.04145,3.202349 0.201432,4.104643 0.13049,0.735329 0.05141,0.710734 0.0738,1.64202 M 25.345104,50.887299 c 0.256247,0.120407 0.473377,0.271958 1.035828,0.351718 0.584107,0.08311 1.63935,-0.159212 2.254798,-0.225378 0.428949,-0.0461 0.5785,-0.03901 1.021839,-0.230036 0.497842,-0.214578 1.860165,-1.025257 2.432171,-1.394067 1.112859,-0.717359 1.997508,-2.140993 1.742306,-3.021275 -0.544931,-1.880492 -4.038653,-2.779534 -5.784793,-2.737547 -0.728806,0.01752 -2.665084,0.07339 -3.28898,-0.05789 -0.472106,-0.09952 -0.99268,-0.05271 -1.282888,-0.654068 -0.320704,-0.664921 0.340579,-1.670416 0.733017,-2.277841 1.076471,-1.666691 1.900622,-2.384802 4.822638,-3.095342 2.93913,-0.843773 6.32882,-0.58453 8.940374,0.09323 M 7.8779702,42.266439 C 7.2427958,41.821564 6.2817491,41.139536 6.0245013,40.667212 5.934069,40.501168 5.4845674,40.062706 5.6868394,39.44248 c 0.1552339,-0.476036 0.6714138,-0.601314 0.8750537,-0.637461 0.5787343,-0.102702 2.0597778,-0.04953 3.0803343,-0.07407 0.8892686,-0.02138 1.0282826,-0.08422 1.6436656,-0.0052 0.360818,0.04629 0.4359,0.131914 0.825538,0.151378 1.440747,0.07193 3.283023,0.707428 4.327611,1.950677 0.388832,0.462768 0.364661,0.937652 0.239922,1.432549 -0.09354,0.371203 -0.323512,0.548021 -0.52785,0.83459 -0.231468,0.324606 -0.427057,0.634858 -0.557164,1.040771 -0.102655,0.320312 -0.324697,0.867928 -0.141495,1.236254 0.171781,0.345359 0.350022,0.338272 0.730266,0.461868 0.460801,0.149782 2.366201,0.846814 2.903782,1.128791 1.073959,0.563333 0.960584,0.450787 1.67165,1.158396 0.3685,0.366742 0.609598,0.621077 0.640755,1.011968 0.051,0.639854 -0.187257,1.116527 -0.410378,1.448184 -0.25663,0.381367 -0.982084,1.010094 -1.371985,1.334258 -2.320456,1.929717 -6.469666,3.599116 -8.978032,2.613148 m 71.31572,-0.755889 c 0.867578,0.712272 1.732593,0.650995 3.262912,0.400923 2.134497,-0.348856 4.132718,-3.434843 2.142043,-4.914477 -0.659644,-0.490213 -0.81023,-0.446115 -1.4523,-0.581498 -0.835581,-0.176135 -1.514067,-0.253313 -1.859723,-0.43465 -0.09298,-0.0489 -0.398926,-0.243556 -0.829654,-0.322579 -0.732457,-0.134232 -0.835659,-0.06823 -1.287346,0.57896 -0.276099,0.395397 -0.259693,0.692939 -0.31764,1.035001 -0.07777,0.458031 -0.215161,0.562429 -0.351718,1.035832 -0.0869,0.301061 -0.0238,0.435978 -0.01451,0.822246 0.1636,0.782728 0.144518,1.878069 0.707972,2.380241 z M 79.65609,53.622445 c -3.047971,-0.363533 -4.849691,-2.364964 -7.27715,-3.557865 -2.116481,-0.951543 -2.758738,-4.983412 1.060123,-7.182842 0.37872,-0.315004 0.878848,-0.682167 1.208273,-1.022192 0.658426,-0.679749 0.897893,-1.872152 1.031786,-2.661731 0.1017,-0.598772 0.147286,-0.796117 -0.303361,-1.225546 -1.026447,-0.978276 -2.102181,-0.135486 -2.86017,0.685195 -0.196255,0.212451 -0.512106,0.825995 -0.625673,1.04242 -1.69636,3.046666 -1.215702,10.389428 -1.469201,14.379 l 0.271314,-3.279656 c -0.03262,-2.00419 0.653773,-8.690634 -0.788682,-10.200498 -0.492307,-0.396954 -0.63258,-0.358915 -0.725215,0.191086 -0.257421,1.610018 -0.189114,2.695356 0.992758,3.574158 M 46.738531,39.071818 c -1.66906,1.790845 -1.072023,4.421567 -1.905419,6.210053 m 17.674367,-4.123536 -3.871302,1.360187 -2.835476,1.711976 c -1.15347,1.10621 -2.171398,1.884366 -2.831092,3.321417 -0.256663,0.545739 -0.536177,1.346211 -0.674303,1.865485 -0.151938,1.67764 0.226752,4.125278 1.462105,3.834534 8.034087,-4.649499 -2.543038,-7.727694 -3.453505,-9.745407 -0.160936,-0.429398 -0.08496,-0.747488 0.312701,-1.240371 0.543315,-0.673413 0.838454,-0.832412 1.334542,-1.470407 1.010902,-1.300113 1.240772,-0.952048 2.512896,-0.882322 m 46.785635,14.491055 c 0.64194,-0.03229 1.31107,-0.207415 1.83667,-0.523533 0.63579,-0.382675 0.96931,-0.722949 1.61404,-1.237555 0.38084,-0.303805 0.49778,-0.345037 0.8066,-0.635815 0.37894,-0.356776 0.45381,-0.405422 0.59715,-0.801938 0.15161,-0.419527 0.15652,-1.240927 -0.0395,-1.642845 -0.49904,-1.023184 -1.23734,-1.553842 -2.30828,-1.999244 -0.72353,-0.300876 -1.62746,-0.337294 -2.47991,-0.591107 -0.4466,-0.132877 -0.64291,-0.118709 -0.83541,-0.562014 -0.23186,-0.533389 0.12274,-1.151351 0.37614,-1.447362 0.60098,-0.701971 1.34267,-1.269507 2.21942,-1.697162 0.72848,-0.355303 1.03872,-0.578514 1.83337,-0.660517 m 45.38851,-0.885921 -2.85275,0.993227 -1.22474,0.33767 c -1.18159,0.1222 -2.29865,0.400405 -3.4812,0.494651 -1.32187,0.291745 -2.57775,0.227078 -3.90171,0.09382 m -6.80927,7.355332 c -0.73669,0.05653 -2.18613,0.354827 -4.13178,-0.928011 -1.19573,-0.788427 -1.77641,-1.139585 -2.17626,-2.207897 -0.23824,-0.635968 -0.40722,-1.220375 -0.18142,-1.844897 0.14661,-0.405648 0.26551,-0.468496 0.59632,-0.836237 0.95261,-1.058415 1.84149,-1.21197 2.44205,-0.983363 0.78179,0.29764 0.94129,0.752825 1.02457,1.310949 0.1026,0.685261 -0.14884,0.979587 -0.74763,1.661772 m -6.21005,-1.905413 c 0.17483,0.741667 0.47955,0.938783 0.46009,2.043675 -0.03,1.697531 -1.87671,5.85656 -3.96884,5.848714 -0.99767,-0.0038 -1.54646,-0.481022 -2.05383,-1.388932 -0.98299,-1.730502 -0.53253,-3.46398 -2.19895,-4.570298 m -21.3726,-0.136819 c 1.352028,-0.358187 0.986021,0.485039 2.076596,0.909015 0.700434,0.272263 1.097898,0.12154 1.653533,0.405501 0.433547,0.221351 0.864622,0.255367 1.212667,0.587271 1.015285,0.967401 -0.1356,2.3169 -1.13284,2.732507 -0.692269,0.28869 -1.038188,0.446807 -1.62555,0.758251 -0.33415,0.177347 -0.597539,0.22991 -0.815649,0.259397 -1.271857,0.172363 -1.987032,0.312642 -2.886504,-0.409962 -0.553978,-0.445095 -0.629075,-0.902321 -0.653922,-1.559643 -0.02022,-0.549576 0.0022,-0.992087 0.239168,-1.444069 0.433602,-0.826571 1.043935,-2.002801 1.932501,-2.238268 m 19.2248,4.811638 c -1.94265,-0.602097 -4.00266,-2.126582 -3.98076,-3.191869 0.32497,-1.28334 1.21221,-1.74195 2.13404,-2.069201 1.84287,-0.790008 3.44938,0.216041 1.55741,1.77496 -0.74067,0.5776 -1.54022,1.229131 -2.28083,1.705426 m 47.33939,-9.530487 c -0.16,3.177908 0.36388,7.640673 -0.0908,10.557793 0.21368,-8.026699 -0.0649,-13.949427 0.56472,-14.717735 0.46791,-0.570459 0.45009,-0.815707 1.20168,-1.295984 1.45784,-0.931537 3.32614,-0.49901 4.29874,0.75278 0.24893,0.32033 0.3521,0.902136 0.44034,1.222252 0.11752,0.42627 0.25298,0.548151 0.26435,1.021018 0.01,0.399833 -0.16411,1.353383 -0.29789,1.856434 -0.30185,1.136169 -1.17098,2.009436 -1.85568,2.578798 -0.77296,0.642711 -0.8084,0.877722 -2.02476,1.24736 -2.23917,0.752054 -3.12414,1.499669 -1.37651,2.567217 0.3354,0.207675 0.96967,0.975494 1.29687,1.235974 1.62161,1.29084 4.99201,4.289851 5.83583,4.859472 M 8.069686,67.329725 c 2.0679,-0.115613 3.7508,-0.333287 5.950375,-0.348558 0.466385,-0.0042 0.769605,-0.09637 1.20448,0.244941 0.520746,0.408904 0.424243,0.821144 0.575606,1.150573 0.140199,0.305257 0.528764,0.874123 0.748369,1.214856 0.885397,1.37347 1.867468,3.087958 2.709812,4.45527 0.526943,0.855468 1.09261,2.091767 1.169294,3.054007 0.03755,0.471273 0.0493,0.670297 0.1616,1.023477 0.18863,0.593197 0.404792,1.565844 0.259671,2.253983 -0.189955,0.900841 -0.313438,1.116481 -0.679241,1.660127 -0.336181,0.499574 -0.331637,0.561314 -0.830964,1.047343 -0.715562,0.69651 -1.513713,0.774878 -2.441224,1.01765 -1.554903,0.406832 -1.833297,0.294151 -2.874153,0.10328 -0.7015,-0.128608 -1.157299,-1.056456 -1.265876,-1.373571 m 2.467107,-15.606946 4.517823,-0.108634 m 22.846804,0.2041 c 0.01177,0.489569 0.253894,2.013711 0.279423,3.075405 0.0104,0.43268 -0.02515,0.551887 0.05899,1.025945 0.08698,0.490026 0.1837,0.777827 0.200689,1.228025 0.0082,1.648316 0.397789,3.691664 0.666186,4.915353 -0.04649,1.659207 -0.0775,3.791705 -0.28232,5.349128 -0.150274,0.885709 -0.120129,0.703749 -0.09253,1.851484 M 103.648,85.784432 c -0.94981,-2.346628 -0.92216,-4.708822 -0.99918,-7.373049 -0.75545,-3.10089 -0.0681,-7.349895 -2.51882,-3.637965 -0.738194,1.341946 -1.102867,2.785789 -1.612671,4.148264 -1.77328,3.664901 -2.675128,4.646674 -2.615577,0.884779 0.464701,-12.350464 -2.66879,2.297461 -2.961855,5.002604 M 108.49303,73.647682 c 0.75632,-0.01819 2.80794,0.330896 3.70627,0.321834 0.35989,-0.0041 0.79085,0.07651 1.43502,-0.137239 0.56384,-0.187181 0.87611,-0.172296 1.02349,-0.161661 0.60556,0.04425 0.8707,0.01334 2.25973,-0.02006 m -22.623969,3.260165 -1.353675,7.898315 M 113.63432,73.832242 c 0.003,0.109061 0.0433,0.454086 0.0296,1.23214 -0.11593,1.906679 -0.48857,3.918535 -0.47785,5.764771 0.009,0.925846 0.0503,2.092564 0.0839,3.491036 0.0224,0.931088 -0.081,0.913434 0.24486,1.637906 1.50617,-0.426624 3.63102,-0.133913 4.90385,-1.145279 m 10.23097,-11.752584 c -0.21892,2.461357 -0.75114,4.347517 -0.89812,6.802252 -0.0106,0.338667 0.0457,0.47519 0.054,0.820598 0.0877,1.958111 0.53389,3.797758 0.75429,5.735143 m 11.64419,-9.937283 2.02804,-1.110446 2.22682,-1.389131 c 1.12533,0.04987 1.5296,-0.118484 1.87125,0.913953 l -0.63014,2.275366 c -0.52954,1.309317 -1.08504,2.60723 -1.54902,3.941257 0.0829,3.07339 0.54317,2.149465 3.63185,2.926366 l 1.64449,0.02891 m -98.886549,2.258782 c -1.847635,-1.80009 -3.418501,-4.44849 -5.07667,-6.042163 -2.025243,-2.123507 -2.205944,-3.695064 0.302083,-4.527693 0.604666,-0.184641 1.222125,-0.316423 1.838324,-0.455146 l 1.833386,-0.660506 m 74.283426,-0.0234 c -0.62776,1.049047 -1.71113,3.677631 -0.29879,4.664676 0.51327,0.358739 1.59858,0.63983 2.07002,0.635072 0.35456,-0.0039 0.6596,-0.01586 1.02677,-0.02469 l 1.23214,-0.02963 m 34.17585,-5.753167 c 0.8662,-0.02083 3.99388,0.472516 4.53348,0.541728 2.23853,0.632855 1.95214,0.141384 0.43364,1.332443 0.17757,0.334761 1.5879,0.747457 2.29687,1.136018 0.98175,0.537948 1.68669,0.912011 2.16391,1.694495 0.49326,0.808386 0.64086,1.981592 0.62176,3.067161 -0.0217,1.227202 -0.86919,2.596321 -1.76426,3.535489 -0.35393,0.371376 -0.77391,0.713729 -1.20909,0.988022 -0.44712,0.281772 -0.7016,0.405418 -1.21896,0.577106 -1.44283,0.479129 -2.65026,0.331251 -3.50257,-0.395159 M 26.442189,79.421835 c -0.407788,0.02027 -1.421962,0.124839 -2.041211,0.562769 -0.566713,0.400944 -0.965451,1.464206 -0.25207,2.334703 0.393949,0.480786 1.13742,0.389555 1.549222,0.339594 3.213449,-1.887471 2.362759,-4.164929 3.175075,-1.396301 0.434636,1.481371 3.620524,2.945593 3.951589,3.69022 m 99.948756,-9.868643 c 0.26113,-0.09529 0.50948,-0.115448 0.82143,-0.01975 0.32415,0.09947 0.49732,0.242421 0.83459,0.527937 0.50338,0.426381 0.83042,0.773166 1.2667,1.407859 m -2.92272,-1.916045 c -0.42937,0.156835 -0.62524,0.393322 -0.87169,0.774444 -0.33699,0.520965 -0.49832,1.81851 -0.1804,2.470029 0.16556,0.339569 0.39164,0.649119 0.77525,0.905989 0.32684,0.218989 0.63022,0.257099 0.99991,0.284166 4.4545,-0.897004 1.21927,-5.408298 2.92436,1.98443 0.15826,1.772717 0.44483,3.681677 0.94483,5.114131 M 52.89559,85.771878 c 0.310941,0.985173 3.334821,1.639632 3.823496,-0.502894 -0.0979,-1.206616 -0.950978,-2.260846 -1.614237,-3.043296 -0.861843,-1.2211 -2.97931,-2.137337 -2.553147,-3.637141 0.190027,-0.599629 0.6124,-0.662789 1.183023,-0.644865 0.766383,0.0241 1.72827,0.154866 2.474143,0.35145 M 157.2339,75.454959 c 1.11014,0.664324 1.85566,1.000011 2.71406,1.78401 1.81674,1.145506 4.05317,3.786827 1.15929,5.485622 -1.87742,1.076214 -4.60504,0.934267 -6.38166,-0.497089 -0.34531,-0.278326 -0.46294,-0.444809 -0.66847,-0.737397 -0.43449,-0.759374 -0.88796,-1.755821 -0.81208,-2.446164 0.0707,-0.618947 -0.009,-1.26016 0.37366,-1.550036 0.53195,-0.402792 1.56889,0.259793 2.03655,0.670183 m -85.079332,8.00455 c -0.06832,-2.068051 0.481883,-5.87441 2.19823,-7.168673 0.714637,-0.455577 1.552524,-1.143324 2.327429,-1.159122 1.15941,-0.01184 2.033006,1.616688 2.4991,2.816542 0.797269,2.052011 0.316417,3.203954 0.984106,5.318674 m -8.191568,-7.40558 c 0.367596,3.100908 -0.211186,7.033432 0.182703,7.598159 m -8.623769,-6.497787 c 4.176591,0.891919 7.403583,3.389094 3.889074,6.132267 -1.06696,0.806042 -2.804697,1.205974 -4.098059,0.475166 -0.889251,-0.502368 -1.578501,-1.428927 -1.699632,-2.322079 -0.08217,-0.606228 -0.105899,-0.695037 -2.65e-4,-1.438311 0.08223,-0.57957 0.53366,-1.946556 0.767105,-2.278672 0.361786,-0.514983 0.820846,-0.684654 1.380975,-0.957836 0.69463,-0.07376 1.0994,-0.02688 1.330029,0.08249 M 39.933504,85.05622 c -1.162276,0.243082 -1.060604,0.224403 -2.051087,0.152053 -4.341088,-1.04448 -3.459511,-2.698886 -3.377037,-3.720062 0.08754,-1.007701 1.088595,-2.965485 1.490514,-3.528906 0.439685,-0.616522 0.53682,-0.823917 1.495997,-0.446927 m 48.055228,7.474405 c 0.498501,0.667107 0.465616,1.743548 0.474909,2.659738 0.0074,0.742613 -0.07887,0.944203 -0.434652,1.859723 -0.254073,0.653558 -0.959587,1.469201 -1.560212,2.057948 -0.280421,0.275092 -0.641821,0.472814 -1.183016,0.644867 -1.064848,0.338544 -0.427126,0.250064 -1.84244,0.284097 m 28.797052,-7.267612 c 1.24591,0.835658 2.28262,0.767011 3.71614,0.73254"
       id="path141855"
       sodipodi:nodetypes="cccccccccccccccccccccccccccccccccccccccccccsccccccsccscsccccsccccccccccccccccccccccccccccccccccccccccscccccscsscccccccccccccccscccsscccccccccccccccccccccccsscsccccccccccssccsccccccscccccccccccccccccccccsccccccccccccccccccccscscccccccscccccccsccccccccccccccccccccccccccccccccccccccccccccccccccsccc" /></g></svg>
