<?xml version="1.0" encoding="UTF-8" standalone="no"?>
<!-- Created with Inkscape (http://www.inkscape.org/) -->

<svg
   width="210mm"
   height="297mm"
   viewBox="0 0 210 297"
   version="1.1"
   id="svg77558"
   inkscape:version="1.2 (dc2aedaf03, 2022-05-15)"
   sodipodi:docname="Casey - Pulsz - Envelope 55.svg"
   xml:space="preserve"
   xmlns:inkscape="http://www.inkscape.org/namespaces/inkscape"
   xmlns:sodipodi="http://sodipodi.sourceforge.net/DTD/sodipodi-0.dtd"
   xmlns="http://www.w3.org/2000/svg"
   xmlns:svg="http://www.w3.org/2000/svg"><sodipodi:namedview
     id="namedview77560"
     pagecolor="#ffffff"
     bordercolor="#666666"
     borderopacity="1.0"
     inkscape:pageshadow="2"
     inkscape:pageopacity="0.0"
     inkscape:pagecheckerboard="0"
     inkscape:document-units="mm"
     showgrid="false"
     inkscape:zoom="2"
     inkscape:cx="270.5"
     inkscape:cy="111.25"
     inkscape:window-width="1920"
     inkscape:window-height="991"
     inkscape:window-x="-9"
     inkscape:window-y="-9"
     inkscape:window-maximized="1"
     inkscape:current-layer="layer1"
     inkscape:showpageshadow="2"
     inkscape:deskcolor="#d1d1d1" /><defs
     id="defs77555"><pattern
       id="EMFhbasepattern"
       patternUnits="userSpaceOnUse"
       width="6"
       height="6"
       x="0"
       y="0" /></defs><g
     inkscape:label="Layer 1"
     inkscape:groupmode="layer"
     id="layer1"><path
       style="fill:none;stroke:#3b3b42;stroke-width:0.069341"
       d="M 7.7573029,1.5229216 C 7.2712272,1.2184701 5.9890284,1.3117313 6.2035747,2.0083098 7.4742364,3.5345417 9.092914,4.7823171 5.9544311,4.5739384 M 25.716673,2.1469926 c 0.148794,0.8352386 0.360881,1.3877125 0.549944,2.2189177 l 0.03599,0.4853884 0.17682,0.7627532 m 0.27237,-2.5144709 c -1.380715,0.6733855 -0.210938,1.4191687 0.416045,1.9609918 0.23382,0.2001039 0.325559,0.3334892 0.624072,0.2579348 M 21.5562,3.8805174 C 21.861093,4.1694559 22.34558,4.2012487 22.665659,4.088541 22.600067,3.9172542 22.295239,2.9606025 22.18249,2.6326949 22.124782,2.346952 22.086628,2.2163285 22.388367,2.2163285 m 14.006889,0.3467073 c -0.446625,-0.063142 -0.571297,0.2515837 -0.662139,0.6240702 -0.05395,0.2211017 -0.179111,0.3592922 -0.269282,0.5547308 -0.122042,0.2644114 -0.152553,0.6854725 -0.226955,0.9707757 -0.08085,0.3101919 -0.06325,0.4976758 -0.07095,0.8294329 -0.0077,0.3317572 0.0012,0.4951329 0.103536,0.7654173 0.250736,0.6620001 0.635303,1.0397719 1.333778,1.0399794 0.289984,1.565e-4 0.449608,-0.029612 0.762752,-0.069205 M 10.946997,3.325793 C 11.396745,3.5713711 11.432871,4.7671257 10.805333,4.8956015 10.497111,4.9586907 10.199916,4.7121934 10.093615,4.4342876 10.004165,4.2003791 9.9920958,4.0799063 9.97622,3.9498632 m 9.707766,1.5255071 c 0.271818,0.3541106 1.730756,1.1417017 1.826379,0.2050268 0.07808,-0.765075 -1.320951,-1.0978987 -1.523219,-1.7321904 -0.1115,-0.349674 0.314879,-0.4030671 0.524844,-0.2941185 0.213432,0.1107384 0.226884,0.1989822 0.281456,0.2957752 m -8.033927,-4.4e-6 c 1.526879,-1.5674504 -2.002891,-0.3707601 0.337055,0.832103 m 1.231269,-0.3439295 c 0.391496,-0.1019121 1.016493,-0.301852 0.831217,-0.6553772 -0.129876,-0.2477986 -0.652433,-0.028533 -0.810253,0.043074 -0.718473,0.4795777 0.251388,1.2106358 0.689321,1.3722778 M 22.665659,4.088541 c 0.192323,0.026919 0.392378,0.040952 0.527813,0.1626844 m 5.64355,1.7788749 C 28.122253,5.6426767 27.895093,5.2542274 28.074269,4.504594 c 0.03648,-0.1526063 0.04216,-0.2177177 0.15602,-0.3197395 0.08369,-0.075013 0.143396,-0.074099 0.233055,-0.1252029 0.198871,-0.11331 0.378812,-0.2250746 0.651044,-0.171425 0.59064,0.3944097 -0.317423,0.8220774 -0.693411,0.9630723 m 1.941554,1.8028746 c 0.220714,-0.086305 0.415978,-0.151344 0.623794,-0.2458497 0.250321,-0.1138167 0.506607,-0.3654485 0.520892,-0.6555867 0.04175,-0.8494639 -1.05038,-0.72128 -1.349448,-1.2626405 -0.195337,-0.3535846 0.247754,-0.449553 0.482129,-0.4708884 m 10.193155,2.9123214 c 0.0012,-0.2905819 0.09416,-0.7713612 0.340109,-1.0621657 M 8.8667613,4.227233 c 0.061174,0.6102108 0.5247632,1.1083448 1.2268537,0.2070546 M 22.665659,4.088541 22.943024,5.6833887 m 1.745469,-0.8977291 c -1.601473,-1.2181734 -0.924431,0.6568837 -0.497328,0.6638672 0.259823,-0.018343 0.509519,-0.3178739 0.749995,-0.3078134 0.231947,0.00966 0.447805,0.4420153 0.636829,0.6110201 M 45.201551,5.1980067 c -0.409668,-0.035594 -1.130055,0.1710989 -0.898175,0.6166297 0.171548,0.3295955 0.737995,0.335695 1.036859,0.4179758 0.619424,0.170544 1.476064,0.7412222 0.998512,1.4605676 -0.351762,0.3780633 -0.547442,0.5834336 -0.998513,0.7638637 M 16.910342,5.2673489 C 17.372621,6.0601257 18.147884,5.2943916 18.253965,4.781958 18.305623,4.4721141 18.143643,4.1419806 17.998096,3.8807923 17.898314,3.701837 17.708803,3.3917748 17.479632,3.482233 17.103382,3.6307209 17.083004,4.3091065 17.000554,4.6370691 16.751945,5.3925319 16.478272,6.2182435 16.289973,6.7732687 M 38.10101,5.9612259 c 0.115413,0.409322 -0.390955,1.0107831 0.832091,1.0037902 1.898522,-0.7806893 -1.438788,-1.6643625 -0.526984,-0.9349184 m 3.744426,0.5547265 c -0.0012,1.0309276 0.404409,-0.00823 0.557709,-0.2773159 0.09361,-0.1630904 0.286795,-0.526252 0.510421,-0.4038986 0.269252,0.1472809 0.249143,1.1045421 0.24935,1.3746271 M 40.833057,4.5045976 40.902397,4.1578913 M 29.738463,6.8621901 h 0.416048 M 24.399189,25.514981 c 0.09028,0.363763 0.209757,0.510975 0.314532,1.109459 0.115592,0.659921 0.05789,1.153421 0.02947,1.802872 -0.0219,0.500294 -0.21565,1.114241 0.0027,1.525507 M 20.0307,27.109827 c 0.335473,-0.319316 0.17044,-0.912947 0.569569,-1.087824 0.603893,-0.264537 1.487993,1.112995 1.260138,1.642484 -0.116633,0.271194 -0.382626,0.502515 -0.650906,0.617969 -0.178484,0.07669 -0.441565,0.05624 -0.623725,0.03654 m -0.405925,0.169698 -0.238268,-1.220368 -0.188261,-0.713243 m -9.499719,2.149583 c -0.0129,0.278058 0.005,0.429084 -0.227371,0.630658 C 9.8661757,29.474149 9.6449092,29.598685 9.4214917,29.582806 8.9985796,29.552854 8.6886931,29.117457 8.5326762,28.774012 8.4340742,28.556903 8.3339439,28.378975 8.362997,28.150008 8.4143778,27.744017 8.6547156,27.656576 9.0054447,27.733893 m 25.9336063,-0.06934 c -0.833028,-0.01816 -0.766137,1.359394 -0.683286,1.872223 0.06089,0.357106 0.224804,0.587875 0.544883,0.776413 0.28832,0.169749 0.560278,0.246232 0.901157,0.263706 M 25.231284,29.606107 c 0.271263,0.02144 0.673996,0.13043 1.039771,0.0136 0.331728,-0.105955 0.519712,-0.436504 0.334641,-0.763587 -0.710654,-0.667805 -1.485913,-1.297761 0.08175,-0.914192 m -14.908357,0 c 0.641128,0.348439 0.123496,1.627782 -0.358772,1.935381 -0.634748,0.404815 -1.137959,-0.219891 -1.394105,-0.541981 m 5.4973,-1.185379 c 0.27175,-0.06213 0.439555,0.02454 0.652433,0.208718 0.254829,0.220435 0.318622,0.289016 0.204451,0.736024 -0.11417,0.447008 -0.847244,1.359884 -1.521934,0.571543 -0.241305,-0.281938 -0.241524,-0.329527 -0.384159,-0.610986 m -1.377732,-0.9053 c -0.0045,0.216484 -0.04687,0.399266 -0.05131,0.624071 -0.0043,0.215165 0.05041,0.437197 0.211005,0.59675 0.501129,0.49773 1.401247,-0.20102 1.365814,-0.735433 M 5.7464077,28.288634 c 0.822594,-0.151718 1.0510037,0.890549 0.6925107,1.519057 C 6.0791759,30.43835 4.9704803,30.744907 4.3596532,30.323589 3.5826461,29.73961 3.9241079,29.013452 3.1794454,29.948869 2.2279672,30.842964 0.56367693,28.219293 1.79396,28.219293 m 25.933607,0 c 0.479548,-0.04568 1.185179,-0.01369 0.887013,0.416115 -0.194433,0.266896 -0.467569,0.504597 -0.348858,0.828975 0.235276,0.643141 1.206954,0.378188 1.680763,0.280416 m -9.766651,-1.256101 0.197566,1.741489 m 16.572549,-1.66419 c 0.253026,-0.06899 0.537326,-0.112886 0.832093,-0.05699 1.301817,0.457291 1.012016,1.429587 -3e-6,1.792878 -0.392888,0.137155 -1.00614,0.103805 -1.234689,-0.352047 -0.08932,-0.178205 -0.04279,-0.51472 0.0631,-0.670043 0.19797,-0.290402 0.34005,-0.140901 0.6862,-0.08973 m 2.426948,-0.693399 c 0.151611,1.96778 0.08164,1.405766 0.8433,0.04713 0.466113,-0.476027 0.582896,0.383635 0.68218,0.715592 0.119961,-0.09424 0.26849,-0.186875 0.397187,-0.417157 0.165793,-0.296851 0.419306,-1.163338 0.836185,-1.163338 0.220713,0 0.275769,0.453768 0.305656,0.609718 0.128905,0.672194 0.0066,1.000386 0.125159,1.525506 M 6.439819,28.565997 6.5785015,28.843364 M 22.249611,28.635339 c -0.01269,0.295394 -0.166697,0.607985 0.01249,0.879387 1.379465,0.647512 0.852204,-2.056661 1.651707,0.02205 M 3.7366458,29.001597 3.6673038,29.486985 M 32.512104,29.259409 h 0.208026 m -14.561648,0.624074 h 0.138682 m 88.548706,8.73699 c 0.0153,0.347676 0.0798,0.610688 0.13869,1.040115 0.12204,0.88646 0.33352,1.815007 0.45557,2.704309 0.17543,1.269289 0.19901,2.551751 0.31897,3.813761 0.0874,0.918636 0.12689,1.709338 0.12689,2.704305 0,1.068828 -0.0694,2.639481 -0.0694,3.536407 M 94.295112,39.244542 c 0.129664,0.50432 0.74195,1.534383 1.147594,2.218919 0.318973,0.538296 0.596339,1.079088 0.932644,1.594842 0.429909,0.659164 0.855667,1.455682 1.284896,2.149579 0.391773,0.633363 1.264692,1.706164 1.541361,2.370448 m 26.505073,-1.746371 c -0.32175,-0.546 -0.63725,-1.117717 -0.75582,-1.733537 -0.15741,-0.813854 -0.0798,-1.653991 0.23228,-2.426938 0.18654,-0.461534 0.44033,-1.133312 0.93958,-1.324903 0.50551,-0.193808 0.96107,0.05374 1.2745,0.424509 0.33699,0.398364 0.49926,0.756164 0.66706,1.17776 m 14.21495,-1.386824 c 0.0394,0.863852 0.20248,1.762583 0.29748,2.565619 0.0291,0.246789 0.0485,0.428599 0.0492,0.693419 8.9e-4,0.998021 -0.10262,1.963324 -0.1269,2.91233 -0.005,0.191314 -0.0146,0.365842 -0.041,0.554725 -0.0569,0.404471 -0.12274,0.840423 -0.1789,1.248145 -0.1054,0.768578 -0.21218,1.520516 -0.28915,2.288262 -0.0417,0.414308 -0.0575,0.841867 -0.0575,1.178804 m -32.38234,0.485382 c 0,-0.719344 0.086,-1.513089 0.1789,-2.218921 0.0333,-0.254963 0.0166,-0.438237 0.0409,-0.693409 0.0207,-0.219679 0.0513,-0.345598 0.0568,-0.554735 0.007,-0.285408 5.5e-4,-0.631899 5.5e-4,-0.970777 0,-0.750474 -0.0381,-1.517732 -0.0721,-2.218911 -0.008,-0.172035 -0.0368,-0.314188 -0.0547,-0.485393 -0.0645,-0.597373 -0.16364,-1.3353 -0.26072,-1.941553 -0.12619,-0.784106 -0.24131,-1.487228 -0.23645,-2.218917 0.002,-0.319315 0.0728,-0.687242 0.41604,-0.346706 m -8.52896,0.346706 c 0.0894,0.391016 -0.0402,0.402319 -0.13521,0.762754 -0.20873,0.794236 -0.31066,1.806622 -0.43824,2.634965 -0.17336,1.121738 -0.46875,2.254766 -0.800895,3.328371 -0.347404,1.120564 -0.769692,2.207766 -1.278653,3.25904 -0.495786,1.024237 -1.116398,2.077464 -1.438134,3.189698 m 61.297662,-5.810977 c -0.0748,-0.137989 0.0599,-0.313102 0.0983,-0.568418 0.0804,-0.530806 0.13729,-1.03047 0.20803,-1.525503 0.0311,-0.216346 0.0394,-0.397324 0.0402,-0.624067 5.6e-4,-0.554112 -0.0485,-0.96149 0.0117,-1.594854 0.0298,-0.311197 -0.16503,-1.595954 0.33493,-1.456159 m 12.34275,0.138683 c 0.027,0.346429 0.0596,0.44662 0.11718,0.762751 0.10887,0.602162 0.11164,1.321018 0.17196,1.941554 0.0194,0.20359 0.0555,0.351841 0.0555,0.554724 0,0.293593 -0.0631,0.495106 -0.0673,0.832094 -0.003,0.321189 -0.0311,0.647789 -0.0874,0.970777 -0.036,0.210528 -0.0381,0.334297 -0.0638,0.554735 -0.0291,0.24789 -0.10817,0.364388 -0.16434,0.624067 -0.0458,0.214196 -0.0818,0.409809 -0.14076,0.624077 -0.20733,0.759417 -0.36265,1.674032 -0.79187,2.357594 M 149.34132,43.39295 c 0.42852,-0.05754 0.85635,0.137926 1.31747,0.138685 0.4625,8.3e-4 0.92432,0.05702 1.38683,0.06835 0.66359,0.0163 1.43882,0.01475 2.01089,0.41709 m -2.69386,0.28942 c 0.0402,0.331659 0.17059,0.661033 0.20179,1.10946 0.0124,0.173427 0.005,0.303782 0.0264,0.485393 0.027,0.23014 0.0478,0.384217 0.0492,0.624067 0.002,0.544744 -0.0173,1.197593 -0.11163,1.733528 -0.077,0.434218 -0.20665,0.892492 -0.29541,1.317487 -0.0575,0.276807 -0.15253,0.488302 -0.18028,0.761432 -0.0547,0.528934 1.55948,0.278687 1.97414,0.278687 m -16.68624,-4.990418 0.20801,0.485394 m 37.28059,-0.279518 0.27737,0.138684 m -48.40003,-0.138684 c 2.07803,1.390743 5.05491,4.060424 2.14976,5.566712 -1.08656,0.325625 -2.23486,0.219597 -3.18968,0.04996 m 45.54412,-3.189767 1.24815,0.277357 m -67.52549,4.576601 c -0.24408,0.02202 -0.44586,0.05016 -0.69341,0.08715 -0.6629,0.09888 -1.4319,0.08476 -2.08023,-0.154077 -0.65667,-0.242001 -1.205158,-0.819266 -1.245377,-1.527943 -0.04159,-0.74098 0.261427,-1.461634 0.766227,-2.010895 0.23714,-0.257529 0.78772,-0.68509 1.10321,-0.821208 0.24686,-0.10636 0.41883,-0.196019 0.69341,-0.269941 0.30095,-0.08102 0.769,0.145134 0.89659,0.403983 0.25865,0.524987 -0.37028,1.065638 -0.75791,1.385851 -0.38276,0.316474 -1.16424,0.914616 -1.59484,0.410775 m 56.23571,-2.288252 0.62408,0.120787 0.41603,0.100856 0.62409,0.194439 m -46.59718,-0.34672 c 0.71836,0.205388 1.71687,0.768028 1.79523,1.594844 0.0249,0.264821 -0.0111,0.452114 -0.0825,0.69342 -0.22119,0.739245 -1.17811,1.168124 -1.92075,1.097183 -0.28499,-0.02731 -0.60605,-0.111367 -0.82517,-0.294142 -0.26558,-0.222173 -0.36542,-0.525747 -0.35016,-0.872383 0.0104,-0.252959 0.10955,-0.564925 0.29261,-0.698686 0.15117,-0.110047 0.25171,-0.128141 0.39733,-0.135007 0.13453,-0.0063 0.34186,0.07488 0.48539,0.140273 m 59.34307,-1.386904 0.48539,0.208016 m -13.64739,-0.194333 c -0.0762,0.591203 -0.46234,1.894532 -0.69325,2.621365 m -41.74336,-2.426939 c -0.0964,0.146027 -0.28221,0.605558 -0.3259,0.970776 -0.0306,0.251152 0.0131,0.503758 0.0874,0.762751 0.16919,0.589126 0.73432,0.893323 1.27866,0.695497 0.51103,-0.185705 0.51867,-0.545647 0.62406,-0.972865 M 154.622,49.02173 c -0.54913,2.759214 0.18392,0.709179 0.83486,0.259544 0.35573,-0.23042 0.59843,0.01173 0.69551,0.364596 0.147,0.531926 -0.0756,1.130888 -0.14354,1.664123 m -26.05388,-1.895152 c 0.3051,-0.129804 0.56752,0.190333 0.81367,0.286857 0.18792,0.07375 0.35781,0.0052 0.55474,0.02763 0.39248,0.04559 0.87162,0.450369 0.86399,0.887289 -0.0174,0.939502 -1.547,1.473848 -2.24942,0.991373 -0.77025,-0.499647 -0.62599,-1.88877 0.017,-2.193146 z m 30.21851,1.248642 c 0.35711,-0.0043 1.37642,-0.329155 1.49707,-0.743753 0.0665,-0.228124 -0.21495,-0.326662 -0.39177,-0.378597 -0.1907,-0.05599 -0.30996,-0.0914 -0.48554,-0.07044 -0.28169,0.03375 -0.59788,0.180692 -0.75321,0.45375 -0.25188,0.834837 0.27807,1.135907 0.75305,1.593619 m -25.58691,0.762667 c -0.55958,0.03314 -2.04279,0.154628 -2.13917,-0.762824 -0.061,-0.577888 0.5256,-1.255633 0.87369,-1.66377 0.23369,-0.273972 0.41467,-0.475609 0.71076,-0.208369 m -15.32441,-0.138683 c 0.40148,0.253301 0.70451,0.553551 0.74196,1.040118 0.0228,0.2981 -0.12274,0.552513 -0.33007,0.75547 -0.69549,0.682315 -2.05965,0.356786 -2.45698,-0.403192 m 22.15405,-1.115029 c -0.76555,-0.17967 -1.87153,0.998582 -1.55255,1.795308 0.28151,0.70444 1.29181,-0.08259 1.53798,-0.411263 1.16008,-1.945934 0.94861,0.104356 1.40138,1.25096 m 34.53192,-2.56562 c -0.27667,0.540858 -0.54572,1.193499 -0.46528,1.802869 0.0353,0.267792 0.12966,0.693762 0.52838,0.568592 0.85844,-0.269381 0.96383,-1.455402 1.60109,-1.95542 m 2.77364,2.565673 c -0.53808,-0.0045 -0.95275,-0.03162 -1.5255,-0.199218 -0.72669,-0.212533 -0.95484,-0.736753 -0.46806,-1.395626 0.25536,-0.56204 1.37159,-1.885495 2.05111,-1.178802 0.0451,0.216408 0.0496,0.477859 -0.044,0.638387 -0.26781,0.531218 -0.88734,0.743332 -1.24537,0.679207 m -17.07426,1.317368 c 0.25032,-0.364523 0.2628,-0.566513 0.48678,-0.901435 0.32728,-0.490867 1.10876,-2.304902 1.94017,-1.45617 m 5.68597,2.63493 c -0.55266,-0.114004 -1.47973,-0.19659 -1.80079,-0.832373 -0.33977,-0.671773 0.59633,-1.788868 1.31539,-1.663915 m -19.17107,-0.07066 1.10946,-0.06938 m 22.2023,-0.573292 c -0.20455,0.383935 -0.39071,1.906958 -0.25764,2.308239 m -6.03268,1.109451 c -0.87586,-1.53602 -0.70859,-0.419741 -1.73354,-0.291504 -0.18236,0.01859 -0.38831,-0.01164 -0.51312,-0.154628 -0.11164,-0.12864 -0.1158,-0.273005 -0.10678,-0.455303 0.0174,-0.352318 0.1574,-0.706164 0.36958,-0.969457 0.31274,-0.386647 0.68441,-0.450993 0.94374,-0.07063 m -29.36779,0.627028 -0.20946,-2.207579 M 96.860414,64.207623 c 0.02567,-0.596822 0.08112,-1.289328 0.0118,-1.941553 -0.06377,-0.593073 -0.137293,-1.005168 -0.173353,-1.525502 -0.01181,-0.163996 0.0054,-0.259409 -0.0018,-0.416052 -0.0072,-0.157681 -0.05268,-0.25379 -0.02701,-0.416041 0.03533,-0.21593 0.08872,-0.284368 0.140065,-0.485394 0.09292,-0.366257 0.549877,-1.263537 1.0214,-1.410821 0.929174,-0.28978 1.73769,1.00954 1.774439,1.757531 0.02978,0.605755 -0.60674,1.019376 -1.081027,1.225533 -0.209413,0.09109 -0.351562,0.127653 -0.554724,0.148458 -0.197626,0.02015 -0.426456,-0.01984 -0.624082,-0.05651 m 9.569098,-1.45616 c -0.0187,-0.155676 -9e-4,-0.163996 -0.13869,-0.416052 -0.0977,0.436431 0.2212,0.789321 0.34671,0.970777 0.0756,-0.105186 0.16988,-0.217176 0.20732,-0.485529 0.0215,-0.157608 0.07,-0.386293 0.12828,-0.554589 0.19486,-0.565819 0.71144,-1.128593 1.32859,-0.75249 0.3578,0.218008 0.68161,0.592793 0.68024,1.029857 0,0.207184 -0.18307,0.461743 -0.0562,0.624067 l 0.0694,-0.06938 m 21.91182,-1.178803 c -0.0874,0.692443 -0.043,1.223393 -0.14979,2.080238 -0.16363,1.315409 -0.8515,2.526317 -0.95967,3.883107 m -5.5473,-5.824661 c 0.24201,0.555847 0.14354,1.008013 0.0575,1.80288 -0.11579,1.081852 -0.45418,2.031628 -0.54294,3.120345 m -21.91184,-3.883106 -0.13869,-0.208016 c 0.233,0.152125 0.47499,0.278885 0.65806,0.499873 0.40217,0.48664 0.25239,1.267495 0.0139,1.78838 -0.34532,0.753808 -1.25022,2.15658 -2.26677,1.624457 -1.358387,-0.710745 -0.607431,-2.408771 -0.086,-3.427326 0.15393,-0.300458 0.44724,-0.973893 0.79118,-1.05731 0.28083,-0.06793 0.42575,0.321252 0.33562,0.489539 -0.0951,0.176408 -0.2427,0.227792 -0.34741,0.290403 m 0.48539,-0.554726 c 0.26904,0.162398 0.19693,0.301009 0,0.416042 m -5.47796,-0.277357 0.277366,0.416041 m 30.648804,3.883117 c 0.34256,0.119531 1.57197,-0.262462 1.41735,-0.900406 -0.15048,-0.622614 -1.28352,-1.159172 -1.83339,-1.346673 -0.34532,-0.11788 -0.65181,-0.159687 -0.84319,-0.529559 -0.16295,-0.315362 0.0153,-1.2306 0.44032,-1.315959 0.22952,-0.04611 0.44586,0.106651 0.68024,0.200475 0.76344,0.305577 1.26895,0.286299 1.94155,0.425056 m -26.97373,-0.554735 h 0.0694 m 11.02525,0.901445 h -0.27737 c 0.30927,0.153309 1.18644,0.6475 1.25023,1.386818 0.025,0.295119 0.043,0.367576 0.002,0.624067 -0.0458,0.284514 -0.21011,0.590725 -0.43547,0.826349 -0.25864,0.270149 -0.67607,0.371596 -1.02486,0.265776 -1.17742,-0.357034 -1.32788,-1.510731 -1.31748,-2.617626 0.003,-0.383386 0.0757,-1.141286 0.43754,-1.334822 0.3266,-0.174872 0.52769,0.539685 0.67955,0.664502 0.20941,0.172451 0.24824,0.06429 0.20039,-0.02306 h -0.0694 m 5.61664,-0.69342 -1.40554,1.386829 -0.42229,0.534896 -0.50896,0.693419 -0.57554,1.129279 m 0.27737,-3.467055 c 0.0187,0.287629 0.0617,0.342689 0.13868,0.485393 l 0.13868,-0.208026 m -8.73698,-0.208025 c 0.20039,1.078809 0.22189,1.996125 0,3.189698 m 2.14956,-3.189698 c -0.15948,0.256012 -0.53601,0.585168 -0.40633,0.898453 0.23853,0.577888 1.46171,0.652299 1.41802,1.528494 -0.0166,0.335398 -0.22674,0.644871 -0.47706,0.859139 -0.36057,0.308767 -0.7898,0.439963 -1.22804,0.535655 -0.27944,0.06108 -0.41119,0.06066 -0.6934,0.06139 m 7.97423,-3.397724 c 0.19415,0.392204 0.37375,0.666446 0.62407,0.970787 m -0.0694,0.138674 c 0.24617,0.319455 0.49302,0.965864 0.62407,1.45617 m 8.94501,0.416041 c 0.39664,0.125856 0.69343,0.246509 1.1788,0.277368 m -28.568608,9.361068 c 0,-0.265579 0.0027,-0.572767 0,-0.832103 -0.0027,-0.198315 -0.02495,-0.347396 -0.04919,-0.554726 -0.120658,-1.022087 0.01315,-2.136409 -0.418819,-3.120356 -0.127597,-0.292064 -0.3377,-0.715044 -0.710754,-0.715044 -0.817549,0.335591 -1.42674,1.642591 -1.622246,2.171289 -0.061,0.171277 -0.03676,0.375833 -0.04436,0.554735 -0.03121,0.699651 -0.06869,1.414561 -0.205245,2.149568 m 26.210772,-4.021863 c 0.13661,0.494398 0.32385,1.040108 0.39593,1.594843 0.0264,0.199706 0.0201,0.346013 0.0201,0.554725 0,0.250331 0.002,0.403567 0,0.624078 -0.003,0.233681 -0.0686,0.594257 -0.1248,0.832092 -0.0659,0.275976 -0.28501,1.381916 -0.70313,1.323023 -0.34046,-0.04853 -0.4507,-0.75442 -0.51867,-1.045655 -0.26281,-1.129569 -0.66291,-2.182172 -1.11848,-3.259039 -0.69252,-1.362251 -0.4818,-0.108381 -0.44992,0.554735 0.0201,0.448634 0.0444,0.888949 0.0784,1.386818 0.0146,0.213572 0.0513,0.353638 0.0604,0.554725 0.0257,0.578313 -0.0534,1.24884 -0.0665,1.872211 m -6.51825,-5.131241 v 1.109461 c 0.0827,0.830411 0.066,1.663345 0.07,2.496279 l -5.4e-4,1.178802 m 2.02448,-3.321671 c -3.49058,0.673349 -2.07033,1.397899 -0.27657,3.32838 m 9.69339,-4.583235 c 0.16156,0.473604 0.45418,0.612984 0.82308,1.040118 0.35849,0.415356 0.54433,0.75305 0.91045,1.040119 0.27875,-0.449331 0.44517,-1.366013 0.69341,-1.872211 m 7.07249,0.138757 c -0.0994,0.752279 0.006,1.418243 -9e-5,2.218922 -0.003,0.262109 -0.0444,0.415344 -0.0631,0.693409 -0.0458,0.666371 -0.0756,0.988112 -0.0756,1.664185 M 95.654222,69.616339 c 0.0036,0.346699 0.05196,0.461805 0.138679,0.624067 m 40.383479,-0.762762 c -0.25932,0.314802 -1.1351,1.372256 -0.89312,1.84933 0.24479,0.482609 1.20586,0.420206 1.65588,0.554029 0.21357,0.06305 0.34879,0.08112 0.48538,0.09296 0,0.242697 0.003,0.434779 0,0.69342 -0.007,0.626144 -0.13452,1.16076 -0.13867,1.664185 m 3.21726,-4.547876 c 0.10539,0.307178 0.22953,0.52421 0.62407,0.654574 0.63101,0.208025 1.29669,0.211495 1.87221,0.17752 m 3.99428,-0.72206 c 0.27043,0.01392 1.36949,0.135214 1.32303,0.488167 -0.51413,1.05966 -1.24684,1.147522 0.20248,1.135801 0.41535,0.226753 1.07687,0.878563 0.91183,1.424272 -0.22396,0.742643 -1.64823,1.164937 -2.15998,1.458944 m -7.07279,-4.229816 c -0.52481,0.272611 -1.245,0.913012 -1.19761,1.508918 0.70837,0.993236 1.67314,0.384785 2.14427,0.934222 0.62746,0.515551 0.482,1.210678 -0.46047,1.349818 -0.57346,0.08454 -1.13651,-0.104698 -1.59487,-0.395247 m -1.66504,-1.594842 c 0,-0.495094 -0.0631,-1.173256 0.20803,-1.525501 m 7.28088,0.138683 0.0721,0.693409 -0.009,0.624067 -0.10335,0.901435 -0.16781,1.248144 m -43.54591,-0.693419 c -0.43615,0 -1.387515,-0.09016 -1.619109,-0.832093 -0.19971,-0.641402 0.270427,-1.350765 0.787019,-1.634366 0.16573,-0.09078 0.30371,-0.118574 0.48539,-0.126894 0.24478,-0.01173 0.61505,0.05889 0.62823,0.375823 0.0243,0.603969 -0.90075,1.221098 -1.39098,1.316095 m 26.00295,-1.386818 -0.90144,2.357605 M 109.55023,72.25133 c 0.0347,0.439619 0.0825,0.85913 0.27736,1.317476 0.84858,-0.695913 0.998,-2.551532 1.73353,-2.080237 m -6.58742,0.277368 c 0.56098,-0.176129 0.81823,0.55057 0.72601,1.040119 -0.25448,1.350764 -1.79316,1.235659 -1.76612,-0.138685 m 3.39772,0 c 0.14494,-1.183514 -0.86073,-0.106272 -0.44379,0.683012 1.61873,0.633313 0.68365,-1.199532 2.03863,0.426449 m -6.56649,-1.704423 c -0.10161,1.405838 0.98519,1.709791 1.67577,1.178339 m 12.17155,-0.652708 c 0.33838,0.947188 0.46112,1.703011 0,2.496278"
       id="path4287"
       sodipodi:nodetypes="ccccccccccccccccscccccccccccccccccccccccscccccccscccccccccscccscccccccccccccccccccccccccccccccccccccccccccccccccccccccccccccccccccccccscccccscccccccccccccccccsccscscccccccccccccccccccsscccccccccccccccccccscccccccscccccccccccccccccccccccccccccccccccccccccccccccccccccccccccccccccccccsccccccccccscccccccccccccccccccccccccccccccccccccccccccccccccccccccccccccccccccccssccccccccccccccccccccccccccccscccccccccccccccccccsccccccccccccccccccccccccsccccccccscccccccccccccccccccccccccccscccccccccc" /><path
       style="fill:none;stroke:#010101;stroke-width:0.0515413"
       d="m 3.3429101,13.358842 c 0.078876,-0.02645 0.1884731,-0.03237 0.3122371,-0.02826 0.1519679,0.0052 0.2127926,-0.02074 0.3681351,-0.08438 0.1005775,-0.0412 0.1575253,-0.0714 0.2672648,-0.117738 0.2850511,-0.120492 0.5853935,-0.303098 0.8641307,-0.49513 0.1775195,-0.122303 0.3603905,-0.242246 0.4861244,-0.394228 0.100658,-0.121611 0.1300337,-0.212752 0.2154675,-0.345636 0.076546,-0.119084 0.1596122,-0.346573 0.1670551,-0.504329 C 6.0374572,11.089852 5.9792698,10.943763 5.8126177,10.753097 5.2654289,10.297242 4.9869738,10.642101 5.4001786,10.050229 L 5.6796564,9.769714 C 6.2470977,9.325976 6.7187917,8.9699602 6.0452639,8.3412986 L 5.744596,8.215363 5.0847922,8.0538672 C 4.5903393,7.8520039 4.087172,7.7303831 3.5653801,7.6383625 L 3.2017467,7.6627602 M 38.456161,10.359632 c 0.05864,1.959578 -0.851828,3.977624 -0.218595,5.669084 m 8.93101,-0.380707 c -0.12973,-0.02828 -0.165375,-0.06169 -0.260961,-0.131709 -0.0991,-0.07256 -0.290649,-0.426873 -0.362095,-0.569874 -0.08783,-0.17581 -0.134545,-0.228676 -0.238583,-0.379705 -1.375025,-1.328231 -0.545607,-0.729522 0.378451,-0.910589 0.25121,-0.112644 0.462802,-0.339691 0.658535,-0.510506 0.142967,-0.124742 0.15093,-0.126161 0.233456,-0.240915 0.07011,-0.09744 0.173158,-0.263426 0.236433,-0.395749 0.05731,-0.120064 0.05583,-0.170873 0.0659,-0.305173 0.03191,-0.425155 0.0013,-0.946563 -0.481812,-1.156022 -0.392306,-0.170089 -0.765571,0.181762 -1.069072,0.471108 -0.116542,0.11111 -0.255662,0.315021 -0.377373,0.436861 -0.179611,0.17983 -0.175079,0.02511 -0.388239,0.237934 -0.115599,0.115373 -0.09468,0.458484 -0.101715,0.552284 -0.04356,0.698302 -0.06137,1.367629 -0.15428,2.055877 m -22.74659,-1.086478 c 0.09401,-0.343584 0.155919,-0.664459 0.456407,-0.801365 0.28475,-0.129662 0.837879,0.0621 1.184696,0.05447 0.172299,-0.0038 0.191859,0.07373 0.345641,0.215415 0.08432,0.07771 0.171771,0.125158 0.227014,0.189356 0.337701,0.334739 0.107639,0.670497 -0.202635,0.863462 -0.09357,0.06094 -0.163941,0.114229 -0.271124,0.169139 -0.138846,0.07119 -0.272779,0.157489 -0.430456,0.226134 -0.103024,0.04488 -0.208902,0.09763 -0.319311,0.122516 -0.124554,0.02802 -0.264535,0.01798 -0.411814,-0.02232 -0.229636,-0.06277 -0.358745,-0.188177 -0.491474,-0.338361 -0.110268,-0.146316 -0.144765,-0.432915 -0.08694,-0.678445 z m -0.181605,0.813355 c -0.09292,-0.0069 -0.252514,-0.215251 -0.319524,-0.334093 -0.16215,-0.287808 -0.468936,-0.708346 -0.675842,-0.981061 -0.08748,-0.115361 -0.136794,-0.138705 -0.232331,-0.232809 -0.135341,-0.133268 -0.141079,-0.178049 -0.28653,-0.314354 -0.219917,-0.206085 -0.318691,-0.136481 -0.496616,-0.269849 -0.505551,-0.132494 -0.68582,-0.505832 0.01094,-0.83479 -0.01069,0.0045 0.24041,-0.05189 0.318023,-0.10535 0.140509,-0.09681 0.251482,-0.184309 0.382915,-0.281387 0.13942,-0.102935 0.206844,-0.134266 0.340103,-0.284599 0.168047,-0.18964 0.331435,-0.376422 0.392745,-0.642453 0.02865,-0.124126 0.082,-0.2642174 0.01309,-0.4038751 -0.05445,-0.1104057 -0.229412,-0.2400327 -0.313511,-0.299202 -0.113801,-0.080085 -0.157883,-0.1001436 -0.249915,-0.113512 -0.252526,-0.036672 -0.834822,0.2044247 -1.060073,0.3511627 -0.1758,0.114581 -0.198142,0.050682 -0.369836,0.2221014 -0.1304,0.130079 -0.05213,0.580505 -0.06187,0.710333 -0.02881,1.066182 0.361236,2.410254 0.211906,3.375506 m 21.313151,-3.000919 c -0.01132,0.150592 -0.0092,0.444021 3.94e-4,0.568578 0.0077,0.100748 -0.01338,0.136275 -0.01069,0.257633 0.0044,0.201705 0.03426,0.23242 0.0167,0.46643 -0.01626,0.216793 -0.03846,0.413344 -0.03856,0.513969 2.2e-5,0.02156 -0.002,0.09076 0.04906,0.150108 0.114657,0.133318 0.251276,0.06093 0.401304,0.04738 0.114128,-0.01031 0.511083,-0.03319 0.623829,-0.04798 0.609496,-0.07997 1.032632,-0.291869 1.368465,-0.328023 m 6.014755,-0.944233 c -0.02688,0.358133 0.02309,0.465358 0.03341,0.932859 0.0035,0.161423 -0.01357,0.180866 -0.02314,0.308383 l -0.0887,1.182128 c -0.01854,0.247117 -0.04458,0.395931 -0.06428,0.512039 -0.0024,0.01527 0.01889,0.139885 -0.01478,0.197005 -0.133704,0.227208 -0.179614,0.126076 -0.272179,0.298328 -0.09628,0.178999 -0.196853,0.434331 -0.294737,0.598119 -0.111059,0.186007 -0.135297,0.270299 -0.277963,0.375423 -0.116669,0.08593 -0.230281,0.133231 -0.37585,0.187125 -0.102219,0.03792 -0.159857,0.04548 -0.261476,0.0407 -0.152152,-0.0072 -0.27698,-0.04916 -0.40218,-0.150754 -0.318238,-0.246244 -0.338905,-0.586142 -0.261211,-0.881055 0.05989,-0.208195 0.182406,-0.592592 0.438592,-0.794072 0.142921,-0.112392 0.30965,-0.177 0.426603,-0.174736 0.0748,0.0015 0.189592,0.01422 0.256987,0.01928 m -3.199382,-2.824375 c 0.173945,0.288331 0.09651,0.409619 0.214554,0.584647 M 19.634658,9.7744188 19.832751,10.004658 m -7.614675,-0.5799155 -0.167927,0.40089 c -0.221794,0.2464765 -0.274222,0.4896355 -0.335802,0.8017835 l -0.0022,0.258269 0.265557,0.364518 0.20109,0.07536 0.310948,-0.01107 0.415677,-0.02914 0.483543,-0.01541 m -1.82939,-1.3346873 c -0.05093,-0.019068 -0.19675,-0.038131 -0.255055,-0.044977 -0.163697,-0.019219 -0.409093,-0.013846 -0.567939,-0.00813 -0.529958,0.07205 -1.0534144,0.076904 -1.4506831,0.046212 C 9.0093648,9.9076098 8.7176638,9.8316074 8.3684996,9.7561482 8.0894758,9.6958269 7.9753548,9.6599736 7.8622444,9.6147877 7.8425212,9.6068647 7.7549387,9.5577424 7.6592296,9.5650743 7.3660783,9.5876358 7.2793272,9.6857295 7.1079802,10.023364 c -0.047609,0.0938 -0.075884,0.132463 -0.05824,0.202375 0.026171,0.103841 0.1000279,0.193369 0.1790067,0.25465 0.1035567,0.08029 0.137516,0.05746 0.3025961,0.100244 0.4996045,0.129436 1.3479198,0.538763 1.7461897,0.837363 0.1822758,0.136688 0.3655127,0.33289 0.4529194,0.507792 0.061207,0.122478 0.078969,0.19923 0.050107,0.365562 C 9.5850157,12.651215 8.9491288,13.129602 8.7112392,13.339583 8.4935928,13.526896 8.190959,13.556651 7.928943,13.547949 7.6811065,13.539649 7.3983476,13.542949 7.2209551,13.33977 7.0575548,13.152651 7.046919,13.09257 7.0462186,12.913166 m 6.7536694,-3.2146717 -0.195741,0.6572347 -0.09084,0.406674 -0.12424,0.50754 -0.05183,0.461288 c -0.13673,0.541025 -0.08074,1.096284 -0.07201,1.648556 m 4.039874,-2.177821 c -0.101477,0.05394 -0.653431,0.181337 -0.846134,0.255262 -0.201748,0.07738 -0.419185,0.176482 -0.641829,0.287804 -0.72749,0.279913 -1.114576,0.605666 -1.27125,1.213982 -0.0541,0.221036 -0.121913,0.539762 -0.06252,0.718918 0.0273,0.08247 0.111513,0.290366 0.232563,0.344778 0.07944,0.03574 0.110368,0.0018 0.20687,-0.0016 0.321473,-0.01145 0.780479,-0.344645 0.910623,-0.655281 0.04955,-0.118367 0.02804,-0.144272 0.03639,-0.2557 0.0097,-0.128956 0.0035,-0.41617 -0.07748,-0.574363 -0.229413,-0.582842 -0.884502,-0.74552 -1.248495,-1.04124 -0.09886,-0.08484 -0.158994,-0.176965 -0.149453,-0.304119 0.237492,-0.480237 0.802083,-0.845013 1.239757,-1.138818 0.164115,-0.1089977 0.240464,-0.093956 0.419531,-0.080526 m 25.2592,3.0753835 c -0.290337,0.475224 -0.06152,0.877163 -0.199036,1.389228 -0.04609,0.168502 -0.06209,0.247466 -0.08693,0.35528 -0.05779,0.250788 -0.04804,0.317419 -0.09855,0.50947 m -1.391486,-2.120206 c 0.249128,-0.02685 0.527746,-0.01207 0.77481,0.0064 0.518544,0.03891 0.89678,-0.19373 1.001205,-0.140255 m -10.50732,0.314296 c 0.237296,0.134978 0.417632,0.203141 0.861134,0.0043 0.187896,-0.08426 0.262927,-0.109538 0.361944,-0.231275 0.08279,-0.101866 0.166954,-0.234325 0.121196,-0.352709 -0.0474,-0.122592 -0.150507,-0.111613 -0.223573,-0.120153 -0.09043,-0.01056 -0.177314,0.0067 -0.26084,0.03211 -0.139168,0.04243 -0.217809,0.04553 -0.314809,0.06254 -0.168608,0.03978 -0.275397,0.145132 -0.429815,0.217551 -0.310854,0.327567 -0.346027,0.83733 -0.0842,1.122149 0.154369,0.160076 0.256997,0.266393 0.437507,0.368786 0.41029,0.232774 0.78747,0.222776 0.964327,0.236045 m -3.826507,0.02301 c 0.11492,0.08523 0.210286,0.160137 0.397032,0.219323 0.08168,0.02587 0.212528,0.03316 0.307097,0.04026 0.07206,0.0054 0.180994,0.01737 0.258912,-0.0064 0.165781,-0.05057 0.186939,-0.06185 0.319951,-0.131053 0.139682,-0.07268 0.234838,-0.138834 0.213539,-0.319937 -0.01515,-0.128751 -0.05653,-0.185505 -0.117788,-0.267269 -0.277795,-0.370863 -0.531348,-0.415886 -0.883368,-0.626199 -0.239919,-0.143396 -0.355355,-0.123837 -0.549293,-0.256589 -0.104281,-0.07134 -0.285408,-0.190895 -0.243251,-0.431743 0.03396,-0.194272 0.274972,-0.279665 0.45143,-0.276245 0.415312,0.008 0.551789,0.0718 0.818492,0.113097 m 6.635322,1.118093 c 0.104708,0.01378 0.231204,0.132087 0.467071,-0.02528 0.927899,-0.899412 -1.219233,-0.401905 -0.547806,0.527443 0.07925,0.09701 0.226367,0.186929 0.33641,0.223407 0.311726,0.10325 0.471821,0.0602 0.615478,0.0634 m -3.674847,-1.309455 c -0.205962,0.239619 -0.248005,0.740715 -0.09641,1.284923 0.05891,0.211579 0.248547,0.449971 0.483762,0.441156 0.287507,-0.01069 0.546881,-0.566797 0.631151,-0.719305 0.211614,-0.376895 0.168657,-1.05846 0.531115,-0.993875 m -8.440659,-0.478257 c 0.362819,0.06294 0.412958,0.07739 0.657878,0.18721 0.168563,0.07556 0.541857,0.423909 0.495963,0.622972 -0.04408,0.191291 -0.109802,0.224091 -0.258282,0.342425 -0.264753,0.211018 -0.736478,0.405057 -1.069072,0.471123 -0.126818,0.02517 -0.223238,0.04621 -0.36492,0.04151 -0.125957,-0.0042 -0.146379,-0.01094 -0.256985,-0.01928 -0.130136,-0.0098 -0.184334,0.0072 -0.305169,-0.06595 -0.691615,-0.695611 0.48433,-1.67018 1.100587,-1.580013 z m 23.238471,1.993415 c 0.08782,0.08854 0.0058,0.25538 0.07712,0.357145 0.03946,0.257261 0.203495,0.728028 0.425504,0.981357 0.08686,0.212177 0.116254,0.281574 0.162298,0.477353 M 2.466721,16.084216 c 0.2517892,0.039 0.2503586,0.07046 0.4587162,0.0861 0.7631564,0.118832 2.4049971,0.850326 2.7824344,1.364018 m 5.1622644,-0.688442 0.04537,0.313523 0.01886,0.208159 0.01756,0.569867 0.01968,0.311594 -0.04844,0.875032 c -0.07071,0.4429 -0.14369,0.88539 -0.220182,1.327322 l -0.03255,0.204303 -0.120386,0.456143 M 12.180497,21.427096 11.85157,20.988926 11.471246,20.5469 11.13525,20.202941 c -0.663042,-0.628464 0.06342,-1.291788 0.727944,-1.43565 M 4.033209,16.767345 c 0.4140821,1.062014 1.4930099,1.72502 1.2741586,2.535726 -0.290629,0.609674 -0.5646826,0.930024 -1.0099789,1.362662 -0.3155408,0.286555 -0.6067947,0.377586 -1.0071654,0.449925 L 2.9895554,20.989722 m 23.6644956,-1.436744 0.557006,0.153796 0.509472,0.0985 0.431317,0.221897 0.04151,0.364918 c 0.06323,0.287626 0.05122,0.544643 -0.0018,0.826852 l -0.08964,1.078684 -0.02699,0.359779 0.03211,0.260841 c 0.228538,-0.04798 0.484628,-0.06702 0.984257,-0.02953 m -5.843673,-3.06128 c 0.0018,-0.02357 -0.301097,2.296298 -0.29897,2.27634 0.183067,-0.721353 0.199087,-1.610256 0.380979,-2.3351 0.06789,-0.248272 0.185323,-0.388886 0.442026,-0.380324 0.722962,0.0998 0.359699,1.44779 0.379336,1.90861 0.04519,-0.393201 0.09364,-0.741976 0.166426,-1.180839 0.446549,-0.974879 0.990676,0.06323 1.00253,0.680555 0.001,0.127535 0.01474,0.184437 0.03685,0.312883 0.04784,0.278663 0.04156,0.365594 0.06038,0.573079 0.0252,0.278568 0.03086,0.338896 0.150727,0.631543 m 2.583654,-2.287084 c 0.271024,-0.127065 0.463922,-0.02718 0.736664,0.05527 m 4.934101,0.370213 -0.02606,0.463221 -0.08192,0.975891 -0.04024,0.307099 -0.01375,0.412458 -0.07327,0.976541 M 9.8803531,21.292175 C 9.5279985,21.27507 9.2930278,21.381923 9.0040324,21.260903 8.8883781,21.212425 8.7432427,21.073976 8.6616089,21.002623 8.3005778,20.512011 8.5936764,18.871149 9.2867931,18.870078 m 22.1957439,1.768754 -0.01543,0.205588 c -0.01492,0.198803 -0.03604,0.241307 -0.09084,0.406674 -0.0965,0.2913 -0.130742,0.438518 -0.144339,0.661091 -0.007,0.115662 0.01509,0.301017 0.132567,0.414807 0.146618,0.142129 0.196234,0.08015 0.344121,0.120605 0.574164,0.01744 1.488193,-0.109991 1.965547,-0.2488 m 7.823046,-0.705182 c 0.106243,0.0079 0.551517,0.0921 0.561515,0.09382 0.140055,0.02431 0.138614,0.02689 0.30838,0.02314 0.255702,-0.0057 0.801506,-0.02215 1.089614,-0.05609 0.134588,-0.0158 0.338847,-0.03701 0.426588,0.169855 0.07181,0.16918 -0.03226,0.224895 -0.08694,0.355279 -1.220944,0.936763 -0.376209,0.07172 0.474124,0.914242 0.04481,0.07504 0.04599,0.173755 0.04066,0.261481 -0.01302,0.207164 0.0057,0.317522 -0.16231,0.55637 -0.169789,0.241195 -0.407547,0.438786 -0.670106,0.664698 -0.102055,0.08776 -0.286026,0.176963 -0.41334,0.227417 -0.07605,0.03021 -0.110796,0.04467 -0.210097,0.04456 -0.110594,-1.01e-4 -0.422511,0.02877 -0.573067,0.06038 m -5.363168,-3.606961 c 1.413003,-0.03431 1.189825,0.252919 0.643302,1.185364 l -0.342272,0.542868 -0.265992,0.445217 -0.04883,0.306454 c 0.227551,0.227567 0.343468,0.201234 0.642691,0.160225 l 0.575648,-0.09466 0.369419,-0.101502 M 15.042546,22.067155 c 0.157707,0.09422 0.392529,0.07064 0.566006,0.03389 0.115599,-0.02451 0.194892,-0.02595 0.314807,-0.06249 0.210528,-0.06421 0.656071,-0.344676 0.682727,-0.603483 0.02542,-0.246241 -0.194615,-0.423441 -0.391011,-0.528989 -0.292236,-0.157037 -0.654709,-0.306575 -0.909078,-0.283535 -0.220594,0.01993 -0.320536,0.158143 -0.407972,0.270874 -0.451533,0.376768 -0.272564,0.90938 0.144517,1.173785 z M 35.63478,21.802702 c -0.01641,-0.09296 -0.014,-0.130004 -0.02207,-0.182059 C 35.587,21.417654 35.57096,21.333081 35.310352,21.28784 35.06983,21.24613 34.877749,21.2374 34.68202,21.395756 c -0.172843,0.139816 -0.178287,0.195849 -0.185042,0.399606 -0.0038,0.113071 -0.02329,0.248207 0.05073,0.356979 0.05321,0.07821 0.174577,0.05813 0.281396,0.03838 0.144453,-0.02675 0.192001,-0.05356 0.265343,-0.0921 0.0735,-0.03862 0.208969,-0.106821 0.267908,-0.126325 0.508157,-0.408147 0.408925,0.689606 0.397657,0.899872 l -0.01543,0.205587 c -0.01497,0.199522 0.003,0.396765 0.111764,0.576935 M 8.279316,20.706871 C 8.1327331,20.684144 8.1079822,20.628891 7.9742002,20.520287 7.8735969,20.438622 7.8289823,19.956128 7.7224646,19.980129 7.567002,20.015141 7.4973145,20.409768 7.3529377,20.533991 7.251109,20.621609 7.1733588,20.700283 7.076671,20.771694 6.9597961,20.857979 6.7343102,20.952751 6.5986733,20.942574 6.5170066,20.936412 6.3752346,20.868853 6.3078718,20.800176 6.0999219,20.588218 6.1837292,19.982387 6.225668,19.829181 6.2942669,19.578328 6.5632047,19.270867 6.9867751,19.214367 m 10.3170119,2.071509 c 0.0012,-0.01651 -0.0161,0.477889 -0.01514,0.462685 0.01341,-0.473398 0.32978,-0.779093 0.560437,-1.15063 0.09282,-0.149438 0.146973,-0.220837 0.314579,-0.174511 0.100973,0.02789 0.164945,0.134821 0.177547,0.15975 0.06347,0.125447 0.112556,0.319906 0.128886,0.578219 0.0266,0.420498 0.140991,0.671076 0.290362,0.952139 m 20.725848,0.0045 c 0.416146,0.06445 0.923559,0.19727 1.300967,0.571421 0.176509,0.17497 0.205373,0.430915 0.138985,0.673717 -0.09814,0.358731 -0.145687,0.55431 -0.506514,0.780345 -0.451895,0.29027 -0.920446,0.35765 -1.351748,0.105325 -0.484015,-0.666338 -0.819273,-1.494254 0.213975,-1.474213 m -18.403941,-1.3292 c 0.04592,0.05972 0.128089,0.183792 0.152024,0.269838 0.03066,0.110116 0.0974,0.333707 0.10237,0.472855 0.004,0.112405 -0.01775,0.23653 -0.027,0.359779 -0.03079,0.410353 -0.04724,0.804519 -0.299011,1.114662 -0.212538,0.261816 -0.603369,0.580495 -0.896015,0.346262 m -6.744494,-2.418442 c 0.363685,0.02729 0.325132,0.05546 0.623192,-0.0394 0.197025,-0.06264 0.239164,-0.08418 0.376487,-0.195709 0.227908,-0.159043 0.195204,-0.262155 0.132771,-0.506899 -0.05415,-0.170237 -0.267169,-0.327166 -0.421853,-0.462355 -0.142746,-0.12483 -0.195162,-0.190892 -0.339208,-0.301145 -0.403059,-0.30847 -0.417488,-0.263603 -0.358068,-0.509254 0.02178,-0.08984 0.09911,-0.08993 0.144788,-0.09251 0.138484,-0.0078 0.376302,-0.06992 0.573079,-0.06038 m 14.209868,3.495437 c -0.383108,0.294294 -1.035856,0.387455 -1.422412,0.358451"
       id="path295194"
       sodipodi:nodetypes="ccccccccccccccccccccscccccsscccccccccccccccccccccsccccccccscccccsssccccccssscccccccccscccccccccccccccccccccccccccccccccccccccccccccccsccccccccccsccccccscccccccscccccccccccccccccccccccccscccccccccccccccccccccccccccccccccccccccccccccccccccccccccccccscscccccccsccccscsccccccccccccccccccccccccsccsccscscscccccccccccccccccccsscccccccccccc" /></g></svg>
