<?xml version="1.0" encoding="UTF-8" standalone="no"?>
<!-- Created with Inkscape (http://www.inkscape.org/) -->

<svg
   width="210mm"
   height="297mm"
   viewBox="0 0 210 297"
   version="1.1"
   id="svg101081"
   inkscape:version="1.2 (dc2aedaf03, 2022-05-15)"
   sodipodi:docname="Casey - Pulsz - Envelope 41.svg"
   xml:space="preserve"
   xmlns:inkscape="http://www.inkscape.org/namespaces/inkscape"
   xmlns:sodipodi="http://sodipodi.sourceforge.net/DTD/sodipodi-0.dtd"
   xmlns="http://www.w3.org/2000/svg"
   xmlns:svg="http://www.w3.org/2000/svg"><sodipodi:namedview
     id="namedview101083"
     pagecolor="#ffffff"
     bordercolor="#666666"
     borderopacity="1.0"
     inkscape:pageshadow="2"
     inkscape:pageopacity="0.0"
     inkscape:pagecheckerboard="0"
     inkscape:document-units="mm"
     showgrid="false"
     inkscape:zoom="2.534831"
     inkscape:cx="165.69152"
     inkscape:cy="71.996911"
     inkscape:window-width="1920"
     inkscape:window-height="991"
     inkscape:window-x="-9"
     inkscape:window-y="-9"
     inkscape:window-maximized="1"
     inkscape:current-layer="layer1"
     inkscape:showpageshadow="2"
     inkscape:deskcolor="#d1d1d1" /><defs
     id="defs101078"><pattern
       id="EMFhbasepattern"
       patternUnits="userSpaceOnUse"
       width="6"
       height="6"
       x="0"
       y="0" /></defs><g
     inkscape:label="Layer 1"
     inkscape:groupmode="layer"
     id="layer1"><path
       style="fill:none;stroke:#433d30;stroke-width:0.0627256"
       d="M 4.2132625,5.2474676 C 5.1151954,5.0799899 6.4264136,5.2470543 7.0893626,4.5995918 7.3496107,4.3454154 7.3519318,3.9949411 7.0811434,3.6902141 6.7448047,3.311632 5.8046086,2.9793238 5.3423207,2.7450183 5.1472431,2.6461321 4.8944593,2.5746552 4.8095906,2.3554985 4.696434,2.0634161 5.0160214,1.8507946 5.2169319,1.7091783 5.7453959,1.3366194 6.418944,1.289236 6.9731895,1.4211988 M 24.474265,4.4368427 c -0.184727,-0.069994 -0.263797,-0.022437 -0.376954,-0.0048 0.0037,-0.6536626 -0.203807,-1.9258325 0.564532,-1.9444975 m 2.885384,0.1881784 c 0.31847,0.7761138 0.0069,1.353297 0.004,2.0699382 -1.41e-4,0.2398058 -0.05036,0.9772667 -0.444223,0.8632312 m 12.0445,-2.6822717 c -0.176195,0.089062 -0.351952,0.1204964 -0.56453,0.277863 -0.499737,0.3699247 -0.956002,0.8972098 -1.315673,1.4157314 -0.190562,0.274733 -0.442843,0.6067459 -0.408344,0.9408864 0.02371,0.2300151 0.157003,0.3948588 0.345181,0.5182402 C 37.5,6.2705932 37.93036,6.29424 38.273347,6.319394 c 0.357095,0.026159 0.596206,0.1004888 1.003607,0.029287 M 40.095757,5.7321482 C 40.445391,5.4885212 41.165732,5.2241961 41.535,5.3364747 41.921264,5.4539598 42.167526,5.9268496 41.597481,6.1902976 40.917795,6.390417 39.3575,6.5541856 40.095757,5.7321482 Z M 21.337385,5.1220183 c 0.176259,0.074705 0.328306,0.1240089 0.627257,0.1253887 0.27179,0.00136 0.640679,0.043149 0.678943,-0.2565047 C 22.664101,4.8302044 22.524406,4.7337584 22.4009,4.6628959 22.121895,4.5028081 21.690531,4.3785794 21.52851,4.050016 21.205033,3.3940476 22.302607,3.4073397 22.654624,3.4911468 M 14.563006,5.05929 C 14.257721,5.084761 13.661889,5.05667 13.435135,4.933017 12.838907,4.3938822 13.43535,3.6822303 13.93575,3.5835416 c 1.056272,0.1869511 0.123537,1.0397812 -0.4394,0.6766716 m 2.195845,0.2820723 C 15.899441,4.5386416 16.28075,4.333441 16.367123,4.1649149 16.600401,3.7100351 15.901762,3.8257885 15.754795,3.847128 c -1.394753,0.6864604 0.739863,1.5788412 1.505417,1.5885171 m 1.045746,-0.2064407 c 0.19234,-0.012243 0.448964,-0.00344 0.585123,-0.033112 0.466743,-0.101741 0.758234,-0.4168498 0.732699,-0.889514 C 19.60459,3.9503242 19.349355,3.7964907 19.079259,3.7497904 17.961042,3.7288814 17.91536,5.2217131 17.824744,6.0629034 M 11.301269,3.9302243 c 0.238797,0.080349 0.433059,0.1127819 0.526645,0.3276672 0.103685,0.2381378 -0.04015,0.5481472 -0.219854,0.7352324 C 11.44234,5.1656705 11.231204,5.2835317 10.987641,5.304295 10.611035,5.336349 10.46319,5.1619705 10.172206,5.1331789 10.030069,5.1191275 9.9181035,5.1691843 9.7958514,5.1780274 9.6118766,5.1912649 9.4304119,5.1617155 9.2949865,5.0754671 8.9811695,4.8755358 8.7037334,4.2321705 9.0431427,4.1183977 M 23.21915,4.118409 c 0.426535,0.2648717 0.61214,0.274343 0.878161,0.3136279 m 2.598357,0.8723178 C 25.684315,4.5676368 26.003012,4.928005 25.540002,5.0963606 25.273919,5.1505586 25.090949,5.0516296 24.991716,4.9166075 24.819546,4.6020731 25.129365,4.393412 25.602477,4.4761729 c 0.154829,0.024169 0.233713,0.08328 0.294782,0.1716716 m 3.73797,0.5122344 C 29.963017,5.0469738 30.657135,4.9458422 30.7618,4.6145922 30.804641,4.4378949 30.652406,4.2947171 30.494149,4.2235789 29.389173,3.9035364 29.198098,5.2473374 29.806299,5.66183 c 0.282328,0.1690455 0.613333,0.1501657 1.00267,0.1501657 M 28.846662,4.876147 c -0.05064,0.041458 -0.174185,0.1156234 -0.369345,0.1134135 -2.163292,-0.076414 0.09465,-1.5184628 0.564523,-1.6657339 m 2.206211,2.9272489 C 31.776396,5.9171285 32.906103,5.9219099 33.104294,5.4851937 33.190609,5.2664694 32.289486,4.6720293 32.255425,4.4352221 32.196091,4.0224363 32.97903,4.1184135 33.129821,4.1183999 m 10.349744,0 -0.07345,0.6899834 c -0.07353,0.5206001 -0.128351,1.0093406 -0.302906,1.5054177 m -19.0059,-1.8817641 c -4.8e-5,0.3249008 -0.06429,0.6749924 -0.125453,1.1290629 M 10.172206,4.6940991 v 0.4390798 m 34.122791,1.1806303 c 0.224496,-0.291048 0.354337,-0.5053815 0.653915,-0.7963038 0.197652,-0.1919408 0.517864,-0.4041422 0.729941,-0.169484 0.241686,0.2675242 0.184226,0.9284659 0.184292,1.2794165 m 1.003608,1.2545146 c 0.479978,0.114286 0.829989,0.040581 1.254265,-0.1872363 0.35484,-0.1904353 0.693244,-0.7205938 0.344365,-1.1005223 C 48.159344,6.2609313 47.869741,6.2350883 47.494263,6.0657923 47.280555,5.9693833 47.161816,5.9052771 47.102728,5.7457031 46.965923,5.3765608 47.531017,5.170319 47.933094,5.4356487 M 18.476066,22.322349 c 0,-0.158695 -8.81e-4,-0.309425 4.8e-5,-0.501805 8.8e-4,-0.187237 -0.0083,-0.42528 0.116418,-0.616594 0.726345,-0.848621 1.603591,-1.561361 1.782995,-0.449745 0.035,0.329122 -0.0014,0.689606 -0.146842,1.003549 -0.124448,0.268591 -0.315197,0.412547 -0.56083,0.52953 -0.490452,0.233465 -0.977958,0.149162 -1.191789,0.03506 l -0.501806,1.693594 m 5.533162,-0.06401 c -0.781551,-0.32384 0.201962,-3.90866 0.864846,-3.574084 m 0.125451,3.638091 c 0.354838,-9.94e-4 1.225096,-0.117171 1.121411,-0.627068 -0.08769,-0.431177 -0.826224,-0.493777 -0.868188,-0.879039 -0.04504,-0.413675 0.721158,-0.491644 0.938565,-0.501115 m 1.568143,0.188177 c 0.607813,0.17169 1.91527,0.01887 1.410516,0.679445 -0.188992,0.242247 -0.796743,0.581468 -0.754213,0.945591 0.04686,0.40088 1.135086,0.640304 1.350987,0.758542 m 5.268896,-1.066339 c -0.07477,0.991693 -2.14265,1.409948 -2.607259,0.438139 -0.180524,-0.377546 -0.09786,-0.926522 0.08586,-1.253322 0.366374,-0.483521 0.809269,-0.613264 1.015968,-0.06298 m 3.325227,-0.257809 c 0.323289,-0.07608 0.486376,0.421329 0.815059,0.445729 0.362429,0.02698 0.649651,0.08787 0.674491,0.440271 0.04353,0.618414 -0.941138,1.197748 -1.427512,1.292465 -0.323602,0.06304 -0.59119,-0.01713 -0.777613,-0.292553 -0.349255,-0.515982 0.122004,-1.746096 0.715575,-1.885912 M 1.3519452,22.57325 c 0.1640413,0.401068 0.2319311,0.895946 0.4831134,1.24793 0.1184265,0.159886 0.3132524,0.273483 0.520498,0.333448 0.1322886,0.03819 0.279318,0.05131 0.4390804,0.0483 0.2407412,-0.0047 0.3482528,-0.02433 0.4664282,-0.151482 0.1056931,-0.113722 0.1652826,-0.533672 0.2235545,-0.725487 M 20.483291,22.57325 c -0.07641,0.195392 -0.15418,0.303091 -0.178958,0.501806 -0.02052,0.164781 -0.0078,0.399626 0.107325,0.544585 0.133983,0.16867 0.35923,0.173185 0.573438,0.0875 0.273861,-0.109455 0.611263,-0.280258 0.79072,-0.432305 0.198025,-0.167729 0.208376,-0.446732 0.212891,-0.638862 m -16.8104931,0 c 0.258116,0.188428 0.3571607,0.253851 0.3219718,0.564532 -0.01756,0.155372 -0.096847,0.402323 -0.1782666,0.564532 C 5.1753295,24.057024 4.9237989,24.316333 4.613683,24.41406 3.8310537,24.660696 3.4937772,24.353288 3.2610652,24.051449 M 13.520734,22.761426 c 0.415246,-0.117799 0.821081,0.160891 0.806152,0.627256 -0.0088,0.274677 -0.121373,0.519056 -0.241368,0.752709 -0.165784,0.32285 -0.519494,0.714384 -0.878411,0.834002 -0.355154,0.118363 -0.782628,-0.05702 -0.986801,-0.338468 -0.08944,-0.123257 -0.124385,-0.265643 -0.28421,-0.314319 -1.210002,0.190731 -1.364219,-0.145101 -1.175288,-1.1221 M 8.9417579,22.88688 c 0.2311438,0.170111 0.4699406,0.271099 0.5445844,0.564781 0.065048,0.255797 0.059524,0.701149 -0.071441,0.933798 -0.3972416,0.705665 -1.4494658,0.0192 -1.7276551,-0.30679 -0.094088,0.05714 -0.2026675,0.142512 -0.376668,0.170048 -0.2699719,0.04284 -0.592507,-0.179082 -0.6593729,-0.48374 -0.043664,-0.198715 -0.0303,-0.42227 -0.0303,-0.627194 m 15.1549107,0.137052 0.125451,0.752708 M 7.687246,23.576864 v 0.501805 m 31.842369,-1.235912 -0.730413,1.235912 c 0.05247,-0.185045 0.896835,-1.262039 1.318155,-1.676096 0.562529,-0.379544 0.579699,0.09385 0.497735,0.609756 -0.190894,2.671896 1.589134,-1.713482 1.947676,-5e-6 v 2.007223 m -30.50122,-1.136021 -0.125452,0.43908 m 3.46641,0.06969 0.188178,0.188178 m 80.829385,13.848901 c 0.609072,0.636542 1.085154,1.40386 1.461511,2.195398 0.440338,0.926518 0.681833,1.970158 1.095814,2.885385 0.26032,0.574885 0.712187,1.45717 1.126176,1.576164 m 24.98215,2.751911 c 0.23962,0.06349 0.44974,0.11529 0.68999,0.166914 0.52689,0.113218 0.91956,0.114977 1.50541,0.152299 0.44536,0.02831 0.8675,-0.0011 1.31725,-0.145086 0.31612,-0.101062 0.64669,-0.286782 0.85934,-0.551676 0.24399,-0.304662 0.19695,-0.675623 -0.006,-1.002424 -0.60404,-0.969483 -1.7814,-1.527621 -2.79756,-1.971084 -0.33621,-0.146597 -0.6398,-0.302342 -0.94088,-0.512219 -0.71633,-0.499302 -1.38687,-0.976894 -1.65471,-1.844763 -0.10034,-0.325864 -0.12607,-0.526905 -0.0827,-0.815434 0.0245,-0.161772 0.074,-0.284658 0.13549,-0.439082 0.18881,-0.472959 0.43218,-0.903507 0.84932,-1.230057 0.77152,-0.603674 1.70048,-0.363999 2.19539,0.414623 m -18.94317,-0.564529 0.38137,1.630868 0.18254,1.442682 0.003,0.564539 0.0602,1.56814 v 2.195398 m 1.69359,0.188155 c -0.10914,-0.165477 -0.19444,-0.469951 -0.22392,-0.689987 -0.0263,-0.189123 -0.0226,-0.297949 -0.0276,-0.50181 -0.0251,-0.948594 0.0239,-1.996876 -0.0728,-3.010832 -0.064,-0.674365 -0.0897,-1.340195 -0.0489,-1.944502 0.12627,-0.513196 0.019,-1.167962 0.3732,-1.191788 m -9.09524,0.250905 c -0.0201,2.418889 -0.78721,4.850454 -1.3737,7.150733 -0.153675,0.603163 -0.846169,1.971032 -0.94716,2.320845 M 169.4324,39.99748 c 0.2233,0.263759 0.21327,0.382942 0.29983,0.689988 0.24087,0.852632 0.66803,1.833782 0.84114,2.697198 0.0476,0.237353 0.0232,0.396117 0.15118,0.548729 0.19947,0.236916 0.52314,0.133098 0.71507,0.138998 0.21012,0.0062 0.52063,-0.0094 0.75272,0.03133 0.37133,0.06516 0.70002,0.149604 1.0036,0.284523 m -16.05775,-3.387184 c 0,1.166318 0.30171,2.411051 0.44912,3.638089 0.059,0.494463 0.17689,1.140101 0.17813,1.56814 -0.5068,-0.0052 -0.74956,-0.179392 -1.2545,-0.564529 m -12.10606,3.136279 c -0.20887,-0.494337 -0.18253,-0.962645 -0.24025,-1.50541 -0.14616,-1.360647 -0.39829,-2.561593 -0.73264,-3.888995 -0.13503,-0.602068 -0.57898,-1.113997 -0.48417,-1.643921 m 4.59341,0.201228 c 0.35064,-0.165975 0.37636,-0.106067 0.7527,-0.116361 0.36757,-0.01041 0.76651,0.0818 1.12906,0.110971 0.2829,0.02279 0.49868,0.07577 0.75272,0.11202 0.43595,0.06214 1.12089,0.04829 1.56815,0.117684 0.54571,0.08452 1.08514,0.08555 1.56813,0.340215 m 20.01125,-0.603663 c 0.0119,0.58291 -0.0514,0.921096 0.43852,1.160137 m -23.58605,-1.014373 c -0.008,0.416695 -0.0959,0.968297 0.0263,1.524239 0.11291,0.509461 0.15618,1.089987 0.32429,1.56814 0.17563,0.500114 0.32868,0.963602 0.42591,1.50542 0.1129,0.625562 -0.0545,1.160303 0.10158,1.693588 0.54133,-0.129278 1.13846,-0.203851 1.63087,-0.125448 M 139.3786,48.84677 c -0.41274,-0.376977 -1.03874,-0.787708 -1.146,-1.505422 -0.064,-0.427913 0.0104,-0.665017 0.33057,-0.689976 m 30.7187,-2.843425 c 0.5915,0.156943 1.12404,0.29286 1.44268,0.125448 m -57.99635,0.893976 c 0.16935,-0.237291 0.29857,-0.53957 0.56578,-0.678944 0.83613,-0.437072 1.05379,0.568225 0.86311,1.180744 -0.17689,0.568297 -0.66929,1.157232 -1.17799,1.430838 -2.16282,0.69722 -0.66536,-2.870191 -0.32554,-1.680608 -0.0213,0.16327 -0.0834,0.308732 -0.11354,0.437947 m 58.18453,-1.583953 c 0.13485,0.442901 0.22832,1.601695 0.39204,2.320845 0.0935,0.408908 0.22498,1.047338 0.32288,1.458516 m -64.92112,0.06272 c -0.29606,0.0994 -0.57583,0.215966 -0.87816,0.318339 -0.48864,0.165467 -1.06884,0.230954 -1.56815,0.165341 -0.21891,-0.02883 -0.41774,-0.07358 -0.62725,-0.193067 -0.44033,-0.250906 -0.83552,-0.835262 -0.92019,-1.356951 -0.0552,-0.34003 0.0866,-0.819765 0.30108,-1.06633 0.15557,-0.178528 0.29481,-0.311001 0.49366,-0.47245 0.19633,-0.159512 0.38388,-0.289987 0.62726,-0.366631 0.22832,-0.07181 0.42779,-0.138759 0.68998,-0.134742 0.18316,0.0032 0.3337,0.05298 0.50181,0.127966 0.2509,0.111896 0.57016,0.333264 0.46103,0.650905 -0.53524,0.624271 -1.62437,0.604836 -2.28008,0.57125 m 74.58088,0.06274 c 0.0878,-0.171867 0.15677,-0.319463 0.24086,-0.50181 0.1863,-0.405204 0.32994,-0.778133 -0.11792,-0.873574 -0.18316,-0.03893 -0.43218,-0.0434 -0.62222,0.03976 -1.6001,1.343602 -0.82509,2.929569 1.50341,2.451343 0.37634,-0.08004 0.62788,-0.191694 1.0036,-0.300395 m -61.28297,-1.066228 c -0.0209,-1.120083 0.91707,-1.135726 0.86687,0 -0.0345,0.481109 -0.26344,1.135708 -0.68433,1.460011 -0.33558,0.258482 -0.67305,0.222669 -0.99232,-0.08348 -0.12734,-0.121627 -0.20763,-0.297252 -0.38765,-0.297252 -0.18065,0 -0.55387,0.456141 -0.80978,0.473636 -0.41212,0.0281 -0.78973,-0.460095 -0.93839,-0.800259 -0.0558,-0.12858 -0.11102,-0.315945 -0.12105,-0.439071 -0.0263,-0.32348 0.1022,-0.553872 0.11854,-0.878164 m 59.02491,-0.06276 c -0.0985,0.3337 -0.11228,0.594327 -0.0245,0.940881 0.0433,0.171305 0.10538,0.343672 0.19193,0.500614 0.10034,0.181463 0.23961,0.329444 0.45415,0.291173 0.73822,-0.421174 0.63691,-1.436035 1.07144,-2.046188 m -43.71928,0.604131 c 0.19006,-0.03466 0.39643,-0.0052 0.55512,0.121128 0.22832,0.181213 0.24714,0.463478 0.25781,0.717329 0.008,0.20818 0.005,0.370202 -0.0402,0.564529 -0.18065,0.800322 -0.85747,2.015631 -1.71367,2.178151 -0.37636,0.0714 -0.84303,-0.165726 -1.01616,-0.547345 -0.13172,-0.291361 -0.11918,-0.570493 -0.11228,-0.8781 0.0104,-0.397679 0.0684,-0.718141 0.19006,-1.066278 0.059,-0.168287 0.14302,-0.33802 0.31426,-0.398803 0.28859,0.0021 0.48116,-0.03192 0.66552,-0.219091 0.23397,-0.227696 0.49427,-0.397366 0.89948,-0.471513 m 5.33169,3.598332 c -0.56892,0.192006 -1.10335,0.35026 -1.69359,0.378799 -0.49617,0.02393 -1.37808,0.120431 -1.67604,-0.385388 -0.44033,-0.747126 0.24339,-2.076028 0.57771,-2.753275 0.40541,-0.6955 0.76924,-0.455617 1.09833,0.188114 m 34.56187,1.191786 c -0.22268,0.13009 -0.56517,0.313437 -0.87817,0.451874 -0.23897,0.105818 -0.42903,0.11811 -0.68997,0.111719 -0.23459,-0.0052 -0.43595,-0.02144 -0.60844,-0.168609 -0.58962,-0.504693 -0.0621,-2.038841 0.42027,-2.276757 m 4.64228,-1.038181 c 0.30371,1.049706 0.0231,1.300149 -0.022,2.516659 m -12.58653,0.634499 c -0.11354,0.05709 -0.30234,0.159519 -0.43908,0.204485 -0.43909,0.144141 -0.93211,0.150292 -1.24574,-0.188239 -0.17188,-0.185918 -0.2463,-0.47426 -0.24901,-0.749259 0.37561,-1.69367 2.35746,-1.144022 1.18111,-0.209496 -0.33808,0.257587 -0.54372,0.314378 -0.80452,0.304362 m 2.05904,0.469669 c 0.41587,-0.655859 0.66363,-2.312945 1.75633,-1.505411 m 4.6417,2.320856 c -0.3588,-0.163093 -0.44723,-0.386022 -0.71319,-0.876977 -0.091,-0.167214 -0.15494,-0.286272 -0.35566,-0.301894 -0.34562,-0.02695 -0.72636,0.368266 -1.0011,0.537 -0.23522,0.14439 -0.47672,0.239602 -0.75271,0.259866 -0.26408,0.01936 -0.51436,0.07515 -0.71695,-0.147033 -0.46104,-0.504694 0.24587,-1.79646 0.77967,-1.953651 0.29857,-0.08784 0.59652,-0.05215 0.8675,0.146846 0.21327,0.156869 0.31299,0.324542 0.44974,0.516798 m -8.84465,-0.564429 0.0636,0.627148 -5.5e-4,0.564529 v 1.00362 m -40.3382,-1.994162 -0.0627,0.5018 m 40.33789,-0.702935 c 0.45601,0.06172 0.93398,0.14772 1.31723,0.50181 m -17.62561,6.7e-5 c -0.58585,0.108826 -0.93461,0.202165 -1.14348,0.878153 -0.10915,0.354714 -0.21329,0.919378 0.26782,1.046397 0.37197,0.09823 0.83928,-0.03274 1.12657,-0.225624 1.4014,-1.516342 0.49444,0.348916 1.63087,0.496471 m 10.31172,-0.987092 0.038,0.673292 c 0.22202,-0.404661 0.29867,-0.757927 0.39581,-1.191797 0.16621,-0.464041 0.64168,-1.242089 1.23193,-0.840331 0.62036,0.423022 0.67303,1.906858 1.00674,2.345751 m -17.78069,-4.68196 c 0,0.267703 -0.13257,0.623381 0.0811,0.751846 m 10.04688,3.365694 c 0.46229,0.0094 0.93461,0 1.50542,0 h 0.87816 m -42.65072,3.913781 c 0.2415,-0.196951 0.56141,-0.255735 0.87565,-0.198584 0.32242,0.0587 0.52564,0.297439 0.73954,0.550228 0.19822,0.234846 0.31488,0.571742 0.36193,0.878163 0.0194,0.129153 0.0269,0.24362 0.008,0.376353 -0.0301,0.216028 -0.15932,0.602477 -0.3864,0.764872 -0.39464,0.191221 -0.70394,0.103594 -0.35447,0.455297 0.30944,0.283491 0.76414,0.600141 1.18999,1.100926 0.281,0.329756 0.51748,0.72832 0.32177,1.189039 -0.12232,0.287718 -0.40521,0.373772 -0.68935,0.378549 -0.37322,0.0062 -0.59651,-0.03247 -0.94088,-0.207629 -0.46358,-0.191995 -0.84348,-0.452522 -1.31725,-0.356628 l -0.0808,-0.627248 -0.22518,-1.191787 -0.19446,-1.003622 -0.0659,-0.43907 c -0.36094,-0.596295 0.50912,-1.451027 0.75772,-1.668859 z M 99.17933,56.6045 c -0.291678,0.10127 -0.568926,0.08482 -0.878154,0.0052 -0.326807,-0.08389 -0.462917,-0.09419 -0.627265,-0.05298 -0.189431,-0.560387 -0.113532,-1.018974 -0.243375,-1.630868 -0.03888,-0.179955 -0.07776,-0.555121 -0.03382,-0.689977 0.09597,-0.291111 0.183156,-0.296326 0.266578,-0.56454 0.08093,-0.259179 0.321164,-1.03754 0.826099,-0.994014 0.629769,0.05433 1.389373,0.855141 1.692347,1.370377 0.2001,0.340279 0.26783,0.674292 0.2509,1.066329 -0.14055,0.777064 -0.34773,1.165111 -1.253312,1.490425 z m 25.4667,-3.936728 -0.12483,0.815435 0.13548,3.199019 0.0521,1.129058 m 1.56815,-4.892606 c 0.76462,0 1.85918,0.395045 2.82266,0.439082 m -12.6079,-0.313637 c 0.28226,0.322668 0.44033,0.469941 0.71067,0.940891 0.12233,0.213135 0.31928,0.45689 0.42027,0.689977 0.0558,0.1301 0.0659,0.244192 0.0571,0.376363 -0.0269,0.391715 -0.22707,0.427155 -0.34249,0.752706 -0.0922,0.260564 -0.17187,0.715954 -0.26532,1.003611 -0.13423,0.415996 -0.24527,0.7554 -0.14113,1.191786 m 0.69188,-3.324466 c 0.10033,-0.08076 0.21263,-0.148355 0.35941,-0.377362 0.19633,-0.306922 0.48425,-0.789778 0.83238,-1.033097 0.27724,-0.193755 0.55573,-0.216892 0.81353,-0.03222 m 11.03972,0.188176 -0.10725,2.885395 -0.2691,1.379963 m -3.97257,-4.581889 c -0.0674,0.727063 -0.0912,0.80475 -0.33858,1.320152 -0.16684,0.326801 -0.24525,0.603414 -0.29416,0.940882 -0.0319,0.221742 -0.086,0.418568 9e-4,0.612957 0.11165,0.247887 0.51749,0.168485 0.71507,0.123761 0.43219,-0.09783 1.06384,-0.217911 1.42387,0.207869 0.34186,0.405016 0.0597,0.72348 -0.42025,0.907826 -0.62475,0.240049 -1.24762,0.136625 -1.75632,-0.158816 m -12.60787,-2.634479 c 0.27875,-0.637895 1.67157,0.165561 2.00157,0.408597 0.27285,0.206994 0.5501,0.810605 0.48049,1.222261 -0.11479,0.677633 -0.86375,1.169598 -1.47845,1.188977 -0.51686,0.01634 -0.89134,-0.363374 -1.07449,-0.812676 -0.18631,-0.454693 -0.20261,-0.939757 -0.13424,-1.379901 0.0118,-0.478937 0.47704,-0.433657 0.75627,-0.516182 m -11.52752,-0.06918 c 0.49553,-0.14514 0.54697,-0.0083 0.87753,0.113728 0.20134,0.07432 0.35439,0.172304 0.55888,0.305225 0.26407,0.171304 0.47985,0.359481 0.65172,0.60793 0.31803,0.45947 0.18881,1.197626 0.0414,1.691151 -0.18504,0.618536 -0.68622,1.21456 -1.31474,1.393202 -1.47843,0.420077 -1.61518,-1.735686 -1.49536,-2.647718 0.0201,-0.155058 0.0589,-0.285084 0.0866,-0.439081 0.0371,-0.207181 0.0257,-0.378798 0.10914,-0.564269 0.10158,-0.226821 0.26721,-0.396242 0.48486,-0.460168 m 15.61459,0.585353 c 0.49365,0.45106 0.72072,1.452735 1.12907,2.069949 M 97.674526,56.556785 c 0,0.356088 -0.03328,0.461219 0.05516,0.878163 0.09911,0.464987 0.192569,1.04262 0.195706,1.442692 m 40.583538,1.881763 c -0.19197,0.995228 -0.42801,1.020691 -0.55255,2.132898 -0.0182,0.178767 -0.0106,0.343109 0.13362,0.437197 0.22078,0.143641 0.58522,-0.03893 0.79536,-0.139883 0.48298,-0.232088 0.69437,-0.31174 0.94088,-0.485491 m -14.4897,-1.819263 c -0.0433,0.343359 -0.0841,0.676175 -0.0571,1.066339 0.0257,0.377602 0.0665,1.180495 0.0558,1.505412 -0.0755,0.654564 -0.26636,0.920462 -0.63168,0.186927 -0.1621,-0.878277 -0.87789,-1.623911 -1.23757,-2.037331 -0.72636,-1.103963 0.002,0.898079 0.0453,1.474259 0.0477,0.691236 0.10539,1.656588 0.005,2.195398 m -8.0909,-4.202828 c 0.0313,0.359794 0.0571,0.414051 0.18254,0.752706 0.40729,1.172944 0.64135,2.290887 0.56945,3.512739 m 1.73521,0.03169 c -0.29356,-0.255922 -0.59011,-0.487342 -0.87816,-0.778423 -1.15192,-1.164036 -1.53214,-1.972964 -0.25008,-2.107089 m 9.93168,-1.411625 c 0.30046,0.130475 0.49052,0.18724 0.7527,0.404205 0.44599,0.369203 0.95909,0.960084 1.36931,1.414841 0.20512,0.302182 0.239,0.462129 0.3682,0.815434 m 0.58335,-2.63448 c 0.0454,1.887614 -1.14469,3.440553 -1.44269,5.20624 m 20.69949,-5.20624 c 0.4652,0.285463 1.08034,0.390326 0.59771,0.814185 -0.47061,0.426495 -0.2642,0.408063 0.21827,0.483192 0.27662,0.08971 0.67304,0.174999 0.93963,0.321148 0.62224,0.341226 1.14537,1.180494 0.61283,1.831597 -0.1957,0.239613 -0.43908,0.476717 -0.67556,0.666142 -0.3086,0.247148 -0.54509,0.34311 -0.87816,0.525645 m -7.71461,-1.066537 c 0.17186,0.210126 0.31802,0.347501 0.62725,0.372585 0.70943,0.05704 2.22175,-0.477342 1.87236,-1.375572 -0.18127,-0.466048 -0.76211,-0.711312 -1.18237,-0.787207 -0.29796,-0.05329 -0.97852,0.124199 -1.19806,-0.174376 -0.28039,-0.380744 0.0112,-0.882555 0.1129,-1.107742 0.20137,-0.372584 0.5767,-0.297128 0.9597,-0.30417 0.97979,-0.09169 1.78079,-0.04038 2.69722,0.114789 M 97.673961,65.77751 c 0,-0.490518 -0.01628,-0.822959 -0.0897,-1.317235 -0.04458,-0.301081 -0.09347,-0.482992 -0.09849,-0.815433 -0.0045,-0.349386 -0.102871,-0.565789 -0.04205,-0.940883 0.05895,-0.360678 0.158696,-0.431556 0.236476,-0.752716 0.04331,-0.176883 0.105385,-0.407722 0.261568,-0.533919 0.507449,-0.408783 1.268319,0.4944 1.504795,0.847544 0.249009,0.371346 0.464788,0.840527 0.59338,1.254515 0.0796,0.258431 0.16497,0.477352 0.22643,0.752716 0.13425,0.598397 0.2302,1.489737 0.2302,2.06994 m 36.31852,-5.080816 c -0.17313,0.462915 -0.0941,0.698147 -0.052,1.129068 0.0408,0.417131 0.13611,0.892589 0.18755,1.317234 0.0232,0.196337 0.0496,0.370088 0.0526,0.564539 0.008,0.484243 -0.0126,1.089539 0.43908,1.317235 m 2.34594,-4.13782 c -0.0682,0.439599 -0.0753,0.831355 0.0376,1.252642 l 0.52689,0.0021 m 6.62384,-1.193877 c 0.43156,0.795992 0.25028,2.115745 0.25091,3.010842 0,0.44159 -0.0232,0.882545 0.37635,1.00361 m -7.77799,-2.822655 c 0,0.262198 0.002,0.366319 0.0364,0.627258 0.0808,0.618473 0.0452,1.266433 0.40269,1.881774 m -27.48233,0.831811 c 0.28896,-0.799261 0.90548,-2.652509 1.63835,-2.475936 0.13611,0.03768 0.25279,0.09096 0.37635,0.138624 m -10.97696,2.634479 c -0.40018,0.02259 -0.75647,-0.07587 -1.12906,-0.141132 -0.27349,-0.04829 -0.7063,-0.171868 -0.92081,-0.429673 -0.15493,-0.186293 -0.13549,-0.489259 -0.0941,-0.683711 0.0401,-0.188177 0.0696,-0.309231 0.16998,-0.5018 0.10221,-0.195087 0.33119,-0.444734 0.53128,-0.517485 0.51624,-0.188187 0.50056,0.309232 0.24339,0.642933 -0.22206,0.287905 -0.36632,0.454756 -0.49428,0.627257 m 8.20013,-0.06275 c -0.0457,-0.261573 -0.0521,-0.514977 -0.15431,-0.750197 -0.096,-0.222093 -0.34561,-0.36323 -0.5752,-0.277258 -0.1775,0.0665 -0.23455,0.194453 -0.31737,0.337469 -0.15622,0.271606 -0.20948,0.496793 -0.1838,0.752705 0.0194,0.191944 0.11856,0.377647 0.30925,0.45539 0.3544,0.144304 0.84495,-0.145209 1.11907,-0.291355 0.0841,0.128721 0.19581,0.439623 0.29534,0.48612 0.10729,0.08609 0.29364,0.276935 0.40342,0.375068 m -3.89033,-2.028852 c 0.41147,0.213895 1.00549,0.999854 0.42465,1.543056 -0.23899,0.224563 -0.51248,0.181901 -0.80101,0.104132 -0.2898,-0.07712 -0.42905,-0.16686 -0.56453,-0.267214 -0.3406,0.28163 -0.76526,0.590871 -1.31473,0.30233 -0.28917,-0.151789 -0.43156,-0.461032 -0.62977,-0.678683 m 16.05779,-0.815444 c 0.45412,0.376363 1.0174,1.299686 1.10021,2.195407 0.074,0.804142 -0.33559,1.277091 -0.97476,1.254516 m -14.42692,-3.010832 0.18818,0.752706 M 30.194994,23.909078 30.383171,23.720899"
       id="path56091"
       sodipodi:nodetypes="cccccccccccccccsccccccccccccccccccccccccccccccccccccccccccccccccccccccccccccccsccccscccccccccccccccccccccccccccccccccccscccccccccccccccscccccccccccccccccccccccccccccsscccccccccccccccccccccccccccccscccccccccccssccccccccccccscccccccccccccsccsccccsccccccccccccscccccccccccccccccccccsccccccccccccccccccccscsccccccccccccccsccccccccccsccscccccccsccccccccccccccccccccccccccccccccsccccccccscsccccscccccccccccccccccccccsccccccccccccsccccccccccccccccscccccccccccccccccccccccccccccccccccccccccccccccccccccccccccccccc" /><path
       style="fill:none;stroke:#010101;stroke-width:0.0442925"
       d="M 2.2160172,8.0344809 C 2.1043816,7.9835921 2.0296391,7.9261854 2.0170774,7.7978077 1.9584985,7.4168481 2.6094002,7.5326768 2.9620434,7.5677104 c 0.2558425,0.030994 0.3108792,0.01726 0.4973507,0.046015 0.099003,0.015275 0.4470496,0.059151 0.5968214,0.065741 0.099754,0.00436 0.1587889,0.018294 0.2486756,0.046015 0.2040028,0.062913 0.6413983,0.07865 0.779184,0.1972276 0.1026179,0.088314 0.067056,0.2331304 0.016572,0.3484343 C 4.957892,8.5972007 4.6156901,8.8177795 4.2551499,9.0600539 4.0368076,9.2067524 3.8864947,9.2252531 3.6085944,9.415064 3.4317062,9.5358857 3.199832,9.5662589 3.3764956,9.770074 3.5006592,9.9133011 3.6267531,9.8932236 3.85727,9.9541671 4.2984991,10.070808 5.5783024,10.186777 5.4985271,10.756212 5.4397121,11.176033 4.7028408,11.4843 4.2551499,11.63715 c -0.1413518,0.04828 -0.3108986,0.09534 -0.4476146,0.131511 -0.1222297,0.03231 -0.1443616,0.04162 -0.2486757,0.06572 -0.150628,0.03486 -0.3740281,0.08595 -0.5470864,0.118337 -0.076701,0.01436 -0.1739479,0.02548 -0.2486753,0.0263 -0.088295,9.97e-4 -0.1133909,0.0038 -0.1989399,0 -0.1185747,-0.0052 -0.1497431,-0.01215 -0.2486768,-0.03286 C 2.0396529,11.907818 2.022231,11.727877 2.1662795,11.505682 M 35.936393,7.6005711 c -0.210418,1.1115464 -0.02539,2.3191902 0,3.4712069 0.006,0.339469 0.181581,1.049766 0.198938,1.380595 0.0052,0.09814 0.03323,0.165592 0.04974,0.236673 M 21.612696,11.821253 C 21.447325,11.629588 21.310802,11.450741 21.148518,11.269016 20.946893,11.043269 20.435565,10.601873 20.120643,10.473517 19.166989,10.162371 19.855826,10.013706 20.269849,9.8489752 20.528868,9.7263014 20.719901,9.6476462 20.916404,9.4939663 21.227646,9.2505478 21.446382,9.0616828 21.546398,8.7445005 21.6502,8.4151494 21.685507,8.154892 21.413754,7.9161446 21.261168,7.7821084 21.079435,7.6587728 20.866668,7.6400258 c -0.09554,-0.00843 -0.16686,-0.014123 -0.248675,0.00652 -0.11817,0.029879 -0.133588,0.083237 -0.207246,0.1512067 -0.104495,0.09649 -0.24962,0.2174078 -0.331534,0.3550095 -0.15388,0.2584353 -0.263546,0.4929898 -0.339889,0.7494652 -0.03646,0.1225186 -0.04681,0.4129945 -0.06629,0.5522367 -0.11074,0.416479 -0.07688,0.9520971 -0.09947,1.3805951 -0.0014,0.07803 0,0.09519 0,0.197228 0,0.511214 -0.09947,0.822321 -0.09947,1.104475 M 6.0456186,11.505689 c 0.054609,0.09684 0.2130146,0.411536 0.3978798,0.519379 0.1637278,0.09546 0.4672108,0.151196 0.646556,0.151196 0.1753158,0 0.2216699,-0.02994 0.3978798,-0.09203 0.1382636,-0.04876 0.2168451,-0.104961 0.3481466,-0.151234 0.3885303,-0.136955 0.7016133,-0.341243 0.7460264,-0.703432 0.02536,-0.206852 0.012734,-0.42613 -0.1409003,-0.591684 C 8.268129,10.451423 8.0664532,10.291433 7.8360808,10.164536 7.5685055,10.017168 7.1341196,9.8230162 6.7916443,9.7437704 6.5776345,9.6942647 6.2485871,9.68618 6.0456186,9.7175003 5.8507807,9.7288796 5.7303613,9.7485172 5.5482673,9.7569487 5.2933158,9.7056647 5.3295379,9.5898553 5.4570879,9.3756264 5.5750551,9.1774917 5.7745119,9.0364733 5.9295859,8.8628347 6.0488005,8.7293505 6.1769688,8.6006002 6.2611198,8.4289332 6.335328,8.2776167 6.3520363,8.1297069 6.5429688,8.0673478 c 0.4510569,-0.1285509 0.8846386,0.024902 1.3428474,0.1380595 0.1151363,0.027903 0.2058526,0.04229 0.2984101,0.065741 0.1417446,0.035916 0.2577273,0.057682 0.3978809,0.085468 0.1118537,0.022182 0.1477637,0.052008 0.2486747,0.092038 0.1769566,0.070174 0.3081596,0.098614 0.4973506,0.098614 m 28.6971335,-0.31556 c -0.315171,0.4129546 -0.198938,1.0852256 -0.198938,1.5778217 0,0.141452 0.04974,0.518354 0.04974,0.631128 0,0.189339 0.01655,0.130604 0.01655,0.315565 0.0264,0.58516 0.0422,1.189735 -0.01655,1.696158 m 7.211583,-4.1812279 v 0.3155647 c 0,0.060864 -0.0038,0.085875 0,0.1577817 0.0072,0.1362455 0.04974,0.186262 0.04974,0.3944557 0,0.1824361 -0.06261,0.3655809 -0.04974,0.5127919 0.01536,0.1756117 -0.04974,0.5456899 -0.04974,0.7494649 0,0.07586 0.0038,0.124531 0,0.197228 -0.0068,0.128396 -0.06351,0.408538 -0.09117,0.552237 -0.02612,0.135379 -0.04481,0.357024 -0.09122,0.512793 -0.129853,0.282489 0.01073,0.756586 -0.265236,0.940106 -0.09231,0.05707 -0.210628,0.08741 -0.29841,0.118337 -0.686346,0.126432 -0.925532,-0.546738 -0.654862,-0.979551 0.04804,-0.07222 0.126525,-0.17222 0.215554,-0.230087 0.14423,-0.0938 0.346602,-0.03271 0.588513,0.05258 m -0.922741,1.024488 c -1.153621,-0.206088 -2.913079,-1.59352 -1.663493,-2.063208 0.394386,-0.177424 0.75753,-0.451998 1.003008,-0.7954983 0.07131,-0.1018073 0.09384,-0.1601097 0.124337,-0.2761195 0.04301,-0.1638964 0.02253,-0.5183136 -0.04149,-0.6705735 -0.03143,-0.074788 -0.06953,-0.097865 -0.140897,-0.1577818 -0.174918,-0.1468963 -0.283889,-0.2598676 -0.547087,-0.2366732 -0.143137,0.012619 -0.241015,0.08466 -0.339838,0.1643696 -0.216197,0.1743095 -0.562505,0.5940102 -0.638302,0.8217685 -0.25761,0.8871782 -0.190513,1.3818202 -0.165756,2.1300602 0.06455,0.394554 -0.146661,0.951713 -0.04974,1.222811 M 12.958794,8.547272 c -0.283743,0.9474519 -0.09747,0.8311408 -0.397882,1.4397619 -0.07997,0.033564 -0.09445,0.014631 -0.248676,0.019724 -0.263974,0.04336 -0.571565,0.07953 -0.795761,0.0789 -0.267473,0 -0.719517,0.0098 -0.828933,-0.2366734 -0.0583,-0.1313134 0.0086,-0.2665728 0.03317,-0.3944551 C 10.9023,9.0004171 11.22839,8.6345723 11.466742,8.192269 m 19.297202,3.392318 c -0.114889,0.04797 -0.394997,0.183303 -0.547087,0.223539 -0.108071,0.02856 -0.23077,0.04871 -0.348144,0.05258 -0.200038,0.0066 -0.37535,0.01424 -0.596822,-0.03945 -0.07983,-0.01932 -0.169147,-0.02587 -0.248674,-0.05917 -0.484886,-0.251647 -0.829392,-0.635923 -0.522219,-1.163644 0.05511,-0.08994 0.08191,-0.120663 0.140898,-0.197227 0.258296,-0.12424 0.48686,-0.393776 0.729466,-0.4404889 0.145277,-0.027733 0.418273,-0.02627 0.547086,-0.02627 0.06883,0 0.147365,0.00683 0.182376,0.1117489 0.02284,0.06851 -0.03089,0.163581 -0.04973,0.197227 -0.03197,0.05699 -0.197449,0.215688 -0.28185,0.276119 -0.201278,0.144094 -0.370425,0.208746 -0.646557,0.197227 m -2.588409,1.003973 c 0.0043,0.003 0.08778,0.11281 0.151391,0.13336 0.17875,0.0578 0.23709,0.162833 0.497352,0.19723 0.181532,0.02403 0.205854,-0.0027 0.348148,-0.02627 0.119811,-0.01981 0.32248,-0.07507 0.381316,-0.203816 0.162287,-0.355326 -0.748213,-0.688088 -1.027874,-0.802046 -0.208741,-0.101146 -0.548313,-0.06999 -0.671424,-0.262983 -0.02239,-0.408721 0.603543,-0.493688 0.920099,-0.604819 0.180438,-0.06363 0.284236,-0.130999 0.447616,-0.144648 M 12.560908,9.987048 c 0.02033,0.60695 -0.283015,1.255644 -0.04973,1.696159 m 3.332252,-1.597548 c -0.191381,-0.02797 -0.438315,-0.07881 -0.795762,-0.0263 -0.488361,0.222627 -1.179236,0.358916 -1.284807,0.854667 -0.02088,0.253562 -0.06954,0.557361 0.0082,0.788911 0.04765,0.129578 0.08694,0.25036 0.281849,0.335287 0.163432,0.05429 0.343053,0.05586 0.497351,0 0.239075,-0.08954 0.458159,-0.383135 0.547085,-0.532516 0.07793,-0.130841 0.156466,-0.242983 0.08291,-0.433901 -0.299096,-0.6245 -0.700474,-0.712782 -1.07761,-0.887525 -0.927298,-0.3855918 -0.767518,-0.9084299 0.397881,-1.163643 m 22.098933,1.577822 0.497351,0.118336 0.248676,0.03286 0.298409,0.0066 h 0.248679 m -14.468776,0.09375 c -0.856724,0.215348 -0.788535,-0.156662 -1.023707,0.3401 -0.05372,0.109581 -0.0956,0.22851 -0.09117,0.355011 0.0031,0.08894 0.01677,0.192574 0.07461,0.27612 0.315518,0.455557 1.063286,0.141333 1.41745,-0.07231 0.517563,-0.312345 0.76329,-0.921443 -0.149206,-1.032172 -0.286394,-0.03872 -0.632436,-0.06285 -0.817821,0.0019 m 15.058614,0.03744 h 0.646555 0.447616 c 0.115983,0 0.143487,0.0035 0.248676,0 0.215603,-0.0072 0.27071,-0.05305 0.447616,-0.07889 M 34.8422,12.17621 c -0.145278,0.0091 -0.404097,0.06883 -0.696292,0.05917 -0.239774,-0.0079 -0.773528,-0.03404 -0.986394,-0.21695 -0.205706,-0.176717 -0.247134,-0.441554 -0.190684,-0.63113 0.02536,-0.08513 0.04516,-0.171431 0.124338,-0.276119 0.175895,-0.170818 0.4238,-0.330794 0.654859,-0.355009 0.112302,-0.0099 0.190038,-0.02295 0.29841,0.0066 0.158458,0.0432 0.149206,0.180779 0.149206,0.269531 0,0.101493 0.0051,0.102241 -0.04143,0.197228 -0.03312,0.06753 -0.05745,0.107768 -0.09947,0.157782 -0.168203,0.200067 -0.257926,0.184842 -0.406187,0.197228 m -2.337523,-0.70998 c 0.0044,0.29268 0.01747,0.500664 0.04974,0.78891 0.01953,0.159399 0.05525,0.311462 0.157511,0.512792 0.05475,0.107887 0.05397,0.204131 0.24037,0.210363 0.146619,0.005 0.318304,-0.165868 0.389575,-0.289254 0.06837,-0.118337 0.08843,-0.235332 0.149203,-0.35501 0.09818,-0.193243 0.107779,-0.231901 0.107779,-0.512792 0,-0.157547 0.04044,-0.145672 -0.04974,-0.315565 M 25.5915,12.025068 c -0.126328,-0.01531 -0.136822,0.0021 -0.248677,-0.0066 -0.09937,-0.0076 -0.143784,-0.01755 -0.248673,-0.05917 -0.229131,-0.09084 -0.405789,-0.26894 -0.497352,-0.414179 -0.126396,-0.21757 -0.116982,-0.710134 0.348146,-0.756052 0.208688,0.023 0.241215,0.107248 0.547085,0.157782 0.749943,-0.02745 0.614302,1.061847 0.09948,1.078205 z m 19.446411,-1.426637 c -0.174551,0.872383 -0.172898,2.222962 0.05406,2.461173 m -42.5775392,1.107132 1.0444364,-0.0789 0.2984105,0.03944 0.4973503,0.0789 0.4476164,0.118336 0.1989399,0.04604 0.3978809,-0.0066 0.4973512,0.07231 0.397879,0.124924 m 5.4544736,-0.22722 c -0.402407,0.449167 -0.149205,1.355625 -0.149205,1.853941 -0.01104,0.647243 -0.03006,1.007754 0,1.301694 v 0.315563 l -0.02486,0.197229 M 13.12855,15.94339 c -0.08091,0.04729 -0.18188,0.09329 -0.298409,0.144647 -0.08152,0.03589 -0.07346,0.02563 -0.198941,0.06572 -1.483077,0.372596 -1.158818,0.597047 -0.11603,1.564676 0.135477,0.135733 0.428218,0.403884 0.563646,0.512793 0.116281,0.09353 0.145974,0.122044 0.248676,0.236673 M 5.0509233,14.403414 c 0.035862,0.15443 0.029318,0.143266 0.1077604,0.315565 0.1304799,0.286571 0.4586714,0.506363 0.6714387,0.78891 0.051572,0.06852 0.080871,0.128317 0.1243365,0.197229 0.1326946,0.21048 0.2604631,0.441079 0.3730138,0.670574 0.2932731,0.648024 0.2996958,0.63528 0.2071957,1.065029 C 6.1723751,18.291412 5.2778157,18.07571 4.6530422,17.729976 4.4496159,17.615701 4.055421,17.459538 4.122533,17.243493 4.180106,17.058178 4.5099443,17.045043 4.6530422,16.967375 m 3.1422713,0.153648 c -0.1393712,-0.06003 -0.2611617,-0.127994 -0.4068424,-0.147061 -0.740894,0.0983 -0.3583014,0.709052 0.2486747,0.473347 0.068785,-0.0273 0.2722788,-0.276669 0.3962184,-0.257262 0.1120032,0.01751 0.00119,0.265616 0.070574,0.332909 0.2830046,0.27248 0.6344924,0.377617 0.986689,0.343101 M 28.50101,15.356694 c -0.114085,0.122343 -0.206823,0.332881 -0.124337,0.427314 0.04421,0.04871 0.158654,0.0458 0.174074,0.04604 0.164423,0.0024 0.361921,0.01893 0.59682,-0.118338 m -2.064005,-0.361597 0.547083,0.348423 0.348147,0.04604 0.397881,0.03945 v 0.276119 c -0.08707,0.532727 0.109456,1.056702 -8e-6,1.577822 v 0.394455 l 0.02486,0.308977 0.373016,-0.0065 0.298409,-0.06576 0.497349,-0.124924 0.298413,-0.118336 0.397881,-0.19064 m 3.169694,-2.445625 c -0.129979,0.354871 -0.01345,0.758464 -0.144163,1.183367 -0.04437,0.169024 0.0083,0.196675 0.0083,0.35501 0.0053,0.268944 -0.01424,0.603436 0.149205,0.788911 m 3.232779,-1.932833 c 0.171138,-0.121451 0.380325,-0.197818 0.646555,-0.230085 0.23301,-0.02825 0.227539,-0.0066 0.397881,-0.0329 0.110711,-0.01708 0.163727,-0.02064 0.248674,-0.01314 0.0951,0.0083 0.411608,0.111355 0.472485,0.197228 0.07729,0.108987 -0.0213,0.259985 -0.09116,0.355009 -0.206302,0.280497 -0.4974,0.547859 -0.762637,0.828356 -0.207946,0.219948 -0.371374,0.435953 -0.157462,0.611407 l 0.09116,0.01971 c 0.126328,0.01597 1.088154,0.0068 1.243378,0 m 0.314971,-0.512792 c 0.06267,-0.162635 0.120358,-0.253201 0.240419,-0.355009 0.146669,-0.124373 0.219384,-0.07507 0.43931,-0.138061 0.200185,-0.05731 0.171141,-0.06784 0.397881,-0.03286 0.232811,0.03589 0.72106,0.157742 0.944967,0.243221 0.07987,0.03053 0.132493,0.0617 0.174072,0.124925 0.07361,0.111867 0.03815,0.308898 -0.01657,0.473346 -0.04585,0.137783 -0.07997,0.169497 -0.215551,0.315563 -0.201926,0.217582 -0.564443,0.433903 -0.936663,0.433903 -0.473983,-0.05587 -1.217438,-0.545287 -1.027871,-1.06503 z M 23.899417,16.548007 c -0.258672,0.608134 -0.477487,1.112272 -0.569887,1.231301 2.491936,-5.164098 -0.185756,2.867564 1.922152,-1.443063 0.423065,-0.853923 0.696588,-0.647027 0.687972,0.157782 0.0041,0.300738 -0.04291,0.816635 0.207247,0.92697 0.12185,0.04671 0.186258,-0.01183 0.240367,-0.01972 m 8.405242,-1.643578 c 0.216097,-0.05475 0.452191,0.06817 0.59682,0.144648 m -3.630669,-0.118338 c 0,0.24113 -0.122052,0.546597 -0.04143,0.78891 0.06869,0.206498 0.307066,0.254544 0.538782,0.236675 0.352428,-0.08795 0.831776,-0.206586 1.036109,-0.236675 m 8.214614,-0.591682 c 0.25748,0 0.449605,0.0217 0.79576,0.0789 0.239822,0.03964 0.466367,0.08386 0.696292,0.144647 0.09534,0.02521 0.208041,0.01638 0.273542,0.09861 -0.871708,1.70971 0.01389,0.512439 0.721147,1.176779 0.04222,0.240972 -0.0752,0.385264 -0.215502,0.552237 -0.102609,0.122006 -0.237036,0.24058 -0.381319,0.355012 -0.161093,0.127763 -0.314077,0.200383 -0.497352,0.262982 -0.204309,0.06977 -0.434733,0.149577 -0.69629,0.13806 -0.149899,-0.0066 -0.266132,-5.95e-4 -0.447615,-0.0066 -0.15751,-0.0052 -0.172084,-0.02841 -0.348146,-0.03944 m -27.105609,-0.74948 c 0.390297,0.07675 1.479618,0.06801 0.746027,-0.38132 -0.126029,-0.07633 -0.45443,-0.276868 -0.596822,-0.361558 -0.085,-0.05058 -0.158853,-0.09791 -0.248674,-0.157782 -0.105991,-0.07065 -0.21784,-0.138533 -0.190636,-0.24326 0.02741,-0.105557 0.08027,-0.0949 0.190636,-0.118338 0.08853,-0.01877 0.165865,-0.04659 0.248674,-0.06576 0.200135,-0.04627 0.515703,0.02462 0.596822,0.0263 m -3.92907,1.374006 -0.298411,0.07234 -0.547086,-0.0329 -0.4310538,-0.269531 c -0.2110936,-0.198734 -0.04465,-0.768034 0.024861,-0.907246 0.064895,-0.11952 0.074356,-0.21348 0.1160814,-0.315565 0.04128,-0.101135 0.097429,-0.153049 0.2403694,-0.157783 0.137518,-0.0046 0.219133,0.06472 0.248676,0.0789 m 25.635953,1.347378 -0.250892,-0.874031 c -0.35888,-1.58369 -0.02678,-0.536523 -0.467781,-0.216951 -0.107378,0.04568 -0.220079,0.05037 -0.447616,0.08548 -0.119763,0.01846 -0.142443,0.01932 -0.248674,-0.0263 -0.231666,-0.09952 -0.341531,-0.285153 -0.348148,-0.473347 -0.01008,-0.286572 0.128319,-0.53709 0.447617,-0.617993 m -16.630403,1.2497 c 0.0937,0.865256 -0.247549,1.931669 0.264467,0.414984 0.086,-0.243077 0.368292,-0.784732 0.798848,-0.770572 0.176709,0.0059 0.330938,0.158492 0.406187,0.27612 0.08857,0.138611 0.169199,0.298562 0.190635,0.473346 0.02372,0.1934 0.07043,0.475397 0.174072,0.631128 0.08008,0.120349 0.159749,0.165158 0.223808,0.236673 m -4.326948,-1.216224 c 0.117523,-0.03018 0.145176,-0.0082 0.29841,-0.0066 0.194563,0.0022 0.241066,0.01798 0.447616,0.124924 0.09812,0.05076 0.16885,0.10611 0.29841,0.144608 0.111556,0.03322 0.186159,0.04647 0.248676,0.09206 0.06789,0.04951 0.138064,0.178768 0.149205,0.269532 0.06744,0.550147 -0.695198,0.822755 -1.243377,0.611406 -0.120805,-0.04659 -0.356749,-0.153759 -0.447616,-0.203815 -0.506003,-0.242805 0.248676,-1.323814 0.248676,-1.032133 z m 5.470857,0.585095 c 0.02492,0.250124 0.04093,0.301601 0.149205,0.473347 0.07847,0.12449 0.126626,0.186617 0.149205,0.315564 0.01821,0.103866 0.03711,0.133444 0.04974,0.236674 0.02228,0.181646 0.04327,0.22622 0,0.473347 -0.06689,0.38203 -0.509833,0.621149 -0.729463,0.4339 -0.04894,-0.04177 -0.05043,-0.09798 -0.06629,-0.157782 m 6.490415,-1.071618 0.497353,-0.0263 0.19894,-0.01313 0.29841,0.03944"
       id="path106623"
       sodipodi:nodetypes="ccccscsccccccccccccccccccccccsccsccccccscccsccscccccccccccscccsscccscsssccccccccccccccscccccccccccccccccccscccccccccccccccccccccccccccccccccccccccscccsccccsscccccccccscccccccccccccccccccccccccccccccccccccccccccccccccccccccccccccccccccsscccccccccccccccccccccccccccccccscccsscscccccccccccccccccccccsccccccsccccccccccccsccsccccccccc" /></g></svg>
