<?xml version="1.0" encoding="UTF-8" standalone="no"?>
<!-- Created with Inkscape (http://www.inkscape.org/) -->

<svg
   width="210mm"
   height="297mm"
   viewBox="0 0 210 297"
   version="1.1"
   id="svg221217"
   inkscape:version="1.2 (dc2aedaf03, 2022-05-15)"
   sodipodi:docname="Casey - Pulsz - Envelope 92.svg"
   xml:space="preserve"
   xmlns:inkscape="http://www.inkscape.org/namespaces/inkscape"
   xmlns:sodipodi="http://sodipodi.sourceforge.net/DTD/sodipodi-0.dtd"
   xmlns="http://www.w3.org/2000/svg"
   xmlns:svg="http://www.w3.org/2000/svg"><sodipodi:namedview
     id="namedview221219"
     pagecolor="#ffffff"
     bordercolor="#666666"
     borderopacity="1.0"
     inkscape:pageshadow="2"
     inkscape:pageopacity="0.0"
     inkscape:pagecheckerboard="0"
     inkscape:document-units="mm"
     showgrid="false"
     inkscape:zoom="3.5847924"
     inkscape:cx="183.83213"
     inkscape:cy="69.041656"
     inkscape:window-width="1920"
     inkscape:window-height="991"
     inkscape:window-x="-9"
     inkscape:window-y="-9"
     inkscape:window-maximized="1"
     inkscape:current-layer="layer1"
     inkscape:showpageshadow="2"
     inkscape:deskcolor="#d1d1d1" /><defs
     id="defs221214"><pattern
       id="EMFhbasepattern"
       patternUnits="userSpaceOnUse"
       width="6"
       height="6"
       x="0"
       y="0" /></defs><g
     inkscape:label="Layer 1"
     inkscape:groupmode="layer"
     id="layer1"><path
       style="fill:none;stroke:#62585a;stroke-width:0.0572538"
       d="m 24.069076,1.3251692 c -0.03847,0.4874712 0.0087,0.9540784 0.0904,1.4886006 0.0533,0.3483897 0.07249,0.5797529 0.25312,0.9160621 0.09871,-0.04368 0.206227,-0.1004259 0.400891,-0.1421608 0.192947,-0.041395 0.377303,-0.059999 0.572367,-0.077353 0.307969,-0.02737 0.359498,0.140329 0.400834,0.2767648 M 3.6866995,2.756513 C 3.7340694,1.9973181 2.4438517,1.4028477 1.6698955,1.8204954 1.2557527,2.0645148 1.2986826,2.2734329 1.4997135,2.6288625 1.9560061,3.2647859 2.911559,3.429713 3.6294438,3.7723122 3.8985947,3.9031945 4.2931879,4.0396884 4.3939551,4.3598504 4.5243791,4.774083 3.9861926,5.1280839 3.6866985,5.2970964 3.4031771,5.4571211 3.2807681,5.5827356 2.9996518,5.6821858 2.5620027,5.8371149 2.0140262,6.0603477 1.5683049,5.7909692 M 35.863372,8.0238685 c -0.359438,0.04443 -0.7668,0.018497 -1.126239,-0.3555461 -0.559656,-0.5825025 -0.819362,-1.6165634 -0.872548,-2.3926393 -0.01304,-0.1913427 -0.0051,-0.3301835 -0.0051,-0.5152853 0,-0.1798338 -0.0076,-0.3328731 0.0098,-0.5152843 0.05468,-0.5744288 0.134548,-1.1418143 0.397057,-1.6603616 0.132026,-0.2607919 0.460206,-0.9328152 0.743385,-1.010778 0.401347,-0.1104594 0.372206,0.4758544 0.338427,0.6672546 M 20.004044,1.725941 c -0.09275,0.2201815 -0.115481,0.4130302 -0.05611,0.6297929 0.04076,0.1489172 0.163174,0.31816 0.203538,0.5152855 0.0446,0.2180218 -0.03132,0.3105443 -0.03287,0.5725386 -0.0024,0.3940208 0.0331,0.6238945 0.05319,0.9733149 0.01117,0.1947787 0.0093,0.2905062 0.0054,0.4580306 -0.0087,0.3803384 -0.135634,0.5992755 -0.173136,0.9733158 m -3.091771,0.1717603 c 0.360585,0.4042129 0.9649,0.3390007 1.488601,0.2402379 0.316213,-0.059606 0.833101,-0.2050841 0.690596,-0.640156 C 18.912381,5.072887 17.904542,4.6506396 17.427618,4.4057078 17.175701,4.2763136 16.741029,4.072432 16.745495,3.7298828 c 0.0063,-0.4839094 1.009157,-1.1606504 1.465642,-0.9388487 0.235313,0.1143358 0.10632,0.3310994 0.01803,0.4807602 m 21.525875,3.370947 c 0.002,-0.7005575 0.19117,-0.817527 0.343523,-1.4313456 M 24.412598,3.7298319 c -0.0042,0.2675476 -0.118921,0.3881219 -0.11577,0.6297899 0.002,0.1584786 0.140663,0.4477824 0.0012,0.5152844 m 0.114506,-1.1450743 c 0.02229,0.0083 -0.567536,0.9230654 -0.114506,1.1450743 l -0.05725,1.3740936 m 4.923824,0.6297935 c 0.255411,-0.013114 0.393162,-0.075068 0.629794,-0.1136495 0.169928,-0.02771 0.348447,-0.050152 0.515282,-0.1024854 C 31.703976,6.2255261 29.810705,5.3395232 29.394756,4.9296996 29.255401,4.7923478 29.136197,4.6654157 29.118391,4.4741311 c -0.01403,-0.1512084 0.03189,-0.2737314 0.128363,-0.3982586 0.16243,-0.2096637 0.371008,-0.3247442 0.662199,-0.2580421 0.299438,0.068587 0.436677,0.2414958 0.572538,0.3700312 m -11.283027,0.171762 c 0.47704,0.198213 0.706456,0.095102 0.973316,0.057249 m 7.337827,1.6717808 C 27.339734,6.0269945 27.011052,5.4042122 26.935361,5.2748189 26.862936,5.150922 26.824233,5.100252 26.875247,4.9321545 c 0.0395,-0.1301949 0.10615,-0.2492257 0.127906,-0.4007197 0.03086,-0.2153324 0.103056,-0.3920168 0.33024,-0.3637903 0.126359,0.015747 0.230218,0.085137 0.33213,0.1698141 0.216706,0.1801214 0.479501,0.5241596 0.336137,0.8784462 -0.08062,0.1991859 -0.568132,0.294743 -0.61714,0.4778987 -0.0726,0.2713818 0.340771,0.6681932 0.52135,0.85089 M 12.277727,5.7366614 c -0.869229,-0.047581 -1.015887,-1.8235087 0.168752,-1.5167999 0.278655,0.07214 0.492441,0.2527189 0.430722,0.5403623 -0.05325,0.2482526 -0.302128,0.3862927 -0.485341,0.5256477 -0.08428,0.064123 -0.209722,0.1430776 -0.211782,0.2722995 -0.0052,0.326061 0.759243,0.3195915 1.01076,0.2900483 m 0.973315,-0.1145074 c 0,-0.2295309 0.09951,-0.6527513 0.184072,-0.916063 0.05604,-0.1744518 0.0706,-0.4192693 0.232679,-0.5328046 0.255181,-0.1788608 0.602024,0.1477152 0.785523,0.31358 0.240524,0.2173927 0.452477,0.4603785 0.478987,0.7917635 0.05106,0.6387813 -0.696723,1.0052631 -1.22323,0.7204256 -0.28083,-0.151952 -0.361672,-0.2828344 -0.458031,-0.3769015 -0.246936,0.4221884 -0.284494,0.8324137 -0.45803,1.3740918 m -8.4463414,-2.8209785 -0.084482,0.0728 C 4.8896017,4.6161803 4.7805336,5.1971928 4.9138774,5.6761779 5.0453329,6.1486944 5.5175052,6.0744364 5.7478433,5.848222 5.8035598,5.7979359 5.8378677,5.7250741 5.9195994,5.733719 6.1985969,5.7147133 6.5772739,6.3846376 7.0646764,6.2674395 7.834798,6.0822797 8.0263111,4.9127551 7.2364375,4.5886412 M 9.9846233,6.0199831 C 9.4956756,6.0057891 8.9357324,5.7231226 8.7785134,5.2184293 8.5946142,4.6278569 9.3176164,4.2223263 9.8128622,4.2896569 c 0.1427339,0.019416 0.2798568,0.1047751 0.3920748,0.2118972 0.276765,0.2642268 0.0043,0.6343731 -0.2872997,0.7405221 -0.224321,0.081647 -0.4403979,0.022211 -0.5628058,-0.023648 M 22.122444,4.9321545 c 8.52e-4,9.82e-4 0.1334,0.1067213 0.150176,0.2313056 0.01689,0.1257296 -0.0048,0.2077747 -0.115766,0.2852393 -0.13907,0.097099 -0.358181,0.1062623 -0.537499,-0.00214 -0.269495,-0.16306 -0.460036,-0.8174708 -0.06127,-0.9302044 0.154872,-0.043743 0.447667,0.1324276 0.564351,0.1889377 0.197527,0.095727 0.234628,0.1116454 0.397629,0.2537491 0.117943,0.1028281 0.190999,0.2105804 0.251287,0.3169571 0.173937,0.3071097 0.280944,0.4896922 0.61067,0.5150567 M 20.171793,4.4168765 c 0.278198,0.096527 0.573913,0.2272972 0.973316,0.2862685 M 6.0913614,4.9321652 5.9195994,5.733719 M 45.539273,7.7948572 c 0.231421,-0.027942 0.597271,-0.1604818 0.916062,-0.2587866 0.21516,-0.066364 1.100708,-0.2415538 0.911139,-0.6515497 C 47.181945,6.4855768 46.42728,6.3083192 46.054559,6.1997652 45.753517,6.1121104 45.423219,6.0079075 45.138497,5.8414124 44.96559,5.7403001 44.727699,5.5888087 44.707146,5.3888211 c -0.0335,-0.3261181 0.600022,-0.620288 0.888521,-0.5736263 0.277112,0.044778 0.373011,0.281631 0.458892,0.4604936 M 24.298091,4.8749062 c 0.544198,0.1183442 1.069675,0.5662409 1.660362,0.8588084 m 15.515801,1.0878241 c 0.002,-0.063668 -0.02495,-0.1938628 0.05886,-0.3309851 0.138495,-0.2266679 0.333616,-0.2266679 0.503949,-0.4716578 0.185962,-0.2674316 0.521178,-0.8143204 0.923274,-0.624639 0.372551,0.1757694 0.406902,0.9627801 0.517804,1.3127736 m -1.88938,-1.2595853 -0.05564,1.0431085 m -3.223169,-0.069792 c 0.03349,0.3063661 -0.185043,0.5524995 -0.443546,0.6982686 -0.462897,0.2610201 -1.183378,-0.029486 -1.197921,-0.5837603 -0.0054,-0.2085763 0.05771,-0.6595081 0.254893,-0.7999505 0.435071,-0.3099734 1.323366,0.1085522 1.386574,0.6854422 z M 39.93863,3.8459299 39.9551,3.4929753 M 19.087984,30.524635 c -0.003,-0.361273 -0.0552,-0.467996 -0.0572,-0.85881 -0.0037,-0.686302 -0.201534,-1.800692 0.277854,-2.391609 0.502746,-0.619658 1.622861,0.647712 1.810024,1.07477 0.07591,0.173365 0.127905,0.378907 0.125214,0.572538 -0.0083,0.60111 -0.598303,0.895738 -1.010817,1.22363 -0.180408,0.143421 -0.576031,0.403642 -0.801268,0.432496 -0.155445,0.01993 -0.242757,0.0017 -0.309286,0.136952 -0.1397,0.283978 -0.07889,1.207196 -0.149032,1.5849 m 4.923833,-4.637561 c 0,0.84478 0.05245,1.678625 -0.0052,2.519171 -0.04557,0.66592 -0.21745,1.254029 -0.223863,1.774867 M 10.728924,29.093292 c 0.225237,0.101508 0.357208,0.217106 0.437019,0.45826 0.194091,0.586737 -0.323885,1.20319 -0.691169,1.599499 -0.348046,0.375586 -0.429862,-0.0071 -0.781572,-0.01318 -0.4055296,-0.0069 -0.596242,0.373185 -1.0254172,0.55382 C 7.5392542,32.166728 7.1219301,31.406166 7.1219301,30.41012 M 2.4271126,29.436816 c 0,0.520494 0.2492259,1.880789 0.806879,2.39241 0.6912839,0.6342 1.3592643,-0.613419 1.2542598,-1.190081 M 5.919594,30.066606 c 0.00205,-1.180362 0.7595752,1.146348 -0.1815477,1.770575 -0.6071206,0.366485 -1.009881,-0.40265 -1.3031923,-0.729341 m 8.607518,-1.415843 c -0.109812,0.166383 -0.187441,0.442627 -0.194197,0.66088 -0.0053,0.171531 -0.0083,0.392247 0.0043,0.572539 0.03304,0.471885 0.273273,1.285178 0.853656,1.354796 0.266917,0.032 0.433468,-0.205197 0.588855,-0.381539 0.110385,-0.12527 0.246821,-0.243043 0.325603,-0.400719 0.07386,-0.147773 0.05839,-0.324573 0.05886,-0.458031 m 18.477493,-1.283865 c -0.325956,0.261226 -0.551437,0.360642 -0.723087,0.749942 -0.295415,0.300693 -0.509065,0.962151 -0.428966,1.564401 0.09504,0.71476 0.565668,0.974979 1.053183,1.087825 M 15.194707,30.18111 c 0.342951,-0.05147 0.669184,0.08279 0.79394,0.403064 0.154585,0.397057 0.149261,0.821767 -0.114508,1.194032 -0.41824,0.590286 -0.95928,0.03235 -1.253565,-0.280252 m 23.632841,0.595827 c -0.13573,0.663591 -0.101039,0.764984 0.216381,0.262975 0.305968,-0.421101 0.598419,-1.102422 0.918526,-1.472626 0.280258,-0.251178 0.458907,-0.110323 0.511734,0.21327 0.0067,0.146682 0.07633,0.870259 0.143249,1.030054 0.06751,0.161169 0.153382,0.325776 0.373181,0.276194 0.262679,-0.0592 0.421332,-0.351426 0.629968,-0.562177 0.217905,-0.220141 0.431463,-0.401464 0.651602,-0.61857 0.167184,-0.164893 0.277509,-0.308885 0.438224,-0.466848 0.495434,-0.473948 1.128775,-0.595298 1.142614,0.226611 0.0071,0.575286 5.51e-4,1.22586 5.51e-4,1.660359 m -16.57657,-2.290146 c 0.166665,0 0.33923,-0.0055 0.515285,0.0021 0.214128,0.0094 0.594179,0.03378 0.665746,0.235027 0.05766,0.162084 -0.08405,0.298406 -0.186531,0.403755 -0.240926,0.247622 -0.878332,0.656356 -0.729815,1.073279 0.128076,0.359611 0.854398,0.440169 1.16666,0.485457 0.247739,0.03584 0.423337,0.05709 0.687048,0.0904 m -3.664248,-2.2329 c -1.674549,1.19451 0.422133,0.6849 0.413484,1.488631 -0.03224,0.47034 -0.861901,0.760445 -1.272296,0.801553 M 9.8649632,30.622589 9.693202,31.137875 M 21.263758,30.63907 c -0.193047,0.35143 -0.442667,1.236463 2.81e-4,1.346739 0.363347,0.07873 0.6285,-0.267519 0.875527,-0.518332 0.266127,-0.31295 0.27845,-0.0232 0.315292,0.225465 0.03147,0.293802 0.05288,0.652706 0.182987,0.892775 m 12.137818,-1.832136 c 0.417153,-0.08491 0.676113,-0.07804 1.087825,0.106777 0.738003,0.331271 1.248879,0.961923 0.888637,1.725117 -0.142963,0.302871 -0.401919,0.492897 -0.716875,0.595668 -0.330641,0.107924 -0.697351,0.0915 -0.973258,-0.07322 -0.417896,-0.249457 -0.580784,-0.619602 -0.476983,-1.094752 0.08732,-0.399517 0.272816,-0.618227 0.705941,-0.687046 m -17.748699,0.114508 c -0.155095,-0.180653 -0.225106,-0.417255 0.05726,-0.229015 m 12.868431,0.916068 0.05725,0.05725 m 59.099679,6.355179 c 0.256305,-1.445934 0.916372,1.100229 1.122176,1.603114 0.200966,0.495187 0.401352,0.980354 0.652693,1.431344 0.197529,0.353828 0.412234,0.749339 0.542766,1.145079 0.09047,0.274358 0.158027,0.537895 0.276542,0.80155 0.136834,0.304819 0.315465,0.701191 0.415082,1.03057 0.232461,0.766982 0.630438,1.581651 0.966524,2.215507 m -0.597801,5.284757 c -0.360126,-0.220255 -0.275971,-0.580679 -0.229015,-1.087832 0.04178,-0.454132 0.194093,-0.918746 0.349245,-1.374085 0.595444,-1.745333 1.323133,-3.57459 2.039378,-5.267362 0.214134,-0.506296 0.341237,-1.042477 0.55022,-1.545853 0.0824,-0.197067 0.147716,-0.370435 0.223284,-0.572538 0.271954,-0.728556 0.888582,-2.552609 1.41818,-2.576424 m 4.007765,0.17176 0.0595,0.629791 0.12196,1.889378 0.0475,0.515286 0.0406,0.572542 0.12653,2.748187 -0.10024,2.977191 0.21928,2.461917 m 3.32072,-11.737039 v 1.832125 c 0,0.193289 0.006,0.328925 0.008,0.515286 0.003,0.216131 -0.008,0.406157 -0.008,0.629791 0,0.355147 0.016,0.597043 -0.0338,0.916064 -0.0331,0.211608 -0.0745,0.397911 -0.0802,0.629788 -0.0263,1.097672 -0.067,2.23348 -0.11737,3.377983 -0.0195,0.446178 -0.0911,0.929914 -0.0384,1.374085 0.0246,0.208693 0.0402,0.359155 0.0407,0.572547 5.5e-4,0.517968 -0.0911,1.06898 0.229,1.488601 m 18.09222,1.660359 c 0.30631,0.184475 0.34582,0.298804 0.74432,0.37627 0.82847,0.161007 1.76112,0.134314 2.43672,-0.564582 0.50931,-0.594413 0.62944,-1.146319 0.5107,-1.872381 -0.0464,-0.186014 -0.15917,-0.403296 -0.25708,-0.572537 -0.28798,-0.497369 -0.5273,-0.925173 -0.89946,-1.374096 -0.2187,-0.264396 -0.42482,-0.526961 -0.62921,-0.801547 -0.20955,-0.281356 -0.45803,-0.533388 -0.69792,-0.801558 -0.19982,-0.223126 -0.31719,-0.417666 -0.52159,-0.629801 -0.60116,-0.622345 -1.22007,-1.538178 -1.17485,-2.461912 0.0149,-0.309858 0.18436,-0.71556 0.32922,-0.973317 0.2313,-0.409879 0.73742,-1.110208 1.30424,-1.13208 0.58627,-0.02261 0.89487,0.818215 0.91378,1.246587 0.0183,0.410284 0.13682,0.857895 -0.055,1.14508 m 2.33376,7.56872 c 0.2731,0.324561 0.58914,0.583757 1.01225,0.623832 0.23703,0.02246 0.41051,0.01373 0.62981,0.0042 0.41908,-0.01913 1.1319,-0.336539 1.12216,-0.856575 -0.004,-0.227586 -0.1689,-0.417552 -0.32291,-0.562576 -0.18894,-0.17783 -0.34867,-0.293885 -0.6275,-0.366766 -0.18035,-0.04721 -0.23932,-0.01112 -0.40078,-0.05334 -0.21699,-0.05657 -0.57196,-0.367109 -0.85881,-0.306477 -0.77458,0.317999 -0.98229,0.99284 -0.55422,1.517707 z m 12.78126,-8.084003 c 0.10076,0.796568 0.15173,1.613242 0.17119,2.404662 0.004,0.195923 -0.007,0.36843 0.0171,0.572537 0.0585,0.495362 0.0384,0.968678 0.0406,1.488601 0.002,0.430777 0.055,0.886688 0.0573,1.316832 8.9e-4,0.204741 0.0281,0.368378 0.0475,0.572548 0.0327,0.342943 -0.047,0.66088 -0.0475,1.030568 -9e-4,0.848559 -0.19924,2.29931 0.40077,2.51917 m 29.65751,-8.98886 c -0.0423,0.228217 -0.0246,0.506875 -0.0423,0.687046 -0.0258,0.265602 -0.11223,0.40839 -0.12712,0.744305 -0.008,0.197983 -0.009,0.378506 -0.0354,0.572537 -0.0354,0.270469 -0.0229,0.446635 -0.024,0.744296 -8.9e-4,0.187397 -0.0132,0.339283 -0.0457,0.515294 -0.0366,0.196434 -0.0573,0.359831 -0.0847,0.572527 -0.0819,0.629395 -0.0676,1.262169 -0.19409,1.88938 -0.0378,0.188198 -0.0693,0.322283 -0.0756,0.515284 -0.004,0.160663 -0.10253,0.673254 -0.11507,0.801558 -0.0109,0.116804 -0.0166,0.203306 -0.0396,0.343526 -0.032,0.19764 -0.0521,0.274358 -0.0819,0.458033 -0.0538,0.325829 -0.17634,0.855545 -0.26393,1.202327 -0.16103,1.033508 -0.35807,1.627872 -0.53117,2.576367 m -0.4044,-0.740323 c -0.3732,0.0577 -0.81958,0.130931 -1.15671,0.04646 -0.22272,-0.05553 -0.41338,-0.229011 -0.53189,-0.368139 -0.0589,-0.06926 -0.12367,-0.194666 -0.10494,-0.39905 0.0187,-0.204383 0.008,-0.620614 0.35767,-1.149072 0.2754,-0.416232 0.72541,-0.919433 1.02312,-0.572538 m -20.5954,-8.153594 c 0.29142,0.106207 0.57541,0.130768 0.85881,0.195008 0.16432,0.03722 0.296,0.02725 0.45802,0.04378 0.77809,0.07902 1.57048,0.248591 2.34741,0.429001 0.59716,0.138784 1.01855,0.3413 1.4886,0.591784 m 4.63757,-0.687053 -0.0979,1.374095 -0.0166,0.801558 -0.0579,1.145074 -0.10877,0.801548 -0.0687,0.916063 -0.0178,0.37599 0.36757,0.18797 1.20233,0.409357 m -9.43421,-5.743912 0.0281,1.27811 0.39103,2.404664 -0.26222,2.175654 -0.20343,1.18296 m -14.69685,0.892829 c 0.0642,-0.137826 0.14147,-0.249536 0.14658,-0.505551 -0.0764,-0.689316 0.24675,-1.245448 0.52981,-1.814944 M 96.094587,49.590392 c 0.227292,0.06655 0.401923,0.05345 0.629786,-0.01175 0.507843,-0.145545 1.154242,-0.300467 1.603113,-0.603628 0.263937,-0.178517 0.662995,-0.518268 0.371,-0.850846 -0.309734,-0.352978 -0.924076,-0.26032 -1.344318,-0.167983 -1.200038,0.263533 -2.900483,1.213266 -2.465351,2.72207 0.348102,1.206913 1.802928,1.322281 2.808874,1.455628 0.440166,0.03939 0.876914,-0.02421 1.316848,-0.0243 m 16.260091,-2.51919 c 0.39619,0.440562 1.01168,1.116395 1.12618,1.774864 0.0876,0.504585 -0.24561,1.103169 -0.78265,1.151375 -0.37216,0.03349 -0.69392,-0.14204 -0.97103,-0.350504 -0.17004,-0.127679 -0.27596,-0.301496 -0.46032,-0.307798 -0.16718,-0.0052 -0.47064,0.394364 -0.62979,0.495248 -0.34582,0.218591 -0.87542,0.138493 -1.20233,-0.0705 -0.4506,-0.288447 -0.7695,-0.820441 -0.93038,-1.318548 -0.0555,-0.169876 -0.10707,-0.342788 -0.1397,-0.515295 -0.071,-0.376904 -0.0498,-0.690131 -0.008,-1.087821 0.14081,-0.925621 0.27141,-1.400944 0.96359,-0.62979 m -5.09559,-0.114505 c 0.62693,-0.185276 1.34431,0.340313 1.73193,0.916053 0.25535,0.379535 0.39047,0.799208 0.31031,1.25959 -0.0585,0.335104 -0.22386,0.575116 -0.46376,0.801496 -0.33321,0.314151 -0.68304,0.543973 -1.12045,0.593729 -0.66529,0.07559 -1.36379,-0.518322 -1.36952,-1.166204 -0.005,-0.638504 0.3939,-1.362252 0.96875,-1.660369 m 66.27101,1.241252 c 0.0212,0.208693 -0.24946,0.175927 -3.4e-4,0.538793 m -59.572,-0.657216 c 0.0676,0.499021 0.17233,0.988944 0.28627,1.374084 m 19.23735,2.541396 c -0.52559,0.328636 -1.18115,0.128241 -1.66037,-0.284558 -0.46261,-0.398481 -0.87369,-1.05931 -0.78952,-1.719328 0.0727,-0.567161 0.35783,-1.189963 0.74429,-1.599736 0.36815,-0.390527 0.60175,-0.127847 0.69048,0.16816 0.0332,0.109702 0.0378,0.199927 0.0418,0.343755 m 23.58858,-0.687053 c 0.39505,0.319538 0.72302,0.446385 1.06367,0.490587 m 0,0 c -0.028,0.358011 -0.14248,1.105365 -0.25066,1.685056 -0.10993,0.586461 -0.24906,1.884805 -0.35497,2.347411 m 12.1951,-3.778746 c 0.48838,0.487917 0.8124,0.761749 1.2773,0.858962 m -14.90372,2.175492 c 0.10707,-0.569105 0.24162,-1.636837 0.23589,-2.347411 -0.002,-0.235947 -0.0979,-0.660714 -0.4088,-0.608203 -0.26679,0.04503 -0.50554,0.352791 -0.67386,0.55095 -0.44773,0.528563 -0.58458,0.989797 -1.0426,1.259579 -0.0585,-0.200218 -0.051,-0.374554 0.0332,-0.687042 0.0446,-0.167069 0.10477,-0.466621 0.12883,-0.629789 0.0361,-0.243901 -0.0275,-0.507445 0.29599,-0.458032 m -16.26009,0.572534 c -0.20726,-0.316646 -0.39963,-0.503898 -0.80156,-0.342954 -0.32921,0.131974 -0.79297,0.684474 -0.51872,1.064696 0.33665,0.465822 1.18916,0.05582 1.54929,-0.06904 0.13913,-0.04827 0.19006,-0.07271 0.29655,-0.190021 0.53487,-0.638648 0.54037,0.703168 0.67676,0.968661 m 20.81037,-0.37553 c 0.31719,-0.108329 1.76829,-0.551622 1.04747,-1.130055 -0.2479,-0.19899 -0.65613,-0.183538 -0.8903,0.03432 -0.67767,0.467031 -0.40956,0.948185 -0.33342,1.199782 0.0739,0.244211 0.34422,0.449125 0.83612,1.245004 m 9.9226,-2.232935 c 0.53361,0.11045 1.41991,0.431069 1.94664,0.62979 m 7.99782,2.919815 c -0.19696,-0.01664 -0.34525,-0.0094 -0.57254,-0.0021 -0.29142,0.0094 -0.6132,-0.0021 -0.91607,-0.03837 -0.22501,-0.02693 -0.41509,-0.01664 -0.62979,-0.09223 -0.24162,-0.08589 -0.49812,-0.194094 -0.67502,-0.385889 -0.25306,-0.274253 -0.40135,-0.728843 -0.36758,-1.08439 0.0297,-0.309742 0.20955,-0.54964 0.36873,-0.801558 0.17061,-0.270125 0.34523,-0.446063 0.61661,-0.595725 0.3252,-0.179547 0.88401,-0.305968 0.99279,0.195237 0.14485,0.667296 -0.57884,1.397855 -0.99279,1.831836 m -1.94424,-2.110554 c -0.19466,0.515576 -0.41909,1.133626 -0.69677,1.660359 -0.14943,0.283414 -0.30632,0.603461 -0.52445,0.857667 -0.32023,0.290989 -0.57487,0.444407 -0.71567,0.0012 -0.0447,-0.269668 -0.0987,-1.203498 -0.034,-1.501221 m -27.1168,-0.567802 c 0.79926,0.41909 1.7703,0.272465 2.63368,0.353259 0.4712,0.04398 0.92923,0.04721 1.37409,0.04752 m 15.74482,1.717611 c -0.28742,-0.280544 -0.18837,-0.475781 -0.34353,-0.744305 -0.14599,0.07841 -0.28398,0.117375 -0.51528,0.296578 -0.27196,0.2107 -0.5422,0.404783 -0.85881,0.562804 -0.33608,0.167184 -0.71912,0.241042 -1.00193,-0.07331 -0.24161,-0.269095 -0.17521,-0.544483 -0.13799,-0.843348 0.50756,-1.313069 0.90701,-1.533691 1.8285,-0.676326 m -30.76425,-5.768981 c 0.009,-0.290277 0.0676,-0.413943 0.34352,-0.458031 m 18.16687,5.701013 -0.22903,0.40078 m 7.90596,0.515274 -0.1765,0.515228 c 0.8202,-0.432485 0.98922,-1.822347 1.77504,-2.088177 0.37616,-0.103878 0.79354,0.06915 1.14508,0.08423 m 2.63333,1.546005 -0.11451,0.286263 m 6.44153,-1.245245 c -0.008,0.770965 -0.36915,1.414579 -0.71614,1.817772 m -80.098154,7.901025 c 0.05151,-0.27653 0.08016,-0.503836 0.128818,-0.801547 0.04981,-0.310325 0.05838,-0.523874 0.09047,-0.858811 0.03606,-0.379026 0.0071,-0.681323 -0.01777,-1.03057 -0.03892,-0.528459 -0.215848,-1.269894 -0.15917,-1.832127 0.04294,-0.425391 0.210125,-0.395049 0.238754,-0.801547 0.01714,-0.24333 -0.0062,-0.563376 0.05437,-0.801558 0.102483,-0.402495 0.258216,-1.230964 0.754605,-1.355763 0.890867,-0.223292 1.808649,1.03113 2.126408,1.699289 0.1397,0.293709 0.162598,0.585701 0.161455,0.916063 -0.0018,0.549631 -0.134549,0.839335 -0.572537,1.196598 -0.424821,0.346386 -0.783234,0.428834 -1.145083,0.292003 m 8.702764,-0.687066 0.27998,1.374095 0.17806,0.400769 c 0.13455,-0.118509 0.25077,-0.203244 0.29486,-0.515285 0.0309,-0.220993 0.079,-0.411645 0.1294,-0.62979 0.0762,-0.332639 0.0756,-0.472912 0.1477,-0.801548 0.14944,-0.681894 0.513,-2.149887 1.48918,-1.4972 0.5983,0.399636 1.11989,1.074658 0.96644,1.840716 -0.0528,0.262233 -0.45402,0.807278 -0.37272,1.013402 0.0636,0.161453 0.29257,0.192939 0.4317,0.316605 0.51357,0.455173 0.8525,1.086106 0.57884,1.761711 -0.21929,0.54104 -0.81531,0.987052 -1.31799,1.210343 -0.51471,0.228439 -1.17657,0.543911 -1.71762,0.278257 M 91.499033,57.777849 c 0.03776,0.458031 0.172908,0.554787 0.286273,0.687042 m 5.225144,0.287966 c 0.426544,-0.206686 0.600595,0.502692 0.916068,0.719111 0.354967,0.242746 0.724253,0.478069 1.054616,0.752312 0.153439,0.127097 0.283408,0.21699 0.433981,0.361265 0.200957,0.193522 0.349253,0.356119 0.411082,0.627502 0.159741,0.700789 -0.305163,1.406725 -0.92637,1.710749 -1.106715,0.541051 -2.443016,-0.305739 -2.697232,-1.424475 -0.06302,-0.275969 -0.05213,-0.480928 -0.05097,-0.744295 0.0027,-0.604033 0.231309,-1.697584 0.85881,-2.002169 m 15.401285,1.315122 c -0.15091,-0.548474 0.12486,0.02204 0.20319,0.171769 0.42769,0.81128 0.60746,1.825243 0.99908,2.461906 0.13913,-0.08132 0.26796,-0.158583 0.41452,-0.345803 0.38933,-0.498689 0.77636,-1.446239 1.41761,-1.314556 m 9.33237,-0.858841 -0.39103,2.003884 -0.68018,2.290149 -0.36093,1.178827 m 9.10416,-5.186587 c 0.0773,0.186649 0.051,0.493521 0.0744,0.744295 0.0195,0.204398 0.0396,0.350971 0.04,0.572538 5.5e-4,0.329207 -0.0229,0.649837 -0.0836,0.973315 -0.0361,0.193522 -0.0733,0.325205 -0.087,0.515285 -0.0441,0.622927 -0.24792,1.368366 -0.50441,1.946632 -0.14829,0.33264 -0.22043,0.767775 -0.47005,1.03057 m -28.85584,-5.553624 c -0.009,0.450014 -0.10937,1.19718 -0.21757,1.774874 -0.095,0.504408 -0.27368,0.791826 -0.29772,1.25958 m 8.53082,-2.404654 c 0.47979,0.485514 0.79926,1.03687 0.89144,1.717611 0.11737,0.861671 -0.20439,1.861326 -0.89201,2.414969 -0.37501,0.301726 -0.73228,0.389903 -1.36951,0.250233 -0.63723,-0.139669 -1.1634,-0.890867 -1.28592,-1.348327 -0.28283,-1.053476 0.004,-2.345124 0.49467,-3.320728 0.25364,-0.504408 0.57998,-1.060911 1.01627,-1.418173 0.25421,-0.208412 0.68074,-0.290859 0.86796,0.04752 0.22815,0.725052 0.2502,1.629916 -0.12367,2.114959 m 14.39037,3.831198 c 0.34124,0.495237 0.81815,0.783798 1.43135,0.883424 0.43233,0.135883 0.7165,0.168949 1.08782,0.0063 0.13512,-0.03774 0.46777,-0.04232 0.62979,-0.06416 0.16489,-0.02173 0.29945,-0.01778 0.45803,-0.05438 0.37503,-0.08641 1.01283,-0.305167 1.07925,-0.771216 0.0354,-0.252489 -0.0795,-0.498107 -0.21642,-0.687043 -0.10764,-0.14886 -0.20498,-0.258208 -0.34811,-0.39849 -0.15001,-0.145992 -0.28569,-0.248477 -0.45745,-0.353822 -0.22674,-0.138556 -0.45289,-0.319485 -0.68706,-0.431121 -0.27654,-0.132255 -0.95214,-0.128251 -1.07809,-0.428261 -0.10821,-0.25822 0.4609,-0.84965 0.62522,-1.079233 0.26966,-0.376738 0.46777,-0.70709 0.71853,-1.087832 0.16546,-0.251908 0.27711,-0.423676 0.59316,-0.339513 0.37042,0.09962 0.69906,0.401924 1.03056,0.596017 0.25821,0.151148 0.71968,0.372714 0.97332,0.430549 m -16.79505,0.863583 0.0464,0.515284 0.18894,0.458033 0.26909,0.85881 0.3544,1.145074 m -2.17565,-0.114505 c 0.12023,-0.303441 0.24275,-0.616626 0.38818,-0.916064 0.29716,-0.610895 0.63322,-1.163967 0.97504,-1.431348 M 90.827048,74.610473 c 0.02866,-0.36241 0.121382,-0.718529 0.186076,-1.087822 0.04124,-0.235884 0.09733,-0.372714 0.139128,-0.62979 0.02232,-0.138557 0.01714,-0.396193 0.07668,-0.510137 0.127103,-0.242747 0.247342,-0.247333 0.342951,-0.463751 0.07276,-0.166611 0.191226,-0.697929 0.266803,-0.915491 0.152867,-0.439139 0.788965,-1.571038 1.390702,-1.11988 1.110143,0.831901 0.798115,2.974331 0.744294,4.154343 -0.02,0.444858 -0.127675,0.876551 0.0018,1.316833 m -2.805428,-5.381866 c -0.114507,0.387616 -0.06008,0.642965 -0.06526,1.03057 -0.0018,0.176343 0.01089,0.334365 0.0071,0.515284 -0.0089,0.415098 -0.01411,0.664717 0.117007,0.863958 m 19.178679,-2.009032 c 0.98306,-0.929341 0.60749,1.438824 0.5674,2.003885 -0.0274,0.403067 -0.11222,0.740292 -0.15516,1.145074 -0.027,0.248487 -0.0905,0.649266 -0.0252,0.916063 0.0664,0.271966 0.37329,0.612051 0.596,0.858811 0.19467,0.215847 0.4088,0.380742 0.61033,0.58227 0.52044,0.520442 0.9487,1.056336 1.21207,1.707889 m 7.08242,-5.876027 c 0.0829,0.428262 0.16422,1.066127 0.13842,1.52473 0.0618,1.2228 -0.37397,4.670714 -0.89831,1.488601 -0.0319,-0.183788 -0.018,-0.689912 -0.0274,-0.916064 -0.0195,-0.443141 -0.11043,-0.920638 -0.11221,-1.374095 -0.93818,-3.11866 -0.71025,1.617074 -0.74975,2.461917 -0.0338,0.492959 -0.18836,0.981334 -0.33837,1.431348 m 12.48133,-4.351297 c -0.31717,0.566247 -0.24847,1.37238 -0.35211,2.003897 -0.13339,0.817581 -0.45974,1.701005 -0.56395,2.519159 m -7.55751,-3.893255 0.46262,1.545853 0.20554,0.456888 0.24791,0.287407 c 0.42081,-0.483799 0.62177,-1.280771 0.98476,-1.88938 0.16088,-0.270811 0.29086,-0.437984 0.56109,-0.515284 m 7.15675,0.400779 c -0.25478,0.50784 -0.55994,1.225234 -0.75003,1.774874 -0.0579,0.167184 -0.12824,0.395622 0.0263,0.523291 0.16259,0.134554 0.46032,0.06645 0.66643,0.04461 0.20211,-0.02121 0.36643,-0.07903 0.57253,-0.120797 0.16949,-0.03494 0.41281,-0.0784 0.57254,-0.09795 0.13685,-0.01664 0.25078,-0.0498 0.34181,0.07497 0.0939,0.128814 0.0275,0.423666 -0.003,0.606311 -0.1374,0.831328 -0.49467,1.66666 -0.33894,2.232906 M 95.565863,74.628668 c -0.108204,-0.176916 -0.218713,-0.319475 -0.20783,-0.533606 0.01375,-0.279973 0.265651,-0.729415 0.457449,-0.875989 0.100769,-0.07674 0.198672,-0.113934 0.335506,-0.118519 0.246771,-0.0073 0.500978,0.148299 0.616056,0.421971 0.181496,0.43398 -0.382453,0.792958 -0.730555,0.917778 -0.137985,0.0498 -0.421964,0.04472 -0.470626,0.188365 0.02616,0.511253 0.684992,1.01496 0.814149,1.241257 m 14.394638,-1.97094 c 0.70766,-0.10992 1.85802,-0.714829 2.66701,-0.834493 m -9.04611,1.66036 -0.0573,0.343526 c -0.38361,0.07788 -0.42941,0.361848 -0.91606,0.39505 -0.63724,0.04409 -0.9945,-0.494676 -1.11073,-1.02485 -0.0745,-0.339513 0.13912,-0.811281 0.35498,-1.076946 0.0962,-0.117936 0.20668,-0.199812 0.35497,-0.221565 0.68189,-0.09962 0.70593,0.840489 0.80155,1.241258 m 31.48963,3.091717 c 0.12481,0.342372 0.30859,0.65669 0.80155,0.747727 0.44487,0.08246 0.86511,-0.102527 1.09813,-0.518716 0.46318,-0.827315 -0.42368,-1.592801 -0.98362,-2.068583 -0.24218,-0.205543 -0.70079,-0.411656 -0.57196,-0.794114 0.17634,-0.522729 0.87828,-1.107859 1.31111,-1.430193 0.13226,-0.09847 0.23474,-0.214141 0.40822,-0.194666 0.296,0.03317 0.48494,0.303442 0.74201,0.453447 0.45804,0.266808 0.88858,0.434563 1.20233,0.598875 m 2.57642,-1.030568 c 0.54505,0.01144 2.09035,0.05615 2.40294,0.591441 0.21758,0.372714 -0.49924,0.674439 -0.19752,1.05175 0.44143,0.5525 1.47887,0.655557 1.48173,1.505778 0.004,0.994498 -1.63974,2.200839 -2.2558,2.232896 m -9.65732,-4.766945 c -0.0864,0.269668 -0.43513,0.952125 -0.30688,1.240686 0.10706,0.239325 0.49181,0.07726 0.70765,-0.03837 M 100.6175,73.808603 c 0.18722,0.363553 0.46033,0.530164 0.46491,0.973316 0.005,0.482644 -0.3315,1.009387 -0.80842,1.186864 -0.487241,0.181502 -0.519869,-0.373858 -0.863972,-0.373286 -0.258215,0 -0.406502,0.366995 -0.681893,0.441988 -0.344665,0.09441 -0.802695,-0.260497 -0.93095,-0.570811 -0.146565,-0.353832 -0.147136,-0.707091 -0.09963,-1.085534 m 42.654145,-0.515285 c 0.0446,0.431122 -0.0596,0.74258 -0.18378,1.316833 -0.21815,1.009387 -0.55766,2.355428 -0.67502,3.263475 m -28.69821,-4.00745 c -0.075,0.09847 -0.20642,0.262474 -0.25508,0.457711 -0.0315,0.12767 -0.0544,0.270812 -0.0945,0.400769 -0.2044,0.662429 -0.41166,1.457115 -0.78151,1.774874 M 99.581765,74.79395 c -0.135682,0.320619 -0.148859,0.51413 -0.171757,0.801548 m 23.822712,-0.699073 -0.34352,1.488601 m -16.93795,-0.760379 c -0.15273,1.590072 -0.0481,0.481797 0.50614,0.01608 0.58971,-0.723114 1.27848,-1.085534 1.83213,-1.145075 m -3.95128,0.572732 0.22973,1.087627 m 10.13393,-0.171758 c 0.0402,0.506124 0.0297,1.03973 -0.005,1.545853 -0.024,0.350972 -0.0876,0.700218 -0.10936,0.973317"
       id="path19279"
       sodipodi:nodetypes="cccccccccccccccccscsccccccccccccccsccccccccccscccsscccccsccccccccccccccccccccccccccccccccccccsccscccccccsccscccccccccccccscccccccccccccccccccccccccccccccccsccccccccscccccsccsccccccccccccccccccccccscccccccccccccccccccccccccccccccscscccccccccccccccccscccscccccccccccccccccccccccccccccccsccccsccccccccccccccccccccccccscccccccsccccccccccccccccccscccccccccccccsccccccccccccccscccccccccccsccsccccccccsccccccccccccccccccccccccsccccccccccccccccccccccccccccccccccccccccccccccccccccccccccccccccccsccscccccccccccccccccccccccccccsccccccccccccccccccsccccccccccccccccccccscccccsccssccccccccccccccccccccccccccccccccccccc" /><path
       style="fill:none;stroke:#010101;stroke-width:0.051182"
       d="M 1.7468635,10.117141 C 2.1402662,9.9590253 2.547805,9.9780459 2.9725255,9.9863148 c 0.2683878,-0.00627 1.2845729,0.037568 1.5374191,0.066736 0.1280243,0.01476 0.2142762,0.03408 0.3601548,0.07698 0.1254666,0.03688 0.2008869,0.04391 0.3101744,0.129323 0.1916704,0.149802 0.071535,0.492762 -0.094666,0.701871 -0.1571894,0.197821 -0.3942813,0.424917 -0.5132897,0.677451 -0.031225,0.06625 -0.077199,0.190621 -0.045229,0.257028 0.05788,0.120252 0.1421259,0.123873 0.2853813,0.164016 0.4078643,0.103596 0.8193108,0.0653 1.2339695,0.227352 0.2044951,0.08249 0.5723527,0.264153 0.7789964,0.476839 0.062941,0.06479 0.105449,0.10768 0.1497073,0.20131 0.081183,0.171772 0.081697,0.38151 -0.00398,0.563244 -0.070258,0.149126 -0.2035245,0.296998 -0.3230978,0.417061 -0.2079259,0.208737 -0.3871141,0.303508 -0.6560846,0.407738 -0.7507895,0.361004 -1.6572069,0.615019 -2.3402825,0.634487 m 4.2779447,-0.969561 c 0.1868974,0.250771 0.3889865,0.207482 0.6699345,0.189241 0.1766652,-0.01149 0.2972631,-0.08297 0.5077249,-0.182412 0.204841,-0.09681 0.4491898,-0.267117 0.570789,-0.405758 0.09926,-0.113087 0.1481375,-0.151033 0.2414119,-0.261579 0.08366,-0.09922 0.2039493,-0.19262 0.2657583,-0.313339 0.07743,-0.151237 0.08337,-0.318886 0.06607,-0.462294 -0.04379,-0.362781 -0.4065032,-0.417542 -0.6248981,-0.454816 -0.147001,-0.02506 -0.3580875,-0.04739 -0.5122757,-0.01371 -0.1336598,0.02922 -0.1534238,0.0313 -0.3062177,0.04125 -0.1056114,0.0068 -0.1628282,0.02753 -0.2544548,0.06564 -0.1089215,0.04528 -0.2655998,0.150227 -0.4051913,0.188585 -0.1213289,0.03332 -0.1544813,0.01664 -0.2322357,-0.07996 -0.032312,-0.04016 -0.025579,-0.129649 -0.0206,-0.15311 0.033175,-0.156763 0.1461382,-0.243877 0.2219484,-0.363518 0.1104321,-0.174268 0.1882457,-0.304614 0.3048207,-0.467832 0.1562444,-0.218699 0.286951,-0.386226 0.4560013,-0.573731 0.110098,-0.122157 0.1799564,-0.20289 0.2572644,-0.313142 0.1078877,-0.153918 0.042955,-0.16343 0.197749,-0.303227 0.073216,-0.06614 0.3301844,-0.0674 0.4505828,-0.07018 0.5159287,-0.01197 1.2605267,-0.2168978 1.7889077,-0.1268206 m 0.542715,0.094709 c -0.01925,0.483991 -0.06554,0.877344 -0.04579,1.463763 -0.01703,0.4879 0.113957,1.000045 0.591537,1.223524 0.20271,0.08725 1.274825,0.333405 1.440817,0.316398 m 7.251527,-2.625608 c 0.19156,0.484926 0.09136,0.468508 0.323626,0.709232 m -7.159744,-0.03869 c -0.15557,0.230104 -0.365663,1.486503 -0.41541,1.955074 -0.01384,0.522929 -0.08171,1.028306 -0.06792,1.48625 m 31.71068,-2.425053 c 0.07467,-0.08037 0.122257,-0.164973 0.204898,-0.363124 0.03899,-0.09357 0.07453,-0.247621 0.103712,-0.30958 0.0948,-0.201144 0.37624,-0.670815 0.712238,-0.562611 0.448445,0.144424 0.572883,0.885181 0.542149,1.301449 -0.01424,0.192263 -0.112205,0.39599 -0.200165,0.567796 -0.14149,0.276411 -0.363509,0.478101 -0.589843,0.687775 -0.786557,0.880797 -1.104541,1.085846 -0.113748,1.717692 0.370719,0.249837 0.86496,0.684594 1.210735,1.064072 0.04968,0.05453 0.101102,0.105684 0.158271,0.136487 m -2.608366,-3.86813 c -0.130048,-0.558741 0.411182,-0.627565 0.580127,-0.371826 0.05445,0.153221 0.0355,0.318274 0.03626,0.459921 -0.116411,1.296673 -0.208637,2.413329 -0.405627,3.144386 m -5.31201,-4.650017 c -0.0011,0.353941 0.0021,0.519128 -0.04922,0.820272 -0.02506,0.146796 -0.06149,0.377254 -0.07343,0.51366 -0.01149,0.130969 -0.01431,0.143424 -0.0355,0.307998 -0.03373,0.261216 -0.07241,0.692156 -0.08951,0.923598 -0.239242,0.520103 -0.03613,0.936959 -0.01794,1.433896 0.0039,0.169061 0.05075,0.706655 0.07254,0.919841 m 10.477857,-5.157843 -0.03834,0.922413 c -0.04461,0.607735 -0.17093,1.196177 -0.256915,1.797808 l -0.04167,0.410533 -0.05396,0.615599 -0.03555,0.307999 c 0.131737,0.233888 0.118345,0.454497 0.118956,0.71398 0.01021,0.293143 0.02174,0.582128 0.08843,0.868276 l 0.109223,0.663009 M 41.655566,11.29041 c 0.258241,0.837671 0.495012,1.507956 0.403837,2.328586 l -0.34805,0.07631 -0.45972,0.04481 -0.20428,0.02179 -0.304635,0.109455 M 29.507091,15.05352 c 0.04951,0.104106 0.04172,0.242467 0.21239,0.327843 0.08578,0.04286 0.35046,0.03206 0.460905,0.0064 0.224612,-0.05226 0.335607,-0.222038 0.502387,-0.412668 0.190913,-0.218222 0.297302,-0.425423 0.291575,-0.672308 -0.0039,-0.168804 -0.01422,-0.277971 -0.121559,-0.457942 -0.123958,-0.207947 -0.360284,-0.331889 -0.565186,-0.4562 -0.273343,-0.166742 -0.377417,-0.264761 -0.672306,-0.29158 -0.272409,-0.0439 -0.353094,0.04664 -0.430934,-0.186235 -0.03108,-0.09282 0.22888,-0.358151 0.314353,-0.425407 0.100812,-0.07928 0.148599,-0.124576 0.251685,-0.185024 0.115511,-0.06769 0.158662,-0.06373 0.305429,-0.07532 0.08161,-0.0064 0.213705,-0.0391 0.30582,-0.05829 M 17.658845,11.898247 c -0.344727,0.173206 -0.262879,0.08217 -0.507132,0.207998 -0.08161,0.04202 -0.210865,0.106357 -0.303448,0.160625 -0.22825,0.133848 -0.352255,0.186334 -0.555925,0.311573 -0.58238,0.342806 -1.208547,0.964277 -1.440507,1.535138 -0.04388,0.116723 -0.102517,0.239721 -0.136702,0.36154 -0.0522,0.186232 -0.06883,0.375889 -0.09659,0.61659 -0.02195,0.190188 -0.0072,0.281127 0.255406,0.343894 0.241911,0.05787 0.564812,-0.155784 0.71042,-0.272457 0.07414,-0.05937 0.121697,-0.09913 0.200914,-0.166747 0.320132,-0.273439 0.843926,-0.90859 0.667663,-1.380723 -0.25131,-0.571358 -1.000226,-0.58401 -1.33253,-0.796769 -0.275625,-0.195932 -0.391616,-0.504051 -0.274634,-0.804212 0.132724,-0.231657 0.254605,-0.457377 0.376876,-0.674285 0.09492,-0.167651 0.188399,-0.478969 0.466276,-0.497177 0.271693,-0.01779 0.207072,0.193591 0.2112,0.276678 m 5.556901,3.403598 c 5.7e-4,-0.704861 0.169325,-1.384099 0.250978,-2.053649 -0.0749,-0.386701 -0.01713,-0.648002 -0.06636,-1.022373 -0.0074,-0.06166 -0.02032,-0.189557 0.0355,-0.307998 0.11159,-0.236733 0.157633,-0.161022 0.264621,-0.364508 0.159254,-0.303037 0.222126,-0.534588 0.384184,-0.725652 0.2533,-0.2986187 0.618322,-0.5614052 0.962698,-0.4318968 0.211647,0.079603 0.377454,0.217944 0.511643,0.3550345 0.270373,0.2761903 0.526251,0.8081893 0.430328,1.2613753 -0.02311,0.1092 -0.0398,0.166952 -0.0964,0.258216 -0.155403,0.250573 -0.443408,0.520758 -0.674746,0.706793 -0.09508,0.07644 -0.188145,0.198601 -0.274897,0.287953 -0.122455,0.126018 -0.184768,0.138881 -0.335401,0.255209 -0.258815,0.199933 -0.799259,0.46755 -0.866572,0.653364 -0.05663,0.156179 0.209423,0.293386 0.379816,0.433037 0.496407,0.45408 1.345337,0.431362 1.811262,0.836861 m 12.14598,-1.664037 c -0.03094,0.07859 -0.100081,0.42397 -0.133093,0.515045 -0.06958,0.191857 -0.05749,0.19859 -0.117238,0.46348 -0.06025,0.267257 -0.174886,0.536186 -0.280708,0.774448 -0.07123,0.160359 -0.136711,0.301591 -0.236612,0.46625 -0.09803,0.161595 -0.161396,0.340919 -0.347891,0.451783 -0.306834,0.182361 -0.514382,-0.210462 -0.590178,-0.430023 -0.150886,-0.473686 -0.300095,-1.127249 -0.220876,-1.428355 m -0.621266,1.908652 c -0.227071,-7.68e-4 -0.35646,-0.0081 -0.667759,-0.09545 -0.677632,-0.189986 -1.55838,-0.970409 -1.575202,-1.695564 -0.0024,-0.105673 -0.0021,-0.235451 0.05141,-0.359562 0.345818,-0.512414 1.335618,-0.39838 1.671449,-0.03877 0.238764,0.262061 0.158685,0.522201 -0.08074,0.565025 -0.09778,0.01747 -0.168674,0.005 -0.256235,-0.01114 -0.119898,-0.0221 -0.559153,-0.185156 -0.670724,-0.223372 m 6.329303,1.38905 c -0.16767,-0.04434 -0.606316,-0.103886 -0.875598,-0.227118 -0.202735,-0.09283 -0.37759,-0.168736 -0.50196,-0.30408 -0.201696,-0.229606 -0.317003,-0.636934 -0.216318,-0.865309 0.0552,-0.120565 0.122587,-0.190937 0.197553,-0.311757 0.06909,-0.111369 0.13016,-0.177852 0.224715,-0.244143 0.132395,-0.09271 0.313539,-0.175911 0.456559,-0.181225 0.143327,-0.0053 0.173457,0.02245 0.257621,0.07082 0.138384,0.07946 0.236168,0.196539 0.205029,0.379211 -0.01635,0.09611 -0.04227,0.126615 -0.09759,0.207046 -0.200525,0.291706 -0.571128,0.492645 -0.747108,0.529288 M 26.44734,14.100543 c 0.164031,0.476762 -0.01298,0.561488 -0.371932,0.887505 -0.158065,0.142305 -0.210779,0.220424 -0.351251,0.306772 -0.0956,0.0588 -0.176992,0.103376 -0.303844,0.143588 -0.334561,0.106056 -0.609769,-0.135859 -0.726642,-0.426857 -0.0601,-0.149634 -0.01258,-0.22712 -0.0084,-0.358178 0.0063,-0.192536 0.007,-0.253016 0.109884,-0.412113 0.09,-0.139038 0.14124,-0.212258 0.240424,-0.304203 0.109002,-0.101125 0.218037,-0.278238 0.494827,-0.369847 0.08007,-0.02654 0.128256,-0.01716 0.204472,-0.01333 0.180217,0.0092 0.436805,0.154513 0.569974,0.293952 0.04795,0.05018 0.122693,0.184581 0.1424,0.252675 m 1.175585,-0.370639 c -0.116112,-0.0421 -0.271917,-0.202675 -0.402303,-0.133659 -0.209882,0.111103 -0.295339,0.415238 -0.337166,0.545377 -0.22471,0.409463 -0.168332,0.398444 -0.03455,0.717541 0.06742,0.156836 0.205064,0.243901 0.356753,0.298899 0.08157,0.02955 0.108828,0.03925 0.205859,0.04642 0.1299,0.0096 0.160936,0.01214 0.306811,-0.01571 0.16178,-0.03084 0.158019,-0.06715 0.356002,-0.102099 0.262019,-0.04627 0.393828,-0.157552 0.555729,-0.320066 0.179608,-0.180279 0.366489,-0.336257 0.343933,-0.622327 -0.02311,-0.29348 -0.504384,-0.525393 -0.679037,-0.581548 -0.240057,-0.133467 -0.533511,0.111718 -0.715561,0.05074 m 14.479974,0.0055 c 0.251649,0.123607 0.499037,0.150203 0.771876,0.169828 l 0.256237,0.01114 0.410532,0.04166 m -1.438645,-0.222606 0.0084,0.358178 0.0071,0.307008 0.0059,0.25584 -0.03336,0.76871 -0.04286,0.359364 -0.09522,0.309383 m 6.898817,-0.910921 c -0.13326,0.08858 -0.431449,0.491249 -0.563274,0.729807 -0.0574,0.10377 -0.149831,0.320786 -0.186684,0.413896 -0.09097,0.271691 -0.0599,0.540684 0.328422,0.546985 0.904328,-0.229797 1.003958,-1.54448 1.535158,-1.870104 m -47.5304389,3.154566 0.4105325,0.04166 0.2570278,0.04523 0.4113234,0.07581 c 0.9466999,0.450261 1.4871121,0.340128 1.9042993,0.433636 M 4.2498784,18.491121 c 0.1797171,0.250018 0.318575,0.480559 0.619869,0.819909 0.1259023,0.141759 0.2565304,0.332759 0.3615531,0.503569 0.1283269,0.208769 0.2854616,0.480915 0.3321206,0.709035 0.027777,0.135794 0.067982,0.200545 0.1106479,0.355804 0.070927,0.483051 -0.068617,1.045337 -0.2675999,1.337298 -0.109309,0.163137 -0.3323193,0.390294 -0.5000096,0.515006 -0.084252,0.06268 -0.1551025,0.07461 -0.2532688,0.116822 -0.1047262,0.04502 -0.1480641,0.05314 -0.2546543,0.05709 -0.1098775,0.0041 -0.1285993,0.0084 -0.255841,0.0059 -0.2371621,-0.0044 -0.2736462,-0.06932 -0.4652606,-0.193989 m 7.4767412,-4.320272 c 0.01449,0.62461 -0.0218,1.266933 -0.0073,1.894409 0.0032,0.139995 0.01,0.265832 0.0083,0.358177 -0.06502,1.234923 -0.317718,1.936717 -0.292893,2.82256 m 2.045667,-2.300067 c -0.379543,-0.02109 -0.713379,0.01033 -1.225861,0.122277 -0.94707,0.619307 -0.928369,1.205671 -0.318807,1.705406 0.255241,0.16489 0.467751,0.265005 0.726642,0.426857 0.329682,0.204456 0.438175,0.202706 0.675077,0.410953 m 14.669955,-3.207262 c 0.306507,0.29354 0.673682,0.254684 1.032659,0.377062 0.09564,0.03337 0.131378,0.04893 0.154891,0.05615 0.102355,0.03151 0.181622,0.02342 0.361739,0.145196 m -19.6556999,0.14889 c -0.088094,0.177183 -0.1451655,0.252689 -0.2548894,0.415477 -0.3225069,0.509823 -0.5432739,1.349012 0.1486599,1.626266 0.1838031,0.06664 0.248426,0.05399 0.4107309,0.05021 0.1034639,-0.0024 0.2550832,0.0056 0.3581772,-0.0084 0.1902633,-0.02561 0.3100323,-0.101902 0.4069713,-0.111833 m -1.9515119,-0.26186 c -0.038226,0.0031 -0.1726717,-0.0326 -0.206058,-0.05496 -0.091161,-0.06106 -0.2239878,-0.251908 -0.2724965,-0.343498 -0.07518,-0.142117 -0.1558025,-0.448648 -0.1933322,-0.609863 -0.026904,-0.115697 0.00101,-0.216582 -0.1251109,-0.244527 -0.1268502,-0.02814 -0.2462396,0.05347 -0.3556065,0.119137 -0.1510227,0.0907 -0.2114159,0.157673 -0.3528363,0.238566 -0.1872965,0.107146 -0.3846345,0.218415 -0.6602396,0.228648 -0.5074852,0.07242 -0.2593986,-0.707008 -0.1078518,-0.970219 0.1295934,-0.208915 0.223826,-0.306837 0.340385,-0.408911 0.087764,-0.07688 0.1067786,-0.06462 0.1943473,-0.0813 0.2122912,-0.04044 0.3182701,0.08329 0.3609455,0.111068 m 18.7464089,2.585674 c -0.28636,-0.596168 -0.19141,-1.28856 -0.19861,-1.940829 -0.0037,-0.158213 0.0015,-0.574143 -0.01543,-0.665187 -0.0059,-0.03175 -0.06834,-0.147393 -0.156866,-0.141399 -0.182588,0.01224 -0.197098,0.05321 -0.277866,0.160034 -0.01337,0.01767 -0.284454,0.513691 -0.335585,0.613583 -0.130623,0.255067 -0.205959,0.640116 -0.329505,0.87797 -0.38664,0.711482 -0.993029,1.438315 -0.394443,-0.451609 0.04314,-0.230581 0.103248,-0.501357 0.06749,-0.769502 -0.0056,-0.15192 0.02641,-0.250088 -0.160428,-0.294902 -0.643492,0.110012 -1.530561,2.919819 -1.66395,3.306573 -0.04843,-0.317423 0.993857,-2.453894 0.890392,-2.57537 m -9.703184,2.267844 c 0.203188,-0.0048 0.278812,0.02209 0.460118,-0.02772 0.458188,-0.128787 0.692335,-0.407653 0.697759,-0.818269 -0.0027,-0.404732 -0.492645,-0.581701 -0.836693,-0.757077 -0.320038,-0.163876 -0.522224,-0.334429 -0.611025,-0.591624 -0.06591,-0.191019 0.06612,-0.405263 0.27909,-0.475786 0.234263,-0.07757 0.384085,0.02939 0.567795,0.200162 m 19.386794,-0.705695 0.02968,1.279203 -0.03194,0.461502 -0.0027,0.25604 0.0084,0.358178 0.0071,0.307007 -0.0075,0.409741 0.03007,0.562456 m -5.046589,-3.475186 c -0.06006,0.325446 -0.03604,0.653287 -0.02841,0.98193 l 0.0059,0.255839 -0.05752,0.462097 -0.07225,0.564828 0.0048,0.204673 -0.01726,0.35877 c -0.353742,0.16477 -0.634658,0.05412 -0.998966,-0.02802 m 3.931752,-2.650989 c -0.06176,0.385196 -0.09456,0.549424 0.01279,0.921226 0.183083,0.633701 0.787751,0.529776 1.251221,0.602372 0.13272,0.02083 0.179233,0.0087 0.30681,-0.01559 0.342878,-0.0654 0.505485,-0.0406 0.672345,-0.07534 m 1.813321,-0.912391 c -0.04846,-0.206423 -0.125433,-0.295868 -0.315515,-0.359601 -0.174449,-0.05846 -0.32483,0.03119 -0.439718,0.172338 -0.129268,0.158889 -0.205143,0.220548 -0.273115,0.364705 -0.08709,0.184841 -0.101392,0.554548 7.64e-4,0.767918 0.09066,0.189318 0.177341,0.233996 0.338527,0.248126 0.17678,0.01551 0.340659,1.05e-4 0.509112,-0.122746 0.69791,-0.355818 0.837698,-0.851312 0.757988,-0.06024 -0.180583,0.598788 0.02449,1.196195 0.05012,1.790687 m 5.964242,-3.312485 c 0.565569,0.04343 0.853271,0.15288 1.437457,0.171438 0.129417,0.0042 0.210046,-0.01808 0.284985,0.146977 0.03945,0.08688 -0.0082,0.238355 -0.04405,0.308197 -1.020225,1.344339 -0.390218,0.186714 0.507227,1.268124 0.06549,0.0848 0.100486,0.169534 0.108271,0.253468 0.0094,0.100371 -0.0052,0.140652 -0.05373,0.257224 -0.248037,0.527103 -0.697446,0.684987 -1.191018,0.889406 -0.161806,0.06728 -0.205114,0.07838 -0.406772,0.12037 M 18.768327,24.415454 c -0.01617,-0.327175 -0.116062,-0.732786 -0.249013,-1.171725 -0.04851,-0.160039 -0.339627,-0.692786 -0.563417,-0.746317 -0.151819,-0.03635 -0.239905,0.04186 -0.345082,0.204239 -0.356269,0.305159 -0.821968,2.221296 -0.703534,0.937842 -0.01579,-0.20032 0.30682,-0.940026 0.117678,-1.236771 m -1.988812,0.02589 c 0.193292,-0.126792 0.430276,-0.118004 0.561268,-0.08126 0.139494,0.0391 0.357005,0.225837 0.478355,0.389919 0.149523,0.202185 0.275843,0.604725 0.267475,0.864122 -0.0036,0.111949 -0.04454,0.216159 -0.103759,0.309581 -0.05334,0.08417 -0.102378,0.12632 -0.19138,0.209223 -0.117566,0.109478 -0.247878,0.19026 -0.455765,0.215355 -0.14591,0.01761 -0.287542,-0.0056 -0.410731,-0.05021 -0.688533,-0.167326 -0.346955,-1.664499 -0.145464,-1.856719 z m 21.65303,-0.118321 c 0.185754,-0.118424 0.398667,-0.222631 0.606699,-0.329796 0.182886,-0.0942 0.333968,-0.155908 0.559486,-0.158016 0.205968,-0.0019 0.336327,0.122286 0.399429,0.297908 0.101739,0.607749 -0.590731,1.026413 -0.680747,1.551662 -0.03472,0.26861 0.187871,0.34582 0.384909,0.409187 0.250992,0.08065 0.231195,0.03729 0.563839,0.02957 m 1.998656,-2.11979 c 0.333095,-0.06917 0.490523,0.167291 0.72387,0.307431 0.06837,0.0409 0.1306,0.07279 0.191394,0.157697 0.105128,0.1469 0.08136,0.344913 0.01187,0.511682 -0.09803,0.23501 -0.321964,0.450413 -0.531963,0.60964 -0.242197,0.183574 -0.520074,0.32318 -0.863529,0.293058 -0.368693,-0.03236 -0.622391,-0.346748 -0.630635,-0.702111 0.05389,-0.452407 0.298958,-1.106013 0.691428,-1.091148 0.16351,0.03121 0.284644,-0.002 0.428026,0.01794 M 21.05665,23.748032 c 0.175007,0.08252 0.299165,0.202041 0.376218,0.400839 0.04776,0.123298 0.0985,0.201115 0.1021,0.356001 0.0037,0.161129 -0.01388,0.224866 -0.111068,0.360947 -0.181185,0.253628 -0.475044,0.536338 -0.736437,0.622881 -0.09653,0.03199 -0.162739,0.04473 -0.254655,0.05709 -0.145248,0.0196 -0.433877,-0.04605 -0.565026,-0.08074 m 8.43511,-1.629148 c 0.1489,-0.0035 0.204863,0.008 0.35778,-0.02535 0.124848,-0.02731 0.294193,-0.04097 0.408555,-0.04362 0.26684,-0.0061 0.154872,0.04889 0.510491,-0.06303"
       id="path49701"
       sodipodi:nodetypes="cccccccccccscccccscccscccccccccccccscccccccccccccsccccsccccccccccccccccccccccccccccccssccccccscccccccccccccccscccccccccscccccccccccccccccscccccccccscccccccccssccccccccsccccscccccccccccccccccccccccccccccsccccccccsccccccccccccccscccccccccccccccccccccccccccccccsccccccccccccccccccccccccccsccccccsccccccccccccccccccsccccccccccccccccccccsccccccsc" /></g></svg>
