<?xml version="1.0" encoding="UTF-8" standalone="no"?>
<!-- Created with Inkscape (http://www.inkscape.org/) -->

<svg
   width="210mm"
   height="297mm"
   viewBox="0 0 210 297"
   version="1.1"
   id="svg89024"
   inkscape:version="1.2 (dc2aedaf03, 2022-05-15)"
   sodipodi:docname="Casey - Pulsz - Envelope 61.svg"
   xml:space="preserve"
   xmlns:inkscape="http://www.inkscape.org/namespaces/inkscape"
   xmlns:sodipodi="http://sodipodi.sourceforge.net/DTD/sodipodi-0.dtd"
   xmlns="http://www.w3.org/2000/svg"
   xmlns:svg="http://www.w3.org/2000/svg"><sodipodi:namedview
     id="namedview89026"
     pagecolor="#ffffff"
     bordercolor="#666666"
     borderopacity="1.0"
     inkscape:pageshadow="2"
     inkscape:pageopacity="0.0"
     inkscape:pagecheckerboard="0"
     inkscape:document-units="mm"
     showgrid="false"
     inkscape:zoom="2.8284271"
     inkscape:cx="162.98811"
     inkscape:cy="54.623999"
     inkscape:window-width="1920"
     inkscape:window-height="991"
     inkscape:window-x="-9"
     inkscape:window-y="-9"
     inkscape:window-maximized="1"
     inkscape:current-layer="layer1"
     inkscape:showpageshadow="2"
     inkscape:deskcolor="#d1d1d1" /><defs
     id="defs89021"><pattern
       id="EMFhbasepattern"
       patternUnits="userSpaceOnUse"
       width="6"
       height="6"
       x="0"
       y="0" /></defs><g
     inkscape:label="Layer 1"
     inkscape:groupmode="layer"
     id="layer1"><path
       style="fill:none;stroke:#262529;stroke-width:0.058891"
       d="m 29.095692,1.3402801 -0.769387,1.053774 c -0.334506,0.8861743 -0.384286,1.3018662 0.100209,1.9473705 0.460588,0.6136446 1.265216,0.7364326 1.78811,0.7089891 M 19.614238,1.7525159 c -0.08639,0.3725749 0.05577,0.4424077 0.14228,0.7655837 0.04941,0.1846235 0.0636,0.3277294 0.09817,0.53002 0.02938,0.1717841 0.05907,0.2790251 0.06131,0.4711278 0.0016,0.130208 -0.01107,0.2182501 -0.0017,0.3532866 0.01047,0.1519983 0.006,0.2103004 0.07898,0.3234304 0.07969,0.1235525 0.285209,0.2031141 0.364652,0.2819104 0.340861,0.338212 0.48968,0.6636438 0.846501,0.7492118 M 16.198616,2.5769905 c 0.21798,-0.2650935 0.160847,1.122204 0.193518,1.4722756 0.03304,0.2262599 0.08827,0.5208913 0.09864,0.7655837 0.01626,0.3854414 -0.05417,0.6496858 -0.05659,0.9422563 m 16.89113,-0.7550526 c -0.0297,-0.4022035 0.03625,-0.9878672 0.160524,-1.3607176 m 4.502398,-0.6521083 c -0.604488,-0.6270115 -1.536048,0.1631331 -0.883071,0.6708256 0.404641,0.3085302 0.914223,0.5082295 1.14808,1.0370122 0.278789,0.6303695 -0.864166,1.1841217 -1.325048,0.942257 M 19.916001,3.5192474 c 0.04647,-0.00976 0.158823,-0.077502 0.237679,-0.099293 0.320308,-0.088511 0.796206,-0.4217183 1.227288,-0.5485103 m -9.151075,2.3477518 c -0.1179,0.1312093 -0.364888,0.2437504 -0.507052,0.2701337 -0.08509,0.015787 -0.177144,0.027083 -0.291215,-0.00315 -0.360709,-0.3778124 0.097,-0.8093247 0.05807,-1.319154 -0.0052,-0.1942226 0.01314,-0.2961634 0.05666,-0.4711289 0.03657,-0.1471687 0.07827,-0.3197183 0.499068,-0.194271 0.420798,0.1254474 0.777443,1.0575744 0.184469,1.7175653 z m 1.907432,0.2434367 c 0.226613,0.1343884 0.440682,0.2751386 0.706457,0.2016428 0.36526,-0.1011206 0.509073,-0.5028703 0.29836,-0.8326009 -0.20394,-0.319307 -0.63561,-0.66647 -0.945907,-0.811577 -0.955153,-0.4467472 0.03887,-0.8988536 0.343349,-0.9059698 l 0.540045,0.1106657 m 9.540345,0.2944623 c -0.297793,-0.059558 -0.584707,-0.068928 -0.654279,0.291452 0.05159,0.1889224 0.336327,0.3074116 0.477606,0.427785 0.299931,0.2555283 0.602872,0.5718898 0.584788,0.9886031 -0.09348,0.6532114 -0.59809,0.6470993 -1.173697,0.883357 M 22.735461,5.6982239 C 22.127647,5.6477531 21.519892,4.8520774 21.775715,4.1084606 21.887313,3.7841474 22.469921,3.4472907 22.829746,3.7464567 23.254585,4.099626 22.26716,4.9988338 21.969878,4.4615124 m 12.426005,0.4122368 c 0.1487,-0.373546 0.32932,-0.9057438 0.665469,-1.1413668 0.203058,-0.1423402 0.40258,-0.023493 0.554812,0.146639 0.200053,0.223491 0.269367,0.7859594 0.369777,1.0536188 M 15.315193,3.6959213 c 0.543565,0.1486405 0.788904,0.3383866 1.076941,0.3533448 M 10.368347,4.9326328 C 10.210815,4.8516576 10.043742,4.717857 9.8883859,4.5361197 9.7200764,4.3392466 9.6356259,4.2414872 9.7586497,4.0694674 10.050097,3.8233055 10.274365,3.7996667 10.603909,3.9314852 10.831719,4.2643377 10.311571,4.4370675 10.015003,4.520396 m 20.847416,-0.53002 c 0.362418,-0.2741965 0.502284,0.017491 0.826773,0.143518 0.18309,0.071084 0.292924,0.050644 0.421481,0.1787346 0.148759,0.14817 0.188218,0.3886798 0.0705,0.538146 -0.244398,0.3101785 -1.183594,0.5004563 -1.526692,0.1175462 -0.323313,-0.360825 -0.04534,-0.5846109 0.149053,-0.565707 M 5.4803934,4.0492672 C 5.3508333,4.1826554 5.2666191,4.305561 5.2653237,4.5204541 5.2640359,4.7401177 5.3371705,5.0421109 5.5050692,5.2012934 5.8524085,5.5307304 6.1463333,5.0373405 6.2521604,4.7559599 6.3185897,4.5793461 6.3048685,4.3616248 6.3048685,4.1670491 m 2.296749,0.176673 C 9.8137552,3.4096834 7.6428925,3.8729132 8.3356069,4.5769314 8.7199298,4.9502989 9.0171525,4.9481803 9.4849833,4.8737418 M 7.3649058,4.2259401 c 0.2962224,0.1773802 0.4048179,0.585907 0.055424,0.853096 C 7.0238766,5.3822649 6.5553314,5.0388718 6.2521604,4.7559599 M 19.993232,4.1959644 19.908693,4.6396497 V 5.4037602 M 18.848655,5.5215439 C 18.761735,5.4186018 18.525107,5.0163801 18.403791,4.9157894 18.257094,4.7942373 18.211701,4.6861 18.072483,4.5947011 c -0.09303,-0.061101 -0.190816,-0.082739 -0.292236,-0.099117 -0.160395,-0.060766 -0.20756,-0.00783 -0.326838,0.043286 -0.440438,0.4219585 0.350842,0.5945085 0.806335,0.3348727 M 33.197003,2.8813247 c 0.04299,-0.2280849 0.01,-0.1551752 0.06942,-0.4704774 M 2.8302976,4.6970689 C 3.7414973,5.6645412 4.6724277,4.1588287 4.2159444,3.4771998 3.9766111,3.1367505 3.5305708,2.9377586 3.2068645,2.6536087 2.989215,2.4625664 2.9904637,2.2250115 3.1335214,1.9880818 3.2932162,1.7236016 3.4090785,1.6100012 3.5959278,1.5573991 3.8488177,1.4862014 4.2462141,1.6375081 4.479246,1.7525169 m 11.912888,2.2967492 c 0.105064,0.082971 0.428213,0.00304 0.499567,0.2260279 M 11.431626,5.4861847 11.318782,6.7192585 M 15.14012,24.808236 c -0.113366,-0.185037 -0.171025,-0.436501 -0.177384,-0.677129 -0.0068,-0.256648 -0.02804,-0.596862 0.03663,-0.824475 0.04676,-0.164483 0.104179,-0.265363 0.193752,-0.412178 0.192808,-0.316127 0.445922,-0.576485 0.828537,-0.450635 0.21672,0.07126 0.364418,0.231678 0.451106,0.450635 0.07621,0.192572 0.07215,0.416771 0.0051,0.588851 -0.0467,0.119902 -0.09252,0.204705 -0.149171,0.353346 -0.06897,0.180854 -0.163305,0.327022 -0.309237,0.448161 -0.16195,0.134389 -0.347045,0.213303 -0.527546,0.302228 -0.156473,0.07715 -0.258708,0.0854 -0.351756,0.221196 -0.0772,0.112598 -0.06054,0.447099 -0.06054,0.618472 0,0.451518 -0.05612,0.729778 0.05889,1.11893 m 3.297896,-4.06348 c -0.161184,0.677129 0.09776,1.553663 0.09776,2.237859 0,0.583492 -0.06714,1.186596 -0.06419,1.76673 0.0011,0.218369 0.01843,0.368363 0.08421,0.588911 m 8.303632,-2.944549 c -0.467173,0.05811 -0.645583,0.75274 -0.770827,1.177817 -0.120139,0.418952 -0.187333,0.90545 -0.08952,1.354494 0.201054,0.92235 1.088306,0.566178 1.449308,0.53002 M 1.3580221,24.943715 c 0,0.341481 -0.028008,0.407027 0.039445,0.71856 0.052942,0.244574 0.137587,0.487148 0.2434671,0.706399 0.1147728,0.237743 0.3739639,0.468359 0.6593439,0.450339 0.2856626,-0.01802 0.4759103,-0.292394 0.6017723,-0.508937 0.2635962,-0.453578 0.3738161,-0.885425 0.327705,-0.884395 m 8.6108686,-0.823448 c 0.185095,0.420776 0.978652,0.979889 0.616412,1.646652 -0.220136,0.405053 -0.860514,0.826358 -1.322222,0.615588 -0.193455,-0.08834 -0.172373,-0.295159 -0.354229,-0.318834 -0.136863,-0.01791 -0.298107,0.135449 -0.412238,0.19534 -0.161184,0.08463 -0.339212,0.125496 -0.5297228,0.07355 -0.3455731,-0.09429 -0.5425628,-0.480787 -0.523747,-0.879357 0.018818,-0.39857 0.1331844,-0.576069 0.2289976,-0.861808 M 20.203148,24.661122 c -1.674393,0.254729 0.01638,0.914573 0.09741,1.584412 0.007,0.406407 -0.852446,0.152764 -0.98077,0.123435 M 8.3071626,24.720014 c 0.1537056,0.114013 0.2857979,0.187568 0.3196021,0.413297 0.045639,0.304938 -0.1648953,0.650745 -0.3448078,0.88207 C 8.0737775,26.283099 7.8342087,26.506237 7.4826878,26.532385 7.0244575,26.566423 7.0922406,26.130048 6.7759953,26.074512 6.6536201,26.053021 6.3303089,26.25401 6.1879692,26.229041 5.6845097,26.14082 5.6844511,25.436249 5.5981758,25.014472 m 22.4963702,0.412236 c -0.252349,-0.60057 0.272958,-0.853683 0.883363,-0.633195 0.245165,0.08851 0.446631,0.22408 0.561762,0.456758 0.249582,0.504167 -0.145519,1.682281 -0.738435,1.805541 -0.210179,0.04369 -0.370717,-0.06484 -0.498629,-0.219194 -0.09281,-0.11201 -0.180619,-0.260652 -0.181681,-0.407702 -0.0011,-0.148582 0.07338,-0.213067 0.150293,-0.295515 M 4.2436734,25.082846 C 4.7242448,24.327415 4.7886543,26.496367 3.7725538,26.3013 3.4284715,26.279624 3.2821316,26.123971 3.0810541,25.93393 M 21.204296,24.955583 c 1.83374,-0.03998 0.812662,0.478119 0.324606,1.178702 -0.523669,0.902572 0.131595,1.089776 1.029889,1.059158 M 6.8937773,25.073365 c -0.1072991,0.450752 -0.070198,0.62448 -0.117782,1.001147 M 30.769122,25.001131 c 0.246664,3.443867 0.448351,-2.769607 1.1156,0.315018 0.07591,0.858521 0.04533,0.624896 0.2994,-0.08321 0.667452,-1.248717 0.957365,-0.962258 0.974154,0.311552 -0.08043,0.64168 -0.06485,1.259401 -0.05801,1.884512 M 18.141962,26.545639 c -0.287035,-0.04463 -0.463413,-0.31324 -0.706692,-0.6478 -0.473643,0.365672 -0.207655,0.765754 -1.059155,0.626483 -0.197049,-0.03822 -0.371719,-0.326964 -0.371426,-0.44875 -0.0037,-0.223692 0.604823,-0.599097 0.728412,-0.544728 m -5.950619,0.384103 c -0.02105,0.274319 -0.0019,0.355815 -0.0019,0.630694 m 3.062332,-0.176673 0.05889,0.05889 m 10.777056,0.235564 0.117783,0.353347 M 106.3607,43.27069 c 0.0295,0.677838 0.32921,1.118459 0.54474,1.766731 0.10778,0.323901 0.21614,0.620832 0.36042,0.942255 0.47113,1.048843 0.77206,2.162413 1.11715,3.239008 0.0719,0.223191 0.23617,0.586439 0.34746,0.765581 0.0748,0.121321 0.18198,0.232391 0.20671,0.412239 0.0282,0.211651 -0.0441,0.346869 -0.11249,0.58891 -0.10074,0.359052 -0.21023,0.675479 -0.33272,1.00115 -0.28267,0.754331 -0.50234,1.538875 -0.81094,2.296748 -0.13308,0.327374 -0.1537,0.488683 -0.26029,0.82447 m 3.82794,-10.482604 c -0.15959,0.100756 -0.10541,0.06985 -0.23555,0.117783 0.10481,-0.169547 0.26264,-0.191985 0.47112,-0.176673 m 18.25593,9.48159 c 0.28326,0.02316 0.61718,0.144782 1.06004,0.112483 1.34033,-0.17741 2.23835,-2.239796 1.6142,-3.057031 -0.52235,-0.619944 -1.15426,-1.152675 -1.6918,-2.289374 -0.53755,-1.136699 -0.57049,-1.315778 -0.54699,-1.597578 0.0205,-0.253341 0.10304,-0.472542 0.16137,-0.706689 0.18727,-0.748276 0.86392,-1.299956 1.52351,-1.656898 0.563,-0.304701 1.09714,-0.148343 1.53116,0.125734 m -22.37858,-0.235564 c -0.37985,0.533609 -0.58126,1.235472 -0.81211,1.884507 -0.1166,0.327499 -0.21731,0.678252 -0.31742,1.001151 -0.28209,0.90922 -0.63661,2.212128 -0.94638,2.767885 m 4.6671,-5.064637 c 0,0.431438 0.0271,0.790024 -0.0104,1.177825 -0.0188,0.199986 -0.0543,0.341686 -0.0389,0.530019 0.0271,0.320415 0.0183,0.724471 -0.005,1.06004 -0.0224,0.327426 0,0.549805 -0.0395,0.82447 -0.0282,0.196631 -0.0542,0.324486 -0.0737,0.530019 -0.0212,0.227614 -8.7e-4,0.331788 -8.7e-4,0.53002 0,0.148575 -0.0112,0.476187 -0.0335,0.647799 -0.0224,0.16725 -0.0289,0.254816 -0.0348,0.41223 -0.006,0.153363 -0.0218,0.26031 -0.0418,0.41225 -0.11013,0.85003 -0.19316,2.010713 -0.19316,2.885659 m 1.76673,0.23556 c -0.57596,-0.173315 -0.41341,-1.151844 -0.41224,-1.707839 8.7e-4,-0.791556 0.16725,-1.581699 0.17667,-2.355639 0.006,-0.571659 0.0501,-1.160984 0.10778,-1.76674 0.0353,-0.372357 0.006,-0.741078 0.0104,-1.118919 0.11922,-0.595564 0.12686,-2.493091 0.47108,-2.002299 m 30.38778,0.05889 c -0.005,0.731897 0,1.728393 0,2.708989 0,0.511408 -0.043,1.056976 -0.10127,1.53117 -0.0194,0.159771 -0.0253,0.305999 -0.0512,0.471129 -0.12485,0.79867 -0.23557,1.5231 -0.38928,2.296749 -0.12249,0.617587 -0.18491,1.635281 -0.106,2.061179 m 4.47574,-0.353339 c 0.34097,0.06263 0.59774,0.08403 1.23671,0.191221 0.16666,0.02794 0.44227,0.08714 0.57125,-10e-4 0.12543,-0.086 0.1431,-0.188573 0.21847,-0.366717 0.13604,-0.320488 0.22556,-0.615467 0.33156,-0.942259 0.2067,-0.639667 0.39045,-1.298197 0.57124,-1.943399 0.0495,-0.174853 0.0948,-0.301523 0.12781,-0.47113 0.0335,-0.177563 0.0624,-0.348635 0.0995,-0.53002 0.11365,-0.555633 0.20258,-1.088009 0.26913,-1.648949 0.0282,-0.239684 0.086,-0.368711 0.1025,-0.58891 0.0124,-0.170428 -0.003,-0.296392 0.0242,-0.47113 0.0205,-0.125674 0.0759,-0.272659 0.0702,-0.412229 -0.0112,-0.2646 -0.0447,-0.335569 -0.26914,-0.509061 -0.88427,-0.433648 -2.36711,0.119618 -1.40986,-0.668753 m 1.40986,0.668753 c 0.25147,-0.05463 0.56654,-0.03614 1.17784,0.04228 0.1213,0.01558 0.34802,0.0054 0.47464,0.01062 0.48054,0.01984 0.74968,0.05431 1.23671,0.220604 m 16.01836,0.117779 c -0.6095,0.03246 -0.57974,1.029733 -0.5842,1.59006 0,0.38373 0.0295,0.826889 0.0712,1.17782 0.0194,0.165659 0.0395,0.296401 0.0418,0.471129 0.007,0.542556 0.0589,1.114744 0.0589,1.472279 l -1.23671,-0.11778 m -9.89369,-4.357938 c -0.2656,0.440211 -0.32449,0.921934 -0.39457,1.41338 -0.0424,0.29581 -0.0253,0.593448 -0.0595,0.883369 -0.0353,0.292571 -0.0589,0.552569 -0.0771,0.82447 -0.0117,0.165609 -0.0342,0.299466 -0.0577,0.471129 -0.086,0.628721 -0.0706,1.176938 -0.29444,1.59006 l 0.47113,0.29445 m -20.34531,-0.818719 c -0.13075,0.61229 0.14444,1.933003 0.48777,2.059092 m 34.11025,-3.89598 c -0.0353,0.27832 -0.0122,0.354381 -0.17778,0.653318 m -62.18891,2.414435 c -0.47466,0.02171 -1.42457,0.549276 -2.05883,0.201825 -0.94068,-1.064508 0.61985,-2.947787 1.76438,-2.782544 0.20965,0.03147 0.43343,0.119192 0.43343,0.343099 0,0.153705 -0.13781,0.261119 -0.25794,0.347814 -0.27974,0.201575 -0.57183,0.338559 -0.88219,0.450804 -0.2497,0.09026 -0.51235,0.225671 -0.6478,0.143402 m 9.71701,-0.35335 c 0.13958,0.177678 0.15313,0.303703 0.17138,0.53002 0.0507,0.611708 8.7e-4,1.275055 0.0895,1.884519 0.0401,0.278133 0.0771,0.545506 0.2921,0.746562 0.39339,0.367538 0.79738,-0.478732 0.90633,-0.746562 0.0648,-0.16054 0.0712,-0.42596 0.0719,-0.588909 m 17.25507,0.942248 c -0.36159,0.02877 -0.61012,0.143694 -1.00115,0.107716 -0.47642,-0.04383 -1.06769,-0.174145 -1.20256,-0.696625 -0.0648,-0.250162 0.023,-0.536314 0.0955,-0.765579 0.0636,-0.20088 0.13191,-0.348635 0.23732,-0.53002 0.10012,-0.172256 0.21261,-0.323781 0.34275,-0.470891 0.34333,-0.386617 0.43815,-0.383615 0.82152,-0.05909 m -21.5541,-0.132974 c 0.18315,-0.06959 0.41695,-0.04311 0.58891,0.04207 0.23674,0.11725 0.36629,0.243391 0.58361,0.454283 0.20612,0.200226 0.38867,0.380022 0.44993,0.637787 0.12367,0.520662 -0.55711,0.990556 -0.97466,1.150265 -1.20137,0.459528 -1.858,-0.787733 -1.23847,-1.739164 0.14074,-0.216251 0.34392,-0.45123 0.59068,-0.545215 m 55.06304,0.01523 c 0.40459,0.14064 1.03177,0.37084 1.47228,0.7067 m -39.75077,0.562318 c -0.6212,0.824572 1.37776,1.19632 1.94268,0.949754 0.45876,-0.213416 1.18489,-0.803801 0.95757,-1.394061 -0.0801,-0.207714 -0.29857,-0.366489 -0.94284,-0.536147 -0.64427,-0.169659 -0.712,-0.427038 -1.07477,-0.457992 -1.1798,0.02987 -0.53427,1.029023 -0.88264,1.438446 z m 38.27849,-1.269018 v 0.295925 l -0.017,0.881808 -0.27797,1.94341 -0.29387,0.942259 M 122.73217,52.04543 c 0.43462,0.350224 0.97642,0.539087 1.27087,1.177819 0.34864,0.756451 -0.31211,1.605255 -1.0942,1.670388 -0.14192,0.01184 -0.26677,0.03053 -0.41223,0.01298 -0.62307,-0.07498 -0.90989,-0.693931 -1.30858,-0.917712 m 36.99651,-1.766638 c 0.43521,0.06429 0.80622,0.263125 1.11894,0.294449 m -17.37284,-0.05909 c -0.24674,0.0781 -0.53472,0.07904 -0.76028,0.226969 -0.38455,0.252407 -0.61364,0.935426 -0.22731,1.27864 0.35628,0.316769 0.9558,0.118018 1.28206,-0.07405 0.18609,-0.109596 0.29033,-0.124261 0.44167,-0.249051 0.13192,-0.108298 0.31271,-0.533728 0.38279,-0.711406 m 16.25391,-0.412012 c -5.5e-4,0.308118 -0.0447,0.707945 -0.15663,1.23649 -0.11308,0.532554 -0.16784,0.995021 -0.37337,1.531159 m 2.09299,-1.234246 c -0.16034,-0.359162 0.0682,-0.692988 0.33214,-1.007807 0.1543,-0.175839 0.83154,-0.507637 1.0783,-0.255231 0.31859,0.325961 -0.67431,0.820408 -0.91222,0.909574 -0.1172,0.04383 -0.29151,0.06429 -0.39339,0.13339 -0.099,0.06741 -0.11131,0.137451 -0.10483,0.220074 0.023,0.289859 0.42636,0.574535 0.73377,0.703688 m -5.5063,-1.515673 c -0.22552,0.300584 -0.34633,0.68172 -0.41224,1.001157 m -0.67725,1.280113 c 0.19022,-0.285621 0.34745,-0.584786 0.46583,-0.883359 0.043,-0.107716 0.1225,-0.295997 0.21142,-0.396754 0.1861,-0.210768 0.25676,-0.14546 0.46582,-0.379908 0.17609,-0.197754 0.68727,-0.942374 1.03531,-0.451282 0.33627,0.473841 0.009,1.341008 0.11838,1.934633 m 10.36481,-1.590059 c -0.12073,0.279255 -0.16784,0.593563 -0.31212,0.725302 -0.15312,0.139393 -0.22908,0.150289 -0.39457,0.271308 -0.2391,0.175206 -0.6531,0.437032 -1.00115,0.402114 -0.39457,-0.03967 -0.63955,-0.345467 -0.65486,-0.692034 -0.017,-0.4047 0.11011,-0.74109 0.32625,-0.994732 0.34922,-0.410816 0.75086,-0.115546 0.91752,0.170262 m -27.03098,-4.003832 c -0.0803,-0.13781 -0.13024,-0.306047 -0.0577,-0.596632 m 38.10139,4.36546 c -0.62247,0.825778 -1.2903,1.687233 -2.12007,2.272019 -0.16785,0.118372 -0.33569,0.183743 -0.52649,0.131915 -0.25442,-0.06948 -0.29564,-0.412821 -0.29033,-0.637194 0.013,-0.545163 0.12544,-1.176065 0.28679,-1.707851 m 5.00574,2.94456 c -0.46229,0.02002 -0.82624,0.137213 -1.23671,-0.117199 -0.46415,-0.287978 -0.86453,-1.16198 -0.42755,-1.620802 0.1325,-0.139286 0.30329,-0.07188 0.48644,-0.110831 0.33332,-0.07096 0.84862,-0.426957 0.99231,-0.744672 0.23498,-0.520537 -0.53001,-0.333679 -0.82008,-0.106799 -0.20516,0.09146 -0.68579,0.957369 -0.65867,0.962302 m -8.70055,-0.970988 c -1.20152,-0.100814 -1.53014,2.077231 -0.41226,2.383903 0.32508,0.07063 0.99055,-0.07239 1.17783,-0.08714 m -27.64938,-2.350977 c 0.0112,0.238561 0.0518,0.506932 0.23556,0.824469 m 25.17415,1.088173 c -0.30245,0.11828 -0.46118,-0.167793 -0.52825,-0.427061 -0.0913,-0.304286 -0.10303,-0.479605 -0.19434,-0.647738 m -4.75252,-0.253619 c -0.77823,2.073462 0.61146,-0.182782 0.92284,-0.646937 0.37101,-0.535908 0.98466,-1.152507 1.66838,-0.825362 m 7.97477,0.570957 c -0.0882,0.398692 -0.77824,2.637429 -0.14228,2.255831 m -21.74852,-0.987584 1.82562,0.6478 M 107.24382,65.41368 c 0.0677,-0.365128 0.0548,-0.759691 0.0924,-1.06004 0.0395,-0.311535 -0.0313,-0.582429 -5.5e-4,-0.88336 0.0719,-0.701984 0.006,-1.806778 0.0748,-2.532318 0.0282,-0.295634 -0.0418,-0.449921 0.0348,-0.76558 0.0524,-0.216719 0.14605,-0.32214 0.22849,-0.53002 0.1596,-0.400462 0.31095,-0.908099 0.74792,-1.075349 0.24735,-0.0942 0.60893,-0.06419 0.82212,0.0995 0.3292,0.253808 0.4352,0.647789 0.53709,1.034708 0.20199,0.773245 0.18137,2.054116 -0.65252,2.426307 -0.38102,0.169617 -0.71376,0.07364 -1.11892,-0.129558 m 9.11044,2.473419 c 0.27168,-1.328159 0.30898,-2.010659 0.11131,-2.660102 -0.0671,-0.269719 0.083,-0.56771 0.1372,-0.755577 0.056,-0.191979 0.20554,-0.523539 0.42697,-0.611873 0.42754,-0.170782 1.03235,0.259707 1.24849,0.612465 0.20317,0.332734 0.35098,0.745566 0.1643,1.118337 -0.159,0.318017 -1.0822,0.581807 -1.0457,0.909835 0.0324,0.282671 0.94971,0.4959 1.1358,0.699657 0.25854,0.283275 0.18668,0.699628 0.0253,0.981718 -0.28622,0.500574 -0.72731,0.715528 -1.24378,0.770887 -0.27679,0.02949 -0.46465,0.01766 -0.76558,-0.11778 -0.52673,-0.248069 -0.28274,-0.616265 -0.19435,-0.947567 z m -5.81254,-3.121212 c 0.0759,-0.07655 0.16785,-0.172558 0.33687,-0.347461 0.14486,-0.150176 0.23733,-0.240867 0.39515,-0.352758 0.13546,-0.09659 0.24381,-0.130743 0.38692,-0.09774 0.61363,0.142521 0.97052,1.213747 1.07181,1.740235 0.17159,0.8025 -0.0617,1.695789 -0.40628,2.23813 -0.26677,0.412832 -0.63249,0.717294 -1.01882,0.984656 -0.1643,0.113075 -0.28856,0.217324 -0.47112,0.286805 -0.1702,0.0651 -0.29858,0.05273 -0.47113,0.0062 -0.42931,-0.117198 -0.79266,-0.385152 -0.81564,-0.747923 -0.0183,-0.286202 0.20551,-0.708454 0.28091,-1.001149 0.12544,-0.489379 0.24203,-1.042362 0.33332,-1.531159 0.0424,-0.228497 0.10893,-0.485858 0.1755,-0.70669 0.0524,-0.176088 0.11784,-0.326262 0.20258,-0.47113 m 22.20191,0.05916 c 0.68785,0.127792 1.3763,0.182559 2.12009,0.29445 0.2709,0.04061 0.4346,0.07239 0.64781,0.17668 m -5.53579,-0.41224 c -0.2432,0.39692 -0.25558,0.699035 -0.28915,1.17782 -0.06,0.853332 0.023,1.738457 -0.0889,2.591209 -0.0507,0.385142 -0.0342,0.74732 -0.0342,1.060039 m 7.77361,-4.829068 c -0.21672,0.431673 -0.32154,0.859222 -0.44875,1.354489 -0.26795,1.041781 -0.49409,2.428073 -0.78796,3.356789 m -3.82792,-4.534608 c -0.20504,0.483655 -1.05121,1.732317 -0.82152,2.143624 0.12602,0.171954 0.77796,0.191979 0.99819,0.282672 0.55005,0.226731 1.15722,0.707873 1.2644,1.283831 0.10425,0.561231 -0.43461,0.860988 -0.91104,1.051793 -0.1749,0.06948 -0.29034,0.11778 -0.47112,0.122495 -0.41637,0.01173 -0.54004,-0.123087 -0.88337,-0.349819 m -8.36253,-4.475706 0.76558,1.354489 c 0.39987,-0.349216 0.87983,-1.208438 1.41339,-1.177809 m -4.23781,0.09835 c 0.25324,-0.05473 0.45228,0.06657 0.64546,0.181967 0.38927,0.233213 0.62542,0.578897 0.7373,1.015286 0.0459,0.177261 0.0795,0.295633 0.0713,0.471129 -0.007,0.143102 -0.0536,0.26972 -0.0884,0.412229 -0.17021,0.699628 -0.75499,1.781457 -1.54472,1.923978 -0.49056,0.08828 -0.92281,-0.14546 -1.11833,-0.628368 -0.12662,-0.312126 -0.0671,-0.749096 0.0165,-1.06004 0.0884,-0.328609 0.24794,-0.672539 0.37219,-1.001149 0.0919,-0.24204 0.12602,-0.419894 0.25795,-0.613639 0.1484,-0.219669 0.34804,-0.636032 0.65074,-0.701393 m 2.82441,1.07946 c -0.0606,0.233203 -0.16901,0.37808 -0.31919,0.58891 -0.42459,0.596564 -1.12246,1.770853 -1.09419,2.414529 m 1.41338,-3.003437 c 0.32921,0.400451 0.34982,0.860394 0.57537,1.354487 0.16843,0.369252 0.23261,0.702578 0.36689,1.06004 m -19.6696,4.416828 c 0.19376,0.650157 0.13015,1.257919 0.41224,1.64895 0.0847,-0.100123 0.16548,-0.184917 0.22967,-0.353351 0.14193,-0.373946 0.40812,-1.300304 0.66723,-1.707828 0.17727,-0.278559 0.56713,-0.979951 0.98113,-0.711998 0.30211,0.196103 0.36689,0.671948 0.42342,1.006448 0.14016,0.830358 0.11308,1.90041 0.11308,2.708988 0,0.342746 -0.0112,0.509996 -0.003,0.824469 0.006,0.233805 -0.0307,0.393982 0.17962,0.53002 m 11.60157,-3.769018 c 0,0.80268 -0.086,1.783213 0.11779,2.473419 0.15253,-0.06533 0.30388,-0.131915 0.53001,-0.248522 0.56242,-0.290336 1.09774,-0.680776 1.53117,-0.575958 m 3.23895,3.180121 c 0.0335,-0.26383 0.0547,-0.544155 0.10366,-0.824469 0.0472,-0.271486 0.12755,-0.47113 0.13191,-0.76559 0.006,-0.457576 0.023,-0.903965 0.0537,-1.354489 0.0915,-0.796243 0.0805,-3.115003 0.61182,-1.295613 0.0548,0.186693 0.12309,0.347461 0.18551,0.53002 0.0754,0.221435 0.13427,0.426376 0.20318,0.647811 0.17962,0.580071 0.29563,1.312093 0.47584,1.884509 0.12815,0.377309 0.30377,0.977181 0.64015,0.468772 0.0477,-0.128384 0.159,-0.593033 0.19374,-0.763222 0.0565,-0.275609 0.004,-0.618365 -0.0106,-0.94226 -0.0117,-0.265004 -0.0536,-0.41224 -0.0565,-0.706689 -0.002,-0.254411 -0.0259,-0.385745 -0.0589,-0.64781 m 4.00453,-0.647797 c -0.1378,0.369251 -0.1908,0.660761 -0.3604,1.295609 -0.12544,0.47113 -0.32037,0.989372 -0.52295,1.236709 -0.32508,-0.331559 -0.42755,-0.449931 -0.73203,-0.883358 -0.3928,-0.559466 -0.63896,-0.961111 -0.85803,-1.531171 m 7.95028,0 v 0.94225 0.47113 0.53002 l -0.0347,1.060039 -0.20084,1.70784 m 2.76789,-4.475713 c -0.0666,0.256768 -0.0954,0.345103 -0.11249,0.588909 -0.0135,0.190817 8.7e-4,0.299757 -0.0153,0.471131 -0.0271,0.281498 -0.0683,0.459351 -0.10777,0.588909 -0.66322,-0.325607 -1.59611,0.749116 -1.47228,-0.11778 l 0.53002,-1.295599 m -32.92007,0.471119 0.0565,0.94226 c 0.0947,0.40086 -0.0149,0.732359 -0.11548,1.118582 l -0.0589,0.706689 m 40.75202,-2.70863 c 0.45168,0.199633 1.00938,0.267944 1.53116,0.336857 0.18668,0.02472 0.37632,0.01298 0.49999,0.159595 0.15488,0.183732 -0.0194,0.366301 -0.15017,0.467006 -1.30728,0.75704 -0.37205,0.482236 0.35685,1.114458 0.31801,0.282672 0.56713,0.662517 0.46465,1.101844 -0.14192,0.607761 -0.6213,1.00115 -1.17075,1.257918 -0.30682,0.143102 -0.42461,0.197277 -0.76559,0.155472 m -5.12408,-4.534261 c 0.38456,0 0.44934,0.0062 1.06004,0.170189 0.34215,0.0913 0.45993,0.153706 0.76558,0.242041 m -2.12007,-0.05889 c -0.15725,0.219078 -0.65252,0.68196 -0.56182,0.987607 0.0472,0.160187 0.41282,0.249695 0.56182,0.324486 0.34922,0.174322 0.74968,0.477019 0.96521,0.807987 0.12368,0.190805 0.17845,0.349226 0.1172,0.58891 -0.17373,0.67902 -1.02706,0.869826 -1.61243,0.71612 -0.36219,-0.09483 -0.47113,-0.233804 -0.58892,-0.48055 m -31.32952,-1.295628 c -0.13663,-0.242042 -0.26618,-0.411648 -0.25264,-0.653097 0.009,-0.163137 0.20493,-0.475253 0.34273,-0.639553 0.22439,-0.267965 0.72967,-0.481142 0.91635,0.0021 0.22909,0.594207 -0.5995,1.050017 -1.00644,1.290302 m 35.92352,-1.531169 c 0.007,0.13662 0.005,0.30388 5.5e-4,0.471129 -0.005,0.201992 -0.0224,0.317424 -0.0518,0.53002 -0.0794,0.570651 -0.22909,1.131881 -0.24381,1.707839 -0.0104,0.374548 -0.0512,0.369241 -0.0583,0.70669 m -31.38889,-3.180244 c 0.16549,0.580072 0.48232,1.035892 0.33333,1.648939 -0.0688,0.284449 -0.28327,0.671948 -0.62778,0.616007 -0.75793,-0.123668 -0.54121,-1.0141 -0.53003,-1.558256 m 26.9721,-0.588909 c 0,0.627775 -0.15135,1.435169 -0.37926,2.237858 -0.0812,0.285029 -0.0977,0.39044 -0.15076,0.6478 m -19.02172,-2.82637 5.3e-4,0.725142 0.40929,0.337449 0.3822,0.52707 0.6213,1.060039 M 117.726,73.658298 c -0.3968,2.158722 0.81439,-1.167311 1.59006,-0.883359 m -3.35679,0.235608 c -0.25735,-0.190259 -0.53944,-0.280952 -0.74203,0.06003 -0.10125,0.170781 -0.18485,0.33155 -0.16607,0.528836 0.0212,0.212014 0.0995,0.537674 0.27384,0.671366 0.49881,0.234131 0.81833,-0.221313 1.18374,-0.494671 m 14.99776,-0.765559 c -0.0977,0.472304 -0.24557,0.886309 -0.58891,1.531159 m -19.3156,-1.47229 c 0,0.217301 -0.004,0.383959 0,0.588899 0.004,0.236745 0.0412,0.478785 0.25794,0.673132 0.43699,0.391623 1.07763,-0.220121 1.29847,-0.401506 m 3.39044,-0.624965 -0.0401,0.47113 0.3345,0.706689 m 3.76899,-1.217896 c -0.15312,0.287387 -0.13958,0.603665 -0.2108,1.100116 -0.0507,0.355106 -0.1113,0.603046 -0.14251,1.00115 m -10.42371,-1.707842 c 0.13132,0.38751 0.50116,0.690207 1.06003,0.76559 m 12.19045,-0.23557 0.0589,0.6478 -0.11777,-0.23556 m 0.11777,0.23556 -0.005,1.177819 -0.11249,0.6478"
       id="path6672"
       sodipodi:nodetypes="ccscccccccccccccccccsccsccccccccccccccccccccccccscccccccccccccscccccccccccccccccccccccccccccccccccccsccccsccscccccccccccccccccccccccccccscccccsscccccccccccccccccccccccccccccccccccccccccccccscccccccccscscccccccccccccccccccccccscccscccccccccccccccccccccccccccccccccccccsccscccsccscccccccccccccccccsccccccccccccccccccccccccccccccccccccccccccccccccccccccccccccccccccccccccccccccccccccccccccccccccccccccccccccccccccccccccccccccccccccccccccccccccsccccccccccccccscccccccccccccccccscccccccccccccccccccccccccccccccccccccccccccccccccccccccccccccccccccccccccccccc" /><path
       style="fill:none;stroke:#020202;stroke-width:0.0390418"
       d="M 1.9639434,9.5279058 C 1.9143056,9.3714513 1.814036,9.284725 1.8834492,9.178464 2.0078778,8.9879757 2.1134745,9.0065874 2.3381724,8.8869962 2.5177644,8.7914148 2.7778795,8.7098286 2.9962039,8.6554447 c 0.2210529,-0.055053 0.5155739,-0.08898 0.7408924,-0.04489 0.070285,0.013746 0.090949,0.00888 0.1564477,0.00903 0.119088,2.694e-4 0.4026086,0.1162755 0.5895779,0.1477195 0.081782,0.013753 0.1184967,0.021071 0.1963052,0.040567 0.089105,0.022329 0.1497909,0.03748 0.2361623,0.072093 0.106139,0.042523 0.2648993,0.150064 0.3578865,0.2512534 0.063826,0.069438 0.083215,0.099309 0.1090589,0.1924958 0.064634,0.2331507 -5.829e-4,0.3405703 -0.098686,0.4711662 -0.091639,0.1220347 -0.2420191,0.2685292 -0.3749977,0.3545152 -0.097246,0.06289 -0.4083312,0.255384 -0.4608982,0.304641 -0.5797513,0.346398 -0.3167424,0.166375 0.125368,0.322289 0.3272602,0.12668 0.5711562,0.247906 0.8320329,0.466999 0.099809,0.08381 0.1523816,0.151519 0.1954173,0.261885 0.027533,0.07053 0.050403,0.189576 0.052502,0.272045 -0.062994,0.480095 -0.7913944,1.141438 -1.0246434,1.17167 -0.1820133,0.03513 -0.3467886,0.0819 -0.5043985,0.130004 -0.1795894,0.05488 -0.4313296,0.10385 -0.6631644,0.02993 C 3.1235079,13.001181 3.2736817,12.782011 3.2933581,12.657473 M 12.427742,9.4177403 c -0.15376,0.2594631 -0.176248,0.5827957 -0.172295,0.9026387 7.29e-4,0.0629 0.04254,0.186145 -0.07828,0.249325 -0.09967,0.05217 -0.127759,0.02103 -0.226995,0.03183 -0.07742,0.0085 -0.413363,0.0026 -0.507213,0.01942 -0.102716,0.01835 -0.190253,0.05147 -0.310579,0.07297 -0.292979,0.05245 -1.072043,0.136644 -1.2027039,-0.197186 -0.015043,-0.03844 -0.01671,-0.116504 -0.01697,-0.155786 -3.984e-4,-0.06673 -0.00882,-0.09503 0.015539,-0.156613 0.043482,-0.109718 0.064151,-0.172497 0.097135,-0.2758543 0.07798,-0.2444748 0.214786,-0.5375072 0.364897,-0.7513248 0.04368,-0.062202 0.07008,-0.1005561 0.106595,-0.1589312 0.127677,-0.1430457 0.187933,-0.3067712 0.315771,-0.1252028 M 6.9296726,9.2452726 C 6.9318604,9.3312147 6.834064,9.3924035 6.765693,9.4512416 6.6072814,9.5875132 6.3841348,9.7658929 6.2310417,9.9269842 6.1042689,10.060381 5.9046658,10.223163 5.8917021,10.404276 c -0.00542,0.07551 0.00239,0.135538 0.050349,0.187469 0.088678,0.09608 0.1422534,0.07737 0.2298102,0.07878 0.095294,0.0016 0.095524,-1.31e-4 0.1953115,0.0015 0.09291,0.0015 0.1394751,-0.0088 0.2340096,-0.01246 0.3127876,-0.01226 0.8761112,-0.03828 1.1728628,0.04825 0.1890204,0.0551 0.5180424,0.189622 0.5888557,0.375554 0.030843,0.08092 0.04917,0.141141 0.051509,0.233016 0.00187,0.0733 -0.02706,0.142847 -0.047058,0.19647 -0.03148,0.0843 -0.1218596,0.272695 -0.1732068,0.3559 -0.1016437,0.164742 -0.3230146,0.400603 -0.4562615,0.486791 -0.073309,0.0474 -0.1063004,0.05699 -0.192497,0.10902 -0.068233,0.04122 -0.1196852,0.0835 -0.1921653,0.122056 -0.3814704,0.203031 -1.0105324,0.220998 -1.246781,0.116367 m 28.2818159,-4.3520531 -0.195224,0.5126785 -0.06415,0.5483953 -0.04411,0.3135589 c 0.07211,0.1721575 -0.03786,0.3263944 -0.04109,0.4306454 8.26e-4,0.08352 -0.0075,0.134694 -0.03958,0.235335 -0.04285,0.134462 -0.04563,0.221859 -0.06061,0.431143 -0.0095,0.13287 -0.02723,0.146834 0.04698,0.311239 l 0.233182,-0.04499 0.311075,-0.05349 0.777768,-0.130442 m 4.17187,1.260701 c -0.03913,-0.02322 -0.158626,-0.151281 -0.238978,-0.182666 -0.07881,-0.0308 -0.08171,-0.03237 -0.196306,-0.04058 -0.140187,-0.01003 -0.22109,-0.01398 -0.34828,0.126031 -0.189342,0.20845 -0.283763,0.670681 -0.08672,0.939515 0.05369,0.07327 0.1097,0.13175 0.193099,0.170829 0.137745,0.06453 0.3213,-0.03685 0.426507,-0.121499 0.753534,-0.44249 1.055124,-1.167568 1.08051,-2.045335 0.02042,-0.773941 0.255415,-1.6626406 0.200706,-2.3483784 -0.09223,-0.6245371 -0.403781,-0.2586179 -0.256588,1.3385294 0.156292,1.702288 0.107845,2.045232 0.09464,2.531986 l 0.0268,0.546081 0.03211,0.23351 0.01885,0.233847 0.03509,0.350596 M 6.9296725,9.2452716 c 0.322186,-0.0082 0.2861614,-0.056401 0.585769,-0.0019 0.2731625,0.049694 0.234483,0.098178 0.4709997,0.092156 l 0.4683505,-0.011923 0.1561163,-0.00397 c 0.1311385,-0.00334 0.4399196,-0.050252 0.5454154,-0.052938 0.2234202,-0.045551 0.431633,0.00555 0.6239968,0.074094 M 32.289623,8.755882 c 0.04299,0.3280951 0.122354,0.2038732 0.129011,0.4653695 l 0.006,0.2341751 c 0.0083,0.3252293 -0.05694,0.8394014 -0.113312,1.1745174 -0.0092,0.05456 -0.05399,0.397662 -0.0411,0.430647 l -0.05826,1.290282 -0.01808,0.312896 0.0149,0.585437 m 1.781715,-2.115245 6.4e-5,0.234328 -0.08113,0.39261 -0.03307,0.235169 -0.127222,0.628111 -0.06911,0.353249 M 17.633777,8.3478955 c 0.0843,0.3301415 0.113089,0.7769207 0.271074,2.4828305 0.3026,3.630943 -0.124924,0.497988 -0.02327,-0.419252 0.06213,-0.0032 0.09224,0.0061 0.194484,-0.031 0.111915,-0.0405 0.510193,-0.22607 0.655879,-0.316088 C 18.852486,9.989885 18.894786,9.9639701 19.000681,9.8817996 19.532697,9.4756625 20.2911,8.779237 19.800455,8.0584112 19.59241,7.7745598 19.031262,7.4671841 18.707055,7.5525006 c -0.12647,0.033279 -0.234378,0.073158 -0.314114,0.1902516 -0.673244,0.498078 -0.656821,1.6426028 -0.511356,2.6687228 0.03066,0.0967 0.480011,0.616441 0.564293,0.688615 0.09674,0.08283 0.192407,0.120623 0.317035,0.180679 0.137916,0.06651 0.270529,0.142575 0.396585,0.237275 0.09257,0.06951 0.382088,0.258422 0.476796,0.319826 0.05424,0.03517 0.111068,0.0827 0.159428,0.126109 0.172542,0.154872 0.122082,0.06895 0.271821,0.194876 M 36.725987,9.0011469 c 0.04149,1.0434261 -0.197143,1.6275391 -0.130921,2.7617051 0.06834,1.170413 -0.309483,1.234254 -0.395965,0.914991 -0.05785,-0.348905 0.254043,-1.075324 0.311174,-1.736648 0.03308,-0.382839 0.240278,-1.1627129 0.458519,-1.4498847 0.0464,-0.1230018 0.967452,-0.7640374 1.218646,-0.4559694 0.07554,0.1016884 0.03344,0.2323431 0.0079,0.3122328 -0.01754,0.055004 -0.01345,0.1267234 -0.04706,0.1964712 -0.05364,0.1112637 -0.143887,0.1729635 -0.246735,0.2796615 -0.139299,0.1445339 -0.143379,0.1406925 -0.267573,0.2281346 -0.170118,0.119775 -0.224993,0.173349 -0.344969,0.256113 -0.0679,0.04683 -0.110325,0.07541 -0.192332,0.115538 -0.182663,0.168268 -0.08826,0.06413 -0.394951,0.36416 -0.05741,0.06898 -0.11182,0.128601 -0.150737,0.203501 -0.06413,0.123422 -0.08618,0.288352 -0.01027,0.605123 l 0.37768,0.51762 0.385907,0.328661 0.31571,0.128653 0.198955,0.144632 0.35921,0.30329 M 16.187458,9.8297354 c -0.128933,-0.040462 -0.107856,-0.01487 -0.234175,0.00596 -0.09929,0.016392 -0.184198,0.051474 -0.27105,0.091528 -0.286732,0.1321964 -0.587364,0.2629874 -0.84821,0.4316664 -0.192072,0.124201 -0.21253,0.162799 -0.34464,0.269111 -0.150198,0.13382 -0.220355,0.197617 -0.297114,0.210867 -0.06888,0.01189 -0.143069,-0.01692 -0.285177,-0.07236 -0.08839,-0.03422 -0.162375,-0.07003 -0.237156,-0.111125 -0.107141,-0.0589 -0.278058,-0.123872 -0.300171,-0.285267 -0.01069,-0.07791 0.08134,-0.305485 0.108146,-0.354244 0.06569,-0.1194996 0.126852,-0.2008445 0.245741,-0.3186913 0.112947,-0.1119547 0.316173,-0.3839878 0.495953,-0.4617532 0.112063,-0.048468 0.171142,-0.027364 0.233678,-0.025475 0.114165,0.0034 0.295969,0.066509 0.39526,0.1852098 m 12.347571,3.3177279 c -0.0864,-0.04936 -0.614831,-0.236015 -0.789362,-0.324873 -0.07126,-0.03631 -0.134151,-0.06751 -0.198125,-0.11212 -0.142702,-0.09955 -0.247497,-0.152182 -0.398407,-0.308815 -0.05977,-0.06202 -0.101608,-0.136174 -0.148089,-0.191502 -0.204786,-0.220669 -0.242552,-0.309941 -0.287114,-0.539454 -0.03438,-0.17819 0.03594,-0.449143 0.20644,-0.584551 0.19018,-0.07475 0.373385,-0.209468 0.540447,-0.248085 0.09188,-0.0203 0.265355,-0.03304 0.390293,-0.0099 0.192506,0.03556 0.226189,0.198849 0.08131,0.381953 -0.07177,0.09076 -0.134869,0.157465 -0.221696,0.239971 -0.09788,0.09302 -0.139562,0.123489 -0.306603,0.229127 -0.116305,0.07353 -0.126105,0.07987 -0.269892,0.137039 m -13.618152,-0.811945 0.703519,0.02114 m -0.703519,-0.02114 c 0.002,0.07911 -7.85e-4,0.232411 -0.03169,0.50615 -0.01064,0.09431 -0.05204,0.222919 -0.06359,0.314055 -0.01191,0.09387 -0.0019,0.115963 -5.36e-4,0.23434 0.0011,0.09885 -0.0065,0.109518 -0.02106,0.195809 -0.01679,0.0999 -0.01027,0.107231 -0.008,0.195476 0.0027,0.106863 0.0015,0.106463 -0.02007,0.234838 -0.01543,0.09178 -0.01,0.11933 -0.008,0.195477 0.0034,0.132231 0.0086,0.284058 0.100987,0.387974 0.08753,0.09853 0.117119,0.148589 0.301224,0.07044 m 1.765925,-2.06539 c 0.07428,0.07059 0.31567,0.159051 0.547849,0.43367 0.06285,0.07432 0.09226,0.108136 0.128573,0.191999 0.09875,0.293119 -0.05896,0.580063 -0.207824,0.78638 -0.0575,0.07938 -0.09118,0.132412 -0.164146,0.199451 -0.06812,0.06262 -0.117088,0.08121 -0.191999,0.128573 -0.301337,0.190525 -0.519778,0.208584 -0.820772,-0.02468 -0.362889,-0.270499 0.351965,-1.214497 0.554199,-1.498178 0.05701,-0.08235 0.128705,-0.179599 0.15412,-0.217213 m 6.913582,0.427831 c -1.483669,-0.296512 0.478987,-0.753701 0.823586,0.135252 0.0055,0.03044 -0.0027,0.0561 -0.02899,0.179493 -0.402905,0.728293 -1.86837,1.43459 -1.757411,0.217474 m 0,0 c 0.02286,-0.26787 0.03878,-0.467961 0.415411,-0.557338 m 8.543419,-0.373713 c 0.193817,-0.576718 0.332787,0.418404 0.243556,0.618671 -0.222292,0.345573 -0.481839,0.836177 -0.827287,0.997423 -0.320351,0.143168 -0.584188,0.01787 -0.748508,-0.254326 -0.09839,-0.162969 -0.05255,-0.269193 -0.04996,-0.428327 0.0034,-0.212075 -0.01965,-0.254565 0.149161,-0.277179 m -5.248488,-0.595416 c 0.06188,-0.0393 0.170506,-0.02176 0.233845,-0.01896 0.113032,0.0049 0.331374,0.128724 0.433958,0.171221 0.112966,0.0468 0.17337,0.06163 0.277508,0.162158 0.155713,0.150301 0.183428,0.34932 0.137516,0.543262 -0.02987,0.126047 -0.06724,0.284154 -0.159216,0.394598 -0.16822,0.201976 -0.483085,0.431821 -0.724105,0.448033 -0.45721,-0.0259 -0.797865,-0.297983 -0.761429,-0.761705 0.107021,-0.287642 0.330121,-0.78616 0.561923,-0.938607 z m 11.370084,0.205248 c -0.134092,0.09958 -0.266995,0.0849 -0.427328,0.08898 -0.07946,0.002 -0.09733,-0.0036 -0.194813,0.01796 -0.07966,0.01761 -0.105036,0.03618 -0.194484,0.031 -0.112918,-0.0065 -0.458392,-0.118459 -0.511023,-0.130204 -0.03743,-0.0084 -0.152978,-1.07e-4 -0.195806,-0.02102 m -2.394652,1.05033 c 1.46e-4,-0.131773 0.0071,-0.195882 0.08863,-0.353746 0.02036,-0.03938 0.0614,-0.08393 0.09476,-0.113054 0.07614,-0.06657 0.154445,-0.146325 0.229207,-0.201108 0.06782,-0.04972 0.144635,-0.09913 0.226828,-0.03834 0.200814,0.148568 -0.202814,0.533727 -0.329343,0.613729 -0.123406,0.08001 -0.231172,0.157803 -0.310081,0.09252 8.59e-4,0.03376 -0.0052,0.06899 0.005,0.195146 0.0032,0.03831 0.02213,0.109375 0.043,0.155124 0.09993,0.218933 0.25382,0.432744 0.519305,0.455433 0.258987,0.02212 0.23604,0.05199 0.430313,0.0281 0.07226,-0.0088 0.191981,-0.04183 0.272213,-0.04598 m -7.358354,-0.63282 c -0.125207,0.147299 -0.182004,0.197446 -0.06376,0.307537 0.07137,0.06649 0.184201,0.0099 0.266854,-2.91e-4 0.104379,-0.01285 0.129263,0.0028 0.233512,-0.03199 0.09662,-0.03222 0.181321,-0.07698 0.270057,-0.130522 0.178163,-0.107561 0.337792,-0.246637 0.497278,-0.409726 0.350005,-0.396625 0.124535,-0.503143 -0.127787,-0.673678 -0.05517,-0.03773 -0.105619,-0.100298 -0.166111,-0.132463 -0.145379,-0.07737 -0.223662,-0.09194 -0.354578,-0.12118 -0.07977,-0.01777 -0.116537,-0.05366 -0.19746,-0.08608 -0.229563,-0.09199 -0.379453,-0.01377 -0.628277,-0.133701 -0.113994,-0.05498 -0.151827,-0.06831 -0.276518,-0.123169 -0.09139,-0.04021 -0.176351,-0.132786 -0.15589,-0.243362 0.01514,-0.08205 0.06491,-0.113232 0.145293,-0.172923 0.151708,-0.112706 0.184525,-0.09081 0.308755,-0.14455 0.09124,-0.03951 0.167929,-0.08461 0.271052,-0.09153 0.265,-0.0178 0.457621,-0.05753 0.665484,0.06116 m -0.534753,2.005391 0.03903,-9.93e-4 M 5.3709388,15.721124 c -0.1230366,-0.04814 -0.1576641,-0.0384 -0.2748604,-0.0581 -0.1128425,-0.01896 -0.2864617,-0.0057 -0.3906227,-0.0031 l -0.1951462,0.005 c -0.1082043,0.0028 -0.2782813,0.02337 -0.4296516,-0.0021 -0.1234604,-0.02076 -0.1992786,-0.02098 -0.3128965,-0.01808 -0.2576081,0.0066 -0.4650107,0.04722 -0.6625025,0.05592 -0.043817,0.0019 -0.1087605,-0.0054 -0.1559512,0.01047 -0.1050679,0.01148 -0.208697,0.01595 -0.2872354,0.01441 m 7.2296365,-0.0727 c 0.00625,0.245649 -0.070764,0.316267 -0.011128,0.5861 0.027414,0.123964 0.029412,0.132114 0.031993,0.233512 l 0.010929,0.429321 0.00497,0.195147 0.00596,0.234174 c 0.00331,0.130124 -0.018924,0.24922 -0.029091,0.391286 0.00652,0.04412 -0.106528,0.309302 -0.1113533,0.603543 -0.02258,0.457682 0.030251,0.640922 -4.889e-4,0.883374 -0.00846,0.06661 -0.00369,0.110462 -0.00153,0.195311 0.00259,0.101906 -0.00335,0.13541 -0.02007,0.234838 -0.015028,0.08947 -0.00877,0.166127 -0.00604,0.273535 m 1.8236731,-2.729349 c -0.515233,0.02826 -1.001438,0.235509 -1.431494,0.531146 -0.8210844,0.613827 -0.07705,1.050284 0.544643,1.450678 0.08308,0.08492 0.423697,0.295752 0.658411,0.463818 M 4.0502515,16.309328 c 0.043793,0.05848 0.093827,0.08677 0.1470828,0.152473 0.2204584,0.271987 0.536882,0.835923 0.6162392,1.195001 0.043005,0.194608 0.076202,0.358494 0.1320029,0.582457 0.015574,0.06256 0.014333,0.08899 0.016971,0.155786 0.00252,0.06375 0.00246,0.09668 0.00397,0.156116 0.00348,0.136837 -0.024236,0.454743 -0.050146,0.587095 -0.024322,0.124304 -0.061842,0.244883 -0.1146474,0.354408 -0.3945915,1.059329 -2.4094879,0.570498 -1.564693,0.156997 m 26.4495886,0.381128 c -0.252804,-1.66e-4 -0.314755,-0.09103 -0.323165,-0.421372 -0.0033,-0.128055 0.02369,-0.241647 0.03009,-0.352257 0.0058,-0.100948 0.03472,-0.170068 0.0581,-0.27486 0.0271,-0.121485 0.03881,-0.198057 0.0756,-0.353415 0.03802,-0.160389 0.04647,-0.204667 0.04382,-0.308523 -0.08811,-0.0048 -0.142502,-0.03944 -0.241224,-0.03142 -0.09002,0.0073 -0.579288,0.0524 -0.701698,0.05039 -0.09197,-0.0015 -0.152407,-0.013 -0.235664,-0.05258 -0.172127,-0.08185 -0.239647,-0.208973 -0.244608,-0.403845 -0.01119,-0.372751 0.191592,-1.029594 0.480553,-1.066706 m 2.738335,0.177621 c 0.475867,-0.150923 0.537381,0.425616 0.524935,0.785748 m -0.524929,-0.785748 c -0.114393,0.03817 -0.302264,0.164811 -0.461064,0.298163 -0.114365,0.09602 -0.197865,0.232529 -0.270448,0.37138 -0.03411,0.06527 -0.05957,0.125242 -0.07957,0.197298 -0.0312,0.112256 -0.04528,0.28668 0.01643,0.390127 0.07771,0.130221 0.218363,0.150659 0.322726,0.148002 0.164586,-0.0042 0.371478,-0.08371 0.504068,-0.143001 0.08982,-0.04016 0.143061,-0.07555 0.209292,-0.106616 0.0072,-0.0034 0.247204,-0.224779 0.254755,-0.228047 0.05506,-0.02711 0.02644,0.416689 0.03654,0.413034 l -0.03101,0.469443 -0.160289,0.863279 -0.0271,0.469344 M 12.408901,19.416167 c 0.147636,0.266332 0.307598,0.213603 0.591399,0.219272 0.42755,0.02694 0.504755,-0.212377 0.380356,-0.400227 L 13.260588,19.121105 13.06213,18.995988 12.862678,18.831804 12.583844,18.61762 12.105889,18.252247 12.031371,18.136981 c -0.04883,-0.362654 0.165721,-0.607668 0.524159,-0.631693 l 0.156945,0.02854 0.511353,0.1432 m 10.148818,-0.209058 1.0518,-0.104882 0.351594,0.0041 0.314884,0.09614 m -5.037015,0.03986 c -0.95348,4.703954 -0.540839,2.337941 0.102076,0.583229 0.15513,-0.182372 0.209054,-0.378702 0.34026,-0.594491 0.04801,-0.07613 0.110531,-0.117829 0.164184,-0.199452 0.394579,-0.706991 0.587615,-0.326677 0.43429,0.184216 -0.08282,0.363909 -0.214155,0.796658 -0.219392,1.099111 -0.217558,1.4928 0.202684,0.199328 0.301788,-0.1639 0.113117,-0.18499 0.146701,-0.358466 0.227736,-0.513506 0.06496,-0.124268 0.135981,-0.280178 0.23075,-0.409665 0.138407,-0.195488 0.224751,-0.179688 0.286832,0.01497 0.152488,0.485718 0.324215,1.831403 0.498866,2.047373 m 7.538663,-1.24126 -0.388895,0.0106 c -0.12981,-0.298259 0.184103,-0.889639 0.369024,-0.791175 m 2.737134,0.316529 c 0.12862,-0.185113 0.558508,-0.382386 0.80802,-0.47622 0.144332,-0.05425 0.311883,-0.0862 0.427004,-0.10198 0.09624,-0.01319 0.370244,-0.05028 0.467356,-0.05095 0.06716,-4.09e-4 0.09626,-0.01256 0.137761,0.04207 0.04449,0.05855 0.02286,0.14474 0.0113,0.188462 -0.02305,0.08713 -0.141043,0.306185 -0.204724,0.395757 -0.0932,0.131096 -0.174441,0.21389 -0.2773,0.35855 -0.07209,0.101428 -0.12316,0.170875 -0.207704,0.278669 -0.05379,0.06862 -0.10271,0.104508 -0.164973,0.16694 -0.111239,0.11156 -0.247345,0.258744 -0.35449,0.393047 -0.146885,0.184054 -0.447581,0.433535 -0.510996,0.637881 -0.03082,0.09932 0.0045,0.201053 0.07849,0.271383 0.09454,0.08984 0.172069,0.09044 0.276018,0.103614 0.18078,0.02293 0.375614,0.02102 0.545912,-0.03342 0.258274,-0.06352 1.352826,-0.455594 1.388432,-0.432374 m -25.6116527,0.05967 c -0.073923,0.05543 -0.3137616,0.09368 -0.4650386,0.142006 -0.1247024,0.03985 -0.1973819,0.03374 -0.3896294,0.03597 -0.091401,0.001 -0.1117025,0.0043 -0.1961395,-0.03406 -0.1041147,-0.04738 -0.3023,-0.161802 -0.3842503,-0.2636 -0.083966,-0.104286 -0.1201518,-0.132734 -0.1370395,-0.269893 -0.034429,-0.280081 0.098471,-0.525642 0.2208214,-0.786711 0.039337,-0.08399 0.152983,-0.34031 0.2582409,-0.338537 0.095138,0.0016 0.1510496,0.09 0.1986235,0.131634 M 23.8392,20.45304 c -0.06971,-0.209173 -0.08343,-0.39805 -0.06045,-0.584279 0.06905,-0.282666 0.35866,-1.98722 0.464506,-2.170077 m 13.502817,-0.177276 c 0.04796,-0.0012 0.15035,-0.0019 0.195147,-0.005 0.06343,-0.0043 0.09824,-0.01789 0.155452,-0.03001 0.123412,-0.02611 0.255492,-0.01551 0.350932,-0.02194 0.09229,-0.0063 0.09461,-0.01315 0.193987,-0.05051 0.195125,-0.07335 0.381964,-0.05784 0.662671,-0.0494 0.09485,0.0029 0.174322,0.01326 0.204642,0.111954 0.02432,0.07929 -0.02822,0.149321 -0.05357,0.196636 -0.03501,0.06529 -0.220817,0.259085 -0.284603,0.326204 -0.0879,0.09249 -0.350526,0.341706 -0.313513,0.470112 0.02012,0.06975 0.06747,0.08838 0.126752,0.120459 0.208966,0.112977 0.530443,0.188916 0.711468,0.333379 0.102371,0.08167 0.241376,0.261534 0.302488,0.376321 0.0308,0.05792 0.06194,0.131795 0.06351,0.193656 0.0021,0.08204 -0.01772,0.112811 -0.05357,0.196636 -0.02901,0.06783 -0.05741,0.142565 -0.08608,0.197464 -0.08629,0.165093 -0.307578,0.348815 -0.463276,0.467442 -0.231212,0.176086 -0.464689,0.316885 -0.770317,0.423161 -0.180785,0.06287 -0.266687,0.05435 -0.504731,0.117007 -0.07336,0.01928 -0.143686,0.01666 -0.194814,0.01796 m -2.382208,-3.063712 c 0.107772,-0.08964 0.343862,-0.107796 0.504232,-0.136522 0.08612,-0.01539 0.133748,-0.04504 0.233679,-0.02548 0.07831,0.01534 0.120055,0.02619 0.196801,0.06009 0.276093,0.121891 0.619314,0.531857 0.741912,0.762203 0.190798,0.622091 -0.512469,1.521836 -1.027954,1.809672 -0.111558,0.05303 -0.136706,0.08526 -0.270886,0.09801 -0.147036,0.01398 -0.235845,-0.01973 -0.353418,-0.07563 -0.217153,-0.103239 -0.35268,-0.35829 -0.437541,-0.568156 -0.09413,-0.350102 0.03208,-0.864459 0.278087,-1.094092 0.07275,-0.06328 0.103268,-0.08101 0.192994,-0.08954 0.07625,-0.0072 0.256853,0.06251 0.354242,0.108145 m -21.601025,-0.15307 -0.160091,-0.152142 0.232188,-0.08402 0.233181,-0.04499 0.195146,-0.005 0.39377,0.126665 0.202598,0.287752 c 0.0098,0.408343 -0.308303,0.772348 -0.561592,0.951604 -0.187451,0.129278 -0.469026,0.180227 -0.699379,0.141491 -0.635421,-0.218667 -0.492869,-0.42083 -0.426307,-0.893923 l 0.01455,-0.195642 0.107258,-0.1329 0.30859,-0.151068 m 1.521144,-0.07778 c -0.03496,0.722707 -0.03159,1.924407 0.102262,0.794067 0.04023,-0.570169 0.456008,-0.756226 0.562782,-1.006268 0.04921,-0.115059 0.24038,-0.319103 0.417338,-0.225425 0.137807,0.07296 0.208068,0.401377 0.234592,0.521263 0.01801,0.08152 0.0087,0.106632 0.02448,0.194649 0.01703,0.09529 0.0301,0.130262 0.03847,0.233348 0.01708,0.210732 0.03275,0.29559 0.05647,0.428161 0.01299,0.07274 0.03181,0.09745 0.03648,0.15529 0.0076,0.09377 0.0126,0.180462 0.03299,0.272542 0.03672,0.166257 -0.0092,0.27873 0.10198,0.427003 M 7.9784455,20.27099 C 7.7817055,20.317671 7.6937118,20.150297 7.607231,20.007061 7.123548,19.537317 7.1040846,18.700154 6.9980613,19.139254 6.9264873,19.50713 5.9166067,19.801536 5.6604879,19.731179 5.5833139,19.706545 5.5220655,19.658548 5.4746952,19.592696 5.4229514,19.52071 5.4198701,19.484075 5.4177011,19.398874 5.4394495,19.11892 6.016916,18.479733 6.2128053,18.415275 c 0.074382,-0.0206 0.079562,-0.01503 0.1557856,-0.01697 0.077356,-0.002 0.088085,-0.0024 0.1564477,0.009 0.1029595,0.01734 0.1358317,0.01228 0.2351688,0.03307 0.051279,0.01076 0.1498657,0.04656 0.1968022,0.06009 m 11.6135284,0.563546 0.09097,0.505393 -0.0015,0.195311 -0.04054,0.196304 c -0.190718,0.363533 -0.548047,0.906732 -0.701731,1.072336 m 5.861058,-1.164625 c 0.785694,-0.123048 1.374652,-0.337135 2.135679,-0.483969 m -2.608003,0.339775 c 0.114451,0.15268 0.271052,0.149318 0.472324,0.144194"
       id="path74454"
       sodipodi:nodetypes="ccscsccccccccccccccccccccccccccccccccscccccccsccccccccccccsccccccccccccccccccccsscscccsscccccccccccccccccccccccccsccscscccccssccscccccccccscsccccscccccccccccccscccccccccscscccccccccccccccccccccccccscccccccccscccccccccccccccccccccccccccccccccccsscscccccsccsccsccccccccccccscccsccccccssccccccccccssccccccccccccccccccccccccccccccccccccssccsccccscccccscccccscccccccccsccsccccssccsccccccccccsccccccccccccccccccccccccccccccccsccccccccccccccc" /></g></svg>
