<?xml version="1.0" encoding="UTF-8" standalone="no"?>
<!-- Created with Inkscape (http://www.inkscape.org/) -->

<svg
   width="210mm"
   height="297mm"
   viewBox="0 0 210 297"
   version="1.1"
   id="svg14497"
   inkscape:version="1.2 (dc2aedaf03, 2022-05-15)"
   sodipodi:docname="Casey - Pulsz - Envelope 96.svg"
   xml:space="preserve"
   xmlns:inkscape="http://www.inkscape.org/namespaces/inkscape"
   xmlns:sodipodi="http://sodipodi.sourceforge.net/DTD/sodipodi-0.dtd"
   xmlns="http://www.w3.org/2000/svg"
   xmlns:svg="http://www.w3.org/2000/svg"><sodipodi:namedview
     id="namedview14499"
     pagecolor="#ffffff"
     bordercolor="#666666"
     borderopacity="1.0"
     inkscape:pageshadow="2"
     inkscape:pageopacity="0.0"
     inkscape:pagecheckerboard="0"
     inkscape:document-units="mm"
     showgrid="false"
     inkscape:zoom="2.8284272"
     inkscape:cx="239.00209"
     inkscape:cy="82.908268"
     inkscape:window-width="1920"
     inkscape:window-height="991"
     inkscape:window-x="-9"
     inkscape:window-y="-9"
     inkscape:window-maximized="1"
     inkscape:current-layer="layer1"
     inkscape:showpageshadow="2"
     inkscape:deskcolor="#d1d1d1" /><defs
     id="defs14494"><pattern
       id="EMFhbasepattern"
       patternUnits="userSpaceOnUse"
       width="6"
       height="6"
       x="0"
       y="0" /></defs><g
     inkscape:label="Layer 1"
     inkscape:groupmode="layer"
     id="layer1"><path
       style="fill:none;stroke:#2a2a2f;stroke-width:0.0554315"
       d="M 3.6940434,2.4232114 C 3.4561602,1.8952391 3.6720234,1.1033385 2.6962714,1.4254416 2.4819167,1.5748385 2.419445,1.4815422 2.2343582,1.6379145 2.0859124,1.7633013 1.9713901,1.8244428 1.8093633,1.9797631 1.581871,2.1977753 1.3714126,2.5947037 1.3936248,2.6449434 1.4854759,3.5510869 2.7716034,3.8801302 3.3614527,4.2940385 3.598313,4.4602779 3.9256376,4.7757965 4.0386626,5.0285108 4.2709775,5.5480727 3.6997529,5.9052747 3.3060208,6.1080446 2.7654385,6.3925675 1.9761768,6.4800294 1.5322046,6.1925769 M 33.25061,1.7612625 c -0.721405,0.591084 -1.415189,1.3650752 -1.655317,2.1586118 -0.07756,0.2612506 -0.114911,0.4803168 -0.127769,0.7760453 -0.01416,0.3264378 0.01748,0.683585 0.13442,0.9977718 0.140353,0.3769912 0.351273,0.8250459 0.694948,1.0578606 0.482091,0.3266588 1.152925,0.2657385 1.662899,0.1062065 M 22.293066,2.6644357 c -0.124571,0.3478014 -0.02913,0.7495596 -0.05844,1.0457697 -0.02634,0.270536 -0.241337,0.7718014 -0.08181,1.1520084 l 0.7362,-0.2093925 C 23.237174,4.5265764 23.19682,4.559503 23.372317,4.4187606 M 18.660619,3.1992609 c -0.297176,0.2458893 -0.200773,0.4728145 -0.167127,0.8314808 l 8.79e-4,1.1640687 0.0077,0.4988855 -0.06314,1.1640679 M 37.784582,4.2524691 37.895447,4.363333 M 16.720509,4.5850594 c -0.07727,-0.1161387 -0.101273,-0.1301015 -0.415738,-0.027722 -0.429042,0.2312593 -0.815068,0.4215572 -0.829703,0.7481612 -0.01513,0.3376347 0.450329,0.4907933 0.691123,0.6022102 1.218988,0.7995992 1.316397,1.0247493 0.110864,1.2486012 -0.196395,0.035808 -0.315184,0.049338 -0.388023,0.1448994 M 13.062011,6.5251708 c 0.173834,0.337913 0.58281,0.3697305 0.806589,0.1593633 0.223779,-0.2103664 0.3516,-0.4131363 0.407645,-0.5495537 0.07267,-0.1769935 0.127604,-0.2569261 0.106262,-0.4967239 -0.03021,-0.3385219 -0.231315,-0.9843005 -0.65293,-0.9647349 -0.667751,0.4146943 -0.817595,1.0431112 -1.091945,1.7439951 l -0.240796,1.3825796 m 30.30013,-2.984467 C 39.199628,7.6990118 45.48601,4.5591778 42.496301,7.7446781 M 4.8013529,4.6950252 C 4.6590008,5.1072813 4.5227965,5.3990101 4.5263527,5.63826 4.5379939,6.1487868 4.8132127,6.9925693 5.467862,6.639413 5.6766724,6.5267765 5.7836006,6.5064324 5.914974,6.3646932 6.0431875,6.2263351 6.1002269,5.8648091 6.1330433,5.7491237 M 22.152824,4.8622138 c -0.03763,0.1320395 -0.118956,0.2781575 -0.139467,0.443455 -0.0465,0.3742755 0.263135,0.4283212 0.472059,0.5543735 0.408365,0.2463382 0.998769,0.6984404 1.255583,1.0553101 0.149002,0.207093 0.220121,0.3527118 0.296505,0.4967239 M 28.370162,5.1943066 C 28.149212,4.780231 27.497165,4.9944742 27.548165,5.63826 c 0.02007,0.2532675 0.240186,0.4764355 0.395286,0.6651807 0.419394,0.5104719 0.88242,1.0525387 0.630154,1.435024 C 28.321339,8.120949 27.664307,8.3314789 27.141696,8.465292 M 7.3525361,5.0839342 C 7.7512606,5.6954651 7.7706123,6.3360306 7.2968882,6.7181826 7.0661273,6.901827 6.8218384,7.0586434 6.5211212,6.9651863 6.1711234,6.8563728 6.0190193,6.6003888 5.914974,6.3646932 M 34.735832,5.6382529 c 0.02822,-0.095954 0.130928,-0.4183988 0.498885,-0.383034 0.218233,0.021006 0.28126,0.064688 0.49883,0.1655749 0.159532,0.07395 0.281261,0.1307634 0.404984,0.2788778 0.144732,0.1732792 0.274387,0.4154056 0.276106,0.6591943 0.0019,0.2706176 -0.118237,0.4101396 -0.348721,0.5865233 C 35.649845,7.2637896 35.149685,7.1341344 34.826405,6.7445043 34.583893,6.4521021 34.422862,5.8793808 34.79126,5.6936844 m 3.935677,0.8869249 c 0.200493,-0.4793738 0.265239,-0.5584748 0.40769,-0.7992218 0.14245,-0.2407469 0.472824,-0.5816557 0.645493,-0.5450148 0.332646,0.070512 0.325386,0.4676768 0.37727,0.7344706 0.04673,0.2403528 0.02599,0.289797 0.01536,0.4988864 -0.02122,0.3455916 0.05577,0.6310928 0.161711,0.9423581 M 26.199342,7.7446666 c -0.281649,-0.1816498 -0.52006,-0.2880233 -0.760579,-0.56374 -0.06375,-0.073057 -0.176329,-0.2365837 -0.1143,-0.3451737 0.131816,-0.2306513 0.943721,-0.1076496 0.9302,-0.6986065 -0.004,-0.1744996 -0.07112,-0.287137 -0.224886,-0.4374677 C 25.869191,5.5426405 25.746022,5.4811706 25.534161,5.4190273 25.284164,5.3456961 25.090048,5.3267332 24.98991,5.8603489 24.889771,6.3939647 25.1136,7.0209509 25.438763,7.1809266 M 20.964396,5.6724609 c -0.968474,-0.6560774 -1.657401,0.022853 -1.246443,0.5978906 0.210363,0.2534336 0.547721,0.2313167 0.802985,0.1041572 0.334364,-0.1665727 0.599716,-0.1441226 0.498886,-0.5911805 M 9.4035156,5.6936879 C 9.7508508,5.3863747 10.213429,4.5902627 9.1722625,4.8546616 8.7086287,5.2773331 8.6591527,5.5485861 8.7442922,6.026782 8.7603406,6.2070965 9.0653269,6.5195662 9.3480842,6.8023235 M 17.448856,5.7491317 c 0.375771,-0.099391 0.726156,-0.2041556 1.053204,-0.055436 m 0,0 0.831476,0.277158 M 22.013357,5.3056688 C 21.939805,5.6110971 21.878325,6.477996 21.764801,6.9686222 M 37.393279,6.8432345 C 37.512063,6.4687364 37.381535,6.0942382 37.752017,5.71974 M 21.019824,5.783333 21.241548,6.8919722 M 17.108564,29.324916 c -0.298777,0.117351 -0.485296,0.09636 -0.609796,0.09359 -0.02777,-0.646167 -0.08753,-1.498784 0.09645,-2.217292 0.08071,-0.31524 0.301382,-0.695502 0.624216,-0.795224 0.286029,-0.08836 0.548942,0.0551 0.775214,0.227657 0.329985,0.251551 0.542123,0.718011 0.500937,1.121884 -0.03991,0.391626 -0.174832,0.563908 -0.602823,0.952818 -0.427991,0.38891 -0.601493,0.544786 -0.784195,0.616572 z m 3.492207,-2.51173 0.105708,0.55432 0.05344,0.776044 -0.08986,0.997771 -0.03908,0.498886 -0.141091,0.748337 -0.05545,0.360314 m -4.274691,-3.751644 c 0.165019,-0.14911 0.194784,0.145353 0.435469,0.203995 M 1.4213407,28.088126 c -0.053989,0.106819 -0.085694,0.221896 -0.063855,0.388134 0.029097,0.221896 -0.0052,0.418345 0.024227,0.665071 0.065132,0.545781 0.2357512,1.342669 0.7624092,1.670824 0.3896292,0.242737 0.7431728,-0.0929 0.9116307,-0.395893 0.076223,-0.137083 0.138191,-0.223723 0.1834793,-0.388022 0.075943,-0.275719 0.04967,-0.569784 -0.044072,-0.886909 m 1.0532029,-0.609749 c 0.2249429,0.230982 0.2645207,0.202493 0.3253355,0.599217 0.060815,0.396726 0.070686,0.542345 -0.016795,0.731145 -0.3600292,0.776767 -0.8963875,0.567624 -1.2508731,0.221729 M 22.152825,28.587012 c -1.344418,0.528056 -0.311253,0.791266 -0.09253,1.441519 0.115685,0.501822 -0.576157,0.950876 -1.01612,0.8312 m 2.132526,-1.891158 c 0.607528,0.17989 0.87876,0.344827 0.868335,0.509016 -0.03549,0.558895 -1.510651,0.556758 -1.122287,0.853757 0.211446,0.1617 0.687862,0.127793 1.052912,0.358703 M 8.4057482,28.919609 c 1.2123783,0.38262 -0.045883,2.06646 -0.6073693,1.811405 C 7.5507106,30.600085 7.5300872,30.313988 7.3803106,30.134171 M 10.29043,29.030472 c -0.09695,0.190464 -0.177437,0.333534 -0.203602,0.554319 -0.03713,0.31341 -0.04291,0.572774 0.07627,0.828204 0.146618,0.3143 0.510639,0.221617 0.727655,0.03687 0.153767,-0.130876 0.255761,-0.265077 0.380704,-0.419121 0.07656,-0.0944 0.100274,-0.16552 0.127605,-0.224222 -0.01748,-0.206438 0.102859,-0.391085 0.166297,-0.498894 m -5.5986109,-0.221717 0.083144,0.692892 c 0.070895,0.590897 0.3633528,1.008297 0.803758,0.794054 0.193125,-0.09396 0.4021578,-0.27871 0.5266565,-0.438685 0.2502231,-0.321727 0.1927193,-0.320342 0.1939565,-0.771113 M 12.230541,29.08591 c 0.948135,-0.02652 0.673373,1.698695 -0.166298,1.635349 -0.480372,-0.06486 -0.462408,-0.656925 -0.665177,-0.914738 m 20.454324,1.49665 c 0.199398,-0.649789 0.361707,-1.164636 0.878317,-1.581524 0.73062,-1.057954 0.845444,-0.801733 0.899557,-0.09056 0.08576,1.562816 0.83811,0.586753 1.143779,-0.05947 0.208619,-0.254551 0.406723,-0.537793 0.625978,-0.790586 0.138413,-0.150219 0.28154,-0.325771 0.428047,-0.303041 0.126271,0.01962 0.142236,0.217014 0.148502,0.330814 0.01608,0.290298 -0.05061,0.515905 0.01733,0.775991 0.0898,0.343788 0.189189,0.679926 0.293012,0.886906 M 18.383463,29.363058 c -0.512332,0.630108 0.198038,1.45326 0.687688,0.885532 0.135697,-0.162469 0.236971,-0.276269 0.365518,-0.386635 m 8.813636,2.272707 c -0.293621,0.03707 -0.441071,0.101702 -0.72056,-0.0082 -0.364851,-0.143457 -0.573991,-0.586358 -0.642232,-0.934137 -0.03192,-0.162913 -0.0144,-0.28104 -0.0035,-0.443453 0.01108,-0.165909 -0.0062,-0.281706 0.01053,-0.443456 0.08015,-0.536162 0.144616,-0.893238 0.413472,-1.330362 M 16.4988,29.418523 16.42923,29.972839 16.3325,30.693453 m 3.159611,-1.164068 c -0.153878,0.219512 -0.06057,0.228046 -0.05541,0.332588 m -3e-6,0 0.166294,0.776044 M 29.671965,30.18311 c -1.116112,0.965049 -0.08983,1.538297 0.961917,1.092355 0.612293,-0.542115 0.142952,-1.125757 -0.443461,-1.433181 -0.248,-0.129995 -0.414463,-0.152627 -0.609748,-0.146618 m -15.548821,0.45806 0.219075,0.33259 m 10.340894,0.428841 0.05544,0.110863 m 76.994729,2.716149 -0.18736,0.498886 0.1286,0.554318 0.11198,2.771592 0.0254,0.443451 0.0322,0.498885 -0.0648,1.940113 -0.30543,3.159612 -0.0122,0.443457 -0.2234,1.274926 -0.2256,1.884683 m -11.474351,1.053201 0.788792,-1.829247 0.233365,-0.554316 0.314852,-0.609751 0.410754,-0.886907 1.243891,-2.827021 0.230589,-0.609751 0.538796,-1.718382 0.172397,-0.609752 0.101433,-0.443455 0.264966,-0.88691 0.151329,-0.609748 0.603096,-1.829247 0.32262,-0.776046 m -6.818119,0.332589 c 0.116961,0.381149 0.143569,0.366629 0.26995,0.720615 0.09368,0.262747 0.192351,0.521723 0.295459,0.776046 0.136359,0.336913 0.330928,0.666178 0.488911,0.997771 0.429594,0.903483 0.747769,1.91561 0.989449,2.882452 0.135254,0.539849 0.255546,1.107747 0.388025,1.662952 0.113081,0.474276 0.18293,0.965067 0.450662,1.385795 m 8.647356,-7.926748 c 0,1.763674 0.0044,3.567146 -0.115847,5.321453 -0.07096,1.040065 -0.233921,2.122759 -0.271621,3.159613 -0.0088,0.240571 -0.03544,0.419615 -0.07927,0.665181 -0.101991,0.562962 -0.136915,1.134631 -0.207313,1.718382 -0.03217,0.271781 -0.03491,0.528433 -0.07043,0.776047 -0.07653,0.536741 -0.160201,1.130807 -0.197892,1.607516 M 117.3846,47.600108 c 0.38358,0.396448 1.40076,0.237305 1.99554,0.149613 0.25387,-0.03748 0.48947,-0.137254 0.72061,-0.229932 0.34312,-0.137639 0.66186,-0.328547 0.94011,-0.59434 0.39468,-0.377157 0.56375,-0.888794 0.48449,-1.431748 -0.0427,-0.291957 -0.20732,-0.666731 -0.37472,-0.942336 -0.699,-1.148272 -1.47559,-2.171098 -2.38523,-3.159614 -0.62693,-0.681311 -1.4451,-1.7364 -1.30874,-2.660722 0.0261,-0.174836 0.0804,-0.339136 0.15244,-0.498887 0.11307,-0.249556 0.30487,-0.468514 0.49666,-0.66518 0.38304,-0.392684 0.92128,-0.806592 1.44068,-0.954042 0.27383,-0.07765 0.52937,-0.05288 0.83147,-0.0019 0.7378,0.124443 0.94234,0.628041 0.94234,1.288513 m 17.12841,-0.665184 c -0.0227,0.287693 -0.0676,0.443066 -0.0533,0.776043 0.0183,0.424831 0.10422,0.902376 0.1796,1.330363 0.10084,0.569952 0.16907,1.192116 0.25,1.773818 0.0505,0.361912 -0.008,0.741566 0.0166,1.108637 0.0693,1.011849 0.22727,2.038724 0.0825,3.048746 -0.0593,0.415351 -0.0865,0.979979 -0.10147,1.385792 -0.007,0.188194 0.0117,0.310366 0.0139,0.498886 0.005,0.529486 -0.0255,0.968837 0.0554,1.385798 m 5.98684,-10.254905 0.99779,0.142959 1.38578,0.300496 c -0.0232,0.0418 -0.12582,0.142121 -0.12195,0.332865 0.004,0.151939 0.10084,0.321613 0.14468,0.498611 0.11752,0.473883 0.17515,1.056861 0.19678,1.552087 0.0123,0.271561 0.002,0.467072 0.002,0.720611 0,0.295454 -0.0315,0.505266 -0.0505,0.776049 -0.0472,0.669118 -0.0782,1.306469 -0.21507,1.940113 -0.14136,0.654537 -0.37495,1.530239 -0.58226,2.064047 m 9.60607,-7.995243 c -0.0499,1.159411 -0.25832,2.401083 -0.42018,3.603067 -0.031,0.232314 -0.0793,0.494895 -0.11641,0.720613 -0.0249,0.155373 -0.0139,0.283144 -0.0438,0.443456 -0.0627,0.335582 -0.17129,0.639239 -0.25055,0.997772 -0.0771,0.351768 -0.14912,0.54805 -0.22728,0.942336 -0.0299,0.149612 -0.0882,0.239963 -0.0543,0.380651 0.0471,0.199055 0.51385,0.264522 0.66906,0.284529 m -8.53649,-7.261557 c 0.84312,0.06652 1.81539,0.437795 2.60529,0.665181 m 20.84234,-0.221731 c -0.051,0.0602 -0.14467,0.133812 -0.18458,0.278545 -0.0299,0.108038 -8.8e-4,0.23115 0.0138,0.331205 0.0472,0.309476 0.0581,0.672222 0.0598,0.997772 8.9e-4,0.213912 -0.006,0.381036 0.0232,0.609752 0.0765,0.582533 0.0848,1.0445 0.0876,1.662954 0.004,0.544285 -0.0471,1.104475 -0.0699,1.662952 -0.009,0.215461 -0.0882,0.359199 -0.0809,0.554317 0.0104,0.279875 -0.0382,0.297501 -0.0659,0.60975 -0.0144,0.165571 -0.0123,0.281148 -0.0376,0.443451 -0.0372,0.239246 -0.0654,0.463857 -0.1153,0.720616 -0.17294,0.898661 -0.25001,2.065442 -0.84976,2.771584 m -39.24907,-3.776174 c 0.0472,0.574446 -0.41547,2.484285 0.0912,2.282736 m 43.03813,-5.823552 c 0.19122,-0.0342 0.22062,-0.02332 0.33259,0.05544 m -67.01694,1.940111 c -0.006,0.140632 -0.0576,0.658641 -0.097,0.831476 -0.046,0.203493 -0.0682,0.322007 -0.0693,0.554321 -0.004,0.892725 -0.0299,1.805687 0.35089,2.605289 0.40577,0.853488 1.24334,0.960354 1.75165,0.110865 0.20675,-0.346115 0.2256,-0.633806 0.2256,-1.053201 m 59.42287,-2.771589 -0.1663,-0.05544 c 0.15743,0.004 0.34368,0.07355 0.55432,0.124722 0.15576,0.03791 0.36481,0.09369 0.51669,0.116804 0.51663,0.0786 1.02327,0.2699 1.3858,0.315964 m -67.03458,-0.391146 c 0.65908,0.0055 1.36195,0.645112 1.32813,1.441221 -0.009,0.225389 -0.0315,0.458423 -0.12416,0.665182 -0.4878,1.089734 -1.9462,1.130036 -2.26826,-0.110859 -0.0981,-0.37888 0.005,-0.768785 0.23281,-1.108638 m -7.372414,2.937884 c -0.839243,-0.248057 -2.232801,-0.285807 -2.696764,-1.496656 -0.100886,-0.26336 -0.05099,-0.425607 -0.0018,-0.665182 0.151886,-0.741956 1.183471,-1.29051 1.812071,-1.448265 0.280485,-0.07034 0.489458,-0.127882 0.774936,-0.0011 0.402438,0.178824 0.130817,0.523277 -0.109759,0.727876 -0.629147,0.53475 -1.613065,0.847605 -2.050976,1.331191 m 60.032626,-1.940122 1.05321,0.448498 0.49889,0.100824 0.49423,-0.05775 m 1.4203,1.367002 c -0.0799,-0.125002 -0.28715,-0.688297 -0.26553,-0.942336 0.0566,-0.654985 1.1674,-1.458856 1.61806,-0.654763 0.13858,0.248223 -0.0261,0.465184 -0.21396,0.611245 -0.1979,0.153492 -0.43514,0.314411 -0.66297,0.400386 -0.14634,0.0551 -0.47062,0.07028 -0.54268,0.21502 -0.0621,0.125219 0.007,0.259255 0.0671,0.370448 0.20731,0.385473 0.48891,0.542789 0.80819,0.720616 M 124.7575,45.715283 c 0.48337,0.05382 0.89079,0.479595 0.93735,1.053201 0.0427,0.536083 -0.37471,0.978097 -0.88192,1.106197 -0.2184,0.05515 -0.38192,0.08698 -0.60974,0.03604 -0.81208,-0.181321 -1.07316,-1.339343 -0.71064,-2.08457 0.12362,-0.254766 0.37361,-0.60199 0.63857,-0.409752 0.0898,0.06535 0.16851,0.173005 0.21674,0.298944 0.0782,0.202603 0.0926,0.550659 0.18792,0.775989 m 3.65849,2.106408 c -0.33813,0.006 -0.53935,0.03986 -0.88691,-0.03708 -0.18126,-0.04014 -0.34644,-0.107425 -0.49889,-0.210584 -1.07093,-0.726209 -0.24444,-1.863894 0.44347,-2.521758 0.29267,-0.279931 0.5909,-0.62599 0.99776,-0.334753 m 42.31154,-0.218498 c 0.30178,0.140493 0.94511,0.369229 1.33036,0.720611 m -13.81968,1.437994 c -0.13991,1.288121 1.0181,-0.659029 1.38635,-1.006972 0.79212,-0.725605 1.745,-0.763295 2.66017,-0.933141 m -12.52757,0.221731 -5.5e-4,0.22422 c -0.3683,1.760607 0.008,1.661823 0.81486,0.44096 0.16574,-0.253712 0.46008,-0.727764 0.79212,-0.694782 0.2245,0.02229 0.29379,0.282204 0.3337,0.473052 0.13415,0.64273 0.0554,1.217227 0.0554,1.829247 M 109.95713,45.82615 c 0.35143,0.168124 0.81096,0.42461 1.06484,0.776266 0.23226,0.321174 0.33813,0.749825 0.20232,1.108417 -0.0571,0.149886 -0.13746,0.258642 -0.23503,0.387187 -0.2317,0.305542 -0.5776,0.520785 -0.97671,0.579987 -0.59034,0.08764 -0.82918,-0.400199 -1.2089,-0.580795 m 46.3258,-2.389238 c -0.10865,0.341125 -0.35407,1.186291 -0.66061,1.725698 m 9.86686,-0.388015 c -0.0881,-0.154714 -0.14967,-0.591459 -0.44679,-0.637908 -0.37749,-0.05909 -0.84866,0.207144 -1.09589,0.472443 -0.3498,0.375604 -0.66019,0.908246 -0.16135,1.37714 0.82246,0.610585 2.12004,-1.139661 2.03319,0.28497 0.0688,0.484084 0.27938,0.804756 0.61308,0.997772 m -21.00854,-2.71615 c 0.26774,0.02113 0.57372,0.0071 0.83147,0.01437 0.14136,0.0041 0.24668,0.03586 0.38804,0.05255 0.17515,0.02069 0.32205,-0.0025 0.49888,-0.0093 0.65519,-0.02556 1.16849,0.0069 1.77382,0.04833 0.3093,0.02118 0.47949,0.0049 0.7206,0.0049 m 0.1663,-0.05543 v 0.05544 m -14.57855,2.438999 -0.30932,-0.997715 -0.245,-0.443511 c -0.0754,0.07521 -0.1336,0.134145 -0.27828,0.27849 -0.30708,0.304928 -1.01273,0.863073 -1.54987,0.59079 -0.20454,-0.103763 -0.26939,-0.267792 -0.27715,-0.48126 -0.0144,-0.385249 0.21341,-1.005421 0.55543,-1.235127 0.25055,-0.168126 0.42793,-0.06186 0.66295,0.01563 m 34.47858,0 c -0.45428,-0.112427 -0.55579,0.267655 -0.76442,0.554373 -0.26717,0.37267 -0.66185,0.825432 -0.60753,1.330305 0.0277,0.257425 0.16742,0.447228 0.37639,0.583809 0.29212,0.19074 0.5144,0.23952 0.82926,0.246837 0.52106,0.01214 0.91073,-0.0934 1.33037,-0.220895 m 10.36573,-1.053204 c 0.23836,-0.216464 0.65908,-0.712522 0.47894,-1.106255 -0.27162,-0.593504 -1.0449,-0.296721 -1.38857,0.03941 -0.35699,0.349055 -0.72115,0.689294 -0.7633,1.177703 -0.0377,0.433533 0.19185,0.644841 0.52851,0.926516 0.33667,0.281675 0.84278,0.390875 1.42148,0.482004 0.39911,0.06286 0.69179,0.03509 0.99777,0.08813 m -3.38124,-2.993314 c -0.24334,0.425995 -0.44955,0.836466 -0.75886,1.219503 -0.12638,0.156152 -0.20233,0.286082 -0.33147,0.438521 -0.11864,0.14024 -0.22618,0.225995 -0.3509,0.34229 -0.15022,0.139574 -0.52216,0.519118 -0.77327,0.453319 -0.16906,-0.04434 -0.2245,-0.195675 -0.27051,-0.347277 -0.0449,-0.149114 -0.0515,-0.332257 -0.0716,-0.493898 -0.0527,-0.415463 0.0488,-0.777986 0.11752,-1.058136 m -43.1453,-4.330023 c -0.148,-0.282482 -0.21197,-0.381526 -0.0164,-0.508636 m 2.641,4.672369 -0.0554,0.38802 m 38.80224,0.997772 c -0.52368,0.241829 0.17408,-1.976387 0.4533,-2.178428 m -84.321573,6.003223 c 0.0205,0.284917 0.06098,0.346447 0.24833,0.776046 0.05099,0.11696 0.114743,0.265513 0.250553,0.265513 0.156322,0 0.206208,-0.187913 0.23781,-0.265513 0.06372,-0.157429 0.151876,-0.488909 0.374158,-0.589796 0.323716,-0.146894 0.631923,0.207869 0.838679,0.425716 0.37749,0.397447 0.994999,0.891895 0.991676,1.494441 -0.0035,0.786021 -1.209523,0.864179 -1.777137,0.826487 -0.166855,-0.01107 -0.330379,-0.08592 -0.433483,0.03936 -0.120283,0.145786 -0.06486,0.349776 -0.06539,0.575381 -5.57e-4,0.197339 -0.0071,0.31153 -0.03217,0.498886 -0.02775,0.211754 -0.01767,0.386915 -0.04657,0.60975 -0.05877,0.447336 -0.01387,0.656315 -0.08758,1.053205 m 0.110863,-4.545405 c -0.118065,0.40022 0.05541,1.349208 0.05541,1.662953 m 9.423396,4.822562 c 0.100338,-0.539349 0.26608,-1.120276 0.341461,-1.718382 0.02943,-0.23614 0.0388,-0.453985 0.133593,-0.720616 0.109758,-0.308198 0.22838,-0.334254 0.303213,-0.665182 0.07211,-0.316511 0.207312,-0.973378 0.307641,-1.330361 0.143022,-0.509415 0.58591,-1.735011 1.29766,-1.499425 0.80985,0.268286 0.85586,1.436789 0.58481,2.109175 -0.14303,0.353656 -0.40965,0.573167 -0.34035,0.942342 0.14578,0.78103 0.90187,1.417389 1.05209,2.272701 0.13027,0.745001 -0.36585,1.247214 -0.95676,1.589228 -0.12028,0.06985 -0.17072,0.145788 -0.29877,0.200107 -0.22007,0.09368 -0.50942,0.12306 -0.76164,0.143016 -0.328696,0.02604 -0.528249,-0.04102 -0.831472,-0.04767 M 95.03639,57.41139 c 0.07202,0.664072 -0.297664,1.359188 -0.729477,1.813172 -0.264409,0.278271 -0.703433,0.517738 -1.090353,0.559863 -0.295446,0.0327 -0.49666,-0.02162 -0.77604,-0.175165 -0.780485,-0.428485 -0.993338,-1.281581 -0.993338,-2.087003 0,-0.634695 0.164628,-1.340897 0.563734,-1.829249 0.190142,-0.232815 0.365852,-0.557088 0.656323,-0.686246 0.485578,-0.216736 0.55875,0.551548 0.771047,0.547666 0.63969,0.501658 1.497218,0.929589 1.598104,1.856962 z m 3.667939,-1.77381 c 0.04215,0.390795 0.139689,0.342018 0.163532,0.665181 0.01273,0.177936 0.0027,0.394677 0.0027,0.55432 0,0.524385 -0.100806,0.764389 0.142554,1.108623 m 6.952705,-1.185118 c 0.74555,-0.183481 0.32039,0.768285 0.67183,1.104199 0.35144,0.334808 0.78048,0.659085 1.02161,1.02327 0.097,0.146342 0.16518,0.2184 0.17793,0.388023 0.0188,0.243901 -0.0892,0.670169 -0.19068,0.886909 -0.097,0.206758 -0.20122,0.384696 -0.35588,0.554318 -0.28269,0.308756 -0.68347,0.547111 -1.10309,0.636356 -0.62028,0.132481 -1.36141,-0.03548 -1.71118,-0.580926 -0.55931,-0.872495 -0.28935,-2.17348 0.29711,-2.993318 0.29546,-0.413518 0.67683,-0.891892 1.19235,-1.018831 m 3.38133,0.0765 c 0.20288,0.783251 0.20566,1.627474 0.49889,2.106406 l 0.37027,-0.283257 0.37583,-0.490569 0.52882,-0.501104 m 8.69666,-0.644513 c 0.1724,0.0643 0.37639,0.135252 0.60975,0.148557 0.19624,0.0111 0.37694,0.01607 0.55432,0.05432 0.63027,0.135806 1.1807,0.476158 1.71839,0.628598 m 1.39192,-0.852143 c -0.0244,0.570392 -0.11918,1.216171 -0.29822,1.773814 -0.14744,0.460085 -0.24002,0.873051 -0.40022,1.330363 -0.17517,0.499995 -0.3082,0.881364 -0.57649,1.274932 m -2.77158,-3.99109 c -0.2611,0.34257 -1.31429,1.151874 -1.19955,1.713396 0.0476,0.23337 0.33925,0.38248 0.53436,0.491127 0.54766,0.304321 1.54877,0.706755 1.82537,1.292668 0.13526,0.286031 -0.21507,0.465074 -0.43958,0.553211 -0.12583,0.04989 -0.25443,0.07871 -0.38801,0.102548 -0.24835,0.04379 -0.52882,0.05986 -0.77605,0.05986 -0.37306,0 -0.54157,-0.0049 -0.94234,-0.110863 m -2.38354,0.388053 c 0.0937,-0.453986 0.33813,-1.258302 0.53047,-1.829249 0.12363,-0.366403 0.18626,-0.71008 0.32041,-1.053202 0.3,-0.45996 0.53521,-2.142597 0.92294,-1.108636 m -8.20393,1.053173 c -0.006,0.52882 -0.99499,1.383612 -1.33034,2.161875 m 1.17815,-1.735286 c 0.18403,0.270506 0.28467,0.583416 0.31848,1.014673 M 89.194324,64.34041 c -0.128042,0.498885 -0.154651,0.717283 -0.05541,1.0532 m 1.693988,3.547634 c 0.09424,-0.364748 0.108653,-0.559304 0.212862,-0.886908 0.326544,-1.02715 0.389182,-2.214502 -0.05594,-3.215041 -0.160749,-0.361418 -0.457308,-0.932915 -0.877482,-0.860856 -0.570204,0.183805 -0.89848,0.95823 -0.973428,1.415171 -0.131374,0.833139 -0.324282,1.812067 -0.634145,2.660726 m 15.687191,-2.49443 c 0.38801,0.672385 0.2306,1.564283 0.55431,2.161833 0.38082,-0.180702 1.16684,-0.603646 1.82925,-0.609742 m 4.65627,-1.053205 c 0.0733,0.126383 0.16685,0.264961 0.28215,0.367512 0.3071,0.271056 0.54378,0.489465 0.75609,0.907414 0.15299,0.301548 0.23393,0.620844 0.35032,0.942341 0.31929,0.882472 0.18238,1.871377 0.49612,2.383566 0.0898,-0.07093 0.17239,-0.129704 0.25443,-0.278265 0.16297,-0.296013 0.25278,-1.160189 0.30709,-1.550982 0.0366,-0.26219 0.0383,-0.389132 0.0505,-0.665175 0.0283,-0.644676 -0.002,-1.157415 -0.002,-1.829251 m 8.09302,-0.221731 c 0.10146,0.358091 0.22395,0.642456 0.22062,0.942343 -0.002,0.165188 -0.0287,0.275493 -0.0449,0.443453 -0.0815,0.850872 -0.21286,1.839777 -0.29046,2.660722 -0.0388,0.406318 -0.17738,0.814848 -0.21785,1.219504 m -9.97319,-4.953939 c 0.006,0.336472 0.0904,1.194569 0.18409,1.794342 0.0515,0.330375 0.0909,0.752208 0.0854,1.053206 -0.006,0.307643 -0.0581,0.547113 -0.0498,0.886907 0.0105,0.431812 -0.0688,0.80598 -0.2245,1.219505 M 93.612522,67.649705 c -0.162411,0.2306 -0.67793,0.428489 -0.950098,0.472281 -0.223387,0.03604 -0.667395,0.0083 -0.766063,-0.140795 -0.221178,-0.334259 0.147997,-0.837019 0.434022,-1.036019 0.191246,-0.131926 0.339243,-0.171845 0.553767,-0.155208 0.381926,0.02824 0.442346,0.100834 0.634874,0.313163 0.192528,0.212329 0.235211,0.344805 0.0935,0.546578 z m 21.832358,-0.759437 c 0.27328,0.22006 0.53658,0.81596 0.70621,1.164062 0.0958,0.197338 0.2062,0.476715 0.28657,0.665186 0.0759,0.177379 0.15743,0.291017 0.22672,0.38802 l 0.31097,-0.333699 0.63137,-1.052095 m 6.26379,-0.831474 c -0.31374,0.662413 -1.11583,1.816495 0,2.110836 0.27383,0.07207 0.67904,0.03718 0.94234,0.05317 0.10698,0.0072 0.25609,0.02389 0.33092,0.132487 0.072,0.10477 0.0582,0.184586 0.0521,0.308755 -0.0249,0.488906 -0.13082,1.034358 -0.21673,1.496659 m 7.59414,-4.046525 c 0.21121,0 0.36032,-0.01381 0.55432,0.05379 0.38081,0.131926 1.39079,0.623606 1.51772,0.999985 0.0825,0.247237 -0.0909,0.431812 -0.25221,0.584809 -0.44902,0.345397 -0.73561,0.516483 -0.15701,0.717323 0.56139,0.38916 1.61793,0.792705 1.25429,1.63527 -0.37306,0.864186 -1.29821,1.274378 -1.97504,1.662948 m -7.31672,-0.942406 c 0.7633,0.174617 1.58314,-0.08089 2.21506,-0.609752 0.30653,-0.257207 0.49722,-0.643555 0.40631,-0.997763 -0.12028,-0.470069 -0.52493,-0.808753 -0.90299,-1.101993 -0.18014,-0.139683 -0.50442,-0.31429 -0.52826,-0.561516 -0.0382,-0.38747 0.71507,-0.871392 0.97173,-1.07815 0.15188,-0.121946 0.29211,-0.297114 0.49889,-0.226166 0.41296,0.142466 0.8043,0.567622 1.16405,0.80598 m -4.21311,-0.498876 c -0.26607,0.252761 -0.37694,0.808191 -0.43847,1.164061 -0.0332,0.193455 -0.17872,0.477256 -0.22811,0.633565 m -25.12809,-1.111784 c 0.0185,-0.211795 -0.758202,-0.865172 -1.146827,-0.349895 -0.168491,0.241131 -0.402438,1.050985 -0.253328,1.437904 0.272725,0.706718 0.986136,0.168474 1.308191,-0.07653 0.620704,-0.502844 0.453234,-0.857188 0.665184,0.131926 m -4.157386,-1.552056 c 0.730042,0.190683 0.745003,0.975041 0.286034,1.549871 -0.136367,0.170172 -0.26996,0.284922 -0.452324,0.384147 -0.13969,0.07654 -0.243907,0.109754 -0.388025,0.137461 -0.493337,0.09315 -0.574825,-0.329255 -0.901325,-0.41906 -0.142456,-0.03884 -0.221169,0.03987 -0.373602,0.04933 -0.131931,0.0083 -0.258321,-0.01609 -0.388024,-0.07488 -0.296012,-0.134148 -0.436806,-0.380814 -0.442347,-0.684584 -0.0035,-0.226156 0.05267,-0.40853 0.165185,-0.609742 m 10.809174,-0.277123 c 0,0.430151 -0.19953,0.659597 0.0277,1.025998 0.10312,0.165748 0.2611,0.213413 0.41575,0.338693 0.51662,0.417399 1.05597,0.757193 1.5521,1.018833 M 101.7529,67.888 c -0.0682,0.192344 -0.18127,0.429591 -0.21285,0.665176 -0.0227,0.167961 -0.0543,0.402995 -0.0704,0.554319 -0.0398,0.607484 0.0453,0.503041 0.35426,0.160276 0.28492,-0.349774 0.61362,-1.011626 1.14855,-1.063736 0.22838,-0.02212 0.46008,0.10422 0.60975,0.182925 m 27.93757,-0.49896 -0.29324,1.164062 -0.40687,1.718381 -0.18681,0.776052 M 91.896361,67.981191 c 0.07812,0.373607 0.344537,0.813197 0.654953,1.126386 m 2.870265,-0.462301 c 0.117517,0.177929 -0.320985,0.527684 -0.445705,0.673464 m 9.798116,-0.570999 -0.17125,0.692424 -0.18902,0.665185 m 3.88023,-0.886906 -0.0555,-0.277165 c 0.37858,0.413525 0.0848,2.029358 0.0555,2.716164 m 8.37019,-2.549866 c -0.0166,0.564849 -0.53768,1.42349 -0.88691,2.161835 m -2.66087,-0.609732 v 0.277155"
       id="path20841"
       sodipodi:nodetypes="ccccccccccccccccccccccccccccccccccccccccccccccccccccccccccccccccccsccccccccccccccccccccccccccccccccccccscccccccccccccccccsccccccccccsscccccccscccccccccccccccccccccccccscccccccccccccccccccccccccccccccccccccccccccccccccccccccccccccccccscccccccccccccccccccccsccccccscccccccccscccccccccccccccccccccscccccccccccccccccccccccccccsccccccscscccccccccscccccccccccccccccsscccccccccccccccsccccccccsccccccccccccccccssccccsccccccccccccccccccccccccsccccccccccccccccccccccccccccccccsccccccccccccccccccccccccccccccccccccccccccccccsccccccccccccccccccccccccccccccccccccccccccccccccccccccccccccccccccccccccccccc" /><path
       style="fill:none;stroke:#010101;stroke-width:0.0504415"
       d="m 2.5917465,10.42717 c -0.119062,-0.05953 -0.258276,-0.149726 -0.344682,-0.252208 -0.02201,-0.0261 -0.07168,-0.07714 -0.05885,-0.2017653 0.07573,-0.214995 0.446035,-0.198336 0.655739,-0.201767 0.204651,0 0.426558,0.08599 0.605298,0.100883 0.136313,0.01136 0.222634,0.04058 0.353091,0.08407 0.290845,0.09695 0.725803,0.08438 0.941591,0.2774283 0.219673,0.196585 0.202976,0.237957 0.159698,0.445564 -0.01362,0.0655 -0.03224,0.107819 -0.05881,0.151324 -0.06058,0.09914 -0.302043,0.367967 -0.378312,0.453974 -0.07223,0.08144 -0.07157,0.09083 -0.159747,0.168137 -0.131805,0.115572 -0.377303,0.311814 -0.32787,0.437161 0.04106,0.104131 0.07042,0.123476 0.226987,0.201766 0.302144,0.151073 0.61019,0.220884 0.907946,0.361515 0.181035,0.0855 0.319951,0.154048 0.504415,0.302648 0.08666,0.06981 0.17589,0.14159 0.226987,0.243784 0.07849,0.156924 0.08429,0.233695 -0.03365,0.403532 -0.17256,0.248526 -0.605247,0.517025 -0.899523,0.664163 -0.224163,0.112081 -0.431225,0.248021 -0.65574,0.344668 -0.319546,0.137603 -0.679578,0.289786 -1.00883,0.344666 -0.296026,0.04928 -0.35207,-0.164216 -0.193357,-0.32787 0.0062,-0.0063 0.275062,-0.167263 0.344682,-0.218563 M 33.663713,10.074077 c 0.866029,2.420727 0.153054,3.894045 0.605315,5.548565 M 20.296723,15.370437 20.10338,15.067788 19.943632,14.866022 c -1.019319,-1.320432 -2.298962,-0.491139 -0.807064,-1.580484 0.225574,-0.181337 0.691149,-0.654629 0.857506,-0.941592 0.05917,-0.102093 0.06744,-0.195107 0.109306,-0.302648 0.05266,-0.135481 0.06774,-0.154473 0.08404,-0.252208 0.0095,-0.05724 0.01902,-0.49637 0.0084,-0.605298 -0.02078,-0.213836 -0.035,-0.209201 -0.142901,-0.353091 -0.09912,-0.132121 -0.342548,-0.492556 -0.512838,-0.588485 -0.435159,-0.2451613 -0.814076,0.08721 -0.992034,0.487602 -0.07773,0.174917 -0.155814,0.393596 -0.168121,0.504415 -0.03773,0.339421 -0.196319,0.228435 -0.226987,0.504415 -0.02805,0.252334 0.07788,0.494126 0.109307,0.65574 0.02875,0.148096 0.02568,0.335184 0.05044,0.453974 0.02684,0.128978 0.06471,0.270719 0.06724,0.453973 0.05733,0.791783 0.17626,1.00529 0.03364,1.765453 -0.05332,0.273998 -0.03365,0.258613 -0.03365,0.605298 m -6.406043,-1.109713 c -0.122373,-0.580824 0.05044,-1.136551 0.05044,-1.715011 -0.168374,0 -0.379875,0.05357 -0.605298,0.05044 -0.26517,-0.0037 -0.44908,-0.05473 -0.605298,-0.201766 -0.187239,-0.176243 -0.198992,-0.30391 -0.201766,-0.504415 -0.0024,-0.1776 0.07556,-0.523916 0.100884,-0.706181 0.02921,-0.21018 0.225523,-0.87295 0.319446,-1.00883 0.101589,-0.146921 0.167112,-0.131562 0.23541,-0.151325 m -3.3291495,0.252208 c 0.734419,0.08753 1.341735,0.173484 2.0681005,0.302649 h 0.100883 m 25.069428,2.269868 c 0.31554,0.08568 0.634542,0.0901 0.958391,0.100882 V 12.84836 c -0.003,-0.732198 -0.555124,-2.124218 -0.201766,-2.269867 M 6.6270615,14.210281 c 0.04591,0.218058 0.1599,0.312838 0.353091,0.353091 0.186479,0.05851 0.324359,0.05459 0.504415,0.01679 0.184162,-0.03834 0.337,-0.0862 0.504415,-0.151324 0.170997,-0.06648 0.229156,-0.05543 0.403532,-0.176545 0.195612,-0.13584 0.369787,-0.265171 0.504415,-0.495992 0.08802,-0.15087 0.136647,-0.27763 0.151325,-0.453973 0.01725,-0.20681 -0.04147,-0.344112 -0.302649,-0.605298 -0.125801,-0.125801 -0.158942,-0.136293 -0.302649,-0.21019 -0.105675,-0.05427 -0.241716,-0.130139 -0.353091,-0.176545 -0.248979,-0.103708 -0.438387,-0.192535 -0.706181,-0.218563 -0.132964,-0.01293 -0.498867,0.02411 -0.605298,-0.0084 -0.123279,-0.03766 -0.216192,-0.101846 -0.243784,-0.243799 -0.05377,-0.276409 0.246609,-0.53528 0.30265,-0.588485 0.174326,-0.165614 0.306835,-0.278306 0.596873,-0.369903 m 34.3034175,5.322519 c -0.161312,-0.07844 -0.338981,-0.253804 -0.558048,-0.387677 -0.908917,-0.458819 -1.756191,-1.417691 -0.807066,-2.009236 0.270368,-0.232838 0.568528,-0.612309 0.790268,-0.907946 0.07056,-0.09412 0.118737,-0.190922 0.151323,-0.30265 0.03844,-0.131803 0.05645,-0.191778 0.06724,-0.302649 0.0089,-0.0916 0,-0.156016 0,-0.252207 0,-0.267749 -0.186178,-0.67235 -0.453972,-0.832285 -0.482371,-0.288081 -0.951527,0.347764 -1.143357,0.731402 -0.09539,0.19077 -0.18053,0.130103 -0.226989,0.35309 -0.01191,0.05715 0.0454,0.167516 0.05044,0.201766 0.02447,0.164843 0.03869,0.38835 0.07566,0.554857 0.02089,0.09382 0.04015,0.121967 0.06729,0.252207 0.154103,0.780841 0.170137,1.571719 0.218562,2.370751 m -27.541051,-4.337969 -0.151324,0.35309 -0.100883,0.554857 -0.151324,0.605298 m 3.984871,-0.655731 c -0.145675,0.08817 -0.514503,0.144767 -0.807064,0.319446 -0.557424,0.275428 -0.982193,0.741681 -1.277834,1.193799 -0.182498,0.273746 -0.336244,0.475461 -0.4456,0.756623 -0.04812,0.123733 -0.156621,0.532208 -0.142901,0.655739 0.009,0.08116 0.01175,0.167063 0.109306,0.226987 0.207516,0.127415 0.552991,-0.146482 0.714555,-0.32787 0.236621,-0.265675 0.40333,-0.410039 0.504415,-0.756623 0.03021,-0.103606 0.03486,-0.214981 0.03365,-0.302648 -0.0011,-0.0852 0.0061,-0.133973 -0.02522,-0.201767 -0.407142,-0.800577 -0.7345,-0.654533 -1.387141,-0.815487 -0.08736,-0.02305 -0.168879,-0.05957 -0.243784,-0.151325 -0.07859,-0.09619 -0.06169,-0.186885 0.0084,-0.294225 0.06149,-0.09417 0.104616,-0.121412 0.184969,-0.201766 0.321968,-0.321973 0.974731,-0.754327 1.261038,-0.807064 M 43.348514,11.7891 c 0.07561,0.09578 0.14416,0.224082 0.151323,0.353091 0.0052,0.09574 0.0134,0.148147 0.03365,0.252207 0.0219,0.112737 0.01205,0.139017 0.01682,0.252208 0.0059,0.14164 0.04828,0.651906 0.05044,0.807064 0.004,0.287113 0,0.506533 0,0.857505 0,0.125297 -0.04358,0.484188 -0.05044,0.554857 -0.336918,0.625988 -1.360491,1.479658 -1.403946,0.554855 0.02648,-0.15889 0.09029,-0.24106 0.243782,-0.353091 m -3.127364,-2.976047 0.201768,0.151324 m -3.32915,1.00883 c 0.210441,-0.127365 0.365701,-0.19314 0.907948,-0.05044 m -12.257297,1.66457 c -0.137459,-0.123887 -0.319048,-0.261844 -0.554861,-0.36989 -0.206055,-0.09448 -0.34734,-0.189761 -0.554857,-0.319496 -0.177459,-0.107236 -0.348035,-0.09417 -0.470771,0.03365 -0.250221,0.233599 -0.26288,0.691439 -0.176544,0.907947 0.111021,0.24227 0.61014,0.512839 0.899524,0.605298 0.130893,0.04181 0.190264,0.04888 0.302648,0.05044 0.663667,-0.01844 0.973189,-0.511899 0.554856,-0.907946 z m 0.453974,0.849081 c 0.477137,-0.03344 1.030444,-0.282324 1.008831,-0.748198 -0.0055,-0.130442 -0.01457,-0.140026 -0.05044,-0.252208 -0.02805,-0.08772 -0.05186,-0.167617 -0.109307,-0.252207 -0.04681,-0.0689 -0.09503,-0.09745 -0.1429,-0.134527 -0.146482,-0.113494 -0.326661,-0.179724 -0.504417,-0.32787 -0.154652,-0.128879 -0.213669,-0.139219 -0.243782,-0.294226 -0.03269,-0.16802 0.122774,-0.250038 0.243782,-0.285852 0.219471,-0.06491 0.336547,-0.07566 0.65574,-0.06724 m 10.037862,-0.100884 c -0.03213,0.08146 -0.0038,0.186684 0,0.453974 0.01673,0.55799 -0.04848,1.166761 -0.05044,1.66457 M 27.31131,14.850072 c 0.214208,-0.09211 0.521625,-0.06985 0.652547,-0.152163 0.144567,-0.09438 0.475715,-0.454074 0.336293,-0.638942 -0.05513,-0.07309 -0.12469,-0.09629 -0.235411,-0.100883 -0.141739,-0.0059 -0.141082,0.01064 -0.302648,0.04202 -0.143353,0.02789 -0.308502,0.06769 -0.403531,0.159749 -0.391878,0.428732 -0.446541,1.045498 0.100882,1.563686 0.349407,0.314957 0.615134,0.403532 1.059273,0.403532 m 2.522073,-2.118543 c 0.102297,0.242977 0.07158,0.286962 0.05044,0.504415 -0.0349,0.358841 -0.442974,1.038086 -0.66416,1.294682 -0.131351,0.152333 -0.168626,0.241767 -0.395108,0.285801 -0.06457,0.01256 -0.130796,0.0513 -0.201768,0.0084 -0.196066,-0.118387 -0.312584,-0.350771 -0.369888,-0.580078 -0.109859,-0.439396 -0.17589,-0.888426 0.06724,-1.160154 m 2.279599,0.785977 c 0.286401,-0.0049 0.366501,0.05966 0.637585,-0.239544 0.107797,-0.10164 0.102098,-0.195461 0.09251,-0.294226 -0.365873,-0.333513 -1.421169,0.919672 -0.689383,1.3367 0.218269,0.115339 0.398042,0.119121 0.605296,0.159748 0.189964,0.03693 0.174175,0.0086 0.403534,-0.03365 M 22.516141,14.151417 c -0.117429,-0.06214 -0.199951,-0.06452 -0.35309,-0.11768 -0.140329,-0.04873 -0.216999,-0.02522 -0.353092,-0.02522 -0.240152,0 -0.270719,-0.02896 -0.453973,0.100883 -0.110417,0.07823 -0.231527,0.133568 -0.294226,0.201765 -0.07127,0.07753 -0.152182,0.368476 -0.159748,0.504415 -0.0093,0.168021 0.06986,0.500179 0.159748,0.605299 0.07491,0.08762 0.230316,0.15319 0.344667,0.184969 0.166608,0.04625 0.456748,-0.03828 0.605299,-0.142952 0.131753,-0.09276 0.386079,-0.297251 0.470769,-0.395108 0.357592,-0.254518 0.482771,-0.620957 0.03365,-0.916371 z M 43.6007,14.311165 c 0.02128,0.746425 0.32438,1.273648 0.453967,1.866335 M 1.5732875,17.494468 c 1.292516,0.152587 2.20185,0.594649 3.32914,0.605298 m -1.200968,-0.0293 c 0.240051,0.294276 0.589207,0.850292 0.739826,1.160154 0.16338,0.336092 0.258311,0.612865 0.378311,0.958389 0.03602,0.103809 0.07264,0.142548 0.09246,0.252207 0.06651,0.502333 0.08783,0.649239 -0.05044,1.00883 -0.126732,0.460459 -0.475939,0.463943 -0.807064,0.580078 -0.109306,0.0395 -0.648274,0.09634 -0.807064,0.05887 -0.308611,-0.07289 -0.62888,-0.282271 -0.344682,-0.512839 0.02386,-0.01937 0.224313,-0.07016 0.29424,-0.07566 m 5.195475,-1.261038 c -0.09866,0.01039 -0.383204,-0.126003 -0.56328,0.201766 -0.07001,0.127466 -0.09312,0.209686 -0.142901,0.35309 -0.408125,0.828205 -0.190894,1.259395 0.756623,1.66457 l 0.35309,0.03365 0.504416,-0.142951 m 0.453972,-4.026897 c 0.143811,1.338848 -0.338767,3.140032 -0.05044,4.237088 m 1.6948025,-2.725992 -0.605297,0.294225 -0.8070645,0.487618 c -0.886996,0.406614 0.1262405,1.238883 0.6052985,1.689791 0.281514,0.254124 0.617101,0.353091 0.756622,0.353091 m 15.556189,-0.552708 c -0.162066,0.08101 -0.356974,0.130946 -0.706179,0.252207 -0.134023,0.04656 -0.625827,0.142397 -0.706182,0.151325 -0.115307,0.01281 -0.164994,0.01372 -0.252207,0.05044 -0.05094,-0.120959 -0.05044,-0.174628 -0.05044,-0.35309 v -0.403548 c 0,-0.235057 0.01075,-0.804037 0.04202,-1.008829 0.01464,-0.09564 0.0084,-0.185726 0.0084,-0.30265 0,-0.255485 -0.07248,-0.505222 0.100886,-0.647315 0.115458,-0.09468 0.203127,-0.06295 0.252206,-0.05887 0.118739,0.0099 0.389409,0.09518 0.605298,0.100882 m -2.118542,-0.04202 c 0.270011,0 0.664111,-0.05044 0.958388,-0.05044 0.170391,0 0.227289,0.01871 0.30265,0.05044 m 3.833552,0.04202 c 0.227205,0.507866 -0.240377,1.27897 0.05886,1.597331 0.184515,0.174074 0.301589,0.136596 0.49599,0.117681 0.352739,-0.02645 0.581426,-0.184658 0.958388,-0.201767 0.148953,-0.0041 0.170745,0.03461 0.294227,-0.06724 0.212414,-0.303604 0.100633,-0.743761 0.151323,-1.092916 0.0159,-0.10401 0.0084,-0.176041 0.0084,-0.252208 m 6.960929,0.252208 c 0.349509,0 0.703556,-0.008 1.008827,-0.05887 0.193445,-0.03223 0.391731,-0.101337 0.605299,-0.09246 0.133873,0.0056 0.253517,0.01417 0.294224,0.151324 0.03359,0.11304 -0.01187,0.209938 -0.06723,0.30265 -0.05514,0.09226 -0.409083,0.375183 -0.437179,0.504415 -0.06618,0.304565 0.611099,0.751426 0.689385,0.907946 0.206457,0.412914 -0.210997,1.058313 -0.580077,1.261038 -0.146282,0.08035 -0.280404,0.05044 -0.453976,0.05044 M 33.714133,20.84473 c 0.145927,-0.198084 0.136746,-0.270114 0.353088,-0.420329 0.241817,-0.16797 0.394402,-0.182043 0.605299,-0.184969 0.173266,-0.0024 0.287265,-0.08131 0.445551,0.100883 0.102295,0.11773 0.08913,0.181741 0.07566,0.302649 -0.04791,0.431275 -0.518335,1.210394 -0.697756,1.614128 -0.06053,0.136243 -0.116822,0.356773 -0.01682,0.428753 0.07132,0.05135 0.105473,0.02522 0.243782,0.02522 0.210142,0 0.591226,-0.0049 0.807066,-0.05887 0.09992,-0.02497 0.208729,-0.0288 0.302647,-0.05881 m 0.857508,-1.57211 c 0.07491,-0.04056 0.163179,-0.05418 0.252205,-0.05044 0.294478,0.01226 1.022298,0.159597 1.202172,0.378312 0.456597,0.555008 -0.338207,1.280306 -0.798637,1.555262 -0.106583,0.06366 -0.140683,0.0852 -0.252208,0.117731 -0.100834,0.02941 -0.326306,0.06421 -0.453974,0.02522 -0.968711,-0.245288 -0.330355,-1.791212 0.05044,-2.026084 z M 20.451756,20.619622 c -0.609893,3.690128 -0.05658,-0.55711 0.500689,-0.304511 0.546764,0.486233 -0.176967,1.992381 0.252206,1.681365 0.464156,-0.342098 0.48888,-0.912378 0.622094,-1.454379 0.07254,-0.289988 0.269762,-0.655184 0.395161,-0.857505 0.04933,-0.0796 0.164792,-0.299976 0.344665,-0.226987 0.157933,0.06411 0.230013,0.228803 0.252209,0.428752 0.05468,0.492057 -0.02461,1.242577 0.06724,1.715012 0.112313,0.472049 0.120821,0.882936 0.386734,1.311478 M 12.175632,22.660641 c -0.118714,0.664427 0.789713,0.06149 0.756621,-0.453974 -0.01634,-0.147239 -0.09695,-0.284389 -0.168121,-0.403532 -0.14845,-0.248525 -0.236015,-0.324944 -0.538059,-0.571653 -0.112132,-0.0916 -0.279144,-0.225272 -0.218564,-0.386735 0.06104,-0.162825 0.288576,-0.15314 0.420329,-0.151325 0.158538,0.0022 0.118689,-0.0028 0.30265,0.05044 m 19.672186,0.201765 c -0.09811,0.0026 -0.196017,-0.0456 -0.403532,0.109307 -0.211048,0.157529 -0.33181,0.354654 -0.353092,0.546433 -0.0089,0.0805 -0.01357,0.175688 0.02522,0.252208 1.519166,0.768218 0.585282,-2.467 1.571012,1.129386 M 7.4288285,22.225194 c -1.403227,-0.735313 -0.413716,-0.851498 -1.306178,-0.279159 -0.328476,0.06386 -0.539422,-0.01579 -0.697758,-0.243783 -0.259506,-0.391968 1.042463,-1.215926 0.986899,-0.257294 m 9.2841415,0.42216 c -0.05495,1.934278 -0.118176,0.305591 0.565461,-0.17329 0.210189,-0.135788 0.449686,0.02043 0.546432,0.260631 0.146482,0.363633 0.159749,0.897203 0.159749,1.210597 m 14.014301,-1.832692 c 0,0.258412 -0.01559,0.398135 -0.05044,0.756622 -0.0079,0.08146 0,0.15415 0,0.252208 0,0.08847 0.0095,0.105019 -0.0084,0.201766 -0.0282,0.152283 -0.02089,0.294831 0.0084,0.453974 M 14.041967,21.475266 c 0.121666,-0.06739 0.2684,-0.02955 0.353091,-0.0084 0.127516,0.03188 0.249787,0.124944 0.344667,0.235411 0.09579,0.111425 0.205196,0.205801 0.252208,0.35309 0.09473,0.296495 0.108701,0.52091 -0.243784,0.731402 -0.0574,0.0343 -0.158488,0.06653 -0.252208,0.07566 -0.08873,0.0086 -0.102749,0 -0.201766,0 -0.201261,0 -0.451754,-0.03062 -0.605298,-0.201767 -0.287315,-0.320253 -0.03092,-0.745525 0.193343,-1.00883 0.08313,-0.0976 0.08015,-0.132459 0.159747,-0.176545 m 4.489294,0.277427 c 0.108752,0.344314 0.221036,0.667694 0.05044,1.00883 -0.115209,0.230417 -0.379875,0.644744 -0.554857,0.807065 -0.176646,0.163833 -0.253115,0.151324 -0.504415,0.151324 m 7.71755,-1.160154 -0.35309,0.159747 -0.504416,0.193342 -0.35309,0.100884 m 1.210596,-0.453973 v 0.151324"
       id="path124964"
       sodipodi:nodetypes="ccccccccccccccsccsccccccccccccccccccccccccccscccccccccccccccccccscccccccccccscsscccccccccccccccccscccccsccccccsccccccccccccscccccccccccccccccccccccccsccccccccccccsssccccccccccccccccccccccccccccccccscccscsscscsccccccccccccccccccccccccccccccccccccccccccccccccccsccccccccccccccccssccccccccsccccccccccccc" /></g></svg>
