<?xml version="1.0" encoding="UTF-8" standalone="no"?>
<!-- Created with Inkscape (http://www.inkscape.org/) -->

<svg
   width="210mm"
   height="297mm"
   viewBox="0 0 210 297"
   version="1.1"
   id="svg107803"
   inkscape:version="1.2 (dc2aedaf03, 2022-05-15)"
   sodipodi:docname="Casey - Pulsz - Envelope 62.svg"
   xml:space="preserve"
   xmlns:inkscape="http://www.inkscape.org/namespaces/inkscape"
   xmlns:sodipodi="http://sodipodi.sourceforge.net/DTD/sodipodi-0.dtd"
   xmlns="http://www.w3.org/2000/svg"
   xmlns:svg="http://www.w3.org/2000/svg"><sodipodi:namedview
     id="namedview107805"
     pagecolor="#ffffff"
     bordercolor="#666666"
     borderopacity="1.0"
     inkscape:pageshadow="2"
     inkscape:pageopacity="0.0"
     inkscape:pagecheckerboard="0"
     inkscape:document-units="mm"
     showgrid="false"
     inkscape:zoom="2.8284271"
     inkscape:cx="248.90159"
     inkscape:cy="100.23239"
     inkscape:window-width="1920"
     inkscape:window-height="991"
     inkscape:window-x="-9"
     inkscape:window-y="-9"
     inkscape:window-maximized="1"
     inkscape:current-layer="layer1"
     inkscape:showpageshadow="2"
     inkscape:deskcolor="#d1d1d1" /><defs
     id="defs107800"><pattern
       id="EMFhbasepattern"
       patternUnits="userSpaceOnUse"
       width="6"
       height="6"
       x="0"
       y="0" /></defs><g
     inkscape:label="Layer 1"
     inkscape:groupmode="layer"
     id="layer1"><path
       style="fill:none;stroke:#18181d;stroke-width:0.059936"
       d="M 3.5792833,1.3606783 C 3.046177,1.3050249 2.5556944,1.5591329 2.3411842,1.8404426 2.1671296,2.0721853 2.2932946,2.5149193 2.8064974,2.8142141 3.3197004,3.1135089 4.3061883,3.7474536 4.2842517,4.4174181 4.2552424,5.3018951 2.8504008,5.6132035 2.2007537,5.3763954 M 20.481257,1.9600394 c 0.289665,1.0235775 0.423986,1.5897717 0.47949,2.3974422 0.01577,0.2782842 0.02152,0.637001 0.0089,0.8391062 -0.01222,0.195451 -0.01139,0.2699513 -0.0029,0.4195529 0.01018,0.1769903 0.03038,0.5664543 0.05394,0.7791673 m 9.829574,-4.1355844 c -1.172126,0.382056 -1.898726,2.2196759 -1.512251,3.2364989 0.369205,0.7789899 1.441402,0.8509129 2.051673,0.8991015 M 17.064899,2.6193359 c -0.109141,0.4012125 0.02473,1.2303391 0.119874,1.618279 m 4.854844,-1.1387856 c -0.297762,0.1569127 -0.784766,0.4861486 -1.198743,0.7791758 -0.172197,0.089604 -0.525699,0.1052474 -0.502085,0.5993008 0.01595,0.334743 0.518272,0.6842864 0.741829,0.7792218 l 1.318593,0.479488 m 12.602933,-2.2148522 0.08986,0.3296057 M 11.850462,6.6350578 c 0.168231,-0.5891048 -0.01515,-1.408062 0.417814,-2.0977562 0.09446,-0.2965039 0.211214,-1.0581112 0.660436,-0.9538222 0.31874,0.074083 0.59157,0.6091901 0.634124,0.9538222 -0.04154,0.7067645 -0.570131,1.3305497 -1.39103,1.2367251 m 2.915201,-2.1957022 c -1.31909,0.7149438 0.108164,1.0158301 0.549796,1.5646198 0.109803,0.2119945 -0.06695,0.4080457 -0.205939,0.5208443 -0.279243,0.2266191 -0.634065,0.3557808 -1.00315,0.3719036 m 2.757059,-1.7980773 c 0.280379,-0.1672973 0.491628,-0.035035 0.730653,-0.023128 M 5.1376215,4.1177418 C 5.0294968,4.4836519 5.0603638,4.8011336 5.380003,5.0577194 5.5299629,5.178071 5.7379416,5.233512 5.915652,5.1858035 6.1808095,5.1146587 6.2230041,4.9018856 6.2764067,4.6571674 M 16.405603,4.1177418 c 0.373103,0.202884 0.477152,0.3300086 0.77917,0.1198731 m 8.194038,-0.097837 c -1.371303,0.4283779 -0.517955,0.6691988 -0.0079,1.2394364 0.453376,0.7539641 0.05672,1.1055722 -0.514312,1.3157804 M 9.5728913,5.0167793 C 8.064832,4.8079383 8.0567561,3.5913867 9.17031,3.9873152 9.4434142,4.0761023 9.3497572,4.1861764 9.2964723,4.287819 9.120675,4.3721157 8.880946,4.4642905 8.7774323,4.5016015 m 2.2152397,0.121181 C 10.7687,4.933323 10.599254,5.0279467 10.232189,4.8969073 10.184649,4.3583882 10.512578,4.2481886 10.84097,4.3144911 c 0.273868,0.064657 0.294702,0.098065 0.151702,0.3082914 z M 39.600865,7.2943501 C 39.920623,6.9754301 40.507214,6.6179706 40.419231,6.0956279 40.378895,5.8563035 40.190635,5.6706824 40.01808,5.4986651 39.812557,5.2938642 39.271814,5.1006896 39.248261,4.7770353 39.210867,4.2629033 40.00663,4.2398278 40.260157,4.4773547 M 17.184773,4.2376149 c 0.290751,0.4405304 0.299681,1.2404373 0.299681,1.6782104 M 23.29825,5.3765159 C 23.02464,5.3802359 22.820799,5.50406 22.683484,5.1891556 22.986793,3.6671923 24.776167,5.329936 23.29825,5.3765159 Z M 18.962074,4.7953105 c -0.125741,1.751e-4 -0.373321,0.00855 -0.436094,0.1194311 -0.6196,1.0943933 0.541536,0.4710044 0.756564,0.1020441 l 0.659295,1.0189127 m -9.70965,-1.1387911 c 0.111204,0.2339641 0.299197,0.2971098 0.659287,0.4195524 m 21.097511,0.2397445 c 0.02775,0.3002199 0.126104,0.4420282 0.359915,0.5898909 0.138332,0.087505 0.231412,0.1562552 0.419253,0.180407 0.293565,0.037704 0.934761,-0.085706 0.902517,-0.4715174 C 33.421756,4.7840981 31.641371,5.1298045 32.528409,5.3764052 M 6.1347012,5.0317414 C 6.9142168,5.6725303 7.5254563,5.2578651 7.6861695,4.308341 M 36.184513,5.3164633 c -0.474048,1.3193984 0.347948,0.063859 0.736612,-0.357274 0.119636,-0.1279636 0.274389,-0.2894912 0.46121,-0.2920084 0.707365,-0.00976 0.301598,1.4773641 0.30058,1.8480083 M 22.683484,5.1891556 C 22.780914,5.6414289 23.282,5.8972704 23.538,5.9757646 M 34.835994,5.1064703 c -0.188498,0.2662354 -0.244941,0.830147 -0.08995,1.0490941 M 18.146268,25.702099 c -0.226018,-0.407678 -0.241483,-0.967726 -0.242261,-1.445841 -3.03e-4,-0.192873 -0.02781,-0.477087 0.03506,-0.649108 0.04872,-0.133421 0.120051,-0.198262 0.19569,-0.315202 0.112082,-0.173339 0.255389,-0.390128 0.48854,-0.447243 0.501665,-0.122931 1.045165,0.504243 1.157845,0.992005 0.07473,0.323168 0.05952,0.630821 -0.138332,0.888306 -0.133538,0.173702 -0.313765,0.324434 -0.485543,0.457316 -0.176512,0.136473 -0.521323,0.262883 -0.713537,0.320362 -0.15116,0.04528 -0.224462,0.06667 -0.297464,0.199405 -0.01469,0.414977 0.03458,1.580299 -0.08558,1.571825 m 4.937887,-4.336256 -0.04974,0.599355 -0.01252,1.618277 -0.0576,1.258659 v 0.599366 M 17.75926,23.427341 17.93907,23.60715 M 4.3705819,25.174766 c 0.6820907,-0.407272 0.7032071,0.660907 0.329445,1.111349 -0.4185934,0.431 -0.8063198,0.295181 -1.1806805,-0.05192 -0.3812523,0.322209 -0.7727551,0.651503 -1.3785293,0.356853 -0.3829916,-0.186279 -0.616023,-0.558544 -0.7236081,-0.95622 -0.1213704,-0.4488 -0.076721,-0.858876 0.1841836,-1.018912 m 6.8327142,0.599366 c 0.4069047,-0.04247 0.7159351,0.338452 0.6067322,0.779162 -0.074858,0.301962 -0.3761583,0.548357 -0.6666687,0.585637 -0.3339634,0.04289 -0.5956449,-0.07124 -0.7175556,-0.250829 -0.078819,-0.116099 -0.059276,-0.263902 -0.061607,-0.334808 M 32.348609,25.215265 c -0.285356,-0.01816 -0.399594,0.08793 -0.590611,0.291473 -0.312621,0.465158 -0.656824,1.051388 -0.644687,1.626456 0.0073,0.156006 -0.002,0.264796 0.06904,0.414219 0.08074,0.169496 0.23687,0.293924 0.387307,0.413793 0.224222,0.178614 0.446344,0.241067 0.718995,0.26168 0.511614,0.03873 0.899098,-0.0649 1.318594,-0.250589 M 3.5193464,26.234192 c 0.05283,-0.143708 -0.049317,-0.244782 -0.021919,-0.453653 m 20.4001886,1.472565 c 2.112106,0.08391 -0.0039,-0.699437 -0.307292,-1.095508 -0.191076,-0.268513 -0.0052,-0.49609 0.248434,-0.671164 0.308253,-0.231385 0.472003,-0.227166 0.838023,-0.151304 m -18.7000514,0.23977 c 0.113886,-0.218897 0.031934,0.816723 0.2187061,1.077772 0.4704379,0.648743 1.3009118,0.176982 1.4611793,-0.323418 m 5.39257,-0.874233 c 0.35638,-0.150794 0.907073,-0.06345 0.858225,0.539425 -0.04561,0.562979 -0.580121,1.162821 -1.097969,1.32429 -0.442688,0.138032 -0.637786,-0.0074 -0.766445,-0.151512 L 11.70455,26.633473 m -1.232625,-1.2384 c -0.01028,0.500588 -0.08541,1.503195 0.659296,1.462259 0.364352,-0.02004 0.650966,-0.131562 0.719233,-0.563217 m 14.384668,-0.539452 c 0.296684,-0.08858 0.529775,-0.124136 0.77887,-0.09097 0.07253,0.0094 0.238006,0.03604 0.294825,0.126224 0.09176,0.145758 -0.03213,0.27462 -0.123589,0.384249 -0.151816,0.181906 -0.56064,0.573466 -0.723607,0.789362 -0.175253,0.232125 -0.204442,0.434292 -0.02044,0.606966 0.195513,0.183402 0.715098,0.162009 0.992661,0.162009 m -6.293295,-1.738102 c -0.07405,0.573474 -1.103916,1.30962 -1.284374,0.726982 -0.08923,-0.307488 -0.0281,-0.459124 0.08566,-0.846851 m 1.036568,0.49584 c 0.208158,0.311433 0.307532,0.75124 0.659296,0.958982 m 13.228215,-0.855456 c 0.295245,0.002 0.340916,-0.11233 0.776712,0.129692 0.185682,0.103118 0.260721,0.220391 0.301239,0.409785 0.03038,0.141936 0.03685,0.325513 -0.01039,0.479195 -0.174594,0.569032 -0.963953,0.81501 -1.421564,0.476184 -0.205401,-0.152051 -0.32893,-0.361113 -0.353023,-0.595825 -0.02536,-0.24657 0.161227,-0.625607 0.31005,-0.758964 0.06048,-0.05421 0.150917,-0.121137 0.248733,-0.06958 0.209058,0.11016 0.07624,0.233154 0.148221,0.528875 m -19.239481,-0.239729 0.359617,-0.05992 m 21.397179,0.119869 c -0.410885,2.166675 0.745061,-0.37388 1.198804,-0.955566 0.208824,-0.191598 0.315529,-0.303404 0.399465,-0.01416 0.110225,2.139849 0.43963,0.337142 1.007625,-0.199927 0.382339,-0.318609 0.47731,0.08653 0.455359,0.450394 -0.013,0.298773 -0.0035,0.458446 -0.03902,0.719233 -0.04579,0.336241 -0.08289,0.605046 -0.08534,0.899032 M 28.572604,27.492851 h 0.239745 M 103.3129,44.394822 c -0.44175,1.04613 -0.0282,2.347761 -0.13007,3.416363 -0.0246,0.258076 -0.0558,0.417687 -0.0456,0.659293 0.015,0.343127 -0.004,0.665525 -0.004,1.018912 0,0.265097 -0.0156,0.42668 -0.0425,0.659294 -0.0246,0.208346 -0.0126,0.313894 -0.018,0.539426 -0.006,0.257121 -0.051,0.358059 -0.0588,0.659304 -0.006,0.261858 0,0.40367 -5.5e-4,0.659285 -8.9e-4,0.561067 -0.10489,1.228275 -0.11927,1.798085 -0.0114,0.465591 -0.0192,0.821793 0.11927,1.25866 M 93.183703,44.81438 c 0.275703,0.863018 0.799547,1.717822 1.311398,2.457379 0.115079,0.165478 0.212174,0.305192 0.315269,0.479486 0.526236,0.892324 1.225693,1.698165 1.684206,2.637188 0.145638,0.298006 0.284097,0.662411 0.401568,0.958982 0.08748,0.220621 0.175614,0.328558 0.237948,0.539416 0.07073,0.238606 0.01436,0.361653 -0.07489,0.659294 -0.07011,0.230766 -0.122861,0.483567 -0.21517,0.719234 -0.280498,0.720492 -0.628719,1.412518 -0.872064,2.157703 -0.08154,0.249936 -0.118074,0.465467 -0.151045,0.719234 m 8.990417,-0.599365 c -0.34582,-0.491532 -0.23614,-1.813724 -0.23975,-2.517309 -8.9e-4,-0.224826 -0.0282,-0.330436 -0.0323,-0.539426 -0.005,-0.189456 0.027,-0.294163 0.0317,-0.479496 0.008,-0.365547 -0.0845,-0.686262 -0.0491,-1.078842 0.0282,-0.308909 0.0497,-0.510057 0.0497,-0.839102 0,-0.324621 -0.0335,-0.473972 -0.0545,-0.779173 -0.018,-0.261744 -5.5e-4,-0.369691 -0.006,-0.599366 -0.004,-0.132995 -0.0168,-0.231108 -0.0342,-0.359617 -0.0199,-0.151095 -0.0234,-0.263414 -0.0252,-0.419546 -0.002,-0.244182 -0.0277,-0.363751 -0.0497,-0.599365 -0.0317,-0.333543 -0.0312,-0.870744 0,-1.198721 0.048,-0.501366 0.0984,-0.872489 0.4693,-1.078841 m 18.16063,1.25865 c -0.15703,-0.49633 -0.17201,-0.852769 -0.65929,-1.097544 -0.80015,-0.402047 -1.49121,0.212293 -1.83585,0.917735 -0.374,0.766765 -0.46629,1.665143 0.81731,3.865874 1.65344,1.905313 2.55127,2.568076 2.88213,3.26652 0.15942,0.336595 0.16902,0.736556 -0.0335,1.078841 -0.10788,0.18227 -0.23255,0.322337 -0.39137,0.461458 -0.80016,0.699992 -2.18709,0.737273 -2.93628,0.737273 m 17.6803,-10.009321 v 0.119869 l 0.0575,0.958997 0.0876,1.618267 0.0251,0.419555 0.008,0.359618 -0.0527,0.539425 -0.12527,1.438469 -0.1744,1.558327 -0.005,0.539436 0.0599,1.378528 m 17.08157,-3.236568 c 0.60415,0.196476 0.80614,0.166859 1.19873,0.239749 0.0104,-0.483755 0.0995,-0.86087 0.0995,-1.738146 0,-0.862489 -0.15762,-1.726764 -0.26191,-2.577259 -0.0779,-0.633157 -0.0312,-1.351134 0.40217,-1.318589 m -57.658517,0.11988 c -0.462103,0.317476 -0.509459,0.838074 -0.692862,1.438458 -0.257721,0.83958 -0.4675,1.828584 -0.734209,2.697127 -0.08748,0.285232 -0.328456,1.156227 -0.428547,1.378227 -0.09231,0.205158 -0.243167,0.341207 -0.3073,0.419848 M 146.04779,46.0131 c 0.30987,0.09803 0.48369,0.109743 0.77916,0.120533 0.25593,0.0094 0.5736,0.04777 0.83911,0.06169 0.15224,0.0083 0.34164,0.03749 0.44353,0.148282 0.12228,0.132518 0.11028,0.269354 0.17442,0.448675 0.16662,0.46745 0.16123,0.803151 0.16123,1.258659 0,0.332826 0.004,0.541285 0,0.839104 -0.004,0.30298 -0.0593,0.535717 -0.1025,0.899053 -0.0521,0.435849 -0.11628,0.835022 -0.13725,1.258648 -0.0276,0.553393 -0.24574,1.433848 -0.29968,1.858015 m 0.20378,-6.562154 c 0.41834,-0.123587 1.11023,-0.122611 1.65444,-0.08543 0.43693,0.03001 0.64851,0.05265 1.13879,0.114542 m 19.89877,0.599365 -0.11747,1.498397 -0.002,0.659295 -0.0545,0.839112 -0.0108,0.659296 -0.0971,0.599355 -0.0186,0.419557 -0.087,0.693521 0.32785,0.215469 0.8391,0.409598 m -38.05939,-3.116674 c -0.17142,0.407625 -0.0768,0.660437 0,0.958983 m 40.2171,0.239737 c 0.0641,-0.266177 0.13964,-0.424344 0.35962,-0.539426 m -18.28043,4.075657 c 0.21337,-0.40589 0.38958,-0.796724 0.4711,-1.25866 0.024,-0.135092 0.0389,-0.222541 0.0774,-0.359617 0.048,-0.169674 0.0887,-0.303208 0.13725,-0.479486 0.0652,-0.33079 0.1389,-0.781043 0.21248,-1.018904 0.1948,-0.119869 0.61824,0.147539 0.72014,0.179836 m -5.33433,0.419557 c 0.051,0.287568 -0.0989,1.633501 -0.10667,1.917652 0.012,0.623028 0.41765,0.0788 0.51185,-0.119567 0.0707,-0.153919 0.13785,-0.328869 0.20977,-0.479497 0.16243,-0.341028 0.40398,-0.76801 0.64912,-1.016211 0.12167,-0.122807 0.23972,-0.260486 0.39616,-0.214804 0.24455,0.07144 0.25533,0.647185 0.25773,0.811469 0.009,0.753275 0.0252,1.95457 0.11987,2.45738 m 15.49515,-3.20236 0.77916,0.119868 m -12.37846,1.104598 c -0.10668,-0.20282 -0.14085,-0.324974 -0.0359,-0.599303 0.0653,-0.170638 0.18221,-0.322752 0.33684,-0.414271 0.25712,-0.152185 1.09442,-0.329418 1.34076,-0.0808 0.40637,0.410024 -0.67188,0.79499 -0.92241,0.871285 -0.31227,0.09533 -0.52564,0.149007 -0.71923,0.223019 0.21277,0.426576 0.81632,0.749328 1.25865,0.899042 m 11.11974,-2.003574 c 0,0.432497 -0.23076,1.79982 -0.32485,2.45738 -0.0413,0.287154 -0.0906,0.88037 -0.30487,1.13528 m -0.4807,0.137253 c -0.18339,0.03115 -0.29907,0.0406 -0.47948,0.02648 -0.46631,-0.03645 -1.06987,0.02472 -1.4972,-0.173692 -1.10703,-0.51389 0.19479,-2.189344 0.95777,-1.998694 m -68.02744,2.037833 c -0.21997,0.09273 -0.357223,0.108301 -0.599363,0.122029 -0.356021,0.02004 -0.663489,0.08889 -1.018916,-0.01922 -1.098029,-0.333728 -1.093234,-1.428872 -0.61734,-2.260551 0.115016,-1.097883 2.791959,-1.385134 2.251199,-0.481823 -0.373406,0.582761 -1.030905,0.781085 -1.693791,0.781501 m 32.904901,2.097772 c -0.41535,-0.0031 -0.70125,-0.06147 -1.07884,-0.181552 -0.51666,-0.164222 -1.14238,-0.568368 -1.19153,-1.137047 -0.015,-0.17609 0.024,-0.361777 0.0671,-0.539426 0.11747,-0.48284 0.46269,-1.2722 0.94459,-1.495583 0.30446,-0.140856 0.43453,0.109745 0.53941,0.236924 m -24.0943,-0.119872 c 0.44532,0.02035 0.91463,0.13905 1.25626,0.397615 0.23316,0.17634 0.4789,0.444489 0.46751,0.741166 -0.0294,0.745247 -0.98056,1.234266 -1.66383,1.250871 -0.21936,0.0052 -0.42975,-0.06324 -0.59697,-0.197129 -0.42075,-0.337084 -0.30627,-1.509136 0.35722,-1.41335 m 20.67795,-0.179807 c 0.37281,0.217327 0.76599,0.545833 0.69586,1.018911 -0.0744,0.504544 -0.67907,0.80176 -1.11541,0.908213 -0.17802,0.04341 -0.30928,0.05057 -0.47949,0.05026 -0.21937,-5.5e-4 -0.4735,-0.05317 -0.6569,-0.202945 -0.54723,-0.447481 -0.26432,-1.917591 0.47889,-2.075883 0.1894,-0.04018 0.32964,0.114292 0.3758,0.302316 0.0515,0.21253 0.0329,0.389763 0.0419,0.538522 m 53.40303,1.977894 c -0.35902,0.05275 -0.43634,0.119151 -0.77916,0.118975 -0.15224,0 -0.26552,-0.002 -0.41956,-0.01298 -0.81512,-0.202886 -1.39552,-0.906503 -1.08466,-1.618382 0.22115,-0.46852 0.48531,-0.719545 0.94741,-1.103014 0.33444,-0.277506 0.46151,0.125985 0.36321,0.3978 -0.13605,0.375672 -0.35902,0.583716 -0.58558,0.899043 m -67.84764,-1.3186 c -0.0359,0.121438 -0.0558,0.273188 -0.0605,0.419671 -0.005,0.158178 -0.0192,0.256053 -0.0168,0.419433 0.002,0.158177 0.0104,0.250237 0.0198,0.419557 0.0312,0.567951 0.27211,1.40825 0.77678,1.746899 0.54241,0.364041 0.97515,-0.03822 1.18013,-0.548179 0.0605,-0.15038 0.13126,-0.257361 0.16664,-0.419557 0.0473,-0.218408 -0.0138,-0.379867 -0.0882,-0.599355 m 32.84498,-1.138791 c 0.33564,-0.08017 0.88346,-0.143898 1.31859,-0.17447 1.11601,-0.0782 2.11574,-0.346127 3.05673,0.114542 m 15.70323,0.299675 c -0.11807,-0.122569 -0.29068,-0.373107 -0.54181,-0.478946 -0.12767,-0.05368 -0.26972,-0.07819 -0.40698,-0.02409 -0.15044,0.05952 -0.24094,0.183941 -0.33803,0.32353 -0.11387,0.16392 -0.14267,0.242085 -0.20019,0.419256 -0.0598,0.184897 -0.10066,0.468457 -5.5e-4,0.656656 0.12347,0.231774 0.34763,0.315916 0.58857,0.343126 0.36382,0.04095 0.9404,-0.290922 1.19333,-0.525872 0.59887,-0.763174 0.54214,0.463337 0.72455,0.904558 m -52.38409,-1.917895 c 0.29429,0.244109 0.40998,0.413492 0.57,0.719233 0.12106,0.232365 0.20198,0.525988 0.20617,0.779164 0.006,0.419193 -0.21277,0.941598 -0.6563,1.094978 -0.53702,0.185676 -1.29213,-0.650975 -1.59001,-0.795299 m 22.98716,-1.618307 c -0.17561,6.21e-4 -0.3704,-0.0097 -0.53643,0.08598 -0.28589,0.164762 -0.39377,0.416192 -0.55501,0.753151 -0.13902,0.289074 -0.35418,0.749691 0.0162,0.948016 0.31766,0.170036 0.65151,-0.09362 0.89544,-0.297466 0.32171,-0.270613 0.60923,-0.553524 0.87387,-0.895626 0.30557,-0.839498 0.49964,0.344571 0.76854,0.707646 m 40.0127,-1.301696 c -0.20619,0.224048 -0.3728,0.430585 -0.59936,0.659243 -0.50467,0.508137 -1.03571,0.97887 -1.61829,1.39693 -0.21397,0.153671 -0.50166,0.360209 -0.77677,0.308961 -0.62633,-0.116805 -0.23795,-1.291381 -0.0749,-1.643198 0.0443,-0.09689 0.0977,-0.179748 0.13246,-0.24245 m -13.90517,-0.239736 c -0.23365,0.76274 0.0187,0.720315 0.37303,0.239813 0.58617,-0.805177 1.23528,-2.435614 2.38426,-1.858015 m 9.58104,1.236715 c -0.48172,0.706537 -0.45955,1.413074 -0.53096,2.119611 m -39.2539,-2.13427 c -0.19652,0.528633 0.0996,1.920861 0.23551,2.254139 m -36.030004,7.767718 c 0.04556,-0.576592 -0.135455,-2.273375 0.164853,-3.032767 0.207378,-0.525635 0.759388,-1.142384 1.330578,-0.63592 0.236147,0.209177 0.344029,0.519644 0.453719,0.815729 0.105488,0.283498 0.100091,0.492072 0.09709,0.779173 -0.0027,0.204379 -0.01977,0.348225 -0.08154,0.539426 -0.145044,0.45072 -0.40217,0.837898 -0.817521,1.10582 -0.203789,0.13126 -0.487283,0.236145 -0.719239,0.284089 -0.134258,0.02814 -0.321853,0.02939 -0.427944,0.14445 -0.219361,0.237349 -0.0917,0.903841 -0.175011,1.282638 -0.330628,0.582456 -0.236263,1.198335 -0.236307,1.900047 m 8.391226,-4.956775 0.1798,0.419546 c 0.0947,-0.11208 0.17801,-0.226561 0.33924,-0.479486 0.35782,-0.561597 0.88106,-1.013522 1.44087,-0.414158 0.16122,0.173215 0.32724,0.434542 0.39018,0.653906 0.0461,0.160628 0.0588,0.290684 0.0359,0.479485 -0.0425,0.355422 -0.58439,0.978755 -0.54243,1.257456 0.0156,0.108487 0.0846,0.170815 0.19599,0.252937 0.13905,0.101872 0.2763,0.170815 0.41777,0.266716 0.29188,0.198979 0.60054,0.459704 0.75399,0.80014 0.17321,0.382993 -0.0425,0.774978 -0.33984,1.025506 -0.52744,0.444127 -1.35936,0.888856 -2.03244,0.71264 m -4.43527,-4.675011 c 0.0467,-0.07737 0.0749,-0.202582 0.30208,-0.247538 0.1846,-0.03655 0.53043,0.134252 0.71683,0.309866 0.45012,0.424354 0.79415,0.872074 0.82652,1.496009 0.012,0.237349 -0.0707,0.445321 -0.15883,0.659294 -0.28588,0.69346 -0.69645,1.527173 -1.32758,1.99048 -0.41476,0.304476 -0.86188,0.42315 -1.318,0.161833 -0.382987,-0.219374 -0.576583,-0.598763 -0.596959,-1.013522 -0.03714,-0.757594 0.263729,-1.735746 0.598759,-2.39744 0.1888,-0.372203 0.40337,-0.967976 0.8373,-0.882863 0.24575,0.04798 0.36982,0.192393 0.41956,0.223558 m 25.70835,-0.25765 1.61828,0.955378 0.77915,0.483089 m -24.62948,-1.360625 v 0.659304 1.018912 c 0,0.685671 -0.0558,1.451646 -0.29968,2.097763 m 20.618,-3.775979 c -0.0768,0.936801 -0.52085,2.401043 -0.82351,3.476291 -0.13605,0.482486 -0.32246,0.910434 -0.3752,1.318599 m -11.38786,-4.555143 0.5694,1.198721 0.20978,0.419546 c 0.10607,-0.08276 0.21816,-0.155228 0.37399,-0.360811 0.10011,-0.131261 0.23076,-0.383585 0.33325,-0.538221 0.23555,-0.353626 0.38,-0.526238 0.73121,-0.779174 m -5.09995,0.489683 c 0.38359,0.02939 0.41714,0.204379 0.72462,0.292482 0.54781,0.157636 1.10163,0.540027 1.47503,1.015921 0.73002,0.931411 -0.0995,2.142717 -1.23529,2.09177 -0.37999,-0.01744 -0.77497,-0.115082 -1.07884,-0.332046 -0.42075,-0.300881 -0.73782,-0.861886 -0.69167,-1.400107 0.0383,-0.445924 0.14205,-1.717772 0.80615,-1.66802 m 15.40896,4.425076 c 0.33565,0.325452 0.72583,0.602357 1.25867,0.508854 0.35481,-0.06169 0.63411,-0.130057 0.95897,-0.262511 0.37279,-0.151043 0.86907,-0.452517 0.86188,-0.905637 -0.004,-0.267911 -0.2871,-0.514253 -0.50226,-0.646708 -0.33985,-0.208585 -0.78877,-0.347031 -1.19872,-0.369814 -0.30209,-0.01682 -0.81214,0.07737 -1.04289,-0.15823 -0.21758,-0.222355 0.0143,-0.588566 0.13006,-0.803141 0.28709,-0.533434 0.90203,-1.541556 1.39231,-1.798076 m 3.71604,0 -0.11988,0.719224 -0.0588,0.419556 -0.16003,1.078852 -0.38119,1.378529 -0.95837,2.037823 m -15.64332,-4.435274 -0.0882,0.522052 -0.31586,0.43693 -0.73482,1.498398 m 1.05068,-1.935328 c 0.19958,0.321267 0.26433,0.569998 0.36622,1.018923 0.11327,0.497472 0.25951,0.922999 0.38119,1.455841 m -19.479232,8.45098 c 0.0044,-0.190599 0.04192,-0.432132 0.05451,-0.599355 0.008,-0.113284 0.0018,-0.279905 0.06594,-0.419557 0.140844,-0.306874 0.192994,-0.255927 0.308666,-0.599366 0.07011,-0.208573 0.104894,-0.498666 0.147446,-0.719223 0.118668,-0.619148 0.353619,-1.263457 0.686268,-1.798085 0.161229,-0.258929 0.521442,-0.809144 0.856483,-0.460316 0.196593,0.20498 0.254132,0.504066 0.312867,0.759994 0.152241,0.666491 0.238541,1.322191 0.267319,1.977894 0.008,0.185198 0.04733,0.356615 0.05513,0.539425 0.02402,0.553206 -0.03714,1.295815 0.122266,1.798085 m 14.504527,-4.9747 c 0.0545,0.330843 -0.0204,0.609553 0.0252,0.958973 0.027,0.202592 0.0347,0.315867 0.0347,0.539425 0,0.230755 -0.008,0.335048 -0.0347,0.539426 -0.018,0.137253 -0.024,0.225958 -0.0234,0.359616 0.002,0.300884 -0.0324,0.484284 -0.0846,0.779175 -0.0324,0.179807 -0.0467,0.298483 -0.0264,0.479486 0.0126,0.11747 0.0245,0.212778 0.10549,0.324258 0.10249,0.140846 0.21517,0.200182 0.33684,0.337434 0.38359,0.432736 0.69766,0.878067 1.04528,1.196322 m 8.75072,-3.835908 c 0.0965,0.262521 0.16357,0.530433 0.1774,0.779173 0.009,0.159424 0.0144,0.249334 0.0371,0.419546 0.0485,0.371011 -0.0342,0.945202 -0.087,1.318601 -0.0623,0.441125 -0.16782,0.8439 -0.37579,1.258659 -0.0707,0.140846 -0.21337,0.368007 -0.38721,0.254723 -0.28528,-0.186994 -0.35718,-0.949387 -0.44413,-1.333575 -0.15643,-0.691059 -0.32844,-1.373741 -0.52263,-2.037832 -1.09394,-1.782219 -0.80176,0.151518 -0.79532,1.01892 5.6e-4,0.264911 0,0.550216 -0.007,0.839105 -0.005,0.206174 -8.8e-4,0.337435 -0.0275,0.539426 -0.0246,0.18879 -0.0348,0.308067 -0.0599,0.479485 -0.0731,0.504658 -0.23615,0.68267 -0.0852,1.19872 m -25.113331,-5.154498 0.125262,1.25866 0.05336,0.479486 0.121742,0.479486 m 31.825387,-1.977894 -0.40936,0.659305 -0.21998,0.719223 -0.23256,0.719235 -0.16601,0.359617 -0.14565,0.479497 -0.23436,0.779163 -0.21036,0.779163 m -0.77905,-4.375334 c 0.0605,0.160037 0.10968,0.396181 0.17082,0.539436 0.0983,0.230745 0.22296,0.314662 0.37159,0.539415 0.3728,0.562802 0.44642,0.935596 0.82701,1.25866 m 4.56424,-2.037823 c 0.20618,0.321257 0.17982,0.821118 0.17982,1.25866 0,0.767782 -0.0599,1.615878 -0.0599,2.39744 m -18.2339,-2.723045 0.20274,-0.16646 c 0.40216,-0.08391 0.41955,-0.09647 0.82951,-0.204378 0.17382,-0.04559 0.29909,-0.05515 0.41956,-0.06532 0.20199,-0.01682 0.40637,-0.01433 0.59936,0.04258 m -14.264774,3.056735 c -0.256516,-0.03836 -0.572387,-0.101894 -0.813923,-0.372203 -0.170224,-0.191201 -0.297259,-0.503464 -0.318265,-0.766589 -0.0096,-0.122267 -0.01622,-0.227701 0.05513,-0.326043 0.07613,-0.105497 0.973892,-0.299637 1.097967,-0.373989 1.140335,-1.675887 -1.297263,-1.242338 -1.153096,0.700032 m 33.197991,-1.798072 c 0.1055,0.692165 0.0451,1.311536 -0.11091,1.977894 0.23614,0.551876 0.54938,0.317758 1.06987,0.210973 l 0.59037,-0.170224 0.13665,-0.400366 0.11269,-0.839104 0.17921,-0.479496 m 4.07565,0.479496 c -0.29249,-0.05453 -0.57239,-0.05816 -0.83911,-0.09471 -0.24454,-0.03296 -0.39439,-0.04791 -0.6593,-0.116867 -0.2721,-0.07073 -0.49866,-0.308121 -0.77917,-0.354227 -0.78774,0.279496 -1.5841,1.373625 -0.8391,1.608088 0.15584,0.04195 0.32185,0.03479 0.47948,0.06719 0.49568,0.102496 1.47204,0.542416 1.47084,1.168148 -5.5e-4,0.38479 -0.46091,0.626334 -0.7516,0.73182 -0.63413,0.230154 -0.98955,0.157036 -1.3186,-0.432132 m 5.87374,-3.0568 c 0.53644,0.273909 1.1046,0.281274 1.59341,0.300028 0.68904,0.04854 0.87825,0.03777 0.37931,0.510563 -1.49256,1.46 1.06277,0.280929 1.17948,1.826641 0.0282,0.900839 -0.92001,1.789092 -1.71417,1.977894 M 104.0326,74.422799 c 0.17501,0.176215 0.35482,0.377603 0.51245,0.599364 0.10126,0.142654 0.19659,0.254724 0.24095,0.419558 0.15044,0.565792 -0.24935,1.544546 -0.93322,1.472623 -0.24214,-0.02576 -1.03389,-0.609553 -1.18133,-0.763587 -0.20319,-0.212176 -0.2889,-0.269707 -0.31706,-0.649107 m 36.80074,-1.078851 c -0.17098,1.15705 -0.28603,2.322711 -0.48002,3.476269 m -31.88597,-2.876891 c -0.16842,-0.08813 -0.35721,-0.261919 -0.6539,-0.108487 -0.23675,0.122869 -0.33384,0.38779 -0.4723,0.587972 -0.20855,0.302077 -0.36558,0.650905 -0.29848,1.018912 0.11627,0.638918 0.86068,0.354226 1.24487,0.04974 0.19959,-0.15823 0.35362,-0.230153 0.48369,-0.421946 0.26771,-0.893997 0.39961,0.255866 0.4753,0.492072 m -6.47311,-1.738135 c -0.15883,0.375795 -0.31586,1.818449 0.47949,1.70398 0.39917,-0.05691 0.72214,-0.46286 0.90376,-0.688214 m 6.22863,0.182943 c -0.13249,0.354678 -0.3224,1.32666 0.15166,0.885864 0.3764,-0.453711 0.5706,-1.102828 0.99314,-1.542759 0.23074,-0.239738 0.39677,-0.303873 0.65329,-0.242147 m 1.56938,-0.359727 c -0.10374,0.368609 -0.29333,1.554246 -0.31071,2.397544 m 21.80818,-1.457702 c -0.10125,0.421353 -0.11148,1.053679 -0.41954,1.438468 m -17.73255,-0.640061 c 0.0893,0.375194 0.069,0.812135 0.0593,1.198721 -0.0138,0.516652 -0.13546,0.873268 -0.35902,1.378528"
       id="path7053"
       sodipodi:nodetypes="cccccccscccccccccccccccccccccscccccccccccccccccccccccccccccccsccccccccccccccccccccccscccccccccccccccccccsccccscccccccccccccccccccccccccccccccccccccccccccccccccccccccccccccscccccccccccccccccccccssccccccccccsscccccccccccccccscccccccccsccscccccccccccccccccccccccccccccccccccccccscccccccccccccccccccccccccccccccccccccccccscccccccccccccccccccccccccccccccccccccccccccccccccccccccccccccccccccccccccccsccccccccccsccccccccccccccccccccccscccccccccccccccccccccccccccccsccccccsccccccccccccccccccccccccccccccccccccccccccccccccccccccccccccccccccccccccccccccccccccccccccc" /><path
       style="fill:none;stroke:#010101;stroke-width:0.04482"
       d="m 3.5380722,8.4096938 c 0.143873,-0.3644716 0.254847,-0.3758693 0.53784,-0.4033798 0.269861,-0.026235 0.344576,-0.022058 0.53784,0.00751 0.383748,0.058628 0.771665,0.1777246 1.030859,0.4407281 0.132532,0.1344825 0.190305,0.3892077 0.141945,0.5826592 -0.01995,0.079642 -0.04697,0.1901264 -0.08964,0.26892 -0.09287,0.1713907 -0.143873,0.1656097 -0.276406,0.2838447 -0.02505,0.02237 -0.394325,0.441566 -0.403379,0.522915 -0.0126,0.113394 0.02801,0.170315 0.08964,0.268919 0.156243,0.250006 0.389351,0.415436 0.567735,0.672299 0.29487,0.424624 0.437128,1.118706 0.224099,1.613519 -0.144186,0.334849 -0.372588,0.559801 -0.657374,0.769424 -0.134416,0.09896 -0.244404,0.12572 -0.35856,0.216615 -0.08099,0.06449 -0.09802,0.09228 -0.179279,0.141944 -0.152881,0.09341 -0.429196,0.189096 -0.62748,0.216615 -0.121282,0.01685 -0.152701,0.03353 -0.26892,0.04482 -0.157407,0.01528 -0.240772,0.0017 -0.35856,-0.05231 -0.0748,-0.03429 -0.155211,-0.07175 -0.201689,-0.134459 -0.112588,-0.151805 -0.05827,-0.340363 -0.03734,-0.440715 0.01475,-0.07091 0.0015,-0.152747 0.07467,-0.261435 0.05545,-0.08224 0.164893,-0.09735 0.164354,-0.09712 m 3.406317,0.134459 c 0.06208,0.07409 0.220828,0.227148 0.493019,0.283844 0.09502,0.01981 0.1393,0.03227 0.2241,0.0299 0.0783,-0.0022 0.102593,-0.01425 0.17928,-0.0299 0.234095,-0.04769 0.422563,-0.121282 0.627479,-0.246508 0.248213,-0.151672 0.40589,-0.278871 0.575175,-0.4482 0.218318,-0.218318 0.35094,-0.513189 0.478094,-0.799275 0.05961,-0.134101 0.105014,-0.230823 0.05231,-0.403379 -0.03586,-0.117339 -0.154539,-0.344217 -0.21666,-0.4482 -0.05374,-0.08995 -0.06925,-0.130426 -0.171795,-0.216614 -0.113349,-0.09529 -0.23015,-0.156512 -0.403379,-0.21666 -0.158215,-0.05491 -0.257491,-0.05181 -0.4482,-0.05975 -0.188692,-0.0078 -0.215853,-0.02241 -0.40338,-0.02241 -0.170225,0 -0.198776,0.02241 -0.313739,0.02241 -0.06979,0 -0.368823,6.41e-4 -0.448199,0.01493 -0.145352,0.02627 -0.252964,0.04755 -0.33615,-0.104564 -0.06324,-0.115681 -0.02429,-0.213075 0.07472,-0.35856 0.237481,-0.543685 0.888534,-0.582097 1.030859,-0.9860391 0.06252,-0.1930754 0.341438,-0.2260987 0.485534,-0.2241001 0.320418,0.00449 0.331265,0.048317 0.58266,0.044818 0.117876,-0.00163 0.431392,-0.043341 0.537838,-0.044818 0.09072,-0.00122 0.153465,-0.019709 0.268921,-0.037345 0.136207,-0.02081 0.144141,0.00901 0.3137398,-0.0075 0.153867,-0.014961 0.174708,-0.044817 0.358559,-0.044817 h 0.85158 m 29.625995,5.6398282 c -0.06028,0.04106 -0.106,0.048 -0.134459,0.04482 -0.118952,-0.01322 -0.312798,-0.02451 -0.53784,-0.11205 -0.130785,-0.05082 -0.223697,-0.05773 -0.35856,-0.104565 -0.246061,-0.08543 -0.428882,-0.176949 -0.62748,-0.328665 -0.09757,-0.07453 -0.133475,-0.808999 -0.213209,-0.873227 -0.55582,-2.734674 2.242242,-1.742433 1.512983,-3.369742 -0.05315,-0.115994 -0.18793,-0.240638 -0.313739,-0.29133 -0.06625,-0.02667 -0.164356,-0.02904 -0.224101,-0.02241 -0.147545,0.0164 -0.140691,0.04217 -0.239025,0.126975 -0.05912,0.05096 -0.153598,0.104609 -0.209172,0.149429 -0.16484,0.205291 -0.330628,0.578267 -0.440457,1.049014 -0.403879,1.731166 -0.585935,3.878991 -0.339343,4.479238 0.358198,0.871907 0.166209,-1.586633 0.24679,-3.859165 0.04146,-0.582828 0.107394,-1.106639 -0.09445,-1.497291 M 13.532922,9.2164522 c -0.05863,0.082513 -0.07619,0.1799966 -0.104564,0.2689198 -0.08207,0.256774 -0.102324,0.189723 -0.209175,0.403379 -0.08041,0.160859 -0.08377,0.413016 -0.126975,0.6723 -0.02017,0.120969 -0.01371,0.148175 -0.05231,0.26892 -0.03792,0.118683 -0.06763,0.208009 -0.08964,0.313739 -0.02326,0.111691 -0.06122,0.148489 -0.08964,0.26892 -0.03505,0.148399 0.01148,0.222755 -0.01493,0.358559 -0.0099,0.487621 -0.276718,1.402077 -0.119535,1.703159 M 33.701897,9.2164522 C 33.526024,9.507065 33.555293,9.911117 33.52262,10.247311 c -0.05599,0.575982 -0.08964,1.315511 -0.08964,1.882438 v 0.26892 c 0,0.09632 0.0074,0.153867 -0.01491,0.26892 -0.04805,0.246958 -0.02716,1.028394 0.0074,1.254959 0.01856,0.121507 0.0075,0.132936 0.0075,0.224099 M 12.860623,11.41263 c -0.350182,0.0062 -0.660459,0.181761 -1.030858,0.17928 -0.120746,-0.0051 -0.152703,0.0043 -0.31374,-0.06723 -0.409968,-0.182194 -0.414361,-0.561863 -0.35856,-0.96363 0.06846,-0.439803 0.185377,-1.042982 0.448199,-1.120498 m 23.575316,0.35856 -0.04482,0.493019 -0.01491,0.2241 -0.07471,0.53784 -0.03734,0.224099 -0.09713,0.582659 0.02242,0.351076 0.42579,0.05231 0.448198,-0.07471 0.268922,-0.02985 0.403378,-0.0299 M 17.073734,9.978393 c -0.09421,0.0471 -0.187841,0.0939 -0.40338,0.20169 -0.147996,0.074 -0.256146,0.119175 -0.40338,0.209174 -0.123703,0.07556 -0.22876,0.128813 -0.35856,0.23154 -0.129126,0.102234 -0.307554,0.225624 -0.448199,0.351119 -0.518892,0.506391 -0.97397,0.666587 -1.135437,1.381934 -0.01649,0.06979 -0.04819,0.137194 -0.0299,0.26892 0.244242,0.702731 0.660008,0.571411 1.120498,0.186764 0.08467,-0.07122 0.120476,-0.10564 0.179281,-0.186764 0.06633,-0.09152 0.103444,-0.127962 0.156869,-0.2241 0.468334,-1.83999 -2.385027,-0.926504 -1.232549,-2.151358 0.07476,-0.07919 0.107837,-0.141272 0.186765,-0.224099 0.0736,-0.07727 0.347714,-0.264125 0.530355,-0.268921 m 12.738727,4.163837 c -0.235395,-0.117698 -0.806747,-0.299012 -1.197577,-0.66788 -0.827426,-0.735233 1.132906,-1.658431 1.396904,-0.986039 -0.0937,0.524863 -1.104958,1.038727 -1.396904,0.986039 m 8.157234,-1.038344 c -0.204199,0.35018 -0.22206,0.733979 -0.300177,1.135776 v 0.224099 l -0.03734,0.26892 -0.01497,0.224099 -0.06723,0.4482 -0.104566,0.40338 m 0.524279,-2.704474 c -0.242222,0.179791 -0.645376,0.03022 -0.96363,0.0075 m -12.318011,1.523879 c -0.167818,-0.554015 -0.14224,-1.496578 0.664813,-1.314704 0.08664,0.02043 0.134551,0.03115 0.224101,0.06723 1.192864,0.456635 -0.302137,2.123443 -0.888914,1.247474 z m 8.553127,-1.075679 c 0.01531,-0.145441 0.06136,-0.198597 0.134461,-0.261436 0.681851,-0.146648 -0.03338,1.098574 -0.268922,1.337115 -0.13827,0.138269 -0.251932,0.334088 -0.40338,0.455684 -0.155793,0.125048 -0.363535,0.211774 -0.537839,0.216615 -0.274477,0.0076 -0.427403,-0.09762 -0.537839,-0.40338 -0.07647,-0.211729 -0.08964,-0.404545 -0.08964,-0.582659 0,-0.164042 -0.02725,-0.187437 0.04482,-0.35856 m -9.815569,0.49302 0.07471,-0.493019 0.05975,-0.4482 0.08961,-1.38942 c 0,-0.146875 -0.04482,-0.350806 -0.04482,-0.493019 v -0.26892 c 0,-0.197656 -0.04993,-0.233781 0.0075,-0.40338 0.07024,-0.207606 0.11308,-0.139255 0.216615,-0.35856 0.06042,-0.12796 0.169195,-0.2202 0.253994,-0.3137388 0.09108,-0.1004869 0.197253,-0.1719745 0.328665,-0.1792796 0.118056,-0.00653 0.188468,0.044238 0.26892,0.1045648 0.33225,0.2491986 0.313739,0.3773846 0.313739,0.7021936 0,0.22791 -0.05092,0.490913 -0.164354,0.627479 -0.110123,0.132533 -0.123703,0.136343 -0.283845,0.31374 -0.100173,0.110975 -0.458194,0.512696 -0.53784,0.56025 -0.120251,0.07184 -0.138673,0.0064 -0.26892,0.08964 -0.08332,0.05324 -0.07687,0.193622 -0.104564,0.336149 -0.02424,0.124645 -0.0299,0.30258 -0.0299,0.40338 0,0.05639 -0.02819,0.138897 0.02241,0.209175 0.105461,0.146471 0.266319,0.123434 0.380969,0.156869 0.113215,0.03303 0.370348,0.159336 0.49302,0.2241 0.422427,0.222935 1.065191,0.614482 1.254959,0.799275 m 3.944182,-0.627479 c -6.01e-4,0.0389 -0.05626,0.336644 -0.11205,0.4482 -0.114066,0.228089 -0.385766,0.432916 -0.60507,0.530355 -0.22123,0.09834 -0.294511,0.139211 -0.493019,0.141945 -1.107461,0.04535 -0.650455,-1.426137 -0.358559,-1.643415 0.121149,-0.08583 0.274972,-0.184837 0.403378,-0.224099 0.134549,-0.0411 0.14217,-0.01493 0.268922,-0.01493 0.563565,-0.0381 0.900144,0.24468 0.896398,0.761939 z m 1.030868,-1.434238 c -0.201868,-0.143425 -0.331356,-0.1233 -0.537839,0 -0.172291,0.102861 -0.529908,0.457208 -0.575174,0.582659 -0.04663,0.120572 -0.180554,0.25721 0.03734,0.425789 0.111783,0.05907 0.162472,0.08861 0.403381,0.112051 0.681852,0.064 1.217463,0.344797 1.165311,0.851579 -0.24707,0.528024 -0.676035,0.835488 -1.210141,1.023374 l -0.268918,0.0075 m 6.767812,-0.313739 h -0.537841 c -0.18739,0 -0.328933,0.0084 -0.537837,-0.17928 -0.722293,-0.657224 0.341844,-2.073214 0.881473,-1.650855 0.128186,0.158798 -0.01281,0.385856 -0.08964,0.47805 -0.111244,0.133474 -0.335344,0.171482 -0.478097,0.231585 m 11.294609,0.507943 c -0.153554,-0.177174 -0.06347,-0.195101 -0.313739,-0.351075 -0.136298,-0.08493 -0.263273,-0.143738 -0.40338,-0.05231 -0.09278,0.06055 -0.117606,0.08377 -0.268918,0.253995 -0.07449,0.08381 -0.119664,0.170674 -0.141945,0.224099 -0.06499,0.155974 -0.09497,0.441343 -0.104554,0.537841 0.07468,0.282726 0.249746,0.442733 0.470619,0.366046 0.851314,-0.02402 1.024428,-0.666045 1.202498,-1.277371 0.15667,-1.772406 -0.345223,-6.6111318 -0.018,-1.872756 -0.04006,1.676022 0.160085,1.969749 0.160085,2.335884 0,0.169373 0.03765,0.367164 0.04483,0.537839 0.0045,0.110839 0.0018,0.151088 0,0.268919 -0.0027,0.188199 -0.05468,0.348386 0,0.53784 M 9.8576822,15.122582 c 0,0.08973 -0.05845,0.358918 -0.01493,0.582659 0.01797,0.09255 0.01493,0.124913 0.01493,0.224099 0,0.158036 0.04482,0.736886 0.04482,0.8964 v 0.224099 0.31374 c 0,0.155301 -0.02474,0.195953 -0.08964,2.061718 0,0.153822 -0.04482,0.39074 -0.04482,0.62748 M 2.014221,16.018996 1.7378303,15.750077 l 0.1419311,-0.24651 0.2689193,-0.01493 0.7619395,0.08964 0.761939,0.16431 0.896399,0.24651 0.31374,0.119535 m -1.299779,0.268919 c 0.31383,0.322301 0.500325,0.62636 0.836654,1.120499 0.103355,0.151895 0.225938,0.4257 0.32118,0.627479 0.353156,0.529731 0.01075,1.102555 0.07383,1.375935 -0.151189,0.333992 -0.289817,0.464911 -0.559364,0.678298 -0.396971,0.314278 -0.917465,0.08547 -1.030859,-0.306254 m 3.118659,-0.380749 c -0.233876,-0.289091 -0.240766,-0.756986 -0.653561,-0.665035 -0.814081,0.403837 -1.269057,1.134195 -0.13446,1.254958 0.292268,-0.121877 0.511261,-0.216129 0.754454,-0.39594 0.649755,-0.522547 0.0915,-0.970956 0.590144,0.321226 0.04559,0.328305 0.07736,0.525558 0.31374,0.761939 m 22.5892558,-3.271857 -0.171794,0.851579 -0.05231,0.31374 -0.08215,0.358559 c -0.09029,0.432742 -0.127457,0.885472 -0.09713,1.254959 m 3.495955,-2.689197 c 0.127784,-0.01008 0.44874,-0.08256 0.672299,0.0075 0.123347,0.04966 0.20129,0.07475 0.313743,0.1419 0.256952,0.153463 0.506375,0.410999 0.478094,0.702194 -0.0082,0.0844 -0.02177,0.137731 -0.03738,0.2241 -0.03621,0.200614 -0.138226,0.422652 -0.231538,0.582659 -0.847581,1.082676 -0.948362,1.716757 0.418303,1.307264 0.114648,-0.0398 0.135489,-0.04881 0.26892,-0.05231 m -11.20499,-2.913298 0.403381,0.09713 0.268921,0.03734 0.627479,-0.04482 -0.04483,0.358559 v 0.4482 l -0.126972,1.1205 -0.0075,0.403379 v 0.358559 c 0.08749,-0.0069 0.144811,-0.0207 0.268918,-0.04482 0.09152,-0.01779 0.347847,-0.106089 0.4482,-0.126975 0.361831,-0.07538 0.593776,-0.157812 0.8964,-0.21666 0.228177,-0.04437 0.282455,-0.01493 0.448199,-0.01493 m -1.882425,-2.285817 0.358559,-0.04482 0.493018,0.06723 0.224099,0.24651 m 11.922086,-0.224157 c 0.05069,-0.06221 0.118099,-0.08964 0.268921,-0.08964 0.238081,0 0.215359,-0.02855 0.448198,0.05231 0.138986,0.04827 0.153193,0.03734 0.268917,0.03734 0.111514,0 0.29438,-0.01071 0.403382,0.0075 0.141451,0.02357 0.27013,0.08099 0.403379,0.15687 0.08301,0.04724 0.157273,0.07042 0.201692,0.149385 0.09233,0.164131 -0.02468,0.308272 -0.156873,0.448199 -0.242359,0.167679 -0.640924,0.250277 -0.03734,0.49302 0.08453,0.09475 0.218724,0.165878 0.291332,0.26892 0.07538,0.10703 0.116173,0.181431 0.141899,0.313739 0.04733,0.243238 0.05849,0.540036 -0.04482,0.71712 -0.07162,0.122806 -0.141901,0.216121 -0.209129,0.358559 -0.119311,0.252606 -0.186767,0.399615 -0.455684,0.575175 -0.125319,0.08184 -0.473031,0.383031 -0.582661,0.433274 -0.206979,0.09484 -0.179685,0.06723 -0.49302,0.06723 M 11.516025,20.052752 c -0.243148,-0.04478 -0.745984,-0.17659 -1.075679,-0.373484 -0.208735,-0.126219 -0.5170538,-0.234815 -0.5975848,-0.478095 -0.04451,-0.17547 -0.07454,-0.24884 -0.10461,-0.40338 -0.01784,-0.09179 -0.04209,-0.221993 -0.05226,-0.31374 -0.0099,-0.08865 0.045,-0.224726 0.07467,-0.313739 0.150033,-0.34805 0.3223178,-0.486386 0.7694248,-0.597584 0.165789,-0.04146 0.202272,-0.07682 0.313739,-0.05979 0.270982,0.04142 0.352106,-0.0035 0.537839,0.07472 m 20.191376,0.851579 c -0.08408,0.07525 -0.324348,0.256549 -0.649878,0.306254 -0.343241,-0.0099 -0.53236,-0.314073 -0.478104,-0.575174 0.0342,-0.164086 0.06216,-0.382091 0.343633,-0.440715 0.225355,-0.04697 0.404184,0.08341 0.500505,0.216615 0.135356,0.187258 0.169911,0.244449 0.283844,0.49302 0.187827,0.483185 0.198224,1.027595 0.156868,1.479058 -0.02447,0.251619 -0.04482,0.815141 -0.04482,0.941219 M 12.053864,20.500951 c 0.03738,0.20299 0.125451,0.304014 0.35856,0.31374 0.09072,0.0038 0.139927,0.0026 0.224099,-0.01493 0.207068,-0.04316 0.522915,-0.185062 0.6723,-0.343635 0.333852,-0.330139 0.0314,-0.595722 -0.313739,-0.821684 -0.171571,-0.104834 -0.537033,-0.330682 -0.71712,-0.4482 -0.06934,-0.04527 -0.168971,-0.125854 -0.224099,-0.171839 -0.11586,-0.09654 -0.241849,-0.139436 -0.33615,-0.306255 -0.06839,-0.120969 -0.176994,-0.535733 0.07471,-0.694709 0.102861,-0.06499 0.171884,-0.0199 0.261435,0.0075 0.08556,0.02613 0.137462,0.03805 0.216615,0.112049 0.151222,0.141273 0.263093,0.335075 0.366044,0.485535 m 1.254958,1.703158 c 0.116532,0.01134 0.578312,-0.101652 0.717119,-0.194205 0.115188,-0.07682 0.198463,-0.146068 0.306255,-0.261479 0.07565,-0.0809 0.120387,-0.221859 0.13446,-0.306256 0.01161,-0.06961 0.02075,-0.138538 0.0075,-0.224099 -0.02286,-0.147548 -0.07019,-0.163145 -0.224099,-0.231585 -0.07969,-0.0354 -0.373754,-0.129978 -0.40338,-0.1419 -0.127155,-0.05123 -0.129171,-0.189857 -0.493019,-0.149429 -0.170989,0.019 -0.179146,0.04894 -0.224101,0.0822 -0.02335,0.01725 -0.06458,0.03971 -0.119534,0.126974 -0.244351,0.602824 -0.0854,1.230585 0.298814,1.299779 z m 14.118285,-2.285834 c 0,0.298815 -0.271833,0.932569 0.05231,1.195214 0.67754,0.212199 1.05855,-0.436661 1.434241,-0.209175 m 6.267307,-0.896399 c 0.285996,0.05266 0.475541,0.153553 0.76194,0.26892 0.223427,0.09 0.464246,0.246195 0.634963,0.448199 0.07673,0.09085 0.125095,0.12218 0.171798,0.2241 0.06055,0.132085 0.113258,0.387424 0.149384,0.58266 0.01727,0.09323 0.0299,0.09565 0.0299,0.179279 0,0.09999 -0.01769,0.12832 -0.05231,0.2241 -0.04733,0.131053 -0.08216,0.275464 -0.179282,0.403379 -0.05612,0.07396 -0.09058,0.105955 -0.171792,0.179281 -0.12886,0.116307 -0.310649,0.231046 -0.493021,0.261434 -0.08471,0.01412 -0.138449,0.01582 -0.2241,0.0075 -0.55141,-0.07426 -1.02044,-0.511349 -1.187729,-0.941219 -0.05168,-0.143065 -0.02242,-0.171929 -0.02242,-0.358559 -2.01e-4,-0.471904 0.467543,-0.964931 0.761941,-0.71712 l 0.08964,0.08964 m -16.13518,-0.761959 c -0.689528,3.988291 -0.457503,1.246007 0.6723,-0.0075 0.01376,-0.0093 0.08363,-0.08677 0.179279,-0.05226 0.154495,0.05571 0.08964,0.202183 0.08964,0.328665 0,0.136701 -0.02456,0.30742 -0.05975,0.4482 -0.01649,0.06589 -0.05177,0.167671 -0.06723,0.268919 -0.208822,1.242254 0.325818,0.304087 0.597585,-0.31374 0.192368,-0.432827 0.298502,-0.881295 0.575174,-1.344599 0.104342,-0.174708 0.365865,-0.448379 0.507991,-0.306255 0.07064,0.07064 0.134235,0.239921 0.149384,0.395895 0.0091,0.09426 0,0.16933 0,0.26892 v 0.179279 0.224101 0.224099 c 0,0.52278 0.0093,0.950497 0.313739,1.254959 M 15.68213,18.614324 c 0.07811,-0.138652 -0.178784,1.930007 -0.202787,1.804414 -0.0051,-0.02655 0.189225,-0.885443 0.191014,-0.903843 0.01703,-0.174976 0.0825,-0.518477 0.170796,-0.717119 0.105417,-0.237142 0.141138,-0.206978 0.276405,-0.35856 0.155077,-0.173811 0.408892,-0.214822 0.552765,-0.15687 0.02841,0.01143 0.27367,0.228627 0.313739,0.29133 0.122717,0.192098 0.159066,0.374651 0.17928,0.58266 0.02138,0.219842 0.03111,0.597898 0.02241,0.806759 -0.0078,0.187347 -0.02241,0.162607 -0.02241,0.403379 M 9.2302102,20.232015 c -0.239966,0.05051 -0.132801,0.05204 -0.40338,0.09712 -0.109316,0.0182 -0.53766,0.08215 -0.627479,0.08215 -0.115276,0 -0.222083,0.0052 -0.35856,-0.09712 -0.110615,-0.08292 -0.196625,-0.137239 -0.261435,-0.261435 -0.07001,-0.134191 -0.06203,-0.442508 -0.05231,-0.58266 0.0086,-0.124555 0.04406,-0.150774 0.119535,-0.268919 0.204962,-0.320866 0.328889,-0.639133 0.597584,-0.4482 M 18.283835,20.09755 c 0.251261,0.183358 0.313964,0.557426 0.2241,0.851579 -0.05714,0.187034 -0.07247,0.285638 -0.171794,0.448199 -0.08816,0.144276 -0.187349,0.239518 -0.321226,0.35856 -0.249825,0.222083 -0.477198,0.2241 -0.851578,0.2241 m 6.857435,-1.523879 c 0.26435,-0.07651 0.524797,-0.08964 0.6723,-0.08964 l -0.08962,0.31374"
       id="path110858"
       sodipodi:nodetypes="ccsscccccccccccccccccccccccccscccssccccccccsscccccscccsccssccccccccccccssscccccccccccccccccccccccccccccccccccccccccccccccccccccscsccccssscccccscccccsscccccccccscccccccccsccccccsssccccccscccccssccccccccccccccccccccccccccccccccsccsccccccccccccsccccccsssccccccccccccccccccccccccccccccccccccccccccccscccscccccccscccsccccccccccccsccscscsccscscccccccscccscccccccccccccc" /></g></svg>
