<?xml version="1.0" encoding="UTF-8" standalone="no"?>
<!-- Created with Inkscape (http://www.inkscape.org/) -->

<svg
   version="1.1"
   id="svg59"
   width="3000"
   height="1998.207"
   viewBox="0 0 2999.9999 1998.207"
   sodipodi:docname="WilF - Stake - Envelope60.svg"
   inkscape:version="1.2.1 (9c6d41e410, 2022-07-14)"
   xmlns:inkscape="http://www.inkscape.org/namespaces/inkscape"
   xmlns:sodipodi="http://sodipodi.sourceforge.net/DTD/sodipodi-0.dtd"
   xmlns="http://www.w3.org/2000/svg"
   xmlns:svg="http://www.w3.org/2000/svg">
  <defs
     id="defs63" />
  <sodipodi:namedview
     id="namedview61"
     pagecolor="#ffffff"
     bordercolor="#000000"
     borderopacity="0.25"
     inkscape:showpageshadow="2"
     inkscape:pageopacity="0.0"
     inkscape:pagecheckerboard="0"
     inkscape:deskcolor="#d1d1d1"
     showgrid="false"
     inkscape:zoom="0.68188474"
     inkscape:cx="409.89332"
     inkscape:cy="347.56607"
     inkscape:window-width="1366"
     inkscape:window-height="705"
     inkscape:window-x="-8"
     inkscape:window-y="-8"
     inkscape:window-maximized="1"
     inkscape:current-layer="g65" />
  <g
     inkscape:groupmode="layer"
     inkscape:label="Image"
     id="g65">
    <path
       style="fill:none;stroke:#8e868d;stroke-width:0.488517"
       d="m 232.6685,7.0064243 c -0.12604,4.7904027 -0.97703,7.7088097 -0.97703,12.7014587 0,3.488995 0.37225,11.274501 3.41962,13.189979 M 24.071421,7.9834574 C 24.683447,15.6313 24.965482,23.277363 25.048458,30.943792 M 254.6518,8.4719775 c -3.19837,6.1833815 1.70464,19.0951765 0,23.4488515 M 5.0192297,32.897862 c 2.7156699,0.214462 10.2495913,4.255479 11.5617493,-1.95407 0.39619,-1.87542 -2.058124,-3.512443 -3.256947,-4.478243 C 10.58247,24.257451 6.1853227,20.843687 5.5893299,17.265297 5.1628539,14.706928 7.596163,11.234545 9.9044094,9.855947 11.55511,8.870608 12.835025,8.960494 14.789586,8.960494 m 32.730686,0.4885165 c 0.276931,5.5710915 0.977036,11.0433975 0.977036,16.6096055 m 142.647182,4.39666 c -8.1983,3.020505 -11.45232,-9.125513 -7.16509,-14.573952 1.78016,-2.262324 4.88518,-4.658994 7.65361,-4.96676 5.04981,-0.561307 4.96822,1.963841 8.71174,3.419626 0.34564,-1.386244 0.66508,-2.321513 0.66508,-3.202472 m -89.98225,22.743181 c -5.20076,0 -9.24959,-3.43721 -9.77036,-8.793319 -0.35906,-3.694173 2.89789,-10.152866 5.9438,-12.538787 2.62823,-2.058611 6.67022,-0.558375 6.75767,2.76843 m 32.24217,-1.954069 c 0.1998,2.531988 1.11951,11.845286 1.11951,15.781762 m -80.712748,-8.99761 c 1.605268,0 7.680005,-0.595121 7.211028,-3.364529 -0.364436,-2.155338 -3.635551,-1.587194 -4.803596,-0.814357 -2.612653,1.965314 -2.93055,5.500152 -2.931107,8.142123 0,5.260361 4.23154,6.862211 8.304803,4.396659 M 42.421007,24.373201 c -3.205841,4.06831 -13.659771,8.757413 -12.894305,2.173932 1.085484,-7.106468 6.408373,-10.747389 12.888535,-9.849588 l -0.06716,11.040189 m 12.499964,-11.93799 c -1.787517,2.084357 -4.044242,3.490973 -6.637231,4.411875 m 89.68525,14.151796 c 2.3952,-0.441131 6.65752,-1.51196 4.31507,-4.885176 -1.57351,-2.265745 -4.59939,-3.773312 -5.78063,-6.350729 -1.44992,-3.163642 0.0132,-6.749364 3.41963,-6.83925 m 7.06328,5.502581 c 6.46223,-9.575364 9.57979,-2.991132 9.54632,5.733328 m 77.01107,3.627413 c -8.68779,4.567474 -13.57891,-3.499078 -10.97959,-8.512592 1.34733,-2.621875 6.81534,-5.180771 9.46262,-5.459226 m -18.82604,3.505156 c 1.91841,1.362964 9.18216,-0.150388 6.83925,-1.95407 -5.79139,-4.45848 -10.99105,7.497792 -4.65459,10.435248 m -86.97056,-0.438739 c -5.48598,3.549369 -10.19152,1.476736 -6.81118,-5.111333 1.73571,-3.124072 3.67512,-4.396659 7.01227,-3.741839 -1.13865,4.035368 -1.25313,8.643137 1.04828,11.558122 m 73.84772,-9.9333 c 1.49705,-1.268865 3.32452,-1.363419 4.69505,-0.481639 m 42.12111,-0.820967 6.83925,-0.48852 m -53.64197,-0.603808 -0.095,9.885648 M 18.209209,20.68492 h 9.580929 m 214.160202,0 v 7.327766 M 48.341993,20.17856 l 7.971598,5.880056 m 94.283929,20.517744 1.46555,19.052192 M 133.98792,47.064876 c 1.24168,7.14606 1.77455,15.830463 3.32463,22.91956 M 216.2898,55.871785 c 0.44456,-2.412788 7.98108,-8.343794 11.00501,-6.608579 1.52515,0.874936 1.32339,3.663396 1.05861,5.129437 -0.66389,3.67512 -8.98409,9.55216 -12.16532,11.812534 M 31.399188,52.438573 c -10.004819,5.449832 1.959693,13.862195 1.954073,16.609602 -0.133856,3.079127 -7.762061,2.724463 -8.630643,0 -0.02224,-3.857703 6.987311,-9.513668 9.607676,-12.212942 m 182.705636,-4.39666 c -2.25956,6.894629 -0.48773,14.919977 -0.48852,21.006262 M 5.9962664,57.323749 c 3.5647126,-2.532963 8.7478866,-6.767925 11.6428416,-0.977037 0.383975,0.767463 0.549583,1.665847 0.732777,2.44259 0.264291,1.119196 0.325844,1.659985 0.325844,2.931107 -0.05493,3.038 -1.720439,10.542483 -5.373697,10.177289 -1.249138,-0.225205 -1.328769,-2.430375 -0.406936,-3.093783 2.131581,-0.891276 4.073791,0.611026 6.269149,0.732776 m 84.513565,2.931107 c -2.50218,0.724474 -5.290155,1.181236 -7.246178,-0.977033 -3.300426,-3.641413 -3.117723,-10.001914 -0.977037,-14.167016 2.320949,-4.516348 9.688775,-6.278917 9.688775,0 m 127.01461,-3.908143 -0.48851,13.678499 c 2.39178,-0.629213 4.47775,-1.917434 7.32776,-2.44259 m -97.94781,-3.338043 c 1.21934,-1.829497 5.12944,-2.259392 5.12944,-5.455276 0,-1.90815 -2.57742,-2.552016 -3.74547,-1.38397 -3.1523,4.041161 -0.98038,15.179929 5.79437,12.694553 M 50.939898,64.651515 c -0.01612,1.168533 -0.232048,1.786022 -0.406936,2.931107 -0.205178,1.342446 -0.0044,2.313621 -1.058617,3.419623 -4.640432,4.868567 -7.947695,-3.004872 -7.734703,-6.839246 -1.219626,-10.972374 9.191558,-8.851356 9.200256,0.488516 z m 5.373693,6.35073 h 2.931106 c 11.058395,0 -0.08731,-9.367927 -1.829724,-11.400671 -0.470443,-1.410349 -0.258674,-4.665317 -0.258674,-4.665317 0,0 5.892975,-0.543614 8.439132,-0.543614 m 111.870559,4.315076 c 2.07327,1.32486 3.5525,2.607219 3.09379,4.966759 -0.37128,1.910107 -0.67513,4.098178 -3.09379,4.803597 -3.18415,0.928673 -4.43085,-3.319478 -4.39666,-5.78063 0.019,-1.368826 0.34099,-4.619423 1.95408,-5.047856 0.86028,-0.228626 1.79823,0.6468 2.44258,1.05813 z m 16.12109,11.806009 c -0.49926,-2.710786 -0.4636,-6.474814 -1.05862,-9.770356 -0.23595,-1.307761 -0.52251,-3.549925 -1.15808,-4.030139 0.38455,3.952615 -2.2273,12.963525 -6.0881,12.660782 -2.91971,-0.228945 -1.95407,-8.086432 -1.95407,-10.096196 m -63.81847,0.87314 c 1.73211,-3.618195 3.46422,-1.657248 5.19634,-0.87314 m 38.5929,22.471818 c 1.03077,-2.061546 0.97703,-5.035153 0.97703,-7.816286 0,-4.738133 -0.70737,-11.911038 3.90815,-14.655532 m -58.05203,0.732776 c 3.82949,-2.628224 10.9428,6.111357 5.29211,9.85194 -5.28283,3.49681 -9.16704,-7.192448 -5.29211,-9.85194 m 9.42011,-2.32636 0.26866,10.386903 m 37.61587,-7.816282 6.91376,6.309954 m -32.31669,-3.378848 h 6.1606 m 107.66404,2.44259 6.35073,1.465553 M 224.85222,89.56592 v 3.419623 l -1.46556,12.212947 v 8.3048 M 122.26349,90.542957 c 0.51466,7.931079 2.04329,15.636023 2.93111,23.448853 m 5.86221,-22.960337 0.97703,0.488517 m 125.54906,0.48852 v 15.14405 m 6.35074,-15.14405 c 2.64874,0 7.35854,-0.781631 9.20025,1.465553 3.14899,3.841215 -5.12162,9.327757 -8.71174,7.816287 0.65169,-2.251581 2.66926,-3.054217 4.88518,-2.931111 1.07816,0.06009 1.49047,0.123107 2.44259,0.977037 1.71861,1.541764 2.64434,4.765484 2.44259,6.839244 -0.58378,6.0073 -7.53832,3.00292 -10.25887,2.93111 M 63.152841,92.497027 l 0.977036,0.488516 m 152.906053,-0.488516 -3.90814,9.770353 10.25887,1.95407 m 19.54071,-9.770354 c 2.35319,-2.291147 5.35513,-3.042488 5.9438,0.48852 0.19247,1.157297 0.40693,1.731306 0.40693,2.931107 0,1.053733 -0.1319,1.512451 -0.32584,2.442587 -1.12362,3.62261 -6.49055,14.28616 -7.00192,9.77036 -0.49152,-4.34047 7.35514,-2.15615 10.25887,-4.39666 M 184.79376,93.96258 v 6.83925 c -0.1283,1.62791 -0.0453,3.25593 0,4.88518 v 3.41962 m 44.45512,0.48852 c 1.80067,0.14216 2.13042,0.40253 3.90814,0.0816 2.40448,-0.43429 4.59988,-2.1998 2.76843,-4.96676 -0.53142,-0.80274 -3.6454,-2.06218 -4.42436,-4.01678 -1.05278,-2.641636 0.27196,-5.997834 0.27196,-5.997834 0,0 4.72006,-0.24426 6.26914,-0.24426 m -68.3109,7.816284 c 0.234,1.20371 0.43967,1.75378 0.40694,2.93111 -0.0938,3.38005 -2.29164,9.02927 -6.83925,9.28183 -2.04933,0.11383 -2.75182,-1.67903 -3.50121,-3.41962 -1.41377,-3.28382 -3.6e-4,-14.69266 4.96676,-14.89979 3.1187,-0.129947 4.50707,3.74351 4.96676,6.10647 z m 8.22322,-6.35073 c 0,2.993637 -0.48852,4.99119 -0.48852,8.3048 0,3.10307 -0.90131,6.17829 0.97704,9.28184 M 22.605868,115.9459 c -2.700523,2.20321 -5.344381,3.3141 -8.793319,2.9311 -5.9589395,-0.66194 -7.1587365,-11.14748 -4.7224999,-14.65553 1.9457669,-2.80165 5.5857109,-7.440611 9.1191599,-7.7347 1.717141,-0.143134 2.864669,1.270147 3.501206,2.849526 0.480702,1.193444 0.406937,2.098674 0.406937,3.419624 m 5.373696,-5.373697 h 0.977033 m 87.586999,8.888467 c -0.77821,2.11186 -8.36896,10.95073 -10.64545,7.72114 -1.67904,-2.38153 -0.44113,-3.98728 -0.24426,-6.35073 0.31363,-3.76355 3.33999,-8.199775 7.70099,-7.948532 0.43331,2.647422 3.55543,7.614382 5.00047,9.902602 M 77.362885,104.371 c 0.645818,-3.06887 6.751763,-6.51298 8.099098,-2.10362 0.67171,2.19931 0.162676,5.30628 0.162676,7.81629 m -9.281839,-8.79332 c 1.233017,3.34683 1.693692,5.49582 1.954069,8.79332 m 14.167016,1.46555 c 0.116757,-1.47972 1.295318,-9.12577 3.752077,-9.12577 2.529544,0 4.813598,6.89813 6.506798,8.63725 m 74.74337,-7.62632 9.54617,-0.37993 M 58.756181,115.94588 c -1.221293,0.44992 -2.560322,1.28871 -3.908143,0.89545 -5.010236,-1.46116 -7.303339,-11.24324 -1.465553,-13.02681 1.439664,-0.44016 2.843664,-0.0425 4.396659,0.40693 m -21.00626,7.81629 c 0.148508,-1.88031 0.23351,-8.14408 3.419622,-7.81629 3.090851,0.31803 3.120653,7.17144 3.419626,8.79332 m 77.674318,-6.83925 5.3737,-0.97703 m 5.37369,0.97703 0.97704,3.41963 m -104.054279,-2.44259 0.977033,8.79332 m 34.196243,-7.81628 1.465554,7.81628 m 76.208769,-6.35073 -1.95407,6.83924 m 356.61798,28.82255 v 1.46556 m 6.83922,4.39666 c 1.95417,7.99579 2.81808,14.88506 2.93111,22.96033 m -57.64508,-22.47182 1.46555,25.21279 m 11.72443,-24.72427 0.97704,0.97704 m 49.21306,9.20724 c 1.319,-0.9785 5.82334,-0.13596 7.37195,-1.87948 1.69026,-1.89642 2.48056,-6.84385 0.083,-6.35073 -7.39046,1.52006 -12.40184,15.46169 -0.4615,17.28809 M 378.2468,156.98137 c -0.61436,7.69179 0.13586,14.96221 1.46556,22.47181 m 151.25037,-20.67381 c -3.59061,2.55104 -9.09171,6.03196 -9.09171,10.41494 0,3.50756 5.91629,3.64441 10.10272,4.54593 l -1.3094,-17.73591 v -7.32776 m -63.99584,10.74739 0.48854,13.18998 M 352.84385,160.40099 c 1.24173,8.29529 1.92489,16.54913 1.95409,24.91441 m 119.74124,-16.90815 c 0,-2.04592 3.35059,-7.68872 5.80784,-6.78496 3.30237,1.21299 1.72716,5.41417 2.71395,7.76199 -0.19785,-2.65171 3.80172,-8.75886 4.60693,-6.38474 l 3.4265,10.10291 m 9.28183,-10.25887 8.98314,-1.64193 m -113.93288,13.85487 c 0.64291,-1.95993 5.33949,-3.51781 7.0835,-5.45527 0.85247,-0.94724 1.77039,-3.01855 0.89545,-4.2335 -0.93502,-1.29897 -3.43086,-0.74303 -4.64089,0.0811 -6.15155,3.77601 -4.08992,19.81513 5.89841,14.66391 m 69.82185,-16.54991 0.0475,8.22324 m 20.47027,-6.0114 1.46555,9.28183 m -159.2568,6.83925 c 1.83388,3.08401 6.57494,3.84855 9.77033,3.09379 0.97019,-0.22912 2.6292,-0.3449 2.84954,-1.62823 0.36441,-2.11871 -5.35659,-5.99656 -6.59499,-7.81629 -3.49681,-5.13823 1.64436,-8.445 6.18805,-9.28184 m 36.63883,0.48852 c -1.32584,3.14899 -3.84535,6.20219 -7.08323,8.41762 m 24.18137,9.16902 c 1.65263,0.0435 3.36198,0.97704 4.88516,0.97704 1.06399,0 3.93794,0.19687 4.64093,-1.05862 0.59901,-1.06979 -0.96825,-2.53687 -1.54714,-3.33804 -1.62724,-2.25353 -2.98779,-5.26964 -3.09379,-7.81629 -0.0713,-1.71518 -0.53152,-4.98288 1.46556,-6.10647 1.58818,-0.8935 2.39911,-0.19247 3.90815,0.24426 m -155.83718,21.9833 c -0.8549,2.32046 -1.64581,4.94819 1.46556,5.78063 1.13971,0.30532 1.85148,-0.30191 2.9311,-0.40693 2.92085,-0.28383 10.71222,-2.18368 12.45721,-5.45528 0.75671,-1.41866 -1.12213,-2.51733 -2.19833,-3.17537 -3.18709,-1.94723 -8.3434,-4.41962 -8.79332,-8.46748 -0.46849,-4.21444 2.89837,-10.5085 7.32776,-10.25887 2.86565,0.16121 1.95408,2.93062 1.95408,5.3737 m 28.54792,4.11189 c 3.09253,-1.7149 6.98841,-4.65317 6.05526,-7.53152 -0.6898,-1.91255 -2.86127,-0.65168 -3.58232,0.48852 -2.53636,5.01995 -5.49669,17.73836 4.00975,16.0261 m 17.94661,-0.67849 c 4.90539,-2.8595 8.73672,-9.00079 6.54037,-13.39354 -1.68444,-3.36931 -5.31022,-3.63311 -7.92469,-2.65966 l 2.63257,30.50517 m 45.41956,-22.24566 c -0.69076,1.74938 -7.21603,7.36737 -9.26927,7.02003 -2.2457,-0.37958 -1.95406,-3.04444 -1.95406,-4.8036 0,-0.94039 -0.0484,-1.54909 0.16268,-2.44258 0.96093,-4.06984 4.87443,-7.89983 9.32983,-7.91389 l 2.72043,14.75313 m -59.65682,-4.01672 c 2.23351,-1.58719 5.61065,-5.97932 3.72156,-8.60316 -1.06792,-1.48362 -2.86369,-0.3957 -3.33806,0.89546 -2.60938,6.12875 0.95961,14.1935 5.53639,11.23591 m 29.31106,-9.28184 c 2.34489,-0.67904 5.34975,-1.50952 8.30478,-2.44259 m -62.53026,2.93111 -0.97703,12.21294 c -2.76354,-2.02686 -3.32778,-7.48214 -5.3737,-10.25887 -2.25841,3.7313 -1.87297,11.75227 -6.83924,13.18998 l -0.97704,-6.35073 0.48852,-6.83925 m 166.58455,0.48852 c 4.26967,0 7.37173,-0.97704 11.23592,-0.97704 m -79.64941,-0.72045 c 2.19587,0.92428 8.02097,1.86309 10.27987,1.20897 m 282.85181,5.37369 c 2.44256,1.02931 4.04001,-0.72935 6.83922,-1.46555 1.15779,2.75377 0.28336,2.96872 0,5.86221 -0.44941,4.61308 -1.95406,11.25301 -1.95406,15.63257 m -17.58664,-15.14405 c -2.77968,-1.79823 -0.49829,-4.59744 1.95406,-3.74546 6.49731,2.25695 5.25646,13.14601 1.73701,16.94895 l 6.0793,-4.89869 m -73.7662,-6.83925 c 2.58915,2.88031 2.2472,9.7132 -1.46556,11.72443 -2.58424,1.39911 -4.39175,-0.0777 -5.21246,-2.44259 -0.84027,-2.42354 -0.68881,-4.67218 -0.64975,-7.32776 0.0147,-1.17049 0.0194,-3.95407 1.06011,-4.64092 1.52905,-1.00879 5.13431,1.42647 6.26766,2.68684 z m 57.15657,8.79332 c 0,1.64631 -0.49338,4.50023 -2.9311,4.23399 -1.21641,-0.13337 -1.58767,-1.78358 -1.871,-2.76843 -1.36788,-4.68293 -4.27872,-13.39577 1.38249,-13.18998 5.28698,0.19219 3.41961,6.49582 3.41961,11.72442 z M 581.4702,186.29243 c -0.15249,4.40878 -0.13601,14.07315 0.97701,18.07516 m 44.45514,-2.93111 c 1.9394,0.76551 3.50267,2.52857 5.37367,3.25695 1.89547,0.7362 7.89768,0.83101 7.89768,-2.15774 0,-1.56326 -5.50271,-6.03784 -6.28437,-7.3412 -1.58279,-2.65314 -1.61331,-6.45947 -1.61331,-6.45947 0,0 7.71372,-1.95407 10.25887,-1.95407 m -70.34656,0.48852 c 3.02938,6.19971 2.93111,11.85404 2.93111,18.56367 m -81.09393,-4.88517 c -0.0635,4.50364 -4.76902,8.8502 -8.42074,11.91044 -0.63275,-4.14638 -1.30684,-20.01664 -1.30684,-20.01664 0,0 9.81551,1.92938 9.72758,8.1062 z m 19.05219,5.86221 c 0.36639,3.49583 7.57563,5.1516 8.79332,1.95407 0.8635,-2.26744 -3.73716,-2.76501 -5.2125,-4.88518 -3.49776,-5.03369 -0.24423,-11.07958 5.701,-11.23591 m 24.4259,11.23591 c -0.92329,0.89985 -2.92132,3.3146 -4.39666,2.68685 -2.1792,-1.83801 -1.6594,-8.80602 -1.46555,-10.99165 0.25893,-3.09671 2.9702,-2.44259 5.86221,-2.44259 m 60.08769,0.48852 10.74737,-0.48852 m -154.22895,10.67943 c 1.55315,-3.81205 8.79694,-12.83771 10.52171,-8.72536 1.54942,3.72215 -6.4067,19.60429 -9.10709,13.08468 4.6868,-0.11092 9.57014,1.40455 13.58678,-0.87174 m 48.8518,-13.67849 h 8.79332 m -74.25471,2.93111 4.88516,19.5407 m 63.99584,-22.42878 c -0.20309,5.48252 0.49085,12.43222 0.4885,18.03212 m 9.49899,-14.2145 5.53649,-0.48852 m -142.0501,0.53601 c -0.40526,8.18648 0.0337,15.05037 1.46555,22.96033 m 20.40182,-13.45863 c 0.42989,-2.32241 1.25419,-7.20957 4.02408,-7.87347 1.45577,-0.3488 2.80408,1.13043 3.58086,2.27991 1.87591,2.77381 2.7699,7.67413 2.7699,10.74739 m -80.60548,-3.90814 c 0,-2.93452 0.51247,-6.35073 4.39666,-6.35073 2.42209,0 5.77428,1.79872 6.67659,4.39666 1.41426,4.07326 -5.01153,10.58449 -7.35396,14.00802 m 31.454,-0.81804 c 2.95946,0 9.03367,2.28675 10.99165,-1.46555 1.86224,-3.5696 -9.82994,-13.46502 -1.70979,-13.6785 m -15.17844,7.37971 c 1.20373,-1.54127 7.74757,-2.18774 6.79203,-5.42564 -0.55006,-1.86516 -3.32142,-0.8891 -4.15239,0 -3.5995,4.57594 -4.1603,11.09457 1.73317,12.26489 m 32.30039,-6.8912 c -0.1407,3.3781 -3.59596,5.59207 -6.83923,5.86222 -2.70394,0.22521 -4.08647,-2.65852 -3.25697,-5.3737 0.92528,-3.02832 4.65705,-5.97262 7.65363,-6.5134 3.08254,-0.55642 2.52075,4.10452 2.44257,6.02488 z m -63.62327,-9.03102 c 0.051,7.90555 1.45255,20.27536 2.55857,28.08322 m 42.01251,-23.44886 h 4.39666 m -33.43275,5.8407 c 0.73666,-1.9995 2.90919,-4.31749 5.09873,-4.37514 m 46.67787,-9.33589 1.19688,12.75551 m -53.24846,-2.44259 c 0,3.83536 0.86226,8.44941 1.46555,11.72443 m -105.51982,-9.28184 c 1.936,6.68732 0.48852,15.7889 0.48852,22.96034 m 48.85177,-22.47182 v 17.09812 m -44.45511,-15.14405 c 2.92329,-1.76941 9.97749,-2.83975 11.96868,0.97704 1.82685,4.88828 -0.88794,10.3649 -5.61795,11.72442 -0.66634,-7.91703 8.84765,-7.62674 8.79332,-1.95407 -0.0376,2.71421 -0.99413,5.42353 -2.44259,7.81629 m 17.09812,-18.31942 c 1.50952,-0.89057 4.22618,0 5.21103,1.22129 2.09816,2.60185 3.19586,11.48115 -0.81437,13.1084 -4.53589,1.84074 -8.34047,-12.00239 -4.39666,-14.32969 m -7.32777,0.73278 c 0,1.53785 0.0523,3.1441 0,4.39666 -0.086,2.06594 -1.71176,10.47089 1.95408,9.28183 m 195.40711,4.88518 c 0.61472,5.32029 -1.67399,24.32134 1.95406,26.86848 0.91355,-1.50757 1.31899,-2.52613 1.46555,-4.39666 m -30.28808,-13.6785 c 1.55349,-3.10795 3.00439,-5.95992 6.83923,-5.37369 4.18173,0.63898 4.09867,11.2916 3.25844,14.65553 -0.3713,1.47337 -1.37762,2.9868 -2.7699,3.66388 -2.65265,1.2892 -4.52163,-4.1375 -2.4426,-4.1524 3.81465,-0.0273 4.47529,6.35127 8.30481,3.41962 m -50.31735,-14.65553 10.66436,-2.19833 -0.40549,6.10648 v 19.5407 m 68.23129,-22.96033 c 0.73278,2.08988 0.16121,6.56519 -1.79285,8.14213 -2.33514,1.88323 -4.65071,0.76453 -5.53492,-1.7914 -0.72299,-2.07082 -0.0341,-3.87346 0.16121,-5.86221 0.0928,-0.97899 -0.46897,-2.42745 0.57157,-3.17537 1.91987,-1.38495 5.92571,0.78847 6.59499,2.68685 z m -58.46092,17.09812 c 15.62687,-2.92082 9.52917,-6.62566 2.84999,-11.17733 -1.82216,-2.57075 -1.38444,-6.89782 -1.38444,-6.89782 0,0 6.58034,-0.84661 7.81628,-0.48852 m 27.84551,2.9311 c -0.13678,1.73131 -3.60526,8.0244 -0.48851,8.71174 2.02734,0.44748 8.60954,-1.01142 10.71015,-1.01142 m -96.68928,-5.74624 c -2.43634,7.53749 -3.43013,14.01157 -7.81627,20.51774 m -15.14408,-18.56367 10.65226,-0.56991 m -82.46437,1.05842 c 0.11284,4.28479 3.36589,12.77621 4.8852,17.58664 m 134.06061,-17.72097 -12.90823,0.62285 m -131.8998,0 0.97705,14.65553 0.48851,6.83925 m 92.32986,-21.00626 8.30481,14.65553 m -19.32358,-16.34753 2.79555,16.34753 0.40694,3.41962 m -59.11064,-0.97703 c 1.03564,0.38153 1.83436,0.85491 2.93111,0.97703 1.45284,0.16121 3.79432,0.0733 4.31506,-1.46555 1.23499,-3.6463 -7.99459,-12.05661 -0.89545,-14.16701 m -12.04241,12.36563 c -14.10394,3.06914 -6.95336,-10.85904 0.44314,-11.71812 -0.22855,2.07984 -1.71381,10.88883 0.36335,13.5195 m -51.29435,-13.48837 0.10866,25.34168 c 3.79714,-4.71806 10.15022,-9.00867 10.15022,-14.78442 0,-1.56765 0.35417,-2.90716 -0.16268,-4.39666 -0.90229,-2.59891 -7.55151,-6.57691 -10.0962,-6.18805 -2.20761,0.33757 -3.64238,2.4846 -4.88517,4.23398 m 27.23466,11.1953 c -2.79774,2.72446 -11.09648,5.88524 -10.05496,0.52913 0.75134,-3.86564 3.39227,-6.61795 7.89077,-7.35143 0.81801,2.17271 2.79458,11.97574 6.68318,11.25957 m 58.62214,-4.39666 -3.90816,7.32777"
       id="path177"
       sodipodi:nodetypes="csccccccccccccccsccccccccccccccccccccccscccccccsccccccccccccccccccccccccccccccccccccccccccccccsccccccccscccccsscccccsccccsccccccccccccccccccccccccccccccccccccscsccccccccsccccsscccsccccccccccccccccccccsccccccccscccccccccccccccccccccsccccsccccccccccscccccccccccccscsccccsscssccccscsccccccccccccscccccccccccccccccccccccccccccccccsccssccccsccccccccccscccccccccccccccccccccccccccsccccccccccssccccccccccccccccccccccsccccccccccccscccccccccccccccccccccccccccccccccccccccccccsccccccccc" />
  </g>
</svg>
