<?xml version="1.0" encoding="UTF-8" standalone="no"?>
<!-- Created with Inkscape (http://www.inkscape.org/) -->

<svg
   version="1.1"
   id="svg9772"
   width="2730.6667"
   height="1316"
   viewBox="0 0 2730.6667 1316"
   sodipodi:docname="WilF - Stake - Envelope19.svg"
   inkscape:version="1.2.1 (9c6d41e410, 2022-07-14)"
   xmlns:inkscape="http://www.inkscape.org/namespaces/inkscape"
   xmlns:sodipodi="http://sodipodi.sourceforge.net/DTD/sodipodi-0.dtd"
   xmlns="http://www.w3.org/2000/svg"
   xmlns:svg="http://www.w3.org/2000/svg">
  <defs
     id="defs9776" />
  <sodipodi:namedview
     id="namedview9774"
     pagecolor="#ffffff"
     bordercolor="#000000"
     borderopacity="0.25"
     inkscape:showpageshadow="2"
     inkscape:pageopacity="0.0"
     inkscape:pagecheckerboard="0"
     inkscape:deskcolor="#d1d1d1"
     showgrid="false"
     inkscape:zoom="0.28209047"
     inkscape:cx="1301.0011"
     inkscape:cy="689.49511"
     inkscape:window-width="1920"
     inkscape:window-height="1051"
     inkscape:window-x="-9"
     inkscape:window-y="-9"
     inkscape:window-maximized="1"
     inkscape:current-layer="g9778" />
  <g
     inkscape:groupmode="layer"
     inkscape:label="Image"
     id="g9778">
    <path
       id="path10207"
       style="fill:none;stroke:#787475;stroke-width:1.09646"
       d="m 532.65596,524.81751 c -12.59602,29.87966 25.35414,3.20042 -2.53223,-2.33293 m -4.71731,-3.98617 c 1.0834,7.7275 -2.20111,17.25441 0.59221,24.52321 m -5.18699,-20.26147 c 0.42609,3.64229 -8.3769,12.79554 -1.79706,11.37068 3.94472,-0.85425 6.48547,-1.72297 9.8226,-4.28008 m -22.05494,-5.78639 c 5.9809,-9.93825 7.77445,3.84645 2.45053,11.68298 -0.55628,0.81883 -1.79449,2.83717 -3.04275,2.38801 -1.62314,-0.58402 0.10513,-4.49817 1.9196,-4.31682 3.36335,0.33617 4.06392,6.96861 8.20932,2.0574 m -29.37273,-12.81146 c 3.60269,-2.64015 8.05684,-2.29619 12.29359,-2.29619 m -5.06446,3.06769 c -11.34893,6.57487 0.91151,10.8894 2.79771,14.62209 1.14715,2.27012 -6.59996,-0.51686 -7.35166,-1.13892 m -11.7422,-8.61525 c 3.72692,-0.13882 7.32247,-1.43759 11.00704,-1.87369 m -12.49779,-5.03324 c 2.42881,0.50464 4.43112,0.5697 6.18764,-1.0103 1.70775,-1.53622 0.68027,4.5554 0.73517,6.85177 0.12264,5.13115 0.29627,11.77285 0.4901,16.07328 m -41.08759,-17.7816 c -3.78469,4.96676 -8.41015,10.66101 -11.39506,16.40388 m 2.43015,-18.24084 c 2.71427,5.57752 7.45929,11.27651 9.41417,16.91825 M 419.4948,526.33422 c 3.83662,-0.52222 7.93847,-0.85516 11.68095,-1.15727 m -7.6988,-4.24335 c -0.0539,8.02373 1.30101,17.61548 3.94131,23.9905 m -32.07007,-5.18032 c 0.037,2.84362 -0.82833,5.64239 -1.49078,8.39481 m -15.78564,-8.94591 c 0.76382,2.24307 2.09243,3.14795 4.39058,3.21464 9.89945,0.28727 -1.76715,-8.3167 -2.24633,-9.99297 -1.0859,-3.79858 2.06763,-8.18887 4.77856,-3.52694 m -10.55777,1.12054 c -2.58046,-9.67367 -11.33163,7.38832 -7.53544,11.11351 5.3942,5.29335 6.20806,-11.67004 6.20806,-10.08483 0,3.29336 -1.14683,14.18396 5.35036,8.67038 m -21.03388,-19.15932 c 1.6073,6.67622 0.66493,14.33749 4.26801,20.42683 m -10.27187,-16.91825 c 2.11212,5.56308 0.50417,15.39073 4.9011,19.4165 m -9.55716,-11.26048 c -4.37771,-1.58902 -12.91111,8.13455 -10.35357,12.16057 3.14015,4.94312 7.69311,-5.21089 7.86217,-7.12733 0.15216,-1.72425 0.71475,-6.8744 0.71475,-5.14345 0,3.26134 0.51519,17.55278 6.75944,11.18698 m -24.15835,3.69226 c -1.90042,-6.19682 -2.82956,-14.15357 -5.187,-20.75748 12.02111,-1.26051 12.0953,14.63474 5.187,20.75748 z m 20.60092,-60.35393 c -0.27658,1.49863 -0.70242,3.00461 -0.73516,4.53725 -0.32779,15.33167 10.54994,11.99527 5.22783,-1.34097 -0.85977,-2.15447 -2.07644,-3.60381 -4.49267,-3.19628 z m -22.66761,1.06542 c 16.15407,-11.01247 4.84703,14.58035 3.18574,13.29949 -1.52669,-1.1771 3.57276,-7.93898 4.98279,-6.8518 2.99296,2.30765 -0.20826,9.62 -0.51055,11.95847 m -14.76457,-19.80224 c 0.67925,7.64425 1.40975,15.26893 3.04278,22.74139 m 20.13535,-25.05593 c 0.067,6.57946 0.60585,13.20461 1.7154,19.69204 m 15.74476,-23.29245 c 1.35404,7.40191 2.26247,14.93883 3.49205,22.37397 m 76.92498,-12.96617 c 3.54401,28.12122 0.78572,-25.28036 11.39505,3.74735 0.67838,1.8561 1.13838,3.90367 1.38867,5.80478 m -16.2349,-10.7094 c -7.69275,16.043 13.23857,7.39562 -0.8577,-3.74737 m -12.12746,4.76623 c 4.3021,-0.16833 8.54853,-1.04064 12.3957,-2.99422 m -9.61844,-10.50732 c 0.50522,7.01758 2.07477,16.5122 4.02301,22.19027 m -5.61584,-13.17087 c -0.27168,-1.08261 -1.16579,-2.30032 -2.51181,-1.94717 -0.87304,0.22906 -2.03282,1.22987 -2.47098,1.9839 -5.36114,9.22561 6.57254,5.75377 8.08682,10.92984 1.47798,5.05213 -7.32758,4.14721 -9.29167,2.49821 m -12.80414,-8.17439 c 2.09798,0.0719 3.90037,-0.50118 5.73838,-1.46955 6.26086,-3.29863 -4.18218,-4.31271 -2.30762,3.93106 1.39686,6.14293 7.30039,2.57788 10.08809,-0.0551 m -20.03323,-6.17212 c 0.92562,1.69615 1.63943,3.49984 2.14422,5.36387 5.51594,20.36922 -5.94392,-5.9045 5.12574,-5.03322 m -18.58335,-2.60846 c 7.18899,-11.72084 11.66152,6.4447 4.49267,11.07677 m -2.57307,-13.42806 c 3.76939,6.99342 4.47192,16.74492 3.20615,23.99047 m 91.60342,-30.49569 c 1.16805,5.43201 3.33155,10.85837 3.61455,16.45901 0.53071,10.50231 -3.01232,-16.40674 2.87941,-16.95499 5.62549,-0.52347 -1.01493,15.30308 -3.67583,13.99751 -0.50514,-0.24784 1.06023,-1.87169 1.81749,-1.57977 4.77874,1.84226 8.934,8.85417 12.3957,-0.16532 m 0.8577,-11.37068 c -0.47048,2.18547 -0.60977,4.50368 -0.44927,6.74158 0.19717,2.74884 0.6514,5.4798 1.30697,8.15603 2.60417,10.63147 -4.54688,-14.6569 4.51307,-15.65076 1.73005,-0.18978 2.67004,1.09957 3.4308,2.53498 5.37292,10.13767 -3.75546,24.68371 -10.65992,13.77708 m 46.66322,-20.67963 c 1.23313,-6.21662 -9.87798,4.20197 -7.67839,9.3133 0.98955,2.29946 11.71181,5.98188 9.74094,8.02745 -2.80918,2.9157 -11.11046,5.65352 -11.86474,1.83694 m 11.00707,-15.59565 c 4.15161,-0.69348 8.36359,-1.84069 12.57949,-1.48792 m -8.49526,-2.97585 c 0.22697,6.24051 0.32945,12.60495 1.67457,18.71846 m 3.32864,-15.37522 c 3.78078,-0.009 7.54001,-0.50297 11.31339,-0.69804 m -10.43527,7.58657 c 2.75924,-0.5771 5.43775,-1.21658 8.22977,-0.77151 m -5.41164,-6.57626 c 1.5912,6.21477 0.0145,24.18756 8.65862,12.69328 m 22.01585,-18.52357 c 1.66989,6.94767 -0.0433,14.2998 1.53158,21.19833 m 3.41035,-20.24312 c 1.10255,5.60764 1.18668,11.33597 1.98088,16.99173 m 4.65603,-14.82413 c -10.46588,24.40755 19.59074,8.13582 -3.22656,0.33065 m 16.2349,7.69679 c 3.35352,-0.33848 6.16211,-2.71002 9.33254,-3.7841 m 6.84111,-6.26398 c 5.21085,-1.77686 10.89621,-2.27209 16.13278,-2.70031 m -11.4563,-0.95521 c -0.81288,2.53283 -0.87377,5.02616 -0.0409,7.54984 0.71264,2.15924 7.23866,8.51285 6.45312,10.3971 -2.3995,5.75583 -12.84486,-4.46534 -13.92728,-6.22724 m 19.56354,-11.66459 c -0.93127,2.16043 -1.87238,4.35622 -2.43011,6.64974 -5.06653,20.83409 14.20938,3.8356 5.39119,-1.24913 -2.72391,-1.57067 -4.93046,-0.74054 -7.45374,0.69804 m 14.09065,-4.2066 c 16.5092,-10.34526 5.43207,15.02489 5.43207,13.17089 0,-0.0499 7.68528,-2.37711 8.53609,-5.56594 m -1.30697,-10.52569 c 13.03474,-4.46249 6.82178,9.49433 6.18764,17.70814 M 568.55398,423.13098 c 0.15909,8.05709 0.33616,17.69518 1.89918,25.05592 m -1.81748,-15.4487 c -3.73733,-7.88781 -14.97605,16.72499 -6.16722,16.91825 3.95125,0.0867 6.00825,-3.88863 7.80092,-6.74158 m -20.40083,-6.50278 c 2.20514,0.14721 4.3982,-0.008 6.51438,-0.67967 6.13231,-1.94689 -0.16202,-4.35601 -2.81813,0.4225 -3.28118,5.90296 -0.51091,10.9157 6.00383,7.66005 m -17.80732,-19.21443 c 3.25754,7.02895 3.18675,15.73808 4.88068,22.63115 m -9.21001,-12.43611 c 3.35175,-0.27355 6.53867,-1.50203 9.78181,-2.24107 m -13.09004,-9.18472 c -0.35023,-0.13562 -2.55043,-0.38092 -2.59351,-0.38576 m 5.73838,12.82187 c -0.25526,5.44131 0.66271,10.65035 2.79771,15.59565 m -21.2177,-16.71619 c 2.24108,4.93284 -0.33173,14.3161 0.89854,12.76676 0.35059,-0.44151 2.51787,-13.99221 3.67583,-12.76676 3.00662,3.1818 -0.36945,13.50322 0.98023,12.28916 0.83605,-0.75204 1.39044,-5.22575 1.6337,-6.42931 1.9898,-9.84428 2.54949,4.51863 4.49269,6.55789 m -18.37914,-19.56345 c -0.76893,-0.52526 -1.67559,-0.66349 -2.55265,-0.86336 m 3.20611,9.3133 c 2.63181,3.88359 3.70571,8.61734 5.30953,12.78513 m -22.36126,-0.4776 c 5.02261,-1.79851 10.35194,-2.79803 15.64268,-3.41672 m -14.6012,-17.78162 c 1.15357,7.76044 3.19407,15.49761 4.37017,23.25571 m -43.55858,-13.02393 c -13.36603,3.2837 1.21968,10.27003 1.73582,13.51991 0.91942,5.7893 -9.51386,1.26187 -10.74159,-0.20207 m -7.69116,-10.2871 c -8.14506,12.00821 15.82502,-5.28598 6.71858,-1.83694 -5.90998,2.23839 -10.65597,21.27856 3.10403,6.09865 m -15.21384,-9.12961 c -12.80859,8.42999 -5.87824,19.24457 7.1066,9.62558 m -17.56229,-16.20184 c 1.6927,7.33315 0.13973,15.61838 3.77795,22.42908 m -9.00722,-9.34171 c -0.7492,-7.89536 -11.48836,8.70022 -7.65798,11.40742 3.6952,2.61166 7.1075,-12.21772 7.65798,-11.40742 0.25739,0.37888 -0.22335,16.90274 4.02298,10.19503 m -19.17557,-25.33145 c 2.20068,9.27041 3.54401,20.11317 5.32995,28.74817 m -8.55651,-11.7197 c 5.48366,-2.14569 11.44354,-1.82711 17.13347,-2.62683 m -21.18956,-1.61824 c -3.40454,0.84453 -5.88441,4.31437 -5.98344,7.78865 -0.1027,3.60239 7.09799,4.95896 6.26934,6.30071 -2.65897,4.30523 -9.22161,0.15103 -10.92541,-2.68193 m -8.80154,-7.18245 c 0.19184,2.70498 0.82713,5.40629 1.3478,8.08255 0.65405,3.36191 0.92051,7.23534 1.02107,10.67264 0.39045,13.34603 -2.23959,-17.74688 1.00065,-20.90442 3.22003,-3.13788 4.95879,11.67995 -3.16532,14.27306 m -13.86603,-6.33746 c 2.609,0.91932 5.2708,-0.0865 7.22912,-1.96553 5.22399,-5.01236 -1.05228,-7.6645 -3.00191,-0.33065 -2.37057,8.91729 4.29249,12.81101 10.47611,6.17213 m -25.05689,-2.38802 c 2.40197,-0.31481 5.00208,-1.2112 6.71861,-3.01259 4.52265,-4.74628 -1.01893,-8.43801 -3.12449,-0.71641 -2.56965,9.42373 5.38304,9.64757 10.12896,4.2066 m -25.62869,-8.67038 c 0.16747,2.131 0.9386,4.1696 1.24572,6.30072 0.25598,1.77626 0.50025,3.58902 0.55138,5.38225 0.0239,0.83965 0.045,4.70917 1.51117,4.4454 1.41626,-0.2548 2.25256,-12.17754 2.32803,-12.16057 2.57132,0.57825 0.0352,12.04289 4.92151,12.38101 2.56867,0.17773 0.63624,-8.52873 0.46968,-9.64396 -0.39215,-2.62599 -0.82096,-4.98646 0.18378,-7.43962 m -22.01411,-3.08607 c -1.64715,0.78453 -3.28251,1.63935 -4.81939,2.62683 -20.56106,13.21084 8.99286,12.60043 9.59799,16.95499 0.50337,3.62251 -12.066,10.39103 -10.65992,0.0919 M 234.23633,272.46888 c 15.1495,-3.37287 2.59042,9.43079 2.34845,8.56016 -0.0856,-0.30819 0.90254,-1.00615 1.10275,-1.17565 4.38281,-3.71055 9.64496,10.0428 -0.2859,7.89886 -2.00716,-0.43332 -3.63464,-1.74068 -5.12574,-2.86563 m -4.71731,-9.75417 c 0.25161,4.97476 0.20903,9.99415 0.63306,14.95272 M 211.01736,276.3632 c 3.83804,-5.50188 9.22159,-0.1859 7.33123,5.06996 -0.72434,2.01392 -1.89924,3.92575 -3.24698,5.56594 -0.42594,0.51838 -1.78873,1.97516 -1.44991,1.39608 0.74646,-1.27577 3.17291,-2.36914 4.53352,-1.48792 2.38548,1.54497 4.35241,2.18128 7.02492,1.02868 m -30.40726,-15.0262 c 4.69175,0.17828 9.39774,-0.20325 14.00899,-0.97358 m -9.986,0.6062 c -7.52355,6.8858 4.25388,10.20726 5.16658,15.33847 0.83234,4.67944 -7.82879,0.96423 -8.98536,-0.55108 m -4.88067,-17.02847 c 1.06949,7.74945 -0.15538,16.05766 1.65412,23.67821 m -6.75944,-22.46582 c -2.57568,9.16314 -1.95305,16.25346 9.23041,10.26851 M 158.35858,270.0426 c -0.13148,6.88515 2.1749,14.27405 2.45055,20.72073 m -8.98536,-9.93787 c 4.01138,-1.3631 8.56586,-2.13506 12.31402,-3.82084 m -12.33444,-3.74736 c 0.31402,6.20066 1.21901,12.4739 1.30696,18.64498 m -15.23426,-16.62435 c -3.22572,16.5386 15.35113,12.95712 4.32931,0.62457 -1.46002,-1.63365 -2.46439,-1.84459 -4.32931,-0.62457 z m -14.9788,13.53563 c 0.12529,3.27238 -1.8289,6.16066 -3.14487,9.0745 M 99.412813,269.048 c 2.837647,7.91129 -0.39292,17.74998 2.430127,25.36819 m 9.90431,-24.54156 c -1.00794,-0.66804 -2.04212,-0.64498 -3.18572,-0.71641 m -11.068317,11.82991 c 6.794277,7.06315 10.975527,-6.70956 12.273167,4.57399 0.28202,2.4522 0.7929,5.2546 1.06191,7.5131 m -17.664387,-11.536 c -3.27495,-10.13974 -14.06506,3.3479 -8.78114,8.10092 4.02778,3.62309 8.65765,-8.24124 8.78114,-8.10092 0.26333,0.2992 -0.34462,13.33077 5.77922,3.80247 m -25.2611,-3.94943 c -0.49826,18.89626 1.88345,-7.8212 3.53288,-2.47987 1.61702,5.23638 1.57267,7.30297 7.26997,8.35809 m -26.75605,-8.72907 c 0.28524,1.89462 0.82873,3.75284 1.38865,5.58431 0.69228,2.26446 1.05335,4.4059 1.24569,6.74158 0.0292,0.35453 0.0613,1.42116 0.0613,1.06543 0,-1.28864 0.86721,-15.97408 3.71667,-13.29947 2.77211,2.60199 3.25205,8.6728 4.53353,11.60948 m -14.64209,-19.63693 c -1.27976,-0.84883 -2.60719,-1.53244 -4.00256,-2.16759 m -3.75752,8.63364 c -7.51905,-6.70906 -12.64853,11.00733 -4.94194,12.91371 3.01705,0.74633 7.39675,-1.5462 8.78114,-4.2066 0.94611,-1.81815 1.61328,-7.98291 1.61328,-5.93333 0,3.35444 -0.49693,7.3569 2.71603,9.31331 m -27.67081,-13.09741 c 0.0931,1.96732 0.43606,3.91922 0.61264,5.87822 1.27443,14.13873 2.37002,-12.24931 5.41163,-4.04128 1.29967,3.50726 0.19105,9.57421 4.92153,9.7358 m -14.23362,-19.4716 c -0.95034,-0.24881 -1.86782,0.0929 -2.71603,0.18369 m -4.65605,3.10444 c -2.41364,-11.63669 -16.24581012,6.37586 -5.73837,11.97687 2.77174,1.47748 8.02686,1.65158 9.47547,-1.72672 0.80766,-1.88358 1.11759,-3.99737 1.16401,-6.04355 0.007,-0.31861 0.0408,-1.2739 0.0408,-0.95521 0,4.58739 1.12335,8.35485 2.89982,12.50959 M 5.3310729,233.4875 c 14.5183301,-10.99978 8.3350901,20.31843 2.71603,17.10194 -1.62233,-0.92866 0.37616,-3.98662 1.77665,-4.16986 6.0896901,-0.79677 8.4586501,6.18139 14.6012001,-3.17791 m 1.40906,-4.75769 c -0.69227,-3.73182 -4.54136,-0.761 -4.96236,1.65325 -0.74513,4.27294 7.76821,4.8047 7.96429,9.03777 0.10316,2.22704 -3.77638,3.3841 -4.14552,0.6613 -0.80252,-5.91955 2.5602,-11.72231 3.57372,-17.0101 m 10.2785,2.41529 c -2.52892,0.91478 -3.06318,4.09539 -3.06318,6.70484 0,12.7 12.67372,4.26756 3.06318,-6.70484 z m 3.8392,1.3226 c 4.42515,-0.19537 8.61943,-2.21233 12.49781,-4.18823 m -7.73966,2.66357 c 0.33506,3.12941 -2.45276,7.34994 -1.10274,10.50732 0.67538,1.57957 7.42314,3.60266 6.12637,6.22723 -0.87451,1.76997 -5.52268,-1.35643 -6.22848,-2.00227 m 43.78318,-16.42227 c -4.50834,-10.14296 -16.64762,10.90878 -6.5348,14.8425 3.1874,1.23985 4.99561,-0.15254 7.18828,-2.31454 m 2.56376,-7.34663 c -1.9789,0.46273 -2.72568,2.32584 -2.92024,4.28008 -0.96133,9.65626 16.917447,4.40576 7.00449,-2.51661 -2.41056,-1.68334 -3.80046,-1.80729 -6.8207,-1.34097 m 10.190207,-1.23076 c 1.2148,1.64138 1.85381,3.53039 1.94002,5.56594 0.51786,12.22795 -1.4294,-3.02486 2.3076,-4.51888 1.41887,-0.56724 4.4501,2.92347 7.51503,1.63488 m -2.77729,-1.94716 c 3.97896,0.95481 9.05308,0.94555 12.74286,-1.01032 m -9.37336,-11.16862 c 1.11635,7.47784 3.26086,14.73676 4.28847,22.20865 m 2.87939,-7.21919 c 1.98982,0.49596 4.01673,0.6853 5.65669,-0.78988 4.0953,-3.68382 -2.28479,-6.75 -3.77793,0.0551 -2.64912,12.07363 8.10254,2.81458 11.27253,-1.30423 m 0.26548,-10.45221 c -0.8002,5.91812 -0.25063,13.32192 1.2457,18.27759 m 2.40585,-8.00075 c 11.5148,19.28072 17.41463,-12.15497 12.98792,1.78183 -0.87655,2.75968 -1.91214,5.42784 -2.24634,8.32136 -0.2693,2.33157 -0.7981,4.58291 -1.51117,6.81506 m 10.374,-19.14096 c -17.25976,22.22578 18.29589,-2.0657 -4.73773,-0.38575 m 8.41355,0.75314 c 4.99249,33.15783 8.54784,-22.22752 13.31466,10.36037 m 24.04657,-17.52029 c 0.47694,2.82438 0.34023,5.7224 0.67391,8.56016 2.83032,24.07077 -1.00347,-6.99437 6.00385,-12.56469 0.28114,-0.22349 1.77387,-1.4194 2.14423,-1.06543 5.68173,5.43029 -3.75867,12.75761 -8.43398,13.42806 m 12.62034,-11.7197 c 0.23431,11.71152 -7.14259,23.75534 9.84304,13.86892 m 10.6599,-1.96553 c -0.42885,0.36127 -0.85769,0.72253 -1.28654,1.0838 -0.12253,0.0674 -0.24506,0.13471 -0.36758,0.20206 m -17.07842,-48.96788 c -1.38875,7.23097 1.71824,14.52561 1.08232,21.67593 m -5.20742,-9.12961 c 3.15544,0.35435 6.41744,-0.0284 9.10788,-1.72673 M 206.3763,191.61436 c -0.80457,0.26199 -1.60334,0.81081 -2.28719,1.19402 m 0.40843,11.13188 c -0.0855,3.94448 0.50361,7.82073 1.0619,11.70133 m -9.98599,-12.23405 c -5.64803,-14.99938 -15.6823,27.29968 -2.71603,8.79896 2.38611,-3.40457 3.47162,-9.06527 3.47162,-12.98719 0,-2.02065 1.06307,-7.76751 -0.0204,-6.06191 -1.23788,1.94864 -1.92253,31.71139 3.73709,18.53476 m -25.46531,-5.38225 c 2.16353,0.45276 3.81562,0.1282 5.69753,-0.95521 7.87949,-4.53619 -0.57848,-5.4347 -2.94066,2.00227 -2.37109,7.46499 6.43243,5.16344 9.47546,2.02064 m -17.31723,0.82662 c -0.25812,-3.98965 1.53131,-8.01891 6.04469,-7.01712 m -7.65797,-0.53271 c 0.61691,4.75844 1.62953,10.1222 2.3076,14.49348 m -7.16786,-18.44291 c -4.02018,-8.50388 -19.28723,11.45746 -7.82134,16.99173 4.02841,1.9444 7.98434,-1.44427 10.6599,-4.02291 1.40389,-1.35304 2.42346,-2.84479 3.10403,-4.61073 m -47.69904,-14.14447 c -0.10071,1.8747 0.0196,3.73727 0.18379,5.60268 0.29762,3.37989 0.72377,6.77379 1.16402,10.13993 1.96511,15.02519 0.69845,-25.22587 10.72115,5.87822 m -12.76328,-12.43611 c -17.34558,5.81065 1.55202,8.3964 1.55202,11.44416 0,2.96103 -7.66357,5.31922 -6.96365,1.0838 m -5.04405,-10.41547 c -2.38601,-6.91489 -12.145177,6.04341 -7.0045,9.66232 4.59921,3.23773 8.09169,-11.86272 7.0045,-9.66232 -1.74988,3.54164 -1.81731,9.17458 3.14487,7.91722 M 96.646153,200.38699 c -4.02047,-14.34971 -20.57711,13.5199 -2.75687,13.5199 3.30302,0 7.116727,-1.53571 8.944507,-4.33518 m -48.418797,-2.62683 c 1.3226,0.15079 5.07652,0.23219 5.59543,-1.63488 0.95831,-3.44811 -10.9947,4.39041 -4.98279,11.15025 3.59396,4.04108 7.65845,-4.5755 8.43398,-7.01713 m -15.80998,-9.71442 c -0.69926,5.21623 -5.71962,11.61188 -5.82005,11.20536 -0.55253,-2.23654 1.01477,-1.55045 2.08297,-0.67967 3.44165,2.80562 6.0696,1.53983 10.10852,1.48793 m -14.13151,-20.75747 c 1.73019,7.22255 1.89134,16.40838 3.28782,22.81484 m -24.93435,-8.21114 c 2.27046,-0.15596 4.529,-0.2255 6.77985,-0.58782 1.55402,-0.25015 3.14743,-0.44927 4.71731,-0.56945 10.95349,-0.83855 0.9074,-2.16031 -1.00064,8.13766 -0.12955,0.69918 -0.39945,2.4195 0.44927,2.75541 3.31178,1.31078 6.53769,-9.85643 7.16786,-11.62785 0.13375,-0.37596 0.30632,-1.55631 0.30632,-1.15727 0,4.5991 -1.45166,8.85346 2.8794,11.59111 m -17.03133,-24.11907 c 0.18151,8.82752 1.68713,17.83051 1.3478,26.58058 m -1.18443,-21.36366 c -0.78746,-1.35084 -1.95597,-2.59808 -3.67583,-2.24107 -2.42481,0.50335 -5.11123,3.07302 -6.90238,4.68421 -9.9018801,8.90698 9.57257,7.91336 7.67839,15.15478 -1.10843,4.23751 -12.5356801,5.51267 -10.0676801,0.64293" />
  </g>
</svg>
