<?xml version="1.0" encoding="UTF-8" standalone="no"?>
<!-- Created with Inkscape (http://www.inkscape.org/) -->

<svg
   version="1.1"
   id="svg3303"
   width="2730.6667"
   height="1149.3333"
   viewBox="0 0 2730.6667 1149.3333"
   sodipodi:docname="WilF - Stake - Envelope33.svg"
   inkscape:version="1.2.1 (9c6d41e410, 2022-07-14)"
   xmlns:inkscape="http://www.inkscape.org/namespaces/inkscape"
   xmlns:sodipodi="http://sodipodi.sourceforge.net/DTD/sodipodi-0.dtd"
   xmlns="http://www.w3.org/2000/svg"
   xmlns:svg="http://www.w3.org/2000/svg">
  <defs
     id="defs3307" />
  <sodipodi:namedview
     id="namedview3305"
     pagecolor="#ffffff"
     bordercolor="#000000"
     borderopacity="0.25"
     inkscape:showpageshadow="2"
     inkscape:pageopacity="0.0"
     inkscape:pagecheckerboard="0"
     inkscape:deskcolor="#d1d1d1"
     showgrid="false"
     inkscape:zoom="0.31332978"
     inkscape:cx="1142.5661"
     inkscape:cy="697.34833"
     inkscape:window-width="1920"
     inkscape:window-height="1051"
     inkscape:window-x="-9"
     inkscape:window-y="-9"
     inkscape:window-maximized="1"
     inkscape:current-layer="g3309" />
  <g
     inkscape:groupmode="layer"
     inkscape:label="Image"
     id="g3309">
    <path
       id="path3706"
       style="fill:none;stroke:#787475;stroke-width:1.23328"
       d="m 514.51837,459.07444 c -16.44089,28.68732 27.71312,9.74496 -3.94975,-4.31555 m -5.87291,-2.58561 c 0.60538,8.96146 -2.45842,18.90123 -0.10339,27.56744 m -6.57598,-23.14028 c -0.8574,3.54932 -2.95611,6.58399 -5.60407,8.96593 -2.77318,2.49452 10.53111,5.19968 16.27455,1.84155 m -31.75354,-10.30313 c 1.49334,-1.64835 4.56146,-2.55004 6.67942,-1.45092 10.64539,5.52451 -5.41796,26.51347 -5.41796,13.30008 0,-0.13373 8.03296,6.05011 14.41343,1.2835 m -32.83866,-22.02419 c 4.08007,3.23147 9.45202,4.33276 14.53751,3.90632 m -10.381,1.43232 c -1.5112,-0.38206 -3.98638,-0.82033 -4.42534,1.3021 -1.15186,5.56914 7.95277,11.4368 6.53465,16.96458 -1.50271,5.85751 -10.7521,-0.48475 -11.95261,-2.93904 m -11.08407,-11.1423 c 6.95493,0.18834 13.72978,-0.70666 20.55518,-1.82295 m -25.27008,-4.38996 c 0.57205,2.61513 11.70813,1.36886 11.7665,1.84155 0.8364,6.77112 0.60994,18.26174 0.37223,23.66112 m -42.46036,-22.70437 c -3.67452,7.21125 -6.89645,14.8233 -9.16092,22.60083 m -5.91426,-20.85229 c 5.2586,6.25114 8.81446,13.78611 13.71033,20.23844 M 377.4602,454.62025 c 3.94282,1.741 8.24828,1.72432 12.3662,2.4554 m -8.35441,-3.98072 c -0.1189,8.45232 -1.02129,17.06683 1.55093,25.24224 m -30.32527,-8.87865 c 0.31146,2.93467 0.26741,5.89009 0.22748,8.83571 m -11.35291,-19.86641 c -0.64718,-1.27935 -1.35359,-3.17282 -3.10189,-2.97624 -1.16548,0.13105 -1.79745,1.48452 -2.23335,2.4368 -3.80927,8.32158 8.55358,10.50263 8.35442,15.16023 -0.14521,3.39638 -9.41144,3.00438 -9.47111,-1.93456 m -4.40467,-7.75683 c -3.11078,-10.56158 -12.87111,8.26899 -7.60997,11.1423 4.73393,2.58539 7.60997,-12.96241 7.60997,-11.1423 0,2.66498 -3.00099,15.81852 2.87441,13.20707 m -20.96876,-25.03763 c 0.62848,4.84235 -1.35406,21.68049 5.14913,22.80545 m -12.57298,-21.54055 c 0.63971,7.38635 0.67777,15.19782 3.10189,22.28461 m -6.88435,-11.5947 c -2.33386,0.0936 -4.54444,1.10925 -6.80347,1.71134 -1.58679,0.42292 -2.81056,0.84318 -4.19789,1.74854 -12.54726,8.1883 -1.24073,17.7458 7.75472,1.56253 0.54627,-0.98276 1.86031,-4.20111 0.90989,-5.22702 -0.42721,-0.46114 -0.21597,1.23863 -0.31019,1.86015 -0.68058,4.48948 -1.72068,11.30016 2.97781,13.89532 m -36.18869,-21.68936 c 6.05094,-12.86687 25.3893,10.12825 9.45042,19.75481 m -6.38989,-24.05176 c 3.07219,8.35386 2.56855,17.54333 2.192,26.26534 m 37.33562,-66.25829 c 1.26027,7.31546 2.64108,14.93828 2.91577,22.43342 M 294.43494,413.4251 c -4.94204,27.58791 13.92503,22.2176 9.55382,8.35208 -1.19375,-3.7866 -7.98434,-9.20789 -9.24363,-2.58561 m -7.89947,-6.34312 c 0.45867,5.83539 -0.23874,11.72283 -0.0414,17.52262 m -21.0308,-14.36036 c 19.21012,-5.27002 6.78284,10.41706 6.49329,9.11474 -0.71218,-3.2031 14.22944,-15.97408 3.51547,9.20775 m -15.34401,-22.1358 c 2.61697,8.35278 4.02376,18.80823 2.7917,27.00939 m 87.72911,-24.33862 c 3.37689,-15.82862 21.83748,0.42006 8.33374,9.74719 m -5.19045,-16.33212 c -1.17902,7.58703 7.66367,23.70044 1.36481,29.91122 m 13.3381,-19.7176 c 0.57752,2.90745 0.42212,5.89131 0.53767,8.85432 0.60676,15.55459 -3.94049,-20.51799 7.13436,-10.19363 m 0.0208,3.98073 c 2.12771,-0.0471 3.99079,-0.9347 5.68679,-2.19498 6.56688,-4.87976 -0.63861,-4.07855 -2.19199,-0.29763 -2.74642,6.68474 2.10589,12.39771 8.60257,8.09166 m 5.54289,-7.16216 c 0.37281,-1.13093 0.74092,-3.11534 -0.6617,-3.79471 -2.62108,-1.26954 -5.63352,2.47019 -4.46674,4.8922 1.18428,2.45832 8.3157,9.22655 7.40319,11.92357 -1.75237,5.17926 -10.15353,-0.0527 -10.15353,-4.25975 m 11.41494,-21.35453 c 1.79472,7.71715 1.69173,16.20314 1.79908,24.21916 m -2.23335,-10.17502 c 4.96101,-1.13555 9.8626,-2.79434 14.72363,-4.37136 m 1.69573,-0.26042 c -3.56822,1.04053 -4.9533,4.1022 -6.01767,7.3848 -3.67431,11.33188 17.92627,2.68486 2.19199,-8.16606 m 8.0649,2.82743 c 0.13921,3.09902 0.78415,6.13631 1.13738,9.20774 1.38508,12.04397 0.009,-12.53058 6.67937,-10.21223 1.15621,0.40184 1.58608,2.08177 1.79912,3.12506 0.56956,2.78941 0.74446,5.46051 0.74446,8.29627 0,2.15347 -0.074,4.29834 0.12408,6.43612 m 23.20436,-25.70822 c 1.17812,-0.0757 3.86703,22.11874 3.86703,21.37313 0,-5.51211 -0.83831,-22.30425 7.07232,-23.54951 1.10047,-0.17324 1.62692,0.38747 1.94384,1.41371 2.55545,8.27535 -9.81915,16.4166 -9.24363,12.96526 0.53367,-3.20037 10.8145,6.38966 16.00576,2.15777 m 3.00465,-10.86808 c 0.0947,2.73172 0.60978,5.42281 0.8065,8.14746 2.08187,28.8396 -1.69319,-14.96553 6.59665,-9.52397 6.5314,4.28726 2.46405,25.74192 -6.76208,19.12235 m 51.16208,-22.37645 c -24.50575,8.57786 3.28923,15.1126 1.05462,18.35969 -3.17866,4.61884 -11.18062,3.96111 -10.42233,-2.10197 m 6.90685,-14.7138 c 6.60733,1.49801 13.68174,0.6395 20.28634,0.33483 m -14.28936,-0.37203 c -1.15022,5.48401 1.35955,11.28495 1.15806,16.48094 m 5.45931,-13.28148 c 4.07473,-1.66558 8.83959,-1.97553 12.6764,-4.09233 m -10.81528,11.92357 c 4.27161,-0.45418 8.62904,-0.89244 12.75912,-1.87875 m -9.61587,-7.94285 c 3.83934,9.97321 -6.91888,27.93312 9.82266,15.66247 m 18.16463,-22.95274 c 1.60538,7.73518 2.38382,16.00042 2.5849,23.95875 m 4.7769,-20.57327 c -0.004,5.54126 0.2829,11.17361 0.76514,16.70415 m 7.77539,-16.96457 c -11.44978,32.93725 27.33403,8.31638 -4.40467,-1.43232 m 24.9173,10.73213 c 3.10377,-1.08005 6.29601,-1.72659 9.49179,-2.474 m 13.78269,-11.5293 c -5.89595,7.8693 13.91378,24.32294 2.87442,24.79581 -2.79337,0.11965 -4.40471,-0.17417 -6.36922,-2.10198 m -3.99111,-17.48541 c 6.83253,2.41246 14.2387,1.08765 20.96877,-0.16742 m 0.062,-0.48364 c -12.78959,5.91863 9.3031,25.10509 0,0 z m 11.12543,0.81847 c 13.81927,-8.61054 6.71595,17.99658 1.24077,14.91841 -1.41074,-0.7931 1.84472,-3.61206 3.03985,-3.6645 3.65702,-0.16046 6.76535,0.83327 9.55379,-2.10197 m 0.62038,-17.03898 c 1.5072,4.70569 9.30967,0.58025 11.37359,2.4368 0.22405,0.20153 -3.71433,18.85358 -4.5701,25.78169 M 552.02131,354.36087 c 0.5236,9.48816 2.51189,18.84962 3.63956,28.2557 m -0.84786,-17.85745 c -19.9713,-5.96184 -14.53156,33.25639 -0.1034,10.04481 m -33.74852,-2.30658 c 1.79985,0.5913 3.71595,0.40946 5.56272,0.66965 22.63316,3.18877 -4.693,-15.62344 3.12257,3.81331 2.44414,6.07837 8.35486,4.91108 11.93193,0.33483 m -20.01751,-23.3077 c 2.52111,10.23291 3.42371,22.98394 5.81087,32.05041 m -13.56958,-25.94104 c -1.64294,-0.40189 -3.12191,-1.2219 -4.61145,-1.99037 m -25.51819,9.02174 c -0.0665,2.31044 0.0815,4.62845 0,6.93836 -0.0788,2.23121 -0.12408,4.46258 -0.12408,6.69654 0,10.00102 1.0235,-11.5068 6.98957,-8.7241 3.3686,1.57117 2.21267,15.34391 2.21267,13.67211 0,-1.3739 0.74389,-2.81977 1.05465,-4.16674 0.41013,-1.77745 0.57022,-3.65657 1.03398,-5.41304 3.18102,-12.04806 1.25998,7.85166 7.13432,6.56633 3.33581,-0.72989 2.3622,-6.17997 4.13587,-7.77543 0.0139,-0.0126 1.27744,18.39088 5.00436,8.33348 m -35.13405,-21.55915 c -1.38781,-1.12453 -3.1045,-1.55132 -4.77689,-2.04617 m -11.91125,21.94978 c 3.8563,0.47324 12.12694,2.44239 14.93042,-1.65553 1.84317,-2.69424 -0.49631,-7.93263 -0.49631,-7.12438 0,4.35596 2.05943,12.68824 3.68092,15.84848 m -23.61571,-31.90159 c -3.09259,9.084 2.47045,21.05852 4.42534,30.26466 m -54.28302,1.2463 c 3.1078,2.18092 6.54587,3.33074 10.36028,2.90184 12.03689,-1.35343 -10.96745,-11.12003 -3.99107,-20.16404 1.51834,-1.96836 3.48767,-1.95627 5.62476,-1.37651 m -25.19352,11.29359 c 2.74985,-0.50386 5.55995,-2.12274 7.17572,-4.46436 4.30918,-6.24501 -2.58706,-6.90699 -4.17722,-1.26491 -2.80802,9.96328 3.39895,18.11363 12.09737,8.6125 m -20.7413,-10.19362 c 5.00845,-13.68936 -17.10161,17.72534 7.36184,11.1237 m -19.02494,-22.65664 c 1.31277,3.28869 1.81764,28.08394 6.1831,25.9305 M 343.1094,377.56749 c 6.86121,-2.71121 14.37522,-3.12344 21.48572,-3.6831 m 0.37223,0.81847 c -6.32671,-3.35147 -17.31587,9.41226 -10.52572,13.80232 4.54742,2.94007 9.10724,-3.95631 10.21553,-7.53361 0.61916,-1.99841 0.0899,-8.34921 0.31019,-6.26871 0.27536,2.60068 4.39826,22.52867 6.86553,10.04482 m -27.47671,-21.62993 c 3.87091,9.70742 3.34568,19.14182 2.19203,29.12997 m -21.2376,-5.91528 c 0.0496,4.7471 15.78428,8.45105 14.88906,2.00896 -0.66256,-4.76787 -11.16476,-4.87095 -7.60997,-12.74203 0.90916,-2.01307 3.68245,-2.64725 5.58342,-2.62282 m -18.77383,6.12026 c 2.8504,-14.4247 14.85022,2.62157 0.72378,8.5939 m -1.61298,-13.5977 c -1.04813,8.11732 7.1856,22.3802 1.84045,29.27877 M 299.50239,378.9589 c 3.39698,1.08067 6.67014,0.28235 9.88468,-0.87427 5.31472,-1.91229 2.6805,-7.78854 -1.81977,-6.52913 -5.4136,1.51501 -6.08099,25.35501 9.4711,11.36552 M 286.0402,382.642 c 3.27843,0.22277 6.72072,-1.39627 8.78868,-4.03653 4.2286,-5.39885 -5.13673,-10.92486 -4.73555,3.32967 0.34706,12.33153 14.28384,6.02516 18.38386,0.40924 m -37.94643,-6.30592 c 0.0813,-2.44605 0.0671,20.12434 2.21268,16.81577 1.8263,-2.81623 3.56285,-6.93871 3.74294,-10.28664 0.0836,-1.55323 0.7031,-6.16865 0.7031,-4.61317 0,3.63329 2.62016,7.29946 4.05313,10.49125 0.70406,1.56821 1.91781,6.23221 2.37811,4.57597 1.96681,-7.07678 -2.67575,-14.52084 -0.76513,-21.31733 m -23.67774,3.19946 c 7.59363,-8.89987 -14.81822,1.04855 -8.41646,9.56118 2.07412,2.75803 17.90299,8.85904 16.81223,9.8402 -4.27786,3.84804 -23.11424,4.25334 -18.15638,-5.05962 m 69.40289,-91.77476 c 17.10181,-8.56196 3.50157,14.32806 3.20528,10.86328 -0.34508,-4.03525 3.88815,-4.83093 6.2865,-2.77162 8.30273,7.12905 -0.53633,19.76879 -12.18008,10.10062 m -5.83155,-19.43858 c 0.21354,7.65125 0.90988,15.37677 0.90988,23.06587 M 289.10404,301.5073 c 15.17359,-9.96335 12.01875,20.6141 2.83306,18.04346 -2.49385,-0.6979 -1.59293,-7.23983 1.55094,-6.60353 4.94531,1.00089 5.4814,5.61541 11.0634,2.73442 m -40.67609,-13.96973 c 4.15516,0.16233 8.37262,0.85468 12.30416,-0.72546 m -6.80348,-1.09749 c -6.65242,7.5819 3.92953,13.67575 5.89359,20.35005 1.95912,6.65749 -6.71561,0.60191 -8.25102,-1.15329 m -8.04423,-22.26601 c 0.37098,9.55366 -0.78411,19.57355 1.46823,28.94395 m -9.53314,-25.01903 c 0.26188,13.15938 -10.39446,18.65556 2.83306,16.83436 4.43439,-0.61054 7.63934,-2.70222 9.38838,-6.04549 m -39.31942,-15.1207 c -0.072,7.78659 1.44985,15.50397 1.22008,23.28909 m -14.28936,-14.751 c 6.36746,0.83987 13.38492,0.71581 19.29373,-1.91595 m -14.20664,-4.81779 c -0.10996,7.15924 0.69348,14.29105 2.50219,21.20572 m -16.68816,-20.31285 c -3.46802,-3.53292 -8.9007,20.8124 0.53766,19.6804 1.97857,-0.23731 3.7974,-3.51862 4.40468,-5.11542 5.00691,-13.16506 -12.455,-15.10203 -7.672,-10.19363 m -24.45706,7.65177 c -1.87118,3.333 -4.49431,6.17439 -6.30717,9.52397 m -26.36605,-35.17546 c -0.52533,10.32735 2.11843,20.49015 3.20529,30.7111 m 9.1609,-25.37246 c -0.90407,0.0696 -1.72215,0.42136 -2.5849,0.63245 m -16.62612,14.43477 c 15.70755,2.44044 14.06153,-8.3652 17.39125,5.48745 m -23.49163,-5.26423 c -3.3095,-8.97632 -13.4502,3.48687 -8.25102,7.12438 6.77323,4.73876 10.00876,-12.34724 10.00876,-10.84469 0,6.34705 1.74302,16.12361 8.00286,7.92425 m -33.89792,-8.32985 c -0.29567,2.27674 -0.56648,4.55111 -0.68242,6.84536 -1.19491,23.64688 3.19103,-9.46688 6.43125,-7.64522 6.51246,3.66133 0.46134,16.8917 15.81963,9.50537 m -40.376564,-9.40546 c -0.06,2.10622 0.33496,4.17477 0.62038,6.25011 0.42125,3.06296 0.41006,6.26831 0.97192,9.30075 0.38269,2.06541 4.61429,-21.30121 7.94084,-13.5791 1.07871,2.50409 2.57638,17.21606 6.100384,10.06342 M 78.592976,290.71922 c -1.159,-1.01189 -2.48771,-0.99355 -3.90838,-1.15329 m -6.45193,11.0307 c -10.60693,-9.85232 -12.68849,13.85913 -2.31608,14.41617 4.5604,0.2449 7.68288,-3.90655 9.30567,-7.60802 0.67926,-1.54936 1.08069,-6.67942 0.84784,-5.00381 -0.49793,3.58324 -1.52858,8.94489 0.47563,11.88636 m -34.53435,-15.86708 c 0.46476,2.43919 0.29848,4.92703 0.12407,7.3848 -1.68715,23.77627 -1.1937,-8.67268 4.9837,-5.33864 5.30341,2.86233 3.25007,11.59705 10.21555,13.02106 m -24.64414,-18.27279 c -1.39887,-0.1951 -2.73748,0.0588 -4.09449,0.29763 m -8.10627,-2.56701 c -0.24186,2.10051 -0.31535,4.21125 -0.26883,6.32451 0.19293,8.76371 2.08247,-5.02531 -4.25993,-3.7575 -7.5201403,1.50323 -11.1081703,13.25089 -4.90098,18.13647 4.39422,3.45862 12.89438,1.93592 16.08846,-2.23218 1.20972,-1.57861 3.64658,-8.3561 3.59819,-6.91976 -0.10824,3.21297 -1.99393,6.61187 -0.20679,9.31936 M 9.7344457,253.91039 c 1.2867703,-2.12563 3.9589203,-2.63275 6.2037803,-1.69273 10.22255,4.28063 -3.03914,25.13422 -4.59079,17.318 -0.78122,-3.93523 10.93821,-2.22429 13.08996,-3.08785 3.42134,-1.37307 6.9312,-4.41183 9.34703,-6.58493 m -0.22747,-0.50224 c 0.84428,-0.92414 4.11746,-3.61439 2.99848,-5.37584 -2.48557,-3.91271 -10.44998,1.40328 -7.71335,5.50605 2.02258,3.03227 15.21871,9.06111 12.77977,13.44889 -1.8614,3.34877 -10.74098,4.02363 -10.83593,-0.93008 -0.16672,-8.6984 5.17265,-14.83294 9.09888,-21.80097 m 15.04359,6.99897 c -7.67293,-4.26883 -14.36212,11.9444 -6.1831,13.78372 15.32461,3.44622 5.27067,-10.20498 -2.12996,-13.5791 m 10.6705,-0.53945 c 7.19007,-2.4105 15.0478,-4.20719 22.5197,-3.99933 m -14.22733,2.08338 c -8.55446,7.23332 9.25508,17.36021 8.70597,19.06654 -1.80417,5.60639 -10.18718,1.30124 -11.72513,-1.97176 m 43.403084,-21.33135 c 0.26921,1.88504 -1.74372,9.72879 2.02657,9.22635 1.70098,-0.22668 -3.19861,-5.63563 -5.66612,-5.52465 -1.8747,0.0843 -2.432754,4.57387 -2.667624,5.82227 -0.87983,4.67661 0.779624,15.88523 7.878794,12.22119 1.40884,-0.72712 10.08743,-10.86692 7.75473,-12.96525 -1.53064,-1.37684 -1.92943,16.40609 4.69419,11.79336 5.24195,-3.65053 -8.69257,-9.41056 -5.0871,-13.37449 3.79972,-4.17748 7.36172,5.19826 7.92015,7.3662 0.42476,1.64898 0.82717,6.74382 0.82717,5.04101 0,-23.70511 3.19353,-11.69314 17.72212,-11.40272 m 2.31608,-13.91393 c -0.13829,0.14774 -2.69845,-3.14382 -2.97782,-2.92044 -0.60328,0.48237 0.23842,2.53327 0.39291,2.99484 3.04736,9.10462 4.93134,19.70818 5.06642,29.18577 m -5.6868,-11.71895 c 2.46884,1.3145 4.74868,1.10897 7.36182,0.35343 2.84046,-0.82127 13.19651,-4.32438 7.38249,-7.53361 -6.96875,-3.84663 -3.25506,24.02323 4.90099,15.03002 2.32411,-2.56267 13.03769,-27.6487 6.38988,-26.15373 -0.61588,0.1385 1.50052,26.60305 1.65434,29.20437 m 29.95813,-14.12123 c -1.2068,3.16425 -4.66451,18.32216 3.66022,14.63939 7.68183,-3.39836 -12.49448,-13.92924 -4.07381,-12.64903 9.70346,1.47524 7.89322,18.48403 10.4637,15.16023 2.47707,-3.20301 4.20533,-8.35542 5.04574,-12.27699 0.11062,-0.5162 1.87709,-7.11492 2.31607,-6.95697 2.47891,0.89194 -4.11386,21.14426 5.85223,18.58291 m -46.3422,-14.11855 c 23.34244,35.37081 16.95749,-32.49583 14.22732,5.39444 -0.15597,2.16464 -0.35064,4.35422 -0.59969,6.51053 -0.43642,3.77847 -1.07784,7.55723 -1.11668,11.36552 m 109.63181,-22.61232 c -0.95162,0.2629 -1.87511,0.61738 -2.81238,0.91148 m -23.34687,-12.72343 c 1.99671,5.72402 2.50219,11.85761 2.50219,17.91325 0,1.56267 -0.062,6.25024 -0.062,4.68758 0,-1.55615 8.50962,-5.08798 9.71925,-5.59905 m -27.33798,-17.11339 c 0.59055,3.77904 2.24929,7.34342 2.81238,11.1423 0.35767,2.41297 0.66005,4.82551 1.03397,7.23599 3.99027,25.72366 -3.33777,-18.69715 7.25841,-18.13647 8.32462,0.44048 -3.35209,14.58933 -8.74732,16.09031 m 45.74354,-76.56389 c -4.43698,11.99317 0.65882,23.66519 0.78581,35.65909 m -6.43125,-16.48094 c 4.24763,0.32204 8.70792,0.88496 12.77978,-0.53944 m -19.56258,-12.10959 c 0.87916,2.14112 1.3812,4.41004 1.98522,6.62214 m -0.97193,9.97042 c 2.01092,-9.34862 0.76376,4.85458 3.35004,8.53808 m -14.47548,-10.82607 c -5.32572,-9.8178 -19.74138,9.67196 -11.93193,16.25772 7.50449,6.32857 16.07022,-23.91935 10.87729,-28.59052 -0.39658,-0.35674 -0.0414,1.0663 -0.0414,1.59973 0,3.46895 0.55392,7.45274 1.096,10.73307 1.65867,10.03722 3.82961,15.67936 10.13283,4.85499 m -37.41486,2.21184 c 3.09604,-0.87345 5.97704,-2.62732 8.60256,-4.48297 5.36268,-3.79017 -1.24099,-7.54841 -4.21856,-1.2463 -3.57244,7.56119 -0.76403,15.98145 8.29238,9.24495 m -31.34975,-15.82988 c -0.16865,2.16566 -0.19875,4.32192 -0.22747,6.49192 -0.16846,12.7286 1.29183,-11.70908 -9.09887,-2.36239 -5.17321,4.65343 -0.21217,17.55983 6.76211,17.55983 12.8324,0 8.45511,-24.14211 12.20076,-5.11542 0.3658,1.85815 0.67427,3.70055 0.99261,5.56185 0.0742,0.43394 0.0213,-0.88098 0,-1.3207 -0.13342,-2.76029 -0.7031,-5.44266 -0.7031,-8.25907 0,-7.8071 3.09885,-6.47427 9.05752,-4.63178 m -83.58766,-9.05646 c 1.82417,2.57406 2.38049,5.58385 3.12256,8.57529 0.49201,1.98338 1.60994,16.49152 3.45344,17.59703 4.26832,2.55964 4.82833,-33.88913 13.00725,-7.4034 0.59965,1.94185 0.93476,4.24323 1.40619,6.04549 m -21.85797,-9.15194 c 0.42328,-1.71738 1.08084,-3.32209 0.3929,-5.04101 -1.55504,-3.88556 -6.87071,0.83016 -5.50068,4.09233 1.3542,3.22448 10.19092,8.70445 9.71925,11.53294 -0.80642,4.83594 -10.24429,2.76087 -10.60845,-4.44577 m -6.2865,-6.08269 c 1.31367,-2.60609 0.14133,-5.74306 -2.85373,-3.34827 -10.18543,8.14404 -4.25174,22.87262 1.90248,8.40788 1.0435,-2.4526 0.75413,-5.02121 1.98522,-7.23599 0.27183,-0.48905 -2.85624,7.35763 0.0207,11.88637 2.27815,3.58621 6.51113,-0.0926 8.39577,-2.15777 m -26.07736,-17.58381 c 0.0399,0.23639 -0.14026,4.79919 -0.0207,4.79919 1.66779,0 -1.40335,-9.68114 -8.14762,-5.28283 -6.02376,3.92843 -4.78417,12.83066 -1.92318,18.08067 3.91734,7.18844 16.00126,0.65176 20.16228,-2.88324 m -70.867274,-8.457 c 2.06913,1.03849 8.08653,-1.4489 6.72076,-4.35275 -2.10063,-4.46624 -8.09616,2.96478 -8.85073,4.61318 -5.48682,11.9863 11.02864,18.35933 13.25541,5.67345 m -23.57435,-9.85879 c 1.95936,1.76569 -4.40075,9.01419 -4.30128,9.05893 6.61338,2.97445 11.79347,4.27735 18.09434,-0.91147 M 55.977866,205.1158 c 4.54541,7.79775 4.39596,17.66496 6.49329,26.32114 M 47.333946,217.3742 c 1.53851,-6.66486 -5.26343,-3.39408 -7.1757,0.85567 -8.99911,19.99923 14.30657,14.08432 10.40166,-3.47849 -0.13182,-0.5929 -0.1032,16.40513 5.14913,17.44822 m -31.32906,-28.68353 c 3.97654,8.85621 2.17399,19.25038 3.08121,28.46031 m -6.53465,-12.94665 c 6.20012,-2.0668 12.66735,-3.06384 19.02491,-4.46436 m -25.37344,-3.7017 c 18.96479,-15.5872 -12.3056503,-2.87596 -6.3692103,5.13401 2.0274303,2.73559 17.0448303,9.38686 14.1859703,13.24428 -2.158,2.91176 -14.7349803,8.09265 -16.5227203,2.80883 -0.92834,-2.7438 0.97201,-6.41048 1.53026,-9.02174" />
  </g>
</svg>
