<?xml version="1.0" encoding="UTF-8" standalone="no"?>
<!-- Created with Inkscape (http://www.inkscape.org/) -->

<svg
   version="1.1"
   id="svg2479"
   width="2730.6667"
   height="1213.3333"
   viewBox="0 0 2730.6667 1213.3333"
   sodipodi:docname="WilF - Stake - Envelope31.svg"
   inkscape:version="1.2.1 (9c6d41e410, 2022-07-14)"
   xmlns:inkscape="http://www.inkscape.org/namespaces/inkscape"
   xmlns:sodipodi="http://sodipodi.sourceforge.net/DTD/sodipodi-0.dtd"
   xmlns="http://www.w3.org/2000/svg"
   xmlns:svg="http://www.w3.org/2000/svg">
  <defs
     id="defs2483" />
  <sodipodi:namedview
     id="namedview2481"
     pagecolor="#ffffff"
     bordercolor="#000000"
     borderopacity="0.25"
     inkscape:showpageshadow="2"
     inkscape:pageopacity="0.0"
     inkscape:pagecheckerboard="0"
     inkscape:deskcolor="#d1d1d1"
     showgrid="false"
     inkscape:zoom="0.43269234"
     inkscape:cx="748.79994"
     inkscape:cy="414.84441"
     inkscape:window-width="1920"
     inkscape:window-height="1051"
     inkscape:window-x="-9"
     inkscape:window-y="-9"
     inkscape:window-maximized="1"
     inkscape:current-layer="g2485" />
  <g
     inkscape:groupmode="layer"
     inkscape:label="Image"
     id="g2485">
    <path
       id="path2880"
       style="fill:none;stroke:#787475;stroke-width:1.37331"
       d="m 534.7747,453.61203 c -0.84108,1.4628 -1.44915,3.08945 -1.66748,4.76988 -2.4706,19.01348 15.80707,11.98339 8.25412,0.65998 -1.77167,-2.65612 -3.35872,-4.66363 -6.58664,-5.42986 z m -9.73821,-4.33488 c 1.71195,8.96218 0.24745,19.32147 3.28501,27.95926 m -10.65536,-21.38944 c -0.18772,5.45514 -7.90027,14.19743 -0.23346,14.33963 4.46682,0.0828 7.81742,-1.60399 11.20562,-4.40988 m -32.80331,-9.40259 c 8.61462,-13.4226 13.58819,14.62303 4.10206,17.98453 -2.40378,0.8518 -2.53854,-5.73409 -0.5503,-6.11984 5.99769,-1.16364 6.7145,5.54319 12.57297,-3.23992 m -32.88316,-11.93968 c 5.08122,3.14833 10.65455,2.29994 15.29102,-1.06498 m -13.57348,2.05495 c -0.73252,-0.14247 -2.0129,-0.61904 -2.68465,0.03 -6.11369,5.90675 9.88786,18.43845 9.62148,20.95445 -0.42195,3.98541 -9.61921,3.7498 -11.956,-3.86989 m -17.45875,-8.6098 c 7.06205,-1.00866 14.04489,-2.83949 21.16062,-3.43491 m -25.62953,-2.26494 c 0.86138,1.34614 11.71568,-4.74429 11.80593,-4.0949 1.24917,8.98945 1.77885,21.26764 3.48508,28.64925 m -43.48593,-24.70236 c -4.17382,5.91792 -7.49993,15.40084 -7.80388,21.68943 m -5.48608,-25.55933 c 6.33688,7.11054 9.07513,24.37631 16.62498,29.53423 m -36.13479,-24.98935 c 6.30028,2.11871 11.98166,-1.09041 17.85894,-2.27994 m -10.51965,2.95428 c 0.29082,8.34291 1.82096,16.78557 2.90145,24.91435 m -18.20913,-8.48978 c -1.71103,2.32996 -2.31088,4.86645 -2.15107,7.6798 m -30.8488,-16.94956 c -10.45196,3.71735 13.30888,18.31626 6.28648,20.45947 -2.73688,0.83528 -4.93764,0.47571 -7.43706,-0.37499 m -9.62938,-13.27758 c -5.88085,-7.94562 -10.59553,6.9912 -7.40371,11.63969 3.06264,4.46035 6.98451,-7.07574 7.47042,-8.84977 0.39897,-1.45667 0.30793,-6.02583 0.10005,-4.52988 -0.51636,3.71575 -0.71995,13.64995 5.45273,10.57472 m -21.51078,-21.14944 c -0.14973,6.73425 -1.03557,15.60998 4.36885,20.71446 m -12.95649,-24.44936 c -0.0541,8.61404 1.33774,17.31576 4.05203,25.45433 m -12.83918,-10.39889 c -4.06751,0.53321 -15.64841,7.7593 -12.35619,13.42465 3.81264,6.5609 10.33508,-5.23012 11.23897,-8.09979 0.54486,-1.72982 0.64719,-7.07649 1.11722,-5.32486 0.37361,1.39229 3.57083,23.24387 7.70387,10.45473 M 281.4584,460.74825 c 18.8249,-4.57445 17.69622,31.88765 -1.50076,21.47944 m 1.65083,-22.9044 c 0.67295,10.12646 3.689,19.96404 4.26881,30.13421 m -8.9361,-70.60878 c 2.44691,8.51431 4.62053,18.11364 3.66851,27.04429 m 1.18393,-23.71437 c 14.91733,-8.89439 9.11657,10.76972 5.23596,10.76972 -1.42551,0 5.4885,-7.54064 7.62048,-5.75986 4.25988,3.55817 0.3823,11.57956 -1.05052,14.71462 m 8.60431,-23.84937 c 0.84548,8.17091 0.46458,17.14422 1.85093,24.91434 m 17.05855,-28.48425 c 2.68824,8.78807 4.75335,18.16174 5.48608,27.38928 m -14.67402,-21.08944 c -1.43723,1.69679 -1.1339,4.00849 -1.1339,6.10483 0,15.27855 14.49277,11.99631 6.43655,-1.25997 -1.15238,-1.89621 -2.98304,-4.56034 -5.30265,-4.84486 z m 45.02001,3.18178 c 5.92193,-29.31124 23.86291,6.73018 8.12073,7.07982 m -4.2688,-15.4346 c 2.94369,6.44178 7.7102,25.02298 1.96765,30.08921 m 10.30516,-24.11936 c 1.40485,2.21675 1.95636,4.75809 2.66801,7.24481 7.78232,27.19382 -5.99755,-10.26368 7.43706,-7.6648 m 20.14752,-0.25669 c 2.86629,-6.8763 -5.16679,-3.86419 -4.38552,1.87495 0.67266,4.94153 9.3719,4.92001 9.92161,8.99976 0.74551,5.53242 -12.28593,2.90576 -15.42437,-0.16499 m -7.33701,-4.37989 c 2.55166,-0.58998 4.71604,-2.18725 6.63665,-3.9149 4.98587,-4.48492 -1.18831,-7.26843 -3.65182,-2.77492 -3.80652,6.94322 1.21574,13.58768 8.38752,8.68477 m 12.35038,-28.86944 c 2.49562,10.42402 5.10042,21.01649 6.85343,31.63417 m -8.30418,-11.87969 c 5.14898,-0.69638 10.0259,-3.92686 15.14095,-4.06489 m -0.8671,3.52491 c -11.77655,3.79155 4.00127,13.48203 1.98433,2.44493 -0.30327,-1.6595 -2.47309,-3.50136 -3.10156,-4.85987 m 8.30418,0.29999 c -0.19553,1.77682 -0.28319,3.55319 -0.30018,5.33986 -0.0254,2.68936 0.17101,5.25743 0.51692,7.91979 0.16387,1.26098 0.70037,5.02148 0.70037,3.74991 0,-8.20051 2.4214,-30.96471 10.1384,-10.13974 0.59695,1.61086 0.93855,3.34109 1.26729,5.00987 m 19.55345,-21.98386 c 1.0333,2.76215 1.92897,5.60485 2.51797,8.50478 3.94182,19.40844 1.24036,19.09071 3.43503,0.195 0.4333,-3.73052 5.25263,-12.44818 5.25263,-4.22989 0,3.85883 -6.55472,14.49375 -7.02018,10.93471 -0.0685,-0.52351 1.17864,-0.67703 1.41737,-0.71998 4.9053,-0.88248 4.39606,5.22685 8.33751,6.23984 2.90472,0.74652 6.24577,-3.43413 7.8206,-5.20487 m 1.16024,-11.60243 c -0.15492,3.03402 0.0864,6.04219 0.2668,9.05976 0.13189,2.20637 0.25053,4.43381 0.70037,6.59983 4.04074,19.45657 -4.42632,-12.92238 3.63514,-13.61964 1.55353,-0.13437 2.79535,-0.4243 3.96867,0.85497 7.40369,8.07253 0.93523,29.39594 -9.45475,16.93456 m 44.30303,-24.05023 c -1.31971,0.73262 -2.41469,1.77996 -3.60182,2.69993 -18.39466,14.25544 11.48291,10.07131 9.43808,18.16452 -0.69532,2.75216 -11.96599,6.91933 -10.07172,0.91498 m 19.35973,-15.64459 c 3.45334,-1.08793 7.09189,-2.52543 10.63865,-2.87992 m -9.65481,8.54977 c 4.95104,0.72637 9.96339,-0.44983 14.82405,-1.36496 m -11.73921,-8.59477 c 1.19208,10.30914 -3.9638,24.78085 10.9555,16.04957 m -23.04489,-17.77453 c 0.43466,8.47086 1.24263,18.45098 5.65286,25.88932 m -10.67203,-25.40934 c 5.86624,-0.2026 11.92456,0.14546 17.50875,1.48497 m 120.96889,-7.43747 c 2.78548,1.4466 6.33551,-4.30539 8.67103,-3.10491 1.49948,0.77076 2.19131,21.71123 2.001,25.34933 m -25.4628,-20.18947 c 10.81011,-7.15377 12.68489,15.05416 5.85294,17.00955 -1.80397,0.51633 -2.46919,-4.04949 -0.38352,-4.22988 3.16442,-0.2737 5.28555,-0.38849 7.8706,-2.53494 m -21.56081,-12.34467 c -14.96958,18.33351 16.8063,29.83749 0,0 z m -23.87861,0.59998 c 7.95241,-1.13475 18.79377,-1.95791 25.79627,1.28997 m -18.00905,1.51496 c -9.88991,-0.33048 10.42,22.60353 2.90148,21.58443 -2.18831,-0.29661 -5.90398,-1.32429 -6.80343,-1.82995 m -17.57002,-5.62269 c 3.1591,-0.33292 6.29605,-0.92169 9.17128,-2.32493 m -23.54514,-7.51481 c -10.82887,24.91932 22.30996,16.1085 2.03434,2.35494 -2.29014,-1.55348 -2.99923,-1.93426 -5.3193,-3.41991 m -6.18645,-1.72495 c 0.80515,6.88236 3.01957,13.60721 3.56847,20.51946 m -9.75488,-22.7994 c 0.96126,7.68437 -2.08644,17.26368 1.40069,24.41936 m -25.0602,-61.68835 c 1.31167,10.09594 2.36295,20.29544 3.48508,30.38921 m -2.45124,-21.16445 c -8.50802,-12.68001 -13.67163,26.04234 -4.01867,18.13452 2.28356,-1.87071 4.10624,-4.69513 4.75238,-7.5598 m -24.42778,-5.09336 c 2.01762,0.007 4.29818,-0.13776 6.15311,-1.01997 7.28833,-3.46643 -0.44924,-4.07161 -2.20112,-0.43499 -3.16573,6.57151 0.78958,13.92067 8.35419,10.99471 m -20.6437,-30.16421 c 0.0241,11.4271 2.51747,22.62004 3.60181,33.95911 m -7.37035,-18.68951 c 3.67261,0.39278 7.41763,0.15227 11.12223,0.195 m -16.75838,-6.65983 c -1.76282,-0.48993 -2.68143,-1.86674 -3.73521,-3.22491 m -19.85994,8.59477 c -0.32039,2.08801 -0.71704,4.18146 -0.71704,6.29984 0,1.88981 0.0645,3.77985 0.33352,5.65484 2.69651,18.79849 0.20125,-10.81844 5.40269,-10.00473 3.41164,0.53371 1.04624,14.09856 3.16824,16.48457 1.52473,1.71441 0.2721,-12.02813 2.43457,-13.13966 1.6683,-0.85753 -0.64941,8.57064 3.48508,11.86469 5.40315,4.30482 4.54122,-8.33226 6.4032,-7.82979 0.85915,0.23184 1.52482,9.56075 3.76854,12.11968 m -31.5813,-28.35237 c -0.78226,0.0958 -1.44552,0.48544 -2.1344,0.82499 m -13.49008,23.47438 c 5.07976,1.61577 11.47555,1.15868 15.25763,-3.05992 1.56597,-1.74668 2.41395,-2.8996 2.76809,-5.17487 0.05,-0.32154 -0.0501,-1.30039 -0.0501,-0.97497 0,4.16873 -0.44229,8.42989 0.73371,12.44967 m -22.01101,-36.32905 c 0.79621,11.82098 5.07054,23.20952 5.96962,34.99409 m -41.38673,-17.30783 c 2.10069,-8.16219 -5.10524,-1.96895 -5.00251,3.9449 0.0952,5.48386 7.9238,6.68536 8.4542,10.97971 0.6148,4.97706 -15.38852,-1.35534 -17.0085,-3.55491 m -6.83677,-8.33978 c 1.55094,2.56239 3.70623,1.91078 5.96967,0.56998 1.24894,-0.73983 4.54485,-4.91336 1.08389,-5.26485 -10.07872,-1.02359 -4.31958,30.49192 6.50325,13.57464 M 399.51817,374.7915 c -7.73181,9.71751 -0.8786,22.30173 10.38852,10.84472 m -21.21062,-20.30947 c 1.12517,9.71136 4.72544,19.05498 6.38652,28.58925 m -33.33918,-10.58123 c 2.26935,-1.03881 4.61689,-1.94068 7.07021,-2.45993 1.77031,-0.37469 3.5398,-0.41892 5.33601,-0.55499 15.8363,-1.19959 1.69683,-0.56744 0.05,7.39481 -0.35837,1.73273 -0.66028,8.12883 2.50125,7.6798 4.05343,-0.57571 4.45197,-9.42916 4.58564,-12.25468 0.083,-1.75426 0.2001,-7.02108 0.2001,-5.26486 0,3.09899 3.05424,22.20527 7.70386,12.62967 m -28.3809,-28.84425 c 3.81645,12.61298 8.28538,26.16411 10.63867,38.71398 M 354.88206,374.3718 c -17.26896,10.39219 3.29333,17.86644 4.06871,22.57441 0.86218,5.23498 -11.52796,-1.57193 -12.60632,-2.44493 M 333.13511,375.5563 c 0.20807,4.58934 1.66705,8.97362 2.7347,13.40965 0.66253,2.75278 1.47024,5.46267 2.16776,8.20479 10.12115,39.78888 -11.16742,-10.62264 -4.55228,-19.3195 5.95506,-7.82906 15.08148,14.76227 2.70135,18.04453 m -31.21565,-7.12481 c 2.67416,-0.13429 5.06514,-1.37873 6.45324,-3.71991 1.46105,-2.46422 0.87727,-7.44031 -3.13491,-5.54985 -8.01692,3.77741 10.0723,24.23049 10.78874,7.25981 2.5424,-0.87114 4.265,-1.70837 5.76956,-4.15489 4.30257,-6.99625 -4.88511,-7.09225 -1.88428,4.30488 1.76666,6.70977 7.84394,13.20566 10.72205,2.84993 m -48.22394,-9.63332 c 5.26586,2.88264 0.62577,16.27984 5.21929,19.0345 2.13428,1.27989 3.20944,-15.5985 3.81858,-14.63962 1.71476,2.69932 1.88372,14.15337 6.26981,14.84962 2.88063,0.45727 -0.85043,-18.82456 -0.85043,-21.11945 m -21.79426,-5.95485 c -2.61945,-0.28428 -4.66371,1.66332 -6.56995,3.20992 -15.5556,12.62082 13.34964,9.87018 10.10506,19.2745 -2.12732,6.16596 -14.59615,9.27938 -11.45574,-0.65999 m 25.93097,-92.46519 c 2.24271,0.69859 10.08167,-1.38922 10.68869,2.15995 0.87191,5.09795 -6.68956,11.95237 -6.43656,11.44469 0.63479,-1.27378 2.17164,-2.56718 3.61848,-2.66993 8.22051,-0.58378 2.27391,22.36838 -5.91963,10.15474 -0.95473,-1.42315 -2.12381,-2.59785 -3.01818,-4.06489 m -8.40422,-15.5846 c 1.55448,7.40354 3.04358,14.82368 4.36886,22.27442 m -16.47379,-22.52461 c 11.42552,-2.76411 6.09814,19.61115 -0.78373,21.29944 -3.1256,0.76679 -1.88372,-5.92509 -0.05,-6.74982 3.79982,-1.70902 6.73048,11.79416 11.28899,1.07997 m -29.66487,5.38486 c 2.30958,1.63805 6.58521,0.89706 6.28648,-2.86492 -0.44025,-5.54429 -15.74468,-10.02001 -7.12023,-20.81946 4.13543,-0.14059 8.36101,-0.90111 12.35619,-2.08494 m -21.6942,-1.67996 c 2.44256,10.92467 3.15626,22.29739 4.51892,33.32913 m -7.87061,-28.69425 c -7.19653,16.32094 -5.53297,13.87091 7.80392,18.73451 m -42.29302,-24.68795 c 2.40385,8.53408 3.663,17.35554 5.30265,25.99432 m -11.87261,-24.41936 c 0.55131,7.29006 1.77662,14.49854 3.51843,21.61443 m -7.05354,-8.50477 c 4.6429,-0.0103 9.44714,-1.4256 13.54013,-3.56991 m -26.5133,-1.97995 c -0.44271,1.91914 -1.07312,3.81915 -1.15057,5.80485 -0.71658,18.37049 13.53118,9.61258 9.67151,-4.27489 -0.89189,-3.20913 -5.06748,-6.77044 -7.97066,-3.6149 m -27.88989,14.12904 c -0.48778,2.4207 -1.78996,4.62076 -2.7347,6.89982 m -15.65785,-34.4091 c -0.96202,0.3566 -1.94005,0.65159 -2.91813,0.95998 m -12.07272,12.38967 c 8.86428,5.14458 14.9331,-1.99083 15.74123,11.3847 m -11.47242,-24.41935 c -0.52938,8.77028 -0.66043,18.18522 2.2011,26.6093 m -12.84,-10.58123 c 1.9774,-14.48941 -15.26686,6.27661 -6.50326,9.92974 4.23761,1.76646 8.49586,-12.68967 6.63666,-12.68967 -2.08328,0 1.9876,15.32108 8.23746,8.80477 m -33.550155,-11.4447 c -0.53264,2.10877 -0.45022,4.39699 -0.45022,6.58483 0,2.6978 0.51253,5.19066 0.8004,7.84479 0.0493,0.45498 0.0911,1.7791 0.25012,1.34997 0.69079,-1.86416 -3.49181,-16.43905 3.38503,-14.18963 4.378915,1.43234 0.31791,10.50934 13.540135,8.78977 m -38.044045,-9.16136 c 1.34833,0.96065 1.71303,2.44719 1.91763,4.01989 0.28885,2.22035 0.30229,4.55502 0.35017,6.79483 0.0133,0.61984 0,2.47993 0,1.85995 0,-1.77884 2.72791,-18.52403 6.20311,-15.07461 3.5259,3.49973 0.35039,16.4936 7.67052,13.40965 m -20.84379,-21.50943 c -0.79603,-0.18095 -1.58987,-0.36129 -2.38453,-0.53999 m -5.58613,9.34475 c -7.42942,-4.682 -14.88987,12.08178 -7.30366,15.5696 5.03233,2.31365 9.98272,-3.37573 12.03937,-7.34981 0.21588,-0.41715 2.53365,-6.92982 1.71753,-6.92982 -0.20898,0 -0.50766,2.87305 -0.55028,3.14992 -0.37079,2.40889 -1.75915,6.84287 1.48408,7.3948 m -33.24412,-10.48068 c 0.21975,1.17904 0.1334,2.38962 0.1334,3.58491 0,21.52776 -0.0696,-10.03353 8.20411,-6.88482 4.23959,1.61345 0.88181,16.53168 8.03736,13.18465 m -23.89531,-17.56454 c -1.23336,-0.51463 -0.63397,-1.1312 -1.01718,-1.81495 m -4.08537,2.57993 c -3.74624,-13.79706 -21.8306998,9.43393 -11.0722298,18.86951 4.4769398,3.92643 10.5569998,-1.10174 12.6730298,-5.23487 1.07433,-2.09844 1.6112,-8.42287 2.90145,-6.44983 1.44201,2.20511 1.10896,8.3044 1.30065,10.96472 M 5.6860452,253.90791 c 0.79577,-18.87037 19.1783898,7.3525 6.6533298,15.89958 -2.8804198,1.9656 -4.8300098,-4.63909 -2.4512298,-5.83484 7.0293298,-3.53348 7.2215398,5.89349 17.8589598,-5.65486 m 1.51742,-4.82987 c 0.0775,-0.94803 1.75111,-3.05406 0.90046,-3.9149 -2.75477,-2.78772 -7.28873,2.89846 -6.13642,5.78985 1.95485,4.90511 11.91271,6.40942 10.85545,12.74967 -0.39883,2.39168 -5.93671,4.47392 -7.52044,2.44493 -2.49425,-3.19549 -0.40221,-14.1412 1.90095,-17.06955 2.21028,-2.81024 6.57393,-5.82679 9.63817,-7.76979 m 2.28448,2.24994 c -0.19096,4.00586 -5.41355,14.23845 -1.63415,17.75953 2.34651,2.18614 7.49675,-0.71772 7.97066,-3.46491 1.1157,-6.46764 -6.08341,-10.24343 -9.60482,-14.09963 m 16.7911,-5.11363 c 4.22493,1.71569 8.80353,0.77108 13.10656,0.25499 m -12.67302,4.22989 c -5.73724,8.47874 9.10551,12.02493 8.37087,18.10452 -0.58409,4.83368 -7.82635,0.75406 -9.08789,-1.04997 m 50.275205,-8.68477 c 0.3879,-1.60939 1.22894,-3.13764 1.30065,-4.81487 0.26595,-6.21988 -4.65451,-7.29008 -8.454235,-2.33994 -6.56889,8.55769 1.89633,33.35166 11.455745,18.38951 m 2.86815,-8.9891 c -2.18733,1.4091 -2.27585,4.1478 -2.21777,6.52483 0.30195,12.35857 15.84718,-1.11602 1.45072,-9.20976 m 4.16876,-3.41991 c 1.92243,1.73361 3.6538,3.69152 4.50226,6.19484 1.00264,2.95823 1.19967,5.80808 1.25062,8.92477 0.024,1.47044 0.1334,5.88051 0.1334,4.40988 0,-2.36966 0.46452,-18.90736 3.01818,-18.52451 1.87698,0.2814 3.91786,3.04163 5.73621,3.8249 m 9.53561,-16.25354 c 0.66038,10.93664 5.88649,22.55909 5.20261,33.50912 m -6.01968,-12.97466 c 2.33544,1.50604 5.14427,1.60924 7.85393,1.46996 1.00761,-0.0518 8.74249,-2.43421 6.50327,-4.64987 -5.78739,-5.72649 -3.38467,24.47648 6.38653,10.82971 m 1.95097,-25.57433 c -0.61337,9.54598 1.11978,18.75345 2.65133,28.07927 m 20.55485,-16.14222 c -2.81033,11.66669 -0.68876,25.43041 -1.00051,37.76901 M 171.5773,261.25801 c -1.62427,7.80586 9.8239,11.44589 13.6902,5.06987 m 4.669,-6.10484 c 0.92838,0.18188 1.71465,0.74042 2.61798,1.00497 9.01375,2.63984 9.11027,12.12386 0.75038,10.28973 -3.25952,-0.71513 -4.10825,-6.01888 -1.31733,-7.09481 m 10.05504,-6.35984 c -0.23248,1.4602 0.86968,15.96753 4.002,14.81961 3.22866,-1.18321 4.61161,-16.44183 5.73622,-15.80958 3.25892,1.83218 1.37211,13.02536 3.90195,16.24458 m 40.67251,-18.38595 c 4.51076,-25.43923 14.70561,16.83075 0.65033,6.67483 m -1.78423,-13.99464 c 0.91119,9.14713 3.15158,18.48758 3.15158,27.64428 m 11.93932,-24.19437 c 0.0815,2.00971 -0.73177,19.50427 0.5336,19.82948 2.10007,0.53974 6.10098,-1.8758 8.23747,-2.39994 m 12.98984,-8.29478 c -0.64927,0.94874 -1.48422,0.90782 -2.41788,1.18497 m -3.36794,-71.16839 c -2.2896,13.5242 2.85143,26.36677 2.85143,39.89896 m -7.57046,-15.2396 c 3.99834,1.91769 8.45505,1.02772 12.22279,-0.97498 m -17.79225,-18.76451 c 0.60542,1.26679 1.52566,2.32123 2.30115,3.47991 m -14.14042,13.97964 c -2.29598,-4.09656 -7.13937,-0.20154 -9.08789,2.33994 -1.79413,2.3401 -8.05401,15.48993 -1.11722,15.0596 8.86619,-0.55002 10.5955,-22.41919 10.17176,-27.37428 -0.14924,-1.74524 0.39088,-9.14036 -1.45072,-10.24473 -0.30471,-0.18273 0.0932,0.70632 0.18342,1.04997 0.59392,2.26267 0.64792,4.82649 0.90045,7.15481 0.66008,6.08606 1.39274,12.12282 1.88428,18.22453 0.61222,7.59983 5.58008,11.49103 9.08789,2.02494 4.95544,-13.37264 0.89984,-7.88944 3.56845,6.08984 m -37.7856,-8.51978 c 2.40971,-0.36867 4.7856,-0.95109 6.78673,-2.39993 4.56244,-3.30325 0.49129,-7.62219 -2.51793,-3.7649 -4.06519,5.21085 -2.6503,15.77911 5.75289,11.89468 m -23.7171,-11.30783 c 0.76884,1.33262 1.5814,2.63255 2.30115,4.0199 1.42948,2.7554 2.16664,5.43688 2.71803,8.47478 0.078,0.42995 0.15384,1.71962 0.23345,1.28996 0.69567,-3.75461 -3.46617,-20.37091 6.18644,-16.16957 m -12.70638,-11.29471 c 0.0878,-0.40722 -1.18289,10.37105 -0.96715,9.89974 3.44871,-7.53391 -13.05402,-12.77961 -12.28949,5.44486 0.39226,9.35058 12.86442,16.60329 15.00752,3.8099 m -65.46869,-22.53298 c 1.78043,2.56203 2.7074,5.65096 3.63516,8.60977 1.51547,4.83319 2.3667,10.14496 3.21828,15.14961 0.0771,0.4531 0.93965,6.19808 0.95047,6.19483 2.21963,-0.66553 2.69311,-29.27045 11.25564,-9.46475 0.99797,2.30837 1.31595,4.82767 2.65133,6.95982 m -25.57948,-15.2546 c -0.7581,-0.88644 -1.49168,-1.30845 -2.63466,-1.07997 -8.01605,1.60236 6.65532,13.68967 6.82009,15.76459 0.66229,8.34053 -6.33644,2.77212 -7.92064,-1.55996 m -7.03686,-12.68968 c -6.85907,-6.03151 -10.7879,7.71124 -7.62049,13.10966 3.67413,6.26206 10.86441,-11.87162 8.40422,-14.08463 -0.16124,-0.14503 -0.11724,5.15263 -0.05,6.11984 0.32722,4.70953 1.68503,10.6866 7.37036,8.66977 m -20.56089,-18.9929 c 1.22313,-1.8374 2.9544,-5.39634 1.2006,-7.4998 -3.1753,-3.80835 -8.29397,-0.93478 -10.68869,2.03995 -12.20721,15.1638 2.17431,40.54714 13.22329,20.66946 m -70.321535,-9.06598 c 2.65735,4.94157 14.38314,-1.66328 8.45423,-5.12986 -6.46879,-3.78225 -6.67136,12.08893 -5.73621,14.78961 2.74962,7.94075 9.84292,1.80805 10.23847,-3.8849 m -22.71139,-11.2647 c -7.64524,2.64267 -4.00979,21.83562 8.85445,12.26967 m -19.35971,-22.01942 c 4.44308,9.5597 5.22691,20.40844 7.92064,30.4642 m -16.80659,-20.18531 c -7.52487,-3.25446 -11.45032,14.76945 -6.82008,13.13966 3.78981,-1.33397 5.51022,-7.23063 6.82008,-10.60472 0.55928,-1.44066 1.28398,-6.00029 1.28398,-4.45489 0,5.28099 1.35789,13.78606 4.11873,18.38952 m -23.91199,-30.5992 c 4.08491,9.71954 5.84991,20.1013 7.57047,30.41921 m -9.53812,-10.61973 c 6.2173,-1.90136 13.12157,-4.64555 19.04288,-5.86484 m -22.89481,-7.5298 c -17.5549198,3.63663 7.45597,17.62038 4.45223,23.20439 -2.71969,5.05595 -11.9430798,5.48291 -11.4390598,-1.61996" />
  </g>
</svg>
