<?xml version="1.0" encoding="UTF-8" standalone="no"?>
<!-- Created with Inkscape (http://www.inkscape.org/) -->

<svg
   version="1.1"
   id="svg59"
   width="3000"
   height="1998.207"
   viewBox="0 0 2999.9999 1998.207"
   sodipodi:docname="WilF - Stake - Envelope52.svg"
   inkscape:version="1.2.1 (9c6d41e410, 2022-07-14)"
   xmlns:inkscape="http://www.inkscape.org/namespaces/inkscape"
   xmlns:sodipodi="http://sodipodi.sourceforge.net/DTD/sodipodi-0.dtd"
   xmlns="http://www.w3.org/2000/svg"
   xmlns:svg="http://www.w3.org/2000/svg">
  <defs
     id="defs63" />
  <sodipodi:namedview
     id="namedview61"
     pagecolor="#ffffff"
     bordercolor="#000000"
     borderopacity="0.25"
     inkscape:showpageshadow="2"
     inkscape:pageopacity="0.0"
     inkscape:pagecheckerboard="0"
     inkscape:deskcolor="#d1d1d1"
     showgrid="false"
     inkscape:zoom="0.68188474"
     inkscape:cx="227.31114"
     inkscape:cy="345.36629"
     inkscape:window-width="1920"
     inkscape:window-height="1051"
     inkscape:window-x="-9"
     inkscape:window-y="-9"
     inkscape:window-maximized="1"
     inkscape:current-layer="g65" />
  <g
     inkscape:groupmode="layer"
     inkscape:label="Image"
     id="g65">
    <path
       style="fill:none;stroke:#8e868d;stroke-width:0.541041"
       d="m 259.33915,190.04858 c -0.72445,3.96895 -2.38201,29.49416 3.7873,25.42901 M 5.0490047,221.42906 c 5.7394883,-1.0572 13.4554483,1.18605 15.1491983,-4.86939 1.568925,-5.60915 -12.2926543,-5.75399 -14.4278272,-11.90294 -2.450003,-7.05628 7.2178902,-12.44398 13.3457442,-12.44398 m 260.78266,0 c 0.58909,8.98473 -0.2722,17.6796 -1.62313,26.51109 M 48.873478,192.75379 c 3.295491,7.3663 2.551018,19.61875 1.082087,27.59318 m -25.429017,-26.5111 c -0.03737,7.41006 -0.01359,14.79672 0.541041,22.18276 M 164.65665,194.37692 c 2.44706,7.25631 2.43171,14.63088 2.70521,22.18275 m 101.71606,-22.18275 1.62313,0.54104 m -139.58906,20.55963 c -2.3703,1.18542 -7.17585,2.25615 -9.73877,0.45069 -3.81219,-2.68412 -3.69748,-8.05288 -1.71348,-11.81259 2.6273,-4.97705 6.60072,-9.75609 12.53434,-8.02529 2.70089,0.78776 3.66989,2.15281 4.32834,4.23799 m 82.23852,15.1492 c -4.78174,4.78173 -9.72795,2.77663 -10.73051,-3.7873 -0.51344,-3.35771 0.60814,-8.39915 2.25399,-11.3619 1.03501,-1.86281 2.34542,-4.60915 4.68922,-4.86939 3.14183,-0.34897 4.82177,3.0055 5.41043,4.86939 m -163.394949,0 -5.455412,7.93517 m 105.007301,-6.85308 c -6.95024,6.95023 10.20694,13.02146 3.7873,16.23128 l -6.49252,3.24626 m -86.063004,-8.77524 c 2.284821,-0.0601 5.11001,-2.77981 6.529708,-5.29188 0.569718,-1.00796 1.485844,-4.52945 -0.09036,-4.59886 -9.153219,-0.40308 -8.123279,15.66434 -1.532773,16.5018 2.176072,0.12066 4.153043,-1.47488 5.951469,-2.70521 m 159.60765,2.70521 c -3.91228,-0.72066 -4.98787,-7.55773 -2.10032,-11.76763 1.10967,-3.13863 3.70722,-5.36719 6.96971,-5.00469 0.9333,0.10388 2.52504,0.41552 2.52504,1.62313 0,3.01036 -8.26047,4.20811 -10.44534,5.04223 m -10.86204,0.80767 c 0.70715,-2.23883 3.60825,-6.60628 6.33835,-6.39095 m -63.63629,5.24139 c 0.20559,-2.6008 4.06563,-6.83341 6.28575,-5.24139 3.76254,2.69808 2.44389,11.59022 3.7873,16.23129 m 82.60653,-5.56061 c -1.88932,1.88932 -7.95939,6.84775 -10.64783,7.18374 -5.77834,0.72229 -4.14872,-8.83523 -2.61486,-11.90295 1.90068,-3.80136 8.81131,-5.68847 12.01537,-5.68847 m -216.184261,7.98795 c -1.332049,1.63287 -7.265793,6.64991 -9.633398,6.26686 -2.914056,-0.47125 -0.55511,-5.51593 0,-6.94321 1.414284,-3.63635 3.61633,-6.72083 8.498888,-6.40981 l 2.32197,13.44337 m 229.402181,-12.98503 10.82085,-0.54104 m -264.028918,1.62313 c 3.290621,0 7.331672,-0.47774 9.738771,-0.54105 m 194.459837,-0.51093 c 0.50037,4.31654 1.08818,9.70403 1.39768,14.037 m 43.82447,-11.90294 1.08209,11.3619 m -218.702779,-9.67717 7.69606,8.59509 m 87.107899,3.7873 c -0.14088,-5.18475 -0.60792,-12.46614 0.0102,-17.25235 -15.71454,-0.99304 -9.04495,21.33856 -0.0854,13.72783 m 4.40352,19.7558 c 0,3.85439 0.99065,15.98357 1.89365,20.79935 l 0.34491,5.08935 m -37.40635,1.16344 c -2.74579,0 -6.02884,0.76288 -8.11564,-1.08208 -4.06594,-3.59415 -6.36429,-9.78314 -4.68922,-14.60816 2.37354,-6.83499 13.82471,-13.27935 16.05111,-2.70521 m 49.2349,-5.41043 1.62313,11.3619 0.63118,6.6427 M 13.164648,243.07077 c 2.985473,-4.61401 9.928677,-1.26658 10.279813,3.78731 -0.628159,3.92281 -7.030452,14.72189 -9.107375,13.79659 -2.750119,-1.42619 1.501394,-4.05782 4.779034,-2.97574 l 4.869386,2.16417 m 10.820855,-6.49251 c -1.865515,1.52195 -4.368379,2.92812 -5.23026,5.41043 -1.668037,4.80446 5.569494,5.58681 8.476517,3.1559 4.080005,-3.41073 -6.794956,-11.78283 -6.492514,-16.14093 0.25916,-3.72941 3.642844,-4.77092 5.951472,-1.62313 m 221.827574,-1.08209 v 10.27982 2.70521 3.7873 l 6.49252,-1.62312 m -225.073837,-12.44399 -5.410427,7.5746 m 207.655354,10.84326 c 3.02969,-2.03031 11.57305,-11.25824 12.00805,-15.1716 0.70282,-6.32696 -6.18224,-10.61244 -11.33932,-3.42664 z M 47.791391,247.30876 c 2.465532,-0.6249 3.715885,2.70035 3.787303,4.4187 0.109289,2.61756 -0.760708,7.20074 -4.328345,7.84512 -2.212324,0.39929 -3.151576,-1.26766 -3.246257,-2.97573 -0.07033,-1.26442 -0.111996,-2.03216 0.09036,-3.24626 0.283504,-1.70104 1.510049,-5.48726 3.696943,-6.04183 m 109.812925,7.03761 c 1.24332,-1.12793 7.11352,-2.94706 4.22687,-5.28658 -3.44956,-2.79573 -4.25883,3.99708 -4.2081,6.45497 0,3.09368 0.44691,6.18628 4.32835,6.49251 m 39.857,-8.11564 c 0.79479,3.17917 -0.75908,8.78708 -4.68922,8.29581 -6.85339,-0.85647 -5.9731,-11.68041 -1.62312,-14.24728 2.5653,-1.51376 5.46236,2.55264 6.31234,5.95147 z m -144.278274,9.19773 c 1.804919,0 4.960281,0.6341 6.492515,-0.27052 6.894604,-6.90224 -8.354576,-12.33353 -4.373415,-18.89506 l 7.619672,-0.31196 m 137.424882,8.11564 c 0,1.9391 -0.15716,6.75402 3.7873,6.31235 3.15219,-0.35296 5.33161,-4.50837 5.13991,-8.47652 1.09458,5.39404 1.9905,7.3268 2.43469,9.73877 m -92.96902,-8.92721 c 1.25955,-0.85539 3.0899,0.0519 4.238,0.45069 3.20297,1.11238 5.96175,6.4422 2.70521,9.37844 -1.91043,1.72268 -4.9381,2.85779 -7.03356,1.53277 -2.81018,-1.77678 -2.74201,-9.43795 0.0903,-11.3619 m 11.83991,2.39402 c 2.85233,-2.16004 4.55708,-1.33634 6.4652,-1.04141 m 43.82447,0 c -2.58176,5.99161 -1.89452,13.52995 -3.24626,18.39546 m -8.65668,-17.31338 c 1.39643,3.53843 6.40734,6.27674 9.88895,7.55956 m -47.91072,-9.10132 0.14877,8.03428 m 12.44398,-1.62313 c 1.55117,-0.44906 6.19207,-1.24324 7.78381,-1.2849 m 121.52544,3.99012 0.54104,0.54104 m 20.55963,18.39546 c 0,3.59955 -0.19423,4.00913 -0.54104,7.5746 -0.47125,4.84936 -0.70066,9.05868 -1.62313,14.06711 m -16.23129,-17.31337 c 2.00727,-1.84875 4.8261,-4.07622 7.5746,-3.06609 2.16796,0.79695 1.6518,3.16077 1.62313,5.23026 -0.0536,3.8717 -2.46499,6.5688 -3.14106,10.35872 l 6.76295,1.12343 m -270.897068,7.45435 c -9.884313,-0.78018 -10.136438,-13.58829 -3.787299,-19.47754 1.887159,-1.75028 5.891957,-4.09407 8.115643,-4.32834 m 220.745494,0 -5.41043,15.1492 12.24059,0.46665 m 0.20339,-14.53377 v 22.7238 m 5.41043,-0.54104 c 2.62028,0.75854 10.16295,0.19044 8.47652,-4.86939 -1.49057,-4.47063 -8.15514,-7.89868 -8.29635,-12.98503 -0.0427,-1.5371 0.73798,-3.50217 2.52505,-3.7873 2.18635,-0.34843 4.57722,0.54105 7.03355,0.54105 m -134.71967,0 c 0.35328,8.29633 0.7034,16.59276 1.08209,24.88797 m 167.18224,-24.34693 c 2.76906,-0.80128 4.19795,-0.72879 7.5746,-0.54104 7.19259,2.19368 -0.5844,9.84701 -3.24625,8.65668 2.41168,-5.28158 11.45635,-0.93721 11.90294,1.62313 0.40091,3.60876 -0.75313,7.40309 -4.86939,7.5746 -3.8084,0.15853 -6.8377,0.52914 -9.19773,-2.70521 m -272.144559,-14.60816 2.705215,1.08209 m 108.749614,-1.08209 1.62313,1.08209 m 67.63036,1.08208 v 17.85442 m -8.11564,-15.69025 c -0.25698,5.35938 -0.10918,10.49108 1.08208,15.69025 M 42.035439,293.77845 c 8.902642,-3.78356 11.36178,4.90261 11.166383,10.43017 m 43.824472,-2.70522 c 0.162853,-2.05975 0.50371,-8.94398 3.246256,-9.46825 4.28939,-0.82022 4.13465,6.92968 4.86939,9.46825 m 85.48477,-8.47651 c 2.20259,0.91815 4.92674,2.45958 6.04182,4.68921 1.60366,3.20839 -0.60326,7.3847 -3.87765,8.47652 -5.38446,1.79464 -9.19773,-3.17429 -9.19773,-8.47652 0,-2.12629 0.61463,-4.6811 2.70522,-5.68095 1.47867,-0.70714 3.02767,0.45015 4.32834,0.99174 z m -111.657612,6.10195 c 0.07412,-2.81829 6.020074,-10.17168 9.761386,-6.19177 1.988872,2.11548 0.721209,10.26683 0.721209,13.43572 M 204.57756,292.97822 c 3.6639,-0.52065 7.34568,-0.85676 10.93712,-1.75463 M 63.481635,306.91383 c -3.853307,1.52088 -5.951473,-3.35879 -5.951473,-6.49251 0,-1.20707 -0.108749,-2.05326 0.09036,-3.24626 0.824549,-4.94729 3.480527,-3.8928 7.484246,-3.7873 m 58.662172,7.79137 c -1.43809,1.43809 -8.31164,9.16113 -10.50936,9.16113 -3.07258,0 -3.61417,-5.3823 -3.15591,-7.21373 1.52358,-6.09593 4.30623,-10.39139 11.62488,-10.3356 0.72876,3.15813 1.46803,10.12442 4.64449,12.12087 m -84.516065,-12.23032 -0.556096,8.28088 m -9.738771,-5.41043 0.541045,8.65669 m 46.58972,-10.06924 0.481011,10.61028 m 51.399066,-6.49251 8.11565,-0.54105 m -67.630359,1.62313 v 8.65669 m 73.581819,-7.5746 1.08209,7.5746 m 19.47754,-1.08209 -3.78729,3.24626 m 357.08828,46.52968 c 0.63144,10.32654 2.41879,20.58504 0.54107,30.83945 M 382.69691,362.64125 c -0.52265,9.74336 1.21061,19.532 0,29.21631 m 123.89884,-28.67527 1.08206,1.08209 m -149.86886,-0.54105 c 0.0488,9.03312 0.53836,18.03995 1.08209,27.05214 m 188.28292,-25.97005 c -0.34665,8.2648 0.61959,14.94005 -0.017,23.26484 -4.58899,1.2866 -12.01565,0.96901 -12.42687,-3.24625 -0.21641,-2.20367 0.86025,-5.37527 1.62313,-7.57461 2.72787,-5.87075 5.65343,-5.09609 10.64476,-5.05883 m -71.7827,-5.76202 0.54107,1.08208 m -15.14923,0.54104 1.72831,21.01036 m 63.81679,-11.83149 c 2.54831,0 11.27762,-5.27578 6.95466,-7.82626 -8.42741,-1.22346 -9.98744,12.79892 -1.05216,14.04453 M 390.81255,370.21585 c -2.50335,3.77693 -4.10367,8.59585 -7.75007,11.05389 m -122.64124,12.21095 c 0.12823,1.62529 -0.25916,2.33785 1.17244,3.60713 2.61053,2.31513 10.67424,-1.20274 12.08311,-4.14817 0.97766,-2.0446 -1.1232,-3.18296 -2.43469,-4.32835 -3.11533,-2.72036 -10.38424,-5.24757 -10.82086,-9.73877 -0.51507,-5.29951 7.19749,-8.00581 11.3619,-8.11564 m 132.10481,8.65668 c 1.68123,-0.96083 4.28071,-1.04475 5.86111,-1.62312 2.31511,-0.84782 4.41974,-4.30616 2.4347,-5.95147 -9.62365,-7.9766 -13.13578,20.18281 3.2986,13.47347 m 68.93062,1.13468 c 0.90355,-2.86103 2.65868,-15.67942 6.49251,-15.05884 2.17175,0.35113 2.03975,4.28073 2.70523,5.86111 4.13626,-3.70127 4.45817,1.41267 5.58896,4.32835 0.90356,2.31241 2.14253,2.99846 4.14981,1.62313 m -166.64121,5.95147 c 1.048,0.82725 2.12252,1.4462 3.24626,2.16417 1.16378,0.74339 5.11502,3.47025 6.222,1.53277 0.75529,-1.32122 -1.80114,-4.15034 -2.4347,-5.32007 -2.02783,-3.74402 -4.79202,-15.07183 1.08209,-15.69024 m 169.88746,1.08208 c 2.41846,-0.44528 7.74216,-1.55559 9.73861,-1.60807 m -196.22232,16.79447 c 10.5513,-4.18225 7.36243,-18.90192 -0.99782,-14.36118 l 1.36278,18.65232 v 10.27982 m 88.18997,-10.27982 c 8.14758,0 1.9732,-8.94235 1.0821,-13.52607 -0.59894,-3.08123 -0.68444,-6.98594 3.24625,-5.95147 m -121.68727,9.25089 c 1.03285,-1.47542 5.20941,-1.94735 6.98619,-3.84046 0.93005,-0.99119 1.7941,-2.79178 0.81157,-4.23799 -7.23082,-5.36982 -11.30969,15.11754 -3.51678,17.13266 1.77733,0.2965 3.42859,-1.08803 4.86939,-2.07381 m 3.87765,-4.86939 c 0.89239,-0.81363 2.07327,-1.8179 3.1559,-2.52504 2.28104,-1.48896 4.24502,-2.76257 3.7873,-5.5906 -0.46313,-2.86428 -3.45293,-1.50464 -4.86939,0 -5.07056,6.24322 -1.00681,15.49944 7.14166,14.55411 m 51.18562,-7.5055 c -1.13729,2.16038 -8.97822,6.9249 -10.53533,2.69016 -1.90934,-5.19455 4.96459,-10.82086 9.8291,-10.20194 l 1.35264,12.36611 m -95.22356,-11.90294 c 1.96183,1.55766 1.72106,3.60334 1.62313,5.95147 -0.0649,1.55442 -1.62313,3.8809 0.0904,5.32008 3.02876,2.54452 5.84272,-7.07252 6.9432,-8.56634 2.05542,4.88237 0.0666,8.81359 3.7873,13.52607 3.04986,-3.86304 0.54104,-9.20422 0.54104,-14.06711 m 62.76098,-1.62313 h 7.03355 m 147.16367,0.54104 1.08206,11.3619 m -15.81049,-11.34684 -0.4208,6.47746 m -17.85441,0.54104 2.70523,10.27982 m -91.0742,-17.30233 8.29464,8.1046 m 63.84304,4.32834 11.28667,-2.25431 m 185.65296,17.94455 c 4.69332,-3.89103 4.1828,-6.15725 7.48262,-1.62313 1.81701,2.49668 -1.07739,19.63828 -5.22647,17.5839 -3.48567,-3.30105 6.6922,-6.09412 8.56472,-6.76304 m -93.0594,-11.90294 c 0.0595,2.28969 0.78454,3.79974 1.0821,6.49251 0.57893,5.19185 0.54103,10.95991 0.54103,16.77233 m 49.77596,-5.41043 c 2.67276,0 10.92905,0.27594 12.17346,-2.25452 0.91435,-1.85957 -5.93525,-8.48139 -6.40052,-10.7305 -0.31923,-1.5344 -0.97932,-4.15359 1.2606,-4.77904 1.09833,-0.30731 2.21289,0.3506 3.24626,0.45069 1.66642,0.16231 2.95409,0 4.86938,0 m 4.86939,0.2893 c 5.10007,0.33792 7.45016,6.53704 4.42035,11.61364 -0.97388,1.62908 -2.46716,3.43887 -4.42035,3.24626 -2.69439,-0.26565 -2.70519,-3.44752 -2.70519,-5.41043 0,-3.32362 -0.88233,-9.97648 2.70519,-9.73877 m 27.05216,1.08209 c 2.89456,1.75298 4.5069,-0.15095 7.57457,-1.62313 l 4e-5,4.86939 -2.70523,15.14919 M 409.20804,406.46572 v 12.17346 c 0,7.6352 0.35112,10.31012 0.54102,12.71451 m -55.7274,-20.01859 c 1.45648,-1.45648 2.80476,-3.55789 4.86938,-3.78729 4.71573,-0.52373 4.91322,5.50078 4.8694,8.65668 -0.0487,3.50758 -2.36326,6.99789 -6.8168,8.26791 m 163.71924,-16.38355 c -3.37071,3.36853 -6.60614,6.61641 -2.70523,10.82086 1.75298,1.88877 8.69457,4.838 7.30408,7.57459 -2.6457,5.21999 -14.61899,5.19401 -12.17347,-3.24625 m 34.0857,1.62312 -5.95148,4.32835 -0.54103,-15.1492 -0.27053,-3.69695 8.38617,-2.25452 m 40.03719,0.18016 c 2.21825,-0.78343 4.96677,0.91545 5.95144,3.06609 1.92073,4.19201 0.84403,11.16388 -4.86938,12.35364 -2.62947,0.54753 -3.21919,-2.33028 -3.24626,-4.23799 -0.0433,-2.99251 -1.17945,-10.00226 2.1642,-11.18174 m -125.37906,9.05511 c 0.0677,-2.56617 6.7413,-10.28652 10.04656,-6.98075 4.19417,4.19363 -6.30593,11.5353 -9.62576,13.19522 m 60.57414,-13.28557 9.19775,-0.54104 m -178.07751,0.0203 c 1.37855,7.68554 1.41972,16.00742 1.69751,23.78555 m 104.42127,-22.7238 c 2.55428,6.06671 2.77068,14.33168 1.62313,20.55962 m 116.32423,-20.01858 1.71512,11.3619 0.44903,5.41043 m -194.13328,0.31789 c -8.88249,-0.22893 -6.94885,-12.10685 -3.34737,-15.46709 1.35316,-1.1627 5.12531,-2.09059 6.22202,0 0.94571,1.8033 -1.61449,3.28305 -2.97577,4.05782 -1.94828,1.10969 -4.90732,1.51834 -6.25561,2.86661 m 228.0832,-5.3013 8.11564,-2.70521 m -87.55419,-1.83931 c 1.32297,4.99393 0.43853,13.72872 1.52838,17.52955 m -142.83532,0 c 3.01955,1.90718 10.35731,4.99371 11.3619,1.62313 1.38599,-4.65025 -11.09193,-15.69025 0.54103,-15.69025 m 28.26208,5.55318 c 0.11471,-4.3554 6.37281,-7.08379 8.88971,-3.389 2.10682,3.09314 1.26227,8.061 1.26227,11.90294 m 45.82339,5.53059 c 5.01929,-5.32601 12.35392,-12.82809 7.64948,-19.59771 -2.17767,-3.00549 -5.2427,-2.96978 -8.94201,-1.71327 0.17822,6.95914 1.00857,14.73187 1.29253,21.31098 z m -115.22703,-14.9463 c 1.64865,-4.27131 3.91393,-3.61 6.10162,-3.56929 m -108.74961,0.54104 c 3.1532,0.33167 3.24626,2.28212 3.24626,4.86939 0,6.2366 -1.62313,11.78987 -1.62313,18.39546 m 272.22244,-22.07118 5.33255,-0.65262 m -126.063,1.26225 c 5.19238,-1.80275 6.16573,7.7499 0.54107,9.46825 -2.17175,0.66386 -4.52691,0.13797 -4.86939,-2.07382 -0.41771,-2.69547 1.76649,-6.50496 4.32832,-7.39443 m -144.99947,0.90192 c 2.34433,-0.67847 6.88368,-1.87147 9.10737,-0.27052 3.19765,3.7937 -2.56216,13.72205 -3.33607,14.87868 -1.24277,1.82385 -2.48338,2.13387 -4.14817,1.08208 1.83575,-3.47734 9.31437,-6.46301 9.73877,-4.86938 0.69632,4.49282 -2.95464,9.17554 -4.32835,13.52607 m 40.03718,-24.88797 v 15.69024 l -0.54105,4.86938 m 47.61177,-22.03239 c 0.67088,3.64175 1.06911,10.91072 1.62313,13.91675 m 57.8916,-15.15283 v 9.7424 m -116.23387,-3.24625 c 1.85631,4.60914 1.61014,10.30362 -3.87765,12.89467 -3.54384,1.67344 -4.92458,-3.27168 -5.32008,-5.86112 -0.43338,-2.83506 0.41444,-8.57877 3.1559,-10.00929 3.03796,-1.58526 5.07931,0.58649 6.04183,2.97574 z m 91.3535,-1.78093 h 10.9032 m -117.49625,2.32197 -0.54105,12.98503 m 170.85691,-13.1577 8.76932,5.04205 m -29.21632,44.90656 c 1.8509,0.53563 9.75825,0.85593 9.01758,-3.24625 -0.56432,-3.12399 -12.5771,-14.19751 -5.23029,-16.68198 1.80277,-0.60975 3.99452,-0.8121 5.95148,-1.17244 m 34.0857,0 v 4.32834 c 1.02903,6.88242 1.28856,12.47259 2.16416,19.47755 m -67.0893,-18.39546 9.19774,-2.88538 2.61486,-0.6314 c 1.24965,7.47976 -0.24472,14.9832 -0.99173,22.45328 m 29.21632,-20.01859 c 1.25411,-1.71889 5.37093,-4.51878 7.30407,-1.08208 1.35694,2.41197 0.48098,9.06246 0.2705,11.90294 -0.0736,0.9939 -0.43605,1.36397 -0.99173,2.16417 -1.20599,1.73621 -2.26804,2.42928 -4.41869,3.7873 -2.48395,-7.86352 8.02686,-1.62545 10.82087,-1.62313 m -80.07437,-16.23128 c -4.87908,8.29031 -9.74875,16.58611 -14.60815,24.88797 m 114.25202,-24.61745 c 1.70972,-1.20923 4.94514,0.70173 6.40056,1.71348 3.93877,2.7366 6.73059,8.69727 2.16416,12.26328 -1.36343,1.06531 -2.69439,1.48841 -4.32836,1.44296 -3.70073,-0.1028 -5.90599,-4.28614 -5.95144,-7.5746 -0.0256,-1.81682 -0.17153,-6.5147 1.71508,-7.84512 m -186.21071,1.35261 c 0,1.56902 -0.23968,2.40547 -0.45069,3.7873 -0.18882,1.23303 -0.0904,1.97859 -0.0904,3.24625 0,3.63689 0.59298,6.7203 1.62313,10.27982 m 171.51057,-16.77233 c -0.64166,1.74108 -3.95772,7.18451 -3.42643,8.65669 0.81538,2.26155 9.95084,0.93331 12.18426,0.93331 m -213.63289,8.26441 c 0.95061,-3.11099 0.86567,-7.51671 0.36087,-10.82085 -0.45988,-3.00928 -5.98663,-5.67608 -8.65668,-5.86112 -1.8152,-0.12606 -3.91012,0.88948 -5.13991,3.96747 0.27052,6.92643 3.17287,21.85728 4.31329,25.76701 4.16864,-3.4095 7.74115,-8.53209 9.12243,-13.05251 z m 105.32319,-16.77232 c 2.41899,4.83746 7.19967,11.78337 12.98502,14.06711 m -93.05936,-12.98503 -0.54105,8.65669 -0.54104,10.27981 m 66.00724,-17.85441 c 3.6688,0 7.23696,-1.34179 10.2798,-0.54105 m -46.52968,18.93651 c 1.28281,0.91165 6.85339,2.14902 6.85339,-1.08209 0,-1.4922 -2.26968,-2.94219 -2.88592,-4.32835 -1.44134,-3.24301 -2.34434,-6.45356 -2.34434,-9.73877 0,-2.81558 1.09344,-4.66325 4.32834,-2.70521 m 88.73104,2.70521 c 2.05326,-0.75638 12.51408,-2.6153 14.37743,-2.66453 m -115.22199,14.26694 c -0.9241,1.26658 -6.14614,4.48442 -7.81471,2.9154 -3.99398,-3.75376 1.73783,-14.40906 6.8906,-13.76628 0.25206,4.20565 0.64114,10.94287 1.13469,14.39768 m 46.64994,-18.68077 0.96182,14.89346 m -78.07576,5.2452 c -2.40763,1.64747 -11.43166,5.91868 -14.44256,4.94426 -3.10613,-1.00471 -1.63449,-7.73799 -0.36087,-9.64841 2.19284,-3.289 8.96503,-6.50033 13.54877,-6.00407 0.87922,3.96542 -0.19963,10.37353 2.50234,12.49658 l 1.08209,-1.62313 m 54.10429,-3.24625 -3.7873,8.65668"
       id="path177"
       sodipodi:nodetypes="cccscccccccccccccccccccccccccscccscccccsccccscccscccsccccccccccccccccccccccccccccccccccccccccccccccccccsccsccccsccccccscccccccccccccccccccccccccccccccccccccsccccccccccccccccccccccccccsccccccccscccscccccccccccccccccccccccccccccccccccccccccccccccscccccccccsccccccccsccccccccccccccccccccccccccccccccccsccccccsccccccssccccccccccsccccccccccccsccccccccccccccccccccccccscccccccccccscccccccccccccccccccccccccccccccccsccccccccccscccccccccccccsccccsccccsccccccccscsccccccccccccccccc" />
  </g>
</svg>
