<?xml version="1.0" encoding="UTF-8" standalone="no"?>
<!-- Created with Inkscape (http://www.inkscape.org/) -->

<svg
   width="3000"
   height="1998.207"
   viewBox="0 0 793.74998 528.69227"
   version="1.1"
   id="svg5"
   xml:space="preserve"
   inkscape:version="1.2.1 (9c6d41e410, 2022-07-14)"
   sodipodi:docname="WilF - Stake - Envelope79.svg"
   xmlns:inkscape="http://www.inkscape.org/namespaces/inkscape"
   xmlns:sodipodi="http://sodipodi.sourceforge.net/DTD/sodipodi-0.dtd"
   xmlns="http://www.w3.org/2000/svg"
   xmlns:svg="http://www.w3.org/2000/svg"><sodipodi:namedview
     id="namedview7"
     pagecolor="#ffffff"
     bordercolor="#000000"
     borderopacity="0.25"
     inkscape:showpageshadow="2"
     inkscape:pageopacity="0.0"
     inkscape:pagecheckerboard="0"
     inkscape:deskcolor="#d1d1d1"
     inkscape:document-units="px"
     showgrid="false"
     inkscape:zoom="1.0998546"
     inkscape:cx="472.78977"
     inkscape:cy="304.58572"
     inkscape:window-width="1319"
     inkscape:window-height="1011"
     inkscape:window-x="558"
     inkscape:window-y="17"
     inkscape:window-maximized="0"
     inkscape:current-layer="layer1" /><defs
     id="defs2" /><g
     inkscape:label="Layer 1"
     inkscape:groupmode="layer"
     id="layer1"><path
       style="fill:none;stroke:#333233;stroke-width:0.0835672"
       d="m 6.8044817,1.8520833 c 0,0.5997624 -0.066104,0.8968438 0.01395,1.4206423 0.04362,0.2859676 0.128858,0.5330764 0.153178,0.7521047 0.044959,0.404633 0.083567,0.5912378 0.083567,0.8356718 H 6.5537736 L 5.8016688,4.7769349 m 6.4346742,-2.8412844 -0.02783,0.7521047 c -0.120946,1.0628036 -0.0276,2.0965922 0.149559,3.1414519 l 0.12897,0.6190717 M 33.378836,2.3534865 c 0.07095,0.385327 0.08357,0.4157467 0.08357,0.7521047 0.03769,1.1644628 0.19204,2.0357296 0.334262,3.2591204 0.04889,0.4399813 0.301974,1.2077104 0.295222,1.5974527 -0.0075,0.4337006 0.111477,-1.0233724 0.250534,-1.322543 0.136215,-0.2929852 0.874215,-1.6697284 1.292722,-1.486634 0.215854,0.094431 0.291982,0.4247714 0.362096,0.626754 0.09293,0.267665 0.181423,0.5364191 0.236828,0.8356719 0.02556,0.1383859 0.05323,0.1869405 0.06961,0.3342688 0.04847,0.4361384 0.02366,0.7809354 0.501403,0.9192391 M 57.195476,2.8548896 c 0.02556,0.3240729 0.125768,0.7973988 0.167134,1.1699407 0.07922,0.7130781 0.101363,0.9900145 0.250711,1.6295602 0.06231,0.2668425 0.122433,0.7286269 0.08357,1.1281604 -0.04262,0.4379743 -0.23031,0.9437236 -0.417836,1.2535078 M 27.529126,3.022024 c -0.241115,0.9132644 -0.305984,1.896814 -0.104176,1.1372376 0.175363,-0.660036 -2.033769,-0.7979285 -2.820679,0.1998309 -0.234074,0.2634044 -0.437475,0.7026322 -0.487447,1.0028062 -0.03333,0.1999756 -0.01395,0.2613153 -0.01395,0.5014032 0.196179,2.6107213 3.419306,2.3827211 4.827943,0.8098878 M 56.192673,3.022024 c -0.05967,0.2062432 -0.06301,0.1573564 -0.08357,0.417836 M 3.4617777,6.7825476 c 0.3157985,0.4999818 0.8316612,1.0709135 1.337075,1.2674642 0.1526779,0.059333 0.2561334,0.069611 0.4178359,0.069611 0.464298,0 1.0888806,-0.2668294 0.8914119,-0.835672 C 5.9591831,6.8550832 5.5630746,6.6835204 5.2166886,6.4622352 4.5211595,6.0178255 3.6766277,4.8899184 3.7960465,4.1083975 3.8653217,3.6547099 4.5104603,3.2212495 4.8824199,3.1334184 c 0.1686379,-0.039777 0.232399,-0.027834 0.4178359,-0.027834 0.3836557,0 0.3882519,0.054819 0.7521048,0.083567 m 8.1895844,0.1671344 c 0.627669,0.4510523 -2.264467,3.2089636 -1.86088,2.3344231 0.328679,-0.7122195 0.900825,0.4791065 1.526625,0.5068745 0.407976,0.016977 0.249698,0 0.668537,0 M 48.671622,4.9440627 c -1.117504,0.08491 -0.921299,0.347837 -1.395779,0.9569892 m -0.286508,-0.072542 c -0.134441,0.3644945 -0.214412,0.4912698 -0.323326,0.786897 -0.100195,0.2719586 -0.278614,0.8890727 -0.752104,1.0863735 -0.257805,0.1074661 -0.454356,0.083567 -0.752105,0.083567 -0.221289,0 -0.314213,0.018227 -0.501403,0 C 44.307072,7.7510025 43.783023,7.5475986 43.490456,7.2839441 43.055989,6.8923496 42.821918,6.3317782 42.821918,5.7797347 c 0,-0.5421011 0.151171,-1.2135635 0.473573,-1.6713438 0.334354,-0.4748294 0.924171,-0.6685375 1.448473,-0.6685375 0.409394,0 0.516777,-0.038609 0.835672,0.027834 0.465719,0.097024 0.553047,0.3198945 0.58497,0.7242775 M 10.767129,5.4105289 C 10.559537,6.0323017 9.5445019,6.8058378 9.1443401,6.7825476 8.7858368,6.7667224 8.8936385,6.3927889 8.8936385,6.1975772 c 0,-0.2065787 0.2331525,-0.9606049 0.264658,-1.0863735 C 9.1844524,5.0064091 9.196086,4.8138361 9.3114745,4.6933678 9.5980211,4.3942006 9.656357,4.1967287 10.314281,4.2615755 c 0.314295,0.030992 0.409311,0.2432661 0.473576,0.5153594 0.05173,0.2191961 -0.08866,0.5212586 -0.02093,0.6615561 0.216791,0.4490684 0.116622,1.4963101 1.051571,1.5947516 M 9.3122871,4.7142003 C 9.1906705,4.7656238 8.8425934,4.6794969 8.6429534,4.6933743 7.9577024,4.7409254 7.3961737,4.7091337 7.0497054,4.8550374 m 7.7772206,0.1726057 c 0.816981,0.2339947 1.407801,0.8488913 2.089179,0.1671344 0.204655,-0.2112572 0.343294,-0.4815971 0.139308,-0.7521046 -1.824729,-0.9793088 -1.863749,2.1794388 -1.128157,2.8970244 0.150003,0.1250152 0.310534,0.1777481 0.487446,0.1949616 0.192537,0.01872 0.256384,-0.00684 0.417836,-0.069611 0.171481,-0.066686 0.480679,-0.2295598 0.668538,-0.3482252 m 13.955721,1.2535079 c 0.532655,0.4205108 1.630143,0.3132947 1.894215,-0.417836 0.04705,-0.1303648 0.06836,-0.2900604 0.04178,-0.4178359 C 33.332545,7.2456842 33.036217,7.0197172 32.710305,6.852165 32.329321,6.6564499 31.685353,6.4592314 31.554317,6.0304494 31.277545,5.1247488 32.354559,4.6379699 32.961006,4.52624 m 16.314863,1.4948427 c 0.655189,0.3214836 1.791078,-0.3492352 1.721694,-0.8263052 -0.501393,-0.8345466 -1.505611,0.2588411 -1.632653,0.8188828 -0.202808,0.546921 -0.05947,1.0662944 0.476669,1.3956478 0.658674,0.3934337 1.231359,-0.041784 1.838475,-0.041784 M 7.0546503,4.8594592 c 0.1821765,0.432628 0.141505,0.6185288 0.2651844,1.2545574 0.031848,0.1639595 0.062508,0.2470233 0.069611,0.417836 0.010857,0.2603118 0,0.6466422 0,0.9192391 M 30.587024,6.9244308 C 30.227935,7.2173339 29.593163,7.9260034 29.144743,7.3535681 28.999754,7.1684668 29.033348,6.8729745 29.033348,6.698987 c 0,-0.1942938 -0.0026,-0.2302277 0,-0.417836 0.003,-0.2085824 0.091,-0.5915735 0.236746,-0.8356719 0.163373,-0.2734325 0.312291,-0.4058865 0.598926,-0.417836 0.543269,-0.022635 0.54093,0.5280624 0.598924,0.9192391 0.02116,0.1430677 0.05382,0.1720662 0.06961,0.3342688 0.02148,0.2206174 -0.04467,0.4486999 0.06094,0.6536961 0.147862,0.2870171 0.395332,0.4789749 0.524026,0.5162446 M 47.167426,5.1112103 c 0,0 0.01323,0.5632692 0.118932,0.8803837 0.06535,0.6830992 0.04926,1.3660538 0.04821,1.8773337 m 6.841902,-2.514981 c -0.132773,0.051792 -0.144104,-0.047712 -0.407238,0.00796 C 52.74528,5.5785694 50.74787,5.922988 51.912016,7.0761922 58.049412,13.155886 50.397032,-5.623287 54.669727,7.717146 m 1.272252,-2.2716721 c -0.136991,0.8801369 -0.108266,1.7272977 0.08357,2.5905829 m 0.752105,-2.172747 c 0.47859,-0.2014791 0.492247,0.012502 0.863654,-0.229336 0.316953,-0.2063879 0.332344,-0.2015384 0.807673,-0.4392048 m -28.747092,6.267545 c 0.151589,0.666372 0.522759,1.370084 0.562977,2.024349 0.04216,0.75954 0.189085,1.488075 0.189085,2.571859 m 22.224866,-1.619417 c 0.26701,-0.330537 0.40815,-0.60218 0.895462,-1.639716 0.20113,-0.428226 0.554636,-1.640592 1.197768,-1.225681 0.202818,0.130868 0.309452,0.616558 0.334268,0.807845 0.01346,0.104041 -0.0043,0.130865 0.01395,0.250701 0.02698,0.176663 0.06961,0.225967 0.06961,0.417836 0,0.278529 -0.147828,0.742913 -0.417836,0.974979 -0.284211,0.244267 -0.88297,0.490204 -1.253508,0.557058 -0.194544,0.03518 -0.681954,-0.04166 -0.836721,-0.116698 m -27.771049,1.407426 c -0.332308,0.32101 -1.587323,0.750391 -2.061386,0.54775 -0.901914,-0.385527 -1.420642,-1.369998 -1.420642,-2.284141 0,-0.587728 0.06134,-1.15331 0.320312,-1.671344 0.3479,-1.650107 3.081096,-0.13178 2.845128,0.349975 -0.359438,0.444752 0.05345,-0.697154 0.177248,-1.018506 m 9.944495,-0.08357 0.02783,0.668537 c 0.09278,0.92328 0.222299,1.833099 0.320388,2.757718 l 0.06961,1.002806 m 20.724661,-4.17836 c 0,0.186941 0.0023,0.501989 0,0.668538 -0.002,0.149503 -0.02106,0.239756 -0.05574,0.417836 -0.04237,0.218278 -0.02783,0.268836 -0.02783,0.501403 0,0.263404 -0.0016,0.307445 -0.05574,0.58497 -0.05616,0.288807 -0.02783,0.361764 -0.02783,0.668538 0,0.226803 0.01171,0.298167 -0.02783,0.501403 -0.04697,0.241427 -0.0717,0.708232 0.125351,0.905283 0.376805,0.376806 1.603068,-0.145157 1.908089,-0.153178 M 12.654165,15.64068 c 0.286804,0.233906 0.622408,0.442153 0.91924,0.487447 1.920357,-0.625705 -0.447312,-1.790161 -0.884036,-1.98504 -0.403406,-0.180015 -0.362096,-1.19309 -0.362096,-1.587777 0,-0.161285 -0.126292,-0.203417 0.0066,-0.299101 0.26098,-0.187944 0.611544,-0.04178 1.072417,-0.04178 0.198305,0 0.30761,-0.0099 0.501403,0.02783 0.259644,0.05056 0.394438,0.05574 0.752105,0.05574 M 9.0607762,15.779994 C 9.5925136,15.383217 8.9269009,14.787298 8.559373,14.568269 8.2715038,14.429798 8.0336959,14.365372 7.8072683,14.136477 7.6291847,13.958397 7.3811447,13.599726 7.3894323,13.300805 7.4079882,12.631537 8.2290326,11.935867 8.58823,12.363487 c 0.077724,0.09253 0.097234,0.625303 -0.1676278,1.067992 -0.6672512,1.11525 -1.5012221,2.812507 0.640174,2.348515 z m 2.7855448,-1.476383 c 0.06276,0.205326 0.139307,0.425775 0.139307,0.668538 0,0.277275 -0.0255,0.576196 -0.334269,0.807845 -0.730963,0.5482 -1.18565,-0.255802 -1.309248,-0.891412 -0.04254,-0.218779 -0.02783,-0.300342 -0.02783,-0.501403 0,-0.775004 -0.292963,-1.724238 0.167137,-1.838479 0.670051,-0.166371 1.12064,0.955423 1.364906,1.754911 z M 3.2946335,13.217238 c 0.4389778,-0.758205 1.5779985,-0.701379 1.894218,0.08357 0.1341254,0.333015 0.1113945,0.480176 0.1113945,0.919239 0,0.370621 -0.030071,0.368212 -0.097524,0.668538 -0.1481212,0.659631 -0.849954,1.375098 -1.4066792,0.974979 -0.2034861,-0.146243 -0.2385843,-0.339283 -0.2507016,-0.557143 -0.00727,-0.130283 -0.010035,-0.236413 0.041784,-0.334269 0.1293614,-0.244434 0.4393957,-0.334269 0.710321,-0.334269 0.3723741,0 0.7693282,0.255022 0.8923792,0.404929 0.3849256,0.727528 1.792411,0.644455 2.4599582,0.220874 M 31.452882,13.71085 c 0,0 -0.848207,-0.02695 -1.24902,0.01273 -0.301958,0.09783 -0.605586,0.07861 -0.919805,0.07861 m 2.506571,0.7241 c 0.223556,-0.02477 0.532238,-0.07819 0.752523,-0.166944 0.290814,-0.117162 0.920575,-0.415161 0.793888,-0.724277 -0.07354,-0.179505 -0.228556,-0.161048 -0.376052,-0.167135 -0.149503,-0.0063 -0.282875,0.0153 -0.417836,0.06961 -0.516028,0.207915 -0.627876,0.442574 -0.731499,0.800659 -0.16597,0.596052 0.366642,1.132754 0.731499,1.27465 0.264072,0.102702 0.605609,0.11457 0.835672,0.111395 0.399533,-0.0055 1.280644,-0.591847 1.619176,-0.921519 m 6.737543,-1.279056 c 0.838511,-0.329922 1.270971,1.446463 1.253508,1.866306 -0.01461,0.350396 -0.0061,0.67723 -0.501404,0.821715 -1.268263,0.02639 -1.108028,-1.328905 -1.002809,-2.075223 0.02622,-0.189112 0.04278,-0.530987 0.250701,-0.612798 m -2.67415,0.111395 v 1.002806 l 0.05574,0.501403 0.194965,0.835672 0.02783,0.417836 0.05574,0.417836 -0.181091,0.835672 -0.654581,0.752105 m -11.532272,-4.59619 c 0.0279,0.35399 0.145262,0.540052 0.149266,0.808296 l 0.01787,1.197317 m -0.02138,-1.235794 c 0.130951,-0.13786 0.364672,-0.407226 0.501782,-0.419011 0.314173,-0.02701 0.594692,0.045 0.856659,0.234163 m 16.0449,-0.584971 c 0.0023,0.09017 0.01188,0.192455 0.05574,0.417836 0.09092,0.467559 0.02783,0.697868 0.02783,1.337075 0,0.206493 -0.04713,0.835672 0.334269,0.835672 0.564391,-0.109374 0.768081,-0.699464 1.077006,-1.046801 m -0.0742,-1.460215 c 0,0 -0.05493,1.00632 0.06925,1.470109 0.128523,0.473414 0.302533,0.648145 0.432151,0.95334 M 24.93852,14.011126 c 0.327751,-0.185019 0.775085,0.2141 1.002806,0.45962 0.154264,0.166298 0.318223,0.481515 0.40388,0.668537 0.06317,0.137718 0.107551,0.237749 0.09752,0.417836 -0.01411,0.254545 -0.168055,0.663606 -0.417836,0.793889 -0.607033,0.316719 -1.275903,-0.494383 -1.337075,-1.04459 -0.0346,-0.311456 -0.103873,-1.095148 0.250702,-1.295292 m 11.950108,0.04178 c 0.07237,0.393016 0.240088,0.825144 0.501403,1.086373 0.593995,0.593995 1.265105,0.415869 1.736174,0.04399 m 13.723754,0.958812 c 0,-0.873195 -0.0126,-1.055878 -0.118719,-1.491316 -0.09898,-0.40611 -0.128936,-0.548155 -0.131947,-0.765012 -0.003,-0.205239 0,-0.6911 0,-1.002806 m 7.186742,2.423462 0.584971,0.417836 M 4.2138494,21.573957 C 4.1530955,21.244035 4.0859917,20.945196 3.9771044,20.654718 3.8740634,20.380118 3.767933,20.099414 3.545312,19.902613 3.3494292,19.729458 3.2114611,19.725049 2.9603417,19.735479 c -0.371624,0.01546 -0.555054,0.185687 -0.835672,0.501403 -0.4363885,0.490957 -0.6498171,1.260361 -0.7381483,1.838478 -0.038757,0.253459 -0.01395,0.417586 -0.01395,0.752105 0,0.495721 -0.022471,0.852135 0.3342687,1.253508 C 1.9410783,24.34446 2.3119489,24.597 2.6260793,24.6799 3.6946141,25.020495 5.4667155,23.727066 5.204433,22.760529 l 0.2079606,1.630498 m 0.054963,-4.237712 0.2507016,0.334269 m 21.6439028,-0.334269 0.752105,0.835672 m -2.841285,-0.250702 -0.08357,0.584971 -0.02783,0.334268 -0.05574,0.835672 c 0,0 0.02708,0.278249 0.02783,0.417836 9.87e-4,0.167388 -0.02783,0.501403 -0.02783,0.501403 v 1.754911 M 12.570562,20.821852 c 0.461959,0.182345 0.589899,0.333266 0.835672,0.501404 m 26.574367,-0.501404 c 0,0 -0.01306,1.1619 0.06431,1.735655 0.02,0.148332 0.102827,0.437096 0.102827,0.437096 l 0.01395,0.334268 0.06961,1.50421 m -0.206177,-2.339885 c -0.380902,0 -0.796879,0.08357 -1.381596,0.08357 -0.209086,0 -0.463624,0.04513 -0.581569,0.0437 -0.647441,-0.0078 -0.430881,-0.101192 -0.926141,0.008 m 0.922736,-1.639483 v 1.50421 c 0,0.366004 4e-6,0.386998 4e-6,0.58497 0,0.306942 -0.02089,0.440899 0.01395,0.668538 0.02106,0.138135 0.06218,0.200225 0.06961,0.334268 0.028,0.504328 0.06994,0.317138 0.08357,0.835672 M 35.819346,21.64699 c -0.298081,0.25739 -0.591652,0.517455 -0.838827,0.8462 -0.196633,0.248362 -0.264654,0.60979 -0.264654,0.919239 0,0.267497 -0.04045,0.423853 0.139303,0.668537 0.473826,0.645221 1.485243,0.540762 1.949876,0 0.32892,-0.38282 0.549004,-1.120376 0.383238,-1.326583 -0.419767,-0.52217 -0.67515,-1.21862 -1.344257,-1.089887 -0.03899,0.0075 -0.312117,-0.225302 -0.45962,-0.341247 m 20.64109,-0.250702 c 0.06777,0.368032 0.08357,0.342544 0.08357,0.668538 0,0.2141 -0.01428,0.284714 0.02783,0.501403 0.03251,0.167134 0.05323,0.234742 0.05574,0.417836 0.01155,0.832915 0.03928,2.090683 -0.08357,2.757717 m -8.774552,-4.261926 0.167134,0.58497 v 1.838478 0.584971 0.501403 1.337075 m 9.944493,-4.512629 c 0.451138,-0.308593 1.342122,-0.515886 1.657391,-0.167134 0.879959,0.730848 -1.138794,2.568773 -1.057721,2.205341 0.578275,-0.989471 1.18195,0.07418 1.238808,0.218108 0.142818,0.302431 0.178584,0.5604 0.167135,0.835671 -0.0081,0.193709 -0.03083,0.319981 -0.111395,0.501404 -0.09543,0.214685 -0.170309,0.325076 -0.390009,0.473576 -0.146574,0.09903 -0.489786,0.194961 -0.668537,0.194961 -0.532405,0 -0.671377,-0.243848 -1.169941,-0.58497 M 46.415275,21.239682 c -0.06393,0.809934 -1.256936,1.829703 -1.351032,2.507016 0.163746,0.879919 1.97672,0.486759 2.368153,0.447515 0.217357,-0.02116 0.470625,-0.02968 0.654223,-0.02968 m 4.261923,-2.256314 c 0.205075,-0.199644 0.401123,-0.355661 0.668538,-0.40388 0.428199,-0.07738 0.824558,-0.134043 0.988853,0.40388 0.0595,0.194543 0.108552,0.302763 0.09752,0.501403 -0.01053,0.189615 -0.30602,1.043672 -0.362096,1.16994 -0.04755,0.106884 -0.104705,0.307488 -0.215899,0.536212 -0.233478,0.480242 -1.364784,1.533416 -1.511194,0.215896 -0.0498,-0.44792 0.07095,-0.765307 0.58497,-0.793888 0.175659,-0.0098 0.352153,0.04805 0.501403,0.139307 0.165881,0.101367 0.30682,0.134981 0.463956,0.409707 0.140258,0.24522 0.720119,0.649672 0.873129,0.746274 m -5.431864,1.002807 c 0.398447,0 0.891158,-0.09184 1.155984,-0.417836 0.208082,-0.256134 0.0951,-0.582464 -0.01388,-0.835672 -0.06426,-0.149168 -0.130783,-0.282625 -0.250701,-0.417836 -0.170728,-0.192455 -0.378307,-0.231231 -0.640708,-0.250702 -0.129111,-0.0095 -0.219449,0.0034 -0.320315,-0.09752 -0.154264,-0.154182 -0.09552,-0.259644 -0.09752,-0.40388 -0.0026,-0.184266 -0.0046,-0.251119 0.02783,-0.417836 0.03811,-0.195797 0.04697,-0.259226 0.05574,-0.417836 0.01688,-0.30452 0.135461,-0.802245 0.348222,-0.98885 0.150589,-0.132121 0.254798,-0.09543 0.403883,-0.09752 0.203986,-0.003 0.245688,-0.0056 0.417836,0.02783 0.350897,0.06827 0.145071,0.05574 0.501403,0.05574 m -26.825068,1.253508 c -0.140729,-0.314548 -0.08725,-0.663605 -0.431793,-0.877455 -0.626,-0.388588 -1.371587,0.459119 -1.685214,0.961022 -0.229389,0.366943 -0.228896,0.818373 -0.222875,1.253508 0.01286,0.927096 0.753023,0.34739 1.253508,-0.08357 0.13914,-0.119751 0.415105,-0.400112 0.447874,-0.550869 0.03142,-0.144489 0.448855,-0.999529 0.412421,-0.714003 -0.03644,0.28553 0.511924,1.792056 0.511924,1.792056 M 18.420262,22.4932 c 0,0 0.198755,0.26394 0.250702,0.417835 0.08067,0.238996 0.08356,0.752102 0.08356,0.752102 l 0.08357,1.002806 m -0.149625,-1.646477 c 0.117412,-0.120587 0.202124,-0.324952 0.316779,-0.526266 0.131368,-0.230646 0.546279,-0.739152 0.98885,-0.45962 0.334269,0.211089 0.321398,0.883641 0.362181,1.128157 0.07496,0.449674 0.08532,0.999799 0.40388,1.50421 M 6.6373013,22.075364 c 0.4093114,0.818622 0.4103972,1.096075 0.4766455,1.647122 0.049986,0.41577 -0.058833,0.735783 -0.058833,1.194149 m 0.028656,-1.495356 c 0.2237101,-0.163206 0.2217953,-0.632465 0.6641158,-0.957292 0.8118552,-0.552711 1.7450178,2.81052 2.3953674,2.004823 m 4.98681,-1.345586 c 1.728127,-1.77959 1.778787,0.990597 2.287395,2.211257 m -2.423452,-2.757718 c 0.244237,0.821403 0.276256,1.249814 0.250718,1.838492 m -3.34271,-1.337088 c -0.551462,-0.435303 -1.322619,-0.483604 -1.587777,0.250701 -0.0727,0.201229 -0.126759,0.412069 -0.153178,0.584971 -0.02691,0.175826 -0.01691,0.211842 -0.01395,0.417835 0.0038,0.268001 0.0539,0.459452 0.250702,0.668538 1.599042,1.085117 3.043369,-0.9035 3.062721,-1.723962 -0.002,-0.398954 0.0301,0.973529 0.27996,1.47326 m 10.696601,-1.754911 0.663102,-0.06977 c 0.21456,-0.02257 0.201315,-0.02566 0.590405,-0.09737 m 1.922046,0.250702 v 1.086373 c 0,0.341872 -0.02691,0.412069 -0.06961,0.668538 -0.03886,0.232817 -0.07362,0.365356 -0.09752,0.668537 m 4.512628,-0.752105 -0.835672,1.002807 M 143.01894,59.26276 c 0.21894,1.186822 0.75127,2.539189 0.9886,3.760524 0.0694,0.354242 0.0483,0.4157 0.12535,0.668537 0.0642,0.210879 0.12953,0.323991 0.13955,0.417836 0.0393,0.353907 0.0644,0.730127 0.16714,1.086374 m -60.669783,1.587776 c 0.105294,0.502075 0.516445,0.668538 0.835672,0.668538 0.124515,0 0.188026,-0.02859 0.334268,-0.05574 0.747927,-0.138557 1.825108,-0.176244 2.507016,-0.793888 0.157107,-0.142482 0.286636,-0.35725 0.292485,-0.571017 0.01671,-0.600177 -1.28192,-0.81687 -1.796694,-1.002807 -0.371874,-0.134207 -0.919239,-0.373545 -1.337075,-0.571014 -0.956009,-0.451262 -1.50421,-0.902858 -1.50421,-2.019569 0,-0.443324 -0.07103,-0.57912 0.02757,-0.919239 0.05599,-0.189697 0.133707,-0.331176 0.208918,-0.501403 0.270758,-0.608787 0.747926,-1.057793 1.351281,-1.351028 0.594163,-0.288893 1.037905,-0.236749 1.754911,-0.236749 m 19.387591,0.08357 c 0.0769,0.419175 0.0836,0.788456 0.0836,1.337075 0,0.161284 -0.01,0.263154 0.0142,0.417836 0.0209,0.138221 0.0585,0.186022 0.0694,0.334268 0.0184,0.243599 0.0535,0.435889 0.11114,0.668538 0.11616,0.464384 0.21895,1.05905 0.29249,1.504209 0.0318,0.190116 0.051,0.306465 0.0904,0.516771 l 0.091,0.486036 0.0978,0.668537 0.40363,1.838479 m 22.89742,-7.771749 0.51561,1.086373 c 0.63297,1.451707 0.65434,2.875735 0.65434,4.429061 l 0.18171,0.767048 m -0.33578,0 1.24044,-0.460606 1.0028,-0.473576 m -21.81103,-4.930464 0.55739,2.005612 0.12535,0.668538 0.0694,0.417836 c 0,0 0.13925,1.558432 0.16712,2.339881 0.0139,0.389732 0,1.169941 0,1.169941 m 37.2828,-4.542506 c -0.12368,-0.0889 -0.46726,0.02125 -0.59679,0.127401 -0.14958,0.05817 -0.36435,0.178416 -0.47382,0.320312 -0.19471,0.253627 -0.32842,0.652328 -0.41784,0.919239 -0.0769,0.230646 -0.1429,0.59032 -0.1805,0.835672 -0.0242,0.1546 -0.0142,0.228557 -0.0142,0.417836 0,0.142482 -0.0142,0.182012 0.0142,0.334269 0.0568,0.308949 0.0543,1.051266 0.40363,1.04459 2.40802,-0.046 1.25716,-4.794296 1.086,-5.650093 -0.12004,-0.601819 0.062,1.266372 0.0839,1.764219 0.0216,0.643776 0.27474,1.499162 0.49698,1.990774 l 0.42226,0.934077 m -9.35953,-4.679762 0.41784,0.58497 m 3.58951,2.313041 0.67241,-0.474563 c 0.54969,-0.387942 -0.30746,-0.942658 -0.45962,-0.417836 -0.0967,0.333601 -0.23691,0.712542 -0.23691,1.323464 0,1.103337 0.88204,0.983158 1.69933,0.682149 M 88.031724,62.521881 c 0.298713,0.623236 0.865213,3.200264 1.002806,3.426254 0.389087,0.639062 0.648195,-2.517813 0.748979,-2.203008 0.199489,0.932659 0.509164,3.970793 1.173053,3.776832 0.583483,-0.170474 0.334276,-3.836109 0.334276,-4.164407 m 6.88389,1.066588 c 0.42768,-0.714059 0.903585,-2.295858 1.62577,-1.790862 0.143735,0.116159 0.228142,0.374046 0.250702,0.55714 0.0259,0.205075 -0.0301,0.299088 -0.08357,0.501403 -0.0493,0.187862 -0.203904,0.736898 -0.264072,0.919239 -0.09192,0.27544 -0.892323,1.461689 -1.10542,1.606932 m 20.019182,-0.269857 c 0.56491,0.327084 0.90001,0.861914 1.58777,0.91924 0.22563,0.01879 0.61924,-0.0102 0.72453,-0.334269 0.24067,-0.743998 -1.42148,-1.198604 -1.8109,-1.587777 -0.30168,-0.301677 -0.33427,-0.583381 -0.33427,-0.919239 0,-0.204486 -0.0209,-0.294489 0.0276,-0.501403 0.19722,-0.834751 0.66102,-1.002806 1.47663,-1.002806 m -19.88899,4.011225 c 0.3209,0.312709 0.71032,0.560736 1.08638,0.738151 0.23231,0.109638 0.49221,0.15485 0.7521,0.208918 0.17382,0.03618 0.23232,0.05315 0.41784,0.05574 0.45209,0.0063 1.0964,-0.04345 1.40643,-0.417836 0.12953,-0.156103 0.18385,-0.333433 0.16714,-0.501403 -0.12619,-1.301223 -2.32568,-1.012081 -2.32568,-2.172747 0,-0.558729 0.41867,-0.863999 0.91924,-1.169941 0.33176,-0.2029 0.61088,-0.294156 1.00281,-0.417836 m 32.17337,0.752105 c 0.15543,0.845536 0.35311,0.651785 0.46991,1.375931 l 0.11505,0.713249 m -0.10455,-0.67827 c 0.22465,-0.424768 0.2313,-0.799445 0.67532,-1.494477 0.12034,-0.279447 0.239,-0.616473 0.51561,-0.571014 0.23064,0.03786 0.27076,0.272847 0.32006,0.571014 0.0451,0.267583 0.0936,0.364991 0.0978,0.58497 0.009,0.479505 -0.0836,0.967962 -0.0836,1.754911 m 0.0692,-1.450223 c 0.21545,-0.44466 0.6681,-1.302049 0.85005,-0.875702 l 0.52898,1.239552 0.64096,1.253508 m 5.01053,-2.781442 c -0.35714,0.344504 -0.59214,0.333084 -0.95753,0.44156 -0.30665,0.09104 -0.40781,0.167135 -0.79389,0.167135 m -48.385405,1.337075 c 0.678783,0.688843 2.875317,-1.740508 1.671351,-1.963829 -0.882134,0.141409 -0.600835,3.232112 -0.08357,3.621219 0.429535,0.30226 0.930103,-0.146495 1.169941,-0.306359 m 12.486143,-1.450489 c -0.5841,0.413855 -1.27831,1.190046 -1.70597,0.907302 -0.32257,-0.236913 -0.2507,-0.560068 -0.2507,-0.891411 0,-0.291732 -0.0259,-0.348308 0.0142,-0.584971 0.0995,-0.59692 0.7755,-1.25309 1.40644,-1.323119 0.26073,-0.02898 0.38441,0.107052 0.41783,0.320313 0.0426,0.275354 -0.0409,0.398701 0.0276,0.752105 0.0292,0.147246 0.0362,0.386442 0.056,0.501403 l 0.0836,0.58497 c 0.0417,0.291942 0.24987,0.771411 0.50141,1.169941 M 98.059774,63.608254 c -0.0561,0.356019 0.334314,1.532537 0.347514,1.602908 l 0.153902,0.820541 c 0.161643,0.861808 0.269928,1.25585 0.334275,1.587776 0.141068,0.755675 0.175008,1.332413 0.167135,2.08918 -0.0042,0.278279 -0.06602,0.359339 -0.167135,0.501403 m 34.048485,-10.32346 c 0.0351,0.09531 0.0895,0.25212 0.15796,0.455007 m 1.19617,3.76662 c 0.28901,0.963227 0.51272,1.770871 0.53126,2.007041 m -19.46698,-1.34429 c -1.1042,1.934718 -3.69904,1.47047 -2.77736,-0.804512 0.16939,-0.767282 0.72904,-1.328742 1.18542,-1.945991 m 27.57716,1.754911 c 0.1312,0.711575 0.2858,1.054454 0.33427,1.671344 m -36.686,-1.16994 c 0.84069,0 0.96342,-0.01329 1.33708,-0.08357 0.44471,-0.08364 0.90086,-0.273179 1.58779,-0.417836 m 7.39587,0.961214 c 1.19633,0.06722 2.7141,-1.67898 1.94944,-2.256505 -0.15042,-0.09961 -0.30836,-0.002 -0.40362,0.04178 -0.94801,0.545404 -0.52586,1.83095 -0.50141,2.507015 0.0125,0.440817 0.21561,0.930021 0.66854,1.225681 0.30418,0.198722 0.38524,0.09535 0.7521,0.02783 m -22.730285,0 c -0.22981,0.145242 -0.70865,0.334269 -0.91924,0.334269 -0.18134,0 -0.30502,0.0057 -0.487196,-0.125351 -0.653496,-0.468227 -0.637177,-1.282375 -0.599177,-1.880262 0.05742,-0.903473 0.109473,-1.161248 0.181354,-1.50421 0.06852,-0.328419 0.595834,-0.909628 0.9886,-0.571014 0.456352,0.642833 -1.623684,2.077188 -2.08918,2.242358 m 66.018074,5.849704 0.0978,0.668537 0.0694,0.501404 v 0.417835 l 0.0276,1.002807 0.056,0.58497 v 0.752105 m -14.95853,-3.844091 0.66854,0.08357 0.41784,0.05599 0.41783,0.02757 h 0.41784 l 0.66854,0.08357 0.7521,-0.08357 m -6.1004,4.011225 c 0.31421,0.543187 0.61589,0.592491 1.16994,0.58497 0.19304,-0.0026 0.24234,-0.01421 0.41783,-0.05599 0.34263,-0.08022 1.10309,-0.288306 1.22593,-0.779682 0.22898,-0.916732 -1.18164,-1.134842 -1.72733,-1.309497 -0.18134,-0.05766 -0.3702,-0.127858 -0.4872,-0.278279 -0.16713,-0.213932 -0.0978,-0.365189 -0.0978,-0.668538 0,-0.470483 0.11866,-0.897511 0.58497,-1.22593 0.23232,-0.163792 0.478,-0.26073 0.7521,-0.361846 m 35.09822,0.417836 c 0.37522,0 0.44291,0.0092 0.75211,-0.05599 0.18969,-0.03928 0.99361,-0.344297 1.16994,-0.292486 0.3702,0.110309 0.33928,0.722857 0.33427,1.10058 -0.003,0.23566 -0.0192,0.300007 -0.0836,0.501403 -0.0493,0.1546 -0.15126,0.40948 -0.2365,0.584971 -0.32925,0.676894 -0.57243,1.322868 -0.68274,1.922045 M 144.52313,70.8786 c 0,0.620904 0.12953,0.948487 0.27827,1.754911 0.0234,0.126186 0.0485,0.200561 0.056,0.334269 0.008,0.132036 -0.007,0.197218 0.0142,0.334268 0.0468,0.307528 0.12451,0.625083 0.15293,0.91924 0.0359,0.370202 -0.0259,0.207246 0.0836,0.58497 m 12.11725,-3.760524 v 1.587777 l 0.0142,0.417836 0.0694,0.668537 -0.0836,1.086374 m 16.71344,-2.757717 c 0.26825,-0.246524 0.66018,-0.554887 1.0028,-0.640961 0.23733,-0.05933 0.4755,-0.179669 0.75211,-0.08357 0.33761,0.11783 0.43288,0.709485 0.41783,0.891662 -0.0409,0.494718 -0.34514,1.49557 -0.65474,2.410219 -0.15404,0.455066 -1.13191,0.387851 -1.08845,-0.05673 0.0292,-0.29917 0.16134,-0.585872 0.41705,-0.472279 0.88885,0.394858 1.14047,0.750012 1.31183,0.666537 0.31584,-0.153856 0.66196,-0.278065 0.93355,-0.542137 m -17.20063,-2.799501 c 0.12368,-0.07187 0.38608,0.03426 0.57077,0.111144 0.60084,0.250701 0.91923,0.905033 0.91923,1.518416 0,0.257387 0.009,0.288307 0,0.501403 -0.006,0.145407 -0.11114,0.803081 -0.41783,0.961023 -0.55656,0.287471 -1.05545,-0.461291 -1.14236,-0.877456 -0.0309,-0.150421 -0.0259,-0.271593 -0.0276,-0.417836 -0.003,-0.213096 -0.0535,-0.225631 -0.0418,-0.501403 0.0117,-0.276607 0.0418,-0.47299 0.0418,-0.752105 0,-0.264072 -0.0886,-0.435385 0.0978,-0.543186 m 11.18379,0.04178 -1.33707,0.417836 h -0.58497 l -0.83567,-0.05599 -0.5014,-0.111144 c 0,0 -0.1156,0.452947 0.0456,0.5845 0.83279,0.679496 2.28244,2.051232 2.19647,2.925322 -0.0296,0.300809 -0.24903,0.340954 -0.48719,0.334269 -0.52313,-0.01421 -1.13485,-0.376888 -1.50421,-0.668538 m -21.24122,-4.015427 c 0.73863,0.08966 1.27259,0.102301 1.5985,0.102301 0.30753,0 0.64406,0.07473 1.08196,0.07473 m 22.23771,0.718836 c 0.22062,-0.06769 0.42034,0.208918 0.51561,0.361846 0.22814,0.367695 0.52564,1.042083 0.57076,1.504209 0.0343,0.349311 -0.0468,1.190833 -0.5014,1.309498 -0.37856,0.09861 -0.7755,-0.270758 -0.97523,-0.557393 -0.22062,-0.318391 -0.19471,-0.700293 -0.19471,-1.086374 0,-0.350146 0.0961,-1.383037 0.58497,-1.531786 m -24.26963,-0.799034 0.11871,1.16088 c 0.0662,0.647613 -0.0485,0.91506 -0.056,1.420642 -0.0242,0.466966 -0.29152,1.942026 -0.0134,2.242108 0.15794,0.155435 0.32173,0.06435 0.48719,0 0.64598,-0.250702 1.1315,-0.62759 1.75491,-0.9886 m -23.68361,-2.443235 c 0,0.225631 0.0734,0.683165 0.089,0.855458 0.0712,0.78366 0.19379,1.181028 0.23829,1.976631 0.0364,0.547148 0.25833,1.706544 0.29551,1.950221 0.0765,0.501417 -0.16422,-3.641052 0.0238,-4.093986 0.16881,-0.404465 0.8081,-1.378859 1.36549,-0.821466 0.16296,0.162956 0.20474,0.389423 0.19471,0.570764 -0.008,0.139557 -0.0301,0.188862 -0.0836,0.334269 -0.1053,0.284128 -0.24903,0.5716 -0.41784,0.835672 -0.0852,0.133707 -0.10947,0.27995 -0.26491,0.376052 -0.16212,0.101117 -0.61236,0.342596 -0.86807,0.342596 m 4.6428,-2.473559 c 0.37522,0 0.62759,0.02007 0.91924,0.334269 0.24736,0.266579 0.35098,0.551543 0.47383,0.919239 0.0501,0.151256 0.10529,0.358503 0.13872,0.501403 0.0911,0.382738 0.10529,0.581628 0.056,1.086373 -0.0811,0.834001 -0.88414,1.555186 -1.67135,1.587777 -0.2039,0.0084 -0.28162,-0.0067 -0.37605,-0.167134 -0.0329,-1.269646 -0.29469,-2.520203 -0.29249,-3.676957 0,-0.283293 -0.0694,-0.454793 0.33427,-0.557393 0.14871,-0.03779 0.2365,-0.02757 0.41784,-0.02757 z m -28.91542,4.831424 c 0.10613,-0.08524 0.38306,-0.37395 0.50256,-0.48593 0.47967,-0.450427 0.89333,-1.286935 1.01701,-1.922046 0.0359,-0.186354 0.0694,-0.244851 0.0694,-0.417835 0,-0.158778 -0.0217,-0.192205 -0.056,-0.334269 -0.0694,-0.289143 -0.0602,-0.569093 -0.29249,-0.835672 -0.30084,-0.346804 -0.60669,-0.183848 -0.90503,-0.167135 -0.30251,0.01671 -0.71533,0.08273 -0.82146,0.417836 -0.14541,0.455442 0.22563,1.570228 0.30585,2.005613 0.0274,0.147914 0.008,0.198054 0.0284,0.334269 0.0268,0.177162 0.0614,0.225618 0.0694,0.417836 0.031,0.40029 0.0886,0.964352 0.0836,1.16994 v 0.417836 c 0,0.34764 -0.0217,0.974394 0.0836,1.337075 m 8.77456,-6.183972 0.44541,1.587777 0.19555,0.501403 0.21881,0.651429 c 0.12953,0.385597 0.31017,0.773392 0.31017,1.521318 0,0.309199 -0.0351,1.179969 0.0276,1.50421 0.0894,0.457948 0.056,0.603355 0.056,1.16994 m 51.39383,-6.518241 0.66853,0.111145 0.41784,0.05599 1.33708,-0.08357 m -19.15436,0.240809 c 0.51143,0 1.0044,-0.03106 1.68881,-0.157241 m -60.669779,0.501403 0.348475,1.253508 0.06936,0.334268 0.02757,0.501404 0.05599,0.58497 v 1.838478 M 105.163,76.89543 l -0.16713,-1.50421 -0.0791,-1.046057 m 0.0445,0.662849 c 0.11482,-0.707525 0.45904,-0.784058 0.8703,-1.037434 m -23.983786,0.08357 0.570764,2.005613 0.18134,0.919239 v 0.58497 l 0.06936,1.086374 0.01421,0.417836 v 0.501403 m 0.919239,-5.3483 c 0.573271,0 1.257686,-0.198055 1.671344,0.04178 0.467141,0.271593 0.265744,1.029548 0.139557,1.462426 -0.06518,0.223124 -2.012133,2.335124 -1.328998,1.346896 0.683136,-0.988232 1.44265,-0.615683 1.52371,-0.580585 0.16797,0.07187 0.335104,0.338447 0.390259,0.570764 0.120336,0.508924 -0.213097,1.581091 -0.306692,2.08918 M 106.58368,75.39122 c 0.92038,0.09868 2.5916,-0.759984 1.7407,-1.072167 -1.08875,-0.399444 -1.16671,2.27365 -0.40362,2.799501 0.38023,0.251537 0.89166,0.03593 1.16994,-0.139557 m 0.83567,1.420642 c 0.34847,-0.110309 0.37689,-0.148749 0.7521,-0.278279 0.35934,-0.124515 0.82398,-0.29332 0.72453,-0.808094 -0.0543,-0.27995 -0.15794,-0.45377 -0.39026,-0.599177 -0.52146,-0.324241 -1.22092,-0.107802 -1.65714,-0.58497 -0.23231,-0.254045 -0.23816,-0.765476 -0.0978,-1.072168 0.24736,-0.539844 1.1081,-0.739569 1.58778,-0.752104 m 5.599,2.924851 c 0,-0.197218 -0.0694,-0.497224 -0.0836,-0.668537 -0.0142,-0.16797 -0.15727,-1.851843 -0.0561,-2.087502 m 0.014,1.385126 c 0.12535,-0.290814 0.24774,-0.445002 0.37643,-0.801834 0.12284,-0.339282 0.27076,-0.730377 0.66853,-0.752104 0.29667,-0.01671 0.50057,-0.02757 0.66854,0.334268 0.23064,0.495554 0.42368,1.52928 0.5014,2.08918 0.051,0.365189 0.0543,0.48469 0.16713,0.752105 M 90.789441,74.415999 c 0.394437,0.121172 0.823137,0.421179 1.017013,0.808095 0.09109,0.183848 0.330926,0.812273 0.376052,1.002806 0.06769,0.286636 0.02757,0.381067 0.02757,0.752105 0,0.232317 0.01754,0.295828 -0.01421,0.501403 -0.03761,0.250702 -0.125351,0.636782 -0.40363,0.793888 -0.77801,0.439564 -1.644602,-0.425357 -1.810901,-1.128157 -0.100281,-0.427028 -0.02757,-0.69695 -0.02757,-1.253508 0,-0.177998 -0.01171,-0.249866 0.01421,-0.417836 0.03761,-0.24903 0.08461,-0.886312 0.334269,-1.04459 0.133922,-0.0849 0.352654,-0.05515 0.487197,-0.01421 z m 3.676956,-0.02757 -0.08357,0.584971 0.01421,0.501403 0.320063,1.671344 0.02757,0.334269 0.05599,0.417836 v 0.668537 m 32.59394,-4.174862 c 0.44625,0.434549 1.28276,1.276071 2.00561,1.504209 m -13.87489,0.414339 c 0.0175,0.215603 -0.009,0.264072 -0.056,0.417836 -0.0635,0.208918 -0.38274,0.813944 -0.69611,0.905033 -0.64681,0.188861 -0.85908,-0.542352 -0.87746,-0.9886 -0.009,-0.22396 0.0175,-0.386916 0.056,-0.584971 0.0602,-0.310034 0.42457,-0.939121 0.7379,-1.030383 0.46134,-0.134369 0.80642,0.92676 0.83567,1.281085 z M 110.762,75.474802 h 0.58497 c 0,0 0.33358,-0.06023 0.5014,-0.08357 0.16658,-0.02316 0.50141,-0.05599 0.50141,-0.05599 l 2.34766,-0.305912 m 17.54132,9.554293 c 0.23817,-0.377724 0.23817,-0.554886 0.66854,-0.58497 0.15209,-0.01086 0.20474,6.58e-4 0.33427,-0.02757 0.72369,-0.161285 1.02955,0.44207 1.08637,1.030384 0.0535,0.551543 0.009,1.205874 -0.13956,1.671343 -0.0618,0.195548 -0.17465,0.420343 -0.2507,0.584971 -0.0577,0.126186 -0.0802,0.208918 -0.27828,0.417836 -0.12702,0.134543 -0.18551,0.204739 -0.33426,0.334268 -0.31923,0.277444 -0.86325,0.619233 -1.22594,0.236496 -0.31087,-0.328419 -0.27827,-0.579957 -0.27827,-0.905033 0.0907,-1.298289 1.3511,-0.270633 1.7965,0.17687 0.51892,0.508216 0.60103,0.372166 1.37904,0.658802 m -7.27034,0 c 0.31505,0.215603 0.34514,0.266579 0.66854,0.320062 0.17883,0.03007 0.25237,0.01421 0.41784,0.01421 0.23816,0 0.31003,0.02925 0.5014,0 0.20641,-0.03175 0.40697,-0.126186 0.36185,-0.417836 -0.0652,-0.430371 -0.69278,-0.781353 -1.03039,-1.086373 -0.61839,-0.558229 -0.6209,-0.930103 -0.44541,-1.671344 0.0568,-0.239838 0.0877,-0.663955 0.15788,-0.767578 m 9.06209,-0.06809 c 0,0.65266 0.0836,1.496688 0.0836,2.08918 0,0 0.0102,0.396927 0.0154,0.59539 0.0124,0.481186 -0.1591,1.216347 -0.0154,1.995193 m -9.77736,-4.429061 0.58497,-0.167135 c 0.26038,-0.07439 0.44876,-0.163792 0.66854,-0.167134 0.27076,-0.0042 0.86241,0 1.16994,0 m -6.26754,0.417836 1.16994,0.306691 0.83568,0.02757 c 0,0 0.62,-0.08743 0.60674,0.07329 -0.0174,0.210994 -0.0218,0.511681 -0.0218,0.511681 v 0.417836 0.584971 2.423448 m 9.94449,-4.261927 c -0.0953,0.51561 -1.00949,1.36716 -0.82146,1.922046 0.0685,0.203904 0.33677,0.235659 0.48719,0.250701 0.44595,0.0069 0.89203,6.58e-4 1.37392,-0.0096 0.32104,-0.0068 0.33337,-0.07143 0.79884,-0.157502 m -54.652954,4.011226 v -2.757718 c 0,-0.259894 -0.0034,-0.315884 -0.05599,-0.58497 -0.06853,-0.353489 -0.0026,-0.406137 -0.02757,-0.668538 -0.01421,-0.146242 -0.05098,-0.192204 -0.06936,-0.334268 -0.09861,-0.758791 0.0326,-0.91339 -0.18134,-1.420643 m 58.720154,0.835672 c 0.37773,1.088881 -1.27356,1.912853 -2.0616,1.727334 -0.19973,-0.04763 -0.42034,-0.134543 -0.58497,-0.306691 -0.67522,-0.70865 -0.0295,-1.879769 0.54319,-2.298098 0.57958,-0.361474 1.95358,0.499784 2.10338,0.877455 z m -59.472259,-0.752104 0.654166,-0.06958 c 0.217828,-0.02316 0.316885,-0.09756 0.515775,-0.09756 0.177162,0 0.423685,0.04763 0.58497,0.181341 0.280786,0.231481 0.494718,0.669373 0.654331,0.9886 0.250702,0.500567 0.44792,1.012834 0.529816,1.504209 0.02843,0.170477 0.06184,0.227303 0.06936,0.417836 0.01171,0.289978 0,0.301678 0,0.668538 0,0.573271 0.02675,0.894169 -0.236495,1.420642 -0.40948,0.818123 -1.207546,1.587777 -2.103387,1.587777 -0.480511,0 -0.493046,-0.143736 -1.002806,-0.250702 m 8.273152,-6.100405 c 0.178834,0.357668 0.315048,0.892498 0.390259,1.253508 0.0351,0.168806 0.02171,0.243181 0.05515,0.417836 0.0326,0.167134 0.05348,0.234824 0.05599,0.417836 0.01253,0.916732 0,2.50618 0,3.25912 M 92.627926,85.7536 v 1.337075 l 0.02757,0.501403 0.05599,0.417836 0.01421,0.334269 0.487197,2.005612 m 14.791387,-4.512628 c 0.14875,0.0468 0.36937,0.1312 0.50141,0.152928 0.18217,0.03093 0.23733,0.0067 0.41783,0.04178 0.2248,0.04429 0.26073,0.05599 0.5014,0.05599 0.33427,0 0.31672,0.02757 0.58498,0.02757 0.22563,0 0.30418,-0.02757 0.58497,-0.02757 0.52647,0 0.87745,0.01754 1.2535,-0.05599 0.26993,-0.05265 0.49974,-0.159613 0.83568,0.08357 0.94347,0.681908 1.13267,1.824969 1.70843,2.779606 0.26026,0.431522 0.148,0.399425 0.3962,0.692745 0.40614,0.47884 0.867,1.082061 1.40517,1.096267 m -6.18395,-4.565098 0.056,1.556679 0.0276,0.58497 0.0276,0.91924 0.056,1.16994 0.0836,0.668538 m 15.06658,-4.766831 c 0.79306,0 0.91104,-0.09606 1.42065,-0.08357 l 0.14265,0.0035 m -30.499297,3.36206 c -0.09527,0.161285 -0.342855,0.410164 -0.406366,0.482031 -0.105295,0.118666 -0.648482,0.779682 -0.933446,0.808095 -0.373545,0.03593 -0.412822,-0.273265 -0.417836,-0.557393 -0.0026,-0.140393 0,-0.200561 0,-0.334269 V 89.43051 c 0,-0.228974 -0.0042,-0.381066 0.06936,-0.58497 0.06184,-0.170477 0.09861,-0.264073 0.167134,-0.417836 0.143736,-0.321734 0.483022,-0.941704 0.933449,-0.961023 0.406979,-0.01744 0.452938,0.54068 0.515613,0.877455 0.02675,0.147079 0.05432,0.183848 0.06936,0.334269 0.0376,0.388588 -0.009,0.76364 0.02362,1.032542 0.03513,0.28981 0.05325,0.313726 0.31064,0.889504 m 0.919239,-0.250702 c 0.493046,0.493047 0.752105,0.966037 1.420642,1.113951 0.213097,0.04763 0.315884,0.061 0.501403,-0.02757 0.253209,-0.121172 0.334269,-0.314212 0.236496,-0.58497 -0.363518,-1.008656 -1.740705,-1.225095 -1.740705,-2.423449 0,-0.690929 0.49558,-1.202854 0.978598,-0.701586 m -10.344921,2.122015 -0.411029,0.209135 c -2.7527,2.573333 -2.574883,-2.086124 -0.334268,-1.991406 0.23431,0.0357 0.654331,0.278278 0.654331,0.278278 l 0.09777,0.584971 v 1.002806 c 0,0.503404 0.215604,0.752105 0.584971,1.337075 m 23.649522,0 c 0.44625,-0.706978 1.04639,-1.612893 1.42064,-2.08918 0.67367,-0.85736 0.85408,-2.224558 1.50423,-3.175553 m -9.94452,4.011225 c -0.35349,0.559065 -0.6326,1.356296 -0.7521,2.005613"
       id="path179"
       sodipodi:nodetypes="ccsccccccccccsssscscccssccscccccccsssccssccscccccsssccscsscccscssssccscccccssccsccscccccccssccssscscsscccccssccccscccccsscssscccssccccccccccscssscccsssssccccssscsscsssscssssscsccccccsccccssccsccccccccccccsccscccsccccccscccscccccsccccccssscsccccccccccccscccccsccccssccsscscccscsssccsscccccccccccccccsccccccccscssscsccscscccsssccccscscszccscccsscccsccccccccccccccccsccsccccccscccscccccscccccsccccsccccccccccccccsccccccscsccsccccsssccscsccccccccsccsccccscccscccscccccsccscccscccccccsccccssccsscccccccccccccsccccccccscscccccccccccccccccccccccsccccccccccccccccccccccccsssscccscccccsccccccsscccsccccccsccscccccscscscccccscccccccsscccsccccccccsccccssccccccccccccccccccccccccccccczccccscccccccccccccccccccccscccscscccccccccccccccscccsccccccccccccccccsccccccssccscccccsccccccccccsccccccccccssccscscsccccsccccccccccsssccscccccccccscccccssccsccssccccsccccccsccsccc" /></g></svg>
