<?xml version="1.0" encoding="UTF-8" standalone="no"?>
<!-- Created with Inkscape (http://www.inkscape.org/) -->

<svg
   width="3000"
   height="1998.207"
   viewBox="0 0 793.74998 528.69227"
   version="1.1"
   id="svg5"
   xml:space="preserve"
   inkscape:version="1.2.1 (9c6d41e410, 2022-07-14)"
   sodipodi:docname="WilF - Stake - Envelope56.svg"
   xmlns:inkscape="http://www.inkscape.org/namespaces/inkscape"
   xmlns:sodipodi="http://sodipodi.sourceforge.net/DTD/sodipodi-0.dtd"
   xmlns="http://www.w3.org/2000/svg"
   xmlns:svg="http://www.w3.org/2000/svg"><sodipodi:namedview
     id="namedview7"
     pagecolor="#ffffff"
     bordercolor="#000000"
     borderopacity="0.25"
     inkscape:showpageshadow="2"
     inkscape:pageopacity="0.0"
     inkscape:pagecheckerboard="0"
     inkscape:deskcolor="#d1d1d1"
     inkscape:document-units="px"
     showgrid="false"
     inkscape:lockguides="false"
     inkscape:zoom="0.4204826"
     inkscape:cx="573.15095"
     inkscape:cy="305.60123"
     inkscape:window-width="1920"
     inkscape:window-height="1051"
     inkscape:window-x="-9"
     inkscape:window-y="-9"
     inkscape:window-maximized="1"
     inkscape:current-layer="layer1" /><defs
     id="defs2" /><g
     inkscape:label="Layer 1"
     inkscape:groupmode="layer"
     id="layer1"><path
       style="fill:none;stroke:#0e0e0e;stroke-width:0.0720941"
       d="m 49.573934,50.288442 c 0.385108,0.687829 0.709373,1.933151 0.806504,2.964492 l 0.188156,1.997811 -0.02685,0.386674 m -25.566192,-4.962303 -0.161302,0.58001 m -0.08065,3.544509 c -0.51907,0.327448 -2.008118,0.686474 -2.567349,0.193336 -0.93119,-0.821038 -0.209286,-2.884454 0.631735,-3.608953 0.344459,-0.296707 1.577248,-0.624679 2.031992,-0.258073 M 6.1033433,51.06179 c 0,0 0.418351,1.689825 0.5242274,2.545595 0.064836,0.524054 0.06718,1.578915 0.06718,1.578915 l 0.053795,0.322228 -0.080652,0.58001 M 46.993122,51.06179 c 0.148719,0.282273 0.12283,0.714767 0.161299,1.031131 0.07629,0.626925 0.149448,1.341368 0.309134,1.997812 0.0992,0.407425 0.322683,0.811241 0.658671,0.966684 M 11.184322,51.190682 c 0,0.803635 0.307036,1.593416 0.403253,2.384486 0.09509,0.781597 0.161299,1.41819 0.161299,2.062259 m 29.195464,-1.546694 c -0.244533,0.1954 -0.318247,0.275247 -0.591409,0.504803 -0.637057,0.535349 -1.497438,0.638655 -2.12385,0.01076 -0.697061,-0.698785 -0.995389,-1.822201 -0.510758,-2.642271 0.56415,-0.954632 2.134333,-0.550107 2.822764,0 m 7.984395,-0.515565 -0.403254,0.45112 m -18.468952,-0.322228 0.403253,2.577823 0.224122,0.919271 0.09848,0.369642 c 0.04557,-0.149489 0.112219,-0.243561 0.16566,-0.406994 0.08661,-0.264868 0.273541,-1.49926 0.640846,-1.526372 0.839071,-0.06193 0.828198,1.782564 1.129105,2.32004 M 2.2321217,56.217436 c 0.9588528,0.221822 3.153433,0.122576 2.9840686,-1.095575 C 5.1565888,54.693427 4.7283341,54.587156 4.3290344,54.369975 3.7592394,54.060184 3.0191898,53.582129 2.9579758,52.995157 2.8587749,52.044199 4.6576859,51.347865 5.3774892,52.157365 m 7.5004918,0.386674 c -0.09364,0.406264 -0.781816,1.228112 -0.992627,1.531303 0.285352,0.383363 1.070451,0.998822 1.637829,1.046512 m 29.459466,-1.187498 c 0.70901,-0.03424 1.435787,-0.55955 1.49684,-0.874751 0.03452,-0.177741 -0.175817,-0.267259 -0.389784,-0.257784 -0.435997,0.01934 -0.773341,0.320818 -0.891393,0.647843 -0.04475,0.123972 -0.0844,0.204256 -0.130206,0.31884 -0.0542,0.135725 -0.10541,0.202167 -0.107508,0.322229 -0.0016,0.0899 0.0592,0.351872 0.107508,0.451118 0.318165,0.653672 0.932561,0.678097 1.3442,0.773347 M 27.878965,55.57298 c 0.424624,0.339307 0.751904,0.377394 1.290406,0.2041 0.271146,-0.08732 0.528181,-0.27325 0.362928,-0.526327 -0.412044,-0.631052 -2.658724,-0.514663 -1.828104,-1.740033 0.09573,-0.141136 0.250017,-0.272668 0.416721,-0.365212 0.213805,-0.118645 0.485759,-0.208548 0.725854,-0.279243 m 22.662775,0.12889 c -0.566567,0.226397 -1.378155,0.193337 -2.09691,0.193337 m -8.387647,-0.12889 0.403253,0.515563 c 0.423737,-0.338597 0.852958,-0.515563 1.209756,-0.515563 m -15.604541,1.31021 c -0.358731,0.907717 -1.736838,1.124029 -1.815957,0.365376 -0.06476,-0.621323 1.265478,-1.660889 1.504626,-1.573787 0.38262,0.139354 0.115079,1.4429 0.592288,1.960463 M 14.427417,54.178788 c 0.118475,0 0.302541,-0.0733 0.466824,-0.09882 0.282922,-0.04395 0.99531,-0.37907 0.766182,-0.698139 -0.232434,-0.32371 -0.844734,-0.02114 -1.008133,0.193337 -0.162519,0.213314 -0.199454,0.353754 -0.220697,0.56133 -0.02749,0.26862 -0.08134,1.313064 0.785252,1.543908 0.6573,0.175035 1.101119,-0.284076 1.371055,-0.494104 m 30.944672,-0.878708 c -0.278405,0.281821 -1.172154,1.808603 -1.991158,1.780956 -0.466565,-0.01573 -0.57391,-0.707162 -0.510761,-0.966684 0.194854,-0.800932 1.214347,-1.665877 2.257237,-1.929007 M 5.1355378,53.704062 c 0.8267497,-0.121672 2.0824093,-0.164948 2.9203703,-0.198418 0.4756298,-0.019 0.4148304,-0.03879 0.6282505,-0.01639 m 2.0162604,2.405949 c 0,0 -0.348833,-1.218058 -0.7527093,-1.740033 -0.1549585,-0.200271 -0.3670645,-0.381831 -0.6183498,-0.504802 -0.1921525,-0.09403 -0.6100463,-0.08221 -0.8849122,0.02587 -0.453628,0.178381 -0.7514834,0.523654 -0.808747,0.994496 -0.1035536,0.851068 0.6548827,1.213317 1.3172639,0.451119 0.1792864,-0.20629 0.8556226,-0.699336 1.0204724,-0.907882 m 38.632692,-0.703259 0.483903,1.611141 m -7.661791,-1.546696 c 0.04379,0.443516 0.132426,0.892896 0.322601,1.417805 m -11.371718,0.451119 v 0.128891 m -2.661465,1.675586 c 0,0 0.511901,1.685109 0.604881,2.545601 0.07517,0.695655 -0.04031,2.094483 -0.04031,2.094483 m 3.79056,-3.737846 c 0.0971,0.983053 0.241951,1.843079 0.241951,2.835605 v 1.160022 m -10.565208,-3.737845 -0.08066,0.773347 m -0.161298,2.255595 c -0.337845,0.170524 -0.959337,0.515566 -1.371059,0.515566 -1.114427,0 -1.14967,-1.398212 -1.034988,-1.997814 0.110492,-0.578077 0.558666,-1.354389 1.357589,-1.460788 0.275665,-0.03667 1.001193,0.03621 1.234453,0.354564 m 24.421725,1.217693 c 0.08879,-0.192628 0.485959,-0.822552 0.610808,-1.006738 0.382444,-0.564157 1.407573,-0.621522 1.691864,0.121922 0.285584,0.74686 -0.381836,1.92415 -2.056238,1.638429 M 1.3449658,58.859698 c 0.5978598,-0.377135 1.4957425,-0.172779 1.908753,0.322228 0.4928553,0.590773 0.316733,1.683263 -0.1209772,2.255595 -0.2105579,0.275321 -0.8437647,0.807311 -1.3038731,0.69814 -0.4924529,-0.116775 -0.301876,-0.912485 -0.053795,-1.138496 0.3198604,-0.291359 0.7633927,-0.11224 1.5458306,0.311467 0.8909844,0.482487 1.1508043,0.61784 1.5726851,0.644456 m 2.9168802,-2.86783 c 0.3335682,-0.168397 0.7110122,0.150995 0.8736859,0.35445 0.3384088,0.423279 0.6029412,1.551721 -0.080652,1.836699 -0.3480869,0.145132 -0.7147221,-0.119868 -0.873686,-0.35445 -0.2644533,-0.390025 -0.4825311,-1.552494 0.080652,-1.836699 m 1.9221406,0.290005 c 0.4226101,-0.09776 1.8306041,-0.151125 2.5001631,-0.193337 m 36.857256,0 v 2.126705 l 0.174771,0.762584 1.034986,0.01076 h 0.967805 M 45.54141,59.246371 c 0.562861,0.632985 0.794811,1.174135 0.887153,1.933369 0.05726,0.47071 0.0094,1.237419 0.08066,1.546694 M 29.250021,59.310818 c -0.2701,0.215829 -0.598418,0.47814 -1.048459,0.622995 -0.480988,0.154818 -1.309277,0.273444 -1.613007,0.343689 m -2.379189,1.160021 c -0.28647,0.457821 -1.279438,0.749051 -1.707129,0.257782 -0.404783,-0.465039 -0.328246,-1.122707 -0.268806,-1.61114 0.02508,-0.206096 -0.122099,-0.493129 0.08065,-0.515564 0.427992,-0.04736 2.533714,0.848554 1.895285,1.868922 z m 0.680082,-1.11672 c 0.09956,-0.155867 0.241114,-0.290385 0.328055,-0.322544 0.234855,-0.08694 0.400671,-0.195205 0.645205,-0.236321 m 4.113172,0.02146 c 0.299133,-0.06966 0.657703,0.07746 0.537695,0.365214 -0.108151,0.259264 -0.551887,0.457376 -0.860299,0.515564 -0.230672,0.04352 -0.421758,0.04341 -0.491699,-0.02031 m 0.814303,-0.860471 c -0.350421,0.08167 -0.778911,0.655317 -0.817897,0.882598 -0.117686,0.686096 0.45392,1.307521 1.3018,1.072295 0.532534,-0.147774 0.712305,-0.557519 0.967806,-0.880778 m -6.61334,-1.03113 0.04706,0.23629 c 0.03735,0.243074 0.03468,0.442826 0.03359,0.665948 0,0.435652 0.06056,0.76368 0.08065,0.966684 M 10.097846,59.34218 c 0.327927,0.524073 0.84977,1.425175 1.32843,1.837562 0.143476,0.123607 0.348572,0.353484 0.309134,0.515565 -0.06726,0.2766 -0.482937,0.386674 -0.793037,0.386674 -0.759323,0 -1.2187887,-0.356191 -1.6130094,-0.58001 M 37.005937,59.923053 c 0.322119,-0.162596 0.750938,0.114778 0.954339,0.290005 0.405749,0.349553 0.275662,1.047499 -0.241952,1.321135 -1.183386,0.625573 -1.298069,-1.315592 -0.712387,-1.61114 M 6.7742228,59.460814 c 0,0 -0.094305,0.374071 -0.1838402,0.530626 -0.2013006,0.351975 -0.688666,0.994965 -0.688666,0.994965 -0.4219205,0.73774 -0.3924352,1.033513 -0.1209772,1.203005 0.348733,0.217633 1.2058855,0.263904 1.2904062,-0.171877 C 7.122197,61.754144 6.9417827,61.5465 6.6678923,61.394538 6.0476921,61.050398 4.207734,60.464845 5.2161873,59.633046 5.3730509,59.503703 5.5849989,59.440547 5.7807394,59.364502 6.0749522,59.250239 6.3498089,59.164269 6.6678923,59.117481 m 32.0182367,0.837795 c 0,0.56261 0.182914,1.147389 0.403251,1.675585 0.107992,0.258814 0.334217,0.573824 0.725854,0.365213 0.35204,-0.187601 0.568182,-0.830123 0.631735,-1.074114 0.05806,-0.22266 0.132188,-0.276665 0.255421,-0.386674 l 0.182011,0.384492 0.167448,0.517746 0.05379,0.386674 m -7.903745,-1.804477 c 0.07871,0.796806 1.053786,1.337355 1.93561,1.50371 0.254056,0.04793 0.769242,0.128375 0.92748,-0.08591 0.165171,-0.223626 0.0016,-0.781273 -0.09412,-0.966683 -0.05565,-0.108076 -0.09597,-0.209255 -0.268808,-0.182575 -0.164366,0.02533 -0.144904,0.130186 -0.188158,0.24702 -0.05514,0.14894 -0.160454,0.27228 -0.255421,1.03113 l -0.120974,0.966684 -0.05379,0.773347 -0.02685,0.386674 m 5.64553,-3.6734 v 0.515565 m 11.936266,0.837793 c 0.322119,0.2795 0.456401,0.429143 0.645204,0.580011 M 5.9420443,64.788696 c 0.2355014,0.133724 0.2864704,0.164336 0.5645552,0.322227 m 17.3398445,-0.128891 0.322604,2.062259 0.08065,0.58001 1.209758,-0.193336 m -12.097568,-2.255596 -0.241952,0.193337 m 41.615633,0 c 0.167106,-0.04214 0.312923,-0.09731 0.483903,-0.118129 1.397992,-0.170716 0.330133,1.211848 0.262112,1.471486 -0.06937,0.264807 -0.411882,0.566993 -0.746018,0.633693 -0.601975,0.120256 -0.52569,-0.708421 0.02972,-0.720996 0.386376,-0.0088 1.260692,0.538422 1.260692,0.925096 0,0.341497 0.009,0.575434 -0.268809,0.837792 -0.417284,0.394085 -1.365411,0.513245 -1.908753,0.193337 M 49.57394,65.755379 c 0.584636,-0.430303 1.277021,-0.448992 1.290409,0.322228 0.01049,0.603147 -0.297036,1.25424 -0.631735,1.804477 -0.118477,0.19469 -0.32607,0.677323 -0.658674,0.633693 -0.446965,-0.05858 -0.503098,-0.820263 -0.08065,-0.934461 0.290018,-0.07836 0.376233,-0.02442 0.564552,0.05375 0.05541,0.02294 0.555755,0.160207 0.685283,0.136805 0.459498,-0.08302 1.189272,-0.257898 1.492276,-0.598686 M 5.7807485,68.07542 C 5.4423397,68.267598 4.9985179,68.57887 4.4903424,68.719877 3.3568,69.034371 2.5658606,68.442631 2.2589856,67.559856 2.0599407,66.987128 2.0410662,65.974366 2.7160306,65.583503 3.631736,65.053309 4.3587208,66.022184 4.4903424,66.593172 m 40.1639216,-1.160021 0.362925,2.384487 c 0.155365,1.020761 0.140413,1.410005 0.201624,1.675585 m -6.290728,-3.995626 v 0.451119 l 0.201623,1.192243 c 0.203891,1.205656 0.510516,1.872209 0.524227,2.287819 m 6.290735,-3.931181 h 0.725854 l 1.854962,0.322228 m 4.516426,-0.193337 c -0.121139,0.334473 -0.04622,0.55449 -0.08066,0.837793 -0.04597,0.377651 -0.05927,1.07173 -0.08065,1.482248 -0.01049,0.201458 -0.05855,0.227236 -0.08065,0.451119 M 37.395723,65.690934 c -0.05718,0.248051 -0.08065,0.639429 -0.08065,1.031129 0,0.796999 -0.03355,1.559519 0.241951,2.320041 M 26.265961,65.755379 c 0.30236,0.165304 0.357283,0.187086 0.564555,0.322228 m 16.452692,-0.257782 c -0.50213,0.435652 -0.763438,0.992397 -0.994662,1.546694 -0.08275,0.198363 -0.270825,0.536316 0.02685,0.676679 0.656977,0.30979 2.41677,-0.249083 2.903413,-0.290006 m -11.613661,-1.804476 0.645201,0.386674 c -0.314535,0.36734 -0.740614,0.875944 -0.806503,1.417802 -0.07815,0.642524 0.275664,1.091645 1.048455,1.288912 0.293325,0.07489 0.661899,0.127861 0.967805,0.04298 1.01055,-0.280403 0.504954,-1.766196 -0.08065,-2.234135 -0.348248,-0.278276 -0.86961,-0.382936 -1.132369,-0.515565 m 12.740574,-0.762867 c -0.62133,0.62886 -0.569176,1.749658 -0.04834,2.374007 0.209208,0.250694 0.714,0.639751 0.497373,0.966684 -0.416317,0.628344 -1.245485,-0.385514 -1.330734,-0.644456 M 7.4744049,66.077607 c 0.040001,0.404912 0.1796095,1.663019 0.2419514,1.933368 M 7.568503,66.877755 c 0.1265402,-0.101115 0.7238575,-0.442732 0.8737073,-0.520905 1.0338571,-0.539216 1.1482893,1.359302 1.3623381,1.741593 m 2.5088836,0.299205 c -0.336635,0.268996 -1.338153,1.161503 -1.908756,0.515566 -0.798036,-0.903399 0.485518,-2.384488 1.586152,-2.384488 m -5.4842285,0.257783 0.3226009,1.224466 m 7.5378506,-0.379276 c 0.13388,-0.213894 0.699545,-0.82373 1.091749,-0.82373 0.522855,0 0.453658,0.983246 0.537694,1.267451 0.06662,0.225496 0.119203,0.341111 0.18816,0.515565 m 1.371055,-0.128891 c 0,-0.418573 0.165657,-2.062195 1.129108,-1.460788 0.513905,0.320874 0.420914,1.00606 0.806503,1.396342 m 2.687578,-0.286946 c -0.174448,0.176581 -1.184575,1.059327 -1.63912,0.877719 -0.254776,-0.101824 -0.376396,-0.50506 -0.376396,-0.719664 0,-0.72701 0.959161,-1.211036 1.666802,-1.321134 0.157312,-0.02447 0.349212,0.457757 0.322601,0.676678 -0.0625,0.514018 0.115249,0.963011 0.564554,1.417803 M 14.16839,66.9154 c 0.4189,0.795065 0.06251,1.581817 0.241951,2.126704 m 22.98538,-1.804476 c 0,0 0.641452,-9.4e-5 0.907078,-0.01707 0.406461,-0.02598 1.109184,-0.111818 1.109184,-0.111818 m -26.533999,0.257782 c 0,0.686861 0.118797,1.102986 0.403253,1.61114 m 12.984721,-1.546694 c 0.26776,0.739125 0.212353,1.455245 0.322604,1.933367 m -3.30667,-1.740031 0.974332,-0.0096 m -0.0066,0.0096 v 1.417803 c 0,0.14771 0.01216,0.188439 -0.01347,0.322228 -0.06032,0.315719 -0.06718,0.350584 -0.06718,0.58001 m 6.452034,-0.58001 c -0.462934,0.585681 -0.674156,0.96417 -1.048455,1.288912 m 96.861207,24.553775 c 0,0.990918 0.56939,1.667015 0.80651,2.577826 0.0444,0.170716 0.0992,0.500678 0.13469,0.644455 0.0387,0.159826 0.0266,0.166914 0.0266,0.322229 v 0.322226 0.580011 c 0,0.239157 -0.0145,0.227235 -0.0806,0.515561 m -3.30668,-4.640079 0.72586,0.386674 m -7.50049,-0.257781 0.24195,0.386673 M 97.964181,95.722586 c 0,0.255654 -0.07343,1.071795 0.02657,1.482249 0.194366,0.797061 0.507285,1.599732 0.766172,2.384486 0.158885,0.480769 0.389543,1.009089 0.41696,1.288909 M 92.23795,95.851477 c 0,0.757751 0.330667,1.897536 0.537938,2.642268 0.03792,0.136433 0.03792,0.19005 0.02666,0.322229 -0.01531,0.175485 0.0548,0.242058 0.08063,0.451118 0.07906,0.650644 0.0028,0.978998 0.161302,1.417808 m 21.04976,-4.704534 v 0.837795 c 0,0.888574 0.13147,1.649356 0.41696,2.513378 0.0831,0.25224 0.16292,0.603983 0.25487,0.708901 0.0726,0.082 0.14113,0.17027 0.29598,0.16111 0.36857,-0.0219 1.20572,-0.395951 1.53236,-0.504798 0.36373,-0.121159 0.49036,-0.162145 0.6452,-0.171876 M 85.525573,98.800538 c 0.278246,-0.70394 1.591145,-1.92921 2.262963,-0.757911 0.234694,0.408778 0.133073,1.110848 0.02744,1.546694 -0.135492,0.556939 -0.675851,1.103439 -1.38477,1.095579 -0.335503,-0.004 -0.508642,-0.0665 -0.789305,-0.12551 m -13.727772,0.18995 c 0,0.10337 -0.01856,0.28227 0.01372,0.45112 0.02582,0.13746 0.116941,0.38809 0.30889,0.4941 0.826667,0.45641 2.548553,-0.0237 3.038101,-0.62299 0.268568,-0.32919 -0.04597,-0.60585 -0.457286,-0.75189 -0.758921,-0.26957 -2.018683,-0.444993 -2.392899,-1.117033 -0.254855,-0.458723 0.258079,-1.337953 0.860539,-1.525233 0.462126,-0.14365 1.029101,-0.09925 1.451708,0.04298 m 25.324248,0 c -0.411324,0.657927 -0.867187,1.408502 -0.827205,1.865011 0.280317,0.321366 1.675625,1.151885 2.036935,1.163935 0.22824,0.008 0.30406,0 0.40326,0 m 17.74311,-1.224468 c 0.042,-0.422184 0.10323,-1.749828 0.80651,-1.804478 0.68472,-0.05316 0.78795,0.623062 1.04845,0.966684 0.19679,-0.111876 0.36373,-0.301991 0.64521,-0.236321 0.73794,0.172068 0.93957,1.475417 1.37105,1.911903 M 105.4647,97.84929 c -0.9041,0.513181 -1.47913,1.386354 -0.77989,2.19115 0.30807,0.35387 1.2154,0.61803 1.00813,1.16002 -0.22582,0.59129 -1.13314,0.46098 -1.67995,0.37591 -0.41616,-0.0646 -0.62424,-0.15525 -0.80651,-0.24702 m -17.743097,-3.415615 0.191099,2.664285 c 0.02396,0.33394 0.575095,1.69694 0.61542,2.10469 m 4.516411,-4.768975 c -0.762954,0.304698 -2.236435,0.797129 -1.425094,1.675586 0.30486,0.329638 1.263795,0.540309 1.263795,1.031129 0,0.26101 -0.327441,0.26043 -0.564555,0.25778 -0.502451,-0.006 -0.796826,-0.20132 -1.048455,-0.38667 m -9.597401,-2.513378 c -0.03226,0.330476 -0.220983,0.603274 -0.161303,1.095573 0.04436,0.364569 0.222596,0.730298 0.241952,1.095575 0.01128,0.21531 0.05162,0.75814 -0.403254,0.68744 -0.404057,-0.0628 -0.804082,-0.77102 -0.941191,-1.009668 -0.116136,-0.203582 -0.128561,-0.311165 -0.272924,-0.379802 -0.04194,0.04711 -0.20533,0.173383 -0.251303,0.315357 -0.102426,0.317463 -0.104846,1.009673 -0.550842,1.009673 -0.202434,0 -0.22179,-0.22653 -0.255662,-0.36522 -0.162914,-0.670037 -0.366958,-1.516079 -0.389542,-2.191147 m 20.779985,1.292849 c -0.230667,0.22601 -1.015788,0.747498 -1.26258,0.962748 -0.661328,0.57724 -1.400091,0.36882 -1.505738,-0.38667 -0.08948,-0.64678 0.488742,-1.434951 1.183141,-1.750798 0.280659,-0.127859 0.750047,-0.357929 1.048454,-0.171812 0.332283,0.207323 0.347606,0.659342 0.429867,0.955922 0.157272,0.56564 0.342763,1.226718 0.860537,1.675588 m 26.3727,-2.642271 c 0.006,0.203713 0.41051,1.128635 0.63149,1.417802 0.10324,0.134498 0.18711,0.198298 0.25567,0.257781 M 83.527773,98.278949 c 0.744405,0.05864 0.1363,1.066671 -0.709208,1.020246 m 0.709208,-1.020246 c -0.395993,-0.03126 -0.746683,0.659452 -0.735661,0.890492 0.02554,0.53568 0.375155,1.460359 1.219563,1.451009 0.521002,-0.006 0.788763,-0.3725 0.967806,-0.51556 m 18.307649,0.32222 c -0.49197,0.36238 -1.43476,0.38326 -1.74769,-0.515561 -0.20727,-0.598056 0.56213,-1.855195 1.50574,-1.58968 0.90168,0.253787 -0.96924,0.965768 -1.45072,0.996123 m 16.1291,-1.017584 c 0.23711,0.514211 0.6573,1.04054 0.80651,1.417805 M 91.754119,99.073755 c 0.494388,-0.124766 0.619394,-0.185988 1.048458,-0.257781 0.396795,-0.06444 1.917865,-0.03538 2.016261,-0.257782 m 38.550912,1.224465 c -0.0459,-0.198298 -0.18346,-0.460627 -0.16953,-0.814435 0.007,-0.19832 -0.20711,-0.927401 -0.23373,-1.118932 -0.0895,-0.641299 -0.596,-1.824069 0.0138,-2.384486 0.25727,-0.23684 0.48713,-0.07592 0.57746,0.128889 0.0847,0.192048 0.0541,0.356127 0.0541,0.58001 0,0.315012 -0.075,0.49185 -0.0806,0.837795 -0.004,0.236256 -0.01,0.284367 -0.099,0.571405 -0.0571,0.183206 -0.4664,1.397149 -0.58657,1.555299 -0.0694,0.09106 -0.0605,0.133917 -0.12097,0.257782 -0.15808,0.325515 -0.53956,0.779016 -1.04846,0.773346 -0.45809,-0.005 -0.61375,-0.409035 -0.55084,-0.708901 0.11452,-0.550879 0.82229,-1.749852 1.90006,-1.322012 m -55.143068,0.935338 v 0.386674 m 4.516426,0.837791 c -0.973451,0.6141 -1.934928,-0.479993 -1.767813,-1.22055 0.04755,-0.210717 0.278197,-1.019898 0.558056,-1.131711 0.293567,-0.117164 0.425835,0.166205 0.403253,0.354449 -0.04113,0.337308 -0.254397,0.879772 -0.986856,0.940556 m 48.893222,0.541693 c -0.51052,0.118066 -1.29517,0.05137 -1.41344,-0.638365 -0.0169,-0.09873 -0.13641,-0.660124 0.0868,-1.089343 0.20295,-0.390249 0.7421,-0.664194 0.88306,-0.517125 0.50406,0.526006 -0.91619,1.092933 -1.25009,1.170719 -0.17824,0.04144 -0.20565,0.04079 -0.40325,0.04298 -0.12661,0.0015 -0.29921,0 -0.40325,0 h -1.20976 m -4.51242,-0.06696 -0.0466,1.237623 m 22.14085,3.598304 v 2.64227 l -0.24195,1.16002 -0.0806,0.45112 m 1.37106,-3.73784 c 0,0.77308 -0.0137,1.54701 0,2.32004 0.006,0.32545 0.11855,0.71792 0.1613,0.90224 m -13.38798,-3.15784 0.1613,0.80557 c 0.22744,1.1849 0.68391,2.32907 0.0806,2.86783 m -3.95186,-0.96669 c 0.0161,0.47948 0.29276,0.96669 1.04845,0.96669 0.42261,0 1.1404,-0.18045 1.19605,-0.58001 0.0387,-0.27583 -0.47423,-0.45628 -0.71215,-0.60128 -0.41938,-0.2561 -0.98555,-0.75569 -0.95409,-1.2032 0.058,-0.83463 2.18078,-1.19927 2.64775,-1.16002 m -0.72585,0.77335 c 1.24443,0 2.70743,-0.0296 3.87121,-0.30077 0.78554,-0.18309 1.42914,-0.3966 2.09692,-0.53702 m 24.67903,0.58001 c 0.25487,-0.2873 0.97668,-0.73243 1.45172,-0.48335 0.24115,0.12651 0.25404,0.44249 0.29598,0.61224 0.0734,0.30373 0.017,0.39898 -0.0806,0.77334 -0.12339,0.47117 -0.38309,0.90211 -0.75327,1.28892 -0.20647,0.21653 -0.72908,0.80428 -1.15573,0.61223 -0.28147,-0.12696 -0.32018,-0.59805 0.0806,-0.61223 0.3855,-0.0135 0.40367,0.20139 1.04845,0.35445 0.86136,0.20446 1.2775,0.0574 1.61301,-0.29001 m -47.66441,-2.77116 0.40325,1.74003 0.0977,-0.13218 c 0.34033,-0.4603 0.58458,-1.29445 1.59594,-1.3393 0.54116,-0.024 0.65972,0.50751 0.53794,0.82703 -0.21131,0.55249 -1.69745,1.46331 -2.13277,1.60566 0.62443,0.95521 2.38682,0.7756 3.04654,-0.059 m 45.00294,-2.32004 c 0.79603,-0.11716 2.01627,-0.56364 2.01627,0.32223 0,0.14462 0.006,0.19772 0,0.32223 -0.006,0.11014 -0.0436,0.19991 -0.067,0.32223 -0.0565,0.2949 -0.0387,0.67107 -0.12097,0.96668 -0.14437,0.51685 -0.50407,1.45905 -0.53794,1.80448 m -11.45236,-3.73785 c 0.68149,-0.20075 2.61387,-0.16646 3.30666,-0.0644 m 0.72586,0.0859 c 0.39841,-0.10749 0.77021,0.24702 0.9678,0.49411 0.41858,0.5231 0.0823,1.72521 -0.72585,1.92241 -0.30889,0.0754 -0.61779,-0.0922 -0.76618,-0.31127 -0.28309,-0.41787 -0.092,-1.93891 0.52423,-2.10525 m -38.22832,3.13638 v -1.80448 c 0,-0.23722 -0.0782,-0.58587 0.0403,-0.77335 0.1855,-0.29284 0.96055,-0.6045 1.38477,-0.24702 0.49519,0.41755 0.48954,1.30303 0.42986,1.79372 -0.0702,0.57614 -0.37019,1.30051 -1.04845,1.65432 -0.54278,0.28291 -1.17911,0.16627 -1.61301,-0.10763 m -17.01725,-3.48006 c 0,0.63879 0.15647,1.19838 0.32261,2.09448 l 0.1613,0.87002 c 0,0.1044 -0.003,0.15982 0,0.25778 0.008,0.35058 0.15404,0.6277 0.16129,0.83779 m 43.87385,-3.9634 c 0.31776,-0.13895 0.78796,0.23774 0.9541,0.48334 0.34599,0.51002 0.13307,1.7149 -0.71214,1.9121 -0.39681,0.0922 -0.51214,-0.3422 -0.59117,-0.55874 -0.15727,-0.42947 -0.18227,-1.6045 0.34921,-1.8367 m 8.52352,-0.41812 c 0,0.70239 0.1698,1.66669 0.67063,2.25482 0.18227,0.21396 0.61295,0.56325 0.44358,0.83779 -0.20646,0.33512 -0.6952,0.2623 -1.08878,0.25778 -1.02184,-0.0116 -1.76382,-0.47432 -2.17756,-0.7089 m -61.294342,-0.96668 c 0.447611,-0.71522 2.101754,-1.47967 2.258214,-0.19334 0.07823,0.64368 -0.492146,1.55663 -1.525239,1.85237 m 40.879397,-2.90676 c 0,0.44422 0.12413,1.05948 0.20488,1.40884 0.0153,0.0663 0.004,0.092 0.0266,0.22556 0.0492,0.28936 -0.0863,1.08269 0.33631,1.25669 0.24357,0.10053 0.54681,-0.15918 0.72586,-0.26874 0.59358,-0.36218 0.82747,-0.55359 1.1291,-0.79461 m -2.21352,-0.42957 c 0.1918,0.0742 1.32637,-0.25787 1.32637,-0.25787 l 0.4839,-0.0859 m 16.37205,-0.45112 c -0.43633,0.17426 -0.88555,0.19333 -1.45172,0.19333 m -44.15609,1.18786 c 1.01533,-1.25389 1.69363,-1.12109 2.1235,-0.41451 0.45165,0.74241 0.22905,1.79932 0.73956,2.2556 m -9.678049,-0.38668 c -0.457293,0.15403 -1.162975,0.11149 -1.532362,-0.19333 -0.399221,-0.32932 -0.273398,-0.84231 -0.107261,-1.22447 0.09678,-0.22363 1.119423,-1.47348 1.383956,-0.83779 0.151625,0.36238 -0.93265,1.22117 -1.547215,1.32955 m 18.658701,-1.3939 c 0.12824,0.55681 0.0808,1.89847 0.0808,2.2555 m -24.031179,-2.43104 c -0.05888,0.22395 0.06744,0.6191 0.07793,0.81991 0.04113,0.78753 0.42502,2.24271 0.483896,2.83561 M 105.626,106.22722 c 0.32179,0.6973 0.35567,1.49191 0.3226,1.99781 m -10.968459,0.38667 c -0.0726,-0.18302 -0.196792,-0.47883 -0.228241,-0.64445 -0.01771,-0.0922 -0.06375,-0.24425 -0.05406,-0.38668 0.01292,-0.18689 0.09198,-0.19591 0.175021,-0.38667 0.203231,-0.46852 0.496805,-0.81859 0.994412,-0.90224 m 7.823097,0 c 0.13227,0.67088 0.96216,-0.21724 1.19605,0.38668 0.19598,0.50525 -0.0815,1.07366 -0.44358,1.48224 -0.16533,0.18754 -0.43068,0.46015 -0.75247,0.37572 -0.80086,-0.21009 0.1005,-1.66775 0.41584,-1.98676 m -3.23861,-0.19343 c -0.26936,0.10749 -0.55406,0.18502 -0.8065,0.32223 -1.267831,0.69021 0.20244,1.31984 0.8065,1.69685 0.19921,0.12438 0.30647,0.35832 0.22824,0.55874 -0.27824,0.71793 -1.397671,0.20043 -1.518641,-0.25778 m 1.774311,-1.67559 2.25821,-0.64445 m -20.40456,0.0644 0.161302,2.1267 0.02661,0.90224 0.05403,0.45112 m -2.903415,-3.39416 c 0.256469,-0.0654 0.84199,0.0733 1.02184,0.24728 0.559715,0.54006 0.217758,2.37869 -0.618587,2.5456 -0.43148,0.0857 -1.071845,-0.14951 -1.263793,-0.49429 -0.296795,-0.53361 -0.02097,-1.11298 0.282276,-1.61114 0.148396,-0.24296 0.268565,-0.60837 0.578264,-0.68745 m -8.145694,0.10743 0.322601,1.41781 v 2.32004 l 0.08065,0.58001 m 2.742116,-0.90224 c 0.363734,-0.23716 1.500904,-0.98473 0.873443,-1.61114 -0.104038,-0.1044 -0.195979,-0.0922 -0.30889,-0.16111 -0.133875,-0.0825 -0.751267,0.14652 -0.938647,0.16422 -0.614439,0.0879 -0.402283,0.47427 -0.05071,0.37334 0.52342,-0.0825 0.635139,-0.2242 0.794591,-0.69868 0.118962,-0.35398 0.181054,-0.51169 0.194771,-0.7089 0.01049,-0.15338 -0.07743,-0.36927 -0.241951,-0.51556 -0.608913,-0.54128 -1.74447,-0.0651 -2.258212,0.0644 m 4.193826,0.12889 c 0.03388,1.03822 -0.229853,2.95999 0.241951,3.80229 m 16.340409,-3.72348 0.309552,0.42499 m -21.730939,7.5519 -0.08065,1.35335 0.08065,2.19116 0.322601,1.48224 m 54.277755,-5.02675 c 0.15485,0.42727 0.0806,0.99246 0.0806,1.48225 0,0.145 -0.004,0.18818 0,0.32223 0.002,0.0722 0.0204,0.61403 -0.0112,0.7472 -0.0929,0.39222 -0.31793,1.04825 0.0918,1.31506 l 0.24196,-0.12889 m -12.01687,-3.09339 c 0,0 0.91514,-0.29127 1.37105,-0.44016 0.13016,-0.0425 0.38954,-0.1294 0.38954,-0.1294 l 0.0944,0.31178 c 0,0 0.0171,0.73063 0,1.09557 -0.0403,0.86109 -0.24195,2.57782 -0.24195,2.57782 l -0.0806,0.32223 -0.0806,0.58001 m -35.244295,-4.51119 c -0.204047,0.5639 -0.06775,1.44229 0,1.99782 0.01774,0.145 -0.01935,0.27905 0.01372,0.45111 0.09759,0.50977 0.341149,1.0176 0.63149,1.48225 m -2.419511,-3.86673 c 0,1.09557 -0.05969,2.17181 0.268565,3.22228 0.102426,0.32674 0.242757,1.06657 0.77989,0.77335 m 41.131721,-3.35118 c 0.31937,-0.51041 1.41057,-0.96926 1.74769,-0.19333 0.28954,0.66765 -0.15841,1.3645 -0.52422,1.93336 -0.14228,0.22125 -0.50568,0.81266 -0.90087,0.76239 -0.64682,-0.0825 -0.33012,-0.80479 0.8065,-0.69794 l 1.37106,0.1289 m -50.567827,2.1267 c 0.972646,-0.95251 1.233146,-2.15957 0.860542,-3.35117 -0.268568,-0.85842 -1.295713,-1.71856 -2.513874,-1.09558 l -1.008132,0.51557 m 49.035471,-0.64446 c -0.31212,0.11149 -0.91458,0.16756 -1.2904,0.31127 -0.11292,0.0432 -0.14518,0.1218 -0.16131,0.20429 -0.0209,0.10698 -0.21578,0.45576 -0.21578,0.59045 0,0.2726 -0.1423,0.828 -0.0803,1.08514 0.10888,0.44532 1.48396,0.99697 0.99523,1.47129 -0.63957,0.61932 -1.5735,-0.47754 -1.66705,-0.76239 m 8.22635,-2.90005 c -0.22905,0.28936 -0.92749,1.02404 -0.92749,1.35336 0,0.41438 1.66007,0.007 1.96645,0.0736 0.3702,0.0808 0.97407,-0.23341 0.9773,-0.2347 0.11613,-0.0586 0.1986,-0.0617 0.23247,-0.19508 m 0.49338,-1.30844 c 0.26776,-0.14436 0.84845,0.0754 1.12911,0.17143 0.2355,0.0812 0.45567,0.16691 0.61858,0.33318 0.56617,0.57808 0.21938,1.24831 -0.3097,1.74003 -0.26533,0.24683 -0.70488,0.47883 -1.11539,0.36541 -0.57585,-0.15983 -0.7329,-0.80605 -0.80488,-1.19991 -0.0568,-0.31073 0.0637,-1.18522 0.48228,-1.41014 z m -27.0179,0.56906 -1.7743,0.12889 -0.40326,0.011 -1.129107,-0.0754 m 1.226717,0.0815 c 0,0.34027 -0.0888,0.5662 -0.004,1.0141 0.11936,0.62447 0.22985,1.41329 0.30889,2.06226 0.0267,0.22104 0.0589,0.70374 0.10726,0.90223 0.0492,0.20236 0.0541,0.34092 0.0541,0.45112 m 17.98505,-4.18896 c 0,0 -0.73232,0.13272 -1.08878,0.22556 -0.59093,0.15391 -1.73399,0.54779 -1.73399,0.54779 m -13.06537,-0.58001 c 0.14517,0.63092 0.51456,1.20513 0.80651,1.80447 0.0625,0.12851 0.13697,0.21791 0.24458,0.44132 0.39645,0.82305 0.77161,1.37734 1.12648,1.68539 m -2.58082,0.19333 c 0.29438,-0.24102 0.70246,-1.0279 1.00813,-1.48224 0.0799,-0.11859 0.13675,-0.19078 0.25685,-0.31198 0.10882,-0.10981 0.30958,-0.94952 0.3314,-1.07092 0.10584,-0.58842 0.47231,-1.59256 1.30703,-1.06604 m -19.211178,2.15458 c -0.250014,0.29259 -1.165149,1.14953 -1.677282,1.13214 -0.837149,-0.0284 -0.397604,-1.46613 -0.215335,-1.80447 0.376637,-0.69795 1.340275,-1.3931 1.788021,-0.93447 0.178314,0.18265 -0.06049,1.96688 0.389542,2.34131 0.184688,0.15403 0.462126,0.0909 0.699237,0.011 m 0.967806,-2.44893 c -0.604069,0.48269 -0.807309,1.26571 -0.08065,1.7832 0.355668,0.25263 1.032324,0.32223 1.250081,0.66573 0.173397,0.27325 -0.03468,0.58839 -0.362928,0.7089 -0.621005,0.22749 -1.383154,-0.0844 -1.854958,-0.32223 m -8.740724,-1.14298 c -0.20566,0.16434 -0.837209,0.47348 -1.03077,0.64426 -0.17985,0.15918 -0.805519,0.47489 -1.102313,0.33762 -0.161303,-0.0748 -0.256467,-0.32352 -0.229049,-0.48334 0.09114,-0.52137 0.582299,-0.98344 1.102493,-1.27796 0.229854,-0.13018 0.687143,-0.35187 0.967807,-0.23651 0.320988,0.13211 0.213721,0.37829 0.241951,0.61223 0.04355,0.3609 0.138717,0.96153 0.483903,1.22447 0.383896,0.29258 0.74521,-0.0986 0.887155,-0.38668 m 15.888136,0.64446 -1.209756,0.83779"
       id="path315"
       sodipodi:nodetypes="cscccccccccsccccccccsccscscccccccssccccccccccccsccscccsccccccccccsccsssscccccccsccssscsccccccccsccsccccscccccscccsccsccssccccccccccsccscscssscccccsccscccccccscsccscccsscccccccccccccccscccsscccccccccccccccccscssccccccccscccccccscccsccccccsccsccccssccccscscccccccccccsccccscccccccsscccccsccccccccscccccccscscccccccccccccccsccccccccccccccccsccccccccccccccccscccscccccccccscccccccccccccccsccccccccccccscccscsccccccccsccccsscccsccccccccccccccsccccccccccccccscccscccccsccccccccccccsccccccssccccccccccccccccsccccccccccccccccccccccccccccccccccccccccccccccccccccccccccccsccccccccccccscscccsccsccccccccccccscscccsccscsccccsscccccccscccccccccccscccscccssccccscccccccccccccscccc" /></g></svg>
