<?xml version="1.0" encoding="UTF-8" standalone="no"?>
<!-- Created with Inkscape (http://www.inkscape.org/) -->

<svg
   version="1.1"
   id="svg3821"
   width="2730.6667"
   height="1328"
   viewBox="0 0 2730.6667 1328"
   sodipodi:docname="WilF - Stake - Envelope6.svg"
   inkscape:version="1.2.1 (9c6d41e410, 2022-07-14)"
   xmlns:inkscape="http://www.inkscape.org/namespaces/inkscape"
   xmlns:sodipodi="http://sodipodi.sourceforge.net/DTD/sodipodi-0.dtd"
   xmlns="http://www.w3.org/2000/svg"
   xmlns:svg="http://www.w3.org/2000/svg">
  <defs
     id="defs3825" />
  <sodipodi:namedview
     id="namedview3823"
     pagecolor="#ffffff"
     bordercolor="#000000"
     borderopacity="0.25"
     inkscape:showpageshadow="2"
     inkscape:pageopacity="0.0"
     inkscape:pagecheckerboard="0"
     inkscape:deskcolor="#d1d1d1"
     showgrid="false"
     inkscape:zoom="0.55908291"
     inkscape:cx="595.61827"
     inkscape:cy="301.38642"
     inkscape:window-width="1280"
     inkscape:window-height="658"
     inkscape:window-x="-6"
     inkscape:window-y="-6"
     inkscape:window-maximized="1"
     inkscape:current-layer="g3827" />
  <g
     inkscape:groupmode="layer"
     inkscape:label="Image"
     id="g3827">
    <path
       id="path4266"
       style="fill:none;stroke:#787475;stroke-width:0.782086"
       d="m 389.56291,218.99218 c -9.73138,13.70793 16.14675,9.81921 -2.84362,0.61114 m -3.50317,-3.9095 c 0.40168,5.16668 -0.005,10.72936 1.00554,15.70996 m -3.60047,-12.17792 c -4.00909,12.11804 -3.49037,6.75039 7.4172,6.27319 m -18.54166,-5.11993 c -6.62612,-2.11959 3.90893,-7.39072 4.18433,1.53684 0.19,6.15939 -6.55134,10.7205 -4.89794,7.97184 0.71543,-1.18942 5.69338,0.85834 8.04432,-2.81307 m -19.87293,-8.89753 c 2.01211,-0.90093 4.5856,-1.17469 6.77929,-0.69203 m -3.12474,2.26483 c -9.71257,0.78579 5.08014,9.39818 0.10812,10.65905 -1.20097,0.30457 -2.82338,0.18124 -3.94648,-0.23368 m -9.96889,-6.58774 c 4.12689,-0.56406 8.34115,-1.02256 12.52059,-1.0695 m -12.92065,-3.50508 c 1.2343,0.80063 5.05211,-2.60406 5.64399,-2.11204 0.058,0.0482 -0.36729,12.806 0.41088,16.45592 m -33.32749,-15.0198 c -2.79343,5.0558 -1.35309,11.31602 -4.5844,16.24022 m -3.43829,-15.45833 c 3.18884,2.54037 4.70082,10.03224 8.97417,11.21628 m -15.83995,-11.99817 c 2.28662,4.81367 2.89315,9.95982 3.27612,15.11679 m -5.58993,-12.02513 c 3.21459,-0.30004 6.28563,-0.38551 9.17959,-1.77052 m -24.90538,9.88095 c 0.0923,2.46782 -0.74094,4.83586 -0.81091,7.29775 m -7.35234,-15.74591 c -0.59256,-0.13767 -1.27956,-0.32943 -1.78403,0.0899 -5.63016,4.67993 5.08714,8.23512 4.98446,9.64349 -0.13521,1.85457 -4.99931,3.43268 -5.84943,1.51887 m -5.2115,-5.77889 c -2.67805,-4.63831 -5.94985,3.23406 -5.67645,5.73396 0.18607,1.7012 2.86189,-1.34733 3.04906,-1.68963 0.91849,-1.67963 1.53734,-3.87028 1.55698,-3.83763 0.93005,1.5462 -1.56373,8.66508 3.04906,6.57878 m -14.40035,-15.76519 c 0.88819,3.43139 -0.40927,14.30418 5.25476,13.03172 m -9.83916,-14.254 c 0.77612,5.90473 1.61272,11.81099 2.56251,17.69618 m -6.24949,-9.65247 c -2.09074,-3.40192 -8.62545,4.41018 -7.49289,7.40561 1.73175,4.58013 6.49252,-7.46919 6.90902,-7.48649 0.0703,-0.003 -0.35997,3.7181 -0.0541,5.01495 0.50554,2.14312 1.83653,4.34195 4.06541,2.06711 m -22.96523,-8.45714 c 0.63098,-1.83877 1.73785,-3.58105 4.05462,-3.49611 9.62124,0.35285 4.47786,17.5729 -0.65956,15.31454 m -3.74104,-16.0425 c -0.13058,4.35384 4.18329,12.1697 1.42721,16.13236 m -4.36952,-45.69813 c 1.10515,5.18703 1.53018,10.47118 2.40031,15.70098 m 0.99472,-14.9011 c 12.53054,-2.77023 3.84428,8.50577 2.87607,7.45953 -1.25109,-1.35192 3.5889,-4.68461 5.39531,-3.27141 1.26673,0.99099 -1.25817,6.42272 -1.65428,7.75613 m 5.90349,-15.28757 c 0.81258,4.8519 0.49728,9.81364 1.25424,14.65845 m 3.91402,-13.6968 c -0.43802,1.29163 -0.31355,2.65477 -0.31355,3.99041 0,0.90385 -0.003,1.75953 0.16217,2.65128 1.93411,10.53923 10.35316,-0.81287 4.63849,-5.707 -0.95601,-0.81871 -1.84427,-0.58269 -2.74632,0.19773 m 9.62289,-2.55242 c 0.66036,5.24105 2.32187,10.73875 1.37317,16.03351 m 25.83618,-0.41461 c 0.27572,-5.36302 -1.38593,-10.60021 -3.05987,-15.71896 8.93464,-4.44308 11.57118,9.69522 2.21653,10.17374 m 7.30908,-6.39005 c 0.18112,1.24287 0.44137,2.47443 0.71359,3.70281 2.83089,12.77397 -2.51879,-6.23039 2.16245,-5.97661 0.79367,0.043 1.22352,1.15556 1.42723,1.68962 m -0.346,3.0018 c 1.49555,0.006 2.80037,-0.51031 4.0654,-1.20431 0.88819,-0.48726 2.88511,-1.70984 1.47048,-2.76812 -3.72035,-2.7832 -4.26767,17.96267 3.40587,6.88434 m 2.31031,-4.30468 c 2.90047,-4.30186 -5.87123,-0.19072 -2.77874,2.89394 0.42282,0.42177 6.96657,1.83763 5.20069,3.00179 -2.21813,1.46229 -6.29712,1.50258 -7.01717,-1.07848 m 5.87107,-4.59257 c 3.96259,-0.92324 8.0676,-1.22369 12.14215,-1.00658 m -8.40112,-8.7717 c -1.22725,5.85205 1.66719,11.45382 1.94622,17.17492 m 6.54142,-8.74474 c -0.88529,1.0307 -1.56005,2.24695 -1.95705,3.51407 -0.74103,2.36531 1.8658,6.5668 3.55726,2.98381 0.9288,-1.96745 -0.3767,-10.03242 -3.49238,-6.99219 m 6.36842,6.03054 c 0.97669,-13.92152 4.18173,-6.84673 6.36842,1.10545 m 20.81629,-13.99225 c 1.51634,3.46344 2.36862,7.14606 2.85443,10.84778 0,0.002 0.0757,-1.78136 0.0757,-3.87356 0,-1.76281 -0.31869,-9.78036 2.7355,-9.88614 4.61529,-0.15985 -2.9369,10.69271 -3.82751,9.21209 -1.61986,-2.69293 6.97645,3.9668 9.84996,0.5662 m 2.98418,2.84901 c -1.10935,-3.45792 -1.61709,-7.76855 -2.64903,-11.51286 10.78738,-2.04833 11.17137,13.0999 0.88664,12.77109 m 36.2537,-18.90067 c -1.99048,1.95417 -7.58125,5.72251 -6.23867,9.14018 0.86906,2.2123 7.65769,2.53527 6.34679,4.36788 -1.68396,2.35411 -8.79188,2.65026 -7.80645,-0.5033 m 11.02849,-9.83221 c 0.96582,4.19908 1.85135,8.41291 2.78955,12.60932 m -8.1308,-11.52184 c 4.23516,-0.19215 8.49054,-0.61756 12.74766,-0.81786 m -0.67038,1.02456 c 2.48714,0.0338 5.022,0.20088 7.47128,0.1438 m -6.62792,4.22408 c 2.4889,-0.1659 5.31992,-0.21276 7.63346,-0.5033 m -6.34679,-4.50268 c 0.8534,2.12274 0.76186,11.31323 2.20569,12.78008 0.4338,0.44071 5.73187,-3.56181 6.10892,-3.93648 m 17.14543,-12.32292 c 1.07902,4.97609 2.42165,9.95314 3.63293,14.92807 m 0.78927,-13.96641 c 0.8252,4.38305 1.43267,9.02977 2.6382,13.23843 m 2.81738,-13.31237 c -0.38908,1.29261 -0.58957,2.59409 -0.70279,3.92749 -1.0992,12.94383 10.91401,3.54751 2.85443,-0.97064 -1.30763,-0.73304 -3.14253,-1.62107 -4.60604,-1.42899 m 19.09445,2.29178 c -1.7238,1.25319 -3.14083,1.77991 -5.34125,1.69862 m 14.89929,-6.45295 c -0.63763,0.62784 -2.17014,1.45054 -1.80566,2.56141 1.00444,3.06129 5.96384,4.4983 4.96283,8.58296 -0.67274,2.7452 -5.20596,1.09881 -6.63873,0.0269 -0.64242,-0.48059 -2.49511,-2.03707 -2.53007,-2.05811 m 0.173,-7.6303 c 4.60503,-0.52597 9.3794,-1.17925 13.81806,-2.50748 m -0.64873,1.44697 c -6.57874,14.78768 11.9979,7.89422 -1.30828,0.054 m 9.47153,0.71 c 4.74353,-2.58647 6.31436,2.06792 6.31436,5.48232 0,2.63612 -1.91183,4.65907 -1.84889,4.60155 1.51374,-1.38408 3.70638,0.12492 5.08176,-3.57699 m 0.83254,-10.10183 c -1.50248,0.48668 -1.45739,1.9428 -0.11893,2.57039 2.47318,1.15966 6.07648,-2.0781 6.07648,-1.95925 0,4.26492 0.0809,9.67412 -0.73522,13.49008 m -90.62808,-38.3585 c 0.54381,5.22835 0.20289,10.52515 0.45412,15.74592 m 0.0324,-10.66804 c -6.73283,-5.20063 -10.34092,19.16841 0.19462,5.30256 m -16.46706,-0.65607 c 1.74207,0.0807 3.37972,-0.67633 4.86553,-1.46495 5.80264,-3.07993 -3.24492,-5.62569 -2.70308,4.17015 0.18924,3.42106 4.08925,4.23836 5.96836,1.11444 M 394.70432,146.3234 c 0.45146,5.48983 1.07779,11.38943 2.995,16.4739 m -5.27638,-7.33372 c 2.9206,-0.368 6.06041,0.15237 8.93094,-0.53924 m -12.66115,-5.69801 c -0.76631,-0.41886 -1.70339,-0.53293 -2.53007,-0.75494 m 3.05984,8.27739 c 0.2916,2.22724 -1.00071,8.1418 1.87054,9.03233 m -16.53193,-1.44696 c 0.50752,-0.94966 2.0998,-9.34147 3.3626,-8.81664 1.84855,0.76828 1.30472,6.60373 1.54616,8.25942 0.0413,0.28315 -0.0331,1.01758 0.20544,0.83582 1.20067,-0.91486 2.19784,-9.32527 2.85443,-6.69561 0.68122,2.72833 1.76888,7.96766 5.58993,4.66446 m -19.37558,-12.48349 c -0.84007,-0.77146 -1.4311,-1.73308 -2.20568,-2.54343 m -8.63899,17.05807 c 5.84119,-0.0625 10.37379,-1.24338 12.3476,-6.16535 0.11427,-0.28496 0.24771,0.56379 0.34597,0.8538 0.6953,2.05166 1.18541,4.1843 1.62186,6.26422 M 355.13806,147.1437 c 1.5531,5.62509 3.06084,11.73276 3.95729,17.24681 m -29.33413,-6.48335 c -0.7708,-0.67649 -1.61126,-1.15852 -2.69227,-0.86279 -0.98217,0.26869 -1.41845,1.04626 -1.79483,1.83343 -2.46643,5.15844 4.33862,5.08603 4.63845,8.6998 0.2725,3.2841 -6.31421,-0.29194 -6.86578,-0.87178 m -9.11471,-5.71598 c -0.45856,1.955 0.65878,2.57314 2.65981,2.32774 1.4241,-0.17466 6.30532,-4.84871 3.7194,-5.32055 -4.28072,-0.78107 -5.62696,15.98372 2.95175,6.33612 m -12.4341,-5.75193 c -4.3463,-2.19217 -8.22709,12.7646 5.2872,5.80586 m -14.02349,-15.29656 c 1.64532,2.65512 0.72605,19.27539 5.11418,19.54759 m -9.46916,-9.07755 c -3.24613,-2.99015 -7.64973,7.76573 -4.38977,9.18512 2.01357,0.87672 3.54205,-4.87345 3.8059,-5.79687 0.24693,-0.86423 0.65216,-2.00323 0.63793,-2.90293 -0.003,-0.16261 -0.11689,-0.63723 -0.0541,-0.48532 0.10163,0.24576 0.13704,0.51193 0.17299,0.77292 0.16405,1.19087 0.41534,14.06272 4.46546,8.79866 m -17.9051,-7.14498 c 3.79534,-1.659 8.07193,-1.71636 12.17461,-2.03116 m -11.06094,-9.88613 c 1.17772,6.88686 2.40481,15.49311 3.90321,21.5338 m -9.86915,-13.92944 c -0.96317,-0.21868 -1.51578,0.0501 -2.17326,0.71 -6.53321,6.55764 4.09172,8.5128 3.92484,11.00956 -0.27513,4.11645 -9.42673,-1.04325 -10.04459,-1.74355 m -7.21175,-8.02575 c 0.70331,2.41336 1.4225,4.8351 2.13,7.25283 0.39274,1.3421 0.84296,2.63214 1.09204,4.00838 3.52669,19.48568 -5.97433,-8.89884 0.52981,-11.87235 4.07837,-1.86453 0.31945,8.76262 -0.15138,9.61651 m -13.13475,-4.24928 c 1.82045,-0.30055 3.54092,-1.19957 4.85468,-2.41761 2.71748,-2.51945 -0.99286,-4.7221 -2.28138,-0.25165 -0.92611,3.21304 0.53573,10.10915 5.04934,5.4194 m -16.15351,-2.87597 c 1.78714,-0.27123 3.54191,-1.3793 4.73575,-2.64229 3.16742,-3.35088 -2.03908,-3.77994 -2.36789,0.93469 -0.39581,5.67555 3.88639,8.62543 7.99027,3.37028 M 235.2474,160.1565 c -0.11902,1.83706 0.8019,3.52103 1.03796,5.31156 0.17947,1.3613 0.69432,2.84583 1.21097,4.1342 1.44523,3.60391 2.35662,-7.54579 3.18962,-8.6998 0.511,-0.70794 0.45818,1.64844 0.69198,2.47153 0.25196,0.88703 1.59887,7.82554 3.4383,7.34271 1.08028,-0.28357 0.27244,-12.7563 0,-13.23844 m -13.3315,-3.13661 c -1.47316,0.0242 -2.95364,0.56557 -4.3249,1.0785 -1.96519,0.73507 -3.42718,2.17992 -4.60603,3.74774 -5.79318,7.70467 11.67631,6.33748 11.3853,11.0545 -0.2444,3.96135 -12.00568,5.06184 -10.43382,2.01317 M 184.74314,65.30383 c 1.39755,-0.468007 2.57893,-1.349458 4.11946,-1.366083 4.8063,-0.05188 1.21934,5.194379 -0.20543,6.623713 -0.16422,0.164734 -0.49645,0.669594 -0.54061,0.449369 -0.51827,-2.584788 6.9543,-1.644455 4.48708,2.75014 -1.91273,3.406943 -7.42906,1.974481 -8.77955,-0.727982 m -3.37341,-6.992191 c 1.14068,3.592774 -0.39636,7.516786 0.0973,11.027534 m -14.82361,-8.160557 c 0.64014,-0.850205 1.54064,-1.68408 2.6382,-2.004184 1.31976,-0.38492 2.95807,-0.295019 4.00053,0.593164 4.00588,3.413027 -7.38828,12.285719 -2.00027,9.185121 1.44982,-0.834316 2.97419,-1.384741 4.26003,-2.45356 1.41495,-1.176145 2.78207,-2.356996 3.89241,-3.79268 M 158.8586,65.645349 c 1.81541,0.525338 3.66771,0.251142 5.51425,0.116841 m -6.10892,-0.05395 c -4.42483,4.387438 5.18035,6.454602 4.46546,10.515252 -0.53811,3.056425 -5.74815,1.527537 -6.95228,0.170763 m -3.83265,-11.181968 c 0.25072,5.0418 0.0937,10.21289 1.01635,15.197681 m -4.02216,-16.42896 c -1.84465,8.936715 -1.52645,11.856938 9.01742,6.965233 m -26.70129,-6.699229 c -1.52051,4.434056 1.28542,8.885529 1.03798,13.25641 m -7.37396,-7.44156 c 2.90675,-0.5963 5.99636,-0.72196 8.81198,-1.464949 m -6.63872,-3.469132 c -2.18046,4.330843 -1.30127,10.059489 0.83254,14.32591 m -8.95254,-10.020946 c -5.14799,-0.58655 -7.36369,7.40319 -0.97311,6.731561 5.57943,-0.586384 5.07354,-6.571126 0.8758,-8.564989 M 99.674545,75.47041 c -1.489951,2.024806 -3.008937,4.027943 -4.97364,5.680038 M 87.597258,61.638813 C 86.889664,61.297122 86.14297,61.13792 85.434809,60.820957 m -8.552499,8.493094 c 7.45672,0.425902 8.67153,-0.698906 8.498435,5.967627 M 78.212221,61.557924 c 0.103052,5.8666 2.025732,11.696124 2.411136,17.462508 M 71.897863,67.291884 c -2.442198,-8.0043 -10.8739,6.045223 -7.341522,7.477513 2.311379,0.937205 4.173671,-4.297046 5.406129,-3.406227 2.085509,1.507419 0.09363,5.483983 4.151899,4.260028 m -18.753782,-8.34262 c -0.0037,0.69289 -0.04869,1.384403 -0.0865,2.076088 -0.666428,12.18693 -0.416294,-5.203102 2.648997,-4.170153 0.385873,0.130036 0.717533,0.439605 0.821733,0.808871 1.179602,4.180082 -0.219376,6.273201 5.081763,6.273201 M 46.159353,66.534626 c 0.0208,0.887349 -0.04541,1.773203 -0.05406,2.660269 -0.09831,10.0512 0.694061,-6.616624 4.076219,-2.399632 1.675722,2.089345 -0.83511,10.902955 4.854698,5.563195 M 42.688623,60.396234 c -1.010115,-0.506666 -2.02269,-0.769129 -2.994994,-1.339122 m -0.659546,9.167147 c -3.854061,-4.325365 -10.57079,7.245545 -3.92485,8.034732 2.224477,0.264143 3.900781,-0.964945 5.243942,-2.45356 0.672282,-0.74509 1.334482,-1.626617 1.816459,-2.489513 0.615577,-1.102082 0.886602,-2.5258 0.886602,-3.756728 0,-0.225077 0.03527,0.449094 0.04325,0.674054 0.06435,1.818931 -0.198096,3.779885 1.13529,5.239652 m -22.83556,-8.432673 c 0.219183,0.818676 0.300023,1.660509 0.378432,2.498497 0.963096,10.292793 -1.712198,-0.69699 2.843618,-1.249248 0.541045,-0.06559 1.05782,0.04651 1.362346,0.512282 1.618959,2.476118 -0.509303,6.130198 3.330173,6.839404 M 17.604119,60.447662 c -0.752756,-0.288383 -1.533063,-0.480581 -2.292202,-0.754936 m -2.551692,2.444568 C 4.913119,56.894622 2.5340151,69.93357 9.6462966,73.874834 c 3.2255104,1.787409 5.9460184,-2.71532 7.0387774,-4.844205 0.503757,-0.981411 0.616301,-4.294719 0.616301,-3.208502 0,2.780926 0.551423,5.474299 0.551423,8.22347 M 7.1495111,38.320761 c 7.5914919,-3.67571 7.8305529,10.998019 0.2811213,10.452348 -1.500047,-0.108422 -0.9671072,-3.848464 0.4216783,-4.278004 2.0561014,-0.635938 2.4750883,2.830776 4.2275943,3.316346 2.711733,0.751353 6.764315,-1.454173 9.103916,-2.381656 m 1.416403,-6.138392 c -1.421734,-0.321683 -2.654819,0.214997 -3.643728,1.150383 -4.001478,3.784897 6.371567,5.253524 5.611555,8.412205 -0.429954,1.786948 -4.993302,3.374842 -5.297999,0.799879 -0.494831,-4.181708 3.863806,-9.104647 5.784554,-12.609319 m 5.776852,1.482077 c -1.749703,2.008973 -2.498552,4.488488 -2.119203,7.046122 0.858247,5.7864 12.8907,-2.25512 -0.789291,-6.21029 m 6.044045,-1.464948 c 2.863922,-0.774366 6.112784,-0.796221 8.822802,-1.896341 m -6.227856,0.988618 c -2.350039,3.597625 9.521971,12.301024 2.530063,13.040712 -1.728163,0.182827 -3.176933,-0.692291 -4.0654,-1.402035 M 69.967571,37.731951 c -7.691621,-5.636363 -15.276656,10.48325 -4.854699,10.973608 2.781202,0.130855 5.056016,-2.06789 6.34679,-4.044328 m 0.637923,-1.698617 c -1.378966,-0.343159 -2.321684,0.256764 -2.940929,1.41102 -0.652135,1.215542 -0.383525,2.310288 0.291933,3.433187 3.023678,5.026703 12.29094,-4.417817 0.140557,-5.194718 m 8.184881,-0.683038 c 0.159362,0.966302 0.04936,1.948816 0.01081,2.920905 -0.442205,11.14969 -0.409137,-3.69073 2.71388,-3.091668 1.06286,0.203877 2.000247,1.930523 2.670627,2.588371 m 6.60628,-3.594959 c -1.783673,0.263862 -3.594898,0.369989 -5.373687,0.701015 m 0.983913,-7.171941 c 1.311748,4.946655 2.486816,9.952964 2.486816,15.071863 m 2.378694,-4.79927 c 7.815916,1.12004 5.672697,-6.590862 3.373426,-1.932286 -0.580674,1.176503 -1.383268,2.523425 -1.135289,3.873564 0.818632,4.457035 5.422063,0.601701 6.487354,-1.536846 m 1.600219,-10.614112 c -0.674449,5.13259 -0.12152,10.217307 0.8001,15.260602 m 4.65273,-5.818005 c 5.03071,9.125938 12.30772,0.386401 8.77955,-0.413423 -2.37307,-0.537968 -4.15191,14.274016 -4.15191,16.330103 m 8.05514,-16.464914 c -7.02218,10.909889 6.16388,6.891006 3.6221,3.127613 -1.23338,-1.826159 -3.40619,-2.891126 -4.54115,-4.134201 m 5.29177,-0.177046 c 0.0353,1.011376 -0.75466,9.072512 1.47047,8.654865 1.08298,-0.20327 5.33483,-9.114997 5.86023,-7.765112 0.69233,1.778748 -0.92312,8.087911 1.94621,8.124607 m 20.25412,-11.206443 c 5.16252,-10.248651 7.6274,3.25171 2.08676,7.234854 m -2.01108,-10.047909 c 0.20245,5.636989 -0.42589,11.899334 0.67036,17.30973 m 7.68524,-16.087794 c 2.6828,7.476832 -6.568,13.324685 6.6171,9.400816 m 9.04986,-2.615331 c -0.40426,0.461082 -0.91015,0.728843 -1.4164,1.04254 m -6.6709,-38.4991713 c 1.06663,6.0242723 5.06909,12.6343433 1.80565,18.2534053 m -3.85998,-8.753724 c 2.4003,-0.273094 5.09411,0.476757 7.39558,-0.224684 m -9.11472,-5.086868 c -0.70912,0.307317 -1.34126,0.731076 -2.01109,1.096462 m 3.45993,5.338513 c 0.34658,2.899318 -0.17499,5.922899 0.19461,8.771699 m -8.97185,-9.350222 c -0.11073,-1.158789 -1.12354,-1.959964 -2.40032,-1.411027 -8.92913,3.839018 -3.56539,15.971373 1.48128,7.073082 1.01771,-1.794437 3.04215,-15.2548558 0.55142,-13.184514 -0.95725,0.795691 0.31802,20.568324 5.01689,14.119205 m -18.64682,-5.381976 c 1.56329,0.312244 3.0545,-0.286068 4.18434,-1.312161 4.30029,-3.905479 -2.82078,-0.263179 -4.07622,3.487108 -1.7527,5.235679 2.9911,6.715076 6.56303,2.732173 m -12.13133,-7.729146 c 0.45812,-0.0452 1.11365,8.779741 1.11365,8.627905 0,-5.395618 -3.23556,-9.217762 5.04932,-5.73396 M 136.70542,9.43167 c 0.3755,0.834109 -2.28088,5.060334 -1.42721,5.769913 0.24703,0.205337 0.0734,-4.403196 -4.36816,-3.172551 -3.84281,1.064747 -4.87919,5.103535 -4.73577,8.322331 0.34441,7.729504 10.55251,2.202376 12.55303,-1.455964 M 101.48507,8.9350492 c 0.0794,1.8099188 0.251,3.6010428 0.65954,5.3744648 0.2288,0.993159 0.44389,2.022477 0.50817,3.03774 0.0897,1.415987 0.23788,2.831734 0.23788,4.251036 0,5.60978 2.57928,-6.864507 4.83308,-6.381053 2.35097,0.50431 2.95337,9.327499 3.23286,11.315133 M 100.28479,14.989672 c -2.005584,-0.408779 -3.778842,1.371333 -3.935653,3.163566 -0.380364,4.347221 5.910543,3.781313 5.806173,6.210297 -0.14163,3.296378 -8.783891,3.259613 -5.925107,-0.350511 M 92.44591,18.476788 c -2.867284,-5.545897 -8.073274,8.013043 -3.12474,5.509275 2.048735,-1.036587 2.574703,-3.649982 3.12474,-5.509275 0.260035,-0.878991 0.681176,-3.571512 0.681176,-2.660269 0,2.863311 -2.950838,9.011501 2.400317,8.861574 M 85.601873,9.5489662 c -0.443771,2.3561488 -1.375513,4.6669328 -1.708336,7.0461218 -0.116317,0.831491 0.58822,-1.699424 0.313556,-2.498497 -0.541582,-1.575609 -2.687828,-2.682785 -4.400586,-1.941278 -3.230245,1.398466 -7.0112,6.07911 -5.838622,9.544612 1.832101,5.414716 12.12955,1.036993 15.039849,-0.754936 M 45.619553,17.822178 c 1.520999,0.139317 4.20193,-1.146394 3.65454,-2.920898 -1.41427,-4.584742 -6.516388,2.937586 -5.871054,6.10244 1.010122,4.953876 6.778833,5.9912 7.255023,0.05395 M 38.483464,14.200286 c 0.813107,-0.35656 -4.581219,7.763149 -4.88714,5.644087 -0.332383,-2.302365 5.130861,3.754463 10.54195,1.04254 M 33.001647,7.8641704 c 1.438019,5.1083436 0.164305,11.1676316 2.151645,16.1233946 m -5.681048,-8.213743 c -3.610988,-1.301565 -7.766063,4.919101 -6.498165,7.854985 1.149896,2.662646 5.019532,-4.029403 5.352064,-4.637498 0.369068,-0.674915 1.335727,-1.830114 1.319093,-2.597355 -0.0045,-0.213427 -0.231456,-0.826655 -0.172992,-0.620132 0.328849,1.161724 -1.300429,10.580571 3.373419,7.51346 m -17.818595,-5.59915 c 4.307957,-1.09108 8.904328,-1.886185 13.385575,-2.013176 M 18.119373,7.002122 c -0.0067,6.593363 1.904374,12.969145 2.184079,19.556575 M 15.708244,10.46227 C 15.910434,8.9288826 13.906288,8.4430584 12.605128,9.0692191 11.639691,9.5338219 10.656993,10.203238 9.8480019,10.875686 -0.55322702,19.521429 16.08913,18.657555 15.448746,21.319043 14.761194,24.176587 7.6218095,26.549781 7.912609,21.957144"
       sodipodi:nodetypes="cccccccssccccsccccscccccccccccccsccsscccccccscscccccccccssccccscsccccccccsccssccssccccccsscccccssscccccssccccccccccscccccccsccccsssccccccscccssccccccssccccccccccssssccccscccccsssccssccccccsscsscccccccsccsssccssccssccsssssccsssccsscsccccssssccccsccccccccccccsccccccccccsscccsccccsccccsssscccsscccccsssccsssccsssccsccccsccsccsccccsccccccssccccsccsccsscccccccccccccccccccssccssccsccsssccssssccssccsssccssssccssccsccccsscccccccccccc" />
  </g>
</svg>
