<?xml version="1.0" encoding="UTF-8" standalone="no"?>
<!-- Created with Inkscape (http://www.inkscape.org/) -->

<svg
   version="1.1"
   id="svg11576"
   width="2730.6667"
   height="1340"
   viewBox="0 0 2730.6667 1340"
   sodipodi:docname="WilF - Stake - Envelope23.svg"
   inkscape:version="1.2.1 (9c6d41e410, 2022-07-14)"
   xmlns:inkscape="http://www.inkscape.org/namespaces/inkscape"
   xmlns:sodipodi="http://sodipodi.sourceforge.net/DTD/sodipodi-0.dtd"
   xmlns="http://www.w3.org/2000/svg"
   xmlns:svg="http://www.w3.org/2000/svg">
  <defs
     id="defs11580" />
  <sodipodi:namedview
     id="namedview11578"
     pagecolor="#ffffff"
     bordercolor="#000000"
     borderopacity="0.25"
     inkscape:showpageshadow="2"
     inkscape:pageopacity="0.0"
     inkscape:pagecheckerboard="0"
     inkscape:deskcolor="#d1d1d1"
     showgrid="false"
     inkscape:zoom="0.2770381"
     inkscape:cx="1256.1449"
     inkscape:cy="806.74824"
     inkscape:window-width="1920"
     inkscape:window-height="1051"
     inkscape:window-x="-9"
     inkscape:window-y="-9"
     inkscape:window-maximized="1"
     inkscape:current-layer="g11582" />
  <g
     inkscape:groupmode="layer"
     inkscape:label="Image"
     id="g11582">
    <path
       id="path12005"
       style="fill:none;stroke:#787475;stroke-width:1.02265"
       d="m 530.07143,482.97624 c -12.63176,17.36595 11.77335,12.49197 3.3551,4.91957 -2.67363,-2.40501 -6.14778,-3.68094 -9.67748,-3.68094 m -3.14182,-4.25663 c 0.33978,7.33081 -1.45647,15.10905 0.0582,22.34731 m -6.51634,-17.20099 c -7.42246,13.59872 -3.10445,12.3169 9.46419,7.29211 m -22.1671,-7.13508 c 11.13536,-11.97439 4.27594,15.51856 -1.92001,12.33375 -1.07517,-0.55265 -0.4108,-5.6459 1.88121,-5.23357 4.59262,0.82623 2.64471,6.70523 9.32843,3.03548 m -23.29196,-12.90946 c -1.40442,2.08241 -3.16779,4.41193 -2.94785,7.08275 0.18004,2.18639 6.99641,3.62243 5.87633,7.20489 -0.60846,1.94598 -6.75553,0.24524 -7.75754,-0.0349 -0.82515,-0.2307 -1.54962,-0.77571 -2.19149,-1.34328 m -9.48354,-8.00734 c 6.56389,-3.4861 14.10764,-4.1068 21.08102,-6.05349 m -22.65195,-0.38381 c 13.81813,-1.66692 8.94032,6.90871 9.7551,18.19536 m -44.76237,-17.3582 c -2.65925,6.26548 -4.55744,12.8425 -6.74904,19.29441 m -1.99756,-16.60783 c 5.22969,3.71304 7.29022,9.89234 11.22899,14.72374 m -21.29436,-13.45024 c 3.90197,-2.09466 8.51958,-1.31774 12.62536,-2.52955 m -9.92965,-2.19812 c -0.52204,8.39082 2.5615,16.49185 2.8703,24.82453 m -29.84662,-6.03924 c 0.83733,3.06149 0.1157,6.18488 -0.0193,9.26339 m -14.68123,-19.3816 c -10.01606,1.95142 5.37583,11.62737 4.49937,15.70069 -1.07151,4.97994 -7.43309,3.21457 -8.55266,-0.43614 m -6.53572,-13.27579 c -5.95462,-3.61296 -7.14901,11.66956 -4.16964,11.98484 4.905,0.51907 3.84847,-11.21174 4.36358,-9.82165 0.89624,2.41854 -2.04092,12.63016 3.76242,8.96684 m -17.53198,-17.54987 c 1.01696,6.55479 1.90955,13.10549 4.82903,19.06759 m -11.73324,-21.37036 c 1.61405,6.9657 1.57938,14.88649 4.24726,21.50995 m -10.22056,-8.54816 c -3.13096,1.32514 -10.92915,6.87867 -9.98779,11.11257 1.09198,4.91135 8.40787,-9.0262 8.55266,-9.4553 2.08029,-6.16415 0.1845,14.71133 6.67148,6.33262 m -25.34769,4.44853 c -1.02217,-6.43624 -2.67765,-13.71669 -3.60724,-20.44577 11.76726,-2.56333 15.71648,17.33896 5.95388,22.48686 m 18.18995,-60.80798 c -0.31255,2.28622 -0.46536,4.74609 -0.19397,7.0653 2.48043,21.1965 14.62045,-7.24131 4.49937,-7.50143 -2.31417,-0.0595 -4.55142,2.16614 -5.66298,3.96006 m -20.15014,-5.04167 c 1.68623,-0.17685 3.23007,-0.13393 4.82903,0.36635 7.17753,2.24569 -2.79873,16.14201 -2.19149,13.52004 0.32263,-1.39294 7.24713,-9.83097 7.77692,-6.0186 0.48054,3.45815 -2.40302,10.20546 -2.61816,11.1126 m -12.00476,-17.32309 c 0.18866,6.45727 0.8352,12.86899 2.1527,19.18972 m 17.45442,-19.18972 c 0.1201,5.46495 0.47625,10.95525 1.35755,16.34615 m 18.92835,-19.90497 c 0.25116,6.94213 1.56694,13.83496 2.63757,20.67255 m 34.59904,-23.12422 c 7.54504,-5.55373 10.45772,11.99518 1.35758,13.58982 m -4.18905,-15.99725 c 2.23705,6.57507 3.36055,14.91302 5.62418,20.77723 m 7.77692,-13.25835 c 0.7544,2.18616 1.30807,4.48607 1.72604,6.76874 2.93202,16.01289 -3.96583,-15.9742 4.13088,-6.64662 m 0.35776,2.54107 c 1.88196,-0.39915 3.664,-0.9771 5.23635,-2.12832 9.2823,-6.79624 -8.38493,2.68598 0.0193,7.11765 4.22389,2.22728 15.15612,-8.80015 12.1987,-11.79296 -2.93642,-2.97157 -5.95994,3.49931 -4.84845,5.94881 1.62041,3.57111 9.24669,1.47766 8.20355,6.43728 -0.65469,3.11291 -5.67147,4.20198 -7.21446,2.23299 m 5.68246,-10.50202 c 4.40785,0.15335 8.58783,-1.58295 12.91627,-1.76196 m -9.67751,-8.89705 c 0.63575,6.94447 2.44306,14.71533 4.38302,20.86446 m 7.87388,-12.97923 c -13.29879,19.39485 13.1679,13.83422 -1.92,0.48846 m 7.19511,2.49467 c -0.0577,2.01281 0.01,4.01332 0.15514,6.01859 0.66423,9.16171 2.87392,-17.63727 6.14782,-10.345 1.00339,2.23494 1.69908,4.99824 1.78424,7.4491 0.0729,2.09868 0.17743,4.2595 0.83392,6.22794 m 25.53763,-19.57727 c 2.18517,1.116 2.49806,3.91822 2.92844,6.15816 5.01935,26.12269 -4.68502,-12.59701 5.3527,-9.21107 4.82997,1.62926 -3.68538,15.4597 -4.55755,13.69448 -2.151,-4.35348 8.19273,2.7034 12.74171,-2.00619 m -0.42666,-9.01917 c 0.59246,2.04297 0.99311,4.13522 1.45455,6.21049 4.64277,20.88154 -3.97324,-11.4005 4.90661,-8.68772 1.67351,0.51126 2.65053,2.21203 3.23876,3.73328 2.69091,6.95903 -0.19414,15.71784 -7.52478,17.74177 m 44.0239,-23.91737 c -21.1957,7.82148 1.04727,10.25371 1.04727,13.48514 0,2.75173 -10.15399,7.19916 -9.34781,-0.50591 m 9.88703,-15.25249 c 2.87893,6.13653 2.84257,13.23213 4.86786,19.60841 m -8.92115,-17.0963 c 4.91227,-0.3599 9.66107,1.03098 14.52595,1.29094 m -1.78424,-1.2735 c 3.6596,-1.80072 7.21551,-3.84491 11.30658,-4.32641 m -10.68598,8.42604 c 2.87794,-1.64247 6.13087,-0.96403 9.25084,-1.41307 m -7.73812,-4.46597 c 5.90765,15.90032 -3.8742,18.14839 10.82174,12.31631 m 13.04123,-17.08225 c 2.67488,7.0708 3.73351,14.98369 4.15026,22.55664 m 3.45211,-20.14921 c 0.17516,5.8783 0.72751,12.0169 2.34666,17.68944 m 3.7236,-16.59039 c -1.93546,32.47374 21.98038,-2.47149 -2.63757,0.29657 m 22.18652,5.37312 c 3.26216,-1.14932 5.99267,-3.54636 9.40598,-4.20429 m 12.02415,-4.08218 c -6.38068,5.57388 10.64404,17.18202 0.67877,18.7187 -3.00985,0.46414 -5.03477,-3.03118 -6.59389,-4.98932 m 0.54304,-11.68829 c 5.88803,0.55871 11.8806,-0.26168 17.70654,-0.26168 m 0.93088,-0.45357 c -11.66465,20.39295 11.76337,10.47417 2.69574,3.55882 -2.56204,-1.95394 -2.98614,-3.5442 -5.11996,-3.43671 m 11.19022,-1.8143 c 10.83311,-6.6697 5.94925,16.56434 2.44361,14.46208 -1.89931,-1.13899 0.16995,-3.22933 1.47392,-3.40182 2.43775,-0.32248 4.69202,-0.44609 6.49693,-2.14576 m 1.68727,-10.7288 c 8.39536,-0.24054 9.63872,-4.10296 9.63872,4.95444 0,5.86407 -0.6964,11.12069 -2.09456,16.81717 M 550.16758,397.58001 c -1.61023,-1.95964 -4.33124,-1.8776 -6.26419,-0.24423 -10.44355,8.82489 6.95308,25.40236 6.26419,0.24423 -0.065,-2.37429 1.57052,-9.42075 -0.79515,-11.54873 -0.23375,-0.21028 0.30345,4.39521 0.91153,8.19925 0.82908,5.18656 1.14254,10.58859 2.34664,15.91003 m -25.61922,-10.10078 c 2.21443,0.385 4.651,0.51781 6.8848,0.0872 1.33563,-0.25744 4.97582,-1.24604 3.97574,-3.45415 -3.3919,-7.48905 -16.16301,22.66951 6.18661,7.20487 1.50078,-1.03844 3.09514,-1.95092 4.65451,-2.89591 m -33.29913,-0.5059 c 3.09271,-0.0124 6.10192,-0.98572 9.03753,-1.88409 m -5.13939,-10.64157 c 2.32865,7.91658 3.08643,17.03998 3.78181,24.75474 m -7.91268,-20.95169 c -1.48956,-0.85574 -0.76282,0.52336 -1.14423,0.78504 m 1.27999,7.55377 c 1.51789,3.88854 1.59095,8.57949 3.52969,12.10697 m -22.86529,-11.88018 c 0.26114,1.90258 0.88813,3.71239 1.41575,5.54757 2.38435,8.29314 -2.3213,-7.22466 4.67389,-6.00115 3.46692,0.60639 2.22717,10.26897 2.5406,9.14129 0.26517,-0.95411 1.60587,-9.61735 2.96723,-8.94939 2.8772,1.41169 -0.47151,16.6165 6.22541,9.22851 m -22.34038,-13.99378 c -0.79299,-0.28168 -1.59579,-0.55519 -2.38543,-0.83737 m -12.21811,17.32309 c 3.50446,-0.41032 11.07953,1.81158 13.12961,-2.33766 0.84488,-1.70999 -0.44607,-7.61191 -0.44607,-5.70458 0,3.59745 3.26645,7.6888 3.83997,11.1126 m -16.91138,-23.55103 c 1.10706,7.79101 3.56324,15.58189 4.84844,23.35913 m -41.26998,-10.81603 c -13.46665,4.83518 20.61046,22.20818 -6.90417,18.92805 m -11.6999,-12.83912 c -0.69277,1.69979 -1.71413,3.11835 0.58181,3.48903 1.31158,0.21176 10.56966,-1.50605 7.1757,-3.9775 -8.06217,-5.87078 -6.62789,21.16639 3.99511,7.83289 m -17.35742,-11.46146 c -7.23776,7.31647 0.72426,22.1461 10.06538,11.98485 m -18.38531,-19.20717 c 3.00271,7.74344 3.66187,16.72862 6.88476,24.26628 m -27.7137,-10.29267 c 1.97368,-0.50711 3.95493,-1.13961 5.99267,-1.34328 16.99634,-1.69874 3.44727,-0.80499 2.69575,8.32136 -0.0926,1.12445 0.0835,2.34722 1.2024,2.91335 4.6056,2.33036 6.47356,-14.66829 6.94297,-12.97923 1.17856,4.24047 1.26555,8.79125 3.97574,12.42098 m -19.58041,-25.8495 c 1.38589,9.26244 5.39251,18.61844 5.27511,28.017 m -8.82418,-17.60221 c -21.22574,7.51463 3.99515,10.98718 3.99515,15.42156 0,3.87045 -9.92235,3.3612 -10.45328,-1.48284 m -14.83624,-13.29324 c 0.31035,2.1953 0.82096,4.35668 1.27999,6.5245 0.48921,2.3102 0.34928,4.7331 0.75637,7.08275 4.74014,27.35995 -6.31023,-13.44087 1.06664,-15.94491 7.19467,-2.44218 4.25842,15.77208 -0.17452,17.89878 m -14.31264,-6.61173 c 0.004,0.19528 1.3104,1.80897 3.25817,0.3489 3.36102,-2.51944 2.24283,-10.05028 0.5818,-7.50144 -2.50695,3.84691 -0.17323,15.41894 5.37208,13.67704 m -20.03379,-5.00677 c 2.34866,0.41712 3.96278,-0.62927 5.46908,-2.33766 2.57229,-2.91746 0.0731,-8.74875 -1.06668,-5.23356 -1.5206,4.68964 -1.3312,16.65435 5.9733,10.20544 m -25.34769,-8.82727 c 0.24389,1.90474 0.73586,3.77468 1.14423,5.65225 0.13376,0.615 2.48104,9.59909 2.98664,9.10639 1.99841,-1.9474 1.38626,-6.53344 1.92001,-9.05406 0.0203,-0.0951 0.72213,-3.69838 0.65936,-3.69838 -0.0935,0 3.0598,14.44084 4.46057,13.4328 2.48141,-1.78566 0.68598,-14.38409 0.7176,-17.34053 m -19.41319,-3.68094 c -1.59379,1.01792 -2.9836,2.28259 -4.38302,3.54138 -17.97041,16.16485 10.42714,14.29782 10.58901,18.66637 0.14378,3.87998 -12.37021,9.57839 -11.55869,2.82612 M 228.77192,274.9159 c 1.79485,0.16693 6.57626,-0.62115 7.05934,2.05854 0.86427,4.7942 -4.43206,8.97711 -4.383,8.84472 0.35036,-0.94548 1.65981,-2.12445 2.54059,-2.547 6.17019,-2.96014 3.513,21.98511 -7.93206,4.48342 m -1.2606,-10.5718 c 0.46888,5.36549 -0.3103,11.5628 -0.3103,16.48572 M 209.4751,280.81238 c 6.22479,-9.63214 10.84433,9.85574 2.46301,11.94997 -1.84567,0.46117 -0.57135,-2.88509 0.44606,-3.33204 3.46316,-1.52138 6.78702,3.53901 8.97932,-1.88408 m -24.0289,-9.29829 c 2.8176,-0.3257 5.76663,-0.20996 8.53326,-0.15701 m -5.23632,-1.57007 c -11.01569,5.45032 7.28572,18.66562 -2.57937,18.89316 -2.08578,0.0481 -3.38554,-0.44973 -4.6933,-1.8143 m -4.30542,-16.64273 c 2.43352,6.85192 2.10465,14.63123 1.5515,21.59717 m -5.91511,-20.34111 c -3.71379,8.45748 -6.95951,20.48225 6.76844,10.11822 m -26.8798,-12.9269 c 0.43989,4.9214 1.66371,9.83938 3.19998,14.49696 m -7.97085,-4.83232 c 3.52366,-1.98432 7.38527,-3.31145 10.97689,-5.11144 m -9.85205,-3.40182 c -0.95248,6.28514 -2.02951,13.69802 0.93091,19.34673 m -9.28963,-16.25893 c -1.83858,0.6934 -3.97086,1.36069 -4.86784,3.29715 -2.25155,4.86077 2.42181,12.87781 6.92358,6.80363 3.67277,-4.95562 -1.7725,-11.81022 -7.00116,-8.80983 m -8.87356,7.02701 c -2.81521,2.61378 -4.91398,5.7673 -6.69086,9.12384 m -18.61804,-24.03949 c -0.6689,0.13272 -1.24251,-0.32103 -1.82302,-0.47102 m -11.01567,10.67646 c 5.64465,3.88441 9.77595,-5.71663 10.56962,1.34329 0.41218,3.66651 1.31038,7.32214 1.59029,10.97303 m -9.03751,-25.10365 c 0.79528,8.30619 0.62646,16.73327 1.41575,25.01642 m -7.039953,-12.43843 c -3.88948,-8.59197 -13.30984,1.4564 -10.97688,7.51889 2.65011,6.88666 9.97118,-9.05407 9.89083,-9.05407 -0.57375,0 -0.44957,7.50294 1.18302,8.42604 2.028833,1.14713 5.336593,-1.62793 6.787833,-2.75634 m -29.721353,-5.80531 c -0.0398,1.72277 -0.21532,3.45446 -0.11636,5.18123 0.94364,16.46738 0.6083,-10.38147 5.79874,-8.75749 5.61488,1.75677 -0.11744,12.97826 9.30902,9.71697 m -32.25188,-6.57684 c -0.20005,2.22957 0.56243,4.35746 0.56243,6.57684 0,20.42838 2.04376,-18.48453 5.87631,-3.40181 0.90547,3.5634 0.30497,11.12167 5.33329,7.39677 m -17.68713,-19.36418 c -1.60442,0.32435 -2.58564,0.51284 -3.83997,1.51773 m -3.93694,9.17618 c -8.89755,-4.0848 -8.5044,16.35506 1.06666,8.5656 3.18809,-2.59465 4.6739,-6.02818 4.6739,-10.11822 0,-0.48334 -0.0503,0.96538 -0.0776,1.44795 -0.21229,3.75538 -0.2024,6.46784 2.23028,9.38552 m -24.63011,-0.43613 c 0.28785,-1.83743 0.59945,-3.71327 1.14423,-5.49524 3.15237,-10.31138 3.06785,6.48058 4.80966,7.16998 1.54951,0.61328 3.41208,-1.31132 4.59633,-1.95386 m -14.44834,-16.79973 c -1.00385,0.0398 -2.00526,-0.0475 -3.00604,-0.10468 m -2.24968,2.14576 c -1.11945,-12.70016 -17.51863038,4.34708 -10.6859804,12.85712 2.8368804,3.53332 7.9384004,2.48932 11.0350704,-0.12212 1.73929,-1.46676 2.78054,-8.63951 2.36604,-6.40239 -0.56074,3.02639 0.68471,6.30542 1.45454,9.14129 M 8.3160466,243.59195 c 4.1168904,-9.61603 9.4853104,-0.91185 6.9623804,5.89648 -0.84568,2.28213 -2.78395,7.16114 -5.23633,8.19925 -2.5083504,1.0618 -2.7937104,-3.86547 -2.6569504,-3.68094 3.9750804,5.36351 9.4179704,1.95419 13.7114104,-1.60496 m 5.50784,-12.03719 c -2.42285,0.56384 -5.26121,2.64474 -6.16723,5.16378 -3.22992,8.98032 11.57591,2.95439 11.01568,9.00172 -0.18523,1.99936 -7.1977,6.48118 -8.33933,3.6286 -1.68071,-4.19954 3.64703,-12.695 5.19753,-16.38104 m 9.73568,0.99438 c -1.83179,0.4771 -2.90421,1.85961 -3.78178,3.54137 -5.48371,10.50887 8.23236,10.28331 5.10056,3.61116 -0.92017,-1.96039 -2.53221,-2.98131 -4.28603,-3.26225 m 7.87367,-8.80193 c 3.19572,-0.0444 6.20923,0.24948 9.15387,1.50029 m -4.40239,2.16321 c -9.79943,3.44862 1.60706,8.26403 2.59877,12.97923 0.98869,4.70089 -4.13668,5.73471 -6.76844,3.2797 m 40.40996,-13.59629 c -3.86686,-10.75297 -13.17039,15.82316 -0.85333,13.60726 2.86679,-0.51575 5.61691,-3.46502 6.76844,-5.80926 m 0.63999,-4.04728 c -7.41388,9.8482 14.593943,7.36065 3.52967,-1.09905 -1.66958,-1.27655 -3.13201,-0.94923 -4.79027,0 m 10.2551,-0.0608 c 0.27196,-1.17911 0.698183,10.81306 0.698183,9.75186 0,-2.50231 0.8206,-5.38839 1.27999,-7.86778 0.98549,-5.31884 2.58646,-0.36412 5.97328,-0.48847 3.57155,-0.13113 7.30117,-2.4995 10.74417,-3.38437 m -7.35025,-10.20544 c 2.10941,7.27899 2.96725,15.05374 2.96725,22.66132 m 4.26663,-6.87341 c 2.28011,0.6594 3.93995,0.61966 5.91511,-0.68037 6.45086,-4.24588 -6.17131,-6.37524 -3.51028,3.54138 1.37756,5.13363 7.4895,2.84689 9.54175,-0.62803 m 1.53211,-17.89878 c 0.22752,7.08557 0.7308,16.31158 2.69573,22.39964 m 5.51115,-9.15675 c 4.94414,10.32583 15.40788,-0.21837 10.45325,-3.40182 -1.38801,-0.89182 -2.79673,17.79778 -2.83149,18.68382 m 9.48356,-17.54988 c -2.12824,0.92493 -3.11681,2.89117 -3.4327,5.12889 -1.13627,8.04904 10.99565,1.75648 4.88723,-2.32021 -2.17888,-1.45416 -3.49614,-1.95386 -6.18661,-1.95386 m 9.14523,-3.31404 c 1.87136,-0.45378 0.87248,13.57252 1.76484,12.97923 4.24255,-2.82073 5.85817,-15.33141 6.63267,-13.52004 1.59946,3.74075 -0.59217,12.89231 4.77087,13.90383 m 26.43635,-23.09132 c 0.18285,2.11591 0.5191,4.22006 0.71757,6.33261 0.24302,2.58681 0.65638,5.04776 1.10545,7.60611 0.34618,1.97218 1.0794,7.93604 0.83393,5.94882 -0.73935,-5.98558 -2.92354,-16.35059 2.26907,-21.02147 3.88496,-3.49462 7.20802,6.84434 -3.35512,12.7001 m 8.49448,-11.40916 c 3.29289,10.74933 -3.74561,21.66553 10.16234,15.31689 m 9.79249,-4.28764 c 0.52053,0.21806 1.07797,0.38553 1.60969,0.5757 m -5.46905,-55.14429 c 1.77549,8.02479 2.35651,15.98163 1.41574,24.12671 m -3.49088,-11.67084 c 3.1544,1.06384 6.68142,-0.28678 9.79386,-1.04671 m -12.72232,-8.75749 c -6.28206,0.43468 1.18458,-0.39798 -1.60969,0.5408 m 0.42667,8.68771 c -0.29134,4.12983 0.016,8.1445 1.37696,12.07208 m -9.92962,-12.5431 c -2.71017,-0.0486 -5.04424,1.44172 -7.02055,3.17503 -2.536,2.22416 -2.88773,11.06798 1.70665,7.78056 3.82427,-2.73639 13.78839,-22.83349 6.45813,-21.59717 -1.19006,0.20072 -3.24828,25.66229 3.85936,19.95732 m -32.78323,-10.54499 c -0.41812,2.95501 1.67439,12.94992 1.70666,12.80477 0.82064,-3.69091 -2.17308,-10.58836 1.41575,-13.8166 0.70236,-0.63179 0.2332,1.89575 0.58181,2.77379 0.56405,1.42065 1.77927,2.56937 3.37452,2.39 2.48991,-0.27997 8.14402,-6.07499 6.26419,-5.65225 -3.95862,0.89022 -11.03802,20.03587 3.1224,8.94939 M 181.11117,192.0039 c -0.58202,1.43362 -1.39201,2.77756 -1.8618,4.25662 -0.41997,1.32221 -1.43817,5.35921 -1.10545,4.0124 2.15468,-8.72184 -9.05169,-3.03387 -10.04598,2.84357 -2.17428,12.85252 11.42062,10.2558 16.93078,3.50649 m -58.30573,-9.33734 c 0.47029,2.40761 0.35111,4.90802 0.83393,7.30953 0.25926,1.28952 0.44204,2.56526 0.58182,3.87284 2.05254,19.20167 5.99481,-3.7884 7.97085,-2.86101 3.5263,1.65495 2.47082,10.17533 3.7236,12.80478 m -15.04958,-10.39734 c 4.57615,-5.85763 -6.92948,-2.43593 -4.3636,2.37254 0.84377,1.58124 9.15119,4.67335 8.126,6.35006 -2.18777,3.5781 -8.98075,3.3298 -7.29207,-1.79686 m -4.34421,-8.98428 c -0.27379,5.69446 -2.67729,9.21318 3.83997,10.71136 m -5.64359,-9.55998 c -1.89311,0.37513 -2.74366,2.08291 -3.76239,3.57627 -3.01159,4.41466 -0.64888,10.8772 4.11148,4.91955 1.54515,-1.93378 3.43465,-12.67293 -0.34909,-8.49582 z m -8.14539,-10.17055 c -0.80348,1.25537 -1.41518,2.61478 -1.82302,4.04729 -0.37363,1.31236 -1.19664,5.22888 -0.48484,4.06473 3.88024,-6.34613 -8.409393,-5.65902 -11.093253,2.51211 -4.4072,13.41792 10.721523,9.9739 17.221693,5.18122 m -57.376423,0.13432 c 8.11801,4.47252 6.7172,-6.62423 3.41331,-0.68036 -1.18444,2.13087 -1.63069,4.85384 -1.02787,7.23976 1.65819,6.56295 7.71725,0.81451 8.86296,-2.87846 m -15.68957,-8.51326 c -1.14541,12.39562 -10.0572,2.24207 -1.60969,9.62975 2.52859,2.21135 5.36702,2.87607 8.51387,2.38999 m -14.91382,-20.23643 c 0.46183,7.40945 2.04072,14.54091 3.99512,21.64949 m -27.96584,-10.04843 c 2.73727,-0.0592 5.45621,-0.0316 8.16478,0.24423 14.93455,1.52083 9.39697,-3.52744 5.79874,-0.99438 -2.13373,1.50211 -6.22212,8.18315 -1.06665,8.80983 5.08426,0.61803 6.16722,-13.63025 6.16722,-9.15873 0,2.68591 1.43587,20.00417 6.12844,11.4615 m -21.79862,-23.44636 c 0.42048,8.08234 2.03938,16.68475 2.24968,24.44074 m -3.23876,-20.20155 c -4.65347,-5.66727 -18.0870404,5.03244 -12.5865704,10.31011 2.26898,2.17708 11.2082504,2.57517 11.9077804,6.03604 0.6562,3.24647 -13.2564004,7.39413 -9.0956804,0.40124" />
  </g>
</svg>
