<?xml version="1.0" encoding="UTF-8" standalone="no"?>
<!-- Created with Inkscape (http://www.inkscape.org/) -->

<svg
   version="1.1"
   id="svg10215"
   width="2730.6667"
   height="1229.3333"
   viewBox="0 0 2730.6667 1229.3333"
   sodipodi:docname="WilF - Stake - Envelope20.svg"
   inkscape:version="1.2.1 (9c6d41e410, 2022-07-14)"
   xmlns:inkscape="http://www.inkscape.org/namespaces/inkscape"
   xmlns:sodipodi="http://sodipodi.sourceforge.net/DTD/sodipodi-0.dtd"
   xmlns="http://www.w3.org/2000/svg"
   xmlns:svg="http://www.w3.org/2000/svg">
  <defs
     id="defs10219" />
  <sodipodi:namedview
     id="namedview10217"
     pagecolor="#ffffff"
     bordercolor="#000000"
     borderopacity="0.25"
     inkscape:showpageshadow="2"
     inkscape:pageopacity="0.0"
     inkscape:pagecheckerboard="0"
     inkscape:deskcolor="#d1d1d1"
     showgrid="false"
     inkscape:zoom="0.30197756"
     inkscape:cx="1192.1416"
     inkscape:cy="435.46282"
     inkscape:window-width="1920"
     inkscape:window-height="1051"
     inkscape:window-x="-9"
     inkscape:window-y="-9"
     inkscape:window-maximized="1"
     inkscape:current-layer="g10221" />
  <g
     inkscape:groupmode="layer"
     inkscape:label="Image"
     id="g10221">
    <path
       id="path10652"
       style="fill:none;stroke:#787475;stroke-width:1.21564"
       d="m 512.82759,441.89045 c -1.20264,2.45774 -2.26401,4.91724 -2.67699,7.65449 -3.39717,22.51673 16.14893,2.61233 5.48854,-3.72635 -2.11673,-1.25861 -6.50539,-0.83721 -8.53939,0.14798 m -3.46958,-5.51554 c -0.053,8.87702 -3.45945,19.05425 -2.03392,27.24136 m -4.80059,-23.15179 c -1.48086,2.92119 -3.01149,5.82658 -4.27718,8.85176 -0.20074,0.47988 -3.07019,5.29634 -2.64703,5.67696 0.42645,0.38361 15.11173,-3.57593 16.24128,-5.12541 m -28.11565,-7.9908 c 0.99096,-1.74019 4.40325,-5.66399 6.81951,-4.52005 5.78308,2.73791 1.25946,17.12461 -3.96309,18.41651 -3.23994,0.80146 -2.8407,-3.97395 -0.92724,-5.21958 3.60616,-2.3475 8.83775,0.59139 12.667,1.03585 m -36.62513,-12.51085 c 4.24377,-0.39026 8.54076,-0.32262 12.72683,0.43048 m -6.93916,-2.95956 c -9.51613,7.55739 4.90995,17.13094 3.96309,21.38952 -0.77615,3.49093 -11.41447,-4.83408 -11.9641,-5.56935 M 445.35,451.95294 c 3.39818,0.18872 6.71635,-0.53855 9.94515,-1.50668 m -13.89329,-7.07603 c 11.65783,-2.38363 10.89137,-7.3983 9.45164,6.73971 -0.51474,5.05441 -0.63098,13.35196 -1.60023,16.97709 m -40.60201,-21.45305 c -5.10576,7.57319 -5.51347,18.39738 -13.33995,23.64954 m 0.80755,-22.70786 c 1.51607,2.76157 8.99101,17.87103 13.33999,11.13869 m -28.59421,-9.28224 c 4.24011,-0.30887 8.58728,-1.10191 12.84644,-0.99549 m -5.14455,-0.22869 c -0.51607,7.41012 -0.17947,14.90243 -0.17947,22.27738 m -24.09048,-2.09292 c -0.68855,4.14557 -2.94773,7.9286 -5.45863,11.23286 m -11.62012,-24.60467 c 0.31143,-1.22558 1.16984,-2.98057 0.55334,-4.23754 -1.40965,-2.87422 -4.4878,3.41282 -4.66599,4.46623 -0.76361,4.51385 6.35266,9.33186 4.33696,12.69919 -2.92188,4.88116 -11.3224,1.20306 -11.78464,-3.41695 m -1.10667,-7.9908 c -1.91298,-10.50749 -16.46643,7.98567 -10.45366,12.79336 3.05262,2.44079 7.96403,-7.55795 8.95813,-9.14772 0.69642,-1.11367 1.41456,-4.95662 1.49553,-3.64564 0.0891,1.4426 -5.92697,17.83402 3.76871,10.35845 m -19.17249,-18.34924 c 1.32499,7.13394 -3.03766,16.45971 0.50847,23.09798 m -7.35793,-25.12931 c 0.0322,3.47026 -3.61288,25.9214 1.13658,26.42075 m -9.78067,-13.6005 c -7.66419,-6.75936 -18.68409,14.10945 -11.75472,14.4211 5.04818,0.22705 8.62808,-6.53301 10.60318,-10.31808 1.50233,-2.87899 1.61518,-6.24353 1.61518,-6.20161 0,1.24883 -3.49427,26.2327 5.47355,10.29118 m -36.53538,-14.79778 c 15.93155,-12.57073 21.00833,13.52586 7.76171,21.51059 m -2.73679,-24.96789 c -2.68002,9.1187 3.094,19.9533 -0.0598,28.80185 m -8.45966,-72.07304 c 2.29526,9.73009 2.19727,19.96205 3.55932,29.85114 m 3.48455,-24.33561 c 14.74376,-6.69715 0.71397,14.40912 0.53839,12.04001 -0.50561,-6.82204 18.94049,-11.81715 8.22532,3.95504 -0.80334,1.18247 -2.28813,2.70664 -3.02094,3.49766 m 15.65803,-23.13834 c -0.7927,4.87174 -3.59982,11.44928 -1.80957,16.34481 m 9.33199,-17.07125 c -1.08327,1.64245 -1.43048,3.46142 -1.61514,5.38101 -0.15648,1.62644 -0.2559,3.49978 -0.0149,5.12541 2.44891,16.52128 10.4644,-7.66973 4.06779,-8.79795 -2.04364,-0.36046 -2.39531,0.14433 -3.61914,1.88336 m 15.94212,-8.69034 c -0.70129,7.49636 0.30965,14.98982 0.20934,22.47917 m 27.06727,-19.60989 c 3.43324,-14.89279 22.02706,-3.56259 12.81653,7.92354 -1.24574,1.55355 -3.62771,2.87458 -5.51841,2.73086 m -1.71988,-14.03098 c -2.20599,7.97317 0.8006,18.32892 -2.37786,25.68086 m 16.26717,-20.55766 c 0.37105,1.50722 0.44908,3.04717 0.55333,4.58731 1.2952,19.14035 -1.65422,-2.30126 4.50148,-5.82494 1.44773,-0.82872 3.3049,0.20625 4.8006,0.34976 m -1.09172,3.90124 c 2.32399,0.13428 4.95418,-0.3324 6.83451,-1.81609 8.64843,-6.82412 -1.13288,-10.4811 -2.81159,3.78016 -0.88257,7.49803 3.79058,13.49229 9.15255,4.57385 m 7.98606,-14.11169 c -1.1238,-0.28199 -2.5924,-0.63729 -3.73879,-0.2287 -1.5189,0.54136 -2.04132,2.40611 -2.49752,3.7398 -2.5218,7.37238 15.40523,14.69034 -0.29908,12.71264 -1.83229,-0.23075 -3.66333,-0.83089 -5.47359,-1.19727 m 15.17944,-10.60059 c 3.30157,-0.4475 6.65367,-0.52297 9.9751,-0.63227 m -3.60419,-14.63635 c -2.59626,9.51702 -2.43918,21.13965 -2.60221,30.01258 m 10.45579,-17.97257 c -2.20788,1.72766 -4.09468,4.12256 -4.87538,6.84734 -2.20627,7.70012 7.18011,5.09204 9.2273,-0.37668 2.42189,-6.4696 -4.84459,-10.84152 -8.98804,-4.816 m 13.96811,0.95513 c 0.0728,1.78941 -0.44213,3.51336 -0.73281,5.25994 -3.65959,21.98994 6.90029,-25.8196 9.37689,1.74883 0.12255,1.36431 0.0338,2.9485 -0.0897,4.19718 M 466.1621,398.0419 c 0.55904,1.85132 -0.67833,22.11162 -1.37589,22.42536 -0.0113,0.005 -0.0449,-1.22077 -0.0449,-1.39907 0,-3.05427 0.62815,-6.23613 1.27119,-9.21497 1.08818,-5.0411 2.55058,-13.75114 8.09074,-15.90089 8.07431,-3.13308 -1.82846,15.44932 -3.57427,13.25074 -0.18687,-0.23531 0.66269,-0.73295 0.79259,-0.82061 1.85686,-1.2527 4.82887,4.75625 6.96912,5.09851 2.90262,0.46417 4.80896,-2.56963 6.04188,-4.5335 m 2.62155,-5.49862 c 4.24826,-17.64526 16.21639,10.80686 -4.92025,13.18348 m 5.24924,-17.62281 c -0.24288,5.99628 -0.27524,15.10351 -0.55334,19.50616 m 57.74179,-20.47458 c 3.70064,-1.42352 7.57661,-1.73618 11.48555,-1.99097 m -10.9023,8.46163 c 2.87946,-0.5057 5.81609,-0.59625 8.73382,-0.88787 m -23.35996,-7.43924 c 5.52223,-0.31514 11.01556,-2.95097 16.49554,-3.01336 0.85258,2.69431 -2.77967,20.10059 -2.333,20.31331 1.5197,0.7237 6.20684,-2.63668 7.29811,-3.16135 m -16.86939,-15.60492 c -0.24771,6.39771 0.67278,14.49601 -1.54041,20.0039 m -3.55932,-18.41651 c 2.81739,-1.76861 1.08549,-4.5122 -1.74974,-3.56492 -5.6365,1.88321 -10.254,12.69597 -4.36691,16.66768 0.61971,0.41808 4.63338,1.58905 3.72383,3.13444 -2.47604,4.20709 -14.62774,2.92002 -8.83847,-2.20622 m 152.55003,-24.75485 c -1.8632,6.0383 5.70448,1.57493 7.56732,2.71741 2.46222,1.51013 -3.5567,19.11828 -4.92024,21.68547 m -15.7029,-16.78875 c 0.22892,-2.33209 2.95528,-6.83712 5.90727,-6.51102 6.39435,0.70637 -2.04698,21.33724 -5.38385,19.64068 -3.86411,-1.96461 2.63739,-4.85272 4.38187,-4.76219 2.64366,0.1372 5.20477,-1.84351 7.32798,-3.18824 m -24.90028,-8.20605 c -1.15371,1.58835 -2.26738,3.16255 -3.14059,4.93708 -3.12607,6.35301 1.15902,17.24047 8.76374,10.04904 5.04653,-4.77228 0.87815,-16.80303 -6.95416,-12.90097 m -16.31606,-0.83406 c 6.87475,3.67075 12.99451,-0.26969 19.44169,-2.1255 m -16.19641,-2.26002 c -5.55243,4.86781 -4.3842,13.5129 1.07676,17.81114 1.06418,0.8376 3.16551,0.92472 3.96313,1.72192 0.52359,0.52332 0.32731,1.41403 -0.0748,1.92371 -2.91741,3.69782 -12.63608,3.26765 -13.39981,-1.81609 m -12.93799,-5.18279 c 3.55699,-0.1436 7.02485,-1.08177 10.54336,-1.35871 m -25.72283,-7.1971 c -9.98588,25.13199 16.04737,20.03189 8.15057,3.16134 -2.3182,-4.95248 -10.46696,-1.40096 -11.08177,2.97301 m -5.77267,-5.87875 c 0.42006,7.28585 -0.17791,14.87441 1.28611,22.03523 m -6.56531,-22.42535 c 0.63387,8.31235 0.57103,16.71931 1.33102,25.00824 M 554.7098,351.10547 c -5.36579,-6.87885 0.20565,25.23471 0.0897,27.80636 m 0.67298,-19.27747 c -14.66429,-11.07366 -20.44757,31.84557 -1.68992,8.09843 m -27.41275,-1.91026 c 2.34622,0.46931 4.66913,0.41093 7.01395,-0.0538 8.26214,-1.63756 6.92561,-7.50992 1.85444,-5.12542 -6.91026,3.24925 -8.20288,15.21604 0.50847,16.64078 M 518.9231,349.59463 c 1.74432,9.92063 -0.5982,20.35655 -0.5982,29.98568 m -6.19144,-12.02656 c 2.84609,-2.47917 8.125,-2.73685 10.93221,-0.36322 M 506.3907,348.14176 c 0.14699,1.26241 -0.23009,2.08476 -0.80759,3.14789 m -24.04786,11.83822 c 0.01,1.86039 0.0914,3.70114 -0.0298,5.55589 -1.12698,17.23384 0.72754,-9.00553 7.61219,-7.7352 3.72424,0.68719 2.57125,6.89722 1.94414,9.41677 -0.38416,1.5435 -0.49476,3.13963 -0.86738,4.68148 -0.09,0.37236 -0.20939,1.51309 -0.20939,1.13001 0,-1.56623 0.92391,-3.23818 1.25624,-4.77565 3.68532,-17.04881 3.99924,3.26626 8.79361,4.74874 3.1036,0.95967 5.14824,-5.5463 5.18945,-5.28684 0.51812,3.26249 -0.46496,5.76862 2.10866,8.46164 m -34.47173,-26.42076 c -0.90573,-0.74931 -1.94751,-1.36212 -2.87142,-2.04478 m -0.0149,13.03549 c 2.1017,4.65941 2.45896,9.74894 2.87142,14.75742 m -21.98408,-0.73988 c 6.36842,-2.6991 13.00899,-1.85005 16.97409,-8.35402 m -11.35094,-20.63617 c -0.82436,8.81584 0.90255,18.98407 -1.91427,27.40278 m -40.40879,-14.1655 c -11.11241,1.04742 -4.08242,13.35855 1.30111,16.8291 -3.81893,3.5766 -12.052,-0.23746 -14.58127,-3.98194 m -7.05468,-6.30813 c 2.75483,1.07754 5.46052,0.71735 8.00097,-0.67263 7.86705,-4.30431 4.78826,-12.46291 -0.55333,-5.66351 -2.07553,2.64197 -6.63426,19.69664 1.45066,15.09373 m -17.09374,-18.05329 c 0.23423,3.29674 -0.41173,6.80181 -1.91426,9.76654 -0.1644,0.32441 -2.41683,4.34827 -2.84147,4.03576 -0.56901,-0.41878 -0.19467,-3.48888 0.0897,-2.01788 1.02301,5.29121 5.22777,6.09848 9.67598,1.93716 M 377.4218,350.88718 c -0.11736,1.94976 0.16632,26.19332 1.04684,26.25932 1.17684,0.0882 2.15284,-2.05405 2.85643,-2.83848 m -32.13857,-5.51553 c 7.4923,-0.76869 14.87291,-3.91469 22.44763,-3.91469 m -1.33097,0.56501 c -1.99765,-0.43173 -3.70764,-0.26566 -5.48854,0.7937 -2.00437,1.19229 -9.47343,8.82556 -6.17649,11.51536 2.97471,2.4269 11.65389,-12.31016 11.66503,-12.30906 2.21419,0.2186 -3.54212,18.84793 4.60616,14.20586 M 357.4917,346.51106 c -1.67344,11.292 -1.59472,22.6835 -1.45063,34.0887 m -9.12968,-18.93007 c -3.11079,-1.16554 -5.90614,1.76468 -6.59521,4.68148 -2.43789,10.31982 5.14519,7.59164 9.79563,10.51987 2.93031,1.84513 -8.19589,6.20632 -10.85744,0.64572 m -11.39581,-10.04903 c 0.21835,3.62162 0.55334,7.24113 0.55334,10.86964 0,1.76235 -0.0149,3.52459 -0.0149,5.28684 0,34.67294 -7.72384,-17.33555 2.40778,-23.25942 8.1053,-4.73908 5.76008,12.32862 -3.09572,17.27305 m -17.15372,-2.98137 c 3.24162,0.42528 6.21898,-0.58911 9.0329,-2.07169 2.30051,-1.21206 5.10913,-8.76105 0.50847,-8.31366 -5.74907,0.55908 -4.90212,24.07027 3.69392,15.83363 m -25.12462,-4.85637 c 3.25779,0.21997 5.86655,-1.74736 8.25523,-3.7398 4.72991,-3.94525 -0.30468,-10.60151 -4.63609,-0.86096 -3.45217,7.76331 3.91948,12.78584 10.03489,6.99531 m -32.10867,-9.10736 c 1.32615,1.76099 1.12164,4.07081 1.12164,6.17471 0,2.11044 -0.32791,4.07728 -0.5982,6.16126 -0.10266,0.79148 -1.06314,6.52031 0.44865,6.28233 3.9716,-0.6252 6.08633,-9.32337 6.87936,-12.36287 0.63925,-2.45009 1.38537,-6.39241 1.39083,-6.38995 0.77514,0.34863 -0.93031,14.97712 2.7667,15.90088 3.37738,0.8439 2.78459,-8.63577 2.69193,-10.10284 -0.13478,-2.13371 -0.648,-4.97167 -0.73281,-6.72627 m -23.88335,-0.59191 c 17.8382,-9.83783 -15.25192,-4.45456 -9.9003,7.69485 1.82445,4.14193 15.55171,7.95783 14.52144,10.50642 -2.19932,5.44045 -19.03376,8.68569 -11.60519,-1.02239 m 16.43113,-96.38576 c 2.15994,-0.56007 7.86175,-2.32168 8.5693,1.14347 0.72084,3.53027 -8.15251,12.29218 -7.25324,10.29118 7.78973,-17.33327 18.49029,15.26313 -2.09373,6.90114 -1.59789,-0.64912 -3.71601,-2.40245 -4.48654,-3.25551 m -4.81555,-16.53315 c -0.81183,7.43141 -1.43117,14.90448 -0.79262,22.37155 m -18.78366,-18.65865 c 9.63014,-8.31423 9.82033,7.39865 4.08276,13.07585 -0.81392,0.80535 -1.96914,2.26511 -3.32004,1.76228 -3.2681,-1.21644 1.83862,-4.97312 3.67896,-4.89672 3.83912,0.15939 2.49603,6.47205 6.98405,2.27348 m -32.64707,-14.87849 c 5.74539,0.24297 11.96232,0.56551 17.42274,2.44836 m -12.99601,-3.40349 c -1.99652,5.83302 0.69354,11.93601 4.666,16.291 0.77892,0.85394 2.51654,1.46682 2.97607,2.58289 2.08382,5.06099 -10.51401,1.55387 -11.6351,1.02239 m -4.07784,-22.66945 c -1.02353,9.27342 -4.72967,22.19532 -2.87139,29.94532 m -4.35195,-26.93195 c -5.38367,13.5678 -11.31622,15.82723 8.92822,15.16099 m -40.36399,-16.88291 c 0.29681,6.87687 0.97246,13.92047 0.0748,20.78415 m -10.94716,-8.35402 c 5.67799,0.0963 11.2122,-0.82182 16.82453,-1.45287 m -11.21635,-10.53333 c -3.09306,7.58895 -4.4366,17.1047 -2.07876,25.03514 m -9.24844,-11.9802 c -2.34927,1.26716 -6.39276,1.61577 -8.001,-1.17037 -3.46602,-6.00459 7.08037,-8.55828 9.81057,-3.7129 2.91583,5.17484 -5.16716,22.78229 -11.97906,17.16542 -6.31049,-5.20341 4.68839,-16.07667 9.04785,-18.30888 m -26.26658,8.87992 c -2.60568,2.65045 -2.36336,9.42705 -6.25125,10.57369 m -13.89333,-31.93629 c -0.0373,8.08888 -1.51172,16.54158 -0.49352,24.61812 m 9.34696,-23.52847 c -0.87535,-0.0277 -1.76148,0.0123 -2.6321,0.0269 m -12.21835,10.26428 c 6.66636,6.09333 12.42468,-6.3926 11.88933,0.26905 -0.21037,2.6178 -0.31406,5.27082 -0.31406,7.89663 0,1.48281 0.0324,2.97805 0.28415,4.43934 m -15.11985,-16.53941 c -4.03382,-10.04855 -16.662553,13.65407 -12.3679,16.35827 3.36744,2.12037 8.70648,-6.82232 9.45165,-9.18807 0.46291,-1.46966 0.91699,-2.93325 1.34596,-4.41243 0.12843,-0.44285 0.37388,-1.79289 0.37388,-1.3318 0,2.8312 -2.68248,21.98142 6.10169,10.72166 M 87.817037,286.85248 c 0.17213,1.36028 0.37836,2.70846 0.35892,4.08957 -0.0257,1.82555 -0.41874,3.61941 -0.41874,5.46172 0,10.7666 2.4026,-15.52306 6.47557,-6.64554 2.18956,4.7724 -2.82593,14.8126 5.62313,11.40774 m -27.74523,-11.05188 c -0.0183,-0.14837 -2.03389,14.08958 -2.03389,13.96372 0,-1.64791 5.4687,-18.01569 8.19541,-15.26861 2.8798,2.9013 1.19752,9.87797 1.48056,11.99965 m -16.45065,-22.04869 c 1.08011,0.6801 2.2638,0.92328 3.32004,1.50668 m -9.15254,8.77105 c -1.9787,6.77954 1.3787,1.25303 -2.40778,-0.59191 -1.03149,-0.50259 -2.28849,0.31025 -3.0658,0.88786 -9.74427,7.24084 0.82637,22.21932 9.21236,10.19702 1.15152,-1.65085 3.4995,-4.02374 3.4995,-6.17471 0,-0.51355 -0.47296,0.9244 -0.58325,1.42596 -0.62594,2.84655 -0.84788,6.27331 -0.28415,9.12082 m -36.41575,-21.29535 c 8.72722,-1.73826 7.8664,5.90362 7.8664,12.65883 0,1.80586 0.18438,3.72826 -0.0748,5.51553 -0.0421,0.29052 -0.003,1.14968 -0.10468,0.87441 -0.67877,-1.8317 2.71051,-16.22843 5.20439,-15.05337 2.81939,1.32844 2.80828,13.09869 3.32003,14.95921 M 21.792607,282.0534 c -0.39792,1.31901 -3.06453,7.46551 -0.49352,7.58722 1.94762,0.0922 0.83523,-9.46947 -4.8006,-9.10735 -7.6890101,0.49403 -15.73248015,16.80254 -7.2831601,21.22808 4.7856301,2.50659 10.6684701,-1.88883 13.1605201,-5.63661 1.77338,-2.66697 3.18696,-6.46339 3.24527,-6.38995 2.11101,2.65847 -2.63891,8.00074 1.52543,10.45261 M 5.6533469,247.45277 c 1.09148,-3.40233 5.8136101,-3.19911 7.7318101,-0.52464 2.18902,3.05207 2.29249,18.71892 -4.1575301,17.35375 -2.42674,-0.51362 -0.66729,-5.95582 2.4376901,-4.92362 4.13929,1.37604 4.48549,3.57732 9.33201,1.85645 m 6.62512,-15.64529 c -12.98738,0.26835 4.07994,15.07257 3.84347,16.00851 -0.78041,3.08877 -8.55996,3.38018 -10.15454,1.15691 -3.78034,-5.27079 11.28762,-14.80965 13.86341,-16.78875 m 4.84547,-1.46632 c -1.60802,1.56962 -2.86835,3.32704 -3.75374,5.38101 -6.63836,15.39984 9.84361,11.12922 6.96909,0.41703 -0.64298,-2.39615 -1.89007,-3.86367 -4.15752,-4.66803 m 5.61184,0.37016 c 4.3549,0.25396 10.08122,-0.76007 13.90828,1.08965 m -4.60619,-6.53793 c -11.85009,3.31537 2.61441,15.33415 2.81157,20.29986 0.23392,5.89173 -9.79351,-0.63912 -11.05185,-2.07169 m 56.652283,-15.75028 c -1.61849,0.078 -3.427113,7.08593 -0.88235,6.094 2.03082,-0.79161 1.01281,-6.09792 0.35892,-7.30472 -4.108073,-7.58178 -16.491593,6.57523 -12.337983,13.70812 3.47833,5.97325 13.150623,1.58907 15.463613,-2.26002 m 3.30508,-4.35862 c -1.33763,0.91314 -2.99766,2.78902 -3.15553,4.49314 -0.53395,5.76364 6.72053,7.46974 9.1675,2.20621 2.72518,-5.86197 -2.81754,-12.58505 -8.52443,-7.72174 m 11.39582,0.3094 c 3.08115,25.07883 -7.35961,1.19747 10.13958,-0.8206 m 2.21336,3.08063 c 1.36017,2.44458 19.03441,-2.15376 15.83749,-6.14781 -3.31243,-4.13835 -6.19796,7.2426 -5.93719,9.06701 0.71057,4.97138 5.9558,5.82079 8.76371,2.09859 m -14.84716,-21.5666 c 0.39555,9.58756 2.69214,20.71809 0.80758,28.92292 m 23.16194,-28.29691 c -3.15126,8.10149 -0.47965,17.2241 -2.30309,25.42527 m 21.96387,-16.04108 c -3.7749,9.49878 -9.32285,19.83216 -9.57129,30.33544 m -2.21336,-29.08436 c -1.15127,5.00392 7.0658,16.0798 11.70987,9.96832 m 6.87937,-8.08496 c -2.30019,0.90293 -4.56804,3.53989 -4.90529,6.08054 -0.849,6.39603 8.9937,5.42074 11.05185,1.14346 2.59309,-5.38899 -3.91111,-13.89852 -8.94317,-8.5558 m 12.01876,0.74724 c 0.18458,1.62583 -0.16575,3.27358 -0.34397,4.89672 -3.25883,29.68045 16.07294,-26.49217 11.59023,0.12107 -0.22674,1.34614 -0.4275,2.68586 -0.52343,4.04921 -0.0932,1.32518 -0.28101,2.65882 -0.67298,3.92814 m 67.11205,-7.22884 c 1.40994,-0.56969 2.7334,-1.06155 4.26221,-1.11656 m -35.03989,-8.23295 c 0.19718,2.18834 -1.46726,18.73788 -0.14955,19.92319 0.31674,0.28492 0.0149,-0.85196 0.0149,-1.27799 0,-2.4341 0.10901,-4.86139 0.25424,-7.29126 0.29648,-4.96032 2.31299,-20.81106 9.09273,-20.81106 4.83994,0 0.54174,11.37141 -0.28415,13.04895 -0.28381,0.57647 -3.5671,5.89004 -3.60419,5.62315 -0.27827,-2.00247 8.22014,-16.41674 9.99003,-14.82468 1.01997,0.91749 -2.08398,18.27291 -1.64506,18.47032 2.14275,0.96373 7.50529,-0.97872 9.9003,-1.19728 m 8.58845,-58.99572 c -0.85949,9.24833 -2.13779,18.47126 -4.33699,27.49696 m -3.05085,-15.52422 c 3.98318,-0.0188 7.8857,-0.33005 11.36591,-2.38109 m -14.46162,-3.4304 c -0.18445,0.60985 -0.36889,1.2197 -0.55334,1.82954 -0.005,0.0987 -0.01,0.19731 -0.015,0.29596 m -1.7647,8.36747 c 0.64922,-0.93926 -2.2399,9.51868 1.54038,11.04452 m -9.19741,-25.5867 c -2.68305,1.52829 -2.43562,33.15258 4.56131,23.51502 m -3.29013,-13.08931 c -10.32263,-10.4329 -18.07117,33.49861 -2.04885,10.15665 m -20.8325,-4.29135 c 2.04675,-0.0999 4.20187,-0.27674 6.04187,-1.27799 5.67686,-3.08911 3.84385,-8.91366 -0.98704,-4.73529 -5.07262,4.38746 -3.8166,16.02225 4.03789,15.26862 M 219.33573,197.688 c 1.41422,-1.80809 -2.16027,8.64499 -0.7328,6.84734 1.58289,-1.99339 -0.45854,-6.59891 -2.81157,-7.03567 -8.22102,-1.52596 -15.21346,15.93206 -9.78066,21.42987 4.17349,4.22342 10.74984,-1.87627 12.14357,-5.81149 0.63785,-1.80097 1.39494,-3.82692 1.63011,-5.73078 0.0518,-0.41938 -0.16188,-1.60403 0.0897,-1.26454 0.92326,1.24576 -0.28415,5.98551 -0.28415,7.49306 0,2.33203 -0.034,4.68053 0.10468,7.00876 0.52672,8.84421 -0.35905,-9.14759 2.6022,-11.81131 1.87608,-1.68758 3.4989,3.95668 6.25124,3.08063 m -68.81884,-21.88395 c -0.05,3.06242 -0.2053,6.1246 -0.22433,9.18808 -0.0147,2.36288 -0.0897,4.72762 -0.0897,7.08948 0,1.40379 -0.0646,2.79515 -0.11964,4.19718 -0.91442,23.30548 8.92415,-26.62948 9.79562,0.80716 0.0455,1.43218 0.14544,2.85959 0.19441,4.29135 0.0531,1.55151 0.28592,4.40771 0.38884,5.3541 m -16.24128,-15.10718 c -0.84522,-8.4369 -8.23407,2.95914 -5.77268,8.12533 0.93516,1.96281 2.65453,3.83286 4.87537,4.29135 0.23748,0.049 3.14344,0.37508 2.85643,0.83406 -2.43042,3.88663 -11.82963,5.19872 -11.35095,-1.11656 m -1.24127,-11.28667 c -0.0427,-1.64925 -0.90201,-2.38479 -2.48256,-1.81609 -8.76246,3.15282 -7.21086,23.38051 -0.86739,10.10284 0.79631,-1.66679 1.34315,-3.36148 1.91425,-5.11195 0.6117,-1.8749 0.81862,-3.03726 1.03191,-4.66803 0.2963,-2.26554 -0.69242,4.51929 -0.91226,6.79352 -0.39873,4.12457 -0.40033,10.32285 5.06978,5.35411 M 129.2798,198.22773 c 0.17329,-0.19842 -1.90773,8.02529 -1.61515,7.76211 6.6844,-6.01279 -8.3621,-17.06525 -14.29711,-1.91026 -4.68581,11.96518 9.74424,23.45297 18.40977,12.29561 m -66.310163,-4.73266 c 2.63827,1.26452 4.27099,0.59302 5.99702,-1.64121 3.83108,-4.95912 -0.78893,-10.2435 -3.09572,-3.94159 -1.89573,5.17893 -1.46049,21.45238 6.93919,11.95929 M 57.062367,202.9522 c 2.15825,3.10301 -7.65829,12.06141 -7.01396,9.82034 0.83344,-2.89884 5.62387,3.6909 12.54736,-1.11656 m -13.74377,-16.39863 c 1.84167,5.53108 -2.42675,20.85842 0.7328,25.15622 m -6.81954,-11.59607 c -4.61501,-7.5088 -14.83949,7.52425 -11.00698,12.24179 3.34715,4.12012 10.90077,-8.41563 11.03689,-11.08488 0.17677,-3.46655 -3.18463,19.75947 3.4995,9.43022 m -19.42672,-27.9947 c 2.34645,11.26879 -0.64618,22.72127 -0.40379,33.91381 m -6.98405,-14.91885 c 5.45472,-2.55113 11.97554,-2.65252 17.75174,-1.91025 m -16.92921,-8.47509 c -1.94029,-0.85267 -4.19591,-0.46703 -6.10169,0.39012 -14.82678015,6.66853 6.2961,19.21024 5.30907,22.76167 -1.47133,5.29399 -13.9209601,4.45307 -10.6181501,-3.06717" />
  </g>
</svg>
