<?xml version="1.0" encoding="UTF-8" standalone="no"?>
<!-- Created with Inkscape (http://www.inkscape.org/) -->

<svg
   version="1.1"
   id="svg5832"
   width="2730.6667"
   height="1277.3333"
   viewBox="0 0 2730.6667 1277.3333"
   sodipodi:docname="WilF - Stake - Envelope39.svg"
   inkscape:version="1.2.1 (9c6d41e410, 2022-07-14)"
   xmlns:inkscape="http://www.inkscape.org/namespaces/inkscape"
   xmlns:sodipodi="http://sodipodi.sourceforge.net/DTD/sodipodi-0.dtd"
   xmlns="http://www.w3.org/2000/svg"
   xmlns:svg="http://www.w3.org/2000/svg">
  <defs
     id="defs5836" />
  <sodipodi:namedview
     id="namedview5834"
     pagecolor="#ffffff"
     bordercolor="#000000"
     borderopacity="0.25"
     inkscape:showpageshadow="2"
     inkscape:pageopacity="0.0"
     inkscape:pagecheckerboard="0"
     inkscape:deskcolor="#d1d1d1"
     showgrid="false"
     inkscape:zoom="0.29062976"
     inkscape:cx="922.13543"
     inkscape:cy="538.4858"
     inkscape:window-width="1920"
     inkscape:window-height="1051"
     inkscape:window-x="-9"
     inkscape:window-y="-9"
     inkscape:window-maximized="1"
     inkscape:current-layer="g5838" />
  <g
     inkscape:groupmode="layer"
     inkscape:label="Image"
     id="g5838">
    <path
       id="path6231"
       style="fill:none;stroke:#787475;stroke-width:1.13579"
       d="m 523.66845,436.78678 c -2.18152,2.71434 -2.65637,6.2646 -2.77184,9.64088 -0.27853,8.14326 8.8444,9.70029 10.51242,1.66222 1.37506,-6.62625 -7.18937,-18.06849 -11.94968,-8.73589 m -3.79842,-7.29531 c 0.60286,7.9572 -2.05846,17.39538 0.3901,25.02567 m -6.57024,-20.48226 c 0.79222,5.37497 -7.80264,15.0154 -0.34905,15.0154 4.017,0 7.77887,-0.29773 11.47743,-1.80998 m -31.24984,-10.78597 c 19.35775,-11.636 4.49507,18.68071 2.19695,16.04967 -2.05635,-2.3542 0.30149,-4.97786 2.89501,-3.98933 4.17566,1.59158 6.8762,-0.39008 10.45085,-2.77037 m -35.7669,-13.79643 c 5.36163,0.53185 11.79143,1.47241 16.98004,-0.59101 m -12.46299,0.72029 c -4.49699,8.57422 6.55011,12.7463 7.47369,19.39258 0.59013,4.24667 -10.10391,-1.35765 -11.08733,-2.56721 m -14.88574,-8.14488 c 6.08139,-1.93284 12.53992,-2.47502 18.33511,-5.17136 m -23.28336,-4.46953 c 6.41064,1.64829 13.46445,-4.81902 12.8531,3.36139 -0.46196,6.18077 -0.46632,12.5092 -0.63652,18.70922 m -48.60365,-24.09629 c -2.20462,8.21525 -8.17768,15.53757 -9.54744,23.97292 m -17.16482,-18.28443 c 22.42409,-1.6336 13.74952,0.61464 27.8415,17.32404 m -23.694,-21.59041 c 1.37243,7.48418 3.10284,16.39026 2.71023,23.8067 m -22.37687,-6.84216 c -1.928,3.56958 -4.45762,6.63689 -5.25623,10.60128 M 340.8291,443.69156 c 0.70361,-0.78651 1.40583,-5.46022 -0.96497,-4.82044 -5.91991,1.59753 8.07595,14.52477 7.78164,17.08394 -0.66781,5.80705 -10.47576,-0.42237 -11.27211,-2.84424 m -6.73452,-6.83358 c -0.83827,-12.45321 -13.00238,3.55989 -6.57027,7.73856 4.53718,2.94761 7.88433,-15.33982 7.88433,-13.07614 0,3.98631 -2.78384,19.20315 5.39991,12.66982 m -26.45501,-19.5127 c 0.45895,7.98804 -0.37539,17.80608 5.441,24.10221 m -13.09947,-25.69055 c 0.6562,9.04813 1.34609,18.64585 4.68132,27.20502 m -12.01127,-14.03654 c -3.34203,-1.59876 -13.45288,11.08502 -10.96413,12.57748 5.6599,3.39414 12.10061,-15.6778 13.03787,-14.55368 1.74587,2.09395 -2.15369,16.98394 3.51098,15.36632 m -33.67261,-10.63822 c -8.01159,-15.26059 15.66598,-16.13179 15.66598,0.44326 0,4.07917 -4.21093,8.9276 -7.1657,10.43506 m -6.4676,-22.95713 c 2.00957,9.22569 3.14248,18.66833 3.8395,28.07307 m 23.22704,-70.9819 c -0.14372,3.09723 -0.59212,6.23931 -0.28745,9.34538 0.73112,7.45349 9.35264,17.09179 10.75881,4.28484 0.50774,-4.62428 -8.23055,-12.69708 -11.62116,-7.66469 m -27.30766,-2.45639 c -2.81762,-4.83918 7.22915,-2.84932 7.57634,-1.496 1.12441,4.38291 -4.90717,10.55294 -4.90717,10.36118 0,-5.38324 11.87796,-9.13506 13.6949,-2.36405 1.13214,4.21904 -3.88194,9.34803 -5.15356,13.07614 m -18.58153,-23.41885 c 0.54376,7.96611 1.81201,15.918 3.3878,23.7513 m 24.18678,-24.04681 c 0.68252,6.85696 1.12951,13.82372 2.2996,20.63002 m 23.09859,-22.60621 c -1.37442,8.64685 3.23662,16.65261 4.22961,24.91485 m 38.86056,-0.24847 c -0.92242,-5.73912 -2.93448,-16.13858 -6.71397,-22.47692 13.67646,-17.35219 22.76776,6.69613 3.05928,13.50093 m 13.12971,-9.86576 c 0.16295,1.54357 0.72389,3.00528 1.1703,4.48799 0.73805,2.45126 1.18059,5.11007 1.53993,7.64622 1.5202,10.72947 -6.1945,-23.48902 7.1041,-9.45619 m 1.00607,2.32711 c 1.8573,-1.57574 8.60294,-3.89692 8.60294,-6.79664 0,-2.86189 -5.98677,1.74578 -6.46763,3.32445 -3.43626,11.28221 9.52633,9.02282 14.49569,3.43525 m 3.16193,-5.00513 c 1.52182,-6.96228 -5.1654,-3.10671 -3.55207,2.45639 1.23036,4.24244 8.57254,5.16416 9.34211,9.17916 1.15592,6.0308 -12.99489,0.60413 -13.94127,-0.27704 m 13.97313,-21.49539 c -0.8876,9.27607 3.69984,17.34237 5.62578,26.00452 m -7.10411,-10.12107 c 4.11155,-3.58734 9.95193,-4.85485 15.17322,-5.83625 m -0.26692,-0.0185 c -6.34408,13.31263 6.06554,16.29926 4.5992,9.30844 -0.50445,-2.40487 -4.06009,-4.00724 -4.80453,-6.68582 m 5.07142,0.29551 c 4.99354,18.81315 0.43837,0.48431 7.22731,-4.9682 5.43518,-4.36526 6.58012,14.76395 6.13909,17.12088 m 21.33807,-22.1281 c 0.4741,3.45159 0.65925,6.98669 1.19085,10.45352 0.34491,2.24928 0.82704,4.41616 1.6631,6.53807 0.81867,2.07767 1.09146,4.95559 2.15586,6.87052 1.19979,2.15843 -0.45279,-4.95124 -0.18477,-7.40612 0.56762,-5.1986 1.69551,-10.12498 3.83951,-14.88612 0.39288,-0.87252 1.25155,-2.88755 2.60756,-2.32711 4.76576,1.96967 -5.48732,20.71209 -5.93376,16.69609 -0.44093,-3.96617 14.38945,4.282 18.99218,-1.10815 m 1.21139,-11.45086 c 0.5274,5.52332 1.17289,11.06171 2.21747,16.5114 0.0888,0.4635 0.44156,1.83312 0.36955,1.36672 -0.32786,-2.12353 -0.84935,-4.19969 -1.21139,-6.31645 -0.34769,-2.03295 -0.63337,-4.07476 -0.24638,-6.13174 5.27331,-28.02955 21.75762,28.11451 1.43726,14.64601 m 42.93219,-22.86838 c -20.49954,7.3178 0.38203,15.64289 2.44334,20.99939 1.00577,2.61364 -14.39362,8.30448 -11.80597,-0.90498 m 17.06216,-15.34785 c -1.16347,6.41978 0.30821,13.23589 2.56651,19.28177 m -8.7056,-18.89392 c 3.82456,-0.0966 7.51606,-0.44176 11.35426,-0.35091 m 3.30565,2.12395 c 3.54918,0.0564 7.09073,-0.006 10.63563,0.20316 m -7.78168,6.42726 c 3.27304,0.39747 6.54861,-0.14285 9.81433,-0.31398 m -11.04624,-9.97333 c 0.55245,5.23641 1.88544,10.46341 2.23798,15.79111 0.56199,8.49256 1.32517,4.90053 10.79989,1.36671 m 15.2592,-18.10241 c 0.0983,7.83052 1.39411,15.62058 1.74522,23.43732 m 5.95431,-22.38458 c -0.94409,5.04712 0.14695,10.43688 0.94447,15.45866 m 6.91932,-14.66449 c -0.77584,2.48004 -1.08822,5.00106 -1.08822,7.59081 0,6.30093 7.73292,10.72704 9.56795,2.30864 1.28754,-5.90665 -6.27653,-16.10817 -12.01125,-9.60394 m 20.75791,8.21876 c 3.37311,-0.0289 6.27041,-1.6985 9.03413,-3.41679 m 9.65555,-4.02418 c 7.11142,0.27036 13.42041,2.36745 20.40889,-0.11081 m -16.03557,-3.86005 c -7.70783,5.4806 10.59705,15.02719 8.43871,20.85164 -3.11216,8.3984 -13.57567,1.57483 -14.33142,-4.5434 m 20.38836,-12.17115 c -13.71312,13.67358 9.05986,21.46929 4.51708,6.98133 -0.83936,-2.6769 -3.31005,-4.49052 -4.51708,-6.98133 z m 11.80596,0.99733 c 2.76071,-1.03668 5.47158,-0.70938 7.24782,1.7915 1.96414,2.76541 3.82618,17.29892 -2.546,16.45599 -2.10391,-0.27831 -6.53384,-6.44003 4.39388,-2.67802 m 5.62578,-14.84918 c 3.00657,1.7289 7.29331,-1.65694 10.1018,-0.64641 1.0551,0.37964 -2.17682,24.21908 -2.75128,26.65094 M 556.68342,356.0099 c -4.15106,-11.17697 -14.61007,16.95636 -6.75506,14.22122 9.75077,-3.39525 6.34441,-35.22325 6.34441,-21.75663 0,3.80384 0.57935,7.68981 1.00607,11.43239 0.45355,3.97782 1.63598,7.79826 2.60761,11.65402 m -32.10161,-35.07662 c 3.00619,7.09245 4.3539,23.03247 4.92769,33.35524 m -6.02287,-12.19381 c 2.84362,0.10842 5.75181,0.46993 8.60294,0.16622 0.68828,-0.0733 11.06723,-1.65239 7.1041,-3.89698 -4.56836,-2.58737 -12.52493,18.72785 5.58473,10.58281 M 515.6639,345.25293 c -1.76922,-0.41159 -2.66094,-0.28131 -4.33223,-0.12928 m -19.77242,11.46932 c -0.41316,2.16086 -0.0942,4.29468 0.16427,6.44573 2.34157,19.48332 -0.13768,-7.78648 6.87823,-7.12908 5.10822,0.47864 2.95664,15.88813 2.95664,14.47979 0,-1.77793 0.53882,-3.60299 0.82126,-5.35605 2.10711,-13.07804 1.96831,7.45656 7.61741,3.7123 3.1045,-2.05769 3.97226,-7.74349 4.5992,-7.46153 2.64502,1.18964 -2.92554,10.43035 4.1064,10.02874 m -32.82997,-24.13323 c -1.25809,-0.83052 -2.69404,-0.95839 -4.12694,-1.23744 m 3.59308,12.94686 c 0.0803,4.2787 -0.5793,8.76592 0.3696,12.89145 m -23.38606,-29.67989 c 1.96928,9.1997 3.60984,19.38176 6.22124,28.07308 6.75592,0.55605 11.74455,-4.32336 17.55492,-6.59348 m -68.05798,-9.73742 c 0.1501,-0.93098 1.07883,-2.68989 0.61597,-3.73076 -1.25865,-2.83045 -4.82503,4.31965 -4.82503,5.39298 0,4.24424 8.95254,9.5553 7.57632,13.13155 -2.20102,5.71963 -14.32383,-4.20056 -15.31694,-6.63041 m -9.50635,-2.84425 c 2.85124,0.29043 4.74097,-1.62099 6.67295,-3.41678 5.32369,-4.94845 1.25711,-7.60736 -1.88897,-2.6965 -4.79375,7.48273 -1.45684,17.21544 8.29495,12.2635 m -17.51386,-16.21589 c -9.92383,5.46429 -6.15412,20.05197 6.13909,15.16315 m -18.66365,-22.75396 c 0.88068,8.29281 2.07671,18.11755 5.66684,25.80137 m -35.88722,-8.61996 c 3.40997,-0.29628 6.68647,-1.44896 10.06072,-1.93926 2.01428,-0.29269 3.92601,-0.90649 5.9338,-1.20049 15.20353,-2.22633 -2.91014,-1.64131 -4.25016,8.40345 -0.21475,1.60983 -0.12553,3.68626 1.45778,4.63575 4.42468,2.6534 13.28338,-15.03387 11.33371,-15.03387 -1.09303,0 -0.24026,2.17436 -0.43119,3.25057 -0.64242,3.62134 -1.35606,11.77006 3.57261,12.0234 m -28.70385,-28.84877 c 2.86285,10.64601 6.24566,20.85147 6.73452,31.93311 m -12.0318,-21.36878 c -11.75807,0.35545 4.84964,10.65711 3.28514,14.73837 -2.16011,5.63488 -12.08882,-0.63263 -13.40746,-3.13976 m -14.25298,-8.58641 c -0.39549,3.15852 0.31717,6.1594 1.25246,9.14222 1.41782,4.52175 3.39615,8.82875 4.74291,13.37164 0.13963,0.47102 0.9118,5.19931 0.0411,4.59882 -4.53135,-3.12498 -4.071,-22.46235 -2.44332,-26.92799 4.82806,-13.24601 11.20417,-1.85169 6.0775,9.2161 m -24.59743,-1.31131 c 2.57148,-0.0973 5.73537,-1.31766 7.67899,-3.10282 5.40954,-4.96845 -2.01201,-6.77622 -2.56651,0.40633 -0.35925,4.65343 4.12293,18.04677 10.34817,12.559 m -27.90309,-7.47999 c 2.93573,-0.24738 5.08361,-1.82657 6.77558,-4.17402 3.15604,-4.37871 -1.01351,-8.80305 -2.05321,-4.7281 -2.35663,9.23649 2.48013,17.89779 11.35424,9.77016 m -34.3091,-6.40878 c -0.0147,1.05225 2.01564,15.2332 3.69577,14.20276 2.29777,-1.40925 3.49409,-7.86286 3.88057,-10.34271 0.2645,-1.69727 0.0616,-6.87064 0.0616,-5.15289 0,4.61241 2.24253,8.45954 4.59919,12.24503 4.68629,7.52757 0.88006,-13.95376 0.71862,-15.68029 m -19.75186,3.17669 c 6.66429,-20.88511 -14.37958,1.38203 -13.26373,4.19249 2.32643,5.85952 18.81419,4.90706 18.54047,7.36919 -0.96419,8.67315 -27.15223,10.0927 -14.00288,1.0712 m 44.79677,-84.10666 c 2.31328,-0.11562 4.5983,-0.57509 6.91931,-0.66489 9.3704,-0.36253 -1.88361,11.26769 -2.19694,9.01293 -0.8339,-6.00092 22.31016,0.50292 4.00376,6.59348 -1.79264,0.59642 -4.06533,0.53561 -5.93377,0.53561 -1.55955,0 -3.81312,-1.17016 -4.90717,-1.66222 m -3.63418,-13.2239 c -0.61065,6.6076 0.52248,13.12355 1.19086,19.65115 m -19.0314,-19.18523 c 11.99557,-2.58763 9.90605,16.34325 0.65702,18.19208 -3.85885,0.77137 -4.28044,-6.58401 -1.58097,-7.60928 6.82444,-2.59191 5.16088,10.93631 13.26373,0.75724 m -36.30072,-10.7675 c 5.01739,-0.75396 10.1684,0.27445 15.11161,-1.07121 m -10.26604,-0.0185 c -6.60025,6.71667 9.76845,17.58535 1.78629,19.11554 -1.98097,0.37976 -3.97591,0.28626 -5.3794,-0.62795 m -5.11249,-20.38991 c -0.357,8.37516 0.12825,16.78186 0.0411,25.17342 m -5.85164,-24.74863 c 0.0523,12.40153 -10.81416,20.12867 9.95806,14.09194 m -39.90441,-21.96988 c -0.59121,9.52457 -0.66551,19.12374 -0.73916,28.66408 m -13.38692,-17.19475 c 5.65394,0.41361 11.8087,1.37964 17.26748,-0.46173 m -14.35192,-2.01314 c -0.66878,6.64632 -0.41105,13.41732 1.29352,19.89125 m -15.2964,-19.35564 c -4.15409,1.82532 -6.4765,17.88726 1.25246,16.60374 9.4858,-1.57527 6.20352,-12.42042 -0.24638,-15.08927 -0.56002,-0.23172 -0.41191,-1.63394 -1.00608,-1.51447 -3.42631,0.68893 -3.47012,3.73787 -1.19086,5.13442 m -31.35342,16.76506 c 2.68504,-3.15672 4.73575,-7.24202 6.91931,-10.472 m -34.45283,-24.41618 c 0.17196,8.97701 -0.21286,17.89278 0.92395,26.81717 m 11.12839,-22.3107 c -1.18189,0.19683 -2.06809,0.68473 -3.10035,1.21896 m -12.5451,9.34538 c 11.39346,8.55658 11.41899,-6.9693 11.60062,11.82023 m -22.38602,-7.83473 c -1.81197,-19.58001 -15.43007,9.23456 -6.69346,9.23456 6.0719,0 8.46258,-13.0946 8.21283,-13.0946 -1.25677,0 4.0857,23.46917 9.07518,9.41925 m -33.652076,-9.9918 c 2.25029,1.81694 -0.88477,8.08777 1.00607,9.78864 1.39157,1.25175 -0.18186,-12.09464 2.7513,-11.3031 5.267466,1.42146 -0.96884,19.02394 13.941286,9.95485 m -36.690826,-5.39298 c 1.02152,2.02897 1.11997,4.33908 1.56044,6.53807 0.0651,0.3252 0.2908,3.27978 0.71862,3.47219 1.40954,0.63396 1.52615,-13.84252 7.72006,-14.79376 3.37713,-0.51866 2.01214,9.37932 2.01214,10.89678 0,2.03763 0.22927,4.08229 0.55437,6.0394 m -22.0432,-28.20687 c -1.68484,0.0861 -2.6577,-0.86405 -3.51099,-1.55141 m -3.79843,16.91771 c -3.42354,-13.59492 -10.77018,9.00235 -3.12088,10.80444 3.66535,0.86352 8.78743,-2.41534 10.49189,-5.54073 0.29034,-0.53237 0.6557,-2.26284 0.73916,-1.66222 0.49994,3.59762 0.43773,7.08909 1.23193,10.71209 m -32.33803,-20.96246 c 2.23609,3.58155 1.64737,8.20927 1.00607,12.18962 -0.36412,2.26 0.0776,-9.65935 2.77183,-9.65935 6.28887,0 1.76536,18.80283 15.93289,9.89945 m -24.4537,-16.65915 c -1.27664,0.12542 -2.06566,-0.54725 -2.97715,-1.18202 m -5.62579,0.94192 c 2.18172,-17.87557 -20.70153012,11.58029 -11.7032901,19.33718 4.1770701,3.60082 10.9309801,1.08052 13.9823501,-2.77037 1.50763,-1.90267 2.9971,-4.82589 3.36726,-7.2399 0.0705,-0.45959 0.14079,-1.84955 0.16425,-1.38518 0.19034,3.76663 -0.0785,7.94591 0.18479,11.46932 m -14.51303,-58.90063 c 8.92968,-8.95886 16.79448,10.04873 6.83718,15.47712 -4.46103,2.43201 -6.17512,-4.03163 -3.75737,-4.63575 7.34794,-1.83601 10.4397,6.1812 17.51386,-1.77303 m 5.23568,-8.40345 c 0.26018,-1.63079 0.59469,-3.1083 -0.94447,-4.11862 -4.86491,-3.19337 -5.96648,4.31161 -4.68132,7.48 1.97939,4.87991 8.08958,6.29217 9.81433,11.08147 0.70554,1.95911 0.014,3.60861 -1.37564,5.11595 -3.13658,3.40232 -8.84349,1.82994 -8.97252,-3.10281 -0.21552,-8.23922 7.69562,-17.24925 14.00288,-21.57194 m 4.53759,5.09748 c -15.31542,19.22265 17.2655,25.25708 -2.03268,-2.97353 m 13.70885,1.93125 c 7.1741,-0.34754 13.86041,3.85934 20.59367,0.0739 m -13.92075,-0.73876 c -7.95781,7.03129 14.49416,21.49806 -0.69809,21.49806 -3.27295,0 -5.2549,-3.88414 -6.48813,-6.0394 m 49.326586,-16.5689 c 1.65025,-0.084 -3.99532,4.6037 -2.36119,4.35871 2.46445,-0.36947 0.11443,-5.57007 -2.93609,-5.00513 -8.481516,1.57075 -7.329596,18.82505 -3.16194,23.5112 5.17553,5.81939 12.81508,-4.20476 13.1816,-9.2161 m -0.90341,-1.56987 c -1.55958,0.9026 -2.37643,2.83968 -2.09427,4.67268 1.88189,12.22588 14.53288,-1.81792 3.73683,-5.63308 -2.12915,-0.75241 -4.08206,0.13834 -5.46153,1.71763 m 11.25158,0.18469 c 0.68978,2.1823 1.10019,4.42903 1.39618,6.7043 1.80666,13.8875 -1.4302,-7.28644 1.43725,-8.45886 0.2987,-0.12214 3.10383,2.29905 3.44939,2.49333 1.94488,1.09341 4.17294,1.22124 6.26228,1.82844 m 2.8129,0.2401 c 30.36244,2.54087 4.59083,-17.84531 11.29264,4.0078 1.39392,4.54528 5.65187,7.94352 8.17177,2.05007 M 137.7696,236.02609 c 1.91643,10.60927 4.71586,23.03725 5.23567,32.85658 m 16.52833,-31.26823 c -1.54924,9.08476 0.60929,17.84236 2.25853,26.66942 m 7.48814,-13.99715 c 0.86447,4.34939 4.29152,7.47971 8.80826,7.97866 9.49239,1.04861 6.09883,-12.90537 4.00375,-8.71742 -1.40407,2.80667 -1.81974,6.33666 -2.40225,9.38231 -0.42756,2.23548 -0.90449,4.41077 -1.06767,6.68583 -0.19051,2.65633 -0.63248,5.29811 -0.92394,7.94172 m 13.61277,-24.21302 c -1.00082,1.72704 -1.94272,3.55905 -2.56651,5.46685 -1.87572,5.73668 4.34142,16.97414 8.68507,8.40346 2.89992,-5.72198 -6.2039,-14.11035 -10.51243,-9.53007 m 9.2805,-1.18202 c 4.06956,-0.67871 4.6225,14.15506 5.25622,13.99959 3.69794,-0.9072 5.23131,-7.82436 6.15962,-10.82291 0.5395,-1.74264 1.50312,-6.8551 1.99161,-5.09747 1.56937,5.64674 -0.003,12.67706 1.33459,18.69075 m 70.13706,-9.03804 c -0.90254,0.12704 -1.7032,0.46606 -2.54598,0.77571 m -21.35336,-14.09195 c 1.46021,24.94172 -6.48936,21.80537 11.25158,17.67495 m -26.95862,-20.96245 c -0.25939,2.95251 0.71876,5.75442 1.25245,8.60661 0.51519,2.75328 0.88561,5.44935 1.51938,8.18182 0.7153,3.08407 1.49884,6.31592 1.49884,9.49313 0,0.50483 0,2.01929 0,1.51447 0,-2.6581 -1.717,-31.43319 7.35048,-25.80137 7.89075,4.90095 -5.86857,20.87274 -4.64025,14.49827 m 35.3626,-63.58393 c -1.08081,8.76109 2.7667,16.61503 2.97715,25.22882 m -6.09802,-11.15535 c 4.1129,0.0913 8.42506,1.72133 12.4835,1.07121 m -17.28801,-12.24503 c -0.75631,-0.12665 -1.51953,-0.0616 -2.27906,-0.0924 m 2.13534,9.58548 c 0.0939,4.60025 -0.78669,10.39447 2.27906,14.20276 M 264.86293,209.3023 c 0.8203,-3.04249 -0.2377,-5.42283 -3.57258,-5.48533 -13.40343,-0.25118 -9.83961,30.18751 0.34905,16.60374 3.37302,-4.49699 7.07083,-26.58999 3.28513,-24.15761 -0.29847,0.19177 -0.63633,25.68656 5.29728,25.35811 m -33.10107,-5.4766 c 2.02346,-0.92311 4.08276,-1.83187 6.0159,-2.93659 8.67288,-4.95623 4.15012,-10.92573 -1.45778,-4.89432 -9.06091,9.74519 1.24578,14.22445 11.21052,9.41925 m -27.16394,-13.53787 c -0.0459,-6.24135 -6.86966,-9.07332 -11.60063,-5.46686 -6.17127,4.70442 -7.22747,25.42036 3.22354,25.87525 5.42127,0.23596 9.58446,-4.99486 9.69114,-10.17649 0.0437,-2.12269 -0.25585,-8.46747 -0.45171,-6.35338 -0.29919,3.22964 1.26935,7.12088 1.7863,10.32424 0.23285,1.44296 0.33393,5.67386 0.84181,4.30331 2.2907,-6.18164 -8.59693,-13.735 6.67293,-12.85451 m -81.37491,-14.98741 c 1.19344,2.52983 2.05317,5.20352 2.77184,7.90479 1.63822,6.15764 3.80011,12.31163 5.81057,18.33984 0.55173,1.65431 1.6973,-14.78761 4.9277,-15.51407 4.68481,-1.05353 5.10742,13.11159 5.76952,15.71723 m -21.06592,-14.6275 c 0.1215,-0.9874 0.63029,-2.56812 -0.32851,-3.37985 -3.01534,-2.55282 -8.35649,2.33956 -6.73452,5.7439 2.12075,4.45124 12.82216,7.87804 12.21658,12.78063 -0.63194,5.11606 -10.16529,4.59143 -7.96644,-2.82578 m -10.04019,-10.0472 c 2.82971,-14.54413 -13.85884,4.42611 -6.44707,9.88099 4.02572,2.96282 8.55768,-15.79179 7.24782,-11.45086 -0.95184,3.15442 -2.62482,14.1565 4.04482,11.063 m -16.05608,-18.19209 c -3.34949,-1.03684 -1.24189,-6.92993 -3.03875,-8.42192 -11.06862,-9.19061 -29.564006,34.876 -3.24407,28.64562 3.97433,-0.9408 8.30468,-2.98727 11.14892,-5.94706 M 69.432644,203.11058 c 1.17329,1.13168 3.58743,2.80841 5.37941,1.84691 1.44519,-0.77543 3.80177,-4.47402 0.78022,-4.96819 -7.77125,-1.27099 -2.28098,32.3734 7.37101,14.49826 m -23.83774,-16.88078 c -11.05731,8.52355 -0.6504,23.37642 11.55956,15.05233 m -21.29177,-18.80156 c -0.35556,7.73934 2.28353,15.12212 4.68131,22.34764 m -35.41783,-8.2557 c 3.15372,-1.3102 6.56579,-1.83664 9.89646,-2.5118 2.25958,-0.45804 4.36786,-1.47807 6.63186,-1.92079 10.12579,-1.98009 0.9554,-1.79059 -1.39618,1.68069 -1.75635,2.59262 -3.85942,13.70223 1.99161,12.35584 5.2956,-1.21857 5.64632,-8.53595 5.64632,-12.78063 0,-1.82384 -0.22585,-7.2907 -0.22585,-5.46686 0,4.53928 1.2846,20.66188 7.12463,21.16561 m -27.96469,-29.01499 c 3.26997,9.47136 5.7667,18.92829 6.5292,28.92265 m -12.31925,-23.16028 c -1.0226,-1.10424 -2.64542,-1.40872 -4.04482,-0.66489 -15.2559201,8.10909 10.88552,15.53426 10.57402,20.29756 -0.32721,5.00377 -18.5700901,8.79943 -15.0910801,-1.08967" />
  </g>
</svg>
