<?xml version="1.0" encoding="UTF-8" standalone="no"?>
<!-- Created with Inkscape (http://www.inkscape.org/) -->

<svg
   version="1.1"
   id="svg7490"
   width="2730.6667"
   height="1253.3333"
   viewBox="0 0 2730.6667 1253.3333"
   sodipodi:docname="WilF - Stake - Envelope43.svg"
   inkscape:version="1.2.1 (9c6d41e410, 2022-07-14)"
   xmlns:inkscape="http://www.inkscape.org/namespaces/inkscape"
   xmlns:sodipodi="http://sodipodi.sourceforge.net/DTD/sodipodi-0.dtd"
   xmlns="http://www.w3.org/2000/svg"
   xmlns:svg="http://www.w3.org/2000/svg">
  <defs
     id="defs7494" />
  <sodipodi:namedview
     id="namedview7492"
     pagecolor="#ffffff"
     bordercolor="#000000"
     borderopacity="0.25"
     inkscape:showpageshadow="2"
     inkscape:pageopacity="0.0"
     inkscape:pagecheckerboard="0"
     inkscape:deskcolor="#d1d1d1"
     showgrid="false"
     inkscape:zoom="0.2094415"
     inkscape:cx="1246.1714"
     inkscape:cy="336.60951"
     inkscape:window-width="1920"
     inkscape:window-height="1051"
     inkscape:window-x="-9"
     inkscape:window-y="-9"
     inkscape:window-maximized="1"
     inkscape:current-layer="g7496" />
  <g
     inkscape:groupmode="layer"
     inkscape:label="Image"
     id="g7496">
    <path
       id="path7905"
       style="fill:none;stroke:#787475;stroke-width:1.15231"
       d="m 494.77925,438.0326 c -1.05093,2.23093 -1.18736,4.7051 -0.73709,7.11135 0.24219,1.29445 0.77893,2.50893 1.31518,3.70519 0.88713,1.97903 2.33615,3.01539 4.24913,3.86119 6.10536,2.69942 2.99451,-19.06371 -4.82722,-14.67773 z m -7.61662,-6.43533 c 0.73377,9.4626 -0.8693,19.81541 1.63317,29.05645 m -8.28145,-21.64608 c -9.75853,15.71736 -2.13612,15.49979 11.64894,9.62048 m -29.78721,-9.90649 c 14.30766,-9.8251 9.96794,21.81991 2.73158,19.85199 -3.37012,-0.91651 -0.62089,-10.90331 2.39915,-11.42757 4.29388,-0.74538 4.08922,6.99319 9.53886,4.43322 m -31.76356,-17.41752 c 5.38573,0.0471 10.71517,-0.1626 16.07148,-0.32501 m -12.42937,0.74104 c -3.71703,6.60525 11.63275,17.24329 2.12453,20.41101 -1.78432,0.59446 -4.45744,0.006 -5.70883,-0.96205 m -13.86024,-10.28351 c 6.95407,-1.82683 14.33994,-2.37614 20.97099,-5.23926 m -27.0267,-1.11805 c 10.26726,-2.73257 11.31384,-9.58058 11.7212,2.1451 0.23621,6.7985 0.31647,13.58734 0.47695,20.37202 m -38.56074,-23.31245 c -5.31964,-2.72625 -12.3403,13.93781 -13.18093,18.79894 m -2.86166,-22.0231 c 1.88573,1.07104 12.01107,28.86313 14.43834,18.38292 M 369.36091,436.8376 c 4.93866,-0.56047 9.90971,-0.8893 14.88636,-1.20906 m -9.42323,-4.92724 c 0.65252,9.24198 2.15349,18.2358 2.15349,27.54837 m -30.11126,-5.15618 c -2.35288,3.80377 -3.23826,7.9868 -4.0468,12.29861 M 330.0143,440.76888 c 1.2201,-5.86227 -4.42085,-6.03017 -3.19405,0.26001 0.91327,4.68266 6.57237,7.54322 7.03849,11.59658 0.53343,4.63846 -9.68318,-1.33882 -10.11695,-1.9241 m -4.35028,-6.47432 c 0.69719,-1.45216 0.35591,-2.65649 -0.91052,-3.60118 -5.8937,-4.3964 -10.20518,11.74431 -7.18305,13.85869 2.36432,1.65414 6.90309,-7.23993 7.44319,-8.69743 0.41402,-1.11726 0.82535,-4.56927 1.08396,-3.40617 0.6635,2.98418 -2.81436,13.74823 4.3792,10.2315 m -23.0233,-20.91803 c -0.33986,5.20018 -1.43542,23.41416 7.12523,23.41416 m -13.78796,-23.41416 c 0.34922,2.49807 -0.17236,26.29862 5.15967,21.33406 m -13.57119,-9.41247 c -3.81498,-0.63623 -15.01764,5.19525 -13.02196,10.45252 2.38426,6.28093 11.85608,-6.08686 12.77626,-8.0734 0.69176,-1.49341 0.87556,-3.23898 1.19958,-4.83624 0.0963,-0.47482 0.17344,-1.92756 0.17344,-1.44307 0,0.28477 -2.10321,24.35577 5.34753,13.52067 M 257.6203,441.65292 c 4.5183,-16.586 23.97172,4.97955 9.48103,17.64188 m -5.37644,0.26001 c 0.3439,-7.83841 -1.9692,-15.51752 -2.93392,-23.21915 m -3.73813,-41.32652 c 1.28132,7.44721 1.85279,15.03663 3.3675,22.47812 m 1.64762,-18.81194 c 2.59499,-1.62073 7.73466,-0.49061 8.71503,2.73013 1.2287,4.03656 -4.006,8.50616 -4.06123,8.30742 -0.48939,-1.76087 12.19759,-20.22447 9.66891,0.24701 -0.16492,1.33519 -0.50297,2.69508 -0.91052,3.9782 -0.61917,1.94937 -1.32571,3.88779 -2.18237,5.74629 m 10.08804,-23.89519 c -1.39431,7.1358 -0.36609,15.00942 1.37302,22.0491 m 5.85337,-20.34602 c -0.1981,3.04808 -0.94833,6.0323 -0.98278,9.10045 -0.0154,1.37019 0.0214,2.70948 0.18788,4.06921 1.91826,15.67351 19.31489,-6.09939 7.80451,-8.41142 -2.31224,-0.46445 -5.0808,-0.4358 -7.00961,1.02705 m 25.48028,-8.60643 c 0.11185,7.60203 -1.38508,15.16147 -1.45974,22.75113 m 42.01181,-25.12649 c 8.69403,-4.69197 10.54565,10.39755 3.36749,13.71568 m -4.78386,-18.1099 c 2.6934,8.81913 5.9458,19.88813 3.55538,29.12145 m 9.82792,-21.37306 c 2.73509,-1.11182 4.56739,12.76663 3.56982,12.76663 -0.551,0 -0.46247,-6.23729 -0.46247,-6.79933 0,-6.02232 3.55679,-8.56254 9.35094,-9.69849 m -1.80661,9.75049 c 2.85666,-0.58252 5.39491,-1.6014 7.61662,-3.56218 6.72564,-5.93573 -2.71771,-8.35861 -4.50927,0.19501 -1.58436,7.56438 6.24324,11.77638 11.34543,5.82429 m 6.08463,-7.35837 c 0.52768,-1.52663 0.91575,-3.15861 -0.0867,-4.51122 -2.66062,-3.58995 -6.11348,2.1063 -5.28973,4.82324 1.11236,3.66887 8.36755,9.40329 7.99239,11.76558 -0.78835,4.96409 -10.01897,1.02474 -11.75013,-2.22311 m 13.49165,-8.63243 c 3.69993,-1.624 7.87855,-1.28455 11.69231,-2.34011 m -12.92079,-14.20971 c 2.14358,9.61985 5.63619,19.79532 5.36198,29.78448 m 7.99239,-15.93879 c -13.99336,11.71415 6.95011,16.91366 5.91119,8.73643 -0.51654,-4.06558 -6.52202,-5.69222 -7.32755,-9.36046 m 9.98688,3.57518 c 0.13609,1.95254 0.0593,3.9022 0.39021,5.83729 1.39739,8.17028 -0.88968,-11.41687 5.99793,-8.78844 2.29812,0.87701 2.98753,4.17202 3.41086,6.26631 0.30298,1.49903 0.3976,3.05775 0.56365,4.57623 0.20133,1.84136 0.37576,3.64538 0.37576,5.49927 m 52.28703,-12.12356 c 0.29612,-2.09709 0.66247,-4.26328 1.58981,-6.18831 1.05778,-2.19577 2.24895,-4.91512 4.97177,-5.18726 7.42981,-0.74258 0.90108,25.33029 -6.38814,16.28982 m -0.75153,-16.26381 c 0.75725,5.38122 1.08511,13.5818 0.20233,17.97989 m -19.16438,-18.81193 c 0.40252,2.21901 0.33491,4.50504 0.57809,6.74733 0.20663,1.90526 0.56167,3.79194 0.86716,5.68128 3.9263,24.28107 -6.99219,-15.96652 5.94011,-14.02769 3.98054,0.59676 -4.82398,14.02135 -4.8417,13.55967 -0.3835,-10.00407 10.65023,8.29936 17.37225,0.74104 m 183.17814,-16.34232 c 1.44738,2.35553 9.19194,-3.06863 9.20642,-2.87315 0.54402,7.3404 2.3224,20.76072 -2.3847,27.22336 m -21.56353,-18.82494 c 2.43363,-7.76463 11.27317,-5.96271 9.35093,2.0541 -0.6811,2.84062 -1.24894,5.71249 -2.35581,8.43742 -0.16521,0.40678 -0.57139,1.65377 -0.4914,1.22206 0.43732,-2.36024 5.04769,-1.83612 6.66276,-2.73013 2.34801,-1.29976 4.50832,-2.74055 6.57599,-4.47223 m -27.22194,-9.10405 c -2.48901,2.05976 -5.13016,4.90814 -6.07015,8.1124 -1.25603,4.28143 3.96087,10.4206 6.7928,4.90125 2.09377,-4.08069 -2.35048,-9.58014 -0.72265,-13.01365 z m -20.86981,0.24701 c 6.1636,0.8915 12.75037,0.21464 18.80306,1.82009 m -16.31717,-5.9153 c -7.74341,4.78655 8.11853,18.71851 7.22637,21.12606 -1.53069,4.13071 -9.46214,-0.88143 -10.33372,-2.71714 m -5.10185,-7.96939 c -1.63073,1.59416 -3.48788,2.94595 -5.59323,3.82219 m -17.86365,-13.01365 c -0.5183,3.86165 -1.28629,7.64094 -1.28629,11.57057 0,20.59892 21.41623,-5.01968 -3.23742,-9.12645 m -4.16239,-2.40512 c 0.30796,6.96769 0.0965,13.98115 1.50306,20.84004 m -7.96346,-19.27996 c 0.91621,7.22451 1.98333,14.47631 2.7171,21.73708 m -39.22305,-18.1871 c 5.25382,-1.47089 10.50338,-3.26719 15.81137,-4.48522 m -16.2594,13.33867 c 3.51742,-0.62916 7.16639,-0.95656 10.60835,-1.9241 m -7.48655,-8.80144 c 1.37383,9.7393 -5.88642,25.77935 9.66893,15.69179 m -24.2229,-15.73079 c 4.53179,-0.94608 9.16325,0.31637 13.67236,0.76704 m -9.03298,-1.49507 c -0.15919,7.67686 1.85905,15.24492 2.35578,22.77713 m -9.91459,-25.72828 c -3.05735,0.37649 -5.99938,2.1124 -7.48655,4.86224 -5.91192,10.93128 9.89774,12.37011 10.29039,17.66788 0.14383,1.94066 -11.46186,3.48232 -13.68681,-0.58503 m 9.27217,-47.08347 c -2.49241,-12.48474 -20.56367,12.14087 -10.40602,14.19671 9.09941,1.84166 11.02748,-23.53025 11.02748,-27.87339 0,-1.0126 -0.5763,1.95543 -0.66483,2.96415 -0.24036,2.73866 -0.0968,5.55081 0.15899,8.28141 0.26559,2.83516 0.61251,5.63225 0.88161,8.56743 0.40065,4.36971 0.7694,8.61808 0.4625,13.00064 m -34.34968,-16.66439 c 2.88269,-0.48661 5.81592,-0.51361 8.715,-0.85804 0.4859,-0.0577 8.4741,-1.017 6.9229,-2.67813 -8.48706,-9.08848 -10.11936,21.16066 4.98622,10.92054 m -19.85925,-26.30219 c 2.35533,11.2645 1.26762,23.18773 3.81552,34.36071 M 483.11434,343.3695 c -1.1754,-0.55653 -2.25231,-1.17604 -3.23742,-2.0281 m -18.62962,12.71463 c -0.0528,-1.95921 -0.70611,10.92809 -0.0578,13.26066 0.33888,1.2193 0.16693,-2.52672 0.31796,-3.78319 0.11383,-0.9471 2.36027,-12.81391 4.69715,-10.36151 1.44304,1.51441 1.95536,15.48377 2.3847,15.48377 0.63347,0 1.77613,-8.08428 2.91947,-9.04845 0.98347,-0.82938 3.77626,9.03916 6.86509,9.38647 4.24174,0.47694 4.3047,-15.57458 4.50923,-8.39842 0.0557,1.9527 -0.0498,3.78582 0.47695,5.68128 0.47802,1.71989 1.06331,3.43762 1.82106,5.04425 m -30.85555,-21.63643 c -1.04155,-1.0045 -2.22659,-1.85992 -3.26635,-2.84714 m -16.60624,21.30806 c 2.79386,5.92441 24.98377,-7.40196 19.90148,-11.97359 -0.22078,-0.19861 -0.21678,3.50688 -0.21678,6.1623 0,3.00569 0.34665,5.92975 0.47695,8.91845 m -20.9421,-29.04345 c -0.79231,9.91324 2.08081,19.55284 1.02615,29.44647 m -28.9633,-16.28809 c -0.82844,-1.01853 -1.81428,-1.71197 -3.16517,-1.56008 -7.63281,0.85824 4.43222,16.17842 4.14795,17.79789 -0.50214,2.86067 -9.7126,-0.43093 -10.55053,-1.75509 m -10.89741,-7.00735 c 1.90772,-0.39994 3.83552,-1.73577 5.46313,-2.88614 4.99826,-3.53259 2.90155,-9.75078 -0.52028,-6.99435 -5.74396,4.62701 -3.30053,15.83532 5.28973,14.97675 m -15.99926,-10.11451 c -0.35126,-14.08337 -14.80606,11.01053 0.72265,11.11556 2.65018,0.0179 5.27037,-0.94313 7.7178,-1.8721 M 368.953,343.67989 c 0.50854,9.14608 0.59924,19.49523 3.97451,28.1594 m -33.4298,-12.90309 c 2.16283,-0.70239 4.53119,-0.71014 6.80724,-0.81904 2.16767,-0.10372 4.34787,-0.11068 6.51821,-0.13001 18.39749,-0.16385 0.92318,-2.56464 -2.44252,4.45923 -1.0199,2.12844 -2.01077,9.03302 1.63317,9.45147 4.26514,0.48977 6.75743,-4.19749 7.64551,-7.68339 0.43309,-1.69994 0.75672,-3.39311 1.09841,-5.10925 0.11132,-0.55902 0.26018,-2.26008 0.26018,-1.69008 0,4.90634 -1.37231,12.19645 4.84167,13.29966 m -22.8932,-29.75849 c -1.53374,11.52903 4.05855,22.56146 3.07843,34.0227 m -15.65653,-22.7297 c -0.93161,-0.32743 -2.38067,-0.77191 -3.30968,-0.18201 -12.8363,8.15051 4.60607,15.66943 4.32139,16.75783 -1.3661,5.22259 -10.89192,-0.98032 -12.01027,-3.05515 m -12.16926,-9.82849 c -0.24036,2.54714 6.75701,28.38645 3.55537,28.77044 -1.34711,0.16156 -3.78186,-23.94712 -2.86165,-26.89834 3.7707,-12.0926 13.05788,-4.0882 4.43701,10.33551 m -20.35367,-4.45333 c 1.91149,-0.86657 3.79857,-2.37812 4.95731,-4.17321 1.96417,-3.04289 0.34152,-9.99721 -2.25464,-5.39527 -3.38575,6.00156 0.2726,20.05463 8.83067,15.58778 m -22.57527,-6.47433 c 3.11512,-1.31694 5.31956,-4.03411 6.09908,-7.30636 1.2892,-5.4118 -4.92294,-2.78376 -5.34753,2.0541 -0.78699,8.96686 6.27595,19.33006 14.06256,8.56743 m -32.37425,-6.27931 c -0.73882,1.16362 -1.63323,14.87493 1.8066,13.58567 2.21944,-0.83184 3.38716,-6.27594 3.56984,-8.34641 0.1332,-1.50974 0.19285,-2.99777 0.26015,-4.51123 0.0104,-0.23422 0.0434,-0.93649 0.0434,-0.70203 0,2.26019 0.79266,4.57486 1.50309,6.69533 0.76094,2.27124 1.6802,4.7063 3.3964,6.43532 4.11451,4.14524 -2.63674,-15.67484 1.76325,-20.138 m -22.12722,2.61313 c -23.50614,6.23699 6.49409,16.67266 4.6827,20.20301 -2.38838,4.65489 -15.90233,6.32592 -11.18646,-1.78109 m 35.91694,-92.4374 c 1.91314,0.42006 8.94959,-0.34756 9.46657,2.50913 0.38684,2.13753 -2.80042,4.63948 -4.09014,5.95429 -1.07136,1.09222 -4.04695,4.45312 -3.42531,3.05516 0.67071,-1.5083 2.47792,-2.80253 4.06124,-3.13316 8.76549,-1.83039 4.45825,22.83687 -6.17135,10.73854 m -8.48378,-18.12291 c -0.0757,6.05948 0.42649,12.72496 2.74603,18.39592 m -21.07217,-13.45567 c 1.81696,-2.55075 7.27586,-6.07636 9.04745,-1.50808 1.48567,3.831 -0.53688,8.50023 -2.24018,11.9476 -1.06181,2.14902 -2.28338,4.73396 -2.28354,4.73223 -0.0402,-0.43443 0.64554,-1.37502 1.09841,-1.43007 5.53689,-0.67305 6.2938,2.74274 10.83959,-4.0042 m -33.71835,-12.27261 c 4.37621,-0.62628 9.1483,0.55406 13.39773,-0.52003 m -7.8045,-2.65213 c -6.82088,7.21433 7.21232,11.5268 6.22915,17.18686 -1.08195,6.2287 -8.26849,2.90284 -9.97243,-0.49403 m -6.74945,-18.04489 c 2.42312,8.70059 2.43031,17.91505 3.93116,26.74233 m -10.24702,-26.57332 c 0.83088,18.31815 -11.70656,20.93531 9.98687,14.43071 m -39.85779,-16.0688 c -0.52326,9.6355 1.88741,19.41078 2.50033,28.78344 m -16.14377,-18.16191 c 4.94983,0.94462 11.84291,4.66642 16.8086,2.24911 m -11.24427,-5.78528 c -0.0962,7.05359 0.74073,14.04144 2.93391,20.74903 M 178.01314,292.0854 c 0.5612,-1.68696 -3.4595,-3.98169 -4.27803,-2.50913 -1.32059,2.37582 -1.08732,5.50803 -0.62147,8.06041 3.66798,20.09656 17.87332,-0.0594 4.8995,-5.55128 z m -26.54153,5.60033 c -0.0584,4.39409 -0.72264,8.78187 -0.72264,13.18266 M 128.01473,281.0709 c 0.59503,7.96287 -0.53497,16.74273 1.71989,24.50623 m 9.82789,-23.46617 c -0.93573,-0.21569 -1.84852,-0.0859 -2.78939,-0.052 m -12.7329,11.50557 c 2.84239,2.12059 5.97741,1.59177 9.01854,0.104 0.16324,-0.0799 4.25577,-2.69358 4.32138,-2.62613 2.17798,2.23903 2.11635,11.83964 2.97728,15.08075 m -19.69916,-13.32566 c -4.95919,-8.06376 -13.79824,8.10992 -9.71227,12.25961 3.5552,3.61063 7.74206,-8.19531 8.33926,-10.0755 0.39378,-1.23975 0.0168,2.60435 0.13007,3.90019 0.29018,3.31861 2.75931,7.91866 6.61938,5.33027 M 91.547274,293.43853 c 0.50777,1.15887 0.55266,2.43832 0.69374,3.67918 2.65949,23.39122 -0.22512,-16.02603 7.11077,-4.39421 3.320066,5.26432 2.769836,13.53687 10.738416,12.23361 m -37.143656,-9.08746 c 0.0171,1.91937 0.49571,3.80066 0.95388,5.65529 0.48378,1.95827 0.65037,4.46845 0.65037,6.51332 0,1.55106 0.44308,-3.08428 0.91053,-4.56323 0.87401,-2.76522 2.41885,-10.55731 6.05572,-11.10255 3.90814,-0.58591 3.52477,7.79883 3.65655,9.91949 0.11077,1.78242 0.10809,3.55769 0.30351,5.33027 m -17.78509,-25.62321 c -1.08571,-0.28788 -2.21369,-0.18201 -3.32414,-0.18201 m -5.30418,12.0386 c -5.00619,-9.5229 -12.20721,10.89252 -3.51203,14.41772 4.04454,1.63973 7.24437,-2.10337 8.97519,-5.13526 0.785,-1.37509 1.02224,-5.7398 1.8355,-4.38122 1.32533,2.21403 1.31458,5.14084 2.58705,7.39737 m -31.8684,-14.93774 c -0.0557,1.48151 0.16168,2.96191 0.0289,4.44622 -1.50528,16.82879 0.29484,-9.55149 5.24636,-2.65213 3.51111,4.89231 3.06364,9.56994 10.30484,9.50347 m -23.18227,-16.83584 c -1.04257,0.37936 -1.8799,1.12001 -2.76048,1.76809 m -5.14519,5.30426 c -0.16949,-21.28874 -20.2648203,7.07125 -8.2959,13.65068 4.48485,2.46537 9.76171,-0.8034 12.21261,-4.51122 1.04828,-1.58588 2.20439,-3.66743 2.71712,-5.51228 0.0849,-0.30528 0.0717,-1.1534 0.2746,-0.91004 1.01626,1.21886 0.69366,8.09838 0.83826,9.9845 M 7.1262337,247.87111 c 8.5182103,-8.14775 13.6702803,14.3391 4.7260703,17.91489 -3.1035603,1.24077 -4.2659903,-5.45335 -2.2835403,-6.0973 7.2541603,-2.35636 6.5332703,11.10421 17.4011503,-1.56008 m 3.93116,-11.37556 c -1.34743,-1.06692 -2.61587,-1.21787 -4.11904,-0.39002 -1.29835,0.71504 -1.96325,2.42755 -2.31245,3.78319 -2.21993,8.61811 13.57979,9.61137 12.4294,12.48062 -1.18697,2.96046 -9.66111,5.13032 -11.02748,1.44307 -2.27401,-6.1366 5.49327,-12.86438 7.22639,-18.20091 m 9.49549,1.75509 c -13.95328,-0.4728 3.90724,34.81529 1.53199,5.33027 -0.14756,-1.83176 -0.80547,-3.66015 -1.53199,-5.33027 z m 3.85889,2.66513 c 4.34447,-0.67971 8.50258,-2.13348 12.67509,-3.45817 m -7.93457,0.29901 c -8.76044,12.79351 6.15214,10.30923 8.68612,16.64083 1.72935,4.3211 -8.63943,2.34721 -9.97243,1.24806 m 39.86001,-21.32187 c -0.82607,1.45041 -1.50243,7.22366 -1.41637,7.07236 3.64051,-6.40061 -5.4931,-4.98154 -4.36474,5.60327 0.78479,7.36194 8.92327,15.65154 13.73014,5.38227 m 3.728816,-7.80039 c -1.858936,-1.01803 -2.614676,-0.74085 -3.222966,1.13106 -5.96013,18.34125 16.950236,4.93831 3.222966,-1.13106 z m 5.02957,0.11701 c 4.75514,0.7731 3.22646,7.02661 4.94286,10.1145 0.62515,1.12468 -2.89165,-12.83919 0.26014,-11.36256 2.41698,1.13235 4.83275,3.65188 7.64553,2.78214 m 2.02672,-15.68655 c 1.70857,9.15664 4.1313,18.23174 5.39089,27.47036 m 12.68955,-27.40536 c -1.86825,8.41435 1.75274,16.78943 1.86441,25.02624 m -21.75144,-10.37451 c 2.38322,0.37985 4.7797,-0.0623 7.13967,-0.40302 0.47054,-0.0679 8.3839,-1.84429 5.969,-3.66618 -6.86906,-5.18231 -4.68601,20.82765 3.97452,10.24451 m 8.16583,-6.95535 c 1.29785,2.0061 2.80702,3.98041 4.52372,5.66828 12.23076,12.02531 11.35686,-9.59557 10.99857,-9.72448 -1.93138,-0.69493 -2.89056,24.69144 -2.89056,27.63937 m 17.77693,-25.41626 c -0.55621,1.4609 -0.82367,15.30553 2.71712,13.80668 3.27548,-1.38652 5.08778,-8.53695 6.14244,-11.51857 0.12636,-0.35724 2.01515,-4.42897 2.02339,-4.42022 2.57342,2.73574 1.78098,10.45618 3.90225,14.18371 m -21.47036,-10.99733 c -8.93058,11.55487 9.81644,12.22009 5.86783,4.35522 -1.50943,-3.00649 -7.19837,-2.01652 -8.97518,-5.47328 m 94.36995,6.79386 c -3.67901,0.67146 0.8554,-0.20986 -1.58981,0.39002 m -21.86707,-15.13276 c 1.12184,0.29392 1.76962,21.79273 1.87887,21.80209 2.94336,0.25215 6.42832,-3.47817 8.83065,-4.78424 m -24.10725,-2.97715 c 1.72527,-22.71569 18.4351,-9.2039 5.26081,-0.27301 m -7.21194,-12.0386 c 0.86417,8.2886 2.43477,17.13389 3.81554,24.97424 m 28.78815,-80.69273 c -0.39381,10.97201 2.97728,21.34297 2.97728,32.39761 m -5.46316,-16.38081 c 3.55811,1.44143 7.78211,2.32851 11.64895,2.22311 m -16.3461,-12.49362 c -1.35426,-0.29499 -2.53269,0.21231 -3.78663,0.67603 m 3.68546,8.93144 c -0.29282,5.55971 -1.97807,12.23908 2.3269,16.62783 m -12.93525,-11.79159 c 0.17017,-2.31441 -0.67607,-4.45959 -3.30969,-4.26421 -10.60796,0.78698 -7.7588,25.12371 0.54921,11.77859 2.86354,-4.59969 2.6764,-9.67177 2.48588,-14.89874 -0.0634,-1.74035 -0.3657,-3.56107 -0.72264,-5.26526 -0.0498,-0.23791 -0.27907,-0.90487 -0.30351,-0.66304 -0.48581,4.80701 -0.1932,24.37256 6.15689,25.54627 m -29.25588,-8.56529 c 3.06332,-0.93575 7.07255,-2.19372 9.17752,-4.79724 2.29221,-2.83512 -11.42355,0.19954 -7.57326,9.20446 2.16931,5.07352 9.60586,2.26573 12.19815,-0.85804 m -21.65027,-4.34222 c -0.52233,-4.48486 4.11736,-4.66677 7.5299,-4.38122 m -13.7157,0.11701 c -0.39491,-19.1164 -16.11294,-7.4945 -11.938,7.52737 0.70723,2.54469 2.58926,5.8946 5.1741,6.98135 5.1185,2.15197 10.75161,-4.17288 12.11143,-8.54143 0.53631,-1.72294 0.82527,-3.5913 0.66483,-5.39526 -0.0247,-0.2773 -0.0443,-1.10902 -0.0723,-0.83205 -0.39518,3.91021 2.07286,12.19116 2.6015,14.46973 m -69.36807,-20.7469 c 0.17012,2.60888 0.7902,5.13813 1.27185,7.69638 0.33438,1.77607 0.76598,3.5294 1.27184,5.26526 4.97826,17.08302 2.68942,-6.94879 8.5416,-4.49822 3.72849,1.56128 3.78829,9.95569 5.07293,12.22061 m -15.97033,-12.74064 c -0.30733,-0.79402 -0.77285,-1.43968 -1.69098,-1.62508 -13.42149,-2.71026 3.92572,13.82831 3.59874,15.82179 -0.77143,4.70323 -7.14395,3.75948 -7.32756,-0.97505 m -6.7639,-10.75154 c -4.36217,-0.56879 -11.06129,7.38315 -8.31036,11.71359 1.83659,2.8911 7.16406,-5.93219 7.4721,-6.99435 0.445,-1.53448 0.93674,-6.3139 0.83826,-4.71924 -0.25678,4.15757 -0.23309,17.62355 7.97793,11.27156 m -28.20273,-18.77775 c -1.10818,0.75143 -0.0118,8.47765 0.95389,6.86434 2.4881,-4.15649 -6.225806,-7.52963 -6.995146,2.57413 -0.94733,12.44134 13.709276,12.51118 19.930386,4.74523 m -60.394476,0.73566 c 3.2131,-0.10513 6.49886,-1.42648 7.94903,-4.48523 1.84934,-3.90068 -6.01603,-1.25819 -6.30141,5.03125 -0.2571,5.66608 6.78358,17.45931 11.67785,7.61838 m -19.1933,-18.38291 c -3.22958,10.207 -11.36544,14.78926 4.9284,14.96374 m -13.68679,-20.90504 c 2.7399,7.87416 0.69118,18.43497 5.56432,25.59828 m -30.76576,-12.67203 c 1.80531,-0.5183 3.70931,-0.54478 5.54987,-0.89704 2.95573,-0.5657 6.33792,-1.65489 9.35095,-1.69009 5.18156,-0.0605 0.17379,-0.5828 -1.89332,1.54708 -2.2707,2.33966 -5.53386,12.03376 0.41914,11.93459 4.72944,-0.0788 5.74029,-13.15364 5.75221,-12.93564 0.10686,1.95462 1.38894,19.69906 5.63659,13.58567 M 19.777374,203.396 c 2.21098,7.93891 3.2828,16.49504 4.84168,24.36321 m -6.61938,-22.34811 c -5.45004,-0.80169 -16.5078803,7.1772 -10.8684903,12.97465 2.71084,2.78682 10.4184603,3.65729 11.6055903,7.54037 1.14588,3.7482 -12.0943903,6.39777 -9.4954903,0.039" />
  </g>
</svg>
