<?xml version="1.0" encoding="UTF-8" standalone="no"?>
<!-- Created with Inkscape (http://www.inkscape.org/) -->

<svg
   version="1.1"
   id="svg59"
   width="3000"
   height="1998.207"
   viewBox="0 0 2999.9999 1998.207"
   sodipodi:docname="WilF - Stake - Envelope58.svg"
   inkscape:version="1.2.1 (9c6d41e410, 2022-07-14)"
   xmlns:inkscape="http://www.inkscape.org/namespaces/inkscape"
   xmlns:sodipodi="http://sodipodi.sourceforge.net/DTD/sodipodi-0.dtd"
   xmlns="http://www.w3.org/2000/svg"
   xmlns:svg="http://www.w3.org/2000/svg">
  <defs
     id="defs63" />
  <sodipodi:namedview
     id="namedview61"
     pagecolor="#ffffff"
     bordercolor="#000000"
     borderopacity="0.25"
     inkscape:showpageshadow="2"
     inkscape:pageopacity="0.0"
     inkscape:pagecheckerboard="0"
     inkscape:deskcolor="#d1d1d1"
     showgrid="false"
     inkscape:zoom="1.9286613"
     inkscape:cx="551.93724"
     inkscape:cy="227.10053"
     inkscape:window-width="1366"
     inkscape:window-height="705"
     inkscape:window-x="-8"
     inkscape:window-y="-8"
     inkscape:window-maximized="1"
     inkscape:current-layer="g65" />
  <g
     inkscape:groupmode="layer"
     inkscape:label="Image"
     id="g65">
    <path
       style="fill:none;stroke:#8e868d;stroke-width:0.5488"
       d="m 255.01321,33.603555 c -2.43504,0.768871 -2.82249,-1.33304 -3.65887,-3.841609 -1.6475,-4.942506 -3.47556,-12.891899 -3.47556,-17.561649 0,-2.2961869 -0.49831,-4.2455299 1.64641,-4.9392136 m 17.01285,1.6464046 c 0.63947,7.495927 1.28419,14.986936 1.6464,22.500862 M 22.321375,11.102693 c 0.943953,9.961957 2.237587,19.701822 2.744004,29.63528 M 47.56624,11.651497 v 4.390409 l 3.292809,22.500862 M 210.01148,30.859546 c -2.25283,1.304504 -4.03698,3.254394 -6.58562,3.749962 -3.60946,0.701916 -5.65924,-2.263259 -7.22607,-5.396366 -2.50472,-5.010009 -2.10794,-9.327429 1.37201,-14.268836 3.20445,-4.550115 8.01524,-2.366435 9.69568,2.195204 m -54.33136,-4.390413 3.29281,23.598467 m -35.12329,1.0976 c -5.24764,3.175914 -13.99992,3.80978 -15.27479,-3.841609 -0.86272,-5.174102 1.85549,-11.006761 5.48801,-14.81764 3.66929,-3.850393 11.82448,-3.783438 11.98198,2.195204 m 103.53675,3.677689 c 2.08106,0 11.62376,-3.157425 9.24196,-6.878846 -8.08562,-4.118284 -15.20246,15.181413 -2.08586,14.328094 M 6.4061301,45.677185 C 9.9458998,46.7018 20.743568,47.566163 15.553006,40.829624 12.10269,36.351404 6.4110693,35.281241 5.4001769,29.213142 5.19273,27.969011 5.3085257,27.201787 5.3085257,25.920333 c 0,-1.054247 -0.1481764,-1.790189 0.1827509,-2.744005 1.725432,-4.968849 8.5261814,-4.461209 11.8908844,-3.841613 m 197.187519,3.109757 c 1.67219,-3.518983 4.10463,-4.518985 5.86903,-2.560953 M 143.6065,34.152355 c 0.28977,3.669836 5.6908,7.587113 7.68322,3.292809 -2.75855,-6.147357 -11.88018,-14.981231 -3.84161,-18.018798 2.51296,-0.824849 3.23683,1.069064 3.29281,3.201158 m 100.33133,6.745858 c -3.90783,4.077181 -16.2773,10.778751 -15.17545,2.583768 0.79467,-4.767987 7.75384,-10.790102 12.53061,-12.675787 m -34.02552,0.602156 1.09761,13.171236 m 56.52655,-12.073636 c -2.31868,1.037235 -6.18389,1.602503 -8.23202,2.195209 M 42.441343,34.008525 c -2.460276,4.920551 -13.53435,8.897762 -13.53435,1.790234 0,-2.802727 2.235265,-11.523732 4.939213,-12.622431 1.713907,-0.696429 4.244431,-0.0472 6.455342,0.572969 0.418528,4.199451 2.180049,13.472507 5.069487,15.342271 m 93.035115,-4.218874 c -1.27431,1.651891 -9.80662,5.233611 -10.62324,1.47487 -1.28584,-5.914437 4.77457,-13.72004 10.94951,-13.270564 l -0.31212,14.86863 m 16.85545,-9.301918 c -0.57569,-1.989408 3.29657,-7.546245 6.4412,-5.741786 2.55412,1.4653 3.45416,12.126316 4.39041,15.092042 M 55.249462,23.725128 49.604056,30.433946 m 209.250754,-5.611214 1.64641,7.683219 M 19.577366,30.310746 26.711784,28.115541 m 51.58734,6.036814 c -1.69031,1.645857 -3.160001,3.195671 -5.488017,3.292809 -6.90314,-1.53505 -4.271523,-12.484862 -1.005954,-15.823593 1.398349,-1.374748 4.132476,-1.862631 5.121965,0.457153 1.657382,3.886062 -5.586358,7.049393 -8.221704,7.604231 m -19.06363,0.593603 8.900487,3.875797 m 195.236569,37.08507 c 2.61559,-2.686384 10.95474,-8.053469 11.11279,-11.8402 0.21074,-5.061594 -8.05172,-6.469851 -11.69961,-2.040763 -0.28449,7.185119 1.20965,14.841624 1.27238,21.248817 M 269.28204,60.49483 c 0.2728,3.316562 -0.45715,16.189642 -0.45715,16.189642 0,0 6.19542,-2.493204 8.68917,-3.018407 M 146.89931,63.238834 c 1.14369,7.523669 2.50756,15.009463 3.84161,22.500863 m 14.81764,-22.500863 2.19521,15.915245 0.5488,4.939213 m 37.8673,-14.81764 c -2.01248,15.00268 10.04337,7.372928 10.15283,-2.469607 l 0.8232,10.701629 M 10.796543,71.470857 c 1.311633,-3.560074 6.167432,-5.900714 8.232023,-1.646405 0.580082,1.195841 0.531788,2.068983 0.5488,3.292809 0.03075,2.199049 -0.167386,3.040909 -0.457153,4.939213 -0.935899,4.719929 -1.548147,13.012967 -5.579665,11.524832 -5.3385321,-1.970586 4.129891,-5.252113 9.878427,-4.39041 m 87.259435,4.39041 c -2.4032,0 -5.32612,0.710699 -7.68322,-1.646405 -3.527145,-3.527146 -2.73797,-7.875847 -1.28035,-12.073631 1.41426,-4.073205 6.52031,-7.28534 10.60998,-7.683222 2.84443,-0.276596 4.31193,0.86656 4.39041,3.841613 M 34.395006,69.824452 c -11.794677,2.386315 1.806353,11.49888 1.646404,17.012849 -0.124027,2.234718 -1.659028,3.297197 -3.841609,4.02436 -0.886317,0.295805 -1.774824,0.502701 -2.744008,0.366049 -2.253928,-0.317204 -2.744009,-2.36259 -2.744009,-4.390409 0.697577,-5.702235 3.835036,-9.343638 7.683222,-13.171236 M 196.29145,69.550054 c 5.17904,-2.553026 10.74608,6.426464 3.8416,9.878427 -4.41126,2.20563 -10.24118,-6.723369 -3.8416,-9.878427 m -33.59133,14.543238 c -7.00306,1.732701 -13.77583,-10.404161 -6.47119,-13.445638 1.31823,-0.698075 5.24051,-0.363855 4.84757,1.920807 -0.29251,1.703481 -6.41077,2.481629 -7.8887,3.026042 m 135.85109,-5.221247 1.09761,1.097601 M 43.175828,71.196459 c 2.081054,-0.896196 4.641764,2.606805 5.396365,4.116011 1.614575,3.228599 -0.308977,8.500933 -3.749962,9.695676 -2.039342,0.707954 -3.124874,-0.218425 -3.933258,-2.012458 -1.359379,-3.016761 -1.655184,-10.101239 2.286855,-11.799229 m 10.976029,16.738442 c 1.480665,2.557965 3.739532,3.960154 6.585618,3.841613 16.435768,-5.066204 -3.247874,-10.898469 -3.879694,-15.518959 -0.01535,-1.118456 0.03424,-4.838284 1.68449,-5.243847 4.30813,0.760914 6.90637,1.005953 11.524831,1.005953 M 189.15702,70.922056 c -2.97395,5.947912 -5.48801,13.558141 -5.48801,19.756854 m -7.13442,-17.561649 8.43771,8.026156 m -54.53703,1.852271 c -0.33093,2.16722 -2.28741,3.535382 -4.39042,4.207662 -1.34895,0.430811 -2.53765,0.87918 -3.84161,0.5488 -3.73404,-0.946682 -4.12644,-6.666839 -1.6464,-9.146871 1.19913,-1.199134 3.25274,-2.432839 4.93921,-3.018411 4.16541,-1.446638 5.31021,4.980373 4.93922,7.40882 z m 2.77171,-6.09871 c 2.48874,-3.070174 4.56715,-2.447401 6.55791,-1.035708 m -6.64044,-2.184594 1.70123,13.160625 m 10.28339,-8.403561 6.91455,-0.301811 m 99.14797,24.071811 c 0.38329,8.93611 0.4857,18.42952 1.09761,26.34247 m 52.68494,-24.69606 c 2.21716,-0.40831 10.42723,-1.99325 10.42723,1.6464 0,2.55577 -2.14197,2.45479 -3.29281,4.39041 2.72425,1.6486 6.05109,2.08106 5.48801,6.58562 -0.77216,6.17896 -8.52508,9.76757 -13.17123,5.48801 m -9.32963,-17.56164 2.74401,18.65925 m -38.96491,1.6464 c 19.15441,1.38833 3.84736,-13.55569 0.64046,-13.17123 -0.17672,-1.06029 -0.41177,-5.09155 -0.41177,-5.09155 0,0 6.65179,-0.39647 10.19854,-0.39647 m -26.34247,0.5488 -3.84161,13.72004 16.1283,1.0976 m 23.38541,-11.52483 c 0.92692,-0.46374 1.76384,-0.74746 2.74401,-1.00595 0.78478,-0.20745 1.37968,-0.45825 2.1952,-0.5488 2.19795,-0.24422 3.17592,0.55099 3.29281,2.65236 0.0971,1.75067 -6.55737,11.00298 -5.45221,12.59694 2.68553,-1.30657 7.46652,-5.46669 10.39142,-6.56013 m -222.264602,-8.23202 0.548804,1.0976 m 242.021458,0 -3.29281,1.64641 M 25.065379,128.54621 c -2.263254,3.1858 -7.66456,7.13442 -11.524831,7.13442 -6.8847119,0 -6.9220318,-11.03969 -4.9392132,-15.36644 1.4921942,-3.25549 4.7482302,-7.23046 7.6832222,-9.14687 4.010094,-2.61778 6.847944,1.12998 7.134418,4.75646 m 177.811685,-4.93921 c -0.46264,2.51076 -0.2744,3.21323 -0.5488,6.03681 -0.50325,5.17794 -2.4537,10.31912 1.0976,14.81764 m -69.69779,-20.30565 c 0.68964,7.50502 1.35967,15.01076 2.19521,22.50086 m 7.68322,-21.95206 1.0976,1.0976 m 64.75858,0 0.5488,4.39042 v 2.744 2.74401 8.23202 m -181.104492,-17.01284 1.646405,0.5488 m 159.701227,4.39041 c 3.12268,4.7839 3.10018,12.1801 -2.74401,15.18369 -4.03204,2.07172 -7.55864,-3.00085 -8.59807,-6.40287 -0.91101,-2.98274 0.56033,-11.03585 3.75051,-12.89683 2.41802,-1.41042 6.25415,2.06678 7.59157,4.11601 z m -150.66634,1.11116 c 5.189866,-4.86721 7.800012,5.6665 8.526755,8.76727 m -8.533831,-11.06505 0.301811,11.06505 m 24.696065,6.03681 c -2.506375,1.51689 -5.871626,1.62885 -8.140371,-0.64045 -2.10136,-2.10081 -1.739151,-5.62741 -1.006501,-8.14037 1.245777,-4.27078 6.753,-8.09043 9.146872,-4.39042 m 137.10912,-1.27293 10.51849,-0.37347 m -89.05027,10.53039 c -1.24633,1.01638 -6.2085,4.66263 -7.5388,5.56761 -2.59967,1.76933 -6.52086,2.18642 -7.13442,-1.82916 -1.029,-6.73654 6.39409,-15.11948 13.73531,-12.03546 -0.88367,3.82326 0.44243,11.01469 4.92394,11.48666 M 28.906993,121.41179 c -0.24422,3.09579 -0.324342,7.96037 0.5488,10.97604 m 47.730638,-2.75928 c 0.824589,-3.42099 7.732412,-10.57361 9.710765,-5.47275 1.020223,2.89877 0.442335,6.76398 0.731555,10.42723 m 7.134418,-1.6464 c 0.392943,-2.1321 -0.336966,-9.09804 2.195204,-10.15283 2.693518,-1.1223 5.069277,6.90831 6.036817,8.50642 m 37.8673,-8.78082 c 0.44832,4.40129 0.55117,7.38395 0.5488,11.52483 m -14.14504,-8.49965 10.99607,-2.75756 m -61.6096,2.47638 c 0.49814,3.27877 0.792138,6.57813 1.0976,9.87843 m -9.329623,-7.68322 1.097601,6.03682 m 88.905842,-2.19521 -1.6464,8.23202 m 333.67132,26.34247 c 1.41838,9.65528 3.183,18.30474 2.74402,27.98888 m 29.08646,2.74401 c -0.41708,-5.25752 -2.68364,-14.90545 -3.8416,-20.85446 -0.5543,-2.85431 -1.14149,-4.58853 1.09762,-6.03681 m -21.06299,13.56913 c 1.84397,-2.2907 6.76668,-1.46038 6.24535,-5.88591 -0.31282,-2.66224 -2.70562,-1.22273 -3.74833,0 -3.95265,4.70523 -4.52189,15.57121 3.6872,15.36644 m -58.66065,-15.36644 1.09758,1.0976 m 74.39291,12.43956 c -1.72325,0.68051 -9.48066,5.03922 -11.28071,4.29889 -2.32691,-0.95876 -2.96353,-5.3585 -2.65071,-7.40882 0.72989,-4.79269 6.35952,-8.87577 11.27128,-10.42723 m -90.39201,1.6464 v 4.93921 l 1.55474,9.87843 1.18928,4.02436 7.13441,-1.28035 m -94.39386,-17.01285 c 0.38086,2.06734 1.92408,6.23274 2.56123,8.78083 1.16183,4.6478 1.88901,13.42697 2.92678,17.01284 m 135.554,-23.59846 11.25013,-0.97563 m -180.28102,2.07323 c 2.6989,8.88773 5.071,17.68082 6.0368,26.89128 m 134.73109,-22.82685 c 1.54215,-3.90746 7.45241,-4.42609 7.95732,-0.77162 0.43354,3.11829 0.54879,4.56768 0.54879,8.23202 m -0.38728,-6.99707 4.7777,-2.88135 c 3.40143,-2.05136 2.8922,7.78529 7.13445,8.23202 m -104.82111,14.81764 c 3.04585,0 9.65406,3.62772 10.42721,0 1.14718,-5.38271 -13.29031,-20.85446 0,-20.85446 m 68.05139,1.09761 0.54883,12.62243 m 30.73289,-12.62243 c 0.48294,2.62711 1.27868,8.47239 4.39039,10.42722 m -120.92587,-1.35137 c 0.6805,-0.53069 2.65421,0.0699 3.48235,-0.47778 1.72543,-1.14261 4.26855,-4.32675 4.11601,-6.40287 -0.17287,-2.34777 -2.87902,-1.32041 -4.02439,-0.36605 -4.01924,4.2089 -3.66333,6.12294 -3.38443,10.24448 -0.28503,4.9308 5.93294,4.42176 7.34309,4.08506 m 83.77858,-21.32368 0.52817,11.2018 m -103.7235,-3.29281 -5.12962,6.89802 m -125.48511,21.09086 c 0.37922,3.60453 5.82717,2.59967 9.32962,1.18925 1.33798,-0.53892 3.65886,-1.12888 3.65886,-2.83565 0,-3.98815 -10.86627,-4.46341 -12.98848,-6.58562 -2.04045,-2.04045 -1.8083,-8.25672 0.0917,-10.33558 2.04373,-2.23692 6.55927,-4.4667 9.23797,-5.03086 m 64.20978,17.56164 c 3.34439,1.23206 8.38307,3.63354 9.32962,0 1.1191,-4.29586 -8.34123,-9.10571 -7.40882,-14.26884 0.56527,-3.13036 4.2834,-3.2928 6.86002,-3.2928 m -15.36644,32.37928 c 0.69504,-10.94725 -1.39002,-20.62559 -2.85449,-32.07057 13.68249,0.77811 9.19681,8.26549 1.71267,13.80568 m 27.48429,-10.82159 8.23203,-1.0976 m 20.30564,12.62244 c -2.13592,-0.6185 -3.66708,-0.32105 -5.30525,-2.74401 -1.4527,-2.14911 -1.7663,-8.07292 -2.41568,-11.04795 -7.76795,-3.34672 -12.93782,14.42944 -7.6455,13.6092 2.13317,-0.42092 7.62216,-3.63621 9.04741,-5.18328 m -83.68442,-4.51239 c 0,2.8598 1.8094,10.40143 -0.5488,13.72004 -2.69352,-3.41135 -2.8598,-7.24253 -5.48801,-9.32963 -1.39725,3.31861 -1.52457,8.61948 -5.48802,10.97603 -1.17553,-2.62766 -1.68592,-6.81666 -2.744,-9.32962 m 107.9319,-8.4846 7.31642,5.19179 m -71.15379,6.1207 c -6.52337,5.99578 -10.02711,-6.79328 -7.14209,-11.05992 0.92034,-1.3034 3.4377,-2.72754 4.11602,-0.5488 0.82539,2.64906 -3.00103,5.30113 -4.8236,7.1237 m -1.42397,6.99423 c -11.63051,4.59661 -13.87599,-9.04614 -10.67363,-13.56913 0.8254,-1.21175 2.28576,-2.76266 3.84161,-1.9208 4.06827,2.20069 -3.51426,7.49722 -4.86376,9.15131 m 392.86645,4.84313 c 1.4653,-4.63957 7.11246,-4.07156 8.78081,0.5488 0.48293,1.33578 0.54878,1.95373 0.54878,3.29281 -0.55002,5.61339 0.88034,13.31413 -4.39038,12.07363 -5.23655,-1.23247 4.52399,-2.52097 8.23202,-5.48801 m 1.64641,-10.42723 6.03679,-1.18926 2.65071,-0.73155 -0.45548,5.21361 -0.54883,14.26884 m -96.04025,-14.54323 c 5.65816,-2.95311 7.63385,5.38429 6.76673,9.05522 -0.60917,2.59693 -2.66718,9.1798 -5.66911,10.70163 -3.77027,1.91148 -5.48804,-3.18031 -5.48804,-5.76242 0,-3.75654 0.81773,-12.1307 4.39042,-13.99443 m 43.90414,11.25043 c 2.0964,1.93287 11.36706,4.60761 11.72375,-0.48691 0.14098,-2.02599 -7.46698,-3.89336 -11.30857,-7.60255 -1.54252,-1.48938 -0.94673,-4.09612 -1.31354,-5.0131 l 12.97197,-0.61748 m 7.68324,4.11601 c 3.80867,1.90544 7.20026,8.62222 2.19519,11.15878 -5.71302,2.89602 -10.28455,-10.10234 -6.49231,-12.25638 0.90553,-0.51643 3.22696,0.56252 4.29712,1.0976 z m -79.02741,-0.8232 c 1.65735,3.93216 0.37315,7.26832 0.54878,11.52483 0.0988,2.35161 0.54879,6.37378 0.54879,9.32962 m -55.97775,-18.65925 c -4.1654,2.6326 -10.02109,7.19973 -6.85999,12.62244 1.2732,2.18642 6.61303,5.80302 6.21789,8.23202 -0.34023,2.10411 -3.25436,1.64641 -4.8459,1.64641 -3.79221,0 -5.83375,-0.84571 -6.58562,-4.93922 m 72.4418,-17.01285 c 0,3.14189 0.50491,4.89751 0.54878,8.23203 0.0439,3.23738 0,7.12893 0,10.42723 m -34.02566,-10.42723 -6.58562,0.5488 c -2.50805,-5.9545 2.70011,-7.33309 7.13441,-7.68322 m -26.89126,2.74401 12.07362,-1.09761 m 83.96662,1.09761 h 6.03683 m -147.62761,2.17239 1.59302,22.98095 c 10.4422,-6.89856 9.68485,-19.25538 -1.59302,-22.98095 z m -23.15618,8.25466 c 0.99047,-5.30974 9.22797,-12.34496 10.53373,-6.03664 0.83815,17.6939 -9.06493,13.00082 -7.38202,10.86546 7.36745,-4.12737 10.39247,2.40744 15.17952,2.47337 m 56.35749,-18.17489 1.1524,11.42167 -0.54878,4.39042 M 377.94472,225.13528 c 0.0656,8.97968 1.42208,17.62131 3.29281,26.34247 m 151.46926,-26.34247 c 0,2.64467 -0.86712,8.71167 0.54879,12.07363 l 7.68323,-1.6464 m -97.1379,-7.13442 3.29281,14.81764 M 320.86938,231.7209 c 2.65509,-1.95648 8.4082,-3.79222 10.79326,-0.54881 1.32594,1.80337 1.50152,4.04467 1.28037,6.03682 -0.48458,4.36133 -6.21604,6.0954 -8.20107,9.459 m 35.64116,6.45625 c 2.30221,-0.0604 12.36832,-0.371 11.34208,-3.84162 -1.27708,-4.31687 -7.17285,-6.43799 -7.86652,-10.97602 -0.48133,-3.14958 4.64945,-8.79674 7.50044,-4.39042 m 27.44009,12.62244 c 0,-4.13083 -1.63513,-12.25875 2.74402,-12.62244 6.82282,-0.56663 6.18937,10.34601 6.58562,15.36644 m -51.58737,-0.5488 c -8.68207,-0.94731 -10.06356,-9.19308 -4.39038,-12.89683 1.16894,-0.72826 4.39972,-1.67933 5.21358,0.2744 0.70195,1.68427 -1.82092,2.63589 -3.01839,3.20116 -1.41262,0.66734 -4.73996,0.46698 -5.49179,1.56293 m -26.77078,-9.84007 c 1.10749,7.10533 3.53446,20.03052 3.72491,27.02804 m 10.53633,-20.22659 c 2.29908,-3.07531 5.17481,-2.70983 7.57411,-1.72547 m 31.28169,1.0976 7.1344,-0.5488 m 6.03683,0.73155 c 7.37038,-1.84232 8.98279,9.95471 1.64641,11.89088 -5.68504,1.50043 -8.66943,-10.13471 -1.64641,-11.89088 m -108.1139,1.46366 2.28686,13.17123 0.45715,6.03682 m -48.84333,-17.01285 c 13.31104,-4.47642 9.05492,17.83575 3.84161,12.62244 1.52809,-6.92654 13.6103,-8.11141 12.80518,-3.84161 -0.60423,2.5607 -2.34228,5.45618 -2.92676,8.23202 m 88.62466,-23.24124 c 0,3.93161 1.40895,13.51702 2.4764,17.20442 M 228.67073,240.50172 c 0.27331,3.46513 1.59537,8.94876 1.64641,12.62244 0.0527,3.78892 -0.54881,6.35566 -0.54881,9.87842 m 42.80652,-17.56165 c 2.66169,2.62327 3.60398,7.90933 0,10.24448 -5.50667,3.56721 -8.16507,-10.01892 -4.84756,-12.16528 1.43621,-0.92967 3.78783,0.87644 4.84756,1.9208 z m -13.72004,-1.0976 v 15.36644 m 219.52063,8.23203 c -0.99335,3.42562 -1.6464,7.88957 -1.6464,11.52483 0,2.22648 -0.54883,4.99244 -0.54883,7.68322 0,2.41637 -0.19757,6.71239 2.19523,7.13442 l 1.64641,-1.09761 M 450.38653,270.6858 c 5.6554,0 8.31434,1.60415 8.23202,7.68322 -0.49293,4.9304 -3.00798,14.56934 -6.03679,10.42723 -5.46693,-7.47643 5.78979,-4.47231 9.95457,-0.46877 m -36.29704,-15.44647 c 2.88668,-0.83583 6.56364,-0.68655 9.87843,-1.64641 m 49.48544,0.82321 c 1.32807,-0.90278 3.70441,-0.48789 4.8459,-0.0917 6.44292,2.23746 3.45745,10.07764 -1.09761,12.16528 -3.73183,1.71061 -5.44409,-1.57726 -5.488,-4.66481 -0.0276,-1.96856 -0.41708,-5.94407 1.73971,-7.40882 m -76.92554,1.9208 c 2.34118,0 7.72165,-1.36597 9.23798,-0.2744 2.28986,4.61281 -0.4118,16.69287 -0.45716,21.67766 m 52.13615,-21.95206 -2.2885,7.68322 -0.36221,3.56721 11.02659,-0.8232 m -104.96496,-8.78083 c -4.37499,6.96516 -8.43128,14.12965 -13.17124,20.85446 m 69.28285,-23.58785 c 0,2.51845 0.53121,8.28781 1.98005,10.41662 1.62994,2.39497 7.46854,2.95781 7.01743,5.86921 -0.70631,4.56054 -11.32105,5.14139 -12.97293,2.36281 M 277.51406,276.72262 c 1.28749,6.98789 0.0258,15.9103 3.84162,21.95206 m 64.20978,-20.30566 c 3.76092,-0.2969 7.41812,-1.20407 10.976,-0.5488 m -85.61301,0 c 0,2.43997 0.28702,2.7956 0.5488,5.48802 0.49118,5.05281 1.15358,12.77939 3.29281,17.56164 m 86.71061,-23.04966 10.42726,15.91525 m 38.41609,-12.62244 14.34312,0.52817 m -120.8106,17.03348 c 2.31814,1.58603 7.68322,2.89493 7.68322,-1.6464 0,-2.38126 -3.45196,-5.51107 -4.20766,-8.23203 -1.31658,-4.73945 0.78369,-7.89451 5.30526,-6.58561 m 38.50003,-4.69509 1.01369,9.6343 1.09757,9.87843 m -56.48863,-3.33844 c -1.3731,1.26498 -8.46914,6.27342 -10.28238,4.34439 -1.41481,-1.50481 -0.40776,-3.7774 -0.18275,-5.39637 0.68765,-4.95128 4.62886,-9.23315 10.61774,-8.95606 0.21164,3.96669 -1.18769,10.98279 0.90709,14.44408 m -64.67468,-16.42579 c 0,4.858 3.62326,20.09288 4.62673,24.7797 2.52638,-3.74168 7.32734,-10.36637 8.00346,-13.84193 0.25409,-1.30724 0.49448,-1.95867 0.45715,-3.29281 -0.13775,-4.96116 -6.74422,-8.14805 -11.52483,-7.68322 -1.86977,0.18166 -3.14244,0.98455 -4.93922,1.64641 m 33.80228,16.03549 c -4.56147,4.54985 -15.64038,11.43795 -15.14302,3.72136 0.56965,-5.859 6.65082,-11.52483 13.2741,-11.38925 0.69292,4.30482 1.90465,13.72824 7.03155,14.13326 m 54.33134,-7.13442 c 0,2.02947 -0.39349,7.36272 -0.54878,9.32962"
       id="path177"
       sodipodi:nodetypes="ccscccccccccccscccccccccccccsccccccccccccccccsscccccccccccccccccccccccccccccccccccccccccsccscccccccccccccccccccccscccccccccccccscccccccccccscccccccccccccccccccccccsccccscccccccccccccccccccccccccccccccccccccccccccccccccccccccccccccccccccccccccccccccccsccscccccccccccccccccsscccsscccccccccccccccccccccccccccccsccccccccsscccsccccccccccccsccccccccccccccccccccccccccccccccccsccscccccccccccccscccccccccccsccccccccssccccsccccccccccccccccccscccccccsccccccscccccccccccccccccccccc" />
  </g>
</svg>
