<?xml version="1.0" encoding="UTF-8" standalone="no"?>
<!-- Created with Inkscape (http://www.inkscape.org/) -->

<svg
   width="3000"
   height="1998.207"
   viewBox="0 0 793.74998 528.69227"
   version="1.1"
   id="svg5"
   xml:space="preserve"
   inkscape:version="1.2.1 (9c6d41e410, 2022-07-14)"
   sodipodi:docname="SavvS - Stake - Envelope32.svg"
   xmlns:inkscape="http://www.inkscape.org/namespaces/inkscape"
   xmlns:sodipodi="http://sodipodi.sourceforge.net/DTD/sodipodi-0.dtd"
   xmlns="http://www.w3.org/2000/svg"
   xmlns:svg="http://www.w3.org/2000/svg"><sodipodi:namedview
     id="namedview7"
     pagecolor="#ffffff"
     bordercolor="#666666"
     borderopacity="1.0"
     inkscape:showpageshadow="2"
     inkscape:pageopacity="0.0"
     inkscape:pagecheckerboard="0"
     inkscape:deskcolor="#d1d1d1"
     inkscape:document-units="px"
     showgrid="false"
     inkscape:zoom="0.51276154"
     inkscape:cx="50.705831"
     inkscape:cy="334.46346"
     inkscape:window-width="1450"
     inkscape:window-height="1030"
     inkscape:window-x="457"
     inkscape:window-y="0"
     inkscape:window-maximized="0"
     inkscape:current-layer="layer1" /><defs
     id="defs2" /><g
     inkscape:label="Layer 1"
     inkscape:groupmode="layer"
     id="layer1"><path
       style="fill:none;stroke:#5e535c;stroke-width:0.099435"
       d="m 56.890961,50.289681 1.010524,2.309006 0.154154,1.154503 1.096235,0.192417 M 1.7041086,55.581153 c 0.9211905,0.52198 2.2329622,0.316074 3.2886025,0.288626 0.4507751,-0.01173 1.1655644,-0.31338 0.9934362,-0.865877 C 5.7679391,54.303523 4.7970506,53.657828 4.0677917,53.496631 3.5227069,53.376149 2.7113472,53.40859 2.3378546,52.983521 1.6538862,52.205117 2.0535446,50.509884 3.2456419,50.38589 c 0.4371678,-0.04548 0.7279537,0.123002 1.1304553,0.192417 m 2.2609166,-0.09621 c 0.2549077,0.604537 0.4231091,1.253685 0.5823583,2.02038 0.046689,0.224792 0.125923,0.678781 0.137022,0.865878 0.009,0.151461 0.051959,0.456747 0.051959,0.456747 0,0 -0.4033405,0.05897 -0.5329225,0.04886 -0.1385718,-0.01081 -0.4653815,-0.02456 -0.6494943,-0.02456 M 52.266364,50.674516 c 0.26134,0.664079 0.608288,1.942614 1.010524,2.790048 0.201121,0.423616 0.17841,0.640316 0.376855,1.058295 0.09403,0.197988 0.193103,0.280813 0.291144,0.481043 0.202661,0.41387 0.462871,0.820149 0.890696,1.058294 M 30.582144,54.234234 C 30.062957,53.83769 29.169177,53.240149 28.424,53.496631 c -0.594928,0.20477 -0.583419,1.138782 -0.411075,1.60348 0.06752,0.181949 0.155527,0.442467 0.265503,0.577251 0.314543,0.385502 0.75026,0.675317 1.276027,0.59329 0.653917,-0.102029 1.01396,-1.033307 0.997594,-1.475275 l 1.057781,1.026298 c 0.808149,0.121136 1.828983,0.344519 2.158144,-0.33673 0.222336,-0.460163 -0.724006,-0.607249 -1.233225,-0.67346 -0.181901,-0.02366 -0.348797,-6.82e-4 -0.49668,-0.128275 -0.473147,-0.408204 -0.01121,-1.10739 0.59945,-1.122437 m -4.388607,2.079274 c -0.0595,0.27432 -0.466806,0.399262 -0.749831,0.50232 -0.49699,0.18093 -1.184719,0.186558 -1.6443,-0.112237 -0.790705,-0.514072 -1.023168,-1.322445 -1.147619,-2.084523 -0.08869,-0.543761 -0.178922,-1.202963 0.01716,-1.731754 0.09701,-0.261668 0.195465,-0.4324 0.376854,-0.67346 0.408299,-0.54276 1.303621,-0.640211 1.78129,-0.769669 M 11.87822,51.05935 c 0.690812,0.877672 0.71373,2.467519 1.233226,3.271092 l 1.438763,-0.865878 m 32.166638,0.09621 c 0.536042,0.501824 0.945407,1.238811 1.238343,2.133374 m -0.451734,-0.5224 c -0.745587,0.358703 -2.243973,1.173082 -3.150293,0.489577 -0.82184,-0.619785 -1.590552,-1.834996 -1.421599,-2.87022 0.03628,-0.22253 0.03432,-0.367526 0.10277,-0.577251 0.218281,-0.669006 0.96027,-1.109131 1.524369,-1.138465 0.206873,-0.01077 0.651655,0.151384 0.92492,0.272588 M 32.945827,51.82902 c 0.995314,1.011632 0.829344,2.08331 1.438763,2.886257 0.558343,-0.371404 1.2508,0.19642 1.558695,0.865877 0.10801,0.234836 0.158674,0.395755 0.273983,0.67346 0.09424,0.226735 0.113865,0.360581 0.11993,0.577252 m 12.435027,-2.501423 c 0.697491,0.01718 0.706562,0.308303 1.452047,0.0272 0.228661,-0.08623 0.547471,-0.265114 0.445654,-0.552117 -0.181191,-0.51073 -0.97524,-0.997622 -1.239097,-0.212041 L 49.1833,54.330436 m -2.015917,-0.30069 c 0,-0.605546 0.556289,-1.29971 1.296533,-0.661396 m 6.474436,0 c 0.669231,0.680224 0.642511,1.37561 0.924919,2.212798 m 0.924919,-2.212798 1.243197,0.380975 M 11.364376,53.96164 c 0.429369,0.240089 0.473457,0.45778 0.496683,0.849839 0.01349,0.227003 -0.01037,0.499439 -0.01037,0.499439 0,0 -0.09143,0.218368 -0.212225,0.366439 -0.271927,0.33315 -0.46955,0.664849 -0.890696,0.801734 C 10.267095,56.635334 9.8527229,56.497197 9.5145404,56.23857 9.2714491,56.052681 9.03349,55.795332 8.93218,55.484944 8.8044887,55.093692 8.7592827,54.562509 8.94074,54.282336 c 0.531399,-0.820468 1.507202,-0.83306 2.423632,-0.320691 z m -2.3755424,0.0703 C 8.7548809,53.83572 7.7036395,53.831274 7.4121865,53.831274 c 0,0.387249 0.3311181,1.4675 0.3552797,2.327133 m 50.2856828,-2.410687 0.208023,1.256185 0.06855,0.481042 0.102767,0.67346 m -9.23943,-1.812601 c 0.0095,0.334825 0.168746,0.800353 0.709618,1.23535 0.492777,0.396322 1.046804,0.232065 1.438764,-0.09621 -0.395814,-0.611106 -0.371876,-1.729654 -0.154155,-2.116589 0.305224,-0.514399 1.119406,-0.928016 1.619888,-0.965008 m -39.695731,1.927094 0.146506,0.572853 c 0.107522,0.420402 0.225209,0.717294 0.572877,1.25511 M 13.09616,54.339514 c 0.732662,-0.204786 1.632641,0.802275 1.802212,0.974594 M 15.06405,55.19632 c 0.09938,0.04653 0.187244,0.169443 0.411075,0.08017 0.40635,-0.162006 0.960066,-0.466621 0.667999,-0.833801 -0.139356,-0.175245 -0.558826,-0.0078 -0.796132,0.25442 -0.438016,0.477117 -0.522392,0.871037 -0.488477,1.461296 0.01285,0.287866 0.06115,0.474915 0.274081,0.769669 0.28981,0.401324 0.755661,0.570594 1.267449,0.577251 0.313549,0.0041 0.418579,0.02235 0.719383,-0.09621 m 36.519664,-2.901996 c -0.13473,0.252289 -0.965048,1.210106 -1.578271,1.170238 -0.314058,-0.02042 -0.359894,-0.121559 -0.71938,-0.192417 M 34.384588,54.715276 c 0.04443,0.374329 0.108852,1.074699 0.135985,1.546304 m -22.682855,-0.960795 0.817453,0.849362 m 27.998313,5.588355 c 0.237295,-0.444195 0.13658,-0.993642 0.719384,-1.122465 0.317245,-0.07014 0.726369,0.288626 0.907755,0.545214 0.425463,0.601689 0.498224,1.346343 0.428239,2.020381 -0.04306,0.414658 -0.253635,0.474981 -0.205539,0.769668 0.0369,0.226091 0.472224,0.499034 0.616614,0.577251 M 32.020905,61.065042 c 0.197522,0.501825 0.664194,1.266972 0.719383,1.731755 0.04337,0.365785 0.11911,0.713195 -0.119933,1.154503 -0.317759,0.586776 -0.916903,0.851446 -1.524369,0.49711 -0.472018,-0.275446 -0.450877,-0.328348 -0.966531,-0.908095 -0.444284,-0.499509 -0.28299,-1.358535 -0.06114,-1.416978 0.308248,-0.0812 0.373929,0.701984 0.253795,1.146449 -0.05858,0.216707 -0.220615,0.790711 -0.339414,0.970139 -0.194335,0.293437 -0.425154,0.486432 -0.839315,0.481044 -0.391751,-0.0051 -0.644049,-0.244851 -0.890695,-0.577252 -0.384869,-0.518853 -1.004565,-2.033465 -0.71938,-2.790049 0.107596,-0.285258 0.215402,-0.241099 0.376851,-0.288626 m 28.364191,3.367301 c 0.330197,0.154607 0.655152,0.444772 1.027688,0.352797 0.717019,-0.17712 1.71552,-1.365392 1.096235,-2.068484 -0.49072,-0.557145 -1.625495,0.215122 -2.226693,-0.224552 -0.301727,-0.220702 -0.102766,-1.378957 -0.102766,-1.378957 0,0 0.507162,0.06254 0.71938,0.112276 0.710339,0.166248 1.044748,0.217238 1.6443,0.320662 m -12.743335,3.335263 c -1.136931,0.400998 -1.98354,-0.911576 -2.140983,-1.795925 -0.107083,-0.601303 0.154155,-1.4464 0.702219,-1.795926 0.232259,-0.148064 0.598835,-0.168749 0.822153,-0.09621 0.23565,0.07668 0.430188,0.213776 0.582391,0.449006 0.260926,0.354335 0.52379,0.698381 0.702219,1.058295 0.308121,0.78742 0.101581,1.880531 -0.667999,2.18076 z m 3.631131,-0.545214 c -0.100919,0.28343 -0.224342,0.491722 -0.445298,0.625357 -0.453312,0.274193 -1.263131,-0.09679 -1.6443,-0.43294 -0.35188,-0.310272 -0.672855,-0.580203 -0.634203,-1.484092 0.05153,-1.205125 0.35015,-1.630468 1.250817,-1.770932 0.317042,-0.04945 0.541717,-0.08597 0.82215,0.416872 0.593024,1.063348 0.974865,1.735698 0.650834,2.645735 z M 11.353814,62.697292 c -0.08715,-0.387624 -0.139044,-0.61421 -0.01952,-0.753228 0.361793,-0.420853 1.879932,0.179273 1.879932,0.179273 0,0 0.476264,0.966142 0.476264,1.425539 L 13.72807,63.9513 13.316995,63.93524 12.08377,63.9513 m 3.093228,-1.153382 c 0,0 -0.04839,0.8682 0.315305,1.105278 0.217973,0.128919 0.505929,0.0081 0.702219,-0.0481 0.386101,-0.110447 1.293758,-0.380793 1.627138,0 0.38302,0.437461 -0.164122,1.228007 -0.496682,1.539338 -0.208004,0.194726 -0.38569,0.306712 -0.616612,0.384834 -0.352395,0.119106 -0.495963,0.11622 -0.924918,0 M 2.9749274,62.562016 c 0.01206,0.428801 0.084099,0.515421 -0.00332,0.908242 -0.079668,0.357991 -0.034252,0.496916 -0.034252,0.962085 0,0.227245 -0.052064,0.487008 0.205536,0.625356 0.7700368,0.4136 2.3172943,-1.031357 2.8603954,0.432939 0.4985213,1.34413 -2.0450273,1.175284 -2.6548566,0.769668 m 11.7996778,-3.429491 -0.0229,-0.0016 c 0,0 1.437322,0.09501 2.096994,0.160048 m -14.2202481,-0.02198 0.2779449,0.02198 h 0.4795917 l 1.9526082,0.09621 m 1.5415303,-0.0481 c 0.5508616,-0.207714 1.2438927,-0.05397 1.6443027,0.128246 0.4204873,0.191359 1.0178103,0.47325 1.2846083,0.881944 0.519363,0.795645 0.562844,1.895886 -0.4624584,2.389148 -1.3419459,0.645656 -2.8593175,-0.61814 -3.1687008,-1.715688 -0.177235,-0.628723 0.00303,-1.420039 0.7022482,-1.68365 m 35.249701,0.935438 c -0.386512,0.352316 -0.949171,0.856838 -1.54153,0.427555 -0.46842,-0.33952 -0.521655,-1.161045 0.102766,-1.218674 0.475718,-0.04387 1.064765,0.49788 1.420548,0.769668 m -28.859819,2.501423 0.08561,-1.924171 0.01966,-0.57366 1.025192,0.285034 m 30.625104,6.061141 c 0.218179,0.705498 0.497813,1.315747 0.633776,2.020379 0.04059,0.210408 0.125386,0.507429 0.125386,0.507429 0,0 -0.418585,0.17623 -0.553623,0.26224 -0.212321,0.13527 -1.107232,0.654314 -1.541533,0.513082 -1.040227,-0.33808 -1.105793,-2.291111 -0.719383,-3.014505 m 3.802447,0.962087 c -0.08211,-0.194729 -0.333586,-0.445255 -0.291145,-0.673462 0.09876,-0.532034 1.472988,-0.368765 1.472988,-0.368765 0,0 0.418473,1.388577 0.462459,1.811894 0.02598,0.250336 0.02479,0.336168 0.08561,0.577253 0.05028,0.199359 0.01972,0.309886 0.01716,0.481041 -0.0071,0.481141 0.102769,0.861069 0.102769,1.346921 m 1.335995,-2.886257 c 0.155284,-0.460358 0.17327,-0.767168 0.325469,-1.154503 0.24644,-0.627762 0.818348,-0.0071 1.027689,0.384835 0.300597,0.562915 0.398024,1.327388 0.27398,1.924169 -0.03371,0.162305 -0.176865,0.313737 -0.119829,0.481044 0.09465,0.278043 0.65618,0.591396 0.959143,0.673462 m 1.130456,-3.607823 c 0.72894,-0.346063 1.083081,0.717715 1.250388,1.106397 0.187863,0.436691 0.342118,0.732148 0.411075,1.154505 0.09537,0.584466 -0.03679,1.335278 -0.736544,1.635546 -0.561323,0.240809 -0.843628,-0.0095 -1.233225,-0.384835 -0.603254,-0.581196 -0.714961,-1.2992 -0.496681,-2.116588 0.129795,-0.486239 0.30255,-1.156523 0.804987,-1.395025 m 2.363682,0.0481 c 0.885252,1.049733 1.400638,2.995069 1.644303,4.233178 m -50.1511842,-3.65597 0.3083055,0.962084 0.633746,2.309007 0.7022483,2.501422 m 8.7353484,-5.772513 0.462461,1.058293 0.873537,2.597632 0.308305,0.769668 c 0.230208,-0.639539 0.37118,-1.208285 1.233225,-1.090332 0.499355,0.07138 0.945099,0.320893 1.275501,0.630203 0.141822,0.132768 0.241058,0.366999 0.283194,0.556338 0.0373,0.16779 -0.07204,0.401961 -0.137093,0.577252 -0.202762,0.546657 -1.028099,0.685391 -1.627138,0.545214 -0.249935,-0.05849 -0.793968,-0.360069 -0.793968,-0.360069 0,0 -0.186746,-0.612928 -0.233721,-0.858606 m 13.154407,-4.425593 c 0.138738,0.704824 0.216638,1.257638 0.325469,1.924171 0.134112,0.822294 0.377161,1.917534 0.70222,2.597631 m 1.438763,-0.769668 c -0.470887,-0.881657 -0.80098,-2.80605 -0.976304,-3.607823 0.766221,0.846294 1.62087,2.479488 2.415068,3.222989 0.438097,-1.152064 0.157542,-2.42821 -0.411078,-3.271094 M 7.7205036,74.947625 C 7.327024,74.676219 6.8698021,74.059081 6.3287141,74.101318 c -0.3813756,0.02972 -1.0116345,0.311137 -1.1818401,0.625354 -0.2524316,0.466035 0.1289731,1.032799 0.3596902,1.443129 -0.7411385,0.492972 -2.61557,0.474212 -3.4941384,-0.288625 -0.5805494,-0.504134 -0.7714556,-1.432259 -0.5481,-2.116588 0.3443584,-1.055026 1.2203605,-1.632949 2.2951692,-1.924173 m 44.08782,0.962087 c 0,0 0.6505,0.09845 0.976304,0.144313 0.359303,0.05058 1.07907,0.144312 1.07907,0.144312 m 1.889697,0.384833 c -0.648984,0.591587 -1.840986,-0.146528 -1.170314,-0.673458 0.394116,-0.309646 0.834875,0.384255 1.170314,0.673458 z m -5.659834,-0.643212 c 0.03874,0.459106 0.17919,1.116559 0.378769,1.701508 0.101741,0.298246 0.160111,0.585044 0.411074,0.769668 M 24.313257,73.957003 c 0.18704,0.604767 0.936531,1.030588 0.82215,1.731755 -0.08242,0.505192 -0.95359,0.895317 -1.438764,0.737632 -0.536144,-0.174329 -0.976573,-0.407118 -0.973667,-0.827515 0.0043,-0.615367 -0.01722,-0.59185 0.151517,-1.449453 m 3.288603,2.116588 c 0.614764,0.166633 1.568045,-0.148835 1.678522,-0.673461 0.03124,-0.148258 -0.08725,-0.261206 -0.239759,-0.352795 -0.334102,-0.200595 -0.713525,-0.213391 -1.027689,-0.432939 -0.536453,-0.374828 -0.486918,-0.816619 0.205539,-0.753603 0.129282,0.01173 0.37007,0.07138 0.513842,0.09621 m -14.901477,0.09621 c 0.541076,0.566093 1.228807,2.39194 0.10277,2.758014 -0.583625,0.189627 -1.054408,-0.220895 -1.438763,-0.545216 -0.707636,-0.597166 -0.884541,-1.181057 -0.719384,-2.020379 m 4.007986,2.693842 c 0,-0.3553 -0.105237,-0.932743 -0.171316,-1.250713 -0.03247,-0.156725 -0.0743,-0.374347 -0.01707,-0.577252 0.07471,-0.265054 0.167511,-0.365594 0.39391,-0.561183 0.244385,-0.211275 0.625351,-0.438904 0.924919,-0.368865 0.895014,0.209444 1.214421,1.704237 1.233228,2.373177 m -2.877527,-2.212797 0.308306,0.769668 m 2.297918,0.175365 c 0.154052,-0.486061 0.298993,-0.742156 0.887914,-0.752617 0.3006,-0.03175 0.669332,0.139213 0.890699,0.384834 0.32773,0.363668 0.402956,0.94073 0.445295,1.443129 M 7.3563912,75.111506 c 0.1342459,0.341156 0.5028183,0.844136 0.3254376,1.250713 -0.099675,0.228398 -0.2272825,0.305463 -0.428207,0.400901 C 6.6651896,77.042413 5.8547126,76.435722 5.5065526,76.169801 M 30.68491,75.977383 30.479375,77.131889 m 99.274675,1.058293 1.36991,2.597631 0.14372,0.678395 -0.5288,0.152842 m 5.79791,-3.428868 0.49637,1.058295 0.30831,0.673459 0.53131,0.897916 c 0.20452,0.327503 0.15855,0.450532 0.2744,0.641423 l 0.34221,1.058293 0.15415,0.464977 0.3597,0.689528 M 121.327,80.114344 c 0.14182,0.458146 0.0432,0.547714 0,0.962086 -0.1079,1.038859 0.25692,2.393958 0.5827,3.27109 0.0976,0.262843 0.21684,0.455932 0.41108,0.673462 0.32167,0.360396 0.928,0.179525 1.36991,-0.01606 0.18293,-0.08081 0.33708,-0.176543 0.51384,-0.288625 0.10791,-0.06821 0.35969,-0.224454 0.35969,-0.224454 0,0 -0.22711,-0.953908 -0.35969,-1.202607 m 4.72737,-3.078675 -0.10277,0.09621 m 9.81058,2.666912 c -0.11407,0.339329 -0.29933,0.733288 -0.66415,0.940905 -1.03387,0.589277 -1.94954,-1.127951 -2.03791,-1.876069 -0.0925,-0.776594 1.47452,-1.143838 1.938,-1.223785 m -13.67112,0.165493 0.10277,0.09621 m -22.19806,0.288624 c 0.26976,0.09967 0.42001,0.189531 0.61661,0.384835 0.78823,0.783332 1.30928,2.430326 1.33599,3.3673 l -1.02768,0.09621 m 28.26142,-3.752134 0.82215,0.09621 m -0.84208,-0.106616 0.84208,1.934577 m 3.49414,0.192419 c -0.53029,0.391954 -1.24659,0.553007 -1.84984,0.160379 -0.6495,-0.422742 -0.76004,-1.747357 0.0514,-1.844029 0,0 0.64742,-0.06875 0.66799,0.14431 0.041,0.424529 -1.25435,0.506295 -1.25435,0.506295 m -7.06992,2.379965 c -0.0339,-0.173465 -0.42268,-1.743091 -0.42268,-1.743091 0,0 0.10923,-0.505883 0.3713,-0.854541 0.32166,-0.427552 0.82934,0.03291 1.07907,0.288625 0.19217,0.195977 0.26103,0.272175 0.3936,0.481044 0.0945,0.147583 0.22301,0.840669 0.22301,1.154502 M 106.93938,82.32715 c 0.76563,0.778521 0.80982,1.783034 1.336,2.597632 l 1.33599,-0.865877 m 15.72363,-1.731755 0.41107,0.865878 m 1.84984,-0.09621 c 0.22199,-0.281698 0.25179,-0.788623 0.82215,-0.529148 0.65567,0.298344 0.94033,1.217423 1.13046,1.779858 m 0.30831,-1.827963 c 0.48096,0.552045 0.69163,1.295257 1.02768,1.924173 M 85.974542,88.38828 c 0.991514,0 2.535617,-0.756777 1.233229,-1.603509 -0.58979,-0.383392 -1.483881,-0.574173 -2.158147,-0.609288 -0.16556,-0.0085 -0.244485,-0.05128 -0.411076,-0.08015 -0.149732,-0.02599 -0.278196,-0.0049 -0.411075,-0.0481 -0.283744,-0.09227 -0.670154,-0.51645 -0.787926,-0.833841 -0.51508,-1.388867 1.007854,-2.597823 2.123921,-1.827964 m 27.953112,3.944552 c 0.3638,-0.134594 1.42336,-0.81094 1.18184,-1.234644 -0.23328,-0.410137 -0.63099,-0.28901 -1.0616,-0.625355 -0.47889,-0.373097 -0.45629,-1.145074 0.29083,-1.218675 m -11.8184,2.693841 0.71938,0.09621 0.64422,-0.113263 c 0.86051,-0.15129 -1.40898,-0.792316 -2.15153,-1.233658 -0.35887,-0.486143 -0.01,-1.507493 0.68516,-1.250711 m 22.55747,0.05663 0.35997,0.616826 m -15.92916,1.827964 c -0.25385,-0.530496 -0.56956,-1.7118 -0.70418,-1.994076 0.37716,-0.148547 1.36087,0.69526 1.83463,0.935783 0.24356,0.123435 0.80949,0.556057 1.07771,0.500641 m -12.90139,0.925433 c -0.420016,-0.498072 -0.428618,-0.867969 -0.525736,-1.522283 -0.03073,-0.207331 -0.122705,-0.52502 -0.122705,-0.52502 0,0 0.349002,-0.268702 0.550944,-0.324792 0.271105,-0.07543 0.733459,0.129593 1.027689,0.240523 0.744969,0.280929 1.472988,0.715889 1.438758,1.475166 -0.0495,1.098028 -1.705752,0.41408 -2.363678,0.673459 0.235647,0.364535 0.799745,1.898581 0.822151,2.693841 m 4.932897,-4.906639 c 0.47069,0.232153 1.04848,0.09041 1.33246,0.244112 m -7.862112,-0.472245 0.130953,0.378187 m 6.416349,-0.146729 c 0.1026,0.441902 0.51162,1.884386 0.8045,2.4981 m 69.67726,-0.962086 c -0.11921,-0.385796 -0.18601,-0.620737 0.0339,-1.058296 0.17368,-0.345099 0.54673,-0.400325 0.89101,-0.17635 0.85811,1.069892 1.59098,3.027484 -0.10277,3.206921 -0.29392,0.02676 -0.73994,-0.122376 -0.87354,-0.352795 -0.21889,-0.377138 0.40389,-0.41899 0.668,-0.336733 0.54075,0.249212 0.77908,0.371424 1.33599,0.545217 M 93.363344,86.63068 c -0.313647,-0.413312 0.07714,-0.926233 0.524387,-1.144723 0.745177,-0.363958 1.062837,0.499419 0.20554,0.833838 z m -5.436203,-1.032448 c -0.05868,0.521643 0.542104,2.519897 1.644302,2.405216 1.29242,-0.134403 1.039196,-1.144788 0.513842,-1.731754 m 1.952608,-0.673462 c 0.303169,0.567535 0.935917,1.625733 0.102769,2.084552 -0.56718,0.312292 -1.435457,-0.569962 -1.692996,-0.792014 m 86.682804,-1.196329 c 0.4121,0.162496 1.02357,-0.148737 1.43876,0.208484 0.32783,0.282082 0.3936,1.892039 0.3936,1.892039 0,0 -1.21575,-0.105541 -1.62683,-0.17635 m -0.10277,-1.827963 0.20554,0.673459 m -69.06063,0.673461 c -0.46144,-0.46921 -0.92492,-1.120669 -0.92492,-1.120669 0,0 -0.23534,1.033697 -0.37716,1.216875 -0.37203,0.480564 -0.86424,0.503622 -1.36991,-0.192416 -0.53641,-0.738337 -0.6281,-0.940045 -0.38702,-1.403015 0.52978,-1.017385 1.49794,-0.6774 2.23685,-0.04012 m 61.66129,0.481043 c -0.52412,0 -1.74707,0.192416 -1.74707,0.192416 0,0 -0.22609,1.17519 0.3083,1.314884 0.48097,0.12584 0.78413,0.206657 1.23324,0.3527 0.42751,0.139119 1.0431,0.154225 1.2846,0.641423 0.15312,0.308541 -0.15004,0.573309 -0.35969,0.769671 -0.51384,0.481329 -1.08627,0.508462 -1.6443,0.288624 m 4.11076,-2.790049 c 0.48917,0.373385 0.89306,0.606307 1.09654,1.154504 0.16956,0.458817 0.0935,0.893777 -0.37717,0.962084 -0.57344,0.08323 -1.10373,-0.137769 -1.54152,-0.41687 -0.25693,-0.163843 -0.3895,-0.271597 -0.58271,-0.465074 -0.14696,-0.147968 -0.26,-0.297861 -0.37613,-0.464974 -0.12538,-0.179816 -0.2189,-0.364536 -0.25693,-0.577253 -0.26719,-1.498736 1.78951,-0.609337 2.40201,-0.32273 m -59.45616,0.226521 c -1.35282,0.781752 -2.19827,-0.119074 -2.02147,-1.250711 0.17403,-1.189262 1.8142,-1.216264 1.19932,-0.769668 l -1.17152,0.850889 m -13.627191,1.746743 c -0.469551,0.312389 -0.665841,0.186836 -1.130458,0.09621 -0.680022,-0.132674 -0.87464,-0.685461 -1.130457,-1.20261 -0.124235,-0.251148 -0.247793,-0.441324 -0.06855,-0.721563 0.396421,-0.619782 1.740206,-0.326933 0.993465,0.09621 l -0.959332,0.543606 m -2.020965,0.322271 c 0.259494,0.543001 0.367708,1.048385 1.130459,1.058292 0.332455,0.0043 0.460094,0.04965 0.71938,-0.0481 0.178304,-0.06725 0.393914,-0.245137 0.513844,-0.33673 m 59.503145,0 1.02769,2.309007 0.20554,0.577253 0.61661,1.924169 m 2.98029,-4.77839 c 0.27954,-0.08726 0.47377,0.01944 0.71939,0.08024 0.84064,0.207524 1.49837,1.309205 1.62683,2.100522 0.0411,0.251104 -0.0144,0.779194 -0.3936,0.962087 -0.42752,0.206368 -1.00303,0.02896 -1.336,-0.144315 -0.98761,-0.513752 -2.43768,-2.430227 -0.61662,-2.998531 m -2.98029,0.352795 1.26714,2.88626 0.37717,0.962083 m 20.21535,-3.783229 c 0.1111,0.455334 0.13653,0.263783 0.12934,0.729434 -0.005,0.337115 0.1063,0.867841 0.1063,1.225834 m -0.23604,-1.943203 0.95541,0.211449 m -39.36045,0.09621 c -0.68752,0.01694 -1.50239,0.654128 -1.02769,1.635548 0.48671,1.006229 2.30614,0.78785 2.86006,1.378956 0.86943,0.927163 -1.48398,1.314882 -2.03791,1.314882 m 1.336,-4.136967 c 0.43162,0 0.38332,-0.01751 0.71938,0 0.41313,0.02147 1.49425,0 1.74707,0 m 3.39137,2.020379 -1.6443,0.09621 c 0,-0.430533 0.0976,-1.477571 -0.10276,-1.92417 l 1.6443,-0.192418 m 16.54577,0 c 0.36174,0 0.66492,0.08216 1.23322,0.09621 m -22.45469,-0.07915 c 0.0123,0.45391 0.48478,1.451859 0.75301,2.099535 0.2785,0.670478 0.53132,1.447267 0.53132,2.212798 m -18.29286,-3.271091 c 0.57654,0.05686 1.88889,0.05023 2.227,0.962084 0.10791,0.291128 -0.0586,0.756392 -0.17162,0.962086 -0.19732,0.358763 -0.91168,0.694641 -0.91168,0.694641 0,0 0.13578,0.557129 0.17483,0.748489 0.0678,0.325859 0.19217,0.59986 0.223,0.962086 m 4.52183,-3.271093 c 0.26515,0.247835 0.48713,0.406483 0.68547,0.673461 0.36072,0.486334 0.33914,1.340763 0,1.827962 -0.21581,0.308636 -0.55085,0.627377 -0.891,0.817772 -0.47068,0.263325 -0.92184,0.355782 -1.02769,-0.14431 -0.0545,-0.256974 -0.11407,-0.532132 -0.20554,-0.769669 -0.22918,-0.595148 -0.51887,-1.355491 -0.74907,-2.001725 -0.12641,-0.354143 -0.27862,-1.413682 -0.27862,-1.413682 0.73891,-0.408021 2.01222,0.584758 2.46645,1.010191 z m -5.78826,-1.030495 c 0.0308,0.371078 0.76563,2.239679 0.86533,2.563616 m -14.0893,-2.20658 0.59915,0.865878 0.5313,1.34692 0.42856,0.913979 0.7207,-0.07117 m 30.81243,-2.369495 c 0.0113,0.407442 -0.0109,0.604715 -5.8e-4,0.949429 0.0154,0.522028 0.28466,1.447747 0.92491,1.539337 0.5755,0.08226 1.13354,-0.366843 1.43876,-0.769669 m -44.10868,1.564309 c -0.0841,-0.231125 -0.23502,-0.482924 -0.3049,-0.79464 -0.1038,-0.466996 -0.27316,-1.033776 -0.41909,-1.502023 -0.0519,-0.167596 -0.12867,-0.694707 -0.12867,-0.694707 0.52058,-0.301636 1.01532,-0.221639 1.47194,-0.102648 0.30969,0.0807 0.612,0.112854 0.85377,0.312647 1.05805,0.874306 1.31686,2.600982 -0.52726,2.660193 -0.21889,0.0029 -0.30111,0 -0.51384,0 l -0.42987,0.123131 c 0.0493,0.579944 0.36513,0.932661 0.42987,1.704829 m -10.174114,-3.65593 c 0.446018,1.322193 1.627858,3.01229 1.747069,4.425595 M 126.9377,91.939743 c 0.47535,-0.04562 1.45157,0.0066 1.75475,0.393091 0.28466,0.36338 0.31652,1.236759 0.13668,1.635546 M 91.935124,92.268661 c 0.222906,-0.05214 0.310259,-0.0532 0.513844,-0.03203 0.717428,0.07466 1.23929,0.787853 1.404543,1.443129 0.138633,0.550024 0.03494,1.664696 -0.582391,1.86 -0.579412,0.183372 -1.240111,-0.632573 -1.524371,-0.994122 -0.187758,-0.238696 -0.310773,-0.406483 -0.394016,-0.673462 -0.191148,-0.61381 -0.208207,-1.418499 0.582391,-1.60351 m -2.363681,0.545216 c 0.215403,0.319219 0.364622,0.530204 0.633776,0.962084 0.540048,0.866745 0.799334,1.378092 1.113294,2.309007 m 21.170377,-0.865877 c 0.31858,0.05494 1.64841,0.178467 1.50762,-0.481043 -0.1295,-0.604573 -1.13971,-0.491723 -1.61039,-0.721564 -0.25898,-0.126323 -0.44088,-0.382622 -0.46246,-0.625357 -0.0411,-0.460551 0.38744,-0.57725 0.77076,-0.57725 m 6.37167,1.827962 c -0.10174,-0.189722 -0.30432,-0.89094 -0.30432,-0.89094 l 0.23546,-0.453057 c 0,0 0.1593,-0.546212 0.47994,-0.435862 0.60839,0.209351 1.16334,1.617748 1.23322,1.972277 m -6.88551,-1.827964 0.52909,-0.135785 m 3.41326,0.231994 c 0.0134,0.469786 0.29892,1.073978 -0.0371,1.731755 -0.34941,0.684138 -1.20548,0.424664 -1.50762,-0.192418 -0.14491,-0.296226 -0.32064,-0.594281 -0.34222,-0.962084 -0.0545,-0.924182 0.98966,-0.889748 1.54153,-0.746111 0.30911,0.09482 0.51094,0.114299 0.76478,0.29979 m 0.26241,-0.391799 c 0.29289,0.214543 0.31193,0.903046 0.31193,0.903046 m -34.225138,-0.738388 0.68516,1.731755 0.428133,1.154502 0.325467,1.539342 m -0.205565,-4.040765 c 0.849795,-1.031258 2.014986,0.246968 2.055374,1.154506 0.02272,0.511153 -0.517287,0.953825 -0.517287,0.953825 0.267349,-0.30469 1.720218,-0.436819 1.938889,0.104467 0.132982,0.150278 0.225885,0.347889 0.188478,0.577252 -0.13843,0.848075 -1.137754,1.058293 -1.918386,1.058293 m 26.840875,-4.365638 c 0.0216,0.257453 0.45555,1.595987 0.70117,2.056635 m -5.41353,-0.605054 c 0,-0.489798 0.54356,-1.112081 1.09724,-0.645658 0.49725,0.418902 -0.73759,0.466775 -1.08083,0.66102 0.21478,0.402441 0.35631,0.811356 0.97806,1.134905 0.43676,0.227149 0.79338,0.130844 1.23322,-0.06417 m -5.13844,-1.827961 0.70191,0.769668 0.53132,1.443129 m -0.51384,-1.443129 c 0.51898,-0.527705 0.52104,-0.769668 1.336,-0.769668 m 0.3083,0.865877 0.57051,-0.127304 m -14.238766,7.727783 0.428237,1.53933 0.188375,0.67347 0.616614,2.50142 m 24.15067,-3.46351 c -0.37202,-0.49076 -0.19244,-0.55432 -0.28414,-0.9786 0.36997,0.20954 2.27029,-0.07 2.56729,0.0728 0.6793,0.32673 0.48031,1.88715 0.49161,2.63748 0.0243,0.38763 0.10927,0.70737 0.17162,1.0583 0.0493,0.2816 0.0339,0.75081 0.0339,1.05829 m -30.214034,-4.90664 0.787929,1.53934 0.856371,2.79006 m 33.091554,-3.2711 c 0.008,-0.30143 0.18293,-1.07504 0.82215,-0.89791 0.3299,0.0912 0.55187,0.52048 0.70191,0.8017 0.46966,0.87858 0.94034,2.01759 0.39463,2.79005 -0.19834,0.28025 -0.45217,0.48249 -0.78822,0.46498 -0.44397,-0.023 -1.41,-0.77776 -1.07908,-1.21858 0.17985,-0.24052 0.49535,0.0385 0.66799,0.14431 0.35455,0.21638 0.86692,0.45818 1.13103,0.70496 m 1.33543,-3.7516 c -0.0103,0.36079 -0.18704,0.66808 -0.27439,1.05829 -0.0596,0.26949 -0.0709,0.35964 -0.0339,0.67347 0.0925,0.77611 0.73321,0.79885 1.40943,0.78125 0.34428,-0.009 1.10841,-0.204 1.10841,-0.204 0,0 -0.0391,-0.46767 -0.0514,-0.67346 -0.0134,-0.2232 -0.0319,-0.2639 -0.10277,-0.48104 -0.0884,-0.27131 -0.10277,-0.33279 -0.10277,-0.67346 m -45.834885,4.81043 c 0,-1.4008 -0.600274,-2.67258 -0.839314,-4.13697 -0.05816,-0.35656 -0.08458,-0.54559 -0.133153,-0.91811 0.724723,0.26784 1.87046,0.6213 2.513997,1.20673 0.412823,0.3756 0.608288,0.78622 0.804989,1.1545 0.357578,0.9509 1.082988,1.16454 0.222709,2.2128 -0.120615,0.14906 -0.320092,0.24316 -0.513845,0.28863 -0.548429,0.1287 -1.694143,-0.0781 -1.694143,-0.0781 m 18.987475,-4.35856 c 0.51922,-0.0145 0.66242,0.011 1.41058,0.011 m 16.23748,-0.28862 v 0.57725 h 1.84983 m -20.34822,-0.28863 0.87823,-0.008 c 0.15416,0.86598 0.40741,2.27808 0.76607,3.3761 0.12846,0.39349 0.19321,0.81989 0.20554,1.25071 m 1.6443,-4.61801 0.65052,0.56119 c 0,0 0.57158,0.58933 0.83963,0.898 0.2932,0.33765 0.83962,1.04224 0.83962,1.04224 l 1.26714,1.92417 m -1.54153,-4.4256 c -0.1449,0.73888 -0.29392,0.89593 -0.56523,1.58744 -0.23404,0.59655 -0.34324,1.48354 -0.77076,2.06849 m 26.71988,-0.44901 c -0.47684,0.13653 -0.93314,0.007 -1.33599,-0.14431 -0.83448,-0.3146 -1.76249,-1.51202 -1.19932,-2.29294 0.35764,-0.49461 1.27742,-0.78448 1.81593,-0.60929 0.21787,0.0707 0.46822,0.13937 0.67992,0.1943 1.2443,-0.0811 1.21538,1.13318 0.75884,2.09864 -0.23739,0.54444 -0.35455,0.64941 -0.71938,0.7536 z M 124.61617,103.318 c 0,0.37685 -0.18453,1.30265 0.30773,1.57039 0.40491,0.21993 0.59606,-0.0481 0.92492,-0.0481 0.21787,0 0.31242,0.0753 0.51384,0.0962 0.34325,0.0357 0.79544,0.17289 0.97631,0.48104 0.22403,0.38195 0.16237,1.03579 -0.15416,1.34692 -0.21272,0.20849 -0.45424,0.28622 -0.71938,0.32066 -0.36174,0.047 -0.55701,-0.0974 -0.92492,-0.22445 m 8.66661,-2.38108 -0.50616,0.17376 m -32.69834,0.20267 c -1.664453,0.0546 0.30144,1.35247 0.93077,2.1133 l 0.39698,0.47995 c 0.38117,0.46082 -0.63749,0.40043 -1.17655,0.62461 m 32.56123,-3.41883 0.45804,2.68667 m -40.799195,-1.34694 c -0.698778,-0.84505 -2.556517,-1.57904 -2.371358,0.004 0.06054,0.604 0.2609,1.47352 1.240903,1.79207 0.448484,0.14575 1.019363,-0.13027 1.267449,-0.449 0.09578,-0.12305 0.151378,-0.73979 0.151378,-0.73979 0,0 0.819271,1.03245 1.150392,1.12462 m 27.644811,-2.30901 c 0.5465,0.12216 1.08475,0.24167 1.6443,0.28863 m 6.06336,0.38484 0.30831,0.19241 m -31.262805,-0.76622 c 0.385792,0.59669 0.863065,1.67793 1.357085,2.30559 m -0.64423,-1.03299 c -0.284567,0.32664 -0.469379,0.74071 -1.000078,0.93678 -0.3837,0.14177 -1.085075,-0.55937 -1.335994,-0.86588 -0.116485,-0.14229 -0.191621,-0.31251 -0.256921,-0.48103 -0.380286,-1.12136 0.828221,-1.5347 1.451782,-1.36667 m 6.101721,3.19462 v 0.28863"
       id="path125"
       sodipodi:nodetypes="cccccsssssccsscsccccsccscssccssccccscsccccccccsccscccscccssscccccccccccssssccccccccccccccscccccccccsccsccccccscssccccccsssscccccccccccccccccccscscsccsccccccccscccsscscccccccccsccsccccccccccsccccccsccsccccccccccccccccccccccccccccssccccccccccsccscccsccsccccsccsccccccccccccccccccccccccccccccccccccccccccsccccccccccccccccccccccccssccccccccccccccccccccccccccccccsccccccsccccccccccccccccccccccccccccccccsccccccccsscccccccccsccccccccscccsssccccccccccccccccccccccccsccccccccccccccccccccccccscccccccccccccccccscssccccccccccccccccccccccccccccccccccccccccccccccccccccscccccccccccccccccccccccccccccccccccccccccccccsccccccccccccscccscccccccccscccccccccsscccccsscccccccccsscccc" /></g></svg>
