<?xml version="1.0" encoding="UTF-8" standalone="no"?>
<!-- Created with Inkscape (http://www.inkscape.org/) -->

<svg
   width="3000"
   height="1998.207"
   viewBox="0 0 793.74998 528.69227"
   version="1.1"
   id="svg5"
   xml:space="preserve"
   inkscape:version="1.2.1 (9c6d41e410, 2022-07-14)"
   sodipodi:docname="SavvS - Stake - Envelope47.svg"
   xmlns:inkscape="http://www.inkscape.org/namespaces/inkscape"
   xmlns:sodipodi="http://sodipodi.sourceforge.net/DTD/sodipodi-0.dtd"
   xmlns="http://www.w3.org/2000/svg"
   xmlns:svg="http://www.w3.org/2000/svg"><sodipodi:namedview
     id="namedview7"
     pagecolor="#ffffff"
     bordercolor="#666666"
     borderopacity="1.0"
     inkscape:showpageshadow="2"
     inkscape:pageopacity="0.0"
     inkscape:pagecheckerboard="0"
     inkscape:deskcolor="#d1d1d1"
     inkscape:document-units="px"
     showgrid="false"
     inkscape:zoom="1.0582793"
     inkscape:cx="449.78674"
     inkscape:cy="64.727714"
     inkscape:window-width="1450"
     inkscape:window-height="1030"
     inkscape:window-x="438"
     inkscape:window-y="0"
     inkscape:window-maximized="0"
     inkscape:current-layer="layer1" /><defs
     id="defs2" /><g
     inkscape:label="Layer 1"
     inkscape:groupmode="layer"
     id="layer1"><path
       style="fill:none;stroke:#5a5059;stroke-width:0.0972809"
       d="m 60.936527,50.281885 0.680964,2.918424 0.05079,0.640592 -0.53719,0.04037 m -11.673698,-3.404827 -1.070088,0.09728 c -1.094309,0.09948 -1.082151,1.466839 -1.07009,2.334739 0.0075,0.537029 0.292137,1.105314 0.599931,1.459212 0.468505,0.538761 1.440439,0.961377 2.123932,0.76203 0.194075,-0.05659 1.006109,-0.552148 1.484244,-0.64897 m -0.511435,-1.280429 c 0.156817,0.248241 0.598761,0.958264 0.616079,1.070088 0.111058,0.294843 0.153624,0.603394 0.259445,1.167369 M 7.4320962,50.86557 c 0.5096836,0.645603 0.6461693,1.715021 0.7782457,2.432019 l -1.26465,0.09728 m 52.2397811,-2.5293 v 0.291842 m -25.195725,4.96132 -0.583683,-0.875527 c -0.274915,0.33702 -0.54273,0.818355 -1.26465,0.778246 -0.160416,-0.0089 -0.22754,-0.02997 -0.389123,-0.09728 -0.266744,-0.111153 -0.63009,-0.435496 -0.875527,-0.680965 -0.969599,0.765493 -2.517918,1.034338 -3.372433,0 -0.42317,-0.512358 -0.704119,-1.181942 -0.71336,-1.848335 -0.0031,-0.22716 -0.01616,-0.292455 0.01624,-0.486404 0.04796,-0.287883 0.252544,-0.844582 0.502553,-1.167369 0.343598,-0.443445 0.872416,-0.740083 1.329537,-0.583685 m 28.989674,-0.09728 0.103594,0.846043 z M 3.540862,56.313294 C 4.4301824,57.202615 5.8133306,57.458863 6.8484077,56.6862 7.1515635,56.459906 7.5831418,55.970729 7.3834527,55.535047 7.017521,54.736645 5.7503036,54.427866 4.9027934,54.286614 4.3200811,54.189489 3.8159319,54.387951 3.3462992,53.962338 3.1507657,53.785141 3.0481732,53.549585 2.9571763,53.297589 2.504919,52.045167 3.4550989,51.157412 4.7082305,51.157412 m 7.7824625,0 c 0.01547,0.589016 0.489066,1.991884 0.794494,2.723862 0.105002,0.251646 0.207085,0.474805 0.299626,0.609538 l 0.948779,-1.095942 m 20.818085,-1.848335 c 1.064412,1.088375 1.011508,3.063962 1.361931,4.377636 0.03037,-0.176128 0.0067,-0.292353 0.05226,-0.456154 0.0775,-0.612305 0.245208,-0.899811 0.531424,-1.051699 0.365678,-0.209795 0.657326,0.202792 0.810639,0.437764 0.180069,0.275742 0.226763,0.515617 0.35673,0.875527 0.100005,0.27689 0.171699,0.488641 0.194562,0.778246 m 16.747861,-1.41278 c -0.07533,0.194411 -0.03413,0.209384 -0.404687,0.245411 -0.407899,0.03966 -0.933993,-0.12342 -1.26465,-0.421547 -0.208974,-0.254781 -0.479532,-0.833828 -0.344875,-1.01726 0.199901,-0.256638 0.650035,-0.43147 0.863893,-0.292203 0.845599,0.356753 -0.511631,0.591912 -0.868771,0.620234 m 4.420794,-1.437585 c 0.222676,0.470109 0.02239,2.009589 0.02239,2.009589 0,0 -0.192079,0.561111 -0.639954,0.733333 -0.789919,0.30375 -1.248828,0.166154 -1.489624,-0.523513 -0.180673,-0.517468 -0.343929,-1.422225 0.192583,-2.005787 0.58845,-0.640108 1.401428,-0.236246 1.929369,-0.194562 l -0.09728,-0.972808 m -49.5159191,1.459212 1.26465,0.389123 M 8.2110147,53.29394 c 0,0.650633 0.476637,2.417458 0.8748654,3.213915 M 51.597584,54.173116 c 0.38377,-0.486054 0.650024,-0.709843 1.739083,-0.681184 m -22.459891,1.757585 c -0.306826,-0.613647 -0.167712,-1.765188 0.778246,-1.660086 0.514711,0.05718 1.099466,0.48477 1.45921,0.778246 m -19.261593,2.723862 c -0.578141,-0.06086 -0.953547,-0.869408 -1.26465,-1.36193 -0.06168,0.06694 -0.228026,0.270946 -0.324238,0.389123 -0.496521,0.609279 -1.192175,0.755502 -1.799695,0.09728 -1.1151951,-1.208092 0.348752,-3.364846 1.540247,-1.848336 m 47.301962,-1.059433 c 0.16528,0.628142 0.968567,1.997853 1.046587,2.421365 m 1.556495,0.291842 c 0,-0.890752 -0.113869,-1.501485 -0.23722,-2.170865 l 1.112747,0.32253 m -28.503271,2.042897 c 0.441751,0.127856 1.426525,0.168772 1.361932,-0.486404 -0.04767,-0.48368 -0.514909,-0.52771 -0.875527,-0.81067 -0.368891,-0.289459 -0.360232,-0.455712 -0.09728,-0.648542 m 23.147352,0.528172 c 0.07275,0.623166 0.0034,0.360291 0.159589,0.979098 M 13.593444,54.49943 c 0.159431,0.33826 0.122215,0.352085 0.304438,0.766561 l 0.246598,0.560898 m -0.550377,-1.324818 c 1.027097,-0.585729 3.175015,0.564364 2.491684,1.94082 m 0.326783,-0.734038 c 0.180664,-0.123032 0.736239,-0.294303 0.804379,-0.383231 0.119596,-0.156084 -0.07649,-0.299103 -0.135887,-0.279305 -0.255778,0.08525 -0.420019,0.127647 -0.585597,0.391449 -0.07957,0.260246 -0.13099,0.370973 -0.113526,0.632325 0.03408,0.509922 0.63427,0.921493 1.07009,0.989025 0.466751,0.07231 0.915898,-0.264925 1.26465,-0.3567 m 14.549241,-2.062053 0.140156,0.602842 m -21.194787,-0.536791 0.3767,1.012092 m 167.128381,0.302945 v 0.09728 M 52.375829,64.095756 c 0.295052,0.116445 0.385329,0.07413 0.680965,-0.01624 0.379882,-0.116056 0.761027,-0.529791 0.535045,-0.956562 -0.191935,-0.362566 -0.924557,-0.605476 -1.313291,-0.745852 -0.385136,-0.139014 -0.653339,-0.413444 -0.680964,-0.810641 -0.01644,-0.236976 0.03341,-0.367686 0.03341,-0.367686 l 1.620367,-0.02144 m -15.564925,1.070089 c 0.07996,-0.276278 0.125587,-0.526484 0.226956,-0.778246 0.521618,-1.2951 1.383721,0.107787 1.653772,0.778246 0.07977,0.197869 0.171993,0.350794 0.227053,0.583684 0.06177,0.261978 0.05974,0.824353 -0.356727,1.037646 -0.74494,0.381519 -1.674791,0.282962 -1.653773,-0.648522 0.0067,-0.295245 1.791127,0.437199 1.847092,0.492159 l 0.390364,0.383368 m 0.972808,-0.518799 c -0.524439,-0.189405 -0.875527,-0.792546 -0.875527,-1.329536 0,-0.391458 0.203219,-0.875819 0.583686,-1.134975 0.253707,-0.172771 0.557127,-0.172965 0.778246,-0.04864 0.182694,0.102826 0.2254,0.203123 0.308089,0.40537 0.101754,0.24933 0.248889,0.398096 0.427398,0.655111 0.189795,0.273262 0.23653,0.439354 0.212999,0.836543 -0.03545,0.598458 -0.730481,0.870518 -1.434891,0.616127 z m 2.042896,-0.259448 c 0.384943,0.352838 1.412227,0.862492 1.913221,0.194562 0.425995,-0.568023 0.02305,-1.259494 -0.2432,-1.751054 -0.203608,-0.375796 -0.438249,-0.644875 -0.989054,-0.583685 -0.431344,0.04796 -0.757721,0.312174 -0.972808,0.680966 -0.377707,0.640158 -0.132063,1.231101 0.291841,1.459211 z m -17.80238,-1.848334 c -0.102924,0.355464 -0.198939,0.796924 -0.178316,1.167369 0.01081,0.194951 0.0537,0.289702 0.08103,0.486404 0.0786,0.56598 0.577239,2.255632 1.290502,2.374509 0.510531,0.08512 1.042005,-0.787854 1.042005,-0.787854 l 0.404284,-0.513092 c 0,0 0.179277,0.201044 0.328798,0.322839 0.468404,0.38173 1.21817,0.77364 1.668773,0.160091 0.17034,-0.231918 0.129677,-0.497105 0.129677,-0.778247 0,-0.746338 -0.46792,-1.630718 -0.486404,-2.334739 M 10.05869,62.344705 c -0.4156428,-0.526484 1.327842,-0.539103 1.327842,-0.539103 0,0 0.394222,1.310637 0.423212,1.609191 0.02228,0.229388 0,0.3506 0,0.486404 H 11.32334 m 3.696668,-1.556493 c -0.56987,0 -0.803734,-0.09728 -1.361928,-0.09728 -0.181332,0 -0.437767,-0.0081 -0.437767,-0.0081 0,0 -0.02305,0.732475 0.340485,1.061965 0.587866,0.532709 1.493065,0.208667 2.026651,0.891773 0.721043,0.922805 -0.997227,1.206185 -1.540247,1.183615 -0.284255,-0.01187 -0.399824,-0.0321 -0.680967,-0.113527 m -9.6307965,0.194539 c 0.6100756,0 1.59558,0.340094 2.12396,-0.389123 C 6.7162624,63.295668 3.5986247,64.351898 3.1679702,64.063363 3.0332741,63.936704 3.0567879,63.776385 3.0544715,63.609354 c -0.0035,-0.251568 0,-0.341942 0,-0.583685 0,-0.372974 -5.515e-4,-0.559656 0.3891229,-0.71336 0.5061511,-0.19962 0.8936718,-0.349821 1.4592127,-0.454009 m 3.5993873,3.404827 C 9.0149527,65.256027 9.4155057,64.743745 9.3777215,64.29032 9.3613967,64.094396 9.3265825,63.986414 9.2480194,63.803916 9.0744114,63.400687 8.7108346,63.063025 8.4373392,62.733827 8.0672353,62.288281 7.7429676,61.842248 7.0429843,62.085256 c -0.3551524,0.123352 -0.8381511,0.580766 -1.0700899,0.843133 -0.1506955,0.170436 -0.2003207,0.376476 -0.1945601,0.583684 0.2341063,1.401393 1.8857669,1.744028 2.7238601,1.751054 z M 27.520588,63.414793 c -0.04942,-0.142322 -0.05837,-0.7012 0.340485,-0.535045 0.491558,0.204776 0.03181,1.01104 0,1.21601 -0.125494,-0.267522 -0.267329,-0.470352 -0.340485,-0.680965 z m -15.808126,2.821142 c 0,-0.45897 0.06352,-1.143632 0.09728,-1.751054 0.01153,-0.207156 0.0086,-0.571551 0.0086,-0.571551 0,0 0.432243,-0.05362 0.674498,0.01653 m -6.5199666,4.932652 v 0.194561 m 35.9938906,0.972808 c 0,0.480762 -0.113626,0.744004 -0.178315,1.16737 -0.06965,0.455858 0.0085,0.894302 0.178315,1.26465 0.367233,0.801205 1.182935,0.561507 1.653773,0.389123 0.174708,-0.06396 0.282744,-0.167937 0.342343,-0.299017 0.236611,-0.520403 -0.290269,-1.468067 -0.439625,-2.035722 m 1.751055,0.875528 c -0.18746,-0.445255 -0.518828,-0.809323 0.06165,-0.865746 0.321709,-0.03132 0.992197,0.18478 0.992197,0.18478 0,0 0.300015,0.882045 0.308089,1.167369 0.0045,0.158957 0.03198,0.254104 0.08103,0.421518 0.06798,0.232021 0.05798,0.391361 0.09728,0.648571 0.110805,0.724742 0.06421,1.126025 0.113527,1.751055 m 0.972808,-3.502109 c 0.0787,-0.373753 0.404201,-1.133613 0.875527,-0.924168 0.365097,0.162265 0.530473,0.524733 0.66472,0.826887 0.262269,0.590008 0.493408,1.28362 0.502649,1.945616 0.0035,0.250887 0.04465,0.773771 -0.01624,0.972808 -0.156817,0.350033 -0.5002,0.617961 -0.762001,0.664721 -0.372878,0.06216 -1.293348,-0.466852 -1.151124,-0.956563 0.158957,-0.547691 0.754512,-0.137458 0.956564,0 0.649484,0.579348 0.718983,0.415707 1.459185,0.778248 M 31.460473,70.710851 c 0.01012,0.385135 0.07102,0.450118 0.162167,0.778246 0.115862,0.417335 0.222384,1.018919 0.307992,1.459212 0.165181,0.849456 0.468406,2.009822 0.599931,2.723863 m -15.467643,-4.86404 0.989053,2.723862 0.664706,1.702415 c 0.214982,0.110562 0.885429,0.01315 1.419355,-0.213838 0.407,-0.173038 0.734673,-0.421384 0.720811,-0.710331 -0.01313,-0.273624 -0.289801,-0.496229 -0.680967,-0.680966 -0.274817,-0.129773 -0.864825,-0.324431 -1.167369,-0.145921 -0.320247,0.189017 -0.610701,0.561907 -0.610701,0.935271 m 35.339967,-3.513211 c 0.750714,1.09723 1.167368,3.233127 1.167368,4.766759 M 7.3348147,71.099974 c 0.3065807,0.970862 0.7606194,1.335665 0.9890258,2.43202 0.066937,0.321318 0.1540625,0.510821 0.2432008,0.778246 0.1340729,0.402258 0.1297049,0.585826 0.1297049,1.070091 M 35.448961,71.294536 c 0.432706,0.865312 0.486404,1.530129 0.486404,2.432019 0,0.275402 0.03959,0.907923 -0.389123,0.907923 -0.362079,0 -0.668806,-0.590496 -0.843134,-0.810642 -0.48154,-0.608297 -1.667359,-2.539334 -1.667359,-2.539334 l 0.299141,1.047475 0.136061,0.519051 0.71336,2.237459 m 17.024136,-3.64803 c 0.530961,-0.269176 1.515539,-0.0466 1.556494,0.535044 0.05448,0.773382 0.303614,2.19874 -0.778246,2.529303 -0.367721,0.11236 -0.619776,-0.297779 -0.794493,-0.583687 -0.207305,-0.339316 -0.289897,-0.629601 -0.35663,-0.972808 -0.0968,-0.497592 -0.26013,-1.186923 0.372875,-1.507852 m -5.25316,0.924167 c 0,0 0.486738,-0.01275 0.729605,0 0.309333,0.01624 0.924168,0.09728 0.924168,0.09728 m -3.642265,0.102718 0.62656,2.329304 m -20.234402,1.070087 c 0.276278,-0.05817 0.539714,-0.129286 0.762001,-0.324235 0.730968,-0.641178 -0.760738,-1.16241 -1.037597,-1.524101 -0.383481,-0.500801 0.271705,-1.028744 0.664719,-1.070088 m -14.689398,0.09728 c -0.4681358,0.77348 0.0054,2.120529 0.680964,2.658977 0.248457,0.198161 0.562769,0.48446 0.875527,0.454011 1.01503,-0.09864 0.673574,-1.819056 0.486404,-2.23746 m 3.112986,1.264651 c 0,-0.422392 -0.03444,-0.521133 0,-0.875529 0.02744,-0.282308 0.104479,-0.440779 0.19456,-0.680965 0.29836,-0.795562 0.804126,-0.350308 1.102483,0.09728 0.245051,0.367527 0.474828,1.195193 0.551293,1.459213 m -4.183076,-1.848336 c 0.21723,0.589619 0.40255,0.865702 0.567441,1.459214 0.136191,0.490198 0.286977,0.410328 0.405368,0.972808 m 1.361931,-1.556495 c -0.341262,-0.370543 -1.127447,-1.435033 -1.313291,-0.194562 -0.129517,0.864511 -0.17387,0.892894 -0.2432,1.264653 m 8.949831,-1.848337 c 0.105938,0.575221 0.325015,2.829801 -0.972808,1.815941 -0.204193,-0.159537 -0.207891,-0.268979 -0.308089,-0.454006 -0.13026,-0.240479 -0.203911,-1.333071 -0.286696,-1.454088 m -16.1375099,1.84321 c 0,-0.35449 0.063358,-0.907923 0.4053401,-1.232257 0.5762623,-0.546426 1.1925287,-0.272176 1.9294109,-0.03239 0.5695642,0.185336 0.6909192,0.688555 0.5512733,1.16737 -0.2344069,0.803637 -1.066985,2.01848 -2.1077537,1.329536 C 5.2186339,76.209161 5.0915653,75.731319 4.9028209,75.283049 4.3868721,75.690364 2.869039,76.751406 1.9843981,75.866735 0.77106362,74.653448 1.5989897,72.467742 2.4059444,71.391816 2.744579,70.940336 3.1751812,70.47796 3.7354523,70.419008 m 24.7092927,4.961323 c 0.286686,0.389026 0.387955,0.90257 0.194562,1.361931 m 107.495263,2.529302 0.68097,1.361931 0.17802,0.680964 c 0,0 0.18467,0.552371 0.33783,1.022688 0.0465,0.142773 0.11121,0.273448 0.12474,0.387885 0.0936,0.791642 0.74268,2.702238 0.74719,2.702238 m -1.52152,-2.659692 1.20383,0.135769 0.58368,0.162167 m 4.47492,-2.33474 c 0.4222,0.669098 0.37745,0.8443 0.60022,1.459213 0.18386,0.509556 0.39885,0.806555 0.58368,1.26465 0.29866,0.743031 0.49359,1.118399 0.0321,1.653775 -0.72775,0.844284 -1.69755,0.06976 -2.0108,-0.680967 -0.13327,-0.320735 -0.37258,-1.02962 -0.25876,-1.459213 0.2325,-0.881753 1.28636,-0.616663 1.70369,-0.583683 m -16.50691,-1.556494 c -0.0827,0.450702 -0.0905,0.263728 -0.0973,0.778246 -0.004,0.259352 -0.0418,0.327254 -0.0807,0.583686 -0.0895,0.581057 -0.0166,1.10112 -0.0166,1.848335 0,0.207402 -0.0126,0.300012 0.0166,0.486405 0.034,0.224716 0.07,0.296024 0.0807,0.486404 0.01,0.171212 0.18094,0.976211 0.32395,1.167368 0.56228,0.748964 1.69949,0.08892 2.30263,-0.291841 m -26.07125,-4.377636 c 0.55645,0.556543 1.06717,1.759906 1.24811,2.5293 0.0846,0.357604 0.19829,0.705968 0.29924,1.14626 l 0.49555,2.161286 m -1.19328,-2.213084 1.87424,0.170188 m 28.98967,-3.59939 h 0.29185 m -6.12869,0.09728 v 0.09728 m 11.96553,2.821142 c -1.10413,0.872025 -2.12266,-0.203704 -1.94561,-1.361932 0.0277,-0.942015 1.63816,-0.535326 1.16737,-0.389123 l -1.15562,0.358875 m -30.07151,-0.358875 0.97281,1.653773 0.38912,0.778249 0.4864,-0.486405 m 20.33169,0.875528 c -0.0117,-0.447493 -0.28698,-0.957827 -0.2111,-1.459213 0.0399,-0.255847 0.0331,-0.541173 0.22764,-0.778246 0.71598,-0.873583 1.62167,0.955102 1.63723,1.556492 m -0.34106,-1.009763 c 0.34631,-0.486893 0.8547,-0.677184 1.41115,-0.06032 0.33464,0.371613 0.55645,1.026799 0.87553,1.45921 m 0.4864,-1.848333 c 0.18094,0.492047 0.44944,1.853782 0.97281,2.237459 m -5.73957,-2.042898 0.45376,0.490714 m -1.81569,-0.296152 0.87553,2.042896 m -27.14134,1.26465 c 0.57979,0 1.72611,0.0031 1.26465,-0.389123 l -1.94562,-1.653773 c 0,0 -0.41458,-0.50496 -0.34048,-0.778245 0.0577,-0.21284 0.90067,-0.352561 0.90067,-0.352561 m 13.74009,3.757388 c 0.25682,-0.128315 0.45235,-0.202541 0.68096,-0.372878 1.72285,-1.286441 -1.31134,-1.757182 -1.52439,-2.837389 -0.072,-0.365094 0.31908,-0.382993 0.55159,-0.389123 m -31.227134,3.210267 c 0.650904,0.205563 1.393643,0.492143 2.042895,0.19456 0.422101,-0.19349 0.794006,-0.647112 0.454009,-1.053842 -0.257891,-0.308478 -0.612285,-0.420157 -0.940413,-0.616176 -0.785346,-0.46899 -2.284762,-0.726003 -2.480659,-2.318495 -0.157879,-1.28344 0.65937,-1.653188 1.118728,-1.556491 m 21.888174,2.561696 c 0.49127,-0.122867 1.03215,0.178704 1.32983,0.551289 0.19943,0.251082 0.35216,0.581058 0.34048,0.875527 -0.0107,0.241354 -0.0914,0.360425 -0.19456,0.583683 -0.14203,0.304976 -0.39788,0.571332 -0.79478,0.648572 -0.34243,0.06664 -0.8337,-0.298457 -1.05355,-0.55129 -0.63525,-0.730286 -0.77339,-1.821193 0.37258,-2.107781 m 36.99504,-0.239225 0.55534,1.3742 M 94.362306,85.9518 c 0.01723,-0.517446 0.905168,-1.307794 1.011588,-0.940663 0.06533,0.225381 -0.430563,0.555666 -0.680964,0.74585 -0.115277,0.08755 -0.324237,0.217351 -0.324237,0.217351 0,0 0.03901,0.358553 0.113429,0.496009 0.504208,0.930783 1.510286,0.488059 2.253704,0.194563 m 2.33474,0 c -0.637188,0.234641 -1.027284,0.326377 -1.556492,0.03239 -0.421852,-0.243449 -1.015443,-0.559306 -0.762001,-1.199765 0.145338,-0.498465 1.247178,-0.807829 1.199765,-0.2432 -0.02123,0.252855 -0.81924,0.475892 -1.239884,0.43163 m -7.758591,-0.480271 c 0,0.758692 0.498662,2.532802 1.556494,2.253703 0.29758,-0.0786 0.919985,-0.453423 1.005202,-0.79449 0.08084,-0.32346 0.104779,-1.018507 -0.105645,-0.635393 -0.02777,0.05057 0.592082,0.7651 0.851497,1.121797 0.43266,0.594906 0.914828,-0.181917 0.972806,-0.778248 0.05574,-0.573762 0.171896,-0.655965 -0.09728,-1.167369 m 6.50628,0.146032 c 0.255318,0.430409 0.352015,2.188708 0.352015,2.188708 0,0 1.549008,0.303283 1.994258,-0.194563 0.25943,-0.290074 0.13814,-0.831263 -0.0165,-1.167369 -0.35994,-0.786319 -1.51013,-0.806403 -2.222233,-0.656592 M 110.7443,85.400257 c 1.29372,0.404096 0.88356,0.344194 1.45921,0.518797 0.74323,0.278614 0.77825,0.79352 0.77825,1.524099 m 0.84503,-1.061473 c -0.4864,-0.659756 0.52419,-1.265213 0.61418,-0.884145 0.1124,0.475909 -0.69458,0.473954 -0.61579,0.875528 0.0389,0.20176 0.43971,0.531349 0.61579,0.680967 0.30546,0.258378 0.72669,0.316356 1.16737,0.291841 0.38426,-0.0214 0.53796,-0.146504 0.58368,-0.583686 m -5.44184,-1.344522 c 0.28246,0.74337 0.32492,1.244801 0.48053,2.122771 m -2.13521,-1.368064 0.57871,0.784378 m 67.99927,1.361932 c 0.0992,-0.342915 0.35076,-0.371955 0.84105,-0.303859 0.26813,0.03724 0.64485,0.03549 0.64485,0.03549 0,0 0.34596,0.776803 0.42761,1.143899 0.0885,0.399532 0.0315,0.669324 0.0597,1.003095 0.043,0.509956 0.16696,1.526205 0.16696,1.526205 m 0.0991,-1.528563 c 0,0 -0.49187,-0.03951 -0.63974,-0.03406 -0.28989,0.0107 -0.79507,-0.121402 -1.11318,-0.188427 m -78.165436,-2.426363 0.340816,1.356275 m 69.03301,-0.777592 0.0363,0.58303 1.45921,-0.09728 m 3.98852,0.486404 c 0,-0.31081 -0.0185,-0.900527 0.38912,-0.924167 0.31519,-0.01828 0.88234,0.520451 1.02145,0.729607 0.2539,0.38066 0.608,1.111528 0.71306,1.556492 0.0603,0.253026 0.035,0.359258 0.0973,0.583686 0.073,0.262851 0.12257,0.449339 0.11381,0.778245 -0.0107,0.387469 0.009,0.73943 -0.38912,0.924168 -0.72474,0.336688 -1.288,-1.002091 -1.49131,-1.507853 -0.0642,-0.1574 -0.23153,-0.389512 -0.11382,-0.567439 0.35313,-0.534556 1.47396,0.340632 1.88156,0.351334 m -4.65405,-2.572644 c 0.19748,-0.06868 0.53699,-0.04426 0.66442,0.08113 0.14495,0.141251 0.12744,0.268593 0.2111,0.470157 0.0807,0.194563 0.14106,0.369961 0.25974,0.583686 0.22083,0.398559 0.60898,0.649445 0.69654,1.07009 0.0749,0.359743 -0.036,0.805873 -0.46987,0.940412 -0.47765,0.147866 -1.08468,-0.35459 -1.36193,-0.648571 -0.55645,-0.591079 -1.09149,-2.117998 0,-2.496907 m -14.203,0.259449 c 0.27336,1.037501 0.8765,2.442524 1.19947,3.502108 0.0807,0.26402 0.10312,0.359162 0.16246,0.680964 m 9.82536,-4.183072 c 0,0.333577 0.13425,0.773091 0.29185,1.070089 0.28308,0.534461 1.27048,0.13337 1.71895,0.778246 0.97864,1.409792 -0.50489,1.978885 -1.62167,1.361932 m -9.72808,-3.112986 c 0.16246,0.881362 0.59633,2.338631 1.05355,3.307546 0.16148,0.340385 0.16051,0.543411 0.40566,0.875527 m 0.68097,-3.745309 c 0.75392,-0.388153 1.84152,0.791573 2.01079,1.50785 0.0564,0.241938 0.0535,0.361983 0.0321,0.583686 -0.0506,0.519674 -0.32881,1.190521 -0.87553,1.410572 -0.3395,0.136582 -0.54671,-0.02159 -0.77824,-0.243203 -0.58661,-0.561408 -1.48062,-2.697013 -0.38912,-3.258905 m -12.35466,0.340482 c -0.54089,-0.156622 -1.84834,0.04864 -1.84834,0.04864 0,0 0.13133,0.473077 0.0807,0.924168 -0.0409,0.37025 -0.0486,1.102288 -0.0486,1.45921 0,0.163918 -0.0457,0.317818 -0.0321,0.486405 0.0321,0.385232 0.18581,0.924945 0.42123,1.26465 0.55255,0.794978 1.35901,0.525026 1.71895,-0.19456 m -7.00422,0.291841 c 0.41831,0.385232 0.58758,0.457221 1.07009,0.35673 0.37259,-0.07763 1.0662,-0.34953 0.82689,-0.843134 -0.16441,-0.338635 -0.75588,-0.376573 -1.02145,-0.454009 -0.64789,-0.188821 -1.15959,-0.368402 -1.53996,-1.005201 -0.34437,-0.575708 -0.88623,-1.930831 0.17803,-2.042899 m 1.55649,0.291844 c 0.63816,-0.184737 1.22185,0 2.14018,0 m -1.17168,-0.06646 c 0.073,0.394864 0.21638,0.822135 0.39343,1.33111 0.38134,1.0983 0.48932,2.226272 0.97281,3.307546 m 20.62352,-4.377636 c -0.46792,0.196896 -0.88038,0.198551 -1.36192,0.09728 m -33.951,0.340482 c 1.37879,-0.333999 2.71319,0.877984 3.16163,1.799695 0.1109,0.228514 0.13716,0.459457 0.14592,0.680967 0.0428,1.038083 -0.47376,2.271018 -1.45921,2.804897 -0.23737,0.128508 -0.76074,0.368791 -1.05356,0.162167 -0.13716,-0.0968 -0.14883,-0.294373 -0.17899,-0.437764 -0.0457,-0.220925 -0.0107,-0.263924 -0.0321,-0.486404 -0.0769,-0.794687 -0.31227,-1.80018 -0.51851,-2.626582 -0.0976,-0.390647 -0.33415,-1.537753 -0.33415,-1.537753 0,0 0.11817,-0.271607 0.26897,-0.359223 m -2.72408,3.423217 c -0.40469,-0.54915 -0.43268,-1.352983 -0.61557,-2.012645 -0.0837,-0.299722 -0.29239,-0.74328 -0.29239,-0.74328 1.57191,-0.64075 3.59461,0.434344 2.15629,1.797122 -0.41344,0.385232 -0.75295,0.624057 -1.24811,0.989054 l 0.4864,1.26465 m -15.27308,-4.183073 0.94071,2.33474 0.13765,0.519754 c 0.20065,0.757622 0.10944,0.708025 0.34875,1.42586 0.19261,0.579503 0.15759,1.044699 0.61579,1.556495 m -1.74846,-2.954878 1.37174,0.09932 0.57128,0.131698 m 31.44572,-2.414786 c 0.35702,0.02821 0.80577,0.08005 1.3379,0.08005 m -43.71835,3.728654 c 0.82299,-0.259741 1.86816,-1.040592 1.61231,-1.880321 -0.2646,-0.864728 -1.12165,-1.024366 -1.86487,-1.199764 -0.30741,-0.07247 -0.82689,0.178315 -0.82689,0.178315 0,0 0.71793,2.28999 1.21601,3.258908 0.19748,0.384063 0.47376,0.996642 0.4864,1.45921 m -18.386065,-3.98851 c 1.263434,-1.756556 1.994953,0.879186 1.251806,1.654647 0.646745,-0.524459 1.822549,0.35165 1.861177,0.777372 0,0.593411 -0.33698,1.392284 -0.972805,1.459212 m 39.956937,-3.933011 c 0.64695,0.01718 1.795,0.720797 1.48468,1.792834 M 94.887463,96.3606 c -0.62931,-0.410817 -1.271169,-1.165521 -1.167372,-1.913221 0.0359,-0.258475 0.234741,-0.481151 0.421519,-0.66472 0.346124,-0.340093 0.688197,-0.46663 1.183613,0.226956 l 0.82689,1.216009 c 0.40224,0.591531 -0.232891,1.808451 -1.26465,1.134976 z m 1.556491,-2.691467 c 0.77387,1.547736 0.702658,2.909083 1.361932,4.474914 m -6.517813,-4.377635 0.486404,0.875527 0.875527,2.140177 m -6.420531,-2.918423 c 0,0.34846 0.105352,0.875235 0.226955,1.361931 0.150202,0.600808 0.318692,1.389171 0.535043,1.945618 0.196021,0.503912 0.286687,1.043529 0.502652,1.556491 m 26.752217,-1.751054 c 0.13619,-0.0717 0.28017,-0.106426 0.38912,-0.210808 0.92904,-0.888369 -0.92806,-1.120479 -1.32982,-1.734809 -0.39302,-0.602363 0.11965,-1.236827 0.74614,-0.972806 m 5.10227,0.794898 c 0.73073,0.812498 -1.25246,2.150221 -1.59155,1.505951 -1.59545,-1.214313 0.60617,-3.11895 1.59155,-1.505951 z m -8.31005,0.07814 c -0.205,-0.934442 1.21983,-0.644068 0.8244,-0.435281 z m 9.23919,1.753539 c 0,-0.540105 -0.0632,-0.738556 -0.0808,-1.167371 -0.0107,-0.258376 -0.0395,-0.464697 0.0315,-0.669862 0.20818,-0.598279 0.6475,-0.644499 1.08721,-0.01111 0.34243,0.494186 0.52629,1.182447 0.81035,1.751054 M 108.6817,95.539512 c 0.15506,-0.545292 1.35426,-0.698635 1.47878,-0.313889 m 0.68096,-0.291841 c -0.11382,0.393306 -0.13911,0.533291 0.0807,0.972806 0.30547,0.609562 0.79965,0.875527 1.47575,0.875527 m 6.95748,-2.210283 0.63042,0.848354 m -11.58867,-0.297822 c 0.37745,0.307796 0.53563,1.745263 0.69323,2.243437 m 19.26159,3.696669 c 0.0876,-0.30264 0.29866,-0.68067 0.68097,-0.66472 0.49613,0.0206 1.02339,0.67776 1.24811,1.05385 0.13814,0.23123 0.11382,0.34223 0.11382,0.58368 0,0.3006 0.0107,0.42949 0,0.68097 -0.01,0.24086 -0.0333,0.30216 -0.0973,0.4864 -0.08,0.23047 -0.11755,0.33846 -0.22667,0.4864 -0.16911,0.22931 -0.44749,0.37667 -0.74614,0.38913 -0.68583,0.0286 -0.8231,-1.81339 -0.14592,-1.36193 0,0 0.72617,0.43505 1.07009,0.68096 0.25335,0.18115 0.7296,0.58369 0.7296,0.58369 m -9.04711,-2.23746 c -0.0593,-0.20565 -0.31713,-0.43952 -0.2753,-0.68097 0.0681,-0.39788 0.42729,-0.335 1.34539,-0.35673 0.0741,0.0269 0.34728,0.0254 0.34728,0.0254 0,0 0.38808,1.25523 0.43096,1.69322 0.0234,0.243 0.11382,0.64857 0.11382,0.64857 0,0 0.87942,0.0797 1.15083,0.12967 m 8.1716,-2.5293 c 0.0409,0.51666 0.23931,0.83068 0.43776,1.26465 0.24904,0.544 0.72377,2.77727 1.31329,2.5293 m -8.12174,-3.72105 c -0.29768,0.21178 -1.49088,0.0237 -1.49088,0.0237 0,0 -0.35185,0.91481 0.11121,1.44363 0.54769,0.62454 1.43295,0.0823 1.99426,0.89177 0.27238,0.39214 -0.0253,0.76589 -0.37259,0.95656 -0.36383,0.19972 -0.4864,0.21081 -0.97281,0.21081 m 5.44773,-3.50211 c -0.0506,0.3185 -0.0311,0.3792 0.0652,0.68096 0.0788,0.2468 0.10117,0.43728 0.16148,0.68097 0.11966,0.47833 0.30955,1.42313 0.84343,1.41057 0.35392,-0.008 1.0658,-0.46869 1.31387,-0.77269 m 1.99367,-1.77286 c 0.48446,-0.168 0.63038,0.053 0.97281,0.24321 0.11576,0.0645 0.29087,0.0198 0.37259,0.0811 0.15564,0.11674 0.20818,0.3254 0.27627,0.5188 0.0535,0.15253 0.0282,0.21615 0.0642,0.38912 0.0428,0.20293 0.0652,0.26305 0.0652,0.4864 0,0.49526 -0.37551,1.48626 -0.77825,1.70242 -0.44749,0.2398 -0.82689,-0.002 -1.13527,-0.43777 -0.52531,-0.74235 -0.96891,-2.59058 0.16246,-2.98331 m -27.3359,0.64857 c 0.81716,0.1075 1.7851,0.18007 2.43202,0.48641 m -1.18212,-0.3361 1.0041,3.44908 0.2753,0.87553 m 3.21027,-3.89123 -0.22046,1.34365 0.52884,0.79653 0.85899,1.55649 m -2.72386,-3.30755 1.33168,0.95475 m 8.98008,-0.46834 0.79087,-0.0366 m -34.450025,5.38701 c -0.08988,-1.13829 -0.686802,-2.66141 -0.891772,-3.89123 -0.06547,-0.39302 0.01624,-1.24841 0.01624,-1.24841 0,0 1.043902,0.1149 1.393917,0.27045 0.36169,0.16081 0.604329,0.40157 0.94082,0.62123 0.46296,0.30225 1.017462,0.78855 1.07009,1.32953 0.154369,1.00643 0.321453,1.4784 0.178318,2.43202 0,0 -0.143638,0.58866 -0.372878,0.74585 -0.376104,0.2579 -2.239427,-0.0166 -2.239427,-0.0166 m 6.4225,-0.43743 c -0.312857,-0.25527 -1.259485,-1.17219 -1.344696,-1.36252 -2.238498,3.26123 -2.685012,-0.71334 -1.135963,-0.92358 0.635721,-0.0731 1.014735,0.0329 1.313291,0.53504 m 29.105015,-3.42942 c 0,0.39234 0.22028,1.82332 0.0792,2.35934 m -9.84342,-1.87316 c -0.46208,0.65062 -0.76018,1.96119 -0.76018,2.6514 m -18.288794,-2.33474 0.875527,2.33474 0.372878,1.26465 0.599931,1.36193 m -0.194563,-4.96132 0.907923,1.5565 0.373267,0.9728 0.372583,1.5565 m 4.280538,-2.52931 c -0.12063,0.28697 -0.16733,0.57113 0,0.9728 0.0905,0.21616 0.17996,0.40926 0.38912,0.53505 0.37356,0.22394 0.87553,0.0695 0.95627,0.53504 0.0555,0.31801 -0.24807,0.54925 -0.56715,0.58369 m -2.17648,-2.3303 0.52271,1.94117 m 4.37763,-0.87552 c 0.34243,0.54282 0.29185,0.84391 0.29185,1.26465 m -4.91158,-1.2499 c -0.0869,0.4572 -0.66388,0.82884 -1.703518,1.05534 -0.851214,0.18544 -0.655672,-2.42823 0.291838,-2.5617 0.45528,-0.0641 1.04772,0.33465 1.36193,0.61608"
       id="path125"
       sodipodi:nodetypes="cccccsccccccccccccccscccccccccccsssssccsccccccccccsccccccssccccccccccscccccccccccccsccccsccccsscssccccccccccccccccccssscsscccssscccccccccccccsscccscccsccccccccsscccscccsccsscscccccccscsscccccscccccsccccccccccccssccccccssccsscccccccsccccsccccccccccccsscccsccscccccccsccccsccccccsscccccccsccccccsccccccscccccccccscccccccccccccccccccscscccccccccscccccscccccssccccccsccccssccccsccccccscccccccccsccsccccccccccsccccccccccsccccccccccccccccccccccccsccccccccccccccccccccscccccccccccccsccccccccccccccccccccccssccccccccccccccccccsccccccccccccccccccscsssssccccccccccccccccccccsccccccscccccccccccccccccccccccscccccccccccccccccccccccccccscc" /></g></svg>
