<?xml version="1.0" encoding="UTF-8" standalone="no"?>
<!-- Created with Inkscape (http://www.inkscape.org/) -->

<svg
   version="1.1"
   id="svg9"
   width="3000"
   height="1998.207"
   viewBox="0 0 3000 1998.207"
   sodipodi:docname="SavvS - Stake - Envelope60.svg"
   inkscape:version="1.2.1 (9c6d41e410, 2022-07-14)"
   xmlns:inkscape="http://www.inkscape.org/namespaces/inkscape"
   xmlns:sodipodi="http://sodipodi.sourceforge.net/DTD/sodipodi-0.dtd"
   xmlns="http://www.w3.org/2000/svg"
   xmlns:svg="http://www.w3.org/2000/svg">
  <defs
     id="defs13" />
  <sodipodi:namedview
     id="namedview11"
     pagecolor="#ffffff"
     bordercolor="#000000"
     borderopacity="0.25"
     inkscape:showpageshadow="2"
     inkscape:pageopacity="0.0"
     inkscape:pagecheckerboard="0"
     inkscape:deskcolor="#d1d1d1"
     showgrid="false"
     inkscape:zoom="0.44518519"
     inkscape:cx="842.34608"
     inkscape:cy="509.90016"
     inkscape:window-width="1272"
     inkscape:window-height="729"
     inkscape:window-x="0"
     inkscape:window-y="44"
     inkscape:window-maximized="0"
     inkscape:current-layer="g15"
     showguides="true" />
  <g
     inkscape:groupmode="layer"
     inkscape:label="Image"
     id="g15">
    <path
       style="fill:none;stroke:#554c54;stroke-width:0.336521"
       d="m 218.56361,190 c 0,3.16933 0.55627,5.81305 1.01732,9.87383 0.26607,2.34347 2.01137,7.74176 2.01137,10.31746 m -4.8314,-8.86449 c 1.65243,0.28072 4.61439,0.46602 6.85054,0.45145 m -19.18173,-7.06695 c 0.50175,0.70633 0.66193,1.2275 0.67304,2.01913 0.54766,4.58127 0.2917,10.20515 1.02235,14.13189 m -3.04148,0.5629 c -1.33726,0.072 -2.16719,0.0532 -3.18805,-0.86216 -2.37905,-2.13308 -1.75644,-5.38375 0.21555,-7.32656 0.87394,-0.83026 2.15932,-0.7684 3.30901,-0.7852 1.8178,-0.0266 2.07648,0.54958 2.10677,1.37161 0.0173,0.47008 0.008,1.02057 0.0516,1.58473 0.17039,2.18752 0.73519,5.84377 -2.49487,6.01758 z m -9.32629,-1.30232 c -7.92161,2.0322 -5.03279,-12.01912 -0.15252,-8.84943 0.79184,0.58171 -0.0972,2.12534 -0.7289,2.86044 -0.83558,0.97227 -2.53611,2.04349 -3.92229,1.59663 m 22.54304,-10.68272 h 0.33652 m -34.3252,14.47043 c -0.28941,1.09921 -0.48257,1.78673 -1.12163,2.69217 -0.64881,0.91938 -1.17143,1.00957 -2.24359,1.00957 -0.79789,0 -1.33868,-0.004 -2.01913,-0.44869 -1.77044,-1.15568 -2.47511,-3.12409 -3.02869,-4.93566 -0.43344,-1.41901 -0.61045,-2.73979 -0.22446,-4.37478 0.55661,-2.35652 2.18369,-4.61065 4.59924,-4.7113 1.00182,-0.0418 2.41488,0.0227 3.02869,1.34609 0.44556,0.96093 0.16793,1.52239 -0.33652,2.35565 m 34.99825,-2.69218 c 0,0 -0.0525,2.99719 0.44858,4.37479 0.65029,1.78774 0.98911,3.58072 1.57054,5.38434 m -32.18183,-7.85746 c 0.59117,1.85561 0.79925,5.87837 0.95773,7.81409 0.0399,0.48701 0.0414,0.84192 0.0863,0.99696 0.099,-2.23324 -1.6845,-7.50472 1.86046,-8.80575 1.35955,-0.45322 2.53266,1.29867 3.02869,1.79477 m -90.52433,14.47043 c -0.05317,2.02149 -1.342385,7.56198 -4.374782,5.49641 -2.814666,-1.91717 -3.960522,-6.7402 -4.038259,-9.53467 -0.02019,-0.7289 -0.07235,-0.90053 -0.224459,-1.68261 -0.201577,-1.03652 -0.112062,-2.15622 -0.112062,-3.36521 0,-0.721 -0.01817,-1.01213 0.112062,-1.68261 0.163885,-0.84258 0.162876,-1.78363 0.61718,-2.69217 2.508097,-5.01629 6.674232,1.21844 6.674232,3.70173 M 123.328,203.12434 c 2.0039,5.22278 1.77412,10.55318 1.89502,16.04885 -0.2534,-5.6798 0.46846,-12.44372 5.17194,-10.15972 3.1707,1.67863 0.54213,7.32439 0.33652,9.92738 M 35.495874,206.48956 c 1.402752,3.50806 1.385539,7.19846 1.947755,10.80627 l 0.744418,4.3372 0.673044,5.38434 M 17.323709,206.82608 c 1.739873,6.27478 0.99698,13.49508 2.355651,19.18173 m 1.159437,-9.85935 -5.634439,0.40089 m 97.018432,-0.97371 c 0,2.15946 3.60987,9.10897 6.95489,4.7113 0.60238,-0.79217 1.35955,-2.03797 1.06543,-3.02869 -0.33484,-1.12803 -2.17763,-1.51031 -2.97249,-1.96293 -0.83357,-0.47484 -1.61194,-0.86722 -2.24359,-1.73881 -1.17345,-1.61965 -1.6678,-5.55964 1.23402,-5.72087 1.38546,-0.077 2.0649,0.83283 3.36522,1.34609 M 6.5550187,225.67129 c 1.100762,2.20152 3.8844013,2.71505 5.7208663,1.23402 0.880038,-0.70972 1.123444,-2.08172 1.009565,-3.25315 -0.361188,-3.71487 -4.5916349,-5.09494 -6.7865295,-8.07652 -0.8171417,-1.11019 -1.5061191,-2.62352 -1.2899882,-4.03826 0.5250074,-3.43629 6.9198937,-4.92109 8.0765177,-1.34609 m 94.33273,6.34124 c -0.16086,1.65603 -2.88804,3.9607 -5.15451,2.29626 -4.729141,-3.47324 2.18872,-12.15784 4.76176,-7.80358 0.88569,1.49882 0.53577,4.03605 0.39275,5.50732 z m -0.59932,-5.82342 c 0.22135,0.24705 0.29344,0.59093 0.47771,0.95453 0.2249,0.44375 0.21452,1.05013 0.49305,1.6895 1.02984,2.36399 2.0328,5.40514 2.55057,6.26076 m -82.784312,3.36521 c -1.220194,-0.0676 -2.077819,-0.70871 -2.860434,-2.01913 -1.152923,-1.93062 -0.49369,-8.00321 1.570446,-9.92738 1.973862,-1.84003 8.068325,-2.46781 5.042289,7.83195 -0.667083,2.27055 -1.495049,4.24009 -3.752301,4.11456 z m 4.165276,-11.28886 c 0.543199,0.93432 0.468945,4.19251 0.416077,6.43129 -0.03082,1.30505 0.239436,3.14187 0.69083,3.84801 0.510569,0.72083 1.10645,1.28416 1.794771,1.68261 m 6.73043,-11.77826 c -1.317818,2.63564 -3.581466,3.07509 -4.07745,5.26792 3.242606,1.37231 5.048247,4.62481 5.423538,8.52947 m 2.359327,-6.54126 c 2.567076,0.1066 8.688012,-7.9728 1.628822,-5.51629 -3.472713,1.20847 -0.961403,10.41206 0.386631,11.60896 2.854375,2.14095 4.983547,-1.81721 5.047823,-4.26272 M 182.5558,244.17997 c 1.90606,3.20571 6.94412,2.09788 8.30098,-1.00956 0.79554,-1.8226 -0.32643,-3.64049 -1.90707,-4.43098 -1.6752,-0.83727 -3.17474,0.28436 -4.7113,0.72924 -0.47743,-1.5867 -0.67487,-6.49904 0.0562,-7.23521 0.30858,-0.19128 4.19527,0.92367 5.32815,1.17782 m -42.40172,2.86044 c 1.51603,-0.76862 2.72077,0.70602 3.30901,1.85086 1.05434,2.29482 1.36521,4.67143 1.00957,7.06696 -0.16086,0.96649 -1.09,3.71553 -1.96293,4.20652 -1.47902,0.83188 -3.36959,-0.51387 -4.03826,-1.85087 -1.41272,-2.82544 -2.02923,-9.39131 1.68261,-11.27347 m -15.81652,4.87956 c 3.1903,-6.01419 10.61704,-5.44759 6.41793,1.69686 -1.21518,1.8613 -3.7313,4.7014 -3.95711,7.02373 -0.19855,2.04303 3.03517,1.06593 4.6636,0.24045 1.18691,-0.60204 3.17853,-1.10158 3.98079,-2.23061 m 15.81652,-11.32967 c 0.84265,-0.19888 1.59679,0.0246 2.18739,0.8975 0.70569,1.04322 1.07451,1.7129 1.45815,3.0287 0.39373,1.34978 0.80395,2.81567 0.61718,4.03826 -0.11745,0.7676 -0.11879,1.25892 -0.22446,2.01912 -0.13596,0.97861 -0.93318,2.34556 -2.01913,2.63598 -3.46988,0.9288 -4.7113,-5.26421 -4.7113,-7.34728 0.0266,-2.42238 0.90772,-4.80558 2.69217,-5.27228 m -70.669532,6.95489 c 0,2.85202 -0.643506,11.0478 2.411851,11.94651 2.416887,0.71092 3.707681,-3.29354 3.131851,-8.74238 -0.178933,-1.69316 0.16146,0.834 0.512445,3.47903 0.444834,3.35229 2.667545,7.23746 5.385586,6.32912 3.449349,-1.21451 1.181529,-8.09974 0.729244,-10.32011 -0.126534,-0.62122 -0.0562,-1.09605 -0.0562,-1.34608 M 47.27413,257.64084 c 2.240898,3.15388 8.169062,2.06994 6.281847,-3.36522 -0.632323,-1.82126 -3.127293,-2.33613 -4.599239,-1.90707 -0.498389,0.14538 -1.369643,0.77669 -1.962932,0.39272 -0.727154,-0.97715 -2.095069,-5.80633 -1.907068,-6.16945 1.498369,-0.79119 4.169167,-1.19263 5.552606,-1.7388 m -24.902596,2.07532 c 2.400728,-0.30514 2.640807,3.19339 3.253054,4.99163 0.678735,1.95485 0.913419,4.09615 0.504782,6.05739 -0.14935,0.7168 -0.02254,1.31539 -0.729141,1.68261 -7.48307,3.88884 -6.491371,-12.2915 -3.028695,-12.73163 z m -8.542222,0.81729 c -1.613756,-0.0273 -5.431683,-0.89644 -5.591684,0.4726 -0.282783,2.41962 1.694174,6.98199 2.01913,6.89869 1.442427,0.37811 5.843213,-2.74672 7.752638,1.47849 0.562196,1.24404 0.927039,2.85089 -0.482934,4.99771 -0.910507,1.38634 -4.075129,3.59403 -5.250575,3.33913 -1.984398,-0.43034 -2.517686,-3.19898 -3.365216,-4.59924 m 20.527818,-12.78782 c 2.294099,0 5.261308,-0.9012 5.720865,-0.67305 -1.302324,5.18544 -0.509429,8.09214 -0.673042,12.4513 m -2.806188,-6.03578 c 0,0 1.00858,-0.0992 1.513587,-0.0826 1.104239,0.0363 3.29058,0.39751 3.29058,0.39751 m 151.119335,22.54695 c -0.70737,-2.44415 1.97997,-4.24665 4.57522,-4.10262 0.68752,0.038 1.80456,0.11013 2.32347,1.13013 0.95902,3.80827 -4.08581,8.90766 -4.43097,11.04901 -0.41348,2.5651 1.3778,3.0353 2.91663,2.24359 2.75769,-2.11774 4.10213,-3.99007 4.7113,-4.59924 m 4.7113,-9.59086 c 1.43661,-0.80799 2.18726,0.61691 2.63597,1.51434 0.3512,0.70239 0.6731,1.21079 0.95371,2.01913 0.47232,2.24774 0.95637,4.73153 0.7851,6.73043 -0.15167,1.5608 -1.01532,4.51673 -2.35565,5.21609 -1.64966,0.86075 -3.29226,-1.09771 -3.9262,-2.52392 -1.12708,-2.53566 -0.48422,-4.50871 -0.44858,-7.06695 0.0205,-1.47565 0.7602,-4.99162 2.35565,-5.88912 m 9.58845,-2.10051 c 0,0 0.57484,6.67905 0.95578,10.00876 0.0643,0.56217 0.18697,1.11802 0.22446,1.68261 0.0892,1.34313 0,4.03826 0,4.03826 m -79.08257,-11.44174 c -1.25352,4.37033 0.53425,14.92261 0.33652,14.80695 -3.38047,-1.97743 -6.70151,-9.20341 -7.50001,-10.9974 -0.22475,-0.18718 0.12043,7.46662 0.54512,9.65132 0.23388,1.20172 0.22446,1.56348 0.22446,3.02869 m 48.45911,-15.47999 c 1.30814,-0.26087 5.29604,-1.29342 5.66467,-0.84131 0.94943,0.50211 -1.16917,8.20682 -1.36652,10.29935 -0.17605,1.86666 -0.18965,2.8573 0.0766,4.33934 m -10.43214,-14.47042 c 0,2.93817 -0.0231,4.6438 0.35445,7.78298 0,0 0.32847,1.75981 0.31859,2.64918 -0.009,0.79314 -0.33652,2.35565 -0.33652,2.35565 m 0.0501,-4.9476 c -2.33142,0.0613 -5.78056,1.82601 -5.77097,1.24587 0.15401,-2.17333 0.61073,-5.39795 1.34608,-8.07652 m -45.09389,0.33652 c -0.42858,2.09994 7.6e-4,4.18661 0,6.05739 0,3.2407 -0.008,7.30252 1.68261,10.09565 M 66.119339,278.16865 c 2.895416,4.14348 2.900335,13.94217 3.312699,14.8827 m 5.468234,-0.41963 c 1.074177,-1.54699 2.656425,-4.71808 2.043955,-6.72307 -0.375222,-1.22763 -1.267677,-2.28667 -2.41185,-2.63597 -6.552151,0.0587 -5.807259,5.01167 -5.146206,9.56776 0.539984,3.72168 3.803899,2.25361 5.514101,-0.20872 z m 6.362537,-9.41524 c 0,3.01254 0.603046,6.02373 1.738806,8.74956 0.331473,0.79587 1.001413,2.45022 1.96293,2.29945 3.239022,-0.50791 5.078532,-2.90689 3.179026,-11.01615 0.01562,-0.3085 0.660947,6.17327 3.551406,9.05322 m 3.457623,0.60132 c 2.167536,-1.25489 5.08524,-0.77354 5.00507,-3.14316 -0.0833,-2.46091 -6.016853,-2.63656 -6.331502,-5.8712 -0.286716,-2.9513 2.65482,-5.98571 4.935762,-3.0287 m -70.669531,0.67305 c 0.09806,3.72664 1.634082,11.53326 3.701739,14.80695 M 180.87319,282.87995 c 0,0 1.92516,-0.84825 2.93111,-1.11586 1.87442,-0.49864 5.48193,-1.57631 5.48193,-1.57631 M 15.641101,293.64864 c -1.17308,1.48608 -2.314392,4.57075 -4.37478,4.59924 -1.8813564,0.026 -4.0389385,-2.42933 -4.5991397,-4.26271 -0.1967031,-0.64376 -0.1121626,-1.04389 -0.1121626,-1.68261 0,-1.87476 0.8769637,-4.66106 2.3556509,-6.00119 1.6180854,-1.46646 2.3754044,-1.06577 4.3747804,-1.06577 m 32.979115,1.00957 c 3.571598,4.34554 4.296745,4.59472 6.20749,9.49386 -0.03432,0.66071 -3.165036,-8.07032 -0.0939,-10.1107 2.708735,-1.45733 6.250369,7.42398 5.912799,6.68352 -0.493125,-2.19555 -2.085269,-6.32823 1.434475,-6.90798 0.994638,-0.0888 1.773757,1.03932 2.355653,1.85086 1.178381,1.64344 2.019129,5.72087 2.019129,5.72087 m -43.747806,-6.28185 c 3.088259,-1.07216 5.047824,4.47641 5.047824,7.29142 0,1.47968 -0.01323,3.07782 -1.682608,3.47727 -1.217401,0.29177 -2.857966,-0.96041 -3.589575,-1.79467 -1.51097,-1.72297 -2.148185,-4.15907 -1.682608,-6.39391 0.236609,-1.13576 0.528777,-2.10157 1.906967,-2.58011 m 14.133906,0.8975 c 0,1.76338 -0.125926,3.06403 0.673044,5.04783 0.544155,1.3508 1.534874,4.37545 3.365215,4.6551 1.465552,0.22412 1.657369,-1.41373 1.962932,-2.63597 0.310946,-1.24412 -0.296037,-8.36161 -0.140567,-7.62311 -0.04648,6.0329 1.480012,9.69361 5.244588,8.9692 m 67.304317,-7.74 c 0.84702,0.62122 1.26969,1.66444 0.8975,2.69217 -0.53406,1.47397 -1.48272,1.60925 -1.90707,0.33652 m 412.4338,26.21239 c -0.85566,2.15322 -0.19457,18.19499 -0.0215,17.5862 M 498.0018,318.27264 c -1.24744,6.08068 2.4251,13.99775 1.04889,18.79327 m -4.73915,-9.07414 c 0.57545,0.41157 6.30092,0.0225 7.60326,-0.35445 m -12.45129,-9.4226 h 2.01913 m -38.69998,0.33652 c 0.12451,1.55809 0.33652,2.09451 0.33652,3.70174 -0.1235,4.10619 -1.63085,8.31706 -1.68262,12.11478 0,0.85611 0.15818,3.43151 1.3461,3.64553 1.24848,-0.37619 4.04889,-1.34204 5.00459,-2.37852 m -76.68373,-16.41049 c 3.35839,5.4478 2.47341,8.91341 2.80321,14.13391 l 0.22548,4.37478 m -23.21999,-17.83564 -0.33653,3.70173 c 0.10206,3.45744 0.71227,6.2535 1.3461,9.42261 l 1.00956,5.04782 m 31.27854,-8.72025 c 2.37934,0.25996 7.06519,-3.7159 6.69119,-6.0867 -0.20191,-0.96077 -0.99947,-1.40767 -1.96193,-1.23402 -3.15636,1.16127 -5.82025,4.09572 -4.76851,7.29141 1.04321,3.4093 6.78764,6.67457 8.13374,2.01913 m 3.36521,2.69217 c 1.31579,0.24264 2.15711,0.81472 3.3652,1.23403 2.36577,0.82111 4.75843,-0.24398 3.25418,-2.91663 -1.25524,-2.22475 -5.01082,-3.78183 -6.17182,-6.39392 -1.43694,-3.23632 1.68262,-5.22617 3.59069,-2.01913 m 58.55516,0.5135 c 0.79223,2.19199 0.63209,2.96124 1.60074,9.19287 -1.79054,-6.25817 7.03987,-16.53515 6.38679,-0.77006 -0.16951,-7.02967 1.49289,-7.75711 3.21952,-7.99113 2.44472,-0.48011 2.50327,2.48449 2.91338,6.08634 0.16956,1.4892 -0.11105,2.88467 -0.11105,4.37479 m -132.80191,-1.31066 c 0.32306,1.53521 5.18917,4.47372 6.89871,1.34609 0.56198,-1.02673 -0.37354,-1.77852 -1.17783,-2.24359 -1.7499,-1.00957 -4.67764,-1.94745 -4.71131,-4.48684 -0.0471,-3.37094 3.8128,-3.74481 4.71131,-2.35565 m 133.93559,-0.67305 c 1.97835,3.76722 0.71303,9.36523 1.6826,11.77826 m 14.18791,-5.00622 c 4.67255,-2.64519 4.94048,-10.91392 0.3242,-6.55289 -2.18896,2.06793 0.44953,10.19603 2.92971,11.72737 0.76727,0.49065 3.80487,0.70281 4.44577,-0.83843 m 7.7084,-9.61451 c 1.55064,-0.0743 2.60816,-0.52079 3.17094,0.99433 0.42977,1.15699 0.43114,2.23164 0.4593,4.3317 0.0434,3.23597 -1.01158,4.76983 -4.95852,4.34181 -1.96192,-0.38162 -2.81878,-1.18731 -3.11282,-3.113 -0.4405,-2.88492 2.7549,-6.47399 4.4411,-6.55484 z m -235.88381,12.30381 c 2.51147,0.79318 4.75775,3.99586 7.40346,3.70173 1.31885,-0.14638 2.55521,-2.24628 2.63598,-3.70173 0.1797,-3.23566 -4.58476,-2.86683 -6.3377,-4.43098 -1.48809,-1.32792 -2.57742,-3.33224 -2.35566,-5.32815 0.16322,-1.46824 1.79334,-3.26224 3.36523,-3.58967 1.6126,-0.33585 3.57217,0.63299 4.03826,2.24359 m 168.22533,-5.50943 c 0,0 -0.0503,0.2349 -0.1852,1.03135 m -0.21262,2.72837 c -0.17591,1.03853 -0.19805,3.88216 -0.18258,4.7784 0.0197,1.13692 0.29659,2.25874 0.55865,3.36522 0.18947,0.79995 0.73024,2.35565 0.73024,2.35565 m -70.81986,-2.63517 c -2.00479,-1.28737 -7.70573,-3.12812 -7.61131,-5.58439 0.0945,-1.39653 3.90073,-3.08231 5.44875,-4.91904 m -49.17491,24.91685 c -0.0606,-2.36238 -0.68986,-4.31791 -1.12062,-6.39391 -1.53078,-4.35699 -2.48035,-12.02912 -2.64319,-13.17778 m 0.15323,-0.67275 c 1.3063,-0.97406 6.22871,-1.48913 7.53778,0.38967 0.54517,0.78443 0.78411,1.76034 0.78411,2.69217 0,1.42786 -0.36683,2.35767 -1.06678,3.36522 -0.59229,0.8551 -1.42013,1.92726 -2.29845,2.63597 -1.08347,0.92435 -3.1006,2.40349 -3.35857,1.65148 -0.45345,-1.32189 -1.24765,-5.40161 -1.53931,-8.14648 -0.14624,-1.37624 -0.38041,-2.44997 -0.0588,-2.58803 z m 30.15302,-0.24752 c -2.25658,-0.20774 -2.12254,-0.21185 -5.48136,0.20757 l -3.15325,0.39376 m -42.10155,6.60125 c 1.4955,-0.43528 4.80806,-1.63337 4.61927,-4.88278 -0.27158,-1.31984 -1.77684,-1.04019 -2.63598,-0.50479 -3.8394,3.70128 -1.82171,11.98395 2.35565,11.5538 2.19042,-0.3345 3.55503,-3.09398 4.03826,-4.31858 m 3.91511,-1.71689 c 2.34098,1.43123 5.97435,-10.56132 1.66442,-6.6702 -4.1744,3.76876 -0.30678,15.6496 4.1796,9.06013 m 36.30849,-2.1813 c -1.10689,-0.70117 -1.73549,-1.50113 -2.04419,-2.66608 -0.23311,-0.87976 -0.67459,-1.96184 -0.44754,-2.94272 0.93195,-4.02611 3.84727,-4.11475 5.40867,-4.43262 0.88341,-0.17985 1.82019,0.83165 2.14055,2.12847 0.0856,0.34631 0.26072,0.98835 0.29676,1.50061 0.24086,3.4243 -2.6604,7.95641 -5.35425,6.41234 z m 4.57285,-9.0574 c 1.57494,2.8444 0.76782,5.6427 3.53951,8.54653 m -80.09213,-4.03826 c 0,2.8712 0.42972,6.35285 1.68259,9.08608 0.34224,0.74674 0.90553,1.61812 1.68262,1.45815 1.03745,-0.21357 0.94316,-1.32828 1.12162,-2.13119 0.51579,-2.32034 1.06542,-5.8394 1.57056,-5.04782 0.68529,1.07391 0.57578,0.88875 1.40228,2.69217 0.86793,3.41237 5.51914,6.9963 6.00119,3.36521 0.3488,-2.62752 -0.98254,-5.6272 -1.45814,-8.07651 -0.22504,-1.15888 -0.22448,-1.1075 -0.22448,-2.35565 m 101.82412,28.00157 c 1.34095,3.42193 1.30955,8.16455 1.39057,8.98927 0.19197,1.87482 1.78014,5.58115 1.78014,8.10305 m -45.76703,-0.33653 c -0.15862,-3.15425 -0.99467,-6.06962 -1.34607,-9.08608 -0.20363,-1.74797 -1.17175,-4.25591 -1.00957,-5.38434 0.18026,-1.25427 5.40789,-2.76352 7.29242,-0.61685 2.09989,2.39435 -3.25509,7.96491 -6.07852,8.70762 m 220.21729,-9.77338 c 0,0 -0.67775,4.25302 -0.89851,6.39391 -0.0577,0.55912 -0.10361,1.12057 -0.11106,1.68261 -0.0253,1.90827 -0.19848,3.86011 0.22547,5.72086 0.27154,1.19185 1.45715,3.36522 1.45715,3.36522 m -43.74782,-1.34609 c -1.04657,-2.33916 -1.45039,-5.34732 -1.68259,-7.73999 -0.25578,-2.62218 0.2692,-4.61674 -0.33654,-6.05739 m 51.4878,-1.34609 c -0.0404,1.57795 -0.67303,3.13672 -0.67303,4.7113 v 2.69218 c 0,3.13941 0.33652,4.68976 0.33652,7.73999 m 61.5842,-13.21263 c 3.19505,-1.53285 5.43951,-1.64562 6.7653,1.06223 1.31937,4.27181 -8.94873,10.81764 -6.76605,13.83301 0.55576,0.55577 0.99273,1.0103 1.68261,0.8975 2.36082,-0.66856 6.2192,-4.01933 8.07652,-5.6088 M 604.27441,361.626 c 0.40739,0.68169 0.56425,1.07279 0.72689,1.68261 0.14361,0.5384 0.46834,1.75078 0.61922,2.35565 0.86204,3.45594 -0.16181,7.05114 -3.08591,9.3664 -0.80458,0.63704 -1.65223,0.96387 -2.69219,0.61719 -2.14689,-0.71572 -3.60654,-3.12043 -3.30799,-5.27229 0.34422,-2.48104 0.48548,-6.015 2.61715,-7.72257 1.63398,-1.30888 4.17354,-2.61552 5.12283,-1.02699 z m 23.49931,11.10521 c 2.1975,0.63637 4.63726,0.60305 6.3939,-1.34608 0.56874,-0.63064 1.14081,-1.53218 1.28889,-2.35565 0.14808,-0.8127 -0.13798,-2.24359 -0.72689,-3.0287 -0.90525,-1.2071 -2.51717,-1.02437 -3.59069,-1.00956 -0.68312,0.009 -2.24795,0.67472 -2.97148,0.16826 -0.6764,-0.47282 -0.43075,-1.33835 -0.39373,-2.18739 0.0437,-1.05904 0.24566,-2.51146 0.73025,-2.86043 0.70669,-0.50883 1.75328,-0.16827 2.63496,-0.16827 h 2.69218 m -132.7619,12.07916 c -0.75836,1.76118 -1.51,2.8445 -3.45846,3.22309 -0.75044,0.14572 -3.40151,1.16815 -3.59186,0.43987 -0.89417,-3.42097 -0.31221,-11.68032 -0.67691,-14.09462 -0.24005,-1.58903 1.29875,-1.20055 2.16675,-1.12835 5.73269,0.4769 6.94621,8.34187 5.56048,11.56001 z m 24.73848,1.71823 c 2.51717,1.58939 4.97379,1.97841 8.07651,0.72924 1.0735,-0.43277 2.60468,-0.95572 2.52392,-2.41185 -0.0707,-1.27037 -1.57157,-1.82597 -2.52392,-2.35565 -2.20085,-1.22225 -4.59352,-2.44752 -5.94633,-4.7113 -0.50143,-0.83962 -0.81775,-1.90135 -0.78411,-2.69218 0.0404,-0.98028 0.27259,-1.29964 1.34611,-1.7388 0.60574,-0.24701 1.04656,-0.28033 1.68259,-0.28033 2.24123,0 3.35514,1.37941 5.04782,3.0287 m 3.70175,-1.68261 c 1.82057,-0.81371 2.72923,-0.20288 4.38729,-0.6981 2.28106,-0.68128 4.4251,-1.06622 6.71792,-1.32103 m 93.55301,1.45815 c 0.55861,-0.17095 1.58501,-0.16052 2.01913,0.0562 0.91532,0.458 1.1408,0.89918 1.90807,1.85087 1.46049,1.81284 2.4667,3.1633 2.4667,5.38434 0,2.54478 -1.48406,4.79241 -4.03826,5.60881 -2.70899,0.86486 -5.95308,-1.20441 -7.29242,-3.25315 -2.13692,-3.27436 1.77684,-8.68193 4.93678,-9.64707 m 23.89301,0.8975 c 2.65659,-0.69388 8.53779,-1.92712 8.5813,-1.34608 -0.59367,2.78092 -0.81406,4.2585 -0.98304,7.06695 -0.0169,3.02928 0.0791,6.0577 0.14175,9.08608 M 324.23126,361.51394 c 3.17745,-0.0885 4.53362,6.05739 5.04782,8.5251 0.54113,2.59795 0.14048,6.77672 -3.21488,7.10281 -0.7619,0.074 -1.19119,0.2724 -1.83294,0.0762 -1.80374,-0.55123 -3.26426,-2.44248 -4.09445,-4.15032 -1.63887,-3.37162 -1.55674,-11.39698 4.09445,-11.5538 m 10.09564,0.11206 c 0.66326,5.77207 1.58366,10.37287 3.0287,16.15304 m 221.09467,-9.42261 c -0.84465,0.53339 -4.59508,1.1499 -5.39325,0.5636 m 7.74892,-6.62099 c -1.51435,0 -4.55314,-0.22984 -5.72088,0.33653 -0.89851,0.43646 -0.93889,0.83221 -1.23502,1.6826 -0.13463,0.39508 -0.77401,3.24609 -0.78411,3.70174 -0.0856,2.4698 -1.40107,5.27476 -0.73021,6.73043 1.03311,2.03158 5.80835,0.9352 7.12414,0 M 418.40365,366.9749 c -2.90754,-0.0764 -6.8563,0.0225 -8.69707,0.79716 m -109.08803,-2.10781 c 1.26122,-1.71328 4.99128,-4.49862 6.05738,-1.00956 1.85475,5.2067 -5.90438,9.96719 -0.88894,5.9682 3.77822,-3.01252 4.42421,6.42353 0.94525,8.72668 -2.63698,1.74554 -4.70356,-1.28147 -5.04782,-2.91663 m 77.54557,-12.73554 c -0.25405,1.26013 2.118,8.96697 1.79612,7.94504 -0.57692,-1.8316 -1.74788,-6.06974 -0.79549,-7.07643 0.93367,-0.98689 1.66601,-2.23173 4.91106,-1.59393 m -73.36171,0.67304 4.03825,14.80695 m 73.01627,-8.84952 c 1.42447,0.14846 3.23081,-1.45927 4.06516,-1.81844 0.96603,-0.41584 2.70675,-3.28236 1.49635,-3.74627 -7.94262,-3.04413 -6.75997,11.34835 -1.51434,11.72206 1.51099,0 2.71911,-1.21754 3.59069,-2.35565 0.78072,-1.02505 0.99611,-1.52579 1.79367,-2.69217 m 2.01913,3.70173 c 2.13354,2.07735 8.52744,2.70698 7.34625,-2.01913 -0.42064,-1.68361 -2.27152,-2.70731 -3.64453,-3.70173 -0.88842,-0.64444 -1.59173,-1.3572 -2.24459,-2.35566 -2.2345,-3.42612 2.12008,-2.50776 3.59069,-1.34608 m 16.15306,-0.50478 c 1.09896,-2.1979 3.16678,-2.53657 5.38431,-0.84131 0.66311,0.50694 1.33046,0.95976 1.73981,1.68261 0.49587,0.87563 1.48863,2.96151 1.68262,4.03826 0.50597,2.80839 -0.4745,6.39391 -3.75894,6.39391 -4.43199,0 -8.08116,-5.20673 -6.22561,-8.91782 0.3926,-0.78522 1.17781,-2.35565 1.17781,-2.35565 z m -129.22421,0.8413 0.33652,2.35565 0.11206,3.36522 0.22445,1.6826 1.3461,6.05739 m 321.04158,-12.78782 -3.36523,1.34609 m 67.97738,-0.67304 c -2.64171,1.11287 -7.53984,1.20048 -9.29984,1.29303 m -190.25747,9.13913 c -0.9607,-4.13479 -1.86469,-9.53116 -2.35574,-13.46086 0.15058,-1.67902 3.81951,-2.87457 4.99061,-1.62641 0.66295,0.70401 0.63312,1.77189 0.009,2.77771 -0.44761,0.72126 -3.39448,3.79861 -4.11779,4.25292 2.56685,-2.39601 6.16009,-1.38386 7.42879,1.37965 0.76388,1.66713 0.84624,2.11717 0.84624,4.21504 m -50.88552,-10.78785 c 0,0 0.86446,15.46625 0.56621,9.71537 -0.29825,-5.75087 2.96893,-9.1127 4.14517,-8.86067 3.53012,0.53911 3.70175,7.84129 3.70175,10.03945 m -18.07232,21.35119 c 2.87289,1.49435 5.06759,-0.64956 5.78937,0.24239 0.42791,5.37585 -2.93223,8.48193 -0.84129,13.74119 m 14.80693,-13.12434 c -1.62116,-0.31992 -5.78077,0.77204 -6.50495,0.67304 0.003,0.32958 0.8918,5.54647 0.95237,5.55261 7.08778,-0.89889 9.07412,6.92243 2.18737,8.18857 -2.38567,0.43862 -4.52285,0.45364 -4.71131,-1.28988 m 48.79565,3.58967 c -1.09371,0.90794 -2.1975,0.99409 -3.70175,0.78511 -2.55084,-0.35436 -4.00123,-3.60953 -4.82236,-5.72087 -1.87236,-4.42557 2.26652,-12.74012 6.0002,-10.76869 3.66391,1.93461 4.29693,8.55443 4.29065,11.27347 0,0.20769 -0.6596,3.51026 -1.76674,4.43098 z m -111.11574,-14.8167 c 1.33262,-0.56098 8.93414,-0.98365 10.83212,-1.61698 m 3.33626,0.72797 c 2.52046,1.67537 4.59892,5.65095 5.75331,7.72702 l 3.36175,6.07164 m -2.73908,-15.20738 c -1.14366,1.35745 -0.8448,4.74735 -2.29714,8.65382 -0.87933,2.36526 -1.54683,3.19705 -2.70379,5.88051 m 60.9104,-10.09564 c -0.6091,-0.79655 -1.39991,-1.16302 -0.2793,-2.69218 1.48742,-2.03124 5.2531,-2.46805 6.50496,0 1.02715,3.35978 -1.46579,6.68989 -2.62785,9.67316 l -2.25178,4.79727 2.19795,-0.60949 2.84987,-0.6804 3.70172,-1.06576 m 11.10529,-13.79739 c 0.36327,5.64021 0.95628,11.66156 1.00956,16.82608 M 316.82781,398.30685 c 0,1.57762 0.79536,2.60295 1.23402,4.03826 1.2298,4.02408 0.91232,8.96998 3.47729,12.4513 m 59.61442,-16.65414 0.28642,2.18371 0.562,3.0287 1.45713,7.40347 m 86.14951,-12.11478 c -0.44756,1.21081 -1.2091,2.90175 -1.68259,4.03826 -0.46205,1.10909 -1.17448,1.70381 -0.50478,2.63598 0.8211,1.14181 3.24741,-0.0468 3.86999,-0.39239 0.96244,-0.53473 2.03041,-1.10978 2.8818,-1.33424 M 323.89477,398.9799 c 0,0 0.57754,8.13409 1.40228,12.11477 0.38036,1.83589 1.62641,5.38435 1.62641,5.38435 m -35.2227,-15.14347 c 1.66427,-1.4398 8.14448,2.04302 9.14229,4.03826 0.46036,0.92106 0.46977,1.5167 0.50478,2.35565 0.0333,0.79688 0.0367,1.46084 -0.22448,2.35565 -0.80596,2.76419 -4.88558,5.48192 -6.67423,6.05739 -1.13086,-1.50899 -1.67868,-5.02651 -2.1933,-8.35297 -0.41895,-2.70808 -0.96797,-5.30643 -0.55506,-6.45398 z m 53.39487,12.11477 c 1.73309,0.73026 3.74884,0.64915 6.05738,-0.0562 0.94564,-0.28839 2.36913,-1.49011 1.85087,-2.63597 -0.29614,-0.6542 -1.14417,-0.90154 -1.85087,-1.00956 -2.51381,-0.38431 -6.31651,-1.15124 -6.56217,-4.7113 -0.2322,-3.33493 4.24691,-3.67785 5.2161,-2.35566 m -12.96665,1.79737 c 0.21529,0.25726 2.23798,6.17638 1.24772,7.53927 -0.36284,0.32522 -0.58598,0.71109 -1.042,0.89327 -6.50657,2.5993 -7.13313,-1.36846 -6.6951,-3.38795 0.3272,-1.50856 4.13507,-7.85786 6.48938,-5.04459 z m 0.23944,0.5393 c 0.75995,1.56272 1.66758,8.35457 4.9872,8.76854 m 87.03728,-10.59675 5.14757,0.28642 M 305.7226,415.46945 c -2.26882,-2.34185 -0.56498,-5.63251 0.86803,-8.12642 0.65374,-1.13778 2.74291,-2.54688 4.01867,-1.27112 0.80967,0.80966 1.21799,2.15522 1.27162,3.06627 0.43051,7.31229 -4.70621,8.34136 -6.15832,6.33127 z m 6.05923,-7.06303 c 0.34015,2.69551 0.68744,3.5346 0.93685,4.08617 0.71947,1.59102 1.86346,2.57505 3.77255,2.97686 m 44.0843,-4.7113 c 0.37019,1.40262 1.54464,2.61511 1.68262,4.03826 0.18172,1.86904 -1.161,2.64304 -3.02869,2.69217"
       id="path177"
       sodipodi:nodetypes="csccccccsscssssccccccccscccscccsccscccccccsccccccccccccccccccccsccsccccccsccsscccssccsccccccscccccccccccsccccccccccccccccssscscccccccscssscscssscccccsccccscccsccsssccssccscccccsccssccccccccccccscccscccscccccsccssssccccccsccscssccccccccccccccccccccccccccccscccccccscccccccscccccccccsccssscsscccsccccccsscccccccccsccssccscccccccsccsssssccccsssscsscccccsscccssscccccssccccccssssssssccccsccsscsssssscccccccsccsccccscccccccccscscccccccccccccccscccssccccssccccccccsssssssccccccccccccscccczccccccccsccscsscccccccsccccccccccccsccccccsccccscccsccsccccsccscssssccccsssccscccc" />
  </g>
</svg>
