<?xml version="1.0" encoding="UTF-8" standalone="no"?>
<!-- Created with Inkscape (http://www.inkscape.org/) -->

<svg
   version="1.1"
   id="svg694"
   width="3000"
   height="1998.207"
   viewBox="0 0 2999.9999 1998.207"
   sodipodi:docname="SavvS - Stake - Envelope89.svg"
   inkscape:version="1.2.1 (9c6d41e410, 2022-07-14)"
   xmlns:inkscape="http://www.inkscape.org/namespaces/inkscape"
   xmlns:sodipodi="http://sodipodi.sourceforge.net/DTD/sodipodi-0.dtd"
   xmlns="http://www.w3.org/2000/svg"
   xmlns:svg="http://www.w3.org/2000/svg">
  <defs
     id="defs698" />
  <sodipodi:namedview
     id="namedview696"
     pagecolor="#505050"
     bordercolor="#eeeeee"
     borderopacity="1"
     inkscape:showpageshadow="0"
     inkscape:pageopacity="0"
     inkscape:pagecheckerboard="0"
     inkscape:deskcolor="#505050"
     showgrid="false"
     inkscape:zoom="0.8203125"
     inkscape:cx="179.2"
     inkscape:cy="79.847619"
     inkscape:window-width="1920"
     inkscape:window-height="1058"
     inkscape:window-x="-6"
     inkscape:window-y="-6"
     inkscape:window-maximized="1"
     inkscape:current-layer="g700" />
  <g
     inkscape:groupmode="layer"
     inkscape:label="Image"
     id="g700">
    <path
       style="fill:none;stroke:#484546;stroke-width:0.318884"
       d="m 125.84676,190.05261 c 1.5094,3.80332 2.69965,7.75124 2.71833,11.97054 m -32.280163,-0.59853 c -0.715601,0.86368 -1.621485,1.57533 -2.718331,2.04488 -0.559297,0.2394 -1.078836,0.33397 -1.698957,0.34924 -1.634055,0.0401 -2.705079,-0.92413 -3.28476,-2.39412 -0.492358,-1.24942 -0.649683,-2.48658 -0.339794,-3.89042 0.556578,-2.5209 1.366641,-4.9439 4.643928,-5.78575 0.565074,-0.14518 1.098884,-0.25087 1.698957,-0.19952 1.551825,0.13287 1.864095,0.73666 2.71833,1.79558 m 84.26822,8.67864 c -6.5322,6.10091 -8.54485,-0.14029 -8.77782,-5.68601 2.55631,-4.57159 5.09372,-5.43053 7.41866,-0.59852 m -62.86138,6.28453 3.05812,1.59597 1.69896,-0.19931 1.07611,-1.99519 -3.79444,-2.89298 c -3.46112,-2.18099 -3.39555,-3.89019 0.33979,-5.73577 l 3.39791,1.14717 m 96.16092,-1.19706 2.03874,1.49632 m 5.09686,-1.49632 1.24602,4.48895 c -0.14311,2.56528 0.78273,5.17192 0.79274,7.48159 m 2.78778,-6.17205 c -2.51267,0.31878 -5.01295,0.48605 -7.54486,0.48605 M 9.9779589,205.61431 c 1.1867211,0 2.0322911,0.10893 3.0581191,-0.34924 1.30035,-0.58056 2.434163,-2.03768 2.605079,-3.24192 0.09653,-0.68022 -0.268095,-1.28324 -0.906122,-1.69592 -1.024604,-0.66258 -2.423797,-0.65001 -3.737702,-0.69818 -0.81431,-0.03 -1.6615114,-0.0764 -1.9821044,-0.8978 -0.4244671,-1.08749 0.3352381,-1.76515 0.9060874,-2.69337 0.610638,-0.99287 1.338845,-1.86357 2.435182,-2.49386 0.785562,-0.45164 1.397084,-0.54681 2.378537,-0.49878 0.98288,0.0481 1.306907,0.32109 2.038748,0.8978 m 7.135615,-0.8978 -0.33979,5.38675 -0.113151,1.49631 0.113151,1.49632 v 4.48896 M 212.49352,193.04524 c 2.00371,3.44298 1.39352,8.33336 2.76687,12.08171 -6.98471,2.45827 -9.25832,-5.26912 -1.165,-6.17339 m -172.177058,-5.60905 1.359165,7.78085 0.339792,1.49632 v 2.99263 m 67.055371,-7.59274 c -10.35851,13.47674 -13.016032,-8.36804 -1.5679,-4.09991 0.29854,1.98842 1.96176,5.80195 4.16972,6.00664 m -57.507231,-1.23258 c 0.281009,-0.36449 1.139953,-0.39481 1.441688,-0.51302 0.378187,-0.14819 0.963308,-0.40951 1.30242,-0.69839 0.722736,-0.61523 1.85288,-2.1119 1.019374,-2.89286 -0.88312,-0.82737 -2.308204,-0.12 -2.944631,0.54864 -0.411828,0.43267 -0.668029,0.95456 -0.736327,1.49632 -0.08311,1.18873 -0.0817,2.25441 0,3.29189 0.07034,1.11506 0.212368,2.36898 0.736327,3.29191 0.607207,1.06986 1.734973,1.91947 3.001374,1.79558 1.046219,-0.10235 1.618087,-0.82657 2.378541,-1.49632 m 66.056645,-6.94954 c 0.5328,-0.43208 3.62603,-1.39123 4.28013,-1.67922 0.66497,-0.29289 1.32179,-0.37584 2.03875,-0.34915 1.44683,0.0538 2.0588,1.19954 2.60518,2.39411 0.23547,0.51533 0.3578,0.96186 0.50969,1.49632 0.39177,1.3808 0.28304,3.0459 0.28304,4.48895 m -89.025292,-8.08011 -5.804049,4.54947 M 185.8733,198.86806 c 0.79443,-1.08139 4.84912,-2.74471 6.23274,-2.23165 m 27.86288,0.59852 0.62284,4.78822 0.39653,1.79559 M 37.254051,201.35505 c -0.27455,1.14917 -3.516531,3.3929 -4.849871,4.15961 -0.502213,0.28878 -1.064568,0.46176 -1.698957,0.39892 -0.414885,-0.0413 -0.972143,-0.14335 -1.189271,-0.59853 -0.346925,-0.72721 -0.208629,-1.27905 -0.169893,-2.09484 0.07679,-1.6259 1.691479,-4.23967 3.397911,-5.13737 0.943601,-0.49633 1.583768,-0.54864 3.095861,-0.19803 l 2.227647,5.3354 1.132524,2.69337 m 146.110218,-8.37938 2.36883,6.06222 m 8.84428,-3.47146 c 2.90791,0.25431 6.86563,0.50618 5.43666,-1.69297 -2.81437,-4.33126 -6.21414,0.30678 -5.77645,4.78822 l 1.07612,2.94266 1.30242,0.34924 3.05812,-1.19706 m -181.448506,-5.686 6.737667,0.0574 m 18.667679,-2.43057 3.476907,7.16136 m -24.804756,18.654 c 0.879378,-0.13976 1.254508,0.10055 1.7557,0.79814 0.672107,0.93639 0.944279,1.8273 0.962628,2.99263 0.0146,0.93071 0.100579,2.08287 0,2.99264 -0.190624,1.72675 -1.303099,3.6528 -3.397911,4.13971 -1.678229,0.39024 -3.297335,-0.77809 -3.964242,-2.34413 -0.444447,-1.04384 -0.604285,-2.09395 -0.339794,-3.2919 0.216347,-0.97979 0.267248,-2.12776 0.962868,-2.99263 0.482502,-0.60003 1.28543,-1.17971 1.982004,-1.54631 0.651038,-0.34235 1.265042,-0.62516 2.038747,-0.74815 m 122.381579,0.05 c 1.21238,-0.67455 2.89807,0.10205 3.62421,1.34669 0.88923,1.52384 0.77269,2.78584 0.39653,4.48894 -0.11926,0.53957 -0.19571,0.98607 -0.45293,1.49632 -0.44683,0.88522 -1.80157,2.44767 -2.94497,2.64339 -1.17772,0.20171 -2.58343,-1.12792 -2.94497,-2.04486 -0.19572,-0.49648 -0.11315,-0.98159 -0.11315,-1.49632 0,-1.86082 0.72681,-5.484 2.43528,-6.43416 m 11.83595,-0.05 c 1.44818,-0.43094 2.27354,0.7727 3.00137,1.69593 0.41251,0.52311 0.6558,0.85858 0.73633,1.49632 0.17194,1.36254 0.10295,2.9612 -0.22664,4.18968 -0.2178,0.8125 -0.4312,1.51937 -0.67958,2.39411 -0.28305,0.99685 -0.45193,1.97305 -1.81211,2.34413 -1.48115,0.40431 -2.94055,-0.091 -3.62455,-1.44633 -0.56745,-1.12434 -0.45295,-2.09575 -0.45295,-3.29191 0,-2.30103 -0.0707,-6.45033 3.05813,-7.38193 m -125.382959,1.09739 c 1.951114,-0.60918 3.622027,-0.81358 5.606555,-0.54855 -1.117795,4.12691 -2.170757,8.26682 -3.266849,12.39939 m 96.199743,-10.05526 c 0.58852,-0.82058 1.07272,-1.73124 2.03874,-2.29445 1.09175,-0.63653 2.9691,-0.59434 3.05812,0.79814 0.0479,0.74666 -0.56812,1.65493 -0.90622,2.39411 -0.83961,1.83658 -2.09175,3.58099 -2.71832,5.38674 -0.20728,0.59764 -0.31329,1.3413 0.28338,1.64595 0.57459,0.29358 1.36392,-0.19782 1.982,-0.34923 0.61298,-0.14994 1.10738,-0.21158 1.69896,-0.34895 0.66871,-0.15561 1.39076,-0.43812 2.03874,-0.6485 M 8.9585853,232.8473 c 0.1867154,0.8927 0.1242616,2.00357 0.7362258,2.69338 0.6926299,0.78077 2.0476159,1.23325 3.0014769,1.39666 0.628171,0.10743 1.112817,-0.0105 1.698958,-0.19961 1.487367,-0.47973 1.903338,-1.76596 2.038746,-2.99264 0.18308,-1.65852 -0.364393,-3.66987 -2.038746,-4.73824 -0.735208,-0.46925 -1.463449,-0.33817 -2.378541,-0.34925 -0.713187,-0.009 -1.168676,0.0679 -1.642312,-0.34924 -0.5795136,-0.51024 -0.3964341,-1.34219 -0.3964341,-2.04486 0,-0.68801 -0.248863,-1.53283 0.1698951,-2.04486 0.367926,-0.4501 0.997934,-0.34266 1.529061,-0.34924 1.376493,-0.0167 3.015682,0 4.417285,0 m 171.59456,9.57643 c 0.46246,1.40684 1.39416,2.03379 3.05812,2.09485 1.05438,0.0386 2.32418,0 3.39792,0 1.70948,0 3.80532,-0.19483 4.36054,-1.79559 0.56439,-1.62649 0.0533,-3.66747 -1.30242,-4.78822 -0.98234,-0.8119 -2.38364,-0.7311 -3.73772,-0.59852 -0.64594,0.0631 -2.72851,1.10428 -3.34116,0.74815 -0.43969,-0.25556 -0.3877,-0.62037 -0.39654,-1.04741 -0.0132,-0.63804 -0.0105,-2.03261 0,-2.69338 0.007,-0.47254 -0.11349,-1.02318 0.39654,-1.34668 0.38431,-0.24391 0.78492,-0.14963 1.30242,-0.14963 h 4.75708 m -151.546877,11.37201 3.397912,-0.34924 1.642211,-1.74561 -1.642211,-2.89298 h -3.058121 l -1.529062,-0.14963 -0.169895,-1.14708 0.05674,-1.79558 1.019373,-2.24447 1.642211,-0.14964 h 3.05812 m 39.075988,0.59853 c 0.05097,1.7064 0.107376,4.01941 0.396537,5.68601 0.08766,0.50516 0.186545,1.02079 0.396197,1.49632 0.430175,0.9738 1.989139,2.57545 3.284763,2.29444 0.853555,-0.18523 1.299701,-1.14647 1.585804,-1.69592 0.347268,-0.66735 0.571529,-0.94417 1.132524,-1.49632 0.257902,0.30825 0.541967,0.75505 0.792734,1.19706 0.592256,1.04323 2.813132,2.74305 4.24739,1.94521 0.682642,-0.37977 0.650362,-1.0145 0.849482,-1.64595 0.68434,-2.16965 1.41625,-4.54103 0.22664,-6.88306 m -6.116246,2.69337 v 2.69337 m -60.43429,-2.09484 5.184241,0.16246 m -26.639628,39.04107 c -0.514103,0.44082 -1.043023,0.9322 -1.698954,1.19705 -0.770647,0.31093 -1.482679,0.33218 -2.3785387,0.29926 -1.9623961,-0.0721 -3.1639995,-1.57442 -3.6244506,-3.29189 -0.2919827,-1.08932 -0.1324846,-2.07301 -0.1132523,-3.29191 0.00904,-0.57308 0.00731,-0.96631 0.2831478,-1.49631 0.9545414,-1.83419 2.6007958,-4.31718 4.4739287,-5.58635 0.6322501,-0.42826 1.3267151,-0.63713 2.0387461,-0.69819 1.083121,-0.0928 1.118729,0.0647 2.038747,0.29926 m 60.143045,0.29927 1.585804,5.68601 1.613087,8.52046 c 2.187818,-0.6612 3.623436,-1.9199 4.446411,-3.13372 2.585487,-2.74799 -3.158498,-9.19915 -6.218179,-5.89121 m 32.552001,6.19047 c 1.21441,0.64731 2.2416,0.61679 3.7377,0.59854 0.62964,-0.008 1.13525,0.0497 1.64222,-0.34924 0.74753,-0.58746 0.65885,-1.27667 0.28338,-2.04488 -1.03977,-2.12627 -3.88211,-2.77058 -5.60656,-4.28934 -0.54638,-0.48121 -0.50968,-1.34369 -0.39654,-1.99519 0.19097,-1.10129 1.55727,-2.13944 2.71834,-2.69337 0.59531,-0.284 1.03772,-0.33039 1.69895,-0.24929 1.34558,0.16459 2.17976,0.54376 2.71833,1.74561 m -83.588635,-0.8978 0.283045,5.38674 0.736329,3.59117 m -7.815198,-8.27973 c 1.831814,-0.22714 2.446157,1.95 2.661584,3.19225 0.42134,2.42733 0.09106,6.54729 -3.341168,6.88307 -1.293244,0.12659 -2.411496,-0.27084 -3.341168,-1.19706 -0.565206,-0.56292 -1.364024,-1.38858 -1.642448,-2.09485 -0.333878,-0.84691 -0.128644,-1.71717 -0.113252,-2.69337 0.0092,-0.58386 0.03391,-0.95136 0.283149,-1.49632 0.979277,-2.14123 3.423294,-2.33694 5.493303,-2.59372 m 72.715318,0.79814 c 0.792731,2.41206 0.737686,5.78805 2.038747,8.08012 m 42.813684,-8.08012 1.01938,7.18232 0.3398,4.18969 M 39.200002,259.48176 c 0.144751,1.61362 0.679583,3.48612 0.679583,5.08747 0,0.53808 -0.0367,0.96842 0.113151,1.49632 0.1614,0.568 0.546384,1.41611 1.246013,1.64595 1.161066,0.38157 1.461782,-1.04323 1.642211,-1.64595 0.159703,-0.53269 0.296979,-0.95615 0.509687,-1.49632 0.534493,-1.35506 0.83686,-3.08352 1.090681,-4.34359 l 1.320334,7.49013 m 136.110648,-8.23401 c -1.56399,3.24867 -4.24739,9.82572 -4.24739,9.82572 0,0 6.68301,0.45266 8.43486,-0.42156 m 27.41311,-9.30451 c 0.37581,-0.11491 0.94055,-0.10654 1.35916,-0.0996 0.96025,0.0156 1.82706,0.0535 2.66159,0.69818 1.38431,1.06927 0.89365,2.36567 0.73633,3.79077 -0.13354,1.20962 0.0357,1.88566 -0.45295,2.99264 -0.86442,1.95718 -2.42543,5.01027 -4.98371,5.63603 -2.00477,0.49049 -2.90556,-1.82851 -3.28476,-3.24193 -0.14237,-0.53089 -0.11315,-0.95405 -0.11315,-1.49632 0,-0.83584 -0.0183,-1.35985 0.28304,-2.09483 0.53551,-1.306 1.21645,-2.6039 1.64256,-3.89044 0.33944,-1.02557 0.84268,-1.89403 2.15189,-2.29445 m -161.517321,3.76513 c 0.274551,-1.14828 4.740039,-4.31577 6.572531,-3.21628 1.071704,0.64282 1.90589,1.88955 2.038748,2.94265 0.188245,1.49124 0.339793,3.25031 0.339793,4.78822 m -10.533529,-7.78085 1.925596,3.59116 1.132525,4.18969 m 35.338285,-7.78085 c 0.377508,1.80546 1.171941,4.84807 2.548434,6.5838 1.103982,1.39217 2.872937,0.21068 3.511065,-0.89778 0.399933,-0.6946 2.655807,-3.50716 2.910989,-4.28375 m 103.840194,0.69258 c 0.0996,-0.83345 0.36663,-1.40205 1.35916,-1.84556 0.58343,-0.26036 1.05879,-0.24151 1.69896,-0.24929 0.80768,-0.01 1.36664,-0.0416 2.03874,0.34925 0.40266,0.23402 0.68842,0.77958 0.79274,1.14707 0.28644,1.00911 -0.33028,2.12657 -0.84948,2.99263 -1.14476,1.9105 -2.63066,3.71716 -3.62421,5.68601 -0.43868,0.86907 -0.25042,1.85873 0.96263,2.14482 0.66089,0.15562 2.79312,-0.66053 3.53182,-0.712 m -51.10259,-11.00925 c 0.021,1.61883 0.75858,10.08877 0.75858,10.08877 0,0 -5.83291,-8.56592 -8.36791,-10.22494 -0.49591,3.01292 1.30898,9.32519 1.49309,12.40598 m 73.0551,-12.26981 v 13.46686 M 60.509765,262.55135 c 3.379945,-1.50272 4.101011,-3.3394 6.439966,0.52156 l 0.452942,5.08749 M 185.9898,261.5766 v 11.07275 m 6.11624,-10.47422 3.73771,-0.54855 2.5209,-0.118 c -1.47042,2.55841 -1.97351,6.30763 -2.5209,9.34519 m -3.32995,-4.75402 7.44627,-0.23941 m -68.33686,0.80374 0.67958,4.48896 -0.45293,1.44634 -1.24603,0.34924 -1.35916,-0.29927 m 394.1578,59.85271 3.73771,1.79558 m 6.45602,-0.29926 c -0.34248,4.92824 0.21502,9.75393 0.6796,14.66392 m 26.16392,-14.06539 c 1.83526,4.96288 2.62604,10.13542 3.05812,15.43345 -7.28436,1.56774 -10.75079,-8.57945 -0.99023,-7.79795 m -67.6476,-7.03698 2.71833,1.49632 m -92.0834,-1.19705 0.7917,2.09485 0.90723,3.89042 0.33982,7.48159 m 19.02829,-13.46686 0.45194,2.09485 0.90723,3.59116 c 0.82272,2.42032 0.79599,4.97851 1.01938,7.48159 l 0.33979,2.09484 m -0.89318,-6.83899 1.91255,-1.83965 2.37853,-2.09485 m 53.68702,-4.18969 c -0.90385,2.75263 -0.98541,6.51108 -0.67959,9.27717 0.0917,0.82956 0.19709,2.34892 1.35918,2.39411 0.91063,0.0353 1.66836,-0.64551 2.37853,-1.0974 1.18927,-0.75624 2.1033,-1.20663 3.3979,-1.29671 m -43.49326,2.39411 c 0.49608,0.52132 1.02277,1.15875 1.69894,1.49632 0.84609,0.42136 1.69216,0.33697 2.71834,0.29927 1.1587,-0.0425 3.33335,-0.64163 2.94599,-2.09485 -0.45871,-1.71119 -3.02753,-2.62754 -4.64495,-3.04261 -1.71594,-0.44022 -3.41149,-1.64595 -3.96537,-3.24193 -0.20387,-0.58775 -0.12232,-1.15545 -0.11213,-1.79558 0.007,-0.5315 -0.0747,-1.03305 0.39756,-1.44634 0.5233,-0.46147 1.28102,-0.34924 1.981,-0.34924 1.71933,0 2.69454,-0.0764 3.3979,1.49632 m 48.05798,5.04221 c 0,-1.34489 3.34903,-3.99988 4.60967,-5.04221 0.6184,-0.50995 1.19605,-0.62935 2.03874,-0.59853 1.15528,0.0425 1.75671,0.4893 2.2664,1.49632 0.61163,1.21711 0.79172,2.20198 0.79172,3.59116 m -0.55273,-3.31906 4.63023,-1.76842 c 3.38798,2.25686 2.68946,3.86537 3.73768,7.18232 m 21.2175,-3.08776 c 0.51308,-0.46326 1.31747,-0.27776 1.88832,-0.40375 0.55385,-0.12179 1.18247,-0.2409 1.69896,-0.44888 0.88005,-0.35463 3.97894,-1.40445 3.228,-2.6434 -0.44511,-0.73559 -1.41693,-0.59853 -2.20863,-0.59853 -0.91065,0 -1.60041,-0.10833 -2.37856,0.24929 -2.30568,1.9358 -2.75123,4.60783 -2.09649,6.93303 0.21746,0.75744 0.32621,1.67289 0.84947,2.39412 1.39655,1.92516 4.87599,4.5476 7.02349,2.09484 m -110.54378,-6.37137 c 0.299,-0.37138 1.64749,-0.27617 2.15039,-0.41203 1.59022,-0.42766 6.10605,-1.61782 4.01972,-3.69083 -0.60823,-0.6066 -1.16889,-0.58865 -1.98097,-0.59852 -0.91066,-0.0111 -1.65139,-0.11462 -2.37855,0.34924 -2.08906,1.81094 -1.66931,5.07011 -1.07713,7.13235 0.33979,1.19705 0.61502,3.73241 2.4363,3.89042 1.98098,0.17208 3.64595,-1.98053 4.0775,-3.2919 m -49.26974,2.09485 c 1.05337,0.0734 2.01835,0.40879 3.05812,0.54855 1.06356,0.14335 2.58921,0.28489 3.39793,-0.29927 0.65918,-0.47583 0.83927,-1.09709 0.28201,-1.7456 -1.44071,-1.68635 -5.76285,-2.59941 -6.62593,-4.78822 -0.43491,-1.10876 -0.0679,-2.22293 0.90724,-2.94265 0.5165,-0.38217 0.99898,-0.62576 1.69897,-0.54886 1.09411,0.12061 1.87904,0.71674 2.71834,1.39667 m 21.40684,9.8757 -1.69897,-3.59117 c -8.83661,7.74447 -10.56394,-8.18088 -2.10671,-6.75481 l 2.10671,6.75481 m 104.3159,-7.48159 v 8.67864 m -140.2069,0.19348 c 6.43883,-4.56774 7.90734,-8.90287 -0.93751,-7.41 0.27008,5.50057 1.8651,10.21882 2.5096,15.89517 m 108.73319,-16.75876 0.67959,2.69337 0.33978,5.08749 m 33.63933,-7.48159 7.12209,0.0967 m -202.50204,10.37749 c 0.68979,0.72362 1.37277,1.42689 2.37856,1.79558 0.67279,0.24719 1.28099,0.31782 2.03874,0.29927 0.6354,-0.0156 1.15529,-0.0736 1.69894,-0.39892 1.10435,-0.66288 1.66159,-1.84167 1.24706,-2.89299 -0.58446,-1.48195 -2.12711,-1.92755 -3.62559,-2.29445 -0.6354,-0.15531 -1.14509,-0.17956 -1.69896,-0.49857 -1.23344,-0.70956 -1.68197,-1.45711 -1.69894,-2.59372 -0.0102,-0.70237 -0.0442,-1.43556 0.45191,-2.09484 0.59463,-0.78946 1.59703,-1.49632 2.60621,-1.49632 1.77371,0 2.23243,1.24104 3.05812,2.39411 m 32.74615,2.1034 c 0.57424,-0.13288 0.9888,-0.20769 1.69897,-0.69819 1.22325,-0.84392 2.82658,-2.74831 0.89315,-3.64969 -0.87325,-0.40729 -1.99117,-0.21577 -2.43631,0.4489 -0.48929,0.7299 -0.282,1.50888 -0.282,2.39411 -0.24473,1.20367 0.36955,2.28794 0.79169,3.29189 0.15632,0.37408 0.4995,0.87954 0.90725,1.0974 1.84168,0.98578 2.96638,-0.49737 4.07749,-1.69592 m 121.31576,-6.732 1.23675,4.93642 0.79169,2.69337 m -141.33418,-0.14536 c 0.18687,-0.51653 1.5509,-0.92421 2.01981,-1.35096 0.75092,-0.68352 1.64119,-2.29625 0.9616,-2.89298 -0.333,-0.29448 -0.79172,-0.39892 -1.3014,-0.34894 -0.53347,0.0521 -0.92422,0.26544 -1.30139,0.59852 -0.57085,0.50187 -0.71367,1.03815 -0.73737,1.74561 -0.2172,1.67002 0.21596,1.99584 1.18928,3.29189 1.23344,1.78003 3.4319,2.34593 5.26678,1.19707 m 35.37264,-6.13038 8.02487,-0.75579 m 19.85219,-0.88614 c 1.51546,1.44844 3.91341,5.77083 4.70852,7.17378 m -90.04466,-4.48896 c 0,1.45382 0.23106,3.10337 0.62182,4.48896 0.24803,0.86397 0.39074,2.20916 1.18928,2.94266 0.8053,0.73888 1.80429,0.363 2.54843,-0.24929 0.34317,-0.28221 0.94801,-0.67364 1.24703,-1.04742 0.21067,-0.26275 0.1699,-0.75236 0.1699,-1.04742 v -1.79559 m 5.77644,-3.2919 c 0.19367,0.9331 0.58104,1.50051 0.67959,2.39411 0.1597,1.44245 0.10193,3.02226 -0.79173,4.18969 -2.12708,2.76938 -4.2202,0.97381 -5.6643,-0.29926 m 149.22651,20.34086 c 6.17519,-3.38494 7.78245,-6.91091 -0.27962,-7.45597 l 0.56122,11.65472 0.22767,2.29445 0.11214,0.39892 m 109.07297,-14.36465 0.33979,11.07275 m 7.13561,-10.67383 c 1.34897,-0.41299 2.70134,0.0308 3.45568,1.0974 0.90724,1.28414 0.79849,3.19194 0.62181,4.78821 -0.14951,1.35747 -1.09412,2.69517 -2.71833,3.19225 -1.50868,0.46176 -2.36153,-0.1646 -3.00035,-1.39667 -0.74075,-1.4185 -0.39756,-3.13718 -0.39756,-4.78821 0,-1.30479 0.36359,-2.38064 2.03875,-2.89298 m 21.40684,9.17751 c 0.85289,1.18838 1.91643,3.09319 3.73772,2.89298 1.31499,-0.14484 2.14407,-0.82746 2.60618,-1.99519 0.28203,-0.72003 0.58105,-1.27516 0.45194,-2.09484 -0.11555,-0.732 -0.54368,-1.18269 -1.35919,-1.54629 -0.55046,-0.2454 -1.08391,-0.29418 -1.69893,-0.24929 -0.72718,0.0533 -1.33538,0.46355 -1.86887,-0.05 -0.36017,-0.34775 -0.45872,-0.99984 -0.50968,-1.44634 -0.0918,-0.82298 -0.0135,-2.47941 0,-3.29191 0.007,-0.45368 -0.14272,-1.07076 0.39755,-1.34668 0.39417,-0.20231 0.88347,0.0317 1.3014,0.0997 1.631,0.26634 2.38534,0.80861 3.73772,1.24702 m -40.77494,-1.19705 v 9.8757 m 54.70636,-7.78085 3.73772,-1.69593 2.37852,0.24959 0.6796,1.14708 -0.79173,2.69337 -3.00374,5.38674 -0.62182,2.3941 1.69895,0.34925 1.35917,-0.34925 4.41729,-1.49631 M 547.18787,375.596 c 1.19267,0.63594 2.2562,0.65299 3.73769,0.59852 0.93104,-0.0341 2.54843,-0.3648 2.54843,-1.49631 0,-0.49708 -0.54705,-1.07765 -0.79169,-1.49632 -1.33199,-2.27859 -3.43191,-3.25089 -5.49443,-4.88787 -0.74076,-0.58895 -0.88008,-1.51038 -0.56746,-2.29445 0.60482,-1.50769 2.13729,-1.49632 3.62558,-1.49632 1.32519,0 2.39212,-0.17417 3.34013,0.6485 0.93783,0.80921 1.07715,1.82133 1.07715,2.94266 m 22.08643,6.88306 h -1.69896 l -2.32078,-0.6485 -0.39756,-1.44634 0.11213,-1.19705 -0.11213,-1.79558 0.33981,-3.59117 0.67957,-1.34669 5.43667,1.34669 m -64.7646,-4.30621 c 3.34016,1.29073 5.44044,3.6203 6.09284,5.50326 0.43495,1.25302 -0.034,2.52549 -0.62181,3.59117 -0.68979,1.24732 -2.48536,3.59598 -4.0518,5.05579 -0.6088,-4.70686 -1.0178,-9.42737 -1.41923,-14.15022 z m 137.14013,3.25879 c 0.44172,-0.23014 0.85627,-0.14964 1.35915,-0.14964 0.83251,0 1.6242,-0.0413 2.37853,0.39893 1.92323,1.12194 1.61062,2.8029 2.43631,4.3893 0.5131,0.98697 1.09753,1.56036 0.84949,2.69337 -0.25826,1.16503 -0.66259,2.15559 -1.92662,2.89297 -0.81549,0.47583 -1.43053,0.39683 -2.37855,0.19931 -1.49848,-0.31182 -2.56202,-0.82447 -3.34013,-2.1945 -0.29223,-0.51203 -0.37039,-0.9343 -0.39756,-1.49631 -0.0612,-1.31856 -0.0612,-3.18865 0.22766,-4.48896 0.17668,-0.8089 -0.12572,-1.76714 0.79172,-2.24447 m -289.10455,0.89779 c 1.315,-0.83375 3.07851,0.2047 3.73769,1.34668 0.31261,0.54586 0.4791,0.8987 0.62182,1.49632 0.50629,2.13675 -0.0272,4.60807 -0.33979,6.5838 -0.1461,0.91725 -0.56405,2.52668 -1.69897,3.04261 -1.65137,0.74996 -3.37412,-1.18029 -3.84981,-2.44409 -0.24806,-0.65658 -0.22767,-1.1336 -0.22767,-1.79557 0,-1.04952 -0.13253,-2.84809 0,-3.89043 0.13593,-1.06867 0.94801,-1.94881 1.24705,-2.99264 0.14271,-0.50455 0.0612,-1.06328 0.50968,-1.34668 m 198.72008,-0.14963 c 2.13049,0.54346 3.46248,0.82357 5.43665,0 m 107.03423,0.29926 h 3.05812 l 1.69897,-0.29926 -0.56747,2.69337 -0.39414,1.49632 -0.73736,4.48895 m -304.11312,-7.78085 v 10.77348 m 70.33678,-10.77348 v 5.38674 l 0.45192,2.09485 1.58683,6.58379 m -89.3651,-12.86833 1.01938,7.48159 v 3.29191 m 45.27446,-2.92617 c 1.10434,-1.36853 5.15057,-2.09578 5.35444,-3.9569 0.12232,-1.11685 -0.12913,-2.22173 -1.01938,-2.94266 -0.74753,-0.60511 -3.10132,-0.82162 -4.36412,-0.5956 l 0.28663,11.91764 m 102.39024,-11.81634 c 2.57302,3.49962 4.09536,4.07946 4.98377,8.22521 m -168.19665,-4.48894 c 0.25484,-1.06539 1.32519,-3.2919 3.05813,-3.2919 0.9684,0 1.62422,0.73379 1.92661,1.49632 0.25145,0.64192 0.10194,2.34323 0.11213,2.99263 0.0102,0.56351 0.25146,0.90617 0.0578,1.49632 -0.18687,0.56262 -0.85627,1.16174 -1.07714,1.49632 m 282.7063,-7.48159 h 3.73768 m -180.08932,0.69818 c 0.44511,-0.13288 0.89363,0.0314 1.69894,0.14963 0.8393,0.12359 1.91643,0.11312 2.71834,0.69848 1.38634,1.01211 1.87226,3.15544 1.69897,4.73824 -0.15632,1.40325 -1.0058,2.9681 -2.71835,3.49151 -1.72612,0.5276 -2.8984,-0.23373 -3.67994,-1.69593 -0.8053,-1.50051 -0.73733,-2.89657 -0.73733,-4.48895 0,-1.36225 -0.38398,-2.47431 1.01937,-2.89298 m 111.90778,-3.3488 0.28106,5.04472 0.62183,4.48896 M 461.56051,370.2093 c 0.64561,1.53971 0.85407,6.66665 1.13949,8.02889 m -0.58709,-5.96121 c 1.04318,-0.55633 5.6454,-1.83096 6.92301,-1.76841 0.35338,0.0174 0.69998,0.1191 1.01937,0.34924 0.8325,0.60032 0.67959,1.43437 0.67959,2.34413 0,1.99249 -0.49271,4.15826 -1.35918,5.68601 m 204.3828,-8.47612 6.23311,-0.29021 m -267.57395,2.82644 c 1.87919,-3.43062 4.60095,-1.85219 7.00873,-2.14023 m 12.23248,7.78085 c 0.78492,0.12749 1.56984,0.35882 2.37856,0.29927 0.65578,-0.0482 1.14509,-0.14365 1.69894,-0.34924 0.99899,-0.3696 1.52228,-1.1791 1.3014,-2.04487 -0.51307,-2.04338 -4.43088,-2.57577 -4.98134,-4.48895 -0.31939,-1.11117 0.45872,-1.21203 1.30141,-1.09741 0.92424,0.12599 1.33537,0.3295 2.37853,0.49887 m 141.35315,0 c -1.70236,0.63175 -3.30525,0.17835 -4.6644,0.17835 m -151.85923,4.21089 c 0.52667,0.18345 1.12351,-0.5428 1.91862,-0.69842 0.56407,-0.11013 1.15531,-0.22594 1.69896,-0.39891 0.8359,-0.26545 2.51105,-1.07047 2.15089,-2.09485 -0.29224,-0.84093 -1.38975,-0.92562 -2.15089,-0.89779 -0.51307,0.0189 -0.88685,0.0455 -1.35915,0.29927 -2.30684,1.49651 -2.12549,2.57466 -2.37856,4.7882 l 0.39756,2.99264 2.66056,0.8978 2.71835,-0.34924 2.37852,-1.74561 m -92.76299,-6.58379 0.67959,8.67864 1.01937,3.29189 m 74.62707,-13.08003 1.82596,10.0874 m 24.07377,-8.07106 8.30974,-0.7739 m -100.27381,2.77418 c 0.36357,0 1.11112,0.0346 1.63101,0.0855 0.35339,0.0347 0.69997,0.14725 0.9616,0.34925 0.46213,0.35672 0.73056,0.91036 0.73736,1.44633 0.0204,1.32903 -0.96502,2.50095 -2.37855,3.19225 -1.12132,0.54945 -2.07611,0.39892 -3.39791,0.39892 m 127.4217,15.86097 2.03875,-0.59854 2.03875,-0.49885 3.34015,-0.29929 0.39756,1.39668 -0.73736,2.99263 -0.96161,7.18232 -0.67959,2.39412 m 35.3383,-14.36465 -0.79172,3.59116 -0.79512,2.39412 -0.11213,2.99263 8.46567,-1.22273 M 496.559,397.14301 c 1.03637,-1.45381 3.29938,-1.98681 5.09687,-2.29447 1.08054,-0.18493 2.34117,-0.073 2.32078,1.09742 -0.0204,1.25181 -1.28102,2.75173 -1.98099,3.89042 -0.81551,1.32575 -1.40675,2.82474 -2.0965,4.1897 -0.1631,0.32827 -0.41794,0.88372 -0.50969,1.19704 -0.18349,0.64552 -0.27184,1.12016 -0.45193,1.49633 l 1.35918,0.19961 2.7183,-0.8978 4.0775,-1.09739 m 20.38747,-10.07533 c 1.03298,-0.17686 2.22904,-0.22473 3.00037,0.29929 0.71015,0.4815 1.34897,1.31017 1.81449,1.99518 0.33979,0.50337 0.54705,0.91245 0.62182,1.49633 0.36698,2.90434 -0.4791,7.85625 -4.4173,8.57896 -1.93681,0.35553 -4.19641,-1.70458 -5.0391,-3.19222 -0.77811,-1.36913 -0.60482,-3.75157 -0.39756,-5.38674 0.0849,-0.67036 0.36359,-1.18899 0.73734,-1.79559 0.56407,-0.91664 1.19608,-1.57533 2.32079,-1.79558 0.55385,-0.10805 0.93102,-0.12659 1.35915,-0.19963 m -106.01485,3.19226 6.11624,-0.89779 4.75709,-1.49633 m 50.6289,10.47424 4.07749,0.3989 1.69894,-0.49856 1.35918,-2.59371 -0.79172,-1.79559 -2.60621,-0.59854 -1.52906,-0.34924 -0.16988,-1.44633 0.33978,-3.29189 c 1.68197,0.62426 3.47268,0.29926 5.77646,0.29926 m -131.15941,0.59853 1.35915,9.27717 1.01938,4.48895 m 82.90907,-13.76612 c -3.31615,3.28854 -6.26974,6.72176 -8.83458,10.47421 m 82.22948,-10.47421 v 8.97791 m -131.839,1.4963 0.45194,0.0499 c 0.56065,0.11642 1.00576,0.22804 1.5868,0.24929 1.35238,0.0497 3.96198,0.2487 3.90762,-1.49632 -0.0815,-2.6 -3.66635,-3.19494 -5.26677,-4.7882 -0.74076,-0.738 -0.97521,-1.77853 -0.62182,-2.69338 0.36698,-0.95646 1.41692,-1.16385 2.32078,-1.19707 0.94801,-0.0347 2.13049,0.20351 3.05812,0.49888 1.35577,0.43123 1.66497,1.0585 1.69894,2.1945 m 42.47391,-2.09484 c 2.43291,2.62603 5.98372,5.8853 6.79583,9.27716 m -62.10954,-3.77258 c -0.85289,0.37617 -5.21331,2.50252 -6.13074,1.87734 -1.31157,-0.89089 -1.07712,-2.77027 -1.07712,-4.09001 0,-1.03458 0.0476,-1.97367 1.01938,-2.64342 0.78491,-0.53957 1.72273,-0.34924 3.25712,-0.15684 l 4.21827,7.58846 m -16.64976,-7.48158 1.07712,3.29188 0.62181,4.48895 0.33982,2.39413 m -30.02297,1.28684 c 6.52635,-2.60527 12.86018,-16.30462 -0.38834,-11.4618 z m 17.8099,-3.03967 c -6.71025,5.30274 -10.51996,-8.45703 -1.88344,-6.47265 l 1.92177,7.92622 0.62182,1.79558 m 68.92907,-12.85979 1.85965,7.17377 1.5868,5.38674 m 44.37198,-8.97791 9.32911,-0.56231 m -71.71,6.24834 c 0.13251,0.63115 0.21406,1.19226 0.45191,1.79558 0.59804,1.51816 1.84168,2.93157 -0.79173,2.99263"
       id="path704"
       sodipodi:nodetypes="cccscccscccccccccccccccccccccsccccccccccccccccccccccccccscccscccccccccccccccsccccccccccscccccccccccccccccccccccsscccccsccscccccscccccccccccscccscccccscccscccscccccccccccccsccccccccccccccscscccccccccccccscscccccccccssscccccccscccccccccccsscccsscccccccccccccccccsccccccccccccccccccccccccccccccccccccccccccccccccscccccsccsccscccccccccccccscccccccsccccccccccccccccccccccccccccsccccccscccccccccccccscccccccccccccccscccccccccccccccscscccccscccccccccccccccccccccscccscccccccccccccccccscccscccccccccccssccccccccccccccccccccsccccccsccccccccccscscccccccscsccccccccccccccccccccccccccccccccccscccccccccccccccccsccccccccccccscsccccccccccccccccccccccccccccccccccccscccccccccccccccccccccc" />
  </g>
</svg>
