<?xml version="1.0" encoding="UTF-8" standalone="no"?>
<!-- Created with Inkscape (http://www.inkscape.org/) -->

<svg
   width="3000"
   height="1998.207"
   viewBox="0 0 793.74998 528.69227"
   version="1.1"
   id="svg5"
   xml:space="preserve"
   inkscape:version="1.2.1 (9c6d41e410, 2022-07-14)"
   sodipodi:docname="SavvS - Stake - Envelope64.svg"
   xmlns:inkscape="http://www.inkscape.org/namespaces/inkscape"
   xmlns:sodipodi="http://sodipodi.sourceforge.net/DTD/sodipodi-0.dtd"
   xmlns="http://www.w3.org/2000/svg"
   xmlns:svg="http://www.w3.org/2000/svg"><sodipodi:namedview
     id="namedview7"
     pagecolor="#ffffff"
     bordercolor="#000000"
     borderopacity="0.25"
     inkscape:showpageshadow="2"
     inkscape:pageopacity="0.0"
     inkscape:pagecheckerboard="0"
     inkscape:deskcolor="#d1d1d1"
     inkscape:document-units="px"
     showgrid="false"
     inkscape:lockguides="true"
     inkscape:zoom="1.1893044"
     inkscape:cx="433.02623"
     inkscape:cy="174.47173"
     inkscape:window-width="1920"
     inkscape:window-height="1058"
     inkscape:window-x="-6"
     inkscape:window-y="-6"
     inkscape:window-maximized="1"
     inkscape:current-layer="layer1" /><defs
     id="defs2" /><g
     inkscape:label="Layer 1"
     inkscape:groupmode="layer"
     id="layer1"><path
       style="fill:none;stroke:#584b55;stroke-width:0.0917213"
       d="m 1.8898325,53.945378 c 0.3210333,0.384789 0.7332394,0.900543 1.2058497,0.906965 0.1869364,0.0025 0.2724403,-0.021 0.4637887,-0.07558 C 3.9779112,54.657435 4.5075652,54.226626 4.316995,53.763984 3.869624,52.677957 1.5811071,53.230852 1.518802,51.768661 1.485464,50.986413 2.5048247,50.289663 3.1884404,50.317517 c 0.4225579,0.01723 0.5568337,0.231357 0.742061,0.54418 m 31.1665866,-0.272092 0.556544,2.267414 0.07727,0.725572 0.01548,1.451144 m -29.5896968,-4.353432 0.3091881,1.360447 0.061843,0.362787 0.015463,0.634875 0.077296,0.453483 0.015484,0.816268 0.077266,1.269751 M 46.135244,51.587269 c -0.01809,-0.672559 -0.525287,-1.063571 -1.113092,-0.453483 -0.512487,0.531918 -0.925908,1.415791 -1.159468,2.08602 -0.421301,0.961283 0.130886,3.23626 1.437749,2.61508 0.550239,-0.261533 0.808013,-0.778594 1.113091,-1.345329 M 55.503771,50.771 c 0.235882,0.674274 0.09276,1.69072 0.09276,2.539503 0,0.194081 -0.03089,0.345354 -0.03089,0.544179 0,0.174309 0.0281,0.255627 0.03089,0.453482 0.0029,0.199841 -0.0041,0.277396 0.03089,0.453483 0.03794,0.190862 0.05955,0.290482 0.06187,0.453482 0.0053,0.373107 -0.03877,0.567688 -0.355541,0.846497 -0.388844,0.342199 -1.100944,0.516599 -1.669644,-0.06046 -0.267605,-0.271527 -0.410358,-0.653586 -0.463786,-0.967432 -0.11159,-0.65472 0.311294,-1.449847 1.004843,-1.647656 0.713678,-0.203532 0.959135,0.224008 1.340279,0.488823 M 11.443866,50.861698 c 0.0372,0.197337 0.07505,0.336292 0.09276,0.544177 0.05176,0.607559 0.295544,1.643159 0.463791,2.6302 l 0.185519,1.088358 m -0.26794,-1.536785 c 0.440769,0.06821 0.827725,-0.124403 1.288267,0.100759 0.68956,0.33712 0.725922,0.956577 1.113091,1.345329 M 27.305432,54.67095 c -0.659321,0.593772 -2.103095,1.073847 -2.566326,-0.0907 -0.196368,-0.493879 -0.1857,-1.17687 -0.123645,-1.723234 0.0602,-0.52984 0.55265,-1.431943 1.020332,-1.783702 0.270574,-0.203476 0.370661,-0.178281 0.649306,-0.120926 m 31.537614,0.272091 0.09276,0.272089 m 1.391365,0.27209 c 0,0 0.201335,0.659553 0.262783,0.997662 0.02718,0.149571 0.02837,0.302591 0.04638,0.453482 0.01806,0.151473 0.05612,0.301087 0.06187,0.453483 0.0097,0.257241 -0.04638,0.77092 -0.04638,0.77092 0.04638,0.884671 0.231898,2.290095 0.231898,3.129029 m -0.562644,-3.189543 2.046761,0.01517 M 9.124925,51.980283 c 0.2946906,-0.04402 0.5712006,0.134576 0.7111716,0.332558 0.1145578,0.162092 0.1158546,0.269741 0.1236477,0.453483 0.011495,0.269957 0.08599,0.476265 -0.015484,0.816268 -0.091369,0.306363 -0.2030466,0.32405 -0.2936689,0.544179 -0.1082487,0.262675 -0.5791788,0.78759 -0.9894468,0.876736 -0.9000273,0.195559 -0.9504867,-0.884228 -0.927577,-1.420915 0.024954,-0.585654 0.7553261,-1.507285 1.3913655,-1.602309 M 30.38728,53.874302 c -0.0973,0.263356 -0.260059,0.424855 -0.391866,0.705952 -0.27113,0.578353 -1.108177,1.265497 -1.731506,0.529059 -1.000393,-1.181993 0.61897,-3.784086 1.917021,-2.569731 0.06215,0.189655 0.08998,0.30084 0.09276,0.498831 0.0033,0.23094 0.147137,0.916645 0.162481,1.143967 0.02574,0.381388 0.107725,0.751572 0.39407,1.214142 M 15.201052,53.576263 c 0.184281,0.0011 0.473128,-0.08298 0.602432,-0.114597 0.491708,-0.120191 1.187392,-0.785223 0.556544,-1.209293 -0.333648,-0.224283 -0.685293,0.125425 -0.850308,0.423254 -0.177723,0.320848 -0.216706,0.530549 -0.265617,0.755909 -0.06052,0.278881 0.01788,0.563344 0.0801,0.876628 0.323263,1.625299 1.382368,0.921014 1.963403,0.0907 m 30.888312,1.26975 c 0,-0.410201 -0.234121,-0.790075 -0.201006,-1.179054 0.02532,-0.29656 0.171509,-0.338271 0.201006,-0.634875 0.04777,-0.480302 0.242468,-1.496756 0.834818,-1.617419 0.191731,-0.03905 0.379937,0.06195 0.556548,0.07558 m 0.943067,1.375566 c 0.174381,-0.03109 0.639934,0.03396 0.912086,-0.136044 0.273265,-0.170691 0.904202,-0.677657 0.788442,-0.967432 -0.122812,-0.307516 -0.621384,-0.342679 -0.881198,-0.166275 -0.50822,0.34511 -0.589533,0.730577 -0.785501,1.131052 -0.09559,0.195337 -0.136234,0.404658 -0.172967,0.577063 -0.159914,0.750441 -0.0085,1.460858 0.602927,1.980204 0.258794,0.219921 0.674717,0.231539 0.912085,0.105816 0.358972,-0.190137 0.593187,-0.407191 0.927577,-0.725572 M 13.391787,52.403538 c -0.481134,0.470406 -1.346315,0.696196 -1.45039,1.179354 m 20.651233,2.176416 c 0.313334,-0.09674 0.503116,-0.176886 0.834819,-0.181393 0.290517,-0.004 1.022839,0.07333 1.15947,-0.181393 0.109269,-0.203668 -0.03487,-0.377942 -0.231895,-0.513949 -0.607191,-0.4191 -1.72696,-0.165831 -2.087048,-1.027891 -0.159541,-0.381914 -0.02653,-0.976983 0.262783,-1.254633 0.08868,-0.08512 0.31417,-0.179787 0.432902,-0.181393 0.338566,-0.0046 0.325671,0.12069 0.556544,0.438364 m 2.201954,0.711273 c 0.106299,-0.112881 0.29527,-0.20222 0.50351,-0.439183 0.442549,-0.503638 1.169304,-0.618324 1.654149,-0.0907 0.581962,0.633234 -0.03116,1.686066 -0.09276,2.448806 m 9.739558,-2.630199 0.443722,1.607861 M 5.5073816,53.12911 l 1.020336,-0.0907 h 0.8348193 m 50.1819111,0.634876 c 0,0.540787 0.185514,1.950202 0.185514,2.720895 M 9.9339004,53.587047 c 0.2810536,0.372962 0.3115436,0.901168 0.4277696,1.446689 0.08599,0.403401 0.13858,0.616002 0.525659,0.725572 m -5.3026524,5.804576 c -0.1808863,0.27091 -0.4848709,0.711061 -0.6029235,0.997661 -0.085728,0.208149 -0.1462078,0.547921 -0.190323,0.720517 -0.035675,0.139491 -0.043177,0.206389 -0.030971,0.367841 0.041714,0.551761 0.1240975,0.762635 0.4995664,1.179055 0.49207,0.540189 1.4711088,0.549893 1.8242391,-0.181393 0.3007185,-0.622631 0.061127,-1.017705 0,-1.632537 -0.085519,-0.860347 0.079168,-1.88952 -0.3864758,-2.320334 -0.1920239,-0.17766 -0.885418,0.528171 -1.1131122,0.86919 z M 39.750462,60.65692 c -0.671566,0.701899 -1.148433,2.692143 -0.510168,3.537162 0.715812,0.947779 1.997724,0.204793 2.427097,-0.634875 0.116598,-0.22801 0.111773,-0.387637 0.10825,-0.634876 -0.0061,-0.429538 -0.483974,-1.698643 -0.572039,-2.086019 -0.04958,-0.218113 -0.08707,-0.480123 -0.309159,-0.476156 -0.538985,0.0096 -0.646058,-0.225744 -1.143981,0.294764 z m 3.97309,-0.483685 c 0.330031,0.01424 0.654777,0.595256 0.825267,0.856281 0.395425,0.605127 0.585206,1.510626 0.457848,2.257601 -0.04378,0.256944 -0.18774,0.558963 -0.355537,0.725572 -0.297754,0.295762 -0.777311,0.590707 -1.20585,0.544179 -0.822112,-0.08934 -1.020336,-1.209165 -1.020336,-1.81393 0,-0.230369 0.01056,-0.303651 0.06187,-0.544179 0.09675,-0.454026 0.289497,-0.922837 0.494678,-1.360447 0.122347,-0.261024 0.355633,-0.681765 0.742061,-0.665077 m -8.44095,1.027863 c 0.471674,-0.01215 1.908304,-1.389107 2.47357,-0.801122 0.243489,0.253315 0.09285,0.691561 0.03089,0.982515 -0.198779,0.932995 -0.987963,1.711897 -1.375873,2.539502 -0.649861,1.386206 1.444791,0.314173 1.839663,0.0907 M 24.800986,60.475529 c 0.140437,0.193273 0.152308,0.506176 0.139138,0.816267 -0.01075,0.252137 0.04638,0.399791 0.04638,0.634877 0,0.634512 -0.0077,2.145334 0.742061,2.403456 0.3074,0.105843 0.482712,-0.325509 0.556547,-0.498831 0.08497,-0.19935 0.156806,-0.432168 0.267931,-0.569755 0.06929,0.07573 0.209862,0.335668 0.288614,0.479059 0.179022,0.325873 0.766921,1.386387 1.391365,1.04301 0.327342,-0.180032 0.4201,-0.644671 0.46379,-0.952314 0.125222,-0.881388 0.18097,-2.554104 -0.278272,-3.265073 m -14.748476,0 c -0.227349,0.0059 -0.844836,0.08961 -0.912085,0.272089 -0.09313,0.252318 0.06604,0.552161 0.07727,0.816268 0.03961,0.928824 0.236464,0.709418 0.275686,1.374863 0.33048,-0.02285 0.928952,-0.09895 1.378456,0.439066 0.100276,0.119991 0.222711,0.295308 0.247385,0.453482 0.02014,0.128518 -0.01938,0.233272 -0.04638,0.362786 -0.277345,1.331244 -2.223772,1.71489 -2.597214,0.453483 m -1.391361,-3.990645 c -0.208984,0.337573 -0.459127,0.959352 -0.572386,1.491288 -0.04118,0.193001 -0.112134,0.458309 -0.1496099,0.584922 0.4828749,0.0675 1.4784349,-0.03908 2.0206039,-0.26228 m -3.5247927,-1.451143 1.5768827,-0.211595 0.556544,-0.0605 m 15.768808,1.541841 0.185517,0.906964 m -17.7167219,-0.453482 1.139646,-0.0063 -0.02656,0.731875 -0.061874,0.453482 -0.1236445,0.725572 M 2.353616,64.012688 c -0.02043,0.205518 -0.102813,0.232093 -0.077295,0.453483 0.018747,0.162799 0.1272817,0.293584 0.2628116,0.392988 C 3.016378,65.209156 3.859769,65.142857 4.2396867,64.647563 4.4133371,64.421185 4.6511069,64.290916 4.6544645,63.970919 4.6648767,62.979215 4.2692802,62.878619 3.8377431,62.77314 3.2081606,62.619227 2.7301812,62.921609 2.3536212,63.105723 2.0753569,62.722803 2.1153914,62.26533 1.8898325,61.654579 1.8039211,61.421943 1.6209655,61.125366 1.7506951,60.944154 c 0.084439,-0.117996 0.1828451,-0.103303 0.324654,-0.105843 0.4721815,-0.0085 0.9324259,-0.04725 1.3913635,0 m 48.4195094,3.537162 c 0.229761,0.275356 0.355263,0.535655 0.649306,0.695371 0.541796,0.294219 1.487755,-0.338864 1.669641,-0.740718 0.142034,-0.313811 0.121237,-1.106134 -0.463787,-1.526693 -0.248684,-0.178853 -0.432528,-0.241888 -0.74206,-0.241888 -0.210191,0 -0.580664,0.203342 -0.742064,0.136045 -0.177444,-0.07392 -0.172157,-0.234994 -0.216403,-0.408134 -0.128098,-0.500826 -0.163717,-0.86334 -0.170117,-1.26975 -0.0047,-0.301839 -0.252207,-0.57157 0.03098,-0.770921 0.331793,-0.233634 0.885,0.04535 1.283116,0.04535 m -44.6164553,10.520792 0.3710308,1.360448 0.030886,0.816269 0.061864,0.453482 0.015484,0.634876 0.077266,0.544178 0.1855143,1.08836 M 3.8377352,74.896269 C 3.1092628,76.02408 2.1377094,75.288621 1.6270156,74.261392 1.0634561,73.127867 1.4183845,71.586299 2.7246438,71.071869 3.1750465,70.894557 3.4963875,71.021351 3.9304935,71.177712 M 20.626877,70.996319 c 0.439778,0.600007 0.559145,1.802098 0.649305,2.358109 0.318436,-0.19663 0.623888,-0.510078 1.113093,-0.317438 0.799107,0.314717 1.060778,1.411602 0.448296,2.01047 -0.398857,0.389993 -0.988826,0.678616 -1.209552,0.628917 -0.129069,-0.02906 -0.359377,0.01728 -0.354555,-0.09602 0.01039,-0.243066 0.05196,-0.790948 0.0491,-1.046881 -0.0037,-0.328638 -0.04638,-0.800851 -0.04638,-1.179055 m 36.1755,-1.360448 c 0.396354,-0.04081 0.526123,-0.294129 0.927578,-0.468628 0.414533,-0.180124 0.973862,-0.398612 1.391363,-0.438337 0.145167,-0.01378 0.293115,-0.05315 0.463789,0.04535 0.164831,0.09514 0.166871,0.2213 0.216403,0.408135 0.03896,0.146837 0.06187,0.201074 0.06187,0.362786 0,0.227467 -0.08822,0.349454 -0.154627,0.544179 -0.225496,0.661631 -0.652179,1.41169 -1.066715,1.995323 -0.493284,0.694643 -0.82981,1.254424 -1.004844,1.904625 0.581034,0.179399 1.271432,-0.454389 1.947911,-0.906965 m -8.626468,-4.26273 c 0.31686,0.58862 -0.07375,1.339405 -0.201006,2.086019 -0.02606,0.153278 -0.119844,0.298664 -0.03089,0.438336 0.203417,0.319524 1.003625,-0.01451 1.146205,-0.05795 0.171421,-0.05222 0.412122,-0.07448 0.552679,-0.142644 M 52.906557,71.26841 c 0.144979,0.538556 0.185513,0.954944 0.185513,1.541841 0,0.161802 -0.01517,0.575875 -0.0013,0.753746 0.03521,0.449429 0.09402,1.545412 0.09402,2.148543 m 1.113078,-4.17204 h 1.298606 l 0.463789,0.01515 0.510341,0.03451 -0.340317,1.492187 -0.07585,0.635038 c -0.02666,0.223225 -0.05271,0.309297 -0.09408,0.725414 -0.01717,0.172141 -0.128839,0.292224 -0.170025,0.45348 -0.07505,0.293404 -0.108248,0.774731 -0.108248,1.088359 m 5.364369,-0.906968 c 0.01622,0.228466 -0.07031,0.322155 0.04638,0.54418 0.239778,0.456203 0.847156,1.226943 1.453234,1.103503 0.190245,-0.03882 0.311295,-0.133141 0.463787,-0.257034 0.287551,-0.233542 0.38504,-0.495655 0.494678,-0.846469 0.118824,-0.38029 0.159915,-0.682762 0.09276,-0.997662 -0.03571,-0.167606 -0.04063,-0.278982 -0.09276,-0.453483 -0.123924,-0.41548 -0.01446,-2.553463 -0.948344,-2.578768 -1.289991,-0.03496 -1.593125,2.311577 -1.509735,3.485733 z m 3.169253,-3.265073 c 0,0.156632 -0.0027,0.3763 0.03089,0.544179 0.04619,0.232001 0.06187,0.282882 0.06187,0.544178 0,1.211796 -0.245158,2.938387 0.185516,4.081342 m -34.50581,-1.360453 c 0.3266,-0.02522 0.548105,-0.12897 0.834819,-0.241888 0.359344,-0.141488 1.472992,-0.371584 0.83482,-0.876672 -0.591888,-0.468538 -1.809055,-0.514613 -2.179806,-1.23955 -0.06929,-0.135592 -0.04638,-0.307733 -0.04638,-0.453482 0,-0.199442 -0.05501,-0.3607 0.108247,-0.513978 0.383183,-0.359702 1.001321,-0.392987 1.468633,-0.392987 m 9.27577,0.181393 c 0.228368,0.530302 0.113719,1.025142 0.216403,1.54184 0.04109,0.206607 0.05927,0.271273 0.06187,0.453483 0.0076,0.531843 0.145908,1.5939 0.371029,2.086018 m 3.246522,-3.990645 c 0.282261,0.616918 0.477143,1.647774 0.618413,2.358108 0.07384,0.371404 0.312409,0.839759 0.01541,1.043011 -0.191824,0.131328 -0.742156,-0.305012 -1.004846,-0.589528 -0.23718,-0.256943 -0.621197,-0.691016 -0.819327,-0.906964 -0.172993,-0.188558 -0.177516,-0.295542 -0.346799,-0.478024 -0.326039,-0.331876 -0.32967,-0.816729 -0.454415,-1.28217 -0.0633,0.675476 0.230229,3.000105 0.50745,3.936909 m -15.583293,-3.809252 0.09276,0.634875 -0.04638,0.786066 0.293765,0.483685 0.309162,0.997661 M 6.434967,72.568363 c 0.6062653,-0.197537 0.9977942,0.0761 1.0203358,0.604674 0.033299,0.780443 0.4565528,2.276572 -0.5565473,2.675546 C 6.3060892,76.082036 5.5986463,75.59944 5.3837179,75.077663 5.054807,74.27917 5.369809,72.915549 6.434967,72.568363 m 8.348192,3.144175 c -0.03933,-0.132779 -0.150268,-0.438518 -0.139135,-0.634875 0.02051,-0.360608 0.139135,-0.322062 0.139135,-0.725572 0,-0.897623 0.280591,-2.323281 1.391366,-1.435998 0.27985,0.223567 0.325619,0.576377 0.561408,0.826699 0.05064,-0.05378 0.266267,-0.324965 0.397056,-0.479059 0.27141,-0.319615 0.615447,-0.491938 0.989447,-0.166247 0.276789,0.240981 0.393571,0.776906 0.448299,1.073211 0.03451,0.186565 0.03683,0.250051 0.07736,0.453484 0.07904,0.397613 0.03089,0.801123 0.03089,1.269751 m 6.029248,-3.265074 c 0.05074,0.269096 0.08951,0.497742 0.09276,0.725572 0.0021,0.147381 -0.0077,0.206062 0.03089,0.362786 0.04721,0.191551 0.09971,0.345644 0.139135,0.544179 0.102035,0.512799 0.343295,1.56669 1.035825,1.632537 0.950952,0.09043 0.912006,-1.558134 1.262722,-2.040822 M 10.052518,72.719554 c 0,0.573384 0.127727,3.174378 1.113092,3.174378 0.479278,0 0.837509,-1.050719 0.896688,-1.269751 0.06475,-0.240163 0.14099,-0.262929 0.200914,-0.544179 0.03348,-0.157087 -0.116596,-1.089356 -0.170024,-1.269751 m 1.391363,0.181393 0.757553,1.541839 0.355541,0.54418 m 40.349595,-1.54184 c 0.636782,0.262112 0.639593,0.09187 1.14384,0.16133 l 0.803984,0.110756 m -40.163991,-0.0907 0.09276,0.544179 -0.06186,0.453482 -0.03089,0.634875 m -4.452372,-1.26975 c 0.148043,0.157177 0.274841,0.293313 0.371031,0.544179 0.144517,0.376753 0.238479,0.764479 0.742064,0.906965 m 22.632875,-0.634877 c 0.354984,0.103215 0.29729,0.20933 0.40192,0.54418 0.127355,0.407499 0.26399,0.683125 -0.123646,0.967459 m 92.479415,6.016171 h 0.0928 m -4.17409,0.272089 c 0.15768,0.254314 0.14192,0.396526 0.10853,0.634878 -0.13914,0.977978 -0.3868,2.6945 -0.3868,3.809253 0,0.585083 0.2124,0.444865 0.64929,0.468628 0.1985,0.01069 0.28292,0.07065 0.46379,0.07555 0.25509,0.0069 0.65859,-0.13305 0.92758,-0.181391 m 21.42703,-4.806917 0.0928,1.08836 v 1.360446 l -0.10852,0.725574 0.0157,0.544177 -0.0463,1.496494 c -0.57882,0.539099 -0.88955,0.6405 -1.34499,0.529031 -0.80143,-0.195993 -1.80878,-1.333782 -1.31438,-2.206916 0.64559,-1.138787 2.11248,-0.562128 2.68108,-0.284145 m -8.50903,-2.618143 c 0,0.526401 0.10114,1.669722 0.21612,2.176716 0.0344,0.150101 0.0981,0.336755 0.0933,0.6273 -0.009,0.559475 0.3789,1.317142 0.52547,2.093594 m -1.39136,-1.995322 c 0.19665,0.14847 0.69504,-0.161363 1.01464,-0.230741 l 1.02602,-0.222743 m -66.414495,2.539503 c 0.411196,0.116362 0.785287,0.107838 1.205849,0.0907 0.22837,-0.0093 0.290054,-0.04063 0.556547,-0.105844 0.284304,-0.06947 0.936576,-0.167517 0.81933,-0.61973 -0.316953,-1.222497 -2.524494,-0.947324 -2.674482,-2.267411 -0.06883,-0.605491 0.808105,-1.41659 1.391363,-1.511639 0.315933,-0.05143 0.371309,0.134593 0.649305,0.241888 m 29.125813,5e-6 c 0,0.861707 0.27828,2.384049 0.55655,2.992985 l 0.81904,-0.54418 0.29405,-0.362785 0.71196,-0.686031 m -8.874642,-1.2186 c 0.01115,0.406049 0.17068,0.884566 0.24767,1.269751 0.03344,0.169421 0.03058,0.258396 0.03058,0.453484 0,0.357073 -0.002,0.418297 0.04633,0.725571 0.04449,0.283341 0.03334,0.332584 0.04633,0.634876 0.03242,0.760853 0.319086,1.257054 0.371029,1.904626 m 28.940393,-4.988308 c 0.0344,0.107567 0.128,0.298392 0.16975,0.54418 0.0297,0.173504 0.0157,0.266921 0.0157,0.453483 0,0.794411 -0.0807,2.588931 0.0928,3.174376 m 1.94791,-3.899947 c 0.51295,0.794773 0.1614,1.179416 0.55655,1.723233 0.35433,-0.387275 0.2356,-1.020335 1.02033,-1.254605 0.6354,-0.19001 0.73062,0.570457 0.92727,0.831755 0.14192,-0.09832 0.37226,-0.313697 0.55685,-0.484115 0.19573,-0.181122 0.64931,-0.632154 0.98973,-0.256944 0.81256,0.896081 -0.19943,2.647886 0.21613,3.612715 M 91.802428,88.527097 c 0.06956,-0.222567 0.608709,-0.227062 0.897186,-0.419339 1.040738,-0.692378 1.333854,-1.907076 0.618691,-2.872087 -0.544486,-0.733825 -1.948847,0.207746 -1.948847,0.207746 0,0 0.268317,2.261974 0.398348,2.967962 0.110283,0.598787 0.428131,1.770972 0.468018,2.266083 m 21.334266,-1.632538 c 0.29682,0.206335 0.66878,0.272089 1.02034,0.272089 0.17438,0 0.26621,-0.02185 0.46379,-0.07555 0.22354,-0.06077 0.39143,-0.06966 0.54077,-0.166339 0.14006,-0.09006 0.22448,-0.643309 0.20128,-0.846469 -0.11501,-1.014623 -1.67613,-1.000745 -2.13342,-1.813931 -0.56118,-0.99884 0.84596,-1.269751 1.57689,-1.269751 0.15861,0 0.21518,-0.02239 0.37102,0.04535 0.20593,0.08943 0.31353,0.19237 0.55654,0.31744 m 26.06492,0.906963 c 0.0157,-0.595148 1.35426,-1.765315 1.93214,-1.163906 0.33207,0.344917 -0.20314,0.575557 -0.44802,0.695277 -0.68085,0.333128 -0.84965,0.452304 -1.48412,0.468629 m -46.286088,2.539503 c 0.574169,0 1.15947,0.106297 1.607491,-0.453484 0.197572,-0.245968 0.442454,-0.544539 0.231893,-0.816268 -0.20221,-0.261113 -0.555619,-0.309092 -0.819051,-0.362785 -0.550052,-0.11201 -1.504529,-0.243428 -1.375596,-0.997661 0.121514,-0.713148 1.807848,-1.729673 1.839385,-0.54418 m -10.017831,0.634875 c 0.05463,-0.676958 1.29026,-1.663373 1.808776,-0.634875 0.233379,0.462917 -0.313059,0.673151 -0.602926,0.755775 -0.542816,0.154819 -0.660991,0.145476 -1.20585,-0.1209 -0.305173,0.708793 0.0027,2.146333 1.113094,2.086019 0.603944,-0.03283 0.870902,-0.307369 1.298606,-0.725571 m -5.270339,-0.904307 c 0.2116,0.03397 0.21282,0.0031 0.354182,-0.09336 0.315283,-0.215223 1.084523,-0.752055 0.726571,-1.179055 -1.229633,-0.758779 -1.252491,1.223087 -0.927577,1.813931 0.431602,0.735094 1.218187,0.748973 1.870644,0.362786 M 110.11722,86.93866 c 0.26362,0.06285 0.42062,0.03067 0.57738,0.0051 0.32929,-0.05369 1.00921,-0.498379 1.15948,-0.801123 0.28754,-0.578643 -0.59273,-0.827786 -1.06672,-0.589526 -0.55005,0.276261 -0.56195,0.712138 -0.66488,1.256951 -0.0431,0.227712 0.0527,0.456578 0.0926,0.693024 0.14007,0.81908 0.9248,2.444453 1.77817,1.269751 M 82.681783,85.689154 c 0.190152,0.371946 0.425014,1.993237 0.448297,2.539502 0.0085,0.196902 -0.07236,0.394076 -0.262783,0.498832 -0.695403,0.382465 -1.553597,-0.813549 -1.855152,-1.133707 -0.09183,0.113733 -0.197576,0.264199 -0.278276,0.453481 -0.07124,0.167154 -0.382996,0.764027 -0.695681,0.438338 -0.760706,-0.792326 -0.08951,-1.87633 -0.602926,-2.70575 m 57.788038,-0.0907 v 0.816268 l 0.0157,0.54418 0.16974,1.269751 m -3.98857,-2.448805 -0.0928,1.451143 m -29.54439,0.64551 c -0.61591,0.491211 -2.07115,1.554335 -2.7353,0.987027 -0.22076,-0.18865 -0.39143,-0.369679 -0.44802,-0.634875 -0.11872,-0.555334 0.0909,-1.149126 0.44802,-1.541842 0.47121,-0.51833 0.94613,-0.862342 1.66965,-0.695369 0.36916,0.08517 0.60756,0.178672 0.81904,0.453483 0.29775,0.385914 0.16326,0.672513 0.20128,1.058156 0.0714,0.719405 0.26344,1.426746 0.64931,1.904626 m 27.08524,-3.174377 c 0,0.458016 -0.14562,1.895556 0.0928,2.448806 m 10.66714,-2.358111 c -0.12914,0.394104 -0.17676,0.457447 -0.15449,0.776427 0.0547,0.77337 0.59509,1.952995 1.63861,1.853772 0.53707,-0.05106 0.87842,-0.543997 1.1131,-0.906965 m -37.9379,-1.54184 c 0.46657,0.408134 1.1168,0.443325 1.63903,1.088357 0.34876,0.431535 0.44152,0.894903 0.67991,1.360448 M 98.35783,86.958905 c 0.546342,-0.239165 0.625274,-0.11981 0.973957,-0.136046 l 0.973953,-0.04535 m -19.293595,0.362789 v 0.453482 m 25.044585,-0.453482 0.1855,1.723231 m -17.902229,4.806917 c 0.247569,0.484135 0.258885,1.185222 0.401919,1.904625 0.04471,0.224565 0.06186,0.313175 0.06186,0.54418 0,0.779628 -0.04239,1.976186 0.278272,2.720895 m 72.490128,-1.269752 c -0.32557,0.497834 -0.90716,1.088455 -1.5305,0.876765 -1.81619,-0.616646 -0.47677,-3.533717 0.37104,-4.413928 0.26158,-0.271998 0.56417,-0.444072 0.83482,-0.04535 0.6207,0.914413 0.92201,2.667748 0.32464,3.582513 z m -17.94861,-3.718557 1.39137,0.0302 1.48412,0.15119 m 25.97216,1.269751 c 0.10389,0.291863 0.0909,0.598235 0.10852,0.906967 0.0167,0.291951 -0.0622,0.609934 -0.20128,0.906963 -0.36547,0.780625 -1.57689,1.60868 -2.1798,0.634876 -0.57696,-0.931815 -0.11131,-2.228505 0.35526,-2.992985 0.43967,-0.719042 1.27577,-1.411064 1.59264,-0.498831 0.16754,0.482339 0.16882,0.603404 0.32466,1.04301 z M 173.3988,94.7588 c 0.24116,-0.814908 1.857,-1.482888 2.36532,-0.54418 0.2087,0.385644 -0.0844,0.980792 -0.27828,1.360448 -0.30981,0.606307 -0.7096,1.318183 -1.05095,1.904626 -0.15954,0.272634 -0.62704,0.943516 -0.20128,1.073212 0.40164,0.122354 0.99065,-0.3558 1.39137,-0.438335 M 135.7234,94.7588 c 0.47584,0.905423 0.47121,3.154062 -0.54078,3.869748 -0.23374,0.16534 -1.0361,-0.0605 -1.0361,-0.0605 0,0 -0.0185,-1.196745 -0.0185,-1.84867 0,-0.185929 -0.0529,-1.153928 -0.0891,-1.325707 -0.0872,-0.406957 -0.22573,-1.390065 -0.22573,-1.390065 0.73868,-0.518554 1.61617,0.195681 1.91021,0.755188 z m 19.95867,-0.906966 c 0.2792,0.647755 0.24395,1.047547 0.18552,1.632537 -0.0733,0.738452 -0.333,2.123479 0.0928,2.811591 m 2.04068,-4.444128 c -0.37289,0.576649 -0.44617,1.295782 -0.46379,1.904629 -0.005,0.210867 -0.0241,0.262928 -0.0622,0.453483 -0.0324,0.163886 -0.0306,0.282608 -0.0306,0.45348 0,0.496383 0.038,1.13534 0.18552,1.632536 M 86.191084,95.484375 c 0.122067,0.715779 0.502191,1.864268 0.262875,2.6302 -0.289684,0.927009 -1.266422,0.961568 -1.917024,0.423279 -0.865985,-0.716501 -0.815896,-2.070237 -0.494675,-3.053479 0.163716,-0.501188 0.521947,-1.219684 1.051222,-1.420942 0.393014,-0.149376 0.507049,-0.165078 0.78844,0.332585 0.257929,0.456172 0.248126,0.730289 0.309162,1.088357 z m 54.742526,2.448806 c 0.72073,0.961385 2.69647,0.32279 2.50445,-0.906963 -0.0974,-0.622362 -0.99157,-0.718861 -1.48411,-0.725574 -0.39979,-0.0055 -1.19101,-0.06866 -1.43775,-0.544177 -0.2523,-0.486589 0.16882,-0.858808 0.51017,-1.179055 0.55562,-0.520689 1.22811,-0.836404 1.85516,-0.272091 m 2.12611,-0.398532 0.007,1.396194 v 0.453484 0.816269 c 0,0.631336 0.0575,1.200094 0.1855,1.632536 M 77.765623,95.484375 c 0.0036,-0.13568 -0.02847,-0.269096 0.108251,-0.453482 0.172249,-0.232455 1.517514,-1.383484 1.793283,-0.816269 0.350995,0.721947 -0.980401,2.536845 -0.980401,2.536845 0,0 0.801232,0.0825 1.097599,0.317436 0.314821,0.24957 0.584421,0.629011 0.578484,1.04567 -0.01012,0.710703 -0.698466,0.906969 -1.205849,0.906969 -0.519071,0 -0.922848,-0.255676 -1.205851,-0.63488 m 71.516181,0.362785 c -0.52315,0.0942 -0.89975,0.263745 -1.48412,0.120898 -0.6456,-0.157808 -0.64188,-1.038291 -0.64931,-1.57204 -0.004,-0.264744 0.0306,-0.297394 0.0306,-0.54418 0,-0.229098 0.0139,-0.478152 0.0622,-0.816269 0.0686,-0.482776 0.17067,-1.098242 0.2625,-1.54184 0.0315,-0.151553 -0.007,-0.224927 0.1243,-0.317437 0.24488,-0.172777 1.29582,0.04535 1.56111,0.04535 m 18.45878,4.53483 c 0.82555,0.0341 1.96276,-1.181872 1.39137,-1.813936 -0.67527,-0.747158 -1.38209,-0.201438 -1.96061,0.126443 -0.15924,-0.188547 -0.055,-0.272012 -0.0801,-0.489229 -0.0204,-0.179762 -0.10945,-0.618097 -0.1549,-0.816268 -0.0335,-0.148561 -0.0223,-0.214588 -0.0306,-0.362787 -0.0176,-0.315623 -0.20407,-0.73591 -0.0464,-0.997662 0.11223,-0.186289 0.25508,-0.157176 0.41741,-0.181391 0.34135,-0.05098 0.8209,0 1.20584,0 m -55.65461,0 c 0.0668,0.352445 0.12615,0.636689 0.21612,1.088357 0.0362,0.178309 0.051,0.256581 0.0622,0.453483 0.0121,0.215222 0.12001,0.694229 0.13914,0.816268 0.0356,0.227141 0.0315,0.185564 0.0463,0.453483 0.0538,0.948141 0.33671,1.956955 0.55655,2.539506 m -15.119512,-0.63488 -0.278269,-3.08368 -0.09276,-0.997663 c 0.609422,-0.04707 1.528654,-0.949049 2.226181,-0.42328 0.48699,0.366593 -0.13356,1.271201 -0.35526,1.693032 -0.1178,0.223112 -0.2254,0.430081 -0.402566,0.634874 -0.205923,0.238805 -1.008044,0.287994 -1.242715,0.257791 m -16.736468,-2.6159 c 0.434293,0.301385 0.463789,0.531572 0.463789,0.997662 0,1.108856 -0.0857,2.558728 0.463788,3.446466 m 46.749882,-3.990645 c 0.50459,-0.337573 1.24666,-0.519599 1.85515,-0.453483 0.37845,0.04118 0.98601,0.255221 0.81905,0.725572 -0.0752,0.211231 -0.15579,0.539171 -0.23645,0.76126 -0.14078,0.387593 -0.34304,0.470804 -0.66527,0.609317 -0.16746,0.07199 -0.33567,0.112947 -0.47388,0.141062 -0.26621,0.05415 -0.4266,0.101132 -0.7418,0.130708 m 46.56411,-1.914436 c 0.62981,-0.178399 1.61583,-0.406049 2.41169,-0.362786 0.18366,0.01 0.27828,0.09578 0.46379,0.105843 0.14563,0.0079 0.36639,-0.0858 0.46378,-0.105843 M 75.075644,94.577412 c 0.332537,0.411853 0.37103,0.633605 0.37103,1.088358 0,1.009995 -0.270852,2.463225 0.185514,3.355774 M 179.62939,94.491168 c -0.0705,0.260754 -0.39984,0.758394 -0.54176,1.174602 -0.0445,0.13151 -0.28062,0.599537 -0.30653,0.728559 -0.0856,0.426312 -0.28062,1.567603 -0.28062,2.264431 m -48.234,-3.718562 c -0.0473,0.158446 -0.0928,0.371038 -0.0928,0.634874 l -0.002,0.941902 c -0.001,0.547794 0.0841,1.619277 0.28072,2.141786 m -12.8933,-0.997667 c 0.008,0.584265 0.0204,1.252793 -0.74207,1.511639 -1.01383,0.344104 -1.83474,-1.029316 -1.76239,-1.874425 0.0501,-0.586899 0.32279,-1.357636 0.92757,-1.677886 0.80699,-0.427362 1.23717,0.0873 1.29861,0.906965 0.0429,0.571836 0.27363,0.786158 0.27828,1.133707 z m -12.62555,-0.221856 c 0.15362,-0.02677 0.24981,-0.03899 0.38153,-0.06538 0.36824,-0.07328 1.1706,-0.287233 1.48412,-0.453482 0.30889,-0.163706 0.71981,-0.420377 0.51017,-0.801121 -0.29868,-0.542002 -1.0695,-0.545177 -1.5305,-0.256943 -0.63168,0.394349 -0.77187,0.943422 -0.84524,1.466018 -0.0247,0.175527 0.11338,0.646395 0.18017,0.786248 0.45543,0.943246 1.39136,1.058064 2.14919,0.453483 m 1.94791,-0.0907 c 0.22911,1.064964 1.27078,1.65983 2.13343,0.816268 0.19664,-0.191817 0.42019,-0.441053 0.44802,-0.72557 0.0455,-0.457928 -0.333,-0.820532 -0.72629,-1.012809 -0.52779,-0.258122 -1.41085,-0.06947 -1.82455,-0.619728 -0.2792,-0.372218 -0.0825,-0.832322 0.24766,-1.073212 0.46379,-0.338297 0.97489,-0.203252 1.39137,0.07555 m -9.09025,0.362786 0.37103,0.272092 c 0.47769,-0.573021 1.04074,-1.204814 1.66964,-0.362786 m 14.93398,-0.362788 0.57232,1.541841 0.30888,0.544178 0.11846,0.837095 m -0.16484,-0.927789 c 0.26158,-0.323788 0.26251,-0.7341 0.77268,-1.360449 0.45636,-0.559688 1.36167,-0.529939 1.79393,0.0907 0.22633,0.325509 0.13635,0.78262 0.12337,1.088357 -0.0251,0.58073 -0.0928,1.022964 -0.0928,1.451147 m 41.4626,-2.90229 c 0.38679,-0.149379 0.98045,5.14e-4 1.2986,0.0907 m 12.61505,0.272092 c 0.33764,-0.121536 0.99465,-0.35112 1.40162,-0.347312 0.29159,0.0027 0.62977,-0.01548 0.91732,-0.01548 m -67.24933,0.362786 0.74207,-0.136043 c 0.27812,-0.05099 0.33206,0.04535 0.74206,0.04535 m 17.082,-0.02023 c 0.39978,0.123346 0.96493,0.08398 1.34617,0.655098 0.13171,0.197264 0.13171,0.32959 0.0928,0.544178 -0.0695,0.375845 -0.13543,0.892 -0.24767,1.269756 m -30.23901,-2.358113 0.27827,2.448801 m -23.745962,-2.26741 -0.278273,0.272091 m 68.960535,-0.282814 1.53531,0.10142 m -73.185818,9.251037 c 0,-0.18501 0.03437,-0.24785 0.03089,-0.45348 -0.01063,-0.6271 -0.134211,-1.14292 -0.216404,-1.63253 0.394835,-0.35651 1.04139,-0.28534 1.484122,0.18139 0.432529,0.45593 0.620364,1.3531 0.556548,1.99532 -0.0616,0.61982 -0.357119,1.32526 -0.83482,1.81393 -0.269183,0.27536 -0.765714,0.37223 -0.881199,0.40814 -0.04638,-0.46637 -0.139136,-1.89955 -0.139136,-2.31277 z m 8.533708,-2.26741 0.587434,1.90463 0.09276,0.54418 0.06187,0.45348 0.185516,1.36045 m -3.24652,-4.17204 1.298608,4.35343 m -8.028556,-3.9499 0.326013,-0.30898 m 56.029305,0.35893 c -0.18366,0.97273 -0.71423,2.2821 -1.02034,2.99298 l 1.29862,-0.10584 0.93968,-0.26136 m -0.19762,-1.71881 0.18552,1.17905 -10e-4,0.7006 c -7.8e-4,0.49061 -0.24826,1.64927 -0.36978,2.2924 m 3.24653,-4.41394 c -0.19944,0.14611 -0.38588,0.25649 -0.55655,0.42328 -0.51295,0.50183 -1.17524,1.54447 -1.20585,2.26741 -0.0371,0.86824 0.23004,1.81394 1.29861,1.81394 0.26064,0 0.34412,0.0281 0.55654,-0.0151 0.32187,-0.0655 0.6456,-0.42737 0.85059,-0.71043 0.42761,-0.59043 0.71424,-1.81928 0.63354,-2.6302 -0.0752,-0.75387 -0.24425,-1.31866 -0.74206,-1.54184 -0.31209,-0.13992 -0.54078,0.1773 -0.83482,0.39298 z m -44.245429,2.6907 c 0.312593,0.5138 0.983231,0.68639 1.484122,0.51398 0.169747,-0.0584 0.319088,-0.13414 0.340423,-0.33259 0.09461,-0.91694 -1.846807,-1.15448 -2.164967,-2.08602 -0.09647,-0.28252 -0.04545,-0.69564 0.247665,-0.86162 0.47399,-0.26791 0.916444,-0.11782 1.298607,0.22675 m 30.053499,3.53716 c 0.22169,0.21096 0.34227,0.44804 0.74206,0.45348 0.88676,0.0121 1.84124,-0.90678 1.09733,-1.72323 -0.39979,-0.43961 -1.0964,-0.28215 -1.56112,-0.0907 -0.42761,-0.69102 -0.31074,-1.78654 -0.55655,-2.35811 l 1.1131,-0.1814 m -42.802879,0.97265 c -0.08849,0.12181 -0.199686,0.28504 -0.252187,0.5692 -0.06716,0.36369 -0.300443,0.8384 -0.541057,1.08836 -0.478537,0.4971 -1.114391,0.28424 -1.406856,-0.27209 -0.09721,-0.18493 -0.101473,-0.27681 -0.139135,-0.45349 -0.02997,-0.14075 -0.03952,-0.21177 -0.03089,-0.36278 0.02949,-0.51869 0.524452,-1.15339 1.020336,-1.3756 0.340048,-0.15237 0.826747,-0.19889 1.082201,0.10585 0.111866,0.13341 0.15871,0.51642 0.262783,0.69537 0.139324,0.23943 0.266863,0.37865 0.340143,0.66508 0.140621,0.55025 0.321499,1.47054 0.912086,1.81393 m 20.684345,-3.35579 c 0,0 0.24364,-0.0461 0.37102,-0.0509 0.16285,-0.006 0.46379,-0.01 0.46379,-0.01 l 0.83482,-0.0302 1.7624,-0.18139 m -2.5148,0.21142 c 0.24025,1.27366 0.33036,3.02309 1.03068,4.3234 m 21.89081,-3.89994 c 0.2319,-0.0417 0.40906,-0.0924 0.64931,-0.15119 0.55005,-0.13451 0.92479,-0.18575 1.39136,-0.0907 0.2152,0.0438 0.58901,0.16026 0.67992,0.42327 0.0752,0.21596 -0.13543,0.52297 -0.21613,0.72558 -0.31259,0.78652 -0.95634,1.53005 -1.40714,2.26742 -0.27548,0.45203 -0.94427,1.17552 -0.077,1.26974 0.51295,0.0557 0.7096,0.0942 1.29861,-0.10584 0.39515,-0.13405 0.80143,-0.42192 1.20586,-0.61972 m -12.33678,-3.89996 0.83482,0.10585 0.46379,0.0151 1.02033,-0.0302 c -0.0983,0.30863 -0.21612,0.65129 -0.27827,1.08835 -0.0176,0.12371 -0.12319,0.29107 -0.16233,0.53661 -0.10469,0.65686 -0.21241,1.44774 -0.30146,2.54707 m -10.01783,-4.17204 -0.3868,1.08836 -0.25462,0.77092 c -0.2529,0.76571 -0.67295,1.787 -1.12098,2.76624 m -17.345661,-1.81398 c -0.76284,-0.4689 -0.525286,-1.01153 -0.927577,-1.45114 -0.05983,0.0824 -0.153145,0.19454 -0.201007,0.36279 -0.0474,0.16697 -0.248313,0.72058 -0.386427,0.90697 -0.407393,0.54961 -1.219115,0.48649 -1.716018,0.13603 -0.500521,-0.35298 -0.943067,-1.02486 -0.943067,-1.67788 0,-0.27109 0.02867,-0.51225 0.278272,-0.69537 0.625744,-0.45883 1.900285,-0.60957 2.650484,-0.24601 l 0.317763,1.21347 m 31.352098,0.27209 c -0.13357,0 -0.75675,-0.0549 -1.02072,-0.0781 -0.40964,-0.036 -1.25463,0.13981 -1.85477,0.0781 M 106.706,105.46057 c 0.26621,0.64131 1.50109,0.713 1.86563,1.37531 l 0.39116,0.71071 0.98973,1.72323 m -11.571412,-1.14839 c 0,0 0.610435,1.1824 0.146442,1.76329 -0.248184,0.31071 -1.190083,0.65485 -1.190083,0.65485"
       id="path71"
       sodipodi:nodetypes="cssssscccccccccccccscsccssccscscsccssccscccssccccssscccccscccsccccccssccssssccccssccssssscsccccsscsssccsccccccccccccssssccsssccsssscccsccsccccscccccsscccsccccscsccccccccccccccccccssssscssccccscsccsccccccccccscccccsscscccsscscccccccsccssccccccscccssccsccssccsccsccscccscccsccscccccccccscscccsscccccccsccsccscscccccscccccccccscccccscsccccccccccccsccsccccsccccccccccssccccsccccccccccccsccsscccscccccccccccccscccccsccccsccscccccccscccccccccccccccccccscccccscccccccsccccscccccccccscccccsccccsccsccccccscccsscscccsccccccscccscsssccscsccccccccccscccccsccccccccccsccccsssccscccsccccscsscccccsccccccscccccccccccccccccccccccccscscccccccccccccscssccccccccccccccccccscccscsccscscscccsccccccssccsscccccscccccccccccccccccccscccsccccsscccccsccscccsccc" /></g></svg>
