<?xml version="1.0" encoding="UTF-8" standalone="no"?>
<!-- Created with Inkscape (http://www.inkscape.org/) -->

<svg
   width="3000"
   height="1998.207"
   viewBox="0 0 793.74998 528.69227"
   version="1.1"
   id="svg5"
   xml:space="preserve"
   inkscape:version="1.2.1 (9c6d41e410, 2022-07-14)"
   sodipodi:docname="SavvS - Stake - Envelope33.svg"
   xmlns:inkscape="http://www.inkscape.org/namespaces/inkscape"
   xmlns:sodipodi="http://sodipodi.sourceforge.net/DTD/sodipodi-0.dtd"
   xmlns="http://www.w3.org/2000/svg"
   xmlns:svg="http://www.w3.org/2000/svg"><sodipodi:namedview
     id="namedview7"
     pagecolor="#ffffff"
     bordercolor="#666666"
     borderopacity="1.0"
     inkscape:showpageshadow="2"
     inkscape:pageopacity="0.0"
     inkscape:pagecheckerboard="0"
     inkscape:deskcolor="#d1d1d1"
     inkscape:document-units="px"
     showgrid="false"
     inkscape:zoom="0.25638077"
     inkscape:cx="-881.50137"
     inkscape:cy="996.5646"
     inkscape:window-width="1450"
     inkscape:window-height="1030"
     inkscape:window-x="423"
     inkscape:window-y="3"
     inkscape:window-maximized="0"
     inkscape:current-layer="layer1" /><defs
     id="defs2" /><g
     inkscape:label="Layer 1"
     inkscape:groupmode="layer"
     id="layer1"><path
       style="fill:none;stroke:#554952;stroke-width:0.0991288"
       d="m 6.614531,50.290066 c 0.439483,0.999809 0.7264215,3.639547 0.8102733,4.656907 H 6.8170979 c -0.3539257,0 -0.6770623,0.06663 -0.7656112,0.06987 m -4.7037347,0.99734 c 0.9152245,0.507603 2.2331223,1.886436 3.5449476,1.519995 0.8571173,-0.239539 1.1376332,-0.94477 1.2491677,-1.714033 C 6.1764343,55.581731 6.2204793,55.46381 5.9643417,55.198934 5.5594835,54.780263 4.7844065,54.870202 4.1837084,54.526561 3.2302904,53.98114 2.0505218,52.830429 2.4956349,51.551312 2.8233796,50.6095 3.8578069,50.581123 4.588845,50.581123 m 6.279622,0.970189 c 0.457602,0.724178 0.89424,2.576007 1.232326,3.589699 0.08062,0.2418 0.127475,0.30762 0.228929,0.687459 0.162978,0.610185 0.213278,0.812937 0.378778,1.446955 0.07292,0.279609 0.09713,0.386233 0.185653,0.679133 m 45.780471,-5.918152 1.02976,2.134416 0.118094,0.582114 0.03383,0.759978 -1.181684,0.113192 M 33.353569,52.424482 h 0.101282 m 23.700512,0.291056 h 0.101285 m -23.497942,0.09702 1.255883,3.968368 0.212735,0.688539 0.05064,1.067209 m 20.054282,-5.142002 c 0.421848,0.667548 0.59079,1.226445 0.607703,1.843359 -0.583598,-0.04413 -1.153019,-0.390268 -1.823116,0.210211 -0.306385,0.274525 -0.303853,0.645631 -0.303853,1.051034 0,0.207136 -0.0087,0.289602 0.03373,0.485095 0.113234,0.52041 0.468945,1.933393 1.282966,2.021195 0.446462,0.04822 0.981345,-0.482378 1.198497,-0.856968 0.103816,-0.178903 0.200036,-0.338693 0.320768,-0.485095 l 0.405136,0.97019 m -43.34965,-4.947965 c -0.665944,0.655138 -1.217039,1.416157 -1.370076,1.931238 0.435348,-0.111974 0.856465,-0.01825 1.572645,0.429552 0.482822,0.301893 1.194084,1.296255 1.240463,1.322072 m 0.104316,-0.8505 c 0.37293,-0.253802 1.701189,-1.115514 1.086041,-1.183041 -0.857631,-0.09414 -1.334269,1.426439 -1.095251,2.021264 0.481182,1.197471 2.016837,1.243226 3.019652,0.889302 m -6.178337,0.09702 -0.660083,-1.246509 c -0.793865,0.74035 -1.4932902,1.170445 -2.2771613,0.373338 -0.4235687,-0.430666 -0.7923551,-1.128523 -0.8102732,-1.74634 -0.0058,-0.199635 0.00462,-0.317979 0.050642,-0.485094 0.1368342,-0.496679 0.4947134,-0.582113 0.9622006,-0.582113 0.6043531,0 1.1322819,0.245582 1.6483249,0.63587 m -3.5727258,-0.344814 0.9115582,0.194038 m 21.4553426,2.328453 c -0.161448,0.197628 -0.196693,0.320163 -0.388224,0.452788 -0.17451,0.120885 -0.391866,0.129326 -0.607703,0.129326 -0.318034,0 -0.471886,-0.0486 -0.708991,-0.226345 -0.273771,-0.205293 -0.427824,-0.456765 -0.540147,-0.743845 -0.374348,-0.95613 0.362228,-2.476833 1.83652,-1.908041 0.687014,0.265046 0.779955,0.986363 0.779955,0.986363 0,0 -0.08234,0.956024 -0.37141,1.309754 z m 2.143884,0.485095 c 0.213305,0.145237 0.319147,0.217031 0.607704,0.194038 0.384373,-0.03066 1.509035,-0.452593 1.485535,-0.97019 -0.01082,-0.238666 -0.298282,-0.320744 -0.472692,-0.404276 -0.369688,-0.17706 -1.468318,-0.198889 -1.603633,-0.662931 -0.266376,-0.912996 0.873477,-0.970189 1.401066,-0.970189 M 7.4329322,54.945348 c 0.2553569,0.580939 0.5817923,2.251493 0.8021454,3.397287 m 19.5478574,-0.09702 c -0.549367,0.15232 -0.626647,0.194038 -1.114128,0.194038 -0.6548,0 -1.418585,-0.180552 -1.924398,-0.679133 -0.304056,-0.299691 -0.716588,-0.77945 -0.590793,-1.261246 0.18677,-0.71565 1.644654,-1.733446 2.211339,-1.067207 m 29.574995,-0.194038 0.286938,0.679132 0.253212,0.776151 0.168842,0.970189 m -6.583477,0.582114 c -0.43218,0.22877 -0.721547,0.542723 -1.21541,0.582113 -0.769556,0.06141 -1.36136,-0.57571 -1.603633,-1.067208 -0.175729,-0.356447 -0.322692,-0.743649 -0.303852,-1.067208 0.06036,-1.041885 0.777861,-1.527126 1.8062,-1.164226 m -13.52318,1.93743 c 0.0205,-0.108266 0.109112,-0.321507 0.133826,-0.504097 0.05591,-0.412912 0.257551,-1.319026 0.728824,-1.41716 0.50865,-0.105935 0.967266,0.674698 1.131042,1.051034 0.233358,0.536418 0.309525,1.386303 0.421952,1.940379 0.06026,0.29678 0.06756,0.315698 0.06756,0.679132 m 14.189615,-2.265287 c -0.0023,-0.29718 -0.002,-1.109429 0.395311,-1.275903 0.292305,-0.122516 0.730462,0.251794 0.742715,0.533604 0.04011,0.921582 -1.125744,0.78502 -1.125744,0.78502 0,0 0.277186,1.181941 0.585596,1.430212 0.606389,0.488296 1.434184,0.310364 1.823116,0.0162 m 6.380907,0.388075 c -0.27914,-0.923717 -0.802579,-2.312349 -0.829925,-3.308053 0.719221,0 1.500933,0.08092 2.045336,0.300467 m -12.255394,0 0.691039,1.045577 c 0.07482,-0.178867 0.128049,-0.272725 0.254249,-0.560483 0.227789,-0.518963 0.981141,-0.468378 1.384251,-0.194037 M 11.03665,55.778706 c 0.0059,0.133983 0.383968,1.113017 0.383968,1.299973 m 46.217661,-1.545206 c 0.190819,0.36547 0.722569,2.344149 0.833778,2.712142 m -28.314422,-2.081101 0.562541,1.693026 m 19.635256,-0.98847 c 0,0.537388 0.09005,1.107317 0.216454,1.76462 m -38.994428,5.724115 c -0.01611,-0.195105 -0.145545,-0.510998 -0.05064,-0.679132 0.111715,-0.197822 0.26658,-0.172403 0.455779,-0.21024 0.442104,-0.08819 1.338876,-0.321617 1.704919,0.113221 0.609425,0.723761 0.118197,1.908846 0.118197,2.522491 l -0.911558,-0.09702 m 43.045797,-2.716529 c 0.01235,0.448519 -0.04355,0.485386 0.03373,0.970189 0.02541,0.159208 0.0029,0.427659 0.168841,0.533604 0.540351,0.344999 1.874365,-0.300564 2.194527,0.533604 0.229204,0.597248 -0.384782,1.092045 -0.877832,1.164227 -0.629076,0.09207 -1.080703,0.09682 -1.721832,-0.291057 M 4.2849932,63.387616 c 0.10175,0.462974 0.1073916,0.54903 0.1012849,0.970189 -0.00465,0.320259 -0.030123,1.59111 0.2194515,1.811052 0.2477113,0.218293 0.6355097,0.0034 0.8946735,0 0.2202325,-0.003 0.4760085,-0.08786 0.718816,-0.03294 3.2527008,0.588256 -0.7914248,1.90236 -2.2380662,1.520538 m 3.3423636,-2.037398 c 0,-0.598897 0.1814418,-1.135605 0.7089913,-1.519994 0.3778817,-0.275243 0.8643782,-0.418928 1.3166948,-0.226345 0.2538696,0.108079 0.4153662,0.228673 0.6077035,0.404278 0.2311219,0.211015 0.2877309,0.461615 0.4220529,0.662929 0.09176,0.137573 0.586538,0.772174 0.658346,0.970189 0.159019,0.438622 0.01995,0.742486 -0.371407,1.164227 -0.49217,0.530402 -0.607799,0.521476 -1.5192651,0.485095 C 8.6896192,67.541191 8.1982593,67.204729 7.9312229,66.977317 7.5191183,66.533016 7.3263617,66.582146 7.3235165,65.619051 Z M 58.1682,63.387617 c -0.78951,0.318416 -1.717048,0.06197 -2.185894,0.06197 m -29.81992,0.03506 c -0.01883,0.686602 5.74e-4,2.005672 0.270126,2.813548 0.09896,0.296684 0.197708,0.563292 0.371309,0.776151 0.177854,0.218002 0.389033,0.279609 0.675262,0.291056 0.346493,0.01387 0.8045,0.03163 1.114125,-0.145528 0.171577,-0.09818 0.948834,-0.690446 1.097264,-0.962087 0.270378,-0.494815 0.07369,-1.566855 -0.185705,-1.317857 -0.421895,0.404989 -0.150601,1.158448 -0.04017,1.504149 0.246663,0.77213 1.106092,1.104204 1.863293,0.791998 0.439271,-0.181135 0.750315,-0.420674 0.810273,-0.937882 0.0394,-0.339566 -0.0099,-0.57571 -0.13501,-0.87317 -0.246425,-0.585898 -0.620469,-0.983966 -0.675263,-1.649321 m 8.102728,1.164226 c 0,-1.039848 0.742108,-2.002179 1.704918,-0.873169 0.306079,0.358873 0.403617,0.644495 0.422049,1.067207 0.498351,1.352301 -1.30275,3.148244 -1.704903,1.843359 -0.196291,-0.712603 0.305775,-0.686312 0.894641,-0.404277 0.35053,0.31349 0.738756,0.462309 1.012832,0.630622 0.162258,0.110116 0.407669,0.341894 0.607706,0.452788 m 2.228253,-0.194039 c -0.964936,0.128357 -1.64516,-0.811853 -1.806202,-1.552302 -0.08842,-0.406606 -0.177957,-0.781487 0.01682,-1.261245 0.209457,-0.515947 1.084553,-1.425208 1.772474,-0.840864 0.276809,0.235175 0.62695,0.964465 0.776547,1.228939 0.185045,0.327245 0.384869,0.42064 0.441743,0.946069 0.07724,0.713603 -0.317783,1.361817 -1.201386,1.479403 z m 1.807636,-0.811085 c 0.191932,0.21412 0.373834,0.265452 0.623196,0.358298 0.542275,0.20209 1.184012,0.262048 1.620549,-0.06461 0.217152,-0.162603 0.295446,-0.356544 0.303852,-0.646824 0.01875,-0.646534 -0.515333,-1.020445 -0.877832,-1.552302 -0.240347,-0.352762 -0.191528,-0.679715 -0.742715,-0.92168 -0.635457,-0.279027 -1.051229,0.319094 -1.249138,0.824661 -0.137139,0.35014 -0.395304,0.656193 -0.277211,1.016751 0.214369,0.654513 0.282178,0.632271 0.599299,0.985711 z M 4.3851555,63.828365 c 0.3356774,0.135342 1.6370867,0.263707 2.3306719,0.141366 m 8.2040206,3.686718 c 0.640218,0.225957 1.420207,0.62451 2.228253,0.355768 0.349228,-0.116228 0.607706,-0.487229 0.607706,-0.840863 0,-0.614906 -0.594537,-1.305098 -1.41798,-1.261246 -0.278833,0.01484 -0.669893,0.3157 -0.911558,0.274855 -0.577319,-0.0976 -0.404528,-1.203131 -0.286938,-1.5361 0.173399,-0.491304 1.002108,-0.11293 1.401066,-0.09702 0.23255,0.0093 0.378399,0 0.607704,0 h 0.911558 M 13.811482,66.0903 c 0,0.443667 -0.266161,1.773865 -0.613465,2.439318 m 0.611771,-2.417146 0.502356,0.08869 m 47.806157,3.395661 0.236296,0.582116 0.185755,1.067207 0.118097,0.485094 0.20257,0.97019 0.202567,1.067206 0.06756,0.679133 m -11.03998,-3.880755 c -0.150058,-0.202311 -0.117351,-0.501568 -0.117351,-0.501568 l 1.53533,-0.161364 c 0,0 0.419622,0.538263 0.506422,0.759951 0.147165,0.376044 0.198617,0.696207 0.320765,1.164227 0.04892,0.187441 0.08143,0.380217 0.08437,0.582114 0.0033,0.227313 0,0.422806 0,0.582111 H 53.61043 m 2.329534,-1.358264 c 0.06371,-0.331318 0.29099,-1.429186 0.607707,-1.568502 0.331098,-0.145531 0.65936,0.178319 0.844002,0.404275 0.582788,0.713283 0.449845,1.450737 0.219483,2.473982 l -0.185654,0.824657 0.742715,0.485094 m -9.115578,-4.171808 c -0.251186,0.481311 -0.603756,1.934265 -0.388223,2.71653 0.07039,0.255741 0.09267,0.528462 0.320664,0.759949 0.87828,0.520245 1.779921,-0.427201 2.397097,-0.856968 m 8.305305,1.228938 c -0.400072,-0.27146 -0.749401,-0.501782 -0.995927,-0.937883 -0.378398,-0.669139 -0.520806,-1.655626 -0.287039,-2.231434 0.283798,-0.69902 1.476115,-0.931867 2.076326,-0.452787 0.285724,0.228091 0.371428,0.553719 0.776544,1.471485 0.84896,1.923257 -0.318133,2.999922 -1.569904,2.150619 z m -8.811727,-3.751429 c -0.110418,1.99523 0.144818,3.334761 0.506422,5.336037 M 41.456322,71.73124 c 0,0.801474 0.398145,1.421133 0.573977,2.134415 0.140075,0.56824 0.192642,1.016662 -0.168841,1.455285 -0.787081,-0.436489 -1.135195,-1.607992 -1.55299,-2.328455 -0.322996,-0.55679 -0.887488,-1.135263 -0.951905,-1.430299 0.08872,0.752189 0.493186,2.893832 0.580494,3.952793 m -2.126967,-3.880758 0.422049,2.522493 0.388224,1.843357 M 11.374903,71.73124 c 0,0.446191 0.08255,0.90538 0.185654,1.552304 0.259896,1.629044 0.611453,3.299224 0.928474,4.94796 m 8.507875,-6.403244 0.979115,2.328454 0.219381,0.67913 0.337682,0.873171 0.176343,1.046709 c 0,0 1.693669,0.81799 2.423217,-0.07653 0.55585,-0.681559 -0.167624,-1.455477 -0.793357,-1.730139 -0.249061,-0.10934 -0.586742,-0.213238 -0.810276,-0.21024 -0.154861,0.0019 -0.285621,0.04841 -0.405137,0.11322 -0.242609,0.133786 -0.526251,0.486088 -0.651685,0.65628 m -12.413981,2.933418 c 0.372017,-0.178222 0.515336,-0.349168 0.62462,-0.792351 0.08781,-0.356352 -0.04456,-0.757426 -0.337649,-1.067208 -0.102736,-0.108564 -0.226747,-0.198598 -0.3882555,-0.258749 -0.4992382,-0.185984 -1.2389784,-0.203739 -1.7218314,0.258749 -0.632073,0.605496 -0.3931242,1.441114 0.1423868,1.874402 0.4788508,0.387443 1.0842775,0.270785 1.6807291,-0.01485 z M 8.2061805,78.372328 C 7.4733594,79.018862 5.8753507,79.627317 4.7914263,78.82982 4.3811849,78.527898 4.0296966,77.829266 3.9136259,77.358334 c -0.058391,-0.236918 -0.033758,-0.336459 -0.033758,-0.58211 0,-0.671372 0.1463058,-1.541534 0.455779,-2.134418 0.4686127,-0.897715 1.0504796,-1.843357 2.1776106,-1.843357 m 48.0087275,2.425472 c -0.02288,-0.83155 -0.02314,-1.95031 -0.07351,-2.22365 l 1.086348,0.186253 m 1.875492,0.582112 c -0.722746,0.784385 -1.370283,-0.245657 -1.014576,-0.291056 0.38203,-0.04876 0.704939,0.128146 1.014576,0.291056 z m -28.614527,2.619513 c 0.593322,0 1.016894,-0.03502 1.519262,-0.25875 0.171372,-0.07626 0.456387,-0.15494 0.354494,-0.420384 -0.220293,-0.574061 -1.26899,-0.482086 -1.63746,-0.970189 -0.414153,-0.548643 0.05814,-0.816122 0.573977,-0.582112 m -1.823117,0.09702 c 0.115058,0.220332 0.452438,0.660216 0.489506,0.873171 0.03484,0.199762 -0.02216,0.334425 -0.101282,0.582114 -0.228194,0.715515 -1.022972,1.226126 -1.704918,0.743845 -0.398757,-0.282131 -0.560744,-0.590662 -0.717228,-1.080996 -0.192137,-0.602488 0.03221,-1.774556 0.197712,-1.284514 m -8.494781,3.270984 C 17.345808,76.875575 17.029901,75.612 17.029901,75.612 c 0,0 0.07201,-0.388268 0.202569,-0.582112 0.484036,-0.71862 1.627029,0.276989 1.924401,0.679131 0.188491,0.25487 0.211074,0.567756 0.219483,0.87317 m -3.950087,-1.552301 c 0.190417,0.577651 0.564256,0.982703 0.506422,1.552301 -0.11192,1.103006 -1.628244,0.862498 -2.228253,0.420384 -0.571344,-0.42097 -0.807336,-1.233987 -0.708989,-1.681633 m 3.646233,-0.291056 0.387184,0.595959 m 2.122007,0.08022 c 0.09692,-0.268376 0.198421,-0.688955 0.325034,-0.817103 0.477246,-0.984699 1.657729,1.309123 1.824848,2.178316 M 34.56899,76.097091 c 0.06411,0.466564 0.05702,0.763345 0,1.455282 m 109.79211,1.358265 0.66745,1.766252 c 0.282,0.746262 0.59759,1.188847 1.02095,1.823448 0.10838,0.162311 0.16104,0.297362 0.21878,0.485091 0.0506,0.16251 0.0456,0.23867 0.1185,0.371875 0.0739,0.134372 0.61885,0.94642 0.70899,1.18043 m -8.91302,-5.530077 c 0.36869,0.706394 0.88585,1.723232 0.98011,2.415112 l -0.67624,-0.08666 M 98.276773,80.36592 v 0.09702 m 28.791367,-1.187927 c 0,0 -0.18535,1.639809 0.0746,2.400666 0.30074,0.880091 1.21108,2.400315 1.20311,2.397772 0,0 1.25191,-0.152114 1.83093,-0.305311 0.12154,-0.03216 0.23334,-0.07072 0.32594,-0.116954 m -0.44892,-1.605718 c 0.28259,0.278347 0.36253,1.026645 0.56943,1.53172 0.146,0.356398 0.46959,1.057663 0.46959,1.057663 m -26.03004,-3.492777 c 0.30488,0.299787 0.37982,0.441533 0.60771,0.77615 0.2127,0.312304 0.44565,0.64731 0.59049,0.97019 0.10837,0.240995 0.22688,0.577552 0.32107,0.873171 0.0577,0.182102 0.19432,0.562425 0.19432,0.562425 0,0 1.17413,-0.08483 1.43317,-0.198725 m 2.9303,1.770715 c -0.20662,-0.243033 -0.39299,-0.341799 -0.48921,-0.598316 -0.0972,-0.257974 0.0152,-0.588225 -0.237,-0.824661 -0.46084,-0.432899 -1.24904,-0.899524 -1.86154,-0.469432 -0.95642,0.671579 -0.0485,2.151901 0.86591,2.345197 0.66442,0.141454 0.99726,-0.737978 1.23832,-1.050766 m -0.63061,-4.058931 c 0.26756,0.890603 1.25205,2.281614 1.43519,2.716533 0.26536,0.482377 0.49528,1.151324 0.69177,1.746339 m 27.14419,-2.328454 c -0.17185,-0.390336 -0.1244,-1.9392 -0.1244,-1.9392 0,0 0.26165,-0.0264 0.42825,-0.0011 m 1.81566,0.921949 c 0.30385,-0.03764 1.76068,-0.269497 1.66142,-0.72791 -0.14382,-0.671082 -1.06955,-0.171724 -1.24883,0 -1.23001,0.792203 0.56958,2.155605 1.21541,2.005007 0.2917,-0.08528 0.52476,-0.322176 0.56426,-0.525431 m -11.25116,1.427095 c -0.0357,-0.411239 -0.0295,-0.518748 -0.21837,-1.063315 -0.0253,-0.13699 -0.5732,-1.237832 -0.51851,-1.38142 m 0.33795,0.984479 c 0.157,-0.404472 0.84903,-1.164771 1.46383,-1.042139 1.18401,0.236339 1.20731,1.725579 1.72183,2.506289 m -0.66326,-1.591671 c 0.20763,-0.269616 0.35941,-0.805471 0.76454,-0.898514 0.66139,-0.151735 1.70361,1.461495 1.82312,2.005091 m 0.20257,-1.552301 1.01284,1.940376 M 83.38796,87.35136 c 0.513815,0.155424 0.554228,0.175704 1.012841,0.194039 0.321681,0.01282 0.447981,0.09003 0.708991,0.09702 0.401996,0.01067 0.95916,-0.07955 1.41798,-0.274855 0.316918,-0.134955 1.030769,-0.596666 0.793356,-0.98639 -0.606893,-0.996677 -2.191586,-1.364088 -3.224179,-1.762544 -0.270834,-0.10449 -0.578941,-0.114093 -0.776547,-0.371872 -0.666855,-0.869873 0.815338,-1.649323 1.485535,-1.649323 m 61.597373,0.775774 c -0.0658,0.169879 -0.44601,1.312268 -1.13069,1.148401 -0.74659,-0.320576 -1.52761,-0.975985 -1.62055,-1.730217 -0.0375,-0.321617 -0.18737,-0.482185 0,-0.87317 0.28259,-0.591038 1.04229,-0.945479 1.48693,-0.945479 m -30.86502,4.223571 c -0.0683,-0.04926 1.27818,-0.511743 1.09802,-0.6857 -0.22678,-0.218985 -0.74044,-0.266354 -0.96154,-0.01699 -0.66254,0.890553 0.67879,1.904349 1.38844,1.984598 m -1.71087,-1.325956 c -0.28967,-0.07684 -1.10787,-1.033929 -1.42894,-1.261245 -0.54592,-0.386425 -1.43607,-0.331109 -1.43607,-0.331109 0,0 0.35234,-0.569714 0.92966,-0.962448 m 5.16549,4.365853 c 0.33626,0.0847 0.50844,0.04919 0.81027,-0.06472 0.24308,-0.09179 0.6786,-0.342186 0.30385,-0.695236 -0.49832,-0.469184 -1.31568,-0.225085 -1.80589,-0.792354 -0.58543,-0.67632 0.0891,-1.400273 0.69177,-1.552304 m -17.17367,2.970335 c 0.6862,0.190255 2.53506,-3e-6 3.07794,-0.7389 0.73532,-0.999294 -1.68942,-1.87712 -2.4136,-2.069705 -0.73279,-0.195006 -1.29239,0.341024 -1.215414,1.099518 0.0475,0.46792 0.405246,1.132297 0.557064,1.697831 l 0.45578,1.69783 m -0.729026,-1.758883 -2.157577,0.400619 c -1.110605,0.206216 -0.601731,-2.165498 -0.320767,-2.522491 0.300409,-0.368286 0.871793,-0.420635 0.928471,0.04851 -0.130302,0.719769 -1.144745,0.821461 -1.772474,0.921676 m -2.548254,-0.295489 c 1.51602,-0.03822 1.671396,-2.224364 0.269359,-0.723207 -0.906896,0.971012 0.723067,2.929193 2.177613,2.085906 m 8.609155,-2.328455 c -0.53883,-0.04075 -1.43115,-0.13147 -0.9622,0.630624 0.42472,0.6902 1.44635,0.43736 1.85654,0.92168 0.37476,0.441241 -0.1104,0.883357 -0.48919,0.953986 -0.4487,0.08363 -0.61683,-0.09944 -1.11414,-0.274855 m 1.62055,-2.231435 0.82761,-0.0088 m -0.0173,0.0088 0.30385,1.358265 0.10128,0.776151 m 69.07585,-0.970292 c -0.0142,-0.512552 -0.25119,-0.850567 0.30385,-1.051007 0.24814,-0.08975 0.48312,-0.02969 0.709,0.04851 0.26438,0.09146 1.33172,0.504764 1.33172,0.504764 0,0 0.15961,1.055499 0.2716,1.758979 0.0679,0.423973 0.0362,0.86951 0.0362,0.86951 0,0 -0.58108,0.102619 -0.72794,0.100681 -0.44261,-0.0059 -0.64011,-0.09702 -1.01284,-0.09702 M 88.047052,84.73173 c 0,0.201704 -0.02076,0.361008 0.03373,0.582114 0.105133,0.426398 0.311549,0.751897 0.540248,1.067209 0.330188,0.455503 0.827899,0.720851 1.350424,0.679131 0.54268,-0.04336 0.710407,-0.08809 1.012843,-0.485095 0.495683,0.337336 0.47401,0.559896 1.114125,0.679134 0.35409,0.06597 0.868108,0.07626 1.181684,-0.30726 0.432991,-0.529432 -0.0627,-1.275023 -0.168841,-1.827155 m 83.356915,3.492681 c -0.7525,0.281005 -2.31984,-0.638262 -2.18191,-0.321913 0.61295,1.405839 1.85584,-0.939928 1.67549,-1.715487 0,-0.254965 0.0192,-0.453273 -0.1347,-0.679131 -0.27752,-0.406704 -1.3876,-1.352929 -1.87376,-0.856968 -0.19703,0.449247 -0.325,1.004645 -0.11851,1.43908 M 90.579159,85.507926 c 0.02887,0.262339 0.314486,0.654877 0.405137,1.067206 m 81.432524,2.781241 c -0.22991,0.206456 -0.27245,0.332872 -0.50642,0.404183 -0.1418,0.04346 -1.16174,-0.119917 -1.3167,-0.194039 -0.25827,-0.123602 -0.38184,-0.272721 -0.6077,-0.452691 -0.56111,-0.447645 -1.57599,-1.376406 -1.11414,-2.247635 0.44465,-0.838634 1.82633,-1.019404 3.03854,-0.194039 1.38064,0.940053 1.17185,2.087652 0.50642,2.684221 z m -7.12524,-2.92152 0.0353,0.334318 0.40513,-0.177835 0.50643,-0.129425 1.51926,-0.177834 m -2.43082,0.485094 c 0.0648,0.295616 0.0577,0.503917 0.50642,0.727641 0.76875,0.383515 2.12596,0.786049 2.71745,1.503795 0.38388,0.464622 -0.39095,0.879571 -0.79305,1.0349 -0.71,0.274076 -1.34505,-0.04249 -1.82312,-0.355769 m -7.49502,-2.587202 c 0.35955,-0.105072 0.82647,0.03182 1.11412,0.16173 0.2603,0.117684 0.40311,0.24478 0.59048,0.485095 0.19852,0.253703 0.28664,0.439979 0.45578,0.679131 0.22284,0.312886 0.40413,0.739186 0.49022,1.067209 0.0638,0.244584 0.0841,0.274272 0.0841,0.485092 0,0.18201 -0.0344,0.303187 -0.0841,0.485095 -0.08,0.287954 -0.21776,0.543695 -0.52364,0.646825 -1.24782,0.420772 -2.6901,-1.556668 -2.92003,-2.393165 -0.16104,-0.583083 0.12965,-1.422685 0.79307,-1.617012 m -75.355476,0.06471 0.101285,0.09702 m 73.025931,0.09702 c 0.2917,0.354217 0.58441,1.128622 0.79305,1.552303 0.10129,0.205001 0.1337,0.35344 0.21979,0.582114 0.12255,0.324916 0.24511,0.621018 0.37171,0.970187 0.11344,0.31444 0.16611,0.750734 0.53986,0.582114 m -3.64624,-3.29864 c 0,1.05401 0.50743,1.952308 1.06348,2.910565 0.20966,0.361685 0.30487,1.032379 0.75964,0.970189 m 22.59292,-3.974826 1.00629,0.09407 m -0.99666,-0.09112 0.0851,1.740447 m -34.6392,-1.164229 c 0,0 0.72895,-0.02173 1.0888,0.02425 0.66353,0.08476 1.94973,0.460839 1.94973,0.460839 m -3.84881,-0.388075 c 0.12154,0.170365 0.26958,0.760218 0.26958,0.760218 0,0 0.54475,0.01661 0.74327,0.04824 0.24915,0.03988 0.63503,-0.04424 0.67556,-0.04851 m 18.06201,-0.66293 0.60772,0.09702 m -21.67483,0.582111 c -0.38893,-0.176573 -0.62492,-0.364693 -1.11413,-0.08082 -0.33222,0.192873 -0.44667,0.392151 -0.38792,0.759949 0.0365,0.231971 0.0344,0.370416 0.11749,0.582114 0.1499,0.380023 0.83357,0.565424 1.38456,0.87317 0.61175,0.241576 1.74309,0.724244 1.78969,1.164227 0.0679,0.644982 -1.3329,0.783523 -1.89098,0.77615 -0.41323,-0.0056 -0.62289,-0.114288 -1.01284,-0.291056 m 1.72183,-3.686719 0.99489,-0.123627 m -0.007,0.0039 c 0.14078,0.732979 0.9597,1.809898 1.25748,2.836262 0.15901,0.548739 0.43451,0.982994 0.59048,1.552301 m -0.32123,-5.483904 c 0.0899,0.525239 -0.0991,1.848607 0.21995,2.573339 0.85585,-0.345193 1.94061,0.07179 2.63339,0.194039 m -17.52217,4.850948 c 0.1185,-0.618691 0.1813,-1.137935 -0.23599,-1.649324 -0.65734,-0.804675 -1.94953,-1.096561 -2.56226,-0.450036 0.25726,-0.346647 1.73071,-1.433098 1.68412,-2.072454 -0.0466,-0.642654 -1.4909,-1.766617 -2.12696,-1.406775 -0.42338,0.239152 -0.1013,0.750538 0,1.018699 0.22991,0.610152 0.66729,1.951358 0.74961,2.227777 0.13121,0.440615 0.30973,0.76973 0.55156,1.424635 l 0.31937,1.101511 m 2.93724,-0.386989 c -0.55402,-1.186345 -0.92877,-2.758167 -1.28327,-3.978858 -0.079,-0.271943 -0.31904,-0.609862 -0.30385,-0.87317 0.0132,-0.223824 0.25726,-0.430376 0.473,-0.533605 0.21675,-0.103714 0.46995,-0.03104 0.70899,0.04851 0.9551,0.317641 1.96491,0.945936 2.49868,1.843359 0.40108,0.674962 0.79103,1.495546 0.40513,2.328455 -0.316,0.680101 -1.67575,1.05516 -2.34524,1.376003 M 145.57634,90.5529 c 0.10432,0.541561 0.45678,1.854226 1.21541,2.247636 0.17117,0.08878 0.41932,0.167844 0.60771,0.177839 0.17825,0.0095 0.30283,-0.04298 0.50641,-0.08082 0.2208,-0.04113 0.34336,-0.03861 0.50642,-0.113219 0.22992,-0.105557 0.32816,-0.297654 0.40514,-0.485095 m -35.3482,-1.06721 c 0.77483,0.214896 1.02197,1.42346 1.35012,2.231433 0.10534,0.258653 0.15124,0.763274 0.15124,0.763274 0,0 -0.37102,0.08612 -0.48851,0.109895 m -9.21686,0.582115 c -0.28968,-0.458705 -0.40718,-1.172861 -0.53985,-1.74634 -0.076,-0.328117 -0.30082,-0.966406 0.1347,-1.212736 0.36261,-0.204709 0.64316,0.03696 0.91157,0.16173 0.4659,0.216742 1.85653,1.062163 1.77246,1.63312 -0.1185,0.803996 -1.47165,0.82631 -1.97503,1.002496 -0.14382,0.05025 -0.29271,0.155036 -0.30385,0.16173 M 85.312217,92.9784 l 0.422054,1.5523 0.624519,2.619511 0.168841,1.455281 m 0.01682,-4.92027 c 0.08629,-0.278153 0.453447,-0.699267 0.996021,-0.512786 1.067904,0.367034 0.42754,2.521035 0.42754,2.521035 0.366739,-0.646162 1.767811,-0.64139 2.088223,-0.07275 0.330836,0.587138 0.289505,1.032556 0.235825,1.238432 -0.05064,0.194037 -0.08478,0.29154 -0.219484,0.485095 -0.169753,0.243905 -0.303042,0.327145 -0.607706,0.452786 -0.341631,0.140867 -0.552708,0.174537 -0.911558,0.129324 m 2.329538,-4.268829 0.641433,1.843359 0.472695,1.84336 m 4.962927,-3.49268 0.422051,1.067206 0.725803,1.940379 0.168841,0.87317 m 11.74897,-2.134416 h 0.10128 0.10129 l 0.20931,-0.01411 c -0.0547,-0.332143 -0.26681,-1.094684 0.3984,-1.392664 0.55017,-0.246448 0.67106,-0.05068 0.85744,0.04223 0.70219,0.35006 -0.79464,1.163805 -1.26258,1.364538 0.23498,0.42727 0.51757,0.833779 1.11413,0.889371 0.3677,0.03424 0.84872,0.05409 1.33057,0.0239 m 0.26852,0.01774 c 0.6105,-0.03824 1.39893,0.0078 1.33815,-0.445922 -0.0825,-0.615924 -1.1121,-0.712699 -1.48584,-1.261245 -0.35855,-0.527395 0.11546,-1.002204 0.67557,-0.776151 m -6.17586,0.602557 c 0.49509,0.3444 1.15276,1.349335 0.90908,1.531859 -0.25119,0.188145 -0.37574,-0.426261 -0.38792,-0.97019 -0.23397,-0.805352 0.55605,-0.970187 1.29947,-0.970187 m 5.67192,0 0.82684,-0.01626 m 4.03481,1.762585 c -0.0152,-0.178514 -0.19692,-0.588194 -0.17869,-0.705199 0.0334,-0.205777 -0.0613,-0.398215 0.0683,-0.613695 0.13269,-0.218972 0.54185,-0.330429 0.81936,-0.330429 0.45173,0 0.86902,0.515658 1.09691,0.87317 0.30183,0.472386 0.66443,0.792162 0.72621,1.358265 m -7.39414,-2.328831 c 0.0334,0.401757 0.33868,0.9598 0.43895,1.455661 0.0425,0.209852 0.0679,0.33976 0.0679,0.582114 m 1.41798,-1.79485 c 0.49832,-0.242061 1.41798,-0.0088 1.72183,0.25875 0.14787,0.129909 0.22441,0.231042 0.32265,0.380743 0.54566,0.917478 0.11725,1.587177 -0.6265,1.899202 -0.473,0.195007 -0.77482,0.28805 -1.19819,-0.09702 -0.36259,-0.329283 -0.62796,-0.989399 -0.70899,-1.422976 -0.0658,-0.347425 0.15294,-0.855319 0.4892,-1.018699 m -21.617084,-0.387541 0.853813,0.921146 c 0.353071,0.380914 0.345583,0.563193 0.422053,0.87317 0.04558,0.184916 0.08083,0.316863 -0.03383,0.485094 -0.220798,0.324044 -0.475733,0.439303 -0.79336,0.501296 -0.147977,0.02881 -0.233256,0.06481 -0.405137,0.08082 -0.99613,0.09275 -2.649493,-0.575807 -2.245167,-1.843358 0.121745,-0.381577 0.531742,-0.6216 0.827187,-0.87317 0.343455,-0.292416 0.678708,-0.452206 1.114128,-0.485094 m 23.981967,0.749831 c 0.12938,0.170232 0.4252,0.436255 0.65325,0.829616 m -14.40551,-0.415222 c 0,0.392055 0.38285,1.105046 0.50642,1.74634 m 37.88029,5.433068 c 0.003,0.20123 0.0284,0.30562 -0.0334,0.4851 -0.33727,0.96864 -1.66308,1.25708 -2.48146,0.54981 -0.76571,-0.66119 -1.06551,-2.25385 -0.11851,-2.84595 0.78902,-0.493254 1.31657,0.24462 2.07633,0.84086 0.57182,0.44874 0.552,0.65012 0.55706,0.97018 z m -9.92584,-0.19403 c -0.0891,-0.46171 -0.42135,-1.89982 0.6077,-1.40677 0.68873,0.32966 1.34809,1.50932 1.55269,2.18292 0.38184,1.25368 -1.05437,1.96105 -1.85654,0.82466 -0.3821,-0.54128 0.69572,-0.15237 0.9622,0 0.206,0.1178 0.43769,0.26061 0.65834,0.38808 0.3694,0.2134 1.11413,0.63063 1.11413,0.63063 m 1.62054,-4.0748 c 0.0932,0.42164 0.52365,1.00647 0.69178,1.35826 0.10534,0.21984 0.30385,0.77615 0.30385,0.77615 0,0 -0.65338,0.27161 -0.85899,0.35107 -0.44566,0.17181 -1.05022,0.21397 -1.45333,0.037 -0.90547,-0.39749 -0.81027,-1.39591 -0.81027,-2.23144 m -9.72329,1.45529 -0.6077,-0.97019 c 0.2289,-0.15581 0.32917,-0.19404 0.6077,-0.19404 0.18333,0 0.25524,0.0407 0.40514,0.0648 0.25928,0.0415 0.35348,-0.0158 0.60771,0.0485 0.35956,0.0909 0.80723,0.30581 0.99562,0.66293 0.39805,0.75102 0.32107,1.54765 0.32107,2.03741 l -0.6077,-0.097 m 2.24677,-2.288 c 0,0.42853 0.0149,0.22043 0.0149,0.54166 0,0.20568 -0.0314,0.33549 -0.0334,0.48509 -0.004,0.27903 0.0922,1.01094 0.40513,1.24505 0.61378,0.45958 2.12596,0.11565 2.48147,0.98639 0.2684,0.65721 -1.60232,1.06721 -1.97505,1.06721 m 8.53848,-3.70284 -0.54628,0.4851 m -9.2076,-0.46898 c 0,0 0.19785,-0.0847 0.30356,-0.10172 0.53279,-0.0859 1.62083,0.005 1.62083,0.005 m -21.47226,1.16422 2.12754,-0.41359 0.202,0.80167 0.13471,0.58211 0.16914,0.67913 0.81028,2.42548 m 4.05137,-4.55989 -0.30385,1.06721 -0.18536,0.67913 0.42135,0.46889 0.74342,0.69533 0.94499,1.45529 m -6.97992,-4.29988 1.76869,-0.12135 m 24.85054,-0.0344 c 0.21371,0.64701 0.68539,1.90946 0.8201,2.61226 m -24.20693,-2.13441 c 0.59758,0.0602 0.59353,0.27747 1.11413,0.77615 0.158,0.15155 0.36151,0.42497 0.51951,0.57603 m -18.649388,-1.15814 0.759633,1.26125 0.320765,0.77615 0.15193,0.48509 0.69207,3.00759 m -11.029244,1.64267 c 1.285804,0 3.804136,-0.67199 4.108192,-1.83671 0.106651,-0.40873 0.08771,-0.59802 0.03373,-0.97018 -0.07039,-0.48559 -0.209659,-0.73085 -0.438863,-1.06722 -0.196392,-0.28814 -0.382045,-0.62829 -0.590894,-0.87316 -0.425697,-0.49917 -1.459506,-1.05867 -2.008769,-1.35826 -0.575568,-0.32096 -2.402716,-0.78418 -2.684033,-0.38809 -0.140076,0.22741 -0.01499,0.49237 0.03373,0.67913 0.06006,0.22993 0.169852,0.51779 0.472693,1.50379 l 1.014576,3.75185 m 40.562602,-5.74073 -1.51057,-0.29604 c 0,0.63441 0.10576,1.16057 -0.10998,1.94535 m -31.499286,-1.64931 c 1.264333,1.48458 1.467813,3.49103 2.329538,5.142 m 18.048438,-4.8576 c -0.10028,0.52236 -0.72073,1.45379 -1.33653,2.04406 m -10.12843,3.58969 c 0.16914,-0.0637 0.26638,-0.0949 0.40513,-0.21024 0.54795,-0.45579 0.43654,-0.94273 -0.30385,-1.051 -0.48819,-0.0715 -0.93181,-0.21238 -1.08071,-0.67914 -0.077,-0.24312 -0.0567,-0.35305 -0.0334,-0.58211 0.0405,-0.39991 0.2046,-1.00977 0.709,-0.67913 m -3.5956,2.18292 c -0.45931,-0.9306 -0.1104,-2.26471 0.9622,-2.15061 0.49022,0.0522 1.09416,0.33467 1.16477,1.0349 l 0.11168,1.10739 c 0.0422,0.41839 -1.57047,1.36209 -2.23865,0.009 z m -4.574513,-0.77009 c -0.145141,0.44026 -1.110973,1.75939 -1.553181,1.78879 -0.195678,0.013 -0.326134,-0.015 -0.506422,-0.12932 -0.264351,-0.16765 -0.406855,-0.4067 -0.573977,-0.64683 -0.38731,-0.55659 -0.668971,-1.50845 0.06756,-2.0859 0.642905,-0.50406 1.578307,-0.24526 2.025686,0.14552 0.310225,0.27099 0.377531,0.47456 0.557063,0.92168 l 0.25321,0.63062 m 6.545304,0.1497 0.21743,0.25969 0.22587,0.26975 m 5.57063,0.48509 c 0.18738,0.41398 -0.24814,0.38808 -0.6077,0.38808"
       id="path125"
       sodipodi:nodetypes="ccscccssssccccccccccccccccccccccscccccccsccssccccscscccccsccsccccsscccccsscccccccccccccccccccccccccccccccccccccccccccccccccccsscccccssccsscccccccsssssccccccccccccccccsccccccccscccccsscccsccccccccccccccccsccccccsccccccccscsccccsccccccccccccccccscccccsccscccsssccccccscccsccccccccccsccccccccscccccsccccccccccscsccscsccccccccsccccccccccccccccccccccccccccccccccccccscccccccccccccccsccsccccsccscccccccccccccccccccccccccscscccccccccscccccccccccccccsccccccccccccccccccccscccccccccccccccccccccccccccccsccccscccccscccccccccccccccccccccscssccccccccccccccssccccscccsccccccsccccccccccccccsccsccccccccccccsccccsssccccscccsccccccsscccccccsccccccccccccccccccccccccccccccccccccccccccccccccccsssccccsssccccccc" /></g></svg>
