<?xml version="1.0" encoding="UTF-8" standalone="no"?>
<!-- Created with Inkscape (http://www.inkscape.org/) -->

<svg
   width="3000"
   height="1998.201"
   viewBox="0 0 793.74998 528.69069"
   version="1.1"
   id="svg5"
   xml:space="preserve"
   inkscape:version="1.2.1 (9c6d41e410, 2022-07-14)"
   sodipodi:docname="SavvS - Stake - Envelope58.svg"
   xmlns:inkscape="http://www.inkscape.org/namespaces/inkscape"
   xmlns:sodipodi="http://sodipodi.sourceforge.net/DTD/sodipodi-0.dtd"
   xmlns="http://www.w3.org/2000/svg"
   xmlns:svg="http://www.w3.org/2000/svg"><sodipodi:namedview
     id="namedview7"
     pagecolor="#ffffff"
     bordercolor="#666666"
     borderopacity="1.0"
     inkscape:showpageshadow="2"
     inkscape:pageopacity="0.0"
     inkscape:pagecheckerboard="0"
     inkscape:deskcolor="#d1d1d1"
     inkscape:document-units="px"
     showgrid="false"
     inkscape:zoom="0.52913967"
     inkscape:cx="272.13987"
     inkscape:cy="273.0848"
     inkscape:window-width="1450"
     inkscape:window-height="1030"
     inkscape:window-x="457"
     inkscape:window-y="0"
     inkscape:window-maximized="0"
     inkscape:current-layer="layer1" /><defs
     id="defs2" /><g
     inkscape:label="Layer 1"
     inkscape:groupmode="layer"
     id="layer1"><path
       style="fill:none;stroke:#4d444a;stroke-width:0.0881125"
       d="m 48.100418,50.271989 c 0.01241,0.472503 0.226624,1.74631 0.41122,2.379037 0.06018,0.206324 0.04247,0.414164 0.0734,0.616787 0.02353,0.154188 0.09481,0.199654 0.117455,0.35245 0.02969,0.200315 0.06159,0.624083 -0.02934,0.793012 -0.171735,0.318976 -0.278264,0.31287 -0.602078,0.7049 -0.277819,0.336299 -0.720936,0.485808 -1.116121,0.220281 -0.182038,-0.122291 -0.19138,-0.225163 -0.293677,-0.396506 -0.280464,-0.469525 -0.695385,-1.054151 -0.411222,-1.674137 0.181423,-0.395854 0.608768,-0.748515 1.057351,-0.7049 0.251296,0.02443 0.677245,0.179214 0.801572,0.289276 0.202306,0.17915 0.418997,0.274103 0.482738,0.350929 m -8.509533,1.033932 c -0.175961,0.35186 -0.318264,0.856744 -0.793012,1.05735 -0.737943,0.311821 -1.439758,-0.768103 -1.644795,-1.4098 -0.09763,-0.305776 -0.08071,-0.544455 -0.132169,-0.881124 -0.123535,-0.80852 -0.06379,-1.388406 0.484619,-2.026587 0.206623,-0.24045 0.706925,-0.493007 1.028006,-0.528675 0.326369,-0.03626 0.325135,0 0.704902,0 m -17.093818,0.264338 c -0.954699,0.401969 -2.038306,0.651917 -2.1147,2.026586 -0.04282,0.771513 0.514489,2.048844 1.145462,2.364349 0.547091,0.273562 0.869318,-0.06747 1.233574,-0.513987 M 2.3700486,54.501388 c 0.1295245,0.447443 0.4227117,0.616787 0.8811252,0.616787 0.5420583,0 1.0789288,-0.370425 1.1454619,-0.969237 0.1398524,-1.258696 -1.5459592,-0.820204 -1.938474,-1.762249 -0.2640918,-0.63382 0.3179092,-1.576976 0.9692357,-1.586025 0.3163232,-0.0044 0.7091478,0.06672 0.9692383,0.176225 m 47.6688433,-0.08811 0.176224,1.762249 c 0,0 0.07362,0.412138 0.117453,0.616788 0.04426,0.206659 0.146883,0.616787 0.146883,0.616787 l -0.08811,1.938474 M 5.98266,50.976889 c 0.1778895,0.965713 0.3030531,1.136536 0.3524496,1.762249 l -0.7930122,0.08811 m 5.5510856,-1.674137 0.499333,1.762249 0.203915,0.602829 c 0.126794,-0.1034 0.346435,-0.275729 0.530326,-0.411915 0.112343,-0.0832 0.221692,-0.122521 0.308394,-0.279026 0.209972,-0.379069 0.0304,-0.505061 0.132169,-1.05735 m 17.534378,-0.35245 0.493181,1.654623 0.211721,0.636301 c 0.135781,-0.09908 0.229356,-0.171079 0.38179,-0.352449 0.216316,-0.257289 0.724373,-0.547205 1.116121,-0.411195 0.455276,0.158083 0.539778,0.455647 0.616786,0.851757 0.117366,0.60357 0.09525,1.307377 -0.08811,1.674137 M 14.931099,53.094546 c 0.494395,-0.149636 0.436414,-0.11235 0.65582,-0.193871 0.197524,-0.07339 0.480124,-0.238891 0.425847,-0.513986 -0.09886,-0.501387 -0.668334,-0.317796 -0.837069,-0.08811 -0.187081,0.350208 -0.327381,1.17211 -0.293679,1.4098 0.103004,0.741845 0.928618,1.683283 1.497913,0.881125 m -6.312874,-1.260895 c -0.3239032,0.351709 -0.2133536,0.687123 -0.9123482,1.143414 -0.707809,0.462053 -1.3444117,-0.530825 -1.306999,-1.204207 0.018508,-0.333294 0.2361328,-0.823895 0.5139868,-0.969237 0.3199348,-0.167343 0.6638398,-0.201231 0.9692357,-0.08811 0.1427422,0.05286 0.1918215,0.09303 0.3524496,0.161537 0.3816171,0.162744 0.2996712,0.664465 0.3671661,0.895813 0.07639,0.262135 0.191996,0.303574 0.264336,0.440562 0.09446,0.179036 0.316236,0.961713 0.337736,1.233575 m 30.663138,-0.264337 c -0.115957,-0.275475 -0.184421,-0.978806 -0.16151,-1.05735 0.08979,-0.307971 0.09853,-0.271625 0.159857,-0.587217 0.0408,-0.209831 0.13664,-0.39188 0.354103,-0.514189 0.307424,-0.172903 0.835747,0.05701 1.057348,0.220281 M 28.010775,55.2944 c 0.154286,0.476917 1.631579,0.37913 1.586024,-0.440563 -0.01851,-0.333408 -0.416155,-0.44317 -0.704899,-0.499306 -0.185478,-0.03607 -0.245217,-0.01037 -0.440563,-0.02937 -0.285572,-0.02776 -0.648067,-0.07825 -0.837069,-0.440563 -0.326278,-0.62536 0.488321,-1.321687 1.013295,-1.321687 0.343551,0 0.414217,0.0043 0.704899,0.264338 m -22.9911981,-0.07806 0.6987449,-0.09817 m 18.4155062,0.02937 c 0.117541,-0.02286 0.255437,-0.05241 0.35245,-0.01468 0.358528,0.139411 0.624098,0.76375 0.396505,1.218886 -0.132786,0.265597 -0.237021,0.270179 -0.367165,0.440562 -0.131815,0.172551 -0.509641,0.605077 -0.73424,0.7049 -0.886765,0.394118 -1.291993,-0.56807 -1.233574,-1.409799 0.06177,-0.889496 1.05585,-0.836778 1.586024,-0.93987 m 14.891005,-0.02937 c 0.274519,0.45349 0.682932,0.712564 0.816428,0.970889 M 6.33736,52.725778 c 0.038274,0.484848 0.085863,0.78364 0.085863,1.77561 m 43.880006,-1.586024 0.264336,1.938474 M 12.26776,53.143978 c 1.06105,0.08377 1.458136,1.339876 1.292572,2.238535 m 37.712135,-1.850362 1.101405,-0.308394 c 0.533269,-0.149315 0.863237,-0.04406 1.541968,-0.04406 m -42.117758,0.35245 v 1.233575 M 31.0066,53.708376 v 1.145462 m 14.186106,-0.176225 c -0.02723,0.345295 -0.139305,0.634683 -0.440563,0.866437 -0.443999,0.341515 -1.141672,0.14216 -1.468571,-0.337762 -0.41633,-0.611307 -0.177822,-0.978106 -0.0734,-1.453856 0.05708,-0.260046 0.07948,-0.40382 0.161509,-0.660844 0.07375,-0.230898 0.214378,-0.470027 0.41122,-0.572731 0.278436,-0.145288 0.73618,-0.05384 0.925182,0.308394 0.141156,0.270479 -0.04044,0.557972 -0.22028,0.690211 -0.171908,0.126397 -0.274647,0.112141 -0.528676,0.161546 -0.311652,0.06059 -0.514499,0.0684 -0.759538,0.0684 m -16.995219,0.12596 c 0.36311,0.405864 0.273953,0.693589 0.660943,1.332924 M 3.9560731,58.907012 c -0.187046,0.167325 -1.2130365,0.214025 -1.3657444,0.528674 -0.1888518,0.389105 0.1994969,0.999019 0.2202825,1.497912 0.023603,0.566475 2.5e-6,0.837068 2.5e-6,0.837068 0.2738203,-0.212973 1.7064399,-0.02198 1.3216854,0.925181 -0.3521673,1.014263 -1.2479889,1.286794 -2.0265845,0.528675 m 12.2476294,-4.31751 c -0.212792,0.290154 -0.484536,0.353614 -0.753983,0.373616 -0.0919,0.0068 -0.347424,0.06695 -0.347424,0.06695 0,0 0.02008,0.28196 0.04406,0.528675 0.06512,0.669831 -0.0414,1.315706 0.09817,1.647273 0.232706,-0.06741 0.606378,-0.526307 1.047293,-0.501811 0.282667,0.01568 0.423294,0.137367 0.558018,0.440562 0.07445,0.167502 0.120448,0.262223 0.146884,0.440562 0.01903,0.128556 0,0.199839 0,0.35245 0,0.341172 -0.005,1.134536 -0.440563,1.292346 -0.959632,0.347692 -1.619773,0.277554 -1.938474,-0.587446 M 6.4232226,59.288803 c 0.4080579,-0.135958 0.6905101,0.145385 0.9692358,0.411221 0.6166213,0.58815 0.687278,1.973719 0.3230819,2.819599 C 7.5862006,62.819998 7.350932,63.201261 7.0400088,63.356691 6.4220138,63.665702 5.898848,62.916129 5.7036346,62.43151 5.3573968,61.571885 5.4463365,60.677455 5.8358017,59.876249 5.9645169,59.611471 6.1608592,59.376298 6.4232226,59.288803 m 2.5552601,-0.02934 h 1.0573513 c 0.159482,0 0.386725,-0.04758 0.513959,0.04406 0.182833,0.13164 0.106087,0.425142 0.102827,0.660843 -0.0022,0.163361 5e-4,0.217638 -0.02934,0.35245 -0.06441,0.28989 -0.128381,0.723051 -0.176226,0.969237 -0.02175,0.111903 -0.01471,0.425848 -0.01471,0.425848 l 0.484616,0.102827 c 0,0 0.658025,0.17737 0.793012,-0.264338 m 18.59173,-1.321687 c 0.199134,-0.445232 0.496425,-0.911523 1.145464,-0.866409 0.489817,0.03401 0.571938,0.509466 0.528673,0.954522 -0.08194,0.843236 -0.664632,1.464517 -1.013292,2.202812 -0.106264,0.225039 -0.347252,0.689656 -0.381793,0.881124 -0.01436,0.07948 -0.04291,0.258346 0.02934,0.35245 0.152698,0.198958 0.213761,0.17226 0.396506,0.146884 0.556078,-0.07728 0.74455,0.02432 1.233575,-0.323109 m -7.577672,-4.141286 0.35245,1.4098 v 0.528674 L 24.8975,62.783964 c 0,0 -0.280669,0.419641 -0.499336,0.425848 -0.331756,0.0094 -0.793012,-0.602073 -0.793012,-0.602073 l -0.440563,-0.440562 c -0.06784,0.086 -0.185564,0.274647 -0.27905,0.440562 -0.0771,0.136839 -0.180719,0.375712 -0.425849,0.337735 -0.806757,-0.124943 -1.057348,-1.80093 -1.057348,-2.276209 0,-0.411838 -0.138954,-0.489289 0,-0.969237 m 12.864419,-0.146889 c 0.309892,-0.107585 0.780502,-0.05542 0.954525,0.08811 0.186799,0.154109 0.15825,0.27588 0.22028,0.499333 0.05939,0.213585 0.178869,0.410781 0.279053,0.616788 0.150672,0.309891 0.175519,0.765344 0.117453,1.145462 -0.08106,0.530789 -0.355534,1.373144 -1.042635,1.46857 -0.458801,0.06371 -0.85989,-0.364874 -1.042635,-0.763671 -0.255877,-0.558192 -0.29262,-1.416584 -0.176223,-2.114699 0.06335,-0.380557 0.271562,-0.79451 0.690182,-0.939896 m 3.348275,0.176225 c 0.153053,-0.0319 0.388664,-0.03102 0.51396,0.07349 0.194906,0.162392 0.19517,0.269008 0.308395,0.425848 0.107408,0.148734 0.718557,0.783143 0.748956,1.057349 0.06503,0.585243 -0.432985,1.922174 -1.042635,2.099985 -0.348661,0.101682 -0.742524,-0.181512 -0.969238,-0.425848 -0.292181,-0.315002 -0.511052,-0.810811 -0.528676,-1.233574 -0.03128,-0.750366 0.189796,-1.834854 0.969238,-1.997246 m 9.780483,0.05877 c -0.300638,0.150319 -0.666393,0.180454 -0.969236,0.176224 -0.168296,-0.0024 -0.407433,-0.156928 -0.602072,-0.04406 -0.159307,0.09234 -0.101153,0.275792 -0.102827,0.396506 -9.99e-4,0.07578 0.116397,0.776712 0.146883,0.881125 0.06591,0.226096 0.03269,0.294472 0.205567,0.396506 0.111548,0.06582 0.316058,0.0467 0.440562,0.02934 0.501976,-0.0697 1.014701,0.08573 1.204232,0.631502 0.09516,0.274118 -0.0064,0.497219 -0.132169,0.7049 -0.288304,0.475984 -0.694327,0.624453 -1.248289,0.616787 -0.475278,-0.0066 -0.814247,-0.206183 -1.145462,-0.528674 m -22.116227,-1.76225 0.08811,0.881125 M 9.3309348,61.72661 10.425064,61.705444 m -0.0045,0.0078 c 0,0.157104 -0.119909,0.475748 -0.162037,0.692593 -0.0986,0.507087 -0.3448119,0.520859 -0.4870271,0.906792 m 41.7653081,5.37486 c 0,-0.434659 0.373773,-1.07929 0.969236,-1.145463 0.25544,-0.02837 0.585333,-0.02661 0.748958,0.264338 0.353946,0.629211 -0.386902,2.049672 -0.675559,2.643374 -0.104502,0.214994 -0.245921,0.490874 -0.308393,0.704899 -0.07534,0.258522 -0.06353,0.43043 -0.117455,0.616788 l 0.616788,0.08811 0.793012,-0.08811 m 1.586025,-4.009117 c 0.252617,-0.10318 0.950468,-0.0051 1.057348,0.0734 0.239403,0.175873 0.181689,0.293062 0.308394,0.587446 0.114635,0.266188 0.222308,0.435452 0.308395,0.7049 0.105734,0.33095 0.164152,0.502417 0.176224,0.793012 0.01111,0.265923 -0.03049,0.336061 -0.0734,0.616787 -0.06238,0.408225 -0.181511,1.204586 -0.631503,1.453856 -0.561277,0.310861 -1.074442,-0.221779 -1.4098,-0.660844 -0.631678,-0.826935 -0.964743,-3.066578 0.264339,-3.568554 m -37.183459,0.04406 c -0.155521,0.537398 0.08203,0.947297 0.234994,1.497912 0.06009,0.21658 0.142302,0.340819 0.249622,0.616787 0.0563,0.144681 0.04406,0.18301 0.04406,0.35245 0,0.196755 0.01788,0.345136 0,0.528675 -0.0236,0.242573 -0.279405,0.817155 0.264339,0.881124 0.914606,0.107586 1.427597,-0.823323 1.321685,-1.586024 -0.03683,-0.265395 -0.102827,-0.506559 -0.352449,-0.675558 -0.279141,-0.188914 -0.600751,0.0067 -0.793013,0.132168 -0.205653,0.134284 -0.376981,0.256593 -0.499105,0.333692 m 29.135656,-1.552552 1.233575,-0.264337 0.660843,-0.04406 -0.02934,0.0734 -0.10283,0.411221 -0.08811,1.145462 0.04406,0.51396 1.013293,0.102827 m 7.665785,-2.114699 c 0.04441,0.421794 0.174637,1.061579 0.293679,1.674137 0.04265,0.219312 0.122916,0.546209 0.146883,0.793012 0.03912,0.402498 0,0.477393 0,0.969237 M 7.4805714,68.246932 c 0.05641,0.133931 0.084042,0.294031 0.088113,0.440563 0.00779,0.28055 0.06662,0.365138 0.1468559,0.704899 0.1579955,0.669126 0.029368,1.20018 0.029368,1.938474 M 39.112945,68.246932 c 0,0.709746 -0.0032,1.275499 0.02168,1.872638 0.01638,0.392981 -0.02148,1.021152 -0.02148,1.021152 0,0 -0.461641,-0.614144 -0.587643,-0.779091 -0.175959,-0.230326 -1.273103,-1.144114 -1.273103,-1.144114 l -0.337242,-0.359813 0.259312,2.825614 m 7.489564,-3.260161 c -0.05489,0.298173 -0.135604,0.815569 -0.176224,1.233575 -0.01464,0.150848 -0.04009,0.300375 0.04406,0.440562 0.153579,0.255966 0.373243,0.101241 0.660842,0.02934 0.265836,-0.06644 0.701295,-0.03549 0.701295,-0.03549 0,0 -0.08451,-0.789591 -0.08451,-1.051197 V 68.599382 M 3.1630633,71.242756 C 2.9864776,71.547801 2.5381248,71.91805 2.0176016,71.756716 1.5271054,71.604722 1.4288593,70.954628 1.4008129,70.449744 1.375986,70.002837 1.2619746,69.356709 1.665152,68.966547 2.055314,68.588897 2.4598276,68.502723 2.8987268,68.687495 M 35.236,68.599382 l 0.161509,0.793012 0.19094,2.467149 M 21.66668,69.128057 c 0,0.7086 0.173494,1.766126 0.793012,2.188097 0.322757,0.21984 0.7227,-0.100096 0.939896,-0.425848 0.203628,-0.305398 0.246098,-0.465146 0.381792,-0.616787 0.163625,0.177635 0.386903,0.486116 0.440563,0.969237 0.01743,0.157104 0.04176,0.368486 0.08811,0.528675 m 1.497911,0.35245 c 0.472987,0 1.871683,-0.158867 1.057348,-0.86641 -0.469992,-0.408402 -1.501522,-0.259756 -1.65942,-1.072065 -0.162569,-0.836011 0.76041,-1.11612 1.395084,-0.983952 0.35474,0.07393 0.217198,0.04344 0.528673,0.19094 m -15.860243,-0.08811 c 0,0.314649 -0.03366,0.652825 0.01471,0.969237 0.02123,0.139217 0.102914,0.33421 -0.02943,0.528675 -0.186534,0.274206 -0.230326,0.276497 -0.513959,0.528674 -0.208386,0.185213 -0.545505,0.365931 -0.8811256,0.176225 C 9.1190195,71.088471 9.1990275,70.199681 9.0665932,69.480507 m 4.2293978,1.586024 c 0,-0.266012 -0.02026,-0.590618 0.01471,-0.7049 0.09111,-0.298084 0.08215,-0.257806 0.277936,-0.553512 0.06538,-0.09886 0.243424,-0.25395 0.324136,-0.298271 0.257728,-0.14142 0.969236,0.425936 0.969236,0.425936 0,0 0.239138,-0.129702 0.469905,-0.35245 0.71239,-0.687806 1.137797,0.52982 1.263003,1.130747 0.07225,0.346987 -0.0267,0.386373 -0.05877,0.793012 m 7.13711,-2.114699 0.08811,0.881125 M 4.8371908,69.509848 c 0.1726643,-0.05992 0.8439573,-0.05348 0.9692357,-0.01463 0.3521249,0.109083 0.4173267,0.448228 0.4405626,0.86641 0.02928,0.527 -0.1374546,1.317722 -0.7048992,1.483197 C 5.2767643,71.92228 4.6410433,71.676886 4.411317,71.418981 3.977653,70.932072 4.1278857,69.756123 4.8371908,69.509849 m 7.9466792,0.119484 c 0.210157,0.355385 0.322937,0.497408 0.528673,0.7049 m 32.575598,-0.253746 0.359656,-0.05464 M 14.87669,69.931712 c 0,0.277907 0.0047,0.805807 -0.170903,1.222932 m 31.191811,-1.05735 c 0,0.648773 0.08811,1.145374 0.08811,1.938475 m 2.20281,-1.850362 0.528676,0.08811 0.561792,-0.11019 m 5e-4,0.01064 c 0,0.365667 -0.210487,0.814933 -0.385961,1.421234 m -37.624024,-0.793012 0.352452,0.440563 m 19.384741,0.793012 c 0.308481,0.689568 -0.254471,0.886059 -0.616788,0.704899 m 76.745864,6.43221 c 0.008,0.292091 0.22557,0.864823 0.38153,1.145462 0.0573,0.102298 0.0646,0.190133 0.0919,0.385566 0.0273,0.199752 0.0464,0.273691 0.0402,0.407446 0.11305,0.943218 0.17782,1.648124 0.1912,2.379037 0.007,0.247684 0.15508,0.696704 0.17622,0.969236 m 21.94001,-4.66996 h 0.35245 m 8.19446,0.08811 v 0.08811 m 10.83783,0.176223 c 0.0115,0.426201 0.35862,1.350236 0.44056,1.938474 0.0538,0.389106 -0.004,0.362231 0,0.704902 0.002,0.151287 0.11719,0.374212 0.14715,0.528673 -0.10735,0.666959 -0.1728,0.727813 -0.44066,0.995586 -0.14715,0.146971 -0.63607,0.543562 -0.94006,0.649209 -0.57714,0.200368 -1.4424,-0.448933 -1.57105,-1.028006 -0.0837,-0.374567 0.26875,-0.957255 0.52868,-1.204235 0.163,-0.154726 0.30046,-0.263632 0.51369,-0.367076 0.341,-0.165916 0.92078,0.06917 1.23358,0.190852 0.22909,0.08908 0.41785,0.153228 0.52887,0.234997 m -23.08566,-2.555263 0.0881,0.793012 0.10309,1.409799 0.0731,0.528675 0.1031,1.218861 1.04237,-0.234909 1.05734,-0.102826 m 12.60009,-3.612612 0.0291,0.528676 0.14715,0.969236 v 0.528675 l -0.88112,0.08811 m -39.82684,-2.026587 c -0.0603,0.774157 0.49134,1.87019 0.43944,2.463246 -0.0108,0.514182 0.33419,1.478817 0.35358,2.206714 m 7.13711,-3.965061 -0.32318,0.925279 c 0,0 -0.13122,0.343311 -0.24956,0.48452 -0.18153,0.216623 -0.75526,0.385369 -0.75526,0.385369 m 7.58398,1.905557 c 0.23614,0.282135 1.16044,0.689039 1.76225,0.323107 0.11102,-0.06732 0.19561,-0.19094 0.23526,-0.323107 0.14891,-0.503829 -0.18239,-0.878218 -0.58771,-1.218861 -0.56039,-0.471224 -1.34283,-0.379677 -1.64506,-1.248289 -0.13569,-0.39166 0.0212,-0.705164 0.32337,-0.954522 0.49696,-0.41078 1.19305,-0.210676 1.4098,0.337734 m -17.270043,0.08811 c -0.745432,-1.021665 -2.393134,-0.157721 -2.085622,1.145461 0.09428,0.396419 0.333065,0.890994 0.763934,0.998579 0.181514,0.04538 0.550703,-0.08838 0.704902,-0.0734 1.235839,0.165866 0.889557,1.234619 -0.352452,1.365744 -0.544534,0.05287 -0.776271,0.09331 -1.057349,-0.440562 m 34.54009,-3.348275 0.32899,0.848008 0.2878,0.47368 c 0.12071,-0.124062 0.23702,-0.228036 0.36742,-0.440563 0.22822,-0.373949 0.54983,-0.885531 1.13049,-0.793012 0.22997,0.03665 0.28724,0.162479 0.36743,0.35245 0.0793,0.188559 0.11014,0.32716 0.16124,0.440562 0.51105,-0.201602 0.63529,-0.802528 1.32169,-0.793012 1.01593,0.01409 0.72781,2.216997 0.61679,2.819599 m 7.44437,-1.314479 c 0.004,-0.117718 -0.0561,-0.421601 0.0602,-0.800221 0.10662,-0.350072 0.86527,-1.1474 1.37985,-0.602072 0.29341,0.310421 0.008,0.744023 -0.24936,0.925182 -0.17887,0.125735 -0.79301,0.352449 -0.79301,0.352449 l -0.39651,0.132167 c 0,0 -0.004,0.321523 0.0731,0.513962 0.12336,0.306277 0.33483,0.67221 0.58771,0.851782 0.50841,0.361262 1.16221,-0.184156 1.32169,-0.587446 m -15.86024,-2.290923 0.52867,2.1147 M 91.127218,82.800501 c 0.05463,-0.520568 0.303386,-0.81155 0.765096,-1.087076 0.226447,-0.135429 0.364786,-0.171995 0.616786,-0.16151 0.244071,0.01014 0.439681,0.06494 0.513695,0.35245 0.08635,0.335178 -0.311036,0.587003 -0.689921,0.734239 -0.191202,0.07419 -0.315441,0.146886 -0.528673,0.146886 -0.331774,0 -0.687011,0.03471 -0.687011,0.03471 0,0 -0.146364,0.256359 -0.106001,0.670192 0.125118,1.291289 2.192238,2.264753 2.643373,0.704899 m 1.625053,0.09367 c -0.224686,-0.501801 -0.242569,-0.997085 -0.552723,-1.855918 -0.06609,-0.181159 -0.17975,-0.412102 -0.05904,-0.616786 0.0978,-0.165829 0.198253,-0.165212 0.396506,-0.176226 0.436157,-0.02423 1.166607,0.01499 1.233572,0.616788 0.07137,0.645335 -0.165651,1.249435 -0.616786,1.674138 -0.148909,0.139922 -0.396506,0.352449 -0.396506,0.352449 0,0 0.0044,0.595816 0.04406,0.881125 0.04053,0.290243 0.256407,0.916016 0.264337,1.233573 m 43.175105,-4.758073 c -0.27843,0.391925 0.18328,2.554823 0.26434,2.995825 M 104.13995,81.93371 c 0.19208,-0.04793 0.52779,-0.04185 0.7049,0 0.20354,0.04811 0.40267,0.03824 0.6018,0.19094 0.17182,0.131375 0.17358,0.460828 0.22029,0.660845 0.0423,0.176575 0.0837,0.285219 0.015,0.44056 -0.10662,0.240813 -0.20971,0.289098 -0.27932,0.440562 -0.10838,0.237552 -0.26521,0.600752 -0.55775,0.690186 -0.22028,0.06741 -0.51722,0.02749 -0.7049,-0.05868 -0.18944,-0.08688 -0.28724,-0.158867 -0.44056,-0.293767 -0.15508,-0.136485 -0.21323,-0.244248 -0.29341,-0.425846 -0.27139,-0.610884 0.004,-1.462227 0.73397,-1.644797 m -20.970763,0.323109 c -0.18844,0.436289 0.813128,3.951908 1.571308,2.643373 0.166267,-0.294119 0.280022,-0.419767 0.367166,-0.704899 0.0548,-0.179485 0.0069,-0.274822 0,-0.440563 -0.0061,-0.145914 -0.03163,-0.306454 -0.08811,-0.440562 m 49.783539,-1.057349 v 1.233575 m 7.12311,-1.233772 0.54268,1.97e-4 m -0.52612,-0.0085 c 0,0.466291 0.26178,1.111116 0.26178,1.858838 v 1.145462 M 86.693678,82.609264 c 0.147323,0.559779 0.440563,1.053207 0.440563,1.586024 0,0.408313 -0.23676,1.004131 -0.704902,1.160176 -0.12089,0.04027 -0.22028,0.08521 -0.337733,0.02934 -0.342054,-0.162568 -0.715914,-0.964919 -0.983952,-1.189518 m 15.684016,-1.409798 c 0,0 0.58774,0.02932 0.88113,0.01471 0.29533,-0.01471 0.88112,-0.102829 0.88112,-0.102829 m 5.62697,-0.0053 c 0,0 1.13764,-0.05857 1.49516,0.210888 0.25713,0.193795 0.34688,0.548692 0.45554,0.851783 0.10109,0.281953 0.17623,0.881125 0.17623,0.881125 m 22.46316,-1.944193 c 0.22821,0.541803 0.16941,0.873449 0.35796,1.767967 M 105.67523,83.22051 c 0.33131,0.340555 0.40231,0.502335 0.66753,1.062906 m 7.48956,-0.528676 c -1.02203,1.328202 -2.04778,-0.07552 -1.95346,-0.793012 0.0361,-0.256407 -0.0511,-0.398532 0,-0.616786 0.11279,-0.47616 0.52404,-1.42991 1.33667,-1.189519 0.48257,0.14275 0.42118,0.762701 0.24936,1.101406 -0.3595,0.708775 -1.05862,0.608981 -1.5688,0.608981 m -32.163298,2.034392 c 0.942451,0.570442 2.302121,-0.394171 2.070644,-0.969236 -0.23443,-0.582396 -2.350576,-0.356239 -2.569977,-1.233575 -0.250062,-1.000254 0.563216,-2.14404 1.468572,-2.14404 0.323019,0 0.538014,0.133578 0.793012,0.38179 m 8.458795,3.348275 c -0.170057,0.418975 -0.546971,0.525176 -1.101406,0.264336 -0.482508,-0.227001 -0.608986,-1.263264 -0.539712,-1.319942 0,0 0.38111,-0.09682 0.583769,-0.192685 0.301345,-0.142388 0.787725,-0.418181 0.616789,-0.866409 -0.158603,-0.414128 -0.686397,-0.304604 -0.910204,0 -0.310156,0.421178 -0.295974,0.727478 -0.295974,1.057548 m 85.35358,7.665586 c 0.21764,-0.434571 0.50136,-0.924653 0.96924,-1.145462 0.60621,-0.286101 1.03179,0.08203 1.05735,0.704899 0.0379,0.918396 -0.14892,1.957506 -0.55775,2.907712 -0.13394,0.309892 -0.40532,0.776448 -0.51458,1.057349 -0.0996,0.256496 -0.36015,0.526907 -0.36015,0.683219 l 0.9038,-0.154543 0.88113,-0.08811 m -49.83302,-1.93808 c -0.0353,-0.44902 -0.16816,-1.250976 -0.24394,-1.674532 -0.0379,-0.208034 -0.0679,-0.285836 0.0441,-0.528673 0.0802,-0.176403 0.23878,-0.452017 0.42558,-0.587446 0.43351,-0.314123 1.51553,-0.527267 1.76225,0.146883 0.14538,0.397563 0.003,0.983158 -0.26434,1.409799 -0.18944,0.302753 -0.23614,0.571321 -0.45554,0.748955 -0.28901,0.234997 -1.26265,0.499333 -1.26265,0.499333 0,0 0.0255,0.378621 0.044,0.513962 0.0494,0.352889 0.16654,0.695735 0.17623,1.057349 m 43.16013,-0.35245 c 0.29694,0.375094 0.71723,0.719613 1.24855,0.7049 0.27667,-0.0077 0.41941,-0.05049 0.54365,-0.264337 0.24672,-0.428052 0.30135,-1.578889 0.24936,-2.1147 -0.0493,-0.504531 -0.22116,-1.114975 -0.54365,-1.497911 -0.19737,-0.235261 -0.41677,-0.505503 -0.61679,-0.690186 -0.32425,-0.300815 -1.40999,0.970285 -1.49517,2.035746 -0.0812,1.01542 0.32063,1.455533 0.61405,1.826488 z M 156.74308,90.09884 c -0.12601,0.435365 -0.14715,1.658895 -0.059,2.1147 0.0388,0.196755 0.059,0.304782 0.059,0.528674 0,0.217197 -0.003,0.334651 0,0.528675 0.005,0.391748 0.16301,1.119646 0.35245,1.497912 m -26.8743,0.440562 c -0.259,-0.698003 -0.36802,-1.310815 -0.5137,-1.938474 -0.0978,-0.525239 -0.0634,-0.993643 -0.16213,-1.497911 -0.0458,-0.23623 -0.0943,-0.558633 -0.11719,-0.793012 -0.0194,-0.198606 -0.11014,-0.399239 0.0291,-0.616789 0.13569,-0.211646 0.30927,-0.173581 0.4996,-0.176224 0.47492,-0.0066 1.09523,0.218872 1.48293,0.54339 0.69107,1.287737 0.26344,3.346746 -0.40391,4.353357 -0.14389,0.20723 -0.66153,0.367715 -0.66153,0.367715 m 28.92396,-5.235121 c 0.28108,-0.06635 0.41413,-0.09084 0.61679,0.01471 0.24847,0.129437 0.25993,0.277289 0.33747,0.396506 0.0529,0.08071 0.36831,0.483473 0.44056,0.616786 0.12335,0.226802 0.17182,0.468846 0.22028,0.704899 0.13217,0.631415 -0.14362,2.648486 -1.17454,2.848942 -0.39386,0.07666 -0.81063,-0.361878 -1.02827,-0.646129 -0.80799,-1.05832 -1.11286,-3.534279 0.58771,-3.93572 m -15.68402,4.376283 -0.23526,-1.057351 -0.0291,-0.35245 -0.0881,-0.969236 v -0.793012 l -0.003,-1.047295 0.88439,-0.09817 m 10.83784,0 v 0.969236 0.528676 l 0.17622,2.20281 m 22.29245,-3.700722 c 0.3877,0.03066 0.45026,0.08811 0.79302,0.08811 0.5692,0 1.27763,-0.132167 1.27763,-0.132167 0,0 -0.0837,0.398444 -0.13217,0.748956 -0.10662,0.768779 -0.17623,1.497911 -0.17623,1.497911 h 0.7049 m -40.53173,1.938474 c 0.21235,0.190235 0.42294,0.26284 0.79301,0.19094 0.43616,-0.08485 1.6715,-0.446994 1.48293,-1.160176 -0.25288,-0.958401 -1.70057,-0.459685 -2.26096,-1.057351 -0.37977,-0.405141 -0.4388,-1.295517 0.0731,-1.747534 0.44409,-0.391661 0.93047,-0.329716 1.4098,-0.102827 m 1.05735,0.08811 0.7049,-0.176226 0.61679,-0.08811 m -53.396153,0.176226 c -0.243269,1.006042 0.43005,2.571685 0.337476,3.348277 -0.0423,0.38188 0.32249,1.517299 0.367428,1.762251 m 8.194209,-0.793032 c -0.125119,-0.297469 -0.133931,-0.578282 -0.205302,-0.881126 -0.04141,-0.173668 -0.0511,-0.336589 -0.05903,-0.528673 -0.0079,-0.194729 -0.03789,-0.254116 -0.05903,-0.440562 -0.02468,-0.226979 -0.01763,-0.280462 -0.02908,-0.440563 0,-0.0029 -0.08371,-0.667012 -0.08811,-0.704899 -0.03437,-0.30672 -0.208829,-0.777504 -0.04406,-1.042635 0.353331,-0.568943 1.093588,-0.31741 1.453855,-0.01471 1.029147,0.864695 -0.639203,2.067056 -1.292115,2.118603 M 82.28805,92.037294 c 0.163625,-0.414479 0.282929,-0.500214 0.704899,-0.881125 0.173494,-0.156574 0.315354,-0.248651 0.528676,-0.367163 0.346457,-0.192439 0.757238,-0.23623 0.793012,0.279053 0.01539,0.212417 0.08172,0.865195 -0.0064,1.102986 -0.124524,0.448595 -0.900865,0.885626 -0.900865,0.885626 l 0.39809,-0.125945 c 0.831794,-0.140502 1.221953,0.173241 1.304157,0.809749 0.0979,0.757999 -0.104198,1.015353 -0.281041,1.292645 -0.135517,0.212614 -0.193141,0.400469 -0.425847,0.528673 -0.737881,0.275121 -1.291818,-0.09033 -1.586019,-0.881123 m 64.586428,-0.176226 c -0.16389,-0.03014 -0.42118,-0.08538 -0.61679,-0.08811 -0.13217,-0.0017 -0.52691,0.0712 -0.68992,-0.04406 -0.22204,-0.156664 -0.14891,-0.368309 -0.1912,-0.748955 -0.0326,-0.290418 -0.0555,-0.404259 -0.059,-0.616786 -0.004,-0.318791 -0.0291,-0.310422 -0.0291,-0.7049 0,-0.54251 -0.18856,-1.280276 0.10309,-1.57131 0.1824,-0.182393 0.41502,-0.102827 0.60181,-0.102827 0.47493,0 0.45378,-0.0069 0.96924,0.08811 m -62.295506,0.264337 c 0,0.460299 0.13622,1.225996 0.176223,1.586024 0.03481,0.313328 0.01171,0.683751 -0.01471,0.969236 -0.01039,0.11252 0.01269,0.207769 0.01471,0.352449 0.01279,0.480046 0.09739,0.832566 0.190945,1.321688 l 0.337736,1.762251 m 23.790362,-5.462973 0.35245,1.233573 v 0.528675 l 0.96923,-0.352449 m -30.927467,-1.321688 0.102827,0.969238 c 0.06499,0.27158 0.117781,0.551931 0.163563,0.837888 0.103139,0.644201 0.170736,1.316842 0.262286,1.981711 m 82.120821,-3.436385 h 0.96924 m -74.89559,1.145462 c 0.01673,0.130848 0.0088,0.216316 0.02908,0.352452 0.03613,0.236492 -0.007,0.349804 -0.02908,0.616786 -0.07049,0.841474 -0.878403,2.139327 -2.1147,0.660845 -0.601878,-0.719785 -0.432018,-0.859363 -0.440565,-1.013295 -0.110323,-1.018607 -0.04594,-2.027171 0.381792,-2.540546 0.20116,-0.22874 0.537837,-0.375888 0.851783,-0.367166 0.180629,0.005 0.543571,0.03739 0.837071,0.719571 0.380126,0.883538 0.436159,1.199696 0.484619,1.571353 z m 25.02394,-0.73424 c 0.32513,0.01806 0.40003,0.18345 0.49959,0.469903 0.12336,0.356151 0.2009,0.550438 0.20531,0.881125 0.005,0.366989 -0.0679,0.6508 -0.27932,0.969238 -0.19032,0.287775 -0.47933,0.550174 -0.86615,0.528674 -0.67141,-0.03736 -1.34459,-0.734417 -1.3067,-1.409799 0.0176,-0.320112 0.15419,-0.722083 0.35245,-0.969238 0.24847,-0.310244 0.62736,-0.436069 0.95425,-0.440563 0.14891,-0.002 0.26699,-0.03903 0.44057,-0.02934 m 1.85036,0.02934 0.23526,0.881126 0.24936,0.528675 0.044,0.264337 0.17623,0.793012 m -9.07558,0.35245 c 0.4432,0.408402 1.475,0.484883 1.64505,-0.08811 0.17887,-0.607093 -0.5974,-0.565856 -0.85204,-0.675557 -0.14451,-0.06203 -0.21059,-0.140894 -0.35245,-0.264339 -0.25024,-0.218519 -0.69433,-0.600134 -0.68992,-0.910465 0.0132,-0.964478 1.07144,-0.659699 1.3067,-0.264337 m 19.07586,-0.56199 c 0.57801,0.121772 0.91951,0.655213 1.04286,1.178776 0.0908,0.382849 0.26786,0.552114 0.059,0.969238 m -27.5792,-1.938473 0.3965,0.969235 0.13217,0.704899 0.14715,0.881126 0.0291,0.264339 m 76.56973,-2.819599 0.95287,-0.165384 c 0,0 -0.22506,0.490958 -0.24797,1.046506 -0.0256,0.604365 -0.0872,0.926945 -0.17623,1.409801 m -77.43299,-1.370772 c 0.41501,-0.450254 0.83154,-1.251631 1.56816,-0.215252 m 1.22825,0.31953 c 0.0335,-0.182393 -0.0467,-0.436809 0.18155,-0.67198 0.18944,-0.195523 0.69168,-0.466733 0.82209,-0.08811 0.0996,0.289186 -0.3172,0.524622 -0.55775,0.631503 -0.215,0.09551 -0.44056,0.132167 -0.44056,0.132167 0,0 -0.0952,0.502539 -0.0767,0.690485 0.0493,0.511491 0.24497,0.729006 0.60535,0.954222 0.51986,0.325135 0.81328,0.203805 1.23357,-0.205566 m 10.25062,-1.374674 c 0.0819,-0.08194 0.29469,-0.273823 0.41099,-0.387574 0.17535,-0.171733 0.23703,-0.265483 0.44056,-0.367166 0.58067,-0.29033 1.05471,0.151554 1.32169,0.631502 0.0793,0.143007 0.1683,0.202659 0.2053,0.35245 0.0661,0.26328 -0.0176,0.369104 0.0881,0.793012 0.10133,0.404878 0.20794,0.416243 0.059,0.793012 m 27.17708,-2.56078 1.54758,0.09363 m 18.50362,0.440562 c 0.0652,0.352804 0.17358,0.791691 0.61679,1.013295 0.76393,0.38188 1.92879,-0.442478 1.72825,-1.376327 -0.11568,-0.538686 -0.19509,-0.697489 -0.58279,-0.855826 -0.28196,-0.115076 -0.845,-0.02158 -1.05735,-0.146884 -0.40708,-0.240194 -0.2705,-0.786316 -0.36743,-1.365744 -0.0529,-0.320287 -0.17182,-0.692123 0.03,-0.837069 0.15772,-0.113839 0.26786,-0.04405 0.42559,-0.04405 h 0.70489 m -57.62555,3.436386 0.27006,-0.07727 m -0.008,0.0083 0.11975,0.509556 0.17623,0.704899 0.0881,0.528676 0.14715,0.264337 m 49.5192,1.674137 h 0.0881 m -34.89253,5.198634 c 0.35333,-0.38346 1.09876,-1.17718 1.57104,-0.83707 0.2617,0.18812 0.0652,0.86756 0.03,1.10141 -0.0273,0.17966 0.003,0.25746 -0.015,0.44056 -0.0361,0.36893 -0.15684,0.98228 -0.27932,1.32169 -0.13834,0.38337 -0.2846,0.81812 -0.44056,1.23357 -0.0855,0.22768 -0.22821,0.41078 -0.11719,0.61679 0.0969,0.18019 0.40267,0.0941 0.57273,0.0588 0.51898,-0.10812 0.89698,-0.0588 1.32168,-0.0588 m -17.79889,-4.40565 c -0.74329,0.93582 -0.942,1.84278 -1.39482,2.81959 l -0.89611,1.85037 m 25.37639,-4.20006 c 0.32426,-0.25843 0.79037,-0.43757 1.14546,-0.19085 0.22117,0.15349 0.3551,0.31236 0.52868,0.51396 0.22204,0.2579 0.33483,0.65071 0.41149,0.96924 0.0335,0.14018 0.0273,0.19754 0.0291,0.35245 0.004,0.30037 0,0.63176 0,1.05734 0,0.43942 0.067,0.99321 -0.13217,1.32169 -0.13745,0.22689 -0.4062,0.38408 -0.66084,0.44056 -0.15155,0.0336 -0.20354,0.10257 -0.35245,0.0881 -0.16477,-0.016 -0.19737,-0.10423 -0.35245,-0.17622 -0.50753,-0.23517 -0.87936,-0.70701 -1.05735,-1.23357 -0.29767,-0.87188 -0.19136,-2.59417 0.44056,-3.14271 z m -29.34145,-0.11745 0.92518,-0.16156 c 0.64058,-0.15944 0.83355,-0.0888 1.36575,-0.10278 m 1.4098,0.17622 c 1.25624,0.46581 1.39918,1.55432 1.8063,2.21753 0.0317,0.0445 0.13481,0.29791 0.14715,0.33773 0.1683,0.56895 0.29077,1.02651 0.5137,1.49792 m 19.29663,-3.96506 -0.0881,1.05734 -0.044,0.69019 0.74895,0.10283 h 0.96924 l -0.0881,-0.7049 -0.0881,-1.14546 m -13.92176,0.17622 c 0.42382,0 1.21859,-0.1134 1.67413,-0.0881 0.14803,0.008 0.3084,0.005 0.36743,0.17622 0.0767,0.22275 -0.1304,0.48471 -0.17622,0.70491 -0.1031,0.49193 -0.19121,1.07867 -0.19121,1.32168 h 0.61679 m 2.29092,2.29093 c 0.40003,0.16864 0.41149,0.0371 0.79302,0 0.43792,-0.0427 0.73309,0.0544 0.96923,-0.35245 0.13305,-0.23007 0.25112,-0.50436 0.16125,-0.79302 -0.1119,-0.36249 -0.72517,-0.60357 -1.04237,-0.61678 -0.14539,-0.006 -0.60736,-0.0441 -0.60736,-0.0441 0,0 -0.0491,-0.20266 -0.12662,-0.39651 -0.17534,-0.43386 -0.7093,-1.62559 -0.30839,-2.1147 0.2846,-0.34786 0.78508,-0.17622 1.13048,-0.17622 m -17.52334,-0.26237 0.34141,2.11273 0.44056,2.1147 m -24.671588,-3.56856 c 0.189971,-0.10053 0.3417,-0.0441 0.528676,-0.0441 0.163887,0 0.440914,-0.0244 0.616786,0.0293 0.948178,0.28972 1.06898,1.335 1.057351,2.17348 -0.0086,0.62225 -0.116839,1.75528 -0.704902,2.07064 -0.189353,0.10159 -0.433072,0.11428 -0.616786,0.13217 -0.205126,0.0199 -0.450078,0.0433 -0.587446,-0.10283 -0.119039,-0.12662 -0.09525,-0.26619 -0.117453,-0.42585 -0.09772,-0.7034 -0.25209,-1.65669 -0.352449,-2.37903 -0.02793,-0.20116 -0.08556,-0.5181 -0.08811,-0.7049 -0.0035,-0.25253 -0.104591,-0.5537 0.264336,-0.74896 m 7.577672,0.0441 c 0,0.38126 0.151554,0.76808 0.293415,1.23358 0.229973,0.75248 0.52603,1.76921 0.587711,2.55526 m -2.555263,-3.70073 c 0,1.19851 0.617758,2.76392 0.969238,3.87695 m 7.577672,0.26434 c 0.411485,0 0.449372,-0.021 0.793013,-0.0734 0.258169,-0.0396 0.901388,0.0306 0.778031,-0.45528 -0.135692,-0.53555 -0.890816,-0.83451 -1.306707,-1.04263 -0.271388,-0.13579 -0.659082,-0.21711 -0.704899,-0.6315 -0.05816,-0.52718 0.383288,-0.79399 0.793012,-0.82236 0.389458,-0.0271 0.568324,0.12494 0.704899,0.46991 m -3.502421,1.47031 c -0.163009,0.22927 -0.205352,0.44393 -0.447661,0.90872 -0.154197,0.29606 -0.469638,0.70878 -0.896104,0.60208 -1.089069,-0.27218 -1.322567,-2.65765 -0.35245,-3.14263 0.253764,-0.12714 0.521628,-0.0522 0.7049,0.0293 0.185037,0.0822 0.385933,0.0555 0.60181,0.3084 0.200014,0.23358 0.270503,0.56753 0.352449,0.96923 0.02555,0.1238 -0.01499,0.20848 0.05903,0.33774 0.104853,0.18283 0.192084,0.149 0.279315,0.27905 0.133052,0.19958 0.340996,0.57 0.557754,0.79301 m 37.089629,-2.90791 c 0,0.48348 0.18194,1.39564 0.18194,2.02679 m -45.025465,-0.17622 c -0.113577,0.12336 -0.210237,0.23579 -0.35245,0.44056 -0.215522,0.31033 -0.719878,0.80473 -1.233575,0.48462 -0.325135,-0.20266 -0.641987,-0.70825 -0.587446,-1.10141 0.05763,-0.41448 0.216669,-0.85495 0.587446,-1.11612 0.274825,-0.19349 0.594143,-0.28196 0.881126,-0.24962 0.31368,0.0353 0.580662,0.60022 0.616786,0.92518 0.02141,0.19279 -0.01499,0.35183 0.0734,0.52868 0.186092,0.37218 0.247507,0.29156 0.396506,0.61678 0.05965,0.13006 0.18583,0.36276 0.234996,0.44057 m 30.134466,-2.46715 0.96923,0.17622 0.7049,-0.0881 m -0.004,0.0279 c 0,0.50797 -0.34795,1.04944 -0.34795,1.82245 m -17.27006,-0.0881 c 0.0123,0.46963 0.14627,0.34275 0.19121,0.88112 0.0449,0.54674 -0.26346,0.6048 -0.71988,0.61679"
       id="path125"
       sodipodi:nodetypes="ccssccccsscccsccsscccsccsssscccsccccccccsccccccccccscccccsssssccccccscccsscsccccccsscccccccccccsccccccccscscscccccsscccccccccccsscccsccsccscscsccccccsccccccccsccscsccccccccccccccscsccccccccccccccccccccccccccccccsccccccccscscccccccccccccccccscccccsccccccccscccsccccccsscsccccccccccscccccccccccccsccccccccccccccccccccccccccccccccccccccccccccccccccccccccccscccccccccccccccccccccccccccccccccccccccsccccccsccccccccccccccccccccccccccccsccsccccsccssccccccccscccscsccsccccccscccccccccccccccccsccccscccscccccccccccccccccccccccccccccccscccccccccccccccccccccccsccccccccsccccccccscscccccccccccccsccccccsccssccccccccccccccccccccccccccccccccccccccccccccccccccccccscsccsccccccccccccccsscccccccccccscccccccccccccccccccccccccccccccccccccccscsccccccccccccccccccccccccccccccccscccccccccccccccc" /></g></svg>
