<?xml version="1.0" encoding="UTF-8" standalone="no"?>
<!-- Created with Inkscape (http://www.inkscape.org/) -->

<svg
   width="3000"
   height="1998.207"
   viewBox="0 0 793.74998 528.69227"
   version="1.1"
   id="svg5"
   xml:space="preserve"
   inkscape:version="1.2.1 (9c6d41e410, 2022-07-14)"
   sodipodi:docname="SavvS - Stake - Envelope69.svg"
   xmlns:inkscape="http://www.inkscape.org/namespaces/inkscape"
   xmlns:sodipodi="http://sodipodi.sourceforge.net/DTD/sodipodi-0.dtd"
   xmlns="http://www.w3.org/2000/svg"
   xmlns:svg="http://www.w3.org/2000/svg"><sodipodi:namedview
     id="namedview7"
     pagecolor="#ffffff"
     bordercolor="#000000"
     borderopacity="0.25"
     inkscape:showpageshadow="2"
     inkscape:pageopacity="0.0"
     inkscape:pagecheckerboard="0"
     inkscape:deskcolor="#d1d1d1"
     inkscape:document-units="px"
     showgrid="false"
     inkscape:zoom="0.2102413"
     inkscape:cx="1412.6625"
     inkscape:cy="568.39451"
     inkscape:window-width="1920"
     inkscape:window-height="1058"
     inkscape:window-x="-6"
     inkscape:window-y="-6"
     inkscape:window-maximized="1"
     inkscape:current-layer="layer1" /><defs
     id="defs2" /><g
     inkscape:label="Layer 1"
     inkscape:groupmode="layer"
     id="layer1"><path
       style="fill:none;stroke:#4c434b;stroke-width:0.0931212"
       d="m 2.605764,54.047105 c 0.6284878,0.426413 1.3403818,1.189366 1.9555441,0.651848 0.2569662,-0.224533 0.4656062,-0.574726 0.4656062,-0.931212 0,-0.551836 -0.3093017,-1.088074 -0.8380907,-1.117454 -0.2574166,-0.01431 -0.7094674,0.19883 -0.9312125,0.0776 -1.0216212,-0.558538 -0.01418,-2.325952 0.744969,-2.405628 0.5672015,-0.05953 0.7161386,0.416801 0.8380906,0.838091 m 1.7693032,-0.465606 c 0,0.507371 0.015703,0.889241 0,1.396818 -0.027093,0.875801 0.2951047,1.959094 -2.7e-6,2.700514 M 42.647867,54.419589 c -0.348923,0.348962 -0.726156,0.931289 -1.396816,0.651848 -2.176892,-0.907035 -1.128909,-4.552806 0.838091,-4.190453 m 8.846513,0 c 0.311505,1.298365 0.29788,2.686433 0.553683,4.001999 m -0.09175,-0.682669 c -0.09815,0.21417 -0.36612,0.494447 -0.555056,0.607283 -0.501371,0.29943 -1.109609,0.06216 -1.381266,-0.481129 -0.21788,-0.435735 -0.03272,-0.916643 0.201699,-1.303697 0.134337,-0.2218 0.337472,-0.480464 0.620839,-0.527689 0.544107,-0.09068 0.808022,0.0046 0.941903,0.260256 m 1.944853,-1.874354 0.279365,0.186243 M 11.63851,50.974105 c 0.215267,1.564918 0.37976,2.822735 0.744969,4.283575 m 1.024334,-3.072999 c -3.13475,2.676722 0.155664,1.654695 0.744969,2.514272 m 10.429572,-0.372485 c -0.328719,0.450437 -0.842375,0.568403 -1.303697,0.356961 -0.262044,-0.120098 -0.409661,-0.192993 -0.651847,-0.450082 -0.919036,-0.975584 -0.624007,-2.984506 0.93121,-3.243718 0.306089,-0.05101 0.459833,-0.04247 0.744969,0.0776 m 7.635938,-0.09312 c 0.728637,1.488152 0.730157,1.80302 0.744969,3.352362 m -0.02201,-0.953657 c 0.20753,-0.488065 0.987748,-1.276855 1.605085,-1.063971 0.788299,0.271838 0.465603,2.207856 0.465603,2.855719 m 20.672904,-3.91109 0.279363,2.048666 c 0.131719,0.96595 0.460858,1.958464 0.465598,2.700515 M 10.308325,53.310366 c -0.262124,0.474376 -0.7736576,1.282604 -1.2772088,1.295466 -0.2981708,0.0076 -0.639309,-0.301674 -0.80708,-0.558727 -0.1503313,-0.230333 -0.2140003,-0.699322 -0.2172516,-0.931212 -0.00238,-0.169881 -0.033886,-0.290059 0.046561,-0.465606 0.2124173,-0.463525 0.699712,-0.768194 1.257136,-0.74497 0.2690258,0.01121 0.5131952,-0.03958 0.6362969,0.279364 0.2427906,0.629039 0.7438096,2.587785 1.0398816,2.793635 m 35.280766,-1.362534 c 0.06602,-0.06447 0.784416,-0.435012 1.036495,-0.624048 0.237187,-0.177861 0.386174,-0.534366 0.232805,-0.807053 -0.189968,-0.337732 -0.596713,-0.28527 -0.79153,-0.06208 -0.771497,0.883838 -0.612817,2.829472 0.465604,3.104046 0.487734,0.12418 0.865749,-0.639054 1.117456,-0.993296 m -33.490195,-0.7198 c 0.580263,-0.340543 1.027737,0.06435 1.208154,-0.86326 0.03985,-0.204869 0.129267,-0.621167 -0.217252,-0.605288 -0.772033,0.03538 -1.061809,1.174314 -0.96222,1.722742 0.06212,0.342123 0.191916,0.598265 0.496614,0.822567 0.4182,0.307857 0.833434,0.166753 1.210575,-0.170719 m 12.850723,0.651848 c 0.437575,0.426086 0.939033,0.465606 1.583059,0.465606 0.438883,0 0.935328,-0.107477 0.713961,-0.744969 -0.245263,-0.706312 -1.304431,-0.735104 -1.831414,-1.086417 -0.218825,-0.14588 -0.452886,-0.284511 -0.465606,-0.589764 -0.0425,-1.019815 1.29634,-1.290678 1.676181,-0.651849 m 12.581451,1.283243 c -0.143969,-0.94455 1.055641,-1.711276 1.572969,-1.376364 m -17.31687,1.203235 c -0.147504,0.151527 -0.262675,0.307505 -0.484826,0.566068 -0.494135,0.575132 -1.466009,0.669169 -1.908986,0 -0.513471,-0.775672 0.472034,-2.054833 1.365808,-1.831387 0.816956,0.204241 0.854378,0.574428 1.055343,1.27266 0.134356,0.466803 0.130573,0.590549 0.527717,0.931212 M 5.6787535,52.650287 c 0.7947655,-0.06968 1.7529536,-0.31956 2.2735307,0.03603 m 44.9389088,-0.03603 c 0.144617,0.7849 0.424634,1.804325 0.651848,2.42115 M 43.113468,52.836529 c 0.514973,0.73407 0.658758,0.92256 0.838091,1.862424 m 10.708938,-0.651848 c 0.994981,-0.10512 1.58416,-0.04683 2.51428,-0.279364 M 2.6988752,63.266102 c 0.4025449,0.391947 0.7647943,0.506311 1.303697,0.558727 0.3476389,0.03381 0.6809638,0.02112 0.9312124,-0.201794 C 5.1729889,63.409958 5.2027568,63.136259 5.1976261,62.800496 5.1779448,61.512536 3.695482,61.892378 3.4593679,61.54336 3.1344242,61.063036 2.9424394,60.33085 3.1644814,59.727497 3.3182551,59.30965 3.5560849,59.861591 4.0956939,59.634377 m 4.3145832,4.283574 C 8.2988826,64.210385 8.1700262,64.422295 7.8205411,64.538789 7.443688,64.66441 7.1473098,64.436639 6.8893286,64.197314 6.6533379,63.978389 6.2689219,63.371449 6.2219577,63.07986 5.6078933,59.267297 9.5925472,60.814231 8.4102771,63.917951 Z m 4.9975439,0 c 0.100011,0.950302 1.955377,0.282159 2.002105,-0.558727 0.07358,-1.324182 -1.128371,-0.5786 -1.61407,-1.133005 -0.311299,-0.355335 -0.416718,-1.359839 -0.357027,-1.753752 0.04887,-0.322526 0.520083,-0.196206 0.900202,-0.186242 m -4.4698162,0.186242 1.3968182,-0.03101 c 1.18684,-0.02635 -0.02199,2.406616 -0.186243,3.290251 m 21.231629,-2.32803 c 0.200118,-0.507045 0.664884,-0.963736 1.210575,-1.024333 0.245092,-0.02722 0.371563,-0.03205 0.558728,0.04656 0.14984,0.06293 0.174286,0.240623 0.170691,0.325924 -0.01315,0.312047 -0.277702,0.663386 -0.419045,0.931212 -0.220061,0.416987 -0.592833,1.199952 -0.744969,1.676181 -0.06661,0.208491 -0.195828,0.55025 -0.07757,0.729418 0.09853,0.14927 0.298637,0.118718 0.419045,0.108673 0.38077,-0.03177 0.823377,-0.261857 1.210575,-0.465606 M 41.9029,63.079859 c -0.01278,0.316443 -0.139802,0.912783 -0.465606,0.931211 -2.127901,0.120361 -1.968101,-3.157939 -0.853662,-3.522858 0.990076,-0.324198 1.343402,1.994297 1.319268,2.591647 z m 7.822179,-2.700515 c -0.328997,0.199093 -0.457981,0.218961 -0.93121,0.186242 -0.92908,-0.06424 -0.587281,1.344265 -0.263813,1.443379 0.85087,0.260714 1.882843,0.517309 1.924441,1.536499 0.02326,0.569948 -0.703064,0.465606 -1.101903,0.465606 -0.411221,0 -0.722154,-0.133908 -1.024331,-0.372484 M 26.91039,60.472466 c 0.06189,0.870559 0.539293,1.417956 0.558729,2.234909 0.0079,0.333032 -0.0137,0.647283 -0.12413,0.931212 -0.2898,0.745153 -1.075335,0.435504 -1.44338,0 C 25.664085,63.357524 25.433218,63.114032 25.28077,62.800496 25.116232,62.46209 25.21633,62.2779 25.141087,61.869284 m 13.425004,0.186243 c -0.06172,0.84222 -0.684721,2.009933 -1.691734,1.939993 -0.80438,-0.05587 -1.317199,-0.927766 -1.195022,-1.66063 0.108458,-1.409454 3.002859,-1.863622 2.886756,-0.279363 z M 23.464909,60.75183 c -0.255712,0.88344 -0.43359,2.585357 0.558725,3.08855 0.432719,0.219427 0.629624,-0.114612 0.853643,-0.481157 0.153309,-0.250848 0.307285,-0.458274 0.393267,-0.613536 m -14.749479,-0.69016 c 0.531471,0.02255 1.055893,-0.02525 1.583059,-0.09312 M 3.8163392,72.298858 C 3.6516167,72.745931 3.2742262,73.304609 2.7920049,73.431861 2.3895482,73.538063 2.1312299,73.339114 1.8763163,72.950705 1.1908346,71.906241 1.1012012,70.27548 2.2332795,69.644903 2.7328381,69.366646 3.255832,69.524405 3.5369738,69.598342 m 16.2030852,0.09312 c 0,0.548856 0.157595,1.038417 0.217254,1.583059 0.161779,1.47693 0.02508,2.082193 0.11147,2.425337 m -0.02936,-0.345003 c 0.189409,0.622331 0.999221,0.543854 1.376818,0.449491 0.348282,-0.08704 0.850349,-0.26137 0.993324,-0.6674 0.272159,-0.772886 -0.288198,-2.040897 -1.272687,-1.753753 -0.360276,0.105082 -0.928015,0.297624 -1.149831,0.408532 M 9.1242459,69.877705 c 0.2915006,1.241617 0.4131739,2.483232 0.3724844,3.72485 M 56.895411,70.436433 c 0.359542,-0.208219 0.588997,-0.470606 1.024334,-0.543175 0.564039,-0.09403 1.123517,0.273558 1.210576,0.822537 0.144507,0.911249 -1.725066,3.34776 -1.520949,3.911091 0.181286,0.500326 1.139983,-0.03083 1.334705,-0.155233 0.244902,-0.156455 0.328906,-0.181307 0.465606,-0.217251 m 2.23491,-3.973202 c 0.463742,-0.09014 0.735891,0.439091 0.900201,0.807083 0.341696,0.76527 0.228265,1.707865 0,2.514272 -0.107539,0.379912 -0.237875,0.912676 -0.620839,1.008781 -0.528425,0.132606 -1.148461,-0.345916 -1.412369,-0.822541 -0.391139,-0.706406 -0.237872,-1.677889 0.07766,-2.42115 0.197293,-0.464732 0.571671,-0.992392 1.055343,-1.086445 M 49.16635,70.436433 c -0.194157,0.434131 -0.255653,1.141751 -0.341476,1.583059 -0.03151,0.162025 -0.109105,0.437497 0.07766,0.512167 0.47896,0.191486 1.600317,0.03099 1.94877,-0.25734 M 50.56317,70.622676 c 0.47871,1.233738 0.159354,2.668877 0.465606,3.817969 m 13.036967,-4.004212 c 0.01552,1.648029 0.336149,3.135718 0.558728,3.91109 M 52.425595,70.622676 c 0.690682,0.150704 1.322695,-0.01288 2.002105,-0.139682 0.2719,-0.05075 -0.220226,1.06689 -0.325924,1.536498 -0.170962,0.759585 -0.18624,1.331429 -0.18624,2.141788 M 41.71666,70.715795 c 0,0 0.01037,0.372485 0.01555,0.558728 0.03231,1.161227 1.505538,3.202608 0.434503,2.871207 -1.69448,-0.524307 -2.735219,-3.910215 -2.696044,-2.9188 0.0523,1.323439 0.05099,0.964631 0.104203,1.444412 0.0692,0.623928 0.279362,1.862422 0.279362,1.862422 m -2.42115,-3.724847 c 0.401656,1.189004 0.824996,2.928529 0.558728,4.004213 M 6.7962174,70.93305 c 0.754931,-0.14676 1.0541861,0.34259 1.1174533,0.993323 0.048805,0.502015 -0.1964099,1.399894 -0.7449688,1.567507 C 6.4601064,73.710392 5.6985324,72.998754 5.5235576,72.298858 5.2935485,71.378819 6.0699927,71.074313 6.7962174,70.93305 m 8.0084196,2.855745 c 0.23319,-1.233196 -0.187821,-1.789211 -0.459182,-2.458102 m 0.475197,1.231956 c 0.08545,-0.602251 0.332631,-1.473662 0.822076,-1.241565 0.399247,0.189324 0.739322,2.543586 0.75566,2.16702 0.03426,-0.789621 0.530432,-2.874695 1.479249,-2.353263 0.210449,0.115654 0.259084,0.396695 0.279363,0.605289 0.04388,0.451354 0.0049,1.441064 0.0049,1.905179 m 9.307236,0.422849 c 0.453128,0.637788 2.31833,0.898811 2.141787,-0.372484 -0.107476,-0.773926 -1.413261,-0.822055 -1.645173,-1.489938 -0.365925,-1.053835 0.871614,-1.208991 1.45893,-0.838091 M 10.800428,71.181402 c -0.09117,0.577538 0.005,1.174443 0.186241,1.676181 0.114923,0.318195 0.365386,0.794642 0.744971,0.744972 0.541625,-0.07088 0.915555,-0.668237 1.076545,-1.050288 m -0.145335,-1.0915 c 0.08116,1.003159 0.239426,1.912766 0.744972,2.234907 m 10.243327,-2.234907 c 0,0.777653 0.01961,2.417215 1.024335,2.638402 1.007495,0.221797 0.945208,-2.30353 0.992574,-1.947805 0.09409,0.706626 0.128796,1.796959 0.776726,1.823675 0.35458,0.01462 0.658043,-1.478872 0.714753,-2.197395 m 25.917905,0.800576 c 0.789923,0.02273 1.579177,-0.06586 2.23491,-0.09312 m -22.907811,1.48994 c -0.181284,0.53599 0.605978,0.975289 0.372484,1.396816 -0.204573,0.369322 -0.870402,0.506766 -1.210575,0.372484 m 40.507715,11.826395 c 0.630862,0.543186 1.107977,0.643799 1.769303,0.450053 0.460314,-0.134855 1.143201,-0.679888 0.993324,-1.288144 -0.18834,-0.764352 -1.683631,-0.496709 -2.203899,-0.760522 -0.513099,-0.26018 -0.838658,-0.983683 -0.838091,-1.474387 0.0016,-1.459587 2.067912,-2.179828 2.700513,-1.210578 m 20.766023,-0.186241 c 0.311997,1.683702 0.737885,3.044619 1.117456,4.562938 l 0.09312,0.372484 m 4.842306,-4.935422 0.34175,1.676181 c 0.26083,1.27927 0.38301,2.020551 0.58946,3.259241 m 1.02433,-3.259241 c -2.17067,2.070158 -1.35939,1.213168 0.46561,2.886757 m 15.55123,-4.283575 c 0.28075,1.556679 -0.39989,4.643386 0.65185,4.593954 0.27925,-0.01312 0.83809,-0.03101 0.83809,-0.03101 m 1.67618,-4.376697 h 0.37249 m 16.38933,0.465601 c 0.33107,1.334221 0.31561,2.243327 0.31009,3.445484 -0.002,0.544566 -0.0654,1.382232 0.12442,1.743791 m -0.0597,-0.230978 c -0.56991,0.537682 -1.32884,0.208987 -1.74091,-0.302238 -0.61505,-0.763053 0.0156,-1.661531 0.62112,-1.676181 0.13219,-0.0032 0.36038,0.08846 0.4656,0.139682 0.25515,0.124223 0.34734,0.18829 0.55873,0.232802 m -2.42346,0.988501 c -0.16948,0.134839 -0.38788,0.434986 -0.64954,0.485887 -0.36784,0.07156 -0.63719,-0.0021 -0.93121,-0.170691 -1.34244,-0.770288 -0.98162,-2.063144 0,-2.560833 0.11518,-0.0584 0.32406,-0.133785 0.4656,-0.139682 0.22257,-0.0093 0.54675,-0.0052 0.46561,0.186243 -0.39444,0.930442 -1.21712,1.133125 -1.78419,1.458787 m -2.77875,-3.22809 c -0.38616,1.09717 0.12869,3.211136 0.55873,4.190453 m -40.228339,-1.02433 c 0.630429,0.570284 0.786979,0.661851 1.489938,0.651847 0.276567,-0.0039 0.984114,-0.202884 0.915382,-0.651847 -0.04767,-0.311371 -0.492504,-0.492776 -0.729139,-0.620839 -0.847289,-0.458537 -1.494881,-0.701217 -1.396818,-1.614071 0.08324,-0.774849 1.464795,-1.15582 1.489938,-0.186243 M 79.896344,84.683975 c 0.192629,0.887001 0.767115,2.179165 0.294915,2.979878 -0.28045,0.475558 -0.909058,-0.04162 -1.226128,-0.372484 -0.532566,-0.55574 -0.651847,-0.470168 -0.651847,-1.210576 m 3.365419,0.671019 c 0.420328,-0.282253 1.301841,-1.144045 1.057836,-1.602231 -0.292096,-0.548491 -1.047275,-0.339449 -1.226125,0.186243 -0.335638,0.986537 0.539503,2.376984 1.272686,2.421151 0.43019,0.02592 0.530418,-0.242767 0.838091,-0.558728 m 5.198121,0.860992 c 0.675593,0.177768 1.43574,-0.8893 1.739409,-1.699083 0.06369,-0.169854 0.09559,-0.371745 0.124129,-0.558728 0.03619,-0.237091 0.09879,-0.618487 -0.17069,-0.822538 -0.423377,-0.320586 -2.136508,-0.22295 -2.126238,0.07757 0.06527,1.909931 0.566059,3.549949 1.101904,5.401031 m 15.548494,-3.683014 c 0.48543,-0.357736 2.12421,-0.776285 1.881,-1.624895 -0.10486,-0.365875 -0.72267,-0.490583 -1.04017,-0.356934 -1.11405,0.468945 -1.09921,1.376583 -0.71424,2.312481 0.33697,0.616248 0.95745,1.118047 1.55234,1.008781 0.42929,-0.08352 0.44791,-0.245839 0.74496,-0.543175 M 84.618469,86.807929 c 0.442791,-0.221441 1.866801,-1.192359 1.284192,-1.75147 -0.92886,-0.891396 -1.70466,0.880077 -1.241586,1.862425 0.374536,0.794526 1.196142,0.744969 1.753751,0.744969 m 22.442204,1.024334 c 0.26167,0.07571 0.60995,0.204679 0.93121,0.09312 0.70772,-0.245842 1.25249,-1.155662 0.27937,-1.412369 v 0 c -0.28215,-0.07443 -0.73006,-0.06931 -1.02434,-0.15514 v 0 c -0.29891,-0.08719 -0.60296,-0.281807 -0.72914,-0.574279 v 0 c -0.30346,-0.703439 -0.0993,-1.549939 0.63602,-1.676184 v 0 c 0.57655,-0.09899 0.74497,0.05988 0.74497,0.65185 v 0 m -9.34101,0.858332 c -0.15101,0.451349 -0.754891,1.044746 -1.328995,1.234282 -0.177944,0.05875 -0.413446,0.05624 -0.558725,-0.06211 -0.50608,-0.412304 -0.773939,-1.231817 -0.605289,-1.862425 0.0918,-0.343256 0.442879,-0.619364 0.79153,-0.713958 0.33091,-0.08978 1.102209,-0.205775 1.287867,0.186241 0.444872,0.939347 0.503382,2.466948 1.373722,2.780792 M 76.35774,85.242703 c 0.112676,0.611806 0.429652,2.686509 1.210575,2.809187 0.345938,0.05434 0.464413,-0.532648 0.527718,-0.760521 0.07228,-0.260176 0.205953,-0.493458 0.294326,-0.63947 m 44.527971,-1.409196 c 0,0 0.0243,0.937526 0.10895,1.396818 0.0762,0.413714 0.35666,1.210575 0.35666,1.210575 M 97.216885,85.428944 c -0.751945,0.361738 -1.972496,0.209974 -2.733817,0.444227 m 30.150872,-0.288712 c 0.33686,0.395233 0.64819,0.858057 0.69857,1.371486 0.0465,0.47405 0.13952,1.422151 0.13952,1.422151 m -0.11442,-1.161303 c 0.0902,-0.679719 0.66621,-2.157412 1.04564,-1.725456 0.62917,0.716294 0.86496,1.613751 0.63077,2.716449 -0.006,0.02786 0.69807,-3.7058 1.1227,-2.033591 0.16476,0.648872 0.33698,1.184089 0.40414,1.831417 0.0258,0.248323 0.0773,0.744969 0.0773,0.744969 m 1.26426,-2.762909 c 0.19316,0.741012 0.33658,1.473416 0.37248,2.234909 m 2.88676,-2.234909 c -0.66675,0.456481 -1.59858,0.343123 -2.25881,0.343123 m -0.62795,1.891786 v 0.186243 m -47.584922,4.656057 c -0.146817,1.633272 0.27094,2.788826 0.838091,3.817969 m 7.606215,-1.172881 c 0.755451,-0.184369 1.625854,-1.65239 1.379981,-2.179481 -0.137867,-0.295555 -1.67794,-0.83585 -1.691735,-0.186241 -0.0278,1.309235 0.387959,2.906049 0.900205,4.097331 M 77.9408,93.251125 c 0,0 0.35181,1.55202 0.527717,2.328028 0.124618,0.549756 0.151933,1.116474 0.217252,1.676182 m 24.604141,-4.045734 c -0.0598,0.707372 0.13335,1.16697 0.3216,1.810827 0.28671,0.980561 0.39103,2.106279 0.68259,3.072997 M 72.446649,93.344247 c 0.06353,0.966626 0.05134,1.954432 0.310374,2.886756 l 0.155233,0.558728 m 1.058729,-2.550974 c 0.186988,-0.186988 0.331242,-0.33867 0.558728,-0.496616 0.329101,-0.228505 1.120225,-0.700248 1.365808,-0.248355 0.48927,0.900299 -0.552736,2.178112 -0.807072,2.421153 M 75.468775,95.437 c 0.591439,-0.228312 1.791532,0.359941 1.249286,1.316029 -0.154507,0.272429 -0.326868,0.333877 -0.605289,0.403493 -0.428836,0.10722 -0.919851,-0.101223 -1.210575,-0.12413 m 6.1116,-3.408783 c 0.238678,0.208396 0.250334,0.300172 0.372487,0.558728 0.841897,1.782029 -0.949817,3.739997 -2.110779,1.769304 -0.479734,-0.814332 -0.154114,-2.242636 0.807082,-2.576386 0.277035,-0.09619 0.810256,0.142744 0.93121,0.248354 z m 42.346443,0.62047 c 1.87477,-0.823765 2.19535,-0.334033 2.68557,1.195394 0.34086,1.063462 0.12843,1.798089 -0.25655,2.653952 -0.17963,0.399362 -0.6264,0.823866 -1.18711,0.937023 m 0.0182,0.06748 c -0.24168,-1.746449 -0.65697,-4.14129 -0.54887,-5.697969 m -3.54893,3.19865 c 1.01881,-0.203858 1.65531,-2.64158 0.99899,-2.788751 -0.55825,-0.125183 -1.25584,0.05278 -1.76887,0.575714 m 0.22021,-0.491815 c 0.43432,1.386365 0.49259,2.881194 0.8037,4.292795 M 99.638027,96.603488 c 0.402793,0.489402 1.003783,0.903443 1.583063,0.931212 0.33979,0.01629 0.68007,0.08056 0.80736,-0.279365 0.13624,-0.385234 -0.19653,-0.519756 -0.43488,-0.744969 -0.48148,-0.454945 -1.44535,-0.884504 -1.722741,-1.489938 -0.322312,-0.703479 0.837161,-0.764246 1.257141,-0.465606 m 5.12166,0.201794 c 0.50413,-0.470751 1.37734,-0.661395 1.8317,-0.108672 0.37647,0.45798 0.60852,1.310932 0.43394,1.862422 -0.62482,1.97371 -3.59655,-0.510964 -2.26564,-1.75375 z m 29.70566,-0.201794 c 0.74692,0.202715 1.56339,-0.03895 2.23491,-0.09312 m -27.35792,1.107386 c 0.16279,-0.559676 0.50126,-1.276865 1.09774,-1.076375 0.62911,0.211457 0.48172,1.069599 0.46561,1.45893 -0.0249,0.60092 0.0987,0.546527 -0.0931,1.210575 m 20.02105,1.676181 c 0.47306,0.348458 1.62869,0.62326 2.14179,0.434596 0.22721,-0.08344 0.37062,-0.345758 0.26353,-0.62084 -0.40415,-1.040908 -1.52812,-1.475784 -2.3122,-2.157337 -0.23466,-0.20403 -0.47585,-0.480412 -0.52799,-0.822541 -0.0391,-0.26018 0.0866,-0.471471 0.24863,-0.651847 0.50565,-0.563197 1.84566,-0.766574 1.95554,0.279363 m -39.483377,2.234909 c -0.415157,-1.15514 -0.20896,-2.135711 -0.95074,-2.747844 m 0.616011,1.259171 c -0.0031,-1.646918 1.098068,-1.68385 1.682107,-0.826817 m 2.656832,1.384278 c -0.353859,0.288395 -0.581075,0.564878 -1.024331,0.558728 -0.507511,-0.0071 -0.973761,-0.522143 -1.019557,-0.967239 -0.09793,-0.951799 0.811578,-1.889642 1.179844,-1.396818 0.135637,0.181513 -0.244899,0.470003 -0.558725,0.605288 -0.168542,0.07266 -0.272814,0.122583 -0.548758,0.227787 m 44.993514,1.43786 c -0.38268,0.129739 -1.57564,-0.0092 -1.80278,0.06473 m 1.80278,-2.485877 c -0.40853,-0.113102 -1.68512,-0.396804 -1.90899,0.108672 -0.37972,0.857394 0.12789,2.060341 0.13969,2.871206 0.006,0.391437 -0.005,1.271187 0.20208,1.474387 0.1733,0.169656 0.33709,0.0711 0.54289,0.0311 0.38924,-0.07566 0.89955,-0.191177 1.3037,-0.201794 m -31.20294,-1.903126 c 0.31416,-0.636613 0.10149,-1.652551 -0.056,-2.628753 m 26.26667,0.231318 c 0.11081,0.965457 -0.0583,2.036059 0.0876,2.996867 l 0.15551,1.024331 m 34.54796,-3.073 c 0.83681,-1.131979 2.3292,-1.254974 2.42115,0.465607 0.081,1.516009 -2.00759,2.939739 -1.95554,4.190456 0.0122,0.2936 0.22533,0.42909 0.4656,0.4656 0.63488,0.0965 1.16681,-0.39409 1.48994,-0.744966 m 1.95555,-4.935422 c 0.50052,0.575714 2.79029,-0.545316 2.79363,-0.186243 0.017,1.821402 -1.00294,3.436034 -1.02433,5.307911 m -24.77024,-5.121668 c 0.007,1.244864 0.0626,2.488364 0.18625,3.724847 l 0.0931,0.931213 m 16.15652,-4.283575 c 0.43312,0.900473 0.95541,2.161265 0.57456,3.166119 -0.11972,0.315887 -0.33523,0.855971 -0.71424,0.993323 -0.46467,0.168365 -0.82593,-0.180721 -1.11745,-0.403585 -0.64714,-0.494729 -1.02434,-1.215231 -1.02434,-2.079676 0,-0.831946 0.45816,-1.902632 1.20539,-2.069564 0.5539,-0.123739 0.92415,0.0775 1.07608,0.393383 z m -18.95019,-0.186248 c 0.2456,1.455514 0.0605,2.690902 0.27938,4.004212 l 0.0931,0.558726 m 13.13009,-0.09312 c 0.2775,0.702783 1.93807,0.847473 2.2973,-0.186244 0.17343,-0.499053 0.0251,-1.353481 -0.34175,-1.660628 -0.21887,-0.183229 -1.29162,-0.26802 -1.38099,-0.341477 -0.31841,-0.261698 -0.55421,-1.898836 -0.43488,-2.079676 0.19774,-0.299649 0.94798,-0.201794 1.25714,-0.201794 m -8.28779,0.124132 c 0.29614,0.07408 0.36584,0.06439 0.49634,0.434596 0.35466,1.006036 0.60156,3.392219 -0.49634,3.88008 -1.01409,0.450614 -2.08693,-0.960243 -2.32802,-1.924536 -0.22265,-0.890496 0.62206,-2.088662 1.48993,-2.39014 0.17788,-0.06179 0.74219,-0.02399 0.83809,0 z m -54.51926,0.201947 c 0.51233,-0.184623 1.7617,-0.200281 2.3714,-0.232957 m 16.21483,0.727111 c 0.35677,1.051481 0.85113,1.196564 1.38508,2.53213 m 36.87598,-1.396816 c 0.6444,0 1.04575,0.05764 1.48994,0.186241 m 16.01685,-0.09312 c 0.96512,0.160045 1.86065,0.198428 2.88675,0.01555 M 73.09871,102.62239 c 1.541939,-0.55284 2.329742,0.86088 2.327818,1.8964 -0.0011,0.52231 -0.167339,0.97498 -0.310374,1.48994 -0.14564,0.52427 -0.815392,1.72913 -1.483256,1.76843 m 0,0.11011 c -0.05233,-1.444 -0.351774,-3.91606 -0.563551,-5.50712 m 9.341269,0.27622 c 0.0218,0.82728 0.38856,1.62859 0.465606,2.42115 0.07307,0.75158 0.167338,1.75431 0.465606,2.42115 m -2.700515,-4.46982 c 0,0 0.321813,1.11206 0.450056,1.67618 0.230999,1.01614 0.574278,3.073 0.574278,3.073 m 21.708793,-4.02838 c 0.15285,1.74432 0.1352,3.78022 0.82653,5.42519 m -2.32804,-5.3079 c 1.15872,0.0969 2.21377,-0.27243 3.16613,-0.74498 m 0.74496,0.74498 c 1.12189,1.18977 1.41686,2.98831 2.14179,4.19045 m -18.251749,-0.0931 c 0.713306,0.0563 1.353394,0.36081 1.955544,-0.20179 0.179135,-0.16737 0.270861,-0.50641 0.139683,-0.71387 -0.183665,-0.29046 -0.76082,-0.28556 -1.070895,-0.41905 -0.495701,-0.21339 -0.860533,-0.6484 -0.993324,-1.17956 -0.127669,-0.51059 0.230944,-1.25958 0.807083,-1.17957 0.444375,0.0617 0.62922,0.47632 0.838091,0.80708 m 16.575567,-0.65185 c -0.75013,0.7767 -0.79736,1.73567 -1.21057,2.6074 -0.30787,0.64949 -0.31271,1.12243 -0.65185,1.7693 m -26.696308,-2.26117 c -0.01349,0.5131 -1.506578,2.2528 -2.512736,0.86435 -0.468042,-0.64588 -0.465395,-1.51051 -0.108579,-2.14179 0.279109,-0.49381 1.105517,-0.97104 1.567509,-0.6363 0.262862,0.19046 0.512463,0.38107 0.620839,0.72942 0.300042,0.96442 0.833931,2.21138 1.334705,2.88676 m 6.887031,-1.97693 c -0.02328,0.0931 -0.940948,1.27603 -1.113518,1.37164 -0.42713,0.23665 -0.859321,-0.12161 -1.070892,-0.51216 -0.35982,-0.66424 -0.416015,-1.20911 -0.06211,-1.86243 0.137776,-0.25433 0.290465,-0.50945 0.574278,-0.52772 1.991649,-0.12814 1.521112,2.64123 2.514272,3.41448 m 29.240049,-2.88676 c 0.9917,-0.39758 2.20107,-1.47783 2.32803,-0.4656 0.1438,1.14646 -0.28425,2.04796 -0.27937,3.16612 -0.0315,0.85228 0.0177,0.8084 0.0931,1.67618 m 7.17033,-3.63173 c 0.0428,-0.54634 0.92093,-1.73266 1.67618,-1.02433 0.18155,0.17027 0.32362,0.41258 0.40321,0.65185 0.32548,0.97838 -1.06504,2.46351 -1.36515,3.44548 -0.0789,0.25812 -0.28054,0.61405 -0.10896,0.83809 0.31489,0.41115 1.50465,-0.2791 2.09523,-0.46561 m -7.17033,-0.0931 c 0.52157,0.38082 1.75407,0.37419 2.0645,-0.18624 0.16889,-0.3049 0.21502,-0.71451 0.17041,-1.11745 -0.0755,-0.68211 -0.87534,-0.51552 -1.3037,-0.45006 -0.20673,0.0316 -0.38243,0.12218 -0.528,-0.10867 -0.24232,-0.3843 -0.38336,-1.90933 -0.0149,-2.09523 0.41938,-0.21158 1.04835,0.096 1.38098,0.32593 m 8.56715,-0.37249 c -0.44722,1.39721 -0.18533,3.56056 -0.18624,4.84231 m -1.21058,-4.74919 c -0.19741,0.32621 -0.66359,1.63157 -0.82226,2.04867 -0.49124,1.2914 1.19552,0.80998 1.95652,0.63232 m 3.80117,-1.65665 c 0.35522,0.80487 0.48702,3.21806 -0.55873,3.52305 -0.59412,0.17328 -1.31896,-0.62832 -1.58306,-1.1019 -1.00454,-1.80139 1.14298,-4.68428 2.14179,-2.42115 z m -39.576502,0.83809 c 0.266326,0.53209 0.719826,1.00794 0,1.39681 m 21.790352,-1.21057 c 0.80563,-0.30043 1.66205,-0.1176 2.23491,-0.27936"
       id="path125"
       sodipodi:nodetypes="csssssccsccsccccssssccccccccsssccccsccsccssssssccssssccssssccssssccccssssccccccccccssssscssssscsssccsccssssssscsssscssssccsssscsscscssccccsssccsccsssccccssssccaaaaaccssccccccssccssssccccsssccccssssccssccssccccsssccccaccssssccsccsccccsccccsccsssccsssssccccssssccssccsssccssssccssccccssccccccccccccccaaassccssccsccccsccssssccccccccccssccsccsccsccssccsscssssscssccccsccccsssscsssscccssccccccccccccccsssccccssssccccsccsssccsccscssssssscsccsssscsssssscccccccccssccccsccsccccccccsssssccsccssssccssssccscccssssccsssssccccscsssscccc" /></g></svg>
