<?xml version="1.0" encoding="utf-8"?>
<!-- Generator: Adobe Illustrator 25.0.0, SVG Export Plug-In . SVG Version: 6.00 Build 0)  -->
<svg version="1.1" id="Layer_1" xmlns="http://www.w3.org/2000/svg" xmlns:xlink="http://www.w3.org/1999/xlink" x="0px" y="0px"
	 viewBox="0 0 2974 1164.6" style="enable-background:new 0 0 2974 1164.6;" xml:space="preserve">
<style type="text/css">
	.st0{fill:none;stroke:#64648A;stroke-width:1.3333;}
</style>
<g id="Layer_2_1_">
</g>
<g>
	<path class="st0" d="M20.1,16.4c-1.1-0.1,8.5-0.6,17.9-1.1c9.8-0.5,19.4-0.9,28.1-0.9"/>
</g>
<g>
	<path class="st0" d="M40.7,15.1c1.3,1.9,8,14.2,13,25.7c4.7,11.7,7.8,22.6-4.9,27.8c-8,4.6-14.3-1.4-18-5.9
		c-3.8-4.9-5.2-8.4-5.6-8.5"/>
</g>
<g>
	<path class="st0" d="M81.7,36.8c-14.8,2-15.2,18.8-8.8,27.5C78.3,75.7,98.6,76,100.4,64C102,51.8,101.2,36.2,81.7,36.8z"/>
</g>
<g>
	<path class="st0" d="M136.6,32.5c-33.1-4.8-37.8,5.3-13.5,11.9c9.7,5,16.3,9,22.6,12.6c5.7,3.7,11.1,7,5.2,13.1
		c-4.8,4.3-11.9,8.7-20.1,8.5c-7.9,0-17.1-4.5-19-12.2"/>
</g>
<g>
	<path class="st0" d="M149.4,26.1c3.5,9.6,8.5,18.1,10.6,26.3c2.6,8.4,2.4,16.6,7.2,29.8c-1.5-1.7-1.8-17.7,1.5-26.9
		c3.2-9.7,9.9-12.5,19.6,1c8.8,9.9,19.1,22.2,18.1,22.4"/>
</g>
<g>
	<path class="st0" d="M207.8,39c-0.7,15.8,0.9,23.2,4.5,28.7c3.7,5.1,9.4,8.4,18.9,8.4c15.9,0.5,13.3-33.5,12.4-33.4"/>
</g>
<g>
	<g>
		<path class="st0" d="M275.3,40.8c-15.9-6.7-27.3,27.8-11.7,31.7c16.3,4.6,16.4-7.9,19.7-15.4C286.4,49.3,275.9,40.7,275.3,40.8z"
			/>
		<path class="st0" d="M282.9,50.2c0.9,0.3,0.3,5.1,3.5,10.2c2.8,5.1,9.4,10.6,16.1,11.4"/>
	</g>
</g>
<g>
	<g>
		<path class="st0" d="M448.3,126.1c-11.8-5.4-20.2,21.9-8.7,25.1c11.9,3.6,12.2-6.2,14.5-12.2C456.4,132.7,448.8,126,448.3,126.1z"
			/>
		<path class="st0" d="M453.9,133.4c-0.4,0.2,2.8,15.7,14.4,17.1"/>
	</g>
</g>
<g>
	<path class="st0" d="M287.1,126.4c-14.7-6.4-25,27.7-10.4,31.9c14.3,4.4,17.9-5.5,19-16.3C295.3,133.9,287.5,127.3,287.1,126.4z"/>
</g>
<g>
	<path class="st0" d="M293.9,134.4c0.1,0.5,3.3,5,6.2,10.5c3.2,5.3,6.1,11.7,13,12.5"/>
</g>
<g>
	<path class="st0" d="M91.8,115.7c-14.7-6.4-25,27.7-10.4,31.9c14.3,4.2,17.9-5.5,19-16.3C99.9,123.2,92.2,116.5,91.8,115.7z"/>
</g>
<g>
	<path class="st0" d="M98.5,123.6c0.1,0.5,3.3,5,6.2,10.5c3.2,5.3,6.1,11.7,13,12.5"/>
</g>
<g>
	<path class="st0" d="M460.7,42.5c-15.8-6.4-26.9,27.7-11.1,31.9C465,78.6,468.8,68.8,470,58C469.4,49.9,461.1,43.3,460.7,42.5z"/>
</g>
<g>
	<path class="st0" d="M468,50.4c0.2,0.5,3.6,5,6.7,10.5c3.4,5.3,6.5,11.7,13.9,12.5"/>
</g>
<g>
	<path class="st0" d="M603,119.7c-14.7-6.4-25,27.7-10.4,31.9c14.3,4.2,17.9-5.5,19-16.3C611.1,127.2,603.4,120.5,603,119.7z"/>
</g>
<g>
	<path class="st0" d="M609.7,127.7c0.1,0.5,3.3,5,6.2,10.5c3.2,5.3,6.1,11.7,13,12.5"/>
</g>
<g>
	<path class="st0" d="M333.9,11.7c4.1,19.8-0.4,57.3,0,57.7c1-0.1,19.1-4.8,35.2-6.5"/>
</g>
<g>
	<path class="st0" d="M384.5,40.4c-12,1.7-12.3,15.2-7.1,22.3c4.5,9.4,20.9,9.6,22.4-0.2C401.1,52.6,400.3,40.1,384.5,40.4z"/>
</g>
<g>
	<path class="st0" d="M421.4,40.4c-9.9-1.8-32.8,22.8,1.8,22.2C432.9,59.2,433.8,46,421.4,40.4z"/>
</g>
<g>
	<path class="st0" d="M429.2,58.5c0.2-0.2,0.5,9.7-1.3,17.9c-1.6,8.9-5.4,16.2-7.8,25.6c-10.9-12.7-18.6-15.4-18.2-23.6
		c0-8.3,11.3-9.7,32.7-15.8"/>
</g>
<g>
	<path class="st0" d="M484.5,45.4c2.8,5.5,6.7,10.4,8.5,15.2c2.1,4.9,2,9.7,5.5,17.2c-2.4-1.6-2.3-10.9-1.9-19
		c1-8.1,2.2-14.9,16.9-13.2c11.3,4.4,14.4,11.5,18.4,18.5c3.4,6.8,7.6,13.4,6.5,13.7"/>
</g>
<g>
	<path class="st0" d="M560.8,20.1c-5,14-4,24.8,0.2,34c4.2,8.6,11.6,15.6,17.8,10c12.9-8.7,9.6-35,8.8-34.1"/>
</g>
<g>
	<path class="st0" d="M588.6,43.1c0.5,0.6-2.6,34,26,32.6c27.8-5.9,3.9-47.5,3.7-51.3"/>
</g>
<g>
	<path class="st0" d="M642.4,45.9c8.2,7.7,8.3,15.4,16.5,23.1"/>
</g>
<g>
	<path class="st0" d="M635.5,23.1c2.1,3.4,2.2,6.8,4.3,10.2"/>
</g>
<g>
	<path class="st0" d="M623.8,90.2c4.7,13.8,8.1,28.3,13.3,40.8c4.7,12.2,11.3,22.3,11.3,21.4"/>
</g>
<g>
	<path class="st0" d="M641.2,94.1c4.7,13.8,8.1,28.3,13.3,40.8c4.7,12.2,11.3,22.3,11.3,21.4"/>
</g>
<g>
	<path class="st0" d="M669.1,99.6c4.7,13.8,8.1,28.3,13.3,40.8c4.7,12.2,11.3,22.3,11.3,21.4"/>
</g>
<g>
	<path class="st0" d="M720,32.6c-19.4-4.9-43.1-1.4-13.6,7.9c9.8,6.3,21.7,12.4,22.1,18.4c0.7,5.6-10.1,11.1-37.5,7.4"/>
</g>
<g>
	<path class="st0" d="M488.8,123.2c-15.5-4.2-34.3-1.1-10.9,6.7c7.8,5.4,17.3,10.6,17.6,15.7c0.6,4.8-8,9.5-29.8,6.3"/>
</g>
<g>
	<path class="st0" d="M745.2,34.9c-12,1.7-12.3,15.2-7.1,22.3c4.5,9.4,20.8,9.6,22.5-0.2C761.7,47.1,761.1,34.6,745.2,34.9z"/>
</g>
<g>
	<path class="st0" d="M765.7,32.5c0.4,0.9,8.4,7.6,12.6,15.4c5,7.7,6.3,16.6,9.2,17.9c-4-2.6-3.1-13.3-4.7-22.7
		c-0.2-9.1-3-17,17.1-7.3c8.7,6.6,12.6,12.8,18,18.8c4.7,5.8,10.8,11.3,9.2,11.2"/>
</g>
<g>
	<g>
		<path class="st0" d="M30,119.3c-2.1,7.7,4.1,9,10.2,10.9c6.4,1.2,12.7,2.8,19.1-4.2C68.1,116.2,39.4,97.6,30,119.3z"/>
		<path class="st0" d="M30,119.3c0,0.2-7.7,36,30.2,25.5"/>
	</g>
</g>
<g>
	<path class="st0" d="M112.2,113.2c5.3,6.4,10.9,11.8,13.7,17.5c3.3,5.7,3.7,11.6,11.2,19.6c-3.7-1.8-7.6-12.8-8.8-22.1
		c-0.5-9.3,1.6-17,26.4-12.4"/>
</g>
<g>
	<path class="st0" d="M171.2,100.2c-0.1,1.1,6.8,11.7,12.4,24.9c6.4,12.9,11.7,28.6,26.2,32.8"/>
</g>
<g>
	<path class="st0" d="M200.1,94.9c6.4,10.5,14.2,19.5,17.7,28.5c4.3,9.2,4.3,18.4,13.5,32.5c-1.2-0.8-7.2-18.7-3-24.3
		c1.5-3.2,4-4.1,8.6-0.9c5,3.2,12.1,10.5,30.8,25.2"/>
</g>
<g>
	<path class="st0" d="M310.6,125.4c3,12.9,5.6,19.8,8.4,25.6c2.6,5.5,5.3,9.9,5.8,9.7c-2.4-2.3-1.4-12.9-1.4-21.7
		c0.7-8.7,0.5-15.7,11-7.5c14.2,16.4,19.4,25.2,18.4,26.4"/>
</g>
<g>
	<path class="st0" d="M333.3,130.4c-0.2,0.5,4.2-7.6,11.2-7.4c7.2-0.2,17,7.9,32.3,31.6"/>
</g>
<g>
	<path class="st0" d="M385.6,100.2c-0.6,0.9,2.5,13.3,4.7,26.4c2.7,13.1,4.6,26.8,11.3,30.7c6.3,0.9,12.7-1.2,18.9-5.6
		c5.7-4.4,11.3-11.1,5.5-18.1c-10.7-9.6-22.1-13.6-34.7-2.2"/>
</g>
<g>
	<path class="st0" d="M533.4,96.7c-0.6,0.9,2.5,13.3,4.7,26.4c2.7,13.1,4.6,26.8,11.3,30.7c6.3,0.9,12.7-1.2,18.9-5.6
		c5.7-4.4,11.3-11.1,5.5-18.1c-10.7-9.6-22.1-13.6-34.7-2.2"/>
</g>
<g>
	<g>
		<path class="st0" d="M500.5,127.1c-2.1,7.7,4.1,9,10.2,10.9c6.4,1.2,12.7,2.8,19.1-4.2C538.4,124,509.9,105.3,500.5,127.1z"/>
		<path class="st0" d="M500.5,127.1c0,0.2-7.7,36,30.2,25.5"/>
	</g>
</g>
<g>
	<path class="st0" d="M696.5,135.4c2.7-6.3-3-20.9-2.6-21.1c-0.7,0.6,4.5,2,12,5.9c7.7,3.3,17.7,9.1,29.8,6.6
		c5.1,18.1,4.9,59.1,4.6,59.5"/>
</g>
<g>
	<path class="st0" d="M714.1,148.4c13.1-0.4,26.2-0.5,39.3-0.9"/>
</g>
<g>
	<path class="st0" d="M860.1,143.6c4.4,11.6,6.2,19.8,8,33c-1.9-1.1,0.4-11.3,1.3-19.7c1.7-8.5,2.2-15.2,13.7-10.2
		c8.1,4.1,8.2,9.6,8.7,14.7c0.1,5.1,0.6,9.9,1.6,10.3c-2.9-1.6,1.3-8.6,3.3-16.4c2.8-7.2,3.4-15.3,12.8-5.6
		c11.9,15.6,19.1,25.2,17.5,25.9"/>
</g>
<g>
	<path class="st0" d="M985.3,157c8.1,10.8,8.2,21.6,16.3,32.4"/>
</g>
<g>
	<path class="st0" d="M979.3,142.1c4.4,2.3,3.9,7,4.1,7.3"/>
</g>
<g>
	<path class="st0" d="M1005.2,139.7c1.3,12.2,3.7,22.2,7.5,33c3.7,10.1,8.7,21.1,14.3,19.2"/>
</g>
<g>
	<g>
		<path class="st0" d="M956.5,157.8c-2.1-2.8-5.2-3.6-7.3-2.2c-8.4,4-15.4,21.6-4.6,26.5c6,3,8.8-2.1,11.6-7
			C958.6,169.9,961.1,164.9,956.5,157.8z"/>
		<path class="st0" d="M959.1,164.3c0.6,0-2.7,11.5,11.5,11.4"/>
	</g>
</g>
<g>
	<g>
		<path class="st0" d="M780.6,140.7c-1.4-2.3-3.8-3.3-6.2-2.5c-9.5,2.3-15.8,19.1-6.7,23.9C776.1,166.3,786.3,151.1,780.6,140.7z"/>
		<path class="st0" d="M782.4,146.4c0.1-0.1-2.6,16.9,8.5,18.6c15.6,1.7,25-29.4,8.7-39.4c-9-6.9-22.9-6.2-34.1,1.3
			c-10.7,7.5-18.7,22-5.7,42.5c13.8,20,43.1,4.9,43.5,5.4"/>
	</g>
</g>
<g>
	<g>
		<path class="st0" d="M835.2,135.6c-2.7-3.1-6.3-3.8-9.2-1.9c-10.8,6.9-12.6,22.2-0.3,30.2c5.2,7.2,11.6,0.4,14.1-6.9
			C842.6,149.2,841.4,141,835.2,135.6z"/>
		<path class="st0" d="M840,156.5c-0.7,14.5-3.8,44.1-2.8,44.9c-0.2,1.5-7.3-6.2-13.1-12.3c-6-6.6-10.8-11.5-11.2-14.5
			c3.3-15.3,22.2-3.9,22.8-6.2"/>
	</g>
</g>
<g>
	<path class="st0" d="M1104.2,168.5c3.6-3.6,16,3.3,19,5.9c4.2,2.7,6.3,6.1,7.7,10.9c0.6,2.4-1.9,6.6-3.8,8
		c-7.3,7.3-21-1.5-23.6-7.5C1101.5,183.4,1101.4,170.4,1104.2,168.5"/>
</g>
<g>
	<path class="st0" d="M1045,183.5c0.6,3.2,2.9,4.4,0,9"/>
</g>
<g>
	<path class="st0" d="M1141.2,160.6c4.4,11.6,6.2,19.8,8,33c-1.9-1.1,0.3-11.3,1.3-19.7c1.7-8.5,2.2-15.2,13.7-10.2
		c8.1,4.1,8.2,9.6,8.7,14.7c0.1,5.1,0.6,9.9,1.6,10.3c-2.9-1.6,1.3-8.6,3.3-16.4c2.8-7.2,3.4-15.3,12.8-5.6
		c11.9,15.6,19.1,25.2,17.5,25.9"/>
</g>
<g>
	<path class="st0" d="M1089.2,169.6c-7.4-4.6-13.8-1.5-18.8,5.7c-3,4.3-3,10-0.6,13.1c4.9,8.6,15.4,8.6,22.4,1.5"/>
</g>
<g>
	<g>
		<path class="st0" d="M14.8,167.9c3.7-2.8,12.8-3.3,22.3-1.6c9.2,1.7,18.8,5.5,15.5,10.6c-7.7,10-16.3,12.6-34.3,11.9"/>
		<path class="st0" d="M40.3,186.6c-0.6-0.1,17.5-3.5,19.6,12.3c-0.1,15.6-18.2,23-31.1,21.3"/>
		<path class="st0" d="M86.1,164.8c-0.8,13.3-11.5,23.7-15.7,33.5c-4.7,9.4-3,18,9,19.5c21.3,2.2,40.7-24.9,22-19.5
			c-18.9,5.6-20.6,5.1-22,19.5"/>
		<path class="st0" d="M129.4,176.4c18.7,2.7,27.2,14.9,11.5,33.5c-6.9,9.4-8.8,15.7-12.6,17.6c-3.3,1.9-8.7-0.7-10.9-6.4
			c-2.5-5.7,1.2-10.5,5.4-11.6c4.7-1.1,9.9,1.6,23.1,12.4c14.6,9.1,15.3,5.8,14.8,5.8"/>
		<path class="st0" d="M222.8,182c-31.3,2.7-64.7,12.1-61.1,23.4c1.5,3.5,6.7,5,12.1,3.7c25-6,43.3-13.8,46.7,10.2
			c0.6,26.1-20.7,25.9-46,12.6"/>
	</g>
</g>
<g>
	<g>
		<path class="st0" d="M279.6,260.9c-3.6-16.6-3.3-27.5-5.5-38.8c-1.8-11-6.1-22.4-9.3-34.9c22.2,0.6,43.4,3.2,64,3.4"/>
		<path class="st0" d="M275.6,233c13.9-3.7,23.9-1.3,36.6-1"/>
		<g>
			<path class="st0" d="M279.2,258.6c0.7-0.2,38.2,1.8,59.4-3.7"/>
		</g>
	</g>
</g>
<g>
	<g>
		<path class="st0" d="M382.3,256.7c0-20.6,0.5-39.9,0.1-59.8c0-0.2,27.5-6.4,46.9,7.5c9.7,4.2,9.4,9.6-0.9,15.8
			c-4.7,2.5-10.8,3.7-17.4,3c-6.9-0.4-14.5-2.8-28.3,0.6"/>
		<path class="st0" d="M400.1,222.1c9.8,8.4,18.1,18.6,36.1,25.6"/>
	</g>
</g>
<g>
	<path class="st0" d="M462.2,212.9c-15.8-6.4-26.9,27.7-11.1,31.9c15.4,4.2,19.2-5.5,20.4-16.3C470.9,220.4,462.6,213.7,462.2,212.9
		z"/>
</g>
<g>
	<path class="st0" d="M469.5,220.8c0.2,0.5,3.6,5,6.7,10.5c3.4,5.3,6.5,11.7,13.9,12.5"/>
</g>
<g>
	<path class="st0" d="M491.7,211.9c-0.6,13-2.5,31.2,16.8,31.7c18.6,4.9,19.2-32.6,18-34.2c-0.4-0.6-1.4,7.1-3.1,16.9
		c-1.5,10.1-3.9,22.3-2.5,37.7c3.1,15.2-0.8,26.1-9,25.4c-7.9,0.2-20.1-11.1-25.4-19.9c-4.7-2.7-1.3-11.1,3.7-15.8
		c5.2-5.2,11.8-6.8,18.5-7.1c6.7-0.4,13.4,0.5,19.4-0.9c5.8-1,11-4.4,11.3-4.3"/>
</g>
<g>
	<g>
		<path class="st0" d="M604.3,256.6c1.1-21.7,7.8-40.4,6.3-59.5c-0.7-0.8,28.7-2.4,45.6,12.3c9.4,4.6,8.3,10.8-2.5,15.1
			c-11.8,5.6-21-2-45-1.5"/>
		<path class="st0" d="M625.3,223.8c8,9.3,17,19.9,33.2,29.1"/>
	</g>
</g>
<g>
	<path class="st0" d="M718,230.8c-15-8.7-29.4,25.1-14.4,30.2c15.4,6.3,19.1-3.4,22-13.9C726.1,238.4,718.2,231.9,718,230.8z"/>
</g>
<g>
	<path class="st0" d="M724.4,239.4c0,0.6,3,5.2,5.6,11c2.9,5.7,5.5,12.5,12.5,14"/>
</g>
<g>
	<path class="st0" d="M683.8,226.3c-15-8.7-29.4,25.1-14.4,30.2c15.4,6.3,19.1-3.4,22-13.9C691.9,233.9,684,227.4,683.8,226.3z"/>
</g>
<g>
	<path class="st0" d="M776.9,210.4c-0.4,3.6,12.4,52.3,1.3,59.7c-10,6.5-36.8,0.9-32.8-14.8c2.3-11,9.4-15.9,15.4-15.6
		c6.5-0.1,12,5,21.2,4"/>
</g>
<g>
	<path class="st0" d="M805.9,272.1c6.7,8.1-0.2,24.6,0,26.9"/>
</g>
<g>
	<path class="st0" d="M819.8,293.8c6.6-13.1,13.5-25.7,20.2-31.4c6.7-5.6,13-16.9,19.4-30.7c-0.4,2.6,2.9,62.7,3.1,64.4"/>
</g>
<g>
	<path class="st0" d="M834.3,271.2c13.5,0.8,13.8,1.6,27.3,2.4"/>
</g>
<g>
	<path class="st0" d="M889.3,310.4c0.4-2.6-9-28.2-2.8-43c6.2-12.9,25.3-22.6,33.5-4c4.7,7-2.9,17.9-10.1,20
		c-7.9,3.4-15.4-2-24.9,3.8"/>
</g>
<g>
	<path class="st0" d="M933.2,234.2c10.3,23.2,10.6,46.3,20.9,69.5"/>
</g>
<g>
	<path class="st0" d="M923.8,259c15.6-2.3,31.1-2.4,46.7-4.7"/>
</g>
<g>
	<path class="st0" d="M1033.2,255.7c3.7-5.7,13.3-12.9,21.8-11.4c8.2,0.9,15.3,10.4,6.2,25.7c-9.2,11.5-15.6,22.3-22.7,27
		c-6.7,4.9-14.2,3.7-15.7-4.4c-4.3-6,3.3-17.7,10.4-19.4c8.3-2.3,16.1,5.4,41.1,22.6"/>
</g>
<g>
	<path class="st0" d="M1093.6,252.7c9.1,17.4,9.2,34.9,18.3,52.3"/>
</g>
<g>
	<path class="st0" d="M1119.9,252.6c27.8,1.7,56,5.4,35,16.1c-18.9,6.3-25.7,1.3-25.8,2c3.1-1.4,11.4,5.5,22.5,11.2
		c10.2,6.3,23.2,11.5,14.6,19.5c-13.8,15.5-35.3-2.9-34.5-3.1"/>
</g>
<g>
	<path class="st0" d="M1184.4,262.8c-0.3,0.9,2.6,9.1,4.8,19.9c2.7,10.6,4.7,23.8,11.9,30"/>
</g>
<g>
	<path class="st0" d="M50.7,328.2c-3.3-14.2-4.5-25.6-6.6-35.9c-3.9-16.8-4.2-35.5,1-36.8c4.7-2.9,15.7,4.4,23.1,9.3
		c7.4,6,11.2,9.6,0.5,23.1c-9.9,6.4-15,4.8-18.9,4.9c-3.7-0.5-6.1,0.7-5.8-0.4"/>
</g>
<g>
	<path class="st0" d="M78.7,253.7c6.9,7.9,10.5,23.2,11.2,40.4c0.9,16.6-1.1,35.2,0.6,37.1c-1.4-1.1,1.9-21.9,7-31.4
		c5.4-10.5,12.5-9.6,26.8,9.2c8.8,15.7,8.4,22.4,8.4,22.2"/>
</g>
<g>
	<path class="st0" d="M157.5,298.1c-15.8-6.4-26.9,27.7-11.1,31.9c15.4,4.2,19.2-5.5,20.4-16.3C166.1,305.6,158,298.9,157.5,298.1z"
		/>
</g>
<g>
	<g>
		<path class="st0" d="M177.6,305.4c-2.3,7.7,4.4,9,11,10.9c6.9,1.2,13.7,2.9,20.5-4.2C218.3,302.3,187.6,283.6,177.6,305.4z"/>
		<path class="st0" d="M177.6,305.4c0,0.3-8.3,36,32.4,25.5"/>
	</g>
</g>
<g>
	<path class="st0" d="M217.2,297.8c2.8,6.6,7.1,12.7,9.2,18.5c2.4,5.9,2.6,11.4,5.3,19.6c-1.7-1.8-1.4-13-2-22.7
		c0.2-9.6-0.5-17.8,14.2-9.6c11.2,9.9,16.4,17.2,21.1,24.2c4.2,6.6,7.9,12.8,6.5,12.6"/>
</g>
<g>
	<path class="st0" d="M278.9,307.5c4.8,12.4,4.9,24.8,9.7,37.2"/>
</g>
<g>
	<path class="st0" d="M266.7,284.4c5,3.8,5.1,7.7,10.1,11.5"/>
</g>
<g>
	<path class="st0" d="M295.8,294.2c10.7,12.1,21.9,24.3,26.4,36.5c4.2,12.1,15.4,24.3,26.1,36.4"/>
</g>
<g>
	<path class="st0" d="M333.9,297.8c-4.2,13.6-8.5,27.9-12.7,33.7c-4.2,5.4-8.5,19.7-12.8,33.3"/>
</g>
<g>
	<path class="st0" d="M374.5,362.4c-0.1,1,1.2,6.2,0.4,16.7c-0.7,11.3-2.8,16.1-8,27.1"/>
</g>
<g>
	<path class="st0" d="M391.5,366c-0.1,0.7,3.1-5.1,7.1-9.3c4.1-4.6,9-7.7,13.8-11.5c4.8-3.8,9.5-8.2,13.3-15.3
		c3.8-6.6,6.7-15.7,6.9-18.6c4,13.5,1,34.6-1.8,50.6c-3,16.3-5.9,27.4-4.9,28.3"/>
</g>
<g>
	<path class="st0" d="M412.5,343.6c2,0,6.4,7.6,20.7,7.1"/>
</g>
<g>
	<path class="st0" d="M448.3,322.2c11.7,0.4,23.3,1.6,34.6,1.9c-0.2-0.9-2.4,4.7-5.9,9.5c-3.5,5.2-8.3,9.6-13.5,14.4
		c-5.1,4.8-10.5,10.1-14.6,16.7c-4.1,6.2-6.9,13.9-6.3,14.7c1.7,8.7,47.1-0.3,48.4,0"/>
</g>
<g>
	<path class="st0" d="M648.9,362.4c-1.8,2-5.5,2.2-8.1-0.2c-10.3-7.7-9.9-14.7,1.5-21C653.4,334.2,667.8,350.1,648.9,362.4z"/>
</g>
<g>
	<path class="st0" d="M651.3,400.6c-6.4,10.4-16.9-1.7-18.2-15.3c-1.3-12.2,4.3-19.1,12.2-21.9C656.9,361.9,664,386.6,651.3,400.6z"
		/>
</g>
<g>
	<path class="st0" d="M708.7,349.4c-8.4-3.7-17.9-11.4-29.1-15.9c2.3-0.7-22.4,26.5,0.2,33.3c8.4-5.1,14.5-5.8,20-5.8
		c5.5,0.3,10.3,1.3,15.4,6.8c5.8,6.3,1.7,19.9-4.8,28.6c-6.9,8.6-16.1,12.4-30.4-3.3"/>
</g>
<g>
	<path class="st0" d="M750.6,362.6c-15.8-6.4-26.9,27.7-11.1,31.9c15.4,4.2,19.2-5.5,20.4-16.3C759.3,370.1,751,363.4,750.6,362.6z"
		/>
</g>
<g>
	<path class="st0" d="M795.8,346.6c0.3,8.2-3.1,12.2-6.4,18.5c-3.4,5.8-6.8,13.9-9.2,20.9c15-2.8,25.4-3.8,42.5-5"/>
</g>
<g>
	<path class="st0" d="M808.6,358.2c3.7,16.5,3.7,33.1,7.4,49.6"/>
</g>
<g>
	<path class="st0" d="M852.5,348c0.3,8.2-3.1,12.2-6.5,18.5c-3.5,5.9-6.8,13.9-9.2,21c15-2.8,25.4-3.8,42.6-5"/>
</g>
<g>
	<path class="st0" d="M865.3,359.6c3.7,16.6,3.7,33.1,7.4,49.7"/>
</g>
<g>
	<path class="st0" d="M658.9,4.4c-0.3,0.2,5.4,9.8,9.4,22.4c4.6,12.5,7.5,27.8,15.7,38.2"/>
</g>
<g>
	<path class="st0" d="M637.8,594.6c1.1,1.3,7,7.8,11.7,17.2c4.9,8.9,8.7,20.7,10.8,21.4c-1.8-1-5.8-20.3-4.3-31.6
		c2.5-10.9-0.1-27.7,18.2-20.5c10.8,6.2,12.3,7.5,12.4,7.9"/>
</g>
<g>
	<path class="st0" d="M692.1,607c16.3,3.7,22.2,7.7,27.1,4.9c4.2-2.1,7.3-11,3.6-15.7c-5.5-14.6-36.2-9.5-29.6,23.7
		c3.2,15.3,12,21.5,19.5,21.2c7.6,0.2,13.7-6.2,14.4-5.4"/>
</g>
<g>
	<path class="st0" d="M770.4,599.3c-16.9-10.4-35-6-37.5,22.3c0.3,25.3,33.3,29,35.2,11.7"/>
</g>
<g>
	<path class="st0" d="M777.8,614c16.3,3.7,22.2,7.7,27.1,4.9c4.2-2.1,7.3-11,3.6-15.7c-5.5-14.6-36.2-9.5-29.6,23.7
		c3.2,15.3,12,21.5,19.5,21.2c7.6,0.2,13.7-6.2,14.4-5.4"/>
</g>
<g>
	<path class="st0" d="M823.8,584.5c6.4,3.6,3.8,11.7,3.9,12.3"/>
</g>
<g>
	<path class="st0" d="M828.9,610.4c4.6,11.9,4.6,23.8,9.2,35.7"/>
</g>
<g>
	<path class="st0" d="M843.4,605.3c2.5,12.5,5.7,20.3,9,27.9c3.3,7.1,6.7,14.1,7.7,13.8c-0.3-1.8,2.4-6.1,6.6-13.8
		c3.9-7.5,9.3-18.4,7.1-27.1"/>
</g>
<g>
	<path class="st0" d="M888.3,614c16.3,3.7,22.2,7.7,27.1,4.9c4.2-2.1,7.3-11,3.6-15.7c-5.5-14.6-36.2-9.5-29.6,23.7
		c3.2,15.3,12,21.5,19.5,21.2c7.6,0.2,13.7-6.2,14.4-5.4"/>
</g>
<g>
	<path class="st0" d="M52,538c18-0.6,35.9-0.7,53.9-1.3"/>
</g>
<g>
	<path class="st0" d="M79,547.4c0,24.7,0,30.6,0,55.3"/>
</g>
<g>
	<path class="st0" d="M49.3,613.7c16.7-3.9,33.3-4,50-7.9"/>
</g>
<g>
	<path class="st0" d="M176.5,567.1c-5,14-4,24.8,0.2,34c4.2,8.6,11.6,15.6,17.8,10c12.9-8.7,9.6-35,8.8-34.1"/>
</g>
<g>
	<path class="st0" d="M204.3,590.2c0.5,0.6-2.6,34,26,32.6c27.8-5.9,3.9-47.5,3.7-51.3"/>
</g>
<g>
	<path class="st0" d="M258,593c8.2,7.7,8.3,15.3,16.5,23"/>
</g>
<g>
	<path class="st0" d="M251.2,570.2c2.1,3.4,2.2,6.7,4.3,10.1"/>
</g>
<g>
	<path class="st0" d="M313.5,571.5c-20.7,1.8-41.3,11.9-22.4,15.2c10.7,1.5,24.4,10,38.1,16.6c12.3,7,24.6,12-1.1,15.8
		c-41.7,6.7-38.9-1.5-38.5-1.6"/>
</g>
<g>
	<path class="st0" d="M328.2,565.2c-0.6,1.2,10.1,13.8,15.5,27.3c6.4,13.4,7.5,27.6,9.8,29.3c-1.8-1.2-0.3-13.8,3.9-20.9
		c4.2-7.4,11-9.3,21,1.4c10.5,13.6,16.6,25.6,15.6,25.5"/>
</g>
<g>
	<path class="st0" d="M470.8,550.6c5,24.8,5.1,49.5,10.1,74.3"/>
</g>
<g>
	<path class="st0" d="M459.4,584.7c20.3,1,20.8,2.1,41.1,3.1"/>
</g>
<g>
	<path class="st0" d="M506.9,596.2c-6,4.3-13.9,32.1,5.8,33.9c-0.3-0.6,22.1-1.3,19.1-19.4C528.1,594.7,506.7,594.9,506.9,596.2z"/>
</g>
<g>
	<path class="st0" d="M1626.6,542.2c5,24.8,5.1,49.5,10.1,74.3"/>
</g>
<g>
	<path class="st0" d="M1615.1,576.3c20.4,1,20.8,2,41.2,3"/>
</g>
<g>
	<path class="st0" d="M1662.7,587.7c-5.9,4.3-13.9,32.1,5.8,33.9c-0.3-0.6,22.1-1.3,19.1-19.4
		C1683.8,586.3,1662.5,586.4,1662.7,587.7z"/>
</g>
<g>
	<path class="st0" d="M1061.4,560.7c-26.3-15.6-66.1-11.5-42.3-0.3c14.5,5.2,22.6,16.2,31.6,23.6c8.3,8.1,17.6,12.7,16.7,22.5
		c-4.6,17.2-24.4,31.5-45,7.9"/>
</g>
<g>
	<path class="st0" d="M1284.4,587.8c-15.2-8.9-38.1-6.7-24.4-0.2c8.4,3,13,9.4,18.2,13.6c4.8,4.7,10.1,7.3,9.6,12.9
		c-2.7,9.9-14.1,18.3-26,4.5"/>
</g>
<g>
	<g>
		<path class="st0" d="M1083.4,592.3c-5.9,23.7,0.5,35.5,13.5,38.4c5.3-0.3,6.2-6.9,8-12.6c1.4-6,3.7-10.9,2.9-14.8"/>
		<path class="st0" d="M1107,610.7c-1-0.8,1.6,18,21.3,16.9c11.8-3.4,6.6-30.4,0.8-37.7"/>
	</g>
</g>
<g>
	<path class="st0" d="M1146.6,601.3c14.6,2.9,19.9,6.1,24.3,4c3.8-1.5,6.7-8.3,3.4-11.9c-5-11.1-32.5-7.6-26.8,17.5
		c2.8,11.4,10.7,16.2,17.4,16.1c6.8,0.2,12.4-4.5,12.9-3.9"/>
</g>
<g>
	<path class="st0" d="M1188.1,600.4c14.6,2.9,19.9,6.1,24.3,4c3.8-1.5,6.7-8.3,3.4-11.9c-5-11.1-32.5-7.6-26.8,17.5
		c2.8,11.4,10.7,16.2,17.4,16.1c6.8,0.2,12.4-4.5,12.9-3.9"/>
</g>
<g>
	<path class="st0" d="M1234.4,626.5c-0.2-3.9-9.1-30.3-6.7-38.8c2.9-7.6,30.7-4.9,21.4,9.3c-5.3,8.9-9.3,8-12.9,8.4
		c-3.4-0.2-6.4,0.9-6.5,0.8"/>
</g>
<g>
	<path class="st0" d="M1398.9,569.1c-12.3-19-32.2-20.1-35,11.7c0.2,14.6,4.6,24,11.7,30.7c6.8,6.4,16.4,10.2,21.2,4.6
		c7-4.6,6.1-14.3,5.7-14.2"/>
</g>
<g>
	<path class="st0" d="M1438,559.1c4.4,4,4.5,7.1,4.8,7.3"/>
</g>
<g>
	<path class="st0" d="M1444.9,587c1.3,0.2,4,20.8,10.7,32.1"/>
</g>
<g>
	<path class="st0" d="M1461.8,586c4.4,13.1,5.4,22,7.7,37.7c-1.5-1.4-0.9-13.7,0.4-24.2c1.8-10.7,4.3-19.6,16.7-17.5
		c14,5.8,18,14.8,21.7,23.9c3.1,8.8,5.8,17.6,4.6,17.9"/>
</g>
<g>
	<path class="st0" d="M1543.4,586.7c-13.7-9-35.2-8-22.7-0.9c7.7,3.3,11.8,9.8,16.6,14.2c4.3,4.8,9.2,7.5,8.5,13.3
		c-2.7,9.9-13.6,17.6-24.3,3.8"/>
</g>
<g>
	<path class="st0" d="M1415.1,581.2c5.7-3,16,10.5,18.5,13.2c4,3.6,6.1,8.9,5.1,15.7c-0.6,3.3-4,7.2-6.1,8.5
		c-10.8,5.6-22-9.4-23.7-16.4C1408.1,597.7,1412.8,582.7,1415.1,581.2"/>
</g>
<g>
	<path class="st0" d="M1736.1,629.6c-3.5-25.8,0.8-62.9,19.9-58.9c10.2,5,16.4,9,15.9,16.5c-0.1,6.6-6.9,16.8-16.4,13.3
		c-17.9-5.9-20.7-2.3-19.5-4.1"/>
</g>
<g>
	<path class="st0" d="M1795.7,582.9c-14.3-6.4-24.3,27.7-10.1,31.9c13.9,4.4,17.4-5.5,18.5-16.3
		C1803.6,590.3,1796.1,583.7,1795.7,582.9z"/>
</g>
<g>
	<path class="st0" d="M1802.2,590.8c0.1,0.5,3.3,5,6.1,10.5c3.1,5.3,5.9,11.7,12.6,12.5"/>
</g>
<g>
	<path class="st0" d="M1819.9,589.2c5.8,13.8,6.4,20.9,10.1,38.1c-1.7-2.6-1.1-13.2,0.6-22.5c2.1-9.3,5.3-17.5,18.7-14"/>
</g>
<g>
	<path class="st0" d="M1871.4,540.7c4.7,30.4,4.7,60.8,9.4,91.2"/>
</g>
<g>
	<path class="st0" d="M1851.4,579.3c16.1,7.7,43.4,4.4,45.3,4.1"/>
</g>
<g>
	<path class="st0" d="M1911.3,559c-2.2,4.8-0.1,12.3,0,13.2"/>
</g>
<g>
	<path class="st0" d="M1911.3,580.6c0.1-0.4-1.2,8.3-1.3,16.6c-0.1,8.8,1,17.1,6.4,27.1"/>
</g>
<g>
	<path class="st0" d="M1962.4,586.3c0.3,2.1-22.3-14-31.2-1.9c-5.6,7-5.6,19.3-1,30.4c4.7,10.6,14.2,20.1,28.9,11"/>
</g>
<g>
	<path class="st0" d="M1979.3,565.4c-2.2,4.8-0.1,12.3,0,13.2"/>
</g>
<g>
	<path class="st0" d="M1979.3,587c0.1-0.4-1.2,8.3-1.3,16.6c-0.1,8.8,1,17.1,6.4,27.1"/>
</g>
<g>
	<path class="st0" d="M2006.6,636.6c-3.5-25.8,0.8-62.9,19.9-58.9c10.2,5,16.4,9,15.9,16.5c-0.1,6.6-6.9,16.8-16.4,13.3
		c-17.9-6-20.7-2.3-19.5-4.1"/>
</g>
<g>
	<path class="st0" d="M2068.3,595.8c-14.3-6.4-24.3,27.7-10.1,31.9c13.9,4.4,17.4-5.5,18.5-16.3
		C2076.2,603.2,2068.7,596.6,2068.3,595.8z"/>
</g>
<g>
	<path class="st0" d="M2074.8,603.7c0.1,0.5,3.3,5,6.1,10.5c3.1,5.3,5.9,11.7,12.6,12.5"/>
</g>
<g>
	<path class="st0" d="M2098.1,552.6c4.7,30.4,4.8,60.8,9.5,91.2"/>
</g>
<g>
	<path class="st0" d="M2078.1,591.2c16.1,7.7,43.4,4.4,45.3,4.1"/>
</g>
<g>
	<g>
		<path class="st0" d="M2128.1,599.3c-2,7.6,4,9,10,10.9c6.3,1.2,12.4,2.8,18.6-4.2C2165.1,596.2,2137.1,577.5,2128.1,599.3z"/>
		<path class="st0" d="M2128.1,599.3c0,0.2-7.5,36,29.3,25.5"/>
	</g>
</g>
<g>
	<path class="st0" d="M2228.6,556.3c-2.4,4.8-0.1,12.3,0,13.2"/>
</g>
<g>
	<path class="st0" d="M2228.6,577.9c0.1-0.4-1.3,8.3-1.4,16.6c-0.1,8.8,1.1,17.1,7,27.1"/>
</g>
<g>
	<path class="st0" d="M2247.1,577.9c2.7,15.1,4.9,27.2,5.5,42.9c-0.3-2.3,3.1-43.8,20.8-41.5c13.8,3.7,17.5,15.2,23.2,25.7
		c4.7,10.6,11.4,20.3,10.2,21.2"/>
</g>
<g>
	<path class="st0" d="M2374.9,552.7c5.6,24.7,5.8,49.4,11.4,74.1"/>
</g>
<g>
	<path class="st0" d="M2355.1,580.9c17.5,0,21.7,0,39.2,0"/>
</g>
<g>
	<path class="st0" d="M2404.2,553.9c2.6,12.1,6.3,23,7.9,33.5c2,10.7,1.8,21.1,5.3,37.7c-0.2-1.1-4-22.4,0.1-30.7
		c5.3-8.9,5-6.8,32.2,23.1"/>
</g>
<g>
	<path class="st0" d="M2452.4,598.6c15.8,3.8,24.6,6.9,32.3,3c6.9-3.3,12.6-13.6,5.8-21.9c-6.6-9.3-23.1-1.4-32.3,9
		c-8.8,11.1-10.4,24.7,20.7,44.3c1.1,0.5,16.3,6.5,25.2-7.8"/>
</g>
<g>
	<path class="st0" d="M88.5,652c-26.9-13.3-68.4-11.3-44.1-1c14.9,4.7,23.1,14.3,32.3,20.8c8.5,7.1,18,11,16.7,19.6
		c-5.2,14.7-26.2,26.3-47,6"/>
</g>
<g>
	<path class="st0" d="M319.8,679.5c-15.5-7.8-39.4-6.5-25.3-0.6c8.6,2.7,13.3,8.3,18.7,12c4.9,4.1,10.4,6.3,9.6,11.3
		c-3,8.5-15.1,15.3-27.1,3.4"/>
</g>
<g>
	<path class="st0" d="M527.6,688.4c-15.5-7.8-39.4-6.5-25.3-0.6c8.6,2.7,13.3,8.3,18.7,12c4.9,4.1,10.4,6.3,9.6,11.3
		c-3,8.5-15.1,15.3-27.1,3.4"/>
</g>
<g>
	<g>
		<path class="st0" d="M110.5,679.5c-6.7,20.2-0.5,30.4,13.1,33c5.6-0.1,6.7-5.8,8.7-10.6c1.6-5.1,4.1-9.3,3.4-12.7"/>
		<path class="st0" d="M134.6,695.8c0.4,0-0.6,3.4,2.6,7.3c2.9,3.8,9.9,8.2,19.1,7.5c12-2.6,7.7-26,1.7-32.3"/>
	</g>
</g>
<g>
	<path class="st0" d="M176.1,688.4c15,2.9,20.5,5.7,25.2,3.9c4.1-1.3,7.2-7.2,3.8-10.1c-4.9-9.3-33.5-7.2-28.4,14.7
		c2.6,9.7,10.7,14,17.7,14.1c7.1,0.3,13.1-3.6,13.6-3"/>
</g>
<g>
	<path class="st0" d="M219.3,688.4c15,2.9,20.5,5.7,25.2,3.9c4.1-1.3,7.2-7.2,3.8-10.1c-4.9-9.3-33.5-7.2-28.4,14.7
		c2.6,9.7,10.7,14,17.7,14.1c7.1,0.3,13.1-3.6,13.6-3"/>
</g>
<g>
	<path class="st0" d="M456.5,696.8c15,2.9,20.5,5.7,25.2,3.9c4.1-1.3,7.2-7.2,3.8-10.1c-4.9-9.3-33.5-7.2-28.4,14.7
		c2.6,9.7,10.7,14,17.7,14.1c7.1,0.3,13.1-3.6,13.6-3"/>
</g>
<g>
	<path class="st0" d="M266.7,711.7c0-3.2-8.8-26.1-6-33.4c3.1-6.4,32.2-3.7,21.9,8.5c-5.7,7.4-9.9,6.5-13.6,6.8
		c-3.6-0.2-6.8,0.8-6.9,0.7"/>
</g>
<g>
	<g>
		<path class="st0" d="M337.9,653c11.7,28.2,7,44.2,20,69.5"/>
		<path class="st0" d="M324.9,677c17.9-5.7,23.5,7.3,38.7-3.1"/>
	</g>
</g>
<g>
	<g>
		<path class="st0" d="M394.8,689.2c-2.7-2.9-6.5-3.8-9.1-2.3c-10.5,4.4-19,23.2-5.5,28.4c7.4,3.2,10.9-2.3,14.4-7.5
			C397.6,702.1,400.7,696.8,394.8,689.2z"/>
		<path class="st0" d="M398.1,696.1c0.8,0-3.2,12.3,14.4,12"/>
	</g>
</g>
<g>
	<path class="st0" d="M414.2,677.2c8.2,16.1,8.3,32.2,16.5,48.3"/>
</g>
<g>
	<path class="st0" d="M449.1,685.6c-9.4,6.9-15,7-27.9,12.2c0-0.2,6.5-0.6,11.5,2.6c5.7,3,9.9,9.4,22.1,18.9"/>
</g>
<g>
	<path class="st0" d="M621.9,755.3c-5.5-25.6-3.2-62.6,18.2-60.2c11.5,4.4,18.6,8,18.6,15.5c0.3,6.6-6.5,17-17.2,14.6
		c-19.8-5.2-23.4-0.6-22.1-2.6"/>
</g>
<g>
	<path class="st0" d="M670.9,710.3c2.9,6.4,6.2,11.8,7.7,17.3c1.9,5.6,2,11.3,5.8,20c-2.1-2.6-2.2-12.9-0.8-22.4
		c1.8-9.4,5-17.9,19.9-15.3"/>
</g>
<g>
	<path class="st0" d="M716.2,710.7c7-4,22.1,10.8,25.3,14.2c5.4,4.2,8.6,10,7.9,18c-0.5,3.8-5,8.9-7.7,10.5
		c-5.8,4.3-14.4,1.4-20.4-2.8c-6.2-4.4-9.7-10.2-12-14.7C707.9,731,713.2,712.6,716.2,710.7"/>
</g>
<g>
	<path class="st0" d="M750.9,712.1c5.6,11.4,7.2,19,9.9,32.4c-1.9-1.2-0.4-11.3,0.3-19.8c1.3-8.5,1.7-15.3,13.1-11
		c14.6,7,8,23,11.3,24c-2.6-1.5,1.8-8.1,2.9-16.2c2.2-7.4,1.1-16.4,12.2-6.8c13.4,15.6,19.8,24.1,19,25.1"/>
</g>
<g>
	<path class="st0" d="M828.9,703.9c7-4,22.1,10.8,25.3,14.2c5.4,4.2,8.6,10,7.9,18c-0.5,3.8-5,8.9-7.7,10.5
		c-13.4,7.8-29.7-9.3-32.3-17.5C820.6,724.2,825.8,705.7,828.9,703.9"/>
</g>
<g>
	<path class="st0" d="M869.4,675.8c7.2,24.5,7.4,49.1,14.6,73.6"/>
</g>
<g>
	<path class="st0" d="M860.1,710.5c20.4,0.2,20.8,0.4,41.2,0.6"/>
</g>
<g>
	<path class="st0" d="M897.8,678.5c6.1,4.2,6.3,8,6.8,8.2"/>
</g>
<g>
	<path class="st0" d="M909,710.7c-0.3,0.4,3.1,6.1,5.5,13.8c2.8,7.6,4.7,17.1,11,23.1"/>
</g>
<g>
	<path class="st0" d="M929.3,697.8c7-4,22.1,10.8,25.3,14.2c5.4,4.2,8.6,10,7.9,18c-0.5,3.8-5,8.9-7.7,10.5
		c-5.8,4.3-14.4,1.4-20.4-2.8c-6.2-4.4-9.7-10.2-12-14.7C921,718.1,926.2,699.6,929.3,697.8"/>
</g>
<g>
	<path class="st0" d="M959.5,695.5c4.4,7.7,9.7,14.2,12.1,20.9c2.9,6.7,3,13.5,8.8,24c-1.1-0.5-3.6-10.4-3.8-18.9
		c-0.5-9,1.5-16.7,1.4-24.1c0.2-8.4,10.1-1.5,15.6,7.1c6.7,9.1,8.9,19.8,21.2,30.1"/>
</g>
<g>
	<path class="st0" d="M1117.8,680.6c4.4-4.9,19.5,4.6,23.1,8c5.1,3.8,7.6,8.4,9.3,15.2c0.7,3.4-2.4,9.1-4.7,11.1
		c-8.9,10.1-25.6-2.1-28.8-10.3C1114.6,701.3,1114.4,683.4,1117.8,680.6"/>
</g>
<g>
	<path class="st0" d="M1180,661c-5.6-6.4-13.5-17.3-19.3-17.4c-5.9-0.9-9.7,9-7.3,24.9c3.7,14.3,6.8,27,11.5,36.7
		c4.3,9.6,10.2,16.2,9.8,14.9"/>
</g>
<g>
	<path class="st0" d="M1220.3,667c-5.6-6.4-13.5-17.3-19.3-17.4c-5.9-0.9-9.7,9-7.3,24.9c3.7,14.3,6.8,27,11.5,36.7
		c4.3,9.6,10.2,16.2,9.8,14.9"/>
</g>
<g>
	<path class="st0" d="M1232.5,686.2c15.6,4,21.2,8.4,25.8,5.3c4-2.3,7-12,3.5-17.2c-5.3-15.9-34.4-10.3-28.3,25.8
		c3.1,16.5,11.5,23.3,18.6,23c7.2,0.2,13-6.7,13.7-5.8"/>
</g>
<g>
	<path class="st0" d="M1313.5,701c15.6,4,21.2,8.4,25.8,5.3c4-2.3,7-12,3.5-17.2c-5.3-15.9-34.4-10.3-28.3,25.8
		c3.1,16.5,11.5,23.3,18.6,23c7.2,0.2,13-6.7,13.7-5.8"/>
</g>
<g>
	<path class="st0" d="M1272.5,692c0.9,1.3,5.8,7.8,9.7,17.2c4.1,8.9,7.2,20.7,9,21.4c-1.5-1-4.9-20.3-3.6-31.6
		c2.1-10.9-0.1-27.7,15.2-20.4c9,6.2,10.4,7.5,10.5,7.9"/>
</g>
<g>
	<path class="st0" d="M1379.3,649.9c3.2,32.3,4,47.5,9.3,73c0.4,0.2-2.9-15.1-8.2-23.8c-6-8.1-10.3-20.6-26-7.2
		c-11.3,19.8-12.7,57.4,34.2,31"/>
</g>
<g>
	<path class="st0" d="M1146.5,683.2c8-2.2,16-2.3,24-4.5"/>
</g>
<g>
	<path class="st0" d="M1186.2,678c10,1.3,10.3,2.6,20.3,3.9"/>
</g>
<g>
	<path class="st0" d="M1457.5,657.4c3.1,10.4,7.5,19.7,9.4,28.7c2.3,9.2,2.2,18.1,6.3,32.3c0.4,0.3,40.1,4.7,33-19.3
		c-5.9-10.7-12-13.6-18.6-15c-6.6-0.9-13.7-0.3-20,5.3"/>
</g>
<g>
	<path class="st0" d="M1509.7,678.8c1.1,38,9.5,41.7,26.4,37.4c8.2-1.8,13-10.4,15-20.6c2.1-9.9,1.4-21.5,1.3-21.3
		c1.9,2.3,3.1,28.6,2.7,50.9c-0.2,23.4-2.1,42.6-0.7,57c0,12.9-17.7,3.8-28.6-9.8c-11.1-15.2-22.1-22.4-17.9-35.5
		c6.4-14.9,25.3-17.3,38.3-13.8c7,1,13.9,1.8,20.1,0.1c6-1.3,11.5-5,11.2-4.2"/>
</g>
<g>
	<path class="st0" d="M1674.8,667.2c-8.2-9.2-16.1-15.2-20.1-13.9c-4.6,1.2-5.5,9.6-13.7,26.9c-7.5,20.6-3.6,33.4,5.9,42.5
		c9.7,8.4,24.9,12.9,45,1.5"/>
</g>
<g>
	<path class="st0" d="M1689.9,650.4c4.4,12.3,10.4,23.2,13.2,33.8c3.3,10.8,3.4,21.2,8.6,36.9c-0.3-0.2-2.2-10.6-1.8-19.5
		c0.3-9.2,2.9-16.7,7.1-18.8c4.8-1.4,8.7,8.8,15.8,20.1c6.3,11.2,15.8,23.6,14.4,23.9"/>
</g>
<g>
	<path class="st0" d="M1744.8,684c7.6,16.4,8.6,25.5,13,32.3c3.8,6.4,11.1,10.3,17,7.6c13.5-3.5,2-37.2,2.2-38.6"/>
</g>
<g>
	<path class="st0" d="M1788.2,688.7c3.3,7.6,7.8,14.2,9.7,20.6c2.4,6.6,2.2,13.1,6.9,23.5c-2.7-2.7-3.5-15.7-5.1-26.9
		c-0.8-11.1-2.4-20.3,11.6-13c11.4,10,16.2,17.3,19.4,24.6c2.9,6.9,4.3,13.8,3.3,13.5"/>
</g>
<g>
	<path class="st0" d="M1818.7,698c0.7,0.3-2.4-24.2,16.3-9.6c9.1,8.9,11.9,18,16.3,26.2c3.8,8,9.2,15.2,7.8,15.3"/>
</g>
<g>
	<path class="st0" d="M1846.1,659.6c4.9,12.1,10.9,22.5,13.6,32.9c3.3,10.6,3.3,21.2,10.3,37.4c-1.3-1-6.7-16.7-7.2-27.9
		c-0.7-11.6,3.6-18.6,15.4-12.4c13.2,4.3,21.1,13,18.8,22.3c-1.8,8.9-13.8,18.3-27,18"/>
</g>
<g>
	<path class="st0" d="M1921.6,694.7c-14.2-6.4-24,27.7-10,31.9c13.8,4.4,17.2-5.5,18.3-16.3C1929.4,702.1,1922,695.5,1921.6,694.7z"
		/>
</g>
<g>
	<path class="st0" d="M1928.1,702.6c0.1,0.5,3.2,5,6,10.5c3.1,5.3,5.9,11.7,12.4,12.5"/>
</g>
<g>
	<path class="st0" d="M1999.3,671.9c-4.4-19.6-20.5-6.3-21.2,18.2c0.9,11.6,1.9,19,5.6,24.6c3.6,5.4,9.9,9.1,19.4,6.2"/>
</g>
<g>
	<path class="st0" d="M2027.2,689.7c-13.4-4.9-19.8,28.1-6.7,31.7c12.5,3.1,15.5-6.7,15.3-17C2034.7,697,2027.7,690.3,2027.2,689.7z
		"/>
</g>
<g>
	<path class="st0" d="M2033.6,697c2.2,0,7.8,19.3,18.4,20.9"/>
</g>
<g>
	<path class="st0" d="M2079.8,685.6c-16.1-8.5-34.3,8.6-19.5,13.1c7,2.7,11.1,6,15.9,7.3c4.3,1.7,9.3,1.4,8.4,7.3
		c-2.4,10.5-14,19-26.9,6.4"/>
</g>
<g>
	<path class="st0" d="M2105.8,685.9c0.2,2.1-2.5,25.5,7.7,41.8"/>
</g>
<g>
	<path class="st0" d="M2122.5,683.8c-0.3,1,5.1,10.1,7.9,20.2c3.2,9.9,3.8,20.9,5.4,21.9c-2.1-2.5-2.1-14-2-24
		c0.6-10.1,1.3-18.7,12.7-17.8c12.6,4.8,16.6,14,19.3,23.5c2.3,9.3,3.4,18.9,2.5,19.1"/>
</g>
<g>
	<path class="st0" d="M2201.5,685c-4.6-4.2-10.5-4.4-14.1-1.5c-7.1,3.6-13.6,14.3-13.8,22.9c-0.5,9,5.3,15.8,15.5,20.5
		C2210,732.3,2222.2,698.9,2201.5,685z"/>
</g>
<g>
	<path class="st0" d="M2225.9,718.5c4,6.7,1.7,13.4,1.8,14.1"/>
</g>
<g>
	<path class="st0" d="M86,782.8c-3.6,0.5,41.3,15.1,11,26.3c-24.2,9.4-43.8,6.6-44.2,5.9c-4-16.1-12.8-28.1-15.9-40.2
		c-3.2-11.5-0.7-23.1,16-22.9c18.2-0.1,35.8,8.3,44.3,15.1C105.7,774,105,779.7,86,782.8c-16.2-1.2-26.8-3.6-35.1-4.4
		c-8-1-13.7-0.3-13.1-0.9"/>
</g>
<g>
	<path class="st0" d="M112.1,787.4c0,27,4.6,30.7,20,29.3c14.9,0.5,17.9-27.3,17.3-28.4c1.4,1.6,0.7,20.6-1.5,36.3
		c-2,16.6-5.5,29.9-5.1,40.6c-2.3,10.6-14.5-0.7-23.8-9.8c-9.6-10.2-16.3-18.3-12.5-26.9c6.6-10,22.8-9.5,34-6.2
		c10.8,4.3,26.3,0.5,26.9,0"/>
</g>
<g>
	<path class="st0" d="M253.5,770.9c-10.2,1.2-18,4.3-24.2,8.8c-5.7,4.3-9.8,10.1-2.1,11.7c7.8,0.9,12.9,7.9,19.8,12.8
		c6.2,5.6,14.2,9.1,12.5,17.7c-3,16.7-33.1,9.5-26.9-8.8"/>
</g>
<g>
	<path class="st0" d="M267.9,790.2c0.8,19.7,2.8,28.1,6.3,33.8c3.4,5.4,8.3,8.1,13,7.5c6.7,0.4,12.4-32.3,11-44"/>
</g>
<g>
	<path class="st0" d="M300.5,760.6c2.7,12.8,6.4,23.9,8,34.9c2,11.2,1.9,22.2,5.7,39.7c-2.1-3.2-12.3-49.6,5.9-37.1
		c8.3,5.2,16.8,12.1,16.5,20.4c0.2,7.9-8.5,17.1-22.4,16.7"/>
</g>
<g>
	<path class="st0" d="M336.5,793.7c6.6,16.1,9,25.6,12,43.7c-1.4-3.2,1.5-15.8,3.1-27.8c2.1-11.3,2.9-22.1,10.6-4.7
		c10,28,12.6,37.5,11.1,38"/>
</g>
<g>
	<path class="st0" d="M361.7,802.7c1.4,0.5,3.4-6.7,12.2-4.8c9.4,1.6,14,11.8,27.5,37.4"/>
</g>
<g>
	<path class="st0" d="M405.8,808.9c1.2,0.3,3.8,24.5,10.3,37.8"/>
</g>
<g>
	<path class="st0" d="M495.3,810.5c1.2,0.3,3.8,24.5,10.3,37.8"/>
</g>
<g>
	<path class="st0" d="M425,772.7c9,25.9,9.2,51.8,18.2,77.7"/>
</g>
<g>
	<path class="st0" d="M418.3,804.9c12.2,0,15.1,0,27.3,0"/>
</g>
<g>
	<path class="st0" d="M457.3,770.6c9,25.9,9.2,51.8,18.2,77.7"/>
</g>
<g>
	<path class="st0" d="M450.5,802.8c12.2,0,15.2,0,27.4,0"/>
</g>
<g>
	<path class="st0" d="M507.5,800.6c4.2,8.2,9.8,15.3,12.3,22.3c3.1,7.1,3.1,14.1,8.2,24.7c-2.2-1.5-2.7-19-2.1-30.2
		c1.8-10.4-1.2-26.2,17.4-10.9c8,11.5,12.8,20.3,15.4,28.7c2.6,8,3.1,15.8,2.5,15.3"/>
</g>
<g>
	<path class="st0" d="M590.8,813.8c0.7-5.9-3.5-11.5-7.9-9.9c-10.3,5.1-27.8,26.7-10.7,32.9C585,841,588.1,826.3,590.8,813.8z"/>
</g>
<g>
	<path class="st0" d="M586.1,831.3c0.8,0.4,3.9,14.8,2.5,26.7c-0.8,12.8-5.9,23-9.2,35.7c-4.6,14.5-13.1,6.1-18.8-2.9
		c-6-9.8-9.2-20.3-10.2-27.5c1-8.7,20.5-11.9,32.8-10c12.4,2.7,28.1-2.3,28.8-3"/>
</g>
<g>
	<path class="st0" d="M488.4,772.7c3.4,6.4,3.5,12.9,6.9,19.3"/>
</g>
<g>
	<path class="st0" d="M681.9,785.6c2.6,21.2,2.7,42.3,5.3,63.5"/>
</g>
<g>
	<path class="st0" d="M662.3,812.5c18.1,1.4,18.5,2.7,36.6,4.1"/>
</g>
<g>
	<path class="st0" d="M711.1,777.4c-0.5,1.1,3.8,17.3,5.8,34.5c2.5,17.1,2.7,35.4,3.9,38.4c-0.4,0.3,2.5-18,8.1-28.2
		c5.5-11,13.6-13.9,20.6-2.4c8.7,12.1,16.6,19.7,19.7,24.4c3.5,4.7,2.2,6.4,2.7,6.4"/>
</g>
<g>
	<path class="st0" d="M773.8,814.5c3.8,8.6,3.8,17.1,7.6,25.7"/>
</g>
<g>
	<path class="st0" d="M761.7,784c2.7,3.4,2.8,6.8,5.5,10.2"/>
</g>
<g>
	<path class="st0" d="M830,796.3c-11.6-0.9-22.9,1.9-31.4,6.6c-7.8,4.6-12.7,11.1,2.4,14.5c8,1.3,12.5,5.2,18.6,8.9
		c5.8,3.8,13,7.3,19.4,10.4c14,5.8,19.9,11.5,0.9,15.2c-34.3,8-44.8-10.4-44.1-9.2"/>
</g>
<g>
	<path class="st0" d="M909,808.1c2.8,9.4,6.5,17.5,8.1,25.5c2,8.2,1.9,16.2,5.7,29.1c-2.2-3-3.6-20.2-2.8-33.4
		c1.4-13.4,5.1-22.8,25.6-14.6"/>
</g>
<g>
	<g>
		<path class="st0" d="M960.5,825c10.4-0.5,17.1,6.4,23.6,5c5.9-0.3,11.6-8.8,5.8-13.9C979.8,798.5,962.8,805.4,960.5,825z"/>
		<path class="st0" d="M960.5,825c0.1,0.8-6,37.9,25.1,35.4"/>
	</g>
</g>
<g>
	<path class="st0" d="M1024.6,811.3c-11.2-5.8-20.7,4.5-23.5,21.6c0.1,8.2,2.3,14.1,6.2,18.9c3.7,4.5,9.2,7.9,12.4,3
		C1025.9,848.6,1040.1,832.1,1024.6,811.3z"/>
</g>
<g>
	<path class="st0" d="M1020.3,841.6c8.7,5.6,8.8,11.1,17.5,16.7"/>
</g>
<g>
	<path class="st0" d="M1051.1,812.2c-2.7,25.9-2.1,47.8,15.8,46.8c16.1-2.7,13.5-46.7,12.5-46.8"/>
</g>
<g>
	<g>
		<path class="st0" d="M1091.8,827.1c10.4-0.5,17.1,6.4,23.6,5c5.9-0.3,11.6-8.8,5.8-13.9C1111.1,800.5,1094.1,807.4,1091.8,827.1z"
			/>
		<path class="st0" d="M1091.8,827.1c0.1,0.8-6,37.9,25.1,35.4"/>
	</g>
</g>
<g>
	<path class="st0" d="M1159.7,812.7c-23.7-4.8-42.2-0.6-25.5,8.7c10.6,4.6,21.1,13.4,32.5,20c10.1,7,21.1,11.7,2.1,16.7
		c-30.1,9.3-31.8-9.9-30.9-9.3"/>
</g>
<g>
	<path class="st0" d="M1177.7,786c-0.3,1.7,2,13.7,4,29.2c2.4,15.1,4.5,33.6,11.7,39.4"/>
</g>
<g>
	<path class="st0" d="M1163.9,816.2c17.8,2.5,18.2,5,36,7.5"/>
</g>
<g>
	<path class="st0" d="M1216.2,852.9c0.1-0.4,1.6,4.6,2.5,9c0.9,4.8,1.1,9-1.2,14.6"/>
</g>
<g>
	<g>
		<path class="st0" d="M1262.7,781.7c18.7-0.1,35.6-0.1,53.7-1.3"/>
		<path class="st0" d="M1289.7,781.4c5.1,31.9-5.4,41.6-1.3,70.7"/>
		<path class="st0" d="M1259.7,857.4c17.3-4.4,30.9-7.1,48.9-7.9"/>
	</g>
</g>
<g>
	<path class="st0" d="M1376.3,768.2c2.6,15.3,6.6,29.2,8.4,42.6c2.1,13.7,2,26.8,5.1,46.9c-1.6-1,1.8-24.4,7-35
		c5.7-11.8,13.3-10.8,31.2,7.8c8.1,9.4,4.8,29.5,5,29.3"/>
</g>
<g>
	<path class="st0" d="M1435.5,830.2c13.2,2.8,20.5,5.2,26.8,2.3c5.7-2.5,10.5-10.3,4.9-16.6c-5.5-7.1-19.2-1.1-26.8,6.8
		c-7.3,8.5-8.6,18.7,17.2,33.6c0.9,0.4,13.5,4.9,20.9-5.9"/>
</g>
<g>
	<path class="st0" d="M1478,814c2.4,7.5,6,14.2,7.5,20.7c1.9,6.6,1.7,13.1,4.9,23.3c-1-0.8-2.1-17,0.7-26.2
		c3.6-8.9,3.3-22.1,18.5-16.3c10.3,4.9,12.4,10.2,12.6,10.5"/>
</g>
<g>
	<path class="st0" d="M1531.7,830.2c13.2,2.8,20.5,5.2,26.8,2.3c5.7-2.5,10.5-10.3,4.9-16.6c-5.5-7.1-19.2-1.1-26.8,6.8
		c-7.3,8.5-8.6,18.7,17.2,33.6c0.9,0.4,13.5,4.9,20.9-5.9"/>
</g>
<g>
	<path class="st0" d="M1571.1,787.4c3.3,12.7,8.1,24,10.1,34.9c2.5,11.2,2.3,22,6.7,39.4c-0.4-0.5-3.3-13.3-2.1-23.1
		c1-10.1,6-17.2,15.6-13.7c7.9,4.1,24.9,11,27,19.4c2.9,8-8.9,17.5-40.6,17.3"/>
</g>
<g>
	<path class="st0" d="M1644.6,815.1c-14.4,36-7.7,55.2,12.8,41.3c8.1-6.3,16.9-14.2,21.9-24.4c5.3-9.5,6.8-21.3,6.9-19.8"/>
</g>
<g>
	<path class="st0" d="M1673.5,843.2c0.8,0.4,2.2,19.8-2.3,36.1c-4.1,17.2-14.1,31.1-26,40.9c-13.2,11.7-30.7,12.2-41.7,7.9
		c-11.1-4.6-15.8-14-5.4-31.2c14.3-20.3,35.2-20.2,54.7-23.7c19.2-2.2,37.1-8,39.1-9.2"/>
</g>
<g>
	<g>
		<path class="st0" d="M1770.2,785.3c10.4,13.8,12.9,26.4,17.3,38c4.1,11.7,10,22.6,18.7,35c0.9-1.2-7.9-10.6-15.1-20
			c-8-8.7-14.3-17.3-26.5-0.4c-11.1,17.8-0.4,21,12.6,22c13.1,0.6,28.5-0.9,29-1.6"/>
	</g>
</g>
<g>
	<path class="st0" d="M1809.1,834.1c18.4,2.7,25.2,5.8,30.7,3.5c4.8-1.7,8.2-8.9,4-12.7c-6.3-11.8-40.9-7-33.4,19.5
		c3.7,12.2,13.7,17,22.1,16.6c8.5,0,15.4-5.2,16.2-4.5"/>
</g>
<g>
	<path class="st0" d="M1885.9,823.5c-10-8.4-24.9-5.1-26.6,14c0.5,15.7,17.9,34.2,34.1,22.7"/>
</g>
<g>
	<path class="st0" d="M1898.1,800.3c3.7,16.7,7.8,30.1,14.2,41.4c5.9,10.9,14,19.9,14.1,18.5"/>
</g>
<g>
	<g>
		<path class="st0" d="M1955.8,822.9c-3.5-3.4-8-4.2-11.1-2.3c-5.2,2.7-12.1,10.6-13.7,18c-1.9,7.5,1.4,14.4,8.6,17.7
			c9.2,3.3,13-3.7,17.1-10.3C1960.1,838.8,1963.7,832.1,1955.8,822.9z"/>
		<path class="st0" d="M1960.4,831.3c1.1-0.1-3.4,15.5,17.9,14.2"/>
	</g>
</g>
<g>
	<path class="st0" d="M2024.9,837.9c2.8,19.3,30.8,2.6,33.6-7.9C2057,821.2,2025.1,816.4,2024.9,837.9z"/>
</g>
<g>
	<path class="st0" d="M2024.9,837.9c1-0.2-2.8,35.3,37.7,15.1"/>
</g>
<g>
	<path class="st0" d="M1970.8,820.5c6.1,6.5,12,12,15.1,17.7c3.6,5.8,4.2,11.9,12,20.6c-2.2-0.6-9.4-14.7-10.3-23.5
		c0.2-8.6-5-19.9,16.7-16.1c18.1,3.7,20.4,8.2,20.8,8.3"/>
</g>
<g>
	<path class="st0" d="M2284.5,836.3c17.5,0.9,17.8,1.7,35.3,2.6"/>
</g>
<g>
	<path class="st0" d="M2149.9,786.5c10.7,24.2,10.9,48.4,21.6,72.6"/>
</g>
<g>
	<path class="st0" d="M2134.4,820.1c-0.1,0.2,8.6,3,14.3,5.7c5.4,2.5,19.1,5.1,28.4,1.8"/>
</g>
<g>
	<path class="st0" d="M2193.6,795.8c2.8,11.5,6.7,21.8,8.4,31.7c2.1,10.2,1.9,20,5.7,35.9c-1-1.6-3.9-19.2-2.5-29.6
		c1.3-10.8,6.9-14.3,19.3,3.4c14.6,18.3,16.4,26.2,15.4,26.2"/>
</g>
<g>
	<g>
		<path class="st0" d="M2266.5,832.3c-2.9-3.5-7.4-4.8-10.5-3.2c-5,2.2-12,9-14.2,15.9c-2.5,6.9-0.1,14,6.6,17.4
			c8.6,4.3,12.8-2.2,17-8.2C2269.1,847.6,2272.8,841.5,2266.5,832.3z"/>
		<path class="st0" d="M2269.9,840.6c0.9,0-4.2,14.4,16.1,14.8"/>
	</g>
</g>
<g>
	<path class="st0" d="M2294.4,811.8c11.4,20.9,11.7,41.9,23.1,62.8"/>
</g>
<g>
	<path class="st0" d="M2387.1,835.6c12.6-0.4,25.3-0.5,37.9-0.9"/>
</g>
<g>
	<path class="st0" d="M2406,835.1c0,22.8,0,28.3,0,51.1"/>
</g>
<g>
	<path class="st0" d="M2385.1,888.9c11.8-2.7,23.5-2.8,35.3-5.5"/>
</g>
<g>
	<path class="st0" d="M49.3,855.3c3.8,23.5,5.4,40,6.9,66.7c0-0.8-2.6-17.5,0.6-29.2c2.8-11.9,11.4-18.8,23.9-3.6
		c10.6,12.5,26.8,32.6,25.2,33.2"/>
</g>
<g>
	<g>
		<path class="st0" d="M137.8,894.2c-2.2-3.8-6.5-6-10-4.9c-11.7,2.6-26.5,23.5-12.2,31.9c8,5.7,13.1,0,17.9-5.5
			C137.9,909.5,142,903.6,137.8,894.2z"/>
		<path class="st0" d="M139.7,902.6c0.3,0-5.4,13.7,14.1,17.1"/>
	</g>
</g>
<g>
	<path class="st0" d="M158.6,886.1c0.1,11.7,4.9,20,9.2,28.8c4.4,8.3,8.4,17.1,10,17.1c-0.1-1.4,1.7-6.4,5.7-13.3
		c3.7-6.9,9.7-15.6,10-24.5"/>
</g>
<g>
	<path class="st0" d="M201.2,907.5c-1.8,24.1,36.9,12,42.6-0.1C244.9,897.4,206.7,880.9,201.2,907.5z"/>
</g>
<g>
	<path class="st0" d="M201.1,907.5c0.4,0.4-13.1,41.4,41.3,28.7"/>
</g>
<g>
	<path class="st0" d="M293.6,881.7c3.8,7.1,8.7,13.3,10.9,19.4c2.7,6.2,2.5,12.3,7.8,22c-2.5-1.8-4.4-13.1-4.5-22.4
		c0.3-9.5,2.3-17,16.5-15.8c12.1,3.2,16.1,9.7,16.5,9.7"/>
</g>
<g>
	<g>
		<path class="st0" d="M350.1,901.5c1.4,8.9,8.5,9.7,16.6,8.5c7.9-1.6,16.9-5.2,18-12.7C385,887.6,351.2,879.5,350.1,901.5z"/>
		<path class="st0" d="M350.1,901.5c0.3-0.1-6.4,35.6,37,18.9"/>
	</g>
</g>
<g>
	<g>
		<path class="st0" d="M418.2,896.6c-2.9-3.5-7.4-4.8-10.5-3.2c-5,2.2-12,9-14.2,15.9c-2.5,6.9-0.1,14,6.6,17.4
			c8.6,4.3,12.8-2.2,17-8.2C420.7,911.9,424.4,905.7,418.2,896.6z"/>
		<path class="st0" d="M421.6,904.9c0.9,0-4.2,14.4,16.1,14.8"/>
	</g>
</g>
<g>
	<path class="st0" d="M458.5,870.9c2.4,1,5,16.6,9.2,29.8c3.9,13.6,9.3,24.8,10.2,26.3c0.6-0.3-5.2-5.5-9.9-11.6
		c-5.1-5.8-9.3-12.4-15.2-7.4c-12.1,14.4-3.7,18.8,8.6,23.1c12.2,1.4,16.1-4,16.4-4"/>
</g>
<g>
	<path class="st0" d="M502.3,927.4c7.4,8.8-0.2,22.7,0,24.9"/>
</g>
<g>
	<path class="st0" d="M531.5,902.6c-1.3,11.3,1.1,20.7,4.6,29.9c3.8,8.8,8.5,17.4,18.6,18.5c16.3-0.1,12.8-35.6,8.8-45.5"/>
</g>
<g>
	<path class="st0" d="M571.9,905c2.7,7.8,6.7,14.9,8.5,21.7c2.2,6.9,2.1,13.5,5.2,23.7c-1.5-1.7-3.2-13.9-3.8-24.5
		c-0.2-10.6,0.7-19.6,13.8-16.3c13.2,6.2,17.7,15.3,21.8,24.7c3.6,9.1,6.7,18.3,5.4,18.5"/>
</g>
<g>
	<path class="st0" d="M652.9,889.3c7.4,15.4,7.8,26.6,11,37.4c2.7,10.7,8.2,21,13.4,33.2c0.8-0.8-8.4-13.9-14.6-25.7
		c-7.1-11.5-11.2-21.7-20.6-9.6c-8.3,16.5-8.6,22.7-2.8,27.6c5.9,4.5,18,7.7,38,7.7"/>
</g>
<g>
	<path class="st0" d="M678.6,920.1c18.8,4.2,25.6,8.9,31.2,5.6c4.8-2.4,8.4-12.7,4.2-18.2c-6.3-16.9-41.6-11-34.1,27.4
		c3.7,17.5,13.9,24.7,22.4,24.4c8.7,0.2,15.7-7.2,16.5-6.2"/>
</g>
<g>
	<path class="st0" d="M720.6,910.6c0.1,1.6,4.4,9.7,7.1,20.1c3,10,4.6,22.3,6,23.7c-1.3-1.3-1.2-22.4,2.1-33.8
		c1.5-6.6,3.2-12.7,5.6-17.4c2.6-4.4,5.8-7.4,14.1-0.9c8.5,7.8,9.6,9.3,9.6,9.8"/>
</g>
<g>
	<path class="st0" d="M804.3,918.9c-8.2-3.5-19.3-12-27-14.3c-7.6-2.9-11.9,0.4-3.7,5.8c8.7,6.6,13.2,15.3,18.1,22.3
		c4.4,7.2,9.2,12.7,6.3,18.4c-2.6,4.2-7.9,9.4-14.6,8.8c-6.5-0.1-14.5-5.9-19.2-12.1"/>
</g>
<g>
	<path class="st0" d="M809.1,885.2c8.8,25.4,9,50.8,17.8,76.2"/>
</g>
<g>
	<path class="st0" d="M795.9,907.1c19.6,1.5,20,3,39.6,4.5"/>
</g>
<g>
	<path class="st0" d="M860.6,920.2c-2.9-4.5-7.4-5.7-10.2-2.9c-5,3.2-10.4,13.7-11,22.6c-0.9,9.2,2.8,16.9,9.9,22.2
		C864,970.1,874.6,935.4,860.6,920.2z"/>
</g>
<g>
	<path class="st0" d="M894.4,920.2c-2.9-4.5-7.4-5.7-10.2-2.9c-5,3.2-10.4,13.7-11,22.6c-0.9,9.2,2.8,16.9,9.9,22.2
		C897.8,970.1,908.4,935.4,894.4,920.2z"/>
</g>
<g>
	<path class="st0" d="M945.5,877.6c4.1,33.9,4.7,48.4,11.2,75.2c0.9-1-4.6-10.8-9.5-20.2c-5.4-9.1-10.2-17.8-19.2-9.5
		c-9.9,14.9-9.6,20.4-5.6,24.7c4.1,3.9,12,6.6,19.5,8.4c14.4,2,14.6-3.5,14.8-3.5"/>
</g>
<g>
	<g>
		<path class="st0" d="M1060.1,929.6c-2.9-3.5-7.4-4.8-10.5-3.2c-5,2.2-12,9-14.2,15.9c-2.5,6.9-0.1,14,6.6,17.4
			c8.6,4.3,12.8-2.2,17-8.2C1062.7,944.9,1066.4,938.8,1060.1,929.6z"/>
		<path class="st0" d="M1063.5,937.9c0.9,0-4.2,14.4,16.1,14.8"/>
	</g>
</g>
<g>
	<path class="st0" d="M1078.4,926.9c3.6,5.4,8.6,10.2,10.8,14.9c2.7,4.8,2.5,9.4,7.3,16.8c-2.7-1.7-2.7-10.9-2.8-18.4
		c0.6-7.4,1.1-13.1,14-7.7c18.3,12,27.4,23.9,26.7,25"/>
</g>
<g>
	<path class="st0" d="M1155.8,902.5c7.8,10,8.5,17.8,11.8,25.2c2.8,7.4,8.3,14.4,13.9,22.6c1.1-0.8-6.3-8.9-11.8-16.4
		c-6.3-7.2-10.6-13.7-21.3-5.7c-10.3,11.9-7.9,15-0.3,17.9c7.7,2.5,20.5,4.7,33.5,4.2"/>
</g>
<g>
	<g>
		<path class="st0" d="M1245.1,916c-2.9-3.5-7.4-4.8-10.5-3.2c-5,2.2-12,9-14.2,15.9c-2.5,6.9-0.1,14,6.6,17.4
			c8.6,4.3,12.7-2.2,16.9-8.2C1247.6,931.3,1251.4,925.1,1245.1,916z"/>
		<path class="st0" d="M1248.5,924.3c0.9,0-4.2,14.4,16.1,14.8"/>
	</g>
</g>
<g>
	<path class="st0" d="M1294.8,910.4c-0.5-5.3-7.9-10.8-13-6.5c-5.7,4.4-14.7,12.8-17.4,20.7c-3,7.8,0.2,15.2,11.5,14.9
		C1292.6,938.9,1296.5,922.3,1294.8,910.4z"/>
</g>
<g>
	<path class="st0" d="M1293,928.9c0.6-0.1,7.4,9.2,8.1,17.5c1.5,8.9-2.9,16.9-6.8,26.2c-3.2,11.3-15.4,10.1-24.8,5.8
		c-9.8-4.4-16.8-12-18.7-15.3c-1-6.5,24.5-14.5,41.8-17.9c17.5-2.5,38-13.5,38.3-12.6"/>
</g>
<g>
	<path class="st0" d="M1331,910.9c3.2,6.9,7.4,12.8,9.2,18.7c2.2,6,2.2,12,6.7,21.3c-2.1-1.7-3.6-12.5-3.9-21.5
		c0-9.1,1.3-16.4,11.6-15.3c10.2,4.3,14.2,6.8,14.5,6.8"/>
</g>
<g>
	<g>
		<path class="st0" d="M1377.5,926.2c10.8-0.4,17.7,4.4,24.5,3.4c6.1-0.2,12-6.1,6.1-9.6C1397.6,908,1380,912.6,1377.5,926.2z"/>
		<path class="st0" d="M1377.5,926.2c0.1,0.6-6,26.1,25.9,24.5"/>
	</g>
</g>
<g>
	<g>
		<path class="st0" d="M1416.8,928.4c10.8-0.4,17.7,4.4,24.5,3.4c6.1-0.2,12-6.1,6.1-9.6C1436.9,910.2,1419.3,914.8,1416.8,928.4z"
			/>
		<path class="st0" d="M1416.8,928.4c0.1,0.6-6,26.1,25.9,24.5"/>
	</g>
</g>
<g>
	<path class="st0" d="M1531.1,884.7c8.2,23.7,8.3,47.4,16.5,71.1"/>
</g>
<g>
	<path class="st0" d="M1516.6,908.8c16.1,2.4,16.4,4.7,32.5,7.1"/>
</g>
<g>
	<path class="st0" d="M1590.3,914.5c-4.1-3.6-10.1-4.5-14-2.3c-6.9,2.5-14.2,10.9-15.1,18c-1.3,7.4,3.9,13.5,13.6,17.8
		C1595.2,954.6,1609.5,926.7,1590.3,914.5z"/>
</g>
<g>
	<path class="st0" d="M1622.9,899.4c4.6,10.8,10.3,20,12.8,29.3c3.1,9.4,3.1,18.9,9.7,33.4c-0.9-0.7-3.2-13.7-2-21.7
		c1-8.5,5.4-12.2,12.7-5.5c9.4,6.2,17.4,12.7,16.2,18c-0.7,5.2-10.5,9.3-26.9,9.2"/>
</g>
<g>
	<g>
		<path class="st0" d="M1676.1,947c10.8-0.4,17.7,4.4,24.5,3.4c6.1-0.2,12-6.1,6.1-9.6C1696.2,928.9,1678.6,933.4,1676.1,947z"/>
		<path class="st0" d="M1676.1,947c0.1,0.6-6,26.1,25.9,24.5"/>
	</g>
</g>
<g>
	<path class="st0" d="M1848,941.6c-2.9-2.6-7.1-3.2-9.9-1.6c-11.3,4.8-16.5,20.5-1.1,25.3C1851.4,969.9,1861.5,950.3,1848,941.6z"/>
</g>
<g>
	<path class="st0" d="M1767.7,905c2.6,10,6.6,19,8.3,27.7c2.1,8.9,1.9,17.4,5.3,31c-0.6-0.5-2.1-12.6,0.4-20.4
		c2.2-8.1,8.3-11.9,18.7-4.4c13.4,6.3,21.5,12,18.4,16.7c-2.7,4.6-16.5,8.1-37.5,8.1"/>
</g>
<g>
	<path class="st0" d="M1862.1,931.5c-3.6,20.1-1.3,34.3,17.6,32c17.1-2.8,14.9-32,13.7-32"/>
</g>
<g>
	<path class="st0" d="M1904.5,933.5c2.5,5.1,6,9.7,7.5,14.2c1.9,4.6,1.8,9,4.9,15.9c-2.5-1.8,1.1-10.3,3.2-17.8
		c2.7-7.5,3.9-14,11.8-12.1c9.6,4.7,12.1,11,16.1,16.9c3.3,5.8,8,11.2,7,11.5"/>
</g>
<g>
	<path class="st0" d="M1971.6,900.9c15.5,20.5,14.2,36.4,30.2,51.7c-0.1-0.3-8.5-5.1-15.1-10.9c-7.2-5.3-12.7-11.6-21-2.1
		c-7.6,9.5-3.5,16.7,4.1,20.9c7.8,3.8,19.1,4.5,32-7.9"/>
</g>
<g>
	<g>
		<path class="st0" d="M2038.3,891.7c3.1,13,7,24.5,8.7,35.7c2.1,11.4,1.9,22.6,5.6,40.2c-0.7-0.4-3.2-16.1-1.3-26.2
			c1.7-10.7,7.8-15.8,21.5-8.7c19.4,2.9,11,12.7,1.5,19.9c-10.1,7.6-21.3,12.8-21.6,15"/>
	</g>
</g>
<g>
	<path class="st0" d="M2093.3,919.8c2.4,18.9,5.1,30,10.7,38.4c5.3,7.8,13.5,12.7,18.4,6.5c11.6-8.2,8.2-40.9,7.6-41.9"/>
</g>
<g>
	<path class="st0" d="M2129.8,942.4c0.3-0.2,7.5,11.8,10.7,23.9c3.9,12.6,3.8,25.3,7.6,38c6.9,28.2-38,1.9-36.5-10.6
		c0.7-11,17.7-21.2,29.3-23c6.3-1.7,12.3-3.5,17.5-6.8c5-2.9,9.2-7.5,9-6.4"/>
</g>
<g>
	<path class="st0" d="M2261.5,905.7c-8-9.3-16.3-16.9-21-16c-5.3,0.6-6.9,9.6-17.2,25.1c-10.6,20.6-7.7,33.2,2.1,43
		c10.1,9.1,27.1,15.4,50.1,6.1"/>
</g>
<g>
	<path class="st0" d="M2280,890.5c3.5,12.6,8.7,24,11.2,34.9c2.9,11.1,3.2,21.5,6.6,36.8c-1.2-2.1-1.5-36,9.3-36.7
		c5.2-0.5,9.4,10.1,16.3,22c6.2,11.7,14.9,24.6,13.5,24.9"/>
</g>
<g>
	<path class="st0" d="M2338.1,929.4c6.3,17.2,7.4,26.2,11.7,33.3c3.8,6.6,10.8,11.4,18.3,9.5c14.9-1.8,6-37.8,5.8-37.9"/>
</g>
<g>
	<path class="st0" d="M2386,938.4c2.8,7.8,6.9,14.7,8.7,21.4c2.2,6.8,2.1,13.4,5.6,23.7c-2-2.5-2.6-15.8-3.2-27
		c0-11.1,0-20.2,14.4-11.2c10.8,10.7,16.7,18.3,19.5,26c2.9,7.2,2.7,14.5,2.1,13.9"/>
</g>
<g>
	<path class="st0" d="M2419.1,950.8c1,0.4-0.7-24.4,19-7.8c8.7,9.9,11.8,19.1,16.1,27.7c3.7,8.3,8.4,15.9,7.1,15.9"/>
</g>
<g>
	<path class="st0" d="M2453.1,915.3c4,12.4,9.4,23.3,11.8,33.9c2.9,10.9,2.7,21.6,8.4,38.5c-1-1.2-5.7-17.3-5.4-28.7
		c0.1-11.7,5.3-18.7,18.2-10.6c15,5.7,22.2,15.2,18.9,24.2c-2.9,8.8-16.2,17.1-31.7,15.1"/>
</g>
<g>
	<path class="st0" d="M68.2,953.7c-4.3-18.2-24.5-6.6-27.3,18.9c0,13.2,0.9,19.9,5.1,25.8c4.1,5.4,11.5,9.8,23.4,7.4"/>
</g>
<g>
	<path class="st0" d="M101.1,974.8c-15.9-6-26.3,28.2-10.4,32.1c15.4,3.9,19.3-6,20-16.8C109.9,982.2,101.6,975.5,101.1,974.8z"/>
</g>
<g>
	<path class="st0" d="M108.5,982.5c0.2,0.5,3.7,4.9,6.9,10.3c3.5,5.3,6.8,11.5,14.2,12.2"/>
</g>
<g>
	<path class="st0" d="M165.8,973.1c-10.8-4.8-19.9-3-26.1,0.6c-5.9,3.6-8.7,9.2,1.2,11.9c8.5,3,13.4,6.8,19.2,8.3
		c5.2,2,11.3,1.8,9.6,8c-3.7,10.9-18.4,18.5-33.4,5.6"/>
</g>
<g>
	<path class="st0" d="M371.8,981.3c-10.8-4.8-19.9-3-26.1,0.6c-5.9,3.6-8.7,9.2,1.2,11.9c8.5,3,13.4,6.8,19.2,8.3
		c5.2,2,11.3,1.8,9.6,8c-3.7,10.9-18.4,18.5-33.4,5.6"/>
</g>
<g>
	<path class="st0" d="M197.8,974.8c0-0.3-1.1,8.3-1,16.6c0.1,8.7,1.5,17.1,7.5,27"/>
</g>
<g>
	<path class="st0" d="M218.5,973.4c-0.5,0.9,5.3,10.7,8.1,21.2c3.4,10.4,3.8,21.4,5.2,22.3c-1.8-2.3-1.5-14-0.7-24.3
		c1.3-10.4,3.2-19.3,17.2-17.3c14.3,5.5,19.3,14.7,21.9,24.7c2.4,9.7,2.3,20.1,1.6,20"/>
</g>
<g>
	<path class="st0" d="M315.3,978.7c-5.3-4.5-12.7-5.2-17.4-2.4c-8.6,3.3-17.5,14-18.4,22.9c-1.4,9.3,5.3,16.7,17.5,21.8
		C322.3,1028.3,339.7,993.7,315.3,978.7z"/>
</g>
<g>
	<path class="st0" d="M330.5,956.5c0,0.9-0.8,10.3,1.9,18"/>
</g>
<g>
	<path class="st0" d="M476.6,971.2c6.7,26.8,6.9,53.7,13.6,80.5"/>
</g>
<g>
	<g>
		<path class="st0" d="M513.8,1009.4c1.1,9,8.2,10,16.3,8.9c8-1.4,17-4.8,18.4-12.4C549,996.4,515.3,987.5,513.8,1009.4z"/>
		<path class="st0" d="M513.8,1009.4c0.2,0-7.3,35.4,36.6,19.8"/>
	</g>
</g>
<g>
	<path class="st0" d="M557.2,999c9.2,11.3,8.3,19.3,16.3,33.6c-2.3-1.8-4.7-11.6-5.4-20.7c-0.4-9,0.9-17.1,15-13.6"/>
</g>
<g>
	<path class="st0" d="M596.2,995.2c4.5,6.2,9.6,11.6,12,17c2.9,5.5,3.2,11,8.6,19.4c-3.3-2.1-2.8-12.7-4.5-22.3
		c-0.8-9.5-3.7-18.1,6-14.9c12,6.3,14.7,15,20,22.9c4.3,7.8,11.3,14.9,9.8,15.4"/>
</g>
<g>
	<path class="st0" d="M627.4,999.6c0.1,0.6-9.9-21.7,16.9-7.6c11.9,8.6,16,16.2,21,23.1c4.3,6.7,9.5,12.8,7.8,12.9"/>
</g>
<g>
	<path class="st0" d="M708.6,987.3c-27.8-4.6-54.2-5-38.2,7c17.9,10.9,29.9,14.3,43.8,19.5c8.1,7.2-18.4,27.8-31.4,5.9"/>
</g>
<g>
	<g>
		<path class="st0" d="M799.3,1012.6c-3.6-3.8-8.2-4.5-11.2-2.3c-5.3,2.9-12.1,11.5-13.5,19.3c-1.8,8,1.7,15.2,9,18.8
			c9.3,3.4,13.1-4.2,17.1-11.2C804,1029.6,807.5,1022.4,799.3,1012.6z"/>
		<path class="st0" d="M804.1,1021.5c1.2-0.1-3.2,16.6,18.4,14.9"/>
	</g>
</g>
<g>
	<path class="st0" d="M895.9,970.7c2.5,1.8,5.5,19.3,9.7,32.9c4,14.2,9.2,24.6,10.3,26c0.2-0.9-6-6.5-11.2-13.4
		c-5.7-6.3-10.3-13.9-18.9-5.8c-5.2,6-7.7,15.7-6.6,21.6c0.2,5.4,4.7,12.3,10.3,12.9c5.9,1,13-4.4,26.4-15.4"/>
</g>
<g>
	<path class="st0" d="M822.5,1010c2.9,5.7,7.3,10.7,9.2,15.6c2.3,5,2.2,9.8,5.9,17.3c-2.5-2-0.6-11.8,0.2-20.2
		c1.6-8.2,2.1-15,15.9-7.8c19,14.6,24.7,27.6,23.4,28.8"/>
</g>
<g>
	<path class="st0" d="M1289.6,1062.9c-4.2-20.7-4.4-30.3-10-44.9c-1.8-8.6,5.7-16.1,13.9-15.1c6,0.7,11.7,3.5,15.8,5.7
		c4,2.5,6.4,4.4,5,10.4c-7.8,25.2-28.8,8.1-30.6,12.5"/>
</g>
<g>
	<path class="st0" d="M1300.3,1032c2.7,0,18.4,26,21.6,27.1"/>
</g>
<g>
	<path class="st0" d="M1324,1024.2c6.2,15.4,6.3,23.6,10.2,30c3.6,5.9,11.1,10,23.3,7.9c24.5-2.9,7-34.5,7-35.5"/>
</g>
<g>
	<path class="st0" d="M1378.8,990.3c0.4,3.1-7,57,17.1,68.7"/>
</g>
<g>
	<path class="st0" d="M1399.2,1043.6c18.5-1.3,26.6-1,31.8-5.1c4.6-3.5,6.2-11.4-1.5-14.3c-5.6-3-20.3,4.9-26.8,13.2
		c-6.3,8.8-4.2,18.1,28.7,28.4c23.4,3.9,19.8-15.8,19.4-15.6"/>
</g>
<g>
	<path class="st0" d="M1479.3,1018.8c-10.9-3.8-20-2.5-26.1,0.6c-5.7,3.2-8.6,8.1,2.3,12.3c11.4,3.7,20.4,9.2,31.1,12.4
		c9.6,3.9,20.8,5.3,9.2,17.7c-15.4,22.5-40-4.5-38.6-4"/>
</g>
<g>
	<path class="st0" d="M1517.2,1060.9c5.7,8.6-0.6,10-0.5,10.8"/>
</g>
<g>
	<g>
		<path class="st0" d="M2539.5,955.3c-2.2-3.7-6.7-5.9-10.1-4.7c-11.7,2.9-26.2,23.9-11.7,32.1c8.1,5.6,13.1-0.2,17.8-5.8
			C2539.8,970.6,2543.9,964.6,2539.5,955.3z"/>
		<path class="st0" d="M2541.5,963.6c0.4,0-5.4,13.8,14.3,16.9"/>
	</g>
</g>
<g>
	<path class="st0" d="M441.4,1002.4c19-1.9,37.9-1.9,56.9-3.8"/>
</g>
<g>
	<path class="st0" d="M1012,996.8c-22.7-11-58-9.9-37.4-1.1c12.6,3.9,19.4,11.9,27.3,17.2c7.1,5.9,15.3,9.2,14,16.1
		c-4.5,12-22.6,21.2-40,4.4"/>
</g>
<g>
	<path class="st0" d="M1208.2,1021.3c-13.1-6.3-33.5-5.7-21.6-0.7c7.3,2.3,11.2,6.9,15.8,9.9c4.1,3.4,8.8,5.3,8,9.3
		c-2.6,7-13,12.2-23.1,2.5"/>
</g>
<g>
	<g>
		<path class="st0" d="M1030.4,1019.4c-5.6,16.3-0.7,24.8,10.9,27c4.7,0,5.7-4.6,7.5-8.5c1.5-4.1,3.7-7.5,3.1-10.3"/>
		<path class="st0" d="M1050.9,1033c-1-0.6,0.8,12.6,18.4,12.3c10.2-1.9,6.8-21.2,1.8-26.2"/>
	</g>
</g>
<g>
	<path class="st0" d="M1086.2,1027.4c12.7,2.5,17.4,4.8,21.4,3.4c3.5-1.1,6.2-6,3.3-8.3c-4.1-7.5-28.4-6.1-24.2,11.7
		c4.7,17.5,26.1,10,26.4,9.2"/>
</g>
<g>
	<path class="st0" d="M1122.8,1027.8c12.7,2.5,17.4,4.8,21.4,3.4c3.5-1.1,6.2-6,3.3-8.3c-4.1-7.5-28.4-6.1-24.2,11.7
		c4.7,17.5,26.1,10,26.4,9.2"/>
</g>
<g>
	<path class="st0" d="M1163,1047.1c0-2.5-7.3-21.2-4.7-27.2c2.7-5.2,27.3-2.7,18.6,7.1c-4.9,5.9-8.4,5.1-11.6,5.3
		c-3.1-0.2-5.8,0.7-5.9,0.6"/>
</g>
</svg>
