<?xml version="1.0" encoding="utf-8"?>
<!-- Generator: Adobe Illustrator 25.0.0, SVG Export Plug-In . SVG Version: 6.00 Build 0)  -->
<svg version="1.1" xmlns="http://www.w3.org/2000/svg" xmlns:xlink="http://www.w3.org/1999/xlink" x="0px" y="0px"
	 viewBox="0 0 2522 1044.4" style="enable-background:new 0 0 2522 1044.4;" xml:space="preserve">
<style type="text/css">
	.st0{opacity:0.5;}
	.st1{fill:none;stroke:#64648A;stroke-width:1.3333;}
</style>
<g class="st0">
</g>
<g>
	<g id="Layer_1">
		<g id="Layer_2_1_">
		</g>
		<g>
			<g>
				<path class="st1" d="M450.5,511.8c-0.8,26.6,8.2,52,15.1,76.9"/>
				<path class="st1" d="M434.5,547.8c17.2,1.1,33.9,1.6,50.7,1.9"/>
				<path class="st1" d="M493.4,557.9c-8.6,4.4-13.2,33.6,7,35c-0.4-0.3,26.2,1.2,23.4-19.9C519.3,552.2,493.1,558.1,493.4,557.9z"
					/>
			</g>
		</g>
		<g>
			<g>
				<path class="st1" d="M609.5,559.1c-1.3,0.3-7,10.2-0.5,19.8c4.5,9.6,21.1,18.9,20.6,18.9c0.8-0.2-6.1-4-9.7-9.3
					c-4.1-5.3-4.9-12-1.8-18.1c5.9-12.2,26.9-21.5,30.9-12c4.8,5.9,5.6,8.7,5.4,8.7"/>
				<path class="st1" d="M655.3,570.8c29.1,7,37.3,0.1,34-6.4c-2.1-2.9-9.4-4.9-18.7-3.2c-8.7,1.6-19.4,6.8-14.3,18.3
					c17.8,23.2,38.9,9.6,38.4,9.7"/>
				<path class="st1" d="M740,567.1c-15.2-4.8-39.5-4.5-39.4,12.7c5.1,18,37.9,17.7,38.1,7"/>
				<path class="st1" d="M747.9,573.5c29.7,6.2,38.3-0.4,31.9-6.7c-6-4.9-38.6-5.9-30.7,14.6c8.6,22.1,33.3,9.7,34.4,9.6"/>
				<g>
					<path class="st1" d="M794.3,559.4c6.5,0.6,5.6,5,5.6,5.1"/>
					<path class="st1" d="M802.4,571.6c3.9,6.7,6.4,14.5,5.8,22.4"/>
				</g>
				<path class="st1" d="M827.5,568.6c6.1,13.6,11.5,26.8,11.1,26.6c0.5,0.1,28.8-17,20.5-27"/>
				<path class="st1" d="M875.4,573c29.4,6.9,40.4-0.5,28.2-9.7c-6.2-4.1-16.7-4.9-22.1-2.1c-5.9,2.9-6.8,9.4-6,20.8
					c-1.5,12.1,1.8,15,9.7,14.8c7.2-0.2,18.9-3.6,18.2-3.6"/>
			</g>
		</g>
		<g>
			<g>
				<path class="st1" d="M1264.1,549.4c-21.8-6.3-47.6-2.2-31.8,2.8c15.9,5.1,39,14.1,32,24.9c-7.5,10.7-28.1,17.6-35.3,6.5"/>
				<g>
					<path class="st1" d="M1016.5,548.6c-8,21.6,8.9,35.6,22.6,35.5c11-0.6,6.2-20.5,4.4-27"/>
					<path class="st1" d="M1045.5,565.1c-0.3,0,10.1,17.2,28.3,14.5c11-3.5,3.4-29.2-3.1-33.8"/>
				</g>
				<path class="st1" d="M1100.3,561.7c29.7,6.6,38.3-0.6,32.3-8.7c-5.9-7.6-39.9-5.5-30.9,17.7c8.8,23.8,33.9,9.8,34.6,9.8"/>
				<path class="st1" d="M1141,567.5c31.1,6.4,41.5-0.8,35.7-9.1c-6.6-7.9-42.3-4.9-35.2,18.1c4.7,23.6,33.8,9.9,34.9,9.8"/>
				<path class="st1" d="M1192.6,590c0,0,0.7-7.3-0.1-15.4c-0.5-8.1-2.6-16.9-0.8-20.4c3-7.2,39.5-6.5,27.7,6.3
					c-13,12.7-27.3,11.4-27.1,11.4"/>
				<path class="st1" d="M993.3,520.3c-12.8,4.6-26.2,10-38.7,16.1c0.6,0.9,54.3,8.1,44.6,33.9c-3.1,13.6-10.3,16.6-20.1,14.9
					c-9.4-1.7-21.4-8.1-25.2-12.4"/>
			</g>
		</g>
		<g>
			<g>
				<path class="st1" d="M1318.7,524.9c-7.8-9.9-22.1-5-23.9,16c-1.1,20.5,6.6,47.5,32.4,33.4c4-4.5,7.9-12.8,8-12.8"/>
				<g>
					<path class="st1" d="M1375.9,519.5c4.2,2.6,4.5,5.6,4.5,5.6"/>
					<path class="st1" d="M1382.4,542.3c-0.3-0.2,6.4,19.6,13.2,29.1"/>
				</g>
				<path class="st1" d="M1401.6,540.8c3.4,10.8,6.6,22.6,8.3,34.4c1.2-0.7-9.2-44,19.3-39.3c14.7,1.5,23.9,11.1,26.5,20.3
					c3.1,9.3-0.4,18.2-0.3,18.3"/>
				<path class="st1" d="M1493.9,535.2c-18.8-6.8-39.7-3.2-26.2,2.2c13.6,5.5,33.6,15.5,27.8,26.6c-6.3,11.1-22.8,17.3-28.9,5.4"/>
				<path class="st1" d="M1348.4,538c6.2-2.1,16.8,6.5,21.6,9.9c5.4,4,6.7,9.8,6.7,15.8c-0.1,2.9-2.7,7-5.2,8.4
					c-9.7,5.4-25.5-4.5-29.3-14.4C1340.4,553.8,1343.8,539.2,1348.4,538"/>
			</g>
		</g>
		<g>
			<g>
				<path class="st1" d="M1550.3,496.5c-1.5,29.2,7.6,57.4,14.2,84.7"/>
				<path class="st1" d="M1535.4,536.5c13.6-2,27.1-3.6,40.4-5.6"/>
				<path class="st1" d="M1582.5,559.1c-0.5,7.6,2.6,14.4,12,16.8c-0.1-0.6,26.1,6.1,27-16c0-5.6-1.8-9.7-4.4-12.7
					C1605.1,534.5,1583.3,543.2,1582.5,559.1z"/>
			</g>
		</g>
		<g>
			<g>
				<path class="st1" d="M1680.1,594.8c-23.1-10.8-35-25.4-29.9-36.9c3.6-11.5,24.2-19.9,31.3-18.5c8,1.3,7.5,7,5.5,12.7
					c-2.6,5.7-6.7,11.5-17.4,13.1c-21.5,2.8-20.8,0.1-20.7,0.1"/>
				<path class="st1" d="M1714.2,558.5c-6.6-2.4-15.7,2.7-17.1,8.7c-2,6,3.7,13.1,12.1,14.5c15.7,2.5,13.8-5.1,12.8-12.4
					C1720.9,562.6,1714.3,558.5,1714.2,558.5z"/>
				<path class="st1" d="M1719.7,564c-1.4-0.1,11.4,14.9,22.5,15.6"/>
				<path class="st1" d="M1737.6,562.7c2.5,8.2,9.3,17.2,19.9,26.1c-0.4-0.3-8.6-8.3-8.9-15.5c-1-7.2,5.9-13.4,18.5-10"/>
				<path class="st1" d="M1782.5,544.3c1.9,10.2,10.9,26.4,28.3,43.3"/>
				<path class="st1" d="M1764.8,557.4c13.5,2,37-3.2,36.9-3.1"/>
				<g>
					<path class="st1" d="M1827.7,547.2c-2.2,1.8,0.1,5.5,0.2,5.6"/>
					<path class="st1" d="M1828.3,557c-0.6-0.7-2.6,17.9,11.6,26.7"/>
				</g>
				<path class="st1" d="M1883.8,559.5c-0.1,0-22.8-3.6-31.6,1.8c-9,5,5.5,27.7,32.4,16.1"/>
				<g>
					<path class="st1" d="M1892.4,549c0.4,2,6.5,5.1,6.5,5.1"/>
					<path class="st1" d="M1903,557.9c0.2-0.7,10.5,17.2,23.5,22.9"/>
				</g>
				<path class="st1" d="M1942.5,590.5c-4.1-13.6-20.8-32.4-1.4-35c19.2-3.8,33.8,7,13.3,13.4c-20,6-19.8,4.2-19.7,4.2"/>
				<g>
					<path class="st1" d="M1991.4,559.7c-8.4-1.9-12.6,2.8-15.2,8.4c-2.2,5.6-2.9,11.9,3.1,13.6c12.2,2.7,21.1-4.7,21.6-11.9
						C2001.4,563.3,1991.3,559.7,1991.4,559.7z"/>
					<path class="st1" d="M1999.1,564.7c1.2-0.2,7.9,14.5,15.4,15.5"/>
				</g>
				<path class="st1" d="M2016.4,544.6c20.2,11.4,34.5,27.1,26.5,43.1"/>
				<path class="st1" d="M2009.6,557.1c18.2,2.3,41.9-5.9,41.1-6"/>
				<g>
					<path class="st1" d="M2066,560.5c-2.2,10.4,22,11.2,30.2,3c3.9-4.3-5.5-9.3-13.8-11C2073.9,550.7,2066.6,552.2,2066,560.5z"/>
					<path class="st1" d="M2066,560.5c0.4-0.1,0.4,6.9,1.1,12.8c1.5,5.8,3.7,10.5,26.1,5.5"/>
				</g>
			</g>
		</g>
		<g>
			<g>
				<g>
					<path class="st1" d="M2139,523.8c-3.5,3.4-2.7,10.8-2.6,10.8"/>
					<path class="st1" d="M2135.6,541.4c-1.2-0.4-4.5,25.9,8.9,35.1"/>
				</g>
				<path class="st1" d="M2152.9,542.4c1.5,10.8,4.4,21.7,7.2,32.6c-0.6-0.2-4.4-33.8,16.6-31.7c10.2,0.4,19.2,8.9,23.6,18.2
					c4.8,9.1,5.1,19.1,5,19"/>
			</g>
		</g>
		<g>
			<g>
				<path class="st1" d="M2253.4,514.6c-4.1,21.7,2.5,44.8,11.5,67.5"/>
				<path class="st1" d="M2220.4,537.7c17.7,1.4,35.3,2.4,52.9,3.1"/>
				<path class="st1" d="M2288.5,519.3c3.2,18.6,9.9,39.9,14.2,61.4c0.7-0.4-0.9-19.9,4.8-30.6c5.3-10.6,17.8-12.5,36.1,25.9"/>
				<path class="st1" d="M2349.2,562.7c7.1,4.4,13.6,8,19.3,2.5c6.4-5.3,18.6-25.7,5.2-26.6c-12.8-0.2-29.3,12.6-23.5,34.7
					c1.7,11,11,12.7,22,9.2"/>
			</g>
		</g>
		<g>
			<g>
				<path class="st1" d="M548.1,639.1c-17.2-3.1-34,3.7-21.6,6.7c12.3,3.1,32.1,7.8,27,18c-5.6,10.2-27.3,19.3-30.7,11.1"/>
				<g>
					<path class="st1" d="M85.3,633.6c-17.9,19.4,3.4,33.5,21.6,35c13.6,0.5,7.2-18.2,7.3-24.4"/>
					<path class="st1" d="M115.1,651.5c-1.1-0.1,11.9,16.8,35.1,15.9c6.9-1.2,6.3-7.9,5.2-14.8c-1.5-7-3.6-14.3-7-16.6"/>
				</g>
				<path class="st1" d="M167.3,646.2c23.6,8.1,30.3,2.1,26.9-5.3c-2-7-32.1-8.1-26,13.6c11,22.5,30.9,11.5,30.5,11.4"/>
				<path class="st1" d="M221.3,648.5c23.6,7.9,30.4,2,26.6-5.3c-3.1-6.8-32-7.8-25.8,13.4c8.9,22.2,29.2,11.4,29.2,11.3"/>
				<path class="st1" d="M474.7,649.3c30.4,8.5,42.4,2.6,36.3-5.9c-3.3-4.1-14.9-5.9-23.4-4c-8.9,1.9-14.7,7.5-14.2,18.4
					c-0.8,11.3,5.1,14.5,13.4,14.8c7.9,0.3,18.2-2.3,17.9-2.3"/>
				<path class="st1" d="M281.3,681.3c0-0.3-12.3-37-7.3-43.2c4.4-6.9,39.7-3.2,27.5,9.5c-12.6,13.3-26.6,11-26.6,10.8"/>
				<g>
					<path class="st1" d="M356.4,619.5c10.2,12.8,20.2,36.4,13.4,60.2"/>
					<path class="st1" d="M348.3,635.8c11.5-0.6,22.9-1.3,34.3-2"/>
				</g>
				<g>
					<path class="st1" d="M410.2,646.9c-2.7-2.1-6.5-2.8-10.3-1.8c-13.5,3.8-22.6,21.3-12,27.4C399.3,678.6,424,657.1,410.2,646.9z"
						/>
					<path class="st1" d="M414,652.9c0.5-0.1-1.1,12.6,12.7,13.6"/>
				</g>
				<g>
					<path class="st1" d="M420.4,621.8c9.7,12.7,14.6,29.8,6.8,47.7"/>
					<path class="st1" d="M465.8,637.8c-12,0.8-24.2,1.6-36.3,2.4c1.1-0.4,15.8,22,25.3,32.2"/>
				</g>
				<path class="st1" d="M86,611.4C66.2,610,26.1,629.6,28,630c1.2-0.1,18.5-2.7,31.3,13.5c13.4,15.7,27,43.4-32.4,14.3"/>
				<path class="st1" d="M341.5,637c-17.4-1.7-33.8,2.2-27.3,5.8c6.3,3.7,31.2-0.9,35.1,13.1c2.2,14.6-31.3,22.1-43.4,10.3"/>
			</g>
		</g>
		<g>
			<g>
				<path class="st1" d="M656.8,656.3c0.5,9.2,4.1,18.5,10.1,27.9c-0.3-0.1-4.2-8.7-2.1-16.5c1.7-7.8,9.5-14.7,21.9-11.5"/>
				<path class="st1" d="M703.6,655.9c7-1.6,16.4,6.3,21,9.4c5,3.7,5.8,8.8,5.3,14.1c-0.3,2.5-3.7,6.2-6.7,7.4
					c-12.2,4.6-29-5-30.5-13.8C691.7,669.4,698.6,656.9,703.6,655.9"/>
				<path class="st1" d="M742.6,663.2c1.5,7.2,3.8,14.8,6.9,22.7c-1-0.5-5.3-28.1,12.6-21c8.7,3.9,12.7,17.6,12.8,17.7
					c-0.5-0.5-2.7-27,12.8-16.4c15.8,10.2,16.7,18.3,16.6,18.3"/>
				<path class="st1" d="M817.5,659.3c6.5-1.8,18.5,5.3,23.5,8.3c5.7,3.5,7,8.6,6,13.8c-0.5,2.5-4.4,6.1-7.7,7.3
					c-13.2,4.4-27.3-5.1-29.4-13.3C809.3,672.1,813.3,660.3,817.5,659.3"/>
				<path class="st1" d="M853.2,643.7c6.5,13,12,30,12.4,48"/>
				<path class="st1" d="M846.2,664.2c12.8,0.4,25.6,0.7,38.4,1"/>
				<g>
					<path class="st1" d="M876.6,640.6c5.8,1.9,7.4,4.5,7.4,4.5"/>
					<path class="st1" d="M891.2,660c0.4-0.2,8.8,17.3,14,26.3"/>
				</g>
				<path class="st1" d="M917.7,655.7c4.1-2.1,15.4,5.5,19.4,8.7c4.9,3.8,6.4,9.3,5.5,15c-0.4,2.7-3.8,6.6-6.5,7.7
					c-10.6,4.6-18.8-5.5-20.7-14.1C915.2,669.6,915.5,657,917.7,655.7"/>
				<path class="st1" d="M941.3,650.8c10,10.9,16.8,23,18.5,35.5c1.5-0.2-1.4-24.7,3-34.1c4.7-10.1,36.5,12.4,42.6,32.8"/>
				<path class="st1" d="M633.3,717.3c-4.3-5.1-15-16.1-19.8-28.2c-5.4-12-5-25.1-1-34c2.3-5.6,10.4-9.7,14.2-8
					c5.3,2.1,11.9,5.5,17.1,10.4c9.1,9.4,22.8,24.4-32.5,25.9"/>
			</g>
		</g>
		<g>
			<g>
				<path class="st1" d="M1055.4,644.4c5.3-4.2,18.1,3.4,23.6,6c6.4,3.3,9.7,9.3,12.5,15.9c1.3,3.3,1,8.5-0.4,10.8
					c-5.7,9-23.9,2.3-32.2-8.1C1055,664.9,1051.3,647.2,1055.4,644.4"/>
				<path class="st1" d="M1121.7,640.3c-8.8-16.2-26.4-22.6-24.1,6.4c6.8,29.4,29.9,42,28.7,41.9"/>
				<path class="st1" d="M1158.4,638.7c-10-14.2-26.7-19.1-22.7,6.5c6.6,26.3,25.1,37.9,24.4,37.8"/>
				<path class="st1" d="M1171.5,651.6c27.2,5.3,34.6-0.3,29.3-6.9c-5.3-6.3-36.3-4.5-27.9,14.1c8.6,18.8,32.2,7.8,32.5,7.8"/>
				<path class="st1" d="M1255.7,654.8c26.4,7,35-0.1,29.6-8.9c-6.2-8.3-35.1-5.2-29.4,18c3.4,23.9,29.1,11,29.9,10.8"/>
				<path class="st1" d="M1211.9,655.4c0.4,0.3,17.9,25.3,17.1,25.5c1.5-0.5-14.2-42.5,13.2-35c9.4,2.9,10.8,5.2,10.8,5.2"/>
				<path class="st1" d="M1308.8,603.9c17.3,20.2,24.6,42.3,20.8,64.4c1-0.1,1.7-13.6-3.4-23.2c-4.7-9.6-15.1-15.3-25.9-1.4
					c-5.8,13-19.8,48.4,29.3,24.6"/>
				<path class="st1" d="M1092.8,658.7c6.9-1.4,14-2.8,21-4.2"/>
				<path class="st1" d="M1129.6,647.8c5.9,0.7,11.8,1.5,17.6,2.2"/>
			</g>
		</g>
		<g>
			<g>
				<path class="st1" d="M1394.4,604c-4.4,22.9-3.3,46.1,0.1,68.4c0.3,0.3,47.2,9.7,42.4-14.6c-4.6-23.7-29.7-22.3-45.3-15.2"/>
				<path class="st1" d="M1443.7,639.5c-6.7,34.8-1.4,45.6,21.2,38.2c23.5-6.9,29.4-40,28.7-40.1c2.3-1.9,22.1,64.7,7.1,86.8
					c-6.5,10.9-17.1,7-29.6-0.1c-12.3-7.4-26.6-18.1-36.4-28.1"/>
			</g>
		</g>
		<g>
			<g>
				<path class="st1" d="M1610.7,623.5c-7.4,18.4,2.9,37.6,21.9,57.2c0.2,0-6.1-6.9-8.8-14.4c-3.1-7.6-2.7-15.9,2.5-18.6
					c4.9-3.1,11.9,5.3,20.7,14.4c8.3,9.1,18.3,18.9,18.1,19.2"/>
				<path class="st1" d="M1667.2,656.2c19.8,24,30.9,29.4,43.4,23.9c13.6-5.7-6.5-30.2-6.6-29.8"/>
				<path class="st1" d="M1727.6,654.4c5.1,8.3,10.1,17.3,13.7,26.5c1-0.5-16.3-33.4,7.8-23.3c24.8,9.7,18.4,24.6,18.3,24.6"/>
				<path class="st1" d="M1757.2,661.6c0.1-0.1-0.6-13.2,15.3-4.8c17.2,8.3,17.8,26.9,17.1,26.9"/>
				<path class="st1" d="M1777.4,633.2c13.5,13.8,25.2,32.8,23.3,52c0.5-0.3-0.5-10.6-1.6-20c-0.5-9.4-1-18,15-15.3
					c15.8,2.1,22.4,10.7,18.3,18.8c-3.6,8.1-17.8,15.8-31.7,16.5"/>
				<path class="st1" d="M1857.6,655c-8.1-2.1-12.6,4.3-16.6,11.6c-3.5,7.3-6.4,15.5-1.2,17.1c10.6,3,21.9-6.1,24.7-15.5
					C1866.7,659.8,1857.4,655,1857.6,655z"/>
				<path class="st1" d="M1863.8,661.7c1.5-0.1,3.3,18.6,10.1,19.5"/>
				<path class="st1" d="M1588.7,643.1c6-5.1,13.1-15.4,5-15.2c-5.8,0.2-10.3,1.8-17.2,7.7c-6,5.2-10.1,11.2-11.3,17.4
					c-3.2,8.2,0.9,19.2,8.9,24.5c8.5,5.3,21,4.9,44.9-7.3"/>
			</g>
		</g>
		<g>
			<g>
				<path class="st1" d="M2284.9,640.3c-0.2,0.3,17,15.1,4.9,23c-12,8.1-21.4,5.3-21.4,5.2c-7.8-19.4-11.3-57.8,3.8-53.6
					C2285.2,618.5,2302.2,639,2284.9,640.3c-17.7,0.8-23.4-5-23.3-5"/>
				<path class="st1" d="M2301.3,643c-1.7,15.2,11,21.6,21.1,18.2c10.3-3.4,12-18,11.9-18c0.1-0.1,6.7,18.3,6.8,35.6
					c0.2,9.4-2.5,18.9-6.7,26.6c-3.7,6.5-13.6,1.8-17.1,1.2c-6.3-2.4-34.9-9.6-39.4-16.2"/>
			</g>
		</g>
		<g>
			<g>
				<path class="st1" d="M81.6,729.4c-20.6-2.6-53.5,7.5-43,12.2c10.3,4.5,39,10.1,35,20.7c-2.5,10.8-41,8.4-33.7-3.5"/>
				<path class="st1" d="M85.2,746.9c-5.8,20.1,9,21.2,16.8,21c8.3-0.2,11.5-17.2,13.4-21.9"/>
				<path class="st1" d="M123.3,734.4c-2.1,10.2-0.2,22,6,34.7c-1.3-0.2-14.7-21.3,6.8-18.4c20.1,2.3,23.6,17.2-6.8,18.4"/>
				<path class="st1" d="M152.4,748.9c2.8,6.5,6.8,13.5,11.7,20.9c-1.5-0.9,0.5-30.5,12.8-17.2c12.6,13.1,11.8,18.8,11.6,18.6"/>
				<path class="st1" d="M178.9,754.7c0.6,0.3,12.2-20.3,37.6,12"/>
				<g>
					<path class="st1" d="M299.6,738.9c4.5,1.3,5.5,3.1,5.5,3.1"/>
					<path class="st1" d="M310,752.2c0.2-0.2,6.4,11.8,11,18"/>
				</g>
				<path class="st1" d="M239.3,739.8c6.4,8.7,13.7,20.4,19.2,33.2"/>
				<path class="st1" d="M233.3,752.4c9.1-0.2,18.1-0.5,27.1-0.7"/>
				<path class="st1" d="M269.5,738c7.9,8.6,16.3,20.3,21.3,33.1"/>
				<path class="st1" d="M320.9,747.2c8.9,6.7,17.2,14.3,23.2,22.4c0.3-0.4-3.3-8.4-5-15c-1.3-6.7-0.7-12,16.5-7.4
					c24.2,7.9,22.1,22.7,21.4,22.6"/>
				<path class="st1" d="M404.1,748.4c-0.9-3.6-6.7-6.1-10.4-4.7c-9.8,3.7-20.8,16.2-5.2,18.5C402.1,764.2,406.1,754.8,404.1,748.4z
					"/>
				<path class="st1" d="M402.2,758.4c-0.2-0.1,3.3,5.8,1.5,13.4c-1.4,7.5-8.1,16.7-19.7,22.8c-21.9,12-20.2-9.9-19.7-17.5
					c2.4-7.6,63.8-8.9,64-8.9"/>
				<g>
					<path class="st1" d="M220.8,754.4c-0.1-0.2,4.7,11.5,10.5,17.5"/>
					<path class="st1" d="M216.6,742c0.8,1.9,1.6,4,2.5,6.2"/>
				</g>
				<path class="st1" d="M269.5,750.7c7.2-0.1,14.4-0.3,21.6-0.4"/>
			</g>
		</g>
		<g>
			<g>
				<path class="st1" d="M620.7,736.4c-4.4,12.2-2.1,24,4.4,35.7c-0.9,0-6-11.4-2.8-20.6c2.4-9.2,13.1-16.3,26.1-7.9"/>
				<g>
					<path class="st1" d="M658.6,750.4c13.1,3.1,33.7,4.5,27.1-4.4C680.2,737.2,663.3,739,658.6,750.4z"/>
					<path class="st1" d="M658.6,750.4c-1.6-0.3-6.5,24,21.4,20.9"/>
				</g>
				<path class="st1" d="M715.4,745.2c-8.4-3-20.1,1.5-21.9,10.7c-1.5,9.2,9.8,16.4,16.4,12.6C716.7,764.8,726.5,755.7,715.4,745.2z
					"/>
				<path class="st1" d="M710,761c5,3.1,10.2,6.3,15.4,9.5"/>
				<path class="st1" d="M737.9,746.5c-3.6,12.2-2.7,26.5,12.9,24.8c15.9-2,11.6-25.1,11.4-24.6"/>
				<g>
					<path class="st1" d="M772.7,754.5c13.6,2.4,35.1,3.1,25.7-5.4C788.7,741,773.7,744.3,772.7,754.5z"/>
					<path class="st1" d="M772.7,754.5c0.3-0.4-5.3,22.1,21.4,19.6"/>
				</g>
				<path class="st1" d="M830.7,746c-20.9-1.2-34.8,0.3-22.1,5.6c13.1,4.9,60.6,16.4,31.5,21.1c-28.2,4.2-26.7-4.9-26.9-4.9"/>
				<path class="st1" d="M839.3,730.9c-0.1-0.4,6.5,8,10.8,17.3c4.8,9.3,7.4,19.5,11.2,22.7"/>
				<path class="st1" d="M835.1,748c10.7,1.1,21.4,2.3,32.2,3.7"/>
				<path class="st1" d="M879.4,776.3c0.5-0.1,2,12.6-10.4,20.6"/>
			</g>
		</g>
		<g>
			<g>
				<path class="st1" d="M955.6,713.6c-16.4,5.1-33.7,4.8-50.4-0.8"/>
				<path class="st1" d="M930.5,717.3c0.6,18.5,2.2,38.1,3.1,57.8"/>
				<path class="st1" d="M961.3,781c-15.3-5.9-31.1-7.6-47.3-6.8"/>
			</g>
		</g>
		<g>
			<g>
				<path class="st1" d="M1036.8,714.8c-8.5,20.1-6.5,39.5,0.8,58.6c-2.8-0.7,3.9-47.5,31.4-18.7c4.9,6.4,4.3,17.9,4.4,18"/>
				<path class="st1" d="M1074,755c17,6.6,34.3-3.4,26.3-8.9c-7.6-6.2-51.2,9.9-6.7,23.8c0,0,11.9,2.2,16.8-4.2"/>
				<path class="st1" d="M1109.5,745.4c3.2,7.9,7.1,16,11.2,24.3c-0.6-0.3-8.3-29.2,14.6-24.1c8.7,1.6,10.8,5.5,10.8,5.5"/>
				<path class="st1" d="M1153.9,753.1c17.2,6,34.1-4,25.2-9.1c-8.4-4.9-48.9,10.1-5.7,22.9c0,0,11.8,2.2,17-4.1"/>
				<path class="st1" d="M1183.4,729.7c6.6,11.8,13.3,25.2,18.2,39.3c0.3-0.3-9.9-21.9,9.7-21.5c20.3-0.3,46.7,19.4-9.7,21.5"/>
				<path class="st1" d="M1244.4,739.4c-5.4,22.4-3.1,32.6,15.8,24.7c19.4-8,17.6-30.5,17-30.5"/>
				<path class="st1" d="M1272.3,754.3c0-0.1,3.1,9.5-0.2,20.7c-2.8,11.1-12,23.8-26.7,29.5c-28.6,11.1-21.2-3.1-4-21.7
					c16.9-18.7,46.3-16.1,47-16"/>
			</g>
		</g>
		<g>
			<g>
				<g>
					<path class="st1" d="M1335,727c-6.9,19.8,7.2,37.8,26.4,56.1c-2,0.4-29.3-36.3-40.9-12.9c-3.2,12.3,8.6,15.5,19.3,15.6
						c11,0.1,21-2.8,21.6-2.7"/>
				</g>
				<path class="st1" d="M1357.1,764.9c28.2,5.7,34.4-0.5,29.1-7.5c-4.2-6.8-38.8-5.4-26.1,15.5c15.8,20.5,34.1,7.7,34.4,7.8"/>
				<path class="st1" d="M1422.1,756.5c-7.6-4.3-23.2-3.3-21.8,10.4c2.6,13.9,20,23.8,30.3,15.9"/>
				<path class="st1" d="M1432.8,742.7c1.7,20.7,24.7,40.5,23.7,40.1"/>
				<g>
					<path class="st1" d="M1481.4,755.8c-2.6-1.8-6.1-2.2-9.2-1c-12.2,4.4-16.7,20.9-4.7,25.4
						C1479.3,784.7,1494.2,764.4,1481.4,755.8z"/>
					<path class="st1" d="M1485.6,761c0.2-0.1,1.5,11.4,14.7,11.2"/>
				</g>
				<path class="st1" d="M1540.6,766.8c-3.3,15.4,29.2,2,29.7-6.2C1569.6,752.7,1540.9,751.3,1540.6,766.8z"/>
				<path class="st1" d="M1540.6,766.8c0.1,0-2,6.8-0.8,11.9c1.5,5,6.3,8.3,27.8,0.5"/>
				<path class="st1" d="M1495,754.7c8.2,8.5,15.1,17.9,18.3,27.7c0.4-0.3-3.5-8.8-5.6-16.6c-1.8-7.8-1.8-14.8,15.8-12.5
					c15.7,1.2,18.4,6,18.3,6"/>
			</g>
		</g>
		<g>
			<g>
				<path class="st1" d="M1741.5,763c10.8,0,21.7,0,32.5,0"/>
				<path class="st1" d="M1631.7,731c-4.8,18.6,1.1,38.1,10.7,57.6"/>
				<path class="st1" d="M1603.5,741c-0.4,0.4,28.4,6.1,49.9-2"/>
				<path class="st1" d="M1662.4,738.9c1.9,13.4,7,28.2,12.1,43.4c-0.5-0.4-15.3-40.5,20.5-19c14.7,12.4,12.6,17.8,12.7,17.7"/>
				<g>
					<path class="st1" d="M1734.9,759.7c-2.3-2-5.5-2.6-8.6-1.6c-11.9,3.7-18,19.1-7.2,24.2C1729.9,787.9,1746,769.3,1734.9,759.7z"
						/>
					<path class="st1" d="M1738.4,765.2c0.2,0,0.2,11.3,12.3,12.4"/>
				</g>
				<path class="st1" d="M1746.3,742.9c12.8,15.3,20.8,33.1,19.1,51.6"/>
			</g>
		</g>
		<g>
			<g>
				<path class="st1" d="M1922.9,724.7c-10.5,20.3-4.2,39.9,8.3,59.2c-0.4,0.1-9.8-12.9-10.5-23.7c-1.6-10.8,5.4-19.3,18.6-10.4
					c12.1,7.5,29.9,34.4,30.3,34.5"/>
				<g>
					<path class="st1" d="M1990.3,756.8c-2-2.3-4.9-3.4-8.2-2.6c-12.8,2.4-18.5,19.4-6,26C1987.4,786.6,1998.8,767.8,1990.3,756.8z"
						/>
					<path class="st1" d="M1993.1,762.8c-0.1,0,0.4,12.1,12.2,14.2"/>
				</g>
				<path class="st1" d="M2017.5,754.7c1.1,11.8,18.3,25.5,17.8,25.6c0,0,15-20.2,13.9-28.5"/>
				<path class="st1" d="M2065.4,759c8.8,3.2,23.7-0.9,24.7-5.5c1-4.5-0.7-9.6-10.4-5.5C2069.8,752,2065.4,759,2065.4,759z"/>
				<path class="st1" d="M2065.4,759c-2.5,6.5-2.9,20.1,28,16.4"/>
			</g>
		</g>
		<g>
			<g>
				<g>
					<path class="st1" d="M642.1,843c-3.6-2-8-2.4-11.8-0.6c-16.4,6.7-11.9,29.4,6.4,31.3C653.2,875.7,657.9,852.3,642.1,843z"/>
					<path class="st1" d="M648.7,848.8c-0.2,0,6.3,12.8,22.8,10.6"/>
				</g>
				<path class="st1" d="M740.9,817.4c0.4-0.2,10,10.8,15.1,22.6c5.8,11.6,7.3,24,6.7,24.2c1.8-0.6-11.5-28.2-29.7-14.9
					c-5.3,3.7-8.1,8.9-8.3,14.2c0.2,10.1,6.7,18.6,38.1,0.7"/>
				<path class="st1" d="M669.8,848.5c6.2,7.7,12.7,15.4,18.4,23.2c0.2-0.3-21.4-37.1,3.8-28.8c25.8,7.5,26.2,31.5,25.5,31.5"/>
			</g>
		</g>
		<g>
			<g>
				<g>
					<path class="st1" d="M838.9,837.7c-1.6-3-4.6-4.3-9-3.4c-18,3.1-32.8,27.6-14.7,34.9C831.5,876,845,851.2,838.9,837.7z"/>
					<path class="st1" d="M840.5,845.5c-0.5-0.1-1.8,15.4,15.4,16.6"/>
				</g>
				<path class="st1" d="M891.5,837.2c0.3-5.2-5.4-8.6-11.7-6.4c-19.2,5.6-38.1,31.5-11.6,31.7C888.8,862.4,890.6,846.6,891.5,837.2
					z"/>
				<path class="st1" d="M887.3,853.1c-0.2-0.1,17.7,23.5,6.9,42.2c-8.8,18.7-44.8,0.4-50.7-9.7c-6.1-10.8,84.9-29.2,84.7-28.9"/>
				<path class="st1" d="M928.4,838.7c5.3,10.7,11.6,22.5,17.2,34.9c0.1-0.8-16.8-37,6.8-33.2c11.2,2,16.5,6,16.5,6"/>
				<g>
					<path class="st1" d="M977.7,851c17.4,2.4,45.1,2.4,31.5-7.9C995.6,833.8,977.8,839.1,977.7,851z"/>
					<path class="st1" d="M977.7,851c0.7-0.3-5.1,25.9,29.5,22.6"/>
				</g>
				<g>
					<path class="st1" d="M1020.2,851.9c17.6,2.4,45.8,2.2,30.8-9.4C1035.3,831.8,1019.1,838.9,1020.2,851.9z"/>
					<path class="st1" d="M1020.2,851.9c1.5-0.1-5,27.8,29.3,24.5"/>
				</g>
			</g>
		</g>
		<g>
			<g>
				<path class="st1" d="M1211,815.2c-1.7,25.2,9.6,47.5,18.1,68.9c-0.8-0.1-8.8-43.9,12.6-28.9c20.8,15,21.1,28.8-12.6,28.9"/>
				<g>
					<path class="st1" d="M1260.1,861.6c12.5,0.9,32.3-0.7,22.7-10.5C1272.9,842.3,1258.8,849.5,1260.1,861.6z"/>
					<path class="st1" d="M1260.1,861.6c0.7,0,5.7,28,27.4,24.3"/>
				</g>
			</g>
		</g>
		<g>
			<g>
				<path class="st1" d="M1395.1,859.9c-2.9-2.3-6.5-2.8-9.6-1.5c-12.5,5.3-10.8,26,3.5,30.7C1402.5,894,1408,870.6,1395.1,859.9z"
					/>
				<path class="st1" d="M1329.7,811.8c-12.1,26.3-4.8,51.9,9.9,77c-0.2,0-6.8-12.4-6.8-22.7c-0.5-10.3,5.5-18.5,18.5-10.2
					c27,15.8,27.4,30.5-11.7,33"/>
				<path class="st1" d="M1408.6,849.1c-3.9,22.7,1.2,41.5,17.1,37.5c16.6-3.9,13.2-37.6,12.8-37.2"/>
				<path class="st1" d="M1449.1,851.8c3.9,11.4,7.1,23.4,8.8,35.4c1-0.3,2.9-42,17.2-35.3c16.5,6.2,17.4,34.9,16.3,35"/>
				<path class="st1" d="M1504.7,813c18.2,18.6,31.6,41.1,32.4,64.5c2.1-0.6-15.9-33.5-30.8-15.7c-12.7,16.4-3,45.1,30.8,15.7"/>
			</g>
		</g>
		<g>
			<g>
				<g>
					<path class="st1" d="M1585.7,825.5c0,17,5.3,32.6,11.2,47.2c-0.4,0.2-9.7-23.2,7-23c3.6,0,7.1,1,9.9,2.6
						c22.5,12-16.9,20.2-16.9,20.4"/>
				</g>
				<path class="st1" d="M1629.6,845.5c-2.7,22.7,9,27.5,19.4,23.6c10.8-4,3.2-24.9,2.9-25.4"/>
				<path class="st1" d="M1653.1,847c0.9-0.8,14.7,35.8,9.7,54.5c-2.1,9-14.8,6.6-27.9,3.5c-12.9-3.5-26.1-7.6-25.6-13.2"/>
			</g>
		</g>
		<g>
			<g>
				<path class="st1" d="M1758.6,838.5c-4.9,15.7,0.5,33.3,13.7,51.1c-1.5-0.1-10.8-24.3,2.2-27.3c5.6-1.9,12.1,6.5,19.4,15.3
					c6.9,8.8,14.6,18,14.5,18.2"/>
				<path class="st1" d="M1804.3,867.5c11.8,23,22.3,29.2,34.2,27.2c12.6-2.1-0.1-26.5-0.1-26.2"/>
				<g>
					<path class="st1" d="M1851.1,866.1c5.8,9.3,11.9,19.5,16.7,29.6c0.7-0.5-20-37.4,6.6-27.3c27,9.5,21.4,26.6,21.3,26.6"/>
					<path class="st1" d="M1883.2,872.4c0.1-0.1-1.3-14.9,16.3-6.5c18.8,8.3,21.3,28.9,20.5,29"/>
				</g>
				<path class="st1" d="M1923.2,848.3c11,13.1,19.5,29.8,18.4,46.7c0.4-0.2-0.9-9.4-1-17.5c0.3-8.2,1.7-15.4,18.2-12.2
					c34.8,6.2,13.2,31.1-17.2,29.7"/>
				<path class="st1" d="M2002.7,870.6c-12.1-4.8-26.5,20.1-19.2,23.8c9,3.7,19.1-3.8,22.9-11.7
					C2009.8,875.6,2002.6,870.6,2002.7,870.6z"/>
				<path class="st1" d="M2007,876.9c1.1-0.1,0.1,16.7,6,18.2"/>
				<path class="st1" d="M1723.6,856c5.7-3.4,7.2-12.6,7.2-17.4c-0.5-4.8,0.1-9.8-9.2-5.6c-4.7,2.1-13.3,9.5-16.4,18
					c-3.5,8.5-1.4,18.2,6.1,24.6c15,12.9,27.8,7.6,34.6,4.9"/>
			</g>
		</g>
		<g>
			<g>
				<path class="st1" d="M91.4,43.2c-12.9,1.5-11.2,13.3-2.9,20.9c8.1,7.6,22.1,6.8,20.2-1.9C106.6,53.4,106.5,41.5,91.4,43.2z"/>
				<path class="st1" d="M133.8,40c-24.9-2.8-28.8,4-12,8.2c16.8,4.1,30,10,25.3,17.5c-4.5,7.4-20.8,10.6-29.5-0.8"/>
				<path class="st1" d="M159.9,24.8c1.2,11.5,4,28,6.3,44.9c0-0.7-6.5-39.2,16.7-19.5c8.9,7.3,11.6,16.6,11.5,16.6"/>
				<path class="st1" d="M200.9,50.6c5.2,20.4,8.9,23.1,26.6,17.6c19.4-5.6,7.6-27,6.1-26.6"/>
				<g>
					<path class="st1" d="M269.7,46.6c-8.7-1.5-13.8,4.4-17.6,10.9c-3.4,6.5-5.3,13.5,0.8,14.6c12.4,2.1,23.3-6.1,25.1-14.3
						C279.9,50.3,269.6,46.5,269.7,46.6z"/>
					<path class="st1" d="M277.1,52c1.3-0.1,5.8,15.9,13.9,16.3"/>
				</g>
				<path class="st1" d="M48.4,22.7c15.4,1.1,31,1.9,46.7,2.4"/>
				<path class="st1" d="M69.9,24c-0.5-0.1-2.2,9.7,2.1,20.1c3.2,10.4,12.5,21.3,9.5,24.6c-9.6,4-40.7-13.4-39.7-13.6"/>
			</g>
		</g>
		<g>
			<g>
				<path class="st1" d="M827.6,152.5c1.8,7.9,5.5,16.3,11.2,25c-0.2-0.3-4.3-8.1-4.1-14.9c-0.1-6.8,4-12.6,12.5-8.9
					c8.3,4,14.6,18.9,15,19c-1.8-0.7-5.9-29.5,10.4-18.4c15.8,10.6,18.9,19.3,18.8,19.3"/>
				<g>
					<path class="st1" d="M948,154.6c6,9.4,12.4,20.2,17.6,31.4"/>
					<path class="st1" d="M941.7,142.7c4.8,1.2,4.3,5.6,4.3,5.7"/>
				</g>
				<path class="st1" d="M980.1,137.1c2.1,13.5,14.1,46.8,23.5,45.6"/>
				<g>
					<path class="st1" d="M924.1,159.3c-1.9-1.4-4.4-1.9-6.9-0.9c-9.4,3.4-11.6,17.3-1.1,21.1C926.3,183,932.7,166.2,924.1,159.3z"
						/>
					<path class="st1" d="M927.3,163.6c-0.1-0.1,2,9.3,12.1,9.2"/>
				</g>
				<g>
					<path class="st1" d="M744.5,138.6c-0.3-2-1.8-2.8-4.8-2c-12,2.8-23.3,18.4-13,23.2C735.7,164.7,744.4,147.7,744.5,138.6z"/>
					<path class="st1" d="M744,143.7c-1.3-0.1-5,16.8,5.9,17.2c11.1,0.1,22-22.4,20.9-32.3c-1.3-5.5-11.8-7.3-28-2
						c-14.8,5.2-35.3,17.4-22.8,38.5c16.1,16.1,40.2,4.4,40.2,4.5"/>
				</g>
				<g>
					<path class="st1" d="M804.5,144.8c-2-1.7-4.9-2-8.1-0.9c-13.2,4-16.3,20.4-1.7,24C807.8,171,812.5,152.2,804.5,144.8z"/>
					<path class="st1" d="M807.5,160c0.1,5.3,1.8,14.8,5.6,22.9c3.5,8.2,9.2,15,9,15c0.1,0-32.9-12.9-35.3-20.4
						c-2.5-7.5,18.8-8.8,18.7-8.8"/>
				</g>
				<path class="st1" d="M1087.2,156.9c4.6-2.4,15.7,2.8,19.9,5.1c5.1,2.6,6.5,7,5.7,11.8c-0.4,2.4-3.9,6-6.7,7.3
					c-11.4,5.4-20.3-1.4-22-8.6C1084,169.6,1084.7,158.3,1087.2,156.9"/>
				<path class="st1" d="M1032.9,171.2c0.2,2.5,2.8,4.6-1.8,9"/>
				<path class="st1" d="M1126.1,151.7c4.5,10,5.3,20.7,1.2,31.6c0.5-0.2,4.4-10,6.5-18.3c2.8-8.3,3.9-15.3,15.3-9.9
					c13.1,6.3,9.2,26.5,7.6,26.5c0.7-0.1,5-10,7.3-17.8c3-7.8,4.1-13.5,14.6-5.1c18.1,17.2,5.5,29.3,6.2,29.2"/>
				<path class="st1" d="M1069,154.9c-6.2-2.1-10.9,0.3-11.4,7.9c-0.3,3.9,0.5,8.5,2.7,12c4.1,7,12.4,5,16.5-2.2"/>
			</g>
		</g>
		<g>
			<g>
				<path class="st1" d="M425.4,44.1c-20.4-5-31.1,23.7-13.1,27.8c18,3.7,24.7-5.3,24.7-14.5C437.1,49.1,425.4,44.1,425.4,44.1z"/>
				<path class="st1" d="M434.6,50.9c0.3-0.2,11.9,18.7,23.9,20.4"/>
				<path class="st1" d="M298.3,15.9c-9.1,15.1-11,43.5-10,43.5c-0.1,0.1,11.1,7.6,16.1,4.2"/>
				<path class="st1" d="M332.1,41.7c-15.7,0.8-15.8,12.9-9.6,20.6c6.1,7.8,26.1,7.3,27.2-1.1C350.8,52.7,350.9,41,332.1,41.7z"/>
				<path class="st1" d="M378.9,42.9c-14.2-2.4-38.8,19.6,2.1,18.6C393.5,59,393.1,46.5,378.9,42.9z"/>
				<path class="st1" d="M388.1,57.9c0.2-0.2,1.1,24.4-9.3,38.1c-24-13.7-43-29,15.7-34.5"/>
				<path class="st1" d="M454.2,46.1c4.7,9.3,8.4,19.2,10.4,29.3c1.7-0.5-10.6-33.9,13.1-30.3c18.2,3.2,20.5,31.2,19.1,31.2"/>
			</g>
		</g>
		<g>
			<g>
				<g>
					<path class="st1" d="M622.8,31.9c4.7,8.9,10.7,18.6,16.4,28.3"/>
					<path class="st1" d="M616.7,14.2c0.6,2.2,1.4,4.5,2.3,6.8"/>
				</g>
				<path class="st1" d="M713.7,30.1c-10.8,6.9-4.8,19.4,0.2,26.5c4.5,7.1,24.4,0.2,24.2-10.8C737.8,34.9,726.7,21.8,713.7,30.1z"/>
				<path class="st1" d="M738.1,32.4c0.3-0.1,4,5.8,5.5,11.7c1.8,6,1.5,12,1.4,12.1c1-0.4,2.5-11.9,2.9-21
					c1.3-9.1,1.5-15.7,20.2-5.7c21.2,11.8,11.9,28.4,11.4,28.3"/>
				<path class="st1" d="M636.9,11.7c-1-1.2,7.6,24.4,18.3,44.7"/>
				<path class="st1" d="M683.7,23.2c-5.2,4.3-11.1,8.8-17,13.5c-0.2,0,31.1,1.2,36.3,9.9c4.4,8.9-5,23.9-30.7,10.7"/>
				<path class="st1" d="M528.6,15.8c-17.4,21,12.6,38.9,22.2,39.7c5.4,0.4,4.2-6.1,4.8-13.8c0.1-7.7,2-16.4,3.1-20.3"/>
				<path class="st1" d="M556.5,32c-0.1-0.1,3.1,6.4,11.1,13.1c7.6,6.7,19.9,13.5,30,14.5c10.3,0.7,5.6-9.4,2.1-19.8
					c-4.2-10.3-7.2-20.8-7-20.2"/>
			</g>
		</g>
		<g>
			<g>
				<g>
					<path class="st1" d="M371.9,240.8c-4.2-17.9-5.5-36.3-0.8-55c0.7-0.1,27.7,0.7,47.3,13.6c20.9,12.4-0.4,21.4-50.1,18"/>
					<path class="st1" d="M381.2,218.2c13.7,9.9,28.7,18.3,43.3,26.7"/>
				</g>
				<path class="st1" d="M454.2,209.7c-19.1-6.4-30.8,27.9-12.7,32.5c17.7,4.3,23.8-6.2,23.6-16.9
					C464.9,215.7,454.1,209.8,454.2,209.7z"/>
				<path class="st1" d="M462.7,217.7c0.1-0.2,11.6,21.8,23.5,23.6"/>
				<path class="st1" d="M486,207.6c0.1,10.9-4.5,32.9,17.5,30.1c23.7-2.8,18.6-36.5,17.2-36.3c-0.5,0.3-2.1,19.2-2.5,56.8
					c-4.3,38.3-51.7,26.2-63.6,5"/>
			</g>
		</g>
		<g>
			<g>
				<g>
					<path class="st1" d="M562,245.2c1.8-22.1,9.4-43.8,21.8-63.8c0.4,0,27.1,3.3,44.4,17.7c18.4,14.2-10.7,20.1-58.1,10.3"/>
					<path class="st1" d="M587.7,212.7c11.3,10.9,24.5,20.7,37.8,30.3"/>
				</g>
				<path class="st1" d="M694.9,223.3c-18.5-8-35.2,23.4-18.4,29.6c16.5,6,24.2-3.3,26.3-13.4C704.6,230.2,694.9,223.2,694.9,223.3z
					"/>
				<path class="st1" d="M701.9,231.8c0.2-0.1,7.2,22.1,18.5,25.1"/>
				<path class="st1" d="M655.9,218c-18.1-8.7-36.2,23.1-18.6,29.5c17,5.9,24.1-3.4,26.1-13.4C665.2,225.1,655.8,218,655.9,218z"/>
				<path class="st1" d="M761,202.3c0.2-0.3,6.1,13.8,7.3,28.9c1.7,15.1-1.4,31.2-8.4,34c-13.4,5.3-41.3,0-35.1-16.9
					c6.1-17,28.8-18.6,43.9-11.3"/>
				<path class="st1" d="M783,266.7c4.5,8.2-14.7,28.8-14.7,28.7"/>
			</g>
		</g>
		<g>
			<g>
				<path class="st1" d="M793.6,279.2c8-19.5,25.2-36.5,40.4-50.5c-0.2-0.5-1.8,11.9-1.2,24.4c0.2,12.6,2.6,25.4,2.6,26.1"/>
				<path class="st1" d="M805.5,258.9c9.3,0.8,18.5,1.6,27.8,2.3"/>
				<path class="st1" d="M861.1,290.5c0.3,0-8.4-23.4-3.3-33.9c5.4-10.3,26-17.9,34.3-4c7.6,14.7-20.9,19.7-35.5,19.7"/>
				<path class="st1" d="M901.7,229.7c9,18.5,12.3,39.3,9,60.3"/>
				<path class="st1" d="M892.3,248.8c12-1,23.9-2.2,35.8-3.8"/>
			</g>
		</g>
		<g>
			<g>
				<path class="st1" d="M684.9,338.2c-10-2.2-19.8-4.6-29.1-7.3c0.5-0.3-25,9.4-8.5,23.5c20-6.1,31.5-1.5,37.3,12.8
					c4.3,14.1-11.5,40.2-40.3,11.3"/>
				<path class="st1" d="M720.3,349.8c-23.3-6.7-34.2,29.6-12.7,34c19.5,3.8,25-7.3,25-18.3C732.6,355.6,720.3,349.8,720.3,349.8z"
					/>
				<path class="st1" d="M764.1,340.6c1.8,10.2,2.9,21.5,3,33.2c15.2-0.8,30.5-1.6,46-2.4"/>
				<path class="st1" d="M800.2,350.5c2.5,14.2,1.8,29.7-2.5,45.3"/>
				<path class="st1" d="M832.3,339.3c2.9,11.5,2.7,23.6-0.5,35.9c15.4-0.8,30.9-1.6,46.5-2.4"/>
				<path class="st1" d="M866.3,349.4c3.9,16.3,0.5,33-9.2,49.8"/>
				<path class="st1" d="M605,330.9c2.1-9.6,7.8-13.8,24.8-9.3c18.4,4-5.3,8.7-21.1,22.7c-14.6,13.8-24.7,20.8-2.1,30.8
					c23,9.8,27.1,5.7,17.8-6.4C613.1,356.7,603,331.2,605,330.9z"/>
			</g>
		</g>
		<g>
			<g>
				<path class="st1" d="M370,343.6c0.2-1,1.7,5.3,0.4,11.3c-1.2,6.3-5.2,12.3-12.2,19.3"/>
			</g>
		</g>
		<g>
			<g>
				<path class="st1" d="M53.9,514.5c14.9,4.8,30.2,4.4,44.7-1.9"/>
				<path class="st1" d="M77.6,518.1c0.4,17.1,0.3,35.1,0,53.2"/>
				<path class="st1" d="M51.9,577.8c13.4-6.4,27.3-8.3,41.8-7.9"/>
			</g>
		</g>
		<g>
			<g>
				<path class="st1" d="M2150,736.6c-0.2,15.4,5.8,29.7,13.9,43.7c-0.2,0.1-6.6-11.1-6.5-21.7c-0.4-10.5,5.7-20.4,19.3-16.7
					c11.1,2.7,14.2,10.6,14.3,10.7"/>
				<g>
					<path class="st1" d="M2199.3,759.4c-0.1,19.5,33.7,4.4,33.9-4.5C2233.5,746.4,2201,739.7,2199.3,759.4z"/>
					<path class="st1" d="M2199.3,759.4c-0.7-0.1-4,34.9,36.2,17.3"/>
				</g>
				<g>
					<path class="st1" d="M2264,753.9c-2.7-2.4-6.2-3.2-9.6-1.9c-13.4,4.6-20,24.7-6.3,31.1C2261.6,789.7,2276.6,765.6,2264,753.9z"
						/>
					<path class="st1" d="M2268.1,760.7c0.1-0.1,1.3,14.3,15.6,15.3"/>
				</g>
				<path class="st1" d="M2297.3,729.6c-0.1-0.6,9.6,12.1,15.5,25.7c6.5,13.5,9.3,27.8,8.6,28.3c1,0.1-11.6-26-23.1-16.7
					c-11.1,8.9-4.3,18.6,6.8,20.4c11.3,1.7,16.2-3.7,16.2-3.7"/>
				<path class="st1" d="M2332.7,782.3c6.2,7.3-8.1,26.4-8.3,26.3"/>
			</g>
		</g>
		<g>
			<g>
				<g>
					<path class="st1" d="M55.2,907.8c18,3.9,37.5,6.5,57.7,8.2"/>
					<path class="st1" d="M81.7,912.4c-9.7,18.5-7.7,39.2,3.6,59.8"/>
					<g>
						<path class="st1" d="M94.4,942.8c0.6,15.6,29.8,4.4,30.6-2.6C125.9,933.5,95.8,927,94.4,942.8z"/>
						<path class="st1" d="M94.4,942.8c-1.2-0.1-1.5,27.8,32.8,14.8"/>
					</g>
				</g>
				<path class="st1" d="M141,939.2c1.6,8.4,3.8,17.4,6.3,26.5c-0.7-0.4-6.6-34,15.3-21.8"/>
				<path class="st1" d="M177.9,940.9c4.5,9,8.7,18.6,11.5,28.4c1-0.4-7-34.6,7.3-27c16,7,16.8,31.4,15.9,31.4"/>
				<path class="st1" d="M203.5,947.2c0.2-0.1-4.2-15.5,14.7-4.4c19.7,11.4,14.7,30.8,14.3,30.7"/>
				<path class="st1" d="M283.6,938.4c-32-2.3-58.5-3.1-43.7,6.1c14.1,9.5,40,8.8,46.7,16.1c5.2,7.6-35.8,17-42.2,2.2"/>
			</g>
		</g>
		<g>
			<g>
				<g>
					<path class="st1" d="M56.5,838c-7.7,7.2-7.2,16.1-0.4,23c6.4,6.9,19.2,11.9,28.4,11.8c9.8-0.2,7.6-6.5,7-13.6
						c-1.3-7.1-0.9-15-0.6-18.2"/>
					<path class="st1" d="M116.3,838.9c-1,9.7,4.3,19.8,15.4,30.1c-0.3-0.2-9.9-8.3-10.6-15.7c-1.6-7.4,5.8-14.2,19.2-11.4
						c13.9,2.2,20.1,9,25.2,15.4c4.7,6.4,8.4,12.3,8.4,12.5"/>
					<path class="st1" d="M206.4,827.8c1.6,9.4,7.4,22.7,20.7,37.6c-0.4-0.6-8.7-9.1-16.5-15.7c-8.4-6.6-16.3-11.4-27.2-4.1
						c-19.5,15.1-1.6,20.6,43.7,19.9"/>
					<path class="st1" d="M239.9,853.5c31.4,1.6,38-4.3,31.1-9c-6.2-4.4-41.8-0.8-27.7,15.4c16,16.6,38,2.9,38.3,3"/>
					<path class="st1" d="M294.4,846.9c-0.8-0.3,12.6,21,12.8,21.5c0,0.1-1.8-9.6,0.2-16.6c2.1-7.4,7.4-12.2,20.4-8.8
						c8.6,2.6,9.6,4.5,9.5,4.5"/>
					<path class="st1" d="M387.1,848.2c-21.5-4.2-49.9-2.5-34.1,1.1c15.9,3.6,40.1,9.5,35.9,16.9c-4.6,7.4-23,12.8-35.7,4.8"/>
					<path class="st1" d="M388.7,833.4c11.1,9,23.1,23.7,25.4,39.4"/>
					<path class="st1" d="M459.3,845.1c-4-1.8-8.4-2.2-11.9-1c-12.5,4.3-7.8,21.6,5.6,26.8c7.1,2.6,15.2-1.7,17.3-7.7
						C472.7,857.2,469,849.4,459.3,845.1z"/>
					<path class="st1" d="M504,843.6c-4.5-1.8-9-1.9-12-0.4c-10.1,5.4-4.3,23.6,8.9,28c7.2,2.2,16.1-2.6,17.6-9
						C520.4,855.8,514.9,847.7,504,843.6z"/>
					<path class="st1" d="M537.3,822.1c28.1,14.6,43.4,32.1,34.7,49.7c1-0.1,1.8-8.3-3.8-14.3c-5-6-16.3-9.9-24.7-2.1
						c-21.4,15.3-7.2,19.1,9.4,19.7c15.8,0.6,19.1-3.3,19-3.3"/>
					<path class="st1" d="M371.6,841.1c16.1-0.4,32.2-0.9,48.2-1.4"/>
				</g>
				<path class="st1" d="M591.3,870.5c-5,6-12.6,12.1-22.5,18.1"/>
			</g>
		</g>
		<g>
			<g>
				<g>
					<path class="st1" d="M2108.7,853.9c1.9-7.4-2.4-10.8-13.1-9c-9.9,1.9-26.1,9.1-27.8,22.7c0.6,13,10.7,20.1,19,23.3
						c8.9,3.1,15.9,2.3,24.5-0.3"/>
					<path class="st1" d="M2122.4,865.3c-7.4-2.4-14.9,4.9-13.5,13c0.5,8.1,9.8,17.1,17.5,18.1c14.6,1.7,10.2-8.5,7.1-17.9
						C2130.4,869.8,2122.5,865.3,2122.4,865.3z"/>
					<path class="st1" d="M2129.8,871.8c-1.2-0.1,15.7,18.5,25.9,18.4"/>
					<path class="st1" d="M2185.8,859.5c-21.1-4.8-44.7,7.6-26.9,12.5c17.4,4.3,34.7,0.3,34.7,9.6c-0.2,9.4-12.3,18.1-31.6,9.2"/>
					<g>
						<path class="st1" d="M2212.6,858.9c-2.3,2.6,1.3,7,1.3,7"/>
						<path class="st1" d="M2214.8,870.8c-0.5-0.4-1.4,19.6,11.6,27.3"/>
					</g>
					<path class="st1" d="M2234.5,868.4c0.6-0.8,14,28.9,12.7,28.7c1.1-1.3-12.5-32,7.7-29.5c22.3,0.9,19.6,28.3,17.9,28.6"/>
					<path class="st1" d="M2305.5,864.6c-4.3-1.2-8.5-0.8-11.4,1.2c-10.2,7.3-10.2,26.8,5.1,28.2c8,0.7,17-5.2,18.9-12.1
						C2320.5,875.1,2315.8,867.3,2305.5,864.6z"/>
				</g>
				<path class="st1" d="M2330.6,851.3c-2,6.5,0.7,10.6,0.8,10.6"/>
				<path class="st1" d="M2368.8,852.1c-10.1-1.7-22.3,14.6-9.9,17c14.1,2.3,42.8,8.4,23.7,17.4c-19.2,8.7-27.4,0.9-27.6,1"/>
			</g>
		</g>
		<g>
			<g>
				<path class="st1" d="M315.1,181.4c-15.3,5.2-31.1,5.1-46-0.8c-4,19-0.8,38.2,2.8,56.4c0.3-1.4,30.3,0.2,38.4-0.1"/>
				<path class="st1" d="M268.2,214.8c12.9-3,25.7-4.8,38.8-7.5"/>
			</g>
		</g>
		<g>
			<g>
				<path class="st1" d="M458.7,306.9c16.6,0.2,33.4,0,50.2-0.6c1.9,1.8-62,40-59.7,46.9c0.9,6.2,63.9,3.6,64.7,4.4"/>
				<path class="st1" d="M374.8,348.9c-0.8-0.1,3.5-15,14.3-29.2c10.2-14.4,26.9-28.1,36.5-31.1c10.7,21.8,15.2,65.8,14.6,65.9"/>
				<path class="st1" d="M390.6,317.3c15.2,2.6,30.4,4.8,45.6,6.9"/>
			</g>
		</g>
		<g>
			<g>
				<g>
					<path class="st1" d="M1109.4,812.7c1.2,28.4,13.9,53.4,21.6,78.6"/>
					<path class="st1" d="M1167.3,849.4c-4.2-2.9-9.6-3.4-14.4-2c-18.7,5.5-23.2,26.3-3.9,33.7
						C1167.4,890.8,1186.9,864.3,1167.3,849.4z"/>
				</g>
				<path class="st1" d="M1098.3,848.4c13-0.7,25.7-1.4,38.4-2.5"/>
			</g>
		</g>
		<g>
			<g>
				<path class="st1" d="M562.2,932.3c-13.3-8.4-49,0.7-37.7,8.4c12,6.9,34.6,14.7,32.8,22.3c-1.8,7.5-17.5,13.1-34.4,3.8"/>
				<path class="st1" d="M777.4,938.9c-20.3-7-38.8-3.4-24.6,1.9c14.5,5.5,36.6,15.9,32.1,26.9c-4.9,11-21.6,17.1-28.2,5"/>
				<g>
					<path class="st1" d="M576.8,940.9c-13.4,19.7-0.7,34.8,12.4,35.8c10.3,0.1,8.8-19.6,8.6-25.8"/>
					<path class="st1" d="M598,958.5c-0.5-0.1,6.6,17.4,23.6,16c10.4-2.9,6-28.4,1.2-32.7"/>
				</g>
				<path class="st1" d="M639.5,951.7c25.8,7.9,33.7,1.3,28.5-6.4c-4.9-6.8-33.5-7.4-28.1,15c6.4,23.7,30.7,11.7,31,11.6"/>
				<path class="st1" d="M682.2,952.1c26.2,7.9,34.2,1,27.8-7.1c-6.8-7.3-33.4-6.6-27.1,15.8c4.7,24,29.5,12.1,30.2,11.9"/>
				<path class="st1" d="M724.6,991.5c0.1-0.2,3.4-11.4,2-23.2c-0.6-11.8-6-24-5.4-26.8c0.4-6.6,29.4-5.4,23.8,7.1
					c-7.6,12.2-20.3,10.2-19.9,10.2"/>
			</g>
		</g>
		<g>
			<g>
				<g>
					<path class="st1" d="M18.3,163.3c9-5.3,36.5-0.3,26.6,8.9c-10.2,10.4-13.8,7.5-27.3,6.3"/>
					<path class="st1" d="M38.1,177.8c0.5,0,6.1,0.2,13.7,16.4c8.3,16.1-11.2,22.4-24.2,21.6"/>
					<path class="st1" d="M80.6,172.4c-26.9,16.7-19.8,40.2,5.3,39.1c24.4-0.7,27.8-26.1,10.9-18.7c-16.6,7.3-17,7.5-10.9,18.7"/>
				</g>
				<path class="st1" d="M131.5,177.2c21.6-1.6,41.4,8.1,26.4,24.4c-15.3,15.8-40.6,8.7-38.8-1.4c2.2-10,15.1-12.4,25.3-5.5
					c10.5,6.9,15.7,20.5,15.3,20.5"/>
				<path class="st1" d="M211.5,181c-8.7-0.6-17.3-1.2-25.9-1.7c0.6,5.9,0.2,11.8-1,17.8c0,0.1,9-5,16.7,0.3
					c8.1,5.2,11.2,17.6,0.6,23c-10.4,5.3-29.5,4.3-29.7-5.5"/>
			</g>
		</g>
		<g>
			<g>
				<g>
					<g>
						<path class="st1" d="M433.8,716.8c-7.1,19.4-2.4,39.9,7.4,60.1"/>
						<path class="st1" d="M408.6,739.5c12.2,1.5,24.4,2.7,36.7,3.8"/>
						<path class="st1" d="M455,730.3c-2.1-0.6,8.1,39.7,9.9,40.6c-0.8,0.3,3.3-32.6,20.3-18.7c16.4,13.8,15,17.6,15.2,17.6"/>
					</g>
				</g>
				<path class="st1" d="M506.3,751.5c0.2-0.1,5,17.7,13.1,20.4"/>
				<path class="st1" d="M500.4,736.1c1.8,6.7,4.9,7.8,4.9,7.7"/>
				<path class="st1" d="M557.1,741.1c-29.9-0.9-45.4,5-24.5,8.7c21.8,3.2,50.2,17.8,24.1,24.3c-23.8,5.8-35.4-7.1-36.1-7"/>
			</g>
		</g>
		<g>
			<g>
				<g>
					<path class="st1" d="M374.9,930.3c-1.5-2.5-4-3.8-7.2-3.1c-13.5,1.9-20.9,21.9-6.6,28.5C373.3,961.9,381,941.7,374.9,930.3z"/>
					<path class="st1" d="M377,936.8c-0.4-0.1,0.4,12.8,12.5,14.5"/>
				</g>
				<path class="st1" d="M390.3,930.9c3.3,8.5,8,17.3,12.3,26.1c-0.4-0.3-10.4-30.8,9.1-20.4c19.7,9.9,19,22.7,18.8,22.7"/>
				<path class="st1" d="M449.3,916.6c10.6,12.2,17.9,26.9,17,42.2c0.5-0.1,1-9.2-2.9-16c-3.5-6.9-11.2-11.6-18.6-4.7
					c-14.9,12.9-9.5,31.8,21.5,20.8"/>
			</g>
		</g>
		<g>
			<g>
				<g>
					<path class="st1" d="M860.2,945.5c5.4,26.8,10.4,35.1,33.6,33.8c24.2-1.1,7.9-30.5,7.6-30.2"/>
					<path class="st1" d="M917,922.7c0.3-1.9-8.1,48.7,13.9,55.7"/>
					<path class="st1" d="M945.3,963.9c19.9,3.4,30-9.6,21.5-13.1c-8.7-3.1-41.6,16.4-4.2,30.4c14,3.9,16.1-10.9,15.7-10.9"/>
					<path class="st1" d="M1000.3,947c-13.5-4.4-27.5,2.9-17.4,10.2c9.7,7.3,40.2,7.9,21.6,24.2c-18.7,15.6-23.4-3.7-24.3-3.5"/>
					<path class="st1" d="M1010.2,981.4c0.4,6.6-4,10-3.9,10"/>
				</g>
				<g>
					<path class="st1" d="M819.5,984.6c-12-19.8-17.6-40-9.5-60.7c0.6-0.2,22.4-2.7,34.8,8.3c12.2,9.9-2.5,39.5-38.5,18.9"/>
					<path class="st1" d="M825.4,958.1c7,7.2,14.9,14.1,23,20.9"/>
				</g>
			</g>
		</g>
		<g>
			<g>
				<g>
					<path class="st1" d="M1947.8,627.4c0.9-7.5-8.4-9.7-23.6-6.1c-14.3,3.5-34.6,12.7-34.7,27.2c1,13.7,12.7,23,24.8,27.6
						c12.7,4.7,25.9,4.7,44.4,0.9"/>
					<path class="st1" d="M1969.3,645.6c-9.7-2.5-17.9,4.9-17,13.2c0.2,8.4,9.4,17.7,18.6,18.8c17.5,2,15.4-8.5,12.2-18.3
						C1980.1,650.4,1969.4,645.6,1969.3,645.6z"/>
					<path class="st1" d="M1978.8,652.4c-0.9-0.1,17.9,19.3,30,19.4"/>
					<path class="st1" d="M2051.1,644.3c-23.2-4.8-45.6,7.5-27.4,12c17.9,4.3,36.1,0.9,35.1,9.8c-1.6,8.9-16.1,16.5-33.7,7.9"/>
					<path class="st1" d="M2114.8,645.6c-0.2-0.4,4.8,7.5,7.2,15.5c2.8,8,3.2,16,3.1,15.9c0.4-0.6,0-9.4,0.2-17.6
						c0.7-8.2,2.1-15.9,15.5-14.6c13.2,0.6,20.5,8.6,21.1,16.5c1.2,7.9-4.2,15.6-4.2,15.7"/>
					<path class="st1" d="M2210.8,640.1c-5.7-2.1-11.5-2-15.6,0.3c-14.3,8.2-22.1,30.8-4.8,35.4c8.9,2.4,24.4-3.8,30.5-12.1
						C2227.5,655.5,2224.7,645.1,2210.8,640.1z"/>
					<g>
						<path class="st1" d="M2078.3,639.9c0-0.8-0.7,26.3,10.2,38.4"/>
						<path class="st1" d="M2080.5,626.1c-2.4,3-0.7,7.8-0.7,7.8"/>
					</g>
				</g>
				<path class="st1" d="M2231.8,665.4c-2.4,2.9-5.2,5.8-8.4,8.7"/>
			</g>
		</g>
		<g>
			<g>
				<g>
					<path class="st1" d="M969.9,241.9c15.6-13.4,52.6-14.7,34.1,11.9c-17.8,28.9-37,40.8-46.2,25.3c-6.9-16.1,26.4-21.7,76.3,8.3"
						/>
					<path class="st1" d="M1026,241.2c5.1,14,13.6,28.9,21.6,44.4"/>
					<path class="st1" d="M1144.6,309c7.5-7,7.4-26-0.1-41.9c-6.6-16.2-20.6-29.3-20.1-28.8"/>
				</g>
				<path class="st1" d="M1047.7,246.8c6-7.9,16.4-8.9,28.2-5.2c11.6,3.6,32.6,9.3-5.8,16c32.4,10.1,38.8,22.6,35.3,30.4
					c-3,7.6-44.7-2.7-45.2-2.4"/>
			</g>
		</g>
		<g>
			<g>
				<g>
					<g>
						<path class="st1" d="M250,562.5c5.3,5.3,10.8,10.8,15.8,16.4"/>
						<path class="st1" d="M243.9,547.3c1,2.1,2.1,4.2,3.4,6.4"/>
					</g>
					<path class="st1" d="M295.4,546.1c-19.2,2.1-31.5,8.8-18.5,11.3c14,1.8,73.3,16.1,33.4,22.4c-36.5,5.8-31.9,0.3-32.3,0.2"/>
					<path class="st1" d="M305.5,541.4c-1-1.2,11.1,8.5,17.4,18.9c7.3,10.4,8.8,21.6,7.2,22.1c0.2-0.3,3.8-9.6,7.1-16.7
						c3.9-7,7.6-11.9,20.4-2.2c9,12.5,2.1,22.6,2.4,22.6"/>
				</g>
				<path class="st1" d="M167.3,549.1c-0.7,0-3.1,13.6,4.3,23.8c5.7,8.3,18.8,10.8,22.1,4.9c2.6-3.9,4.2-9.5,3.9-16.4
					c12.1,12.9,26.7,19.2,38.5,18.1c7.4-0.7,11.4-7.6,7.6-13.2c-11.3-16.6-12.2-21-12.5-21.1"/>
			</g>
		</g>
		<g>
			<path class="st1" d="M62.6,302.5c-6.1-14.4-14.7-28.5-20.1-46c-0.1-1.5,9.6-20.8,28.1-14.2c20.2,1.7,35.7,26.5,13,32
				c-20.9,4.2-35.7,0.2-35.8,0"/>
		</g>
		<g>
			<path class="st1" d="M88.4,239.9c-1.2,10.5,19.5,70.7,19.2,70c0,0.1-5.6-31.8,7.7-33c14-2.7,27.4,33.1,26.2,34.5"/>
		</g>
		<g>
			<path class="st1" d="M162.4,278.1c-12.9-1.3-18.8,1.5-18.3,16.5c2.2,14.3,19.2,16.1,25.1,15.2c2.5-0.3,10.6-5.6,12.1-12.6
				C183,290.3,178.3,281.8,162.4,278.1z"/>
		</g>
		<g>
			<g>
				<path class="st1" d="M190.6,304.1c1.5,14,31.9-4.9,21-14.6C202.6,282.7,190.2,287.5,190.6,304.1z"/>
				<path class="st1" d="M190.6,304.1c-0.2-0.8-1.8,6,0.8,10c2.6,4.7,9.5,6.6,24.8,10"/>
			</g>
		</g>
		<g>
			<path class="st1" d="M219,301c0.9,12.6,7.6,23.4,12.8,33.9c0.2,0.1-4.6-9.1-5.2-18.4c-1-9.2,2.2-18.6,9.9-17.6
				c14.3-0.9,35.3,25.8,33.2,27.7"/>
		</g>
		<g>
			<g>
				<path class="st1" d="M273.9,302c3.7,9.6,7.2,19.6,9.2,31.9"/>
				<path class="st1" d="M261.6,284c1.2,2.3,2.7,4.3,4.2,6.1"/>
			</g>
		</g>
		<g>
			<g>
				<path class="st1" d="M304.5,299.4c10.8,17.7,29.1,25.4,38.7,43.4"/>
				<path class="st1" d="M340.3,296.4c-7.1,15.7-21.6,24.9-30.2,39.4"/>
			</g>
		</g>
		<g>
			<g>
				<path class="st1" d="M1824.3,727c14.9,4.8,30.2,4.4,44.7-1.9"/>
				<path class="st1" d="M1848,730.6c0.4,17.1,0.3,35.1,0,53.2"/>
				<path class="st1" d="M1822.3,790.3c13.4-6.4,27.3-8.3,41.8-7.9"/>
			</g>
		</g>
	</g>
	<g>
		<g>
			<g>
				<path class="st1" d="M680.7,140.7c1.8-5.4-1.7-16.9-1.7-16.9c6.6,3.8,25.3-0.1,34.8-10c5.7,15,4.2,66.2,4.8,66.2"/>
				<path class="st1" d="M696.2,149.9c11.1-0.9,22.2-1.8,33.3-2.7"/>
			</g>
			<g>
				<path class="st1" d="M439.6,119.4c-10.2-3.8-17.5,12.1-8.2,15.7c9.3,2.9,12.7-2.6,13.3-7.9C445.1,122.5,439.6,119.4,439.6,119.4
					z"/>
				<path class="st1" d="M443.8,123.5c0-0.3,5,11.3,11.6,12.7"/>
			</g>
			<g>
				<path class="st1" d="M278.9,117.3c-17.8-2.2-19.4,23.5-3.8,24.2c15.6-0.5,18.1-9.4,16-16.1C289,119.4,278.9,117.4,278.9,117.3z"
					/>
				<path class="st1" d="M290.7,123.3c0-0.3,13.8,12.6,24.3,11.5"/>
			</g>
			<g>
				<path class="st1" d="M90.1,108.6c-17.2-4.7-22.4,26.4-7.1,28.7c15,2,18.4-7.6,17.4-16.3C99.5,113.1,90.1,108.6,90.1,108.6z"/>
				<path class="st1" d="M97.8,114.8c-0.1-0.1,11.6,17.3,22,17.5"/>
			</g>
			<g>
				<path class="st1" d="M588.9,124.2c-13.1-5.2-21.8,19.3-10.3,23.7c11.8,3.9,16-4,16.7-11.9C595.8,128.7,588.9,124.2,588.9,124.2z
					"/>
				<path class="st1" d="M594.2,130.3c0-0.2,6.5,16.6,14.6,18.4"/>
			</g>
			<path class="st1" d="M606,111.9c2.4,17.7,17.1,47.4,17.2,47.2"/>
			<path class="st1" d="M631.7,115.5c2.2,19.5,16.8,49.3,16.9,49.2"/>
			<path class="st1" d="M653.5,114.6c2.3,20.3,16.7,50,16.9,49.9"/>
			<path class="st1" d="M477.3,114c-12.5-2.9-28-1.8-10.6,5.1c17.4,6.3,25.1,31.1-11.1,21.7"/>
			<path class="st1" d="M119.8,117.6c9.6,8.7,19.4,17.7,29.2,27.1c-0.1-0.5-37.8-34.1,14.3-28.4"/>
			<path class="st1" d="M169.5,101.7c-0.1,0,3.4,7.3,9.8,17.3c6.4,9.8,15.8,22.3,26.1,25.9"/>
			<path class="st1" d="M203.7,102.7c8.5,10.5,18.1,25.8,27.6,43.3c-0.2-2.3-30.4-67.3,30.1-2.7"/>
			<g>
				<path class="st1" d="M318.5,112.3c0.2,11.6,10.2,21.3,10.1,20.9c0-1.7-5.6-26.7,11.1-16.5c16.8,9.6,16,18.3,16,18.1"/>
				<path class="st1" d="M339.7,116.8c0-0.5,3.9-2.6,10.8-2.5c6.9,0.5,16.6,3.1,28.4,21.4"/>
			</g>
			<path class="st1" d="M380.8,108.6c0-0.2,1.1,4.6,3.4,12.6c2.3,7.5,5.8,18.2,10.4,18.7c9.2,1.5,27.8-7.9,20.7-16.7
				c-7.2-8.2-22.1-5.3-30.1,0.9"/>
			<path class="st1" d="M526.4,108.5c0-0.1,0.6,6.5,2.2,15.8c1.6,8.9,4.1,20.5,8.7,21.5c9.1,2.4,28.3-5.9,22-16.9
				c-6.3-10.6-21.4-7.7-30-1.1"/>
			<g>
				<path class="st1" d="M493.6,120.6c-4.4,8.5,17.1,11.4,24.7,5C525.8,119.2,502.3,108.4,493.6,120.6z"/>
				<path class="st1" d="M493.6,120.6c0.1-1-8.3,24.8,24.1,18.7"/>
			</g>
			<path class="st1" d="M31.5,117.1c8,2.7,31.9,1,32.4-9.3c0.5-10.1-8.2-16.5-21.6-7.8c-13.8,8.9-24.1,44.3,29.8,38.1"/>
		</g>
	</g>
</g>
</svg>
