<?xml version="1.0" encoding="utf-8"?>
<!-- Generator: Adobe Illustrator 25.0.0, SVG Export Plug-In . SVG Version: 6.00 Build 0)  -->
<svg version="1.1" id="Layer_1" xmlns="http://www.w3.org/2000/svg" xmlns:xlink="http://www.w3.org/1999/xlink" x="0px" y="0px"
	 viewBox="0 0 2756.6 1164.6" style="enable-background:new 0 0 2756.6 1164.6;" xml:space="preserve">
<style type="text/css">
	.st0{fill:none;stroke:#64648A;stroke-width:1.3333;}
</style>
<g id="Layer_2_1_">
</g>
<g>
	<g>
		<path class="st0" d="M482.8,121.3c-5.7-2.7-14,1.6-16.4,8c-2.8,6.2,0.3,14.6,7.4,14.7c12.5,1.4,16.7-4.6,17-12
			C490.6,125.6,482.6,121.4,482.8,121.3z"/>
		<path class="st0" d="M489,126.9c0.1,0,9.6,14.2,16.9,17.2"/>
	</g>
</g>
<g>
	<path class="st0" d="M310.5,121.9c-7.6-2.1-16.7,2.3-19.6,10.4c-3.2,7.5-0.1,18.7,8.5,18c14.9,2.3,22.2-2.8,22.5-14.6
		C321.4,125.7,310.1,122,310.5,121.9z"/>
</g>
<g>
	<path class="st0" d="M317.7,128c-0.5,0.2,1.4,6.2,5.7,11c4.1,5.1,10.5,9,14.9,12"/>
</g>
<g>
	<path class="st0" d="M100.8,111.2c-7.6-2.1-16.7,2.3-19.6,10.4c-3.2,7.5-0.1,18.7,8.5,18c14.9,2.2,22.1-2.8,22.5-14.6
		C111.7,115,100.4,111.3,100.8,111.2z"/>
</g>
<g>
	<path class="st0" d="M108.1,117.2c-0.5,0.2,1.4,6.2,5.7,11c4.1,5.1,10.5,9,14.9,12"/>
</g>
<g>
	<path class="st0" d="M554.9,39.4c-7.6-2.1-16.7,2.3-19.6,10.4c-3.2,7.5-0.1,18.7,8.5,18c14.9,2.3,22.2-2.8,22.5-14.6
		C565.8,43.2,554.5,39.5,554.9,39.4z"/>
</g>
<g>
	<path class="st0" d="M562.2,45.5c-0.5,0.2,1.4,6.2,5.7,11c4.1,5.1,10.5,9,14.9,12"/>
</g>
<g>
	<path class="st0" d="M649.5,115.2c-7.6-2.1-16.7,2.3-19.6,10.4c-3.2,7.5-0.1,18.7,8.5,18c14.9,2.2,22.1-2.8,22.5-14.6
		C660.4,119,649.1,115.3,649.5,115.2z"/>
</g>
<g>
	<path class="st0" d="M656.7,121.3c-0.5,0.2,1.4,6.2,5.7,11c4.1,5.1,10.5,9,14.9,12"/>
</g>
<g>
	<path class="st0" d="M428.1,6.8c-1.9,21.4-0.9,56.9,0,57.7c0,0.2,5-3.8,12.2-5.6c7.1-2.1,16.3-2.1,24.1-0.9"/>
</g>
<g>
	<path class="st0" d="M478.5,37.6c-13.5-0.9-15.3,13.1-8.2,20.6c6.3,5.5,21.5,7.5,25.1-0.7C498.8,47,493.7,35,478.5,37.6z"/>
</g>
<g>
	<path class="st0" d="M515.5,36.8c-4.9-1.3-15.8,3.9-17.9,9.5c-2.7,5.5,3.4,11.4,19.8,9.9c5.3-0.1,9.8-4.5,9.5-9
		C526.8,42.6,521.8,37.9,515.5,36.8z"/>
</g>
<g>
	<path class="st0" d="M523.4,55.4c1.2-0.2,3.7,27-9.1,38.5C504,87.1,492.5,81.8,493.2,74c0.1-8.7,11.8-7.8,36.5-16.3"/>
</g>
<g>
	<path class="st0" d="M578.5,40.4c-0.4,11.6,7,21.4,14.2,30.5c0.1,0.4-6.7-8.3-6.2-16.1c-0.1-7.8,7-14.8,20.9-12
		c9.4,1.6,19.4,8.2,23,15.4c4.3,7.1,2.2,14.7,2.1,14.6"/>
</g>
<g>
	<path class="st0" d="M715,26.7c-8.7,10.5-6.3,25.4-1.1,33c5.3,8.3,13.4,9.3,19.8,7.2c16.2-5.5,10.7-32.8,9.7-31.9"/>
</g>
<g>
	<path class="st0" d="M740,48.3c-0.4-0.7-1,10.1,3,17.6c3.8,8,12.4,12.8,25.9,11.6c14.8,1.9,18.5-12.1,15.2-23.7
		c-2.7-12.1-12.5-21.7-11.6-21.3"/>
</g>
<g>
	<path class="st0" d="M796.5,51.1c3.8,10,12.7,13,16.5,23"/>
</g>
<g>
	<path class="st0" d="M789.6,28.3c1,4.4,3.3,5.8,4.3,10.2"/>
</g>
<g>
	<path class="st0" d="M671.8,83.8c-0.2,17.7,8.4,29.2,15,40.3c6.9,10.5,11.7,20.7,11.4,21.9"/>
</g>
<g>
	<path class="st0" d="M690.5,87.7c-0.2,17.7,8.4,29.2,15,40.3c6.9,10.5,11.7,20.7,11.4,21.9"/>
</g>
<g>
	<path class="st0" d="M720.4,93.2c-0.2,17.7,8.4,29.2,15,40.3c6.9,10.5,11.7,20.7,11.4,21.9"/>
</g>
<g>
	<path class="st0" d="M874.2,39c-10.2,0.4-20.2-2.3-25.6-1.6c-5.1,0.3-5.5,4,9.5,8.9c14.9,3.5,28.4,10.5,26.9,17.3
		c-1.3,8-12.3,4.2-40.3,7.6"/>
</g>
<g>
	<path class="st0" d="M527,117.9c-16.1-1.2-37.9-4-13.7,6.3c13.5,1.3,23.5,10.6,22.9,14.9c-0.3,5.1-11.2,5.2-34.4,6.4"/>
</g>
<g>
	<path class="st0" d="M899.2,42.2c-13.4-0.9-15.3,13.1-8.2,20.6c6.4,5.5,21.5,7.6,25.1-0.7C919.4,51.6,914.4,39.7,899.2,42.2z"/>
</g>
<g>
	<path class="st0" d="M919,37.7c-0.6,0.2,2.8,9,9,16.6c5.8,7.7,14.5,14.2,13.6,14.3c-0.1,0.3-8.2-10.5-9-19.2
		c-1.3-8.8,4.7-15.4,20.1-7.4c10.2,4,20.1,10.5,24.4,16.9c4.8,6.2,4,12.2,4.1,12.1"/>
</g>
<g>
	<g>
		<path class="st0" d="M32.2,113.3c-6.2,14.1,26.7,14.6,36.8,5.6c5-6.4-2.9-10.6-11.2-12.8C48.9,104.1,39.7,104.2,32.2,113.3z"/>
		<path class="st0" d="M32.2,113.3c-0.8-1-2.5,10.4,1.6,16.8c4,7.2,13.8,9.5,34.3,7.9"/>
	</g>
</g>
<g>
	<path class="st0" d="M122.8,106.8c4.3,14.5,18.6,23.5,26.7,34.4c0.6,0.5-9.4-10.4-11.4-18.7c-2.2-8.6,3.7-14.7,31.2-13.1"/>
</g>
<g>
	<path class="st0" d="M186.1,93.8c-0.8,0.3,2.7,14.7,11.3,26.4c8.1,12.5,21.3,22.2,30.1,31.3"/>
</g>
<g>
	<path class="st0" d="M217.1,88.5c3.9,23.1,21.8,39.4,33.5,56.5c1.3-0.9-6.9-11.8-3.5-18.8c2.5-6.3,16.7-8.6,42.6,23.4"/>
</g>
<g>
	<path class="st0" d="M335.7,119c-3.1,13.2,2.8,21.3,7.2,26.2c4.7,4.9,7.9,6.6,8,6.7c-0.1,0.3-4.6-10-4.6-18.3
		c-0.3-8.3,4-14.7,13.8-7.8c24.9,12.2,22.6,25.9,21.9,25.6"/>
</g>
<g>
	<path class="st0" d="M357.6,124c-0.8,0,7.2-6.6,13.6-5.7c5.9,1.5,23.4,3,35.6,29.9"/>
</g>
<g>
	<path class="st0" d="M416.2,93.8c-0.3-0.2-1.9,14.6,1.4,27.8c2.8,13.4,10.5,25.3,15.9,25.4c10.6,0.4,38.8-3.1,29.9-20.5
		c-10.4-14-32.5-9.3-44.5,0"/>
</g>
<g>
	<path class="st0" d="M574.7,90.3c-0.3-0.2-1.9,14.6,1.4,27.8c2.8,13.4,10.5,25.3,15.9,25.4c10.6,0.4,38.8-3.1,29.9-20.5
		c-10.4-14-32.5-9.2-44.5,0"/>
</g>
<g>
	<g>
		<path class="st0" d="M537.1,121.1c-6.2,14.1,26.7,14.6,36.8,5.6c5-6.4-2.9-10.6-11.2-12.9C553.8,111.9,544.6,111.9,537.1,121.1z"
			/>
		<path class="st0" d="M537.1,121.1c-0.8-1-2.5,10.4,1.6,16.8c4,7.2,13.8,9.5,34.3,7.9"/>
	</g>
</g>
<g>
	<path class="st0" d="M755.6,118c2.5-5.7,0.5-21.6,0.8-21.8c-0.4,0,13.9,19.2,43.3,12.1c10.3,17.1,4.3,60.3,3.1,59.8"/>
</g>
<g>
	<path class="st0" d="M776.6,130.3c9.2-0.4,30.2-0.5,39.4-0.9"/>
</g>
<g>
	<path class="st0" d="M922.7,125.5c-4,11.4,0.2,22,8,32c-0.5,0.2-6.2-9.6-4.3-17.9c1-8.3,9.6-15,17-9.6c9.2,5.8,15.2,22.5,14.7,22.5
		c0.8-0.1-4.4-33.9,14.6-20.9c23.7,13.3,17.8,26.1,17.4,25.8"/>
</g>
<g>
	<path class="st0" d="M1047.8,138.9c3.8,14,12.6,18.4,16.4,32.4"/>
</g>
<g>
	<path class="st0" d="M1041.8,124c4.4,2.2,4.5,6.8,4.1,7.3"/>
</g>
<g>
	<path class="st0" d="M1067.8,121.6c-2.8,26.4,14.2,46,21.8,52.2"/>
</g>
<g>
	<g>
		<path class="st0" d="M1018.4,140.7c-2.1-1.8-4.5-2.5-7.3-1.6c-11.8,1.9-17.4,21.3-4.1,24.1
			C1017.2,166.3,1028.7,149.8,1018.4,140.7z"/>
		<path class="st0" d="M1021.8,145.7c0.1,0.1,1.7,10.1,13.2,11.8"/>
	</g>
</g>
<g>
	<g>
		<path class="st0" d="M841.2,122.9c-2.1-1.9-5-2.5-8-1.5c-11.6,3.1-16.5,20.1-4.4,23.7C840.4,148.8,851.2,131.8,841.2,122.9z"/>
		<path class="st0" d="M844.6,127.9c0,0.1,1.5,16.5,13.1,17.2c16.7,2.8,25.7-28.6,5.1-36.8c-9.4-1.7-24.1-3.6-37.3,2.6
			c-12.3,5.8-23,19.6-4.9,40.7c16.4,11.5,45.8,3,47.3,3.9"/>
	</g>
</g>
<g>
	<g>
		<path class="st0" d="M897.8,120c-2.9-1.1-6.4-0.8-9.5,0.2c-11.9,1.8-17,21.3-0.9,26.3C904.2,152.8,912.5,125.2,897.8,120z"/>
		<path class="st0" d="M904.6,137.4c1,14-4.4,43.6-4.6,43.2c0-0.7-6.1-6.5-13-10.6c-6.8-4.6-14.3-7.6-13.8-13c1-9.3,27.4-8.7,27.4-9
			"/>
	</g>
</g>
<g>
	<path class="st0" d="M1203.7,142.5c-4,11.4,0.2,22,8,32c-0.5,0.2-6.2-9.6-4.3-17.9c1-8.3,9.6-15,17-9.6
		c9.2,5.8,15.2,22.5,14.7,22.5c0.8-0.1-4.4-33.9,14.6-20.9c23.7,13.3,17.8,26.1,17.4,25.8"/>
</g>
<g>
	<path class="st0" d="M49.8,329.8c-3.5-8-7.7-18.7-10.1-30.2c-4.1-18.6-1.9-37.7,4.2-36c7.8,6.1,50.9,6.7,28,27.8
		c-24.6,14.7-32.1,8.2-32.1,8.1"/>
</g>
<g>
	<path class="st0" d="M79.9,259.7c5.9,16.7,11.3,73.1,12.7,73.5c-2.4-0.4,5.1-61.5,41.1-20c6.7,17.2,4,24.3,4.2,24"/>
</g>
<g>
	<path class="st0" d="M164.6,306c-8.2-2.1-18,2.3-21.1,10.4c-3.4,7.5-0.1,18.7,9.2,18c16,2.3,23.8-2.8,24.2-14.6
		C176.4,309.7,164.1,306.1,164.6,306z"/>
</g>
<g>
	<g>
		<path class="st0" d="M183.6,311.8c-6.6,14.1,28.8,14.6,39.5,5.6c5.3-6.4-3.1-10.6-12.1-12.9C201.6,302.6,191.7,302.6,183.6,311.8z
			"/>
		<path class="st0" d="M183.6,311.8c-0.9-1-2.7,10.4,1.7,16.8c4.3,7.2,14.9,9.4,36.9,7.9"/>
	</g>
</g>
<g>
	<path class="st0" d="M228.8,303.8c0,14.2,7.8,25.9,15.4,37c-0.1,0.4-6.6-11-6.7-20.4c-0.5-9.4,5.4-16.9,18.2-9.4
		c14.9,6.2,25.4,14.4,29.2,21.8c4.3,7.3,1.9,13.8,2.2,13.5"/>
</g>
<g>
	<path class="st0" d="M295.1,313.5c2.4,16.1,8,21.1,10.4,37.2"/>
</g>
<g>
	<path class="st0" d="M313.3,300.2c10.4,25,34.2,32.7,44.6,57.7"/>
</g>
<g>
	<path class="st0" d="M345.7,303c-5.1,23-16.6,30.1-21.7,53.1"/>
</g>
<g>
	<path class="st0" d="M399,362.5c-0.1,0.1,1.5,5.4,1.1,15.4c-0.3,10.9-3.5,14.6-9.3,27.5"/>
</g>
<g>
	<path class="st0" d="M436.2,380.1c-0.8-1.6,10.3-18.6,21.4-35.3c11-17.1,22-34,18.2-44.3c10.8,11.9,18.7,35.9,20.5,57.5
		c2.4,21.5-1.4,40.5-1.1,40"/>
</g>
<g>
	<path class="st0" d="M459.5,343.1c-3.2,0.3,13.7,6.6,33.3,1.1"/>
</g>
<g>
	<path class="st0" d="M498.7,301.3c18,0.2,35.2-0.6,51.1-5c2.2,0-46.6,65.4-35.9,77.9c3.4,3.7,18.8-2.9,36.3-7.2
		c17-4.8,35.9-7.3,35.7-8.2"/>
</g>
<g>
	<path class="st0" d="M660.1,332.1c-3.5,1.7-7.7,1.7-11.2,0.1c-16.6-6.3-16.6-19,0.9-23.9c7.2-2.6,16.9-2.7,21.5,2.8
		C675.8,316,675.1,326.5,660.1,332.1z"/>
</g>
<g>
	<path class="st0" d="M663.8,380.2c-10.1,6.6-23.4,3.9-27.5-17.2c-1.9-16,6.4-22.7,18.2-24.2c6.8-1.9,15,2.2,18,11.9
		C675.7,359.9,673.6,374.7,663.8,380.2z"/>
</g>
<g>
	<path class="st0" d="M739.2,316.3c-14.3-3-27.8-6.7-39.8-15c0.3,0.2-8.1,4.9-13.1,13.7c-5,8.4-6.6,20.8,8.4,27.1
		c23.4-11.4,42.6-19.4,56.2-2.8c7.8,9.6,1,26.9-8.9,34.7c-10.5,8.6-24.1,7.8-42.9-2"/>
</g>
<g>
	<path class="st0" d="M792,336.4c-9.9-2.7-21.8,2.9-25.5,13.2c-4.2,9.6-0.2,23.7,11.1,22.8c19.4,2.9,28.9-3.6,29.4-18.6
		C806.3,341.2,791.5,336.5,792,336.4z"/>
</g>
<g>
	<path class="st0" d="M850.9,317.2c-8.2,13.9-19.1,28-20.3,46.5c17.8-7.1,37-7.9,57.2-6.3"/>
</g>
<g>
	<path class="st0" d="M867.6,328.4c2.2,27.3,7.4,35.6,9.6,62.9"/>
</g>
<g>
	<path class="st0" d="M924.8,319c-8.3,13.9-19.1,28-20.4,46.5c17.8-7.1,37.1-7.9,57.3-6.3"/>
</g>
<g>
	<path class="st0" d="M941.5,330.3c2.2,27.2,7.4,35.6,9.6,62.8"/>
</g>
<g>
	<path class="st0" d="M813,9.6c-0.2,0.5,2.6,12.6,8.2,23.5c5.3,11.7,13.5,22.2,16.9,37.1"/>
</g>
<g>
	<path class="st0" d="M1164.6,146.3c4.8-1.3,14.5,3.9,19.7,5.1c5.7,1.7,8.7,6,9.3,11.2c0.3,2.5-2.4,6.3-4.8,7.3
		c-9.1,3.3-21.1,0.3-26.8-6.5C1159.6,160.6,1160.7,147.4,1164.6,146.3"/>
</g>
<g>
	<path class="st0" d="M1105.7,160.7c0.4,3.5,3.4,3.8,0,9"/>
</g>
<g>
	<path class="st0" d="M1150.2,147.3c-7.4-1.3-14.8-1.1-21,5.7c-3,3.7-3.2,9.4,0.1,13c6.8,6.2,16.2,5.5,24.7,1.2"/>
</g>
<g>
	<path class="st0" d="M23.9,172.3c4.6-1.9,13.5-1.6,22.2-0.9c8.4,1,16.7,2.3,12.5,8.8c-10.4,10.8-17,10.9-30.4,12.5"/>
</g>
<g>
	<path class="st0" d="M45.1,192.6c0.3,1.2,12.1-3.1,20.9,11.5c6.7,19.4-14.1,17.5-26.1,21.5"/>
</g>
<g>
	<path class="st0" d="M95.7,170.5c-13.9,7.7-24.1,21.7-24.2,32.3c-0.6,10.7,9,18.1,21.8,16.1c13,1,23.3-3.6,26.7-10
		c3.5-6,0.1-13.9-10.6-9.5c-21.2,6.6-21,7.3-15.9,19.4"/>
</g>
<g>
	<path class="st0" d="M134.5,174c17.7,7.6,31.3,12.5,25.6,33.2c-6.5,19.2-15.9,24-24.1,15.2c-8.8-9.9-0.1-23.4,32.8-3.8
		c13.5,9.6,13.7,7.9,14,7.4"/>
</g>
<g>
	<path class="st0" d="M233.6,177.9c-26.9,9.8-67.5,7.3-57.3,23.2c3.6,4.1,10,5.2,15.5,3.6c24.9-5.5,42.1-14.1,45.7,10.1
		c0.5,14.1-7.6,18.2-16.3,18.7c-9,0.4-18.5-2.8-28-6.8"/>
</g>
<g>
	<g>
		<path class="st0" d="M339.7,184.3c-21.5,3.9-42.9,2.9-64.4-2.7c-4.9,20.6-3.7,40.5,2,59.9c0,0.6,17.5,0,34.6,2.6
			c17.5,2,34.5,7.3,41,5.6"/>
		<path class="st0" d="M272.7,216.4c19,2.2,38.1,3.6,57,5.9"/>
	</g>
</g>
<g>
	<g>
		<path class="st0" d="M435.2,249.5c-5.2-19.8-5.4-39.6-0.6-59.4c0.9,0.6,26.3,1.8,48.8,7.3c24.4,8.8-2.9,21.7-52.3,19.6"/>
		<path class="st0" d="M449.4,216.7c14.5,7.1,29.6,12.8,41.8,23.6"/>
	</g>
</g>
<g>
	<path class="st0" d="M515,207.7c-7.6-2.1-16.7,2.3-19.6,10.4c-3.2,7.5-0.1,18.7,8.5,18c14.9,2.3,22.2-2.8,22.5-14.6
		C525.9,211.5,514.6,207.8,515,207.7z"/>
</g>
<g>
	<path class="st0" d="M522.3,213.8c-0.5,0.2,1.4,6.2,5.7,11c4.1,5.1,10.5,9,14.9,12"/>
</g>
<g>
	<path class="st0" d="M543.7,207.2c-3.6,10.3-9.1,33.2,15.4,30.4c24.8-2.2,20.5-31.2,20.1-31c0.2,0.5-7.2,16.7-1.5,48.2
		c2,17-4.4,21.3-12.9,21.7c-8.6,0-19.3-3.8-28.5-13.7c-16.9-24.1,60.3-26.9,59.7-28.6"/>
</g>
<g>
	<g>
		<path class="st0" d="M680.3,251.9c-5.2-19.8-5.4-39.6-0.6-59.4c0.9,0.6,26.3,1.8,48.8,7.3c24.4,8.8-2.9,21.7-52.3,19.6"/>
		<path class="st0" d="M694.5,219.2c14.5,7.1,29.6,12.7,41.8,23.7"/>
	</g>
</g>
<g>
	<path class="st0" d="M790.7,216.8c-7.6-2.1-16.7,2.3-19.6,10.4c-3.2,7.5-0.1,18.7,8.5,18c14.9,2.2,22.1-2.8,22.5-14.6
		C801.6,220.6,790.3,216.9,790.7,216.8z"/>
</g>
<g>
	<path class="st0" d="M798,222.8c-0.5,0.2,1.4,6.2,5.7,11c4.1,5.1,10.5,9,14.9,12"/>
</g>
<g>
	<path class="st0" d="M756.2,215.8c-7.6-2.1-16.7,2.3-19.6,10.4c-3.2,7.5-0.1,18.7,8.5,18c14.9,2.2,22.1-2.8,22.5-14.6
		C767.1,219.5,755.8,215.9,756.2,215.8z"/>
</g>
<g>
	<path class="st0" d="M847.2,192.7c-0.6,0.3,6.2,10,9.9,23.4c3.9,12.9,4.6,29.4-1.5,30.7c-5.8,0.9-14.5,0.7-22.3,0.7
		c-7.8-0.5-14.8-0.8-14.8-10.7c1-18.6,24.2-20,40.1-15.8"/>
</g>
<g>
	<path class="st0" d="M884.8,241.3c7.2,8.1-0.2,23.3,0,26.9"/>
</g>
<g>
	<path class="st0" d="M916.7,250.7c9.6-26.2,30.4-35.8,40-60.8c-0.2,0,4,14.8,4.6,30.5c1.2,15.6-1.1,32.1-1.5,32.5"/>
</g>
<g>
	<path class="st0" d="M931.6,228c6.4,1.1,21,1.4,27.4,2.5"/>
</g>
<g>
	<path class="st0" d="M986.7,265.2c-0.1,1.2-13.3-26.6-5.3-40.3c3.7-6.5,11.1-8.8,18.1-10.5c7.1-1.2,13.9-1.9,19.4,5.7
		c10.3,18.5-22.5,23-39.3,24.3"/>
</g>
<g>
	<path class="st0" d="M1030.5,191c4.9,30.2,16,39.4,20.9,69.6"/>
</g>
<g>
	<path class="st0" d="M1021.1,215.8c10.9-2,35.8-2.7,46.7-4.7"/>
</g>
<g>
	<path class="st0" d="M1118.6,222c11.5-11.2,46.6-15.8,34.6,11.5c-16.4,26.1-36.3,37.7-43.9,24.2c-2.9-8.3,3.7-12.1,18.3-11.8
		c14.2,0.8,36.4,5.8,53.2,27.3"/>
</g>
<g>
	<path class="st0" d="M1183.5,216.8c4.4,22.5,14.5,29.5,18.9,52"/>
</g>
<g>
	<path class="st0" d="M1209.8,216.3c25.5,9.8,58.3,2,36,14.9c-24,9.2-31.1,4.4-30.9,4.6c-0.6,0.3,63.7,12.9,43.8,28.1
		c-17.3,9-35.6-2.9-36.9-2.4"/>
</g>
<g>
	<path class="st0" d="M1274.4,225.7c-0.2-0.1,0.7,11.7,4,21.3c3.2,10.3,8.8,18.4,13.3,28.3"/>
</g>
<g>
	<path class="st0" d="M566.1,574.3c3.9,31.7,12.8,41.4,16.7,73.1"/>
</g>
<g>
	<path class="st0" d="M557.8,609.3c9.6-0.3,31.6-0.4,41.2-0.6"/>
</g>
<g>
	<path class="st0" d="M605.8,617.8c-3.9,0.7-8.6,9.8-7.3,17.4c0.8,7.7,7.6,13.8,16.3,12c-1.3-1,25.8-0.4,19.5-18.7
		c-4.5-8.3-11.6-9.3-17.5-10.1C610.9,617.8,606.1,617.6,605.8,617.8z"/>
</g>
<g>
	<path class="st0" d="M684.2,594.7c-2.5,2.9,33.4,35.7,32.6,35c0.3,0.4-7.7-14-8.1-26.4c-0.8-12.6,6-23.1,27.1-19.1
		c15.5,2.6,19.1,5.7,19,5.7"/>
</g>
<g>
	<path class="st0" d="M755.3,608.3c41.4,12.5,54.2,0.5,44.5-10.5c-5.5-4.3-15.9-5.3-27.1-3.2c-10.6,2.5-21.9,8.1-16.4,27.1
		c7.7,16.3,18.6,16.9,28.7,17.3c10-0.2,19.2-0.6,19.7-1.4"/>
</g>
<g>
	<path class="st0" d="M861.9,601.9c-12.8-2.4-23.4-3-33.8-0.8c-10,2.4-19.9,7.5-20.4,22.5c1.4,15,14,17.7,25.6,19.1
		c11.8,0.8,22.6,0.3,26.6-7.4"/>
</g>
<g>
	<path class="st0" d="M866.6,616.9c41.4,12.5,54.2,0.5,44.5-10.5c-5.5-4.3-15.9-5.3-27.1-3.2c-10.6,2.5-21.9,8.1-16.4,27.1
		c7.7,16.3,18.6,16.9,28.7,17.3c10-0.2,19.2-0.6,19.7-1.4"/>
</g>
<g>
	<path class="st0" d="M930.1,588.1c8.5,3.4,5.4,11.8,4.9,12"/>
</g>
<g>
	<path class="st0" d="M936.4,614.1c2.7,15.5,8.8,20.3,11.5,35.9"/>
</g>
<g>
	<path class="st0" d="M955.3,609.3c-2.8,12.9,4.3,22.5,10.2,28.9c6.2,6.4,11.1,9.6,11,10c-1.5,0.4,27.6-19.4,18.7-37.4"/>
</g>
<g>
	<path class="st0" d="M1010.5,618.9c41.4,12.5,54.2,0.5,44.5-10.5c-5.5-4.3-15.9-5.3-27.1-3.2c-10.6,2.5-21.9,8.1-16.4,27.1
		c7.7,16.3,18.6,16.9,28.7,17.3c10-0.2,19.2-0.6,19.7-1.4"/>
</g>
<g>
	<path class="st0" d="M1175.8,570.9c-20-1.8-39.3-6.6-52.3-9c-12.7-2.2-19.2-2.1-6.7,9.4c12.7,10,31.3,15.7,45.7,23.9
		c14.5,7.8,24.8,18.3,21.2,28.9c-3.5,10.7-13.8,14.9-24.8,16.3c-11.4,1.1-23.5-0.8-38-8.4"/>
</g>
<g>
	<path class="st0" d="M1456.6,609.7c-22-1.6-47.3-12.5-33.9,0.2c14.7,10.2,42.8,16.8,38.5,30.5c-5.2,11.3-20.6,12.4-36.3,4.5"/>
</g>
<g>
	<g>
		<path class="st0" d="M1199.4,608.9c-19.1,25.9,1.3,42.6,16.9,41.5c13.1-0.6,14.4-20.8,12.2-28.4"/>
		<path class="st0" d="M1229.4,630.6c0.2,0.3,7.8,17.7,29.1,18.7c7.4-0.2,13.5-9.3,12.6-18.9c-0.3-9.6-7.5-19.5-12.4-22.1"/>
	</g>
</g>
<g>
	<path class="st0" d="M1277.7,620.9c35.7,11.7,47.6,1.3,39.2-8.6c-4.8-3.9-13.9-4.7-23.7-3.1c-9.3,2.1-19.3,6.5-15.1,23.2
		c6.2,14.4,15.8,15,24.7,15.5c8.7-0.1,16.8-0.2,17.2-0.8"/>
</g>
<g>
	<path class="st0" d="M1330.3,621.3c35.7,11.7,47.6,1.3,39.2-8.6c-4.8-3.9-13.9-4.7-23.7-3.1c-9.3,2.1-19.3,6.5-15.1,23.2
		c6.2,14.4,15.8,15,24.7,15.5c8.7-0.1,16.8-0.2,17.2-0.8"/>
</g>
<g>
	<path class="st0" d="M1390.7,650c0.4-0.2-4.1-6.9-6.9-16.6c-2.9-9.3-4.3-21.5-1.1-25.3c3.2-2.6,12.2-1.6,20.4-1.1
		c7.9,1,15,1.4,9.1,11.4c-13.1,14.5-29.6,11.1-29.4,11.7"/>
</g>
<g>
	<path class="st0" d="M1556.6,585.7c-9.2-6.2-17.9-8.8-26.4-8.5c-8.2,0.8-16.2,4.6-18.3,21.3c-1.1,17.1,8,24.8,16.7,29.2
		c9.1,4.2,17.8,5,24.9,4.1c9.1-2.2,8.3-12.5,8.2-12.4"/>
</g>
<g>
	<path class="st0" d="M1599.1,575.7c5.1,3.8,5.9,6.9,5.5,7.3"/>
</g>
<g>
	<path class="st0" d="M1607.3,603.9c-0.1,0,0.8,6.9,3.3,12.8c2.4,6.4,6.5,11.8,9.2,19.6"/>
</g>
<g>
	<path class="st0" d="M1624.7,602.7c-0.7,13.2,4.4,25.2,11,36.4c-0.1,0.5-6.5-11.3-4.7-21.7c1-10.5,10.1-19.6,23.5-16.1
		c14.1,1.9,26,10.5,29.9,20c4.6,9.3,1,19.4,0.9,19"/>
</g>
<g>
	<path class="st0" d="M1720.2,602.5c-18.3-1.2-39.5-10.7-28.4,0.4c12.3,8.9,35.8,14.5,32.4,26.5c-4.3,10-17.1,11-30.2,4.1"/>
</g>
<g>
	<path class="st0" d="M1573.2,600.3c5.9-0.3,17.4,7.3,23.1,10.4c6.3,3.7,7.8,10.4,6.2,16.8c-0.7,3.1-5.3,6.5-8.3,7
		c-11.7,1.7-26.9-3.8-30.2-14.8C1562.5,615.3,1568.8,600.5,1573.2,600.3"/>
</g>
<g>
	<path class="st0" d="M1793.3,560.8c5.7,35.9,18.8,46.9,24.5,82.8"/>
</g>
<g>
	<path class="st0" d="M1786.3,601.6c11.1-1.6,36.3-2.1,47.4-3.7"/>
</g>
<g>
	<path class="st0" d="M1841.9,607.6c-4.6,1-9,12-6.9,20.6c1.7,8.8,9.9,15.1,19.8,12.8c-1.6-0.8,30.1-2,20.8-22.6
		c-6-9.1-14-10-20.9-10.6C1847.9,607.5,1842.2,607.4,1841.9,607.6z"/>
</g>
<g>
	<path class="st0" d="M1928.7,652.8c-4.9-11-5.8-28.5-1.9-39.5c3.8-11.5,12.5-16.5,23.4-14.8c24.5-2,29.9,25.5,0.7,25
		c-27.8,0.1-26-2.9-26-2.9"/>
</g>
<g>
	<path class="st0" d="M1994.9,607.9c-7.7-2.1-16.9,2.5-19.7,10.6c-3.2,7.6,0.1,18.7,8.8,17.9c15.1,2.3,22.5-3,22.7-14.8
		C2006,611.6,1994.5,608,1994.9,607.9z"/>
</g>
<g>
	<path class="st0" d="M2002.3,613.9c-2.2,2.3,11.2,19,21.1,22.8"/>
</g>
<g>
	<path class="st0" d="M2022.1,612.1c0.6,14,6.9,24.8,11.7,35.4c-0.3,0.5-3.1-10.4-1.3-19c1.7-9,8.1-15.5,22.8-15.1"/>
</g>
<g>
	<path class="st0" d="M2079.3,563c2.7,39.5,8.8,51.6,11.5,91.1"/>
</g>
<g>
	<path class="st0" d="M2057.3,601.8c0.3,2.1,7.5,3.1,14,3.7c6.8,0.6,12.9,0.7,18.3,0.7c8.9,0,21.9-0.8,21.2-0.9"/>
</g>
<g>
	<path class="st0" d="M2124.1,581.1c-2.8,5,0.2,11.2,0.1,12.8"/>
</g>
<g>
	<path class="st0" d="M2124.3,604.2c0.1,0.3-1.8,4.7-1.8,15.1c-0.2,11.2,2.4,14.6,8,26.7"/>
</g>
<g>
	<path class="st0" d="M2182.9,607.5c-1.3,0.7-25.6-5.9-37.7-0.4c-8.3,3.5-7.7,20.5-1.2,29.7c6.6,10.2,19,12.5,35.7,9.4"/>
</g>
<g>
	<path class="st0" d="M2200.3,586.8c-2.8,5,0.2,11.2,0.1,12.8"/>
</g>
<g>
	<path class="st0" d="M2200.6,609.9c0.1,0.3-1.8,4.7-1.8,15.1c-0.2,11.2,2.4,14.6,8,26.7"/>
</g>
<g>
	<path class="st0" d="M2231.6,656.6c-4.9-11-5.8-28.5-1.9-39.5c3.8-11.5,12.5-16.5,23.4-14.8c24.5-2,29.8,25.5,0.7,25
		c-27.8,0-26-2.9-26-2.9"/>
</g>
<g>
	<path class="st0" d="M2300.1,617.5c-7.7-2.1-16.9,2.5-19.7,10.6c-3.2,7.6,0.1,18.7,8.8,17.9c15.1,2.3,22.5-3,22.7-14.8
		C2311.2,621.3,2299.7,617.6,2300.1,617.5z"/>
</g>
<g>
	<path class="st0" d="M2307.5,623.5c-2.2,2.3,11.2,19,21.1,22.8"/>
</g>
<g>
	<path class="st0" d="M2333.1,572.2c2.7,39.5,8.8,51.6,11.5,91.1"/>
</g>
<g>
	<path class="st0" d="M2311.1,611c0.3,2.1,7.5,3.1,14,3.7c6.8,0.6,12.9,0.7,18.3,0.7c8.9,0,21.9-0.8,21.2-0.9"/>
</g>
<g>
	<g>
		<path class="st0" d="M2364.6,618.8c-6,14.1,27.4,14.3,37.3,5.3c5-6.4-3-10.5-11.5-12.7C2381.5,609.5,2372.1,609.5,2364.6,618.8z"
			/>
		<path class="st0" d="M2364.6,618.8c-0.9-1-2.4,10.4,1.8,16.8c4.2,7.2,14.1,9.3,34.9,7.7"/>
	</g>
</g>
<g>
	<path class="st0" d="M2452.5,580.7c-2.7,5,0.2,11.2,0.1,12.8"/>
</g>
<g>
	<path class="st0" d="M2452.7,603.8c0.1,0.3-1.8,4.7-1.8,15.1c-0.2,11.2,2.4,14.6,7.9,26.7"/>
</g>
<g>
	<path class="st0" d="M2471.2,601.7c-3.5,15-0.9,29.1,4.8,42.6c-0.2,0.3-3.5-11-0.5-21.1c2.4-10.2,11.2-19.2,21.4-17.3
		c9.9,1.3,22.6,10.1,28.6,20.9c6.6,10.4,6.5,22.7,5.8,22.6"/>
</g>
<g>
	<path class="st0" d="M2571.1,582.6c2.8,32.1,9.3,41.9,12.2,74"/>
</g>
<g>
	<path class="st0" d="M2551.6,611c9.1-0.2,30.1-0.2,39.2-0.4"/>
</g>
<g>
	<path class="st0" d="M2600.4,583.5c0,25.8,7.5,46.7,14,66.6c0.4-0.7-5.1-14.6-2.2-23.8c2.4-8.7,13.3-12.6,35.8,20.4"/>
</g>
<g>
	<path class="st0" d="M2645.3,627.8c28.1,15.6,57.4-6.1,41.7-17.2c-7-3.5-23.4-1.7-35.5,8.1c-12.3,8.8-8.9,28.8,24.9,39.3
		c0.4-0.9,15.7,7.3,26.9-4.2"/>
</g>
<g>
	<path class="st0" d="M96.3,655.5c-32.2-2.3-68.8-17.6-49.8-0.7c10.4,7.8,25.9,12.2,37.9,18.6c11.9,6.1,20.3,14.2,17,21.9
		c-8.1,14-30.5,14.9-53.1,4.8"/>
</g>
<g>
	<path class="st0" d="M331.5,691.1c-18.5-1.3-39.6-10.2-28.7-0.4c12.2,7.8,35.6,13.2,31.6,23.3c-4.7,8.1-17.5,8.6-30.6,2.8"/>
</g>
<g>
	<path class="st0" d="M544.1,707.2c-18.5-1.3-39.6-10.2-28.7-0.4c12.2,7.8,35.6,13.2,31.6,23.3c-4.7,8.1-17.5,8.6-30.6,2.8"/>
</g>
<g>
	<g>
		<path class="st0" d="M115.6,684.7c-17.2,18.7-0.7,31.6,12.8,31c11-0.2,12.5-15.1,11.1-20.7"/>
		<path class="st0" d="M139.8,701.3c0.1,0.2,6.3,13.2,23.8,14.4c6.1,0.1,11.7-6.6,11.3-13.6c0.2-7.1-5.6-14.6-9.8-16.6"/>
	</g>
</g>
<g>
	<path class="st0" d="M180.7,695.3c29.7,9.3,40,1.9,33.2-5.6c-4-3.1-11.7-3.6-19.9-2.6c-7.9,1.4-16.3,4.3-13.3,16.7
		c4.8,10.8,13,11.4,20.4,11.9c7.4,0.1,14.1,0.3,14.5-0.1"/>
</g>
<g>
	<path class="st0" d="M224.9,696.8c29.7,9.3,40,1.9,33.2-5.6c-4-3.1-11.6-3.6-19.9-2.6c-7.9,1.4-16.3,4.3-13.3,16.7
		c4.8,10.9,13,11.4,20.4,12c7.4,0.1,14.1,0.2,14.5-0.2"/>
</g>
<g>
	<path class="st0" d="M467.6,713.5c29.7,9.3,40,1.9,33.2-5.6c-4-3.1-11.7-3.6-19.9-2.6c-7.9,1.4-16.3,4.3-13.3,16.7
		c4.8,10.9,13,11.4,20.4,12c7.4,0.1,14.1,0.2,14.5-0.2"/>
</g>
<g>
	<path class="st0" d="M275,719.6c-0.3,1.2-12.1-24.4-5.6-31.2c2.8-1.8,10.3-0.9,17.2-0.4c6.7,0.9,12.6,1.5,7.3,8.6
		c-11.5,10.3-25.2,7.8-25.1,8.2"/>
</g>
<g>
	<g>
		<path class="st0" d="M349.9,670.3c5,21.1,14.7,38.8,18.3,62"/>
		<path class="st0" d="M333.1,688.9c15.1,1.7,30.1,1.5,45-1.8"/>
	</g>
</g>
<g>
	<g>
		<path class="st0" d="M406.3,704.6c-2.6-2-5.7-2.7-9.3-1.9c-6.4,1.2-13.6,6.2-15.2,12c-1.9,5.7,1.7,12.2,9.1,13.6
			C403.7,731.8,419.1,714.5,406.3,704.6z"/>
		<path class="st0" d="M410.5,710c0.1,0.2,1.7,10.8,16.4,13"/>
	</g>
</g>
<g>
	<path class="st0" d="M427.2,692.3c3.6,21.2,11.7,27.7,15.3,48.8"/>
</g>
<g>
	<path class="st0" d="M462.7,703.1c-8.9,5.6-19.9,7.2-31.2,10c0.3-0.3,4.5,1.3,12,3.8c7.2,2.8,17.9,6.5,23.8,18.7"/>
</g>
<g>
	<path class="st0" d="M676.7,752c-5-10.3-6-26.7-1.9-36.9c3.9-10.7,12.8-15.3,24.1-13.7c25.1-1.9,30.7,23.8,0.7,23.3
		c-28.6,0.1-26.7-2.7-26.7-2.6"/>
</g>
<g>
	<path class="st0" d="M730.1,712.9c0.6,13,7,23.1,12,32.9c-0.3,0.5-3.2-9.7-1.3-17.7c1.7-8.3,8.3-14.5,23.5-14.1"/>
</g>
<g>
	<path class="st0" d="M777,717.4c7.2-0.3,21,7.9,27.9,11.2c7.6,4,9.4,11.3,7.5,18.2c-0.9,3.4-6.4,7-10.1,7.6
		c-14.2,1.8-32.6-4-36.6-16C764,733.7,771.7,717.6,777,717.4"/>
</g>
<g>
	<path class="st0" d="M813.2,718.2c-4.1,10.6,0.5,20.4,8.6,29.7c-0.5,0.2-6.6-8.9-4.6-16.6c1-7.7,10-14,17.7-9.1
		c9.6,5.4,16.1,20.8,15.5,20.9c0.8-0.1-5-31.6,14.9-19.6c25,12.1,19.5,24.1,19.1,23.8"/>
</g>
<g>
	<path class="st0" d="M894.6,716.1c7.2-0.3,21,7.9,27.9,11.2c7.6,4,9.4,11.3,7.5,18.2c-0.9,3.4-6.4,7-10.1,7.6
		c-14.2,1.8-32.6-4-36.6-16C881.6,732.5,889.2,716.4,894.6,716.1"/>
</g>
<g>
	<path class="st0" d="M938.5,689.8c2.6,30,8.6,39.2,11.2,69.2"/>
</g>
<g>
	<path class="st0" d="M926.9,721.7c10,1.1,32.8,1.4,42.8,2.4"/>
</g>
<g>
	<path class="st0" d="M967.8,693.6c6.1,4.1,7.2,7.4,6.7,7.9"/>
</g>
<g>
	<path class="st0" d="M977.7,724.2c-0.1,0,0.9,7.5,4.1,13.9c2.9,6.9,7.9,12.8,11.1,21.2"/>
</g>
<g>
	<path class="st0" d="M999.4,715c7.2-0.3,21,7.9,27.9,11.2c7.6,4,9.4,11.3,7.5,18.2c-0.9,3.4-6.4,7-10.1,7.6
		c-14.2,1.8-32.6-4-36.6-16C986.4,731.3,993.9,715.2,999.4,715"/>
</g>
<g>
	<path class="st0" d="M1030.9,712.3c1.2,15.7,11.5,28,19.6,39.8c-0.4,0.4-12.5-25.3-1.8-35.1c4.5-4.6,9.4-1.2,17.4,5.4
		c7.5,6.7,18.2,16.7,21.8,28.8"/>
</g>
<g>
	<path class="st0" d="M1121,708.7c-20.5-1.1-44.9-9.9-31.8,1.5c14.3,9,41.2,14.2,38,27.2c-4.3,11.4-19,12.9-33.9,5.7"/>
</g>
<g>
	<path class="st0" d="M1178.7,708.4c5.6-1.6,17.2,5.4,23.4,7c6.7,2.4,10.1,8.2,10.7,15c0.3,3.3-3,8.2-5.9,9.5
		c-10.9,4.2-25.1,0.2-31.5-9C1172.3,727.2,1174.1,709.9,1178.7,708.4"/>
</g>
<g>
	<path class="st0" d="M1241.6,690.2c-7.2-6.5-14.2-10.6-20.1-12.3c-5.7-1.1-10.2,0.2-9.4,19.4c1.6,18,8.1,26.7,13,33.6
		c5.1,6.5,8.7,11.3,8.8,11.6"/>
</g>
<g>
	<path class="st0" d="M1280.8,696.7c-7.2-6.5-14.2-10.6-20.1-12.3c-5.7-1.1-10.2,0.2-9.4,19.4c1.5,18,8,26.7,13,33.6
		c5.2,6.5,8.8,11.3,8.9,11.6"/>
</g>
<g>
	<path class="st0" d="M1288.6,715.4c29.4,12.9,38.8,0.5,32-11c-3.9-4.5-11.3-5.3-19.3-3.2c-7.6,2.7-15.8,8.3-12.1,27.9
		c5.3,16.9,13.1,17.4,20.3,17.8c7.1-0.3,13.7-0.7,14.1-1.4"/>
</g>
<g>
	<path class="st0" d="M1367.3,731.2c29.4,12.9,38.8,0.5,32-11c-3.9-4.5-11.3-5.3-19.3-3.2c-7.6,2.7-15.8,8.3-12.1,27.9
		c5.3,16.9,13.1,17.4,20.3,17.8c7.1-0.3,13.7-0.7,14.1-1.4"/>
</g>
<g>
	<path class="st0" d="M1327.3,721.6c-1.6,2.8,20.4,34,19.9,33.3c-1.2-0.3-15.3-52,12.4-43.4c9.7,2.5,11.9,5.4,11.9,5.4"/>
</g>
<g>
	<path class="st0" d="M1434.7,687.3c4.7,20.2,8.9,41.7,8.8,66.2c0.3,0,0.1-15.2-5.3-25.1c-5.2-10.2-15.5-15.1-31.7-2.9
		c-6.4,5.5-7.5,22.9-3,28.1c4.8,6.9,15.3,1.4,39.9-0.2"/>
</g>
<g>
	<path class="st0" d="M1207,710.8c5.5-1.7,18.1-2.2,23.6-3.9"/>
</g>
<g>
	<path class="st0" d="M1245.9,706.5c4.6,1.8,15.1,2.3,19.7,4.1"/>
</g>
<g>
	<path class="st0" d="M1493,668.8c0.5,25.6,9.9,45.9,17.7,65.3c0.4-0.5,10.7-0.1,21.3-0.5c10.4-0.8,21.1-2.3,18.1-18.1
		c-9.2-27.4-36.5-17.7-49.6-8"/>
</g>
<g>
	<path class="st0" d="M1548.5,693.9c-5.3,42.8,4.1,53.6,25.9,43.8c22.7-9.5,21.5-41.7,21.4-41.6c0.8-0.9,15.3,87.2,5,108.1
		c-3.9,8.2-18,2.8-33.2-6.7c-14.6-9.7-30.3-23.6-25.1-37.6c4.9-12.4,26.7-15.4,47-17.9c20.4-2.1,39.2-3.9,39.3-3.9"/>
</g>
<g>
	<path class="st0" d="M1694.9,673.7c-20-9.1-20.6-19.5-37.1,13c-8.2,18.3-0.8,32.3,9.6,37.7c11.1,6,25.1,3.3,46.2,2.4"/>
</g>
<g>
	<path class="st0" d="M1709.5,657c2.2,25.6,13.7,44.7,22.5,63.6c0,0.2-8.5-27,2.8-32.6c4.9-2.4,15,5.4,21.6,16.4
		c6.9,10.6,10.4,24.3,9.9,24.6"/>
</g>
<g>
	<path class="st0" d="M1763.4,688.3c1.1,17.5,8,25.5,13.1,30.2c5.7,4.5,9.6,5.7,16.9,5.8c7.1,0.6,9.9-9.3,8.3-17.9
		c-1.2-8.8-7-16.4-6.6-16.2"/>
</g>
<g>
	<path class="st0" d="M1805.9,692.3c1,15.4,9.9,27.2,16.6,38.7c0.4,0.3-7-11.1-8.5-21.2c-2-10.1,1.9-18.9,13.4-11.9
		c13.1,5.1,21.3,13.2,23.8,20.6c2.9,7.3,0,13.8,0.3,13.5"/>
</g>
<g>
	<path class="st0" d="M1833.3,700.9c-0.4-0.8,2-21.2,17-7.4c8.2,5.6,16.7,13.4,20.8,21.5c4.5,7.8,4.5,15.9,4.5,15.7"/>
</g>
<g>
	<path class="st0" d="M1862.2,664.1c2.9,25.3,15.7,42.9,24,61.6c0.5,0.4-26.2-41.7,8.7-34.6c17.6,1.9,23.8,14.1,20.8,22.2
		c-2.9,8.6-15,13.1-29.4,12.4"/>
</g>
<g>
	<path class="st0" d="M1936.3,698.4c-6.7-2-14.6,2.3-17,10c-2.7,7.2,0.1,17.8,7.7,17c13.1,2.2,19.4-2.8,19.6-14.1
		C1945.9,702,1936,698.5,1936.3,698.4z"/>
</g>
<g>
	<path class="st0" d="M1942.8,704c-1.9,2.2,9.7,18,18.2,21.6"/>
</g>
<g>
	<path class="st0" d="M2039.4,670.5c-2.8-7.7-8.1-5.6-14.2-2.9c-5.9,3.5-12.6,7.7-13.5,21.7c-0.7,12.9,1.6,21.9,5.9,25.1
		c4.4,3.9,10.8,2,21.5,8.3"/>
</g>
<g>
	<path class="st0" d="M2067.9,694.2c-6.9-2.1-15.1,2.4-17.5,10.5c-2.8,7.6,0.2,18.7,7.9,17.9c13.5,2.3,20-3,20.1-14.8
		C2077.9,698,2067.6,694.3,2067.9,694.2z"/>
</g>
<g>
	<path class="st0" d="M2074.6,700.2c-2,2.3,9.9,19,18.8,22.8"/>
</g>
<g>
	<path class="st0" d="M2126.8,692.1c-9.9-0.3-18.8-1.3-24.9,1c-5.9,2-8.9,7.2-0.9,11.7c15.5,7,33.8,3.9,30.7,15.3
		c-4.6,10.3-18.5,11.7-33.3,5.4"/>
</g>
<g>
	<path class="st0" d="M2155.2,695.5c0.1,0.3-1.6,4.7-1.6,15.1c-0.2,11.2,2.1,14.6,7.1,26.7"/>
</g>
<g>
	<path class="st0" d="M2173.9,692.4c-0.5,0.1-0.1,12.2,3.2,22.7c2.9,10.7,8.7,19.8,8.1,19.5c-0.1,0-5-11.4-4.1-21.4
		c0.5-10.1,6.8-18.8,19.3-15.7c13.2,1.2,22,11.3,23.6,21.7c2.2,10.3-2.7,21-2.6,20.4"/>
</g>
<g>
	<path class="st0" d="M2261.2,700.2c-5.4-2.3-10.9-2.5-16.4-1.1c-10.1,1.8-19.3,10.9-19.7,20c-0.9,9.1,7,18.2,19.1,19
		c11,2.3,23.4-0.8,28.2-10.1C2277.5,719.5,2275.1,704.7,2261.2,700.2z"/>
</g>
<g>
	<path class="st0" d="M2291,718.2c3.5,7.2,1.7,15.7,1.6,15.5"/>
</g>
<g>
	<path class="st0" d="M84.5,778.3c-0.2,0.1,7.1,5,11.1,13.3c4.2,7.9,5.3,19.2-4.2,22.7c-18.1,6.3-29.5,5.8-29.9,5.9
		c-4.7-12.2-12.6-32.1-14-49.2c-1.9-16.9,2.8-31.2,13.2-26.9c10.1,3.2,22.7,7,29.7,14.7C97.3,765.7,98.6,776.5,84.5,778.3
		c-27.5,3.6-36.8-3.4-36.7-3.5"/>
</g>
<g>
	<path class="st0" d="M101.5,787.1c-7.2,24.7-1.1,32.7,17.1,27.9c18.9-4.4,20.3-25,20.1-25c1.5-0.2,4.6,55.8-4.6,67.6
		c-3.5,4.9-14.7,1.5-26-5.5c-11-7-22-17.7-16.7-25.7c10-12.3,70.2-6.3,70.3-7.4"/>
</g>
<g>
	<path class="st0" d="M285.2,784.1c-11.7,3.7-23.8,4.9-31.6,8.5c-7.7,3.2-11.1,8.7-3.4,11.7c14.6,5.4,52.1,9.9,46.3,27.5
		c-3.5,7.6-13.1,6.8-21.9,5.7c-8.7-1.7-16.7-3.8-14.1-12"/>
</g>
<g>
	<path class="st0" d="M302.7,799.7c-2.2,20.4,4.1,29,9.5,33c5.9,4,10.8,3.4,16.7,4.3c5,1,10.8-6,12.9-15.5c2.4-9.3,1-21.1-1.5-26"/>
</g>
<g>
	<path class="st0" d="M341.9,768.5c2,27.8,12.6,47.9,19.9,68.5c0.5,0.7-24.2-36.2,6.2-32.4c15.2,0.2,24,12.1,23.1,20
		c-0.7,8.5-11.1,13-29.2,12.4"/>
</g>
<g>
	<path class="st0" d="M387.1,799.6c1.3,16.5,9.9,29.1,16.8,41.3c-1.4-0.3-3.7-56.1,14.7-31.6c22.5,24.5,14.5,38.4,15,37.4"/>
</g>
<g>
	<path class="st0" d="M416.2,807.3c-0.5-0.1,8.4-5.2,15.9-3.5c6.7,2.5,26.2,4.9,35.7,33.9"/>
</g>
<g>
	<path class="st0" d="M472,811.2c-0.1,0,1,8,3.9,14.8c2.8,7.3,7.4,13.6,10.2,22.5"/>
</g>
<g>
	<path class="st0" d="M571.4,775.7c5.3,4.3,6.4,7.8,5.9,8.3"/>
</g>
<g>
	<path class="st0" d="M580.8,808.2c-0.1,0,1,8,3.9,14.8c2.8,7.3,7.4,13.6,10.2,22.5"/>
</g>
<g>
	<path class="st0" d="M493.9,774c5.9,33.3,19.5,43.5,25.4,76.7"/>
</g>
<g>
	<path class="st0" d="M487,806.6c7.7-0.6,25.4-0.8,33.2-1.4"/>
</g>
<g>
	<path class="st0" d="M533,770.3c5.9,33.2,19.5,43.4,25.4,76.6"/>
</g>
<g>
	<path class="st0" d="M526.2,802.8c7.7-0.6,25.4-0.8,33.2-1.5"/>
</g>
<g>
	<path class="st0" d="M594.5,797.6c3.5,17.3,17.9,30.1,28.3,43c0,0.4-7.8-14.1-8.3-25.9c-0.9-11.8,5.4-21,24.1-11.9
		c14.8,6.8,23.4,17.3,25.4,26c2.5,8.8-1.6,15.8-1.2,15.6"/>
</g>
<g>
	<path class="st0" d="M699,806.5c-0.4-6.8-7.1-9.7-12.1-7.3c-6.9,2.8-17.5,8-21,15c-4,6.6-1,15,9.5,14.4
		C690.8,831.3,699.2,819.4,699,806.5z"/>
</g>
<g>
	<path class="st0" d="M692.1,829.5c0.1-0.2,13.9,36.1-3.7,54.7c-7.4,8.8-16.8,7.2-26.2,0.2c-9.1-6.7-18.4-18.8-17.7-26.3
		c0.1-7.8,21.7-9,42.6-11.2c21-1.8,41.3-4.7,41.4-5"/>
</g>
<g>
	<path class="st0" d="M465.2,780.2c0.9,7,3,9.2,3.9,16.2"/>
</g>
<g>
	<path class="st0" d="M824.3,788.7c1.4,27.5,4.6,35.9,6,63.4"/>
</g>
<g>
	<path class="st0" d="M804.9,815.8c8.5,1.7,28.1,2.2,36.6,3.8"/>
</g>
<g>
	<path class="st0" d="M853.4,780.3c-0.4,0.1-1.8,18.9,1.3,36c2.4,17.4,9.4,33.2,9.1,33.7c-1.9-0.3,6.6-51.9,31.9-29.5
		c24,22.9,18.5,33.2,19.3,32.2"/>
</g>
<g>
	<path class="st0" d="M916.5,816.7c1.8,11.1,6,14.5,7.9,25.5"/>
</g>
<g>
	<path class="st0" d="M904.1,786.3c1.3,4.4,4.2,5.7,5.5,10"/>
</g>
<g>
	<path class="st0" d="M972.4,801.8c-10.9,0.4-24.7,0.7-33.9,4.2c-9,3.2-13.2,9.5-0.2,14.8c12.5,5.1,35.7,9.2,48.5,15.9
		c13.3,6.1,16.2,14.7-2.8,14.2c-35.2,2.7-46.9-4.4-47.6-6"/>
</g>
<g>
	<path class="st0" d="M1051.5,818.7c1.5,20.4,11.2,35.5,18.1,50.6c-0.1,1.1-7.6-15.5-7-27.8c0.4-12.8,8.8-21.3,35.1-17.1"/>
</g>
<g>
	<g>
		<path class="st0" d="M1111.7,834.8c21.7,6.1,56.4,3.7,40.6-10.6c-8.1-5.7-16.1-6.4-24-5.2C1120.7,820.5,1113.2,824.1,1111.7,834.8
			z"/>
		<path class="st0" d="M1111.7,834.8c-0.4-1.1-1.9,11.4,2.5,19.3c4.2,8.7,14.2,12.8,32.6,12.8"/>
	</g>
</g>
<g>
	<path class="st0" d="M1193.1,821c-12.6-1.7-29.5,2.2-31.2,20.3c0.8,18.1,18,23.3,26.8,18.9c4.7-2.5,12.5-6.7,15.2-14.3
		C1206.7,838.5,1204.5,827.9,1193.1,821z"/>
</g>
<g>
	<path class="st0" d="M1188.5,849.6c5.1,7,16.8,9.2,21.9,16.3"/>
</g>
<g>
	<path class="st0" d="M1225.6,819.6c-4.9,11.7-4.7,25.6-1,33.5c3.8,8.3,11.2,10.6,21.5,9.4c10.8,0.5,17.4-10.4,17.9-21.6
		c1.1-11.1-4-22.6-3.8-21.9"/>
</g>
<g>
	<g>
		<path class="st0" d="M1272.6,833.6c21.7,6.1,56.4,3.7,40.6-10.6c-8.1-5.7-16.1-6.4-24-5.2C1281.6,819.3,1274.1,822.8,1272.6,833.6
			z"/>
		<path class="st0" d="M1272.6,833.6c-0.4-1.1-1.9,11.4,2.5,19.3c4.2,8.7,14.2,12.8,32.6,12.8"/>
	</g>
</g>
<g>
	<path class="st0" d="M1358.5,819.9c-28.7-2-51.4-5.7-35.2,7.6c8,6.4,33.7,10.4,49.2,17.1c15.9,6.1,21.7,14.8,0.1,16
		c-39,4.9-40.7-4.8-41.4-6.1"/>
</g>
<g>
	<path class="st0" d="M1380.2,789.8c-0.3-0.3,0.4,17.5,4.3,31.4c3.6,15,10.4,25.9,16.4,37.2"/>
</g>
<g>
	<path class="st0" d="M1364,820.4c10.3,2.9,33.9,3.8,44.3,6.7"/>
</g>
<g>
	<path class="st0" d="M1428.8,856c-0.4,1.9,8.6,14.5,2.2,22"/>
</g>
<g>
	<g>
		<path class="st0" d="M1472.2,768c18.4,6,36.5,5.4,54.4-2.7"/>
		<path class="st0" d="M1499.6,771.9c0.4,20.5,0.8,41,0.8,61.6"/>
		<path class="st0" d="M1470.5,842.8c16.1-9.7,33.4-11.7,51.4-10.1"/>
	</g>
</g>
<g>
	<path class="st0" d="M1580.2,766c-1,32.3,7.2,59.4,15.5,84.9c-2.1,0,3-68.4,45.5-24.8c7.1,11.5,0.8,30.9,0.7,30.6"/>
</g>
<g>
	<path class="st0" d="M1640.7,827.4c25,11.8,51-4.8,37-13.2c-4.5-2.2-22.5-1.7-31.7,6.2c-9.2,7.1-9.5,21.5,22.1,29.8
		c0.4-0.7,14,5.5,23.8-3.2"/>
</g>
<g>
	<path class="st0" d="M1689.3,810.7c0,15.9,7.2,28.9,13.8,41.1c-0.2,0.5-4.4-11.8-2.7-22c1.4-10.5,8.7-18.9,22.7-15.7
		c11.9,1.3,16.6,8,16.5,8.2"/>
</g>
<g>
	<path class="st0" d="M1743.6,826.3c25,11.8,51-4.8,37-13.2c-4.5-2.2-22.5-1.7-31.7,6.2c-9.2,7.1-9.5,21.5,22.1,29.8
		c0.4-0.7,14,5.5,23.8-3.2"/>
</g>
<g>
	<path class="st0" d="M1788.6,783c0,26.9,10,48.7,18.8,69.4c-0.3,0.5-15.7-34.7,14.6-32.6c14.7,0.9,31.7,9,32.5,19.1
		c1.3,11.2-12,11-47.1,13.5"/>
</g>
<g>
	<path class="st0" d="M1866.1,811.3c-12.2,16.1-11.2,31.3-7.1,37.8c4.6,7,12.3,5.3,23.4-0.1c11.8-4.9,22.1-14.2,26.2-23.8
		c4.6-9.3,3.1-18.9,3.3-18.7"/>
</g>
<g>
	<path class="st0" d="M1898.8,842.8c-0.4-0.5,4.5,13.4,2,28.6c-2,15.3-11.2,31.9-28.9,40.4c-16.7,10.3-24.6,13.1-27.4,6.1
		c-2.4-6.4,0.4-22.8,12.2-35.9c11.5-13.4,27.8-17.6,41.2-20.3c13.5-2.5,24.2-3.5,24.7-3.3"/>
</g>
<g>
	<g>
		<path class="st0" d="M1986.7,777.2c8.3,22.3,23.7,38.4,29.4,66.6c2.3-2.3-15.6-47.4-40.9-20.6c-10.8,17.6,0.3,15.2,13,16.2
			c12.9-0.2,27.4,3,27.9,4.4"/>
	</g>
</g>
<g>
	<path class="st0" d="M2017.9,821.3c33.3,10.8,44.9,2,37.3-6.9c-4.5-3.6-13.1-4.2-22.3-2.9c-8.8,1.7-18.3,5.3-14.9,19.9
		c5.5,12.8,14.6,13.4,22.9,14c8.3,0.1,15.8,0.2,16.3-0.3"/>
</g>
<g>
	<path class="st0" d="M2094.5,816.9c-9.1-2.4-24.7-6.6-28.8,11c-1.4,10,4.6,16.5,10.9,20.1c6.7,3.6,13.9,4.5,22.5,3.8"/>
</g>
<g>
	<path class="st0" d="M2107.1,795.3c-2.8,19,4.8,30.3,11,40c6.6,9.3,11.9,17.1,11.7,18.8"/>
</g>
<g>
	<g>
		<path class="st0" d="M2159.6,822c-2.9-2.3-6.4-3.2-10.4-2.2c-7.2,1.4-15.3,7.4-17,14.3c-2.1,6.8,2,14.4,10.2,16
			C2156.9,854.2,2174,833.6,2159.6,822z"/>
		<path class="st0" d="M2164.3,828.4c0.1,0.2,2.1,12.8,18.4,15.3"/>
	</g>
</g>
<g>
	<path class="st0" d="M2222.5,839.7c2.9,9.7,10,8.8,18.7,6.7c8.4-2.5,18.4-6.3,18.3-11.8c-1.7-5.1-9.8-6.5-18.5-6.8
		C2232.6,827.9,2223.6,829.2,2222.5,839.7z"/>
</g>
<g>
	<path class="st0" d="M2224.9,839.7c-0.1-0.3-5.5,8.9,0.7,14.6c6.3,6.2,13.1,7.6,35.8,2.3"/>
</g>
<g>
	<path class="st0" d="M2174.7,819.5c2.7,14.5,15,24.7,23.2,35.4c0.7,0.3-9.1-9.9-11.4-19c-2.8-9.1,2-17.2,20.1-12.9
		c17.9,1.4,22.6,6.8,22.3,7"/>
</g>
<g>
	<g>
		<path class="st0" d="M2470.5,828.1c13.4,1.3,26.7,2.7,40,4.3"/>
		<path class="st0" d="M2328.9,777.5c-5.3,24,1.8,46.6,14,68.4"/>
		<path class="st0" d="M2299.8,808.3c-0.4,0.4,24.3,14.3,47.8,9.2"/>
		<path class="st0" d="M2370.4,790.4c0.6,19.8,6.1,39.3,12.5,58.7c-1.2,0-17.2-53.4,20.9-22.8c15.6,17,13.6,23.5,13.7,23.5"/>
		<g>
			<path class="st0" d="M2449.2,823c-2.9-2.5-7.2-3.4-11.5-2.3c-16.6,4.3-25.2,22.7-10.6,29.1C2441.3,856.7,2462.8,835.4,2449.2,823
				z"/>
			<path class="st0" d="M2453.3,829.8c0.2,0-0.3,13.6,15.7,15.7"/>
		</g>
		<path class="st0" d="M2481.5,805.8c11.4,19.4,17.6,39.8,12.7,61.7"/>
	</g>
</g>
<g>
	<g>
		<path class="st0" d="M83.3,878.8c18,5.7,36.1,5.2,54.4-1"/>
		<path class="st0" d="M110.4,882.7c-0.5,20.6-2.1,41-3.2,61.5"/>
		<path class="st0" d="M77.2,952.1c16.4-8.2,33.6-10.2,51.4-8.3"/>
	</g>
</g>
<g>
	<g>
		<path class="st0" d="M198.3,899.4c-14.4,22.4-9.4,44,8.8,64.9c-1,0.3-12.8-14.5-12.3-26c-0.7-11.6,10.9-19.9,28.6-8
			c18.2,10.3,34.3,28.1,34.3,28.1"/>
		<g>
			<path class="st0" d="M287.4,930.8c-2.8-2.5-6.8-3.6-11.2-2.6c-17.6,3.5-25.7,22.5-8.4,28.9C283.1,963.4,299.6,942.9,287.4,930.8z
				"/>
			<path class="st0" d="M291.3,937.5c-0.1,0,0.6,13.2,17.1,14.9"/>
		</g>
		<path class="st0" d="M311.3,923.6c1.8,17.9,23.6,38.1,22.3,38.3c0,0.1,20-21.1,18.4-33.9"/>
		<g>
			<path class="st0" d="M361.9,939.2c-2.1,11,8,13.6,20.8,11.6c12.5-1.9,27.7-8.4,28.3-14.6c1.1-6.2-12.2-11.4-24.2-11.9
				C374.5,923.7,363.5,927.7,361.9,939.2z"/>
			<path class="st0" d="M361.9,939.2c-0.3,0.1-3.1,9.6-1.9,17.7c1.9,8,7.6,14.6,41.1,8.3"/>
		</g>
	</g>
</g>
<g>
	<g>
		<path class="st0" d="M1347.5,920c-3.4-3.5-7.7-4.6-12.4-3.1c-8.7,2.4-18.5,11.7-20.5,22.2c-2.6,10.3,2.6,21.9,12.4,24
			C1344.1,968.8,1364.9,937.2,1347.5,920z"/>
		<path class="st0" d="M1353.2,929.5c0.1,0.3,2.2,19.4,22.2,22.5"/>
	</g>
</g>
<g>
	<path class="st0" d="M1461.3,876.9c-0.2,1.2,5.6,16.6,10.3,34.9c4.9,17.8,8.6,38.6,8.1,39.1c0.2-0.3-3.1-13.2-9.7-21.7
		c-6.5-8.8-16.4-13.2-27.2-3.8c-6.5,6.2-9.6,16.5-8.5,25.8c3.9,20.4,12.7,14.1,45.4-0.4"/>
</g>
<g>
	<path class="st0" d="M1374.7,916.4c-0.8,16.5,5.9,30.6,13,43.8c-0.6,0.4-3.9-13.3-1.7-23.8c1.9-10.7,9.1-18.2,22.2-9.4
		c15.5,7.8,23.2,18,25.2,26c2.3,8-1.1,14-0.7,13.7"/>
</g>
<g>
	<g>
		<path class="st0" d="M1600.8,933.4c-2.9-2.3-6.4-3.2-10.4-2.2c-7.2,1.4-15.3,7.4-17,14.3c-2.1,6.8,2,14.4,10.2,16
			C1598.3,965.5,1615.4,945,1600.8,933.4z"/>
		<path class="st0" d="M1605.6,939.8c0.1,0.2,2.1,12.8,18.4,15.3"/>
	</g>
</g>
<g>
	<path class="st0" d="M1652.8,926c-2.1-6.3-9.6-7.1-14.9-4.2c-7.9,3.2-17.6,11.5-19.4,19.2c-2.3,7.5,3.2,14.5,14.1,11.6
		C1651.2,953.6,1657,938.3,1652.8,926z"/>
</g>
<g>
	<path class="st0" d="M1649.7,948.4c-0.8-0.2,21.9,21.9,5.2,38.2c-7.9,7.7-17.7,8.2-28.6,5.7c-10.5-2.5-22.1-8.1-23.8-13.3
		c-2.9-6.2,22-11.5,44.3-17.7c22.8-5.8,42.9-12.5,42.3-13.7"/>
</g>
<g>
	<path class="st0" d="M1687.5,926.2c1.6,15,10.3,25.8,16.3,36.9c-1,0.4-17.7-35.9,6.9-32.2c11.2,1.3,17.1,4.7,17.1,4.9"/>
</g>
<g>
	<g>
		<path class="st0" d="M1731.5,941.3c18.3,4.2,47.5,2.8,34.5-7.1C1753.7,927.7,1735.3,928,1731.5,941.3z"/>
		<path class="st0" d="M1731.5,941.3c-0.4-0.7-1.7,7.8,1.9,13.3c3.5,6,11.9,8.9,27.4,8.9"/>
	</g>
</g>
<g>
	<g>
		<path class="st0" d="M1770.8,943c18.3,4.2,47.5,2.8,34.5-7.1C1793,929.5,1774.7,929.9,1770.8,943z"/>
		<path class="st0" d="M1770.8,943c-0.4-0.7-1.7,7.8,1.9,13.3c3.5,6,11.9,8.9,27.4,8.9"/>
	</g>
</g>
<g>
	<path class="st0" d="M1914.3,910.6c4,30.7,13.2,40.2,17.3,70.9"/>
</g>
<g>
	<path class="st0" d="M1900.1,934.9c7.6,3,25.1,3.9,32.7,6.9"/>
</g>
<g>
	<path class="st0" d="M1974,940.9c-4.8-1.8-9.8-2-14.5-0.9c-9,1.4-17.2,8.7-17.5,16c-0.8,7.3,6.2,14.6,16.9,15.3
		c9.7,1.8,20.8-0.6,25.1-8.1C1988.5,956.4,1986.3,944.5,1974,940.9z"/>
</g>
<g>
	<path class="st0" d="M2032.4,882.2c-0.8,29.9,4.9,55.4,10.9,79.2c-1-0.3,0-48.8,23.7-29.2c11.9,8.8,15.7,24.1,12.2,28.3
		c-3.6,5.6-14.5,0.2-35.9,0.9"/>
</g>
<g>
	<g>
		<path class="st0" d="M2082,942.3c26.3,4.7,68,2.2,49-9.7C2113.4,925.1,2087.1,925.9,2082,942.3z"/>
		<path class="st0" d="M2082,942.3c-0.6-0.9-2.2,9.7,3.1,16.2c5.1,7.2,17.1,10.5,39.3,10.3"/>
	</g>
</g>
<g>
	<path class="st0" d="M2280.3,944c-3.6-1.8-7.4-2-11.1-1c-6.8,1.1-13.5,7.1-14.2,13.5c-1,6.4,3.9,13.3,12.2,14.1
		c7.3,1.7,15.7,0,19.4-6.4C2290.5,958.3,2289.6,947.7,2280.3,944z"/>
</g>
<g>
	<path class="st0" d="M2195.4,894.2c-1.4,26.2,4.8,48.8,11.8,70c-1,0.2-9-43.5,25.1-28.1c17,6.6,22.2,19.1,17.8,23
		c-4.5,5.1-18.7,1.6-42.8,5.1"/>
</g>
<g>
	<path class="st0" d="M2295.9,931.9c-6.1,10.9-6.3,23.2-2.8,29.9c3.5,7.1,10.7,8.6,20.4,7.2c10.1-0.1,17.1-8.7,18.4-18
		c1.8-9.2-2.1-19-2-18.4"/>
</g>
<g>
	<path class="st0" d="M2341.5,935.6c-1.3,13.5,5,25.2,11.9,36.1c-0.5,0.1-2.2-10.2,0.6-19.1c2.4-9,9.3-16.5,16.9-13.3
		c8.5,2.8,17.6,10.4,21.2,18.3c4.2,7.7,2.8,15.8,2.7,15.7"/>
</g>
<g>
	<path class="st0" d="M2415.5,902.6c8.6,21.4,23.5,35.2,31.8,60.9c1.2-2.6-26.2-33.8-43-16.3c-8.3,10.8-2.6,19.4,5.9,22.2
		c9.1,3,21,0.3,37.1-5.9"/>
</g>
<g>
	<g>
		<path class="st0" d="M39.1,949.7c-1.9,26.7,1.7,50.8,6.8,73.5c-0.9,0.4-10.4-45.2,27-32.4c18.6,8.8,9.9,14.9-1.4,20.2
			c-11.6,5.2-25.8,9.7-25.5,12.2"/>
	</g>
</g>
<g>
	<path class="st0" d="M91,982.9c-5.8,19.3,0,32.7,5.9,39.3c6.4,6.8,12.8,7,19.4,5.3c15.2-3.7,14-37.3,12.1-38.3"/>
</g>
<g>
	<path class="st0" d="M125.1,1014.2c-1.2,0.4,15.2,33.3,14.9,55.3c-0.9,10.5-9.7,10.5-20.3,7.5c-10.3-3.3-22.3-9.5-21.7-19
		c0.6-9.8,18.2-14.9,34.6-20c16.5-4.8,31.9-9.6,31.9-10.3"/>
</g>
<g>
	<path class="st0" d="M264.4,983.9c-18.4-8.9-18.2-17.8-35.5,10.7c-9,16.1-3.2,30.2,6.1,35.6c9.9,6.2,23.3,3.7,42.9,4.6"/>
</g>
<g>
	<path class="st0" d="M278.5,969.7c1.2,24.1,9.6,42.8,16.7,60.9c-0.1,0.2-5.9-25.8,5-30.5c4.9-2,13.5,5.7,18.9,16.3
		c5.7,10.3,8.3,23.5,7.9,23.7"/>
</g>
<g>
	<path class="st0" d="M327.1,1002c0.1,16.5,5.7,24.5,10.2,29c5,4.5,8.9,5.5,15.5,5.9c6.4,1,9.7-7.8,8.9-16c-0.4-8.3-5-15.9-4.7-15.7
		"/>
</g>
<g>
	<path class="st0" d="M366.3,1008.3c0.4,14.6,7.3,26.1,13,37.1c0.1,0.4-5.8-10.7-6.5-20.3c-1.1-9.5,2.9-17.4,13.4-10.5
		c12.3,5.2,19,13.4,20.6,20.6c1.9,7.1-1.2,13.1-0.9,12.7"/>
</g>
<g>
	<path class="st0" d="M391.6,1018.1c-0.1-0.9,2.9-19.1,16.3-5.9c7.5,5.5,14.6,13.2,17.9,21c3.6,7.6,3.3,15.2,3.3,15"/>
</g>
<g>
	<path class="st0" d="M420.6,985.4c1.7,23.7,11.4,41.2,18.4,58.8c0.1,0.6-21.4-40.2,10.5-31.9c16.3,2.5,21,14.7,17.6,21.9
		c-3.3,7.8-14.7,10.6-28.1,10.1"/>
</g>
<g>
	<path class="st0" d="M487.8,1021.7c-6.1-1.8-13.7,1.6-16.5,8.6c-3.1,6.5-1.3,16.6,5.8,16.3c12.1,2.2,18.1-1.9,19.2-12.2
		C496.7,1025.5,487.5,1021.7,487.8,1021.7z"/>
</g>
<g>
	<path class="st0" d="M493.3,1027.5c-1.6,2.1,7.6,17.2,15.7,21.2"/>
</g>
<g>
	<g>
		<path class="st0" d="M83,546.1c18.4,6,36.5,5.4,54.4-2.7"/>
		<path class="st0" d="M110.4,550.6c0.4,20.3,0.8,40.6,0.8,61"/>
		<path class="st0" d="M81.4,621c16.1-9.7,33.4-11.7,51.4-10.1"/>
	</g>
</g>
<g>
	<path class="st0" d="M228.7,558.8c-7.7,9.4-6.6,29.4-1.9,40.7c4.7,12.3,13,16,18.9,14.2c15.1-4.1,10.7-31.7,10-31"/>
</g>
<g>
	<path class="st0" d="M257.4,596.4c-0.4-0.7-0.9,10.1,3.3,17.5c3.9,8,12.5,12.7,26,11.4c14.8,1.8,18.3-12.3,14.9-23.9
		c-2.9-12-12.7-21.5-11.9-21.1"/>
</g>
<g>
	<path class="st0" d="M308.5,598.6c3.9,9.9,12.8,12.9,16.7,22.8"/>
</g>
<g>
	<path class="st0" d="M301.3,575.9c1.1,4.4,3.5,5.8,4.5,10.2"/>
</g>
<g>
	<path class="st0" d="M363.7,580.3c-23.6,0.2-43.6,6.7-27.2,12.8c7.3,3.3,32.7,7.1,47.6,14c15.3,6.2,19.9,15.4-3.8,14.7
		c-22.6,0.7-32,2.8-36.7,2.5c-4.5,0.1-4.3-2.2-4.1-2"/>
</g>
<g>
	<path class="st0" d="M378.4,570.1c-1.5,0.7,4.8,17,13.9,30.6c8.6,14,20,25.3,18,25.8c-1.3-0.1-5.1-43.7,24.2-21.8
		c11.6,14.3,10.3,27.4,10.3,27.3"/>
</g>
<g>
	<path class="st0" d="M486.8,917.8c1.8,15.4,13,26.8,21,38.2c0.5,0.3-7.3-9.2-8.4-18.1c-1.5-8.9,3.8-17.2,20.8-15.5
		c14.5,0.2,22.2,7.5,22,7.7"/>
</g>
<g>
	<g>
		<path class="st0" d="M546.2,937.1c-0.1,19.3,44.8,4.5,43.7-5.3c-1.5-5.3-11.3-6.3-21.4-6.8C558.4,925.2,548.1,925.9,546.2,937.1z"
			/>
		<path class="st0" d="M546.2,937.1c-1.3-0.6-1.1,10,4.3,15.4c5.6,6.1,16.5,6.9,41.7,2.7"/>
	</g>
</g>
<g>
	<g>
		<path class="st0" d="M623.5,932.4c-3.2-2.3-7.1-3.2-11.4-2.2c-8,1.4-16.9,7.4-18.8,14.3c-2.4,6.8,2.2,14.4,11.3,16
			C620.6,964.6,639.5,944.1,623.5,932.4z"/>
		<path class="st0" d="M628.7,938.8c0.1,0.2,2.2,12.8,20.3,15.3"/>
	</g>
</g>
<g>
	<path class="st0" d="M668.6,909.2c-0.9,1.1,5.8,11.5,11.9,24c6.2,12.2,11.7,26.4,10.8,27.7c1.1-1.6-15.8-27.3-30.5-17
		c-7,5-7.2,10.8-4.1,13.5c3.1,3,9.3,2.9,16,3.3c13.4,1.7,18.7,1,18.8,0.2"/>
</g>
<g>
	<path class="st0" d="M717.5,961.1c8.8,8.6,0.1,21.8,0.3,24.4"/>
</g>
<g>
	<path class="st0" d="M786.9,924.3c-3.7,9.8-1.3,22.6,3.9,30.7c5.2,8.5,13.4,12.4,21.4,13.6c8.3,2.1,13.9-6.5,14.1-16.6
		c0.6-10.1-4.2-21.8-7.1-25.1"/>
</g>
<g>
	<path class="st0" d="M827.4,924.9c0,16.5,8.4,29.8,15.9,42.5c0.5,0.3-7.7-10.3-9.1-20.6c-2-10.2,2.7-20.1,15.9-16.2
		c13.2,2.3,24.5,10.8,28.5,20.5c4.6,9.3,2.1,19.8,2,19.4"/>
</g>
<g>
	<path class="st0" d="M907.6,910.5c7.9,21.2,22.5,37.1,27.4,64.7c0.8-1.1-4.5-16.6-13.2-26.8c-8.4-10.6-20.3-15.9-27-4.9
		c-7.2,13-5.7,22.8,1.2,24.8c7.1,3.1,19.4-1.8,39,6.9"/>
</g>
<g>
	<path class="st0" d="M931.6,935.5c37.5,12.3,47.9-1.7,38.6-13.7c-5.1-4.4-14.4-6.1-24.1-3.3c-9.2,3.2-18.9,10.9-12.5,32.1
		c8.1,17.8,17.7,18.6,26.6,18.6c8.7-0.6,16.9-1.8,17.2-2.7"/>
</g>
<g>
	<path class="st0" d="M973.8,924.1c-2.4,2.9,17.2,40.6,17.3,39.5c-2.2-0.7-9.3-59.4,19.6-47.4c10.4,3.7,12.5,7.5,12.4,7.5"/>
</g>
<g>
	<path class="st0" d="M1062.3,928.7c-11.2-4.1-22.6-7.5-30.2-10.1c-7.5-2.2-11.1-3.7-5.2,4.4c6.3,7,16.3,11.9,23.2,18.3
		c7,6.1,11,13.6,7.4,18.6c-3.6,5-9.8,6-16.6,6.4c-6.8,0-14.2-0.6-21.7-7.3"/>
</g>
<g>
	<path class="st0" d="M1063.5,894.9c4.9,32.7,16.1,42.7,21,75.4"/>
</g>
<g>
	<path class="st0" d="M1116.4,929.1c-3.6-2.3-7.2-2.6-10.6-1.1c-6.5,1.8-12,11.3-11.9,20.4c-0.2,9.1,5.4,17.8,13.2,18.6
		c7.1,2.6,15-0.8,17.8-10.2C1127.8,948,1125.6,933.3,1116.4,929.1z"/>
</g>
<g>
	<path class="st0" d="M1150.2,927.6c-3.6-2.2-7.2-2.6-10.6-1.1c-6.5,1.8-12,11.3-11.9,20.4c-0.2,9.1,5.4,17.8,13.2,18.6
		c7.1,2.6,15-0.8,17.7-10.2C1161.5,946.5,1159.3,931.8,1150.2,927.6z"/>
</g>
<g>
	<path class="st0" d="M1199.4,887.1c5.6,20.6,13.2,41.4,15,69c0.2-0.3-2.1-13.5-8.1-22.1c-5.8-9-15.1-13.5-24.6-3.8
		c-9.6,11.8-8,19.4-3.1,21.7c5.1,2.8,13.4,0.3,20.6,2.7c14.3,4.6,15.1,2.3,15.1,1.5"/>
</g>
<g>
	<path class="st0" d="M1046.1,911.8c10.1,0.2,33.1,0.3,43.2,0.5"/>
</g>
<g>
	<path class="st0" d="M621.5,997.6c-3-7.1-8.3-6.1-14.2-3.5c-5.7,3.2-12.1,8-12.3,22.2c0,13,2.6,21.4,7,24.6
		c4.5,3.8,10.8,2.4,21.4,8"/>
</g>
<g>
	<path class="st0" d="M650.6,1019.6c-6.9-2.3-14.8,2.6-16.8,10.8c-2.4,7.7,1,18.7,8.6,17.7c13.3,2.3,19.6-3.3,19.1-15.3
		C660.5,1023.1,650.2,1019.8,650.6,1019.6z"/>
</g>
<g>
	<path class="st0" d="M657.5,1025.3c-2,2.2,10.8,18.8,19.4,22.2"/>
</g>
<g>
	<path class="st0" d="M708.6,1016c-9.8-0.3-18.6-1.2-24.6,1.3c-5.7,2.1-8.5,7.6-0.4,11.8c15.6,6.7,33.5,3.1,31,14.6
		c-4,10.7-17.8,12.1-32.7,6"/>
</g>
<g>
	<path class="st0" d="M735.7,995.8c-2.3,3.7,0.8,11.2,0.6,12.2"/>
</g>
<g>
	<path class="st0" d="M736.7,1017.2c0.1,0.1-1.4,5.9-1,16c0.2,11.1,3,14.5,8.2,26.5"/>
</g>
<g>
	<path class="st0" d="M755.1,1014.6c-0.6,0.2,0.2,12.1,4.1,22.4c3.3,10.5,9.7,19.4,9,19.1c0,0-5.6-11.1-5.1-21.1
		c0-10.1,5.9-19,18.3-16.2c12.8,1,22.2,10.7,24.3,21.1c2.7,10.2-1.9,21-1.8,20.5"/>
</g>
<g>
	<path class="st0" d="M841.6,1020.1c-5.4-2.2-10.9-2.4-16.2-0.8c-10,1.9-18.6,11.5-18.5,20.6c-0.4,9.1,7.9,17.8,19.7,18.4
		c10.8,2.3,23-1.2,27.3-10.6C858.6,1038.9,855.3,1024.2,841.6,1020.1z"/>
</g>
<g>
	<g>
		<g>
			<path class="st0" d="M973,1021.8c18.3,0.4,36.6,0.7,54.9,0.9"/>
			<path class="st0" d="M1011,1002.6c-15.9,19.5-15.4,38.7-1.3,57.7"/>
			<g>
				<path class="st0" d="M1034.7,1040.9c1.5,18.7,39.3,6.4,40.7-2.1C1077,1030.4,1037.4,1021.5,1034.7,1040.9z"/>
				<path class="st0" d="M1034.7,1040.9c-2.7,0.1,1.5,32.7,43.9,18.7"/>
			</g>
		</g>
		<path class="st0" d="M1085.7,1033.9c5.2,9.9,11.8,19.6,18,29.4c-0.6,0-21.2-37.9,11.8-28.7"/>
		<path class="st0" d="M1130.5,1032.7c7.3,10.7,14.3,21.5,17.9,32.4c2.5-0.1-12.5-39.9,7.2-32.2c10.6,3.8,18.7,12.5,21.7,20.4
			c3.4,7.9,1.6,14.9,1.7,14.9"/>
		<path class="st0" d="M1165.5,1038.2c0.5,0-9.1-18.7,18.5-6.5c14.1,6.1,21.3,14.8,23.2,22c2.1,7.2-1.2,12.8-1,12.8"/>
		<path class="st0" d="M1259.5,1030.3c-33.8-4.6-60.7-6.4-45.1,5.5c14.1,12.2,40.7,12.3,45,21.4c2.2,4.6-9.7,10.6-19.7,12.8
			c-10.4,2.3-18.8,0.8-18.3-8.3"/>
	</g>
</g>
<g>
	<g>
		<path class="st0" d="M1365.1,1042.3c-3.6-2.6-7.9-3.3-12.6-2.3c-8.7,1.6-18.1,8.5-19.7,16c-2.1,7.4,3.5,15.5,13.5,17
			C1364.2,1077.1,1383.5,1054.4,1365.1,1042.3z"/>
		<path class="st0" d="M1371.3,1049c0.1,0.2,3.4,13.8,23.5,16"/>
	</g>
</g>
<g>
	<path class="st0" d="M1478.2,1011.5c-0.3,1,6.2,11.8,11.8,24.7c5.7,12.5,10.6,27.2,10.1,27.8c1-2-17.1-32.9-38.4-18
		c-6.3,4.5-8.9,11.8-7.4,18.3c4.7,13.9,14.1,10.3,45.9-0.3"/>
</g>
<g>
	<path class="st0" d="M1392.6,1039.6c-0.4,11.9,7.3,21.8,15,31.1c-0.5,0.3-4.5-9.4-2.8-16.9c1.3-7.6,8.4-13.1,22-6.8
		c16,5.6,24.4,12.7,26.7,18.4c2.7,5.7-0.7,10-0.2,9.8"/>
</g>
<g>
	<path class="st0" d="M1567,1016.5c-26.3-1.8-57.1-14.4-40.8,0.9c17.8,12.2,52.1,19.7,47.4,36.6c-5.9,14.3-24.5,15.8-43.5,6.3"/>
</g>
<g>
	<path class="st0" d="M1762.3,1039.7c-15.2-1-32.9-8.3-23.5,0.5c10.2,7,29.9,11.4,27.3,21.1c-3.5,8.2-14.2,9.1-25.1,3.7"/>
</g>
<g>
	<g>
		<path class="st0" d="M1583.7,1042.9c-12.3,18.6,1.9,30.2,12.7,29.2c9.2-0.6,9.7-14.9,7.9-20.3"/>
		<path class="st0" d="M1605.2,1057.9c0.1,0.2,5.7,12.6,20.7,12.9c5.3-0.2,9.1-6.8,8.2-13.6c-0.4-6.8-5.6-13.7-8.9-15.5"/>
	</g>
</g>
<g>
	<path class="st0" d="M1638.5,1050.2c25.1,7.8,33,0.4,27.1-6.5c-3.4-2.7-9.7-3.3-16.5-2c-6.4,1.6-13.3,5-10,16.7
		c4.6,10,11.2,10.4,17.4,10.7c6-0.1,11.6-0.4,11.9-0.8"/>
</g>
<g>
	<path class="st0" d="M1675,1049.7c25.1,7.8,33,0.4,27.1-6.5c-3.4-2.7-9.7-3.3-16.5-2c-6.4,1.6-13.3,5-10,16.7
		c4.6,10,11.2,10.4,17.4,10.7c6-0.1,11.6-0.4,11.9-0.8"/>
</g>
<g>
	<path class="st0" d="M1717.4,1069c0,1.1-11.1-22.4-6.2-29.5c2.2-2,8.4-1.2,14.1-1c5.5,0.7,10.4,0.8,6.5,8
		c-8.9,10.5-20.2,8.3-20.1,8.8"/>
</g>
<g>
	<path class="st0" d="M1845.6,1072.1c-7.2-15.5-17.7-30.6-19.8-51.6c0.4,0.2,12.4,3.8,24.6,4.1c12.1,1.2,24.4-0.8,23.6,9.4
		c-3.7,18.5-40.3,14.3-40,14.8"/>
</g>
<g>
	<path class="st0" d="M1856.1,1046.9c-2.5,2.3,28.3,20.7,26.7,23.9"/>
</g>
<g>
	<path class="st0" d="M1887.8,1046c-0.3,11.7,5.1,18.1,10.1,21.3c5.6,3.3,10.8,3.5,22.6,3.2c12,0.5,16-6.6,13.6-12.7
		c-1.8-6.2-10-11.4-9.3-11.2"/>
</g>
<g>
	<path class="st0" d="M1935.9,1019.1c0-1.7-2.3,13.1,0,23.5c2,11.5,8.6,18.6,18.8,25.6"/>
</g>
<g>
	<path class="st0" d="M1953.4,1056.8c32.5,1.1,42.5-11,29.8-13.2c-3.7-1.2-22,2.5-27.5,8.9c-6.2,6.1,0.4,14.9,31.6,17.1
		c21.6,4,21.1-10,20-10.2"/>
</g>
<g>
	<path class="st0" d="M2027.9,1037.7c-16.9-3.1-40.2,0.4-24.5,9c16.3,6.5,63.9,2.5,44.8,18.6c-9.9,6.5-18,5.6-25.5,4.1
		c-7.2-1.7-13.8-4.1-13.8-4.4"/>
</g>
<g>
	<path class="st0" d="M2064.6,1064.4c6,6.7,0,13.7,0.2,15.4"/>
</g>
<g>
	<path class="st0" d="M57.5,13.4c-4.5-0.2,31.4-2,46.2-2"/>
</g>
<g>
	<path class="st0" d="M78.1,16.2c-1.1,0.9,9.5,8.3,15.1,20.3c5.9,11.2,6.9,26.9-6.6,26.1c-16.3,3.9-25.8-9.6-26-11.4"/>
</g>
<g>
	<path class="st0" d="M119,36.3c-16.6-1.2-18.8,16.2-10.1,25.4c4.1,4.3,10.5,5.3,16.7,5.7c6.2,0.1,12.1-0.5,14.2-6.6
		c2-5.5,1.5-13.7-1.9-18.5C134.6,37.3,128.3,35.6,119,36.3z"/>
</g>
<g>
	<path class="st0" d="M174,32.3c-16.4-0.9-25.8-3.2-29-0.9c-3,1.8,0.2,8.1,12.3,11.2c23.8,5.3,44.2,13.8,33.5,24
		c-5.4,4.4-14.1,5.2-22.5,5.5c-8.4-0.1-16.5-0.8-21.3-8.1"/>
</g>
<g>
	<path class="st0" d="M186.8,23c0.2,20.5,9.7,36.9,17.8,52.5c-1.4-0.1-9-49.7,24.7-23.9c13.1,9.5,15.7,24,15.4,24.1"/>
</g>
<g>
	<path class="st0" d="M245.2,36.1c-5.3,15-1.7,24.4,3.1,28.9c5.2,4.7,11.6,4.5,20.3,5.5c8.2,1.7,14.3-5.8,15.4-14.1
		c1.5-8.2-2-17.1-2-16.7"/>
</g>
<g>
	<g>
		<path class="st0" d="M311.9,39.9c-7.2-3.4-17.7,2-20.7,10.1c-3.5,7.8,0.5,18.4,9.5,18.5c15.8,1.8,21-5.8,21.5-15.1
			C321.8,45.4,311.6,40,311.9,39.9z"/>
		<path class="st0" d="M319.8,46.9c0.2,0,12,17.9,21.3,21.8"/>
	</g>
</g>
<g>
	<path class="st0" d="M285.3,272.4c2.4,4.2,6.8,16.5,6.2,18.3"/>
</g>
<g>
	<path class="st0" d="M860.3,1004.1c0.8,16.6,0.2,17.8,0.2,17.7"/>
</g>
<g>
	<path class="st0" d="M896.1,1007.2c-13,2.2-41.2,6.7-28.7,16.1c6.3,4.4,22,6,33.4,10.2c11.4,3.8,18.5,10.4,9.2,15.8
		c-16.1,7.7-36-5.1-37.4-5"/>
</g>
</svg>
