<?xml version="1.0" encoding="utf-8"?>
<!-- Generator: Adobe Illustrator 25.0.0, SVG Export Plug-In . SVG Version: 6.00 Build 0)  -->
<svg version="1.1" id="Layer_1" xmlns="http://www.w3.org/2000/svg" xmlns:xlink="http://www.w3.org/1999/xlink" x="0px" y="0px"
	 viewBox="0 0 2552.7 1365.4" style="enable-background:new 0 0 2552.7 1365.4;" xml:space="preserve">
<style type="text/css">
	.st0{fill:none;stroke:#64648A;stroke-width:1.3333;}
</style>
<g id="Layer_2_1_">
</g>
<g>
	<g>
		<path class="st0" d="M777.3,481.8c11,39.1,9.6,67.8,16.6,110"/>
		<path class="st0" d="M759.8,532.5c25.2-1,43.6,2.4,62.7,4.5"/>
		<path class="st0" d="M831.3,548.9c-11.3,3.3-18.3,49,15.9,49.1c-0.5,0.2,38.1-6.2,27.3-32.2C861,542.1,831.2,549.8,831.3,548.9z"
			/>
	</g>
</g>
<g>
	<g>
		<path class="st0" d="M919.3,551.4c0.4,1.1,13.3,53.1,11.9,53.4c-2.2-0.5,4.3-20.3,8-37.2c5.2-16.8,7.5-30.5,30.2-16.7
			c16.1,10.3,16.3,14.6,16.5,14.6"/>
		<path class="st0" d="M987.9,571.2c32.4,12.2,46.4,3.6,39-8.7c-5.1-6.4-18-9.4-26.2-6.5c-8.9,2.8-13.1,11.6-15,27.6
			c-2.4,33.7,35.5,17.4,34.8,17"/>
		<path class="st0" d="M1086.1,570.1c-8.8-5.8-20.2-7.6-28.7-4.8c-8.9,2.8-14.9,10.2-22.1,22.6c-7.3,12.5,3.4,20.9,13.5,22.9
			c10.6,2.2,20.3-2,22.7-9.8"/>
		<path class="st0" d="M1090.8,581.6c26,11,40.8,2.2,38.9-9.9c-1.9-6.3-12.4-8.7-21.5-5.4c-9.4,3.2-17.4,12-22.3,27.5
			c-1.2,16.4,13.6,21.3,22.6,21.1c10-0.1,14.1-5.3,15.3-5.1"/>
		<g>
			<path class="st0" d="M1148.3,555.2c8.7,3.1,5.1,13,4.7,12.9"/>
			<path class="st0" d="M1149.6,581.2c-1.5,11-3.2,21.5,8.8,33.6"/>
		</g>
		<path class="st0" d="M1179.3,577.2c-4.1,11.2-1.1,20.6,5.6,27.6c6.3,6.9,16.4,11.3,15.7,11.3c-0.1-0.1,0.2-6,4.1-13.7
			c3.4-7.7,10.4-17.2,10.6-25.2"/>
		<path class="st0" d="M1232,584.2c37.3,8.5,51.1-3,42.3-14.7c-4.5-5.9-15.1-7.1-25.6-2.8c-10.2,4.3-20.4,14.2-16.1,30.2
			c19.5,32.5,49.2,12.6,49.7,12.3"/>
	</g>
</g>
<g>
	<g>
		<path class="st0" d="M1369.1,538.5c-49.2-0.4-67.6,1-35.8,19.8c21.8,12.6,30.1,12,35.9,20.8c9.3,15-6.1,36.7-24.3,41.2
			c-13.4,2.9-28-1-41.7-15.4"/>
		<path class="st0" d="M1679.2,594.1c-26.5-8.6-56.9-5.7-40.5,2.3c16.9,8,48.6,19.3,45.7,32.9c-3.7,13.5-19,22.5-40.8,7.9"/>
		<g>
			<path class="st0" d="M1401.6,583.8c-18.5,26.3-15.4,47,3.7,50.8c13.4,1.2,19.9-26.9,22.6-35.3"/>
			<path class="st0" d="M1424.9,610.1c-0.9-0.5,0.4,25,25.3,25.3c7-1.4,9.6-11.9,12.2-22.2c2.2-10.4,4.5-20.7,1.5-24.9"/>
		</g>
		<path class="st0" d="M1480.3,604.2c28.6,13.5,41.3,5,39.5-6.8c-1-11.7-39.7-13-42.7,19.1c0.8,17,13.8,22.4,23.5,22.8
			c10.2,0.5,16.7-4,17.2-3.8"/>
		<path class="st0" d="M1534.2,608.3c31.7,12.7,44.3,3.8,40.5-8.1c-2-11.7-43.3-11.5-42.1,20.4c4.1,16.7,18.7,21.7,28.7,21.8
			c10.6,0.2,16.6-4.3,17.3-4.2"/>
		<path class="st0" d="M1603.8,644.4c-0.1-0.1-9-10.1-12.3-21c-4-10.9-2.5-22.5,0.7-27.5c6.5-9.6,44.9-5.3,29.5,10.8
			c-15.5,16-31.2,13.1-31.4,13.1"/>
	</g>
</g>
<g>
	<g>
		<path class="st0" d="M1801,552.6c-13.2-33.2-30-17.3-48.9,35.2c-1.1,3.3-1.8,6.8-1.9,10.2c-0.9,22.7,29,38.8,44.5,24.3
			c10.2-10.4,9.7-27.7,9.9-27.5"/>
		<g>
			<path class="st0" d="M1866,518.8c9.9,7.1,11.9,14.4,11.9,14.4"/>
			<path class="st0" d="M1880.4,569.2c0.7,0.1-3.5,35.5,15.7,56.4"/>
		</g>
		<path class="st0" d="M1907.4,576.3c0.1,13.8,0.8,27.4,8.5,43c-1.1-0.3-6.1-14.6-4.1-27.2c1.4-12.8,9.6-23.8,21.2-21.3
			c12.8,2.8,18,13.8,22.7,24.6c4.2,10.7,7.8,21.1,8,21.2"/>
		<path class="st0" d="M2016.2,563.8c-27.1-4.8-57.7,0.4-40.8,6.4c16.9,6.1,49.9,13.1,48.3,26.2c-2.6,13.2-23.7,23.8-44.6,11.5"/>
		<path class="st0" d="M1835.9,559.3c9.4-3.7,21.8,13.1,26,19.6c5.3,7.8,4.4,18.3,3.9,30.2c-0.4,5.7-3.6,14.4-7.1,17.2
			c-15.7,11.4-40.4-13.6-38.5-31.4C1820.2,587.3,1830.4,561.6,1835.9,559.3"/>
	</g>
</g>
<g>
	<g>
		<path class="st0" d="M2169.7,621c-2.2-38.4,5.1-63.4-2.7-99"/>
		<path class="st0" d="M2140.2,569c21.2-0.3,37.6,2,53.8,4.2"/>
		<path class="st0" d="M2201.6,599.2c-1.1,11.5,5.3,24.7,21.1,27.2c0.3,0.3,40.2,1.7,35.1-29.8c-1.7-7.8-5.4-13-9.7-16.7
			C2230,565,2204.7,575,2201.6,599.2z"/>
	</g>
</g>
<g>
	<g>
		<g>
			<path class="st0" d="M713,624.8c-3.3,6.1-0.6,17.1-0.5,17.1"/>
			<path class="st0" d="M712.1,652.6c-0.1,0.3-9.8,38.5,4.2,56.6"/>
		</g>
		<path class="st0" d="M736.6,653.5c2,17.9,0.1,34.2,3.6,56c-0.7-0.6-0.8-16.5,3.1-29.8c3.8-13.6,11.2-24.6,22.9-23
			c11.9,2.5,21.5,15.7,30.6,29.3c8.7,13.5,16.9,27.3,15.9,27.4"/>
	</g>
</g>
<g>
	<g>
		<path class="st0" d="M892.3,618.7c11,35,5.1,62.3,8.8,100.8"/>
		<path class="st0" d="M871.8,661.1c19.9,7.7,41.8,5.5,60.9,4.3"/>
		<path class="st0" d="M946.4,628.9c17.1,30.3,8.2,51.8,22.5,83c-3.6-9.5-1.6-38.6,7.9-51.6c4.3-6.5,9.3-9.1,15.8-3
			c6.9,6,14.9,20.8,34.8,49.2"/>
		<g>
			<path class="st0" d="M1037.8,673.7c-10.9,9.8,21.8,8.5,31.5,2.7c9.3-5.4,8.8-22.8,0.4-23.7C1061.3,651.7,1052,660.6,1037.8,673.7
				z"/>
			<g>
				<path class="st0" d="M1037.8,673.7c0.5,0.2-8.3,8.5-6.9,18c1,9.3,12.4,20.2,46.2,22.4"/>
			</g>
		</g>
	</g>
</g>
<g>
	<g>
		<path class="st0" d="M1180.7,636.1c-32.1,16.9-49.3,10.8-26.9,25.8c23.4,15,47.4,12.1,45.8,33.1c-1,21-32.8,33.2-56.4,8.2"/>
		<path class="st0" d="M1559.4,696.3c-39.4-11.6-83.3-8-53.2,2.1c30,10.1,78,24.4,73.1,40.9c-1.9,8.2-15.6,15.4-28,18.2
			c-12.8,2.8-24.2,1.2-30.8-7.6"/>
		<path class="st0" d="M1839.1,688.9c-20.7-7.6-47-3.4-30.8,3.2c16.1,6.6,38.5,16.2,37.5,28.5c-0.6,12.2-16.2,21.7-30,9.3"/>
		<g>
			<path class="st0" d="M1217.1,679.4c-4.1,27.3,5.1,44.5,21.8,46.7c14.8,1,11.9-24.1,7.5-33.2"/>
			<path class="st0" d="M1249.3,703.3c0.4,0,10.3,22.6,31,21.2c15.2-2.7-0.7-37.4-8.7-45"/>
		</g>
		<path class="st0" d="M1315,703.1c34.4,11.2,40.7,2.3,30.9-9.3c-9.4-11.6-43.2-10.1-26.7,21.3c12.2,31.2,39.8,15.2,40.7,15.2"/>
		<path class="st0" d="M1376.5,708c35,10.7,40.9,1.7,30.2-9.7c-10.6-11.5-43.7-9.5-25.4,21.7c7.1,15.5,15.3,19.2,23.9,19
			c8.3-0.2,17-4.3,16.4-4.3"/>
		<path class="st0" d="M1759.1,706.2c32.3,7.9,39.4-1.7,31.6-12.4c-8.5-10.8-43.1-5.8-28.3,24.1c10.3,30.2,36.8,11.5,37.4,11.5"/>
		<path class="st0" d="M1454.8,756.9c1.2,0,5.6-12.4-0.1-26.4c-4.1-14-18.1-29.8-16.6-36.3c0.4-12.8,48.3-7.3,42.7,13.6
			c-6.6,20.9-28.5,17.9-27.9,17.9"/>
		<g>
			<path class="st0" d="M1573.1,662.3c2.6,31.7,53.2,62.1,38.1,94.1"/>
			<path class="st0" d="M1564.8,695.7c14.5-2,29-4.1,43.7-6.3"/>
		</g>
		<g>
			<path class="st0" d="M1656.3,699.8c-5-2.9-10.3-3.7-14.4-1.6c-14.5,7.6-12.1,34,4.1,40.6c9.2,3.2,20.1-3.1,23.1-11.9
				C1672.5,718.1,1668,706.8,1656.3,699.8z"/>
			<path class="st0" d="M1665.6,708.1c0.5,0,8.8,18,27.7,17.1"/>
		</g>
		<g>
			<path class="st0" d="M1687.1,676.2c8.4,23.3,27.4,46.1,23.4,69.9"/>
			<path class="st0" d="M1747.2,698c-15.5,2.7-30.8,5.3-46.1,7.8c0.1,0,7.2,1.8,18,7.5c10.4,5.8,24.6,15.4,30.9,31.7"/>
		</g>
	</g>
</g>
<g>
	<g>
		<path class="st0" d="M1973.3,688c5.6,11.1,8.1,21.8,10,32.9c-0.2-0.1,0.2-10.1,2.9-19.2c3-9.1,8.1-17.2,25.5-13.4"/>
		<path class="st0" d="M2032.4,688c8.4-2,22.1,8.6,26,12.6c5.2,4.9,3.7,11,0.1,17.3c-1.8,3-7.8,7.3-11.9,8.6
			c-16.8,4.9-29-7.3-27.5-17.6C2020.2,704.9,2028,689.6,2032.4,688"/>
		<path class="st0" d="M2079.5,698.4c0.6,9.4-2,18.4-3.1,28c0.5-0.3,8.6-34.5,24.7-25.4c8.9,5.5,4.7,22.2,4.9,22.3
			c0.7,0,11-33.8,23-20.1c11.8,13.6,7.8,23,8.2,23"/>
		<path class="st0" d="M2164.5,694.4c8.1-2.4,18.3,7.9,21.5,11.7c4.1,4.7,2.4,10.9-0.7,17.2c-1.5,3-6.8,7.3-10.6,8.7
			c-16,5.3-30.1-6.4-26.7-16.5C2149.5,711.7,2160,696.3,2164.5,694.4"/>
		<path class="st0" d="M2206.2,668.6c13.5,26.3-4.2,45.5-1.3,67"/>
		<path class="st0" d="M2193.7,701.6c13.7,0.6,27.4,1.1,41.4,1.4"/>
		<g>
			<path class="st0" d="M2235.5,663.6c8,4.2,9.1,8.8,9.2,8.8"/>
			<path class="st0" d="M2245.7,695.9c0.7,0.3-2.3,22.8,5.7,32.4"/>
		</g>
		<path class="st0" d="M2278.2,689.6c6.1-2.9,13.8,7.4,16.9,11.1c3.7,4.6,3.2,11.1,1.7,17.8c-0.8,3.2-4.5,7.8-7.5,9.3
			c-12.3,5.9-25.6-5-23.6-15.4C2266.5,708.4,2274.7,691.7,2278.2,689.6"/>
		<path class="st0" d="M2309.1,682.4c3.4,15,4.6,28.7,10.7,42.4c-1.3,0.1-1.7-28,13.9-41.1c14.6-12.6,28.4,14.4,48,34.3"/>
		<path class="st0" d="M1913.1,755.6c2.9-16.1-1.4-81.5-2.3-81.8c-0.1,0,27.9,4.2,46,15.4c17.8,11.2,29.1,29.3-43,28.1"/>
	</g>
</g>
<g>
	<g>
		<path class="st0" d="M96.2,733.3c9.3-5.2,27.8,6.7,34.6,11.2c8.1,5.4,9.5,14.1,8.5,23.9c-0.6,4.7-5.1,12.4-9,15.5
			c-15.8,11.9-35-1.5-39.8-16.3C88.3,761.5,90.2,736.8,96.2,733.3"/>
		<path class="st0" d="M193.4,734.7c-5-12.9-18-22.6-24.7-22.9c-7.6-0.5-9.1,8.5-10.1,29.6c-2.1,20.9-1.1,37.4,3.3,49.1
			c3.9,11.7,11,18.7,10.5,18.5"/>
		<path class="st0" d="M241.5,736c-4.1-12-16.6-21-22.5-20.9c-6.9-0.1-7.2,8.9-8.8,28.4c-3.3,19.3-2.2,34.5,2.5,45.2
			c4.3,10.7,12.3,16.9,11.6,16.7"/>
		<path class="st0" d="M251.3,757.1c29.9,10.8,42.2,3,39.5-7.5c-3-10.4-41.1-10.1-42.2,18.3c2.3,29.8,39.6,15.4,38.3,15.2"/>
		<path class="st0" d="M354.8,768.7c35.7,11.1,48.1,0.2,42.3-12.5c-3-6.4-13.7-8.3-24.6-4.6c-10.6,3.8-21.7,13.2-17.2,30.5
			c7.7,17.9,23,22.1,33.1,21.5c10.7-0.6,16.2-6,17.1-5.9"/>
		<path class="st0" d="M298.4,766.8c0.2,0.5,2,9.9,9.4,20.2c6.5,10.1,18.9,21,19.3,21c-2.5-0.5-13.7-18.1-12.4-32.6
			c0-14.8,12.2-26.5,25.8-20.7c10.3,5,11.6,8.4,11.6,8.5"/>
		<path class="st0" d="M452.9,692.9c4.8,31.8,9.2,61.8,15.7,92.7c-1.2-0.5-11.6-74-50.1-32.6c-17.9,19-9.2,70.4,50.1,32.6"/>
		<path class="st0" d="M146,757.8c10.5-1.2,20.8-2.3,30.9-3.3"/>
		<path class="st0" d="M201.2,746.6c7.2,1.8,14.3,3.5,21.2,5.3"/>
	</g>
</g>
<g>
	<g>
		<path class="st0" d="M505.6,710.1c3.6,27.2,9.3,52.7,11.6,78.3c1.3-0.9,50.9,10,45.9-19.4c-4.9-30.2-32.8-26.3-50.5-14.4"/>
		<path class="st0" d="M568.9,745c-4.3,38.2-1.3,48.5,20.1,40.7c21.6-8.1,25-43.9,24.6-44.1c-2.2,1.1,29.5,59.6,25.8,84
			c-3.3,25.8-59.1,4-78.2-20"/>
	</g>
</g>
<g>
	<g>
		<path class="st0" d="M759.3,721.9c16.1,22.3,11.7,40.6,16.6,64.1c-1.5-0.8-0.8-30.4,12.8-38c15.8-8.3,33,36.8,36.1,38.3"/>
		<path class="st0" d="M835.6,752.6c1,35.3,25.6,47.9,38.7,38.5c9.8-9.5,6.8-45.5,5.6-45.7"/>
		<path class="st0" d="M903.4,752.9c0.1,13-2.2,25.5,11.3,40.6c-2.5-0.4-9.5-13.7-8-24.1c0.6-10.5,9.6-18.2,18-10.8
			c10,7.6,13.9,16.4,18.1,23.8c3.8,7.3,8,13.2,7.8,13.2"/>
		<path class="st0" d="M931.5,764.7c-0.1,0,7-19.8,19.7-6.9c6.5,6.5,10.3,15.9,17,24.1c6,8.2,14.8,15.1,14.7,15.2"/>
		<path class="st0" d="M964.3,714.9c23,33.2-3.2,54.8,35.9,83.6c0.6,0-6.1-3.9-11.1-9.4c-5.3-5.5-8.9-12.5-9.7-19.2
			c-0.8-13.2,6.5-26.1,22.4-22.8c17.4,3.5,21.2,15,20.8,26.4c-1.1,11.4-6.3,22.7-22.5,25"/>
		<path class="st0" d="M1053.2,752.7c-8.9-2.3-18.9,7.1-20.2,17.4c-1.9,10.2,5.1,21.4,15.9,22.9c18.8,2.7,18.4-10.3,17-22.8
			C1064,758.7,1053.2,752.7,1053.2,752.7z"/>
		<path class="st0" d="M1062.3,761.3c-0.9,0,16.8,24.3,29.8,24.1"/>
		<path class="st0" d="M734.6,749.1c8.6-5.8,10.1-18.8-2.7-18.3c-12.4,0.6-27.3,5.1-28.9,21.9c-1.1,16.6,8,36.9,47.9,33.1"/>
	</g>
</g>
<g>
	<g>
		<path class="st0" d="M1760.9,774.4c-18.1-0.9-35.5,2.5-47.2,6.9c-11.5,4.5-17.3,10.1-5.2,13.9c23.6,7.6,79.2,19.4,68.6,36.1
			c-9.8,16.9-70.6,8.9-56.8-8.8"/>
		<path class="st0" d="M1794.1,806.7c-1.8,33.9,9.3,35.5,24.6,36.4c14.4,0.7,28.1-27,23.9-36.6"/>
		<path class="st0" d="M1836.7,782.1c23.1,24.3,23.9,44.4,21.6,65.5c-0.2-0.1-1.4-9.2-0.9-17.7c0.9-8.5,3.5-16.4,19.5-13.4
			c33.3,6.1,27.1,32.4-18.7,31.1"/>
		<path class="st0" d="M1901.4,814c6,13,5.9,25.2,6,37.9c-0.1-0.1,6.8-13.5,11.9-24.1c5.7-10.5,9.6-18.1,18.2-5.2
			c11.4,25.3,1.6,33.5,2.7,33.6"/>
		<path class="st0" d="M1939.6,826.8c1.3,0.2,5.5-9.5,15.5-11.1c9.1-1.7,24.2,4.8,27.6,35"/>
		<g>
			<path class="st0" d="M2120.4,798.9c6.2,3.9,6.2,8.1,6.2,8.1"/>
			<path class="st0" d="M2124.4,828.9c0.3,0.2-2.5,22.1,4.7,31.8"/>
		</g>
		<path class="st0" d="M2027.8,796.4c16.4,25.4,6.8,45.6,9,67.4"/>
		<path class="st0" d="M2017.4,825.7c12.8,0.1,25.5,0.1,38.3,0"/>
		<path class="st0" d="M2074,793.4c15.4,25.9,6.6,46.7,10.1,68.3"/>
		<path class="st0" d="M2144.6,819.3c6.3,14,10.7,27,20,40c-2,0.6-9.4-56.5,30.5-39.2c25.9,15.3,22.3,37.9,22.5,38"/>
		<path class="st0" d="M2269.2,821.5c1.4-5.9-5-10-12.2-7.7c-20.3,6.7-46.6,28.9-20.3,31.5C2258.8,847.5,2266.8,832,2269.2,821.5z"
			/>
		<path class="st0" d="M2260.5,838c0,0,10.5,36.7-2.1,57.1c-9.8,20.4-60.5-12.5-58.7-24.6c-1.8-11.4,105.2-19.1,107-20.1"/>
		<g>
			<path class="st0" d="M1998.7,829c0.8,0.1-3.5,21.4,0.4,31.5"/>
			<path class="st0" d="M1994.8,801.3c2.5,5.1,4,10,4.7,14.8"/>
		</g>
		<path class="st0" d="M2069.1,824.1c10.1,0.1,20.3,0.1,30.5,0.1"/>
	</g>
</g>
<g>
	<g>
		<path class="st0" d="M432.8,853.2c4.4,21.1,10,41.7,13,62.1c-0.1,0-3.3-19.7-0.9-35.8c2.8-16.1,10.7-28.5,40.3-13.5"/>
		<g>
			<path class="st0" d="M505.7,879.3c21.1,6.4,53.7,11,40.3-7.7C528.4,851.9,507.3,857.9,505.7,879.3z"/>
			<path class="st0" d="M505.7,879.3c1.8,0.1-14.8,42.6,25.6,39.6"/>
		</g>
		<path class="st0" d="M590.1,870.8c-15.3-7.4-26.4,3.9-30.9,21.1c-4.8,17.2,4.1,30.9,16.4,24.7
			C586.5,910.1,610.7,895.3,590.1,870.8z"/>
		<path class="st0" d="M580.7,902.8c5.3,6.3,10,12.5,15,18.8"/>
		<path class="st0" d="M623.7,874.6c-4.3,27.7-17.8,51.6,6.6,50.3c22.9-1.5,31.5-47.3,28.3-48.4"/>
		<g>
			<path class="st0" d="M670.3,894c17,5.4,46.6,8.1,38.5-10.4C698.2,864.1,676.1,872.2,670.3,894z"/>
			<path class="st0" d="M670.3,894c0.4,0.3-21.2,42.2,21,37.9"/>
		</g>
		<path class="st0" d="M756.4,878.2c-29.6-3.6-49.6-0.5-34.9,11.2c7.1,5.9,26.5,13.3,40.8,20.3c13.9,7,22.6,13.7-0.3,18.7
			c-44.7,9.1-41.9-7.9-41.8-7.7"/>
		<path class="st0" d="M780.2,845.6c1,0.2,2,19,3.4,37.1c1.6,18.4,3.5,36,13.1,40.6"/>
		<path class="st0" d="M761.5,882.6c14.7,2.4,30,4.5,46.5,6.1"/>
		<path class="st0" d="M831.5,929.8c0.4-0.1,13.4,20.4,4.8,35.1"/>
	</g>
</g>
<g>
	<g>
		<path class="st0" d="M985.8,834.9c-24.7,1.9-49.6-0.5-74.6-3.2"/>
		<path class="st0" d="M948.7,835.1c3.6,38.4-5,60.9-3.2,98.5"/>
		<path class="st0" d="M996.2,938.9c-29.5-1-57.3-8.5-83.3-12.4"/>
	</g>
</g>
<g>
	<g>
		<path class="st0" d="M1109,852.1c4.8,30.2,12.4,59.5,15.4,88.5c0.4-0.5,11.1-72.8,51.1-27.6c6.6,10.2,0.5,28.1,0.5,28.2"/>
		<path class="st0" d="M1182.5,913.5c22.5,11.2,48-3.8,36.8-13.6c-11.2-9.9-68.2,14.4-14.8,38c0,0,14.7,4.3,23.8-5.6"/>
		<path class="st0" d="M1231.7,899.1c4.7,13.8,6.3,26.9,8,40.4c1.3,0-1.4-47.9,26.1-39.2c11.3,3.2,13,10.2,12.9,10.2"/>
		<path class="st0" d="M1288.1,914.2c19.5,11,44.6-5.3,34.3-15.2c-9.9-9.2-63.5,17.1-15,38.9c0,0,14.3,4,23-6.1"/>
		<path class="st0" d="M1328.4,869.5c12.1,27.5,11.4,49.8,15,72.2c-0.3,0.1-5.7-35.9,19.2-35.7c25.5,0.1,56.5,31.5-19.2,35.7"/>
		<path class="st0" d="M1408.9,891.7c-15.9,39-11.1,53.3,16.3,39.5c27.5-14.7,30.7-49.9,31-49.9"/>
		<path class="st0" d="M1443.6,914.6c0.4,0,10.9,57.4-21,79.2c-28.4,22.3-41.9-2.6-22.3-32.2c19.9-29.4,67.8-30.4,69-30.8"/>
	</g>
</g>
<g>
	<g>
		<g>
			<path class="st0" d="M1544,865.3c16.3,28.3,23.3,52.1,28.5,79.9c0.3-0.8-9.3-51.7-40.9-22.9c-27.1,29.4,41.6,23,40.9,22.9"/>
		</g>
		<path class="st0" d="M1581.9,919.9c29.7,11.2,40.5,3.5,38.2-6.8c-2.9-10.2-41-11.3-40.4,17.9c2,30.7,36.3,16.5,35.4,16.1"/>
		<path class="st0" d="M1660.5,915.7c-6.2-7.2-23.2-6.9-30.1,12.2c-8.3,19.2,16.5,39.3,30,27.5"/>
		<path class="st0" d="M1677.9,894.9c-1.8,17.6-3.6,32.1,1.8,43.6c4.3,11.3,15.8,19.6,15.2,19.4"/>
		<g>
			<path class="st0" d="M1725.1,920.3c-2-2.8-5.5-3.7-9.6-2.2c-16.5,5.4-28.2,28.5-7.6,36.7c10,3.9,14.3-2,17.3-9.8
				C1727.9,937,1729.4,927.1,1725.1,920.3z"/>
			<path class="st0" d="M1727.7,928c-0.6-0.1,0.1,16.3,18,16.7"/>
		</g>
		<path class="st0" d="M1796.4,937.8c4.1,20.8,39.9,1.4,40-9.5C1835.2,918.2,1794.2,916.9,1796.4,937.8z"/>
		<path class="st0" d="M1796.4,937.8c-1.7-0.4,5.7,37.8,45.7,14.7"/>
		<path class="st0" d="M1740.8,919.6c5.1,12.9,13.6,25.8,30.8,39.7c-1.1-0.1-14.9-12.5-18-23.4c-4-11,2.5-20.4,21.2-17
			c18.6,2.2,22,8.6,21.9,8.6"/>
	</g>
</g>
<g>
	<g>
		<path class="st0" d="M2077.8,918.8c14.8-0.4,30.5-1.4,47.6-3.4"/>
		<path class="st0" d="M1930.5,862.8c14.8,32.4,7.6,56.7,10.7,90.6"/>
		<path class="st0" d="M1896.7,880c0-0.1,46.8,9.5,70.8-4.4"/>
		<path class="st0" d="M1979.7,875.4c11.3,25.8,3,45.1,8.1,71c-3-1.9-4.2-63.7,30.7-28.3c13.5,19.6,15,27.9,14.6,27.9"/>
		<g>
			<path class="st0" d="M2069.7,913.9c-2.6-2.9-6.4-4-10.7-2.4c-16.3,5.6-28.4,28.3-9.1,36.5
				C2068.1,955.8,2080.5,927.9,2069.7,913.9z"/>
			<path class="st0" d="M2073.4,922.1c-0.3-0.1,0.5,16.8,20.3,17.1"/>
		</g>
		<path class="st0" d="M2090,887.1c8.1,25.4,23.3,47.9,39.3,73.1"/>
	</g>
</g>
<g>
	<g>
		<path class="st0" d="M2174.2,874.9c25.7,2.3,51,3.6,76.3,1.3"/>
		<path class="st0" d="M2214.7,958.1c-5.8-31.1,2.9-49.3-2.2-80.8"/>
		<path class="st0" d="M2166.2,955.9c30,2,59.9,3.5,90.7,1.4"/>
	</g>
</g>
<g>
	<g>
		<path class="st0" d="M124.3,948.3c3.4,29.4,5.7,56.5,6.5,86.4c0-1.1-11.2-76.5,29.2-49.4c10,6.2,13.7,18.6,17.9,31.4
			c3.8,12.5,8.2,25.5,9.1,25.8"/>
		<g>
			<path class="st0" d="M223.7,999.2c-1.3-3.7-4.5-5.6-8.9-4.7c-15.9,2.9-34.2,27.4-17.7,41.1C214,1048.1,227,1015.2,223.7,999.2z"
				/>
			<path class="st0" d="M224.5,1008.6c-0.5-0.3-4.4,19.1,13.9,23.8"/>
		</g>
		<path class="st0" d="M257.4,997.7c-2.4,9.2,2,19,9.4,26.9c7,7.8,17,13.5,16.8,13.5c-0.1-0.1,0.2-8.4,3.8-17.6
			c3.1-9.3,9.4-19.6,10.3-26.3"/>
		<path class="st0" d="M317.6,1005c12.3,4.3,34.2-3.4,35.8-10.1c1.5-6.6,0.2-14-14.3-7.2C324.4,994.4,317.6,1005,317.6,1005z"/>
		<path class="st0" d="M317.6,1005c-5.2,9.3,2.4,30.3,49,20"/>
	</g>
</g>
<g>
	<g>
		<g>
			<path class="st0" d="M1469.2,1028.8c-4.6-3-10.9-3.4-16.7-1c-23.2,9.4-27.8,38-4.2,44.3c12.5,3.6,21.3-5.2,26.2-15.1
				C1479.1,1046.9,1479.9,1035.6,1469.2,1028.8z"/>
			<path class="st0" d="M1476.5,1037.1c0-0.2,3.2,18.4,25.3,16.7"/>
		</g>
		<path class="st0" d="M1601,991.4c1.6,1.5,6.4,18.5,13.5,34.3c6.7,16,15.7,30.7,15.8,31.2c-1.2-0.5-26.1-34.8-48.6-16.2
			c-7.4,5.4-11.3,12.6-9.3,20.1c1.5,7.5,10,13.9,18.8,14.7c9.5,0.8,19.4-3.9,39-18.7"/>
		<path class="st0" d="M1503.5,1037.8c4.9,11.3,9.3,22.9,21,36.6c-1.8-0.6-9-15.9-9.4-27.9c-0.9-12.3,4.7-21.4,17.4-15.5
			c13.8,6.4,19.6,17.1,25.9,27.3c5.7,10,12,19.4,12,19.4"/>
	</g>
</g>
<g>
	<g>
		<g>
			<path class="st0" d="M1738.4,1018.3c-3.6-4-8.2-5.7-12.8-4.2c-17.7,5.1-31.5,34.7-12.6,44.5
				C1730.7,1067.9,1755.5,1037,1738.4,1018.3z"/>
			<path class="st0" d="M1743.7,1028.7c0.3,0.1,0.3,20.2,18,22.3"/>
		</g>
		<path class="st0" d="M1798,1016.5c-3-8.9-14-15.1-18.3-10.6c-11.1,12.7-31.2,45-4.8,46.5C1796.6,1053.3,1803.8,1032.7,1798,1016.5
			z"/>
		<path class="st0" d="M1796.9,1040.7c2.2,0.8,9.5,31.4-5.8,58.8c-14.2,29-53.9-5.7-52.1-18.1c1.4-14.4,100.3-33.3,98.7-33.4"/>
		<path class="st0" d="M1839.3,1019.4c8.8,19.3,7.5,35.2,10,52.1c-1-0.4-0.4-12.7,0.6-25.5c1.4-12.6,3.2-25.4,15.4-22.5
			c11.9,4.1,16,10.7,16,10.7"/>
		<g>
			<path class="st0" d="M1888.7,1041.8c16.6,4.1,45.7,4.2,35.4-10.8C1913.3,1015.5,1892.5,1023.3,1888.7,1041.8z"/>
			<path class="st0" d="M1888.7,1041.8c0.4,0.3-14.4,36.2,25.9,30.9"/>
		</g>
		<g>
			<path class="st0" d="M1932.6,1043.4c18.3,3.1,51.8,0,37.7-13.6C1957.2,1016.1,1936,1024.6,1932.6,1043.4z"/>
			<path class="st0" d="M1932.6,1043.4c0.1,0.1-11.4,37.7,33.7,29.6"/>
		</g>
	</g>
</g>
<g>
	<g>
		<path class="st0" d="M2202.1,984c3.6,16.7,9,32.7,12.3,48.2c3.7,15.7,5,30.9,10,50.2c-2.1-3.1,0.4-66.4,25.4-42.1
			c23.1,22,35.2,46.8-25.4,42.1"/>
		<g>
			<path class="st0" d="M2274.3,1051.4c17.8,2.8,50.6-3.4,34.2-15C2293.5,1025.7,2274,1034.2,2274.3,1051.4z"/>
			<path class="st0" d="M2274.3,1051.4c-2.7-1.1,14.6,43.4,52.3,29.8"/>
		</g>
	</g>
</g>
<g>
	<g>
		<path class="st0" d="M241.7,1114.3c-2.8-3.6-7.4-4.5-12.2-2.8c-18.9,6.2-30,36.7-6.6,47.7c12.2,5.6,17.7-3,21.1-13.4
			C246.9,1135.1,247.8,1122.5,241.7,1114.3z"/>
		<path class="st0" d="M136.3,1044.7c4.5,36,7.7,69.1,8.9,105.7c-1-1.1,0.9-69.1,37.1-44.8c16.5,11.6,21.6,23.3,16.4,32.3
			c-5.5,8.8-21.3,14.9-53.5,12.5"/>
		<path class="st0" d="M264.4,1099.8c-7.6,15.7-12.1,31-8.6,42.5c3,11.3,14.1,18.8,25.9,15.5c11.2-3.5,12.9-18.4,16.1-31.3
			c2.5-13.1,6.4-24.1,5.5-24.5"/>
		<path class="st0" d="M316.3,1106c0.7,16.6,2.3,33.1,17.7,52.6c-1.6-0.5-7.2-16.8-4-30.6c2.2-14,13.1-25.5,21-21.3
			c9.5,4.7,15.1,16.3,22,27.3c6.3,10.9,13.9,21.2,14,21.2"/>
		<path class="st0" d="M408.3,1045.3c8.2,17.2,13.1,32,20.2,46.7c6.8,14.6,16.1,28.8,25.4,43.6c-1.2-0.4-40.2-41.1-58.4-16.3
			c-11.9,12-1.2,27.1,11.9,33.9c13.8,6.7,29.8,4.9,46.5-17.6"/>
	</g>
</g>
<g>
	<g>
		<g>
			<path class="st0" d="M550.8,1044.3c5.9,29.9,15.1,58,20,85.5c0,0.3-11.1-43.2,18-41.7c6.3,0.4,12.3,3,16.8,6.7
				c35.3,28.7-33.2,33.3-34.8,35"/>
		</g>
		<path class="st0" d="M633.1,1084.6c-9.2,45.5,8,55.2,28.3,48.9c19.7-7.5,9.3-47.1,9.7-48.9"/>
		<path class="st0" d="M672.4,1090.9c-1.6,0.7,22.9,64.9,24.3,97.8c0.4,15.8-30,19.5-59.2,12.9c-29.3-6.1-56.4-22.5-51.8-32.6"/>
	</g>
</g>
<g>
	<g>
		<path class="st0" d="M845.1,1053.3c24.9,36.5,10.7,64.7,14.9,102.9c-2.5-1.5,6.7-48.2,26.5-53.4c10.2-2.9,15.5,12.6,18.3,30.4
			c1.5,17.2,12.7,39.8,13.8,40.1"/>
		<path class="st0" d="M929,1114.1c-5.9,44.3,23.2,63.3,42.6,58c9.4-2.5,5.7-17.6,5.9-30.5c-0.8-13.2,2.3-24,1.2-24.3"/>
		<g>
			<path class="st0" d="M999.1,1113.1c0.8,18.8,0.8,37.8,26,61.8c0.4,0.1-6.4-5.8-11.1-13.2c-5-7.5-7.9-16.6-7.9-24.7
				c0.9-15.9,9.9-28.3,25-18.7c15.5,9.7,21.6,22.2,28.7,33.3c6.3,10.9,13.5,20.3,13.2,20.3"/>
			<path class="st0" d="M1041.3,1126.3c-0.4,0,8.8-29.8,28.2-12.8c9.8,8.6,15.3,21.9,24.7,33.8c8.4,11.8,20.8,22.3,20.7,22.3"/>
		</g>
		<path class="st0" d="M1115.9,1074.1c10.4,34-2,60.8,36.6,93.5c-2.3-0.3-20.9-17.6-23.1-32.9c-3.8-15.5,8.4-28.9,30.1-24.1
			c24.8,5,32.8,18.3,31.6,31.1c-1.7,12.7-12.7,24.9-38.6,25.9"/>
		<path class="st0" d="M1232.8,1115.5c-11.8-3.3-23,6.8-25.3,18.1c-2.7,11.4,3.7,24.1,16.5,26.4c23.3,4.4,25.4-9.9,24.2-24.2
			C1246.6,1123.1,1232.8,1115.5,1232.8,1115.5z"/>
		<path class="st0" d="M1244.1,1125.8c-0.7-0.1,18.9,28.5,34.4,29.1"/>
		<path class="st0" d="M800.9,1089.4c10.6-6.1,6.6-23.8-1.9-33.2c-8.4-9.4-16.4-18.2-24.6-9.3c-9.1,8.7-17.3,53.5-1.6,77.6
			c14.4,24.2,39.1,16.2,53.6,11.3"/>
	</g>
</g>
<g>
	<g>
		<path class="st0" d="M9.1,18c-2.5-4.1-2.6-8.3-2.6-8.3c0.4,0.2,54.6,2.7,73.5,3.8"/>
		<path class="st0" d="M40.1,12.1c0.6,0.4,14.7,14.7,19.1,29.6c5.7,15,1.5,30.8-4.9,37.4c-20.1,6.4-33.6-26.4-34.1-26"/>
		<path class="st0" d="M91.4,38.8C73.4,40,69.8,56.1,72.2,68c3.6,12.2,26.4,13.2,30.6-0.2C109.1,55,115.1,37.9,91.4,38.8z"/>
		<path class="st0" d="M152,37.2c-34.8-6.2-39.7,4.1-19.9,11.6c19.9,7.6,31.5,17,24.1,28.3c-3.8,5.6-11.4,9.9-20.9,9.6
			c-9.1-0.1-20.1-4.8-21.7-14.1"/>
		<path class="st0" d="M172.9,13.9c21.2,30.9-16.8,47.9,6.5,78.3c0.1,0-4.1-4.7-5.7-10.4c-1.9-5.7-1.1-12.4,1.3-17.9
			c6.4-10.6,14.7-17.3,24.4-1.9C206.3,73.4,221,88,222,88.2"/>
		<path class="st0" d="M224,46.2c-15.2,30.7,5.8,38.8,25.2,38.6c9.8-0.2,9.1-9.2,10.3-18c0.5-8.8,2.8-17.5,2.2-17.6"/>
		<g>
			<path class="st0" d="M298.1,45.2c-9.1-2.6-19.6,5.4-22.9,14.4c-3.7,9-0.1,19,11.4,20.9c20.5,3.6,22.7-7.6,22.7-19
				C308.7,51.2,298.1,45.2,298.1,45.2z"/>
			<path class="st0" d="M306.6,53.4c-0.9,0,14.3,22.5,28.6,23"/>
		</g>
	</g>
</g>
<g>
	<g>
		<path class="st0" d="M1013.4,168c2.2,11.4,0.3,22.5,0.7,34.6c0.3-0.8,5.4-42.9,27.1-33.1c12.4,5.9,8.7,26.2,8.9,26.4
			c-0.4-0.2,3.4-10.5,7.5-18.9c4.4-8.4,9-14.7,18.7-7c17.1,15.2,11.5,26.8,12.3,26.9"/>
		<g>
			<path class="st0" d="M1151.9,172.8c2.1,14.5-2.1,28.1,9.7,44.3"/>
			<path class="st0" d="M1145.4,152c7.6,2.5,7,10.5,6.7,10.4"/>
		</g>
		<path class="st0" d="M1185.3,144.3c9.5,17.8-1.3,34.7,0,48.7c-0.7,13.7,11,24.7,18.6,23.5"/>
		<g>
			<path class="st0" d="M1125.3,179.3c-1.5-2.1-4.5-2.7-8.4-1.2c-14.5,5.3-28.8,24.6-15.5,29.9
				C1112.6,212.6,1130.3,189,1125.3,179.3z"/>
			<path class="st0" d="M1126.4,185.3c-0.1-0.1-4.2,13,9.5,12.5"/>
		</g>
		<g>
			<path class="st0" d="M925.5,147.4c-2.8-2.6-6.5-3.6-10.2-2.3c-13.6,4.1-21.4,23.7-7.5,29.9C921.7,181,939.1,159.5,925.5,147.4z"
				/>
			<path class="st0" d="M929.8,154.1c0.6,0,0,21.7,13.9,22.2c8.9,0.2,19.5-7,21.9-16.3c2.8-9.3-2.4-20.6-16.5-28.1
				c-14-7.4-30.7-7.7-45.1,0.1c-13.6,7.8-25.1,23.7-8.1,49.5c16.7,20.5,58.2,6,58.9,6.1"/>
		</g>
		<g>
			<path class="st0" d="M996.4,154.4c-4.2-2.5-9-2.9-12.8-1.1c-13.7,6.6-20.4,28.2-3.9,33C996.9,190.6,1017.2,165.8,996.4,154.4z"/>
			<path class="st0" d="M1002.5,176c-1.1,7.4-7.6,19.4-10.1,31c-3,11.4-1.9,22.3-1.6,22.3c-1.2-0.4-34.7-20.3-30.5-29.9
				c3.4-10,34.2-11.6,34.1-11.6"/>
		</g>
		<path class="st0" d="M1287.1,182.6c7.6-3.7,19.6,2.8,25.2,5.3c6.4,3,8,8.6,9.6,14.8c0.7,3-1,7.9-3.5,9.9
			c-9.2,8.2-33.6,0.7-38.4-8.5C1277.1,200.3,1281.8,185.1,1287.1,182.6"/>
		<path class="st0" d="M1222.4,203.1c0.4,3.4,4.1,6.1,0.8,12.5"/>
		<path class="st0" d="M1345.3,174c-0.5,13.8,0.3,27,10.3,40.6c-1.4-0.1-6.3-12.4-3.4-23.5c2.2-11,12.1-20.8,24.4-15
			c12.3,7.3,21,31.8,22.2,31.8c-3.4,0.2-5.1-50.2,21.9-31.7c28.8,18.4,33.2,32.8,32.5,32.8"/>
		<path class="st0" d="M1264.1,180.9c-6.3-2.8-15.5,1.3-20.1,11.9c-2.2,5.4-1.3,11.6,3.6,16.1c10.8,9.2,20.1,5.5,22.1-4.3"/>
	</g>
</g>
<g>
	<g>
		<path class="st0" d="M721.5,10.1c-18.5,29.3-8.6,64.2,13.5,52.2c11-6.2,18.4-18.2,20-28.7c2.1-10.6-1.3-19.8-1.6-20"/>
		<path class="st0" d="M755.9,27.9c1.4-0.8-12.1,51.9,29,46.2c16.7-4.7,24.2-18.9,23-32.1c-0.5-13.1-9.5-25.2-11.5-25.7"/>
		<g>
			<path class="st0" d="M831.4,37.4c2.2,12.8-0.1,25.2,9.7,40.9"/>
			<path class="st0" d="M818.4,8.6c3.9,4.3,6.8,8.4,8.9,12.3"/>
		</g>
		<path class="st0" d="M943,48.9c-14.1,6.6-9.5,19.3,2.9,26.7c12.4,7.3,24.8,0.1,20.3-10.3C961.7,55,959.8,41,943,48.9z"/>
		<path class="st0" d="M979.7,46.4c0.5,0.1,1.8,7.8,5.9,15.6c3.7,7.8,10.3,15.6,10.5,15.7c-2.2-0.2-7.6-15.4-5.4-27.4
			c1.7-12,10.7-20.9,26.3-7.5c21.6,15,24.4,35.3,23.8,35.3"/>
		<path class="st0" d="M844.6,3.9c0.6,0.2,12.6,12.6,14.8,25.9c4.2,13.7-1.9,28.5,8.9,42.7"/>
		<path class="st0" d="M914.2,35.8c-7.9,3.2-15.9,6.3-23.9,9.3c0.8,0.2,30.8,10.4,39.4,27.6c5.2,8.8,2,12.9-8,12.5
			c-9.4-0.3-25.4-5.2-33.2-12.3"/>
	</g>
</g>
<g>
	<g>
		<g>
			<path class="st0" d="M493.2,147.5c-17.8-6-6,23.9,5.8,27.8c13.4,3.9,15.8-4.8,10.3-13.9C504.5,153.3,493.1,147.5,493.2,147.5z"/>
			<path class="st0" d="M503.7,154.9c0.6,0,19,19,26.7,20.4"/>
		</g>
		<path class="st0" d="M281.4,138.8c-20.7-4.7-6,35.1,8.3,37.3c17.7,2.3,19.4-9.5,11.2-21.1C294,144.6,281.3,138.8,281.4,138.8z"/>
		<path class="st0" d="M293.6,146.9c0.1,0,24.7,22.6,35.3,22.5"/>
		<path class="st0" d="M81.7,119.4c-17.2-8.5-24.3,31.1-7.7,36.9c16.7,5.8,20.8-5.7,18.7-17.9C90.8,127.3,81.7,119.4,81.7,119.4z"/>
		<path class="st0" d="M89.5,129.4c-0.4,0,13.8,25.9,25.3,28.2"/>
		<g>
			<path class="st0" d="M703.3,153c-9.4-3.2-8.8,4.5-8.3,13.7c1,9.1,1.9,19.8,5.8,21.9c10.2,4.2,19.6-7.3,16.4-18.7
				C714.5,159.6,703.1,153,703.3,153z"/>
			<path class="st0" d="M712.9,161.7c-0.2,0,4.6,5.8,8.1,11.8c3.9,6,6.5,12.3,10.2,12.9"/>
		</g>
		<path class="st0" d="M723.3,126.1c5,15.5,21.6,32.4,27.8,45.8c7.7,13.4,4.9,23.3,5.3,23.3"/>
		<path class="st0" d="M744.6,123.3c4.2,15.5,19.9,32.4,26.6,45.8c8,13.3,6.8,23.2,7.2,23.2"/>
		<path class="st0" d="M788.4,117.3c1.5,15.7,14.1,33.2,20,47.1c7,13.8,7.3,24.1,7.5,24.1"/>
		<path class="st0" d="M556.4,140.2c-20.5-4.3-41,0-9.3,9.1c15.9,4.5,32,13.3,34.9,20.3c3.4,6.9-6.5,12.1-32.9,8.8"/>
		<path class="st0" d="M107.4,125.6c10,14.2,24.2,28.6,34.8,42.8c0.8,0-45.6-53.7,10.4-37.3"/>
		<path class="st0" d="M165.9,109.2c-0.4,0-1.5,14.7,10.7,31.6c11.6,16.9,25.1,35.4,33.1,42.1"/>
		<path class="st0" d="M208.5,98.4c-15.5,23.9,17.4,50,29.4,75c1.9,0-62.3-108.6,33.5,2.3"/>
		<g>
			<path class="st0" d="M324.4,132.2c5.6,13.7,16.4,23.8,23.3,30.4c7.4,6.6,10.9,9.8,11.3,9.8c1.4,0-36.6-50.8-3.1-30.6
				c34.7,20.1,40.7,32.7,39.7,32.7"/>
			<path class="st0" d="M355.9,141.8c0.7-0.1,4.3-26.9,70.5,33.4"/>
		</g>
		<path class="st0" d="M419.8,116.8c0.6,0-2,3.8-1,9.5c0.7,5.7,5,13.4,10.6,21.1c13.2,15.5,24.3,31.3,29,32.8
			c12.5,3,37.1-8.7,16.1-25.6c-19.4-17-36.2-12.5-40.4-1.5"/>
		<path class="st0" d="M625.1,124.8c-1,0,3.1,15,14.4,30.4c4.8,7.7,9.5,15.5,11.8,21.7c2.6,6.2,2.7,10.8,5.4,11.8
			c5.3,2,13.1,4.2,20.6,3.5c7.3-0.6,14.4-4.1,11.2-13c-8.7-17.6-39.9-28.2-45.5-18.3"/>
		<g>
			<path class="st0" d="M583.6,154.9c3.6,15,36.4,15.7,42,5C630.2,149.2,580.8,131.4,583.6,154.9z"/>
			<path class="st0" d="M583.6,154.9c-0.3,0,4.7,9.8,10.7,18c6.8,8.1,14.7,14.6,39.1,7.2"/>
		</g>
		<path class="st0" d="M15.4,119.2c7.6,4.8,32.1,7.7,33.8-6c2.3-13.6-4.7-22.8-20.1-13.4c-14,9.4-34.6,49.2,25.9,54.1"/>
		<path class="st0" d="M824.4,150.7c1.1-4.2-7.5-16-7.5-16c0.1,0,20.6-1.8,53.4-8.6c-5.4,16.9,3.1,62.8,1,62.9"/>
		<path class="st0" d="M845.4,148.9c16.6,0.6,46.1-7.8,46.2-7.8"/>
	</g>
</g>
<g>
	<g>
		<g>
			<path class="st0" d="M645.8,288.3c-0.5-23.5-2.4-47.1-3.5-71.1c0.4,0,11.4-3.9,40.8,16.6c27.9,20.4,24.7,28-38.5,25.7"/>
			<path class="st0" d="M663.7,259.4c15.4,12.9,28.4,25.1,40,37.7"/>
		</g>
		<path class="st0" d="M785.8,259.4c-18.2-9.6-38.7,39.1-21.2,46.3c18.1,6.8,25.6-8.1,28.6-22.9C796,269.3,785.9,259.4,785.8,259.4z
			"/>
		<path class="st0" d="M792.9,271.7c0,0.1,5.7,31.5,19.8,33.7"/>
		<path class="st0" d="M744.1,255.9c-19.5-10.3-38.4,39-21.4,46.3c17.9,6.8,26.4-8.1,29.6-22.9C755.3,265.9,744.2,255.9,744.1,255.9
			z"/>
		<path class="st0" d="M852.6,215.3c1.5,0.6,7.6,23.5,10.4,44.8c3.1,21.8,2.8,42.1-2.4,48.1c-13.1,11-50,9.5-44.1-15.8
			c6.6-25.1,30.2-31.1,47.3-24.1"/>
		<path class="st0" d="M918.4,304.3c10.7,8.5,1.6,41.8,2.3,41.7"/>
	</g>
</g>
<g>
	<g>
		<g>
			<path class="st0" d="M914.9,323.4c23-29.1,52.4-48.6,64.1-76.2c0.7,0.5,5.1,22.8,0.8,41.6c-4.1,18.7-5.9,41.1-5.2,42.3"/>
			<path class="st0" d="M941.4,294.4c13,2,24.7,4.2,36.1,6.6"/>
		</g>
		<path class="st0" d="M1002.4,342.8c-0.1,0-5.2-9.8-6.8-20.2c-2-10.6-0.4-21.6,3.1-28.7c7.3-13.7,28.2-23.7,33.8-4.1
			c5.6,19.5-22.6,26.1-37.6,25.3"/>
		<path class="st0" d="M1054.1,256.3c3.8,29.2,4.5,53.2,14.6,80.4"/>
		<path class="st0" d="M1040.4,284.3c12.1-1.4,24.8-3.6,38.4-7.1"/>
	</g>
</g>
<g>
	<g>
		<path class="st0" d="M1150.8,265.1c6.7-7.5,18.6-11,28.5-7.8c9.4,3,17.5,12.9,3.8,28.6c-28.4,32.1-55.9,39.7-55.5,20.3
			c-0.4-18.9,30.1-36.2,55.7,14.3"/>
		<path class="st0" d="M1203.3,252c16.7,30.3,3.6,49.3,12.8,78.2"/>
		<path class="st0" d="M1222.8,260.4c29,0.5,62.4,1.4,38.5,17c-24.4,14.4-30,8.3-29.9,8.6c-0.7,0.8,55.7,16,42.7,35.8
			c-13.2,21.2-41.6,0.7-40.8,0.5"/>
		<path class="st0" d="M1299.3,265c0.8,0.3-0.1,14.8,3.2,30.6c3,15.9,10.5,32.9,19.8,40.5"/>
	</g>
</g>
<g>
	<g>
		<path class="st0" d="M28.2,347.8c-2.8-11.2-5.7-24.8-7.8-37.8c-3.6-21.3-1.8-40.3,7.1-41.4c12-1.8,82.3,19.9,44.3,34.6
			c-39.5,15.2-51.6,6.9-51.3,6.8"/>
		<path class="st0" d="M87.8,288.8c17.5,10.8-0.7,62.1-0.1,63.5c-1.2-1.3,24.9-54.5,42.2-17.9c1.6,13.8,0.8,19.4,0.7,19.3"/>
		<path class="st0" d="M169.8,327.8c-19-6-41.4,21-21.8,25.8c18.7,4.1,25.6-4.6,28.5-13C178.9,333.1,169.8,327.8,169.8,327.8z"/>
		<g>
			<path class="st0" d="M191.2,334.7c-9.7,11.1,24.7,13.3,37.7,5.4C241.8,332.4,209.7,317.8,191.2,334.7z"/>
			<path class="st0" d="M191.2,334.7c-1.6-0.6-17.1,30.7,36.4,21.2"/>
		</g>
		<path class="st0" d="M241.7,329.7c2.4,10.2,5.8,20.4,14.4,31.3c-0.8-0.1-6.3-10.3-5.3-18.6c0.5-8.4,7.2-14.8,20.9-9
			c28.4,11.5,37.8,29.3,38.3,29.5"/>
		<path class="st0" d="M318.9,336c3.1,9.8,8.1,19.5,16.2,29.6"/>
		<path class="st0" d="M306.6,318c3.5,2.9,7.1,5.8,11,8.7"/>
		<g>
			<path class="st0" d="M341.7,322.1c13.7,16.7,37.6,33,56.5,50.3"/>
			<path class="st0" d="M386.7,323.5c-13.2,16.5-28.3,31.7-34.9,47"/>
		</g>
	</g>
</g>
<g>
	<g>
		<path class="st0" d="M695.7,334.4c-10.9,0-22-0.1-33.3-0.2c0.8,0.2-13.3,20.7,6.7,33.6c18.2-13.1,32.6-10,39,7.2
			c4.7,16.1-19.8,56.8-42.7,24.4"/>
		<path class="st0" d="M763.5,355.2c-12.6-5-23,7.6-29.8,21.9c-6.4,14.4-9.3,30.5,3.8,34.5c23.9,6.7,31.5-11.6,36.1-29.1
			C777.5,366.4,763.6,355.2,763.5,355.2z"/>
		<g>
			<path class="st0" d="M808.7,356.2c-8.1,17.3-19.9,32-28.6,47.5c18.5-1.7,37.4-3.7,57.3-6.5"/>
			<path class="st0" d="M822.6,370.4c-0.5,20.3-1.9,38.9,8.3,59.7"/>
		</g>
		<g>
			<path class="st0" d="M868.6,366.8c-5,17.6-11.3,34-13.2,50.7c16.3-4.2,33.7-8.8,52.3-14.3"/>
			<path class="st0" d="M884.8,378.3c5.1,19.8,13.5,39.4,21.3,59.7"/>
		</g>
		<path class="st0" d="M607.3,336.9c-3.3-11.9-1.2-17.7,20.4-14.6c22.3,3.2,4.9,13.6-10.4,31.3c-15.1,17.9-29,26-6.8,38.9
			c20.7,13,27.5,8,22.6-7.7C628.5,369.4,607.1,337.1,607.3,336.9z"/>
	</g>
</g>
<g>
	<g>
		<path class="st0" d="M408.7,369.9c0-0.8,1.5,7.3,0.2,15.1c-1.3,8.1-5.4,16.4-17.6,23.5"/>
	</g>
</g>
<g>
	<g>
		<path class="st0" d="M278.5,498.1c26,1.5,50.8,1.1,76.3-1.8"/>
		<path class="st0" d="M316.9,499.8c4,32.1-4.3,51-0.8,81.8"/>
		<path class="st0" d="M267.6,585c28.6-1.9,53.3-4.8,81.6-8.3"/>
	</g>
</g>
<g>
	<g>
		<path class="st0" d="M453.8,519.7c-13.8,34.5,6.9,72.7,23.9,58.8c18.5-14.8,16.6-46.1,14.9-46.3"/>
		<path class="st0" d="M492.7,549.9c0.7,0.3-3,11.6-0.1,23.8c2.5,11.9,11.9,24.8,30.1,20.7c15.8-5,15.9-24,17.1-38.9
			c1.6-15-8.3-30-8.9-30.2"/>
		<g>
			<path class="st0" d="M558.8,552c4.3,9.3,7.9,18.7,16,29.2"/>
			<path class="st0" d="M551.6,523.1c3,4.6,5.1,8.9,6.6,13.2"/>
		</g>
		<path class="st0" d="M625,520.3c-27.1,5.3-43.5,18.9-28.1,23.4c8.2,2.4,29.9,9.1,46.1,16.2c15.7,7.1,25.9,15.1-0.7,21.5
			c-51,12.5-49,1.7-48.9,1.8"/>
		<path class="st0" d="M639.7,508.8c1.8,0.4,13.3,22.2,17.8,39.5c3.1,9,6.6,17.6,11.2,24.2c4.2,6.6,9.5,11.2,8.3,11.1
			c-6.9-0.3-3.2-61.3,31.1-33.4c16.3,18.2,25.2,33,24.6,33"/>
	</g>
</g>
<g>
	<g>
		<path class="st0" d="M447.5,973.3c7.3,20,14.9,38.7,19.5,57.8c1.1,0.1-18.3-60.3,18.9-52.2c15.9,3.5,20.9,15.3,20.7,15.2"/>
		<g>
			<path class="st0" d="M516.2,1003.9c-4.6,26.8,37.7,8.5,39.7-4.9C557.2,985.3,518.5,975.5,516.2,1003.9z"/>
			<path class="st0" d="M516.2,1003.9c0.2-0.4-14.9,48.3,36.5,26.1"/>
		</g>
		<g>
			<path class="st0" d="M590.5,998.7c-2.4-3.8-6.3-5.3-10.4-3.3c-15,7.2-29.8,34.5-14.3,44.4C581.3,1049.1,600.5,1016.8,590.5,998.7
				z"/>
			<path class="st0" d="M593.5,1008.9c0.1,0-2.4,20.3,15.5,21.4"/>
		</g>
		<path class="st0" d="M635.3,959.7c1.5,0.7,6.2,21.8,11.7,40.7c5.4,19.3,11.6,36.4,12.6,37.3c-1.2,0.4-19.3-32.8-32.4-20
			c-14.9,12.6-5.1,25.5,11.3,26.8c16.1,1.1,21.1-6.8,21.1-6.8"/>
		<path class="st0" d="M675.5,1033.9c11.1,8.1,3.1,34.7,3.7,34.6"/>
	</g>
</g>
<g>
	<g>
		<g>
			<path class="st0" d="M1882.9,1112.5c31.5,2.8,63.3,5,94.9,6.6"/>
			<path class="st0" d="M1927.8,1115.9c16,33.7-1,59.6,0.4,96"/>
			<g>
				<path class="st0" d="M1960.9,1165.6c-7.6,24.1,39.7,8.3,44.3-2.9C2009.4,1151.5,1967.4,1141,1960.9,1165.6z"/>
				<path class="st0" d="M1960.9,1165.6c-0.9-0.9-18.9,43.8,37.6,24.8"/>
			</g>
		</g>
		<path class="st0" d="M2027.5,1161.5c-1.9,13.7-6.8,27.2-1.9,43.6c-1.6-0.5-2.1-15.2,3.2-26.2c4.8-11.2,15.1-18.6,25-9.2"/>
		<path class="st0" d="M2075.7,1165.2c1,14.7,1.3,29.1,16.7,46.2c-2.1-0.4-9.3-15.1-8-27.3c0.3-12.3,9.1-22,15.6-16.6
			c8.4,5.9,11.4,17.4,18.6,28.4c6.2,10.8,16.8,21.1,17,21.1"/>
		<path class="st0" d="M2107.1,1175.2c-0.1,0.1,1.2-24.9,21.9-7.2c10.4,8.8,17.2,20,24.3,29.4c6.6,9.3,13.6,16.8,13.4,16.8"/>
		<path class="st0" d="M2226.3,1155.3c-49.8,1.2-84.9,0.4-67.2,14.3c19.4,13.9,63.7,8.6,81.2,16.9c8.2,4.4-3.5,12.5-19.1,16.5
			c-15.9,4.1-35.5,3.9-49.7-6.4"/>
	</g>
</g>
<g>
	<g>
		<g>
			<path class="st0" d="M729.1,982.7c-6,21.6,3.3,53.4,27.1,55.1c24.3,1.6,27.4-37.2,21.3-48.2"/>
			<path class="st0" d="M808.6,987.6c7.3,16.9,8.7,32.9,9.1,49.6c-0.3-0.1-0.9-13.3,0-25.3c1.4-12,4.4-22.8,22.9-17.7
				c39.7,10.3,24.3,47.7,24.1,48.1"/>
			<path class="st0" d="M896.6,963c35.5,29.6,32.4,52.1,30.7,77.1c-0.6-0.2,1.5-15.3-5-27.7c-5.5-12.3-19.3-21.8-29.4-9.1
				c-25.3,25-16.1,33.6,34.4,36.8"/>
			<path class="st0" d="M951.7,1021.4c31.4,4.9,44-4.8,38.6-14.8c-7.1-10.1-40.8-1.8-40.6,25.8c1.1,28.4,37.2,7.7,37,7.7"/>
			<path class="st0" d="M1013.9,1012.5c0.3,0.8-5.9,38-4.4,38.4c-1.6-0.4,6-15.3,13.8-28.5c8.3-13.1,16.8-24.6,28.3-16.3
				c7.3,6.3,6.4,9.8,6.4,9.8"/>
			<path class="st0" d="M1108.2,1020.1c-18.1-9.3-49-7.3-36.1,0.5c12.8,7.9,31.7,19,26.3,31c-4.9,12-24.2,20.6-40,6.4"/>
			<path class="st0" d="M1121.7,985.3c10.5,28.9-5.9,51.8,6.8,77.8"/>
			<path class="st0" d="M1187.2,1016.8c-2.5-3.6-6.8-4.5-11.8-2.2c-19.8,9-25.7,37.9-1.8,45.9c11.6,4.1,15.1-2.7,17.2-12.4
				C1192.4,1038.3,1192.7,1025.5,1187.2,1016.8z"/>
			<path class="st0" d="M1238,1014.8c-3.3-3.4-8.2-3.6-13.1-0.9c-19.9,10.7-18.3,40.1,7.8,46.1c12.4,3.1,15.6-4.4,15.9-14.5
				C1248.6,1035.4,1245.8,1022.7,1238,1014.8z"/>
			<path class="st0" d="M1305.6,977.3c5.2,27.8,9.3,53.5,20.8,79.9c-1.8-0.1-22.6-48.3-47.4-23c-26,24.9,5.2,29.5,26.4,29.2
				c21.7-0.4,21-6.3,21-6.2"/>
			<path class="st0" d="M1098.8,1004.3c17.3,0,34.6-0.1,52.1-0.5"/>
		</g>
		<path class="st0" d="M1351.2,1053.6c-0.1,9.2,0,18.3,0.3,27.4"/>
	</g>
</g>
<g>
	<g>
		<g>
			<path class="st0" d="M1412,1109.5c-18.2-32.8-61.5-24-66.1,22.8c1.1,46.9,22,54.1,56.8,47.3"/>
			<path class="st0" d="M1442.6,1133.7c-24-10.1-46.7,51.4-24,59.2c21.8,6.3,28.4-14.9,33.7-32.8
				C1456.7,1143.7,1442.7,1133.8,1442.6,1133.7z"/>
			<path class="st0" d="M1452.2,1147.2c0.6-0.4,5.5,36.7,21.3,38.7"/>
			<path class="st0" d="M1543.6,1126.7c-33.7-12.2-67.5,14.1-46.7,24.2c22.4,10.4,50.1,4.5,41.8,22.9c-6.7,18.7-30.2,36.4-55.9,14.4
				"/>
			<g>
				<path class="st0" d="M1584.7,1127.3c-3.6,6.8-2.1,16.7-2.2,16.7"/>
				<path class="st0" d="M1579.3,1154.4c1,0.3-6.8,9.2-8.3,21.3c-1.8,12,2.9,27.3,21.3,36.9"/>
			</g>
			<path class="st0" d="M1609.6,1151.1c2.3,0.4-4.7,13.8,0,29.2c2.8,15,17.6,31.9,19,31.5c-1.7-1-18.7-19.8-15.2-34.7
				c2-15.1,12.6-28.6,26-26.2c15.4,2.9,13.4,16.4,18.4,30.6c3.3,14.1,13.9,28.9,15.2,29.1"/>
			<path class="st0" d="M1715.9,1148.3c-5.2-2.9-11.9-2.3-18.1,1.9c-11.4,7.9-21.2,20.5-17.6,32.4c2.5,11.7,18.6,22.7,35.1,23.9
				c16.3,1.2,15.9-10.5,15.7-23.5C1729.6,1169.8,1728.4,1155.3,1715.9,1148.3z"/>
		</g>
		<path class="st0" d="M1769.8,1120c-12.2,15.1-11.9,23.7-11.7,23.8"/>
		<path class="st0" d="M1830.7,1124.9c-16-4.4-55.1,29.2-32,33.1c23.2,4.3,77.7,11.8,51.5,29.6c-23.2,17.2-48.3,4.1-49,4.2"/>
	</g>
</g>
<g>
	<g>
		<path class="st0" d="M501.8,314.3c13.6-0.3,27.2-1.1,41-2.6c0.8,0.4-11,17.5-23.7,32.6c-12.5,15.7-25.8,29.4-22.1,36.9
			c4.8,11.8,62.7-5.1,64.9-5.6"/>
		<path class="st0" d="M427.3,376.9c-0.8,0.4,7.7-15.4,17.7-30.5c10-15.5,21.5-30.6,26.2-37.4c12.8,15.7,12.3,31.7,13.7,46.8
			c0.6,14.7,3.4,28.3,4.4,28.8"/>
		<path class="st0" d="M446.6,343.9c14,1.7,26.1,3.9,38,6"/>
	</g>
</g>
<g>
	<g>
		<g>
			<path class="st0" d="M2042.2,974.1c6.4,20.2,12,38.4,15.4,56.6c3.9,18.3,5.5,36.6,14.1,60.1"/>
			<path class="st0" d="M2127.6,1029.5c-6.4-3.4-14-4.1-20.8-2.4c-25.1,5.3-39,34.4-5.6,47.4
				C2135.9,1087,2160.5,1044.1,2127.6,1029.5z"/>
		</g>
		<path class="st0" d="M2027.8,1024.3c22.7-2.7,40-1.6,57.2-1.3"/>
	</g>
</g>
<g>
	<g>
		<path class="st0" d="M846.4,1195.7c-24.4-10.7-54.2-6.8-37.5,3.6c15.7,10.1,45.5,22.3,44.4,38.6c-2.4,16.5-24.9,28.1-45.3,11.6"/>
		<path class="st0" d="M647.9,1219c29.5,14.1,45.2,3.7,40.3-11.7c-3.1-8-16.6-11.4-25.4-7.4c-9.6,3.8-14.6,15.2-19.4,33.6
			c-4.2,18.8,6.8,24,16.4,24.1c10,0.1,18.7-5,19.1-4.9"/>
		<path class="st0" d="M704.5,1220.5c29.9,13.4,45.7,2.2,41.5-13.3c-2.4-7.9-14.8-11.1-24.4-6.7c-10.1,4.2-17.4,16.1-21.6,34.8
			c-2.6,18.9,10.1,23.7,20.3,23.5c10.7-0.2,18.9-5.4,19.4-5.4"/>
		<path class="st0" d="M778.7,1281c0.9,0.1-5.3-4.4-9.9-11c-4.9-6.6-8.2-15.2-9.3-24.2c-1.7-17.7,2.8-38.2,3.9-45.3
			c4-13.7,45.5-8.5,29.2,12.7c-17.4,20.9-33.8,17.8-33.6,18"/>
		<path class="st0" d="M487.5,1181.8c0.3,0.1-28.8,2.5-37.6,17.2c-6,14.8,50.6-12.4,65.5,8.7c8.6,10.3-3.3,26.6-18.2,36.9
			c-15.5,10.1-33.9,14.2-53.3-3.5"/>
		<path class="st0" d="M534.9,1187.7c0.9,0.3,6.5,13.7,7.8,27.5c2.6,13.9,0.8,28.3,15.3,34.4c11.8,5.3,23.3-5.9,28.5-18.3
			c5.6-12.4,5-26,3-26.5"/>
		<path class="st0" d="M583.1,1237.6c-0.3-0.2,2,20.4,28,21.4c11.6,0.1,16.1-15.6,19.8-30.4c1.2-7.5,0.8-15.2-1.8-21.4
			c-2.2-6.1-6.5-10.7-6.1-10.6"/>
	</g>
</g>
<g>
	<g>
		<g>
			<path class="st0" d="M19.3,169.5c7.5-6.4,49.4,0.3,41.2,12.9c-10.5,12.4-19.6,15.3-38.8,13.1"/>
			<path class="st0" d="M45.4,194c-0.3-0.1,18.6-3.9,22.3,16.5c2.5,20.4-19.5,28.2-35.5,24.6"/>
			<path class="st0" d="M104,167.7c-8.2,15.7-20.1,29.8-23.9,42.3c-4.1,12.2,0.2,23,16.3,24.9c30.2,2.9,44.8-34,22.5-25.6
				c-22.6,8.2-24.4,7.6-22.5,25.6"/>
			<path class="st0" d="M146.9,189.1c20.9,4.8,30.1,15.8,17.8,36.4c-9.9,21-22.9,22.3-29.1,9.9c-2.6-6.1,0.1-11.3,5.4-12.1
				c5.7-0.7,14,3,31.9,15.6c17.8,10.4,18.7,7,18.4,7"/>
		</g>
		<path class="st0" d="M240.1,197.8c-12.2,0.1-23.5-0.4-34.3-1.2c-1.1,6.1-2.4,12-3.5,17.8c0.4,0.1,14.6-3.4,32.3,12.6
			c18.7,16.1,19.8,20.1-0.4,24.8c-23.9,5.8-32.5,3.2-33.9-3.3"/>
	</g>
</g>
<g>
	<g>
		<g>
			<g>
				<path class="st0" d="M117.2,820.6c13.2,39.1,2.6,69,6.2,112.3"/>
				<path class="st0" d="M86.6,863c22.2,2.3,41.8,4.6,60.1,7.1"/>
				<path class="st0" d="M161.2,845.8c4.7,0.2-0.6,72.8,3.9,77.9c-0.6,0.1,2.4-16.6,9.5-28.4c6.8-12.1,17.5-19.1,25.6-6.6
					c18.2,26.1,23.4,34.4,22.4,34.2"/>
			</g>
		</g>
		<path class="st0" d="M229.9,888.7c0.3,0.1,0.2,7.9,4.5,16.8c3.9,8.8,12.4,18.8,21.3,21"/>
		<path class="st0" d="M227.1,859.2c0.5,13.3,4,15.2,4.1,15.2"/>
		<path class="st0" d="M307.7,868c-45.8,1.2-68.6,10.9-39,17.6c29.9,6,92.6,21.5,52.8,38.6c-34.3,16.1-68.3-7-67.7-7"/>
	</g>
</g>
<g>
	<g>
		<g>
			<path class="st0" d="M193.2,1204.1c-2.6-4-7.1-5.9-12-4.7c-19.3,3.8-33.6,32.1-17.3,43c8.3,6.2,17.1,0.3,24-8.5
				C194.6,1225,199.3,1213.3,193.2,1204.1z"/>
			<path class="st0" d="M196.1,1214.1c0.2-0.1-4.1,19.5,12.6,23.4"/>
		</g>
		<path class="st0" d="M215.9,1205.3c4.7,13.9,3.4,26.6,11.3,43.1c-4-2.2-5.6-50.2,16.8-33c19.9,16.1,27.8,35.8,29.1,36.3"/>
		<path class="st0" d="M302.2,1180.7c9,24.4,15.7,42.6,29.4,64.1c0.5-0.1-6.2-12.6-13.7-22c-7.9-9.5-16.5-15.7-29-4.9
			c-28.6,19.8,2.2,51.2,42.7,26.9"/>
	</g>
</g>
<g>
	<g>
		<g>
			<path class="st0" d="M1005.1,1229c-0.4,32.8,10.1,48.1,43.5,44.2c16.5-1.9,15.8-12.4,13.5-22c-2.7-9.7-7-18.6-7.1-18.7"/>
			<path class="st0" d="M1075.2,1188.7c1.8,0.7-2.6,20.6-1.3,39.3c1.1,18.9,8.3,36.7,27.9,39.3"/>
		</g>
		<path class="st0" d="M939.1,1271.5c-2.6-22.2-4.2-40.8-8.2-61.5c0.1,0,7.8-7.7,9.7-9.9c2.2-2.2,24.2-0.5,34.5,5.9
			c10.7,6.5,19.7,20.1,0.3,25.4c-19,5.4-40.5,1.3-40.8,1.3"/>
		<path class="st0" d="M946.5,1234.4c-0.1-0.1,11.2,2.2,20.9,7.6c10.2,5.5,18.8,14,23.4,29.1"/>
	</g>
</g>
<g>
	<g>
		<g>
			<path class="st0" d="M1193.4,746.2c-8.4-11.3-18.7-13.3-30-8.8c-10.9,4.6-22.7,15.6-25.2,31.3c-2.3,31.4,7.7,44,51,40.2"/>
			<path class="st0" d="M1219.4,772.1c-16.7-7.5-35.6,33.1-18.8,39.3c15.9,5,20.7-9.2,24.4-21.2
				C1228.2,779.1,1219.6,772.2,1219.4,772.1z"/>
			<path class="st0" d="M1225.2,781.4c0-0.3,3.3,25.1,15.2,27.1"/>
			<path class="st0" d="M1291.3,777c-17.1-8-42.2,6.4-29.5,13.2c13.1,7,29.3,4.1,26.4,15.4c-1.4,11.6-15.4,21.6-32.9,7.4"/>
			<path class="st0" d="M1343.6,783.3c0.9,0.2-1.7,9.7,2.5,20c3,10.2,13,21.1,13.5,20.8c-1.8-0.7-10.8-12.5-10.5-22.8
				c-0.7-10.4,7.7-19.3,17.4-17.6c11.5,2,13.5,11.6,17.9,21.3c3.5,9.6,9.4,19.2,9.8,19.3"/>
			<path class="st0" d="M1433.8,780.3c-4.8-2.6-10.4-2.6-15.6,0.1c-9.5,5.1-16.8,14.1-15.5,22.8c0.8,8.6,10.5,16.9,23.9,19.2
				c12.7,2.3,18.4-5.2,20.1-14.7C1448.1,798.1,1445.4,786.4,1433.8,780.3z"/>
			<g>
				<path class="st0" d="M1316.3,772.9c1.6,0.4-21.5,33.4,5.5,51.7"/>
				<path class="st0" d="M1321.8,748.8c-1.2,6.7-1.3,15-1.4,14.9"/>
			</g>
		</g>
		<path class="st0" d="M1469.9,808.4c-0.9,3.4-1.7,6.8-2.4,10.2"/>
	</g>
</g>
<g>
	<path class="st0" d="M414.3,272.8c-0.2-0.3-0.4-19.9-1.1-38c-0.9-18.9-1.9-39.2-1.7-39.7c-0.3-1.3,31.9-0.9,47.7,22.2
		c17.2,19,16,26.4-14.2,23.9c-24.8-4.2-32-6.1-31.8-6.4c2.1-0.9,12.9,8.5,27.9,19.3c14.5,10.7,33.9,22.2,38.3,25.4"/>
</g>
<g>
	<path class="st0" d="M507.3,242.5c-10.4-5.6-19.5,1-25.9,7.9c-6.9,10.2-5.2,20,4.6,28.2c6,3.9,11.9,1.2,15.9-1.8
		c8.4-6,19.1-20.3,9.7-29.6C510.2,245.2,508.7,243.7,507.3,242.5z"/>
</g>
<g>
	<path class="st0" d="M513.4,251.8c0.7,0.1-0.5,25.9,18.4,28.8"/>
</g>
<g>
	<path class="st0" d="M528,247.1c9.1,22.5,9,37.3,30,31.8c21.6-9.2,12.3-34.8,12.4-34.6c-0.3,1.1,10.1,74.9,9.3,89.3
		c0.5,6.7-15.1,8.3-31.7,1.6c-16.9-6.2-33.9-20.6-44.7-31.5"/>
</g>
<g>
	<g>
		<g>
			<path class="st0" d="M62.1,697.2c-4-36.8-0.1-92.5,29-86c15.4,3.4,26.1,14.3,26.7,24.1c1,9.9-8.2,18.6-24.4,18.5
				c-33.3-0.4-31.6-4.5-31.4-4.5"/>
			<path class="st0" d="M153,631.1c-11.2-6.1-19.4,2.1-25.4,12.8c-5.5,10.7-8.7,23.9,0,28.2c16.3,8.4,28.3-4.4,33.3-18.1
				C165.5,641.7,153,631.2,153,631.1z"/>
			<path class="st0" d="M161.2,643.6c1.5,0.1,2.7,30.2,12.9,33.9"/>
			<path class="st0" d="M190.8,647c4.2,10.6,5.4,20.9,6.4,31.6c-0.2-0.1,1.1-9.8,5-18.6c4.2-8.8,10.8-16.7,28.4-13.3"/>
			<path class="st0" d="M239.1,609.3c29.3,27.6,21.6,48.3,16.3,71.3"/>
			<path class="st0" d="M236.1,647.2c15.8,6,47.2,2.6,47.2,2.6"/>
			<g>
				<path class="st0" d="M303.9,621.8c1.4,6.4,6.3,15.9,6.1,15.9"/>
				<path class="st0" d="M310.4,647.2c0.4,0.1-2.5,8.5-6.2,18.4c-3.3,9.9-7.3,21.4-1.4,28.7"/>
			</g>
			<path class="st0" d="M367,649.6c0,0.1-21.6,8.4-40,23c-7.5,4.5-8.9,14.7-1.8,21.9c6.7,7.1,21.9,11.1,38.5,2.2"/>
			<g>
				<path class="st0" d="M393.8,618.4c2.2,8.3,6.5,19.8,6.2,19.7"/>
				<path class="st0" d="M399.6,649.7c2.8,0.7-22.4,39.8-1.7,56.2"/>
			</g>
			<path class="st0" d="M447.5,729.3c-47.2-30.4-23.9-69.4-0.3-74.6c27.5-4.2,27,23.8-0.6,32.1c-28,8.4-26.4,4.7-26.5,4.7"/>
			<g>
				<path class="st0" d="M524.5,659.5c-3.7-18.8-53.2,12.4-46,26.8c9.7,15,24.1,7.9,34.8-3.3C523.5,673,524.6,659.5,524.5,659.5z"/>
				<path class="st0" d="M524.5,659.6c-0.9,0.2,1.1,30,16.8,32.6"/>
			</g>
			<path class="st0" d="M561.4,623.7c4.2,25.3,1.6,47.7,11.6,70.4"/>
			<path class="st0" d="M595.1,648.3c-0.3,0.1-41.1,2.6-61.6,8.7"/>
		</g>
		<g>
			<path class="st0" d="M598.9,660.7c10.8,2.8,23.1,0.8,30.2-4.7c7.2-5.4,14.2-16.9,8.3-18.5c-5.9-1.6-11.3-4.6-20.5,3.3
				C607.5,648.8,598.9,660.7,598.9,660.7z"/>
			<path class="st0" d="M598.9,660.7c-7.8,11.7-14.6,33.9,14.8,34.5c11.8,0.5,21.6-1.3,21.7-1.3"/>
		</g>
	</g>
</g>
<g>
	<g>
		<path class="st0" d="M1550.8,788.7c0.5,19.5,18.3,36.3,31.7,35.3c13.2-1.1,18.7-19.2,13.4-35.2c13.7,27.5,29.6,48.4,34.6,65.1
			c5.6,16.4-0.2,29-16.5,32.7c-16.4,4.8-39.1-4.7-54-15.2c-15.4-10.6-23.5-22-23.8-21.7"/>
		<path class="st0" d="M1501.5,821.6c-0.5-24.4-2.5-49.2-3.2-74.7c0,0.1,19.8,0.6,40.3,13.1c2.4,1.5,4.6,3.6,6,6
			c11.7,18.7-43.2,10.2-45.1,10.9c0.9-0.4,42.4,6.6,44.3,25.4C1545.8,820.9,1532.9,828.6,1501.5,821.6z"/>
	</g>
</g>
<g>
	<path class="st0" d="M1092.4,1236.3c-0.1,9.7,25.1,5.7,28-8.3c2-13.6-6.4-15.5-14.5-11.7
		C1098.3,1219.5,1092.9,1227.8,1092.4,1236.3z"/>
</g>
<g>
	<path class="st0" d="M1094.1,1236.4c-0.5,0.4,2.3,7.3,7.5,15.1c5.6,7.6,14,16.7,34.8,17.3"/>
</g>
<g>
	<path class="st0" d="M1172.6,1211.6c-24.8,5-31.5,12.2-31.5,12.9c3.4,0.4,52.8,19.7,57,37.3c-0.8,22.4-42.1,10.1-41.9,8.9"/>
</g>
<g>
	<path class="st0" d="M1238.2,1359.7c-0.7,2.4-1.7,3.4-3,5.6"/>
</g>
<g>
	<path class="st0" d="M376.7,9.2c-1.1,18.2-2.2,36-3.4,54.4c1,0.3,41.6-4.1,51.8-7.7"/>
</g>
<g>
	<path class="st0" d="M462.4,52.4c1.2-11.9-8.3-21-20.5-22.8c-5-0.2-8.7,1.4-11.4,6.3c-5.9,10.9-7.1,22.1,13.7,26.9
		C456.1,64.5,460.7,59.3,462.4,52.4z"/>
</g>
<g>
	<path class="st0" d="M480.5,31.1c-13.4-0.4-19.2,14-13.8,22.3c4,7.9,17.5,15.9,22.9,9.7c5-4.8,16.6-9.7,11.5-19.1
		C496.9,35,496,31.1,480.5,31.1z"/>
</g>
<g>
	<path class="st0" d="M498.2,55.3c-0.6,1,15.2,23.4,4.3,39.5c-4.6,8.7-19.6,2.8-30.3-4.8C461,82.2,454,73.2,452,72.4"/>
</g>
<g>
	<path class="st0" d="M548.7,33.9c-1.7-4.6-7.3-7.9-12.1-5.8c-12.9,6.1-27,15.2-25.7,26.6c0.9,10,28.1,30.8,35.6,14.8
		C552.1,59.9,552.2,42.7,548.7,33.9z"/>
</g>
<g>
	<path class="st0" d="M549.5,38.9c0.9,0,0.4,18.9,20.2,23.6"/>
</g>
<g>
	<path class="st0" d="M575,29.4c6.8,13.7,9.7,23.9,15.2,39.1c-1.6-1.3-4.3-14.1-5.4-25.2c-0.5-11.1,0.2-20.2,18-13.3
		c17.5,8.1,25.8,16.2,33,23.3c6.6,7,12.3,12.7,11,12.9"/>
</g>
<g>
	<path class="st0" d="M364.8,198.3c-0.1,0-26.5,12.5-36.7,9.2c-10.2-2.2-24.1-4.1-24.2-4c0.3,1,8.4,44.2,6,58.4
		c-0.3,14.2,56.3-4.9,57.5-5.3"/>
</g>
<g>
	<path class="st0" d="M310.1,233.4c22.3,1.7,30.9,2,53.3,0.8"/>
</g>
</svg>
