<?xml version="1.0" encoding="utf-8"?>
<!-- Generator: Adobe Illustrator 25.0.0, SVG Export Plug-In . SVG Version: 6.00 Build 0)  -->
<svg version="1.1" id="Layer_1" xmlns="http://www.w3.org/2000/svg" xmlns:xlink="http://www.w3.org/1999/xlink" x="0px" y="0px"
	 viewBox="0 0 2034.4 1096.2" style="enable-background:new 0 0 2034.4 1096.2;" xml:space="preserve">
<style type="text/css">
	.st0{fill:none;stroke:#64648A;stroke-width:1.3333;}
</style>
<g id="Layer_2_1_">
</g>
<g>
	<g>
		<path class="st0" d="M576.7,483.3c8.3,30.3,10.1,59.3,15.2,91.7"/>
		<path class="st0" d="M567.1,527c16.2-2.3,29.8,0.2,43.7,1.5"/>
		<path class="st0" d="M617.2,537.3c-7.6,3.5-12.1,38.7,9.2,34.3c-0.1-0.2,6.1-1.3,11.7-3.2c5.5-2.2,10.3-5.2,7.3-16.6
			C638.2,531.4,617.1,537.9,617.2,537.3z"/>
	</g>
</g>
<g>
	<g>
		<path class="st0" d="M720.9,531.7c1.3,0.1,13.8,38.3,11.9,38.8c-0.9-0.2,2.6-15.4,4.3-28.6c2.4-13,4.2-24.6,22.2-15.2
			c12.1,7.2,12.6,10.9,12.8,10.9"/>
		<path class="st0" d="M774,542.2c26.5,8.8,35.9,1.6,30.1-8.4c-9.3-10.4-34.5-8-30.5,18.7c1.6,27.4,29.7,12.8,29.5,12.6"/>
		<path class="st0" d="M851.6,539.6c-15.8-9.1-33.3-6.1-38.4,14.8c-5.5,21.6,28.9,21.8,30.9,9.3"/>
		<path class="st0" d="M856.9,548.5c23.3,8.2,33.2,1.5,30.4-7.1c-4.6-9-31.9-8.1-32.3,16.4c0.8,12.5,10.8,15.4,18.1,14.9
			c7.6-0.4,12.4-4,12.9-3.9"/>
		<g>
			<path class="st0" d="M903,531c6.4,2.3,3.3,8.7,3.2,8.7"/>
			<path class="st0" d="M904.8,548.6c0.4,7.7,0.9,15.3,7.3,23.2"/>
		</g>
		<path class="st0" d="M928.4,546.5c-4.8,14.9,15.2,26.4,16,26.5c-1.6-0.2,11.5-15.1,12.8-25.4"/>
		<path class="st0" d="M970.3,553c28.2,7.6,37.6,1.1,32.3-8.1c-4.1-8.6-37.4-5.1-31.8,16.6c12.2,22.5,37,12.6,36.9,12.4"/>
	</g>
</g>
<g>
	<g>
		<path class="st0" d="M1399.9,539.2c-22.6-5.9-50.6-2.2-35.1,2.9c15.6,5,42.7,13.6,41.9,24.6c-1.5,10.7-17.3,16.2-36.1,5.4"/>
		<g>
			<path class="st0" d="M1147.2,535.1c-9.7,26.3-4.3,43.6,12.5,44.1c12.2-1,14.7-25.8,14.3-33.7"/>
			<path class="st0" d="M1173.7,555.2c-0.4-0.2,4.2,21.4,24.9,17.7c11.3-4.8,11.5-35,4.6-41.6"/>
		</g>
		<path class="st0" d="M1229.3,551.3c28.3,7.4,37.9-0.6,34.1-9.7c-3.5-9.3-38.5-7.1-34.5,20.2c3.6,13.9,14.6,16.4,22.7,15.4
			c8.4-1,13.9-5.4,14.3-5.3"/>
		<path class="st0" d="M1269.2,557.6c32.5,6.2,42.2-1.3,37-9.7c-3.8-8.4-44.3-5.7-35.9,19.3c6.9,12.7,19.6,14.6,28.4,13.6
			c9.1-1,14.3-5.1,14.9-5"/>
		<path class="st0" d="M1335.5,578.7c-0.1,0-7.3-7.1-11-14.9c-4.1-7.8-4.7-16.3-2.2-20c5-7.3,41.2-5.9,28.3,6.4
			c-12.7,12.1-27.1,11.1-27.2,11.1"/>
		<path class="st0" d="M1103.9,502.5c-7.8,7.9-18.1,15.7-29.1,23.4c0.4-0.9,71.3,3.4,49.2,35.5c-20.3,32.4-44.5,9.6-49.7,1.2"/>
	</g>
</g>
<g>
	<g>
		<path class="st0" d="M1501.2,526.1c-14.3-23.2-20.3-12.8-28.5,21.8c-8.1,33.1,2.5,53,16.3,48.4c8.7-3.7,19.4-16.6,19.5-16.5"/>
		<g>
			<path class="st0" d="M1551.5,524.5c5.8,4.3,6.4,8.7,6.4,8.7"/>
			<path class="st0" d="M1559.1,556.1c0.1-0.1,1.9,24.1,11.9,35.4"/>
		</g>
		<path class="st0" d="M1578.2,554.6c1.4,13,2.7,26.1,10.3,39.8c-1-0.1-5.9-13.2-4.3-25.1c1.2-12.1,8.9-22.1,22.2-19.5
			c14.4,2.9,20.6,12.4,25.3,21.6c4.4,9.2,7.4,18.1,7.5,18.2"/>
		<path class="st0" d="M1673.6,550.7c-18.3-6.7-41-3.9-28.7,2.1c12.3,5.7,34.2,15.8,33.1,27.6c-1.7,11.3-14.7,15.9-29.7,4.1"/>
		<path class="st0" d="M1525.5,550.5c6.6-2.9,16.7,8.4,20.6,12.6c4.6,5.1,4.9,12.2,4.3,19.9c-0.4,3.7-3.4,9.3-6.2,11.4
			c-12.1,8.2-27.3-6.2-27.8-18.7C1516.1,570.6,1521.3,552.2,1525.5,550.5"/>
	</g>
</g>
<g>
	<g>
		<path class="st0" d="M1754.1,504.8c8.6,34.9,9.2,67,14.6,105.2"/>
		<path class="st0" d="M1742.7,553.9c15.2-4.5,28.5-6.2,41.7-6.8"/>
		<path class="st0" d="M1789.2,579.7c-0.8,8.8,2.8,16.6,13.9,16.5c0,0.1,7.5-0.8,14.8-1.8c7.3-1.5,14.4-2.9,13.3-14.9
			c-0.7-5.8-3-10.2-6-13.1C1812.1,554.3,1790.9,560.9,1789.2,579.7z"/>
	</g>
</g>
<g>
	<g>
		<path class="st0" d="M92.2,673.9C89,639.1,76,590.3,97.6,589c24.2-0.7,36.3,35.8,11.4,40.1c-23.2,4.4-22.5,0.3-22.5,0.3"/>
		<path class="st0" d="M154.9,617.4c-15.3-7.3-26.9,34.5-14.6,39.8c13.2,5.2,19.8-7.7,21.8-20.6C163.8,625,154.9,617.4,154.9,617.4z
			"/>
		<path class="st0" d="M161.2,627.4c0.6-0.1,5.3,26.5,14.1,28.2"/>
		<path class="st0" d="M179.3,625.4c1.9,15.4,0.7,30.8,2.7,47.6c-0.9-1.1,2.7-58.4,26.5-45.6"/>
		<path class="st0" d="M211,582.5c27.9,32.7,17.4,58.6,27.8,90.5"/>
		<path class="st0" d="M206.4,615.3c13.9,4.4,36.4-6,36.3-6"/>
		<g>
			<path class="st0" d="M263.9,590.6c0.9,6.4,4.8,16.1,4.7,16.1"/>
			<path class="st0" d="M269.1,616.5c1.8,0.1-11.1,34.9,0.9,50.1"/>
		</g>
		<path class="st0" d="M321.4,624.6c0,0.1-20-8.5-30.6,1.8c-5.2,5.1-7.9,17.3-3.7,26c3.8,8.7,14.7,13.5,28.2,3.8"/>
		<g>
			<path class="st0" d="M332.9,600.6c0.9,6.2,5.5,13.7,5.5,13.7"/>
			<path class="st0" d="M340.4,622.6c0.3,0.1-1.1,31.4,17.3,39.6"/>
		</g>
		<path class="st0" d="M384.2,677c-27.7-19.9-25.8-51.2-6.2-56.5c21.2-5,26.2,15.1,5.9,23.6c-20.2,8.8-19.6,6.1-19.6,6"/>
		<g>
			<path class="st0" d="M423.4,631.3c-14.8-6.3-29.3,28.2-10.5,32.4c15.7,4,16.1-6.4,16.9-16.7C430.2,637.5,423.5,631.3,423.4,631.3
				z"/>
			<path class="st0" d="M428.6,639.3c-1.1,0,8.1,21.3,19.8,22.8"/>
		</g>
		<path class="st0" d="M462.4,607.9c4.7,22.6,7.9,42.9,26.2,66.1"/>
		<path class="st0" d="M442.9,628.2c16,4.6,46.5-6.2,46.4-6.4"/>
		<g>
			<path class="st0" d="M498.4,636.4c-4.9,14.6,23.4,17.2,31.8,6C538,630.5,508.9,612.5,498.4,636.4z"/>
			<path class="st0" d="M498.4,636.4c-1.6,0.1-4.9,39.1,34.2,28.1"/>
		</g>
	</g>
</g>
<g>
	<g>
		<g>
			<path class="st0" d="M618.2,613.4c-1.8,4.9,0.7,11,0.7,11.1"/>
			<path class="st0" d="M619.2,631.6c0,0.7-4.1,24.8,5,38.9"/>
		</g>
		<path class="st0" d="M635.1,630.5c1.8,13.1,2.1,25.6,4.2,39.8c-0.7-1-0.9-41.9,16.2-37c15.9,2.8,28.3,35.2,28.7,37.8"/>
	</g>
</g>
<g>
	<g>
		<path class="st0" d="M756.5,594.3c9.7,28.4,7.2,52.9,11.6,83.5"/>
		<path class="st0" d="M732.8,626.2c17.4-1.6,33.2-0.8,48.3,0.3"/>
		<path class="st0" d="M792.3,598.9c9.1,27.8,4.3,48.5,13.1,74.2c-2.5-0.6-1-23.4,3.7-34.9c5.3-11.7,13.3-11,34.1,25.3"/>
		<path class="st0" d="M845.3,650.8c7.2,4,14.5,7.6,18.7,2.5c4.2-4.6,15.2-25.5,3.6-25.8c-10.9,0.3-30.2,12.4-18.9,33.3
			c5.6,10.4,16.1,12.3,24.9,10.1"/>
	</g>
</g>
<g>
	<g>
		<path class="st0" d="M993.6,613.7c-30.7-11.6-63-6.3-42.5,1.8c22.2,8.2,55,23.4,49.1,38.7c-5.6,15.5-27.9,24.2-44.5,7.1"/>
		<path class="st0" d="M1237.3,645.3c-21.2-9.2-54-8.9-38-0.9c15.7,7.9,37.9,18.5,35.6,29.3c-1.5,10.9-19.7,19.4-40.4,6.1"/>
		<path class="st0" d="M1476.7,654.2c-15.8-6.6-36.4-5.3-25.2-0.1c11.3,5.2,30.1,13.8,29,22.1c-1.3,8.2-12.9,12.2-25.8,2.6"/>
		<g>
			<path class="st0" d="M1016.8,642.5c-8.3,19.9-5.9,32.6,6.1,34.3c9.5,0.5,14.4-18.4,14.2-24.9"/>
			<path class="st0" d="M1036.1,659.5c0-0.1,1,16.8,16.5,15.7c10.1-2.5,13.2-28,7.8-33.3"/>
		</g>
		<path class="st0" d="M1074.2,652.5c20.5,8.2,28.9,1.8,27-6.4c-2.6-8.4-28.4-7.7-28.7,15.3c-0.3,23.5,24.5,11.6,24.3,11.5"/>
		<path class="st0" d="M1111.4,653.4c19.8,8.1,28.3,1.8,26.7-6.2c-2-8.1-27.6-7.8-28.8,14.9c-0.2,23.2,24.6,11.3,24.1,11.2"/>
		<path class="st0" d="M1398.9,660.2c23.9,6.9,31.4,1.8,27.6-5.4c-3-7.2-32.4-6-27.2,12.6c9.1,18.9,31.5,10,31,9.9"/>
		<path class="st0" d="M1156,695.4c-0.5,0-6.3-10.1-7.1-20.5c-1.5-10.6,1.9-21.5,4.5-25.9c6.5-8.7,38.5-3.4,22.7,10.3
			c-15.1,14.2-27.4,12.1-27.6,12"/>
		<g>
			<path class="st0" d="M1263.5,627.2c3.6,21.2-8.5,40,12.4,61.6"/>
			<path class="st0" d="M1247,648c11.1-0.6,22.2-1.2,33.3-1.8"/>
		</g>
		<g>
			<path class="st0" d="M1318.5,655.2c-1.5-1.9-4.1-2.6-7.2-1.5c-12.3,3.8-19.2,19.7-5,24.5C1318.7,682.6,1323.8,664.2,1318.5,655.2
				z"/>
			<path class="st0" d="M1320.6,660.4c-0.4,0,0.4,10.9,12.8,11.3"/>
		</g>
		<g>
			<path class="st0" d="M1358.1,637.6c-2.3,14.6-5.7,28.3,3.4,42.9"/>
			<path class="st0" d="M1392.5,653.9c-12.4,0.7-24.7,1.4-36.9,2c1.3,0.1,14.9,5.4,37.5,26.4"/>
		</g>
	</g>
</g>
<g>
	<g>
		<path class="st0" d="M1607,647c6.1,11.9,10.1,23.8,13.3,36.1c1.5-0.1-9.4-45,22.1-38.5"/>
		<path class="st0" d="M1662.1,643.3c7.8-2.7,21.5,8.9,26,13.3c5.7,5.3,5.6,12.4,3.3,19.6c-1.1,3.5-6.1,8.5-9.9,10.2
			c-15.5,6.3-28.9-6.8-29.4-18.6C1652.4,663.2,1657.7,645.3,1662.1,643.3"/>
		<path class="st0" d="M1708.1,653.5c1.7,10.5,1.7,20.8,2.3,31.4c0.4-0.2,1.4-38.9,19.1-28.9c9.4,6,9.1,24.2,9.2,24.3
			c0.4-0.1,4.1-37,18.4-22.1c14.2,14.5,12.4,24.2,12.6,24.3"/>
		<path class="st0" d="M1791,649.4c7.8-2.2,18.8,8.3,22.9,12.2c4.9,4.7,4.4,10.9,2.3,17.2c-1,3-5.7,7.4-9.3,8.8
			c-14.9,5.7-29.5-5.7-28.6-16.4C1778.7,667,1786.3,651,1791,649.4"/>
		<path class="st0" d="M1833.8,626.9c7.6,23.7-0.7,42.8,2.2,63.7"/>
		<path class="st0" d="M1820.6,657.2c13.6,0.9,27.2,1.7,41,2.5"/>
		<g>
			<path class="st0" d="M1863.4,624.4c6.8,4,7.3,8,7.3,8"/>
			<path class="st0" d="M1871.3,653.5c0.3,0.1,0.8,21.2,8.6,30.5"/>
		</g>
		<path class="st0" d="M1902.9,649.1c5.8-2.3,13.6,7.2,16.8,10.8c3.7,4.4,3.6,10.4,2.4,16.4c-0.7,2.9-4,7-6.8,8.2
			c-11.3,4.9-23.6-5.6-22.8-15.2C1892.6,665.7,1899.2,650.8,1902.9,649.1"/>
		<path class="st0" d="M1932.9,644c2.7,13.5,4.9,26.4,10,39.5c-0.8-0.1-2.2-26.1,13.6-37.4c15.1-11.1,25.6,14.1,41.5,36.2"/>
		<path class="st0" d="M1555.5,720.9c2.9-11.7,1.4-50.7-3.6-70c-1.2-6,4.2-11.6,10.8-10.6c8.7,1.2,20.3,4,29.5,9.6
			c17.4,10.5,29.9,31-35.8,32.5"/>
	</g>
</g>
<g>
	<g>
		<path class="st0" d="M68,699.3c6.6-4.9,21.9,3.1,27.6,6.6c6.9,4,8.9,11.3,8.9,19.4c0,4-3.2,10.3-6.2,12.8
			c-12.4,9.7-28.2-1.6-32.6-12.6C64.1,720.8,63.9,702.5,68,699.3"/>
		<path class="st0" d="M145.1,694.6c-5.1-10.9-15-18.4-20.8-18.3c-6.2,0.1-8,7.6-6.9,25.6C117.1,737.4,132,757,133,757"/>
		<path class="st0" d="M185.4,694.7c-4.5-9.9-13.8-17-19.1-17c-5.7,0-7.1,7.2-6.4,23.9c-1.5,33.2,15.2,49.9,16.1,49.7"/>
		<path class="st0" d="M196.1,711.8c26.9,7.8,36.2,1.5,32.6-6.5c-3.8-8.1-36.5-8-33.4,15.4c4.5,23.6,33.9,10.2,33.4,10.3"/>
		<path class="st0" d="M284.5,719.2c29.2,8,38.7,1.2,34-7.9c-3.8-8.9-39.6-7.2-33.7,17.3c11.4,24.7,39.2,11.5,38.5,11.6"/>
		<path class="st0" d="M237.3,718.2c0,0.3,3.1,7.5,8.6,14.7c5.1,7.2,12.8,14.2,13,14.3c-1.1-0.1-7.9-12.2-7.4-22.9
			c-0.1-10.8,7-19.7,20.1-15.1c9.1,3.7,10.3,6.1,10.3,6.1"/>
		<path class="st0" d="M367.5,668.4c0.1,22.8,1.5,45.1,5.9,68.6c-1.4-1-5.6-55.1-37.7-27.1c-13.3,12.9-10.9,46.9,37.7,27.1"/>
		<path class="st0" d="M109,716.3c8.3-1.4,16.5-2.7,24.7-4"/>
		<path class="st0" d="M152.7,704.6c6.2,1.3,12.3,2.5,18.3,3.7"/>
	</g>
</g>
<g>
	<g>
		<path class="st0" d="M432.4,669c3.6,16.8,7.5,36.3,10,56.3c0.5-0.2,28.7,6.2,24.9-16.4c-3.9-24-20.1-21.8-28.9-9.5"/>
		<path class="st0" d="M470.3,691.2c-1.9,34.1,0.7,42.8,14,35.1c13.3-6.9,16.3-33,16.2-33.3c-0.3,0.7,3.7,11.3,7.4,26.1
			c3.6,14.5,7.2,33.1,5.5,42.4c-1.6,8.5-10.2,5.4-19.9,2.1c-9.6-4-20.3-8.1-26.5-18.2"/>
	</g>
</g>
<g>
	<g>
		<path class="st0" d="M597.2,678.1c17.8,23.2,20.8,45.4,25.4,69.8c-0.2-0.4-1.9-33.1,7.6-39.8c12.2-7.1,25.9,42,26.8,42.7"/>
		<path class="st0" d="M670,720.3c9,30,22.5,37,36.7,30.3c12.7-6.6,0.6-35.4,0.8-35.6"/>
		<path class="st0" d="M728.9,721.4c2.2,9.9,4.6,19.9,11.9,30.2c-0.7-0.1-5.8-9.6-5.9-17.5c-0.5-8,3.9-13.9,13.8-8
			c20,11.6,21.5,26.4,22.2,26.6"/>
		<path class="st0" d="M755.7,730.8c-0.1-0.1,2.5-14.4,15.9-4.5c12.2,9.5,24.4,27.6,25.7,27.8"/>
		<path class="st0" d="M786,699.2c6.4,19.9,5.7,36.9,25.6,56.3c-0.8-0.1-11.3-10.5-13.4-19.8c-2.8-9.4,2.5-17.7,16.6-14.6
			c28.6,6.3,25.5,33.1-3.2,34.4"/>
		<path class="st0" d="M859.3,728.3c-17.9-4.6-23.3,23.1-5.2,26.9c15.4,3.8,16.7-4.7,15.7-13.7C868.4,733.3,859.3,728.2,859.3,728.3
			z"/>
		<path class="st0" d="M866.8,735.1c-0.4-0.2,12.7,18.6,23.1,20.7"/>
		<path class="st0" d="M586,704.2c6.5-7.2,3.9-23.4-5.8-21.5c-9.3,1.9-19,8.9-19.4,27.3c0.1,17.9,6.5,41.1,40.4,37.4"/>
	</g>
</g>
<g>
	<g>
		<path class="st0" d="M1284.7,724.2c0.3,0.5,16.8,21.8,4.5,30.8c-12,10.2-21.5,6.6-21.6,6.4c-4.7-26.7-17.2-58.8-0.9-68.4
			c8.3-3.8,17.4,6.3,22.1,14.9C1293.5,717,1293.7,724.5,1284.7,724.2c-17.9,0-25.1-0.3-25-0.7"/>
		<path class="st0" d="M1301,730.4c-2.1,19.4,9.5,27.6,19.7,23.9c10.2-3.4,12.7-19.4,12.7-19.5c-0.1,0.1,5.1,19,7.6,38.3
			c1.3,10.7-0.1,21.1-3.3,28.8c-2.8,5.9-14.9,1.7-19,2.7c-4.1-0.3-14.2,1.2-23.7-0.9c-9.5-1.8-18.3-7-19.9-12.5"/>
	</g>
</g>
<g>
	<g>
		<path class="st0" d="M1433.4,713.3c-24.4,2.7-48.2,19.2-33,21.8c15.8,2.6,52.3,8,46.8,22.4c-5.4,14.3-44.8,10.7-36.9-3.2"/>
		<path class="st0" d="M1456.6,736.3c0.9,27.7,8.9,28.5,19.1,28.4c9.7-0.2,16-23.9,13.2-31.6"/>
		<path class="st0" d="M1485.2,713.3c14.3,18.5,16.6,35.4,17.8,52.9c1,0-11.4-30.1,9.5-26.7c22.8,3.7,22,25.3-9.5,26.7"/>
		<path class="st0" d="M1529.2,736.6c4.7,10.4,6.5,20.4,8.5,30.6c1.8-0.1,5.5-45.1,17.1-24.8c10.8,19.9,6,26.6,6.5,26.7"/>
		<path class="st0" d="M1556.6,745.8c0.6,0.1,3.2-7.7,9.8-9.2c6.3-1.5,16.8,3.5,23.9,26.6"/>
		<g>
			<path class="st0" d="M1682.8,725.6c4.5,2.7,4.8,5.5,4.8,5.5"/>
			<path class="st0" d="M1687.8,745.9c0.2,0.1,0.8,15.1,6,21.7"/>
		</g>
		<path class="st0" d="M1617.2,722c11.2,18.4,9.2,33.4,13.1,49.2"/>
		<path class="st0" d="M1611.4,743.5c9.1,0,18.1-0.1,27.2-0.2"/>
		<path class="st0" d="M1649.8,720.9c10.7,18,9.1,32.6,13.2,47.9"/>
		<path class="st0" d="M1701.2,739.7c5.6,9.4,10,18.3,16.6,27.2c-0.9,0.3-10.2-38.1,18.8-25.8c18.5,10.6,16,26,16.2,26"/>
		<path class="st0" d="M1786.4,743.6c1.1-4.1-3-7-7.9-5.6c-13.9,4.2-30.7,18.4-13.5,21C1779.4,761.2,1784.5,750.8,1786.4,743.6z"/>
		<path class="st0" d="M1780.5,754.7c-0.2-0.1,7,26.1-2.1,39.2c-8.4,12.8-38.4-11-37.3-19c-0.6-8.2,67.8-9.3,68.5-9.4"/>
		<g>
			<path class="st0" d="M1598.5,746.1c0.4,0.1,0.7,16.4,4.9,23.9"/>
			<path class="st0" d="M1593.9,725.2c1.8,3.8,3,7.5,3.8,11.1"/>
		</g>
		<path class="st0" d="M1648,742.2c7.2,0.1,14.5,0.2,21.7,0.3"/>
	</g>
</g>
<g>
	<g>
		<path class="st0" d="M70.8,775.6c4.6,11.6,8.7,23.7,11.3,36.1c1.5,0-15-47,19.5-33"/>
		<g>
			<path class="st0" d="M114,786.3c12.5,3.3,31.8,5.7,23.6-6.4C127.7,767.5,114.1,772.1,114,786.3z"/>
			<path class="st0" d="M114,786.3c0.8,0-6,28.7,17.7,25.5"/>
		</g>
		<path class="st0" d="M164.3,779.3c-8.9-4.8-16.7,2.3-18.3,13.8c-1.7,11.6,5.2,20.3,12,15.9C164.2,804.5,176.3,794.7,164.3,779.3z"
			/>
		<path class="st0" d="M159.7,799.9c3.7,4,7.2,7.9,10.8,11.8"/>
		<path class="st0" d="M184.7,782.2c-2.7,16.7-7,32.4,7.1,30.8c13.6-1.7,15.3-28.4,14.3-28.9"/>
		<g>
			<path class="st0" d="M213.8,794.4c10.9,3.3,28.8,5.2,23.3-5C230.8,778.8,216.6,781.9,213.8,794.4z"/>
			<path class="st0" d="M213.8,794.4c0,0-9.4,24.8,15.1,21.7"/>
		</g>
		<path class="st0" d="M266.3,787.8c-17.9-2.6-30.5-1.7-21.1,5c8.4,6.5,50.1,17.9,24.9,22c-25.5,3.9-24.4-4.9-24.3-5"/>
		<path class="st0" d="M282.3,771.6c0.8,0.7-2.6,36.7,7.3,41.8"/>
		<path class="st0" d="M269.3,790.3c8.9,1.7,17.9,3.1,27.4,4.5"/>
		<path class="st0" d="M308.6,819.2c0-0.2,7.2,13,2.5,20.5"/>
	</g>
</g>
<g>
	<g>
		<path class="st0" d="M447.9,771.9c-16.4,6.6-33-14.6-49.6-2.3"/>
		<path class="st0" d="M423.2,768.7c2.1,25.1-0.6,43.6,0.9,67.9"/>
		<path class="st0" d="M451.8,839.2c-15.9-11.4-31.2,1.9-46.3-4"/>
	</g>
</g>
<g>
	<g>
		<path class="st0" d="M551,771c5.4,18.8,10.6,38.7,13.6,59.3c0.4,0.5,3.6-53.3,30.6-21.3c4.6,7.6,1.8,21.4,1.8,21.4"/>
		<path class="st0" d="M599.6,809.3c14.8,8.1,30.6-3.3,23.2-10.7c-7.7-7.8-43.6,11.8-7.8,29.1c0,0,9.8,3,15.1-4.5"/>
		<path class="st0" d="M630.9,798.1c3.2,10.3,5.2,20.3,7.2,30.3c0.5,0.1-3.6-36.1,15.4-28.5c7.5,2.7,8.8,7.6,8.8,7.6"/>
		<path class="st0" d="M668.5,810.4c13.4,7.9,29.3-2.1,22.7-8.7c-6.8-7.3-42.5,9.3-8.6,25.4c0,0,9.6,2.7,14.8-3.8"/>
		<path class="st0" d="M696.8,784.1c5.1,16.8,6.4,31.3,9.3,45.9c-0.1,0.1-5.1-23.5,11.7-21.9c16.9,1.6,36.8,21.1-11.7,21.9"/>
		<path class="st0" d="M748.8,801.8c-11.3,22.6-7.5,31.9,9.4,24.9c17-7.1,21.7-29.8,22-29.9"/>
		<path class="st0" d="M770.2,817.5c-0.1-0.1,5,37.6-16.6,47.4c-20.9,11-24.5-3.2-11.5-20.8c13.1-17.4,42.2-14.1,42.8-14"/>
	</g>
</g>
<g>
	<g>
		<g>
			<path class="st0" d="M896.6,778.8c14,19.6,21,40.3,27.2,63.3c0.3-1.1-11.3-42.5-30.6-17.5c-17.8,22.9,30.6,18.5,30.6,17.5"/>
		</g>
		<path class="st0" d="M928.3,820.2c22.8,7.7,30.3,0.4,27.2-8.3c-3.5-8.8-31.1-6.9-27.6,17.9c4,26,28.2,11.6,27.7,11.2"/>
		<path class="st0" d="M986.2,811.9c-5.7-5.7-18.5-4.7-21.1,12c-3.4,17,14.6,30.6,24.5,20"/>
		<path class="st0" d="M997.2,794.5c0.1,14.2,1.4,26,6.1,34.7c4.1,8.6,11.7,13.8,11.4,13.8"/>
		<g>
			<path class="st0" d="M1035.9,813.4c-1.8-2-4.6-2.7-7.5-1.5c-11.8,4.3-18.3,23.1-4.1,27.7C1036.7,843.5,1042.4,822.8,1035.9,813.4
				z"/>
			<path class="st0" d="M1038.4,819c-0.3,0,0.8,11.9,13.5,11.6"/>
		</g>
		<path class="st0" d="M1087.9,826c2.3,14.6,27.6,3.4,27.5-4.9C1114.9,813.2,1086.8,811.1,1087.9,826z"/>
		<path class="st0" d="M1087.9,826c-0.9-0.1,2.1,26.1,31.6,13.8"/>
		<path class="st0" d="M1047.6,812.7c4.9,9.3,11.1,18.3,21.6,27.9c-0.5-0.1-9.3-8.6-11.6-16.3c-2.7-7.8,0.9-14.6,14.9-12
			c13.5,1.8,15.7,6.5,15.6,6.5"/>
	</g>
</g>
<g>
	<g>
		<path class="st0" d="M1319.9,813c9.6,0,19.5,0,30-0.1"/>
		<path class="st0" d="M1218.5,773.4c9.5,23.6,8.4,44.9,11.6,70.3"/>
		<path class="st0" d="M1197.1,790.8c0-0.7,29.6,1.2,46.3-9.3"/>
		<path class="st0" d="M1251.8,781.2c6.8,19.3,5.1,35.4,9.1,54c-1.3-0.9-7.6-48.1,19.2-22.3c10.8,13.6,11.1,18.7,10.9,18.8"/>
		<g>
			<path class="st0" d="M1314.5,809.8c-1.8-2-4.4-2.7-7.2-1.7c-10.8,3.3-17.4,19.7-5.4,24.3C1313.4,836.7,1322.2,819.1,1314.5,809.8
				z"/>
			<path class="st0" d="M1317.1,815.1c-0.1,0,0.6,10.7,12.8,11.7"/>
		</g>
		<path class="st0" d="M1327.7,793c5.8,16.4,14.1,31.3,24.2,51.3"/>
	</g>
</g>
<g>
	<g>
		<path class="st0" d="M1409.1,787.1c17.6-10.5,35,9.2,52.5,0.6"/>
		<path class="st0" d="M1437.8,843.8c-2.6-20.2,0.1-35.8-2.4-57.1"/>
		<path class="st0" d="M1409,844.1c17.9,10.7,35.6-9.8,53.7,0"/>
	</g>
</g>
<g>
	<g>
		<path class="st0" d="M1562,781.6c5.4,19.5,8.6,39.7,10,61.8c0.9-0.9-11.5-55.7,15.9-38.4c12.4,7.8,19.2,41.8,20.9,42.6"/>
		<g>
			<path class="st0" d="M1631.7,813.2c-1.3-2.8-3.7-4.1-6.5-3.3c-10.6,2.7-20,23.3-9.5,32C1626.4,849.6,1636.6,825.4,1631.7,813.2z"
				/>
			<path class="st0" d="M1633.1,820.4c-0.2-0.2-1.6,14.5,9.9,16.3"/>
		</g>
		<path class="st0" d="M1654.8,811.4c-2.5,13.4,16.6,26.7,17.3,26.6c-1.2-0.4,8.2-20.7,10-29"/>
		<path class="st0" d="M1695.5,816.3c8,3,21.6-0.9,22.8-5.4c1.1-4.5,0.7-9.4-8.9-5.3C1699.7,809.6,1695.5,816.3,1695.5,816.3z"/>
		<path class="st0" d="M1695.5,816.3c-3.1,6.5,0.8,18.3,30.2,16.3"/>
	</g>
</g>
<g>
	<g>
		<g>
			<path class="st0" d="M646.3,889.3c-3.2-2.3-7.3-2.3-10.8-0.1c-13.7,9-16.1,28.6-0.9,35.4C650.2,930.2,660.4,899.2,646.3,889.3z"
				/>
			<path class="st0" d="M651.7,896c0-0.1,3.3,15.5,18.1,12.8"/>
		</g>
		<path class="st0" d="M737.3,864.6c0.1,1.1,14.5,45.8,16.2,47.3c-0.6-1.2-15-27.5-30.2-14.8c-4.8,3.6-7.2,8.7-6.2,13.9
			c3.2,10.4,13.4,16.4,36.5,0.8"/>
		<path class="st0" d="M669.8,895.7c4.2,9.2,8.2,18.3,14.8,27.4c-2.4-0.3-15.6-44,4.5-33.5c18.3,9.6,23.3,32.5,24.9,32.9"/>
	</g>
</g>
<g>
	<g>
		<g>
			<path class="st0" d="M843.2,880c-3.1-3.2-6.9-3.9-10.5-2c-13.8,7.9-20.9,31.6-6.3,38.7C840.9,924.7,857.5,895.1,843.2,880z"/>
			<path class="st0" d="M848,888.7c0.2,0,1.6,17.9,16.1,19"/>
		</g>
		<path class="st0" d="M892.4,875.1c-2-7.7-10.4-13-14.7-9c-11.5,11.1-24.4,42.3-2.8,42.1C892.8,907.8,896.2,889,892.4,875.1z"/>
		<path class="st0" d="M891.9,896.5c1.1,0.7,12.7,28.2,0,52c-12.2,25.6-43-1.3-43.3-12.8c-0.6-12.5,78.7-34.9,78.1-33.6"/>
		<path class="st0" d="M927.2,878.6c6.6,15.7,8.4,29.1,11.8,42.8c0.6,0.5-9.5-43.5,10.3-38.3c10.1,3.7,13.8,8.8,13.8,8.8"/>
		<g>
			<path class="st0" d="M969.7,897.7c14.4,3.5,38.2,4.2,29.6-7C990.3,879.7,971.9,884,969.7,897.7z"/>
			<path class="st0" d="M969.7,897.7c0.2,0.1-9.1,27.4,22.7,23.5"/>
		</g>
		<g>
			<path class="st0" d="M1006.4,900c15.1,2.8,40.7,1.6,30.8-9.6C1027.6,880,1008.8,886.7,1006.4,900z"/>
			<path class="st0" d="M1006.4,900c0,0.3-8.3,26.8,25.8,24"/>
		</g>
	</g>
</g>
<g>
	<g>
		<path class="st0" d="M1234.9,850.7c8.2,21.8,13.1,47.9,18.5,76.5c-0.6-1.4-2.3-54.3,15.3-35.4c8.4,9.1,13.8,15.6,12.5,22.1
			c-1.3,6.2-9.3,12.5-27.8,13.3"/>
		<g>
			<path class="st0" d="M1285,899c11.6,0.3,31.4-0.8,21.8-10.1C1297.7,880.6,1284.4,886.1,1285,899z"/>
			<path class="st0" d="M1285,899c-0.4-0.3,1.5,7.5,6.5,13.2c5,6.1,13,10.1,24.7,11.1"/>
		</g>
	</g>
</g>
<g>
	<g>
		<path class="st0" d="M1503.5,902.9c-2.2-2.9-5.4-3.6-8.6-2c-12,5.9-17.8,31.4-3.4,38.6C1505.7,945.7,1512.7,915.3,1503.5,902.9z"
			/>
		<path class="st0" d="M1429.2,853c6.1,25.4,9.9,51.7,11.2,80c0.2-0.3-2-53.8,22.6-35.8c22.8,17.8,18.7,40.7-22.6,35.8"/>
		<path class="st0" d="M1517.9,890.4c-8.6,26.1-4.9,50.8,12.9,44.6c14.3-6.7,13.2-43.1,14.2-42.9"/>
		<path class="st0" d="M1554.3,895.1c1.6,12.5,3.6,24.8,10.9,37.7c-0.6-0.1-2.7-11.5-0.6-21.6c1.7-10.2,7.5-18.5,13.6-15.2
			c11.7,6.8,20.6,33.9,22.1,34.3"/>
		<path class="st0" d="M1618.5,856.8c7.4,22.3,13.9,41.6,25.4,66c-0.6-1.3-23.5-33.5-36.1-16.6c-7.4,7.9-2.1,18.4,5.8,23.8
			c8.3,5.2,19.2,6.5,30.3-7.2"/>
	</g>
</g>
<g>
	<g>
		<g>
			<path class="st0" d="M1707.4,859.3c5.6,13.2,11.6,30.7,15.7,47.8c0.2,0.2-8.4-26.7,7.3-27.2c3.4,0.1,6.8,1.7,9.4,4
				c20.2,16.2-16.4,21.9-16.7,23.2"/>
		</g>
		<path class="st0" d="M1754.8,878.9c-3.9,25.2,6.1,29.9,16.2,26.4c9.9-3.5,4.9-23.9,5-24.7"/>
		<path class="st0" d="M1776.6,883.8c-0.4-0.3,10.8,33.9,11.3,53.3c0,8.3-14.7,3.1-28.8,4.6c-14.2,1.1-27.9-3.7-26.4-11.2"/>
	</g>
</g>
<g>
	<g>
		<path class="st0" d="M144.6,955.7c11.7,21.3,9.8,41,12.3,63.6c-0.5-0.4,1.4-29.7,11.5-33.7c10.5-4.7,17.2,41,20.4,42.2"/>
		<path class="st0" d="M193.3,992c2.1,28.2,13.4,36.9,25.2,33.5c5.8-1.6,5.1-10,4.7-17.6c-0.7-7.7-1-14.5-1.3-14.6"/>
		<g>
			<path class="st0" d="M233.3,990.6c2.5,11.2,4.8,22.6,14.7,34.6c-1.1-0.1-7.8-11.2-8.5-20.6c-1.2-9.5,3.6-16.6,12.7-11.2
				c18.4,10.8,21.4,28.7,22.8,29"/>
			<path class="st0" d="M258.9,998c-0.2-0.1,2.2-16.9,15.1-7.2c6.5,4.8,10.7,12.1,15.4,18.4c4.4,6.3,9.2,11.5,9.1,11.5"/>
		</g>
		<path class="st0" d="M299.1,971c5.3,17.3,4.8,32.2,20.4,48.9c-0.7-0.1-9-9.1-10.4-17.2c-1.9-8.1,2.9-15.1,16-12
			c26.6,6.5,22.2,29.3-5.6,29.1"/>
		<path class="st0" d="M365.1,996.1c-13.8-4.5-20.2,19-6.1,22.7c12.4,3.8,14.2-3.3,13.8-11C372.3,1000.8,365.1,996,365.1,996.1z"/>
		<path class="st0" d="M370.8,1002.1c-0.3-0.1,9.1,16.3,17.6,18.4"/>
		<path class="st0" d="M121.3,979.9c5.2-4.1,2.3-14.7-2.6-19.6c-4.8-4.9-10-9.1-14-3.2c-4,6.1-5.1,30.6,3.4,44.2
			c8.3,13.9,21.8,9.5,29.5,6.2"/>
	</g>
</g>
<g>
	<g>
		<path class="st0" d="M84.1,43.6c-12.5,1.9-12.6,17.1-10,27.4c2.9,10.4,18.7,10.5,21.4-1.2C98.7,58.1,99.9,41.8,84.1,43.6z"/>
		<path class="st0" d="M126.5,41c-25-5.5-28.1,4.3-12.9,10.7c15.2,6.5,25.4,14.6,19,24.2c-5.9,9.9-26.8,13.9-29.6-2.3"/>
		<path class="st0" d="M149.9,17.5c9.4,24-0.8,41.7,2.2,63.8c-2.6-1,2.7-49.9,19.1-23.8c5.8,9.4,10.2,20.1,10.5,20.1"/>
		<path class="st0" d="M197.2,60.7c-3.9,24.2,11.5,29.4,26.9,27.8c14.3-1.5,5.9-27.4,7.4-27.3"/>
		<g>
			<path class="st0" d="M257.3,57.3c-18.1-3.6-26.6,23.6-8.2,26.4c16.2,2.8,18.9-5.4,18.2-14.1C266.6,61.7,257.3,57.3,257.3,57.3z"
				/>
			<path class="st0" d="M264.8,63.4c-0.4-0.2,12,17.2,23.6,19"/>
		</g>
		<path class="st0" d="M25.2,21.5c17.8-2.9,35.5-4.2,53.1-4.6"/>
		<path class="st0" d="M49.7,18.5c0.1,0.1,9.6,12.2,14,25.8c5,13.6,5,28.1-0.3,31.9C51.1,79.6,30.7,56.8,30,57.3"/>
	</g>
</g>
<g>
	<g>
		<path class="st0" d="M868,127.3c2.6,9.9,2.9,19.7,4,30c0.6-0.3-0.9-37.4,15.1-29.4c9,4.9,9.4,22.7,9.4,22.8
			c1-0.2,1.1-36.3,14.9-23c13.8,13.1,11.9,22.9,12.2,23"/>
		<g>
			<path class="st0" d="M982,126.2c3.7,11.9,3.9,23.2,9.9,35.1"/>
			<path class="st0" d="M975.5,109.3c5.4,2.1,5.4,8.6,5.3,8.5"/>
		</g>
		<path class="st0" d="M1009.9,99.5c7.4,14,5.5,27.7,7.3,38.6c1.1,10.8,5.9,18.4,11.5,17.6"/>
		<g>
			<path class="st0" d="M958.8,132.5c-1.4-1.7-3.7-2.2-6.1-1c-9.2,4.6-16.6,21-7.7,24.9C953.4,159.9,964.6,140.8,958.8,132.5z"/>
			<path class="st0" d="M960.5,137.5c0,0-1.2,10.8,8.3,10.2"/>
		</g>
		<g>
			<path class="st0" d="M777,118.9c-2-1.9-4.5-2.4-6.8-1.2c-8.5,4.5-11.8,19.9-2.6,24.3C777,146.6,786.7,127.9,777,118.9z"/>
			<path class="st0" d="M780.3,124c0.4,0,1.5,17.8,10.8,17.7c13.1,0,21.3-27,1.8-37.4c-17.7-9.9-55.3,5.7-32.7,43.2
				c11.6,15.9,39,3.5,39.3,3.3"/>
		</g>
		<g>
			<path class="st0" d="M842.8,118.9c-2.9-2-6.2-2.1-8.7-0.4c-9.1,6.3-11.6,25.3-0.2,28.8C846.1,150.7,856.9,128.1,842.8,118.9z"/>
			<path class="st0" d="M848.3,137.5c-1.6,12.5-7.3,44.9-5.7,45.5c-0.5-0.1-23-15.7-20.9-24c1.7-8.5,22.3-10.9,22.3-10.9"/>
		</g>
		<path class="st0" d="M1110.9,127.3c5-2.6,13.9,2.6,17.7,4.7c4.4,2.4,5.4,6.5,5.4,11c0,2.2-2.2,5.6-4.4,6.8
			c-8.9,5.3-22.1-0.4-23.9-7C1104.8,140.1,1107.7,128.9,1110.9,127.3"/>
		<path class="st0" d="M1056.6,143c-0.1,2.5,2.2,4.4-1.7,8.9"/>
		<path class="st0" d="M1149.7,121.1c0.3,10.2,0.2,19.9,2.7,29.7c-1.6,0.2,0.5-36.4,18.4-26.9c8.4,5.9,10.9,24.3,11.4,24.3
			c-1,0.2,1.3-37.3,17-22.2c16.2,15.3,18.7,27,18.4,26.9"/>
		<path class="st0" d="M1094.4,125.4c-5.1-2.3-10.5,0.6-13,8.5c-1.3,4-1.1,8.5,1.3,11.7c5,6.5,12.7,4.2,15.9-2.7"/>
	</g>
</g>
<g>
	<g>
		<path class="st0" d="M468.2,44.8c-18.5-7.3-33.2,26.4-15.8,30.2c17.5,3.4,23.5-6,24.7-15.4C478.2,51.2,468.2,44.9,468.2,44.8z"/>
		<path class="st0" d="M475.7,52.7c-0.2,0.2,8.9,19.7,22.3,20.8"/>
		<path class="st0" d="M329.8,16.6c5.7,14.7,5.4,45,5.1,44.9c0.2-0.2,20.4,7.8,30.3,4"/>
		<path class="st0" d="M380.5,38.3c-15.5,1.9-14.2,16.4-9.6,25.6c4.7,9.4,24,9.1,26.5-1.3C400.1,52.4,399.7,36.9,380.5,38.3z"/>
		<path class="st0" d="M423.8,40.3c-13.4-3.7-37.8,23.9,0.1,22.9C435.9,60.5,437.7,46.1,423.8,40.3z"/>
		<path class="st0" d="M431,59.1c0,0.1-2.8,27.5-11.6,46.8c-27.2-16.6-37.5-37.1,17.1-42.6"/>
		<path class="st0" d="M495.3,48.3c2.6,9.9,5.4,19.4,9.6,29.2c-0.9-0.2-10.7-33.3,13.7-29.8c15.4,2.9,21,31,21.2,31.3"/>
	</g>
</g>
<g>
	<g>
		<g>
			<path class="st0" d="M696.2,35.7c2.8,13.6,3,27.2,10.9,42.4"/>
			<path class="st0" d="M685.7,6c2.8,4.3,5,8.4,6.7,12.5"/>
		</g>
		<path class="st0" d="M802.5,34.9c-15.8,7.5-12.4,22.9,0.3,31.2c12.9,8.3,28.3,0.6,24.6-11.4C824.3,43.1,821.9,26.3,802.5,34.9z"/>
		<path class="st0" d="M836.7,42.8c0.5,0.1,2.1,6.7,5.8,13.5c3.3,6.7,8.7,13.7,8.8,13.8c-1.5-0.2-6-13.4-3.6-23.5
			c2-10,10.5-17.3,26-4.7c20,14.7,22.5,34.4,22.3,34.1"/>
		<path class="st0" d="M709.5,2.4c0.5,0.2,7.8,12.2,9.2,25.9c2.7,13.9-0.4,30.3,8.3,44.6"/>
		<path class="st0" d="M764.5,22.1c-7.4,5.7-15.6,11.2-23.9,17c0.2,0.1,32.2,4.5,37.6,15.1c5.2,10.3,6.6,30.4-34.9,12.7"/>
		<path class="st0" d="M599.3,13.5c-2.8,23.9,13.5,46.1,24.6,49.6c11.4,2.6,21.6-33.7,18-45"/>
		<path class="st0" d="M641.9,32.9c1.4-0.4,10.2,35.9,35.2,41.9c21.3,3.1,9.8-58.7,5.8-58.8"/>
	</g>
</g>
<g>
	<g>
		<path class="st0" d="M676.6,123.9c2.7-5.5,1.4-17.6,1.4-17.6c6.9,3.8,29.9-1.5,43.6-12.9c0.3,8.2-0.5,25.5,2.3,40.9
			c2.3,15.3,8.1,28.7,9,28.8"/>
		<path class="st0" d="M695.6,132.5c13.9-1.4,28-2.9,42.1-4.6"/>
		<g>
			<path class="st0" d="M414,116.4c-8.8-4.9-27.8,18.3-18.2,21.5c9.5,3,15-3.7,19.1-10.7C418.5,121,414.1,116.4,414,116.4z"/>
			<path class="st0" d="M416.2,122.2c-0.1,0-1.4,14.7,6.3,15.8"/>
		</g>
		<path class="st0" d="M256.1,120.2c-14.8-2.5-32.8,32.2-16.6,33.1c14.1,0.1,18.9-11,22.3-20.6C264.3,124.1,256.1,120.2,256.1,120.2
			z"/>
		<path class="st0" d="M261.7,126.2c0.1-0.1,4.1,17.7,14.5,16.7"/>
		<path class="st0" d="M87,105.9c-15.8-4.5-21.2,30.1-9.8,33c13.5,2.9,21-7.7,21.2-18.1C98.5,111.3,86.8,105.9,87,105.9z"/>
		<path class="st0" d="M95.9,113.4c1.3,0,9.5,20.6,18.2,21.3"/>
		<g>
			<path class="st0" d="M567,123.4c-6.2-1.9-16.2,4-19.3,10.7c-3.6,6.7-0.3,14.2,8.5,15.3c15.7,2.1,14.2-6.2,15.9-14.3
				C573.2,127.7,567.1,123.4,567,123.4z"/>
			<path class="st0" d="M571.5,129.4c-1.4,0,7,16.2,19.1,16.6"/>
		</g>
		<path class="st0" d="M591.5,107.2c-1.1,11.6-1.5,23.1,5.3,32.1c5.7,8.9,18.4,15.5,17.9,15.4"/>
		<path class="st0" d="M617.6,108.9c-1.7,11.6-0.3,23.1,7.3,32.2c6.7,9,19.7,15.7,19.2,15.7"/>
		<path class="st0" d="M658,107.6c-1.5,11.7,1.9,23.6,9.5,32.9c7.1,9.3,18.5,16.2,17.9,16.2"/>
		<path class="st0" d="M452,116.3c-12.4-5.4-29.9-2-15.5,8.2c6.9,5.1,9.8,14,10.6,21c-0.1,6.9-2.7,11.9-27.4,7.6"/>
		<path class="st0" d="M108.9,117c9.2,11,13.5,22,18.5,33.7c2-0.5-23-42.2,24.5-35"/>
		<path class="st0" d="M146.4,93.1c1.7,0.2,12.6,12.8,16.1,26.7c4.9,13.9,2.2,29,12.6,34.3"/>
		<path class="st0" d="M176.2,93c26.3,21.8,14.6,41.1,19.1,63.8c-0.8-1.2,5.6-92.2,28.5-1.9"/>
		<path class="st0" d="M291.3,121.8c-9,22.3,3,32.8,3.7,32.7c-1.4-0.1-1.4-11,2.2-19.5c3.2-8.6,10.2-14.8,16.1-7.6
			c11.9,14.3,11.9,25.3,12.5,25.4"/>
		<path class="st0" d="M313.2,127.3c-1-0.1,7.3-5.8,14.3-5.9c7.7-0.1,14.4,5.5,24.3,28.9"/>
		<path class="st0" d="M352.3,96.5c-0.5-0.1,3,3.4,4.3,8.1c1.7,4.7,1.3,10.8,0.4,16.8c-3.3,11.9-3.6,24.4,2.7,25
			c9.8,1,32.1-11,30.9-23.1c-3.2-12.4-21.5-7.3-34.6,2.6"/>
		<path class="st0" d="M511.2,109.9c0.9,0.1-3,11.2-4.7,22c-3,10.8,8.9,22.1,15.9,22.6c11.5,0.9,23.2-10.1,19-21.2
			c-4.3-11.2-23.3-6.4-35.3,2.6"/>
		<g>
			<path class="st0" d="M463.6,125.9c-10.2,11.5,14.5,13.5,25.3,5.7C500.4,124,481.8,108,463.6,125.9z"/>
			<path class="st0" d="M463.6,125.9c0.4,0-6.8,7.5-4.8,14.2c1.2,6.6,11.6,12.1,28.3,7.3"/>
		</g>
		<path class="st0" d="M21.2,116.4c8.4,2.6,34.3,1.2,32.5-10.5C50.6,94.2,38,88.1,29.1,98.5c-9.1,10.5-21.7,44.2,31.1,40.9"/>
	</g>
</g>
<g>
	<g>
		<g>
			<path class="st0" d="M379.5,230.5c-2.6-22.1-6.8-43.5-10.9-63.4c0.1-1.1,30.4-19.3,56.2,4.7c23.8,22.8,3.1,26-49.4,30.5"/>
			<path class="st0" d="M389.3,200.8c15.6,11,29.1,23.8,42.2,35.1"/>
		</g>
		<path class="st0" d="M462.8,191.5c-18.7-11.7-30.9,35.3-14.8,41.1c16.7,5.4,23.1-7.2,24.1-19.9
			C473.1,201.2,462.9,191.6,462.8,191.5z"/>
		<path class="st0" d="M470.6,203c0.1,0.4,8.6,27.4,21,28.7"/>
		<path class="st0" d="M494.8,193c-2.1,13.4-8.5,38,14.3,34.7c23.2-2.9,22.4-42.4,22.4-42.1c0.3,0.7-11.1,23.1-4.3,64.8
			c3.6,22.7-9.1,26.8-24.9,27.2c-15.8-0.5-34.3-4.8-42-18.9"/>
	</g>
</g>
<g>
	<g>
		<g>
			<path class="st0" d="M592.1,235.3c1.6-22.3,2.5-44.8,1.6-67.5c0.1-0.3,29.6-13,55.6,4.6c24.2,17.7-2.6,23-55.3,26.1"/>
			<path class="st0" d="M613.6,197c15.2,9.2,28.6,19.7,41.1,29.8"/>
		</g>
		<path class="st0" d="M720,198.8c-17.4-8.9-32.9,28.9-16.9,33.9c16.3,4.4,22.6-6.3,24.4-16.8C729.2,206.2,720,198.8,720,198.8z"/>
		<path class="st0" d="M726.7,207.8c-0.1,0.1,6.9,22.6,19.2,24"/>
		<path class="st0" d="M682.5,193.9c-18.1-9.5-32.2,31.3-16.6,36.8c16.1,5.1,22.8-6.7,24.7-18.2C692.4,202.2,682.6,194,682.5,193.9z
			"/>
		<path class="st0" d="M784.7,174.6c0.3,0.7,14.1,54.2,3.3,60.6c-12,6-43.3,5-39-12.2c4.7-17.2,26.6-19.8,42.1-14.8"/>
		<path class="st0" d="M813.3,234.5c7.7,7.7-1.7,29.2-1.3,28.9"/>
	</g>
</g>
<g>
	<g>
		<path class="st0" d="M860.8,226.2c12.4-18.3,27-40.2,35.4-59.9c3.6,1.4,2.8,61.2,2.2,63.2"/>
		<path class="st0" d="M874.8,205c8.4,0.6,16.3,1.4,24.1,2.3"/>
		<path class="st0" d="M922.7,241.5c-1.3,0-9.1-27.3-2.7-38.9c5.3-11.9,23.9-17.4,29.2-2.9c5.2,14.3-18.7,19.7-31.5,20.6"/>
		<path class="st0" d="M962.1,176.4c2.2,20.8,2.7,38.6,8.6,59.4"/>
		<path class="st0" d="M949.8,195.8c10.4-0.4,21-1.3,32.3-4"/>
	</g>
</g>
<g>
	<g>
		<path class="st0" d="M28.6,306.3c-2.5-9.2-5.1-19.9-7.8-29.8c-4.4-16.1-7.2-30.4-0.2-33.1c9.9-5.3,66.1,5.7,37.9,22.6
			c-28.7,16.6-37.6,10.3-37.5,10.4"/>
		<path class="st0" d="M69.6,252c13.9,7.8,5,54.3,6.1,55.5c-1.2-1,12.9-49.7,31.6-19.2c3.4,11.8,3.8,16.7,3.7,16.6"/>
		<path class="st0" d="M139,279.4c-16.6-3.9-30.8,21.4-13.8,23.6c16,1.6,20.1-6.4,21.3-13.5C147.2,283.2,139,279.4,139,279.4z"/>
		<g>
			<path class="st0" d="M157.7,283.5c-6.3,9.8,22.1,8.6,31.8,1.9C199.4,279,170.7,268.7,157.7,283.5z"/>
			<path class="st0" d="M157.7,283.5c-1.5-0.3-9.3,26.1,32.3,14.1"/>
		</g>
		<path class="st0" d="M198.9,276.8c3.1,7.6,6.8,15.1,14.2,22.8c-0.6,0-5.5-7.3-5.5-13.6c-0.3-6.3,4.4-11.3,16.1-7.4
			c23.8,7.7,30.4,20.4,30.8,20.5"/>
		<path class="st0" d="M261.3,279.8c2.6,7,6.3,13.9,12.3,21.2"/>
		<path class="st0" d="M251,267c3,2.1,6,4.2,9.1,6.2"/>
		<g>
			<path class="st0" d="M278.7,269.9c10.8,12.1,27,24.3,43.2,39.5"/>
			<path class="st0" d="M312.3,271.6c-10,12.1-21,22.5-26.2,33.3"/>
		</g>
	</g>
</g>
<g>
	<g>
		<path class="st0" d="M635,282.3c-9.8-2.8-19.9-5.7-30.3-8.2c0.2,0.1-15.7,14.5-1.4,30.4c17.8-8.3,28.7-2.6,30.5,14.7
			c2.1,17.1-21.3,51.9-38.2,14.3"/>
		<path class="st0" d="M669.3,287.5c-21.7-10.3-40.6,44-18.9,49.9c21.8,4.3,26.9-12.3,29.6-26.9C682.4,297,669.4,287.6,669.3,287.5z
			"/>
		<path class="st0" d="M705.5,287.3c0.6,13-2.1,24.8-1.6,37.3c13.3-1.4,26.7-2.7,40.5-3.8"/>
		<path class="st0" d="M734.7,299.9c-0.8,15.1-2.4,29.5,6.1,45.3"/>
		<path class="st0" d="M765.6,288.4c-1.2,12.4-3.4,23.8-3.1,35.5c14.1-1.1,28.7-1.9,43.9-2.8"/>
		<path class="st0" d="M793.2,298.4c0.7,16,2.7,31.9,7,48.7"/>
		<path class="st0" d="M556.9,282.7c-3.9-8.8-3.2-14.4,16.4-15.2c20.1-0.1,4.2,11.6-6.9,27.9c-11,16.7-21.5,22-3.5,33.2
			c17.1,11.7,23,7.3,18-6.9C576.6,307.4,557.2,282.3,556.9,282.7z"/>
	</g>
</g>
<g>
	<g>
		<path class="st0" d="M338.8,310.3c0.1,0.5,2.4,18.9-11.7,31"/>
	</g>
</g>
<g>
	<g>
		<path class="st0" d="M165.5,495.3c19.5-1,38.5-1.4,57.9-1.3"/>
		<path class="st0" d="M194.5,495c1.5,28.5-1.8,50-0.4,77.8"/>
		<path class="st0" d="M162.5,576.9c18.2-2.7,35.1-5.6,53.3-8.3"/>
	</g>
</g>
<g>
	<g>
		<path class="st0" d="M1796.1,806.6c6.8,13.6,12.9,28.8,17.3,44.6c1-0.5-16.9-48.3,10.3-45.2c11.6,1.9,15.6,12.2,15.6,12.1"/>
		<g>
			<path class="st0" d="M1846.8,826.4c-1.4,23.4,28.3,5.8,29.3-4.4C1876.8,811.2,1847,801.4,1846.8,826.4z"/>
			<path class="st0" d="M1846.8,826.4c0.2-0.1-7.5,42.2,29,20.9"/>
		</g>
		<g>
			<path class="st0" d="M1902.3,822.7c-1.9-2.9-4.9-4.1-8-2.8c-11.6,4.4-20,27.6-8.4,34.5C1897.5,860.3,1910.6,836.1,1902.3,822.7z"
				/>
			<path class="st0" d="M1904.9,830.4c0,0-0.7,15.1,12.1,15.8"/>
		</g>
		<path class="st0" d="M1937.5,798.4c0.5,1.2,13.1,54.4,14.7,55c-0.5,0-12.4-24.7-22.2-15.9c-10.5,8.6-3.5,17.9,7.6,19.3
			c11,1.6,14.6-3.4,14.6-3.4"/>
		<path class="st0" d="M1962.9,852.4c6.9,7.6,1.2,26.3,1.5,26"/>
	</g>
</g>
<g>
	<g>
		<g>
			<path class="st0" d="M773.4,947.6c19.6-3,39.7-3.2,59.7-2.1"/>
			<path class="st0" d="M801.5,944.9c7.7,24,3.3,46.2,2.8,71.8"/>
			<g>
				<path class="st0" d="M822.5,981.5c-2.7,18.9,25.1,5.5,26.9-3.2C851,969.6,824.6,961.9,822.5,981.5z"/>
				<path class="st0" d="M822.5,981.5c-0.1-0.4-8.9,34,25.1,18.1"/>
			</g>
		</g>
		<path class="st0" d="M863.2,977.3c0,10.4-0.9,20.8,1.1,32.1c-1.8-0.9,0.3-40.9,16.2-26.1"/>
		<path class="st0" d="M893.9,980.1c2,10.3,3.9,20.5,10.7,31.1c-0.7-0.1-4-9.7-3.7-18c-0.1-8.4,3.5-15.2,8.5-11.3
			c5.7,4.1,8.7,11.9,12.5,18.9c3.4,7,7.6,13.2,7.7,13.2"/>
		<path class="st0" d="M914.5,987.2c-0.1,0-1-16.5,13.1-4.4c13.2,11.7,20.2,29.8,21.1,30"/>
		<path class="st0" d="M986.4,978.7c-29.4-2-51.8-3.4-40.1,6c12.3,9.3,37.6,8.2,47.1,16c8.7,8-25.6,15-39.9,1.5"/>
	</g>
</g>
<g>
	<g>
		<g>
			<path class="st0" d="M78.9,866.4C77,881,85,901.6,103.2,902.7c18.9,0.9,16.9-27.4,11.4-34.9"/>
			<path class="st0" d="M137.6,864.7c6.5,12.1,10,24.2,12.3,36.5c1.8-0.1-14.8-39.2,12.3-32.8c30.3,6.6,25.1,35.7,24.7,35.8"/>
			<path class="st0" d="M208.7,844.3c20.4,20.7,23.9,38.6,26.9,57.2c-0.2-0.1-2-11.6-8.6-20.9c-6.2-9.3-17-16.4-24.1-6.6
				c-16.4,19.5-7.4,25.8,32.7,27.5"/>
			<path class="st0" d="M251.6,887.3c25.9,3.5,33.8-3.5,28.5-10.8c-6.2-7.5-33.8-1.9-28,19.1c5.5,20.9,30.8,5.3,30.8,5.4"/>
			<path class="st0" d="M299.5,881.2c0.1,0.6,2.4,27.3,2.8,27.4c0.2-0.2,7.8-43.3,26.8-31.1c6.5,4.5,6.4,6.9,6.4,6.9"/>
			<path class="st0" d="M376.6,888.3c-15.9-6.6-40.6-6.1-28.9-0.5c11.6,5.6,28.9,13.3,25.3,21.1c-3.5,7.7-19.5,13.4-31.3,4.2"/>
			<path class="st0" d="M385.5,866.8c6,17.7,2.8,33.2,10.8,49.7"/>
			<path class="st0" d="M439.1,888.7c-2.4-2.3-5.9-3-9.6-1.8c-14.7,4.8-15.3,23.3,1.6,28.6C447,920.9,448.6,899.7,439.1,888.7z"/>
			<path class="st0" d="M479,889.5c-2.8-2.2-6.7-2.6-10.3-1.1c-14.5,5.7-11,24,7.3,28.6C493.1,921.9,491,899.7,479,889.5z"/>
			<path class="st0" d="M532,869.6c2.2,17.3,5.7,34,13.3,51.7c-1.1-0.4-15.8-32.4-34.4-17.9c-19,14,2.9,18.3,18.8,20
				c16.1,1.6,15.6-2.1,15.6-2.1"/>
			<path class="st0" d="M367,877.7c13.9,0.6,27.9,1.1,41.9,1.6"/>
		</g>
		<path class="st0" d="M563.4,921.4c0,6,0.2,11.9,0.6,17.9"/>
	</g>
</g>
<g>
	<g>
		<g>
			<path class="st0" d="M465.1,969.1c-10.9-19.3-35.7-7.7-33.3,18c2.9,25.7,13.4,30.6,32.8,25.5"/>
			<path class="st0" d="M483,982.5c-13.7-4.8-21.2,34-8.9,37.6c12.5,3,15.8-10,16.7-21.4C491.5,988.2,483.1,982.5,483,982.5z"/>
			<path class="st0" d="M489.5,990.5c0.3-0.2,6.7,22.8,15.4,23.1"/>
			<path class="st0" d="M539,974.4c-20-7.1-37.4,10.9-24.2,16.6c13.8,5.5,29.4,1,26.5,12.4c-2.4,11.4-16.3,23-31.1,11.1"/>
			<g>
				<path class="st0" d="M562.8,974.3c-1.7,4.1,0.4,9.9,0.4,9.9"/>
				<path class="st0" d="M562.6,990.5c0.1-0.3-9.3,23.6,8.4,32.7"/>
			</g>
			<path class="st0" d="M579.9,988c0.8,0.1-0.1,8.1,2.7,16.6c2.1,8.3,8,16.8,8.5,16.5c-1.3-0.5-6.6-9.8-6.3-18.4
				c-0.3-8.7,5-16.3,12.6-15.1c9,1.4,10.2,8.9,12.6,16.5c1.9,7.5,5,14.9,5.5,15"/>
			<path class="st0" d="M641.1,985.9c-3.2-1.5-7-1.3-10.2,0.9c-6,4.1-10.1,11-8.7,17.2c1.2,6.2,8,11.5,16.6,11.9
				c8.6,0.5,10.8-5.3,11.2-12C650.2,997.2,648.7,989.6,641.1,985.9z"/>
		</g>
		<path class="st0" d="M670.5,971.8c-6.5,7.6-5.8,12-5.7,12"/>
		<path class="st0" d="M704.5,975c-9-2.3-30,14.5-17.5,16.9c12.2,2.4,39.9,9.1,26.5,17.7c-12.9,7.8-26.2-0.1-26.4,0"/>
	</g>
</g>
<g>
	<g>
		<path class="st0" d="M333,176.6c-18.3,10.4-36.5-11.7-55.1-1.4c1.9,19.6,2.9,39.8,3.4,62.1c-0.1,1.3,9.1,3.3,19.4,1.3
			c10.3-1.3,21.7-6.6,26.3-5.3"/>
		<path class="st0" d="M280.3,211.5c14.5-4,26.6-5.2,40.3-7.3"/>
	</g>
</g>
<g>
	<g>
		<path class="st0" d="M428.2,275.7c12.8,1.4,25.5,2.3,39.2,1.4c-0.4,1.3-51.2,32.2-47.8,42c1.1,4.1,15.4,0.7,29.4,0
			c14-1.2,27.9,0.2,28.3,0.7"/>
		<path class="st0" d="M357.4,312.7c-0.3,1.9,29.2-51.1,42-59.9c9.3,14.8,9.7,30.2,10.7,43.8c0.5,13.4,1.5,24.7,1.9,24.8"/>
		<path class="st0" d="M374.8,284.5c12.4,2,23.7,4.6,34.9,6.9"/>
	</g>
</g>
<g>
	<g>
		<g>
			<path class="st0" d="M1124.3,840.9c10.6,29.7,13.7,60.9,21.9,92.4"/>
			<path class="st0" d="M1181.5,885.2c-3.9-2.7-8.8-3.5-13.2-2.4c-16.8,2.6-23.7,29.6-3.8,34c10.1,1.4,19.1-0.4,23.2-7.4
				C1191.7,902.9,1191,891.4,1181.5,885.2z"/>
		</g>
		<path class="st0" d="M1117.6,882.4c13.3-3.5,24.8-3.4,36.3-3"/>
	</g>
</g>
<g>
	<g>
		<path class="st0" d="M1290,955.9c-20-8-44.8,9.6-30.7,13.9c15.5,4.7,37.4,15.4,33.7,24.3c-3.5,9.1-19.8,13.3-32.8,2.7"/>
		<path class="st0" d="M1490.8,984.3c-14.3-8.2-33.3-6.9-23.7,0c9.5,6.7,26.6,18,24.7,29c-2.1,10.7-15.1,14.6-26.3,2.4"/>
		<g>
			<path class="st0" d="M1309.3,966.9c-5.4,26-5,42.8,7,45.6c9.3,0.9,14.7-22.8,13.9-31.2"/>
			<path class="st0" d="M1329.4,991.1c0.2-0.1,0.6,21.6,15.5,20.9c9.7-2.7,13.4-33.1,7-41.2"/>
		</g>
		<path class="st0" d="M1365.9,985.8c19.6,11.8,27.8,4.8,25.6-5.3c-3.2-10.5-27.3-12.4-27.3,15.8c-0.5,28.2,24.1,14.8,23.6,15"/>
		<path class="st0" d="M1401.5,990.2c19.7,10.7,28.1,4,26-5.4c-2.4-9.7-27.3-10.8-27.8,15.2c1,25.9,25.9,13.6,25.3,13.7"/>
		<path class="st0" d="M1444.4,1032.6c-0.5-0.2-6.2-11.2-7.6-22.8c-2-11.7,0.3-23.9,1.9-27.8c4.1-7.3,28.2-2.2,17.7,9.6
			c-10.7,11.5-20.4,8.8-20.4,8.8"/>
	</g>
</g>
<g>
	<g>
		<g>
			<path class="st0" d="M21.5,162.3c4.3-7.6,35.1-8.7,30.3,4.1c-6,12.2-12.1,15.4-25.3,15.6"/>
			<path class="st0" d="M42.5,178.3c-0.3,0,12.5-5.4,17.7,12.5c4.3,17.9-17.4,23.6-29,20.8"/>
			<path class="st0" d="M85.3,166.1c-18.9,20.4-22.5,44.6,0.5,44.9c21.8-0.6,28.7-27.1,13.4-20c-15.4,7.3-16.1,7.4-13.4,20"/>
		</g>
		<path class="st0" d="M131.2,162.5c22,2.5,32.5,25.6,18.6,39.1c-12.5,14.6-36.6,8.8-33.1-2.1c3.6-10.4,14.8-11.7,22.1-4.6
			c6.9,7.1,14.4,19.1,14.8,19.1"/>
		<path class="st0" d="M209.8,166.6c-10.5,1.3-20.9,1.9-31.1,2c0.1,8.2-0.7,15.8-1.1,23.2c0.1,0.1,9.8-7.3,20.5-2.4
			c10.6,4.5,23.9,19.6,15.7,27.7c-8,7.3-33.2,9.4-43-2"/>
	</g>
</g>
<g>
	<g>
		<g>
			<g>
				<path class="st0" d="M1865.2,710.8c7.3,23.7,5.4,45.5,7.3,71.7"/>
				<path class="st0" d="M1849.6,739.6c12,0,23.3,0.9,34,2"/>
				<path class="st0" d="M1891.4,725.2c1.8,0.2,4.1,48.5,5.4,50.4c-0.9-0.5,7.7-39.9,19.9-23.2c12.3,15.5,13.7,19.2,13.4,19.3"/>
			</g>
		</g>
		<path class="st0" d="M1934.4,751.7c-0.5,0,4,18.7,14.3,20.6"/>
		<path class="st0" d="M1931.4,734.5c0.7,7.8,3,8.9,3.1,8.9"/>
		<path class="st0" d="M1979.6,741.6c-26.6-1.1-40.2,4.4-22.4,8.4c17.7,2.3,50.3,18.3,28.4,23.5c-20.2,4.6-37.5-5.8-37.3-6.1"/>
	</g>
</g>
<g>
	<g>
		<g>
			<path class="st0" d="M1113.7,972.6c-1.7-3-4.5-4.3-7.3-3.1c-10.8,5.1-17.7,23.7-8.4,32C1107.1,1011,1121.3,986.3,1113.7,972.6z"
				/>
			<path class="st0" d="M1115.9,980.4c0.1-0.1-1.3,15.3,8.8,17.6"/>
		</g>
		<path class="st0" d="M1127.5,973.1c3.4,10.7,4.4,20.8,8.3,31.7c-1.1-0.6-5.3-37,9.7-24c14,11.8,16.9,23.6,17.4,23.9"/>
		<path class="st0" d="M1182.7,961.1c4.1,14.5,7.7,26.6,14.6,42.5c-0.9-1.2-9.7-33.9-23.9-20.4c-16.2,13.4-1.2,29.8,23.9,20.4"/>
	</g>
</g>
<g>
	<g>
		<g>
			<path class="st0" d="M1591.5,985.9c2.3,32.3,2.3,43.5,25,41c20.8-3,9.5-35.7,10-35.9"/>
			<path class="st0" d="M1640.1,957.2c1.4,0.8-0.2,16.3-1.2,31.8c-0.7,15.7-1,31.5,11.8,34.4"/>
			<path class="st0" d="M1662.1,1007.6c17.4,2.9,26.1-9.5,19.5-13.1c-6.1-3.9-40.8,17.4-0.2,29.6c14.7,3,10.8-10.8,11.1-10.8"/>
			<path class="st0" d="M1711.7,991.1c-11.4-4.3-25.3,2.7-16.5,9.8c8.9,6.7,37.5,8,26.5,23.5c-9.7,14.3-25-4.3-25.1-4"/>
			<path class="st0" d="M1727.3,1024.9c3.8,6.9,1.8,10.1,1.8,10"/>
		</g>
		<g>
			<path class="st0" d="M1546.1,1030.1c-1.1-22.1-3.8-42.8-8.3-62.9c0.1-0.1,20.8-10.4,37.4,2.6c16,12.9-1.2,46.6-32.7,24.6"/>
			<path class="st0" d="M1559.7,1001.4c5.4,8.1,10.1,16.5,15.2,25.3"/>
		</g>
	</g>
</g>
<g>
	<g>
		<g>
			<path class="st0" d="M978,694c-11.7-19.2-39.9-0.7-41.2,24.1c0.4,24.5,7,36.5,42.6,32.1"/>
			<path class="st0" d="M1000.2,715.9c-14.2-5.8-24.7,31.8-11.3,36.1c13.3,3.6,16.9-8.9,18.1-19.9
				C1008,721.9,1000.2,715.9,1000.2,715.9z"/>
			<path class="st0" d="M1006,724c0-0.2,6.1,22.4,15.7,23.2"/>
			<path class="st0" d="M1060.2,717.7c-15.6-6.8-34.4,6.9-22.8,12.4c11.8,5.4,25.4,2.2,23.7,11.7c-0.8,9.4-13,18.7-27.1,8.2"/>
			<path class="st0" d="M1105.2,722.2c0.4,0.1,0.4,7.6,3.7,15.4c2.8,7.7,8.9,15.4,9.2,15.1c-0.9-0.4-6.6-8.9-6.8-16.7
				c-0.6-7.9,4.3-14.9,13.1-13.5c9.6,1.6,12.5,8.9,15.5,16c2.6,7.1,5.3,14.1,5.5,14.1"/>
			<path class="st0" d="M1179,721.6c-3.8-2.2-8.4-2.4-12.4-0.5c-16.6,6.9-16.8,26.5,4.9,31.7C1190.4,758.6,1196.3,732.2,1179,721.6z
				"/>
			<g>
				<path class="st0" d="M1080.8,714.1c0.7-0.1-11.1,28.4,7,40.7"/>
				<path class="st0" d="M1084.6,695.2c-1.5,5-1.2,11.6-1.2,11.6"/>
			</g>
		</g>
		<path class="st0" d="M1198.8,745.9c-0.6,2.6-1.1,5.2-1.5,7.7"/>
	</g>
</g>
<g>
	<g>
		<g>
			<path class="st0" d="M1019.6,190.5c4.1-8.3,12.6-15.9,21.2-15.4c8.3,0.4,16.5,8.2,10.2,25.4c-14.5,35.8-35.9,45.1-39.2,28.3
				c-3.2-14.7,23.9-24.5,60.5,11.2"/>
			<path class="st0" d="M1067,184.4c8.6,19,8.2,34.7,16.2,52.4"/>
			<path class="st0" d="M1157.7,236.3c3.3-13.7-8.4-49.4-7.8-48.9"/>
		</g>
		<path class="st0" d="M1085.8,192.5c4.2-9.9,13.2-10.4,23.1-4.4c9.6,5.8,24,12.1-6.6,17.8c22.7,11.6,29.3,22.2,29.3,30
			c0.2,6.9-38.3-0.2-38-0.1"/>
	</g>
</g>
<g>
	<g>
		<g>
			<g>
				<path class="st0" d="M356.6,547.3c4.1,7.6,8,15.2,14.4,22.8"/>
				<path class="st0" d="M350.5,523.3c2,3.7,3.5,7.3,4.7,10.9"/>
			</g>
			<path class="st0" d="M406,523.5c-21.1,2.2-33.6,12.9-21.5,16.5c11.2,4.2,72.5,18.7,35.9,27.5c-36.9,10.4-35.6,3.4-35.5,3.1"/>
			<path class="st0" d="M418.3,516.5c2.3,2.3,21.9,52.9,26.5,52.9c-4.5-0.3-2.4-43.7,22.1-22.1c10.6,14.2,16.3,26.8,16.1,26.7"/>
		</g>
		<path class="st0" d="M266.6,534c1.3-0.5,8.1,41.5,8.2,44.2c1.1,2.8,27.5-8.7,28.8-31.1c9.9,18.1,20.9,28.4,35.3,26
			c8.3-1.5,13.1-12.1,10.8-20c-6.4-23.9-14.3-33.3-14.1-33.2"/>
	</g>
</g>
</svg>
