<?xml version="1.0" encoding="UTF-8" standalone="no"?>
<!-- Created with Inkscape (http://www.inkscape.org/) -->

<svg
   width="210mm"
   height="297mm"
   viewBox="0 0 210 297"
   version="1.1"
   id="svg629"
   inkscape:version="1.2.1 (9c6d41e, 2022-07-14)"
   sodipodi:docname="Set 1 - 5.svg"
   xmlns:inkscape="http://www.inkscape.org/namespaces/inkscape"
   xmlns:sodipodi="http://sodipodi.sourceforge.net/DTD/sodipodi-0.dtd"
   xmlns="http://www.w3.org/2000/svg"
   xmlns:svg="http://www.w3.org/2000/svg">
  <sodipodi:namedview
     id="namedview631"
     pagecolor="#ffffff"
     bordercolor="#000000"
     borderopacity="0.25"
     inkscape:showpageshadow="2"
     inkscape:pageopacity="0.0"
     inkscape:pagecheckerboard="0"
     inkscape:deskcolor="#d1d1d1"
     inkscape:document-units="mm"
     showgrid="false"
     inkscape:zoom="0.2102413"
     inkscape:cx="371.00227"
     inkscape:cy="561.25984"
     inkscape:window-width="1309"
     inkscape:window-height="456"
     inkscape:window-x="0"
     inkscape:window-y="37"
     inkscape:window-maximized="0"
     inkscape:current-layer="layer1" />
  <defs
     id="defs626" />
  <g
     inkscape:label="Layer 1"
     inkscape:groupmode="layer"
     id="layer1">
    <path
       d="m 1.6501889,0.32710745 c -0.03345,-0.114711 -0.0388,-0.218549 0.07259,-0.267625 0.18968,-0.08373 0.218784,-0.02486 0.602158,0.03904 0.27097,0.04513 0.397086,0.02275 0.602154,0 0.08631,-0.0096 0.148532,0.02429 0.234172,0.02787 0.156322,0.01183 0.278501,-0.0099 0.434891,-0.03345 0.586436,0.039 1.044117,-0.114521 1.605748,-0.06691 m -3.556119,0.307434 c -0.1114,0.111232 -0.05791,0.08496 -0.167637,0.19455 M 0.0166749,3.3378934 c 0.01606,0.203897 0.156562,0.294488 0.334531,0.373571 0.149535,0.06651 0.300744,0.02067 0.535249,0.128226 0.229153,0.105042 0.155893,0.164856 0.434891,0.223031 0.490085,0.02939 0.8603,-0.0016 1.271217,-0.195167 0.238045,-0.148537 0.373779,-0.298074 0.596469,-0.462756 0.07259,-0.07848 0.121435,-0.135954 0.161914,-0.267625 0.02996,-0.130065 0.0054,-0.259931 0,-0.367984 -0.05185,-0.248992 -0.15489,-0.352696 -0.356947,-0.53525 -0.28443,-0.244231 -0.589023,-0.408114 -0.869778,-0.563116 -0.126788,-0.05637 -0.334867,-0.115313 -0.468344,-0.167265 -0.201142,-0.07883 -0.386226,-0.02037 -0.568703,0.02228 -0.337093,-0.0327 -0.273482,-0.299201 -0.172953,-0.52966395 0.171825,-0.248178 0.342767,-0.372631 0.574389,-0.473929"
       style="fill:none;stroke:#35368c;stroke-width:0.0334531"
       id="path624" />
  </g>
</svg>
