<?xml version="1.0" encoding="UTF-8" standalone="no"?>
<!-- Created with Inkscape (http://www.inkscape.org/) -->

<svg
   width="3000"
   height="1998.207"
   viewBox="0 0 793.74998 528.69227"
   version="1.1"
   id="svg5"
   xml:space="preserve"
   inkscape:version="1.2.1 (9c6d41e410, 2022-07-14)"
   sodipodi:docname="JoshW-Stake-Envelope21.svg"
   xmlns:inkscape="http://www.inkscape.org/namespaces/inkscape"
   xmlns:sodipodi="http://sodipodi.sourceforge.net/DTD/sodipodi-0.dtd"
   xmlns="http://www.w3.org/2000/svg"
   xmlns:svg="http://www.w3.org/2000/svg"><sodipodi:namedview
     id="namedview7"
     pagecolor="#ffffff"
     bordercolor="#000000"
     borderopacity="0.25"
     inkscape:showpageshadow="2"
     inkscape:pageopacity="0.0"
     inkscape:pagecheckerboard="0"
     inkscape:deskcolor="#d1d1d1"
     inkscape:document-units="px"
     showgrid="false"
     inkscape:lockguides="true"
     inkscape:zoom="0.11692445"
     inkscape:cx="-2458.8526"
     inkscape:cy="401.96895"
     inkscape:window-width="1366"
     inkscape:window-height="705"
     inkscape:window-x="-8"
     inkscape:window-y="61"
     inkscape:window-maximized="1"
     inkscape:current-layer="layer1" /><defs
     id="defs2" /><g
     inkscape:label="Layer 1"
     inkscape:groupmode="layer"
     id="layer1"><path
       style="fill:none;stroke:#787288;stroke-width:0.10383"
       d="M 3.0477692,7.095452 C 3.8337205,7.5918503 4.3919271,7.5235514 5.2281776,7.3377174 5.9875518,7.1689736 6.7206726,6.3985801 6.2664785,5.5380106 5.7433548,4.5468547 4.6146094,3.9054483 3.5668902,3.5998679 2.9032877,3.4062987 1.7500255,3.5907413 1.4210938,2.9422745 1.2967438,2.6971332 1.4390473,2.5808131 1.5941538,2.457744 1.8314343,2.2694078 2.6549702,1.9143111 3.0477692,1.9039801 M 27.447673,2.0078095 c -0.214303,0.11279 -0.417704,0.1949814 -0.605636,0.4153178 -0.162806,0.1907762 -0.2359,0.4024325 -0.346167,0.6229767 -0.495476,0.9909897 -0.340666,2.0824864 -0.172981,3.0110538 0.223027,1.2356843 1.344279,1.7072572 2.474567,1.1421237 M 64.826271,2.6307862 c 0.03156,0.3999822 0.332152,1.1746329 0.397979,1.4536122 0.04755,0.2012985 0.117613,0.3691978 0.149723,0.4576365 -0.151869,0.054701 -0.269317,0.02145 -0.547702,0.052383 -0.416874,0.046322 -0.507104,0.00913 -0.934465,0.00913 M 48.681248,2.3380757 c -1.88193,0.7506693 -2.046414,2.8091931 -1.384812,4.0305697 0.37202,0.6869563 0.922524,1.0373703 1.643931,1.1075176 0.503157,0.048924 0.583003,-0.069223 1.038295,-0.069223 m 9.967627,-4.4646659 0.640316,2.388077 0.190319,0.5191472 0.311487,1.0382944 M 7.512422,3.5652512 c 0.1386834,0.6588185 0.3314481,0.7823087 0.4950398,1.2719931 -0.2579889,0.040879 -0.7976004,0.07482 -0.9103543,0.077789 M 65.370359,4.5401871 c 0.441692,-0.025138 0.702883,0.00633 1.261484,-0.055738 0.474814,-0.052756 0.610984,-0.00569 1.010832,-0.1737346 m 1.336773,-0.5378042 c -0.383857,-0.030308 -1.637689,0.5257183 -1.35131,0.6843366 0.750919,0.4159134 2.193479,1.1059735 2.753016,2.326717 0.348763,0.760935 -0.298819,1.4536122 -1.09021,1.4536122 M 15.299629,3.8767395 v 3.530201 M 31.081703,3.9113562 c 0.861162,-0.1674457 1.285409,0.4350662 1.436274,1.2113367 0.03219,0.1651716 0.05845,0.6358473 0.124694,0.7426488 0.32233,0.5196679 0.609483,0.717328 1.1386,0.8147925 M 32.557742,5.4076979 C 32.516832,5.6754846 32.39255,5.9916205 32.258402,6.160987 32.015547,6.4678238 31.420706,7.0462473 30.977876,7.095452 29.960139,7.2085328 29.220146,5.5444582 29.766497,4.7073751 30.049018,4.2746452 30.627865,3.9995905 31.081703,3.9113562 m 6.956575,0.069213 c 0.199972,0.4469131 0.388319,1.8302844 0.501806,2.2842475 0.153252,0.6130299 0.311902,0.7071719 0.328829,1.3497827 M 54.661161,5.3199453 c 0.231227,0 0.525585,0.067834 0.924291,-0.076125 0.338067,-0.1220617 1.531171,-0.4343911 1.436271,-0.9517627 -0.07403,-0.4038136 -0.988582,-0.5223908 -1.488186,0 l -0.679393,0.7103791 c -0.315131,0.3295038 -0.303768,0.5901883 -0.116669,1.0547213 0.0758,0.1881285 0.17973,0.3700272 0.328829,0.5191472 0.472942,0.4729326 1.266823,0.6229765 1.7651,0.6229765 M 35.131053,4.2920574 34.300418,4.8112046 c -0.158129,0.09883 0.450913,0.1337162 0.650785,0.2611981 1.034345,0.4899778 1.997033,1.4861778 2.100695,2.2307083 0.02761,0.2839216 -0.246699,0.5284503 -0.467233,0.640285 -0.640422,0.3247371 -1.914926,-0.08378 -2.388077,-0.1211378 M 51.614561,5.6950207 C 51.902171,4.7014976 53.502219,4.337981 54.235669,4.3958866 M 19.315621,6.0346765 c 0.132079,-0.014369 0.459474,-0.095812 0.552503,-0.133263 0.259263,-0.1044213 1.586721,-0.8588353 1.401697,-1.2805698 -0.221985,-0.5062309 -0.97994,-0.0067 -1.194037,0.1211481 -0.539912,0.3224319 -0.627784,0.7532229 -0.721407,1.0933997 -0.05021,0.1824396 -0.04973,0.4943705 0.01195,0.7409135 0.230502,0.9222545 1.016595,1.2150846 1.747762,1.3497827 M 15.315166,5.0850888 c 0.475644,-0.087622 0.468619,-0.065499 1.041162,-0.1233235 0.217199,-0.021936 0.370575,-0.047595 0.544903,-0.1057187 0.56535,-0.1884505 0.993017,-0.2569926 1.427857,-0.2569926 m 42.480464,1.3488376 c -0.356756,0.5648112 -1.501392,1.506042 -2.213039,1.54557 -0.803431,0.044636 -1.024277,-1.2912854 -0.744144,-1.8516218 0.560782,-1.1215134 1.750876,-0.9344647 2.509246,-0.9344647 M 8.011232,4.8424234 c 0.5867645,0.1467449 0.4513687,0.1670747 0.8722634,0.1553937 0.2924861,-0.00812 1.0451498,0.2427949 1.4323306,0.436364 m 55.0533,-0.8952363 c 0.231788,0.5792332 0.409478,2.486329 0.703106,3.2833134 M 13.265609,6.2891974 C 12.61395,7.3190775 11.693954,7.6481051 11.04263,7.0608458 10.808808,6.8499994 10.793348,6.6592128 10.793348,6.368646 c 0,-0.2075654 0.01525,-0.3482334 0.09354,-0.5191472 0.242855,-0.5298831 0.90103,-0.9136056 1.401698,-0.934465 0.348242,-0.014516 0.622768,-0.058103 0.847973,0.3114886 0.191358,0.314115 0.163012,0.5285539 0.121065,0.8306354 -0.04579,0.3300945 0.07486,0.4620616 0.155745,0.7268059 0.137365,0.4493532 0.244518,0.8029547 0.640316,1.0382945 m 2.307137,-2.86962 c 0.170073,0.646255 1.215737,1.8201093 1.86893,2.2842476 M 8.0111172,4.8373411 C 8.2346206,5.368169 8.5751691,6.8328779 8.9660345,7.6145992 M 51.536105,5.4341811 c 0.157611,0.7486103 0.409398,1.0074986 0.726804,1.8689299 M 62.438194,5.4341811 62.957341,7.51077 M 38.811679,7.095452 c 0.325297,-0.3531445 0.323037,-1.0237477 0.887869,-1.297868 0.201532,-0.097818 0.426634,0.00564 0.622977,0.1038295 0.812567,0.4063054 1.722427,1.1275772 2.076587,2.0246742 m 21.856096,4.3269113 c -0.206435,0.193267 -0.330591,0.134432 -0.571059,0.137755 -0.203819,0.0028 -0.530776,0.01028 -0.726808,0.08649 -0.28418,0.110578 -0.552164,0.23943 -0.830635,0.398082 -0.421445,0.239949 -1.064519,0.938223 -1.197628,1.197278 -0.117327,0.228217 -0.220993,0.335348 -0.169495,0.706227 0.03094,0.222402 0.152007,0.430269 0.276913,0.622977 0.243585,0.375862 0.902487,0.754736 1.401698,0.588401 0.498174,-0.166127 0.896774,-0.569193 1.228614,-1.003719 0.354993,-0.464637 0.752607,-0.620019 0.888106,-1.084656 M 63.684149,9.7950176 c 0.01286,0.4892444 0.551673,2.0842674 0.581893,2.5949234 0.02864,0.483921 0.205533,1.10627 0.280746,1.484343 0.166223,0.835547 0.175653,1.069636 0.175653,2.046671 m -15.159096,-0.10383 c 0.262792,-0.434215 0.238393,-0.997593 0.346064,-1.453612 0.09438,-0.399536 0.06925,-0.668246 0.06925,-1.142124 0,-0.501184 -0.180041,-1.112948 0.08649,-1.661271 0.129683,-0.266634 0.256564,-0.397978 0.449997,-0.622976 0.949519,-1.105265 2.931106,-0.439926 3.045629,0.934464 0.02452,0.294668 -0.144114,0.607714 -0.363403,0.813296 -0.666481,0.624846 -2.534675,0.837964 -3.203231,0.644426 m 0,0.01472 c 0.547803,0.677076 2.840347,2.343294 3.826209,2.369251 M 3.5668902,10.937142 c 0.6414698,0.05067 2.9436382,0.07143 2.8899249,1.038294 -0.037761,0.679979 -0.9836458,1.249543 -1.4465223,1.349783 0.4766801,0.224627 2.2716769,1.685878 2.0695087,2.595736 -0.2508781,1.128937 -1.9959288,0.625053 -2.5784463,0.103829 M 78.324098,11.1448 c 0,0 0.0054,0.07037 0.0052,0.105614 -0.0037,0.556424 -0.104542,1.666033 -0.104542,1.666033 0.411579,-0.0108 1.071909,-0.294984 1.760611,-0.421864 M 17.9992,16.85542 c -0.634189,-0.333812 -1.063033,-0.714011 -1.55674,-0.934232 l -1.946977,-0.868459 c -0.132471,-0.05909 -0.566254,0.04414 -0.685082,0.283249 -0.12895,0.259472 0.06586,0.662323 0.163006,0.748099 0.313489,0.276791 1.228293,0.354947 1.637718,0.165706 0.258622,-0.119539 0.362125,-0.146056 0.526311,-0.342474 0.226541,-0.27101 0.233823,-0.333975 0.356239,-0.609331 0.352889,-0.788359 0.563163,-1.006835 0.370219,-1.744522 -0.129689,-0.518764 -0.268329,-1.509227 -0.922666,-1.91405 -0.604491,-0.373983 -1.67055,-0.119915 -1.675385,0.331294 l -0.0045,0.420054 m 15.470586,0.934465 -1.765099,0.103829 -0.519148,0.10383 -0.900877,0.218065 c -0.09392,-0.374421 -0.133551,-0.628481 -0.236448,-0.981294 -0.05108,-0.175056 -0.105905,-0.462093 -0.182422,-0.609539 0.55398,-0.240435 2.143739,-0.288504 2.77336,-0.288504 m 5.940324,2.549609 c 0.412098,-0.1193 4.162281,-0.954581 2.67752,-1.874717 -0.493918,-0.306089 -1.13683,-0.556526 -1.661272,-0.709467 -0.246699,-0.07196 -0.288855,-0.06925 -0.519148,-0.06925 -0.278782,0 -0.684961,0.128437 -0.830635,0.415318 -0.124388,0.245037 -0.117742,0.39829 -0.08649,0.622976 0.03354,0.241715 0.108963,0.477097 0.171468,0.726807 0.05181,0.207554 0.173616,0.618717 0.234196,0.838673 0.160078,0.581215 0.199973,0.670488 0.199973,1.341745 m 49.630472,-3.426372 c 0.906222,-1.081591 1.647045,0.07964 1.7651,1.142124 0.06043,0.543547 -0.181392,1.054181 -0.397979,1.557442 -0.100508,0.233408 -0.22884,0.492255 -0.346167,0.726806 -0.14422,0.288542 -0.310775,0.505338 -0.457703,0.685414 -0.07677,0.0941 -0.238999,0.179485 -0.45943,0.318305 -0.207139,0.13041 -0.478549,0.252825 -0.726805,0.311488 -0.532021,0.12553 -1.539939,0.121909 -1.349782,-0.692231 0.329279,-1.409778 2.051105,-0.606864 2.520409,-0.18211 0.408669,0.400978 1.112276,1.41197 1.528944,1.324234 M 69.706262,16.647761 c 0.313562,-0.595877 0.592139,-1.089483 1.020954,-1.661271 0.155224,-0.206933 0.276413,-0.388747 0.418346,-0.605231 0.576981,-0.880682 1.126735,-2.602451 2.204954,-3.030448 -0.137415,0.605936 -0.08903,1.057801 -0.356289,1.974408 -0.160415,0.54988 -0.173413,0.820654 -0.383772,1.253311 -0.117327,0.241508 -0.117413,0.439732 -0.18729,0.719448 -0.113796,0.455188 -0.335265,0.991156 -0.432656,1.453612 M 19.037495,15.920955 c 0.656618,0.483845 1.802687,0.998839 2.595737,0.674891 0.583521,-0.238289 0.669492,-1.054596 0.484571,-1.609356 -0.161143,-0.483222 -0.621418,-1.109003 -1.003718,-1.453612 -0.198834,-0.17921 -0.357175,-0.303183 -0.622978,-0.380743 -0.34544,-0.100715 -0.689947,0.211916 -0.917124,0.03468 -0.155745,-0.121481 -0.152943,-0.380535 -0.121171,-0.588402 0.14339,-0.93841 1.75285,-0.519147 2.388077,-0.519147 M 89.953,12.286924 c 0.62412,-0.262792 1.592329,0.09718 2.180418,0.276913 0.235485,0.07195 0.55881,0.155952 0.605639,0.449893 0.06531,0.409711 -0.43232,0.693586 -0.731096,0.955278 0.493197,0.134 1.199885,0.764034 1.475242,1.225141 0.251993,0.421962 0.379702,0.9056 0.484571,1.349782 0.08254,0.349594 0.06437,0.581549 -0.173084,0.830636 -0.510115,0.535137 -1.15853,0.395279 -1.7651,0.294149 -0.309309,-0.0515 -0.629726,-0.109748 -0.934465,-0.294149 M 9.3813519,12.286924 c -0.4426774,0.801044 -1.2028227,1.560453 -1.2459523,2.595736 -0.01448,0.34731 -0.032999,0.689843 0.1557422,1.038295 0.175338,0.32374 0.5697558,0.622353 0.8825499,0.77872 0.2030305,0.101546 0.3895703,0.152526 0.6229776,0.155745 0.3019367,0.0042 0.4208567,0.02263 0.7268077,-0.05191 0.548497,-0.133644 0.630553,-0.224064 1.038292,-0.484572 0.383131,-0.244726 0.684549,-0.325298 0.813297,-0.813296 0.141832,-0.537525 -0.283039,-0.840811 -0.605637,-0.79606 -0.282417,0.03925 -0.925829,0.428609 -1.007541,0.842888 -0.0785,0.397875 -0.124645,0.981796 -0.124645,1.205029 m 46.609478,-1.459516 c -0.190442,0.393762 -1.228302,0.843303 -1.765099,0.571062 -0.35759,-0.181286 -0.501186,-0.559744 -0.519148,-0.88255 -0.0108,-0.193538 -0.03457,-0.310554 -0.03457,-0.519147 0,-0.383339 0.04018,-0.97174 0.155742,-1.349783 0.07663,-0.25106 0.246493,-0.654645 0.60564,-0.674892 0.816307,-0.046 1.475092,0.860688 1.590121,1.590961 0.09772,0.62039 0.183281,0.817819 -0.03268,1.264349 z m 3.273521,-0.855195 c -0.244727,0.422794 -0.865715,1.131901 -1.300761,1.391682 -0.644054,0.384584 -1.807423,-0.04752 -1.826024,-0.803395 -0.01551,-0.630792 0.427788,-1.543511 0.951165,-2.052184 0.32153,-0.312496 0.834508,-0.636042 1.290177,-0.380473 0.970048,0.544066 0.639342,2.106949 1.295024,2.627653 m 27.361902,-2.835312 c 0.07683,0.417186 0.207657,0.997385 0.207657,1.557441 0,1.058853 -0.232265,2.546833 0.20766,3.530201 M 74.271884,15.400183 c 0.514059,0.324675 1.55117,-0.08404 1.923711,-0.829011 0.228322,-0.456746 -0.09542,-1.44406 -0.571062,-1.678611 -0.390606,-0.192499 -0.612282,0.108814 -0.77872,0.432658 -0.415111,0.807793 -0.412557,1.503517 -0.572496,2.072097 -0.06881,0.244608 -0.192935,1.05753 -0.206227,1.561933 m 3.322543,-4.153178 0.830635,0.10383 v 0.519147 c 0,0.716839 -0.155225,1.828333 -0.207658,2.491907 m -73.7188973,-2.699566 0.726793,0.10383 m 36.6240383,1.28026 c -0.583244,1.204604 -1.68397,1.456891 -2.135315,0.969412 -0.315955,-0.341183 -0.123974,-1.265888 0.08649,-1.626696 0.211814,-0.363195 0.463807,-0.551646 0.830635,-0.622976 0.266012,-0.05171 0.550714,-0.108606 0.830638,0.05191 0.597019,0.34243 0.23482,0.710428 0.363994,1.179322 0.205385,0.63833 0.734572,1.322317 1.089616,1.468329 m 3.94552,-2.699565 c -0.723067,0.742588 -1.142747,1.662101 -1.799677,2.491906 -0.152628,0.192811 -0.329347,0.324467 -0.467232,0.519147 -0.186166,0.262793 -0.276187,0.735944 -0.50191,1.142124 -0.863551,1.554327 -1.740391,3.264087 -2.941801,4.568496 M 26.548097,13.753544 c 0.109266,0.424502 0.225508,0.902369 0.434828,1.309692 0.09043,0.175887 0.134318,0.2725 0.226938,0.474049 0.274956,0.07183 0.649022,0.126581 0.964618,0.176011 0.525408,0.08229 1.399619,-0.207659 1.972757,-0.207659 m 13.290169,-1.661271 c 0,0.322182 -0.0059,0.575111 0.10383,0.934465 0.239638,0.784327 0.27848,1.307921 0.778314,1.623667 M 96.03803,13.415096 c 0.401773,1.347838 0.560049,3.614446 0.560049,4.893936 M 71.043756,14.504947 c 0.369945,0 1.138826,0.07527 1.486344,0.221563 M 34.881302,14.471845 c 1.08699,0.08576 2.22687,1.137621 3.468463,1.137621 m 29.383731,1.142124 c -0.158132,0.375448 -0.133215,0.530257 -0.224999,1.038295 -0.181389,1.004757 -0.61519,1.951162 -0.917126,2.907224 M 4.8594539,21.641981 C 5.3910247,21.376177 5.541422,21.415954 6.1626426,20.800939 6.6301988,20.338062 6.6963913,20.125102 6.5856388,19.772302 6.4904558,19.469021 6.290495,19.261459 5.9549706,19.070413 5.7180433,18.935539 5.5740915,18.885805 5.3320136,18.845519 4.736134,18.746154 4.4768384,19.002509 4.4494666,19.658815 m 11.7846274,5.295301 c -0.483638,0 -0.998215,0.113589 -1.453613,-0.242234 -0.481975,-0.376589 -0.449797,-1.11647 -0.380579,-1.555573 0.03186,-0.202107 0.369195,-0.623595 0.576958,-0.856796 0.354785,-0.398393 1.546712,-0.671454 1.464894,-0.252621 -0.0713,0.364996 -0.771574,0.840068 -1.142125,1.072869 -0.41824,0.262762 -0.191452,0.09175 -0.754185,0.432251 -0.246008,0.148858 -0.771465,-0.03406 -0.955971,-0.259167 m -0.08952,-0.519147 c -0.124285,-0.357693 -0.912246,-1.062487 -1.211378,-1.124784 -0.512917,-0.106945 -0.646459,0.258693 -0.871351,0.576203 -0.176095,0.248568 -0.66757,0.771439 -0.672188,1.169129 -0.02034,1.751019 1.849993,1.573121 2.736022,0.34703 0.147192,-0.20369 0.101334,-0.730017 0.0189,-0.967578 z m -6.81816,-3.132223 c 0.2108801,0.166958 0.2571177,0.310423 0.3473267,0.547127 0.2942019,0.771975 0.6676053,1.879015 0.7579967,2.40687 0.4082685,-0.204128 0.5726048,-0.7606 1.2827481,-0.514005 0.375084,0.130306 0.756328,0.457252 0.9623255,0.744029 0.135705,0.188866 0.641623,0.493522 1.024821,1.884884 M 4.4182393,19.190531 c -0.015893,0.3823 0.1901894,1.478614 0.2907878,1.818066 0.092505,0.3121 0.103836,0.334854 0.1634358,0.69322 0.1359168,0.816993 -0.023251,2.405985 0.2518787,3.356129 M 47.279097,23.396675 c -0.250333,-0.271826 -0.474087,-0.604288 -0.899891,-1.142124 -0.159689,-0.201741 -0.53711,-0.467441 -0.484468,-0.726807 0.05659,-0.279197 0.628376,-0.504611 0.865212,-0.622976 0.484053,-0.242026 2.558462,-0.66347 2.993713,-0.190319 0.2955,0.321144 -0.327998,0.694307 -0.536382,0.917125 -0.644678,0.689116 -1.445513,1.27243 -1.938184,1.765101 m -26.476509,-2.284248 0.519148,-0.10383 m 28.864583,4.879984 c 0,1.032376 1.329121,1.761571 2.28425,1.522866 0.701885,-0.175471 1.212727,-0.743834 1.419036,-1.419037 0.306296,-1.002577 -0.321144,-2.12082 -1.003718,-2.803394 -0.25127,-0.251268 -0.642603,-0.689532 -0.934465,-0.778721 -0.286779,-0.08763 -0.549777,0.07652 -0.726808,0.155744 -0.09552,-0.191046 -0.193018,-0.359457 -0.207657,-0.622977 -0.02148,-0.387284 0.138404,-0.741134 0.519148,-0.778721 0.368073,-0.03624 0.750788,0.134252 1.142122,0.05192 m -28.449266,0 0.553724,0.726806 1.055634,1.245954 c 0,0 0.284159,0.320966 0.381146,0.423488 -0.08772,0.216953 -0.233681,0.435934 -0.409119,0.648731 -0.217234,0.263489 -0.75075,0.692881 -0.75075,0.692881 m 6.022107,0.311489 0.98462,-1.193633 c 0.175185,-0.164122 0.404101,-0.635219 0.555484,-0.882956 0.413137,-0.676034 0.883454,-1.354469 1.463146,-1.908538 l 0.119805,2.84219 m -2.140598,-0.03598 c 0.384864,0.199338 0.964659,0.173431 1.301793,0.140621 0.266424,-0.02585 0.585805,-0.103829 0.830635,-0.103829 l -0.20766,1.868929 m 1.7651,-3.945518 h 1.038295 c 2.408011,0 0.276186,1.789189 -0.519148,2.595736 -0.199454,0.20226 -0.558601,0.536383 -0.449891,0.830635 0.347724,0.941941 1.825632,0.376382 2.526481,0.415318 0.381883,0.02118 0.532542,0.152733 0.830635,0.207659 m -11.836557,-3.945519 -1.133952,1.463838 m 35.08618,-1.152349 -0.19581,0.613993 c -0.18126,0.568378 -0.890974,1.29678 -0.01186,1.479935 0.878709,0.183051 1.282363,0.109377 2.071693,0.09793 l 0.835532,0.09239 m -56.2082957,-2.153363 0.036569,1.115069 v 0.726806 M 18.414502,24.954116 C 18.289905,24.658098 18.088661,23.414699 18.18003,22.976435 m -0.01839,0.423107 c 0.07289,-0.349906 0.462914,-0.873685 0.875842,-0.833503 1.031858,0.100299 1.796768,1.616209 2.284247,2.388077 m 41.635605,-2.284248 v 0.519148 l 0.10383,0.934465 v 0.622976 0.519148 0.622976 m -6.748914,-2.85531 c 0.295915,-0.150137 0.860122,0.153564 1.142125,0.380743 0.490904,0.395382 1.101423,1.000397 1.020953,1.643932 -0.05005,0.400366 -0.35821,0.759823 -0.709466,1.003719 -0.43411,0.301417 -1.271184,0.525377 -1.7651,0.449893 -0.327477,-0.05005 -0.542819,-0.289581 -0.709466,-0.622977 -0.288751,-0.577395 -0.181286,-1.229756 0.138404,-1.7651 0.158238,-0.264973 0.355408,-0.488414 0.536486,-0.726806 0.132694,-0.174849 0.203713,-0.291242 0.346064,-0.363404 m -9.03316,0.363404 c 0.194719,0.197347 0.298994,0.337593 0.404275,0.467954 0.222962,0.276068 0.356633,0.497559 0.512849,1.089487 0.159483,0.60408 -0.560885,2.453801 -1.436271,1.747761 -0.688181,-0.554968 -0.241301,-2.042014 0.08649,-2.578396 0.138198,-0.226037 0.29062,-0.597697 0.432658,-0.743578 m -24.711406,0.120601 0.830635,1.972759 M 67.422,23.500504 c 0.10217,0.554657 0.172721,0.859953 0.208066,1.135172 0.05821,0.453218 0.260385,0.766469 0.414912,1.149076 M 26.209879,23.61045 c 0.358523,0.439406 0.658311,0.968323 1.133952,1.551325 m 41.012628,-0.622977 -0.541222,0.200707 c -0.260749,0.05931 -0.689676,0.106214 -1.016218,0.110782 -0.513023,0.0072 -1.571564,0.156471 -1.817015,-0.311489 -0.204546,-0.389879 0.573347,-1.006418 0.67489,-1.557441 m -36.340303,2.284248 c -0.167682,0.579368 -0.22126,1.643827 -0.726804,2.284247 M 66.279872,44.57788 c -0.444806,0.04683 -0.701785,0.584975 -0.190319,1.124787 0.85514,0.902693 2.791454,0.02616 3.374457,-0.813297 1.403358,-2.020937 -1.8084,-3.590111 -3.184138,-4.239669 -0.347724,-0.164257 -1.095608,-0.246284 -1.176699,-0.640316 -0.07839,-0.380431 0.99209,-0.85192 1.384356,-0.934465 m 25.542044,1.349783 c 0.164569,0.781939 0.561406,1.490367 0.726805,2.284247 0.04787,0.229878 0.03903,0.592895 0.104401,0.833908 l 0.726319,2.488628 m -0.711115,-2.477995 c -0.358216,0.0844 -0.889811,-0.187714 -1.365558,-0.325393 m 28.864585,-1.142123 0.20766,2.595735 v 1.142125 l 0.12148,1.436271 1.02064,0.224999 2.18042,0.519147 m -53.368331,-5.710619 0.397979,0.726807 0.501909,1.86893 c 0,0 0.213997,1.151744 0.657552,1.245952 0.543108,0.115353 0.813296,-1.453612 0.813296,-1.453612 l 0.135166,-0.59696 0.193663,-0.753055 c 0.129474,0.144738 0.123773,0.460813 0.210783,0.711665 0.159065,0.458094 0.448222,1.900605 1.138999,2.143877 0.41397,0.145777 0.634503,-0.506688 0.744146,-0.778719 0.334748,-0.831259 0.397979,-1.78265 0.397979,-2.699568 m 24.296089,-0.415317 0.20766,3.011055 M 87.772565,42.501293 c 0.850155,0.492255 2.212189,1.162577 3.011053,1.97276 0.62225,0.630971 0.80177,1.294959 -0.103828,1.747758 -0.42269,0.211398 -0.909027,0.143908 -1.453612,0.121172 -0.569403,-0.02378 -1.268382,-0.414594 -1.7651,-0.519148 m 22.946302,1.142122 c 0.62817,0 0.83894,-0.01528 1.34978,-0.242234 0.47347,-0.210565 0.95835,-0.730645 0.93447,-1.315205 -0.054,-1.299116 -2.48188,-1.866534 -3.23673,-2.150986 0.0235,-0.130854 1.16949,-0.562391 1.78312,-0.756239 m -34.730949,1.86893 c 0.294773,-0.08592 0.570024,-0.0514 0.88255,-0.207661 0.646547,-0.323218 1.526936,-0.629644 1.245952,-1.245952 -0.39427,-0.864796 -1.77367,0.173057 -2.076528,1.13397 -0.157561,0.499905 0.08633,1.587401 0.415259,1.859744 0.548114,0.453944 1.449665,0.182531 1.97276,0.01733 m 5.087645,-0.519147 c 0.475226,0 0.586184,-0.01118 0.841671,-0.07297 0.209627,-0.105837 0.542997,-0.171865 0.923428,-0.325014 0.373474,-0.150451 0.781525,-0.349905 1.038295,-0.640316 0.196862,-0.222612 0.315123,-0.538979 0.08649,-0.813297 -0.245142,-0.294252 -0.904665,-0.645819 -1.228614,-0.726804 -0.183467,-0.04589 -0.651294,-0.04685 -0.813994,0.09342 -0.0091,0.266488 -0.0048,0.309359 -0.0097,0.537998 0.01012,0.500726 -0.01557,0.93297 0.01413,1.329204 0.01486,0.213473 -0.01728,0.404572 -0.0018,0.602245 l 0.140193,1.787987 m 53.208932,-4.368196 c 0.25957,1.230898 0.80779,2.552025 0.83063,3.426373 l -1.34978,-0.207661 m -64.581909,-3.114882 0.10383,0.415318 m 6.872974,1.086619 c 0.271401,0.01428 0.640124,-0.101278 0.914233,-0.204069 0.357175,-0.133939 1.174409,-0.542196 1.19404,-0.98638 0.0219,-0.495785 -1.160941,-0.365937 -1.46472,0.124994 l -0.539376,0.871675 c -0.697873,1.07389 1.288296,2.429703 2.159838,2.429703 0.289893,0 0.429751,-0.04911 0.726808,-0.10383 m 21.181202,-0.519148 c 0,0 -1.2752,-1.017898 -1.97276,-1.436271 -0.69919,-0.419349 -2.20114,-1.066508 -2.20114,-1.066508 m 0,-0.02081 c 0,0 1.61046,0.0012 2.4088,-0.08948 0.70028,-0.07964 2.07659,-0.397976 2.07659,-0.397976 m 42.6739,0 0.65724,2.388078 0.14194,1.038527 0.18731,2.307163 M 99.09006,46.031489 98.259422,44.47405 c -0.488723,0.530567 -1.027599,1.902879 -2.076587,1.522866 -0.584457,-0.211813 -0.732723,-1.153233 -0.588401,-1.730526 0.196444,-0.785781 1.063213,-1.127277 1.782439,-1.142126 1.013584,0.02255 0.882549,0.719123 0.882549,1.349786 m 7.068568,0.181904 c 0.27227,-0.01742 0.70307,-0.216999 1.34162,-0.54531 0.19727,-0.101543 0.75795,-0.407632 0.70915,-0.674889 -0.0768,-0.428506 -0.84724,-0.289581 -1.2283,-0.173084 -0.67593,0.206413 -0.95485,0.747908 -0.83718,1.380404 0.0992,0.53333 0.14983,1.074955 0.62952,1.457671 0.41843,0.332978 0.77768,0.449891 1.34978,0.449891 m 18.17016,-3.011052 0.41531,0.415317 m -33.021866,-0.394485 1.420929,0.05805 m 44.787277,2.620679 0.83064,0.207657 1.7651,0.10383 0.62297,0.10383 m 5.60679,-1.245952 c -0.1765,0.120868 -0.27099,0.211395 -0.62297,0.103827 -0.20039,-0.06105 -0.51811,-0.187408 -0.72681,-0.207657 -0.48488,-0.04714 -1.09644,0.04651 -1.45361,0.415317 -0.59287,0.611764 -0.48055,1.889338 -0.2003,2.584292 0.25741,0.346293 0.36539,0.73742 0.71945,0.963249 0.93238,0.594838 2.0206,-0.545348 2.57609,-1.326667 m -3.3029,0.388767 c -1.10578,0.465676 -2.70671,-1.091243 -2.62695,-1.792015 0.0301,-0.264717 0.14854,-0.710888 0.65419,-0.938794 0.30941,-0.139237 0.8296,-0.296848 1.09021,0.224998 0.29695,0.594214 -0.8491,0.668059 -1.19404,0.726805 l -0.51938,0.08845 m -10.6942,0.326862 0.31149,-0.415317 c 0,0 0.31447,-0.953961 0.72681,-1.020954 0.33822,-0.05495 0.83063,0.605636 0.83063,0.605636 l 1.55745,2.491908 m -9.137,-3.011055 1.45362,2.491907 m 1.5993,-2.003045 0.47775,2.192926 c -0.0316,-0.372621 -0.17905,-0.997258 -0.12194,-1.228176 0.0779,-0.308788 0.17339,-0.372747 0.27722,-0.622977 0.10798,-0.260299 0.52226,-1.169532 0.98638,-0.986377 0.36548,0.143907 0.4745,0.588089 0.60533,0.88255 0.11732,0.263207 0.24088,0.354575 0.41531,0.622974 0.23258,0.355618 0.14433,1.013896 0.32914,1.453613 m 7.17417,-2.175682 c 0,0.428506 0.2839,1.725167 0.71687,2.590999 m -3.94552,-1.86893 1.45361,2.491908 m -51.187912,5.60679 -0.237092,-2.628849 c -0.05993,-0.664536 -0.761537,-1.921893 -0.247479,-2.545282 0.573971,-0.696075 2.333049,0.207345 2.734245,0.813293 0.535968,0.809662 -0.525482,1.792201 -1.315209,1.86893 -0.532539,0.05181 -0.694721,-0.188347 -1.142122,0 M 64.514857,49.977 l 0.605637,2.803395 0.121168,1.453613 m 1.142125,-4.153178 c 0.973919,0 2.326506,0.06064 2.907222,0.519148 -0.232368,0.390812 -0.895641,0.693694 -0.895641,0.693694 l 0.699021,0.525852 c 0,0 1.362314,1.056499 1.321407,1.791506 -0.06137,1.105059 -1.833214,2.049283 -2.474569,0.830635 m 31.564151,-3.5302 0.917122,2.388078 0.11774,0.725183 c 0,0 -0.41772,0.01219 -0.619545,-0.03295 -0.328243,-0.07341 -0.934465,-0.380744 -0.934465,-0.380744 m 18.37781,3.426373 c -0.99261,-0.02617 -1.87412,-0.851403 -2.69957,-1.367124 -0.17131,-0.107256 -1.49054,-0.772642 -1.57464,-0.838885 m 0.53635,2.309839 c -0.13394,-0.31803 -0.39145,-1.482895 -0.41532,-1.765103 -0.16253,-0.57636 -0.12955,-0.804608 -0.41532,-1.45361 -0.28968,-0.673023 -0.61882,-1.976395 0,-2.595737 1.22,-1.220411 4.43248,0.578123 3.91126,2.284247 -0.23362,0.762211 -0.80987,0.66752 -1.41935,0.726808 -0.74714,0.124865 -1.5142,0.145732 -2.2303,0.318845 m -41.170474,-3.43373 c 0.311175,0.985447 0.390294,2.627197 0.726805,3.426372 m 5.60679,-3.322542 c 0.177342,0.962811 0.397461,1.938807 0.830637,2.907225 m -3.84169,0.397979 c -0.518835,-0.05763 -0.890649,-0.637929 -0.796061,-1.124787 0.06697,-0.344089 0.06365,-0.528386 0.06925,-0.934465 0.0041,-0.288542 0.02846,-0.844132 0.155745,-1.020954 0.129059,-0.179314 0.45465,-0.188494 0.956133,-0.05373 0.34873,0.09372 0.638411,0.262516 0.901521,0.478096 0.297434,0.243703 0.656734,0.98125 0.656734,0.98125 0.567471,0.693838 -1.006059,1.778724 -1.943326,1.674585 z m 16.809088,-1.155844 c 0.339477,8.83e-4 0.618269,-0.01183 0.841916,-0.07277 0.500432,-0.136347 1.772679,-0.467754 1.851592,-0.934465 0.09874,-0.583418 -1.396924,-0.157823 -1.643934,0 -0.405764,0.25926 -0.718173,0.52994 -0.947056,0.743766 -0.18071,0.168822 -0.08906,0.468857 -0.125813,0.709846 -0.0677,0.44304 0.326751,1.22799 0.761381,1.540102 0.376694,0.270579 0.933426,0.328828 1.349783,0.328828 m 34.471375,1.66127 c 0.73407,0.951285 2.05375,0.91152 3.01105,0.397979 0.60844,-0.326442 0.96458,-1.248654 0.81299,-1.851592 -0.14744,-0.591308 -0.77872,-1.504591 -1.43597,-1.851591 -0.56587,-0.298923 -1.95925,-0.475432 -2.19806,-1.055633 -0.20143,-0.489245 0.72576,-0.627752 1.2636,-0.726805 m -40.49348,3.322542 c -0.14889,-0.80852 -0.880369,-2.40116 -0.08649,-3.097544 0.726908,-0.63772 2.120821,0.354576 2.474566,0.605637 m 4.879982,-0.622978 c -0.266945,0.189698 -1.079408,0.510012 -0.88255,0.934465 0.158859,0.342535 0.60242,0.443975 0.88255,0.622978 0.814854,0.520601 1.864571,1.026978 2.232336,1.97276 0.305256,0.784847 -0.624223,0.949622 -1.090211,0.969038 -0.201741,0.0084 -0.335162,0.06157 -0.519147,0.06926 -0.464222,0.01931 -0.794501,-0.13768 -1.142122,-0.311491 m 23.389336,-0.76441 v 0 c -0.23465,-0.938514 -0.42458,-1.858493 -0.55729,-2.685752 -0.0432,-0.269026 -0.0965,-0.482481 -0.0934,-0.703015 0.002,-0.149305 -0.0488,-0.338691 0.20766,-0.380741 0.34679,-0.0568 0.47346,0.175056 0.83064,0.363403 1.02479,0.540741 2.81689,1.606344 2.88957,2.924563 0.027,0.484156 -0.19416,0.960733 -0.43193,1.349782 -0.22012,0.360289 -0.50773,0.617889 -0.9002,0.830635 -0.38833,0.210256 -0.8212,0.272808 -1.2386,0.295962 -0.27619,0.01536 -0.47208,0.122049 -0.61359,0.09606 -0.009,-0.449073 -0.0732,-1.798782 -0.0929,-2.0909 z m 21.56881,3.048658 c -0.63751,0 -1.33421,0.112656 -1.97276,0.10383 -0.34783,-0.0049 -0.66017,-0.105452 -0.66017,-0.105452 0,0 0.0486,-0.861512 0.0372,-1.140501 -0.0322,-0.767818 0.0374,-1.547267 -0.12148,-2.180417 -0.20143,-0.80603 -0.13913,-1.290082 -0.39766,-1.86893 0.81921,-0.344922 2.2126,-0.31149 3.01105,-0.31149 m -8.20253,0.20766 1.45362,-0.10383 1.24595,0.10383 m -35.10501,0.215828 c 0.67137,0.01869 1.99235,0.375896 2.29491,0.614807 m 31.17826,-0.873973 c 0.0706,0.892309 0.21392,1.993068 0.42014,3.05439 0.0482,0.247862 0.0456,0.377845 0.0696,0.622978 0.0394,0.402868 0.21596,0.964886 0.41532,1.245952 M 100.5305,54.028796 c 0,0.589855 0.56079,2.320328 0.84373,3.216273 m 44.64666,-2.907222 c 0.58871,0.972361 0.87839,2.815541 0.93446,4.153177 0.0166,0.400781 0.12563,0.649867 0.20766,1.038295 m -42.6739,-2.976481 c -0.42155,0.311075 -1.01857,0.531712 -1.45361,0.06926 -0.59256,-0.629623 -0.42763,-1.212191 -0.17644,-1.834877 0.21961,-0.544388 0.30935,-0.739575 0.79942,-0.501285 0.40286,0.195822 0.80281,0.356486 1.19404,1.038295 0.34763,0.605827 -0.0177,0.973294 -0.36341,1.228611 z m 43.81602,-1.592017 0.79638,2.907225 0.24192,1.557443 m 10.90209,-0.415318 c 0.21492,0.361119 0.4527,0.472216 0.83063,0.640316 0.97185,0.431929 1.81909,-0.501497 1.52318,-1.470953 -0.24711,-0.806442 -1.11824,-1.687435 -1.93849,-1.938184 -0.44959,-0.137364 -0.88359,0.117016 -1.09021,-0.242234 -0.11489,-0.200037 -0.0887,-0.569911 0.0534,-0.734365 0.37692,-0.135749 0.83206,-0.30393 1.63486,-0.30393 h 0.33641 m -56.17172,0.207661 c 0,0 0.33702,0.400333 0.45068,0.633119 0.14278,0.292457 0.27896,0.935663 0.27896,0.935663 0.0586,0.196556 -0.0506,-0.614798 -0.0205,-0.738148 0.12459,-0.498901 0.12645,-0.380534 0.22531,-1.038295 0.0501,-0.333081 -0.0519,-0.849948 0.31148,-0.969038 0.28138,-0.0922 0.53473,0.260611 0.72681,0.449891 0.72265,0.712271 1.26983,1.374702 1.34978,2.388077 m 42.46624,-1.626696 c 0.80053,-0.294252 1.40274,0.433283 1.86893,0.899892 0.34679,0.347206 0.7538,0.653604 0.72681,1.142122 -0.0197,0.351983 -0.2087,0.514373 -0.41532,0.726807 -0.22323,0.229361 -0.82129,0.649661 -1.14212,0.77872 -1.91877,0.77301 -1.66958,-1.670096 -1.38405,-2.647649 0.1111,-0.381783 -0.10591,-0.733763 0.34575,-0.899892 m 23.46545,0.173084 c 0.68528,0.0541 1.54603,0.738748 2.49191,0.830638 0.47243,0.04589 1.20546,-0.03271 1.55744,-0.08649 0.29176,-0.04454 0.49527,-0.108604 0.83064,0 0.52745,0.170488 0.24504,0.891791 0.10383,1.332444 -0.41428,1.297973 -0.71331,2.755427 -1.24596,3.94552 m -39.85498,-5.547116 c 0.22843,-0.04215 1.23666,-0.106609 1.64575,-0.163507 0.47865,-0.06645 0.46809,-0.02843 0.93446,0 m 29.59139,-0.10383 c 0.93031,0.02452 1.98003,1.136933 1.86893,2.284247 -0.0239,0.247944 -0.18793,0.654956 -0.29384,0.830635 -0.10175,0.167895 -0.2035,0.263104 -0.41531,0.415318 -0.21389,0.152943 -0.46204,0.403171 -0.74446,0.536489 -0.53161,0.250851 -1.50553,0.317718 -1.95511,-0.06926 -0.41947,-0.360182 0.0125,-1.059059 0.39767,-1.176699 0.91474,-0.279506 2.0281,0.353984 2.47597,0.702109 0.33157,0.322898 0.54546,0.537098 1.05423,1.045653 m -6.95657,-3.63403 c 0.65412,0.372541 1.07048,0.883795 1.33213,1.557443 0.10175,0.261441 0.14536,0.34222 0.0353,0.622974 -0.3011,0.762109 -1.35497,1.003098 -2.09424,0.951807 -0.40182,-0.02793 -0.84517,-0.270165 -1.12447,-0.571063 -0.33745,-0.362054 -0.547,-1.065631 0.0862,-2.042013 0.60492,-0.932791 1.23558,-0.820564 1.76511,-0.519148 z M 155.677,57.037408 c 0.66866,-0.01754 0.90332,0 1.86893,0 m -91.473733,6.333594 c -0.514682,-1.222383 -0.616641,-3.10502 -0.899888,-4.464665 -0.06645,-0.319381 -0.111721,-0.972673 0.380741,-0.917126 0.469725,0.05285 0.938515,0.609686 1.245955,0.917126 0.538252,0.538252 1.519752,1.464203 1.280529,2.284248 -0.182846,0.626921 -0.903317,1.554222 -1.401697,1.938183 -0.18596,0.143287 -0.420719,0.159483 -0.60564,0.242234 m 6.956572,-4.257007 c 0.05482,0.29768 0.09978,0.436708 0.103831,0.726807 0.01413,1.015556 0.297027,2.89366 0.547361,3.894889 m 1.217738,-4.621696 c 0.177758,0.964679 0.03267,3.988011 1.287349,4.36107 m 6.292201,-2.33e-4 c 0.302146,-0.008 0.454774,-0.02887 0.726808,-0.138404 1.240554,-0.499731 0.796891,-1.522451 -0.20766,-2.024675 -0.274215,-0.137159 -1.176699,-0.379184 -1.176699,-0.744146 0,-0.363505 0.618303,-0.6345 0.969041,-0.726805 m 6.437425,0.622978 1.7651,-0.242234 c 0,0 0.546548,-0.192511 0.830634,-0.24234 0.717319,-0.125816 2.180418,-0.138404 2.180418,-0.138404 M 79.31059,62.176848 c -0.417396,0.349696 -0.907173,1.442723 -1.592135,1.038413 -0.783602,-0.462456 -0.633879,-1.94213 -0.01734,-2.422654 0.236006,-0.183985 0.513853,-0.300586 0.830638,-0.190422 0.565038,0.196549 0.32623,0.6345 0.536486,1.107548 0.107568,0.242025 0.139858,0.388635 0.311487,0.553722 0.283247,0.272554 0.80364,0.658696 1.228614,0.692231 m 20.97354,-2.388078 1.66127,0.415318 0.51915,0.01734 1.45361,0.08649 h 0.72681 l 0.46723,0.121168 -0.0177,0.813297 -0.96873,3.84169 m -33.433079,-1.97276 c -0.482081,-0.05212 -0.530673,-0.324467 -0.709467,-0.726805 -0.245663,-0.552685 -0.363405,-0.940593 -0.363405,-1.557443 0,-0.299755 0.101658,-0.362051 0.01725,-0.622977 -0.111827,-0.345752 -0.53223,-0.354473 -0.917127,-0.242234 -0.239432,0.06977 -0.491193,0.07522 -0.778725,0.501809 -0.526821,0.781604 -0.600036,1.601882 -0.346067,2.232332 0.153043,0.379914 0.418225,0.579471 0.813296,0.519148 0.518212,-0.07912 1.220082,-0.57906 1.423795,-1.131951 m 37.512249,1.754928 c 0.34886,0.859396 1.30202,0.944225 2.07659,0.761382 0.56794,-0.133942 0.90227,-0.484159 0.93446,-1.072872 0.0488,-0.879848 -1.21065,-1.537817 -1.86893,-1.903504 -0.22116,-0.122725 -0.54511,-0.143804 -0.72681,-0.173083 -0.13705,-0.0221 -0.25957,-0.03551 -0.29383,-0.20766 -0.0509,-0.253448 0.0291,-0.728777 0.29383,-0.88255 0.34887,-0.202363 1.2387,-0.181849 1.50658,-0.10418 M 94.209984,61.19058 c 0,0 0.247785,0.841492 0.415318,1.245952 0.192502,0.464746 0.726925,1.401818 0.726925,1.401818 l 1.245835,1.816897 m 16.924198,-4.04935 c 1.19404,-0.94277 2.06828,1.034869 1.97276,2.18042 -0.0529,0.638966 -0.16074,0.811714 -0.29152,1.225692 -0.0895,0.283268 -0.73431,0.546778 -1.26592,0.539408 -0.31668,-0.0044 -0.71746,-0.220742 -0.88255,-0.519147 -0.33121,-0.598579 0.38729,-0.671882 0.77872,-0.622978 0.49319,0.06168 0.89398,0.259469 1.25008,0.520884 v 0 c 0.12531,0.0926 0.31151,0.321901 0.41119,0.413581 0.19727,0.180974 0.36133,0.283974 0.62298,0.31149 m -19.312281,-4.15318 c -0.663676,0.720474 -0.916073,1.746946 -1.401574,2.242275 -0.438366,0.460024 -0.839161,1.568164 -0.882668,2.118563 m -3.48858,-5.651453 c 0,1.311989 -0.249285,4.020501 -0.249285,5.236135 m 28.656928,-3.322542 0.51915,1.557442 0.13809,0.519148 0.19104,0.519147 0.60533,1.349783 m 1.09281,-3.392726 c 0.79353,-0.209464 1.80091,0.226032 2.40313,0.900818 0.64893,0.727223 0.60844,1.872459 -0.48489,2.145844 -0.8161,0.204025 -1.70695,-0.229049 -2.02467,-1.107549 -0.244,-0.676761 -0.34806,-1.819145 0.10643,-1.939113 z m -4.2077,0.07018 c -0.0228,0.295291 -0.28033,0.913595 0.0177,1.211379 0.62713,0.627854 1.65959,0.346061 2.33968,0.346061 m -34.336795,-0.103827 -0.121168,0.830635 -0.501809,2.180417"
       id="path431"
       sodipodi:nodetypes="cssssscccscccccscccscccccccccsccsscccccscccscccsccscssscccsccsccccscsscccssccscccsccccsscssscccccccccccssccsccccsccccssccssccssccccscsccscccssssssccsscccccscccssssccsccsccsscscccscccccccccscssccsscssscccssssssscscscsscssscssssccsccccsscccsccccsssccccsscccscsccccccccccccccssscccsscssscccsssccscssccssccscccccccccssscsccccccscccscccccccsscsccccssccccccccccccccccccssscscccscccccccscccccscccccccccccscccccccccccccsccccscccccccscccccccssscccccscccccscccccccssscsccsccsccccccccsccccccsccccccccccccccccccsccscccscccccccscccccccccsscccccccccccccccscccccccccccccccsccssssscscsscccccccccccccsccsccccsccccccccccccccccccccccsscccccccscscccccccccccscsscssccccccccccsccccccccccccccccccccccscccccssscccccccccsccccsccscscccccccccccccssssscccccscccccsccccsccccccccccccccccccccccccccccc" /></g></svg>
