<?xml version="1.0" encoding="UTF-8" standalone="no"?>
<!-- Created with Inkscape (http://www.inkscape.org/) -->

<svg
   version="1.1"
   id="svg59"
   width="3000"
   height="1998.207"
   viewBox="0 0 3000 1998.207"
   sodipodi:docname="JoshW-Stake-Envelope30.svg"
   inkscape:version="1.2.1 (9c6d41e410, 2022-07-14)"
   xmlns:inkscape="http://www.inkscape.org/namespaces/inkscape"
   xmlns:sodipodi="http://sodipodi.sourceforge.net/DTD/sodipodi-0.dtd"
   xmlns="http://www.w3.org/2000/svg"
   xmlns:svg="http://www.w3.org/2000/svg">
  <defs
     id="defs63" />
  <sodipodi:namedview
     id="namedview61"
     pagecolor="#ffffff"
     bordercolor="#000000"
     borderopacity="0.25"
     inkscape:showpageshadow="2"
     inkscape:pageopacity="0.0"
     inkscape:pagecheckerboard="0"
     inkscape:deskcolor="#d1d1d1"
     showgrid="false"
     inkscape:zoom="2.2259577"
     inkscape:cx="453.51266"
     inkscape:cy="252.02635"
     inkscape:window-width="1366"
     inkscape:window-height="705"
     inkscape:window-x="-8"
     inkscape:window-y="-8"
     inkscape:window-maximized="1"
     inkscape:current-layer="g65" />
  <g
     inkscape:groupmode="layer"
     inkscape:label="Image"
     id="g65">
    <path
       style="fill:none;stroke:#9f96aa;stroke-width:0.39711"
       d="M 183.75506,27.844055 C 177.5784,27.681557 173.07,22.207624 174.29072,15.930732 c 0.66873,-3.440249 2.25042,-7.9701313 5.89034,-8.7364362 M 103.9358,7.5914067 c -0.97451,1.0010367 -1.50148,1.6567063 -2.25043,2.7797753 -0.93003,1.395407 -1.52927,2.847284 -2.184106,4.368218 -1.961728,4.556608 -4.549698,12.729743 1.654756,15.48732 1.70678,0.758482 3.9866,0.794222 5.95667,0.794222 M 19.350258,8.8621856 c 2.338903,0 -9.295735,0.00366 -8.338375,2.0385034 0.809601,1.720784 2.94683,2.343729 3.812214,3.123813 2.595039,2.339181 8.913001,11.698227 1.747336,13.091491 -1.181086,0.229647 -3.146427,0.05436 -4.368218,-0.132318 C 10.189983,26.676073 8.4141434,25.927282 6.6436647,25.46139 M 26.499202,9.1798497 c 1.949536,3.2210453 1.618224,12.0324463 1.618224,12.0324463 0,0 0.211424,2.248212 0.36733,3.851984 0.230641,2.372259 0.362006,3.663901 0,5.956662 M 31.820198,20.954194 22.130984,19.90184 m 212.454246,-9.530658 1.65476,6.353772 0.80734,2.852585 2.30323,8.663626 m -6.88952,-8.918468 10.06641,0.976254 m -101.26324,-8.736437 1.32357,6.353772 0.7283,3.176886 1.58844,3.573997 1.52213,4.765328 m 71.87704,-16.678651 c 0.35542,0.844059 2.54478,8.41361 2.54478,8.41361 0,0 1.52283,7.534915 4.60321,7.867931 M 219.4388,16.460212 c -3.08714,1.114809 -11.32576,5.298677 -9.27588,9.398288 0.52101,1.042258 1.50783,1.866303 2.58122,1.985555 1.97563,0.219482 5.45942,-2.859925 6.34061,-4.209386 0.55715,-0.853908 1.10465,-1.773995 1.63956,-2.593631 m 31.3338,-7.095859 c -2.557,1.278617 -5.38252,-0.179479 -5.16245,2.779775 0.28896,3.885576 7.46648,3.56669 10.25857,6.750883 2.62331,2.991434 -0.64848,6.075793 -3.50768,5.95666 -2.25559,-0.094 -3.99772,-0.794219 -6.35377,-0.794219 M 190.50594,25.46139 c -1.93472,-2.722948 -2.7476,-11.554321 -2.7476,-11.554321 m 0.28077,2.232186 c 0.8522,-0.295927 3.61019,-2.006693 4.57676,-1.899274 1.36288,0.151458 3.39283,0.538257 4.64095,1.293641 M 51.120071,14.7394 c -1.148447,2.566964 -0.794223,8.339326 -0.794223,8.339326 0,0 -0.150107,4.054342 0,5.956661 m 78.627922,-0.794222 c 1.54079,2.591109 4.79273,3.200276 7.54511,2.779777 2.27346,-0.347315 4.0406,-3.202063 3.44176,-5.162442 -1.70678,-5.585203 -16.35921,-7.710078 -12.29051,-9.00917 l 4.47249,-1.428019 m 74.26775,12.422744 c -4.45955,0 -7.58879,-5.103061 -5.19718,-9.064043 0.23249,-0.38506 0.46442,-1.124747 0.9612,-1.657947 0.82162,-0.881666 2.43032,-1.623985 3.30952,-0.397111 1.43992,2.00942 -2.67613,2.827843 -4.27569,2.154343 m -85.3391,-2.021946 c 1.76516,-0.539356 4.10771,-0.617071 5.0302,0.661824 1.89501,2.627285 -2.38147,9.486221 -5.0302,10.258722 -2.77858,0.810345 -4.15735,-2.532058 -4.36822,-4.699171 -0.28909,-2.975273 1.61108,-5.378945 4.36822,-6.221375 M 64.224725,33.403606 c -1.796928,-2.845258 -3.764213,-5.231935 -6.750883,-7.015597 -1.472883,-0.87968 -4.902272,-2.424347 -5.208841,-4.401284 m -1.869583,0.998928 c 0,0 3.56598,-2.263025 4.695759,-2.686702 2.85602,-1.071008 6.385145,-2.779776 9.530658,-2.779776 m 80.464575,7.545105 c 0.58732,-0.656583 0.72118,-1.447515 0.8836,-2.422342 0.18783,-1.126921 0.63851,-2.611792 2.04508,-3.335764 3.74396,-1.92698 7.94222,5.770575 7.94222,8.537881 M 42.594217,25.06428 c -1.569998,1.569997 -1.415816,3.737368 -3.387471,5.493353 -2.881791,2.566606 -5.573291,-0.782428 -5.096239,-3.90491 0.361569,-2.366661 1.866895,-4.493904 3.904907,-5.824265 1.0419,-0.680131 2.33541,-1.329209 3.573996,-0.728063 1.477651,0.717103 0.555161,3.616805 1.059095,4.897726 0.324042,0.824402 1.021766,1.003381 1.389888,1.654602 0.494799,0.87543 0.849024,2.626968 1.522127,3.573997 m 21.770894,-5.204557 c 0.705269,0.37118 1.290915,0.487597 2.45286,0.439227 1.338661,-0.05575 6.534457,-1.414508 5.360995,-3.971107 -0.43682,-0.952073 -1.706384,-0.830681 -2.581218,-0.794221 -2.582412,0.107616 -5.375036,1.772992 -5.260714,3.966098 0.267404,5.129784 8.263663,10.936791 13.202927,7.947224 M 227.04013,21.490283 c 0.05,1.9049 0.97173,4.566813 2.38266,6.353772 m -108.97681,-5.032068 4.13958,6.2234 m 52.83564,17.889837 c 0.77238,-0.691369 2.36076,-0.946314 4.34831,-1.277504 1.83107,-0.304981 6.71156,-1.920428 5.36099,-4.699011 -1.62061,-3.333347 -9.26579,-1.985554 -9.26579,-1.985554 0,0 -0.88233,3.191579 -0.86053,4.765328 0.0195,1.407363 0.43688,3.176887 0.43688,3.176887 l -1.23111,8.736436 m 2.77972,-9.411472 c 1.81082,1.763172 6.99755,7.929853 11.11916,9.014362 M 5.0552218,39.360267 c 1.3550609,-0.392347 9.0422512,-1.314438 7.8098582,2.382665 -0.469346,1.408154 -3.2628931,2.75995 -3.2628931,2.75995 0,0 11.1263611,8.270196 5.7779141,12.198018 -1.455649,1.069024 -4.9864,0.570648 -6.3537719,-0.198553 C 7.2119301,55.481771 8.1310033,54.437768 9.42344,54.053364 m 109.60257,0.397109 c 0,-1.753641 0.13224,-2.546273 0.13224,-3.971106 0,-1.003897 -0.13224,-2.169416 -0.13224,-3.176887 0,-1.812016 -0.26051,-2.261545 0.92645,-3.971106 1.81361,-2.611401 6.94666,-3.334143 8.14078,1.191332 1.10357,4.18118 -3.54722,6.775674 -6.28746,6.353771 l -2.5792,-0.39711 m 2.60728,0.369032 c 1.47169,2.07133 4.82104,5.063443 7.51702,3.999187 M 42.780742,42.537151 c 1.263212,-0.864508 2.170608,-1.590824 3.573997,-0.661981 2.819883,1.866817 1.983568,5.439622 1.522127,8.207087 -0.135812,0.815664 -0.627049,2.36953 -0.324055,3.157 1.207965,0.872108 1.955784,1.030134 3.56726,2.005439 m 44.873511,-8.736435 -10.717966,2.807852 m 12.306411,-7.970294 -8.736438,2.647539 -3.77255,1.389886 0.186526,4.103346 c 0.07755,2.694395 1.600472,5.360996 1.600472,5.360996 0,0 6.262039,-1.647216 8.736436,-1.191332 m 182.670937,-12.310435 0.3308,3.573997 -0.3308,2.382664 v 1.588445 l -0.39711,3.971106 V 58.02447 M 56.679619,54.053364 c 3.182049,0.920899 6.936732,1.480826 9.927771,-0.330795 1.220716,-0.739418 2.165842,-2.088801 1.389885,-3.640312 -0.932414,-1.864435 -4.273704,-3.714973 -6.155214,-4.368219 -0.618302,-0.214836 -1.390285,-0.183069 -1.919236,-0.595666 -0.876821,-0.683825 -0.273214,-2.863167 0.330791,-3.110568 1.243751,-0.509891 2.442231,0.408626 3.971109,0.529347 m 162.021185,-0.39711 c 0,2.553421 0.6874,5.375291 0.79422,7.942216 0.0373,0.897866 0,3.573997 0,3.573997 l 0.39711,2.779774 m -0.30481,-3.610044 c -1.84656,2.069344 -11.60732,8.353533 -11.27772,2.418712 0.0488,-0.879999 0.48884,-1.285052 0.92686,-1.985555 1.71075,-2.737282 8.23046,-5.756093 9.93764,-5.756093 m 94.43615,-3.774565 c 2.0459,-1.884288 5.03656,-2.142411 7.54509,-0.992775 1.2235,0.560721 3.04466,1.353353 3.04466,2.97833 0,1.174654 -1.50665,2.89732 -2.31676,3.37544 -0.81683,0.482094 -2.42713,0.198557 -3.50766,0.198557 M 26.102091,42.537151 c -2.526458,1.794942 -3.615058,3.943709 -3.971107,7.147993 -0.379996,3.419919 1.566323,5.837528 4.368218,6.353774 0.414862,-1.313643 0.819795,-2.638404 1.7208,-3.971109 1.401087,-2.072519 4.513281,-3.471143 6.089058,-1.191332 2.827984,4.091434 -5.11844,7.074926 -7.809858,5.162441 m 272.815088,-9.92777 c 2.93781,-4.134715 8.13994,-1.178624 7.87588,3.573996 -0.10883,1.960537 -1.86762,5.245436 -2.77979,6.750884 -0.57542,0.950683 -0.85696,0.997145 -1.85291,1.65476 -0.84823,0.559531 -1.29616,2.091185 -2.44898,2.779775 -2.0582,1.229058 -5.34192,0.843463 -6.22152,-1.654761 -1.88627,-5.357421 8.07671,-2.140805 9.56283,-1.149215 1.62109,1.081645 3.44609,2.278997 5.79221,2.340547 M 8.2917004,44.502852 9.5425946,44.54256 M 258.06287,52.858011 c -2.42971,0.214687 -5.13208,-0.573507 -6.5162,-1.552323 m -50.31874,1.556343 c 0,2.017721 -2.08324,5.530165 -4.76533,4.699011 -4.81219,-1.491149 -2.12104,-12.526255 0.79422,-10.457115 2.49425,1.770319 3.97111,4.308253 3.97111,5.758104 z m -58.67312,-2.481934 c -0.86292,1.171476 -0.91295,2.479552 -2.21706,4.070376 -2.16942,2.646744 -5.78591,0.419349 -6.48641,-2.382664 -1.04599,-4.184355 4.70139,-8.748349 7.80998,-5.890343 1.34898,1.239781 0.36455,2.246853 0.86054,3.838473 0.27917,0.896677 1.21357,1.312053 1.787,2.05187 1.13414,1.464546 1.98515,3.741974 3.70623,4.765329 M 315.1987,45.316928 c 0,4.830057 1.49193,8.928636 3.17689,13.501764 m -43.28506,-12.310431 3.17688,1.125013 1.98556,-0.06592 4.76533,-1.853317 m -21.29756,8.034346 c 0.45946,0.727508 1.88321,1.245735 2.63335,1.297755 4.21335,0.292672 8.184,-8.725253 1.83113,-8.764513 -2.73416,-0.0169 -3.46373,2.438923 -3.883,4.594851 -0.18712,0.962185 -0.6139,2.60291 -0.72792,3.97111 l -0.39711,4.765329 M 344.982,46.111148 c 1.49593,5.167603 0.79423,10.337189 0.79423,15.487319 M 159.5313,47.30248 l -3.90479,8.339326 -1.4562,1.985554 -3.50768,6.750884 -7.41287,9.133548 m 69.09325,-20.926518 c -1.54119,2.662232 -6.91603,7.409263 -8.20307,2.262312 -0.83711,-3.348835 3.01805,-9.002105 6.61865,-6.618646 2.20317,1.458587 0.67151,2.936238 1.787,4.434535 1.02732,1.379563 1.32357,1.213968 2.58122,2.184111 m -65.52328,-6.353774 4.60647,8.954832 m 175.17638,-8.329076 c 1.9383,1.785411 6.51052,4.128851 6.85919,7.71357 0.48169,4.952368 -7.33068,4.122408 -10.32488,3.176887 M 41.58941,51.405827 c 1.864435,-0.472562 5.69323,0.814079 5.963263,1.83346 m -0.02673,-0.01965 C 44.83354,56.354679 37.987617,52.31918 41.58941,51.405827 m 206.20474,5.527558 c 1.41848,-1.457 3.30026,-4.640952 3.30026,-4.640952 l 7.34555,-9.013193 c 0,0 0.13672,1.251409 -0.0281,3.229021 -0.19935,2.392987 -0.0313,4.478675 -0.36107,6.582413 -0.40656,2.593629 -0.50671,4.975799 -1.58844,7.545106 m -17.50892,-0.625755 -3.17689,11.516212 M 19.748319,65.966686 c 0.470026,3.996121 1.965239,7.825652 2.217208,11.681608 l 0.165457,3.408601 0.39711,3.971106 M 21.942555,78.1307 c 4.269404,-0.540726 5.618573,3.20875 5.896484,6.235498 M 8.4706014,78.63443 c 2.2115086,-0.95227 8.4606206,-3.512379 8.1405096,-6.393419 -0.258281,-2.324289 -6.06695,-7.474363 -8.180448,-5.016675 -0.4992475,4.71838 0.4186988,7.990709 0.07283,11.310902 0.5493131,3.309414 0.9001396,6.911432 0.9199468,10.06676 m 68.3030492,-19.061316 3.573997,3.573997 m 7.147993,-1.588442 c 2.012557,2.066962 3.309917,4.836413 5.228758,7.545103 0.589709,0.832741 1.866022,1.750862 2.051474,2.779777 m 32.033729,6.750881 c -0.46422,-2.519269 -1.03407,-4.960707 -0.92646,-7.545103 0.0596,-1.432378 0.51185,-1.916458 0.52935,-3.176887 0.025,-1.812412 0.21024,-5.572205 -1.19133,-4.566773 0,0 -2.17306,1.289483 -3.04465,2.184109 -1.56282,1.604127 -3.77255,5.559551 -3.77255,5.559551 l -3.90479,5.559551 m 51.69071,-8.339325 c 0.1382,-2.456926 6.14251,-6.45186 7.34655,-3.176887 0.65007,1.768333 -0.76166,3.556126 -1.85331,4.765329 -0.82401,0.91256 -1.55787,1.557866 -2.38267,2.382664 -0.80018,0.800179 -1.52212,1.429599 -2.31634,2.382664 -2.00819,2.409669 -2.32787,6.314457 0.33079,8.074454 2.07212,1.37162 4.50443,-0.562708 4.76533,-2.912015 0.30696,-2.763891 -1.36924,-5.616732 -2.76574,-7.180092 -0.97635,-1.022494 -3.2084,-2.851321 -3.12461,-4.336117 z m -33.02651,-3.573997 c 1.09444,0.201731 2.11581,0.550792 3.17689,0.860538 1.32397,0.385992 2.66064,0.326821 3.50768,1.191332 0.84267,0.859746 0.24263,1.905736 -0.39711,2.713459 -1.76635,2.231365 -7.40254,5.995975 -6.15522,9.530658 1.14011,3.229701 8.31312,1.985551 10.98687,1.985551 m 34.94574,-2.382664 c 1.83783,3.174504 4.75342,3.176887 7.94222,3.176887 1.70161,0 4.57908,-0.96061 4.3019,-3.176887 -0.1652,-1.323171 -1.87079,-3.037498 -2.71346,-3.971107 -2.01216,-2.228586 -4.4528,-3.823381 -7.148,-5.096123 -1.03328,-0.488047 -2.49465,-0.677469 -2.91201,-1.721076 -0.65682,-1.642054 2.5149,-2.448586 2.5149,-2.448586 L 187.1701,75.17968 M 48.975684,80.034324 c 2.014543,0 3.571979,0.214827 5.599227,-0.995963 0.72036,-0.43047 1.9272,-1.727013 1.509042,-2.680475 -0.698121,-1.591621 -3.297208,-0.806933 -4.566772,-0.06632 -1.74848,1.020176 -2.316723,2.012659 -2.467045,3.683225 -0.23575,2.61996 1.048168,5.067905 4.055487,6.112305 2.106674,0.731478 3.752696,0.140976 5.956661,-0.264872 M 100.75891,75.497346 c -1.443098,2.6114 -3.423499,3.543437 -4.81353,5.930594 -0.611829,1.050717 -2.918215,4.097642 -3.922904,5.188506 M 37.221194,85.557352 c -2.680021,-1.749275 -4.21573,-5.668359 -1.588445,-8.008135 0.727904,-0.648484 1.786998,-1.042416 2.779777,-0.794223 1.878332,0.469385 4.417439,1.414561 5.360994,3.275964 1.60076,3.157908 -2.304434,8.299416 -6.552326,5.526394 z m 25.017977,-7.677344 2.316346,3.243205 1.65476,6.287453 m -1.700753,-6.245481 c 0.746965,-1.013824 0.937508,-2.890051 2.494975,-3.218859 4.587425,-0.969348 9.99369,5.101285 11.913323,8.273007 M 214.72969,78.67423 c -0.22118,0.76404 -0.41061,1.636495 -0.79422,2.382665 -0.494,0.961009 -1.73974,2.395769 -1.32357,3.573996 0.62982,1.78422 3.04584,1.04996 4.50046,1.191333 1.94987,0.204587 5.27182,-0.503938 6.39384,-0.260851 m -23.07249,-5.497254 c 2.94735,-1.186966 7.23297,2.791687 7.80998,5.758105 0.38559,1.984759 -2.05346,4.244716 -3.83887,4.963885 -2.77342,1.11707 -5.57941,-0.230722 -7.01576,-2.581221 -1.55191,-2.539524 0.43484,-7.089618 3.04465,-8.140769 m 38.91685,0.198553 c 0,0 1.56584,4.69316 1.8271,7.133955 0.22607,2.11203 -0.23866,6.367812 -0.23866,6.367812 M 119.65176,80.663806 c 2.03201,1.443894 5.37785,0.458053 7.16803,-0.06018 m 105.38278,0.05616 -0.39711,4.368216 3.77456,2.637484 c 1.69106,0.273261 6.14651,-0.241413 7.84986,-0.07034 m -21.9493,-6.53825 c 0,0 0.009,3.23484 0.27277,4.823496 0.26683,1.607192 1.31567,4.707162 1.31567,4.707162 m -140.974311,-9.133548 3.176883,5.162441 m 10.413134,-4.813443 4.677074,6.004775 m 8.73644,10e-7 -4.36822,11.51621 m 107.2199,29.38619 c -1.50306,1.22628 -3.74992,2.49227 -5.16244,3.70624 -0.55079,0.47336 -1.39108,1.3736 -0.99278,2.18411 0.52618,1.0714 2.08483,1.07855 3.37545,1.25765 2.99937,0.41657 7.22384,2.71504 9.53065,4.76533 4.95992,4.40872 4.79829,11.70285 -2.77977,11.91332 -1.06664,0.0298 -2.05783,-0.20292 -3.17689,-0.52935 -2.00819,-0.58574 -6.8585,-4.55923 -2.38266,-5.0302 m 107.21988,-13.50177 c 1.14883,1.67899 3.37545,8.86887 3.37545,8.86887 0,0 1.27313,5.98742 2.58121,8.60399 m 19.85555,2e-5 c -1.0599,-1.43834 -1.91132,-3.2579 -2.58123,-4.76533 -0.76207,-1.71513 0.0556,-4.47107 -1.787,-5.82443 -3.48465,-2.55898 -6.62992,-0.0761 -8.93499,2.38285 -1.62875,1.7375 -0.9626,2.96185 -0.3308,5.03 0.53928,1.76595 1.76597,2.77501 3.70623,3.04465 3.09827,0.43007 5.80217,-2.93248 7.34453,-4.77348 m 8.93702,-10.97869 0.19855,6.94943 0.19855,5.75809 m 2.54157,-6.15523 c 0.50354,0.27242 2.51129,2.55941 3.41509,3.37547 2.66424,2.4053 6.05992,3.62562 9.13356,5.16245 m 121.11878,-15.09021 3.04582,10.32487 0.72673,3.34227 c 0.7012,3.22488 1.81876,6.2817 3.37545,9.76237 m -62.74351,-23.0324 c 0,4.87294 -0.45667,9.6065 0,14.29598 0.11913,1.24415 -0.0794,3.42032 1.19133,4.16967 2.51767,1.4848 8.62921,-0.1374 11.11909,-0.59567 M 306.39806,136.42778 c -1.14764,0.57383 -4.58794,1.61768 -4.37035,3.00439 0.25971,1.65079 2.75874,1.86285 4.03743,2.44899 2.51451,1.15241 5.79663,2.5014 7.34656,5.09612 1.96013,3.28172 -2.28816,7.11821 -5.361,7.5451 -3.61608,0.50235 -6.00273,-1.85569 -8.73641,-3.57399 m 50.61208,-9.00459 c 2.36041,0 13.96764,-2.31545 16.89671,-3.70296 m 28.59197,0.39711 c -1.34263,-0.45945 -6.51093,0.68106 -6.13311,2.69257 0.63424,3.3768 7.43566,3.72274 10.50134,6.83807 0.94911,0.96339 1.65992,2.27306 1.58844,3.574 -0.18267,3.2579 -3.18878,4.29356 -5.95667,4.83165 -1.98553,0.38599 -3.45325,0.2331 -5.16242,0.7279 M 228.62857,138.63795 c 1.03289,2.80321 2.00462,5.59331 3.11057,8.33933 0.51069,1.26797 0.43841,2.75277 1.65476,3.2432 1.2092,0.48766 1.76436,-0.71361 2.05187,-1.65476 0.56549,-1.85053 1.28124,-3.55944 1.32357,-5.16244 0.0207,-0.78523 0.11648,-2.26541 0.25069,-2.0477 1.78748,2.89975 3.73154,10.25122 7.49297,9.98992 5.17555,-0.35939 2.38266,-9.32615 2.38266,-12.31044 m 7.148,6.75089 c -0.46581,-1.10596 -0.73466,-2.10509 -0.19856,-3.17689 0.90979,-1.81916 6.55233,-5.34908 7.47879,-1.58844 0.70051,2.84212 -5.71482,4.10612 -7.28023,4.76533 m 221.98488,-5.95666 2.38267,0.79422 m 44.87352,-0.79422 c 1.90217,3.14233 1.91805,6.569 2.38267,9.92776 0.14692,1.06665 1.48565,4.87114 1.04089,5.7841 m -0.30885,-3.06048 c -0.71879,1.47844 -3.7739,3.62817 -5.49737,4.4907 -1.37003,0.68462 -4.97581,1.3879 -6.28627,0.52934 -0.63537,-0.41498 -0.85776,-1.07021 -1.32634,-1.787 -0.73068,-1.12064 -0.91337,-1.88428 -0.6592,-3.17688 1.11586,-5.75572 8.98147,-5.55955 12.52369,-5.55955 m -207.96969,-6.75088 8.72019,-0.11231 m 44.91784,5.88242 c 1.7302,-0.91058 2.78504,-1.51589 4.73725,-2.72549 0.73743,-0.45707 2.07053,-1.25089 1.72067,-2.25042 -0.54483,-1.55745 -3.41674,-0.65323 -4.50047,-0.0663 -1.89343,1.02574 -2.67423,3.11642 -1.98553,5.0302 0.79953,2.22174 1.47368,4.39243 3.9711,6.02296 1.50265,0.98087 3.80472,0.52935 5.55956,0.52935 m -91.73258,-11.78109 c 1.85094,-0.64252 3.67844,0.30935 5.16244,1.25765 3.35757,2.1452 3.74912,7.12497 -0.79422,8.00854 -0.83353,0.16202 -5.25715,0.16913 -6.0756,0.19176 m 1.70738,-9.45795 c -2.84807,0.98921 -3.14048,6.43122 -1.83658,9.38847 l 2.6308,5.96662 m -19.88577,-8.82668 c 0.66795,-1.94783 6.81845,0.17244 6.97968,-3.48376 0.0878,-1.98992 -2.8457,-0.94155 -3.77256,-0.52935 -1.81916,0.80852 -2.29979,1.74898 -2.93729,3.15371 -0.809,1.78264 -0.1145,5.78804 1.34885,6.50919 2.82783,1.39346 7.30088,0.39711 9.92777,0.39711 m 228.33866,-9.13355 c -0.3813,4.1676 -5.77392,4.84475 -8.29955,4.84475 m -247.04264,-3.2563 c 0.86808,4.71251 5.13464,5.55955 9.92777,5.55955 m 191.01024,-5.55955 c 0,0 1.2323,3.05939 1.6679,4.64618 0.33193,1.20916 0.71476,3.69314 0.71476,3.69314 m -0.59564,-3.53431 c 0.66723,-2.90959 0.0236,-4.71049 2.5812,-4.80501 3.29012,-0.12159 4.11804,3.88178 4.76533,7.5451 m 21.44398,-6.75088 c 0,0 4.15199,1.95556 6.35369,2.56133 1.29155,0.35535 3.9712,0.61557 3.9712,0.61557 m -32.5631,0.3971 c 0.94514,-0.96935 1.4058,-3.40598 2.97836,-3.49454 3.46677,-0.19538 6.69526,6.39861 8.53786,8.65698 m -27.40064,-7.54511 1.58843,6.75088 m 63.53774,0.79423 c -1.8426,1.45422 -5.36894,2.32746 -8.33932,0.26487 -2.31518,-1.60671 -2.94719,-4.29254 -3.01802,-6.49951 -0.0487,-1.51768 0.77432,-2.46725 1.82669,-3.69314 1.55269,-1.80526 4.29275,-2.43786 6.35376,-1.19133 m -28.98908,7.94222 2.38267,5.16244 m -278.77174,7.94223 c 0.72473,3.93299 2.65827,10.48055 2.77978,15.09021 m 2.38267,-15.09021 c 1.85649,0 11.78108,-1.05869 11.78108,2.77978 0,2.01732 -3.38137,2.7051 -4.8316,3.45488 2.04631,1.66278 7.32823,3.39171 7.74361,7.66422 0.54405,5.59688 -7.32073,4.02114 -9.53066,1.98555 m 192.75751,-3.41504 c 0.52814,1.28942 1.16753,3.25739 2.22385,4.20926 2.56136,2.31317 6.76677,7.07533 9.92776,5.16245 M 254.04366,167.62704 c 2.70909,4.28919 5.16244,9.82531 5.16244,15.09021 m 160.43273,-15.09021 c 5.71839,1.65476 14.89561,3.69511 16.94471,10.72199 1.46533,5.03179 -8.60538,9.92777 -8.60538,9.92777 0,0 -2.09065,-3.99524 -3.1769,-6.75089 -1.69563,-4.30154 -5.16243,-13.89887 -5.16243,-13.89887 m -180.68538,0.66198 c 2.31101,-0.40552 4.0098,0.0336 5.16244,0.19856 0.76126,0.13501 2.95331,2.48988 3.574,3.11057 2.52443,2.52443 5.03099,6.54438 0.39711,8.60419 -3.13876,1.39505 -8.12489,1.35852 -10.12633,-1.85331 -1.12144,-1.79971 -1.4427,-9.1816 0.99278,-10.06001 m -10.72199,0.92646 c 2.80321,3.55057 2.71981,8.39532 4.36822,12.31043 m 110.79389,-11.91332 c 0.40544,1.92639 1.22881,3.8673 1.64352,6.5664 0.51394,3.34492 1.69458,9.81641 3.916,12.09781 m 115.19817,-18.43959 -6.78693,4.1436 c -4.97542,3.03762 12.69564,5.25775 14.16494,12.31043 0.59567,2.86039 -2.27544,4.90313 -4.63428,5.49324 -4.25702,1.06465 -7.06061,0.15447 -10.32486,-3.11057 m -242.63466,-17.47288 2.3037,0.28281 m 255.02405,1.70275 c 5.61513,1.1818 12.60825,0.44397 17.86998,2.38266 m 3.1769,-1.19133 c 0.82994,0 1.58447,0.13224 2.38266,0.13224 0.81011,0 1.24295,-0.0496 1.98553,-0.13224 3.54225,-0.39354 8.34728,-1.10436 11.91336,0.39711 m -13.89889,-0.15883 c 0,4.50085 1.08012,10.18667 1.98553,14.85193 0.30183,1.55866 0.69893,4.865 1.3899,5.95666 0.66715,1.0579 1.27077,1.19133 2.58123,1.19133 1.07616,0 1.6877,-0.29108 2.77977,-0.39711 2.25161,-0.21881 4.28879,-0.39711 6.75089,-0.39711 M 304.0796,185.89413 c -0.5643,-1.94981 -1.50903,-4.04735 -1.58846,-5.95666 -0.0349,-0.84068 -0.52057,-3.89193 -0.0794,-4.72547 m -0.15883,2.42219 c 1.89541,-3.57995 4.89232,-2.12955 6.67175,-0.39695 m 5.22912,4.35499 c 0.37446,-0.64606 2.22305,-0.0718 2.82587,-0.23065 1.14844,-0.3034 3.16293,-1.69764 2.85213,-3.01255 -0.68529,-2.89929 -5.12657,-0.87786 -6.18236,-0.031 -0.93621,0.75093 1.17757,5.39557 1.61559,5.98766 1.92716,2.60743 4.37496,2.37194 7.08167,1.58844 m 35.34286,-8.93499 c 0.90104,-0.48527 1.88627,-0.0373 2.77977,0.39711 2.66182,1.29379 5.51149,2.96642 6.61865,6.15522 1.24653,3.59067 -3.73006,4.8102 -6.22155,5.29467 -2.1301,0.41419 -4.97739,-0.87006 -5.82442,-3.30912 -0.50313,-1.44985 0.0549,-2.56745 -0.0329,-4.07039 -0.10952,-1.87442 1.35098,-3.7515 2.6805,-4.46749 z m -3.25911,3.36144 c -0.69972,-0.83592 -4.58066,-1.37753 -5.87444,-1.75479 -1.34025,-0.39115 -6.45594,-0.70838 -7.60915,0.0199 m -12.2464,11.27953 c 2.16307,0.68303 3.8917,1.61703 5.95666,1.58844 2.97952,-0.0413 8.57164,-2.31833 4.76533,-5.95666 -2.773,-2.65071 -6.82157,-3.97309 -10.32486,-4.89757 -0.85499,-0.22595 -1.93195,-0.56548 -2.1178,-1.4562 -0.31013,-1.48361 2.30761,-1.72783 3.70623,-1.98556 m 148.00567,-3.21197 c 0.97893,2.15909 1.99101,8.86882 2.10219,11.5513 0.11914,2.87349 0.79424,6.10677 0.79424,9.13355 M 370.03407,181.3534 c 0.0842,-0.86649 1.28113,-1.96476 1.7529,-2.60728 0.73743,-1.00429 1.74491,-1.27632 2.97833,-0.7279 3.77971,1.67977 5.67988,5.36377 7.94222,8.67011 m 20.02803,-9.13354 4.39427,0.0332 c 2.9377,0.0222 6.17508,-1.72563 5.6906,-4.40136 -0.62346,-3.4632 -7.9581,-9.82651 -10.05881,-5.16244 -1.01862,2.97458 -0.66169,6.17011 -0.0675,9.53066 0.4034,3.06416 0.88356,6.5654 1.06029,9.92776 m -34.94574,-9.13356 1.18231,2.92016 c 0.5081,1.25493 1.16541,4.32314 1.59745,5.81628 m 179.49406,-7.94222 c 2.2834,4.56677 2.90686,10.62907 3.1769,15.48732 0.12309,2.19443 0.84189,4.14385 1.98556,5.95666 m 2.38267,-20.25265 c 3.34764,5.29984 3.67326,13.32346 7.14799,19.06132 m -274.80063,-13.50177 -0.25809,-7.7833 c -0.13075,-3.94333 -0.93324,-6.56433 -0.93324,-9.68959 0,-0.7561 -0.30062,-2.41721 0.19855,-3.11057 1.82909,-2.54071 11.93406,0.78929 10.85422,3.50768 -2.09399,5.27141 -8.32794,7.11256 -10.09966,9.13379 m 312.76435,19.85532 c 1.23503,1.73854 2.43827,3.02042 4.36823,3.90479 1.30251,0.59685 2.4621,0.52617 3.9711,0.46342 2.11661,-0.0881 5.07111,-2.14519 5.16246,-4.36821 0.0675,-1.65675 -1.52491,-3.91988 -2.7798,-5.09613 -2.39458,-2.24765 -5.62309,-4.05648 -8.73642,-4.96388 -0.81011,-0.23668 -2.12853,0.054 -2.58123,-0.7283 -0.35341,-0.60798 0.15091,-1.73617 0.26608,-2.31635 0.81011,-4.17006 4.3682,-2.64039 7.47758,-1.98555 m -36.53417,-0.26488 c 1.787,-0.42213 3.00215,1.97285 3.97109,3.04465 2.60506,2.8862 7.07652,10.50795 0.39711,12.1782 -5.59527,1.39902 -8.75231,-6.22948 -7.47758,-10.58975 0.48049,-1.64881 1.04837,-4.14624 3.10938,-4.6331 m -78.46889,2.40926 14.53405,0.63539 m 114.43541,0.99278 c 1.48917,-1.0726 3.574,0.80574 5.09491,1.58844 4.23718,2.17696 7.05269,8.99377 2.38267,12.37675 -3.97905,2.88422 -10.52739,-1.17386 -10.72199,-5.82442 -0.10722,-2.52801 1.40577,-3.62483 2.45018,-5.55955 0.38519,-0.72076 0.17075,-2.13447 0.79423,-2.58122 m 20.18513,0.59567 c 4.74546,-1.37321 7.88266,2.58121 8.86747,6.75088 0.53214,2.2401 -0.28988,5.21644 -1.38987,7.5451 -0.46462,0.98484 -0.67509,1.56263 -1.52094,2.18411 -1.02851,0.75411 -1.74331,1.17624 -2.77977,1.52213 -1.6242,0.54205 -5.16245,-1.24693 -5.16245,-3.30913 0,-2.1984 3.05776,-0.86729 3.97112,-0.39711 1.32634,0.68264 4.60642,2.74005 4.60642,2.74005 0,0 3.1134,1.23104 5.32132,1.23104 m 1.19135,-17.47286 c 5.16243,1.08729 11.83788,3.82061 17.47289,4.36822 1.67977,0.16322 3.1332,-0.0826 4.36819,0.79423 -1.85448,3.71179 -5.44835,10.226 -8.73642,13.89887 m -84.18749,-16.28154 7.94223,0.39711 m -390.29967,1.44605 c 2.4301,-1.13352 6.24062,0.52913 7.86997,1.35383 11.328,5.73373 0.78695,25.82951 -5.92467,19.338 0,0 -2.65835,-14.05361 -1.9453,-20.69183 z m 31.70867,7.6875 4.89757,11.91332 2.25043,6.35377 m 1.19133,-17.07576 c 3.32977,4.21771 4.24035,11.28073 7.14799,15.88443 m -15.88445,-1.19135 -4.28504,-8.34529 c -0.78836,-1.53537 -2.02663,-2.3767 -3.26006,-2.3767 -1.98397,0 -4.77526,1.2644 -5.75811,3.17689 -1.94465,3.78406 1.45065,8.08835 5.361,7.5451 2.31317,-0.32126 3.57119,-4.1969 5.04209,-5.70791 m 76.7627,16.82701 c 0,-4.50522 0.76167,-9.08232 1.19133,-13.50177 0.23231,-2.38941 -0.24236,-4.26599 -0.40727,-6.49014 m -47.53481,8.08261 c -2.64953,1.46415 -6.85243,3.88925 -7.91827,-1.59247 -0.56231,-2.89136 0.72512,-6.15799 3.83887,-6.28745 1.31046,-0.0548 2.86912,-0.5361 3.77255,0.79422 0.73307,1.07935 -0.31769,3.08952 -0.13224,4.3019 0.13899,0.91018 0.12986,1.98039 0.52935,2.77978 0.61751,1.23541 1.68137,2.35288 2.58122,3.574 m 13.08842,-15.55942 c 0,0 -6.90913,3.27543 -4.72899,4.84163 2.50061,1.79613 12.98249,8.93992 9.77543,13.03413 -3.14194,4.01082 -9.32853,-0.23469 -12.97242,-0.33079 m 32.96016,-11.91333 c 1.82435,-0.91216 6.22235,-1.7549 6.22235,-1.7549 0,0 1.46493,-0.19451 2.11698,-0.23065 2.29611,-0.12747 5.31415,-0.5087 7.14799,0.79422 m 3.97113,0 2.38266,4.36822 4.76533,7.94222 c 2.61179,-2.6118 4.8626,-7.32431 7.5451,-10.72199 m 24.62087,-1.58845 10.32486,2.38267 6.55233,0.86054 -0.13224,3.50768 -3.24319,10.72199 m 10.32489,0.79422 c 3.26544,1.63292 6.00628,3.77612 9.92776,3.17688 3.76064,-0.57422 2.91876,-5.75095 1.45738,-7.94221 -1.16551,-1.74649 -3.22612,-3.71219 -5.03138,-4.76533 -1.34898,-0.78707 -3.53864,-0.81924 -4.03743,-2.38266 -1.32714,-4.16252 4.59774,-3.6431 6.42009,-2.77978 m 17.63148,18.34641 c 0,0 -6.61961,-4.70526 -8.89505,-3.45476 -1.54078,0.84783 0.02,2.5709 1.19133,2.91202 1.26681,0.36971 3.30784,-0.14616 4.42775,-0.88676 1.07621,-0.438 1.34625,-1.1536 1.92604,-1.8267 2.66064,-3.08952 5.73031,-9.0855 1.19134,-12.1782 -1.82274,-1.24057 -4.15775,-0.0663 -5.95666,0.26488 m -76.24527,5.55955 1.65476,3.17688 4.3019,5.55955 m 87.36436,-8.73643 c 0,2.99262 -1.38591,5.43684 1.58843,7.21431 0.81011,0.48368 1.41372,0.68739 2.38266,0.7279 0.95307,0.0397 6.85905,-0.42957 7.45076,-1.24961 m -104.68331,-6.77193 c -2.2151,2.21508 -3.93061,5.94108 -5.22202,9.21287 m 115.95636,-6.61864 c 3.86784,-0.98047 10.9126,2.36559 12.77504,5.82442 1.85053,3.43858 -1.07616,6.02854 -4.03861,7.01576 -3.68917,1.22945 -8.54582,-0.30935 -10.12633,-4.23598 -0.96498,-2.39498 -1.67978,-7.82547 1.3899,-8.6042 m -147.32808,3.83887 -5.55955,11.51621 m 146.93097,-3.574 c -1.34621,-1.82552 -2.135,-5.5125 -2.135,-5.5125 -1.14857,-2.26728 -1.80756,-4.75152 -1.83613,-7.19504"
       id="path177"
       sodipodi:nodetypes="cccccccccscsscccccccccccccccccccccccscccscsccccscccccscsccscccccccccccccccccccccscccccccsscccccccccccccccccccccssccsccccccccccccccccccccccccccccccccccccccsssccccccccccccsscccccscsscccccccccccccccsssccccccccccccccccscccccccccsccccccccccccccccccccccsscccccsccscccccccccsccccccccccscccsccccscccccccccccccccsccsccccccccsccccccccsccccscccccccscccccccccccscccccccccsccccsccsccsccsscccccccccccccccccccccccscccccccsccscscccccccsccsccsccccccccscccccccscccccccccccscccscsccccsccsccccccccscccccscccccccccsscccccscssccccssccccscccccccscccccsscccccssssccsscccccccccccccccccccccccssscccsccccccsccccccccscsscsccccsccccccccccccccccccccccccccccccccccccccccccccscccccccc" />
  </g>
</svg>
