<?xml version="1.0" encoding="UTF-8" standalone="no"?>
<!-- Created with Inkscape (http://www.inkscape.org/) -->

<svg
   width="3000"
   height="1998.207"
   viewBox="0 0 793.74998 528.69227"
   version="1.1"
   id="svg5"
   xml:space="preserve"
   inkscape:version="1.2.1 (9c6d41e410, 2022-07-14)"
   sodipodi:docname="JoshW - Stake - Envelope24.svg"
   xmlns:inkscape="http://www.inkscape.org/namespaces/inkscape"
   xmlns:sodipodi="http://sodipodi.sourceforge.net/DTD/sodipodi-0.dtd"
   xmlns="http://www.w3.org/2000/svg"
   xmlns:svg="http://www.w3.org/2000/svg"><sodipodi:namedview
     id="namedview7"
     pagecolor="#ffffff"
     bordercolor="#000000"
     borderopacity="0.25"
     inkscape:showpageshadow="2"
     inkscape:pageopacity="0.0"
     inkscape:pagecheckerboard="0"
     inkscape:deskcolor="#d1d1d1"
     inkscape:document-units="px"
     showgrid="false"
     inkscape:zoom="1.3228492"
     inkscape:cx="387.79931"
     inkscape:cy="126.62063"
     inkscape:window-width="1280"
     inkscape:window-height="658"
     inkscape:window-x="-6"
     inkscape:window-y="-6"
     inkscape:window-maximized="1"
     inkscape:current-layer="layer1" /><defs
     id="defs2" /><g
     inkscape:label="Layer 1"
     inkscape:groupmode="layer"
     id="layer1"><path
       style="fill:none;stroke:#9a93a9;stroke-width:0.105344"
       d="M 52.173667,6.2454741 C 51.28172,6.3158965 50.175927,7.0437915 49.224039,6.3332573 48.351371,5.6818525 48.267201,4.5597187 48.556894,3.6118763 48.786441,2.8605211 49.421873,2.139379 49.961446,1.9263735 L 50.06679,2.8744687 M 66.184406,1.9263735 c 0.174241,0.8278451 0.49633,1.6483136 0.684856,2.3391564 0,0 -0.522829,-0.1501266 -0.790197,-0.1971668 -0.278167,-0.04894 -0.576753,0.00716 -0.842754,-0.087783 M 63.864678,3.2188405 C 63.245096,2.8201242 63.234779,2.6637811 63.234779,2.6637811 m -24.439787,-0.5267197 1.05344,2.8442858 c 0.290538,-0.076459 0.483949,-0.3532815 0.84275,-0.2984708 0.941144,0.1437942 1.878492,1.6581448 2.633597,2.1946613 M 29.84076,7.5096013 c -0.40568,0.1281087 -0.695902,0.3160316 -1.158781,0.3160316 -1.20366,0 -1.685504,-1.2857013 -1.685504,-2.3175661 0,-0.9606313 0.407155,-1.8257367 0.930504,-2.6335981 0.138105,-0.2131843 0.29075,-0.4495339 0.544311,-0.4038148 0.384401,0.069306 0.272997,0.2077015 0.327064,0.5293271 M 7.5289678,4.8445659 C 7.6869429,4.8449242 8.1838135,4.9591448 8.3297246,4.975357 M 61.127899,2.979813 61.651854,4.7665817 c 0.269737,0.9198462 0.568974,1.7608771 1.05619,2.5323316 M 61.683653,4.8155315 c -1.249694,0 -4.475057,0.2110451 -3.452709,2.0093345 0.217486,0.3825569 0.657871,0.4073226 1.106109,0.5442801 1.136873,0.3473717 2.076672,-0.9089784 2.681348,-1.5136103 m -3.967045,0.946521 c -0.803881,0.021163 -1.495698,0.046775 -2.050227,-0.7672701 -0.133892,-0.1965719 -0.140426,-0.4235776 -0.140426,-0.6320636 0,-0.4759859 0.245343,-1.0272729 0.621742,-1.2127587 0.621419,-0.3062281 0.492716,-0.4230335 1.411231,-0.093601 0.642674,0.230501 -1.489641,0.9246482 -1.908171,0.7484393 M 71.451602,3.5065326 c 0,0 -0.715789,0.1994966 -1.05344,0.3511428 -0.29499,0.1324873 -0.840687,0.4841429 -0.840687,0.4841429 0.662108,0.6293391 2.668197,1.1120494 3.17585,2.219688 0.677995,1.4793654 -0.474889,2.0015342 -1.387064,2.0015342 M 53.437796,6.4561624 C 53.205054,5.964791 52.907964,5.0103727 53.004521,4.4681843 m -0.01493,0.3583534 c 0.04474,-0.2512085 0.188911,-0.5025776 0.448209,-0.7055026 0.293369,-0.2295899 0.553792,-0.4366819 0.948095,-0.4038148 0.58729,0.048932 1.134447,0.2725249 1.685501,0.3160319 M 33.069706,5.7029176 C 32.991016,5.7883727 32.733823,6.01435 32.64997,6.1401304 32.326247,6.6256289 32.027491,7.2145543 31.315578,7.1057868 29.964228,6.899323 30.231483,4.1796169 31.736953,4.0332522 c 1.557931,-0.1514739 0.943882,1.8273905 1.89619,2.616037 0.38398,0.3179595 0.825055,0.1668755 1.158785,0.017561 m 32.077337,-2.4013198 0.157898,1.031849 0.526717,2.0015344 M 18.779418,5.8663313 C 19.545267,5.543863 21.826581,4.8008681 20.886531,4.3492839 19.857452,3.8549327 18.542338,4.7245296 18.779418,5.866331 c 0.208763,1.0054252 0.575519,1.9673922 1.791082,2.1699896 0.532725,0.088795 1.043326,-0.093988 1.474815,-0.1053437 M 36.042816,3.9602435 c -0.206081,0.026595 -0.433117,0.2484475 -0.649008,0.3605116 -0.105774,0.054904 0.448245,0.2345435 0.556901,0.2918888 0.589082,0.3108988 2.000586,0.5050923 2.282488,1.3167988 0.27484,0.7915437 -0.444237,1.3600321 -1.123703,1.3694709 -0.558326,0.00775 -0.984231,-0.019099 -1.474816,-0.3160316 M 66.868552,4.2542611 c 0.468466,0.086298 1.366272,0.2003668 2.054801,0.2003668 m -29.074936,0.5267196 -0.0075,1.5926176 M 63.866825,5.6134105 c 0,0.7033708 0.558113,2.1389769 1.158785,2.3175664 M 1.8192816,10.248543 c 0.6282392,0.198362 2.748195,0.378826 3.0216586,1.27741 0.1857729,0.610363 -0.5522245,0.828109 -0.9305338,1.035847 -0.1722697,0.0947 -0.7270592,0.153434 -0.7270592,0.153434 0,0 2.7920464,1.001757 2.6038905,2.695161 -0.164873,1.483769 -2.1397239,1.32628 -2.493141,0.105344 m 46.8257213,-4.318864 0.05232,0.421139 c 0.401568,-0.253668 0.647547,-0.748574 1.264126,-0.842751 0.60636,-0.0926 2.106876,0.480157 2.106876,1.264126 0,1.132448 -2.317249,0.78713 -2.949627,1.05344 0,0 0.11685,0.437737 0.22828,0.632063 0.159161,0.27756 0.387214,0.512183 0.614471,0.737408 0.708957,0.702619 2.317565,1.89619 2.317565,1.89619 M 35.473338,14.064969 c -0.287791,0.04704 -1.099304,-0.125408 -1.099304,-0.125408 0,0 0.09903,-1.848036 0.323308,-2.305791 0.624056,-0.430967 2.035332,-0.176721 2.728179,0.335355 0.719078,0.531566 0.690109,1.65095 -0.105344,2.054206 -0.454032,0.230282 -0.889735,0.01085 -1.369471,0.01759 -0.159175,0.0022 -0.482173,0.02778 -0.482173,0.02778 0,0 0.209017,0.637468 0.376829,0.79738 0.445183,0.424431 1.420142,1.186699 1.89619,1.351984 0.620054,0.215218 0.746574,-0.112613 1.264129,-0.105344 M 12.248329,12.039388 c 0.115139,-0.397568 0.34026,-0.680943 0.842751,-0.632063 0.647759,0.063 1.067764,0.629008 1.36947,1.158783 0.594458,1.043853 0.141373,2.868936 -0.421375,3.581693 l 1.05344,0.737407 m 35.07952,-5.267195 -0.105345,0.948095 0.01759,0.632064 -0.122935,2.949629 M 7.9292283,11.828702 c -0.6612659,0.717918 -1.6321871,2.604839 -1.1061121,3.687037 0.3042982,0.625953 1.5743636,0.757008 2.1575034,0.530059 0.4380976,-0.1705 2.5348304,-1.125674 1.3715194,-1.741514 -0.4278018,-0.22649 -1.0941023,0.115035 -1.3519095,0.474048 -0.3774076,0.525349 -0.3886952,0.765685 -0.4598187,1.339433 m 7.7109852,1.18882 c 0.992974,0.02613 3.041702,0.46562 4.00307,-0.526719 0.678837,-0.700748 0.1459,-1.563304 -0.421375,-2.106878 -1.035849,-0.992656 -1.915681,-1.390435 -2.94963,-0.737408 -0.158543,-0.261885 -0.247768,-0.412737 -0.175608,-0.737407 0.10271,-0.462039 0.243659,-1.306792 0.807672,-1.369471 0.547471,-0.06078 1.139082,0.30634 1.685502,0.421375 m 9.902327,2.317567 c -0.617737,-0.438863 -1.669489,0.181507 -2.317566,0.298439 -0.186985,0.03382 -0.43349,0.123674 -0.614473,-0.01749 -0.0031,-0.322637 -0.06257,-0.480368 -0.158014,-0.807672 -0.111349,-0.381555 -0.479106,-0.954732 -0.22828,-1.351878 0.168232,-0.266415 0.8812,-0.374709 1.211454,-0.438968 0.799875,-0.155593 1.59217,-0.421376 2.42291,-0.421376 m 34.647941,2.017609 c -0.164757,0.279266 -0.522417,0.05514 -0.832547,0.106862 -0.47784,0.07964 -1.100003,0.315294 -1.474815,0.632063 -0.400625,0.33847 -0.667459,0.893949 -0.737409,1.351879 -0.03076,0.201312 -0.131363,0.307499 -0.140423,0.526719 -0.0099,0.237972 0.169499,0.481001 0.351112,0.614471 0.499119,0.367019 1.374,0.06879 1.790846,-0.316031 0.499961,-0.461512 0.783144,-0.449865 1.090748,-0.851436 m -0.432054,-3.913206 c 0.164865,0.391457 0.493338,1.382248 0.381726,1.917069 -0.14231,0.681262 0.04598,1.567018 0.03167,2.130575 l -0.01866,0.73459 m 12.219893,-4.635132 c 0,0 0.216458,0.978252 0.210686,1.474815 -0.0024,0.213579 -0.105341,0.632063 -0.105341,0.632063 l -0.105345,0.737407 -0.105345,2.422911 m -5.200005,-2.091948 c -0.197308,0 -0.440845,-0.0301 -0.804597,-0.01493 -0.348899,0.01454 -1.37134,0.29652 -1.472154,-0.150138 M 46.169065,12.776798 c -0.632062,1.000767 -1.232208,2.292995 -1.920946,3.265425 -0.216273,0.305286 -0.442866,0.514525 -0.659979,0.790316 -0.24798,0.314978 -0.376709,1.110219 -0.596983,1.527488 -0.811044,1.536756 -1.91231,2.983338 -3.142725,4.213756 m 44.139094,-8.954234 c 0.398413,-0.230598 0.691689,-0.566013 1.158785,-0.702328 0.660925,-0.192779 1.200497,0.319192 1.439734,0.913016 0.454557,1.128549 -0.188881,2.387093 -0.66725,3.371006 -0.157488,0.323932 -0.325407,0.663666 -0.561798,0.913016 -0.202155,0.213111 -0.306341,0.357431 -0.52672,0.561799 -0.429064,0.397988 -1.329438,0.873089 -1.89619,0.403784 -0.480895,-0.3982 -0.465197,-1.338501 0.210689,-1.544975 0.766586,-0.234285 1.880137,0.263689 2.309276,0.610737 0.3988,0.427742 0.603589,0.975637 1.37776,1.057174 M 50.087669,13.092829 h 0.505841 m -7.479417,0.421375 c -0.310342,0.736987 -0.607295,2.273213 -0.122885,2.738942 l 0.591772,0.568952 m -0.60931,-0.546554 c -0.551687,0.862871 -1.624393,-0.847016 -1.622264,-1.314549 0.0021,-0.490922 0.298344,-0.749291 0.02452,-1.236105 -0.274718,-0.488387 -1.248643,-0.576864 -1.632832,-0.29844 -0.775542,0.56201 -0.93297,1.848214 -0.740046,2.608906 0.04932,0.194457 0.433705,0.297217 0.634702,0.305539 0.376604,0.0157 0.820832,-0.477799 1.03288,-0.728105 0.128024,-0.151122 0.490552,-0.420582 0.657506,-0.612627 m 15.638686,1.23539 c -0.142319,0.1715 -0.299807,0.163494 -0.474047,0.245873 -0.379134,0.178979 -0.819997,0.452031 -1.264126,0.158016 -0.531883,-0.35206 -0.953351,-1.118176 -0.77616,-1.725905 0.06352,-0.217745 0.136818,-0.551237 0.201076,-0.752338 0.0012,-0.269287 0.694833,-0.641692 0.888642,-0.542475 0,0 0.70678,0.336692 1.161257,0.65048 0.27277,0.188331 0.599704,0.322397 0.558035,0.767385 -0.05267,0.562537 0.03895,0.797182 -0.294677,1.198964 z m 32.919969,-2.510661 c 1.02921,-0.189619 2.679738,-0.154434 3.458759,0.842751 0.347003,0.44413 -0.497525,1.216615 -0.497525,1.216615 0,0 1.260424,0.8555 1.463212,1.416983 0.649022,1.797274 -1.60892,2.188522 -2.738942,1.474815 m -19.106,-2.742923 c 0.321833,0.0171 0.798284,0.110167 1.092194,0.004 0.480787,-0.173607 1.175638,-0.939878 1.123703,-1.474815 -0.07363,-0.757212 -1.001717,-0.726241 -1.439737,-0.403783 -0.624596,0.459721 -0.48071,1.178285 -0.711576,1.723149 -0.226354,0.534213 -0.126645,1.66587 -0.236519,2.262326 m 3.160319,-4.003068 0.948096,0.193096 0.632061,-0.08775 2.001535,-0.210688 m -44.665815,0 0.105342,2.212223 M 88.30663,13.935579 c 0.459299,1.246535 0.44255,3.147361 0.842751,4.529788 m 7.374073,-4.003068 c -0.290434,1.003296 0.395455,2.594566 0.62932,3.7169 0.109346,0.525245 0.42412,1.30474 0.42412,1.760985 M 26.174603,14.840969 c -0.03251,0.573844 0.153358,2.03929 0.400496,2.57096 0.530513,1.141401 2.466206,-0.463724 3.265661,-0.632063 m 38.239837,-0.52672 c 0.195519,-0.436966 0.296268,-0.478476 0.524725,-0.858507 0.140306,-0.233393 0.273141,-0.619257 0.40577,-0.826995 0.356588,-0.558113 0.73846,-1.6539 1.28172,-2.071799 0.188881,-0.145269 0.42443,-0.265783 0.632061,-0.122831 0.377342,0.259778 0.21069,0.847386 0.21069,1.351878 0,0.59256 -0.140423,1.108113 -0.140423,1.580159 0,0.236813 0.03508,0.399464 0.03508,0.632063 0,0.350058 -0.0394,0.800825 -0.105345,1.158784 M 14.057838,16.144894 c -0.113983,0.144426 -0.223768,0.442719 -0.369775,0.61738 -0.249768,0.298755 -0.630798,0.498171 -1.018359,0.438968 -0.402834,-0.06152 -0.926395,-0.54031 -0.825159,-1.05344 0.143268,-0.726662 1.083567,-0.495643 1.562566,-0.316032 0.287799,0.107873 0.424925,0.188557 0.635797,0.32059 m 78.266786,-0.425933 0.542084,0.05807 m -33.093349,0.04727 c -0.426115,0.578233 -0.78144,1.404762 -1.790846,1.474815 -0.667459,0.04635 -0.788224,-1.815865 -0.576135,-2.32844 0.214658,-0.51878 0.174211,-0.85011 1.366219,-1.095237 1.192005,-0.245128 0.599089,1.213351 0.948092,1.843518 0.252931,0.456561 0.486479,0.466674 1.000768,0.737407 m 4.529784,1.580159 c -0.01759,0.667776 -0.206261,2.203482 -0.526717,2.844287 M 2.9772418,22.28679 c 0,-0.444554 -0.8415383,-3.467256 0.5275411,-3.048934 0.7137171,0.218061 1.6004802,1.399075 1.2114566,2.177143 -0.4158779,0.831797 -1.1038575,0.84275 -1.7381735,0.84275 l 0.3160307,2.6336 m 2.6335965,-5.267196 c 0.018574,0.705595 0.2008379,1.292676 0.2106892,2.001535 0.00269,0.197308 -0.0338,0.525328 0.00337,0.728027 0.1263848,0.689278 -0.034573,1.16438 0.1019643,1.905578 M 6.1873728,22.55549 c 0.1860685,-0.258512 0.5405934,-0.425992 0.7834312,-0.345889 0.7936737,0.2618 1.5396231,0.886274 1.6958244,1.628317 M 45.361389,20.993632 c -0.08259,-0.186035 -0.270104,-0.408627 -0.228176,-0.632064 0.03898,-0.207948 0.209528,-0.244922 0.403784,-0.316031 0.324562,-0.118827 1.56204,-0.296964 1.738174,0.01759 0.123148,0.219959 -0.111876,0.414003 -0.263359,0.544207 -0.473734,0.407156 -0.857227,0.776181 -1.252931,1.127027 -0.705523,0.709752 -1.331579,3.034481 0.410175,2.840965 0.933346,-0.10366 0.78871,-1.104532 0.474047,-1.685504 -0.253244,-0.467517 -0.540345,-0.83192 -0.873436,-1.162514 -0.150214,-0.185958 -0.313259,-0.519825 -0.408278,-0.733674 z m 3.441269,2.949628 c 0.370071,0.360276 1.619451,0.848334 2.071799,0.403784 0.178663,-0.175608 0.398158,-0.378925 0.403425,-0.719815 0.0077,-0.502177 -0.126689,-0.676098 -0.263003,-1.05344 -0.09681,-0.268205 -0.260411,-0.717181 -0.52672,-0.913017 -0.415161,-0.305287 -1.027418,-0.219746 -1.36947,-0.561798 -0.822526,-0.822526 0.320035,-1.063763 0.948095,-0.948095 m -29.496293,0 1.05344,0.52672 m 3.265661,-0.52672 c 0.709913,0.870247 1.351351,1.916627 2.212221,2.528255 0.520189,-0.564751 0.627851,-1.361465 1.369471,-1.790849 m 8.006136,0 c 0.445921,0.269892 0.993392,0.157175 1.474815,0.210689 0.189407,0.02105 0.480579,0.08975 0.544311,0.316031 0.05836,0.207739 -0.09586,0.372919 -0.22828,0.52672 -0.338785,0.393353 -0.935559,0.814624 -1.229048,1.264126 -0.22596,0.346265 -0.315714,0.865191 -0.03508,1.141193 0.182455,0.179505 0.382502,0.296436 0.632064,0.403888 0.263042,0.113243 0.560956,0.193833 0.842751,0.245768 m -6.004602,-0.316034 0.98997,-1.271397 0.502436,-0.83548 0.846394,-1.564915 c 0.432708,0.53638 0.09643,2.006832 0.06652,2.723697 -0.01021,0.245874 0.01454,0.409156 0.01759,0.632064 0.0057,0.412949 -0.04414,0.803773 0.105345,1.158784 M 10.036099,21.362332 c 0.533041,-0.299807 1.364944,0.51703 1.685504,0.895423 0.219958,0.259569 0.220484,0.426643 0.280953,0.737409 0.120302,0.619001 -0.244925,1.23242 -0.807673,1.545079 -1.142032,0.634382 -1.5801594,-0.833798 -1.5801594,-1.650423 0,-0.222171 -0.00821,-0.409473 0.035081,-0.632065 0.05794,-0.297911 0.092597,-0.730242 0.3862944,-0.895423 m 46.351315,0.368706 c -0.05625,0.266939 -0.505966,1.11517 -0.368703,1.351877 0.177609,0.306341 0.99708,0.22017 1.316798,0.158017 0.662299,-0.128732 0.831887,-0.0298 1.374514,-0.0298 L 58.388949,21.941725 M 11.85838,22.373659 c 0.548315,-0.230914 0.76865,0.09394 1.338035,0.007 0.361223,-0.0552 1.401004,-0.267195 1.465797,-0.671836 0.131011,-0.818163 -1.260757,-0.333912 -1.446694,-0.05084 -0.378608,0.576403 -0.05733,1.446587 0.06236,1.677624 0.540898,1.044006 2.276477,1.01966 3.394883,0.607623 m 0.421372,-2.001544 0.263361,0.948095 0.368703,2.001535 m -0.421375,-2.10688 c 0.361647,-0.371441 0.58371,-0.984439 1.264126,-0.719814 1.099053,0.42738 1.709943,1.636729 2.42291,2.510663 m 30.79889,-1.917547 c 0.259885,-0.346582 0.82851,-0.870065 1.313409,-0.66338 0.403151,0.171816 1.063446,1.085568 1.071031,1.632832 0.01296,0.935348 -1.163795,1.811447 -1.970097,1.390705 -0.582235,-0.303812 -0.727289,-0.684919 -0.842751,-1.369474 -0.07343,-0.435317 0.265335,-0.773359 0.428408,-0.990683 z m 10.39058,-0.294668 c 0.23439,0.34258 0.373696,1.125865 0.51428,1.487014 0.279707,0.718533 0.53916,1.301115 0.53916,2.094672 M 28.652109,25.447921 c -0.552529,-0.699906 -1.072492,-2.276435 -1.561906,-2.758043 -0.256338,0.515148 -0.567044,1.819166 -1.04183,2.306804 m 34.76349,-2.317566 c 0,0.206156 -0.11198,0.535356 -0.03508,0.719815 0.221646,0.532196 2.064274,0.507593 2.728881,0.264759 m -41.460356,-0.879233 0.737406,2.212225 m 35.921799,-1.796365 c 0.126695,0.542182 0.163861,1.096037 0.421847,1.796365 M 33.326713,23.57418 c 0.41242,0 1.118391,0.240249 1.549671,0.274276 m -3.455471,1.358912 -1.053439,2.844285"
       id="path248"
       sodipodi:nodetypes="cscccccscccccsccssssccccsccssccssssccsccccccsscccssscccccsssccsscsccccccccsccscccsscssccccccscccccsscccccccssccccsccsccccccscccccscccccssccsccccscccscccccsccsccccccsccsssscsccccccsssccccccccccsccccccccccccccccscsssssccsscccccccszcccccssccccsccscccsssccscccsccsscccccccsccccsccccccccccccsscccsccccssscccccccccsssccscccccccccccccccc" /><path
       style="fill:none;stroke:#6c686f;stroke-width:0.0952921"
       d="m 6.8956213,2.4712206 c 0,0 0.1514153,0.2128079 0.1999233,0.332776 0.2587903,0.6400338 0.4671224,2.0177629 0.4671224,2.0177629 l 0.5717531,0.031769 1.5246713,0.095293 M 1.3686838,6.9499445 C 1.6910953,8.0637565 4.6112534,8.6392534 5.0691891,7.1405298 5.7600208,5.7365789 1.2178958,3.6932751 1.4163301,3.2494311 1.5309471,3.0324795 2.2643827,2.9436887 2.51219,2.8523884 m 12.292671,1.3340968 c 0,0.7447347 -0.216217,1.9960049 0.190583,2.6681775 m 3.144638,-2.6681775 c -0.840284,0.3538183 -1.798848,0.5745137 -2.693742,0.8109841 0.235182,0.3048295 1.960592,1.2063683 2.501471,1.4993531 0.215358,0.1166671 0.283274,0.2218191 0.478146,0.1196087 M 5.4662426,4.6629457 C 6.1521454,4.6449017 7.1045909,4.8485526 7.5728613,4.8253062 M 12.704709,6.1763476 C 12.207285,6.6606766 11.042923,7.5183805 10.326134,7.2993517 9.4221942,7.0231576 9.4322021,6.1019784 10.040259,5.4252813 c 0.428814,-0.4772033 1.50609,-0.7542942 2.001132,-0.6511681 0.162282,0.033819 0.329996,0.1488276 0.397083,0.3652929 0.04469,0.1442139 -0.03306,0.2488338 -0.01591,0.3811679 0.02631,0.203162 0.07652,0.2997701 0.17467,0.4764604 0.311031,0.5597355 0.530014,1.1435035 1.254709,1.1435035 M 7.5815564,4.8151119 c 0,0.5834627 0.6668999,1.8475987 1.0482109,2.4775922 M 14.761672,5.1396195 15.467131,4.9963591 M 121.52849,38.162071 c -0.26587,0.266435 -0.44679,-0.04895 -1.09242,0.04367 -0.72004,0.103299 -1.48274,0.721931 -1.57232,1.524671 -0.0314,0.279778 0.0152,0.418903 0.17439,0.603484 0.33638,0.389841 0.7218,0.401445 1.07904,0.186204 0.4354,-0.26234 0.55742,-0.346469 0.74321,-0.498978 0.15566,-0.127772 0.57956,-0.379247 0.57956,-0.379247 l 0.092,-0.769091 0.008,-0.583828 c 0.003,-0.217635 -0.008,-0.400822 -0.008,-0.559673 0,-0.235371 -0.0419,-0.324184 -0.0791,-0.571753 -0.0715,-0.466739 -0.1115,-0.775199 -0.1115,-1.334089 m -23.63242,0.381165 c -0.03049,1.161801 -0.285875,2.486552 -0.285875,3.811684 0,0.33314 -0.0829,0.933194 0.111492,1.12759 0.184867,0.18477 0.464073,0.111206 0.746137,0.111206 h 2.382296 m 11.91151,-5.05048 c 0.23823,0.822275 0.55174,1.852669 0.66704,2.477595 l -1.22076,-0.133496 M 71.313029,37.062231 c 0.07433,0.201736 0.471123,1.346477 0.508192,1.524674 0.03221,0.15466 0.01726,0.403999 0.159597,0.707529 0.202322,0.431437 0.498394,1.430373 0.6663,2.341746 m 15.056141,-4.288071 c -0.626833,0.379358 -1.609221,0.676838 -1.57806,0.729122 0.207794,0.09129 0.618659,0.21341 0.815722,0.319089 0.700778,0.375833 2.484072,1.707826 1.334088,2.541154 -0.340477,0.246711 -0.464261,0.304743 -0.952918,0.317609 m -8.671575,-3.716391 c -0.212025,0.732512 -0.465216,1.814647 -0.190585,2.76347 m 38.974439,-2.715824 c 0.26872,-0.13436 0.35084,-0.0914 0.58526,-0.08817 0.20678,0.0029 0.39451,-0.04726 0.47646,0.190586 0.0392,0.113501 0.0129,0.213275 -0.0468,0.299621 -0.10304,0.148973 -0.58732,0.248431 -0.72486,0.319013 -0.31447,0.161615 -1.01888,0.424911 -1.29809,0.327142 m 1.00808,-1.048195 c -0.53935,0.269487 -0.68758,0.803915 -0.75034,1.083556 -0.12395,0.552259 0.0719,2.164524 1.10657,2.296426 0.91712,0.116916 2.72193,-0.863709 2.93562,-1.156404 M 85.654097,39.524211 c -0.242977,0.597201 -0.771698,0.711996 -1.326865,0.772557 -0.364977,0.03981 -0.909354,-0.393629 -0.943408,-0.433504 -0.632875,-0.741077 -0.178562,-2.316309 1.241973,-1.972161 0.779974,0.188962 -0.9038,1.33931 -1.468119,1.458138 m -1.648402,1.238796 c -0.248999,-0.192109 -0.37545,-0.366873 -0.571753,-0.57175 -0.273582,-0.285497 -1.26285,-1.054062 -1.173371,-1.463149 M 48.538234,38.015152 c -0.314749,0.281589 -1.425379,0.405849 -1.445295,0.857629 -0.01391,0.317036 0.690773,0.532207 1.064127,0.667045 0.594432,0.214694 1.29359,0.614251 1.715256,1.048211 0.390887,0.402229 0.571942,1.123399 0.333522,1.715257 -0.285114,0.707925 -0.899462,1.259379 -1.66761,1.334088 -0.532111,0.05174 -1.6051,-0.171144 -1.334089,-0.857628 m 28.301733,-4.256408 c 0.481798,-0.09367 0.731461,-0.109109 0.873544,0.349435 0.08976,0.289878 0.04174,0.39346 0,0.667045 -0.04603,0.300837 -0.02917,0.59564 0.107664,0.855206 l 0.352883,0.669395 m -0.430083,-0.900963 c -0.201733,0.278441 -0.54066,0.737609 -0.904008,0.869303 -0.610726,0.221268 -1.255662,-0.120449 -1.334089,-0.825898 -0.03526,-0.317703 0.03983,-0.587952 0.17467,-0.857628 0.271964,-0.543925 0.576043,-0.712401 1.159419,-0.825895 m 2.887266,0.158852 c 0.846669,0 0.792291,0.159554 1.582533,-0.190213 0.220517,-0.0976 0.377708,-0.186857 0.580678,-0.254517 0.414044,-0.137982 0.928907,-0.242993 1.334089,-0.317608 m 22.584206,3.049345 c -0.005,-0.192392 -0.12769,-0.651319 -0.0791,-0.857628 0.0753,-0.320086 0.11531,-0.271773 0.19059,-0.571751 0.0553,-0.222794 0.32685,-0.917567 0.55555,-1.000567 0.67657,-0.245187 1.21116,1.608911 1.2388,1.953488 m 6.86102,-1.810549 0.19058,0.857628 0.19059,2.001132 m -7.44254,-1.848323 c 0.14487,-0.321944 0.3117,-0.576609 0.51943,-0.77253 0.17153,-0.162282 0.37369,-0.164343 0.63384,-0.142614 1.01962,0.085 1.64188,1.466639 1.81054,2.382299 m -37.926223,-2.191717 0.531605,0.162755 c 0.374288,0.11459 0.793621,0.12305 1.374236,0.12305 m 40.113432,-0.576267 1.59916,0.03661 m -54.577016,3.493707 c -0.837807,0.396795 -2.049161,0.491801 -2.477592,-0.571753 -0.09634,-0.239182 -0.04441,-0.304459 -0.111208,-0.571753 -0.09596,-0.384025 -0.101962,-0.695535 0.142939,-1.048211 0.271105,-0.390316 0.682243,-0.71517 1.39765,-0.524106 1.143836,0.30548 -1.07425,1.59252 -1.481908,1.66761 M 69.02602,39.253878 c -0.329424,0.24271 -0.582213,0.459424 -1.038279,0.571753 -0.07868,0.01939 0.531422,0.220887 0.752403,0.269963 0.219078,0.04869 0.449873,0.07061 0.667043,0.142939 0.354489,0.118161 0.766912,0.271199 1.048214,0.540019 1.149316,1.098621 -0.67324,1.655412 -1.524674,1.619964 -0.601482,-0.02507 -0.545735,-0.190583 -1.143504,-0.190583 m -6.337027,-0.685932 c -0.604438,-0.675619 -0.148052,-2.182568 1.000675,-2.220477 1.475872,-0.0487 0.02801,1.438912 -0.381168,1.762903 -0.224317,0.177531 -0.432163,0.34877 -0.619507,0.467123 0.236894,0.473791 1.4112,1.115068 2.852428,-0.164716 m 39.600276,-2.017663 0.47646,0.762335 m -39.794075,1.329313 c 0.238969,0.03186 0.345466,-0.06307 0.629054,-0.106429 0.211071,-0.03221 0.954636,-0.27587 1.111772,-0.476461 0.221268,-0.282444 0.182771,-0.738608 -0.06356,-0.968739 -0.513053,-0.479507 -1.58366,-0.734319 -1.715256,0.127026 -0.09024,0.590905 -0.0098,0.955363 0.04277,1.419828 0.08859,0.782467 0.378618,1.575772 0.528988,2.391853 m 36.592137,-4.192848 c 0.43072,0.682288 0.50219,1.771382 0.76233,2.477592 m 18.96237,-2.477592 0.19133,0.952918 m -11.05388,-0.571751 c 0.0924,0.440441 0.26968,0.916804 0.28588,1.524672 m -59.748098,-1.429382 0.550374,0.729711 c 0.329153,0.436405 0.304683,1.496217 0.577217,2.03376 0.07299,0.143987 0.256527,0.429956 0.476461,0.333521 0.431102,-0.189059 0.590742,-1.095244 0.713573,-1.586569 0.08605,-0.343908 0.156345,-0.542213 0.175043,-0.838266 m -0.01507,-0.386279 c 0,0.732129 0.05397,0.539906 0.227878,1.108991 0.04526,0.148179 0.14587,0.345166 0.185024,0.510973 0.106535,0.451018 0.523153,1.665895 1.111772,1.461112 0.240803,-0.08376 0.377451,-0.383358 0.444727,-0.603483 0.211263,-0.69163 0.222316,-1.652079 0.222316,-2.3823 m 46.978973,11.720921 c -0.18677,-0.644937 -0.10387,-1.542113 -0.0953,-2.19172 0.002,-0.165902 0.0314,-0.309127 0.0314,-0.476458 0,-0.244614 -0.0314,-0.68029 -0.0314,-0.952921 0,-0.478175 -0.0839,-1.444151 0.0314,-1.905842 0.17153,-0.685624 0.78426,-0.650082 1.30265,-0.333521 0.73661,0.450064 1.71239,1.91918 0.95292,2.715824 -0.39547,0.414519 -1.86106,0.338094 -2.26336,0.531975 m 0.0135,0.01351 c -0.0362,0.220031 1.18597,0.700811 1.35845,0.85614 0.59367,0.535919 1.41932,1.019937 2.0349,1.457136 m 5.24106,-0.09529 c 0.23061,-0.220698 0.38308,-0.336763 0.54031,-0.571753 0.44311,-0.665711 0.27444,-1.596523 -0.25443,-2.191717 -0.26872,-0.302552 -0.47646,-0.516103 -0.76234,-0.746423 -0.81188,-0.653704 -2.98479,-2.003233 -3.66837,-1.733452 l 0.93634,3.813964 0.15914,0.667043 0.58795,1.477027 1.55612,-0.142939 c 0.53494,-0.04913 0.64704,-0.323897 0.90528,-0.57175 z m -40.975575,1.619964 v -2.001134 c 0,-0.188773 -0.0096,-0.402189 -0.003,-0.557318 0.0094,-0.218886 -0.06417,-0.471793 -0.109517,-0.705354 -0.106441,-0.547262 -0.673866,-2.358902 -0.173392,-2.818972 0.240803,-0.22146 0.479985,-0.229082 0.762335,-0.127121 0.646177,0.233373 1.682475,0.753284 1.715257,1.540587 0.01715,0.411567 -0.176958,0.752141 -0.412902,1.048214 -0.15723,0.19716 -0.274735,0.35995 -0.501816,0.486117 -0.405265,0.246632 -0.921228,0.479721 -1.28336,0.514342 m 48.89117,1.28655 c 0.2106,1.141408 2.35371,2.238791 3.43051,1.397648 0.43168,-0.337619 0.62417,-1.142647 0.57176,-1.683523 -0.14008,-1.440245 -1.66475,-2.184953 -2.76347,-2.795204 -0.43167,-0.239755 -1.02344,-0.354963 -1.19115,-0.825894 -0.15914,-0.444444 1.09109,-0.622544 1.47702,-0.571753 m -36.115674,0.190585 c 0.02574,0.325421 0.487322,1.830462 0.587666,2.191714 0.05708,0.205736 0.05107,0.231703 0.136254,0.479435 0.255,0.209739 0.88518,0.296053 1.277212,0.394109 0.220506,0.05508 0.287688,0.05317 0.476461,0.07938 0.242518,0.03373 0.329329,0.08185 0.571753,0.09529 0.209831,0.01161 0.429376,0.03276 0.588857,0.05043 m 35.526821,-3.099772 1.33409,-0.06356 0.85763,0.142937 0.57175,0.04765 0.57175,0.06356 h 1.71526 m 29.63583,5.050544 c 0.59558,0.772247 1.84676,1.394598 2.76347,0.730605 0.65751,-0.476271 0.44216,-1.371349 0.14294,-1.969401 -0.42786,-0.855913 -1.18505,-1.780066 -2.21995,-1.729619 -1.0212,0.04978 -0.81511,-0.440726 -0.78176,-0.843333 0.0191,-0.228702 0.0495,-0.456164 0.14294,-0.667046 0.14198,-0.319988 0.67533,-0.283328 1.19625,-0.380811 0.57238,0.0303 0.74867,0.140743 0.94783,0.476171 M 47.871185,48.306619 c 0.530584,0 2.350569,0.07709 2.350569,0.857628 0,0.232038 -0.297885,0.378977 -0.44473,0.460548 -0.183262,0.102188 -0.445499,0.323032 -0.787113,0.369323 0.641389,0.209745 1.674093,0.679844 2.280054,1.552431 0.461404,0.664566 0.313035,1.934907 -0.54002,2.159986 -0.45054,0.118828 -1.21545,-0.443681 -1.619964,-0.635312 m 85.381659,-2.096424 c -0.45454,0 -0.85191,0.104344 -1.2388,0.206498 -0.25157,0.06642 -0.47932,0.162852 -0.76233,0.17467 -0.30901,0.01288 -0.72574,0.06568 -0.91452,0.0164 -0.002,-0.133561 -0.0281,-0.209661 -0.0384,-0.397575 -0.0172,-0.310842 0.004,-1.414895 0,-1.715257 -0.002,-0.155421 -0.082,-0.410135 0.0314,-0.555837 0.12579,-0.160948 0.25538,-0.09548 0.44502,-0.127121 0.39641,-0.06594 1.00723,-0.157039 1.42938,-0.17467 0.50218,-0.02088 0.67276,0.009 1.23879,-0.09529 m -8.05106,-0.127567 c 0,0 0.0942,0.540981 0.11038,0.69932 0.0201,0.196717 0.15818,0.571753 0.15818,0.571753 l 0.25443,2.287009 0.0314,0.476458 0.0638,0.571753 v 1.048214 m 17.43846,-5.050412 c 0.0267,0.340385 0.0486,0.463978 0.11149,0.762338 0.27444,1.316841 0.74614,3.3518 0.74614,4.764602 m 2.287,-5.384002 c 0.62131,-0.366397 1.42367,0.06623 1.8744,0.71469 0.45359,0.654085 0.79378,1.557169 0.42881,2.287009 -0.27825,0.556508 -0.64608,1.144841 -1.25499,1.381735 -0.42977,0.166953 -0.76615,-0.0201 -1.04822,-0.333521 -0.71564,-0.793591 -0.51838,-2.05726 -0.26967,-3.049345 0.0705,-0.282256 0.10387,-0.902512 0.26967,-1.000568 m 26.77707,0.238229 c 0,0 1.41194,0.115865 2.09642,0.285878 0.67753,0.182555 1.37904,0.214988 2.00113,0.317609 0.20016,0.04189 0.57175,0.222411 0.57175,0.222411 l 0.57176,0.222316 c -0.51267,1.024867 -1.87231,3.223396 -2.53555,4.193278 m -34.91422,-5.241492 0.38117,3.049348 0.28587,1.81055 M 92.944194,52.21366 c -0.03392,-0.429578 -0.140459,-0.533064 -0.190583,-1.048213 -0.03431,-0.352676 -0.1446,-0.858409 -0.191873,-1.167536 m 0.07428,0.418709 c -0.05346,-0.349915 0.176669,-0.578687 0.403464,-0.775847 0.426431,-0.370876 0.885547,0.07957 1.238796,0.349437 0.72803,0.555935 1.668564,1.475312 2.001131,2.31874 m -50.31419,-3.603916 c 0.01553,0.589665 0.184772,2.456801 0.301791,3.222757 0.03697,0.242329 0.06146,0.411377 0.111111,0.667045 0.04012,0.20602 0.06356,0.373448 0.06356,0.571751 M 169.7497,49.640775 c 0.85096,-0.358202 2.05545,0.05889 2.09643,1.048213 0.0305,0.728317 -0.27625,1.471293 -0.78558,2.029249 -0.17274,0.18924 -0.76292,0.745178 -0.94588,0.877158 -0.37355,0.269676 -1.68418,0.107464 -1.47102,-0.438258 0.16144,-0.413304 0.38784,-0.531646 0.71941,-0.57708 0.33603,-0.04605 1.02435,0.161067 1.41639,0.331845 0.59136,0.257601 1.54314,0.921724 1.54314,0.921724 M 56.638061,49.704337 c 0.179721,-0.06613 0.400514,0.04212 0.571753,0.11111 0.345815,0.139317 0.678099,0.365634 0.952921,0.571751 0.222697,0.167047 0.338762,0.256527 0.508192,0.492376 0.719646,1.001804 0.833995,2.017047 -0.508192,2.445861 -0.774248,0.247281 -1.583373,0.05136 -1.985219,-0.730605 -0.334094,-0.650082 -0.294038,-1.150367 -0.07391,-1.810549 0.13074,-0.392224 0.159294,-0.942057 0.534457,-1.079944 m 4.097559,-0.06356 0.952918,3.335223 m 11.435046,0.667043 c 0,-0.871064 -0.220318,-1.764999 -0.190585,-2.477592 0.0075,-0.181626 0.03164,-0.293117 0.09529,-0.476461 0.185915,-0.535446 0.441964,-1.116442 1.143504,-1.048213 0.297787,0.02897 0.414805,0.09996 0.667045,0.285878 m 88.74833,3.525806 c -0.42405,-0.636839 -0.38022,-1.637117 -0.31733,-2.28701 0.0305,-0.312749 0.001,-0.421381 0.19059,-0.762336 0.16866,-0.302838 0.22107,-0.372021 0.57175,-0.508194 0.28492,-0.11073 0.54316,-0.206687 0.85763,-0.03183 0.47646,0.264817 1.28525,0.592612 1.47702,1.921757 0.27516,1.907093 -1.83151,3.089558 -2.77966,1.667611 z M 77.6976,53.261873 c -0.716023,-0.05651 -1.341044,-0.901557 -1.540586,-1.619964 -0.07156,-0.257861 -0.0507,-0.358869 -0.06347,-0.667043 -0.01945,-0.466455 0.442806,-0.819133 1.117089,-0.942048 0.453368,-0.08264 0.998584,0.870769 0.582255,1.212011 -0.26939,0.22079 -0.878784,0.09682 -1.143506,0.01591 -0.180672,-0.05517 -0.38831,-0.08405 -0.530484,-0.09529 m 5.676253,-0.952921 -0.667043,0.155527 -0.76911,0.141223 c -0.188084,0.305989 2.472933,0.91041 2.929094,1.609092 0.255954,0.392221 0.127121,0.758046 -0.158852,1.048211 -0.409087,0.415187 -1.198486,0.812556 -1.715256,0.762336 -0.205353,-0.01991 -0.494278,-0.141221 -0.762336,-0.190583 m -27.184496,-4.240914 0.756871,3.383286 0.03173,0.857628 m 30.207572,-3.335223 0.934247,0.114395 m -0.01518,-0.02908 c 0.195788,0.964312 0.435318,2.175205 0.796189,3.154616 m 2.101598,-2.564586 c -0.07614,0.329053 0.08087,1.188983 0.375984,1.516311 0.534493,0.593 1.62673,0.859151 2.287009,0.269962 0.833996,-0.744135 0.01324,-1.860672 -0.762335,-2.334656 -0.474745,-0.29007 -1.13614,-0.913221 -1.572312,-0.07934 z m 65.079281,-0.103591 1.81055,0.47646 m -23.59205,-0.07662 c 0.007,0.269963 0.16641,1.218886 0.15021,1.601293 -0.008,0.184389 -0.038,1.001316 -0.038,1.001316 0.3617,0.08018 0.77393,0.0462 1.1815,-0.03248 0.57937,-0.112637 0.98246,-0.259004 1.52467,-0.301791 m -86.715748,9.068659 c -0.188106,0.06785 -0.29369,0.14856 -0.460545,0.03173 -0.155421,-0.108823 -0.104823,-0.370304 -0.111208,-0.524104 -0.0096,-0.230512 -0.06889,-0.771485 -0.111206,-1.048214 -0.04841,-0.316941 -0.07576,-0.502664 -0.07938,-0.762335 -0.0053,-0.387362 -0.09529,-0.636266 -0.09529,-1.143506 v -1.238797 c 0,-0.41671 -0.155993,-1.051071 0.111206,-1.318173 0.126642,-0.12674 0.299789,-0.135505 0.460548,-0.09529 0.451207,0.112732 0.770244,0.663043 1.016479,1.032299 0.407564,0.611298 0.868015,1.292828 1.143504,2.001131 0.270249,0.695063 0.364293,0.958788 0.203321,1.443601 -0.197203,0.59394 -1.277739,1.33283 -2.077429,1.62166 z m 46.216634,-5.638146 c 0.85191,0.78454 2.134541,0.836189 3.33522,0.952921 0.924335,0.08986 1.9087,-0.269103 2.668178,0.190586 -0.169619,0.429576 -0.564128,0.964641 -0.841429,1.429378 -0.634645,1.061363 -1.395074,2.650739 -1.731456,3.716391 M 74.457672,57.83589 c 1.063362,0.08395 2.004087,0.101581 3.049343,0 0.894699,-0.087 1.773575,-0.518772 2.477595,0 m 0.952918,-0.190585 c 0.689631,0.48999 1.25757,1.488556 1.778818,2.287009 0.156756,0.240231 0.298047,0.640728 0.413272,0.878819 0.427207,0.882736 1.004292,2.682148 1.619594,3.31403 m 0.190582,-5.812813 c -0.434435,0.687913 -0.830184,1.267002 -1.302355,1.905839 -0.107299,0.14513 -0.252215,0.435327 -0.443665,0.644362 -0.939447,1.025747 -2.232232,2.457584 -2.542121,3.929658 M 54.351054,57.835893 c 0.09272,1.174091 -0.08586,3.29148 0.476458,4.478723 m 1.429381,-4.288141 c -0.05136,0.976459 -0.337524,3.231924 0.190586,4.288141 m 19.936292,-4.4097 c 0,0 -0.03336,0.498986 -0.0469,0.687283 -0.135224,1.880008 -0.545113,5.628259 -0.545113,5.628259 M 100.3771,63.458123 c 0.38308,0.591477 1.51038,0.634072 2.09643,0.365252 0.63274,-0.290162 1.24356,-0.80798 1.30264,-1.508759 0.08,-0.969309 -1.23689,-2.085941 -2.06498,-2.350568 -0.37259,-0.119115 -0.68515,-0.0095 -0.76233,-0.508192 -0.0781,-0.502664 0.28111,-1.180858 0.95291,-1.143503 0.38975,0.02164 0.50029,0.09529 0.95293,0.09529 m 4.09755,-0.09529 c 0.49266,0 0.83572,0.03754 1.2388,0.317606 0.40975,0.284638 0.71374,0.680673 0.90528,1.111773 0.24204,0.545262 -0.01,1.50428 -0.28588,2.001134 -0.13913,0.250236 -0.51648,0.653894 -0.68324,0.857628 -0.11055,0.136267 -0.35894,0.34467 -0.47325,0.46235 -0.44206,0.455083 -1.13433,0.48304 -1.84521,0.157047 -0.43453,-0.199159 -1.03201,-0.636074 -0.47646,-1.064126 0.2287,-0.176385 0.35734,-0.106154 0.57175,-0.07938 0.17248,0.02153 0.31351,0.02288 0.47646,0.06356 0.27825,0.06937 0.6375,0.214026 0.85763,0.396986 0.50248,0.323205 0.58215,0.460194 0.93672,0.92119 0.45836,0.568892 0.81284,1.105481 1.44558,1.238796 m -45.454297,-5.526938 -0.938669,0.558245 c -0.715767,0.42568 1.857282,0.760215 2.558633,1.188743 0.472457,0.288735 1.143504,0.865918 1.143504,1.49294 0,0.720027 -0.925953,0.955398 -1.429379,1.032298 -0.668569,0.102154 -1.258809,-0.160186 -1.810549,-0.17467 m -2.906736,-2.002712 c -0.601326,1.25432 -1.729222,1.692345 -2.048451,1.145084 -0.503905,-0.863822 -0.454543,-3.049345 0.857628,-3.049345 0.206784,0 0.385265,0.06947 0.571753,0.222316 0.187155,0.15342 0.189154,0.307984 0.285875,0.540019 0.09901,0.237659 0.14151,0.407183 0.206498,0.667046 0.04203,0.168095 0.02077,0.280254 0.127026,0.476461 0.191726,0.35401 0.457782,0.542688 0.71469,0.857628 m 50.028314,-2.191717 c 0.26682,0.724027 0.13341,1.143503 -0.19058,1.810549 -0.10482,0.214788 -0.15819,0.41147 -0.0791,0.667043 0.24872,0.802359 1.6781,0.305316 2.27081,0.206498 0.29541,-0.04927 0.44025,-0.06947 0.66705,-0.111205 l 0.11149,0.57175 0.26968,1.619967 m 1.42937,-1.238796 c -0.23632,-0.531541 -0.0991,-1.149033 0.0314,-1.619967 0.28538,-0.548877 0.0707,-0.990554 0.49266,-1.524671 0.33112,-0.419074 0.99741,-0.07107 1.38174,0.190585 0.482,0.328157 0.78953,0.945552 0.85762,1.524671 0.054,0.459327 -0.38116,1.334089 -0.38116,1.334089 -0.32478,1.136732 -1.82199,1.356673 -2.38231,0.09529 z m -2.00113,-2.76347 c 0,0.854103 0.13478,1.296623 0.18458,1.830062 m -61.866742,-1.49686 c -0.434627,0.589859 -0.886485,2.111232 -1.97291,1.953809 -0.770817,-0.111683 -0.552666,-1.41882 -0.45736,-1.791554 0.218156,-0.853172 0.675865,-1.326496 1.410281,-2.020127 0.701062,-0.662186 1.065539,0.706362 1.048748,1.263207 -0.0218,0.722652 -0.02399,0.61252 0.126489,1.214385 0.115206,0.460832 -0.01248,1.219262 0.730602,1.238797 m 60.995142,-0.388667 0.56351,-0.183087 m -44.596669,1.715257 -0.667046,1.048214 -0.952921,1.334088"
       id="path417"
       sodipodi:nodetypes="cscccccccccccsccccsssssccccccsccssccsscccscsccccccsccccsccccscscccssccsssccccccsccsccccsccccsccscccccccccccccccsccccsscsccsccccccscccccccsccsccccccccssccccscsccccsscccccccccccccccsccsscccsccccccscccccccsccccccccccscccccsccccccscccccccccscccccccccccccccccccccccccscccccccccccscsssccsccccccccccssccccccsccccssccccccccccccccccscccssccccccccscccssccccsccsccccccccscccsccccccscccccccccccccsccscccccscscccssccssccccccccccssssccccsscsscccccccccc" /></g></svg>
