<?xml version="1.0" encoding="UTF-8" standalone="no"?>
<!-- Created with Inkscape (http://www.inkscape.org/) -->

<svg
   width="3000"
   height="1998.207"
   viewBox="0 0 793.74998 528.69228"
   version="1.1"
   id="svg202"
   inkscape:version="1.2.1 (9c6d41e410, 2022-07-14)"
   sodipodi:docname="JoshW - Stake - Envelope2.svg"
   xmlns:inkscape="http://www.inkscape.org/namespaces/inkscape"
   xmlns:sodipodi="http://sodipodi.sourceforge.net/DTD/sodipodi-0.dtd"
   xmlns="http://www.w3.org/2000/svg"
   xmlns:svg="http://www.w3.org/2000/svg">
  <sodipodi:namedview
     id="namedview204"
     pagecolor="#ffffff"
     bordercolor="#000000"
     borderopacity="0.25"
     inkscape:showpageshadow="2"
     inkscape:pageopacity="0.0"
     inkscape:pagecheckerboard="0"
     inkscape:deskcolor="#d1d1d1"
     inkscape:document-units="mm"
     showgrid="false"
     inkscape:zoom="1"
     inkscape:cx="350"
     inkscape:cy="142.5"
     inkscape:window-width="1920"
     inkscape:window-height="1058"
     inkscape:window-x="-6"
     inkscape:window-y="-6"
     inkscape:window-maximized="1"
     inkscape:current-layer="layer1" />
  <defs
     id="defs199">
    <pattern
       id="EMFhbasepattern"
       patternUnits="userSpaceOnUse"
       width="6"
       height="6"
       x="0"
       y="0" />
    <pattern
       id="EMFhbasepattern-0"
       patternUnits="userSpaceOnUse"
       width="6"
       height="6"
       x="0"
       y="0" />
    <pattern
       id="EMFhbasepattern-2"
       patternUnits="userSpaceOnUse"
       width="6"
       height="6"
       x="0"
       y="0" />
  </defs>
  <g
     inkscape:label="Layer 1"
     inkscape:groupmode="layer"
     id="layer1">
    <path
       style="fill:none;stroke:#887e9b;stroke-width:0.0920226"
       d="m 73.876184,111.11168 0.655983,-2.16873 m 41.889183,-1.44582 c 0.0862,0.75122 0.92307,1.63219 1.68682,1.86752 0.2652,0.0818 0.51822,0.0186 0.74969,0 0.65317,-0.0525 1.79083,-1.05787 1.81145,-1.77715 -0.30301,-1.29534 -2.71413,-2.48122 -4.00734,-1.8 -0.5234,0.27571 -0.32308,0.98999 -0.24062,1.70963 z m -6.3724,1.53619 c -0.0834,-0.38362 -0.52948,-0.81287 -0.84341,-1.0693 -0.14056,-0.11449 -0.34673,-0.18318 -0.39077,-0.37652 -0.0328,-0.14533 0.0956,-0.30922 0.14057,-0.45182 0.1162,-0.36472 0.22303,-1.22673 0.12557,-1.62654 -0.14338,-0.58553 -0.6663,-1.14437 -1.28104,-1.32537 -0.25021,-0.0738 -0.65411,-0.0833 -0.93712,-0.015 -0.35235,0.0849 -0.5679,0.28664 -0.7497,0.52709 m 8.52778,4.15673 c -0.0769,-0.35239 -0.37204,-0.71787 -0.51541,-0.994 -0.11246,-0.21638 -0.33446,-0.43899 -0.46857,-0.67773 -0.28327,-0.50426 -0.33735,-0.9995 -0.70283,-1.58136 m -12.6511,2.07836 c 0.35891,0.33671 0.98397,0.80514 1.49938,0.96389 0.7497,0.23104 2.45431,0.19983 2.62394,-0.87352 0.18648,-1.17416 -1.67089,-2.16009 -2.62394,-2.53018 -0.55289,-0.21492 -0.93993,0.16894 -1.09361,-0.54219 -0.11621,-0.53956 0.13588,-1.14753 0.81248,-1.17472 0.71784,-0.0288 1.28947,0.10663 1.87424,0.18072 m -5.997558,4.87964 c 0,-1.38595 0.901507,-3.07478 1.483457,-4.33745 0.200542,-0.43447 0.01312,-0.66183 0.390778,-0.994 m 9.371193,4.42781 c -0.13777,-0.11879 -0.24928,-0.2185 -0.46857,-0.28615 -0.45918,-0.14158 -1.66525,-0.41281 -2.0148,0.19579 -0.46293,0.80607 0.88839,0.954 1.35883,0.90364 0.66816,-0.0716 0.88275,-0.50712 1.21825,-0.90364 m -29.050673,0.63255 -0.09371,-0.994 -0.07806,-2.43982 -0.01565,-0.994 -0.04685,-0.52709 0.609125,-0.42173 1.499391,-0.40663 m 1.124541,5.6929 0.999624,-1.89763 0.406052,-0.37652 0.484211,0.37652 1.390027,1.80727 m -26.239316,-1.62655 c 0,-0.24637 -0.07066,-0.52185 -0.01565,-0.72291 0.09315,-0.34015 0.414393,-0.49514 0.156217,-0.90363 -0.178708,-0.28284 -0.426856,-0.2589 -0.702837,-0.21085 -0.485802,0.0846 -0.748944,0.0533 -1.093336,0.48194 -0.353682,0.27822 -0.443912,1.27267 -0.235188,1.86606 0.117256,0.33335 0.430422,0.74331 0.76625,0.75448 0.685034,0 0.811449,-0.88262 1.12454,-1.26509 0.587763,0.337 0.68663,0.93062 1.218257,0.90364 m -3.670412,-2.25909 c -0.109348,-0.4781 -0.145347,-1.09367 -0.374847,-1.53618 -0.260707,-0.50279 -0.490958,-1.01515 -0.921469,-1.38555 -0.295473,-0.25428 -0.800674,-0.67501 -1.124542,-0.75309 -0.18883,-0.0455 -0.38703,-0.0966 -0.515416,0.0754 -0.11189,0.14992 -0.05042,0.55357 -0.04686,0.79819 0.0037,0.25057 0.04433,0.38178 0.109363,0.63254 0.172148,0.66417 0.326023,1.55696 0.437259,2.25909 0.07918,0.49982 0.01461,1.13863 0.140566,1.53618 0.06251,0.19704 0.265581,0.50095 0.437354,0.58737 2.425398,-0.53876 2.10731,-1.57993 1.858587,-2.21391 z m 10.79251,1.35545 c 0,-0.32659 0.191641,-0.80088 -0.03121,-1.08436 -0.22191,-0.28221 -0.66479,-0.32879 -0.999625,-0.39157 -0.631054,-0.11833 -0.975352,0.38796 -1.093335,0.93375 -0.133444,0.61772 0.275888,1.61965 1.093335,1.52112 0.607817,-0.0733 0.758411,-0.59501 1.030832,-0.97894 0.443443,0.30384 0.760564,1.04976 1.311963,1.20485 0.429296,0.12074 0.535002,-0.30632 1.124544,-0.19579 0.399774,0.075 1.923623,0.39143 2.139721,-0.19579 0.351046,-0.95388 -1.437165,-1.46974 -2.046009,-1.7922 -0.427982,-0.22669 -0.435011,-0.37016 -0.09371,-0.73798 m -7.684364,2.71091 c -0.469684,-0.90576 -0.36707,-2.37553 -0.687189,-3.43381 -0.114797,-0.37953 -0.35779,-0.71975 -0.437352,-1.08437 m 52.868106,4.17367 c -0.59954,-0.10874 -1.06236,0.22817 -1.42032,0.25415 -0.53791,0.0288 -1.75616,0.14652 -2.13944,-0.19579 -0.30643,-0.27348 -0.0206,-0.83096 -0.20335,-1.25003 m -46.106218,0.994 c -0.377941,-1.25885 -0.92831,-2.72392 -1.030831,-3.976 m 20.429177,2.89164 -1.062037,-1.71691 -0.812199,-0.90364 m 1.859596,2.66855 c 0.634146,-0.62803 0.951572,-2.08588 1.326606,-2.84928 m 7.758916,1.67549 c -0.223086,-0.76755 -0.107408,-0.93623 -0.152607,-1.3893 l 1.483739,0.0753 1.580677,0.10884 0.668405,-0.0185 0.749697,-0.0904 1.784623,-0.0839 m -21.932666,-0.18721 c 0.568175,0.15858 1.567551,0.42902 2.130479,0.20049 m 98.984583,-0.9234 c 0,-1.1347 0.5379,-2.27301 1.04676,-3.253092 0.15837,-0.3057 0.49479,-0.78517 0.31206,-1.084365 -0.23147,-0.377538 -0.96617,-0.180725 -1.45253,-0.180725 -0.8406,0 -1.54813,-0.137084 -2.3428,-0.286183 -0.60819,-0.113948 -0.75063,-0.156328 -1.31198,-0.256 0,0.347086 -0.059,0.511279 0.18743,0.903637 m -2.06166,3.072358 c -0.76378,-0.58482 -2.90982,-2.083368 -2.86535,-0.2184 0.0211,0.34883 0.72403,0.10027 1.08483,0.0678 0.74048,-0.15546 1.4057,-0.51244 1.68681,-1.02409 0.26521,-0.510648 0.39734,-0.868127 0.15649,-1.445821 -0.35141,-0.841286 -0.98115,-1.153222 -1.74959,-1.445821 m -9.46489,2.530182 c 0.38703,0.59152 1.0552,1.09701 1.78053,1.17473 0.93898,0.10066 1.37475,-0.67845 1.18732,-1.44582 -0.23897,-0.976109 -1.26418,-2.31873 -2.31187,-2.515091 -0.31487,-0.0591 -0.67472,0.114762 -0.92118,-0.06028 -0.23148,-0.163738 0.0253,-1.006152 0.0778,-1.180374 m 5.99754,1.812921 c -0.26239,-0.12642 -0.69814,-0.190849 -0.93711,-0.120456 -0.22959,0.0676 -0.31112,0.180546 -0.46856,0.346364 -0.5932,0.624864 -0.7347,1.70281 -0.17149,2.439816 2.2926,1.63886 4.9119,-1.337885 1.57716,-2.665724 z m -15.8373,3.207904 c -0.36453,-0.58004 -0.44887,-1.741485 -0.64004,-2.439814 -0.0694,-0.252658 -0.19586,-0.480825 -0.26615,-0.722908 -0.22678,-0.788514 -0.70752,-1.755496 -1.15546,-2.439818 m -0.37485,5.42182 c -0.0431,-0.52728 -0.21553,-1.072169 -0.40577,-1.807276 -0.29145,-1.121321 -0.90619,-2.200264 -0.90619,-3.343454 m 5.15416,0.993999 c 0,0.657305 -0.28115,1.17563 -0.17149,1.807273 0.19211,1.115177 1.68774,2.252678 2.59206,1.084362 0.39546,-0.510192 0,-1.420695 -0.29613,-1.807271 -0.30644,-0.399678 -0.83685,-0.621522 -1.28105,-0.813272 m -15.55615,0.27109 c -0.72908,0.05548 -2.1535,-0.112593 -2.81136,0.120454 -0.52947,0.187867 0.0215,1.227772 0.17149,1.77718 0.0684,0.249405 -0.002,0.515797 0.29707,0.67773 0.75813,0.411333 2.16381,-0.256272 2.90506,-0.406637 m -8.34035,0.361455 c -0.48448,-1.044242 -0.47136,-2.643226 -0.95305,-3.795273 -0.14337,-0.343741 -0.0675,-0.546338 -0.21834,-0.813273 -0.15088,-0.267114 -0.29613,-0.259342 -0.51541,-0.27109 -0.44796,-0.02395 -0.66162,-0.008 -1.12455,-0.09036 m -16.21215,4.879635 c -0.029,-0.349978 -0.0366,-0.645467 -0.12463,-1.084362 -0.21835,-1.082013 -0.51635,-2.421203 -0.53134,-3.433819 -0.004,-0.260154 -0.13963,-0.500614 -0.0628,-0.813273 0.0872,-0.347898 0.33174,-0.41558 0.71876,-0.451818 0.24366,-0.02284 0.41421,0.0051 0.65599,0.06028 0.81998,0.186599 1.68306,0.585464 1.93702,1.385545 0.14244,0.451276 -0.0394,0.726705 -0.43764,0.918725 -0.78248,0.377178 -1.15453,0.44206 -1.87423,-0.105453 m 6.84096,3.433816 c 1.18077,0 2.53303,-1.271866 1.65589,-2.439817 -0.39266,-0.52176 -1.28854,-1.231474 -1.84331,-1.521091 -0.85466,-0.446304 -1.35788,-0.647634 -2.24908,-0.647634 -0.007,0.23874 0.31121,0.36845 0.3159,0.620563 0.29731,0.403353 0.5348,0.621039 0.57281,0.857602 0.59507,0.677457 1.23752,2.36168 1.51304,3.083865 m -2.68289,-0.04385 -2.53022,-2.078363 -0.65599,-0.813273 m 12.08883,2.620544 c 0.50979,0.09055 0.95773,0.180728 1.40567,0.180728 0.1893,0 0.35799,0.01916 0.56228,0 1.4872,-0.139432 1.78335,-1.443378 0.74969,-2.439818 -0.8509,-0.820683 -2.87039,-0.54731 -2.90506,-1.626544 -0.0105,-0.325655 0.8434,-0.542183 0.8434,-0.542183 m -35.704201,4.156727 c 0.764127,0.445945 2.889792,0.09136 2.499012,-0.994001 -0.230719,-0.640766 -1.261547,-1.173823 -1.843029,-1.430727 -0.413926,-0.182985 -0.644176,-0.172503 -1.030829,-0.466908 l 0.749693,-0.722908 m 4.310745,3.704908 -1.061754,-1.987999 -0.500141,-0.738001 -0.218631,-0.617454 -0.843406,-1.174726 m 7.028386,3.915727 c -0.73095,0.596309 -1.964199,0.698149 -2.795423,0.03018 -0.261457,-0.210185 -0.627869,-0.836313 -0.671911,-1.144634 -0.0581,-0.402932 -0.07397,-0.591448 0.09917,-0.803141 0.266861,-0.326291 0.64865,-0.545092 1.212794,-0.431866 0.83917,0.144026 2.818526,1.744315 2.155372,2.349462 z m 5.060435,0.150636 c -0.85653,-0.897131 -1.60996,-1.992157 -2.53022,-2.891636 -0.23709,-0.232146 -0.65223,-0.924961 -1.03082,-0.828362 -0.39266,0.100212 -0.37151,0.88088 -0.37486,1.189816 -0.009,0.83014 0.10521,1.438678 -0.11068,2.195688 0,0 0.12374,-0.623652 0.05923,-1.105846 L 99.842567,96.049378 M 86.15244,95.930597 c 0.336236,0.0085 0.745382,0.226269 1.218252,-0.120457 0.441382,-0.323682 0.501544,-0.989662 -0.187425,-1.054272 -0.400523,-0.03759 -0.92587,0.431667 -1.015179,0.722911 -0.04985,0.162562 -0.07366,0.309854 -0.09371,0.542179 -0.01761,0.203047 -0.03486,0.261062 -0.01565,0.451818 0.03823,0.379256 0.445411,1.069634 0.749694,1.340363 0.408301,0.363445 0.8569,0.376547 1.405678,0.376547 m -7.122096,-0.180728 c -0.03383,-0.413322 -0.0865,-0.401937 -0.09371,-0.903635 -0.0063,-0.433114 -0.12623,-0.987223 -0.21863,-1.445819 -0.04011,-0.198799 -0.132603,-0.460852 -0.01565,-0.617455 0.107677,-0.144219 0.771812,-0.182351 1.077688,-0.256089 0.370909,-0.08937 1.812104,-0.415492 1.671162,-1.114455 -0.114516,-0.567844 -1.659729,-1.188282 -2.139722,-1.355455 -0.236247,-0.08224 -0.603316,-0.201327 -0.827758,0.01509 -0.27954,0.269553 -0.107486,0.86749 -0.04686,1.249997 0.08078,0.510285 0.117713,1.018361 0.211893,1.511204 m 76.756723,2.735887 c 0.50697,0 1.22106,-0.180729 1.87423,-0.180729 M 56.258367,96.743864 c 0.268015,0.183618 0.470903,0.186238 0.843406,0.271089 0.580168,0.132112 1.217691,0.460764 1.874236,0.241001 0.508575,-0.170336 0.86093,-0.828905 0.843406,-1.235001 -0.01931,-0.446575 -0.471181,-1.126742 -0.843406,-1.445816 -0.391245,-0.33534 -0.891949,-0.592696 -1.405676,-0.888544 -0.284979,-0.164103 -0.385345,-0.302088 -0.655984,-0.421729 -0.179365,-0.07925 -0.582136,-0.04519 -0.749694,-0.04519 m 27.644987,4.066362 c -0.04489,-0.547965 -0.56049,-1.501302 -0.327991,-1.972909 0.132322,-0.26847 0.586918,-0.454708 0.890263,-0.466908 0.65673,-0.02638 1.432479,-0.0197 1.874236,0.361454 m -31.955732,1.897638 c 0,-1.474644 -0.425545,-3.398306 -1.218255,-4.608546 m 82.259297,4.763784 c -0.12745,-0.466639 -0.40671,-1.105141 -0.65223,-1.691422 -0.0928,-0.222293 -0.24177,-0.424075 -0.12464,-0.632545 0.13401,-0.239552 0.44608,-0.177292 0.70285,-0.180728 0.87058,-0.01166 2.02792,-0.489679 2.81134,-0.27109 m -67.659929,2.439818 -0.7809,-2.259089 -0.999624,-1.987999 m -5.997553,3.795269 C 61.853528,95.286108 61.696655,93.694986 60.475402,92.85822 m 5.060439,3.584454 c 0.739665,0.217865 1.64895,-0.18145 1.967947,-0.873547 0.100086,-0.217142 0.123512,-0.373741 0.09371,-0.632545 -0.04695,-0.407539 -0.431543,-1.037284 -0.749695,-1.29518 -0.18199,-0.147565 -0.295006,-0.261333 -0.468559,-0.421728 -0.290228,-0.268198 -0.812012,-0.578507 -1.218253,-0.692817 -0.736952,-0.207203 -1.111143,1.032857 -1.233905,1.506089 -0.286103,1.103702 0.519538,2.088755 1.608752,2.409728 M 92.91726,96.036479 c 0.669104,0 1.865098,0.394084 2.418938,0.436284 m -2.905068,-0.361454 0.468561,-0.09036 m 68.567779,-0.271089 1.52867,0.09036 m -33.78312,-1.202961 c 0.99148,-0.257891 2.1966,-0.166945 2.7645,-0.152489 M 56.952673,93.273088 c 0.08331,-0.138707 0.364255,-0.408985 0.477085,-0.595583 0.07113,-0.117655 0.175897,-0.276878 0.09371,-0.451819 -0.352542,-0.750198 -2.083307,-0.301726 -2.764498,-0.180728 m 18.367519,-2.439823 c -0.08153,-0.373291 -0.219006,-0.663359 -0.390498,-0.993998 -0.163995,-0.316275 -0.229412,-0.492292 -0.3473,-0.819772 -0.0582,-0.16175 -0.208373,-0.638027 -0.208373,-0.638027 0,0 1.890786,0.648048 2.008207,-0.710929 0.03139,-0.362809 -0.364072,-0.595133 -0.593479,-0.813272 -0.4262,-0.405281 -1.488703,-0.904542 -1.952296,-0.421727 -0.251712,0.262144 -0.153781,0.606431 -0.0313,1.054271 0.10608,0.387572 0.263798,0.574803 0.577921,0.903636 m 40.202369,2.349454 c -0.4387,-2.658466 -0.53919,-3.30833 1.68389,-1.719733 0,0 0.20253,-0.424233 0.26813,-0.539356 0.10027,-0.175396 0.24271,-0.366967 0.48449,-0.331364 0.89776,0.132292 1.89298,1.528501 2.3428,2.138637 m 2.34279,0.27109 -0.93712,-1.445819 m -7.77807,1.265091 c -0.63537,-0.472331 -1.02333,-1.128823 -1.31197,-1.716907 m -3.84218,-2.982 c 0,0.335519 -0.0281,0.500615 -0.0778,0.813272 -0.13027,0.822672 -0.005,1.800224 0.0778,2.620544 0.0394,0.387932 0.006,1.044605 0.37484,1.159637 0.68785,0.214704 1.73367,-0.165636 2.43651,-0.165636 m 13.49449,0.180728 c -0.26613,-0.42426 -0.49947,-0.973849 -0.65597,-1.44582 -0.11364,-0.551744 -0.33612,-1.003019 -0.45263,-1.445821 -0.20335,-0.74243 -0.76562,-1.358258 -0.76562,-2.078363 m 5.90383,4.789276 c 0,-0.582032 -0.0159,-1.126292 0.46856,-1.521092 0.34955,-0.285096 1.12642,-0.370761 1.49939,-0.195818 0.38422,0.180185 0.3889,0.05323 0.74971,0.165637 0.20616,0.06425 0.23615,0.203589 0.28113,0.376546 0.0665,0.256361 0.0937,0.601821 0.0937,0.813272 m -33.455124,0.180726 c 0.388904,0 0.596008,-0.126599 0.937118,-0.240998 0.284883,-0.09524 0.567893,-0.168527 0.843407,-0.301182 0.184612,-0.08901 0.319557,-0.209283 0.452627,-0.361454 1.24543,-1.420788 -1.59966,-1.455125 -2.108514,-2.183817 -0.174305,-0.250759 0.0506,-0.392991 0.156496,-0.527094 m 18.36753,3.614545 -0.18742,-0.903634 m -27.363857,-3.25309 c 0.341955,0.5448 0.187143,1.015866 0.374847,1.445816 0.232687,-0.141688 0.478024,-0.290699 0.843406,-0.466906 0.238123,-0.114763 0.509043,-0.249045 0.749698,-0.120455 0.207945,0.111055 0.259673,0.297566 0.468556,0.466908 0.685784,0.555825 1.681941,2.142792 2.530219,2.379545 M 85.02789,86.442409 c 0.118826,-0.622245 0.0032,-1.174727 -0.843406,-1.174727 -0.570047,0 -1.218066,0.451547 -1.452533,0.903637 -0.196233,0.378441 0.04573,0.996257 0.515413,1.084363 0.159124,0.02983 0.302504,0.05187 0.468561,0.04519 0.168025,-0.0068 0.28854,-0.0048 0.468559,-0.06028 0.423204,-0.130306 0.592634,-0.535587 0.843406,-0.798183 0.42892,0.449016 0.605284,1.184758 1.218254,1.53618 M 53.447006,87.165317 c 0.519445,0.395432 2.06822,0.599563 2.905066,0.241001 1.72123,-1.015192 0.0096,-2.905637 -1.124541,-3.479003 -1.009277,-0.486608 -2.120232,-0.264494 -2.811354,-0.738001 0.364069,-0.555828 0.61681,-0.649895 1.405675,-1.00909 0.312342,-0.142232 0.597602,-0.316093 0.937119,-0.436726 m 3.063204,3.896935 c 0.303253,0.584744 0.872226,2.509306 1.997234,2.127339 0.420205,-0.142683 0.658782,-0.313122 0.695518,-0.677286 0.02821,-0.280126 -0.0044,-0.738441 -0.0044,-0.738441 0,0 0.374297,0.49481 0.757015,0.923404 0.221724,0.24832 0.38383,0.373675 0.70723,0.386869 0.192953,0.0079 0.326775,-0.09615 0.452911,-0.225908 0.424608,-0.436729 0.859056,-1.384644 0.859056,-1.988001 m 7.590658,2.259086 c -0.809484,0 -1.65542,0.255277 -2.342797,-0.286183 -0.263624,-0.207565 -0.616996,-0.737096 -0.265484,-0.933726 0.159496,-0.08919 0.368286,0.0208 0.54662,-0.01509 0.551963,-0.110874 1.186229,-0.377581 1.026439,-0.668284 -0.370058,-0.240237 -0.490343,-0.529432 -1.617994,0.728554 m 7.526229,0.813271 c 0.451035,0.22889 2.794393,0.905894 2.811357,-0.271091 0.01397,-0.967975 -1.745851,-1.618231 -2.43651,-1.927726 -0.200167,-0.08973 -0.327052,-0.139249 -0.359196,-0.331364 -0.04189,-0.249404 0.335113,-0.394979 0.640333,-0.542182 M 64.71779,86.297109 c 0.01283,-0.470254 0.552174,-1.379232 1.286593,-1.300525 0.264548,0.02838 0.54708,0.06956 0.562269,0.27109 0.03883,0.515116 -0.790581,0.780038 -1.318178,0.886034 -0.18105,0.03632 -0.379317,-0.05524 -0.524852,0.123057 -0.158186,0.193739 0.103177,0.736825 0.203072,0.873455 0.171871,0.235127 0.508763,0.40555 0.796552,0.451818 0.601161,0.09669 1.030175,-0.165635 1.686813,-0.165635 m 13.119655,0.09036 c -0.187236,-0.571639 -0.916783,-1.104513 -1.015179,-1.716906 -0.07263,-0.45191 1.802358,-0.391907 2.139721,-0.451818 m 5.622709,2.078364 -0.187424,-1.44582 m 5.053701,0.698441 c -0.210851,-0.249225 -0.387413,-0.536691 -0.11818,-0.879167 0.199232,-0.253472 0.891387,-0.403204 1.140097,-0.09036 0.258365,0.324855 -0.304561,0.557812 -0.54662,0.677726 -0.194359,0.09633 -0.418797,0.09217 -0.484209,0.316272 -0.04667,0.159944 0.100927,0.354947 0.203074,0.451818 0.45441,0.431035 1.224813,-0.04808 1.780525,-0.09037 m 34.610731,0.282563 c -0.11152,-0.584291 -0.6299,-1.570787 -0.78077,-2.360924 m -4.12332,1.897635 c 0.17337,0.118827 0.38515,0.180726 0.7497,0.180726 0.23428,0 0.77732,-0.07851 1.01629,-0.195077 0.0186,-0.517414 -1.44175,-0.678221 -1.84378,0.104726 -0.11339,0.187052 -0.10683,0.235667 -0.10964,0.451818 -0.007,0.525735 0.11339,1.435696 0.7497,1.716906 0.34204,0.151089 0.71501,0.09551 1.03082,0.01509 0.26708,-0.06795 0.40765,-0.168529 0.56227,-0.286183 0.51449,0.78544 1.4113,1.686094 2.3428,0.813273 0.17242,-0.161479 0.32425,-0.339497 0.40578,-0.542183 0.11433,-0.28329 0.20336,-0.460673 0.34392,-0.632544 0.59601,0.361365 0.52853,0.800532 0.7497,1.536181 m -18.26209,-3.682321 0.55181,1.092077 m 7.80318,-0.516011 c 0.5186,0.0081 0.24635,0.028 1.208,-0.0807 0.3113,0.0075 0.61832,0.134108 0.82729,0.11459 0.75626,-0.07085 0.98773,-0.09036 1.59311,-0.09036 M 60.514938,86.3591 60.38169,85.900221 m 19.150155,-0.236496 -0.766988,-1.661138 -0.296786,-0.722908 m 10.22923,2.129193 c 0.638834,-0.61601 2.030431,-0.954467 3.077848,-0.954467 M 78.878063,85.81833 c 0.280781,0.03525 0.452618,-0.08707 0.644267,-0.180727 m 28.93353,-0.460289 0.13099,0.227631 m 8.4905,-0.498721 0.24848,0.472724 M 52.322472,83.189314 h 0.09371 M 65.254704,74.875863 64.895507,73.06859 64.647525,72.255068 63.474181,70.267329 M 31.518449,74.695135 31.799583,72.7975 m 28.769529,0.993998 C 60.292945,73.351519 60.210947,72.891114 60.038047,72.345682 59.603049,71.617679 59.195799,70.988262 58.694876,70.0866 m 0.922525,1.557392 c -0.252921,0.05671 -0.550389,0.209864 -0.840181,0.216301 -0.678005,0.01506 -1.863617,0.354721 -1.987786,-0.418248 -0.04311,-0.26838 0.04432,-0.635257 0.124918,-0.903637 m -8.059218,1.807274 c 0.226315,0.297658 0.696373,0.456244 1.030832,0.617454 0.228657,0.110244 0.405677,0.182353 0.655981,0.25609 0.825226,0.243078 1.497704,0.04039 1.280761,-0.963909 -0.119482,-0.553025 -0.514478,-0.993729 -0.905914,-1.355455 -0.502482,-0.464377 -1.399773,-0.77541 -1.967947,-1.009089 -0.460782,-0.189493 -0.312717,-0.612396 -0.156217,-0.97891 0.210102,-0.491939 0.939086,-0.328291 1.37447,-0.361455 m -24.833644,4.69892 c 0.651987,-1.595223 1.785004,-3.062103 2.061661,-4.518182 m 1.967951,4.066365 c -1.005597,-1.188168 -1.74792,-2.034235 -2.811357,-3.012093 l -1.124542,-0.813272 -0.749694,-0.421727 m 21.715767,1.922105 c -0.147127,0.145667 -0.384144,0.350722 -0.521243,0.608077 -0.169245,0.317538 -0.592446,1.047856 -0.453003,1.445817 0.279542,0.797279 1.742384,0.672938 2.186672,0.09036 0.574173,-0.753001 -0.320869,-1.40669 -0.905913,-1.867546 -0.132229,-0.104098 -0.343642,-0.200787 -0.343642,-0.391544 0,-0.248229 0.280013,-0.378172 0.421704,-0.542183 0.189766,-0.219583 0.633493,-0.74821 0.437353,-1.084363 -0.427605,-0.73312 -1.654724,-0.009 -1.82738,0.587364 -0.139144,0.480592 1.005452,1.140508 1.005452,1.140508 M 33.298964,72.88787 c 0.30925,-0.298198 0.785023,-0.721011 0.999623,-1.084362 0.201201,-0.34067 0.235686,-0.411877 0.59348,-0.677726 0.271388,-0.201603 0.221626,-0.45968 0.390495,-0.768092 0.199793,-0.365069 0.537165,-1.937754 0.82767,-1.841246 0.263985,0.08757 0.0938,1.58642 0.0938,1.841246 0,0.310761 -0.0041,0.455974 -0.01565,0.722909 -0.0098,0.227895 0.0418,1.045958 0.109362,1.355454 m 17.336688,0.421727 c 0.843406,0.203318 1.726828,-0.309226 1.686812,-1.234998 -0.03252,-0.753273 -0.993532,-1.584618 -1.686812,-1.686819 -0.381595,-0.05621 -0.686533,0.264403 -0.827758,0.602454 -0.312527,0.748121 -0.127446,2.089026 0.827758,2.319363 M 38.17198,68.640781 c 0.429574,0.119912 1.86599,-0.127955 2.046008,0.361453 0.420673,1.143101 -2.117229,1.959265 -1.624305,2.982002 0.365475,0.75815 1.423574,0.54218 2.014804,0.54218 m 20.897736,-1.536181 -0.01565,0.632547 -0.07806,0.632543 0.567957,0.163265 1.399993,0.09274 c 0.992842,-0.04421 1.518912,-0.20249 2.15537,-0.617467 m -43.950848,0.271101 c -0.791022,-0.762758 -1.464903,-1.663323 -2.436507,-2.183818 -0.30297,-0.162293 -0.576704,-0.496728 -0.937119,-0.301182 -0.268485,0.145576 -0.406869,0.319633 -0.424018,0.557922 -0.012,0.166541 -0.04507,0.583464 -0.04507,0.583464 0,0 -0.557245,-0.661736 -0.561743,-0.825113 m 1.124542,2.078362 -0.562272,-1.265088 m -6.466115,-1.355456 c -0.350857,-0.03289 -0.739574,-0.121088 -1.03083,0.105454 -0.6940304,0.539652 -0.12801,2.410451 0.937118,2.424729 0.970386,0.01301 1.161277,-0.714889 1.499389,-1.43607 -0.116202,-0.541992 -0.781275,-1.035557 -1.405677,-1.094113 z M 3.6860237,71.80351 C 3.6040539,71.374463 3.4676749,70.900778 3.3424103,70.538419 3.2277634,70.206783 3.1285225,69.694603 3.1237527,69.363692 c -0.00301,-0.20865 -0.098285,-0.341304 -0.062478,-0.542182 0.050933,-0.285729 0.5209723,-0.28582 0.7184605,-0.391546 0.2834972,-0.151901 0.6835435,-0.467632 0.5310368,-0.873545 -0.1680722,-0.4473 -1.1302863,-0.745229 -1.4369207,-0.361455 -0.2181238,0.27299 -0.1380565,0.644203 -0.062469,0.994001 0.057708,0.267115 0.1292649,0.44992 0.2472106,0.609954 m 6.062716,3.004591 C 8.9418535,70.863999 8.2450593,70.174433 7.4344989,69.740236 6.7129179,69.353661 6.4298051,69.699934 5.9351096,70.176964 L 5.7476861,69.454055 5.5446406,67.917875 5.3728388,66.923874 M 24.115204,71.80351 22.428391,69.815509 m -16.3995695,1.807275 -0.093712,-1.44582 m 28.9510995,0.951645 1.303181,0.06777 M 14.171904,70.819962 c 0.04939,-0.25871 0.446171,-1.554861 0.924166,-1.301737 0.331226,0.175402 -0.05161,0.846786 -0.44576,1.005103 -0.207291,0.08332 -0.400952,0.09379 -0.474891,0.304154 -0.126605,0.36064 0.588751,0.957774 0.849738,1.111574 0.676506,0.398683 1.543715,0.373922 2.155372,-0.04519 m 3.552264,-3.397109 -0.647198,-0.3078 m 20.522892,-1.35545 c 0.870862,0 1.68672,0.08784 2.623931,0 0.375314,-0.03515 0.789332,0.09055 1.124541,-0.120455 0.482522,-0.303803 0.704621,-0.804146 0.749695,-1.325362 0.01817,-0.210278 0.06382,-0.340039 0.124919,-0.542183 0.06672,-0.220306 0.04451,-0.321694 0,-0.542181 -0.156031,-0.773693 -0.244213,-1.340273 -0.374849,-1.988 -0.04489,-0.222566 0.03711,-0.593327 0.06251,-0.903636 m 23.709089,3.524181 0.09371,-1.355454 m 26.051886,0.542181 c -0.08621,-0.393262 -0.293315,-0.848062 -0.437633,-1.265089 -0.388904,-1.125841 -0.834972,-2.652443 -1.624026,-3.433818 m -65.317144,1.807276 c -0.482333,0.146841 -0.938524,0.331816 -1.499388,0.51209 -0.233248,0.07492 -0.56902,0.03742 -0.71849,0.225909 -0.140192,0.176752 -0.0312,0.431216 -0.0312,0.617455 0,0.301724 0.05632,0.463384 0.09371,0.722908 0.05051,0.350611 0.08275,0.665981 0.468561,0.70782 0.670694,0.07292 1.901509,-0.739627 2.530221,-0.978911 m 9.652317,0.994001 c -0.70593,-0.738994 -1.477272,-1.156383 -2.342795,-1.626545 -0.276074,-0.150004 -0.296223,-0.354948 -0.562271,-0.497001 -0.287601,-0.153617 -0.503232,-0.04519 -0.749694,-0.04519 -0.250962,0 -0.410459,0.07672 -0.655983,-0.105454 -0.282071,-0.209192 -0.334926,-0.476668 -0.390497,-0.798182 -0.06569,-0.38043 -0.201762,-1.011892 0.0313,-1.25 0.122574,-0.125424 0.278606,-0.152714 0.452907,-0.180727 0.703683,-0.113135 2.214318,0.375552 2.686437,0.903637 0.37944,0.424437 0.05651,0.898756 -0.34364,1.054181 -0.347058,0.175373 -0.350437,0.205739 -1.030301,0.388526 m -0.843941,2.066387 c -0.146938,-0.76908 -0.365884,-1.644794 -0.619373,-2.2252 m -15.96762,-1.750794 c -0.606877,-0.01536 -0.785023,-0.311664 -1.405677,-0.120455 -0.383375,0.118106 -0.463592,0.227085 -0.468559,0.572273 -0.0032,0.218319 -0.04311,0.469168 0.124918,0.617455 0.205885,0.18163 0.604442,0.0068 0.812201,0.01509 0.492548,0.01979 1.039825,0.294675 1.499388,0.602454 0.498641,0.333893 1.370442,1.693233 0.468559,2.153636 -1.091555,0.557182 -2.376526,-0.323119 -3.363312,-0.389174 M 14.464997,63.11764 c -0.434696,-0.156544 -0.142705,0.0074 -0.901955,-0.573152 -0.163153,-0.09524 -0.290858,-0.153614 -0.458977,-0.274339 -0.193984,-0.139341 -0.398182,-0.111058 -0.609127,-0.150636 -0.479148,-0.08982 -1.1684,-0.349256 -1.577451,0.04519 -0.205885,0.198528 -0.114517,0.431667 0.01556,0.602454 0.146658,0.192565 0.472588,0.329916 0.718488,0.346363 0.874238,0.05855 1.243526,-0.315905 1.546245,-0.798181 0.291158,-0.463856 0.252554,-1.059423 0.01565,-1.626545 -0.249179,-0.59649 -0.658887,-1.265091 -1.468184,-1.265091 m -9.5586043,3.975999 c 0.78076,0.316996 1.8194055,0.355401 2.6239312,0.07527 0.2720778,-0.09471 0.5903421,-0.292603 0.5622659,-0.617459 -0.096842,-1.1206 -1.7608265,-1.24738 -2.1085161,-1.897637 -0.1251522,-0.234042 0.00101,-0.391997 0.1561894,-0.497 0.1921656,-0.130033 0.7269507,-0.318983 0.8277847,-0.587363 0.3363037,-0.895052 -1.5990516,-0.806134 -2.0616601,-0.994 M 73.12649,63.580421 c 0,-0.299917 -0.02858,-0.897943 0.0312,-1.174727 0.06222,-0.287718 0.152002,-0.520404 0.156217,-0.813273 0.0046,-0.317357 -0.0312,-0.443233 -0.0312,-0.722908 0,-0.258893 0.008,-0.402209 0.0312,-0.632546 0.05042,-0.500162 0.149377,-0.606701 -0.09371,-0.993999 l -0.452907,0.361453 -0.484209,0.632546 -1.686813,2.168727 m -30.781418,0.38931 c 0.05166,-0.639275 -0.02008,-0.516387 -0.122072,-1.206477 7.97e-4,-0.89256 -1.274051,-0.456779 -1.536444,0.0039 -0.369224,0.648177 -0.261831,1.592658 0.48421,1.852453 0.261268,0.091 0.560115,-0.153075 0.718486,-0.316272 0.140569,-0.144944 0.259678,-0.340943 0.499768,-0.331363 0.299127,0.01201 0.884545,0.608146 1.218253,0.692816 m 0.187422,-2.078362 c 0.197732,0.381334 0.262583,0.904901 0.515415,1.26509 0.344581,0.490946 0.932153,0.435915 1.452535,0.331364 0.339892,-0.06832 0.604815,-0.143408 0.937117,-0.361455 0.278419,-0.182714 0.344766,-0.299736 0.655984,-0.331363 m 29.987784,0.813273 c 0,-0.390461 -0.04805,-1.482969 -0.04805,-1.482969 0,0 1.648923,0.507312 1.734858,-0.685759 0.04564,-0.634171 -1.463404,-1.832212 -1.921093,-1.084362 -0.30419,0.49691 0.04476,1.351489 0.188889,1.791741 m -9.23208,1.370943 -0.655985,-1.536181 -0.515415,-0.813273 -0.171773,-0.632546 -1.093337,-1.987998 M 7.7223745,62.852031 c 0.4151525,0 0.8589883,0.05546 1.2115136,-0.26561 0.4468179,-0.406907 0.6938421,-1.335394 -0.2811354,-1.204818 -0.4177861,0.05594 -0.8032324,0.680168 -0.8434064,0.933727 -0.037784,0.23847 -0.063256,0.38278 -0.093712,0.542183 -0.6108138,-0.04654 -1.0318609,-0.658933 -0.9214965,-1.355455 0.044382,-0.280127 0.081098,-0.527001 0.1718019,-0.813273 0.081746,-0.412195 0.5082739,-0.99766 1.0601151,-0.914932 m 48.2323072,3.068568 c 1.153028,-0.293411 1.365566,-1.655009 0.655982,-2.424727 -2.810549,-3.044637 -2.56347,2.812148 -0.655982,2.424727 z m 8.059217,-2.153636 c -0.696654,-0.05305 -0.815012,-0.264945 -1.686813,0.256001 -0.236811,0.141508 -0.52535,0.528807 -0.624777,0.737999 -0.114047,0.239915 -0.176929,0.268019 -0.06241,0.542182 0.07056,0.16898 0.180393,0.399226 0.32799,0.512091 0.389655,0.298017 1.028676,-0.190306 1.265111,-0.512091 0.531906,-0.724084 0.577076,-0.967976 0.968322,-1.355454 m 24.927347,1.626544 c 0.504076,0.05115 0.66882,0.368774 1.218254,0.361456 0.348421,-0.0047 0.668541,-0.110246 0.687189,-0.542183 0.02886,-0.666432 -0.927466,-1.112285 -1.343174,-1.460909 -0.308873,-0.258981 -0.262205,-0.414226 -0.655981,-0.527091 m -10.870574,2.349455 c 0,0 0.05153,-1.206902 0,-1.807272 -0.01567,-0.182597 -0.09371,-0.542183 -0.09371,-0.542183 0,0 0.02165,-0.302667 0,-0.451817 -0.06308,-0.434333 -0.374847,-1.26509 -0.374847,-1.26509 m -27.176428,3.975998 c -0.09279,-0.650873 -0.254058,-1.670081 -0.437354,-1.987999 -0.13888,-0.224192 -0.116672,-0.255458 -0.124918,-0.542182 -0.0061,-0.212806 -0.06494,-0.491397 -0.124917,-0.722909 -0.118829,-0.458053 -0.36229,-1.249547 0.218629,-1.430726 0.724392,-0.226 2.579231,0.958577 2.31159,1.701816 -0.203637,0.565496 -1.845205,0.865165 -2.29352,1.001705 m 0.01562,0.01434 c 0.686907,0.296302 2.302629,1.803755 3.246214,1.875594 m 7.122098,-1.084364 c -0.332209,-0.529349 -0.584576,-1.291928 -1.686813,-1.129545 -1.137476,0.167534 -1.167182,1.668294 -0.374847,2.198817 0.507638,0.339949 1.329394,-0.202504 1.624581,-0.543327 z m 26.895293,1.084363 c -0.478117,-0.673841 -1.349917,-2.290446 -1.405677,-2.801271 m -0.374848,2.710908 c -0.392558,-0.653781 -0.749397,-0.523284 -1.33576,-0.7928 -0.229788,-0.13406 -0.36464,-0.20843 -0.632188,-0.276472 -0.280384,-0.07139 -1.1371,-0.297026 -1.358822,0 -0.234748,0.314284 0.07619,0.696341 0.327991,0.843363 0.223223,0.130304 0.541563,0.258259 0.843407,0.225909 0.552151,-0.05919 0.666009,-0.565033 0.855485,-0.939641 0.06413,-0.126789 0.06373,-0.23834 0.08163,-0.415813 0.03664,-0.363353 -0.01004,-0.881498 -0.187421,-1.174727 -0.393684,-0.650799 -0.823917,-0.996169 -1.593104,-0.722909 m -22.137951,2.260501 c 0.40699,0.39245 0.523977,0.631135 1.052794,0.631135 m -36.698292,0.142749 -0.458448,-1.633749 c 0.746413,-0.811736 1.856431,-1.039182 3.045635,-1.039182 m 44.018201,1.519239 c 0.538468,0.04066 1.259492,0.04383 1.582849,-0.146841 m 4.441065,-0.468762 0.655981,-0.105454 0.374847,-0.09036 0.937119,-0.165636 m 9.933453,0.361454 c 0.270641,-0.233504 0.805266,-0.310222 0.718488,-0.722912 -0.117139,-0.556549 -1.583353,-0.722909 -2.030454,-0.722909 M 17.367953,52.01388 c -0.810232,-0.06172 -1.978163,0.07536 -2.623931,0.632545 0.453096,0.535585 1.697496,1.470667 2.31159,2.093453 0.271857,0.2757 0.323024,0.416757 0.687187,0.421637 M 7.5282106,55.628424 C 7.2402249,54.669124 7.2470753,53.915039 7.19363,52.90975 7.1401852,52.411943 6.8399724,51.318803 6.5910926,50.748789 M 45.856348,55.53806 c -0.729078,-0.722005 -1.937023,-2.411353 -3.092489,-2.349454 -0.434916,0.02331 -0.526474,0.538748 -0.57792,0.813273 -0.04976,0.26594 -0.15247,0.394347 -0.265486,0.542181 -0.624685,-0.378623 -0.601818,-1.166142 -0.780902,-1.897635 -0.159403,-0.650889 -0.538375,-1.400546 -0.999623,-1.897636 m -3.279915,3.614544 c 0.602568,0.581038 1.617655,1.240421 2.530219,1.069273 0.608003,-0.113949 1.213662,-0.747307 0.8122,-1.340364 -0.374097,-0.552573 -1.377374,-1.102797 -2.030452,-1.295181 -0.337458,-0.09949 -0.998408,-0.113677 -1.202606,-0.421727 -0.159965,-0.241271 0.0805,-0.393985 0.265488,-0.512091 0.153217,-0.09777 0.412987,-0.146389 0.562271,-0.210818 m 4.310742,3.795272 -0.187422,-0.903637 M 1.7180774,55.266969 c 0.5241117,0.09307 0.8462273,0.09036 1.3119656,0.09036 0.9315144,0 2.0332376,-0.700589 1.6087227,-1.716908 C 4.5356363,53.393551 4.4435362,53.297404 4.2639186,53.098243 3.6246259,52.38934 2.7021267,52.206535 1.8117893,52.194607 c -0.2251988,-0.003 -0.3998214,0.03985 -0.4373249,-0.180727 -0.033268,-0.195638 0.083104,-0.334075 0.2499015,-0.481909 0.6340729,-0.562153 1.0740215,-0.731584 1.7805244,-1.054273 m 26.7078717,0.451818 c -0.376815,0.265127 -0.541934,0.466457 -0.749694,0.903636 -0.471372,0.991741 -0.757378,2.163395 0.187422,2.981999 0.704528,0.610406 1.946302,0.464289 2.623932,0 M 18.143024,53.357353 c 0.43754,0.177655 1.799192,0.0746 2.083139,-0.439837 0.108799,-0.197174 -0.03505,-0.482271 -0.234279,-0.587364 -0.325556,-0.171691 -0.663199,0.16139 -0.937118,0.286182 -0.560398,0.255096 -0.568457,0.287265 -0.859057,0.662636 -0.15678,0.202505 -0.274669,0.243801 -0.343548,0.451818 -0.131571,0.397148 -0.08829,1.018635 0.142764,1.449999 0.112365,0.209773 0.254199,0.256427 0.556139,0.462728 0.326118,0.222746 0.859338,0.358291 1.253396,0.421636 0.365944,0.05883 0.622996,0.01509 1.03083,0.01509 m 41.701764,-5.421816 c 0.222941,0.35522 0.67456,1.567245 0.67456,1.567245 0,0 -0.33954,-0.05158 -0.487137,-0.01597 -0.306905,0.07392 -0.867584,0.346002 -1.124542,0.542181 -0.216757,0.165456 -0.554493,0.798814 -0.562271,0.978909 -0.0097,0.224915 -0.01041,0.235126 0.03121,0.451818 0.01939,0.100936 0.05276,0.264946 0.109361,0.361454 0.229874,0.392088 0.806671,0.521127 1.265109,0.361455 0.438761,-0.152805 0.872646,-0.547694 1.077685,-0.903636 0.147691,-0.256362 0.164092,-0.432209 0.421703,-0.481909 0.153408,-0.02964 0.316465,0.180908 0.406055,0.301182 0.182364,0.244795 0.361822,0.493295 0.531064,0.722908 m -54.727709,0.331364 c 0.374754,0.125425 0.796644,-0.127865 1.03083,-0.331364 0.552337,-0.480101 0.426951,-1.519463 -0.374847,-1.77718 -0.393683,-0.12651 -0.9560487,0.203046 -1.2026043,0.51209 -0.3195573,0.400491 -0.012464,1.409221 0.5466213,1.596454 m 1.874237,0.03009 c -0.186972,-0.279549 -0.324129,0.0059 -0.541977,-0.854188 m 1.947653,0.854187 0.06251,-1.084363 -0.01565,-0.632545 0.421703,-0.271091 0.843407,-0.271091 m 52.47862,2.168726 -1.124543,-1.536181 M 51.291636,50.929516 c -0.45366,0.593599 -0.93712,1.778446 -0.93712,2.620545 0,0.321242 -0.0021,0.554923 0.281135,0.798182 0.888388,0.762939 2.826536,0.26097 3.654761,-0.07527 m 15.649875,0.361454 C 69.464172,53.478959 68.933065,52.659397 68.002631,51.155425 L 67.410068,50.296971 M 55.883516,54.54406 c -0.357513,-0.467812 -1.384218,-1.914443 -1.077688,-2.439817 0.270264,-0.463294 2.222281,-0.58167 2.7645,-0.632545 0.23737,-0.02223 0.377845,-0.05648 0.562269,0.04518 m 0.286992,1.259443 c 0.09784,-1.131145 1.877725,-1.912603 1.446676,-0.67208 -0.162215,0.303261 -1.431258,0.616822 -1.436882,0.632546 -0.04395,0.122984 -0.02868,0.217324 0.01557,0.361454 0.118358,0.38522 0.572673,0.899299 0.999623,1.099454 0.679693,0.318532 0.931028,-0.01509 1.593101,-0.01509 m 11.620268,0.09036 c 0.321429,0 0.61803,-0.08612 0.937116,-0.09036 0.479617,-0.0064 1.446161,-0.19627 1.140192,-0.813272 -0.287228,-0.578959 -1.325367,-0.977914 -1.889889,-1.249999 -0.571359,-0.275519 -1.364225,-0.148492 -1.405676,-0.647636 -0.03942,-0.474738 1.218254,-0.813272 1.218254,-0.813272 m -37.4086,3.404871 c -0.102896,-0.538567 0.07334,-0.813474 -0.103629,-1.163245 -0.237569,-0.46956 -0.189547,-1.066901 -1.190765,-1.066901 -1.710054,0 -2.078529,1.932245 -0.827758,2.861545 0.469498,0.348803 1.393307,0.147292 1.749225,-0.241 0.161278,-0.175938 0.178991,-0.350159 0.390499,-0.391546 0.06194,-0.01211 0.765438,0.554833 0.937115,0.572273 M 63.924621,53.50762 C 63.668699,53.198262 63.520524,52.882767 63.231633,52.239612 M 6.216245,52.917516 c 0.9911691,0.372846 2.09426,-0.323385 2.8113549,0 m 4.4515761,0.270582 -0.328255,-1.354946 m 54.165435,-0.180727 c 0.934061,0.436059 1.92428,0.08987 2.998778,0.271091 m -5.060438,-0.994 -0.655983,-0.451818"
       id="path553"
       sodipodi:nodetypes="ccccccacccccccccccacccccccccccccscccccccccccccccccccaccccccccccscccccscscssssccsccccccccccccccccccccccccsccccccccccccccccccccccccccccccccccccccccccccccccccccccccccccccsccaccscccccccccccacccccsccccccscccccccccscscccccccccscccccccccccscccccccscccccccccccccccscccccccsscccccccccccccccccccccccscccccccccccccccccsccccccccccsccsccsscccccccccccccccaccccccscccccccscccccscccccccccccccccccccccccccccccccccccccccccasccccccccccccccccccccsccaccscccscccccscccccccccccccccccccccscccsssccccccccccccccccccaccccccccccccscccccccccsscccccscccccccccccccccccccccsscaccccccscccccsccccccccccccccccccccccccccccccsccccccccscccccccccccacaccccccscccccccccccccccsassccccccccccccccccccccccccccccccccccccccsccccccccccccccccacsccccccscssccccccccccccccccccssccccccccccccccccccaccascscccccccccccc" />
  </g>
</svg>
