<?xml version="1.0" encoding="UTF-8" standalone="no"?>
<!-- Created with Inkscape (http://www.inkscape.org/) -->

<svg
   width="3000"
   height="1998.207"
   viewBox="0 0 793.74998 528.69227"
   version="1.1"
   id="svg1019"
   xml:space="preserve"
   inkscape:version="1.2.1 (9c6d41e410, 2022-07-14)"
   sodipodi:docname="JoshW-Stake-Envelope16.svg"
   xmlns:inkscape="http://www.inkscape.org/namespaces/inkscape"
   xmlns:sodipodi="http://sodipodi.sourceforge.net/DTD/sodipodi-0.dtd"
   xmlns="http://www.w3.org/2000/svg"
   xmlns:svg="http://www.w3.org/2000/svg"><sodipodi:namedview
     id="namedview1021"
     pagecolor="#ffffff"
     bordercolor="#000000"
     borderopacity="0.25"
     inkscape:showpageshadow="2"
     inkscape:pageopacity="0.0"
     inkscape:pagecheckerboard="0"
     inkscape:deskcolor="#d1d1d1"
     inkscape:document-units="px"
     showgrid="false"
     inkscape:zoom="0.16535615"
     inkscape:cx="-1593.5301"
     inkscape:cy="1015.9888"
     inkscape:window-width="1366"
     inkscape:window-height="705"
     inkscape:window-x="-8"
     inkscape:window-y="61"
     inkscape:window-maximized="1"
     inkscape:current-layer="layer1" /><defs
     id="defs1016" /><g
     inkscape:label="Layer 1"
     inkscape:groupmode="layer"
     id="layer1"><path
       style="fill:none;stroke:#847d9d;stroke-width:0.0826167"
       d="M 2.9328018,1.8913834 C 2.7814409,1.9403854 1.9112187,2.0523372 2.249022,2.2493942 2.880758,2.6178973 4.5693413,3.5484253 4.8352088,4.2846795 4.9255261,4.5347847 4.8802106,4.8689276 4.89029,5.1108456 4.899845,5.3398504 4.8708758,5.4674849 4.7939026,5.6891617 4.5066935,6.5163274 3.7605328,7.093644 2.8937203,7.093644 c -0.316382,0 -0.8078249,-0.018365 -1.1566327,-0.1652333 m 35.1946744,-4.543913 0.564519,1.8175651 0.123925,0.660933 0.0551,0.4956995 0.165234,0.7435495 c 0.125741,-0.129105 0.252723,-0.3129931 0.42688,-0.4956997 0.118307,-0.124181 0.288331,-0.2502125 0.481902,-0.2340858 1.24809,0.1040061 1.659768,2.4232359 2.230648,3.0430504 M 6.3636163,2.5497308 c 0.04643,0.2522204 0.1073194,0.334994 0.1377218,0.5783164 0.068737,0.5499786 0.3502949,1.5246562 0.3579787,1.8175651 -0.5185011,0.040937 -1.2726265,0.24785 -1.9001823,0.24785 M 28.504868,7.3414938 c -0.379046,0.339166 -0.917128,0.5715417 -1.404481,0.5783164 -0.166722,0.00232 -0.346164,0.03346 -0.495701,-0.041308 -1.051627,-0.5258218 -1.08583,-2.5711856 -0.798654,-3.5112057 0.152593,-0.4992933 0.445963,-1.0883992 0.881271,-1.3907182 0.192,-0.133335 0.608884,-0.2260639 0.798654,0 0.134336,0.1601027 0.105751,0.3154631 0.110128,0.4819357 M 50.480886,7.7545768 C 49.720979,7.8945295 47.564353,8.8613089 46.887062,7.5067271 46.436307,6.6051487 47.044695,4.7519508 47.410273,3.9542131 47.528662,3.6960279 47.660354,3.4400488 47.768334,3.2106636 47.87111,2.992242 48.107228,2.8095685 48.305343,2.9765779 48.491726,3.133756 48.41547,3.5544727 48.41547,3.7063634 M 60.960192,3.5151245 c 0.426713,0.6236729 0.20528,0.2933988 0.712297,0.7604303 m 2.192286,-0.8996579 c 0.310969,0.4220305 0.578317,1.0861192 0.578317,1.652332 -0.687618,0 -0.826085,-0.1652331 -1.569716,-0.1652331 M 59.073012,3.8715964 c 0.24942,0.5923942 0.111616,1.0082037 0.275361,1.5697156 0.07213,0.2471476 0.05202,0.4273543 0.08944,0.672643 0.03577,0.2338379 0.07851,0.6232167 0.126071,0.9034699 0.04616,0.2719925 0.437264,0.3413307 0.665762,0.4893052 M 59.571478,6.9989788 c -0.111221,0.1880923 -0.195096,0.1705485 -0.347026,0.3149706 -0.17234,0.163895 -0.653745,0.6836028 -0.894988,0.7572968 -0.37987,0.1160764 -0.968146,-0.128009 -1.07987,-0.3945699 -0.252324,-0.60201 -0.08015,-1.3899539 0.666789,-1.8360422 0.522881,-0.3122577 0.952001,-0.2333227 1.450676,-0.2464422 M 57.188117,7.789707 c -0.150876,0.080591 -0.228931,0.061036 -0.428366,0.1025918 -0.595336,0.1240075 -1.387878,0.03032 -1.900183,-0.3304996 -0.25008,-0.1761138 -0.473476,-0.6146096 -0.4957,-0.8812382 -0.01304,-0.1565998 -0.03993,-0.2999563 0.04131,-0.4130831 0.08276,-0.115249 0.35677,-0.3769449 0.468187,-0.4819325 0.279741,-0.2615228 1.440421,-0.8745959 1.679844,-0.2616137 0.165482,0.4237157 -0.979005,0.8962165 -1.280556,0.9087826 -0.340546,0.014194 -0.702117,-0.066089 -0.909154,-0.1403927 m -41.1427,-2.2554919 c 0.100816,0.8026018 0.267324,1.6902674 0.346841,2.5537639 M 31.52591,6.1614414 c -0.336333,0.4122733 -0.845082,1.5030172 -1.616556,1.2351247 -1.090786,-0.3787475 -0.970334,-2.7041159 0.08262,-3.0843423 0.175393,-0.063326 0.323527,-0.065887 0.495698,-0.082616 0.376568,-0.036607 0.863262,0.099115 0.977602,0.4681551 0.112195,0.3619433 -0.150857,1.1243295 0.05511,1.473335 0.260406,0.4411892 0.896721,0.5582818 1.197939,0.3442304 M 16.112379,7.1762607 C 15.3666,6.9603918 14.196925,5.4220043 13.748318,4.8131281 m -0.405732,0.095223 c 0.174733,-0.124181 1.323836,-0.1704122 1.61316,-0.2105887 0.747351,-0.1037913 1.573847,-0.4936342 2.230649,-0.1652333 m 51.635379,-0.165233 -1.102643,0.6609328 c 0.415643,0.3718987 0.543246,0.1870689 1.102643,0.3580108 0.615411,0.1880438 1.205211,0.7093792 1.473303,1.2943213 0.227938,0.4973519 0.150113,1.2275175 -0.178948,1.652332 -0.362356,0.4676926 -0.927702,0.632017 -1.294355,0.6609328 M 10.824916,4.4774571 c 0.255038,-0.063747 0.489834,0.092142 0.633422,0.3029221 0.172255,0.2529059 0.118417,1.1232288 0.201041,1.445792 0.173218,0.676241 0.51004,1.2476692 1.065719,0.8674759 M 11.656614,6.2024266 C 11.500058,6.3511943 11.393236,6.3891144 11.237999,6.4602556 11.066322,6.5389479 10.844248,6.6792474 10.659684,6.7356333 9.9562858,6.9505769 8.9070544,6.5683677 9.2000948,5.6891617 9.4310916,4.9961488 10.191081,4.6359074 10.824916,4.4774571 m 6.051155,0.8191363 c 0.223561,0.1242133 0.561561,0.1368618 0.723407,0.089646 0.510157,-0.1488008 1.237358,-0.8717304 0.826166,-0.9363269 -0.452916,-0.071151 -0.896451,0.2997926 -1.34059,0.5860387 -0.271284,0.1748419 -0.447563,0.7133799 -0.476975,1.0662933 -0.109385,1.3127861 2.254691,1.239249 2.808964,1.239249 M 34.1228,7.6719602 C 34.351814,8.0258897 35.909549,8.1666686 36.022983,7.4241104 36.158554,6.5369732 34.994819,5.6848328 34.288032,5.4688563 33.884534,5.345551 33.564145,5.5620066 33.31043,5.1934623 33.149907,4.9603346 33.445674,4.6516376 33.792334,4.6151459 M 7.4376343,6.9284107 7.0518785,5.6231055 6.8810237,4.9452406 7.4376343,4.9456153 9.1725847,4.8629989 M 64.443094,5.028232 65.930193,5.3586984 m 1.659823,-0.3216839 0.157742,-0.00878 m -3.29687,-0.00684 c 0,0.5581249 0.308462,2.2408378 0.570522,3.1462745 M 51.967988,7.7545808 C 51.810189,7.5612001 51.63661,7.3159527 51.5687,7.093648 51.479456,6.7963416 51.394232,6.2587787 51.340081,5.7793191 m 0.06003,0.4616238 c 0.02743,-0.2434299 0.20754,-0.4736223 0.42127,-0.5923591 0.609298,-0.3384967 1.50953,-0.042035 2.046785,-0.042035 m -16.02762,0.4956997 0.165232,1.239249 M 61.468897,6.2674819 c 0,0.630563 0.30915,1.90233 1.074015,1.9827986 M 1.3240066,9.1590631 C 1.7120809,9.1693065 1.993714,9.2484544 2.4806394,9.2416798 3.1548901,9.232345 4.3924117,8.8323144 5.0279814,9.4344242 5.5417658,9.9212013 4.548091,10.88898 4.1798104,11.16905 4.035084,11.279178 3.8638756,11.429982 3.630647,11.54909 c 0.1933486,0.04662 0.4520172,0.187722 0.584294,0.272239 0.4348535,0.27784 0.8915849,0.629097 1.0471261,1.138098 0.2643734,0.865244 -0.9368067,1.706281 -1.6247949,1.734949 -0.1785596,0.0074 -0.3604494,0 -0.4957005,0 m 5.4099442,-0.703215 c -0.026135,-0.244463 -0.084233,-0.37634 0.070261,-0.618655 0.1419348,-0.222569 0.4106875,-0.411678 0.6334221,-0.289158 0.2723031,0.149784 0.1041789,0.444064 -0.082617,0.578316 C 8.929855,13.83615 8.8993074,13.851892 8.7049518,13.929683 8.438644,14.036274 7.7981727,14.321358 7.437632,14.281289 6.379314,14.163725 6.6429427,12.590292 6.9281355,11.968024 7.0152959,11.77784 7.0837024,11.509171 7.1622728,11.307091 7.2813227,11.000914 7.445564,10.857657 7.6854834,10.563541 m 8.0964266,4.87438 c 1.134987,0.776596 2.685041,-0.578234 1.969001,-1.900182 -0.274947,-0.507679 -0.899776,-1.082112 -1.4733,-1.225452 -0.258177,-0.06461 -0.892922,0.08956 -1.03271,-0.11021 -0.116075,-0.165729 0.03346,-0.532712 0.09642,-0.729753 0.267512,-0.837567 1.388702,-0.952735 1.845075,-0.330466 m -5.865778,-0.330467 c 0.402095,0 0.637799,0.07692 0.991398,0.234053 1.525185,0.677869 0.707381,2.285477 0.21473,3.116339 -0.236338,0.398588 -0.373102,0.500737 -0.875662,0.353559 -0.277591,-0.09104 -0.291968,-0.555845 -0.151436,-0.715956 0.136399,-0.155567 0.952001,-0.08094 1.131251,-0.0015 0.474642,0.210446 0.511911,0.858203 1.168216,0.979071 m 11.648942,-2.065415 c -0.264785,-0.02784 -0.411099,-0.0035 -0.660932,0 -0.280898,0.0039 -0.414736,0 -0.660932,0 -0.631275,0 -1.031621,0.06778 -1.457179,0.147668 m 3.192127,-1.717384 c -0.658125,-0.329062 -1.595493,-0.206045 -2.313266,-0.09641 -0.411099,0.06287 -0.813218,0.06507 -1.074015,0.195033 -0.08386,0.218026 0.04916,0.703918 0.09641,0.89278 0.07683,0.307582 0.05832,0.485123 0.09289,0.765505 0.05987,0.485551 0.198759,2.063902 0.15745,2.928237 0.758957,0.127213 1.77187,-0.436005 2.544831,-0.802162 m 9.25306,0.74355 C 34.113875,15.569193 33.731595,15.290734 33.34594,14.942587 32.820912,14.468616 31.627966,13.955372 31.295598,13.48768 m -0.256687,0.0828 c 0.520733,-0.37004 2.434933,0.284333 2.836036,-0.445833 0.389041,-0.708272 -0.680017,-1.815004 -1.321865,-2.037904 -0.265943,-0.09237 -0.560388,-0.163829 -0.826167,-0.08262 -0.749994,0.229178 -0.826166,1.019902 -0.826166,1.624821 0,0.318404 0.07495,0.662603 0.159339,1.041126 0.144729,0.649194 0.01576,1.089528 0.03864,1.958655 m 45.241152,-4.404264 0.08262,1.487099 -0.0016,0.589546 0.497354,-0.01123 0.413084,0.0138 1.239249,0.234053 M 47.951326,11.339294 c 0,0 0.114303,0.123016 0.161593,0.210483 0.04729,0.08747 0.122148,0.314319 0.122148,0.314319 0.01431,0.386748 0.0074,0.701149 0.08399,1.095331 0.0661,0.339802 0.04169,0.632223 0.08233,0.925434 0.07569,0.54613 0.05374,0.724002 -0.06854,1.387827 M 3.2456663,11.625847 3.6372698,11.554941 M 67.970423,14.69958 c 0.383376,0.115158 0.507925,0.08934 0.857203,0.086 0.298943,-0.0029 0.758266,-0.04701 0.985544,-0.09121 0.157303,-0.03057 0.320352,-0.024 0.475404,-0.04781 m 18.19595,-2.265455 c 0.578315,-0.750076 1.950578,-0.124338 2.726349,0.220338 0.310637,0.138053 0.918697,0.386977 0.977354,0.771061 0.03057,0.196462 -0.169365,0.370783 -0.316422,0.468188 -0.308986,0.204724 -0.811438,0.268192 -1.116638,0.366761 0.185925,0.101855 0.424311,0.301443 0.620938,0.459406 0.218109,0.174981 0.545271,0.447038 0.729505,0.688444 0.367644,0.480746 0.563444,1.375731 0.01405,1.803768 -0.59649,0.464718 -2.012539,0.224056 -1.569716,-0.399286 m -8.344283,-3.552513 c 0.07849,-0.212077 0.147057,-0.395568 0.275114,-0.578316 0.16358,-0.23174 0.35773,-0.364918 0.633668,-0.330467 0.907957,0.113515 1.404484,1.244619 1.404484,2.065415 0,0.674317 -0.369297,1.648862 -0.716288,2.148032 -0.140447,0.202163 -0.225542,0.260573 -0.426301,0.413083 -0.143752,0.108889 -0.191669,0.24818 -0.247849,0.330466 -0.166061,0.240828 -0.722069,0.557993 -1.088062,0.578317 -0.300724,0.01669 -0.572533,-0.213399 -0.702241,-0.4957 -0.294115,-0.641766 0.342033,-0.916053 0.867475,-0.908783 0.582447,0.0081 1.057538,0.265765 1.303516,0.493629 0.274886,0.254643 1.551721,1.153497 1.918538,-0.08055 m -48.413336,-4.18593 c 0.6359,-0.123594 0.875634,0.595577 0.943657,1.232624 0.07042,0.65954 0.71636,1.270892 1.361512,0.863427 m -0.07452,-1.793096 c -0.355831,0.5879 -0.141071,1.505759 0.09927,1.809471 0.104608,0.132187 0.51585,0.18347 0.809512,0.200839 0.248036,0.01467 0.466312,-0.01923 0.735643,-0.01923 m -2.938316,-0.991027 c -0.233142,0.30312 -0.667096,0.6769 -1.101992,0.803717 -0.537503,0.156806 -0.967935,-0.669938 -0.908781,-1.142836 0.07592,-0.607562 0.546838,-0.86136 1.074016,-0.963888 m 20.781306,1.474108 c -0.09061,1.165431 -0.925971,1.775373 -1.449018,1.513891 -0.458096,-0.24595 -0.692009,-0.687044 -0.847468,-1.145571 -0.04542,-0.16443 0.0166,-0.371895 0.04601,-0.60727 0.02966,-0.237027 0.248332,-0.869426 0.553602,-1.014819 1.328066,-0.632525 0.99208,0.702751 1.652333,1.197941 l 0.535533,0.383916 c 0.193361,0.138617 1.226653,0.770266 2.159739,0.549242 m 0.956776,-2.025063 c -0.388049,-0.08171 -1.081184,-0.50747 -1.834483,-0.07852 -0.425723,0.24248 -0.770978,0.732314 -0.963888,1.129121 -0.102858,0.211747 -0.288092,0.557025 -0.359637,0.884314 -0.100366,0.459133 2.11e-4,0.87398 0.579975,0.933252 0.655729,0.07287 1.321596,-0.301751 1.762503,-1.032706 l 0.523251,-0.867472 0.353561,-0.502201 c 0,0 -0.01637,-0.661422 -0.0782,-0.984898 -0.140646,-0.735817 -0.660932,-2.148032 -0.660932,-2.148032 m 34.616357,2.395877 0.109879,0.660933 c 0,0 0.114909,0.708474 0.172454,1.062306 0.165166,1.015594 0.709065,2.985908 0.709065,2.985908 m -57.865303,0.941718 c 1.010731,-0.348312 1.654593,-2.089636 2.167914,-2.924516 0.11827,-0.192359 0.149021,-0.223078 0.239847,-0.429458 0.134967,-0.306676 0.272045,-0.541453 0.421085,-0.809792 0.30213,-0.543782 0.723805,-1.271717 1.170429,-1.404482 m 44.282502,0.08262 c 0.168537,0.799646 0.412257,1.616476 0.495698,2.478498 0.05618,0.578895 0.124287,0.943568 0.330466,1.404482 M 75.422819,12.963563 c 0.539653,0.142018 0.634595,0.245924 0.991398,0.330467 -2e-6,0.513131 -0.169597,2.070197 0.09089,2.970057 m -4.626524,1.569716 c 0,-0.250907 0.02752,-0.412423 0.04131,-0.660933 0.0152,-0.274288 0.04131,-0.4073 0.04131,-0.660933 0,-0.402839 0.0363,-1.498536 -0.01536,-1.892366 -0.03628,-0.276503 0.01979,-0.474849 0.01766,-0.663418 m 0,0.165605 c 0.256331,-0.359341 0.526161,-0.482258 0.72469,-0.631215 0.236365,-0.177296 0.477228,-0.188922 0.760109,-0.255759 0.504621,-0.119133 1.0641,0.31543 1.211738,0.798655 0.216041,0.707115 -0.443404,1.254863 -1.046506,1.321865 -0.971319,-0.08104 -1.218508,-0.104284 -1.641474,-0.479325 M 61.468894,13.455122 c 0,0 0.146075,0.538448 0.217135,0.772179 0.121404,0.399324 0.179031,1.239249 0.179031,1.239249 M 48.232508,11.880375 c 0.03649,-0.345382 0.210472,-0.34278 0.348196,-0.57328 0.304898,-0.26572 0.677373,-0.771061 1.074016,-0.826166 0.363346,-0.05048 0.616071,0.08369 0.908781,0.234052 0.226454,0.116407 0.396477,0.237028 0.578318,0.426881 0.712814,0.744293 0.106326,1.636965 -0.495701,2.230648 -0.197287,0.194562 -0.443734,0.366405 -0.660932,0.523211 -0.133427,0.09641 -0.343724,0.136546 -0.456741,0.164261 -0.168131,0.04123 -0.902631,0.03069 -1.114462,-0.02516 m 0.967488,0.03551 c 0.553118,0.509497 1.166499,0.740864 1.842965,1.050924 0.299979,0.137474 0.666054,0.316669 0.991398,0.316669 0.228683,0 0.346907,-0.03999 0.578316,-0.08262 -0.179773,-0.620946 -0.234466,-1.270643 -0.01379,-1.982798 0.06742,-0.217529 0.187128,-0.382184 0.426882,-0.385572 0.211828,-0.0029 0.538393,0.0096 0.729898,0.126658 0.256111,0.156476 0.874004,0.472524 1.109793,0.684353 0.236036,0.212077 0.212151,0.376398 0.382011,0.74908 0.280727,0.615935 -0.726676,1.140229 -1.560775,1.221358 -0.541716,0.05271 -0.756933,-0.104344 -1.074015,-0.413083 m 37.425322,-1.156632 0.535695,0.0088 M 66.838972,16.42932 c 0.182412,-0.312946 0.387164,-0.630125 0.614449,-0.957486 0.176629,-0.254403 0.302349,-0.549633 0.514632,-0.777463 0.152218,-0.163365 0.350934,-0.399854 0.427024,-0.536915 0.292959,-0.527259 0.757676,-1.204054 1.142919,-1.652332 0.304771,-0.35459 0.300535,-0.434182 0.528557,-0.865305 0.09625,0.428262 0.242318,1.911386 0.242318,2.476236 0,0.159946 -0.0057,0.417584 0.0045,0.574904 0.02668,0.410738 0.04225,0.484065 0.06136,0.935615 0.01199,0.283285 -0.0328,0.497539 -0.09121,0.814456 m -4.93164,-0.176943 c 0,0.879866 -0.36665,2.039721 -0.908781,2.726347 M 3.273688,20.444599 4.0258884,20.370079 C 4.3470175,20.338269 4.4302459,20.356419 4.7112912,20.21589 5.213947,19.96457 6.0109501,19.292071 5.5925366,18.659971 5.2125911,18.086034 3.6982372,17.28614 3.1415751,17.833806 c -0.5222926,0.513875 -0.1002375,1.416792 -0.01377,1.982798 0.036683,0.240084 0.078041,0.341792 0.1293237,0.590737 v 0 c 0.1144668,0.555647 0.1603772,0.74476 0.3250658,1.309445 0.0952,0.326418 0.055081,0.39309 0.055081,0.743549 M 6.363621,17.668569 c 0.3391429,0.75809 0.060823,2.33931 0.5120749,2.974384 0.1079798,-0.07882 0.3024432,-0.256958 0.4105049,-0.413269 0.152759,-0.221082 0.5368427,-0.475789 0.8949853,-0.289158 0.7157092,0.372931 0.9889208,2.660833 1.8037691,2.106723 m 22.4028968,1.156633 c 0.154825,-0.255781 0.276519,-0.675721 0.440596,-0.908783 0.0941,-0.133591 0.179405,-0.250666 0.274001,-0.398963 0.09683,-0.151766 0.174194,-0.34566 0.276804,-0.50982 0.2267,-0.362769 0.453647,-0.794936 0.674729,-1.156632 0.19291,-0.315761 0.623672,-0.94194 1.052278,-0.931233 0.08504,0.231024 0.25579,1.05491 0.25579,1.426933 0,0.424484 0.01436,0.696231 0.0019,1.074015 -0.003,0.237502 -0.03448,0.352784 -0.03754,0.572462 -0.05511,0.591876 -0.294691,1.298391 -0.294691,1.906037 m -14.12744,-4.791763 c 0.130286,0.159697 0.113104,0.268173 0.4957,0.495699 m 3.63513,-0.24785 c 0,0 0.299296,0.504258 0.468188,0.74355 0.222377,0.315069 0.459924,0.662938 0.680827,0.979043 0.185332,0.265205 0.329457,0.514278 0.544627,0.755906 0.147776,0.165946 0.347637,0.415081 0.49979,0.577023 0.435907,0.463947 1.111233,1.405775 1.111233,1.405775 m 19.554721,-1.646477 c -0.287057,0.312241 -0.943545,0.791643 -1.103821,1.316011 -0.170686,0.558818 -0.179361,1.583263 0.633422,1.707437 0.31419,0.048 0.724878,-0.258755 0.798654,-0.468188 0.05114,-0.145241 0.02751,-0.216622 0.02751,-0.413083 0,-0.30403 -0.07411,-0.416058 -0.151439,-0.74355 -0.135656,-0.57435 -0.03793,-0.671528 -0.42682,-1.151747 C 47.3903,22.447827 47.1486,21.798986 46.845893,21.3037 c -0.09484,-0.155237 -0.298823,-0.496196 -0.206541,-0.647136 0.08262,-0.135243 0.17445,-0.239316 0.355215,-0.347213 0.252477,-0.150858 0.612968,-0.214497 0.925341,-0.2449 0.251238,-0.02445 0.377311,-0.04968 0.660935,-0.04968 0.26049,0 0.508339,-0.0027 0.743549,0.15981 0.336579,0.232648 0.374075,0.292343 0.267076,0.604394 -0.216697,0.631964 -1.237133,1.269645 -1.696976,1.769831 z m 2.445573,2.341088 c 0.177875,0.3949 0.176723,0.342723 0.554034,0.379404 0.57972,0.05635 1.409934,-0.09088 1.790053,-0.660932 0.348735,-0.523211 0.418296,-1.232722 0.01372,-1.734949 -0.650771,-0.807908 -1.708016,-1.144735 -2.464701,-0.826166 -0.09625,-0.182913 -0.215637,-0.463944 -0.305811,-0.660933 -0.122816,-0.268291 -0.154546,-0.277539 0.04447,-0.574222 0.30164,-0.449666 1.108786,-0.106621 1.748321,0.07852 m -15.201456,-0.74355 c 0.668946,0 1.41514,0.165234 2.065416,0.165234 0.167712,0 0.434397,-0.05279 0.509497,0.165233 0.113268,0.329144 -0.250659,0.655893 -0.454392,0.908782 -0.516768,0.641518 -2.020637,1.846895 -2.175626,2.643732 -0.07039,0.361943 0.192248,0.459513 0.468188,0.578316 0.780809,0.336166 1.927529,-0.146397 2.643732,-0.165233 M 17.54812,21.835262 c 0,-0.282384 0.1362,-0.508843 0.244098,-0.862029 0.244214,-0.799233 1.05617,-0.781222 1.62482,-0.316669 0.224801,0.183574 0.37855,0.417462 0.550805,0.647136 0.401765,0.535768 0.649699,1.322692 1.184146,1.734948 m 6.03101,-2.561114 -0.63016,1.420857 c 0,0 -0.167033,0.490426 -0.224311,0.727175 -0.132284,0.546753 -0.467394,1.569715 -0.467394,1.569715 M 6.8593144,20.642767 6.7766973,22.625566 M 17.269007,21.3037 l 0.282261,0.537008 c 0.179299,0.341124 0.306464,0.937616 0.378671,1.280557 m -7.187645,-0.316669 c -0.296015,-0.148049 -0.429402,-0.416954 -0.576744,-0.699478 -0.08305,-0.159239 -0.08418,-0.328521 -0.08418,-0.470952 0,-0.390942 -0.1272016,-1.239093 0.619627,-1.487099 1.079313,-0.358416 1.626694,0.472734 1.803806,1.156633 0.130581,0.504223 -0.781022,1.991638 -1.762507,1.500896 z m 1.853981,-1.645167 c 0.08357,0.295209 1.215154,0.383776 1.368077,0.337015 0.3707,-0.113267 1.32261,-0.287257 1.26676,-0.853677 -0.05122,-0.520072 -0.884657,-0.408787 -1.184143,-0.234053 -0.491239,0.286514 -0.465197,0.687859 -0.567371,1.141361 -0.0398,0.176677 0.07746,0.512376 0.181798,0.662408 0.434812,0.624994 1.554019,0.43572 2.203139,0.247849 m 6.361469,-1.074016 c 0.347567,0.695136 0.488841,1.713882 0.991399,2.395882 m 9.997255,-2.10967 1.403836,0.209488 0.707775,0.09433 m 24.655524,0.153523 0.302956,1.817565 0.129443,0.465198 c 0.04146,0.452392 0.105675,2.115992 0.64161,2.509 M 54.281246,22.33641 c 0.305022,-0.145901 0.962071,0.319809 1.23925,0.550805 0.240414,0.200346 0.465544,0.455053 0.633422,0.729753 0.138795,0.227113 0.149371,0.46067 0.08262,0.743549 -0.150197,0.635983 -0.64127,0.964053 -1.211737,1.225452 -0.626729,0.287259 -1.231812,-0.280317 -1.37697,-0.894985 -0.08254,-0.349551 0.01157,-0.897878 0.08261,-1.23925 0.04742,-0.227608 0.128139,-0.432084 0.220339,-0.660932 0.07758,-0.192662 0.151354,-0.368718 0.330466,-0.454392 m 3.965599,-0.04131 -0.413083,1.982799 0.165232,0.385571 1.532639,-0.129627 c 0,0 0.350773,-0.03431 0.487607,-0.04968 0.482042,-0.05416 1.298883,-0.198726 1.298883,-0.198726 m 1.803102,-1.990335 c 0.235786,0.597236 -0.564273,1.594748 -0.206543,2.230648 0.320717,0.570221 1.624739,0.301386 2.106723,0.24785 0.195388,-0.02173 1.491356,-0.578831 1.679061,-0.494231 m -1.844293,-1.819034 c 0.111863,0.607067 0.409629,1.687042 0.740299,2.03005 0.271989,0.282136 0.352471,0.686384 0.402535,0.944148 0.08815,0.453317 0.248512,0.837734 0.42688,1.321865 m -35.442524,-2.478497 -0.4957,2.643731 M 59.403471,41.54477 c -0.387969,0 -1.241234,0.361942 -0.867476,0.991399 0.194974,0.328401 0.785107,0.481902 1.115325,0.495698 0.750818,0.03131 1.684965,-0.09269 2.051618,-0.826164 0.740245,-1.480408 -0.894159,-2.964533 -2.051618,-3.60762 -0.286762,-0.159284 -0.696789,-0.328567 -0.991399,-0.440594 -0.159368,-0.06064 -0.382819,-0.155311 -0.656068,-0.330466 0.256687,-0.170583 0.589149,-0.345834 0.738683,-0.426879 0.220339,-0.119298 0.43101,-0.284366 0.660935,-0.399288 m 26.189463,2.808964 c 0.363513,0.512719 0.743318,0.787432 0.981699,1.566789 0.06895,0.225428 0.05708,0.286157 0.123925,0.4957 0.112174,0.351635 0.14519,0.534068 0.202196,0.911709 0.128882,0.84426 0.357731,1.430341 0.427128,2.313265 m -4.37868,-5.039612 c -0.376732,0.188199 -0.468436,0.147799 -0.826166,0.316668 -0.470914,0.222238 -0.792294,0.600376 -0.247849,0.991401 0.229673,0.164984 0.639452,0.230831 0.908781,0.358058 0.763378,0.360293 1.601936,0.729672 2.133987,1.390686 0.206543,0.255865 0.342033,0.634331 0.247851,0.991401 -0.146232,0.553779 -0.890608,0.73603 -1.390437,0.812368 -0.894739,0.136647 -1.772952,-0.293785 -2.643732,-0.31667 M 67.912979,40.2229 c -0.469015,0.774945 -0.44299,1.569798 -0.729751,2.395883 -0.09088,0.261563 -0.125495,0.716037 -0.42688,0.716037 -0.19696,0 -0.314356,-0.230252 -0.385573,-0.385571 -0.198526,-0.43316 -0.634282,-1.254849 -0.833056,-1.683546 -0.06874,-0.148131 -0.167644,-0.36266 -0.337291,-0.505794 -0.13664,0.268793 -0.107532,0.840684 -0.233812,1.445791 -0.07155,0.429523 -0.10352,1.12083 -0.45848,0.96083 -0.786812,-0.354658 -0.724995,-1.893572 -1.386918,-2.861013 m 9.831375,2.808964 c -0.370536,0.165729 -1.145975,0.358227 -1.569716,0.440596 -0.385489,0.07502 -0.739667,0.143504 -1.156633,0.137722 -0.805263,-0.01115 -1.959251,-0.632266 -1.817565,-1.652334 0.108228,-0.779321 1.393494,-1.260151 1.982799,-1.431994 0.308739,-0.09005 0.932163,-0.23372 1.142835,-0.02759 0.147307,0.144164 -0.05585,0.523871 -0.234053,0.716037 -0.282713,0.304773 -0.819143,0.679356 -1.239248,0.743549 -0.38425,0.05874 -1.307455,0.138879 -1.637261,0 m 10.477238,-1.294354 c 1.178525,-0.343684 2.010061,1.872339 0.660932,2.34086 -0.228186,0.07923 -0.580629,0.09988 -0.826166,0.110127 -0.190843,0.0079 -0.224491,0.04442 -0.546955,0.06617 m 0.712189,-2.517157 c -0.491321,0.14334 -0.69274,0.561133 -0.771062,0.963888 -0.06551,0.336993 -0.183159,0.911751 0.0523,1.561492 0.185201,0.511046 0.32766,1.754158 0.63615,2.486719 M 112.7738,40.718601 c 0.0363,0.229013 -0.002,0.380449 0,0.578315 0.0877,1.266463 0.20605,2.640498 0.16523,3.800364 -0.014,0.332696 -0.24785,1.115243 0.014,1.376972 0.28999,0.290479 0.75181,0.192745 1.14259,0.192745 0.84434,0 1.87292,-0.09617 2.56111,0.247849 M 73.389596,42.709494 c 0.178298,-0.0083 0.64487,-0.02445 0.884871,-0.104509 0.520899,-0.173576 1.438109,-1.009574 0.826167,-1.459505 -0.205054,-0.150855 -0.438034,-0.177623 -0.660933,-0.165234 -0.505365,0.02801 -1.454588,0.559048 -1.319473,1.142652 0.07507,0.324241 0.08443,0.253216 0.215547,0.5451 0.401976,0.894849 2.731391,1.721175 3.995507,1.355267 m 15.945005,-2.891581 0.08262,0.660932 0.254053,1.634858 c 0.106823,0.687406 -0.193754,1.665106 0.159019,2.248131 m -0.169363,-2.451917 c 0,0 0.269345,-0.166239 0.417224,-0.219334 0.423607,-0.152096 0.874573,-0.225372 1.321867,-0.275444 0.52007,-0.05822 1.049257,-0.08217 1.569713,-0.02751 0.365405,0.03837 1.074016,0.247851 1.074016,0.247851 M 116.7394,41.875234 c 0,-0.105584 -0.0297,-0.292299 0.0413,-0.413084 0.10658,-0.180023 0.36517,-0.215381 0.61963,-0.137722 m 12.06202,0.05511 c 0.13632,0.648787 1.16655,2.02353 1.43175,2.891581 0.10822,0.354508 0.21537,0.736901 0.21537,0.736901 0,0 0.39021,0.24442 0.58353,0.28201 0.34782,0.06766 0.93522,0.304195 1.32187,0.385571 M 85.014626,41.709999 c 0.616322,0.16226 1.113097,0.225536 1.718761,0.273062 m -0.0051,-0.0049 c 0.470162,-0.01433 1.609151,0.09525 2.169291,0.227521 m 2.324155,2.090255 c -0.07435,0.19481 -0.232154,0.321888 -0.330468,0.44639 -0.122273,0.155981 -0.348792,0.348161 -0.506588,0.520168 -0.39243,0.428699 -1.463966,1.110039 -1.968755,0.495701 -0.321378,-0.390695 -0.247023,-1.195132 -0.152015,-1.652331 0.153668,-0.736114 0.485652,-1.291908 1.026054,-1.75151 0.372953,-0.317192 0.918742,-0.284495 1.342565,-0.313907 0.332119,-0.02304 0.579151,0.129767 0.723313,0.45402 0.111326,0.250399 -0.199496,1.48671 -0.118844,1.834492 0.146387,0.631244 0.36381,1.292329 1.295725,0.850909 m 34.28588,-3.139421 c 0.30485,0.249006 0.4296,0.29139 0.66093,0.413083 m -24.61973,-0.24782 c -0.27594,0.0218 -0.58327,0.104261 -0.82617,0.247849 -0.43786,0.259004 -0.46875,0.281385 -0.76046,0.463174 -0.29171,0.181787 2.57555,0.596299 3.32158,1.354389 0.9377,0.95224 0.10988,1.880354 -0.82616,2.244445 -0.43787,0.170356 -0.89887,0.06882 -1.40449,0.06882 m 35.77299,-3.882979 c 0.11814,0.281476 0.0513,0.715111 0.12617,1.00796 0.0711,0.485965 0.29001,1.468848 0.28692,1.801005 -0.24951,-0.216289 -0.64087,-0.246127 -0.88376,-0.330559 -0.18011,-0.06246 -0.36375,-0.02272 -0.60334,0.01389 -1.03023,0.157302 -1.71843,1.854412 -0.86748,2.50601 0.23298,0.178782 0.82204,-0.05891 1.11533,-0.234053 0.22885,-0.136649 0.66694,-0.382704 0.84291,-0.534058 0.15697,-0.135078 0.33809,-0.279432 0.49589,-0.418973 m -0.0995,-1.027096 c 0.0149,0.187456 0.0768,0.407273 0.0826,0.603155 0.006,0.194316 0.0194,0.339916 0.0126,0.567365 l -0.0126,0.424025 m -37.67319,-1.321856 c -0.82864,0.305352 -1.51684,0.378714 -2.313262,0.01379 -0.121448,-0.05568 -0.298247,-0.05882 -0.399039,-0.137722 -0.13797,-0.107317 -0.08675,-0.296096 -0.123926,-0.454389 -0.153665,-0.650193 -0.278418,-1.176792 0.275113,-1.721152 0.188368,-0.185227 0.492396,-0.401847 0.74355,-0.481987 0.170192,-0.05436 0.327162,-0.07997 0.4957,-0.09633 0.357731,-0.03478 0.887304,0.332038 0.633674,0.729754 -0.307339,0.480002 -1.74422,0.685772 -2.275445,0.685772 m -4.348769,-1.080554 c 0.269331,0.104675 1.021152,0.827031 1.281394,1.000609 0.672499,0.448277 2.618119,1.806329 3.222047,1.376972 M 120.1267,44.436354 c 0.0388,0.490495 0.33405,0.98268 0.54124,1.457823 0.0651,0.149249 0.11502,0.252381 0.21987,0.436182 0.17658,-0.123758 0.13923,-0.348272 0.14831,-0.560431 0.008,-0.20018 0.0224,-0.333211 0.0612,-0.530831 0.0438,-0.227278 0.0711,-0.413444 0.11574,-0.643366 0.043,-0.22042 0.22227,-0.646651 0.48334,-0.779003 0.56675,-0.287504 0.97736,0.81931 1.17068,1.115324 0.1264,0.193653 0.22471,0.256938 0.35773,0.495701 0.27924,0.502721 0.20654,0.994457 0.20654,1.569716 m -0.17173,-1.494249 c -0.0697,-0.328604 0.007,-0.435729 0.0781,-0.683058 0.0464,-0.160394 0.13581,-0.375382 0.34153,-0.452629 0.35029,-0.131359 0.60806,0.152511 0.90878,0.302874 1.10376,0.551714 1.54659,1.538073 2.06542,2.574911 m 3.13944,-2.808973 1.30236,0.565313 m -13.52962,0.09562 c 0.41721,0.528417 0.80882,1.189431 1.2946,1.734948 0.39326,0.442165 0.36468,0.304242 0.7377,0.29809 m 16.55644,0.610694 c -0.44365,0.397055 -1.27312,0.482893 -1.90018,-0.08262 -0.5618,-0.506192 -0.8599,-1.986413 -0.70225,-2.519802 0.12526,-0.42383 0.35194,-0.820047 0.86747,-0.977597 0.28998,-0.08857 1.12937,-0.101453 1.12937,0.275361 0,0.266769 -0.42961,0.344593 -0.63367,0.42688 -0.6188,0.249172 -0.85847,0.292014 -1.35913,0.292014 m -2.44579,-0.150361 c 0,0.779158 0.30116,2.169785 0.6655,2.983971 m -3.55252,-2.065414 c 0.0174,0.674812 0.34038,1.341363 0.66094,1.982797 M 57.668541,47.327927 c 0.815097,-0.300312 1.519816,-0.262226 2.395883,0.151435 0.214306,0.101205 0.474797,0.108971 0.523211,0.344263 0.04346,0.210756 -0.208194,0.343604 -0.357979,0.426881 -0.130368,0.07237 -0.421526,0.214588 -0.556531,0.242835 0.564669,0.402445 2.029337,1.240545 1.961015,2.469716 -0.03891,0.700011 -1.060137,2.094165 -1.817567,1.473303 -0.423575,-0.347157 0.03412,-0.763875 0.247851,-0.977603 m -3.387281,-3.882981 c 0,0.521063 0.156724,1.532786 0.165232,2.148031 0.02638,0.456059 0.100373,0.889674 0.08262,1.321867 -0.01785,0.427706 -0.226618,0.839632 0.165234,0.908781 M 76.76659,51.637788 c 0.308581,0.102434 0.435823,0.05998 0.812553,-0.05511 0.681918,-0.208358 1.330459,-0.790474 1.23925,-1.611023 -0.0765,-0.688445 -0.844672,-1.203311 -1.487099,-1.390685 -0.222569,-0.06494 -0.776926,-0.277591 -0.963889,-0.08262 -0.269743,0.281144 -0.17399,0.761231 -0.08262,1.06022 0.12343,0.40383 0.190122,0.957561 0.302956,1.321865 0.09043,0.291968 0.162242,0.485576 0.163759,0.733889 0.0012,0.18729 0.0097,0.471651 0.0014,0.670592 -0.0171,0.410854 -0.04288,0.913079 -0.08262,1.321868 -0.02759,0.283787 -0.08807,0.356655 0,0.660932 m -17.184255,-5.783162 0.260205,0.0088 m 2.961845,0.404302 0.413083,1.982797 0.247849,1.900182 M 65.2692,49.021566 c 0.372435,-0.219842 0.83622,0.04945 1.101997,0.219222 0.114176,0.07295 0.216847,0.164618 0.342175,0.229638 0.393421,0.203981 0.879007,0.721405 0.951708,1.244782 0.06452,0.464305 -0.266769,0.840623 -0.578315,1.156633 -0.179609,0.182086 -0.356822,0.366486 -0.578317,0.495698 -0.201419,0.11748 -0.433325,0.200428 -0.660933,0.247849 -1.561287,0.325262 -1.206594,-1.457259 -0.958743,-2.448576 0.07898,-0.316173 0.09317,-0.975717 0.380428,-1.145246 m 3.717747,0.289158 c 0.501399,0.614586 1.117224,2.642659 1.404482,3.635132 m 39.490741,4.048214 c -0.32799,-1.133254 -0.36599,-2.63547 -0.4957,-3.800365 -0.0636,-0.570137 -0.34617,-1.126809 -0.37178,-1.734948 -0.0157,-0.374503 0.0892,-1.789228 0.70224,-1.721152 0.39078,0.04337 0.88008,0.419039 1.10975,0.704726 0.50231,0.623673 1.49102,1.474699 1.17626,2.420908 -0.11154,0.332614 -0.29223,0.437722 -0.63367,0.495698 -0.24983,0.04242 -0.22607,0.0148 -0.74434,0.06121 -0.51826,0.04641 -1.21108,-0.122347 -1.21108,-0.122347 m 0.70305,0.112504 c 0.5304,0.812286 2.84026,2.785688 3.64825,3.2533 M 89.889018,49.889041 c 0.203238,0.161434 0.34699,0.387142 0.427127,0.660932 0.06361,0.220091 0.07518,0.329558 0.15119,0.578318 0.05205,0.17085 0.152841,0.516269 0.165232,0.660932 0.01653,0.203155 0.08262,0.578316 0.08262,0.578316 0,0 0.38995,0.146892 0.578316,0.165234 0.223064,0.02173 0.8146,0.05312 1.074018,0.09641 0.473391,0.07882 0.402341,0.168454 0.743549,0.357976 m 0.991399,0.357979 c 0.930263,0.413332 1.6292,1.538073 0.4957,2.120521 -0.797251,0.409695 -1.658942,0.02115 -1.955535,-0.867475 -0.112359,-0.338977 0.04544,-0.910186 0.137968,-1.156633 0.0884,-0.236034 0.224402,-0.46682 0.353564,-0.460085 0.220762,0.0115 0.660143,0.226941 0.968303,0.363672 z m -7.352878,1.170429 c 0.704719,0.685967 1.598631,0.808073 2.313263,0.08262 0.231327,-0.234962 0.454392,-0.660354 0.28916,-0.991398 -0.570055,-1.140854 -2.333094,-1.122926 -2.932889,-1.900183 0.356904,-0.35707 0.584097,-0.540065 1.15663,-0.826166 m 27.380585,0.841904 c 0.25021,0.07475 0.36282,0.109769 0.59002,0.188651 1.02444,0.355681 2.7322,1.092031 3.39644,2.108877 0.58658,0.898702 -0.89657,1.795242 -1.54181,2.162474 -0.21728,0.123925 -0.53862,0.273012 -0.7559,0.315229 -0.23546,0.04577 -0.66262,0.140668 -0.66262,0.140668 0,0 -0.26053,-0.394833 -0.3952,-0.588734 -0.67332,-0.970083 -1.66906,-3.268756 -1.66235,-4.378033 0.002,-0.334242 0.76703,-0.02811 1.03142,0.05087 z M 82.123057,52.2161 c 0.511911,0.06541 0.78771,0.02947 1.074015,0.05502 0.312291,0.02173 0.97653,-0.226205 1.23925,-0.385489 0.156972,-0.09493 0.3536,-0.220999 0.316422,-0.426879 -0.0537,-0.30056 -0.826993,-0.144167 -1.059971,-0.08262 -0.434563,0.114755 -1.414739,0.562936 -1.56011,0.785731 -0.413402,0.633582 -0.0724,1.57892 0.568711,1.899309 0.6378,0.318815 1.423484,-0.103603 1.982797,-0.206543 m -4.956994,0.413084 c -0.08287,-0.286266 -0.08799,-1.20848 -0.0989,-1.47054 -0.008,-0.193075 -0.03475,-0.268355 -0.0029,-0.421362 0.02262,-0.108745 0.02874,-0.632286 0.02554,-0.816398 m -0.0083,0.380891 c 0.04784,-0.124656 0.155241,-0.220163 0.249727,-0.275015 0.474221,-0.275361 1.837394,0.174651 2.230649,0.454392 m 7.352877,-0.330466 c 0.306509,0.273956 0.737697,0.442359 1.226246,0.565313 M 125.82725,52.03707 c -0.22802,0.10195 -0.52792,0.170438 -0.74355,0.261648 -0.14044,0.05948 -0.3032,0.127063 -0.3032,0.316667 0,0.165317 0.18919,0.300973 0.3032,0.371775 0.22637,0.140036 0.72786,0.334433 0.9914,0.440596 1.13681,0.457778 2.91389,1.294024 2.9742,2.740145 0.0182,0.440759 0.003,0.755528 -0.27511,1.156633 -0.45109,0.648787 -1.47553,0.701414 -2.20339,0.660932 -0.25941,-0.01445 -0.41721,-0.139539 -0.66093,-0.247849 -0.20984,-0.09311 -0.5998,-0.0675 -0.70224,-0.330469 -0.11071,-0.2842 0.19084,-0.419362 0.45439,-0.495698 M 96.580975,55.754817 c 0,-0.667459 -0.114856,-1.87959 -0.173513,-2.479799 m 0.04968,0.529936 c -0.04048,-0.419858 0.07922,-0.465928 0.247755,-0.776485 0.236283,-0.436959 0.51305,-0.751646 1.032707,-0.385571 1.065754,0.750655 1.483795,2.391173 2.148032,3.442386 M 90.70413,52.369475 c 0.166885,0.575674 0.453062,2.195745 0.671995,2.889642 M 128.22314,52.78062 c 0,0 0.93617,-0.107547 1.40448,-0.08262 0.39031,0.02077 1.15663,0.192745 1.15663,0.192745 0,0 0.33332,0.01944 0.4957,0.05511 0.5954,0.13079 1.73495,0.578315 1.73495,0.578315 m 4.96285,-0.06897 c 0,0 -0.7591,-0.10901 -1.16249,-0.178883 -0.51556,-0.0893 -1.04813,0.04163 -1.56971,0 -0.31591,-0.02521 -0.93871,-0.150792 -0.93871,-0.150792 l -0.49993,-0.08699 c -0.0806,-0.01403 0.44477,1.367972 0.58522,1.807491 0.2685,0.842524 0.48661,1.596484 0.52296,2.4785 0.0149,0.350955 0.14415,1.519644 0.14415,1.519644 0,0 0.39224,-0.0026 0.69958,0.04863 0.27924,0.0466 0.44344,-0.01426 0.72598,0.0014 0.65763,0.03652 1.24421,0.05345 1.9828,-0.08262 m -7.65928,-5.917183 c 0,0 0.0472,0.433421 0.0843,0.641429 0.0647,0.3627 0.20172,0.710398 0.26107,1.074016 0.19145,1.172953 0.29149,3.540804 0.29149,3.540804 m -74.768028,1.156632 c -0.106245,-1.092933 -0.504705,-2.191983 -0.674731,-3.304664 -0.05147,-0.337157 0.01379,-0.441584 0.01379,-0.743549 0,-0.269495 -0.101123,-0.596575 0.330466,-0.578315 0.480829,0.02033 1.290556,0.433984 1.73495,0.674728 1.302781,0.70563 1.640186,2.356061 1.060217,3.621334 -0.319972,0.698194 -1.020182,1.279744 -1.671283,1.451587 -0.299486,0.07898 -0.561925,0.377119 -0.628184,0.118129 -0.109933,-0.429713 -0.118881,-0.762715 -0.165229,-1.23925 z m 90.795648,-4.543911 0.66093,3.222047 0.0826,0.660932 0.16523,1.652333 m 1.32187,-5.37008 c 0.01,0.362934 0.14127,0.656967 0.22059,0.991401 0.35442,1.501803 0.87243,2.963125 1.67959,4.296062 m -16.9891,-4.605032 c 0.55748,0.07291 1.79015,0.06114 2.36599,0.06114 0.37426,0 0.87599,0.01923 1.16834,0.0657 M 55.669759,55.515399 c 0,0 0.05685,0.07628 0.160199,0.233447 0.10335,0.157168 0.228044,0.61849 0.228044,0.61849 m 98.299248,-0.19947 c 0.34204,0.359381 0.75512,0.555018 1.10211,1.005197 0.69976,0.908781 -0.91787,2.603495 -1.7903,2.71255 -1.00545,0.125743 -1.20706,-2.282505 -1.20706,-2.916421 0,-0.237936 0.0611,-0.666389 0.12439,-0.883944 0.0558,-0.191674 0.0848,-0.452199 0.21943,-0.49984 0.39971,-0.141429 1.16975,0.180362 1.55143,0.582458 z m 7.90393,3.965596 c -0.67828,0.73661 0.41805,0.995366 1.07402,0.92258 0.58245,-0.06477 1.00792,-0.08055 1.28056,-0.757346 0.10079,-0.250907 0.0669,-0.430764 0.0413,-0.660934 -0.0413,-0.371939 -0.40317,-0.957774 -0.66094,-1.239248 -0.24289,-0.265282 -0.51304,-0.416554 -0.82616,-0.564519 -0.49488,-0.233723 -1.24834,-0.25884 -1.32187,-0.92258 -0.0289,-0.263465 0.024,-0.453483 0.24785,-0.660932 0.22307,-0.206791 0.36517,-0.172258 0.66093,-0.192745 0.47175,-0.0328 0.55354,-0.0167 0.9914,0.110128 m -99.718241,0.08262 c 0.449601,1.00503 0.777835,3.219321 0.826167,4.378679 0.01742,0.418536 0.07154,0.86293 0.495698,0.908782 m 0.908784,-4.956995 c 0.5879,1.175799 0.546177,3.611833 1.23925,4.709146 M 170.35761,57.241881 c 0.96414,-0.406144 1.97206,0.443238 2.06542,1.404482 0.0884,0.908454 -0.18919,1.651919 -0.59236,2.395883 -0.11401,0.21092 -0.29899,0.331527 -0.46726,0.491557 -0.15795,0.150218 -0.27216,0.298423 -0.5101,0.417224 -0.56344,0.28164 -2.07037,0.185806 -2.18934,-0.660932 -0.0826,-0.584348 0.93357,-0.529407 1.28056,-0.495701 0.5841,0.05676 1.15822,0.415383 1.57393,0.747709 l 1.235,0.987282 m -6.60279,-4.934265 c 0.13796,-0.427706 0.90228,-0.174457 1.23274,0.03233 0.25446,0.158871 0.41144,0.28131 0.57832,0.523211 0.18837,0.272802 0.42135,0.612851 0.4957,0.908783 0.11153,0.445055 -0.0884,1.181666 -0.35773,1.569716 -0.28916,0.415892 -0.97653,0.826165 -1.45984,0.826165 -0.19662,0 -0.37673,-0.01487 -0.57831,-0.123924 -1.10789,-0.600127 -0.5147,-2.249568 -0.22059,-3.098123 0.14706,-0.422088 0.16689,-0.744376 0.55105,-0.578315 l 0.0826,0.08262 0.0826,0.08261 M 61.221069,57.517243 c 0.3341,-0.09741 0.691252,0.04304 0.743549,0.385571 0.02321,0.152262 0.01173,0.278502 -0.02751,0.413083 -0.0665,0.227774 -0.272887,1.194738 -0.220304,1.408828 0.169859,0.691586 0.652365,1.646043 1.48704,0.987094 M 61.721,59.551006 c -0.133838,0.26776 -0.292232,0.280163 -0.444825,0.499839 -0.257186,0.370288 -0.595914,0.942821 -1.12912,1.046505 -0.657961,0.127891 -0.743304,-0.746111 -0.633422,-1.211737 0.228186,-0.966366 0.664485,-2.064175 1.707438,-2.36837 m 113.184749,0.302953 c 0.41804,0.01098 0.7609,0.264622 1.15663,0.385574 0.76586,0.234053 1.70851,0.283127 2.4785,0.357976 0.31642,0.03082 0.47091,0.07766 0.82616,0.08262 0.37839,0.0053 1.05915,0.06518 1.00545,0.413083 -0.0595,0.381524 -0.58162,0.720417 -0.81295,1.074016 -0.423,0.648457 -1.01866,2.113746 -1.01866,2.808964 m -107.318971,-5.0121 c 0.261151,-0.07981 0.502558,-0.02404 0.74355,0.09641 0.23587,0.117975 0.437041,0.300064 0.509496,0.537007 0.08452,0.276767 0.01033,0.371363 -0.04131,0.743549 -0.04271,0.307582 -0.0037,0.904592 0.02543,1.010235 0.177082,0.643012 0.579629,1.538032 1.406541,1.385688 m -1.41688,-1.432948 c -0.02388,0.57237 -1.092493,1.469425 -1.722529,1.653247 -0.604423,0.176302 -0.801795,-0.855248 -0.826167,-1.294355 -0.01471,-0.265118 0.07634,-0.433984 0.08262,-0.660932 0.0054,-0.192498 0.03594,-0.371199 0.09641,-0.578317 0.16862,-0.578152 0.538248,-1.274774 1.142836,-1.459587 m 87.490984,0.302954 c 0.47505,0.425062 1.00462,0.172009 1.65234,0.4957 M 74.852808,58.563783 c -0.312478,0.332862 -0.506688,0.413084 -0.946537,0.410156 0.343852,0.404786 1.820785,0.495818 2.351019,0.856604 0.690674,0.47009 1.382175,1.040888 1.624821,1.872673 0.473394,1.623167 -2.179427,2.160836 -2.946686,1.817565 m 8.096427,-4.709146 c 0.515026,-0.111315 0.98479,-0.106411 1.404482,-0.123926 0.820382,-0.0342 1.473879,-0.123926 2.230649,-0.123926 0.605579,0 1.069884,0.058 1.65233,0.165235 M 85.39781,58.62815 c 0,0 0.03997,0.783259 0.02992,1.174883 -0.0092,0.358944 -0.04562,0.716864 -0.08262,1.074016 -0.131653,1.270718 -0.495698,3.800364 -0.495698,3.800364 m 13.796974,-5.122229 c 0.775769,0.469509 1.806004,0.833022 2.726354,0.74355 0.42134,-0.04098 1.30534,-0.363845 1.63829,-0.123926 0.26933,0.193819 -0.0108,0.760486 -0.0826,1.032707 -0.23711,0.899695 -0.62837,2.738993 -1.02741,3.537813 M 91.045639,59.720419 c -0.49157,1.099544 -0.81212,2.729817 -1.569716,3.552515 -0.114837,-0.115169 -0.265198,-0.24273 -0.385819,-0.413083 C 88.972789,62.693708 88.876128,62.54219 88.759638,62.36415 88.268068,61.6111 87.63192,60.733463 87.410509,59.96827 m 18.010421,3.800362 c 0,0.84649 1.03105,1.146389 1.73495,0.784858 0.46926,-0.241074 0.67911,-0.838888 0.71628,-1.280556 0.0504,-0.608968 -0.69728,-1.381269 -1.21198,-1.638537 -0.40648,-0.203318 -1.10789,0.0055 -1.37722,-0.344262 -0.62045,-0.806008 0.27924,-1.321865 0.96413,-1.321865 0.385,0 0.77743,0.0399 1.15664,0 m 40.97784,0.330466 v 0.165232 m -38.58196,0.330466 c 0.499,-0.210011 0.89143,0.23554 1.23925,0.578318 0.99222,0.978593 0.76857,2.772875 0.14441,3.47575 -0.34366,0.387014 -0.51371,0.711754 -1.13581,0.737695 -0.22141,0.0093 -0.3503,0.01974 -0.57832,-0.06882 -0.26768,-0.104178 -0.52792,-0.223313 -0.66093,-0.509496 -0.31642,-0.679934 0.38169,-1.252798 0.9914,-1.032707 0.25611,0.09253 0.60723,0.266024 0.82616,0.454389 0.26603,0.229346 0.45672,0.360375 0.65737,0.506764 0.41877,0.305534 0.94705,0.873431 1.32543,0.236786 m 5.25397,-1.90018 c 0,0.203566 -0.002,0.305698 -0.0388,0.495698 -0.12921,0.666239 0.15821,1.43662 0.6506,1.982799 0.69729,0.773126 1.90349,0.956453 2.57516,0.08262 0.24372,-0.317415 0.33956,-0.720665 0.20654,-1.156633 -0.29907,-0.978099 -2.24024,-3.202705 -3.22959,-2.795964 -0.41795,0.171829 -0.16392,0.855051 -0.16392,1.391482 z m -2.85808,-1.321867 c 0.36351,0.461001 0.71574,1.78817 1.00377,2.467046 0,0 0.13715,0.27694 0.18012,0.424535 0.12487,0.428907 0.22059,1.321867 0.22059,1.321867 M 113.59997,62.1163 c 0.22142,0.365578 0.23216,0.758172 0.13797,1.156633 -0.0595,0.250657 -0.4106,0.707693 -0.19332,0.9776 0.29246,0.362358 1.10376,0.131031 1.45984,0.09642 0.14292,-0.01389 0.26354,0.01454 0.41308,0 0.17349,-0.01686 0.36859,-0.0073 0.54101,-0.03855 l 0.69824,-0.126685 M 89.475923,63.278789 c 0.345447,0.490117 1.186374,1.785273 1.900182,2.142176 m -9.666143,-1.900182 c -1.193232,0.920514 -0.783205,2.950735 -1.652331,4.130831 M 89.481777,63.2651 c -0.342857,0.34286 -0.614738,1.423634 -0.997253,1.908014"
       id="path1362"
       sodipodi:nodetypes="cssssscccccccsccscccsscscccsccccccccccccsccccsscccssscssccccsssccccccscccsscccssccscsccsssscccssccccccccccccccccscccccccsccsssccsssssssccsccccccsccsccsscccccscccsccssssscccccccczccsccccssccccccccsccccscccsccsccsccsscccccccccsssccccscsccscccsccsscccccccccsssccccscccscccsccscsccsscsccsssccccsscccsssccccsssssccsccccscccscccsccccccsssscscssscssccsscsscscscssccsccssccccccccsccccscsssssscsccsccccccccccccssccscccccccscccsccscccccsccccccccssccccscccscccsccccscccsssscsccssccsscccccscccccsscccsccsssccccccccccccccccccssssccccczcccccccccsccccscccccsccccccccacccccccccsccccccccccscscccccccscccscccccccscccssscscccccccscscssccccccccccszccccccccsccccccsccccccsscccccsscccccscccccccccccccsccccccsccccccccccscsccsscsccccsccsscccsscccscccccccccscczccccsssccccccccccccsccccccsccssccccccsccccccccsccsccccccccccccccscccsccccccccccccsccssccscccccccccccccscccccssccccscsscccsscssccccsssccccccc" /></g></svg>
