<?xml version="1.0" encoding="UTF-8" standalone="no"?>
<!-- Created with Inkscape (http://www.inkscape.org/) -->

<svg
   version="1.1"
   id="svg59"
   width="3000"
   height="1998.207"
   viewBox="0 0 3000.0001 1998.207"
   sodipodi:docname="KeeganG - Stake - Envelope27.svg"
   inkscape:version="1.2.1 (9c6d41e410, 2022-07-14)"
   xmlns:inkscape="http://www.inkscape.org/namespaces/inkscape"
   xmlns:sodipodi="http://sodipodi.sourceforge.net/DTD/sodipodi-0.dtd"
   xmlns="http://www.w3.org/2000/svg"
   xmlns:svg="http://www.w3.org/2000/svg">
  <defs
     id="defs63" />
  <sodipodi:namedview
     id="namedview61"
     pagecolor="#ffffff"
     bordercolor="#000000"
     borderopacity="0.25"
     inkscape:showpageshadow="2"
     inkscape:pageopacity="0.0"
     inkscape:pagecheckerboard="0"
     inkscape:deskcolor="#d1d1d1"
     showgrid="false"
     inkscape:zoom="0.6565656"
     inkscape:cx="814.84622"
     inkscape:cy="396.76157"
     inkscape:window-width="1920"
     inkscape:window-height="1058"
     inkscape:window-x="-6"
     inkscape:window-y="-6"
     inkscape:window-maximized="1"
     inkscape:current-layer="g65" />
  <g
     inkscape:groupmode="layer"
     inkscape:label="Image"
     id="g65">
    <path
       style="fill:none;stroke:#8e868d;stroke-width:0.68077"
       d="m 50.794254,190.3406 0.680772,18.38084 m -35.400139,4.7654 c 2.316054,-0.0609 9.303906,-1.14036 9.303906,-4.08463 0,-1.91515 -5.777303,-3.84595 -7.26159,-5.44617 -4.863707,-5.24365 1.829914,-10.89235 7.488491,-10.89235 m 5.446175,1.36154 c 0.202575,5.67571 0.245363,11.35605 0.680772,17.0193 m 100.073469,-17.0193 c 0.10756,4.07599 2.04232,11.13886 2.04232,14.97698 m 87.1388,-14.97698 c 0.21563,5.44668 0.43608,10.89309 0.68077,16.33853 m -19.74238,-15.65776 1.23872,18.01632 c -14.63888,3.82309 -9.29157,-5.84029 -0.26862,-8.72787 m -98.32049,5.68853 c -3.46104,0 -7.216181,0.817 -8.623337,-3.40386 -0.840071,-2.5213 0.972827,-6.75005 2.61008,-8.85003 2.480737,-3.18281 5.767497,-2.22095 8.736347,-1.36154 m 66.71565,12.93466 c -2.62914,2.07574 -4.81579,2.90942 -8.16927,2.72309 -3.24524,-0.18034 -5.51561,-3.45798 -4.5387,-6.80772 1.56169,-5.35413 8.44293,-7.63615 12.0272,-6.12695 m 37.44245,-0.68077 0.68077,0.68077 m -150.027355,5.61802 c 2.713275,-0.67961 8.371225,-0.51326 7.065256,-4.93724 -5.273188,-5.29409 -12.06843,11.03383 -1.361545,11.57312 m 56.504074,0.68077 c 11.29128,0 -0.97487,-5.26897 -1.81562,-9.53081 -0.60589,-3.0728 3.95596,-3.35273 5.90025,-3.40386 m -83.444634,6.90591 c -3.195544,2.85917 -9.241645,3.38035 -6.757644,-0.77896 1.260381,-2.11039 3.609384,-3.67678 6.321524,-4.76458 0.501037,3.01595 -0.08454,7.29962 1.507025,9.0433 m 12.673215,-9.87553 -6.578845,4.304 m 65.468909,4.79977 c -2.14376,2.55855 -7.58537,4.5107 -6.77593,-0.78387 -0.56133,-3.29868 4.61581,-10.2132 5.33248,-6.80772 l 2.386,11.33767 m 15.76231,-7.30861 c 6.00325,-9.16027 8.17482,1.37051 7.72103,6.18252 m 38.12322,2.72309 c -2.03273,-5.37535 -2.24604,-11.22108 2.04232,-11.57313 m 1.53997,4.89477 c 2.64105,-2.09284 12.52978,-1.51515 9.35238,-4.214 -7.71422,-6.55236 -14.16991,10.11171 -3.40386,10.89236 m -160.662169,-10.21158 6.514792,-1.36122 m 182.739797,2.04199 8.16828,-1.36155 m -13.61446,2.04232 0.68077,8.85004 m -161.251531,-10.03828 5.35477,3.91133 m 67.396421,19.06161 v 18.38084 m 88.50034,-17.01929 c -0.1624,7.94415 -0.12906,15.88389 0,23.82701 M 15.394115,231.18691 c 15.567636,-7.26204 1.477776,18.93404 -0.340386,10.89235 0.687514,-3.32742 7.360407,0.78677 10.551965,1.36155 m 29.711274,-10.74687 c -0.812296,1.54338 -4.906533,6.50988 -6.905415,3.82566 -2.526822,-3.3931 3.453048,-7.4492 6.78309,-7.37337 l 0.365014,14.97535 M 129.76379,229.1446 v 19.06161 M 27.64801,229.82537 c 3.012619,0 10.287825,-1.55094 8.963519,2.72309 -1.307967,4.22106 -2.828812,8.51632 -3.517344,12.25389 m 29.386675,-14.6366 c 4.182729,-2.0547 6.584631,8.10561 1.248059,9.98468 -4.690926,1.65176 -4.079319,-8.59386 -1.248059,-9.98468 m 40.05206,0.34039 c 0,2.31088 0.2655,16.41954 -4.084633,14.63659 -3.343955,-1.37039 -3.349397,-11.19937 -3.403861,-13.27505 m -54.348266,0.34039 c 4.367016,-2.14525 5.513981,8.20153 0.567288,9.64449 -4.471106,1.30369 -3.734307,-8.08872 -0.567288,-9.64449 m 138.08321,-0.34039 4.7654,17.70007 6.80772,-17.70007 m 2.72309,0.68078 3.40386,0.68077 m -38.804,1.36154 -10.89235,19.74239 m 98.71193,-17.0193 c 4.53939,-3.58372 12.3172,-3.60469 14.06951,3.40386 1.32118,4.91162 -7.70444,14.40191 -9.0522,13.35366 0,0 -2.25682,-13.45104 -1.96371,-18.48906 m -115.04058,3.88734 c 1.29483,-1.96205 9.42696,-1.68769 6.46733,-3.51735 -9.50676,-5.87713 -7.94759,9.91448 0,9.53081 m 59.90793,4.7654 c 2.61689,-0.48198 7.94257,-0.3043 7.94257,-4.08463 0,-5.01695 -11.81548,-7.80062 -1.13485,-10.89235 m -90.69044,5.54371 c -7.89075,6.56062 -11.47282,-3.57105 -0.87387,-4.66836 1.07221,3.01201 0.64382,5.67912 1.70242,9.33623 m 28.59242,-8.16926 6.5634,7.39096 m 56.74838,-3.9871 c 3.18738,-0.58717 5.53332,-1.29217 8.16927,-1.36155 m 8.87636,4.55262 c -1.31526,0.89998 -7.20643,4.71609 -8.53598,2.82219 -2.73125,-3.88925 4.63615,-10.28862 8.71257,-7.89361 -0.16411,2.05646 -0.0892,9.45326 0.47785,11.41115 m 35.40014,1.36155 c -0.064,-3.19811 -1.45232,-9.94853 3.40386,-9.53081 m -69.43873,0.68078 0.68077,6.12694 m 81.01186,-3.40386 2.04231,1.36155 m -151.13136,10.89235 1.36154,2.04231 m -74.884904,-1.36154 c 0.599191,5.89693 1.226622,11.77581 1.361543,17.70007 M 77.344354,260.4601 c 2.81978,6.37733 0.133308,16.40755 0.680776,21.10393 m 8.169263,-20.42315 c -0.504406,5.43771 -0.59796,10.88378 -0.680776,16.33852 M 27.64801,263.18319 26.286466,277.4794 c -3.418204,0.22395 -2.905066,-8.11001 -4.765404,-10.89235 -2.524438,3.55295 -3.014717,6.53841 -6.807719,11.57312 L 13.351799,267.9486 m 119.815861,10.89234 6.80771,-3.40386 c 2.38158,-1.19078 -10.94734,-8.66589 -1.36154,-12.25389 m -106.062946,9.02845 c 3.130665,-0.65898 8.092157,-7.97481 3.94716,-7.66691 -7.466571,0.55464 -4.555686,11.80907 1.361544,10.21158 m 6.807719,3.40386 c 8.561251,-1.80268 1.858235,-4.59385 0.794256,-8.85003 -0.832107,-3.32829 3.063406,-4.02472 5.332691,-4.08463 m 99.392696,12.93466 c -0.0279,-1.05043 0.25772,-7.44209 0.66686,-8.43874 1.07018,-2.61144 6.41317,-7.06515 10.1118,-3.58845 2.80138,2.63322 0.11369,10.54652 0.11369,14.06951 m -42.88863,-4.76541 c -0.86525,-2.75453 -3.65912,-10.47676 3.40386,-9.5308 m 65.35411,0 c 3.50869,1.47727 5.583,0 8.85003,0 m 14.97698,0.68077 c 2.25336,4.50671 5.81311,13.59502 4.08463,17.70007 -2.33572,-4.2974 -8.23133,-12.07621 -10.56842,-15.03621 l 0.0885,17.47485 m -95.72049,-10.45727 c -0.71643,-4.84153 -2.0759,-11.62491 3.40385,-9.00066 m 17.70007,0 v 8.85003 m -78.288764,-8.16926 9.488396,-0.20621 m 29.996373,0.20621 -5.10579,1.70192 -7.202216,1.08331 m 23.576941,0.8804 c -1.7775,1.92999 -7.045426,5.98975 -9.90739,5.86517 -5.194293,-0.22601 -0.07421,-6.33799 2.042316,-7.60218 1.39626,-0.83394 5.601097,-2.70966 7.020504,-2.03502 1.03833,3.05197 0.64741,7.41813 1.04566,9.58163 m 40.94941,1.30342 c -3.96453,-0.60074 -1.70485,-9.67085 0.68077,-10.09788 3.41285,-0.61091 4.48561,10.98629 -0.68077,10.09788 z m 109.60428,-9.41711 -1.36155,19.74238 m -4.7654,-19.06161 c -3.84431,7.68932 -3.38275,10.89235 5.44618,10.89235 m -61.6583,-14.58587 0.2597,18.2347 m 64.80246,-13.86041 c 2.70334,0 6.83426,-0.917 8.73634,0.90747 2.22613,2.13558 -1.86327,14.30234 -1.92863,16.7926 m 20.42316,-16.33852 c -2.18459,2.76733 -5.60275,8.81872 -4.5387,12.25389 1.52969,4.93559 8.5893,2.15328 9.87119,-2.04231 0.75498,-2.47053 -1.158,-5.65858 -3.85725,-3.29018 -2.09066,1.83332 -1.96539,5.39822 -2.15601,7.81223 m -10.21158,-11.78385 c 1.24241,0 1.7632,1.53514 2.15601,2.49639 1.88778,4.62176 0.46516,9.50098 -4.19832,9.53081 -2.87018,0.0183 -2.43989,-12.0272 2.04231,-12.0272 z m 23.82702,0.90815 c 4.30929,-1.41397 7.66617,9.76227 1.36154,11.00536 -2.35547,0.46497 -3.88448,-1.91365 -4.08463,-3.97094 -0.17904,-1.83877 0.4888,-6.30123 2.72309,-7.03442 m -125.26203,1.58824 -3.40386,4.08463 m 19.74239,4.08463 8.16926,-2.04231 m 339.70516,85.09649 c 0.83516,7.01738 1.30004,14.05191 2.04232,21.10393 M 400.03024,371.42592 c 0.6577,7.70562 0.6486,15.4215 0.68077,23.14625 m 83.73495,-21.7847 c 1.74676,6.00893 2.64699,12.05393 2.94978,18.26715 l 7.94257,0.11369 m 4.08463,-17.70007 1.36154,0.68077 m -82.3734,0 c 1.94089,6.70561 2.72309,11.31239 2.72309,18.38084 m 138.87749,-18.38084 c 1.08891,7.45852 1.41767,14.96674 2.04231,22.46547 m -245.0779,2.72309 c 3.27724,-0.60384 11.88219,-1.25603 13.27505,-4.7654 0.91904,-2.31667 -8.74792,-7.42314 -9.87119,-10.21158 -0.93606,-2.32347 -0.23895,-5.438 1.58824,-7.3748 2.62574,-2.783 5.81447,-2.28808 8.62334,-1.47524 m 198.78541,3.40387 12.15954,-1.58091 m -170.09635,15.77925 c 2.85471,-1.83841 9.745,-8.95912 7.82659,-12.15603 -1.50791,-2.51341 -6.49865,-0.69439 -8.55825,1.84856 -0.46592,3.82484 2.53886,21.0846 0.72937,25.38232 m 68.6534,-15.38282 c -10.51924,1.02237 -9.74832,-16.89285 -0.57621,-11.84806 2.58759,1.42321 -4.38314,3.87182 -7.06145,5.26373 m -52.1657,9.03248 8.4612,0.48571 c 5.49078,0.31519 -3.993,-5.09222 -5.05735,-9.33575 -0.97268,-3.87805 1.46843,-5.44617 5.44618,-5.44617 m 117.77354,10.21158 c 1.33295,-3.16491 0.76791,-8.95487 4.76541,-10.21158 l 1.28623,7.49507 c 1.43943,-1.62451 1.29521,-6.32835 4.33181,-4.8473 1.3874,2.77551 0.70496,7.14377 4.59353,7.56381 m -80.33108,6.12694 c 2.17438,0 9.30411,0.30839 9.30411,-2.72308 0,-3.15674 -6.58851,-3.44403 -7.37549,-7.48849 -0.79513,-4.09008 1.61071,-5.44618 5.55987,-5.44618 m -23.14625,0.68077 -4.9099,5.29971 m 120.64115,-1.89585 c 1.11234,-3.84227 5.88427,-5.32137 6.8077,-2.04231 0.87013,3.08991 -3.98864,4.04515 -6.8077,2.04231 -2.28331,3.77216 -1.06068,7.4885 4.08463,7.4885 m -199.46619,-10.21158 -1.36154,11.57312 -4.5705,-9.43311 c -0.97557,3.84745 -0.31132,9.13017 -2.91799,10.45426 -3.16627,1.60799 -3.23775,-2.92731 -3.40387,-4.42501 -0.26413,-2.37998 -0.68077,-4.80285 -0.68077,-7.48849 m 17.0193,4.08463 c 2.87899,-0.60589 9.19862,-2.92822 6.12695,-4.08463 -9.25444,-3.48408 -6.54548,13.08167 -0.68077,11.57312 m 4.39407,-6.7051 c 1.92518,-1.26244 6.96967,-3.71311 5.81751,-4.86802 -2.69759,-2.70403 -4.37653,0.80813 -5.58325,4.34266 -1.17565,3.44359 -0.82902,7.3853 4.90247,8.592 m 196.45207,-5.24655 c -3.11851,3.36266 -13.13045,4.90262 -11.8492,-1.56116 0.91837,-3.48011 7.76912,-5.65447 11.0865,-6.87646 m -60.21576,0.74951 v 8.16926 m 25.18857,-7.48849 0.68075,6.80772 m -113.10696,-1.21508 c -0.86799,0.86798 -5.02874,3.10286 -6.02811,3.82448 -8.55185,6.17664 -0.3894,-16.6864 5.10579,-7.37481 1.25398,2.1247 0.84348,5.45094 1.70193,8.16927 m -17.70007,-7.48849 6.12695,-1.36155 m 110.28505,2.72309 v 2.72309 m -92.04871,-3.45116 6.27145,3.45116 m -29.98029,29.32876 c 2.54096,-1.14342 6.46983,-5.37784 6.15327,-8.22483 -0.30771,-2.77211 -3.44711,-3.77559 -6.6081,-3.70988 0.39668,7.33499 0.48115,14.28728 0.48115,21.40994 m 173.59684,-4.08463 -4.76538,1.24786 c -3.20532,-5.58036 -1.96512,-12.59886 -1.24786,-17.92677 l 5.33249,-1.02115 m 28.59242,0.68077 c 0,3.4025 0.54325,4.18674 0.68075,7.48849 0.0797,1.90412 0,5.61568 0,8.16926 m 78.28876,-14.29621 9.41507,-1.02116 c 1.43968,6.73032 -0.76888,13.43285 -1.92656,20.08277 m -91.90421,-19.74238 c -0.37482,6.50281 0.35801,13.52907 -1.36156,17.70007 m 57.18484,-17.70007 c -1.62569,0.68417 -7.53691,1.32975 -7.53691,1.32975 0,0 -0.51942,3.73491 -0.19933,4.957 3.68704,1.39888 9.05246,6.52555 -1.11378,8.69023 m -102.11579,3.40386 11.57314,-2.04232 c 5.2513,-0.92669 -8.52784,-6.3904 -8.50967,-12.25389 0.22195,-3.99953 4.13636,-3.40386 7.14811,-3.40386 m -54.16752,9.72489 c 2.99308,-1.00106 8.65111,-4.83558 8.5558,-7.0018 -0.16679,-3.78713 -6.64069,-2.62547 -8.6062,-0.77765 l -0.24384,15.07386 m 159.98142,-5.78656 c 2.02256,0.78969 3.68363,-2.17098 3.29017,-3.74425 -0.58073,-2.32279 0.69082,-5.81832 -2.1723,-5.8593 -3.13915,-0.0449 -6.06165,7.6722 -1.11787,9.60355 z m -219.20857,-9.19042 c 0.38261,5.232 0.56278,10.47187 1.36154,15.65775 m 113.49511,-14.58816 10.50129,-1.99305 m 46.87737,12.26988 c -5.10783,-0.22533 -2.39308,-11.38309 -0.6808,-11.34642 2.52527,0.0541 7.77101,11.65889 0.6808,11.34642 z m -244.39713,-9.98488 v 15.65775 m 147.38711,-15.45812 1.67415,13.59423 c 8.55429,-4.11988 7.98785,-13.33746 -1.67415,-13.59423 z m -182.10648,1.84268 c 2.36636,-0.43569 5.29504,-1.96675 7.3748,0.1137 1.41805,1.41736 -1.21872,6.33697 0.19474,5.50227 1.6252,-0.95974 3.22478,0.91877 3.32281,3.23407 0.1273,3.00697 -3.53933,5.58165 -5.44618,7.48849 m 12.2539,-17.0193 -0.68077,15.65776 m 71.48105,-2.72309 c -2.74147,-2.97633 -4.20105,-5.80698 -2.15601,-9.5308 0.98984,-1.80201 4.01036,-4.67491 6.12695,-3.06348 3.10336,2.36269 -3.90319,5.91625 -6.91998,4.96832 m 11.79907,7.62596 4.76541,-2.72309 c 4.98956,-2.85118 -8.05558,-7.88266 -0.68077,-10.21158 m 23.82701,12.2539 c 1.33949,-3.37403 1.45822,-10.99174 4.87909,-10.66565 5.72107,0.54535 5.86077,6.68994 6.01326,8.62333 m 90.39685,-12.73861 0.14582,14.78093 m -231.46245,-10.89235 1.36154,16.33853 m 299.53964,-13.61544 6.8077,-2.72309 m -223.29317,10.21158 c -0.20559,-4.96895 -2.64288,-9.15452 3.40386,-9.53081 m -57.86561,12.25389 c -1.68421,0.32556 -2.01236,-2.42559 -2.49639,-4.08463 -0.5807,-1.99125 -1.84081,-4.92538 -0.56708,-6.69403 1.78566,-2.48073 5.76886,0.7223 6.35364,2.6094 0.94219,3.03965 0.20191,7.49425 -3.29017,8.16926 z m 210.69942,-9.33672 8.36236,-1.16713 m -125.79603,0.0656 c 4.16905,-0.42344 3.42156,9.21493 -1.36154,9.41712 -5.28143,0.22329 -2.67135,-9.00798 1.36154,-9.41712 m -14.97698,1.58824 7.92064,-0.0687 m 224.22257,-8.10053 c 1.59709,-1.47047 4.57478,-4.231 6.12694,-1.36155 1.40379,7.03297 -1.7303,18.02672 -6.8077,12.93467 -3.87897,-4.359 7.97504,-0.87567 12.01086,-0.87551 m -345.5891,4.27937 6.00544,-6.17555 m 158.93872,-1.02001 c 2.65292,2.9357 6.12202,3.28681 9.52721,3.8403 M 321.0607,459.92627 c 3.35757,-4.35285 12.2995,-4.86412 14.4099,2.04232 0.40846,1.33839 0.56708,2.10494 0.56708,3.40385 0,1.15868 -0.19946,1.66722 -0.45407,2.72309 -0.70528,2.93141 -5.35307,6.99428 -8.24933,9.1901 l -1.21623,-20.37309 m 37.83128,0.29065 2.72309,15.65775 m -9.53081,-14.97698 0.68077,8.85003 0.68077,10.21158 m 65.35411,-17.0193 10.89235,0.68077 m -51.0579,17.70007 c 1.90957,-0.15045 5.90025,-0.70732 5.90025,-3.40386 0,-3.81096 -9.43141,-13.61544 1.58825,-13.61544 m 47.65403,0 9.62587,14.65306 m -0.0951,-13.29151 c -2.74782,3.8402 -7.92755,9.77261 -10.64374,13.63518 m -57.7254,-5.17462 c -0.89317,2.76052 -4.74026,5.51312 -7.19655,3.79333 -5.07399,-3.5526 1.79044,-11.57312 7.68275,-10.89039 l -0.87503,11.57116 m 49.42799,-15.15394 -0.41241,19.23857 m -78.19385,-7.43956 c -1.59369,1.55216 -11.53665,6.2557 -11.32766,1.31262 0.18926,-4.47948 4.97577,-5.47613 10.01701,-5.68886 l 2.57728,9.09272 m 45.61171,2.04231 v 5.44618"
       id="path177"
       sodipodi:nodetypes="cccsccccccccccccccccsccccccccccccccccccsccccccsccccccccccccccccccccccccccccccccccccccccccccccsccsccccccccccccccccccccccccccccccccsccscccccccccccccccccccccccccccccccscccccccccccccccscsscccccccccccccccccccccccccccccccccsccsscccccccscccccscccccccccsccssccccccccccsccccccccccccccccccccccccccccscccsccccsccccccsccccccccsscccccsccsccsccccccccccccccccccscccccccccccccscccccccccccsccccccscccccccccc" />
    <path
       style="fill:none;stroke:#64648a;stroke-width:0.500783px;stroke-linecap:butt;stroke-linejoin:miter;stroke-miterlimit:4;stroke-dasharray:none;stroke-opacity:1"
       d="m 484.66705,458.56324 c -0.28459,0.15332 5.04567,-0.97918 5.75639,0.28553 1.58545,5.76263 0.20001,7.35448 -1.78382,13.63766"
       id="path18035"
       sodipodi:nodetypes="ccc" />
    <path
       style="fill:none;stroke:#64648a;stroke-width:0.500783px;stroke-linecap:butt;stroke-linejoin:miter;stroke-miterlimit:4;stroke-dasharray:none;stroke-opacity:1"
       d="m 501.00941,457.97707 c -0.22663,-1.46963 -6.03767,-0.9868 -5.74623,0.76184 1.13703,-0.67115 5.40874,10.74249 5.02236,10.87545 -0.20773,0.0715 0.54789,-6.04192 9.49684,-5.6025 5.84784,3.09975 -4.55646,11.92912 -6.37473,9.74078"
       id="path18037"
       sodipodi:nodetypes="ccscc" />
    <path
       style="fill:none;stroke:#64648a;stroke-width:0.500783px;stroke-linecap:butt;stroke-linejoin:miter;stroke-miterlimit:4;stroke-dasharray:none;stroke-opacity:1"
       d="m 517.90946,459.94729 c -0.91968,-2.13025 11.3495,-5.08406 10.13605,-1.75765 2.43037,11.44636 -8.38572,15.42976 -8.12708,16.03856 4.4515,1.35457 7.14174,0.69627 9.8621,0.0724"
       id="path18039"
       sodipodi:nodetypes="cccc" />
    <path
       style="fill:none;stroke:#64648a;stroke-width:0.500783px;stroke-linecap:butt;stroke-linejoin:miter;stroke-miterlimit:4;stroke-dasharray:none;stroke-opacity:1"
       d="m 537.58758,461.35012 1.41583,7.71498 4.74844,-2.19706 -0.26237,-4.49792 1.26682,12.5172"
       id="path18041"
       sodipodi:nodetypes="ccccc" />
    <path
       style="fill:none;stroke:#64648a;stroke-width:0.500783px;stroke-linecap:butt;stroke-linejoin:miter;stroke-miterlimit:4;stroke-dasharray:none;stroke-opacity:1"
       d="m 558.81895,458.95861 c -13.97201,-0.40173 -12.04025,15.04783 -3.01342,15.92871 6.65525,1.91926 9.52952,-16.32557 3.01342,-15.92871 z"
       id="path18043"
       sodipodi:nodetypes="ccc" />
  </g>
</svg>
