<?xml version="1.0" encoding="UTF-8" standalone="no"?>
<!-- Created with Inkscape (http://www.inkscape.org/) -->

<svg
   width="3000"
   height="1998.207"
   viewBox="0 0 793.75 528.69226"
   version="1.1"
   id="svg5"
   xml:space="preserve"
   inkscape:version="1.2.1 (9c6d41e410, 2022-07-14)"
   sodipodi:docname="KeeganG - Stake - Envelope20.svg"
   xmlns:inkscape="http://www.inkscape.org/namespaces/inkscape"
   xmlns:sodipodi="http://sodipodi.sourceforge.net/DTD/sodipodi-0.dtd"
   xmlns="http://www.w3.org/2000/svg"
   xmlns:svg="http://www.w3.org/2000/svg"><sodipodi:namedview
     id="namedview7"
     pagecolor="#ffffff"
     bordercolor="#000000"
     borderopacity="0.25"
     inkscape:showpageshadow="2"
     inkscape:pageopacity="0.0"
     inkscape:pagecheckerboard="0"
     inkscape:deskcolor="#d1d1d1"
     inkscape:document-units="px"
     showgrid="false"
     inkscape:lockguides="false"
     inkscape:zoom="0.90509668"
     inkscape:cx="593.30678"
     inkscape:cy="410.45339"
     inkscape:window-width="1920"
     inkscape:window-height="1058"
     inkscape:window-x="-6"
     inkscape:window-y="-6"
     inkscape:window-maximized="1"
     inkscape:current-layer="layer1" /><defs
     id="defs2" /><g
     inkscape:label="Layer 1"
     inkscape:groupmode="layer"
     id="layer1"><path
       style="fill:none;stroke:#aba8a6;stroke-width:0.200135"
       d="m 56.033527,54.558753 c 0.568985,-0.322623 2.112171,-0.308516 2.222656,-0.816197 -0.993332,-1.369914 -3.278047,2.18252 -0.776292,2.986027 0.685058,0.19143 1.141588,-0.172881 1.627872,-0.33854 m 2.775104,-6.032427 c 0,1.190823 -0.0401,3.682628 -0.500338,4.603113 -0.241164,0.48245 -0.685665,0.849178 -1.10075,1.200813 -2.986554,1.409415 -0.541931,-2.810541 0.800551,-3.002025 M 8.6468545,51.158153 c 0,2.085955 0.4002755,3.844008 0.4002755,5.803927 m 6.204189,-5.603789 c -0.11286,2.098672 0.400275,2.958636 0.400275,4.803251 m -0.08046,-1.419823 c 0.346181,-0.765789 0.734901,-0.765397 1.081081,-0.981802 M 3.4432874,57.562493 c 0.7657478,0 3.8860197,-0.251357 3.1354594,-1.367592 C 6.0672582,55.434242 4.6193142,55.480061 4.2771833,54.36033 3.8661484,53.015148 5.9353496,51.638794 6.8455881,51.758566 m 33.2224699,0.200125 0.800538,3.202176 c 0.361949,-0.766288 0.54509,-1.928464 1.40095,-1.601088 0.915814,0.727259 1.030294,1.980843 0.6004,3.002025 m 24.344036,-5.283919 c 0,1.474404 -0.427073,3.733024 -0.228501,5.181508 M 56.133319,53.554257 c 0.107865,-0.228325 -1.180914,0.137471 -1.242569,0.371777 -0.442436,1.681333 -0.35536,0.827119 -0.212814,2.435646 m 0.04023,-1.726693 c -0.993061,0.606894 -3.321057,2.274699 -4.443219,1.526555 -1.779208,-1.186165 0.439101,-3.287307 1.801226,-3.835935 0.668251,-0.269122 1.470597,-0.166779 2.201488,-0.166779 m 10.006764,0 h 0.200138 m -29.302875,4.075965 c -0.449713,0.391366 -1.281219,0.443462 -1.918245,0.593852 -1.235831,0.291803 -3.225774,-0.173934 -3.202163,-1.867916 0.02606,-1.873613 2.569688,-3.76294 3.182102,-1.823528 m -13.491847,1.603168 c 0.557753,-0.190364 1.313214,-0.139469 1.595986,-0.831493 -0.746268,-1.91356 -3.500595,3.889367 -0.892743,2.452804 m 45.553599,-2.359074 c 0.446567,-0.27783 1.196506,-0.11745 1.678349,-0.04252 m -54.636949,0.800538 c -0.919203,1.438966 -1.616438,3.064854 -2.401626,2.201488 -0.475363,-1.12898 0.146353,-2.629128 1.40095,-2.768529 0.42436,-0.04712 0.624916,0.01782 0.933972,0.366903 0.520925,0.588479 0.421605,1.353336 0.667103,2.201488 M 8.8075047,54.729123 c 0.6303157,0 1.3590333,-0.455693 2.0407833,-0.168642 m -3.202176,0.400275 1.2008128,-0.200137 m 55.2373622,0 0.200138,2.00135 M 40.868582,55.160894 v 1.000675 M 15.553814,54.866162 c 0.759349,-0.08761 1.322866,1.511664 2.083322,1.267044 m 43.682281,-1.057835 c -0.302373,1.108851 0.357602,1.120947 0.492467,1.719673 M 36.807508,56.031186 c -2.531698,2.537504 -1.422132,-0.812255 -1.309151,-1.07043 0.224155,-0.455085 0.516551,-0.78643 0.967249,-0.733833 0.890407,0.10395 -0.500742,2.481437 1.200813,2.234846 m 1.558536,-2.134487 c -1.604854,-1.171167 -0.55481,1.89848 0.76398,2.579663 0.61479,0.336637 -2.22105,1.01211 -2.722791,0.655575 m 34.62342,3.202163 c 2.902179,-0.840133 5.557483,3.986756 0.389124,5.223574 0.496612,-1.598672 0.486743,-3.353201 0.29152,-5.164741 m -33.102563,-0.05886 -0.400275,5.403651 m 17.411779,-5.203513 -1.255758,5.364433 C 53.735352,64.787674 53.381233,64.567475 52.676573,61.965468 M 40.668458,61.164932 v 5.003375 m 21.014204,-4.803252 v 4.40299 M 33.263443,61.565193 c 0,2.045387 -0.12312,3.985299 -1.40095,5.603789 -1.104544,-1.398939 -0.730891,-3.211964 -1.400951,-4.803238 m 16.010829,-0.400276 -0.800538,2.60175 -1.601074,-1.400937 m 13.208927,-1.200813 h 0.200138 m -42.528759,4.402976 c -0.346343,0.547777 -1.180509,0.912817 -1.601089,0.200138 -0.456273,-0.773119 0.0374,-3.002039 1.100738,-3.002039 1.712274,0.203783 1.029093,1.941059 0.500351,2.801901 z m 43.329296,-0.600399 c 0.428693,0.372452 2.553933,0.721886 2.101426,-0.400276 -0.374855,-0.929624 -3.210371,-3.125591 -0.3002,-3.202163 m 1.595553,0.788334 c 1.025893,0 2.643317,-0.594919 3.407822,-0.273038 m -1.601074,2.686867 c 1.280598,-0.086 3.844588,-3.249278 1.707455,-2.484745 -1.372803,1.133056 -1.95402,1.313551 -1.707455,2.484745 z M 8.8469248,62.966144 h 2.6017632 l -1.000675,4.202838 m 50.033836,-4.002701 1.200813,-0.200137 M 5.5440247,63.627172 c 0.6696547,-0.593366 1.8494885,-0.313889 1.8021169,0.53888 -0.2281772,1.459756 -1.5990632,3.157235 -2.7918705,3.482545 0.1737992,-2.146368 2.4047171,0.181048 3.6042339,-0.0068 m 27.706702,-4.408326 c 1.174393,-0.407674 1.54725,0.829171 0.900599,1.70115 -0.300591,0.405473 -1.150768,0.919432 -1.701137,1.034101 -1.986554,0.413884 -0.150106,-2.405027 0.800538,-2.735251 m -15.010153,0.133515 c 0.503739,0.464117 1.108945,0.758309 1.167386,1.601088 0.04104,0.58879 -0.426492,1.559049 -1.167386,1.267449 -0.855334,-0.33642 -0.312836,-2.242919 0,-2.868537 m 54.796977,2.502363 c 0.16651,-0.90361 0.08897,-2.203162 1.040784,-2.502363 m -10.936524,0.237155 c -0.261833,0.882752 -0.02362,1.3537 0,2.001363 m -8.07633,-1.437981 -0.119475,1.982653 M 40.868555,64.367661 c 0.979939,0.285012 3.124592,-1.072104 2.567716,-1.206753 -1.767448,0.460945 -2.005832,2.67704 -0.356737,2.208994 m 36.415155,-1.002241 h 0.200138 M 18.464322,64.95803 c -5.068608,3.427087 -0.933539,-3.923144 0.289279,-2.391595 0.77189,1.345317 -1.662028,3.730729 -0.100035,5.003389 m 27.018281,-3.002039 -1.601088,4.603114 m -7.034831,-4.810514 c -0.0067,0.747468 0.09936,1.352607 0.320949,1.654386 m 44.539465,4.557078 c -0.749305,1.238046 -1.323501,4.150215 0.200137,4.603114 0.278992,-0.963456 0.196534,-1.665119 1.200813,-2.401626 0.490928,1.165996 -0.04509,1.990685 -1.185058,2.41738 m -8.421444,-4.218592 -0.400262,4.803251 m 1.200813,-4.603114 c 0.818749,-0.06467 2.6674,-0.742905 2.801887,0.400276 0.144909,1.231026 -0.70007,2.530105 -0.800537,3.802563 M 79.386,71.471679 c 1.49344,-1.369752 0.56341,3.904826 0.263993,4.227476 -0.521289,0.561749 -1.630424,-1.435794 -0.263993,-4.227476 z m -21.105625,0.100845 c 0.94843,-0.224559 1.668534,-0.07223 2.801887,-0.400275 m 1.200813,0 c 0,1.314294 1.538408,2.825931 2.529282,3.901855 0.410697,-1.296919 0.316386,-2.460242 0.560115,-3.800267 m 20.326446,0.09855 c 0.982963,-0.955531 1.327699,3.177512 -0.200138,3.802576 -0.960647,-1.216622 -0.824959,-2.689622 0.200138,-3.802576 m -26.557836,0.08937 0.210168,4.624983 m 13.338865,-4.314078 c -0.348841,0.44191 -1.877866,2.263345 -1.000675,2.701839 0.372654,0.186327 1.357318,-0.100035 1.801226,-0.100035 m -55.4375,-2.401626 0.3002,1.701151 -0.100035,3.102101 m 0.780098,-3.145436 -1.780773,-0.0567 m 10.807315,-1.601075 0.06669,2.60175 -0.266787,2.601763 m 34.527678,-5.367039 c -0.03402,0.994006 0.339903,2.906513 0.03726,3.632044 M 25.65821,72.57328 25.458073,77.576669 M 9.2471192,72.773418 C 8.7332546,73.80112 8.9008438,76.462527 7.8461687,76.776132 7.0996044,76.371483 7.0324283,75.531417 6.8454936,74.774782 6.5930298,75.448595 6.0499107,76.702611 5.4779016,76.475932 4.7055658,76.131101 5.0442811,74.634679 5.0442811,73.774093 m 9.2062139,3.802576 c 3.049829,-0.240759 0.378567,-1.917488 0.200138,-3.202163 -0.151997,-1.094338 0.448403,-1.601479 1.400951,-1.40095 m 23.415842,3.802576 c 1.243433,0.359843 3.789171,-0.56098 3.141994,-1.121932 -0.323028,-0.584402 -1.687218,-1.572684 -1.107231,-2.246943 0.373856,-0.4347 1.210627,-0.233563 1.7678,-0.233563 m 1.400951,0.733887 c -0.920418,0.17893 -1.385034,2.57664 -0.579894,3.196858 3.409146,-0.432689 2.556795,-3.465764 0.579894,-3.196858 z m 1.574547,2.576613 c 0.216527,-1.489875 0.534951,-3.722561 1.627616,-3.377379 0.939101,0.264627 0.870751,2.675716 0.870751,3.369792 M 7.0456313,73.774093 6.8454936,74.774782 m 28.2190814,1.200813 c 0,-0.507547 -0.135284,-1.398953 0.233564,-1.7678 0.666468,-0.666577 0.88768,-0.686773 1.382617,-0.372439 m 1.123269,-2.136242 c 0.05981,-0.440654 -0.02092,-0.10719 -0.01215,-0.07303 m -0.110295,2.507317 c 0.13149,0.490672 0.05063,1.34367 -0.215676,2.042323 m -8.005415,-1.400937 c 0.815955,-0.60121 2.063005,-0.711289 1.334301,0.6004 -1.032886,1.85906 -1.759389,1.015093 -1.334301,-0.6004 l -1.353282,-0.0081 m 6.005306,-0.605935 c -0.268029,-0.04158 -0.52295,-0.0995 -1.084969,0.226517 -0.415692,0.913559 -0.243932,1.459946 -0.364878,2.189284 M 10.647719,74.775295 c 0.847828,0.105165 2.972406,-1.115088 2.291006,-1.43007 -0.776588,0.273686 -1.296717,0.40014 -1.723965,1.630208 -0.400289,1.744471 1.667171,1.087979 2.420067,1.016416 m 12.22317,-0.816279 c 0.957259,-0.176323 1.208818,-0.321813 2.201501,-0.400275 m 2.766437,0.516875 c -0.0405,0.271499 0.395564,1.270972 0.733577,1.144909 m 26.520279,0.139442 c 1.041702,-0.496153 2.126941,-0.752815 3.275522,-0.661042 m -9.639739,0.739922 -0.11988,1.361274 M 147.3402,103.79493 c 0.50925,1.79782 0.45171,4.28575 0.14497,6.09551 m 1.46599,-3.61373 c -0.13041,0.26288 -1.88386,-0.0941 -2.41151,-0.0802 v 0 m 9.00609,-2.20148 -0.20012,2.20148 0.20012,4.00272 M 89.022378,105.0737 c -3.263561,-0.45818 -6.109823,1.5236 -3.049747,3.12508 3.292761,2.52553 5.459541,4.13181 -0.674394,4.00181 m 30.220433,-8.00542 c -0.24165,2.3136 0.75883,3.98191 0.60044,6.00407 m 1.80118,-3.20218 -1.79663,1.8067 c 0.29157,0.72407 1.26755,0.58333 1.79666,0.9952 m -8.60584,-5.40365 c -0.0725,2.11257 0.30085,4.91498 0,6.8046 m 25.21705,-5.60379 c 0.0536,0.67866 0.17212,0.72729 0.20014,1.40094 -0.28829,3.60371 -0.71666,3.20218 2.40165,3.20218 m -37.825604,0 c -2.267746,-0.60027 -1.686206,-2.05611 -0.107056,-3.44198 2.34756,-1.30968 0.698059,1.50659 -1.314496,1.62358 m 3.581326,2.02358 c 3.78211,-0.39575 2.77985,-4.39069 -1.40215,-3.1708 m 1.29071,-0.22693 c 0.01,0.99843 -0.14046,2.25539 0.0976,3.33769 l -0.34471,3.65742 m -3.402309,-7.20486 c 0.539339,0.0803 -1.328469,0.96497 -1.928882,1.29852 m 1.928882,-1.29852 c -2.429962,-0.86946 -2.711438,4.35499 -0.600413,3.20216 m 21.631982,-2.11169 c 0.9566,0.20643 4.01643,0.0293 2.99886,-0.89035 -2.73855,-0.79708 -2.08283,3.22235 -0.8147,3.4023 m -27.218433,-3.60242 c 0,1.42776 0.295002,2.65379 -0.400262,3.80256 -0.836839,-0.35784 -0.943462,-1.13303 -1.200813,-1.60109 -0.130545,0.81771 -1.044523,1.73227 -1.000675,1.40095 l -0.600413,-2.60175 m 60.993396,2.83468 c -1.88339,-0.23105 -0.92712,-2.6538 0.24803,-3.53515 2.163,-0.29469 -0.70421,1.78332 -1.22133,1.4276 m 4.80506,-1.66854 c -2.63426,0.23262 -4.78002,6.71837 -0.19652,2.5594 m -31.01216,-2.34606 c -2.87071,0.47294 -0.68158,1.7224 0.17959,3.21001 0.40989,1.0505 -1.07657,1.0711 -1.53015,0.83839 m -9.5482,-3.10601 c 0.63428,0.004 -0.94051,2.54881 -2.5967,2.31573 -0.47378,-2.09795 1.37681,-2.33288 2.5967,-2.31573 z m -1.30794,0.12771 c -1.44922,-0.58361 -2.53246,-0.50713 -3.59772,-0.14184 m -16.210968,-0.20013 0.02997,1.34973 m 46.882418,-1.18972 -0.28082,3.04215 m 1.80122,-3.00203 -0.80053,2.88349 m 0.51628,-1.93267 c 0.25442,-0.22117 0.72514,-0.91395 1.0778,-0.44749 0.2928,1.15005 -0.029,1.2599 -0.0436,1.88985 0.51291,-2.50065 2.37696,-2.85249 2.45221,0.008 m -30.41896,-2.02822 c -0.10395,0.77103 0.37198,1.07573 0.44124,1.67357 m 31.57885,-1.04637 v 2.00136 m -40.22721,0 c 0.9372,-0.14179 2.54691,-0.47715 0.88721,-1.42539 -1.41938,-0.99687 -1.17372,-2.52038 0.60989,-2.70809 m -0.69656,13.94012 c -0.20507,-1.98261 0.33044,-4.05585 -0.62011,-6.03716 0.48142,-0.23111 1.80581,-0.37675 2.30395,-0.0189 1.59121,2.53872 0.63218,3.07642 -1.76424,4.06889 m 3.02899,-1.24597 c 0.0933,0.64334 -0.0664,1.71194 -0.0664,2.35416 m 7.32478,-5.72551 0.40026,2.40163 v 2.40163 m 63.64306,-4.20284 1.76779,0.26677 -0.10004,1.3343 -0.66705,3.60244 m -4.60311,-3.80256 c 0.38105,-0.60622 1.52303,-1.49262 2.10141,-0.40028 0.65725,1.24144 -0.70627,3.00783 -1.40569,3.81362 -0.50653,-1.05102 0.93945,-0.33256 1.50577,-0.41132 m -8.60583,0.6004 c 2.52951,0.53256 -0.83176,-2.87514 0.10003,-4.16941 0.35404,-0.49174 2.50108,-0.32542 3.10209,-0.23356 1.06793,0.16312 1.38294,0.96125 1.7678,1.80122 0.35764,0.77993 0.22696,2.44665 -0.96725,2.50169 -1.52523,0.0705 -0.47072,-3.26401 0,-3.90264 m -41.42802,0.20014 c 1.27646,-0.60461 4.17462,-0.22876 4.20284,1.80121 0.0157,1.13057 -1.55976,2.0254 -2.44354,2.7016 m 8.28173,0.7034 c 0.23209,-0.0906 4.29563,-0.11556 2.63866,-1.0721 -0.89053,-0.51414 -2.63207,-2.26615 -2.23922,-3.53371 0.36683,-1.1841 1.74441,-0.82354 2.8436,-0.61375 m -0.0401,0.009 c 0.47978,0.0915 1.68308,0.0188 2.09853,-0.0267 0.70418,-0.12353 2.50495,-0.35853 2.63363,-0.13661 m -1.5267,2.02855 c 0.52001,-0.12906 1.29001,0.0401 1.77384,0.0401 m 6.39339,-2.30222 c -0.0448,1.70215 -0.20013,3.31864 -0.20013,5.00338 m -45.98279,-2.73897 c 0.71899,0.13709 2.63286,-1.55103 1.43328,-1.34712 -3.01068,1.83966 -1.5415,3.80408 0.71986,2.48506 m 0.6004,0.6004 c 0.5911,-0.33399 2.31918,-0.28679 1.77248,-1.00202 -0.29667,-0.38815 -3.05235,-2.89133 -0.97193,-2.56699 0.5364,0.0967 0.61593,0.32597 0.84108,0.46579 m -0.2708,0.0501 c 0.14305,0.0888 0.61567,0.0914 1.03081,0.051 0.41067,-0.0401 0.61981,-0.035 1.00066,-0.0667 0.57332,-0.044 1.03688,0.01 1.24337,0.0362 m 39.98452,-0.56999 v 4.20283 m -24.41651,-4.00271 0.20014,3.80258 m 26.41787,-3.80258 c 0.47292,0.48573 2.33878,3.13553 0.40026,3.13553 -1.41595,0 -0.74649,-2.56333 -0.40026,-3.13553 m -74.450356,0.20014 0.200124,5.80394 m 23.506472,-5.53446 c -0.49602,0.0171 -0.80891,0.58377 -1.16222,1.02906 m -12.537642,-0.8983 v 4.0027 m 22.215032,-1.40095 c -1.60862,-2.31987 0.0242,-4.12819 1.40802,-1.51599 -0.0876,0.98512 -0.57766,1.57112 -1.40802,1.51599 z m 1.28747,-0.33876 c 0.10854,-1.48353 0.35668,-3.40088 1.14565,-3.3346 1.07932,0.78754 1.18442,2.0746 1.36944,3.07294 m -35.154267,-1.02947 c 2.404907,-2.06956 2.49024,0.40452 1.891258,0.94315 0.517024,-0.39398 0.923981,0.0185 1.20817,0.31982 0.696277,0.7379 -0.488322,1.86187 -0.767111,2.56834 m 2.401626,-4.60312 -0.400276,3.80258 m 55.23737,-4.75535 c 0.14721,1.57997 0.22239,3.2608 0.62181,4.48771 m 18.59118,-2.7344 1.00067,-0.40026 m -72.868882,3.08181 c 0.959446,-0.55558 0.805991,-1.7565 0.441288,-2.87276 -1.432297,-1.47847 -1.2668,3.51269 -0.441288,2.87276 z m 54.786042,-4.6172 0.47092,3.13646 0.23357,1.30089 1.56766,-0.3002 m -62.042411,-1.33075 -0.688865,0.80922 m 40.992136,-0.93459 c 1.09189,0.7253 1.36656,1.74544 2.62386,2.12587 m -2.77012,0.24246 c 0.12163,-0.83005 0.17363,-2.42393 0.004,-3.11372 -0.18132,-0.72528 -0.44911,-2.17066 0.46691,-2.60175 0.76652,-0.36064 2.19087,0.17571 1.93471,1.20081 -0.32442,1.29728 -1.35233,1.82987 -2.26622,2.11968 m -15.59266,7.85717 c 0.43649,0.11488 3.20707,0.2066 3.47737,0.45538 m -1.91477,-0.31204 c 1.27627,1.17468 0.4859,3.87808 0.15195,5.69051 m -27.618678,0.16672 c -0.639428,-0.11732 -0.32747,-2.06829 -0.371898,-2.52579 -1.431731,-8.40438 6.744621,2.16184 0.371898,2.52579 z m 7.80529,-5.97064 0.200124,5.20351 m 1.400951,-5.00337 c 0,1.6283 -0.455909,3.23899 0.800537,4.60311 m 20.814126,-4.60311 c 0.9446,1.4206 1.44143,3.0097 2.00135,4.60311 m 0.40028,-4.40298 -1.19529,2.0439 -1.40647,2.35908 m -15.21028,0.26156 c 0.15598,0.37614 3.07568,0.36138 1.91468,-0.54524 -0.26255,-0.20502 -3.39774,-2.27538 -0.31361,-2.91848 m -2.9626,1.61839 c -0.37425,0.4467 -1.97493,2.34287 -2.541123,1.55034 -0.604409,-0.84616 0.955453,-2.61297 1.901283,-2.50169 0.79974,0.0941 0.73831,1.74359 0.80055,2.33498 m -8.405684,-2.00135 c -0.403475,0.95825 -0.744296,1.47559 -1.601075,2.20149 -0.371061,0.31441 -1.223033,0.71048 -1.4676,0 -0.473324,-1.37453 2.161123,-2.19992 3.052934,-2.19992 m 0.01579,0.01 c -0.271917,1.08341 2.03e-4,1.70649 0.200124,2.39065 m 14.409751,0.20013 -0.20014,1.00068"
       id="path371"
       sodipodi:nodetypes="cccccccccccccccssccccccccsccssccccscccccccccsscccccccccccccccscccccccccccccccccccccccccscccscccccccccccccccccscccccccccccccccccccccccccccccccccsccccccccccccscccccccccccccccccccscccsccccccccccccccccccccccccccccccccccccccscccccccccccccccccccccccccccccccccccccccccccccccccccccccccccccccccccccccccccccccccccccsccccccccscccccccccccccscccccccccccsccccccccccccccccccccccccccccccccccccccccccccccccccccccccscccsccscccccc" /><path
       style="fill:none;stroke:#64648a;stroke-width:0.132499px;stroke-linecap:butt;stroke-linejoin:miter;stroke-miterlimit:4;stroke-dasharray:none;stroke-opacity:1"
       d="m 127.7526,126.39604 c -0.0753,0.0406 3.09779,-0.33462 3.28584,0 0.41948,1.5247 -0.22409,3.10428 -0.74898,4.76671"
       id="path18035"
       sodipodi:nodetypes="ccc" /><path
       style="fill:none;stroke:#64648a;stroke-width:0.132499px;stroke-linecap:butt;stroke-linejoin:miter;stroke-miterlimit:4;stroke-dasharray:none;stroke-opacity:1"
       d="m 135.07327,125.98913 c -0.06,-0.38884 -2.83143,-0.0848 -2.75432,0.37785 0.30084,-0.17758 1.43107,2.84228 1.32884,2.87746 -0.055,0.0189 0.14496,-1.59859 2.5127,-1.48233 1.54724,0.82014 -2.6158,3.91173 -3.09688,3.33273"
       id="path18037"
       sodipodi:nodetypes="ccscc" /><path
       style="fill:none;stroke:#64648a;stroke-width:0.132499px;stroke-linecap:butt;stroke-linejoin:miter;stroke-miterlimit:4;stroke-dasharray:none;stroke-opacity:1"
       d="m 138.31078,126.68669 c -0.24345,-0.56372 1.95928,-2.18004 2.68183,-0.46504 0.64304,3.02851 -2.21872,4.08245 -2.15029,4.24353 l 2.60935,0.0192"
       id="path18039"
       sodipodi:nodetypes="cccc" /><path
       style="fill:none;stroke:#64648a;stroke-width:0.132499px;stroke-linecap:butt;stroke-linejoin:miter;stroke-miterlimit:4;stroke-dasharray:none;stroke-opacity:1"
       d="m 143.31582,126.42829 0.57607,2.67082 1.25636,-0.5813 0.0347,-2.75238 0.23103,4.87415"
       id="path18041"
       sodipodi:nodetypes="ccccc" /><path
       style="fill:none;stroke:#64648a;stroke-width:0.132499px;stroke-linecap:butt;stroke-linejoin:miter;stroke-miterlimit:4;stroke-dasharray:none;stroke-opacity:1"
       d="m 149.13475,126.4251 c -1.11827,0.58131 -3.07462,4.01102 -0.7973,4.21448 1.76087,0.5078 2.52135,-4.31948 0.7973,-4.21448 z"
       id="path18043"
       sodipodi:nodetypes="ccc" /></g></svg>
