<?xml version="1.0" encoding="UTF-8" standalone="no"?>
<!-- Created with Inkscape (http://www.inkscape.org/) -->

<svg
   version="1.1"
   id="svg59"
   width="3000"
   height="1998.207"
   viewBox="0 0 3000.0001 1998.207"
   sodipodi:docname="KeeganG - Stake - Envelope44.svg"
   inkscape:version="1.2.1 (9c6d41e410, 2022-07-14)"
   xmlns:inkscape="http://www.inkscape.org/namespaces/inkscape"
   xmlns:sodipodi="http://sodipodi.sourceforge.net/DTD/sodipodi-0.dtd"
   xmlns="http://www.w3.org/2000/svg"
   xmlns:svg="http://www.w3.org/2000/svg">
  <defs
     id="defs63" />
  <sodipodi:namedview
     id="namedview61"
     pagecolor="#ffffff"
     bordercolor="#000000"
     borderopacity="0.25"
     inkscape:showpageshadow="2"
     inkscape:pageopacity="0.0"
     inkscape:pagecheckerboard="0"
     inkscape:deskcolor="#d1d1d1"
     showgrid="false"
     inkscape:zoom="1.4116864"
     inkscape:cx="548.28041"
     inkscape:cy="382.8754"
     inkscape:window-width="1280"
     inkscape:window-height="658"
     inkscape:window-x="-6"
     inkscape:window-y="-6"
     inkscape:window-maximized="1"
     inkscape:current-layer="g65" />
  <g
     inkscape:groupmode="layer"
     inkscape:label="Image"
     id="g65">
    <path
       style="fill:none;stroke:#8e868d;stroke-width:0.788129"
       d="m 197.86196,7.2786452 1.57626,1.5762617 m 8.66944,6.3050451 c 0.0184,4.991992 -0.22938,9.986316 0,14.974484 m -14.18635,-12.610091 1.12075,15.865775 c -2.12793,1.002947 -7.94675,1.70812 -9.65857,0.553588 -0.65258,-0.439856 -0.81651,-1.319962 -0.91975,-2.233011 -1.06235,-4.536019 6.1349,-7.502702 10.01813,-6.985461 m -88.11665,9.140495 c -4.02412,2.385117 -10.677014,4.453894 -10.960244,-6.883818 0.186787,-6.714637 6.941854,-9.522038 12.610084,-7.881307 m -61.474189,0 V 38.015743 M 167.76919,33.979218 C 147.1939,37.206572 159.72517,9.7092817 171.80148,19.492555 M 24.473212,19.888737 c 0.588481,6.300676 1.147413,12.601923 1.576262,18.915136 M 129.29459,19.888737 V 35.171188 M 11.074991,43.532657 18.036786,39.592004 C 24.516136,35.924433 3.8351036,24.674171 13.702067,23.172641 l 6.042361,-0.919512 m 181.270052,0 0.31404,8.401668 m 3.62662,-6.037276 c 3.49141,-0.643273 5.38923,-0.788131 8.66943,-0.788131 m -36.55009,5.43197 c 3.88106,1.542379 5.20055,-3.567082 5.02487,-3.855708 v 0 c -7.97437,0.840961 -5.87448,9.773166 1.22555,7.670174 M 54.670318,24.887515 c -2.658429,2.783974 -5.360396,5.372035 -8.407907,6.405149 m 69.880489,5.167449 c 0,0 -1.56056,-7.431266 -1.01304,-10.842067 -10.14467,-0.572466 -10.72453,17.399776 0.59432,8.225082 m 4.90097,3.384484 c 0,0 3.58397,-0.207225 3.94066,-1.576262 0.59653,-2.289635 -3.87403,-3.226184 -4.46634,-5.516914 -0.83115,-3.214431 3.44302,-5.08156 3.67821,-4.728784 m 47.58392,8.351507 c -0.78374,-5.92057 -0.78287,-8.599683 3.64457,-7.563377 M 41.572409,34.075089 33.364708,35.037343 C 28.31653,35.62918 41.11818,22.866321 41.370086,26.966754 l 0.664059,10.809311 M 129.36211,27.609989 c 8.98256,-5.706611 6.76425,4.308888 7.02566,8.829492 M 16.591906,30.134436 c 4.840026,0.332413 9.457947,-0.788195 14.186352,-1.576262 M 64.66788,35.65135 c -1.355193,0.677556 -3.118007,2.207161 -4.728787,1.970327 -4.338547,-1.841446 -2.273534,-9.260342 0.131378,-11.296513 1.067369,-0.861428 2.50355,-0.857506 3.415213,0.656749 1.969201,3.270803 -4.029997,4.618419 -5.974077,4.595903 M 46.828484,31.114308 c 2.19414,1.881848 4.255042,3.976877 7.397718,4.341068 m 182.598918,10.91273 c 1.33549,5.42795 2.08108,16.701695 2.08108,16.701695 10.88986,-8.409266 12.00578,-17.883013 -2.08108,-16.701695 z m -120.92875,4.25773 V 69.540971 M 93.828713,51.413964 90.019677,60.871532 86.735537,71.117228 C 82.467082,65.353567 80.82244,60.750688 80.82244,54.170308 m 169.64099,-0.293345 c 2.37899,-2.653811 4.38663,-1.594037 6.50833,-1.67487 m -81.17746,0 0.78813,0.788135 m -65.41484,0 v 13.398216 m 50.44036,-13.398216 c 0.41692,5.279368 1.40287,10.031641 3.15252,14.186351 3.90046,-2.524072 4.72879,-9.050419 4.72879,-14.186351 m 12.61009,16.550743 c 14.85509,-9.046246 -6.7666,-2.857835 3.15252,-14.974486 m 23.67423,7.289155 c -1.66768,1.140895 -7.42613,4.34594 -9.48788,3.350608 -2.11534,-1.021021 -0.88271,-3.735815 -0.13162,-5.122844 1.6669,-3.076157 4.61793,-5.364504 8.99915,-5.114038 l 0.59004,9.842821 m 41.56156,-12.597947 0.20936,7.869164 m 16.55075,-4.728784 h 1.57626 M 47.433338,66.425453 c -3.035717,1.95e-4 -9.08579,-0.443212 -8.773773,-3.977658 0.350142,-3.96632 4.762102,-5.862799 9.676279,-5.696499 L 46.540871,73.48162 m 141.863519,-14.186351 7.09318,-2.364392 m -55.95728,0.788135 -2.62684,11.821959 -3.6782,6.305041 m -13.39823,-11.82196 c 3.03667,-1.358656 9.45022,-3.079259 6.30505,-4.728783 -9.43784,-4.949807 -7.81127,13.259982 2.39471,7.733269 m 48.04565,-8.521398 v 8.669439 M 6.3462073,60.871532 C 17.432184,57.382701 13.925405,73.662868 5.5580768,74.269755 4.0750805,67.333893 13.174554,74.586495 15.015644,75.846012 M 56.786567,64.812187 c -0.02725,1.962599 -5.91e-4,3.9572 -2.364392,4.466336 -4.741864,1.021417 -3.978164,-9.000081 -0.788129,-9.983254 2.024085,-0.623827 3.19508,2.45298 3.152521,5.516918 z m 47.845363,-0.307974 c -2.49821,2.938779 -5.212211,5.406761 -9.226954,5.036758 -6.158266,-0.567555 0.808285,-10.511962 7.325664,-10.689073 l 2.92003,9.900938 M 17.380036,60.871532 c 10.201176,-1.559109 5.507468,6.086565 3.839009,13.38912 M 129.29459,61.659661 c 1.9492,2.386581 3.82548,4.807192 7.81076,6.243602 m 53.80724,-18.334866 2.22059,16.820047 M 31.566388,63.629991 c 2.101787,-0.834004 3.549504,1.846271 3.809272,3.546588 0.287353,1.881264 -0.595984,3.552889 -2.233011,4.334716 -2.379366,1.136487 -3.940653,-1.41627 -3.940653,-3.546588 0,-1.542842 0.897839,-3.752763 2.364392,-4.334716 M 16.591906,67.176579 26.647199,65.501708 M 199.43822,76.634147 c -0.41979,5.567995 0.99359,10.946023 1.98891,16.384622 C 197.8963,91.624563 192.79197,82.5748 189.77737,81.067104 l 1.41013,15.627579 m 59.1352,-4.661671 c -6.30584,1.711318 -4.15954,-11.872386 3.12306,-8.518089 1.98158,0.912703 2.51102,6.707266 0.55514,7.335893 v 0 c -1.22606,0.394068 -2.43531,0.844898 -3.6782,1.182196 z M 176.58243,78.998539 186.04,78.210404 m 48.07597,0.788135 5.3853,0.394061 0.91975,13.792291 m -16.55075,-13.398224 -1.83871,6.305048 8.35008,1.84403 m -0.20633,-8.149078 c -0.002,5.779627 -0.001,11.559253 0,17.338879 m 45.31752,-14.186358 c 1.28623,2.498376 -0.92921,6.556465 -3.54659,6.961562 -5.98742,0.927628 -3.92697,-8.717939 -1.57626,-10.114083 1.70464,-1.012426 4.03759,1.044276 5.12285,3.152521 z M 74.913576,81.362931 c 0.328592,6.381068 -0.676092,12.61399 -1.576263,18.915139 m 43.347187,-18.915139 1.57626,0.788128 m -35.465879,0 -0.788129,10.245703 0.186994,6.240565 m 10.415975,-2.567683 -6.662313,1.581583 c -6.133623,1.456076 0.29374,-9.578158 4.728784,-9.0635 3.184824,0.369578 1.482799,6.756799 2.204334,10.255922 m 89.588234,-20.196317 0.89281,19.082009 m -61.16015,1.760597 c 0,0 4.20336,-2.627105 6.30504,-3.940655 2.60825,-1.630154 -4.51362,-2.102731 -5.91098,-4.728784 -1.56286,-2.935789 2.19495,-5.854235 4.33472,-7.093176 m 133.19743,7.585224 c -1.8898,-3.195157 2.5905,-6.727263 3.93731,-6.008967 v 0 c 2.82822,8.926957 -10.99964,8.866263 -7.09318,-4.728784 l 1.57626,-3.152521 M 7.1343378,86.091715 c 0,4.854097 -0.8595351,8.69702 0.788131,12.610089 3.8541162,-2.42271 4.7287832,-6.959978 4.7287832,-11.821961 m 5.516915,0 c 0,0 2.022595,9.692311 -1.576261,10.615116 -2.372838,0.608435 -4.411711,-5.877229 -4.411711,-5.877229 m 24.903108,7.872208 c 1.665951,-1.862355 3.620199,-3.984792 0.78813,-5.516918 -1.573108,-0.851182 -3.127144,-0.07172 -4.597402,-1.182196 -3.462967,-2.615018 2.59492,-5.489327 4.597402,-5.910981 M 138.75216,90.03237 c 0.23013,1.95456 -0.83699,5.059799 -3.15252,5.91098 -2.24302,0.824381 -2.91136,-1.201903 -3.15253,-2.758459 -0.25456,-1.642466 -0.7834,-4.812336 1.57627,-5.77936 2.25011,-0.922131 4.50653,0.739262 4.72878,2.626839 z m 1.57626,7.881305 c 0.17611,-17.697344 8.6304,-13.516041 11.03383,-2.364392 m 83.54185,-8.66944 8.42973,-1.046793 M 32.290039,96.075715 c -8.477742,4.494435 -7.479457,3.782282 -9.393088,-6.043345 8.021476,-4.763736 3.384566,3.666297 0.853575,4.641473 m 81.900144,-7.005865 0.99749,7.247157 m 10.03634,-7.247157 v 8.669434 m -10.86467,-7.514925 c 1.77837,-0.632055 3.49135,-2.768011 5.39706,-0.471058 m -71.553766,2.887786 8.761977,-2.518379 m 53.162029,-0.104678 c -1.777842,-0.866384 -3.089435,0.753839 -4.465883,2.028176 m -0.104684,-2.145922 0.752805,8.627134 m -23.265405,-5.833989 7.502789,-0.471058 m -38.981747,-8.88561 1.570192,15.547929 M 159.24355,95.549283 v 2.364392 m 18.92121,0 11.01562,-0.104678 m 346.0015,69.460183 c 1.4487,7.28014 1.79697,14.68398 2.36439,22.06765 M 558.8258,170.4217 c 0.96514,5.6331 1.11034,11.34053 1.64147,17.04279 l -7.15838,1.87234 c -4.47093,-3.5008 1.48383,-10.86668 6.65752,-8.93942 m -161.91926,-9.18758 c 0.1446,7.17824 1.24693,14.21095 2.36439,21.27953 m 125.31277,-21.27953 h 2.36439 m -39.40653,0.78813 c 0.5033,2.93788 0.24795,16.4159 1.1822,18.127 1.58571,2.68674 5.17644,1.57627 7.48724,1.57627 m 3.15252,-18.12701 0.78813,0.78813 m -83.54185,0 c 0.51412,5.45529 4.02253,11.63226 3.94066,16.55075 m -0.56819,-4.99547 4.50884,3.4192 1.71338,0.59216 m 114.92996,-4.53281 c 0.30422,-2.95549 9.69223,-5.11883 7.09317,-7.09318 -7.1079,-5.39942 -11.938,14.94575 1.24072,11.50404 m -221.12917,11.35175 9.60561,-5.61278 c 9.39557,-5.49006 -14.35751,-5.88619 -9.73723,-14.09048 2.08934,-3.80273 5.76202,-3.15253 9.58919,-3.15253 m 92.30715,7.10622 c 2.26401,-1.02795 6.33765,-1.02264 6.86569,-3.95369 0.44609,-2.47237 -2.24223,-2.60714 -3.54659,-1.44464 -3.35511,3.39558 -4.89049,7.79257 -1.19861,11.66975 0.78418,0.80311 5.46685,0.047 6.43547,0.32759 m 3.95827,0.48113 6.30504,-1.57626 c 2.4926,-0.62315 -3.60412,-2.66389 -5.51692,-4.72879 -2.03495,-2.19652 -2.66151,-5.84557 0.78814,-6.96156 1.19559,-0.38697 2.72771,-0.13161 3.94065,-0.13161 m 59.34948,2.73872 c 3.01027,-0.86835 6.30829,1.038 5.9695,5.88278 m -6.20918,-7.04524 0.78813,4.72878 0.78813,5.51692 m 3.7623,-7.65502 c 7.7936,-5.81927 5.55538,2.7404 8.05966,4.50249 m -135.55847,5.51692 6.37906,0.074 c 2.13201,0.0248 -3.05086,-1.96639 -4.33472,-4.72879 -1.83083,-3.93829 2.71124,-7.08523 5.83696,-7.16719 m 32.43955,-1.1473 c -1.25721,2.37187 -2.79056,4.52282 -5.51445,5.72135 m 106.26898,-3.78592 0.78813,4.72878 m 3.94066,-4.72878 7.95955,-1.1103 m -124.60289,10.56787 -1.36301,-8.97856 c -6.11748,0.11141 -10.21014,9.75163 -6.31809,8.53444 l 7.67864,-2.4014 m -49.05338,4.65476 c -10.71439,1.7276 -7.06218,-11.25755 -1.59388,-7.61706 -0.81534,2.69823 -3.36071,3.21065 -5.46229,4.2839 m 11.58263,-3.20487 c -0.92448,1.84817 -2.13662,2.00186 -3.54659,3.15252 -2.91272,-6.13665 5.21143,-6.78245 3.54659,-3.15252 z m 132.01189,-3.15252 v 7.09318 m -148.16857,-6.30505 -1.57626,11.82196 -3.94066,-6.30505 -3.15252,9.45757 c -2.14214,-1.38632 -2.09563,-2.32577 -2.49601,-4.72878 -0.63917,-3.83662 -0.65651,-5.51455 -0.65651,-8.66944 m 52.13858,0.78813 9.78396,-2.02038 m -26.45666,20.14739 v -4.72878 l -0.52568,-3.15253 -0.5249,-3.94065 -1.2768,-9.93535 c 3.75547,-0.94322 7.23523,0.77447 7.14534,4.01132 -0.0788,2.83649 -3.63351,5.83048 -6.04352,7.24545 m -9.80827,-4.47395 c 0.004,3.73006 3.11299,3.65328 7.24545,2.65624 m 278.84597,13.89451 c 1.6306,-1.45883 3.34798,-3.18799 5.38526,-1.31381 1.23504,1.13648 1.1018,2.8286 0.91974,4.46633 -0.38303,3.44729 -2.1886,5.89601 -3.94061,8.66944 l 7.24408,-0.0463 m 3.0016,-11.77569 5.38532,-0.39407 0.91974,6.69911 v 5.51692 m -43.34722,3.15252 6.30506,-1.57626 c -2.00813,-3.46778 -5.3979,-3.94696 -6.17342,-7.88131 -0.56586,-2.868 0.59505,-4.07227 3.02092,-4.07227 1.22476,0 3.87589,0.0269 5.19676,0.0269 m -101.34869,18.2317 c 2.38804,-0.18837 8.12721,-1.46514 5.91098,-5.51691 -1.30357,-2.3841 -4.0636,-1.70709 -5.64853,-3.94066 -2.49837,-3.52058 2.50231,-7.59127 5.25447,-7.88131 m 100.88069,11.03383 c -2.18499,-0.25939 -4.10417,-8.8305 -1.57628,-10.24569 8.15313,0.85929 5.64073,10.72821 1.57628,10.24569 z m -208.85459,-9.45757 c 0.7382,5.83877 1.95715,11.58285 3.15252,17.33888 m -39.21902,-6.20494 c 3.60211,-1.37333 9.23003,-5.11491 8.48192,-7.98141 -0.46736,-3.97218 -7.2821,-2.21899 -9.75576,-0.22206 l 2.00607,13.62028 0.65652,4.72878 m 90.63502,-3.15252 v -8.66944 l -0.52568,-3.94065 -0.9177,-4.85286 6.96029,-0.66406 c 5.85165,-0.55828 -2.21432,7.59496 -5.59939,9.46181 m 72.59051,5.51268 -5.3853,-0.39407 c -1.39324,-3.84582 -0.94638,-8.63829 -0.52568,-12.0844 l 5.33398,-1.26377 m 27.37341,-0.44412 -0.65648,6.30505 -0.13163,7.88131 m 5.51687,-14.18636 v 11.82197 m 6.4367,-11.4279 c 2.54089,-1.34219 5.18588,2.54094 5.38526,4.33472 0.19151,1.72285 -0.36329,4.32841 -2.36439,5.12285 -1.71892,0.68174 -2.55904,-0.82438 -3.28414,-1.97033 -0.77156,-1.22081 -1.3989,-2.39985 -1.31301,-3.94065 0.0591,-1.0758 0.5525,-3.00593 1.57628,-3.54659 m -58.45327,0.39407 h 7.8813 m 65.4148,2.36439 3.94067,-0.78813 m 47.28784,0 13.92846,-2.14593 m -175.07718,1.68877 c 17.26143,5.3801 5.64601,11.62926 0.40499,17.38011 z m 41.0198,-1.14942 1.90935,11.06415 m -119.00773,-5.51692 -2.75845,3.94066 c -2.01301,2.87571 5.83068,4.91625 5.91098,6.30504 -0.0729,2.11678 -5.51692,3.15252 -5.51692,3.15252 m 22.06766,-3.94065 c 0,-2.26036 0.47446,-11.55242 4.59716,-9.0635 2.02314,1.22081 2.19968,5.31909 3.28414,7.48724 m -40.91089,-2.77905 c 1.38984,-0.25047 3.36554,0.0675 4.31287,-0.58587 1.64798,-1.13806 1.70868,-4.70314 0.34401,-3.72825 l -3.5346,2.52504 c -3.63232,3.71275 2.50719,7.57682 5.47004,6.93252 m 133.63396,-8.81748 5.50599,0.14804 m -193.88014,0.78813 v 13.39823 m 42.55906,-6.30505 c -0.55776,-4.03711 -1.71767,-8.2059 3.15252,-7.09318 m 31.52522,0 c 2.97921,3.34603 1.56804,12.05476 -2.30901,7.56424 -1.24603,-2.95864 -2.4903,-7.56424 0.73276,-7.56424 0,0 1.20473,-0.37153 1.57625,0 z m -112.70268,0.78814 v 7.8813 3.94066 5.51691 m 99.30447,-15.76262 7.97688,-1.31152 m -86.78995,1.31152 -0.65651,5.51692 -0.13162,6.30504 m 137.81852,-14.48666 7.71566,5.91733 m -161.29679,-1.67636 7.48723,0.13162 -1.18219,5.38529 c 1.13176,-0.20885 2.81915,-0.93708 3.94065,-0.65651 3.73101,0.93236 -1.41627,7.43049 -2.36439,9.32595 m 14.18635,-3.94066 c -4.13074,-0.15707 -4.04464,-9.38387 0,-10.24569 6.69576,-1.42671 5.65831,10.46085 0,10.24569 z m -15.76261,-4.72878 -1.90935,1.98337 m 27.91766,20.08429 c 0.77135,5.79373 1.63805,11.52808 2.36439,17.33888 M 334.47101,254.7516 c 18.03378,-0.84407 5.98948,14.3867 1.13821,17.57289 z m 28.89839,-0.78812 v 14.18635 m 62.26232,-11.03383 9.34682,-3.20183 m 12.72084,1.62556 c -3.19743,6.06664 -5.46252,12.51694 -7.88131,18.91514 m -46.5064,-16.11755 c -1.79553,0.18639 -3.74779,-0.77665 -4.98454,3.50746 -0.58922,2.04109 12.59514,4.72226 4.79949,6.13092 -1.77506,0.32076 -5.32517,0.96226 -5.32517,0.96226 m -4.56225,-1.6057 c -1.0235,-1.99468 -1.51979,-4.80529 -2.11624,-7.33373 -5.449,-1.6022 -9.34716,8.47388 -5.9316,7.36316 l 7.30431,-2.37531 m 56.53427,-6.29412 11.03383,12.61009 m -19.96193,-15.47967 1.0468,17.05593 m -73.99175,-7.35487 c -1.20662,0.85748 -5.81279,2.459 -7.18571,3.02015 -1.92934,0.78813 -3.80746,-0.69434 -2.75846,-2.75845 1.17195,-2.30686 6.53543,-3.93176 9.16363,-3.64672 l 1.47613,6.48217 m 52.80476,-1.2592 -2.3644,3.15253"
       id="path177"
       sodipodi:nodetypes="cccccccccccccccccccccsscccccssccccccccssccccssccccccccscccccccccccccccccccccccccccccccccsccccccccsccccccscascscccccccccccsccccccccscccccccccccccsccscccccccccssccccscccscccccccsccccssccsscccccccccccccccccccccccccccccccccccccccccccccccscccscccccccscccccccccccsccccccccccsccccccccccccccscccccccsscccccccccccccccsccccscscccccccccccsccccccccccccscccccccccccccccscccccccsccccccccccscccccccccccccccccsssccccccccccccccsscccscccccccccccc" />
    <path
       style="fill:none;stroke:#64648a;stroke-width:0.500783px;stroke-linecap:butt;stroke-linejoin:miter;stroke-miterlimit:4;stroke-dasharray:none;stroke-opacity:1"
       d="m 485.04649,258.77119 c -0.28459,1.29731 15.47945,0.67069 16.19017,0 -2.91906,5.44089 -3.80005,8.30855 -3.10016,14.78342"
       id="path18035"
       sodipodi:nodetypes="ccc" />
    <path
       style="fill:none;stroke:#64648a;stroke-width:0.500783px;stroke-linecap:butt;stroke-linejoin:miter;stroke-miterlimit:4;stroke-dasharray:none;stroke-opacity:1"
       d="m 516.4864,257.23324 c -0.22663,-1.46963 -10.70144,-0.32054 -10.41,1.42809 1.13703,-0.67115 5.40874,10.7425 5.02236,10.87545 -0.20773,0.0715 0.54789,-6.04192 9.49684,-5.6025 5.84784,3.09975 0.26589,13.61306 -1.55238,11.42472"
       id="path18037"
       sodipodi:nodetypes="ccscc" />
    <path
       style="fill:none;stroke:#64648a;stroke-width:0.500783px;stroke-linecap:butt;stroke-linejoin:miter;stroke-miterlimit:4;stroke-dasharray:none;stroke-opacity:1"
       d="m 528.72268,259.86971 c -0.81916,-3.54428 7.78889,-13.61172 10.13605,-1.75765 -3.58968,8.637 -9.45828,14.92924 -8.12708,16.03857 l 7.97648,-2.31745"
       id="path18039"
       sodipodi:nodetypes="cccc" />
    <path
       style="fill:none;stroke:#64648a;stroke-width:0.500783px;stroke-linecap:butt;stroke-linejoin:miter;stroke-miterlimit:4;stroke-dasharray:none;stroke-opacity:1"
       d="m 547.17476,257.2151 -1.12937,10.69493 8.51968,-1.11957 -0.80112,-14.46476 1.80557,22.48404"
       id="path18041"
       sodipodi:nodetypes="ccccc" />
    <path
       style="fill:none;stroke:#64648a;stroke-width:0.500783px;stroke-linecap:butt;stroke-linejoin:miter;stroke-miterlimit:4;stroke-dasharray:none;stroke-opacity:1"
       d="m 569.63217,258.88104 c -4.22655,2.19705 -5.96375,17.5841 2.64343,18.35308 6.65525,1.91926 3.87267,-18.74994 -2.64343,-18.35308 z"
       id="path18043"
       sodipodi:nodetypes="ccc" />
  </g>
</svg>
