<?xml version="1.0" encoding="UTF-8" standalone="no"?>
<!-- Created with Inkscape (http://www.inkscape.org/) -->

<svg
   version="1.1"
   id="svg59"
   width="3000"
   height="1998.207"
   viewBox="0 0 3000 1998.207"
   sodipodi:docname="KeeganG - Stake - Envelope26.svg"
   inkscape:version="1.2.1 (9c6d41e410, 2022-07-14)"
   xmlns:inkscape="http://www.inkscape.org/namespaces/inkscape"
   xmlns:sodipodi="http://sodipodi.sourceforge.net/DTD/sodipodi-0.dtd"
   xmlns="http://www.w3.org/2000/svg"
   xmlns:svg="http://www.w3.org/2000/svg">
  <defs
     id="defs63" />
  <sodipodi:namedview
     id="namedview61"
     pagecolor="#ffffff"
     bordercolor="#000000"
     borderopacity="0.25"
     inkscape:showpageshadow="2"
     inkscape:pageopacity="0.0"
     inkscape:pagecheckerboard="0"
     inkscape:deskcolor="#d1d1d1"
     showgrid="false"
     inkscape:zoom="0.92178218"
     inkscape:cx="170.32223"
     inkscape:cy="140.48872"
     inkscape:window-width="1280"
     inkscape:window-height="658"
     inkscape:window-x="-6"
     inkscape:window-y="-6"
     inkscape:window-maximized="1"
     inkscape:current-layer="g65" />
  <g
     inkscape:groupmode="layer"
     inkscape:label="Image"
     id="g65">
    <path
       style="fill:none;stroke:#8e868d;stroke-width:0.699568"
       d="m 227.27602,7.0219471 c 0.42857,6.8168939 0.78081,13.5901689 2.09871,20.2875269 M 209.0872,7.7215173 c -0.94862,3.2774147 -0.0462,3.6595197 0,6.9956987 0.028,2.020498 -0.23995,3.620484 0.11683,5.596559 0.51418,2.849698 1.45651,5.542763 1.98188,8.394839 m 6.29613,-18.8883873 0.69957,0.6995703 m -39.87549,18.888387 c -4.50872,1.661198 -12.70349,1.899402 -13.17499,-4.896989 -0.15951,-2.290882 1.47189,-4.27899 2.56462,-6.296129 3.8945,-7.18948 9.07482,-8.5483247 16.20693,-6.29613 M 41.889991,11.219367 c 0,4.923712 2.663544,13.067755 2.798282,18.188817 m 58.763877,0.69957 c -3.935787,0.310749 -8.423526,2.350695 -10.960168,-1.39914 -2.9263,-4.32621 4.141457,-15.617128 8.861458,-17.256081 2.11899,-0.735667 4.7039,-0.233166 6.99569,-0.233166 m 19.58796,0.699569 c 1.12224,5.605859 2.68888,11.126859 3.49785,16.789678 m -0.65404,-3.502628 c 0,0 1.45733,-4.832127 3.45232,-4.892211 2.98494,-0.0899 5.59656,6.995699 5.59656,6.995699 M 20.203324,12.618507 c 1.602369,6.66651 1.294296,13.48344 1.39914,20.287526 m -16.0901083,3.49785 c 1.8856209,0 13.1307173,-1.160097 11.5429033,-4.780371 -1.114484,-2.541048 -6.827242,-2.531394 -8.511457,-4.430656 -4.3965169,-4.957712 2.839974,-10.954845 7.462103,-11.0765 M 196.49494,28.708614 c -9.29218,-3.151379 -1.57566,-16.827551 2.79828,-11.892688 2.64992,2.989751 -4.56818,3.124099 -7.291,4.35512 m -71.7604,10.335848 c 1.58593,-0.292141 5.3636,-0.819127 5.3636,-2.79828 0,-3.684914 -10.38931,-9.950962 -1.16618,-11.892688 m 86.34405,10.303745 c -10.19606,6.559727 -12.39216,-8.301053 -1.89761,-9.355151 m -92.94757,10.410469 c -10.11931,5.500499 -11.06231,-8.053991 -2.28884,-9.669571 l 2.37149,12.183675 m -55.941949,0.817801 c -10.349522,-2.290509 -4.181879,-17.621503 0.699568,-11.892688 2.718947,3.190931 -4.302602,4.506268 -6.834576,4.975874 M 183.22069,20.396854 c 1.32455,-2.001368 2.28802,-1.377033 3.48027,-1.482219 m 38.47635,0 h 6.29613 m -48.27032,0.699571 0.69956,9.793978 M 50.042837,19.659738 44.221142,24.571061 M 218.18161,20.313775 v 5.596559 m -180.489038,3.49785 -2.9672,-8.530171 c -6.57143,0.559878 -11.154549,12.650158 -6.826779,10.628881 l 9.233253,-4.312374 m -20.637169,-0.982323 9.31954,-2.108265 m 18.356619,0.680459 4.714856,3.924223 M 123.0401,46.897433 V 63.68711 m 3.49785,-16.090109 c 0,5.247823 1.42782,14.546576 2.09871,18.188819 M 92.958598,48.996142 c 0,5.360241 0.575745,12.895312 4.19742,18.188814 5.367102,-3.191435 3.497842,-11.879394 3.497842,-17.489246 m 92.34323,0 c -0.77932,1.85134 -0.99548,3.019692 -1.28231,4.896988 -0.74854,4.898042 0.43653,15.07713 -5.01382,16.789677 l -0.69957,-6.995697 -2.79827,-13.291826 m 72.75526,-1.399142 c 3.77978,0 9.26441,-1.367309 12.59226,0.932735 8.54443,5.888092 -6.61966,18.992803 -7.91468,18.507167 0,0 -0.36279,-15.397718 -0.90706,-19.534905 M 47.409543,57.859313 c -2.299236,1.587307 -5.593637,3.239458 -7.501643,1.980159 -2.472001,-1.631537 0.853265,-8.065897 2.681661,-9.094407 1.258456,-0.707826 5.066723,-1.239162 6.465219,-1.05e-4 -2.018775,6.271642 -3.173354,14.3773 -0.169088,16.439996 M 16.705474,51.79442 25.450098,52.610608 24.400743,65.78582 M 213.28462,51.79442 c 0.73596,4.666822 1.79593,10.548702 2.02756,15.272095 M 31.396442,52.493988 c 3.227396,2.4897 8.648644,11.877301 1.39914,12.592258 -6.430586,0.63381 -3.274127,-9.623491 -1.39914,-12.592258 m 104.935488,11.89269 c -11.30798,-2.980136 -0.26306,-16.236373 2.79828,-11.193116 2.50983,4.134683 -4.76617,2.551469 -7.58322,4.144715 m 21.57462,-4.844289 -9.09441,23.085807 m -26.64128,-15.113827 -10.43593,2.521568 c -3.09641,0.748169 1.83543,-10.797315 8.46968,-10.095207 l 2.72344,11.494349 M 53.8993,54.942485 c 3.478471,-1.947954 8.357274,7.072651 3.381233,9.79398 -3.621955,1.980479 -7.14422,-7.686666 -3.381233,-9.79398 m 147.49263,13.641612 9.09441,-2.098709 c 4.44421,-1.025587 -11.43727,-7.323726 -1.39914,-10.493549 m 65.06,10.493549 c 0,-4.170137 0.23506,-11.646301 6.29613,-9.094407 m -81.84968,0.699568 v 9.79398 m -57.36473,-9.094412 7.16096,5.40965 m 60.69732,-3.31094 9.09441,-1.399137 m 10.39896,6.153832 -8.30025,4.339717 c -3.67417,1.921007 3.2149,-12.233599 8.23486,-11.175435 l 0.15998,9.076725 M 15.306335,63.68711 C 10.096556,61.030358 2.8295808,64.832087 6.2119255,66.485388 M 5.464852,65.631591 c 3.0923151,1.511532 6.010852,-4.066649 7.043203,-6.841474 1.859247,-4.95806 0.327749,-8.508095 -4.8969896,-6.995697 m 281.9266746,9.79398 2.79828,1.399136 m -172.0942,18.888388 2.09871,0.699573 m -73.454838,0.699568 c 0.560397,6.525975 1.154825,13.043035 1.399136,19.587955 M 208.38763,86.073343 c 0.27429,3.19761 3.86767,16.929707 1.50454,17.698177 -4.51432,0.8143 -6.76321,-10.382075 -9.89938,-12.801184 l 0.30187,14.432094 M 83.164618,86.772917 c -0.958114,6.669725 1.334559,12.443061 1.399141,18.188813 M 182.50354,86.772917 h 9.79398 M 76.868489,87.472485 V 102.86302 M 242.66656,87.472485 c -0.978,3.096998 -2.62479,6.880268 -1.98188,9.793975 0.55056,2.497465 7.03045,3.04233 8.7423,1.784502 m 32.41549,-10.878909 c -5.70009,-0.300115 -6.29613,4.415685 -6.29613,9.094407 1.60093,13.76994 13.55044,0.495978 9.79398,-1.399136 -2.09885,-0.777404 -4.59517,-0.212935 -6.34644,7.441326 m -27.23292,-15.136597 7.34549,0.816398 -0.58274,5.479731 -2.56533,11.892688 M 9.7097754,88.871626 l 0.6995696,6.296124 0.69957,6.29613 c 3.277415,-2.06023 4.18084,-4.164538 6.29613,-8.394839 2.647102,3.592293 1.270768,7.134919 4.896989,9.793979 l 0.699569,-13.991394 m 4.541241,7.351445 c 3.402008,-0.358182 11.502974,-4.225091 8.051018,-5.952308 -9.954307,-4.980726 -11.785536,14.868897 0.688064,12.675337 m 92.354734,-0.78265 6.29613,-1.39914 c 4.6925,-1.042779 -10.21302,-10.331947 0.69957,-11.193115 m 12.59226,12.592255 c -1.51894,-2.91033 4.67587,-18.215937 8.27801,-9.793977 0.61912,1.912622 0.11683,7.137013 0.11683,9.793977 m 30.87692,-15.419202 1.20745,19.860862 M 17.405045,91.669904 v 1.399137 m 86.402845,9.652099 c -0.76378,-7.44231 0.27866,-12.812809 4.54124,-11.051236 m 5.59657,9.793976 c 0,-2.451293 -0.24066,-4.13236 0,-6.29613 -0.47242,-4.541308 1.52925,-3.85183 4.19741,-2.798277 m 26.46683,8.161877 c -5.22509,4.30866 -6.42695,-6.78792 -3.96376,-8.511664 4.48424,-3.138967 7.1601,5.875689 3.96376,8.511664 z m 147.14334,-8.511664 c 4.90748,-2.84095 10.15775,9.074124 4.08059,11.892694 -5.11385,2.37154 -7.63721,-9.83386 -4.08059,-11.892694 M 36.993002,105.6613 l 6.995697,-3.49785 c 3.633297,-1.81665 -8.781489,-6.236665 -2.798278,-9.793977 m 58.456052,6.568798 -10.185726,6.023459 c -4.3081,2.54765 1.052178,-13.356051 8.79213,-12.633796 0.482871,2.831574 1.372241,7.104914 1.855643,9.729006 m 167.74255,-8.987899 c 3.63847,1.43622 7.85128,10.008049 1.39914,10.376719 -5.72318,0.3274 -2.72482,-8.187062 -1.39914,-10.376719 M 76.731411,95.096599 c 3.973,0.370443 7.686624,-0.333658 11.330194,-1.327985 m 34.978495,0 0.69957,6.995696 M 45.387841,95.16775 h 8.394839 m 195.18001,10.49355 c 0.32908,-6.009913 0.86792,-11.67792 -1.39915,-17.489247 m -82.54924,15.390537 -0.69957,3.49785 m 20.9871,0 6.99569,-1.39914 m 311.30861,81.15011 c 0,5.57207 -2.91632,17.09341 -0.59305,22.61161 l 9.59287,-5.56119 m 35.07306,-16.35085 c 1.43331,6.73108 1.94419,13.44589 2.09871,20.28753 M 407.06548,189.60969 c -0.87478,6.72882 -0.21105,13.52996 0,20.28753 m 20.9871,-19.58796 2.09871,18.88838 m 110.53204,-18.88838 0.69955,0.69957 m -221.76363,30.0815 c 3.0879,-0.89405 15.6102,-2.08332 17.83903,-5.71338 1.25783,-2.04834 -1.01858,-4.0785 -2.4485,-5.24678 -3.76718,-3.07741 -8.17307,-4.7123 -8.39483,-10.02693 -0.30082,-7.22726 8.02057,-11.01263 13.29182,-6.29613 m 120.32603,14.69097 c 0.98569,0.28542 2.93749,1.23544 3.84763,-0.11683 1.25503,-1.86366 -1.55654,-5.27196 -1.74892,-7.57845 -0.43653,-5.23907 4.0666,-6.88166 8.39484,-6.99569 m 88.26261,6.52908 c 1.98259,-1.54605 8.99302,0.10402 7.57844,-4.43037 -3.59189,-4.96609 -14.48551,10.51731 -2.79827,11.19311 M 435.74785,195.90582 c -1.94926,2.21565 -3.46769,5.03447 -6.28462,6.03538 m 92.33172,5.85731 c 0,-4.77387 0.18825,-15.36911 2.79826,-11.19312 l 3.49786,5.59656 c 0,0 1.48321,-2.90146 2.79826,-2.79828 3.16202,0.24809 5.59658,7.69526 5.59658,7.69526 m 7.69528,-10.49354 c 3.26465,1.42658 6.5293,0.29337 9.79395,0 m -172.60683,9.60228 c 5.02383,-0.86297 5.44117,-7.82587 -1.06257,-7.70959 0.9936,7.65154 1.57523,17.26853 1.57523,24.69096 m 59.81322,-20.98709 c 1.78741,-2.68146 11.43783,-0.7519 8.04506,-4.19742 -9.2855,-9.42988 -12.95073,16.04242 2.09871,10.49355 m 125.35709,-11.19312 c -7.99388,2.25063 -11.70539,15.07649 0.57505,12.36586 l -1.40871,-22.15984 M 388.1771,212.69549 c 1.66567,1.00808 9.64847,2.96269 8.04505,-1.39914 -0.84718,-2.30438 -4.15894,-3.18513 -5.12995,-5.59655 -1.73563,-4.30936 3.4167,-7.58544 7.57844,-7.69527 m 23.50078,4.55316 c -1.05565,1.55794 -1.70847,2.20538 -2.6305,3.84168 -1.07105,1.90143 -3.83715,5.70009 -6.06248,3.96446 -4.28206,-3.34045 3.40201,-10.98675 7.77997,-11.95051 l 3.29632,10.78432 m -64.3486,-4.9936 c 2.49441,-1.45724 9.78646,-2.11589 6.2843,-4.80037 -0.56641,-0.43417 -1.0962,-0.7228 -1.58717,-0.88675 -0.44847,-0.14976 -0.86455,-0.1955 -1.24654,-0.15311 -0.75772,0.0841 -1.38133,0.51493 -1.85764,1.16841 -0.83919,1.15134 -1.22119,2.99374 -1.07399,4.84841 0.23551,2.96752 1.82579,5.96643 5.06577,6.21616 m 3.1218,-4.59213 c 2.26193,-0.76215 8.27017,-6.50746 5.97261,-6.60099 -8.97625,-0.3654 -7.65942,12.28067 0.43242,10.71995 m -18.62124,-10.02038 c 0,2.48697 0.0979,6.03868 0,8.39484 -0.0511,1.22424 0.0385,3.12777 -1.51597,3.84763 -2.30648,1.06824 -3.99944,-4.77107 -5.47973,-6.64591 l -3.49785,8.39484 c -2.04274,-4.08549 -2.79828,-9.73312 -2.79828,-13.29184 m 199.37742,-0.69956 v 9.0944 m -131.86175,-8.79732 -9.76756,3.70388 m 115.74525,-2.60182 c -0.35332,4.47724 -0.3211,7.12722 0,11.19311 m 11.19309,-10.49354 0.25636,5.59656 m -178.64668,-4.897 v 2.79829 m 79.79806,-3.59307 c 2.58952,1.80615 5.19123,3.60824 6.94861,5.69178 M 402.9448,239.8781 c 7.44544,-0.33012 9.85367,-10.22733 -0.66968,-10.73675 m -0.75466,0.40249 c -0.7114,7.0917 1.60435,12.5196 2.04718,18.13015 m 33.57935,-19.58796 c 0.31919,5.02124 0.76949,10.02276 0.64926,15.0527 m 51.15011,-11.44945 c 1.93292,-1.16968 9.06321,-3.32762 9.06321,-0.1054 0,2.57442 -5.92214,5.61072 -7.66407,7.35265 m -1.43034,-8.75179 c 0.13852,5.27196 2.79829,13.76194 2.79829,19.58796 m 42.67375,-2.09871 9.79399,-1.39914 c 4.57115,-0.65301 -12.26769,-14.53217 -1.39915,-15.39054 m 116.82819,2.09871 c 7.83312,-6.18772 9.24875,18.06126 -0.23742,13.27415 -5.1123,-2.57987 6.85281,-2.57604 11.53745,0.12441 M 453.93667,242.777 c 0.85185,-3.80595 -1.29874,-12.06728 2.79828,-11.19312 4.0111,0.85584 4.79835,5.34192 4.89699,9.09441 m 172.79377,6.9957 c 7.34979,-0.084 12.04486,-6.93027 2.832,-9.37901 -0.86535,-1.44881 -1.32801,-6.29016 -1.32801,-6.29016 0,0 6.61728,0.27863 8.98956,0.27863 m 24.48491,0 c 4.10581,0.75623 4.99635,0.59463 9.09445,-0.69957 1.92729,4.57729 1.08503,14.43982 0,18.18882 m -118.22735,-8.39484 -3.49782,0.69957 -0.3498,-8.97758 5.24677,-0.8164 m 88.84536,13.9914 c -6.21706,-0.26234 -4.32869,-13.91626 -1.3991,-13.9914 4.85174,-0.12445 11.47921,14.41744 1.3991,13.9914 z m -284.72492,-13.29183 -1.39914,14.69097 M 506.7542,232.63324 c 8.57895,-0.33872 14.43365,8.93573 1.28645,14.82155 z m 37.42699,1.74892 7.69524,-1.39914 m -123.82385,11.89269 5.59656,-0.69957 c 4.26122,-0.53265 -7.87547,-10.6877 0,-10.49355 m 160.20148,0 1.39916,14.69097 m -183.2873,-2.09871 c -0.27913,-4.82865 -1.341,-11.85246 3.49784,-11.89269 m 8.05223,10.99188 c -2.30907,-0.64633 -4.36736,-1.84198 -5.28149,-5.54387 0.32364,-3.48758 5.06933,-8.11028 7.02324,-4.74844 1.63936,2.82063 -4.16436,4.54793 -7.05079,4.77599 m 15.44563,-3.37685 c 2.67936,-0.77582 7.01739,-2.02595 9.79398,-2.09871 m 145.51053,0 c 0,3.86513 -0.43585,12.74966 -0.69955,16.09011 m 11.89265,-6.9957 c -0.15111,-1.55584 0,-2.5954 0,-4.19742 0,-1.25083 -0.47641,-3.02074 0.8164,-3.84763 3.1488,-2.01546 5.44898,3.7308 5.47973,5.94634 0.0553,3.99664 0.97653,8.42354 -3.49781,8.39484 -2.90278,-0.0186 -2.53525,-3.5909 -2.79832,-6.29613 z M 328.71366,235.7813 v 18.88839 m 4.19741,-18.88839 h 4.89699 c 1.92312,0 4.84453,-0.1602 5.47973,2.09871 0.75624,2.68705 -1.48868,3.53633 -2.68144,5.59656 4.55839,2.03925 1.55235,6.07176 -2.6087,10.23281 m 109.64289,-17.69512 c 6.97192,0 2.49213,10.15829 -0.69957,10.26059 -2.52548,0.081 -4.33104,-10.26059 0.69957,-10.26059 z m -97.93979,0.46661 -0.69957,13.29183 m 11.89269,-2.09871 c -1.92102,4.01693 -5.61335,1.90982 -6.76274,-1.39914 -1.16269,-3.34954 -1.87878,-9.16647 1.16618,-9.09441 4.50757,0.10666 7.83659,5.81063 5.59656,10.49355 z m 186.48329,-13.46665 0.30185,14.16622 m -55.69237,-10.40726 6.7225,5.51027 m 121.72516,-2.09871 -4.19742,2.09871 m -59.46343,-1.39914 c 0,3.35933 -0.978,9.80098 6.29613,7.69527 m -222.46323,-6.29613 -4.897,2.79828 m 83.94839,26.58365 9.09441,-0.69956 m -90.47747,4.19741 c -2.71573,-4.10157 -6.74735,-4.01762 -10.26059,-0.69956 l 0.4384,19.32721 c 3.18492,-4.60927 12.95976,-13.88806 9.82219,-18.62765 z m 24.7179,-3.49785 0.69957,4.897 2.09871,11.89268 m 81.15011,-16.0901 c -5.4818,6.28133 -11.08281,9.74986 -13.9914,17.48924 m -75.55355,-17.48924 v 15.39053 m 76.95269,-15.39053 c 2.38413,4.76827 4.8767,10.47326 9.09441,14.69096 m -59.46344,4.89699 c 11.33583,0 1.25502,-7.44342 2.79828,-13.29182 0.9668,-3.66296 4.77526,-4.61787 4.89699,0 m 33.29475,-7.20958 0.98417,21.90054 m -47.64748,-8.39483 -7.61854,4.19741 c -2.01056,-2.82976 -1.18577,-6.21358 0.93252,-9.09441 1.88465,-2.56322 3.22362,-2.22113 6.5639,-0.40726 l 0.19885,8.8021 m -26.95269,-0.48877 -10.82408,2.58748 c -5.10662,1.22073 4.31906,-9.61918 10.60644,-10.8494 l 0.58667,12.24854 m 47.57076,-2.09871 v 5.59656"
       id="path177"
       sodipodi:nodetypes="cccscccccccccccccccccsccccscccsccscccccccscccccccccccccsccccccccccccccccccccccsccccccccccccsccccsccccccsccccccccccscccccccccccccccccccccccccccccccccccccccccsccsccccccccccccccccccccccsccscccccccccccccccccccccccccccccccccccccccccscscccccccscccccccsccccccccsssscscccccccccccccccccccccccccccccccsccsccsccccsscccccccscccccccccscccccccsccccccccssccccccsccscscccsccccccccccccccccccccccccccccccccccccsscccc" />
    <path
       style="fill:none;stroke:#64648a;stroke-width:0.500783px;stroke-linecap:butt;stroke-linejoin:miter;stroke-miterlimit:4;stroke-dasharray:none;stroke-opacity:1"
       d="m 470.33746,274.32086 c -0.28459,0.15332 10.5611,-0.1176 11.27182,1.14711 1.58545,5.76263 0.30015,10.58561 -1.68368,16.86879"
       id="path18035"
       sodipodi:nodetypes="ccc" />
    <path
       style="fill:none;stroke:#64648a;stroke-width:0.500783px;stroke-linecap:butt;stroke-linejoin:miter;stroke-miterlimit:4;stroke-dasharray:none;stroke-opacity:1"
       d="m 504.12404,272.59173 c -0.22663,-1.46963 -16.81935,-0.12937 -16.52791,1.61927 1.13703,-0.67115 5.40874,10.74249 5.02236,10.87545 -0.20773,0.0715 0.54789,-6.04192 9.49684,-5.6025 5.84784,3.09975 -5.10688,13.82857 -6.92515,11.64023"
       id="path18037"
       sodipodi:nodetypes="ccscc" />
    <path
       style="fill:none;stroke:#64648a;stroke-width:0.500783px;stroke-linecap:butt;stroke-linejoin:miter;stroke-miterlimit:4;stroke-dasharray:none;stroke-opacity:1"
       d="m 515.97795,274.08109 c -1.89933,-0.0324 -0.77998,-1.6521 4.40051,-0.41936 2.43037,11.44636 -8.38572,15.42976 -8.12708,16.03856 l 9.8621,0.0724"
       id="path18039"
       sodipodi:nodetypes="cccc" />
    <path
       style="fill:none;stroke:#64648a;stroke-width:0.500783px;stroke-linecap:butt;stroke-linejoin:miter;stroke-miterlimit:4;stroke-dasharray:none;stroke-opacity:1"
       d="m 530.87976,279.7959 0.4566,4.74129 4.74844,-2.19706 -0.0712,-3.15963 1.07564,11.17891"
       id="path18041"
       sodipodi:nodetypes="ccccc" />
    <path
       style="fill:none;stroke:#64648a;stroke-width:0.500783px;stroke-linecap:butt;stroke-linejoin:miter;stroke-miterlimit:4;stroke-dasharray:none;stroke-opacity:1"
       d="m 549.43124,279.59268 c -4.22655,2.19706 -9.89994,9.99776 -1.29276,10.76673 6.65525,1.91926 7.80886,-11.16359 1.29276,-10.76673 z"
       id="path18043"
       sodipodi:nodetypes="ccc" />
  </g>
</svg>
