<?xml version="1.0" encoding="UTF-8" standalone="no"?>
<!-- Created with Inkscape (http://www.inkscape.org/) -->

<svg
   version="1.1"
   id="svg3220"
   width="1881.3333"
   height="818.66669"
   viewBox="0 0 1881.3333 818.66669"
   sodipodi:docname="KeeganG - Stake - Envelope2.svg"
   inkscape:version="1.2.1 (9c6d41e410, 2022-07-14)"
   xmlns:inkscape="http://www.inkscape.org/namespaces/inkscape"
   xmlns:sodipodi="http://sodipodi.sourceforge.net/DTD/sodipodi-0.dtd"
   xmlns="http://www.w3.org/2000/svg"
   xmlns:svg="http://www.w3.org/2000/svg">
  <defs
     id="defs3224" />
  <sodipodi:namedview
     id="namedview3222"
     pagecolor="#ffffff"
     bordercolor="#000000"
     borderopacity="0.25"
     inkscape:showpageshadow="2"
     inkscape:pageopacity="0.0"
     inkscape:pagecheckerboard="0"
     inkscape:deskcolor="#d1d1d1"
     showgrid="false"
     inkscape:zoom="0.90691624"
     inkscape:cx="670.40369"
     inkscape:cy="248.64479"
     inkscape:window-width="1920"
     inkscape:window-height="1058"
     inkscape:window-x="-6"
     inkscape:window-y="-6"
     inkscape:window-maximized="1"
     inkscape:current-layer="g3226" />
  <g
     inkscape:groupmode="layer"
     inkscape:label="Image"
     id="g3226">
    <path
       id="path3740"
       style="fill:none;stroke:#787475;stroke-width:1.21076"
       d="m 450.47001,470.76978 c -3.52054,7.31204 -9.69734,14.0941 -11.96314,21.60306 m -16.7888,-20.06863 c 5.04209,-2.05207 10.04127,0.33364 15.15032,-0.58551 4.0732,6.31335 7.35781,13.30417 11.33469,19.48313 m -20.51466,-21.3204 c 0.46009,9.01397 2.21416,18.06888 1.68337,27.23601 m -26.65688,-3.84379 c -1.02618,3.16894 -2.8529,6.02406 -3.88296,9.24692 m -17.39481,-23.39995 c -14.28862,2.7363 7.68036,17.88894 -2.85051,20.47243 -2.4537,0.60195 -5.797,0.6404 -7.56393,-0.18171 m -2.0425,-15.66726 c -4.05879,-1.86666 -12.4784,8.84399 -9.09018,11.89177 3.94531,3.54892 9.42726,-12.93539 7.63127,-10.78133 -2.39347,2.87064 -0.40621,8.37393 3.07495,8.60084 m -17.03569,-17.92852 c 0.013,6.84019 0.71549,14.94766 3.5014,20.55319 m -9.83087,-20.61376 c 0.69658,7.2186 0.8362,15.89068 2.58117,22.43084 m -14.09541,-8.56047 c -3.06566,-0.70527 -11.20594,3.4418 -8.93308,7.53079 2.4654,4.43539 10.69257,-8.81361 11.11023,-9.14597 2.29459,-1.82588 -3.35634,11.76003 4.30943,9.63052 m -35.39564,-18.938 c 2.41709,-2.31718 6.3821,-1.89526 9.51665,-1.51423 19.47937,2.36786 9.21853,31.82428 -5.88057,25.54006 m 2.26694,-21.23964 c 0.8386,6.4094 2.36909,13.58353 1.70581,19.62446 m 35.60987,-68.30476 c 0.62396,6.61221 0.78978,13.45096 0.47134,19.96769 m -11.22246,-16.35372 c -7.92846,26.19033 14.51303,4.71635 -0.0449,2.05936 m -6.41922,-4.23985 c 1.88702,5.68096 -4.23968,21.84216 3.95031,15.08176 m -21.03089,-14.43569 c 2.47202,0.3382 8.45976,-0.0415 8.79841,3.61397 0.32649,3.52431 -1.64199,7.01326 -4.53387,8.96426 -0.41363,0.27904 -1.26437,1.40184 -1.18959,0.90853 0.90764,-5.98723 18.30128,-8.69082 2.8954,7.7125 M 309.64809,434.8417 c 0.95617,6.20202 2.61726,14.35469 1.66092,19.74559 m 78.16701,2.08539 c -0.87921,-9.35869 -0.45744,-19.32958 -2.8954,-28.64929 0.68297,-1.66751 0.19462,-1.73019 1.23447,-2.11993 11.52102,-4.3181 8.50422,15.52568 1.93027,19.82635 m 7.74349,-6.76357 c 4.42901,23.90501 -4.52281,-8.37093 6.28458,-4.42155 m -0.96513,4.66383 c 1.662,0.13996 3.67424,0.66296 5.25211,-0.14133 8.93622,-4.55506 -0.81808,-4.14141 -2.24449,3.12942 -1.44335,7.35718 6.4621,6.9039 10.23488,2.98808 m 7.01695,-10.9393 c -0.7778,-1.3928 -3.07519,-2.19115 -4.73588,1.9584 -3.48214,8.70076 16.95608,8.96187 -2.67095,13.56753 m 10.77356,-10.51887 c 3.68643,-1.89685 8.12296,-1.84667 11.82848,-3.06884 9.84099,3.78583 -0.91909,17.44251 -1.57115,6.8847 -0.16279,-2.6359 -0.13696,-3.87336 1.86293,-5.57237 m -8.46173,-13.20411 c 1.68619,7.33305 2.49138,18.43859 2.49138,24.00564 m 12.07536,-2.52372 c 2.32338,-18.12269 7.26146,-14.75463 9.24731,0.72683 m 32.60703,-21.51126 c 0.41436,-3.52041 2.2231,23.08211 1.41403,19.07934 -0.60337,-2.9851 1.19768,-25.21189 6.73348,-19.40237 3.17411,3.33106 -6.11413,16.11087 -6.86815,12.71956 -1.8397,-8.27428 10.1812,10.05055 14.45453,1.61518 m 1.32456,7.87337 c 9.08361,-1.34887 9.55712,-23.08962 -0.8978,-19.05914 m 0.76313,-0.18171 c -0.27993,5.15058 0.22796,11.88655 1.23447,16.17201 m 40.96827,-21.86781 c -16.84553,6.68876 2.57992,11.11953 3.56874,15.12214 1.19521,4.83805 -9.51054,6.45182 -11.58157,4.78497 m 12.74871,-17.20168 c 1.48493,5.11908 2.31778,10.7617 3.36673,15.72783 m -6.01523,-15.92973 c 3.47984,-0.22616 6.88028,0.29896 10.25732,0.92873 m 0.0224,0.74702 c 3.3505,-0.93552 6.53305,-1.13297 9.96555,-0.74702 m -7.42927,7.99515 c 2.10508,-0.17705 4.14989,-0.81081 6.17235,-1.35271 m -3.90541,-5.97618 c -1.53948,8.26005 -2.95371,20.06694 8.61884,12.96183 m 106.83038,-11.39262 c 3.25428,0.0756 6.46481,-0.18296 9.60646,0.60569 m -11.24491,-9.48919 c 7.25594,4.83805 10.95307,-4.60278 10.19,5.69351 -0.34437,4.64604 -0.62845,9.49001 -0.62845,14.0117 m -23.36521,-15.28365 c 14.16129,-16.24912 5.96007,19.06232 3.68099,15.30384 -1.03805,-1.71185 2.07778,-1.91363 2.91786,-1.87765 2.98468,0.12785 3.85134,-1.26953 5.58878,-3.91681 m -24.7343,-12.21482 c -0.8585,2.23073 -1.27938,4.65287 -1.27938,7.04624 0,18.81131 17.02665,-0.27865 4.69102,-3.97739 -2.07765,-0.62296 -3.36987,-0.69821 -4.91547,0.92873 m -15.93589,-2.58429 c 6.39443,-0.1402 12.59407,-2.40514 18.85373,-3.04865 m -15.41965,2.54391 c -5.37689,9.14483 15.35923,13.32809 5.903,16.65656 -2.60291,0.91619 -4.62596,0.0823 -6.82325,-1.21139 m -9.47175,-6.40015 c 2.22788,-0.25618 4.34746,-0.65058 6.48658,-0.46437 m -22.66937,-4.76478 c -5.26671,10.99906 9.68084,19.08765 7.67616,4.36099 -0.41196,-3.02628 -6.76458,-8.84361 -7.67616,-4.36099 z m -7.85572,-3.59379 c 1.99423,5.33124 1.85958,11.83029 2.89539,16.91903 m -8.37195,-19.32161 c 2.33656,6.92932 1.98133,14.24048 2.82806,21.38097 m -27.10608,-50.37734 c -5.77022,-3.05002 -13.1068,13.6295 -7.2946,14.85967 9.25226,1.95827 11.21743,-19.62527 8.08016,-24.32867 -1.33902,-2.00748 0.40401,4.81486 0.40401,7.22793 0,5.43908 -0.22325,11.67958 0.8978,16.7777 m -24.68941,-7.99515 c 2.2831,1.54883 5.13078,1.22246 7.36193,-0.30284 4.03221,-2.75658 -2.37248,-5.01908 -5.11744,-0.0808 -4.27791,7.69617 3.14338,12.2244 9.58398,8.11628 m -22.19802,-26.10537 c 3.19531,10.03204 3.33227,20.35859 3.20962,30.72883 m -5.9479,-15.12214 c 2.75555,0.11557 5.82263,0.047 8.3944,0.18171 m -11.44691,-7.26832 c -0.33065,0.91936 -0.56921,1.86641 -0.83046,2.80638 m -0.202,7.59135 c 0.17323,3.07702 0.50281,6.40415 1.05491,9.30749 m -20.20043,-0.40379 c 0.37793,-1.75754 2.24863,-13.22966 6.08258,-11.95235 5.80616,1.93437 1.54869,11.60016 1.54869,11.42741 0,-1.57269 2.86811,-11.63638 5.92546,-7.16737 1.63378,2.38814 0.96644,7.24884 1.45892,10.05451 m -22.87137,-23.94503 c 1.13811,0.64915 1.37601,1.53035 1.88537,2.54391 m -1.86292,8.58066 c 0.95233,3.9585 2.2094,11.33606 2.76072,13.26467 m -16.65413,-26.4284 c 0.47064,7.34179 0.89382,17.52931 1.5487,23.42013 3.89217,-0.31029 8.49756,-0.40962 9.9431,-3.08903 m -49.31681,-8.25076 c -12.67717,2.32583 6.19591,16.81293 -4.10742,17.767 m -17.55193,-12.82051 c 1.45452,1.29949 3.06398,1.94234 4.96033,1.23158 0.83261,-0.31207 7.60376,-3.39123 4.89299,-4.70422 -6.21156,-3.00863 -10.70042,23.90427 2.4465,10.31697 M 426.38535,393.2253 c -1.03688,2.15401 -2.32734,4.17019 -4.01764,5.85503 -7.04666,7.0239 -1.54482,1.21487 0.6958,3.23036 2.38373,2.14423 3.5579,3.03804 6.89059,1.99879 m -13.7363,-21.17907 c 0.75072,8.6641 1.45275,17.50363 3.36674,26.00442 m -8.66374,-14.51644 c -4.06583,-2.40141 -13.08476,8.05613 -9.2473,10.59963 6.06345,4.01891 10.2784,-12.45464 9.2473,-10.59963 -1.97453,3.55227 0.46009,11.03774 1.86293,14.49626 m -22.55714,-31.47586 c 4.26771,10.26632 6.87785,21.34766 4.98277,32.50553 m -7.0477,-14.75872 c 6.10687,-1.60881 12.5704,-1.19685 18.5395,-0.0404 m -33.19604,12.94163 c 22.61942,7.54166 -6.79901,-11.73702 9.31464,-14.67796 m -19.24789,2.34469 c 12.38724,-8.06843 8.5753,8.06502 4.78077,14.19341 m -1.84049,-15.74801 c -3.13317,9.35501 5.49205,21.87909 1.05492,30.52692 m -16.60925,-21.8857 c 2.95943,0.35843 5.05489,-1.09269 7.38438,-2.64487 6.17368,-4.11361 1.12812,-8.36921 -1.77315,-2.20068 -3.19517,6.79342 -1.63516,14.35372 5.92546,8.07591 m -20.15553,-2.44296 c 2.14655,-0.98971 4.0191,-2.46448 5.76834,-4.03796 4.74792,-4.27088 0.97956,-8.30652 -2.31183,-3.51302 -3.20215,4.66354 -2.18578,16.59363 5.65612,12.09367 m -25.56476,-12.78012 c -0.43466,1.47761 -1.9545,15.76711 1.70582,15.06157 6.17506,-1.19028 4.91565,-15.46479 5.499,-13.89057 1.40332,3.78698 0.62553,8.41123 2.06493,12.29558 3.49928,9.44307 3.15688,-10.11246 1.84048,-12.73975 m -11.58157,-13.18392 c -4.6595,-0.53564 -8.36245,1.84998 -12.23248,3.97739 -13.80225,7.58723 13.25058,13.03032 10.16755,20.79546 -1.65008,4.15599 -17.86072,10.6787 -14.90343,2.11992 m -6.60063,-147.52909 c -0.66305,1.36513 -1.38668,2.70342 -1.88537,4.1389 -1.1683,3.36291 2.00241,13.27288 5.88056,7.36927 2.99508,-4.55933 -2.17678,-10.05292 -6.3968,-6.40016 m -13.55673,-6.66262 c -0.83548,3.43899 -1.80111,6.89899 -1.61603,10.47849 0.80457,15.56029 15.48407,-1.92873 10.30222,-2.98809 -2.88778,-0.59037 -3.45585,7.95111 0.6509,9.06521 m -16.20523,-16.17201 c -15.09052,19.99578 7.04613,17.09251 2.22204,7.32889 -1.17627,-2.3807 -3.3425,-3.7161 -5.47655,-4.15909 m -15.21766,4.46193 c 3.71316,-2.18602 7.51949,-2.90315 11.67136,-2.26125 m -12.81605,-4.3408 c 2.15849,-0.38876 5.43825,-0.44811 7.11504,-0.26247 -0.49758,5.38878 -0.26067,14.45684 -0.49379,18.23137 m -9.89821,-21.28003 c -0.55776,6.93028 0.0915,13.88169 0,20.79547 m -4.98277,-18.85725 c -3.80983,8.96167 -1.6253,12.88454 8.37195,10.70059 m -36.49838,-10.01828 c -0.15369,5.89585 1.01706,11.76819 2.08738,17.54491 m -10.90823,0.74702 c 0.64056,-4.55198 0.0163,-9.19605 -0.15711,-13.78962 4.69615,3.38989 7.1726,8.40836 11.46935,12.07349 m -25.18319,2.60448 c 3.70115,1.35106 7.68686,1.88123 11.58157,2.30163 M 198.46229,262.856 c 5.22636,-0.10654 10.475,0.77384 15.689,1.47386 m -7.60883,-2.34202 c 0.0585,5.58027 -0.33726,11.21122 -1.57115,16.57581 m -24.2853,2.48334 c 0.39536,2.54847 -0.54431,5.24339 -1.43648,6.96547 m -18.35994,-17.78719 c 1.98368,22.48273 0.0312,-4.24663 10.01044,-2.58429 1.72178,0.28681 2.72032,1.79689 3.07495,3.39188 0.60215,2.70827 0.26373,8.0103 0.13467,9.75166 m -13.06294,-10.59963 c -8.76967,-6.65026 -12.95827,14.60548 -2.17716,9.28729 4.33597,-2.13887 2.46719,-5.93918 2.17716,-9.28729 z m -17.59682,8.58065 c 16.76811,-0.30977 -3.94075,-5.01143 2.98518,-12.67918 1.38756,-1.53617 3.23296,-1.03935 4.44409,-0.66625 m -12.09781,-3.10923 c 0.78655,-0.42885 1.41498,-0.27274 2.1996,-0.42399 m -2.94028,5.69352 c 0.10488,4.5004 0.49445,10.14866 0.83046,13.99151 m -12.09781,-13.24449 c 0.59751,20.16652 -3.65089,0.61781 5.36433,-0.18171 m -15.24009,-0.0404 c -0.0926,18.71496 -3.64329,-0.16108 4.66854,-0.66626 m -12.68138,-0.36342 c -2.5395,-1.20162 -9.297644,8.57576 -7.5415,10.15545 4.43401,3.98851 9.00549,-5.74525 8.03529,-8.90368 -0.13172,-0.42878 -0.49379,-1.70032 -0.49379,-1.25177 0,4.43202 -1.48296,9.25573 4.08498,9.81223 M 98.470273,257.3442 c 0.199731,6.82347 -1.013734,13.59363 0.718239,20.25034 m -13.085391,-8.58066 c 7.374321,-0.88538 15.660549,-2.7352 23.028489,-0.72683 M 86.664248,256.69813 c -0.624351,8.35769 -1.187305,16.94984 -1.077361,25.2574 M 55.785166,257.53277 c 0.330729,6.81026 -0.489469,15.06084 0.965131,21.23963 m -7.990391,-6.86452 c 3.14204,-0.23627 8.485603,-1.46124 10.728671,-1.9786 m -9.449311,-3.27074 c -16.387736,8.55777 8.373667,6.62873 -2.69339,14.75873 M 33.587142,271.01953 c 1.810087,0.20598 3.437538,-0.26752 4.982771,-1.17101 0.356556,-0.20847 2.83742,-2.37162 2.064933,-2.92751 -4.230684,-3.04449 -9.334126,18.94228 5.274556,6.84433 M 13.970284,260.68237 c -0.50152,2.32016 -0.314229,4.72443 -0.314229,7.08661 0,23.62455 11.506669,-3.60059 9.000412,-5.85504 -0.656515,-0.59054 -0.285012,1.74475 -0.359119,2.62468 -0.388873,4.61738 -0.950512,10.21657 1.571144,14.37512 5.81498,9.58965 5.312291,-13.26172 4.915438,-14.53664 m 35.556101,-36.35918 c -1.364027,2.25782 -2.126354,5.15784 -2.266936,7.81345 -0.362911,6.85539 7.688236,4.75475 8.618848,-0.68646 1.54023,-9.0056 -6.867368,-6.85201 -8.102615,0 m -5.297001,10.53906 c -0.08543,-2.74835 0.07491,-5.49582 0.134669,-8.23742 0.134644,-6.17689 3.865723,-13.68116 2.87295,-13.83 -6.950409,-1.04201 -22.275958,21.07557 -0.897797,11.77064 m -14.634086,-7.08661 c -2.876551,1.66619 -3.73947,4.88862 -4.399204,7.95477 -1.981509,9.20915 17.489689,0.17477 1.952708,-6.03674 M 30.784879,235.367 c 2.115591,-0.66683 4.655486,-0.64344 6.576361,-0.48455 M 37.3388,223.132 c -1.277423,6.63613 -1.854335,13.86596 -2.872949,20.37148 m -5.139892,-13.58772 c -0.93763,-6.51899 3.513789,-3.76262 8.3944,-5.10801 m -20.62688,1.63537 c -0.469831,-4.3246 5.270433,-5.41663 6.913035,-1.65557 1.450267,3.32068 -6.356936,20.08299 -8.080171,19.46295 -2.068282,-0.74419 1.598646,-5.83029 2.468941,-5.04744 2.527896,2.2739 0.259021,7.57459 7.406823,0.26247 m 126.716963,-3.4922 c -0.5611,4.30327 2.98286,10.26976 7.9455,7.59135 4.08547,-2.205 3.97275,-10.85735 3.97275,-10.11508 0,5.83196 -9.91323,23.24922 -12.36715,29.8001 m -11.0429,-23.21824 c 2.15846,0.78281 3.7262,0.25045 5.70101,-0.58549 3.56336,-1.5084 -0.4988,-6.1499 -1.86293,-3.12942 -1.97006,4.36213 -2.73364,12.93714 4.39921,10.05451 m -11.9407,-16.47486 c 0.60768,3.07571 -2.27999,17.14285 2.28938,16.75751 m -7.45171,-21.86552 c -0.40707,2.91914 -5.01401,24.30401 1.63848,20.67433 m -11.76114,-10.39773 c -3.8124,-2.59335 -11.78358,8.23911 -9.06774,10.47849 4.88652,4.02926 9.65788,-12.37437 9.06774,-10.47849 -1.61259,5.18058 -2.0858,10.38662 4.46654,9.59014 m -25.6321,-19.42257 c -0.0307,5.53674 -0.0185,12.00255 2.96273,16.91903 5.26291,8.67923 7.30216,-14.49742 8.25973,-17.01997 m 120.736,17.07305 c 0.12889,-2.10551 -0.0219,-4.24425 0.24689,-6.33959 1.53359,-11.95574 -2.54462,9.8293 -8.61885,6.82414 -0.70638,-0.34947 -1.12225,-0.56376 -1.12225,-1.39309 0,-5.45648 5.09649,-11.55605 10.10022,-8.90369 m -18.74527,3.46247 c 3.50313,-2.68918 7.61023,-3.61372 11.87336,-2.84676 m -9.09019,-9.38824 c 0.33213,6.45479 1.85362,12.73148 1.48137,19.26104 m -7.5415,-15.2029 c -14.30931,5.78868 8.21869,11.00539 1.41403,14.67797 -2.14328,1.15675 -3.97197,1.61861 -6.37435,1.53442 m 0.202,-21.42135 c 1.12478,0.009 1.81836,0.78574 2.58116,1.33252 m -3.81563,7.73269 c -0.79746,3.36229 -1.59647,7.54596 -0.17956,10.78134 m -4.3992,-20.04845 c -1.99757,7.26705 -3.85445,14.59042 -4.04009,22.18856 m -13.15272,-16.83827 c 2.35693,6.96839 6.43021,12.59764 13.30983,15.48556 m 89.62256,-1.51424 c 0.26186,1.11044 0.52372,2.22088 0.78557,3.33131 m -13.28739,-7.89419 c 1.82096,18.85232 -3.73455,-0.93743 7.2946,-1.51424 m -18.58439,12.94164 c 1.5204,-7.46942 -1.18591,-15.13658 -2.17716,-22.43083 14.81609,-2.80415 11.02511,14.56093 5.31944,20.41186 m -23.34271,-41.24771 c 2.51654,-1.42274 5.24931,-2.0114 8.05773,-2.48334 m -4.26454,-10.41792 c -0.40302,6.67073 0.0937,15.27172 -0.40401,20.83584 m -6.64369,-13.78961 c 0.47134,-0.0538 0.94269,-0.10768 1.41403,-0.16152 0.12719,-0.007 0.25437,-0.0135 0.38156,-0.0202 m -1.57114,3.99758 c -0.80182,4.12117 0.0293,8.02106 0.53868,12.05329 M 229.7306,203.14728 c -2.95,-3.85777 -10.5335,6.51668 -8.19239,8.0961 9.38949,6.33456 10.14636,-27.16973 8.95552,-16.63638 -0.49444,4.37355 -3.37598,23.28453 5.97035,16.91903 m -25.04853,-6.35978 c 2.1783,0.29304 3.9223,-0.55468 5.85813,-1.39309 0.89326,-0.38688 5.98537,-4.23772 2.82805,-2.98809 -6.90983,2.73485 -7.10228,9.51253 1.07736,8.86331 m -14.5892,-8.94406 c 0.26781,2.37112 0.23839,4.7521 0.47135,7.12698 1.08738,11.0855 -2.91221,-9.33329 4.17475,-6.96547 m -6.21724,-7.16737 c 0.3964,-8.80702 -23.06487,11.37456 -9.80843,16.25277 5.05889,1.86161 9.27189,-1.91656 12.86094,-4.80517 m -61.36551,-13.06467 c 0.0363,2.08599 0.0224,4.17256 0.0224,6.25883 0,2.53243 0.0309,5.14681 0.24689,7.67211 0.7645,8.93989 2.22613,-8.84385 9.33709,-7.3087 3.59298,0.77568 3.70917,7.5162 4.06253,10.33717 m -14.9483,-8.84312 c -22.79951,7.86756 16.4237,9.18517 -7.2946,12.53785 m -1.57114,-8.94407 c -2.6558,-6.22979 -10.44172,6.33032 -6.30702,8.49989 5.95521,3.12483 7.43851,-10.71511 6.30702,-8.49989 -0.71568,1.40115 1.1007,6.08643 1.90782,7.65192 m -11.02043,-12.05329 c 4.54012,-10.39439 -11.27599,-5.60473 -13.01805,3.57359 -0.42167,2.22165 0.0343,4.18569 2.06493,5.37048 4.24035,2.47414 9.57305,1.16816 13.87096,-0.32304 M 73.760257,205.9199 c 1.949297,0.24125 3.978757,-0.12564 5.588787,-1.33252 5.608827,-4.20441 -0.162218,-6.67135 -3.164735,0.0808 -2.824083,6.35083 1.965417,8.10333 6.329469,3.65434 M 68.665262,197.42001 c -1.306106,2.87816 -7.910593,9.78752 -8.147505,8.72198 -0.420667,-1.892 2.979273,0.0956 3.187178,0.28266 2.336543,2.10177 3.959935,1.63784 7.115039,1.02967 M 60.405532,190.3334 c 0.06496,7.2855 -0.291784,14.57003 -0.291784,21.86552 m -7.967945,-13.89056 c -1.710639,0.55076 -3.303345,1.34481 -4.668543,2.52372 -14.037512,12.12201 1.671284,14.7758 5.521449,1.61518 0.04507,-0.15407 0.704936,-2.15619 0.381564,-2.30163 -1.813211,-0.81552 -1.431713,9.42632 0.718237,11.66968 m -23.275379,-9.30748 c 4.534446,-0.0164 9.278136,-1.12383 13.6914,0.26247 m -9.381976,-9.04502 c -0.368835,6.26094 1.444709,13.41107 -0.224449,19.3418 m -4.354314,-21.9059 c -22.8593458,11.38182 2.302108,16.73515 -0.561123,20.85603 -1.916345,2.75808 -10.99801,5.28389 -10.99801,1.23158" />
    <path
       style="fill:none;stroke:#64648a;stroke-width:0.500783px;stroke-linecap:butt;stroke-linejoin:miter;stroke-miterlimit:4;stroke-dasharray:none;stroke-opacity:1"
       d="m 476.70291,471.57359 c 0,2.00878 12.41893,2.44749 12.41893,0 l -2.83079,18.0159"
       id="path18035"
       sodipodi:nodetypes="ccc" />
    <path
       style="fill:none;stroke:#64648a;stroke-width:0.500783px;stroke-linecap:butt;stroke-linejoin:miter;stroke-miterlimit:4;stroke-dasharray:none;stroke-opacity:1"
       d="m 504.37158,470.03564 c -0.22663,-1.46963 -10.70144,-0.32055 -10.41,1.42809 2.53564,-0.95087 6.59605,10.50503 5.02236,10.87545 -0.21385,0.0503 0.54789,-6.04192 9.49684,-5.6025 9.04027,0.43939 3.28737,11.09516 -1.55238,11.42472 -4.74841,0.21969 -7.85315,-0.87887 -7.85315,-0.87887"
       id="path18037"
       sodipodi:nodetypes="ccsccc" />
    <path
       style="fill:none;stroke:#64648a;stroke-width:0.500783px;stroke-linecap:butt;stroke-linejoin:miter;stroke-miterlimit:4;stroke-dasharray:none;stroke-opacity:1"
       d="m 516.60786,472.67211 c -0.70326,-1.45801 8.1612,-6.91006 10.13605,-1.75765 -1.82629,10.10649 -8.12708,16.03856 -8.12708,16.03856 l 9.8621,-2.85619"
       id="path18039"
       sodipodi:nodetypes="cccc" />
    <path
       style="fill:none;stroke:#64648a;stroke-width:0.500783px;stroke-linecap:butt;stroke-linejoin:miter;stroke-miterlimit:4;stroke-dasharray:none;stroke-opacity:1"
       d="m 535.32931,475.40498 2.3725,6.38494 4.74844,-2.19706 -0.45658,-7.79957 1.46103,15.81885"
       id="path18041"
       sodipodi:nodetypes="ccccc" />
    <path
       style="fill:none;stroke:#64648a;stroke-width:0.500783px;stroke-linecap:butt;stroke-linejoin:miter;stroke-miterlimit:4;stroke-dasharray:none;stroke-opacity:1"
       d="m 557.51735,471.68343 c -4.22655,2.19706 -11.6206,15.15974 -3.01342,15.92871 11.59708,0.87887 14.42787,-17.3568 3.01342,-15.92871 z"
       id="path18043"
       sodipodi:nodetypes="ccc" />
  </g>
</svg>
