<?xml version="1.0" encoding="UTF-8" standalone="no"?>
<!-- Created with Inkscape (http://www.inkscape.org/) -->

<svg
   width="3000"
   height="1998.207"
   viewBox="0 0 793.75 528.69226"
   version="1.1"
   id="svg5"
   xml:space="preserve"
   inkscape:version="1.2.1 (9c6d41e410, 2022-07-14)"
   sodipodi:docname="KeeganG - Stake - Envelope16.svg"
   xmlns:inkscape="http://www.inkscape.org/namespaces/inkscape"
   xmlns:sodipodi="http://sodipodi.sourceforge.net/DTD/sodipodi-0.dtd"
   xmlns="http://www.w3.org/2000/svg"
   xmlns:svg="http://www.w3.org/2000/svg"><sodipodi:namedview
     id="namedview7"
     pagecolor="#ffffff"
     bordercolor="#000000"
     borderopacity="0.25"
     inkscape:showpageshadow="2"
     inkscape:pageopacity="0.0"
     inkscape:pagecheckerboard="0"
     inkscape:deskcolor="#d1d1d1"
     inkscape:document-units="px"
     showgrid="false"
     inkscape:lockguides="false"
     inkscape:zoom="0.63999997"
     inkscape:cx="1054.6875"
     inkscape:cy="186.71876"
     inkscape:window-width="1280"
     inkscape:window-height="658"
     inkscape:window-x="-6"
     inkscape:window-y="-6"
     inkscape:window-maximized="1"
     inkscape:current-layer="layer1" /><defs
     id="defs2" /><g
     inkscape:label="Layer 1"
     inkscape:groupmode="layer"
     id="layer1"><path
       style="fill:none;stroke:#9b9999;stroke-width:0.201988"
       d="m 35.012972,1.8619925 0.605509,6.1415133 M 46.526261,8.123617 C 45.391698,8.4520489 43.919817,7.9073498 43.900424,6.5077155 43.889348,5.7115608 44.380145,4.5843288 44.809366,3.8818778 45.474921,2.79266 47.051227,2.0873807 47.940176,2.0639896 m -35.751798,0.201997 0.80795,4.4437259 1.211927,-1.8178882 m 41.003474,-2.423869 c 0,0.8700812 -0.05108,0.918136 -0.100998,1.8178882 -0.04585,0.8244322 0.223608,2.0639887 0.504966,2.827827 m 3.635779,-4.6457152 c 0.27767,1.6878368 0.277619,3.3531223 0.201997,5.0496887 M 27.135459,8.3255934 c -0.537088,0.098912 -0.880671,0.201997 -1.413915,0.201997 -2.370727,0 -2.286703,-2.314857 -1.144663,-3.8377631 1.039631,-1.3859567 2.383856,-2.0757655 3.97249,-1.615899 M 5.9267649,3.2759254 V 8.3256115 M 57.231604,3.2759254 57.433575,3.4779224 M 1.6850224,8.1236067 C 2.0038428,9.4343258 3.8244905,8.8897297 4.4723629,7.9616639 3.7841133,6.8667097 2.5747397,7.2609078 1.9880055,6.103742 1.1859362,4.5218776 3.4005876,3.2115629 4.5128489,3.6798911 M 50.264852,6.3525369 c 0.07658,-0.1951453 0.484736,-1.6351946 1.192798,-1.7543527 0.552946,-0.093065 1.146138,0.1045531 1.079429,0.2102912 -0.533839,0.8460152 -2.431509,1.0973755 -2.310138,1.7886963 0.11872,0.6763011 2.103502,0.6944865 2.624614,0.3235121 m 2.229038,-2.4429637 c -2.05539,0.8413091 -3.759094,4.4290205 -0.03737,2.6422818 M 10.855903,6.8610712 C 10.133151,7.0702806 8.0502469,8.831655 7.5763421,7.517644 7.0971066,6.1888889 9.3281793,4.0670314 10.538812,4.9927996 c 0.831723,0.6360202 0.1891,1.842065 0.235661,2.7268337 M 30.468487,7.0623779 c -0.08451,0.43188 1.064446,1.1208362 1.716665,1.2295442 0.526986,0.087836 1.155775,-0.2453999 1.615899,-0.5722888 C 33.292849,7.0035046 31.106941,4.937396 33.397078,4.6898195 M 47.89724,5.172526 c 0.611619,0.70225 1.040246,-0.1999879 1.860829,-0.078743 m 8.887455,0.201997 c 0.808539,0.1597791 1.610654,0.057415 2.423848,0 M 17.844036,7.1136705 c -0.417593,0.4066008 -1.698434,1.4729787 -2.053549,0.201997 -0.258329,-0.9245833 0.119596,-2.5187293 1.932985,-2.1882264 0.799561,0.145715 -1.79881,1.0591759 -1.973803,1.1092527 M 35.461141,5.8571135 c 2.2245,-1.590836 2.503481,0.947668 2.783636,2.4684902 m 18.986835,-2.8278244 0.201971,2.2218643 m -9.13237,-2.2847018 0.04294,2.2847018 M 4.3108714,6.3057185 5.9267706,5.901745 8.4127196,5.4163391 M 30.928701,5.9764803 C 30.755734,7.3592816 29.06995,8.2068319 28.549376,7.8542979 27.038507,6.7463744 29.540529,5.093793 30.569254,5.093793 M 13.06949,6.6595919 c 0.73986,0.5451653 1.631238,0.8028339 2.669083,0.1904573 m -2.74382,-0.1459211 -0.07873,1.0369876 m 35.630124,3.8162913 c -0.561931,1.334612 -0.439322,3.191947 -0.807949,4.645712 -0.109886,0.433022 -0.571019,1.242426 -1.178193,0.908946 -0.884707,-0.48572 -0.336512,-3.104106 -0.841685,-3.938759 M 34.003044,12.163369 33.59907,16.809082 m 33.160164,-3.96419 c 4.36174,-1.046838 5.536617,2.693955 0.93595,4.121643 m 3.440979,-2.13341 c 0.136082,0.629936 -0.169387,1.736139 -0.169387,2.177934 M 24.307639,12.567333 c 0,1.729761 0.157152,3.393089 0.80795,4.847702 1.12002,-0.32419 1.371694,-1.613053 1.413909,-2.625838 0.02787,-0.669972 0,-1.441203 0,-2.221864 m 8.887458,0 c -0.133326,1.265554 -0.233706,3.376807 0,4.645712 m 18.784839,-4.645712 c 0.267828,1.700154 0.15419,3.353591 0,5.049688 m 12.494601,-5.059263 0.432606,4.655287 M 1.8870171,13.375285 c 2.8665086,0 0.5785749,3.139632 -0.4071783,3.649299 -0.4233935,-1.033662 1.6955883,0.02087 2.3682126,-0.06921 m 9.2771146,-1.90693 -0.854058,0.389662 c -1.267277,0.57819 -0.07413,-2.830022 1.331186,-1.860833 -0.547124,1.094246 -0.757553,2.97356 0,4.03975 m 37.367698,-0.201997 c 0.537693,0.226416 2.079869,0.228245 2.120871,-0.605962 0.02669,-0.543994 -1.098004,-1.104346 -1.346652,-1.615902 -0.515473,-1.060453 0.643534,-1.467763 1.447646,-1.615899 M 5.320804,13.779258 7.1336534,13.95766 6.4627412,17.489772 m 9.5634068,-3.575847 c 1.803122,-0.665771 1.429748,2.521269 0,3.097136 -1.467782,0.591219 -1.096269,-2.692371 0,-3.097136 m 26.460371,0.06733 -3.231805,6.463603 m 31.895005,-5.080565 c 0.589802,-0.640299 0.431695,-1.260107 1.432948,-1.181049 M 9.48939,14.111659 c 4.158457,5.362815 -4.114725,3.061518 0,0 z m 19.867935,0.340884 c 0.548396,-0.193059 1.406438,-0.227498 1.582169,0.336654 0.284599,0.913226 -1.035996,1.993254 -1.784158,2.221862 -1.982304,0.605761 -0.763307,-2.218632 0.201997,-2.558516 m 9.558674,0.473969 c 0.335263,0.413654 0.135308,0.532114 0.977305,1.143277 1.095086,0.612137 1.211465,0.405303 1.481492,0.119004 m 34.03569,-1.197609 h 0.403971 m -25.248446,0.201997 -0.403976,2.423851 m 2.625843,-2.019875 c 1.51227,-0.0451 3.82586,-0.356584 4.989416,-0.237029 m 0.322678,2.162285 c 0,-0.532237 -0.233551,-1.526782 -0.391826,-2.150709 -1.627459,0.11957 -2.131885,1.426135 -1.65474,1.740366 0.806742,0.561323 1.299316,-0.797319 1.712581,-1.545118 M 35.304013,15.91367 c 1.044256,-0.172014 2.324617,-0.425791 2.247337,-0.959591 -2.888625,-0.515683 -1.624235,2.857879 0.08747,1.855008 m -6.910526,-1.051299 c 0.08134,0.696527 0.578272,0.789494 0.850891,1.051302 m 3.433787,4.645713 V 21.6568 m -20.804717,0 c 0.233407,1.506342 0.186772,2.949531 -5e-6,4.443727 m 57.291191,-3.294969 c 0.575666,0 2.239207,-0.401606 2.598134,0.0969 0.678885,0.942676 -0.340548,3.31502 -0.504964,4.208006 m -53.728703,-5.04972 -0.403977,5.857638 m 3.231792,-5.655651 -5.73e-4,2.464007 5.73e-4,2.787673 m 31.308073,-5.25168 c 0.834184,0.128611 2.252669,0.122378 2.423854,0.403976 m 26.751407,3.521257 c -0.558385,-0.23963 -0.884166,-1.176467 -1.058182,-1.99728 -0.221959,-1.04691 -0.135025,-1.665177 0.639099,-1.809483 2.005571,-0.373856 1.63233,4.327432 0.419083,3.806763 z M 5.9267649,22.464723 C 5.7689023,24.684894 6.0721039,25.057407 4.9168264,26.672729 4.4125242,25.886676 4.2282391,25.085978 3.9068879,24.282611 3.5022633,25.04469 3.259634,25.841635 2.5537095,26.566568 2.1391909,25.582081 2.290989,24.20242 2.290989,23.070685 m 58.980357,-0.605962 c 0.300562,1.038417 0.600309,2.960327 0,3.837763 -0.924496,-0.656864 -1.686216,-3.186664 -2.396083,-3.853269 -0.02777,1.508395 -0.229765,2.108501 -0.229765,3.651282 m 17.441789,-0.423766 c -0.0604,-0.512646 0.07163,-1.221405 0.09064,-1.677088 2.11549,-6.290697 2.374936,5.364654 -0.09064,1.677088 z M 55.429235,22.410481 55.27198,27.362563 M 69.754807,22.66671 c -0.3963,0.83643 -0.950352,1.657104 -0.80795,2.625837 0.132295,0.899451 1.415316,0.336128 2.120866,0.168253 0.155245,-0.03694 0.401168,-0.126937 0.450428,-0.268631 M 4.0086545,23.372872 3.9113601,24.278538 m 3.9239012,0.374674 c 0.065197,-0.602931 0.7437418,-1.486986 1.5252905,-1.178553 -0.2599092,0.973292 -0.4661407,0.525099 -1.3802434,1.009938 -0.8807854,0.968934 0.072435,2.019875 1.1782547,2.019875 m 1.1117229,0.380088 c 3.292215,-0.425031 2.217434,-1.525739 0.410596,-1.879525 0.328652,-0.803025 1.4377,-1.250775 2.498792,-0.942813 0.884278,0.256631 1.944441,0.155323 2.846474,0.01829 m 14.138668,3.354175 c 0.249058,-1.352105 0.302599,-2.719301 1.534923,-2.848977 m 48.100373,1.594247 c -0.278553,-0.608248 0.71194,-2.175801 0.968622,-1.730467 0.4987,0.865223 -0.497066,1.340359 -0.914517,1.852883 -1.387051,-1.012159 -1.374728,-3.827461 0.201997,-4.847698 m -60.160864,3.837762 2.834965,-0.444131 c 0.967712,-0.06671 2.302654,-0.186954 2.797657,-0.221238 m 0.9536,2.414663 c 0.779126,-5.528528 -4.026534,-0.139379 -2.204299,0.0088 1.169512,0.09507 1.945791,-1.602327 2.143154,-2.162494 m 1.245435,2.38654 c -0.0398,0.05466 -0.243623,-2.6552 0.883517,-2.588076 m 5.655651,0.201997 c -0.04546,0.57607 -0.373071,1.213139 -0.168254,1.817888 m 0.242927,-0.02035 c 0.128457,2.346872 3.638984,0.809129 2.000732,-0.515873 -2.035315,-1.646144 -0.18461,-1.800032 0.912557,-2.958406 m 33.975765,4.302475 0.348338,-2.280261 c 0.127968,-0.837654 -0.05195,-1.69956 -0.0057,-2.509562 l 0.06118,-1.067567 m -30.27698,4.96937 c 0.05638,-0.505683 0.284277,-0.908456 0.100303,-1.558347 m 5.938162,1.840404 -0.60596,1.211925 m -9.040877,-1.027913 c 1.119523,-4.681142 2.036087,-1.382134 2.718079,-0.265218 0.390499,1.536414 -2.520172,2.57717 -2.718079,0.265218 z m 3.446412,0.68603 c 0.08103,-0.534776 0.123021,-1.321488 0.410047,-1.879983 0.297125,-0.578291 0.822498,-1.544801 1.346652,-2.019875 1.900704,-1.722551 1.307579,2.817492 1.171441,3.556162 m 12.765702,-0.122378 c -0.628697,-0.04539 -1.638541,0.0103 -2.305937,0.119648 m 85.52481,24.926824 0.202,0.201997 m 9.75266,-1.188127 -0.0573,1.794093 c -0.037,1.809596 0.48113,4.478049 0.60596,6.059612 m -8.0795,-6.059615 0.30298,1.5149 0.101,3.130805 m 0.62827,-3.217487 -2.04219,-0.01442 M 108.33446,53.97478 c 0.0374,1.424932 0.27987,2.869659 0.54813,4.083817 0.17413,0.788142 0.28503,1.407584 0.36194,1.834984 m -0.35607,-1.797771 c 0.43668,0.754738 1.31597,1.130633 2.47581,1.130633 M 133.5829,53.97478 h 0.202 m -32.72198,0.201997 c 0.44334,2.66598 0.26866,4.737021 0.20197,7.27154 m 28.07628,-7.27154 c 0.11877,1.504999 -1.39807,7.357511 2.46706,5.09016 m 12.73759,-3.397857 c 2.16195,0.07625 2.58429,-2.092809 0.67684,-0.680801 -1.53284,1.134705 -0.61736,4.060074 0.47634,3.317695 m 4.00322,0.198828 c -1.77301,1.385025 -2.48,-0.402574 -2.04745,-1.700208 0.36601,-1.098007 1.35036,-2.099355 2.27323,-2.366588 m -34.32198,6.002362 c 0.58798,0.06182 1.91928,0.151072 1.78415,-0.80795 -0.15311,-1.086897 -2.54039,-3.768684 0.0337,-4.039752 m -6.86758,0.60596 -1.66686,1.686497 m -30.247174,5.181082 c 1.496731,0 4.805446,-0.770901 3.922076,-1.927665 -0.540137,-0.707306 -2.428173,-0.546275 -2.844871,-1.910098 -0.450236,-1.473903 1.205663,-2.736933 2.356583,-2.827827 m 57.531506,2.247424 -0.2614,-1.347934 c 0,0 -0.25323,-1.01836 -0.55795,-1.017342 -0.72469,0.0023 -1.27322,2.249299 -1.27322,2.249299 0.21397,-1.203299 -0.24592,-3.335289 -1.89468,-2.047508 m -40.011084,3.955814 c 1.093354,0.374078 2.464103,0.579676 3.394663,-0.08145 -2.303112,-0.803226 -2.880364,-2.44334 -1.214654,-3.432425 m 16.848675,3.494526 c -1.1989,0.157795 -1.14915,-2.863835 -0.52681,-3.980156 0.36258,-0.665887 1.09289,-0.679768 1.67808,-0.443726 0.4192,0.169078 -1.3496,1.190008 -1.99839,1.406785 m 19.59011,-0.801343 v 3.029814 m 2.46479,-4.24492 -0.64691,3.234981 m 5.9149,-2.145552 -0.0573,1.943566 m -52.702151,0.69701 c -0.06131,-1.435284 1.205022,-1.818352 1.397311,-1.504947 -0.352142,0.84237 -1.030739,0.88753 -1.346652,1.41391 -0.209055,0.348428 -0.09796,0.64131 -0.06726,1.009938 0.08887,1.066695 0.857436,1.566211 1.817888,0.80795 M 86.31774,58.216502 c 0,1.232328 -0.368001,2.680316 -0.364166,3.474738 -0.38797,0.353739 -0.496521,-1.700091 -0.807499,-2.384044 -0.329063,1.74604 -0.469106,1.498265 -1.06953,2.585567 -0.297754,0.446675 -0.405259,-1.732317 -0.586632,-2.666322 m 17.168947,-0.80795 c 1.13997,0.196253 1.81631,-0.266929 2.42386,-0.403973 m -9.95768,0.585706 c 0.265476,1.735415 0.819847,5.036243 -0.343691,5.473908 M 106.1342,57.404456 c -0.27307,0.782601 -0.60687,1.763167 -0.96092,2.327177 -2.30703,2.278188 -1.25165,-1.948604 0.93931,-2.525078 0,0 0.10502,1.41979 0.2241,2.054811 0.0829,0.442248 0.38187,1.176992 0.38187,1.176992 m -16.159003,-0.60596 c 2.623989,0.213511 1.843001,-4.181285 0.757113,-0.55558 -0.191281,0.958229 0.07269,1.924917 1.192362,2.100172 m 0.579303,-2.690525 c 0.754323,-0.715016 1.226005,-1.404052 1.914948,-0.974938 1.23415,0.768763 -1.181249,3.33293 -1.505233,3.999492 m 84.52212,-1.070672 c 0.62798,0 1.08265,-0.258745 1.58216,0.100999 0.70797,0.509814 -0.57359,4.309246 -0.57359,4.949143 m -5.04834,-3.43424 c 0.8235,-1.123054 2.36143,-0.627574 2.22186,0.807949 -0.0905,0.930011 -1.27476,3.113096 -2.01078,2.461541 -0.41239,-0.365061 2.36157,-0.312936 2.46946,-0.331232 M 171.333,61.887569 c 0.52901,-0.05927 1.52616,1.239652 1.40447,2.578602 -0.99733,2.29237 -1.94616,1.515903 -2.15713,0.01185 -0.19391,-0.997412 0.28581,-1.818898 0.77422,-2.625838 -0.92349,-0.388822 -3.40248,0.05051 -4.24174,0.403976 0.72322,1.21927 3.81057,2.781439 2.35023,3.32085 l -1.94625,0.718898 m -16.75952,-2.74639 c -1.00795,-0.04093 -2.22222,-0.107592 -3.3921,0.256296 l 0.002,2.010087 c 9.7e-4,1.207812 -0.84176,3.197147 1.56714,2.499884 m -39.58955,-4.847697 0.40397,4.443726 m 45.4472,-4.443726 0.40398,2.423849 v 2.221859 m -11.91727,-4.443723 0.80795,5.453662 m 15.35106,-4.140731 c 0.29688,0.696609 0.86203,0.907691 0.51501,2.283376 -3.13342,2.336185 -2.23799,-4.240465 -0.51501,-2.283376 z m -36.35776,2.726821 c 2.64284,-1.216644 3.19355,-2.542038 -0.4096,-2.190032 0,0 0.22021,1.143442 0.28039,1.702681 0.0764,0.709404 0.1292,2.10325 0.1292,2.10325 m 33.73192,-4.847702 v 3.433792 m -9.87784,-2.124943 0.38443,-0.0969 0.86205,-0.08588 m 14.69099,-0.520072 1.41391,-0.403978 m -51.41619,3.761459 c 0.0152,-0.577281 0.73307,-3.719239 1.92924,-3.525734 1.18042,0.190869 1.21193,2.144705 1.21193,2.996085 m 26.25838,-3.029816 h 2.01987 m -46.457129,0.201997 c 1.091134,0.705947 0.821279,4.103778 1.21192,5.453665 M 98.396039,65.17468 c 2.289641,0.170675 3.757351,2.003336 0.797373,3.333469 m 28.304758,1.161173 c 2.53899,-0.785202 3.56213,-3.821865 0.13042,-4.5845 -0.10337,1.3887 0.44991,3.919183 -0.30694,4.846906 m -15.15222,-1.270763 c 1.59361,-0.419317 0.63786,-3.125289 -0.13842,-3.137177 -1.54722,0.872719 -1.75341,2.572469 0.13842,3.137177 z m -9.71157,-2.637851 c -0.88332,0.779999 -0.78862,1.83663 -0.78862,3.100665 m 5.45366,-3.029809 c -1.58377,0.603286 -0.61086,0.99351 0.10337,1.516485 1.1055,1.053756 0.46293,1.46575 -0.8191,1.312916 m 2.53362,-2.627419 c 0,0 0.91972,-0.151794 1.37075,-0.266937 0.47046,-0.120085 1.38828,-0.440947 1.38828,-0.440947 m -22.149842,1.111911 c 0,0 0.164725,1.262345 0.164725,1.83469 0,0.976227 -0.164725,2.811025 -0.164725,2.811025 m 15.149072,-1.615899 c -1.34625,-0.423166 -1.52489,-1.917153 -0.86326,-2.896197 0.55778,-0.790509 1.14353,-1.192661 1.67121,-0.941568 0.0879,0.844832 -1.37353,1.489837 -2.00482,1.852929 m -23.728129,0.592528 c 1.739384,-1.454163 3.850287,-1.046652 2.100403,0.98833 0.379748,0.01056 0.940028,-0.03923 0.990146,0.282286 0.176908,0.711953 -0.06532,1.05016 -0.586175,1.535602 l -1.009936,0.60596 m -2.625838,-4.241736 c 0,0 0.0706,1.610036 0.0706,2.367994 0,0.723284 -0.0706,2.075731 -0.0706,2.075731 m 6.05963,-4.241736 c 0,0 -0.249186,1.083226 -0.279676,1.601307 -0.03686,0.626515 0.07769,1.83248 0.07769,1.83248 m 39.028125,-3.498206 c 0.74714,0.688168 1.69276,1.276347 2.78329,1.276347 m -24.90429,-2.667242 c 0.11416,0.122069 0.45365,0.736936 0.36348,0.910084 m 36.25608,1.555169 c 1.40788,-0.04392 1.82217,-0.01855 2.50506,-1.156481 0.47067,-1.44041 -4.43371,-1.59665 0.12078,-3.287245 m -54.539777,4.726004 c 0.789847,0.561771 1.280186,1.075509 1.466833,1.447828 0.438966,0.875619 -0.838839,1.439217 -1.546555,1.224099 -0.677277,-0.205861 -1.118569,-3.524199 0.07972,-2.671927 z m -4.214208,0.300221 -1.174213,0.810726 m 10.239266,5.272375 0.277489,1.630236 0.207458,3.845488 m 21.329705,-0.830011 -1.6159,-1.41391 2.01987,-3.029814 m -23.834529,0.201997 0.403667,2.559152 0.121786,2.410926 m 7.756049,-4.768088 c -2.325444,0.313994 -0.226132,2.805778 1.19305,3.938524 0.02241,0.304959 -0.464379,0.246199 -0.789074,0.303212 l -1.679362,-0.121476 m 8.748923,-3.110334 c 0.97888,-0.132656 1.75538,-0.363899 2.62584,-0.80795 m -1.40678,0.57274 c 0.7138,0.57786 0.36299,3.391796 0.39684,4.678936 M 95.491379,78.290627 c -0.181983,0.307369 -1.349275,2.479592 -2.30602,1.942527 -0.442351,-1.050539 0.779675,-4.380703 1.986147,-3.198067 0.577075,0.565365 0.235715,2.64543 0.235715,3.602046 m 14.341109,-3.635776 1.41392,1.615899 m -4.6e-4,-4.51e-4 -0.68694,1.424942 m -23.12144,-0.03356 c -2.573082,3.31 -2.894335,1.922199 -2.953829,1.599295 0.287226,-1.09174 1.705911,-3.174651 2.69242,-2.148554 0.591417,0.614852 0.08261,1.344836 0.437702,2.188137 m 15.149067,-0.403979 -0.60597,1.009939 m -21.612664,-4.24174 c -0.03915,-0.282582 -0.250062,-0.719482 -0.100998,-0.976208 0.551224,-0.950352 2.30266,0.23046 2.693103,0.774219 1.19976,2.710948 -0.01288,3.782697 -2.361807,4.464196 -0.017,-1.484462 -0.06347,-3.034499 -0.230305,-4.262207 z"
       id="path137"
       sodipodi:nodetypes="ccccsccccccccccsccccccccsccsssccccssccscccccccsscccccccccccccccccccccccccccccscccccccccccscccsscccccscccccccccscccccccccccccccccccccccccccccccccssssccccccccccccccccscccccccccsccccsccccccsccccccsccsscccccccccscccccccccccccccsccccccccccsccsccsccccsccccscccccccscccccccccsscccccccccccccsccccccccccccsccccccscccscccccccccccccscccccccccccccccccccccccccccccsccscccccccccccsccsccccccccssssccccccccccccccccccccccccccccccccccccccc" /><path
       style="fill:none;stroke:#64648a;stroke-width:0.132499px;stroke-linecap:butt;stroke-linejoin:miter;stroke-miterlimit:4;stroke-dasharray:none;stroke-opacity:1"
       d="m 116.70729,76.499923 c -0.0753,0.04057 2.79429,-0.03111 2.98234,0.303507 0.41948,1.524695 0.0794,2.800776 -0.44548,4.4632"
       id="path18035"
       sodipodi:nodetypes="ccc" /><path
       style="fill:none;stroke:#64648a;stroke-width:0.132499px;stroke-linecap:butt;stroke-linejoin:miter;stroke-miterlimit:4;stroke-dasharray:none;stroke-opacity:1"
       d="m 125.64666,76.042424 c -0.06,-0.388839 -4.45012,-0.03423 -4.37301,0.428432 0.30084,-0.177575 1.43106,2.842284 1.32883,2.877463 -0.055,0.01892 0.14496,-1.598591 2.51271,-1.482328 1.54724,0.820142 -1.3512,3.658809 -1.83228,3.079811"
       id="path18037"
       sodipodi:nodetypes="ccscc" /><path
       style="fill:none;stroke:#64648a;stroke-width:0.132499px;stroke-linecap:butt;stroke-linejoin:miter;stroke-miterlimit:4;stroke-dasharray:none;stroke-opacity:1"
       d="m 128.783,76.436484 c -0.50253,-0.0086 -0.20637,-0.437118 1.1643,-0.110955 0.64304,3.028516 -2.21872,4.082457 -2.15029,4.243535 l 2.60935,0.01916"
       id="path18039"
       sodipodi:nodetypes="cccc" /><path
       style="fill:none;stroke:#64648a;stroke-width:0.132499px;stroke-linecap:butt;stroke-linejoin:miter;stroke-miterlimit:4;stroke-dasharray:none;stroke-opacity:1"
       d="m 132.72577,77.948528 0.12081,1.254466 1.25636,-0.581305 -0.0188,-0.835986 0.2846,2.957753"
       id="path18041"
       sodipodi:nodetypes="ccccc" /><path
       style="fill:none;stroke:#64648a;stroke-width:0.132499px;stroke-linecap:butt;stroke-linejoin:miter;stroke-miterlimit:4;stroke-dasharray:none;stroke-opacity:1"
       d="m 137.63419,77.894759 c -1.11828,0.581306 -2.61936,2.645241 -0.34205,2.848697 1.76087,0.507805 2.0661,-2.953699 0.34205,-2.848697 z"
       id="path18043"
       sodipodi:nodetypes="ccc" /></g></svg>
