<?xml version="1.0" encoding="UTF-8" standalone="no"?>
<!-- Created with Inkscape (http://www.inkscape.org/) -->

<svg
   version="1.1"
   id="svg4885"
   width="1789.3333"
   height="820"
   viewBox="0 0 1789.3333 820"
   sodipodi:docname="KeeganG - Stake - Envelope5.svg"
   inkscape:version="1.2.1 (9c6d41e410, 2022-07-14)"
   xmlns:inkscape="http://www.inkscape.org/namespaces/inkscape"
   xmlns:sodipodi="http://sodipodi.sourceforge.net/DTD/sodipodi-0.dtd"
   xmlns="http://www.w3.org/2000/svg"
   xmlns:svg="http://www.w3.org/2000/svg">
  <defs
     id="defs4889" />
  <sodipodi:namedview
     id="namedview4887"
     pagecolor="#ffffff"
     bordercolor="#000000"
     borderopacity="0.25"
     inkscape:showpageshadow="2"
     inkscape:pageopacity="0.0"
     inkscape:pagecheckerboard="0"
     inkscape:deskcolor="#d1d1d1"
     showgrid="false"
     inkscape:zoom="5.1219513"
     inkscape:cx="568.9238"
     inkscape:cy="288.07381"
     inkscape:window-width="1280"
     inkscape:window-height="658"
     inkscape:window-x="-6"
     inkscape:window-y="-6"
     inkscape:window-maximized="1"
     inkscape:current-layer="g4891" />
  <g
     inkscape:groupmode="layer"
     inkscape:label="Image"
     id="g4891">
    <path
       id="path5368"
       style="fill:none;stroke:#787475;stroke-width:1.10239"
       d="m 456.86057,245.12311 c -2.34697,6.53838 -6.40201,12.60675 -8.22121,19.33425 m -1.65003,-17.56357 c 3.63306,4.17374 4.9804,12.80702 8.58306,15.55854 M 436.6115,248.67749 c 3.95931,-1.2146 7.99402,0.10914 11.99891,-0.1953 m -8.75674,-2.46072 c -0.30108,6.31156 0.15732,12.62509 -0.11579,18.93063 m -19.95016,-5.47849 c -1.28195,1.79982 -2.36311,3.72455 -3.31453,5.71565 m -16.68848,-14.4779 c -16.65369,6.53041 11.44513,14.58956 -5.15273,15.42833 m -3.31453,-13.60558 c -3.98101,-0.623 -11.3571,14.57118 -6.00669,10.85843 4.1117,-2.85319 4.13608,-6.56923 4.93562,-10.88447 0.19784,-1.0678 -0.28833,2.15275 -0.43422,3.22889 -0.85303,6.29203 -1.23622,8.32199 4.53035,9.66061 m -15.87794,-22.02932 c 0.5938,6.78778 -1.42638,14.59105 1.04213,21.11794 m -6.77382,-19.72483 c 1.57103,5.53991 -1.68038,12.75816 1.30266,17.86302 m -8.01857,-7.43425 c -2.28552,-3.26941 -11.41627,6.11083 -8.69885,7.57746 2.26799,1.22407 7.25486,-3.85199 7.98962,-5.6245 0.50932,-1.22867 1.17925,-5.18252 0.98423,-3.86685 -0.57192,3.85847 -2.45546,8.25525 0.21711,11.66564 m -21.72541,2.60394 c 1.35869,-7.00716 0.0543,-14.11563 0.18816,-21.18304 9.85852,-6.96455 15.52065,20.65428 0.82502,21.18304 m 34.77433,-57.7786 c -0.796,6.07554 1.5496,13.17578 -0.50659,19.06083 m -10.841,-15.03774 c 0.01,1.40553 -0.2859,2.7928 -0.41974,4.19234 -0.14489,1.51516 -0.34737,3.00584 -0.34737,4.53085 0,9.10362 11.22656,-0.71509 3.99481,-8.35864 -1.16584,-1.23223 -1.88153,-1.39046 -3.2277,-0.36455 z m -4.73298,-3.03359 c 0.28903,5.76665 -0.31631,11.52441 -0.62238,17.2511 m -15.08187,-12.44683 c 1.55285,-1.55532 8.6277,-3.62202 9.39361,-0.0911 1.01709,4.68888 -7.9841,9.02428 -7.23699,8.07221 6.87693,-8.76345 12.50163,2.23844 1.08555,5.45525 m -8.17779,-17.09486 c 0.44091,6.42993 0.71059,13.06276 -0.49211,19.39934 m 67.66698,-18.96282 c 5.63895,-12.42355 15.46951,1.78605 6.03564,10.67615 m -4.35666,-13.50142 c 2.16563,6.83624 2.9706,14.886 2.70663,21.53457 m 8.65542,-16.17046 c 0.0707,1.73557 0.1862,3.46967 0.21711,5.20788 0.27974,15.72713 -2.93941,-11.20701 6.07907,-5.66357 m 0.10131,2.00504 c 1.80653,0.0303 3.78485,0.42774 5.52906,-0.2604 0.69325,-0.27351 4.42752,-3.16666 2.20004,-3.5674 -4.04024,-0.72686 -9.57339,18.7454 3.24217,9.16587 m 4.25534,-6.23643 c -0.92356,-5.35827 -6.53192,1.3653 -4.19745,4.59595 0.5156,0.71353 9.16675,4.9427 8.19226,5.76772 -2.0371,1.72464 -12.98391,3.47929 -10.62388,-0.59891 m 9.08964,-9.51739 c 4.09427,-0.59276 8.52686,-0.58099 12.51998,-1.60142 m -9.01728,-7.88993 c 1.00593,6.88652 1.96942,14.35684 1.10002,21.03982 m 8.38043,-13.8139 c -1.31006,1.18476 -2.38438,3.04171 -2.77901,4.79125 -1.27378,5.64717 3.80315,9.32091 7.15014,3.76269 1.58349,-2.62964 -0.38752,-10.76208 -4.35666,-7.85087 m 4.55929,1.67953 c 0.49312,2.37743 0.34226,4.8132 0.52107,7.22594 0.04,0.53933 -0.0473,1.97209 0.24606,2.49978 0.61036,1.09807 0.21944,-2.51029 0.49211,-3.73665 0.53977,-2.42771 1.30012,-9.15344 3.8356,-10.32462 2.59221,-1.19739 3.08296,7.28883 3.08296,8.41072 0,1.95509 -0.0452,3.89416 -0.13027,5.84584 m 42.00898,-22.0437 c 11.43767,1.93516 6.63123,19.17767 -3.15533,20.70131 m 2.34479,-17.36827 c -0.12922,4.59077 -0.13423,9.14916 0.28948,13.72276 m -17.03585,-10.09026 c 0.006,1.45192 0.51292,2.82272 0.70922,4.25744 3.62077,26.46287 -2.07705,-14.1875 6.65802,-11.13184 4.05756,1.4194 -2.6581,11.24799 -4.51588,12.44682 -3.34901,2.16116 0.68361,-1.76122 3.15533,-1.47122 2.18642,0.25653 4.05933,2.57774 6.09354,3.4372 m 45.62561,2.16625 c -0.19255,-5.75051 -0.77242,-11.37994 -2.64873,-16.8605 -1.93039,-1.20754 -4.55228,-0.50506 -5.99222,1.27593 -5.12191,6.33502 9.30113,11.35656 1.50529,13.20197 -1.8681,0.44221 -3.84403,-0.21652 -5.31194,-1.24989 m 9.07517,-12.52495 c 4.90656,-1.1059 12.30661,-2.73454 16.71742,-0.49474 m -10.60941,5.39014 c 2.67947,-0.89613 5.54036,-1.72737 8.35148,-1.70557 m -4.96457,-4.28348 c 0.45118,2.44975 -2.45862,13.72786 2.24346,12.83742 2.49253,-0.47202 3.90227,-2.03356 5.18168,-4.10121 m 99.84599,-12.91055 c 3.47613,-0.0827 7.21616,-0.65283 10.60939,-0.26039 m -13.37394,-4.4267 c 9.42279,0.86481 9.63047,-5.93314 9.10417,5.42921 -0.18965,4.09407 -0.46773,10.2939 -1.21582,13.57955 m -19.95961,-12.72024 c 15.46402,-14.71623 2.6389,13.04547 2.17111,10.87144 -0.67488,-3.13651 5.86401,-0.002 7.41064,-0.95044 1.42875,-0.87625 1.79596,-2.78126 2.75009,-4.04912 m -19.3517,-10.01215 c -1.16758,1.20355 -2.18127,2.7596 -2.57637,4.43972 -3.87531,16.47898 9.9936,10.61904 4.96454,2.64299 -1.78382,-2.8292 -2.64905,-3.90564 -5.87643,-4.88238 m -7.67117,-2.74715 c -0.81057,2.62101 -2.51675,4.97489 -2.17111,7.87691 0.24191,2.03068 8.95827,9.79081 3.43033,9.79081 -1.97534,0 -4.12965,-0.58676 -5.90537,-1.41915 -1.2689,-0.59484 -3.37713,-1.83062 -4.03824,-2.30448 m 1.15795,-9.36116 c 4.03637,-1.59737 9.18064,-1.60536 13.43181,-0.7942 m -23.37542,6.87439 c 2.55338,-0.69974 5.21311,-1.0702 7.8159,-1.60142 m -23.86754,-3.2419 c -0.31226,1.08409 -0.25241,2.20684 -0.30398,3.32002 -1.03393,22.32156 15.85732,-3.65521 0.60791,-4.63501 m -5.90537,-2.99453 c 0.91008,5.89234 0.94899,11.86373 0.78163,17.81094 m -7.6133,-20.18053 c -0.0455,7.60679 1.0939,15.11646 2.18552,22.61521 m -41.11048,-51.46435 c -0.16748,7.06594 0.65373,14.22561 1.40398,21.27418 m -0.94081,-15.84497 c -10.19357,7.09394 -7.95261,25.90303 0.47764,10.51991 m -20.98724,-5.48128 c 1.82479,-0.12173 3.64372,-0.37291 5.47115,-0.45569 0.26921,-0.0122 4.57237,0.0156 4.81983,-0.42965 0.8544,-1.5371 -0.97694,-4.68419 -2.90926,-3.55438 -3.6118,2.11179 -3.77634,10.6221 0.75264,11.30109 m -6.50148,-17.12695 c 1.61444,6.54554 2.32001,15.15033 1.25924,20.98775 m -9.63966,-20.80547 c 1.19985,-0.27167 1.88408,0.23657 2.67769,0.95044 m -1.43293,10.92352 c 0.15315,2.2528 0.60633,5.95654 0.92634,7.4733 m -16.87664,-9.20492 c 0.0317,1.38673 -0.0132,2.76902 -0.0724,4.15328 -0.41741,9.7622 2.02497,-12.27066 4.57377,-4.68709 0.89045,2.64939 0.40843,5.43604 0.14474,8.12429 -0.0399,0.40666 -0.26053,1.60641 -0.26053,1.19781 0,-2.24104 1.2753,-5.06179 2.47504,-6.90043 3.61203,-5.53552 4.26125,5.53034 4.64615,8.11126 m -17.52797,-17.90208 c 0.77797,0.95391 1.01959,1.71151 1.3895,2.76018 m -1.08554,8.5279 c -0.0834,2.18836 0.29174,4.39965 0.56448,6.57494 m -11.85417,-1.6535 c 3.37641,-0.68046 7.62123,-2.59882 10.97126,-2.03107 m -12.04233,-15.72779 c 0.92512,6.6958 1.20464,14.76307 2.50399,20.85755 m -29.23795,-9.38908 c -0.86907,-0.96097 -2.07677,-1.09992 -3.16979,-0.37757 -10.1287,6.69381 3.82953,12.55728 3.87902,12.82439 0.63756,3.44103 -11.83275,0.58696 -12.49103,0.35154 m -4.77641,-7.85088 c 1.8135,0.68377 4.40511,0.59564 6.00669,-0.74212 4.2017,-3.50957 -0.0983,-8.1869 -3.19874,-4.68709 -3.01505,3.40344 -2.66429,13.90983 3.70534,9.99912 m -13.33052,-10.72822 c 0.72087,-0.12716 -6.56353,9.18701 -6.0067,8.73621 0.97304,-0.78774 2.05806,-0.35567 2.90927,0.42965 2.41969,2.23239 3.22863,2.31751 6.54223,2.31751 m -10.65283,-19.90711 c 1.02466,6.7492 0.66333,15.64634 1.34607,21.37833 m -22.39121,-9.3221 c 2.01956,-0.16809 4.02669,-0.37291 6.05011,-0.46871 1.34236,-0.0635 2.69384,-0.0857 4.03824,-0.0521 9.28672,0.23204 0.65337,0.41284 -0.95528,7.12177 -0.20445,0.85264 -0.48507,2.04644 0.34738,2.61695 0.77901,0.53391 1.66491,-0.30262 2.15661,-0.84627 5.34038,-5.90468 2.2327,-15.68257 3.96587,-3.45022 0.21647,1.52782 0.60853,3.05295 0.98422,4.54387 m -13.98184,-21.15698 c 0.0937,7.57411 0.12761,16.52407 0.89739,23.44847 m -16.00258,-2.22424 c -0.26571,4.38506 11.42882,5.79825 11.02916,1.48424 -0.28516,-3.07811 -6.61867,-1.69533 -7.45409,-4.40065 -1.28323,-4.15547 3.61897,-8.35379 7.17909,-8.55393 m -17.05033,1.56236 c -0.22248,3.41014 0.31184,6.77994 0.63686,10.15536 0.14295,1.48464 0.30334,2.9564 0.43421,4.43971 2.20982,25.04609 -7.10255,-11.98393 1.67898,-16.22254 0.51437,-0.24826 0.96574,0.39389 1.20134,0.79421 3.0835,5.23918 -0.43019,10.01116 -3.50269,13.99617 m -11.92655,-5.88491 c 1.70159,-0.33848 3.22796,-1.3045 4.53035,-2.43468 2.97922,-2.58529 2.06777,-7.50972 -0.49211,-4.15328 -2.2597,2.96286 -3.70952,13.90763 2.85136,11.35317 m -15.87793,-3.32002 c 1.72356,-0.3691 3.24636,-1.4181 4.41456,-2.72111 2.79765,-3.12052 0.8228,-6.63811 -1.3895,-3.07265 -2.89801,4.67058 -1.8233,13.40891 5.00799,9.28304 m -22.43463,-9.56948 c -0.61346,1.50528 -0.22714,13.8474 2.08425,13.05876 2.70773,-0.92388 3.60647,-7.11496 3.90796,-9.47834 0.17246,-1.35185 0.0823,-5.44518 -0.0434,-4.08818 -1.42402,15.37131 9.26544,21.92105 4.1106,-3.21587 m -14.1266,-6.11925 c -3.14944,0.30389 -4.81249,2.56565 -6.86065,4.53085 -9.14747,8.77694 10.57112,11.48967 7.00539,17.44639 -2.69135,4.49602 -16.5647,4.8799 -11.4489,-2.27845 M 259.44658,82.926889 c -4.60274,16.56631 12.7408,6.1171 3.21322,-0.84627 -2.16825,-1.5847 -4.1423,-0.59883 -6.19485,0.75514 m -5.47116,-4.4267 c -4.62907,1.04509 -8.83375,18.70404 -1.24476,16.46991 2.95134,-0.86884 8.82183,-9.92752 4.80536,-10.65011 -4.19846,-0.75532 -3.06953,9.05196 0.44869,10.55898 m -17.07927,-15.50646 c -0.45757,1.38573 -0.8705,2.75976 -0.95529,4.21838 -1.12891,19.421271 12.82909,4.25061 6.87513,-2.89037 -1.29489,-1.55306 -3.79444,-1.8106 -4.99351,-1.40612 m -12.66471,5.98905 c 3.34736,-0.48797 6.84424,-0.35702 10.16071,-0.5989 m -12.51997,-6.31455 c 3.21047,-0.0982 6.7163,-0.1471 9.79887,0.13019 -1.33357,5.59181 -1.65479,11.67994 -1.93951,17.21203 m -10.49362,-19.43839 c 0.1759,7.20045 -0.0145,14.40745 -0.0145,21.61269 m -3.83561,-23.17506 c 0.21399,13.10971 -10.43671,15.00324 5.21063,12.21247 M 188.283,79.384719 c -0.37979,5.86425 0.72252,11.53062 0.59343,17.39431 m -9.63965,-11.20995 c 3.75612,2.44602 6.49922,6.00506 10.71073,7.81182 m -10.4502,-12.47287 c -0.32219,4.62673 1.28209,9.3695 0.40527,13.94409 m -11.81075,1.38009 c 3.93555,-0.56455 7.85756,-1.50459 11.73838,-2.26543 m -13.05548,-13.56652 c 3.77471,-0.5223 9.13458,-0.0846 12.95419,0.97648 m -7.03434,-2.92943 c -0.65107,4.95874 0.63286,9.83663 0.10131,14.77735 m -23.53804,1.03044 c -0.17389,1.66488 -0.87658,3.19977 -1.53424,4.71312 m -11.5068,-11.82188 c -0.0129,2.01774 -0.0818,4.0326 -0.27501,6.04114 -0.0721,0.74995 0.56526,2.25241 -0.18816,2.25241 -2.76384,0 6.60742,-24.14808 6.84619,-7.39519 0.0146,1.02877 -0.0651,1.93708 -0.23159,2.95547 -0.33186,2.02996 -0.51013,4.16541 -0.81054,6.15832 m -12.12918,-11.34016 c -6.31052,23.071191 12.21991,1.69576 -0.69475,-1.69256 m -2.83689,-2.22636 c -2.31227,0.49717 -10.0017,6.1841 -7.74357,9.23096 0.88288,1.19126 5.39951,1.43685 5.67379,2.22637 1.39826,4.02486 -6.06601,3.80318 -7.42514,1.57538 m -2.32994,-17.58411 c 0.97833,-0.17617 1.80196,0.046 2.73558,0.22133 m -4.03823,7.61653 c -0.4014,3.68557 0.0709,7.44085 -0.41975,11.11881 m -9.79887,-13.00668 c -0.0922,2.05536 0.0438,4.11633 -0.0724,6.17134 -0.60494,10.701881 -1.08872,-4.27882 1.57767,-6.10623 1.05185,-0.7209 6.14313,3.67834 8.75674,3.22888 m -18.439817,-2.18731 c -0.11805,1.95817 -0.0724,3.92346 -0.0724,5.8849 0,9.953241 -1.06448,-2.72468 0.76711,-4.92144 1.11146,-1.33305 3.91612,-0.86698 5.427737,-0.89836 m -11.333107,-0.35153 c -1.17804,0.86539 -8.204325,10.38412 -5.760637,11.31411 3.536403,1.34584 5.237667,-5.85151 5.586947,-7.85087 0.19891,-1.13862 0.71305,-4.48555 0.17369,-3.46324 -1.746733,3.31081 -0.88193,12.91849 4.5593,9.93402 M 79.537158,76.670979 c 0.04107,5.48701 -0.405387,10.98356 -0.144741,16.46991 m -8.076464,-6.40568 c 5.202981,-1.2447 10.844268,-2.95626 16.225305,-2.10919 m -14.343692,-8.16335 c -1.177136,6.93256 -1.626146,14.0892 -1.128969,21.06586 m -34.857352,-9.89898 c 3.500866,-1.64228 7.601384,-1.40058 11.159422,-2.73414 m -5.919849,-5.72866 c -0.421821,5.18341 0.210938,12.0045 -0.303953,16.37877 m -4.675089,-9.36116 c -22.938064,4.34371 15.604795,8.69009 -5.890901,13.69672 m -8.510689,-7.01762 c 1.435996,-0.42703 2.431827,-1.30319 3.488225,-2.29147 8.022628,-7.50521 -5.078917,-5.96498 -1.823719,4.28349 0.81623,2.56976 3.426038,2.03687 5.601422,1.67954 m -17.80297,-13.76182 c -0.157741,1.65306 1.852717,17.435351 4.342188,16.57407 3.011866,-1.04202 3.464217,-16.67658 3.401381,-19.12593 m -14.8358089,5.70263 c 0.513483,-0.68442 0.545488,-2.10614 1.302657,-2.61696 1.256677,-0.84781 -0.260803,26.605161 5.1093069,12.25153 0.549364,-1.46838 0.969761,-2.98719 1.418448,-4.47877 M 9.8807541,52.763018 c 0.2149039,0.967095 -0.670545,3.733988 -0.998703,2.799228 -0.520571,-1.482841 5.1431059,-6.722042 6.6435469,-5.507326 2.454329,1.986954 -1.946405,15.627749 -5.5290519,15.063789 -2.274329,-0.35802 -0.0151,-6.997108 1.9250359,-6.48381 3.499705,0.9259 0.487172,6.50841 6.281699,3.82779 m 5.254047,-7.199894 c 2.97759,-0.569425 5.932742,-1.490074 8.901485,-1.952951 M 19.723046,50.406453 c 14.689035,-2.792894 8.246163,6.071344 6.180381,15.857976 M 39.453829,48.261964 c -0.912489,1.637913 -1.375649,3.448848 -1.852667,5.246937 -0.507742,1.913901 -0.726166,3.936983 -0.882911,5.910938 -1.277142,16.08351 13.547485,-1.239599 5.717214,-4.921442 -2.072733,-0.974609 -3.581101,-0.386295 -5.340892,0.95044 m 14.387116,13.228002 c -0.523933,-4.71291 2.027107,-13.215577 0.897386,-19.26914 -4.297905,0.241944 -11.364674,15.08508 -4.226397,13.80087 2.2544,-0.40558 3.740174,-2.38277 5.688266,-3.35908 m 4.67509,-8.866407 c -0.722042,1.463422 -1.649055,2.853726 -2.156622,4.413674 -3.886276,11.944003 13.488343,3.664973 4.718514,-5.012582 -1.91386,-1.893723 -4.396295,-2.452205 -6.933027,-1.731616 m 53.081551,6.207848 c -1.71605,-5.719613 -12.317717,5.793413 -9.002797,8.775273 2.828907,2.54468 7.400997,-4.78095 8.047517,-6.548906 0.40079,-1.095975 0.94081,-4.539058 0.94081,-3.372101 0,3.732752 -4.44702,8.534827 0.53554,10.545957 M 88.569523,47.712595 c -0.33599,1.799045 1.44143,18.532634 2.18557,18.644204 2.75646,0.41325 4.37525,-17.643648 4.29877,-19.542564 m 20.636297,-2.311857 c -1.38296,6.632317 -1.10002,13.485438 -1.10002,20.167501 m 5.42773,-18.917615 c 0.0133,6.803594 -0.10131,13.599065 -0.10131,20.414875 m 3.50269,-8.553933 c 1.72128,-0.174399 3.3052,-0.899059 4.71851,-1.887855 2.61532,-1.829753 0.94553,-3.288064 -0.86843,-0.976476 -3.71556,4.734834 -1.11539,9.904084 4.76193,7.629534 m 12.5055,-12.212466 c -2.98656,8.653606 -5.99068,18.166766 -11.82522,25.414436 m 1.01318,-20.688291 c 0.90392,3.379148 3.92705,6.528981 7.29487,6.796281 m 25.91945,-17.27403 c 2.28144,5.641567 2.0928,17.09416 9.90019,18.00624 m 2.99611,-18.318711 c -2.98466,5.743028 -2.93929,12.477747 -3.5027,18.474941 m 6.44091,-15.428331 c 0.48484,0.976131 0.6656,1.673602 0.86844,2.734132 m -0.27501,2.512804 c -0.21502,2.94296 -0.34219,6.047741 -0.275,8.918485 m 9.65413,-12.355683 c -13.56039,6.821468 -0.18556,8.241645 2.31583,10.624063 3.87688,3.69249 -9.1955,3.28593 -10.03045,3.22888 m 8.93043,-9.973076 c 2.41551,-0.680612 4.9976,-0.650984 7.49751,-0.650984 1.7788,0 3.55751,0.160101 5.34089,0.143213 10.76981,-0.101976 3.78312,-2.982301 -1.82372,4.582932 -0.30218,0.407727 -1.77541,2.217825 -1.47634,2.890375 0.13829,0.31098 1.46223,0.13408 1.65003,0.0391 5.76563,-2.917315 7.49751,-13.032722 7.49751,-2.434681 0,1.523301 0,3.046601 0,4.569911 M 197.49356,43.97167 c -0.27839,5.758027 0.3262,16.237889 0.85397,19.776919 M 267.37786,53.52965 c -0.63909,0.439969 -1.38797,0.661414 -2.0553,0.950441 m -11.01469,-5.806783 c -0.039,1.631321 0.0836,3.286017 -0.14474,4.908424 -2.46978,17.550907 -1.96496,-6.542679 5.03694,-4.895404 m -19.14905,-6.614005 c 3.54645,-0.873625 6.94346,0.04416 9.0607,3.059624 6.43652,9.167206 -6.97684,17.466782 -6.68697,12.056236 m -2.69216,-14.256562 c 0.69526,5.125086 0.73794,10.508829 1.40398,15.558538 M 206.87671,7.0102923 c -0.12857,6.8842347 -0.37255,13.7654407 -0.92634,20.5971517 M 202.07135,16.81412 c 2.50504,0.343665 6.91126,-0.09522 8.35148,-0.377571 m -10.80329,-3.211694 c 1.10241,1.391493 0.87627,0.651474 0.94081,2.12221 m -1.04212,3.333041 c -0.86714,3.52774 -0.70923,7.073488 -0.70923,10.663128 M 191.67334,8.4075693 c 0.94706,4.5864697 -3.20738,18.3204717 1.83819,21.2741767 M 190.747,19.292032 c -5.12652,-7.945054 -10.84015,14.862874 -3.93691,9.556453 1.88917,-1.452174 3.39348,-2.771621 4.67509,-4.804265 m -16.18189,-2.486762 c 1.60109,-0.472325 3.25874,-1.056414 4.66062,-1.992013 0.80987,-0.540503 3.20266,-1.887855 2.22899,-1.887855 -6.00959,0 -9.83394,18.891382 1.11449,9.243981 m -13.90948,-9.087745 c 0.1556,1.54206 -0.0254,3.110766 0.18817,4.64803 2.10331,15.135907 -1.89861,-6.736499 3.67638,-6.340589 1.36334,0.09682 1.85689,1.317682 2.33031,2.395623 m -7.15013,-5.038621 c 1.02095,-7.5214517 -15.57756,3.054498 -11.62259,12.329648 0.79906,1.873949 2.447,3.152604 4.51587,3.189824 3.69814,0.06653 6.25442,-2.006723 8.48174,-4.765207 M 126.61152,12.108366 c -0.41578,2.009316 -0.85256,4.048903 -0.92634,6.106235 -0.10984,3.063007 0.0639,6.134236 0.20264,9.191903 0.0608,1.340075 -0.0335,5.35774 0.10131,4.023085 1.32125,-13.073447 7.87988,-17.221526 7.19356,1.093654 M 120.92325,18.800488 c -2.35272,-1.352558 -3.56519,0.500005 -4.28429,2.616958 -2.04908,6.03228 4.0019,3.343237 6.31065,6.666082 1.45008,2.087024 -4.93541,4.12458 -8.90149,3.059627 m -4.70404,-9.178882 c -1.828,0.398817 -8.00054,7.442779 -4.40008,8.762252 4.25688,1.560035 4.40008,-9.053405 4.40008,-8.762252 0,4.598622 -0.10789,5.991565 3.47375,8.124287 M 101.25314,16.678278 c -1.640717,-7.1416067 -20.75332,14.152405 -6.658017,14.152405 2.8159,0 4.81627,-1.514577 7.294867,-2.590919 1.36069,-0.590884 2.59317,-1.521853 3.76323,-2.395623 m -47.206517,0.04079 c 1.598233,0.07893 3.694227,1.114626 5.326417,0.650984 0.90064,-0.255837 4.00905,-3.253676 2.431625,-4.075163 -5.641613,-2.938027 -9.429375,18.780543 2.214519,8.306563 M 54.625579,18.593902 c -0.705369,4.477476 -8.184142,10.853665 -7.830412,8.944528 0.166148,-0.896722 3.999541,3.955417 8.626481,1.054595 M 46.187261,13.438104 c 0.296773,6.827679 -0.05201,14.631559 1.056599,21.013782 M 40.426625,21.054623 c -3.783985,-1.131678 -12.448241,5.559328 -9.567287,9.608533 2.05466,2.887842 6.52438,-3.86924 7.208032,-5.312035 0.551844,-1.164626 0.767048,-2.436044 1.100021,-3.671552 0.104653,-0.38832 0.144739,-1.599987 0.144739,-1.197812 0,3.579152 -3.026302,15.643726 4.530349,11.079758 M 24.809223,13.789636 c 1.5866,6.566125 -0.167654,13.638013 0.564485,20.141463 M 20.380192,23.033616 c 4.541851,-1.526283 9.747522,-1.259496 14.416063,-0.598905 M 21.682848,14.154187 c -1.361449,0.734252 -2.614655,1.645455 -3.965865,2.408643 -17.60977193,9.946319 2.310427,8.531491 2.706631,14.946606 0.27447,4.44408 -10.6371449,4.079026 -11.6804859,0.104158" />
    <path
       style="fill:none;stroke:#64648a;stroke-width:0.500783px;stroke-linecap:butt;stroke-linejoin:miter;stroke-miterlimit:4;stroke-dasharray:none;stroke-opacity:1"
       d="m 474.08039,248.8087 c -0.28459,0.15332 11.70821,-1.26471 12.41893,0 1.58545,5.76263 -0.84696,11.73272 -2.83079,18.0159"
       id="path18035"
       sodipodi:nodetypes="ccc" />
    <path
       style="fill:none;stroke:#64648a;stroke-width:0.500783px;stroke-linecap:butt;stroke-linejoin:miter;stroke-miterlimit:4;stroke-dasharray:none;stroke-opacity:1"
       d="m 501.74906,247.27075 c -0.22663,-1.46963 -10.70144,-0.32055 -10.41,1.42809 1.13703,-0.67115 5.40874,10.74249 5.02236,10.87545 -0.20773,0.0715 0.54789,-6.04192 9.49684,-5.6025 5.84784,3.09975 -9.88649,14.78449 -11.70476,12.59615"
       id="path18037"
       sodipodi:nodetypes="ccscc" />
    <path
       style="fill:none;stroke:#64648a;stroke-width:0.500783px;stroke-linecap:butt;stroke-linejoin:miter;stroke-miterlimit:4;stroke-dasharray:none;stroke-opacity:1"
       d="m 513.98534,249.90722 c -0.92014,-2.13062 7.40516,-8.23953 10.13605,-1.75765 2.43037,11.44636 -8.38572,15.42976 -8.12708,16.03856 l 9.8621,0.0724"
       id="path18039"
       sodipodi:nodetypes="cccc" />
    <path
       style="fill:none;stroke:#64648a;stroke-width:0.500783px;stroke-linecap:butt;stroke-linejoin:miter;stroke-miterlimit:4;stroke-dasharray:none;stroke-opacity:1"
       d="m 532.90203,248.93057 2.17726,10.09446 4.74844,-2.19706 -0.26237,-4.49792 1.26682,12.5172"
       id="path18041"
       sodipodi:nodetypes="ccccc" />
    <path
       style="fill:none;stroke:#64648a;stroke-width:0.500783px;stroke-linecap:butt;stroke-linejoin:miter;stroke-miterlimit:4;stroke-dasharray:none;stroke-opacity:1"
       d="m 554.89483,248.91854 c -4.22655,2.19706 -11.6206,15.15974 -3.01342,15.92871 6.65525,1.91926 9.52952,-16.32557 3.01342,-15.92871 z"
       id="path18043"
       sodipodi:nodetypes="ccc" />
  </g>
</svg>
