<?xml version="1.0" encoding="UTF-8" standalone="no"?>
<!-- Created with Inkscape (http://www.inkscape.org/) -->

<svg
   version="1.1"
   id="svg6368"
   width="1841.3333"
   height="788"
   viewBox="0 0 1841.3333 788"
   sodipodi:docname="KeeganG - Stake - Envelope8.svg"
   inkscape:version="1.2.1 (9c6d41e410, 2022-07-14)"
   xmlns:inkscape="http://www.inkscape.org/namespaces/inkscape"
   xmlns:sodipodi="http://sodipodi.sourceforge.net/DTD/sodipodi-0.dtd"
   xmlns="http://www.w3.org/2000/svg"
   xmlns:svg="http://www.w3.org/2000/svg">
  <defs
     id="defs6372" />
  <sodipodi:namedview
     id="namedview6370"
     pagecolor="#ffffff"
     bordercolor="#000000"
     borderopacity="0.25"
     inkscape:showpageshadow="2"
     inkscape:pageopacity="0.0"
     inkscape:pagecheckerboard="0"
     inkscape:deskcolor="#d1d1d1"
     showgrid="false"
     inkscape:zoom="5.2570604"
     inkscape:cx="560.76967"
     inkscape:cy="296.45846"
     inkscape:window-width="1280"
     inkscape:window-height="658"
     inkscape:window-x="-6"
     inkscape:window-y="-6"
     inkscape:window-maximized="1"
     inkscape:current-layer="g6374" />
  <g
     inkscape:groupmode="layer"
     inkscape:label="Image"
     id="g6374">
    <path
       id="path6943"
       style="fill:none;stroke:#787475;stroke-width:1.11404"
       d="m 455.36348,270.38206 c -2.8252,6.12034 -6.91182,12.92193 -7.74921,19.76972 M 447.41273,270.654 c 2.10075,4.95034 3.70592,11.59785 8.31353,14.93832 m -21.52448,-13.77807 c 4.00191,0.58762 8.55404,0.22607 12.36448,1.77665 m -7.51745,-2.69216 c 0.11911,7.13995 1.62215,14.2631 1.21932,21.41946 m -23.08188,-4.72655 c -0.54678,3.37173 -1.90494,6.51141 -2.85179,9.75342 m -2.77118,-22.66129 c -3.54618,-0.0955 -11.10244,8.03686 -8.26314,11.8292 1.45754,1.94677 5.6716,2.25374 6.58028,3.97025 1.83018,3.45721 -7.97428,3.97036 -9.26076,2.17549 m -4.59512,-14.52136 c -1.66016,0.68408 -2.63621,2.41798 -3.40602,3.96119 -0.8216,1.64702 -1.55007,3.45436 -1.71309,5.31181 -0.6666,7.5952 7.93672,-8.15256 6.78182,-9.19142 -0.28894,-0.25991 -0.7457,4.64438 -0.7457,4.7498 0,2.47028 -0.26451,4.95044 0.12093,7.39665 m -11.67125,-18.28341 c 0.23685,6.04331 -0.60956,12.33038 0.85655,18.265 m -5.48189,-18.40097 c -0.25375,6.93612 -1.08205,13.85755 0.262,20.73962 m -7.63837,-7.37852 c -1.67484,-0.13026 -3.4959,0.6703 -4.9478,1.51378 -9.35945,5.4373 -0.76259,11.05266 4.9478,-1.51378 0.57142,-1.25746 2.75395,-3.49199 1.43094,-3.88868 -0.41897,-0.12562 -1.89407,10.15852 0.34262,12.083 m -19.83155,-19.7969 c 13.52704,-0.47563 13.85194,19.52896 1.98518,22.96948 m 0.67516,-18.69103 c -0.28595,5.9067 0.33763,12.93239 0.0202,18.30126 m -2.18747,-51.45799 c 14.96668,-4.49243 4.60214,12.19257 2.19678,11.23093 -1.19129,-0.47626 5.21212,-5.94957 7.39652,-4.3419 3.87034,2.84847 -4.66099,9.74794 -7.47713,9.43616 m -6.06324,-20.69709 c 1.0384,7.41095 -0.37348,15.23428 1.08832,22.59784 m 19.43943,-18.32233 c -0.46555,5.01263 -0.68333,10.20546 0.25192,15.18307 m 4.94781,-15.2012 c 0.0335,1.97563 -0.34262,3.91264 -0.34262,5.89194 0,2.04065 -0.81813,5.91376 0.0202,7.84081 1.18824,2.7315 7.98535,-4.92589 0.89686,-9.7081 -1.3937,-0.94025 -2.28088,-1.84596 -4.02073,-1.88542 m 14.82327,-1.90355 c -0.0956,5.35508 0.64096,10.77253 0.0907,16.13484 m 25.14483,-25.53846 c 11.80296,-4.73553 12.18158,11.47757 2.62003,15.0743 m -1.95494,-14.17692 c 2.16039,6.95039 4.00491,14.61404 3.73856,21.94521 m 8.74685,-6.0823 c 0.0299,-3.56497 -0.92115,-15.7781 6.32835,-11.54819 m -2.51925,3.57141 c 1.76638,-0.27057 3.54166,-0.43178 5.27027,-0.90644 7.99535,-2.19546 1.99009,-6.46682 -0.96739,2.28426 -1.53862,4.55274 2.14033,6.59717 5.98574,4.05184 m 6.80198,-10.13414 c 0.26534,-1.1099 0.0466,-1.93981 -1.2294,-1.93981 -1.15503,0 -1.91175,1.05123 -2.38825,1.9942 -3.74508,7.41136 5.41029,7.99065 3.88973,11.25813 -1.11374,2.39326 -5.49204,3.51676 -6.22759,0.8702 m 6.60617,-9.65241 c 3.08694,-0.0487 6.21803,-0.51528 9.2003,-1.31435 m -5.67335,-8.31216 c 0.0611,7.58268 2.21189,14.48888 1.67278,22.05397 m 6.74151,-16.0442 c -0.28651,1.45026 -0.76921,2.85162 -1.179,4.26939 -1.64574,5.69377 4.63523,3.91719 3.46649,-1.93074 -0.39727,-1.98773 -1.67297,-3.24911 -3.82926,-3.29949 m 6.05627,9.62652 c -1.20648,-1.89515 3.22315,-13.09051 5.9152,-10.66894 3.09438,2.78347 1.39842,11.90788 1.56194,15.78133 m 44.17064,-23.01648 c 11.57851,0.10563 11.47638,18.02123 -0.0302,18.99923 m -0.0302,-17.73926 c 0.72879,5.61321 0.80903,11.40225 1.77355,16.94158 M 502.22892,231.8995 c 0.5235,2.58163 0.90767,5.19307 1.51155,7.75923 0.30804,1.309 0.58531,2.65503 0.81624,3.97932 0.28068,1.60957 0.57129,3.30905 0.66508,4.94016 0.0453,0.78803 0.10077,3.15517 0.10077,2.36584 0,-7.96069 -2.95029,-14.12339 1.84409,-21.42852 0.53148,-0.8098 1.55271,-2.29601 2.68048,-2.04858 3.29831,0.72364 0.49947,7.90505 0.10077,9.39084 -0.31279,1.16568 -6.04972,9.47849 -6.58028,8.149 -1.12114,-2.80938 2.98171,-4.61971 5.11912,-3.98839 2.84214,0.83948 3.56076,3.65764 6.86244,3.53517 m 156.8104,-22.4355 c 2.55455,0.49899 5.17878,0.41975 7.77943,0.70703 m -10.46998,-2.34771 c 2.28172,-1.19822 6.15313,-4.6327 8.27321,-4.06996 -0.89571,6.3705 0.92206,13.23164 -0.62477,19.53403 M 656.96102,223.5982 c 0.48683,-2.63541 4.80875,-7.8126 7.28566,-4.27845 1.72357,2.45927 -0.53257,7.58357 -1.56192,9.89846 -1.32919,2.98902 -3.58226,5.56677 -3.59753,5.40245 -0.24836,-2.68091 4.96243,0.53424 8.49493,-2.94597 m -22.77401,-9.47242 c 3.54936,0.0921 8.61029,10.70028 4.19205,11.24 -7.01147,0.8565 -3.25036,-9.77499 -0.0201,-12.07394 m -18.64256,0.91552 c 4.64739,-0.20127 10.50447,-1.46429 15.00466,0.0997 m -11.05449,-2.82813 c -6.26049,10.72181 5.62481,13.78885 5.92528,17.03223 0.10258,1.10762 -6.36388,0.67297 -7.06399,0.39884 -1.71237,-0.67049 -3.00194,-2.09213 -4.42379,-3.18165 m -14.5482,-0.14588 c 1.70765,-1.28626 3.54865,-2.17567 5.53231,-2.94597 m -20.15402,-6.28171 c -0.59194,2.24771 -1.27578,4.47286 -1.62241,6.78026 -0.32565,2.16784 -0.64399,5.26536 0.33254,7.31507 1.40689,2.95282 5.01502,1.13867 5.90513,-1.07868 2.60407,-6.48669 -3.64421,-13.06599 -9.68398,-8.31216 m -2.90219,-5.59281 c 0.72487,5.95257 -0.15899,12.38075 1.69291,18.14716 m -5.8649,-17.27696 c -0.77318,6.2247 -0.33201,13.27502 1.77354,19.24398 m -25.34827,-16.81281 c -4.61466,1.38747 -23.75528,0.74269 -22.33064,9.49962 0.56111,3.44898 6.59632,5.46642 6.38882,8.91948 -0.0577,0.96091 -6.79608,4.27896 -8.52514,-0.72516 m 9.69407,-15.98981 c 1.12172,5.72483 2.34003,11.70886 3.80911,17.2951 m 2.02548,-11.46662 c 3.35997,-0.51546 6.78107,-1.45162 10.23823,-1.71319 m -7.01359,-5.08519 c -0.0171,1.48317 1.57247,17.94714 2.71071,17.76645 1.42561,-0.2263 4.25475,-4.24515 5.35089,-5.339 m -7.84542,-50.94281 c -0.38048,8.10275 1.7599,15.91471 2.54948,23.93034 m -2.33787,-14.72078 c -6.13793,-0.95419 -9.25767,21.55902 -1.16893,11.69323 1.20594,-1.47089 1.88284,-3.25526 2.44871,-5.04894 m -21.13148,-2.48368 c 2.10269,-0.0914 4.30373,-0.009 6.37875,-0.39884 8.03771,-1.51077 2.45708,-6.54509 -1.04801,-1.37781 -4.01005,5.91172 -0.75139,11.01182 6.06636,9.4543 m -11.99164,-16.76029 c 1.42343,7.00071 4.5618,14.05388 4.66565,21.24722 m -13.95818,-24.45897 c 0.29966,0.88112 0.36034,1.81469 0.40308,2.73749 m 1.37048,10.62361 c 0.78969,3.33594 -0.14895,7.06225 0.92708,10.32449 m -12.36448,0.90645 c -1.26821,-0.25285 3.54481,-16.27936 5.38112,-9.43616 0.79886,2.97706 -1.07725,7.07089 0.59454,9.74435 m -11.6994,-0.41696 c -0.0103,-1.66688 1.34312,-13.42889 3.88972,-12.63594 3.13192,0.97519 1.85046,11.12204 1.64255,13.39736 m -11.79009,-17.70301 c 0.7301,0.86489 1.3179,1.68865 1.70302,2.75562 m 0.36277,7.60513 c 0.51676,2.90295 0.30415,5.90373 0.73562,8.80164 m -14.1985,-2.48367 c 4.07888,-1.28777 8.1685,-2.73188 12.37456,-3.50797 m -14.42019,-18.02027 c 3.18962,7.17545 4.31737,15.21593 5.68343,22.58878 m -31.33018,-14.31401 c -1.03542,0.0366 -2.01867,0.67518 -2.80141,1.34155 -1.21696,1.03604 -1.98286,3.08879 -2.3681,4.57758 -1.89236,7.31328 5.66862,5.94081 5.82451,8.95575 0.26056,5.03912 -10.16667,1.77725 -11.79009,0.41697 m -8.43065,-7.1222 c 2.34928,1.08824 4.99234,0.31063 7.24537,-0.67984 9.13381,-4.01538 1.39339,-12.16474 -1.44101,-1.52284 -1.67049,6.2719 0.40753,10.85205 6.5702,5.62 m -14.81319,-7.47822 c -1.06069,8.013 -10.0437,7.11446 -4.43388,10.47858 2.05439,1.23198 4.39804,1.06741 6.61051,0.46229 m -9.73291,-18.99877 c 1.1647,7.76255 3.25674,15.48697 2.66034,23.29581 m -8.70653,-13.34297 c -4.11411,-0.44803 -10.72496,11.17915 -6.59037,13.68742 3.54067,2.14797 8.27593,-11.21458 7.2756,-13.91403 -0.086,-0.2322 -0.11925,0.48112 -0.16123,0.72516 -0.21619,1.25653 -0.30602,2.45778 -0.29224,3.73458 0.0363,3.36695 0.76527,6.93953 2.41848,9.87126 m -19.38815,-11.91984 c 4.25651,0.33462 8.62992,0.0443 12.87841,0.31726 m -10.52037,-12.9532 c 0.66908,8.67116 2.50077,17.56621 1.92471,26.05143 m -5.52872,-16.22896 c -3.71759,-0.92743 -10.75549,5.81546 -7.98098,9.59932 1.11752,1.52408 5.95598,2.76351 6.23766,4.23313 0.7218,3.76579 -8.59006,2.25634 -10.15762,1.49565 -1.03995,-0.50466 -2.0596,-1.05539 -3.11379,-1.52284 m -4.74627,-12.38213 c 9.10277,-1.67426 5.30903,10.26323 1.12862,14.31287 m -1.6627,-12.4909 c 0.46118,7.95172 2.93608,15.71091 2.5394,23.70371 M 383.6756,217.59516 c 1.75646,-0.37259 4.23173,-0.90549 5.45166,-2.41116 2.55986,-3.15947 -1.18309,-4.84959 -2.95257,-1.63162 -2.60989,4.74638 -1.40564,13.46481 5.2602,7.66859 m -13.40241,-2.88252 c 1.58189,-0.47956 3.46141,-1.65942 4.6858,-2.90065 2.21999,-2.25051 0.14698,-5.36387 -1.87432,-2.61058 -2.20271,3.0004 -4.46969,14.51617 2.62002,10.77772 m -17.78591,-7.99491 c -0.17362,1.26333 0.54973,13.02322 2.47894,12.50903 1.47259,-0.39248 2.87092,-8.49618 2.97272,-9.78968 0.0996,-1.2655 -0.15166,-5.03714 -0.38292,-3.78896 -0.32789,1.76967 2.87243,12.2945 3.48664,11.81106 2.54931,-2.00652 0.86499,-13.04569 0.71546,-15.50032 m -11.36685,-4.53226 c 0.55228,-3.35952 -3.71682,-0.25875 -4.84704,0.51667 -1.43893,0.98722 -2.73405,2.20554 -4.0308,3.37201 -1.41246,1.27054 -2.54193,2.55394 -3.52695,4.16968 -5.23377,8.585 11.94209,5.54678 11.07462,11.56632 -0.88177,6.11881 -16.69838,4.29897 -11.50794,1.75852 M 268.6995,75.473139 c -3.81539,1.37535 -1.4029,13.35852 2.83164,9.91659 1.38279,-1.12396 1.68553,-2.7711 1.94486,-4.42349 1.11239,-7.08774 -3.737,-8.67577 -9.72431,-7.80455 m -3.70833,-2.809998 c -4.77762,1.773278 -7.21086,13.470758 -2.46887,16.406778 4.15056,2.56984 8.06612,-4.48862 7.30583,-8.0221 -1.18583,-5.51118 -5.33086,1.10795 -4.65558,6.37236 m -14.91396,-10.28823 c -0.45809,2.03284 -0.63603,4.06788 -0.83639,6.12762 -0.0923,0.94882 -0.0907,1.88184 -0.0907,2.83719 0,11.97107 14.11311,-4.12727 6.41905,-9.19142 -1.406,-0.92541 -3.30619,-1.20309 -4.75635,-0.32632 m -14.33802,4.8551 c 2.73074,0.0743 5.4834,-0.2094 8.22283,-0.0906 m -10.51031,-5.04894 c 4.24979,0.66301 9.21773,-2.17224 8.48483,3.05475 -0.71045,5.06691 -1.46918,10.21916 -1.5317,15.33716 M 226.7908,69.858737 c 0.085,8.238432 0.90351,16.550542 -0.70539,24.682682 m -2.1464,-21.98145 c -3.56968,15.03182 -9.22838,12.76107 6.73144,9.21861 m -33.22051,-6.92597 c -0.13611,6.28157 2.03459,13.02799 0.88678,19.28023 M 188.2698,80.046579 c 2.901,4.53171 5.87463,9.04093 10.62116,11.86546 m -10.76224,-14.49416 c -0.29028,5.57098 -0.47362,11.14594 -0.47362,16.7331 m -14.48065,1.25996 c 3.6869,0.19439 7.77272,0.17708 10.93355,-1.967 m -12.07225,-15.10149 c 3.42664,-1.61651 8.81936,-2.24324 12.54586,-1.25996 m -6.63066,-0.41697 c -0.0346,4.47734 -0.3812,8.98975 -0.0705,13.46081 m -13.68943,2.15728 c -0.5958,1.79866 -2.15585,2.95563 -3.23472,4.45068 m -25.96843,-11.6479 c -10e-4,1.08804 0.045,2.17418 0.18138,3.25415 2.02314,16.014771 -1.0551,-0.31485 4.76642,-5.14864 4.40874,-3.66071 4.246,10.09198 4.01065,11.521 m -13.49311,-11.25813 c -0.67779,1.74415 -1.12924,3.5591 -1.74332,5.32994 -4.73025,13.640991 10.40934,3.94148 5.89505,-4.45068 -0.7591,-1.41118 -2.84275,-2.04198 -4.2928,-1.82197 m -4.18196,-2.33864 c -1.81444,1.83211 -9.96601,8.7507 -6.98336,11.73855 1.12359,1.12555 5.42887,1.13714 5.5625,3.00035 0.22941,3.19853 -8.63431,0.11026 -9.51269,-0.46229 m 2.56889,-20.84382 c -0.62407,0.97113 -1.71756,1.55275 -2.60994,2.27519 m -0.76585,7.65952 c 0.13939,4.04966 -0.56748,8.80818 0.25192,12.5181 m -10.077,-13.27952 c 0.0329,1.12209 -0.0337,2.24187 -0.0504,3.36294 -0.03,2.01112 -0.12445,4.01829 -0.19147,6.0279 -0.22984,6.89172 -2.55022,-13.44117 5.33074,-9.03732 m -13.261324,0.55293 c -0.0342,1.06953 -0.13029,2.13717 -0.16123,3.20884 -0.0509,1.76082 -0.0694,3.54898 0.0806,5.30275 0.0711,0.83203 0.22326,3.33177 0.13099,2.5018 -0.37047,-3.33254 -1.00442,-13.14073 4.695894,-11.93797 m -10.258396,4.11529 c -0.08834,-5.37809 -9.555563,7.72973 -7.577901,9.50868 2.511451,2.25912 6.459512,-5.83953 6.771744,-7.33319 0.276601,-1.32322 0.566307,-4.69757 0.655005,-3.18165 0.177333,3.03082 -1.298291,6.05006 -0.0907,9.01013 m -17.705306,-6.20919 c 6.135644,-0.69374 12.522516,-1.46205 18.612225,-1.64068 m -8.867763,-11.59352 c -0.787063,6.73692 -0.974995,13.51068 -0.88678,20.29545 m -8.448251,-19.26819 c -0.542385,8.48176 -0.227919,16.92041 0.423231,25.371591 M 15.525304,79.449459 c -0.01537,1.60375 0.675494,17.48085 3.033178,16.95065 3.641597,-0.81893 3.753713,-14.21266 4.161802,-17.01411 m -12.9691017,0.12691 c -1.446198,8.62859 -1.58526,28.363441 5.8144297,7.59606 m 8.343758,2.40211 c 1.475725,0.80861 3.578395,0.57605 4.87727,-0.57107 3.864913,-3.41338 1.062778,-7.75445 -2.08594,-3.25416 -3.412925,4.87791 -1.412865,12.53868 5.371042,8.44813 m 9.734385,-10.41513 c -1.104947,0.15979 -2.303281,0.43259 -3.305257,0.9699 -12.467186,6.6856 1.472061,8.39663 1.71309,9.24581 0.949312,3.34456 -6.963635,4.0522 -8.595683,3.19977 m 8.968532,-13.97748 c 2.932032,-0.18452 5.845222,-0.43716 8.766992,-0.67078 m -4.9075,-5.95539 c -0.623112,5.48224 1.51292,11.70049 -0.141078,17.0141 m 10.489584,-41.94853 c -0.706085,1.379215 -1.346415,2.790145 -1.995246,4.196872 -5.293762,11.477333 6.982477,9.018001 5.270274,-1.078679 -0.633128,-3.733465 -4.460839,-2.95363 -7.265521,-2.628712 m -1.239471,-0.725158 c -4.479396,-5.724468 -13.51175,11.226647 -4.655575,9.327385 1.952664,-0.418757 4.490141,-0.955299 6.076432,-2.148291 m -0.987546,-9.03732 c -2.337774,5.856768 -1.000435,12.3446 -1.995247,18.310322 M 37.029052,49.59299 c -1.556513,1.883581 -2.646859,4.01414 -3.436258,6.31797 -0.375497,1.095869 -0.644815,2.202692 -0.977469,3.308548 -3.585975,11.920973 14.487132,-1.749584 6.459358,-6.082293 -1.664356,-0.898281 -3.715068,-0.774389 -5.300503,0.03625 m -13.049718,0.933647 c 2.712543,0.06396 5.545042,0.186929 8.242988,-0.21755 m -11.084703,-2.7828 c 3.040211,4.71e-4 6.168258,-0.742643 9.008841,-1.794771 -1.351371,4.962006 -1.850844,10.195224 -3.29518,15.155874 M 6.4050413,54.768831 c 9.7319187,-13.893994 7.4224897,4.176039 2.277403,9.39084 -2.825453,2.863735 -4.014299,-1.693904 -2.388249,-2.547134 3.9406187,-2.067734 5.5436017,7.344818 10.4397737,-1.649738 M 84.788362,47.372748 c 0.457005,1.378443 2.761183,15.983348 3.023099,16.017003 2.452959,0.315215 6.206125,-16.13447 6.449285,-17.884295 m 10.610944,6.570465 c -3.26794,-3.148895 -11.666957,5.390029 -8.948384,8.865098 2.2985,2.938119 7.569894,-4.847952 8.273224,-6.191064 0.42647,-0.814411 1.35864,-3.288841 0.67516,-2.674034 -1.99681,1.796179 -3.05388,9.373909 0.71546,9.699039 m 7.20506,-16.805616 c -1.06039,5.611475 -2.68882,12.163606 -1.27978,17.848034 m 4.9075,-18.410037 c -0.78445,6.553846 -0.14151,13.090343 -0.0101,19.651877 m 2.29756,-10.433265 c 1.09792,-0.07472 2.43053,-0.162005 3.41611,-0.716097 3.14714,-1.769333 2.63675,-3.97993 -0.0302,-1.31435 -2.90966,2.908119 -4.16064,9.99434 1.71309,8.647549 m 14.10429,-13.505281 c -4.36206,8.182315 -5.11913,19.269335 -13.2311,24.845845 m 3.48665,-22.334977 c 0.0388,3.563526 3.18141,7.905277 6.99344,7.858935 M 157.6067,43.585373 c -0.56258,4.394076 1.73538,17.343573 8.70653,15.355293 m 4.48426,-19.851294 c -3.9588,7.16988 -4.54473,15.191953 -4.54473,23.187037 m 5.42143,-16.279875 c 1.08709,-0.142987 1.91945,0.335129 2.59987,1.151196 m -1.05808,3.272293 c -1.38042,3.979547 -0.80698,7.921459 -0.75578,11.974224 m 9.815,-15.917292 c -2.50663,0.192724 -4.49745,1.398922 -5.85474,3.498902 -3.68809,5.706158 8.1022,4.432779 5.38112,8.366551 -1.58432,2.290388 -6.12403,4.418689 -7.90037,2.374907 m 25.82305,-12.572489 c -1.47221,0.50373 -3.21966,1.033911 -4.44396,2.057647 -0.59408,0.496756 -5.22985,5.866029 -3.78895,6.816518 2.34407,1.546271 7.34016,-6.238745 8.18252,-7.877069 0.15217,-0.295961 -0.28193,-0.979511 0.0504,-0.997096 0.48849,-0.02588 0.18402,8.102506 0.27207,9.082647 m -17.21153,-6.336097 c 5.31438,-3.667935 12.34371,-1.962617 18.27968,-2.90065 M 185.54588,37.865662 c 1.18007,6.860656 1.36808,13.904465 1.05809,20.875583 m 55.91126,-9.742906 c -0.56912,0.406784 -0.9725,0.952859 -1.45109,1.450328 m -10.17777,-6.499261 c 0.34738,-1.903382 -0.47687,12.074493 -0.81624,10.242907 -0.2903,-1.566804 0.59952,-8.42668 1.91463,-9.499617 0.90405,-0.737565 2.50585,-0.476119 3.55718,-0.688903 m -17.15105,14.30381 c 0,-7.092948 -0.55396,-14.119544 -0.79608,-21.192844 11.6056,-6.588834 14.8255,17.236176 5.10903,18.881392 M 186.98303,7.0017569 c -0.0185,5.8653681 0.27603,11.6106321 0.20154,17.4401331 m -4.11141,-9.300196 c 2.77096,0.128838 5.65894,-0.207817 8.34375,-0.281 M 179.767,10.26601 c -0.3822,0.445609 -0.8429,0.834143 -1.27977,1.214646 m 1.00769,5.121452 c 0.77442,2.998533 -1.51699,10.728253 1.08832,12.862551 m -8.7166,-21.9180051 c 0.46205,1.995611 -1.59026,25.0756961 2.95256,21.4194571 m -2.8921,-11.303454 c -3.24642,-6.075036 -13.24749,9.541166 -7.06398,11.113099 1.87268,0.476061 3.48234,-0.718706 4.72612,-2.003258 0.85241,-0.880365 1.79592,-1.727063 2.45878,-2.755614 M 155.19927,20.7174 c 1.92831,0.04319 3.91993,-0.436034 5.67335,-1.259968 5.14051,-2.415529 0.44735,-4.556319 -2.48902,-0.154097 -3.66784,5.498872 -2.35648,10.845834 4.91758,6.76213 m -13.28693,-5.793643 c 0.39268,-2.330835 2.81233,-3.749172 5.01835,-3.226968 m -5.00827,-0.208485 c -0.47905,3.959333 0.36434,8.631277 0.10076,12.282422 m -2.06578,-14.856745 c -3.01664,-7.7841111 -18.89207,4.971137 -11.64901,12.889745 1.42636,1.559394 3.0162,2.073937 5.06873,1.531904 1.37126,-0.362124 2.58099,-1.167778 3.80911,-1.858227 1.3988,-0.786412 2.47697,-2.021452 3.36572,-3.326678 m -42.62572,-9.254872 c 0.36476,1.60369 0.62286,3.220982 0.95731,4.831388 0.81669,3.932459 1.24955,7.740148 1.24955,11.720422 0,0.163161 -0.0195,-0.327489 0,-0.489485 0.11614,-0.966382 0.42111,-2.055505 0.71547,-2.982226 0.74627,-2.349535 1.32547,-7.429267 4.38349,-7.877066 3.63218,-0.531877 1.76824,10.382173 1.86425,12.001422 M 103.53643,21.0166 c -3.34917,-1.374815 -6.839994,3.3238 -5.683434,6.444872 0.43481,1.173354 7.755654,3.526628 6.338434,4.740743 -3.56015,3.049951 -11.169778,0.66909 -6.338434,-0.779549 m -2.30254,-10.327672 c -4.125078,-4.067885 -9.128238,9.216397 -5.985733,10.53297 3.186825,1.335142 5.180733,-4.558098 5.834583,-6.589905 0.62528,-1.94301 0.32212,-4.180735 0.15115,-3.943065 -0.25894,0.359978 -0.33685,9.417039 -0.0403,10.542034 M 87.609781,17.741122 C 86.538076,8.1369639 68.901459,25.01345 75.819692,31.673286 c 2.024764,1.949138 6.474138,0.193264 8.454606,-0.879258 1.278531,-0.692393 2.45566,-1.558263 3.617643,-2.429291 M 48.836967,25.534625 c 12.555712,1.130853 6.61276,-6.264696 3.053332,0.480419 -0.881675,1.670775 -1.670898,3.562679 -1.501473,5.493098 0.478457,5.451526 7.466702,1.030769 8.726681,-1.831033 M 46.398333,20.413171 c -1.932141,2.076599 -3.119338,5.109023 -5.461735,6.789325 -2.918227,2.093369 -1.945736,-0.758861 0.816237,1.994193 1.687591,1.682143 3.944743,2.089545 6.247741,1.70413 M 38.246038,15.065106 c 0.141928,6.190999 1.214507,12.671687 0.70539,18.854198 m -6.419051,-9.816873 c -1.926147,0.642394 -9.868733,9.102799 -7.235287,11.076841 2.50637,1.878786 5.46958,-5.466935 5.864815,-6.889034 0.31697,-1.14049 0.724145,-2.264067 1.088316,-3.39013 0.05231,-0.161751 0.275201,-0.885277 0.282156,-0.797677 0.232619,2.929441 -1.999339,7.674882 1.541782,9.481486 M 17.920724,26.939625 c 4.441217,-0.505853 8.878472,-0.556761 13.341952,-0.462291 M 22.546068,17.6213 c -0.09374,6.637724 -0.09503,13.39762 0.191463,19.969133 M 21.558522,17.639429 c -2.948236,1.224897 -13.9791957,5.823484 -12.5055597,10.297293 0.751709,2.282111 9.5399167,3.794373 7.5980597,7.287873 -2.104014,3.785227 -11.7108877,2.36067 -9.5026137,-2.202678" />
    <path
       style="fill:none;stroke:#64648a;stroke-width:0.500783px;stroke-linecap:butt;stroke-linejoin:miter;stroke-miterlimit:4;stroke-dasharray:none;stroke-opacity:1"
       d="m 484.28864,272.76849 c -0.28459,0.15332 11.70821,-1.26471 12.41893,0 1.58545,5.76263 -0.84696,11.73272 -2.83079,18.0159"
       id="path18035"
       sodipodi:nodetypes="ccc" />
    <path
       style="fill:none;stroke:#64648a;stroke-width:0.500783px;stroke-linecap:butt;stroke-linejoin:miter;stroke-miterlimit:4;stroke-dasharray:none;stroke-opacity:1"
       d="m 511.95731,271.23054 c -0.22663,-1.46963 -10.70144,-0.32055 -10.41,1.42809 1.13703,-0.67115 6.35984,7.31852 5.97346,7.45148 -0.20773,0.0715 -0.40321,-2.61795 8.54574,-2.17853 5.84784,3.09975 -6.2723,13.83339 -8.09057,11.64505"
       id="path18037"
       sodipodi:nodetypes="ccscc" />
    <path
       style="fill:none;stroke:#64648a;stroke-width:0.500783px;stroke-linecap:butt;stroke-linejoin:miter;stroke-miterlimit:4;stroke-dasharray:none;stroke-opacity:1"
       d="m 524.19359,273.86701 c -0.92014,-2.13062 7.40516,-8.23953 10.13605,-1.75765 2.43037,11.44636 -13.14123,15.42976 -12.88259,16.03856 l 14.61761,0.0724"
       id="path18039"
       sodipodi:nodetypes="cccc" />
    <path
       style="fill:none;stroke:#64648a;stroke-width:0.500783px;stroke-linecap:butt;stroke-linejoin:miter;stroke-miterlimit:4;stroke-dasharray:none;stroke-opacity:1"
       d="m 542.3494,269.08596 2.93814,13.89886 4.74844,-2.19706 -0.83303,-11.53607 1.83748,19.55535"
       id="path18041"
       sodipodi:nodetypes="ccccc" />
    <path
       style="fill:none;stroke:#64648a;stroke-width:0.500783px;stroke-linecap:butt;stroke-linejoin:miter;stroke-miterlimit:4;stroke-dasharray:none;stroke-opacity:1"
       d="m 565.10308,272.87833 c -14.31167,-2.12513 -11.66998,15.13858 -3.01342,15.92871 6.65525,1.91926 9.52952,-16.32557 3.01342,-15.92871 z"
       id="path18043"
       sodipodi:nodetypes="ccc" />
  </g>
</svg>
