<?xml version="1.0" encoding="UTF-8" standalone="no"?>
<!-- Created with Inkscape (http://www.inkscape.org/) -->

<svg
   version="1.1"
   id="svg4273"
   width="1788"
   height="800"
   viewBox="0 0 1788 800"
   sodipodi:docname="KeeganG - Stake - Envelope4.svg"
   inkscape:version="1.2.1 (9c6d41e410, 2022-07-14)"
   xmlns:inkscape="http://www.inkscape.org/namespaces/inkscape"
   xmlns:sodipodi="http://sodipodi.sourceforge.net/DTD/sodipodi-0.dtd"
   xmlns="http://www.w3.org/2000/svg"
   xmlns:svg="http://www.w3.org/2000/svg">
  <defs
     id="defs4277" />
  <sodipodi:namedview
     id="namedview4275"
     pagecolor="#ffffff"
     bordercolor="#000000"
     borderopacity="0.25"
     inkscape:showpageshadow="2"
     inkscape:pageopacity="0.0"
     inkscape:pagecheckerboard="0"
     inkscape:deskcolor="#d1d1d1"
     showgrid="false"
     showguides="false"
     inkscape:zoom="0.92807765"
     inkscape:cx="502.11316"
     inkscape:cy="376.58487"
     inkscape:window-width="1920"
     inkscape:window-height="1058"
     inkscape:window-x="-6"
     inkscape:window-y="-6"
     inkscape:window-maximized="1"
     inkscape:current-layer="g4279" />
  <g
     inkscape:groupmode="layer"
     inkscape:label="Image"
     id="g4279">
    <path
       id="path4877"
       style="fill:none;stroke:#787475;stroke-width:1.20798"
       d="m 468.97063,467.22471 c -3.50303,5.86983 -7.36624,11.55252 -9.93397,17.92738 m -2.53764,-21.72721 c 3.64762,5.82148 6.20967,13.92095 11.46584,18.20576 m -41.2368,1.76768 c -2.3348,1.5666 -3.06495,4.24899 -3.88383,6.79236 m 19.41919,-24.41353 c 4.39125,0.84349 9.32371,0.0225 13.50834,0.90473 m -8.69609,-4.30091 c 0.97649,7.37012 2.1074,14.75012 1.17599,22.21437 m -46.25019,-14.6008 c -3.86244,0.0913 -5.60582,7.47438 -3.77553,10.35557 1.49957,2.36058 7.5349,3.67995 1.82587,5.17778 -2.16306,0.56751 -4.61265,-0.0621 -6.37507,-0.51499 m -6.81095,-11.70025 c -1.78351,0.12481 -2.9574,1.18109 -4.22426,2.28267 -1.32106,1.14873 -2.09949,2.38742 -3.12564,3.77199 -6.47679,8.73906 2.53647,10.75234 8.52588,-1.41971 0.24723,-0.50244 1.40906,-3.27004 0.78915,-3.82766 -1.0674,-0.96015 -0.62455,2.81321 -0.72725,4.24522 -0.22256,3.10301 0.12378,6.32104 0.12378,9.36734 m -16.52566,-22.10302 c 0.1719,7.35349 0.6068,14.73306 1.45451,22.0195 m -7.13327,-20.08479 c 0.64267,6.37541 -1.3529,13.73235 1.05219,19.86209 m -9.02103,-10.55043 c -0.16072,3.04841 -1.59628,12.5 2.41386,13.47338 m -3.29585,-11.27421 c -15.18247,-0.61697 -10.14402,20.81861 0.66537,2.99253 m -32.12292,-13.94661 c 16.13013,-2.40925 19.10614,17.89656 7.93788,25.61055 m -4.1933,-22.15869 c -0.13141,5.57564 -1.97409,12.85471 0.29399,18.21967 m 0.0942,-60.45999 c 0.3738,6.35427 0.37465,14.86651 0.0155,20.23789 m 4.99793,-19.58371 c 13.21376,-7.35675 1.86509,11.79113 1.46998,10.36949 -0.93805,-3.37522 14.78848,-9.11357 5.46213,3.99468 -0.8396,1.18008 -2.85278,2.90128 -3.46605,3.35443 m 11.18732,-19.80642 c 0.0951,5.09552 0.56441,10.37125 0.44873,15.36633 m 5.55497,-11.51083 c 0.0229,1.65395 -0.75145,3.18466 -0.77367,4.84373 -0.0317,2.36662 -0.30787,6.0514 2.72332,6.6671 8.96173,1.82029 9.69907,-17.30088 -2.33649,-12.9027 m 13.67855,-2.18525 c 0.53744,6.79729 -1.01544,13.45312 -1.39262,20.18222 m 37.35629,-13.31222 c 10.03642,-3.75255 2.65574,-22.36458 -2.86258,-11.31597 m 0.0774,-2.17132 c 3.03147,7.09374 3.10914,16.63138 1.5164,21.40707 m 10.69217,-16.14577 c -0.0216,1.11802 -0.0155,2.23627 -0.0155,3.35442 0,1.88812 0.0464,3.7758 0.0464,5.66494 0,7.65796 -0.91493,-7.23864 -0.0309,-9.01936 1.03127,-2.07745 3.23608,-1.90277 4.73487,-1.32229 m 1.60925,3.89725 c 1.60599,0.14433 3.22038,-0.0756 4.73488,-0.62634 6.76898,-2.46145 -2.32121,-4.08941 -3.15659,7.9337 -0.32172,4.6303 5.68101,1.74428 7.13327,0.11136 m 8.7425,-13.00014 c -2.60296,-1.37867 -3.7977,0.65637 -4.7194,2.86726 -1.76333,4.22976 9.30121,11.42732 2.5067,11.42732 -2.28244,0 -4.80436,-1.24692 -6.42149,-2.32444 m 9.84113,-7.79451 c 4.41107,-0.24169 8.74115,-1.87664 13.09055,-2.227 m -11.85268,-9.70139 c 1.74005,6.93438 1.14124,17.28275 4.085,23.09125 m 7.47368,-13.12541 c -0.60468,1.59548 -1.34878,3.13061 -2.04249,4.69063 -4.0289,9.06025 8.28442,7.66082 5.29192,-3.29875 -0.60344,-2.21 -1.34336,-2.65089 -3.55889,-2.19917 m 6.53282,3.66939 c -0.14564,3.03488 1.2843,5.93471 1.2843,9.06113 0,1.48963 -0.1647,-3.00073 0.0928,-4.46793 0.50462,-2.87483 0.25675,-8.63253 2.98638,-10.39732 3.09013,-1.99788 5.24617,5.42777 5.75613,7.14033 0.4539,1.52432 0.9499,2.991 1.31524,4.53752 m 46.0835,3.26259 c -1.2018,-6.35118 -1.12725,-13.01042 -2.89354,-19.33317 13.49382,-4.1826 14.75502,16.93043 3.62079,20.18222 m -21.94137,-14.07188 c -1.83536,-4.51984 7.59712,-13.92495 9.33049,-6.38872 1.41022,6.1312 -5.72475,10.57438 -5.67876,10.34165 1.17915,-5.96626 7.60086,6.31296 13.72497,2.92294 m -15.6282,-16.0901 c 1.11527,7.43626 2.61823,14.96555 3.12564,22.45098 m 54.81588,-21.42344 c -2.63053,1.08841 -5.08365,3.52998 -6.43697,6.04075 -3.55098,6.58804 6.73386,5.06545 9.31503,8.83842 1.15395,1.68675 -11.34694,8.57103 -10.86237,1.68417 m 18.20086,-14.82278 c 2.7695,-0.74283 5.61056,-1.18684 8.46399,-1.43364 m -5.87992,9.10288 c 2.53266,-1.38648 5.45005,-1.92329 8.21641,-2.63065 m -7.04043,-6.09642 c 2.08234,5.55692 1.2956,12.49108 2.89354,17.82994 2.51282,-1.01099 5.0019,-2.56563 7.14874,-4.18954 m -19.51204,-12.58257 c 1.34363,5.55862 0.6075,13.75777 3.41964,18.74858 m -5.97276,-17.80211 c 3.82648,-1.91341 8.32949,-1.70821 12.22404,-2.97862 m 110.47421,2.90565 c 2.98358,-0.26627 6.45649,-1.58392 9.11387,-1.72592 m -2.67694,-7.97546 c -0.082,6.65628 0.0435,13.68017 -0.2011,20.14047 m -7.22611,-19.52804 c 2.11494,2.18862 6.12792,0.71742 7.7986,0.62634 m -19.17162,2.38011 c 0.27825,-4.074 4.72962,-2.33678 5.33836,1.1831 0.21637,1.25122 -2.60011,14.5094 -3.41966,14.61471 -0.77161,0.0992 1.00447,-3.57814 2.01157,-3.98077 2.66052,-1.06364 3.21511,0.94429 5.47758,-1.93471 m -19.34185,-10.91232 c -1.76457,1.78359 -3.04954,3.9578 -3.76004,6.36088 -0.35279,1.19328 -0.62574,2.41204 -0.86647,3.6328 -2.37408,12.03663 11.86771,6.41585 5.89538,-4.32874 -0.91697,-1.6497 -1.78734,-2.49077 -3.38873,-1.7816 m -16.85059,-2.36619 c 5.11296,0.58669 10.32002,0.032 15.41157,0.0835 m -12.47159,-2.42186 c -10.11204,2.02865 6.33664,16.3787 5.91085,17.2036 -2.68967,5.21105 -10.74707,3.73408 -12.53351,0.23662 m -12.10227,-4.89126 c 2.69491,-1.38947 5.66082,-1.72932 8.52588,-2.47753 m -21.78665,-3.74416 c -0.44617,1.79018 -1.14233,3.52718 -1.20693,5.38657 -0.20971,6.03644 4.64035,14.80934 7.33443,4.10603 1.18243,-4.69767 -4.95304,-14.19178 -9.5626,-8.49044 m -3.52795,-0.2923 c 1.57076,4.61775 1.42068,9.43087 1.79492,14.21107 m -7.582,-19.37494 c 0.0826,6.95639 1.6413,13.84652 1.94966,20.78074 m -26.82124,-56.78735 c 0.34336,8.58824 1.46998,17.19412 1.46998,25.81932 m -0.86652,-15.88132 c -12.81824,5.75765 -9.83068,24.9255 0.60347,4.00861 m -24.22593,-0.094 c 1.71401,0.56184 3.73362,0.86822 5.52402,0.40365 7.07427,-1.83562 3.64308,-7.58033 -0.2321,-0.40365 -2.2045,4.08266 -4.79846,12.14788 2.30555,8.64356 M 541.32207,374.6479 c 2.51417,9.33246 2.96722,20.05616 2.5686,29.02064 m -4.67299,-15.82565 c 2.72767,-0.60095 5.67047,-0.18401 8.40209,-0.86296 m -11.26468,-4.95509 c -0.69342,2.54423 -0.45375,1.42424 -0.80462,3.34051 m 1.23788,6.86196 c 0.72087,4.16009 0.20565,8.44857 0.72725,12.62433 m -20.13098,-12.65217 c -0.0347,1.20997 0.31154,2.37476 0.51062,3.56321 0.3589,2.14248 0.78745,4.38217 0.85104,6.55574 0.018,0.61689 -0.6481,1.8512 -0.0309,1.8512 0.81715,0 -0.0387,-1.64321 0.0928,-2.44971 0.26933,-1.65179 1.09393,-11.02071 3.35775,-11.26029 2.69573,-0.28528 1.50767,10.03291 1.19145,11.45515 -0.0753,0.33891 -0.0341,1.35554 -0.15473,1.02999 -0.67456,-1.82034 3.11739,-13.41521 5.67876,-11.23245 2.17165,1.85064 1.82697,8.21584 3.34227,10.78705 m -19.52752,-20.51627 c 0.1916,1.08722 0.0489,1.90507 -0.12379,2.99253 m 1.64019,8.19817 c 0.37147,4.21849 0.45418,9.42339 0.68083,13.19499 m -16.81966,-4.5236 c 5.9512,0.54776 11.43552,-2.37125 15.70557,-6.27737 m -17.23744,-19.54195 c 0.40129,8.86888 3.77552,17.52279 3.77552,26.34823 m -34.73759,-13.4022 c -2.43507,0.3588 -3.86857,2.01005 -4.93603,4.0782 -2.92902,5.67479 2.26652,5.09366 4.39446,8.92194 3.25925,5.86355 -10.15794,0.46283 -10.83143,0.20877 m -6.97434,-7.49792 c 1.4365,1.64358 3.31359,2.0261 5.29193,1.01607 8.01055,-4.08972 -2.7445,-11.11536 -4.06953,3.1874 -0.38801,4.18841 2.67869,10.0377 6.25128,4.28698 m -14.10788,-13.09299 c -0.77853,1.64973 -1.52969,3.32424 -2.22817,5.01076 -0.41697,1.00675 -0.91966,1.98586 -1.68662,2.76983 -4.55467,4.65574 -1.70615,-3.97414 1.0522,-1.86511 3.42381,2.61782 4.48916,3.63018 9.00556,4.03644 m -14.94737,-19.18007 c 1.89649,7.69674 0.10724,19.27084 4.44088,26.26472 m -12.39424,-15.64469 c -2.66753,-0.38711 -4.13018,1.71534 -5.77161,3.43793 -1.08192,1.13542 -1.85484,2.62533 -2.39838,4.09212 -4.0859,11.02611 8.67621,2.00613 9.51618,-6.3052 0.0168,-0.16584 0.19982,-1.48931 -0.0928,-1.48931 -0.86149,0 0.31483,9.25099 0.68083,10.43907 m -21.32243,-7.22384 c 5.99428,-0.25359 11.92712,-0.97431 17.80995,-2.04605 m -16.57207,-12.69393 c 3.33443,8.13592 2.00681,17.38801 3.06374,25.94459 m -17.34576,1.07175 c 0.76,2.51078 12.14175,1.83602 9.20671,-1.68417 -2.20771,-2.64786 -7.59659,-1.35821 -5.61686,-7.05682 0.9419,-2.71126 4.29572,-3.47622 6.73096,-3.93901 m -19.2094,-1.49665 c 11.02228,-3.82556 11.21596,15.05197 1.84135,15.89524 m -0.85105,-13.5708 c 0.1306,9.94111 0.98478,19.8078 -0.13926,29.71658 m -14.87,-23.49489 c 2.08149,0.57603 4.66092,0.32554 6.43696,-1.02999 6.15821,-4.70015 0.59717,-8.60506 -1.81039,-1.48931 -2.05426,6.07152 1.28152,14.04139 7.86052,8.54612 m -22.48295,-5.84588 c 2.42267,-0.20891 4.59961,-0.92678 6.70002,-2.0739 5.18694,-2.8328 -1.28483,-9.60521 -3.65175,2.56106 -1.02105,5.24837 2.52717,8.19398 6.39055,3.71631 m -23.9684,-10.78705 c -0.0922,2.12185 0.10831,4.24308 0.10831,6.36088 0,21.54056 10.25437,-4.60847 7.42726,-5.45616 -0.1467,-0.044 -0.0774,4.73945 -0.0774,5.17779 0,1.76526 0.75082,8.48329 2.83164,9.32557 5.69857,2.3067 1.66583,-12.79308 0.0309,-14.7539 m -14.282,-8.79666 c -22.28847,7.32432 4.43367,17.82146 1.39261,20.94775 -4.0285,4.14142 -16.11947,4.17056 -12.25498,1.64242 m -41.66348,-139.4503 c -1.07997,0.99477 -1.70434,2.3132 -2.05798,3.73024 -1.8935,7.58721 5.61068,7.596 7.95336,1.40579 1.61922,-4.27855 -2.77325,-12.01344 -7.14874,-7.07073 m -10.53743,-2.3662 c -1.33326,1.37423 -1.70515,3.34016 -2.36744,5.09428 -0.51347,1.35998 -0.97935,2.6304 -1.14503,4.0782 -1.66865,14.58097 10.2885,0.17844 7.39631,-1.44756 -1.75131,-0.98459 -1.7346,6.97538 -0.13926,8.83843 M 265.53116,268.6336 c -0.65885,1.60976 -1.45485,3.1802 -2.01155,4.82981 -0.51457,1.52471 -0.92953,3.10147 -1.31525,4.66279 -3.2688,13.23166 13.4253,1.54021 8.40209,-8.85234 -1.05701,-2.18685 -2.9734,-2.31908 -4.98245,-1.73985 m -18.73838,7.36303 c 3.42923,-1.18313 7.23981,-2.08802 10.86238,-1.67025 m -11.85267,-6.68101 c 6.12276,0.53386 8.43037,-2.3614 8.20093,4.03645 -0.12832,3.57813 -0.76751,8.56257 -1.08314,11.28812 m -9.76376,-16.36847 c 0.41721,7.96363 -1.06965,15.87086 -1.28429,23.78717 m -2.46029,-24.49703 c -3.60718,9.50667 -10.82177,15.55925 5.01341,11.74744 m -35.5204,-14.03083 c 0.79622,6.65366 0.95083,13.35881 1.0522,20.0152 m -10.64575,-14.00229 c 2.83911,3.41043 5.14896,14.11414 10.97069,12.98622 M 199.26498,263.302 c 0.81116,5.75278 -0.57987,12.07622 -1.05219,17.35671 m -13.66308,-16.88347 c 4.64155,-1.54139 9.38249,0.53474 14.09633,0.65418 m -13.43097,18.26143 c 3.43875,-0.82184 7.77337,-0.24886 10.90879,-1.79552 m -6.82379,-18.13616 c 0.0712,6.14356 0.21097,12.27953 0.49515,18.41453 m -16.16977,0.70986 c -0.98346,2.03527 -2.33742,3.84 -3.96121,5.38657 M 145.18522,276.7197 c 0.38668,1.67587 0.79757,3.34361 1.26882,4.99684 0.22494,0.78912 0.2064,3.2426 0.35589,2.43578 0.59401,-3.20595 0.45827,-6.43495 1.64018,-9.57612 3.26794,-8.68513 6.37507,-1.20517 6.37507,3.67456 0,1.71203 -0.0155,3.42376 -0.0155,5.13603 M 140.43483,272.0569 c -0.64216,1.02953 -0.80538,2.1836 -1.09862,3.32659 -0.57038,2.22332 -1.51491,4.56885 -1.31524,6.90372 0.33459,3.91266 5.75008,-0.82531 6.31317,-2.10174 1.01079,-2.29126 1.06003,-12.07622 -3.0328,-7.55789 m -16.69392,7.79565 c 0.83328,2.9911 3.63209,3.28655 6.2358,2.21309 8.48277,-3.4973 -2.12421,-5.25815 -0.24758,-10.82881 0.79109,-2.34829 3.6775,-3.05589 5.55498,-2.88118 m -11.86815,-3.39619 c 0.84529,-0.0278 1.41707,0.53797 2.0425,0.84905 m -3.12564,5.02468 c -0.36628,4.30828 -0.0623,8.8986 -0.43326,13.06973 m -10.70764,-10.968 c 1.8599,20.68427 -3.57032,-1.32791 7.13327,-2.47754 m -14.42127,1.67026 c 0.1609,0.16408 0.24757,11.19072 0.24757,11.14893 0,-4.97412 -1.62292,-10.0763 4.44089,-10.6757 m -10.769525,0 c -5.67102,-5.06458 -12.714191,10.3674 -7.52011,10.27206 3.41587,-0.0627 5.82334,-6.5942 6.87022,-9.14464 0.50638,-1.23365 1.06767,-5.18903 1.06767,-3.8555 0,4.25333 -2.26867,8.96162 2.460275,11.00975 M 76.825354,275.5795 c 5.779407,-0.72536 11.709109,-2.53351 17.485011,-1.65633 m -8.943656,-8.47654 c 0.120647,6.22483 -0.187133,12.80844 -0.43326,18.85994 m -5.616865,-19.66723 c 0.276445,6.62431 -0.611546,14.89515 -1.562821,20.59979 m -29.501174,-8.51742 c 2.512935,-0.83765 5.21411,-1.53004 7.829574,-1.76769 m -4.255203,-5.73453 c 0.937293,5.3627 0.296042,11.50197 0.232102,16.56334 m -10.552905,-0.34797 c 12.422175,0.57763 2.386748,-4.43117 1.408086,-8.12856 -0.78995,-2.98444 2.598925,-6.45235 4.843195,-4.31482 m -17.918274,5.88764 c 2.103742,-0.12049 4.528734,-0.94526 6.235807,-2.28268 4.323116,-3.38698 -0.650812,-6.43649 -2.692384,-1.29445 -2.484211,6.25692 2.763937,9.96093 7.752207,6.22169 M 14.443095,269.08031 c 0.553488,3.13784 1.392612,6.28405 1.392612,9.49259 0,14.52989 5.490016,-6.23285 6.127492,-6.80627 1.110208,-0.99866 -0.372207,15.51955 2.135339,15.14362 2.438714,-0.36561 2.121771,-15.57202 5.694235,-17.60725 M 15.707954,234.75367 c 0.50375,-1.76888 2.079607,-2.76216 3.775526,-3.22915 7.051057,-1.94162 2.070583,18.40434 -4.966982,18.05265 -1.552931,-0.0776 -1.15718,-7.57143 1.717554,-7.23777 4.128572,0.4792 1.531767,6.86301 7.024954,5.19171 m 3.790999,-6.04075 c 3.644727,-0.64968 7.447502,-1.30975 11.15637,-1.11351 m -12.239512,-4.21738 c 2.053036,0.78828 4.96902,-0.99428 6.932113,-0.11135 0.877365,0.3946 -1.439651,14.50913 -1.903237,16.22929 m 7.891468,-14.90701 c 7.964213,-2.79694 9.649065,13.78529 1.949657,11.99798 -4.889846,-1.1351 -2.235289,-9.765 0.7582,-10.64786 m 14.715266,-3.54929 c -5.94806,-7.83914 -13.644737,12.84128 -3.12564,11.38556 1.891127,-0.26171 3.72207,-2.09902 5.462134,-2.76983 m -1.91871,-11.60826 c -0.740139,7.29641 -1.655588,15.24351 0.03095,22.47882 m 5.322875,-17.56549 c -1.07966,0.90707 -1.391267,2.22882 -1.810396,3.52145 -5.506377,16.98213 11.341609,2.41449 4.71941,-1.80944 -1.142919,-0.729 -1.888958,-0.92655 -3.00186,-0.20879 m 36.170672,-6.44483 c 0.23631,2.14473 0.11051,4.36082 0.47968,6.48616 0.49781,2.86585 -0.0385,9.71729 1.516395,12.165 2.35939,3.71409 7.54152,-19.31222 6.09655,-23.73151 m 12.88724,11.75147 c -3.07063,-9.1562 -16.82755,6.79651 -7.79862,8.42086 5.57808,1.00352 6.49317,-4.3684 7.79862,-8.42086 0.44339,-1.37637 1.67845,-5.53155 1.17599,-4.17563 -1.37442,3.70897 -2.73847,11.87456 2.33649,13.51513 m 5.70971,-22.38139 c 0.15476,7.17166 0.0341,14.32405 -0.0619,21.49059 m 4.58013,-17.17577 c -0.0231,6.32197 -0.44261,12.70242 -0.0774,19.02697 m 2.25912,-5.484 c 1.87548,0.0273 3.62132,-0.46097 5.21456,-1.46147 2.66562,-1.67394 4.03676,-7.78482 -0.61894,-4.88549 -3.9102,2.43507 -2.59453,10.93478 2.42933,10.64786 M 159.973,235.23181 c -4.34689,9.16563 -6.33472,19.58603 -12.1931,27.94889 m -2.24365,-22.93813 c -0.10106,5.59192 5.71223,6.30286 9.99586,5.98507 m 34.97515,-18.94846 c -2.19484,6.93247 -2.83165,15.59844 -2.83165,23.06341 m -11.20273,-17.8717 c -0.15638,7.56434 4.03648,13.51237 10.97069,15.89523 m 6.94759,-15.44983 c 0.72857,0.4919 1.33807,0.89742 1.99607,1.48931 m -1.17598,6.33304 c -0.9421,2.62813 -0.9719,5.90994 -0.86651,8.58788 m 10.56837,-12.16501 c -14.15692,7.07804 -1.4216,6.6286 -0.10831,10.36949 1.11754,3.18331 -3.08734,3.69823 -4.76583,2.4497 m 4.65751,-7.54397 c 5.24109,0.68609 10.70799,-1.5036 15.84483,-0.59851 m -14.23558,-10.6757 c 1.0996,6.97086 3.15937,13.74982 3.24942,20.87816 m 11.15637,-11.70569 c -2.2993,-4.63938 -9.91038,8.39678 -7.70578,10.04936 2.43331,1.82402 7.70789,-7.10425 8.43304,-9.06112 0.14211,-0.38351 -0.74543,-1.39683 -0.72726,-0.98824 0.14109,3.17268 1.02764,6.86706 1.31525,10.2303 m 51.03149,-15.12971 c 0.20396,0.67946 0.12788,1.33157 0.10831,2.01823 m -12.37877,-0.72378 c -0.68644,17.73925 -3.43347,0.0917 5.16814,-1.55891 m -17.54955,10.20752 c -0.0795,-5.43507 -0.85755,-10.75867 -1.46998,-16.14577 2.2369,-2.26409 5.55463,-3.09021 8.3402,-1.21094 9.28872,6.26658 -2.73544,22.11047 -3.24943,16.71645 m -39.87513,-41.03254 c 2.77628,-0.0357 5.53326,-0.28603 8.30926,-0.33406 m -5.46214,-12.98621 c 0.84323,8.80654 1.01649,17.71124 0.77368,26.55702 m -10.04481,-17.6757 c 0.61305,-0.40759 1.1491,-0.36919 1.8104,-0.45932 m 0.60346,3.99469 c 0.0642,3.05542 -1.00026,7.6294 0.89746,9.77098 m -8.99008,-9.26991 c -1.02997,-2.38633 -3.26077,-0.75891 -4.42541,0.7377 -4.21234,5.41301 -2.53895,13.52795 3.0328,5.24738 2.51353,-3.73555 1.68856,-7.61001 2.19723,-11.8588 0.0902,-0.75362 1.36865,-5.619 0.66536,-6.04075 -0.1,-0.0599 -0.96488,7.62452 -0.9903,8.3791 -0.11078,3.28824 -1.05447,12.50129 3.29585,14.12756 m -20.39403,-8.93585 c 1.80946,-0.69693 3.78756,-1.05192 5.50855,-1.96255 4.7857,-2.53227 0.53864,-5.09103 -2.33649,0.18094 -3.38508,6.20704 2.35191,9.96463 7.96883,6.98723 m -15.36515,-6.63926 c -0.19246,18.52804 -2.06227,-2.82568 5.97276,-4.41225 m -8.01526,-1.1135 c 0.27317,-10.74509 -20.48611,3.95769 -8.40209,11.48299 2.95662,1.84123 6.11266,2.24649 9.16029,0.6681 m -50.80604,-13.57815 c -0.17936,2.00441 0.23696,3.95528 0.49515,5.9294 0.48723,3.72532 0.75821,7.31033 0.75821,11.06543 0,0.87906 -1.06475,2.63065 -0.18569,2.63065 0.0809,0 4.02762,-10.50365 5.47761,-11.76137 2.7891,-2.41926 3.64267,2.62394 3.82195,4.32874 0.15819,1.50437 0.1702,3.03958 0.1702,4.55144 0,1.36122 -0.17388,2.69719 -0.12378,4.06428 m -11.69794,-15.81173 c -4.37746,-0.35323 -5.67742,7.51812 -2.95544,10.28598 1.00371,1.02062 2.81417,0.8432 4.00763,1.5589 0.31515,0.18899 -3.98973,4.50918 -7.44274,1.92079 m -3.35774,-10.02152 c -4.33924,-3.94646 -8.61835,9.2808 -5.70971,10.68962 2.55193,1.23605 5.02398,-5.22975 5.52403,-7.02898 0.32716,-1.17716 0.21963,-4.88195 0.18568,-3.66064 -0.12249,4.4074 -1.11544,7.30331 3.20301,9.67355 m -14.35938,-12.98621 c -2.34957,-8.81742 -15.297343,2.93971 -9.005555,10.21638 1.98888,2.30019 7.025615,2.17435 9.701865,1.43363 1.75697,-0.48629 3.29718,-1.16924 4.85867,-2.0739 m -49.722182,-0.82653 c 1.590348,0.84018 3.231045,0.41018 4.905091,0.26445 0.444319,-0.0387 3.870952,-1.74506 2.847119,-2.43578 -4.6646,-3.14694 -9.297116,14.81844 0.54157,7.79451 M 55.220527,204.79389 c 0.07336,1.63109 -0.835072,2.89428 -1.640187,4.23131 -3.727234,6.18967 -2.270066,-1.44933 0.665359,4.16171 1.169316,2.23514 2.603514,3.5564 5.152664,3.89726 M 48.799038,197.70924 c 1.314173,6.89147 0.335013,16.08498 4.131416,21.85247 m -7.752207,-12.80527 c -3.785964,-1.03901 -13.429006,8.55659 -9.578076,11.70569 3.044354,2.48952 8.361377,-3.64777 9.516182,-5.87372 1.366902,-2.63478 0.225542,-6.12638 0.0619,-5.83197 -0.864379,1.55506 -0.120341,10.39785 1.16051,12.31811 m -21.229602,-9.39517 c 3.91472,-1.40636 10.100207,-2.14232 13.864226,-0.70986 m -10.227961,-9.57611 c 0.04593,7.39916 0.472122,14.90974 1.469979,22.27004 M 24.660431,200.2007 c -0.492968,-5.37871 -12.452429,6.38147 -10.460064,9.96584 0.802972,1.44458 14.050536,6.34583 13.245288,7.79451 -1.584511,2.85062 -12.595388,5.97147 -12.781084,1.6285" />
    <path
       style="fill:none;stroke:#64648a;stroke-width:0.500783px;stroke-linecap:butt;stroke-linejoin:miter;stroke-miterlimit:4;stroke-dasharray:none;stroke-opacity:1"
       d="m 484.5861,459.86875 c -0.28459,1.29731 15.47945,0.67069 16.19017,0 -2.91906,5.44089 -3.80005,8.30855 -3.10016,14.78342"
       id="path18035"
       sodipodi:nodetypes="ccc" />
    <path
       style="fill:none;stroke:#64648a;stroke-width:0.500783px;stroke-linecap:butt;stroke-linejoin:miter;stroke-miterlimit:4;stroke-dasharray:none;stroke-opacity:1"
       d="m 516.02601,458.3308 c -0.22663,-1.46963 -10.70144,-0.32054 -10.41,1.42809 1.13703,-0.67115 5.40874,10.7425 5.02236,10.87545 -0.20773,0.0715 0.54789,-6.04192 9.49684,-5.6025 5.84784,3.09975 0.26589,13.61306 -1.55238,11.42472"
       id="path18037"
       sodipodi:nodetypes="ccscc" />
    <path
       style="fill:none;stroke:#64648a;stroke-width:0.500783px;stroke-linecap:butt;stroke-linejoin:miter;stroke-miterlimit:4;stroke-dasharray:none;stroke-opacity:1"
       d="m 528.26229,460.96727 c -0.81916,-3.54428 7.78889,-13.61172 10.13605,-1.75765 -3.58968,8.637 -9.45828,14.92924 -8.12708,16.03857 l 7.97648,-2.31745"
       id="path18039"
       sodipodi:nodetypes="cccc" />
    <path
       style="fill:none;stroke:#64648a;stroke-width:0.500783px;stroke-linecap:butt;stroke-linejoin:miter;stroke-miterlimit:4;stroke-dasharray:none;stroke-opacity:1"
       d="m 546.71437,458.31266 -1.12937,10.69493 8.51968,-1.11957 -0.80112,-14.46476 1.80557,22.48404"
       id="path18041"
       sodipodi:nodetypes="ccccc" />
    <path
       style="fill:none;stroke:#64648a;stroke-width:0.500783px;stroke-linecap:butt;stroke-linejoin:miter;stroke-miterlimit:4;stroke-dasharray:none;stroke-opacity:1"
       d="m 569.17178,459.9786 c -4.22655,2.19705 -5.96375,17.5841 2.64343,18.35308 6.65525,1.91926 3.87267,-18.74994 -2.64343,-18.35308 z"
       id="path18043"
       sodipodi:nodetypes="ccc" />
  </g>
</svg>
