<?xml version="1.0" encoding="UTF-8" standalone="no"?>
<!-- Created with Inkscape (http://www.inkscape.org/) -->

<svg
   version="1.1"
   id="svg59"
   width="3000"
   height="1998.207"
   viewBox="0 0 3000.0001 1998.207"
   sodipodi:docname="KeeganG - Stake - Envelope47.svg"
   inkscape:version="1.2.1 (9c6d41e410, 2022-07-14)"
   xmlns:inkscape="http://www.inkscape.org/namespaces/inkscape"
   xmlns:sodipodi="http://sodipodi.sourceforge.net/DTD/sodipodi-0.dtd"
   xmlns="http://www.w3.org/2000/svg"
   xmlns:svg="http://www.w3.org/2000/svg">
  <defs
     id="defs63" />
  <sodipodi:namedview
     id="namedview61"
     pagecolor="#ffffff"
     bordercolor="#000000"
     borderopacity="0.25"
     inkscape:showpageshadow="2"
     inkscape:pageopacity="0.0"
     inkscape:pagecheckerboard="0"
     inkscape:deskcolor="#d1d1d1"
     showgrid="false"
     inkscape:zoom="1.4116864"
     inkscape:cx="743.08286"
     inkscape:cy="316.99674"
     inkscape:window-width="1280"
     inkscape:window-height="658"
     inkscape:window-x="-6"
     inkscape:window-y="-6"
     inkscape:window-maximized="1"
     inkscape:current-layer="g65" />
  <g
     inkscape:groupmode="layer"
     inkscape:label="Image"
     id="g65">
    <path
       style="fill:none;stroke:#8e868d;stroke-width:0.816825"
       d="M 104.23891,7.0097693 103.85604,23.011398 M 42.160066,7.826596 42.976892,16.811692 V 30.697749 M 23.373047,8.6434227 c 0.710226,5.9727663 0.730158,11.9671693 0.816827,17.9701923 m 121.707206,0.816826 c -8.33327,5.92126 -8.50806,-6.185666 -5.44578,-11.435576 2.35001,-4.028264 6.7135,-10.8107039 8.71309,-4.084135 m 22.05433,-3.2673073 c 0,5.4871983 0.72596,14.4985963 0.96112,18.4553193 -13.2647,5.053559 -6.24634,-9.09989 -0.57316,-9.059617 m 13.49809,-9.3957023 2.16982,20.7791413 M 7.8533363,29.064095 c 4.6303467,0 11.3242597,0.0016 11.4355757,-4.900961 0.06893,-3.035928 -5.016787,-0.98101 -7.351441,-2.722729 -4.9552806,-3.696877 1.354707,-10.13674 4.900961,-11.163328 M 82.184586,26.613615 C 74.848662,31.053804 72.454542,21.30718 75.921972,15.994865 78.535,11.992086 82.30466,9.946507 86.268717,11.093904 m 91.484613,0 1.63365,0.816826 M 47.877854,15.178038 43.252331,21.820789 M 154.88218,15.178038 c -1.49971,1.237013 -2.99942,2.714993 -4.49913,5.342989 m -50.22827,-3.709335 c -3.552282,4.327265 3.67288,8.684987 2.71856,9.42535 l -6.8027,5.277533 m 7.96073,-12.303502 c 2.20053,-7.400779 7.84732,2.081813 8.37581,4.952061 m 66.9798,-6.534616 v 7.351443 m 4.08414,-6.534615 8.98509,-0.816828 M 20.922566,20.078999 c 3.543886,-0.279763 4.417482,-0.816827 7.351443,-0.816827 m 23.362504,4.78618 c 2.758224,-1.537979 6.50912,-1.378244 5.226434,-3.969353 -4.353586,-5.057878 -9.82559,13.178684 -0.816825,7.351442 m 37.163257,-1.608103 c -3.995791,2.693467 -10.276465,-3.414541 -1.581761,-6.667083 0.208046,-0.104133 1.360452,6.392927 2.992141,9.433599 m 55.361461,-9.326682 1.63365,8.168269 m 11.0111,-0.801116 c -9.67283,-0.559062 -7.51937,-12.524217 -0.39235,-9.817633 -1.79761,2.723534 -4.02483,2.869399 -6.10136,3.919381 M 35.724505,24.986252 c -1.358105,1.123297 -1.92348,3.039323 -4.183189,3.261016 -3.718676,0.364827 -3.040873,-7.109024 2.391517,-7.921019 l 2.997653,8.185955 m 6.249517,-6.451785 c -0.169058,5.01167 3.7763,4.921992 6.335892,5.907024 m 160.910515,11.715401 0.0384,17.662975 -0.0384,5.208179 m -20.42068,-20.420673 -4.90096,18.787017 c -5.11987,-3.218376 -7.20033,-12.215561 -7.35144,-17.97019 m 79.22592,5.717786 c -0.4223,-4.341106 -4.97308,-5.633816 -9.14154,-5.603005 l 1.87618,17.552345 c 2.2111,-3.838788 7.62722,-8.23065 7.26536,-11.94934 z m -62.07256,-4.900959 0.81683,0.816827 m -75.9649,0 c -0.15928,6.048033 -0.81682,9.801839 -0.81682,16.336536 m 5.71778,-15.51971 c 2.41618,5.738861 -0.81682,15.803475 -0.81682,20.42067 M 54.060314,53.794656 c -8.788619,2.422031 -5.387096,-9.273643 1.083137,-7.872733 l -1.54781,15.81525 M 100.9716,46.217457 c 0.69458,8.794218 -1.476064,9.629403 -5.372568,16.225852 L 90.835788,48.191944 m 21.564452,9.219628 c -10.95274,3.433644 -9.06922,-5.283378 -0.80989,-6.884221 l 1.58398,11.333669 M 11.120643,50.301594 c 17.098795,-9.889775 -0.742028,20.730135 -1.6336529,6.534617 l 10.8074209,4.023598 m 2.388205,-12.295618 8.041873,-0.713078 -0.816827,13.88606 m 169.899988,1.633649 c 1.74312,0.596202 6.66695,0.154466 5.30938,-3.267305 -0.76046,-1.916521 -3.91505,-2.535837 -5.17296,-4.084137 -3.40046,-4.184355 1.16234,-7.0671 4.76455,-7.351442 m 53.09375,7.351442 c -0.1901,-6.139312 1.90136,-7.926165 5.71778,-5.717786 M 39.709585,60.920342 c -4.175334,0.845005 -5.378876,-9.104835 -1.225241,-9.801923 3.797482,-0.637309 6.646973,8.704677 1.225241,9.801923 z M 141.81295,74.8064 c 4.7621,-6.96018 2.52889,-19.363452 9.80192,-23.687981 m -22.46274,5.853953 c 1.91137,-2.730405 9.40586,-0.950541 6.1262,-4.220297 -6.0339,-6.015679 -9.51362,8.872088 -0.49425,10.580391 m 71.19727,-9.456705 9.83772,-2.554228 m 7.27473,8.11859 c -1.90802,1.54855 -4.23112,2.785792 -7.76643,3.113875 -4.40837,0.409101 1.35868,-12.531881 6.61352,-10.365957 l 1.93832,11.444346 M 60.130259,60.103517 c 5.95405,1.703023 7.366783,-4.413512 0.306855,-6.943027 -2.298043,-0.823374 -4.742311,5.674364 -0.306855,6.943027 z M 22.55622,53.568899 34.235101,53.415469 m 159.854769,0.15343 v 5.717793 m -54.99863,-5.271241 6.19027,8.902535 M 40.526412,75.623225 42.262265,94.353628 M 65.848046,78.890537 v 8.168267 l -0.816825,11.435573 m 8.168267,-17.153359 0.272004,7.351436 -0.272004,9.801923 m 36.757212,-17.153359 1.63365,0.816825 m -92.301438,0 c -0.951194,5.163163 0.390689,10.825403 -2.45048,15.519709 l -4.084134,-5.717786 c -1.788771,2.564483 -3.7345876,4.460695 -4.9009617,5.717786 L 5.4028555,82.974668 m 111.9052845,0 c -6.98632,6.98632 9.19199,8.870152 1.63366,13.069228 l -7.35145,4.084134 m 49.82644,-17.153362 h 13.88606 M 23.373047,88.692454 c 2.818216,-0.593017 6.492761,-1.287654 4.900962,-4.084131 -3.669627,-6.446804 -9.959281,10.938885 2.892507,11.221144 M 139.14548,82.760839 c 0,5.218703 -0.7769,6.375605 -1.63365,11.435572 l -6.70207,-7.853215 0.35417,9.233326 m -92.539254,-10.259863 7.17927,-0.708336 m 142.568134,0 c 0,5.752093 1.70791,11.472845 0.33389,17.902247 -2.67388,-3.83283 -5.32253,-13.600189 -9.11588,-14.792758 l 1.02433,15.383828 m 48.599,-17.676492 6.39821,-0.408409 0.95324,15.928121 M 221.04516,85.425148 c -0.6698,1.816621 -2.95447,4.749847 -2.5869,6.534618 0.37575,1.824787 6.91356,2.042843 6.91356,2.042843 m 28.4612,5.356548 c 0.0449,-3.512525 1.22907,-6.148721 3.15252,-8.216222 3.21887,-3.45992 4.17291,10.047385 -2.45048,8.576682 -5.02753,-1.116341 -4.79722,-11.719014 -0.81683,-14.294469 m -241.42422,-0.410602 0.460288,6.94522 m 23.374184,-6.588681 c -7.74301,1.105546 6.021999,8.686807 1.376476,9.81763 l -3.513161,0.855181 M 97.589221,86.368375 97.474152,96.63497 m 0.149045,-8.69395 c 1.916398,-0.855971 3.832803,-2.432837 5.749203,-0.882216 m 4.95064,0 -0.81682,9.801923 m 15.65612,-3.675721 c -3.52257,-2.222182 2.28199,-8.439921 5.58138,-3.675721 1.37375,1.983639 -3.29672,5.168064 -5.58138,3.675721 z M 85.652451,92.618773 c -1.616502,0.808659 -9.529539,4.056532 -8.913654,0.974642 0.899706,-7.900754 10.929953,-13.002777 8.505594,3.20722 m 7.671463,-8.745465 c -5.469749,-4.322501 -6.32822,5.346624 -4.936769,9.434981 m 155.120395,-8.25287 c 6.19155,-2.167045 3.66516,10.532902 0,10.073927 -3.05334,-0.382361 -2.82132,-9.086383 0,-10.073927 z M 65.241264,89.585997 76.958501,88.627069 m 91.426159,-5.485095 0.53701,18.073216 m 95.2789,-5.171294 c -0.83398,-2.253621 -1.15581,-7.250152 2.5869,-5.854198 4.03267,1.504595 3.21721,8.912349 -0.81684,9.12151 -1.51379,0.07849 -1.26199,-1.895858 -1.77006,-3.267312 z m -34.17032,-4.08413 8.30783,-1.227434 m -83.4559,5.311564 -2.45048,4.084134 m 73.51442,1.63366 c -0.65151,-5.396083 -0.70621,-10.875639 -0.81683,-16.336542 m -62.62024,15.826572 12.31087,-0.0767 m 345.18388,67.56649 c -0.27796,8.46281 0.29485,16.88357 0.81682,25.32163 m 21.2375,-24.5048 c 1.2736,8.26851 1.7333,16.2566 0.81683,24.5048 m -71.88077,-22.87115 0.95324,9.80193 0.68042,6.53461 0.95324,6.94303 7.21503,-1.22524 m -69.43029,-21.2375 c -1.32326,4.5726 -0.0645,6.81805 0,11.43558 0.0515,3.71165 0,6.75679 0,10.61874 m 75.14808,-22.05432 0.81682,1.63365 m 21.2375,-1.63365 0.81683,0.81682 m -116.80625,4.08414 c -0.59338,6.64862 0.63215,13.0676 1.63366,19.60385 m -69.43029,-17.15337 c -4.03921,2.87033 -11.89708,7.99592 -6.53462,12.93282 2.07148,1.90729 10.88994,4.17317 9.39352,8.30468 -1.94813,5.37636 -11.90281,3.26731 -15.92813,3.26731 M 524.90476,186.7117 c 1.84851,-1.1107 3.87828,-2.00996 4.90096,-4.08413 -9.20027,-1.36866 -3.99058,12.02824 1.92257,9.93124 M 543.1273,180.6142 c -14.43498,2.37792 -12.04776,15.44358 0.37972,10.34438 m -99.46812,-8.33101 c -2.2618,1.6067 -6.19972,3.98611 -4.49255,7.35144 1.75291,3.456 6.2087,2.45947 3.67572,6.53462 h -6.03068 m 54.22347,-6.53462 c -1.74229,-6.01838 2.8205,-9.44415 5.71779,-4.08413 0,0 2.57959,-2.95733 4.08413,-2.45048 2.77904,0.93619 3.26731,8.16826 3.26731,8.16826 m -88.21731,-8.16826 -4.74059,4.99338 m 75.80453,-4.99338 v 9.80192 m -107.00432,5.71779 c 1.71942,1.22197 7.89627,3.19379 7.89627,-0.81683 0,-2.49051 -4.71228,-4.18624 -5.8542,-6.53462 -1.76843,-3.63814 1.69002,-5.94486 4.49254,-6.53461 m 124.97452,0 v 8.16827 m -81.68269,-0.81683 c -12.42345,7.84817 -9.41985,-10.80937 -0.81683,-5.71779 2.41746,1.43074 -8.29485,4.84647 -7.35144,4.08414 m 75.14808,-4.90096 v 4.90096 m 19.60384,-4.90096 h 5.8137 m -176.53052,8.16826 c -0.83071,-3.50745 2.3638,-9.63756 4.90096,-5.71778 1.95266,3.01674 -2.43986,3.71003 -4.90096,5.71778 z m 10.61875,-1.63365 c 4.44175,0.0129 4.66139,-2.53759 6.53462,-4.08413 -8.80057,-4.18007 -9.78419,13.29118 1.54999,6.95215 m 24.58847,-6.95215 7.35144,-0.81683 m 10.10878,9.54913 -1.83676,-9.7601 c -5.11719,-0.2252 -8.58799,11.23924 -5.00472,9.19607 l 5.97935,-3.40942 m -36.20194,14.84499 -1.76927,-21.25833 c 8.36889,0.29636 8.91816,8.04772 0.70009,10.46741 m -27.51976,-5.54562 -0.81683,8.16827 -4.08413,-2.45048 -3.26731,3.26731 -1.63365,-7.35144 m 4.90096,-0.81683 v 4.90096 M 411.53751,188.49 c 1.7321,2.65488 3.24361,5.78773 5.5461,7.20678 m -71.06394,-1.63366 c -0.24973,5.08706 5.70192,2.91926 7.66433,2.89075 m 296.19523,9.36166 c 1.65573,-2.5583 3.71738,-3.00674 5.30939,0 1.83235,5.25777 1.03674,12.55955 -3.67572,13.88606 -4.60899,1.29737 -1.37435,-3.10332 0.10378,-4.33693 0.66102,-0.55169 15.68375,2.96484 15.68375,2.96484 m -5.1688,-14.14763 c 2.2953,0 6.98553,-0.93363 8.84869,0.40842 3.43643,2.47417 1.7701,13.1697 1.7701,17.56178 m -46.55913,-2.45048 c 1.54705,1.50622 9.85418,6.05677 8.71305,0 -0.66567,-3.5336 -4.98998,-6.17113 -6.67101,-8.9851 -2.50359,-4.19196 0.7368,-5.71779 4.49253,-5.71779 h 4.90096 m 4.08416,13.06923 c -5.15447,-0.41289 -4.57995,-10.7095 0,-12.2524 5.6037,-1.88778 4.61726,12.62226 0,12.2524 z m -59.62834,-10.61875 c 0,4.4321 0.36757,11.68062 2.45048,16.33654 m 3.26731,-16.33654 c 0,3.97795 0.71472,11.52707 1.63365,14.70289 m 5.03738,-12.66082 c 5.24648,-2.77231 10.60895,8.95324 4.76455,12.2524 -4.62079,2.60813 -9.22361,-9.89667 -4.76455,-12.2524 m 69.29385,1.22524 16.20509,-1.17776 m -127.29353,8.5292 -5.71778,0.81683 c -2.21605,-5.262 0.76128,-6.43823 5.71778,-7.35145 m -26.95529,1.63366 c -2.83683,3.59322 -4.32591,7.21177 0,10.34674 1.50378,1.08965 4.62896,1.41067 4.62896,3.53931 0,2.72412 -4.99408,3.10231 -7.07944,3.26732 m 8.16828,-17.15337 h 8.98509 m -65.85611,18.7914 -2.03294,-16.29124 c 8.10114,-4.25005 13.93735,5.81742 0.85079,7.30176 m -52.21847,-6.53461 c -0.26474,6.89812 1.34581,13.64776 2.45049,20.42067 m 64.80132,-17.15336 c 18.99991,-6.00985 14.17631,9.38418 2.58032,16.26421 -1.3273,-5.47228 -2.58032,-16.26421 -2.58032,-16.26421 z m 123.06887,-2.45048 h 5.71775 m -81.51678,-4.28225 2.2846,14.90099 m 8.9851,-8.98509 c 0.19032,2.408 -0.75149,4.39534 1.77006,6.1262 1.57403,1.08066 3.72228,-0.0662 5.58138,-0.40842 m -164.99903,18.78702 -3.10475,-23.73985 c 9.43174,-5.07292 10.37445,8.07641 1.64278,11.66792 m 8.3217,-5.58701 c 2.61952,-3.66218 3.96194,-2.64163 5.39267,-1.9449 m 2.54713,5.08984 c 1.84124,0.23424 7.53851,-2.1496 6.43797,-4.27302 -1.5947,-3.07686 -4.37355,-0.25897 -6.11624,2.93982 -1.75916,3.22899 0.21161,6.90566 5.40316,6.86211 m 6.91818,-11.43558 c -5.65951,3.1198 0.36989,3.69459 2.80264,9.92832 1.51344,3.87809 -2.6953,3.43007 -5.74044,1.50726 m -61.26202,-10.61875 c 0.33707,4.26449 0.14773,10.7537 1.1237,14.65759 m -11.19762,-3.22201 c -2.52236,-7.26323 6.27433,-9.98349 7.4554,-2.20683 0.71832,4.72965 -4.89628,9.57705 -7.4554,2.20683 z m 90.12296,-1.08884 c -4.21156,0 -3.88588,-8.93277 -1.63365,-9.52992 3.46128,-0.91771 6.8009,9.52992 1.63365,9.52992 z m 6.61133,0.0733 c -5.54824,-14.98964 6.97889,-13.54926 4.82425,0.19873 m -25.32164,-8.16827 5.79889,-0.20311 m -28.3135,-0.94761 0.46029,6.05168 m -80.04904,-3.26731 c 4.08087,-1.18113 8.9851,-2.20706 8.9851,4.08414 5.62467,0.60771 0.92628,7.28936 0.81683,11.43557 m -12.25241,-15.51971 c 0,6.16296 1.24158,12.99981 1.63365,17.97019 m 19.60385,-17.97019 v 9.80193 m 138.54494,-14.35512 9.30073,7.00368 m -157.5822,1.72169 -3.90806,4.23756 m 23.44651,23.44651 c 0,6.73964 0.69022,15.29917 1.63366,20.42067 m 56.35228,-16.28247 c 3.21503,-1.94568 15.98081,-5.13542 18.90832,-5.2122 m -71.9933,1.89083 1.71037,16.90057 m 81.60598,-16.90057 c -2.35092,6.84224 -4.87686,13.62254 -7.35144,20.42067 m -2.45048,-16.33653 14.70288,11.43557 m -26.08878,-15.47881 3.21763,20.37977 m -44.10865,-13.88605 c -5.93949,4.41805 1.54615,6.63684 2.31406,12.2524 -0.47947,2.96671 -3.26485,2.84092 -5.58137,3.26731 m -5.12233,-6.8729 -6.51636,5.85296 c -3.81311,-3.43539 -1.11571,-13.39925 4.77457,-11.98829 l 3.9307,12.88622 m -26.47235,1.75566 0.375,-11.84242 c -4.03409,-2.34984 -6.51965,1.51733 -8.97999,5.51692 -0.69321,4.72781 5.58472,4.94744 9.07747,2.5574 m -20.27443,5.88053 -3.66276,-22.66715 c 4.19506,-0.0687 11.8821,-0.5815 14.20761,2.58453 4.6365,9.50366 -5.62166,15.79132 -10.54485,20.08262 z m 71.26204,-4.56291 -3.26731,6.53461"
       id="path177"
       sodipodi:nodetypes="ccccccccccccccccsccccccccccccscccccccccccccccccccccscccccccccccccccccccccccccccccccccccccccccssscccsccccsccsssccccccccccccccccccccccsccccsccccccccccccccccccssccccsccccccccscccccccscccccccsccccccccccccccccccccccccccccccccccccccccccsccccccscccccsccccccsccccccccscccccccccccccccccsscccccscscssscccccccccccccssccccccccccccccccccccccccssccsccccscssscccccccccccccccccccccccccccccccccccccccccccccc" />
    <path
       style="fill:none;stroke:#64648a;stroke-width:0.500783px;stroke-linecap:butt;stroke-linejoin:miter;stroke-miterlimit:4;stroke-dasharray:none;stroke-opacity:1"
       d="m 467.57748,260.46929 c -0.28459,0.15332 5.04567,-0.97918 5.75639,0.28553 1.58545,5.76263 0.20001,7.35448 -1.78382,13.63766"
       id="path18035"
       sodipodi:nodetypes="ccc" />
    <path
       style="fill:none;stroke:#64648a;stroke-width:0.500783px;stroke-linecap:butt;stroke-linejoin:miter;stroke-miterlimit:4;stroke-dasharray:none;stroke-opacity:1"
       d="m 483.91984,259.88312 c -0.22663,-1.46963 -6.03767,-0.9868 -5.74623,0.76184 1.13703,-0.67115 5.40874,10.74249 5.02236,10.87545 -0.20773,0.0715 0.54789,-6.04192 9.49684,-5.6025 5.84784,3.09975 -4.55646,11.92912 -6.37473,9.74078"
       id="path18037"
       sodipodi:nodetypes="ccscc" />
    <path
       style="fill:none;stroke:#64648a;stroke-width:0.500783px;stroke-linecap:butt;stroke-linejoin:miter;stroke-miterlimit:4;stroke-dasharray:none;stroke-opacity:1"
       d="m 500.81989,261.85334 c -0.91968,-2.13025 11.3495,-5.08406 10.13605,-1.75765 2.43037,11.44636 -8.38572,15.42976 -8.12708,16.03856 4.4515,1.35457 7.14174,0.69627 9.8621,0.0724"
       id="path18039"
       sodipodi:nodetypes="cccc" />
    <path
       style="fill:none;stroke:#64648a;stroke-width:0.500783px;stroke-linecap:butt;stroke-linejoin:miter;stroke-miterlimit:4;stroke-dasharray:none;stroke-opacity:1"
       d="m 520.49801,263.25617 1.41583,7.71498 4.74844,-2.19706 -0.26237,-4.49792 1.26682,12.5172"
       id="path18041"
       sodipodi:nodetypes="ccccc" />
    <path
       style="fill:none;stroke:#64648a;stroke-width:0.500783px;stroke-linecap:butt;stroke-linejoin:miter;stroke-miterlimit:4;stroke-dasharray:none;stroke-opacity:1"
       d="m 541.72938,260.86466 c -13.97201,-0.40173 -12.04025,15.04783 -3.01342,15.92871 6.65525,1.91926 9.52952,-16.32557 3.01342,-15.92871 z"
       id="path18043"
       sodipodi:nodetypes="ccc" />
  </g>
</svg>
