<?xml version="1.0" encoding="UTF-8" standalone="no"?>
<!-- Created with Inkscape (http://www.inkscape.org/) -->

<svg
   width="210mm"
   height="297mm"
   viewBox="0 0 210 297"
   version="1.1"
   id="svg5"
   inkscape:version="1.1 (c68e22c387, 2021-05-23)"
   sodipodi:docname="Casey - Pulsz - Envelope 79.svg"
   xmlns:inkscape="http://www.inkscape.org/namespaces/inkscape"
   xmlns:sodipodi="http://sodipodi.sourceforge.net/DTD/sodipodi-0.dtd"
   xmlns="http://www.w3.org/2000/svg"
   xmlns:svg="http://www.w3.org/2000/svg">
  <sodipodi:namedview
     id="namedview7"
     pagecolor="#ffffff"
     bordercolor="#666666"
     borderopacity="1.0"
     inkscape:pageshadow="2"
     inkscape:pageopacity="0.0"
     inkscape:pagecheckerboard="0"
     inkscape:document-units="mm"
     showgrid="false"
     inkscape:zoom="0.66268445"
     inkscape:cx="470.05781"
     inkscape:cy="233.14264"
     inkscape:window-width="1280"
     inkscape:window-height="657"
     inkscape:window-x="-8"
     inkscape:window-y="-8"
     inkscape:window-maximized="1"
     inkscape:current-layer="layer1" />
  <defs
     id="defs2" />
  <g
     inkscape:label="Layer 1"
     inkscape:groupmode="layer"
     id="layer1">
    <path
       style="fill:none;stroke:#353438;stroke-width:0.0565167"
       d="M 35.65713,6.8754506 C 35.002384,7.3610993 34.384878,7.0448304 33.958856,6.3667983 33.156417,5.0355878 32.912413,2.7041621 34.357247,1.4229279 34.893924,1.2397729 34.977569,1.4099863 35.035451,1.901967 M 17.797797,4.6147716 c 0.218777,0.00935 0.467847,0.034138 0.73472,0.073423 0.218155,0.032158 0.400027,0.082566 0.621686,0.1112259 0.154404,0.019946 0.293606,0.067143 0.39381,-0.05725 0.09009,-0.1118477 0.0373,-0.2986363 0.0055,-0.4664916 C 19.442183,3.687565 19.205773,3.1435621 19.154286,2.5236561 19.13377,2.2770446 19.046,1.8744634 19.436813,1.9584874 m 4.069189,0.3390973 c 0.207361,0.6557204 0.118573,1.6492704 0.282585,2.2041591 l 0.395731,-0.2033098 0.565055,-0.1419865 0.452135,0.06271 M 2.7643093,5.801638 C 3.78018,5.6724395 4.984521,5.2803385 4.4010376,4.3801776 L 2.9338598,3.5022834 2.5478495,3.2684895 C 0.83969428,1.6509571 3.014946,1.8027643 4.0076801,2.2410718 m 35.5491159,0.96079 -0.05651,0.2260668 M 15.480614,6.4798404 c 0.392283,0.3708074 0.711435,0.3559998 1.186855,0.2899318 0.191196,-0.026565 0.317568,-0.031078 0.508594,-0.074556 0.207134,-0.047135 0.409691,-0.1753154 0.329211,-0.366738 C 17.411066,6.1043882 17.014539,5.9400948 16.837019,5.8458245 16.444395,5.6372214 15.9488,5.4342684 15.692326,5.0103917 15.545965,3.7642568 16.5915,4.3567494 17.063073,4.8408959 m 28.258453,0.1129814 c -0.199282,-0.3103922 -0.362501,-0.4473272 -0.734723,-0.394769 -0.188031,0.026618 -0.305926,0.097944 -0.449926,0.1969612 -0.150962,0.1038212 -0.314686,0.2255017 -0.362614,0.4241025 -0.05771,0.2389525 0.123825,0.3925122 0.304172,0.4913005 0.711214,0.2595271 2.078426,0.5996462 2.048904,1.2039763 -0.265204,0.6632923 -0.898722,0.9454581 -1.540543,1.0738207 M 23.788587,4.5017438 c -0.158756,0.2994257 -0.658927,0.6090856 -0.283258,0.9666678 0.05346,0.050926 0.123319,0.079123 0.170228,0.1071556 0.130949,-0.2492385 0.119818,-0.7464764 0.11303,-1.0738234 M 7.4552134,4.6147805 C 7.7721032,4.7904919 7.8480619,5.1926657 7.7076748,5.5190511 7.5688692,5.8418184 7.3954753,6.123838 7.0030781,6.1560526 6.6367924,6.1861763 6.629005,5.8090882 6.3814043,5.6885941 6.2465557,5.6229766 6.0174244,5.7830945 5.8727966,5.7548984 5.4491268,5.4312596 5.3507479,5.1275281 5.6466741,4.7278681 m 13.9013389,0.014299 0.565168,0.1695493 M 19.548013,4.7421673 c 0.02125,0.5286595 0.10902,0.9387456 -0.113035,1.6389909 m 8.874955,1.7377204 C 28.648242,8.0034717 28.725559,7.9287565 28.988135,7.7767819 29.179274,7.6661225 29.420885,7.5617348 29.606486,7.4242869 29.75326,7.3156042 29.865333,7.1866332 29.744161,6.9892197 29.624234,6.7937267 29.451347,6.7034135 29.27072,6.6077303 28.950043,6.4378402 27.977444,6.0823489 27.977444,5.6312885 c 0,-0.3011785 0.359674,-0.554374 0.558556,-0.5854022 0.158078,-0.024638 0.244379,-0.014469 0.378437,0.1067042 0.164804,0.1488659 0.145587,0.3871975 0.130214,0.5360625 m -6.216856,1.2998879 c -0.05522,-0.1411784 -0.197463,-1.0977948 -0.450772,-1.1400707 -0.126711,-0.021195 -0.264447,0.161819 -0.39698,0.2183913 -0.24551,0.1047828 -0.560648,0.1974144 -0.847754,0.1843017 -0.187579,-0.00865 -0.347804,-0.046002 -0.491527,-0.1891614 -0.234036,-0.2331321 -0.16079,-0.617616 0.01391,-0.807739 0.554624,-0.29017 0.830875,0.1978524 1.099315,0.6038726 m 4.526047,0.7479544 c -0.319852,-0.713433 0.341715,-1.7567321 0.823835,-1.3508038 0.142762,0.1288006 0.25167,0.3577517 0.173337,0.5464046 -0.208604,0.502491 -0.725902,0.3181894 -0.95796,0.5992474 -0.09258,0.1121304 -0.03272,0.2604307 0.02074,0.3518741 0.152766,0.261222 0.467961,0.4234816 0.726581,0.5183165 M 6.4379142,5.2364562 c -0.057313,0.1930622 -0.0551,0.259412 -0.05651,0.4521352 M 37.238763,5.476546 c 0.231041,0.1523127 0.433993,0.4173766 0.361822,0.7207031 -0.06505,0.273655 -0.321527,0.4803366 -0.587043,0.5378706 -0.479825,0.1039915 -0.995715,-0.2695856 -1.063137,-0.7639387 -0.02899,-0.2124468 -0.03385,-0.4294145 0.167231,-0.5363453 0.137281,-0.073021 0.285976,-0.092516 0.387255,-0.1128065 0.303609,-0.06081 0.467676,-0.021025 0.733872,0.1545168 z M 10.111506,6.3668037 C 6.9474326,5.5155722 8.7677342,4.2553839 9.2568582,4.8089132 9.4016546,5.0631256 8.9631406,5.3354238 8.8681362,5.4060706 M 23.675557,5.5755672 c -0.0018,0.1593204 -0.05313,0.3687727 -0.01243,0.4669679 l 0.01243,1.0589774 M 38.935113,6.5363539 c 0.11137,-0.4020043 -0.05233,-0.7450661 0.42814,-1.2261628 M 23.675557,5.5755672 c 0.568276,0.1130331 1.312886,0.7869904 1.752024,1.0738136 M 12.654762,6.310276 12.968747,5.3604291 c 0.08791,-0.3281641 0.156919,-0.7714816 0.482513,-0.8382293 0.350687,-0.071888 0.639206,0.3355973 0.782646,0.6012268 0.309202,0.5725722 -0.216517,1.5810591 -0.952367,1.5456233 -0.424272,-0.020454 -0.453831,-0.247656 -0.626771,-0.3587695 -0.16486,0.4401545 -0.203122,0.6493231 -0.339102,1.2998897 M 11.298361,6.6493763 C 10.756253,6.287532 10.036264,5.6473968 10.477474,5.0753223 11.47241,4.6022957 11.576937,5.4753882 10.731449,5.9554135 m 30.271655,0.3202536 c -0.05118,0.1666975 -0.113957,0.4581297 -0.0707,0.449221 0.118648,-0.024433 0.490701,-0.5500637 0.557331,-0.7025021 0.213412,-0.2611649 0.618014,-0.9237123 1.050367,-0.5887929 0.405623,0.314178 0.238165,1.0716165 0.238165,1.4418593 M 3.4990296,10.266461 c 0.410708,0 0.7119988,0.01164 1.1868536,0.05657 0.1611868,0.0152 0.3997437,0.0121 0.436141,0.233584 -0.1719533,0.859136 -0.9089221,1.477468 -1.4048369,2.08356 -0.4774191,0.546051 -0.029867,0.737567 0.5730818,0.734719 0.3582036,1.28e-4 0.778915,-0.01899 1.1303378,0.005 0.3907567,0.02679 0.5876047,0.07477 1.0173028,-0.005 M 6.324873,10.549044 c 0.26156,-0.321695 1.1244022,-0.455357 1.3214776,0.06245 0.1015091,0.266704 -0.2287245,0.647062 -0.00134,0.857248 0.3206211,0.296431 1.1450891,0.345036 1.2987585,0.888841 -0.1615843,0.906419 -1.5466081,0.853562 -2.110244,1.186862 m 12.2076679,-3.05192 c 0.111281,0.381827 0.03119,0.527867 0.08048,0.904269 0.120099,0.917212 -0.07879,2.851898 0.428172,3.334495 m 7.064599,-4.238764 c 0.246752,0.236183 0.195435,0.332205 0.113034,0.508651 -0.08788,-0.145135 -0.178141,-0.225276 -0.113034,-0.508651 m -10.738207,3.956181 c -0.269133,0.122416 -0.601679,0.07562 -0.90427,0.01028 -0.237202,-0.05132 -0.517978,-0.182435 -0.734663,-0.312708 -0.253309,-0.152255 -0.455188,-0.368151 -0.565508,-0.658307 -0.113543,-0.298467 -0.04482,-0.855835 0.03895,-1.130338 0.04068,-0.133549 0.08659,-0.20623 0.136602,-0.339101 0.07313,-0.194305 0.10179,-0.379059 0.17961,-0.562965 0.09834,-0.232284 0.390531,-0.786942 0.715729,-0.762582 0.182381,0.01368 0.241948,0.223411 0.254721,0.364534 0.01317,0.145248 0.01549,0.246074 0.03108,0.339327 m -4.069214,0.395585 c 0,-0.169607 0.03883,-0.369904 -0.03409,-0.564944 -0.195837,-0.47707 -1.0019755,-0.651778 -1.2563726,-0.113262 -0.039392,0.12705 -0.058044,0.314347 0.00935,0.508653 0.1351313,0.389174 0.5236296,0.577376 0.8289336,0.68764 0.16079,0.05804 0.215499,0.137619 0.3391,0.23545 0.187015,0.148073 0.831986,0.459595 0.649945,0.828932 -0.09105,0.184754 -0.344583,0.32746 -0.53691,0.386181 -0.275125,0.08409 -0.34837,0.09455 -0.56517,0.02826 -0.142765,-0.04358 -0.367193,-0.167514 -0.4333189,-0.35792 -0.1072367,-0.341402 0.08625,-1.091941 0.6594209,-1.130341 0.261278,-0.150674 0.641864,-0.182719 1.017304,-0.113034 m 24.641362,3.27798 c 0.12038,-0.506956 0.461063,-1.37466 0.678207,-1.978088 0.311351,0.117046 0.805363,0.4562 1.186853,0.508651 -0.229265,-0.917164 -0.144727,-2.018709 -0.432585,-2.760735 -0.938094,-0.67144 -0.714293,1.729841 -0.754269,2.252082 M 26.727472,11.057705 c 0.244153,0.803557 0.04114,1.673634 0.05737,2.486741 0.0062,0.306888 0.06438,0.403871 0.05567,0.678204 m 19.272256,1.921571 c 0.140331,-0.315364 0.301459,-0.666052 0.427265,-1.130281 0.03278,-0.121003 0.0295,-0.26048 0.155877,-0.320621 0.123036,-0.05854 0.261618,0.0012 0.377646,0.02351 0.383408,0.07353 0.667913,0.179218 0.904267,0.240536 -5.5e-5,-0.553922 -0.13575,-1.382008 -0.26783,-2.091124 -0.07714,-0.41393 -0.03702,-0.82119 -0.381245,-0.649291 -0.344222,0.1719 -0.360038,0.526882 -0.370439,0.76233 -0.0081,0.182833 -0.03328,0.320508 -0.09303,0.508653 -0.171192,0.538946 -0.169373,0.67288 -0.169373,1.205382 M 27.124828,14.437592 c 0.444167,0.319545 0.950348,0.134109 1.165057,-0.327972 0.216455,-0.465813 0.201252,-1.150402 -0.09269,-1.579138 -0.814521,-0.410913 -0.823403,1.396388 -1.356682,1.692168 m 24.41529,-1.638989 c 0.07245,-0.01192 0.202383,0.906644 0.211653,1.130336 0.0045,0.111282 0.01289,0.212052 0.01417,0.339103 0.0013,0.141178 -0.004,0.259977 0.0053,0.395618 0.03396,0.495878 0.03815,1.101513 -0.06737,1.582471 -0.06979,0.317908 -0.01198,0.35391 -0.220247,0.621686 m 4.464837,-0.113033 c -0.02996,-0.236694 -0.02318,-0.474572 -0.0051,-0.734719 0.01808,-0.257097 0.1509,-0.600041 -0.0051,-0.815878 -0.08026,-0.110774 -0.250372,-0.12445 -0.385449,-0.144909 -0.295581,-0.04482 -0.513737,-0.132759 -0.69798,-0.395901 -0.118121,-0.169156 -0.142991,-0.313047 -0.148642,-0.50837 0.12665,-0.833836 0.01799,-1.643558 0.50752,-1.07382 M 31.361851,15.46601 c 0.09772,-0.03096 0.213125,-0.08048 0.395733,-0.102631 0.143213,-0.0174 0.30214,-0.0027 0.452021,-0.01571 0.20719,-0.01808 0.473492,-0.104556 0.518147,-0.334861 0.03498,-0.180346 -0.127841,-0.335542 -0.23805,-0.450215 -0.268961,-0.279927 -0.723358,-0.492996 -0.900145,-0.848657 -0.19973,-0.401666 0.220756,-0.879685 0.563419,-0.9635 0.298643,8.76e-4 0.306803,0.01016 0.452249,0.22883 m 27.975861,-0.113034 c 0.163895,0.322599 0.05086,0.647967 -0.03448,1.130337 -0.03221,0.179329 -0.06725,0.324633 -0.100596,0.508653 -0.08986,0.500909 -0.210806,0.966325 -0.276367,1.469438 -0.04465,0.342041 -0.03165,0.552566 -0.09721,0.90427 m -42.7835,-3.841337 c 0.341248,0.078 0.455866,0.461969 0.288801,0.732855 -0.191027,0.309768 -0.600661,0.591675 -0.965704,0.479601 -0.416303,-0.127784 -0.391323,-0.822659 -0.131119,-1.067151 0.146887,-0.137957 0.622533,-0.187748 0.808022,-0.145305 m 5.312807,0.506849 c -0.05968,0.577713 -0.150714,1.245951 0.344922,0.701262 1.760482,-2.10451 0.647866,-0.318053 1.011484,0.429076 1.800657,-2.292023 0.786227,-1.231519 1.356409,0.565162 m 30.339381,-0.250697 c 0.165666,-0.224183 0.14029,-1.585544 0.518828,-1.88478 m -26.84552,0.100885 c -0.05307,0.07178 -0.166441,0.199109 -0.189273,0.395731 -0.02075,0.178594 0.01267,0.278233 0.03453,0.395505 0.02514,0.134624 0.07811,0.36623 0.191592,0.492093 0.18351,0.203574 0.433087,0.123545 0.631688,-0.05176 0.09672,-0.08537 0.189611,-0.25224 0.270082,-0.398686 0.187241,-0.389856 0.1993,-0.16407 0.300991,0.152889 l 0.173312,0.540194 m -10.45562,-1.469444 c -0.159886,0.239236 -0.360973,0.856738 -0.04363,1.173968 0.119307,0.119194 0.269077,0.192158 0.438401,0.155421 0.34091,-0.07382 0.490623,-0.444223 0.679051,-0.594671 l 0.452135,0.565169 m 20.063484,0.113075 c 0.23178,-0.319094 0.820801,-1.131637 0.0563,-1.301357 -0.565029,-0.01018 -0.983119,0.541465 -0.743032,1.018721 0.250594,0.496217 0.673908,0.830119 1.025836,1.130337 M 21.358365,13.431413 v 0.565169 M 39.33073,13.770506 c 0.379907,0.126599 0.09094,0.525155 0.209625,0.904215 0.06623,0.211542 0.232169,0.438401 0.465525,0.301743 0.202954,-0.118911 0.354701,-0.427324 0.432694,-0.640788 0.06092,-0.166782 0.07528,-0.332659 0.07901,-0.508653 m 9.551356,0.113035 c 0.228386,-0.075 0.772983,0.06093 1.07382,0.09687 0.08636,0.01038 0.230584,0.01222 0.338869,0.01617 0.159829,0.0058 0.190922,0.0196 0.282818,0.0327 0.171131,0.02453 0.436533,0.06748 0.621682,0.136828 m -14.242258,-0.226066 0.05669,0.508651 -0.05697,0.791237 -0.225784,0.452134 m 20.12001,-1.695512 c 0.285972,0.08053 0.690071,0.178368 0.960784,0.398048 0.153728,0.124846 0.298411,0.225956 0.361144,0.395393 0.144685,0.389853 -0.223808,0.787336 -0.458914,1.023067 -0.114732,0.115352 -0.198943,0.20041 -0.354929,0.278687 -0.592296,0.296316 -1.722069,0.687244 -2.057778,-0.173677 -0.215329,-0.551831 0.26789,-1.145881 0.588906,-1.469383 m -18.933153,-0.508645 0.226069,0.05651 m 9.121666,2.032826 c 0.237485,-0.138523 0.326669,-0.387819 0.378719,-0.73472 0.01544,-0.102859 0.02475,-0.329889 0.107498,-0.393809 0.249718,-0.192954 0.412039,-0.05431 0.597277,0.07891 m 0.02439,2.407801 0.305476,-0.960787 0.203177,-0.565169 c 0.219227,0.115125 0.385781,0.216912 0.844646,-0.147679 0.2879,-0.228723 0.550136,-0.993566 0.05737,-1.20104 -0.273144,-0.114954 -0.3274,0.163843 -0.413703,0.312426 -0.283897,0.320413 -0.378558,0.62304 -0.488293,1.036326 m -5.256086,-1.356438 c 0.326161,0.384371 0.491811,1.2176 -0.279833,1.778775 -0.771643,0.561174 -0.859413,0.60051 -1.020035,0.651489 m 13.515601,-2.26314 c -0.09325,0.0933 -0.197971,0.0444 -0.413865,0.260403 m -9.240614,-0.239416 0.282585,-0.05651 m -35.227996,4.389788 c -0.04459,-0.150957 -0.05618,-0.288293 -0.05651,-0.508652 0.0531,-0.433772 -0.03374,-2.188994 0.43665,-1.466895 0.06754,0.229402 0.06709,0.458238 0.0399,0.675658 -0.02543,0.203574 -0.102921,0.830177 -0.154516,1.012274 -0.05403,0.190858 -0.165142,0.207361 -0.231211,0.458014 -0.04895,0.185657 -0.01932,0.606934 -0.115125,0.790388 -0.09675,0.185319 -0.23251,0.421446 -0.366737,0.589414 -0.177011,0.221547 -0.577716,0.569238 -0.908623,0.559404 -0.2589036,-0.0077 -0.4277196,-0.237653 -0.4395327,-0.470616 -0.00945,-0.185996 0.060863,-0.390927 0.1359805,-0.565168 0.053968,-0.125128 0.1238285,-0.216742 0.185149,-0.339101 0.3447212,-0.416836 0.3959912,-0.643392 0.7963802,-0.339102 M 2.9903853,17.161531 c -1.9078371,-0.156532 0.074513,1.084472 0.7347193,1.535563 0.1873538,0.132814 0.4783596,0.298297 0.4969532,0.557765 0.02108,0.293492 -0.3198853,0.538832 -0.5534694,0.651074 -0.4818073,0.231494 -1.1126483,0.303157 -1.5259567,0.250992 M 18.136909,17.331081 c 0,0.427494 -0.04866,0.290949 -0.05493,0.621686 0.07983,0.406292 0.04939,0.818228 0.05523,1.13028 0.0021,0.111113 -0.0094,0.265009 0.09032,0.335146 0.186958,0.131458 0.41766,-0.05872 0.644124,-0.140896 0.278288,-0.101001 0.625302,-0.132307 0.904269,-0.25071 M 31.53141,18.009284 c 0.116551,0.75966 0.0407,1.594371 0.05066,2.430225 l -0.03533,0.395619 -0.05567,0.395617 -0.1292,0.734719 m -1.582464,-3.447529 0.05657,1.63899 0.0079,0.508652 0.04776,0.734719 -0.01503,0.565112 0.07241,0.395675 M 6.4944258,19.026585 c -0.040293,-0.03097 -0.1057952,-0.08607 -0.1785935,-0.135076 -0.5416581,-0.36459 -0.673794,-0.04154 -0.7700071,0.301468 -0.096214,0.343008 0.1913441,0.624858 0.4399626,0.603437 0.162711,-0.01402 0.4140823,-0.293193 0.5965758,-0.226902 0.1992217,0.07234 0.4014557,0.703451 0.590279,0.813489 M 40.235013,19.64827 c -0.06019,-0.257943 -0.08511,-0.34481 -0.576828,-0.364474 -0.491716,-0.01966 -0.737622,0.915065 -0.157903,1.227331 0.289028,0.1496 0.526623,0.278911 0.791235,0.426081 0.252409,0.140331 0.708668,0.444223 0.654299,0.802145 -0.08432,0.555333 -1.131921,0.787392 -1.387433,0.332996 -0.12637,-0.224654 -0.05206,-0.47135 0.0777,-0.669612 0.09077,-0.138693 0.18843,-0.214933 0.316045,-0.316043 0.194152,-0.183499 0.434532,-0.330301 0.649485,-0.442638 0.165812,-0.04044 0.268349,-0.05511 0.481139,-0.148033 M 7.7943218,19.64827 c -0.063557,1.19615 0.1907643,0.669666 0.5751582,-2.26e-4 0.1009381,-0.194418 0.2859195,-0.724433 0.6083478,-0.682441 0.2702065,0.03522 0.1822107,0.399065 0.1750888,0.569633 -0.013675,0.328419 -0.00214,0.635759 -0.00214,0.960787 M 26.670958,19.139502 c 0.494184,-0.01847 0.575454,0.497914 0.853065,0.775186 0.220135,0.219908 0.497235,0.437723 0.662493,0.694365 0.114219,0.177464 0.221488,0.308187 0.280605,0.508653 0.148357,0.503283 -0.435293,1.096371 -0.948409,1.119373 -0.84312,0.0377 -1.714158,-0.703465 -1.719697,-1.571508 -0.0028,-0.434445 0.0915,-0.799318 0.346732,-1.184424 0.129706,-0.195718 0.280211,-0.332489 0.525211,-0.341645 m 11.291719,0.362766 c -0.03256,0.490978 -0.261344,1.450699 -0.159477,1.68993 m -22.831238,0.43417 c 0.356169,0.187128 0.753087,0.02713 1.130338,-0.116764 0.224483,-0.08557 0.572741,-0.21222 0.503791,-0.502887 -0.04341,-0.182719 -0.248336,-0.303269 -0.390983,-0.404209 -0.279873,-0.198035 -1.160801,-0.642992 -1.036182,-1.06619 0.07777,-0.264103 0.396862,-0.32972 0.640788,-0.250652 0.236015,0.07653 0.326386,0.159264 0.452135,0.193061 m 25.997766,-0.16955 c 0.22194,-0.06104 0.351419,-0.01962 0.565167,-0.005 0.826829,-0.02458 1.009012,0.133027 0.681651,0.909305 -0.28411,0.687528 -0.788414,1.455139 -0.794687,2.204158 m -5.764708,-2.995431 c -0.388512,0.364887 -0.611544,1.119808 -0.418065,1.400193 0.208716,0.274276 0.583933,0.216685 0.870188,0.234828 0.135924,0.0087 0.303271,-0.0015 0.394039,0.134963 0.182605,0.274501 -0.05713,0.969941 0.0017,1.225398 M 18.227519,19.418193 c 0,0.146605 -0.160469,0.533812 -0.08988,0.648655 0.08629,0.140387 0.168306,0.174694 0.297164,0.318585 0.391154,0.436875 0.642936,0.845889 0.719404,1.353975 m 16.333379,-2.260675 -0.0616,1.412921 -0.220981,1.921575 m -1.073823,-3.221476 c 0.114898,0.483954 -0.390645,1.275642 -0.07889,1.68262 0.145983,0.190575 0.381548,0.195548 0.587551,0.171982 0.22019,-0.0252 0.534592,-0.129645 0.741162,-0.134059 m -21.31319,-1.607517 c 0,0.110095 0.0062,0.264556 -0.0053,0.395731 -0.01215,0.138297 -0.02402,0.232737 -0.13372,0.36979 -0.08794,0.109869 -0.16565,0.168534 -0.229797,0.259017 -0.09286,0.131006 -0.211712,0.375838 -0.424385,0.399631 -0.573477,0.06421 -0.399575,-1.048897 -0.337123,-1.311135 m -1.550421,0.226081 c 0.143666,0.18628 0.21143,0.310957 0.339101,0.621686 m 6.411437,-0.598732 c -0.132285,0.171733 -0.348674,0.86062 -0.226767,1.276925 m 28.784556,0.410933 c -0.129312,0.175541 -0.210867,0.280493 -0.372955,0.411952 -0.291404,0.23641 -0.7857,0.44784 -1.170465,0.409182 -0.299935,-0.03012 -0.524309,-0.222394 -0.665485,-0.497404 -0.114446,-0.222847 -0.175937,-0.37386 -0.08127,-0.62163 0.155478,-0.406978 0.285582,-0.962708 0.746985,-1.166622 0.263143,-0.116311 0.370978,0.0554 0.574553,0.139767 0.305192,0.126428 0.510687,0.0373 0.781627,0.153895 0.616729,0.181123 0.392542,0.880801 0.187013,1.17086 z m -26.410881,-1.14565 c 0.05012,0.56986 0.530748,1.10711 0.847752,1.46944 0.469317,-0.49181 0.761622,-1.514032 1.299889,-1.80854 M 13.928825,20.4703 c 0.08731,0.102123 0.15932,0.151183 0.226067,0.395619 m 15.341906,-0.256857 0.339102,0.05651 m 0.0079,3e-6 c 0.543411,0.0112 1.180359,0.128238 1.702913,0.169551 m 6.439044,0.183868 -0.182593,0.173202 m -13.788539,0.09506 0.169551,0.621687 m 8e-6,5e-6 c 0.117951,0.635307 -0.123377,1.034542 -0.395619,1.525956 m -2.656292,-1.356405 -0.808248,1.638989 -0.209057,0.452135 m -3.899664,4.52135 c 0.05697,-0.306829 0.06618,-0.894548 0.06663,-1.186853 4.67e-4,-0.26744 0.01108,-0.530299 0.05448,-0.847754 0.04635,-0.33848 0.164973,-0.275125 0.181305,-0.621686 0.0071,-0.152313 -0.03182,-0.259639 -0.01594,-0.395618 0.03369,-0.288406 0.121962,-1.476957 0.618067,-1.362623 0.444845,0.10258 0.890424,1.048332 0.90314,1.475657 0.0049,0.164351 0.01576,0.28055 -0.0067,0.452135 -0.08444,0.644066 -0.954966,1.006734 -1.405405,1.017303 m 3.44753,-2.317192 c -0.141349,0.340175 -0.05639,0.647118 -0.05651,1.017305 -2.13e-4,0.729406 -0.230618,1.970032 0.09729,2.509657 M 3.5555489,26.54333 c -0.035775,0.281397 -0.032494,0.468862 -0.161299,0.668594 -0.08964,0.139031 -0.1924402,0.219173 -0.2987485,0.345884 -0.4257408,0.507577 -1.2036621,0.684078 -1.5833255,-0.05375 -0.1305885,-0.253761 -0.158603,-0.477229 -0.1605252,-0.734664 -0.00394,-0.530919 0.010499,-0.952817 0.3388414,-1.073819 m 3.0519152,0.395603 c 0.07211,0.176897 0.2324549,0.63542 0.2639907,0.847752 0.02792,0.187524 0.00277,0.329551 -0.077999,0.508653 -0.1368838,0.303445 -0.364477,0.66894 -0.7511654,0.66617 C 3.8572352,28.111572 3.6398147,27.85242 3.5558303,27.617195 3.4979569,27.455219 3.4459621,27.289917 3.3942499,27.211924 m 12.6596211,-1.007691 0.282583,0.452135 M 6.1553246,26.317261 c -0.1226545,0.90608 0.4423952,2.103107 1.3127804,1.638993 M 22.20613,27.108497 c -1.00418,-0.739757 -0.934372,0.396209 -0.395629,0.795757 0.172997,0.126428 0.594274,0.312651 0.594274,0.565452 0,0.551663 -1.325603,0.516169 -1.668096,0.503849 M 8.5290403,26.769396 c 0.2942832,0.427099 0.5957444,1.147973 0.2495222,1.636562 C 8.4808878,28.82599 7.8897213,28.757435 7.6013728,28.349388 7.5050138,28.213072 7.4783347,28.105971 7.468105,27.956257 7.454885,27.762294 7.507158,27.502314 7.455215,27.221539 m 3.277977,-0.395621 c -0.14768,0.362442 -0.212674,0.444166 -0.223582,0.847751 -0.009,0.330907 0.171699,0.783326 0.562738,0.832382 0.482825,0.06065 0.772079,-0.272919 0.960731,-0.662831 m 11.020792,-0.508659 c 3.181264,-0.517108 -1.175024,1.236474 1.186854,1.469439 m 7.799329,-0.56516 c 0.178449,1.606125 0.422882,-0.09245 1.037649,-0.678212 0.40997,-0.480354 0.879898,-0.752594 0.725401,0 -0.124869,2.762539 1.858626,-1.094735 2.347536,-0.500216 0.201367,0.386914 -0.09789,1.298362 -0.09789,1.630568 M 12.880829,27.1085 c 0.40483,0.342834 0.430434,0.640111 0.472312,1.130338 0.04233,0.494976 -0.681238,1.087902 -1.161971,0.683409 -0.272525,-0.229288 -0.242288,-0.443714 -0.408334,-0.705669 m 6.24103,-0.825482 c -0.253019,0.480722 0.02715,1.10361 0.39477,0.828074 0.197074,-0.158531 0.288957,-0.492389 0.501573,-0.492389 0.178819,0 0.444915,0.488773 0.516578,0.568575 m 8.307982,-0.452134 c -0.179102,-0.260598 -0.293097,-0.387945 -0.762978,-0.197809 -0.51114,0.756532 -0.456995,1.296212 0.141291,1.667527 0.35001,0.217253 0.705839,0.222734 1.073822,0.225787 m 1.186854,-1.978094 c 0.490792,0.06234 1.053812,0.09082 1.466951,0.464173 0.172038,0.155478 0.289593,0.325538 0.275068,0.553132 -0.03268,0.513511 -0.723697,1.088798 -1.233368,1.087102 -0.517526,-0.0017 -0.986218,-0.251443 -0.958301,-0.804517 0.01698,-0.343114 0.188077,-0.610554 0.280099,-0.791235 m -3.391014,0.678206 -0.282586,0.05651 m -10.964274,0.113034 h 0.05651 m 77.993292,5.821238 0.336276,0.847754 0.503558,1.186854 0.220982,0.565169 0.506956,1.865058 0.114733,0.508651 0.150895,0.791236 0.28428,1.638992 0.09492,0.678202 0.153723,0.508652 -0.458912,1.073822 -1.359796,2.712809 -0.547642,1.073819 m 2.36635,-4.86045 c 0.296724,-0.362328 0.485486,-1.080885 0.728509,-1.582474 0.562905,-1.162384 0.863009,-2.432261 1.173845,-3.673597 0.138469,-0.555393 0.378674,-1.711163 0.87432,-1.63899 m 4.690908,0.113033 c 0.0915,0.619054 -0.11307,0.875974 -0.16446,1.525957 -0.0452,0.789428 0.0192,1.585129 0.0192,2.373707 0,2.270905 -0.52334,4.502702 -0.92404,6.72551 -0.14017,0.775301 -0.48379,2.029127 -0.51317,2.712811 m 2.20415,-12.094613 0.0967,1.752023 0.10343,2.656294 -0.0706,2.147643 -0.0215,0.508654 -0.17407,1.808538 -0.052,0.678202 -0.12377,0.734721 -0.15373,1.017304 m 16.95506,1.695508 c 0.50301,0.294167 1.04726,0.260144 1.63899,0.176895 0.37697,-0.05301 0.66972,-0.175032 1.01731,-0.289876 0.29389,-0.09721 0.53012,-0.179611 0.79124,-0.353794 0.47473,-0.31712 0.83475,-0.731331 0.78614,-1.341769 -0.0797,-0.989103 -1.10603,-1.898062 -1.67686,-2.656294 -0.36792,-0.489039 -0.70024,-1.091677 -0.98679,-1.638986 -0.2854,-0.544826 -0.57985,-1.102648 -0.74262,-1.695508 -0.11755,-0.428399 -0.2108,-0.863074 -0.25264,-1.299888 -0.0169,-0.178762 -0.0169,-0.333339 -0.004,-0.508655 0.0673,-0.96429 0.5923,-1.964752 1.40784,-2.540828 0.28202,-0.199111 0.72567,-0.46779 1.07326,-0.360917 0.88448,0.272073 0.84831,1.595075 0.84831,2.336576 m 15.20304,2.034609 c 0.0469,0.252348 0.0684,0.489834 0.0514,0.734719 -0.008,0.126372 -0.035,0.229688 -0.0463,0.39562 -0.009,0.1318 -0.005,0.260148 -0.005,0.39562 0,0.510517 0.0198,1.070714 -0.0401,1.582472 -0.13338,1.127737 -0.17633,2.276216 -0.31537,3.391011 -0.12377,0.997127 -0.33683,2.012341 -0.43008,2.995398 -0.0322,0.340341 -0.0611,0.582684 -0.0622,0.960784 m 7.91237,-9.720905 c -0.81119,-0.726116 1.09177,-0.398112 1.52595,-0.395607 h 0.6782 c 0.88336,0 1.66895,0.121398 2.37372,0.452131 m -17.81856,1.032316 c 0.0443,-0.424192 -0.0442,-0.509701 0.27613,-0.652429 m 14.37746,-0.0973 c -0.36255,0.162981 -0.30539,0.307679 -0.30607,0.678206 l 0.0186,1.243369 -0.10795,1.356405 -0.0486,0.395621 -0.074,0.508653 -0.31085,2.034607 -0.32497,1.58247 -0.12773,0.621402 -0.0181,0.339386 c 0.6313,-0.0017 1.94588,-0.382055 2.59978,-0.39562 m 7.62978,-7.629778 v 1.073823 c 0,0.426698 -0.0565,0.871999 -0.0565,1.299885 0,0.548895 -0.0141,1.093714 -0.0514,1.638991 -0.0119,0.174355 8.9e-4,0.34153 -0.0103,0.508651 -0.0147,0.215499 -0.0435,0.587777 -0.0678,0.791238 -0.0147,0.124731 -0.0334,0.260541 -0.0402,0.395618 -0.0107,0.216683 -0.0293,0.26416 -0.0525,0.508651 -0.026,0.28264 -0.0752,0.517861 -0.10795,0.791239 -0.0407,0.331579 -0.0458,0.596195 -0.12208,0.904266 -0.13846,0.558726 -0.10229,1.025839 -0.39561,1.469441 m 16.61596,-9.155732 c -0.0463,1.078735 0.003,2.105703 -0.10343,3.221463 -0.0203,0.212386 -0.003,0.367186 -0.0119,0.565166 -0.0103,0.229062 -0.0713,0.432861 -0.10177,0.678203 -0.026,0.208547 -0.0502,0.364248 -0.0644,0.565166 -0.0176,0.264275 -0.0582,0.666788 -0.10291,0.904274 -0.0305,0.161012 -0.0559,0.273878 -0.0898,0.45213 -0.0368,0.194816 -0.008,0.33854 -0.17179,0.450556 -0.0995,0.06776 -0.25095,0.05584 -0.37133,0.04188 -0.43517,-0.05059 -0.81102,-0.174074 -1.13033,-0.435913 M 98.051418,49.09357 c -0.716057,0.09048 -1.385799,0.114047 -2.034606,-0.189279 -1.21172,-0.566469 -0.98114,-1.956106 0,-2.642106 0.311977,-0.218269 0.624508,-0.29999 0.960784,-0.396919 0.285984,-0.08241 0.460625,-0.212503 0.734727,-0.126594 0.640332,0.200748 0.364535,0.749754 -5.54e-4,1.088284 -0.451561,0.417946 -1.195333,0.571049 -1.63842,0.571106 m 12.998821,-1.243373 c -0.16615,0.248846 -0.46287,1.130562 -0.54086,1.469441 -0.0317,0.135811 -0.0537,0.250652 -0.0717,0.395617 -0.0248,0.196454 -0.0463,0.347978 -0.0656,0.565171 -0.0498,0.56952 -0.19047,1.882405 0.46287,2.199466 0.33796,0.164296 0.63976,-0.341135 0.83701,-0.503961 0.34419,0.393923 0.70703,0.804913 1.46944,0.861204 0.34136,0.02525 0.60248,-0.100264 0.90427,-0.255005 0.67085,-0.34368 1.49826,-1.438241 1.26767,-2.245187 -0.0588,-0.205274 -0.19045,-0.342324 -0.33966,-0.498821 -0.33911,-0.355602 -0.92744,-0.645533 -1.32364,-0.744552 m -6.16038,-0.847753 c 0.24528,0.103826 0.41201,0.253364 0.62168,0.410824 0.37923,0.285521 0.7093,0.63677 0.73247,1.115132 0.0593,1.224158 -1.54348,2.281019 -2.65404,1.69268 -0.92461,-0.489833 -0.59399,-1.905072 -0.0785,-2.596952 0.1882,-0.252402 0.3747,-0.451454 0.64372,-0.559234 0.21477,-0.08608 0.34419,-8.24e-4 0.50865,0.107102 m 21.80026,4.38034 c -0.13847,0.127049 -0.27071,0.182321 -0.43688,0.279815 -0.39222,0.229966 -0.83023,0.239628 -1.24337,0.0308 -0.35944,-0.181873 -0.64655,-0.562685 -0.65841,-0.960844 -0.0227,-0.772135 0.37187,-1.644586 0.99977,-2.111584 0.4821,-0.358544 1.05574,-0.106478 1.1309,0.472592 0.0317,0.248168 0.008,0.393983 0.013,0.621459 0.006,0.306153 0.19781,0.36629 0.35831,0.622481 0.22274,0.331659 0.007,0.879157 -0.16335,1.045279 z m 2.839,-2.509576 c -0.14864,-0.221827 -0.62169,0.07143 -0.90428,0.341307 -0.60489,0.743241 -2.01871,2.241226 -0.90382,2.70224 0.47815,0.187357 1.47341,0.1214 1.80855,0.1214 m 43.23708,-3.396726 0.32695,0.211066 m -63.7954,1.145345 v 0.565171 m 25.09349,2.373709 c -0.1262,-0.298227 -0.10231,-0.747776 -0.11258,-0.960796 -0.10964,-0.07409 -0.52102,0.208719 -0.67869,0.256822 -0.45723,0.139652 -1.12242,0.10099 -1.31346,-0.426589 -0.18876,-0.52041 0.56177,-1.495326 1.08738,-1.478482 0.21025,0.0068 0.32894,0.198993 0.45213,0.348366 m 20.57215,-0.3391 0.67821,0.08924 0.45232,0.02379 1.13015,0.339092 m -6.16033,2.769323 c 0.0893,-0.327456 0.19215,-0.610323 0.28483,-0.904268 0.034,-0.106647 0.0662,-0.262973 0.1509,-0.374424 0.1283,-0.168647 0.23624,-0.208885 0.33345,-0.362726 0.10292,-0.162993 0.23455,-0.487006 0.35832,-0.675771 0.11304,-0.172887 0.2775,-0.407712 0.41992,-0.545672 0.0865,-0.08438 0.25263,-0.217758 0.37753,-0.09534 0.20177,0.19758 0.15204,0.751223 0.16843,1.036633 0.0334,0.599021 0.1119,1.399132 0.33684,1.92157 m 23.68057,-2.938876 c -0.13185,1.137907 -0.52038,2.133498 -1.0806,2.994548 -0.19669,0.300894 -0.6313,0.989947 -1.06592,0.912015 -0.21419,-0.03832 -0.3131,-0.277952 -0.35831,-0.459034 -0.0396,-0.160566 -0.0491,-0.29609 -0.0706,-0.452132 -0.0203,-0.146777 -0.0232,-0.255795 -0.0401,-0.395621 -0.0384,-0.312198 -0.0847,-0.672833 -0.0972,-0.960784 m -15.93777,-1.549525 c 0.19951,-0.04137 0.67821,0.04504 0.84211,0.318188 0.32215,0.538325 -0.82402,0.914671 -1.1812,0.89178 -0.24924,-0.01593 -0.32327,-0.143891 -0.33515,-0.339495 -0.0266,-0.458578 0.30746,-0.794458 0.67424,-0.870473 m -26.49564,-1.753633 c -0.7883,-0.04304 -0.42771,1.752151 -0.63245,2.642816 m 20.10353,-0.05318 c 0.0791,0.496669 5.6e-4,0.550755 0,0.734718 m -16.42952,-0.64288 -0.22607,0.3391 m 44.08316,1.752017 c 0.56009,-0.232793 1.13748,-0.574099 1.13034,-1.356404 -0.003,-0.269471 -0.0508,-0.477285 -0.28485,-0.616426 -0.85418,-0.120054 -1.40539,0.937419 -1.27049,1.633733 0.17408,0.821192 0.85115,1.289489 1.49882,1.752024 M 164.57225,52.08895 c -0.15542,-0.455469 -0.49961,-0.507126 -0.98905,-0.05651 -0.3747,0.553467 -0.94101,1.536636 0.0283,1.633058 0.43913,0.04369 0.94835,-0.09603 1.35641,-0.269418 0.17802,-0.07573 0.29445,-0.111509 0.44026,-0.222846 0.36424,-0.371805 0.34158,-0.638731 0.4053,-0.06696 0.0283,0.490623 0.22832,0.829325 0.56741,1.073817 m 4.8358,-2.657864 0.84775,0.3391 m -14.38366,-0.564442 c 0.004,0.387184 0.76001,1.180237 1.23983,1.470278 m 12.29608,-1.244936 c -0.0717,0.271284 -0.10568,0.484577 -0.2238,0.904275 -0.19329,0.68719 -0.27693,1.327636 -0.56744,1.978089 m -10.26321,-2.498045 c -0.32901,0.920907 -0.43532,1.369373 0.18219,0.351973 0.25941,-0.433257 0.41539,-0.869738 0.74941,-1.227208 0.30801,-0.329269 0.6132,-0.483615 1.04781,-0.355264 m 6.51919,4.024845 c -0.15599,0.06025 -0.36228,0.14389 -0.56518,0.206399 -0.17292,0.05336 -0.31874,0.08664 -0.50864,0.07002 -0.47135,-0.04126 -0.69404,-0.396691 -0.67595,-0.841593 0.017,-0.417488 0.28201,-0.878326 0.45949,-1.243368 0.21702,-0.445976 0.72285,-1.108014 1.12073,-1.243371 m -22.56956,0.8356 c -0.1396,0.100658 -0.26903,0.145699 -0.50865,0.198316 -0.43744,0.09619 -0.92857,0.228497 -1.35641,0.299935 -0.49564,0.08274 -1.13824,0.180515 -1.52595,-0.272184 m 30.49986,-1.562556 c 0.29202,2.01029 -0.20599,1.578664 -0.3277,2.310161 M 92.682836,59.153569 V 58.531882 57.9102 c 0,-0.280892 0.0071,-0.476438 -0.03336,-0.734723 -0.02828,-0.180286 -0.0611,-0.319319 -0.07457,-0.508651 -0.02382,-0.338534 -0.06726,-0.580427 -0.07065,-0.904269 -0.0018,-0.178592 0.0248,-0.248107 0.06155,-0.395617 0.03051,-0.123208 0.05138,-0.218156 0.0893,-0.3391 0.0611,-0.197247 0.08706,-0.316721 0.192731,-0.508373 0.315929,-0.575001 0.987349,-0.349893 1.473958,-0.124675 0.391662,0.181365 0.66464,0.455751 0.881099,0.859112 0.11699,0.218159 0.196683,0.438573 0.184239,0.678204 -0.01035,0.198937 -0.09491,0.353798 -0.229456,0.506393 -0.348702,0.395053 -0.938742,0.816666 -1.457562,0.567425 m 6.442915,2.882361 c 0.15712,-0.637511 0.22268,-1.033692 0.35041,-1.695505 0.0469,-0.245281 0.12321,-0.614902 0.16277,-0.847754 0.0226,-0.133376 0.043,-0.24924 0.0498,-0.395617 0.006,-0.14864 -0.004,-0.243588 0.0203,-0.395615 0.0232,-0.142425 0.0662,-0.248113 0.0847,-0.395623 0.0147,-0.119812 0.003,-0.210807 0.0384,-0.3391 0.0808,-0.297279 0.28936,-0.697758 0.52504,-1.016456 0.15768,-0.21318 0.3617,-0.363685 0.63355,-0.319828 0.2498,0.0403 0.47701,0.195777 0.67255,0.385896 0.17521,0.171022 0.28541,0.37222 0.33798,0.611285 0.0819,0.374146 -0.0104,0.645427 -0.23795,0.955704 -0.10228,0.138468 -0.34136,0.317622 -0.29444,0.511479 0.14185,0.586643 1.05404,0.685546 1.03652,1.415177 -0.0243,0.98509 -2.1889,1.804022 -2.70151,1.808544 m -3.61143,-3.164948 c 0.01695,0.217024 0.178593,0.439137 0.339666,0.616601 0.146953,0.162768 0.252631,0.231153 0.272978,0.457787 0.05138,0.577037 -0.257144,1.321363 -0.900875,1.486394 -0.665211,0.170679 -1.085133,-0.600774 -1.168207,-1.147856 -0.0644,-0.426141 0.117551,-0.982268 0.308016,-1.356405 0.09606,-0.188202 0.156551,-0.306325 0.29502,-0.435747 0.142983,-0.13451 0.210804,-0.291064 0.450438,-0.366795 0.371886,-0.117556 0.386578,0.539171 0.402964,0.746021 z m 8.13278,1.073798 c 0.39166,0.388836 1.28689,0.95683 1.15464,1.638986 -0.11586,0.596819 -0.91501,0.743765 -1.38071,0.499612 -0.44875,-0.235674 -0.72455,-0.762413 -0.85171,-1.234329 -0.19611,-0.727934 0.33119,-2.01991 1.19082,-2.062298 0.53464,-0.02599 0.88617,0.673681 1.01729,0.98848 m 8.98619,-0.621688 c -0.25037,0.402966 -0.29389,0.729066 -0.52278,1.186854 -0.3651,0.730201 -0.82854,1.401054 -1.1162,2.091123 m 4.12572,-3.221461 c 0.24529,-0.01696 0.37188,0.03674 0.6217,0.139031 0.64484,0.265066 1.51804,0.527871 2.03459,0.652207 m -13.16842,-0.452138 c 0.26336,0.237939 0.68159,0.647684 0.902,1.130341 0.0615,0.134508 0.14356,0.378659 0.2871,0.375838 0.12999,-0.0017 0.19386,-0.107384 0.28768,-0.208548 0.35605,-0.385448 0.71437,-0.909923 1.1795,-1.184595 m 6.55596,3.730115 c 0.53184,0.373574 1.31402,0.40692 1.79781,-0.115295 0.29557,-0.318757 0.34419,-0.667468 0.0752,-1.009957 -0.31027,-0.393924 -0.93478,-0.764675 -1.42083,-0.928007 -0.15599,-0.05257 -0.60982,-0.122641 -0.60982,-0.332884 0,-0.220415 0.35097,-0.462307 0.49622,-0.592863 0.39731,-0.357752 0.67482,-0.681028 0.96134,-0.751109 m 3.95625,0.734717 c -0.3018,0.889015 -0.62168,1.759937 -0.9687,2.59978 -0.25828,0.625643 -0.50639,1.046689 -0.67028,1.525955 m -11.64033,-3.467309 -0.34577,0.584949 -0.7302,1.073821 m 0.95608,-1.462137 c 0.23229,0.340231 0.36528,0.743242 0.56988,1.23607 m -16.898552,3.504041 c 0,0.603038 0.01811,0.769761 0.169547,1.017306 0.103993,-0.10964 0.239063,-0.212502 0.344751,-0.508652 0.126596,-0.354362 0.56517,-1.59095 1.119609,-1.378448 0.645979,0.247545 0.759016,1.82041 0.734147,2.395751 -0.01294,0.288236 -0.04184,0.65277 -0.07457,0.904274 -0.05254,0.397876 -0.03283,0.759018 -0.03283,1.186854 m 13.903148,-2.71281 c 0.25773,0.24189 0.31197,0.336838 0.33684,0.904269 0.0113,0.256021 0.008,0.457784 0.002,0.734718 -0.006,0.248676 -0.23793,0.78615 -0.0141,0.977178 0.16728,0.142422 0.46457,-0.115293 0.63638,-0.193855 0.45723,-0.207416 1.0936,-0.584381 1.58246,-0.444224 M 92.343277,65.14434 c 0,0.327802 -0.05486,0.730764 -0.10343,1.186854 -0.04353,0.401272 -0.12095,0.733027 -0.292193,1.13034 m 23.963156,3.277976 c 0.14469,-0.311404 0.20403,-0.668029 0.26451,-1.017302 0.1627,-0.937048 0.24415,-1.88371 0.24415,-2.88236 0.004,-0.483075 -0.0892,-1.953948 0.65446,-1.337192 0.28258,0.265627 0.26336,0.733023 0.32157,1.111122 0.10001,0.645424 0.26676,1.302712 0.34024,1.92157 0.11352,1.107612 0.19494,1.799543 0.74202,0.282589 l 0.20686,-1.073821 0.13677,-0.678202 0.0898,-0.904272 0.0514,-0.678205 m -23.366334,0.864146 c -0.118684,0.165029 -0.389958,0.749414 -0.07966,0.818928 1.625594,-0.216737 1.212148,-2.375476 0.07966,-0.818928 z m 25.118394,-0.468516 c 0.1848,0.415961 0.25206,0.658419 0.46683,1.073817 0.11869,0.229457 0.26393,0.449311 0.39392,0.678203 0.0826,0.144683 0.16051,0.318193 0.32554,0.295583 0.16446,-0.02261 0.22776,-0.202894 0.29954,-0.352098 0.23793,-0.493391 0.41992,-0.971525 0.6053,-1.469441 m -19.55485,1.695507 c -0.0248,0.142422 -0.0593,0.31141 -0.15937,0.421049 -0.10114,0.111342 -0.22099,0.148076 -0.34928,0.203462 -0.19046,0.08307 -0.40918,0.114729 -0.62168,0.109081 -0.38601,-0.01018 -0.7935,-0.307457 -0.8308,-0.733592 -0.0232,-0.269023 0.10343,-0.504697 0.21307,-0.734717 0.41258,-0.861885 1.25242,-0.446488 1.29594,0.395617 m 30.32571,-0.479608 0.8152,0.335453 0.90935,0.488309 m -7.23936,-1.078874 c -0.0215,0.50187 -0.14525,1.08569 -0.16955,1.582471 -0.0361,0.742634 -0.32611,1.540084 -0.56517,2.204159 M 97.599437,66.783344 c -0.183116,0.349275 -0.287099,0.735851 -0.275244,1.130339 0.02034,0.680461 0.661821,1.041041 1.236028,0.679898 0.509222,-0.319887 0.452141,-0.628469 0.452141,-1.019001 m 0.791237,-0.621686 c 1.272241,0.19354 0.738081,1.735262 -0.113047,1.750904 -0.427825,-0.01075 -0.531612,-0.19155 -0.784805,-0.433446 m 29.891003,-1.147908 c -0.061,0.467397 -0.60247,0.909924 -0.53692,1.41292 0.0322,0.244723 0.27637,0.399015 0.48041,0.477007 0.26337,0.100596 0.56064,0.109641 0.84775,0.141854 0.17633,0.01978 0.30688,0.04126 0.45213,0.05934 -0.0695,0.371885 -0.21306,0.782763 -0.32327,1.29989 -0.0774,0.365667 -0.16786,0.506958 -0.18538,0.847754 m 7.40371,-4.238766 c 0.24415,0.272976 0.0474,0.609818 -0.0893,1.017305 -0.13112,0.391098 -0.21138,0.804801 -0.3521,1.186854 -0.14073,0.382052 -0.2402,0.786152 -0.38149,1.186853 -0.10795,0.305756 -0.14186,0.532954 -0.25094,0.847754 M 95.368326,66.985064 c 0.08813,0.555558 0.795572,1.125863 1.326845,1.324236 M 138.009,67.574583 c 0.35663,-0.369057 1.07099,-0.388271 1.75203,-0.205155 0.20628,0.05596 0.69855,0.168983 0.69855,0.432353 -1.96176,2.162697 -0.62227,0.492661 0.63863,1.869013 0.24811,0.287104 0.23512,0.695157 0.0921,1.012215 -0.40748,0.903143 -1.18968,1.119035 -1.88143,1.412921 M 108.6626,67.647466 c -0.15995,0.342493 -0.17101,0.609374 -0.27747,0.944421 -0.18764,0.610947 -0.25321,1.39766 -0.49962,1.978087 m 22.43491,-2.789681 c -0.23681,0.416533 -0.20855,0.507522 -0.29671,1.073821 -0.0215,0.138467 -0.0656,0.257715 0.0164,0.359448 0.10456,0.128856 0.38262,0.04126 0.44988,0.03617 m 1.86734,-1.562115 c -0.27128,0.276935 -0.93253,0.689509 -0.69459,1.13034 0.32949,0.610944 1.68081,0.996394 1.40049,1.921008 -0.0549,0.180289 -0.16786,0.276367 -0.31255,0.374143 -0.17633,0.11925 -0.35718,0.181421 -0.5629,0.222676 -0.60587,0.122075 -1.01109,-0.0859 -1.3564,-0.313668 m -8.93044,-3.095448 c -0.0622,0.707027 -0.99526,2.07643 -1.18686,2.88236 m -17.62252,-2.587343 c 0.0933,0.17181 0.1266,0.28541 0.16955,0.621687 m 5.12401,-0.251487 c 0.6423,-0.305444 1.72594,1.458024 2.04358,2.034613 m -5.95818,-1.769591 c -0.11304,0.996882 0.13285,0.30139 0.458,-0.04122 0.0898,-0.13677 0.19216,-0.313668 0.27694,-0.449874 0.19216,-0.308583 0.54934,-1.051216 0.928,-0.904268 m 7.23412,1.921575 c 0,0.353797 -0.0153,0.529567 -0.0469,0.847754 -0.0192,0.190464 -0.0198,0.331755 -0.0673,0.508652 -0.074,0.278065 -0.21817,0.560085 -0.41315,0.791238 -0.36905,0.437441 -0.8438,0.666898 -1.22471,0.678202"
       id="path14131"
       sodipodi:nodetypes="ccccccccccccccccccccccccccscccccccccccccccccccccccccccccscccccccccccccscccccccccccccccccccccccsccccccccscccccccccccscccccccccccccccccccccccccccccccccccccccccsccccsccccccccccccccccccccccccccccccccccccccccccccsccccccccccccccccccscsccccccccccccccccccccscccccccccccccccccccccccccccccccccccccsccccccccccccccscsccccccccsccccccccccccccsccccccsscccccccccccccccccccscccsscccccccccccccccccccccccccccccccccccccsscccccccccccccccccccccccccscccccccccccccccccccccccsccccccscccccccccccccccccccccccccccsccccccccccccsccccccccccccccsccccccscccccccccccccccsscccccccccccccccccccccccccccccccccccccccscccccccsccccccccccccccccccccccccscccccccccccccccscccccccccccccccscccccccccccccccccssccccscccccscccccccccccccccccccsccccccccccccccccccccccscccccccccccccscccccccccccccccccccccccccccccccccccccccccccccccccccccccccccccccccccccscccccscccccccccccccccccccccccccccccccccccccc" />
  </g>
</svg>
