<?xml version="1.0" encoding="UTF-8" standalone="no"?>
<!-- Created with Inkscape (http://www.inkscape.org/) -->

<svg
   width="210mm"
   height="297mm"
   viewBox="0 0 210 297"
   version="1.1"
   id="svg5"
   inkscape:version="1.1 (c68e22c387, 2021-05-23)"
   sodipodi:docname="Casey - Pulsz - Envelope 66.svg"
   xmlns:inkscape="http://www.inkscape.org/namespaces/inkscape"
   xmlns:sodipodi="http://sodipodi.sourceforge.net/DTD/sodipodi-0.dtd"
   xmlns="http://www.w3.org/2000/svg"
   xmlns:svg="http://www.w3.org/2000/svg">
  <sodipodi:namedview
     id="namedview7"
     pagecolor="#ffffff"
     bordercolor="#666666"
     borderopacity="1.0"
     inkscape:pageshadow="2"
     inkscape:pageopacity="0.0"
     inkscape:pagecheckerboard="0"
     inkscape:document-units="mm"
     showgrid="false"
     inkscape:zoom="0.7071068"
     inkscape:cx="559.32145"
     inkscape:cy="277.89296"
     inkscape:window-width="1280"
     inkscape:window-height="657"
     inkscape:window-x="-8"
     inkscape:window-y="-8"
     inkscape:window-maximized="1"
     inkscape:current-layer="layer1" />
  <defs
     id="defs2" />
  <g
     inkscape:label="Layer 1"
     inkscape:groupmode="layer"
     id="layer1">
    <path
       style="fill:none;stroke:#222225;stroke-width:0.0529552"
       d="m 30.19762,1.3334272 c -0.685564,1.585153 -1.421469,3.6449213 -0.654649,4.8696144 0.222728,0.2945378 0.583725,0.4145341 0.919412,0.4004484 0.249683,-0.010538 0.437622,-0.061751 0.635463,-0.1333948 M 3.4551513,1.8100257 C 3.1291457,1.344683 2.4611952,1.6090481 2.0783123,1.8283484 1.7823444,2.0028895 1.2851458,2.2254607 1.3561592,2.657047 1.4058291,2.9589454 1.7420976,3.0701527 1.9724012,3.1838999 2.2681043,3.3300566 2.5179477,3.4785967 2.8196873,3.6669058 2.990627,3.7735583 3.1354597,3.8661769 3.2870715,4.0057675 3.6953047,4.3815395 3.7196111,4.9822121 3.1895803,5.312812 3.0308738,5.4118408 2.8447351,5.4500195 2.6608207,5.4898423 2.3369992,5.55996 2.1278782,5.5546016 1.7605792,5.6228131 M 21.407028,1.5452492 c 0.345246,0.50056 0.217363,0.9047115 0.284359,1.4297986 -0.05129,0.6340918 0.226859,1.3835965 0.244448,1.9063768 0.0093,0.3167272 0.02944,0.3284298 0.0537,0.6354654 M 23.472279,5.3580406 C 23.065423,5.2405858 22.750497,4.9329151 22.329713,4.5623859 22.208233,4.4554161 22.130707,4.4413323 22.018441,4.3455337 21.935931,4.2751557 21.902421,4.1830087 21.866407,4.086317 21.754063,3.1369973 22.736439,2.7638621 23.472284,2.5514049 M 17.488329,1.7041062 c 0.123121,0.130641 0.27092,0.2798166 0.27489,0.5295541 0.0015,0.093836 -0.06259,0.525477 -0.05645,0.635465 0.0094,0.1696157 0.292844,0.5121847 0.111312,0.7071129 -0.149863,0.160931 -0.621695,-0.097335 -0.806352,-0.1246044 m -1.641613,1.8004873 c 0.279074,0.4299973 0.86635,0.7102375 1.22221,0.052161 0.05434,-0.1003984 0.08887,-0.1986883 0.09384,-0.3169374 0.02421,-0.5749901 -0.58166,-0.9841228 -1.051269,-1.1608354 -0.153677,-0.05778 -0.330811,-0.054706 -0.421366,-0.1902686 -0.152617,-0.2285559 0.224425,-0.6193128 0.426026,-0.664378 0.138691,-0.031029 0.262183,0.05184 0.366029,0.1090876 m 18.166775,3.063105 c 0.02626,-0.5055647 -0.327784,-1.1201351 0.0021,-1.4108066 m -21.71688,1.577981 c 4.1e-5,-0.2875477 0.05412,-0.7663706 -0.0076,-1.2179749 -0.01975,-0.1441966 -0.05172,-0.2138599 -0.0754,-0.3738391 -0.02636,-0.1782468 -6.91e-4,-0.1969126 0.06804,-0.329725 0.08457,-0.1632086 0.136414,-0.2889783 0.187463,-0.4084984 0.05693,-0.1331302 0.153623,-0.5231986 0.410774,-0.547453 0.251485,-0.023718 0.457799,0.2538155 0.552166,0.4415431 0.1326,0.2638761 0.175759,0.5273811 0.147692,0.7943309 -0.04279,0.4068561 -0.228925,0.4875063 -0.452748,0.8334129 -0.223821,0.3459066 -0.379033,0.2256975 -0.777416,0.2256975 M 9.7039084,5.0932646 C 9.2846082,5.0402623 8.6094271,5.0312095 8.3134597,4.5629164 8.2074427,4.3951009 8.2156466,4.2048322 8.2970894,4.0351633 8.3894923,3.8424584 8.5174894,3.7767412 8.697749,3.6844933 9.6384656,3.4689684 8.9773826,4.2747361 8.4854384,4.1222324 M 18.638883,3.8410147 17.818076,3.5762382 18.176742,5.1462159 m 8.578777,-1.4297908 c -2.318872,0.1090784 1.133498,1.5785066 0.562545,1.9061653 -0.04342,0.2621827 -0.291255,0.3853573 -0.509589,0.5297658 M 10.592921,4.8235148 C 10.269205,4.660623 10.211225,4.032259 10.920904,3.9566385 c 0.709679,-0.075621 0.338796,0.3831182 -0.05196,0.5432557 -0.113007,0.046284 -0.26213,0.075143 -0.299462,0.1905863 -0.08006,0.2474074 0.546076,0.5832503 0.670097,0.6675557 M 24.36521,4.8068967 c 0.14944,0.0414 0.258929,-0.012712 0.392589,-0.06787 0.701385,-0.6915625 -0.391151,-1.2332472 -0.80684,-0.4874249 -0.03145,0.596368 0.271822,1.2726492 0.792265,1.3182436 M 20.442907,4.455002 c 0.03491,0.1068409 -0.0045,0.2136809 -0.04204,0.3205219 -0.08122,0.02155 -0.185926,0.056554 -0.317996,0.090762 -0.162469,0.042151 -0.513192,0.1642149 -0.72406,-0.016791 -0.195882,-0.1681858 -0.04125,-0.4078097 0.09464,-0.5463938 0.29851,-0.3044411 0.614971,-0.2473545 0.89447,-0.057135 M 7.2149809,4.1930178 c 0.1156013,0.091614 0.2261725,0.1835954 0.2505312,0.3707403 0.016209,0.124181 -0.022131,0.262342 -0.074937,0.3706348 C 7.2339329,5.255515 6.8339085,5.6129095 6.4735996,5.6129095 6.1234582,5.6129489 5.8844837,5.2317137 5.5733716,5.2521014 5.3346477,5.2676666 5.1532101,5.5278635 4.8899165,5.2930004 4.6685653,5.0954768 4.5624954,4.8383787 4.4935474,4.5637 4.4072821,4.2201246 4.5101733,4.1080719 4.77903,4.0871011 M 38.035017,7.7410053 C 38.62981,7.8240377 39.54345,6.9654727 39.162808,6.3114212 38.822569,5.7267933 38.008906,5.6137343 37.452557,5.3898912 36.750677,4.7821677 37.903336,4.7680749 38.299791,4.775497 M 5.6263202,4.6695927 C 5.5635136,4.9333105 5.5735237,5.0115785 5.5733716,5.2521014 M 20.400871,4.7755239 20.824515,5.3050768 m 14.668649,-0.26481 c -0.201386,0.3128234 -0.339086,1.5571904 0.05989,1.0577838 0.06534,-0.1074465 0.0977,-0.3023231 0.126719,-0.4223202 0.652018,-1.8556408 0.333823,0.5805183 0.978403,0.6884211 m -4.50119,-0.9149371 c 0.174275,-0.1190436 0.30391,-0.2095965 0.476596,-0.2279724 0.14547,-0.015512 0.231997,0.040085 0.369205,0.1529874 0.165486,0.1360427 0.181004,0.2310442 0.112446,0.4934738 -0.06856,0.2624297 -0.136977,0.4397238 -0.376017,0.5447345 -0.444772,0.1953006 -0.696051,-0.1654852 -0.770019,-0.4740648 -0.07397,-0.3085796 -0.0013,-0.3599475 0.187789,-0.4891585 z M 34.116322,3.7164157 C 34.119363,3.4881776 34.06993,3.1817771 34.3811,3.1868618 M 2.2371777,10.071065 c 0.1434568,0.02118 0.2767978,0.06238 0.423643,0.103847 0.1305352,0.0368 0.2350691,0.04724 0.3706876,0.07017 0.2981922,0.05035 1.0132484,0.151982 1.1165123,0.515415 0.044747,0.15749 -0.012181,0.294591 -0.080761,0.417925 -0.1458929,0.262288 -0.4520273,0.5313 -0.7709762,0.904951 -0.2923121,0.345373 -0.6943488,0.653627 -0.5752524,0.8834 0.099288,0.191646 0.4751157,0.132124 0.6811659,0.118038 0.6929743,-0.0475 1.5478857,-0.307883 2.1711703,-0.313019 M 5.732229,10.124024 c 0.3125425,-0.09219 0.7047834,-0.03325 0.9204708,0.236764 0.1207378,0.151136 0.018267,0.372966 -0.087961,0.45727 -0.1899502,0.150764 -0.4123629,0.265943 -0.6736448,0.20621 m 3.6539216,-0.529556 c -0.095373,-0.06085 -0.2968153,-0.272031 -0.4813637,-0.339498 -0.1685051,-0.06159 -0.2733566,-0.03829 -0.418454,-0.01107 -0.1640574,0.03071 -0.3598849,0.223261 -0.2552445,0.446732 0.19567,0.418029 0.6618359,0.452398 0.8902862,0.645208 l -0.3197144,0.515387 c -0.1078921,0.197654 -0.2646929,0.551766 -0.1346875,0.966301 0.1344012,0.428462 0.5888111,0.04846 0.7439177,-0.212828 0.075724,-0.12757 0.1216386,-0.273461 0.1282055,-0.421578 C 9.7061009,11.898871 9.6447349,11.775272 9.560647,11.606768 9.4928127,11.470836 9.4035291,11.337547 9.4823285,11.192873 9.65078,10.883931 10.074158,10.768171 10.445269,10.759485 m 6.354634,-0.476602 c 0.219023,0.701924 0.105911,1.878222 0.105911,2.700725 0,0.365763 0.007,0.787499 0.10591,1.059108 m -4.024602,-3.548007 c -0.648362,0.223756 -1.116977,0.855125 -0.940804,1.48536 0.02913,0.422478 0.373604,0.974046 0.6405,1.258575 0.389275,0.41496 0.735126,0.477289 1.20055,0.592254 M 33.4279,10.494709 c 0.187834,0.435134 -0.06916,0.331712 -0.225694,0.647803 -0.184444,0.372594 -0.15717,0.878054 -0.299357,1.25859 -0.06842,0.18312 -0.13938,0.339021 -0.180948,0.529555 -0.03448,0.158072 -0.09511,0.368674 -0.04739,0.523782 0.0448,0.145627 0.151718,0.182219 0.277064,0.205519 0.199113,0.03696 0.475434,0.0224 0.688154,0.0501 0.142293,0.01853 0.26912,0.03125 0.423646,0.06789 0.191752,0.04544 0.323077,0.05083 0.423638,0.05295 -0.0064,-0.220982 -0.112736,-0.568157 -0.181899,-0.900241 -0.150234,-0.7212 -0.48782,-1.447836 -0.877838,-2.055712 M 6.5647384,10.818061 c 0.2546632,0.14118 0.8725595,0.07947 1.1171061,0.57715 0.1991651,0.405162 -0.313072,0.841408 -0.6257201,1.019127 -0.2611754,0.148486 -0.432646,0.166121 -0.7413759,0.09267 m 2.9655023,-1.270926 0.2020777,-0.04321 M 43.648292,14.20153 c -0.04449,-0.03792 -0.11729,-0.07208 -0.37063,-0.05254 -0.130429,0.01013 -0.312604,0.01515 -0.423701,0.0079 -0.28882,-0.019 -0.837067,0.08624 -0.998265,-0.0098 -0.321592,-0.191487 -0.172363,-0.465319 -0.06741,-0.845803 0.04014,-0.145681 0.08488,-0.280611 0.130696,-0.423645 0.07774,-0.242641 0.138955,-0.42629 0.193442,-0.688419 0.692261,-1.711562 0.979867,0.343411 1.050149,1.00614 0.01679,0.165274 0.05994,0.496297 0.08775,0.635464 0.02226,0.111418 0.02307,0.190322 0.0278,0.317733 0.0063,0.169457 0.02609,0.242165 0.04337,0.423643 0.035,0.367933 0.05401,0.885943 0.06196,1.270929 m -20.54668,-1.906361 c -0.06968,-0.184656 -0.150069,-0.511073 -0.188785,-0.741375 -0.03463,-0.206209 -0.06334,-0.29602 -0.06916,-0.529554 -0.0042,-0.16824 0.04745,-0.313284 0.0279,-0.476334 -0.113393,-0.549563 -0.461861,-0.01187 -0.62694,0.263505 -0.312412,0.412531 -0.309271,0.154728 -0.305983,-0.157859 0.283875,-1.365881 -0.716177,-0.257886 -1.097723,0.417714 -0.0097,0.01732 0.34645,-0.742625 0.445054,-0.979236 m 6.422755,2.944514 c 0.433864,-0.137578 1.571027,-0.410933 1.396169,-1.217179 -0.906733,-1.464661 -2.472579,-1.22583 -0.813659,-1.907193 m -3.706883,0.317732 c 0.205359,-0.237134 0.48973,-0.313284 0.681377,0.106706 0.212827,0.46659 0.06715,0.793218 -0.09768,1.104634 -0.164822,0.311415 -0.309284,0.421305 -0.477735,0.48013 -0.342411,0.11968 -0.8316,0.0491 -0.85615,-0.43261 -0.02455,-0.481709 0.107934,-0.679982 0.116674,-0.835194 0.03426,-0.611053 -0.0047,-1.349197 0.01181,-1.959349 0.0067,-0.247938 0.01461,-0.6338767 0.251062,-0.6884212 m 23.035573,2.3300442 c -0.07615,0.319902 -0.05544,0.688313 -0.0528,1.006151 0.0012,0.131806 0.01387,0.288289 0.01463,0.423643 0.02333,0.574733 0.245858,0.567058 0.222601,1.376847 -0.02143,0.285535 -0.182644,0.479723 -0.131438,0.635463 m -27.85454,-3.389136 c -0.08314,0.280664 -0.112425,0.534374 -0.101988,0.741377 0.0064,0.12831 0.03612,0.21182 0.07123,0.317732 0.103265,0.311536 0.23184,0.37556 0.454411,0.476598 M 54.186421,12.08337 c 0.268743,0.827455 0.204595,1.506892 0.05297,2.33003 M 18.017883,12.242236 c -0.172211,0.28114 -0.333355,1.255361 0.111471,1.295183 0.204302,0.01827 0.537338,-0.354006 0.615553,-0.446784 0.105858,-0.125611 0.277067,-0.251326 0.336007,-0.318844 m 6.509588,-0.370689 c -0.06519,0.192493 -0.121213,0.461454 -0.143561,0.635465 -0.0242,0.188627 -0.0439,0.341987 0.05449,0.526429 0.129476,0.242748 0.339391,0.210075 0.565669,0.09956 0.148169,-0.07239 0.283312,-0.118409 0.403521,-0.228715 0.216958,-0.199165 0.220876,-0.234698 0.231944,-0.609092 m 11.014715,0.953196 c 0.151383,-0.117656 0.326242,-0.268089 0.465291,-0.430556 0.193712,-0.203457 0.163492,-0.291642 0.02508,-0.495516 -0.812584,-1.032013 -1.739766,1.074634 -1.225229,1.662522 0.431956,0.455629 0.967176,0.522723 1.476234,0.428568 M 15.423059,12.627487 c 0.204566,-3.57e-4 0.528707,0.12254 0.584839,0.358403 0.04253,0.178672 -0.0905,0.339444 -0.219711,0.439954 -0.262607,0.204302 -0.797773,0.36878 -1.105497,0.23814 -0.410669,-0.174382 -0.250903,-0.655111 -0.0047,-0.803174 0.246138,-0.148063 0.44493,-0.23274 0.745135,-0.233323 z m 34.844691,0.09135 -0.05296,0.953198 -0.05348,0.423644 -0.07336,0.782284 c 0.03202,0.252732 0.02514,0.777996 0.126811,1.018201 M 36.658178,12.930657 c -5.49e-4,0.0841 0.02626,0.189739 -0.03813,0.423642 -0.06339,0.230304 -0.160032,0.321864 -0.242062,0.476599 -0.07144,0.134719 -0.205466,0.399707 -0.360044,0.484489 -0.334303,0.183331 -0.740842,-0.608033 -1.001385,-0.749266 m 13.7684,-0.58251 c 0,0.329542 0.0233,0.734597 0.210235,0.997098 0.334149,0.469556 0.836739,0.104484 1.16612,0.114968 m 1.37733,-1.112066 c -0.488581,0.576743 -0.664701,1.243129 -0.612431,1.729948 0.0331,0.328429 0.432383,0.537013 0.824249,0.555978 0.185873,0.0089 0.288082,-0.02499 0.476601,-0.1075 0.380222,-0.166174 0.854164,-0.535379 0.883827,-0.960504 0.01902,-0.579612 -1.227056,-1.121162 -1.413383,-1.059061 m -5.386692,0.105923 c 0.207473,0.066 0.400856,0.174268 0.635464,0.158865 m -20.475663,0.02658 c 0.0537,0.20536 0.116185,0.45801 0.317734,0.741374 m 5.886155,-0.720774 -0.198634,0.370793 -0.318901,0.799996 m 14.789309,-1.21797 c 0.168696,-0.01812 0.256776,0.04437 0.370868,0.08085 m -12.83014,0.342779 0.06577,0.741375 0.04015,0.58253 M 39.7296,13.936821 c 0,0.497357 0.04914,0.939269 -0.07673,1.251278 -0.125876,0.312011 -0.152997,0.436456 -0.300474,0.601359 -0.300946,0.336532 -0.972472,0.525265 -1.211462,0.530348 m 3.584547,-2.293016 c -0.31641,0.445831 -0.438845,1.146483 -0.84729,1.800483 m -30.485872,0.810256 c 0.171485,0.950356 0.260312,1.887478 0.31296,2.85959 l -0.0075,0.582509 0.155318,0.476598 0.121745,0.529554 m 33.150071,-2.842055 0.314262,-1.354 c 0.155393,-0.542128 0.02221,-0.981394 -0.0523,-1.258351 -0.06551,-0.243436 -0.09511,-0.355277 -0.09129,-0.476598 0.0052,-0.165698 0.09404,-0.615342 0.19546,-0.847286 0.238986,-0.546764 0.743228,-0.69721 1.14892,-0.209546 0.107551,0.129371 0.172052,0.262713 0.243276,0.421367 0.174389,0.587139 0.421144,1.349413 -0.699218,1.426154 -0.143033,0.0058 -0.304068,-0.04035 -0.422321,-0.07976 -0.159185,-0.05295 -0.20361,-0.06069 -0.266099,-0.07546 m -41.5170342,6.03692 c -0.015089,-0.191488 0.00218,-0.189847 0.3706875,-0.313708 0.1672324,-0.05624 0.2954372,-0.08282 0.4765986,-0.120528 0.3089943,-0.06429 0.9881476,-0.201917 1.0352243,-0.572182 C 4.9069226,20.460541 4.3889145,19.964402 4.1388063,19.738707 3.714104,19.35531 2.9708224,19.030905 2.7634481,18.490919 2.6829563,18.281321 2.7663554,17.99748 2.8541581,17.802551 2.9630484,17.499707 3.616477,16.809334 3.508109,17.431869 m 13.573385,4.169733 c -0.360679,-0.265465 -0.670098,-0.741163 -0.939694,-1.053388 -0.894005,-0.647784 0.0029,-1.145589 0.727875,-1.27665 m -1.287739,-1.786743 c -0.05158,0.587968 0.291422,1.357796 0.227873,1.95935 0.0073,0.962192 -0.07236,2.032863 -0.122002,2.85958 m 12.33865,-4.130517 c 0.215316,0.39727 0.209228,0.781939 0.231681,1.217974 0.0058,0.113271 0.02939,0.253339 0.03229,0.370423 0.0038,0.155423 8.24e-4,0.245077 8.24e-4,0.317997 L 27.973487,19.97372 m 1.270928,-1.588663 c 0.225221,-0.328481 0.158179,0.224426 0.150871,0.370688 -0.01651,0.330336 0.05661,0.753025 0.113853,1.059108 0.02769,0.148063 0.0403,0.263665 0.04422,0.423643 0.0041,0.168293 0.0072,0.18815 0.0086,0.370687 8.24e-4,0.118249 -5.5e-4,0.292208 1.98e-4,0.423644 0.0017,0.346116 0.05688,0.752443 -3.8e-5,1.059107 m 6.778333,-3.177319 c -0.458939,0.465343 -0.957199,2.796659 0.158832,2.407077 0.237346,-0.08611 0.398213,-0.134076 0.529596,-0.394777 m -23.459252,0.741381 c 0.195723,0.02298 0.296338,0.03633 0.476599,-0.0089 0.143561,-0.03607 0.283628,-0.07122 0.423643,-0.11968 0.321915,-0.111418 0.862377,-0.43434 0.564875,-0.822344 -0.276003,-0.359991 -0.794913,-0.432962 -1.14712,-0.632658 -0.114278,-0.06482 -0.205785,-0.115231 -0.258581,-0.226702 -0.215687,-0.455522 0.52214,-0.728242 0.78787,-0.678623 m 24.889034,0.21182 c -0.509195,-0.233109 -1.26217,0.326231 -1.213452,0.740597 0.02536,0.162732 0.170197,0.250744 0.313228,0.30031 0.190111,0.06588 0.479407,0.161884 0.687572,0.16432 0.192125,0.0023 0.239944,-0.10824 0.380484,-0.214151 0.245824,-0.185292 0.339077,-0.145786 0.573509,-0.09081 M 24.584332,19.550029 c 0.279129,-0.431745 0.783529,-0.193445 1.238942,0.638161 0.455411,0.831606 0.393914,1.220086 -0.03511,1.554573 -0.429023,0.334486 -0.74898,0.174562 -0.980871,-0.07734 -0.44499,-0.483378 -0.418351,-1.176033 -0.381808,-1.638758 m 16.310242,-0.688438 c 2.270726,-0.181469 0.930182,0.932369 0.412998,2.17117 -0.14875,0.367722 -0.297499,0.597126 -0.307089,1.006152 m -5.96715,-3.16943 c 0.324245,0.17364 0.317199,0.57663 0.317734,0.900241 2.74e-4,0.144622 0.0027,0.227179 -8.25e-4,0.370688 -0.0039,0.163897 -0.02341,0.25175 -0.04396,0.423643 -0.01896,0.15876 -0.03723,0.267318 -0.04792,0.423643 -0.01931,0.282251 -0.01324,0.718392 -0.01324,1.006152 m -2.02906,-2.867445 c 0,0.40368 -0.004,0.512662 0,0.953198 0.003,0.32361 0.184021,0.503446 0.426822,0.737932 0.162094,0.15659 0.431425,0.264408 0.632287,0.266525 0.139693,0.0014 0.91567,-0.161712 0.98319,-0.09636 m 1.982308,-1.755389 c -8.25e-4,0.261652 -0.05296,0.827056 -0.05296,1.217973 0.119413,-0.0013 0.183757,0.02421 0.476597,-0.158865 M 6.4736076,20.291459 C 6.3609718,20.658757 6.3162773,21.15479 5.838196,21.120899 5.5227945,21.098553 5.29085,20.672261 5.2634179,20.39737 5.2213703,19.975367 5.4725385,19.693063 5.8381432,19.867815 M 7.4268048,21.1917 c 0.057403,-0.176871 0.116766,-0.357396 0.1676034,-0.529554 0.048404,-0.163791 0.00456,-0.400343 0.1066522,-0.570647 0.072289,-0.120632 0.3259411,-0.301688 0.5053008,-0.21537 0.2136219,0.10284 0.2290843,0.538451 0.2887661,0.733061 0.1160245,0.378314 0.1897911,0.900084 0.3085179,1.112064 M 11.50437,19.814861 c -0.150223,0.418655 -0.03193,1.531068 0.371573,1.555192 0.201071,0.0025 0.359355,-0.184072 0.482371,-0.341932 0.115018,-0.147639 0.226066,-0.298298 0.29295,-0.471885 0.10808,-0.280453 0.08898,-0.437133 0.0517,-0.738766 m 15.588266,0.262182 c 0.422109,0.250533 0.825723,0.158863 1.262129,0.158863 M 10.697761,20.079628 c -0.325396,0.267402 0.02253,1.154658 -1.099731,1.562613 -0.2826233,0.01277 -0.376936,-0.276374 -0.3681998,-0.5035 0.1457835,-0.454967 0.328954,-1.070616 0.8447448,-1.006159 m 18.216652,-0.05295 c -0.124665,0.3356 0.01395,0.842196 0.01515,1.270917 l 0.03781,0.741375 m 14.139084,-1.906381 c 0.236126,-0.04384 0.462246,-0.06545 0.688418,-0.04395 0.300099,0.02855 0.625138,-0.01276 0.953196,0.16035 0.209863,0.110676 0.353003,0.196994 0.450122,0.413369 0.123756,0.275739 -0.133341,0.601679 -0.307193,0.789194 -0.159081,0.171523 -0.281248,0.245554 -0.460659,0.35533 -0.15267,0.09336 -0.357609,0.201179 -0.529553,0.271291 -0.221617,0.09035 -0.480467,0.141074 -0.688367,0.05989 -0.665404,-0.370349 -0.183206,-1.546733 0.370642,-1.687755 m -22.506049,-0.211816 -1.072771,2.171171 -0.547452,1.48275 -0.02139,0.476598 M 12.65126,20.55623 c 0.185019,0.220177 0.403147,0.426613 0.600639,0.635445 M 6.3792252,20.587473 6.908779,21.381804 m 32.327397,-0.822939 c 0.202345,0.168081 0.501262,0.344904 0.537643,0.632874 0.05264,0.416071 -0.477816,1.202935 -0.939536,1.10841 -0.691959,-0.448933 -0.03712,-1.212037 0.258998,-1.703759 m -20.757722,0.436403 c 0.09722,0.285536 0.214892,0.627734 0.478876,0.809846 0.316355,0.218229 0.455839,0.0779 0.739097,0.249262 m 17.475333,-1.164986 c 0.03644,0.06789 0.07683,0.127146 0.104058,0.2661 -0.0064,0.545859 0.134946,0.893071 0.05476,1.375484 M 22.307214,21.615305 c 0.618268,0.449478 0.526352,1.106951 0.529554,1.747527 -4e-5,0.146475 0.0069,0.284 -0.0199,0.423643 -0.05544,0.289983 -0.248307,0.701394 -0.297822,0.900242 m -5.401348,3.971639 c -0.1102,-0.206526 -0.102414,-0.43042 -0.106124,-0.741376 -0.0017,-0.139801 -0.05528,-0.371586 -0.04157,-0.529553 0.02055,-0.237346 0.06805,-0.214309 0.141337,-0.476598 0.101459,-0.363486 0.377255,-1.09623 0.85131,-0.724324 0.52839,0.414535 0.625721,1.14389 0.303117,1.677097 -0.156429,0.258528 -0.597178,0.668774 -0.88197,0.777862 -0.161515,0.0619 -0.215213,0.02234 -0.266102,0.0169 l -0.05295,1.323884 m 4.289387,-3.812793 c -0.334679,0.354484 -0.08494,1.435355 -0.05501,2.118215 0.0079,0.181372 -0.0054,0.351254 0.0069,0.529555 0.02934,0.429151 0.01758,0.810057 0.207057,1.165018 m -4.701926,-2.75368 0.158866,0.158866 m 12.592243,-0.15884 c -0.249073,0.558715 -0.517187,0.679148 -0.875627,1.588685 -0.04162,0.197948 -0.05963,0.48359 0.04518,0.683654 0.0814,0.155319 0.213145,0.247672 0.353902,0.330812 0.247248,0.146052 0.574247,0.119045 0.847234,0.05274 0.239356,-0.05815 0.418877,-0.16792 0.582508,-0.272879 m -7.466663,-1.906417 c -2.52154,1.265142 0.516412,1.118988 0.490197,1.906194 -0.05232,0.433281 -0.793807,0.396692 -1.095334,0.468498 m 12.414189,-2.374692 c -0.168887,2.553061 -0.399007,1.952086 0.831311,0.159872 0.08267,-0.117347 0.203135,-0.273513 0.369785,-0.225961 0.212458,0.06054 0.07928,0.65098 0.07928,0.807464 -0.05334,1.293744 0.693962,-0.04774 1.004724,-0.476596 0.362792,-0.46422 0.881866,-0.752672 0.821973,0 -0.01843,0.296018 0.0116,0.586375 -0.0025,0.847285 -0.02633,0.484384 -0.121958,0.828804 0.125713,1.27093 m -6.089886,-2.065261 c 0.532574,0.02438 1.246625,0.227814 1.226554,0.900242 -0.0096,0.320486 -0.198053,0.552588 -0.485231,0.70166 -1.201149,0.836489 -2.277643,-0.682291 -1.592529,-1.290524 0.135405,-0.112268 0.195352,-0.223526 0.333512,-0.302111 0.183279,-0.104216 0.355384,-0.0029 0.464737,-0.06222 m -7.519719,0.31776 c 2.813133,-0.350431 -0.167162,1.514087 0.689429,1.899922 0.145998,0.04565 0.268007,0.01415 0.422636,-0.01492 0.237505,-0.04465 0.380484,-0.08488 0.635465,-0.137475 M 5.202737,28.340675 c 0.3130191,0.09553 0.6108936,0.209755 0.7313676,0.688418 0.043108,0.171311 0.046543,0.298192 0.00698,0.4766 -0.076627,0.345162 -0.3264707,0.806244 -0.6379016,1.00144 C 5.1282157,30.616747 4.859627,30.64434 4.6732234,30.58868 4.5655461,30.556481 4.4119757,30.46519 4.3038413,30.382899 4.1618146,30.274816 4.0951441,30.196868 4.0377398,30.141157 3.9192259,30.258292 3.7617894,30.454705 3.5611412,30.492674 3.0314294,30.592969 2.7600326,29.930182 2.5527123,29.505693 2.4246135,29.24351 2.3183847,29.167785 2.2372566,29.082048 M 18.865227,28.446583 c -0.100721,0.24725 -0.177718,0.463149 -0.202767,0.741376 -0.01408,0.1559 -0.0224,0.320487 0.113697,0.418085 0.833887,-0.04267 1.079093,-1.478324 1.428636,-0.629918 0.0654,0.25463 0.151566,0.477743 0.302058,0.688441 M 8.9625706,28.976138 c 0.2939557,-0.05417 0.3862038,0.07239 0.5388736,0.265571 0.1224858,0.155052 0.1778246,0.284687 0.1615133,0.475804 -0.030978,0.36391 -0.2655176,0.752868 -0.5435858,0.980574 -0.2396769,0.196254 -0.4836421,0.196678 -0.7922664,0.183439 -0.1923871,-0.0083 -0.37826,-0.09172 -0.4952389,-0.233005 -0.112371,-0.135723 -0.1162892,-0.19694 -0.1402247,-0.242589 -0.1241282,0.05502 -0.2220961,0.122435 -0.3707949,0.142082 -0.5432155,0.07176 -0.7052593,-0.602157 -0.7942244,-0.883457 M 13.613484,29.33103 c 0.661756,0.245238 -0.129005,1.521234 -0.732214,1.546381 -0.403352,-0.110276 -0.793913,-0.351317 -0.947061,-0.745277 M 4.0377398,29.452735 c 0.09638,0.329116 0.020655,0.426503 0,0.688422 m 6.3546232,-0.635482 c -0.01266,0.115867 -0.02648,0.245075 0.02144,0.423643 0.08642,0.322022 0.394624,0.696521 0.772884,0.680583 0.270973,-0.01143 0.632923,-0.314822 0.747519,-0.477767 0.08171,-0.116182 0.130535,-0.195085 0.152934,-0.35321 m 15.303897,-0.273249 0.158864,0.158865 m -19.8053066,0.264797 -0.052949,0.476597 m 8.0492116,0.05297 h 0.05295 M 128.48288,54.447693 c 0.62434,-0.06778 1.10941,-0.750911 1.48751,-1.217976 0.20918,-0.25789 0.3601,-0.44853 0.5322,-0.741373 0.86959,-1.262818 -0.61126,-1.305599 -1.64903,-1.470044 -0.28172,-0.04925 -0.42788,-0.113322 -0.68841,-0.194874 -0.95373,-0.297079 -1.73958,-1.025216 -2.02978,-1.989003 -0.0545,-0.181584 -0.09,-0.339338 -0.14086,-0.529557 -0.0577,-0.217805 -0.0964,-0.485706 -0.10644,-0.688418 -0.009,-0.191383 -0.0461,-0.318102 -0.0504,-0.529552 -0.006,-0.303754 0.0721,-0.6092 0.10592,-0.900242 0.11332,-0.968977 0.5931,-1.951672 1.12794,-2.753679 0.35321,-0.528764 0.83511,-1.135893 1.35832,-1.501341 0.2097,-0.146528 0.60474,-0.327318 0.84358,-0.16109 0.26583,0.185293 0.16256,0.511177 0.16256,0.815141 m -30.767079,-0.58252 c 0.244382,0.621258 0.694906,1.04221 1.058068,1.535711 0.106434,0.144094 0.19223,0.280084 0.301841,0.423645 0.59628,0.783 1.24234,1.578336 1.69247,2.435947 0.19434,0.370742 0.38021,0.77156 0.54861,1.165021 0.17845,0.416014 0.67023,1.167285 1.04356,1.460342 m 1.65714,-6.914757 c -0.0492,0.386946 -0.23407,0.803122 -0.32196,1.323888 -0.0751,0.445301 -0.18377,1.084839 -0.20548,1.535702 -0.007,0.154633 -0.0127,0.273676 -0.0328,0.423643 -0.018,0.14065 -0.0169,0.223473 -0.0243,0.370687 -0.0508,1.034593 -0.36805,2.144643 -0.57563,3.177325 -0.0678,0.338917 -0.16205,0.643407 -0.27802,1.006154 -0.30132,0.942074 -0.50943,1.832783 -0.83458,2.806633 -0.21181,0.632287 -0.41517,1.160255 -0.42788,1.747528 m 7.096,-0.529552 c 0.017,-0.370161 0.0683,-0.3691 0.11438,-0.741379 0.0184,-0.150922 0.0423,-0.270073 0.0661,-0.423639 0.0393,-0.252068 0.0593,-0.449064 0.0794,-0.741378 0.0179,-0.260541 0.0185,-0.454356 0.0577,-0.741377 0.0774,-0.565561 0.10592,-1.313823 0.10592,-1.906393 0,-1.568112 -0.24467,-3.069453 -0.45384,-4.607118 -0.0429,-0.311798 -0.0546,-0.70118 -0.0979,-1.006152 0.0624,-0.329648 -0.22506,-1.260864 -0.30121,-1.50966 m 1.85924,1.086024 c 0.1369,0.721644 0.076,1.462296 0.10536,2.224115 0.004,0.114441 0.007,0.196837 0.0227,0.317734 0.0429,0.32361 0.0668,0.611158 0.0815,0.953197 0.008,0.188203 -5.4e-4,0.286701 0.0244,0.476597 0.0238,0.178621 0.0302,0.289561 0.0308,0.476599 0.002,0.887903 0.0212,1.906924 -5.4e-4,2.806636 -0.028,1.13907 -0.39028,2.533387 -0.0524,3.600967 m 32.99122,-10.220378 -0.053,0.582508 0.0222,0.529555 0.0815,1.165021 -0.0419,3.124363 -0.009,0.423646 -0.0683,0.953196 -0.0868,0.582509 -0.0964,0.794333 -0.12126,0.741371 -0.0832,0.688423 -0.0736,0.635465 m 5.37467,-9.689354 0.42364,0.03494 0.37068,-0.03077 0.42365,0.04898 0.5825,0.134029 2.27709,0.198639 0.4766,0.03855 0.84729,0.112055 0.47659,0.08044 0.4766,0.336321 m -4.1033,-0.160358 c 0.22506,0.367084 0.3331,1.030776 0.41042,1.48275 0.0259,0.148857 0.0603,0.26488 0.0921,0.423645 0.0312,0.15722 0.0265,0.245232 0.027,0.423639 5.5e-4,0.288925 -0.0227,0.405267 0.009,0.741376 0.0366,0.385042 0.0111,0.728668 -0.0398,1.112063 -0.0461,0.352156 -0.0561,0.765206 -0.1059,1.112064 -0.0207,0.145629 -0.0376,0.276957 -0.0689,0.423645 -0.10011,0.464945 -0.15198,0.997678 -0.23354,1.482749 -0.0477,0.286488 -0.1059,0.579333 -0.20122,0.847285 -0.23989,0.540951 -0.36992,0.758634 -0.33249,1.186219 0.0794,0.08261 0.27484,0.08367 0.38975,0.08473 0.56557,0.0037 0.93943,0.07625 1.4298,0.05296 m 7.25533,-9.320171 c -0.008,0.263031 -0.14722,0.540833 -0.15834,0.794333 -0.006,0.151981 -0.0196,0.26573 -0.0381,0.423642 -0.0174,0.14727 -0.0138,0.22898 -0.0154,0.370688 -0.003,0.194399 -0.0413,0.368938 -0.0509,0.58251 -0.0201,0.460077 0.007,0.861476 -0.003,1.270929 -0.005,0.176447 -0.0344,0.289137 -0.0477,0.4766 -0.0514,0.7329 -0.16363,1.355128 -0.16363,1.906395 l -0.47659,-0.0482 -0.74138,-0.05189 -0.47659,-0.05878 m 14.13908,-5.295541 c 0.006,0.790676 0.15994,1.603332 0.15886,2.38299 -5.3e-4,0.192762 -0.0222,0.338387 -0.0227,0.529558 -8.9e-4,0.280292 0.0265,0.623283 0.0217,0.847285 -0.004,0.177929 -0.0514,0.576684 -0.0747,0.741378 -0.0159,0.111734 -0.0297,0.195405 -0.0456,0.31773 -0.0285,0.215526 -0.10063,0.544382 -0.13927,0.90024 -0.0445,0.40564 -0.12126,0.655059 -0.21606,1.112063 -0.0661,0.321443 -0.1308,0.592044 -0.21129,0.900243 -0.13768,0.527963 -0.14615,0.803862 -0.21235,1.323882 m -32.49546,-1.039673 c -0.20942,-0.368468 0.027,-1.321935 0.17287,-1.642096 m 35.30723,0.0026 c -0.30291,0.53432 -0.44087,1.856406 0.34976,2.118851 m -3.81085,-3.993838 0.567,0.130802 0.68842,0.186933 m 0,0 c 0.23247,0.07943 1.01992,0.321443 1.37684,0.529558 M 107.30079,50.81967 c 0.56026,-0.04766 0.5825,0.446414 0.28225,0.783211 -0.23565,0.264778 -0.48984,0.491956 -0.81181,0.653472 -0.24465,0.122855 -0.47659,0.225589 -0.74137,0.290194 -0.14511,0.03549 -0.25963,0.100455 -0.37295,0.04645 m 1.64386,-1.773325 c -0.27166,0.0233 -0.59363,0.171046 -0.79433,0.350567 -0.28438,0.254187 -0.60369,0.566092 -0.7848,0.894414 -0.26796,0.55796 -0.38139,0.594055 -0.46413,1.006118 -0.0631,0.315088 -0.10962,0.658239 0.0106,0.953197 0.11703,0.285959 0.32833,0.503607 0.6021,0.621168 0.57986,0.248892 1.04746,0.07625 1.48275,0.06726 m 51.89698,-3.495013 c -0.19766,0.744778 -0.37571,1.918996 -0.59068,2.806602 -0.10485,0.420994 0.004,0.896518 -0.0984,1.323866 m 0.68907,-4.130468 c 0.17687,0.03707 0.2992,0.08314 0.58251,0.158867 m -26.74236,0.204386 c 0.33679,-0.07043 0.48347,0.113856 0.71066,0.319855 0.30714,0.278017 0.82716,0.145096 1.09034,0.537496 0.12233,0.183757 0.18111,0.38128 0.14141,0.57986 -0.13399,0.674655 -0.9818,1.183553 -1.62468,1.299527 -0.63387,0.113856 -1.39485,-0.239888 -1.37367,-0.92884 0.0127,-0.419405 0.30239,-0.855755 0.47025,-1.217969 0.13768,-0.298143 0.32461,-0.53538 0.58569,-0.589929 m -17.05164,0.378022 c 0.25577,0.804398 0.30926,1.608787 0.80599,2.33004 0.14138,0.205465 0.30343,0.40299 0.5179,0.524786 0.18533,0.105384 0.38762,0.136098 0.5735,0.01058 0.16946,-0.114913 0.29813,-0.292312 0.43265,-0.429468 0.2976,0.273251 0.44536,0.457004 0.90025,0.469712 0.40774,0.01165 0.6164,-0.146683 0.87694,-0.42576 0.15144,-0.162571 0.26158,-0.307668 0.34315,-0.520548 0.32144,-0.83352 -0.089,-1.895274 -0.58463,-1.906393 m 16.89277,0.105906 c -0.28806,-0.123381 -0.34791,-0.0413 -0.53643,0.212881 -0.22559,0.303435 -0.36697,0.598927 -0.47501,0.952139 -0.15228,0.649854 0.2565,0.920592 0.79923,1.052332 0.15781,0.0376 0.25947,0.05508 0.42365,0.05931 0.33044,0.0079 0.45753,5.5e-4 0.68841,5.5e-4 m -24.99242,-2.263433 c 0.23459,-0.07996 0.37968,0.278016 0.6344,0.300786 0.32302,0.02913 0.34209,-0.06143 0.63229,0.05612 0.20124,0.08208 0.51367,0.298138 0.52743,0.582506 0.0212,0.434766 -0.44005,0.860529 -0.79009,1.050105 -0.15463,0.08314 -0.30819,0.155691 -0.4766,0.216058 -0.20441,0.07308 -0.32514,0.109619 -0.52956,0.106443 -0.35956,-0.0064 -0.6381,-0.36486 -0.6794,-0.737139 -0.0408,-0.369628 0.13133,-0.724959 0.29601,-1.059106 0.0986,-0.200172 0.15887,-0.439002 0.38552,-0.515786 m 48.46709,1.306844 c 0.38287,-0.01748 0.64957,-0.214374 1.04407,-0.439435 0.15359,-0.08738 0.28332,-0.198584 0.42366,-0.302908 0.18216,-0.135564 0.50466,-0.426816 0.0519,-0.555497 -0.41517,-0.118095 -0.92619,0.213936 -1.21215,0.508897 -0.10909,0.112798 -0.25631,0.294964 -0.31508,0.421524 -0.11492,0.230196 -0.1421,0.528001 -0.14526,0.688483 0.0514,0.290191 0.33309,0.672532 0.66671,0.729724 0.25102,0.04237 0.67943,-0.05667 0.84729,-0.04131 M 178.9667,53.15308 c 0.44458,-0.189586 0.6086,-0.303625 0.64911,-0.716778 -0.0689,-0.386574 -0.52321,-0.265833 -1.01061,0.211324 -0.48739,0.477156 -0.58165,0.755172 -0.53453,1.111565 0.0497,0.373864 0.11968,0.747728 0.39823,1.026275 0.18693,0.187461 0.40669,0.285426 0.6916,0.290724 0.28384,0.0058 0.51367,-0.156748 0.74137,-0.310848 m -2.22377,-2.488966 c 0.0906,0.655061 -0.63758,1.523524 -1.06123,1.959351 -0.21023,0.216058 -0.53168,0.550735 -0.82875,0.250477 -0.33414,-0.337855 -0.15357,-0.963256 -0.12233,-1.362538 m -12.60371,1.588719 c -0.043,0.614311 0.59512,-0.818385 0.68578,-1.006155 0.1774,-0.384456 0.30766,-0.825045 0.62381,-1.12424 0.14404,-0.136098 0.27484,-0.257896 0.4909,-0.233006 0.17952,0.02066 0.3262,0.144568 0.47659,0.245182 m -10.69698,-0.105908 c -0.46519,2.663761 -0.95554,3.102137 0.48425,0.68836 0.23778,-0.35321 0.54121,-0.766264 0.94633,-0.933605 0.32143,-0.132915 0.48983,0.06249 0.51735,0.351095 0.0127,0.135568 -0.0191,0.234066 -0.0317,0.370691 -0.0143,0.150923 -0.008,0.27007 -0.009,0.42364 -0.003,0.51367 -0.053,0.901302 -0.053,1.376842 m -14.66906,-1.376785 c -0.0742,0.06619 -0.20865,0.266367 -0.38021,0.391873 -0.15465,0.112794 -0.26849,0.102735 -0.41413,0.164691 -0.21605,0.09214 -0.45012,0.261069 -0.68841,0.335208 -0.27167,0.08526 -0.42153,0.178987 -0.74138,0.09744 -0.19169,-0.04873 -0.3029,-0.161515 -0.28914,-0.353743 0.0148,-0.203348 0.19753,-0.410402 0.3511,-0.560264 0.46707,-0.454889 1.00721,-0.64182 1.5267,-0.710664 m -2.54185,-3.865702 c -0.14775,-0.349504 -0.1541,-0.287958 -0.053,-0.629521 m 28.96657,5.44842 c -0.10803,0.228238 -0.13981,0.477658 -0.32515,0.712252 -0.11014,0.140331 -0.26796,0.187988 -0.41622,0.290193 -0.14193,0.09744 -0.26744,0.175289 -0.42366,0.241477 -0.44058,0.184818 -1.05217,0.202292 -1.13483,-0.396633 -0.028,-0.20176 0.0181,-0.395049 0.0625,-0.58251 0.053,-0.225593 0.0546,-0.329916 0.18586,-0.527435 0.22834,-0.232072 0.82628,-0.564623 0.93941,-0.160986 m 3.75982,2.224127 c -0.13344,0.01324 -0.27484,0.07679 -0.52955,0.100618 -0.33891,0.03125 -0.85788,0.01165 -1.06281,-0.315084 -0.31192,-0.497785 -0.005,-1.160782 0.2796,-1.586016 0.18322,-0.274307 0.32885,-0.553912 0.6773,-0.476599 m -51.23751,0.42841 0.0217,0.312968 0.008,0.423643 m 56.02158,-4.6666 c -0.20494,-0.131327 -0.48084,-0.451178 -0.26478,-0.741372 m -32.67632,4.793301 0.008,0.508805 c 0,0.467065 0.0259,1.128478 0.68842,1.165018 m 5.77213,-1.165006 0.10592,0.105911 -0.10592,-0.105911 m 0.10584,0.105916 c 0.35374,0.06566 0.73395,4e-6 1.04004,0.03654 0.59151,0.06937 1.02998,0.119677 1.58866,0.143506 m 16.5863,-0.156279 c -0.0159,0.170517 0.0159,0.373864 0.21183,0.688418 m -66.76895,7.813624 c -0.0582,-0.312432 -0.053,-0.641818 -0.053,-0.953197 v -0.42363 c 0,-0.129741 0.003,-0.236711 -5.4e-4,-0.37069 -0.005,-0.19911 -0.0731,-0.547026 -0.0509,-0.741373 0.0323,-0.285959 0.11808,-0.229298 0.15675,-0.476597 0.0164,-0.104324 5.4e-4,-0.404052 5.4e-4,-0.529557 0,-0.422585 0.0462,-0.920363 0.16099,-1.323885 0.11809,-0.414638 0.33362,-0.873763 0.57191,-1.217973 0.34845,-0.504136 0.82558,-0.593629 1.27465,-0.15357 0.21446,0.210762 0.36062,0.429468 0.49088,0.683125 0.29127,0.567153 0.36063,1.326 -0.17051,1.752822 -0.16999,0.136624 -0.32991,0.228768 -0.52743,0.324088 -0.23512,0.112795 -0.48137,0.237769 -0.74137,0.246241 -0.24785,0.0079 -0.29233,-0.03919 -0.47661,-0.151982 m 9.05537,1.641619 c -0.15445,-0.285093 -0.0171,-0.481965 0.0519,-0.688421 0.0191,-0.148275 0.0466,-0.271662 0.0673,-0.423644 0.0186,-0.140861 -0.007,-0.225588 0.008,-0.370686 0.0222,-0.20123 0.0996,-0.339443 0.14987,-0.529555 0.10644,-0.40246 0.13185,-0.73502 0.24783,-1.112064 0.0847,-0.274838 0.27695,-0.594158 0.48189,-0.792211 0.15411,-0.148803 0.28807,-0.27643 0.52849,-0.253127 0.49566,0.04713 0.62647,0.599454 0.7149,0.992386 0.0403,0.180045 0.0911,0.345795 0.0725,0.529552 -0.025,0.243065 -0.24889,0.528497 -0.19327,0.786387 0.0323,0.149335 0.13873,0.147216 0.25365,0.174753 0.10323,0.0249 0.26529,0.07625 0.37015,0.120739 0.51154,0.216585 1.02998,0.650289 0.94896,1.248161 -0.0291,0.216057 -0.12921,0.411461 -0.24994,0.582506 -0.21977,0.310847 -0.57933,0.594158 -0.91084,0.777915 -0.27695,0.153039 -0.46865,0.207055 -0.74138,0.259479 -0.15039,0.02913 -0.26582,0.09638 -0.41887,0.06354 -0.18641,-0.04024 -0.22717,-0.155688 -0.26955,-0.200699 M 100.09792,58.20748 c 0.1668,0.563443 0.0233,1.297936 0.26901,1.852381 0.0492,0.109617 0.15539,0.289696 0.20938,0.371779 m 19.37988,1.853403 -0.45277,-0.847284 -0.18852,-0.386045 0.006,-0.498841 0.30451,-0.438999 0.76255,-1.323885 c 0.2018,-0.317782 0.45899,-0.428561 0.78585,-0.582509 m 3.86574,0.264777 -0.0243,0.794329 -0.3458,1.429797 c -0.11725,0.417012 -0.22503,0.794387 -0.15944,1.217973 m 2.85959,-3.442099 1.37684,0.741375 m -10.6434,-0.635452 c 0.13769,0.160983 0.24201,0.306611 0.36328,0.476597 0.10644,0.149336 0.1917,0.269013 0.27854,0.423646 0.24571,0.435823 0.37599,0.781614 0.57615,1.074459 m -13.69956,-1.446205 c 0.37917,0.247298 0.86901,0.203348 1.075,0.742433 0.2383,0.624344 -0.13027,1.237566 -0.44112,1.747528 -0.21923,0.360098 -0.6111,0.745082 -1.02044,0.90077 -0.70484,0.267425 -1.0803,-0.519494 -1.12531,-1.112592 -0.0482,-0.634935 0.2277,-1.354072 0.5428,-1.906393 0.15198,-0.266367 0.24041,-0.557092 0.52954,-0.683657 0.2489,-0.109085 0.27537,0.204407 0.43953,0.311911 z m 21.27219,-0.369618 c -2.33527,3.337796 0.005,1.389594 0.93625,2.39305 0.23776,0.275371 0.11861,0.675183 -0.10962,0.919835 -0.53326,0.570863 -1.45839,0.5375 -1.9387,0.446948 M 115.1905,59.425477 c 0.42205,0.137156 1.39802,0.359036 1.9011,0.901303 0.12073,0.129736 0.24041,0.298135 0.25366,0.475538 0.0381,0.504133 -0.57034,0.943664 -1.0427,0.997151 -0.76361,0.08579 -1.61674,-0.31191 -1.73164,-1.156016 0.0546,-0.704399 0.507,-1.63332 1.20102,-1.813192 0.28173,0.05931 0.23724,0.350561 0.37175,0.542262 m 13.60954,-0.4766 0.053,1.217976 -0.26901,2.17117 -0.10167,0.741375 m -10.80288,-0.476591 c 0.0514,-0.379692 0.21922,-0.876415 0.40563,-1.214799 0.0847,-0.1541 0.22566,-0.237259 0.27649,-0.283331 m 4.08391,4.463633 c 0,0.572444 -5.5e-4,0.353738 0,0.847284 5.5e-4,0.24836 0.053,0.667764 0.053,0.953198 -0.36302,2.138428 0.61708,4.257294 -0.4703,1.641615 l -0.32408,-0.900239 -0.52003,-1.376843 -0.24306,-0.370685 c -0.93504,-0.970353 -1.03107,-0.52335 -0.84086,0.423641 0.23777,1.154956 0.28225,2.766392 0.0683,3.918699 m 6.51346,-5.083718 -0.21183,1.165017 -0.27006,1.006155 -0.16682,0.370687 -0.11808,0.423643 -0.40777,1.165018 -0.52001,1.535709 m -10.85586,-5.560318 0.035,0.423643 0.0133,0.900242 -0.154,0.900219 c 0.53219,-0.128151 0.74445,-0.118066 1.42969,-0.476574 m 20.53899,-1.821493 c 0.215,0.06036 0.37863,0.0932 0.5825,0.1631 0.41146,0.141393 0.63441,0.309263 0.90025,0.472366 m -38.28049,2.033299 c 0.0726,-0.229296 0.55689,-1.130054 0.6771,-1.376828 0.15092,-0.310317 0.44218,-0.972262 0.80651,-0.972262 0.36117,0 0.5518,0.83087 0.61164,1.131129 0.0646,0.326734 0.13397,0.943665 0.17475,1.270927 0.0148,0.117035 0.0227,0.197528 0.0392,0.317733 0.0169,0.131331 0.018,0.246775 0.0243,0.370692 0.0169,0.352682 0.0969,0.706952 0.15675,1.059106 m 31.82623,-4.024609 c -0.14615,0.20282 -0.19753,0.706953 -0.24942,1.112063 -0.0138,0.104852 -0.0285,0.36539 -0.1075,0.440586 -0.0964,0.09161 -0.18216,0.06409 -0.27855,0.0842 -0.1202,0.0249 -0.34051,0.11174 -0.47659,0.160988 -0.21766,0.07837 -0.49513,0.197522 -0.7382,0.136624 -0.3977,-0.100087 -0.0492,-1.059636 0.0434,-1.35195 0.054,-0.16946 0.11543,-0.36698 0.16309,-0.52638 0.0456,-0.15145 0.10486,-0.178987 0.21395,-0.214997 m -2.27708,0.05295 0.11278,0.423645 0.0497,0.423643 0.0726,1.112063 0.0402,0.423639 -0.008,0.423647 -0.002,1.006151 0.053,0.476596 m -5.87807,-4.07756 c 0.28687,-0.22646 0.48823,0.287869 0.62011,0.476597 0.35746,0.503076 0.68697,1.249855 1.18475,1.492922 m 14.29358,-1.969519 c 0.30926,0.178988 1.13909,0.316673 1.9064,0.317733 0.28543,5.49e-4 0.85841,-0.06885 1.00139,0.222941 -0.0397,0.3594 -0.34561,0.589595 -0.65343,0.820666 -0.47906,0.314383 -0.34055,0.3822 0.10807,0.473164 0.35838,0.06703 0.76948,0.143254 1.00925,0.444688 0.2722,0.342093 0.027,0.834581 -0.1345,1.162899 -0.0969,0.195939 -0.224,0.405111 -0.36115,0.582514 -0.35321,0.456473 -0.64923,0.743491 -1.12902,0.953197 m -7.04254,-4.924848 c -0.22983,0.158338 -0.66089,0.638112 -0.89972,1.006152 -0.42873,0.645802 -0.0247,0.662848 0.58198,0.758322 0.59098,0.102726 1.25346,0.330969 1.60455,0.792743 0.24465,0.321965 0.2023,0.80439 -0.12445,1.076051 -0.58938,0.48878 -1.23967,0.175814 -1.69191,0.0736 m -35.10943,-3.54801 c -0.29848,0.302672 -0.25725,0.607584 -0.25557,1.006149 l 0.0285,0.423645 0.0132,0.4766 -0.156745,1.37684 m 39.981315,-2.435948 -0.10803,1.165021 -0.0466,0.847284 -0.005,0.423643 5.4e-4,0.741372 m -5.70554,-2.789675 c -0.002,0.487185 -0.188,1.169783 -0.37069,1.853435 M 113.3903,67.951272 c -0.15145,-0.0064 -0.32356,-0.06248 -0.4766,-0.0164 -0.99435,0.287349 -0.9253,2.945958 -1.16924,1.884234 m 3.23451,-1.920785 c -0.0265,0.186403 -0.12763,0.325676 -0.1504,0.529552 -0.0492,0.440059 0.24094,0.616401 0.52108,0.856289 0.35798,0.306614 0.67518,0.682066 1.16502,0.732375 m -12.70893,-0.894418 c 0.20971,-0.06037 0.83194,-0.446415 0.68102,-0.723901 -0.15994,-0.294959 -0.74722,0.04713 -0.88966,0.246243 -0.50369,0.757374 0.36242,1.442471 1.05593,1.583904 m 5.77213,-1.747527 c 0,0.604224 -0.0842,1.058048 -0.68841,1.346657 -0.39187,0.186933 -0.97227,0.0043 -0.94313,-0.552326 0.0122,-0.234589 0.006,-0.353739 0.12761,-0.513666 0.26531,-0.349506 0.62859,-0.136625 0.86847,0.09002 m -2.33005,-0.158863 c 0.19117,0.162573 0.5518,0.562916 0.41834,0.952136 -0.10115,0.29708 -0.38551,0.34633 -0.68312,0.285433 -0.46335,-0.09479 -0.63493,-0.414642 -0.74137,-0.760969 m -1.21798,-0.317733 c -0.17528,0.436349 0.13609,1.785122 0.89125,1.187787 0.16628,-0.131327 0.36997,-0.376461 0.46795,-0.524207 m 8.23385,-1.087238 c -0.14722,0.265307 -0.0997,1.519301 -0.32585,2.118228 m -4.16714,-1.318001 0.26477,0.317733 m 7.66219,0.470721 c 0.0843,0.508899 -0.22347,1.107825 -0.42364,1.588662"
       id="path8832"
       sodipodi:nodetypes="ccccccccccccccccccsccccccsccccccccccccscccccccccccccccccccccccccccccccsccccccccccsccccccccccccccccccccccsccccccccccccccccscscccscccccccscscscccccccccccssccccccccccccccccccccccccccccccccccsccccccccccccccccccccscccccccccccccccccccccccccccccccccccccccccccccccccccccccccccccscccccccccssccccsscscccccccccccccccccccccssccccccscccccccccccccccsccccccccccccccccccccscccccccccccccccscccccccccccccccscccccscccccccsccccccccsccccccsccccccccccccsccccccccccccccscccccccccscscccccccccccccccccccccccccccccccccccccccccccscccccccccccccccccccccccccccccccccccccccccccccccccccccccccccccccccccccccccccccccccccccccccccccccccccccccccccccccccccccccccccccccccccccccccccccccccccscccccccccccccccccccccccccccccccccccccsccccccccccsscccssccssccccccccccccccccccccccccccccccccccccccccccccccssccccccccccccccccccccccccccccccccccccccccccccccsccccccccccccccccccccccccccccccccccccccccccccccccccccccccccccccccccccccsccccccccccc" />
  </g>
</svg>
