<?xml version="1.0" encoding="UTF-8" standalone="no"?>
<!-- Created with Inkscape (http://www.inkscape.org/) -->

<svg
   width="210mm"
   height="297mm"
   viewBox="0 0 210 297"
   version="1.1"
   id="svg28915"
   inkscape:version="1.1 (c68e22c387, 2021-05-23)"
   sodipodi:docname="Casey - Pulsz - Envelope 53.svg"
   xmlns:inkscape="http://www.inkscape.org/namespaces/inkscape"
   xmlns:sodipodi="http://sodipodi.sourceforge.net/DTD/sodipodi-0.dtd"
   xmlns="http://www.w3.org/2000/svg"
   xmlns:svg="http://www.w3.org/2000/svg">
  <sodipodi:namedview
     id="namedview28917"
     pagecolor="#ffffff"
     bordercolor="#666666"
     borderopacity="1.0"
     inkscape:pageshadow="2"
     inkscape:pageopacity="0.0"
     inkscape:pagecheckerboard="0"
     inkscape:document-units="mm"
     showgrid="false"
     inkscape:zoom="1"
     inkscape:cx="327.5"
     inkscape:cy="193.5"
     inkscape:window-width="1280"
     inkscape:window-height="657"
     inkscape:window-x="-8"
     inkscape:window-y="-8"
     inkscape:window-maximized="1"
     inkscape:current-layer="layer1" />
  <defs
     id="defs28912" />
  <g
     inkscape:label="Layer 1"
     inkscape:groupmode="layer"
     id="layer1">
    <path
       style="fill:none;stroke:#1f2229;stroke-width:0.0639186"
       d="M 5.6809873,5.0411737 C 6.683362,4.9700566 7.3739179,5.0312511 7.7229318,4.2932842 7.9535728,3.8897541 7.646812,3.8068945 7.3832997,3.5886583 6.4674105,2.8269867 4.9231458,1.1631788 6.9797165,1.3734288 l 0.319593,0.1597915 M 24.813021,1.8847679 c 0.180954,0.2649422 0.170726,0.3051479 0.226528,0.5752683 0.163676,0.8285775 0.01235,1.8190907 0.02915,2.5567427 m 9.076452,-2.1732358 c -0.777468,-0.4827355 -0.879524,0.6048847 -0.848586,1.1505356 0.139929,0.4177595 0.124354,0.9098696 0.247749,1.2144542 0.18888,0.4564425 0.473574,0.8331154 0.920427,1.0166898 0.247942,0.1018255 0.419182,0.1277735 0.703106,0.1338453 M 21.744926,2.3961179 c 0.44763,0.2027069 0.367987,0.8886451 0.383513,1.2783729 C 21.841252,3.6597258 21.603091,3.537385 21.169659,3.418816 m 4.750555,-0.752619 c -1.2934,0.1245574 -0.870866,1.4119699 0.129922,1.6576038 M 12.98807,3.9301747 c 1.240248,-1.4857294 -2.222076,-0.7677814 0.191756,0.639187 m 5.880509,0.5113434 c 0.334807,0.1047041 0.495243,0.1630557 0.830943,0.1860676 0.200832,0.013746 0.338258,0.012333 0.511349,-0.01355 C 22.743315,3.976871 17.11627,3.2375381 20.274801,2.9074608 M 38.073005,6.0046236 C 37.956802,5.6105009 38.186824,5.0548404 38.4442,4.7487973 M 29.287328,3.2909888 c -1.374397,0.3673926 0.13834,1.0032639 0.01681,1.5913192 -0.133461,0.5048284 -1.103491,0.5217041 -1.42302,0.5819142 M 27.036113,4.2876983 c 0.09415,-0.00965 0.09326,-0.031722 0.267501,-0.1206991 C 29.439693,2.642703 24.99315,3.06838 27.433689,4.9528796 M 23.470729,4.0580121 C 23.218842,3.9439345 23.106134,3.9165879 22.91304,4.0496421 22.611983,4.3964017 23.134453,4.7329967 23.534648,4.595636 24.091549,4.3138301 23.926712,3.8492655 24.301672,4.505447 M 8.7055152,3.7384217 8.7413433,4.27553 C 8.7771713,4.4930447 8.9451499,4.8011972 9.3389525,4.6495183 9.7333954,4.4976468 9.7879817,4.3427086 9.919973,3.9301768 m 4.985656,0.9587805 C 14.652635,4.7925083 14.395752,4.579044 14.217854,4.3195857 13.702607,2.2353383 16.410358,3.9495077 14.432823,3.9721697 m 7.695616,-0.2976789 0.383512,0.1278374 m 20.134361,0.063922 c -2.521028,1.478973 2.151108,1.123757 -0.575261,2.6845712 M 22.128439,3.6744908 22.19235,4.8889451 M 9.8003596,4.2703596 C 10.667469,4.9807792 10.967598,4.4728722 11.130199,3.5203259 M 16.184,4.8889552 c 2.042806,0.8539261 0.934165,-3.4761084 0.06392,-0.5752735 -0.192723,0.9341914 -0.324437,1.0457224 -0.212386,1.7877509 m 20.47083,-0.889113 c 0.143561,0.059699 0.193675,0.1261118 0.242571,0.2574002 0.307497,0.7063793 -0.416443,0.7370067 -0.750143,0.7173504 -1.036404,-0.6450665 -0.171884,-1.2355829 0.507572,-0.9747506 z m 1.839047,-1.366525 0.06392,-0.2556741 m 1.051461,2.0802685 c -0.43283,1.2892154 1.616076,-3.1501892 1.097786,0.039155 M 22.150613,8.0325942 22.078,9.9399951 c -0.01349,0.8207839 0.0043,1.8427779 0.05043,2.4274419 M 5.2539121,8.5323174 c 0.4565073,-0.1688085 0.8474982,-0.073051 1.3422917,-0.063911 0.3184436,0.0059 0.8033938,0.1124335 0.9765499,0.447431 0.060727,1.0797169 -1.0294949,1.6151496 -1.5302767,2.3010006 -0.1183135,0.166507 -0.1359552,0.327135 0.052161,0.416302 0.5830025,0.276448 1.6012253,-0.08744 2.0995355,0.0312 M 9.1529508,8.5962454 c 0.4058835,-0.017449 0.8058222,-0.094728 1.2144542,-0.052991 0.13391,0.013621 0.379357,0.039629 0.463283,0.1544916 0.123618,0.1691287 -0.07236,0.3085361 -0.206011,0.4366922 -0.157431,0.150848 -0.234453,0.2451922 -0.321191,0.3566661 0.09952,0.055808 0.208695,0.1232981 0.383831,0.169448 0.217771,0.057391 0.551427,0.1337827 0.765745,0.2760011 0.357817,0.2374576 0.480222,0.5962976 0.212595,0.9498316 -0.503382,0.531755 -0.908493,0.627508 -1.617845,0.841867 m 3.643363,-2.5567426 c -1.072573,-0.749464 -1.119713,0.8452396 -0.308727,1.0742166 0.452352,0.106297 1.253764,-0.243018 1.651019,-0.243273 M 50.572236,9.4910991 c -0.322155,0.7822099 0.04804,1.4837599 -0.04402,2.2387489 -0.011,0.217771 -0.01491,0.357816 -0.03061,0.509751 -0.04551,0.695053 -7.92e-4,1.091602 -0.11713,1.789724 M 36.446215,12.431351 c 0.05618,-0.263089 0.09964,-0.273125 0.172836,-0.575269 0.04487,-0.1853 0.07734,-0.324706 0.13455,-0.511348 0.171074,-0.778145 0.427295,-1.3783786 0.651391,-1.7269453 0.261814,-0.4072349 0.290758,-0.108349 0.303853,-0.0091 0.177475,0.5786853 0.488582,1.1573683 0.453453,1.7360533 l 0.0636,0.44743 0.137872,1.342291 M 18.432111,8.8720586 c -1.029122,0.073087 -1.921086,-0.0436 -1.50799,2.0891634 0.164659,0.228148 0.510461,0.561178 0.815192,0.938713 0.504166,0.624619 0.769501,0.587422 1.193197,0.595334 m 26.142718,0.639193 c 1.553306,-4.0722116 1.818056,-4.301274 1.722355,-0.830948 0.09664,0.440208 0.03113,0.363186 0.01729,0.613042 l -0.01384,0.665337 M 13.382448,10.245722 c -3.338403,1.461503 0.771669,3.056357 0,0 m 19.991425,0.216321 c -0.939388,-0.395296 -1.01142,0.582214 -0.315279,0.934921 0.35085,0.195016 0.981406,0.305724 0.951238,0.778721 -0.01705,0.267882 -0.265774,0.46635 -0.450819,0.601729 -0.327573,0.191632 -0.649772,0.193134 -1.011858,0.165272 m 26.909781,-2.364968 c -0.145097,0.463603 -0.04283,1.057471 -0.183449,1.556901 -0.140617,0.49943 -0.222435,1.355747 -0.45574,2.086466 M 26.730533,12.814872 c -0.07226,-0.42199 0.26858,-2.463363 -0.214919,-1.965054 -0.497141,0.598601 -0.819656,1.759205 -0.767623,0.697281 0.191065,-0.752898 -0.09608,-0.851178 -0.45536,-0.103 -0.167479,0.399569 -0.488029,0.933519 -0.388917,1.051176 m 3.04132,-3.1959301 c -0.110325,0.7650561 -0.109543,1.2864111 -0.194707,2.0453901 l 0.07459,0.503953 c 0.98717,2.266263 2.420862,-2.3090887 0.357861,-0.368208 m 25.585942,-0.8758 c -0.519503,0.661335 -0.308484,1.17006 -0.261241,1.318245 0.11508,0.360961 0.898143,0.311422 1.485974,0.25277 M 19.955201,10.949929 c 0.337043,0.07376 0.632539,0.437012 0.582426,0.895148 -0.05011,0.458137 -0.475682,0.794281 -1.029537,0.527485 -0.600401,-0.573923 -0.313482,-1.396366 0.447111,-1.422633 z m 35.155269,-0.05261 -0.116459,0.703104 -5.58e-4,0.575268 -0.330713,2.109316 m -23.010422,-1.53406 -0.205011,-0.821419 c -0.07369,-0.249177 -0.02224,-0.418491 -0.238263,-0.244748 -0.48506,0.371281 -1.081719,0.632533 -0.996876,0.107386 0.04583,-0.283542 0.07126,-0.413298 0.289615,-0.639186 m 10.761628,1.038495 c 0.143568,0.110263 0.535082,-0.375164 0.320626,-0.552101 -0.656151,-0.541357 -1.61212,1.051436 0.359167,1.431162 m -5.189603,-1.725802 c 1.200379,0.396333 0.765062,0.147049 1.472295,0.447433 m -15.330434,-0.511362 0.181337,0.84415 c 0.0535,0.332802 0.631829,0.152482 0.962224,-0.204949 m 0.007,-0.575268 -0.007,0.575268 0.262577,0.639187 m 33.27997,-0.58955 c -1.276008,-1.001706 -2.332082,0.678891 -2.085745,1.289913 0.223519,0.425572 0.842829,0.399812 1.212597,0.248772 0.429532,-0.175265 0.783644,-0.388114 0.907648,-0.756989 0.0556,-0.167019 -0.251054,-0.69297 -0.24466,-0.763663 M 39.461984,11.558214 c -0.324877,1.565447 0.550975,0.50885 0.883278,-0.213476 m 9.076397,0.191764 1.086616,0.191755 m -2.613134,1.803625 c 0.101435,0.134358 0.321896,0.06187 0.3761,0.05318 0.271654,-0.04346 0.533943,-0.09215 0.739787,-0.499665 0.205844,-0.407518 0.109555,-0.663025 -0.04365,-0.972392 -0.210419,-0.424829 -0.61266,-0.324541 -0.809464,0.0013 -0.437981,1.045723 -0.534383,1.999734 -0.525936,2.682092 m 2.876305,-3.06809 0.639186,0.255676 m 3.845988,0.191762 h 0.25567 M 45.4783,12.133495 c 0.390862,0.225442 0.948817,0.01003 1.319291,0.170075 m -24.669145,0.06392 c -0.02601,0.2798 -0.01777,0.354214 0.19174,0.511345 m 20.645722,-0.06393 c -0.02812,0.703174 0.294679,1.735606 -0.575267,1.725802 m 12.336306,-0.76702 v 0.06392 m -33.173785,1.214454 -0.06316,0.639187 -0.04737,0.511349 c -0.143145,1.04258 -0.334354,2.25572 -0.336893,3.132014 M 7.6189017,15.49946 c -3.2207333,-0.723581 0.1189713,1.481811 0.4976716,1.859385 0.442445,0.486613 0.2674993,1.093074 -0.3698328,1.285405 -0.2067132,0.06239 -0.4258259,0.05101 -0.639187,0.05114 m 7.5424015,-3.19593 c 0.747362,0.407267 0.259343,1.207289 0.316238,1.679107 0.04944,0.37945 0.01607,1.027264 0.262482,1.580736 0.139342,0.312946 0.266987,0.505724 0.571815,0.575269 m 16.363167,-3.132011 v 0.191756 m -9.168224,-0.09412 c -0.369386,-0.06098 -0.4714,-0.03593 -0.830943,0.06392 l -0.383512,0.191756 c -1.092345,0.801042 -0.187992,1.406413 0.639174,2.045383 m 10.638368,-1.887345 0.09198,0.894861 0.159602,1.022698 -0.0048,0.383385 0.0089,0.447558 m -1.150468,-3.068096 c -0.102217,0.723865 0.05469,1.696738 0.127944,2.428899 H 31.588497 M 29.05428,17.214798 c -1.134062,-0.179181 -0.444384,1.401965 0.04136,1.639496 0.253564,0.111602 0.561333,0.123937 0.830879,0.06295 1.452849,-0.358171 0.310241,-1.928059 -1.13017,-2.056927 m -9.863839,2.218576 c 0.263473,0.082 0.449284,0.15398 0.703106,0.04929 0.227229,-0.09377 0.568939,-0.34497 0.359413,-0.610871 -0.288017,-0.365678 -1.029218,-0.275297 -1.248779,-0.724263 -0.171621,-0.350977 0.294474,-0.427296 0.569772,-0.376032 m -8.009383,0.596335 c 0.244684,1.394008 -0.08745,1.403556 0.469433,-0.181242 0.09753,-0.394121 0.280565,-0.174721 0.417582,0.04406 0.197137,0.412197 0.318165,1.108564 0.474819,1.330552 m 3.771208,-1.597967 c -0.150272,0.356155 -0.112432,1.638874 0.504767,1.427815 1.224703,-1.596224 0.322149,-1.219384 0.966036,-0.226399 0.126751,0.178333 0.271782,0.195592 0.446856,0.204796 m 23.841563,-1.342309 c -1.180719,-0.241283 -1.590853,1.557685 -0.575171,1.406227 0.506638,-0.705871 0.791359,-0.832814 1.597968,-0.894853 m 0.95868,-0.575294 c 2.193415,0.285729 0.902278,1.040502 0.257784,2.432064 m -29.532531,-2.176384 -0.415474,0.703109 c -0.257919,0.175527 -0.47134,0.485978 -0.559867,0.562872 -0.209589,0.181912 -0.609912,0.282456 -0.848712,-0.0013 -0.181402,-0.21547 -0.102973,-0.506108 -0.01597,-0.75341 0.221989,-0.630941 0.633434,-0.962295 1.073002,-0.383512 M 40.60093,17.864428 c -0.218539,0.534896 -0.06277,1.210931 -0.127732,1.406218 -0.459378,0.05414 -1.542051,-0.108308 -1.086634,-1.214454 M 9.6642989,17.608771 c -0.2472671,-0.594351 -1.4889733,0.946383 -0.255674,1.117617 0.1633118,-0.03611 0.4052476,-0.143689 0.483352,-0.304189 0.1247641,-0.583533 0.1181471,-0.474165 0.6032641,-0.110327 M 25.114043,17.95568 c -0.09728,0.500236 -0.293994,0.886947 -0.575285,1.278362 m 14.080693,-1.241764 c 0.01769,0.224034 0.178397,0.628639 -0.0017,0.856318 -0.108916,0.137617 -0.364489,0.21752 -0.524348,0.221732 -0.979087,-0.0535 -0.947677,-1.515948 -0.56057,-1.525485 M 23.79042,18.18403 c 0.161331,0.33909 0.54446,0.579168 0.712183,0.854912 0.243786,0.400772 -0.599365,0.961209 -0.776101,1.382243 m 2.940149,-1.59797 c 3.35e-4,0.42947 0.02978,1.178532 -0.383511,1.534048 m 6.008461,-1.534047 c 0.327392,0.0067 0.686022,0.188964 1.01367,0.191639 m 12.841968,0.992786 c -2.05994,-2.03725 4.608129,-3.167923 0.772611,0.401404 -0.637172,0.598608 -0.603264,-0.433438 -0.772611,-0.401404 z m -4.523512,-0.928749 c 0.190481,0.09006 0.49551,0.221158 0.702988,0.30521 0.20646,0.08367 0.510775,0.143753 0.681568,0.311476 0.346949,0.340749 -0.894061,0.836557 -1.179393,0.777241 -0.453313,-0.09421 -0.243001,-1.132563 -0.205163,-1.393927 m -9.332126,-0.255676 v 0.447429 m 6.326151,-0.422049 c -0.07684,0.374181 -0.141196,0.542223 -0.06392,0.958781 m 1.919366,-0.536731 c 0.06583,0.419456 0.05696,0.701645 0.12784,1.150548 m -18.920039,2.748499 0.07459,0.958779 0.181018,1.214456 0.0084,0.703104 0.0556,1.406211 M 4.7425626,24.703738 c 1.5756102,-0.274834 0.00857,2.675748 -1.548621,1.528297 M 30.310027,24.639821 c -0.589107,0.265167 -0.978919,1.518893 -1.010381,2.062882 -0.127238,0.907839 0.679455,0.835384 1.713468,0.941296 M 7.3632285,24.831576 c -0.1610115,0.226336 -0.2698014,0.423395 -0.3094939,0.703105 -0.05816,0.409782 -0.2049236,1.507394 0.5012499,1.441174 0.8712634,-0.656735 0.9052294,-0.879408 0.9457001,-0.852716 0.1519221,0.100202 -0.057248,0.472752 0.3327303,0.85039 0.1458628,0.106487 0.2834154,0.191371 0.4473667,0.256377 0.3103892,0.123042 0.7961064,0.137554 1.0221224,-0.175712 0.232792,-0.322663 0.03253,-0.76159 -0.126878,-1.005634 -0.2614048,-0.450943 -0.149722,-0.525308 -0.4478197,-0.782179 m 24.7365397,2.05808 c 0.288905,-0.477326 0.604575,-0.519168 0.926495,-0.963713 0.351179,-0.637938 0.815115,-1.774841 0.893195,-0.808703 -0.350193,2.441251 0.325217,0.767604 1.185923,0.109029 0.990077,-1.172191 0.609793,-0.360512 0.382078,1.535567 M 18.037641,25.406883 c 0.640777,-0.252071 1.48547,-0.602642 1.455486,-1.278411 -0.02787,-0.445258 -0.232857,-0.633563 -0.560886,-0.95782 -0.212913,-0.210484 -0.710776,-0.720235 -0.986394,-0.427104 -0.197701,0.210291 -0.162213,0.413423 -0.163823,0.745739 -0.0014,0.308024 -0.01623,0.550083 0.01822,0.830939 0.03906,0.317805 0.184403,0.995599 0.222565,1.342294 0.06388,0.62392 0.102558,1.231736 0.01485,1.853649 m 5.433065,-2.237124 c -2.149414,1.101771 -0.344189,1.321884 0.590092,1.587203 0.374317,0.09677 0.376574,0.152316 0.11389,0.361003 -0.361114,0.235523 -0.828678,0.277603 -1.215312,0.225055 m 2.114076,-2.330128 1.017885,0.220796 c 1.596469,0.554042 -2.535529,2.962941 0.447475,2.173189 M 11.773598,25.342965 c -0.340923,0.510784 -0.207895,0.711648 -0.08021,1.213493 0.210589,0.759414 1.313665,0.445407 1.484061,-0.0098 0.126515,0.602985 0.957988,0.981503 1.418895,0.387341 0.247955,-0.325002 0.299269,-0.69485 0.309267,-0.951828 0.0441,-0.385172 -0.111921,-0.544906 -0.511349,-0.575269 m -1.216813,1.139756 0.0023,-0.161891 M 3.4002712,25.470762 c -0.00108,0.388243 0.024416,0.499845 -0.2063296,0.761273 -1.087543,1.172546 -1.8282984,-0.303725 -1.8390674,-1.336541 m 7.1410399,0.787611 0.00474,0.440036 M 19.379917,25.726433 c -0.552129,0.120421 -0.477409,1.327269 0.128093,1.385563 0.332324,0.03204 0.683846,-0.279872 0.949215,-0.543821 0.221878,-0.253324 0.183371,-0.155141 0.163523,0.09519 0.01876,0.364942 0.252683,0.720874 0.484999,0.852848 M 33.76159,25.79035 c -1.763533,-2.342221 -2.504899,2.849433 -0.06387,1.022764 0.04515,-0.333763 0.267071,-0.614495 0.06387,-1.022764 z m -18.088937,1.342307 v 0.127835 m 12.400228,0.06392 v 0.06392 m 116.012359,5.369163 c 0,0.595529 0.15212,2.072881 0.26398,2.87634 0.11761,0.845772 0.20454,1.893525 0.0927,2.7485 -0.0281,0.213616 -0.0364,0.365551 -0.037,0.575269 -5.6e-4,0.225186 0.0121,0.395911 -0.0108,0.639186 -0.0946,0.991123 -0.18089,1.907078 -0.18089,2.876339 m -38.03168,-9.523884 c 0.4909,0.338067 0.97987,0.991058 1.44776,1.789722 0.39375,0.672233 0.67881,1.355459 0.93641,2.109318 0.21412,0.624549 0.39694,1.411451 0.74785,1.725803 l 0.53691,-1.342292 0.42187,-1.0227 -0.12784,0.127838 m 5.75267,-3.259851 c 0,0.337875 -0.0281,0.548805 0.0108,0.958779 0.0173,0.178781 0.0473,0.327328 0.0524,0.51135 0.006,0.276001 -0.0173,0.46309 0.0114,0.767024 0.0607,0.6365 0.0524,0.820203 0.053,1.534049 0,0.462193 0.0985,0.59457 0,0.894859 l -0.0639,-0.255674 m 1.85363,-4.026875 c -0.27292,0.670569 -0.25567,1.522861 -0.25567,2.364988 0,0.579807 -0.0191,1.092565 -0.0581,1.661887 -0.0191,0.281049 0.005,0.395082 -0.0114,0.639186 -0.0108,0.16312 -0.0403,0.290256 -0.0524,0.447432 -0.0435,0.536468 -0.24417,1.37783 -0.13359,1.853641 0.0952,-0.224484 0.0621,-0.23746 0,-0.383512 m -7.03105,-3.962956 c 0.25695,-0.62698 0.83734,-1.909699 1.27837,-2.237154 m 18.79208,7.925913 c 0.49026,0.178716 1.12434,0.06315 1.59798,-0.05581 0.30552,-0.07677 0.49665,-0.119145 0.74848,-0.261812 0.27741,-0.157048 0.65965,-0.407224 0.79834,-0.706044 0.0735,-0.158968 0.10225,-0.282906 0.10352,-0.446473 0.002,-0.334806 -0.1598,-0.660343 -0.35283,-0.95878 -0.53116,-0.820716 -1.42411,-1.510142 -2.12849,-2.162369 -0.42441,-0.3931 -0.8725,-0.880796 -0.94664,-1.480993 -0.0646,-0.513588 0.0883,-1.062585 0.44872,-1.37943 0.36944,-0.324451 1.03867,-0.23177 1.38895,0.06232 0.22243,0.186898 0.28508,0.400767 0.32343,0.67792 m 27.61286,-0.767023 c 0,1.330273 -0.0364,2.698389 -0.19495,4.090792 -0.0288,0.251904 -0.10037,0.591249 -0.12849,0.830944 -0.0154,0.127581 -0.0741,0.296967 0.002,0.427167 0.1272,0.215407 0.57783,0.239377 0.83222,0.339856 m 10.73834,-4.921736 c 0.29658,0.246853 0.23075,0.291276 0.26654,0.639187 0.0895,0.880797 0.11825,1.76505 0.11698,2.684582 0,0.192078 0.002,0.332825 -0.0294,0.51135 -0.037,0.209718 -0.0825,0.351745 -0.0966,0.57527 -0.0154,0.256888 -0.0358,0.330329 -0.0614,0.575267 -0.0211,0.200447 -0.0217,0.341134 -0.0575,0.511347 -0.0652,0.308409 -0.38992,1.387101 -0.26655,1.597968 0.0914,-0.136786 0.064,-0.0095 0.064,-0.191755 m -19.36733,-6.647541 c 0.5644,0.104827 0.52988,0.04206 1.08662,0.06641 0.19304,0.0085 0.32726,0.04998 0.51135,0.04998 0.32023,0 0.63919,-0.06865 0.95878,-0.04679 0.2218,0.01522 0.37007,0.04544 0.57527,0.05982 0.46532,0.03253 0.75615,0.157048 1.15054,0.317994 m -2.87635,0.51135 0.44744,2.812422 -0.25568,1.725803 M 109.88831,36.97611 c 0.0435,-0.166763 0.0166,-0.120421 0.12784,-0.255674 m 29.85,0.447431 0.064,0.06392 m -23.90559,0.575267 c -0.0831,0.280861 -0.0563,0.593676 -0.0665,0.830943 -0.006,0.145287 -0.0256,0.237265 -0.0428,0.383513 -0.076,0.641934 -0.1144,1.379555 -0.14381,2.045396 -0.023,0.522662 -0.0652,1.018992 0.12528,1.470132 m 58.2299,-4.538228 v 0.191757 m -0.064,0.127838 v 0.06391 m -64.7496,0.191758 c -0.0377,0.369321 -0.34196,1.030177 -0.49026,1.470129 -0.22052,0.655614 -0.53052,1.333662 -0.53243,2.045396 m 65.83621,-3.451606 v 0.06392 m -61.48974,0.639185 c 0.38478,-0.09479 1.12752,-0.07407 0.76446,0.511095 -0.26142,0.421542 -1.01695,0.796871 -1.40365,1.022954 m 46.85237,-1.470129 0.63918,0.191754 M 112.3172,39.341108 c -0.17962,0.298437 -0.70566,0.618222 -0.98498,1.022699 -0.82968,1.202758 0.27357,2.464063 1.62418,2.492827 m 8.50117,-3.195932 c 0.0601,0.183189 0.0601,0.136403 0,0.319592 v -0.319592 m 48.38642,0 c 0.58742,0.191436 0.92491,0.351552 1.47013,0.319592 M 159.5531,39.788542 c -0.0754,0.388047 -0.17258,0.878815 -0.28445,1.406209 -0.0703,0.331033 -0.19493,0.530523 -0.2269,0.894859 m 2.10931,-1.470129 c 0.19112,-0.27766 0.29339,-0.431002 0.57527,-0.575331 0.34581,-0.176671 0.60596,-0.163183 0.89487,-0.06385 m -41.16362,0 c -0.0128,0.719149 0.14126,1.809219 0.6641,2.350353 0.28956,0.299522 0.52159,0.08444 0.74211,-0.177119 0.35923,0.265073 0.78876,0.570285 1.27837,0.407292 0.18089,-0.06021 0.30682,-0.154362 0.44488,-0.286165 0.2333,-0.223141 0.48961,-0.591696 0.42378,-0.951111 -0.11825,-0.646344 -0.86929,-0.284438 -0.9965,0.06295 m 47.10809,-1.342291 c 0.0787,0.180313 0.0461,0.12854 0.19175,0.319593 m 0.12785,-0.191758 c 0.35091,0.06833 0.95365,0.210167 1.4062,0.57527 m -38.41511,0 h -0.12784 c 0.12401,-0.147909 0.2397,-0.443466 0.51391,-0.454462 0.32918,-0.0131 0.52349,0.306361 0.63663,0.51838 m 27.22936,-0.575269 c -0.3816,0.65964 -0.87314,0.965427 -1.59798,1.022702 m -41.93064,-0.383513 c 0.20966,0.0066 0.3573,0.02756 0.57526,0.163247 0.18538,0.1155 0.37457,0.244426 0.42635,0.476195 0.14509,0.654143 -0.9166,1.222954 -1.44776,0.947084 -0.2103,-0.109239 -0.28444,-0.249861 -0.37201,-0.436055 -0.25631,-0.544138 0.16682,-1.404421 0.30681,-1.661821 l 0.25568,0.51135 m -1.59798,-0.447432 0.0639,0.575267 m 25.63137,1.214456 c -0.44039,-0.228126 -0.36497,-0.836185 -0.66602,-0.936663 -0.17003,-0.05689 -0.29658,0.116779 -0.4206,0.213997 -0.2563,0.200387 -0.57781,0.454525 -0.88015,0.227744 -0.26526,-0.198467 -0.20134,-0.511668 -0.0396,-0.783389 0.19176,-0.32183 0.32215,-0.466158 0.72803,-0.511412 m 14.44561,0.511349 c 0.16172,-0.198211 0.37138,-0.55999 0.59445,-0.399364 0.32982,0.237904 0.19304,1.157825 0.17258,1.485983 m -21.41275,-1.470132 c 0.30362,0.0012 0.64238,0.0576 0.89486,0.383513 m 26.33448,1.85364 c 0.23969,-0.421925 0.42123,-0.659384 0.64942,-1.086617 0.17066,-0.318505 0.248,-0.56063 0.47108,-0.824933 0.32918,-0.389712 0.6769,-0.325603 1.05274,-0.325603 m -26.07881,2.109315 c -0.39118,0 -1.19528,0.187413 -1.6523,-0.269349 -0.20198,-0.201986 -0.22755,-0.440337 -0.16619,-0.68943 0.11187,-0.449858 0.47684,-0.902531 0.73187,-1.086617 l 0.19176,0.255677 m -20.70926,-0.127836 c 0,0.454653 -0.0358,1.133661 0.064,1.661884 m 61.29801,-1.214453 c 0.12591,-0.09006 0.271,-0.188113 0.44742,-0.278238 0.63152,-0.322664 0.97093,0.120103 0.78492,0.789268 -0.0422,0.151742 -0.0933,0.257975 -0.14573,0.383829 M 134.24179,40.87516 c 0.0345,0.103479 -0.069,0.129563 0.12784,0.06391 m 26.59016,0 v 0.127838 m -26.65408,-0.06392 c 0.008,0.383131 0.15405,0.728483 0.51135,0.981218 0.74083,0.523112 1.644,-0.226785 1.72581,-0.853379 m 18.856,-0.127839 c -0.10478,0.441167 -0.0812,0.912825 0.064,1.214456 l 0.3196,-0.383513 m 11.05793,-0.575266 h 0.44743 m -6.32795,0 v 0.06391 m 8.56511,-0.06391 c -0.37841,0.50125 -0.45383,0.583066 -0.76703,1.150535 -0.24034,0.435287 -0.18409,0.812914 -0.57527,0.830943 M 151.9473,41.578259 c 0.93385,-1.45e-4 1.68298,-0.143754 2.49282,-0.191757 m 23.84166,0.06392 v 0.06392 m -17.25804,0.06391 c 0.28637,0.261428 0.58231,0.506554 1.02271,0.575265 m 4.4743,-0.575265 -0.12784,0.191754 m 8.75686,-0.06392 v 0.06392 m 1.91756,-0.06392 c -0.18536,0.441998 -0.37968,0.777829 -0.64175,1.150536 -0.22179,0.314548 -0.44679,0.646216 -0.82839,0.840465 -0.48577,0.247434 -0.56886,-0.543689 -0.57526,-0.840465 M 122.86426,41.83393 v 0.319593 m 45.25441,-0.319593 c -0.0231,0.569385 0.0868,0.606204 0,1.022698 m 6.90322,-1.022698 -0.064,0.830941 m -34.89959,-0.703102 -0.19176,0.31959 m 23.01072,-0.191755 v 0.447434 m 10.16307,-0.447434 c -0.15405,0.422246 -0.10739,0.797772 0.19175,0.958778 m -2.23715,-0.894859 -0.31959,1.789722 m -4.47431,-1.022695 c 0.39245,0.156279 0.79322,-0.03701 1.15053,-0.294605 0.28764,-0.207414 0.44487,-0.356406 0.70311,-0.408502 m 9.58779,0 -0.0639,0.06391 m -0.12784,0.06392 -0.0639,0.447428 m 0.0639,0.191759 c 0.16237,0.369066 0.46981,0.642509 1.08662,0.780253 0.48323,0.107829 0.82137,0.114609 1.15054,0.114609 m -11.24969,-0.639189 c 0.22115,0.225121 0.3228,0.40352 0.58102,0.5389 0.4372,0.229464 0.87505,0.06801 1.27263,0.03636 m -64.17433,4.729998 c -0.10226,-0.342094 -0.13424,-0.981544 -0.19495,-1.470136 -0.025,-0.196227 -0.10995,-0.361713 -0.0952,-0.575262 0.0134,-0.200323 0.10099,-0.31863 0.16172,-0.51135 0.31959,-1.011321 1.22467,-1.297679 1.9687,-0.446476 0.65836,0.753858 0.66411,1.93444 -0.17834,2.52767 -0.70438,0.496005 -1.23938,0.385871 -1.66189,0.475554 m 8.18159,-1.278374 0.0639,0.255675 c 0.0966,-0.442834 0.0108,-1.248455 0.46086,-1.634147 0.71972,-0.616239 1.58646,0.626665 1.63377,1.250635 0.0345,0.451206 -0.26336,0.870766 -0.56058,1.022699 m 11.12185,-1.086624 c -0.17705,0.955269 -0.0339,1.987815 -0.14637,2.94026 -0.0652,0.552896 -0.0453,1.094933 -0.0453,1.470126 m 1.85365,-4.282548 c 0.28955,0.105532 0.41355,0.103732 0.7031,0.157503 0.48451,0.08983 0.57463,0.196291 1.0227,0.289933 m -1.59796,-0.383512 c -0.0435,0.584793 -1.0764,1.335706 -0.93514,2.108353 0.0377,0.20621 0.21093,0.330467 0.42379,0.369896 0.18919,0.03507 0.31256,0.0053 0.51135,0.04771 0.51006,0.10886 1.17226,0.430239 1.39149,0.926634 0.43913,0.994381 -1.12879,0.685082 -1.51933,0.574305 m -14.31779,-3.771199 c 0,0.691286 0.124,1.923185 -0.0639,2.301074 -0.053,-0.125668 -0.12337,-0.189392 0.0639,-0.319599 m -4.60214,-1.917561 c 0.34453,0.209464 0.35475,0.171246 0.70311,0.166835 0.17641,-0.0021 0.27741,0.02221 0.44743,0.07446 0.40715,0.125089 0.78428,0.388757 0.82391,0.845387 0.0658,0.750216 -0.5561,1.615286 -1.20743,1.895961 -0.37455,0.161516 -0.80985,0.170657 -1.14414,-0.124077 -0.76063,-0.671529 -0.0339,-2.13603 0.37712,-2.858497 m 3.89904,0.319589 v 0.06392 m 0.12784,0.127848 v 0.06392 -0.06392 m 2.30107,0 c 0.40972,0.317092 1.06744,0.577116 1.2445,1.342287 0.14253,0.615724 -0.2103,1.29217 -0.66924,1.624806 -0.15915,0.115379 -0.26973,0.19431 -0.44742,0.29007 -0.41484,0.223133 -0.49857,0.239435 -0.89486,0.322274 m 16.61885,-3.579437 v 0.06392 m 0.12784,0 c 0.0997,0.796038 0.1585,2.355077 -0.12784,3.323763 m -18.1529,-3.195926 0.31959,1.150537 m -7.98988,-0.894862 c 0,0.434968 0.0639,1.167155 0.0639,1.7258 m 14.25387,-1.278374 0.12782,0.255675 m 0.25569,0.447436 0.31959,0.511349 c 0.44679,-0.380194 0.60786,-0.83695 1.27837,-1.150536 m -3.70728,0.958775 c 0.74209,0.111282 1.47779,0.794953 0.81751,1.531237 -0.39055,0.434841 -1.03036,0.512498 -1.45095,0.121256 -0.41994,-0.390863 -0.43912,-0.941841 -0.23074,-1.460732 0.20901,-0.521259 0.83989,-0.934364 0.86418,-0.191761 m -4.41039,-0.191751 0.19176,1.470125 m 6.64754,-1.086613 0.76702,1.214451 m -0.76702,-1.086623 c -0.38352,0.420076 -0.67498,0.82187 -0.99906,1.470135 -0.14444,0.288342 -0.24927,0.555843 -0.27932,0.894862 m -13.0394,6.264022 c 0,-0.657079 -0.039,-1.199295 -0.1093,-1.789713 -0.0831,-0.69416 -0.27486,-1.571319 -0.20966,-2.301073 0.0216,-0.240721 0.0767,-0.316651 0.13167,-0.51135 0.0505,-0.176418 0.12656,-0.418475 0.32151,-0.482073 0.21414,-0.06971 0.4289,0.154428 0.56313,0.29287 0.38606,0.398541 0.63854,0.951236 0.79898,1.467577 0.0607,0.193478 0.13168,0.401594 0.19879,0.573672 0.0658,0.170595 0.11249,0.242881 0.0876,0.329975 0.0368,0.737091 0.24309,1.454572 0.28741,2.192935 m -2.51689,-4.311042 0.12784,0.447436 m 14.31715,0.447426 c -0.0678,0.430363 0.0597,0.763253 0.0639,1.150536 5.7e-4,0.406786 0.0531,0.782242 0.0608,1.150537 0.004,0.254147 0.008,0.401667 0.0384,0.639187 -0.0338,0.672251 0.0556,1.131154 0.22024,1.78959 m 1.57912,0.174465 c -0.19751,-0.326623 -0.49729,-0.899969 -0.95878,-1.227235 -0.77807,-0.521959 -1.28216,-0.974566 -0.51153,-1.585195 l 0.76702,-0.319588 m 6.15541,-1.772297 c 5.7e-4,0.511802 0.0908,0.981606 0.15469,1.470135 0.0538,0.405375 0.10036,0.931541 0.10036,1.342288 -0.082,2.954711 -0.99902,0.352935 -1.69897,-0.767025 -1.28767,-2.651236 -0.47296,-0.554243 -0.28262,1.150529 -0.0166,0.680732 -0.18473,1.355083 5.5e-4,1.981475 m 13.87056,-4.729967 -0.22613,0.569991 c -0.6259,1.402509 1.31246,1.240893 1.85667,1.091897 m -9.55649,-1.597974 -0.55865,2.492834 -0.13742,0.51135 -0.64623,2.045388 m -0.81432,-4.410376 c 0.57208,0.759474 0.96773,1.223529 1.59797,1.853638 m 12.51144,-2.237159 c 0.39821,0.180251 0.60979,0.311027 1.08662,0.447437 m -7.41456,-0.319599 c -0.0422,1.222191 0.1502,2.647516 0.38351,3.899035 m 3.77119,-3.899035 c -0.18472,0.256633 -0.18792,0.420466 -0.19175,0.767024 -0.002,0.152702 -0.0191,0.288279 -0.0313,0.447437 -0.0256,0.341261 -0.004,0.759989 -0.039,1.150536 -0.0422,0.450627 -0.12146,0.744014 -0.12146,1.150526 m 6.77539,-3.451599 c 0.41547,0 0.94025,-5.58e-4 1.34229,0 0.18793,5.58e-4 0.32024,-0.0084 0.51135,0.03317 0.36434,0.07962 0.65197,0.288395 0.37265,0.59425 -0.42015,0.528119 -1.43496,1.013326 -0.43684,1.00794 0.25184,-0.0021 0.36371,0.05203 0.63919,0.12413 0.50431,0.131997 1.05402,0.391885 0.82135,0.988895 -0.31384,0.806642 -1.56601,1.447113 -2.16365,1.853636 m -5.81632,-4.474197 c -0.62057,0.296521 -0.86326,0.844097 -1.21474,1.406215 m -32.21472,1.15054 c -0.36625,-0.06903 -0.67051,-0.08693 -0.95877,-0.32854 -0.367,-0.33715 -0.30517,-1.074552 0.41543,-1.748822 0.36245,-0.133473 0.61621,-0.193287 0.79198,-0.121148 0.44552,0.182682 0.17834,0.692874 -0.18728,0.905603 -0.26271,0.152891 -0.46341,0.133587 -0.76446,0.07845 m 37.77576,-0.575273 c 0.20133,0.700099 -0.11314,2.015995 -0.38351,2.684585 m -29.21083,-1.534049 -0.0556,0.575263 0.0275,0.383512 c 0.014,0.425843 0.0317,0.383321 0.17317,0.07351 0.0754,-0.156598 0.36753,-0.58294 0.47429,-0.776608 0.28379,-0.516404 0.66666,-1.234017 1.23425,-0.639187 m 22.88286,-0.127837 c -0.0428,0.296198 0.11378,0.408439 0.38352,0.477471 0.57207,0.147014 1.87473,0.21732 1.98978,1.057209 0.12145,0.88847 -1.53277,0.442318 -1.86195,0.255044 M 113.85145,57.87751 c 0.35731,0.170604 0.59764,0.583582 0.5676,1.022699 -0.0204,0.295304 -0.14446,0.62576 -0.44103,0.762549 -0.59764,0.275494 -0.97029,-0.520302 -1.21318,-0.826462 -0.26398,0.21732 -0.63727,0.717802 -0.9754,0.301053 -0.18472,-0.228188 -0.17258,-0.651972 -0.17514,-0.94024 m 5.30533,-4.1e-5 c -0.10036,0.357942 -0.18727,0.402688 -0.44742,0.614902 -0.11633,0.0952 -0.27358,0.199417 -0.60726,0.34394 -0.85399,-0.03575 -0.58873,-0.929956 -0.14772,-1.219952 0.28188,-0.185496 0.45382,0.0376 0.62704,0.197311 m -3.57932,0.255549 v 0.447437 m 4.15468,-0.639187 c 0.14189,0.244806 0.16619,0.52605 0.38351,0.958785 m 6.96717,-0.319598 c 0.15021,0.462127 0.20838,0.640471 0.31959,1.086612 0.15277,0.615534 0.13807,1.286683 -0.0639,1.917561"
       id="path3307"
       sodipodi:nodetypes="ccccccccccccccccccccccccccccccccccccccccccccccccccccccccccccccccccscccccccccccccccccccccccsccccccscccccccccccccccccccccccccscccccccccccccccsccccccccccccccccccccccccccccccccccccccccccscccccccccccccccccccccccccccccccccccccccccccccccccccccccccsccccccccccccccccccccccccccccccccccccsccsccccccccccccccccccccccccccccccccccccccccccccccccccccccccccccccccccccsccccccccccccccccccccccccccccccccccsccccccccccccccccccccccccccccccccccccccccccccccsccccccccccccccccsccccccccccccccccccccccccccccssccccccccccccccccccccccccccccccccccccccccccccccccccccccccccccccccscccccccccccccssccccccccccccccccccccscccccccccccccccccccccccccccccccccccccccccccccccccccccccccccccccccccccccccccccscccccccccccccccccccccccccccccccccccccccc" />
  </g>
</svg>
