<?xml version="1.0" encoding="UTF-8" standalone="no"?>
<!-- Created with Inkscape (http://www.inkscape.org/) -->

<svg
   width="210mm"
   height="297mm"
   viewBox="0 0 210 297"
   version="1.1"
   id="svg80595"
   inkscape:version="1.1 (c68e22c387, 2021-05-23)"
   sodipodi:docname="Casey - Pulsz - Envelope 40.svg"
   xmlns:inkscape="http://www.inkscape.org/namespaces/inkscape"
   xmlns:sodipodi="http://sodipodi.sourceforge.net/DTD/sodipodi-0.dtd"
   xmlns="http://www.w3.org/2000/svg"
   xmlns:svg="http://www.w3.org/2000/svg">
  <sodipodi:namedview
     id="namedview80597"
     pagecolor="#ffffff"
     bordercolor="#666666"
     borderopacity="1.0"
     inkscape:pageshadow="2"
     inkscape:pageopacity="0.0"
     inkscape:pagecheckerboard="0"
     inkscape:document-units="mm"
     showgrid="false"
     inkscape:zoom="0.94252245"
     inkscape:cx="563.9123"
     inkscape:cy="196.81229"
     inkscape:window-width="1280"
     inkscape:window-height="657"
     inkscape:window-x="-8"
     inkscape:window-y="-8"
     inkscape:window-maximized="1"
     inkscape:current-layer="layer1" />
  <defs
     id="defs80592" />
  <g
     inkscape:label="Layer 1"
     inkscape:groupmode="layer"
     id="layer1">
    <path
       style="fill:none;stroke:#35312b;stroke-width:0.0617064"
       d="m 37.801432,5.3720835 c -0.78022,0 -1.831764,-0.1360597 -2.119438,-1.0490118 C 35.474411,3.6643551 35.768321,2.86555 36.16713,2.3484673 36.348609,2.1130965 36.540455,1.8864225 36.754825,1.6708328 36.971661,1.4528559 37.129074,1.3198336 37.431189,1.3611545 M 25.336686,1.9165207 c -0.07177,0.298093 -0.124031,0.6557429 -0.197214,1.0490118 0.02689,0.8526436 -0.09992,1.4791766 -0.17302,2.2832679 m 1.974609,-2.2832787 c -1.07592,0.2319028 -2.570482,1.011793 -1.363096,1.7889744 l 0.869444,0.6794464 M 3.6159436,6.4210951 C 3.9331149,6.4451863 4.3948044,6.389977 4.9117822,6.211165 5.2782582,6.0844847 5.7232861,5.8847967 5.9077897,5.4337184 5.9736293,5.2727299 6.0063307,5.135988 5.8739129,4.9401262 5.6924366,4.6717689 5.4287026,4.4528966 5.158612,4.3171458 4.8171267,4.145531 4.4006686,4.0071904 4.0478916,3.8635954 3.7181931,3.7293901 3.1822703,3.5767891 3.3899135,3.1517808 3.5011713,2.9241156 3.7259686,2.8146368 3.9244794,2.6597444 4.1435994,2.4887584 4.3754919,2.3013165 4.6649588,2.2277444 5.1552189,2.1031633 5.3294777,2.0575897 5.8990923,2.1633702 M 40.982465,2.3484993 41.105881,2.8421451 M 21.510878,2.4101984 c -0.18728,0.2214515 -0.228995,0.3657073 -0.190673,0.9256031 0.01425,0.2079479 -0.068,0.9033279 0.06405,1.0911003 0.101262,0.1440852 0.248986,0.1593794 0.434909,0.1335871 m 1.374132,0.064211 C 22.95519,4.4277769 23.109526,4.5375989 22.789131,4.3391115 22.054615,3.9145074 22.04463,4.8782713 22.500898,5.0283283 c 0.132547,0.040287 0.356541,0.037623 0.489396,-0.026538 0.314206,-0.2122036 0.441056,-0.1482367 0.566466,0.1849292 0.05122,0.2075855 0.168152,0.3917768 0.360677,0.5553019 M 17.785933,5.5568931 c 0.308842,0.07354 0.599419,0.08601 0.925599,0.020677 0.255343,-0.051052 0.561531,-0.071515 0.801015,-0.1843832 C 19.690321,5.3094147 19.844279,5.1608106 19.7814,4.9400198 19.674154,4.5636652 18.258602,3.807087 18.916272,3.3250797 c 0.117552,-0.086223 0.258613,-0.075565 0.412325,-0.041779 0.240902,0.052863 0.348024,0.1649215 0.529197,0.3607194 M 20.30908,3.809858 c 0.342948,0.3564319 0.676664,0.4961753 1.075176,0.6170438 m 7.408005,1.3768296 C 29.445452,5.5590061 30.107227,5.6240247 30.704858,5.3971409 30.95712,5.2961028 31.181791,5.0376361 30.932065,4.7940799 30.64439,4.5134446 30.032754,4.4500083 29.656218,4.2930269 29.52182,4.2369658 29.298691,4.1243216 29.298691,3.9532077 c 0,-0.2876802 0.455023,-0.3883236 0.665999,-0.4635476 0.324948,-0.115767 0.720057,-0.1995494 0.9256,-0.2159094 m 12.526448,2.468271 c 0.43701,0.1040225 0.651747,0.071833 1.049015,0.0053 C 44.826244,5.6865725 45.957327,5.444839 45.696986,4.8786125 45.499774,4.4497204 44.978782,4.2604667 44.589412,4.0840557 44.429715,4.0116879 44.208684,3.9076982 44.203624,3.7044291 c -0.01075,-0.4261807 0.710429,-0.3835594 0.940905,-0.3577458 0.256576,0.02867 0.409792,0.1096919 0.555358,0.1743539 m -4.257756,1.2341304 c 0.182834,-0.2588504 0.364991,-0.7170904 0.568321,-0.9164053 0.14192,-0.1391399 0.289644,-0.2252244 0.454156,-0.09411 0.136064,0.1083597 0.180924,0.3514257 0.218564,0.5169228 0.07776,0.3418548 0.08947,0.6474192 0.239916,0.9873022 M 27.125516,4.3270655 c 0.432401,0.2047848 1.093122,0.4166402 1.093122,-0.1889631 0,-0.3403735 -0.358576,-0.3806608 -0.5988,-0.3642472 -0.966813,0.069433 -1.008037,0.9701086 -0.475082,1.5981324 0.337782,0.3909775 0.741469,0.569307 1.215561,0.4939019 M 39.571244,4.1448276 c 0.317851,0.3793708 -0.103606,0.7153104 -0.473967,0.8514342 -0.21289,0.078229 -0.519384,0.1534643 -0.739556,0.1148291 -0.228129,-0.040074 -0.421147,-0.2282513 -0.364562,-0.479396 0.04967,-0.2202898 0.215356,-0.3466082 0.353454,-0.4906295 0.125822,-0.1311891 0.169139,-0.1977696 0.324209,-0.2394849 0.272127,-0.073221 0.721904,0.030162 0.900422,0.2432471 z M 12.625119,5.927556 C 11.282391,5.5857119 10.724927,4.3566305 11.822931,4.1569244 c 0.261638,-0.042312 0.967622,-0.00533 0.676799,0.4455889 -0.115206,0.1787024 -0.409052,0.2610779 -0.615091,0.3057562 M 40.679356,4.1497562 c -0.082,0.4415175 -0.216141,0.9411165 -0.286238,1.2224339 M 9.786613,4.5700064 C 10.514566,4.855406 9.8747826,5.8114269 9.1078386,6.0692967 8.8673061,6.1501877 8.719766,6.0639951 8.4907714,6.0874123 8.3213874,6.1043597 8.2107469,6.1708642 8.0588252,6.1945996 7.84637,6.2278563 7.6531043,6.1750912 7.503527,6.0954807 7.0084549,5.8323029 6.4941296,4.9757531 7.1332257,4.6317348 M 21.384256,4.4269018 V 5.2907951 M 13.982667,5.1378105 C 14.142118,5.0894232 14.65095,4.768778 14.778436,4.6830876 15.429273,4.0924251 14.451255,4.2181769 13.797856,4.3877016 13.23946,4.7091508 13.285127,5.2809504 13.691103,5.6988337 l 0.476685,0.298903 0.431638,0.2000501 m 1.111088,-0.5927411 c 0.264783,0.020549 0.490505,0.014506 0.734864,-0.1542636 C 16.64,5.3164489 16.816728,5.0920238 16.899847,4.8786403 17.035602,4.5304867 17.087868,4.0624414 16.634879,3.8316002 15.450507,3.9689225 15.031396,5.9733239 14.908269,7.0382962 M 8.3673601,5.4339188 8.4907714,6.0874123 M 54.030286,10.617279 53.371139,10.397362 53.217919,9.9385042 C 52.438487,7.8687675 52.260277,8.2753896 51.932263,10.43211 c 0.431268,0 1.037906,0.179254 1.438876,-0.03475 M 66.371622,8.1490166 C 66.15812,9.0449267 65.713213,10.585069 66.186503,11.357762 M 57.053913,8.21072 c 0,0.6142295 0.06047,0.7822 0.06171,1.1724312 l 0.678776,0.066612 0.740477,0.1184744 M 60.139239,8.2106877 C 60.01089,8.5228601 59.535747,9.4908605 59.973868,9.80865 c 0.4881,0.354559 1.18353,-0.034748 1.584627,-0.055317 0,0.514579 -0.07343,1.342117 0.37024,1.480959 M 62.052152,8.3957935 C 61.758425,8.7531343 61.597992,9.2569696 61.558495,9.753333 M 41.688956,8.3957853 v 0.4319462 c 0.638234,0.6370475 0.554292,1.9532025 0.574291,2.7856125 l 0.617062,0.12342 M 63.162867,8.9510799 c 0.357435,0.019239 0.677096,0.1065564 0.987306,0.1667969 0.222143,0.060008 0.667665,0.2601614 0.844148,0.4633557 0.399241,0.4602115 -0.355432,1.0294545 -0.720733,1.2270955 -0.335067,0.181239 -0.876238,0.368212 -1.234135,0.362042 -0.202397,-0.0032 -0.369004,-0.0487 -0.446755,-0.248374 -0.09626,-0.245965 0.03332,-0.637795 0.144394,-0.860249 0.127732,-0.2550981 0.325191,-0.4744607 0.487481,-0.6787746 M 41.688956,8.8277315 c -0.313844,0.4610112 -0.334888,1.2100645 -0.512543,1.7277125 -0.04517,0.131807 -0.136493,0.425168 -0.0843,0.535808 0.07954,0.168578 0.22838,0.14414 0.411708,0.180675 0.382517,0.0762 0.665196,0.07258 0.759423,0.341417 0.07967,0.227389 -0.06689,0.754799 -0.142357,1.040135 M 30.149828,11.851284 c 0.298784,-0.186909 0.375916,-0.514504 0.93134,-0.879561 0.561284,-0.368883 0.969225,0.466074 0.978235,0.941271 0.0084,0.447006 -0.180123,0.796386 -0.552273,0.89882 -0.157352,0.04337 -0.341301,0.02793 -0.493409,-0.0022 -0.263982,-0.08131 -0.82358,-0.663013 -0.863893,-0.958373 -0.04939,-0.403348 0.249809,-2.2161011 0.369066,-2.8368312 m 25.486022,0.6776161 1.110703,-0.3089177 c 0,0.4095543 -0.01417,0.9503578 -0.185102,1.6664678 M 23.423779,9.5069399 c -0.04213,0.6066771 -0.124916,1.1568331 -0.123456,1.8512061 -3.67e-4,0.216954 -0.01023,0.362158 -0.03555,0.555356 -0.03283,0.251144 0.003,0.544196 0.03555,0.802183 m 30.729964,0.185129 c 0.263775,-1.045252 0.598806,-2.71249 1.014643,-3.1202628 0.544623,-0.4719991 0.834091,0.5349348 0.758503,0.9605298 -0.07688,0.432863 -0.371971,0.691969 -0.847545,0.866856 m -20.687675,-0.05429 c -0.0053,0.122119 -0.04961,0.310201 -0.05171,0.493656 -0.0022,0.205614 0.09095,0.334639 0.151057,0.431702 m 0.311329,0.06184 c 0.602668,0.47804 2.112691,0.425671 2.331829,-0.380491 0.134522,-0.634896 -0.642612,-0.877716 -1.060182,-1.132443 -0.159263,-0.09709 -0.337905,-0.218317 -0.313716,-0.407753 0.02783,-0.217518 0.279778,-0.287925 0.43682,-0.286689 0.246952,0.0022 0.509143,0.07642 0.740482,0.160808 M 2.4435125,10.432568 c 0.5744265,0.08196 1.4024069,-0.264968 2.0353935,0.123974 0.2787296,0.171295 0.4270103,0.407316 0.323713,0.739919 -0.2527488,1.184419 -2.9509514,2.354947 -2.7066388,3.202085 0.077995,0.226524 0.4686006,0.307791 0.7177725,0.314271 0.3158755,0.0085 0.4582336,-0.0085 0.7404794,-0.04317 0.618238,-0.07599 1.334407,-0.102103 1.7894928,-0.01758 m 46.5885281,-4.31947 c -0.195917,0.367028 -0.293971,0.976942 -0.370239,1.542667 m -32.642821,2.159734 c -0.386284,-0.113113 -0.782625,0.02686 -1.172426,-0.02622 -0.49785,-0.06778 -1.01273,-0.203449 -1.314168,-0.652801 -0.391097,-0.582938 -0.05634,-1.36501 0.228993,-1.91266 0.123228,-0.236511 0.250961,-0.471807 0.429602,-0.668031 0.150503,-0.165253 0.266142,-0.24053 0.408745,-0.301867 0.212764,-0.09145 0.53512,0.02984 0.802187,0.106047 m 35.069013,-0.282103 -0.084,1.114328 m -5.859468,0.401906 c -0.415412,0.135143 -1.258508,0.306374 -1.666082,0.23276 -0.42553,-0.07685 -0.801693,-0.540797 -0.474032,-0.972989 0.195554,-0.257934 0.482794,-0.459103 0.782568,-0.552211 0.181417,-0.05638 0.427007,-0.127246 0.553569,0.03379 0.228498,0.29076 -0.141372,0.693333 -0.368448,0.888385 M 5.9607912,10.679439 c 0.508957,-0.121192 1.1403387,-0.08676 1.6660788,-0.01737 0.3379862,0.04223 0.5534992,0.08639 0.4345395,0.448606 -0.2146162,0.390849 -0.9854553,0.550484 -0.6534115,0.883887 0.4395366,0.441261 1.1108435,0.391841 1.5127382,1.029763 0.1582775,0.251327 0.1239082,0.595036 -0.016723,0.862966 -0.1201422,0.228934 -0.2833574,0.315935 -0.4749563,0.463601 -0.2359047,0.181847 -0.4046093,0.316244 -0.6787724,0.398503 -0.5462898,0.163951 -0.9963776,0.169877 -1.4192544,0.249546 M 43.478442,11.296539 c 0.02814,0.118229 0.05134,0.305266 0.06417,0.432074 0.0158,0.155991 0.02315,0.337965 0.203884,0.435027 0.226459,0.121682 0.404915,-0.124336 0.525924,-0.312055 0.199929,-0.310072 0.169571,-0.626007 0.411089,-0.840318 m -20.580962,0.964047 c -0.03745,0.157407 -0.102189,0.356786 -0.02441,0.551721 0.07078,0.177529 0.220106,0.248491 0.394736,0.229913 0.213505,-0.02281 0.436327,-0.214981 0.611453,-0.17592 0.269596,0.06012 0.353268,0.527037 0.931091,0.410962 m 0.942006,-1.410221 c 0.04589,0.29954 -0.68727,1.210322 -0.455448,0.951309 0.308805,-0.278293 0.599191,-1.121271 0.923931,-1.130898 0.365709,0.194574 0.09841,0.847413 0.438552,0.765041 0.237198,-0.0649 0.507412,-0.671058 0.727152,-0.924185 0.591302,-0.668521 0.47068,0.569844 0.421336,0.979106 -0.06113,0.37621 -0.01903,0.758485 0.02617,1.110711 m 12.053009,-2.241601 c -0.248987,0.391457 -0.554838,1.077011 -0.637278,1.686243 m 7.589916,-1.480959 c 0.976816,0.277428 0.576032,1.829229 -0.246825,2.240691 -0.291439,0.145695 -0.586705,0.124401 -0.863895,0.04242 M 13.24219,12.468945 c -1.054811,0.236416 -3.200547,1.595101 -2.263534,2.633522 0.213382,0.209912 0.497232,0.13068 0.782502,-0.07333 0.322479,-0.230595 0.71258,-0.601153 0.629964,-0.955775 -0.345785,-0.820931 -1.573899,-0.782825 -1.818246,-1.296812 -0.145874,-0.371782 0.05326,-0.841 0.327107,-1.0919 0.174444,-0.159816 0.348457,-0.32186 0.614413,-0.316115 0.395232,0.0085 0.654092,0.326486 0.676059,0.668468 0.01339,0.208321 0.01364,0.383624 0.06443,0.555356 M 33.235147,11.35823 c -0.03203,0.172648 -0.05955,0.321552 -0.06054,0.493646 -8.46e-4,0.148039 -0.004,0.291687 0.09775,0.412325 0.123351,0.146313 0.329205,0.16457 0.518027,0.09017 0.210789,-0.08313 0.324949,-0.219981 0.432073,-0.317352 m -9.076427,0.05035 -0.06171,0.493656 m -4.252213,-0.251397 c 0.293416,-0.102636 0.732397,-0.02398 0.879568,0.158953 0.111319,0.138405 0.09447,0.322788 0,0.468536 -0.221712,0.341802 -0.798793,0.714138 -1.1881,0.829404 -0.503527,0.149084 -1.235368,-0.330131 -0.879567,-0.882897 0.204927,-0.318407 0.498034,-0.293413 0.756153,-0.362648 0.202027,-0.05425 0.234856,-0.142422 0.431946,-0.211348 m 31.593803,3.965103 c 0.244916,-0.01066 0.453666,-0.04444 0.678773,-0.116385 0.423307,-0.135069 0.896601,-0.34987 1.357549,-0.493955 0.157965,-0.04935 0.342902,-0.07887 0.409915,0.07482 0.0651,0.14951 -0.04313,0.303038 -0.10879,0.41207 -0.199496,0.331495 -0.542833,0.683528 -0.788917,0.987312 -0.275644,0.340193 -0.565112,0.722889 -0.743196,1.110722 -0.150009,0.326667 -0.215169,0.558074 0.05855,0.802183 m 3.02363,-2.46827 c 0.3616,-0.201288 0.567082,-0.337901 0.925598,-0.482604 0.283851,-0.114403 0.580657,-0.200179 0.863892,-0.195851 0.221529,0.0032 0.424543,-0.02164 0.547954,0.206029 0.106143,0.195243 -0.03888,0.655146 -0.251143,0.904372 -0.671369,0.790471 -1.711129,1.799558 -2.765075,2.030281 -0.506984,0.11095 -0.596398,-0.409 -0.526666,-0.79614 0.101751,-0.56548 0.408558,-1.00428 0.95861,-1.110722 m -20.36319,-1.049008 c 0.105707,0.237811 0.232389,0.805573 0.282309,1.17242 0.02623,0.192718 0.02639,0.340129 0.02623,0.555367 -1.41e-4,0.176538 -0.04733,0.451994 0.05486,0.580039 0.212455,0.266269 0.556904,0.132233 0.994155,0.170869 0.223996,0.01982 0.369377,0.09635 0.500503,-0.09198 0.0996,-0.143041 0.05023,-0.361667 0.05733,-0.535488 0.02043,-0.497729 0.05924,-0.934674 0.05924,-1.41926 m 12.032796,-0.308568 c -0.310691,-0.05505 -0.489827,-0.06072 -0.740479,0.105088 -1.395319,1.103754 0.868573,1.430568 1.53346,1.893369 0.392765,0.368511 -0.07596,0.819898 -0.423,1.004707 -0.195361,0.104128 -0.539623,0.218499 -0.727335,0.1273 -0.149518,-0.07258 -0.206347,-0.16568 -0.314644,-0.31859 -0.310017,-0.857694 0.372139,-1.268473 0.918827,-1.690997 0.233682,-0.121065 0.636999,-0.17233 0.925599,-0.195244 m -8.145278,-0.802225 c -0.151981,0.370494 -0.206163,0.404556 -0.24195,0.740485 -0.02118,0.19875 -0.112679,0.525737 -0.02913,0.733749 0.166551,0.414542 0.927329,0.233868 1.258385,0.202341 0.302116,-0.02877 0.426577,-0.01066 0.555359,-0.01066 8.46e-4,-0.36704 0.06171,-0.709566 0.06171,-1.234141 m 3.023631,-0.246818 c -0.309707,0.334938 -0.3687,0.711473 -0.369315,1.172421 0,0.128844 0.03796,0.334511 -0.0572,0.461938 -0.145319,0.194678 -0.317422,0.155063 -0.560796,0.190426 -0.432004,0.06278 -0.967865,0.19388 -1.091096,-0.283044 -0.04205,-0.730682 0.232318,-1.506418 0.615659,-1.773059 m -13.654483,0.41836 c 0.432439,-0.213383 0.528948,0.377272 0.759115,0.569552 0.123846,0.103382 0.231709,0.09603 0.412386,0.166115 0.334141,0.129527 0.672849,0.353707 0.764979,0.681674 0.06466,0.230469 -0.02123,0.417132 -0.102125,0.617001 -0.08695,0.214929 -0.195054,0.372156 -0.342534,0.555121 -0.288047,0.357405 -0.594358,0.596634 -1.060798,0.773546 -1.648063,0.625272 -1.961656,-1.30491 -1.271962,-2.377679 0.194996,-0.303347 0.573937,-0.853523 0.840941,-0.98533 m -11.354952,0.306555 c 0.32001,0.484768 0.268115,1.465473 0.172223,1.974616 -0.141349,0.917867 -0.432903,1.87532 -0.60416,2.653323 m 1.831356,-0.677355 c -0.120636,-0.22239 -0.239915,-0.318279 -0.432193,-0.472917 -0.811174,-0.431298 -1.215165,-1.470031 -0.30828,-1.754123 0.395417,-0.122418 0.810148,-0.204122 1.172427,-0.11792 m 21.555459,-0.618258 c 8.46e-4,0.291379 0.06171,0.763687 0.06171,1.542668 m 2.597112,-1.389268 h 0.431944 m -34.190923,0.155075 c 0.0835,0.44966 0.06233,0.781518 0.06171,1.172431 -6.21e-4,0.394611 -0.06164,0.698513 -0.06171,1.172421 0,0.238504 -0.05004,0.52013 -0.01023,0.740484 0.04979,0.275338 0.210173,0.460265 0.322047,0.616138 0.14859,0.207031 0.343707,0.353025 0.675442,0.371165 M 46.93946,18.175711 c 0.02893,0.121693 0.05578,0.237076 0.06078,0.432075 0.01191,0.458603 0.02716,0.72049 0.309463,0.987185 m -11.242892,-1.17756 c -0.07616,0.141922 -0.114157,0.274411 -0.159759,0.555355 -0.07171,0.441518 -0.190118,0.712774 -0.21048,1.110723 m 1.864897,-1.587188 H 38.67219 M 3.2457007,22.711854 c 0.6487829,0.303412 1.1083122,0.455832 1.7894919,0.301131 0.3878264,-0.08804 0.8169969,-0.243929 0.7072828,-0.733077 -0.2575643,-1.148173 -2.6132776,-1.354832 -2.4564801,-2.65339 0.03066,-0.254043 0.3318578,-0.640822 0.4764982,-0.777873 1.8713596,-0.482117 1.5247218,0.01635 0.2853927,0.963043 M 37.56146,18.496301 c 0,0.357842 -0.0042,1.071234 -0.185119,1.666088 M 26.385699,19.071203 c -0.265648,0.216902 -0.457063,0.383816 -0.609476,0.678775 -0.588751,1.206967 -1.112243,2.313036 -1.703841,3.393443 -0.146617,0.271267 -0.206224,0.536853 -0.216655,0.740485 m 1.038544,-2.357491 C 24.609865,21.290383 24.254413,21.134184 23.96322,20.674654 23.815123,20.440903 23.856403,20.191613 23.91744,19.935097 m 4.627998,-0.123409 c 0.129646,0.544495 -0.0398,1.209265 -0.493653,1.604367 M 14.96997,20.613872 c -0.09669,0.258179 -0.132422,0.474525 -0.122179,0.740474 0.01586,0.410972 0.30693,0.632061 0.739247,0.564681 0.288664,-0.04487 0.427688,-0.158772 0.55536,-0.256143 0.173888,0.194988 0.455826,0.648847 0.863893,0.626999 m 0.678773,-0.133098 c 0.347038,-0.0042 1.22932,0.07929 1.408394,-0.378508 0.170679,-0.436327 -0.757883,-0.710738 -0.958985,-0.930729 -0.08602,-0.09411 -0.162226,-0.217327 -0.117921,-0.350371 0.106937,-0.321551 0.584732,-0.237992 0.779232,-0.191843 m -2.406559,0.370248 c -0.147664,0.450215 -0.24189,0.53938 -0.246827,0.987302 m -2.972161,-0.246762 c -0.104098,0.07337 -0.306686,0.261449 -0.483723,0.432988 -0.143282,0.138842 -0.323775,0.35334 -0.555052,0.411218 -0.231338,0.05794 -0.494393,0.01562 -0.627248,-0.123164 -0.390806,-0.4336 -0.07364,-1.017701 0.380608,-1.308604 0.387692,0.08641 0.580896,0.199926 0.816915,0.457301 m -4.5812066,1.734572 c -0.1155774,-0.364502 0.00297,-0.801529 -0.2730758,-0.90797 -0.2142208,0.02147 -0.9211181,0.579053 -1.3107498,0.245148 -0.3050071,-0.261384 0.07744,-0.67334 0.2935393,-0.870682 0.3770883,-0.3442 0.6642709,-0.168151 0.9817522,-0.0096 m 1.2341335,0.740898 c -4.58e-5,0.436945 -0.023013,0.657789 0,0.863893 0.076146,-0.155616 0.1818504,-0.598978 0.2815668,-0.716408 0.5381756,-0.287994 0.6699221,-0.980241 1.1401554,-1.360822 1.105368,-0.119833 0.01272,1.575671 0.614594,1.953587 m 18.982577,3.39658 0.156489,1.049012 0.07985,0.678775 0.03665,0.555356 0.0353,0.431946 0.02642,0.555366 0.03555,0.617066 0.06171,1.23413 m -5.183321,-1.631234 c 0.229055,-0.07208 0.632925,-0.274538 0.863893,-0.455639 0.336671,-0.264051 0.595902,-0.499646 0.725114,-0.875074 0.10084,-0.292913 0.09912,-0.594534 0.03012,-0.863882 -0.08713,-0.340129 -0.340066,-0.826441 -0.634283,-1.035136 -0.25923,-0.183863 -0.687968,-0.200713 -0.920479,-0.03922 -0.284776,0.197769 -0.505131,0.548268 -0.693583,0.889259 -0.120082,0.217327 -0.159387,0.47767 -0.170556,0.740474 -0.0079,0.187527 0.0066,0.312055 0.01334,0.493656 0.0085,0.238558 -0.02634,0.504762 -0.01024,0.740474 0.129073,1.102939 0.101969,1.178752 0.09447,2.657763 M 42.776658,30.79819 c -0.594607,0.40511 -1.680151,0.585911 -1.847562,-0.370238 -0.06479,-0.369874 -0.02228,-0.636505 0.0021,-0.987312 0.03413,-0.494573 0.09793,-1.019137 0.413435,-1.412588 0.351603,-0.438544 0.624407,-0.285324 0.938619,-0.253489 m 4.70958,0.79192 c -0.176709,0.521923 -0.430204,1.105275 -0.51374,1.55266 0.275632,-0.964142 0.848873,-1.863395 1.484225,-2.515593 0.557398,-0.481379 0.598679,0.494082 0.594299,0.787497 -8.46e-4,0.05692 0.0065,0.282927 0.157228,0.308964 0.192341,0.03326 0.284221,-0.07994 0.392026,-0.198441 0.13933,-0.153102 0.538816,-0.936091 0.768737,-1.1554 0.237634,-0.226589 0.436454,-0.272866 0.630334,0.0032 0.09164,0.13039 0.10188,0.275828 0.124156,0.425158 0.07503,0.502108 0.01455,1.046049 0.106754,1.542668 M 31.114338,31.35352 c 0.366046,0 0.589668,0.0011 0.9256,-0.08505 0.417507,-0.107369 0.71327,-0.247638 0.978114,-0.53778 0.132607,-0.145322 0.205174,-0.299585 0.111813,-0.482178 -0.230662,-0.451067 -1.103132,-0.676974 -1.519221,-0.861911 -0.256391,-0.113977 -0.46323,-0.316127 -0.253367,-0.606088 0.168338,-0.232567 0.771582,-0.290888 1.0529,-0.327232 m 1.29584,0.555367 c 0.413066,-0.159082 0.575663,-0.129527 1.17243,-0.242758 1.22359,-0.309477 1.095618,0.117618 0.586334,0.741914 -0.219674,0.269786 -0.421702,0.547523 -0.60207,0.858405 -0.12113,0.20863 -0.354507,0.522784 -0.254417,0.79855 0.100153,0.275945 0.437128,0.292796 0.640392,0.280454 0.431512,-0.02622 1.073943,-0.105727 1.542665,-0.276821 m 7.219928,-2.421546 c 0.327353,-0.118538 0.821438,0.156299 1.047531,0.312045 0.376164,0.259105 0.457245,0.664524 -0.186292,1.106831 -0.720116,0.494892 -1.306762,0.0194 -1.292262,-0.725116 0.0058,-0.292924 0.05499,-0.557573 0.431023,-0.69376 m -25.238272,0.940588 c 0.01013,-0.06363 -0.0079,-0.172222 0.09892,-0.272802 0.560539,-0.199613 0.591957,0.352106 0.578937,0.766468 -0.01542,0.593373 -0.341114,1.371128 -0.924735,1.66435 -0.254664,0.127982 -0.704999,0.05532 -0.925539,-0.03432 -0.227759,-0.09251 -0.318037,-0.233676 -0.552706,-0.24022 -0.200855,-0.0053 -0.406339,0.42504 -0.804841,0.482358 -0.704011,0.101252 -0.909987,-0.586828 -1.134538,-1.131696 -0.265749,-0.567237 -0.194765,-1.066404 0.394061,-0.617076 m 11.415732,-0.431935 c -0.08682,0.274655 -0.243741,0.773854 0.03172,1.010813 0.167347,0.143958 0.414483,0.02952 0.585348,-0.04135 0.282431,-0.117185 0.359936,-0.156054 0.493654,-0.414052 m 11.168798,-0.123444 -0.18512,0.123419 M 4.0249776,31.908949 c 0.017774,0.138468 0.088367,0.410225 0.032897,0.546222 -0.1078199,0.26436 -0.3313276,0.197651 -0.6499681,0.194017 -1.4684845,0.404547 -2.76972374,-2.210264 -1.6043246,-2.272847 0.2930147,0.0022 0.7135573,0.20197 0.8638443,0.236767 m 25.1972548,0.04139 c 0.224426,0.302484 0.531172,0.555058 0.925602,0.802184 m -11.804157,-0.44108 0.06171,0.555355 M 5.876145,31.044773 C 6.4748837,31.243342 6.6835144,31.51997 6.5698501,32.155495 6.5312827,32.370914 6.2925402,32.84463 6.1116166,32.984643 5.9792563,33.08696 5.8572001,33.119232 5.691024,33.157974 5.4235258,33.220426 5.117232,33.16013 4.8271307,33.059921 4.5067443,32.94879 4.2270846,32.623875 4.0578785,32.455171 m 6.0143185,0.07056 C 9.8357991,32.794585 9.5325101,32.930592 9.0851986,32.760896 8.8573776,32.67446 8.7436531,32.567314 8.6510311,32.339501 8.5419955,32.07126 8.518855,31.749208 8.5307029,31.476779 c 0.071914,-0.59034 0.5381819,-0.37549 0.986134,-0.185182 M 21.302809,31.044769 v 0.246828 m -9.132585,0 c 0.206718,0.373136 0.465269,0.676057 0.534749,1.110721 0.04399,0.275573 -0.119092,0.541042 -0.349937,0.670196 -0.167041,0.09347 -0.306498,0.11922 -0.493345,0.179565 -0.185429,0.0599 -0.355184,0.08388 -0.55536,0.07023 -0.59948,-0.04082 -1.285125,-0.463743 -1.4725897,-0.605536 m 160.9456687,2.27451 1.06814,2.900218 0.26472,0.857786 0.39493,0.07311 0.9256,0.1181 m 0.11663,-2.485379 c 0.16107,0.613549 0.32952,0.763133 0.74048,1.234131 m -20.6034,-1.093603 c 0.42516,0.204622 0.97866,0.125018 1.48095,0.182038 0.195,0.02206 0.35667,0.05489 0.55536,0.07716 0.24376,0.02739 0.38876,0.04541 0.61707,0.04913 0.25485,0.0042 0.5424,0.04039 0.80218,0.07865 0.35853,0.05276 0.66829,0.08015 0.98732,0.291752 m -13.26694,-0.617072 c 0.40973,0.330376 0.63867,1.338483 0.86143,2.098035 0.0716,0.243866 0.10179,0.451813 0.17895,0.678765 0.0691,0.204558 0.13143,0.395602 0.1808,0.617075 0.22215,0.989466 0.4412,1.97405 0.6146,2.961917 0.10178,0.582022 0.18821,1.451585 0.38566,1.974615 m 13.14352,-8.330407 c 0.0925,0.293053 0.14378,0.568689 0.21721,0.863894 0.0784,0.313782 0.11971,0.56579 0.18882,0.863893 0.0858,0.369502 0.17648,0.732651 0.282,1.110722 0.11909,0.424177 0.44738,1.198842 0.35914,1.539023 -0.0586,0.226653 -0.19562,0.231652 -0.36839,0.246828 -0.14625,0.0129 -0.28138,-1.81e-4 -0.43195,0.01417 m -2.08612,1.563214 -0.0119,1.1414 c 0.0544,-0.665285 0.31348,-0.960444 0.51405,-1.542667 0.13789,-0.423477 0.38784,-0.687376 0.70222,-0.934983 0.78961,-0.567457 0.58411,0.80372 0.69493,1.181976 0.2641,0.833775 0.46896,1.566735 0.80403,2.283143 m -5.36859,-8.133082 c -0.0236,0.914787 0.35499,1.802221 0.52073,2.641018 0.15981,0.799785 0.27644,1.685773 0.28076,2.529981 9e-4,0.234049 0,0.396466 0,0.617065 0,0.323523 -0.0894,0.465018 0.0635,0.635951 0.0838,0.09422 0.25423,0.04412 0.30668,0.03357 0.9035,-0.02089 1.15798,-0.4283 1.35755,-1.16317 M 98.335281,37.089294 c 0.29311,0.308965 0.415282,0.576533 0.678776,0.925603 0.950895,1.258506 1.912893,2.534171 2.630553,3.94923 0.16475,0.325314 0.26596,0.700241 0.43441,1.049012 0.13637,0.283172 0.48401,0.861527 0.58767,1.093849 m 74.34458,-6.1538 c 0.39492,0.60547 -0.034,1.821523 -0.29187,2.406316 -0.0827,0.187155 -0.22646,0.420532 -0.44676,0.372284 -0.38011,-0.08313 -0.37764,-0.584186 -0.45169,-0.865684 -0.0562,-0.216283 -0.12032,-0.393823 -0.16723,-0.555366 m -47.76095,5.553597 c 0.25361,0.316563 0.45108,0.54556 0.86389,0.718092 0.47638,0.198995 1.24957,0.06032 1.72779,-0.08036 0.21289,-0.06267 0.37457,-0.123484 0.55536,-0.248182 0.22771,-0.157301 0.38876,-0.3455 0.53067,-0.574614 0.16168,-0.262314 0.1987,-0.764113 0.13144,-1.110722 -0.23696,-1.214701 -2.02706,-2.227795 -2.94526,-2.88226 -0.60719,-0.4325 -1.59141,-0.909989 -1.94623,-1.622325 -0.0969,-0.193762 -0.12156,-0.419669 0.0173,-0.599917 0.16414,-0.212701 0.43133,-0.225224 0.69482,-0.298168 0.80959,-0.223998 1.66299,-0.139268 2.28315,0.466138 m -26.22496,-0.370231 c -0.26842,0.712219 -0.3252,1.547847 -0.22091,2.344852 0.0284,0.21203 0.0351,0.346555 0.0358,0.555366 5.7e-4,0.459902 0,1.132197 0,1.604377 0,0.543941 -0.0166,0.869319 -0.0975,1.480948 -0.0265,0.205614 -0.0241,0.343657 -0.0517,0.555367 -0.10675,0.807246 -0.13823,1.710756 -0.21042,2.468271 -0.0383,0.400655 0.007,0.559001 -0.0721,0.987302 M 178.785,39.877844 c 0.12551,-0.0868 0.22748,-0.174925 0.30771,-0.443912 0.11539,-0.386224 0.11355,-0.918377 -0.23509,-1.078076 -0.10861,-0.04935 -0.2129,-0.07856 -0.36347,-0.03699 -0.29125,0.08009 -0.36304,0.366294 -0.37023,0.621691 0.0489,1.044242 0.92886,1.412938 1.78826,1.542671 m -7.79979,-1.73394 c -0.21968,0.117419 -0.74911,0.259287 -1.48096,0.123409 m 1.48096,-0.123409 c 0.0351,0.442125 0.2098,1.165824 0.35482,2.036325 0.0586,0.351415 0.14871,0.819705 0.20054,1.172421 M 110.8624,38.940559 c 0.005,0.706539 0.23449,1.473796 0.39185,2.159734 0.0697,0.30501 0.1234,0.542832 0.20239,0.863893 0.0752,0.307728 0.12342,0.602315 0.18204,0.925593 0.0493,0.27343 0.10799,0.524201 0.16167,0.802194 0.0431,0.22726 0.0431,0.374863 0.0752,0.617065 0.13207,0.989775 0.33692,1.928146 0.34433,2.838509 m 28.94042,-6.540911 c -0.21351,-0.247073 -0.36407,-0.371356 -0.41776,-0.678775 m -31.23775,-0.370233 c 0.33937,0.498953 0.41527,1.516866 0.55473,2.159722 0.0759,0.351671 0.14316,0.822126 0.18266,1.172432 0.0204,0.182902 0.0493,0.36672 0.0802,0.555356 0.0284,0.178766 0.0365,0.30761 0.0518,0.493656 0.0327,0.406645 0.12959,0.832484 0.19499,1.234131 0.0772,0.476006 0.066,0.938189 0.29311,1.357549 m 63.53557,-7.576882 c -0.17358,0.719372 0.16836,1.970236 0.33082,2.208404 m -9.81136,2.468271 v -0.925603 c 0,-0.17217 -5.5e-4,-0.30743 0,-0.493657 9e-4,-0.21949 0.0142,-0.335748 0.0704,-0.555355 0.0506,-0.197898 0.0475,-0.371783 0.14316,-0.552894 0.17771,-0.337847 0.65779,-0.523701 1.02062,-0.479897 0.21166,0.02558 0.32026,0.112868 0.43195,0.168897 m 3.27045,2.71509 c -0.21165,-0.185183 -0.44923,-0.469463 -0.64854,-0.653474 -0.0568,-0.05179 -0.16176,-0.362557 -0.29997,-0.352869 -0.20117,0.01407 -0.33251,0.445797 -0.47074,0.55341 -0.20734,0.16149 -0.70346,0.346182 -0.94164,0.0631 -0.27645,-0.328639 -0.24931,-1.169085 -0.19439,-1.523036 0.0303,-0.195308 0.063,-0.555676 0.22956,-0.713702 0.17587,-0.166296 0.36468,-0.158462 0.52265,-0.06863 0.19253,0.109777 0.34432,0.813353 0.44553,1.090845 m -5.36848,-0.203949 c 0.21227,-0.02665 0.55412,-0.09237 0.71827,-0.259468 0.25608,-0.26047 -0.0155,-0.483062 -0.22585,-0.551166 -2.02855,-0.509902 -0.73067,2.690301 0.68001,2.12541 m 6.04724,-2.098187 c -0.10798,0.103809 -0.21535,0.200669 -0.26348,0.493901 -0.0401,0.24911 -0.0463,0.447988 -0.0451,0.67852 9e-4,0.30453 0.0166,0.621638 0.31161,0.810955 0.26103,0.16716 0.59795,0.104448 0.86082,0.01066 0.25361,-0.0907 0.42084,-0.234923 0.61706,-0.327786 m -10.55372,-1.546527 0.55536,-0.06171 m -0.55536,0.06171 c 0.0598,0.409 0.24928,1.255489 0.33444,1.851206 0.0365,0.252807 0.0995,0.655236 0.0995,0.929455 m -20.54833,1.480958 c -0.35789,0.113476 -0.53252,0.148711 -0.86387,0.215111 -0.44985,0.09006 -1.08976,0.07354 -1.47851,-0.196779 -0.19436,-0.13527 -0.32271,-0.305458 -0.43133,-0.511988 -0.11167,-0.213074 -0.12341,-0.379126 -0.12649,-0.617065 -0.008,-0.685191 0.12526,-1.915314 0.68495,-2.368737 0.26162,-0.211401 0.44305,-0.221707 0.796,-0.222943 m 4.01094,0.617065 c -0.75096,0.0089 -1.03854,0.870992 -0.97681,1.542668 0.0252,0.272376 0.0697,0.584121 0.30977,0.756408 0.4159,0.298338 0.92189,-0.01192 1.20451,-0.325388 0.25978,-0.287734 0.36467,-0.424167 0.38813,-0.739558 l 1.23414,0.617076 M 134.24898,42.33453 c 0.76763,0.21899 1.55686,0.77232 0.99655,1.604368 -0.14315,0.21221 -0.29926,0.365546 -0.5029,0.535243 -0.25546,0.213138 -0.5498,0.40868 -0.8639,0.481133 -0.20795,0.04786 -0.38751,0.06118 -0.61645,0.01855 -0.33937,-0.06352 -0.64853,-0.477914 -0.67568,-0.788115 -0.0217,-0.250036 -0.0833,-0.550059 0.0951,-0.781891 0.43874,-0.569435 1.27239,-0.228805 1.81417,-0.02025 m -17.46301,-0.925593 c -0.10297,1.013855 -0.21855,0.869132 -0.11301,1.912921 0.0327,0.32235 0.14748,0.839571 0.33815,1.110657 0.65964,0.939725 1.4681,0.106897 1.87412,-0.381632 m 1.1712,-2.1483 c 0.23077,0.02984 0.39923,0.04317 0.61705,0.137296 0.96448,0.417079 0.8423,2.317024 -0.18512,2.553493 -0.18573,0.04263 -0.32087,0.03144 -0.49365,0.02164 -0.27644,-0.01577 -0.51957,-0.140323 -0.74048,-0.263423 -0.14315,-0.07994 -0.26595,-0.125337 -0.369,-0.300704 -0.0827,-0.141303 -0.1037,-0.439717 -0.12465,-0.605651 M 154.1813,44.08106 c 0.72505,-0.09368 1.50626,-0.502108 2.40655,-0.802195 m -43.38093,0.351548 c 0.13317,-0.0044 0.25538,0.02203 0.37026,0.04348 0.52388,0.143839 0.89968,0.301503 1.29213,0.700368 0.35359,0.359014 0.30791,0.936036 -0.12095,1.25308 -0.70407,0.520812 -1.89377,0.304339 -1.90057,-0.639404 -5.4e-4,-0.136807 0.0327,-0.313782 0.10861,-0.411398 0.13884,-0.178884 0.282,-0.09742 0.37395,-0.08228 m -7.40481,0.801895 c 0.43504,-0.0052 1.71792,-0.255962 1.75557,-0.802002 0.0172,-0.246882 -0.2993,-0.507768 -0.58313,-0.60337 -0.24251,-0.08174 -0.50662,-0.176741 -0.8022,-0.03975 -0.23448,0.108669 -0.34802,0.245166 -0.49365,0.370429 -0.85827,0.922317 -0.68334,1.754921 0.24683,2.611866 0.42516,0.390114 1.07246,0.66526 1.54266,0.746219 m 33.85713,-4.656468 c -0.093,1.062338 0.23569,1.401902 0.40857,2.00851 m -3.53575,5.054519 c 0.024,0.411201 0.11683,0.815242 0.18308,1.172524 0.0117,0.31829 9e-4,0.559682 9e-4,0.925475 v 0.925603 c 0.074,0.894798 -0.41664,2.243922 0.0616,2.961917 m -0.67762,-5.218869 c -0.33569,-0.04178 -0.6035,-0.02633 -0.9256,-0.02622 -2.5404,-0.01667 -1.9215,-0.307078 -2.58489,1.789496 -0.12527,0.394239 -0.17154,0.676547 -0.25362,1.110722 0.3616,0.05372 0.74172,-0.113422 1.17242,-0.04157 0.67385,0.112304 1.46246,0.577269 1.46369,1.275719 9e-4,0.606578 -0.87747,1.001317 -1.34027,0.96719 -0.37579,-0.02782 -0.82008,-0.219917 -1.11072,-0.535244 m -19.80782,0.740485 c -0.12402,-0.669897 -0.0876,-1.53687 -0.12094,-2.221443 -0.0197,-0.400538 -0.05,-0.785707 -0.1,-1.172421 -0.0124,-0.09752 -0.0345,-0.252136 -0.006,-0.364759 0.074,-0.289833 0.26718,-0.348206 0.3869,-0.5611 0.11909,-0.212072 0.41219,-0.813044 0.71456,-0.97576 0.2678,-0.144212 0.49797,-0.02004 0.72752,0.151493 0.88188,0.658468 0.99542,3.361664 -0.30606,3.045966 0.78163,0.275774 1.35086,1.017577 1.40541,1.727782 0.0303,0.530554 -0.57079,1.098315 -0.97435,1.346987 -0.43195,0.266087 -0.76578,0.402211 -1.23414,0.25738 m 17.95753,-6.540905 c 0,0.277012 -0.0265,1.139914 0.0259,1.542669 0.0228,0.172541 0.0345,0.305692 0.0358,0.493656 0.002,0.335193 -0.0148,0.65051 0.002,1.049012 0.0136,0.311064 0.058,0.456875 0.0592,0.740484 0.002,0.34728 0,0.865983 0,1.234131 m -8.63931,0.246824 c 0,-0.30032 -0.006,-0.520184 0.0544,-0.802184 0.0878,-0.936488 0.52286,-1.836097 0.77442,-2.547619 0.10115,-0.295951 0.10737,-0.494339 0.20548,-0.722836 0.22893,-0.531353 0.42146,-1.039504 0.94042,-0.802183 m -2.87369,0.661126 c 0.28139,0.0053 0.51464,0.109595 0.74049,0.244664 0.48006,0.287371 0.69296,0.489947 0.9873,0.619229 m -11.35984,-0.964171 0.37024,0.555355 m -11.06623,5.918357 c -0.13328,-0.438555 -0.10061,-0.913326 -0.1592,-1.357551 -0.0191,-0.150011 -0.0197,-0.275466 -0.0315,-0.431946 -0.0179,-0.241212 -0.0475,-0.415533 -0.11169,-0.678775 -0.066,-0.273793 -0.10799,-0.47459 -0.15798,-0.740485 -0.0593,-0.316244 -0.17831,-1.043576 -0.20856,-1.29584 -0.0247,-0.200114 -0.14254,-0.551401 -0.10307,-0.799775 0.0308,-0.197279 0.16352,-0.274038 0.22029,-0.328586 0.17278,-0.167042 0.30422,-0.487975 0.79849,-0.507543 0.98422,-0.0389 1.73087,1.36922 1.26992,2.190343 -0.17339,0.309647 -0.42022,0.36931 -0.71457,0.475325 -0.22954,0.0826 -0.43256,0.09677 -0.67877,0.142668 m 16.98723,-2.775381 c 0.39122,-0.213693 1.11319,0.08079 1.46307,0.337357 0.59732,0.438607 1.18971,1.294837 1.02062,2.067786 -0.0747,0.343955 -0.17339,0.686236 -0.53253,0.892948 -0.63865,0.36753 -1.65497,0.316808 -2.27759,-0.08867 -0.224,-0.145748 -0.41836,-0.341236 -0.56462,-0.557455 -0.33876,-0.501735 -0.53561,-1.487065 -0.18449,-2.032925 0.18573,-0.288479 0.37147,-0.252189 0.6257,-0.329076 0.21721,-0.06587 0.29805,-0.207276 0.44984,-0.289961 m -18.19112,0.186109 0.30853,0.617064 m 5.15313,0.861486 c 0.37826,-0.301812 0.7053,-0.254608 1.17242,-0.184873 0.58745,0.08771 1.26808,0.355124 1.55131,0.987057 0.10922,0.24442 0.0142,0.330441 0.0537,0.555356 0.0537,0.303976 0.11044,0.538334 -0.0925,0.925603 -0.60472,1.152245 -2.23625,1.574024 -3.05757,0.426394 -0.4807,-0.671368 -0.58189,-1.949004 -0.44491,-2.771246 0.16599,-0.992918 0.55784,-1.599869 1.43469,-0.802184 m 17.05748,-0.202762 c 0.47638,0.351543 0.78121,0.936517 1.08418,1.727787 0.1117,0.291997 0.23643,0.705791 0.30862,1.00495 m 26.78113,2.468265 c 0.53499,0.05361 1.43591,0.301131 0.87191,1.048959 -0.083,0.109829 -0.18539,0.274683 -0.27465,0.424817 -0.18295,0.268196 -0.14302,0.273978 0.12544,0.282434 0.61568,0.01475 1.48908,0.01769 1.92946,0.41525 0.13576,0.121565 0.26041,0.260407 0.34433,0.420224 0.0993,0.189445 0.12835,0.327668 0.14501,0.555365 0.042,0.573869 -0.0894,1.021856 -0.49366,1.41246 -0.30482,0.29496 -0.43502,0.262261 -0.67322,0.685564 m -13.14353,-3.949233 0.029,0.493656 0.15612,0.802184 0.23449,3.702401 0.32087,0.987302 m -9.00917,-5.738715 c 0.30113,0.07834 0.66765,0.594854 1.04962,0.987313 0.24375,0.249908 0.4829,0.478745 0.73987,0.726288 0.17563,0.169199 0.34389,0.233272 0.48933,0.341226 m -0.48933,4.054137 c 0,-0.568327 0.0957,-1.095918 0.22214,-1.727787 0.0587,-0.293105 0.12346,-0.642986 0.15797,-0.925603 0.39751,-0.905841 -0.12323,-2.914165 0.60719,-3.393865 m 14.8096,-0.06171 c 0.29866,0.884879 0.44738,1.790733 0.59116,2.7151 0.0858,0.553501 0.15426,0.934854 0.39615,1.23413 m -5.67701,-0.802194 c 0.46218,0.636814 1.67596,0.858959 2.40656,0.863904 0.27645,0.0022 0.76639,-0.03517 0.71888,-0.431946 -0.0456,-0.383826 -0.42639,-0.612131 -0.78059,-0.826261 -0.27583,-0.166605 -0.60596,-0.267184 -0.9256,-0.32704 -0.27089,-0.05063 -0.93177,0.01609 -1.10887,-0.191907 -0.21288,-0.249909 0.0759,-0.709012 0.18883,-0.999655 0.17154,-0.442435 0.3073,-0.609658 0.67322,-0.839209 0.31655,-0.198697 0.60411,-0.215974 0.92559,-0.253607 0.54363,-0.06416 1.00088,0.06171 1.54267,0.167224 m -5.12166,0 c 0.0617,0.778117 0.35666,1.080484 0.37025,1.727776 -0.52698,0 -0.85464,0.06661 -1.48096,0.133906 -0.20363,0.02164 -0.39246,0.111696 -0.59795,0.01418 -0.24976,-0.379561 -0.42662,-1.514855 0.0341,-2.063042 m -12.14745,0.372284 c 0.19438,0.57325 0.4844,1.361247 0.59732,2.036314 0.0327,0.198697 0.0371,0.370855 0.10061,0.555366 0.15112,0.439343 0.32952,1.425419 0.19623,1.849959 -0.44935,1.091661 -2.49986,-3.131356 -2.54849,-3.269215 -0.86816,-2.404072 -0.11764,0.07277 0.18644,1.234162 l 0.25053,1.234129 0.29188,1.974616 M 122.8168,63.05908 c -2.06582,0.400806 -0.93483,2.534464 0.6173,3.023663 m -1.52685,-5.112868 c -0.70079,-0.260766 -0.13913,1.352767 -0.24933,1.85121 0.13905,1.830236 -0.19451,1.969706 0.8666,3.887529 m 23.26321,-5.245093 c 0.19005,0.306076 0.22893,0.53809 0.31408,0.987313 0.12589,0.662735 0.22956,1.413078 0.48811,2.098023 m -44.01397,-0.631945 0.37024,0.555356 m 3.16422,4.02582 c -0.53684,-0.772566 -0.80712,-2.272037 -0.97003,-3.208746 -0.0383,-0.220908 -0.0587,-0.338156 -0.15488,-0.555355 -0.2246,-0.50538 -0.59361,-1.665516 -1.21932,-1.711128 -0.32766,-0.02407 -0.42208,0.280145 -0.50969,0.538696 -0.4568,0.772584 -0.36125,1.482644 -0.25723,2.283143 0.13328,1.000891 0.29249,1.970299 0.40418,2.961927 0.0284,0.253607 0.1006,0.386896 0.11539,0.617066 m 14.7478,-2.961928 c -0.007,-0.172159 -0.13513,-0.785525 -0.10488,-1.110722 0.037,-0.393684 0.0586,-0.420222 0.0993,-0.925592 0.0987,-1.221799 1.07247,-1.274854 1.91846,-0.740485 m 5.92393,0.987313 c 0.63248,0.890432 0.86513,1.9598 1.29584,3.085326 m -10.96394,-2.151799 c -0.10196,-0.120652 -0.14371,-0.147567 -0.30126,-0.322003 -0.21658,-0.238802 -0.58867,-0.670142 -0.94473,-0.476369 -0.25302,0.137594 -0.31296,0.588672 -0.31655,0.852159 -0.003,0.215973 -0.0272,0.467118 0.0814,0.676302 0.31469,0.607196 1.0379,0.182657 1.27609,-0.121554 0.26084,-0.376687 0.28582,-0.357594 0.59553,-0.11971 0.20177,0.32396 0.45291,0.84538 0.76206,1.16934 m -9.74965,-0.308542 c 0.22892,-0.315934 0.46095,-0.701603 0.40047,-1.110721 -0.0389,-0.266567 -0.2351,-0.680029 -0.52204,-0.649764 -0.93362,0.572457 -0.4688,1.888777 -0.34607,2.094025 0.24681,0.386287 0.70773,0.469262 1.14645,0.545169 0.39616,0.06906 0.90402,0.131434 1.29585,0.108594 m 3.08528,-2.715089 c 0.35234,0.178947 0.6615,0.573261 0.67815,1.23413 0.006,0.286934 0.0111,0.626327 -0.15735,0.861432 -0.17833,0.247446 -0.49919,0.335684 -0.76762,0.290643 -0.15118,-0.02526 -0.28879,-0.130209 -0.49366,-0.106762 -0.29496,0.03336 -0.50352,0.33075 -0.8639,0.296197 -0.18079,-0.01727 -0.35233,-0.103703 -0.49119,-0.208566 -0.29679,-0.224 -0.456,-0.717037 -0.5356,-1.071234 -0.21449,-0.510497 0.0588,-0.862814 0.47149,-0.493657 m 1.35747,0.921905 0.0617,0.555355"
       id="path55700"
       sodipodi:nodetypes="cccccccccccccccccccccccccccccccccccccccccccccssccccsccsccccsccsccccscccccccccccccccccccccccccccccccccccccccccccccccccccccccccccccccscccccccccccccccccccsccscccccccccccccccccccscccccccscscccccccccccccccccccccccccccccccccccccscccccccccccccscccccscccsccccccccccscccccccccccccccscccccccsccccccccccccccccccccccccccsccccccccccccccccccccccccccccccccsscccccsccccccsccccccccccccccccccccccccccccccccccccccscccscccscccccscccccccccccccccccscccccsccccccccccccccccccccccccccccccccccccsccccccccccccccccccccccccscccccccccccccccccccccccccccsccccccccccccccccccccccccccccccccccscscccccscccccccccccccccccccccccccccccccccccccccccccccccccccccccccccccccccscccccccscccccccccccccccccccccccccccccccccccccccccccccccccccccccccccccscccccccccccccccscccccccccscccccccccscccccccccccccccccccccccccccccccccccccccccccccccccccccccccccccccccccccc" />
  </g>
</svg>
