<?xml version="1.0" encoding="UTF-8" standalone="no"?>
<!-- Created with Inkscape (http://www.inkscape.org/) -->

<svg
   width="210mm"
   height="297mm"
   viewBox="0 0 210 297"
   version="1.1"
   id="svg5"
   inkscape:version="1.1 (c68e22c387, 2021-05-23)"
   sodipodi:docname="Casey - Pulsz - Envelope 14.svg"
   xmlns:inkscape="http://www.inkscape.org/namespaces/inkscape"
   xmlns:sodipodi="http://sodipodi.sourceforge.net/DTD/sodipodi-0.dtd"
   xmlns="http://www.w3.org/2000/svg"
   xmlns:svg="http://www.w3.org/2000/svg">
  <sodipodi:namedview
     id="namedview7"
     pagecolor="#ffffff"
     bordercolor="#666666"
     borderopacity="1.0"
     inkscape:pageshadow="2"
     inkscape:pageopacity="0.0"
     inkscape:pagecheckerboard="0"
     inkscape:document-units="mm"
     showgrid="false"
     inkscape:zoom="1"
     inkscape:cx="421.5"
     inkscape:cy="193.5"
     inkscape:window-width="1280"
     inkscape:window-height="657"
     inkscape:window-x="-8"
     inkscape:window-y="-8"
     inkscape:window-maximized="1"
     inkscape:current-layer="layer1" />
  <defs
     id="defs2" />
  <g
     inkscape:label="Layer 1"
     inkscape:groupmode="layer"
     id="layer1">
    <path
       style="fill:none;stroke:#3e3930;stroke-width:0.0591645"
       d="M 36.02153,2.0028128 C 36.338894,1.7895895 36.494728,1.679302 36.363918,1.444592 36.275528,1.2858749 35.865803,1.3521359 35.757023,1.4941825 35.5247,1.737101 35.457277,1.9064908 35.328949,2.1803085 35.124415,2.6168244 34.847642,3.0031738 34.75653,3.4819361 c -0.134541,0.7070679 0.01822,1.208139 0.732518,1.4376986 0.337537,0.1085071 0.814048,-0.064355 1.12413,-0.2267161 0.204414,-0.1070963 0.31882,-0.270078 0.513116,-0.2688885 m 2.194142,-0.4096158 c 0.09721,-0.3193717 -0.252339,-0.6045435 -0.636495,-0.5789912 -3.072444,1.3174111 0.07127,2.108039 0.636495,0.5789912 z m 1.315941,-1.5647831 c 0.07273,0.3769595 -0.03137,0.036702 0.08731,0.3314787 m -0.02652,0.2572709 0.08753,1.5254938 M 24.957733,1.766154 c 0,0.6442412 0.01598,0.8949819 0.0083,1.4791237 -0.0032,0.2389012 -0.01645,0.3762261 -0.0071,0.5915882 0.0052,0.1187978 0.01255,0.2317399 0.09372,0.3317265 0.114248,0.1407582 0.205185,0.1432968 0.314047,0.2131175 0.152762,0.09806 0.348837,0.3019188 0.537749,0.4018429 m -1.774963,0.1183341 c -0.12961,-0.1625298 -0.219422,-0.3405001 -0.42425,-0.4159877 -0.232636,-0.08574 -0.319371,-0.203354 -0.53479,-0.373741 -0.519156,-0.5105588 -1.38852,0.038179 -0.915452,0.5272894 0.144598,0.140221 0.393563,0.1794446 0.691162,0.1020607 0.233997,-0.06088 0.355698,-0.1666163 0.473318,-0.2538789 m -1.59745,-0.756027 C 21.530794,3.6187765 21.242544,3.6974787 21.17119,3.7185372 21.120554,3.5473073 21.112079,3.4012296 21.112025,3.1268855 21.111892,2.6864097 21.055872,2.4690892 21.345666,2.2743191 M 44.939897,2.4703649 C 42.374388,2.9224401 46.634484,3.0908293 45.58166,4.2999028 45.120352,4.8366473 43.992557,5.069925 43.535444,5.079341 M 43.180458,3.6593801 43.083252,2.7171275 m -1.145253,1.2380835 0.02419,-0.1277402 c 0.09567,-0.5131409 0.257127,-0.6283893 0.479525,-0.9931362 0.153067,-0.2510352 0.303299,-0.2820434 0.64154,-0.1172071 M 3.5401149,6.4992928 C 4.0120721,6.6984332 4.7244143,6.5968252 5.131349,6.2751153 5.3368877,6.1125855 5.4474662,5.9382281 5.3546963,5.6709827 5.2036484,5.2358254 4.7476666,4.9429016 4.3684207,4.7432857 4.1714029,4.6395392 3.9710116,4.5794503 3.7767734,4.4662134 3.5911151,4.357885 3.4053967,4.2209184 3.3445169,4.01431 3.2310979,3.6298038 3.7594977,3.0318219 4.1317622,2.8726736 4.3630964,2.7737721 4.5496422,2.7607854 4.7825733,2.7127459 M 24.965989,3.2452777 c 0.266596,-0.050237 0.375133,-0.059437 0.997544,-0.3550351 m 3.490715,0.29582 c 0.08654,-0.00481 0.556496,-0.013963 0.618546,0.1870551 M 29.454248,3.1860626 c -0.154768,-0.015288 -0.569889,-0.2686063 -0.414152,0 0.870734,1.7705075 1.19258,1.7954928 -1.005782,2.0115826 M 26.673506,3.6002176 c 0.142763,-0.092898 0.342626,-0.1923475 0.532484,-0.2233455 0.148682,-0.024225 0.52994,-0.061724 0.608688,0.1806886 0.03544,0.1091604 -0.01043,0.2199748 -0.101883,0.3251749 -0.110577,0.1271395 -0.245238,0.2164781 -0.446576,0.2216805 -0.364453,0.00948 -0.318957,-0.2120958 -0.592713,-0.5041985 -0.314604,0.2716757 -0.255828,0.5339644 -0.02614,0.8229805 0.199979,0.2516887 0.451013,0.3878868 0.736129,0.4194845 M 18.153803,5.493486 c -0.01603,0.1043789 -0.1046,0.2645906 0.07887,0.4476491 0.359542,0.3588893 1.61271,0.067195 1.775235,-0.5068742 0.182289,-0.6437673 -1.20258,-0.745534 -1.557982,-0.8364622 -0.282807,-0.072357 -0.446515,-0.2922824 -0.218081,-0.5781592 0.298249,-0.3732674 0.653947,-0.4924344 1.046091,-0.4774041 0.25571,0.00948 0.323987,0.080051 0.532482,0.2132862 m 0.887352,0.077311 c 0.230092,-0.03455 0.369348,-0.045619 0.473418,-0.1142958 m 7e-6,-5.4e-6 c 0.03425,0.1845954 0.08046,0.2893119 0.05685,0.8283 -0.0054,0.1227682 -0.02308,0.2354789 -0.04087,0.3549925 -0.03615,0.2426937 -0.04071,0.3010869 -0.193469,0.5324792 m -5.398319,0.5182246 c 0.118804,-0.4591192 0.130532,-1.024382 0.417895,-1.583193 0.120873,-0.2349943 0.210981,-0.45775 0.486215,-0.5550193 0.468111,-0.1654785 0.802568,0.3282506 0.858657,0.6733535 0.03065,0.1882609 -0.03373,0.617088 -0.159212,0.8173562 -0.111585,0.1780864 -0.298368,0.2626952 -0.465094,0.382863 -0.145252,0.1046947 -0.344223,0.2606202 -0.532485,0.3301986 -0.25713,0.09511 -0.379316,0.1268791 -0.605976,-0.065562 M 14.899739,5.7247649 C 14.603206,5.7024362 13.817735,5.430061 13.631543,5.1866614 13.562416,5.0822443 13.507272,4.8987168 13.550902,4.8022087 c 0.0826,-0.1625298 0.353035,-0.1474994 0.37463,-0.3198453 0.0184,-0.1466148 -0.206662,-0.2280752 -0.304343,-0.1695025 -0.670642,0.2625283 -0.300414,0.7392936 0.01035,0.8738005 M 11.39541,5.4333581 C 11.220045,5.357943 10.821812,5.2894942 10.769037,5.073722 10.735427,4.9362184 10.750387,4.7703179 10.861267,4.6185633 10.9722,4.4666825 11.119283,4.4073412 11.290684,4.3257029 c 0.277008,-0.1319428 0.547747,-0.2441154 0.878714,-0.047715 0.472963,0.2807379 -0.205539,0.7327583 -0.52278,0.8735056 -0.09993,0.04434 -0.272748,0.1264981 -0.251213,0.2818647 0.04935,0.3559942 0.587209,0.2957047 0.960242,0.2967055 m 12.60326,-1.8931977 -0.0012,0.7099052 M 9.328427,4.519434 C 10.702382,4.4266051 9.6431914,6.1424267 8.8057713,6.1111365 8.6078058,6.0880729 8.472085,5.9525562 8.3147059,5.9076664 M 8.3324528,5.4933953 C 8.3320908,5.612204 8.3310918,5.7951989 8.3147059,5.9076664 8.2843022,6.1165186 8.2727522,6.2558551 8.1246095,6.4235883 7.9992392,6.5655785 7.8001496,6.628354 7.6224778,6.6574031 7.3249385,6.705962 7.0698202,6.6147417 6.8698441,6.3782657 6.6673821,6.1390062 6.5737248,5.6850378 6.6651338,5.3753669 6.7913315,4.9476667 6.9454561,5.0642208 7.3266542,5.0792512 M 49.511081,5.7892261 c 0.109926,0.5921154 0.05917,0.4777516 0.05917,1.0057968 -0.330375,-0.078473 -0.571115,-0.036864 -0.946635,0.1774958 m 3.431551,-1.0058058 c -0.126669,0.4645638 -0.266654,0.8591919 0.355052,1.0148008 0.405928,0.1016407 0.67063,0.1590857 0.856997,0.00948 0.217374,-0.1750107 0.20548,-0.7293867 0.207905,-1.0239646 m 3.372388,0 c -0.0059,0.6852972 -0.05917,1.1222873 -0.05917,1.8341059 M 15.595386,5.9525281 C 15.463035,6.2005413 15.532855,6.4909193 15.43222,6.9136474 M 55.190892,6.2089348 c 0.28458,0.020859 0.491068,0.057723 0.708793,0.1804563 0.191103,0.1073803 0.340788,0.2874782 0.343747,0.5242 0.0089,0.7835147 -1.593897,1.5953726 -2.082005,0.883975 -0.39757,-1.1512793 0.163542,-1.6553082 1.029465,-1.5886313 z m -9.348024,0.1130046 c 0.02633,0.1003768 0.05834,0.2806852 0.128035,0.4142712 0.147084,0.2818647 0.289907,0.3772377 0.395161,0.6506981 0.09129,0.2372481 0.249733,0.674533 0.176194,0.9378805 -0.07124,0.2550594 -0.309257,0.1845329 -0.521896,0.1085607 -0.236537,-0.084579 -0.316409,-0.1870705 -0.519817,-0.1212203 -0.167438,0.054248 -0.360135,0.58886 -0.426814,0.7313883 M 34.660746,6.795257 l 0.207608,0.5162793 0.327002,0.4329661 0.231335,0.944033 0.06235,0.4733493 c 0.271881,0.4374341 0.309186,0.8641883 0.354989,1.3607573 M 45.970903,6.7362106 c -0.281564,0.2709208 -0.388418,0.9309614 -0.470358,1.575919 m 4.069701,-1.5171067 c 0.132115,-0.039078 0.271794,4.228e-4 0.650803,2.141e-4 m -0.650803,-2.141e-4 c 0,0.4187051 0.08033,1.1844212 -10e-6,1.83434 M 53.267211,6.990995 c -8.36e-4,0.2983695 -0.154064,0.7135888 0,1.3607892 m -5.116093,-0.902933 c 0.440005,-0.2077253 0.627675,0.5472138 0.58626,0.8255183 -0.05929,0.3980086 -0.381787,0.6995691 -0.764586,0.8345777 -0.117437,0.041391 -0.303395,0.085423 -0.387408,-0.084261 -0.06023,-0.1215886 -0.03183,-0.3318526 -0.01444,-0.454442 0.04722,-0.3329795 0.210925,-0.9470552 0.580172,-1.12135 M 35.489044,9.1618847 c -0.100755,0.072466 -0.212755,0.1851856 -0.473317,0.166016 -0.207431,-0.01527 -0.364632,-0.063402 -0.43764,-0.233699 -0.108983,-0.2543535 0.0168,-0.5822348 0.0226,-0.8197887 0.01175,-0.4798791 0.136329,-0.8342519 0.267666,-0.9628767 m -10.088107,0.607897 0.118328,1.6566095 0.0056,0.5324792 0.171932,0.473317 c 0.169624,-0.120873 0.293455,-0.241567 0.477813,-0.5916412 0.227076,-0.4311969 0.656137,-1.1877377 1.093955,-0.7955322 0.678974,0.6081559 -0.443202,1.5999964 -0.980121,1.6444864 -0.284584,0.02359 -0.475803,-0.159928 -0.591647,-0.257313 M 41.287259,9.6943779 c -0.58159,0.073519 -1.357418,0.2535106 -1.952142,0.00735 -0.268131,-0.1110566 -0.424979,-0.4937926 -0.391254,-0.7171385 0.03171,-0.2102739 0.123181,-0.3161172 0.248904,-0.467166 0.288521,-0.3465999 0.782216,-0.6692552 1.247914,-0.1732405 0.337058,0.3590018 -0.904022,0.8922653 -1.106299,0.7610008 M 27.442698,9.5760301 c -0.08958,0.3807871 -0.04721,0.9374069 0.473379,0.8336919 0.164713,-0.03286 0.304222,-0.115733 0.459765,-0.07089 0.124723,0.03592 0.295707,0.413154 0.381969,0.458286 m 0.518993,-0.0157 c 0.26145,-0.01327 0.414744,0.0042 0.650812,-0.02528 0.341024,-0.04234 0.80387,-0.237954 0.971721,-0.589334 C 31.104342,9.7376281 30.795863,9.3369656 30.460986,9.0998324 30.321355,9.0009309 30.154157,8.9297928 30.149601,8.7460929 30.139494,8.3447136 30.910517,8.1727887 31.170073,8.1561052 m 15.372185,0.168684 c 0.2127,0.2735121 0.218895,0.5641269 0.128964,0.8371118 M 14.781405,8.6292186 c -0.244113,0.2658236 -0.416639,0.4618366 -0.581352,0.7691379 -0.217253,0.4054032 -0.410959,0.9940845 -0.466691,1.4791245 -0.02929,0.254932 0.0059,0.495446 0.122411,0.709733 0.283222,0.520945 0.693529,0.423561 1.162291,0.364462 0.132232,-0.01664 0.274878,-0.02665 0.414094,-0.07183 m 0.85765,-1.12058 c 0.111349,-0.156968 0.11407,-0.301035 0.282985,-0.378534 0.18341,-0.08415 0.437109,-0.0197 0.571709,0.05741 0.279198,0.159865 0.270856,0.325819 0.223642,0.557453 -0.616099,0.827483 -2.018169,1.111265 -1.078336,-0.236324 z m 2.337301,-2.0708048 c -0.04148,0.3281245 -0.04833,0.428416 -0.09324,0.7691379 -0.0574,0.4362315 -0.04449,0.9174159 -0.02272,1.3607889 0.01828,0.372267 0.101703,0.557094 0.411787,0.709975 M 38.586833,8.662748 c -0.08739,0.079307 -0.22439,0.261601 -0.355557,0.4999134 -0.07792,0.1416431 -0.382974,0.6435988 -0.50639,0.7491463 -0.107327,0.091845 -0.241214,0.1492163 -0.371556,0.041391 -0.263932,-0.2181421 -0.17412,-0.7144734 -0.266831,-1.028105 m 5.857302,0 c 0,1.0586911 -0.437166,2.5262183 -1.41995,2.6624163 M 47.585384,9.0246859 C 47.375172,9.3169042 47.36429,9.5133119 47.321989,10.049225 M 34.578087,9.0942017 C 34.387575,9.4457087 34.244048,10.14052 34.128263,10.700037 M 28.625945,9.2800859 c -0.142822,0.4831962 -0.12196,0.5744247 -0.250103,1.0587491 m 7.113202,-1.1769503 c 0.179802,-0.044766 0.200984,-0.050981 0.709977,0.1183345 m -15.02783,1.9265648 c -0.288961,-0.0434 -0.499585,-0.177665 -0.615133,-0.337171 -0.09384,-0.129573 -0.124188,-0.417295 -0.213171,-0.583784 m 1.477993,0.632708 c 0.267778,-0.200921 0.357709,-0.436337 0.50852,-0.810141 0.525552,-1.2988209 0.382301,1.097174 0.996809,0.247306 l 0.180725,-0.3712229 c 0.740306,-1.4290397 0.456252,1.3656939 0.563329,1.7805029 M 1.9426662,9.7533499 c 0.4542666,-0.2381436 1.9142734,-0.2407448 1.9404839,0.6508131 0.017158,0.583299 -0.5820035,1.101875 -0.969591,1.533009 -0.1509289,0.167912 -0.3775308,0.301035 -0.3516753,0.529467 0.028459,0.251688 0.3952205,0.240629 0.5640761,0.244052 0.2519234,0.0053 0.3958713,-0.03549 0.6508113,-0.05298 0.4010187,-0.02749 0.7280811,-0.0053 1.1832943,-0.0053 m 6.5672805,-2.484909 c -0.33783,0.02665 -0.790914,0.07288 -1.123241,0.219027 -0.154302,0.06783 -0.330198,0.320372 -0.5356773,0.381725 -0.1764887,0.0526 -0.3001423,-0.0166 -0.4083546,-0.0818 C 9.3239939,10.604508 9.2422885,10.505114 9.235129,10.344722 9.2267818,10.158768 9.3062434,10.038548 9.4630318,9.9002759 9.7502161,9.6470493 9.9648659,9.6608993 10.344053,9.7533662 m -4.5556811,0.059165 c 0.5939536,0.021376 0.6108158,-2.214e-4 1.1832935,0 0.1940005,4.17e-5 0.6308726,-0.065616 0.5883337,0.2348258 -0.02124,0.149985 -0.2323995,0.318487 -0.3585972,0.431903 -0.1168507,0.105115 -0.1796833,0.198383 -0.3158215,0.315759 -0.2151235,0.185543 -0.4245663,0.139695 -0.5055622,0.141642 M 19.63291,10.167524 c -0.130813,0.245054 -0.168086,0.773214 -0.06543,0.996802 0.09153,0.199562 0.28269,0.176664 0.477282,0.08184 0.233227,-0.113711 0.424033,-0.281295 0.511301,-0.376553 m -10.58556,-0.14757 c 0.223819,0.225716 0.588676,0.502287 0.602107,0.983767 0.0073,0.259377 -0.127441,0.521714 -0.349427,0.64028 -0.17217,0.09195 -0.4169927,0.121053 -0.5634251,0.0157 C 9.4286604,12.195592 9.4953391,11.576672 9.5281762,11.350777 9.5636699,11.106609 9.660883,10.905922 9.7364949,10.786471 M 6.8855804,10.795 c 0.134955,0.09816 0.3162978,0.202851 0.5594071,0.243665 0.1896219,0.03191 0.373447,0.03065 0.4515441,0.207262 0.1028936,0.23275 -0.1608096,0.472484 -0.3335112,0.599804 -0.3932081,0.289911 -1.1064394,0.500596 -1.4788222,0.569996 m 20.4709838,0.532479 c 0,0.261747 0.02586,1.129754 0.05491,1.419962 0.01609,0.160865 0.03579,0.247359 0.0555,0.414144 0.0477,0.403917 0.123064,1.090647 0.126257,1.479123 m 13.667045,-2.721577 c 0.430779,-0.102062 0.891789,-0.331148 1.301566,-0.435569 0.10691,-0.02717 0.272928,-0.0513 0.351025,0.0572 0.11401,0.158326 -0.0155,0.367769 -0.09141,0.496741 -0.250977,0.426878 -1.046802,1.291041 -0.674421,1.578815 0.05485,0.04244 0.122947,0.0554 0.178206,0.07784 m -5.324823,-2.129927 c -0.226541,0.398409 -0.537512,1.083243 -0.442137,1.534789 0.08005,0.379071 0.507573,0.185006 0.797065,0.145193 0.149452,-0.02054 0.256185,0.02086 0.35428,-0.106622 0.296771,-0.385928 0.253283,-0.92776 0.414922,-1.336701 m 2.603246,0.887461 -0.414151,0.177497 c 0.160275,0.218911 0.373858,0.418589 0.315109,0.769147 -0.07704,0.459351 -0.851852,0.936986 -1.236955,0.615077 -0.333454,-0.278789 -0.142351,-0.716611 0.0076,-0.969954 0.126968,-0.214592 0.198912,-0.311261 0.263461,-0.41427 -0.173233,-0.127383 -0.391967,-0.150923 -0.520532,-0.474202 -0.08301,-0.208852 0.07573,-0.449176 0.228139,-0.579402 0.199797,-0.170745 0.332386,-0.103852 0.529051,-0.01138 m -6.212292,-0.05919 c -0.01131,0.247306 -0.09259,0.476455 -0.147735,0.709974 -0.04697,0.199037 -0.135782,0.493614 -0.04478,0.701224 0.156193,0.356351 0.719735,0.111056 1.020827,0.04813 0.263162,-0.05498 0.375574,0.01517 0.556147,-0.115196 0.09117,-0.06583 0.112591,-0.233815 0.128447,-0.338425 0.03804,-0.250614 0.03739,-0.514963 0.08454,-0.769021 m -6.389787,-0.177487 0.06147,0.769138 0.05319,0.473317 0.01954,0.473317 -0.07665,1.080059 m 16.390245,-2.710642 c 0.331974,-0.05014 1.163771,0.03392 0.881022,0.565857 -0.102355,0.192516 -0.254587,0.322036 -0.407765,0.472189 -0.141163,0.138505 -0.261209,0.246897 -0.414094,0.36659 -0.318957,0.24955 -1.128444,0.678915 -1.537156,0.53467 -0.613653,-0.216541 -0.254524,-1.137623 0.07064,-1.488529 0.416635,-0.449703 0.764879,-0.353803 1.407349,-0.450777 M 15.254701,13.7766 v 0.769148 l 0.008,0.532479 -0.04988,0.473317 -0.03052,0.414155 -0.164241,0.591641 m -5.3839868,-2.544081 0.081294,0.41427 0.097679,0.591536 -0.00145,1.597511 0.5916498,0.591578 m 13.32472,-2.956573 c 0.191456,-0.113247 0.447343,-0.0295 0.63815,0.05288 0.259023,0.111636 0.4235,0.103641 0.64312,0.246591 0.192876,0.125486 0.289848,0.355994 0.32014,0.586385 0.0543,0.413144 -0.08898,0.754055 -0.49018,1.023375 -1.263344,0.848059 -1.987638,-1.390965 -1.11123,-1.909193 m 15.1335,0.235004 h 0.650814 m -24.249581,0.591606 c 0.344279,0.0021 0.6991,-0.160409 1.352811,-0.532443 m 10.050075,0.236531 c 0.60697,0 1.195521,-0.117942 1.542583,-0.11826 m 6.062142,0.04248 c 0,0.434335 -0.02864,0.978295 0.09461,1.49586 m 2.543315,-1.444077 c 0.002,0.252215 0.03833,0.986506 0.119096,1.325752 M 1.6468426,17.858998 c 0.4684067,0.197666 0.8119169,0.173231 1.2424588,-0.06351 C 3.0837754,17.688517 3.3513189,17.52782 3.3373557,17.266726 3.3141628,16.831155 2.7328112,16.631245 2.4159833,16.48067 2.155068,16.356659 1.8701299,16.298265 1.6727561,16.104854 1.3913696,15.829203 1.614068,15.512792 1.8277685,15.367778 2.2098537,15.108464 2.3571151,15.196906 2.8301362,15.196611 m 7.9280698,0.82831 c 0.02484,0.240799 0.106851,0.450714 0.27695,0.642946 0.155544,0.17578 0.274997,0.237301 0.49219,0.232509 0.238672,-0.0053 0.399599,-0.165837 0.473318,-0.224641 0.190571,0.164388 0.317873,0.282126 0.478961,0.372447 m 0.526838,0.179317 c 0.19767,0.04045 0.333808,0.02085 0.532483,-0.03992 0.220743,-0.06751 0.657911,-0.154357 0.665485,-0.448471 0.0066,-0.259493 -0.488524,-0.408351 -0.665485,-0.477751 -0.33215,-0.130215 -0.829548,-0.176253 -0.796002,-0.64975 0.02266,-0.319308 0.45545,-0.401189 0.796002,-0.237543 m 7.665702,0.932369 c 0.220715,0.922583 0.07154,1.047251 -0.584734,1.658642 m -0.750346,-2.236018 c -0.302804,0.310134 -0.4887,0.637974 -0.712342,1.06242 -0.07525,0.142823 -0.204828,0.231918 -0.31872,0.379713 -0.106911,0.1388 -0.09792,0.229917 -0.164596,0.391973 -0.0968,0.235174 -0.406107,0.771856 -0.547924,1.005797 -0.152409,0.251446 -0.269615,0.574841 -0.375224,0.82831 m -5.80926,-3.609011 0.05917,0.887473 m 3.181642,-0.710035 c 0.487517,0.123243 0.729026,0.443263 1.314875,0.884982 0.218377,0.164605 0.418236,0.274113 0.591647,0.416704 m 0.650812,-1.301627 c 0.24713,0.590525 0.661813,0.923517 1.098863,1.205434 M 9.5336164,17.08877 c -0.2011002,0.282929 -0.6244234,0.437285 -0.8545746,0.110698 -0.2591413,-0.367705 -0.027219,-0.937048 0.422554,-0.939945 0.1319372,-8.43e-4 0.2412736,0.05014 0.3546929,0.11134 0.1661935,0.08974 0.270264,0.178445 0.3552838,0.245717 -0.066034,0.09648 -0.1062008,0.230444 -0.2779561,0.47219 z M 6.735007,17.385718 c 0,-0.542896 0.042952,-0.89297 0.5913514,-1.054141 0.4181753,-0.122885 0.4143882,0.523432 0.4144472,0.817482 m -2.1664866,0.247389 0.3270458,0.247505 m -1.172395,-1.025457 c 0.3022718,-0.160992 0.686015,0.121409 0.8310864,0.355456 0.056743,0.09153 0.1270262,0.303278 0.014263,0.422496 -0.1560171,0.164953 -0.278015,0.148564 -0.4959184,0.189336 -0.2448232,0.04582 -0.4616025,0.07436 -0.5956103,-0.100482 -0.1550708,-0.202343 -0.013138,-0.728681 0.2461841,-0.866765 M 170.38457,17.089969 c 0.0201,0.463732 0.11123,0.683054 0.22955,1.183293 0.11301,0.475086 0.30529,0.963075 0.4674,1.419951 0.0538,0.150754 0.0798,0.258019 0.1213,0.414155 0.0391,0.1485 0.17334,0.573241 0.18636,0.709976 0.0178,0.188261 0.0279,0.343922 0.24139,0.488578 0.22837,0.154662 0.34848,0.09469 0.52894,0.108329 0.17276,0.01307 0.51177,0.08805 0.70997,0.17223 m -12.8979,-2.48492 c 0,0.965983 0.45143,1.991843 0.76914,2.958237 0.0615,0.187081 0.1491,0.617024 0.21299,0.680273 0.13845,0.136619 0.24021,0.06541 0.3195,0.05666 0.12364,-0.01358 0.27629,-0.02539 0.47331,0.03223 m 11.62798,-3.157238 0.38245,0.494832 m -20.88514,-1.005807 1.06497,0.131648 0.47332,0.150692 0.47331,0.01358 0.88747,0.05908 0.53249,0.05919 M 154.4101,19.44308 c 0.16743,0.528223 0.37451,1.373966 0.64785,2.143461 0.0834,0.235468 0.13845,0.477045 0.22187,0.709975 0.0965,0.270385 0.22423,0.492834 0.33842,0.769138 0.27512,0.665128 0.0852,1.016507 0.33015,1.597448 l 1.06496,-0.177497 M 20.569707,23.220182 c -0.401552,0.298369 -0.740979,0.334643 -1.060764,0.47279 -0.296356,-0.626262 -0.647617,-1.776187 -0.487636,-2.662416 0.04183,-0.231508 0.124423,-0.422729 0.312746,-0.558273 0.674707,-0.3393 1.008174,0.06768 1.352682,0.558344 0.229973,0.338246 0.399065,1.012021 0.349604,1.419961 -0.08663,0.435217 -0.06863,0.633566 -0.466632,0.769594 z m 0.356234,0.236203 c 0.01384,0.253226 -0.05609,0.694418 0.154656,0.927822 0.127855,0.14158 0.305762,0.142465 0.499112,0.09069 0.248283,0.01982 0.380101,-0.880984 0.483012,-0.886116 0.189493,0.03245 0.253148,0.267419 0.325706,0.378083 m 124.448583,-4.15559 0.90226,2.366585 0.28222,0.946634 0.19346,0.650814 0.23903,0.887472 0.39463,1.301626 m -16.21114,1.005797 c 0.29051,0.05635 0.51534,0.126255 0.82832,0.115786 0.4674,-0.0157 0.77683,-0.117503 1.18329,-0.234121 0.44433,-0.127318 1.71222,-0.498574 1.30754,-1.1188 -0.23075,-0.354162 -0.65673,-0.444027 -1.01172,-0.612476 -0.92001,-0.436273 -2.01928,-0.810256 -2.78014,-1.528279 -0.30115,-0.284351 -0.5674,-0.632413 -0.58987,-1.05946 -0.0526,-1.010536 0.51709,-2.232167 1.59507,-2.454448 0.41416,-0.08542 1.00994,0.02306 1.27678,0.332389 0.16034,0.186134 0.18459,0.380546 0.20234,0.583774 m -98.2782,2.165848 c 0.02502,-0.306058 0.07792,-0.618331 0.253109,-0.946634 0.163945,-0.307185 0.340372,-0.431071 0.541118,-0.769085 0.121762,-0.204945 0.365105,-0.607619 0.661581,-0.418526 0.243343,0.155304 0.256598,0.715716 0.259792,0.891791 0.0046,0.251214 0.05135,0.406634 0.118506,0.532478 0.189327,-0.125781 0.350197,-0.243462 0.521951,-0.591641 0.139216,-0.282276 0.392204,-0.99758 0.743997,-0.722288 0.294581,0.230623 0.04189,1.40788 0.154006,1.787246 m -16.62528,-1.834105 0.344931,2.070764 0.06922,1.419951 M 104.53426,20.81707 c 0.15145,0.173947 0.25262,0.381324 0.42716,0.591652 0.24198,0.290733 0.61294,0.66182 0.8567,0.946633 0.26861,0.313926 0.5384,0.682054 0.79872,1.005797 0.50882,0.633002 0.93244,1.273999 1.375,1.95244 0.13371,0.205482 0.29463,0.394332 0.44729,0.515974 0.0798,0.06351 0.19937,0.165184 0.35142,0.137915 0.27216,-0.04866 0.22839,-0.364462 0.27453,-0.713051 0.10827,-0.82476 0.0882,-1.658747 0.20234,-2.48492 0.10533,-0.759795 0.25974,-1.359135 0.59166,-1.656609 m -76.860589,2.52083 c -0.37812,0.176729 -0.818188,0.375638 -1.170633,0.12673 -0.359189,-0.253638 -0.296061,-0.673406 -0.230919,-1.014201 0.03922,-0.205292 0.12602,-0.398114 0.2282,-0.591641 0.207608,-0.393269 0.410245,-0.822623 0.936694,-0.709976 M 170.38456,20.876207 c 0.4958,0.135608 0.9342,0.522013 1.24601,0.429715 m 8.2795,2.114367 c -0.34375,0.07857 -0.58632,0.164888 -1.0058,0.07889 -0.23666,-0.04856 -0.43545,-0.09753 -0.65081,-0.225778 -0.45734,-0.272744 -0.94368,-0.773635 -0.86736,-1.332267 0.0343,-0.25092 0.068,-0.393679 0.17513,-0.59164 0.11714,-0.216131 0.34256,-0.484324 0.63307,-0.45634 0.86834,0.434704 0.4511,1.3841 -0.45111,1.302189 M 33.530976,22.095525 c 0.189208,-0.160687 0.412555,-0.325639 0.650812,-0.348358 0.256302,-0.02443 0.44326,-0.02759 0.76914,0.02086 0.205835,0.03054 0.392618,0.134123 0.513609,0.276177 0.242516,0.284646 0.02498,0.693534 -0.220389,0.933268 -0.238316,0.232814 -0.665129,0.416451 -1.003136,0.418526 -0.1956,0.0011 -0.347179,-9.07e-4 -0.429419,-0.185121 -0.19465,-0.435811 0.193648,-0.765599 0.547689,-0.87872 m 79.522988,-1.10088 c 0.22365,0.755351 0.12898,1.617144 0.3686,2.366586 0.0709,0.222512 0.0875,0.36345 0.11477,0.59164 0.0947,0.790856 0.20235,1.608096 0.30233,2.425758 0.0899,0.729261 0.14378,1.350615 0.27926,2.070764 m 56.68334,-7.380102 c 0.0112,0.543497 0.43722,1.778451 0.58809,2.58776 m -29.81248,-1.708819 c 0.28913,0.749664 0.13723,0.312119 0.39618,0.710762 M 26.490377,22.391345 c 0.136493,-0.110098 0.288725,-0.22068 0.473318,-0.264222 0.16004,-0.03771 0.413206,-0.0731 0.528458,0.112405 0.132825,0.21377 -0.061,0.549647 -0.16785,0.743469 -0.126434,0.229443 -0.694651,0.776889 -0.384097,1.088456 0.372027,0.373151 1.442436,-0.07405 1.857595,-0.08268 M 176.77434,21.586254 c -0.0662,0.148922 -0.12425,0.306943 -0.18163,0.473317 -0.10469,0.301688 -0.29227,1.065854 -0.64962,1.184241 -0.54847,0.181572 -0.86323,-0.599573 -0.88453,-1.006744 m -150.283959,0.03595 c -0.162585,0.05698 -0.330198,0.0851 -0.45681,0.203112 -0.46468,0.433325 0.306058,0.739614 0.573128,0.893149 0.464147,0.266888 -0.01828,0.590461 -0.352977,0.747314 -0.214176,0.100376 -0.365105,0.153471 -0.591647,0.168027 m 92.716715,4.638087 -0.39759,-1.538285 -0.17689,-1.419951 -0.0597,-0.946634 c -0.0161,-0.332176 -0.0738,-0.599348 -0.13425,-0.951964 l -0.17158,-1.237136 -0.1047,-0.47319 0.0982,-0.414271 m 58.00801,-1.147923 c -0.10238,0.346167 0.13256,2.184959 0.2692,2.508701 m -13.96286,-0.709975 c 0.43308,0.191758 0.73593,0.144029 0.92289,0.147989 m 1.20403,0.81516 c -0.12957,-0.243874 -0.22538,-0.479942 -0.026,-0.712998 0.10112,-0.117682 0.21772,-0.161582 0.38398,-0.18962 0.29168,-0.04908 0.70228,-0.02559 0.81292,0.296831 0.0687,0.198499 -0.12306,0.340785 -0.28162,0.402791 -0.22424,0.08795 -0.83719,-0.04845 -0.88925,0.202996 -0.1136,0.547446 1.03892,0.681811 1.42291,0.811795 m 0.65081,0.236659 c 0.19111,-0.431724 0.18577,-0.932668 0.32719,-1.36079 0.15678,-0.472074 0.55732,-0.591346 1.0336,-0.59164 m 4.37819,0 c -0.23903,0.203164 -0.30588,0.34031 -0.37983,0.650802 -0.0402,0.169397 -0.084,0.29482 -0.12367,0.473328 -0.0592,0.265581 -0.0644,0.502661 0.11479,0.692049 0.18577,0.195949 0.54371,0.20861 0.80287,0.140748 0.27393,-0.07173 0.4881,-0.193528 0.70997,-0.35948 M 30.513637,23.219655 30.276978,23.456313 M 158.25585,22.710416 c -0.17217,0.182405 -0.21772,0.40475 -0.15915,0.650814 0.0503,0.211507 0.16507,0.28316 0.25914,0.473317 0.0875,0.177075 0.0888,0.450777 0.13667,0.650813 m -0.13667,-0.650813 c 0.0644,-0.08953 0.21715,-0.189977 0.25798,-0.414271 0.0296,-0.163477 0.10887,-0.529403 0.35439,-0.495036 0.34434,0.04824 0.4816,0.55325 0.60821,0.790972 0.0817,0.152177 0.16271,0.258556 0.24495,0.414155 0.1414,0.266477 0.29997,0.749915 0.4461,1.005797 m 0.68624,-2.396093 c 0.0136,0.108329 0.10957,0.417215 0.15384,0.680321 0.0296,0.177022 0.0923,0.287247 0.1343,0.473317 0.0746,0.329841 0.13609,0.758552 0.14969,1.064968 m 6.99977,-0.887472 c -0.11715,0.119514 -0.23961,0.357595 -0.39877,0.527213 -0.2757,0.294167 -0.80522,0.668856 -1.20045,0.28316 -0.13371,-0.130689 -0.1775,-0.281854 -0.17157,-0.45539 0.0106,-0.330367 0.0705,-1.16921 0.51117,-1.22636 0.20294,-0.02633 0.77626,0.134596 0.88511,0.145424 0.4106,0.04066 0.26092,0.27287 0.37451,0.725953 0.0739,0.294873 0.2763,0.433672 0.51415,0.650814 M 19.508943,23.692972 19.627292,25.112923 M 14.369401,23.66233 c 0.208851,0.03613 0.397942,0.06393 0.506806,0.252932 0.103536,0.179739 0.09603,0.438949 0.07928,0.63454 -0.02089,0.243705 -0.13892,0.466692 -0.350551,0.600288 -0.23092,0.145783 -0.636376,0.183469 -0.886347,0.165606 -0.25281,-0.01801 -0.385871,-0.110994 -0.591647,-0.174243 v -0.473316 m 127.616098,-0.0053 c -0.16862,0.176665 -0.36622,0.276599 -0.47568,0.532606 -0.32837,0.765293 -0.19051,1.738322 0.77151,1.767128 0.38398,0.01148 0.3958,-0.05045 0.76914,-0.05151 m 12.01043,-2.307424 c 0.59934,0.11626 1.71697,0.06796 2.12995,0.05943 M 9.6953505,24.194819 c 0.2851755,0.11288 0.4696495,0.29245 0.4715435,0.650804 0.0012,0.227073 -0.03443,0.429837 -0.156432,0.648212 -0.1070877,0.19181 -0.2513898,0.306774 -0.4926635,0.332748 -0.7071369,0.07626 -0.82091,-0.34742 -1.0649057,-0.98096 M 138.25813,25.173028 c 0.39344,-0.01495 0.75612,0.03497 0.96675,0.383505 0.27452,0.454147 -0.7585,0.9687 -1.08509,1.050823 -0.22837,0.0573 -0.39817,0.08648 -0.6508,0.05624 -0.54964,-0.06583 -1.22707,-0.685603 -0.57154,-1.187674 0.23253,-0.17796 0.45558,-0.07521 0.68986,-0.130868 0.30056,-0.07151 0.31535,-0.159212 0.65082,-0.171988 M 11.351963,24.490624 c 0.0083,0.398177 0.06515,0.857823 0.374454,1.17453 0.163886,0.167848 0.339722,0.198088 0.572181,0.145961 0.470004,-0.105495 0.699977,-0.508106 0.828305,-0.669688 m 132.704307,0.5272 c -0.25796,0.243884 -0.40764,0.398713 -0.88747,0.411553 -0.24199,0.0064 -0.48219,-0.02201 -0.52007,-0.294104 -0.0775,-0.558041 0.83956,-0.544201 0.99338,-0.51787 0.20886,0.03581 0.25204,0.09659 0.397,0.268193 0.10886,0.128446 0.36683,0.222692 0.45261,0.377407 0.25086,0.451019 0.29879,0.914805 0.68868,1.293106 M 6.9146114,24.727288 c 0.2060713,0.311862 0.2151226,0.825224 0.5941903,1.064432 0.1811042,0.114247 0.3279503,0.127318 0.5299388,0.0909 0.3135133,-0.05656 0.5725847,-0.299504 0.6871282,-0.401324 M 1.5897889,24.786408 c -0.2374274,0.4538 -0.3872325,0.850734 0.00116,1.419899 0.3058876,0.448291 1.0304899,0.814754 1.4394007,0.289427 C 3.52551,25.241707 4.0274165,26.555325 5.0805255,26.140983 5.4182383,25.997928 5.8362957,25.54396 5.5773322,25.217068 5.3794856,24.96731 5.1678525,24.992588 4.7847028,24.904742 M 117.37301,26.082755 c 0.74902,-0.375816 1.64656,-0.07678 2.24826,0.403444 0.20767,0.165953 0.32245,0.29541 0.37688,0.543191 0.10827,0.495973 -0.13726,0.909948 -0.55438,1.175424 -0.23842,0.151512 -0.44137,0.19062 -0.70998,0.184058 -0.51176,-0.01264 -0.96379,-0.440181 -0.99987,-0.945338 -0.0432,-0.597023 0.45496,-0.691628 0.88154,-0.709975 m 24.17266,-3.124366 0.0848,3.006042 m -21.89094,-0.591652 c 0.0911,0.488884 0.0823,0.978232 0.2834,1.419951 0.18518,0.405813 0.43427,0.749147 0.89989,0.862626 0.65199,0.158979 1.18567,-0.363504 0.82831,-0.862626 m -14.20307,-1.476058 c 0,0.556851 0.0124,1.273188 -0.0503,2.186034 -0.0119,0.168627 -0.002,0.310619 -0.006,0.473327 -0.005,0.17063 -0.0314,0.29523 -0.0485,0.473317 -0.0202,0.212634 -0.0105,0.343681 -0.0105,0.532479 v 0.769138 m 15.67864,-3.727375 c 0.15798,-0.176369 0.4189,-0.385222 0.65082,-0.403853 0.14673,-0.01179 0.27807,0.01474 0.41178,0.08278 0.34078,0.173474 0.34908,0.657376 0.14437,0.97166 -0.35559,0.545023 -1.20222,0.732284 -1.73945,0.7079 -0.297,-0.01348 -0.52628,-0.0909 -0.72507,-0.131931 m -9.27376,0.666728 c -0.19524,0.07678 -0.3615,0.161929 -0.59165,0.240324 -0.39462,0.134365 -0.87623,0.298664 -1.30162,0.341206 -0.1485,0.01485 -0.26269,0.01074 -0.41416,0.01053 -0.43485,-0.0021 -0.77624,-0.118041 -1.04602,-0.473497 -0.63602,-0.836946 0.67506,-2.446106 1.56727,-2.034796 0.22423,0.103536 0.0965,0.34286 -0.0183,0.491487 -0.31239,0.405571 -0.69993,0.617203 -1.15372,0.774403 m 19.9385,6.271456 c -0.0615,-0.202048 -0.0994,-0.447754 -0.11299,-0.650813 -0.0113,-0.167607 -0.005,-0.294104 -0.005,-0.473318 -9.1e-4,-0.215951 -0.0278,-0.368948 -0.0491,-0.591641 -0.0249,-0.260325 -0.0864,-0.761986 0.0255,-0.986689 m -13.1109,4.06325 c -0.0929,-0.40694 -0.1982,-0.878119 -0.28399,-1.301616 -0.0929,-0.457055 -0.12188,-0.812628 -0.17217,-1.242465 -0.0267,-0.222872 -0.0183,-0.334518 -0.0172,-0.53248 5.5e-4,-0.145424 -0.005,-0.225304 0.0224,-0.354993 0.0432,-0.213107 0.0929,-0.320614 0.2053,-0.465448 0.10111,-0.129868 0.25086,-0.231572 0.42303,-0.189441 0.45912,0.112289 0.88214,0.821032 0.96734,1.246541 0.0402,0.201216 -0.064,0.533069 -0.22306,0.659208 -0.93435,0.584505 1.35548,0.531177 1.36132,1.352414 -0.045,0.804286 -1.33476,0.704825 -1.80986,0.591652 m 14.25877,-1.005827 c 0.32482,0.187134 0.69401,0.29203 1.12414,0.217132 0.55909,-0.09732 1.21346,-0.789845 0.63719,-1.322683 -0.54549,-0.504683 -1.32174,0.03307 -1.70216,0.21808 -0.19111,-0.363746 -0.0355,-0.740152 0.0337,-1.242455 0.0249,-0.177738 0,-0.358953 0.12011,-0.49947 0.13194,-0.153776 0.35203,-0.207314 0.55615,-0.198087 0.67863,0.03076 1.07384,0.110813 1.59745,0.342564 m 1.30162,-0.354982 0.1775,1.183292 0.17749,2.070754 m -10.47216,-2.958226 -0.60644,1.064958 -0.2686,0.532194 -0.24908,0.355278 -0.30234,-0.355278 -0.94012,-1.24217 m -14.67285,3.017399 c -0.13311,-0.209969 -0.19347,-0.350432 -0.23607,-0.591641 -0.0361,-0.204597 -0.1047,-0.388476 -0.14731,-0.591651 -0.0473,-0.224051 -0.0308,-0.385697 -0.0308,-0.650814 0,-0.345513 -0.0432,-1.066201 0.41533,-1.147555 0.19109,-0.03391 0.37688,0.03423 0.52597,0.13525 0.14673,0.09932 0.24553,0.226958 0.35913,0.361734 0.35321,0.418051 0.61827,1.047452 0.39463,1.597216 -0.11892,0.29227 -0.27926,0.584247 -0.6301,0.696483 -0.37748,0.120757 -0.51532,0.117439 -0.65082,0.190978 m 11.77378,-2.904868 c 0.34552,-0.120398 0.39819,0.174421 0.60763,0.332506 0.24434,0.18389 0.53425,0.232519 0.81231,0.295347 0.30885,0.06983 0.59638,0.214361 0.81057,0.448418 0.16744,0.183173 0.24672,0.349895 0.28754,0.586142 0.0805,0.471369 -0.17809,0.779618 -0.62477,0.960538 -0.32956,0.133659 -0.61117,0.117029 -0.94664,-0.03234 -0.72477,-0.322921 -1.2247,-0.745303 -1.33594,-1.578984 -0.0267,-0.200627 -0.0485,-0.330442 -0.0113,-0.532427 0.0403,-0.222039 0.15028,-0.391847 0.40054,-0.479173 m -8.99304,1.351321 c 0.61886,-0.240324 1.58443,0.285055 2.07076,0.619984 0.24435,0.168206 0.45143,0.331442 0.58337,0.57857 0.0721,0.135966 0.0911,0.263232 0.0768,0.414155 -0.0473,0.511719 -0.3887,0.902207 -0.89694,1.108868 -0.73423,0.29837 -1.48622,0.167144 -1.97373,-0.517216 -0.18281,-0.256892 -0.20589,-0.479301 -0.25085,-0.769149 -0.0414,-0.264991 -0.0326,-0.411606 -0.0237,-0.650803 0.0119,-0.302161 0.0758,-0.652709 0.41417,-0.784409 m 13.13455,0.133624 c -0.006,0.175958 -0.0438,0.339731 -0.13075,0.473316 -0.0811,0.123834 -0.14436,0.186313 -0.23016,0.354994 -0.19228,0.378649 -0.33428,0.588333 -0.40823,1.005796 m 0.63839,-1.36079 c 0.22068,0.232519 0.41237,0.66933 0.8283,1.005796 m -16.61286,-0.05917 c 0.0479,0.368717 0.25146,1.145133 0.355,1.597447 m 42.18442,0.236659 c 0.23488,0.0436 0.90167,-0.05256 1.06319,0.154009 0.14554,0.185901 -0.18281,0.639038 -0.1556,0.722277 0.65286,0.448391 1.75753,0.335154 1.90234,1.194532 0.0391,0.267014 -0.12543,0.61969 -0.28872,0.8283 -0.39818,0.509001 -0.73661,0.607682 -1.16022,0.709986 m -6.62664,-0.473402 c 0.24493,0.265118 0.32481,0.358596 0.70997,0.353867 0.39226,-0.0053 0.75139,-0.145836 1.12413,-0.341143 0.31239,-0.163825 0.66146,-0.365041 0.78333,-0.722636 0.10946,-0.321562 -0.18577,-0.444036 -0.42834,-0.549047 -0.19703,-0.08521 -0.36978,-0.148089 -0.59165,-0.158622 -0.1343,-0.0064 -0.28577,0.0032 -0.41415,0.01337 -0.12189,0.0095 -0.21477,0.04371 -0.29346,-0.05382 -0.0657,-0.08184 -0.0379,-0.22483 -0.0165,-0.317012 0.0733,-0.310261 0.17394,-0.913856 0.44138,-1.060935 0.27333,-0.1501 0.57152,0.03739 0.81528,0.07825 0.15501,0.02601 0.31594,0.01243 0.47332,0.0021 0.61058,-0.04034 0.86794,-0.02465 1.24246,-0.143413 m 0.29583,0.177486 c 0.0952,0.38676 0.14731,0.858013 0.18754,1.242465 0.0544,0.518523 0.11478,1.245772 0.2266,1.715772 m -8.40138,-2.839902 c 0.11064,0.539525 0.3112,1.298372 0.40646,1.95243 0.0367,0.253648 0.0947,0.453736 0.16802,0.709986 0.071,0.24854 0.10886,0.468461 0.15265,0.709975 0.0444,0.246233 0.14259,0.42533 0.27867,0.650814 m 2.36658,-3.904882 -0.0597,0.709987 -0.0585,0.591641 c -0.11537,0.0053 -0.22128,0.01632 -0.47333,0.05151 -0.30292,0.04224 -0.82416,0.253636 -1.00402,0.03097 -0.1006,-0.12418 -0.0609,-0.297179 -0.0609,-0.4374 -5.7e-4,-0.262569 0,-0.533722 0,-0.82831 m -7.15894,0.354992 c -0.26269,1.347655 0.17869,2.825346 -0.35499,4.082357 m -3.72737,-3.964033 c 0.25145,0.381378 0.20116,0.856117 0.28399,1.301628 0.0343,0.182636 0.0657,0.353687 0.0704,0.532478 0.009,0.399599 0.0172,0.760807 -0.002,1.183304 -0.0124,0.280611 -0.12779,0.621396 -0.29582,0.614539 -0.16152,-0.0064 -0.23607,-0.107149 -0.31949,-0.262095 -0.17987,-0.333696 -0.46563,-0.96711 -0.63365,-1.358251 -0.42797,-0.938329 -0.77305,-2.533079 -0.70836,-0.414155 l 0.19051,0.887473 0.2905,1.774943 m 2.54408,-4.259864 c 0.11893,0.05224 0.23192,0.093 0.41416,0.249319 0.30233,0.25962 0.8851,1.011726 1.24245,1.323051 0.38694,0.33694 0.57315,0.514168 0.92991,0.578786 m -13.41366,-2.091983 c 0.12248,0.818778 0.53189,1.875637 0.8283,2.544082 0.65142,-0.198383 1.25194,-0.638806 2.07078,-0.82831 m 19.63818,-1.13474 -0.3407,0.05769 -0.0775,0.379313 0.042,1.005796 m -36.41976,4.010962 c 0,-0.28689 -0.008,-0.496805 -0.0426,-0.769149 -0.0396,-0.3241 -0.0533,-0.519997 -0.0811,-0.887471 -0.0279,-0.36936 -0.16329,-0.965678 -0.1988,-1.36078 -0.0301,-0.334875 0.045,-0.311682 0.0994,-0.59165 0.0212,-0.111879 0.0391,-0.29144 0.055,-0.414155 0.0314,-0.238545 0.1142,-0.70057 0.46386,-0.608684 0.40587,0.106612 0.68157,0.731694 0.82771,1.082 0.0875,0.209979 0.18342,0.434452 0.24199,0.650814 0.058,0.216667 0.0882,0.366526 0.17157,0.591651 0.18992,0.512425 0.22837,1.160574 0.53366,1.656609 m 13.01622,-2.839901 0.32126,0.769137 0.0947,0.414155 0.10591,0.354983 0.18815,0.650813 m -16.50696,-2.129927 0.38753,0.414155 m 11.8004,0.591652 c 0,0.197425 0.0149,0.421834 -0.0947,0.574715 -0.24849,0.346704 -0.91705,0.828015 -1.38326,0.708091 -0.53012,-0.136262 -0.55615,-1.176205 -0.20768,-1.562132 0.28873,-0.319783 0.62774,-0.09279 0.91647,0.04265 m -8.16473,1.242455 c -0.0893,-0.301255 -0.14672,-0.590935 0.14139,-0.944085 0.24968,-0.305174 0.85258,-0.686372 1.12177,-0.289553 0.2059,0.302572 -0.34375,0.824518 -0.55319,0.962138 -0.10827,0.0712 -0.2266,0.09837 -0.35498,0.130099 -0.17632,0.04381 -0.2763,0.09774 -0.35499,0.141401 m 12.86417,-1.301612 c 0.42007,0.01927 0.80169,0.202159 1.33535,0.483192 0.6449,0.339668 1.30755,0.845173 1.89327,1.232575 M 116.5445,41.702813 c 0.55733,0.133881 1.23418,0.748009 0.91942,1.359894 -0.37156,0.722046 -0.95848,0.183353 -1.39273,-0.05825 -0.15501,0.275061 -0.11538,0.549521 -0.47924,0.720687 -0.91114,0.428353 -1.68382,-1.033076 -1.6507,-1.785646 m 7.63226,-0.177496 c 0.95581,2.151721 0.35004,1.617036 0.60939,-0.17752 0.0699,-0.741395 0.3254,-0.860371 1.04722,-0.769137 m -7.33643,1.242477 0.1775,0.946635 m 12.66123,-0.887472 c 0.25619,0.210337 0.48398,0.390603 0.56977,0.709975 0.0882,0.327482 -0.0781,0.744238 -0.2698,1.005564 -0.15797,0.215541 -0.29049,0.33079 -0.53661,0.473549 m -8.08191,-1.851045 c 0.23903,0.280496 0.61473,0.714676 0.8638,0.786087 m -9.70322,-0.354953 c 0.15323,0.580939 0.8851,0.625313 1.47912,0.650813 M 16.294546,23.645522 16.52469,24.051927"
       id="path45119"
       sodipodi:nodetypes="ccccccccccccccccccccccccccccccccccccccscccccccccccccccccccccccccccscccccccccccccscccccccccccccccsccccccccccccccccccccccccccccccccscccccccccccccccccccsccccscccccccscccccccsccccccccccccccccccccccccccscccccccccccccccccccccccccccccccccccccccccccccccccccccccccccccccccscccccccccccccccccccssccccccccccccccccccccccccccccccscccccccccccccccccccsscccssccccccscccccccccccccccccccccccccccccccccssccscscccccccccccccccccccccccccccccccccccccccccccccccccccccccccccccccccccccccccscscccccccccccccccccccccscccccccccccccccccccccccccccccccccccccccscccccccccscccccccccccscsccccccccccccccccccccccsccccccccccsccccccccccsccsccccccccccccccccccscccccscccsccccccsccccccccccccccccccccscccccccccccccscccssccccccccccccccccccccccccccccccccccccccccscccscccccccccccccccccccccccccccccccccccccccccccccccscccccccccccccscccccccccccccccccccccccccccccc" />
  </g>
</svg>
