<?xml version="1.0" encoding="UTF-8" standalone="no"?>
<!-- Created with Inkscape (http://www.inkscape.org/) -->

<svg
   width="210mm"
   height="297mm"
   viewBox="0 0 210 297"
   version="1.1"
   id="svg5"
   inkscape:version="1.1 (c68e22c387, 2021-05-23)"
   sodipodi:docname="Casey - Pulsz - Envelope 2.svg"
   xmlns:inkscape="http://www.inkscape.org/namespaces/inkscape"
   xmlns:sodipodi="http://sodipodi.sourceforge.net/DTD/sodipodi-0.dtd"
   xmlns="http://www.w3.org/2000/svg"
   xmlns:svg="http://www.w3.org/2000/svg">
  <sodipodi:namedview
     id="namedview7"
     pagecolor="#ffffff"
     bordercolor="#666666"
     borderopacity="1.0"
     inkscape:pageshadow="2"
     inkscape:pageopacity="0.0"
     inkscape:pagecheckerboard="0"
     inkscape:document-units="mm"
     showgrid="false"
     inkscape:zoom="1.2598564"
     inkscape:cx="416.3173"
     inkscape:cy="65.483656"
     inkscape:window-width="1280"
     inkscape:window-height="657"
     inkscape:window-x="-8"
     inkscape:window-y="-8"
     inkscape:window-maximized="1"
     inkscape:current-layer="layer1" />
  <defs
     id="defs2" />
  <g
     inkscape:label="Layer 1"
     inkscape:groupmode="layer"
     id="layer1">
    <path
       style="fill:none;stroke:#464032;stroke-width:0.0735985"
       d="M 2.7261755,5.0348222 C 3.0408102,5.021293 3.3198237,4.9805807 3.6093593,4.8835753 4.0340977,4.7413114 4.5477422,4.3731673 4.4364621,3.9308505 4.3789102,3.7020294 4.2030813,3.5227367 4.0441074,3.3733339 3.6491764,3.0023237 2.7549534,2.7399487 2.6372685,2.2377353 2.5135492,1.7091918 3.0917405,1.4321224 3.3884907,1.3757325 3.611642,1.3333228 3.7685539,1.367212 3.9037548,1.5756866 m 18.4732682,-0.2207965 0.177593,1.0303839 0.04313,0.5887909 -0.0033,0.4415934 0.0022,0.5887795 -0.146093,0.7359889 M 18.991484,1.7228843 c -0.06816,0.86342 -0.146829,1.1772087 -0.147198,1.692774 0.222566,-0.013414 0.444231,-0.026464 0.550813,0.00652 m 12.696949,-1.699326 c -0.469484,0.2853701 -0.675928,0.8467119 -0.899227,1.3247795 -0.100835,0.2157884 -0.172371,0.4299567 -0.218883,0.6623894 -0.137778,0.6886558 0.05079,1.3328677 0.823717,1.389534 0.208209,0.015343 0.885832,-0.1721424 1.030305,-0.2259435 m 1.75555,-0.7423563 c 0.440048,0.2492042 0.05585,0.7983988 -0.357396,0.8921582 -1.231375,0.020217 -0.42565,-1.315559 0.357396,-0.8921582 z M 22.597746,2.9740649 c 0.291966,-0.060418 0.597033,-0.2325711 1.25125,-0.3679944 m -9.76441,0.5891529 c 0.370644,-0.4436493 0.885245,-0.6852139 1.142178,-0.072885 0.232498,0.5542772 -0.279896,1.4291419 -1.019195,1.5125327 -0.337155,0.038045 -0.506064,-0.079602 -0.662388,-0.1152516 0.09509,-0.4888294 0.06866,-0.7609229 0.539405,-1.3243961 z m 1.815753,1.398019 c 0.235958,0.2974113 1.455635,0.564805 1.551386,-0.1546245 C 17.491757,4.1373705 17.060033,3.9369693 16.857123,3.8130965 16.586647,3.6478694 16.216519,3.4826422 16.216519,3.121351 c 0,-0.3755815 0.272978,-0.4109051 0.567005,-0.2208716 m 5.81096,0.5151789 c 0.292115,0.111874 0.957984,1.0991262 1.254512,1.0929459 m 2.20796,0.810553 c 0.424003,0.050403 1.478892,-0.1560311 1.711022,-0.5341052 0.24457,-0.3982461 -0.854629,-0.8113562 -0.854629,-1.2219628 0,-0.5142331 0.901144,-0.7590157 1.20437,-0.8833995 m 7.761709,-0.039718 -0.07359,0.4880367 M 12.098282,4.6806535 c -0.110142,-0.012023 -0.234,-0.00892 -0.807949,-0.3545775 2.301826,-1.6104737 -1.4897799,-0.9957889 0,0 M 9.2051344,3.7196864 c -0.046805,0.070074 -0.049147,0.1423609 -0.05807,0.2082116 -0.014863,0.1081243 0.027318,0.1968548 0.055796,0.2973375 2.0728216,-0.4614803 0.5104774,-1.4600469 0.0023,-0.5055491 z M 5.8173201,3.3420709 C 5.566716,3.8200856 5.4888501,4.5947123 5.7973045,5.0304977 5.9224219,5.2072755 6.098102,5.3360822 6.3322197,5.2381134 6.6408929,5.1090199 6.7880888,4.8299363 6.9213035,4.6668403 7.0361914,4.7527268 7.138051,4.8386209 7.2911354,4.9123685 8.3373413,5.4161482 8.5329669,3.9182674 7.7308883,3.8572525 m 16.7804967,0 c 0.145209,-0.5048783 0.700521,-1.0003332 1.233366,-0.2765753 -0.278443,0.8835426 -0.868389,0.4599911 -1.233366,0.2765753 -0.149616,0.5307422 0.212646,0.7689819 0.72319,0.9224905 M 38.884816,5.5068476 C 39.252351,5.3519161 39.784385,5.4113564 40.139124,5.1493686 40.323488,5.0132849 40.613965,4.7405869 40.475968,4.4710717 40.224701,3.9804633 38.978822,4.2359226 38.802482,3.8370163 38.615025,3.4130896 39.374783,3.3643615 39.672713,3.4892677 M 17.958749,3.4334429 c 0.369707,-0.099088 0.601315,-0.025552 0.885537,-0.017789 -0.14466,0.37182 -0.115694,0.7307681 -0.294393,1.3247799 m 2.796748,-0.66239 c -0.148522,0.1354984 -0.27732,0.2804154 -0.588789,0.4477842 -0.320374,0.1721433 -0.825115,0.366226 -0.972607,-0.017051 -0.28019,-0.7284019 0.719575,-0.9235929 1.119509,-0.7690318 0.37138,0.1435219 0.331121,0.1838533 0.662684,0.5591257 M 9.2028603,4.2252758 C 9.4112571,4.4971015 9.5074718,4.6745059 10.086044,4.8140659 M 35.771586,3.5644709 35.61416,5.0242349 M 13.545181,4.5196723 C 13.421456,4.9655306 13.376324,4.917762 13.250787,5.2556611 m -6.3294874,-0.66239 v 0.073633 M 32.86435,10.422615 c -0.07176,0.186721 -0.193936,0.220499 -0.394638,0.220425 -0.232498,0 -0.396624,-0.03655 -0.480454,-0.230068 -0.08494,-0.195777 0.02783,-0.4512361 0.07905,-0.7154548 0.377452,-2.2001056 0.989249,0.06896 0.796046,0.7250978 z M 23.859031,8.2255373 c 0,0.4903963 -0.06866,1.0080065 -0.125705,1.471977 -0.02679,0.2185168 -0.06959,0.4192987 -0.109613,0.6454657 -0.0393,0.221755 -0.253011,0.85168 -0.116633,1.111115 0.132109,0.251048 0.397875,0.315589 0.646049,0.173027 0.364387,-0.209384 0.836744,-0.92484 0.685206,-1.412945 -0.115625,-0.3724807 -0.472433,-0.2817362 -0.6816,-0.168977 -0.160886,0.08674 -0.469211,0.262596 -0.533022,0.29778 m 16.500624,0.97371 0.450129,-0.735989 0.163905,-0.515192 c 0.68437,-1.6354245 0.792078,0.485041 0.784337,0.809192 -0.344369,-0.0075 -0.594601,-0.09015 -0.948242,-0.294 m 3.818598,-2.1343671 0.0083,0.8828873 -0.0062,0.387282 c 0.386547,0.018864 0.454766,0.077519 0.586726,0.1282089 m 2.131224,-0.6903372 c -0.119902,0.4754422 -0.238121,0.9508841 -0.193958,1.4263261 l -0.02371,0.809588 M 5.3121558,8.8879272 6.7841298,9.3752224 7.4724987,9.5313283 7.3593773,10.001766 7.0049264,10.359904 7.519896,10.770361 7.9148999,11.245957 7.299321,11.904372 5.8273471,12.49426 M 16.204688,11.441546 c 0.125191,-0.09771 0.474417,-0.395529 0.373881,-0.62648 -0.06469,-0.148519 -0.184365,-0.201137 -0.300577,-0.268779 -0.229039,-0.133143 -0.580178,-0.265402 -0.863755,-0.141976 -0.182377,0.07938 -0.263114,0.234861 -0.376015,0.39751 -0.679645,0.877397 0.803613,0.907123 1.166466,0.639721 z m -1.913566,0.332959 c -0.264145,0.08854 -0.594678,0.106024 -0.882743,-0.0085 -0.431582,-0.171194 -0.477802,-0.58975 -0.391839,-0.964883 0.05585,-0.243908 0.147197,-0.441956 0.267237,-0.66239 0.273565,-0.5021602 0.669159,-1.1382728 1.228214,-1.2511697 m 2.575954,0.2207967 c -0.05335,0.8404221 -0.12482,1.414768 -0.189701,1.900994 M 45.865036,9.1819524 c -0.08096,0.328398 -0.394415,1.0827136 -0.217705,1.3778456 0.259143,0.432759 0.879848,0.022 1.271836,0.0209 M 9.9488754,9.2555599 C 9.629015,9.440436 9.4570894,9.5230918 9.3422015,9.8444252 9.1914718,10.265922 9.5116246,10.704275 9.8020461,10.713471 c 0.2074009,0.0064 0.3791059,-0.174348 0.5148219,-0.239635 0.391449,-0.182935 0.321283,-0.258601 0.821003,-0.385467 M 50.575347,9.3291588 C 50.228327,10.046159 50.252908,11.157206 49.839356,11.83151 M 2.0738173,9.6235543 c 0.4127406,0.1070154 1.4471694,0.1919414 1.5064158,0.8098747 0.068001,0.708689 -0.6489538,0.757933 -0.8944063,1.383519 0.4573429,0.134911 1.6260524,0.01453 2.2583384,0.01453 m 37.2554898,0.03071 c 0.118276,-0.225506 0.32509,-0.920417 0.36851,-1.177571 0.481982,-1.8991075 1.124496,-0.509606 0.584376,-0.128165 -0.200483,0.134838 -0.363942,0.120111 -0.548092,0.01781 m 5.993522,-0.7246474 c 0.269738,-0.1347519 0.796702,0.2100544 0.895697,0.5224054 0.15713,0.495618 -0.490026,1.111559 -0.905486,1.249337 -0.268196,0.08887 -0.51357,0.08493 -0.616904,-0.168765 -0.167881,-0.412226 0.302855,-1.441277 0.626693,-1.6029774 M 36.517998,11.831467 c -0.581504,0.202406 -1.076454,-0.09622 -1.166245,-0.662378 -0.01768,-0.111139 -0.0396,-0.237505 -0.0092,-0.367994 0.04762,-0.204824 0.117467,-0.329889 0.249871,-0.465684 0.204826,-0.209971 0.644572,-0.553224 0.987985,-0.4295757 0.832592,0.2179087 0.08196,1.0470277 -1.046735,1.0440277 m -7.99471,0.881627 c 0.133434,-0.0064 0.24604,-0.0075 0.368655,-0.04805 0.374691,-0.125109 0.553537,-0.493252 0.209168,-0.804356 -0.353274,-0.319127 -1.092498,-0.808991 -0.136231,-0.84035 m -9.205736,0.08623 c -0.0028,0.238389 0.02473,0.372853 -0.117979,0.567448 -0.124603,0.169862 -0.26731,0.281437 -0.470736,0.348271 -0.173914,0.05711 -0.346357,0.03197 -0.436663,-0.12365 -0.147565,-0.253989 0.09413,-0.558838 0.215792,-0.71847 M 6.6369459,10.433154 7.0049404,10.359524 M 26.58219,10.506721 c 0.03166,1.220009 -1.09553,1.937574 -1.158687,0.175171 m 6.565764,-0.268918 c -0.153526,0.249429 -0.273278,0.500117 -0.475967,0.90336 m 1.351058,-0.893716 c 0.11842,0.213657 0.220936,0.529994 0.26811,0.893716 m 0.4904,-1.04455 c 0.253426,1.578074 0.586766,1.400083 1.131531,-0.03971 M 9.5447453,11.243127 c -0.057696,0.20248 -0.082432,0.586074 0.1942269,0.658565 C 10.175633,12.01607 10.273887,11.314102 10.13265,11.0833 10.019676,10.898711 9.9259123,10.814436 9.8020461,10.713463 9.6803101,10.828352 9.6084813,11.019539 9.5447453,11.243127 Z m 28.4684457,-0.04097 c 0.08797,0.711523 -0.185987,1.081672 -0.747431,1.478743 m 4.256948,-1.806195 0.147194,0.367994 m -24.771661,-0.233391 -0.03109,0.380589 m 8.905438,2.870353 0.07359,1.471966 0.515263,-0.06926 0.397141,-0.0698 0.155953,-0.970986 M 9.2864861,14.407416 c 0,1.126722 -0.3600438,2.795723 0.5887905,3.311938 M 1.5586261,17.498558 C 5.245405,17.208092 2.0490474,16.454825 1.9626831,15.4378 1.9520036,15.144576 2.0921432,14.862329 2.3103626,14.69106 2.5028976,14.539962 2.7226627,14.502135 2.9570011,14.481015 m 11.1869979,0.07363 0.0018,0.883187 -0.04917,1.016841 0.40207,0.468669 0.675636,0.943242 m 7.433494,-2.861512 c 0.314929,0.03868 1.108691,0.533659 1.381595,0.816429 0.790448,0.81922 -0.559498,1.633443 -1.307996,1.673924 -0.423855,0.02291 -0.979306,-0.02056 -1.192005,-0.446154 -0.178771,-0.35769 -0.105608,-0.750779 0.02127,-1.096247 0.105469,-0.287043 0.262746,-0.571945 0.51519,-0.761605 0.212995,-0.160005 0.379254,-0.211227 0.581945,-0.186347 m 14.351744,0.285562 1.49317,0.07566 -0.316697,0.660323 -1.030301,1.939774 m -7.947632,-2.602164 c -0.07441,0.281299 -0.243465,0.657531 -0.06043,0.933385 0.149919,0.225869 0.572964,0.227638 0.796411,0.232049 0.334655,0.0064 0.701763,0.0374 0.912403,-0.136084 0.02021,-0.203209 0.138824,-0.814778 0.191578,-0.955751 m -20.754828,0.735989 c 0.123162,1.494541 0.838597,1.263852 0.925068,0.07475 m 0.546908,1.101439 c 0.340542,0.16706 0.996747,0.294833 1.122233,-0.225218 0.04879,-0.202096 -0.103328,-0.318382 -0.243318,-0.409062 -0.162432,-0.105278 -0.33134,-0.155221 -0.478317,-0.284166 -0.171043,-0.150139 -0.363136,-0.377488 -0.3755,-0.624337 -0.0223,-0.445344 0.490093,-0.31883 0.784487,-0.295792 m 1.603715,0.321112 c 0.408694,-0.05509 0.836597,-0.163088 1.561029,-0.394711 m 20.142188,0.36564 c -0.402364,0.122327 -0.383666,0.05365 -0.785736,0.296014 -0.193566,0.116723 -0.407661,0.357765 -0.662093,0.347536 -0.193417,-0.0075 -0.327808,-0.118864 -0.455943,-0.286297 -0.131153,-0.171343 -0.194229,-0.368879 -0.03289,-0.523951 0.243389,-0.234042 0.558171,-0.196437 0.85654,-0.198942 m -2.64955,0.07363 c -0.214245,0.301172 -0.494365,0.839689 -0.380361,1.173234 0.07655,0.224185 0.292629,0.294544 0.527484,0.294396 0.230291,-5.4e-5 0.382051,-0.04454 0.515264,-0.06926 l -0.147196,1.177581 m -5.858697,-2.494253 c -2.78e-4,0.330441 0.218531,0.884359 -0.08067,1.946828 m 6.365493,-1.769741 c -0.194915,0.580891 -0.198769,0.827719 -0.278933,1.139585 m -7.328977,-1.137242 0.410676,-0.04038 c -0.104647,0.438573 -0.120237,0.843783 -0.147171,1.472022 M 4.5028675,16.117027 c 0.7374588,-0.220498 0.5574359,0.716115 0.3568064,0.868684 -0.1441072,0.109519 -0.3152238,0.214616 -0.5777499,0.217632 -0.2001152,0.0021 -0.3479012,-0.05339 -0.392797,-0.230579 -0.039523,-0.155957 0.063597,-0.326778 0.1245301,-0.42805 0.1102515,-0.183043 0.268929,-0.361814 0.4892104,-0.427687 m 37.3052545,0.212087 c 0.3337,0.718098 -1.205248,1.567655 -1.706309,1.686593 -0.44954,0.106643 -1.302846,0.285488 -1.625872,-0.09938 -0.406482,-0.483768 0.558175,-1.290851 0.986002,-1.632304 0.632507,-0.305458 2.096827,-0.491666 2.346179,0.0451 z M 8.9388661,17.08872 C 8.6541867,17.323571 8.3271886,17.539882 8.0405229,17.230547 7.8274533,17.000693 7.8627079,16.704827 7.9956271,16.44583 8.1580841,15.930508 9.0443325,16.330264 9.23394,16.662991 9.2082346,16.87708 9.1173442,16.941448 8.9388661,17.08872 Z M 5.5217674,17.34016 C 5.1554665,17.448497 4.9251764,17.09118 4.8596739,16.98571 m 14.4691921,0.05205 c -0.06049,2.027684 -0.335928,1.760741 -0.892602,2.286274 m 16.152709,-2.927495 c 0.304774,0.274459 0.938681,0.549643 0.929408,1.02803 -0.0071,0.369689 -0.44071,0.711406 -0.766753,0.766315 -0.29108,0.04901 -0.484573,-0.07725 -0.577602,-0.331637 -0.182156,-0.497973 0.116812,-0.932289 0.209915,-1.412232 m -3.577414,-0.05344 c -8.45e-4,0.332597 -0.06073,0.751979 -0.06249,1.381177 m -16.64738,-1.320079 c -0.04525,0.334682 -0.121606,0.775606 -0.247053,1.190696 m 4.047927,-0.883187 c -0.220134,0.167732 -0.889881,1.126285 -1.32485,1.043853 -0.236178,-0.04475 -0.425915,-0.232134 -0.556552,-0.394122 -0.159931,-0.198196 -0.133362,-0.352756 -0.105758,-0.502533 m 0.66231,0.896655 c -0.149995,0.505176 -1.185078,1.731377 -1.545492,2.488847 m 6.79216,1.102957 c 0,0.811506 -0.07294,1.559344 -0.159415,2.355164 -0.0092,0.376145 -0.137168,1.014192 -0.08949,1.013303 m 0.920329,0.0015 c 0.411578,-0.06257 0.905369,-0.205511 1.038942,-0.455906 0.1274,-0.227648 -0.515926,-0.587395 -0.618669,-0.733335 -0.340467,-0.483395 0.303815,-0.809076 0.690135,-0.645906 m -6.035091,0.809588 v -0.66239 c 0,-0.317209 -0.0566,-0.746804 0.07271,-1.030384 0.104287,-0.228521 0.240963,-0.397574 0.449101,-0.56538 0.468455,-0.377713 0.935142,-0.0618 1.205987,0.344659 0.208284,0.312573 0.287476,0.547062 0.195846,0.882003 -0.116802,0.426654 -0.884657,0.955826 -1.261261,1.02074 -0.240373,0.06816 -0.480228,-0.02746 -0.662385,0.01076 -0.07309,0.06585 -0.09509,1.160064 -0.1472,1.324769 M 31.77063,24.49455 c -0.478613,0.238165 -0.961714,0.428859 -1.398377,0.208574 -0.766823,-0.387057 -0.650978,-2.154079 0.147199,-2.212078 m -5.5935,0.220796 c 0.220944,0 0.299253,-4.48e-4 0.515338,0 0.245452,5.12e-4 0.473019,-0.05605 0.572671,0.11798 0.08825,0.154038 -0.04107,0.330231 -0.151759,0.470811 -0.273125,0.34665 -0.903351,0.786763 -0.956783,1.176175 -0.03598,0.262236 0.154704,0.351883 0.388895,0.362187 0.496276,0.02195 1.021476,-0.102934 1.398007,-0.287192 m 7.213036,-1.173522 c 0.241919,-0.01555 0.76366,-0.02674 0.75387,0.366886 -0.01507,0.613449 -1.048853,0.866255 -1.490224,0.898275 -0.942984,-0.259409 0.14722,-1.22017 0.736354,-1.265161 z m 1.9263,0.08972 c -0.112364,0.649133 -0.364594,0.899048 -0.307852,0.939832 0.124835,0.08973 0.753322,-0.925555 1.030739,-1.24313 0.116359,-0.09729 0.302345,-0.269888 0.436659,-0.109743 0.103403,0.12335 0.02185,0.331711 0.0217,0.466101 -2.2e-4,0.157949 0.04091,0.338553 0.214908,0.355409 0.497086,0.04817 0.700293,-0.763586 1.106337,-1.034945 0.74386,-0.497162 0.136306,1.679082 -0.01324,2.078277 M 20.36283,23.81586 c -0.04032,0.343589 -0.127458,0.602733 -0.344,0.88201 -0.521909,0.549518 -0.779088,-0.429672 -0.777792,-0.92838 m -14.9227185,0.3408 c 0.5725973,0.471546 0.9461099,1.447533 0.073298,1.78535 C 4.1365238,25.99431 3.8029751,25.96 3.5889498,25.82233 3.4608877,25.74006 3.2590808,25.48149 3.0672089,25.481863 2.6660967,25.482502 2.6613854,25.990204 2.1837305,26.121578 1.895072,26.200958 1.7204963,26.061588 1.5833082,25.801641 1.2773591,25.221833 1.3743616,24.863108 1.3743616,24.257471 m 7.2126697,-0.147198 c 0.1477131,0.236173 0.4772874,0.560159 0.5508863,0.809588 0.1109136,0.376156 -0.2726826,0.759463 -0.698084,0.789044 C 7.9298694,25.744496 7.4905588,25.292419 7.1161615,25.240525 6.6489567,25.175844 6.7769449,25.802016 6.2486534,25.505191 6.0078392,25.369917 6.0133593,25.021348 6.0110775,24.772666 m 7.2862685,-0.588791 c 0.406266,0.302782 0.669086,0.97636 -3.94e-4,1.292834 -0.525422,0.248395 -1.020077,0.07896 -1.471606,-0.115262 l -0.250235,0.325382 -0.622351,-0.01204 -0.45219,-1.122971 m 17.73728,-0.294396 0.147197,-0.07363 M 7.1886291,24.62538 7.115034,25.140572 m 7.80146,0.441594 h 0.147198 m 86.957098,0.600563 c 0.46809,1.267954 1.36231,2.351627 2.02986,3.532735 0.72274,1.279365 1.54204,3.526705 2.52385,4.61788 m 64.26108,-7.488225 c -0.0979,0.528586 0.0456,1.578833 0.17149,2.207955 0.1553,0.773667 0.35916,1.711539 0.19651,2.355164 -0.32869,-0.004 -0.67094,-0.0036 -0.862,-0.05344 m -41.31005,4.616552 c 0.70655,0.01459 1.29092,0.06627 1.98717,-0.149041 0.47839,-0.147858 0.96488,-0.362912 1.39837,-0.632511 0.34517,-0.214542 0.87877,-0.593501 0.85964,-1.058419 -0.0273,-0.651937 -0.78162,-1.344056 -1.22764,-1.75982 -0.36504,-0.340534 -0.66164,-0.564943 -1.03037,-0.860297 -0.62044,-0.496715 -1.49405,-1.052825 -1.84585,-1.795804 -0.49679,-1.049149 0.69182,-2.78836 1.69865,-2.134356 M 108.20311,27.9491 c -0.007,0.819956 -0.22743,1.630129 -0.36212,2.428752 -0.33486,1.981862 -0.7897,3.906472 -1.40204,5.814299 -0.20901,0.651489 -0.32604,1.209517 -0.44381,1.83996 m 46.14638,-10.083011 1.47197,0.367995 c -0.11849,0.376966 0.0479,1.103673 0.14132,1.619164 0.19355,1.071004 0.446,2.204801 0.44748,3.311937 8.4e-4,0.60763 -0.0722,0.922485 -0.0736,1.545577 l 1.61918,-0.220797 m 4.26872,-6.623876 c -0.0823,1.044439 -0.078,1.973029 -0.007,3.017542 0.0449,0.652161 0.007,1.134448 0.007,1.619165 -0.25611,-0.0211 -0.39964,0.0085 -0.80958,-0.294385 m -14.71973,-4.121536 0.0213,0.66239 0.25171,1.987169 0.0949,4.710316 m -28.77704,-7.286265 c -0.20092,0.845134 0.0514,1.996428 0.13469,2.870344 0.1656,1.739499 0.0861,3.462226 0.0861,5.225508 m 37.31452,-8.022253 2.79676,0.367983 m -41.95124,-0.07363 c -0.35696,1.053497 -0.007,2.464821 0.0671,3.532746 0.014,0.198345 0.007,0.388602 0.007,0.58879 0,0.654505 -0.0567,1.333453 -0.0729,1.987158 -0.0213,0.883624 0.0714,1.603501 0.0729,2.428763 m 59.0416,-7.414334 c 0.0758,0.408326 -0.039,0.08765 0.0581,0.496052 m -33.87823,1.41517 c -0.16741,0.349678 -0.0338,0.433114 -0.0379,0.758509 m 32.00234,2.610242 c 0,-0.475084 0.0183,-0.879361 -0.0427,-1.324779 -0.11407,-0.838657 -0.35979,-1.72564 -0.47239,-2.281525 0.37738,-0.161657 0.75475,-0.05501 1.13213,0.01041 m 7.22373,3.191201 c -0.0223,0.03189 -0.55787,0.06327 -1.14329,-0.0442 -0.51445,-0.10645 -0.77941,-0.523354 -0.80149,-1.02302 -0.011,-0.259136 -0.0212,-0.61779 0.0782,-0.829742 0.10155,-0.21646 0.32352,-0.534112 0.57907,-0.566271 2.14226,-0.269569 2.35532,1.043012 -0.65723,1.396013 m -2.80484,-1.398368 c -0.22375,0.660834 -0.15015,1.30836 0.10602,1.987158 0.10452,0.279339 0.40391,1.002295 0.71611,0.628164 0.57137,-0.68471 1.19097,-1.652453 1.42619,-2.405284 m -15.52475,1.571998 c -0.0987,-0.24751 0.0202,-0.757843 0.29072,-1.030309 0.15088,-0.172366 0.84124,-0.518132 0.89128,-0.152046 0.0744,0.54522 -1.01125,0.767774 -1.182,1.182355 0.40305,0.834473 0.87678,0.986018 1.35347,0.720314 m -2.57602,0.07359 c -0.0567,-0.7209 -0.3017,-1.644828 -0.29425,-2.134409 l 0.58865,0.22084 m 3.17076,1.766373 c 0.0876,-0.379844 0.18106,-1.035903 0.53065,-1.430238 m -7.67575,0.252656 c -0.43078,3.190355 0.44204,0.669329 0.90748,3.72e-4 0.2068,-0.247958 0.65208,-0.698533 0.98916,-0.467209 0.38345,0.26327 0.20681,1.013601 0.25024,1.423621 0.0383,0.356807 0.10601,0.634568 0.20828,0.956786 m 11.92298,-0.809588 c -0.45409,0.303591 -1.67657,0.719057 -2.16084,0.106131 -0.16928,-0.214244 -0.007,-0.555886 0.0648,-0.76851 0.16633,-0.500114 0.31353,-0.923667 0.91851,-0.956785 m 3.95518,-2.021053 c -0.0927,0.272913 0.27013,2.800091 0.23995,3.272222 m -62.11729,3.311949 c -0.6278,0.07917 -1.32698,0.121657 -1.83997,-0.261864 -1.17536,-0.878998 -0.83386,-2.895598 0.36799,-3.541429 0.37168,-0.199591 1.11042,-0.220608 1.44725,0.09097 0.5076,0.934275 -1.50195,1.714991 -2.21547,1.588706 m 57.01925,-1.498918 c -0.17811,0.163981 -0.52845,0.682039 -0.91778,0.632138 -0.4622,-0.05913 -0.45043,-0.627865 -0.3334,-0.912916 0.13468,-0.329207 0.32677,-0.456895 0.62632,-0.428561 0.45779,0.04337 0.48427,0.427389 0.62486,0.709339 0.22005,0.439824 0.64913,0.709424 0.99431,0.674899 m -47.16232,-0.805903 c -0.19282,0.292637 -0.22153,0.54117 -0.22079,0.883186 8.5e-4,0.239497 0.004,0.424672 0.0626,0.66239 0.0964,0.396476 0.43202,0.952959 0.89129,0.892243 0.35399,-0.04688 0.47175,-0.406493 0.51739,-0.671298 0.0353,-0.209608 0.003,-0.416499 8.4e-4,-0.515341 m -3.45911,-1.053858 c 0.28114,-0.05083 0.49089,0.134101 0.73599,0.290793 0.36209,0.232124 0.50929,0.397873 0.55345,0.836664 0.0435,0.436073 -0.26716,0.978278 -0.77426,1.072037 -0.40846,0.07555 -0.80001,-0.137405 -0.9737,-0.486187 -0.25466,-0.511143 -0.30029,-1.576414 0.45852,-1.713307 m 5.44629,0.02344 c 0.54317,0.295504 0.53066,0.778526 0.51372,1.32478 -0.0118,0.402284 -0.1597,0.8254 -0.58732,0.933374 -0.44747,0.112972 -0.88612,-0.108187 -1.25117,-0.369316 -0.26716,-0.190992 -0.42098,-0.30146 -0.58878,-0.41686 m 17.00129,1.103971 c -0.55494,-0.10304 -1.63758,0.06489 -2.07108,-0.596516 -0.13247,-0.20217 -0.1472,-0.504078 -0.0736,-0.728178 0.0722,-0.219475 0.24583,-0.372118 0.37904,-0.476117 0.33266,-0.259658 0.69623,-0.373727 1.02965,-0.407144 m -3.01755,1.611439 c -0.52549,0.05222 -1.2166,-0.04987 -1.22396,-0.654728 -0.003,-0.289611 0.16119,-0.563398 0.41732,-0.693739 0.35181,-0.178845 0.83829,-0.199091 1.24824,-0.1882 0.24066,0.0064 0.46513,0.06244 0.64325,0.236407 0.88023,0.673988 -0.72589,1.255585 -1.08485,1.30026 z m 7.50707,-0.507455 c -0.14574,0.03473 -0.28704,0.06852 -0.5152,0.173612 -0.37316,0.172004 -0.85889,0.407591 -1.13269,0.03623 -0.31058,-0.421133 0.16855,-0.937796 0.5439,-1.106338 0.30249,-0.135934 0.66827,-0.145865 0.95532,0.03016 0.38492,0.236695 0.25832,0.408551 0.24728,0.792805 -0.0118,0.438876 0.32236,0.781403 0.71097,0.883187 m 8.83184,-1.177572 c 0.72127,-0.03101 1.13194,-0.113642 1.91356,-0.147197 m -14.34939,-1.882248 c 0.17641,1.178041 0.0409,2.293699 -0.002,3.427813 m -21.92946,7.801682 c 0.0986,0.431139 -0.45484,0.736797 -0.73894,0.945159 -0.47176,0.346055 -1.00756,0.65995 -1.54557,0.817824 -0.27893,0.08173 -0.76984,0.17259 -0.98621,0.0011 -0.28703,-0.227786 -0.14646,-1.12864 -0.17885,-1.46991 -0.0287,-0.303963 -0.0126,-0.830121 -0.0126,-1.103983 0,-0.182595 -0.0287,-0.452483 0.0427,-0.649869 0.0898,-0.244431 0.20168,-0.305658 0.29883,-0.52881 0.18398,-0.423787 0.58363,-1.430249 1.27766,-1.372761 0.53212,0.04411 0.67858,0.685128 0.47325,1.079463 -2.55232,2.788672 0.86374,0.622216 1.3697,2.281832 z m 18.02869,-2.944211 c -0.40617,1.002101 -0.32434,2.940318 -0.22079,3.900729 m -5.9615,-3.827141 c -0.076,0.86715 -0.627,2.867345 -0.44158,3.753845 m -7.65427,-2.72346 c 0.3967,0.487231 0.59101,0.713473 0.88318,1.030383 0.55935,-0.570974 1.05468,-1.357822 1.91357,-1.766362 m 7.28627,0.147188 c -0.23992,0.277399 -0.85153,0.987548 -0.79781,1.387488 0.0295,0.221095 0.25024,0.222416 0.42982,0.230291 0.52845,0.02302 1.63536,0.04848 1.57428,0.884657 -0.0861,1.191711 -1.66996,0.98092 -2.16306,0.515117 m 1.25352,-2.716094 c 0.80149,-0.0064 1.64477,-0.210417 2.26005,-0.223151 m -28.68445,3.307207 c -0.0435,-0.550377 -0.28483,-1.298577 -0.29292,-1.987169 -0.003,-0.267682 0.10155,-0.754018 0.31795,-0.880021 0.17957,-0.104427 0.30837,-0.05723 0.56376,0.05541 0.1759,0.07768 0.35033,0.162947 0.51519,0.261714 0.4644,0.277763 0.90085,0.793477 0.87214,1.372475 -0.0552,1.130398 -1.25851,1.120986 -1.97612,1.177589 8.6e-4,0.680707 0.18767,1.075706 0.2208,1.839953 m 13.1771,-4.04181 c 0.37461,-0.17016 1.51466,0.702935 1.80832,1.037812 0.42908,0.49031 0.21786,1.217912 -0.33929,1.498392 -0.84197,0.424 -1.68688,-0.373728 -1.81788,-1.217541 -0.0663,-0.430703 -0.17959,-1.078004 0.34885,-1.318663 m -8.49401,1.004384 c 0.28924,0.231026 0.27598,0.602324 0.31352,0.976647 0.036,0.360045 -0.0772,0.720091 -0.24803,1.030385 -0.34739,0.630518 -1.26443,1.242197 -1.94521,0.704042 -0.32752,-0.258848 -0.56819,-0.755414 -0.64104,-1.145636 -0.0839,-0.443724 0.0301,-0.948537 0.15897,-1.398367 0.053,-0.185174 0.13763,-0.362112 0.27967,-0.497685 0.9864,-0.779824 1.09362,-0.461915 2.08212,0.330614 z m 12.02381,-0.568776 c 0.1229,0.278274 0.28261,0.459325 0.43276,0.735979 0.27819,0.514978 0.43496,0.918584 0.74481,1.324779 m -1.17757,-2.060758 c -0.42983,0.478611 -1.07602,1.777253 -1.17758,2.428752 m 27.08431,3.091142 c 0.37756,0.03005 1.63683,0.06862 1.86573,0.743714 0.15383,0.451673 -0.32826,0.70125 -0.46737,0.949059 0.18401,0.06905 0.37316,0.131225 0.6624,0.14432 0.54537,0.02461 1.10177,-0.0537 1.49552,0.386547 0.43644,0.488616 0.34371,1.396758 0.13248,1.971484 -0.39155,1.06917 -1.45357,2.014543 -2.36399,2.502361 m -5.5199,-6.617281 -1.32478,0.0011 -0.65575,0.218655 c -0.18165,3.24232 1.6318,1.864242 1.99445,2.644095 0.33414,0.669891 0.32604,1.789772 -0.60277,1.836433 -0.43276,0.02185 -0.80175,-0.08866 -1.25512,-0.217259 m -8.68065,-4.268701 c -0.33413,0.54684 -0.40773,1.052611 -0.55788,1.692762 -0.0537,0.230441 -0.13542,0.438653 -0.18546,0.66239 -0.081,0.362251 -0.11408,0.709052 -0.20461,1.103984 -0.145,0.631765 -0.25539,0.927342 -0.30323,1.471976 m -3.71299,-5.411663 c 0.315,0.841597 0.78524,2.511653 0.66453,3.424495 -0.84566,5.196683 -1.46884,-6.71782 -1.73573,-1.214402 0.1978,2.120185 0.25632,2.483471 0.26694,3.13381 m 9.96356,-4.716189 c -0.18252,0.765494 -0.14719,2.114707 0.88319,2.133993 0.30985,0.0064 0.8876,0.0115 1.10252,-0.05296 0.66753,-0.200039 0.32235,-1.387402 0.29586,-2.007479 m 6.84467,0.220797 c 0.0339,0.424075 0.17811,0.976509 0.21418,1.471978 0.0618,0.847041 0.14719,2.247551 0.22742,2.870344 m -16.04457,-4.121482 c 0.53947,0.539998 1.21812,1.322967 1.53827,1.692794 m 3.56168,-2.70034 c 0.19417,1.143579 0.22201,3.79532 0.34635,4.981873 m -17.22262,-3.45917 c 0.0405,0.94825 0.34961,1.981937 0.44528,2.943954 0.0463,0.46543 -0.0243,0.477802 0.14352,1.030374 m -0.32531,-2.136711 c 0.39596,-0.250687 1.45947,-1.024279 2.23888,-1.248826 m -17.2221,4.636717 c 0.17959,-0.968261 0.27291,-1.55852 0.54228,-2.590077 0.10081,-0.388677 0.3596,-1.282679 0.84903,-1.282679 0.42835,0 0.57157,0.0655 0.68785,0.413621 0.22521,0.674227 0.329,1.439445 0.4416,2.134356 0.0942,0.583868 0.0424,0.635451 0.16677,1.151378 m 32.61267,-4.374363 c 0,0.485675 0.0999,2.011849 0.24797,2.634204 m -24.18894,0.809578 c -0.28114,0.170896 -1.17906,0.417159 -1.32331,-0.29446 -0.0471,-0.232283 0.0243,-0.516088 0.22521,-0.681315 0.74114,-0.609463 0.86332,0.475233 1.0981,0.975775 0.11554,0.244792 0.42981,0.687195 0.78456,0.604103 m 0.47367,-0.433057 c 0.0167,-0.394485 0.0764,-1.378797 0.58026,-1.595172 m -4.73388,-0.121447 c 0.27672,0.339586 0.65943,0.627439 0.82062,1.103983 0.24066,0.713324 -0.32457,1.350535 -1.04142,1.314103 -0.44969,-0.02291 -0.7404,-0.344946 -0.95678,-0.504516 -0.16854,0.206518 -0.35696,0.537196 -0.73599,0.643476 -0.74408,0.208511 -0.93838,-0.983126 -0.80959,-1.526662 m 14.28388,-0.399933 c 0.43525,1.048468 0.05,1.7171 -0.51519,2.428763 m -15.75563,-1.80798 c 9.6e-4,-0.132333 -0.0435,-0.282621 0.0758,-0.514968 0.17663,-0.344446 0.81032,-0.66402 0.95383,-0.143384 0.0684,0.244943 -0.17222,0.434242 -0.36725,0.543686 -0.18253,0.101975 -0.53212,-0.0316 -0.66239,0.114666 0.034,0.364136 0.16408,0.584955 0.30249,0.725013 0.17679,0.238071 0.59035,0.23013 0.74283,0.11599 m 10.36595,-1.724236 c 0.44822,0.178547 1.1454,0.579258 1.83649,0.77658 0.40185,0.114815 0.64841,0.170832 1.10399,0.180241 m -10.81897,-0.441583 v 1.030374 M 36.642244,3.6408869 c -0.16554,2.3616718 -0.415502,1.013163 0.682154,0.092574 0.250973,-0.2040147 0.483544,-0.2174086 0.66342,0 0.204826,0.2477341 0.13462,0.7553087 0.299114,1.0971006 M 19.786822,9.939546 c -0.904697,2.946809 0.354385,-0.086999 0.845412,-0.3756228 0.11636,-0.097287 0.302345,-0.2698876 0.436658,-0.1097421 0.103405,0.123349 0.02186,0.3317106 0.0217,0.4661007 -2.19e-4,0.1579492 -0.185779,0.8423252 -0.01179,0.8591802 0.497087,0.04817 0.71289,-0.9399054 1.118933,-1.2112642 0.59717,-0.098259 0.06804,1.4870362 0.08751,1.8137962 M 43.467632,9.5367621 c 0.327552,0.096687 0.633461,0.1500871 0.927495,0.1797382 -0.151019,0.5406737 -0.08031,1.1387687 -0.267353,1.7257267 M 6.0606904,16.052073 c -0.2287655,2.266912 -0.3147738,1.013163 0.6821561,0.09258 0.2509726,-0.204014 0.2946287,-0.255191 0.4745048,-0.03779 0.2048245,0.247735 -0.041701,0.90644 0.1227924,1.248232 M 163.71787,33.07955 c 0.36813,0.753101 0.0156,1.364254 0.0581,1.493472 m -59.28163,18.297309 c 0.44463,0.975369 0.36254,2.109492 0.32294,2.752008 m 12.57949,-2.723149 c 0.0838,0.528269 0.01,1.083276 0.038,1.790213"
       id="path40491"
       sodipodi:nodetypes="ccccccccccccccccccccccccccscccscccscccccscccccccccccccccccccccccccccccscsccccccccccccccccccccccccccccccccccccccccccccccccccccccccccccccccccccccccccccccccccccccccccccccccccccccccccccccccccccccccccccccccccccccccccccccccccccccccccccccccccccccccccccccccccsccccccccccccccccccsccccccccccccccccccccsccccsccccccsccsccccccccccsccccccccccccccccccccccccccccccccccccccccccccsccccccccccccccccccccccccccscccccccccccccccccscccsccccccccccccccccccccccscccccccccccccccccccccscccsccccsccccccccccccccccccccscccccccccccccccccccccccccccccccccccccccccccccccccccccccccccccccccccccccccccccccccccccsscccccssccccccccccccccccccccccccccccccccccccccccccccccccccc" />
  </g>
</svg>
