<?xml version="1.0" encoding="UTF-8" standalone="no"?>
<!-- Created with Inkscape (http://www.inkscape.org/) -->

<svg
   width="210mm"
   height="297mm"
   viewBox="0 0 210 297"
   version="1.1"
   id="svg5"
   inkscape:version="1.1 (c68e22c387, 2021-05-23)"
   sodipodi:docname="Casey - Pulsz - Envelope 8.svg"
   xmlns:inkscape="http://www.inkscape.org/namespaces/inkscape"
   xmlns:sodipodi="http://sodipodi.sourceforge.net/DTD/sodipodi-0.dtd"
   xmlns="http://www.w3.org/2000/svg"
   xmlns:svg="http://www.w3.org/2000/svg">
  <sodipodi:namedview
     id="namedview7"
     pagecolor="#ffffff"
     bordercolor="#666666"
     borderopacity="1.0"
     inkscape:pageshadow="2"
     inkscape:pageopacity="0.0"
     inkscape:pagecheckerboard="0"
     inkscape:document-units="mm"
     showgrid="false"
     inkscape:zoom="0.70710678"
     inkscape:cx="275.06454"
     inkscape:cy="150.61374"
     inkscape:window-width="1280"
     inkscape:window-height="657"
     inkscape:window-x="-8"
     inkscape:window-y="-8"
     inkscape:window-maximized="1"
     inkscape:current-layer="layer1" />
  <defs
     id="defs2" />
  <g
     inkscape:label="Layer 1"
     inkscape:groupmode="layer"
     id="layer1">
    <path
       style="fill:none;stroke:#524839;stroke-width:0.0713886"
       d="M 2.8071293,5.1774884 C 3.4493421,5.291352 4.1920704,5.0531317 4.6565256,4.5986709 4.8624102,4.3972064 5.1274766,4.0569672 4.905386,3.7778362 4.6553117,3.4635212 3.982545,3.3769216 3.5924052,3.3333001 3.2160444,3.291113 2.3238281,3.2998668 2.357952,2.6788093 2.3881475,2.1303346 3.2435999,1.4903983 3.7351117,1.3784654 4.0688531,1.3024233 4.2095601,1.4512379 4.0921265,1.7508299 M 24.580682,1.3938847 c 0.288268,0.5743248 0.224804,1.107243 0.205956,1.7133346 -0.0066,0.2130872 -0.02548,0.362651 -0.05925,0.5711081 -0.04497,0.2770533 -0.140136,0.6116604 -0.146702,0.9280532 m 12.635869,0.6855402 c 0.621869,0.088703 1.523294,-0.7762109 0.98281,-1.3081271 -0.258858,-0.2547785 -0.807409,-0.3609423 -1.072975,-0.00949 -0.299693,0.420423 -0.549851,1.2118148 0.09016,1.3176195 z M 36.216968,5.0211434 c -0.336599,0.048408 -0.883506,0.043557 -1.207181,-0.1555548 m 0,0 C 34.730655,4.6939716 34.509779,4.4506047 34.342516,4.1778967 34.19888,3.9438109 34.218155,3.7236575 34.218155,3.4640169 34.218101,2.3766863 34.908985,1.4881835 35.860096,1.4651282 M 20.654304,1.6079105 20.86133,2.6786616 20.813574,3.0640198 20.44014,3.1784523 M 26.436791,1.893454 C 26.026093,2.2835265 25.104459,2.7231795 24.723458,2.8928666 M 43.427302,5.6056658 C 44.040386,5.3781509 44.772408,4.8453073 45.177538,4.1768315 45.316602,3.9473124 45.429681,3.6419832 45.24029,3.4153224 44.988855,3.1144228 44.320443,3.2656214 43.927092,3.248483 43.748332,3.2411002 43.546659,3.2344557 43.491835,3.0251127 43.334565,2.4238092 44.169097,1.9624193 44.569519,1.9648451 m -5.318112,0.262816 0.139627,0.580788 M 28.507061,5.3201122 c 0.538198,-0.00524 1.292992,-0.1850326 1.703833,-0.5863055 0.18818,-0.1838303 0.323318,-0.4439666 0.167834,-0.6911935 C 30.255868,3.8472973 30.068332,3.7662664 29.863445,3.6608303 29.551121,3.5000657 29.103583,3.3799169 29.033695,2.9642894 28.936106,2.3846174 29.669484,2.5421019 30.006224,2.6073443 m -3.431582,0.9315652 c 0.10607,-0.6312307 1.421846,-1.3305235 1.59318,-0.7779198 0.279843,1.0921717 -1.458187,0.2776967 -1.59318,0.7779198 -0.08482,0.3141042 0.221803,0.639852 0.436109,0.8189679 0.322393,0.2693542 0.881939,0.3899988 1.139366,0.4625291 M 17.941533,5.1059601 c 0.634717,0.4743097 1.504874,0.4461073 2.211693,0.09112 C 20.410725,5.067798 20.610042,4.8296411 20.443564,4.549793 19.990674,3.7885096 18.540627,4.4123831 18.276917,3.5322229 18.029841,2.7078972 19.16235,2.6155286 19.440695,3.0356489 M 15.37154,4.7489731 c 0,-0.475375 -0.02398,-1.114014 0.291693,-1.6408678 0.241724,-0.4034142 0.711531,-0.5476203 0.992946,-0.136064 0.138423,0.202456 0.201102,0.4649548 0.205029,0.7061069 0.0147,0.9206282 -0.843173,1.2243119 -1.489668,1.0708249 l -0.142779,0.7138897 m 9.494697,-1.927497 c -0.478591,-0.2491465 -0.664914,-0.5364829 0,-0.6424992 m 16.062457,1.4277807 c 0.07046,-0.5541277 0.177972,-1.1502211 0.712818,-1.3091294 0.584602,-0.1736843 0.444537,1.3629495 0.500791,1.666064 M 12.801546,4.0350932 C 12.63521,3.5912638 13.11894,3.212761 13.65814,3.1167431 c 0.168476,-0.029953 0.341095,-0.086589 0.403702,0.086906 0.06011,0.166407 -0.208169,0.3758555 -0.3326,0.4483224 -0.464026,0.2702717 -0.673623,0.2557066 -0.927696,0.3831434 m 8.012028,-0.9710946 c 0.197461,0.1504814 0.536627,0.2941813 0.84017,0.378566 m 1.641941,0.306964 C 23.136559,4.0341868 23.027621,4.024547 22.816311,3.8721988 22.221287,2.8679008 21.854503,4.0771239 22.196517,4.4172879 22.557458,4.74524 22.695165,4.1184133 22.816311,3.8721988 M 10.731274,4.3206684 c -0.166407,-0.3261803 -0.114222,-0.7031853 0.237653,-0.9271251 0.229087,-0.1457776 0.981667,-0.2695651 1.065048,0.021727 0.114936,0.4010623 -0.569468,0.619581 -0.874012,0.7080368 -0.269849,0.078362 -0.342022,0.1442799 -0.428689,0.1973935 m 10.0823,-1.2566807 0.142778,1.3563789 M 8.8751691,3.6782008 C 9.3988758,3.6845321 9.8609033,4.0521369 9.5278032,4.6059693 9.1128206,5.2958657 8.4070015,5.3137101 7.9471151,5.0345798 7.527921,5.504248 7.0192771,6.0028997 6.3843457,5.3820324 6.0862269,5.0904773 5.9484467,4.6355952 5.887837,4.2493089 5.8390794,3.9389067 5.8272989,3.8313928 6.0910099,3.6782008 m 18.6324481,-0.142835 1.784719,1.070888 M 12.801546,4.035146 c 0.06832,0.33852 0.215309,0.5807373 0.642499,0.7967672 0.369008,0.1866775 0.821327,0.2874842 1.213608,0.3454484 M 7.8043378,4.3920806 7.9471151,5.0345798 M 10.731274,4.3207005 c 0.348998,0.3171233 0.670629,0.3332121 0.999443,0.4283253 M 39.351609,3.1435864 39.270533,4.924004 m -2.48239,6.606947 c -0.699251,-0.130283 -0.946256,-0.178324 -1.499161,-0.285553 0.09445,-0.508861 0.119791,-0.840241 0.143563,-1.4991615 0.01415,-0.3932788 -0.182898,-0.9436838 0.131783,-1.3333237 0.357016,-0.4421844 0.63229,0.3095372 0.746869,0.6194329 0.298048,0.8062702 0.476447,1.7483083 0.476946,2.4986053 m 9.28053,-3.1411039 c 0.0012,0.2781288 -0.02255,0.3980664 0.106729,0.6122295 0.15948,0.2639334 0.286411,0.3979304 0.314967,0.7441599 0.03198,0.3884275 -0.05732,0.9748805 -0.06511,1.3563895 -0.0034,0.166049 0.0098,0.33659 -0.11408,0.464881 -0.137635,0.142561 -0.350018,0.114432 -0.52806,0.103886 -0.19368,-0.0115 -0.392211,-0.101144 -0.561616,-0.04029 -0.390925,0.140273 -0.3855,0.620362 -0.651992,1.042064 m 5.139984,-3.9977767 -0.0716,0.8566727 -0.07118,0.49989 0.571109,0.142609 m 7.21026,-1.4991717 c -0.04876,0.6180196 0.01122,0.9711051 -0.124573,1.5705527 -0.09338,0.412199 -0.159701,0.882153 -0.160984,1.356389 M 51.922543,8.7467847 c -0.149059,0.3732934 -0.491864,0.8684431 -0.313822,1.2687253 0.142849,0.321034 0.617725,0.231154 0.956322,0.230437 0.177473,-3.59e-4 0.384213,0.03396 0.540127,-0.0734 0.149562,-0.102831 0.160057,-0.2699873 0.170689,-0.4264067 0.01485,-0.2193734 0.03227,-0.4867233 0.07446,-0.7138165 M 26.294012,8.8183093 c 0,0.7005382 0.09152,1.4532627 0.0207,2.1416607 -0.02377,0.231302 5.57e-4,0.360299 0.05611,0.571108 0.0569,0.215956 0.107866,0.497512 0.361013,0.640432 0.936763,0.528984 1.386438,-1.290135 1.21168,-1.707049 -0.269423,-0.6429204 -0.988521,0.336168 -1.149502,0.637932 -0.190673,0.258566 -0.357158,0.340883 -0.423191,0.428685 M 46.175406,9.0020766 C 45.83317,9.5949529 45.242357,10.73982 45.221512,11.631107 m 9.085924,-2.4538586 c 0.217878,-0.1588344 0.608874,-0.088491 0.827609,-0.035332 0.290336,0.070554 0.667553,0.3537288 0.754291,0.6758377 0.172693,0.6418559 -0.4289,1.4547589 -0.968743,1.7923509 -1.300134,0.813052 -1.018075,-1.307263 -0.810833,-1.8637414 0.0671,-0.1801816 0.01649,-0.437112 0.197676,-0.5691149 M 19.72625,9.318027 c -0.08381,0.4498196 -0.187323,0.755086 -0.214166,1.284998 -0.01599,0.315464 -0.04162,0.566119 -0.08074,0.856662 -0.08467,0.628441 -0.200958,1.437558 0.08074,1.998889 m -0.985236,-1.570268 c -0.185396,0.619866 -1.537213,1.493382 -2.146621,0.906285 0.03508,-1.233635 2.274885,-2.09217 2.146621,-0.906285 z m -2.655945,0.689474 c -0.229586,0.01055 -0.429402,0.08891 -0.642141,0.0945 -0.437827,0.01139 -1.118517,0.121572 -1.456115,-0.258639 -0.350447,-0.394787 0.120361,-1.117526 0.320536,-1.45362 0.326103,-0.547335 0.734018,-1.0748962 1.206968,-1.2136073 M 1.6649104,10.103361 C 2.0037203,10.060331 2.3287535,9.9667172 2.6643512,9.91239 3.0482093,9.850271 3.6705046,9.8031679 3.9120128,10.113929 c 0.1480592,0.190527 0.1179335,0.420194 0.040331,0.631931 -0.1699772,0.463457 -0.588743,0.931122 -0.9320513,1.284998 -0.1956047,0.201665 -0.6080182,0.488938 -0.4804462,0.742229 0.063038,0.125065 0.2854838,0.111575 0.4101281,0.101988 0.5673984,-0.04367 1.1037412,-0.06233 1.6418695,-0.130358 M 10.017383,11.53111 c 0.289554,0.01941 0.4873,0.09092 0.706392,0.268774 0.143491,0.116436 0.26371,0.253429 0.305687,0.44539 0.08324,0.379937 -0.161339,1.054056 -0.655134,0.972245 C 10.070283,13.167208 9.8723226,12.806258 9.7949362,12.530554 9.73483,12.31617 9.7471067,12.103505 9.8259955,11.889837 9.8894558,11.717861 9.9599926,11.624343 10.017388,11.53111 9.9165821,11.469093 9.7997247,11.422594 9.6750078,11.323792 9.0734157,10.847563 9.9595634,10.16508 10.445722,9.9605577 m 38.050172,0 1.07083,0.071399 m -19.489112,3.783594 c 0.638715,-0.353729 1.899511,-0.770063 2.173215,-1.499161 0.04898,-0.130496 0.05376,-0.283624 -0.02533,-0.413054 -0.162346,-0.265716 -0.459608,-0.281842 -0.71875,-0.48338 -0.601951,-0.468235 -0.183612,-1.240586 0.498363,-1.316618 M 5.3057341,10.460283 c 0.3697932,-0.208172 1.1304403,-0.52814 1.4529737,-0.171121 0.1530572,0.169476 0.022063,0.343803 -0.09801,0.497723 -1.0274612,1.041523 0.7316425,0.239009 1.314475,0.915188 0.2135236,0.266559 -0.00312,0.610374 -0.1943201,0.815403 -0.4319725,0.463162 -1.3114811,0.853593 -1.761231,0.941184 M 49.566724,10.031957 c 0,0.512142 -0.07003,1.637293 -0.142774,2.213041 m 3.681225,-2.072454 -0.111797,1.644118 m -6.682189,-0.249155 c 0.06703,0.299577 0.02332,0.410343 -0.01744,0.534243 -0.112705,0.34255 -0.07911,0.537988 -0.08947,0.585176 M 10.262408,11.555431 c 0.455531,-0.408551 1.28684,-0.742272 2.110807,-0.809592 m 10.810548,0.829015 c -0.141768,0.973102 -0.279642,1.335322 0.346722,0.313357 0.865551,-1.15695 -0.04265,1.061459 0.919057,-0.147127 l 0.305331,-0.423981 c 0.224673,-0.308321 0.340685,1.400393 0.539696,1.713221 m 11.422193,-0.642533 c 0.0017,-0.191195 0.09813,-0.15318 0.07139,-0.85684 m 0.500939,-0.0048 c 0.204457,0.133564 0.244482,0.772445 0.533698,0.721941 0.169361,-0.02957 0.380975,-0.57442 0.540819,-0.779916 m 0.425927,0.589652 c 2.21103,-0.599982 1.226735,-1.617501 0.252787,-0.846224 -1.443201,1.175068 0.375377,1.48031 1.672204,1.461745 M 28.578451,10.960058 c -0.0071,0.343804 -0.195606,0.832246 0.112293,1.098891 0.213381,0.184821 0.476163,0.04482 0.660774,-0.112873 0.185898,-0.158697 0.312753,-0.301975 0.440539,-0.41491 l 0.49972,0.499728 m -0.571109,-1.070836 0.07139,0.571108 m 5.496928,-0.285765 c -0.01741,0.380644 -0.102153,0.98238 -0.428333,1.570763 M 21.768112,11.674293 c -0.158484,0.26079 -0.26928,0.673559 -0.185754,0.927694 0.11058,0.336317 0.310398,0.416483 0.685474,0.428695 m 25.058217,-0.308526 c 0.05221,-0.551974 0.141097,-1.460675 0.384927,-1.820047 0.56226,-0.797558 1.126442,0.319673 0.815403,0.914553 -0.149777,0.286556 -0.402705,0.571045 -0.672985,0.713743 -0.180679,0.09534 -0.336026,0.0328 -0.527345,0.191751 -0.259426,0.215523 -0.326247,0.78199 -0.472093,1.022004 M 20.654304,11.959488 c -0.391566,0.635433 0.446965,0.845525 0.928054,0.642499 m 20.060223,-0.142781 c -0.106011,0.445179 -0.0626,0.820475 -0.315608,1.213606 -0.391355,0.608307 -0.861948,0.674415 -1.326332,0.785282 m -23.272716,1.499161 c -0.140492,0.756932 -0.274773,1.739174 -0.07139,2.427215 0.359085,-0.148847 0.729664,-0.411272 1.284996,-0.6425 m -7.067481,-1.641943 -0.03027,1.499172 -0.0412,0.642488 -0.214095,1.427781 c -0.09252,-0.05337 -0.193677,-0.23359 -0.6424264,-0.197172 -0.4572445,0.03712 -1.0603363,1.081963 -0.7119592,1.510151 0.2045998,0.251435 0.5381281,-0.06792 0.6848319,-0.243504 0.4047027,-0.484234 0.4752337,-0.756869 0.6695537,-1.069475 m 18.846617,-3.569441 0.101661,0.999444 0.04112,0.999444 0.713885,0.0714 m -1.856106,-1.927497 5.5e-5,1.284999 0.01063,0.571108 -0.05454,0.571107 -0.241721,1.142227 m 7.495811,-2.712779 -0.142778,1.42778 c -0.394921,-0.11786 -1.465681,0.04324 -1.916927,-0.275418 -0.444539,-0.313894 -0.05883,-1.539429 0.274987,-1.72347 m 7.995535,0.285554 c 0.513284,-0.227515 0.985591,-0.365931 1.49916,-0.214163 -0.06374,0.148488 -0.117362,0.296196 -0.25093,0.499864 -0.156555,0.238727 -0.290621,0.479299 -0.44732,0.713743 -0.31618,0.473023 -1.19576,1.456046 -0.80091,1.998889 M 24.190097,17.741981 c -0.318109,0.746089 -0.349092,1.865313 0.604805,2.19527 1.051414,0.363663 2.361038,-0.659554 1.951197,-1.766934 -0.683916,-1.137206 -1.984017,-1.736397 -2.556002,-0.428336 z m 17.309689,-0.499717 c -0.392923,0.163623 -0.865232,0.394059 -1.213609,0.595883 -0.179756,0.104202 -0.345448,0.273698 -0.57111,0.294761 -0.19132,0.01783 -0.337453,-0.06106 -0.499362,-0.131286 -0.228088,-0.09882 -0.453248,-0.307829 -0.416768,-0.613517 0.07353,-0.615721 0.90321,-0.56825 1.201686,-0.288623 m -1.798107,1.545052 h -0.42833 c 5.2e-5,-0.443966 0.03099,-1.009579 0.42833,-1.356379 m 5.724487,-0.117283 c 0.466095,-0.258353 1.548207,-0.420837 2.038289,0.158836 0.197818,0.233948 0.116648,0.521284 -0.01864,0.769218 -0.256212,0.469522 -0.83789,1.046272 -1.37716,1.173772 -0.24315,0.05759 -0.512428,0.01814 -0.670555,-0.190612 -0.430251,-0.54592 -0.243695,-1.388257 0.200482,-1.689251 M 36.78813,17.099482 c -0.201746,0.264429 -0.711818,1.01693 -0.482803,1.462469 0.246575,0.479878 1.150136,-0.180497 1.457393,0.09405 0.318109,0.284204 0.121009,1.260402 0.239017,1.655959 M 4.9487744,20.99673 C 5.2747354,20.93208 5.8625494,20.614588 5.9969746,20.418408 6.4088872,19.817031 5.7260547,19.290398 5.1640108,19.427675 4.3689127,19.689719 4.2141105,21.132934 4.9487744,20.99673 Z M 3.2354436,17.242418 c -0.3507322,-0.08374 -0.6385711,-0.134805 -0.9983702,0.0021 -0.1836124,0.06997 -0.3063986,0.168621 -0.3752906,0.356017 -0.096018,0.261138 0.070389,0.586959 0.2163788,0.780852 0.3928711,0.506706 3.3846434,2.317407 1.7283938,2.631887 -0.170262,0.0598 -0.454247,0.1292 -0.6424986,0.142065 -0.5399127,0.03705 -0.7418718,-0.257637 -0.5711099,-0.629221 m 25.2715991,-2.427041 0.58181,-1.66e-4 m 0,0 c 0.314754,0.05842 0.598189,-10e-6 1.131534,-10e-6 m 10.137177,0.03399 c -0.111011,0.09703 -0.307754,0.221476 -0.495934,0.406941 -0.301119,0.296839 -0.541199,0.823756 -0.06739,1.158068 0.453963,0.320327 1.227815,-0.09566 1.322762,-0.599384 0.08581,-0.455167 -0.309789,-0.764877 -0.553866,-1.011165 m -10.342745,0.01155 c -0.01485,0.345164 -0.07134,0.788248 -0.07141,1.28519 m -12.849949,-0.999635 -0.214162,1.42798 -0.214169,0.785263 m 19.274949,-2.070261 -0.142778,1.284998 m -21.559385,0.71388 c -0.293979,0.522645 0.328101,0.637079 0.928052,0.294624 0.23644,-0.134924 0.498651,-0.236301 0.598023,-0.515421 0.229087,-0.643364 -0.924911,-0.650852 -1.22139,-0.943831 -0.258782,-0.255717 -0.190607,-0.667916 0.19632,-0.670417 0.307258,-0.0021 0.377431,0.1622 0.498436,0.264493 m 6.06804,-0.285543 c -0.204101,0.169687 -0.43026,0.363146 -0.633932,0.785345 -0.120648,0.25 -0.235011,0.707963 -0.526849,0.8578 -0.600307,0.308188 -0.766429,-0.666841 -0.766714,-1.000657 m -5.996651,-0.428326 c -0.118862,0.413835 0.06161,0.762427 -0.132712,1.050418 -0.126143,0.186962 -0.244435,0.285975 -0.438469,0.37614 -0.205742,0.09566 -0.44675,0.06285 -0.581175,-0.101144 -0.181541,-0.221377 -0.143135,-0.547979 -0.06126,-0.825676 m -4.5688763,1.641933 c 0.028909,-0.145988 0.090734,-0.410628 0.1844684,-0.52042 0.178399,-0.208879 0.2590695,-0.19425 0.4159815,-0.479372 1.4065429,-2.190598 0.2553921,0.735732 0.8987131,1.356738 M 7.304611,19.384136 c -0.022918,0.533836 0.042481,0.842814 0.041691,1.121513 m 14.735766,-1.121514 c 0.409702,0.964524 0.209312,2.036214 -0.642498,2.641377 M 10.588491,19.669468 c 0.296355,0.445807 0.372972,1.118644 0.785273,1.071046 m 5.068609,-0.928064 c 0.395207,0.187258 1.07033,0.498009 1.57055,0.499728 M 12.81161,19.934815 c 0.158911,0.233579 0.238438,0.544835 0.713887,0.71388 m 6.18219,-0.335315 -1.409207,2.782957 M 5.9969746,20.418408 c 0.062679,0.259492 0.023129,0.357873 0.2141659,0.71389 m 17.4909735,4.391254 c 0.01392,0.675194 0.07139,1.027783 0.07139,1.641943 0,0.463731 -0.01949,0.717308 -0.05925,1.142217 -0.04247,0.453891 0.05354,0.667558 0.05897,1.070824 0.0026,0.185329 -0.0437,0.651172 -0.004,0.824012 m 0.575697,0.334415 c 0.405559,0.112439 1.028781,-0.117428 1.352172,-0.326887 0.184612,-0.119506 0.362155,-0.295331 0.263211,-0.538339 -0.168548,-0.413919 -0.744512,-0.335883 -1.114591,-0.538919 -0.339096,-0.186035 -0.449034,-0.434823 -0.284841,-0.750867 0.19432,-0.374074 0.607875,-0.451171 0.997372,-0.359793 m -6.711392,0.756646 c 0,-0.227019 -0.06073,-0.706392 -0.01949,-1.042201 0.03448,-0.280628 0.0028,-0.546839 0.131641,-0.850239 0.13007,-0.306046 0.249789,-0.438039 0.540413,-0.704039 0.523277,-0.479014 1.192404,0.01708 1.408783,0.626225 0.13107,0.369074 0.02277,0.732875 -0.283555,1.016709 -0.23908,0.221599 -0.488085,0.354952 -0.777494,0.500087 -0.174117,0.08743 -0.328746,0.17283 -0.499721,0.24286 -0.208955,0.08564 -0.357943,0.04145 -0.500578,0.210598 -0.110438,0.131002 -0.128143,0.334524 -0.123432,0.528352 0.0051,0.210883 0.05497,0.356302 0.03976,0.571108 -0.02385,0.335239 -0.07817,0.707815 -0.201031,1.070825 m 151.125192,-4.004756 0.19703,0.71388 0.19917,0.713891 0.2463,1.427769 0.13491,0.917559 0.50758,0.28585 0.85667,0.438534 m -71.50489,-4.704657 c 0.46546,0.846242 1.03157,1.580403 1.53843,2.427214 0.40406,0.674836 0.67247,1.474176 1.10724,2.141661 0.39049,0.599236 1.22209,1.361986 1.85746,1.213571 M 35.684564,28.392307 c -0.191679,-0.201106 -0.381215,-0.309116 -0.631647,-0.354878 -0.195533,-0.03575 -0.494867,-0.08437 -0.68833,0.02415 -0.178971,0.100511 -0.08431,0.279986 -0.06603,0.460315 0.03862,0.382215 -0.237652,0.752871 -0.137995,1.177871 0.562471,0.13317 2.367393,-0.42253 1.524005,-1.307457 z m -1.786699,1.190668 c -1.141066,0.312321 -1.40149,0.53314 -2.147906,0.14038 -0.468095,-0.224667 -0.339218,-0.478649 -0.337793,-0.915982 0.002,-0.593309 0.134853,-1.345959 0.713815,-1.641933 m 125.666009,6.710535 v -1.713324 l 0.003,-0.642499 -0.0143,-0.428336 -0.14277,-1.499162 -0.29198,-1.42778 -0.0108,-0.548401 m -51.08575,-0.09408 c -0.11636,0.45289 -0.5033,1.102815 -0.65678,1.856108 -0.21274,1.048127 -0.57897,2.1081 -0.76528,3.141104 -0.14849,0.825749 -0.40906,1.604102 -0.56469,2.427214 -0.0678,0.358296 -0.1385,0.636214 -0.25057,0.999444 -0.20846,0.675047 -0.40692,1.299269 -0.56469,1.998879 -0.0771,0.340808 0.0364,0.485226 0.0771,0.777066 M 144.2994,27.736557 c -0.0257,0.506213 0.14134,1.485598 0.14279,2.14166 8.2e-4,0.254357 -0.003,0.459745 0.0299,0.71389 0.0664,0.504221 0.0457,0.853161 0.10062,1.427771 0.0228,0.242649 0.006,0.408413 0.0328,0.642498 0.0407,0.349162 0.10135,0.669553 0.11922,0.999445 0.0129,0.225733 0.0299,0.410702 0.0742,0.642499 0.12707,0.666051 0.34339,1.615524 0.6425,2.141661 M 26.914588,28.093253 c 0.142778,-0.0269 0.284628,-0.0541 0.42869,-0.07699 0.171261,-0.02732 0.468524,-0.07689 0.555261,0.09998 0.0988,0.20139 -0.05425,0.363948 -0.196106,0.548126 -0.288909,0.375223 -0.970314,0.905568 -0.809404,1.333682 0.06817,0.181616 0.412769,0.166977 0.592669,0.165195 0.522993,-0.0052 0.944616,-0.05284 1.427774,-0.142487 m 81.333648,-2.07028 c -0.002,0.0052 -0.0405,0.14251 -0.0291,0.248526 0.0178,0.170331 0.0291,0.218359 0.0919,0.393974 0.12278,0.347874 0.27414,1.103319 0.33553,1.499161 0.24629,1.588186 0.57396,3.167018 0.60109,4.783048 0.0157,0.943831 0.13564,2.022587 0.14277,2.926931 M 36.980411,28.164645 c 0.02023,1.140236 0.02596,1.219002 0.459529,0.284773 0.87321,-1.929757 0.665655,-0.683092 0.968246,0.429402 0.42105,-0.205747 0.692613,-1.326406 1.307911,-1.737455 0.531563,-0.355089 0.70418,1.108308 0.762362,1.4519 m 131.970511,0.421052 c 0.12965,0.46031 0.0496,0.658534 0.0162,0.914985 m -43.79977,6.44505 c 0.70031,-5.6e-4 1.43705,-0.194177 2.07027,-0.483381 0.33624,-0.153413 0.53398,-0.286841 0.85667,-0.500001 0.52613,-0.347591 1.25929,-0.879444 0.80383,-1.583831 -0.64464,-0.997155 -2.02244,-1.279429 -2.74133,-2.287227 -0.17205,-0.24093 -0.35694,-0.491437 -0.40335,-0.785271 -0.10135,-0.651496 0.18633,-1.433982 0.58395,-1.926422 0.22347,-0.276135 0.544,-0.471958 0.90023,-0.468024 0.66962,0.0074 0.6739,0.361439 0.78527,0.823894 m 17.98995,-0.499717 1.28499,0.229224 0.49973,0.11265 0.57111,0.08649 1.07083,0.193681 0.85667,0.02046 M 112.38877,28.80715 c 9.2e-4,0.459671 0.11137,0.709819 0.1492,1.213617 0.0186,0.253567 0.0557,0.408625 0.0642,0.64249 0.0143,0.39022 0.0814,0.878514 0.15776,1.284998 0.0878,0.470882 0.16205,1.037781 0.19347,1.499161 0.0178,0.254936 -0.007,0.437617 0.0186,0.71389 0.0193,0.204524 0.0536,0.371932 0.0585,0.571108 0.006,0.204956 -0.005,0.356165 0.0214,0.571108 0.0286,0.242366 0.0493,0.406779 0.0507,0.6425 0.002,0.524353 0.0557,1.005223 0.28557,1.499161 m 37.83601,-8.423859 c 0.002,0.684474 0.49757,2.35211 0.49971,3.426659 9.2e-4,0.700242 -0.0678,1.279418 -0.0714,1.713323 h 1.99893 M 22.202951,29.164089 c -0.0069,0.405133 -0.07781,0.495656 -0.272849,0.785207 -0.24679,0.366438 -0.601448,0.728371 -0.990803,0.443967 -0.217593,-0.158919 -0.295121,-0.447901 -0.262853,-0.656284 0.0247,-0.159329 0.121504,-0.278203 0.170119,-0.358728 m -10.8510821,-0.0714 c 0.3710791,0.567817 0.7003231,2.323128 -0.499363,2.17714 C 8.9757682,31.420715 8.9864763,31.001614 8.7818763,30.734622 8.583773,30.883183 8.3693921,31.279743 8.0275835,31.085429 7.8443988,30.981227 7.854393,30.714351 7.8235533,30.520459 7.7416045,30.005956 7.663143,29.91287 7.3541019,29.663787 m -2.4272161,0.285564 c 0.051404,-0.460029 0.2922654,-0.653921 0.7135298,-0.501795 0.1906076,0.06876 0.3560867,0.16762 0.4049169,0.366512 0.046185,0.188397 -0.021346,0.388564 -0.092875,0.563609 C 5.7080235,30.975846 4.633195,31.877121 3.9988913,31.589288 3.8710779,31.531286 3.7272439,31.424169 3.6125285,31.2751 3.480168,31.103125 3.4516899,30.9223 3.4743779,30.735981 c 0.031363,-0.257437 0.2631533,-0.454535 0.4813807,-0.284627 0.151144,0.117713 0.1021879,0.332668 0.022082,0.495646 -0.1043814,0.212381 -0.2911893,0.249134 -0.3640767,0.335797 M 14.992688,29.37823 c 0.127357,0.718099 -0.185111,1.325984 -0.714958,1.855041 -0.192036,0.191678 -0.421765,0.440255 -0.709675,0.390706 -0.30176,-0.05199 -0.384,-0.382637 -0.502862,-0.603803 -0.419623,0.124072 -0.750866,0.176047 -1.01786,-0.218382 -0.112651,-0.166332 -0.111581,-0.31461 -0.129642,-0.495509 -0.02577,-0.257784 -0.06539,-0.585957 -0.06611,-0.856661 m 10.078518,0.499674 0.499722,0.499718 M 3.6137635,31.282797 C 3.2999257,31.503394 2.8062849,31.798737 2.1427266,31.530037 1.7732329,31.380399 1.4473649,30.986698 1.3812451,30.591848 1.3047068,30.13474 1.4242971,29.886522 1.6430055,29.663785 m 167.9729245,0.778282 0.84877,0.275365 m 9.43118,1.866295 c -0.66677,0.4776 -2.79558,1.489743 -3.73007,0.341748 -0.17918,-0.220102 -0.25769,-0.615015 -0.28911,-0.841465 -0.0264,-0.195537 -0.12994,-0.274912 -0.0735,-0.496933 0.0493,-0.193828 0.23628,-0.311945 0.30768,-0.380074 1.35739,-1.047693 2.23935,0.683286 -0.0722,0.947933 M 8.9246526,29.949349 8.7818763,30.734622 M 140.48,31.416914 c 0.0502,0.69664 0.009,0.339816 0.05,0.752848 M 29.413209,30.020751 h 0.356944 M 170.4647,30.717433 c 0.009,0.499717 0.1421,1.825701 0.15923,2.580206 m -1.48399,0.519204 c -0.4733,0.262362 -1.90823,0.624802 -1.98032,-0.226724 -0.0457,-0.536272 0.2934,-0.927843 0.62679,-1.284925 M 13.207975,30.449088 13.065193,31.020175 M 173.89925,31.22737 c -0.11993,0.504431 -0.16777,1.190911 0.002,1.641585 0.0685,0.181615 0.20988,0.372217 0.42404,0.342232 0.26659,0.02097 0.65966,-0.699891 0.82991,-1.000587 0.16919,-0.293337 0.32894,-0.552478 0.44102,-0.684607 m -159.175906,-0.434406 -0.07139,0.0714 m 144.512626,0.03892 c 0.18133,-0.03639 0.47189,-0.03776 0.50543,0.19154 0.0514,0.35858 -0.82524,0.979015 -1.14792,1.013281 -0.42119,0.04472 -0.59159,-0.236639 -0.27627,-0.660196 0.24343,-0.257288 0.57681,-0.47624 0.91876,-0.544625 m 0.7139,2.459698 c 0.0978,-0.221091 0.23415,-0.383713 0.35265,-0.642499 0.21488,-0.467665 0.40477,-1.609385 1.07511,-1.747379 0.2877,-0.05906 0.55613,0.04894 0.85667,0.105467 m -6.06497,0.142963 c 0.32054,-2.11e-4 0.46546,-0.04029 1.07084,-0.142772 m 13.56662,-0.950289 c -0.008,0.986059 0.1126,1.64956 0.18173,2.442266 m -15.60446,-1.135044 0.78527,-0.214163 m 7.27857,0.489694 c 0.38052,-0.151136 1.14508,0.341451 1.09797,0.796123 -0.0493,0.468024 -0.61037,0.694189 -1.02657,0.837679 -0.88165,0.304179 -0.81526,-0.650853 -0.56826,-1.123949 0.11922,-0.228233 0.257,-0.414415 0.49686,-0.509853 m -5.13069,-0.263317 c -1.66625,2.582382 1.34888,1.031861 1.61104,1.08524 m -6.97448,1.972087 c 0.0207,-0.803696 0.28127,-0.568112 0.44118,-1.213681 0.065,-0.261856 0.19489,-0.864804 0.55754,-0.874296 0.27413,-0.0074 0.35839,0.388143 0.42048,0.588816 0.15778,0.504357 0.28628,1.000151 0.72246,1.213607 m 4.78303,-1.35639 0.15293,0.305822 M 165.9529,33.2252 c 0.26271,0.312606 0.6475,0.468593 0.99945,0.356945 m -27.72157,1.864203 c -0.37407,0.228949 -2.30871,1.356031 -2.66851,0.415912 -0.0821,-0.213446 0.0293,-0.430256 0.0921,-0.630075 0.15493,-0.488442 0.3848,-1.614385 0.86953,-1.839116 0.28055,-0.130358 0.35836,0.08343 0.4219,0.197183 m 16.49078,-0.285554 c 0.0199,0.466663 0.10879,0.66057 0.2466,0.909358 m -20.59222,-0.35504 c 0.40548,-0.111723 0.94447,-0.0052 1.19077,0.448175 0.37121,0.683842 -0.57255,1.676568 -1.26216,1.706763 -0.92662,0.04061 -0.9202,-0.891213 -0.68318,-1.495596 0.11279,-0.287758 0.15633,-0.385781 0.40119,-0.51656 0.15135,-0.08058 0.25629,-0.115941 0.35338,-0.142782 m 7.63859,1.410494 c -0.6532,-0.1437 -0.4112,-1.047126 0.0742,-1.347815 1.82125,-0.445948 0.91108,1.488474 -0.0742,1.347815 z m -19.77468,-1.322297 c 0.38408,0.03966 0.60038,0.211316 0.93948,0.541051 0.53327,0.519428 0.65748,1.147299 0.11636,1.736748 -0.38621,0.420268 -1.00943,0.515357 -1.48417,0.273351 -0.17347,-0.08859 -0.31839,-0.179907 -0.42762,-0.358801 -0.10136,-0.166555 -0.14777,-0.462244 -0.21487,-0.621796 m 0.21487,0.621796 c -0.19846,0.324683 -0.75669,0.833322 -1.21429,0.548474 -0.28342,-0.176753 -0.51544,-0.49129 -0.59396,-0.813325 -0.12136,-0.499221 -0.10566,-1.168498 0.0942,-1.641943 m 30.05463,0.428336 c 0.37621,0.01466 0.72816,-0.07762 1.14222,-0.214237 0.42619,-0.140641 0.67842,-0.277203 1.07106,-0.285556 m -42.76206,3.498115 c -0.47758,0.266992 -1.08226,0.553621 -1.64194,0.570043 -0.59895,0.01751 -1.28857,-0.07815 -1.56413,-0.712888 -0.30626,-0.706255 0.27271,-1.729039 0.67107,-2.284369 0.12848,-0.180118 0.24271,-0.372291 0.41976,-0.501932 0.17275,-0.12615 0.32838,-0.20967 0.494,-0.285269 0.29198,-0.133649 0.88951,0.0052 0.94662,0.430614 0.06,0.44518 -0.60039,1.029999 -0.86952,1.314836 -0.22987,0.244295 -0.25914,0.334174 -0.59751,0.469521 m 10.75969,-1.07054 c 0.0136,0.549265 -0.69604,0.905494 -1.12223,0.924836 -2.96162,-0.737095 0.9519,-2.653758 1.12223,-0.924836 z m 25.21393,-0.905951 c 0.20132,0.187617 0.36979,0.362304 0.78528,0.428337 m -3.63456,0.54872 0.4827,-2.672848 m -11.02743,7.945213 c 0.66462,0.08585 1.00443,0.398784 1.57053,0.499728 m 1.90672,-0.560719 c 0.35481,0.624506 0.37265,1.231378 0.35623,1.927487 -0.007,0.312691 -0.0564,0.604457 -0.11422,0.928053 -0.0728,0.403425 -0.17562,0.820118 -0.24201,1.213607 m -6.42497,-3.854984 c -0.0279,0.174475 -0.0171,0.376931 -0.006,0.571108 0.0108,0.182755 0.005,0.310824 0.006,0.499728 0.009,0.812533 -0.0229,2.222322 0.35693,2.998322 m 1.99889,-3.854995 c -0.43049,0.47973 -0.75173,1.246808 -1.07083,1.927498 0.65249,0.192752 1.82326,-0.107082 2.38723,0.649998 0.39407,0.529269 -0.14921,1.087889 -0.67391,1.18262 -0.65034,0.117365 -1.06939,-0.08226 -1.49916,-0.54762 m -17.34745,2.284442 c 0.1128,-0.789785 -0.10851,-1.556061 -0.24343,-2.355834 -0.0464,-0.273773 -0.17561,-0.624938 -0.17633,-0.856661 -9.2e-4,-0.269491 0.0871,-0.312543 0.11636,-0.571108 0.0229,-0.200389 0.0542,-0.50672 0.1285,-0.71389 0.11065,-0.312038 0.30482,-0.815119 0.68105,-0.904281 0.8274,-0.19596 0.93518,1.03042 0.74886,1.546779 -0.0799,0.22045 -0.23987,0.353233 -0.27627,0.57075 -0.0257,0.155913 0.0322,0.242861 0.11493,0.314041 0.35124,0.299908 1.52487,0.106796 1.92321,0.637859 0.22988,0.306393 0.0985,0.811183 -0.085,1.118728 -0.39835,0.667843 -1.43134,1.319265 -2.14665,1.356389 m 10.13719,-0.928053 c -0.54041,-0.540343 -0.75672,-0.900568 -1.1665,-1.567768 -0.15991,-0.260073 -0.41548,-0.495435 -0.28983,-0.859446 0.09,-0.26078 0.21844,-0.332888 0.34338,-0.571108 0.10062,-0.192184 0.14635,-0.380718 0.24415,-0.571119 0.18704,-0.361438 0.49901,-0.630139 0.79741,-0.713879 m -2.64138,0.356945 0.38478,0.49979 0.87166,0.999371 m -17.39028,-0.07139 c -9.1e-4,-0.295331 -0.1492,-1.170555 0.36123,-1.254802 0.504,-0.08322 0.75886,0.410849 0.96304,0.755085 0.31696,0.534627 0.46402,1.132081 0.22558,1.713325 -0.17204,0.420985 -0.6268,0.723593 -0.97874,0.860374 -0.25343,0.09861 -0.38121,0.144564 -0.49972,0.210461 -0.42261,-0.826735 -0.0633,-1.563999 -0.0714,-2.284443 z m 14.755,0.489327 c 0.25128,0.429971 0.27912,1.012006 -0.0493,1.423635 -3.46981,2.294324 -1.68349,-4.178363 0.0493,-1.423635 z m 2.63544,-0.01567 c -0.28626,0.406779 -0.51415,0.993097 -0.61409,1.668006 m -11.11594,-0.428325 c 0.38408,1.005002 -0.13349,2.600825 -1.44848,2.412217 -0.9973,-0.143057 -1.49345,-1.261511 -1.54343,-2.198054 -0.0171,-0.316899 0.035,-0.80648 0.29413,-1.027499 0.31341,-0.267066 0.65035,0.06001 0.96375,-0.0076 0.80098,-0.163071 1.49844,0.206527 1.73403,0.820972 z m -5.58902,0.571108 c 0.0585,0.461453 0.12136,1.123295 0.21417,1.856106 m 46.04571,0.214164 c 0.61323,-0.199461 0.99873,-0.28584 1.71332,-0.285555 0.22274,0 0.6632,-0.05505 0.71746,0.224731 0.0821,0.421333 -0.70818,0.842381 -0.93162,1.131658 0.38978,0.274913 0.97017,0.322458 1.30998,0.788341 0.80241,1.10217 -0.49828,2.379311 -1.52414,2.424145 M 139.0881,48.439125 c 0.43975,1.180131 0.40476,2.697423 0.42833,3.854984 m 5.43245,-3.891043 c 0.79957,0.236365 1.56627,0.04535 2.14166,0 m 0.77837,0.178849 0.13992,1.427781 -0.13992,2.141659 m -3.56943,-3.49805 c -0.31554,0.343235 -0.91807,0.967678 -0.7139,1.499161 0.4983,-0.147274 0.96875,-0.0714 1.49916,0.137573 0.72103,0.283982 0.92092,1.080602 0.48544,1.717458 -0.19631,0.287063 -0.499,0.530492 -0.84238,0.654565 -0.63892,0.230943 -1.023,-0.435329 -1.07083,-0.867652 M 142.203,49.078716 c -0.0771,0.182828 -0.21088,1.130001 -0.0452,1.216526 0.14064,0.07298 0.32725,-0.05111 0.40221,-0.07431 m -8.18355,-1.139309 -0.44191,0.785283 -0.24128,1.284998 -0.0536,0.571108 -0.26271,2.284432 m 7.28165,-4.925821 c -0.10565,0.313694 -0.58254,1.266869 -0.31268,1.51109 0.23916,0.216241 0.83311,-0.0656 1.09795,-0.158265 0.29484,-0.103041 0.45237,-0.112011 0.6951,-0.117717 0,0.536695 -0.0904,1.294273 0.0902,1.905998 m -12.92129,-3.28388 c 0.46616,0.611587 0.67962,1.348818 0.77385,2.141661 0.025,0.208309 0.0546,0.369791 0.05,0.571108 -0.005,0.19154 -0.0292,0.316045 -0.0386,0.499727 -0.009,0.19018 -0.0243,0.317954 -0.0536,0.499717 -0.0371,0.224298 -0.0828,0.720525 -0.38263,0.775779 -0.59753,0.110225 -1.23718,-1.103816 -1.51774,-1.403006 -1.90183,-6.177956 -0.77597,0.927334 -0.44561,2.044255 m 3.54174,-4.700902 c 0.2163,0.221082 0.42476,0.473224 0.64892,0.71388 0.50043,0.53699 1.27641,1.352466 1.75543,1.641944 m -30.5315,3.498039 c 0,-0.904629 -0.13207,-1.809342 -0.14278,-2.712769 -0.002,-0.229508 -0.0143,-0.597802 0.0385,-0.78527 0.0614,-0.21738 0.12136,-0.281557 0.17847,-0.499728 0.0964,-0.366786 0.50543,-1.480018 1.05297,-1.038488 0.42406,0.341884 0.54971,1.05549 0.66678,1.538216 0.31197,1.285135 0.12493,2.871971 0.7046,4.069158 m 14.20634,-5.42552 c 0.0536,0.655282 0.23558,1.107738 0.45188,1.784726 0.0707,0.221725 0.11851,0.503145 0.14921,0.713521 0.0307,0.209881 0.0371,0.321329 0.0414,0.428695 h -0.42832 m -17.49024,-2.355834 0.457,0.773816 m 19.78825,-0.50283 c -0.0235,0.434475 -0.19846,0.663772 -0.5711,0.976168 -0.32055,0.268215 -0.8324,0.573755 -1.21361,0.75323 -0.30341,0.142845 -0.50115,0.223655 -0.64036,0.486723 -0.14707,0.27699 -0.0628,0.902635 -0.0735,1.210538 m -2.46947,0.157358 -0.0992,-1.213607 0.15491,-0.6425 0.37551,-0.566034 0.78243,0.137709 m -2.28445,2.498606 c -0.20203,-0.05717 -0.67605,-0.597676 -0.85952,-0.601884 -0.18204,-0.0042 -0.40477,0.153129 -0.56825,0.199461 -0.32268,0.09144 -0.91021,0.01814 -1.17577,-0.259715 -0.25057,-0.262277 -0.39835,-0.729236 -0.35123,-1.051197 0.0299,-0.207096 0.1042,-0.389071 0.2113,-0.566889 0.19418,-0.323607 0.49973,-0.329682 0.68462,0 0.78902,0.714267 0.77061,1.104507 1.19933,1.67834 m -9.31196,-0.04675 c -0.0181,-0.01658 -0.0386,-0.45833 -0.0288,-0.491565 0.10986,-0.369977 0.19396,-0.915476 0.42998,-1.121544 0.35838,-0.312173 1.00945,-0.06127 1.03515,0.406706 0.0421,0.783066 -0.77315,0.823249 -1.25502,0.872513 -0.70742,0.526512 0.77689,0.90747 1.20932,0.86009 0.23274,-0.02858 0.47402,-0.03206 0.71246,-0.141633 m 15.70694,-1.663427 c 0.17063,0.880002 0.29912,2.114313 0,2.998322 m -15.27717,-2.85554 c -0.77684,0.792468 0.40544,2.056034 1.14221,2.055852 0.50472,-0.01487 0.60894,-0.450327 0.71389,-0.770864 0.47901,0.183113 1.28428,0.346736 1.5834,-0.293053 0.25058,-0.535839 -0.18632,-1.094102 -0.65534,-1.2775 m 8.56665,0.356965 c 0.13421,0.119505 0.28699,0.25114 0.49971,0.35394 0.15277,0.07361 0.34624,0.151483 0.49973,0.217242 0.56469,0.242143 1.12081,0.52563 1.42777,0.856588 m -12.20747,-0.713891 0.28555,0.499709"
       id="path42434"
       sodipodi:nodetypes="cccccccccccccccccccccccccccccsscccccccccccccccccscccscccccccsccccccccccccccccccccccccccccccccccccccccccccccsscccccccscccscccccscccccccscsscccccccccccccccccccccccccccccccccccccccccccccccccscccccccccccsccccccccccccccccccccccccccccccccccccccccccccccccccccsccccccccscccccccccccccccccccccccccccscccccscccccccccccccccccccccccccccccccccccccccccccsssccccscccccccccscccccccccccccccccccccccccccccccccccccccccccccccccccccccccccccccccccccsccccscccccccccscccccccccccccccccscccccccsccccscccccccccccscccccccccccccccccccccccccsccccccscccccccccccccccccccccccccccccccccccccccccccccccccccccccccccccccccccccccccccccccccccccccccccccccccccccccccccccccccccccccccccccccccccccccccccccccccscccccccccscccccccccccccccccccccccccccccccccscccccccccscccccccccscsccccccccccccccc" />
  </g>
</svg>
