<?xml version="1.0" encoding="UTF-8" standalone="no"?>
<!-- Created with Inkscape (http://www.inkscape.org/) -->

<svg
   width="210mm"
   height="297mm"
   viewBox="0 0 210 297"
   version="1.1"
   id="svg20027"
   inkscape:version="1.1 (c68e22c387, 2021-05-23)"
   sodipodi:docname="Casey - Pulsz - Envelope 30.svg"
   xmlns:inkscape="http://www.inkscape.org/namespaces/inkscape"
   xmlns:sodipodi="http://sodipodi.sourceforge.net/DTD/sodipodi-0.dtd"
   xmlns="http://www.w3.org/2000/svg"
   xmlns:svg="http://www.w3.org/2000/svg">
  <sodipodi:namedview
     id="namedview20029"
     pagecolor="#ffffff"
     bordercolor="#666666"
     borderopacity="1.0"
     inkscape:pageshadow="2"
     inkscape:pageopacity="0.0"
     inkscape:pagecheckerboard="0"
     inkscape:document-units="mm"
     showgrid="false"
     inkscape:zoom="0.89619809"
     inkscape:cx="520.53224"
     inkscape:cy="145.61513"
     inkscape:window-width="1280"
     inkscape:window-height="657"
     inkscape:window-x="-8"
     inkscape:window-y="-8"
     inkscape:window-maximized="1"
     inkscape:current-layer="layer1" />
  <defs
     id="defs20024" />
  <g
     inkscape:label="Layer 1"
     inkscape:groupmode="layer"
     id="layer1">
    <path
       style="fill:none;stroke:#564f46;stroke-width:0.0612911"
       d="m 24.232092,1.3251619 0.117067,1.5935652 0.0094,0.674205 -0.06564,0.5516223 -0.0064,0.3677482 -0.0513,0.490331 0.05823,0.9806515 m 11.216329,0.306457 c -0.298919,0 -0.532006,0.00833 -0.919367,-8.857e-4 C 34.32518,6.282656 34.109864,6.2580581 33.854894,6.144941 33.48676,5.9816409 33.27132,5.7010534 33.207578,5.3091008 33.048342,4.3304369 33.495643,3.0916229 33.981011,2.2445428 34.273922,1.7333582 34.678383,1.4108969 34.958054,1.6929205 M 3.7608319,6.1671591 C 4.5302821,6.2644551 5.2689025,6.1282407 5.9059632,5.5955573 6.2938138,5.271327 6.6110564,4.8662005 6.277264,4.3897199 5.8960952,3.8456003 5.3193456,3.6538801 4.8030277,3.2838321 4.6089183,3.1447351 4.3671857,2.9365525 4.4154831,2.6762151 4.6227556,2.3170845 5.0515073,1.9960911 5.4156948,1.8423507 5.5434253,1.7904248 5.7874867,1.7416206 5.9671922,1.6929517 6.1816506,1.6348863 6.3030689,1.6342619 6.3963535,1.6316604 M 20.961776,3.8080138 c 0.376038,0.1088416 0.512422,0.1478323 0.682373,0.1225827 m -0.844364,-1.9924793 0.239894,1.2871083 -0.0779,0.5827883 -0.958778,-0.1537487 M 25.886957,2.796186 c -2.657461,2.3922172 -1.99546,0.4950527 -0.183874,2.8195173 M 39.573681,4.9405582 c 0.163723,0.2878723 0.0558,0.70454 0.103796,0.858988 M 38.8194,3.4703909 c 0.01035,0.2402651 0.01964,0.5399185 0.07709,0.6931611 M 26.424871,4.9890172 C 26.704899,4.9543109 26.90873,4.8546155 27.235363,4.5629903 27.380133,4.4337582 27.863844,4.0418368 27.626216,3.8398354 27.26889,3.5360217 26.635322,4.0061545 26.457026,4.2681258 25.663383,5.435097 27.406582,6.0683402 28.09344,5.799463 M 20.961776,3.8080138 c 0.0082,0.9183867 0.154759,1.1290716 -0.306456,1.9001053 M 22.577234,4.5123963 22.252697,4.3673991 C 21.345735,4.0331186 20.945483,5.7695817 22.393359,5.1301592 22.659547,5.0036534 22.703658,4.9534313 22.93681,4.773855 l 0.375916,1.1482634 m 5.148462,0.4289564 c 0.461214,-0.00416 1.466942,-0.2680274 1.466942,-0.9194224 0,-0.585702 -0.656797,-0.6201459 -1.037905,-0.7056521 -0.976921,-0.2192441 -0.434801,-0.7815118 0.245166,-0.8701292 0.200176,-0.026119 0.332686,-0.017691 0.551621,-0.017691 M 17.85781,6.04467 c 0.11915,0.1092215 0.259384,0.2565597 0.42916,0.3308485 0.191904,0.08398 0.525082,0.059728 0.735066,0.01582 0.167326,-0.035068 0.372221,-0.139316 0.321963,-0.3364262 C 19.29692,5.8700573 19.061201,5.7724178 18.89976,5.7060379 18.50339,5.5430694 17.671301,5.4001325 17.755024,4.8188531 c 0.05547,-0.3852927 0.468388,-0.8294938 0.837055,-0.835238 0.492964,-0.00728 0.07146,0.4536706 -0.06006,0.5900726 M 42.00654,7.2704978 c 0.447611,0.083147 0.831355,0.088659 1.287116,-0.0897 0.438845,-0.1716785 1.456402,-0.7172243 0.961168,-1.3135297 -0.353771,-0.4259699 -1.068549,-0.4186232 -1.57408,-0.5867427 -0.208757,-0.069408 -0.43204,-0.1871208 -0.5146,-0.402806 -0.107688,-0.2814928 0.01324,-0.5893545 0.272132,-0.6180231 0.465386,-0.051509 0.577853,0.3168317 0.548925,0.6204789 m -3.309724,0.9193705 c 0.0025,-0.3041363 0.04419,-0.605619 0.212741,-0.8580792 0.139254,-0.2086403 0.282613,-0.4234202 0.488368,-0.575889 0.212068,-0.1571723 0.420825,-0.058689 0.556401,0.1504395 0.177561,0.2739381 0.198094,0.558636 0.211087,0.8544892 0.0263,0.5997916 0.06326,0.9918687 0.49272,1.1645251 M 11.439807,5.0361189 c 0.163405,-0.056554 0.400158,0.035213 0.533742,-0.032914 0.18516,-0.094455 0.334952,-0.2457789 0.311603,-0.4259381 -0.03414,-0.2627516 -0.5336,-0.3024921 -0.770368,-0.089387 -0.777574,1.0574509 0.546742,1.6177304 1.501021,1.8019456 m 2.390357,-0.1838743 c 0.02004,-0.467032 0.08574,-0.9873946 0.412305,-1.469817 0.263123,-0.3886539 0.655817,-0.3529197 0.884433,0 0.404031,0.6238191 0.0077,1.2337255 -0.561244,1.477174 -0.332443,0.1421981 -0.521036,0.1065263 -0.735494,-0.00728 L 15.272976,6.718941 15.160997,7.3318552 M 9.8899542,4.8802069 C 10.563177,5.1736042 10.598174,5.8671749 9.7673714,6.1272938 9.3061554,6.2717601 9.0998485,6.1140781 8.8480042,5.9221602 8.496437,6.1998652 8.1538807,6.2228522 7.7838045,5.735643 7.6450404,5.5529344 7.4932234,5.2209827 7.4705456,5.0030914 7.4449885,4.7572496 7.505177,4.7077899 7.7447614,4.6350414 M 14.486794,6.351189 C 14.093795,6.3314629 13.610268,6.1661602 13.400897,5.9166346 13.001435,5.3869738 13.227439,4.7680231 13.751299,4.7068117 c 0.172964,-0.016442 0.40728,-0.044329 0.462075,0.1306681 0.07961,0.2544269 -0.400784,0.456012 -0.584595,0.527595 -0.08361,0.032523 -0.196635,0.054761 -0.273613,0.1142514 M 36.429042,4.9859943 c 0.240998,-0.066494 0.688606,-0.049324 0.855443,0.268579 0.265818,0.5065748 -0.686035,0.9804742 -1.100606,0.9494023 -0.342127,-0.025599 -0.531395,-0.3842417 -0.463485,-0.6495116 0.0988,-0.385761 0.272869,-0.4482803 0.708648,-0.5684697 m 2.329065,0.1393364 -0.0081,0.7690946 M 8.8480042,5.4317876 v 0.490331 M 50.21956,10.825408 c -0.533661,-0.0011 -0.904779,-0.06067 -1.164531,-0.122583 0.262243,-0.542693 0.105788,-1.8498944 0.231529,-2.0244844 m -3.02323,3.4762544 c -0.241243,0.01041 -0.574657,0.07156 -0.94706,0.104133 -0.230151,0.02008 -0.555423,-0.01228 -0.631729,-0.22145 -0.05321,-0.145746 0.0025,-0.274947 0.01354,-0.415064 0.01269,-0.161377 0.04879,-0.433015 0.0611,-0.612903 0.04615,-0.67458 0.02451,-1.2105727 0.189331,-1.5935759 0.7198,0.2256751 1.163427,1.4353209 1.269339,2.2677699 0.02041,0.160346 -0.01979,0.336426 0.04548,0.47109 0.09053,0.186757 0.2866,0.167017 0.401213,0.190794 m 0.20398,0.931651 c -0.0185,0.115903 -0.04113,0.285552 0.04303,0.392078 0.07495,0.0949 0.189079,0.09594 0.305044,0.09137 0.457354,-0.01811 0.927459,-0.37087 1.053899,-0.789858 0.114126,-0.378227 0.01154,-0.856362 -0.380921,-0.995302 -0.79798,-0.04567 -0.965227,0.891553 -1.021053,1.301717 z M 24.415968,9.6609034 c -0.08507,0.287882 -0.05062,0.5392906 -0.102052,0.7967776 -0.14097,0.705714 -0.143115,0.792865 -0.143115,1.409701 0.28433,-0.126142 0.291624,-0.357946 0.741195,-0.601946 0.596792,-0.323918 1.113784,0.500633 0.890928,1.030985 -0.144402,0.343596 -0.402744,0.511716 -0.712755,0.645516 -0.293585,0.126693 -0.8487,0.266123 -1.030979,-0.04173 -0.186877,-0.315593 -0.0023,-0.660469 0.05032,-0.971587 m 10.725961,1.654866 c -0.03322,-0.143488 -0.07054,-0.289172 -0.150165,-0.490331 -0.07508,-0.189826 -0.155923,-0.372045 -0.20318,-0.551559 -0.03751,-0.142448 -0.112899,-0.313814 -0.215133,-0.507928 -0.178603,-0.339059 -0.04878,-0.347332 -0.229475,-0.840545 -0.108484,-0.296093 -0.244367,-0.342805 -0.303882,-0.612914 -0.03077,-0.13968 -0.0051,-0.24682 -0.0022,-0.367748 0.0028,-0.115653 -0.0055,-0.2608475 0.03775,-0.3583621 0.130977,-0.2949371 0.307312,-0.139315 0.45337,0.1744881 M 52.426027,9.6608502 c -0.184485,0.2495148 -0.32484,0.3149689 -0.44105,0.6131538 -0.119089,0.305655 -0.116024,0.586253 0.153288,0.823624 0.18688,0.164759 0.547824,0.247986 0.778031,0.27502 0.143725,0.01686 0.274216,0.018 0.37161,0.146424 0.124849,0.164633 0.113385,0.353034 0.117864,0.532131 -0.03452,0.49617 -1.2e-4,1.211403 0.613815,1.103245 m 0.1264,-1.81925 c -0.47372,0.265395 -0.608255,0.198525 -0.858079,0.183874 0,-0.09563 -8.27e-4,-0.203427 0,-0.36805 -0.02151,-0.454311 0.161272,-1.024784 0.674146,-0.980361 m 4.65432,0.0418 c -0.165575,0.317092 -0.110928,0.695763 -0.147675,0.980662 -0.115225,0.818724 -0.225238,1.886421 -0.0974,2.574228 M 18.164359,10.518919 c -0.104563,0.335021 -0.109037,0.554567 -0.124973,0.91937 -0.03016,0.688243 -0.165179,1.606937 0.431429,1.409702 m -2.941974,1.103234 c -0.468204,-0.148442 -1.608158,-0.186507 -2.03928,-0.80248 -0.251356,-0.359111 -0.138273,-0.85863 -0.09978,-1.220124 0.03144,-0.295178 0.227512,-1.235329 0.608682,-1.291958 0.307007,-0.04558 0.157274,0.359413 0.120683,0.49517 M 2.5962991,10.886585 c 0.1526831,-0.04298 0.3483608,-0.0949 0.5516213,-0.160585 0.2473715,-0.07982 0.5895605,-0.104373 0.858077,-0.04287 0.2967106,0.06795 0.7037446,0.203552 0.8211181,0.51105 0.5279527,1.011254 -1.5417773,1.722598 -1.24176,2.362796 0.097754,0.183083 0.5442653,0.185466 0.7270977,0.210471 0.4065449,0.05556 0.9923655,0.0332 1.348406,0.0613 M 33.733636,10.58021 c -0.29996,0.375407 -0.417698,0.694258 -0.553028,1.348297 0.471759,0.122031 0.820504,0.08402 1.086385,0.105162 m 20.733278,-1.392281 c 0.432595,0 0.731145,0.01957 1.225824,0.05588 0.410647,0.03018 0.998129,0.08637 0.848948,0.679658 -0.162303,0.645276 -1.169683,1.412157 -1.829605,1.459588 -0.346541,0.02487 -0.629766,-0.143478 -0.740155,-0.479165 -0.174159,-1.416626 1.088036,-1.179365 0.494988,-0.428801 m -5.945244,-1.225827 c -0.170452,0.768837 -0.118173,1.868648 -0.306459,2.819393 M 6.2124805,10.764012 c 0.1921478,0.0357 1.2293175,0.103436 1.2943467,0.442162 0.064723,0.337092 -0.2678423,0.475679 -0.4948648,0.640552 -0.3574092,0.198924 -0.1137088,0.372926 0.1201924,0.484805 0.2684552,0.125102 0.6314833,0.152188 0.838218,0.400423 0.4520225,0.542549 -0.4244423,0.878174 -0.838525,0.974034 M 48.319535,10.702825 h 0.735494 m -20.532554,3.064454 c 0.468632,-0.208995 1.092088,-0.436573 1.444634,-0.825467 0.200118,-0.220711 0.218443,-0.575161 0.04303,-0.822959 -0.263368,-0.37191 -1.066773,-0.33575 -1.066773,-0.864198 0,-0.283781 0.322883,-0.289973 0.498358,-0.193624 0.201404,0.110626 0.306518,0.223771 0.429161,0.315896 m 10.603374,1.83874 c -0.453615,4.2e-5 -0.898526,0.08096 -1.348403,0.0588 -0.333119,-0.01633 -0.641351,-0.145143 -0.870338,-0.437261 -0.565226,-0.721021 0.176645,-1.835733 0.983849,-1.484656 0.187367,0.08148 0.212617,0.285011 0.129692,0.452453 -0.140847,0.284209 -0.422787,0.405501 -0.733533,0.368665 m -19.735767,-0.12259 c 1.85e-4,0.26962 -0.06993,0.613528 0.200975,0.820202 0.294626,0.224821 0.56823,-0.03673 0.779685,-0.207288 0.2136,0.231741 0.418557,0.766632 0.899939,0.62437 m 0.346711,-1.467739 c -0.05758,0.728056 -0.02062,1.453346 0.0723,1.307921 0.242653,-0.378716 0.235218,-1.011388 0.622087,-1.436993 0.25436,-0.279922 0.486224,-0.200982 0.561489,0.05317 -0.01644,0.862543 -0.53183,1.355989 0.371792,0.296155 0.827253,-1.211967 -0.08167,0.638135 0.557999,1.665124 m 12.135653,-2.206507 c 0.509944,0.435783 0.351935,1.330262 0.897182,1.807908 0.164014,0.143665 0.340473,0.03912 0.451776,-0.105548 0.296467,-0.385459 0.53967,-1.099259 0.551069,-1.518486 m -9.745299,-0.0613 c -0.04904,0.213781 -0.124177,0.611748 -0.241365,0.772885 -0.08899,0.122396 -0.184917,0.164748 -0.310562,0.237497 -0.141032,0.08169 -0.264411,0.166964 -0.397229,0.08762 -0.193251,-0.115413 -0.15237,-0.400225 -0.09279,-0.607638 m 6.619449,-0.183874 c -0.258956,0.380433 -0.372836,0.945479 -0.674205,1.470993 M 11.544817,12.173729 C 10.776467,12.328998 9.5630991,12.466642 9.2177111,13.094 9.0355539,13.461322 9.4232216,13.948728 9.7674325,14.0377 10.107476,14.12559 10.56532,13.865959 10.66014,13.521874 10.72896,13.272296 10.660445,12.991335 10.526586,12.78693 10.207163,12.31141 9.5088093,12.281599 9.2799215,11.860816 9.08232,11.471319 9.7006249,11.128577 10.012536,11.110741 c 0.39925,-0.02279 0.568415,0.21427 0.796786,0.327476 m 33.875217,0.599061 c -0.09966,0.38086 -0.237506,0.615786 -0.367745,1.287109 M 19.880419,12.357535 v 0.306457 m -4.041605,-0.25018 c 0.253562,-0.07493 0.560141,0.14072 0.619532,0.3173 0.07202,0.213968 -0.0098,0.446812 -0.258955,0.519259 -0.620267,0.180263 -0.822406,-0.700127 -0.360577,-0.836559 m 30.424514,-0.259217 c 0,0.26888 0.0119,0.555359 -0.122581,0.980662 M 27.361748,12.394959 c 0.122459,0.484441 0.475559,0.76761 0.98066,0.674205 m 13.66413,-0.404994 c 0,0.418925 0.05743,0.783541 -0.04817,1.164526 -0.114861,0.414699 -0.374613,0.772094 -0.748674,0.995063 -0.340839,0.20325 -0.640553,0.228371 -0.980596,0.04693 m 6.558156,-1.103242 c -0.0012,0.347956 -0.02089,0.567992 -0.122586,0.980663 m -29.235901,1.103244 c 0.184365,0.351317 0.184978,0.615671 0.184793,0.980662 -0.167356,1.224698 0.0056,2.830286 -0.368661,3.738701 M 18.954036,17.5675 c -0.21136,0.303747 -1.866955,0.361838 -1.375222,1.456955 0.07864,0.146423 0.177254,0.163895 0.340595,0.202511 0.204039,0.04818 0.573379,0.138639 0.796478,0.232908 0.472188,0.199493 0.638778,0.492162 0.98066,0.804384 m -7.783985,-4.290323 c 0,0.709928 -0.01128,1.290979 -0.0714,1.961313 -0.0193,0.214947 0.0079,0.462755 -0.07925,0.663788 -0.101125,0.233585 -0.177437,0.245843 -0.291806,0.440372 -0.07122,0.121054 -0.140358,0.241004 -0.214459,0.366833 -0.119396,0.202688 -0.191351,0.370256 -0.352425,0.543464 -0.485431,0.300047 -0.7868,-0.07722 -0.743948,-0.484982 0.155618,-0.558678 0.564798,-0.550769 0.832396,-0.298497 0.110998,0.104633 0.186815,0.185227 0.246696,0.239963 M 9.5184058,19.75755 C 9.2937121,19.452258 9.4022598,18.87998 9.3995627,18.486862 9.3984112,18.328608 9.4126809,17.962326 9.1509044,18.000204 8.9146266,18.034439 8.7530627,18.305069 8.6006932,18.548153 8.2642488,18.991847 8.2026522,19.43372 8.0317275,19.993152 7.909972,20.141091 8.3758046,18.785729 8.3372337,18.524297 M 7.3296979,20.34628 C 7.1982871,20.258867 7.001114,19.713947 6.8830673,19.592769 6.7238325,19.429186 6.612405,19.356126 6.4576449,19.299861 c -0.1527997,-0.05557 -0.431613,-0.07826 -0.6064765,0.03642 -0.3489311,0.228796 -0.39637,0.871928 0.1170665,0.815965 0.5556047,-0.06056 0.6905674,-0.396979 0.8571571,-0.562163 m 25.374555,-1.103247 c -0.105543,-0.06077 -0.329622,-0.178109 -0.551621,-0.241117 -0.209492,-0.05942 -0.276666,-0.07077 -0.55162,-0.06317 -0.183323,0.0052 -0.427812,0.08699 -0.54966,-0.05214 -0.119824,-0.136798 -0.02024,-0.376448 -0.0074,-0.563017 0.03633,-0.532132 -0.03654,-0.876405 0.06674,-1.225827 M 2.9640723,20.141633 c 0.6053734,0.178973 1.2623545,-0.09865 1.7134569,-0.508781 0.21691,-0.197235 0.3980255,-0.488915 0.2460843,-0.775029 -0.4122443,-0.77637 -2.0691789,-0.858682 -2.1953403,-1.780748 -0.051676,-0.377675 0.1668405,-0.60335 0.4809646,-0.660229 0.7878365,-0.1425 0.747507,0.387176 0.7354942,0.966686 m 27.764896,-0.858065 c 0,0.219848 -0.0012,0.39085 4.3e-5,0.612904 0.0025,0.541018 -0.06141,0.719196 -0.06135,1.107351 m -4.167812,-1.291226 c -0.247206,-0.727855 1.326228,0.05839 1.481302,0.30756 0.115225,0.202023 0.06846,0.45546 -0.0081,0.673102 -0.220954,0.627742 -0.866229,1.456955 -1.593265,1.339336 -0.35788,-0.05796 -0.572767,-0.590291 -0.597038,-0.910296 -0.01809,-0.239526 0.01814,-0.440008 0.07251,-0.67304 0.177561,-0.761178 1.231096,0.156787 1.441447,0.366582 m 7.783982,-1.164524 c -0.05878,0.198878 -0.03365,0.37933 -0.07809,0.612902 -0.05914,0.311244 -0.332935,0.643008 -0.191351,0.971588 0.134535,0.312347 0.606171,0.173031 0.882347,0.119586 0.203059,-0.03934 0.327418,-0.01894 0.453373,-0.147287 0.09678,-0.09854 0.09188,-0.223094 0.09715,-0.331036 0.01099,-0.22763 0.0334,-0.66102 0.184978,-0.858016 m 6.558155,-0.0613 c 0.346287,-0.130656 0.86335,-0.285983 1.273062,-0.271457 0.409076,0.03671 0.358409,0.09428 0.138791,0.327867 -0.677783,0.811775 -1.836093,3.075505 -0.247317,2.333954 m 1.532278,-2.329072 c 0.581834,-0.103332 1.427042,-0.46955 2.018991,0.01946 0.350711,0.289672 0.265084,0.733416 0.05915,1.083817 -0.371057,0.631426 -1.07204,1.28099 -1.832974,1.381814 -0.257851,0.03413 -0.473166,-0.04454 -0.65404,-0.2304 -0.247491,-0.254416 -0.268939,-0.514108 -0.220582,-0.844957 0.02464,-0.168858 0.04554,-0.340287 0.13968,-0.479602 0.26245,-0.38828 0.586497,-0.198401 1.041399,-0.194603 m -7.109779,-0.919371 c -0.538579,0.387929 -0.485425,0.866156 -0.551624,1.470993 l 0.551621,-0.06129 m -1.532277,-1.164523 c -0.163644,0.32423 -0.398944,0.815049 -0.268577,1.160914 0.09219,0.244552 0.362232,0.254292 0.575035,0.246331 0.275627,-0.01041 0.427874,-0.04485 0.674202,-0.181429 m 1.96131,0.0613 c 0.299653,-0.04287 0.402931,-0.157766 0.674204,-0.250369 0.462321,-0.157828 0.963928,-0.178609 1.348407,-0.178671 M 29.995426,18.43686 c 0.161775,-0.209837 0.307496,-0.2504 0.55162,-0.306439 m 0,3e-6 c -0.0012,0.394472 -0.0613,0.966198 -0.0613,1.532285 m 1.162575,-1.416987 c -0.0066,0.322576 -0.08661,0.88094 -0.245166,1.34841 m 5.785717,0.572031 c -0.08347,-0.660354 -0.0613,-1.407922 -0.0613,-1.716158 0.128282,0.02279 0.216175,0.07294 0.55162,0 m 3.837011,0.15939 c 0.241428,0.242169 0.907407,0.45903 0.843358,0.919393 -0.909425,1.074749 -1.733287,0.03773 -0.843353,-0.919425 -0.214702,-0.142313 -0.706502,-0.170939 -0.774598,-0.496761 -0.06269,-0.299714 0.228435,-0.583132 0.411816,-0.77197 0.346971,-0.357259 0.635897,-0.497678 1.098279,-0.324844 m -28.316543,2.145246 c -0.03162,0.130981 -0.02519,0.378591 -0.159541,0.522631 -0.160583,0.17223 -0.496827,0.130003 -0.671936,-0.05172 -0.434493,-0.450799 -0.0048,-0.94064 0.279856,-0.899943 M 11.7619,18.599036 c 0.11149,0.208703 0.125893,0.425918 0.219791,0.980662 0.07557,0.446325 0.168735,0.858808 0.638287,0.612914 m 2.173261,0.194262 c 0.231558,0.127358 0.408813,0.211762 0.674203,0.146485 0.215438,-0.05286 0.417026,-0.122156 0.611747,-0.207288 0.143973,-0.06306 0.310746,-0.179826 0.235541,-0.351692 -0.236828,-0.54108 -1.225455,-0.240929 -1.33394,-0.993586 -0.06583,-0.456865 0.709568,-0.08741 0.854399,0.05765 m 4.167802,3.61618 c -0.208452,-0.71202 0.576076,-1.769354 1.041766,-2.331455 0.160951,-0.194301 0.27391,-0.344521 0.401028,-0.549229 0.132512,-0.213354 0.244368,-0.42291 0.41439,-0.607398 0.191168,-0.207475 0.399313,-0.336062 0.655754,-0.434555 m 17.038964,-0.183877 c 0.0066,0.306821 0.01611,0.891358 0.306456,1.409702 m -15.445378,-0.49033 c 0.144158,0.544993 0.306947,1.240468 -0.06092,1.83873 -0.233458,0.379705 -0.532805,0.749346 -0.919736,0.955281 -0.665009,0.354086 -0.543776,-0.226528 -0.367746,-0.46495 M 20.493145,19.21992 c 0.13717,0.473109 0.311788,0.811367 0.551621,1.103244 M 13.77563,19.683665 c 0.127301,0.422047 0.287333,1.012348 0.858076,1.103234 m 3.714434,4.319367 c 0,-0.630562 -0.148386,-0.655256 0.03696,-1.164526 0.112102,-0.308236 0.290397,-0.411391 0.48371,-0.671759 0.459745,-0.619034 0.910604,-0.179889 1.027425,0.365302 0.141398,0.659491 -0.73525,1.227784 -1.240473,1.445915 -0.459623,0.198463 -0.357573,1.129176 -0.368912,1.679935 M 34.651604,26.63855 c -0.347585,0.04818 -1.237595,0.1702 -1.444637,-0.551685 -0.123805,-0.431485 -0.06246,-0.979985 -0.0157,-1.40964 0.01495,-0.137774 0.05179,-0.297871 0.110019,-0.429028 0.07858,-0.177017 0.112037,-0.219859 0.23597,-0.36113 0.213171,-0.24296 0.31136,-0.315406 0.685296,-0.190493 M 22.515937,23.94174 c 0,0.299953 0.01857,0.434065 -0.01747,0.735485 -0.09334,0.780306 -0.225307,1.644389 -0.166406,2.390364 m 15.56796,-1.16466 c 0.270845,-0.45031 0.451839,-0.934075 0.732737,-1.348099 0.09169,-0.135143 0.230819,-0.337227 0.428238,-0.311607 0.363401,0.04724 0.244982,0.738067 0.24903,0.985501 -0.141133,1.26081 0.307599,0.553551 0.570868,0.119335 0.146605,-0.25478 0.390855,-0.917705 0.588209,-1.143817 0.224142,-0.256748 0.439826,-0.09428 0.558671,0.227881 0.21262,0.576201 0.105728,1.203943 0.488427,1.716095 M 22.88368,27.31263 c 0.415432,-0.05255 0.985685,-0.157089 1.409697,-0.341764 0.183752,-0.08002 0.51215,-0.168859 0.566821,-0.400164 0.04971,-0.209992 -0.173025,-0.397904 -0.321963,-0.506085 -0.299161,-0.217277 -0.784098,-0.231617 -0.993469,-0.548126 -0.131285,-0.198526 0.0037,-0.42162 0.164384,-0.567679 0.189941,-0.172657 0.402314,-0.189577 0.645519,-0.149129 m 11.707785,0.05286 c 0.181786,-0.02976 0.578892,0.09834 0.734326,0.1571 0.24069,0.09095 0.533479,0.185955 0.533479,0.465013 0,0.28886 -0.507981,0.604203 -0.778642,0.685725 -0.776807,0.233947 -0.980598,-0.397104 -0.824675,-0.931318 0.05694,-0.195091 0.09236,-0.336738 0.335512,-0.37652 m -10.420669,0.131043 c 0.544939,0.01269 1.508446,-8.06e-4 1.716152,0.490331 0.161537,0.381966 -0.633996,0.728566 -1.039254,1.199833 -0.11921,0.138587 -0.281939,0.316447 -0.178418,0.479363 0.07821,0.123072 0.280347,0.100418 0.420887,0.08782 0.363457,-0.03278 0.737762,-0.147588 1.103243,-0.157516 0.289845,-0.0073 0.484936,0.04526 0.796786,0.04537 M 20.064291,25.6578 c -0.08893,0.210847 -0.25448,0.950204 0.247617,0.840857 0.398761,-0.08679 0.607518,-0.244427 0.671751,-0.656983 m 10.664668,0.122583 c -0.100949,0.179951 -0.170327,0.294073 -0.55162,0.306457 m -10.239715,-0.09398 0.674204,0.980662 m -7.779898,-0.580225 c 0.580518,0.231138 0.276391,1.652354 -0.490269,1.958062 -0.390609,0.134353 -0.421315,-0.275197 -0.734023,-0.273543 -0.249027,0.0011 -0.37406,0.462568 -0.736781,0.3588 -0.310931,-0.08897 -0.419601,-0.412369 -0.428365,-0.694914 0.0079,-0.365177 0.04194,-0.75106 0.08896,-0.947955 M 4.3737367,26.577183 c 0.7965677,0.671085 -0.4272282,2.5012 -1.07933,1.941815 C 3.0755226,28.311221 3.0757131,27.995326 2.7792294,28.034807 2.4116841,28.083816 2.0271614,28.7269 1.5806917,28.273843 1.1401619,27.82678 1.4228243,26.813516 1.738223,26.761049 m 7.1097785,0.367757 C 8.9389605,26.85569 9.4535584,26.894857 9.6655023,27.379423 9.791273,27.667004 9.6354747,27.987551 9.462262,28.2318 9.2428387,28.541139 8.9533605,28.709072 8.6028359,28.822893 8.1969044,28.954727 7.7895035,29.001928 7.3779322,28.761181 6.9335094,28.501172 7.0071818,28.241002 7.0705575,27.741722 m -0.036777,0.604741 c -0.3082947,0.09084 -0.7744738,0.128725 -1.04011,-0.18386 C 5.743847,27.868592 5.7100151,27.173054 5.9673123,27.006225 m 10.3582127,0.306457 -0.306457,0.367748 m -3.492062,0.336103 v 0.245161 m 158.252334,10.38986 c 0.0166,0.391099 0.0674,0.758473 0.13912,1.225817 0.0956,0.615671 0.22801,1.25819 0.36714,1.83874 0.10603,0.443255 0.14341,0.898351 0.22923,1.348411 0.0417,0.217642 0.0588,0.531695 0.0876,0.735434 0.0172,0.127296 0.008,0.2763 0.0974,0.383618 0.0791,0.09521 0.22064,0.09646 0.30523,0.106702 0.27581,0.0332 0.61965,0.127433 0.91937,0.183937 m -72.62998,-5.332329 c 0.63741,0.487262 0.95982,1.174027 1.37659,1.838731 0.41004,0.652321 0.96779,1.236858 1.37415,1.900033 0.34936,0.569146 0.52772,1.363401 1.01253,1.775395 m 1.38518,-4.839964 c -0.20104,0.149244 -0.32607,0.310505 -0.44192,0.551623 -0.1906,0.395084 -0.33957,0.958715 -0.42107,1.409701 -0.0491,0.271274 -0.11031,0.537033 -0.1716,0.796788 -0.2217,1.074836 -0.34788,2.042124 -0.48936,3.003354 -0.0331,0.227757 -0.0809,0.36524 -0.12135,0.612914 -0.20349,1.242862 -0.46398,2.509137 -0.56082,3.738763 m 7.41587,-10.542183 c 0.0325,0.174135 0.0558,0.327363 0.0613,0.551633 0.006,0.293335 0.0895,0.688597 0.13054,0.980652 0.038,0.273116 0.0846,0.563204 0.11768,0.858079 0.0374,0.332077 0.0931,0.646744 0.13668,0.980662 0.076,0.582882 0.13852,1.13002 0.16427,1.716148 0.0129,0.292669 -0.0166,0.48518 0.0129,0.796788 0.0257,0.27348 0.057,0.456501 0.0502,0.735496 -0.0147,0.5982 -0.0876,1.506592 -0.18327,2.022605 m 1.22583,1.409702 c -0.0919,-0.309954 -0.0969,-0.496034 -0.0864,-0.796788 0.007,-0.200846 0.0245,-0.342244 0.0252,-0.551623 5.4e-4,-0.25913 -0.0105,-0.436084 0.0178,-0.674205 0.0263,-0.226591 0.0435,-0.428664 0.0435,-0.674194 v -1.103246 c 0,-0.358621 8.9e-4,-0.601082 0,-0.919369 -8.8e-4,-0.225187 -0.0288,-0.381475 -0.0509,-0.612915 -0.0337,-0.351743 -0.006,-0.611071 -0.0104,-0.91936 -0.002,-0.160523 -0.0142,-0.268953 -0.0356,-0.429039 0.006,-1.060841 -0.4083,-3.543173 0.34209,-3.125849 m 12.93244,8.948508 c -0.10664,0.579209 0.94327,0.978643 1.47099,0.964782 0.89179,-0.02352 2.38177,-0.353762 2.74523,-1.271301 0.25926,-0.655818 -0.068,-1.365621 -0.4131,-1.89996 -0.20165,-0.311972 -0.42475,-0.591956 -0.67971,-0.858079 -0.88015,-0.91912 -2.18994,-1.526707 -2.47862,-2.880684 -0.15997,-0.748795 0.30155,-1.621463 0.94878,-1.973582 0.47746,-0.259567 0.88995,-0.145621 1.28713,0.134841 m 28.13265,-0.306457 c 0.0956,0.409362 -0.0136,0.482058 -0.087,1.041954 -0.0301,0.22862 -0.0399,0.386874 -0.035,0.612914 0.007,0.291128 0.0539,0.564921 0.0613,0.858079 0.009,0.375895 0.0785,0.516553 0.11154,0.858078 0.0374,0.38392 -0.0159,0.836497 0.0208,1.225817 0.0454,0.476658 0.0184,0.960808 0.0613,1.409692 0.0239,0.250691 0.0496,0.362971 0.0508,0.612923 0.002,0.511039 -0.0111,1.128251 -0.0178,1.654857 -0.006,0.441787 0.084,0.869537 0.0178,1.287119 M 142.95318,40.73545 c 0.0558,0.641603 0.40637,1.718052 0.4934,2.451654 0.0827,0.697119 0.1808,1.31892 0.1808,2.022605 0,0.657108 0.0613,1.205911 0.0613,1.838741 v 0.858069 c 0,0.342379 -0.0251,0.769025 0.0269,1.103245 0.076,0.488978 0.12871,0.772948 0.34078,1.225827 m 3.22801,-8.531743 c 1.12346,0.399497 2.5393,0.122583 3.73876,0.122583 0.52466,0 1.24483,-0.07482 1.65486,0.122582 m 20.73685,-0.478066 c 0.28128,0.403561 0.3226,0.886751 0.49033,1.34841 m -24.63906,-0.429036 c 0.65459,1.304216 0.68218,2.948292 0.81333,4.351677 0.0178,0.190368 0.008,0.316259 -0.006,0.490331 -0.0214,0.253678 -0.005,0.53697 -0.0111,0.796777 -0.006,0.233771 -0.0405,0.433951 -0.0882,0.674205 -0.068,0.342129 0.008,0.444493 -0.14956,0.637493 -0.0655,0.08085 -0.27396,0.116454 -0.37449,0.138514 -0.42597,0.09345 -0.7551,0.125403 -1.16452,0.0821 m -9.50015,-5.883951 c -0.17835,0.335562 -0.087,0.581717 0.0208,0.919371 0.1091,0.338445 0.26172,0.61334 0.4695,0.858079 m 39.34894,0.306447 c 0.17535,-0.313439 0.34998,-1.076148 0.21698,-1.467372 -0.16672,-0.491611 -0.67483,-0.0513 -0.95225,0.517387 -0.44904,1.046575 -0.31297,2.042679 0.61313,2.25671 0.48313,0.0571 1.06539,-0.02868 1.40971,-0.08085 m -9.60233,-2.928021 c 0.3463,0 0.66562,0.0083 1.04195,0.0512 0.10665,0.01218 0.2513,0.0083 0.34814,0.07316 0.12748,0.08502 0.12871,0.192573 0.13852,0.305041 0.0227,0.257976 0.004,1.081122 0.004,1.4094 v 0.796778 c 0,0.587907 -0.004,1.279521 -0.24516,1.838741 m 5.49506,-3.814067 c -0.36959,0.735007 -0.66502,1.478838 -1.0775,2.206489 -0.12994,0.230326 -0.31627,0.696516 -0.63559,0.696516 -0.1802,0 -0.25252,-0.17248 -0.28929,-0.32908 -0.15017,-0.641593 -0.23598,-1.212591 -0.2654,-1.89972 m -13.97439,3.861341 c 0.0986,-0.508291 0.23537,-0.760076 0.33649,-1.225828 0.0827,-0.379694 0.20655,-0.925676 0.38736,-1.287107 0.44252,-0.884802 1.18537,-1.008551 1.85038,-0.674205 m -4.49112,1.441093 c 0.22749,-0.0331 0.37297,-0.09161 0.62977,-0.244809 0.18939,-0.11278 0.33465,-0.241368 0.47992,-0.400423 0.14586,-0.16045 0.38552,-0.423025 0.25251,-0.663966 -0.10603,-0.193154 -0.30706,-0.165686 -0.48726,-0.131344 -0.14404,0.02745 -0.23658,0.04285 -0.36224,0.117983 -0.1759,0.105423 -0.37386,0.317435 -0.50809,0.499832 -0.44325,0.640232 -0.40266,1.455831 -0.088,2.017224 0.33711,0.587409 0.96412,0.756028 1.44831,0.612914 M 105.9336,47.444518 c 0.19185,0.0048 0.34323,-0.0281 0.55162,-0.06588 0.43885,-0.07974 1.3674,-0.330234 1.40602,-0.880816 0.038,-0.532985 -0.7263,-0.351994 -0.97698,-0.258339 -0.66261,0.333863 -1.32783,1.003018 -1.44525,1.309652 -0.24921,0.650827 -0.0306,1.24078 0.52588,1.532773 0.64295,0.337102 1.25769,0.193739 1.83874,0.05057 m 62.14927,-0.245166 c -0.45294,0.184853 -1.09711,0.488302 -1.59357,0.273782 -0.61782,-0.266737 -0.72874,-0.832512 -0.66378,-1.438318 0.0386,-0.358237 0.31197,-1.22539 0.5602,-1.434269 0.15997,-0.13429 0.31442,-0.118046 0.53262,-0.159296 m -13.2288,-0.0026 c 0.35736,0.269165 0.65767,0.383838 1.10323,0.370149 l 0.42904,0.06608 0.67421,0.176704 m -43.83362,-0.120012 c 0.36776,-0.192699 1.11183,-0.32987 1.58438,0.04298 0.81334,0.641717 -0.5363,1.932395 -1.15533,2.081326 -0.77656,0.186704 -1.04993,-0.885041 -0.72447,-1.441316 0.13607,-0.233094 0.43026,-0.275696 0.66318,-0.31528 m 52.77171,2.022604 c -0.37081,-0.545181 -0.52587,-0.846247 -0.85807,-1.225827 -0.0974,0.108243 -0.17652,0.199014 -0.29604,0.367997 -0.19552,0.277466 -0.97085,1.115868 -1.44218,0.698285 -0.37633,-0.333116 -0.17652,-1.062536 0.007,-1.434031 0.0889,-0.17915 0.16181,-0.321587 0.28991,-0.479842 0.23597,-0.292356 0.42904,-0.50774 0.82805,-0.439518 m -34.07791,0 c 0.86971,0 1.79767,-0.02622 2.37073,0.735559 0.66073,0.877684 -0.78635,2.038536 -1.57395,2.133845 -0.81824,0.09896 -1.51389,-0.525503 -1.24176,-1.337129 0.0577,-0.172356 0.13546,-0.332254 0.27459,-0.451226 0.43945,-0.374367 1.2197,-0.143364 1.76396,-0.100418 m -15.81307,-0.91936 c -0.18388,0.620208 -0.26968,1.505988 0.15384,2.082981 0.22616,0.30835 0.59759,0.50467 0.94879,0.271273 1.00658,-1.074103 0.32462,-0.898855 0.91712,-0.0288 0.17774,0.238172 0.67849,0.330109 0.9782,0.124227 0.53876,-0.370745 0.72875,-1.65596 0.1281,-1.836765 m 53.19239,-1.887761 c -0.15324,0.420393 -0.58267,2.062365 -0.17569,2.316792 m -35.48761,2.206483 c -0.61108,-0.119336 -1.73148,0.10867 -2.33275,-0.679897 -0.42229,-0.553954 -0.006,-1.263581 0.25987,-1.770592 0.1183,-0.2245 0.22495,-0.303024 0.4793,-0.246321 m 16.36475,2.206478 c 0.0454,-0.199805 0.1471,-0.757921 0.24149,-0.913907 0.31901,-0.297229 0.43376,-0.671379 0.6981,-0.984949 0.133,-0.154768 0.30463,-0.323564 0.52895,-0.284521 0.25129,0.04381 0.36039,0.37008 0.43456,0.589813 0.19919,0.592434 0.13422,1.499984 0.36467,1.900022 m 11.15521,-2.390359 0.0613,0.551623 m -24.51648,0.122583 c -0.006,0.311431 -0.0117,0.628668 -0.21022,0.827557 -0.12566,0.125404 -0.31015,0.18914 -0.46399,0.278933 -0.38981,0.22758 -1.14921,0.455212 -1.21908,-0.248661 -0.0422,-0.425294 0.16488,-0.969132 0.49034,-1.126773 0.23045,-0.111666 0.52219,-0.03912 0.72874,-0.03746 m 11.73523,-0.06946 0.21268,0.871651 m -13.8602,-0.924754 -0.47806,1.470971 m 2.85434,-0.214447 c 0.19061,0.297018 0.39164,0.714705 0.76184,0.888641 m 7.54544,-0.282019 h 2.02262 m -37.4151,8.862551 c -0.13484,0.213781 -0.33527,0.383003 -0.53078,0.546961 -0.48175,0.404096 -1.0346,0.761178 -1.65487,0.937206 -0.44743,0.126807 -0.83357,0.03934 -0.99659,-0.380922 -0.15568,-0.402255 0.0227,-1.089884 0.0147,-1.532034 -0.004,-0.210722 -0.0416,-0.607836 -0.0166,-0.85808 0.0331,-0.336374 0.11278,-0.346728 0.1661,-0.735496 0.0803,-0.579386 0.0552,-1.234402 0.12258,-1.77745 0.0202,-0.15942 0.0208,-0.273053 0.0269,-0.429039 0.006,-0.174249 0.0422,-0.31933 0.0864,-0.490332 0.10354,-0.404575 0.25681,-0.745902 0.45539,-1.103234 0.11952,-0.216601 0.19981,-0.425054 0.44864,-0.549666 0.43212,-0.216725 0.8017,0.268215 0.96044,0.610957 0.1042,0.22426 0.18572,0.415793 0.20043,0.674205 0.0276,0.49259 0.038,1.081476 -0.17101,1.532275 -0.0962,0.207474 -0.47745,0.722811 -0.36468,0.962149 0.13669,0.29089 0.93347,0.531393 1.19457,0.813083 0.49402,0.56333 0.45611,1.141046 0.0583,1.779417 z m -12.17361,-1.462593 c 0.437,-7.91e-4 1.03765,0.188588 1.5856,-0.378352 0.17895,-0.185591 0.31261,-0.373263 0.40022,-0.610458 0.0889,-0.239401 0.11395,-0.487938 0.14894,-0.735497 0.0785,-0.558303 0.0135,-1.16336 -0.2801,-1.654856 -0.3089,-0.518282 -1.11182,-1.795837 -1.84425,-1.08927 -0.21513,0.207902 -0.33039,0.572882 -0.40329,0.844104 -0.0607,0.225311 -0.12381,0.325147 -0.14587,0.551612 -0.019,0.19222 0.0341,0.347592 0.0435,0.551623 0.0116,0.25271 0.0135,0.424752 0.0282,0.674204 0.0898,1.374875 0.25993,2.629793 0.15827,3.983244 m 26.04865,-5.883234 c 0.16186,0.898965 -0.0588,1.726014 -0.13284,2.51252 -0.0791,0.832585 -0.19123,1.858658 0.0717,2.635529 m 6.37418,0.122989 c -0.10848,-0.455752 -8.8e-4,-1.126222 0,-1.716148 5.6e-4,-0.255218 -0.0123,-0.429894 0.0178,-0.674205 0.0522,-0.428426 0.14587,-1.004014 0.16364,-1.409692 0.0208,-0.471339 -0.0263,-0.933282 0.30891,-1.041952 m -16.54862,0.612902 c 0.21452,0.560083 0.38307,1.20076 0.73549,1.593576 0.17835,-0.195143 0.36407,-0.443504 0.56143,-0.735496 0.39042,-0.57565 0.86175,-1.483553 1.58376,-1.287109 m 8.02923,4.780725 c 0.18388,0.148255 0.37388,0.258954 0.61292,0.299714 0.29173,0.04975 0.63006,0.03975 0.91937,-0.08324 0.1949,-0.08273 0.37571,-0.168182 0.55161,-0.284386 0.43272,-0.285811 0.81824,-1.068864 0.60678,-1.586895 -0.28744,-0.702332 -1.37169,-0.984398 -2.01648,-0.901722 -0.29787,0.03829 -0.7024,0.242845 -0.84949,0.0062 -0.0686,-0.109825 0.038,-0.296155 0.0889,-0.392077 0.13484,-0.250369 0.31565,-0.553141 0.47502,-0.796777 0.54426,-0.831107 1.72962,-0.897435 2.67596,-0.855696 0.3414,0.01508 0.56817,0.101146 0.91937,0.181491 m -26.47796,0.796829 c 0.34813,-0.01488 0.86052,0.178609 1.05788,0.67537 0.0962,0.243699 0.0508,0.50541 0.004,0.734331 -0.0411,0.205997 -0.0815,0.408571 -0.15873,0.612914 -0.12137,0.317852 -0.29176,0.558115 -0.53569,0.794332 -0.26907,0.260056 -0.64111,0.571289 -1.04196,0.524224 -1.2197,-0.143177 -0.99475,-2.332184 -0.67298,-3.095995 0.40815,-0.91479 1.1619,-0.350438 1.65364,0.183874 m 8.64208,-0.0613 c -1.04689,0.87312 -0.86228,2.008852 -0.47702,3.003592 0.12197,0.311181 0.43701,0.821429 0.84459,0.849005 0.40331,0.02726 0.7827,-0.176642 1.10324,-0.382327 0.14833,-0.09542 0.2942,-0.156725 0.40944,-0.301129 0.17529,-0.220461 0.30644,-0.462443 0.4321,-0.717161 0.12809,-0.259818 0.28684,-0.573871 0.3132,-0.858079 0.0208,-0.22911 -0.0417,-0.385283 -0.12871,-0.612914 -0.0779,-0.204103 -0.18328,-0.32601 -0.35305,-0.478988 -0.36407,-0.328955 -1.33676,-0.99905 -1.89083,-0.849619 -0.29236,0.07888 -0.22617,0.319994 -0.0594,0.470528 0.35549,0.320796 0.56633,0.787537 0.97085,1.103244 m 2.20663,-0.736181 0.35855,0.551861 0.6025,0.919121 0.8164,1.103245 m -1.77745,-2.574227 c -0.26417,0.321961 -0.3371,0.622591 -0.61292,0.858068 m 11.27797,5.94529 c -0.133,0.333419 -0.25558,0.696265 -0.3273,1.041953 -0.0864,0.418613 -0.18448,0.821294 -0.32914,1.225817 -0.0779,0.215748 -0.12564,0.402078 -0.20531,0.612914 -0.17285,0.454784 -0.33343,0.896082 -0.51424,1.34841 -0.20655,0.516075 -0.71588,1.255245 -0.52404,1.654856 m 7.60011,-5.577493 0.0613,1.654856 -0.005,0.551622 -0.10177,0.674205 -0.20042,1.287119 -0.06,0.612914 m 1.96127,-4.412968 c 0.19439,0.704576 -0.27947,0.820002 -0.45405,1.3484 -0.10418,0.327299 -0.24577,0.649074 -0.27641,0.980661 -0.0147,0.165487 -0.0589,0.425367 0.13422,0.514234 0.16672,0.07658 0.45896,-0.05818 0.61893,-0.106027 0.56143,-0.168557 0.7067,-0.244551 1.22583,-0.285624 m -10.9329,-2.145198 c 0.28194,0.167329 0.41678,0.262336 0.67421,0.459686 0.47991,0.367748 0.60066,0.475013 0.98066,0.827433 m 9.80659,4.658134 c -0.68279,-0.641718 -0.45356,-2.240195 -0.49279,-3.12585 -0.0117,-0.259265 -0.0962,-0.422297 -0.0361,-0.674205 0.0674,-0.282554 0.0993,-0.378779 0.10052,-0.612914 0.002,-0.307684 0.0411,-0.625161 0.0785,-0.91936 0.0539,-0.42598 0.22432,-0.601883 0.53385,-0.551622 m -21.03923,4.95641 c -0.418,-0.158129 -0.74407,-0.457229 -1.10323,-0.734268 -1.24879,-1.179732 0.41023,-1.582794 1.2867,-2.391585 m -1.6993,-1.646683 c -0.61439,0.595848 -0.22638,1.577017 -0.12697,2.267771 0.0276,0.271523 0.0636,0.384907 0.068,0.674205 0.10372,0.774582 0.006,1.543848 0.0755,2.145216 0.0263,0.224947 0.0429,0.373274 0.0435,0.612924 m 29.54354,-5.39367 c 0.58778,-0.002 1.4103,-0.467032 2.14395,-0.277028 0.47624,0.12381 0.2795,0.630073 0.0821,0.889943 -0.11584,0.152 -0.23535,0.272137 -0.38674,0.411265 -1.51651,1.398614 0.60582,0.250472 1.17198,1.062179 0.35243,0.562038 0.0159,1.537789 -0.32546,2.020159 -0.37999,0.536908 -0.85378,1.113047 -1.58315,1.041943 m -7.5383,-1.103243 c 0.48543,0.68279 1.22215,0.614131 1.96133,0.279485 0.17958,-0.08148 0.32117,-0.172845 0.47255,-0.302774 0.22922,-0.195518 0.38858,-0.382462 0.40943,-0.712207 0.0477,-0.762459 -0.8017,-1.377214 -1.43361,-1.626667 -0.36346,-0.143416 -0.6313,-0.02081 -0.8973,-0.213906 -0.18449,-0.133613 -0.0178,-0.417396 0.0925,-0.611071 0.28685,-0.50259 0.55713,-0.894855 0.92733,-0.796788 m 0.18796,0.257429 c 0.8643,-0.252704 1.66106,-0.549497 2.63553,-0.306457 m 0.91527,0.294193 c 0.0435,0.554682 0.0882,1.420733 0.0178,2.022606 -0.0356,0.296644 -0.0147,0.46827 -0.0178,0.735496 -0.002,0.196132 -0.0318,0.349361 -0.0508,0.551622 -0.0227,0.235967 -0.007,0.387967 -0.0361,0.612904 -0.0325,0.251294 -0.0233,0.473785 -0.0356,0.735496 m -43.45545,0.858079 c 0.0294,-0.376323 0.0944,-0.794332 0.13974,-1.164525 0.0208,-0.167943 0.0417,-0.315043 0.0441,-0.490342 0.004,-0.312585 5.6e-4,-0.739783 0,-1.041943 -5.5e-4,-0.127484 -0.0178,-0.289911 0.009,-0.42904 0.057,-0.286841 0.15016,-0.292356 0.25252,-0.612913 0.12564,-0.395938 0.41371,-1.576406 1.01683,-1.401117 0.43332,0.126256 0.69074,1.146149 0.80229,1.5237 0.1042,0.349361 0.21819,0.643559 0.24579,0.980662 0.0269,0.328517 0.12257,0.657035 0.12441,0.980651 0.002,0.537533 0,1.027854 0,1.470993 m 34.34613,-4.045208 0.73549,-0.122583 m -37.76863,-0.0613 c 0.004,0.536305 0.0601,0.952462 0.24517,1.287119 m 21.8303,-1.131839 c 0.58497,7.226563 -0.19573,-5.57199 0.47027,-0.768182 -0.006,0.553034 0.22466,0.982555 0.45047,1.470993 0.35702,1.999665 0.76973,1.879927 1.08179,0 l 0.12259,-1.287119 v -0.735485 -1.34841 m -11.27797,6.864608 c 0,-0.456616 -0.0564,-1.000891 0.098,-1.470983 0.0852,-0.261107 0.14771,-0.345073 0.24455,-0.551622 0.0662,-0.14097 0.14833,-0.337716 0.33403,-0.368362 0.25008,-0.04048 0.57492,0.178359 0.79434,0.30707 m -10.45343,0.980382 c 0.18663,-0.03386 0.45012,-0.03169 0.58501,-0.08121 0.32485,-0.118898 1.02295,-0.583495 0.83295,-0.940817 -0.0632,-0.118304 -0.18633,-0.129332 -0.34262,-0.151397 -0.23658,-0.03309 -0.38797,-0.08159 -0.61291,0.01467 -0.38491,0.164269 -0.66808,0.486043 -0.72875,0.904053 -0.0372,0.24878 -0.0352,0.440211 0.0637,0.684053 0.15507,0.411266 0.6975,0.737942 1.15534,0.712198 0.41126,-0.02331 0.7453,-0.206549 1.04196,-0.221867 m 13.8518,-2.145198 c -0.29838,0.392266 -0.0968,0.73783 -0.0258,1.164536 0.1097,0.700553 0.24454,1.710019 -0.15814,2.26777 m -7.78397,-2.941974 c -0.0552,0.297871 -0.0558,0.67359 -0.2127,0.901586 -0.098,0.142812 -0.21512,0.258651 -0.34445,0.375105 -0.20777,0.186944 -0.50197,0.330973 -0.78881,0.218818 -0.27275,-0.107265 -0.30523,-0.377562 -0.30891,-0.637441 -0.005,-0.365906 -0.006,-0.634974 0.11216,-0.918133 0.0392,-0.09376 0.10971,-0.277653 0.26355,-0.296653 0.31565,-0.03923 0.55837,0.417395 0.66624,0.540591 m -2.69681,-0.306456 c 0.17713,0.0821 0.31135,0.128711 0.36836,0.368976 0.0509,0.215737 0.0221,0.56694 -0.076,0.795549 -0.0815,0.190627 -0.20839,0.349985 -0.41555,0.409434 -0.36591,0.104196 -0.4413,-0.210846 -0.72447,-0.136068 -0.25864,0.06805 -0.45355,0.471329 -0.80597,0.241481 -0.23535,-0.153832 -0.29297,-0.392868 -0.31197,-0.63742 -0.0166,-0.207776 -0.0337,-0.291752 -0.11831,-0.49033 m 1.11367,0.0282 c 0.18325,0.343835 0.12258,0.528324 0.12258,0.858069 m 3.94469,-0.413722 c 0.16855,0.217589 0.23966,0.492787 0.61292,0.551623"
       id="path51429"
       sodipodi:nodetypes="ccccccccccccccccccccccccccccccccccccccccccccccscsccsccscccccscccccccccccccccccccccccccccccccccccccccccccccccccccccsccsccccccccccccccccccscccccccccccccccccccccccccccccccccccccccccccccccccccccsccccccccccccccccccccccccccccccccccccccccccccccccccccccccccccccccccccccccccccccccccsccscccccccccccccccccccccccscccccccccccccccccccscccscccccccccccccccccccccccccccccccccccccccccccccccccccccsccccccscccccccccccccccsssccscsccccccccccccccccccccccccccccccccccccccccccccccccscccccccccscccccccssccccccccccccccsccccccccccssscccsccccscccccccccccccccsccsscccsccccccccccsccccccccscccccccccccccccccccccccccccccccccccccccccccccccccccccccccccccccccccccccccccccccccccccccccccccccccccccccccccccccccscccccccccccsccccccccccccccccccccccccccccccccccccccccccccccccccccccccccccccccccccccccccccccccccccccccccccccccccccccccccccccccccccccccccccccccccccc" />
  </g>
</svg>
