<?xml version="1.0" encoding="UTF-8" standalone="no"?>
<!-- Created with Inkscape (http://www.inkscape.org/) -->

<svg
   width="210mm"
   height="297mm"
   viewBox="0 0 210 297"
   version="1.1"
   id="svg33871"
   inkscape:version="1.1 (c68e22c387, 2021-05-23)"
   sodipodi:docname="Casey - Pulsz - Envelope 48.svg"
   xmlns:inkscape="http://www.inkscape.org/namespaces/inkscape"
   xmlns:sodipodi="http://sodipodi.sourceforge.net/DTD/sodipodi-0.dtd"
   xmlns="http://www.w3.org/2000/svg"
   xmlns:svg="http://www.w3.org/2000/svg">
  <sodipodi:namedview
     id="namedview33873"
     pagecolor="#ffffff"
     bordercolor="#666666"
     borderopacity="1.0"
     inkscape:pageshadow="2"
     inkscape:pageopacity="0.0"
     inkscape:pagecheckerboard="0"
     inkscape:document-units="mm"
     showgrid="false"
     inkscape:zoom="1"
     inkscape:cx="394.5"
     inkscape:cy="218.5"
     inkscape:window-width="1280"
     inkscape:window-height="657"
     inkscape:window-x="-8"
     inkscape:window-y="-8"
     inkscape:window-maximized="1"
     inkscape:current-layer="layer1" />
  <defs
     id="defs33868" />
  <g
     inkscape:label="Layer 1"
     inkscape:groupmode="layer"
     id="layer1">
    <path
       style="fill:none;stroke:#23262a;stroke-width:0.074531"
       d="M 4.8264209,1.359066 C 1.0897128,2.2948048 9.5733257,7.4049492 4.6400911,6.2408717 L 3.8202459,6.0545408 M 40.452333,7.3962875 C 40.03861,7.2952237 39.523619,7.4035575 39.144851,7.1755205 38.074163,7.0584439 37.568936,6.358721 37.627455,5.4967985 37.337533,4.3433654 38.654284,1.7064839 39.483472,1.955354 M 23.928866,4.3199591 c 0.378026,-0.011439 0.636147,0.1210058 0.888981,0.2597961 0.142977,0.012817 0.793603,0.4025042 0.91027,0.1276579 m 2.602776,2.3499195 0.319486,-1.3218974 C 28.93178,4.2728221 28.596986,3.2048648 28.291406,2.6261287 28.162392,2.3818141 28.058266,2.2206063 28.005652,1.955354 m -3.130315,1.0434781 c -0.126191,1.3359802 -0.02807,2.5147518 0.149064,4.0992283 M 43.955354,3.297028 43.897868,3.6877969 m -23.4944,2.9630319 C 23.047374,6.9473173 21.654455,5.6862545 21.349586,4.8032201 21.149555,3.9047681 22.587939,4.374765 23.066512,4.5454965 M 12.876174,6.1392678 C 10.073309,4.4072221 16.854278,4.1278141 12.516262,5.7230066 12.413703,5.8901134 12.731508,6.0644384 12.876174,6.1392678 13.341249,6.380072 13.745358,6.4678006 14.142833,6.4274 M 49.172546,4.6386501 c -2.899088,-0.3150199 3.061666,2.7745506 -0.745309,2.981087 M 7.6588251,5.151257 C 7.5600877,6.6114948 8.3804537,7.5768616 9.223767,7.0234283 L 9.5353107,6.5762902 M 34.564406,4.7877585 c -0.244314,0.0079 -0.379065,0.026754 -0.564575,0.1474258 -0.263546,0.1714897 -0.529246,0.3506648 -0.301703,0.6227821 0.277928,0.3324794 0.962872,0.5598029 1.184304,0.9517615 0.137136,0.2428294 -0.03011,0.483561 -0.188638,0.643429 -0.591962,0.4429152 -1.104507,0.468756 -1.769071,0.6901337 M 46.787535,7.0982681 C 46.66918,6.7248689 46.610308,6.3035394 46.549333,5.9803034 46.204925,4.4315078 45.148253,5.714995 45.222387,6.725409 M 15.659303,5.5771811 c 0.752459,-0.1860899 1.00414,-0.6636484 0.309549,-0.826749 -2.18289,0.5270783 -0.396321,1.3886602 0.260857,1.4534663 M 11.087053,5.5331549 C 11.805908,6.8131323 9.7992897,7.5309856 9.5353107,6.5762902 9.4487142,6.2096002 9.6172128,5.8980585 9.5695525,6.0137299 M 31.285031,6.1294429 C 35.402678,5.3544523 28.334695,3.7424176 31.95685,7.4589313 M 27.441306,6.207765 c -0.421398,0.6998995 -1.825636,0.094469 -0.99306,-0.4277198 0.897065,0.021062 1.239098,0.3880057 1.781001,1.0202243 M 17.613501,6.5651131 c 0.436516,0.3042051 1.261817,0.062626 1.55975,-0.1544654 0.52403,-0.3863399 0.495187,-1.5566073 -0.41089,-1.591815 -1.334738,0.8195538 -1.139857,1.5084766 -1.274931,2.9498155 -0.03316,0.2651173 -0.09764,0.3869734 -0.139745,0.521874 M 30.882542,7.2864591 C 30.08439,7.1967262 28.81511,6.2406733 28.627294,5.5719675 28.74003,4.7613908 29.500305,4.9557757 30.062694,4.7526451 m 10.538753,1.7863654 c -0.05007,-0.8631657 0.366022,-0.6530618 1.043437,-0.7453288 0.491906,-0.045573 0.558538,-0.094905 0.784816,0.1316187 0.968296,1.0713192 -1.277635,1.0373359 -1.828253,0.6137101 z m 3.344327,-1.522416 c 0.006,0.3823795 0.03325,1.3391686 -0.06494,1.7087729 m -8.633259,7.6024696 c 0.118803,0.04725 0.340976,0.150022 0.584248,0.246817 0.177755,0.0708 0.392779,0.202492 0.571057,0.110162 0.383686,-0.236926 -0.37064,-1.972246 -0.58142,-2.444174 -0.635263,-2.211374 -0.564521,1.707258 -0.573885,2.087195 -0.01797,0.244387 -0.05016,0.299463 -0.06045,0.521718 -0.0084,0.182831 -0.01723,0.40545 -0.0266,0.596247 -0.01253,0.255572 -0.08795,0.514863 -0.148914,0.745313 M 50.812234,11.42079 c -0.06806,0.490422 -0.06452,1.028435 -0.0441,1.554796 0.02672,0.688977 0.08234,1.357988 0.0441,1.874166 m -3.950152,0.297604 c -8.23e-4,-0.339115 -0.09271,-0.734283 -0.179398,-1.043436 -0.11843,-0.422669 -0.333603,-0.995143 -0.532453,-1.416098 -0.194077,-0.410882 -0.76402,-0.797336 -0.331588,-1.043437 m 7.453126,0.223709 c -0.345966,1.423563 -0.266587,1.499639 1.330308,1.788937 M 24.502692,12.017234 c 0.591481,0.340237 0.432281,1.588938 0.670782,2.161411 0.320112,-0.230075 0.630907,-0.345378 1.017799,0.02939 0.648933,0.725214 -0.59288,1.656907 -1.047087,1.072955 -0.121191,-0.164562 -0.09794,-0.316901 -0.07654,-0.50562 0.02087,-0.183942 0.104481,-0.438645 0.105831,-0.596727 M 45.86608,12.268001 c -0.441746,0.257964 -0.288191,0.925054 -0.341161,1.388986 l -0.03428,0.447191 -0.119177,1.043436 m 6.096104,-2.051148 c -0.190893,0.205231 -0.879559,-0.301792 -1.400632,-0.259258 m 8.422042,-0.52178 c -0.347178,0.925355 -0.162081,1.782042 -0.149069,2.757878 m -3.705277,-2.89836 -0.03255,1.482083 0.01102,0.521718 0.149288,1.192504 M 7.6586163,12.613615 c 0.2771825,0 1.0605056,-0.06844 1.2050224,0.172767 0.2487857,0.415067 -0.4390643,0.747547 -0.6833031,1.094265 2.3889294,0.568493 0.8452856,1.646578 -0.5217255,2.012023 M 3.8575209,12.762682 c 0.6287456,-0.185884 1.2720251,-0.01392 1.7886761,0.344558 0.8927854,1.758029 -3.7883022,3.582639 1.1925685,2.561887 m 8.1984425,0.521708 c -0.349999,0.01834 -0.601617,0.05225 -1.043438,-0.116487 -1.225856,-0.937367 -0.862818,-2.32874 0.149069,-3.088112 m 3.577499,0.44746 c 0.393788,0.99244 0.232758,2.270152 0.670789,3.130278 m 29.7819,-1.612483 c 0.29,0.310223 0.798678,0.266696 1.12296,-0.0052 0.227959,-0.19117 0.287843,-0.528282 0.220169,-0.842056 -0.08534,-0.395168 -0.399563,-0.830207 -0.790779,-0.964432 -0.729089,0.03822 -0.848014,1.202903 -0.55235,1.811681 z m -35.968,-0.47439 -0.819845,0.223595 c -1.318184,0.07969 -1.193933,1.957979 -0.149073,1.341207 0.61749,-0.828588 0.431272,-1.178651 0.05553,-1.385781 -0.710135,-0.391472 -1.3579065,-0.450989 0.05288,-1.283403 m 17.853634,2.967226 c 0.954358,0.120295 2.306181,-0.425294 1.556887,-1.490234 -0.596417,-0.461728 -1.890364,-0.754808 -0.289854,-1.26699 m 26.53314,1.192493 c -0.689857,0.348908 -1.451181,-0.20478 -1.151499,-0.914082 1.012175,-1.367974 1.459819,0.221228 1.151499,0.914082 z m -16.024229,1.564689 c -2.93725,-2.47713 1.763497,-2.786683 -0.426851,-1.347859 m 4.645253,-1.036921 0.298126,0.149057 m 0,0 c 0.278078,0.03739 0.772068,-0.01859 1.192051,-2.6e-4 m -24.70556,0.760205 c -0.0023,1.446868 0.171242,0.526594 0.45411,-0.142737 0.220967,-0.520309 0.202278,-0.428421 0.250116,0.04344 -0.03512,2.429659 1.946301,-2.493341 1.15056,0.830195 m 3.353909,-1.192503 c 0.194645,1.001099 0.369685,1.30379 1.14671,0.526 m -0.07665,-0.455713 c 0.04338,0.402022 0.06945,0.687396 0.495096,1.122216 m 7.651903,-0.91021 c 0.229142,0.532824 0.171013,0.726002 0.322949,1.207897 m 0.731755,-1.453428 c 0.288728,1.672159 0.896068,1.455368 1.267029,0.09824 m -21.376928,1.206047 c 0.09406,-0.328315 0.08816,-0.701029 -0.301406,-0.79502 -0.272411,-0.06574 -0.826253,0.01142 -1.151957,0.19881 -0.42729,0.932875 0.269801,1.154673 0.857108,0.968944 m 3.652038,-1.043436 c -0.142579,0.353728 0.01528,0.691504 -0.377055,0.874325 -0.357079,0.166359 -0.66139,-0.155392 -0.889978,-0.427135 m 29.036594,-0.568571 -0.07454,1.267032 m -5.18657,-0.773 c 0.590942,1.281684 -0.172923,2.33223 -1.043443,1.714502 m -21.614071,-1.429836 0.521721,0.372651 m -3.428442,-0.359266 -0.596255,0.372734 m 16.541508,3.824043 c -0.217442,0.0071 -0.52736,-0.05727 -0.495893,-0.02264 m -1.609763,-1.333824 c -0.0059,0.271014 0.158854,1.212198 0.17227,1.482705 0.364712,0.11056 0.779143,-0.195514 1.437493,-0.148881 M 32.55205,18.650675 c 0.195719,0.478202 0.216215,0.780874 0.244984,1.267031 0.01827,0.308343 0.02363,0.61869 -0.02139,0.89438 l 2e-6,0.446916 M 6.0934494,18.79981 c -1.4390998,-0.203641 -2.1846604,1.08973 -1.3631767,1.911686 0.2483391,0.243349 0.5322286,0.331659 0.8414594,0.495484 1.1209182,0.715545 1.115556,0.89588 -0.074529,1.241161 -0.3354652,0.09794 -0.7516476,0.07768 -1.1179699,0.07768 M 19.457173,18.558545 c -0.123931,1.130952 0.194421,2.273238 0.200976,3.222176 m 1.270366,-2.40903 c -0.858265,0.353843 -2.01323,0.796662 -1.043366,1.478044 0.555557,0.391657 0.842129,0.68599 1.490552,0.90675 m 7.150553,-2.621708 c -0.580971,-0.216585 -1.027637,-0.119021 -1.25947,0.776982 -0.231833,0.896003 0.03827,1.538393 0.813395,1.695426 1.474103,0.07184 1.527877,-2.03234 0.446075,-2.472408 z m 10.510032,-0.03689 c -0.319612,0.660954 -0.424111,1.504922 0.298055,1.690375 0.167545,0.04102 0.336285,0.02493 0.470217,0.151601 0.231717,0.219274 0.210923,0.712068 0.27517,0.989846 m -0.05525,-2.720862 c -0.27621,0.657575 -0.125312,1.315176 -0.219922,1.731016 m -27.461489,-1.770194 0.149063,0.149056 0.436789,1.19562 c 0.138667,0.748678 0.35041,1.060219 0.606648,1.412608 M 41.19769,19.246876 c -0.906629,0.143475 -0.123395,0.722698 0.22359,0.968725 m -5.372326,-0.699516 c -0.293813,0.707007 0.178121,1.156913 0.676852,1.152389 0.239616,-0.0052 0.695079,-0.0996 0.866052,-6.64e-4 0.207197,0.119924 0.232687,0.306774 0.2505,0.516733 0.02407,0.283739 0.03555,0.572992 0.15048,0.819841 m 8.198448,-2.310535 c 0.330471,-0.03178 0.475657,0.118646 0.487438,0.558313 0.01178,0.439667 -0.600794,0.840723 -1.158217,0.853093 -1.237996,-0.09031 -0.459962,-1.34933 0.223591,-1.411403 m -8.404894,0.109296 c 0.1715,0.651941 0.05921,1.020784 0.670781,0.819842 m -6.650436,-0.556389 0.161506,0.894369 -0.01244,0.44719 m -20.496109,0.298093 c -0.749507,-3.104581 -0.960765,-1.367204 -1.2298762,0.04868 L 9.7108518,20.671304 M 41.582483,20.092527 c 0.170006,0.131182 0.318029,0.282983 0.509425,0.44553 0.425203,0.361258 0.51449,1.048214 -0.223445,0.996192 -0.854402,-0.199513 -0.69656,-0.663626 -0.447183,-1.318648 0.35162,-0.302983 0.778933,-0.43752 1.210783,-0.575174 m 0.279853,-0.09139 c 2.400011,-0.454194 0.431376,0.542206 0.745306,1.635454 m -26.756734,0.96883 c 0.480748,0.154477 1.80244,-0.09795 1.626571,-0.581499 -0.148615,-0.35216 -0.711029,-0.42863 -1.03032,-0.498392 -0.820911,-0.02252 -1.662696,-0.644927 -0.521719,-0.783397 m 6.856923,0.223636 c -1.03993,1.192937 -1.116434,2.351772 -1.118016,2.832015 m -9.793425,-2.582622 c -0.02071,0.01501 -0.772719,-0.02585 -0.875546,0.02932 -1.405511,0.665895 0.550145,1.908351 1.019757,0.45284 m 26.73984,-0.305345 0.298125,0.07457 M 21.927782,20.872546 c 0.336583,0.38473 0.920237,0.898773 1.267032,0.596247 M 8.3293941,21.631511 c -2.6443393,1.443486 -1.1330376,-4.044792 0.5217183,0.52176 m 6.6332836,-1.043322 c 0.06957,0.605206 -0.498227,1.54794 -0.894375,0.223595 m 10.732508,-0.298201 c 0.06641,0.513815 0.385102,0.710282 0.26302,1.267031 -0.07542,0.344039 -0.391662,0.539831 -0.337553,0.819842 m -9.795032,-1.640847 0.521719,0.298133 m 5.993936,3.504032 0.410965,1.639683 c 0.47002,2.739266 -0.0097,0.267041 0.483396,2.608882 m -5.043822,-3.514325 c 0.422815,-0.0645 0.634866,-0.170252 1.047024,0.230047 0.279195,0.271141 0.39673,0.472895 0.261033,1.166583 -0.135698,0.693688 -0.540933,1.367433 -1.40688,1.223035 l -0.07476,-1.043437 -0.01103,-0.521718 c -0.01292,-0.409939 -0.05477,-0.73046 0.184609,-1.05451 z m 13.786675,1.08384 c -0.410145,0.311542 -0.6864,1.23444 -0.589231,1.729524 0.09717,0.495084 1.155603,0.769987 1.517975,0.838336 M 24.430765,27.54896 c 0.06723,-0.114987 -1.001517,0.199702 -1.082148,0.301743 -0.904949,1.145253 2.095135,1.011088 1.93686,1.814552 -0.09756,0.308416 -0.942299,0.316392 -1.155458,0.388542 m 1.865238,-2.221502 c 2.861453,-0.08834 0.436009,0.745263 0.277713,1.475108 -0.01543,0.666527 1.105672,0.622928 1.583641,0.52284 m 8.81428,-1.920663 c -0.09578,1.876505 0.05053,0.188626 0.703215,-0.451069 0.220715,-0.21569 0.2686,-0.264366 0.24298,0.103917 -0.0024,1.130889 0.11225,0.839743 0.897479,-0.341005 1.015223,-0.577355 0.676427,0.29534 0.81731,0.968909 l 0.300659,0.745313 m -6.234869,-0.432351 c 1.921039,-3.423384 2.397432,2.265103 0.09098,0.689148 -0.187563,-0.108633 -0.172028,-0.162334 -0.139566,-0.373339 z m -20.000128,0.283502 c 0.402394,-0.38473 0.789138,-0.03604 0.830427,0.447263 0.04837,0.566585 -0.569269,1.002216 -1.05402,1.165365 -0.180888,0.06086 -0.329653,0.09856 -0.521721,0.09108 -0.239394,-0.0093 -0.410387,-0.237131 -0.622204,-0.34667 m 0,0 0.124774,-0.518381 m 8.844935,-1.062256 c -0.140738,1.08312 -1.292236,1.284018 -1.783745,0.04075 m -1.495626,0.03348 c 0.02914,0.239319 0.03241,0.778371 -7e-6,1.192763 m -1.681133,-0.462194 -0.223593,0.07457 m 5.003016,-0.359281 0.521719,0.596257 m -17.855501,0.37408 c 0.5466867,0.497572 0.0085,1.4269 -0.7453133,1.219185 C 1.9904173,30.887675 1.1742874,29.681408 1.3979787,28.78658 m 7.4531316,0.521729 c 0.9026088,-0.181178 0.132351,2.263479 -1.1604736,0.970572 m 21.7777823,-1.01072 0.298125,0.149067 m -23.6730905,0.04011 c 0.034436,0.608214 0.1716393,1.295215 0.6707806,1.488571 1.1874497,-0.07527 0.93134,-0.864734 0.894376,-1.414032 M 10.423412,28.7789 c -0.214623,0.882686 0.719122,1.958576 1.606607,1.364939 m -8.3243057,0.326648 c 1.5345519,0.575702 1.9355032,-0.874998 0.8225823,-1.236671 M 98.288668,35.27085 c 0.158336,3.06747 4.715482,5.747643 5.199312,7.903605 0.0395,0.422658 -0.21094,1.013027 -0.29514,1.412806 -0.0678,0.32228 -0.11703,0.558535 -0.21913,0.89438 -0.29366,0.968306 -0.57837,1.971425 -0.92717,2.906714 -0.23552,0.633604 -0.44794,1.310112 -0.47849,2.012356 m 2.90673,-14.682713 c -0.0492,0.391367 -0.0656,0.719235 -0.0753,1.117975 -0.007,0.287395 -0.0656,0.500178 -0.11552,0.819842 -0.0395,0.254596 -0.0276,0.420062 -0.0335,0.670785 -0.006,0.227386 -0.041,0.369297 -0.0924,0.596246 -0.0678,0.298279 -0.0469,0.471119 -0.0589,0.745314 -0.0104,0.23209 -0.0566,0.424455 -0.0685,0.670785 -0.0432,0.883568 -0.23029,2.27175 -0.54257,2.83551 m 6.87474,-6.114887 c 0.16397,0.554288 0.0917,0.703345 0.17963,1.267032 0.0261,0.165975 0.0335,0.279044 0.0462,0.44718 0.0455,0.629273 0.17068,1.280678 0.23403,1.937816 0.0432,0.44369 0.0619,0.775951 0.0619,1.192504 0,1.028532 -0.10063,2.171693 -0.21093,3.204848 -0.0582,0.538636 -0.11775,1.102988 -0.16694,1.639683 -0.0484,0.517252 -0.0693,0.556905 -0.0693,1.043447 m 35.55137,-10.434386 c 0.69834,0.371758 0.59623,1.652654 0.59623,2.459534 0,1.327321 -0.24073,2.736264 -0.55675,4.02469 -0.24148,0.983438 -0.60071,1.942802 -0.33762,2.832187 m -32.8683,-9.092816 0.18636,0.4099 c 0.0827,0.457227 0.0625,0.421677 0.12446,1.006146 0.0246,0.236349 0.0492,0.409781 0.0828,0.670785 0.0246,0.190059 0.0418,0.317212 0.0551,0.521718 0.023,0.338524 0.0246,0.702981 0.0328,1.043447 0.0223,0.987613 -0.0216,2.01033 -0.12149,3.055782 -0.0716,0.750381 -0.21465,1.783453 0.0872,2.384996 m 46.6566,-7.974851 v 0.745313 c 0,1.757977 0.10807,4.101835 -0.2236,5.887978 m -8.27232,-6.020189 c 1.19101,-0.09721 2.9343,-0.308934 3.95016,0.223595 m 16.47077,-0.389507 0.0313,0.301478 0.0775,0.66743 0.18931,1.937817 0.0343,0.734574 0.56197,0.383391 m -32.72187,3.588712 c -0.26168,-1.149186 -0.66847,-2.113681 -0.60173,-3.680852 m 0.19431,-2.574552 0.47862,-0.643638 m 12.97441,0.03095 c 0.0983,0.730482 0.33166,1.780555 0.29514,2.608591 -0.0268,0.606466 -0.0708,1.297524 -0.18409,1.863289 -0.0373,0.183942 -0.085,0.329426 -0.10509,0.521718 -0.0328,0.309683 -0.0798,0.491984 -0.15503,0.819842 m 20.94329,-4.993598 0.0746,0.298133 m -15.17494,1.262864 c 0.39992,0.297881 0.79986,0.162171 1.19978,0.165872 m 11.14298,-0.08718 c 0.4919,0.178801 0.7654,0.362156 1.07768,0.436456 m 0,0 c -0.33836,0.624652 -0.24443,1.892644 -0.40691,2.768392 m -9.68907,-0.447299 c -0.39726,-0.317129 -0.45763,-0.468429 -0.59626,-0.670785 2.22321,-1.669216 -0.88908,-1.179629 0,0 m 17.21674,3.6e-5 c 2.13336,-3.755944 -4.09867,-0.530694 1.19288,1.937926 m -22.06164,-0.745422 c -0.0865,-0.425952 -0.15498,-1.145477 -0.23776,-1.788761 -0.0209,-0.16747 -0.0626,-0.362961 -0.18707,-0.468127 -0.16844,-0.142181 -0.33685,-0.05671 -0.35774,0.02095 -0.2795,0.59998 -0.3831,1.263163 -0.6775,1.788755 -0.13565,0.242081 -0.25936,0.580823 -0.53662,0.580823 -0.19752,0 -0.23179,-0.330101 -0.2385,-0.506295 -0.0209,-0.590514 -0.035,-0.929401 -0.0753,-1.416098 m 21.1669,-0.372652 c -0.0954,0.707457 -0.4226,1.394558 -0.86382,1.940725 -0.19452,0.240285 -0.53738,0.617786 -0.7863,0.282773 -0.25788,-0.346801 -0.15578,-0.912192 -0.2005,-1.329118 -0.0268,-0.248344 -0.0559,-0.450773 -0.16173,-0.670785 m -67.67442,5.142758 c -0.34209,-0.0073 -0.55377,-0.03728 -0.89438,-0.09586 -0.55004,-0.09472 -1.12094,-0.424456 -1.45112,-0.811273 -1.02108,-1.194664 0.30111,-3.308748 1.45112,-3.82599 0.42037,-0.189166 0.47849,-0.209657 0.81985,-0.160314 0.19453,0.02815 0.39427,0.10986 0.51874,0.176267 0.278,0.148911 0.37117,0.422067 0.004,1.17734 -0.36748,0.755273 -1.35501,1.374555 -2.31126,1.154844 m 10.80712,-2.534094 c 0.57389,0.01226 1.00319,0.185885 1.32367,0.671076 0.71923,1.090692 0.10956,3.181221 -1.47274,3.030149 -1.05834,-0.101053 -1.65831,-1.084283 -1.3587,-2.061531 0.0783,-0.252821 0.16769,-0.466944 0.34434,-0.64507 0.37712,-0.379963 0.67375,-0.02825 0.93983,0.272408 m 51.9985,-0.582308 c -1.12508,-1.231928 -1.67108,1.175351 0.24191,0.285038 0.0603,0.184244 -0.0564,0.588939 0.16503,0.945576 m 2.13981,-2.165343 c -0.8125,0.397203 -1.11586,1.171358 -0.91476,1.591586 0.21499,0.728997 0.98985,0.98754 1.44815,1.117975 m -32.27206,1.118006 c -0.45017,0.01942 -0.88767,0.107254 -1.34157,0.0618 -0.50532,-0.05058 -1.07324,-0.218526 -1.36094,-0.661022 -0.42185,-0.649463 0.16323,-1.544061 0.61861,-2.008242 0.45092,-0.458968 0.95773,-0.574115 1.11499,-0.07561 m -5.06514,-0.220095 c 0.21465,-0.103889 0.35775,0.0083 0.55004,0.101884 0.19378,0.0943 0.28397,0.07114 0.49041,0.140198 1.0509,0.350748 1.01587,1.754394 0.0746,2.225949 -0.42184,0.211152 -0.90182,0.196986 -1.26554,-0.06065 -0.41663,-0.29454 -0.51724,-0.728395 -0.48817,-1.218354 0.0239,-0.407765 0.27799,-1.014595 0.63873,-1.189003 m -13.94034,0.07104 c -0.0193,0.455467 -0.0611,0.627559 -0.0119,1.043436 0.0484,0.404411 0.16023,0.873879 0.46731,1.18811 0.24297,0.248635 0.62979,0.407911 0.94804,0.230751 0.29886,-0.166504 0.40172,-0.306473 0.45985,-0.673548 m 53.0889,-3.14889 c 0.31415,1.069446 0.0933,1.527371 -0.0225,2.105454 m -30.85596,-0.521718 c -0.13415,-0.05602 -0.27502,-0.158529 -0.52171,-0.1039 -0.46955,0.1039 -1.23797,0.945208 -0.91227,1.437338 0.3175,0.479313 1.0099,0.348141 1.43398,0.136614 0.25788,-0.128856 0.5806,-0.306619 0.76768,-0.528791 0.33348,-0.794714 0.27257,0.281517 0.49936,0.623893 m 19.15399,-1.416347 c 0.0415,0.632392 0.4152,-0.209791 0.49865,-0.372662 0.14534,-0.287769 0.28172,-0.57479 0.5478,-0.74494 0.56197,-0.359014 1.29311,-0.157863 1.78577,-2.7e-4 m -43.0787,1.043593 c 0.20869,0.254679 0.35477,0.469924 0.36894,0.819852 0.0357,0.875 -0.77961,1.805886 -1.63597,1.875948 -0.68345,0.05588 -1.00353,-0.489465 -1.27408,-0.80675 m 30.78847,-1.218379 c 0.55228,0.20705 2.17706,0.438839 2.8322,0.521718 m -26.16049,0.745313 c 0.48446,0.08994 0.51576,0.110307 1.04344,0.03064 0.26234,-0.03967 0.47104,-0.05982 0.74532,-0.105166 0.71105,-0.307959 1.58008,-0.882966 1.01514,-2.012335 -0.5493,-1.098522 -1.5674,-1.894518 -2.3783,-2.832196 -0.56122,-0.648643 -1.21411,-1.358624 -1.07399,-2.310468 0.15428,-1.045826 1.08964,-1.977459 2.13905,-1.934836 0.19676,0.0083 0.33987,0.0242 0.52171,0.09119 0.40471,0.149139 0.63799,0.441675 0.67078,0.874699 M 102.46299,55.84146 c -0.16398,-0.438539 -0.16696,-0.651177 -0.21093,-1.117975 -0.0246,-0.262719 -0.0141,-0.421029 0.0373,-0.670775 0.0514,-0.252364 0.11552,-0.668843 0.34359,-0.849441 0.55377,-0.438757 1.69112,0.439068 1.90875,0.998497 0.0637,0.999575 -1.4864,1.329178 -2.0787,1.639694 z m 7.45314,2.161401 c 0,-0.29373 0.004,-0.55056 -0.0313,-0.819842 -0.0209,-0.158829 -0.038,-0.283063 -0.0425,-0.44719 -0.006,-0.245571 -0.0216,-0.397473 0.009,-0.670774 0.0514,-0.455686 0.13938,-0.713564 0.1364,-1.267032 -0.002,-0.452777 -0.16322,-1.129077 0.1841,-1.463945 0.38681,-0.372288 1.03374,0.254897 1.2618,0.569866 0.17441,0.24014 0.31527,0.521937 0.33689,0.819541 0.0216,0.295599 -0.15951,0.616602 -0.0507,0.89438 0.22658,0.575454 0.95178,0.918007 0.99947,1.639693 0.0268,0.416625 -0.2929,0.728312 -0.56719,0.943339 -0.19228,0.15025 -0.29961,0.246693 -0.52171,0.338596 -0.44048,0.182301 -0.70879,0.288589 -1.1925,0.05961 m 13.93735,-5.291721 c -0.12298,0.401721 -0.84668,1.294679 -0.6611,1.70609 0.13192,0.290978 0.40844,0.272938 0.6611,0.352607 0.49266,0.155329 1.1925,0.401503 1.29312,0.997085 0.14832,0.872912 -1.14928,0.861955 -1.44218,0.298123 m 0.29812,-3.279377 c 0.60296,-0.173141 1.21487,0.184462 1.6397,0.298124 m -7.67673,-0.07457 -0.5566,0.831863 c -0.10939,0.161078 -0.44106,0.633464 -0.57893,0.882317 -0.13043,0.234033 -0.19006,0.355141 -0.34807,0.583586 -0.1513,0.218444 -0.28172,0.346116 -0.43079,0.609218 -0.28247,0.496824 -0.56941,1.038961 -0.84295,1.490326 m 11.62656,-4.322772 c 0.17143,0.481474 -0.073,2.442835 -0.0746,2.906715 m -4.84454,-2.832186 -0.0477,0.342844 -0.0171,0.626064 -0.009,1.937817 m -16.39688,-2.161454 c 0.36594,-0.02108 0.62159,-0.02731 0.9689,0.105904 1.21636,0.46657 0.8519,2.101122 0.18485,2.867519 -0.19006,0.218236 -0.41813,0.336291 -0.70656,0.404338 -0.71849,0.16933 -1.38479,-0.09202 -1.60168,-0.843697 -0.24819,-0.86098 0.68271,-2.970297 1.52714,-1.714222 m 10.02922,-1.258693 c 0.1543,0.314131 0.73517,1.01033 0.98353,1.258693 m -2.6652,2.385007 c -0.63576,-0.0052 -1.40641,-0.244242 -1.47945,-0.968909 -0.0492,-0.483415 0.515,-1.554873 1.03897,-1.595865 0.32271,-0.02524 0.48966,0.09991 0.7386,0.216138 0.22583,0.105685 0.59699,0.392415 0.7386,0.635525 0.35999,0.617725 0.0775,1.428323 -0.58954,1.564044 m 2.21802,-2.23594 c 0.32421,0.424082 0.46284,0.876485 0.67079,1.490627 M 102.4629,55.841456 c 0.0976,0.330994 -0.0261,0.554984 0.0135,0.968783 0.0521,0.545409 0.0619,0.752615 0.0619,1.34156 m 0.52179,7.825785 c 0,-0.605272 0.0544,-1.272692 -0.076,-1.863289 -0.10658,-0.488172 -0.237,-0.859193 -0.46284,-1.34156 -0.34359,-0.733307 -0.89661,-0.870378 -1.18691,-0.434145 -0.2903,0.436233 -0.51762,0.818502 -0.5519,1.179459 -0.0246,0.268388 0.041,0.551982 0.0418,0.819841 8.3e-4,0.499659 -0.0119,1.251308 -0.14906,1.714222 m 40.69409,-3.502972 c 0.62532,0.07914 1.24095,0.212638 1.86328,0.308115 1.52112,0.451959 -0.0963,0.716574 0.0686,1.174982 0.24521,0.573076 1.2305,0.604981 1.4377,1.206742 0.12969,0.376006 -0.19676,0.617268 -0.46283,0.810152 -0.72072,0.522393 -1.48094,1.016091 -2.31048,1.195484 m -41.3321,-4.322813 c 0.009,0.345379 0.0611,0.432131 0.14907,0.596247 m 35.07147,2.832321 c 0.4211,0.121856 1.45708,0.613404 1.72912,-0.226565 0.28769,-0.888346 -1.75521,-1.223889 -1.84688,-1.789051 -0.0701,-0.43102 0.40619,-1.077056 0.78853,-1.159259 0.21615,-0.04632 0.34359,-0.0062 0.52173,0.01776 0.37787,0.05006 0.52022,0.09347 0.81984,0.250421 m -22.58298,-0.223595 c 0.15353,0.376681 0.19527,0.595063 0.25489,1.043437 0.0507,0.381084 0.079,0.800918 0.041,1.267042 -0.038,0.460068 -0.12298,0.570604 -0.14682,1.117964 m 16.09874,-3.353904 c 0,0.822074 -0.43674,2.530552 -0.14905,3.502961 m -10.95611,0.372662 -0.0305,-2.68313 0.0261,-0.668916 c 0.14756,-0.993982 0.93689,0.920962 1.00696,1.116106 0.41691,4.208114 2.25579,0.362503 1.60606,-1.34157 m 16.99321,-0.149057 c 0.10085,0.842079 -0.23734,1.754913 -0.0747,2.534022 M 126.9847,63.518237 c -0.54632,1.244526 -1.50031,2.987807 -1.56516,4.248285 m 7.49283,-4.291985 c -0.28555,0.303844 -0.39621,1.337047 -0.21791,1.560104 0.24521,0.272346 0.96518,0.197734 1.22008,0.197734 h 0.37415 m 0.0746,-1.71418 c 0.0827,1.221242 -0.19242,2.167605 -0.14993,3.35403 m -9.68827,-3.130435 c 0.49585,0.615182 0.9045,1.277085 1.56429,1.714295 m -22.2363,-0.02058 c 0.076,-0.31742 0.11167,-0.983602 0.41278,-1.176414 0.26086,-0.16748 1.03076,-0.249611 0.96071,0.302818 -0.041,0.321377 -0.46582,0.514791 -0.75127,0.570614 -0.16397,0.03209 -0.48447,-0.02191 -0.57986,0.144809 -0.22137,0.385031 0.57986,0.756499 0.80344,0.849431 m 12.263,-1.854691 c -2.29106,0.155938 -1.26895,2.177155 -0.0398,2.749216 m -6.25923,-2.373001 c 0.48892,-0.124463 0.46433,0.354404 0.77438,0.592082 0.12893,0.09887 0.31378,0.07717 0.35476,0.241106 0.0693,0.278006 -0.43377,0.71804 -0.68344,0.783626 -0.21018,0.05525 -0.4211,0.03136 -0.59328,-0.09409 -0.46208,-0.338233 -0.42855,-1.375999 0.14758,-1.522677 m 3.0543,-0.08672 c -0.43723,0.80372 -0.66355,2.164079 -0.89122,0.21161 m -6.63646,-0.06247 c -0.12007,0.691367 0.0489,1.637014 0.59623,1.598577 0.29814,-0.0342 0.44496,-0.269521 0.74533,-0.192355 0.33017,0.08467 0.66407,0.432359 1.03374,0.230366 0.51948,-0.284258 0.33465,-1.102126 -0.2139,-1.189366 m -0.6178,0.422434 c -0.15397,0.360888 -0.19665,0.527705 -0.20204,0.536566 m 4.26097,-0.635494 c 0.0574,0.299056 0.19586,0.509555 0.37261,0.745209 m 0.99614,-0.490627 -0.15457,0.823489 m 4.95925,-0.209178 c 0.52918,0.734876 0.30708,1.917689 0.14907,2.68313 m 41.84825,-26.595072 c 0.34148,-0.0826 0.72241,-0.24406 1.00226,-0.203378"
       id="path1373"
       sodipodi:nodetypes="cccccccccccccccccccccccccccccccccccccccccccccccccccccccccccccccccccccccccscccccccccccccccccccccccccccccccccccccccccccccsccccccccccccccccccccccccccccccccccccccccccccccccccccccccccccccccccccccccccccccsccccccccccccccccccccccccccccccccccccccccccccccccccccccccsccccccccccccccccccccccccccccccccccccccccccccccccccccccccccccccsccccscccccccccccsccccccccccccccccccccccccccccccccccccscccccccccccccccccscccccccccccccccccccccccsccccccccccccccccscccccccccscccccccccccccccccccccccsccccccccccccccccccccccccccsccccccccccccccccccccccccscccccscccccccccccccccsccccccccscccccscsccccccccccccccccccc" />
  </g>
</svg>
