<?xml version="1.0" encoding="UTF-8" standalone="no"?>
<!-- Created with Inkscape (http://www.inkscape.org/) -->

<svg
   width="210mm"
   height="297mm"
   viewBox="0 0 210 297"
   version="1.1"
   id="svg187245"
   inkscape:version="1.1 (c68e22c387, 2021-05-23)"
   sodipodi:docname="Casey - Pulsz - Envelope 90.svg"
   xmlns:inkscape="http://www.inkscape.org/namespaces/inkscape"
   xmlns:sodipodi="http://sodipodi.sourceforge.net/DTD/sodipodi-0.dtd"
   xmlns="http://www.w3.org/2000/svg"
   xmlns:svg="http://www.w3.org/2000/svg">
  <sodipodi:namedview
     id="namedview187247"
     pagecolor="#ffffff"
     bordercolor="#666666"
     borderopacity="1.0"
     inkscape:pageshadow="2"
     inkscape:pageopacity="0.0"
     inkscape:pagecheckerboard="0"
     inkscape:document-units="mm"
     showgrid="false"
     inkscape:zoom="1"
     inkscape:cx="384.5"
     inkscape:cy="228.5"
     inkscape:window-width="1280"
     inkscape:window-height="657"
     inkscape:window-x="-8"
     inkscape:window-y="-8"
     inkscape:window-maximized="1"
     inkscape:current-layer="layer1" />
  <defs
     id="defs187242" />
  <g
     inkscape:label="Layer 1"
     inkscape:groupmode="layer"
     id="layer1">
    <path
       style="fill:none;stroke:#383537;stroke-width:0.0525739"
       d="m 27.260732,7.0600089 c -0.07045,-0.4443033 0.103416,-1.0279275 0.232588,-1.5246476 0.04017,-0.154463 0.06703,-0.2508303 0.08122,-0.4205923 0.01508,-0.1805926 1.58e-4,-0.2424726 0.0022,-0.4205932 0.0013,-0.1161363 0.0071,-0.2015688 0.0074,-0.3154442 9.8e-4,-0.2941518 -0.0074,-0.6189017 -0.008,-0.9463331 C 27.575781,3.2489678 27.57344,3.1284155 27.5438,2.959232 27.46688,2.4413181 27.268771,1.7084872 27.3658,1.3294354 M 40.03484,7.7941302 C 39.889221,7.8411388 39.612368,7.8966512 39.457851,7.9004354 39.0381,7.9106443 38.472664,7.7468142 38.158535,7.4226426 37.938459,7.1954699 37.716439,6.9237142 37.598306,6.6394986 37.504036,6.4127988 37.44416,6.2132807 37.416609,5.9560347 c -0.05925,-0.5529202 -0.02365,-1.1563135 0.118293,-1.6823692 0.09631,-0.3568201 0.169971,-0.7006552 0.332161,-1.0514818 0.360917,-0.6845174 0.92902,-1.6564757 1.170198,-0.99895 m -31.3340845,2.1e-6 C 6.9841003,1.8796308 6.4572945,2.7415921 6.239094,3.2746757 6.2154071,3.4415464 6.2649546,3.7688725 6.3811595,3.9579293 6.5749416,4.2732147 7.2329271,4.6780359 7.5454539,4.8771336 7.7211042,4.9890109 7.8638378,5.0435301 7.9685227,5.2227553 8.233428,5.676365 7.8329085,6.0962215 7.440264,6.3103553 6.9913132,6.5552456 6.7684779,6.743093 6.2311025,6.7445647 M 22.161048,2.012898 c 0.04679,0.251988 0.03548,0.3447811 0.105147,0.5783151 0.03786,0.2994618 0.127702,0.6008695 0.246467,0.8937587 0.155566,0.3838967 0.07208,0.4992964 0.2267,0.7886117 L 22.177358,4.4313052 M 7.7031765,2.2231941 C 8.131461,2.4535746 7.9414106,2.7775879 7.6506002,3.0118063 M 43.163729,3.735946 c 0.03,0.138001 0.09524,0.2591412 0.237244,0.4324894 M 20.53125,4.0632874 c -0.171024,-0.4217492 -0.659017,-0.2160275 -0.926461,0.2649213 -0.25367,0.4562367 0.157301,0.6626952 0.366573,0.7446695 0.209273,0.081973 0.34034,0.1186128 0.507315,0.1581457 0.359081,0.084904 1.074667,0.3457793 0.996962,0.8300395 -0.03754,0.2340588 -0.234848,0.3795843 -0.418647,0.4943541 -0.508812,0.3176517 -0.959845,0.3669667 -1.314353,0.084013 m 7.841527,-2.2606993 c 0.280062,-0.025228 0.636356,-0.2791166 1.148638,-0.4273222 0.147102,-0.042588 0.309819,-0.085696 0.473167,-0.118975 0.191002,-0.038963 0.316075,7.99e-4 0.473167,0.020554 M 47.974915,8.3743583 C 48.574337,8.035048 48.973176,7.7729613 49.529792,7.3132032 49.677263,7.1625778 49.874048,6.9856135 49.882776,6.7445626 49.908376,6.0341291 48.496555,5.8086908 48.085744,5.4608082 47.410923,4.6427128 48.509326,4.4755333 48.919689,4.1963463 m -26.180327,0.077243 c 0.01032,0.1304884 -0.01871,0.1915729 -0.0045,0.3680107 0.01267,0.157197 0.05205,0.4556079 0.05631,0.6308894 0.01021,0.4153356 -0.07943,0.9487522 -0.104358,1.2617778 m 0.05258,-2.260685 1.472074,0.2628707 M 8.7020837,4.3787316 C 8.8390287,4.6006458 8.8060968,4.6216755 8.816033,4.8518984 8.821733,4.9833337 8.855238,5.089533 8.894327,5.2199162 8.943643,5.3844206 8.965619,5.528894 9.0204103,5.693083 9.1052243,5.9472263 9.2456896,6.2545222 9.5440425,6.3478419 9.8074753,6.4302249 9.9940453,6.1571545 10.07206,5.993492 c 0.09195,-0.1928949 0.0051,-0.4591818 -0.003,-0.5632796 m 2.538156,-0.1971209 c 0.209224,-0.00472 0.684786,-5.488e-4 0.695287,-0.3237298 -1.091771,-0.8478408 -2.220855,0.1387917 -0.865579,1.0339735 0.301564,0.2020427 0.534678,0.308347 0.839134,0.3806363 m 3.838917,0.2682334 C 17.024993,6.401309 17.234337,5.6227393 17.294111,5.2199162 17.280161,4.161504 18.099005,4.705875 18.295328,5.114769 c 0.05452,0.1222866 0.08454,0.2348481 0.108514,0.3680179 0.03207,0.177701 0.04863,0.3323734 0.0037,0.5255301 -0.176387,0.7584345 -0.833141,0.3293767 -1.292638,0.5838879 -0.372871,0.5959415 -0.291843,0.8472003 -0.296743,1.2895411 M 14.432557,5.4302044 c 0.02235,-0.1096682 0.09599,-0.2622311 0.317757,-0.4057058 0.228014,-0.1475227 0.963157,-0.2587159 0.963157,0.09179 0,0.2256494 -0.339628,0.2786435 -0.492303,0.308927 -0.374958,0.074339 -0.569115,0.083176 -0.788611,0.00499 -0.120237,0.5132795 0.455817,0.9843966 1.15663,1.2617778 M 30.520223,6.0085237 c 0.328695,-0.09742 0.713484,-0.3312697 0.899335,-0.6310987 0.199307,-0.3216488 -0.09048,-0.5450347 -0.373592,-0.5076558 -0.208983,0.027598 -0.399406,0.082641 -0.578316,0.2150281 -0.439577,0.3252754 -0.657071,0.8235731 -0.486363,1.3443187 0.346677,0.7579757 0.839245,0.8967692 1.542936,1.0514852 M 25.630935,5.8508136 c -0.429108,0.2474131 -1.371394,0.2785366 -1.687942,-0.1676597 -0.199624,-0.2813765 0.02429,-0.51654 0.269232,-0.6361461 0.275278,-0.134432 0.484996,-0.2043027 0.787769,-0.016186 0.295624,0.183641 0.334688,0.4109714 0.555077,0.653706 0.206091,0.2270142 0.667649,0.062055 0.890826,-0.0572 M 11.120491,4.9570367 C 11.537895,5.6532891 11.325937,6.7443135 10.437292,6.178601 10.283196,6.0762884 10.149448,6.0503789 10.072059,5.993492 M 27.574545,5.114769 c 0.05903,0.04863 0.206935,0.1371268 0.340681,0.2621473 0.187007,0.1747569 0.603867,0.5216925 0.787088,0.7367733 0.238633,0.2801151 0.657332,0.840765 0.766529,1.0514816 M 45.030771,6.5868394 c -0.188676,0.8987816 0.09677,0.2251114 0.218656,-0.05336 0.114449,-0.2740683 0.132802,-0.7697372 0.459338,-0.7259953 0.171446,0.022974 0.259346,0.3458854 0.304669,0.4639139 0.184112,0.4798444 0.232428,0.844445 0.541985,1.2092042 M 40.930535,6.5176485 c -1.215157,0.8837106 -0.118384,1.6875992 0.772018,0.7901227 0.306875,-0.3158121 0.457029,-0.7826176 0.06756,-1.1343913 -0.311398,-0.2813008 -0.610017,-0.1329889 -0.89276,-0.00713 m 2.378063,-0.6122196 c -0.526865,0.9913673 0.197332,1.2747794 0.226373,1.8214211 M 32.518142,7.9537751 C 33.095471,7.8514679 34.439053,7.4664995 34.334417,6.8505083 34.177851,6.1907028 33.0371,6.1433343 32.652939,5.6757931 32.509622,5.501299 32.521663,5.2449483 32.651247,5.0774997 c 0.250183,-0.3356133 0.54638,-0.1488989 0.865684,0.037272 m -3.522627,5.1123873 c 0.218714,0.208557 0.215262,0.397137 0.241522,0.683464 l 0.07393,0.893759 v 0.525741 l -0.03754,0.736036 -0.01499,0.525742 0.05252,0.420593 c 0.112875,-0.12581 0.225646,-0.223178 0.394305,-0.630892 0.141379,-0.330114 0.378903,-0.843342 0.814899,-0.81879 0.218707,0.0123 0.388102,0.214239 0.481631,0.398407 0.270019,0.531682 0.10273,1.145746 -0.323961,1.513397 -0.304615,0.262502 -0.870943,0.418016 -1.155186,0.5009 -0.284243,0.08288 -0.658777,-0.100809 -0.572769,-0.332187 0.09127,-0.245469 0.187484,-0.345831 0.361081,-0.630835 M 23.107108,10.49003 c 0.05462,0.432159 0.10073,0.995543 0.189846,1.472075 0.170287,0.910635 0.0295,2.040819 0.283321,2.944147 M 9.9635778,11.06834 c 0.3428352,-0.203252 0.6447692,-0.06104 0.9989092,-0.05178 0.154725,0.0039 0.386261,0.03217 0.525687,0.05673 0.107304,0.01893 0.245836,0.04285 0.304089,0.170866 0.05421,0.119081 -0.02024,0.225121 -0.06294,0.297411 -0.154936,0.262134 -0.716691,0.68625 -0.600081,0.923463 0.161823,0.329115 0.886084,0.110826 1.16846,0.459289 0.145787,0.17996 0.07728,0.437573 -0.03475,0.61501 -0.101782,0.161193 -0.214135,0.275804 -0.352825,0.405399 -0.36292,0.338893 -0.76285,0.767162 -1.263093,0.85638 m -4.5739447,-3.2596 C 6.2062878,10.98892 6.7043637,11.04124 7.124573,11.083525 c 0.1972055,0.02071 0.3135521,0.02713 0.5257412,0.03964 0.3169168,0.01872 0.6965011,0.130278 0.8528562,0.473166 0.1289116,0.282691 -0.050732,0.646608 -0.1983609,0.891499 -0.1633116,0.357624 -0.3762366,0.637482 -0.6400372,0.8609 -0.1914749,0.184168 -0.6170621,0.559704 -0.6600157,0.873045 -0.042163,0.307348 0.3904683,0.253512 0.5929832,0.272807 0.5798925,0.0552 0.8936014,0.0069 1.2617787,-0.009 m 5.8882995,-3.101861 c -0.230117,-0.220921 -0.568905,-0.144742 -0.782671,4.68e-4 -0.167927,0.114033 -0.209511,0.325276 -0.103521,0.525268 0.110931,0.209402 0.398564,0.463967 0.570744,0.615853 0.113928,0.100522 0.202883,0.172496 0.315444,0.279957 0.179908,0.171758 0.347515,0.317809 0.55371,0.52369 0.195152,0.19484 0.38889,0.515121 0.266079,0.788398 -0.08323,0.185165 -0.258561,0.346384 -0.451769,0.341574 -0.158302,-0.0039 -0.38032,-0.09752 -0.548528,-0.517569 -0.168208,-0.42005 -0.09871,-0.673832 8.3e-5,-0.822669 0.07765,-0.11703 0.08542,-0.221523 0.180425,-0.313424 0.104042,-0.100677 0.247739,-0.130302 0.368028,-0.20033 0.466332,-0.271441 0.895285,-0.267497 1.209204,-0.274857 m 3.101867,-1.104081 c -0.579746,0.342823 -0.733331,0.965281 -0.982506,1.524671 -0.159193,0.35803 -0.217971,0.763587 -0.119237,1.15663 0.248413,0.988708 1.726689,1.357936 2.36352,1.051482 m 32.648504,-3.469913 c -0.06441,0.203725 -0.120186,0.438941 -0.09636,0.736037 0.01136,0.142371 0.02161,0.258034 0.02777,0.420593 0.0068,0.177227 0.01977,0.338893 0.01524,0.525742 -0.005,0.207035 -0.0299,0.302719 -0.05178,0.420591 l 0.473166,0.05258 M 37.932987,12.119826 c 0.01652,-0.317705 0.23511,-0.734985 0.458549,-0.407764 0.07282,0.10662 0.07481,0.226121 0.164084,0.325802 0.112196,0.125178 0.235479,0.125598 0.35577,0.251671 0.10225,0.107094 0.193471,0.280851 0.283531,0.408605 0.29941,0.424694 0.772998,1.180289 0.875937,1.682371 0.0388,0.189371 0.04274,0.306822 0.122813,0.473167 l 0.578316,-0.05258 m 7.99126,-3.154444 c -0.101104,0.31965 -0.05263,0.725837 -0.05258,1.051482 0,0.118186 -0.01865,0.281376 0.01668,0.411654 0.05693,0.209929 0.230956,0.335738 0.284899,0.482157 0.187532,0.508917 0.171602,1.221034 0.171602,1.524596 -0.09595,-0.0041 -0.217604,-0.01687 -0.473168,-0.05263 -0.174542,-0.0244 -0.316075,-0.0951 -0.456656,-0.005 -0.10946,0.07013 -0.133066,0.218496 -0.168025,0.320491 -0.148632,0.434051 -0.261348,0.624475 -0.426796,0.89376 m -9.103583,-4.2353 c -0.0012,0.36539 -0.01966,1.158254 -0.09952,1.869476 -0.02643,0.235216 -0.117505,0.603393 0.0041,0.756909 0.06582,0.08307 0.169393,0.07892 0.261659,0.08328 0.198523,0.0094 0.475165,0.0063 0.683202,0.0023 0.409342,-0.0079 0.607862,0.16668 0.78861,0.103824 m 16.718557,-2.576127 c -0.06466,0.408659 -0.547822,0.81779 -0.508389,1.261515 0.0263,0.292576 0.286,0.339892 0.508389,0.385842 0.265502,0.05489 0.557288,0.03018 0.841189,0.03576 0.186636,0.0037 0.386417,0.01793 0.525738,0.0039 0.25814,-0.02582 0.225018,-0.04117 0.525739,-0.10988 M 35.882595,12.645566 c -0.607997,-0.162508 -1.235097,0.53868 -1.112834,0.998904 0.18033,0.583835 1.153529,0.633045 1.299316,1.261777 0.08054,0.347252 -0.318179,0.68993 -0.554498,0.813953 -0.402033,0.211032 -0.554551,0.265078 -0.946333,0.395252 M 58.3843,12.59299 c 0.03206,0.311606 0.01262,0.336106 -0.05467,0.630889 -0.03049,0.133486 -0.08991,0.236636 -0.0702,0.545455 0.01971,0.308819 0.02972,0.284688 0.01749,0.558599 -0.02735,0.623266 -0.159302,1.761756 -0.05047,2.260685 m 4.521502,-3.837908 c 0.157198,0.660541 0.01629,1.770958 -0.09095,2.523556 -0.04574,0.323067 -0.08043,0.584571 -0.119342,0.89376 M 24.211153,13.749618 c 0.07077,0.258611 0.271072,0.826569 0.630679,0.749128 0.202304,-0.04359 0.41628,-0.431054 0.578522,-0.433683 0.113743,0.147815 0.225389,0.292651 0.387555,0.416459 m 22.919438,-1.371728 c -0.05562,0.08428 -0.133652,0.274959 -0.16341,0.42979 -0.02241,0.116399 -0.03974,0.286792 -0.06988,0.42033 -0.0887,0.39336 -0.23715,0.776998 -0.240037,1.099015 m -3.95958,0.530782 c -0.66932,0.03854 -1.393516,-0.351409 -1.237686,-1.086079 0.05605,-0.264237 0.171452,-0.51883 0.350993,-0.736381 0.104991,-0.127229 1.065446,-0.712452 0.963874,-0.121783 -0.05574,0.324015 -0.371437,0.605392 -0.562334,0.892762 -0.130912,0.197099 -0.169024,0.337735 -0.250882,0.52574 m 8.885018,-2.036326 c 0.426058,0.131014 0.694442,0.152538 0.786735,0.572285 0.0832,0.378432 0.04121,0.841763 -0.0469,1.314299 -0.05583,0.299515 -0.08465,0.362498 -0.08544,0.630889 m 6.65339,-2.058369 c 0.587779,3.9e-5 1.176084,0.01519 1.566711,0.473429 0.181379,0.213241 0.159822,0.297359 0.204509,0.525478 0.06098,0.311712 -0.07623,0.692769 -0.309135,0.941602 -0.221861,0.237529 -0.490518,0.428741 -0.831197,0.510704 -0.321224,0.07739 -0.648762,0.045 -0.885871,-0.200254 -0.113559,-0.117503 -0.157722,-0.246204 -0.164558,-0.410866 -0.0048,-0.119081 -0.0085,-0.20341 0.01102,-0.315446 0.08228,-0.390103 0.29197,-0.583133 0.566256,-0.946324 m -38.48423,-0.368018 c 0.48773,-0.06677 0.672738,-0.176071 0.89276,0.316233 0.127071,0.284163 -0.07712,0.62048 -0.367072,0.795341 -0.651235,0.392833 -1.266194,-0.239948 -0.630836,-0.743554 M 32.517846,13.53933 c 0.05731,0.279064 0.05441,0.927881 0.313868,1.249003 0.256929,0.317969 0.494194,-0.03864 0.68972,-0.302669 0.509597,-1.182848 0.502843,-0.07877 0.941652,0.36802 M 25.47293,13.591896 c -0.04568,0.19179 -0.05095,0.277065 -0.05258,0.473167 m 16.876281,-0.105149 c -0.008,0.344465 -0.100104,0.577158 -0.280642,0.89376 -0.109246,0.191632 -0.269915,0.487046 -0.508125,0.538832 -0.379637,0.08244 -0.526424,-0.633412 -0.578159,-0.854276 m 10.774576,1.209207 c -0.132327,0.287581 -0.452612,0.614591 -0.785456,0.667849 -0.136694,0.02187 -0.242421,0.0012 -0.314026,-0.106252 -0.04222,-0.0634 -0.06866,-0.445618 0.240266,-1.224505 0.222108,-1.689802 1.184927,-0.102954 0.859216,0.662908 z m -5.464593,-1.366931 c 0.138532,0.418648 0.351348,0.910163 0.455501,1.419501 0.03391,0.165766 0.07271,0.300776 0.05425,0.473166 -0.05104,0.477215 -0.725469,1.426389 -1.0355,0.841186 M 26.184432,13.694973 c 0.03385,2.495032 0.850739,-1.643582 1.179115,0.317515 -0.08029,0.860319 0.174416,0.426828 0.391376,0.155357 0.412755,-0.576449 0.96497,-1.291196 0.97751,-0.313079 0.0025,0.510652 -0.262556,1.623749 0.420645,1.734945 m 9.307118,-0.925462 -0.422066,1.240905 m 2.155537,-1.051482 c 0,0.233114 0.09069,0.486836 -0.105148,0.893759 m 7.639761,-0.846225 0.525744,0.157723 m 1.770996,0.110187 c -0.501504,-3.8e-5 -0.64523,-0.095 -0.841172,-0.05257 -0.0017,0.202568 -0.01863,0.565271 -0.21031,0.84118 m 1.631265,0.351307 c 0.01949,0.289593 -0.106805,0.573222 -0.227191,0.933355 M 8.7938926,18.027694 C 8.5006636,17.699237 8.0854581,17.307 7.4400225,17.550203 c -0.9184767,0.486162 -0.3012329,1.28413 0.3154398,1.782573 0.4767408,0.38784 1.0039528,0.733461 1.4547756,1.171456 0.5852348,1.000492 -1.1452722,1.491887 -1.819688,1.161254 C 7.0459794,21.48868 7.3225268,21.258984 7.5977451,21.215137 M 15.7993,17.482386 c 0.24326,0.523217 0.100417,0.919469 0.127493,1.419501 0.01051,0.193472 0.02944,0.306874 0.03018,0.52574 0.0014,0.403612 0.104254,0.581101 -0.140429,0.9121 -0.244682,0.330998 -0.428482,0.768415 -0.82084,1.111197 -0.103522,0.09043 -0.252672,0.219234 -0.394306,0.191055 -0.12192,-0.02429 -0.170131,-0.151887 -0.177596,-0.269391 -0.0132,-0.208666 0.08207,-0.411916 0.160877,-0.630625 0.09721,-0.269653 0.260084,-0.53431 0.531155,-0.63089 m 6.992351,-1.840082 c -0.150309,0.310608 -0.181907,0.948752 -0.205354,1.419501 -0.0074,0.148522 -0.01482,0.287948 0.116924,0.361657 0.118922,0.06651 0.289788,-0.0073 0.403875,-0.04701 0.647148,-0.161269 0.888986,-0.439323 1.366925,-0.630101 m 10.725116,-0.841187 c 0.12702,0.167659 0.101522,0.337158 0.144315,0.52574 0.109618,0.482946 0.167924,0.87457 0.17113,1.261778 -0.09905,-0.002 -0.35372,-0.05047 -0.683463,-0.05184 -0.096,-4.13e-4 -0.237266,0.0074 -0.36802,-0.01834 -0.272298,-0.08709 -0.307002,-0.01732 -0.578314,0.122756 m 0.368021,-1.62979 c 0.0036,0.42238 0.207349,1.15279 0.210293,1.507034 m 5.940869,-1.086441 c -0.0562,0.09153 -0.136639,0.200414 -0.195366,0.315708 -0.06283,0.123234 -0.103729,0.276908 -0.143422,0.42033 -0.148888,0.537886 -0.134169,1.127976 0.549085,1.183021 0.261977,0.02109 0.539149,-0.06214 0.788613,-0.112035 0.17039,-0.03406 0.350615,-0.0632 0.525689,-0.120184 0.181796,-0.0592 0.282163,-0.03917 0.360551,-0.222494 0.202672,-0.625735 -0.01489,-0.960322 0.07323,-1.308694 m -11.52398,-0.04735 c 0.274277,-0.03897 0.442462,0.367597 0.58641,0.463493 0.148103,0.09863 0.237582,0.101677 0.407554,0.203619 0.15399,0.09243 0.25651,0.205618 0.374747,0.32943 0.18869,0.197677 0.444357,0.500032 0.507182,0.787822 0.103574,0.474007 -0.207929,1.161887 -0.774784,1.250527 -0.484418,0.07581 -0.942125,-0.2359 -1.202316,-0.621689 -0.110563,-0.163925 -0.197992,-0.342888 -0.272279,-0.52369 -0.211137,-0.556345 -0.160245,-1.00631 0.04626,-1.472074 0.05962,-0.1399 0.14516,-0.391572 0.327224,-0.417438 m 17.714572,-0.0031 c 0.16077,0.04585 0.321229,0.08906 0.683461,0.201411 0.22197,0.06887 0.709491,0.102365 0.808483,0.338208 0.101,0.240526 -0.165344,0.573531 -0.275275,0.774732 -0.327275,0.599029 -0.756803,1.47812 -1.058947,2.155537 m -0.946313,-2.313272 c -0.311029,-0.08228 -0.654759,-0.161035 -1.051486,0.05031 -0.189053,0.100677 -0.505498,0.423695 -0.684248,0.434156 -0.09484,0.0055 -0.179123,-0.02703 -0.262029,-0.06025 -0.723894,-0.290104 0.0101,-1.278076 0.525689,-1.468656 0.307716,-0.113824 0.389575,0.16729 0.368017,0.360973 m -1.997818,0 -0.158296,0.893759 -0.131597,0.441464 -0.709011,0.136798 c -0.495044,-0.07937 -0.590677,-0.05216 -0.641983,-0.525688 0.109936,-0.425272 0.312226,-0.78661 0.536829,-1.15663 m 1.104057,0.05258 v 0.157684 m -31.229,1.840092 c 0.01372,-0.157143 0.09369,-0.63378 0.188426,-0.773574 0.12723,-0.187795 0.191948,-0.15972 0.271544,-0.435681 0.08796,-0.304825 0.13806,-0.638144 0.42338,-0.580997 0.156408,0.03129 0.275067,0.34231 0.305508,0.475902 0.102677,0.449823 0.132855,1.040177 0.125495,1.31435 m 5.362553,0.157724 c 0.225176,0.252513 0.557496,0.323593 0.946335,0.22286 0.231167,-0.05988 0.552027,-0.208876 0.505919,-0.485572 -0.602915,-1.24821 -2.967156,-1.116616 -0.742368,-1.868767 m -7.303514,0.411569 0.105148,0.788612 m 5.436992,-0.751073 c -0.04852,0.358607 -0.14153,0.443672 -0.194997,0.788611 -0.07723,0.49819 0.174125,0.868785 0.510442,1.104054 m 3.143091,-1.828199 c 0.01488,0.457027 0.701702,0.842699 1.047062,1.249885 0.231588,0.273018 0.41339,0.534889 0.594086,0.630888 M 11.434654,20.727196 c -0.118081,-0.0664 -0.195366,-0.113039 -0.305508,-0.207247 -0.114875,-0.09821 -0.181854,-0.198367 -0.326433,-0.258559 -0.131329,-0.05468 -0.340606,0.116176 -0.456321,0.211707 -0.534155,1.477854 1.380953,-0.418307 1.720149,1.00491 m 3.895439,-1.447549 c 0.09311,0.12581 0.0983,0.470876 0.141462,0.658934 0.121341,0.528947 0.241,0.849438 0.379322,1.261778 m 17.29687,-1.699979 0.05277,0.334365 0.05236,0.471851 0.157721,1.366927 m 0.73605,0.05258 c 0.155409,-0.32107 0.20809,-0.762272 0.183273,-1.15663 -0.01224,-0.194682 -0.03165,-0.395357 -0.05583,-0.578209 -0.0237,-0.179751 -0.074,-0.322071 -0.07486,-0.420701 l 0.946319,0.2103 m -9.515898,-0.05258 c -0.243997,0.287633 -0.517223,0.655598 -0.696869,0.998907 -0.08292,0.158512 -0.13296,0.307191 -0.209402,0.473167 -0.06798,0.147628 -0.140689,0.27633 -0.208825,0.420593 -0.07234,0.153306 -0.10888,0.255089 -0.176965,0.420592 -0.16729,0.406766 -0.266233,0.789084 -0.180013,1.15663 m -7.728384,-3.417307 c 0.01272,0.291997 0.05778,0.870732 0.421592,0.923884 0.29515,0.04316 0.524322,-0.220912 0.69645,-0.356921 m 3.723706,-1.408147 c -0.09248,0.388365 -0.215233,1.872477 -0.215233,2.576129 m 28.968318,-1.524649 c 0.171918,0.06488 0.280639,0.09537 0.473166,0.134117 0.375064,0.07544 1.37534,0.03276 1.402569,0.602709 0.0204,0.426323 -0.431947,0.760222 -0.719109,0.967153 -0.120447,0.08685 -0.228117,0.144211 -0.368016,0.196838 -0.188743,0.07102 -0.390152,0.205143 -0.578316,0.268495 -0.126071,0.04248 -0.23427,0.03691 -0.368016,0.03817 -0.358819,0.0036 -0.711592,-0.108987 -0.855278,-0.472536 -0.07455,-0.188425 -0.04948,-0.386577 0.01408,-0.578315 m -8.051348,-1.269509 c -0.01888,0.439887 -0.149466,0.967626 -0.157725,1.366925 m 4.029011,-1.135362 c 0.255402,0.222126 0.870682,0.423303 0.981138,0.779808 0.155255,0.501189 -0.682989,1.0968 -1.10726,0.915946 -0.512282,-0.218341 -0.251901,-1.020928 -0.146174,-1.356139 m -20.940912,-0.248 c 7.45e-4,0.263134 0.01945,0.536939 0.193684,0.773575 0.252251,0.342625 0.449822,0.482093 0.689035,0.645914 m 24.510558,-0.473156 c 0.04922,-0.242945 0.252887,-0.672691 0.47317,-0.736043 m -6.441053,-0.08425 -0.105151,1.524649 M 28.049059,21.478007 c 0.223913,0.299251 0.236426,0.500031 0.285372,0.841186 0.08943,0.622739 -0.03738,1.134338 -0.337945,1.682369 m -6.203745,4.994531 c -0.108304,-0.341624 -0.110616,-0.661118 -0.160352,-1.104054 -0.01861,-0.165504 -0.0645,-0.43584 -0.04358,-0.578315 0.02545,-0.172865 0.06399,-0.218341 0.108723,-0.368019 0.0593,-0.198467 0.120342,-0.424641 0.237108,-0.566328 0.132698,-0.160983 0.302407,-0.183957 0.488992,-0.1583 0.327642,0.045 0.654915,0.241525 0.879144,0.515121 0.140846,0.171811 0.210401,0.362866 0.217919,0.577526 0.01729,0.493145 -0.393675,0.898174 -0.729097,1.194167 -0.138796,0.122551 -0.301092,0.269704 -0.473115,0.3605 -0.241209,0.127335 -0.34599,0.05373 -0.471694,0.248781 -0.174861,0.271282 -0.04832,0.966941 -0.05405,1.245846 m 4.153351,-3.943054 c 0.259307,0.930515 0.455119,1.926509 0.521014,2.839002 0.01287,0.187794 0.0029,0.298461 0.0049,0.473166 0.0032,0.274173 0.03659,0.642509 0.157512,0.89376 m -5.40873,-3.785335 c 0.01904,0.239475 0.176911,0.345044 0.368019,0.473167 m 8.090007,0.683462 c 0.127542,0.0172 0.244468,0.03865 0.368124,0.0757 0.246678,0.07393 0.871519,0.225123 0.998907,0.508289 0.1256,0.279114 -0.422432,0.79555 -0.615957,1.04354 -0.216449,0.277434 -0.69929,0.544983 -0.403717,0.853015 0.219548,0.228804 1.003849,0.420804 1.335014,0.4636 m 4.41622,0.578314 c -0.667057,0.08433 -1.157837,-0.07334 -1.551881,-0.736037 -0.295149,-0.496405 -0.333897,-1.107053 -0.146523,-1.629798 0.05263,-0.146785 0.0694,-0.286896 0.159772,-0.406185 0.113666,-0.150099 0.270337,-0.247992 0.434577,-0.382426 m 5.152303,2.155545 c 0.176175,-0.572899 0.302301,-0.465964 0.565068,-0.902906 0.09952,-0.165451 0.251353,-0.584625 0.362181,-0.721106 0.265592,-0.244274 0.39224,-0.15257 0.482314,0.151991 0.02766,0.198152 0.04758,0.78756 0.06798,0.998855 0.239235,0.942261 0.83157,-0.113586 1.088598,-0.525741 0.08654,-0.136167 0.169658,-0.235689 0.26471,-0.368019 0.649139,-1.029735 0.874213,-0.608601 0.774413,0.210297 -0.02596,0.205882 -0.01924,0.35351 0.0073,0.578315 0.02172,0.183431 0.01241,0.298254 0.03754,0.473167 0.05356,0.372961 0.215762,0.644347 0.503234,0.78861 M 27.36559,30.888767 c 0.270231,0.14421 1.280917,0.08333 1.280917,-0.473219 0,-0.731463 -1.378967,-0.709751 -1.583112,-1.267246 -0.09243,-0.252461 0.262924,-0.564751 0.5096,-0.52716 0.203357,0.03097 0.224492,0.172231 0.265763,0.26981 M 9.437832,28.733229 c 0.2544061,0.229697 0.5544979,0.398932 0.6536,0.736039 0.12376,0.421066 0.02166,1.536528 -0.6536,1.431117 -0.362656,-0.05657 -0.6571761,-0.540566 -0.7967072,-0.800124 -0.065663,-0.12213 -0.074553,-0.44646 -0.2547776,-0.420698 -0.2409475,0.03449 -0.474372,0.604812 -0.7886074,0.65581 C 7.3302431,30.378791 6.913541,30.114878 6.796773,29.927239 6.716127,29.797645 6.7119223,29.718206 6.6553498,29.574415 6.4813404,29.08959 6.2861027,28.883071 6.598845,28.470358 m 4.416213,0.420599 c -0.06256,0.212188 -0.02419,0.588146 0.02708,0.78861 0.06146,0.240529 0.182695,0.443094 0.394306,0.578578 0.139636,0.08943 0.303351,0.153885 0.472377,0.178122 0.16687,0.02387 0.312027,-0.04447 0.473167,-0.04847 0.212819,-0.0053 0.28106,0.119712 0.473166,0.226383 0.494092,0.274438 0.90317,0.174599 1.267982,0.03192 0.364811,-0.142685 0.543617,-0.382686 0.480947,-0.651075 -0.06461,-0.276859 -0.327799,-0.464914 -0.539724,-0.598504 -0.199677,-0.125916 -0.420751,-0.257249 -0.630889,-0.347832 m 4.521369,0.05258 c 0.639197,0.460865 1.008529,1.739466 -0.105147,1.969214 -0.273859,0.05651 -0.737878,-0.101313 -0.946333,-0.226909 -0.187586,-0.112984 -0.28164,-0.179803 -0.420593,-0.217656 -0.0041,-0.492199 -0.106989,-0.554079 -0.315446,-0.736038 m 8.517001,-0.630889 c 0.03249,0.432 0.545771,1.17666 0.893758,1.314352 M 8.4389253,29.364117 8.3863472,29.679563 m 15.0887578,-0.26287 c -0.05646,0.176228 -0.170708,0.374538 -0.130173,0.578317 0.04064,0.204144 0.276487,0.483154 0.550767,0.445406 0.245363,-0.0337 0.411233,-0.251934 0.545981,-0.445619 0.111088,-0.159616 0.232672,-0.277199 0.336296,-0.408054 m -12.133129,0.09282 c -0.122655,0.185797 -0.2616,0.267454 -0.262862,0.708235 m 24.341788,-0.813383 c 0.128965,-0.02393 0.247834,-0.04942 0.420591,-0.05163 0.534733,-0.0067 1.855079,0.529629 1.280757,1.312456 -0.271177,0.369545 -0.837345,0.556763 -1.228182,0.50282 -0.133328,-0.01847 -0.248464,-0.04185 -0.365759,-0.120079 -0.29804,-0.198939 -0.39625,-0.560335 -0.35524,-0.907533 0.01435,-0.12171 0.03106,-0.270601 0.0522,-0.367966 0.192263,-0.445637 -0.05716,-0.367416 -0.153526,-0.384509 m -20.996268,-0.02357 c -0.161591,0.470298 0.09007,0.68818 0.176118,0.828411 0.194471,0.537307 0.675051,0.44525 0.9283,0.263082 m 3.575037,-0.736038 0.105147,0.315443 m 12.828077,0.420591 c -0.154778,0.08259 -0.266392,0.104306 -0.525741,0.105146 m 58.30465,3.943055 c 0.02102,0.135431 0.161399,0.494724 0.569377,1.166912 0.407987,0.672189 0.939514,1.909779 1.44738,2.881299 0.268645,0.513541 0.452653,1.074034 0.675046,1.629792 0.266026,0.665958 0.600396,1.763176 1.040969,2.155539 m 8.043834,-6.466609 v 0.736039 0.368015 c 0,0.395095 -0.0526,0.912057 -0.0526,1.314352 0,0.37023 -0.0516,0.645453 -0.0526,1.051482 -5.5e-4,0.184327 -0.008,0.303879 -0.0305,0.473167 -0.0363,0.279117 -0.0714,0.574897 -0.0747,0.893759 -0.002,0.181639 -0.0147,0.285686 -0.0379,0.473167 -0.04,0.329109 -0.0941,0.541405 -0.11514,0.841185 -0.0399,0.566221 -0.0779,1.293477 -0.20189,1.840092 -0.0462,0.205247 -0.0542,0.367702 -0.0747,0.578314 -0.0573,0.59209 -0.26813,1.363613 -0.0961,1.945242 m 1.99781,-10.462243 v 1.4195 l -0.0505,0.63089 -0.002,0.683464 v 1.577224 l -0.0306,0.525738 -0.0221,0.368016 -0.21923,2.365834 -0.33962,2.470982 0.0857,0.736039 M 97.148652,36.34908 c 0.06966,-0.0074 0.126969,0.368624 0.05078,1.006292 -0.01791,0.148891 -0.01737,0.268602 -0.03733,0.420594 -0.02209,0.165085 -0.031,0.30698 -0.06574,0.473167 -0.05363,0.262029 -0.107246,0.534314 -0.180329,0.788612 -0.362235,1.256049 -0.945803,2.431968 -1.474176,3.62761 -0.105152,0.23879 -0.175073,0.452613 -0.300723,0.683461 -0.411132,0.754125 -0.826468,1.693255 -0.953695,2.365833 M 120.2116,46.50326 c 0.52364,0.494777 1.62823,0.233065 2.36584,-0.206245 0.57463,-0.342255 1.32223,-0.88277 1.25599,-1.633845 -0.0484,-0.551502 -0.63194,-1.04533 -0.98839,-1.41871 -0.93634,-0.980351 -2.27278,-1.997974 -2.67866,-3.365531 -0.13195,-0.445617 -0.29545,-0.858325 -0.11618,-1.314349 0.3023,-0.771 0.99523,-1.441268 1.73863,-1.749088 0.36644,-0.151784 0.78335,-0.215659 1.15453,-0.0043 0.15351,0.08734 0.24499,0.188743 0.3412,0.334686 0.11934,0.180856 0.17718,0.327642 0.16193,0.52495 -0.0284,0.376484 -0.15088,0.650712 -0.29073,0.946336 m 16.29796,0.315444 c -0.0663,0.668329 0.0316,1.070616 2e-4,1.787514 0,0.291785 0.004,0.430998 0.007,0.68346 0.002,0.16214 -0.007,0.299567 -0.007,0.473166 -0.002,0.575005 -0.05,1.269929 -0.0526,1.840095 -8.9e-4,0.180014 -0.011,0.300039 -0.0526,0.473166 -0.0416,0.171232 -0.0689,0.307244 -0.0899,0.473167 -0.0383,0.299831 -0.0263,0.752807 -0.0699,1.051479 -0.0909,0.621637 -0.23553,1.346372 -0.0504,1.892667 m 7.62345,-6.62623 c -0.37816,0.01761 0.22305,-0.17315 0.26288,-0.186848 0.38009,-0.136795 0.68555,-0.176595 1.05147,-0.180958 0.35961,-0.0043 0.67767,-2.76e-4 0.9989,-2.76e-4 0.1735,0 0.29968,-0.0072 0.47317,0.0047 0.3265,0.0224 0.5147,0.06908 0.78862,0.113403 0.13827,0.0224 0.23448,0.03312 0.36801,0.03964 0.60986,0.02986 1.17346,0.190788 1.57723,0.42059 m 2.1231,5.386614 c 0.3901,-0.08475 0.87694,0.05062 1.31436,0.05252 0.1798,8.26e-4 0.37118,0.0266 0.45635,-0.08423 0.0714,-0.09258 0.0615,-0.184063 0.0673,-0.283795 0.0216,-0.348673 0.0547,-1.017571 0.0547,-1.419449 0,-1.010785 -0.0647,-2.032774 0.0499,-2.996722 0.0232,-0.19589 0.14459,-0.438886 0.17981,-0.630888 0.0505,-0.274223 0.0252,-0.482315 0.34857,-0.578312 m -8.01177,0.924354 0.15562,1.787517 -0.18663,1.945245 -0.40061,1.577221 -0.30441,0.893758 m 23.23774,-6.203741 c -0.04,0.402192 -0.10515,0.912375 -0.10515,1.366929 0,1.056317 0.0583,2.140184 -0.0747,3.154444 -0.021,0.159194 -0.0284,0.271125 -0.0306,0.420588 -0.0111,0.661595 -0.0915,0.867895 -0.15771,1.209207 l -0.36804,-0.07465 -0.78861,-0.225914 -0.99889,-0.33032 m -35.17896,-4.685746 0.15773,0.157722 m -34.323964,4.317726 c -0.420592,-0.0035 -0.856435,-0.05804 -1.2092,-0.335948 -0.60934,-0.480002 -0.730251,-1.080135 -0.624056,-1.819588 0.0857,-0.594349 0.351723,-1.21115 0.834352,-1.612659 0.100939,-0.08396 0.228175,-0.191316 0.368016,-0.228908 0.290657,-0.0087 0.525629,0.04535 0.787566,0.08623 0.13406,0.06073 0.248673,0.176278 0.243934,0.33605 -0.01523,0.577053 -1.129286,1.014839 -1.504669,1.103846 m 7.255221,-0.525739 c 0.58568,0.0053 1.42581,0.310921 1.60772,1.051479 0.2471,1.005901 -0.97684,1.913487 -1.81801,2.028047 -0.21871,0.02975 -0.35067,0.04506 -0.57832,0.005 -0.5883,-0.103303 -0.8475,-0.621216 -0.84013,-1.139334 0.006,-0.441779 0.2124,-1.242537 0.78755,-1.051482 m 4.99455,-0.630888 c -0.0641,0.264553 -0.0763,0.357556 -0.13828,0.578316 -0.0626,0.220389 -0.0567,0.289736 -0.0868,0.525738 -0.0609,0.475955 0.0468,1.082977 0.28548,1.472076 0.0989,0.161085 0.21923,0.290734 0.36013,0.41302 0.67348,0.583785 1.21184,-0.06057 1.62979,-0.51817 0.34121,0.332954 1.15874,0.795711 1.84009,0.470537 0.84488,-0.403082 0.67558,-1.292585 0.21556,-1.889825 -0.19558,-0.253776 -0.43373,-0.439941 -0.74128,-0.473376 m 18.15135,-0.279433 c -0.37209,0.299745 -0.65642,0.689251 -0.87867,1.068043 -0.2103,0.402821 -0.32701,0.959161 -0.34174,1.419499 -0.009,0.297938 0.0788,0.609964 0.24237,0.841185 0.0962,0.13617 0.20241,0.232381 0.33385,0.326486 0.29021,0.207668 0.64667,0.304402 0.99891,0.304402 0.20924,0 0.33858,-0.01524 0.52574,-0.105144 m -5.36255,-3.311588 c 0.16455,-0.0167 0.23342,-0.0084 0.42058,0.104837 0.20978,0.126967 0.35225,0.304611 0.52574,0.457865 0.20189,0.178386 0.45267,0.384265 0.54153,0.645924 0.33752,0.998223 -1.05097,1.47628 -1.8033,1.414611 -1.30278,-0.106935 -1.37165,-1.705501 -0.52521,-2.395428 0.22028,-0.179175 0.70501,-0.214029 0.84066,-0.227809 m 47.4218,0.893182 0.10516,0.315444 m -62.61573,-0.210294 0.10514,0.630888 m 24.20017,-0.371932 c -0.23343,-0.146943 -0.41218,-0.260443 -0.68348,-0.175966 -0.19977,0.06214 -0.33331,0.185065 -0.45949,0.334476 -0.22028,0.261872 -0.34068,0.66764 -0.0583,0.925043 0.15771,0.144043 0.37643,0.187176 0.57043,0.168763 0.15457,-0.01472 0.26812,-0.04836 0.42059,-0.109353 0.15142,-0.06046 0.27496,-0.131968 0.42059,-0.21093 0.16982,-0.09253 0.30703,-0.12423 0.45109,-0.270386 0.51081,-0.945358 0.11468,0.564734 0.33779,0.915456 m 18.59811,0.75047 c 0.16982,-0.530995 0.31913,-1.192746 0.43847,-1.734887 0.0283,-0.130123 0.0127,-0.196157 0.0878,-0.28301 0.091,-0.104729 0.27812,-0.0511 0.3675,-0.04059 0.34646,0.04084 0.53993,0.115503 0.84118,0.218392 m -6.11678,0.757944 c -0.38389,2.143156 0.4187,0.327608 0.75777,-0.08488 0.17507,-0.193001 0.54046,-0.597245 0.81228,-0.386735 0.16823,0.129909 0.17717,0.408342 0.17979,0.597028 0.005,0.384842 -0.0247,0.837507 0.0147,1.209205 0.0311,0.29231 -0.0121,0.482631 0.0904,0.788613 m 4.94224,-1.314468 c -0.23921,-0.343311 -0.0437,-0.7914 0.52574,-1.076245 0.15982,-0.08002 0.30125,-0.117138 0.47316,-0.132909 0.16246,-0.01494 0.30283,-0.06735 0.47003,0.01872 0.34435,0.177487 0.12091,0.49388 -0.10304,0.653126 -0.44792,0.3186 -0.93476,0.455818 -1.36587,0.537309 0.0768,0.378006 0.57989,0.679255 1.05149,0.788611 m 0.89376,-0.10515 c -0.0457,0.159826 -0.0626,0.392204 0.11302,0.364863 0.29653,-0.04627 0.67452,-0.680307 0.8496,-0.943702 0.17876,-0.269181 0.3901,-0.548873 0.57727,-0.788087 0.15771,-0.201776 0.32701,-0.484679 0.61564,-0.554711 0.31018,-0.07523 0.54572,0.185697 0.7886,0.291842 M 133.2337,45.556159 c 0.37133,0.935399 0.19828,1.387827 0.12158,2.10372 m 36.95958,3.364739 0.31491,-0.78861 0.31861,-1.997818 0.0497,-0.525575 0.57858,0.206451 0.84119,0.371701 m -8.04386,1.629796 c 0.22186,-0.237637 0.31578,-0.377341 0.47613,-0.654405 0.0899,-0.15562 0.16484,-0.320206 0.23905,-0.478978 0.0521,-0.110933 0.12708,-0.390738 -0.0922,-0.449096 -0.19979,-0.05258 -0.42322,0.101991 -0.57044,0.226592 -0.3023,0.256563 -0.85958,1.048853 -0.59198,1.458931 0.34594,0.528898 1.0252,0.156672 1.3806,-0.105676 0.64065,-0.522386 0.42562,0.0085 0.65394,0.47579 0.2166,0.415862 0.49577,0.550976 0.76548,0.683461 m 2.41839,-0.210288 c -0.33647,0.168763 -0.80018,0.324383 -1.26178,0.295465 -0.3533,-0.02208 -0.71552,-0.3575 -0.72131,-0.716059 -0.008,-0.491042 0.29862,-1.12193 0.61196,-1.524647 0.0841,-0.108302 0.20609,-0.313867 0.29915,-0.394833 0.13775,-0.119869 0.2166,-0.04627 0.33595,0.02681 m 9.83137,0.05258 c 0.0773,0.358553 -0.16456,0.659801 -0.3759,0.946332 -0.32702,0.443198 -0.78126,0.987341 -1.20133,1.35746 -0.25971,0.228172 -0.87535,0.685043 -1.20342,0.552555 -0.1961,-0.07833 -0.23973,-0.300725 -0.26865,-0.490514 -0.0373,-0.2471 -0.10043,-0.53941 -0.0615,-0.78861 0.0468,-0.293366 0.0241,-0.379588 0.11408,-0.683467 m -29.08509,-0.974035 1.2092,0.03733 0.47316,-0.04206 0.99892,-0.09569 0.36802,-0.01998 0.73603,-0.03733 m 29.03252,2.07809 c 3.06192,-3.024045 -2.02866,-1.743048 -0.0759,1.018995 0.369,0.298294 0.42777,0.235649 0.69821,0.306582 m -86.0552,-0.221477 c 0.133543,0.313868 0.152464,0.292838 0.176124,0.578319 0.01577,0.196628 0.02735,0.276011 0.03474,0.473167 0.01363,0.358552 0.161925,0.505762 0.314915,0.630887 0.287583,-0.399563 0.03367,-1.288067 0.328062,-2.102961 0.108297,-0.300202 0.281268,-0.615646 0.618266,-0.556759 0.254988,0.04468 0.446889,0.219234 0.630888,0.400084 0.509443,0.500509 0.941607,1.25547 0.632466,1.944192 -0.09936,0.221862 -0.256031,0.362236 -0.422161,0.525215 -0.211881,0.207141 -0.493149,0.473166 -0.788617,0.368546 m 79.061677,-5.311003 c -0.33829,-0.0099 -1.51191,2.516768 -1.32586,2.618143 m -68.95614,6.635902 c 0.005,-0.219235 0.0563,-0.691877 0.083,-0.893762 0.0306,-0.235529 0.0241,-0.731829 0.0221,-0.946332 -0.002,-0.137744 -0.0104,-0.233429 -0.0311,-0.368017 -0.0347,-0.224495 -0.0704,-0.463179 -0.0742,-0.683466 -0.004,-0.21082 -0.0683,-0.664011 -0.0673,-0.893757 0.002,-0.288107 0.0852,-0.308087 0.12618,-0.525743 0.0478,-0.257086 0.14825,-0.73814 0.25761,-0.998905 0.11776,-0.280748 0.29861,-0.585676 0.57726,-0.726576 0.60564,-0.306505 1.27229,0.429003 1.43053,0.989448 0.12671,0.448978 -0.0794,1.002584 -0.3023,1.419499 -0.0983,0.183482 -0.28389,0.406921 -0.27338,0.630887 0.0105,0.231326 0.235,0.376958 0.38484,0.525742 0.50156,0.499453 1.71549,1.216037 1.0967,2.050389 -0.10884,0.147203 -0.245,0.266549 -0.39116,0.375378 -0.20818,0.15562 -0.39692,0.308611 -0.63089,0.42585 -0.30965,0.155091 -0.56148,0.222914 -0.89376,0.250254 m -1.94523,-5.8883 c 0.0346,0.346465 0.11777,0.460025 0.22397,0.788611 0.0915,0.283901 0.20452,0.52732 0.33963,0.683466 m -5.715862,-1.318557 c 0.269179,-0.06047 0.451085,0.176121 0.565173,0.370645 0.06993,0.120395 0.135119,0.213973 0.277063,0.25709 0.136171,0.04101 0.20031,5.51e-4 0.366965,0.03574 0.418498,0.08885 0.838031,0.256563 1.128771,0.60723 0.55466,0.667694 0.18769,1.520443 -0.21345,2.150807 -0.337,0.530471 -0.902698,1.149796 -1.54621,1.287013 -0.376951,0.08043 -0.81332,0.01629 -1.104057,-0.205036 -0.979974,-0.746552 -0.873245,-2.503579 -0.378002,-3.500383 0.17665,-0.355927 0.492098,-0.911112 0.903747,-1.003113 m -3.995636,0.582519 0.07519,0.736039 0.03893,0.736035 -0.06147,1.787521 m 15.246428,-2.907348 c 0.31966,-0.107249 0.58148,0.11356 0.67769,0.383795 0.0609,0.170863 0.0725,0.513646 0.19452,0.663481 0.10407,0.128809 0.19872,0.152466 0.33175,0.266026 0.39009,0.334372 0.89585,0.968416 0.8375,1.541471 -0.0484,0.467385 -0.23396,0.892183 -0.57622,1.252842 -0.25182,0.264446 -0.50365,0.423745 -0.83434,0.525215 -0.80177,0.246047 -1.53989,-0.346987 -1.8033,-1.094591 -0.13512,-0.383794 -0.12985,-0.711328 -0.093,-1.104056 0.0205,-0.225017 0.0521,-0.424273 0.10934,-0.630887 0.073,-0.262872 0.18244,-0.53363 0.30336,-0.788614 0.1735,-0.365915 0.43847,-0.875357 0.85276,-1.014682 m 18.13805,0.646663 c 0.10147,0.519959 -0.0799,1.381122 -0.23921,2.155537 -0.14195,0.68767 -0.42165,1.454198 -0.69345,2.102962 -0.2697,0.642459 -0.47947,1.27808 -0.69713,1.945245 M 120.2113,54.28423 c -0.0167,0.531523 -0.19083,0.365915 -0.14773,0.78861 0.0147,0.145106 0.0578,0.215026 0.0763,0.368019 0.019,0.163505 -0.0168,0.309658 -0.0405,0.473166 -0.0442,0.304929 -0.14563,0.6046 -0.22712,0.89376 -0.0799,0.286527 -0.143,0.556233 -0.19557,0.841185 -0.0978,0.530472 -0.30756,0.952642 -0.35908,1.472071 m -6.72949,-4.573942 0.57123,0.875622 c 0.15062,0.244733 0.34111,0.686762 0.74119,0.882337 m -1.36499,2.815983 c 0.28338,-0.608277 0.68872,-1.600352 1.01731,-2.155533 0.12039,-0.202938 0.22659,-0.293363 0.29704,-0.525744 0.0683,-0.22449 0.17139,-0.341202 0.28022,-0.525739 0.17297,-0.292839 0.39852,-0.757066 0.59777,-1.050429 0.0652,-0.09674 0.194,-0.258666 0.31859,-0.22449 0.10936,0.02996 0.18349,0.196099 0.0652,0.170864 m 7.36037,-0.157722 c 0.1961,0.05205 0.39168,0.08937 0.57832,0.136165 0.27128,0.06887 0.54045,0.169291 0.84118,0.237634 0.21188,0.04837 0.40377,0.07465 0.63089,0.125656 0.57253,0.128279 1.07934,0.142999 1.47207,0.236584 m -4.10077,-0.368023 c -0.15352,0.381688 -1.0331,1.281234 -0.86117,1.727586 0.10408,0.269705 0.66927,0.304929 0.91375,0.369069 0.59829,0.157725 1.52306,0.448983 1.87899,1.005218 0.39483,0.617745 -0.2818,0.966313 -0.77494,1.138753 -0.16929,0.05888 -0.30388,0.102522 -0.47317,0.140373 -0.34436,0.07728 -0.75181,0.144581 -1.10405,0.139322 -0.31702,-0.0042 -0.49,-0.08832 -0.78861,-0.261819 m -6.92135,-2.642514 0.87525,1.696178 M 1.3414299,57.070655 c 0.020142,0.01998 0.1559473,0.14931 0.3146737,0.315444 0.1385316,0.145633 0.1936702,0.133015 0.2152046,0.315445 0.024816,0.210299 -0.044262,0.194527 -0.311185,0.464755 l -0.078252,0.07834 -0.087867,0.08779 m 91.4788918,8.201559 c 0.009,-0.206616 0.07153,-0.975247 0.136689,-1.156628 0.09989,-0.278117 0.192952,-0.224489 0.287058,-0.525741 0.05995,-0.191895 0.101465,-0.478949 0.154567,-0.683465 0.193477,-0.744973 0.218179,-1.5278 0.513647,-2.260685 0.10305,-0.256032 0.331742,-0.85853 0.693451,-0.746548 0.34016,0.105145 0.671902,0.731829 0.8107,1.061995 0.259185,0.615116 0.38431,1.318032 0.400086,1.945238 0.0036,0.159301 5.53e-4,0.308087 5.53e-4,0.473168 0,0.385894 0.0045,0.556235 5.51e-4,0.89376 -0.0053,0.413232 0.01158,0.729729 0.05202,1.051483 m -3.312162,-5.09969 c 0.09779,0.185066 0.107247,0.281801 0.106194,0.47317 -5.51e-4,0.130384 -0.0018,0.238157 0.01416,0.368019 0.05051,0.429529 0.05416,0.941602 0.111986,1.366923 0.0473,0.346991 0.03047,0.600398 0.03047,0.998911 0,0.294411 0.05995,0.539936 0.136714,0.683462 m 27.56984,-1.734945 c 0.0221,0.272861 0.0904,0.406399 0.10303,0.683464 0.041,0.903746 0.0583,1.820113 -0.14195,2.681277 -0.0542,0.231851 -0.12095,0.534677 -0.16719,0.78861 -0.0352,0.196628 -0.0567,0.298096 -0.11092,0.473166 -0.0384,0.125655 -0.072,0.247624 -0.12408,0.365916 -0.0404,0.09253 -0.0799,0.192306 -0.19453,0.193998 -0.15666,0.0027 -0.22818,-0.180852 -0.27076,-0.297042 -0.10145,-0.278114 -0.16663,-0.845391 -0.23237,-1.156629 -0.0788,-0.371175 -0.12773,-0.794396 -0.2145,-1.156633 -0.0715,-0.296515 -0.15197,-0.591458 -0.25499,-0.893754 -0.4596,-1.365768 -0.79039,-2.351922 -0.54727,0.05259 -0.004,0.231851 0.004,0.453714 0,0.68346 -0.011,0.89113 -0.19662,1.849558 -0.26287,2.681277 m 7.25524,-5.0997 c -0.12513,0.846444 -0.49314,2.05249 -0.99891,2.73385 -0.33542,-0.272859 -1.04518,-1.176609 -1.4316,-1.682368 -0.15771,-0.206614 -0.25077,-0.387471 -0.39798,-0.563597 -0.10303,-0.124072 -0.24552,-0.179803 -0.32595,-0.225013 m 12.09203,-0.105151 c -0.0646,0.267438 -0.22677,0.426891 -0.40493,0.565723 -0.0946,0.09148 -0.15719,0.202932 -0.2145,0.328059 -0.0909,0.198732 -0.33542,0.516277 -0.18769,0.721317 0.14089,0.196628 0.39641,0.209247 0.59671,0.244994 0.37222,0.0673 0.80228,0.08254 1.20921,0.08516 0.16718,0.0012 0.33489,0.04154 0.45266,-0.01629 0.11409,-0.05678 0.14458,-0.172442 0.16771,-0.299148 0.0632,-0.341729 0.0704,-0.749705 0.0632,-1.104056 M 110.3801,63.905288 c -0.005,0.304928 -0.0873,0.215026 -0.0615,0.473166 0.0131,0.135113 0.0983,0.260765 0.11094,0.42059 0.0232,0.287055 0.0199,0.625633 0.0116,0.893761 -0.009,0.264972 0.0147,0.497877 -0.005,0.78861 -0.0136,0.198732 -0.12459,0.513652 -0.0241,0.709228 0.0763,0.148783 0.29127,0.20714 0.44163,0.303875 0.36223,0.232379 0.67085,0.375379 0.99891,0.605128 0.36592,0.256561 0.57148,0.399562 0.89375,0.642454 m 18.71638,-4.78424 c 0.04,0.253851 0.12163,0.523552 0.12558,0.736055 0.0116,0.157195 0.0963,0.403769 0.12145,0.578314 0.10147,0.701865 0.0973,1.31698 0.0663,1.997816 -0.0221,0.482629 -0.19504,0.934767 -0.26077,1.419499 m 7.15003,-4.363665 0.52575,-0.190316 0.47317,-0.01998 0.47316,0.009 0.9989,0.105146 1.26179,0.253933 m 2.05043,0.31544 c 0.17506,-0.03365 0.28915,-0.05415 0.47316,-0.06151 0.45844,-0.01946 0.94845,-0.05836 1.4195,0.03312 0.27601,0.05363 0.68083,0.16456 0.54835,0.493147 -0.0657,0.162453 -0.24658,0.263395 -0.39064,0.356451 -0.13721,0.08832 -0.28915,0.150359 -0.41322,0.259189 -0.0779,0.06887 -0.16509,0.154569 -0.13354,0.274964 0.0484,0.186636 0.36171,0.21608 0.54676,0.333844 0.27024,0.171917 0.49736,0.460549 0.67664,0.729205 0.12408,0.186112 0.21083,0.390623 0.20661,0.63089 -0.008,0.451609 -0.42006,1.0499 -0.73444,1.331701 -0.12461,0.111982 -0.23765,0.188212 -0.35699,0.302824 -0.34962,0.334373 -0.88798,0.779148 -1.15873,0.889031 m -7.20265,-5.467706 c -0.14458,0.318599 -0.81333,0.90007 -0.69871,1.247058 0.0847,0.256034 0.62143,0.193999 0.85643,0.25551 0.70082,0.184536 1.93736,0.674524 1.83273,1.599304 -0.0321,0.286 -0.25972,0.563592 -0.47053,0.758114 -0.33333,0.308088 -0.674,0.584625 -1.09933,0.711856 -0.42481,0.126702 -0.80859,0.150361 -1.10405,-0.208194 m 5.73057,-4.2585 c 0.12776,0.270755 0.0511,0.737088 -0.0241,1.156629 -0.0457,0.252356 -0.11619,0.439522 -0.15509,0.683464 -0.0963,0.604603 -0.22028,1.343268 -0.39904,1.840092 m -45.496554,-1.78968 c -0.249198,-0.34646 -0.298122,-1.175037 0.03679,-1.508879 0.126702,-0.126176 0.247631,-0.172445 0.403248,-0.229749 0.148785,-0.05521 0.268654,-0.104095 0.420592,-0.08516 0.138265,0.01785 0.258134,0.09043 0.336472,0.201884 0.191367,0.271806 -0.134068,0.58988 -0.336997,0.758119 -0.20031,0.166132 -0.428485,0.304402 -0.682939,0.36854 -0.100939,0.02577 -0.20031,0.02261 -0.259194,0.108304 -0.08151,0.119868 0.02575,0.295995 0.08204,0.386944 0.147199,0.237113 0.411648,0.381164 0.650335,0.527847 m 12.883797,-0.946334 c 0.51892,-0.229749 1.63137,-0.671372 2.41526,-0.841184 m -7.46132,0.841178 c 0.0516,0.124078 0.21135,0.295466 0.14616,0.459497 -0.0746,0.187166 -0.19347,0.284954 -0.35015,0.481053 -0.26444,0.330691 -0.58566,0.13827 -0.70186,-0.204512 -0.0851,-0.252353 -0.0162,-0.514702 0.0853,-0.736038 0.61212,-1.023666 0.51924,-0.761539 0.8206,0 z m 30.41558,-0.75231 c -0.0226,0.497351 -0.41376,1.908439 -0.61617,2.681277 -0.0678,0.260243 -0.0755,0.63875 -0.0992,0.910032 m -28.23229,-0.78861 c 0.0578,-0.190841 0.16088,-0.635097 0.25973,-0.766528 0.15666,-0.209247 0.24131,-0.09463 0.38379,-0.343311 0.0946,-0.165079 0.31964,-0.518379 0.42427,-0.677678 0.29441,-0.448985 0.5946,-0.89008 1.08775,-0.473167 m 15.40421,0.105144 c -0.0457,0.340159 -0.18612,0.629313 -0.32334,0.946336 -0.24131,0.558335 -0.63666,1.471023 -0.67557,1.945242 m -21.55543,-2.838998 c 0.28969,0.167184 0.50472,0.312814 0.65928,0.630888 0.0663,0.136691 0.0689,0.234478 0.0273,0.368019 -0.0416,0.13564 -0.11146,0.25183 -0.22028,0.329113 -0.38748,0.273385 -0.64726,-0.278644 -0.99214,-0.223966 -0.24867,0.03995 -0.46628,0.355924 -0.73598,0.403242 -0.59408,0.104624 -1.310665,-0.24657 -1.526217,-0.823836 -0.06779,-0.18138 -0.08044,-0.346988 -0.156143,-0.525738 m 8.25118,0.337524 c -0.0352,0.447407 -0.0526,0.579366 -0.0526,0.841186 m -5.7802,-0.758119 v 0.525741 m 4.19869,-0.591986 c 0.12987,0.380636 0.34437,0.793867 0.57832,0.998907 m 4.29744,-0.74917 c -0.0505,0.271281 -0.16215,0.792284 -0.19417,1.183434 -0.0195,0.242368 -0.0657,0.363287 -0.10043,0.630889 m 4.99454,-0.998906 c 0.0889,0.481577 -0.009,1.086707 -0.23028,1.524646 -0.18874,0.37538 -0.46581,0.644034 -0.71607,0.78861"
       id="path18517"
       sodipodi:nodetypes="csccsscccccccccccccccccccccccccccccccccccccccccccccccccscccccccccccccccccssccccccccccscccccccccccccscccccccccccccccccccccccsccccsccccccccccccccccccccccccscccccccccccccccccccccccccccccsccccccccccccccccscccccccccccccccccccccccsscccscccccccccccccccccccccccccccccccccccccccccccccccccccccccccccccccccccccccccccccccccccccccccccccccccccccccccccccccccccccccccccccccccccccccccccccccccccccscccccccccccccccccccccccccccccccccccccccccccccccccccccccccccccscccccccccccscsccccsccccccccccccccccccccccccccccccccccccccccccccccccccccccccccccsscccccccccccccccccccccccccccsccccccccccscccccccccsscscccsccscccccccccscccccccccccccccccscccccccscccccccccccccccccccccccccccccccccccccccccccccsccccccccscccccccccccccccccccccccccccccccccccccccccccccccccccccccccccccccccccccccccccccccccccccccccccccccccccccccccccccccccccccsccccccccccccccccccscccccscccccsccccccccccccccccccccccccccccccccscccccccsccccccccccccsccccsccccccscccccccccccccccccccccccccccccccccccccccccccccccccccccccccccc" />
  </g>
</svg>
