<?xml version="1.0" encoding="UTF-8" standalone="no"?>
<!-- Created with Inkscape (http://www.inkscape.org/) -->

<svg
   width="210mm"
   height="297mm"
   viewBox="0 0 210 297"
   version="1.1"
   id="svg1036"
   inkscape:version="1.2.1 (9c6d41e, 2022-07-14)"
   sodipodi:docname="EthanB - Stake - Envelope 5.svg"
   xmlns:inkscape="http://www.inkscape.org/namespaces/inkscape"
   xmlns:sodipodi="http://sodipodi.sourceforge.net/DTD/sodipodi-0.dtd"
   xmlns="http://www.w3.org/2000/svg"
   xmlns:svg="http://www.w3.org/2000/svg">
  <sodipodi:namedview
     id="namedview1038"
     pagecolor="#ffffff"
     bordercolor="#666666"
     borderopacity="1.0"
     inkscape:pageshadow="2"
     inkscape:pageopacity="0.0"
     inkscape:pagecheckerboard="0"
     inkscape:document-units="mm"
     showgrid="false"
     inkscape:zoom="1.9158656"
     inkscape:cx="174.33374"
     inkscape:cy="120.05018"
     inkscape:window-width="1309"
     inkscape:window-height="456"
     inkscape:window-x="0"
     inkscape:window-y="37"
     inkscape:window-maximized="0"
     inkscape:current-layer="layer1"
     inkscape:showpageshadow="2"
     inkscape:deskcolor="#d1d1d1" />
  <defs
     id="defs1033" />
  <g
     inkscape:label="Layer 1"
     inkscape:groupmode="layer"
     id="layer1">
    <g
       id="g3345"
       transform="matrix(0.77037036,0,0,0.77037036,0.30378089,0.30378086)">
      <g
         id="g1140"
         transform="matrix(0.99985345,0,0,0.99985345,0.0157678,0.01104092)">
        <g
           id="g909"
           transform="matrix(0.28044403,0,0,0.28044403,-3.7586671,-0.16951879)">
          <g
             id="g904" />
        </g>
      </g>
      <path
         id="path21"
         style="fill:none;stroke:#000000;stroke-width:0.149998;stroke-miterlimit:4;stroke-dasharray:none;stroke-opacity:1"
         d="M 57.017412,7.756983 C 54.938564,9.012105 53.002334,8.9333722 52.187815,6.3395935 51.910635,5.4324322 51.980324,4.2670788 52.319002,3.4260706 52.571533,2.7991831 53.279755,1.5395721 54.025145,1.4049832 54.395793,1.3380542 54.349648,1.74837 54.34012,1.9299372 m 11.575347,0.078749 0.01315,0.4593451 c 0.503403,0.9121852 0.837867,2.1040701 0.38057,3.0841283 C 65.73632,4.7952198 65.92772,3.4574911 65.928617,2.4680311 M 1.3455016,10.434276 C 2.3553761,10.753189 3.682368,10.562629 4.6527433,10.171823 8.1911447,8.2297108 5.268642,6.2597917 2.8416347,4.9353257 1.116868,4.3630294 1.3867839,2.2991166 3.0778661,2.0874278 3.7901833,2.0181789 4.3330361,2.2907047 3.7865614,3.0323535 M 32.213095,8.6231649 c -2.098559,-0.201049 -4.087169,0.067639 -4.09468,-2.4410591 0,-1.056759 0.413563,-3.0742234 1.496134,-3.7009619 M 7.8812424,2.5598927 c 0.5055664,1.2413682 0.7761203,2.5854078 1.4173896,3.766587 0.6296734,0.02237 1.259898,0.01311 1.889854,0.01311 m 4.252168,-3.700961 c 0.373403,0.7468627 0.681292,2.313897 1.181157,2.9922667 0.389389,-0.3893801 0.809172,-0.7505147 1.496134,-0.9318069 0.397893,-0.1050054 0.760744,-0.200915 1.02367,-0.2493502 M 71.348792,2.7173723 C 71.47886,3.7149752 71.600238,4.7136951 71.742506,5.709641 71.371812,5.679851 71.006487,5.613222 70.640103,5.5521514 M 69.537689,2.7961161 69.852665,3.662299 M 39.457531,2.9536067 c 0.910448,1.1359438 0.744349,2.7495424 1.417389,3.9371934 0.380684,-0.7187861 1.499681,-1.8193044 2.283572,-1.3255269 0.844746,0.7124562 0.618234,1.8401781 0.866183,2.7429165 M 57.647362,5.9458734 c 0,0.8225276 -0.07158,0.9487457 0.236232,1.3386458 0.08166,-0.1108314 0.154967,-0.1851262 0.210011,-0.3937191 0.177695,-1.0654119 0.373268,-2.3560243 1.679847,-2.5198038 0.378364,-0.03679 0.494039,0.1703474 0.708694,0.4724638 M 37.331449,9.0168849 c 2.811369,0.02278 2.718626,-0.920468 0.39372,-1.9948498 C 36.639684,6.5848327 36.185962,5.6977682 37.488938,5.2634327 37.783125,5.1653742 37.961164,5.1584353 38.276376,5.1584353 M 23.288821,6.0246182 c -0.09883,0.5470177 -0.878073,1.1556055 -1.391167,1.3123932 -0.334662,0.1022564 -0.695781,0.061279 -0.77429,0 -0.210881,-0.3672915 -0.03674,-0.8930095 0.131183,-1.2336504 0.439545,-0.8405962 1.866547,-1.0162546 2.034274,-0.078739 z m 50.894748,2.5985467 c 0.288446,0.2277285 0.462313,0.264423 0.787438,0.3411968 0.6468,0.202023 2.500332,0.1398719 2.257596,-0.8136647 C 76.864228,6.6626246 74.76147,7.1581271 74.11798,6.4183323 73.519209,5.6758805 74.995737,5.4299232 75.285982,5.5521494 m -8.976796,0 c 0.003,0.1146432 0.04134,0.3134092 0.0656,0.4724638 0.02701,0.1764654 -0.02276,0.2414124 0.05252,0.3806013 0.605003,0.7846911 1.059546,1.8968022 1.771736,2.6904092 M 16.621811,5.709642 c 0.131977,0.5657264 0.264888,1.0094197 0.564358,1.4567619 0.900718,0.725982 2.362006,0.8966025 3.294092,1.2992734 M 60.797117,6.9695439 C 60.671491,6.0777134 61.17298,5.7014151 62.135762,5.709642 c 0.358442,0.005 0.550656,0.098949 0.721845,0.4724638 0.299643,1.4060618 -1.213232,0.929383 -1.968594,0.9055543 -0.132683,0.076939 -0.0919,0.2109788 -0.0919,0.3543467 0,0.990441 0.998315,1.2687218 1.732365,1.7323657 M 71.742506,5.709642 c 0.497612,0.085619 0.997115,0.1594626 1.496137,0.2362344 M 71.742506,5.709642 c 0.159028,1.2471321 0.401114,2.4562088 0.62996,3.700962 M 35.520337,7.2845192 C 35.454508,8.0460416 34.561589,8.6350897 33.866716,8.4918989 32.690583,8.1889815 32.979169,6.0992121 33.47299,6.0246182 c 0.313402,-0.030469 0.699797,0.3512607 0.944927,0.5512067 M 7.4087796,6.2608496 c 0.592941,0.0156 1.5525145,0.065629 1.8898524,0.065629 m 0,0 c 0,0.4230755 0.259855,0.9107382 0.459314,1.6667417 0.1046504,0.396554 0.2375694,0.8100388 0.249382,1.2599019 M 66.38793,6.4183433 c -0.08331,0.1172342 0.08282,0.462275 0.04054,0.6652289 C 66.696575,8.2673673 64.377881,9.675299 63.750013,8.5444271 63.014504,7.164058 65.436258,5.8581957 65.600497,7.2057813 M 14.653215,7.5207516 C 14.866858,9.2009101 12.351581,9.3154564 11.608426,8.2294458 10.947282,6.5479543 13.022566,6.499236 13.944521,7.2057753 M 40.87492,6.8908001 V 7.9932144 M 17.173019,7.2057753 c 0,0.4924966 0.393719,1.4039248 0.393719,2.3623163 M 57.883594,7.2845192 V 8.6231649 M 21.123364,7.3370114 c 0.101773,1.6887424 1.853025,2.0124105 3.136603,1.5223849 m 11.26037,-1.5748771 c -0.01551,0.6474021 0.305452,0.9162701 0.629952,1.1811581 M 69.065226,7.5994944 69.301453,8.7019087 M 14.653215,7.5207516 c -0.351654,1.6408991 0.676327,1.3339128 1.102415,1.5748771 m 107.5204,43.4666053 c 0.68743,0.470183 1.67645,0.7087 2.67729,0.7087 2.02056,0 4.42383,-0.547432 4.64589,-2.834778 0.18347,-1.885131 -1.79537,-3.144562 -3.14976,-4.160277 -1.31588,-0.987625 -3.93698,-2.389293 -4.17342,-3.871601 -0.0601,-2.680079 3.68173,-3.638375 4.96086,-2.519802 m 80.94868,1.259901 c 0.27936,0.709809 0.40784,1.484718 0.59058,2.204827 0.66667,1.068314 0.69725,2.282775 0.44649,3.071013 -0.0882,0.288206 -0.0921,0.625231 -0.0921,1.023675 0,0.165747 0.0378,0.250086 -0.0394,0.380564 -1.18612,1.29616 -2.33557,1.780843 -3.00565,-0.223077 -0.15934,-1.631035 1.03482,-2.088598 2.10009,-1.023674 m -24.72556,-5.197091 c 0,2.024579 -0.23308,4.077358 -0.5646,6.063278 -0.12598,0.756958 -0.38191,1.851742 0.4071,2.322945 1.50559,0.899096 3.77577,-0.440424 5.43334,0.0394 m 9.60674,-8.346854 0.39372,0.944926 m 1.9686,-0.236226 c 0.14885,1.157062 0.43429,2.298585 0.49846,3.464727 -0.0545,1.154143 -0.0736,2.309755 -0.1048,3.464728 m -36.77337,-6.535741 c 0.7677,1.259281 0.28229,3.221221 0.90555,4.252165 0.0953,0.157018 0.15513,0.252847 0.19686,0.288756 1.20286,0.745999 1.23725,2.841827 2.5198,3.333469 m -10.39419,-7.716903 c 0.22754,1.716644 0.82557,3.34564 1.19455,5.026454 0.4649,0.1 0.93512,0.171238 1.40401,0.249386 m 28.58402,-5.27583 0.86617,1.023665 m 19.2135,-0.314975 c -0.24413,1.102463 -0.0801,2.044559 0.39372,2.992264 m -43.93907,0.314976 c 1.21225,-0.0866 1.77659,-0.582592 2.83478,-1.181153 m 23.93814,4.094678 c 0.24197,-0.818857 -0.34559,-2.330194 0.10473,-2.992264 0.77725,-0.890187 1.15604,-0.771449 1.64102,0.236226 0.13701,0.275136 0.25277,0.412934 0.38033,0.551212 0.10236,-0.114498 0.19449,-0.201267 0.28899,-0.472463 0.14331,-0.412304 0.46694,-1.477318 0.89217,-1.404239 0.32599,0.056 0.38505,0.794448 0.44647,1.089264 0.2386,1.146822 0.0465,2.458383 0.73469,3.464727 m 4.72463,-4.488402 c 0.3945,0 0.47718,-0.0787 1.10241,-0.0787 m -3.07101,0.314976 c 0.85673,0 1.36942,-0.236227 1.9159,-0.236227 m -28.05886,5.590816 c 1.22052,0.0321 3.34504,-1.206282 2.25758,-2.598551 -0.58112,-0.743189 -1.93394,-0.372854 -2.6513,-0.892407 -0.88368,-1.162892 0.44537,-1.94239 1.41739,-1.94237 m 17.87486,0.314975 0.0788,0.472463 m -22.75699,1.889851 c 0,-0.472703 0.41577,-1.557556 1.10241,-2.034189 0.26144,-0.181817 0.80477,-0.411834 1.08904,-0.144418 0.22992,0.215997 0.002,0.820508 -0.0788,0.997445 -0.36218,0.964616 -1.33046,1.095944 -2.07332,1.3518 -0.0772,0.106628 -0.0559,0.231356 -0.0394,0.380574 0.41923,1.214812 1.55094,1.391019 2.51981,0.787438 m 31.18257,-2.362314 c 0.36449,-1.182702 1.38055,-2.097588 2.34892,-1.220532 0.21498,0.154418 -0.49909,0.993045 -0.68179,1.150063 -0.6259,0.397964 -1.11055,0.287556 -1.66713,0.0705 -0.20726,0.64318 0.39122,0.984545 0.94485,1.207382 0.3504,0.141027 1.10556,0.288745 1.57487,0.288745 m -52.20718,2.283576 c 1.12728,1.371019 4.05875,0.697989 3.58285,-0.393714 -0.57089,-1.141953 -2.70721,-0.970366 -3.0844,-2.204837 -0.44981,-1.164212 0.97661,-2.587251 1.78506,-1.496127 m 9.56754,-0.314976 c -0.16836,1.550417 -0.0395,3.153543 -0.0395,4.724629 m -16.37872,2.913526 c -0.11968,-0.949716 -0.28893,-1.940561 -0.32839,-2.992265 0.0921,-0.368134 0.17086,-0.196387 0.17086,-0.708699 0.13906,-1.089874 -0.0879,-3.167452 1.18117,-3.517257 0.99847,-0.249616 1.49613,1.171872 1.49613,1.942381 0,1.002954 -0.82287,1.869691 -1.73236,2.204826 m 44.56902,-3.93719 0.0788,0.314975 m 4.17342,-0.236236 -0.5512,2.283575 M 158.15951,47.60149 c 0.59216,0.249227 1.21579,0.144338 1.58825,0.144338 m 0,0 c 0.15189,1.413059 0.44115,2.926006 0.61658,4.344064 m 49.72678,-4.265315 c 0.085,0.460093 0.28423,1.472898 0.74804,2.060489 m -46.61637,-0.708699 c -0.11418,0.117488 -0.20946,0.209226 -0.4071,0.472462 -1.00328,1.076084 -2.62892,1.000015 -2.50642,-0.472462 0.0992,-0.895947 1.29298,-1.136273 2.04734,-1.010515 0.53265,0.144938 0.83914,0.412164 0.8796,0.931776 0.30615,0.584691 0.4169,1.489607 1.08904,1.889851 m 25.11929,-2.834777 v 1.33864 m -52.44341,-0.787438 c 2.37231,0.62024 1.86573,3.824002 0.5512,4.304695 -0.87091,0.265996 -1.77173,-0.295216 -2.20483,-0.918707 -0.15748,-0.226786 -0.26772,-0.343404 -0.39371,-0.472462 -0.16852,0.182607 -0.23781,0.300725 -0.38034,0.551201 -0.35749,0.711579 -0.89683,0.747049 -1.58826,0.328135 -0.89768,-0.548531 -1.2599,-2.389564 -1.2599,-3.477887 m 13.62268,-0.288756 c 0.58507,-0.138108 1.61819,0.134418 1.22054,0.918706 -0.51088,0.617481 -1.23885,0.874767 -2.00797,0.944926 -0.1315,0.004 -0.24726,0.0658 -0.39373,0.0131 -0.18505,-0.0669 -0.16142,-0.255206 -0.15749,-0.406864 0.0173,-0.62381 0.68193,-1.31471 1.33865,-1.469918 m -5.11834,1.863632 c -1.14132,-1.129023 1.47839,-2.077418 2.11269,-1.482967 0.22206,0.230316 0.12599,0.65215 -0.0653,0.853027 -0.58662,0.482852 -1.52744,0.394544 -2.03396,0.708699 0.4526,1.247791 2.19376,1.503697 3.29386,1.496137 m 4.40965,-1.732364 c 0.25513,0.806888 0.22442,0.754759 0.47246,1.023665 m -4.25217,-0.787438 c 0.31355,1.095323 1.9114,1.659565 2.83479,1.33865 m -12.04781,-0.629951 v 0.236227 m 20.15843,9.921729 c -0.20644,-0.814597 -1.12784,-1.92689 -1.32526,-2.913525 0.0497,-0.599051 0.24934,-1.173133 0.69526,-1.548647 1.12132,-0.732009 2.37964,0.884137 2.84817,1.706134 0.26773,0.470263 0.55356,1.179032 0.35435,1.732374 -0.29215,0.808858 -1.58906,0.853817 -2.25759,0.866177 -0.12914,0.002 -0.20001,-0.0165 -0.2756,0.0919 -0.0233,0.924056 0.65385,1.845202 0.66926,2.66414 m 14.17389,-6.771967 c 0.0918,1.30334 0.73364,2.6047 0.61649,3.92404 l -0.77404,0.0131 m 15.4338,-2.756038 c 0.15118,-0.164178 0.25749,-0.386474 0.48584,-0.629951 0.47876,-0.510812 1.27802,-0.303945 1.54811,0.236237 0.53542,1.675594 -0.11474,3.487917 -1.87647,2.913516 -0.29839,-0.784359 -0.15027,-1.681415 -0.19688,-2.519802 l -0.2756,-0.7087 m -31.81252,0.236237 0.62996,0.472463 m 36.85212,6.850716 c -0.24393,-1.424678 -0.6786,-4.416733 -0.22299,-5.748303 0.76465,-1.388389 1.22861,-2.205247 2.36232,-0.236236 0.25597,0.380054 0.34001,0.830807 0.44568,1.259911 0.46281,2.159187 0.72355,4.985864 -2.19144,4.724628 -0.32758,-0.0318 -0.28977,-0.0665 -0.47246,0.157488 m -55.12071,-7.086956 c 1.02683,1.501097 1.34573,3.26535 1.98199,4.960865 0.23701,0.63318 0.48742,1.230691 0.69531,1.889851 m -10.86653,-6.693228 c 1.1796,0 2.63398,-0.114889 3.62222,0.406863 0.22915,0.120959 0.78823,0.398764 0.91895,0.774289 0.19607,0.566011 -0.18033,1.053994 -0.60397,1.391169 -0.43514,0.228726 -0.8423,0.566351 -1.1158,0.853037 -0.16143,0.0956 -0.30631,0.0394 -0.38033,0.0394 m 60.39653,-3.385989 c 0.10237,0.556322 0.13217,0.726109 0.32824,0.944936 m -65.6069,-0.708699 c 1.17171,1.854652 2.36231,4.811477 2.36231,7.24443 m 17.95361,-7.008204 c 0.47643,1.936651 0.83776,3.896501 1.33865,5.827042 m -4.72463,-4.960855 c 2.44339,1.433568 1.47249,4.339984 -0.94494,4.330905 -1.39928,-0.0583 -2.69225,-0.979096 -2.83477,-2.441054 -0.16763,-2.527301 1.68954,-2.741528 3.77971,-1.889851 z m 17.32364,2.204827 c 0.10629,0.577191 0.1559,0.585541 0.31497,0.787438 0.59965,-0.950536 0.57122,-2.456263 1.96859,-1.889862 m 5.35459,4.488402 c 0.2615,1.166233 2.54519,-0.006 2.67728,-0.551211 0.14411,-0.929176 -0.92682,-1.553137 -1.57488,-2.02112 -0.50553,-0.364974 -1.36069,-0.299535 -1.54889,-1.049884 -0.37329,-1.753453 2.03499,-1.055184 2.10011,-0.157487 m 17.08741,-0.787438 c 0,0.176457 -0.009,0.61436 0.0394,0.682469 0.6769,0.808498 1.75661,2.606401 2.63792,3.569696 M 178.63281,64.76758 c 0.007,-0.579332 -0.0175,-1.292341 0.0133,-1.811103 0.3722,-0.590191 0.7361,-1.437718 1.32526,-1.745514 0.35671,-0.178197 0.80949,-0.0479 1.10243,0.249377 0.72365,0.734608 0.31496,2.678239 0.31496,3.543476 m -9.76423,-3.700964 1.21809,0.157488 m -9.48609,1.496127 c -0.0969,-0.333405 -0.12205,-0.834447 0.21024,-1.259901 0.6287,-0.622401 2.37089,-0.176307 2.61115,0.472463 -0.1231,1.399099 -2.06406,0.6329 -2.82139,0.787438 -0.76783,2.233746 1.44155,2.829897 2.75603,2.913516 m 5.49868,-4.580261 c 0.0228,0.876027 0.67563,2.806088 1.03707,3.95031 m 13.81952,-3.490937 -0.1181,0.577421 -0.34043,3.36331 m -54.95117,-3.638895 c 0.36772,0.270876 1.41508,0.306765 2.13953,0.538042 0.61027,0.194967 0.87406,0.64263 0.99769,1.233681 0.0535,1.927811 -2.30184,2.894486 -3.66787,2.027729 m 46.53051,-3.26141 c 0.26572,0 0.35514,0.315845 0.45908,0.524982 0.32915,0.65712 0.13622,1.558346 -0.53782,1.94238 -2.45253,0.887477 -2.95389,-2.467362 0.0787,-2.467362 z m 1.33865,-0.262457 0.24947,0.629961 m -18.28181,0.0787 c -0.0373,0.65608 0.2169,1.267481 0.39373,1.889851 m 2.67729,10.000469 c 1.10183,1.842152 3.9789,0.350064 3.47812,-1.496138 -0.12521,-0.429223 -0.50869,-0.710189 -0.80083,-0.839957 -0.72414,-0.600871 -2.83506,-0.257876 -3.18913,-0.971145 -0.14253,-0.351355 0.52916,-0.930206 0.73469,-1.181162 0.16694,-0.203867 0.25512,-0.474433 0.4205,-0.616801 1.41089,-0.444573 3.06547,0.377254 4.23877,0.69554 m 4.72463,-0.393715 c 0.9473,-0.174497 2.91432,-0.891146 3.77971,-0.210006 0.62588,1.247111 -0.50819,2.504572 -1.11583,3.517246 -0.25457,0.393444 -0.47626,0.858547 -0.49845,1.3255 0.19607,0.280326 0.37088,0.0498 0.74807,0.0131 0.9898,-0.0962 1.90245,-0.236236 2.91352,-0.236236 m -31.49754,-4.409654 c 1.35596,2.184927 1.03319,5.002395 2.20482,7.008204 m 29.05648,-6.850716 c 1.44352,0.260536 3.05739,-0.408134 4.47502,-0.0656 -0.10617,1.99639 -1.35413,3.99325 -2.03399,5.892641 M 149.8913,70.200807 c 0.49174,1.210712 0.70807,6.004869 1.88985,6.456993 m -16.77244,1.338649 c 0.0473,-1.807572 0.0977,-3.568906 -0.24961,-5.354589 -0.0788,-0.406784 -0.32444,-0.966735 -0.43309,-1.338639 -0.0355,-0.123159 -0.0606,-0.277886 0.0134,-0.380575 0.078,-0.107958 0.14488,-0.0895 0.2756,-0.0919 0.52522,-0.01 1.2662,0 1.81111,0 m 34.56855,0.0262 c 1.03784,-0.317015 1.79063,0.573182 1.73236,1.627406 -0.0725,1.29715 -1.00319,2.6202 -2.20482,2.887296 -2.07923,0.0264 -2.13017,-2.483512 -1.23391,-3.753483 0.29398,-0.276746 0.7598,-0.230587 1.06303,-0.249376 0.14017,-0.0571 0.16616,-0.212057 0.24963,-0.288676 0.0835,-0.0771 0.26299,-0.183317 0.39371,-0.223167 m -39.05695,0.603731 c 0.90005,-0.165827 1.61504,-0.531522 2.36232,-0.551201 m -8.58308,6.220765 c 1.93848,0.608201 6.22572,-0.282875 4.17343,-2.441063 -1.16186,-1.026034 -3.08323,-1.041384 -4.0813,-2.139237 -0.15395,-1.169843 2.2691,-1.413129 3.05762,-1.561727 m 27.71784,0.7087 c 0.12127,0.121028 0.22757,0.217806 0.28899,0.393714 0.47155,1.653375 -1.54295,4.890236 -3.12377,3.228501 -1.41009,-0.392964 -1.0805,-3.360619 -0.39372,-3.543477 0.94865,-0.820067 2.2341,-1.045744 3.2285,-0.0787 z m 13.85892,-0.314976 0.31497,0.236227 m -31.89125,2.126088 c -0.55515,-0.01 -1.37984,0.118168 -1.77175,0.0656 -0.0239,-0.648831 0.42791,-1.906071 0.91891,-2.231057 0.33781,-0.202996 1.24022,-0.0394 1.64024,-0.0394 m 19.13477,1.102423 2.36231,0.157488 m -24.09564,1.023664 c -0.10471,0.132608 -0.18346,0.244347 -0.26221,0.472463 -0.16722,0.719429 -0.49566,1.624976 -0.27563,2.270426 1.07321,0.300615 2.85164,0.138128 3.76632,-0.223087 m 33.38743,5.905811 0.39368,-1.378039 1.18117,-0.0394 h 2.91352 m 2.91353,0.0787 c 0.87628,0.0502 1.80307,-0.002 2.32293,0.629951 0.44845,1.246551 -2.93621,5.362998 -2.15206,6.286124 1.73212,0.110879 3.02255,-1.31258 4.71124,-1.325259 m 0.0788,-5.433328 c 0.1691,0.775848 -0.59558,2.575741 0,3.031644 0.34648,0.244106 1.67095,0.104728 2.04734,0.026 0.17482,-0.0362 0.36459,-0.103939 0.40712,-0.222847 0.0535,-0.151188 0.002,-0.221267 -0.0268,-0.393724 -0.0677,-0.410254 -0.22285,-1.624486 -0.22285,-2.126078 m -61.97142,2.126078 c 0.0866,-0.122048 0.12599,-0.192127 0.15749,-0.472463 0.79598,-2.173067 3.05628,0.568871 3.77971,1.653625 0.83361,1.246971 0.85209,2.883626 -0.0788,3.93719 -0.71774,0.540012 -1.79123,0.896017 -2.58516,0.616581 -0.67871,-2.399234 -1.07856,-4.518102 -1.8245,-6.6011 m 40.71057,-0.0788 c 1.58513,-0.220797 3.10835,-0.458843 4.68526,-0.222846 l -0.21025,1.561486 -1.01028,4.094688 m 3.77971,-5.748303 c -0.16919,0.584721 -1.12097,1.781503 -0.74809,2.270186 0.16143,0.199217 1.041,0.244886 1.37801,0.249616 0.7717,0.011 2.0253,0.227566 2.51981,0.64334 0.93055,2.124158 -1.94845,3.069684 -3.38599,1.640235 m 18.1111,-4.724638 -0.43311,0.879566 c 0.3945,-0.114178 2.29461,-0.326785 3.03165,0.248837 0.69618,1.078213 0.61125,2.490002 -0.62995,2.940295 -2.3283,0.148798 -2.78627,-0.961365 -2.3883,-2.808797 0.0362,-0.175598 0.0763,-0.259066 -0.0134,-0.380335 -0.0717,-0.0976 -0.38506,-0.0244 -0.66932,0.0654 m -53.15197,-0.62996 c 0,1.617405 0.32914,3.32693 0.76144,4.882126 0.2197,0.792158 0.51499,1.567786 0.97091,2.126078 m -3.38597,-6.929455 1.2599,7.008204 m 15.35504,-6.771968 c 0.99804,-0.0443 1.9929,-0.172417 2.99227,-0.144118 0.73537,-0.0325 1.47048,0.0304 2.20484,0.0654 m -2.12609,0 c 0.5964,2.121728 0.24081,4.526202 0.78744,6.535741 m 2.59855,-5.90578 1.28588,1.496127 0.28899,0.393724 c 0.13622,-0.136228 0.26694,-0.244896 0.45908,-0.472463 0.37875,-0.446483 0.94649,-1.203211 1.58826,-1.338649 m 26.15629,0.314985 c 0.28426,-0.015 0.33945,-0.048 0.9316,-0.157498 m -0.9316,0.157498 c -0.0393,0.956185 0.67119,1.934931 1.08908,2.756028 m -45.19898,3.30724 c 1.20868,-0.212377 2.14108,-1.637895 1.94262,-2.519802 -0.14646,-0.585071 -0.79373,-0.892166 -1.23392,-1.155172 -0.48757,-0.319195 -1.21232,-0.732479 -1.39141,-1.285891 0.0371,-0.911836 1.2048,-0.62086 1.70639,-0.236226 m 14.88259,0.62995 c 0.57159,1.027675 0.9686,2.143688 1.41738,3.228491 m -27.4816,-1.417388 c 0,0.0701 0.009,0.330725 -0.0133,0.472463 -0.0386,0.252776 -8e-4,0.188197 -0.0913,0.472463 -0.17167,0.536251 -1.48356,0.997684 -1.8631,0.62995 -1.7315,-1.423798 0.18571,-4.112828 1.03629,-2.441053 0.18977,0.380334 0.23465,0.392144 0.38033,0.787438 m 26.61542,-1.574876 c -0.83333,1.213431 -1.4792,2.539781 -2.12608,3.858441 m -16.49685,-1.653615 c -0.0732,0.185048 -0.16298,0.214187 -0.35434,0.328365 -0.73423,0.272866 -1.73211,0.221567 -1.75834,-0.564591 -0.097,-2.908096 2.24355,-1.766743 2.11268,0.236226 z m -7.45471,-0.0787 c 0.49193,1.022294 0.31504,0.804337 0.95836,0.944925 m 6.49635,-0.866187 c -0.0322,1.228752 0.49706,1.269611 1.45677,1.417399 m 6.69323,-0.866187 c 0.25829,0.183477 0.49451,0.385074 0.61656,0.629961 0.45357,0.907126 0.0133,2.535551 -0.61656,3.30724 M 29.7748,19.560064 c 0.73862,0.406464 1.51226,0.657762 2.217483,0.440181 0.344968,-0.212492 0.540942,-0.548504 0.311845,-0.936394 -0.48267,-0.817227 -2.419521,-1.323081 -2.809867,-2.086239 -0.404932,-0.789715 0.666075,-1.559412 1.325394,-1.557284 M 1.4917921,13.521412 c 0.3144768,-0.03182 1.1793132,-0.06501 1.5582245,-0.107036 3.5298205,0.115838 -1.3450006,4.431978 -0.4278406,5.200478 1.0279815,0.288595 2.0786656,-0.285117 3.0619017,-0.475197 M 11.476693,18.8503 c 1.206024,-0.02754 1.976024,-1.389665 1.021663,-2.14569 -0.280402,-0.223093 -1.133209,-0.02358 -1.236431,-0.26872 1.449883,-1.559518 -0.277207,-1.605439 -1.436982,-1.478102 M 7.2909304,18.3651 C 6.7159861,18.317791 6.524695,18.186557 6.0254165,17.767988 5.7889941,16.489642 6.1364348,15.44989 7.1474715,14.972736 c 1.2110177,-0.224335 1.5699223,0.465425 1.7332718,1.972112 -0.6664459,1.337021 -1.1350408,1.457663 -1.5898129,1.420255 z m 8.2954636,0.732113 c 0.03859,-0.687022 -1.063913,-3.704706 0.07125,-4.290243 0.73075,-0.376547 2.246005,0.290411 2.128854,1.231558 -0.11985,0.985487 -1.740886,0.670846 -2.388769,1.064632 m 9.091458,-1.780907 c 0.11179,1.113508 -0.01217,1.516009 0.235564,2.273075 0.744587,-0.281024 0.772122,-0.216788 1.864862,-0.410008 m 6.993676,-1.11491 0.514144,1.169145 0.175675,0.718743 c 0.129611,0.939986 0.153053,1.88611 0.189516,2.832711 m -0.189519,-2.832711 c 0.352192,-0.175266 0.68922,-0.22502 1.422059,-0.164728 m -15.691057,0.68102 c -0.195985,-0.189376 -0.471415,-0.399302 -0.799176,-0.558671 -0.760076,-0.369597 -1.380038,0.536624 -1.287066,1.091387 0.181292,1.081764 1.304883,0.746382 2.086242,-0.532716 0.322295,0.645588 0.959306,1.100936 1.295678,1.181269 m 0.418404,0.07763 c 0.252737,-0.166553 -0.04196,-1.3636 0.01088,-1.680417 0.104888,-0.62944 0.736167,-1.784648 1.316735,-0.595951 m 9.805156,0.665846 c 0.651085,0.003 1.052709,-0.08096 1.422156,-0.16467 m -9.548405,-0.363018 0.234329,1.146126 0.746823,0.624866 0.9103,0.920025 m -1.657123,-1.544891 0.09722,1.735416 m 30.043132,7.455647 c 1.667999,0.476109 3.043164,-0.01203 1.964655,-1.623051 -0.663673,-0.575763 -1.352062,-0.404212 -1.954931,-0.207291 l -0.2568,-0.302836 c 0.841883,-1.934254 1.943353,-3.56029 4.509845,-1.7418 m 3.917529,0.322324 c 1.350566,-0.05814 3.074964,0.313163 2.170353,1.868829 -0.450222,0.741901 -1.071449,1.344503 -1.726171,2.024498 M 50.641817,23.903207 c 0.483887,-0.194013 0.850807,-0.37371 1.433623,-0.30463 1.216913,0.29714 0.124007,1.513168 -0.05602,2.10823 0.459949,0.07558 1.412737,0.932811 1.295839,1.656029 -0.426377,0.823985 -1.123159,0.809181 -1.876369,0.549923 m -4.423396,-4.448471 c -0.233611,0.852611 -0.541167,2.015188 -0.475136,2.637178 0.734586,0.533963 2.047054,0.160118 2.589937,-0.09265 0.154079,-0.568076 -0.01259,-1.206117 -0.0621,-1.8123 m 12.863884,1.152741 c 0.671948,0.553917 1.040751,2.14917 -0.347099,2.50686 -0.983213,0.187236 -1.478386,-0.127203 -1.776917,-0.944848 -0.174883,-2.083657 0.938785,-2.341966 2.124016,-1.562012 z M 39.682594,23.565395 c 0.129045,0.714879 0.258034,1.429773 0.386984,2.144672 l 0.196054,-0.100787 c 0.427155,-0.04376 1.238948,-0.164299 1.657283,-0.169313 0.15648,1.663802 0.367275,1.649642 0.50388,2.436014 M 42.038008,24.04089 c -0.07411,0.90101 -0.07839,0.952778 -0.115096,1.399083 M 23.675447,22.952575 c 0.07545,0.214672 0.144803,0.472507 0.222266,0.722567 0.375598,2.097189 1.040375,3.632635 0.636946,5.417788 m 3.19816,-5.806571 c 0.0872,1.325339 0.523476,2.268848 0.213434,3.398095 -0.122302,0.267438 -0.255833,0.459301 -0.40733,0.670781 -2.463597,3.063832 -1.858914,-2.14329 -0.479064,-1.025402 m 6.808616,0.278442 c 1.29448,1.466889 3.061384,0.814362 3.694849,-0.682027 0.225189,-0.636444 -0.129676,-1.13753 -0.634833,-1.414312 -2.088636,-2.07543 -3.318216,1.639053 -3.060016,2.096339 z M 4.4539063,25.456125 C 4.410967,25.028607 3.7375811,22.23357 3.0800161,21.610412 c -0.2508652,1.304816 -0.8010069,2.887851 -0.922211,4.361086 1.2707727,0.0044 1.1518685,-0.498235 2.2961012,-0.515373 m 44.6763797,0.55271 0.02965,0.495454 c -0.04583,0.556827 -0.07573,0.85862 0.145494,1.65576 m -32.947971,-5.48724 c 0.155624,1.580969 0.493132,3.100186 0.408443,3.796208 0.266866,-0.27666 0.469483,-0.80651 1.048427,-0.758881 0.927595,0.07637 1.474721,1.674966 1.36635,2.225249 -0.277368,0.641577 -0.845078,0.506789 -1.45664,0.584367 m 22.345528,-2.809689 c 0.05181,0.854994 0.242644,1.687736 0.407821,2.525638 m 23.246492,0.03744 2.870929,0.323235 M 12.02361,23.064187 c 0.149058,1.252897 0.07563,2.839289 0.615854,3.910423 0.326472,-0.474953 0.792902,-0.790225 1.059937,-0.898784 0.744458,0.0612 0.858936,1.073557 1.144423,1.784426 0.162781,0.406371 0.296006,0.625803 0.467209,0.88357 m 7.097265,-2.373614 c 0.926672,0.309431 0.626735,1.408448 0.130186,1.841841 -0.600185,0.508407 -1.269954,0.340634 -1.644036,-0.276112 -0.484619,-1.518499 0.585433,-1.588688 1.51385,-1.565729 z m 5.537955,0.314246 c 0.108637,0.909764 0.210571,1.110423 0.934187,1.485914 M 6.6933584,28.606116 c 0.02081,-0.253234 0.1468218,-1.367213 0.1637875,-1.543293 0.02084,-1.054728 1.4447481,-1.63344 2.2252503,-1.366349 m 7.6834968,0.772978 c -0.0474,0.576425 0.342676,1.478683 0.272469,2.332138 m 13.018906,-1.238667 c 0.710981,0.493745 0.898888,1.200805 0.631718,2.023954 -0.133055,0.410224 -0.348167,0.674236 -0.593615,0.937157 M 4.4539023,25.456114 c -0.049259,0.598817 0.3225471,1.90317 0.4462952,3.13599 m 5.5467565,-2.360831 c -0.31576,0.699813 -0.9790006,1.678997 -0.685356,2.338181 0.312839,0.645494 1.42226,0.328288 1.741156,0.237607 m 1.018116,0.187283 c 0.09266,-0.644373 0.08124,-1.426648 0.118593,-2.019274 M 2.1577811,25.971888 1.8325745,28.66436 M 6.6933594,28.60611 C 6.7445686,28.333179 6.1812762,27.18694 5.8717408,27.22247"
         sodipodi:nodetypes="cccsccccccccccccccccccscccccccccccccccccscccccccccccccccccccccccsccccccccccccccccccccccccccccccccccccscccccccsccccccccccccccccccccccccccccccscccccccccccccccccccccccscccccccccccsccccccccccccccccccccccccccccccccccccccccccccccccccccccccccccccccccccccccsccccccccccccccccccccccccccccccccccccccccccccccsccssccccccccscccccccccccccccccccccccccccccccccccccccccccccccccccccccccccccccccccccccccccccccccccccccccccccccccccccccccccccccccccccccccccccccccccccccsccccccccccscccsscccccccccccccccscccccccccccccccccccccccccccccccccccccccccccccccccccccccccccccccccccccccccccccccccccccccccccccccccc" />
    </g>
  </g>
</svg>
