<?xml version="1.0" encoding="UTF-8" standalone="no"?>
<!-- Created with Inkscape (http://www.inkscape.org/) -->

<svg
   width="210mm"
   height="297mm"
   viewBox="0 0 210 297"
   version="1.1"
   id="svg1190"
   inkscape:version="1.2.1 (9c6d41e, 2022-07-14)"
   sodipodi:docname="EthanB - Stake - Envelope 7.svg"
   xmlns:inkscape="http://www.inkscape.org/namespaces/inkscape"
   xmlns:sodipodi="http://sodipodi.sourceforge.net/DTD/sodipodi-0.dtd"
   xmlns="http://www.w3.org/2000/svg"
   xmlns:svg="http://www.w3.org/2000/svg">
  <sodipodi:namedview
     id="namedview1192"
     pagecolor="#ffffff"
     bordercolor="#666666"
     borderopacity="1.0"
     inkscape:pageshadow="2"
     inkscape:pageopacity="0.0"
     inkscape:pagecheckerboard="0"
     inkscape:document-units="mm"
     showgrid="false"
     inkscape:zoom="0.64068778"
     inkscape:cx="234.1234"
     inkscape:cy="99.892649"
     inkscape:window-width="1309"
     inkscape:window-height="456"
     inkscape:window-x="0"
     inkscape:window-y="37"
     inkscape:window-maximized="0"
     inkscape:current-layer="layer1"
     inkscape:showpageshadow="2"
     inkscape:deskcolor="#d1d1d1" />
  <defs
     id="defs1187" />
  <g
     inkscape:label="Layer 1"
     inkscape:groupmode="layer"
     id="layer1">
    <path
       id="path836"
       style="fill:none;stroke:#000000;stroke-width:0.130085;stroke-miterlimit:4;stroke-dasharray:none;stroke-opacity:1"
       d="m 37.084248,6.0067141 c -3.306191,1.766993 -3.941203,-2.1216923 -2.781736,-4.3554101 0.60701,-0.6088494 1.02462,-0.045945 1.140996,0.5090745 M 1.3839496,6.6289149 C 2.2668625,6.970417 4.0217673,7.0060966 4.6842747,6.1764028 5.1999392,5.4470688 4.4644284,4.9911816 3.9299288,4.6020433 3.0872138,3.863462 0.24382756,2.7698421 1.893145,1.6701626 2.3833994,1.3502083 2.8028581,1.3847462 3.2510008,1.8209957 M 20.450511,1.5381769 c -0.895056,0.6391041 -0.961125,1.8440906 -0.961814,2.7716243 -0.02397,1.6362924 1.229783,2.6052003 2.602557,1.6969152 m 5.544578,-4.3554102 0.150892,0.5090745 c 0.384099,0.9710824 0.425479,1.8481268 0.810924,2.7150596 0.06591,-0.073652 0.129052,-0.1179354 0.188571,-0.2828188 0.09217,-0.255062 0.383029,-0.9729017 0.886398,-0.6033429 0.445037,0.3267242 0.430384,1.4484568 0.62235,1.9043092 M 45.910311,1.651304 c 0,0.2892954 0.104668,0.6750375 0.339465,1.0181482 M 10.945519,1.7078679 c 0.247234,0.6288814 0.433438,1.275776 0.622347,1.9231678 0.276949,-0.1165951 0.662241,-0.169691 1.301282,-0.169691 M 46.928704,1.7644318 c 0.211418,0.6051653 0.428326,1.2025295 0.51864,1.81004 0.19447,0.8981138 0.454973,2.0107035 -0.0094,2.7716243 M 6.4759094,1.9341228 C 6.6129672,2.5858567 7.3735865,3.3935948 7.2679916,4.0269831 6.8945499,4.1916126 6.1203449,4.1922987 5.5706722,4.1966733 M 43.364331,1.9906867 c 0.100681,0.5178132 0.260088,1.0208138 0.40549,1.5272212 m -5.836914,2.4322423 c -0.05353,-0.4607741 -0.0066,-0.9598639 0.0094,-1.357531 0.0568,-0.3717983 0.0598,-0.7965928 0.292279,-1.1312745 0.431855,-0.6216583 0.868236,-0.2136356 1.169284,0.2262549 m 0.565773,1.1878385 c 0,-0.5078467 0.157907,-1.3694476 0.961814,-1.4140934 0.684628,0.010623 1.265782,0.639333 0.565775,1.1124166 -0.556156,0.3706968 -1.029087,0.091837 -1.527589,0.3016768 0.189799,0.8699112 0.557592,1.0734805 1.471011,1.0747121 m 4.865651,-2.1494235 c 0.458744,-0.071884 0.714728,-0.1320726 1.131546,-0.2262549 0.333209,0.027283 0.745818,-0.1107493 1.131547,-0.1131278 m 0.509197,2.7716242 C 49.53137,6.5069229 50.334371,6.1940722 50.719381,5.8370216 51.1886,5.3654408 50.881162,4.9486612 50.266762,4.8754373 49.786823,4.86764 49.218769,4.8543044 48.918353,4.4229275 48.587545,3.6019106 49.489445,3.6982099 49.814142,3.8007259 M 11.567866,3.6310357 c 0.04094,0.3955742 0.175872,0.6715945 0.235756,0.9050204 0.02314,0.1389995 0.03695,0.2694976 0.04714,0.4525098 0.05401,0.4902785 0.1372,1.1307222 0.169723,1.5272212 m 2.093362,-1.4140934 c -0.136182,-0.3232909 -0.0072,-1.0805095 0.452619,-1.3103903 0.535619,-0.1304044 0.896878,0.050569 1.06552,0.5184978 -0.09502,0.9101143 -0.990323,0.6311405 -1.518139,0.791894 M 43.769821,3.5179079 c 0.19299,1.0153232 0.779232,2.2226149 1.178673,3.1675717 M 25.655623,6.3460968 c 0.386054,0.4509851 1.294814,0.3759365 1.67848,-0.056561 C 27.917586,5.2636622 26.086352,5.0925704 25.674464,4.6491862 25.053075,3.9013508 26.321708,3.9329361 26.730592,4.0835493 M 43.769821,3.5179101 c 0.03619,0.7336241 0.01778,1.6077242 -0.198024,2.2625521 -0.180572,0.7616824 -1.085837,1.4646 -1.357856,0.339382 -0.08187,-0.3466678 -0.173579,-1.29664 0.301728,-1.470658 0.272985,-0.099937 0.568375,0.1415677 0.792082,0.2828196 M 7.2679916,4.0269831 C 7.6647988,4.8555972 7.6965321,5.8137475 7.5508791,6.6289164 M 7.2679916,4.0269831 c 0.2254608,0 0.6393809,0.026822 1.0183925,0.2262549 M 25.203007,6.2329698 C 24.911549,5.8781389 24.309745,5.5488852 24.467502,5.1016945 c -0.06659,0.072269 -0.134937,0.1625298 -0.216861,0.2828188 -0.562168,0.8276326 -1.460874,0.7060448 -1.650191,0.1131248 -0.32879,-1.024541 0.338046,-1.504695 1.074969,-0.7918918 m 0.735506,-0.2262556 0.05658,0.6222015 M 11.803622,4.5360561 c 0.4202,0.1216067 1.075087,0.8492702 1.687877,1.1878384 M 10.228853,5.2053968 C 9.9386981,5.9154581 8.966295,6.7210647 8.5753962,5.5424456 8.573054,4.9296794 8.9480718,4.6286978 9.1595193,4.4888165 9.6664238,4.3233475 9.982268,4.8333 10.228853,5.2053968 c 0.251514,0.5052566 0.545311,0.699717 0.886397,0.7447526 M 37.696325,3.0745622 c 0.125998,0.3989099 -0.01711,1.4419114 0.246028,1.518057 m -9.344705,0.2828181 c 0.05646,0.3571753 0.05658,0.7146468 0.05658,1.0747121 M 14.113849,5.1016937 c 0.220647,1.0858868 1.379172,1.1170127 2.093362,0.6222023 M 45.853735,5.554205 45.966889,6.0632788 M 91.38822,35.419868 c 1.717235,0.699916 5.077296,0.388521 6.006811,-1.414091 0.384396,-0.963507 -0.804009,-1.912167 -1.367473,-2.507643 -0.967081,-1.022033 -4.8399,-1.441193 -4.799455,-3.035604 0.0038,-1.880411 4.101239,-3.935878 4.34684,-1.470659 m 28.797867,1.244401 c 0.0558,1.010321 0.68733,2.305721 0.62234,3.111015 -0.0345,0.35839 0.01,0.448996 0.01,0.820163 -0.79967,-0.12447 -0.45426,-0.428528 -0.01,-0.820163 m -7.29853,-2.828196 c 0.22601,1.36399 0.69002,2.751469 1.01841,4.016028 0.67298,-0.08456 1.50004,-0.223955 1.92364,-0.226252 m 20.82045,-3.789768 c -0.17779,1.064812 -0.20278,1.996593 -0.26412,2.997878 -0.0611,0.998021 -0.54151,2.174232 -0.10347,2.997879 0.96996,0.688545 2.43639,-0.07742 3.36636,-0.339381 m 6.67612,-5.034176 0.18841,0.565639 0.37736,0.6222 m 5.14854,-0.90502 c 0.54564,0.737234 1.11987,1.6057 0.82039,2.658498 0.0459,0.452971 -0.0153,0.926561 0.0565,1.395255 0.3343,0.348862 0.29611,0.989422 0.59407,1.432933 l 0.45262,-0.6222 m -6.44981,-4.694795 c 0.13414,0.86292 0.23265,1.72998 0.39588,2.545368 0.24894,-0.104871 0.47366,8e-6 0.84877,8e-6 m 3.28157,-2.715067 c 0.25934,0.844847 0.34289,1.905519 0.82039,2.658498 m -30.86308,-1.58378 c -0.65349,0.246311 -1.3393,0.744071 -1.81048,0.848451 m 19.7455,-0.79189 0.56577,0.6222 m -31.68331,4.355408 c 0.6998,-0.0082 3.48218,0.409035 3.5457,-0.28282 0.0749,-1.497428 -2.5641,-1.718239 -3.24414,-2.545369 -0.42094,-0.547596 0.0294,-1.126526 0.66025,-1.187839 0.23197,-0.02259 0.44697,0.07042 0.67893,0.113129 m 17.14294,4.016028 c 0.38699,-0.07125 1.14625,-0.225299 1.52758,-0.405394 0.70171,-0.386345 1.43137,-1.20635 1.18813,-1.800594 -0.19066,-0.415745 -0.75587,-0.615302 -1.13155,-0.73533 -0.45885,-0.161288 -1.42267,-0.06536 -1.50891,-0.509078 -0.0385,-0.24786 0.18558,-0.440179 0.37737,-0.546803 0.41188,-0.228858 0.89222,-0.150741 1.30127,-0.0754 m -2.60255,0.320545 c 0.25742,0.08943 0.35417,0.277281 0.32984,0.471346 -0.0695,0.557328 -0.6925,0.806714 -1.12193,0.848458 -0.47637,-0.02554 -0.87367,0.0053 -1.29166,-0.179134 -0.0216,-1.066006 1.4107,-1.244816 2.08375,-1.14067 z m -21.49939,3.356102 v -0.33938 c 0.13106,-0.721042 -0.24391,-1.822476 0.1884,-2.488808 0.16973,-0.243961 0.27045,-0.369081 0.5471,-0.395949 0.97171,0.0572 1.54773,1.156 1.47097,1.979737 -0.18649,1.736887 -1.89552,1.013079 -2.17822,1.366967 -0.0973,0.697128 -0.0283,1.464455 -0.0283,2.196543 m 14.82326,-2.828188 c 0.11068,-0.713909 -0.0821,-1.7948 0.12274,-2.573656 1.09602,-0.196211 2.09064,0.477307 2.64951,1.272688 m 25.06375,-1.300961 c -0.41345,0.201453 -0.68844,0.105536 -1.07496,0.16969 m 1.07496,-0.16969 c 0.23449,0.837435 0.0838,1.879867 0.11319,2.771627 M 123.015,33.440143 c 0,0.209969 0.0391,0.249447 -0.0283,0.395949 -0.21657,0.329573 -0.48939,0.668319 -0.82037,0.895575 -1.16237,0.261581 -1.59444,-0.724827 -1.19775,-1.630904 0.45544,-0.701133 1.12435,-1.076471 1.48063,-0.11313 m 32.58855,1.640349 c -0.3157,0.0581 -0.54767,0.126367 -0.84866,0.0094 -0.62189,-0.311674 -0.81098,-0.980092 -0.69757,-1.536664 0.12674,-0.326997 0.61614,-0.6562 0.98049,-0.641036 0.31852,0.01322 0.69024,0.399394 0.60368,0.697597 -0.14709,0.503245 -0.82885,0.60393 -1.11287,0.113129 m -36.49235,-0.565599 c 0.37219,-0.09834 0.86537,-0.11554 1.24456,-0.169698 m 0,0 c 0.22438,0.946024 0.28398,1.868451 0.28296,2.771635 m 28.17552,0.226251 c 0.12822,-0.717634 -0.30445,-1.76191 -0.0662,-2.31911 0.80428,-1.308154 0.97503,-0.266273 1.5372,0.16969 0.13267,-0.210853 0.29741,-0.84187 0.56578,-0.76361 0.78751,0.728288 0.62616,2.341913 1.47102,2.63021 m -41.24488,0.791898 c -0.45602,0.144009 -1.015,0.245654 -1.52759,0.160246 -1.04925,-0.336101 -1.13913,-1.167046 -0.99973,-2.139983 0.11684,-0.81538 2.11914,-2.028788 2.0747,-0.79189 -0.0244,0.351991 -0.44414,0.815819 -0.79209,0.989861 -0.24724,0.123647 -0.36718,0.08389 -0.56576,0.14141 M 98.969655,32.76137 c 0.04261,0.958158 0.02697,2.180677 0.527869,2.941317 0.595826,0.617886 1.018386,0.05153 1.254316,-0.45251 0.0357,-0.07744 0.0283,-0.118954 0.0283,-0.226258 0,-0.269635 0.0566,-0.572251 0.0566,-0.848451 m 28.63768,-1.140723 c -0.29387,0.856989 -0.23004,2.026498 1.00892,2.045742 0.58001,0.05395 1.12159,-0.183018 1.58416,-0.509071 m 25.65777,-1.093553 c -0.20466,1.326181 -0.65606,1.325018 -1.44267,1.376365 -1.02329,-0.491413 -0.721,-1.795963 0.45251,-1.58378 m -52.61692,1.923168 c -0.43527,-1.10713 0.78502,-2.273935 1.69733,-1.866607 0.7575,0.616344 -0.25521,1.585178 -0.84867,1.772314 -0.32587,0.09967 -0.54993,-0.03143 -0.84866,0.09429 0.44941,0.88221 1.2901,0.867809 2.20652,0.622193 m -3.5644,-2.432247 c 0.84236,0.608668 0.48031,2.245466 -0.16971,2.941318 -0.84073,0.849811 -1.37035,-0.405605 -1.83873,-1.074703 m 47.89268,-1.8666 c 0,0.339381 -0.0566,0.678754 -0.0566,1.018134 m -3.28148,-0.90502 c 0,0.373834 -0.0565,0.428416 -0.0565,0.90502 m 5.94061,-0.735329 c -0.0237,0.494564 -0.0238,0.973941 0,1.470658 m -28.2038,-1.300953 c -0.13901,1.014779 0.28912,0.625132 0.53749,1.018134 m 12.10755,7.070474 c 0.19563,0.394748 0.54505,2.52546 -0.0566,2.715059 -0.2852,-0.897849 -0.17791,-2.148437 0.0469,-2.781072 0.0236,-0.553384 -0.13996,-1.084675 -0.0849,-1.574336 0.0334,-0.158667 0.0639,-0.154194 0.0945,-0.282819 0.497,-1.80837 2.05491,-0.780557 2.4894,0.50907 0.67722,2.000893 0.36142,3.408349 -1.69725,4.515654 -0.3044,0.160586 -0.64555,0.309634 -0.90524,0.405393 m -0.50919,-5.939196 c 0.2478,0.392043 0.26421,0.525988 0.50919,0.791898 m -3.90384,5.316989 c -0.24744,-0.991373 -0.33404,-1.956572 -0.51885,-2.88475 -0.0915,-0.405385 -0.34661,-0.754293 -0.2637,-1.131278 0.22171,-0.773235 0.33137,-1.719433 1.40482,-1.734642 2.47197,0.695338 1.0876,2.265072 -0.56579,2.97905 0.62597,0.780307 1.53023,1.032187 2.02717,1.923168 0.14483,0.26681 0.20198,0.61055 0.34909,0.90502 m -23.76244,-2.319115 c -0.26388,-0.597455 -0.59449,-0.998489 -0.61269,-1.640349 0.0323,-0.214094 0.0583,-0.221559 0.11315,-0.452509 0.79661,-2.588368 3.60797,-0.0097 2.85715,1.07471 -0.54506,0.626869 -1.1672,0.94758 -1.96153,1.074709 -0.11372,-0.006 -0.28176,-0.05357 -0.39603,-0.05659 0.17499,0.874223 0.71392,2.054704 0.7355,2.771628 M 94.217088,41.019646 c 0.506563,-0.296948 2.169782,-0.877222 2.479779,-0.113129 -0.0045,0.69459 -0.645705,1.354923 -1.121924,1.69691 m 2.772284,-2.03629 0.358144,2.149419 c 0.126427,0.764147 0.151081,1.544809 0.151081,2.319118 m 31.456998,-4.468537 c 0.12354,0.3727 0.27954,0.705318 0.5092,1.018148 m -11.48522,-0.56564 c 0.30495,0.483057 0.61273,0.988562 0.82999,1.52722 0.0746,0.186267 0.0984,0.352618 0.16973,0.565639 0.0493,0.148081 0.0611,0.251993 0.14145,0.395949 0.42578,0.797444 0.62853,1.867552 0.89561,2.828188 M 92.123723,41.076206 c 0.853786,1.63914 0.857012,3.4676 1.357855,5.260428 m 9.901042,-5.203867 c 0.13039,1.003182 0.30875,1.999533 0.47131,2.997879 0.0768,0.492282 0.17092,0.981323 0.26427,1.470658 m 5.31827,-4.129149 0.23585,0.226251 m -9.853993,0.848459 c 0.598593,-0.362236 1.818393,-0.312233 2.310053,0.28282 0.54299,1.004798 -0.62182,2.804501 -1.518,2.771619 -1.210041,-0.262268 -1.455355,-1.678754 -1.282612,-2.601929 0.05145,-0.262737 0.12447,-0.839974 0.282887,-1.07471 0.310043,-0.458449 0.768895,-0.224105 1.112885,0.05659 m 24.21509,3.280698 c -0.0427,-0.522678 -0.12286,-1.15198 -0.0283,-1.640349 0.0718,-0.161772 0.10127,-0.122521 0.14144,-0.28282 0.0617,-0.245661 0.13126,-1.172962 0.7355,-0.773061 0.89562,0.59262 1.03594,2.167356 1.58418,3.035611 M 95.574943,42.603456 c 0.872054,-0.07132 2.37119,0.575454 2.743996,1.414098 0.109768,0.272521 -0.04299,0.62056 -0.254592,0.848451 -0.53862,0.580743 -1.95701,1.420656 -2.715716,0.961588 m 35.751279,-3.091741 c 0.26251,0 0.28791,0.07148 0.57137,0.09385 m -18.58645,3.681868 c -0.0548,-0.778683 0.17569,-1.683197 0.15182,-2.324331 0.11833,-0.752533 0.94031,-1.68439 1.51797,-0.961588 m 9.90103,0 0.25472,0.395942 m -2.23492,0.113129 c 1.16193,-1.321082 2.37741,1.345357 0.62241,2.309673 -1.32182,0.747154 -1.65223,-1.44664 -1.12192,-2.130538 0.29477,-0.317432 0.63028,-0.05841 0.89561,-0.0094 m -5.77089,2.828196 c 0.69593,0.285902 1.93455,-0.477443 2.14032,-1.187839 0.0713,-0.268736 -0.10126,-0.432375 -0.32984,-0.556195 -0.77199,-0.306106 -1.55344,-0.118819 -1.67865,-0.971033 0.0848,-0.788822 1.03188,-0.678156 1.39576,-0.16969 m -2.26309,2.771627 c -2.58036,0.20221 -2.37874,-2.275136 -1.18812,-2.903585 0.50446,-0.446699 1.79475,0.08494 1.4331,0.754166 -0.24742,0.371846 -0.70543,0.420474 -1.03706,0.226258 m 3.50779,-1.187839 h 1.18813 c 0.24781,-7e-6 0.6546,0.03226 0.96181,-0.05659 m -8.57407,-0.09033 0.37036,0.825664 m -0.22631,5.939196 c -0.0104,1.666362 0.0138,3.293988 0.33932,4.921047 m -2.14994,-4.751357 -0.0565,1.696917 c 0.0543,1.223003 0.0113,2.49557 0.67902,3.56351 m 9.9576,-1.640349 c 0.45137,1.062327 3.61896,0.140534 2.65918,-0.952136 -0.80541,-0.612431 -1.71643,-0.582533 -2.58389,-0.867347 -0.13172,-0.334032 0.0236,-1.258575 0.3208,-1.395202 1.07906,0.04594 2.09502,-0.194714 3.11176,-0.179127 m 6.7327,0.509071 c 0.40096,0.08239 2.86714,-0.628751 2.93241,-0.395942 -0.28764,1.012513 -0.52797,2.099349 -0.71627,3.111001 -0.0464,0.598067 -0.12099,1.292294 -0.12266,1.866607 m -5.14853,-4.694796 c 0.79595,-0.585336 2.73722,-0.314575 2.13127,0.791898 -0.34343,0.617561 -0.61161,1.099031 -0.83,1.753479 -0.47746,1.692716 -0.0862,1.731129 1.30134,1.008696 0.34964,-0.184453 1.03706,-0.502565 1.30127,-0.669316 m -32.37683,2.707753 c -0.2944,-1.532954 0.0857,-3.862499 -0.551121,-5.366296 0.646841,-0.17445 2.423081,-0.53952 2.995021,-0.558348 m -10.067191,7.006622 c 0.398873,0.147069 1.105521,0.411786 1.640742,0.32977 1.923576,-0.362954 3.305034,-1.999102 1.41443,-2.941151 -1.185678,-0.759455 -3.999171,-1.238114 -3.234518,-2.988427 0.819672,-1.171496 2.257078,-1.560509 2.858591,-0.166041 m 21.234306,0.448853 c 0.13215,0.427139 0.0904,0.921536 -0.0379,1.300969 -0.60179,1.85816 -2.2452,1.81662 -2.53636,-0.05659 -0.50509,-2.653187 1.64743,-3.370292 2.57432,-1.244408 z m -10.78765,3.05444 c -0.72259,0.488837 -1.38222,1.005924 -2.26309,1.018149 -0.83496,-0.399969 -0.82511,-1.679767 -0.95216,-2.43224 -0.01,-0.456174 0.002,-0.987692 -0.0283,-1.357529 0.013,-0.240395 0.32248,-0.473159 0.47129,-0.6222 0.34907,-0.349286 0.85828,-0.752586 1.2447,-0.90502 m -7.128751,0.565639 c 0.881748,0.06528 1.774954,-0.441002 2.602552,-0.452509 m 27.043979,0.395941 c 0.68858,-0.01587 1.63731,0.219761 1.80086,1.07471 0.18624,2.153613 -1.56679,2.777732 -2.63993,1.357529 -0.38755,-0.72726 -0.30409,-1.540359 0.0469,-2.262549 0.11938,-0.238808 0.58897,-0.541083 0.7355,-0.226251 0.0458,0.09898 -0.10749,0.219466 -0.11315,0.226251 m -8.37345,0.791898 c 0.78569,-0.03702 1.60313,0.04148 2.37625,-0.113122 m -17.99157,1.470659 c 0.98571,-0.29336 1.89875,-0.847968 2.88545,-0.848459 m 16.23769,10.351173 c 0.77717,0.864944 2.22357,0.606665 2.81019,-0.395957 0.0747,-0.134617 0.0883,-0.186093 0.0753,-0.33938 -0.009,-0.108604 -0.0345,-0.198538 -0.0848,-0.28282 -0.12485,-1.007254 -2.75239,-0.507779 -2.82886,-0.96158 0.0909,-0.456243 0.32044,-1.426678 0.70722,-1.640349 1.03289,-0.274857 2.03325,-0.314682 3.11175,-0.509064 m -8.09056,0.90502 c 0.81802,-0.314644 1.78137,-0.317477 2.54598,-0.499452 0.32701,-0.04239 0.58557,-0.05372 0.66931,0.21664 -0.11222,0.99243 -0.76327,1.995838 -1.02743,2.884749 -0.11608,0.778925 -0.34359,1.457724 -0.32076,2.149427 M 94.669704,59.996792 c 1.320296,0.343914 2.639926,2.618461 2.244423,3.818049 -0.22279,0.664662 -1.497126,1.776432 -2.178229,1.225738 -0.111678,-1.292997 -0.976019,-2.945556 -0.858281,-4.167055 0.01473,-0.133492 0.07185,-0.224559 0.122778,-0.339381 0.126729,-0.285079 0.33833,-0.523781 0.669309,-0.537359 m 31.570156,0.3111 c 2.05792,-0.685424 2.48591,-0.08189 1.622,1.753486 -0.37378,0.661912 -0.83304,1.304528 -1.0563,2.036298 0.81976,-0.0068 1.88489,0.440331 2.58189,0.006 m 2.39693,-3.909154 c -0.036,0.444599 0.3124,1.431007 0.23142,1.94925 -0.47501,0.353759 -1.27914,0.289695 -1.81566,0.41681 -0.56199,-0.52873 -0.39635,-1.685448 -0.39599,-2.309499 m -21.2165,0.169697 c 1.15764,-0.09119 2.2576,0.25191 3.28147,0.339381 m 24.38485,1.07471 c -0.0379,0.492395 -0.46903,1.067358 -0.90524,1.29135 -1.26752,0.577388 -1.75722,-0.682917 -1.60284,-1.630731 -0.10341,-2.702365 2.67446,-1.826321 2.50808,0.339381 z m -34.85165,-1.244091 v 1.52722 c -0.0261,0.957183 0.20487,1.85405 0.45267,2.771619 m 10.80627,-3.902898 0.96181,1.300969 0.73552,-0.90502 m -14.20086,-0.226266 c 0.16522,1.266243 0.11157,2.633655 0.62228,3.902898 m 9.50498,-3.846337 c 0.64464,1.265654 0.0232,2.622518 0.22619,3.959466 m 21.50462,-3.028357 c 0.0159,0.605797 0.23693,1.088219 0.67372,1.444569 m -19.06658,-1.300968 c 0.30123,0.796786 0.89084,1.513249 1.41443,2.036298 m -1.41443,-1.923169 c -0.61297,1.03533 -0.81808,1.982782 -1.13154,3.111008 m -7.29849,-0.339381 c 0.30213,0.127266 0.53864,0.07976 0.7921,-0.169697 0.93398,-1.165415 -0.88641,-1.224091 -1.32957,-1.923169 -0.0517,-0.737324 0.69766,-0.43724 1.10325,-0.282812 m -2.88544,0.08484 c 0.28967,-0.04019 0.66109,0.350465 0.71597,0.548443 0.29121,0.436983 0.10167,1.355021 -0.71597,1.403014 -0.31287,0 -0.40566,-0.433848 -0.443,-0.678769 -0.0447,-0.290737 0.0492,-1.217819 0.443,-1.272688 m -3.734107,0.820179 c -0.130688,0.309966 0.04465,0.320151 -0.12277,0.565639 -0.08203,0.120481 -0.110326,0.113688 -0.198023,0.226251 -0.09278,0.119355 -0.320787,0.397082 -0.527865,0.377287 -0.749088,-0.07299 -1.104955,-1.194065 -0.565775,-1.678248 0.463367,-0.416311 1.001424,-0.15442 1.527593,-0.113129 m -0.23593,1.187839 c 0.375315,0.593882 0.59571,1.183532 1.367477,1.357529 m 3.20537,-2.194904 c 0.15095,0.982668 0.31483,1.814558 0.58531,1.403014 m 2.77228,-0.169698 c 0.6365,0.636344 0.31797,1.326423 0.0565,2.036298 M 1.9974026,9.9207159 c 0.5701476,-0.3303977 1.629605,-0.5000774 1.8594269,0.3539281 -0.053267,1.18164 -1.3116241,1.889514 -1.5755261,2.868766 0.6831787,0.237732 1.9255894,-0.08346 2.5670062,-0.118733 m 7.2752374,0.585449 c -0.0285,-0.563808 -0.139612,-1.109708 -0.28688,-1.650398 -0.03822,-0.140281 -0.07885,-0.280213 -0.121115,-0.420014 -0.175164,-0.681714 -0.09954,-1.118898 0.42645,-1.484285 0.957699,-0.2147514 1.708016,0.0238 1.359116,0.958425 -0.235662,0.45203 -1.289117,0.656749 -1.664451,0.945874 m 11.317582,1.793744 c 0.911665,-0.06782 1.884912,-0.270366 1.243833,-1.268404 -0.180075,-0.22498 -1.102875,-0.665382 -1.224327,-0.872238 -0.276727,-0.619309 0.490687,-1.290678 0.805067,-0.800711 m 1.880747,-0.517609 c 0.107395,0.401147 -0.05176,0.660408 0.0074,1.20254 0.405787,0.08791 0.691015,-0.0085 0.888323,0.134755 M 7.6989136,10.657941 9.2577151,10.866845 c 0.5971148,0.08003 -0.1091015,0.478683 -0.3524833,0.81355 0.1862233,0.176561 0.8763462,0.571666 0.9685338,1.180399 0.1025244,0.796314 -0.8882198,0.800242 -1.4359591,0.782831 m 9.6933425,-3.402917 0.230587,1.729321 C 18.930821,11.44675 19.06648,11.620242 19.9532,11.026905 M 6.9435303,11.157764 c 0.6476819,0.282711 0.6417357,1.323491 0.032179,1.771518 -0.7604214,0.452543 -1.9882023,0.202767 -1.9018052,-0.698734 0.2393494,-1.334935 0.7038091,-1.523345 1.8696306,-1.072784 z m 18.9235607,0.339253 c -0.261007,0.181179 -0.458612,0.114625 -0.849078,0.414846 m 0.849078,-0.414846 c -8.31e-4,0.526209 0.07294,1.385078 0.256325,2.093581 M 15.115878,12.624315 c -0.207897,0.533819 -0.576024,1.287203 -1.020106,1.124049 -0.409982,-0.170572 -0.505865,-1.180485 -0.123352,-1.458694 0.515869,-0.284295 0.870037,0.06539 1.143458,0.334645 0.03058,0.747428 0.497883,1.038901 0.96452,0.836879 m 0.430794,0.204061 c 0.14461,-0.02877 -0.111025,-0.921357 -0.07635,-1.085908 0.11833,-0.563245 0.39827,-1.223191 1.015445,-0.959455 m 0.908923,0.432385 c 0.57483,0.632377 1.277879,1.144189 1.928244,1.701746 m -1.925915,-1.784005 c -0.01116,0.393333 -0.056,1.104769 -0.01756,1.868467 M 1.7287505,20.206619 c 0.1568095,-0.703701 -0.00848,-1.433719 0.2535523,-2.6983 0.075818,-2.635513 0.1356064,-3.963454 1.171353,-0.356834 M 36.861719,16.719677 c 0.531061,0.0173 2.009377,-0.844341 2.448591,-0.464976 m -4.908778,0.136227 c 0.535503,-0.107561 0.992094,-0.28016 1.010337,0.328855 -0.05075,0.320016 -0.38902,0.967157 -0.700453,1.062614 M 19.969122,15.455565 c 0.09515,1.231155 0.09167,2.339079 0.337448,3.53773 0.03793,1.384548 0.183308,0.405069 0.484416,1.298717 m 16.070733,-3.572335 c -0.194495,0.418722 -0.24645,0.852426 -0.305801,1.303228 l 0.384158,0.127931 c 1.549572,0.347412 1.635701,1.611011 0.123235,1.977395 m -3.956723,-3.582044 c 0.006,0.54712 0.102737,1.191602 0.101931,1.680726 -0.0079,0.577078 0.156554,1.207906 -0.0153,1.775555 m 9.194126,-2.858652 c 0.48064,-0.248517 1.351681,-0.345213 1.445219,0.145641 0.01139,0.819513 -1.354222,1.576331 -0.731769,2.327519 0.480781,0.462415 1.07825,0.223871 1.545594,0.148913 0.240281,-0.03748 0.329432,-0.05735 0.515579,0.03355 M 16.761441,16.21242 c 0.865919,0.568669 0.893388,4.075029 0.977093,4.132821 m 9.803879,-3.492903 c 0.03674,0.971063 -0.01147,1.061888 0.07167,1.662502 l 0.457763,-0.03982 0.548678,-0.09861 c 0.08125,-0.373939 0.0091,-0.74469 -0.02952,-1.119869 m -2.10903,1.145815 c 0.06445,0.416712 -0.153604,0.672082 -0.33421,0.930036 -0.271773,0.387691 -0.877673,1.001467 -1.444019,0.798494 -0.585915,-0.209674 -0.508678,-0.935499 -0.403813,-1.432775 -0.06648,-1.646598 1.89146,-1.631842 2.182042,-0.295755 z m 4.722884,-1.523291 c -0.0045,0.479151 -0.05003,1.371477 0.391389,1.574661 0.612302,0.239935 1.054733,-0.127545 1.612266,-0.22684 M 9.2201179,15.649471 c 0.211548,0.740323 -0.037272,2.42621 0.2494867,3.122711 1.1190904,-1.096228 1.0191504,-1.941869 1.5753044,0.41922 -0.0031,0.389021 0.09967,0.754883 0.190687,1.129193 m 30.053487,-0.531632 c -0.410291,0.09023 -0.949008,-0.09796 -1.179488,-0.449782 -0.520523,-1.018285 -0.23946,-1.674953 0.883428,-1.500662 1.368899,0.654092 1.870863,1.405984 0.29606,1.950444 z m -6.577671,-2.006589 c 0.642457,0.441086 1.0538,0.593194 1.028844,1.316132 -0.02877,0.781509 -0.783383,1.227642 -1.07771,0.655649 m -6.042022,-1.377771 c 0.06702,0.621618 0.0051,1.230951 -0.05489,1.848784 M 5.5478219,20.682687 C 5.5194659,20.037451 5.1118791,19.304894 5.2836608,18.602031 5.2937323,17.927652 6.3304936,16.930855 6.5645421,17.854303 m 21.0494639,0.660439 c 0.02102,0.265645 -0.161483,1.031114 -0.230109,1.635294 M 1.9142847,17.91678 c 0.3320856,7.4e-4 0.981361,-0.03241 1.4144371,-0.199814 M 3.1535206,17.151462 c 0.3974653,1.022169 0.6805553,2.173477 0.6792173,3.27816 M 16.607203,18.9701 c -0.09298,0.73916 -0.392368,1.372255 -1.06859,1.44531 -1.271185,-0.174639 -0.342831,-1.889622 0.253458,-1.904854 0.59629,-0.01526 0.806319,0.09818 0.815132,0.459544 z m 3.699359,0.0232 c -0.147379,0.695792 -0.747855,2.256724 -1.58091,1.280833 -0.374421,-1.694764 0.644094,-3.231435 1.120269,-1.108339 m -6.754638,-0.721405 c 0.130939,0.627746 -0.345736,1.577336 0.135987,2.04368 0.593606,0.261566 1.470034,-0.428627 1.370435,-0.892591 -0.103956,-0.314182 -0.47744,-0.730871 -0.907266,-1.016177 -0.226,-0.150461 -0.40187,-0.05553 -0.599156,-0.134912 -0.514306,-0.440436 -0.03172,-2.447335 -0.172672,-3.078496 M 9.1371004,20.383555 C 9.354668,19.873722 9.3868221,19.315192 9.4695154,18.77219 M 8.2737187,20.438635 C 7.491163,20.527058 6.4735951,20.161354 6.922312,19.049698 7.1189726,18.628853 7.3954296,18.465162 7.6703778,18.38332 m 13.7552732,0.644368 c 0.877697,0.486661 1.265329,1.727669 0.887496,2.396932"
       sodipodi:nodetypes="ccccccccccccccccccccccccccccccccccccccccccccccccccccccccccccccccscccccccccccccccccccccccccccccsccccccccccsccccccccccccccccccccccccccccccccccccccccccccccccccccccccccccccccccccccccsccccccscccccccccccccccccccccccccccccccccccccccccccccccccccccccccccccccccccccccccccccccccccccccccccccccccccccccccccccccccccccccccccccccccccccccccccccccccccccccccccccccccccccccccccccccccccccccccsccsccccccccccccccccccccccccccccccccccccccccccccccccccccccccccccccccccccccccccccccccccccccccccccccccccccccccccccccccccccccccccccccccccccccccccccccccccccccccccccccccccc" />
  </g>
</svg>
