<?xml version="1.0" encoding="UTF-8" standalone="no"?>
<!-- Created with Inkscape (http://www.inkscape.org/) -->

<svg
   width="3000"
   height="1998.207"
   viewBox="0 0 793.75 528.69226"
   version="1.1"
   id="svg5"
   xml:space="preserve"
   inkscape:version="1.2.1 (9c6d41e410, 2022-07-14)"
   sodipodi:docname="KevinV - Stake - Envelope48.svg"
   xmlns:inkscape="http://www.inkscape.org/namespaces/inkscape"
   xmlns:sodipodi="http://sodipodi.sourceforge.net/DTD/sodipodi-0.dtd"
   xmlns="http://www.w3.org/2000/svg"
   xmlns:svg="http://www.w3.org/2000/svg"><sodipodi:namedview
     id="namedview7"
     pagecolor="#ffffff"
     bordercolor="#000000"
     borderopacity="0.25"
     inkscape:showpageshadow="2"
     inkscape:pageopacity="0.0"
     inkscape:pagecheckerboard="0"
     inkscape:deskcolor="#d1d1d1"
     inkscape:document-units="px"
     showgrid="false"
     inkscape:zoom="0.16"
     inkscape:cx="1809.375"
     inkscape:cy="793.75"
     inkscape:window-width="1366"
     inkscape:window-height="705"
     inkscape:window-x="-8"
     inkscape:window-y="-8"
     inkscape:window-maximized="1"
     inkscape:current-layer="layer1" /><defs
     id="defs2" /><g
     inkscape:label="Layer 1"
     inkscape:groupmode="layer"
     id="layer1"><path
       style="fill:none;stroke:#605da2;stroke-width:0.0863401"
       d="m 53.743533,6.5765186 c -0.137187,0.0135 -0.330075,0.0324 -0.43169,0.071955 -0.690552,0.2685422 -1.72819,0.8831706 -2.417528,0.3741258 C 50.567696,6.7814217 50.35711,6.2156094 50.37628,5.7562851 50.38578,5.5241119 50.46848,5.0439436 50.577713,4.892892 50.657363,4.7828669 50.779012,4.6193818 50.902996,4.4779692 51.065495,4.2927356 51.1182,4.20022 51.254091,4.0438764 c 0.218875,-0.2519776 0.570456,-0.4275048 0.848988,-0.5899909 0.326025,-0.1901476 0.927896,-0.3692927 1.295097,-0.0864 0.447673,0.3448982 -0.170519,0.847922 -0.518036,1.0216806 -0.827308,0.4136403 -1.48596,0.5053189 -1.958595,0.08235 m 9.901878,-2.6006552 0.259012,1.1224177 0.201433,0.7770605 0.23027,0.690728 0.0432,0.4317033 0.561209,0.086265 1.208764,-0.086265 M 46.577337,6.5332241 C 45.80546,6.7363452 45.037121,7.211991 44.159809,6.9073768 43.755578,6.7670172 43.460549,6.3884635 43.382762,6.0151882 43.331462,5.7690156 43.299872,5.5552699 43.210083,5.3244603 43.070358,4.5402177 43.379576,4.16242 43.497849,3.5113281 43.56373,3.2744029 43.771981,3.0268937 43.929553,2.8206001 44.109656,2.5848495 44.250043,2.4759719 44.50518,2.2881868 45.351482,1.6652153 45.468392,2.691567 45.195894,3.3386495 M 36.561896,2.3025643 c 0,0.6466099 0.251937,1.586332 0.402948,2.1585029 0.0351,0.1333801 0.181454,0.3557522 0.197168,0.6094174 l 0.09059,1.4627395 m -0.09585,-1.473526 C 37.328993,4.884144 37.427327,4.7902244 37.61977,4.6653628 37.845895,4.5032412 37.962198,4.212505 38.288655,4.144492 39.838119,3.8216798 39.695572,5.9101717 39.670097,6.8785813 M 58.492215,2.4752429 58.664907,2.9069462 M 28.273214,6.9649274 C 27.860587,7.3450066 27.340917,7.6016553 26.805426,7.7132058 26.51334,7.7740909 26.307249,7.7426359 26.028365,7.5405137 25.708388,7.3086781 25.525787,6.8172508 25.51033,6.4468915 25.468075,5.4311238 25.716677,4.4278707 26.258635,3.5976606 26.801889,2.7653851 27.96428,2.1733422 28.359547,3.424982 m 6.130152,-0.7770605 c -0.276035,0.2760212 -0.586171,0.5036313 -0.863407,0.7770605 -0.172598,0.1701946 -0.357021,0.3369197 -0.518036,0.5180494 -0.166819,0.1876366 -0.400802,0.4913058 -0.359789,0.6907144 0.0648,0.3144557 0.582364,0.2897777 0.877825,0.2446337 0.504144,-0.077085 1.413815,-0.2191322 1.899478,-0.0432 0.175797,0.06372 0.251249,0.1638227 0.330939,0.3165753 0.09045,0.1733266 0.114211,0.3171962 0.0864,0.5180493 -0.04847,0.3495692 -0.117045,0.5765719 -0.359694,0.8633931 -0.667319,0.788603 -1.553338,0.7866455 -2.388759,0.2590246 M 1.5941999,7.4829362 c 0.8338281,0 1.7861322,0.2821907 2.5901927,-0.0864 C 4.713593,7.1539815 5.0037082,6.2121939 4.5297499,5.7848511 3.956904,5.2683542 3.1914805,5.4412893 2.457593,5.4107118 2.1110883,5.3962668 1.9123141,5.3604918 1.8532111,4.9790085 1.7998861,4.6343803 1.9385312,4.3024286 2.0978448,4.0292694 2.6404641,3.0990513 4.2314267,2.2371432 4.5297499,3.8565908 M 6.6882528,2.9068517 7.2782437,5.3243658 7.3450687,5.8985616 8.0759592,6.0281617 M 13.768076,3.1659438 c 0,0 0.359249,1.393039 0.464724,2.0810939 0.09747,0.6361204 0.139658,1.8905413 0.139658,1.8905413 M 48.822132,6.5331971 c -0.468383,-0.5085049 -1.956111,-2.3269291 -0.94974,-2.993114 0.44897,-0.2972162 1.260226,-0.06561 1.7268,-0.028755 m -32.377503,0 -1.467789,1.1224177 -0.345357,0.3885303 c 0,0 -0.351311,0.094635 -0.542781,0.122985 -0.14765,0.02187 -0.47458,0.027675 -0.47458,0.027675 m 6.97482,1.619299 c -0.34587,0.3185597 -0.766436,0.6173419 -1.20875,0.7770606 -0.454505,0.1641061 -1.196681,0.3350297 -1.640467,0.2302291 -0.434808,-0.1026001 -0.563018,-0.2663957 -0.661973,-0.6619324 -0.03199,-0.1282501 -0.06358,-0.2882252 -0.05751,-0.4317033 0.0068,-0.1720171 0.05589,-0.2618867 0.10071,-0.4317033 0.09774,-0.3701297 0.336636,-0.8556711 0.518049,-1.2087503 0.280598,-0.5459134 0.790696,-1.4774005 1.482193,-1.4677885 0.44569,0.00675 0.481006,0.4219158 0.431704,0.7770605 -0.09329,0.6720035 -0.87989,1.2786399 -2.031198,1.2503844 M 31.985879,3.7703257 c 0,0.3497988 0.05481,0.674555 0.10071,0.9497392 0.02808,0.1692631 0.06426,0.2477791 0.07196,0.4317033 0.0095,0.2191321 -0.02592,0.2939626 0.07088,0.5433348 0.240233,0.6186109 -0.03956,0.742271 0.18815,1.5288355 M 32.196911,5.5812844 c -0.159908,0.2302967 -0.406526,0.3685233 -0.642749,0.5490184 -0.56673,0.4329048 -2.062396,1.4315814 -2.403096,0.3165752 -0.203945,-0.6673729 0.1242,-1.481005 0.474863,-1.9858243 0.193063,-0.2780057 0.320409,-0.4126008 0.546791,-0.6043819 0.294772,-0.2497097 0.571496,-0.1748791 0.863406,0.086265 M 11.695946,3.7702582 c 0,0.5511379 -0.02389,0.9009501 0.10071,1.3814425 0.03388,0.13095 0.05859,0.2082511 0.07195,0.3453572 0.01755,0.1799011 0.05157,0.4353078 0.117585,0.6896344 0.08856,0.3410643 0.155979,0.3880173 0.227813,0.7781541 M 11.95196,6.0549863 C 11.852735,6.2341044 11.589782,6.410482 11.436962,6.5187656 11.209973,6.6795642 10.977543,6.8380138 10.746234,6.9504553 10.590997,7.0259204 10.472535,7.0426604 10.314531,7.0799204 9.5398057,7.262832 9.1943,6.9846104 8.9618703,6.1877318 8.7789317,5.5605079 9.1138939,4.6604488 9.6382342,4.2306895 10.082452,3.8665808 10.487223,3.9668859 10.487223,4.5472648 M 56.897351,4.8299009 C 56.207392,4.2225895 55.11724,4.6256728 54.779658,4.906986 c -0.44793,0.3732482 -0.86288,1.0427002 -0.647554,1.582903 0.15309,0.3840753 0.432823,0.4136133 0.733901,0.3885303 0.740272,-0.061695 1.398749,-0.5860489 1.726799,-1.1224177 0.161933,-0.2647622 0.142223,-0.3122958 0.223088,-0.6569105 0.08451,-0.3601397 0.21033,-0.5300238 0.280516,-0.8108645 0.122851,-0.4914813 0.234077,-2.0387309 -0.0864,-2.316804 -0.26653,-0.2313362 -0.492385,0.118125 -0.58995,0.3309797 -0.124875,0.2723222 -0.0864,1.5509485 -0.0864,1.8131457 0,0.3787562 -0.01971,1.7168636 0.174744,1.9611598 0.325161,0.4391283 0.311175,0.5048733 0.51597,1.0607362 m 1.467775,-2.5902062 c 0.3142,0.6283444 0.278884,1.4094414 0.172693,1.9858243 m 1.20875,-1.6404536 c 0.619407,0 1.27166,0.0108 1.670383,0.0108 m -46.144016,0.1181251 1.648986,1.0803517 0.690714,0.6043684 M 61.548117,4.897266 c 0.146179,0.3471662 0.27694,1.3050053 0.743,1.8953337 M 6.256428,5.670182 c 0.4656153,0.03672 0.7118285,0.1426411 1.0882627,0.2289736 0.0864,0.5983069 -0.05238,0.9569212 0.3795258,1.6705047 M 65.831049,10.07352 c -0.377298,0.367376 -0.915624,0.696074 -1.093662,1.208764 -0.214043,0.61637 -0.127306,1.659111 0.748305,1.525366 0.418068,-0.06386 0.837244,-0.217228 1.208764,-0.402948 m 1.294853,-1.238018 c 0.253463,0.297135 0.495491,0.324972 0.86365,0.273861 0.475727,-0.06602 1.290344,-0.229068 1.453357,-0.762643 0.148851,-0.487134 -0.326539,-0.6807916 -0.762643,-0.589964 -0.584523,0.12177 -0.977144,0.658544 -1.396279,0.942693 -0.271917,0.184356 -0.388881,0.538042 -0.431271,0.683343 -0.0756,0.259025 -0.03888,0.652563 0.187097,0.848989 0.17199,0.149458 0.363406,0.177079 0.604382,0.187096 0.564394,0.02349 1.183194,-0.160677 1.640453,-0.172678 m -30.909728,-2.417528 0.16416,1.377311 c 0.402867,-0.212044 2.15502,-1.251936 2.814576,-0.25488 0.17924,0.270932 0.129465,0.640468 0.129465,0.949739 m -5.266745,-1.985824 c 0.08816,0.209372 0.161285,0.574155 0.172679,0.777061 0.06183,0.243634 0.12231,0.324904 0.166036,0.460107 0.101251,0.0041 0.286768,0.07047 0.524692,0.05792 m 8.806677,-1.295096 c 0.2803,0.02214 0.564287,0.10854 0.856778,0.1507 0.515309,0.07425 1.054013,0.100035 1.572967,0.209156 0.261765,0.05508 0.511826,0.171274 0.764843,0.244525 M 32.158409,10.332518 c -0.06737,0.852877 -0.42282,1.083403 -0.578124,1.717323 0.497758,-0.09167 2.200528,-0.411683 1.844465,0.613859 -0.181831,0.523746 -1.743715,1.787158 -2.172921,1.036085 -0.09207,-0.161028 -0.05886,-0.356063 -0.0432,-0.518036 0.03294,-0.338108 0.180239,-0.867025 0.36847,-1.131908 m 31.532834,-1.635108 c 0,0.579772 0.145396,0.916124 0.344089,1.476172 l 0.304803,0.859141 m -0.3591,-1.019305 c -0.157221,0.297014 -0.279815,0.347409 -0.518711,0.558846 -0.515795,0.456571 -1.920646,1.518293 -2.288022,0.460459 -0.165767,-0.477455 0.167508,-0.943867 0.402962,-1.208764 0.167751,-0.188649 0.345951,-0.369873 0.518035,-0.518036 0.335948,-0.289238 0.804601,-0.299687 0.863393,0.259025 m -3.653642,0.969003 c -0.0513,-0.24651 0.0014,-0.348286 -0.02497,-0.623646 -0.0027,-0.488012 0.583349,-0.856751 1.088357,-0.949739 M 10.65965,14.217821 c 0.799673,0 1.762372,0.266963 2.50386,-0.158261 0.666806,-0.382482 0.116235,-1.37237 -0.431703,-1.539784 -0.341388,-0.104355 -0.813497,0.04847 -1.122418,0.215852 -0.175014,0.09477 -0.456827,0.350366 -0.67631,0.23027 -0.227327,-0.124335 -0.229919,-0.629331 -0.259011,-0.820234 -0.0459,-0.300551 -0.136769,-1.092286 0.158261,-1.251924 0.275764,-0.149202 0.994802,0.364258 1.295096,0.474863 m 40.407133,-0.402948 c 0.513729,-0.12123 1.030564,0.207131 0.661973,0.748305 -0.270162,0.396644 -0.906742,0.642979 -1.352687,0.748319 -0.360127,0.08492 -0.520885,0.06737 -0.647555,-0.158355 -0.09302,-0.165685 0.116505,-0.428152 0.244606,-0.589964 0.268164,-0.338701 0.664039,-0.646852 1.093663,-0.748305 m 3.280921,2.129748 c -0.13392,-0.231295 -0.422281,-0.460796 -0.575627,-0.690715 -0.124875,-0.187272 -0.180279,-0.364878 -0.273348,-0.604381 -0.324811,-0.835165 1.205051,-0.990672 1.712381,-0.777061 m -42.220279,0 0.316603,1.036085 0.287779,1.813133 M 1.3349188,11.109579 c 0.5897613,0.170694 1.7453486,-0.104355 2.3167905,0.302197 0.3169802,0.225518 -0.052245,0.895429 -0.2590247,1.064827 -0.1615816,0.132435 -0.4505898,0.12177 -0.6763234,0.187097 m 17.1816638,1.208764 c 0.520979,0.31532 1.44145,0.408389 1.985824,0.10071 0.386532,-0.218525 0.511907,-1.116626 0.230256,-1.482193 -0.503779,-0.653765 -2.273671,0.261603 -2.806044,-0.129466 -0.230607,-0.169398 0.06926,-0.538758 0.244607,-0.676296 0.526149,-0.412884 1.237856,-0.575627 1.899478,-0.575627 M 8.5874745,11.71396 c 0.047385,0.257473 0.1721792,0.60395 0.05751,0.762643 -0.09693,0.134325 -0.2679482,0.163445 -0.4029213,0.259025 C 7.9355186,12.952776 7.696555,13.184341 7.3786703,13.325673 6.8931964,13.541444 6.1089674,13.868751 5.6518571,13.498352 5.4207775,13.311079 5.5815221,12.5854 5.7670122,12.318342 6.246033,11.628573 6.980177,11.195925 7.810387,11.195925 m 15.886567,0 c -0.21654,0.484015 -0.172678,1.289831 -0.172678,1.813146 0,0.230782 0.151443,1.050233 0.589964,0.82022 0.240718,-0.12636 0.392931,-0.481343 0.561209,-0.733888 0.170005,-0.254961 0.273874,-0.261779 0.446121,-0.474863 0.228285,-0.28242 0.371439,-1.262467 0.38853,-1.424615 M 48.361673,10.47601 c 0.157478,0.855104 0.452804,2.671976 0.28755,3.569132 M 26.977875,11.282271 c 0,0.8861 -0.137106,1.936941 -0.705132,2.590193 -0.1517,0.174501 -0.356765,0.404244 -0.589964,0.302198 -0.212396,-0.09288 -0.247793,-0.359087 -0.259025,-0.561209 -0.01796,-0.32257 -0.224195,-0.684761 -0.283338,-1.005697 m 11.507542,-1.152807 c 0,0 0.234199,0.04374 0.346559,0.0482 0.15201,0.0054 0.446567,-0.01661 0.446567,-0.01661 m 20.360187,-0.03159 c 0.205227,0.519845 0.522599,0.517982 0.983003,0.844817 0.332343,0.235927 0.556443,0.780963 0.743797,0.968316 m -20.117228,-1.7268 -0.172678,0.949739 m -1.811202,-1.021492 c 0.0081,0.335516 0.318128,0.674582 0.429759,1.280517 m -2.762885,-0.820234 c 0.291668,-0.161541 0.558361,-0.09072 0.863407,0.05764 0.769987,0.374288 0.963293,1.189513 0.172679,1.683627 -0.44758,0.279747 -1.56129,0.594284 -1.856306,0.02876 -0.251248,-0.481599 0.443003,-1.56102 0.82022,-1.769959 m 16.088312,0.242338 c -0.223533,0.249791 -0.323906,0.687016 -0.288077,1.009585 0.03159,0.284405 0.165254,0.624065 0.518036,0.748306 0.774388,0.272673 1.77351,-0.396117 2.331182,-0.748306 M 3.4070486,12.491075 c 0,0 0.4276398,0.247887 0.6043819,0.417286 0.2126387,0.203796 0.4679643,0.417757 0.5324269,0.705146 0.051435,0.229473 -0.021735,0.489753 -0.1438966,0.690714 -0.086805,0.142763 -0.2353727,0.249885 -0.3885303,0.316616 -0.6393064,0.278519 -2.0721568,0.287766 -2.0721568,0.287766 m 6.7528799,-2.642627 c 0.1551826,0.536085 0.5296864,1.833963 0.9313791,2.469948 m 12.3466223,5.698435 c 0,0 0.08343,-0.948443 0.08046,-1.423792 -0.0027,-0.389718 -0.08046,-1.166401 -0.08046,-1.166401 l 0.08627,-0.518049 c 0.251505,0.07277 0.550247,0.137282 0.831168,0.268704 0.25615,0.11988 0.489956,0.304371 0.809299,0.422024 m 8.806677,-0.345357 c 0.592205,-0.374031 1.467788,-0.478508 1.467788,0.259011 0,0.1269 0.03064,0.212058 -0.0432,0.330939 -0.12933,0.208427 -0.329562,0.211113 -0.474876,0.287861 -0.170438,0.08991 -0.590653,0.376097 -0.777061,0.503618 m 12.69198,-1.640454 0.289116,0.91549 0.2268,0.860801 0.08843,0.554891 m 1.467775,-2.331182 c 0,0.460188 -0.113535,1.1048 0.187097,1.467775 0.415908,0.502241 1.273861,0.348044 1.798727,0.143937 0.171302,-0.06669 0.332924,-0.0968 0.413816,-0.266017 m -0.154804,-1.173016 c 0.02484,0.313672 0.124875,1.011501 0.18904,1.297297 l 0.329009,1.465588 M 12.64528,17.930499 v 0.172679 m 24.00253,0 c 0.530739,-0.15359 1.28057,-0.270959 1.749912,0.09828 0.2376,0.187015 0.319302,0.628668 0.0054,0.787347 0.451507,-0.02471 1.813658,4.46e-4 1.39586,0.754799 -0.38093,0.687785 -1.6345,0.604382 -2.288008,0.604382 m -11.828587,-2.331181 -0.0864,2.158502 0.10071,0.561209 0.503618,-0.07196 1.295096,-0.143923 M 40.70544,18.275802 c 0.41202,-0.303669 1.394821,-0.461498 1.798728,-0.05764 0.189769,0.18977 -0.232227,0.77806 -0.232227,0.77806 0,0 0.685854,0.05656 0.851027,0.05656 0.372897,0 0.924521,0.07263 0.762629,0.604382 -0.223358,0.734063 -1.817965,0.850703 -2.403096,0.604382 M 1.9387607,21.815667 c 0,-0.732349 -0.5813104,-2.416232 -0.0864,-2.935564 0.4738368,-0.497151 1.9028128,-0.660245 2.5038602,-0.359789 0.3599102,0.180023 0.6283849,0.282259 0.849002,0.705146 0.1030051,0.19737 0.1870831,0.76946 0.1870831,0.949739 0,0.158774 0.0054,0.345965 -0.071955,0.518036 -0.07722,0.17303 -0.2063611,0.326147 -0.3091637,0.433891 -0.0891,0.09342 -0.2088182,0.178281 -0.3240002,0.30001 -0.4737558,0.500702 -1.3043304,1.057146 -2.1441119,1.079245 M 33.873774,18.340899 c 0.421511,-0.177511 1.306072,0.148514 1.392148,0.711883 0.147474,0.965115 -0.881524,1.122431 -1.640454,1.122431 m -18.738876,-0.47003 c 0.228758,0.11556 0.68491,0.193914 1.039163,0.110295 0.279491,-0.06602 0.725086,-0.307449 0.920998,-0.518036 0.06966,-0.07493 0.126495,-0.205659 0.10071,-0.330939 -0.04995,-0.242446 -0.20601,-0.26248 -0.417285,-0.230269 -0.532724,0.08141 -1.1949,0.541863 -1.455909,0.776615 -0.49838,0.448267 -0.681966,1.040013 -0.508329,1.568984 0.397265,1.210168 1.335772,0.644869 2.395941,0.561209 m -7.8569376,-2.50386 c 0,0.68657 -0.1609471,2.090463 0.6043819,2.431945 0.2947587,0.13149 0.5959987,-0.173461 0.7770607,-0.359788 0.517077,-0.532117 0.843278,-1.219902 0.863393,-1.985811 m 26.074686,0 1.000837,-0.244445 m 3.858613,0.0108 -0.887801,0.320247 M 22.31431,18.987091 c 0,0 0.454424,0.239301 0.694724,0.327739 0.306707,0.11286 0.946392,0.256325 0.946392,0.256325 m -17.4406888,0.43169 c -0.713246,0.394146 -0.8865591,0.424238 -1.0481137,0.708602 -0.08775,0.15448 -0.041445,0.263682 -0.07425,0.500162 -0.03024,0.217836 -0.030375,0.738558 0.2590247,0.906579 0.675797,0.392405 1.4647375,-0.54671 1.7893857,-0.906741 0.1605556,-0.178119 0.1935091,-0.362557 0.2683802,-0.60422 0.077355,-0.249521 0.014445,-0.528485 0.032265,-0.707995 0.01782,0.35933 0.1438021,1.412452 0.1548046,1.830426 M 12.9903,20.348216 12.731275,21.297955 m 6.561841,-0.777061 -0.949739,2.158503 m 49.559181,25.124948 c -0.580986,-0.535046 -1.416758,-1.214461 -2.244835,-1.122418 -0.722413,0.08032 -1.558792,1.286807 -1.165591,1.985811 0.174663,0.310487 0.831195,0.417798 1.165591,0.431703 0.973472,0.04064 2.138293,-0.14013 2.93555,0.402948 0.754097,0.513635 0.71006,1.135891 0.446121,1.755555 -0.05333,0.12528 -0.07735,0.187245 -0.204377,0.311324 -0.08005,0.07816 -1.018805,0.652833 -1.018805,0.652833 l -1.7268,0.158261 m 25.29764,-0.690715 c 0.837487,0 1.73197,-0.242959 2.417514,-0.690728 0.255569,-0.166806 0.483503,-0.336987 0.66223,-0.604382 0.233982,-0.351823 0.246064,-0.946026 -0.05792,-1.179995 -0.222764,-0.171733 -0.66223,-0.143073 -0.949739,-0.115155 -0.802104,0.07789 -1.626644,0.480911 -2.417528,0.546791 -0.594014,0.04955 -0.587966,-0.587723 -0.360032,-0.978494 0.1053,-0.180455 0.216716,-0.339228 0.37472,-0.489295 0.223614,-0.213259 0.487809,-0.409509 0.762372,-0.54679 m 39.802771,0 0.259,0.431703 M 96.13568,47.717931 c 0.429112,0.60395 0.641507,1.066568 0.935065,1.7268 0.07681,0.171909 0.108405,0.507182 0.108405,0.507182 0,0 0.637565,0.06156 0.855995,0.02525 0.2219,-0.03699 0.402354,0.02322 0.518049,0.07195 0.176999,-0.421079 0.187354,-1.00733 0.518036,-1.381443 0.202041,-0.228798 0.609566,-0.474349 0.848719,-0.302184 0.144191,0.10368 0.100981,0.286646 0.100981,0.474863 m 34.70869,-0.777061 0.66223,0.863407 0.20117,1.122418 -0.0147,0.417285 -0.43043,-0.0027 -1.19535,0.10287 m -28.06051,-2.417528 -0.97823,1.295097 -0.3211,0.604382 0.60861,0.6188 1.20876,1.539703 m 13.8144,-4.057982 c 0,0.760915 0.34364,1.718768 0.48955,2.417528 0.12515,0.603423 0.0544,1.208494 0.27284,1.813132 0.0958,0.264546 0.26161,0.783109 0.46105,0.90658 0.28666,0.177943 0.4956,0.07263 0.76239,-0.07195 0.50681,-0.274658 1.03263,-0.628912 1.55412,-0.834652 m -21.23962,-4.058035 0.83491,1.295096 0.35171,0.568337 0.47281,-0.0014 0.41273,-0.135162 m 3.0293,1.288927 c 0.2705,-0.0081 0.33191,0.03402 0.59697,-0.08019 0.12609,-0.05427 0.29529,-0.118935 0.43171,-0.18711 0.67173,-0.335597 1.61715,-1.364338 1.16559,-2.230418 -0.17959,-0.343629 -0.6795,-0.486702 -0.90657,-0.417285 -1.05853,0.323514 -1.12113,2.058806 -1.30035,2.904635 -0.10543,0.497975 0.19866,1.391041 0.69597,1.397953 0.35918,0.0054 0.65359,-0.03469 0.94974,-0.187097 0.36694,-0.188392 0.57244,-0.544374 0.94974,-0.762642 M 77.268135,50.76869 c 0.205754,0.04037 0.304304,-0.08465 0.477064,-0.13014 0.293125,-0.07722 0.607743,-0.296933 0.863406,-0.44604 0.50482,-0.294503 1.165753,-0.68225 0.935321,-1.352688 -0.160515,-0.4671 -0.837756,-0.218956 -1.107999,-0.05765 -0.620879,0.370832 -0.956679,1.228987 -1.148271,1.852728 -0.143221,0.46629 0.0014,1.380106 0.1841,1.744809 0.729405,1.458797 2.412006,0.01215 3.036327,-0.431704 m 1.20705,-1.817614 c 0,-0.42151 0.292248,-0.829481 0.577341,-1.204282 0.114615,-0.150754 0.189162,-0.276291 0.374112,-0.330952 0.285863,-0.08465 0.983058,0.223965 1.036072,0.589964 0.0999,0.689162 -1.05188,0.986351 -1.381442,1.050503 -0.237952,0.0463 -0.424144,-0.03011 -0.611942,-0.11421 -0.03982,0.275562 -9.72e-4,0.482922 0.0081,0.790466 0.0193,0.693833 0.0081,1.802696 0.949739,1.841901 0.423927,0.01769 0.594972,-0.04563 0.949739,-0.129466 0.354173,-0.08357 0.805991,-0.31212 1.122431,-0.503631 M 112.97247,48.58086 c -0.39026,0.205322 -0.80037,0.381713 -1.12243,0.690728 -0.5025,0.481951 -0.78914,1.025542 -0.69071,1.640454 0.0595,0.374288 0.70626,0.50432 1.03608,0.518036 0.20289,0.0081 0.31686,-0.01836 0.51804,-0.05765 0.19772,-0.03848 0.28319,-0.02876 0.51803,-0.02876 0.21845,0 0.30996,-0.01701 0.51805,-0.05765 0.19254,-0.03739 0.32118,-0.02875 0.51804,-0.02875 0.47142,0 0.651,-0.03753 1.03608,0 0.40148,0.03915 0.70453,0.237694 0.71922,0.604381 0.008,0.192538 -0.0493,0.361936 -0.20118,0.503618 -0.20377,0.190296 -0.51804,0.223115 -0.77706,0.287861 -0.7572,0.189176 -1.9815,0.500256 -2.59021,0.67631 m -25.297623,0.690714 c -0.505858,-1.373153 -1.375043,-2.462334 -2.000242,-3.712624 -0.137025,-0.274131 -0.40442,-0.567513 -0.316521,-0.863393 0.09544,-0.321624 0.84587,-0.430663 1.194346,-0.546791 0.864257,-0.288117 1.968557,-0.365053 2.762884,0.0432 0.821948,0.422374 0.970462,1.340591 0.259012,1.856305 -0.296137,0.214555 -0.605246,0.297526 -0.94974,0.38853 -0.461916,0.12177 -1.751099,0.221495 -2.289858,0.221495 M 71.097551,48.926141 c 0,0.889476 0.01539,3.294907 1.122418,3.525514 0.427559,0.0891 0.884048,-0.485311 1.00733,-0.762629 0.12906,-0.290533 0.224546,-0.646961 0.332046,-0.798228 m -0.216945,-1.964657 0.0432,0.733888 c 0.0432,0.716958 0.04442,1.037111 0.172679,1.251923 0.14962,0.250466 0.271107,0.302279 0.402948,0.518036 0.190377,0.311513 0.680104,1.258066 1.194332,1.108 0.254881,-0.07438 0.378865,-0.291398 0.546805,-0.503618 0.26109,-0.329738 0.348975,-0.4266 0.43169,-0.77706 0.182358,-0.772228 0.05764,-2.103248 0.05764,-2.935564 m 25.124956,0.777074 c 0.0666,0.359168 0.18304,0.703756 0.31687,1.036085 0.0656,0.16335 0.0716,0.552407 0.17959,0.733874 l 0.53962,0.906566 m -0.62128,-1.196357 c -0.0734,0.170532 -0.14629,0.454451 -0.27061,0.591989 -0.44206,0.487566 -1.40821,0.940505 -2.043677,0.561209 -0.75029,-0.44793 -0.74512,-1.042808 -0.863407,-1.683627 m 39.276884,0.857953 c 0.6401,-0.03388 1.40808,-0.452561 1.90731,-0.771607 0.16924,-0.108 0.46366,-0.269122 0.56122,-0.431703 0.0682,-0.113265 0.16058,-0.350541 0.0285,-0.503631 -0.12434,-0.144788 -0.32637,-0.108135 -0.50335,-0.10071 -0.89104,0.03713 -1.67722,1.223033 -1.90943,1.666643 -0.17731,0.338729 -0.2914,0.746227 -0.24909,1.182587 0.0475,0.487216 0.16492,0.761779 0.60438,0.877812 0.38162,0.100575 0.61154,-0.09436 1.20877,-0.223061 0.91452,-0.1971 1.60419,-0.70466 2.1585,-1.259146 m 3.10823,-1.899465 c -0.8565,0 -2.03935,0.610943 -2.3027,1.7268 -0.0707,0.301496 -0.14589,0.615425 -0.0138,0.949739 0.29183,0.741313 1.35986,0.387315 1.79846,0.143924 0.2737,-0.151862 0.52495,-0.411751 0.74858,-0.66196 0.20634,-0.231484 0.1868,-0.258079 0.4181,-0.560129 0.66812,-0.872397 0.56013,-2.541565 0.56013,-3.843223 0,-0.4261 0.005,-1.158692 0,-1.554121 -0.004,-0.248494 0.0224,-0.489294 -0.25901,-0.489294 -0.27284,0 -0.36867,0.331547 -0.4602,0.661973 -0.21498,0.771525 -0.31686,2.056794 -0.31686,2.849217 0,0.290615 -0.0406,0.391892 -0.0864,0.690728 -0.0536,0.350447 0.0829,0.780071 0.20118,1.122418 0.0864,0.248481 0.21137,0.730135 0.33268,0.87094 l 0.58856,0.683181 m -17.52704,-0.0864 c -0.0363,-0.198315 -0.19168,-0.807544 -0.0432,-1.208764 0.0562,-0.151524 0.14506,-0.203674 0.21585,-0.345357 0.11488,-0.229743 0.34881,-0.758755 0.69073,-0.848975 0.42133,-0.11124 0.66567,0.354416 0.77706,0.676296 0.27714,0.798215 0.36003,1.732753 0.51803,2.590207 m -4.40188,-1.859357 c 0,-0.285957 0.59518,-0.929772 0.73246,-1.162553 0.19426,-0.329387 0.61043,-0.14306 0.80556,0.0864 0.30218,0.354078 0.35917,0.668021 0.61906,0.949739 m -2.67656,-1.036071 0.34537,0.77706 0.56121,1.295096 0.21585,1.208764 m -2.93556,-3.194588 0.17268,0.259025 M 97.172305,49.962254 c 0,0 -0.714906,0.172678 -1.381442,0.172678 m 1.40176,-0.205699 c 0.0135,0.48006 0.711842,1.243337 0.929422,1.932499 m 5.587775,-1.681561 c 0.24952,0.429786 0.39817,0.930569 0.6287,1.595215 0.0907,0.260753 0.0864,0.412371 0.0864,0.690728 m 31.16875,-1.985824 c 0.3808,0.09221 0.50504,0.0108 0.78909,0.0027 m -3.98367,0.256257 -0.0864,1.640467 m 3.2493,-1.913235 c 0,0.476091 0.51686,1.349083 0.72234,1.999567 m -11.91492,-1.036071 0.25902,1.554121 m 39.0257,5.698434 c 0.79001,0.145571 1.78983,0.09396 2.33118,-0.518035 0.31859,-0.360046 0.32291,-0.965197 -0.0864,-1.266355 -0.47573,-0.349502 -1.21393,-0.257891 -1.7268,-0.143843 -0.1649,0.03672 -0.4576,0.134595 -0.56121,-0.05765 -0.10705,-0.199449 0.0406,-0.433431 0.0432,-0.604382 0.004,-0.322825 0.1053,-1.126562 0.44638,-1.338269 0.41529,-0.257891 0.96528,0.254192 1.28042,0.561209 m -16.74997,-0.172679 c 0.23657,0.748657 0.41789,1.641844 0.63288,2.417528 0.16232,0.582539 0.30391,0.927545 0.4032,1.467775 m -18.21775,0.690728 c 0.94025,0 2.01605,0.159637 2.93556,-0.05765 0.35055,-0.08275 0.71404,-0.138241 0.71922,-0.546805 0.007,-0.495072 -0.53876,-0.837405 -0.97823,-1.093662 -0.53359,-0.311176 -2.17577,-0.330076 -2.40285,-1.064827 -0.14245,-0.459163 0.0526,-0.729406 0.35918,-1.036085 0.20376,-0.2035 0.5353,-0.410887 0.83491,-0.431704 0.49645,-0.03456 0.91002,0.255825 1.03607,0.690728 m 37.7306,0 c 0.98859,-0.390258 1.65428,-0.706091 2.76288,-0.690728 0.74857,0.0108 1.09394,0.4109 0.58971,1.036086 -0.24262,0.301414 -1.01191,0.780084 -1.28042,0.978494 -0.61821,0.457164 -0.32465,0.431095 -1.07538,0.673637 0.64662,0.0868 1.95345,-0.18437 2.97486,-0.18437 m -32.89556,1.3e-5 c -0.37558,-0.06926 -0.75461,-0.208507 -1.12241,-0.172678 -0.24003,0.02336 -0.73026,0.08761 -0.73026,0.08761 0,0 -0.039,-0.127305 -0.0468,-0.174029 -0.0864,-0.533142 0.003,-2.136741 0.51803,-2.158489 0.43343,-0.01836 0.74856,0.171207 1.12242,0.316602 0.42393,0.164916 0.65618,0.177863 1.03608,0.287766 m 33.8453,-0.518036 c 0.85822,-0.361327 2.43133,-0.179671 2.48918,0.863407 0.0285,0.501282 -0.23571,1.040567 -0.33068,1.554121 m -28.23319,-2.331182 c 0.0946,0.513014 0.28027,1.077679 0.40924,1.550639 0.18184,0.666954 0.31271,1.231133 0.45415,1.902961 M 89.488033,55.861947 c 0.329819,-0.06399 0.951467,-0.08181 1.208764,0.0864 0.653589,0.426613 0.913478,1.406404 0.662229,2.129748 -0.111375,0.320503 -0.486095,0.555349 -0.834908,0.661972 -0.409253,0.125011 -0.894484,0.03429 -1.295096,0.02875 -0.1701,-0.0027 -0.45653,0.04982 -0.611942,-0.004 m 0.870953,-2.903338 c -0.537894,0.104625 -1.543753,0.166725 -1.769973,0.748305 -0.116505,0.299687 0.399762,0.983503 0.546535,1.29511 0.138145,0.29156 0.217552,0.713799 0.410602,0.967424 0.23837,0.313187 0.178241,0.682439 0.467479,1.104733 m 29.469884,-1.313362 c 0.10449,-0.251937 0.51515,-0.323825 0.74913,-0.327105 0.27801,-0.004 0.52322,0.0405 0.69071,-0.0432 0.25125,-0.125685 0.27025,-0.246416 0.51805,-0.446122 0.33758,-0.272052 0.67518,-0.57942 0.57589,-0.978494 -0.0544,-0.215406 -0.2219,-0.359343 -0.40321,-0.489281 -0.53963,-0.38776 -1.09911,-0.287779 -1.7268,-0.287779 -0.34537,0 -0.91348,0.0108 -1.07926,0.273442 -0.0794,0.12609 -0.0432,0.264209 -0.0432,0.417286 0,0.292342 0.30874,1.036287 0.4063,1.286159 0.1157,0.297527 0.20008,0.362367 0.32368,0.675729 0.0814,0.20651 0.31474,0.77837 0.39244,1.146354 m 16.66363,-3.712624 1.03609,0.172678 h 1.03608 0.69072 m 30.21901,0 c 0.7123,0.06925 2.23103,0.474958 1.68363,1.554121 -0.34017,0.671383 -1.95128,0.647461 -2.46069,0.359776 -0.29269,-0.165416 -0.30133,-0.474431 -0.34535,-0.791479 -0.0493,-0.357183 -0.14506,-0.419783 0.0432,-0.561209 0.37039,-0.414855 0.5448,-0.613184 1.07925,-0.561209 z m -44.55146,0.115155 c 1.04817,-0.20385 2.40284,0.0027 3.19457,0.748306 0.37213,0.350892 0.53445,0.888098 0.48955,1.29511 -0.0224,0.203067 -0.10368,0.445851 -0.2452,0.604382 -0.20721,0.232591 -0.53962,0.338539 -0.84872,0.402948 -0.56639,0.11799 -1.5265,0.19841 -2.07217,0.115155 -0.16403,-0.02511 -0.30564,-0.150674 -0.43169,-0.259025 -0.17786,-0.153171 -0.22881,-0.135378 -0.34537,-0.345357 -0.10368,-0.186583 -0.22275,-0.629856 -0.28751,-0.863406 -0.0829,-0.297001 -0.4481,-1.048938 -0.38853,-1.295097 0.076,-0.314442 0.58712,-0.335259 0.93507,-0.402948 m 13.29005,-0.09828 0.58221,1.451008 0.54653,2.244835 m 16.83631,-3.597523 c 0.44638,-0.136512 1.13537,0.0068 1.4531,0.331021 0.15455,0.156708 0.28319,0.451993 0.2737,0.676296 -0.0108,0.254192 -0.14592,0.388193 -0.24435,0.604382 -0.19426,0.423927 -0.49299,0.630464 -0.96441,0.748319 -0.64237,0.160502 -1.32705,0.27999 -1.81315,-0.23027 -0.76152,-0.799254 0.58885,-1.91399 1.29511,-2.129748 m -87.980506,0.66196 c 0.667157,-0.210668 2.18225,-0.907687 2.849231,-0.417285 0.322556,0.237181 0.276453,0.756513 0.143924,1.021667 -0.07668,0.153346 -0.12204,0.433607 -0.316602,0.561209 -0.161987,0.106245 -0.244,0.08275 -0.431704,0.187096 -0.178902,0.09936 -0.641507,0.326107 -0.863406,0.460459 m 35.399413,-2.331182 c 0.14765,0.800456 0.1773,1.24084 0.3422,1.633164 -0.30823,0.186664 -0.79376,0.06777 -1.37829,0.295069 -0.14763,0.05751 -0.26678,0.06521 -0.38853,0.187097 m -2.54702,1.079245 c 0.54567,-0.272741 1.08875,-0.149796 1.64046,-0.287767 0.20636,-0.05157 0.44378,-0.180103 0.60438,-0.331033 0.11745,-0.109755 0.21511,-0.462457 0.16155,-0.597929 -0.28769,-0.727705 -2.11025,-0.04482 -2.751756,-0.538812 -0.284054,-0.219133 -0.119205,-0.521411 0.10098,-0.733901 0.307386,-0.297865 0.947156,-0.585644 1.366766,-0.6188 m -36.521829,0.08626 0.503618,1.036085 0.978575,2.849217 0.244607,0.604382 M 95.97148,57.940003 c 0.357304,0.187083 0.793233,0.08222 0.941733,0.0513 0.451562,-0.0941 1.066298,-0.784135 1.208764,-1.122418 -0.423941,-0.178281 -0.912641,-0.02714 -1.337432,0.290223 -0.346222,0.258323 -0.518765,0.378824 -0.710911,0.62744 -0.185017,0.239383 -0.569498,0.68576 -0.628209,1.068162 -0.278006,1.822028 2.614385,0.570969 3.108242,0.259024 M 74.033101,57.041577 c 0,0.299714 0.07492,0.747833 0.07884,1.129627 0.0054,0.458906 0.09531,1.032535 0.08208,1.476699 -0.01715,0.573939 -0.141561,0.997596 -0.16092,1.365309 m 7.597927,-3.885302 0.402948,0.949739 0.11502,0.690728 0.604382,1.7268 m 75.892892,-3.194588 2.24484,0.172692 M 93.545879,59.804462 C 93.249743,59.387865 92.244735,58.4263 92.55298,57.818638 c 0.352256,-0.695386 1.655129,-0.622432 2.115317,-0.259025 m 16.141843,0.689675 c 0.78656,-1.106623 2.739,-0.82886 2.85297,0.34641 0.0363,0.370738 -0.11394,0.547655 -0.0864,0.94974 0.0216,0.306855 0.16232,0.411412 0.25902,0.604381 m -6.21648,-2.475118 c 0.76842,-0.234752 1.71212,0.0567 2.05748,0.748319 0.27715,0.553001 0.20721,1.447484 -0.50336,1.654871 -0.45329,0.132165 -1.08789,0.11718 -1.55412,0.07195 -0.36867,-0.03577 -0.96184,-0.302278 -1.19409,-0.604381 -0.5638,-0.732416 0.51027,-1.661609 1.19409,-1.870724 m 2.84921,0.05765 c 0.53014,0.575452 0.4697,1.22352 0.69073,1.985825 m 29.73812,-1.852013 0.32288,1.333963 0.58971,0.28778 0.60438,0.201515 1.46778,0.115155 M 70.147677,58.25049 c 0.482463,0.342765 1.644261,0.11934 2.11533,1.036071 0.11016,0.214394 0.09585,0.491198 0.01444,0.690728 -0.165605,0.405365 -0.639266,0.559657 -1.00733,0.66196 -0.575371,0.159826 -1.159111,0.210762 -1.640467,-0.143924 m 34.88138,-2.244835 c 0.39717,0.05238 0.49732,0 1.20877,0 m -28.405873,0.115155 c 0.424441,-0.10017 1.137174,-0.07547 1.554121,0.02889 0.225343,0.0563 0.387667,0.156613 0.604369,0.259011 0.156883,0.07411 0.270769,0.09139 0.417285,0.230189 0.729919,0.691497 -0.406404,1.454747 -1.021654,1.582957 -0.925047,0.192712 -2.232672,0.624848 -3.108242,0.187015 -0.427558,-0.213691 -0.593676,-0.769811 -0.316615,-1.194346 0.393457,-0.602653 1.192793,-0.933593 1.870736,-1.093662 m 27.201233,-0.136256 c 0.10125,0.295164 0.0571,0.902341 0.42758,1.488943 m 15.17687,-1.451008 c 0.54048,0.426776 0.84697,0.696047 1.57309,1.364662 m -6.04381,4.403338 c 0.6726,-0.212476 2.99687,-1.276965 2.47538,0.431704 -0.12353,0.403124 -0.39545,0.761873 -0.66223,1.036085 -0.15282,0.157397 -0.26247,0.215676 -0.43171,0.374112 -0.13728,0.128115 -0.53934,0.507074 -0.87763,0.740071 0.41742,0.106515 0.98902,-0.03132 1.223,-0.06372 0.46968,-0.0652 1.45397,-0.10071 1.98581,-0.10071 m -14.59147,-2.762885 c 1.16473,-0.214461 2.29579,-0.244512 3.36727,0.187096 0.22621,0.09112 0.50509,0.141858 0.56121,0.417286 0.0466,0.228285 -0.12002,0.489631 -0.18737,0.690728 -0.12177,0.367281 -0.20116,0.959486 -0.20116,1.381442 m 3.71262,-2.331182 -0.8634,-0.374112 -0.60439,-0.05765 c 0.0941,0.384723 0.14679,0.957758 0.31688,1.467775 0.0483,0.144707 0.0691,0.394916 0.21585,0.474876 0.13297,0.0729 0.36694,-0.03415 0.50336,-0.07196 0.59142,-0.164389 1.85198,-0.657396 2.41751,-0.201514 0.3989,0.321516 0.17873,1.037286 -0.17268,1.352687 -0.46018,0.413127 -1.5144,0.433418 -2.07215,0.345357 m 8.634,-3.28092 c 0.11313,0.614048 0.10624,1.301144 0.60438,1.712381 0.58279,0.481262 1.852,0.07992 2.41753,-0.15826 l 0.51803,1.295096 M 92.509767,63.7763 c 0.489537,0.09018 1.156087,0.172678 1.640453,0.172678 0.323771,0 0.495599,-0.0067 0.863407,0.01445 0.20462,0.0108 0.324635,0.0095 0.518036,-0.01445 0.636323,-0.07965 0.85563,0.0054 1.295096,0.0864 m 26.506391,-0.259011 c 0.10192,0.554041 0.0864,0.999554 0.0864,1.467775 m 3.8853,-1.439033 c 0.18995,-0.03686 0.34882,-0.04131 0.51804,0.0432 0.61216,0.306167 1.17336,1.272227 0.92125,2.000242 -0.16491,0.475308 -0.83923,0.815914 -1.26661,0.863407 -0.32377,0.03605 -0.41701,0.0108 -0.69071,-0.05764 -0.26248,-0.06561 -0.46365,-0.207657 -0.69073,-0.302198 -0.20462,-0.08518 -0.35053,-0.08033 -0.50336,-0.244593 -0.22189,-0.237438 -0.26679,-0.681224 -0.17268,-1.036085 0.0674,-0.257378 0.30133,-0.58262 0.50336,-0.762643 0.22017,-0.196681 0.6726,-0.347949 0.94974,-0.417366 0.16751,-0.04185 0.25989,-0.05306 0.4317,-0.0864 m -32.11849,0.230269 c 0,0.638834 0.690728,2.165415 0.690728,2.849218 m 4.316992,-2.590193 c -0.492129,0.534533 -0.576747,0.978926 -0.949739,1.352269 L 98.898984,64.639679 M 68.67997,68.64007 c -0.291479,0.198409 -0.626306,0.323946 -0.949739,0.431703 -0.446459,0.148851 -0.903718,0.290101 -1.381443,0.316602 -0.181575,0.0095 -0.360639,0.108675 -0.503618,-0.01444 -0.157045,-0.135 -0.176566,-0.919081 -0.215851,-1.108 -0.05737,-0.275413 -0.142884,-0.657909 -0.215852,-0.949739 -0.148068,-0.592205 -0.455868,-1.39154 -0.359775,-1.985811 0.04887,-0.302116 0.556025,-0.419877 0.863393,-0.518049 0.720509,-0.230175 2.216958,-0.470286 2.849231,-0.05764 0.678888,0.443192 0.838013,1.586508 0.877811,2.30244 0.02336,0.422024 0.12798,0.656937 -0.187097,1.106069 -0.174744,0.249156 -0.446297,0.251708 -0.77706,0.476794 z m 17.095317,-0.374113 c 0.761347,-0.140211 1.497138,-0.313321 2.072171,-0.863393 0.467964,-0.447066 0.213259,-1.118881 -0.345357,-1.266355 -0.148514,-0.03915 -0.852094,-0.10962 -0.949753,-0.115155 -0.213165,-0.01215 -0.455787,-0.0432 -0.532454,-0.345357 -0.07573,-0.298823 0.203499,-0.397683 0.359775,-0.446121 0.212315,-0.06574 0.847004,-0.07195 1.122432,-0.07195 m 12.778309,1.81314 -0.733885,-0.863406 -0.311675,-0.458933 c -0.373855,0.410238 -0.55431,0.778046 -1.199273,1.235993 M 77.745671,65.761989 c 0.322475,0.644963 0.597821,2.243634 0.518036,2.676539 m -3.194575,-2.590193 c 0.266788,0.921497 0.750034,1.561884 0.777061,2.590193 m 7.597913,-2.50386 0.345371,1.813145 m -0.11529,-0.699489 c -0.775427,0.53055 -2.309433,1.217525 -3.252004,1.217525 -0.366174,0 -0.811,-0.08303 -0.992912,-0.431703 -0.150323,-0.288023 0.02538,-0.583659 0.215851,-0.777061 0.564746,-0.573547 1.531414,-0.80244 2.331182,-0.949739 m 8.46132,0.604382 c -0.501634,0.501809 -1.154373,1.641061 -1.568796,2.158503 -0.218444,0.273699 -0.245214,0.209466 -0.503361,0.518036 M 71.615506,67.143432 c -0.954235,0 -1.504144,0.515403 -1.909806,0.97983 -0.338958,0.388044 0.0027,0.853174 0.528364,0.977239 0.492736,0.11637 1.213245,-0.241839 1.640453,-0.431703 0.305735,-0.135892 0.493007,-0.352094 0.777061,-0.561209 0.143154,-0.105435 0.305559,-0.221211 0.38853,-0.398642 m 0.647555,1.161284 -0.574547,-0.945959 c -0.07506,-0.12366 -0.07938,-0.325134 -0.116235,-0.435483 -0.0648,-0.194603 -0.139523,-0.355887 -0.259011,-0.518036"
       id="path308"
       sodipodi:nodetypes="cssscccscscccccccccssccsccccscccsccccssccccsscsscssccsssssccccccsccsccccsccssccccsccccsscccsssccscsccsscsscccsssssccscccccccccccccccscccscssssccccsccccccsscccsscccscccccsccccccssccsccscsccccccccccscccccsccccccscccsccsccccsccccsccscccccccssccscccssssccccsccsccsccccccccccccsccccccscccccccscscccscsssssccsccccscssccssccccccsccssscscccccccscccsscccccccccccccccccccccccccccccccccccccccccccccccssccccccccssccscccccccccccccscscccccccccccccccccccssccccccsccccccccccsccsccccscsscscsccsccccccccsccccccccccccccccccccccccccccccccccccccccccccccccccccsccccccsccccccccscsccscsccscscsccccccccccccccccsccccccccccccccccssssccccccccsccccccccsccscccsscccccccccccccccccsccccccccccssccccccccccccccccccccccccccccccccccscccccccsccccccccccccccccccccccccccsscccsccccccsccccccccccccscccccccscscccscc" /></g></svg>
