<?xml version="1.0" encoding="UTF-8" standalone="no"?>
<!-- Created with Inkscape (http://www.inkscape.org/) -->

<svg
   version="1.1"
   id="svg2454"
   width="1254.6667"
   height="834.66669"
   viewBox="0 0 1254.6667 834.66669"
   sodipodi:docname="KevinV - Stake - Envelope29.svg"
   inkscape:version="1.2.1 (9c6d41e410, 2022-07-14)"
   xmlns:inkscape="http://www.inkscape.org/namespaces/inkscape"
   xmlns:sodipodi="http://sodipodi.sourceforge.net/DTD/sodipodi-0.dtd"
   xmlns="http://www.w3.org/2000/svg"
   xmlns:svg="http://www.w3.org/2000/svg">
  <defs
     id="defs2458">
    <pattern
       id="EMFhbasepattern"
       patternUnits="userSpaceOnUse"
       width="6"
       height="6"
       x="0"
       y="0" />
    <pattern
       id="EMFhbasepattern-2"
       patternUnits="userSpaceOnUse"
       width="6"
       height="6"
       x="0"
       y="0" />
    <pattern
       id="EMFhbasepattern-6"
       patternUnits="userSpaceOnUse"
       width="6"
       height="6"
       x="0"
       y="0" />
    <pattern
       id="EMFhbasepattern-9"
       patternUnits="userSpaceOnUse"
       width="6"
       height="6"
       x="0"
       y="0" />
    <pattern
       id="EMFhbasepattern-25"
       patternUnits="userSpaceOnUse"
       width="6"
       height="6"
       x="0"
       y="0" />
    <pattern
       id="EMFhbasepattern-4"
       patternUnits="userSpaceOnUse"
       width="6"
       height="6"
       x="0"
       y="0" />
    <pattern
       id="EMFhbasepattern-0"
       patternUnits="userSpaceOnUse"
       width="6"
       height="6"
       x="0"
       y="0" />
    <pattern
       id="EMFhbasepattern-8"
       patternUnits="userSpaceOnUse"
       width="6"
       height="6"
       x="0"
       y="0" />
    <pattern
       id="EMFhbasepattern-89"
       patternUnits="userSpaceOnUse"
       width="6"
       height="6"
       x="0"
       y="0" />
    <pattern
       id="EMFhbasepattern-09"
       patternUnits="userSpaceOnUse"
       width="6"
       height="6"
       x="0"
       y="0" />
    <pattern
       id="EMFhbasepattern-40"
       patternUnits="userSpaceOnUse"
       width="6"
       height="6"
       x="0"
       y="0" />
    <pattern
       id="EMFhbasepattern-05"
       patternUnits="userSpaceOnUse"
       width="6"
       height="6"
       x="0"
       y="0" />
    <pattern
       id="EMFhbasepattern-45"
       patternUnits="userSpaceOnUse"
       width="6"
       height="6"
       x="0"
       y="0" />
    <pattern
       id="EMFhbasepattern-64"
       patternUnits="userSpaceOnUse"
       width="6"
       height="6"
       x="0"
       y="0" />
    <pattern
       id="EMFhbasepattern-97"
       patternUnits="userSpaceOnUse"
       width="6"
       height="6"
       x="0"
       y="0" />
    <pattern
       id="EMFhbasepattern-5"
       patternUnits="userSpaceOnUse"
       width="6"
       height="6"
       x="0"
       y="0" />
    <pattern
       id="EMFhbasepattern-20"
       patternUnits="userSpaceOnUse"
       width="6"
       height="6"
       x="0"
       y="0" />
    <pattern
       id="EMFhbasepattern-1"
       patternUnits="userSpaceOnUse"
       width="6"
       height="6"
       x="0"
       y="0" />
    <pattern
       id="EMFhbasepattern-46"
       patternUnits="userSpaceOnUse"
       width="6"
       height="6"
       x="0"
       y="0" />
    <pattern
       id="EMFhbasepattern-04"
       patternUnits="userSpaceOnUse"
       width="6"
       height="6"
       x="0"
       y="0" />
    <pattern
       id="EMFhbasepattern-07"
       patternUnits="userSpaceOnUse"
       width="6"
       height="6"
       x="0"
       y="0" />
    <pattern
       id="EMFhbasepattern-3"
       patternUnits="userSpaceOnUse"
       width="6"
       height="6"
       x="0"
       y="0" />
    <pattern
       id="EMFhbasepattern-39"
       patternUnits="userSpaceOnUse"
       width="6"
       height="6"
       x="0"
       y="0" />
    <pattern
       id="EMFhbasepattern-88"
       patternUnits="userSpaceOnUse"
       width="6"
       height="6"
       x="0"
       y="0" />
    <pattern
       id="EMFhbasepattern-11"
       patternUnits="userSpaceOnUse"
       width="6"
       height="6"
       x="0"
       y="0" />
    <pattern
       id="EMFhbasepattern-47"
       patternUnits="userSpaceOnUse"
       width="6"
       height="6"
       x="0"
       y="0" />
  </defs>
  <sodipodi:namedview
     id="namedview2456"
     pagecolor="#ffffff"
     bordercolor="#000000"
     borderopacity="0.25"
     inkscape:showpageshadow="2"
     inkscape:pageopacity="0.0"
     inkscape:pagecheckerboard="0"
     inkscape:deskcolor="#d1d1d1"
     showgrid="false"
     inkscape:zoom="0.39986549"
     inkscape:cx="1230.4138"
     inkscape:cy="433.89591"
     inkscape:window-width="1280"
     inkscape:window-height="658"
     inkscape:window-x="-6"
     inkscape:window-y="-6"
     inkscape:window-maximized="1"
     inkscape:current-layer="g2460" />
  <g
     inkscape:groupmode="layer"
     inkscape:label="Image"
     id="g2460">
    <path
       style="fill:none;stroke:#64648a;stroke-width:0.579308px;stroke-linecap:butt;stroke-linejoin:miter;stroke-miterlimit:4;stroke-dasharray:none;stroke-opacity:1"
       d="m 95.227846,182.67046 c -4.685567,-6.03644 -8.499397,-6.89878 -11.877366,-3.4494 -3.16003,3.57258 -11.005629,15.15267 -8.063529,16.26141 2.833131,1.35511 20.812626,-5.66686 22.882995,1.72469 1.52553,3.94216 -0.871738,10.59455 -4.140737,14.41351 -3.595899,3.81897 -7.954561,4.9277 -14.49256,-0.61596"
       id="path1507" />
    <path
       style="fill:none;stroke:#64648a;stroke-width:0.579308px;stroke-linecap:butt;stroke-linejoin:miter;stroke-miterlimit:4;stroke-dasharray:none;stroke-opacity:1"
       d="m 102.31068,189.19965 c -3.051072,14.29032 -2.17933,22.05144 4.2497,19.34121 7.30076,-2.71023 9.26216,-16.87737 8.49939,-16.75417 0.10897,-0.1232 -0.21793,5.91323 -0.98069,11.58009 -0.43588,5.66685 -1.30761,10.84093 2.50623,9.97859 3.81383,-0.61597 8.17249,-5.54366 9.58906,-10.59456 1.6345,-4.92769 0.54483,-9.85539 0.54483,-9.73219"
       id="path1509" />
    <path
       style="fill:none;stroke:#64648a;stroke-width:0.579308px;stroke-linecap:butt;stroke-linejoin:miter;stroke-miterlimit:4;stroke-dasharray:none;stroke-opacity:1"
       d="m 146.87804,208.04809 c -8.39044,4.06535 -12.53118,4.43493 -15.25534,2.95662 -2.6152,-1.6015 -3.81383,-5.05089 -1.41656,-10.10179 5.2304,-10.22496 10.89666,-13.92074 15.36429,-8.99303 4.2497,5.05089 -8.60837,9.11623 -15.36429,8.99303"
       id="path1511" />
    <path
       style="fill:none;stroke:#64648a;stroke-width:0.579308px;stroke-linecap:butt;stroke-linejoin:miter;stroke-miterlimit:4;stroke-dasharray:none;stroke-opacity:1"
       d="m 167.14583,207.80171 c -8.39044,4.18853 -12.4222,4.55811 -15.25534,3.07981 -2.50623,-1.6015 -3.81383,-5.05089 -1.41655,-10.10178 5.33936,-10.22498 10.89665,-13.92075 15.36429,-8.99305 4.2497,5.17409 -8.4994,9.11623 -15.36429,8.99305"
       id="path1513" />
    <path
       style="fill:none;stroke:#64648a;stroke-width:0.579308px;stroke-linecap:butt;stroke-linejoin:miter;stroke-miterlimit:4;stroke-dasharray:none;stroke-opacity:1"
       d="m 176.19006,218.27306 c -0.43587,-8.25389 -3.5959,-16.63098 -5.77523,-24.2689 0.43587,0.12319 9.69803,-5.91324 15.90912,-1.35512 7.30078,4.68131 4.14074,14.16712 -12.20426,13.67436"
       id="path1515" />
    <path
       style="fill:none;stroke:#64648a;stroke-width:0.579308px;stroke-linecap:butt;stroke-linejoin:miter;stroke-miterlimit:4;stroke-dasharray:none;stroke-opacity:1"
       d="m 206.59175,189.9388 c -8.39043,-1.97107 -21.03056,5.29728 -10.89666,6.03643 10.02493,1.10874 21.03057,-1.23192 18.96019,6.6524 -3.81383,7.76112 -14.3836,7.02196 -16.45396,3.69577"
       id="path1517" />
    <path
       style="fill:none;stroke:#64648a;stroke-width:0.579308px;stroke-linecap:butt;stroke-linejoin:miter;stroke-miterlimit:4;stroke-dasharray:none;stroke-opacity:1"
       d="m 219.55878,184.39515 c -0.87172,0.49277 3.5959,7.14516 5.5573,14.78308 2.2883,7.39155 2.07037,15.76863 0.9807,15.52225"
       id="path1519" />
    <path
       style="fill:none;stroke:#64648a;stroke-width:0.579308px;stroke-linecap:butt;stroke-linejoin:miter;stroke-miterlimit:4;stroke-dasharray:none;stroke-opacity:1"
       d="m 216.50772,195.11289 c 3.37797,-0.36958 7.40973,-0.86235 11.4415,-1.35512"
       id="path1521" />
    <path
       style="fill:none;stroke:#64648a;stroke-width:0.579308px;stroke-linecap:butt;stroke-linejoin:miter;stroke-miterlimit:4;stroke-dasharray:none;stroke-opacity:1"
       d="m 249.74254,193.3882 c -4.9035,-5.29728 -15.58223,1.4783 -17.10777,6.89877 -0.65379,5.66685 1.63451,5.79004 7.08284,5.05088 2.61521,-0.24638 6.10213,-3.203 7.8456,-6.15962 1.96141,-2.95661 2.28831,-5.91323 2.17933,-5.79003 z"
       id="path1523" />
    <path
       style="fill:none;stroke:#64648a;stroke-width:0.579308px;stroke-linecap:butt;stroke-linejoin:miter;stroke-miterlimit:4;stroke-dasharray:none;stroke-opacity:1"
       d="m 248.43494,194.25054 c -0.21793,-0.49277 4.03177,13.42797 2.50623,14.78309"
       id="path1525" />
    <path
       style="fill:none;stroke:#64648a;stroke-width:0.579308px;stroke-linecap:butt;stroke-linejoin:miter;stroke-miterlimit:4;stroke-dasharray:none;stroke-opacity:1"
       d="m 255.19087,183.65599 c 2.28831,7.39155 6.10214,15.64544 6.2111,23.77614 0.3269,-3.69577 0,-7.51474 -0.6538,-11.33371 3.70487,-1.47831 7.5187,-3.0798 11.1146,-4.8045"
       id="path1527" />
    <path
       style="fill:none;stroke:#64648a;stroke-width:0.579308px;stroke-linecap:butt;stroke-linejoin:miter;stroke-miterlimit:4;stroke-dasharray:none;stroke-opacity:1"
       d="m 259.65851,196.34481 c 4.79453,2.71023 10.7877,6.28282 12.96703,9.8554"
       id="path1529" />
    <path
       style="fill:none;stroke:#64648a;stroke-width:0.579308px;stroke-linecap:butt;stroke-linejoin:miter;stroke-miterlimit:4;stroke-dasharray:none;stroke-opacity:1"
       d="m 283.41324,195.85204 c 4.9035,0.24638 11.33253,-2.58704 14.16566,-5.29728 3.05107,-2.83342 2.39726,-5.42046 -2.83313,-4.43492 -10.02493,2.21746 -20.2678,22.17463 -11.98633,22.7906 7.30076,0.98553 9.807,-3.07981 9.807,-3.07981"
       id="path1531" />
    <path
       style="fill:none;stroke:#64648a;stroke-width:0.579308px;stroke-linecap:butt;stroke-linejoin:miter;stroke-miterlimit:4;stroke-dasharray:none;stroke-opacity:1"
       d="m 314.14183,188.70688 c -6.86491,-0.12319 -11.87736,5.29728 -12.09531,5.17408 -0.43586,0.1232 22.01127,-3.3262 14.81947,7.39154 -8.60836,9.60902 -13.94773,3.81897 -14.71048,3.57259"
       id="path1533" />
    <path
       style="fill:none;stroke:#64648a;stroke-width:0.579308px;stroke-linecap:butt;stroke-linejoin:miter;stroke-miterlimit:4;stroke-dasharray:none;stroke-opacity:1"
       d="m 355.4402,177.74275 c 0.3269,9.97859 -1.19865,19.95717 -1.74349,29.44299 3.37798,-0.36958 7.30078,-0.73915 11.65944,-1.10873"
       id="path1535" />
    <path
       style="fill:none;stroke:#64648a;stroke-width:0.579308px;stroke-linecap:butt;stroke-linejoin:miter;stroke-miterlimit:4;stroke-dasharray:none;stroke-opacity:1"
       d="m 369.38791,179.96022 c 0.10898,-0.1232 2.50624,4.18854 1.85244,4.06535"
       id="path1537" />
    <path
       style="fill:none;stroke:#64648a;stroke-width:0.579308px;stroke-linecap:butt;stroke-linejoin:miter;stroke-miterlimit:4;stroke-dasharray:none;stroke-opacity:1"
       d="m 372.98381,194.49692 c 0.10898,3.94216 2.61519,8.86986 0.43588,13.92074"
       id="path1539" />
    <path
       style="fill:none;stroke:#64648a;stroke-width:0.579308px;stroke-linecap:butt;stroke-linejoin:miter;stroke-miterlimit:4;stroke-dasharray:none;stroke-opacity:1"
       d="m 379.30389,188.58369 c 1.9614,5.17408 4.24969,10.47135 5.44831,15.89182 0.3269,-0.12319 -5.2304,-12.9352 -0.10896,-14.16713 5.01246,-1.6015 13.51186,5.42047 11.55046,12.93521 -0.10895,0 0.9807,-3.3262 1.85245,-6.89878 0.98069,-3.57258 1.74345,-7.51474 4.03175,-8.25389 2.2883,-0.86235 5.44834,2.46384 6.32009,6.15962 1.19861,3.57258 0,7.76112 -0.109,7.63793"
       id="path1541" />
    <path
       style="fill:none;stroke:#64648a;stroke-width:0.579308px;stroke-linecap:butt;stroke-linejoin:miter;stroke-miterlimit:4;stroke-dasharray:none;stroke-opacity:1"
       d="m 413.73734,182.79364 c 0.21795,-0.12318 2.17934,4.68132 1.6345,3.94216"
       id="path1543" />
    <path
       style="fill:none;stroke:#64648a;stroke-width:0.579308px;stroke-linecap:butt;stroke-linejoin:miter;stroke-miterlimit:4;stroke-dasharray:none;stroke-opacity:1"
       d="m 415.69874,191.17073 c 0.9807,0.73916 -0.43586,9.23943 0,10.71774"
       id="path1545" />
    <path
       style="fill:none;stroke:#64648a;stroke-width:0.579308px;stroke-linecap:butt;stroke-linejoin:miter;stroke-miterlimit:4;stroke-dasharray:none;stroke-opacity:1"
       d="m 424.85194,184.64153 c 2.17934,5.17408 7.30075,11.82647 5.99315,18.47886"
       id="path1547" />
    <path
       style="fill:none;stroke:#64648a;stroke-width:0.579308px;stroke-linecap:butt;stroke-linejoin:miter;stroke-miterlimit:4;stroke-dasharray:none;stroke-opacity:1"
       d="m 425.17884,194.00416 c 1.74345,-0.61596 4.03176,-1.35512 5.99316,-2.09427"
       id="path1549" />
    <path
       style="fill:none;stroke:#64648a;stroke-width:0.579308px;stroke-linecap:butt;stroke-linejoin:miter;stroke-miterlimit:4;stroke-dasharray:none;stroke-opacity:1"
       d="m 440.65209,194.12735 c 10.13388,1.72469 24.40853,-4.18855 11.65943,-6.03643 -11.33253,-1.47831 -14.16564,7.88431 -10.78768,13.67436 1.30759,3.32619 13.62082,0.73915 14.05668,0.61595"
       id="path1551" />
    <path
       style="fill:none;stroke:#64648a;stroke-width:0.579308px;stroke-linecap:butt;stroke-linejoin:miter;stroke-miterlimit:4;stroke-dasharray:none;stroke-opacity:1"
       d="m 478.35456,160.7422 c 4.24969,11.70328 2.72416,25.13126 -1.7435,36.83453 0.76279,0 0.3269,-16.87736 -6.8649,-10.71774 -7.19179,6.03643 -16.34499,13.92075 -9.80699,16.63098 5.2304,2.83343 16.345,-5.66685 16.67189,-5.79005"
       id="path1553" />
    <path
       style="fill:none;stroke:#64648a;stroke-width:0.579308px;stroke-linecap:butt;stroke-linejoin:miter;stroke-miterlimit:4;stroke-dasharray:none;stroke-opacity:1"
       d="m 82.478749,239.70854 c 2.397262,-2.95662 15.255328,-3.07981 14.274629,2.83343 -1.852432,5.91323 -5.8842,6.65239 -5.775231,6.65239 -0.435868,0 16.889833,-2.95662 10.896663,6.65239 -6.646964,8.99304 -12.313231,0 -13.076,0.49276"
       id="path1555" />
    <path
       style="fill:none;stroke:#64648a;stroke-width:0.579308px;stroke-linecap:butt;stroke-linejoin:miter;stroke-miterlimit:4;stroke-dasharray:none;stroke-opacity:1"
       d="m 106.01554,237.61427 c 1.41657,5.66685 6.10214,13.0584 3.81384,20.44994"
       id="path1557" />
    <path
       style="fill:none;stroke:#64648a;stroke-width:0.579308px;stroke-linecap:butt;stroke-linejoin:miter;stroke-miterlimit:4;stroke-dasharray:none;stroke-opacity:1"
       d="m 128.3537,239.46215 c -5.88419,0.36958 -17.87052,14.16714 -11.1146,19.09483 2.94211,2.71023 6.64696,2.46385 10.67874,0.86235 3.81383,-1.60151 8.06352,-4.68131 8.1725,-7.14516 0.76276,-4.80451 -4.68558,-11.70329 -7.73664,-12.81202 z"
       id="path1559" />
    <path
       style="fill:none;stroke:#64648a;stroke-width:0.579308px;stroke-linecap:butt;stroke-linejoin:miter;stroke-miterlimit:4;stroke-dasharray:none;stroke-opacity:1"
       d="m 143.0642,234.16488 c -1.08967,0 3.26899,6.15962 4.90349,13.30478 2.17935,7.02197 1.74347,15.02948 0.87175,14.04394"
       id="path1561" />
    <path
       style="fill:none;stroke:#64648a;stroke-width:0.579308px;stroke-linecap:butt;stroke-linejoin:miter;stroke-miterlimit:4;stroke-dasharray:none;stroke-opacity:1"
       d="m 179.02319,261.14402 c -0.43586,-8.50028 -2.2883,-17.12374 -3.70486,-25.37764 0.43586,0.12319 10.89666,-5.05088 17.76155,-0.61595 7.73665,4.6813 7.08284,15.02946 -4.68555,14.53669 -11.4415,-0.36957 -11.55047,-0.12319 -11.55047,-0.12319"
       id="path1563" />
    <path
       style="fill:none;stroke:#64648a;stroke-width:0.579308px;stroke-linecap:butt;stroke-linejoin:miter;stroke-miterlimit:4;stroke-dasharray:none;stroke-opacity:1"
       d="m 201.14343,235.88957 c 2.17932,6.89878 5.77522,14.53671 5.66626,22.05145 0.21793,0.12319 0.10896,-4.9277 -0.76277,-10.22497 -0.6538,-5.29728 -2.07036,-10.96413 -1.19863,-12.9352 0.87173,-4.18855 10.35183,2.83342 10.56976,2.95661"
       id="path1565" />
    <path
       style="fill:none;stroke:#64648a;stroke-width:0.579308px;stroke-linecap:butt;stroke-linejoin:miter;stroke-miterlimit:4;stroke-dasharray:none;stroke-opacity:1"
       d="m 220.64845,244.02028 c 3.70487,1.10873 9.37113,-1.35513 11.98632,-3.94216 2.83315,-2.58705 2.61521,-5.29727 -1.52552,-4.18855 -7.73663,2.46386 -18.74226,15.52225 -11.22356,19.09483 5.77523,3.57258 12.85806,-4.06535 12.96703,-4.18854"
       id="path1567" />
    <path
       style="fill:none;stroke:#64648a;stroke-width:0.579308px;stroke-linecap:butt;stroke-linejoin:miter;stroke-miterlimit:4;stroke-dasharray:none;stroke-opacity:1"
       d="m 254.21017,234.90403 c -9.15319,-0.61596 -14.0567,0.73916 -10.67872,3.4494 3.5959,2.34065 17.65259,7.88431 9.80699,12.93519 -7.5187,4.68132 -15.14637,4.18855 -15.14637,4.18855"
       id="path1569" />
    <path
       style="fill:none;stroke:#64648a;stroke-width:0.579308px;stroke-linecap:butt;stroke-linejoin:miter;stroke-miterlimit:4;stroke-dasharray:none;stroke-opacity:1"
       d="m 264.56201,230.5923 c -0.87174,0.1232 3.81383,5.66685 6.32006,12.19605 2.83313,6.28282 3.48694,13.55116 2.50624,13.30478"
       id="path1571" />
    <path
       style="fill:none;stroke:#64648a;stroke-width:0.579308px;stroke-linecap:butt;stroke-linejoin:miter;stroke-miterlimit:4;stroke-dasharray:none;stroke-opacity:1"
       d="m 258.35091,243.15793 c 4.46763,-0.49278 9.69803,-0.98554 15.14636,-1.6015"
       id="path1573" />
    <path
       style="fill:none;stroke:#64648a;stroke-width:0.579308px;stroke-linecap:butt;stroke-linejoin:miter;stroke-miterlimit:4;stroke-dasharray:none;stroke-opacity:1"
       d="m 292.45746,233.9185 c -11.33252,-0.49278 -14.7105,15.15267 -8.71733,17.00055 2.39727,0.73915 8.71733,-0.24638 12.85808,-3.69577 4.03176,-3.203 5.77522,-8.86985 -4.14075,-13.30478 z"
       id="path1575" />
    <path
       style="fill:none;stroke:#64648a;stroke-width:0.579308px;stroke-linecap:butt;stroke-linejoin:miter;stroke-miterlimit:4;stroke-dasharray:none;stroke-opacity:1"
       d="m 300.1941,231.33145 c 0.76277,0.61597 7.1918,17.24694 6.2111,17.37014 0.76276,-0.1232 -7.30077,-15.27587 3.05106,-15.52225 5.2304,-0.24638 9.04423,2.71023 10.4608,5.79004 1.52554,3.07981 0.54483,6.40601 0.54483,6.52921"
       id="path1577" />
    <path
       style="fill:none;stroke:#64648a;stroke-width:0.579308px;stroke-linecap:butt;stroke-linejoin:miter;stroke-miterlimit:4;stroke-dasharray:none;stroke-opacity:1"
       d="m 355.87605,247.96243 c 0.54484,0 -2.72416,-20.94271 -2.94209,-21.1891 0,-0.12319 5.44833,-0.73915 10.89665,0 5.44834,0.61597 10.89668,2.46386 7.8456,6.89879 -7.1918,8.50027 -16.9988,2.95661 -17.10776,3.203 4.68556,2.95661 9.04424,6.406 11.87736,9.97858"
       id="path1579" />
    <path
       style="fill:none;stroke:#64648a;stroke-width:0.579308px;stroke-linecap:butt;stroke-linejoin:miter;stroke-miterlimit:4;stroke-dasharray:none;stroke-opacity:1"
       d="m 379.41285,248.20881 c 0,0 -0.32691,-21.68186 -0.43586,-21.92824 0.21791,-0.24639 3.5959,-1.10874 8.17249,-0.49277 4.35866,0.49277 9.80701,2.58704 10.7877,9.11623 0.10897,6.52921 -5.77524,9.8554 -10.24288,11.58009 -4.79451,1.6015 -8.06351,1.72469 -8.28145,1.72469 z"
       id="path1581" />
    <path
       style="fill:none;stroke:#64648a;stroke-width:0.579308px;stroke-linecap:butt;stroke-linejoin:miter;stroke-miterlimit:4;stroke-dasharray:none;stroke-opacity:1"
       d="m 439.67139,233.30254 c -6.8649,-6.03643 -12.64011,-8.50028 -15.25531,-1.23193 -2.72418,7.26835 4.5766,10.59454 8.93525,8.86985 4.68556,-1.97108 14.05669,3.69578 8.28146,7.14516 -5.33936,3.3262 -13.7298,1.6015 -13.94771,1.72469"
       id="path1583" />
    <path
       style="fill:none;stroke:#64648a;stroke-width:0.579308px;stroke-linecap:butt;stroke-linejoin:miter;stroke-miterlimit:4;stroke-dasharray:none;stroke-opacity:1"
       d="m 444.24799,228.37484 c -0.3269,0.12319 14.60153,-0.73915 15.03738,-0.73915"
       id="path1585" />
    <path
       style="fill:none;stroke:#64648a;stroke-width:0.579308px;stroke-linecap:butt;stroke-linejoin:miter;stroke-miterlimit:4;stroke-dasharray:none;stroke-opacity:1"
       d="m 450.89496,229.11399 c 1.19861,6.03644 5.99316,13.67436 3.37795,21.31229"
       id="path1587" />
    <path
       style="fill:none;stroke:#64648a;stroke-width:0.579308px;stroke-linecap:butt;stroke-linejoin:miter;stroke-miterlimit:4;stroke-dasharray:none;stroke-opacity:1"
       d="m 479.44422,226.03418 c -4.68556,0.49277 -9.4801,0.98554 -14.16566,1.35512 1.19861,7.14515 2.94209,14.65989 3.269,22.05144 3.70486,0.12319 7.5187,0.12319 11.55045,0.12319"
       id="path1589" />
    <path
       style="fill:none;stroke:#64648a;stroke-width:0.579308px;stroke-linecap:butt;stroke-linejoin:miter;stroke-miterlimit:4;stroke-dasharray:none;stroke-opacity:1"
       d="m 474.97656,238.35343 c -2.8331,0 -5.66625,0 -8.3904,0"
       id="path1591" />
    <path
       style="fill:none;stroke:#64648a;stroke-width:0.579308px;stroke-linecap:butt;stroke-linejoin:miter;stroke-miterlimit:4;stroke-dasharray:none;stroke-opacity:1"
       d="m 509.41005,225.91099 c -0.87175,0 2.6152,4.68131 4.35865,10.47135 2.07036,5.42047 2.39725,11.94967 1.30761,11.94967"
       id="path1593" />
    <path
       style="fill:none;stroke:#64648a;stroke-width:0.579308px;stroke-linecap:butt;stroke-linejoin:miter;stroke-miterlimit:4;stroke-dasharray:none;stroke-opacity:1"
       d="m 525.10125,227.26611 c -0.65381,0 1.85241,3.81896 3.26897,8.62346 1.52556,4.55812 1.96144,10.10178 0.98075,10.47136"
       id="path1595" />
    <path
       style="fill:none;stroke:#64648a;stroke-width:0.579308px;stroke-linecap:butt;stroke-linejoin:miter;stroke-miterlimit:4;stroke-dasharray:none;stroke-opacity:1"
       d="m 547.65734,228.74441 c -11.33256,-0.49277 -12.42219,15.52225 -6.86488,18.23248 2.07032,1.23192 8.28144,0.12319 12.20426,-3.57258 3.70481,-3.57258 5.12143,-9.85539 -5.33938,-14.6599 z"
       id="path1597" />
    <path
       style="fill:none;stroke:#64648a;stroke-width:0.579308px;stroke-linecap:butt;stroke-linejoin:miter;stroke-miterlimit:4;stroke-dasharray:none;stroke-opacity:1"
       d="m 559.31678,238.23023 c 2.61518,-0.36958 5.66625,-0.73916 8.82625,-1.10873"
       id="path1599" />
    <path
       style="fill:none;stroke:#64648a;stroke-width:0.579308px;stroke-linecap:butt;stroke-linejoin:miter;stroke-miterlimit:4;stroke-dasharray:none;stroke-opacity:1"
       d="m 587.10329,227.75888 c -4.03181,0.36957 -7.95457,0.61596 -11.98634,0.86234 0.32688,3.3262 0.76275,6.52921 1.19857,9.97859 0,0.24638 11.00571,-7.88431 16.99883,-4.06536 7.08287,4.43493 -2.61519,17.61653 -13.076,13.42798"
       id="path1601" />
    <path
       style="fill:none;stroke:#64648a;stroke-width:0.579308px;stroke-linecap:butt;stroke-linejoin:miter;stroke-miterlimit:4;stroke-dasharray:none;stroke-opacity:1"
       d="m 604.42898,248.20881 c -5.23045,0.86236 -9.58906,-16.015 2.50624,-18.10928 -0.76275,0 11.87732,0.98554 8.1725,11.21051 -5.55732,9.60901 -10.78775,6.65239 -10.67874,6.89877 z"
       id="path1603" />
    <path
       style="fill:none;stroke:#64648a;stroke-width:0.579308px;stroke-linecap:butt;stroke-linejoin:miter;stroke-miterlimit:4;stroke-dasharray:none;stroke-opacity:1"
       d="m 619.35741,233.9185 c 4.24969,-6.15962 17.32568,-7.76112 12.74906,-1.60151 -6.21107,6.40601 -13.94769,14.53671 -13.18494,14.41351 3.81381,0.24639 7.73662,0.36958 11.76843,0.49278"
       id="path1605" />
    <path
       style="fill:none;stroke:#64648a;stroke-width:0.579308px;stroke-linecap:butt;stroke-linejoin:miter;stroke-miterlimit:4;stroke-dasharray:none;stroke-opacity:1"
       d="m 637.3369,230.7155 c 7.40974,-0.36958 14.92843,-0.73916 22.33813,-1.23193 0.43593,6.65239 -3.269,14.29032 -7.73657,20.44994"
       id="path1607" />
    <path
       style="fill:none;stroke:#64648a;stroke-width:0.579308px;stroke-linecap:butt;stroke-linejoin:miter;stroke-miterlimit:4;stroke-dasharray:none;stroke-opacity:1"
       d="m 73.325551,315.1023 c -0.435868,-8.50028 -1.634499,-16.87736 -2.397268,-25.13126 0.3269,0 4.467631,-1.23192 9.69803,-0.73915 5.121435,0.61596 11.223566,2.83343 11.441497,10.96412 -1.089663,8.13071 -6.973861,11.82648 -11.223561,13.42798 -4.467636,1.72469 -7.300767,1.47831 -7.518698,1.47831 z"
       id="path1609" />
    <path
       style="fill:none;stroke:#64648a;stroke-width:0.579308px;stroke-linecap:butt;stroke-linejoin:miter;stroke-miterlimit:4;stroke-dasharray:none;stroke-opacity:1"
       d="m 107.10521,291.07977 c -9.915964,4.43493 -19.287099,17.73971 -12.313233,19.95718 2.179332,1.10873 8.390423,-2.09427 12.095303,-6.89878 3.81382,-4.8045 5.01246,-11.21051 0.21793,-13.0584 z"
       id="path1611" />
    <path
       style="fill:none;stroke:#64648a;stroke-width:0.579308px;stroke-linecap:butt;stroke-linejoin:miter;stroke-miterlimit:4;stroke-dasharray:none;stroke-opacity:1"
       d="m 107.86798,294.52916 c 1.52553,3.3262 4.79453,7.63793 3.9228,11.94967"
       id="path1613" />
    <path
       style="fill:none;stroke:#64648a;stroke-width:0.579308px;stroke-linecap:butt;stroke-linejoin:miter;stroke-miterlimit:4;stroke-dasharray:none;stroke-opacity:1"
       d="m 118.65567,288.98551 c 3.26899,7.51474 10.67873,17.24693 8.82629,26.97913"
       id="path1615" />
    <path
       style="fill:none;stroke:#64648a;stroke-width:0.579308px;stroke-linecap:butt;stroke-linejoin:miter;stroke-miterlimit:4;stroke-dasharray:none;stroke-opacity:1"
       d="m 133.36617,290.58701 c 3.37796,6.03642 10.13389,13.79755 9.15319,21.68186"
       id="path1617" />
    <path
       style="fill:none;stroke:#64648a;stroke-width:0.579308px;stroke-linecap:butt;stroke-linejoin:miter;stroke-miterlimit:4;stroke-dasharray:none;stroke-opacity:1"
       d="m 162.35129,293.05085 c -8.71732,-0.86234 -16.67189,15.64545 -8.39043,17.73971 3.05107,1.23193 8.60837,-1.97108 10.7877,-6.406 2.50624,-4.31174 1.63451,-9.97859 -2.39727,-11.33371 z"
       id="path1619" />
    <path
       style="fill:none;stroke:#64648a;stroke-width:0.579308px;stroke-linecap:butt;stroke-linejoin:miter;stroke-miterlimit:4;stroke-dasharray:none;stroke-opacity:1"
       d="m 163.332,295.63789 c 2.17933,3.81897 6.32006,8.74667 5.8842,13.55117"
       id="path1621" />
    <path
       style="fill:none;stroke:#64648a;stroke-width:0.579308px;stroke-linecap:butt;stroke-linejoin:miter;stroke-miterlimit:4;stroke-dasharray:none;stroke-opacity:1"
       d="m 194.93232,291.07977 c -13.51186,-0.73915 -18.96019,2.46386 -14.16566,4.31174 5.44833,1.47831 25.28026,8.1307 11.87736,12.56563 -11.1146,3.81896 -11.1146,-2.83343 -11.55046,-2.83343"
       id="path1623" />
    <path
       style="fill:none;stroke:#64648a;stroke-width:0.579308px;stroke-linecap:butt;stroke-linejoin:miter;stroke-miterlimit:4;stroke-dasharray:none;stroke-opacity:1"
       d="m 208.88005,303.89179 c 0.21794,4.18854 -3.16003,8.25389 -4.46763,11.58008"
       id="path1625" />
    <path
       style="fill:none;stroke:#64648a;stroke-width:0.579308px;stroke-linecap:butt;stroke-linejoin:miter;stroke-miterlimit:4;stroke-dasharray:none;stroke-opacity:1"
       d="m 241.67901,281.34758 c 7.1918,0.61596 13.94773,1.6015 19.17813,2.58704"
       id="path1627" />
    <path
       style="fill:none;stroke:#64648a;stroke-width:0.579308px;stroke-linecap:butt;stroke-linejoin:miter;stroke-miterlimit:4;stroke-dasharray:none;stroke-opacity:1"
       d="m 251.92188,281.22438 c 0.87173,-0.12319 1.08966,6.15962 -0.10897,11.58009 -0.87174,5.54366 -3.05106,10.10178 -2.17933,10.34816"
       id="path1629" />
    <path
       style="fill:none;stroke:#64648a;stroke-width:0.579308px;stroke-linecap:butt;stroke-linejoin:miter;stroke-miterlimit:4;stroke-dasharray:none;stroke-opacity:1"
       d="m 268.37584,280.8548 c 5.66627,7.26836 15.0374,16.75418 15.0374,25.99361"
       id="path1631" />
    <path
       style="fill:none;stroke:#64648a;stroke-width:0.579308px;stroke-linecap:butt;stroke-linejoin:miter;stroke-miterlimit:4;stroke-dasharray:none;stroke-opacity:1"
       d="m 278.83664,281.34758 c -1.52554,7.63793 -9.58907,15.15267 -13.62083,21.18909"
       id="path1633" />
    <path
       style="fill:none;stroke:#64648a;stroke-width:0.579308px;stroke-linecap:butt;stroke-linejoin:miter;stroke-miterlimit:4;stroke-dasharray:none;stroke-opacity:1"
       d="m 313.597,285.04335 c 6.10212,-0.61597 12.20426,-1.23193 18.19742,-1.84789 3.48694,7.26836 3.48694,16.2614 -0.3269,23.65295"
       id="path1635" />
    <path
       style="fill:none;stroke:#64648a;stroke-width:0.579308px;stroke-linecap:butt;stroke-linejoin:miter;stroke-miterlimit:4;stroke-dasharray:none;stroke-opacity:1"
       d="m 357.18365,281.10119 c -4.14074,0.36958 -8.1725,0.73915 -12.31323,1.10873 0.21793,3.94216 0.43588,7.88432 0.54484,11.82647 0.10895,0.24639 11.98634,-8.99304 18.74225,-2.46385 7.84559,7.14516 -0.10896,21.68187 -11.22355,16.75418"
       id="path1637" />
    <path
       style="fill:none;stroke:#64648a;stroke-width:0.579308px;stroke-linecap:butt;stroke-linejoin:miter;stroke-miterlimit:4;stroke-dasharray:none;stroke-opacity:1"
       d="m 374.2914,289.60147 c 6.8649,-5.29727 10.56979,-7.63793 13.72981,-7.26836 2.94209,0.36958 5.12143,3.4494 2.07038,8.50028 -7.08284,10.10178 -13.4029,13.79755 -12.96705,13.92074 4.14075,-0.61596 8.71735,-1.23192 13.62084,-1.97107"
       id="path1639" />
    <path
       style="fill:none;stroke:#64648a;stroke-width:0.579308px;stroke-linecap:butt;stroke-linejoin:miter;stroke-miterlimit:4;stroke-dasharray:none;stroke-opacity:1"
       d="m 403.7124,272.97049 c 1.19864,6.77559 2.83314,13.67436 3.9228,20.81952 5.99319,-0.86235 12.20428,-1.84789 18.3064,-2.95662 0.87174,-0.24638 -5.01246,-14.78309 -3.81382,-12.44243 0.87171,0.86234 2.9421,8.1307 2.17931,14.78309 -0.32689,6.77558 -3.37795,13.05839 -3.37795,12.9352"
       id="path1641" />
    <path
       style="fill:none;stroke:#64648a;stroke-width:0.579308px;stroke-linecap:butt;stroke-linejoin:miter;stroke-miterlimit:4;stroke-dasharray:none;stroke-opacity:1"
       d="m 443.92109,282.33311 c -10.35181,-1.35511 -20.04986,12.44243 -11.65942,18.72525 3.70487,3.3262 7.30077,2.95662 11.1146,0.86235 3.4869,-2.21746 7.19179,-6.15962 6.538,-9.23943 -0.98071,-6.03643 -6.10214,-10.34817 -5.99318,-10.34817 z"
       id="path1643" />
    <path
       style="fill:none;stroke:#64648a;stroke-width:0.579308px;stroke-linecap:butt;stroke-linejoin:miter;stroke-miterlimit:4;stroke-dasharray:none;stroke-opacity:1"
       d="m 25.162295,23.259468 c -8.717336,-7.514733 -10.896667,-4.558115 -12.967035,0 -1.852429,4.681316 0.3269,10.10178 7.082835,7.391545 6.537999,-2.833423 13.729797,-0.61596 12.31323,6.775584 -0.762769,3.695773 -4.467631,7.145163 -7.300768,8.869854 -2.942099,1.724699 -5.12143,1.601504 -6.320061,-1.847886"
       id="path1645" />
    <path
       style="fill:none;stroke:#64648a;stroke-width:0.579308px;stroke-linecap:butt;stroke-linejoin:miter;stroke-miterlimit:4;stroke-dasharray:none;stroke-opacity:1"
       d="m 34.097556,20.426045 c -1.198632,-0.123195 2.724167,6.03643 4.249698,13.551163 1.9614,7.268356 1.6345,15.768633 0.544838,15.399056"
       id="path1647" />
    <path
       style="fill:none;stroke:#64648a;stroke-width:0.579308px;stroke-linecap:butt;stroke-linejoin:miter;stroke-miterlimit:4;stroke-dasharray:none;stroke-opacity:1"
       d="m 31.373393,32.745288 c 2.83313,-0.369577 6.211099,-0.739154 9.58906,-1.108731"
       id="path1649" />
    <path
       style="fill:none;stroke:#64648a;stroke-width:0.579308px;stroke-linecap:butt;stroke-linejoin:miter;stroke-miterlimit:4;stroke-dasharray:none;stroke-opacity:1"
       d="m 55.781918,21.534777 c -3.81383,-2.217464 -5.993161,-1.108732 -8.063528,1.847886 -1.961401,3.079812 -3.813831,8.007504 -3.486932,14.167129 0.653801,12.442432 8.608361,8.623471 12.640128,5.297269 1.6345,-1.478308 2.833131,-7.145155 1.9614,-12.072853 -0.544832,-5.050887 -3.160031,-9.239431 -3.051068,-9.239431 z"
       id="path1651" />
    <path
       style="fill:none;stroke:#64648a;stroke-width:0.579308px;stroke-linecap:butt;stroke-linejoin:miter;stroke-miterlimit:4;stroke-dasharray:none;stroke-opacity:1"
       d="m 54.692255,22.889891 c 2.070363,6.282813 7.518699,14.413512 5.448331,22.297829"
       id="path1653" />
    <path
       style="fill:none;stroke:#64648a;stroke-width:0.579308px;stroke-linecap:butt;stroke-linejoin:miter;stroke-miterlimit:4;stroke-dasharray:none;stroke-opacity:1"
       d="m 60.467485,20.30285 c 1.9614,7.884317 4.794531,16.507788 5.012467,25.131259 0.217932,-4.434934 -0.217936,-8.869861 -0.871736,-13.181593 2.615199,-0.615959 5.339367,-1.108732 8.063536,-1.724691 2.288299,-5.050894 3.922799,-10.471357 3.704861,-15.522244"
       id="path1655" />
    <path
       style="fill:none;stroke:#64648a;stroke-width:0.579308px;stroke-linecap:butt;stroke-linejoin:miter;stroke-miterlimit:4;stroke-dasharray:none;stroke-opacity:1"
       d="m 68.095152,31.390167 c 2.724162,4.188544 7.518698,9.485821 7.191799,14.659902"
       id="path1657" />
    <path
       style="fill:none;stroke:#64648a;stroke-width:0.579308px;stroke-linecap:butt;stroke-linejoin:miter;stroke-miterlimit:4;stroke-dasharray:none;stroke-opacity:1"
       d="M 100.34927,38.781712 C 83.67738,48.883492 80.299413,53.811191 82.478749,34.962751 86.401548,15.375158 95.554747,13.896849 95.772678,22.027548 94.35611,30.281436 86.074648,34.593175 82.478749,34.46998"
       id="path1659" />
    <path
       style="fill:none;stroke:#64648a;stroke-width:0.579308px;stroke-linecap:butt;stroke-linejoin:miter;stroke-miterlimit:4;stroke-dasharray:none;stroke-opacity:1"
       d="m 124.53987,23.259468 c -0.65381,-6.036424 -4.90351,-7.391545 -6.8649,-2.710229 -2.50623,5.174082 -9.04423,16.630976 -4.9035,20.203554 3.26899,3.695772 10.56977,2.463846 10.89667,2.463846"
       id="path1661" />
    <path
       style="fill:none;stroke:#64648a;stroke-width:0.579308px;stroke-linecap:butt;stroke-linejoin:miter;stroke-miterlimit:4;stroke-dasharray:none;stroke-opacity:1"
       d="m 139.1414,23.75224 c -5.77523,-4.927699 -12.31324,-1.478309 -13.94774,8.500276 -0.54482,9.978586 1.41658,10.964123 6.42904,9.732203 2.39726,-0.492772 5.99316,-4.927698 7.08283,-9.48582 1.41657,-4.434927 0.43587,-8.869854 0.43587,-8.746659 z"
       id="path1663" />
    <path
       style="fill:none;stroke:#64648a;stroke-width:0.579308px;stroke-linecap:butt;stroke-linejoin:miter;stroke-miterlimit:4;stroke-dasharray:none;stroke-opacity:1"
       d="m 137.61586,24.737777 c 1.52554,3.572585 5.12144,8.253894 4.2497,12.812015"
       id="path1665" />
    <path
       style="fill:none;stroke:#64648a;stroke-width:0.579308px;stroke-linecap:butt;stroke-linejoin:miter;stroke-miterlimit:4;stroke-dasharray:none;stroke-opacity:1"
       d="m 155.70434,17.592621 c -3.269,-1.108731 -6.75594,1.724692 -9.58908,4.804504 -2.6152,3.079806 -4.5766,6.406002 -1.30759,7.637928 6.32006,2.833423 14.3836,-10.348163 15.90912,2.217463 -0.10896,6.529196 -4.68555,9.609008 -8.17249,10.964123 -3.70486,1.355121 -6.42904,1.108738 -7.30076,0.862349"
       id="path1667" />
    <path
       style="fill:none;stroke:#64648a;stroke-width:0.579308px;stroke-linecap:butt;stroke-linejoin:miter;stroke-miterlimit:4;stroke-dasharray:none;stroke-opacity:1"
       d="m 159.40919,17.962199 c 2.28831,8.869853 5.88421,18.355667 6.10214,27.964675 0.21793,-4.188544 -0.10897,-8.623471 -0.6538,-12.812009 0,0 -1.41657,-7.884316 8.4994,-6.159624 5.12143,0.862349 7.1918,6.03643 6.64696,10.594551 -0.3269,4.68131 -3.269,8.869854 -3.269,8.993049"
       id="path1669" />
    <path
       style="fill:none;stroke:#64648a;stroke-width:0.579308px;stroke-linecap:butt;stroke-linejoin:miter;stroke-miterlimit:4;stroke-dasharray:none;stroke-opacity:1"
       d="m 206.70073,27.571207 c 0.43586,-4.434927 -6.75594,-10.840935 -7.40974,-10.224975 -0.43586,0.739155 -10.89666,14.78309 -3.16003,22.544212 3.37796,4.065349 6.42902,4.188544 9.4801,3.079812 3.05106,-0.985537 6.21109,-3.079812 6.10212,-3.203"
       id="path1671" />
    <path
       style="fill:none;stroke:#64648a;stroke-width:0.579308px;stroke-linecap:butt;stroke-linejoin:miter;stroke-miterlimit:4;stroke-dasharray:none;stroke-opacity:1"
       d="m 210.84145,27.078435 c 2.50623,4.434927 5.99317,9.609008 6.538,14.659895 0.21793,0 -0.21793,-3.572578 -1.3076,-7.391545 -0.87173,-3.695772 -2.6152,-7.637927 -1.85243,-8.623464 0.87174,-2.217464 9.37113,0.369577 9.58906,0.369577"
       id="path1673" />
    <path
       style="fill:none;stroke:#64648a;stroke-width:0.579308px;stroke-linecap:butt;stroke-linejoin:miter;stroke-miterlimit:4;stroke-dasharray:none;stroke-opacity:1"
       d="m 236.01275,43.955793 c -4.9035,1.231927 -7.08283,-0.615959 -8.39043,-3.449383 -1.3076,-2.710235 -1.85244,-6.282813 -0.76277,-9.116243 2.2883,-5.543658 7.95457,-9.978585 10.89666,-6.406001 3.37797,3.818961 -0.54483,10.101774 -11.44149,9.855391"
       id="path1675" />
    <path
       style="fill:none;stroke:#64648a;stroke-width:0.579308px;stroke-linecap:butt;stroke-linejoin:miter;stroke-miterlimit:4;stroke-dasharray:none;stroke-opacity:1"
       d="m 256.38951,12.295345 c 0,-0.246382 3.16003,7.51474 2.39726,15.39905 -0.21793,7.761122 -4.2497,15.645439 -4.35866,15.645439 -0.3269,0.369577 2.07036,-3.695773 2.17933,-7.51474 0.43588,-3.81896 -1.52553,-7.26835 -6.64696,-4.927692 -10.4608,4.188538 -10.56977,10.71774 -6.10213,12.072854 4.46763,1.231927 10.35182,0.369578 10.4608,0.369578"
       id="path1677" />
    <path
       style="fill:none;stroke:#64648a;stroke-width:0.579308px;stroke-linecap:butt;stroke-linejoin:miter;stroke-miterlimit:4;stroke-dasharray:none;stroke-opacity:1"
       d="m 266.85031,25.969703 c 2.17933,5.543659 -0.76277,10.964123 -1.08967,15.275861"
       id="path1679" />
    <path
       style="fill:none;stroke:#64648a;stroke-width:0.579308px;stroke-linecap:butt;stroke-linejoin:miter;stroke-miterlimit:4;stroke-dasharray:none;stroke-opacity:1"
       d="m 265.65167,15.744735 c 0.6538,1.108732 1.9614,2.587041 1.85244,3.942155"
       id="path1681" />
    <path
       style="fill:none;stroke:#64648a;stroke-width:0.579308px;stroke-linecap:butt;stroke-linejoin:miter;stroke-miterlimit:4;stroke-dasharray:none;stroke-opacity:1"
       d="m 279.59941,17.839004 c 0.6538,7.145162 5.44833,16.261399 1.85243,25.377635"
       id="path1683" />
    <path
       style="fill:none;stroke:#64648a;stroke-width:0.579308px;stroke-linecap:butt;stroke-linejoin:miter;stroke-miterlimit:4;stroke-dasharray:none;stroke-opacity:1"
       d="m 277.3111,27.324818 c 1.9614,-0.739155 4.57661,-1.601497 6.64697,-2.587041"
       id="path1685" />
    <path
       style="fill:none;stroke:#64648a;stroke-width:0.579308px;stroke-linecap:butt;stroke-linejoin:miter;stroke-miterlimit:4;stroke-dasharray:none;stroke-opacity:1"
       d="m 10.233862,68.471087 c 4.794535,-8.1307 13.729796,-7.391545 14.383595,-2.217463 0.108969,5.297278 -6.973862,8.253898 -6.864898,8.253898 -0.217931,0 20.158832,-0.369577 16.236034,8.253882 -2.179338,4.188549 -6.864899,7.268359 -10.569767,8.623472 -3.81383,1.355113 -6.646967,1.231929 -7.954567,-1.231923"
       id="path1687" />
    <path
       style="fill:none;stroke:#64648a;stroke-width:0.579308px;stroke-linecap:butt;stroke-linejoin:miter;stroke-miterlimit:4;stroke-dasharray:none;stroke-opacity:1"
       d="m 45.756989,63.912965 c -8.390435,1.724699 -19.940895,15.768635 -9.698034,15.645438 4.576598,0.246388 9.044235,-3.695768 10.242866,-7.76112 1.416569,-3.942156 -0.435863,-8.007505 -0.544832,-7.884318 z"
       id="path1689" />
    <path
       style="fill:none;stroke:#64648a;stroke-width:0.579308px;stroke-linecap:butt;stroke-linejoin:miter;stroke-miterlimit:4;stroke-dasharray:none;stroke-opacity:1"
       d="m 45.321122,65.391275 c -0.544832,0 2.615199,5.297276 4.903498,12.688825 2.942098,7.145162 -0.3269,15.152663 -1.9614,14.783086"
       id="path1691" />
    <path
       style="fill:none;stroke:#64648a;stroke-width:0.579308px;stroke-linecap:butt;stroke-linejoin:miter;stroke-miterlimit:4;stroke-dasharray:none;stroke-opacity:1"
       d="m 66.024784,63.050623 c 0,-0.246389 -10.242866,1.724691 -10.351829,1.601497 0.435863,2.463853 0.980699,4.804508 1.525531,7.26836 -0.108969,0.123184 13.620828,-5.790051 16.780865,3.326191 1.525531,4.55812 0.108963,8.623465 -2.615199,10.84093 -2.833137,2.217465 -7.082836,2.710239 -14.274635,0.862352"
       id="path1693" />
    <path
       style="fill:none;stroke:#64648a;stroke-width:0.579308px;stroke-linecap:butt;stroke-linejoin:miter;stroke-miterlimit:4;stroke-dasharray:none;stroke-opacity:1"
       d="m 78.338012,62.927428 c 1.3076,6.036431 5.993169,13.797552 3.486938,21.558679"
       id="path1695" />
    <path
       style="fill:none;stroke:#64648a;stroke-width:0.579308px;stroke-linecap:butt;stroke-linejoin:miter;stroke-miterlimit:4;stroke-dasharray:none;stroke-opacity:1"
       d="m 113.53424,61.572314 c -5.99317,0.61596 -26.043029,10.224969 -13.620832,10.47135 12.422192,0.492774 21.684352,-0.862339 18.960202,6.898781 -1.63451,3.818959 -5.99316,7.145156 -9.1532,8.377085 -3.26901,1.231923 -5.44833,0.369578 -6.53801,-4.434929"
       id="path1697" />
    <path
       style="fill:none;stroke:#64648a;stroke-width:0.579308px;stroke-linecap:butt;stroke-linejoin:miter;stroke-miterlimit:4;stroke-dasharray:none;stroke-opacity:1"
       d="m 122.36054,61.572314 c -1.85243,5.050886 -2.28829,20.573132 3.9228,21.805061 6.64696,1.47831 8.93526,-16.384597 8.06352,-16.507791 -0.10896,0 0.10898,5.17408 0.21794,9.609009 0.43586,4.681317 0.6538,8.623472 5.12144,7.021966 4.68555,-1.355113 9.04422,-7.268346 9.91596,-12.688812 1.19864,-5.297278 -1.08966,-10.101782 -0.9807,-9.978587"
       id="path1699" />
    <path
       style="fill:none;stroke:#64648a;stroke-width:0.579308px;stroke-linecap:butt;stroke-linejoin:miter;stroke-miterlimit:4;stroke-dasharray:none;stroke-opacity:1"
       d="m 176.19006,53.072036 c -1.08967,3.449383 -6.32007,10.840929 -8.71733,17.000557 -2.72417,6.406 -2.6152,11.580085 1.9614,13.427966 7.73663,3.695774 17.76156,-8.500276 9.69802,-9.978585 -7.62766,-0.985536 -13.29392,1.108732 -13.18496,1.108732"
       id="path1701" />
    <path
       style="fill:none;stroke:#64648a;stroke-width:0.579308px;stroke-linecap:butt;stroke-linejoin:miter;stroke-miterlimit:4;stroke-dasharray:none;stroke-opacity:1"
       d="m 195.04128,56.028654 c -1.85242,-3.079813 -5.23039,-3.942161 -7.08282,-2.217463 -3.26901,3.572577 -9.58906,10.717741 -5.23041,24.145712 1.85244,8.377085 4.03178,7.761121 7.5187,3.695775 3.16004,-3.942155 7.5187,-11.333705 6.75593,-14.04394 0,-3.079806 0,-8.253887 -1.9614,-11.580084 z"
       id="path1703" />
    <path
       style="fill:none;stroke:#64648a;stroke-width:0.579308px;stroke-linecap:butt;stroke-linejoin:miter;stroke-miterlimit:4;stroke-dasharray:none;stroke-opacity:1"
       d="m 197.98339,52.332882 c 0.54483,2.463846 2.39727,5.666846 1.3076,8.869855"
       id="path1705" />
    <path
       style="fill:none;stroke:#64648a;stroke-width:0.579308px;stroke-linecap:butt;stroke-linejoin:miter;stroke-miterlimit:4;stroke-dasharray:none;stroke-opacity:1"
       d="m 196.56682,55.043111 c 0.87173,-0.246383 1.9614,-0.61596 2.9421,-0.862343"
       id="path1707" />
    <path
       style="fill:none;stroke:#64648a;stroke-width:0.579308px;stroke-linecap:butt;stroke-linejoin:miter;stroke-miterlimit:4;stroke-dasharray:none;stroke-opacity:1"
       d="m 201.47032,51.84011 c 0.87174,2.463846 2.07037,5.297276 2.39726,8.007506 0.43587,0.123195 -0.43586,-8.623466 3.37797,-6.529197 4.24971,2.217463 3.16004,4.434927 3.16004,4.434927"
       id="path1709" />
    <path
       style="fill:none;stroke:#64648a;stroke-width:0.579308px;stroke-linecap:butt;stroke-linejoin:miter;stroke-miterlimit:4;stroke-dasharray:none;stroke-opacity:1"
       d="m 236.44862,60.956348 c -0.76277,0 16.45395,-1.724692 16.88982,-1.724692"
       id="path1711" />
    <path
       style="fill:none;stroke:#64648a;stroke-width:0.579308px;stroke-linecap:butt;stroke-linejoin:miter;stroke-miterlimit:4;stroke-dasharray:none;stroke-opacity:1"
       d="m 245.49285,60.709965 c 2.50623,6.282813 8.49939,14.413515 6.64696,22.544213"
       id="path1713" />
    <path
       style="fill:none;stroke:#64648a;stroke-width:0.579308px;stroke-linecap:butt;stroke-linejoin:miter;stroke-miterlimit:4;stroke-dasharray:none;stroke-opacity:1"
       d="m 274.58694,77.833713 c -8.93527,4.927691 -12.74909,6.529197 -15.0374,5.543662 -2.07036,-0.862352 -2.72417,-4.188549 -0.9807,-10.840937 1.85243,-6.775586 3.70487,-8.869855 5.66627,-8.377084 1.85243,0.492766 3.70486,3.695773 2.17933,7.021971 -3.37796,6.652388 -8.60837,4.68131 -8.60837,4.804501"
       id="path1715" />
    <path
       style="fill:none;stroke:#64648a;stroke-width:0.579308px;stroke-linecap:butt;stroke-linejoin:miter;stroke-miterlimit:4;stroke-dasharray:none;stroke-opacity:1"
       d="m 269.90137,61.941892 c 2.17934,5.420463 5.66627,11.826475 5.66627,18.109286 1.08967,0 -2.83313,-14.043937 -2.17933,-17.862904 0.76276,-4.065351 8.28146,0 8.4994,0.123194"
       id="path1717" />
    <path
       style="fill:none;stroke:#64648a;stroke-width:0.579308px;stroke-linecap:butt;stroke-linejoin:miter;stroke-miterlimit:4;stroke-dasharray:none;stroke-opacity:1"
       d="m 284.06703,60.709965 c 1.9614,6.159619 5.12144,12.812009 5.2304,19.71079 1.08967,-0.123197 -3.16003,-17.246944 -1.6345,-20.080368 1.74348,-2.956619 9.91597,0.739155 10.35183,0.985538"
       id="path1719" />
    <path
       style="fill:none;stroke:#64648a;stroke-width:0.579308px;stroke-linecap:butt;stroke-linejoin:miter;stroke-miterlimit:4;stroke-dasharray:none;stroke-opacity:1"
       d="m 311.09076,60.340387 c -6.75593,0.739155 -17.21672,10.594551 -8.28146,17.616516 7.30076,7.761121 15.25532,-7.145156 14.05669,-10.84093 -0.65379,-3.572585 -4.35867,-6.89878 -5.77523,-6.775586 z"
       id="path1721" />
    <path
       style="fill:none;stroke:#64648a;stroke-width:0.579308px;stroke-linecap:butt;stroke-linejoin:miter;stroke-miterlimit:4;stroke-dasharray:none;stroke-opacity:1"
       d="m 316.86599,67.115973 c 0.65381,-0.123195 2.07037,13.058395 1.6345,16.138205"
       id="path1723" />
    <path
       style="fill:none;stroke:#64648a;stroke-width:0.579308px;stroke-linecap:butt;stroke-linejoin:miter;stroke-miterlimit:4;stroke-dasharray:none;stroke-opacity:1"
       d="m 330.15992,65.637664 c -3.81383,-7.391546 -7.30076,-4.188545 -8.60836,8.377084 0.21794,12.31924 5.8842,12.31924 14.16566,7.391543"
       id="path1725" />
    <path
       style="fill:none;stroke:#64648a;stroke-width:0.579308px;stroke-linecap:butt;stroke-linejoin:miter;stroke-miterlimit:4;stroke-dasharray:none;stroke-opacity:1"
       d="m 355.98501,74.753903 c -14.81946,15.152663 -17.43465,9.609007 -18.08845,-1.231929 1.08965,-11.210506 6.97386,-16.384588 8.71734,-11.087317 1.9614,5.543658 -0.98071,13.181591 -8.71734,12.812014"
       id="path1727" />
    <path
       style="fill:none;stroke:#64648a;stroke-width:0.579308px;stroke-linecap:butt;stroke-linejoin:miter;stroke-miterlimit:4;stroke-dasharray:none;stroke-opacity:1"
       d="m 15.573228,128.95856 c -0.435868,-7.14515 -1.9614,-14.29032 -3.051068,-21.18909 0.326899,0.12319 16.780864,-5.17408 22.011263,2.34065 5.993168,8.00751 -3.48693,20.57313 -18.960195,18.84844 z"
       id="path1729" />
    <path
       style="fill:none;stroke:#64648a;stroke-width:0.579308px;stroke-linecap:butt;stroke-linejoin:miter;stroke-miterlimit:4;stroke-dasharray:none;stroke-opacity:1"
       d="m 48.917021,110.4797 c -8.39043,2.83343 -20.812628,16.50778 -11.659429,17.00055 7.518698,1.60151 26.260961,-11.70327 11.659429,-17.00055 z"
       id="path1731" />
    <path
       style="fill:none;stroke:#64648a;stroke-width:0.579308px;stroke-linecap:butt;stroke-linejoin:miter;stroke-miterlimit:4;stroke-dasharray:none;stroke-opacity:1"
       d="m 51.968088,114.91462 c 1.307599,2.95662 4.249698,6.77559 3.48693,10.59455"
       id="path1733" />
    <path
       style="fill:none;stroke:#64648a;stroke-width:0.579308px;stroke-linecap:butt;stroke-linejoin:miter;stroke-miterlimit:4;stroke-dasharray:none;stroke-opacity:1"
       d="m 59.050917,109.74055 c 0.108969,-0.36958 7.954567,15.15266 9.589067,16.1382 1.089668,0.49277 5.12143,-3.57258 6.864898,-8.1307 1.9614,-4.55812 1.743468,-9.36262 1.416568,-9.11624"
       id="path1735" />
    <path
       style="fill:none;stroke:#64648a;stroke-width:0.579308px;stroke-linecap:butt;stroke-linejoin:miter;stroke-miterlimit:4;stroke-dasharray:none;stroke-opacity:1"
       d="m 84.98498,112.57398 c 1.525531,0.24638 -2.288299,10.84093 -2.179331,10.59454"
       id="path1737" />
    <path
       style="fill:none;stroke:#64648a;stroke-width:0.579308px;stroke-linecap:butt;stroke-linejoin:miter;stroke-miterlimit:4;stroke-dasharray:none;stroke-opacity:1"
       d="m 85.965679,102.47219 c 0.217932,1.10874 0.217932,2.46385 0,3.57258"
       id="path1739" />
    <path
       style="fill:none;stroke:#64648a;stroke-width:0.579308px;stroke-linecap:butt;stroke-linejoin:miter;stroke-miterlimit:4;stroke-dasharray:none;stroke-opacity:1"
       d="m 105.03485,127.84983 c -3.05108,-0.24638 -8.390441,-2.21747 -12.31324,-4.9277 -3.704862,-2.58703 -5.77523,-5.91323 0.6538,-9.85539 5.884198,-4.06535 11.7684,-4.68131 15.36429,-3.44938 3.37798,1.10873 4.68557,3.94215 -1.63449,5.91324 -12.204264,3.57257 -14.819463,-1.72471 -14.819463,-1.72471"
       id="path1741" />
    <path
       style="fill:none;stroke:#64648a;stroke-width:0.579308px;stroke-linecap:butt;stroke-linejoin:miter;stroke-miterlimit:4;stroke-dasharray:none;stroke-opacity:1"
       d="m 113.09837,124.15405 c 0.21794,4.68131 -3.81382,9.36263 -5.33936,13.05841"
       id="path1743" />
    <path
       style="fill:none;stroke:#64648a;stroke-width:0.579308px;stroke-linecap:butt;stroke-linejoin:miter;stroke-miterlimit:4;stroke-dasharray:none;stroke-opacity:1"
       d="m 129.9882,125.01641 c 0.21794,0 -1.19864,-27.841492 -1.08966,-27.964682 0,-0.12319 10.67872,-1.847881 10.67872,-1.847881"
       id="path1745" />
    <path
       style="fill:none;stroke:#64648a;stroke-width:0.579308px;stroke-linecap:butt;stroke-linejoin:miter;stroke-miterlimit:4;stroke-dasharray:none;stroke-opacity:1"
       d="m 129.0075,113.68271 c -0.3269,0 7.40973,-1.23193 7.62766,-1.35512"
       id="path1747" />
    <path
       style="fill:none;stroke:#64648a;stroke-width:0.579308px;stroke-linecap:butt;stroke-linejoin:miter;stroke-miterlimit:4;stroke-dasharray:none;stroke-opacity:1"
       d="m 151.34567,94.464692 c 0.87173,-0.123196 -4.03177,29.566168 -3.81384,29.196598 5.99316,0.61596 12.09531,1.10873 18.08847,1.72469"
       id="path1749" />
    <path
       style="fill:none;stroke:#64648a;stroke-width:0.579308px;stroke-linecap:butt;stroke-linejoin:miter;stroke-miterlimit:4;stroke-dasharray:none;stroke-opacity:1"
       d="m 182.51013,99.885151 c 3.81382,-2.217458 8.60835,-3.572578 12.64013,-3.203 3.81383,0.246387 6.97386,2.217465 4.24969,6.898779 -6.42903,8.86985 -8.28147,5.54366 -8.17249,5.66685 -0.21794,-0.12319 19.83192,-1.23192 9.91597,7.63793 -10.02495,8.1307 -15.58224,4.06534 -16.01811,4.18854"
       id="path1751" />
    <path
       style="fill:none;stroke:#64648a;stroke-width:0.579308px;stroke-linecap:butt;stroke-linejoin:miter;stroke-miterlimit:4;stroke-dasharray:none;stroke-opacity:1"
       d="m 205.72002,99.885151 c 9.37114,-7.021965 16.0181,2.340659 12.53116,5.050889 -3.48693,2.58704 -4.79453,2.21746 -4.79453,2.34066 -0.10897,0.12319 12.4222,-7.391549 12.96703,1.6015 -0.21793,4.55812 -3.05106,7.39155 -5.8842,8.74666 -2.9421,1.23193 -5.66626,1.23193 -8.60836,0"
       id="path1753" />
    <path
       style="fill:none;stroke:#64648a;stroke-width:0.579308px;stroke-linecap:butt;stroke-linejoin:miter;stroke-miterlimit:4;stroke-dasharray:none;stroke-opacity:1"
       d="m 229.36578,100.00835 c 6.32007,-5.543658 14.16567,-0.615967 11.55046,4.06535 -3.26899,4.55811 -9.26216,4.92769 -9.26216,4.92769 -0.21794,0.24639 18.96019,-6.77558 14.7105,2.34066 -5.66626,8.99305 -10.67873,9.23943 -13.62083,6.15962"
       id="path1755" />
    <path
       style="fill:none;stroke:#64648a;stroke-width:0.579308px;stroke-linecap:butt;stroke-linejoin:miter;stroke-miterlimit:4;stroke-dasharray:none;stroke-opacity:1"
       d="m 245.81974,97.421306 c 2.72417,5.666844 8.60837,12.935204 7.30077,20.203554"
       id="path1757" />
    <path
       style="fill:none;stroke:#64648a;stroke-width:0.579308px;stroke-linecap:butt;stroke-linejoin:miter;stroke-miterlimit:4;stroke-dasharray:none;stroke-opacity:1"
       d="m 260.74817,94.587876 c -0.10896,-0.369577 1.85243,17.493324 1.41657,17.493324 -0.54483,0.1232 11.1146,-1.72469 11.22357,-1.84789 -0.3269,-2.71023 -0.87174,-5.42046 -1.74347,-8.0075 -0.21793,-0.12319 2.17933,4.43493 2.6152,8.99305 0.87173,4.68131 -0.10897,9.23943 -0.3269,9.36262"
       id="path1759" />
  </g>
</svg>
