<?xml version="1.0" encoding="UTF-8" standalone="no"?>
<!-- Created with Inkscape (http://www.inkscape.org/) -->

<svg
   version="1.1"
   id="svg2454"
   width="1254.6667"
   height="834.66669"
   viewBox="0 0 1254.6667 834.66669"
   sodipodi:docname="KevinV - Stake - Envelope6.svg"
   inkscape:version="1.2.1 (9c6d41e410, 2022-07-14)"
   xmlns:inkscape="http://www.inkscape.org/namespaces/inkscape"
   xmlns:sodipodi="http://sodipodi.sourceforge.net/DTD/sodipodi-0.dtd"
   xmlns="http://www.w3.org/2000/svg"
   xmlns:svg="http://www.w3.org/2000/svg">
  <defs
     id="defs2458">
    <pattern
       id="EMFhbasepattern"
       patternUnits="userSpaceOnUse"
       width="6"
       height="6"
       x="0"
       y="0" />
    <pattern
       id="EMFhbasepattern-2"
       patternUnits="userSpaceOnUse"
       width="6"
       height="6"
       x="0"
       y="0" />
    <pattern
       id="EMFhbasepattern-6"
       patternUnits="userSpaceOnUse"
       width="6"
       height="6"
       x="0"
       y="0" />
    <pattern
       id="EMFhbasepattern-9"
       patternUnits="userSpaceOnUse"
       width="6"
       height="6"
       x="0"
       y="0" />
    <pattern
       id="EMFhbasepattern-25"
       patternUnits="userSpaceOnUse"
       width="6"
       height="6"
       x="0"
       y="0" />
    <pattern
       id="EMFhbasepattern-4"
       patternUnits="userSpaceOnUse"
       width="6"
       height="6"
       x="0"
       y="0" />
    <pattern
       id="EMFhbasepattern-0"
       patternUnits="userSpaceOnUse"
       width="6"
       height="6"
       x="0"
       y="0" />
    <pattern
       id="EMFhbasepattern-8"
       patternUnits="userSpaceOnUse"
       width="6"
       height="6"
       x="0"
       y="0" />
    <pattern
       id="EMFhbasepattern-89"
       patternUnits="userSpaceOnUse"
       width="6"
       height="6"
       x="0"
       y="0" />
    <pattern
       id="EMFhbasepattern-09"
       patternUnits="userSpaceOnUse"
       width="6"
       height="6"
       x="0"
       y="0" />
    <pattern
       id="EMFhbasepattern-40"
       patternUnits="userSpaceOnUse"
       width="6"
       height="6"
       x="0"
       y="0" />
    <pattern
       id="EMFhbasepattern-05"
       patternUnits="userSpaceOnUse"
       width="6"
       height="6"
       x="0"
       y="0" />
    <pattern
       id="EMFhbasepattern-45"
       patternUnits="userSpaceOnUse"
       width="6"
       height="6"
       x="0"
       y="0" />
    <pattern
       id="EMFhbasepattern-64"
       patternUnits="userSpaceOnUse"
       width="6"
       height="6"
       x="0"
       y="0" />
    <pattern
       id="EMFhbasepattern-97"
       patternUnits="userSpaceOnUse"
       width="6"
       height="6"
       x="0"
       y="0" />
    <pattern
       id="EMFhbasepattern-5"
       patternUnits="userSpaceOnUse"
       width="6"
       height="6"
       x="0"
       y="0" />
    <pattern
       id="EMFhbasepattern-20"
       patternUnits="userSpaceOnUse"
       width="6"
       height="6"
       x="0"
       y="0" />
    <pattern
       id="EMFhbasepattern-1"
       patternUnits="userSpaceOnUse"
       width="6"
       height="6"
       x="0"
       y="0" />
    <pattern
       id="EMFhbasepattern-46"
       patternUnits="userSpaceOnUse"
       width="6"
       height="6"
       x="0"
       y="0" />
    <pattern
       id="EMFhbasepattern-04"
       patternUnits="userSpaceOnUse"
       width="6"
       height="6"
       x="0"
       y="0" />
    <pattern
       id="EMFhbasepattern-07"
       patternUnits="userSpaceOnUse"
       width="6"
       height="6"
       x="0"
       y="0" />
    <pattern
       id="EMFhbasepattern-3"
       patternUnits="userSpaceOnUse"
       width="6"
       height="6"
       x="0"
       y="0" />
    <pattern
       id="EMFhbasepattern-39"
       patternUnits="userSpaceOnUse"
       width="6"
       height="6"
       x="0"
       y="0" />
    <pattern
       id="EMFhbasepattern-88"
       patternUnits="userSpaceOnUse"
       width="6"
       height="6"
       x="0"
       y="0" />
    <pattern
       id="EMFhbasepattern-11"
       patternUnits="userSpaceOnUse"
       width="6"
       height="6"
       x="0"
       y="0" />
    <pattern
       id="EMFhbasepattern-47"
       patternUnits="userSpaceOnUse"
       width="6"
       height="6"
       x="0"
       y="0" />
    <pattern
       id="EMFhbasepattern-67"
       patternUnits="userSpaceOnUse"
       width="6"
       height="6"
       x="0"
       y="0" />
    <pattern
       id="EMFhbasepattern-21"
       patternUnits="userSpaceOnUse"
       width="6"
       height="6"
       x="0"
       y="0" />
    <pattern
       id="EMFhbasepattern-43"
       patternUnits="userSpaceOnUse"
       width="6"
       height="6"
       x="0"
       y="0" />
    <pattern
       id="EMFhbasepattern-36"
       patternUnits="userSpaceOnUse"
       width="6"
       height="6"
       x="0"
       y="0" />
    <pattern
       id="EMFhbasepattern-02"
       patternUnits="userSpaceOnUse"
       width="6"
       height="6"
       x="0"
       y="0" />
    <pattern
       id="EMFhbasepattern-57"
       patternUnits="userSpaceOnUse"
       width="6"
       height="6"
       x="0"
       y="0" />
    <pattern
       id="EMFhbasepattern-68"
       patternUnits="userSpaceOnUse"
       width="6"
       height="6"
       x="0"
       y="0" />
    <pattern
       id="EMFhbasepattern-58"
       patternUnits="userSpaceOnUse"
       width="6"
       height="6"
       x="0"
       y="0" />
    <pattern
       id="EMFhbasepattern-27"
       patternUnits="userSpaceOnUse"
       width="6"
       height="6"
       x="0"
       y="0" />
    <pattern
       id="EMFhbasepattern-16"
       patternUnits="userSpaceOnUse"
       width="6"
       height="6"
       x="0"
       y="0" />
    <pattern
       id="EMFhbasepattern-12"
       patternUnits="userSpaceOnUse"
       width="6"
       height="6"
       x="0"
       y="0" />
    <pattern
       id="EMFhbasepattern-24"
       patternUnits="userSpaceOnUse"
       width="6"
       height="6"
       x="0"
       y="0" />
    <pattern
       id="EMFhbasepattern-023"
       patternUnits="userSpaceOnUse"
       width="6"
       height="6"
       x="0"
       y="0" />
    <pattern
       id="EMFhbasepattern-80"
       patternUnits="userSpaceOnUse"
       width="6"
       height="6"
       x="0"
       y="0" />
    <pattern
       id="EMFhbasepattern-043"
       patternUnits="userSpaceOnUse"
       width="6"
       height="6"
       x="0"
       y="0" />
    <pattern
       id="EMFhbasepattern-37"
       patternUnits="userSpaceOnUse"
       width="6"
       height="6"
       x="0"
       y="0" />
    <pattern
       id="EMFhbasepattern-800"
       patternUnits="userSpaceOnUse"
       width="6"
       height="6"
       x="0"
       y="0" />
    <pattern
       id="EMFhbasepattern-96"
       patternUnits="userSpaceOnUse"
       width="6"
       height="6"
       x="0"
       y="0" />
    <pattern
       id="EMFhbasepattern-15"
       patternUnits="userSpaceOnUse"
       width="6"
       height="6"
       x="0"
       y="0" />
    <pattern
       id="EMFhbasepattern-809"
       patternUnits="userSpaceOnUse"
       width="6"
       height="6"
       x="0"
       y="0" />
    <pattern
       id="EMFhbasepattern-058"
       patternUnits="userSpaceOnUse"
       width="6"
       height="6"
       x="0"
       y="0" />
    <pattern
       id="EMFhbasepattern-82"
       patternUnits="userSpaceOnUse"
       width="6"
       height="6"
       x="0"
       y="0" />
    <pattern
       id="EMFhbasepattern-059"
       patternUnits="userSpaceOnUse"
       width="6"
       height="6"
       x="0"
       y="0" />
  </defs>
  <sodipodi:namedview
     id="namedview2456"
     pagecolor="#ffffff"
     bordercolor="#000000"
     borderopacity="0.25"
     inkscape:showpageshadow="2"
     inkscape:pageopacity="0.0"
     inkscape:pagecheckerboard="0"
     inkscape:deskcolor="#d1d1d1"
     showgrid="false"
     inkscape:zoom="0.2827476"
     inkscape:cx="2005.3221"
     inkscape:cy="341.29379"
     inkscape:window-width="1920"
     inkscape:window-height="1051"
     inkscape:window-x="-9"
     inkscape:window-y="-9"
     inkscape:window-maximized="1"
     inkscape:current-layer="g2460" />
  <g
     inkscape:groupmode="layer"
     inkscape:label="Image"
     id="g2460">
    <path
       style="fill:none;stroke:#64648a;stroke-width:0.638201px;stroke-linecap:butt;stroke-linejoin:miter;stroke-miterlimit:4;stroke-dasharray:none;stroke-opacity:1"
       d="m 30.256701,200.47891 c -1.026732,-2.91967 -2.566829,-8.1243 -4.620297,-9.52067 -1.925125,-1.77718 -4.10693,0.25389 -6.545423,4.82381 -3.080198,4.69686 -3.080198,7.2357 -1.668439,7.99736 1.283415,0.88859 4.106932,0 6.032057,1.65024 3.721904,2.15802 11.4224,4.31604 6.67376,9.39373 -2.310146,0.88859 -4.363611,3.42744 -6.545419,4.8238 -2.31015,1.77719 -4.876983,-1.5233 -6.673763,-5.07769"
       id="path14605" />
    <path
       style="fill:none;stroke:#64648a;stroke-width:0.638201px;stroke-linecap:butt;stroke-linejoin:miter;stroke-miterlimit:4;stroke-dasharray:none;stroke-opacity:1"
       d="m 40.395691,195.0204 c 0.898391,0.38082 2.181804,6.98182 2.438489,11.42479 0.385024,4.95075 1.155077,7.36265 1.668443,14.97918"
       id="path14607" />
    <path
       style="fill:none;stroke:#64648a;stroke-width:0.638201px;stroke-linecap:butt;stroke-linejoin:miter;stroke-miterlimit:4;stroke-dasharray:none;stroke-opacity:1"
       d="m 37.82886,208.8571 c 1.668437,-2.28497 10.652351,4.44297 10.267327,3.42743"
       id="path14609" />
    <path
       style="fill:none;stroke:#64648a;stroke-width:0.638201px;stroke-linecap:butt;stroke-linejoin:miter;stroke-miterlimit:4;stroke-dasharray:none;stroke-opacity:1"
       d="m 67.860797,200.22502 c -2.438489,-3.17355 -8.342206,-5.33157 -10.909039,-1.14247 -2.951855,2.66578 -5.775372,7.87041 -4.74864,10.79008 1.283413,6.72794 6.802106,10.91703 9.882306,6.09323 2.823517,-1.52331 6.032053,-15.10612 5.775373,-15.74084 z"
       id="path14611" />
    <path
       style="fill:none;stroke:#64648a;stroke-width:0.638201px;stroke-linecap:butt;stroke-linejoin:miter;stroke-miterlimit:4;stroke-dasharray:none;stroke-opacity:1"
       d="m 67.860797,200.22502 c -0.128343,6.47406 -0.128343,12.05951 0,18.78745"
       id="path14613" />
    <path
       style="fill:none;stroke:#64648a;stroke-width:0.638201px;stroke-linecap:butt;stroke-linejoin:miter;stroke-miterlimit:4;stroke-dasharray:none;stroke-opacity:1"
       d="m 75.817978,196.79759 c 1.79678,6.72793 2.69517,11.55174 3.336879,21.58017 -0.385024,-5.33157 -0.128338,-9.0129 -0.385024,-12.82116 5.647036,-3.17356 9.368938,-0.38083 15.272654,-6.47405"
       id="path14615" />
    <path
       style="fill:none;stroke:#64648a;stroke-width:0.638201px;stroke-linecap:butt;stroke-linejoin:miter;stroke-miterlimit:4;stroke-dasharray:none;stroke-opacity:1"
       d="m 79.668224,206.31825 c -0.641705,-1.14248 4.620296,-0.76165 8.213867,3.17355 1.925123,3.3005 5.903711,8.12431 6.032053,10.79009"
       id="path14617" />
    <path
       style="fill:none;stroke:#64648a;stroke-width:0.638201px;stroke-linecap:butt;stroke-linejoin:miter;stroke-miterlimit:4;stroke-dasharray:none;stroke-opacity:1"
       d="m 114.83383,221.17049 c -5.00533,2.15802 -7.18713,3.9352 -9.36894,4.69686 -2.05346,0.63471 -4.36362,0.38082 -5.39035,-2.91968 -2.310151,-4.44297 -3.593564,-6.09322 -0.385022,-12.44032 3.465222,-5.58547 7.315472,-9.26679 11.037382,-11.17092 3.59356,-0.63471 5.39035,-0.12694 2.18181,5.33157 -3.33689,5.33157 -6.03207,5.20463 -8.47055,5.45851 -2.4385,0 -4.748642,0.25389 -4.748642,0.38084"
       id="path14619" />
    <path
       style="fill:none;stroke:#64648a;stroke-width:0.638201px;stroke-linecap:butt;stroke-linejoin:miter;stroke-miterlimit:4;stroke-dasharray:none;stroke-opacity:1"
       d="m 153.72134,203.65247 c 0.25667,-2.79273 -1.02674,-2.79273 -3.08021,-4.44298 -1.92512,-1.39637 -5.262,-2.4119 -6.93044,0.50776 -1.5401,2.91968 -4.36362,7.99736 -5.51869,13.07505 -0.89839,5.45852 0.25668,6.22017 3.46523,12.82116 3.59356,4.69686 5.77536,1.65025 7.05878,0.38083 1.41176,-1.52331 2.56683,-2.4119 2.4385,-2.91967"
       id="path14621" />
    <path
       style="fill:none;stroke:#64648a;stroke-width:0.638201px;stroke-linecap:butt;stroke-linejoin:miter;stroke-miterlimit:4;stroke-dasharray:none;stroke-opacity:1"
       d="m 173.10092,204.79495 c 0.38502,-2.15802 -1.41176,-2.91968 -4.49197,-3.3005 -3.33687,0 -6.28873,2.79273 -9.24059,7.48958 -3.08019,5.0777 -2.95185,7.87042 -2.05346,10.02844 0.89839,1.90413 2.56684,5.7124 4.10693,5.58546 1.15508,-2.03108 3.0802,-4.31604 5.64703,-7.99736 2.56683,-3.55438 5.77537,-8.63207 6.03206,-11.80562 z"
       id="path14623" />
    <path
       style="fill:none;stroke:#64648a;stroke-width:0.638201px;stroke-linecap:butt;stroke-linejoin:miter;stroke-miterlimit:4;stroke-dasharray:none;stroke-opacity:1"
       d="m 173.10092,204.79495 c -0.51337,7.61653 -1.92513,14.34446 -1.66845,21.83405"
       id="path14625" />
    <path
       style="fill:none;stroke:#64648a;stroke-width:0.638201px;stroke-linecap:butt;stroke-linejoin:miter;stroke-miterlimit:4;stroke-dasharray:none;stroke-opacity:1"
       d="m 188.7586,198.9556 c -3.9786,-0.38082 -7.7005,6.09323 -10.7807,8.25125 -3.46522,3.55438 -4.36362,6.85488 -0.38503,5.20463 3.9786,-0.50777 6.41709,1.90413 9.36894,2.4119 2.69517,0.88859 5.64703,-0.12694 4.36362,3.55438 -1.02673,3.80826 -3.7219,6.09322 -5.64703,8.63207 -0.8984,1.14247 -2.18181,2.66578 -3.72191,1.77719 -1.5401,-0.63472 -3.46522,-3.80827 -5.13366,-7.48959"
       id="path14627" />
    <path
       style="fill:none;stroke:#64648a;stroke-width:0.638201px;stroke-linecap:butt;stroke-linejoin:miter;stroke-miterlimit:4;stroke-dasharray:none;stroke-opacity:1"
       d="m 193.25055,201.74833 c 2.4385,6.85488 3.59357,12.05951 4.36362,24.49984 -0.25669,-0.76165 -0.38503,-11.17091 0.6417,-14.34446 1.02674,-4.44298 7.82884,-1.52331 10.01065,1.39636 2.43849,3.17356 1.28342,15.36 1.28342,15.23307"
       id="path14629" />
    <path
       style="fill:none;stroke:#64648a;stroke-width:0.638201px;stroke-linecap:butt;stroke-linejoin:miter;stroke-miterlimit:4;stroke-dasharray:none;stroke-opacity:1"
       d="m 241.25032,211.64982 c 1.92512,-5.33157 3.59355,-15.10612 -2.56683,-10.79008 -2.69518,2.53884 -5.90373,7.87041 -8.08554,13.07504 -0.89838,2.79273 -0.89838,5.07769 -0.38502,6.98182 0.51337,1.90414 1.66845,3.42744 3.59357,8.1243 2.95185,3.17356 5.00533,-0.38083 6.93045,-1.39636 1.79678,-1.39637 3.85025,-2.15802 3.85025,-2.4119"
       id="path14631" />
    <path
       style="fill:none;stroke:#64648a;stroke-width:0.638201px;stroke-linecap:butt;stroke-linejoin:miter;stroke-miterlimit:4;stroke-dasharray:none;stroke-opacity:1"
       d="m 248.56579,213.93478 c 4.87698,1.90414 4.23527,9.64761 7.57215,16.75637 -0.51337,0.12694 -1.66844,-5.07769 -2.56684,-9.39372 -1.02672,-4.56992 -1.92512,-7.99736 -2.31014,-9.39372 0,-1.65025 1.41176,-3.3005 3.59357,-3.04661 2.05346,0.12693 4.6203,2.15801 6.54542,3.17355"
       id="path14633" />
    <path
       style="fill:none;stroke:#64648a;stroke-width:0.638201px;stroke-linecap:butt;stroke-linejoin:miter;stroke-miterlimit:4;stroke-dasharray:none;stroke-opacity:1"
       d="m 279.7528,230.5642 c -5.26201,1.7772 -7.95719,4.31605 -10.78069,0.63472 -2.18181,-3.04662 -3.85026,-6.09323 -3.33689,-8.25125 0.64171,-3.30049 3.46522,-7.2357 5.77537,-9.52066 2.31016,-3.17355 5.90371,-4.06215 8.21387,-3.93521 2.18181,0 2.43848,1.7772 1.28341,4.44298 -1.02673,2.53885 -3.46522,5.96628 -5.39035,5.83934 -3.85024,-0.38083 -7.82883,-1.65024 -8.08552,-1.14248"
       id="path14635" />
    <path
       style="fill:none;stroke:#64648a;stroke-width:0.638201px;stroke-linecap:butt;stroke-linejoin:miter;stroke-miterlimit:4;stroke-dasharray:none;stroke-opacity:1"
       d="m 301.18585,199.71725 c 0.25668,-0.50776 -1.02674,9.64761 -2.05347,18.15274 -1.02674,8.75901 -1.92513,15.99471 -1.66844,15.86778 -0.77004,-0.12695 0.25668,-4.1891 0.25668,-7.4896 -0.12834,-3.3005 -1.41176,-5.83933 -5.90371,-7.10876 -4.36362,-1.01553 -7.31547,2.91967 -7.44381,5.45852 0,2.15801 1.54009,5.33157 4.49195,8.88595 5.90371,0.12694 8.59889,-0.63471 8.59889,0.12694"
       id="path14637" />
    <path
       style="fill:none;stroke:#64648a;stroke-width:0.638201px;stroke-linecap:butt;stroke-linejoin:miter;stroke-miterlimit:4;stroke-dasharray:none;stroke-opacity:1"
       d="m 307.60292,208.47626 c 0,-0.6347 0.38503,3.55439 0.38503,3.93522"
       id="path14639" />
    <path
       style="fill:none;stroke:#64648a;stroke-width:0.638201px;stroke-linecap:butt;stroke-linejoin:miter;stroke-miterlimit:4;stroke-dasharray:none;stroke-opacity:1"
       d="m 307.60292,217.36222 c 0,6.34711 0,7.74347 0,9.13984 0,1.14248 0,5.83934 0,6.85488"
       id="path14641" />
    <path
       style="fill:none;stroke:#64648a;stroke-width:0.638201px;stroke-linecap:butt;stroke-linejoin:miter;stroke-miterlimit:4;stroke-dasharray:none;stroke-opacity:1"
       d="m 319.66705,208.22238 c 1.15507,0.38083 2.69517,7.48959 3.08019,12.31339 0.38502,5.33158 1.41176,7.99737 2.1818,16.12166"
       id="path14643" />
    <path
       style="fill:none;stroke:#64648a;stroke-width:0.638201px;stroke-linecap:butt;stroke-linejoin:miter;stroke-miterlimit:4;stroke-dasharray:none;stroke-opacity:1"
       d="m 316.33015,216.72751 c 0.12835,0.38083 2.56684,0.8886 4.6203,0.25388 2.69518,-0.12694 7.05879,-1.5233 6.80211,-0.38082"
       id="path14645" />
    <path
       style="fill:none;stroke:#64648a;stroke-width:0.638201px;stroke-linecap:butt;stroke-linejoin:miter;stroke-miterlimit:4;stroke-dasharray:none;stroke-opacity:1"
       d="m 10.235411,235.38801 c 4.363616,-5.45851 9.240596,-3.93521 12.192454,-0.76165 2.695174,2.79272 3.721908,3.04661 2.951858,4.8238 -1.796783,3.04662 -6.802107,2.79272 -6.802107,2.79272 0.256685,-0.12693 1.925124,1.26943 4.235273,2.15803 2.181809,1.01553 5.262008,1.39636 4.876983,4.18909 -0.513369,3.30049 -2.053468,4.69686 -3.850248,6.3471 -1.5401,1.26943 -4.235273,3.42745 -8.470547,-1.14248"
       id="path14647" />
    <path
       style="fill:none;stroke:#64648a;stroke-width:0.638201px;stroke-linecap:butt;stroke-linejoin:miter;stroke-miterlimit:4;stroke-dasharray:none;stroke-opacity:1"
       d="m 48.481211,231.96057 c -3.336878,-1.65025 -6.417077,0.50777 -8.983914,2.15802 -2.695175,1.90413 -4.748635,3.42744 -7.058787,4.8238 -4.491957,4.69686 -3.208541,4.69686 1.283413,9.52066 5.39035,3.17356 6.802112,-2.66578 10.39567,-5.20463 3.593571,-4.06215 5.13367,-8.63206 4.363618,-11.29785 z"
       id="path14649" />
    <path
       style="fill:none;stroke:#64648a;stroke-width:0.638201px;stroke-linecap:butt;stroke-linejoin:miter;stroke-miterlimit:4;stroke-dasharray:none;stroke-opacity:1"
       d="m 47.197798,232.08752 c 0.385023,1.01553 3.080198,6.85487 3.978588,11.29785 1.668442,4.06215 1.411756,11.67868 -1.79678,12.56727 -2.95186,1.52331 -4.748641,3.80827 -6.545426,2.03107 -1.540098,-1.5233 -2.438489,-3.68132 -2.438489,-3.30049"
       id="path14651" />
    <path
       style="fill:none;stroke:#64648a;stroke-width:0.638201px;stroke-linecap:butt;stroke-linejoin:miter;stroke-miterlimit:4;stroke-dasharray:none;stroke-opacity:1"
       d="m 67.860797,237.03826 c 0.128343,-1.39636 -9.882306,-4.06215 -10.138992,-1.65025 -0.641703,0.50777 2.310154,11.67868 1.925128,11.80562 -0.25668,0.12694 4.106933,-5.83934 8.72723,-2.03107 2.053466,1.39636 5.005326,3.30049 5.775374,5.7124 1.026732,2.15801 -0.256686,4.8238 -2.951861,4.56992 -2.695169,0.12694 -5.647025,1.65024 -8.213862,-0.25389 -2.438489,-1.77719 -3.97859,-3.80827 -3.97859,-3.42744"
       id="path14653" />
    <path
       style="fill:none;stroke:#64648a;stroke-width:0.638201px;stroke-linecap:butt;stroke-linejoin:miter;stroke-miterlimit:4;stroke-dasharray:none;stroke-opacity:1"
       d="m 78.256467,236.91132 c -0.25668,-1.26942 1.411757,2.79272 1.925128,8.37818 0.385023,5.20463 1.411751,10.40926 1.283413,11.55173"
       id="path14655" />
    <path
       style="fill:none;stroke:#64648a;stroke-width:0.638201px;stroke-linecap:butt;stroke-linejoin:miter;stroke-miterlimit:4;stroke-dasharray:none;stroke-opacity:1"
       d="m 118.81242,238.81545 c -2.05347,-0.12694 -12.06411,-3.17355 -16.68441,1.26942 -2.31015,1.39637 -5.133667,3.3005 -5.262011,4.31604 -0.128337,1.01553 2.310152,1.14248 6.545431,1.14248 12.70582,7.87041 16.55606,-2.53885 14.37425,5.58545 -3.20854,6.47405 -5.77537,12.82116 -12.06411,5.07769"
       id="path14657" />
    <path
       style="fill:none;stroke:#64648a;stroke-width:0.638201px;stroke-linecap:butt;stroke-linejoin:miter;stroke-miterlimit:4;stroke-dasharray:none;stroke-opacity:1"
       d="m 122.66267,241.48124 c 1.41175,6.3471 3.72191,16.50247 5.90371,16.62942 0.51337,-2.4119 3.20854,-5.45851 4.62029,-9.26678 1.54011,-3.55438 1.79679,-7.61653 1.41176,-8.25124 0.38503,0.25388 0.8984,6.98182 -0.64171,11.04397 -1.79677,3.93521 0.51337,11.29786 2.31015,9.52067 0.89839,-1.90414 2.69518,-6.09323 5.90372,-10.28232 2.69517,-4.8238 4.36362,-9.52067 4.49195,-9.90149"
       id="path14659" />
    <path
       style="fill:none;stroke:#64648a;stroke-width:0.638201px;stroke-linecap:butt;stroke-linejoin:miter;stroke-miterlimit:4;stroke-dasharray:none;stroke-opacity:1"
       d="m 170.91911,237.67297 c -0.25668,-0.63471 -0.89839,2.03107 -1.79678,3.93521 -1.02674,2.15801 -2.31015,3.80826 -3.33688,6.22016 -1.28342,2.66579 -1.66845,5.33157 -1.41176,7.10876 0.38503,2.03108 1.41176,2.91968 3.46522,6.09322 3.97859,0.25389 5.77537,-1.5233 6.80211,-4.56991 0.89838,-3.17355 -1.15508,-5.58545 -4.10693,-5.83934 -5.64704,-2.28496 -6.28874,2.91967 -6.1604,2.03108"
       id="path14661" />
    <path
       style="fill:none;stroke:#64648a;stroke-width:0.638201px;stroke-linecap:butt;stroke-linejoin:miter;stroke-miterlimit:4;stroke-dasharray:none;stroke-opacity:1"
       d="m 184.78,241.48124 c -3.0802,3.04661 -5.9037,6.47405 -6.93044,9.77454 -0.77005,3.42744 0.38502,3.68132 2.82352,8.25124 3.0802,2.91967 4.10692,0.76166 5.39034,-1.52331 1.28342,-2.41189 2.56683,-4.8238 4.10694,-7.61653 1.28341,-3.17355 1.92512,-6.3471 1.15507,-7.61652 -0.51337,-1.39637 -2.69518,-2.15802 -6.54543,-1.26942 z"
       id="path14663" />
    <path
       style="fill:none;stroke:#64648a;stroke-width:0.638201px;stroke-linecap:butt;stroke-linejoin:miter;stroke-miterlimit:4;stroke-dasharray:none;stroke-opacity:1"
       d="m 196.07407,240.08487 c 0.25667,-1.39636 1.28341,10.02843 1.28341,10.5362"
       id="path14665" />
    <path
       style="fill:none;stroke:#64648a;stroke-width:0.638201px;stroke-linecap:butt;stroke-linejoin:miter;stroke-miterlimit:4;stroke-dasharray:none;stroke-opacity:1"
       d="m 194.79065,241.86206 c 1.28342,0.76165 3.85025,-1.39637 6.28873,-1.01554"
       id="path14667" />
    <path
       style="fill:none;stroke:#64648a;stroke-width:0.638201px;stroke-linecap:butt;stroke-linejoin:miter;stroke-miterlimit:4;stroke-dasharray:none;stroke-opacity:1"
       d="m 203.51788,238.68851 c 1.15507,2.79273 1.5401,5.07768 1.92512,11.04397 -0.12834,-0.63471 -0.25668,-6.22017 1.66844,-7.4896 1.66845,-1.90413 2.4385,6.34712 2.31015,7.23571"
       id="path14669" />
    <path
       style="fill:none;stroke:#64648a;stroke-width:0.638201px;stroke-linecap:butt;stroke-linejoin:miter;stroke-miterlimit:4;stroke-dasharray:none;stroke-opacity:1"
       d="m 242.79042,245.16256 c 3.08019,-3.17356 6.93044,-3.04661 10.52401,-1.65025 3.46522,1.26942 6.54542,4.06215 9.62561,2.15801 -3.08019,1.14248 -5.51868,-0.12693 -8.72722,-1.65024 1.15507,9.77454 -2.95186,12.31339 -0.51337,22.34182"
       id="path14671" />
    <path
       style="fill:none;stroke:#64648a;stroke-width:0.638201px;stroke-linecap:butt;stroke-linejoin:miter;stroke-miterlimit:4;stroke-dasharray:none;stroke-opacity:1"
       d="m 282.70466,262.80752 c -4.62029,2.28496 -6.54543,3.3005 -8.59889,4.44298 -1.92513,0.88859 -3.97859,1.90413 -5.39035,0.12694 -2.56683,-2.53884 -4.49195,-4.56992 -2.95186,-7.48959 2.05346,-4.56992 3.97859,-7.2357 5.90372,-9.77455 2.05347,-2.03107 4.10693,-3.80826 6.54542,0.25388 1.79679,2.15802 0,4.82381 -2.43849,5.7124 -2.56683,1.14248 -5.64703,0.63472 -8.98391,1.65025"
       id="path14673" />
    <path
       style="fill:none;stroke:#64648a;stroke-width:0.638201px;stroke-linecap:butt;stroke-linejoin:miter;stroke-miterlimit:4;stroke-dasharray:none;stroke-opacity:1"
       d="m 281.03621,251.63661 c -0.12834,-0.63471 3.0802,1.65025 4.23527,4.95074 0.77005,2.79273 2.4385,9.26678 2.69518,9.01289 -0.25668,-0.12694 -1.02673,-4.06214 -1.5401,-7.23569 -0.38503,-3.42745 -0.51337,-6.22017 -0.89839,-8.37819 -0.12833,-2.53884 3.46522,-2.15802 6.1604,-0.50777 2.56684,1.65025 4.62029,1.77719 4.74864,1.65025"
       id="path14675" />
    <path
       style="fill:none;stroke:#64648a;stroke-width:0.638201px;stroke-linecap:butt;stroke-linejoin:miter;stroke-miterlimit:4;stroke-dasharray:none;stroke-opacity:1"
       d="m 300.28745,253.15991 c 3.72192,1.90414 3.46523,7.10877 5.64704,13.70976 -0.8984,-1.39637 -1.5401,-14.09058 -2.43849,-15.36001 -0.38503,-2.91966 5.90371,-2.28496 8.08551,0.12695"
       id="path14677" />
    <path
       style="fill:none;stroke:#64648a;stroke-width:0.638201px;stroke-linecap:butt;stroke-linejoin:miter;stroke-miterlimit:4;stroke-dasharray:none;stroke-opacity:1"
       d="m 331.73115,250.87496 c -0.12834,0.12694 -2.43849,-1.26943 -5.26201,-1.01554 -2.95185,0.38083 -5.51869,2.28496 -6.80209,4.18909 -3.08021,5.07768 -3.85026,9.90149 -0.8984,13.20199 1.79678,2.53884 3.33688,-2.91967 6.16039,-5.58546 2.95186,-2.66578 6.41709,-7.87042 6.80211,-10.79008 z"
       id="path14679" />
    <path
       style="fill:none;stroke:#64648a;stroke-width:0.638201px;stroke-linecap:butt;stroke-linejoin:miter;stroke-miterlimit:4;stroke-dasharray:none;stroke-opacity:1"
       d="m 331.60281,251.25578 c -0.25668,5.58545 -1.28341,10.66315 -1.41176,15.99472"
       id="path14681" />
    <path
       style="fill:none;stroke:#64648a;stroke-width:0.638201px;stroke-linecap:butt;stroke-linejoin:miter;stroke-miterlimit:4;stroke-dasharray:none;stroke-opacity:1"
       d="m 346.61878,252.65215 c 0.6417,-3.04662 1.41175,-5.58546 -3.9786,-2.03108 -2.31014,1.65025 -4.74863,4.06215 -6.16039,6.72794 -1.15508,3.17355 -0.12834,3.04661 2.18181,7.48959 5.262,6.60099 7.05878,-1.90413 7.82884,-1.14249"
       id="path14683" />
    <path
       style="fill:none;stroke:#64648a;stroke-width:0.638201px;stroke-linecap:butt;stroke-linejoin:miter;stroke-miterlimit:4;stroke-dasharray:none;stroke-opacity:1"
       d="m 364.97163,265.34636 c -5.64703,6.09323 -8.59889,2.53885 -10.13899,-0.50776 -1.41176,-2.79273 -1.79678,-5.07769 -1.02673,-6.72794 0.8984,-2.15802 2.95185,-3.93521 5.262,-5.96628 2.18181,-1.7772 4.6203,-3.93521 7.05879,-2.03108 4.23527,0.63471 1.02674,9.13984 -3.33687,8.88596 -3.59358,-1.01555 -7.82885,-2.66579 -8.21388,-2.15803"
       id="path14685" />
    <path
       style="fill:none;stroke:#64648a;stroke-width:0.638201px;stroke-linecap:butt;stroke-linejoin:miter;stroke-miterlimit:4;stroke-dasharray:none;stroke-opacity:1"
       d="m 13.443953,291.49645 c -0.513369,-6.34711 -1.155075,-10.66314 -2.438493,-15.48694 0.385024,-0.25389 4.363617,-5.96629 9.49728,-5.33157 5.390348,2.28496 9.368939,1.77718 8.470548,7.74347 -1.283416,6.72793 -2.695175,11.04397 -4.620299,12.82115 -2.053465,0.76166 -4.491958,7.61654 -10.909036,0.25389 z"
       id="path14687" />
    <path
       style="fill:none;stroke:#64648a;stroke-width:0.638201px;stroke-linecap:butt;stroke-linejoin:miter;stroke-miterlimit:4;stroke-dasharray:none;stroke-opacity:1"
       d="m 42.962524,277.78669 c -7.058792,-2.79272 -10.13899,3.04662 -12.577479,5.83935 -2.053467,4.56991 -0.385024,5.45851 2.438489,8.63207 3.080198,0.50776 4.363616,-3.42745 6.802105,-6.34711 2.181809,-3.55439 3.208541,-8.12431 3.336885,-8.12431 z"
       id="path14689" />
    <path
       style="fill:none;stroke:#64648a;stroke-width:0.638201px;stroke-linecap:butt;stroke-linejoin:miter;stroke-miterlimit:4;stroke-dasharray:none;stroke-opacity:1"
       d="m 42.962524,277.78669 c -0.128344,5.83935 -0.385029,10.66314 -0.385029,16.50249"
       id="path14691" />
    <path
       style="fill:none;stroke:#64648a;stroke-width:0.638201px;stroke-linecap:butt;stroke-linejoin:miter;stroke-miterlimit:4;stroke-dasharray:none;stroke-opacity:1"
       d="m 46.299402,278.29447 c 0.256686,0.6347 1.925128,9.26678 4.74864,15.74083 1.796786,-6.22017 4.620298,-7.10877 6.417083,-11.29786 1.668442,-3.80827 2.310153,-6.85487 2.310153,-6.60099"
       id="path14693" />
    <path
       style="fill:none;stroke:#64648a;stroke-width:0.638201px;stroke-linecap:butt;stroke-linejoin:miter;stroke-miterlimit:4;stroke-dasharray:none;stroke-opacity:1"
       d="m 66.705727,272.20124 c 0.641703,0.38083 0.641703,1.52331 1.026727,2.28496"
       id="path14695" />
    <path
       style="fill:none;stroke:#64648a;stroke-width:0.638201px;stroke-linecap:butt;stroke-linejoin:miter;stroke-miterlimit:4;stroke-dasharray:none;stroke-opacity:1"
       d="m 66.962408,277.53281 c -0.128344,5.7124 -0.38503,6.98182 -0.513368,8.37819 -0.128342,1.01553 -0.256686,5.33156 -0.385023,6.22016"
       id="path14697" />
    <path
       style="fill:none;stroke:#64648a;stroke-width:0.638201px;stroke-linecap:butt;stroke-linejoin:miter;stroke-miterlimit:4;stroke-dasharray:none;stroke-opacity:1"
       d="m 89.67887,293.40059 c -5.262001,2.41189 -10.267327,0.76165 -12.705821,-2.15803 -2.181803,-2.28495 -4.235269,-3.93521 -1.155071,-7.36264 3.208541,-4.06215 6.802106,-6.60099 11.165717,-6.72793 3.850251,0.6347 6.03206,1.01553 4.106937,2.53884 -4.363617,4.31603 -9.88231,3.17355 -15.272654,4.18909"
       id="path14699" />
    <path
       style="fill:none;stroke:#64648a;stroke-width:0.638201px;stroke-linecap:butt;stroke-linejoin:miter;stroke-miterlimit:4;stroke-dasharray:none;stroke-opacity:1"
       d="m 101.99966,296.4472 c -2.053457,3.80826 -3.721899,5.07769 -4.620294,7.10876"
       id="path14701" />
    <path
       style="fill:none;stroke:#64648a;stroke-width:0.638201px;stroke-linecap:butt;stroke-linejoin:miter;stroke-miterlimit:4;stroke-dasharray:none;stroke-opacity:1"
       d="m 115.86056,292.13116 c -0.64171,-9.26678 -0.77005,-13.58281 -2.31015,-19.80297 4.49196,-6.09323 10.01065,2.15801 14.11757,-1.52331"
       id="path14703" />
    <path
       style="fill:none;stroke:#64648a;stroke-width:0.638201px;stroke-linecap:butt;stroke-linejoin:miter;stroke-miterlimit:4;stroke-dasharray:none;stroke-opacity:1"
       d="m 115.09051,281.34108 c 1.92513,-0.50777 3.33688,0 4.74865,0.63471"
       id="path14705" />
    <path
       style="fill:none;stroke:#64648a;stroke-width:0.638201px;stroke-linecap:butt;stroke-linejoin:miter;stroke-miterlimit:4;stroke-dasharray:none;stroke-opacity:1"
       d="m 130.87653,271.31265 c 0.25668,7.2357 0.25668,13.70975 0.51336,19.16827 4.87698,6.09322 8.85558,0.50776 13.8609,2.53883"
       id="path14707" />
    <path
       style="fill:none;stroke:#64648a;stroke-width:0.638201px;stroke-linecap:butt;stroke-linejoin:miter;stroke-miterlimit:4;stroke-dasharray:none;stroke-opacity:1"
       d="m 167.06886,278.29447 c 5.26201,-5.45852 8.21387,-6.09323 10.65235,-3.55439 1.92513,2.15803 1.54011,4.31604 -0.12834,6.34712 -3.33687,3.04661 -5.90371,2.15801 -6.1604,2.28495 0.64172,-0.76165 3.20855,0.50777 6.67376,1.14248 3.20855,0.76166 7.44383,0.88859 6.03207,3.9352 -1.5401,2.28497 -4.74864,4.06216 -7.05879,4.95076 -2.43849,1.14247 -5.39035,0 -5.26201,-0.38084"
       id="path14709" />
    <path
       style="fill:none;stroke:#64648a;stroke-width:0.638201px;stroke-linecap:butt;stroke-linejoin:miter;stroke-miterlimit:4;stroke-dasharray:none;stroke-opacity:1"
       d="m 187.34684,278.80223 c 3.59356,-4.95074 10.52401,-4.8238 14.50261,-0.50776 3.20853,3.30049 3.20853,5.33157 -1.92513,6.85487 -9.2406,1.52331 -8.98392,-0.50777 -8.98392,-0.76165 1.28342,-1.26942 5.00532,0.50777 9.75396,1.26942 4.23528,1.14248 9.49728,1.26942 5.77538,4.95075 -6.03206,5.96628 -10.39567,6.22016 -11.4224,4.8238"
       id="path14711" />
    <path
       style="fill:none;stroke:#64648a;stroke-width:0.638201px;stroke-linecap:butt;stroke-linejoin:miter;stroke-miterlimit:4;stroke-dasharray:none;stroke-opacity:1"
       d="m 210.9617,281.0872 c 2.31015,-3.93521 5.90371,-5.07769 9.11225,-2.41191 2.69518,2.66579 3.33689,4.8238 1.02673,6.85488 -4.36362,2.91966 -7.44381,2.15802 -7.7005,2.4119 0.25669,-0.76165 2.69519,-0.76165 5.51869,-0.8886 2.82352,0.12695 6.03206,0 6.41709,2.79273 -0.25669,3.55439 -3.0802,4.69686 -4.87698,5.45852 -1.79679,0.8886 -3.72192,1.90413 -3.85026,1.26942"
       id="path14713" />
    <path
       style="fill:none;stroke:#64648a;stroke-width:0.638201px;stroke-linecap:butt;stroke-linejoin:miter;stroke-miterlimit:4;stroke-dasharray:none;stroke-opacity:1"
       d="m 235.73162,280.1986 c 0.64171,0.12694 1.54011,3.68132 1.66844,6.09322 0.25669,2.66579 0.89839,4.06215 1.28343,8.1243"
       id="path14715" />
    <path
       style="fill:none;stroke:#64648a;stroke-width:0.638201px;stroke-linecap:butt;stroke-linejoin:miter;stroke-miterlimit:4;stroke-dasharray:none;stroke-opacity:1"
       d="m 245.99896,278.80223 c 0.38502,3.17356 0.89838,6.34711 1.15507,9.52067 2.82351,-1.14248 4.36362,0.76165 7.44381,-0.76165 0.12835,-2.53885 0.25669,-5.20464 0.51337,-8.1243 0,6.09322 0.25668,10.91702 0.25668,17.7719"
       id="path14717" />
    <path
       style="fill:none;stroke:#64648a;stroke-width:0.638201px;stroke-linecap:butt;stroke-linejoin:miter;stroke-miterlimit:4;stroke-dasharray:none;stroke-opacity:1"
       d="m 152.43791,358.64887 c 2.4385,-9.64761 -0.77004,-14.34447 -7.57215,-11.55175 -6.8021,3.80827 -9.36893,9.77456 -2.56683,12.94811 7.05879,4.31603 14.63094,9.39372 17.58281,13.58281 2.95185,3.80827 2.05345,15.48695 -6.41709,15.61389 -8.85556,-1.5233 -16.29939,-8.63207 -12.70582,-15.48694"
       id="path14719" />
    <path
       style="fill:none;stroke:#64648a;stroke-width:0.638201px;stroke-linecap:butt;stroke-linejoin:miter;stroke-miterlimit:4;stroke-dasharray:none;stroke-opacity:1"
       d="m 164.117,363.47267 c -2.31014,6.47405 -0.12834,20.56463 2.82352,22.72265 3.0802,1.39636 5.51869,-13.32893 5.51869,-20.81852 4.10693,17.77191 7.57216,21.83406 10.26733,17.01025 1.28342,-2.15801 0.64171,-7.2357 -0.64172,-12.82115 -1.15506,-5.45852 -3.08019,-11.42481 -3.08019,-11.29786"
       id="path14721" />
    <path
       style="fill:none;stroke:#64648a;stroke-width:0.638201px;stroke-linecap:butt;stroke-linejoin:miter;stroke-miterlimit:4;stroke-dasharray:none;stroke-opacity:1"
       d="m 187.8602,374.64358 c 3.7219,-1.52331 13.98925,-4.95074 9.49728,-8.88596 -4.87698,-4.69685 -12.3208,4.82381 -9.11225,11.04398 1.41175,4.18909 4.36361,7.10876 6.80211,7.48958 2.43849,0.63472 4.36361,-1.14247 4.36361,-1.14247"
       id="path14723" />
    <path
       style="fill:none;stroke:#64648a;stroke-width:0.638201px;stroke-linecap:butt;stroke-linejoin:miter;stroke-miterlimit:4;stroke-dasharray:none;stroke-opacity:1"
       d="m 202.23447,375.78606 c 3.7219,0.63471 10.26732,-2.79273 8.34219,-6.85488 -1.92512,-4.69686 -4.49195,-3.30049 -6.93044,1.01554 -1.15508,2.66579 -1.92512,5.07769 -1.15508,8.63207 0.77005,3.17355 2.95186,7.48959 7.95718,5.58545"
       id="path14725" />
    <path
       style="fill:none;stroke:#64648a;stroke-width:0.638201px;stroke-linecap:butt;stroke-linejoin:miter;stroke-miterlimit:4;stroke-dasharray:none;stroke-opacity:1"
       d="m 221.99907,388.35334 c -1.79678,-7.48959 -3.85025,-14.34447 -5.77537,-19.16827 0,-0.25389 -0.64171,0 0.25669,-0.8886 0.89838,-0.76165 3.33688,-2.79273 10.01064,-2.4119 12.57748,3.93521 5.90371,10.40926 0.51337,11.55174 -5.77538,0.76165 -7.70051,0.38082 -7.70051,0.38082"
       id="path14727" />
    <path
       style="fill:none;stroke:#64648a;stroke-width:0.638201px;stroke-linecap:butt;stroke-linejoin:miter;stroke-miterlimit:4;stroke-dasharray:none;stroke-opacity:1"
       d="m 244.45885,366.01151 c 0.25668,-0.63471 2.05347,-10.28231 -2.56683,-7.10876 -4.62029,3.93521 -7.82883,7.48959 -2.69517,8.25124 5.64702,1.77719 16.29939,4.82381 12.19244,10.5362 -3.7219,7.23571 -8.21385,6.98183 -9.88229,3.80827 -1.5401,-2.91967 -4.62029,-9.77455 -4.62029,-9.52066"
       id="path14729" />
    <path
       style="fill:none;stroke:#64648a;stroke-width:0.638201px;stroke-linecap:butt;stroke-linejoin:miter;stroke-miterlimit:4;stroke-dasharray:none;stroke-opacity:1"
       d="m 255.36789,354.71366 c 1.5401,6.34711 3.20854,16.12166 4.49196,24.62678"
       id="path14731" />
    <path
       style="fill:none;stroke:#64648a;stroke-width:0.638201px;stroke-linecap:butt;stroke-linejoin:miter;stroke-miterlimit:4;stroke-dasharray:none;stroke-opacity:1"
       d="m 248.69413,365.12292 16.42772,-3.3005"
       id="path14733" />
    <path
       style="fill:none;stroke:#64648a;stroke-width:0.638201px;stroke-linecap:butt;stroke-linejoin:miter;stroke-miterlimit:4;stroke-dasharray:none;stroke-opacity:1"
       d="m 269.10044,355.85614 c -0.12833,-0.50777 8.98393,-4.69686 11.03738,1.65025 1.92512,5.7124 2.4385,17.64496 2.4385,17.7719 0.12834,1.01554 -4.87699,-10.79008 -10.26733,-11.17091 -5.13367,1.26942 -8.47056,7.61653 -3.33688,12.18645 5.13366,6.09322 13.73255,-0.76166 13.60421,-1.01554"
       id="path14735" />
    <path
       style="fill:none;stroke:#64648a;stroke-width:0.638201px;stroke-linecap:butt;stroke-linejoin:miter;stroke-miterlimit:4;stroke-dasharray:none;stroke-opacity:1"
       d="m 284.11641,353.69812 c 0.25669,0 1.41176,4.95075 2.56683,10.91702 1.02674,5.58546 2.05347,12.18646 2.05347,12.18646 -0.12835,-3.30049 -0.38502,-6.47406 -0.51337,-9.64761 -0.12834,0.12694 6.54542,-12.82116 6.67377,-12.69421"
       id="path14737" />
    <path
       style="fill:none;stroke:#64648a;stroke-width:0.638201px;stroke-linecap:butt;stroke-linejoin:miter;stroke-miterlimit:4;stroke-dasharray:none;stroke-opacity:1"
       d="m 288.73671,365.88457 c 2.82351,0.63471 5.64703,5.83934 7.7005,7.36265"
       id="path14739" />
    <path
       style="fill:none;stroke:#64648a;stroke-width:0.638201px;stroke-linecap:butt;stroke-linejoin:miter;stroke-miterlimit:4;stroke-dasharray:none;stroke-opacity:1"
       d="m 302.21258,363.09184 c 10.13899,2.15802 3.72191,-14.21752 0.64171,-6.09322 -2.56684,7.36264 -2.56684,13.58281 2.05346,14.85223 4.87698,-0.88859 4.36362,-5.7124 4.36362,-5.45851"
       id="path14741" />
    <path
       style="fill:none;stroke:#64648a;stroke-width:0.638201px;stroke-linecap:butt;stroke-linejoin:miter;stroke-miterlimit:4;stroke-dasharray:none;stroke-opacity:1"
       d="m 323.64563,359.28358 c -2.82351,-6.22017 -9.75396,-6.09323 -11.29406,-2.15802 -1.02673,0.88859 4.10693,1.14248 8.85557,3.42744 4.74864,2.03108 9.11226,5.83934 7.57215,8.1243 -2.56683,7.74347 -8.98391,6.47405 -10.90903,-1.01555"
       id="path14743" />
    <path
       style="fill:none;stroke:#64648a;stroke-width:0.638201px;stroke-linecap:butt;stroke-linejoin:miter;stroke-miterlimit:4;stroke-dasharray:none;stroke-opacity:1"
       d="m 376.65072,342.90803 c 1.41175,9.77456 2.82351,21.19935 4.10693,33.3858 3.33688,0 7.05878,-1.77719 10.13899,-4.06215"
       id="path14745" />
    <path
       style="fill:none;stroke:#64648a;stroke-width:0.638201px;stroke-linecap:butt;stroke-linejoin:miter;stroke-miterlimit:4;stroke-dasharray:none;stroke-opacity:1"
       d="m 391.28166,344.55829 1.92513,5.07768"
       id="path14747" />
    <path
       style="fill:none;stroke:#64648a;stroke-width:0.638201px;stroke-linecap:butt;stroke-linejoin:miter;stroke-miterlimit:4;stroke-dasharray:none;stroke-opacity:1"
       d="m 394.61854,356.49085 c 1.54008,5.7124 3.08018,14.59835 4.23526,22.21488"
       id="path14749" />
    <path
       style="fill:none;stroke:#64648a;stroke-width:0.638201px;stroke-linecap:butt;stroke-linejoin:miter;stroke-miterlimit:4;stroke-dasharray:none;stroke-opacity:1"
       d="m 399.88055,355.60226 c 2.18182,5.83934 4.10695,13.70975 5.9037,22.5957 0.12836,-0.63471 -4.10691,-12.05951 0.89842,-16.88331 5.26197,-5.71239 7.70049,10.28232 8.34217,14.7253 0.12837,0 -2.43848,-13.8367 1.41178,-18.40662 3.97858,-4.95074 8.34222,1.14248 10.13897,13.8367"
       id="path14751" />
    <path
       style="fill:none;stroke:#64648a;stroke-width:0.638201px;stroke-linecap:butt;stroke-linejoin:miter;stroke-miterlimit:4;stroke-dasharray:none;stroke-opacity:1"
       d="m 428.11569,346.84324 3.33689,4.56992"
       id="path14753" />
    <path
       style="fill:none;stroke:#64648a;stroke-width:0.638201px;stroke-linecap:butt;stroke-linejoin:miter;stroke-miterlimit:4;stroke-dasharray:none;stroke-opacity:1"
       d="m 431.70928,356.99862 c 1.41173,4.8238 2.95184,12.82116 4.10691,19.42215"
       id="path14755" />
    <path
       style="fill:none;stroke:#64648a;stroke-width:0.638201px;stroke-linecap:butt;stroke-linejoin:miter;stroke-miterlimit:4;stroke-dasharray:none;stroke-opacity:1"
       d="m 438.38303,347.09712 c 1.66842,7.23571 3.46522,18.27968 4.87699,27.80034"
       id="path14757" />
    <path
       style="fill:none;stroke:#64648a;stroke-width:0.638201px;stroke-linecap:butt;stroke-linejoin:miter;stroke-miterlimit:4;stroke-dasharray:none;stroke-opacity:1"
       d="m 436.58624,360.42606 11.16572,-3.3005"
       id="path14759" />
    <path
       style="fill:none;stroke:#64648a;stroke-width:0.638201px;stroke-linecap:butt;stroke-linejoin:miter;stroke-miterlimit:4;stroke-dasharray:none;stroke-opacity:1"
       d="m 453.52732,362.83796 c 5.13369,1.5233 7.82887,-6.98182 5.90375,-8.1243 -2.31015,-1.52331 -8.72724,9.26678 -7.44384,13.8367 0.2567,3.04661 2.56684,4.31603 4.877,3.42744 2.31014,-0.50777 4.49196,-3.42744 4.3636,-3.17356"
       id="path14761" />
    <path
       style="fill:none;stroke:#64648a;stroke-width:0.638201px;stroke-linecap:butt;stroke-linejoin:miter;stroke-miterlimit:4;stroke-dasharray:none;stroke-opacity:1"
       d="m 477.14221,346.33548 c 0.77005,8.50512 1.28341,16.75636 1.79676,24.24595 0.12837,0.76166 -3.20853,-15.74083 -9.49725,-12.69422 -5.90374,3.42744 -4.74867,10.28232 -0.38503,13.32893 4.6203,2.28497 9.36893,-3.04661 9.2406,-2.91967"
       id="path14763" />
    <path
       style="fill:none;stroke:#64648a;stroke-width:0.638201px;stroke-linecap:butt;stroke-linejoin:miter;stroke-miterlimit:4;stroke-dasharray:none;stroke-opacity:1"
       d="m 138.70536,401.04755 c -0.12834,-0.38082 1.41176,6.601 2.56684,14.7253 1.15507,7.99736 2.18181,17.01025 1.92512,16.50248"
       id="path14765" />
    <path
       style="fill:none;stroke:#64648a;stroke-width:0.638201px;stroke-linecap:butt;stroke-linejoin:miter;stroke-miterlimit:4;stroke-dasharray:none;stroke-opacity:1"
       d="m 150.12777,405.10971 c 1.79678,-4.06216 13.98923,-7.23571 7.18713,3.42744 -6.54542,10.79008 -8.98391,11.80562 -8.98391,11.80562 -0.51338,-0.12695 15.40099,-7.74348 15.78601,2.91967 0.51338,9.6476 -2.56683,19.67604 -6.28873,17.01025 -3.85026,-3.04661 -9.11226,-10.79008 -6.67376,-15.23307"
       id="path14767" />
    <path
       style="fill:none;stroke:#64648a;stroke-width:0.638201px;stroke-linecap:butt;stroke-linejoin:miter;stroke-miterlimit:4;stroke-dasharray:none;stroke-opacity:1"
       d="m 163.86032,403.33251 c 2.18181,8.25125 4.6203,21.07241 6.28874,31.98943"
       id="path14769" />
    <path
       style="fill:none;stroke:#64648a;stroke-width:0.638201px;stroke-linecap:butt;stroke-linejoin:miter;stroke-miterlimit:4;stroke-dasharray:none;stroke-opacity:1"
       d="m 178.36292,407.64855 c -3.97859,-4.95075 -7.95718,0.12694 -7.95718,5.20463 -0.12834,2.53884 0.77005,7.74347 2.18181,13.32892 1.54011,5.45852 3.59357,11.17092 6.03206,10.28233 4.74864,-2.41191 6.16039,-20.81853 -0.25669,-28.81588 z"
       id="path14771" />
    <path
       style="fill:none;stroke:#64648a;stroke-width:0.638201px;stroke-linecap:butt;stroke-linejoin:miter;stroke-miterlimit:4;stroke-dasharray:none;stroke-opacity:1"
       d="m 187.60353,401.1745 c 3.59355,7.10876 7.44381,20.94546 10.13898,30.84695"
       id="path14773" />
    <path
       style="fill:none;stroke:#64648a;stroke-width:0.638201px;stroke-linecap:butt;stroke-linejoin:miter;stroke-miterlimit:4;stroke-dasharray:none;stroke-opacity:1"
       d="m 241.25032,422.62773 c -1.66845,-8.63207 -3.33689,-16.62943 -5.13367,-22.72266 -0.25668,0.25389 3.59356,-3.42743 7.31548,-3.80826 3.7219,-0.76165 7.44381,1.77719 6.93045,5.33157 -0.51338,7.10877 -11.42242,10.91703 -11.29407,10.5362"
       id="path14775" />
    <path
       style="fill:none;stroke:#64648a;stroke-width:0.638201px;stroke-linecap:butt;stroke-linejoin:miter;stroke-miterlimit:4;stroke-dasharray:none;stroke-opacity:1"
       d="m 250.87594,408.79103 c 0.25668,-0.50777 3.97859,16.62943 4.23527,16.37554 0.51336,-1.01554 -3.85025,-15.10612 -2.56683,-17.1372 1.5401,-3.30049 5.262,-0.12693 5.13367,0.12695"
       id="path14777" />
    <path
       style="fill:none;stroke:#64648a;stroke-width:0.638201px;stroke-linecap:butt;stroke-linejoin:miter;stroke-miterlimit:4;stroke-dasharray:none;stroke-opacity:1"
       d="m 261.65664,415.77285 c 6.03205,-2.53884 11.67908,-2.66579 11.4224,-2.53884 0,0.38082 -1.41176,-6.72794 -7.31548,-6.22017 -5.77537,2.79273 -6.03205,16.50248 0.25668,20.18381 6.54542,1.65024 7.95718,-5.71241 7.95718,-5.20464"
       id="path14779" />
    <path
       style="fill:none;stroke:#64648a;stroke-width:0.638201px;stroke-linecap:butt;stroke-linejoin:miter;stroke-miterlimit:4;stroke-dasharray:none;stroke-opacity:1"
       d="m 287.32496,406.25219 c -2.82352,-3.68133 -5.00533,-5.20464 -7.31547,-2.15802 -2.18181,3.17355 -3.72191,7.74347 1.41175,7.87041 5.51869,0.38083 13.98923,2.28497 9.24059,7.74348 -2.1818,3.68132 -6.67376,6.09322 -10.13898,5.07768 -3.46522,-0.76165 -5.90372,-4.69686 -5.00533,-7.87041"
       id="path14781" />
    <path
       style="fill:none;stroke:#64648a;stroke-width:0.638201px;stroke-linecap:butt;stroke-linejoin:miter;stroke-miterlimit:4;stroke-dasharray:none;stroke-opacity:1"
       d="m 295.53881,397.74706 c 0,-0.38083 0.8984,5.45851 1.66844,12.31339 0.77006,6.72793 1.5401,14.47141 1.41177,14.21752"
       id="path14783" />
    <path
       style="fill:none;stroke:#64648a;stroke-width:0.638201px;stroke-linecap:butt;stroke-linejoin:miter;stroke-miterlimit:4;stroke-dasharray:none;stroke-opacity:1"
       d="m 291.1752,407.26772 c 3.72191,1.39637 8.85557,-4.56992 13.73255,-3.04661"
       id="path14785" />
    <path
       style="fill:none;stroke:#64648a;stroke-width:0.638201px;stroke-linecap:butt;stroke-linejoin:miter;stroke-miterlimit:4;stroke-dasharray:none;stroke-opacity:1"
       d="m 315.30343,403.45946 c -5.90372,-2.79273 -9.75396,1.5233 -8.5989,7.48959 1.02674,6.22016 3.9786,13.83669 7.95719,11.17091 3.7219,-3.30049 5.00533,-12.56728 0.64171,-18.6605 z"
       id="path14787" />
    <path
       style="fill:none;stroke:#64648a;stroke-width:0.638201px;stroke-linecap:butt;stroke-linejoin:miter;stroke-miterlimit:4;stroke-dasharray:none;stroke-opacity:1"
       d="m 318.76865,402.6978 c 2.43849,4.31604 4.87698,11.42479 7.05878,19.04133 0.12835,-0.50777 -4.74864,-11.93256 0,-19.54909 5.39036,-8.1243 12.19246,14.72529 11.42241,19.54909"
       id="path14789" />
    <path
       style="fill:none;stroke:#64648a;stroke-width:0.638201px;stroke-linecap:butt;stroke-linejoin:miter;stroke-miterlimit:4;stroke-dasharray:none;stroke-opacity:1"
       d="m 373.69886,423.51632 c -1.02673,-10.15537 -2.18181,-19.54909 -3.33689,-27.67339 -0.25667,-0.50777 5.00532,-2.28497 8.85558,-0.8886 3.97859,0.8886 6.67376,4.69686 2.82351,5.58546 -7.95717,4.18909 -10.78069,2.79272 -10.65236,2.66578"
       id="path14791" />
    <path
       style="fill:none;stroke:#64648a;stroke-width:0.638201px;stroke-linecap:butt;stroke-linejoin:miter;stroke-miterlimit:4;stroke-dasharray:none;stroke-opacity:1"
       d="m 376.52237,404.09417 c 0.12835,-2.66579 12.3208,18.78744 11.67909,18.15273"
       id="path14793" />
    <path
       style="fill:none;stroke:#64648a;stroke-width:0.638201px;stroke-linecap:butt;stroke-linejoin:miter;stroke-miterlimit:4;stroke-dasharray:none;stroke-opacity:1"
       d="m 393.97683,424.15103 c -1.28341,-9.52066 -2.56683,-18.40662 -3.85024,-25.76926 -0.25669,-0.25389 3.97859,-1.65024 8.21386,0.76165 4.10694,1.90413 8.34222,7.61654 8.34222,12.44034 0.25666,5.07768 -2.82355,9.6476 -6.1604,11.4248 -3.20857,2.03106 -6.67378,1.39636 -6.54544,1.14247 z"
       id="path14795" />
    <path
       style="fill:none;stroke:#64648a;stroke-width:0.638201px;stroke-linecap:butt;stroke-linejoin:miter;stroke-miterlimit:4;stroke-dasharray:none;stroke-opacity:1"
       d="m 449.42042,397.36623 c 3.46523,-6.60099 -2.56685,-12.0595 -9.36897,-6.98182 -6.54541,4.8238 2.31016,6.98182 6.1604,10.15538 2.0535,1.26941 5.51871,5.20462 7.44385,8.75901 2.05344,3.55438 2.5668,6.60099 -0.5134,9.90149 -6.54542,8.63207 -23.48651,-1.65025 -17.71114,-15.10612"
       id="path14797" />
    <path
       style="fill:none;stroke:#64648a;stroke-width:0.638201px;stroke-linecap:butt;stroke-linejoin:miter;stroke-miterlimit:4;stroke-dasharray:none;stroke-opacity:1"
       d="m 452.88565,391.78077 c 0.12833,0.50777 3.85024,1.52331 8.59887,-0.50776 4.6203,-2.03108 9.49729,-1.01554 9.49729,-0.63472"
       id="path14799" />
    <path
       style="fill:none;stroke:#64648a;stroke-width:0.638201px;stroke-linecap:butt;stroke-linejoin:miter;stroke-miterlimit:4;stroke-dasharray:none;stroke-opacity:1"
       d="m 461.74122,392.1616 c 1.41173,7.61654 2.8235,18.53356 3.85024,28.43505"
       id="path14801" />
    <path
       style="fill:none;stroke:#64648a;stroke-width:0.638201px;stroke-linecap:butt;stroke-linejoin:miter;stroke-miterlimit:4;stroke-dasharray:none;stroke-opacity:1"
       d="m 482.4042,384.54507 c -3.59355,1.77719 -7.18711,4.56992 -10.26731,7.48959 0,-0.25389 2.5668,17.51802 4.6203,24.62678 1.02671,3.3005 3.97858,5.83935 6.80208,5.45852 2.82354,-0.12695 5.39034,-3.42745 6.28876,-7.61653"
       id="path14803" />
    <path
       style="fill:none;stroke:#64648a;stroke-width:0.638201px;stroke-linecap:butt;stroke-linejoin:miter;stroke-miterlimit:4;stroke-dasharray:none;stroke-opacity:1"
       d="m 474.83207,406.50607 c 2.8235,0.8886 6.93045,-3.80827 10.78069,-2.91967"
       id="path14805" />
    <path
       style="fill:none;stroke:#64648a;stroke-width:0.638201px;stroke-linecap:butt;stroke-linejoin:miter;stroke-miterlimit:4;stroke-dasharray:none;stroke-opacity:1"
       d="m 509.4843,387.97251 c 2.82351,8.1243 5.9037,22.08794 8.08552,33.13191"
       id="path14807" />
    <path
       style="fill:none;stroke:#64648a;stroke-width:0.638201px;stroke-linecap:butt;stroke-linejoin:miter;stroke-miterlimit:4;stroke-dasharray:none;stroke-opacity:1"
       d="m 522.19013,390.25747 c -0.12838,-0.63471 2.31014,6.34711 4.36358,14.59836 2.18181,7.99735 3.97856,17.13718 3.72196,16.50247"
       id="path14809" />
    <path
       style="fill:none;stroke:#64648a;stroke-width:0.638201px;stroke-linecap:butt;stroke-linejoin:miter;stroke-miterlimit:4;stroke-dasharray:none;stroke-opacity:1"
       d="m 540.41461,394.31962 c -1.5401,-1.01554 -2.6952,3.80826 -3.08019,8.88595 -0.25672,5.20463 0.25672,10.66314 2.18181,14.97918 3.85024,9.13984 9.36895,3.17355 9.75395,-0.88859 0.12832,-2.15802 0.51337,-5.0777 -0.385,-9.64761 -0.89838,-4.18909 -3.20852,-10.15537 -8.47057,-13.32893 z"
       id="path14811" />
    <path
       style="fill:none;stroke:#64648a;stroke-width:0.638201px;stroke-linecap:butt;stroke-linejoin:miter;stroke-miterlimit:4;stroke-dasharray:none;stroke-opacity:1"
       d="m 606.51057,393.93879 c -1.54009,-1.14247 -2.6952,3.68133 -3.08019,8.75901 -0.25672,5.20464 0.25661,10.66315 2.18175,14.97918 3.85024,9.13984 9.36895,3.17355 9.754,-0.76165 0.25667,-2.15802 0.51332,-5.20463 -0.38505,-9.64761 -0.89838,-4.31604 -3.08019,-10.15537 -8.47051,-13.32893 z"
       id="path14813" />
    <path
       style="fill:none;stroke:#64648a;stroke-width:0.638201px;stroke-linecap:butt;stroke-linejoin:miter;stroke-miterlimit:4;stroke-dasharray:none;stroke-opacity:1"
       d="m 558.89577,406.75996 c 2.18187,1.14248 5.26206,-1.90413 8.08552,-0.63472"
       id="path14815" />
    <path
       style="fill:none;stroke:#64648a;stroke-width:0.638201px;stroke-linecap:butt;stroke-linejoin:miter;stroke-miterlimit:4;stroke-dasharray:none;stroke-opacity:1"
       d="m 594.06138,385.94143 c -5.77538,-0.25388 -11.67904,1.39637 -17.06942,4.82381 0,0.12693 0.25672,18.27967 0.51338,18.02579 0.12834,-0.12694 0.89838,-3.3005 3.33685,-6.98183 2.3102,-3.42743 6.16043,-7.2357 11.80748,-4.44297 10.90899,6.72794 10.0106,20.94546 3.59352,27.03869 -6.93042,5.58546 -14.37423,-5.71241 -13.60419,-12.69422"
       id="path14817" />
    <path
       style="fill:none;stroke:#64648a;stroke-width:0.638201px;stroke-linecap:butt;stroke-linejoin:miter;stroke-miterlimit:4;stroke-dasharray:none;stroke-opacity:1"
       d="m 622.16822,398.25483 c 1.28343,-4.95075 4.877,-9.0129 7.82885,-9.64761 2.9518,-0.88859 5.26201,1.65025 3.97857,5.33157 -1.02677,3.55439 -4.49194,10.5362 -7.05875,15.74083 -2.56686,5.45852 -4.49201,9.13985 -3.85029,10.79009 1.02671,4.06215 3.20852,4.95075 3.20852,4.82381 0,0.12694 3.3369,0.25388 6.67375,-1.01555 3.33691,-0.88859 6.67381,-3.17355 6.67381,-2.79273"
       id="path14819" />
    <path
       style="fill:none;stroke:#64648a;stroke-width:0.638201px;stroke-linecap:butt;stroke-linejoin:miter;stroke-miterlimit:4;stroke-dasharray:none;stroke-opacity:1"
       d="m 640.77779,392.41548 c 5.90365,-3.68132 13.0908,-4.06214 18.86617,-1.26941 -1.5401,10.40925 -3.20857,21.96099 -4.62028,33.89355"
       id="path14821" />
    <path
       style="fill:none;stroke:#64648a;stroke-width:0.638201px;stroke-linecap:butt;stroke-linejoin:miter;stroke-miterlimit:4;stroke-dasharray:none;stroke-opacity:1"
       d="m 158.59831,489.39931 c -1.54009,-13.20198 -3.20854,-25.38843 -4.87697,-35.92463 -0.51337,-0.25388 6.67376,-4.95074 12.96249,-2.66579 6.28874,1.65025 11.67909,10.28232 9.24061,20.94546 -2.05347,12.18645 -6.41708,18.40662 -10.26734,19.5491 -3.85024,1.5233 -7.18712,-2.03108 -7.05879,-1.90414 z"
       id="path14823" />
    <path
       style="fill:none;stroke:#64648a;stroke-width:0.638201px;stroke-linecap:butt;stroke-linejoin:miter;stroke-miterlimit:4;stroke-dasharray:none;stroke-opacity:1"
       d="m 183.23991,460.71038 c 5.90371,-5.7124 10.524,2.28496 10.78069,6.22017 0.51337,4.06215 0.51337,18.40661 0.77005,18.27968 0.12835,-0.25389 -0.25668,-3.42745 -1.79678,-7.61654 -1.66844,-4.06215 -4.62029,-8.88595 -8.98391,-8.63207 -8.34221,0.25389 -1.41176,11.17092 2.43848,15.10613 3.9786,2.91966 8.08553,-1.26943 8.08553,-1.26943"
       id="path14825" />
    <path
       style="fill:none;stroke:#64648a;stroke-width:0.638201px;stroke-linecap:butt;stroke-linejoin:miter;stroke-miterlimit:4;stroke-dasharray:none;stroke-opacity:1"
       d="m 217.63546,460.58344 c 5.90371,-5.58546 10.39567,2.28496 10.65235,6.22017 0.51336,4.18909 0.64171,18.40662 0.8984,18.27967 0,-0.12694 -0.25669,-3.42744 -1.92513,-7.61653 -1.66844,-3.93521 -4.49195,-8.75901 -8.98391,-8.63207 -8.34221,0.38083 -1.28342,11.17091 2.43849,15.10612 3.97859,2.91967 8.21386,-1.26942 8.21386,-1.26942"
       id="path14827" />
    <path
       style="fill:none;stroke:#64648a;stroke-width:0.638201px;stroke-linecap:butt;stroke-linejoin:miter;stroke-miterlimit:4;stroke-dasharray:none;stroke-opacity:1"
       d="m 199.41095,450.17418 c 1.28341,10.40926 2.82352,24.3729 3.85024,37.82877"
       id="path14829" />
    <path
       style="fill:none;stroke:#64648a;stroke-width:0.638201px;stroke-linecap:butt;stroke-linejoin:miter;stroke-miterlimit:4;stroke-dasharray:none;stroke-opacity:1"
       d="m 206.98311,451.57055 c 0,-0.25389 0.89838,7.48958 1.5401,16.37553 0.77004,8.75902 1.41175,18.78745 1.41175,18.53356"
       id="path14831" />
    <path
       style="fill:none;stroke:#64648a;stroke-width:0.638201px;stroke-linecap:butt;stroke-linejoin:miter;stroke-miterlimit:4;stroke-dasharray:none;stroke-opacity:1"
       d="m 242.79042,460.20261 c -0.51338,-4.44297 -1.79679,-7.10876 -6.1604,-3.9352 -4.23528,3.68132 -8.59889,8.88594 -3.20855,8.63206 5.77538,0 17.71115,6.72794 16.42773,11.67868 -0.38502,2.41191 -3.20854,7.4896 -6.41707,8.88596 -3.20855,1.65025 -6.93045,-0.38083 -8.98392,-6.98182"
       id="path14833" />
    <path
       style="fill:none;stroke:#64648a;stroke-width:0.638201px;stroke-linecap:butt;stroke-linejoin:miter;stroke-miterlimit:4;stroke-dasharray:none;stroke-opacity:1"
       d="m 259.08979,479.37088 c -0.12833,3.80827 -0.12833,7.23571 -0.12833,10.15537"
       id="path14835" />
    <path
       style="fill:none;stroke:#64648a;stroke-width:0.638201px;stroke-linecap:butt;stroke-linejoin:miter;stroke-miterlimit:4;stroke-dasharray:none;stroke-opacity:1"
       d="m 284.24475,448.27005 c 5.64703,2.79273 13.60422,-5.20463 20.91969,-2.03108"
       id="path14837" />
    <path
       style="fill:none;stroke:#64648a;stroke-width:0.638201px;stroke-linecap:butt;stroke-linejoin:miter;stroke-miterlimit:4;stroke-dasharray:none;stroke-opacity:1"
       d="m 293.99872,448.77782 c 0.38502,9.39372 0.77004,20.56463 1.02673,32.62414"
       id="path14839" />
    <path
       style="fill:none;stroke:#64648a;stroke-width:0.638201px;stroke-linecap:butt;stroke-linejoin:miter;stroke-miterlimit:4;stroke-dasharray:none;stroke-opacity:1"
       d="m 309.91308,443.19236 c 6.03205,7.61653 12.70582,26.02315 17.32611,36.94018"
       id="path14841" />
    <path
       style="fill:none;stroke:#64648a;stroke-width:0.638201px;stroke-linecap:butt;stroke-linejoin:miter;stroke-miterlimit:4;stroke-dasharray:none;stroke-opacity:1"
       d="m 325.31407,442.93848 c 0.12834,-0.38083 -4.74864,8.37818 -9.24059,18.91438 -4.62031,10.66314 -8.08553,17.39108 -7.95718,17.39108"
       id="path14843" />
    <path
       style="fill:none;stroke:#64648a;stroke-width:0.638201px;stroke-linecap:butt;stroke-linejoin:miter;stroke-miterlimit:4;stroke-dasharray:none;stroke-opacity:1"
       d="m 361.63475,443.95402 c 5.13366,-3.42744 11.29405,-4.1891 16.29938,-2.03109 -0.12834,-0.76164 -5.00533,38.59043 -5.00533,38.84431"
       id="path14845" />
    <path
       style="fill:none;stroke:#64648a;stroke-width:0.638201px;stroke-linecap:butt;stroke-linejoin:miter;stroke-miterlimit:4;stroke-dasharray:none;stroke-opacity:1"
       d="m 399.62386,442.43071 c -5.00532,-0.38082 -10.26732,1.14248 -14.75929,4.31603 0.25669,3.68133 0.64172,7.36265 0.8984,11.29786 -0.51337,0 13.09083,-11.55174 17.19778,-3.04662 3.85024,7.74348 4.3636,20.43769 -2.69518,27.41952 -7.18713,5.58545 -9.75396,-12.56728 -9.8823,-10.91703"
       id="path14847" />
    <path
       style="fill:none;stroke:#64648a;stroke-width:0.638201px;stroke-linecap:butt;stroke-linejoin:miter;stroke-miterlimit:4;stroke-dasharray:none;stroke-opacity:1"
       d="m 411.30297,450.68195 c 5.647,-10.15537 17.83947,-7.61653 9.36892,4.69686 -7.95719,12.56727 -5.13366,21.45323 -5.26202,21.961 4.10694,1.90413 8.59891,2.4119 12.44916,1.01554"
       id="path14849" />
    <path
       style="fill:none;stroke:#64648a;stroke-width:0.638201px;stroke-linecap:butt;stroke-linejoin:miter;stroke-miterlimit:4;stroke-dasharray:none;stroke-opacity:1"
       d="m 432.47933,443.19236 c -0.12837,1.14248 -1.54011,23.4843 -1.41177,22.97654 5.00533,0.63471 11.16571,0.50776 16.55606,-0.12695 -0.89837,-5.45851 -1.92511,-11.04397 -2.95187,-16.75636 1.66848,10.79008 3.20857,21.45322 4.36365,30.72"
       id="path14851" />
    <path
       style="fill:none;stroke:#64648a;stroke-width:0.638201px;stroke-linecap:butt;stroke-linejoin:miter;stroke-miterlimit:4;stroke-dasharray:none;stroke-opacity:1"
       d="m 469.95507,452.20525 c -1.2834,-1.65024 -3.3369,-2.66578 -5.39035,-2.15801 -9.2406,3.17356 -8.59888,11.42479 -7.18714,17.01025 1.79679,6.47405 5.90373,15.61389 11.80744,12.9481 3.0802,-1.39636 6.16039,-5.07768 7.31547,-9.13984 1.15508,-4.31603 0.38503,-9.01289 -6.54542,-18.6605 z"
       id="path14853" />
  </g>
</svg>
