<?xml version="1.0" encoding="UTF-8" standalone="no"?>
<!-- Created with Inkscape (http://www.inkscape.org/) -->

<svg
   width="3000"
   height="1998.207"
   viewBox="0 0 793.75 528.69226"
   version="1.1"
   id="svg5"
   xml:space="preserve"
   inkscape:version="1.2.1 (9c6d41e410, 2022-07-14)"
   sodipodi:docname="KevinV - Stake - Envelope55.svg"
   xmlns:inkscape="http://www.inkscape.org/namespaces/inkscape"
   xmlns:sodipodi="http://sodipodi.sourceforge.net/DTD/sodipodi-0.dtd"
   xmlns="http://www.w3.org/2000/svg"
   xmlns:svg="http://www.w3.org/2000/svg"><sodipodi:namedview
     id="namedview7"
     pagecolor="#ffffff"
     bordercolor="#000000"
     borderopacity="0.25"
     inkscape:showpageshadow="2"
     inkscape:pageopacity="0.0"
     inkscape:pagecheckerboard="0"
     inkscape:deskcolor="#d1d1d1"
     inkscape:document-units="px"
     showgrid="false"
     inkscape:zoom="0.16"
     inkscape:cx="1809.375"
     inkscape:cy="796.875"
     inkscape:window-width="1350"
     inkscape:window-height="728"
     inkscape:window-x="1414"
     inkscape:window-y="93"
     inkscape:window-maximized="0"
     inkscape:current-layer="layer1" /><defs
     id="defs2" /><g
     inkscape:label="Layer 1"
     inkscape:groupmode="layer"
     id="layer1"><path
       style="fill:none;stroke:#736e92;stroke-width:0.0977476"
       d="m 27.571779,8.2677339 c 0,0.5497033 0.199112,2.2523191 1.042658,1.2707175 0.306329,-0.3565536 0.819909,-1.3157211 0.944838,-1.6617082 0.122309,-0.3385581 0.307502,-0.3335051 0.43987,-0.7005185 C 29.841181,6.0985517 30.25532,4.0975334 29.86887,3.3803533 29.74197,3.1616724 29.539362,3.1104818 29.331273,3.0382366 27.967855,2.9123627 27.924129,5.7182732 27.7673,6.5082763 27.68036,6.9551098 27.77945,7.5855619 27.57182,7.9744912 27.45383,8.1961624 27.274955,8.1724199 27.08308,8.3003229 26.591977,8.6277084 26.214679,9.4444388 25.519106,9.228925 24.954712,9.054034 24.903007,8.2622786 24.802324,7.7789952 24.522469,6.4357585 24.924769,5.1373282 25.030366,3.869092 c 0.02903,-0.3467985 0.07411,-0.5753033 0.162945,-0.8797281 0.12771,-0.4382663 0.139792,-0.7902623 0.619055,-1.0752241 0.41476,0.4411607 0.620595,0.9013119 0.749412,1.3684668 -0.0158,0.3905034 0.09693,0.7173962 0.228041,1.0752228 m 5.180635,4.7896326 c 0.454612,0.6398846 0.80603,0.327503 1.205522,-0.1954947 0.468301,-0.6129656 0.705144,-1.4974646 0.944931,-2.2481949 0.11448,-0.3581777 0.353943,-0.8494463 0.0652,-1.1566871 -0.334989,-0.356289 -0.616504,0.136339 -0.782,0.3747056 -0.289804,0.417255 -1.248034,1.9172603 -1.726905,1.8409192 -0.542997,-0.086562 -0.237816,-0.8519964 -0.19548,-1.1566857 0.120555,-0.8677145 0.424008,-1.7877347 0.68422,-2.6391857 0.212598,-0.6957962 0.185139,-1.3900628 0.586493,-1.9549509 0.243392,0.3303744 0.261482,0.3793672 0.293234,0.7819801 M 55.332116,2.1096345 c 0.197559,1.0722717 0.193455,2.517382 0.293261,3.7144084 0.02268,0.2710447 -0.0783,1.1141176 0.04887,1.3684669 0.101384,0.2028548 0.311606,0.3604929 0.43987,0.4887387 M 45.557369,8.1699859 C 45.002249,9.0530863 43.89174,8.8861819 43.42325,7.9744912 42.967922,7.0884775 42.864512,5.5974551 43.048477,4.6510721 c 0.09788,-0.5030676 0.141439,-2.0724224 0.847164,-2.2156087 0.402435,-0.081648 0.835069,0.8448158 0.993802,1.1403859 0.04374,0.7940477 0.456988,1.393053 0.192267,2.0696131 M 57.482556,2.8916159 58.166776,3.771344 M 34.8051,2.9893639 c 0.12339,1.101888 0.320139,2.1052031 0.407308,3.2256697 l 0.358344,0.9774762 0.01633,0.4887387 V 9.3429567 M 7.0448041,3.2826066 c 0.03456,0.6946001 0.2178088,1.5028889 0.3584247,2.0526989 0.1925638,0.7703202 0.0864,1.3427494 0.5213021,1.9549523 C 7.2993734,7.4876789 7.184637,7.3263028 6.4583241,7.1925044 M 13.593878,4.1623293 c -0.07277,-0.2514656 -0.1242,-0.2717588 0,-0.5864854 l 0.29326,1.3684655 0.684233,4.6918846 m 4.691867,-4.4963886 c -0.100845,1.0379224 -0.839632,2.0624635 -1.563946,2.4436897 -0.260712,-0.619046 0.292841,-2.214179 0.472418,-2.9324284 0.103005,-0.4118104 0.221967,-0.4636949 0.553918,-0.9774761 0.573493,0.2700578 0.603112,0.7921955 0.53761,1.4662148 z M 47.903289,8.5609712 C 47.682172,8.1956588 47.579464,7.8480976 47.398227,7.4857471 47.021699,6.7326516 46.469617,5.854966 46.469617,4.9443094 c 0,-0.2876901 0.07101,-0.5221188 0.09761,-0.7626062 0.02632,-0.2376147 0.0081,-0.3652827 0.358573,-0.4755236 0.640021,-0.2011634 1.701376,0.5335263 2.248166,0.7493924 M 3.3303633,3.869092 C 2.8680291,3.5981729 2.0906323,3.3764234 1.6301477,4.0691754 1.1811381,4.5110138 1.316597,6.0091251 2.0596498,5.9706649 2.2763246,5.95946 2.503192,5.9990554 2.7438697,6.0358294 3.6973874,6.1815118 4.6378776,6.3483676 5.2527211,7.2902632 5.5236119,7.7052501 5.5928263,8.7141812 5.366796,9.1474674 5.2640611,9.3444093 5.0974173,9.4929362 4.8943369,9.5873308 4.6430076,9.7041462 4.3396764,9.8344467 4.0146102,9.8479845 3.3979172,9.873675 2.8627101,9.6139082 2.4506635,9.2452154 m 58.9418005,-5.473866 0.423548,1.2707188 0.276993,0.6842335 0.276912,0.5864854 c 0.380646,-0.2303625 1.051689,-0.2272629 1.95496,-0.4887388 M 16.428565,4.1623347 c -0.365918,1.3967574 -0.19008,1.6627585 -1.457864,2.77546 0.440451,0.2644607 1.684339,1.8497023 2.142084,2.3074153 M 49.804573,7.3982415 c 0.05508,-0.6967844 0.111105,-1.4508397 0.526081,-2.2584307 0.1269,-0.2467541 0.299308,-0.6020373 0.521383,-0.7331074 0.178078,-0.1051109 0.290101,-0.033682 0.472419,-0.04887 0.457055,-0.038083 1.040997,0.068013 1.07522,0.6842334 0.03713,0.6693267 -1.464533,1.5065893 -1.88661,1.8406991 -0.242419,0.1918983 -0.387585,0.2128503 -0.638509,0.4400848 -0.18229,0.1650563 -0.222858,0.4533526 -0.211828,0.6516445 0.01215,0.2282105 0.07628,0.7027648 0.29326,0.8308541 0.636227,0.3754778 1.640977,-0.4260421 2.150454,-0.7656964 0.1853,-0.1235654 0.378958,-0.2767039 0.586466,-0.3746855 0.279261,-0.1318949 0.409468,-0.036437 0.667925,-0.228085 0.116235,-0.08613 0.378567,-0.7436928 0.537611,-0.9123171 0.556577,-0.5899171 1.062219,-0.3162237 1.629151,-0.2117797 M 10.646061,4.6095083 c -0.9107497,0.8625535 -1.133594,2.9444353 -0.9457821,4.146963 0.056295,0.3605145 0.043065,1.3429847 0.5701991,1.4499187 0.792139,-0.05608 1.392821,-2.2498659 1.645379,-3.0138802 -0.10287,-0.8692171 0.09382,-1.6807527 -0.33156,-2.6099461 M 35.56631,7.1909802 c 0.315644,-1.2340771 0.739975,-2.2831316 1.193764,-2.3444121 0.509949,0 0.532224,0.6097392 0.619028,0.9774748 0.245241,1.0387256 0.651699,2.4768753 0.651699,3.6166618 M 58.264543,6.2150336 58.557777,7.8767432 M 61.294724,6.801519 62.321047,6.2639076 c 0.185341,0.78937 0.613574,1.770101 1.22187,2.3948157 M 15.011565,6.9192997 14.657339,6.9478117 M 7.9149324,7.2806809 C 8.1108847,8.083694 7.8455424,8.5795283 8.0222573,9.5384514 M 55.674328,7.1925098 C 55.415749,8.0335861 54.840676,9.229816 54.159116,9.24521 53.427173,9.2134041 53.362225,7.8300008 53.362225,7.4316499 M 7.9245039,7.2902578 c 0.3005502,0.055363 0.4830566,-0.01269 0.9774801,0.1954947 M 29.986063,7.1629002 c 0.2425,0.9183314 0.0247,1.1824546 0.615897,1.9845618 M 11.919069,7.1809497 c 0.137741,0.4759124 0.284351,1.3629602 0.697329,1.9665123 m 5.082867,-1.5639615 c 0,0.568764 -0.07722,1.1448787 0.407308,1.6617095 0.937115,0.999654 2.179789,-0.8388609 2.427379,-1.4662148 M 9.8794912,13.057365 c 0.1306798,0.215827 0.1816018,0.337131 0.1954798,0.586485 0.0108,0.205955 0.113535,0.646993 0.04887,0.781982 C 9.9879906,14.709984 9.8383973,14.71966 9.586231,14.898246 9.4381901,15.003128 9.2570337,15.116223 9.0975179,15.191489 8.6025408,15.425301 7.9639238,15.620796 7.4357908,15.598803 7.1058646,15.585019 6.8275893,15.492747 6.5560505,15.207812 6.1501869,14.781926 6.4997556,14.106392 6.8493243,13.741598 7.2444284,13.329299 8.2485171,12.536957 8.7065042,12.307935 8.9883165,12.16708 9.0926714,12.140689 9.2929977,12.177633 m 36.3620973,-0.09775 0.602815,0.879729 0.325782,0.488737 0.146637,0.879728 m -38.0238248,-2.150446 0.09774,0.09775 m -7.2333074,0.78198 c 0.4197147,-0.209864 0.7147569,-0.609358 1.17296,-0.74943 0.3865857,-0.118085 1.2454145,0.04115 1.4010559,0.456187 0.1036799,0.276333 -0.1958714,0.654713 -0.3584112,0.879728 -0.1956419,0.27086 -0.3156703,0.564689 -0.5539046,0.765658 -0.3222447,0.271934 -0.4826786,0.322763 -0.9774801,0.505061 m 10.1657482,1.66171 c 0.937587,-0.66615 2.469201,0.80417 3.388604,-0.390991 0.342522,-0.445338 0.284647,-1.296914 -0.08154,-1.759456 -0.35189,-0.444556 -0.901124,-0.737603 -1.449872,-0.684234 -0.397831,0.03871 -1.105932,0.461662 -1.449911,0.244369 -0.22676,-0.143196 -0.196169,-0.403889 -0.24435,-0.635355 -0.111375,-0.534386 -0.11529,-0.729685 0.130275,-1.075223 0.422859,0.222572 0.631353,0.384539 1.270713,0.586485 m 29.12879,-0.488738 0.309582,0.586486 0.19548,0.488738 0.390986,0.586485 0.570186,0.879728 m -6.940074,-2.443689 -0.09774,1.075224 c 0.179158,0.687222 -0.06629,1.264672 0.09774,1.759456 0.469556,-0.247204 1.147742,-1.054012 1.85718,-0.635359 0.853847,0.503888 -0.724599,2.360409 -1.17296,2.671735 -0.877041,0.628924 -0.642829,-1.43741 -0.68422,-2.036376 m 8.965045,-1.864897 c 0.207144,-0.281122 0.296811,-0.854636 0.809689,-0.676541 0.628222,0.218174 1.034869,1.328977 1.368467,1.857205 m -24.241403,2.0527 c 0.128115,0.221398 0.224734,0.417479 0.48874,0.472413 0.182209,0.03803 0.607418,-0.09326 0.782,-0.146621 0.520803,-0.159035 1.509204,-0.740633 1.563947,-1.303268 0.02821,-0.290408 -0.04091,-0.409759 -0.162945,-0.684234 -0.311607,-0.701242 -0.938965,-0.63878 -1.596509,-0.456187 -0.317398,0.08817 -0.604556,0.08347 -0.97748,-0.04887 -0.206644,-0.07331 -0.462334,-0.640345 -0.456191,-0.863406 0.0081,-0.277994 0.194818,-0.576319 0.456191,-0.765655 0.406444,-0.294515 0.591367,-0.123458 1.172987,-0.01632 m -8.113061,0.09774 c 0.670761,0.398811 0.372613,0.600465 0.619029,1.172972 0.415421,0.964866 0.958215,1.961013 1.042671,3.030175 m 58.648568,-1.661709 c -0.16844,0.426571 -0.911115,1.426236 -1.466221,1.726907 -0.252868,0.136944 -0.673082,0.256294 -0.961131,0.01623 -0.294813,-0.24564 -0.36724,-0.64533 -0.47254,-0.961152 -0.08843,-0.265091 -0.130275,-0.437029 -0.130275,-0.684233 0.151119,-1.560699 2.337455,-3.015519 1.449858,-0.977476 -0.39235,0.856073 -0.718145,1.362025 -1.285577,1.637081 -0.200218,0.147693 -0.428638,0.286689 -0.620513,0.513366 -0.133245,0.157569 -0.279572,0.426961 -0.423549,0.586487 -0.252193,0.279362 -0.716498,0.850795 -1.172987,0.74943 -0.719212,-0.159817 -1.124725,-1.296694 -1.199893,-1.704595 m -41.515745,-2.95474 c 0.0068,0.268611 -0.0095,0.759206 0.146596,1.042673 0.358182,0.878548 0.415017,2.262259 1.026364,2.769484 0.206334,-0.290409 0.275629,-0.651977 0.293233,-1.075225 0.03388,-0.814921 0.195507,-2.055826 0.195507,-2.639184 m 20.917976,-0.09775 2.052714,0.04887 1.075206,-0.04887 m 14.173409,2.639185 c -0.01606,-0.201263 -0.08289,-0.416991 -0.09774,-0.684233 -0.01553,-0.27819 -0.02714,-0.544259 -0.179158,-0.781981 -0.461997,-0.471803 -1.147108,-0.374327 -1.547747,0.09775 -0.195885,0.233129 -0.33939,0.353064 -0.504967,0.684233 -0.133515,0.266949 -0.176148,0.47955 -0.277006,0.78198 -0.08802,0.264213 -0.162864,0.605742 -0.162864,0.879729 0,0.194811 0.02714,0.296664 0.03253,0.488738 0.01215,0.431752 0.244079,0.712189 0.781973,0.570161 1.012486,-0.267144 1.457526,-1.525448 1.954974,-2.036374 0.193617,0.245346 0.644044,1.140421 0.879727,1.140421 0.220522,-0.115169 0.676457,-0.724426 0.733089,-0.798306 0.06021,-0.08084 0.04887,-0.408291 0.04887,-0.537611 0,-0.48737 -0.175634,-1.193694 -0.0652,-1.661708 0.154454,-0.65403 0.231674,-1.03945 0.847179,-0.488739 m -44.572899,-0.1955 c 0.09491,0.225405 0.137713,0.435172 0.179158,0.684234 0.05251,0.314844 0.160515,0.817462 0.244391,1.17297 0.08572,0.363132 0.122714,0.649631 0.195479,0.977476 0.04415,0.198623 0.08316,0.300085 0.13041,0.488738 0.08262,0.330582 0.123795,0.621577 0.423549,0.635359 0.163417,0.0076 0.232348,-0.09071 0.293233,-0.244368 0.45792,-0.823066 0.882305,-2.120805 0.938492,-2.771223 m 11.866436,-0.649943 1.417351,-0.293243 c 0.520222,-0.116127 0.661756,-0.09775 1.221843,-0.09775 m 9.970268,0.09775 0.228042,0.78198 0.03267,0.781982 0.48874,1.857204 0.228028,0.684233 m 10.586786,0.08236 c -0.62266,-0.622652 -1.421481,-2.074753 -1.317072,-3.014791 0.07668,-0.69 1.027713,-0.844149 1.580295,-0.684233 m -8.640789,2.844917 c 0,-0.427353 -0.06318,-1.199239 0.07155,-1.769693 0.04982,-0.21094 0.09855,-0.314259 0.195507,-0.488739 0.11259,-0.202728 0.336042,-0.876404 0.847179,-0.472413 0.61375,0.485022 0.27818,1.100539 -0.01634,1.743132 -0.144585,0.315431 -0.287888,0.650999 -0.570186,0.798304 -0.165469,0.08632 -0.331155,0.0257 -0.472419,0.130302 -0.120284,0.08895 -0.119609,0.192857 -0.114074,0.342117 0.01633,0.437518 0.200771,0.988229 0.586493,1.205521 0.659812,0.371734 1.548638,-0.684331 1.889769,-1.107773 0.143005,-0.17751 0.323824,-0.432924 0.48874,-0.586485 0.249345,-0.232152 0.560101,-0.05484 0.749425,0 0.07479,-0.568403 -0.390987,-0.735063 -0.390987,-1.563962 0,-0.402134 0.316008,-1.068577 0.781974,-1.042674 0.390595,0.02171 0.651199,0.275844 0.97748,0.456187 M 3.1994944,14.438923 c 1.132811,-0.324742 2.0691837,0.249716 2.2650145,0.964386 0.1947644,0.779147 -1.1113325,1.698071 -1.743159,1.759457 C 3.00446,17.232466 2.3651816,17.03002 1.864143,16.674028 m 40.266888,-2.038004 c 0.485419,0.242707 1.138197,0.635717 1.17809,1.353771 0.0509,0.915894 -1.147351,2.219163 -2.15044,1.710582 -0.404487,-0.205074 -0.483678,-0.663021 -0.48874,-1.026349 -0.004,-0.250331 -0.02133,-0.425398 0.03253,-0.684233 0.06831,-0.327846 0.10881,-0.500664 0.179239,-0.781982 0.156694,-0.626953 0.744457,-0.801236 1.254392,-0.586485 -0.24385,0.356387 -0.113805,0.338696 0,0.879728 M 10.12345,14.415596 c 0.05737,0.727243 0.390541,1.882983 0.733454,2.649422 m 50.828739,-0.39099 0.414072,0.975947 m -34.821237,4.40017 c -0.538393,0 -2.398313,0.390306 -2.671742,-0.293243 -0.150889,-0.377207 -0.282177,-0.741024 -0.228123,-1.075223 0.11799,-0.729588 1.940084,-0.420509 2.313399,-0.39099 m -12.316202,0 c 0.49842,0.05249 0.824296,0.03949 1.172974,0.195494 m 1.808215,2.551895 c 0.190998,-0.518258 0.417002,-1.289191 0.830965,-1.769913 0.259618,-0.301454 0.470151,-0.529401 0.781974,-0.667909 0.21388,-0.09511 0.398803,-0.07927 0.537623,0.17917 0.130545,0.243098 0.0216,0.461174 -0.0652,0.684233 -0.230202,0.592059 -0.572899,0.921565 -1.156652,1.156648 -0.26109,0.105179 -0.654236,0.138606 -0.863405,0.32589 -0.349069,0.312303 -0.365877,1.246283 -0.407308,1.743132 -0.04927,0.591668 0.445823,0.684038 0.977453,0.60281 0.864377,-0.132057 1.710111,-0.882854 2.34596,-1.38479 m 7.917555,-3.421166 c 0.850485,0.950597 0.311323,2.768115 1.270713,3.50259 0.470839,0.36059 1.383708,-0.480038 1.759454,-0.667909 m 5.082894,-2.639185 c 0.508166,-0.213969 0.673163,-0.104692 1.17296,-0.09775 0.353362,0.0049 0.492263,0.04163 0.781973,0.114075 1.201108,0.302198 0.583942,1.474185 0.444636,1.599821 0.413977,0.167911 1.3139,0.128844 1.298496,0.925292 -0.02416,0.348177 -0.342022,0.498219 -0.570172,0.602809 -0.53279,0.244174 -1.030737,0.488348 -1.563947,0.08142 M 2.0596363,20.926048 c 0.3073678,-0.160404 0.9265852,-0.02102 1.3684399,0.114075 0.9404092,0.28728 1.9822843,0.961542 2.3948304,1.889754 0.1711259,0.385028 -0.2433372,0.933098 -0.5376235,1.140421 -0.6151135,0.433119 -1.5324917,0.56019 -2.1504402,0.276918 -0.614587,-1.198372 -0.7366134,-1.417088 -1.3847613,-2.590311 0.08586,-0.386494 0.1071899,-0.725287 0.3095547,-0.830854 m 10.7522147,0.04887 c 0.02659,0.3385 0.20038,0.862721 0.260711,1.172971 0.05049,0.260008 0.03254,0.375742 0.03254,0.684233 0,0.567425 -0.252085,0.860863 -0.879726,0.651684 -0.677686,-0.225894 -1.163821,-1.618563 -1.837592,-1.884534 m 34.485289,-0.233362 c 0.188284,-0.0694 0.453059,-0.206052 0.68426,-0.260693 0.193806,-0.04575 0.313456,-0.03499 0.48874,-0.03255 1.25311,0.07399 1.916135,0.201499 1.182545,1.140498 1.330451,0.281003 1.935534,1.679461 0.772388,2.362091 -0.479654,0.259815 -1.091258,0.21915 -1.6617,0.114075 m -5.47388,-3.22567 c 0.500768,-0.224038 0.998702,-0.380824 1.563973,-0.293243 0.876487,0.135772 0.175892,1.052074 -0.07736,1.208373 0.671814,-0.03617 1.711475,0.05003 2.113707,0.551085 0.39559,0.492745 0.155331,0.891652 -0.374665,1.156646 -0.806328,0.403209 -1.515495,0.138312 -2.150454,-0.179172 m 7.428814,-2.736932 c 0.448132,1.188087 1.170058,2.712593 1.075247,3.812158 m 0.879727,-3.616662 c 0.105975,0.574951 0.202514,2.25748 0.781974,2.492564 0.450697,0.182886 1.257712,-0.685015 1.6617,-0.830856 0.254447,-0.09188 0.410156,-0.06745 0.537623,-0.293242 0.136647,-0.242121 -0.04887,-1.013643 -0.04887,-1.270719 M 8.2177371,22.734378 c -0.015255,-0.192171 -0.070605,-0.940331 -0.2118013,-1.0589 -0.1348649,-0.113292 -0.2533138,-0.06519 -0.3746922,0 C 7.20162,21.906163 6.7644229,22.502033 6.60488,23.174243 6.55601,23.786827 6.4847301,24.364522 7.0447366,24.396088 7.9863473,24.44917 8.942457,23.917983 9.2367433,23.141518 M 8.9997105,21.561407 c 0.027135,0.342997 0.1373218,0.886376 0.2280553,1.270719 0.03618,0.153268 0.02268,0.295101 0.1140749,0.488738 0.3290352,0.539126 0.8651333,1.33027 1.3195973,1.172972 m 4.4964,-2.443691 -0.195521,1.368467 m 31.474751,-0.684234 c 0.56164,-0.413862 0.479317,-0.348418 0.831978,-0.552614 m -22.50278,-0.200415 0.655046,2.121496 M 37.99076,22.505011 c 0.550921,-0.159426 0.247536,-0.1666 0.808906,-0.21088 m 15.541106,0.357884 c 0.219523,0.728905 0.1269,1.87845 0.893577,2.721549 m -33.038697,-2.248195 0.211801,1.075223 -0.114075,1.172972 M 155.9455,50.589284 c -1.04297,-0.101371 -2.78764,0.4397 -3.15908,1.469373 -0.0772,0.214751 -0.20331,0.483654 -0.21211,0.684232 -0.0166,0.41191 0.25121,0.931828 0.6031,1.156648 0.2991,0.191096 0.70281,0.217 1.07523,0.211819 0.52197,-0.0073 1.00973,-0.297251 1.35185,-0.684233 0.45159,-0.510438 0.72822,-1.06281 0.58648,-1.661708 -0.16628,-0.940633 -0.35273,-1.891737 -0.37437,-2.834681 0,-1.044921 -0.18182,-1.926215 -0.19549,-2.932427 -0.004,-0.286107 -0.0841,-0.447587 -0.0977,-0.781983 -0.0215,-0.525784 0,-0.775137 0,-1.368464 m -47.40762,1.17297 c 0.47215,0.747963 0.93645,2.221413 1.27074,3.225671 0.1026,0.306537 0.24339,0.620892 0.32548,0.879729 0.0841,0.263135 0.0371,0.395974 0.0655,0.684232 0.0479,0.497632 0.35481,1.180692 0.58647,1.56396 M 85.731526,49.614966 c -0.53545,0.380436 -1.098764,1.091841 -1.759454,1.596511 -0.230013,0.175752 -0.407997,0.313283 -0.68422,0.439865 -0.397061,0.182008 -1.055793,0.353162 -1.46622,0.08153 -0.525406,-0.347785 -0.600075,-0.833202 -0.716782,-1.433664 -0.05562,-0.285716 -0.06521,-0.402818 -0.06521,-0.684234 0,-1.011101 0.241339,-2.057781 0.700568,-3.030175 0.401625,-0.8506 1.258888,-1.89591 2.231846,-1.238168 1.226744,0.829389 -0.308475,2.817379 -0.977454,3.486363 -0.335758,0.335762 -1.480098,0.886683 -1.956742,0.723641 m -7.915772,-4.144807 c 0.05899,0.32071 0.08451,0.26656 0.09774,0.586487 0.01417,0.3384 0.05724,0.659305 0.09774,1.075222 0.08437,0.868097 0,2.232165 0,3.030175 0,0.562441 0.0166,0.858714 -0.162959,1.368467 -0.07398,0.210256 -0.209385,0.495679 -0.521288,0.342116 -0.751302,-1.098974 -1.236248,-2.548181 -1.759467,-3.763282 -0.172449,0.633964 -0.11394,1.259713 -0.276912,1.954954 -0.121635,0.486879 -0.227569,1.316073 -0.798295,1.433662 -0.425317,0.08748 -0.514363,-0.648361 -0.700568,-1.042673 -0.181521,-0.384447 -0.257958,-0.595581 -0.374666,-0.97748 -0.277411,-0.907782 -0.48874,-2.077331 -0.48874,-3.030175 m 38.348239,2.803506 c -0.19648,0.202045 -0.37622,0.420796 -0.58542,0.715407 -0.21307,0.301355 -0.51024,0.534287 -0.81422,0.749429 -0.95305,0.675341 -2.75551,0.839457 -2.93243,-0.749429 -0.0792,-0.71522 0.0469,-1.48029 0.26098,-2.150447 0.17205,-0.540057 0.55325,-1.196627 0.89536,-1.661711 0.14664,-0.198621 0.2053,-0.313768 0.40762,-0.439864 0.18866,-0.117692 0.59334,-0.266068 0.87973,-0.14662 0.26488,0.110349 0.58451,0.323543 0.78197,0.439865 0.72236,0.424613 0.72821,2.291497 1.1241,3.274542 0.21017,0.520703 0.68619,1.297601 1.02637,1.759457 m -14.564402,0.39099 c 0.950102,0.650121 2.127666,0.605842 3.22566,-0.06519 0.507721,-0.310251 0.911114,-0.769369 0.814522,-1.401015 -0.236344,-1.547443 -2.83898,-0.702804 -3.844702,-1.010025 -0.769675,-0.235181 -0.829075,-0.947468 -0.423549,-1.531411 0.213111,-0.306831 0.439209,-0.50438 0.716809,-0.781983 0.333801,-0.333806 0.634459,-0.705736 1.075207,-0.879728 m 3.51892,0 0.276628,0.586485 0.14661,0.586487 0.619717,1.56396 c 0.486526,0.903785 0.755959,1.917321 1.20526,2.639183 m 13.75791,-1.710037 c 0,-0.631741 0.31772,-1.936341 0.62757,-2.590859 0.18279,-0.387862 1.02636,-1.760238 1.54736,-0.78198 0.18083,0.339476 0.11434,0.746985 0,1.075222 -0.27173,0.782763 -0.90808,1.483125 -1.56398,1.938627 -0.23166,0.160896 -0.37532,0.07204 -0.56986,0.309568 -0.15932,0.193346 -0.11436,0.387177 -0.11436,0.586486 0,0.476322 -0.0636,1.229469 0.48875,1.629158 0.98139,0.709551 2.18271,-0.929872 2.73695,-1.531409 m 9.18825,-4.300897 c 0,0.433414 0.10071,0.825089 0.21212,1.270718 0.32745,1.312068 0.74092,2.845042 0.8631,4.1054 0.0302,0.311231 0.0616,0.587562 0.13001,0.879729 0.0763,0.322468 0.0841,1.041892 0.55422,1.205522 0.6119,0.212893 1.92955,-1.375896 2.34595,-1.792009 m -12.80494,0.390993 c 1.54441,0.04066 2.50236,-0.01255 3.81217,-0.879728 0.48091,-0.318267 1.03028,-1.244036 0.391,-1.743135 -0.38806,-0.303506 -1.2375,-0.211818 -1.75947,-0.211818 -0.33333,0 -0.48482,0.0054 -0.87972,0 -0.30693,-0.0043 -0.74288,-0.03919 -0.8631,-0.39099 -0.0772,-0.223452 0.003,-0.47261 0.0977,-0.684235 0.23851,-0.536535 0.5122,-1.13299 0.96085,-1.547638 0.31379,-0.289917 0.62463,-0.742587 0.97748,-0.309564 m -8.21079,0 c -0.58521,1.022574 -0.80341,2.400632 -1.75593,3.128688 1.00369,0.727207 1.35802,1.363549 2.34243,1.954185 m 27.27158,-4.691883 0.87972,0.684232 M 85.536014,51.27668 c 0.328037,0.06911 0.692644,0.238308 0.97748,0.309568 1.013674,0.262696 1.766852,0.353659 2.834661,-0.130396 0.50251,-0.237234 1.038473,-0.655985 1.46622,-1.0589 0.253179,-0.238505 0.436238,-0.540935 0.553945,-0.879728 0.434484,-1.251462 -0.293922,-2.211344 -1.531425,-2.606635 -1.052729,-0.336252 -2.61183,0.03394 -3.655649,-0.003 -0.04482,0.425886 0.158247,0.406049 0.250817,0.850116 0.161945,0.777583 0.306139,1.42037 0.48874,2.150447 0.294083,1.670487 1.119621,3.892047 1.156638,5.473867 m -17.301329,-8.504042 0.09774,1.172971 m 72.528738,0.09775 c 0.55716,0.604959 0.95401,1.377461 1.25409,2.150447 0.25551,1.137698 1.186,2.310261 1.58058,3.323419 M 134.99634,51.96088 c -0.11921,-0.567716 -0.40956,-0.994093 -0.48876,-1.56396 -0.0196,-0.142225 -0.1437,-0.466356 -0.11435,-0.586487 0.141,-0.892368 0.81658,-1.625685 1.28734,-1.417341 0.37243,0.186015 0.7165,0.837602 0.86312,1.1241 0.11529,0.224135 0.15933,0.259421 0.29324,0.488739 0.2864,0.490493 0.30986,1.564547 0.60311,2.150445 m -0.53283,-1.998597 c 0.0956,-0.568948 0.35664,-1.9154 1.3148,-1.813561 0.44379,0.04379 0.56303,0.627052 0.68424,0.977478 0.0998,0.287084 0.16812,0.492454 0.22775,0.78198 0.18572,0.890775 0.36363,1.53718 0.55423,2.443691 m -6.1581,-4.105401 c 0.57767,0.732032 0.59514,0.828339 0.85818,1.382321 M 75.663585,49.028482 c 0.760049,0.77461 1.495232,0.15023 2.052687,-0.228042 0.923507,-0.60291 2.534582,-2.226594 1.17296,-3.127923 -0.462834,-0.306343 -0.907685,-0.241244 -1.238179,0.228044 -0.412964,0.586387 -0.884411,1.872844 -0.912261,2.541436 -0.06251,0.574119 -0.133515,1.060249 -0.19548,1.66171 -0.03105,0.292967 -0.0166,0.501248 0.06521,0.78198 0.727663,1.57783 1.98381,0.04477 3.062729,-0.684232 M 97.754548,49.12623 c 0.718726,-0.04149 1.435062,-0.100656 2.150427,-0.179171 l 1.661695,0.08143 m 8.21085,0.09774 h 0.78197 m 39.78328,0.537613 c 0.60896,-0.304486 1.25997,0.370071 1.05861,1.026347 -0.21309,0.698604 -1.66465,1.603356 -2.13383,1.401018 -0.26978,-0.116221 -0.13,-0.554426 -0.0655,-0.814531 0.12703,-0.508483 0.63341,-1.359279 1.14072,-1.612834 m -18.76755,1.221844 0.58648,1.466215 M 61.978944,50.983437 c 0.600749,0.243821 1.69765,0.629389 2.0527,0.700557 0.07506,0.01255 0.774157,0.173502 0.977453,0.179171 1.023731,0.02844 2.162968,-0.507114 1.922412,-1.661709 -0.612967,-2.942005 -4.272544,-1.669334 -5.40877,-3.714407 -0.54513,-0.981192 0.924776,-2.35904 1.922411,-2.248195 0.615222,0.06832 1.104624,0.572605 1.466221,0.78198 m 78.491359,6.353592 0.87972,-0.195496 c 0.5044,-0.12443 1.06091,-0.07301 1.46621,-0.09775 0.18182,-0.0051 0.72626,0.0911 0.97748,0.09775 m -5.45449,-0.548618 c -0.11246,0.534485 0.11556,1.411827 0.27387,2.014833 m 7.56737,-0.745051 c -0.12312,0.424616 -0.28029,1.628886 0.44792,1.885473 0.38416,0.135184 0.8553,-0.02464 1.17298,-0.179272 0.34993,-0.169982 0.59235,-0.377207 0.97748,-0.553837 0.31279,-0.143395 0.5808,-0.160305 0.86035,-0.21182 m -92.645363,2.736934 0.195507,0.879728 0.08141,0.390991 0.24439,1.172972 0.749411,3.127921 0.684247,1.857205 m 1.07522,-5.473864 c 0.138011,-0.149847 0.238397,-0.331952 0.407295,-0.439864 0.201163,-0.128642 0.695398,-0.172426 0.961172,-0.146622 0.666346,0.0648 1.436412,0.5554 1.46622,1.270718 0.01391,0.333028 0.0041,0.68482 -0.09774,0.977477 -0.08343,0.240264 -0.12096,0.407606 -0.309582,0.570161 -0.152361,0.131368 -0.313456,0.113481 -0.472392,0.146622 -0.235966,0.04917 -0.620797,0.115249 -0.879727,0.162945 m 24.925623,-0.195496 c -1.28775,0.09058 -2.123426,-0.74612 -2.714523,0.321745 0.152779,1.206765 0.265936,1.508367 1.052823,2.512925 l 1.466194,1.270718 m 27.720915,-0.547065 c -0.21989,-0.988356 -0.46062,-1.993615 -0.77482,-2.874089 -0.20332,-0.636532 -1.19056,-2.681802 -0.0655,-2.916104 0.76047,-0.158448 1.83668,0.200187 2.3137,0.863403 0.33623,0.468309 0.81001,1.539488 0.66045,2.013073 -3.70877,1.632875 -1.56368,-1.128125 0.54202,1.074774 l 0.37714,1.408532 0.30985,0.977476 M 75.956845,57.728017 c 0.875799,1.109339 1.214405,3.316282 1.596509,4.691886 0.222966,0.802507 0.421875,0.574463 0.651658,1.368464 m 52.588218,-0.78198 c 0.26098,0.205858 0.5904,0.355217 0.87973,0.423542 0.18279,0.0432 0.28347,0.06519 0.48874,0.06519 0.2297,0 0.38024,-0.04702 0.58648,-0.08142 0.5122,-0.08533 0.92567,-0.262943 1.36847,-0.570261 0.31865,-0.221594 0.84651,-0.640148 0.74974,-1.107774 -0.35484,-1.70374 -3.36253,-0.726459 -4.12204,-1.857204 -0.4164,-0.620013 -0.0392,-1.804418 0.73312,-1.922403 0.47406,-0.07233 1.07815,0.309081 1.4662,0.553936 M 68.039291,58.021261 c 0.405837,0.571238 0.384912,1.239634 0.505062,1.857203 0.09666,0.497341 0.176606,0.902114 0.293233,1.368467 0.163336,0.65354 0.288738,1.452433 0.667898,2.052702 m 73.310726,-4.398642 c -0.21407,-0.213777 -0.65296,-0.718252 -1.07524,-0.84718 -0.1945,-0.05943 -0.35775,-0.03255 -0.58648,-0.03255 -0.20331,0 -0.49362,-0.08319 -0.63536,0.114075 -0.24828,0.345046 0.0293,0.784911 0.0489,1.254392 0.0175,0.422075 0.0918,0.970635 0.0977,1.368466 0.004,0.270078 0.0763,0.338013 0.11434,0.586487 0.0628,0.927849 0.0175,1.815776 -0.0821,2.639186 0.0296,0.702543 2.43165,0.0769 3.09567,-1.2e-5 m -21.74025,-0.332203 c -0.19453,-0.926062 -0.37223,-1.645029 -0.61171,-2.600216 -0.26173,-2.311651 -1.57803,-2.903437 1.14073,-2.541441 0.39784,0.0607 0.81617,0.26089 1.17296,0.488739 0.48386,0.309373 0.91786,0.602125 1.36847,1.010027 0.56695,0.513371 0.61972,1.583218 0.391,2.215644 -0.84598,1.552958 -2.72018,1.459944 -3.90991,1.466215 m 31.27924,-5.473869 c 0.045,1.70677 1.04396,3.616758 1.36847,5.376118 m 2.54144,-5.27837 c 1.88457,0.148773 2.50136,2.960482 1.92269,4.398642 -0.19157,0.474465 -0.43399,0.830267 -0.84747,1.140421 -0.73799,0.553446 -1.56396,0.335667 -2.03608,-0.456189 -0.24925,-0.417186 -0.24046,-1.081381 -0.14663,-1.56396 0.14271,-0.736138 0.27273,-1.334354 0.42326,-2.150447 m -84.653121,0.900509 c 0.176148,-0.224527 0.517036,-0.576649 0.669208,-0.786613 0.246739,-0.340553 0.185787,-0.877328 0.389677,-1.175265 m -1.152953,2.625329 c -0.04252,0.43781 -0.08343,1.192521 0.228042,1.547638 0.585414,0.667324 2.106862,0.567426 2.899892,0.277015 0.728986,-0.266947 0.350919,-1.235625 0.228028,-1.726905 -0.246509,-0.986174 -1.005546,-2.670304 -2.01251,-2.781961 -1.108214,-0.403397 -1.287143,1.999549 -1.343452,2.684213 z m 92.273749,-1.954951 c 0.8022,-0.02456 1.62089,0.0028 2.34594,0 m -31.37697,-0.293244 h 1.56396 l 0.48874,0.130302 0.29323,0.651684 0.21212,0.586484 0.43986,1.172972 0.52099,1.661708 m -1.50624,-4.077689 c 0.44964,0 1.10451,-0.005 1.70174,0.167786 m 11.82746,-0.195496 0.21211,0.977476 1.35185,3.421166 M 98.732028,61.637918 c 0.707305,-0.118044 1.097765,-0.190781 1.759452,-0.325801 l 1.27072,-0.0652 m 61.77649,-1.857195 c 0.15835,0.429602 0.54152,2.373508 1.07522,2.50889 0.49851,0.126292 2.08692,-0.680226 2.4437,0.03255 0.21211,0.424419 0.33919,0.89781 0.29323,1.368467 -0.0313,0.319927 -0.1192,0.613852 -0.39098,0.847177 -0.95471,0.707509 -2.5128,0.652745 -3.42117,-0.06521 m 8.99277,-3.030175 c 0.40762,-0.516012 0.91493,-1.282449 1.66172,-1.531412 0.30399,-0.101169 0.71454,-0.100588 0.84747,0.260694 0.12515,0.341919 0.0547,0.696451 0,0.977474 -0.045,0.227557 -0.10071,0.447195 -0.14662,0.684235 -0.14955,0.76722 -0.49637,2.184885 -0.68423,2.834679 -0.081,0.280033 -0.17876,0.660793 -0.29448,0.773523 0.61696,-0.588822 1.77093,-0.612951 2.48448,-1.176074 m -7.82711,-3.702847 c -0.0724,0.15747 -0.0136,0.319634 -0.0166,0.488738 -0.009,0.746694 -0.1388,1.481951 -0.0323,2.248193 0.1026,0.740243 0.45159,1.842739 1.17296,2.313394 0.43401,0.283563 0.94034,0.166952 1.23846,-0.260693 0.28836,-0.414548 0.37047,-1.398084 0.32551,-1.857205 -0.0587,-0.600269 -0.5122,-1.498079 -0.91199,-2.052699 -0.18181,-0.251895 -0.33626,-0.534386 -0.57085,-0.749432 -0.59307,-0.427362 -0.8466,-0.898192 -1.20522,-0.130302 z m -60.55464,4.398642 c -0.1691,-0.535853 -0.42814,-1.116571 -0.48874,-1.661711 -0.0166,-0.146327 -0.0832,-0.456578 -0.0655,-0.586484 0.13669,-0.931635 0.26749,-0.879402 0.35874,-1.563963 0.0567,-0.406725 0.44767,-1.106208 0.97748,-0.863403 0.75559,0.346417 1.17003,1.447349 1.46622,2.134122 0.11137,0.257664 0.0752,0.353259 0.0977,0.586485 0.0518,0.533506 0.24733,1.036809 0.58651,1.466215 m -45.628487,-4.27935 c 0.417231,-0.08828 1.219265,0.487622 1.642125,0.955929 0.396522,0.439141 0.594391,1.091647 0.586493,1.661711 -0.0027,0.188065 -0.0054,0.320415 -0.09774,0.488736 -0.289832,0.527546 -0.793611,0.721574 -1.466234,0.684235 -0.396441,-0.02201 -0.523921,-0.225408 -0.879727,-0.472416 -0.27702,-0.192466 -0.545818,-0.25815 -0.781973,-0.407313 m 26.406126,-0.981713 c 0.179239,-0.425789 0.302818,-1.180659 0.963211,-1.543401 0.284647,-0.156395 1.238165,-0.356779 1.238165,0.276918 0,0.442308 -1.086385,0.956461 -1.433672,1.091548 -0.21573,0.08386 -0.473472,-0.02072 -0.68422,0.113967 -0.267826,0.171256 -0.191295,0.392456 -0.260712,0.749432 -0.06466,0.332437 -0.136269,1.331027 0.08154,1.531409 0.277533,0.255318 0.767245,-0.02923 1.058926,-0.146619 0.997784,-0.401938 2.048785,-0.764386 2.83466,-1.38479 m -0.879727,1.270719 c 1.40601,0 2.164318,0.187187 3.518907,-0.358442 0.30321,-0.122081 0.74582,-0.327649 0.700852,-0.619034 -0.03226,-0.205858 -0.226462,-0.296665 -0.407592,-0.407317 -0.394604,-0.241142 -0.911776,-0.527443 -1.368467,-0.635358 -0.447484,-0.105664 -0.93185,0.03177 -1.368466,-0.146622 -1.018764,-0.576464 1.201526,-1.556003 1.6617,-1.84088 m -12.609422,1.172971 0.97748,0.09775 0.879727,-0.211818 c 1.498755,-0.739161 0.229919,-2.654017 -0.586493,-3.095264 -0.634297,-0.317193 -2.622873,-0.01751 -2.671743,0.863402 -0.02187,0.392068 0.331857,0.980214 0.423536,1.368467 0.33295,1.410009 1.037109,3.205146 1.759467,4.398642 m 19.35403,-3.567793 c 0.70768,-0.0393 0.73799,0.294907 1.27071,0.716783 0.21797,0.172526 0.31377,0.164022 0.47211,0.325893 0.17205,0.174186 0.20332,0.348762 0.21214,0.570161 0.0489,1.176391 -1.06742,2.39032 -2.34595,2.248195 -0.37634,-0.04184 -0.78688,-0.412691 -0.86311,-0.781983 -0.0392,-0.184252 -0.0166,-0.282392 -0.0166,-0.488736 0,-0.677588 0.0645,-1.270327 0.42324,-1.857204 0.10071,-0.164217 0.17791,-0.243783 0.2776,-0.390991 0.17007,-0.251408 0.23362,-0.323446 0.56987,-0.342118 m 2.73694,-0.04887 0.49589,1.016442 0.31033,0.669511 m 69.47429,-0.610732 c 0.56206,-0.340259 1.35968,-0.640832 1.95496,-0.814531 0.71063,-0.207222 1.02732,0.512002 0.97748,1.107774 -0.0841,1.006215 -0.28054,1.813121 -0.29324,2.736932 -0.005,0.334004 0,0.438986 0,0.78198 m -38.79117,-4.182364 c 0.67936,-0.133946 1.35872,-0.157165 2.03808,0.07696 m -41.2495,3.030178 -1.33619,-2.248195 C 99.90438,61.266259 99.442046,59.707604 98.829889,59.29197 m 61.287741,2.150437 c 0.56986,0 1.81615,0.195493 2.54144,0.195493 m -87.581844,5.962605 c 0.219725,0.629323 0.343601,0.813814 0.358424,1.270719 0.03699,0.668103 0.460782,1.691618 0.651577,2.34594 0.120555,0.413082 0.123795,0.703685 0.358438,1.075225 m -4.594127,-4.398642 c 0.261873,0.20791 0.475645,1.133774 0.651699,1.661709 0.277182,0.831831 0.640439,2.095512 1.010001,2.834681 m 37.730582,-3.812158 1.66172,-0.162946 0.97746,-0.03255 0.66763,0.04887 0.22873,0.928603 0.37435,3.225669 m 16.12837,-4.203146 c 0.48206,1.279048 0.29503,1.982634 0.58648,3.421166 m -67.641343,0.390993 c -0.56488,0.766539 -1.269444,1.040036 -2.248193,0.944929 -0.183573,-0.0179 -0.529119,0.01535 -0.68422,0.03255 -1.214,0.146791 -1.140412,-0.320057 -1.17296,-1.17297 -0.0095,-0.720009 -0.09774,-1.360354 -0.09774,-2.052702 0,-0.170277 -0.03712,-0.438299 0.04887,-0.586483 0.364432,-0.252891 0.720953,-0.627175 1.124076,-0.798305 0.967626,-0.389719 2.089461,0.02472 2.525119,0.896051 0.32346,0.646798 0.505062,1.377363 0.505062,2.052701 0,0.270759 -0.194319,0.64347 0.195507,0.765657 0.465074,0.145838 0.631354,-0.575734 0.847164,-0.863406 0.09409,-0.12551 0.155034,-0.258443 0.260591,-0.39099 0.330398,-0.414841 0.672812,-0.682278 1.140438,-1.058899 0.632718,-0.509755 1.607957,-1.223897 2.443674,-0.635361 0.293854,0.206932 0.365471,0.370368 0.505061,0.716784 0.09666,0.240167 0.262562,0.524024 0.276912,0.78198 0.02849,0.51259 -0.322069,0.620895 -0.68422,0.977477 -0.67396,0.663608 -2.038417,1.020094 -2.932413,1.156648 -0.513297,0.07849 -1.525958,-0.451823 -1.368467,-0.893455 m 36.166592,-3.488865 c 0.45846,-0.148674 0.4614,0.259324 0.68425,0.586486 0.13392,0.196866 0.2952,0.412203 0.42323,0.586487 0.78465,0.733192 1.54701,1.841802 2.31371,2.639185 m 0,-3.32342 c -0.44477,0.117099 -1.03908,0.537613 -1.36846,0.798306 -0.85571,0.769315 -2.2282,1.289258 -2.93246,2.231869 m 22.57971,-2.639184 c 0.47505,-0.437322 1.95886,-1.533854 2.4603,-0.586484 0.39393,0.744347 -0.10125,2.048013 -0.41399,2.610452 -0.10854,0.196668 -0.71646,0.638568 -0.96548,0.70383 0.25654,-0.09998 0.71577,-0.09742 0.87411,-0.08861 0.55619,0.03089 1.16027,-0.200869 1.66172,-0.293241 m -41.542737,1.661708 c 0.782973,-0.06178 1.675808,-0.502814 2.248194,-1.075222 0.315346,-0.315334 0.712988,-0.745522 0.276912,-1.140422 -0.448065,-0.40575 -1.467071,-0.317873 -2.036366,-0.325793 -0.18553,-0.0024 -0.312875,-0.01388 -0.48874,-0.06519 -0.223829,-0.0653 -0.365161,-0.03764 -0.586466,-0.179172 -0.425317,-0.271934 -0.09099,-0.536049 0.09774,-0.733109 0.168331,-0.175748 0.273699,-0.274278 0.48874,-0.423537 0.517009,-0.35903 1.42244,-0.84679 1.95496,-0.944928 m 6.353581,0.195496 1.075233,-0.09775 1.270714,0.09775 0.488753,0.114075 2.345947,0.08143 m -38.257401,0.0055 -0.02052,0.380755 M 96.092806,68.90659 c -0.06669,0.411771 0.0405,0.823545 0.114075,1.235315 0.485527,0.693697 0.797661,1.485354 1.156652,2.248195 m 38.121557,-3.372293 c 0.32257,-0.15884 0.57183,0.04458 0.87974,0.04887 0.36361,0.0051 0.5816,-0.05864 0.87973,0.03255 0.50437,0.154149 1.01169,0.627832 1.36847,1.042673 0.58745,0.681889 0.6764,1.466215 -0.19551,1.938628 -0.97161,0.526469 -2.92754,1.069163 -3.90991,0.277016 -0.88169,-0.710917 0.24341,-2.977976 0.97748,-3.339742 m -53.370172,0.146622 c 0,0.206445 0.02714,1.426919 -0.09774,1.531412 -0.201973,0.16881 -0.243702,0.09324 -0.521302,0.423542 -0.607108,0.722159 -1.367697,1.125758 -2.313398,1.335914 -1.433051,0.266202 -2.502277,-0.473792 -1.466194,-1.726905 0.564192,-0.625878 1.470608,-1.256645 2.248167,-1.645385 0.435375,-0.217685 0.868508,-0.32511 1.27074,-0.505065 m 46.527849,0.586487 c 0.22091,0.524318 -0.001,1.396521 0.50536,1.840883 0.62471,0.43074 2.78792,-1.087513 3.38108,-0.870128 m -13.6612,1.766179 c 0.74679,0.373297 2.22964,0.890088 3.1113,0.162945 0.19061,-0.156789 0.26792,-0.39314 0.26098,-0.651684 -0.009,-0.350522 -0.044,-0.641614 -0.2766,-0.977476 -0.93169,-1.475522 -1.89138,-0.661354 -3.30889,-0.239354 -0.32832,-0.138342 -0.45735,-0.507144 -0.47101,-0.835869 -0.009,-0.229706 -0.0459,-0.678465 0.19548,-0.765657 0.28348,-0.102438 0.46527,0.01729 0.78197,0.11398 0.52003,0.158936 1.295,0.531699 1.64982,0.796008 M 82.026291,70.7088 c -0.230094,0.57833 0.0891,0.603931 0.136957,0.811589 m -12.266791,-0.303261 0.586493,0.781983 m 19.549536,0.488739 -0.29326,1.172969 -0.977494,2.150447 m -28.5177,-2.887046 c 0.139212,0.247615 0.08235,0.439309 0.07614,0.703484"
       id="path352"
       sodipodi:nodetypes="cssccccssssscccccssccsssccccsccssscccccccccccccccccscscsccssscccsssssscccccccccccsssssssssscccscccccsccccccccccccccccccccsccccscsssscccccccccsssccsssscccccccccccscccsccccscsscscccccsssccccscccccscccccsccssscccccsccccsccsccccccccccccccsssssssssscsscccsccsscsccccccccssccccscscscsscccccscccscccscccccsssccscccccscssccccsssccsscsccsccccccccccccccccccssccccscccccccssscsccsccscssccccsscccccccccccccsccssccccccccscscscccccccccccssccccccccccccscsccccccccccccccscccccccccccscccccccccccccccccccssscccccccccccccccccccccsscsccccccccccccccsccsscccsccccccccscsccccccccccccccccccccsccsscccccccccccccccccccccccccccccccsccccccccccccccccccccscsscccsssssscccscsccccccccscccccscsccccccccccccccccccccccccccccccccccsccsccssssscscssccccccccccsccsccsscscscccccccccccccsccssccccccscccccccccccccccccccccc" /></g></svg>
