<?xml version="1.0" encoding="UTF-8" standalone="no"?>
<!-- Created with Inkscape (http://www.inkscape.org/) -->

<svg
   width="3000"
   height="1998.207"
   viewBox="0 0 793.74998 528.69228"
   version="1.1"
   id="svg202"
   inkscape:version="1.2.1 (9c6d41e410, 2022-07-14)"
   sodipodi:docname="KevinV - Stake - Insert37.svg"
   xml:space="preserve"
   xmlns:inkscape="http://www.inkscape.org/namespaces/inkscape"
   xmlns:sodipodi="http://sodipodi.sourceforge.net/DTD/sodipodi-0.dtd"
   xmlns="http://www.w3.org/2000/svg"
   xmlns:svg="http://www.w3.org/2000/svg"><sodipodi:namedview
     id="namedview204"
     pagecolor="#ffffff"
     bordercolor="#000000"
     borderopacity="0.25"
     inkscape:showpageshadow="2"
     inkscape:pageopacity="0.0"
     inkscape:pagecheckerboard="0"
     inkscape:deskcolor="#d1d1d1"
     inkscape:document-units="px"
     showgrid="false"
     inkscape:zoom="0.70710678"
     inkscape:cx="457.49809"
     inkscape:cy="209.30361"
     inkscape:window-width="1366"
     inkscape:window-height="705"
     inkscape:window-x="-8"
     inkscape:window-y="-8"
     inkscape:window-maximized="1"
     inkscape:current-layer="layer1" /><defs
     id="defs199"><pattern
       id="EMFhbasepattern"
       patternUnits="userSpaceOnUse"
       width="6"
       height="6"
       x="0"
       y="0" /></defs><g
     inkscape:label="Layer 1"
     inkscape:groupmode="layer"
     id="layer1"><path
       style="fill:none;stroke:#636079;stroke-width:0.0806643"
       d="m 60.114761,1.9846291 c 0.02844,0.1260756 -0.07776,0.7353523 -0.149934,0.8146167 -0.32327,0.9036815 -0.111915,0.3704422 10e-4,1.4126331 m -0.36092,-0.8124893 c -0.247559,0 -1.164839,0.1866553 -1.49435,0.3285034 -0.496974,0.2139862 -0.751389,0.4843243 -1.062108,0.779749 -0.141969,0.1350319 -0.594092,0.4296017 -0.685646,0.5915433 -0.08825,0.1561416 -0.06171,0.2605698 -0.0134,0.4033211 0.08131,0.2407102 0.316769,0.3193982 0.551179,0.322657 0.251108,0.00348 0.508507,0.03521 0.806643,-0.026893 0.461882,-0.096233 0.774458,-0.2837041 1.1293,-0.5646497 0.469464,-0.3716445 0.675562,-0.6993591 1.1293,-1.0217419 l 0.403321,0.645314 m 1.613284,-2.984577 0.184627,0.312151 m 3.767922,-0.1508223 c 0.224086,0.6082406 0.420101,1.2666304 0.564654,1.6939494 0.159316,0.4540751 0.462855,0.9896939 0.645317,1.4519564 M 50.447444,5.0991858 c -0.459223,0.4471299 -1.052426,0.7989793 -1.693951,1.0217417 -0.676934,0.2350557 -1.353384,0.5016752 -2.016605,0.510879 -0.310799,0.00431 -0.478661,0.031314 -0.725979,-0.094103 -0.515444,-0.2613602 -0.525366,-0.9325513 -0.483986,-1.3578536 0.117931,-1.2127467 1.183507,-2.556387 2.339264,-2.9576836 0.153263,-0.053224 0.259658,-0.061239 0.403322,-0.067226 0.517057,-0.021544 0.947158,0.3395964 1.1293,0.6856462 m -10.889675,-0.645314 0.161327,1.0486351 0.16133,1.6132849 0.161327,0.5646499 c 0.174317,-0.100911 0.295474,-0.1793571 0.416794,-0.4033213 0.05663,-0.1046216 0.222389,-0.4965369 0.336047,-0.645314 0.427762,-0.5599954 1.209882,-1.0456586 1.90908,-0.9679709 1.38323,0.1536977 0.964262,2.1289312 0.806643,2.9845772 m -7.340447,0.080664 c 0.268209,0.056473 0.3667,0.2032982 0.645313,0.2419929 0.630472,0.087569 1.318459,-0.2699752 1.774613,-0.6184205 C 37.835669,5.8691017 38.36789,5.3556011 38.24028,4.9378572 38.085243,4.430584 37.396531,4.2118789 36.976513,4.2118789 c -0.297571,0 -0.80858,-0.016456 -1.048635,0.026893 -0.322175,0.058176 -0.566021,0.1176896 -0.967973,0.1344356 -0.680805,0.02837 -0.213438,-0.6138873 0.08067,-0.8738681 0.196176,-0.1733959 0.372345,-0.3051448 0.564651,-0.4974241 0.264658,-0.2646272 0.496971,-0.4742011 0.806641,-0.645314 M 56.013278,2.544823 c 0.451719,-0.039864 0.102927,0.5457016 -0.02686,0.6990847 -0.264256,0.3122271 -1.151564,0.8574932 -1.505759,0.7394169 -0.279745,-0.09324 -0.17472,-0.3227134 0,-0.497424 0.33395,-0.3339178 0.96305,-0.8908239 1.532621,-0.9410776 m -26.8612,3.8449905 c -0.351775,0.1573679 -0.863671,0.4557852 -1.371291,0.4839854 -0.126563,0.00703 -0.187303,0.00188 -0.322657,0 -0.162377,-0.00226 -0.226748,1.774e-4 -0.403322,-0.053771 C 26.513471,6.6546102 26.223807,6.3233382 26.167503,5.7444998 26.117571,5.2305152 26.351981,4.7150786 26.557352,4.2925432 26.71513,3.9680874 26.722633,3.7257963 26.906951,3.4859009 27.035773,3.3181434 27.112417,3.231607 27.236558,3.09134 27.36667,2.944402 27.433769,2.8345047 27.619459,2.7061517 28.237428,2.2790265 28.894035,3.0379723 28.910086,3.6472293 M 52.464049,5.9058282 C 52.127438,5.3728149 51.421464,4.241015 51.280947,3.566565 c -0.06937,-0.3332886 -0.04154,-0.6759503 0.295797,-0.8469746 0.339435,-0.1720891 0.877062,0.078535 1.209962,0.1478899 0.346535,0.072186 0.682744,0.040493 1.048637,-0.026893 m -20.300535,0.806642 c -0.03807,0.1960463 -0.02686,0.2739679 -0.02686,0.4839855 0,0.2313127 -0.01427,0.5989239 -0.120995,0.8066424 -0.150761,0.2933275 -0.300877,0.3090489 -0.457123,0.5646497 -0.297572,0.486946 -0.765264,1.044231 -1.277158,1.3712923 -0.335161,0.2141394 -0.883114,0.4952867 -1.290629,0.3764279 -0.478743,-0.139646 -0.673427,-0.9634475 -0.7332,-1.3546851 -0.108964,-0.5197149 0.381072,-1.2720464 1.05521,-1.909833 0.33707,-0.3188932 0.774957,-0.5341829 1.097424,-0.8273759 0.294577,-0.267835 0.748682,-0.3644198 1.062407,-0.3951873 0.59945,0.279342 0.748604,0.5877796 0.690924,0.8840835 z M 18.90772,3.0019153 C 18.479715,3.3142714 17.364222,5.2089516 16.916695,5.7575571 M 7.9599708,3.1549757 c 0.134691,0.8393139 0.1232382,1.4699435 0.2700753,2.4953512 -0.1955614,0.7326029 0.2739166,1.5471629 0.110662,2.433437 M 19.775425,5.2832028 c 0,0 0.181333,-0.436351 0.328787,-0.7486669 0.08018,-0.169774 0.07663,-0.2487847 0.18827,-0.4033211 0.146568,-0.203032 0.235137,-0.3076051 0.403322,-0.4839855 0.233442,-0.2449289 0.257803,-0.2453322 0.631843,-0.4167598 0.284099,-0.1302245 0.706296,-0.1151967 0.846975,0.1747671 0.197627,0.4071688 -0.520687,0.9643005 -1.209964,1.4922884 -0.500962,0.2986586 -0.698353,0.2946149 -1.189233,0.3856778 z m -4.416933,-1.8779662 0.255464,1.3712922 0.16133,0.645314 -0.01347,0.4839854 V 8.0837629 M 67.628934,3.4859009 C 66.609616,3.7751322 65.745056,3.7306853 64.80568,4.0505507 M 13.236615,3.6988566 c 0.372676,0.3218664 0.427926,0.6914434 0.427926,0.9970078 0,0.2037175 0.01822,0.5636413 -0.120997,0.7932039 -0.152529,0.2515352 -0.314663,0.2538666 -0.510839,0.4974242 -0.257562,0.3196644 -0.541015,0.6288664 -0.806643,0.9142002 -0.125916,0.1351851 -0.270066,0.2807369 -0.437364,0.3670798 -0.49407,0.2550119 -0.850844,0.66802 -1.431385,0.46644 C 9.7756435,7.5322373 9.873327,6.9038627 9.873327,6.3898138 9.8448595,5.4697582 10.776636,4.467002 11.325284,4.1177768 11.774908,3.8429939 12.386019,3.7142135 12.212591,4.3732082 M 9.6932499,5.7268836 C 9.574704,5.7038378 9.2400978,5.6638362 9.1473487,5.6638362 c -0.5397072,0 -0.6004721,0.00237 -0.9917167,-0.0486 L 7.6044416,5.6472994 6.646757,5.5831719 M 54.346154,3.8932588 C 54.0218,4.153721 53.616691,4.3388391 53.364832,4.6152009 c -0.195045,0.2420492 -0.370492,0.6214454 -0.08067,0.8604132 0.137856,0.1137205 0.301444,0.092821 0.470516,0.1209965 0.666771,0.1111312 2.044193,-0.1893514 2.419927,-0.41676 m 6.211153,-1.2099637 c 0.109784,0.5215023 0.480598,0.9962197 0.322657,1.3712923 M 33.346626,5.0185219 c 0.332013,0.3710796 0.191818,0.3384106 0.322656,1.0486353 M 19.79503,5.2605149 c -0.534562,0.5490008 -1.017417,1.7059361 -0.241992,2.1779347 0.215857,0.1313941 0.3959,0.1682575 0.645314,0.1613286 0.652895,-0.018141 1.325879,-0.5843561 1.855278,-0.9814097 0.249574,-0.1871652 0.494875,-0.3383461 0.725978,-0.551211 m -6.937125,-0.645314 c 0.744142,0.039502 0.98718,0.2875405 1.613285,0.6453137 l 1.048635,1.2099637 M 38.993123,5.4218435 V 6.3091502 M 13.548793,5.4819349 c 0.109462,0.3782105 0.277085,1.2815805 0.277085,1.8758503 M 2.3715518,8.1644279 C 2.9382855,8.6217874 3.7622603,8.6238407 4.388155,8.5677485 4.8120531,8.5265372 5.2919168,8.2333307 5.5040077,7.8417702 5.6699652,7.5353914 5.8401116,7.1286741 5.8401116,6.7931349 5.8401116,6.5696708 5.7113219,6.2334783 5.5981173,5.9864925 5.1983468,5.1142619 4.280621,5.2063642 3.5008471,5.2605142 3.3029054,5.2742586 3.2072363,5.2733074 3.0168608,5.2874076 2.9113618,5.2952231 2.8096585,5.3407429 2.694204,5.3277398 2.5420641,5.3105907 2.4424667,5.2663947 2.3849944,5.0991858 2.2829367,4.8023009 2.5407813,4.2498477 2.6807568,3.9698862 3.0594774,3.212457 3.9934308,2.663327 4.4688175,3.566565 m 69.0486095,6.61447 c 0.03178,-0.4021928 0.519156,-0.8047074 1.048635,-1.0620748 0.160603,-0.078083 0.220213,-0.1163017 0.403322,-0.1747831 0.223761,-0.071485 0.48092,-0.1878752 0.725978,-0.2150995 0.228602,-0.025401 0.510282,-0.01106 0.551179,0.2419929 0.05267,0.3257061 -0.556584,0.6791124 -0.793173,0.8335036 -0.350484,0.2287649 -0.993943,0.3411299 -1.371292,0.4302639 -0.315719,0.07453 -0.687663,-0.166088 -0.927638,0.188189 -0.32177,0.474952 0.2015,0.976925 0.524316,1.075497 0.942483,0.288052 2.274894,-0.290956 3.22657,-0.591511 m -4.759191,0.241993 c -0.644589,0.203516 -1.918519,0.990476 -2.487122,0.37646 -0.550694,-0.594738 0.544969,-1.8562465 0.954501,-2.2183 0.137291,-0.1214076 0.269581,-0.3189706 0.403321,-0.4033211 0.165041,-0.1041053 0.282245,-0.00286 0.403322,0.067226 m -30.410425,0 c 0.181484,0.1715828 0.351883,0.3494995 0.457124,0.5646497 l 0.322657,0.7259784 0.349519,0.806642 m 0.564649,-2.0972701 c 0.251511,0.3185593 0.187302,0.6417646 0.268854,0.967971 0.0292,0.1166401 0.215132,0.3629891 0.215132,0.3629891 0,0 0.255462,-0.139468 0.510844,-0.3629891 0.277486,-0.2427994 0.811002,-0.439459 1.183105,-0.4033213 0.339838,0.033072 0.583767,0.348873 0.699118,0.6453144 0.09954,0.255947 0.107525,0.589978 0.107525,0.887306 m 13.954917,0.806643 c -0.32661,-0.232071 -0.519478,-0.399046 -0.887307,-0.725978 -0.13471,-0.119787 -0.349115,-0.214648 -0.470514,-0.336128 -0.133985,-0.133903 -0.14205,-0.229571 -0.268935,-0.389851 -0.137048,-0.173105 -0.366135,-0.321366 -0.403321,-0.5646498 -0.04404,-0.2886167 0.212953,-0.493528 0.497456,-0.5646497 0.368797,-0.092191 0.665641,-0.04877 0.96797,-0.1075577 0.286521,-0.055707 0.821405,-0.1027421 1.1293,0.026893 M 39.315782,10.490221 c 0.244494,-0.101879 0.276437,-0.240944 0.483987,-0.295715 0.187947,-0.04961 0.439218,0.04461 0.564651,0.09405 0.168102,0.06631 0.699438,0.666529 0.793171,1.021774 0.05848,0.221585 -0.0046,0.395578 -0.147858,0.56465 -0.277728,0.327739 -0.600545,0.523269 -0.967972,0.752839 -0.536577,0.335402 -1.800749,0.82689 -1.734282,-0.846932 0.264608,-0.894766 0.610353,-1.125547 1.008303,-1.290666 z M 49.156819,9.5357202 C 49.52852,9.3107637 50.692507,9.320621 51.334754,9.320621 c 0.18682,0 0.283214,-0.026893 0.483986,-0.026893 0.488422,0 1.206254,0.036646 1.693949,0.2419927 m -2.177935,-0.1613286 0.01347,0.322657 0.174717,0.7259789 0.295797,1.371293 -0.161328,1.048635 M 62.385756,11.552328 C 62.03398,11.2283 60.746577,10.285577 61.202653,9.7105201 61.448276,9.400842 61.89935,9.4644941 62.224426,9.4012858 c 0.572718,-0.1113571 1.396542,-0.026894 2.016608,-0.026894 m 3.710556,0.080664 c 0.0134,0.1700404 0.123174,0.5597302 -0.01347,0.6991182 -0.210451,0.214647 -0.252478,0.130353 -0.497374,0.430182 -0.449544,0.550211 -1.863022,1.937152 -2.715723,1.492289 -0.635475,-0.33153 -0.269904,-1.187539 0.0538,-1.653618 0.120432,-0.173508 0.471159,-0.6004647 0.591511,-0.6856463 0.171249,-0.1211577 0.270547,-0.1560854 0.403322,-0.2151315 0.193432,-0.08594 0.783814,-0.067193 1.048635,-0.067193 M 53.92067,10.984205 c 0.256997,-0.488261 0.759957,-0.966677 1.527962,-1.2333533 0.24643,-0.085585 0.948612,-0.4638919 1.035165,0.026861 0.04816,0.2727263 -0.251431,0.4857613 -0.470514,0.6184533 -0.399613,0.241993 -1.001045,0.436636 -1.451957,0.524318 -0.259578,0.05041 -0.377671,3.2e-4 -0.645316,0.06719 -0.450024,0.112527 -0.757921,0.874481 -0.376459,1.277157 0.281517,0.297167 0.967083,0.320076 1.263767,0.188271 0.601433,-0.267322 1.19004,-0.4639 1.855278,-0.685646 0.217067,-0.07236 1.0104,-0.482131 1.1293,-0.56465 m -36.782901,2.124132 c 0.252156,0.106153 0.966438,0.252155 1.209964,0.241992 0.249737,-0.0104 0.553196,-0.08518 0.806641,-0.134468 0.164394,-0.03194 0.315237,-0.0455 0.483987,-0.08066 0.396383,-0.08252 1.130911,-0.500198 0.846975,-0.981361 -0.217794,-0.369039 -1.044926,-0.557712 -1.411624,-0.57812 -0.331209,-0.01839 -0.413648,-0.08066 -0.806643,-0.08066 -0.31451,0 -0.571104,0.0098 -0.806643,0 -0.173833,-0.0073 -0.810435,-0.06445 -0.954501,-0.255463 -0.184156,-0.24401 0.05114,-0.462852 0.228522,-0.56465 0.154633,-0.08865 0.397352,-0.158344 0.564649,-0.241993 0.490844,-0.24538 1.169632,-0.483985 1.693951,-0.6587045 0.378878,-0.1263205 0.582799,-0.1441471 0.96797,-0.2151318 M 11.325284,14.214246 c 0.506008,0.306283 0.999188,0.218681 1.532621,0.107527 0.808175,-0.168347 1.704679,-0.443089 1.505761,-1.398154 -0.100185,-0.480678 -0.213115,-0.873271 -0.699118,-1.021774 -0.260787,-0.0797 -0.717266,-0.0338 -0.96797,-0.02686 -0.14197,0.004 -0.328305,0.09236 -0.443654,-0.08066 -0.09873,-0.1481 -0.0463,-0.501248 -0.04033,-0.645314 0.01056,-0.253044 0.05759,-0.364038 0.1748,-0.645314 0.0588,-0.141082 0.07913,-0.289343 0.228522,-0.349518 0.19303,-0.07784 0.770667,0.163667 0.887306,0.188189 m 27.183855,-0.08066 c 0.415502,-0.12027 1.342912,-0.2880908 1.633543,-0.3722198 M 25.118875,10.181039 c 0.196418,0.713568 0.327117,2.467161 1.129295,2.406452 0.281197,-0.04291 0.350004,-0.242638 0.564651,-0.470514 0.159875,-0.169718 0.492254,-0.349539 0.492254,-0.349539 0,0 0.172174,0.250322 0.247194,0.430203 0.196499,0.471565 0.735095,0.528835 1.196495,0.483985 0.677336,-0.06582 1.242148,-0.455591 1.505759,-1.048635 0.227552,-0.512056 0.0968,-0.898035 -0.295797,-1.290628 m 38.01388,-0.273595 c 0.246447,0.608763 0.366311,0.78715 0.543638,1.160906 m -25.328579,-0.887311 0.08066,0.645314 M 8.2600431,10.423027 c -0.7251963,0.787364 -1.7850675,1.389039 -2.3527093,2.258599 -0.1258607,0.192788 0.1694317,0.539845 0.1694317,0.539845 0,0 0.3371411,0.196765 0.4914349,0.213948 0.6049903,0.06719 1.012949,-0.05645 1.611178,-0.363942 0.2328778,-0.119625 0.6073388,-0.465673 0.750783,-0.613289 0.152915,-0.157375 0.2744035,-0.271195 0.4188492,-0.516011 0.1215619,-0.206016 0.040332,-0.691534 0.040332,-0.9545 M 1.4035811,11.22967 c 0.216154,-0.0057 0.4154219,-0.02775 0.6453135,-0.107525 0.3867761,-0.134306 0.868924,-0.4055 1.2906272,-0.510928 0.2204962,-0.05509 0.5969485,-0.107687 0.7931959,0.08066 0.3499718,0.335967 -0.102563,1.138254 -0.241992,1.425096 -0.080825,0.166249 -0.1058305,0.334353 -0.241992,0.470514 -0.1455844,0.145599 -0.4982156,0.293699 -0.6318688,0.416792 M 35.729445,11.11795 c 0.244214,-0.169393 0.575385,-0.316726 0.875967,-0.354586 0.300582,-0.03786 0.547189,-0.07733 0.856138,0.02161 0.947304,1.032076 -0.801602,1.636901 -1.61433,1.990788 -0.194884,0.0839 -0.600465,0.246348 -0.79317,0.107525 -0.12519,-0.0901 -0.09654,-0.26958 -0.09414,-0.443653 0.0056,-0.403483 0.189803,-0.804949 0.336129,-1.209964 0.09244,-0.256109 0.03509,-0.512299 0.120997,-0.806643 0.06903,-0.413986 0.460479,-1.0295067 1.000689,-1.1623724 M 15.923148,10.745689 c 0.06397,0.607967 0.07542,2.152042 0.483984,3.065243 m 11.212332,-3.065243 c -0.08873,0.481566 -0.08341,0.711943 -0.322657,1.048636 M 1.3229167,11.229671 h 0.080665 m 7.9050967,0.806642 c 0.2964415,0.417277 0.2034363,1.269656 0.4839863,1.935942 M 3.6422666,12.599776 c 2.158692,0.233693 2.3679582,1.185402 0.5845634,2.084986 -0.6832816,0.332176 -1.2066812,0.309105 -1.935943,0.1748 m 45.49464,0.725978 0.967971,2.258598 M 34.55659,16.150189 c -0.21844,-0.208919 0.05856,-0.342177 0.322657,-0.389849 0.434377,-0.07849 0.72146,-0.116077 1.209962,0.08066 0.162782,0.0655 0.34226,0.08825 0.483987,0.18819 0.331288,0.233525 0.08639,0.428085 -0.08067,0.604983 -0.143099,0.151569 -0.248687,0.2624 -0.376459,0.403322 -0.321205,0.354437 -0.811966,0.481403 -1.075498,0.564649 m -9.599045,0.08067 h -0.645316 c -0.265626,0 -0.451718,0.04299 -0.725978,0.134467 -0.139953,0.04662 -0.475999,0.179478 -0.631841,0.06719 -0.203114,-0.146243 -0.05824,-0.419858 -0.120997,-0.685646 -0.151488,-0.641602 -0.319511,-1.012416 -0.134467,-1.451956 0.51367,0.216261 1.614978,0.04122 2.339261,0.403321 m 1.693951,-0.322657 c 0.154795,0.735255 0.241992,1.399444 0.241992,2.2586 0,0.191898 -0.05082,0.329594 0.04033,0.483984 0.122931,0.208275 0.305073,0.159473 0.443654,0.134467 0.641602,-0.115834 1.637644,-0.348307 2.177935,-0.618451 m 13.309601,-1.855278 0.806643,-0.322657 c 0.203855,-0.03841 0.419412,0.0051 0.645314,0.120995 0.337946,0.310959 0.291342,0.352733 0.430184,0.524319 -0.156699,0.456208 -0.476183,0.703121 -0.849858,0.88036 m -5.54948,-1.283682 c 0.579966,-0.115282 2.202377,-0.316841 2.352735,0.322657 0.0267,0.172298 -0.06316,0.242799 -0.14794,0.403321 -0.0826,0.156649 -0.05961,0.291844 -0.268854,0.416792 -0.191576,0.114302 -0.408322,0.172541 -0.645314,0.228522 -0.144308,0.03404 -0.33403,0.06881 -0.483986,0.08066 m 10.002369,-1.532622 0.255464,0.887308 0.470514,0.241992 c 0.691282,0.07435 1.38433,0.164599 2.03275,-0.146806 m 0.0026,-0.93288 c 0,0.833181 0.25393,1.488014 0.725978,2.177935 M 15.92314,18.40879 c 0.09204,-0.437201 0.370651,-0.630232 0.806642,-0.981443 0.193755,-0.156084 0.338143,-0.305153 0.564649,-0.443654 0.207387,-0.126722 0.384446,-0.1385 0.645313,-0.174717 0.18085,-0.02517 0.558198,-0.01178 0.631844,0.228522 0.08583,0.279903 -0.194483,0.547468 -0.38985,0.712506 -0.473097,0.399853 -1.357419,0.78801 -1.935941,0.820113 -0.144229,0.008 -0.279421,-0.130594 -0.322657,-0.161327 -0.351536,0.392915 -0.287005,0.822532 0.161327,1.021773 0.559085,0.248447 1.830756,-0.0018 2.339263,-0.37646 m 17.746136,-2.09727 c 0.185366,0.185366 0.363074,0.188026 0.69896,0.29063 0.331289,0.101235 0.71799,-0.09228 0.793329,0.435349 0.0346,0.242314 -0.186173,0.337096 -0.362989,0.416791 -0.637489,0.287325 -1.464622,0.551179 -2.177935,0.551179 m 5.844642,-1.415136 c 0.09276,0.0659 0.219051,0.182994 0.447171,0.205176 0.224731,0.02186 0.585863,0.03848 0.631843,0.322659 0.04622,0.285471 -0.334032,0.448413 -0.551181,0.578119 -0.673223,0.402032 -1.28264,0.389852 -2.09727,0.389852 m 4.275205,-1.371292 c 0.303864,0.05598 0.312978,0.112605 0.645316,0.09414 0.359278,-0.02001 0.491809,-0.01347 0.806641,-0.01347 0.382429,0 0.898279,0.0513 1.196495,0.349517 0.329511,0.329514 -0.12753,0.67274 -0.389852,0.75292 -0.239008,0.073 -0.447685,0.06873 -0.725978,0.134388 -0.244654,0.05784 -0.404289,0.0538 -0.645314,0.0538 -0.186818,0 -0.337903,-0.015 -0.564649,-0.08066 M 4.9931407,20.022077 C 4.8581499,20.288268 4.7286994,20.308435 4.5494868,20.425397 3.906158,20.845334 3.132217,20.983917 2.8555381,21.151375 2.5149571,20.733858 2.5686475,20.612619 2.5328813,20.183405 2.4877083,19.64134 2.3401484,19.435162 2.0623399,19.121299 c -0.249796,-0.282164 -0.3737336,-1.045248 -0.09411,-1.263687 0.2129049,-0.16633 0.8374978,-0.09413 1.1292999,-0.09413 0.9316326,0 1.7066427,0.382455 2.0738841,1.082525 0.023386,0.363619 -0.040877,0.905117 -0.1782735,1.17607 z M 8.4213704,17.844142 C 8.3693514,18.126547 8.3917184,18.473967 8.2197107,18.717978 8.057414,18.948274 7.8933909,18.997558 7.7088392,19.215434 7.4081562,19.570356 7.0591858,19.854455 6.646757,20.08927 6.3940525,20.233174 6.0504875,20.413298 5.7594514,20.425397 4.9936317,20.168025 5.207066,19.10314 5.5981219,18.731452 5.9077042,18.563752 6.735667,18.408795 7.1307433,18.408795 M 9.631335,18.00547 c 0.020648,0.784056 0.2324754,1.663457 1.1293,1.788085 0.366538,0.0509 0.790349,-0.09518 1.048635,-0.282326 0.476726,-0.345484 0.300153,-0.824065 0.161329,-1.263767 m 11.464708,-0.351497 c 0.03146,0.398239 0.1678,1.138862 0.392936,1.642126 m -9.921703,-0.96797 c -0.111316,0.384686 -0.105106,0.664914 -0.483984,1.129297 m 7.743766,-1.129297 c 0,0.870849 -0.711619,2.411375 -1.048635,2.903911 M 8.2166845,18.727412 c 0.053129,0.801215 0.4239441,0.936801 0.6886722,1.294665 M 157.16624,49.061207 c -0.58078,0.412355 -0.87318,-0.03783 -1.03451,-0.866737 -0.22946,-0.445499 -0.43438,-0.839305 -0.55213,-1.391863 -0.0178,-0.162539 0.045,-0.194967 0.054,-0.403322 0.0178,-0.434619 0.0146,-0.776394 -0.054,-1.129299 -0.0419,-0.217714 -0.0266,-0.290877 -0.0266,-0.483987 v -0.322657 l 0.0403,-2.339261 c 0.0516,-0.518027 0.0936,-0.24826 0.19757,-0.02119 0.0968,0.211825 0.0888,0.864371 0.1654,1.231154 0.0597,0.284823 0.12743,0.703634 0.16133,1.048635 0.0549,0.560695 0.0291,1.776646 0.008,2.280797 -0.0371,0.434536 0.33282,1.649922 0.2757,1.982802 -0.0976,0.984965 -0.49037,1.998685 -1.09051,2.498723 -0.43478,0.362344 -1.15512,0.405823 -1.61329,-0.06719 -0.267,-0.275951 -0.36621,-0.835197 -0.30894,-1.209964 0.0944,-0.618211 0.20488,-1.284095 0.57755,-1.855278 0.18311,-0.279663 0.30733,-0.439943 0.53803,-0.645314 0.37348,-0.332336 0.7098,-0.343101 1.13167,-0.420859 m -54.28933,-3.53169 0.53803,2.177935 0.33557,1.371292 c 0.46576,0.89867 0.34993,2.090971 0.90097,2.823251 M 66.902932,49.625848 c 0.357664,0.490117 0.74203,0.551824 1.209963,0.766311 0.49197,0.225456 1.076707,0.435424 1.69395,0.255464 0.260868,-0.07615 0.430262,-0.21255 0.725979,-0.282327 0.522057,-0.123254 0.940383,-0.439135 1.196492,-0.98144 0.206663,-0.437686 0.261837,-0.969424 0.147937,-1.451957 -0.399125,-1.690157 -2.337165,-1.508098 -3.683694,-1.451956 -0.796721,0.03315 -1.46325,0.05864 -1.371292,-0.887306 0.03573,-0.367992 0.397432,-1.079611 0.645314,-1.277157 0.38614,-0.307735 1.083402,-0.578121 1.613286,-0.578121 0.185688,0 0.290956,0.0055 0.483984,0.0538 0.18803,0.04695 0.319028,0.08405 0.483986,0.215051 0.389125,0.309025 0.235942,0.616677 0.161328,1.021773 m 8.147091,-0.806643 c 0.264338,0.418568 0.288617,0.627085 0.376461,1.048638 0.09414,0.452121 0.02686,1.064524 0.02686,1.532619 0,0.84641 -0.851086,2.148491 -1.855278,2.218267 -0.379685,0.02638 -0.531979,-0.372913 -0.685646,-0.604984 -0.05679,-0.08575 -0.280307,-0.397012 -0.280307,-0.397012 0,0 -0.30951,0.327159 -0.378476,0.477677 -0.08284,0.18085 -0.128742,0.341695 -0.268855,0.483987 -0.235782,0.23941 -0.629907,0.448572 -0.96797,0.537788 -0.234895,0.102009 -0.353473,0.14827 -0.564651,0.107525 -0.224775,-0.04461 -0.379283,-0.818179 -0.497457,-1.290627 -0.247962,-0.992091 -0.228522,-2.048871 -0.228522,-2.984578 m 7.00539,2.248215 c 0.02944,-0.159795 0.06548,-0.355913 0.09306,-0.554266 0.02428,-0.17496 0.08663,-0.332014 0.147858,-0.483984 0.170766,-0.423892 0.329109,-1.000399 0.658783,-1.371292 0.3617,-0.406953 1.085741,-0.930302 1.506004,-0.322657 0.227472,0.329432 0.114542,0.656929 -0.04033,0.96797 -0.304106,0.607885 -1.011449,1.138577 -1.546333,1.465427 -0.256192,0.156569 -0.722188,0.200772 -0.860446,0.336047 -0.166652,0.163104 -0.107527,0.399288 -0.107527,0.618453 0,0.346613 0.06558,0.648863 0.403322,0.820113 0.598368,0.303379 1.52899,-0.158665 2.09727,-0.403321 0.469466,-0.202065 0.972006,-0.255707 1.371294,-0.497457 m 12.180302,1.048636 c 0.433975,0.136968 0.575942,0.243928 0.96797,0.309186 0.505766,0.08437 1.121235,-0.05784 1.613286,-0.228522 0.597722,-0.207469 1.47051,-0.951436 0.954258,-1.693948 -0.550936,-0.793413 -1.708468,-0.887308 -2.567544,-0.887308 -0.410579,0 -1.372099,-0.03856 -1.586664,-0.403319 -0.398483,-0.678469 1.168018,-1.571665 1.667329,-1.613287 0.270226,-0.0225 0.467852,-0.108574 0.725978,0 m -12.709872,3.638111 -0.03508,-0.492205 c -0.01987,-0.278796 0.421068,-1.879235 0.550939,-2.09727 0.175847,-0.29386 0.527543,-0.866254 0.981683,-0.954501 0.274259,-0.0534 0.613048,0.06179 0.887307,0.268855 0.375088,0.282646 0.287165,1.026533 0.147615,1.330959 -0.291198,0.635312 -1.003464,1.239649 -1.599571,1.546092 -0.129064,0.0663 -0.471081,0.252398 -0.564651,0.282324 -0.104864,0.03339 -0.266191,-0.01363 -0.362989,0.120997 -0.07744,0.107445 -0.04275,0.171733 -0.04033,0.309187 0.01372,0.733803 0.617082,1.139786 1.371294,1.1293 0.237959,-0.0033 0.34847,-0.03106 0.564649,-0.09414 0.471079,-0.137289 1.012336,-0.514718 1.371292,-0.873836 m 21.295369,-4.033211 c 0.29442,1.016855 0.75098,2.022413 0.96797,3.065241 0.0573,0.275467 0.14519,0.645313 0.48398,0.645313 0.37025,0 0.34847,-0.374685 0.42994,-0.564649 0.0621,-0.143501 0.146,-0.249091 0.24199,-0.403321 0.30411,-0.485598 0.52029,-0.835922 0.76631,-1.290627 0.12907,-0.237476 0.19924,-0.431071 0.33638,-0.645314 0.15084,-0.236509 0.32265,-0.489631 0.48398,-0.725978 m -37.428215,0 c -0.02855,1.084852 -0.211339,2.292395 0.08066,3.145903 M 108.0417,45.431299 c 0.0508,0.277244 0.1089,0.616922 0.16133,0.887308 0.0339,0.172218 0.0662,0.308298 0.10729,0.483984 0.0645,0.273211 0.054,0.385898 0.054,0.725979 0,0.201499 0.0678,0.448977 -0.0403,0.631843 -0.13068,0.221907 -0.34121,0.296844 -0.51061,0.497457 -0.37428,0.441877 -1.03976,0.979263 -1.62699,1.183102 -0.63725,0.221262 -1.14705,-0.05372 -1.34468,-0.699118 -0.27264,-0.893841 0.22102,-2.156476 0.60499,-2.903911 0.22989,-0.446316 0.51544,-1.166084 1.14301,-1.357822 0.292,-0.08913 0.6082,0.05308 0.64531,0.389851 0.0323,0.293698 -0.14519,0.499553 -0.24199,0.806641 m 33.87899,-0.96797 0.16132,0.403321 m -52.028445,1.1293 c 0.103252,-0.112123 0.194402,-0.244091 0.308945,-0.403321 0.197628,-0.272968 0.657414,-0.640071 0.981685,-0.793173 1.326119,-0.626196 3.736367,-0.486486 3.549227,1.438486 -0.04033,0.418888 -0.200048,1.064929 -0.429942,1.371292 -0.403224,0.340823 -0.914634,0.703189 -1.205542,0.810802 -0.856147,0.23827 -0.872317,0.163941 -1.466025,0.170052 -0.68,-0.06606 -0.617115,-0.155894 -0.931705,0.06779 -0.399288,-0.541989 -0.588042,-1.43478 -0.725978,-2.097275 -0.102444,-0.492213 0.02985,-0.412435 -0.322657,-0.806643 m 25.973897,1.935943 c 0,-0.705328 0.51383,-1.631919 0.99459,-2.339262 0.12583,-0.184641 0.25006,-0.403161 0.39041,-0.551181 0.19763,-0.208757 0.33073,-0.16778 0.55094,-0.02694 0.17423,0.111396 0.33234,0.151891 0.47027,0.282324 0.28233,0.265869 0.16778,0.719364 -0.0129,1.021773 -0.40574,0.678709 -1.23739,1.291919 -1.90932,1.599814 -0.23393,0.107285 -0.28636,0.0073 -0.48399,0.08067 -0.20892,0.0776 -0.23392,0.382349 -0.24199,0.578121 -0.0185,0.442524 0.0468,0.783652 0.48399,1.008303 0.94458,0.485518 2.15131,-0.0093 2.90391,-0.524319 m 2.41993,-3.871886 c -0.42833,0.214082 -0.6429,0.319995 -0.96797,0.645314 -0.14681,0.146727 -0.2549,0.254899 -0.40333,0.403321 -0.28555,0.285873 -0.76308,0.777439 -0.3896,1.102438 0.26458,0.230296 0.92118,0.188189 1.27691,0.188189 0.70743,0 1.73993,0.297087 2.33927,0.752839 0.17665,0.134467 0.27264,0.250623 0.33637,0.457124 0.22182,0.726785 -0.52674,1.14745 -1.14302,1.344431 -0.73555,0.322413 -1.08406,0.263786 -1.936,0.107537 m 7.98582,-4.678531 c 0.15972,0.758646 0.55175,2.421136 0.79293,3.387897 0.0887,0.353148 0.1694,0.783492 0.32266,1.1293 0.1218,0.272885 0.20973,0.733318 0.2557,0.96797 0.0371,0.192061 0.0121,0.444219 0.18795,0.631844 0.19844,0.210613 0.79777,0.01267 1.02202,-0.04033 0.43397,-0.102444 1.2503,-0.420745 1.53262,-0.591511 m 13.49352,-4.701311 0.31378,0.587433 0.63156,1.855282 c 0.61786,1.399122 0.69207,2.695074 1.12928,3.3879 m 1.81189,-2.810949 c 0.10647,-0.21263 0.12653,-0.522747 0.32577,-0.899611 0.27426,-0.519961 1.0801,-2.40589 1.97628,-1.747751 0.31136,0.228522 0.2428,0.616839 0.0669,0.941108 -0.37832,0.69936 -1.18818,1.413078 -1.92223,1.586423 -0.16617,0.03929 -0.34847,-0.01082 -0.44365,0.120998 -0.0904,0.12503 -0.0403,0.228602 -0.0403,0.389851 0,0.23441 -0.0452,0.894243 0.0266,1.129298 0.14519,0.474307 0.51302,0.653058 0.94135,0.712508 0.89698,0.124626 2.44412,-0.884886 3.06524,-1.277157 m -52.27044,-3.145902 h 0.64531 c 0.53723,0 0.5824,0.08066 1.12568,0.06723 l 0.48765,0.01343 1.20997,0.08066 m 27.18381,-0.161319 0.16133,0.403321 m 5.48517,3.468562 c -0.0702,-0.222149 -0.19118,-0.519316 -0.22828,-0.725978 -0.0339,-0.184721 -0.17505,-0.482775 -0.18876,-0.725978 -0.0145,-0.266273 0.0855,-0.313783 0.14842,-0.564649 0.11455,-0.46011 0.62354,-2.23061 1.47858,-1.814946 0.3767,0.183107 0.58481,0.629584 0.7526,1.008303 0.45333,1.019273 0.6808,2.145427 1.02201,3.22657 m -31.53972,-3.549227 c 0.26458,0.335482 0.34605,0.930947 0.72598,1.532621 m 25.57057,1.935941 c -0.14923,-0.516654 -0.46302,-1.300308 -0.44366,-1.774613 0.0129,-0.317817 0.0863,-0.494068 0.121,-0.806643 0.0403,-0.365086 0.23796,-0.877305 0.72598,-0.806641 0.42187,0.06114 0.64934,0.783652 0.83326,1.048635 0.20005,0.288052 0.47814,0.403059 0.61446,0.481869 m -25.24368,-1.449842 1.45196,1.29063 0.8873,0.96797 m -2.74258,-2.177935 0.1026,0.592695 0.41178,1.353843 m 30.13802,-1.946538 c 0.0145,0.557149 0.0837,0.651928 0.18129,0.984506 0.0549,0.189079 0.0942,0.267285 0.0855,0.477737 -0.0129,0.302169 0.17041,0.749329 0.23091,1.038349 0.046,0.221019 0.1218,0.292165 0.22828,0.483986 0.0516,0.09293 0.0734,0.249979 0.0807,0.322657 m 1.69395,-1.855278 c 0.32831,-0.06905 0.24926,-0.07954 0.64532,-0.255465 0.92602,-0.411548 1.79316,-0.853103 2.58125,-0.873835 M 89.81156,49.3032 c 0,0.88295 0.498506,2.342328 1.048635,3.145905 m 41.423975,-2.670052 c -0.12664,0.436717 0.0955,0.784848 0.25278,1.29876 0.12503,0.409937 0.14842,0.409937 0.42994,0.806644 m 0.64531,-2.339265 0.56465,0.403322 m -48.479218,3.737411 c 0.799384,-0.199805 2.091625,0.004 2.823251,0.389932 0.419453,0.221182 1.108325,0.815354 0.483984,1.209964 -0.342017,0.216099 -0.635635,0.27337 -1.048635,0.457042 -0.439621,0.195369 -0.717911,0.10075 -1.290627,0.188272 -0.203274,0.03106 -0.503347,0.198433 -0.712266,0.04033 -0.173428,-0.130758 -0.187947,-0.382994 -0.282324,-0.618453 -0.207308,-0.51496 -0.69694,-1.486239 0.02662,-1.667089 m -17.907466,0.779781 c 0.901505,-0.332174 1.422758,-0.661608 2.419927,-0.564649 0.279503,0.02718 0.625471,0.174557 0.685649,0.483986 0.05388,0.277162 -0.14689,0.536015 -0.36299,0.712506 -0.232313,0.189804 -0.399935,0.444299 -0.645315,0.618454 -0.243929,0.173105 -0.539241,0.201095 -0.806641,0.362989 M 143.05,56.159656 c -0.64612,-0.323142 -1.13414,0.02734 -1.77461,0.08066 -0.13552,0.0113 -0.28071,0.02008 -0.36299,-0.09414 -0.18069,-0.250541 -0.10648,-1.089612 -0.121,-1.438484 -0.01,-0.228602 -0.20892,-0.547792 0.0807,-0.685646 0.45414,-0.215939 1.81656,0.319913 2.17793,0.604981 m -26.13524,3.549224 c -0.0677,-0.261662 -0.0759,0.01305 -0.16774,-0.917636 -0.0533,-0.514131 -0.29041,-1.634174 -0.11455,-1.986274 0.2912,-0.582152 1.02282,-0.979829 1.65361,-1.102438 0.82197,-0.159877 2.09163,0.373073 2.17794,1.263767 0.0339,0.350324 -0.12261,0.677419 -0.29604,0.967971 -0.0855,0.143906 -0.0766,0.241347 -0.26861,0.362989 -0.22828,0.144953 -0.39606,0.281195 -0.56465,0.376459 -0.36379,0.205775 -1.2995,0.24243 -1.61328,0.272921 -0.15488,0.015 -0.75185,-0.05038 -0.90028,-0.06143 -0.42102,-0.304864 0.59817,-0.438157 0.90025,-0.547607 0.7042,-0.254172 1.42211,-0.459868 2.09314,0.07441 0.62505,0.456036 0.71559,0.64366 0.9721,1.216213 M 65.692998,54.223713 c 0.421712,1.144786 0.640312,2.623443 1.021775,3.871883 0.108169,0.353955 0.230054,0.724284 0.349516,1.048635 m 95.829141,-0.725978 c -0.30491,0.31322 -0.51545,0.69323 0,0.9545 1.2027,0.609984 3.01765,-0.440507 3.1459,-1.761141 0.054,-0.554165 0.0323,-0.997736 -0.48398,-1.277157 -0.33153,-0.17956 -0.6429,-0.209002 -1.04864,-0.107607 -0.22182,0.05542 -0.4372,0.117931 -0.64531,0.201662 -0.29846,0.120108 -0.75179,0.513346 -1.04864,0.443652 -0.18633,-0.04372 -0.21698,-0.22836 -0.24199,-0.38985 -0.0468,-0.306362 -0.1089,-0.760905 -0.0807,-1.048635 0.0137,-0.144388 -0.005,-0.210817 -0.0157,-0.395053 -0.0161,-0.290714 0.008,-0.60341 0.0964,-0.814911 l 0.80664,0.403321 0.80866,0.539844 M 80.3739,54.304377 c -0.05872,0.743482 0.599094,2.743391 1.209965,3.710557 M 109.57436,57.77294 c 0,-0.26216 -0.20892,-1.484143 -0.14761,-1.693949 0.067,-0.229894 0.17826,-0.24756 0.32265,-0.483986 0.15972,-0.2624 0.54126,-0.873029 0.8736,-1.062106 0.23876,-0.135919 0.4501,-0.266837 0.72598,-0.201661 0.18149,0.04283 0.27345,0.09873 0.40332,0.215131 0.46059,0.413808 0.53803,1.135995 0.56465,1.774614 0.0145,0.350486 -0.0379,0.774002 0.0137,1.209964 0.0421,0.355485 0.0934,0.317296 -0.0944,0.564649 m -39.202791,-3.710554 0.161327,0.483984 0.107528,0.725979 0.618451,2.339264 m 77.357025,-3.549227 0.16133,1.290627 0.24199,2.823249 m -29.03915,-3.145905 c 0.0815,0.195127 0.12181,0.440587 0.16133,0.645313 0.0928,0.477371 0.11374,1.544802 0.41704,1.841808 0.62192,0.609982 2.8789,0.08792 3.42823,-0.551179 0.74937,-0.872303 0.42671,-1.968773 -0.6187,-2.433399 -0.34927,-0.155197 -0.67032,-0.147857 -1.04863,-0.147857 -0.53965,0 -1.02202,0.01356 -2.13761,0.04033 -0.41622,0.25732 -0.35008,0.247881 -0.20166,0.604983 z m 8.14709,2.500591 c 0.4614,0.09712 0.80019,0.35565 1.29063,0.403322 0.69049,0.06711 1.24223,-0.01799 1.85528,-0.18819 0.40897,-0.113657 1.25352,-0.432523 0.79293,-1.021775 -0.4856,-0.622082 -1.60845,-0.734367 -2.32555,-0.873835 -0.36864,-0.07179 -1.06638,-0.112043 -1.2503,-0.497457 -0.16455,-0.344113 0.30975,-0.606595 0.52432,-0.752838 0.50496,-0.343549 1.09784,-0.397191 1.53262,-0.0538 M 98.442686,57.28896 c 0.600143,0 1.291435,0.04461 1.935944,-0.08066 0.1823,-0.03541 0.59449,-0.153021 0.72598,-0.228522 0.0895,-0.05122 0.25974,-0.144471 0.22828,-0.336129 -0.0355,-0.216422 -0.19521,-0.22836 -0.38961,-0.295795 -0.7042,-0.244573 -2.265054,-0.118658 -3.065242,-0.107525 -0.282325,0.004 -0.788898,0.07776 -0.941353,-0.09414 -0.262159,-0.296764 0.09518,-0.595542 0.376702,-0.76631 0.632408,-0.382832 1.684269,-0.672174 2.177934,-0.672174 m 49.043869,0 c 0.0194,0.745821 0.3041,1.461233 0.40332,2.177935 0.0629,0.455267 0.17182,0.89626 0.40332,1.209962 m 7.42111,-1.693948 c 0.0895,0.280147 0.12578,0.352289 0.13648,0.605574 0.008,0.196904 -0.0623,0.43072 -0.0962,0.60439 -0.0597,0.30862 -0.56304,0.556342 -0.84697,0.658784 -0.60821,0.21973 -1.40921,0.285713 -1.93595,-0.107605 -0.45817,-0.342017 -0.70258,-1.056944 -0.48398,-1.599814 0.146,-0.363071 0.46382,-0.834635 0.69936,-1.1293 0.77738,-0.821753 2.39991,0.605959 2.52724,0.967971 z M 77.308615,54.895892 c 0.331451,-0.09664 0.832054,0.297488 1.048635,0.537788 0.186175,0.206581 0.372106,0.502295 0.524319,0.806643 0.453898,0.907713 -0.672578,1.681364 -1.492289,1.909081 -0.295232,0.08195 -0.672498,0.159473 -0.96797,0.18819 -0.22086,0.02145 -0.332418,0 -0.564651,0 -0.694438,0 -0.895695,-0.284906 -0.887306,-0.887308 0.01427,-1.025889 1.497934,-2.309014 2.339262,-2.554394 m 19.440087,2.312402 c -0.817129,0.150438 -1.339026,0.491971 -2.177935,0.631843 -0.183913,0.03065 -0.289584,0.01347 -0.483986,0.01347 -0.358148,0 -0.817129,0.07058 -1.1293,-0.241992 -0.618693,-0.618373 0.287165,-1.539881 0.725979,-1.935943 0.296846,-0.267967 0.565458,-0.367747 0.887307,-0.537789 0.23554,-0.124223 0.536417,-0.256591 0.806643,-0.161327 1.131719,0.398401 -1.662504,1.067105 -2.084379,1.10042 m -2.190832,1.615304 c -0.146001,-0.21376 -0.386381,-0.508507 -0.538029,-0.725979 -0.178269,-0.257076 -0.328305,-0.440265 -0.443654,-0.725976 -0.07905,-0.196821 -0.196014,-0.487939 -0.16133,-0.645315 0.03872,-0.1748 0.188755,-0.201015 0.336372,-0.268855 0.84052,-0.385413 1.369677,-0.160278 2.258597,0.02686 m 10.405695,-0.322657 c 0.22878,0.437246 0.32774,0.914656 0.41019,1.209962 0.20731,0.211258 0.23516,1.371292 0.23516,1.371292 m 1.12928,-0.725976 c 0.0282,0.256754 0.22344,0.555452 0.48399,0.685646 0.72033,0.360085 2.23198,-0.263531 2.74258,-0.699118 0.13229,-0.113011 0.23231,-0.221585 0.24199,-0.38985 0.0218,-0.387914 -0.23554,-0.584171 -0.64531,-0.76631 -0.22021,-0.09809 -0.30975,-0.05977 -0.48399,-0.16133 -0.16455,-0.09583 -0.48398,-0.406708 -0.72598,-0.416791 -0.21134,-0.0088 -0.39444,0.03573 -0.56465,0.120997 -0.73716,0.422581 -1.01678,0.984301 -1.04863,1.626756 z m 66.95133,-1.371292 c 0.42349,-0.133662 0.64451,-0.244091 1.04864,-0.322659 0.43558,-0.08462 0.68,-0.189399 1.04863,-0.0538 0.31863,0.117043 0.30491,0.67395 0.13471,0.94111 -0.33395,0.522624 -1.33983,1.197219 -1.64071,1.613284 -0.26377,0.365248 -0.13068,0.464546 0.21537,0.483986 0.55497,0.0313 1.22771,-0.01694 1.69395,-0.107525 0.2178,-0.04235 0.9107,-0.128579 1.20997,-0.215132 m 0.40332,-2.742583 c 0.69371,0.547547 1.76009,0.234974 2.66192,0.322656 0.40574,0.03945 0.96958,-0.09526 1.27691,0.255462 0.43478,0.495442 -0.28151,1.894481 -0.47027,2.406457 M 89.246963,55.191683 c 0.296036,0.272485 0.5098,0.353494 0.69694,0.392939 m 45.281687,-0.392939 c 0.42671,0 0.93651,0.0073 1.45195,0.107527 0.21134,0.04114 0.48238,0.01404 0.64532,0.147937 0.17585,0.144389 0.19279,0.442202 0.30894,0.712509 0.28717,0.667093 0.56304,1.318294 0.82036,2.016605 m -1.21234,-2.777663 c 0.56967,-0.09763 0.72113,-0.04037 1.45433,-0.04558 m 29.03913,3.05177 c -0.71065,-0.355407 -0.60659,-1.125669 -0.40332,-1.761143 0.0726,-0.228038 0.19682,-0.634828 0.33637,-0.779781 0.22909,-0.238121 0.42268,-0.315962 0.71227,-0.336047 0.27022,-0.0188 0.48156,0.129789 0.80664,0.147857 0.54529,0.03033 0.95022,0.343065 1.29063,0.725979 0.13471,0.151406 0.22586,0.301604 0.30894,0.483986 0.20892,0.45438 0.079,0.473015 -0.30894,0.96797 -0.83891,0.438169 -1.97386,0.935705 -2.74259,0.551179 z M 69.968203,55.675669 c 0.550696,0.492778 1.737589,0.289667 2.218267,1.371292 0.518673,1.167051 -0.863592,1.625384 -1.734281,1.613286 -0.160925,-0.0023 -0.241187,-0.02227 -0.403322,-0.0538 -0.185125,-0.03598 -0.3329,-0.0059 -0.483986,-0.02686 -0.196014,-0.02726 -0.525768,-0.227795 -0.725978,-0.322657 m 40.456147,-2.68451 0.11798,0.506575 m -23.311975,0 c 0,0.408644 0.01795,0.568118 0.262361,0.951434 0.289587,0.452528 0.290997,0.374445 0.544282,0.742515 m 14.694612,-1.653622 0.47027,0.107525 c 0.64305,0.104566 1.21005,0.100498 1.74437,0.04974 m 37.1358,-0.03627 c 0,0.368393 -0.0452,0.985554 0,1.451955 0.0169,0.170606 0.0266,0.263129 0.12099,0.403321 0.10487,0.155522 0.25975,0.221505 0.44366,0.241995 0.21295,0.02371 0.41703,-0.01758 0.64531,0.02686 0.17021,0.03315 0.29282,0.0538 0.48399,0.0538 0.55497,0 0.61063,0.126805 1.04863,0.16133 m 14.11625,-2.339263 c 0.81552,0 1.23174,0.105751 1.93594,0.161328 m -63.563431,4.517198 1.451956,0.416794 0.564651,0.174717 0.483987,0.05381 0.887305,0.134467 0.403322,0.02686 0.40332,0.01347 0.40332,0.06719 0.80664,0.08067 m 15.89086,3.22657 c 0.35734,0.357584 0.69936,0.564649 1.20996,0.564649 0.34605,0 0.53562,-0.06502 0.88731,-0.255465 0.45253,-0.245298 0.88973,-0.831001 0.78003,-1.357819 -0.0928,-0.443897 -0.71872,-1.093808 -1.18335,-1.209965 -0.44849,-0.112043 -0.82439,-0.09091 -1.20996,0.02686 -0.20892,0.06389 -0.56626,0.372184 -0.80664,0.255463 -0.31863,-0.154473 -0.30895,-0.622485 -0.38961,-0.927638 -0.12826,-0.485681 -0.26216,-0.649427 -0.0944,-1.048636 0.55094,0.289827 0.77196,0.668383 1.53262,1.048636 m -6.21113,-0.887312 c 0.63967,0 1.73186,0.07171 2.33927,0.215132 0.1339,0.03154 0.28877,0.02412 0.3896,0.134387 0.10164,0.110671 0.0282,0.261917 0.0137,0.376459 -0.11535,0.92167 -0.24199,2.599085 -0.24199,3.307235 m 7.17912,-3.387897 c 0.32024,-0.201985 0.69855,-0.430667 1.04863,-0.537789 0.32024,-0.09777 0.4606,-0.08067 0.72598,-0.08067 0.51383,0 0.95507,0.378396 0.90102,0.94111 -0.0799,0.818662 -0.84617,1.454214 -1.385,2.016606 -0.21054,0.219648 -0.44366,0.568602 -0.36299,0.712508 0.0903,0.161732 0.31459,0.110913 0.52432,0.06727 0.67193,-0.140032 1.45356,-0.215131 2.09727,-0.215131 m -56.626312,1.371294 c -0.324836,0.103733 -1.036213,0.07856 -1.371292,0.01347 -0.210939,-0.04106 -0.345648,0.0062 -0.551179,-0.134467 -0.181817,-0.124383 -0.187142,-0.391786 -0.228604,-0.604981 -0.160198,-0.824147 -0.34855,-1.741945 -0.430182,-2.581256 -0.0296,-0.304589 0.0014,-0.913926 0.16133,-1.008303 0.393398,-0.232153 0.920136,-0.223199 1.451956,-0.282327 0.950225,-0.105588 1.947719,-0.06695 2.554394,0.806643 0.217794,0.313703 0.412519,0.761875 0.483987,1.1293 0.04025,0.207065 -0.04122,0.499311 -0.0538,0.725978 -0.07046,1.060516 -1.194034,1.663047 -2.01661,1.935943 z m 57.755622,-4.678519 c 0,0.561584 -0.0298,1.397749 0.13471,1.93594 0.0645,0.212148 0.11454,0.412034 0.34927,0.524319 0.6316,0.301927 2.45403,-0.491113 3.20098,-0.550078 M 98.202718,61.512531 c 0,0.485196 -0.202872,1.914168 -0.06896,2.713549 0.0484,0.292812 0.06695,0.406145 0.06695,0.725978 m 31.862382,-3.307235 c -0.0185,0.713396 -0.0637,2.038547 0.0807,2.823251 m 4.5172,-1.761144 c 0.14681,0.119868 0.23957,0.246268 0.34928,0.38985 0.22102,0.288779 0.52512,0.583849 0.60498,0.887308 0.0484,0.183188 0.0411,0.389204 -0.0807,0.564648 -0.56787,0.818421 -2.70789,1.557707 -3.50889,0.712509 -0.29604,-0.312574 -0.27748,-0.724364 -0.17424,-1.11583 0.0839,-0.319268 0.2662,-0.626356 0.48399,-0.887306 0.6431,-0.614683 1.62014,-1.107726 2.32558,-0.551179 z m -31.13643,-0.900777 c 0.34202,0.09898 0.44607,0.258933 0.72598,0.564648 0.15164,0.165443 0.27668,0.276519 0.40332,0.403322 0.36621,-0.366538 0.34363,-0.384526 0.80664,-0.887306 m -29.281126,0.241992 0.483987,2.339265 0.08066,1.129297 m 12.341632,-3.30723 c -0.466482,0.07861 -0.898264,0.178039 -1.209965,0.349517 -0.503041,0.314576 -0.218106,0.637859 0.16136,0.699115 0.129869,0.01806 0.671126,-0.003 0.887305,0 0.703394,0.0098 1.982728,0.04332 2.406217,0.645313 0.204079,0.289342 0.07582,0.490682 -0.147617,0.645314 -0.679193,0.469709 -1.585052,0.82697 -2.419927,0.9545 -0.376702,0.05751 -0.546903,0.01347 -0.887308,0.01347 m -9.195756,-2.903908 0.40332,3.065241 m 6.130485,-2.984578 c 0,0.807288 -0.0976,0.52827 -0.550938,1.048635 -0.155682,0.178591 -0.367828,0.370491 -0.901019,0.725977 -0.757438,0.458655 -1.167212,0.700324 -1.774613,0.793169 -0.253447,0.03872 -0.361215,0.01347 -0.645316,0.01347 -0.37307,0 -0.776796,-0.01822 -0.873835,-0.483986 -0.152133,-0.730252 0.725898,-1.456393 1.357822,-1.667086 0.36057,-0.12011 0.730819,-0.10196 1.1293,-0.107528 0.488017,-0.0068 0.920378,-0.211098 1.371291,-0.08066 m 20.327391,-0.241991 -0.40332,0.564651 -0.48399,0.430182 -1.20996,0.860445 m 2.09104,-1.844797 c 0.64566,1.007049 0.70573,1.53498 0.89357,2.16745 M 85.133119,63.419441 c 0.339595,0.477692 0.175847,0.816483 0.322657,1.613284 M 74.311803,63.75258 c 0.131077,0.329622 0.167994,0.600394 0.213963,0.876824 l 0.20166,0.564651 c 0.188746,0.339931 0.292784,0.679862 0.66387,1.019793 M 94.73213,64.145413 c -0.608207,0.889162 -1.306761,1.772034 -1.613284,2.742586 M 74.535011,64.70593 73.436763,65.315042 c -0.784706,0.371857 -1.260465,0.679752 -1.77462,0.779775 -0.509072,0.09897 -1.123894,-0.01016 -1.236825,-0.416792 -0.07731,-0.422733 0.252032,-0.675074 0.672219,-1.048621 0.442039,-0.398481 1.10849,-1.067026 1.774615,-1.196493 0.210936,-0.04106 0.335562,-0.01347 0.564649,-0.01347 m -59.714193,-46.569484 0.05639,0.160538"
       id="path192"
       sodipodi:nodetypes="ccccccccsccccccccccssccsscccccccsccsccssscsccccsccsscccccccccssccsccsccsscccccccccccccccccccccccscccccccccscccccccccccccssccccccccccccsccccccccccscccccccccscccccccccccccccscssccccccccccssccccccccsccccsccccccccccscscccccccsccccccccccccccccccccccccccccccccccccccccccccccscccsccccccccccccccccccccccccsccscccscccccccccccccccccccccsccccscccccssccscccccssccsccccsccsccccccccccccccccccccccccccscccccccccccccccccccccccccsscscccssscccccccccscccscssccccccsccccsccccccccscccssccccccccccscccccccccccccccccccccccccccccccccccscccccccccccccccccccccsccccscccccccccsccccccccccccccccccccscccccccccccccccsccccsccsccsccccccccccccccccccscccccssscccccccccccccccscccccccccccccscccscccccccscccccccccccscccccccsccsssccssccccccccccccccccccccsccccccccsccscccccccccccccccscccccccccccccccccccccssscccccccccccccscccccccccccccccsccccccccccsccccccccccccccccccccccccccccccccccccccccccccscsccccccscsccccccccccccccccc" /></g></svg>
