<?xml version="1.0" encoding="UTF-8" standalone="no"?>
<!-- Created with Inkscape (http://www.inkscape.org/) -->

<svg
   version="1.1"
   id="svg2454"
   width="1254.6667"
   height="834.66669"
   viewBox="0 0 1254.6667 834.66669"
   sodipodi:docname="KevinV - Stake - Envelope21.svg"
   inkscape:version="1.2.1 (9c6d41e410, 2022-07-14)"
   xmlns:inkscape="http://www.inkscape.org/namespaces/inkscape"
   xmlns:sodipodi="http://sodipodi.sourceforge.net/DTD/sodipodi-0.dtd"
   xmlns="http://www.w3.org/2000/svg"
   xmlns:svg="http://www.w3.org/2000/svg">
  <defs
     id="defs2458">
    <pattern
       id="EMFhbasepattern"
       patternUnits="userSpaceOnUse"
       width="6"
       height="6"
       x="0"
       y="0" />
    <pattern
       id="EMFhbasepattern-2"
       patternUnits="userSpaceOnUse"
       width="6"
       height="6"
       x="0"
       y="0" />
    <pattern
       id="EMFhbasepattern-6"
       patternUnits="userSpaceOnUse"
       width="6"
       height="6"
       x="0"
       y="0" />
    <pattern
       id="EMFhbasepattern-9"
       patternUnits="userSpaceOnUse"
       width="6"
       height="6"
       x="0"
       y="0" />
    <pattern
       id="EMFhbasepattern-25"
       patternUnits="userSpaceOnUse"
       width="6"
       height="6"
       x="0"
       y="0" />
    <pattern
       id="EMFhbasepattern-4"
       patternUnits="userSpaceOnUse"
       width="6"
       height="6"
       x="0"
       y="0" />
    <pattern
       id="EMFhbasepattern-0"
       patternUnits="userSpaceOnUse"
       width="6"
       height="6"
       x="0"
       y="0" />
    <pattern
       id="EMFhbasepattern-8"
       patternUnits="userSpaceOnUse"
       width="6"
       height="6"
       x="0"
       y="0" />
    <pattern
       id="EMFhbasepattern-89"
       patternUnits="userSpaceOnUse"
       width="6"
       height="6"
       x="0"
       y="0" />
    <pattern
       id="EMFhbasepattern-09"
       patternUnits="userSpaceOnUse"
       width="6"
       height="6"
       x="0"
       y="0" />
    <pattern
       id="EMFhbasepattern-40"
       patternUnits="userSpaceOnUse"
       width="6"
       height="6"
       x="0"
       y="0" />
    <pattern
       id="EMFhbasepattern-05"
       patternUnits="userSpaceOnUse"
       width="6"
       height="6"
       x="0"
       y="0" />
    <pattern
       id="EMFhbasepattern-45"
       patternUnits="userSpaceOnUse"
       width="6"
       height="6"
       x="0"
       y="0" />
    <pattern
       id="EMFhbasepattern-64"
       patternUnits="userSpaceOnUse"
       width="6"
       height="6"
       x="0"
       y="0" />
    <pattern
       id="EMFhbasepattern-97"
       patternUnits="userSpaceOnUse"
       width="6"
       height="6"
       x="0"
       y="0" />
    <pattern
       id="EMFhbasepattern-5"
       patternUnits="userSpaceOnUse"
       width="6"
       height="6"
       x="0"
       y="0" />
    <pattern
       id="EMFhbasepattern-20"
       patternUnits="userSpaceOnUse"
       width="6"
       height="6"
       x="0"
       y="0" />
    <pattern
       id="EMFhbasepattern-1"
       patternUnits="userSpaceOnUse"
       width="6"
       height="6"
       x="0"
       y="0" />
    <pattern
       id="EMFhbasepattern-46"
       patternUnits="userSpaceOnUse"
       width="6"
       height="6"
       x="0"
       y="0" />
    <pattern
       id="EMFhbasepattern-04"
       patternUnits="userSpaceOnUse"
       width="6"
       height="6"
       x="0"
       y="0" />
    <pattern
       id="EMFhbasepattern-07"
       patternUnits="userSpaceOnUse"
       width="6"
       height="6"
       x="0"
       y="0" />
    <pattern
       id="EMFhbasepattern-3"
       patternUnits="userSpaceOnUse"
       width="6"
       height="6"
       x="0"
       y="0" />
    <pattern
       id="EMFhbasepattern-39"
       patternUnits="userSpaceOnUse"
       width="6"
       height="6"
       x="0"
       y="0" />
    <pattern
       id="EMFhbasepattern-88"
       patternUnits="userSpaceOnUse"
       width="6"
       height="6"
       x="0"
       y="0" />
    <pattern
       id="EMFhbasepattern-11"
       patternUnits="userSpaceOnUse"
       width="6"
       height="6"
       x="0"
       y="0" />
    <pattern
       id="EMFhbasepattern-47"
       patternUnits="userSpaceOnUse"
       width="6"
       height="6"
       x="0"
       y="0" />
    <pattern
       id="EMFhbasepattern-67"
       patternUnits="userSpaceOnUse"
       width="6"
       height="6"
       x="0"
       y="0" />
    <pattern
       id="EMFhbasepattern-21"
       patternUnits="userSpaceOnUse"
       width="6"
       height="6"
       x="0"
       y="0" />
    <pattern
       id="EMFhbasepattern-43"
       patternUnits="userSpaceOnUse"
       width="6"
       height="6"
       x="0"
       y="0" />
    <pattern
       id="EMFhbasepattern-36"
       patternUnits="userSpaceOnUse"
       width="6"
       height="6"
       x="0"
       y="0" />
    <pattern
       id="EMFhbasepattern-02"
       patternUnits="userSpaceOnUse"
       width="6"
       height="6"
       x="0"
       y="0" />
    <pattern
       id="EMFhbasepattern-57"
       patternUnits="userSpaceOnUse"
       width="6"
       height="6"
       x="0"
       y="0" />
    <pattern
       id="EMFhbasepattern-68"
       patternUnits="userSpaceOnUse"
       width="6"
       height="6"
       x="0"
       y="0" />
    <pattern
       id="EMFhbasepattern-58"
       patternUnits="userSpaceOnUse"
       width="6"
       height="6"
       x="0"
       y="0" />
  </defs>
  <sodipodi:namedview
     id="namedview2456"
     pagecolor="#ffffff"
     bordercolor="#000000"
     borderopacity="0.25"
     inkscape:showpageshadow="2"
     inkscape:pageopacity="0.0"
     inkscape:pagecheckerboard="0"
     inkscape:deskcolor="#d1d1d1"
     showgrid="false"
     inkscape:zoom="0.39986549"
     inkscape:cx="1125.3784"
     inkscape:cy="521.42534"
     inkscape:window-width="1920"
     inkscape:window-height="1051"
     inkscape:window-x="-9"
     inkscape:window-y="-9"
     inkscape:window-maximized="1"
     inkscape:current-layer="g2460" />
  <g
     inkscape:groupmode="layer"
     inkscape:label="Image"
     id="g2460">
    <path
       style="fill:none;stroke:#64648a;stroke-width:0.591747px;stroke-linecap:butt;stroke-linejoin:miter;stroke-miterlimit:4;stroke-dasharray:none;stroke-opacity:1"
       d="m 25.227913,200.03499 c -1.986831,-2.75641 -2.571189,-5.87236 -3.973656,-6.35173 -1.402461,-0.71907 -3.623037,1.0786 -5.60986,5.03345 -4.79176,4.79376 0.701232,10.0669 4.441138,7.78986 1.753081,-1.31829 4.441144,-1.0786 6.194225,0.83891 1.753086,1.79766 2.688064,5.15329 0.818102,5.75251 -1.285591,0.95876 -3.739905,3.59532 -6.194219,4.43423 -2.454316,1.0786 -5.025506,0.35953 -6.895458,-1.67781"
       id="path5879" />
    <path
       style="fill:none;stroke:#64648a;stroke-width:0.591747px;stroke-linecap:butt;stroke-linejoin:miter;stroke-miterlimit:4;stroke-dasharray:none;stroke-opacity:1"
       d="m 35.045173,193.68326 c 0.934978,4.55407 1.869955,9.82721 2.688059,11.74471 0.818107,1.79767 1.63621,7.43034 2.337444,13.18285"
       id="path5881" />
    <path
       style="fill:none;stroke:#64648a;stroke-width:0.591747px;stroke-linecap:butt;stroke-linejoin:miter;stroke-miterlimit:4;stroke-dasharray:none;stroke-opacity:1"
       d="m 33.759576,208.06454 c 0.35062,0.23969 9.934136,2.39688 9.466646,2.87626"
       id="path5883" />
    <path
       style="fill:none;stroke:#64648a;stroke-width:0.591747px;stroke-linecap:butt;stroke-linejoin:miter;stroke-miterlimit:4;stroke-dasharray:none;stroke-opacity:1"
       d="m 59.120836,199.43577 c -2.337442,-2.87626 -6.427966,-1.19844 -8.999155,1.0786 -2.804934,2.39688 -3.97365,5.27314 -3.739911,8.62877 1.519342,6.95095 6.427969,5.75251 10.16788,3.35563 3.038675,-2.51672 1.636209,-12.70347 2.571186,-13.063 z"
       id="path5885" />
    <path
       style="fill:none;stroke:#64648a;stroke-width:0.591747px;stroke-linecap:butt;stroke-linejoin:miter;stroke-miterlimit:4;stroke-dasharray:none;stroke-opacity:1"
       d="m 59.120836,199.43577 c 0.11687,4.79376 2.454313,9.82721 2.804933,16.17895"
       id="path5887" />
    <path
       style="fill:none;stroke:#64648a;stroke-width:0.591747px;stroke-linecap:butt;stroke-linejoin:miter;stroke-miterlimit:4;stroke-dasharray:none;stroke-opacity:1"
       d="m 68.119988,193.92294 c 0.584364,7.67003 2.804933,14.62098 2.571189,21.57193 0.467489,-3.95485 0.116875,-7.19064 -0.350614,-10.9058 4.674883,-0.59923 6.427969,-5.63267 13.206552,-7.0708"
       id="path5889" />
    <path
       style="fill:none;stroke:#64648a;stroke-width:0.591747px;stroke-linecap:butt;stroke-linejoin:miter;stroke-miterlimit:4;stroke-dasharray:none;stroke-opacity:1"
       d="m 71.976768,203.27078 c 0.233745,0.11985 3.038678,2.27704 6.194225,4.19454 3.155552,2.15719 6.661714,4.0747 7.479822,8.38909"
       id="path5891" />
    <path
       style="fill:none;stroke:#64648a;stroke-width:0.591747px;stroke-linecap:butt;stroke-linejoin:miter;stroke-miterlimit:4;stroke-dasharray:none;stroke-opacity:1"
       d="m 104.46723,215.73456 c -7.012331,3.95486 -11.570344,5.03345 -14.258402,3.11594 -2.454319,-1.79765 -3.038677,-6.59142 -0.350619,-10.18673 1.402466,-3.59533 5.492991,-8.74862 8.531669,-10.54628 3.038672,-2.03735 4.908632,-0.59922 1.636212,3.11594 -2.804934,3.71517 -4.44114,5.99221 -6.42797,6.95096 -1.753081,0.95875 -3.739911,0.59922 -3.739911,0.47938"
       id="path5893" />
    <path
       style="fill:none;stroke:#64648a;stroke-width:0.591747px;stroke-linecap:butt;stroke-linejoin:miter;stroke-miterlimit:4;stroke-dasharray:none;stroke-opacity:1"
       d="m 137.89266,199.43577 c -0.23374,-3.59532 -5.0255,-7.55017 -8.88228,-1.9175 -1.2856,3.59532 -3.38929,6.71126 -4.2074,10.66612 -0.70123,3.835 0,8.50892 3.50617,10.42643 6.54484,5.15329 9.58351,-3.59533 9.46665,-2.75641"
       id="path5895" />
    <path
       style="fill:none;stroke:#64648a;stroke-width:0.591747px;stroke-linecap:butt;stroke-linejoin:miter;stroke-miterlimit:4;stroke-dasharray:none;stroke-opacity:1"
       d="m 155.07287,199.31593 c 0.35062,-1.67782 -1.28559,-2.9961 -3.85678,-2.03735 -2.45431,0.95875 -5.8436,4.0747 -7.36295,7.67002 -4.67487,6.35173 -0.35061,12.34393 2.57119,11.50502 4.32427,-1.79766 6.66172,-13.30268 8.64854,-17.13769 z"
       id="path5897" />
    <path
       style="fill:none;stroke:#64648a;stroke-width:0.591747px;stroke-linecap:butt;stroke-linejoin:miter;stroke-miterlimit:4;stroke-dasharray:none;stroke-opacity:1"
       d="m 155.07287,199.31593 c 0,5.63267 1.2856,11.86456 1.2856,18.81551"
       id="path5899" />
    <path
       style="fill:none;stroke:#64648a;stroke-width:0.591747px;stroke-linecap:butt;stroke-linejoin:miter;stroke-miterlimit:4;stroke-dasharray:none;stroke-opacity:1"
       d="m 169.56502,193.68326 c -3.73992,2.39688 -6.66172,6.59142 -8.99916,8.62877 -2.22057,2.51672 -3.73991,2.75641 0.11688,4.79376 3.38929,0.95875 5.60985,-1.43813 8.29793,-1.43813 2.45431,-0.23969 5.37611,2.15719 4.67487,4.43423 -0.93498,3.59532 -6.42797,14.86066 -13.44029,4.79376"
       id="path5901" />
    <path
       style="fill:none;stroke:#64648a;stroke-width:0.591747px;stroke-linecap:butt;stroke-linejoin:miter;stroke-miterlimit:4;stroke-dasharray:none;stroke-opacity:1"
       d="m 175.05801,193.20388 c 0.70123,3.95486 1.51935,8.62877 2.45431,12.34394 0.81811,3.95485 1.75309,7.0708 1.40247,11.50503 0.35062,-0.35954 0.58437,-8.1494 0.46749,-11.1455 0.35062,-2.63657 5.60987,-5.63267 8.53167,-2.27704 3.03868,3.71517 3.15554,14.74082 3.15554,14.26144"
       id="path5903" />
    <path
       style="fill:none;stroke:#64648a;stroke-width:0.591747px;stroke-linecap:butt;stroke-linejoin:miter;stroke-miterlimit:4;stroke-dasharray:none;stroke-opacity:1"
       d="m 217.59948,200.99374 c 0.58435,-3.835 3.15554,-12.10424 -2.33745,-6.95095 -4.44115,7.0708 -11.21972,16.29879 -2.9218,23.36959 5.25925,2.63657 10.16787,-4.91361 10.16787,-3.71517"
       id="path5905" />
    <path
       style="fill:none;stroke:#64648a;stroke-width:0.591747px;stroke-linecap:butt;stroke-linejoin:miter;stroke-miterlimit:4;stroke-dasharray:none;stroke-opacity:1"
       d="m 225.54678,203.0311 c 2.80493,7.55017 5.84361,7.43032 7.24607,15.34003 0.70124,-2.63657 -5.60986,-11.74472 -5.25924,-15.10035 0.70123,-2.63657 4.55802,-4.91361 8.88229,-0.83891"
       id="path5907" />
    <path
       style="fill:none;stroke:#64648a;stroke-width:0.591747px;stroke-linecap:butt;stroke-linejoin:miter;stroke-miterlimit:4;stroke-dasharray:none;stroke-opacity:1"
       d="m 254.99856,217.17269 c -9.46664,4.79376 -14.60902,0.59922 -13.90778,-5.39298 1.2856,-2.51673 2.22057,-4.79376 4.32426,-7.43033 1.98684,-2.39688 5.14238,-5.1533 7.1292,-4.91361 3.97366,0 0.11688,6.35174 -3.38929,8.1494 -3.03868,2.39688 -6.31108,1.31828 -6.54483,1.0786"
       id="path5909" />
    <path
       style="fill:none;stroke:#64648a;stroke-width:0.591747px;stroke-linecap:butt;stroke-linejoin:miter;stroke-miterlimit:4;stroke-dasharray:none;stroke-opacity:1"
       d="m 271.59441,190.20778 c -0.11687,-0.35953 0.46749,29.60148 -0.46749,29.00226 -0.70124,-0.71906 0.46749,-3.35563 0.11688,-7.0708 -0.35063,-3.35563 -2.22057,-7.90971 -6.19423,-5.51283 -3.62303,2.39688 -6.77859,3.95486 -7.01234,6.47158 -0.58435,2.27704 1.86996,5.39299 4.32428,5.75251 5.96048,0.95876 8.76541,0 8.76541,0.23969"
       id="path5911" />
    <path
       style="fill:none;stroke:#64648a;stroke-width:0.591747px;stroke-linecap:butt;stroke-linejoin:miter;stroke-miterlimit:4;stroke-dasharray:none;stroke-opacity:1"
       d="m 278.60674,195.84045 c 0,0.23969 0.58436,3.23579 0.58436,3.83501"
       id="path5913" />
    <path
       style="fill:none;stroke:#64648a;stroke-width:0.591747px;stroke-linecap:butt;stroke-linejoin:miter;stroke-miterlimit:4;stroke-dasharray:none;stroke-opacity:1"
       d="m 279.07423,206.38672 c 0.23375,7.0708 0.46749,6.71127 0.70123,14.98051"
       id="path5915" />
    <path
       style="fill:none;stroke:#64648a;stroke-width:0.591747px;stroke-linecap:butt;stroke-linejoin:miter;stroke-miterlimit:4;stroke-dasharray:none;stroke-opacity:1"
       d="m 289.82647,193.68326 c 1.16872,5.03345 2.1037,10.54627 3.15555,12.70346 1.05185,1.91751 1.98682,8.02956 2.9218,14.1416"
       id="path5917" />
    <path
       style="fill:none;stroke:#64648a;stroke-width:0.591747px;stroke-linecap:butt;stroke-linejoin:miter;stroke-miterlimit:4;stroke-dasharray:none;stroke-opacity:1"
       d="m 286.67092,203.51047 c -0.23374,0 3.38929,-0.11984 4.79176,-0.23969 1.28559,-0.11984 5.37611,-0.23968 5.49299,-0.35953"
       id="path5919" />
    <path
       style="fill:none;stroke:#64648a;stroke-width:0.591747px;stroke-linecap:butt;stroke-linejoin:miter;stroke-miterlimit:4;stroke-dasharray:none;stroke-opacity:1"
       d="m 10.034533,233.47148 c 8.18105,-1.31829 13.206549,2.15719 12.154702,3.835 -1.519335,1.67782 -5.376118,4.43424 -5.376118,4.31439 -0.467488,-0.23969 8.414796,-1.79766 9.232898,4.31438 0,3.71517 -3.739905,8.86846 -11.102852,4.91361"
       id="path5921" />
    <path
       style="fill:none;stroke:#64648a;stroke-width:0.591747px;stroke-linecap:butt;stroke-linejoin:miter;stroke-miterlimit:4;stroke-dasharray:none;stroke-opacity:1"
       d="m 42.992479,230.71507 c -6.194225,0.95875 -10.63537,4.67391 -13.557173,7.55017 -2.688057,2.87626 -3.739904,4.91361 1.402467,6.35174 5.376122,0.71906 8.18105,-2.1572 10.28475,-5.1533 1.98683,-3.11594 3.272421,-6.47158 1.869956,-8.74861 z"
       id="path5923" />
    <path
       style="fill:none;stroke:#64648a;stroke-width:0.591747px;stroke-linecap:butt;stroke-linejoin:miter;stroke-miterlimit:4;stroke-dasharray:none;stroke-opacity:1"
       d="m 42.758734,231.43413 c -0.350614,1.0786 1.869955,3.47548 3.739911,8.14939 1.869955,4.31439 3.272422,10.90581 0,11.62487 -5.609861,4.55408 -9.232903,1.19844 -9.232903,1.43813"
       id="path5925" />
    <path
       style="fill:none;stroke:#64648a;stroke-width:0.591747px;stroke-linecap:butt;stroke-linejoin:miter;stroke-miterlimit:4;stroke-dasharray:none;stroke-opacity:1"
       d="m 60.757041,235.02945 c 0.233745,0.35953 -6.66171,-2.9961 -7.479814,-2.87626 -0.584357,0.11985 1.519337,12.22409 1.519337,12.10425 0.23375,-0.11985 3.506164,-3.83501 7.713564,-3.83501 2.220569,-0.35953 5.142372,2.63657 6.194224,5.03345 1.051847,2.39688 0.350613,4.0747 -2.337444,4.31439 -5.843606,0.47937 -12.739061,-0.95876 -12.505316,-0.83891"
       id="path5927" />
    <path
       style="fill:none;stroke:#64648a;stroke-width:0.591747px;stroke-linecap:butt;stroke-linejoin:miter;stroke-miterlimit:4;stroke-dasharray:none;stroke-opacity:1"
       d="m 71.275535,231.79366 c 0,-0.71906 0.23375,1.55797 0.701233,3.35563 0.35062,2.03735 0.818108,3.71517 1.402467,5.51283 0.467495,1.79766 0.934978,3.71516 1.168722,5.99219 0.35062,2.1572 0.584359,4.67393 0.584359,3.95486"
       id="path5929" />
    <path
       style="fill:none;stroke:#64648a;stroke-width:0.591747px;stroke-linecap:butt;stroke-linejoin:miter;stroke-miterlimit:4;stroke-dasharray:none;stroke-opacity:1"
       d="m 107.15529,234.19054 c -2.22057,-0.71906 -9.466646,1.43813 -14.024659,2.75641 -4.558013,1.55798 -6.311094,2.1572 1.051852,4.91361 11.687217,0.71906 14.842767,-3.11595 14.024657,2.51672 -0.46749,5.39299 -6.42797,9.94706 -10.051007,4.0747"
       id="path5931" />
    <path
       style="fill:none;stroke:#64648a;stroke-width:0.591747px;stroke-linecap:butt;stroke-linejoin:miter;stroke-miterlimit:4;stroke-dasharray:none;stroke-opacity:1"
       d="m 112.9989,234.31038 c 0.11687,7.0708 2.22057,18.45598 4.90863,15.69957 4.67489,-3.23579 3.03867,-12.46378 4.32426,-13.42253 -0.93496,0.71906 0.11688,3.83501 0.46749,7.43033 0.70124,3.47548 0.70124,7.67002 2.45432,7.19064 2.45431,-1.67781 3.27242,-5.51282 4.79176,-9.10815 1.16872,-3.47547 3.03868,-6.8311 2.80494,-7.19063"
       id="path5933" />
    <path
       style="fill:none;stroke:#64648a;stroke-width:0.591747px;stroke-linecap:butt;stroke-linejoin:miter;stroke-miterlimit:4;stroke-dasharray:none;stroke-opacity:1"
       d="m 155.54036,230.95476 c -0.58436,0.95874 -2.9218,5.99219 -4.32427,10.06689 -1.40247,4.19454 -1.86996,7.67002 2.33745,9.46768 3.97365,0.59922 6.42797,-0.95875 6.66171,-3.83502 0.23374,-2.7564 -1.51934,-6.71126 -4.32427,-5.51281 -4.67489,2.63656 -5.96048,2.87625 -5.60987,3.35563"
       id="path5935" />
    <path
       style="fill:none;stroke:#64648a;stroke-width:0.591747px;stroke-linecap:butt;stroke-linejoin:miter;stroke-miterlimit:4;stroke-dasharray:none;stroke-opacity:1"
       d="m 168.16255,234.55007 c -2.80493,3.59533 -4.90862,5.51283 -5.60985,8.02955 -0.70124,2.27704 0,5.1533 2.80492,6.47158 5.37612,3.11594 6.77859,-5.39298 8.18106,-8.62877 1.75307,-4.31438 0.8181,-9.58752 -5.37613,-5.87236 z"
       id="path5937" />
    <path
       style="fill:none;stroke:#64648a;stroke-width:0.591747px;stroke-linecap:butt;stroke-linejoin:miter;stroke-miterlimit:4;stroke-dasharray:none;stroke-opacity:1"
       d="m 178.68104,230.23569 c 0,0.83891 1.63622,8.74861 1.51935,9.94705"
       id="path5939" />
    <path
       style="fill:none;stroke:#64648a;stroke-width:0.591747px;stroke-linecap:butt;stroke-linejoin:miter;stroke-miterlimit:4;stroke-dasharray:none;stroke-opacity:1"
       d="m 177.27858,232.75241 c 2.57119,-0.35953 2.45432,-0.83891 5.60987,-1.19844"
       id="path5941" />
    <path
       style="fill:none;stroke:#64648a;stroke-width:0.591747px;stroke-linecap:butt;stroke-linejoin:miter;stroke-miterlimit:4;stroke-dasharray:none;stroke-opacity:1"
       d="m 185.5765,228.43803 c 0.46749,4.19454 1.98683,6.95095 1.86996,10.54627 0.11687,-0.35953 0.11687,-4.19454 0.93498,-6.47157 0.46749,-1.19844 1.40246,-0.35954 2.10369,1.55797 0.58436,1.79766 0.93498,4.67391 0.93498,4.55407"
       id="path5943" />
    <path
       style="fill:none;stroke:#64648a;stroke-width:0.591747px;stroke-linecap:butt;stroke-linejoin:miter;stroke-miterlimit:4;stroke-dasharray:none;stroke-opacity:1"
       d="m 222.04061,232.51273 c 6.07736,1.31828 9.81727,1.19844 16.94647,1.67781 -3.3893,-0.47937 -5.72674,-0.23969 -8.18105,-0.47937 -0.8181,6.8311 2.45431,8.86845 1.2856,17.37738"
       id="path5945" />
    <path
       style="fill:none;stroke:#64648a;stroke-width:0.591747px;stroke-linecap:butt;stroke-linejoin:miter;stroke-miterlimit:4;stroke-dasharray:none;stroke-opacity:1"
       d="m 258.85535,248.09245 c -5.72674,2.27703 -10.40163,4.55407 -13.32343,4.31438 -2.9218,-0.11984 -4.32427,-2.75641 -2.57119,-5.51282 1.86996,-2.63657 2.57119,-5.63267 4.55801,-7.67002 1.63621,-1.91751 4.55801,-2.87625 5.37613,-1.19844 1.28559,1.31828 -0.35063,2.9961 -1.98682,4.67391 -1.86997,1.55798 -3.73992,2.99611 -6.89546,2.51673"
       id="path5947" />
    <path
       style="fill:none;stroke:#64648a;stroke-width:0.591747px;stroke-linecap:butt;stroke-linejoin:miter;stroke-miterlimit:4;stroke-dasharray:none;stroke-opacity:1"
       d="m 256.86853,237.30648 c 0,1.19845 7.59667,11.02566 6.31109,11.98441 1.28558,-1.31829 -3.50617,-7.43033 -2.80494,-11.26534 1.40247,-3.71517 8.99916,-0.35953 9.46665,-0.47938"
       id="path5949" />
    <path
       style="fill:none;stroke:#64648a;stroke-width:0.591747px;stroke-linecap:butt;stroke-linejoin:miter;stroke-miterlimit:4;stroke-dasharray:none;stroke-opacity:1"
       d="m 274.28247,238.02555 c 1.98683,5.75251 4.67488,6.47158 5.37612,12.22409 0.81811,-1.79766 -3.03868,-9.70737 -2.92181,-11.86456 0.35062,-1.55797 4.55801,-4.0747 7.01233,-0.95875"
       id="path5951" />
    <path
       style="fill:none;stroke:#64648a;stroke-width:0.591747px;stroke-linecap:butt;stroke-linejoin:miter;stroke-miterlimit:4;stroke-dasharray:none;stroke-opacity:1"
       d="m 301.51368,235.86836 c 0,-1.67782 -8.64853,1.19844 -10.051,4.55407 -1.75309,2.75642 -3.62304,9.10815 -0.46749,10.30659 4.67488,0.35953 8.41479,-11.1455 10.51849,-14.86066 z"
       id="path5953" />
    <path
       style="fill:none;stroke:#64648a;stroke-width:0.591747px;stroke-linecap:butt;stroke-linejoin:miter;stroke-miterlimit:4;stroke-dasharray:none;stroke-opacity:1"
       d="m 301.51368,236.10805 c -0.35062,4.31438 0.8181,8.50893 0.93498,13.66222"
       id="path5955" />
    <path
       style="fill:none;stroke:#64648a;stroke-width:0.591747px;stroke-linecap:butt;stroke-linejoin:miter;stroke-miterlimit:4;stroke-dasharray:none;stroke-opacity:1"
       d="m 315.42147,236.34774 c 0.35062,-1.91751 1.40247,-5.27314 -3.50616,-0.95876 -3.62305,4.79376 -8.18106,7.43033 -2.33745,12.10425 4.55801,4.67391 7.24608,-2.15719 7.24608,-1.55798"
       id="path5957" />
    <path
       style="fill:none;stroke:#64648a;stroke-width:0.591747px;stroke-linecap:butt;stroke-linejoin:miter;stroke-miterlimit:4;stroke-dasharray:none;stroke-opacity:1"
       d="m 334.12102,246.41463 c -11.10287,7.78986 -12.38845,-3.11594 -11.10287,-4.9136 1.05186,-0.71907 1.86996,-2.51673 3.73992,-4.55408 1.75308,-1.9175 4.55801,-3.95485 6.31109,-3.23578 3.73991,1.07859 1.75309,6.47157 -2.33744,6.8311 -3.27242,1.55797 -6.77859,0.59923 -7.01233,0.23969"
       id="path5959" />
    <path
       style="fill:none;stroke:#64648a;stroke-width:0.591747px;stroke-linecap:butt;stroke-linejoin:miter;stroke-miterlimit:4;stroke-dasharray:none;stroke-opacity:1"
       d="m 14.125056,288.2402 c 0,-5.39298 -1.285591,-10.66612 -1.753083,-16.41864 0,0.95876 15.777743,-7.78985 15.543998,2.99611 -0.350614,5.51283 -0.701234,8.26924 -2.454314,10.54628 -1.75308,2.15718 -4.908632,3.71516 -11.336601,2.87625 z"
       id="path5961" />
    <path
       style="fill:none;stroke:#64648a;stroke-width:0.591747px;stroke-linecap:butt;stroke-linejoin:miter;stroke-miterlimit:4;stroke-dasharray:none;stroke-opacity:1"
       d="m 40.187551,273.97876 c -11.102858,0.95875 -14.141536,11.62488 -7.713567,12.34394 3.973656,-0.11984 4.674889,-3.23579 5.609866,-6.23189 0.701234,-2.9961 1.636206,-5.75252 2.103701,-6.11205 z"
       id="path5963" />
    <path
       style="fill:none;stroke:#64648a;stroke-width:0.591747px;stroke-linecap:butt;stroke-linejoin:miter;stroke-miterlimit:4;stroke-dasharray:none;stroke-opacity:1"
       d="m 40.187551,273.97876 c -0.701234,4.31439 1.636205,8.38909 1.75308,13.90191"
       id="path5965" />
    <path
       style="fill:none;stroke:#64648a;stroke-width:0.591747px;stroke-linecap:butt;stroke-linejoin:miter;stroke-miterlimit:4;stroke-dasharray:none;stroke-opacity:1"
       d="m 44.628689,272.66048 c -0.467488,0.23968 1.869956,12.58362 4.207395,14.14159 3.038677,-4.67391 3.856786,-7.55017 5.025508,-10.18674 0.934972,-2.63657 2.220569,-4.79377 1.753079,-4.79377"
       id="path5967" />
    <path
       style="fill:none;stroke:#64648a;stroke-width:0.591747px;stroke-linecap:butt;stroke-linejoin:miter;stroke-miterlimit:4;stroke-dasharray:none;stroke-opacity:1"
       d="m 62.393253,266.78812 c 0.350619,0.95875 0.701232,0.95875 0.934977,2.15719"
       id="path5969" />
    <path
       style="fill:none;stroke:#64648a;stroke-width:0.591747px;stroke-linecap:butt;stroke-linejoin:miter;stroke-miterlimit:4;stroke-dasharray:none;stroke-opacity:1"
       d="m 62.860741,272.78032 c -0.233738,5.15329 -0.233738,9.58753 -0.233738,13.66222"
       id="path5971" />
    <path
       style="fill:none;stroke:#64648a;stroke-width:0.591747px;stroke-linecap:butt;stroke-linejoin:miter;stroke-miterlimit:4;stroke-dasharray:none;stroke-opacity:1"
       d="m 85.06645,285.00441 c -6.194224,0.59923 -10.051004,0.35954 -12.739062,-0.95875 -2.571189,-1.19844 -3.85678,-3.35563 -1.051853,-5.75251 1.519341,-2.27704 5.726741,-5.03346 8.999157,-5.87236 3.272423,-0.95876 5.609867,-0.11984 3.506168,0.95875 -4.791759,2.27703 -8.18105,5.63267 -12.505325,4.91361"
       id="path5973" />
    <path
       style="fill:none;stroke:#64648a;stroke-width:0.591747px;stroke-linecap:butt;stroke-linejoin:miter;stroke-miterlimit:4;stroke-dasharray:none;stroke-opacity:1"
       d="m 93.130631,284.76472 c -2.454314,2.51673 -2.337444,4.67392 -4.32427,6.71127"
       id="path5975" />
    <path
       style="fill:none;stroke:#64648a;stroke-width:0.591747px;stroke-linecap:butt;stroke-linejoin:miter;stroke-miterlimit:4;stroke-dasharray:none;stroke-opacity:1"
       d="m 107.38903,283.44644 c 0.35062,-6.35173 -1.40246,-11.86456 -1.98682,-19.17505 4.09052,0.35954 7.36294,-0.11984 11.80408,-0.23968"
       id="path5977" />
    <path
       style="fill:none;stroke:#64648a;stroke-width:0.591747px;stroke-linecap:butt;stroke-linejoin:miter;stroke-miterlimit:4;stroke-dasharray:none;stroke-opacity:1"
       d="m 106.80467,274.45814 c 1.86996,0.47937 3.03867,0 4.32427,-0.47938"
       id="path5979" />
    <path
       style="fill:none;stroke:#64648a;stroke-width:0.591747px;stroke-linecap:butt;stroke-linejoin:miter;stroke-miterlimit:4;stroke-dasharray:none;stroke-opacity:1"
       d="m 121.41369,263.31264 c 0.11687,7.19064 0.11687,12.46378 0,18.93536 4.79176,0.23969 9.46665,-1.19844 13.90779,-0.47937"
       id="path5981" />
    <path
       style="fill:none;stroke:#64648a;stroke-width:0.591747px;stroke-linecap:butt;stroke-linejoin:miter;stroke-miterlimit:4;stroke-dasharray:none;stroke-opacity:1"
       d="m 154.37163,267.50718 c 9.11604,-4.31439 10.63538,-0.59922 8.18107,3.23579 -1.51935,3.71517 -4.09053,3.35564 -4.32428,3.35564 0.58436,0.59921 2.80493,-1.0786 5.96048,-1.19845 2.92181,-0.35953 6.77859,0.71907 6.19423,3.59532 -1.40246,3.95486 -11.92096,4.67392 -12.03784,4.19455"
       id="path5983" />
    <path
       style="fill:none;stroke:#64648a;stroke-width:0.591747px;stroke-linecap:butt;stroke-linejoin:miter;stroke-miterlimit:4;stroke-dasharray:none;stroke-opacity:1"
       d="m 173.18805,266.90796 c 7.59669,-2.03735 18.69955,2.03735 10.51849,5.87236 -6.77857,4.55407 -8.18104,0.83891 -7.71355,1.0786 0.93498,0.95875 4.32427,-0.83891 8.64853,-0.83891 3.97366,-0.23969 8.88229,1.43813 6.31111,4.19454 -3.97366,5.03345 -11.21973,4.31439 -10.98599,3.95485"
       id="path5985" />
    <path
       style="fill:none;stroke:#64648a;stroke-width:0.591747px;stroke-linecap:butt;stroke-linejoin:miter;stroke-miterlimit:4;stroke-dasharray:none;stroke-opacity:1"
       d="m 194.45879,268.1064 c 4.32427,-3.11594 11.80408,0.11985 8.18105,3.95485 -2.33745,4.31439 -5.72673,4.31439 -6.07736,4.0747 0.70124,1.0786 8.64855,-6.95095 10.98599,0.11985 0.58436,5.03345 -7.83043,5.51283 -7.94731,5.51283"
       id="path5987" />
    <path
       style="fill:none;stroke:#64648a;stroke-width:0.591747px;stroke-linecap:butt;stroke-linejoin:miter;stroke-miterlimit:4;stroke-dasharray:none;stroke-opacity:1"
       d="m 216.54762,266.06906 c 1.16873,6.35173 2.22058,5.99219 3.15556,13.42253"
       id="path5989" />
    <path
       style="fill:none;stroke:#64648a;stroke-width:0.591747px;stroke-linecap:butt;stroke-linejoin:miter;stroke-miterlimit:4;stroke-dasharray:none;stroke-opacity:1"
       d="m 226.01427,264.03171 c 0.35062,3.59531 0.70123,7.43032 1.16872,10.9058 3.03868,0 4.09053,-2.51672 6.54484,-2.87626 -0.23374,-2.15718 -0.58436,-3.95485 -0.46749,-6.23188 0.35062,4.19454 1.86996,9.34783 2.1037,15.34003"
       id="path5991" />
    <path
       style="fill:none;stroke:#64648a;stroke-width:0.591747px;stroke-linecap:butt;stroke-linejoin:miter;stroke-miterlimit:4;stroke-dasharray:none;stroke-opacity:1"
       d="m 139.64575,348.04237 c 1.98683,-8.86845 0.8181,-13.9019 -6.42796,-12.22409 -6.77859,2.75642 -10.05102,5.75252 -2.33745,14.26144 3.7399,3.59533 6.66171,3.47548 9.58351,4.55408 2.80494,0.83891 5.60987,2.7564 7.5967,6.35173 3.85677,7.31049 2.1037,17.01785 -6.19423,15.57972 -4.32427,-1.67781 -7.83044,-2.63657 -10.63537,-4.79376 -2.57119,-1.9175 -4.32427,-5.03344 -1.63621,-9.10814"
       id="path5993" />
    <path
       style="fill:none;stroke:#64648a;stroke-width:0.591747px;stroke-linecap:butt;stroke-linejoin:miter;stroke-miterlimit:4;stroke-dasharray:none;stroke-opacity:1"
       d="m 152.8523,352.11707 c -2.80493,5.39298 0.46749,22.41084 3.03868,22.41084 1.63621,0.11984 4.09053,-3.71517 4.79176,-7.55018 0.93498,-3.95485 0,-7.67001 0.11687,-11.02565 5.25925,11.26534 7.9473,19.0552 10.98597,15.45988 2.10371,-1.19844 0.23375,-8.26924 -1.40245,-13.66222 -1.63622,-5.51282 -3.15556,-9.34784 -2.57119,-9.94705"
       id="path5995" />
    <path
       style="fill:none;stroke:#64648a;stroke-width:0.591747px;stroke-linecap:butt;stroke-linejoin:miter;stroke-miterlimit:4;stroke-dasharray:none;stroke-opacity:1"
       d="m 177.27858,363.6221 c 2.80493,0.71906 4.79176,-1.67782 7.1292,-3.47547 2.1037,-2.03736 4.44115,-3.71517 1.98684,-5.27315 -1.98684,-2.27703 -5.25925,-0.23968 -7.36295,1.79766 -2.22057,2.27704 -3.15555,4.55407 -1.28561,9.22799 3.62305,7.55018 10.51851,7.31049 11.10287,6.95096"
       id="path5997" />
    <path
       style="fill:none;stroke:#64648a;stroke-width:0.591747px;stroke-linecap:butt;stroke-linejoin:miter;stroke-miterlimit:4;stroke-dasharray:none;stroke-opacity:1"
       d="m 191.65386,364.7007 c 2.9218,1.79766 4.20739,-0.59922 6.07735,-2.03735 1.63621,-1.79767 3.85678,-2.75641 2.33744,-5.27315 -1.86995,-4.19453 -4.67488,-2.15718 -6.89546,2.1572 -2.45431,2.63657 -2.57119,14.38128 6.89546,14.26144"
       id="path5999" />
    <path
       style="fill:none;stroke:#64648a;stroke-width:0.591747px;stroke-linecap:butt;stroke-linejoin:miter;stroke-miterlimit:4;stroke-dasharray:none;stroke-opacity:1"
       d="m 211.98961,376.56525 c 0.23374,-4.0747 -0.93498,-6.11204 -2.22057,-9.10814 -1.2856,-2.87626 -2.68805,-6.59143 -3.73991,-10.06691 -0.11687,0 -2.45431,-1.79765 10.16788,-1.19843 6.07735,-0.23969 8.29793,2.75641 7.24607,4.9136 -0.93498,2.39688 -5.14237,3.95486 -6.89546,4.91361 -4.32427,1.91751 -6.66171,1.55797 -6.77858,1.43813"
       id="path6001" />
    <path
       style="fill:none;stroke:#64648a;stroke-width:0.591747px;stroke-linecap:butt;stroke-linejoin:miter;stroke-miterlimit:4;stroke-dasharray:none;stroke-opacity:1"
       d="m 234.42906,355.59255 c -0.46749,-0.11984 2.57119,-10.18674 -2.10369,-7.31049 -4.44114,3.83501 -8.29792,3.95486 -2.45432,8.38908 2.80493,1.91751 5.96048,0.35953 8.99916,2.03735 2.9218,1.0786 5.60986,5.63267 3.03868,7.31049 -1.7531,2.39688 -3.97366,4.55408 -5.72674,5.03345 -1.86996,0.47938 -3.27242,-0.71907 -3.85678,-1.91751 -0.70123,-2.15719 -5.14238,-8.14939 -5.25925,-8.74861"
       id="path6003" />
    <path
       style="fill:none;stroke:#64648a;stroke-width:0.591747px;stroke-linecap:butt;stroke-linejoin:miter;stroke-miterlimit:4;stroke-dasharray:none;stroke-opacity:1"
       d="m 246.11627,341.33111 c 0.81812,5.15329 1.63622,10.78596 2.33745,12.94315 0.81811,1.91751 1.51935,8.1494 2.22058,14.26144"
       id="path6005" />
    <path
       style="fill:none;stroke:#64648a;stroke-width:0.591747px;stroke-linecap:butt;stroke-linejoin:miter;stroke-miterlimit:4;stroke-dasharray:none;stroke-opacity:1"
       d="m 239.80519,352.83613 c 7.83043,-1.07859 7.47981,-2.39688 16.82959,-3.83501"
       id="path6007" />
    <path
       style="fill:none;stroke:#64648a;stroke-width:0.591747px;stroke-linecap:butt;stroke-linejoin:miter;stroke-miterlimit:4;stroke-dasharray:none;stroke-opacity:1"
       d="m 260.25781,344.5669 c -0.11687,-0.23969 9.2329,-3.47548 10.40162,1.31828 1.75308,3.83501 3.62304,17.85677 3.27242,18.2163 0,0.59922 -1.40247,-4.0747 -3.50617,-6.95096 -2.10369,-3.11594 -4.79175,-4.31439 -6.77857,-3.83501 -3.97366,0.35954 -9.58352,7.19064 -3.3893,10.90581 4.90863,3.71517 13.67404,-0.83891 13.67404,-0.11984"
       id="path6009" />
    <path
       style="fill:none;stroke:#64648a;stroke-width:0.591747px;stroke-linecap:butt;stroke-linejoin:miter;stroke-miterlimit:4;stroke-dasharray:none;stroke-opacity:1"
       d="m 275.56806,340.25251 c -0.11687,0.59922 1.63622,7.43033 3.03868,12.70347 1.28559,5.63267 2.1037,9.70737 1.63621,11.38518 0.46749,-4.0747 0.23375,-6.83111 -0.11687,-9.34783 0.35062,0 0.81811,-3.23579 2.45431,-6.59143 1.40247,-3.35563 3.97365,-6.8311 3.97365,-7.19064"
       id="path6011" />
    <path
       style="fill:none;stroke:#64648a;stroke-width:0.591747px;stroke-linecap:butt;stroke-linejoin:miter;stroke-miterlimit:4;stroke-dasharray:none;stroke-opacity:1"
       d="m 280.24295,353.67505 c 2.92181,3.835 5.60986,3.71515 7.94731,8.14939"
       id="path6013" />
    <path
       style="fill:none;stroke:#64648a;stroke-width:0.591747px;stroke-linecap:butt;stroke-linejoin:miter;stroke-miterlimit:4;stroke-dasharray:none;stroke-opacity:1"
       d="m 294.38448,351.39801 c 4.32427,-0.47938 5.14238,-3.11595 4.55802,-5.75251 -0.58436,-2.51673 -2.45432,-4.79377 -4.20741,-0.47938 -2.68805,6.47158 -2.45431,13.90191 2.1037,14.1416 4.79176,-1.19845 4.32427,-4.67392 4.44115,-4.91361"
       id="path6015" />
    <path
       style="fill:none;stroke:#64648a;stroke-width:0.591747px;stroke-linecap:butt;stroke-linejoin:miter;stroke-miterlimit:4;stroke-dasharray:none;stroke-opacity:1"
       d="m 314.83711,347.68284 c -2.1037,-3.71516 -8.41479,-6.71126 -10.40163,-3.59532 -0.8181,0.83891 4.32427,4.67391 8.53167,4.9136 3.97366,0.2397 9.93414,4.31439 8.18105,7.67002 -1.28559,2.75642 -3.85678,4.43423 -5.8436,3.71517 -1.98683,-0.47937 -3.38929,-3.47548 -4.32427,-5.51283"
       id="path6017" />
    <path
       style="fill:none;stroke:#64648a;stroke-width:0.591747px;stroke-linecap:butt;stroke-linejoin:miter;stroke-miterlimit:4;stroke-dasharray:none;stroke-opacity:1"
       d="m 370.11765,328.38796 c 0.81809,5.9922 1.63619,13.06299 2.68803,18.57582 0.93499,5.75251 1.86998,9.94705 1.63623,16.89801 3.73992,-0.95876 6.77857,-4.31439 10.28473,-3.23579"
       id="path6019" />
    <path
       style="fill:none;stroke:#64648a;stroke-width:0.591747px;stroke-linecap:butt;stroke-linejoin:miter;stroke-miterlimit:4;stroke-dasharray:none;stroke-opacity:1"
       d="m 384.9604,330.4253 c 0.70123,2.63657 1.40246,2.51673 1.98684,5.63267"
       id="path6021" />
    <path
       style="fill:none;stroke:#64648a;stroke-width:0.591747px;stroke-linecap:butt;stroke-linejoin:miter;stroke-miterlimit:4;stroke-dasharray:none;stroke-opacity:1"
       d="m 388.46656,343.36846 c 0.8181,4.55407 1.63623,9.70736 2.33746,11.62487 0.70124,1.67781 1.40247,7.31049 2.1037,12.94316"
       id="path6023" />
    <path
       style="fill:none;stroke:#64648a;stroke-width:0.591747px;stroke-linecap:butt;stroke-linejoin:miter;stroke-miterlimit:4;stroke-dasharray:none;stroke-opacity:1"
       d="m 393.84267,342.40971 c 1.63622,8.50892 6.89547,15.22019 6.19423,22.77036 1.05186,-0.59922 -2.57116,-10.66612 1.16872,-14.26144 3.73992,-3.35563 8.64855,6.11204 8.88231,10.54628 1.05184,-0.95876 -4.09055,-9.94705 -0.58438,-14.1416 3.97365,-3.83501 7.94733,-2.9961 11.6872,12.46378"
       id="path6025" />
    <path
       style="fill:none;stroke:#64648a;stroke-width:0.591747px;stroke-linecap:butt;stroke-linejoin:miter;stroke-miterlimit:4;stroke-dasharray:none;stroke-opacity:1"
       d="m 422.71012,332.94203 c 1.16871,2.39688 2.33741,2.27703 3.2724,5.03344"
       id="path6027" />
    <path
       style="fill:none;stroke:#64648a;stroke-width:0.591747px;stroke-linecap:butt;stroke-linejoin:miter;stroke-miterlimit:4;stroke-dasharray:none;stroke-opacity:1"
       d="m 426.45,343.96768 c 0.81813,3.95485 1.51937,8.38908 2.2206,10.0669 0.70124,1.55797 1.28557,6.47157 1.86993,11.26533"
       id="path6029" />
    <path
       style="fill:none;stroke:#64648a;stroke-width:0.591747px;stroke-linecap:butt;stroke-linejoin:miter;stroke-miterlimit:4;stroke-dasharray:none;stroke-opacity:1"
       d="m 433.22861,333.06187 c 0.46748,2.39688 0.81809,5.99221 1.28557,8.50893 0.46751,2.75641 0.93499,4.31438 1.28561,5.87236 0.46748,1.67781 0.81809,3.35563 1.2856,6.35173 0.35061,2.87625 0.70124,6.95095 1.05185,9.94706"
       id="path6031" />
    <path
       style="fill:none;stroke:#64648a;stroke-width:0.591747px;stroke-linecap:butt;stroke-linejoin:miter;stroke-miterlimit:4;stroke-dasharray:none;stroke-opacity:1"
       d="m 431.82615,347.68284 c 5.25924,-1.0786 5.02549,-2.27703 11.33658,-3.71516"
       id="path6033" />
    <path
       style="fill:none;stroke:#64648a;stroke-width:0.591747px;stroke-linecap:butt;stroke-linejoin:miter;stroke-miterlimit:4;stroke-dasharray:none;stroke-opacity:1"
       d="m 449.12321,351.15832 c 4.09054,0.71907 6.89546,-7.78986 5.493,-8.62877 -1.28561,-0.71907 -3.50617,2.87626 -5.02553,5.51282 -1.51932,2.99611 -2.57116,5.1533 -2.45431,8.62877 0.93499,6.83111 9.46664,-0.71906 9.58353,0.23969"
       id="path6035" />
    <path
       style="fill:none;stroke:#64648a;stroke-width:0.591747px;stroke-linecap:butt;stroke-linejoin:miter;stroke-miterlimit:4;stroke-dasharray:none;stroke-opacity:1"
       d="m 472.84826,333.4214 c -0.81812,8.1494 1.63619,15.69957 1.86995,25.40694 0,0.71906 -0.93499,-5.51283 -2.68807,-9.22799 -1.75309,-4.0747 -4.44112,-5.51283 -6.66171,-3.47548 -2.57118,1.31829 -4.55801,3.59532 -4.44113,6.23189 0,2.51672 1.86995,5.39298 3.73989,5.75251 4.67491,1.19845 9.34978,-2.9961 9.34978,-2.27703"
       id="path6037" />
    <path
       style="fill:none;stroke:#64648a;stroke-width:0.591747px;stroke-linecap:butt;stroke-linejoin:miter;stroke-miterlimit:4;stroke-dasharray:none;stroke-opacity:1"
       d="m 126.67294,392.38467 c 0,-1.0786 0.46749,2.87626 0.93497,6.23189 0.46749,3.71516 1.05185,6.71126 1.63622,9.94706 0.70123,3.35562 1.16872,6.8311 1.63621,11.14549 0.35061,4.0747 0.58435,8.74861 0.46749,7.19064"
       id="path6039" />
    <path
       style="fill:none;stroke:#64648a;stroke-width:0.591747px;stroke-linecap:butt;stroke-linejoin:miter;stroke-miterlimit:4;stroke-dasharray:none;stroke-opacity:1"
       d="m 138.5939,398.49671 c 1.98682,-2.87625 13.90778,-7.55017 6.54485,4.9136 -4.90864,12.94316 -8.18106,10.18675 -8.53168,10.30659 0,-0.23969 1.40247,0.71907 2.80494,0.59922 1.51933,0 3.15554,-1.07859 4.79176,-2.03734 2.80492,-2.87626 7.71355,-2.1572 8.53166,4.67392 0.35062,6.11204 -0.35062,9.94705 -1.51934,13.30268 -1.28559,2.9961 -3.03867,5.51282 -4.79176,3.23579 -3.03868,-4.67392 -8.53167,-8.9883 -6.07736,-13.90191"
       id="path6041" />
    <path
       style="fill:none;stroke:#64648a;stroke-width:0.591747px;stroke-linecap:butt;stroke-linejoin:miter;stroke-miterlimit:4;stroke-dasharray:none;stroke-opacity:1"
       d="m 152.50168,395.02123 c 0.58437,2.75642 1.16872,6.95095 1.75309,9.82722 0.58436,3.11594 1.16872,4.79376 1.63621,6.71126 0.58436,1.9175 1.16873,3.83501 1.63621,7.19064 0.46749,3.35564 1.05185,8.02955 1.51934,11.50503"
       id="path6043" />
    <path
       style="fill:none;stroke:#64648a;stroke-width:0.591747px;stroke-linecap:butt;stroke-linejoin:miter;stroke-miterlimit:4;stroke-dasharray:none;stroke-opacity:1"
       d="m 166.87696,401.7325 c -3.15554,-5.27314 -7.71357,-0.95875 -7.71357,3.83501 -0.46748,3.11595 1.40247,9.58753 2.92181,14.62097 1.63622,5.27314 3.03867,9.10815 5.493,9.94706 2.33744,-1.43813 4.20738,-5.87236 4.09052,-12.34394 0.11686,-6.23189 -1.86996,-14.26144 -4.79176,-16.0591 z"
       id="path6045" />
    <path
       style="fill:none;stroke:#64648a;stroke-width:0.591747px;stroke-linecap:butt;stroke-linejoin:miter;stroke-miterlimit:4;stroke-dasharray:none;stroke-opacity:1"
       d="m 176.8111,392.62435 c 0.93496,2.63658 1.86994,6.71127 2.80492,9.46768 0.81812,2.9961 1.75309,4.67392 2.57119,6.59143 0.81811,1.79765 1.75308,3.59532 2.57119,6.95095 0.8181,3.11594 1.63622,7.67002 2.33745,11.02565"
       id="path6047" />
    <path
       style="fill:none;stroke:#64648a;stroke-width:0.591747px;stroke-linecap:butt;stroke-linejoin:miter;stroke-miterlimit:4;stroke-dasharray:none;stroke-opacity:1"
       d="m 231.62414,414.55581 c 0.23374,-5.03345 -0.81811,-7.43033 -1.98684,-11.1455 -1.05184,-3.35562 -2.33744,-7.9097 -3.27241,-12.10424 0,0.71907 15.07651,-7.0708 14.60902,1.67781 -2.68806,6.95097 -10.40162,12.10425 -10.86912,11.98441"
       id="path6049" />
    <path
       style="fill:none;stroke:#64648a;stroke-width:0.591747px;stroke-linecap:butt;stroke-linejoin:miter;stroke-miterlimit:4;stroke-dasharray:none;stroke-opacity:1"
       d="m 241.4414,401.01344 c 0.11686,0 1.40247,6.35173 2.45431,9.10814 1.28559,2.87626 1.75308,7.90971 1.98682,8.02955 0.81811,-3.47547 -3.85678,-12.46378 -2.57118,-17.01785 1.51934,-3.23579 4.90863,-0.71906 5.14237,-0.8389"
       id="path6051" />
    <path
       style="fill:none;stroke:#64648a;stroke-width:0.591747px;stroke-linecap:butt;stroke-linejoin:miter;stroke-miterlimit:4;stroke-dasharray:none;stroke-opacity:1"
       d="m 252.54424,408.92315 c 3.73992,0.71906 5.49299,-1.0786 7.47983,-1.91751 1.75308,-0.95875 3.7399,-0.95875 3.62304,-0.95875 -0.23375,-0.2397 -1.63622,-4.79377 -6.77858,-5.1533 -6.19423,1.31829 -5.72674,16.77817 0.23374,18.81552 6.54484,0.95875 7.9473,-4.67392 8.06417,-4.19454"
       id="path6053" />
    <path
       style="fill:none;stroke:#64648a;stroke-width:0.591747px;stroke-linecap:butt;stroke-linejoin:miter;stroke-miterlimit:4;stroke-dasharray:none;stroke-opacity:1"
       d="m 277.78863,400.05469 c -2.22057,-2.51673 -3.7399,-5.27314 -6.42797,-1.79766 -2.57117,3.11594 -3.03867,7.78986 1.51934,7.55016 1.98683,-0.47937 5.37612,-0.95874 7.94731,0.47938 2.45431,1.19844 4.2074,4.55408 1.2856,5.99221 -2.1037,2.39688 -6.66172,4.67392 -10.05101,4.55408 -3.50616,-0.11985 -6.19423,-2.75643 -5.14238,-6.83112"
       id="path6055" />
    <path
       style="fill:none;stroke:#64648a;stroke-width:0.591747px;stroke-linecap:butt;stroke-linejoin:miter;stroke-miterlimit:4;stroke-dasharray:none;stroke-opacity:1"
       d="m 287.25527,388.90919 c 0,-1.07859 0.23375,2.27703 0.4675,5.15329 0.35062,3.11594 0.70123,5.75252 1.16872,8.50893 0.35061,2.75641 0.70123,5.63267 1.05185,9.22799 0.23374,3.35564 0.35061,7.43033 0.35061,6.23189"
       id="path6057" />
    <path
       style="fill:none;stroke:#64648a;stroke-width:0.591747px;stroke-linecap:butt;stroke-linejoin:miter;stroke-miterlimit:4;stroke-dasharray:none;stroke-opacity:1"
       d="m 282.69726,399.33562 c 6.54484,-0.95875 6.19423,-2.1572 14.02466,-3.35563"
       id="path6059" />
    <path
       style="fill:none;stroke:#64648a;stroke-width:0.591747px;stroke-linecap:butt;stroke-linejoin:miter;stroke-miterlimit:4;stroke-dasharray:none;stroke-opacity:1"
       d="m 307.00668,396.57921 c -5.25925,-1.55798 -9.7004,0 -8.4148,6.95095 0.8181,4.31439 2.10369,6.71126 3.38929,8.74862 1.28559,1.9175 2.33745,3.35563 4.67489,2.15719 1.75308,-1.67781 3.27242,-4.19455 3.50616,-7.90971 0.11688,-3.59532 -1.16873,-8.26923 -3.15554,-9.94705 z"
       id="path6061" />
    <path
       style="fill:none;stroke:#64648a;stroke-width:0.591747px;stroke-linecap:butt;stroke-linejoin:miter;stroke-miterlimit:4;stroke-dasharray:none;stroke-opacity:1"
       d="m 310.86346,394.30217 c 1.28559,3.23579 2.80493,7.19064 4.44114,10.0669 1.51934,3.11594 3.15554,5.03345 3.27242,8.74862 0.11687,-0.23969 -0.35062,-2.87627 -1.16872,-5.87236 -0.81811,-2.9961 -1.98683,-6.23189 0.46749,-10.54628 3.03866,-3.59532 4.90863,-1.31828 7.47981,3.2358 2.22057,4.43422 5.14238,11.14549 4.44115,15.45987"
       id="path6063" />
    <path
       style="fill:none;stroke:#64648a;stroke-width:0.591747px;stroke-linecap:butt;stroke-linejoin:miter;stroke-miterlimit:4;stroke-dasharray:none;stroke-opacity:1"
       d="m 367.19582,415.99394 c 0.35062,-5.63267 -0.46747,-9.22799 -1.28557,-14.02176 -0.81813,-4.55407 -1.63623,-10.30657 -2.2206,-15.22018 0.35062,0.11984 4.67492,0.11984 8.76542,0.83891 3.85678,0.59922 7.47984,1.79765 2.45431,4.67391 -4.44112,3.35564 -6.07734,5.15329 -7.71356,5.03345 -1.40246,0.11984 -2.57118,-1.79766 -2.33741,-1.55797"
       id="path6065" />
    <path
       style="fill:none;stroke:#64648a;stroke-width:0.591747px;stroke-linecap:butt;stroke-linejoin:miter;stroke-miterlimit:4;stroke-dasharray:none;stroke-opacity:1"
       d="m 370.00075,395.86015 c 0,-0.71907 0.81814,1.55796 1.98684,3.59531 1.28561,2.03735 2.80494,3.83501 4.32426,5.63267 1.40247,1.91751 2.92183,3.83502 3.97368,6.35174 0.93495,2.27703 1.63618,5.15329 1.63618,4.55407"
       id="path6067" />
    <path
       style="fill:none;stroke:#64648a;stroke-width:0.591747px;stroke-linecap:butt;stroke-linejoin:miter;stroke-miterlimit:4;stroke-dasharray:none;stroke-opacity:1"
       d="m 387.88219,416.59316 c 0.35062,-5.03345 -0.58433,-8.50893 -1.51933,-12.94315 -0.93499,-4.31439 -1.75307,-9.58753 -2.45431,-14.1416 0.35062,-0.47938 3.97364,1.67781 7.83043,3.47547 3.85678,2.1572 7.94731,3.71517 9.11602,11.26535 0.23376,9.8272 -12.5053,12.82331 -12.97281,12.34393 z"
       id="path6069" />
    <path
       style="fill:none;stroke:#64648a;stroke-width:0.591747px;stroke-linecap:butt;stroke-linejoin:miter;stroke-miterlimit:4;stroke-dasharray:none;stroke-opacity:1"
       d="m 443.2796,389.98779 c 3.62305,-6.35174 -0.8181,-10.78596 -8.29791,-6.23189 -6.42799,4.0747 2.33743,9.46767 5.49297,9.70736 1.40247,-0.11985 5.493,2.75642 7.94732,7.0708 2.57117,4.19454 3.2724,9.82721 -0.11686,10.66612 -3.85678,2.51672 -8.88231,2.63657 -13.32343,0.11984 -4.2074,-2.39687 -7.83046,-7.31048 -4.32429,-14.62097"
       id="path6071" />
    <path
       style="fill:none;stroke:#64648a;stroke-width:0.591747px;stroke-linecap:butt;stroke-linejoin:miter;stroke-miterlimit:4;stroke-dasharray:none;stroke-opacity:1"
       d="m 448.07136,382.31777 c -0.70123,0 1.51932,-0.11985 3.3893,-0.23969 1.98681,0 3.62303,-0.23969 5.25924,-0.35953 1.75309,-0.11984 3.62304,-0.35953 5.84359,-0.47938 2.1037,-0.11985 4.67492,-0.23969 3.97368,-0.23969"
       id="path6073" />
    <path
       style="fill:none;stroke:#64648a;stroke-width:0.591747px;stroke-linecap:butt;stroke-linejoin:miter;stroke-miterlimit:4;stroke-dasharray:none;stroke-opacity:1"
       d="m 457.18738,382.6773 c 0.35062,2.51672 0.70124,6.23189 1.05186,8.74862 0.35061,2.75641 0.70123,4.31438 1.05184,5.99219 0.23376,1.67782 0.58438,3.35564 0.93499,6.47159 0.35062,2.87625 0.58435,7.07079 0.93495,10.18673"
       id="path6075" />
    <path
       style="fill:none;stroke:#64648a;stroke-width:0.591747px;stroke-linecap:butt;stroke-linejoin:miter;stroke-miterlimit:4;stroke-dasharray:none;stroke-opacity:1"
       d="m 478.22438,377.04463 c -3.97365,2.39688 -7.01234,5.75251 -10.40164,5.63267 -0.11687,-0.35953 0.70123,5.63267 1.98684,11.38518 1.1687,5.75252 2.80493,11.38518 3.50616,14.1416 0.70123,2.63657 3.27241,5.39298 6.07735,5.27313 2.80492,0 5.72676,-2.87625 6.54484,-6.11204"
       id="path6077" />
    <path
       style="fill:none;stroke:#64648a;stroke-width:0.591747px;stroke-linecap:butt;stroke-linejoin:miter;stroke-miterlimit:4;stroke-dasharray:none;stroke-opacity:1"
       d="m 470.5108,398.49671 c 5.1424,-0.95875 4.90864,-2.03735 10.98598,-3.23578"
       id="path6079" />
    <path
       style="fill:none;stroke:#64648a;stroke-width:0.591747px;stroke-linecap:butt;stroke-linejoin:miter;stroke-miterlimit:4;stroke-dasharray:none;stroke-opacity:1"
       d="m 505.92308,378.12322 c 0.81808,2.75642 1.51932,7.19065 2.22055,10.18675 0.70123,3.11595 1.40247,5.03344 2.1037,6.95096 0.70124,1.91749 1.40247,3.95485 1.98683,7.43032 0.70124,3.35564 1.28562,8.26924 1.98685,11.86456"
       id="path6081" />
    <path
       style="fill:none;stroke:#64648a;stroke-width:0.591747px;stroke-linecap:butt;stroke-linejoin:miter;stroke-miterlimit:4;stroke-dasharray:none;stroke-opacity:1"
       d="m 518.8959,380.63995 c 0,-1.19844 0.70121,2.87626 1.51933,6.23189 0.81812,3.59532 1.98681,6.59142 2.92179,9.82721 1.16875,3.2358 2.10373,6.71126 2.80494,10.90581 0.81811,3.95485 1.16875,8.62877 1.16875,7.31048"
       id="path6083" />
    <path
       style="fill:none;stroke:#64648a;stroke-width:0.591747px;stroke-linecap:butt;stroke-linejoin:miter;stroke-miterlimit:4;stroke-dasharray:none;stroke-opacity:1"
       d="m 537.71231,386.752 c -3.03869,-2.39688 -5.25923,16.65831 -0.58439,23.96881 1.63624,3.47547 3.97368,4.9136 5.84363,4.07469 1.86996,-0.59922 3.5062,-3.23579 3.73991,-4.43423 0.23372,-0.83891 0.46749,-6.71126 -0.81811,-11.02565 -1.28562,-4.67392 -4.09055,-7.9097 -8.18104,-12.58362 z"
       id="path6085" />
    <path
       style="fill:none;stroke:#64648a;stroke-width:0.591747px;stroke-linecap:butt;stroke-linejoin:miter;stroke-miterlimit:4;stroke-dasharray:none;stroke-opacity:1"
       d="m 605.26443,386.27262 c -3.03865,-2.39688 -5.14233,16.65832 -0.5843,23.84896 1.75305,3.59532 3.97363,4.91361 5.84359,4.19454 1.98681,-0.59922 3.50614,-3.35563 3.73991,-4.55407 0.35057,-0.71906 0.58435,-6.71127 -0.81812,-11.02565 -1.16875,-4.67392 -3.97368,-7.78986 -8.18108,-12.46378 z"
       id="path6087" />
    <path
       style="fill:none;stroke:#64648a;stroke-width:0.591747px;stroke-linecap:butt;stroke-linejoin:miter;stroke-miterlimit:4;stroke-dasharray:none;stroke-opacity:1"
       d="m 556.52875,398.7364 c 3.8568,-0.23969 3.62309,-0.47937 8.18107,-0.71907"
       id="path6089" />
    <path
       style="fill:none;stroke:#64648a;stroke-width:0.591747px;stroke-linecap:butt;stroke-linejoin:miter;stroke-miterlimit:4;stroke-dasharray:none;stroke-opacity:1"
       d="m 592.40851,379.08198 c -5.96044,0.83891 -11.57031,2.03734 -17.29709,2.27704 0.11692,0.35953 0.23377,19.77426 0.46755,19.65442 1.05184,-0.35953 4.55797,-11.1455 14.14147,-10.66612 5.25929,-0.23969 9.11606,7.43033 9.7004,13.06299 0.81813,5.99221 -1.75304,10.18675 -4.9086,12.46379 -3.85676,2.39687 -6.89547,0 -9.11607,-2.63657 -2.22058,-2.75642 -3.38927,-5.87236 -3.38927,-9.10815"
       id="path6091" />
    <path
       style="fill:none;stroke:#64648a;stroke-width:0.591747px;stroke-linecap:butt;stroke-linejoin:miter;stroke-miterlimit:4;stroke-dasharray:none;stroke-opacity:1"
       d="m 621.15911,389.38856 c 1.40246,-3.11594 5.25923,-7.31048 8.06416,-7.9097 2.9218,-0.95875 4.79176,1.79766 3.15557,5.63267 -1.98688,4.31439 -3.15557,10.78596 -5.60987,15.69957 -2.10373,5.15329 -5.49301,8.74861 -4.67495,11.02565 1.28562,3.71516 3.38935,3.71516 3.5062,3.71516 0.35058,0.35953 13.20655,-5.39298 13.44032,-2.51672"
       id="path6093" />
    <path
       style="fill:none;stroke:#64648a;stroke-width:0.591747px;stroke-linecap:butt;stroke-linejoin:miter;stroke-miterlimit:4;stroke-dasharray:none;stroke-opacity:1"
       d="m 640.20924,383.03684 c 6.54484,-0.35954 12.6222,-0.83892 19.40075,-1.43813 -2.92178,13.18284 -3.50614,20.37347 -4.9086,35.71352"
       id="path6095" />
    <path
       style="fill:none;stroke:#64648a;stroke-width:0.591747px;stroke-linecap:butt;stroke-linejoin:miter;stroke-miterlimit:4;stroke-dasharray:none;stroke-opacity:1"
       d="m 147.35931,488.14004 c 0.35061,-6.8311 -0.93498,-11.86455 -2.1037,-18.09644 -1.16872,-6.11204 -2.33744,-13.42253 -3.15554,-19.77427 0.46748,0.35954 26.29623,-6.35173 22.67319,20.01396 -2.33744,10.42643 -6.31109,16.77816 -10.28475,18.45598 -3.73991,1.91751 -7.47982,-0.83891 -7.1292,-0.59923 z"
       id="path6097" />
    <path
       style="fill:none;stroke:#64648a;stroke-width:0.591747px;stroke-linecap:butt;stroke-linejoin:miter;stroke-miterlimit:4;stroke-dasharray:none;stroke-opacity:1"
       d="m 172.48682,460.21639 c 6.3111,-4.67392 9.34978,1.67782 10.28476,5.03345 0.70122,3.35563 1.40245,19.89411 1.40245,20.01395 0.23375,0.95876 -0.35061,-5.51283 -2.22056,-9.70737 -1.86996,-4.67391 -5.0255,-7.19064 -8.53167,-6.35173 -9.46664,-2.51673 -0.23375,11.50503 2.68806,12.82331 3.3893,2.15719 7.83043,0 7.83043,0.35954"
       id="path6099" />
    <path
       style="fill:none;stroke:#64648a;stroke-width:0.591747px;stroke-linecap:butt;stroke-linejoin:miter;stroke-miterlimit:4;stroke-dasharray:none;stroke-opacity:1"
       d="m 207.54847,459.9767 c 6.31109,-4.67391 9.34977,1.67782 10.28475,5.03345 0.70124,3.35563 1.40247,19.89411 1.40247,20.01396 0.23374,1.07859 -0.35062,-5.39299 -2.22058,-9.70738 -1.86995,-4.67391 -5.0255,-7.19063 -8.53167,-6.23188 -9.58351,-2.63657 -0.35061,11.38518 2.57119,12.70346 3.50617,2.27704 7.83044,0 7.83044,0.35954"
       id="path6101" />
    <path
       style="fill:none;stroke:#64648a;stroke-width:0.591747px;stroke-linecap:butt;stroke-linejoin:miter;stroke-miterlimit:4;stroke-dasharray:none;stroke-opacity:1"
       d="m 188.84893,446.55416 c 0.35062,3.35565 0.70123,8.26924 1.05184,11.74472 0.35062,3.59533 0.70123,5.75252 1.05186,7.90971 0.35061,2.15719 0.70123,4.55407 0.93497,8.62877 0.35062,3.83501 0.70123,9.34783 0.93498,13.42253"
       id="path6103" />
    <path
       style="fill:none;stroke:#64648a;stroke-width:0.591747px;stroke-linecap:butt;stroke-linejoin:miter;stroke-miterlimit:4;stroke-dasharray:none;stroke-opacity:1"
       d="m 196.67936,448.23199 c 0,-1.43813 0.23375,3.11594 0.46749,6.95095 0.35061,4.0747 0.70123,7.43033 1.05185,11.02565 0.46748,3.71517 0.8181,7.55018 1.05185,12.2241 0.23374,4.43422 0.35061,9.70735 0.35061,8.26924"
       id="path6105" />
    <path
       style="fill:none;stroke:#64648a;stroke-width:0.591747px;stroke-linecap:butt;stroke-linejoin:miter;stroke-miterlimit:4;stroke-dasharray:none;stroke-opacity:1"
       d="m 232.32537,460.21639 c -0.11688,-3.95486 -0.70123,-7.43033 -5.25925,-4.0747 -4.09053,3.83501 -9.2329,4.55408 -3.15555,8.50893 3.15555,2.39687 6.42797,0.95875 10.051,2.51672 3.27242,1.0786 7.01234,5.27314 6.54485,8.62877 -0.46749,1.67782 -3.50617,6.11205 -6.66171,7.31049 -3.27242,1.43813 -6.66172,-0.35954 -8.18105,-5.87236"
       id="path6107" />
    <path
       style="fill:none;stroke:#64648a;stroke-width:0.591747px;stroke-linecap:butt;stroke-linejoin:miter;stroke-miterlimit:4;stroke-dasharray:none;stroke-opacity:1"
       d="m 249.85619,478.79221 c 0,4.19455 0,7.90972 -0.11687,11.26534"
       id="path6109" />
    <path
       style="fill:none;stroke:#64648a;stroke-width:0.591747px;stroke-linecap:butt;stroke-linejoin:miter;stroke-miterlimit:4;stroke-dasharray:none;stroke-opacity:1"
       d="m 275.56806,444.51683 c 3.97366,-0.35954 8.4148,-0.71907 10.05101,-1.07861 1.6362,-0.35953 6.54484,-0.71906 11.45347,-1.07859"
       id="path6111" />
    <path
       style="fill:none;stroke:#64648a;stroke-width:0.591747px;stroke-linecap:butt;stroke-linejoin:miter;stroke-miterlimit:4;stroke-dasharray:none;stroke-opacity:1"
       d="m 285.61907,445.11604 c 0.11687,2.75641 0.23374,7.0708 0.23374,10.0669 0.11688,3.11594 0.23375,4.9136 0.23375,6.83111 0.11687,1.91751 0.23374,3.83501 0.23374,7.31049 0.11688,3.35563 0.23374,8.14939 0.23374,11.74471"
       id="path6113" />
    <path
       style="fill:none;stroke:#64648a;stroke-width:0.591747px;stroke-linecap:butt;stroke-linejoin:miter;stroke-miterlimit:4;stroke-dasharray:none;stroke-opacity:1"
       d="m 301.8643,438.88415 c 1.63621,3.23579 3.27241,8.02955 4.79176,11.38518 1.51933,3.59533 3.03867,5.63267 4.55801,7.78987 1.51934,2.15719 2.9218,4.43422 4.32427,8.38908 1.40247,3.83501 2.80494,9.22798 4.09053,13.18284"
       id="path6115" />
    <path
       style="fill:none;stroke:#64648a;stroke-width:0.591747px;stroke-linecap:butt;stroke-linejoin:miter;stroke-miterlimit:4;stroke-dasharray:none;stroke-opacity:1"
       d="m 317.64204,438.64446 c 0.70124,0 -1.86995,2.87626 -3.85678,6.95096 -2.22057,4.07469 -4.09053,9.34783 -5.72674,14.26144 -1.6362,4.9136 -3.15554,9.58752 -5.02551,13.063 -1.6362,3.35563 -3.62303,5.51283 -2.9218,5.75251"
       id="path6117" />
    <path
       style="fill:none;stroke:#64648a;stroke-width:0.591747px;stroke-linecap:butt;stroke-linejoin:miter;stroke-miterlimit:4;stroke-dasharray:none;stroke-opacity:1"
       d="m 354.80739,439.8429 c 5.60986,-0.71906 10.98597,-1.43812 16.59583,-2.27703 0.35062,0 -2.33743,11.02565 -3.15555,19.77426 -1.05185,8.38909 -1.51932,20.73302 -1.9868,21.33224"
       id="path6119" />
    <path
       style="fill:none;stroke:#64648a;stroke-width:0.591747px;stroke-linecap:butt;stroke-linejoin:miter;stroke-miterlimit:4;stroke-dasharray:none;stroke-opacity:1"
       d="m 393.49205,440.80166 c -5.02549,0.71906 -10.05098,1.55797 -15.0765,2.03735 0.35061,4.19454 0.70123,8.62877 1.16875,12.82331 0.35061,0.47937 3.2724,-0.23969 6.54481,-2.27704 3.3893,-1.67782 7.01234,-4.79376 9.81726,-1.19844 2.57121,2.75641 4.09053,9.94705 3.85678,15.10034 -0.23372,5.51283 -2.22056,8.86847 -5.60986,12.46378 -4.0905,2.9961 -5.72673,-1.31827 -6.89543,-4.55407 -1.16875,-3.47548 -1.86999,-5.87235 -1.98684,-5.63267"
       id="path6121" />
    <path
       style="fill:none;stroke:#64648a;stroke-width:0.591747px;stroke-linecap:butt;stroke-linejoin:miter;stroke-miterlimit:4;stroke-dasharray:none;stroke-opacity:1"
       d="m 405.52992,447.15339 c 2.80492,-2.63656 7.83041,-5.1533 10.16786,-4.19454 2.45432,0.71906 2.22057,4.9136 -1.28559,11.14549 -2.57118,6.71127 -3.62303,10.90581 -4.09054,14.62097 -0.46748,3.47549 -0.35062,6.35174 -0.35062,6.35174 4.2074,0.47937 8.18107,1.55797 12.50534,2.51673"
       id="path6123" />
    <path
       style="fill:none;stroke:#64648a;stroke-width:0.591747px;stroke-linecap:butt;stroke-linejoin:miter;stroke-miterlimit:4;stroke-dasharray:none;stroke-opacity:1"
       d="m 427.38499,440.08259 c -0.23376,2.87626 -1.2856,24.32834 -1.63623,24.2085 7.94733,2.7564 10.40164,-4.0747 16.36212,-1.67782 -1.2856,-6.23189 -2.80493,-10.42643 -3.62302,-15.22019 0.70123,4.67391 1.9868,8.50892 3.03865,14.1416 1.16875,5.27313 1.98684,12.22409 2.68808,17.9766"
       id="path6125" />
    <path
       style="fill:none;stroke:#64648a;stroke-width:0.591747px;stroke-linecap:butt;stroke-linejoin:miter;stroke-miterlimit:4;stroke-dasharray:none;stroke-opacity:1"
       d="m 464.90095,451.70746 c -1.05185,-1.43813 -2.80494,-2.51672 -4.90864,-2.27703 -9.11602,2.15719 -8.99916,8.50892 -7.01232,15.93926 1.40247,4.07469 3.03868,6.71126 4.79177,8.9883 1.75308,2.03734 3.62302,3.83501 7.01233,2.39688 2.45432,-2.39688 6.42795,-3.35564 7.36294,-7.67002 1.16871,-3.95485 -0.58437,-11.26534 -7.24608,-17.37739 z"
       id="path6127" />
  </g>
</svg>
